<?xml version="1.0" encoding="UTF-8" standalone="no"?>
<!DOCTYPE svg PUBLIC "-//W3C//DTD SVG 1.1//EN"
 "http://www.w3.org/Graphics/SVG/1.1/DTD/svg11.dtd">
<!-- Generated by graphviz version 12.2.1 (20241206.2353)
 -->
<!-- Title: dependency&#45;cruiser output Pages: 1 -->
<svg width="469pt" height="286pt"
 viewBox="0.00 0.00 469.25 285.88" xmlns="http://www.w3.org/2000/svg" xmlns:xlink="http://www.w3.org/1999/xlink">
<g id="graph0" class="graph" transform="scale(1 1) rotate(0) translate(4 281.88)">
<title>dependency&#45;cruiser output</title>
<polygon fill="white" stroke="none" points="-4,4 -4,-281.88 465.25,-281.88 465.25,4 -4,4"/>
<g id="clust1" class="cluster">
<title>cluster_lib</title>
<path fill="#ffffff" stroke="black" stroke-width="2" d="M141,-145.88C141,-145.88 441.25,-145.88 441.25,-145.88 447.25,-145.88 453.25,-151.88 453.25,-157.88 453.25,-157.88 453.25,-257.88 453.25,-257.88 453.25,-263.88 447.25,-269.88 441.25,-269.88 441.25,-269.88 141,-269.88 141,-269.88 135,-269.88 129,-263.88 129,-257.88 129,-257.88 129,-157.88 129,-157.88 129,-151.88 135,-145.88 141,-145.88"/>
<text text-anchor="middle" x="291.12" y="-257.32" font-family="Helvetica,sans-Serif" font-weight="bold" font-size="9.00">lib</text>
</g>
<!-- child_process -->
<g id="node1" class="node">
<title>child_process</title>
<g id="a_node1"><a xlink:href="https://nodejs.org/api/child_process.html" xlink:title="child_process">
<path fill="#ffffcc" stroke="grey" d="M288.96,-17.75C288.96,-17.75 227.79,-17.75 227.79,-17.75 224.83,-17.75 221.88,-14.79 221.88,-11.83 221.88,-11.83 221.88,-5.92 221.88,-5.92 221.88,-2.96 224.83,0 227.79,0 227.79,0 288.96,0 288.96,0 291.92,0 294.88,-2.96 294.88,-5.92 294.88,-5.92 294.88,-11.83 294.88,-11.83 294.88,-14.79 291.92,-17.75 288.96,-17.75"/>
<text text-anchor="middle" x="258.38" y="-5.2" font-family="Helvetica,sans-Serif" font-size="9.00" fill="grey">child_process</text>
</a>
</g>
</g>
<!-- esm.mjs -->
<g id="node2" class="node">
<title>esm.mjs</title>
<g id="a_node2"><a xlink:href="esm.mjs" xlink:title="esm.mjs">
<path fill="#ffffcc" stroke="black" d="M48.08,-171.75C48.08,-171.75 5.92,-171.75 5.92,-171.75 2.96,-171.75 0,-168.79 0,-165.83 0,-165.83 0,-159.92 0,-159.92 0,-156.96 2.96,-154 5.92,-154 5.92,-154 48.08,-154 48.08,-154 51.04,-154 54,-156.96 54,-159.92 54,-159.92 54,-165.83 54,-165.83 54,-168.79 51.04,-171.75 48.08,-171.75"/>
<text text-anchor="middle" x="27" y="-159.2" font-family="Helvetica,sans-Serif" font-size="9.00">esm.mjs</text>
</a>
</g>
</g>
<!-- index.js -->
<g id="node3" class="node">
<title>index.js</title>
<g id="a_node3"><a xlink:href="index.js" xlink:title="index.js">
<path fill="#ffffcc" stroke="black" d="M115.08,-171.75C115.08,-171.75 72.92,-171.75 72.92,-171.75 69.96,-171.75 67,-168.79 67,-165.83 67,-165.83 67,-159.92 67,-159.92 67,-156.96 69.96,-154 72.92,-154 72.92,-154 115.08,-154 115.08,-154 118.04,-154 121,-156.96 121,-159.92 121,-159.92 121,-165.83 121,-165.83 121,-168.79 118.04,-171.75 115.08,-171.75"/>
<text text-anchor="middle" x="94" y="-159.2" font-family="Helvetica,sans-Serif" font-size="9.00">index.js</text>
</a>
</g>
</g>
<!-- esm.mjs&#45;&gt;index.js -->
<g id="edge1" class="edge">
<title>esm.mjs&#45;&gt;index.js</title>
<path fill="none" stroke="#000000" stroke-width="2" stroke-opacity="0.200000" d="M54.25,-162.88C54.25,-162.88 57.53,-162.88 57.53,-162.88"/>
<polygon fill="#000000" fill-opacity="0.200000" stroke="#000000" stroke-width="2" stroke-opacity="0.200000" points="57.53,-164.98 63.53,-162.88 57.53,-160.78 57.53,-164.98"/>
</g>
<!-- lib/argument.js -->
<g id="node6" class="node">
<title>lib/argument.js</title>
<g id="a_node6"><a xlink:href="lib/argument.js" xlink:title="argument.js">
<path fill="#ffffcc" stroke="black" d="M372.33,-229.75C372.33,-229.75 320.17,-229.75 320.17,-229.75 317.21,-229.75 314.25,-226.79 314.25,-223.83 314.25,-223.83 314.25,-217.92 314.25,-217.92 314.25,-214.96 317.21,-212 320.17,-212 320.17,-212 372.33,-212 372.33,-212 375.29,-212 378.25,-214.96 378.25,-217.92 378.25,-217.92 378.25,-223.83 378.25,-223.83 378.25,-226.79 375.29,-229.75 372.33,-229.75"/>
<text text-anchor="start" x="322.25" y="-217.2" font-family="Helvetica,sans-Serif" font-size="9.00">argument.js</text>
</a>
</g>
</g>
<!-- index.js&#45;&gt;lib/argument.js -->
<g id="edge2" class="edge">
<title>index.js&#45;&gt;lib/argument.js</title>
<path fill="none" stroke="#000000" stroke-width="2" stroke-opacity="0.200000" d="M110.25,-172.03C110.25,-188.15 110.25,-219.88 110.25,-219.88 110.25,-219.88 304.9,-219.88 304.9,-219.88"/>
<polygon fill="#000000" fill-opacity="0.200000" stroke="#000000" stroke-width="2" stroke-opacity="0.200000" points="304.9,-221.98 310.9,-219.88 304.9,-217.78 304.9,-221.98"/>
</g>
<!-- lib/command.js -->
<g id="node7" class="node">
<title>lib/command.js</title>
<g id="a_node7"><a xlink:href="lib/command.js" xlink:title="command.js">
<path fill="#ffffcc" stroke="black" d="M196.58,-171.75C196.58,-171.75 142.92,-171.75 142.92,-171.75 139.96,-171.75 137,-168.79 137,-165.83 137,-165.83 137,-159.92 137,-159.92 137,-156.96 139.96,-154 142.92,-154 142.92,-154 196.58,-154 196.58,-154 199.54,-154 202.5,-156.96 202.5,-159.92 202.5,-159.92 202.5,-165.83 202.5,-165.83 202.5,-168.79 199.54,-171.75 196.58,-171.75"/>
<text text-anchor="start" x="145" y="-159.2" font-family="Helvetica,sans-Serif" font-size="9.00">command.js</text>
</a>
</g>
</g>
<!-- index.js&#45;&gt;lib/command.js -->
<g id="edge3" class="edge">
<title>index.js&#45;&gt;lib/command.js</title>
<path fill="none" stroke="#000000" stroke-width="2" stroke-opacity="0.200000" d="M121.35,-162.88C121.35,-162.88 127.73,-162.88 127.73,-162.88"/>
<polygon fill="#000000" fill-opacity="0.200000" stroke="#000000" stroke-width="2" stroke-opacity="0.200000" points="127.73,-164.98 133.73,-162.88 127.73,-160.78 127.73,-164.98"/>
</g>
<!-- lib/error.js -->
<g id="node8" class="node">
<title>lib/error.js</title>
<g id="a_node8"><a xlink:href="lib/error.js" xlink:title="error.js">
<path fill="#ffffcc" stroke="black" d="M439.33,-182.75C439.33,-182.75 397.17,-182.75 397.17,-182.75 394.21,-182.75 391.25,-179.79 391.25,-176.83 391.25,-176.83 391.25,-170.92 391.25,-170.92 391.25,-167.96 394.21,-165 397.17,-165 397.17,-165 439.33,-165 439.33,-165 442.29,-165 445.25,-167.96 445.25,-170.92 445.25,-170.92 445.25,-176.83 445.25,-176.83 445.25,-179.79 442.29,-182.75 439.33,-182.75"/>
<text text-anchor="start" x="404" y="-170.2" font-family="Helvetica,sans-Serif" font-size="9.00">error.js</text>
</a>
</g>
</g>
<!-- index.js&#45;&gt;lib/error.js -->
<g id="edge4" class="edge">
<title>index.js&#45;&gt;lib/error.js</title>
<path fill="none" stroke="#000000" stroke-width="2" stroke-opacity="0.200000" d="M78.25,-172.24C78.25,-176.24 78.25,-180 78.25,-180 78.25,-180 381.97,-180 381.97,-180"/>
<polygon fill="#000000" fill-opacity="0.200000" stroke="#000000" stroke-width="2" stroke-opacity="0.200000" points="381.97,-182.1 387.97,-180 381.97,-177.9 381.97,-182.1"/>
</g>
<!-- lib/help.js -->
<g id="node9" class="node">
<title>lib/help.js</title>
<g id="a_node9"><a xlink:href="lib/help.js" xlink:title="help.js">
<path fill="#ffffcc" stroke="black" d="M279.46,-243.75C279.46,-243.75 237.29,-243.75 237.29,-243.75 234.33,-243.75 231.38,-240.79 231.38,-237.83 231.38,-237.83 231.38,-231.92 231.38,-231.92 231.38,-228.96 234.33,-226 237.29,-226 237.29,-226 279.46,-226 279.46,-226 282.42,-226 285.38,-228.96 285.38,-231.92 285.38,-231.92 285.38,-237.83 285.38,-237.83 285.38,-240.79 282.42,-243.75 279.46,-243.75"/>
<text text-anchor="start" x="244.88" y="-231.2" font-family="Helvetica,sans-Serif" font-size="9.00">help.js</text>
</a>
</g>
</g>
<!-- index.js&#45;&gt;lib/help.js -->
<g id="edge5" class="edge">
<title>index.js&#45;&gt;lib/help.js</title>
<path fill="none" stroke="#000000" stroke-width="2" stroke-opacity="0.200000" d="M99.25,-172.07C99.25,-192.08 99.25,-237.83 99.25,-237.83 99.25,-237.83 221.99,-237.83 221.99,-237.83"/>
<polygon fill="#000000" fill-opacity="0.200000" stroke="#000000" stroke-width="2" stroke-opacity="0.200000" points="221.99,-239.93 227.99,-237.83 221.99,-235.73 221.99,-239.93"/>
</g>
<!-- lib/option.js -->
<g id="node10" class="node">
<title>lib/option.js</title>
<g id="a_node10"><a xlink:href="lib/option.js" xlink:title="option.js">
<path fill="#ffffcc" stroke="black" d="M367.33,-171.75C367.33,-171.75 325.17,-171.75 325.17,-171.75 322.21,-171.75 319.25,-168.79 319.25,-165.83 319.25,-165.83 319.25,-159.92 319.25,-159.92 319.25,-156.96 322.21,-154 325.17,-154 325.17,-154 367.33,-154 367.33,-154 370.29,-154 373.25,-156.96 373.25,-159.92 373.25,-159.92 373.25,-165.83 373.25,-165.83 373.25,-168.79 370.29,-171.75 367.33,-171.75"/>
<text text-anchor="start" x="329" y="-159.2" font-family="Helvetica,sans-Serif" font-size="9.00">option.js</text>
</a>
</g>
</g>
<!-- index.js&#45;&gt;lib/option.js -->
<g id="edge6" class="edge">
<title>index.js&#45;&gt;lib/option.js</title>
<path fill="none" stroke="#000000" stroke-width="2" stroke-opacity="0.200000" d="M88.25,-171.8C88.25,-173.36 88.25,-174.5 88.25,-174.5 88.25,-174.5 346.25,-174.5 346.25,-174.5 346.25,-174.5 346.25,-174.23 346.25,-174.23"/>
<polygon fill="#000000" fill-opacity="0.200000" stroke="#000000" stroke-width="2" stroke-opacity="0.200000" points="348.35,-180.83 346.25,-174.83 344.15,-180.83 348.35,-180.83"/>
</g>
<!-- events -->
<g id="node4" class="node">
<title>events</title>
<g id="a_node4"><a xlink:href="https://nodejs.org/api/events.html" xlink:title="events">
<path fill="#ffffcc" stroke="grey" d="M279.46,-137.75C279.46,-137.75 237.29,-137.75 237.29,-137.75 234.33,-137.75 231.38,-134.79 231.38,-131.83 231.38,-131.83 231.38,-125.92 231.38,-125.92 231.38,-122.96 234.33,-120 237.29,-120 237.29,-120 279.46,-120 279.46,-120 282.42,-120 285.38,-122.96 285.38,-125.92 285.38,-125.92 285.38,-131.83 285.38,-131.83 285.38,-134.79 282.42,-137.75 279.46,-137.75"/>
<text text-anchor="middle" x="258.38" y="-125.2" font-family="Helvetica,sans-Serif" font-size="9.00" fill="grey">events</text>
</a>
</g>
</g>
<!-- fs -->
<g id="node5" class="node">
<title>fs</title>
<g id="a_node5"><a xlink:href="https://nodejs.org/api/fs.html" xlink:title="fs">
<path fill="#ffffcc" stroke="grey" d="M279.46,-107.75C279.46,-107.75 237.29,-107.75 237.29,-107.75 234.33,-107.75 231.38,-104.79 231.38,-101.83 231.38,-101.83 231.38,-95.92 231.38,-95.92 231.38,-92.96 234.33,-90 237.29,-90 237.29,-90 279.46,-90 279.46,-90 282.42,-90 285.38,-92.96 285.38,-95.92 285.38,-95.92 285.38,-101.83 285.38,-101.83 285.38,-104.79 282.42,-107.75 279.46,-107.75"/>
<text text-anchor="middle" x="258.38" y="-95.2" font-family="Helvetica,sans-Serif" font-size="9.00" fill="grey">fs</text>
</a>
</g>
</g>
<!-- lib/argument.js&#45;&gt;lib/error.js -->
<g id="edge7" class="edge">
<title>lib/argument.js&#45;&gt;lib/error.js</title>
<path fill="none" stroke="#000000" stroke-width="2" stroke-opacity="0.200000" d="M378.46,-220.88C397.63,-220.88 418.25,-220.88 418.25,-220.88 418.25,-220.88 418.25,-191.96 418.25,-191.96"/>
<polygon fill="#000000" fill-opacity="0.200000" stroke="#000000" stroke-width="2" stroke-opacity="0.200000" points="420.35,-191.96 418.25,-185.96 416.15,-191.96 420.35,-191.96"/>
</g>
<!-- lib/command.js&#45;&gt;child_process -->
<g id="edge13" class="edge">
<title>lib/command.js&#45;&gt;child_process</title>
<path fill="none" stroke="#000000" stroke-dasharray="5,2" stroke-opacity="0.200000" d="M203,-157.55C214.82,-157.55 225.25,-157.55 225.25,-157.55 225.25,-157.55 225.25,-25.69 225.25,-25.69"/>
<polygon fill="#000000" fill-opacity="0.200000" stroke="#000000" stroke-opacity="0.200000" points="227.35,-25.69 225.25,-19.69 223.15,-25.69 227.35,-25.69"/>
</g>
<!-- lib/command.js&#45;&gt;events -->
<g id="edge14" class="edge">
<title>lib/command.js&#45;&gt;events</title>
<path fill="none" stroke="#000000" stroke-dasharray="5,2" stroke-opacity="0.200000" d="M202.96,-161.1C228.07,-161.1 258.25,-161.1 258.25,-161.1 258.25,-161.1 258.25,-145.54 258.25,-145.54"/>
<polygon fill="#000000" fill-opacity="0.200000" stroke="#000000" stroke-opacity="0.200000" points="260.35,-145.54 258.25,-139.54 256.15,-145.54 260.35,-145.54"/>
</g>
<!-- lib/command.js&#45;&gt;fs -->
<g id="edge15" class="edge">
<title>lib/command.js&#45;&gt;fs</title>
<path fill="none" stroke="#000000" stroke-dasharray="5,2" stroke-opacity="0.200000" d="M186.25,-153.71C186.25,-136.01 186.25,-98.88 186.25,-98.88 186.25,-98.88 223.59,-98.88 223.59,-98.88"/>
<polygon fill="#000000" fill-opacity="0.200000" stroke="#000000" stroke-opacity="0.200000" points="223.59,-100.98 229.59,-98.88 223.59,-96.78 223.59,-100.98"/>
</g>
<!-- lib/command.js&#45;&gt;lib/argument.js -->
<g id="edge8" class="edge">
<title>lib/command.js&#45;&gt;lib/argument.js</title>
<path fill="none" stroke="#000000" stroke-width="2" stroke-opacity="0.200000" d="M186.25,-171.78C186.25,-187.1 186.25,-216.81 186.25,-216.81 186.25,-216.81 304.84,-216.81 304.84,-216.81"/>
<polygon fill="#000000" fill-opacity="0.200000" stroke="#000000" stroke-width="2" stroke-opacity="0.200000" points="304.84,-218.91 310.84,-216.81 304.84,-214.71 304.84,-218.91"/>
</g>
<!-- lib/command.js&#45;&gt;lib/error.js -->
<g id="edge9" class="edge">
<title>lib/command.js&#45;&gt;lib/error.js</title>
<path fill="none" stroke="#000000" stroke-width="2" stroke-opacity="0.200000" d="M153.25,-172.06C153.25,-174.88 153.25,-177.25 153.25,-177.25 153.25,-177.25 381.86,-177.25 381.86,-177.25"/>
<polygon fill="#000000" fill-opacity="0.200000" stroke="#000000" stroke-width="2" stroke-opacity="0.200000" points="381.86,-179.35 387.86,-177.25 381.86,-175.15 381.86,-179.35"/>
</g>
<!-- lib/command.js&#45;&gt;lib/help.js -->
<g id="edge10" class="edge">
<title>lib/command.js&#45;&gt;lib/help.js</title>
<path fill="none" stroke="#000000" stroke-width="2" stroke-opacity="0.200000" d="M169.25,-172.19C169.25,-191.03 169.25,-231.92 169.25,-231.92 169.25,-231.92 222.12,-231.92 222.12,-231.92"/>
<polygon fill="#000000" fill-opacity="0.200000" stroke="#000000" stroke-width="2" stroke-opacity="0.200000" points="222.12,-234.02 228.12,-231.92 222.12,-229.82 222.12,-234.02"/>
</g>
<!-- lib/command.js&#45;&gt;lib/option.js -->
<g id="edge11" class="edge">
<title>lib/command.js&#45;&gt;lib/option.js</title>
<path fill="none" stroke="#000000" stroke-width="2" stroke-opacity="0.200000" d="M202.95,-164.65C202.95,-164.65 309.96,-164.65 309.96,-164.65"/>
<polygon fill="#000000" fill-opacity="0.200000" stroke="#000000" stroke-width="2" stroke-opacity="0.200000" points="309.96,-166.75 315.96,-164.65 309.96,-162.55 309.96,-166.75"/>
</g>
<!-- lib/suggestSimilar.js -->
<g id="node11" class="node">
<title>lib/suggestSimilar.js</title>
<g id="a_node11"><a xlink:href="lib/suggestSimilar.js" xlink:title="suggestSimilar.js">
<path fill="#ffffcc" stroke="black" d="M295.33,-213.75C295.33,-213.75 221.42,-213.75 221.42,-213.75 218.46,-213.75 215.5,-210.79 215.5,-207.83 215.5,-207.83 215.5,-201.92 215.5,-201.92 215.5,-198.96 218.46,-196 221.42,-196 221.42,-196 295.33,-196 295.33,-196 298.29,-196 301.25,-198.96 301.25,-201.92 301.25,-201.92 301.25,-207.83 301.25,-207.83 301.25,-210.79 298.29,-213.75 295.33,-213.75"/>
<text text-anchor="start" x="223.5" y="-201.2" font-family="Helvetica,sans-Serif" font-size="9.00">suggestSimilar.js</text>
</a>
</g>
</g>
<!-- lib/command.js&#45;&gt;lib/suggestSimilar.js -->
<g id="edge12" class="edge">
<title>lib/command.js&#45;&gt;lib/suggestSimilar.js</title>
<path fill="none" stroke="#000000" stroke-width="2" stroke-opacity="0.200000" d="M202.76,-168.2C216.03,-168.2 228.25,-168.2 228.25,-168.2 228.25,-168.2 228.25,-186.59 228.25,-186.59"/>
<polygon fill="#000000" fill-opacity="0.200000" stroke="#000000" stroke-width="2" stroke-opacity="0.200000" points="226.15,-186.59 228.25,-192.59 230.35,-186.59 226.15,-186.59"/>
</g>
<!-- path -->
<g id="node12" class="node">
<title>path</title>
<g id="a_node12"><a xlink:href="https://nodejs.org/api/path.html" xlink:title="path">
<path fill="#ffffcc" stroke="grey" d="M279.46,-77.75C279.46,-77.75 237.29,-77.75 237.29,-77.75 234.33,-77.75 231.38,-74.79 231.38,-71.83 231.38,-71.83 231.38,-65.92 231.38,-65.92 231.38,-62.96 234.33,-60 237.29,-60 237.29,-60 279.46,-60 279.46,-60 282.42,-60 285.38,-62.96 285.38,-65.92 285.38,-65.92 285.38,-71.83 285.38,-71.83 285.38,-74.79 282.42,-77.75 279.46,-77.75"/>
<text text-anchor="middle" x="258.38" y="-65.2" font-family="Helvetica,sans-Serif" font-size="9.00" fill="grey">path</text>
</a>
</g>
</g>
<!-- lib/command.js&#45;&gt;path -->
<g id="edge16" class="edge">
<title>lib/command.js&#45;&gt;path</title>
<path fill="none" stroke="#000000" stroke-dasharray="5,2" stroke-opacity="0.200000" d="M169.25,-153.52C169.25,-129.74 169.25,-68.88 169.25,-68.88 169.25,-68.88 223.64,-68.88 223.64,-68.88"/>
<polygon fill="#000000" fill-opacity="0.200000" stroke="#000000" stroke-opacity="0.200000" points="223.64,-70.98 229.64,-68.88 223.64,-66.78 223.64,-70.98"/>
</g>
<!-- process -->
<g id="node13" class="node">
<title>process</title>
<g id="a_node13"><a xlink:href="https://nodejs.org/api/process.html" xlink:title="process">
<path fill="#ffffcc" stroke="grey" d="M279.46,-47.75C279.46,-47.75 237.29,-47.75 237.29,-47.75 234.33,-47.75 231.38,-44.79 231.38,-41.83 231.38,-41.83 231.38,-35.92 231.38,-35.92 231.38,-32.96 234.33,-30 237.29,-30 237.29,-30 279.46,-30 279.46,-30 282.42,-30 285.38,-32.96 285.38,-35.92 285.38,-35.92 285.38,-41.83 285.38,-41.83 285.38,-44.79 282.42,-47.75 279.46,-47.75"/>
<text text-anchor="middle" x="258.38" y="-35.2" font-family="Helvetica,sans-Serif" font-size="9.00" fill="grey">process</text>
</a>
</g>
</g>
<!-- lib/command.js&#45;&gt;process -->
<g id="edge17" class="edge">
<title>lib/command.js&#45;&gt;process</title>
<path fill="none" stroke="#000000" stroke-dasharray="5,2" stroke-opacity="0.200000" d="M153.25,-153.55C153.25,-124.72 153.25,-38.88 153.25,-38.88 153.25,-38.88 223.52,-38.88 223.52,-38.88"/>
<polygon fill="#000000" fill-opacity="0.200000" stroke="#000000" stroke-opacity="0.200000" points="223.52,-40.98 229.52,-38.88 223.52,-36.78 223.52,-40.98"/>
</g>
<!-- lib/help.js&#45;&gt;lib/argument.js -->
<g id="edge18" class="edge">
<title>lib/help.js&#45;&gt;lib/argument.js</title>
<path fill="none" stroke="#000000" stroke-width="2" stroke-opacity="0.200000" d="M258.25,-225.71C258.25,-224.1 258.25,-222.94 258.25,-222.94 258.25,-222.94 304.95,-222.94 304.95,-222.94"/>
<polygon fill="#000000" fill-opacity="0.200000" stroke="#000000" stroke-width="2" stroke-opacity="0.200000" points="304.95,-225.04 310.95,-222.94 304.95,-220.84 304.95,-225.04"/>
</g>
<!-- lib/option.js&#45;&gt;lib/error.js -->
<g id="edge19" class="edge">
<title>lib/option.js&#45;&gt;lib/error.js</title>
<path fill="none" stroke="#000000" stroke-width="2" stroke-opacity="0.200000" d="M373.47,-159.5C393.86,-159.5 418.25,-159.5 418.25,-159.5 418.25,-159.5 418.25,-160.02 418.25,-160.02"/>
<polygon fill="#000000" fill-opacity="0.200000" stroke="#000000" stroke-width="2" stroke-opacity="0.200000" points="416.15,-155.66 418.25,-161.66 420.35,-155.66 416.15,-155.66"/>
</g>
</g>
</svg>
