<?xml version="1.0" encoding="UTF-8" standalone="no"?>
<!DOCTYPE svg PUBLIC "-//W3C//DTD SVG 1.1//EN"
 "http://www.w3.org/Graphics/SVG/1.1/DTD/svg11.dtd">
<!-- Generated by graphviz version 3.0.0 (20220226.1711)
 -->
<!-- Title: dependency&#45;cruiser output Pages: 1 -->
<svg width="320pt" height="249pt"
 viewBox="0.00 0.00 320.00 249.00" xmlns="http://www.w3.org/2000/svg" xmlns:xlink="http://www.w3.org/1999/xlink">
<g id="graph0" class="graph" transform="scale(1 1) rotate(0) translate(4 245)">
<title>dependency&#45;cruiser output</title>
<polygon fill="white" stroke="transparent" points="-4,4 -4,-245 316,-245 316,4 -4,4"/>
<g id="clust1" class="cluster">
<title>cluster_src</title>
<path fill="#ffffff" stroke="black" stroke-width="2" d="M20,-8C20,-8 292,-8 292,-8 298,-8 304,-14 304,-20 304,-20 304,-203 304,-203 304,-209 298,-215 292,-215 292,-215 20,-215 20,-215 14,-215 8,-209 8,-203 8,-203 8,-20 8,-20 8,-14 14,-8 20,-8"/>
<text text-anchor="middle" x="156" y="-203.8" font-family="Helvetica,sans-Serif" font-weight="bold" font-size="9.00">src</text>
</g>
<!-- bin/ -->
<g id="node1" class="node">
<title>bin/</title>
<g id="a_node1"><a xlink:href="https://github.com/sverweij/dependency-cruiser/blob/develop/bin/" xlink:title="bin">
<polygon fill="#ffffcc" stroke="black" points="272,-241 220,-241 218,-239 218,-223 270,-223 272,-225 272,-241"/>
<polyline fill="none" stroke="black" points="270,-239 218,-239 "/>
<polyline fill="none" stroke="black" points="270,-239 270,-223 "/>
<polyline fill="none" stroke="black" points="270,-239 272,-241 "/>
<text text-anchor="start" x="238.5" y="-229.8" font-family="Helvetica,sans-Serif" font-size="9.00">bin</text>
</a>
</g>
</g>
<!-- src/cli -->
<g id="node2" class="node">
<title>src/cli</title>
<g id="a_node2"><a xlink:href="https://github.com/sverweij/dependency-cruiser/blob/develop/src/cli" xlink:title="not&#45;reachable&#45;from&#45;folder&#45;index">
<polygon fill="#ccccff" stroke="blue" points="272,-189 220,-189 218,-187 218,-171 270,-171 272,-173 272,-189"/>
<polyline fill="none" stroke="blue" points="270,-187 218,-187 "/>
<polyline fill="none" stroke="blue" points="270,-187 270,-171 "/>
<polyline fill="none" stroke="blue" points="270,-187 272,-189 "/>
<text text-anchor="start" x="240" y="-177.8" font-family="Helvetica,sans-Serif" font-size="9.00" fill="blue">cli</text>
</a>
</g>
</g>
<!-- bin/&#45;&gt;src/cli -->
<g id="edge1" class="edge">
<title>bin/&#45;&gt;src/cli</title>
<path fill="none" stroke="#0000ff" stroke-width="2" stroke-opacity="0.466667" d="M245,-222.94C245,-222.94 245,-195.3 245,-195.3"/>
<polygon fill="#0000ff" fill-opacity="0.466667" stroke="#0000ff" stroke-width="2" stroke-opacity="0.466667" points="247.1,-195.3 245,-189.3 242.9,-195.3 247.1,-195.3"/>
</g>
<!-- src/config&#45;utl -->
<g id="node3" class="node">
<title>src/config&#45;utl</title>
<g id="a_node3"><a xlink:href="https://github.com/sverweij/dependency-cruiser/blob/develop/src/config-utl" xlink:title="config&#45;utl">
<polygon fill="#99ffff" stroke="black" points="272,-158 220,-158 218,-156 218,-140 270,-140 272,-142 272,-158"/>
<polyline fill="none" stroke="black" points="270,-156 218,-156 "/>
<polyline fill="none" stroke="black" points="270,-156 270,-140 "/>
<polyline fill="none" stroke="black" points="270,-156 272,-158 "/>
<text text-anchor="start" x="226" y="-146.8" font-family="Helvetica,sans-Serif" font-size="9.00">config&#45;utl</text>
</a>
</g>
</g>
<!-- src/cli&#45;&gt;src/config&#45;utl -->
<g id="edge2" class="edge">
<title>src/cli&#45;&gt;src/config&#45;utl</title>
<path fill="none" stroke="#229999" stroke-width="2" stroke-opacity="0.466667" d="M245,-170.87C245,-170.87 245,-164.18 245,-164.18"/>
<polygon fill="#229999" fill-opacity="0.466667" stroke="#229999" stroke-width="2" stroke-opacity="0.466667" points="247.1,-164.18 245,-158.18 242.9,-164.18 247.1,-164.18"/>
</g>
<!-- src/main -->
<g id="node4" class="node">
<title>src/main</title>
<g id="a_node4"><a xlink:href="https://github.com/sverweij/dependency-cruiser/blob/develop/src/main" xlink:title="main">
<polygon fill="#ffcccc" stroke="black" points="216,-127 164,-127 162,-125 162,-109 214,-109 216,-111 216,-127"/>
<polyline fill="none" stroke="black" points="214,-125 162,-125 "/>
<polyline fill="none" stroke="black" points="214,-125 214,-109 "/>
<polyline fill="none" stroke="black" points="214,-125 216,-127 "/>
<text text-anchor="start" x="178.5" y="-115.8" font-family="Helvetica,sans-Serif" font-size="9.00">main</text>
</a>
</g>
</g>
<!-- src/cli&#45;&gt;src/main -->
<g id="edge3" class="edge">
<title>src/cli&#45;&gt;src/main</title>
<path fill="none" stroke="#770000" stroke-width="2" stroke-opacity="0.466667" d="M217.98,-180C203.66,-180 189,-180 189,-180 189,-180 189,-133.15 189,-133.15"/>
<polygon fill="#770000" fill-opacity="0.466667" stroke="#770000" stroke-width="2" stroke-opacity="0.466667" points="191.1,-133.15 189,-127.15 186.9,-133.15 191.1,-133.15"/>
</g>
<!-- src/utl -->
<g id="node5" class="node">
<title>src/utl</title>
<g id="a_node5"><a xlink:href="https://github.com/sverweij/dependency-cruiser/blob/develop/src/utl" xlink:title="utl&#45;module&#45;not&#45;shared&#45;enough">
<polygon fill="#cccccc" stroke="blue" points="216,-34 164,-34 162,-32 162,-16 214,-16 216,-18 216,-34"/>
<polyline fill="none" stroke="blue" points="214,-32 162,-32 "/>
<polyline fill="none" stroke="blue" points="214,-32 214,-16 "/>
<polyline fill="none" stroke="blue" points="214,-32 216,-34 "/>
<text text-anchor="start" x="184" y="-22.8" font-family="Helvetica,sans-Serif" font-size="9.00" fill="blue">utl</text>
</a>
</g>
</g>
<!-- src/cli&#45;&gt;src/utl -->
<g id="edge4" class="edge">
<title>src/cli&#45;&gt;src/utl</title>
<path fill="none" stroke="#aaaaaa" stroke-width="2" stroke-opacity="0.466667" d="M272.18,-180C286.03,-180 300,-180 300,-180 300,-180 300,-22 300,-22 300,-22 222.15,-22 222.15,-22"/>
<polygon fill="#aaaaaa" fill-opacity="0.466667" stroke="#aaaaaa" stroke-width="2" stroke-opacity="0.466667" points="222.15,-19.9 216.15,-22 222.15,-24.1 222.15,-19.9"/>
</g>
<!-- src/config&#45;utl&#45;&gt;src/main -->
<g id="edge6" class="edge">
<title>src/config&#45;utl&#45;&gt;src/main</title>
<path fill="none" stroke="#770000" stroke-width="2" stroke-opacity="0.466667" d="M223,-139.83C223,-131.67 223,-121 223,-121 223,-121 222.12,-121 222.12,-121"/>
<polygon fill="#770000" fill-opacity="0.466667" stroke="#770000" stroke-width="2" stroke-opacity="0.466667" points="222.12,-118.9 216.12,-121 222.12,-123.1 222.12,-118.9"/>
</g>
<!-- src/extract -->
<g id="node6" class="node">
<title>src/extract</title>
<g id="a_node6"><a xlink:href="https://github.com/sverweij/dependency-cruiser/blob/develop/src/extract" xlink:title="extract">
<polygon fill="#ccffcc" stroke="black" points="282,-96 230,-96 228,-94 228,-78 280,-78 282,-80 282,-96"/>
<polyline fill="none" stroke="black" points="280,-94 228,-94 "/>
<polyline fill="none" stroke="black" points="280,-94 280,-78 "/>
<polyline fill="none" stroke="black" points="280,-94 282,-96 "/>
<text text-anchor="start" x="241" y="-84.8" font-family="Helvetica,sans-Serif" font-size="9.00">extract</text>
</a>
</g>
</g>
<!-- src/config&#45;utl&#45;&gt;src/extract -->
<g id="edge5" class="edge">
<title>src/config&#45;utl&#45;&gt;src/extract</title>
<path fill="none" stroke="#007700" stroke-width="2" stroke-opacity="0.466667" d="M257.33,-139.85C257.33,-139.85 257.33,-102.19 257.33,-102.19"/>
<polygon fill="#007700" fill-opacity="0.466667" stroke="#007700" stroke-width="2" stroke-opacity="0.466667" points="259.43,-102.19 257.33,-96.19 255.23,-102.19 259.43,-102.19"/>
</g>
<!-- src/main&#45;&gt;src/extract -->
<g id="edge13" class="edge">
<title>src/main&#45;&gt;src/extract</title>
<path fill="none" stroke="#007700" stroke-width="2" stroke-opacity="0.466667" d="M216.15,-115C229.46,-115 242.67,-115 242.67,-115 242.67,-115 242.67,-102.17 242.67,-102.17"/>
<polygon fill="#007700" fill-opacity="0.466667" stroke="#007700" stroke-width="2" stroke-opacity="0.466667" points="244.77,-102.17 242.67,-96.17 240.57,-102.17 244.77,-102.17"/>
</g>
<!-- src/enrich -->
<g id="node7" class="node">
<title>src/enrich</title>
<g id="a_node7"><a xlink:href="https://github.com/sverweij/dependency-cruiser/blob/develop/src/enrich" xlink:title="enrich">
<polygon fill="#77eeaa" stroke="black" points="70,-96 18,-96 16,-94 16,-78 68,-78 70,-80 70,-96"/>
<polyline fill="none" stroke="black" points="68,-94 16,-94 "/>
<polyline fill="none" stroke="black" points="68,-94 68,-78 "/>
<polyline fill="none" stroke="black" points="68,-94 70,-96 "/>
<text text-anchor="start" x="30" y="-84.8" font-family="Helvetica,sans-Serif" font-size="9.00">enrich</text>
</a>
</g>
</g>
<!-- src/main&#45;&gt;src/enrich -->
<g id="edge12" class="edge">
<title>src/main&#45;&gt;src/enrich</title>
<path fill="none" stroke="#007766" stroke-width="2" stroke-opacity="0.466667" d="M161.88,-122C119.66,-122 43,-122 43,-122 43,-122 43,-102.2 43,-102.2"/>
<polygon fill="#007766" fill-opacity="0.466667" stroke="#007766" stroke-width="2" stroke-opacity="0.466667" points="45.1,-102.2 43,-96.2 40.9,-102.2 45.1,-102.2"/>
</g>
<!-- src/graph&#45;utl -->
<g id="node9" class="node">
<title>src/graph&#45;utl</title>
<g id="a_node9"><a xlink:href="https://github.com/sverweij/dependency-cruiser/blob/develop/src/graph-utl" xlink:title="graph&#45;utl">
<polygon fill="#ffcccc" stroke="black" points="173,-65 121,-65 119,-63 119,-47 171,-47 173,-49 173,-65"/>
<polyline fill="none" stroke="black" points="171,-63 119,-63 "/>
<polyline fill="none" stroke="black" points="171,-63 171,-47 "/>
<polyline fill="none" stroke="black" points="171,-63 173,-65 "/>
<text text-anchor="start" x="127.5" y="-53.8" font-family="Helvetica,sans-Serif" font-size="9.00">graph&#45;utl</text>
</a>
</g>
</g>
<!-- src/main&#45;&gt;src/graph&#45;utl -->
<g id="edge16" class="edge">
<title>src/main&#45;&gt;src/graph&#45;utl</title>
<path fill="none" stroke="#770000" stroke-width="2" stroke-opacity="0.466667" d="M161.75,-118C158.33,-118 156,-118 156,-118 156,-118 156,-71.15 156,-71.15"/>
<polygon fill="#770000" fill-opacity="0.466667" stroke="#770000" stroke-width="2" stroke-opacity="0.466667" points="158.1,-71.15 156,-65.15 153.9,-71.15 158.1,-71.15"/>
</g>
<!-- src/schema -->
<g id="node10" class="node">
<title>src/schema</title>
<g id="a_node10"><a xlink:href="https://github.com/sverweij/dependency-cruiser/blob/develop/src/schema" xlink:title="not&#45;unreachable&#45;from&#45;cli">
<polygon fill="#ccffcc" stroke="red" points="150,-96 98,-96 96,-94 96,-78 148,-78 150,-80 150,-96"/>
<polyline fill="none" stroke="red" points="148,-94 96,-94 "/>
<polyline fill="none" stroke="red" points="148,-94 148,-78 "/>
<polyline fill="none" stroke="red" points="148,-94 150,-96 "/>
<text text-anchor="start" x="106.5" y="-84.8" font-family="Helvetica,sans-Serif" font-size="9.00" fill="red">schema</text>
</a>
</g>
</g>
<!-- src/main&#45;&gt;src/schema -->
<g id="edge14" class="edge">
<title>src/main&#45;&gt;src/schema</title>
<path fill="none" stroke="#000000" stroke-width="2" stroke-opacity="0.200000" d="M161.77,-113C143.59,-113 123,-113 123,-113 123,-113 123,-102.09 123,-102.09"/>
<polygon fill="#000000" fill-opacity="0.200000" stroke="#000000" stroke-width="2" stroke-opacity="0.200000" points="125.1,-102.09 123,-96.09 120.9,-102.09 125.1,-102.09"/>
</g>
<!-- src/report -->
<g id="node11" class="node">
<title>src/report</title>
<g id="a_node11"><a xlink:href="https://github.com/sverweij/dependency-cruiser/blob/develop/src/report" xlink:title="report">
<polygon fill="#ffccff" stroke="black" points="216,-96 164,-96 162,-94 162,-78 214,-78 216,-80 216,-96"/>
<polyline fill="none" stroke="black" points="214,-94 162,-94 "/>
<polyline fill="none" stroke="black" points="214,-94 214,-78 "/>
<polyline fill="none" stroke="black" points="214,-94 216,-96 "/>
<text text-anchor="start" x="176.5" y="-84.8" font-family="Helvetica,sans-Serif" font-size="9.00">report</text>
</a>
</g>
</g>
<!-- src/main&#45;&gt;src/report -->
<g id="edge15" class="edge">
<title>src/main&#45;&gt;src/report</title>
<path fill="none" stroke="#ff00ff" stroke-width="2" stroke-opacity="0.466667" d="M189,-108.87C189,-108.87 189,-102.18 189,-102.18"/>
<polygon fill="#ff00ff" fill-opacity="0.466667" stroke="#ff00ff" stroke-width="2" stroke-opacity="0.466667" points="191.1,-102.18 189,-96.18 186.9,-102.18 191.1,-102.18"/>
</g>
<!-- src/extract&#45;&gt;src/utl -->
<g id="edge11" class="edge">
<title>src/extract&#45;&gt;src/utl</title>
<path fill="none" stroke="#aaaaaa" stroke-width="2" stroke-opacity="0.466667" d="M264,-77.78C264,-61.19 264,-28 264,-28 264,-28 222.08,-28 222.08,-28"/>
<polygon fill="#aaaaaa" fill-opacity="0.466667" stroke="#aaaaaa" stroke-width="2" stroke-opacity="0.466667" points="222.08,-25.9 216.08,-28 222.08,-30.1 222.08,-25.9"/>
</g>
<!-- src/extract&#45;&gt;src/graph&#45;utl -->
<g id="edge10" class="edge">
<title>src/extract&#45;&gt;src/graph&#45;utl</title>
<path fill="none" stroke="#770000" stroke-width="2" stroke-opacity="0.466667" d="M246,-77.87C246,-68.72 246,-56 246,-56 246,-56 179.06,-56 179.06,-56"/>
<polygon fill="#770000" fill-opacity="0.466667" stroke="#770000" stroke-width="2" stroke-opacity="0.466667" points="179.06,-53.9 173.06,-56 179.06,-58.1 179.06,-53.9"/>
</g>
<!-- src/enrich&#45;&gt;src/utl -->
<g id="edge9" class="edge">
<title>src/enrich&#45;&gt;src/utl</title>
<path fill="none" stroke="#aaaaaa" stroke-width="2" stroke-opacity="0.466667" d="M70.04,-84C76.38,-84 81.33,-84 81.33,-84 81.33,-84 81.33,-28 81.33,-28 81.33,-28 155.83,-28 155.83,-28"/>
<polygon fill="#aaaaaa" fill-opacity="0.466667" stroke="#aaaaaa" stroke-width="2" stroke-opacity="0.466667" points="155.83,-30.1 161.83,-28 155.83,-25.9 155.83,-30.1"/>
</g>
<!-- src/validate -->
<g id="node8" class="node">
<title>src/validate</title>
<g id="a_node8"><a xlink:href="https://github.com/sverweij/dependency-cruiser/blob/develop/src/validate" xlink:title="validate">
<polygon fill="#ccccff" stroke="black" points="74,-65 22,-65 20,-63 20,-47 72,-47 74,-49 74,-65"/>
<polyline fill="none" stroke="black" points="72,-63 20,-63 "/>
<polyline fill="none" stroke="black" points="72,-63 72,-47 "/>
<polyline fill="none" stroke="black" points="72,-63 74,-65 "/>
<text text-anchor="start" x="30.5" y="-53.8" font-family="Helvetica,sans-Serif" font-size="9.00">validate</text>
</a>
</g>
</g>
<!-- src/enrich&#45;&gt;src/validate -->
<g id="edge7" class="edge">
<title>src/enrich&#45;&gt;src/validate</title>
<path fill="none" stroke="#0000ff" stroke-width="2" stroke-opacity="0.466667" d="M45,-77.87C45,-77.87 45,-71.18 45,-71.18"/>
<polygon fill="#0000ff" fill-opacity="0.466667" stroke="#0000ff" stroke-width="2" stroke-opacity="0.466667" points="47.1,-71.18 45,-65.18 42.9,-71.18 47.1,-71.18"/>
</g>
<!-- src/enrich&#45;&gt;src/graph&#45;utl -->
<g id="edge8" class="edge">
<title>src/enrich&#45;&gt;src/graph&#45;utl</title>
<path fill="none" stroke="#770000" stroke-width="2" stroke-opacity="0.466667" d="M70.09,-90C79.93,-90 88.67,-90 88.67,-90 88.67,-90 88.67,-56 88.67,-56 88.67,-56 112.68,-56 112.68,-56"/>
<polygon fill="#770000" fill-opacity="0.466667" stroke="#770000" stroke-width="2" stroke-opacity="0.466667" points="112.68,-58.1 118.68,-56 112.68,-53.9 112.68,-58.1"/>
</g>
<!-- src/validate&#45;&gt;src/utl -->
<g id="edge19" class="edge">
<title>src/validate&#45;&gt;src/utl</title>
<path fill="none" stroke="#aaaaaa" stroke-width="2" stroke-opacity="0.466667" d="M47,-46.71C47,-36.64 47,-22 47,-22 47,-22 155.96,-22 155.96,-22"/>
<polygon fill="#aaaaaa" fill-opacity="0.466667" stroke="#aaaaaa" stroke-width="2" stroke-opacity="0.466667" points="155.96,-24.1 161.96,-22 155.96,-19.9 155.96,-24.1"/>
</g>
<!-- src/report&#45;&gt;src/utl -->
<g id="edge18" class="edge">
<title>src/report&#45;&gt;src/utl</title>
<path fill="none" stroke="#aaaaaa" stroke-width="2" stroke-opacity="0.466667" d="M194.5,-77.85C194.5,-77.85 194.5,-40.19 194.5,-40.19"/>
<polygon fill="#aaaaaa" fill-opacity="0.466667" stroke="#aaaaaa" stroke-width="2" stroke-opacity="0.466667" points="196.6,-40.19 194.5,-34.19 192.4,-40.19 196.6,-40.19"/>
</g>
<!-- src/report&#45;&gt;src/graph&#45;utl -->
<g id="edge17" class="edge">
<title>src/report&#45;&gt;src/graph&#45;utl</title>
<path fill="none" stroke="#770000" stroke-width="2" stroke-opacity="0.466667" d="M167.5,-77.87C167.5,-77.87 167.5,-71.18 167.5,-71.18"/>
<polygon fill="#770000" fill-opacity="0.466667" stroke="#770000" stroke-width="2" stroke-opacity="0.466667" points="169.6,-71.18 167.5,-65.18 165.4,-71.18 169.6,-71.18"/>
</g>
</g>
</svg>
