<?xml version="1.0" encoding="UTF-8" standalone="no"?>
<!DOCTYPE svg PUBLIC "-//W3C//DTD SVG 1.1//EN"
 "http://www.w3.org/Graphics/SVG/1.1/DTD/svg11.dtd">
<!-- Generated by graphviz version 2.44.1 (20200629.0846)
 -->
<!-- Title: dependency&#45;cruiser output Pages: 1 -->
<svg width="334pt" height="218pt"
 viewBox="0.00 0.00 334.00 218.00" xmlns="http://www.w3.org/2000/svg" xmlns:xlink="http://www.w3.org/1999/xlink">
<g id="graph0" class="graph" transform="scale(1 1) rotate(0) translate(4 214)">
<title>dependency&#45;cruiser output</title>
<polygon fill="white" stroke="transparent" points="-4,4 -4,-214 330,-214 330,4 -4,4"/>
<g id="clust1" class="cluster">
<title>cluster_src</title>
<path fill="#ffffff" stroke="black" stroke-width="2" d="M20,-8C20,-8 306,-8 306,-8 312,-8 318,-14 318,-20 318,-20 318,-172 318,-172 318,-178 312,-184 306,-184 306,-184 20,-184 20,-184 14,-184 8,-178 8,-172 8,-172 8,-20 8,-20 8,-14 14,-8 20,-8"/>
<text text-anchor="middle" x="163" y="-172.8" font-family="Helvetica,sans-Serif" font-weight="bold" font-size="9.00">src</text>
</g>
<!-- bin/ -->
<g id="node1" class="node">
<title>bin/</title>
<g id="a_node1"><a xlink:href="https://github.com/sverweij/dependency-cruiser/blob/develop/bin/" xlink:title="bin">
<polygon fill="#ffffcc" stroke="black" points="296,-210 244,-210 242,-208 242,-192 294,-192 296,-194 296,-210"/>
<polyline fill="none" stroke="black" points="294,-208 242,-208 "/>
<polyline fill="none" stroke="black" points="294,-208 294,-192 "/>
<polyline fill="none" stroke="black" points="294,-208 296,-210 "/>
<text text-anchor="middle" x="269" y="-198.8" font-family="Helvetica,sans-Serif" font-size="9.00">bin</text>
</a>
</g>
</g>
<!-- src/cli -->
<g id="node2" class="node">
<title>src/cli</title>
<g id="a_node2"><a xlink:href="https://github.com/sverweij/dependency-cruiser/blob/develop/src/cli" xlink:title="cli">
<polygon fill="#ccccff" stroke="black" points="296,-158 244,-158 242,-156 242,-140 294,-140 296,-142 296,-158"/>
<polyline fill="none" stroke="black" points="294,-156 242,-156 "/>
<polyline fill="none" stroke="black" points="294,-156 294,-140 "/>
<polyline fill="none" stroke="black" points="294,-156 296,-158 "/>
<text text-anchor="middle" x="269" y="-146.8" font-family="Helvetica,sans-Serif" font-size="9.00">cli</text>
</a>
</g>
</g>
<!-- bin/&#45;&gt;src/cli -->
<g id="edge1" class="edge">
<title>bin/&#45;&gt;src/cli</title>
<path fill="none" stroke="#0000ff" stroke-width="2" stroke-opacity="0.466667" d="M269,-191.94C269,-191.94 269,-164.3 269,-164.3"/>
<polygon fill="#0000ff" fill-opacity="0.466667" stroke="#0000ff" stroke-width="2" stroke-opacity="0.466667" points="271.1,-164.3 269,-158.3 266.9,-164.3 271.1,-164.3"/>
</g>
<!-- src/main -->
<g id="node3" class="node">
<title>src/main</title>
<g id="a_node3"><a xlink:href="https://github.com/sverweij/dependency-cruiser/blob/develop/src/main" xlink:title="main">
<polygon fill="#ffcccc" stroke="black" points="164,-127 112,-127 110,-125 110,-109 162,-109 164,-111 164,-127"/>
<polyline fill="none" stroke="black" points="162,-125 110,-125 "/>
<polyline fill="none" stroke="black" points="162,-125 162,-109 "/>
<polyline fill="none" stroke="black" points="162,-125 164,-127 "/>
<text text-anchor="middle" x="137" y="-115.8" font-family="Helvetica,sans-Serif" font-size="9.00">main</text>
</a>
</g>
</g>
<!-- src/cli&#45;&gt;src/main -->
<g id="edge2" class="edge">
<title>src/cli&#45;&gt;src/main</title>
<path fill="none" stroke="#770000" stroke-width="2" stroke-opacity="0.466667" d="M269,-139.97C269,-132.81 269,-124 269,-124 269,-124 170.03,-124 170.03,-124"/>
<polygon fill="#770000" fill-opacity="0.466667" stroke="#770000" stroke-width="2" stroke-opacity="0.466667" points="170.03,-121.9 164.03,-124 170.03,-126.1 170.03,-121.9"/>
</g>
<!-- src/extract -->
<g id="node4" class="node">
<title>src/extract</title>
<g id="a_node4"><a xlink:href="https://github.com/sverweij/dependency-cruiser/blob/develop/src/extract" xlink:title="extract">
<polygon fill="#ccffcc" stroke="black" points="296,-96 244,-96 242,-94 242,-78 294,-78 296,-80 296,-96"/>
<polyline fill="none" stroke="black" points="294,-94 242,-94 "/>
<polyline fill="none" stroke="black" points="294,-94 294,-78 "/>
<polyline fill="none" stroke="black" points="294,-94 296,-96 "/>
<text text-anchor="middle" x="269" y="-84.8" font-family="Helvetica,sans-Serif" font-size="9.00">extract</text>
</a>
</g>
</g>
<!-- src/cli&#45;&gt;src/extract -->
<g id="edge3" class="edge">
<title>src/cli&#45;&gt;src/extract</title>
<g id="a_edge3"><a xlink:title="cli&#45;to&#45;main&#45;only&#45;warn">
<path fill="none" stroke="orange" stroke-width="2" d="M282.5,-139.85C282.5,-139.85 282.5,-102.19 282.5,-102.19"/>
<polygon fill="orange" stroke="orange" stroke-width="2" points="284.6,-102.19 282.5,-96.19 280.4,-102.19 284.6,-102.19"/>
</a>
</g>
<text text-anchor="middle" x="239" y="-123.82" font-family="Helvetica,sans-Serif" font-size="9.00" fill="orange">cli&#45;to&#45;main&#45;only&#45;warn</text>
</g>
<!-- src/utl -->
<g id="node5" class="node">
<title>src/utl</title>
<g id="a_node5"><a xlink:href="https://github.com/sverweij/dependency-cruiser/blob/develop/src/utl" xlink:title="utl">
<polygon fill="#cccccc" stroke="black" points="164,-34 112,-34 110,-32 110,-16 162,-16 164,-18 164,-34"/>
<polyline fill="none" stroke="black" points="162,-32 110,-32 "/>
<polyline fill="none" stroke="black" points="162,-32 162,-16 "/>
<polyline fill="none" stroke="black" points="162,-32 164,-34 "/>
<text text-anchor="middle" x="137" y="-22.8" font-family="Helvetica,sans-Serif" font-size="9.00">utl</text>
</a>
</g>
</g>
<!-- src/cli&#45;&gt;src/utl -->
<g id="edge4" class="edge">
<title>src/cli&#45;&gt;src/utl</title>
<path fill="none" stroke="#aaaaaa" stroke-width="2" stroke-opacity="0.466667" d="M241.75,-149C238.33,-149 236,-149 236,-149 236,-149 236,-23 236,-23 236,-23 170.05,-23 170.05,-23"/>
<polygon fill="#aaaaaa" fill-opacity="0.466667" stroke="#aaaaaa" stroke-width="2" stroke-opacity="0.466667" points="170.05,-20.9 164.05,-23 170.05,-25.1 170.05,-20.9"/>
</g>
<!-- src/main&#45;&gt;src/extract -->
<g id="edge11" class="edge">
<title>src/main&#45;&gt;src/extract</title>
<path fill="none" stroke="#007700" stroke-width="2" stroke-opacity="0.466667" d="M164.19,-121C199.17,-121 255.5,-121 255.5,-121 255.5,-121 255.5,-102.29 255.5,-102.29"/>
<polygon fill="#007700" fill-opacity="0.466667" stroke="#007700" stroke-width="2" stroke-opacity="0.466667" points="257.6,-102.29 255.5,-96.29 253.4,-102.29 257.6,-102.29"/>
</g>
<!-- src/main&#45;&gt;src/utl -->
<g id="edge15" class="edge">
<title>src/main&#45;&gt;src/utl</title>
<path fill="none" stroke="#aaaaaa" stroke-width="2" stroke-opacity="0.466667" d="M164.29,-118C169.31,-118 173,-118 173,-118 173,-118 173,-26 173,-26 173,-26 170.29,-26 170.29,-26"/>
<polygon fill="#aaaaaa" fill-opacity="0.466667" stroke="#aaaaaa" stroke-width="2" stroke-opacity="0.466667" points="170.29,-23.9 164.29,-26 170.29,-28.1 170.29,-23.9"/>
</g>
<!-- src/enrich -->
<g id="node6" class="node">
<title>src/enrich</title>
<g id="a_node6"><a xlink:href="https://github.com/sverweij/dependency-cruiser/blob/develop/src/enrich" xlink:title="enrich">
<polygon fill="#77eeaa" stroke="black" points="84,-96 32,-96 30,-94 30,-78 82,-78 84,-80 84,-96"/>
<polyline fill="none" stroke="black" points="82,-94 30,-94 "/>
<polyline fill="none" stroke="black" points="82,-94 82,-78 "/>
<polyline fill="none" stroke="black" points="82,-94 84,-96 "/>
<text text-anchor="middle" x="57" y="-84.8" font-family="Helvetica,sans-Serif" font-size="9.00">enrich</text>
</a>
</g>
</g>
<!-- src/main&#45;&gt;src/enrich -->
<g id="edge10" class="edge">
<title>src/main&#45;&gt;src/enrich</title>
<path fill="none" stroke="#007766" stroke-width="2" stroke-opacity="0.466667" d="M109.92,-118C86.71,-118 57,-118 57,-118 57,-118 57,-102.13 57,-102.13"/>
<polygon fill="#007766" fill-opacity="0.466667" stroke="#007766" stroke-width="2" stroke-opacity="0.466667" points="59.1,-102.13 57,-96.13 54.9,-102.13 59.1,-102.13"/>
</g>
<!-- src/graph&#45;utl -->
<g id="node7" class="node">
<title>src/graph&#45;utl</title>
<g id="a_node7"><a xlink:href="https://github.com/sverweij/dependency-cruiser/blob/develop/src/graph-utl" xlink:title="graph&#45;utl">
<polygon fill="#ffcccc" stroke="black" points="164,-65 112,-65 110,-63 110,-47 162,-47 164,-49 164,-65"/>
<polyline fill="none" stroke="black" points="162,-63 110,-63 "/>
<polyline fill="none" stroke="black" points="162,-63 162,-47 "/>
<polyline fill="none" stroke="black" points="162,-63 164,-65 "/>
<text text-anchor="middle" x="137" y="-53.8" font-family="Helvetica,sans-Serif" font-size="9.00">graph&#45;utl</text>
</a>
</g>
</g>
<!-- src/main&#45;&gt;src/graph&#45;utl -->
<g id="edge12" class="edge">
<title>src/main&#45;&gt;src/graph&#45;utl</title>
<path fill="none" stroke="#770000" stroke-width="2" stroke-opacity="0.466667" d="M164.23,-112C165.95,-112 167,-112 167,-112 167,-112 167,-59 167,-59 167,-59 166.72,-59 166.72,-59"/>
<polygon fill="#770000" fill-opacity="0.466667" stroke="#770000" stroke-width="2" stroke-opacity="0.466667" points="170.23,-56.9 164.23,-59 170.23,-61.1 170.23,-56.9"/>
</g>
<!-- src/report -->
<g id="node9" class="node">
<title>src/report</title>
<g id="a_node9"><a xlink:href="https://github.com/sverweij/dependency-cruiser/blob/develop/src/report" xlink:title="report">
<polygon fill="#ffccff" stroke="black" points="164,-96 112,-96 110,-94 110,-78 162,-78 164,-80 164,-96"/>
<polyline fill="none" stroke="black" points="162,-94 110,-94 "/>
<polyline fill="none" stroke="black" points="162,-94 162,-78 "/>
<polyline fill="none" stroke="black" points="162,-94 164,-96 "/>
<text text-anchor="middle" x="137" y="-84.8" font-family="Helvetica,sans-Serif" font-size="9.00">report</text>
</a>
</g>
</g>
<!-- src/main&#45;&gt;src/report -->
<g id="edge13" class="edge">
<title>src/main&#45;&gt;src/report</title>
<path fill="none" stroke="#ff00ff" stroke-width="2" stroke-opacity="0.466667" d="M137,-108.87C137,-108.87 137,-102.18 137,-102.18"/>
<polygon fill="#ff00ff" fill-opacity="0.466667" stroke="#ff00ff" stroke-width="2" stroke-opacity="0.466667" points="139.1,-102.18 137,-96.18 134.9,-102.18 139.1,-102.18"/>
</g>
<!-- src/schema -->
<g id="node10" class="node">
<title>src/schema</title>
<g id="a_node10"><a xlink:href="https://github.com/sverweij/dependency-cruiser/blob/develop/src/schema" xlink:title="schema">
<polygon fill="#ffffcc" stroke="black" points="230,-96 178,-96 176,-94 176,-78 228,-78 230,-80 230,-96"/>
<polyline fill="none" stroke="black" points="228,-94 176,-94 "/>
<polyline fill="none" stroke="black" points="228,-94 228,-78 "/>
<polyline fill="none" stroke="black" points="228,-94 230,-96 "/>
<text text-anchor="middle" x="203" y="-84.8" font-family="Helvetica,sans-Serif" font-size="9.00">schema</text>
</a>
</g>
</g>
<!-- src/main&#45;&gt;src/schema -->
<g id="edge14" class="edge">
<title>src/main&#45;&gt;src/schema</title>
<path fill="none" stroke="#000000" stroke-width="2" stroke-opacity="0.200000" d="M164.23,-115C182.41,-115 203,-115 203,-115 203,-115 203,-102.17 203,-102.17"/>
<polygon fill="#000000" fill-opacity="0.200000" stroke="#000000" stroke-width="2" stroke-opacity="0.200000" points="205.1,-102.17 203,-96.17 200.9,-102.17 205.1,-102.17"/>
</g>
<!-- src/extract&#45;&gt;src/utl -->
<g id="edge9" class="edge">
<title>src/extract&#45;&gt;src/utl</title>
<path fill="none" stroke="#aaaaaa" stroke-width="2" stroke-opacity="0.466667" d="M278,-77.83C278,-59.27 278,-19 278,-19 278,-19 170.19,-19 170.19,-19"/>
<polygon fill="#aaaaaa" fill-opacity="0.466667" stroke="#aaaaaa" stroke-width="2" stroke-opacity="0.466667" points="170.19,-16.9 164.19,-19 170.19,-21.1 170.19,-16.9"/>
</g>
<!-- src/extract&#45;&gt;src/graph&#45;utl -->
<g id="edge8" class="edge">
<title>src/extract&#45;&gt;src/graph&#45;utl</title>
<path fill="none" stroke="#770000" stroke-width="2" stroke-opacity="0.466667" d="M260,-77.71C260,-67.64 260,-53 260,-53 260,-53 170.3,-53 170.3,-53"/>
<polygon fill="#770000" fill-opacity="0.466667" stroke="#770000" stroke-width="2" stroke-opacity="0.466667" points="170.3,-50.9 164.3,-53 170.3,-55.1 170.3,-50.9"/>
</g>
<!-- src/enrich&#45;&gt;src/utl -->
<g id="edge6" class="edge">
<title>src/enrich&#45;&gt;src/utl</title>
<path fill="none" stroke="#aaaaaa" stroke-width="2" stroke-opacity="0.466667" d="M84.03,-84C89.01,-84 92.67,-84 92.67,-84 92.67,-84 92.67,-28 92.67,-28 92.67,-28 103.93,-28 103.93,-28"/>
<polygon fill="#aaaaaa" fill-opacity="0.466667" stroke="#aaaaaa" stroke-width="2" stroke-opacity="0.466667" points="103.93,-30.1 109.93,-28 103.93,-25.9 103.93,-30.1"/>
</g>
<!-- src/enrich&#45;&gt;src/graph&#45;utl -->
<g id="edge5" class="edge">
<title>src/enrich&#45;&gt;src/graph&#45;utl</title>
<path fill="none" stroke="#770000" stroke-width="2" stroke-opacity="0.466667" d="M84.07,-90C93.3,-90 101.33,-90 101.33,-90 101.33,-90 101.33,-56 101.33,-56 101.33,-56 103.97,-56 103.97,-56"/>
<polygon fill="#770000" fill-opacity="0.466667" stroke="#770000" stroke-width="2" stroke-opacity="0.466667" points="103.97,-58.1 109.97,-56 103.97,-53.9 103.97,-58.1"/>
</g>
<!-- src/validate -->
<g id="node8" class="node">
<title>src/validate</title>
<g id="a_node8"><a xlink:href="https://github.com/sverweij/dependency-cruiser/blob/develop/src/validate" xlink:title="validate">
<polygon fill="#ccccff" stroke="black" points="84,-65 32,-65 30,-63 30,-47 82,-47 84,-49 84,-65"/>
<polyline fill="none" stroke="black" points="82,-63 30,-63 "/>
<polyline fill="none" stroke="black" points="82,-63 82,-47 "/>
<polyline fill="none" stroke="black" points="82,-63 84,-65 "/>
<text text-anchor="middle" x="57" y="-53.8" font-family="Helvetica,sans-Serif" font-size="9.00">validate</text>
</a>
</g>
</g>
<!-- src/enrich&#45;&gt;src/validate -->
<g id="edge7" class="edge">
<title>src/enrich&#45;&gt;src/validate</title>
<path fill="none" stroke="#0000ff" stroke-width="2" stroke-opacity="0.466667" d="M57,-77.87C57,-77.87 57,-71.18 57,-71.18"/>
<polygon fill="#0000ff" fill-opacity="0.466667" stroke="#0000ff" stroke-width="2" stroke-opacity="0.466667" points="59.1,-71.18 57,-65.18 54.9,-71.18 59.1,-71.18"/>
</g>
<!-- src/validate&#45;&gt;src/utl -->
<g id="edge18" class="edge">
<title>src/validate&#45;&gt;src/utl</title>
<path fill="none" stroke="#aaaaaa" stroke-width="2" stroke-opacity="0.466667" d="M57,-46.71C57,-36.64 57,-22 57,-22 57,-22 103.92,-22 103.92,-22"/>
<polygon fill="#aaaaaa" fill-opacity="0.466667" stroke="#aaaaaa" stroke-width="2" stroke-opacity="0.466667" points="103.92,-24.1 109.92,-22 103.92,-19.9 103.92,-24.1"/>
</g>
<!-- src/report&#45;&gt;src/utl -->
<g id="edge17" class="edge">
<title>src/report&#45;&gt;src/utl</title>
<path fill="none" stroke="#aaaaaa" stroke-width="2" stroke-opacity="0.466667" d="M164.25,-87C167.67,-87 170,-87 170,-87 170,-87 170,-30 170,-30 170,-30 169.43,-30 169.43,-30"/>
<polygon fill="#aaaaaa" fill-opacity="0.466667" stroke="#aaaaaa" stroke-width="2" stroke-opacity="0.466667" points="170.25,-27.9 164.25,-30 170.25,-32.1 170.25,-27.9"/>
</g>
<!-- src/report&#45;&gt;src/graph&#45;utl -->
<g id="edge16" class="edge">
<title>src/report&#45;&gt;src/graph&#45;utl</title>
<path fill="none" stroke="#770000" stroke-width="2" stroke-opacity="0.466667" d="M137,-77.87C137,-77.87 137,-71.18 137,-71.18"/>
<polygon fill="#770000" fill-opacity="0.466667" stroke="#770000" stroke-width="2" stroke-opacity="0.466667" points="139.1,-71.18 137,-65.18 134.9,-71.18 139.1,-71.18"/>
</g>
</g>
</svg>
