<?xml version="1.0" encoding="UTF-8" standalone="no"?>
<!DOCTYPE svg PUBLIC "-//W3C//DTD SVG 1.1//EN"
 "http://www.w3.org/Graphics/SVG/1.1/DTD/svg11.dtd">
<!-- Generated by graphviz version 2.43.0 (0)
 -->
<!-- Title: dependency&#45;cruiser output Pages: 1 -->
<svg width="200pt" height="211pt"
 viewBox="0.00 0.00 199.52 211.00" xmlns="http://www.w3.org/2000/svg" xmlns:xlink="http://www.w3.org/1999/xlink">
<g id="graph0" class="graph" transform="scale(1 1) rotate(0) translate(4 207)">
<title>dependency&#45;cruiser output</title>
<polygon fill="white" stroke="transparent" points="-4,4 -4,-207 195.52,-207 195.52,4 -4,4"/>
<g id="clust1" class="cluster">
<title>cluster_src</title>
<path fill="#ffffff" stroke="black" stroke-width="2" d="M20,-8C20,-8 146,-8 146,-8 152,-8 158,-14 158,-20 158,-20 158,-166 158,-166 158,-172 152,-178 146,-178 146,-178 20,-178 20,-178 14,-178 8,-172 8,-166 8,-166 8,-20 8,-20 8,-14 14,-8 20,-8"/>
<text text-anchor="middle" x="83" y="-166.8" font-family="Helvetica,sans-Serif" font-weight="bold" font-size="9.00">src</text>
</g>
<!-- bin/ -->
<g id="node1" class="node">
<title>bin/</title>
<g id="a_node1"><a xlink:href="https://github.com/sverweij/dependency-cruiser/blob/develop/bin/" xlink:title="bin">
<path fill="#ffffcc" stroke="black" d="M108.33,-203C108.33,-203 65.67,-203 65.67,-203 62.83,-203 60,-200.17 60,-197.33 60,-197.33 60,-191.67 60,-191.67 60,-188.83 62.83,-186 65.67,-186 65.67,-186 108.33,-186 108.33,-186 111.17,-186 114,-188.83 114,-191.67 114,-191.67 114,-197.33 114,-197.33 114,-200.17 111.17,-203 108.33,-203"/>
<text text-anchor="middle" x="87" y="-191.8" font-family="Helvetica,sans-Serif" font-size="9.00">bin</text>
</a>
</g>
</g>
<!-- src/cli -->
<g id="node2" class="node">
<title>src/cli</title>
<g id="a_node2"><a xlink:href="https://github.com/sverweij/dependency-cruiser/blob/develop/src/cli" xlink:title="cli">
<path fill="#ccccff" stroke="black" d="M108.33,-153C108.33,-153 65.67,-153 65.67,-153 62.83,-153 60,-150.17 60,-147.33 60,-147.33 60,-141.67 60,-141.67 60,-138.83 62.83,-136 65.67,-136 65.67,-136 108.33,-136 108.33,-136 111.17,-136 114,-138.83 114,-141.67 114,-141.67 114,-147.33 114,-147.33 114,-150.17 111.17,-153 108.33,-153"/>
<text text-anchor="middle" x="87" y="-141.8" font-family="Helvetica,sans-Serif" font-size="9.00">cli</text>
</a>
</g>
</g>
<!-- bin/&#45;&gt;src/cli -->
<g id="edge1" class="edge">
<title>bin/&#45;&gt;src/cli</title>
<path fill="none" stroke="#0000ff" stroke-width="2" stroke-opacity="0.466667" d="M87,-185.79C87,-185.79 87,-159.11 87,-159.11"/>
<polygon fill="#0000ff" fill-opacity="0.466667" stroke="#0000ff" stroke-width="2" stroke-opacity="0.466667" points="89.1,-159.11 87,-153.11 84.9,-159.11 89.1,-159.11"/>
</g>
<!-- src/main -->
<g id="node4" class="node">
<title>src/main</title>
<g id="a_node4"><a xlink:href="https://github.com/sverweij/dependency-cruiser/blob/develop/src/main" xlink:title="main">
<path fill="#ffcccc" stroke="black" d="M84.33,-123C84.33,-123 41.67,-123 41.67,-123 38.83,-123 36,-120.17 36,-117.33 36,-117.33 36,-111.67 36,-111.67 36,-108.83 38.83,-106 41.67,-106 41.67,-106 84.33,-106 84.33,-106 87.17,-106 90,-108.83 90,-111.67 90,-111.67 90,-117.33 90,-117.33 90,-120.17 87.17,-123 84.33,-123"/>
<text text-anchor="middle" x="63" y="-111.8" font-family="Helvetica,sans-Serif" font-size="9.00">main</text>
</a>
</g>
</g>
<!-- src/cli&#45;&gt;src/main -->
<g id="edge2" class="edge">
<title>src/cli&#45;&gt;src/main</title>
<path fill="none" stroke="#770000" stroke-width="2" stroke-opacity="0.466667" d="M75,-135.98C75,-135.98 75,-129.14 75,-129.14"/>
<polygon fill="#770000" fill-opacity="0.466667" stroke="#770000" stroke-width="2" stroke-opacity="0.466667" points="77.1,-129.14 75,-123.14 72.9,-129.14 77.1,-129.14"/>
</g>
<!-- src/extract -->
<g id="node5" class="node">
<title>src/extract</title>
<g id="a_node5"><a xlink:href="https://github.com/sverweij/dependency-cruiser/blob/develop/src/extract" xlink:title="extract">
<path fill="#ccffcc" stroke="black" d="M144.33,-93C144.33,-93 101.67,-93 101.67,-93 98.83,-93 96,-90.17 96,-87.33 96,-87.33 96,-81.67 96,-81.67 96,-78.83 98.83,-76 101.67,-76 101.67,-76 144.33,-76 144.33,-76 147.17,-76 150,-78.83 150,-81.67 150,-81.67 150,-87.33 150,-87.33 150,-90.17 147.17,-93 144.33,-93"/>
<text text-anchor="middle" x="123" y="-81.8" font-family="Helvetica,sans-Serif" font-size="9.00">extract</text>
</a>
</g>
</g>
<!-- src/cli&#45;&gt;src/extract -->
<g id="edge3" class="edge">
<title>src/cli&#45;&gt;src/extract</title>
<g id="a_edge3"><a xlink:title="cli&#45;to&#45;main&#45;only&#45;warn">
<path fill="none" stroke="orange" stroke-width="2" d="M108,-135.9C108,-135.9 108,-99.08 108,-99.08"/>
<polygon fill="orange" stroke="orange" stroke-width="2" points="110.1,-99.08 108,-93.08 105.9,-99.08 110.1,-99.08"/>
</a>
</g>
<text text-anchor="middle" x="149.76" y="-119.29" font-family="Helvetica,sans-Serif" font-size="9.00" fill="orange">cli&#45;to&#45;main&#45;only&#45;warn</text>
</g>
<!-- src -->
<!-- src/main&#45;&gt;src/extract -->
<g id="edge6" class="edge">
<title>src/main&#45;&gt;src/extract</title>
<path fill="none" stroke="#007700" stroke-width="2" stroke-opacity="0.466667" d="M90.09,-114C96.74,-114 102,-114 102,-114 102,-114 102,-99.19 102,-99.19"/>
<polygon fill="#007700" fill-opacity="0.466667" stroke="#007700" stroke-width="2" stroke-opacity="0.466667" points="104.1,-99.19 102,-93.19 99.9,-99.19 104.1,-99.19"/>
</g>
<!-- src/report -->
<g id="node8" class="node">
<title>src/report</title>
<g id="a_node8"><a xlink:href="https://github.com/sverweij/dependency-cruiser/blob/develop/src/report" xlink:title="report">
<path fill="#ffccff" stroke="black" d="M64.33,-63C64.33,-63 21.67,-63 21.67,-63 18.83,-63 16,-60.17 16,-57.33 16,-57.33 16,-51.67 16,-51.67 16,-48.83 18.83,-46 21.67,-46 21.67,-46 64.33,-46 64.33,-46 67.17,-46 70,-48.83 70,-51.67 70,-51.67 70,-57.33 70,-57.33 70,-60.17 67.17,-63 64.33,-63"/>
<text text-anchor="middle" x="43" y="-51.8" font-family="Helvetica,sans-Serif" font-size="9.00">report</text>
</a>
</g>
</g>
<!-- src/main&#45;&gt;src/report -->
<g id="edge7" class="edge">
<title>src/main&#45;&gt;src/report</title>
<path fill="none" stroke="#ff00ff" stroke-width="2" stroke-opacity="0.466667" d="M35.66,-114C28.62,-114 23,-114 23,-114 23,-114 23,-69.02 23,-69.02"/>
<polygon fill="#ff00ff" fill-opacity="0.466667" stroke="#ff00ff" stroke-width="2" stroke-opacity="0.466667" points="25.1,-69.02 23,-63.02 20.9,-69.02 25.1,-69.02"/>
</g>
<!-- src/schema -->
<g id="node9" class="node">
<title>src/schema</title>
<g id="a_node9"><a xlink:href="https://github.com/sverweij/dependency-cruiser/blob/develop/src/schema" xlink:title="schema">
<path fill="#ffffcc" stroke="black" d="M78.33,-93C78.33,-93 35.67,-93 35.67,-93 32.83,-93 30,-90.17 30,-87.33 30,-87.33 30,-81.67 30,-81.67 30,-78.83 32.83,-76 35.67,-76 35.67,-76 78.33,-76 78.33,-76 81.17,-76 84,-78.83 84,-81.67 84,-81.67 84,-87.33 84,-87.33 84,-90.17 81.17,-93 78.33,-93"/>
<text text-anchor="middle" x="57" y="-81.8" font-family="Helvetica,sans-Serif" font-size="9.00">schema</text>
</a>
</g>
</g>
<!-- src/main&#45;&gt;src/schema -->
<g id="edge8" class="edge">
<title>src/main&#45;&gt;src/schema</title>
<path fill="none" stroke="#000000" stroke-width="2" stroke-opacity="0.200000" d="M60,-105.98C60,-105.98 60,-99.14 60,-99.14"/>
<polygon fill="#000000" fill-opacity="0.200000" stroke="#000000" stroke-width="2" stroke-opacity="0.200000" points="62.1,-99.14 60,-93.14 57.9,-99.14 62.1,-99.14"/>
</g>
<!-- src/validate -->
<g id="node6" class="node">
<title>src/validate</title>
<g id="a_node6"><a xlink:href="https://github.com/sverweij/dependency-cruiser/blob/develop/src/validate" xlink:title="validate">
<path fill="#ccccff" stroke="black" d="M144.33,-63C144.33,-63 101.67,-63 101.67,-63 98.83,-63 96,-60.17 96,-57.33 96,-57.33 96,-51.67 96,-51.67 96,-48.83 98.83,-46 101.67,-46 101.67,-46 144.33,-46 144.33,-46 147.17,-46 150,-48.83 150,-51.67 150,-51.67 150,-57.33 150,-57.33 150,-60.17 147.17,-63 144.33,-63"/>
<text text-anchor="middle" x="123" y="-51.8" font-family="Helvetica,sans-Serif" font-size="9.00">validate</text>
</a>
</g>
</g>
<!-- src/extract&#45;&gt;src/validate -->
<g id="edge4" class="edge">
<title>src/extract&#45;&gt;src/validate</title>
<path fill="none" stroke="#0000ff" stroke-width="2" stroke-opacity="0.466667" d="M132,-75.98C132,-75.98 132,-69.14 132,-69.14"/>
<polygon fill="#0000ff" fill-opacity="0.466667" stroke="#0000ff" stroke-width="2" stroke-opacity="0.466667" points="134.1,-69.14 132,-63.14 129.9,-69.14 134.1,-69.14"/>
</g>
<!-- src/utl -->
<g id="node7" class="node">
<title>src/utl</title>
<g id="a_node7"><a xlink:href="https://github.com/sverweij/dependency-cruiser/blob/develop/src/utl" xlink:title="utl">
<path fill="#cccccc" stroke="black" d="M104.33,-33C104.33,-33 61.67,-33 61.67,-33 58.83,-33 56,-30.17 56,-27.33 56,-27.33 56,-21.67 56,-21.67 56,-18.83 58.83,-16 61.67,-16 61.67,-16 104.33,-16 104.33,-16 107.17,-16 110,-18.83 110,-21.67 110,-21.67 110,-27.33 110,-27.33 110,-30.17 107.17,-33 104.33,-33"/>
<text text-anchor="middle" x="83" y="-21.8" font-family="Helvetica,sans-Serif" font-size="9.00">utl</text>
</a>
</g>
</g>
<!-- src/extract&#45;&gt;src/utl -->
<g id="edge5" class="edge">
<title>src/extract&#45;&gt;src/utl</title>
<path fill="none" stroke="#aaaaaa" stroke-width="2" stroke-opacity="0.466667" d="M114,-75.66C114,-72.18 114,-69 114,-69 114,-69 77,-69 77,-69 77,-69 77,-39.08 77,-39.08"/>
<polygon fill="#aaaaaa" fill-opacity="0.466667" stroke="#aaaaaa" stroke-width="2" stroke-opacity="0.466667" points="79.1,-39.08 77,-33.08 74.9,-39.08 79.1,-39.08"/>
</g>
<!-- src/validate&#45;&gt;src/utl -->
<g id="edge10" class="edge">
<title>src/validate&#45;&gt;src/utl</title>
<path fill="none" stroke="#aaaaaa" stroke-width="2" stroke-opacity="0.466667" d="M103,-45.98C103,-45.98 103,-39.14 103,-39.14"/>
<polygon fill="#aaaaaa" fill-opacity="0.466667" stroke="#aaaaaa" stroke-width="2" stroke-opacity="0.466667" points="105.1,-39.14 103,-33.14 100.9,-39.14 105.1,-39.14"/>
</g>
<!-- src/report&#45;&gt;src/utl -->
<g id="edge9" class="edge">
<title>src/report&#45;&gt;src/utl</title>
<path fill="none" stroke="#aaaaaa" stroke-width="2" stroke-opacity="0.466667" d="M63,-45.98C63,-45.98 63,-39.14 63,-39.14"/>
<polygon fill="#aaaaaa" fill-opacity="0.466667" stroke="#aaaaaa" stroke-width="2" stroke-opacity="0.466667" points="65.1,-39.14 63,-33.14 60.9,-39.14 65.1,-39.14"/>
</g>
</g>
</svg>
