<?xml version="1.0" encoding="UTF-8" standalone="no"?>
<!DOCTYPE svg PUBLIC "-//W3C//DTD SVG 1.1//EN"
 "http://www.w3.org/Graphics/SVG/1.1/DTD/svg11.dtd">
<!-- Generated by graphviz version 2.44.0 (20200408.0750)
 -->
<!-- Title: dependency&#45;cruiser output Pages: 1 -->
<svg width="1006pt" height="470pt"
 viewBox="0.00 0.00 1006.00 470.00" xmlns="http://www.w3.org/2000/svg" xmlns:xlink="http://www.w3.org/1999/xlink">
<g id="graph0" class="graph" transform="scale(1 1) rotate(0) translate(4 466)">
<title>dependency&#45;cruiser output</title>
<polygon fill="white" stroke="transparent" points="-4,4 -4,-466 1002,-466 1002,4 -4,4"/>
<g id="clust1" class="cluster">
<title>cluster_src</title>
<path fill="#ffffff" stroke="black" stroke-width="2" d="M20,-8C20,-8 978,-8 978,-8 984,-8 990,-14 990,-20 990,-20 990,-424 990,-424 990,-430 984,-436 978,-436 978,-436 20,-436 20,-436 14,-436 8,-430 8,-424 8,-424 8,-20 8,-20 8,-14 14,-8 20,-8"/>
<text text-anchor="middle" x="499" y="-424.8" font-family="Helvetica,sans-Serif" font-weight="bold" font-size="9.00">src</text>
</g>
<g id="clust2" class="cluster">
<title>cluster_src/cli</title>
<path fill="#ffffff" stroke="black" stroke-width="2" d="M134,-313.2C134,-313.2 338,-313.2 338,-313.2 344,-313.2 350,-319.2 350,-325.2 350,-325.2 350,-398 350,-398 350,-404 344,-410 338,-410 338,-410 134,-410 134,-410 128,-410 122,-404 122,-398 122,-398 122,-325.2 122,-325.2 122,-319.2 128,-313.2 134,-313.2"/>
<text text-anchor="middle" x="236" y="-398.8" font-family="Helvetica,sans-Serif" font-weight="bold" font-size="9.00">cli</text>
</g>
<g id="clust8" class="cluster">
<title>cluster_src/report</title>
<path fill="#ffffff" stroke="black" stroke-width="2" d="M382,-50C382,-50 642,-50 642,-50 648,-50 654,-56 654,-62 654,-62 654,-195.6 654,-195.6 654,-201.6 648,-207.6 642,-207.6 642,-207.6 382,-207.6 382,-207.6 376,-207.6 370,-201.6 370,-195.6 370,-195.6 370,-62 370,-62 370,-56 376,-50 382,-50"/>
<text text-anchor="middle" x="512" y="-196.4" font-family="Helvetica,sans-Serif" font-weight="bold" font-size="9.00">report</text>
</g>
<g id="clust3" class="cluster">
<title>cluster_src/enrich</title>
<path fill="#ffffff" stroke="black" stroke-width="2" d="M680,-42C680,-42 894,-42 894,-42 900,-42 906,-48 906,-54 906,-54 906,-134.8 906,-134.8 906,-140.8 900,-146.8 894,-146.8 894,-146.8 680,-146.8 680,-146.8 674,-146.8 668,-140.8 668,-134.8 668,-134.8 668,-54 668,-54 668,-48 674,-42 680,-42"/>
<text text-anchor="middle" x="787" y="-135.6" font-family="Helvetica,sans-Serif" font-weight="bold" font-size="9.00">enrich</text>
</g>
<g id="clust4" class="cluster">
<title>cluster_src/enrich/derive</title>
<path fill="#ffffff" stroke="black" stroke-width="2" d="M688,-50C688,-50 886,-50 886,-50 892,-50 898,-56 898,-62 898,-62 898,-90 898,-90 898,-96 892,-102 886,-102 886,-102 688,-102 688,-102 682,-102 676,-96 676,-90 676,-90 676,-62 676,-62 676,-56 682,-50 688,-50"/>
<text text-anchor="middle" x="787" y="-90.8" font-family="Helvetica,sans-Serif" font-weight="bold" font-size="9.00">derive</text>
</g>
<g id="clust5" class="cluster">
<title>cluster_src/extract</title>
<path fill="#ffffff" stroke="black" stroke-width="2" d="M40,-154.8C40,-154.8 350,-154.8 350,-154.8 356,-154.8 362,-160.8 362,-166.8 362,-166.8 362,-293.2 362,-293.2 362,-299.2 356,-305.2 350,-305.2 350,-305.2 40,-305.2 40,-305.2 34,-305.2 28,-299.2 28,-293.2 28,-293.2 28,-166.8 28,-166.8 28,-160.8 34,-154.8 40,-154.8"/>
<text text-anchor="middle" x="195" y="-294" font-family="Helvetica,sans-Serif" font-weight="bold" font-size="9.00">extract</text>
</g>
<g id="clust6" class="cluster">
<title>cluster_src/extract/resolve</title>
<path fill="#ffffff" stroke="black" stroke-width="2" d="M48,-162.8C48,-162.8 168,-162.8 168,-162.8 174,-162.8 180,-168.8 180,-174.8 180,-174.8 180,-248.4 180,-248.4 180,-254.4 174,-260.4 168,-260.4 168,-260.4 48,-260.4 48,-260.4 42,-260.4 36,-254.4 36,-248.4 36,-248.4 36,-174.8 36,-174.8 36,-168.8 42,-162.8 48,-162.8"/>
<text text-anchor="middle" x="108" y="-249.2" font-family="Helvetica,sans-Serif" font-weight="bold" font-size="9.00">resolve</text>
</g>
<g id="clust7" class="cluster">
<title>cluster_src/main</title>
<path fill="#ffffff" stroke="black" stroke-width="2" d="M402,-215.6C402,-215.6 636,-215.6 636,-215.6 642,-215.6 648,-221.6 648,-227.6 648,-227.6 648,-346 648,-346 648,-352 642,-358 636,-358 636,-358 402,-358 402,-358 396,-358 390,-352 390,-346 390,-346 390,-227.6 390,-227.6 390,-221.6 396,-215.6 402,-215.6"/>
<text text-anchor="middle" x="519" y="-346.8" font-family="Helvetica,sans-Serif" font-weight="bold" font-size="9.00">main</text>
</g>
<!-- bin -->
<g id="node1" class="node">
<title>bin</title>
<g id="a_node1"><a xlink:href="https://github.com/sverweij/dependency-cruiser/blob/develop/bin" xlink:title="bin">
<polygon fill="#ffffcc" stroke="black" points="271,-462 219,-462 217,-460 217,-444 269,-444 271,-446 271,-462"/>
<polyline fill="none" stroke="black" points="269,-460 217,-460 "/>
<polyline fill="none" stroke="black" points="269,-460 269,-444 "/>
<polyline fill="none" stroke="black" points="269,-460 271,-462 "/>
<text text-anchor="middle" x="244" y="-450.8" font-family="Helvetica,sans-Serif" font-size="9.00">bin</text>
</a>
</g>
</g>
<!-- src/cli -->
<!-- bin&#45;&gt;src/cli -->
<g id="edge1" class="edge">
<title>bin&#45;&gt;src/cli</title>
<path fill="none" stroke="#0000ff" stroke-width="2" stroke-opacity="0.466667" d="M223.4,-443.75C223.4,-443.75 223.4,-383.11 223.4,-383.11"/>
<polygon fill="#0000ff" fill-opacity="0.466667" stroke="#0000ff" stroke-width="2" stroke-opacity="0.466667" points="225.5,-383.11 223.4,-377.11 221.3,-383.11 225.5,-383.11"/>
</g>
<!-- src/cli/tools -->
<g id="node3" class="node">
<title>src/cli/tools</title>
<g id="a_node3"><a xlink:href="https://github.com/sverweij/dependency-cruiser/blob/develop/src/cli/tools" xlink:title="tools">
<polygon fill="#ccccff" stroke="black" points="292,-384 240,-384 238,-382 238,-366 290,-366 292,-368 292,-384"/>
<polyline fill="none" stroke="black" points="290,-382 238,-382 "/>
<polyline fill="none" stroke="black" points="290,-382 290,-366 "/>
<polyline fill="none" stroke="black" points="290,-382 292,-384 "/>
<text text-anchor="middle" x="265" y="-372.8" font-family="Helvetica,sans-Serif" font-size="9.00">tools</text>
</a>
</g>
</g>
<!-- bin&#45;&gt;src/cli/tools -->
<g id="edge2" class="edge">
<title>bin&#45;&gt;src/cli/tools</title>
<path fill="none" stroke="#0000ff" stroke-width="2" stroke-opacity="0.466667" d="M254.5,-443.75C254.5,-443.75 254.5,-390.24 254.5,-390.24"/>
<polygon fill="#0000ff" fill-opacity="0.466667" stroke="#0000ff" stroke-width="2" stroke-opacity="0.466667" points="256.6,-390.24 254.5,-384.24 252.4,-390.24 256.6,-390.24"/>
</g>
<!-- src/main -->
<!-- src/cli&#45;&gt;src/main -->
<g id="edge3" class="edge">
<title>src/cli&#45;&gt;src/main</title>
<path fill="none" stroke="#770000" stroke-width="2" stroke-opacity="0.466667" d="M225.92,-375C228.8,-375 233.93,-375 233.93,-375 233.93,-375 233.93,-352 233.93,-352 233.93,-352 593.9,-352 593.9,-352 593.9,-352 593.9,-337.91 593.9,-337.91"/>
<polygon fill="#770000" fill-opacity="0.466667" stroke="#770000" stroke-width="2" stroke-opacity="0.466667" points="596,-337.91 593.9,-331.91 591.8,-337.91 596,-337.91"/>
</g>
<!-- src/cli/utl -->
<g id="node6" class="node">
<title>src/cli/utl</title>
<g id="a_node6"><a xlink:href="https://github.com/sverweij/dependency-cruiser/blob/develop/src/cli/utl" xlink:title="utl">
<polygon fill="#ccccff" stroke="black" points="184,-339.2 132,-339.2 130,-337.2 130,-321.2 182,-321.2 184,-323.2 184,-339.2"/>
<polyline fill="none" stroke="black" points="182,-337.2 130,-337.2 "/>
<polyline fill="none" stroke="black" points="182,-337.2 182,-321.2 "/>
<polyline fill="none" stroke="black" points="182,-337.2 184,-339.2 "/>
<text text-anchor="middle" x="157" y="-328" font-family="Helvetica,sans-Serif" font-size="9.00">utl</text>
</a>
</g>
</g>
<!-- src/cli&#45;&gt;src/cli/utl -->
<g id="edge4" class="edge">
<title>src/cli&#45;&gt;src/cli/utl</title>
<path fill="none" stroke="#0000ff" stroke-width="2" stroke-opacity="0.466667" d="M222.07,-375C211.08,-375 157,-375 157,-375 157,-375 157,-345.27 157,-345.27"/>
<polygon fill="#0000ff" fill-opacity="0.466667" stroke="#0000ff" stroke-width="2" stroke-opacity="0.466667" points="159.1,-345.27 157,-339.27 154.9,-345.27 159.1,-345.27"/>
</g>
<!-- src/cli/compile&#45;config -->
<g id="node7" class="node">
<title>src/cli/compile&#45;config</title>
<g id="a_node7"><a xlink:href="https://github.com/sverweij/dependency-cruiser/blob/develop/src/cli/compile-config" xlink:title="compile&#45;config">
<polygon fill="#ccccff" stroke="black" points="341.5,-339.2 266.5,-339.2 264.5,-337.2 264.5,-321.2 339.5,-321.2 341.5,-323.2 341.5,-339.2"/>
<polyline fill="none" stroke="black" points="339.5,-337.2 264.5,-337.2 "/>
<polyline fill="none" stroke="black" points="339.5,-337.2 339.5,-321.2 "/>
<polyline fill="none" stroke="black" points="339.5,-337.2 341.5,-339.2 "/>
<text text-anchor="middle" x="303" y="-328" font-family="Helvetica,sans-Serif" font-size="9.00">compile&#45;config</text>
</a>
</g>
</g>
<!-- src/cli&#45;&gt;src/cli/compile&#45;config -->
<g id="edge5" class="edge">
<title>src/cli&#45;&gt;src/cli/compile&#45;config</title>
<path fill="none" stroke="#0000ff" stroke-width="2" stroke-opacity="0.466667" d="M224.6,-377.1C224.6,-385.2 224.6,-414 224.6,-414 224.6,-414 316.75,-414 316.75,-414 316.75,-414 316.75,-345.49 316.75,-345.49"/>
<polygon fill="#0000ff" fill-opacity="0.466667" stroke="#0000ff" stroke-width="2" stroke-opacity="0.466667" points="318.85,-345.49 316.75,-339.49 314.65,-345.49 318.85,-345.49"/>
</g>
<!-- src/cli/init&#45;config -->
<g id="node8" class="node">
<title>src/cli/init&#45;config</title>
<g id="a_node8"><a xlink:href="https://github.com/sverweij/dependency-cruiser/blob/develop/src/cli/init-config" xlink:title="init&#45;config">
<polygon fill="#ccccff" stroke="black" points="252,-339.2 198,-339.2 196,-337.2 196,-321.2 250,-321.2 252,-323.2 252,-339.2"/>
<polyline fill="none" stroke="black" points="250,-337.2 196,-337.2 "/>
<polyline fill="none" stroke="black" points="250,-337.2 250,-321.2 "/>
<polyline fill="none" stroke="black" points="250,-337.2 252,-339.2 "/>
<text text-anchor="middle" x="224" y="-328" font-family="Helvetica,sans-Serif" font-size="9.00">init&#45;config</text>
</a>
</g>
</g>
<!-- src/cli&#45;&gt;src/cli/init&#45;config -->
<g id="edge6" class="edge">
<title>src/cli&#45;&gt;src/cli/init&#45;config</title>
<path fill="none" stroke="#0000ff" stroke-width="2" stroke-opacity="0.466667" d="M224,-373.08C224,-373.08 224,-345.54 224,-345.54"/>
<polygon fill="#0000ff" fill-opacity="0.466667" stroke="#0000ff" stroke-width="2" stroke-opacity="0.466667" points="226.1,-345.54 224,-339.54 221.9,-345.54 226.1,-345.54"/>
</g>
<!-- src -->
<!-- src/main/resolve&#45;options -->
<g id="node10" class="node">
<title>src/main/resolve&#45;options</title>
<g id="a_node10"><a xlink:href="https://github.com/sverweij/dependency-cruiser/blob/develop/src/main/resolve-options" xlink:title="resolve&#45;options">
<polygon fill="#ffcccc" stroke="black" points="478,-286.4 400,-286.4 398,-284.4 398,-268.4 476,-268.4 478,-270.4 478,-286.4"/>
<polyline fill="none" stroke="black" points="476,-284.4 398,-284.4 "/>
<polyline fill="none" stroke="black" points="476,-284.4 476,-268.4 "/>
<polyline fill="none" stroke="black" points="476,-284.4 478,-286.4 "/>
<text text-anchor="middle" x="438" y="-275.2" font-family="Helvetica,sans-Serif" font-size="9.00">resolve&#45;options</text>
</a>
</g>
</g>
<!-- src/main&#45;&gt;src/main/resolve&#45;options -->
<g id="edge35" class="edge">
<title>src/main&#45;&gt;src/main/resolve&#45;options</title>
<path fill="none" stroke="#770000" stroke-width="2" stroke-opacity="0.466667" d="M590.81,-330C571.97,-330 438,-330 438,-330 438,-330 438,-292.56 438,-292.56"/>
<polygon fill="#770000" fill-opacity="0.466667" stroke="#770000" stroke-width="2" stroke-opacity="0.466667" points="440.1,-292.56 438,-286.56 435.9,-292.56 440.1,-292.56"/>
</g>
<!-- src/enrich -->
<!-- src/main&#45;&gt;src/enrich -->
<g id="edge28" class="edge">
<title>src/main&#45;&gt;src/enrich</title>
<path fill="none" stroke="#007766" stroke-width="2" stroke-opacity="0.466667" d="M595.04,-330C618.04,-330 828.4,-330 828.4,-330 828.4,-330 828.4,-126.82 828.4,-126.82"/>
<polygon fill="#007766" fill-opacity="0.466667" stroke="#007766" stroke-width="2" stroke-opacity="0.466667" points="830.5,-126.82 828.4,-120.82 826.3,-126.82 830.5,-126.82"/>
</g>
<!-- src/extract -->
<!-- src/main&#45;&gt;src/extract -->
<g id="edge29" class="edge">
<title>src/main&#45;&gt;src/extract</title>
<path fill="none" stroke="#007700" stroke-width="2" stroke-opacity="0.466667" d="M591.17,-331C568.7,-331 347.5,-331 347.5,-331 347.5,-331 347.5,-278 347.5,-278 347.5,-278 256.71,-278 256.71,-278"/>
<polygon fill="#007700" fill-opacity="0.466667" stroke="#007700" stroke-width="2" stroke-opacity="0.466667" points="256.71,-275.9 250.71,-278 256.71,-280.1 256.71,-275.9"/>
</g>
<!-- src/extract/transpile -->
<g id="node21" class="node">
<title>src/extract/transpile</title>
<g id="a_node21"><a xlink:href="https://github.com/sverweij/dependency-cruiser/blob/develop/src/extract/transpile" xlink:title="transpile">
<polygon fill="#ccffcc" stroke="black" points="328,-188.8 276,-188.8 274,-186.8 274,-170.8 326,-170.8 328,-172.8 328,-188.8"/>
<polyline fill="none" stroke="black" points="326,-186.8 274,-186.8 "/>
<polyline fill="none" stroke="black" points="326,-186.8 326,-170.8 "/>
<polyline fill="none" stroke="black" points="326,-186.8 328,-188.8 "/>
<text text-anchor="middle" x="301" y="-177.6" font-family="Helvetica,sans-Serif" font-size="9.00">transpile</text>
</a>
</g>
</g>
<!-- src/main&#45;&gt;src/extract/transpile -->
<g id="edge30" class="edge">
<title>src/main&#45;&gt;src/extract/transpile</title>
<path fill="none" stroke="#007700" stroke-width="2" stroke-opacity="0.466667" d="M593,-332.04C593,-333.73 593,-336 593,-336 593,-336 388,-336 388,-336 388,-336 388,-187 388,-187 388,-187 334.05,-187 334.05,-187"/>
<polygon fill="#007700" fill-opacity="0.466667" stroke="#007700" stroke-width="2" stroke-opacity="0.466667" points="334.05,-184.9 328.05,-187 334.05,-189.1 334.05,-184.9"/>
</g>
<!-- src/report -->
<!-- src/main&#45;&gt;src/report -->
<g id="edge31" class="edge">
<title>src/main&#45;&gt;src/report</title>
<path fill="none" stroke="#ff00ff" stroke-width="2" stroke-opacity="0.466667" d="M592.4,-328.24C592.4,-326.42 592.4,-324 592.4,-324 592.4,-324 576.6,-324 576.6,-324 576.6,-324 576.6,-187.84 576.6,-187.84"/>
<polygon fill="#ff00ff" fill-opacity="0.466667" stroke="#ff00ff" stroke-width="2" stroke-opacity="0.466667" points="578.7,-187.84 576.6,-181.84 574.5,-187.84 578.7,-187.84"/>
</g>
<!-- src/schema -->
<g id="node25" class="node">
<title>src/schema</title>
<g id="a_node25"><a xlink:href="https://github.com/sverweij/dependency-cruiser/blob/develop/src/schema" xlink:title="schema">
<polygon fill="#ffffcc" stroke="black" points="710,-241.6 658,-241.6 656,-239.6 656,-223.6 708,-223.6 710,-225.6 710,-241.6"/>
<polyline fill="none" stroke="black" points="708,-239.6 656,-239.6 "/>
<polyline fill="none" stroke="black" points="708,-239.6 708,-223.6 "/>
<polyline fill="none" stroke="black" points="708,-239.6 710,-241.6 "/>
<text text-anchor="middle" x="683" y="-230.4" font-family="Helvetica,sans-Serif" font-size="9.00">schema</text>
</a>
</g>
</g>
<!-- src/main&#45;&gt;src/schema -->
<g id="edge32" class="edge">
<title>src/main&#45;&gt;src/schema</title>
<path fill="none" stroke="#000000" stroke-width="2" stroke-opacity="0.200000" d="M594.4,-329C606.43,-329 692,-329 692,-329 692,-329 692,-247.84 692,-247.84"/>
<polygon fill="#000000" fill-opacity="0.200000" stroke="#000000" stroke-width="2" stroke-opacity="0.200000" points="694.1,-247.84 692,-241.84 689.9,-247.84 694.1,-247.84"/>
</g>
<!-- src/main/files&#45;and&#45;dirs -->
<g id="node26" class="node">
<title>src/main/files&#45;and&#45;dirs</title>
<g id="a_node26"><a xlink:href="https://github.com/sverweij/dependency-cruiser/blob/develop/src/main/files-and-dirs" xlink:title="files&#45;and&#45;dirs">
<polygon fill="#ffcccc" stroke="black" points="560,-286.4 492,-286.4 490,-284.4 490,-268.4 558,-268.4 560,-270.4 560,-286.4"/>
<polyline fill="none" stroke="black" points="558,-284.4 490,-284.4 "/>
<polyline fill="none" stroke="black" points="558,-284.4 558,-268.4 "/>
<polyline fill="none" stroke="black" points="558,-284.4 560,-286.4 "/>
<text text-anchor="middle" x="525" y="-275.2" font-family="Helvetica,sans-Serif" font-size="9.00">files&#45;and&#45;dirs</text>
</a>
</g>
</g>
<!-- src/main&#45;&gt;src/main/files&#45;and&#45;dirs -->
<g id="edge33" class="edge">
<title>src/main&#45;&gt;src/main/files&#45;and&#45;dirs</title>
<path fill="none" stroke="#770000" stroke-width="2" stroke-opacity="0.466667" d="M591.58,-329C581.81,-329 525,-329 525,-329 525,-329 525,-292.86 525,-292.86"/>
<polygon fill="#770000" fill-opacity="0.466667" stroke="#770000" stroke-width="2" stroke-opacity="0.466667" points="527.1,-292.86 525,-286.86 522.9,-292.86 527.1,-292.86"/>
</g>
<!-- src/main/options -->
<g id="node27" class="node">
<title>src/main/options</title>
<g id="a_node27"><a xlink:href="https://github.com/sverweij/dependency-cruiser/blob/develop/src/main/options" xlink:title="options">
<polygon fill="#ffcccc" stroke="black" points="574,-241.6 522,-241.6 520,-239.6 520,-223.6 572,-223.6 574,-225.6 574,-241.6"/>
<polyline fill="none" stroke="black" points="572,-239.6 520,-239.6 "/>
<polyline fill="none" stroke="black" points="572,-239.6 572,-223.6 "/>
<polyline fill="none" stroke="black" points="572,-239.6 574,-241.6 "/>
<text text-anchor="middle" x="547" y="-230.4" font-family="Helvetica,sans-Serif" font-size="9.00">options</text>
</a>
</g>
</g>
<!-- src/main&#45;&gt;src/main/options -->
<g id="edge34" class="edge">
<title>src/main&#45;&gt;src/main/options</title>
<path fill="none" stroke="#770000" stroke-width="2" stroke-opacity="0.466667" d="M592.1,-332.1C592.1,-333.05 592.1,-334 592.1,-334 592.1,-334 564.67,-334 564.67,-334 564.67,-334 564.67,-247.96 564.67,-247.96"/>
<polygon fill="#770000" fill-opacity="0.466667" stroke="#770000" stroke-width="2" stroke-opacity="0.466667" points="566.77,-247.96 564.67,-241.96 562.57,-247.96 566.77,-247.96"/>
</g>
<!-- src/main/rule&#45;set -->
<g id="node28" class="node">
<title>src/main/rule&#45;set</title>
<g id="a_node28"><a xlink:href="https://github.com/sverweij/dependency-cruiser/blob/develop/src/main/rule-set" xlink:title="rule&#45;set">
<polygon fill="#ffcccc" stroke="black" points="640,-286.4 588,-286.4 586,-284.4 586,-268.4 638,-268.4 640,-270.4 640,-286.4"/>
<polyline fill="none" stroke="black" points="638,-284.4 586,-284.4 "/>
<polyline fill="none" stroke="black" points="638,-284.4 638,-268.4 "/>
<polyline fill="none" stroke="black" points="638,-284.4 640,-286.4 "/>
<text text-anchor="middle" x="613" y="-275.2" font-family="Helvetica,sans-Serif" font-size="9.00">rule&#45;set</text>
</a>
</g>
</g>
<!-- src/main&#45;&gt;src/main/rule&#45;set -->
<g id="edge36" class="edge">
<title>src/main&#45;&gt;src/main/rule&#45;set</title>
<path fill="none" stroke="#770000" stroke-width="2" stroke-opacity="0.466667" d="M593.6,-328.44C593.6,-328.44 593.6,-292.52 593.6,-292.52"/>
<polygon fill="#770000" fill-opacity="0.466667" stroke="#770000" stroke-width="2" stroke-opacity="0.466667" points="595.7,-292.52 593.6,-286.52 591.5,-292.52 595.7,-292.52"/>
</g>
<!-- src/extract/resolve -->
<!-- src/cli/compile&#45;config&#45;&gt;src/extract/resolve -->
<g id="edge7" class="edge">
<title>src/cli/compile&#45;config&#45;&gt;src/extract/resolve</title>
<g id="a_edge7"><a xlink:title="cli&#45;to&#45;main&#45;only&#45;warn">
<path fill="none" stroke="orange" stroke-width="2" d="M269.25,-320.85C269.25,-307.35 269.25,-284 269.25,-284 269.25,-284 106.4,-284 106.4,-284 106.4,-284 106.4,-233 106.4,-233 106.4,-233 152.22,-233 152.22,-233"/>
<polygon fill="orange" stroke="orange" stroke-width="2" points="152.22,-235.1 158.22,-233 152.22,-230.9 152.22,-235.1"/>
</a>
</g>
<text text-anchor="middle" x="114.34" y="-286.8" font-family="Helvetica,sans-Serif" font-size="9.00" fill="orange">cli&#45;to&#45;main&#45;only&#45;warn</text>
</g>
<!-- src/cli/compile&#45;config&#45;&gt;src/main/resolve&#45;options -->
<g id="edge8" class="edge">
<title>src/cli/compile&#45;config&#45;&gt;src/main/resolve&#45;options</title>
<path fill="none" stroke="#770000" stroke-width="2" stroke-opacity="0.466667" d="M302.17,-320.91C302.17,-306.9 302.17,-282 302.17,-282 302.17,-282 391.98,-282 391.98,-282"/>
<polygon fill="#770000" fill-opacity="0.466667" stroke="#770000" stroke-width="2" stroke-opacity="0.466667" points="391.98,-284.1 397.98,-282 391.98,-279.9 391.98,-284.1"/>
</g>
<!-- src/cli/init&#45;config&#45;&gt;src/cli -->
<g id="edge9" class="edge">
<title>src/cli/init&#45;config&#45;&gt;src/cli</title>
<path fill="none" stroke="#0000ff" stroke-width="2" stroke-opacity="0.466667" d="M229.87,-339.49C229.87,-352.35 229.87,-374 229.87,-374 229.87,-374 229.47,-374 229.47,-374"/>
<polygon fill="#0000ff" fill-opacity="0.466667" stroke="#0000ff" stroke-width="2" stroke-opacity="0.466667" points="231.86,-371.9 225.86,-374 231.86,-376.1 231.86,-371.9"/>
</g>
<!-- src/utl -->
<g id="node11" class="node">
<title>src/utl</title>
<g id="a_node11"><a xlink:href="https://github.com/sverweij/dependency-cruiser/blob/develop/src/utl" xlink:title="utl">
<polygon fill="#cccccc" stroke="black" points="585,-34 533,-34 531,-32 531,-16 583,-16 585,-18 585,-34"/>
<polyline fill="none" stroke="black" points="583,-32 531,-32 "/>
<polyline fill="none" stroke="black" points="583,-32 583,-16 "/>
<polyline fill="none" stroke="black" points="583,-32 585,-34 "/>
<text text-anchor="middle" x="558" y="-22.8" font-family="Helvetica,sans-Serif" font-size="9.00">utl</text>
</a>
</g>
</g>
<!-- src/cli/init&#45;config&#45;&gt;src/utl -->
<g id="edge10" class="edge">
<title>src/cli/init&#45;config&#45;&gt;src/utl</title>
<path fill="none" stroke="#aaaaaa" stroke-width="2" stroke-opacity="0.466667" d="M252.2,-330C256.88,-330 260.25,-330 260.25,-330 260.25,-330 260.25,-23 260.25,-23 260.25,-23 524.79,-23 524.79,-23"/>
<polygon fill="#aaaaaa" fill-opacity="0.466667" stroke="#aaaaaa" stroke-width="2" stroke-opacity="0.466667" points="524.79,-25.1 530.79,-23 524.79,-20.9 524.79,-25.1"/>
</g>
<!-- src/extract/resolve&#45;&gt;src/utl -->
<g id="edge25" class="edge">
<title>src/extract/resolve&#45;&gt;src/utl</title>
<path fill="none" stroke="#aaaaaa" stroke-width="2" stroke-opacity="0.466667" d="M158.11,-232C141.82,-232 26,-232 26,-232 26,-232 26,-19 26,-19 26,-19 524.89,-19 524.89,-19"/>
<polygon fill="#aaaaaa" fill-opacity="0.466667" stroke="#aaaaaa" stroke-width="2" stroke-opacity="0.466667" points="524.89,-21.1 530.89,-19 524.89,-16.9 524.89,-21.1"/>
</g>
<!-- src/extract/resolve/get&#45;manifest&#45;dependencies -->
<g id="node20" class="node">
<title>src/extract/resolve/get&#45;manifest&#45;dependencies</title>
<g id="a_node20"><a xlink:href="https://github.com/sverweij/dependency-cruiser/blob/develop/src/extract/resolve/get-manifest-dependencies" xlink:title="get&#45;manifest&#45;dependencies">
<polygon fill="#ccffcc" stroke="black" points="172,-188.8 46,-188.8 44,-186.8 44,-170.8 170,-170.8 172,-172.8 172,-188.8"/>
<polyline fill="none" stroke="black" points="170,-186.8 44,-186.8 "/>
<polyline fill="none" stroke="black" points="170,-186.8 170,-170.8 "/>
<polyline fill="none" stroke="black" points="170,-186.8 172,-188.8 "/>
<text text-anchor="middle" x="108" y="-177.6" font-family="Helvetica,sans-Serif" font-size="9.00">get&#45;manifest&#45;dependencies</text>
</a>
</g>
</g>
<!-- src/extract/resolve&#45;&gt;src/extract/resolve/get&#45;manifest&#45;dependencies -->
<g id="edge27" class="edge">
<title>src/extract/resolve&#45;&gt;src/extract/resolve/get&#45;manifest&#45;dependencies</title>
<path fill="none" stroke="#007700" stroke-width="2" stroke-opacity="0.466667" d="M160,-230.33C160,-230.33 160,-195.06 160,-195.06"/>
<polygon fill="#007700" fill-opacity="0.466667" stroke="#007700" stroke-width="2" stroke-opacity="0.466667" points="162.1,-195.06 160,-189.06 157.9,-195.06 162.1,-195.06"/>
</g>
<!-- src/extract/utl -->
<g id="node23" class="node">
<title>src/extract/utl</title>
<g id="a_node23"><a xlink:href="https://github.com/sverweij/dependency-cruiser/blob/develop/src/extract/utl" xlink:title="utl">
<polygon fill="#ccffcc" stroke="black" points="242,-188.8 190,-188.8 188,-186.8 188,-170.8 240,-170.8 242,-172.8 242,-188.8"/>
<polyline fill="none" stroke="black" points="240,-186.8 188,-186.8 "/>
<polyline fill="none" stroke="black" points="240,-186.8 240,-170.8 "/>
<polyline fill="none" stroke="black" points="240,-186.8 242,-188.8 "/>
<text text-anchor="middle" x="215" y="-177.6" font-family="Helvetica,sans-Serif" font-size="9.00">utl</text>
</a>
</g>
</g>
<!-- src/extract/resolve&#45;&gt;src/extract/utl -->
<g id="edge26" class="edge">
<title>src/extract/resolve&#45;&gt;src/extract/utl</title>
<path fill="none" stroke="#007700" stroke-width="2" stroke-opacity="0.466667" d="M162.01,-232C168.83,-232 190.67,-232 190.67,-232 190.67,-232 190.67,-194.89 190.67,-194.89"/>
<polygon fill="#007700" fill-opacity="0.466667" stroke="#007700" stroke-width="2" stroke-opacity="0.466667" points="192.77,-194.89 190.67,-188.89 188.57,-194.89 192.77,-194.89"/>
</g>
<!-- src/main/resolve&#45;options&#45;&gt;src/extract/transpile -->
<g id="edge38" class="edge">
<title>src/main/resolve&#45;options&#45;&gt;src/extract/transpile</title>
<path fill="none" stroke="#007700" stroke-width="2" stroke-opacity="0.466667" d="M420.67,-268.2C420.67,-244.83 420.67,-185 420.67,-185 420.67,-185 334.15,-185 334.15,-185"/>
<polygon fill="#007700" fill-opacity="0.466667" stroke="#007700" stroke-width="2" stroke-opacity="0.466667" points="334.15,-182.9 328.15,-185 334.15,-187.1 334.15,-182.9"/>
</g>
<!-- src/enrich&#45;&gt;src/utl -->
<g id="edge11" class="edge">
<title>src/enrich&#45;&gt;src/utl</title>
<path fill="none" stroke="#aaaaaa" stroke-width="2" stroke-opacity="0.466667" d="M829.6,-117.1C829.6,-104.03 829.6,-28 829.6,-28 829.6,-28 591.03,-28 591.03,-28"/>
<polygon fill="#aaaaaa" fill-opacity="0.466667" stroke="#aaaaaa" stroke-width="2" stroke-opacity="0.466667" points="591.04,-25.9 585.03,-28 591.03,-30.1 591.04,-25.9"/>
</g>
<!-- src/enrich/derive/circular -->
<g id="node13" class="node">
<title>src/enrich/derive/circular</title>
<g id="a_node13"><a xlink:href="https://github.com/sverweij/dependency-cruiser/blob/develop/src/enrich/derive/circular" xlink:title="circular">
<polygon fill="#77eeaa" stroke="black" points="754,-76 702,-76 700,-74 700,-58 752,-58 754,-60 754,-76"/>
<polyline fill="none" stroke="black" points="752,-74 700,-74 "/>
<polyline fill="none" stroke="black" points="752,-74 752,-58 "/>
<polyline fill="none" stroke="black" points="752,-74 754,-76 "/>
<text text-anchor="middle" x="727" y="-64.8" font-family="Helvetica,sans-Serif" font-size="9.00">circular</text>
</a>
</g>
</g>
<!-- src/enrich&#45;&gt;src/enrich/derive/circular -->
<g id="edge12" class="edge">
<title>src/enrich&#45;&gt;src/enrich/derive/circular</title>
<path fill="none" stroke="#007766" stroke-width="2" stroke-opacity="0.466667" d="M826.97,-119C813.04,-119 732,-119 732,-119 732,-119 732,-82.06 732,-82.06"/>
<polygon fill="#007766" fill-opacity="0.466667" stroke="#007766" stroke-width="2" stroke-opacity="0.466667" points="734.1,-82.06 732,-76.06 729.9,-82.06 734.1,-82.06"/>
</g>
<!-- src/enrich/derive/orphan -->
<g id="node14" class="node">
<title>src/enrich/derive/orphan</title>
<g id="a_node14"><a xlink:href="https://github.com/sverweij/dependency-cruiser/blob/develop/src/enrich/derive/orphan" xlink:title="orphan">
<polygon fill="#77eeaa" stroke="black" points="890,-76 838,-76 836,-74 836,-58 888,-58 890,-60 890,-76"/>
<polyline fill="none" stroke="black" points="888,-74 836,-74 "/>
<polyline fill="none" stroke="black" points="888,-74 888,-58 "/>
<polyline fill="none" stroke="black" points="888,-74 890,-76 "/>
<text text-anchor="middle" x="863" y="-64.8" font-family="Helvetica,sans-Serif" font-size="9.00">orphan</text>
</a>
</g>
</g>
<!-- src/enrich&#45;&gt;src/enrich/derive/orphan -->
<g id="edge13" class="edge">
<title>src/enrich&#45;&gt;src/enrich/derive/orphan</title>
<path fill="none" stroke="#007766" stroke-width="2" stroke-opacity="0.466667" d="M830.83,-119C837.89,-119 863,-119 863,-119 863,-119 863,-82.06 863,-82.06"/>
<polygon fill="#007766" fill-opacity="0.466667" stroke="#007766" stroke-width="2" stroke-opacity="0.466667" points="865.1,-82.06 863,-76.06 860.9,-82.06 865.1,-82.06"/>
</g>
<!-- src/enrich/derive/reachable -->
<g id="node15" class="node">
<title>src/enrich/derive/reachable</title>
<g id="a_node15"><a xlink:href="https://github.com/sverweij/dependency-cruiser/blob/develop/src/enrich/derive/reachable" xlink:title="reachable">
<polygon fill="#77eeaa" stroke="black" points="824,-76 768,-76 766,-74 766,-58 822,-58 824,-60 824,-76"/>
<polyline fill="none" stroke="black" points="822,-74 766,-74 "/>
<polyline fill="none" stroke="black" points="822,-74 822,-58 "/>
<polyline fill="none" stroke="black" points="822,-74 824,-76 "/>
<text text-anchor="middle" x="795" y="-64.8" font-family="Helvetica,sans-Serif" font-size="9.00">reachable</text>
</a>
</g>
</g>
<!-- src/enrich&#45;&gt;src/enrich/derive/reachable -->
<g id="edge14" class="edge">
<title>src/enrich&#45;&gt;src/enrich/derive/reachable</title>
<path fill="none" stroke="#007766" stroke-width="2" stroke-opacity="0.466667" d="M828.4,-117.27C828.4,-108.25 828.4,-67 828.4,-67 828.4,-67 827.96,-67 827.96,-67"/>
<polygon fill="#007766" fill-opacity="0.466667" stroke="#007766" stroke-width="2" stroke-opacity="0.466667" points="830.03,-64.9 824.03,-67 830.03,-69.1 830.03,-64.9"/>
</g>
<!-- src/validate -->
<g id="node16" class="node">
<title>src/validate</title>
<g id="a_node16"><a xlink:href="https://github.com/sverweij/dependency-cruiser/blob/develop/src/validate" xlink:title="validate">
<polygon fill="#ccccff" stroke="black" points="968,-76 916,-76 914,-74 914,-58 966,-58 968,-60 968,-76"/>
<polyline fill="none" stroke="black" points="966,-74 914,-74 "/>
<polyline fill="none" stroke="black" points="966,-74 966,-58 "/>
<polyline fill="none" stroke="black" points="966,-74 968,-76 "/>
<text text-anchor="middle" x="941" y="-64.8" font-family="Helvetica,sans-Serif" font-size="9.00">validate</text>
</a>
</g>
</g>
<!-- src/enrich&#45;&gt;src/validate -->
<g id="edge15" class="edge">
<title>src/enrich&#45;&gt;src/validate</title>
<path fill="none" stroke="#0000ff" stroke-width="2" stroke-opacity="0.466667" d="M829.6,-121.03C829.6,-122.42 829.6,-124 829.6,-124 829.6,-124 941,-124 941,-124 941,-124 941,-82.16 941,-82.16"/>
<polygon fill="#0000ff" fill-opacity="0.466667" stroke="#0000ff" stroke-width="2" stroke-opacity="0.466667" points="943.1,-82.16 941,-76.16 938.9,-82.16 943.1,-82.16"/>
</g>
<!-- src/validate&#45;&gt;src/utl -->
<g id="edge52" class="edge">
<title>src/validate&#45;&gt;src/utl</title>
<path fill="none" stroke="#aaaaaa" stroke-width="2" stroke-opacity="0.466667" d="M941,-57.89C941,-44.74 941,-22 941,-22 941,-22 591.24,-22 591.24,-22"/>
<polygon fill="#aaaaaa" fill-opacity="0.466667" stroke="#aaaaaa" stroke-width="2" stroke-opacity="0.466667" points="591.24,-19.9 585.24,-22 591.24,-24.1 591.24,-19.9"/>
</g>
<!-- src/enrich/derive -->
<!-- src/extract&#45;&gt;src/extract/resolve -->
<g id="edge19" class="edge">
<title>src/extract&#45;&gt;src/extract/resolve</title>
<path fill="none" stroke="#007700" stroke-width="2" stroke-opacity="0.466667" d="M247.74,-276C236.92,-276 160,-276 160,-276 160,-276 160,-240.46 160,-240.46"/>
<polygon fill="#007700" fill-opacity="0.466667" stroke="#007700" stroke-width="2" stroke-opacity="0.466667" points="162.1,-240.46 160,-234.46 157.9,-240.46 162.1,-240.46"/>
</g>
<!-- src/extract&#45;&gt;src/utl -->
<g id="edge16" class="edge">
<title>src/extract&#45;&gt;src/utl</title>
<path fill="none" stroke="#aaaaaa" stroke-width="2" stroke-opacity="0.466667" d="M249.6,-279.41C249.6,-285.44 249.6,-303 249.6,-303 249.6,-303 365.75,-303 365.75,-303 365.75,-303 365.75,-26 365.75,-26 365.75,-26 524.86,-26 524.86,-26"/>
<polygon fill="#aaaaaa" fill-opacity="0.466667" stroke="#aaaaaa" stroke-width="2" stroke-opacity="0.466667" points="524.86,-28.1 530.86,-26 524.86,-23.9 524.86,-28.1"/>
</g>
<!-- src/extract/parse -->
<g id="node19" class="node">
<title>src/extract/parse</title>
<g id="a_node19"><a xlink:href="https://github.com/sverweij/dependency-cruiser/blob/develop/src/extract/parse" xlink:title="parse">
<polygon fill="#ccffcc" stroke="black" points="256,-241.6 204,-241.6 202,-239.6 202,-223.6 254,-223.6 256,-225.6 256,-241.6"/>
<polyline fill="none" stroke="black" points="254,-239.6 202,-239.6 "/>
<polyline fill="none" stroke="black" points="254,-239.6 254,-223.6 "/>
<polyline fill="none" stroke="black" points="254,-239.6 256,-241.6 "/>
<text text-anchor="middle" x="229" y="-230.4" font-family="Helvetica,sans-Serif" font-size="9.00">parse</text>
</a>
</g>
</g>
<!-- src/extract&#45;&gt;src/extract/parse -->
<g id="edge17" class="edge">
<title>src/extract&#45;&gt;src/extract/parse</title>
<path fill="none" stroke="#007700" stroke-width="2" stroke-opacity="0.466667" d="M249.6,-275.48C249.6,-275.48 249.6,-247.94 249.6,-247.94"/>
<polygon fill="#007700" fill-opacity="0.466667" stroke="#007700" stroke-width="2" stroke-opacity="0.466667" points="251.7,-247.94 249.6,-241.94 247.5,-247.94 251.7,-247.94"/>
</g>
<!-- src/extract&#45;&gt;src/extract/resolve/get&#45;manifest&#45;dependencies -->
<g id="edge18" class="edge">
<title>src/extract&#45;&gt;src/extract/resolve/get&#45;manifest&#45;dependencies</title>
<path fill="none" stroke="#007700" stroke-width="2" stroke-opacity="0.466667" d="M247.18,-278C233.25,-278 144.1,-278 144.1,-278 144.1,-278 144.1,-194.86 144.1,-194.86"/>
<polygon fill="#007700" fill-opacity="0.466667" stroke="#007700" stroke-width="2" stroke-opacity="0.466667" points="146.2,-194.86 144.1,-188.86 142,-194.86 146.2,-194.86"/>
</g>
<!-- src/extract&#45;&gt;src/extract/transpile -->
<g id="edge20" class="edge">
<title>src/extract&#45;&gt;src/extract/transpile</title>
<path fill="none" stroke="#007700" stroke-width="2" stroke-opacity="0.466667" d="M248.4,-275.69C248.4,-274.11 248.4,-272 248.4,-272 248.4,-272 279.67,-272 279.67,-272 279.67,-272 279.67,-194.98 279.67,-194.98"/>
<polygon fill="#007700" fill-opacity="0.466667" stroke="#007700" stroke-width="2" stroke-opacity="0.466667" points="281.77,-194.98 279.67,-188.98 277.57,-194.98 281.77,-194.98"/>
</g>
<!-- src/extract/ast&#45;extractors -->
<g id="node22" class="node">
<title>src/extract/ast&#45;extractors</title>
<g id="a_node22"><a xlink:href="https://github.com/sverweij/dependency-cruiser/blob/develop/src/extract/ast-extractors" xlink:title="ast&#45;extractors">
<polygon fill="#ccffcc" stroke="black" points="353.5,-241.6 284.5,-241.6 282.5,-239.6 282.5,-223.6 351.5,-223.6 353.5,-225.6 353.5,-241.6"/>
<polyline fill="none" stroke="black" points="351.5,-239.6 282.5,-239.6 "/>
<polyline fill="none" stroke="black" points="351.5,-239.6 351.5,-223.6 "/>
<polyline fill="none" stroke="black" points="351.5,-239.6 353.5,-241.6 "/>
<text text-anchor="middle" x="318" y="-230.4" font-family="Helvetica,sans-Serif" font-size="9.00">ast&#45;extractors</text>
</a>
</g>
</g>
<!-- src/extract&#45;&gt;src/extract/ast&#45;extractors -->
<g id="edge21" class="edge">
<title>src/extract&#45;&gt;src/extract/ast&#45;extractors</title>
<path fill="none" stroke="#007700" stroke-width="2" stroke-opacity="0.466667" d="M250.26,-276C259.94,-276 321.83,-276 321.83,-276 321.83,-276 321.83,-247.8 321.83,-247.8"/>
<polygon fill="#007700" fill-opacity="0.466667" stroke="#007700" stroke-width="2" stroke-opacity="0.466667" points="323.93,-247.8 321.83,-241.8 319.73,-247.8 323.93,-247.8"/>
</g>
<!-- src/extract&#45;&gt;src/extract/utl -->
<g id="edge22" class="edge">
<title>src/extract&#45;&gt;src/extract/utl</title>
<path fill="none" stroke="#007700" stroke-width="2" stroke-opacity="0.466667" d="M248.4,-279.2C248.4,-280.1 248.4,-281 248.4,-281 248.4,-281 193.33,-281 193.33,-281 193.33,-281 193.33,-195.14 193.33,-195.14"/>
<polygon fill="#007700" fill-opacity="0.466667" stroke="#007700" stroke-width="2" stroke-opacity="0.466667" points="195.43,-195.14 193.33,-189.14 191.23,-195.14 195.43,-195.14"/>
</g>
<!-- src/extract/parse&#45;&gt;src/extract/transpile -->
<g id="edge23" class="edge">
<title>src/extract/parse&#45;&gt;src/extract/transpile</title>
<path fill="none" stroke="#007700" stroke-width="2" stroke-opacity="0.466667" d="M256.27,-232C267.01,-232 276.83,-232 276.83,-232 276.83,-232 276.83,-194.89 276.83,-194.89"/>
<polygon fill="#007700" fill-opacity="0.466667" stroke="#007700" stroke-width="2" stroke-opacity="0.466667" points="278.93,-194.89 276.83,-188.89 274.73,-194.89 278.93,-194.89"/>
</g>
<!-- src/extract/parse&#45;&gt;src/extract/utl -->
<g id="edge24" class="edge">
<title>src/extract/parse&#45;&gt;src/extract/utl</title>
<path fill="none" stroke="#007700" stroke-width="2" stroke-opacity="0.466667" d="M222,-223.4C222,-223.4 222,-194.89 222,-194.89"/>
<polygon fill="#007700" fill-opacity="0.466667" stroke="#007700" stroke-width="2" stroke-opacity="0.466667" points="224.1,-194.89 222,-188.89 219.9,-194.89 224.1,-194.89"/>
</g>
<!-- src/report&#45;&gt;src/utl -->
<g id="edge47" class="edge">
<title>src/report&#45;&gt;src/utl</title>
<path fill="none" stroke="#aaaaaa" stroke-width="2" stroke-opacity="0.466667" d="M576.6,-178.06C576.6,-178.06 576.6,-40.42 576.6,-40.42"/>
<polygon fill="#aaaaaa" fill-opacity="0.466667" stroke="#aaaaaa" stroke-width="2" stroke-opacity="0.466667" points="578.7,-40.42 576.6,-34.42 574.5,-40.42 578.7,-40.42"/>
</g>
<!-- src/report/anon -->
<g id="node30" class="node">
<title>src/report/anon</title>
<g id="a_node30"><a xlink:href="https://github.com/sverweij/dependency-cruiser/blob/develop/src/report/anon" xlink:title="anon">
<polygon fill="#ffccff" stroke="black" points="432,-128 380,-128 378,-126 378,-110 430,-110 432,-112 432,-128"/>
<polyline fill="none" stroke="black" points="430,-126 378,-126 "/>
<polyline fill="none" stroke="black" points="430,-126 430,-110 "/>
<polyline fill="none" stroke="black" points="430,-126 432,-128 "/>
<text text-anchor="middle" x="405" y="-116.8" font-family="Helvetica,sans-Serif" font-size="9.00">anon</text>
</a>
</g>
</g>
<!-- src/report&#45;&gt;src/report/anon -->
<g id="edge42" class="edge">
<title>src/report&#45;&gt;src/report/anon</title>
<path fill="none" stroke="#ff00ff" stroke-width="2" stroke-opacity="0.466667" d="M578.17,-180C585.51,-180 609,-180 609,-180 609,-180 609,-174 609,-174 609,-174 409.33,-174 409.33,-174 409.33,-174 409.33,-134.08 409.33,-134.08"/>
<polygon fill="#ff00ff" fill-opacity="0.466667" stroke="#ff00ff" stroke-width="2" stroke-opacity="0.466667" points="411.43,-134.08 409.33,-128.08 407.23,-134.08 411.43,-134.08"/>
</g>
<!-- src/report/dot -->
<g id="node31" class="node">
<title>src/report/dot</title>
<g id="a_node31"><a xlink:href="https://github.com/sverweij/dependency-cruiser/blob/develop/src/report/dot" xlink:title="dot">
<polygon fill="#ffccff" stroke="black" points="498,-128 446,-128 444,-126 444,-110 496,-110 498,-112 498,-128"/>
<polyline fill="none" stroke="black" points="496,-126 444,-126 "/>
<polyline fill="none" stroke="black" points="496,-126 496,-110 "/>
<polyline fill="none" stroke="black" points="496,-126 498,-128 "/>
<text text-anchor="middle" x="471" y="-116.8" font-family="Helvetica,sans-Serif" font-size="9.00">dot</text>
</a>
</g>
</g>
<!-- src/report&#45;&gt;src/report/dot -->
<g id="edge43" class="edge">
<title>src/report&#45;&gt;src/report/dot</title>
<path fill="none" stroke="#ff00ff" stroke-width="2" stroke-opacity="0.466667" d="M574.29,-179C562.51,-179 494,-179 494,-179 494,-179 494,-134.11 494,-134.11"/>
<polygon fill="#ff00ff" fill-opacity="0.466667" stroke="#ff00ff" stroke-width="2" stroke-opacity="0.466667" points="496.1,-134.11 494,-128.11 491.9,-134.11 496.1,-134.11"/>
</g>
<!-- src/report/error&#45;html -->
<g id="node32" class="node">
<title>src/report/error&#45;html</title>
<g id="a_node32"><a xlink:href="https://github.com/sverweij/dependency-cruiser/blob/develop/src/report/error-html" xlink:title="error&#45;html">
<polygon fill="#ffccff" stroke="black" points="566,-128 512,-128 510,-126 510,-110 564,-110 566,-112 566,-128"/>
<polyline fill="none" stroke="black" points="564,-126 510,-126 "/>
<polyline fill="none" stroke="black" points="564,-126 564,-110 "/>
<polyline fill="none" stroke="black" points="564,-126 566,-128 "/>
<text text-anchor="middle" x="538" y="-116.8" font-family="Helvetica,sans-Serif" font-size="9.00">error&#45;html</text>
</a>
</g>
</g>
<!-- src/report&#45;&gt;src/report/error&#45;html -->
<g id="edge44" class="edge">
<title>src/report&#45;&gt;src/report/error&#45;html</title>
<path fill="none" stroke="#ff00ff" stroke-width="2" stroke-opacity="0.466667" d="M575.4,-178.05C575.4,-168.08 575.4,-119 575.4,-119 575.4,-119 572.35,-119 572.35,-119"/>
<polygon fill="#ff00ff" fill-opacity="0.466667" stroke="#ff00ff" stroke-width="2" stroke-opacity="0.466667" points="572.35,-116.9 566.35,-119 572.35,-121.1 572.35,-116.9"/>
</g>
<!-- src/report/html -->
<g id="node33" class="node">
<title>src/report/html</title>
<g id="a_node33"><a xlink:href="https://github.com/sverweij/dependency-cruiser/blob/develop/src/report/html" xlink:title="html">
<polygon fill="#ffccff" stroke="black" points="632,-128 580,-128 578,-126 578,-110 630,-110 632,-112 632,-128"/>
<polyline fill="none" stroke="black" points="630,-126 578,-126 "/>
<polyline fill="none" stroke="black" points="630,-126 630,-110 "/>
<polyline fill="none" stroke="black" points="630,-126 632,-128 "/>
<text text-anchor="middle" x="605" y="-116.8" font-family="Helvetica,sans-Serif" font-size="9.00">html</text>
</a>
</g>
</g>
<!-- src/report&#45;&gt;src/report/html -->
<g id="edge45" class="edge">
<title>src/report&#45;&gt;src/report/html</title>
<path fill="none" stroke="#ff00ff" stroke-width="2" stroke-opacity="0.466667" d="M577.64,-179C579.42,-179 582,-179 582,-179 582,-179 582,-134.11 582,-134.11"/>
<polygon fill="#ff00ff" fill-opacity="0.466667" stroke="#ff00ff" stroke-width="2" stroke-opacity="0.466667" points="584.1,-134.11 582,-128.11 579.9,-134.11 584.1,-134.11"/>
</g>
<!-- src/report/utl -->
<g id="node34" class="node">
<title>src/report/utl</title>
<g id="a_node34"><a xlink:href="https://github.com/sverweij/dependency-cruiser/blob/develop/src/report/utl" xlink:title="utl">
<polygon fill="#ffccff" stroke="black" points="565,-76 513,-76 511,-74 511,-58 563,-58 565,-60 565,-76"/>
<polyline fill="none" stroke="black" points="563,-74 511,-74 "/>
<polyline fill="none" stroke="black" points="563,-74 563,-58 "/>
<polyline fill="none" stroke="black" points="563,-74 565,-76 "/>
<text text-anchor="middle" x="538" y="-64.8" font-family="Helvetica,sans-Serif" font-size="9.00">utl</text>
</a>
</g>
</g>
<!-- src/report&#45;&gt;src/report/utl -->
<g id="edge46" class="edge">
<title>src/report&#45;&gt;src/report/utl</title>
<path fill="none" stroke="#ff00ff" stroke-width="2" stroke-opacity="0.466667" d="M575.4,-181.7C575.4,-182.39 575.4,-183 575.4,-183 575.4,-183 568.67,-183 568.67,-183 568.67,-183 568.67,-73 568.67,-73 568.67,-73 568.34,-73 568.34,-73"/>
<polygon fill="#ff00ff" fill-opacity="0.466667" stroke="#ff00ff" stroke-width="2" stroke-opacity="0.466667" points="571.38,-70.9 565.38,-73 571.38,-75.1 571.38,-70.9"/>
</g>
<!-- src/main/options&#45;&gt;src/report -->
<g id="edge37" class="edge">
<title>src/main/options&#45;&gt;src/report</title>
<path fill="none" stroke="#ff00ff" stroke-width="2" stroke-opacity="0.466667" d="M571.33,-223.44C571.33,-208.37 571.33,-180 571.33,-180 571.33,-180 571.61,-180 571.61,-180"/>
<polygon fill="#ff00ff" fill-opacity="0.466667" stroke="#ff00ff" stroke-width="2" stroke-opacity="0.466667" points="568.1,-182.1 574.1,-180 568.1,-177.9 568.1,-182.1"/>
</g>
<!-- src/main/rule&#45;set&#45;&gt;src/schema -->
<g id="edge40" class="edge">
<title>src/main/rule&#45;set&#45;&gt;src/schema</title>
<path fill="none" stroke="#000000" stroke-width="2" stroke-opacity="0.200000" d="M640.29,-277C656.53,-277 674,-277 674,-277 674,-277 674,-248.02 674,-248.02"/>
<polygon fill="#000000" fill-opacity="0.200000" stroke="#000000" stroke-width="2" stroke-opacity="0.200000" points="676.1,-248.02 674,-242.02 671.9,-248.02 676.1,-248.02"/>
</g>
<!-- src/main/rule&#45;set&#45;&gt;src/main/options -->
<g id="edge41" class="edge">
<title>src/main/rule&#45;set&#45;&gt;src/main/options</title>
<path fill="none" stroke="#770000" stroke-width="2" stroke-opacity="0.466667" d="M585.59,-277C576.82,-277 569.33,-277 569.33,-277 569.33,-277 569.33,-248.02 569.33,-248.02"/>
<polygon fill="#770000" fill-opacity="0.466667" stroke="#770000" stroke-width="2" stroke-opacity="0.466667" points="571.43,-248.02 569.33,-242.02 567.23,-248.02 571.43,-248.02"/>
</g>
<!-- src/main/utl -->
<g id="node29" class="node">
<title>src/main/utl</title>
<g id="a_node29"><a xlink:href="https://github.com/sverweij/dependency-cruiser/blob/develop/src/main/utl" xlink:title="utl">
<polygon fill="#ffcccc" stroke="black" points="640,-241.6 588,-241.6 586,-239.6 586,-223.6 638,-223.6 640,-225.6 640,-241.6"/>
<polyline fill="none" stroke="black" points="638,-239.6 586,-239.6 "/>
<polyline fill="none" stroke="black" points="638,-239.6 638,-223.6 "/>
<polyline fill="none" stroke="black" points="638,-239.6 640,-241.6 "/>
<text text-anchor="middle" x="613" y="-230.4" font-family="Helvetica,sans-Serif" font-size="9.00">utl</text>
</a>
</g>
</g>
<!-- src/main/rule&#45;set&#45;&gt;src/main/utl -->
<g id="edge39" class="edge">
<title>src/main/rule&#45;set&#45;&gt;src/main/utl</title>
<path fill="none" stroke="#770000" stroke-width="2" stroke-opacity="0.466667" d="M613,-268.33C613,-268.33 613,-247.65 613,-247.65"/>
<polygon fill="#770000" fill-opacity="0.466667" stroke="#770000" stroke-width="2" stroke-opacity="0.466667" points="615.1,-247.65 613,-241.65 610.9,-247.65 615.1,-247.65"/>
</g>
<!-- src/report/dot&#45;&gt;src/utl -->
<g id="edge48" class="edge">
<title>src/report/dot&#45;&gt;src/utl</title>
<path fill="none" stroke="#aaaaaa" stroke-width="2" stroke-opacity="0.466667" d="M462,-109.81C462,-87.07 462,-30 462,-30 462,-30 524.75,-30 524.75,-30"/>
<polygon fill="#aaaaaa" fill-opacity="0.466667" stroke="#aaaaaa" stroke-width="2" stroke-opacity="0.466667" points="524.75,-32.1 530.75,-30 524.75,-27.9 524.75,-32.1"/>
</g>
<!-- src/report/dot&#45;&gt;src/report/utl -->
<g id="edge49" class="edge">
<title>src/report/dot&#45;&gt;src/report/utl</title>
<path fill="none" stroke="#ff00ff" stroke-width="2" stroke-opacity="0.466667" d="M480,-109.94C480,-95.04 480,-67 480,-67 480,-67 504.7,-67 504.7,-67"/>
<polygon fill="#ff00ff" fill-opacity="0.466667" stroke="#ff00ff" stroke-width="2" stroke-opacity="0.466667" points="504.7,-69.1 510.7,-67 504.7,-64.9 504.7,-69.1"/>
</g>
<!-- src/report/html&#45;&gt;src/report/utl -->
<g id="edge50" class="edge">
<title>src/report/html&#45;&gt;src/report/utl</title>
<path fill="none" stroke="#ff00ff" stroke-width="2" stroke-opacity="0.466667" d="M581.5,-109.75C581.5,-95.8 581.5,-71 581.5,-71 581.5,-71 571.3,-71 571.3,-71"/>
<polygon fill="#ff00ff" fill-opacity="0.466667" stroke="#ff00ff" stroke-width="2" stroke-opacity="0.466667" points="571.3,-68.9 565.3,-71 571.3,-73.1 571.3,-68.9"/>
</g>
<!-- src/report/utl&#45;&gt;src/utl -->
<g id="edge51" class="edge">
<title>src/report/utl&#45;&gt;src/utl</title>
<path fill="none" stroke="#aaaaaa" stroke-width="2" stroke-opacity="0.466667" d="M548,-57.68C548,-57.68 548,-40.01 548,-40.01"/>
<polygon fill="#aaaaaa" fill-opacity="0.466667" stroke="#aaaaaa" stroke-width="2" stroke-opacity="0.466667" points="550.1,-40.01 548,-34.01 545.9,-40.01 550.1,-40.01"/>
</g>
</g>
</svg>
