<?xml version="1.0" encoding="UTF-8" standalone="no"?>
<!DOCTYPE svg PUBLIC "-//W3C//DTD SVG 1.1//EN"
 "http://www.w3.org/Graphics/SVG/1.1/DTD/svg11.dtd">
<!-- Generated by graphviz version 8.0.1 (20230327.1645)
 -->
<!-- Title: dependency&#45;cruiser output Pages: 1 -->
<svg width="310pt" height="249pt"
 viewBox="0.00 0.00 310.00 249.00" xmlns="http://www.w3.org/2000/svg" xmlns:xlink="http://www.w3.org/1999/xlink">
<g id="graph0" class="graph" transform="scale(1 1) rotate(0) translate(4 245)">
<title>dependency&#45;cruiser output</title>
<polygon fill="white" stroke="none" points="-4,4 -4,-245 306,-245 306,4 -4,4"/>
<g id="clust1" class="cluster">
<title>cluster_src</title>
<path fill="#ffffff" stroke="black" stroke-width="2" d="M20,-8C20,-8 282,-8 282,-8 288,-8 294,-14 294,-20 294,-20 294,-203 294,-203 294,-209 288,-215 282,-215 282,-215 20,-215 20,-215 14,-215 8,-209 8,-203 8,-203 8,-20 8,-20 8,-14 14,-8 20,-8"/>
<text text-anchor="middle" x="151" y="-203.8" font-family="Helvetica,sans-Serif" font-weight="bold" font-size="9.00">src</text>
</g>
<!-- bin/ -->
<g id="node1" class="node">
<title>bin/</title>
<g id="a_node1"><a xlink:href="https://github.com/sverweij/dependency-cruiser/blob/develop/bin/" xlink:title="bin">
<polygon fill="#ffffcc" stroke="black" points="132,-241 80,-241 78,-239 78,-223 130,-223 132,-225 132,-241"/>
<polyline fill="none" stroke="black" points="130,-239 78,-239"/>
<polyline fill="none" stroke="black" points="130,-239 130,-223"/>
<polyline fill="none" stroke="black" points="130,-239 132,-241"/>
<text text-anchor="start" x="98.5" y="-229.8" font-family="Helvetica,sans-Serif" font-size="9.00">bin</text>
</a>
</g>
</g>
<!-- src/cli -->
<g id="node2" class="node">
<title>src/cli</title>
<g id="a_node2"><a xlink:href="https://github.com/sverweij/dependency-cruiser/blob/develop/src/cli" xlink:title="cli">
<polygon fill="#ccccff" stroke="black" points="132,-189 80,-189 78,-187 78,-171 130,-171 132,-173 132,-189"/>
<polyline fill="none" stroke="black" points="130,-187 78,-187"/>
<polyline fill="none" stroke="black" points="130,-187 130,-171"/>
<polyline fill="none" stroke="black" points="130,-187 132,-189"/>
<text text-anchor="start" x="100" y="-177.8" font-family="Helvetica,sans-Serif" font-size="9.00">cli</text>
</a>
</g>
</g>
<!-- bin/&#45;&gt;src/cli -->
<g id="edge1" class="edge">
<title>bin/&#45;&gt;src/cli</title>
<path fill="none" stroke="#0000ff" stroke-width="2" stroke-opacity="0.466667" d="M105,-222.94C105,-222.94 105,-198.3 105,-198.3"/>
<polygon fill="#0000ff" fill-opacity="0.466667" stroke="#0000ff" stroke-width="2" stroke-opacity="0.466667" points="107.1,-198.3 105,-192.3 102.9,-198.3 107.1,-198.3"/>
</g>
<!-- src/extract -->
<g id="node4" class="node">
<title>src/extract</title>
<g id="a_node4"><a xlink:href="https://github.com/sverweij/dependency-cruiser/blob/develop/src/extract" xlink:title="extract">
<polygon fill="#ccffcc" stroke="black" points="84,-65 32,-65 30,-63 30,-47 82,-47 84,-49 84,-65"/>
<polyline fill="none" stroke="black" points="82,-63 30,-63"/>
<polyline fill="none" stroke="black" points="82,-63 82,-47"/>
<polyline fill="none" stroke="black" points="82,-63 84,-65"/>
<text text-anchor="start" x="43" y="-53.8" font-family="Helvetica,sans-Serif" font-size="9.00">extract</text>
</a>
</g>
</g>
<!-- src/cli&#45;&gt;src/extract -->
<g id="edge7" class="edge">
<title>src/cli&#45;&gt;src/extract</title>
<path fill="none" stroke="#007700" stroke-width="2" stroke-opacity="0.466667" d="M77.61,-180C57.86,-180 34.67,-180 34.67,-180 34.67,-180 34.67,-74.32 34.67,-74.32"/>
<polygon fill="#007700" fill-opacity="0.466667" stroke="#007700" stroke-width="2" stroke-opacity="0.466667" points="36.77,-74.32 34.67,-68.32 32.57,-74.32 36.77,-74.32"/>
</g>
<!-- src/utl -->
<g id="node5" class="node">
<title>src/utl</title>
<g id="a_node5"><a xlink:href="https://github.com/sverweij/dependency-cruiser/blob/develop/src/utl" xlink:title="utl&#45;module&#45;not&#45;shared&#45;enough">
<polygon fill="#cccccc" stroke="blue" points="238,-34 186,-34 184,-32 184,-16 236,-16 238,-18 238,-34"/>
<polyline fill="none" stroke="blue" points="236,-32 184,-32"/>
<polyline fill="none" stroke="blue" points="236,-32 236,-16"/>
<polyline fill="none" stroke="blue" points="236,-32 238,-34"/>
<text text-anchor="start" x="206" y="-22.8" font-family="Helvetica,sans-Serif" font-size="9.00" fill="blue">utl</text>
</a>
</g>
</g>
<!-- src/cli&#45;&gt;src/utl -->
<g id="edge8" class="edge">
<title>src/cli&#45;&gt;src/utl</title>
<path fill="none" stroke="#aaaaaa" stroke-width="2" stroke-opacity="0.466667" d="M132.3,-180C159.11,-180 196,-180 196,-180 196,-180 196,-43.23 196,-43.23"/>
<polygon fill="#aaaaaa" fill-opacity="0.466667" stroke="#aaaaaa" stroke-width="2" stroke-opacity="0.466667" points="198.1,-43.23 196,-37.23 193.9,-43.23 198.1,-43.23"/>
</g>
<!-- src/config&#45;utl -->
<g id="node7" class="node">
<title>src/config&#45;utl</title>
<g id="a_node7"><a xlink:href="https://github.com/sverweij/dependency-cruiser/blob/develop/src/config-utl" xlink:title="config&#45;utl">
<polygon fill="#99ffff" stroke="black" points="112,-158 60,-158 58,-156 58,-140 110,-140 112,-142 112,-158"/>
<polyline fill="none" stroke="black" points="110,-156 58,-156"/>
<polyline fill="none" stroke="black" points="110,-156 110,-140"/>
<polyline fill="none" stroke="black" points="110,-156 112,-158"/>
<text text-anchor="start" x="66" y="-146.8" font-family="Helvetica,sans-Serif" font-size="9.00">config&#45;utl</text>
</a>
</g>
</g>
<!-- src/cli&#45;&gt;src/config&#45;utl -->
<g id="edge5" class="edge">
<title>src/cli&#45;&gt;src/config&#45;utl</title>
<path fill="none" stroke="#229999" stroke-width="2" stroke-dasharray="5,2" stroke-opacity="0.466667" d="M95,-170.53C95,-170.53 95,-167.41 95,-167.41"/>
<polygon fill="#229999" fill-opacity="0.466667" stroke="#229999" stroke-width="2" stroke-opacity="0.466667" points="97.1,-167.41 95,-161.41 92.9,-167.41 97.1,-167.41"/>
</g>
<!-- src/main -->
<g id="node8" class="node">
<title>src/main</title>
<g id="a_node8"><a xlink:href="https://github.com/sverweij/dependency-cruiser/blob/develop/src/main" xlink:title="main">
<polygon fill="#ffcccc" stroke="black" points="152,-127 100,-127 98,-125 98,-109 150,-109 152,-111 152,-127"/>
<polyline fill="none" stroke="black" points="150,-125 98,-125"/>
<polyline fill="none" stroke="black" points="150,-125 150,-109"/>
<polyline fill="none" stroke="black" points="150,-125 152,-127"/>
<text text-anchor="start" x="114.5" y="-115.8" font-family="Helvetica,sans-Serif" font-size="9.00">main</text>
</a>
</g>
</g>
<!-- src/cli&#45;&gt;src/main -->
<g id="edge6" class="edge">
<title>src/cli&#45;&gt;src/main</title>
<path fill="none" stroke="#770000" stroke-width="2" stroke-opacity="0.466667" d="M122,-170.58C122,-170.58 122,-136.1 122,-136.1"/>
<polygon fill="#770000" fill-opacity="0.466667" stroke="#770000" stroke-width="2" stroke-opacity="0.466667" points="124.1,-136.1 122,-130.1 119.9,-136.1 124.1,-136.1"/>
</g>
<!-- src/cache -->
<g id="node3" class="node">
<title>src/cache</title>
<g id="a_node3"><a xlink:href="https://github.com/sverweij/dependency-cruiser/blob/develop/src/cache" xlink:title="cache">
<polygon fill="#ffffcc" stroke="black" points="192,-96 140,-96 138,-94 138,-78 190,-78 192,-80 192,-96"/>
<polyline fill="none" stroke="black" points="190,-94 138,-94"/>
<polyline fill="none" stroke="black" points="190,-94 190,-78"/>
<polyline fill="none" stroke="black" points="190,-94 192,-96"/>
<text text-anchor="start" x="152.5" y="-84.8" font-family="Helvetica,sans-Serif" font-size="9.00">cache</text>
</a>
</g>
</g>
<!-- src/cache&#45;&gt;src/extract -->
<g id="edge2" class="edge">
<title>src/cache&#45;&gt;src/extract</title>
<path fill="none" stroke="#007700" stroke-width="2" stroke-opacity="0.466667" d="M137.72,-87C122.97,-87 107.75,-87 107.75,-87 107.75,-87 107.75,-56 107.75,-56 107.75,-56 93.45,-56 93.45,-56"/>
<polygon fill="#007700" fill-opacity="0.466667" stroke="#007700" stroke-width="2" stroke-opacity="0.466667" points="93.45,-53.9 87.45,-56 93.45,-58.1 93.45,-53.9"/>
</g>
<!-- src/cache&#45;&gt;src/utl -->
<g id="edge3" class="edge">
<title>src/cache&#45;&gt;src/utl</title>
<path fill="none" stroke="#aaaaaa" stroke-width="2" stroke-opacity="0.466667" d="M190,-77.58C190,-77.58 190,-43.1 190,-43.1"/>
<polygon fill="#aaaaaa" fill-opacity="0.466667" stroke="#aaaaaa" stroke-width="2" stroke-opacity="0.466667" points="192.1,-43.1 190,-37.1 187.9,-43.1 192.1,-43.1"/>
</g>
<!-- src/graph&#45;utl -->
<g id="node6" class="node">
<title>src/graph&#45;utl</title>
<g id="a_node6"><a xlink:href="https://github.com/sverweij/dependency-cruiser/blob/develop/src/graph-utl" xlink:title="not&#45;unreachable&#45;from&#45;cli">
<polygon fill="#ffcccc" stroke="red" points="124,-34 72,-34 70,-32 70,-16 122,-16 124,-18 124,-34"/>
<polyline fill="none" stroke="red" points="122,-32 70,-32"/>
<polyline fill="none" stroke="red" points="122,-32 122,-16"/>
<polyline fill="none" stroke="red" points="122,-32 124,-34"/>
<text text-anchor="start" x="78.5" y="-22.8" font-family="Helvetica,sans-Serif" font-size="9.00" fill="red">graph&#45;utl</text>
</a>
</g>
</g>
<!-- src/cache&#45;&gt;src/graph&#45;utl -->
<g id="edge4" class="edge">
<title>src/cache&#45;&gt;src/graph&#45;utl</title>
<path fill="none" stroke="#770000" stroke-width="2" stroke-opacity="0.466667" d="M137.55,-82C125.59,-82 114.25,-82 114.25,-82 114.25,-82 114.25,-43.41 114.25,-43.41"/>
<polygon fill="#770000" fill-opacity="0.466667" stroke="#770000" stroke-width="2" stroke-opacity="0.466667" points="116.35,-43.41 114.25,-37.41 112.15,-43.41 116.35,-43.41"/>
</g>
<!-- src/extract&#45;&gt;src/utl -->
<g id="edge14" class="edge">
<title>src/extract&#45;&gt;src/utl</title>
<path fill="none" stroke="#aaaaaa" stroke-width="2" stroke-opacity="0.466667" d="M79.33,-46.51C79.33,-43.06 79.33,-40 79.33,-40 79.33,-40 186,-40 186,-40 186,-40 186,-39.42 186,-39.42"/>
<polygon fill="#aaaaaa" fill-opacity="0.466667" stroke="#aaaaaa" stroke-width="2" stroke-opacity="0.466667" points="188.1,-43.24 186,-37.24 183.9,-43.24 188.1,-43.24"/>
</g>
<!-- src/extract&#45;&gt;src/graph&#45;utl -->
<g id="edge15" class="edge">
<title>src/extract&#45;&gt;src/graph&#45;utl</title>
<path fill="none" stroke="#770000" stroke-width="2" stroke-opacity="0.466667" d="M74.67,-46.53C74.67,-46.53 74.67,-43.41 74.67,-43.41"/>
<polygon fill="#770000" fill-opacity="0.466667" stroke="#770000" stroke-width="2" stroke-opacity="0.466667" points="76.77,-43.41 74.67,-37.41 72.57,-43.41 76.77,-43.41"/>
</g>
<!-- src/config&#45;utl&#45;&gt;src/extract -->
<g id="edge9" class="edge">
<title>src/config&#45;utl&#45;&gt;src/extract</title>
<path fill="none" stroke="#007700" stroke-width="2" stroke-opacity="0.466667" d="M57.64,-149C47.92,-149 39.33,-149 39.33,-149 39.33,-149 39.33,-74.26 39.33,-74.26"/>
<polygon fill="#007700" fill-opacity="0.466667" stroke="#007700" stroke-width="2" stroke-opacity="0.466667" points="41.43,-74.26 39.33,-68.26 37.23,-74.26 41.43,-74.26"/>
</g>
<!-- src/config&#45;utl&#45;&gt;src/main -->
<g id="edge10" class="edge">
<title>src/config&#45;utl&#45;&gt;src/main</title>
<path fill="none" stroke="#770000" stroke-width="2" stroke-opacity="0.466667" d="M105,-139.53C105,-139.53 105,-136.41 105,-136.41"/>
<polygon fill="#770000" fill-opacity="0.466667" stroke="#770000" stroke-width="2" stroke-opacity="0.466667" points="107.1,-136.41 105,-130.41 102.9,-136.41 107.1,-136.41"/>
</g>
<!-- src/main&#45;&gt;src/cache -->
<g id="edge16" class="edge">
<title>src/main&#45;&gt;src/cache</title>
<path fill="none" stroke="#000000" stroke-width="2" stroke-dasharray="5,2" stroke-opacity="0.200000" d="M145,-108.53C145,-108.53 145,-105.41 145,-105.41"/>
<polygon fill="#000000" fill-opacity="0.200000" stroke="#000000" stroke-width="2" stroke-opacity="0.200000" points="147.1,-105.41 145,-99.41 142.9,-105.41 147.1,-105.41"/>
</g>
<!-- src/main&#45;&gt;src/extract -->
<g id="edge18" class="edge">
<title>src/main&#45;&gt;src/extract</title>
<path fill="none" stroke="#007700" stroke-width="2" stroke-dasharray="5,2" stroke-opacity="0.466667" d="M104.5,-108.68C104.5,-92.29 104.5,-60 104.5,-60 104.5,-60 93.36,-60 93.36,-60"/>
<polygon fill="#007700" fill-opacity="0.466667" stroke="#007700" stroke-width="2" stroke-opacity="0.466667" points="93.36,-57.9 87.36,-60 93.36,-62.1 93.36,-57.9"/>
</g>
<!-- src/main&#45;&gt;src/graph&#45;utl -->
<g id="edge20" class="edge">
<title>src/main&#45;&gt;src/graph&#45;utl</title>
<path fill="none" stroke="#770000" stroke-width="2" stroke-opacity="0.466667" d="M111,-108.74C111,-108.74 111,-43.5 111,-43.5"/>
<polygon fill="#770000" fill-opacity="0.466667" stroke="#770000" stroke-width="2" stroke-opacity="0.466667" points="113.1,-43.5 111,-37.5 108.9,-43.5 113.1,-43.5"/>
</g>
<!-- src/enrich -->
<g id="node9" class="node">
<title>src/enrich</title>
<g id="a_node9"><a xlink:href="https://github.com/sverweij/dependency-cruiser/blob/develop/src/enrich" xlink:title="enrich">
<polygon fill="#77eeaa" stroke="black" points="272,-96 220,-96 218,-94 218,-78 270,-78 272,-80 272,-96"/>
<polyline fill="none" stroke="black" points="270,-94 218,-94"/>
<polyline fill="none" stroke="black" points="270,-94 270,-78"/>
<polyline fill="none" stroke="black" points="270,-94 272,-96"/>
<text text-anchor="start" x="232" y="-84.8" font-family="Helvetica,sans-Serif" font-size="9.00">enrich</text>
</a>
</g>
</g>
<!-- src/main&#45;&gt;src/enrich -->
<g id="edge17" class="edge">
<title>src/main&#45;&gt;src/enrich</title>
<path fill="none" stroke="#007766" stroke-width="2" stroke-dasharray="5,2" stroke-opacity="0.466667" d="M152.23,-118C187.63,-118 245,-118 245,-118 245,-118 245,-105.47 245,-105.47"/>
<polygon fill="#007766" fill-opacity="0.466667" stroke="#007766" stroke-width="2" stroke-opacity="0.466667" points="247.1,-105.47 245,-99.47 242.9,-105.47 247.1,-105.47"/>
</g>
<!-- src/report -->
<g id="node11" class="node">
<title>src/report</title>
<g id="a_node11"><a xlink:href="https://github.com/sverweij/dependency-cruiser/blob/develop/src/report" xlink:title="report">
<polygon fill="#ffccff" stroke="black" points="178,-65 126,-65 124,-63 124,-47 176,-47 178,-49 178,-65"/>
<polyline fill="none" stroke="black" points="176,-63 124,-63"/>
<polyline fill="none" stroke="black" points="176,-63 176,-47"/>
<polyline fill="none" stroke="black" points="176,-63 178,-65"/>
<text text-anchor="start" x="138.5" y="-53.8" font-family="Helvetica,sans-Serif" font-size="9.00">report</text>
</a>
</g>
</g>
<!-- src/main&#45;&gt;src/report -->
<g id="edge19" class="edge">
<title>src/main&#45;&gt;src/report</title>
<path fill="none" stroke="#ff00ff" stroke-width="2" stroke-opacity="0.466667" d="M131,-108.58C131,-108.58 131,-74.1 131,-74.1"/>
<polygon fill="#ff00ff" fill-opacity="0.466667" stroke="#ff00ff" stroke-width="2" stroke-opacity="0.466667" points="133.1,-74.1 131,-68.1 128.9,-74.1 133.1,-74.1"/>
</g>
<!-- src/schema -->
<g id="node12" class="node">
<title>src/schema</title>
<g id="a_node12"><a xlink:href="https://github.com/sverweij/dependency-cruiser/blob/develop/src/schema" xlink:title="not&#45;unreachable&#45;from&#45;cli">
<polygon fill="#ccffcc" stroke="red" points="98,-96 46,-96 44,-94 44,-78 96,-78 98,-80 98,-96"/>
<polyline fill="none" stroke="red" points="96,-94 44,-94"/>
<polyline fill="none" stroke="red" points="96,-94 96,-78"/>
<polyline fill="none" stroke="red" points="96,-94 98,-96"/>
<text text-anchor="start" x="54.5" y="-84.8" font-family="Helvetica,sans-Serif" font-size="9.00" fill="red">schema</text>
</a>
</g>
</g>
<!-- src/main&#45;&gt;src/schema -->
<g id="edge21" class="edge">
<title>src/main&#45;&gt;src/schema</title>
<path fill="none" stroke="#000000" stroke-width="2" stroke-opacity="0.200000" d="M101.25,-108.56C101.25,-100.77 101.25,-91 101.25,-91 101.25,-91 100.97,-91 100.97,-91"/>
<polygon fill="#000000" fill-opacity="0.200000" stroke="#000000" stroke-width="2" stroke-opacity="0.200000" points="107.46,-88.9 101.46,-91 107.46,-93.1 107.46,-88.9"/>
</g>
<!-- src/enrich&#45;&gt;src/utl -->
<g id="edge13" class="edge">
<title>src/enrich&#45;&gt;src/utl</title>
<path fill="none" stroke="#aaaaaa" stroke-width="2" stroke-opacity="0.466667" d="M217.53,-87C208.16,-87 200,-87 200,-87 200,-87 200,-43.42 200,-43.42"/>
<polygon fill="#aaaaaa" fill-opacity="0.466667" stroke="#aaaaaa" stroke-width="2" stroke-opacity="0.466667" points="202.1,-43.42 200,-37.42 197.9,-43.42 202.1,-43.42"/>
</g>
<!-- src/enrich&#45;&gt;src/graph&#45;utl -->
<g id="edge12" class="edge">
<title>src/enrich&#45;&gt;src/graph&#45;utl</title>
<path fill="none" stroke="#770000" stroke-width="2" stroke-opacity="0.466667" d="M231.33,-77.51C231.33,-74.06 231.33,-71 231.33,-71 231.33,-71 117.5,-71 117.5,-71 117.5,-71 117.5,-43.31 117.5,-43.31"/>
<polygon fill="#770000" fill-opacity="0.466667" stroke="#770000" stroke-width="2" stroke-opacity="0.466667" points="119.6,-43.31 117.5,-37.31 115.4,-43.31 119.6,-43.31"/>
</g>
<!-- src/validate -->
<g id="node10" class="node">
<title>src/validate</title>
<g id="a_node10"><a xlink:href="https://github.com/sverweij/dependency-cruiser/blob/develop/src/validate" xlink:title="validate">
<polygon fill="#ccccff" stroke="black" points="258,-65 206,-65 204,-63 204,-47 256,-47 258,-49 258,-65"/>
<polyline fill="none" stroke="black" points="256,-63 204,-63"/>
<polyline fill="none" stroke="black" points="256,-63 256,-47"/>
<polyline fill="none" stroke="black" points="256,-63 258,-65"/>
<text text-anchor="start" x="214.5" y="-53.8" font-family="Helvetica,sans-Serif" font-size="9.00">validate</text>
</a>
</g>
</g>
<!-- src/enrich&#45;&gt;src/validate -->
<g id="edge11" class="edge">
<title>src/enrich&#45;&gt;src/validate</title>
<path fill="none" stroke="#0000ff" stroke-width="2" stroke-opacity="0.466667" d="M244.67,-77.53C244.67,-77.53 244.67,-74.41 244.67,-74.41"/>
<polygon fill="#0000ff" fill-opacity="0.466667" stroke="#0000ff" stroke-width="2" stroke-opacity="0.466667" points="246.77,-74.41 244.67,-68.41 242.57,-74.41 246.77,-74.41"/>
</g>
<!-- src/validate&#45;&gt;src/utl -->
<g id="edge24" class="edge">
<title>src/validate&#45;&gt;src/utl</title>
<path fill="none" stroke="#aaaaaa" stroke-width="2" stroke-opacity="0.466667" d="M221,-46.53C221,-46.53 221,-43.41 221,-43.41"/>
<polygon fill="#aaaaaa" fill-opacity="0.466667" stroke="#aaaaaa" stroke-width="2" stroke-opacity="0.466667" points="223.1,-43.41 221,-37.41 218.9,-43.41 223.1,-43.41"/>
</g>
<!-- src/report&#45;&gt;src/utl -->
<g id="edge23" class="edge">
<title>src/report&#45;&gt;src/utl</title>
<path fill="none" stroke="#aaaaaa" stroke-width="2" stroke-opacity="0.466667" d="M178.28,-56C183.82,-56 188,-56 188,-56 188,-56 188,-43.47 188,-43.47"/>
<polygon fill="#aaaaaa" fill-opacity="0.466667" stroke="#aaaaaa" stroke-width="2" stroke-opacity="0.466667" points="190.1,-43.47 188,-37.47 185.9,-43.47 190.1,-43.47"/>
</g>
<!-- src/report&#45;&gt;src/graph&#45;utl -->
<g id="edge22" class="edge">
<title>src/report&#45;&gt;src/graph&#45;utl</title>
<path fill="none" stroke="#770000" stroke-width="2" stroke-opacity="0.466667" d="M123.54,-51C121.81,-51 120.75,-51 120.75,-51 120.75,-51 120.75,-43.39 120.75,-43.39"/>
<polygon fill="#770000" fill-opacity="0.466667" stroke="#770000" stroke-width="2" stroke-opacity="0.466667" points="122.85,-43.39 120.75,-37.39 118.65,-43.39 122.85,-43.39"/>
</g>
</g>
</svg>
