<?xml version="1.0" encoding="UTF-8" standalone="no"?>
<!DOCTYPE svg PUBLIC "-//W3C//DTD SVG 1.1//EN"
 "http://www.w3.org/Graphics/SVG/1.1/DTD/svg11.dtd">
<!-- Generated by graphviz version 2.42.3 (20191010.1750)
 -->
<!-- Title: dependency&#45;cruiser output Pages: 1 -->
<svg width="981pt" height="391pt"
 viewBox="0.00 0.00 981.00 390.90" xmlns="http://www.w3.org/2000/svg" xmlns:xlink="http://www.w3.org/1999/xlink">
<g id="graph0" class="graph" transform="scale(1 1) rotate(0) translate(4 386.9)">
<title>dependency&#45;cruiser output</title>
<polygon fill="white" stroke="transparent" points="-4,4 -4,-386.9 977,-386.9 977,4 -4,4"/>
<g id="clust1" class="cluster">
<title>cluster_src</title>
<path fill="#ffffff" stroke="black" stroke-width="2" d="M20,-8C20,-8 953,-8 953,-8 959,-8 965,-14 965,-20 965,-20 965,-345.9 965,-345.9 965,-351.9 959,-357.9 953,-357.9 953,-357.9 20,-357.9 20,-357.9 14,-357.9 8,-351.9 8,-345.9 8,-345.9 8,-20 8,-20 8,-14 14,-8 20,-8"/>
<text text-anchor="middle" x="486.5" y="-346.7" font-family="Helvetica,sans-Serif" font-weight="bold" font-size="9.00">src</text>
</g>
<g id="clust6" class="cluster">
<title>cluster_src/main</title>
<path fill="#ffffff" stroke="black" stroke-width="2" d="M118,-138.3C118,-138.3 347,-138.3 347,-138.3 353,-138.3 359,-144.3 359,-150.3 359,-150.3 359,-270.9 359,-270.9 359,-276.9 353,-282.9 347,-282.9 347,-282.9 118,-282.9 118,-282.9 112,-282.9 106,-276.9 106,-270.9 106,-270.9 106,-150.3 106,-150.3 106,-144.3 112,-138.3 118,-138.3"/>
<text text-anchor="middle" x="232.5" y="-271.7" font-family="Helvetica,sans-Serif" font-weight="bold" font-size="9.00">main</text>
</g>
<g id="clust2" class="cluster">
<title>cluster_src/cli</title>
<path fill="#ffffff" stroke="black" stroke-width="2" d="M379,-239.6C379,-239.6 577,-239.6 577,-239.6 583,-239.6 589,-245.6 589,-251.6 589,-251.6 589,-320.9 589,-320.9 589,-326.9 583,-332.9 577,-332.9 577,-332.9 379,-332.9 379,-332.9 373,-332.9 367,-326.9 367,-320.9 367,-320.9 367,-251.6 367,-251.6 367,-245.6 373,-239.6 379,-239.6"/>
<text text-anchor="middle" x="478" y="-321.7" font-family="Helvetica,sans-Serif" font-weight="bold" font-size="9.00">cli</text>
</g>
<g id="clust3" class="cluster">
<title>cluster_src/extract</title>
<path fill="#ffffff" stroke="black" stroke-width="2" d="M399,-79C399,-79 945,-79 945,-79 951,-79 957,-85 957,-91 957,-91 957,-219.6 957,-219.6 957,-225.6 951,-231.6 945,-231.6 945,-231.6 399,-231.6 399,-231.6 393,-231.6 387,-225.6 387,-219.6 387,-219.6 387,-91 387,-91 387,-85 393,-79 399,-79"/>
<text text-anchor="middle" x="672" y="-220.4" font-family="Helvetica,sans-Serif" font-weight="bold" font-size="9.00">extract</text>
</g>
<g id="clust4" class="cluster">
<title>cluster_src/extract/derive</title>
<path fill="#ffffff" stroke="black" stroke-width="2" d="M593,-138.3C593,-138.3 789,-138.3 789,-138.3 795,-138.3 801,-144.3 801,-150.3 801,-150.3 801,-176.3 801,-176.3 801,-182.3 795,-188.3 789,-188.3 789,-188.3 593,-188.3 593,-188.3 587,-188.3 581,-182.3 581,-176.3 581,-176.3 581,-150.3 581,-150.3 581,-144.3 587,-138.3 593,-138.3"/>
<text text-anchor="middle" x="691" y="-177.1" font-family="Helvetica,sans-Serif" font-weight="bold" font-size="9.00">derive</text>
</g>
<g id="clust5" class="cluster">
<title>cluster_src/extract/resolve</title>
<path fill="#ffffff" stroke="black" stroke-width="2" d="M821,-87C821,-87 937,-87 937,-87 943,-87 949,-93 949,-99 949,-99 949,-169.6 949,-169.6 949,-175.6 943,-181.6 937,-181.6 937,-181.6 821,-181.6 821,-181.6 815,-181.6 809,-175.6 809,-169.6 809,-169.6 809,-99 809,-99 809,-93 815,-87 821,-87"/>
<text text-anchor="middle" x="879" y="-170.4" font-family="Helvetica,sans-Serif" font-weight="bold" font-size="9.00">resolve</text>
</g>
<g id="clust7" class="cluster">
<title>cluster_src/report</title>
<path fill="#ffffff" stroke="black" stroke-width="2" d="M30,-16C30,-16 290,-16 290,-16 296,-16 302,-22 302,-28 302,-28 302,-118.3 302,-118.3 302,-124.3 296,-130.3 290,-130.3 290,-130.3 30,-130.3 30,-130.3 24,-130.3 18,-124.3 18,-118.3 18,-118.3 18,-28 18,-28 18,-22 24,-16 30,-16"/>
<text text-anchor="middle" x="160" y="-119.1" font-family="Helvetica,sans-Serif" font-weight="bold" font-size="9.00">report</text>
</g>
<!-- bin -->
<g id="node1" class="node">
<title>bin</title>
<g id="a_node1"><a xlink:href="https://github.com/sverweij/dependency-cruiser/blob/develop/bin" xlink:title="bin">
<polygon fill="#ffffcc" stroke="black" points="494,-382.9 441.89,-382.9 440,-381.01 440,-365.9 492.11,-365.9 494,-367.79 494,-382.9"/>
<polyline fill="none" stroke="black" points="492.11,-381.01 440,-381.01 "/>
<polyline fill="none" stroke="black" points="492.11,-381.01 492.11,-365.9 "/>
<polyline fill="none" stroke="black" points="492.11,-381.01 494,-382.9 "/>
<text text-anchor="middle" x="467" y="-371.7" font-family="Helvetica,sans-Serif" font-size="9.00">bin</text>
</a>
</g>
</g>
<!-- src/cli -->
<!-- bin&#45;&gt;src/cli -->
<g id="edge1" class="edge">
<title>bin&#45;&gt;src/cli</title>
<path fill="none" stroke="#0000ff" stroke-width="2" stroke-opacity="0.466667" d="M488.6,-365.8C488.6,-365.8 488.6,-307.44 488.6,-307.44"/>
<polygon fill="#0000ff" fill-opacity="0.466667" stroke="#0000ff" stroke-width="2" stroke-opacity="0.466667" points="490.7,-307.44 488.6,-301.44 486.5,-307.45 490.7,-307.44"/>
</g>
<!-- src/cli/tools -->
<g id="node3" class="node">
<title>src/cli/tools</title>
<g id="a_node3"><a xlink:href="https://github.com/sverweij/dependency-cruiser/blob/develop/src/cli/tools" xlink:title="tools">
<polygon fill="#ccccff" stroke="black" points="474,-307.9 421.89,-307.9 420,-306.01 420,-290.9 472.11,-290.9 474,-292.79 474,-307.9"/>
<polyline fill="none" stroke="black" points="472.11,-306.01 420,-306.01 "/>
<polyline fill="none" stroke="black" points="472.11,-306.01 472.11,-290.9 "/>
<polyline fill="none" stroke="black" points="472.11,-306.01 474,-307.9 "/>
<text text-anchor="middle" x="447" y="-296.7" font-family="Helvetica,sans-Serif" font-size="9.00">tools</text>
</a>
</g>
</g>
<!-- bin&#45;&gt;src/cli/tools -->
<g id="edge2" class="edge">
<title>bin&#45;&gt;src/cli/tools</title>
<path fill="none" stroke="#0000ff" stroke-width="2" stroke-opacity="0.466667" d="M457,-365.8C457,-365.8 457,-313.9 457,-313.9"/>
<polygon fill="#0000ff" fill-opacity="0.466667" stroke="#0000ff" stroke-width="2" stroke-opacity="0.466667" points="459.1,-313.9 457,-307.9 454.9,-313.9 459.1,-313.9"/>
</g>
<!-- src/main -->
<!-- src/cli&#45;&gt;src/main -->
<g id="edge3" class="edge">
<title>src/cli&#45;&gt;src/main</title>
<path fill="none" stroke="#770000" stroke-width="2" stroke-opacity="0.466667" d="M487.4,-301.37C487.4,-308.97 487.4,-336 487.4,-336 487.4,-336 180.4,-336 180.4,-336 180.4,-336 180.4,-264.08 180.4,-264.08"/>
<polygon fill="#770000" fill-opacity="0.466667" stroke="#770000" stroke-width="2" stroke-opacity="0.466667" points="182.5,-264.08 180.4,-258.08 178.3,-264.08 182.5,-264.08"/>
</g>
<!-- src/cli/utl -->
<g id="node6" class="node">
<title>src/cli/utl</title>
<g id="a_node6"><a xlink:href="https://github.com/sverweij/dependency-cruiser/blob/develop/src/cli/utl" xlink:title="utl">
<polygon fill="#ccccff" stroke="black" points="581,-264.6 528.89,-264.6 527,-262.71 527,-247.6 579.11,-247.6 581,-249.49 581,-264.6"/>
<polyline fill="none" stroke="black" points="579.11,-262.71 527,-262.71 "/>
<polyline fill="none" stroke="black" points="579.11,-262.71 579.11,-247.6 "/>
<polyline fill="none" stroke="black" points="579.11,-262.71 581,-264.6 "/>
<text text-anchor="middle" x="554" y="-253.4" font-family="Helvetica,sans-Serif" font-size="9.00">utl</text>
</a>
</g>
</g>
<!-- src/cli&#45;&gt;src/cli/utl -->
<g id="edge4" class="edge">
<title>src/cli&#45;&gt;src/cli/utl</title>
<path fill="none" stroke="#0000ff" stroke-width="2" stroke-opacity="0.466667" d="M489.9,-299C500.73,-299 554,-299 554,-299 554,-299 554,-270.78 554,-270.78"/>
<polygon fill="#0000ff" fill-opacity="0.466667" stroke="#0000ff" stroke-width="2" stroke-opacity="0.466667" points="556.1,-270.78 554,-264.78 551.9,-270.78 556.1,-270.78"/>
</g>
<!-- src/cli/compile&#45;config -->
<g id="node7" class="node">
<title>src/cli/compile&#45;config</title>
<g id="a_node7"><a xlink:href="https://github.com/sverweij/dependency-cruiser/blob/develop/src/cli/compile-config" xlink:title="compile&#45;config">
<polygon fill="#ccccff" stroke="black" points="449.03,-264.6 376.86,-264.6 374.97,-262.71 374.97,-247.6 447.14,-247.6 449.03,-249.49 449.03,-264.6"/>
<polyline fill="none" stroke="black" points="447.14,-262.71 374.97,-262.71 "/>
<polyline fill="none" stroke="black" points="447.14,-262.71 447.14,-247.6 "/>
<polyline fill="none" stroke="black" points="447.14,-262.71 449.03,-264.6 "/>
<text text-anchor="middle" x="412" y="-253.4" font-family="Helvetica,sans-Serif" font-size="9.00">compile&#45;config</text>
</a>
</g>
</g>
<!-- src/cli&#45;&gt;src/cli/compile&#45;config -->
<g id="edge5" class="edge">
<title>src/cli&#45;&gt;src/cli/compile&#45;config</title>
<path fill="none" stroke="#0000ff" stroke-width="2" stroke-opacity="0.466667" d="M487.4,-297.67C487.4,-291.79 487.4,-273 487.4,-273 487.4,-273 434.51,-273 434.51,-273 434.51,-273 434.51,-270.95 434.51,-270.95"/>
<polygon fill="#0000ff" fill-opacity="0.466667" stroke="#0000ff" stroke-width="2" stroke-opacity="0.466667" points="436.61,-270.95 434.51,-264.95 432.41,-270.95 436.61,-270.95"/>
</g>
<!-- src/cli/init&#45;config -->
<g id="node8" class="node">
<title>src/cli/init&#45;config</title>
<g id="a_node8"><a xlink:href="https://github.com/sverweij/dependency-cruiser/blob/develop/src/cli/init-config" xlink:title="init&#45;config">
<polygon fill="#ccccff" stroke="black" points="515.02,-264.6 462.87,-264.6 460.98,-262.71 460.98,-247.6 513.13,-247.6 515.02,-249.49 515.02,-264.6"/>
<polyline fill="none" stroke="black" points="513.13,-262.71 460.98,-262.71 "/>
<polyline fill="none" stroke="black" points="513.13,-262.71 513.13,-247.6 "/>
<polyline fill="none" stroke="black" points="513.13,-262.71 515.02,-264.6 "/>
<text text-anchor="middle" x="488" y="-253.4" font-family="Helvetica,sans-Serif" font-size="9.00">init&#45;config</text>
</a>
</g>
</g>
<!-- src/cli&#45;&gt;src/cli/init&#45;config -->
<g id="edge6" class="edge">
<title>src/cli&#45;&gt;src/cli/init&#45;config</title>
<path fill="none" stroke="#0000ff" stroke-width="2" stroke-opacity="0.466667" d="M486.17,-299C483.83,-299 480.1,-299 480.1,-299 480.1,-299 480.1,-270.78 480.1,-270.78"/>
<polygon fill="#0000ff" fill-opacity="0.466667" stroke="#0000ff" stroke-width="2" stroke-opacity="0.466667" points="482.2,-270.78 480.1,-264.78 478,-270.78 482.2,-270.78"/>
</g>
<!-- src -->
<!-- src/main/resolve&#45;options -->
<g id="node10" class="node">
<title>src/main/resolve&#45;options</title>
<g id="a_node10"><a xlink:href="https://github.com/sverweij/dependency-cruiser/blob/develop/src/main/resolve-options" xlink:title="resolve&#45;options">
<polygon fill="#ffcccc" stroke="black" points="350.53,-213.3 275.36,-213.3 273.47,-211.41 273.47,-196.3 348.64,-196.3 350.53,-198.19 350.53,-213.3"/>
<polyline fill="none" stroke="black" points="348.64,-211.41 273.47,-211.41 "/>
<polyline fill="none" stroke="black" points="348.64,-211.41 348.64,-196.3 "/>
<polyline fill="none" stroke="black" points="348.64,-211.41 350.53,-213.3 "/>
<text text-anchor="middle" x="312" y="-202.1" font-family="Helvetica,sans-Serif" font-size="9.00">resolve&#45;options</text>
</a>
</g>
</g>
<!-- src/main&#45;&gt;src/main/resolve&#45;options -->
<g id="edge31" class="edge">
<title>src/main&#45;&gt;src/main/resolve&#45;options</title>
<path fill="none" stroke="#770000" stroke-width="2" stroke-opacity="0.466667" d="M181.6,-257.8C181.6,-263.56 181.6,-282 181.6,-282 181.6,-282 312,-282 312,-282 312,-282 312,-219.36 312,-219.36"/>
<polygon fill="#770000" fill-opacity="0.466667" stroke="#770000" stroke-width="2" stroke-opacity="0.466667" points="314.1,-219.36 312,-213.36 309.9,-219.36 314.1,-219.36"/>
</g>
<!-- src/extract -->
<!-- src/main&#45;&gt;src/extract -->
<g id="edge25" class="edge">
<title>src/main&#45;&gt;src/extract</title>
<path fill="none" stroke="#007700" stroke-width="2" stroke-opacity="0.466667" d="M179.21,-257C161.75,-257 22,-257 22,-257 22,-257 22,-239 22,-239 22,-239 530.07,-239 530.07,-239 530.07,-239 530.07,-206 530.07,-206 530.07,-206 530.71,-206 530.71,-206"/>
<polygon fill="#007700" fill-opacity="0.466667" stroke="#007700" stroke-width="2" stroke-opacity="0.466667" points="530.47,-208.1 536.47,-206 530.47,-203.9 530.47,-208.1"/>
</g>
<!-- src/extract/transpile -->
<g id="node19" class="node">
<title>src/extract/transpile</title>
<g id="a_node19"><a xlink:href="https://github.com/sverweij/dependency-cruiser/blob/develop/src/extract/transpile" xlink:title="transpile">
<polygon fill="#ccffcc" stroke="black" points="477,-112 424.89,-112 423,-110.11 423,-95 475.11,-95 477,-96.89 477,-112"/>
<polyline fill="none" stroke="black" points="475.11,-110.11 423,-110.11 "/>
<polyline fill="none" stroke="black" points="475.11,-110.11 475.11,-95 "/>
<polyline fill="none" stroke="black" points="475.11,-110.11 477,-112 "/>
<text text-anchor="middle" x="450" y="-100.8" font-family="Helvetica,sans-Serif" font-size="9.00">transpile</text>
</a>
</g>
</g>
<!-- src/main&#45;&gt;src/extract/transpile -->
<g id="edge26" class="edge">
<title>src/main&#45;&gt;src/extract/transpile</title>
<path fill="none" stroke="#007700" stroke-width="2" stroke-opacity="0.466667" d="M183,-256C202.52,-256 358.67,-256 358.67,-256 358.67,-256 358.67,-137 358.67,-137 358.67,-137 451.17,-137 451.17,-137 451.17,-137 451.17,-118.3 451.17,-118.3"/>
<polygon fill="#007700" fill-opacity="0.466667" stroke="#007700" stroke-width="2" stroke-opacity="0.466667" points="453.27,-118.3 451.17,-112.3 449.07,-118.3 453.27,-118.3"/>
</g>
<!-- src/report -->
<!-- src/main&#45;&gt;src/report -->
<g id="edge27" class="edge">
<title>src/main&#45;&gt;src/report</title>
<path fill="none" stroke="#ff00ff" stroke-width="2" stroke-opacity="0.466667" d="M181.9,-254.18C181.9,-237.63 181.9,-120 181.9,-120 181.9,-120 137.6,-120 137.6,-120 137.6,-120 137.6,-111.27 137.6,-111.27"/>
<polygon fill="#ff00ff" fill-opacity="0.466667" stroke="#ff00ff" stroke-width="2" stroke-opacity="0.466667" points="139.7,-111.27 137.6,-105.27 135.5,-111.27 139.7,-111.27"/>
</g>
<!-- src/schema -->
<g id="node24" class="node">
<title>src/schema</title>
<g id="a_node24"><a xlink:href="https://github.com/sverweij/dependency-cruiser/blob/develop/src/schema" xlink:title="schema">
<polygon fill="#ffffcc" stroke="black" points="98,-163.3 45.89,-163.3 44,-161.41 44,-146.3 96.11,-146.3 98,-148.19 98,-163.3"/>
<polyline fill="none" stroke="black" points="96.11,-161.41 44,-161.41 "/>
<polyline fill="none" stroke="black" points="96.11,-161.41 96.11,-146.3 "/>
<polyline fill="none" stroke="black" points="96.11,-161.41 98,-163.3 "/>
<text text-anchor="middle" x="71" y="-152.1" font-family="Helvetica,sans-Serif" font-size="9.00">schema</text>
</a>
</g>
</g>
<!-- src/main&#45;&gt;src/schema -->
<g id="edge28" class="edge">
<title>src/main&#45;&gt;src/schema</title>
<path fill="none" stroke="#000000" stroke-width="2" stroke-opacity="0.200000" d="M178.93,-256C163.13,-256 62,-256 62,-256 62,-256 62,-169.43 62,-169.43"/>
<polygon fill="#000000" fill-opacity="0.200000" stroke="#000000" stroke-width="2" stroke-opacity="0.200000" points="64.1,-169.43 62,-163.43 59.9,-169.43 64.1,-169.43"/>
</g>
<!-- src/main/files&#45;and&#45;dirs -->
<g id="node25" class="node">
<title>src/main/files&#45;and&#45;dirs</title>
<g id="a_node25"><a xlink:href="https://github.com/sverweij/dependency-cruiser/blob/develop/src/main/files-and-dirs" xlink:title="files&#45;and&#45;dirs">
<polygon fill="#ffcccc" stroke="black" points="261.52,-213.3 196.37,-213.3 194.48,-211.41 194.48,-196.3 259.63,-196.3 261.52,-198.19 261.52,-213.3"/>
<polyline fill="none" stroke="black" points="259.63,-211.41 194.48,-211.41 "/>
<polyline fill="none" stroke="black" points="259.63,-211.41 259.63,-196.3 "/>
<polyline fill="none" stroke="black" points="259.63,-211.41 261.52,-213.3 "/>
<text text-anchor="middle" x="228" y="-202.1" font-family="Helvetica,sans-Serif" font-size="9.00">files&#45;and&#45;dirs</text>
</a>
</g>
</g>
<!-- src/main&#45;&gt;src/main/files&#45;and&#45;dirs -->
<g id="edge29" class="edge">
<title>src/main&#45;&gt;src/main/files&#45;and&#45;dirs</title>
<path fill="none" stroke="#770000" stroke-width="2" stroke-opacity="0.466667" d="M182.56,-255C190.72,-255 228,-255 228,-255 228,-255 228,-219.54 228,-219.54"/>
<polygon fill="#770000" fill-opacity="0.466667" stroke="#770000" stroke-width="2" stroke-opacity="0.466667" points="230.1,-219.54 228,-213.54 225.9,-219.54 230.1,-219.54"/>
</g>
<!-- src/main/options -->
<g id="node26" class="node">
<title>src/main/options</title>
<g id="a_node26"><a xlink:href="https://github.com/sverweij/dependency-cruiser/blob/develop/src/main/options" xlink:title="options">
<polygon fill="#ffcccc" stroke="black" points="168,-163.3 115.89,-163.3 114,-161.41 114,-146.3 166.11,-146.3 168,-148.19 168,-163.3"/>
<polyline fill="none" stroke="black" points="166.11,-161.41 114,-161.41 "/>
<polyline fill="none" stroke="black" points="166.11,-161.41 166.11,-146.3 "/>
<polyline fill="none" stroke="black" points="166.11,-161.41 168,-163.3 "/>
<text text-anchor="middle" x="141" y="-152.1" font-family="Helvetica,sans-Serif" font-size="9.00">options</text>
</a>
</g>
</g>
<!-- src/main&#45;&gt;src/main/options -->
<g id="edge30" class="edge">
<title>src/main&#45;&gt;src/main/options</title>
<path fill="none" stroke="#770000" stroke-width="2" stroke-opacity="0.466667" d="M179.52,-255C169.32,-255 110,-255 110,-255 110,-255 110,-154 110,-154 110,-154 110.38,-154 110.38,-154"/>
<polygon fill="#770000" fill-opacity="0.466667" stroke="#770000" stroke-width="2" stroke-opacity="0.466667" points="107.8,-156.1 113.8,-154 107.8,-151.9 107.8,-156.1"/>
</g>
<!-- src/main/rule&#45;set -->
<g id="node27" class="node">
<title>src/main/rule&#45;set</title>
<g id="a_node27"><a xlink:href="https://github.com/sverweij/dependency-cruiser/blob/develop/src/main/rule-set" xlink:title="rule&#45;set">
<polygon fill="#ffcccc" stroke="black" points="168,-213.3 115.89,-213.3 114,-211.41 114,-196.3 166.11,-196.3 168,-198.19 168,-213.3"/>
<polyline fill="none" stroke="black" points="166.11,-211.41 114,-211.41 "/>
<polyline fill="none" stroke="black" points="166.11,-211.41 166.11,-196.3 "/>
<polyline fill="none" stroke="black" points="166.11,-211.41 168,-213.3 "/>
<text text-anchor="middle" x="141" y="-202.1" font-family="Helvetica,sans-Serif" font-size="9.00">rule&#45;set</text>
</a>
</g>
</g>
<!-- src/main&#45;&gt;src/main/rule&#45;set -->
<g id="edge32" class="edge">
<title>src/main&#45;&gt;src/main/rule&#45;set</title>
<path fill="none" stroke="#770000" stroke-width="2" stroke-opacity="0.466667" d="M181,-253.86C181,-243.89 181,-204 181,-204 181,-204 174.34,-204 174.34,-204"/>
<polygon fill="#770000" fill-opacity="0.466667" stroke="#770000" stroke-width="2" stroke-opacity="0.466667" points="174.34,-201.9 168.34,-204 174.34,-206.1 174.34,-201.9"/>
</g>
<!-- src/extract/resolve -->
<!-- src/cli/compile&#45;config&#45;&gt;src/extract/resolve -->
<g id="edge7" class="edge">
<title>src/cli/compile&#45;config&#45;&gt;src/extract/resolve</title>
<g id="a_edge7"><a xlink:title="cli&#45;to&#45;main&#45;only&#45;warn">
<path fill="none" stroke="orange" stroke-width="2" d="M412.83,-247.33C412.83,-229.14 412.83,-189 412.83,-189 412.83,-189 959.28,-189 959.28,-189 959.28,-189 959.28,-154 959.28,-154 959.28,-154 826.98,-154 826.98,-154"/>
<polygon fill="orange" stroke="orange" stroke-width="2" points="826.98,-151.9 820.98,-154 826.98,-156.1 826.98,-151.9"/>
</a>
</g>
<text text-anchor="middle" x="698.79" y="-190.8" font-family="Helvetica,sans-Serif" font-size="9.00" fill="orange">cli&#45;to&#45;main&#45;only&#45;warn</text>
</g>
<!-- src/cli/compile&#45;config&#45;&gt;src/main/resolve&#45;options -->
<g id="edge8" class="edge">
<title>src/cli/compile&#45;config&#45;&gt;src/main/resolve&#45;options</title>
<path fill="none" stroke="#770000" stroke-width="2" stroke-opacity="0.466667" d="M386.87,-247.33C386.87,-232.25 386.87,-203 386.87,-203 386.87,-203 356.75,-203 356.75,-203"/>
<polygon fill="#770000" fill-opacity="0.466667" stroke="#770000" stroke-width="2" stroke-opacity="0.466667" points="356.75,-200.9 350.75,-203 356.75,-205.1 356.75,-200.9"/>
</g>
<!-- src/cli/init&#45;config&#45;&gt;src/cli -->
<g id="edge9" class="edge">
<title>src/cli/init&#45;config&#45;&gt;src/cli</title>
<path fill="none" stroke="#0000ff" stroke-width="2" stroke-opacity="0.466667" d="M488.6,-264.86C488.6,-264.86 488.6,-291.62 488.6,-291.62"/>
<polygon fill="#0000ff" fill-opacity="0.466667" stroke="#0000ff" stroke-width="2" stroke-opacity="0.466667" points="486.5,-291.62 488.6,-297.62 490.7,-291.62 486.5,-291.62"/>
</g>
<!-- src/extract/utl -->
<g id="node15" class="node">
<title>src/extract/utl</title>
<g id="a_node15"><a xlink:href="https://github.com/sverweij/dependency-cruiser/blob/develop/src/extract/utl" xlink:title="utl">
<polygon fill="#ccffcc" stroke="black" points="585,-112 532.89,-112 531,-110.11 531,-95 583.11,-95 585,-96.89 585,-112"/>
<polyline fill="none" stroke="black" points="583.11,-110.11 531,-110.11 "/>
<polyline fill="none" stroke="black" points="583.11,-110.11 583.11,-95 "/>
<polyline fill="none" stroke="black" points="583.11,-110.11 585,-112 "/>
<text text-anchor="middle" x="558" y="-100.8" font-family="Helvetica,sans-Serif" font-size="9.00">utl</text>
</a>
</g>
</g>
<!-- src/extract/resolve&#45;&gt;src/extract/utl -->
<g id="edge23" class="edge">
<title>src/extract/resolve&#45;&gt;src/extract/utl</title>
<path fill="none" stroke="#007700" stroke-width="2" stroke-opacity="0.466667" d="M817.25,-154C813.44,-154 804.74,-154 804.74,-154 804.74,-154 804.74,-103 804.74,-103 804.74,-103 591.35,-103 591.35,-103"/>
<polygon fill="#007700" fill-opacity="0.466667" stroke="#007700" stroke-width="2" stroke-opacity="0.466667" points="591.35,-100.9 585.35,-103 591.35,-105.1 591.35,-100.9"/>
</g>
<!-- src/extract/resolve/get&#45;manifest&#45;dependencies -->
<g id="node18" class="node">
<title>src/extract/resolve/get&#45;manifest&#45;dependencies</title>
<g id="a_node18"><a xlink:href="https://github.com/sverweij/dependency-cruiser/blob/develop/src/extract/resolve/get-manifest-dependencies" xlink:title="get&#45;manifest&#45;dependencies">
<polygon fill="#ccffcc" stroke="black" points="941.07,-112 818.82,-112 816.93,-110.11 816.93,-95 939.18,-95 941.07,-96.89 941.07,-112"/>
<polyline fill="none" stroke="black" points="939.18,-110.11 816.93,-110.11 "/>
<polyline fill="none" stroke="black" points="939.18,-110.11 939.18,-95 "/>
<polyline fill="none" stroke="black" points="939.18,-110.11 941.07,-112 "/>
<text text-anchor="middle" x="879" y="-100.8" font-family="Helvetica,sans-Serif" font-size="9.00">get&#45;manifest&#45;dependencies</text>
</a>
</g>
</g>
<!-- src/extract/resolve&#45;&gt;src/extract/resolve/get&#45;manifest&#45;dependencies -->
<g id="edge24" class="edge">
<title>src/extract/resolve&#45;&gt;src/extract/resolve/get&#45;manifest&#45;dependencies</title>
<path fill="none" stroke="#007700" stroke-width="2" stroke-opacity="0.466667" d="M819,-152.6C819,-152.6 819,-118.09 819,-118.09"/>
<polygon fill="#007700" fill-opacity="0.466667" stroke="#007700" stroke-width="2" stroke-opacity="0.466667" points="821.1,-118.09 819,-112.09 816.9,-118.09 821.1,-118.09"/>
</g>
<!-- src/main/resolve&#45;options&#45;&gt;src/extract/transpile -->
<g id="edge34" class="edge">
<title>src/main/resolve&#45;options&#45;&gt;src/extract/transpile</title>
<path fill="none" stroke="#007700" stroke-width="2" stroke-opacity="0.466667" d="M337.76,-196.1C337.76,-176.19 337.76,-129 337.76,-129 337.76,-129 437.09,-129 437.09,-129 437.09,-129 437.09,-118.13 437.09,-118.13"/>
<polygon fill="#007700" fill-opacity="0.466667" stroke="#007700" stroke-width="2" stroke-opacity="0.466667" points="439.19,-118.13 437.09,-112.13 434.99,-118.13 439.19,-118.13"/>
</g>
<!-- src/extract&#45;&gt;src/extract/resolve -->
<g id="edge17" class="edge">
<title>src/extract&#45;&gt;src/extract/resolve</title>
<path fill="none" stroke="#007700" stroke-width="2" stroke-opacity="0.466667" d="M537.4,-206.78C537.4,-212.72 537.4,-230 537.4,-230 537.4,-230 819,-230 819,-230 819,-230 819,-162.66 819,-162.66"/>
<polygon fill="#007700" fill-opacity="0.466667" stroke="#007700" stroke-width="2" stroke-opacity="0.466667" points="821.1,-162.66 819,-156.66 816.9,-162.66 821.1,-162.66"/>
</g>
<!-- src/extract/derive/circular -->
<g id="node12" class="node">
<title>src/extract/derive/circular</title>
<g id="a_node12"><a xlink:href="https://github.com/sverweij/dependency-cruiser/blob/develop/src/extract/derive/circular" xlink:title="circular">
<polygon fill="#ccffcc" stroke="black" points="725,-163.3 672.89,-163.3 671,-161.41 671,-146.3 723.11,-146.3 725,-148.19 725,-163.3"/>
<polyline fill="none" stroke="black" points="723.11,-161.41 671,-161.41 "/>
<polyline fill="none" stroke="black" points="723.11,-161.41 723.11,-146.3 "/>
<polyline fill="none" stroke="black" points="723.11,-161.41 725,-163.3 "/>
<text text-anchor="middle" x="698" y="-152.1" font-family="Helvetica,sans-Serif" font-size="9.00">circular</text>
</a>
</g>
</g>
<!-- src/extract&#45;&gt;src/extract/derive/circular -->
<g id="edge10" class="edge">
<title>src/extract&#45;&gt;src/extract/derive/circular</title>
<path fill="none" stroke="#007700" stroke-width="2" stroke-opacity="0.466667" d="M539.8,-204C557.38,-204 698,-204 698,-204 698,-204 698,-169.37 698,-169.37"/>
<polygon fill="#007700" fill-opacity="0.466667" stroke="#007700" stroke-width="2" stroke-opacity="0.466667" points="700.1,-169.37 698,-163.37 695.9,-169.37 700.1,-169.37"/>
</g>
<!-- src/extract/derive/orphan -->
<g id="node13" class="node">
<title>src/extract/derive/orphan</title>
<g id="a_node13"><a xlink:href="https://github.com/sverweij/dependency-cruiser/blob/develop/src/extract/derive/orphan" xlink:title="orphan">
<polygon fill="#ccffcc" stroke="black" points="659,-163.3 606.89,-163.3 605,-161.41 605,-146.3 657.11,-146.3 659,-148.19 659,-163.3"/>
<polyline fill="none" stroke="black" points="657.11,-161.41 605,-161.41 "/>
<polyline fill="none" stroke="black" points="657.11,-161.41 657.11,-146.3 "/>
<polyline fill="none" stroke="black" points="657.11,-161.41 659,-163.3 "/>
<text text-anchor="middle" x="632" y="-152.1" font-family="Helvetica,sans-Serif" font-size="9.00">orphan</text>
</a>
</g>
</g>
<!-- src/extract&#45;&gt;src/extract/derive/orphan -->
<g id="edge11" class="edge">
<title>src/extract&#45;&gt;src/extract/derive/orphan</title>
<path fill="none" stroke="#007700" stroke-width="2" stroke-opacity="0.466667" d="M538.6,-206.79C538.6,-211.11 538.6,-221 538.6,-221 538.6,-221 632,-221 632,-221 632,-221 632,-169.45 632,-169.45"/>
<polygon fill="#007700" fill-opacity="0.466667" stroke="#007700" stroke-width="2" stroke-opacity="0.466667" points="634.1,-169.45 632,-163.45 629.9,-169.45 634.1,-169.45"/>
</g>
<!-- src/extract/derive/reachable -->
<g id="node14" class="node">
<title>src/extract/derive/reachable</title>
<g id="a_node14"><a xlink:href="https://github.com/sverweij/dependency-cruiser/blob/develop/src/extract/derive/reachable" xlink:title="reachable">
<polygon fill="#ccffcc" stroke="black" points="792.53,-163.3 739.36,-163.3 737.47,-161.41 737.47,-146.3 790.64,-146.3 792.53,-148.19 792.53,-163.3"/>
<polyline fill="none" stroke="black" points="790.64,-161.41 737.47,-161.41 "/>
<polyline fill="none" stroke="black" points="790.64,-161.41 790.64,-146.3 "/>
<polyline fill="none" stroke="black" points="790.64,-161.41 792.53,-163.3 "/>
<text text-anchor="middle" x="765" y="-152.1" font-family="Helvetica,sans-Serif" font-size="9.00">reachable</text>
</a>
</g>
</g>
<!-- src/extract&#45;&gt;src/extract/derive/reachable -->
<g id="edge12" class="edge">
<title>src/extract&#45;&gt;src/extract/derive/reachable</title>
<path fill="none" stroke="#007700" stroke-width="2" stroke-opacity="0.466667" d="M539.96,-205C562.15,-205 765,-205 765,-205 765,-205 765,-169.54 765,-169.54"/>
<polygon fill="#007700" fill-opacity="0.466667" stroke="#007700" stroke-width="2" stroke-opacity="0.466667" points="767.1,-169.54 765,-163.54 762.9,-169.54 767.1,-169.54"/>
</g>
<!-- src/extract&#45;&gt;src/extract/utl -->
<g id="edge13" class="edge">
<title>src/extract&#45;&gt;src/extract/utl</title>
<path fill="none" stroke="#007700" stroke-width="2" stroke-opacity="0.466667" d="M538.07,-203C539.54,-203 563,-203 563,-203 563,-203 563,-118.33 563,-118.33"/>
<polygon fill="#007700" fill-opacity="0.466667" stroke="#007700" stroke-width="2" stroke-opacity="0.466667" points="565.1,-118.33 563,-112.33 560.9,-118.33 565.1,-118.33"/>
</g>
<!-- src/validate -->
<g id="node16" class="node">
<title>src/validate</title>
<g id="a_node16"><a xlink:href="https://github.com/sverweij/dependency-cruiser/blob/develop/src/validate" xlink:title="validate">
<polygon fill="#ccccff" stroke="black" points="379,-112 326.89,-112 325,-110.11 325,-95 377.11,-95 379,-96.89 379,-112"/>
<polyline fill="none" stroke="black" points="377.11,-110.11 325,-110.11 "/>
<polyline fill="none" stroke="black" points="377.11,-110.11 377.11,-95 "/>
<polyline fill="none" stroke="black" points="377.11,-110.11 379,-112 "/>
<text text-anchor="middle" x="352" y="-100.8" font-family="Helvetica,sans-Serif" font-size="9.00">validate</text>
</a>
</g>
</g>
<!-- src/extract&#45;&gt;src/validate -->
<g id="edge14" class="edge">
<title>src/extract&#45;&gt;src/validate</title>
<path fill="none" stroke="#0000ff" stroke-width="2" stroke-opacity="0.466667" d="M537.4,-202.91C537.4,-196.5 537.4,-176 537.4,-176 537.4,-176 366.83,-176 366.83,-176 366.83,-176 366.83,-118.1 366.83,-118.1"/>
<polygon fill="#0000ff" fill-opacity="0.466667" stroke="#0000ff" stroke-width="2" stroke-opacity="0.466667" points="368.93,-118.1 366.83,-112.1 364.73,-118.1 368.93,-118.1"/>
</g>
<!-- src/extract/parse -->
<g id="node17" class="node">
<title>src/extract/parse</title>
<g id="a_node17"><a xlink:href="https://github.com/sverweij/dependency-cruiser/blob/develop/src/extract/parse" xlink:title="parse">
<polygon fill="#ccffcc" stroke="black" points="545,-163.3 492.89,-163.3 491,-161.41 491,-146.3 543.11,-146.3 545,-148.19 545,-163.3"/>
<polyline fill="none" stroke="black" points="543.11,-161.41 491,-161.41 "/>
<polyline fill="none" stroke="black" points="543.11,-161.41 543.11,-146.3 "/>
<polyline fill="none" stroke="black" points="543.11,-161.41 545,-163.3 "/>
<text text-anchor="middle" x="518" y="-152.1" font-family="Helvetica,sans-Serif" font-size="9.00">parse</text>
</a>
</g>
</g>
<!-- src/extract&#45;&gt;src/extract/parse -->
<g id="edge15" class="edge">
<title>src/extract&#45;&gt;src/extract/parse</title>
<path fill="none" stroke="#007700" stroke-width="2" stroke-opacity="0.466667" d="M538.6,-202.65C538.6,-202.65 538.6,-169.57 538.6,-169.57"/>
<polygon fill="#007700" fill-opacity="0.466667" stroke="#007700" stroke-width="2" stroke-opacity="0.466667" points="540.7,-169.57 538.6,-163.57 536.5,-169.57 540.7,-169.57"/>
</g>
<!-- src/extract&#45;&gt;src/extract/resolve/get&#45;manifest&#45;dependencies -->
<g id="edge16" class="edge">
<title>src/extract&#45;&gt;src/extract/resolve/get&#45;manifest&#45;dependencies</title>
<path fill="none" stroke="#007700" stroke-width="2" stroke-opacity="0.466667" d="M539.85,-205C566.85,-205 881.04,-205 881.04,-205 881.04,-205 881.04,-118.15 881.04,-118.15"/>
<polygon fill="#007700" fill-opacity="0.466667" stroke="#007700" stroke-width="2" stroke-opacity="0.466667" points="883.14,-118.15 881.04,-112.15 878.94,-118.15 883.14,-118.15"/>
</g>
<!-- src/extract&#45;&gt;src/extract/transpile -->
<g id="edge18" class="edge">
<title>src/extract&#45;&gt;src/extract/transpile</title>
<path fill="none" stroke="#007700" stroke-width="2" stroke-opacity="0.466667" d="M536.02,-204C534.67,-204 533.13,-204 533.13,-204 533.13,-204 533.13,-169 533.13,-169 533.13,-169 469.17,-169 469.17,-169 469.17,-169 469.17,-118.06 469.17,-118.06"/>
<polygon fill="#007700" fill-opacity="0.466667" stroke="#007700" stroke-width="2" stroke-opacity="0.466667" points="471.27,-118.06 469.17,-112.06 467.07,-118.06 471.27,-118.06"/>
</g>
<!-- src/utl -->
<g id="node20" class="node">
<title>src/utl</title>
<g id="a_node20"><a xlink:href="https://github.com/sverweij/dependency-cruiser/blob/develop/src/utl" xlink:title="utl">
<polygon fill="#cccccc" stroke="black" points="364,-71 311.89,-71 310,-69.11 310,-54 362.11,-54 364,-55.89 364,-71"/>
<polyline fill="none" stroke="black" points="362.11,-69.11 310,-69.11 "/>
<polyline fill="none" stroke="black" points="362.11,-69.11 362.11,-54 "/>
<polyline fill="none" stroke="black" points="362.11,-69.11 364,-71 "/>
<text text-anchor="middle" x="337" y="-59.8" font-family="Helvetica,sans-Serif" font-size="9.00">utl</text>
</a>
</g>
</g>
<!-- src/extract&#45;&gt;src/utl -->
<g id="edge19" class="edge">
<title>src/extract&#45;&gt;src/utl</title>
<path fill="none" stroke="#aaaaaa" stroke-width="2" stroke-opacity="0.466667" d="M536.14,-205C521.92,-205 430.92,-205 430.92,-205 430.92,-205 430.92,-183 430.92,-183 430.92,-183 320,-183 320,-183 320,-183 320,-77.17 320,-77.17"/>
<polygon fill="#aaaaaa" fill-opacity="0.466667" stroke="#aaaaaa" stroke-width="2" stroke-opacity="0.466667" points="322.1,-77.17 320,-71.17 317.9,-77.17 322.1,-77.17"/>
</g>
<!-- src/extract/ast&#45;extractors -->
<g id="node21" class="node">
<title>src/extract/ast&#45;extractors</title>
<g id="a_node21"><a xlink:href="https://github.com/sverweij/dependency-cruiser/blob/develop/src/extract/ast-extractors" xlink:title="ast&#45;extractors">
<polygon fill="#ccffcc" stroke="black" points="465.02,-163.3 396.87,-163.3 394.98,-161.41 394.98,-146.3 463.13,-146.3 465.02,-148.19 465.02,-163.3"/>
<polyline fill="none" stroke="black" points="463.13,-161.41 394.98,-161.41 "/>
<polyline fill="none" stroke="black" points="463.13,-161.41 463.13,-146.3 "/>
<polyline fill="none" stroke="black" points="463.13,-161.41 465.02,-163.3 "/>
<text text-anchor="middle" x="430" y="-152.1" font-family="Helvetica,sans-Serif" font-size="9.00">ast&#45;extractors</text>
</a>
</g>
</g>
<!-- src/extract&#45;&gt;src/extract/ast&#45;extractors -->
<g id="edge20" class="edge">
<title>src/extract&#45;&gt;src/extract/ast&#45;extractors</title>
<path fill="none" stroke="#007700" stroke-width="2" stroke-opacity="0.466667" d="M536.26,-204C524.33,-204 454.88,-204 454.88,-204 454.88,-204 454.88,-169.37 454.88,-169.37"/>
<polygon fill="#007700" fill-opacity="0.466667" stroke="#007700" stroke-width="2" stroke-opacity="0.466667" points="456.98,-169.37 454.88,-163.37 452.78,-169.37 456.98,-169.37"/>
</g>
<!-- src/validate&#45;&gt;src/utl -->
<g id="edge45" class="edge">
<title>src/validate&#45;&gt;src/utl</title>
<path fill="none" stroke="#aaaaaa" stroke-width="2" stroke-opacity="0.466667" d="M344.5,-94.8C344.5,-94.8 344.5,-77.18 344.5,-77.18"/>
<polygon fill="#aaaaaa" fill-opacity="0.466667" stroke="#aaaaaa" stroke-width="2" stroke-opacity="0.466667" points="346.6,-77.18 344.5,-71.18 342.4,-77.18 346.6,-77.18"/>
</g>
<!-- src/extract/parse&#45;&gt;src/extract/utl -->
<g id="edge22" class="edge">
<title>src/extract/parse&#45;&gt;src/extract/utl</title>
<path fill="none" stroke="#007700" stroke-width="2" stroke-opacity="0.466667" d="M538,-145.86C538,-145.86 538,-118.33 538,-118.33"/>
<polygon fill="#007700" fill-opacity="0.466667" stroke="#007700" stroke-width="2" stroke-opacity="0.466667" points="540.1,-118.33 538,-112.33 535.9,-118.33 540.1,-118.33"/>
</g>
<!-- src/extract/parse&#45;&gt;src/extract/transpile -->
<g id="edge21" class="edge">
<title>src/extract/parse&#45;&gt;src/extract/transpile</title>
<path fill="none" stroke="#007700" stroke-width="2" stroke-opacity="0.466667" d="M490.84,-154C481.38,-154 473.09,-154 473.09,-154 473.09,-154 473.09,-118.3 473.09,-118.3"/>
<polygon fill="#007700" fill-opacity="0.466667" stroke="#007700" stroke-width="2" stroke-opacity="0.466667" points="475.19,-118.3 473.09,-112.3 470.99,-118.3 475.19,-118.3"/>
</g>
<!-- src/extract/derive -->
<!-- src/report&#45;&gt;src/utl -->
<g id="edge42" class="edge">
<title>src/report&#45;&gt;src/utl</title>
<path fill="none" stroke="#aaaaaa" stroke-width="2" stroke-opacity="0.466667" d="M139,-104C158.55,-104 315,-104 315,-104 315,-104 315,-77.3 315,-77.3"/>
<polygon fill="#aaaaaa" fill-opacity="0.466667" stroke="#aaaaaa" stroke-width="2" stroke-opacity="0.466667" points="317.1,-77.3 315,-71.3 312.9,-77.3 317.1,-77.3"/>
</g>
<!-- src/report/anon -->
<g id="node28" class="node">
<title>src/report/anon</title>
<g id="a_node28"><a xlink:href="https://github.com/sverweij/dependency-cruiser/blob/develop/src/report/anon" xlink:title="anon">
<polygon fill="#ffccff" stroke="black" points="94,-71 41.89,-71 40,-69.11 40,-54 92.11,-54 94,-55.89 94,-71"/>
<polyline fill="none" stroke="black" points="92.11,-69.11 40,-69.11 "/>
<polyline fill="none" stroke="black" points="92.11,-69.11 92.11,-54 "/>
<polyline fill="none" stroke="black" points="92.11,-69.11 94,-71 "/>
<text text-anchor="middle" x="67" y="-59.8" font-family="Helvetica,sans-Serif" font-size="9.00">anon</text>
</a>
</g>
</g>
<!-- src/report&#45;&gt;src/report/anon -->
<g id="edge37" class="edge">
<title>src/report&#45;&gt;src/report/anon</title>
<path fill="none" stroke="#ff00ff" stroke-width="2" stroke-opacity="0.466667" d="M135.04,-104C123.89,-104 69,-104 69,-104 69,-104 69,-77.3 69,-77.3"/>
<polygon fill="#ff00ff" fill-opacity="0.466667" stroke="#ff00ff" stroke-width="2" stroke-opacity="0.466667" points="71.1,-77.3 69,-71.3 66.9,-77.3 71.1,-77.3"/>
</g>
<!-- src/report/dot -->
<g id="node29" class="node">
<title>src/report/dot</title>
<g id="a_node29"><a xlink:href="https://github.com/sverweij/dependency-cruiser/blob/develop/src/report/dot" xlink:title="dot">
<polygon fill="#ffccff" stroke="black" points="160,-71 107.89,-71 106,-69.11 106,-54 158.11,-54 160,-55.89 160,-71"/>
<polyline fill="none" stroke="black" points="158.11,-69.11 106,-69.11 "/>
<polyline fill="none" stroke="black" points="158.11,-69.11 158.11,-54 "/>
<polyline fill="none" stroke="black" points="158.11,-69.11 160,-71 "/>
<text text-anchor="middle" x="133" y="-59.8" font-family="Helvetica,sans-Serif" font-size="9.00">dot</text>
</a>
</g>
</g>
<!-- src/report&#45;&gt;src/report/dot -->
<g id="edge38" class="edge">
<title>src/report&#45;&gt;src/report/dot</title>
<path fill="none" stroke="#ff00ff" stroke-width="2" stroke-opacity="0.466667" d="M137,-101.3C137,-101.3 137,-77.12 137,-77.12"/>
<polygon fill="#ff00ff" fill-opacity="0.466667" stroke="#ff00ff" stroke-width="2" stroke-opacity="0.466667" points="139.1,-77.12 137,-71.12 134.9,-77.12 139.1,-77.12"/>
</g>
<!-- src/report/error&#45;html -->
<g id="node30" class="node">
<title>src/report/error&#45;html</title>
<g id="a_node30"><a xlink:href="https://github.com/sverweij/dependency-cruiser/blob/develop/src/report/error-html" xlink:title="error&#45;html">
<polygon fill="#ffccff" stroke="black" points="227.5,-71 174.39,-71 172.5,-69.11 172.5,-54 225.61,-54 227.5,-55.89 227.5,-71"/>
<polyline fill="none" stroke="black" points="225.61,-69.11 172.5,-69.11 "/>
<polyline fill="none" stroke="black" points="225.61,-69.11 225.61,-54 "/>
<polyline fill="none" stroke="black" points="225.61,-69.11 227.5,-71 "/>
<text text-anchor="middle" x="200" y="-59.8" font-family="Helvetica,sans-Serif" font-size="9.00">error&#45;html</text>
</a>
</g>
</g>
<!-- src/report&#45;&gt;src/report/error&#45;html -->
<g id="edge39" class="edge">
<title>src/report&#45;&gt;src/report/error&#45;html</title>
<path fill="none" stroke="#ff00ff" stroke-width="2" stroke-opacity="0.466667" d="M135.86,-102C132.79,-102 124.6,-102 124.6,-102 124.6,-102 124.6,-83 124.6,-83 124.6,-83 180.1,-83 180.1,-83 180.1,-83 180.1,-77.31 180.1,-77.31"/>
<polygon fill="#ff00ff" fill-opacity="0.466667" stroke="#ff00ff" stroke-width="2" stroke-opacity="0.466667" points="182.2,-77.31 180.1,-71.31 178,-77.31 182.2,-77.31"/>
</g>
<!-- src/report/html -->
<g id="node31" class="node">
<title>src/report/html</title>
<g id="a_node31"><a xlink:href="https://github.com/sverweij/dependency-cruiser/blob/develop/src/report/html" xlink:title="html">
<polygon fill="#ffccff" stroke="black" points="294,-71 241.89,-71 240,-69.11 240,-54 292.11,-54 294,-55.89 294,-71"/>
<polyline fill="none" stroke="black" points="292.11,-69.11 240,-69.11 "/>
<polyline fill="none" stroke="black" points="292.11,-69.11 292.11,-54 "/>
<polyline fill="none" stroke="black" points="292.11,-69.11 294,-71 "/>
<text text-anchor="middle" x="267" y="-59.8" font-family="Helvetica,sans-Serif" font-size="9.00">html</text>
</a>
</g>
</g>
<!-- src/report&#45;&gt;src/report/html -->
<g id="edge40" class="edge">
<title>src/report&#45;&gt;src/report/html</title>
<path fill="none" stroke="#ff00ff" stroke-width="2" stroke-opacity="0.466667" d="M138.98,-103C154.1,-103 250.88,-103 250.88,-103 250.88,-103 250.88,-77.09 250.88,-77.09"/>
<polygon fill="#ff00ff" fill-opacity="0.466667" stroke="#ff00ff" stroke-width="2" stroke-opacity="0.466667" points="252.98,-77.09 250.88,-71.09 248.78,-77.09 252.98,-77.09"/>
</g>
<!-- src/report/utl -->
<g id="node32" class="node">
<title>src/report/utl</title>
<g id="a_node32"><a xlink:href="https://github.com/sverweij/dependency-cruiser/blob/develop/src/report/utl" xlink:title="utl">
<polygon fill="#ffccff" stroke="black" points="160,-41 107.89,-41 106,-39.11 106,-24 158.11,-24 160,-25.89 160,-41"/>
<polyline fill="none" stroke="black" points="158.11,-39.11 106,-39.11 "/>
<polyline fill="none" stroke="black" points="158.11,-39.11 158.11,-24 "/>
<polyline fill="none" stroke="black" points="158.11,-39.11 160,-41 "/>
<text text-anchor="middle" x="133" y="-29.8" font-family="Helvetica,sans-Serif" font-size="9.00">utl</text>
</a>
</g>
</g>
<!-- src/report&#45;&gt;src/report/utl -->
<g id="edge41" class="edge">
<title>src/report&#45;&gt;src/report/utl</title>
<path fill="none" stroke="#ff00ff" stroke-width="2" stroke-opacity="0.466667" d="M138.16,-102C143.33,-102 164,-102 164,-102 164,-102 164,-35 164,-35 164,-35 163.62,-35 163.62,-35"/>
<polygon fill="#ff00ff" fill-opacity="0.466667" stroke="#ff00ff" stroke-width="2" stroke-opacity="0.466667" points="166.2,-32.9 160.2,-35 166.2,-37.1 166.2,-32.9"/>
</g>
<!-- src/main/options&#45;&gt;src/report -->
<g id="edge33" class="edge">
<title>src/main/options&#45;&gt;src/report</title>
<path fill="none" stroke="#ff00ff" stroke-width="2" stroke-opacity="0.466667" d="M136.4,-145.86C136.4,-145.86 136.4,-111.37 136.4,-111.37"/>
<polygon fill="#ff00ff" fill-opacity="0.466667" stroke="#ff00ff" stroke-width="2" stroke-opacity="0.466667" points="138.5,-111.37 136.4,-105.37 134.3,-111.37 138.5,-111.37"/>
</g>
<!-- src/main/rule&#45;set&#45;&gt;src/schema -->
<g id="edge35" class="edge">
<title>src/main/rule&#45;set&#45;&gt;src/schema</title>
<path fill="none" stroke="#000000" stroke-width="2" stroke-opacity="0.200000" d="M113.71,-204C97.47,-204 80,-204 80,-204 80,-204 80,-169.37 80,-169.37"/>
<polygon fill="#000000" fill-opacity="0.200000" stroke="#000000" stroke-width="2" stroke-opacity="0.200000" points="82.1,-169.37 80,-163.37 77.9,-169.37 82.1,-169.37"/>
</g>
<!-- src/main/rule&#45;set&#45;&gt;src/main/options -->
<g id="edge36" class="edge">
<title>src/main/rule&#45;set&#45;&gt;src/main/options</title>
<path fill="none" stroke="#770000" stroke-width="2" stroke-opacity="0.466667" d="M141,-196.09C141,-196.09 141,-169.41 141,-169.41"/>
<polygon fill="#770000" fill-opacity="0.466667" stroke="#770000" stroke-width="2" stroke-opacity="0.466667" points="143.1,-169.41 141,-163.41 138.9,-169.41 143.1,-169.41"/>
</g>
<!-- src/report/dot&#45;&gt;src/report/utl -->
<g id="edge43" class="edge">
<title>src/report/dot&#45;&gt;src/report/utl</title>
<path fill="none" stroke="#ff00ff" stroke-width="2" stroke-opacity="0.466667" d="M133,-53.98C133,-53.98 133,-47.14 133,-47.14"/>
<polygon fill="#ff00ff" fill-opacity="0.466667" stroke="#ff00ff" stroke-width="2" stroke-opacity="0.466667" points="135.1,-47.14 133,-41.14 130.9,-47.14 135.1,-47.14"/>
</g>
<!-- src/report/html&#45;&gt;src/report/utl -->
<g id="edge44" class="edge">
<title>src/report/html&#45;&gt;src/report/utl</title>
<path fill="none" stroke="#ff00ff" stroke-width="2" stroke-opacity="0.466667" d="M267,-53.7C267,-43.77 267,-29 267,-29 267,-29 166.12,-29 166.12,-29"/>
<polygon fill="#ff00ff" fill-opacity="0.466667" stroke="#ff00ff" stroke-width="2" stroke-opacity="0.466667" points="166.12,-26.9 160.12,-29 166.12,-31.1 166.12,-26.9"/>
</g>
</g>
</svg>
