<?xml version="1.0" encoding="UTF-8" standalone="no"?>
<!DOCTYPE svg PUBLIC "-//W3C//DTD SVG 1.1//EN"
 "http://www.w3.org/Graphics/SVG/1.1/DTD/svg11.dtd">
<!-- Generated by graphviz version 2.44.0 (20200408.0750)
 -->
<!-- Title: dependency&#45;cruiser output Pages: 1 -->
<svg width="1234pt" height="462pt"
 viewBox="0.00 0.00 1234.00 462.00" xmlns="http://www.w3.org/2000/svg" xmlns:xlink="http://www.w3.org/1999/xlink">
<g id="graph0" class="graph" transform="scale(1 1) rotate(0) translate(4 458)">
<title>dependency&#45;cruiser output</title>
<polygon fill="white" stroke="transparent" points="-4,4 -4,-458 1230,-458 1230,4 -4,4"/>
<g id="clust1" class="cluster">
<title>cluster_src</title>
<path fill="#ffffff" stroke="black" stroke-width="2" d="M20,-8C20,-8 1206,-8 1206,-8 1212,-8 1218,-14 1218,-20 1218,-20 1218,-416 1218,-416 1218,-422 1212,-428 1206,-428 1206,-428 20,-428 20,-428 14,-428 8,-422 8,-416 8,-416 8,-20 8,-20 8,-14 14,-8 20,-8"/>
<text text-anchor="middle" x="613" y="-416.8" font-family="Helvetica,sans-Serif" font-weight="bold" font-size="9.00">src</text>
</g>
<g id="clust8" class="cluster">
<title>cluster_src/report</title>
<path fill="#ffffff" stroke="black" stroke-width="2" d="M542,-50C542,-50 802,-50 802,-50 808,-50 814,-56 814,-62 814,-62 814,-195.6 814,-195.6 814,-201.6 808,-207.6 802,-207.6 802,-207.6 542,-207.6 542,-207.6 536,-207.6 530,-201.6 530,-195.6 530,-195.6 530,-62 530,-62 530,-56 536,-50 542,-50"/>
<text text-anchor="middle" x="672" y="-196.4" font-family="Helvetica,sans-Serif" font-weight="bold" font-size="9.00">report</text>
</g>
<g id="clust2" class="cluster">
<title>cluster_src/cli</title>
<path fill="#ffffff" stroke="black" stroke-width="2" d="M40,-305.2C40,-305.2 244,-305.2 244,-305.2 250,-305.2 256,-311.2 256,-317.2 256,-317.2 256,-390 256,-390 256,-396 250,-402 244,-402 244,-402 40,-402 40,-402 34,-402 28,-396 28,-390 28,-390 28,-317.2 28,-317.2 28,-311.2 34,-305.2 40,-305.2"/>
<text text-anchor="middle" x="142" y="-390.8" font-family="Helvetica,sans-Serif" font-weight="bold" font-size="9.00">cli</text>
</g>
<g id="clust3" class="cluster">
<title>cluster_src/enrich</title>
<path fill="#ffffff" stroke="black" stroke-width="2" d="M984,-42C984,-42 1198,-42 1198,-42 1204,-42 1210,-48 1210,-54 1210,-54 1210,-134.8 1210,-134.8 1210,-140.8 1204,-146.8 1198,-146.8 1198,-146.8 984,-146.8 984,-146.8 978,-146.8 972,-140.8 972,-134.8 972,-134.8 972,-54 972,-54 972,-48 978,-42 984,-42"/>
<text text-anchor="middle" x="1091" y="-135.6" font-family="Helvetica,sans-Serif" font-weight="bold" font-size="9.00">enrich</text>
</g>
<g id="clust4" class="cluster">
<title>cluster_src/enrich/derive</title>
<path fill="#ffffff" stroke="black" stroke-width="2" d="M992,-50C992,-50 1190,-50 1190,-50 1196,-50 1202,-56 1202,-62 1202,-62 1202,-90 1202,-90 1202,-96 1196,-102 1190,-102 1190,-102 992,-102 992,-102 986,-102 980,-96 980,-90 980,-90 980,-62 980,-62 980,-56 986,-50 992,-50"/>
<text text-anchor="middle" x="1091" y="-90.8" font-family="Helvetica,sans-Serif" font-weight="bold" font-size="9.00">derive</text>
</g>
<g id="clust5" class="cluster">
<title>cluster_src/extract</title>
<path fill="#ffffff" stroke="black" stroke-width="2" d="M834,-154.8C834,-154.8 1178,-154.8 1178,-154.8 1184,-154.8 1190,-160.8 1190,-166.8 1190,-166.8 1190,-285.2 1190,-285.2 1190,-291.2 1184,-297.2 1178,-297.2 1178,-297.2 834,-297.2 834,-297.2 828,-297.2 822,-291.2 822,-285.2 822,-285.2 822,-166.8 822,-166.8 822,-160.8 828,-154.8 834,-154.8"/>
<text text-anchor="middle" x="1006" y="-286" font-family="Helvetica,sans-Serif" font-weight="bold" font-size="9.00">extract</text>
</g>
<g id="clust6" class="cluster">
<title>cluster_src/extract/resolve</title>
<path fill="#ffffff" stroke="black" stroke-width="2" d="M970,-162.8C970,-162.8 1090,-162.8 1090,-162.8 1096,-162.8 1102,-168.8 1102,-174.8 1102,-174.8 1102,-240.4 1102,-240.4 1102,-246.4 1096,-252.4 1090,-252.4 1090,-252.4 970,-252.4 970,-252.4 964,-252.4 958,-246.4 958,-240.4 958,-240.4 958,-174.8 958,-174.8 958,-168.8 964,-162.8 970,-162.8"/>
<text text-anchor="middle" x="1030" y="-241.2" font-family="Helvetica,sans-Serif" font-weight="bold" font-size="9.00">resolve</text>
</g>
<g id="clust7" class="cluster">
<title>cluster_src/main</title>
<path fill="#ffffff" stroke="black" stroke-width="2" d="M276,-162.8C276,-162.8 510,-162.8 510,-162.8 516,-162.8 522,-168.8 522,-174.8 522,-174.8 522,-338 522,-338 522,-344 516,-350 510,-350 510,-350 276,-350 276,-350 270,-350 264,-344 264,-338 264,-338 264,-174.8 264,-174.8 264,-168.8 270,-162.8 276,-162.8"/>
<text text-anchor="middle" x="393" y="-338.8" font-family="Helvetica,sans-Serif" font-weight="bold" font-size="9.00">main</text>
</g>
<!-- bin -->
<g id="node1" class="node">
<title>bin</title>
<g id="a_node1"><a xlink:href="https://github.com/sverweij/dependency-cruiser/blob/develop/bin" xlink:title="bin">
<polygon fill="#ffffcc" stroke="black" points="177,-454 125,-454 123,-452 123,-436 175,-436 177,-438 177,-454"/>
<polyline fill="none" stroke="black" points="175,-452 123,-452 "/>
<polyline fill="none" stroke="black" points="175,-452 175,-436 "/>
<polyline fill="none" stroke="black" points="175,-452 177,-454 "/>
<text text-anchor="middle" x="150" y="-442.8" font-family="Helvetica,sans-Serif" font-size="9.00">bin</text>
</a>
</g>
</g>
<!-- src/cli -->
<!-- bin&#45;&gt;src/cli -->
<g id="edge1" class="edge">
<title>bin&#45;&gt;src/cli</title>
<path fill="none" stroke="#0000ff" stroke-width="2" stroke-opacity="0.466667" d="M129.4,-435.75C129.4,-435.75 129.4,-375.11 129.4,-375.11"/>
<polygon fill="#0000ff" fill-opacity="0.466667" stroke="#0000ff" stroke-width="2" stroke-opacity="0.466667" points="131.5,-375.11 129.4,-369.11 127.3,-375.11 131.5,-375.11"/>
</g>
<!-- src/cli/tools -->
<g id="node3" class="node">
<title>src/cli/tools</title>
<g id="a_node3"><a xlink:href="https://github.com/sverweij/dependency-cruiser/blob/develop/src/cli/tools" xlink:title="tools">
<polygon fill="#ccccff" stroke="black" points="198,-376 146,-376 144,-374 144,-358 196,-358 198,-360 198,-376"/>
<polyline fill="none" stroke="black" points="196,-374 144,-374 "/>
<polyline fill="none" stroke="black" points="196,-374 196,-358 "/>
<polyline fill="none" stroke="black" points="196,-374 198,-376 "/>
<text text-anchor="middle" x="171" y="-364.8" font-family="Helvetica,sans-Serif" font-size="9.00">tools</text>
</a>
</g>
</g>
<!-- bin&#45;&gt;src/cli/tools -->
<g id="edge2" class="edge">
<title>bin&#45;&gt;src/cli/tools</title>
<path fill="none" stroke="#0000ff" stroke-width="2" stroke-opacity="0.466667" d="M160.5,-435.75C160.5,-435.75 160.5,-382.24 160.5,-382.24"/>
<polygon fill="#0000ff" fill-opacity="0.466667" stroke="#0000ff" stroke-width="2" stroke-opacity="0.466667" points="162.6,-382.24 160.5,-376.24 158.4,-382.24 162.6,-382.24"/>
</g>
<!-- src/main -->
<!-- src/cli&#45;&gt;src/main -->
<g id="edge3" class="edge">
<title>src/cli&#45;&gt;src/main</title>
<path fill="none" stroke="#770000" stroke-width="2" stroke-opacity="0.466667" d="M131.92,-367C134.8,-367 139.93,-367 139.93,-367 139.93,-367 139.93,-344 139.93,-344 139.93,-344 499.6,-344 499.6,-344 499.6,-344 499.6,-329.91 499.6,-329.91"/>
<polygon fill="#770000" fill-opacity="0.466667" stroke="#770000" stroke-width="2" stroke-opacity="0.466667" points="501.7,-329.91 499.6,-323.91 497.5,-329.91 501.7,-329.91"/>
</g>
<!-- src/cli/utl -->
<g id="node6" class="node">
<title>src/cli/utl</title>
<g id="a_node6"><a xlink:href="https://github.com/sverweij/dependency-cruiser/blob/develop/src/cli/utl" xlink:title="utl">
<polygon fill="#ccccff" stroke="black" points="90,-331.2 38,-331.2 36,-329.2 36,-313.2 88,-313.2 90,-315.2 90,-331.2"/>
<polyline fill="none" stroke="black" points="88,-329.2 36,-329.2 "/>
<polyline fill="none" stroke="black" points="88,-329.2 88,-313.2 "/>
<polyline fill="none" stroke="black" points="88,-329.2 90,-331.2 "/>
<text text-anchor="middle" x="63" y="-320" font-family="Helvetica,sans-Serif" font-size="9.00">utl</text>
</a>
</g>
</g>
<!-- src/cli&#45;&gt;src/cli/utl -->
<g id="edge4" class="edge">
<title>src/cli&#45;&gt;src/cli/utl</title>
<path fill="none" stroke="#0000ff" stroke-width="2" stroke-opacity="0.466667" d="M128.07,-367C117.08,-367 63,-367 63,-367 63,-367 63,-337.27 63,-337.27"/>
<polygon fill="#0000ff" fill-opacity="0.466667" stroke="#0000ff" stroke-width="2" stroke-opacity="0.466667" points="65.1,-337.27 63,-331.27 60.9,-337.27 65.1,-337.27"/>
</g>
<!-- src/cli/compile&#45;config -->
<g id="node7" class="node">
<title>src/cli/compile&#45;config</title>
<g id="a_node7"><a xlink:href="https://github.com/sverweij/dependency-cruiser/blob/develop/src/cli/compile-config" xlink:title="compile&#45;config">
<polygon fill="#ccccff" stroke="black" points="247.5,-331.2 172.5,-331.2 170.5,-329.2 170.5,-313.2 245.5,-313.2 247.5,-315.2 247.5,-331.2"/>
<polyline fill="none" stroke="black" points="245.5,-329.2 170.5,-329.2 "/>
<polyline fill="none" stroke="black" points="245.5,-329.2 245.5,-313.2 "/>
<polyline fill="none" stroke="black" points="245.5,-329.2 247.5,-331.2 "/>
<text text-anchor="middle" x="209" y="-320" font-family="Helvetica,sans-Serif" font-size="9.00">compile&#45;config</text>
</a>
</g>
</g>
<!-- src/cli&#45;&gt;src/cli/compile&#45;config -->
<g id="edge5" class="edge">
<title>src/cli&#45;&gt;src/cli/compile&#45;config</title>
<path fill="none" stroke="#0000ff" stroke-width="2" stroke-opacity="0.466667" d="M130.6,-369.1C130.6,-377.2 130.6,-406 130.6,-406 130.6,-406 222.75,-406 222.75,-406 222.75,-406 222.75,-337.49 222.75,-337.49"/>
<polygon fill="#0000ff" fill-opacity="0.466667" stroke="#0000ff" stroke-width="2" stroke-opacity="0.466667" points="224.85,-337.49 222.75,-331.49 220.65,-337.49 224.85,-337.49"/>
</g>
<!-- src/cli/init&#45;config -->
<g id="node8" class="node">
<title>src/cli/init&#45;config</title>
<g id="a_node8"><a xlink:href="https://github.com/sverweij/dependency-cruiser/blob/develop/src/cli/init-config" xlink:title="init&#45;config">
<polygon fill="#ccccff" stroke="black" points="158,-331.2 104,-331.2 102,-329.2 102,-313.2 156,-313.2 158,-315.2 158,-331.2"/>
<polyline fill="none" stroke="black" points="156,-329.2 102,-329.2 "/>
<polyline fill="none" stroke="black" points="156,-329.2 156,-313.2 "/>
<polyline fill="none" stroke="black" points="156,-329.2 158,-331.2 "/>
<text text-anchor="middle" x="130" y="-320" font-family="Helvetica,sans-Serif" font-size="9.00">init&#45;config</text>
</a>
</g>
</g>
<!-- src/cli&#45;&gt;src/cli/init&#45;config -->
<g id="edge6" class="edge">
<title>src/cli&#45;&gt;src/cli/init&#45;config</title>
<path fill="none" stroke="#0000ff" stroke-width="2" stroke-opacity="0.466667" d="M130,-365.08C130,-365.08 130,-337.54 130,-337.54"/>
<polygon fill="#0000ff" fill-opacity="0.466667" stroke="#0000ff" stroke-width="2" stroke-opacity="0.466667" points="132.1,-337.54 130,-331.54 127.9,-337.54 132.1,-337.54"/>
</g>
<!-- src -->
<!-- src/main/resolve&#45;options -->
<g id="node10" class="node">
<title>src/main/resolve&#45;options</title>
<g id="a_node10"><a xlink:href="https://github.com/sverweij/dependency-cruiser/blob/develop/src/main/resolve-options" xlink:title="resolve&#45;options">
<polygon fill="#ffcccc" stroke="black" points="352,-278.4 274,-278.4 272,-276.4 272,-260.4 350,-260.4 352,-262.4 352,-278.4"/>
<polyline fill="none" stroke="black" points="350,-276.4 272,-276.4 "/>
<polyline fill="none" stroke="black" points="350,-276.4 350,-260.4 "/>
<polyline fill="none" stroke="black" points="350,-276.4 352,-278.4 "/>
<text text-anchor="middle" x="312" y="-267.2" font-family="Helvetica,sans-Serif" font-size="9.00">resolve&#45;options</text>
</a>
</g>
</g>
<!-- src/main&#45;&gt;src/main/resolve&#45;options -->
<g id="edge35" class="edge">
<title>src/main&#45;&gt;src/main/resolve&#45;options</title>
<path fill="none" stroke="#770000" stroke-width="2" stroke-opacity="0.466667" d="M497.05,-322C477.97,-322 325.33,-322 325.33,-322 325.33,-322 325.33,-284.56 325.33,-284.56"/>
<polygon fill="#770000" fill-opacity="0.466667" stroke="#770000" stroke-width="2" stroke-opacity="0.466667" points="327.43,-284.56 325.33,-278.56 323.23,-284.56 327.43,-284.56"/>
</g>
<!-- src/enrich -->
<!-- src/main&#45;&gt;src/enrich -->
<g id="edge28" class="edge">
<title>src/main&#45;&gt;src/enrich</title>
<path fill="none" stroke="#007766" stroke-width="2" stroke-opacity="0.466667" d="M499,-320.1C499,-319.05 499,-318 499,-318 499,-318 1187.75,-318 1187.75,-318 1187.75,-318 1187.75,-119 1187.75,-119 1187.75,-119 1073.13,-119 1073.13,-119"/>
<polygon fill="#007766" fill-opacity="0.466667" stroke="#007766" stroke-width="2" stroke-opacity="0.466667" points="1073.13,-116.9 1067.13,-119 1073.13,-121.1 1073.13,-116.9"/>
</g>
<!-- src/extract -->
<!-- src/main&#45;&gt;src/extract -->
<g id="edge29" class="edge">
<title>src/main&#45;&gt;src/extract</title>
<path fill="none" stroke="#007700" stroke-width="2" stroke-opacity="0.466667" d="M500.66,-323C530.75,-323 958.6,-323 958.6,-323 958.6,-323 958.6,-277.18 958.6,-277.18"/>
<polygon fill="#007700" fill-opacity="0.466667" stroke="#007700" stroke-width="2" stroke-opacity="0.466667" points="960.7,-277.18 958.6,-271.18 956.5,-277.18 960.7,-277.18"/>
</g>
<!-- src/extract/transpile -->
<g id="node21" class="node">
<title>src/extract/transpile</title>
<g id="a_node21"><a xlink:href="https://github.com/sverweij/dependency-cruiser/blob/develop/src/extract/transpile" xlink:title="transpile">
<polygon fill="#ccffcc" stroke="black" points="884,-188.8 832,-188.8 830,-186.8 830,-170.8 882,-170.8 884,-172.8 884,-188.8"/>
<polyline fill="none" stroke="black" points="882,-186.8 830,-186.8 "/>
<polyline fill="none" stroke="black" points="882,-186.8 882,-170.8 "/>
<polyline fill="none" stroke="black" points="882,-186.8 884,-188.8 "/>
<text text-anchor="middle" x="857" y="-177.6" font-family="Helvetica,sans-Serif" font-size="9.00">transpile</text>
</a>
</g>
</g>
<!-- src/main&#45;&gt;src/extract/transpile -->
<g id="edge30" class="edge">
<title>src/main&#45;&gt;src/extract/transpile</title>
<path fill="none" stroke="#007700" stroke-width="2" stroke-opacity="0.466667" d="M498.1,-320.51C498.1,-318.67 498.1,-316 498.1,-316 498.1,-316 856,-316 856,-316 856,-316 856,-195.16 856,-195.16"/>
<polygon fill="#007700" fill-opacity="0.466667" stroke="#007700" stroke-width="2" stroke-opacity="0.466667" points="858.1,-195.16 856,-189.16 853.9,-195.16 858.1,-195.16"/>
</g>
<!-- src/report -->
<!-- src/main&#45;&gt;src/report -->
<g id="edge31" class="edge">
<title>src/main&#45;&gt;src/report</title>
<path fill="none" stroke="#ff00ff" stroke-width="2" stroke-opacity="0.466667" d="M501.12,-322C517.38,-322 621.4,-322 621.4,-322 621.4,-322 621.4,-187.81 621.4,-187.81"/>
<polygon fill="#ff00ff" fill-opacity="0.466667" stroke="#ff00ff" stroke-width="2" stroke-opacity="0.466667" points="623.5,-187.81 621.4,-181.81 619.3,-187.81 623.5,-187.81"/>
</g>
<!-- src/schema -->
<g id="node25" class="node">
<title>src/schema</title>
<g id="a_node25"><a xlink:href="https://github.com/sverweij/dependency-cruiser/blob/develop/src/schema" xlink:title="schema">
<polygon fill="#ffffcc" stroke="black" points="584,-233.6 532,-233.6 530,-231.6 530,-215.6 582,-215.6 584,-217.6 584,-233.6"/>
<polyline fill="none" stroke="black" points="582,-231.6 530,-231.6 "/>
<polyline fill="none" stroke="black" points="582,-231.6 582,-215.6 "/>
<polyline fill="none" stroke="black" points="582,-231.6 584,-233.6 "/>
<text text-anchor="middle" x="557" y="-222.4" font-family="Helvetica,sans-Serif" font-size="9.00">schema</text>
</a>
</g>
</g>
<!-- src/main&#45;&gt;src/schema -->
<g id="edge32" class="edge">
<title>src/main&#45;&gt;src/schema</title>
<path fill="none" stroke="#000000" stroke-width="2" stroke-opacity="0.200000" d="M500.43,-321C509.37,-321 557,-321 557,-321 557,-321 557,-239.84 557,-239.84"/>
<polygon fill="#000000" fill-opacity="0.200000" stroke="#000000" stroke-width="2" stroke-opacity="0.200000" points="559.1,-239.84 557,-233.84 554.9,-239.84 559.1,-239.84"/>
</g>
<!-- src/main/files&#45;and&#45;dirs -->
<g id="node26" class="node">
<title>src/main/files&#45;and&#45;dirs</title>
<g id="a_node26"><a xlink:href="https://github.com/sverweij/dependency-cruiser/blob/develop/src/main/files-and-dirs" xlink:title="files&#45;and&#45;dirs">
<polygon fill="#ffcccc" stroke="black" points="434,-278.4 366,-278.4 364,-276.4 364,-260.4 432,-260.4 434,-262.4 434,-278.4"/>
<polyline fill="none" stroke="black" points="432,-276.4 364,-276.4 "/>
<polyline fill="none" stroke="black" points="432,-276.4 432,-260.4 "/>
<polyline fill="none" stroke="black" points="432,-276.4 434,-278.4 "/>
<text text-anchor="middle" x="399" y="-267.2" font-family="Helvetica,sans-Serif" font-size="9.00">files&#45;and&#45;dirs</text>
</a>
</g>
</g>
<!-- src/main&#45;&gt;src/main/files&#45;and&#45;dirs -->
<g id="edge33" class="edge">
<title>src/main&#45;&gt;src/main/files&#45;and&#45;dirs</title>
<path fill="none" stroke="#770000" stroke-width="2" stroke-opacity="0.466667" d="M498.4,-324.1C498.4,-325.05 498.4,-326 498.4,-326 498.4,-326 399,-326 399,-326 399,-326 399,-284.49 399,-284.49"/>
<polygon fill="#770000" fill-opacity="0.466667" stroke="#770000" stroke-width="2" stroke-opacity="0.466667" points="401.1,-284.49 399,-278.49 396.9,-284.49 401.1,-284.49"/>
</g>
<!-- src/main/options -->
<g id="node27" class="node">
<title>src/main/options</title>
<g id="a_node27"><a xlink:href="https://github.com/sverweij/dependency-cruiser/blob/develop/src/main/options" xlink:title="options">
<polygon fill="#ffcccc" stroke="black" points="478,-233.6 426,-233.6 424,-231.6 424,-215.6 476,-215.6 478,-217.6 478,-233.6"/>
<polyline fill="none" stroke="black" points="476,-231.6 424,-231.6 "/>
<polyline fill="none" stroke="black" points="476,-231.6 476,-215.6 "/>
<polyline fill="none" stroke="black" points="476,-231.6 478,-233.6 "/>
<text text-anchor="middle" x="451" y="-222.4" font-family="Helvetica,sans-Serif" font-size="9.00">options</text>
</a>
</g>
</g>
<!-- src/main&#45;&gt;src/main/options -->
<g id="edge34" class="edge">
<title>src/main&#45;&gt;src/main/options</title>
<path fill="none" stroke="#770000" stroke-width="2" stroke-opacity="0.466667" d="M497.27,-321C488.25,-321 447,-321 447,-321 447,-321 447,-239.84 447,-239.84"/>
<polygon fill="#770000" fill-opacity="0.466667" stroke="#770000" stroke-width="2" stroke-opacity="0.466667" points="449.1,-239.84 447,-233.84 444.9,-239.84 449.1,-239.84"/>
</g>
<!-- src/main/rule&#45;set -->
<g id="node28" class="node">
<title>src/main/rule&#45;set</title>
<g id="a_node28"><a xlink:href="https://github.com/sverweij/dependency-cruiser/blob/develop/src/main/rule-set" xlink:title="rule&#45;set">
<polygon fill="#ffcccc" stroke="black" points="514,-278.4 462,-278.4 460,-276.4 460,-260.4 512,-260.4 514,-262.4 514,-278.4"/>
<polyline fill="none" stroke="black" points="512,-276.4 460,-276.4 "/>
<polyline fill="none" stroke="black" points="512,-276.4 512,-260.4 "/>
<polyline fill="none" stroke="black" points="512,-276.4 514,-278.4 "/>
<text text-anchor="middle" x="487" y="-267.2" font-family="Helvetica,sans-Serif" font-size="9.00">rule&#45;set</text>
</a>
</g>
</g>
<!-- src/main&#45;&gt;src/main/rule&#45;set -->
<g id="edge36" class="edge">
<title>src/main&#45;&gt;src/main/rule&#45;set</title>
<path fill="none" stroke="#770000" stroke-width="2" stroke-opacity="0.466667" d="M499.9,-320.44C499.9,-320.44 499.9,-284.52 499.9,-284.52"/>
<polygon fill="#770000" fill-opacity="0.466667" stroke="#770000" stroke-width="2" stroke-opacity="0.466667" points="502,-284.52 499.9,-278.52 497.8,-284.52 502,-284.52"/>
</g>
<!-- src/extract/resolve -->
<!-- src/cli/compile&#45;config&#45;&gt;src/extract/resolve -->
<g id="edge7" class="edge">
<title>src/cli/compile&#45;config&#45;&gt;src/extract/resolve</title>
<g id="a_edge7"><a xlink:title="cli&#45;to&#45;main&#45;only&#45;warn">
<path fill="none" stroke="orange" stroke-width="2" d="M247.71,-328C402.5,-328 968.6,-328 968.6,-328 968.6,-328 968.6,-232.39 968.6,-232.39"/>
<polygon fill="orange" stroke="orange" stroke-width="2" points="970.7,-232.39 968.6,-226.39 966.5,-232.39 970.7,-232.39"/>
</a>
</g>
<text text-anchor="middle" x="612.46" y="-330.8" font-family="Helvetica,sans-Serif" font-size="9.00" fill="orange">cli&#45;to&#45;main&#45;only&#45;warn</text>
</g>
<!-- src/cli/compile&#45;config&#45;&gt;src/main/resolve&#45;options -->
<g id="edge8" class="edge">
<title>src/cli/compile&#45;config&#45;&gt;src/main/resolve&#45;options</title>
<path fill="none" stroke="#770000" stroke-width="2" stroke-opacity="0.466667" d="M247.55,-315C271.85,-315 298.67,-315 298.67,-315 298.67,-315 298.67,-284.63 298.67,-284.63"/>
<polygon fill="#770000" fill-opacity="0.466667" stroke="#770000" stroke-width="2" stroke-opacity="0.466667" points="300.77,-284.63 298.67,-278.63 296.57,-284.63 300.77,-284.63"/>
</g>
<!-- src/cli/init&#45;config&#45;&gt;src/cli -->
<g id="edge9" class="edge">
<title>src/cli/init&#45;config&#45;&gt;src/cli</title>
<path fill="none" stroke="#0000ff" stroke-width="2" stroke-opacity="0.466667" d="M135.87,-331.49C135.87,-344.35 135.87,-366 135.87,-366 135.87,-366 135.47,-366 135.47,-366"/>
<polygon fill="#0000ff" fill-opacity="0.466667" stroke="#0000ff" stroke-width="2" stroke-opacity="0.466667" points="137.86,-363.9 131.86,-366 137.86,-368.1 137.86,-363.9"/>
</g>
<!-- src/utl -->
<g id="node11" class="node">
<title>src/utl</title>
<g id="a_node11"><a xlink:href="https://github.com/sverweij/dependency-cruiser/blob/develop/src/utl" xlink:title="utl">
<polygon fill="#cccccc" stroke="black" points="851,-34 799,-34 797,-32 797,-16 849,-16 851,-18 851,-34"/>
<polyline fill="none" stroke="black" points="849,-32 797,-32 "/>
<polyline fill="none" stroke="black" points="849,-32 849,-16 "/>
<polyline fill="none" stroke="black" points="849,-32 851,-34 "/>
<text text-anchor="middle" x="824" y="-22.8" font-family="Helvetica,sans-Serif" font-size="9.00">utl</text>
</a>
</g>
</g>
<!-- src/cli/init&#45;config&#45;&gt;src/utl -->
<g id="edge10" class="edge">
<title>src/cli/init&#45;config&#45;&gt;src/utl</title>
<path fill="none" stroke="#aaaaaa" stroke-width="2" stroke-opacity="0.466667" d="M130,-312.89C130,-262.22 130,-22 130,-22 130,-22 790.79,-22 790.79,-22"/>
<polygon fill="#aaaaaa" fill-opacity="0.466667" stroke="#aaaaaa" stroke-width="2" stroke-opacity="0.466667" points="790.79,-24.1 796.79,-22 790.79,-19.9 790.79,-24.1"/>
</g>
<!-- src/extract/resolve&#45;&gt;src/utl -->
<g id="edge25" class="edge">
<title>src/extract/resolve&#45;&gt;src/utl</title>
<path fill="none" stroke="#aaaaaa" stroke-width="2" stroke-opacity="0.466667" d="M967.4,-226.46C967.4,-230.95 967.4,-242 967.4,-242 967.4,-242 822.25,-242 822.25,-242 822.25,-242 822.25,-40.05 822.25,-40.05"/>
<polygon fill="#aaaaaa" fill-opacity="0.466667" stroke="#aaaaaa" stroke-width="2" stroke-opacity="0.466667" points="824.35,-40.05 822.25,-34.05 820.15,-40.05 824.35,-40.05"/>
</g>
<!-- src/extract/resolve/get&#45;manifest&#45;dependencies -->
<g id="node20" class="node">
<title>src/extract/resolve/get&#45;manifest&#45;dependencies</title>
<g id="a_node20"><a xlink:href="https://github.com/sverweij/dependency-cruiser/blob/develop/src/extract/resolve/get-manifest-dependencies" xlink:title="get&#45;manifest&#45;dependencies">
<polygon fill="#ccffcc" stroke="black" points="1094,-188.8 968,-188.8 966,-186.8 966,-170.8 1092,-170.8 1094,-172.8 1094,-188.8"/>
<polyline fill="none" stroke="black" points="1092,-186.8 966,-186.8 "/>
<polyline fill="none" stroke="black" points="1092,-186.8 1092,-170.8 "/>
<polyline fill="none" stroke="black" points="1092,-186.8 1094,-188.8 "/>
<text text-anchor="middle" x="1030" y="-177.6" font-family="Helvetica,sans-Serif" font-size="9.00">get&#45;manifest&#45;dependencies</text>
</a>
</g>
</g>
<!-- src/extract/resolve&#45;&gt;src/extract/resolve/get&#45;manifest&#45;dependencies -->
<g id="edge27" class="edge">
<title>src/extract/resolve&#45;&gt;src/extract/resolve/get&#45;manifest&#45;dependencies</title>
<path fill="none" stroke="#007700" stroke-width="2" stroke-opacity="0.466667" d="M969.86,-224C978.12,-224 1011.2,-224 1011.2,-224 1011.2,-224 1011.2,-195.17 1011.2,-195.17"/>
<polygon fill="#007700" fill-opacity="0.466667" stroke="#007700" stroke-width="2" stroke-opacity="0.466667" points="1013.3,-195.17 1011.2,-189.17 1009.1,-195.17 1013.3,-195.17"/>
</g>
<!-- src/extract/utl -->
<g id="node23" class="node">
<title>src/extract/utl</title>
<g id="a_node23"><a xlink:href="https://github.com/sverweij/dependency-cruiser/blob/develop/src/extract/utl" xlink:title="utl">
<polygon fill="#ccffcc" stroke="black" points="950,-188.8 898,-188.8 896,-186.8 896,-170.8 948,-170.8 950,-172.8 950,-188.8"/>
<polyline fill="none" stroke="black" points="948,-186.8 896,-186.8 "/>
<polyline fill="none" stroke="black" points="948,-186.8 948,-170.8 "/>
<polyline fill="none" stroke="black" points="948,-186.8 950,-188.8 "/>
<text text-anchor="middle" x="923" y="-177.6" font-family="Helvetica,sans-Serif" font-size="9.00">utl</text>
</a>
</g>
</g>
<!-- src/extract/resolve&#45;&gt;src/extract/utl -->
<g id="edge26" class="edge">
<title>src/extract/resolve&#45;&gt;src/extract/utl</title>
<path fill="none" stroke="#007700" stroke-width="2" stroke-opacity="0.466667" d="M968,-222.58C968,-220.97 968,-219 968,-219 968,-219 945.33,-219 945.33,-219 945.33,-219 945.33,-194.89 945.33,-194.89"/>
<polygon fill="#007700" fill-opacity="0.466667" stroke="#007700" stroke-width="2" stroke-opacity="0.466667" points="947.43,-194.89 945.33,-188.89 943.23,-194.89 947.43,-194.89"/>
</g>
<!-- src/main/resolve&#45;options&#45;&gt;src/extract/transpile -->
<g id="edge39" class="edge">
<title>src/main/resolve&#45;options&#45;&gt;src/extract/transpile</title>
<path fill="none" stroke="#007700" stroke-width="2" stroke-opacity="0.466667" d="M312,-260.2C312,-255.6 312,-251 312,-251 312,-251 843,-251 843,-251 843,-251 843,-194.82 843,-194.82"/>
<polygon fill="#007700" fill-opacity="0.466667" stroke="#007700" stroke-width="2" stroke-opacity="0.466667" points="845.1,-194.82 843,-188.82 840.9,-194.82 845.1,-194.82"/>
</g>
<!-- src/enrich&#45;&gt;src/utl -->
<g id="edge11" class="edge">
<title>src/enrich&#45;&gt;src/utl</title>
<path fill="none" stroke="#aaaaaa" stroke-width="2" stroke-opacity="0.466667" d="M1064.4,-117.04C1064.4,-103.54 1064.4,-25 1064.4,-25 1064.4,-25 857.11,-25 857.11,-25"/>
<polygon fill="#aaaaaa" fill-opacity="0.466667" stroke="#aaaaaa" stroke-width="2" stroke-opacity="0.466667" points="857.11,-22.9 851.11,-25 857.11,-27.1 857.11,-22.9"/>
</g>
<!-- src/enrich/derive/circular -->
<g id="node13" class="node">
<title>src/enrich/derive/circular</title>
<g id="a_node13"><a xlink:href="https://github.com/sverweij/dependency-cruiser/blob/develop/src/enrich/derive/circular" xlink:title="circular">
<polygon fill="#77eeaa" stroke="black" points="1058,-76 1006,-76 1004,-74 1004,-58 1056,-58 1058,-60 1058,-76"/>
<polyline fill="none" stroke="black" points="1056,-74 1004,-74 "/>
<polyline fill="none" stroke="black" points="1056,-74 1056,-58 "/>
<polyline fill="none" stroke="black" points="1056,-74 1058,-76 "/>
<text text-anchor="middle" x="1031" y="-64.8" font-family="Helvetica,sans-Serif" font-size="9.00">circular</text>
</a>
</g>
</g>
<!-- src/enrich&#45;&gt;src/enrich/derive/circular -->
<g id="edge12" class="edge">
<title>src/enrich&#45;&gt;src/enrich/derive/circular</title>
<path fill="none" stroke="#007766" stroke-width="2" stroke-opacity="0.466667" d="M1063.17,-119C1056.11,-119 1031,-119 1031,-119 1031,-119 1031,-82.06 1031,-82.06"/>
<polygon fill="#007766" fill-opacity="0.466667" stroke="#007766" stroke-width="2" stroke-opacity="0.466667" points="1033.1,-82.06 1031,-76.06 1028.9,-82.06 1033.1,-82.06"/>
</g>
<!-- src/enrich/derive/orphan -->
<g id="node14" class="node">
<title>src/enrich/derive/orphan</title>
<g id="a_node14"><a xlink:href="https://github.com/sverweij/dependency-cruiser/blob/develop/src/enrich/derive/orphan" xlink:title="orphan">
<polygon fill="#77eeaa" stroke="black" points="1194,-76 1142,-76 1140,-74 1140,-58 1192,-58 1194,-60 1194,-76"/>
<polyline fill="none" stroke="black" points="1192,-74 1140,-74 "/>
<polyline fill="none" stroke="black" points="1192,-74 1192,-58 "/>
<polyline fill="none" stroke="black" points="1192,-74 1194,-76 "/>
<text text-anchor="middle" x="1167" y="-64.8" font-family="Helvetica,sans-Serif" font-size="9.00">orphan</text>
</a>
</g>
</g>
<!-- src/enrich&#45;&gt;src/enrich/derive/orphan -->
<g id="edge13" class="edge">
<title>src/enrich&#45;&gt;src/enrich/derive/orphan</title>
<path fill="none" stroke="#007766" stroke-width="2" stroke-opacity="0.466667" d="M1066.66,-118C1079.38,-118 1160.75,-118 1160.75,-118 1160.75,-118 1160.75,-82.35 1160.75,-82.35"/>
<polygon fill="#007766" fill-opacity="0.466667" stroke="#007766" stroke-width="2" stroke-opacity="0.466667" points="1162.85,-82.35 1160.75,-76.35 1158.65,-82.35 1162.85,-82.35"/>
</g>
<!-- src/enrich/derive/reachable -->
<g id="node15" class="node">
<title>src/enrich/derive/reachable</title>
<g id="a_node15"><a xlink:href="https://github.com/sverweij/dependency-cruiser/blob/develop/src/enrich/derive/reachable" xlink:title="reachable">
<polygon fill="#77eeaa" stroke="black" points="1128,-76 1072,-76 1070,-74 1070,-58 1126,-58 1128,-60 1128,-76"/>
<polyline fill="none" stroke="black" points="1126,-74 1070,-74 "/>
<polyline fill="none" stroke="black" points="1126,-74 1126,-58 "/>
<polyline fill="none" stroke="black" points="1126,-74 1128,-76 "/>
<text text-anchor="middle" x="1099" y="-64.8" font-family="Helvetica,sans-Serif" font-size="9.00">reachable</text>
</a>
</g>
</g>
<!-- src/enrich&#45;&gt;src/enrich/derive/reachable -->
<g id="edge14" class="edge">
<title>src/enrich&#45;&gt;src/enrich/derive/reachable</title>
<path fill="none" stroke="#007766" stroke-width="2" stroke-opacity="0.466667" d="M1065.6,-117.27C1065.6,-108.25 1065.6,-67 1065.6,-67 1065.6,-67 1066.04,-67 1066.04,-67"/>
<polygon fill="#007766" fill-opacity="0.466667" stroke="#007766" stroke-width="2" stroke-opacity="0.466667" points="1063.97,-69.1 1069.97,-67 1063.97,-64.9 1063.97,-69.1"/>
</g>
<!-- src/validate -->
<g id="node16" class="node">
<title>src/validate</title>
<g id="a_node16"><a xlink:href="https://github.com/sverweij/dependency-cruiser/blob/develop/src/validate" xlink:title="validate">
<polygon fill="#ccccff" stroke="black" points="964,-76 912,-76 910,-74 910,-58 962,-58 964,-60 964,-76"/>
<polyline fill="none" stroke="black" points="962,-74 910,-74 "/>
<polyline fill="none" stroke="black" points="962,-74 962,-58 "/>
<polyline fill="none" stroke="black" points="962,-74 964,-76 "/>
<text text-anchor="middle" x="937" y="-64.8" font-family="Helvetica,sans-Serif" font-size="9.00">validate</text>
</a>
</g>
</g>
<!-- src/enrich&#45;&gt;src/validate -->
<g id="edge15" class="edge">
<title>src/enrich&#45;&gt;src/validate</title>
<path fill="none" stroke="#0000ff" stroke-width="2" stroke-opacity="0.466667" d="M1065,-121.03C1065,-122.42 1065,-124 1065,-124 1065,-124 958,-124 958,-124 958,-124 958,-82.16 958,-82.16"/>
<polygon fill="#0000ff" fill-opacity="0.466667" stroke="#0000ff" stroke-width="2" stroke-opacity="0.466667" points="960.1,-82.16 958,-76.16 955.9,-82.16 960.1,-82.16"/>
</g>
<!-- src/validate&#45;&gt;src/utl -->
<g id="edge53" class="edge">
<title>src/validate&#45;&gt;src/utl</title>
<path fill="none" stroke="#aaaaaa" stroke-width="2" stroke-opacity="0.466667" d="M909.6,-70C882.17,-70 844,-70 844,-70 844,-70 844,-40.11 844,-40.11"/>
<polygon fill="#aaaaaa" fill-opacity="0.466667" stroke="#aaaaaa" stroke-width="2" stroke-opacity="0.466667" points="846.1,-40.11 844,-34.11 841.9,-40.11 846.1,-40.11"/>
</g>
<!-- src/enrich/derive -->
<!-- src/extract&#45;&gt;src/extract/resolve -->
<g id="edge19" class="edge">
<title>src/extract&#45;&gt;src/extract/resolve</title>
<path fill="none" stroke="#007700" stroke-width="2" stroke-opacity="0.466667" d="M958.9,-267.45C958.9,-258.76 958.9,-224 958.9,-224 958.9,-224 960.25,-224 960.25,-224"/>
<polygon fill="#007700" fill-opacity="0.466667" stroke="#007700" stroke-width="2" stroke-opacity="0.466667" points="960.25,-226.1 966.25,-224 960.25,-221.9 960.25,-226.1"/>
</g>
<!-- src/extract&#45;&gt;src/utl -->
<g id="edge16" class="edge">
<title>src/extract&#45;&gt;src/utl</title>
<path fill="none" stroke="#aaaaaa" stroke-width="2" stroke-opacity="0.466667" d="M957.1,-267.7C957.1,-253.06 957.1,-149 957.1,-149 957.1,-149 837,-149 837,-149 837,-149 837,-40.32 837,-40.32"/>
<polygon fill="#aaaaaa" fill-opacity="0.466667" stroke="#aaaaaa" stroke-width="2" stroke-opacity="0.466667" points="839.1,-40.32 837,-34.32 834.9,-40.32 839.1,-40.32"/>
</g>
<!-- src/extract/parse -->
<g id="node19" class="node">
<title>src/extract/parse</title>
<g id="a_node19"><a xlink:href="https://github.com/sverweij/dependency-cruiser/blob/develop/src/extract/parse" xlink:title="parse">
<polygon fill="#ccffcc" stroke="black" points="936,-233.6 884,-233.6 882,-231.6 882,-215.6 934,-215.6 936,-217.6 936,-233.6"/>
<polyline fill="none" stroke="black" points="934,-231.6 882,-231.6 "/>
<polyline fill="none" stroke="black" points="934,-231.6 934,-215.6 "/>
<polyline fill="none" stroke="black" points="934,-231.6 936,-233.6 "/>
<text text-anchor="middle" x="909" y="-222.4" font-family="Helvetica,sans-Serif" font-size="9.00">parse</text>
</a>
</g>
</g>
<!-- src/extract&#45;&gt;src/extract/parse -->
<g id="edge17" class="edge">
<title>src/extract&#45;&gt;src/extract/parse</title>
<path fill="none" stroke="#007700" stroke-width="2" stroke-opacity="0.466667" d="M956.79,-268C949.24,-268 909,-268 909,-268 909,-268 909,-239.8 909,-239.8"/>
<polygon fill="#007700" fill-opacity="0.466667" stroke="#007700" stroke-width="2" stroke-opacity="0.466667" points="911.1,-239.8 909,-233.8 906.9,-239.8 911.1,-239.8"/>
</g>
<!-- src/extract&#45;&gt;src/extract/resolve/get&#45;manifest&#45;dependencies -->
<g id="edge18" class="edge">
<title>src/extract&#45;&gt;src/extract/resolve/get&#45;manifest&#45;dependencies</title>
<path fill="none" stroke="#007700" stroke-width="2" stroke-opacity="0.466667" d="M959.34,-268C970.84,-268 1052.6,-268 1052.6,-268 1052.6,-268 1052.6,-194.91 1052.6,-194.91"/>
<polygon fill="#007700" fill-opacity="0.466667" stroke="#007700" stroke-width="2" stroke-opacity="0.466667" points="1054.7,-194.91 1052.6,-188.91 1050.5,-194.91 1054.7,-194.91"/>
</g>
<!-- src/extract&#45;&gt;src/extract/transpile -->
<g id="edge20" class="edge">
<title>src/extract&#45;&gt;src/extract/transpile</title>
<path fill="none" stroke="#007700" stroke-width="2" stroke-opacity="0.466667" d="M956.14,-270C943.36,-270 869,-270 869,-270 869,-270 869,-195.11 869,-195.11"/>
<polygon fill="#007700" fill-opacity="0.466667" stroke="#007700" stroke-width="2" stroke-opacity="0.466667" points="871.1,-195.11 869,-189.11 866.9,-195.11 871.1,-195.11"/>
</g>
<!-- src/extract/ast&#45;extractors -->
<g id="node22" class="node">
<title>src/extract/ast&#45;extractors</title>
<g id="a_node22"><a xlink:href="https://github.com/sverweij/dependency-cruiser/blob/develop/src/extract/ast-extractors" xlink:title="ast&#45;extractors">
<polygon fill="#ccffcc" stroke="black" points="1181.5,-233.6 1112.5,-233.6 1110.5,-231.6 1110.5,-215.6 1179.5,-215.6 1181.5,-217.6 1181.5,-233.6"/>
<polyline fill="none" stroke="black" points="1179.5,-231.6 1110.5,-231.6 "/>
<polyline fill="none" stroke="black" points="1179.5,-231.6 1179.5,-215.6 "/>
<polyline fill="none" stroke="black" points="1179.5,-231.6 1181.5,-233.6 "/>
<text text-anchor="middle" x="1146" y="-222.4" font-family="Helvetica,sans-Serif" font-size="9.00">ast&#45;extractors</text>
</a>
</g>
</g>
<!-- src/extract&#45;&gt;src/extract/ast&#45;extractors -->
<g id="edge21" class="edge">
<title>src/extract&#45;&gt;src/extract/ast&#45;extractors</title>
<path fill="none" stroke="#007700" stroke-width="2" stroke-opacity="0.466667" d="M960.11,-270C980.77,-270 1146,-270 1146,-270 1146,-270 1146,-239.79 1146,-239.79"/>
<polygon fill="#007700" fill-opacity="0.466667" stroke="#007700" stroke-width="2" stroke-opacity="0.466667" points="1148.1,-239.79 1146,-233.79 1143.9,-239.79 1148.1,-239.79"/>
</g>
<!-- src/extract&#45;&gt;src/extract/utl -->
<g id="edge22" class="edge">
<title>src/extract&#45;&gt;src/extract/utl</title>
<path fill="none" stroke="#007700" stroke-width="2" stroke-opacity="0.466667" d="M957.4,-271.27C957.4,-272.54 957.4,-274 957.4,-274 957.4,-274 940.67,-274 940.67,-274 940.67,-274 940.67,-194.83 940.67,-194.83"/>
<polygon fill="#007700" fill-opacity="0.466667" stroke="#007700" stroke-width="2" stroke-opacity="0.466667" points="942.77,-194.83 940.67,-188.83 938.57,-194.83 942.77,-194.83"/>
</g>
<!-- src/extract/parse&#45;&gt;src/extract/transpile -->
<g id="edge23" class="edge">
<title>src/extract/parse&#45;&gt;src/extract/transpile</title>
<path fill="none" stroke="#007700" stroke-width="2" stroke-opacity="0.466667" d="M890,-215.37C890,-202.05 890,-179 890,-179 890,-179 889.43,-179 889.43,-179"/>
<polygon fill="#007700" fill-opacity="0.466667" stroke="#007700" stroke-width="2" stroke-opacity="0.466667" points="890.25,-176.9 884.25,-179 890.25,-181.1 890.25,-176.9"/>
</g>
<!-- src/extract/parse&#45;&gt;src/extract/utl -->
<g id="edge24" class="edge">
<title>src/extract/parse&#45;&gt;src/extract/utl</title>
<path fill="none" stroke="#007700" stroke-width="2" stroke-opacity="0.466667" d="M916,-215.53C916,-215.53 916,-194.85 916,-194.85"/>
<polygon fill="#007700" fill-opacity="0.466667" stroke="#007700" stroke-width="2" stroke-opacity="0.466667" points="918.1,-194.85 916,-188.85 913.9,-194.85 918.1,-194.85"/>
</g>
<!-- src/report&#45;&gt;src/utl -->
<g id="edge48" class="edge">
<title>src/report&#45;&gt;src/utl</title>
<path fill="none" stroke="#aaaaaa" stroke-width="2" stroke-opacity="0.466667" d="M621.4,-177.96C621.4,-176.27 621.4,-174 621.4,-174 621.4,-174 814.5,-174 814.5,-174 814.5,-174 814.5,-40.32 814.5,-40.32"/>
<polygon fill="#aaaaaa" fill-opacity="0.466667" stroke="#aaaaaa" stroke-width="2" stroke-opacity="0.466667" points="816.6,-40.32 814.5,-34.32 812.4,-40.32 816.6,-40.32"/>
</g>
<!-- src/report/anon -->
<g id="node30" class="node">
<title>src/report/anon</title>
<g id="a_node30"><a xlink:href="https://github.com/sverweij/dependency-cruiser/blob/develop/src/report/anon" xlink:title="anon">
<polygon fill="#ffccff" stroke="black" points="592,-128 540,-128 538,-126 538,-110 590,-110 592,-112 592,-128"/>
<polyline fill="none" stroke="black" points="590,-126 538,-126 "/>
<polyline fill="none" stroke="black" points="590,-126 590,-110 "/>
<polyline fill="none" stroke="black" points="590,-126 592,-128 "/>
<text text-anchor="middle" x="565" y="-116.8" font-family="Helvetica,sans-Serif" font-size="9.00">anon</text>
</a>
</g>
</g>
<!-- src/report&#45;&gt;src/report/anon -->
<g id="edge43" class="edge">
<title>src/report&#45;&gt;src/report/anon</title>
<path fill="none" stroke="#ff00ff" stroke-width="2" stroke-opacity="0.466667" d="M620.17,-179C613.11,-179 588,-179 588,-179 588,-179 588,-134.11 588,-134.11"/>
<polygon fill="#ff00ff" fill-opacity="0.466667" stroke="#ff00ff" stroke-width="2" stroke-opacity="0.466667" points="590.1,-134.11 588,-128.11 585.9,-134.11 590.1,-134.11"/>
</g>
<!-- src/report/dot -->
<g id="node31" class="node">
<title>src/report/dot</title>
<g id="a_node31"><a xlink:href="https://github.com/sverweij/dependency-cruiser/blob/develop/src/report/dot" xlink:title="dot">
<polygon fill="#ffccff" stroke="black" points="658,-128 606,-128 604,-126 604,-110 656,-110 658,-112 658,-128"/>
<polyline fill="none" stroke="black" points="656,-126 604,-126 "/>
<polyline fill="none" stroke="black" points="656,-126 656,-110 "/>
<polyline fill="none" stroke="black" points="656,-126 658,-128 "/>
<text text-anchor="middle" x="631" y="-116.8" font-family="Helvetica,sans-Serif" font-size="9.00">dot</text>
</a>
</g>
</g>
<!-- src/report&#45;&gt;src/report/dot -->
<g id="edge44" class="edge">
<title>src/report&#45;&gt;src/report/dot</title>
<path fill="none" stroke="#ff00ff" stroke-width="2" stroke-opacity="0.466667" d="M622.6,-178.05C622.6,-178.05 622.6,-134.21 622.6,-134.21"/>
<polygon fill="#ff00ff" fill-opacity="0.466667" stroke="#ff00ff" stroke-width="2" stroke-opacity="0.466667" points="624.7,-134.21 622.6,-128.21 620.5,-134.21 624.7,-134.21"/>
</g>
<!-- src/report/error&#45;html -->
<g id="node32" class="node">
<title>src/report/error&#45;html</title>
<g id="a_node32"><a xlink:href="https://github.com/sverweij/dependency-cruiser/blob/develop/src/report/error-html" xlink:title="error&#45;html">
<polygon fill="#ffccff" stroke="black" points="726,-128 672,-128 670,-126 670,-110 724,-110 726,-112 726,-128"/>
<polyline fill="none" stroke="black" points="724,-126 670,-126 "/>
<polyline fill="none" stroke="black" points="724,-126 724,-110 "/>
<polyline fill="none" stroke="black" points="724,-126 726,-128 "/>
<text text-anchor="middle" x="698" y="-116.8" font-family="Helvetica,sans-Serif" font-size="9.00">error&#45;html</text>
</a>
</g>
</g>
<!-- src/report&#45;&gt;src/report/error&#45;html -->
<g id="edge45" class="edge">
<title>src/report&#45;&gt;src/report/error&#45;html</title>
<path fill="none" stroke="#ff00ff" stroke-width="2" stroke-opacity="0.466667" d="M623.88,-179C635.58,-179 698,-179 698,-179 698,-179 698,-134.11 698,-134.11"/>
<polygon fill="#ff00ff" fill-opacity="0.466667" stroke="#ff00ff" stroke-width="2" stroke-opacity="0.466667" points="700.1,-134.11 698,-128.11 695.9,-134.11 700.1,-134.11"/>
</g>
<!-- src/report/html -->
<g id="node33" class="node">
<title>src/report/html</title>
<g id="a_node33"><a xlink:href="https://github.com/sverweij/dependency-cruiser/blob/develop/src/report/html" xlink:title="html">
<polygon fill="#ffccff" stroke="black" points="792,-128 740,-128 738,-126 738,-110 790,-110 792,-112 792,-128"/>
<polyline fill="none" stroke="black" points="790,-126 738,-126 "/>
<polyline fill="none" stroke="black" points="790,-126 790,-110 "/>
<polyline fill="none" stroke="black" points="790,-126 792,-128 "/>
<text text-anchor="middle" x="765" y="-116.8" font-family="Helvetica,sans-Serif" font-size="9.00">html</text>
</a>
</g>
</g>
<!-- src/report&#45;&gt;src/report/html -->
<g id="edge46" class="edge">
<title>src/report&#45;&gt;src/report/html</title>
<path fill="none" stroke="#ff00ff" stroke-width="2" stroke-opacity="0.466667" d="M622.6,-181.92C622.6,-183.35 622.6,-185 622.6,-185 622.6,-185 765,-185 765,-185 765,-185 765,-134.18 765,-134.18"/>
<polygon fill="#ff00ff" fill-opacity="0.466667" stroke="#ff00ff" stroke-width="2" stroke-opacity="0.466667" points="767.1,-134.18 765,-128.18 762.9,-134.18 767.1,-134.18"/>
</g>
<!-- src/report/utl -->
<g id="node34" class="node">
<title>src/report/utl</title>
<g id="a_node34"><a xlink:href="https://github.com/sverweij/dependency-cruiser/blob/develop/src/report/utl" xlink:title="utl">
<polygon fill="#ffccff" stroke="black" points="799,-76 747,-76 745,-74 745,-58 797,-58 799,-60 799,-76"/>
<polyline fill="none" stroke="black" points="797,-74 745,-74 "/>
<polyline fill="none" stroke="black" points="797,-74 797,-58 "/>
<polyline fill="none" stroke="black" points="797,-74 799,-76 "/>
<text text-anchor="middle" x="772" y="-64.8" font-family="Helvetica,sans-Serif" font-size="9.00">utl</text>
</a>
</g>
</g>
<!-- src/report&#45;&gt;src/report/utl -->
<g id="edge47" class="edge">
<title>src/report&#45;&gt;src/report/utl</title>
<path fill="none" stroke="#ff00ff" stroke-width="2" stroke-opacity="0.466667" d="M623.95,-180C643.01,-180 795.5,-180 795.5,-180 795.5,-180 795.5,-82.25 795.5,-82.25"/>
<polygon fill="#ff00ff" fill-opacity="0.466667" stroke="#ff00ff" stroke-width="2" stroke-opacity="0.466667" points="797.6,-82.25 795.5,-76.25 793.4,-82.25 797.6,-82.25"/>
</g>
<!-- src/main/options&#45;&gt;src/report -->
<g id="edge38" class="edge">
<title>src/main/options&#45;&gt;src/report</title>
<path fill="none" stroke="#ff00ff" stroke-width="2" stroke-opacity="0.466667" d="M478.09,-221C490.86,-221 503.33,-221 503.33,-221 503.33,-221 503.33,-180 503.33,-180 503.33,-180 613.94,-180 613.94,-180"/>
<polygon fill="#ff00ff" fill-opacity="0.466667" stroke="#ff00ff" stroke-width="2" stroke-opacity="0.466667" points="613.94,-182.1 619.94,-180 613.94,-177.9 613.94,-182.1"/>
</g>
<!-- src/main/utl -->
<g id="node29" class="node">
<title>src/main/utl</title>
<g id="a_node29"><a xlink:href="https://github.com/sverweij/dependency-cruiser/blob/develop/src/main/utl" xlink:title="utl">
<polygon fill="#ffcccc" stroke="black" points="498,-188.8 446,-188.8 444,-186.8 444,-170.8 496,-170.8 498,-172.8 498,-188.8"/>
<polyline fill="none" stroke="black" points="496,-186.8 444,-186.8 "/>
<polyline fill="none" stroke="black" points="496,-186.8 496,-170.8 "/>
<polyline fill="none" stroke="black" points="496,-186.8 498,-188.8 "/>
<text text-anchor="middle" x="471" y="-177.6" font-family="Helvetica,sans-Serif" font-size="9.00">utl</text>
</a>
</g>
</g>
<!-- src/main/options&#45;&gt;src/main/utl -->
<g id="edge37" class="edge">
<title>src/main/options&#45;&gt;src/main/utl</title>
<path fill="none" stroke="#770000" stroke-width="2" stroke-opacity="0.466667" d="M461,-215.53C461,-215.53 461,-194.85 461,-194.85"/>
<polygon fill="#770000" fill-opacity="0.466667" stroke="#770000" stroke-width="2" stroke-opacity="0.466667" points="463.1,-194.85 461,-188.85 458.9,-194.85 463.1,-194.85"/>
</g>
<!-- src/main/rule&#45;set&#45;&gt;src/schema -->
<g id="edge41" class="edge">
<title>src/main/rule&#45;set&#45;&gt;src/schema</title>
<path fill="none" stroke="#000000" stroke-width="2" stroke-opacity="0.200000" d="M508.67,-259.99C508.67,-247.5 508.67,-227 508.67,-227 508.67,-227 523.73,-227 523.73,-227"/>
<polygon fill="#000000" fill-opacity="0.200000" stroke="#000000" stroke-width="2" stroke-opacity="0.200000" points="523.73,-229.1 529.73,-227 523.73,-224.9 523.73,-229.1"/>
</g>
<!-- src/main/rule&#45;set&#45;&gt;src/main/options -->
<g id="edge42" class="edge">
<title>src/main/rule&#45;set&#45;&gt;src/main/options</title>
<path fill="none" stroke="#770000" stroke-width="2" stroke-opacity="0.466667" d="M469,-260.33C469,-260.33 469,-239.65 469,-239.65"/>
<polygon fill="#770000" fill-opacity="0.466667" stroke="#770000" stroke-width="2" stroke-opacity="0.466667" points="471.1,-239.65 469,-233.65 466.9,-239.65 471.1,-239.65"/>
</g>
<!-- src/main/rule&#45;set&#45;&gt;src/main/utl -->
<g id="edge40" class="edge">
<title>src/main/rule&#45;set&#45;&gt;src/main/utl</title>
<path fill="none" stroke="#770000" stroke-width="2" stroke-opacity="0.466667" d="M488,-260.15C488,-260.15 488,-194.87 488,-194.87"/>
<polygon fill="#770000" fill-opacity="0.466667" stroke="#770000" stroke-width="2" stroke-opacity="0.466667" points="490.1,-194.87 488,-188.87 485.9,-194.87 490.1,-194.87"/>
</g>
<!-- src/report/dot&#45;&gt;src/utl -->
<g id="edge49" class="edge">
<title>src/report/dot&#45;&gt;src/utl</title>
<path fill="none" stroke="#aaaaaa" stroke-width="2" stroke-opacity="0.466667" d="M622,-109.94C622,-86.92 622,-28 622,-28 622,-28 790.76,-28 790.76,-28"/>
<polygon fill="#aaaaaa" fill-opacity="0.466667" stroke="#aaaaaa" stroke-width="2" stroke-opacity="0.466667" points="790.76,-30.1 796.76,-28 790.76,-25.9 790.76,-30.1"/>
</g>
<!-- src/report/dot&#45;&gt;src/report/utl -->
<g id="edge50" class="edge">
<title>src/report/dot&#45;&gt;src/report/utl</title>
<path fill="none" stroke="#ff00ff" stroke-width="2" stroke-opacity="0.466667" d="M640,-109.94C640,-95.04 640,-67 640,-67 640,-67 738.97,-67 738.97,-67"/>
<polygon fill="#ff00ff" fill-opacity="0.466667" stroke="#ff00ff" stroke-width="2" stroke-opacity="0.466667" points="738.97,-69.1 744.97,-67 738.97,-64.9 738.97,-69.1"/>
</g>
<!-- src/report/html&#45;&gt;src/report/utl -->
<g id="edge51" class="edge">
<title>src/report/html&#45;&gt;src/report/utl</title>
<path fill="none" stroke="#ff00ff" stroke-width="2" stroke-opacity="0.466667" d="M768.5,-109.94C768.5,-109.94 768.5,-82.3 768.5,-82.3"/>
<polygon fill="#ff00ff" fill-opacity="0.466667" stroke="#ff00ff" stroke-width="2" stroke-opacity="0.466667" points="770.6,-82.3 768.5,-76.3 766.4,-82.3 770.6,-82.3"/>
</g>
<!-- src/report/utl&#45;&gt;src/utl -->
<g id="edge52" class="edge">
<title>src/report/utl&#45;&gt;src/utl</title>
<path fill="none" stroke="#aaaaaa" stroke-width="2" stroke-opacity="0.466667" d="M799.04,-64C803.52,-64 806.75,-64 806.75,-64 806.75,-64 806.75,-40.05 806.75,-40.05"/>
<polygon fill="#aaaaaa" fill-opacity="0.466667" stroke="#aaaaaa" stroke-width="2" stroke-opacity="0.466667" points="808.85,-40.05 806.75,-34.05 804.65,-40.05 808.85,-40.05"/>
</g>
</g>
</svg>
