<?xml version="1.0" encoding="UTF-8" standalone="no"?>
<!DOCTYPE svg PUBLIC "-//W3C//DTD SVG 1.1//EN"
 "http://www.w3.org/Graphics/SVG/1.1/DTD/svg11.dtd">
<!-- Generated by graphviz version 2.43.0 (0)
 -->
<!-- Title: dependency&#45;cruiser output Pages: 1 -->
<svg width="966pt" height="391pt"
 viewBox="0.00 0.00 966.00 390.90" xmlns="http://www.w3.org/2000/svg" xmlns:xlink="http://www.w3.org/1999/xlink">
<g id="graph0" class="graph" transform="scale(1 1) rotate(0) translate(4 386.9)">
<title>dependency&#45;cruiser output</title>
<polygon fill="white" stroke="transparent" points="-4,4 -4,-386.9 962,-386.9 962,4 -4,4"/>
<g id="clust1" class="cluster">
<title>cluster_src</title>
<path fill="#ffffff" stroke="black" stroke-width="2" d="M20,-8C20,-8 938,-8 938,-8 944,-8 950,-14 950,-20 950,-20 950,-345.9 950,-345.9 950,-351.9 944,-357.9 938,-357.9 938,-357.9 20,-357.9 20,-357.9 14,-357.9 8,-351.9 8,-345.9 8,-345.9 8,-20 8,-20 8,-14 14,-8 20,-8"/>
<text text-anchor="middle" x="479" y="-346.7" font-family="Helvetica,sans-Serif" font-weight="bold" font-size="9.00">src</text>
</g>
<g id="clust7" class="cluster">
<title>cluster_src/report</title>
<path fill="#ffffff" stroke="black" stroke-width="2" d="M28,-16C28,-16 338,-16 338,-16 344,-16 350,-22 350,-28 350,-28 350,-118.3 350,-118.3 350,-124.3 344,-130.3 338,-130.3 338,-130.3 28,-130.3 28,-130.3 22,-130.3 16,-124.3 16,-118.3 16,-118.3 16,-28 16,-28 16,-22 22,-16 28,-16"/>
<text text-anchor="middle" x="183" y="-119.1" font-family="Helvetica,sans-Serif" font-weight="bold" font-size="9.00">report</text>
</g>
<g id="clust3" class="cluster">
<title>cluster_src/extract</title>
<path fill="#ffffff" stroke="black" stroke-width="2" d="M432,-79C432,-79 930,-79 930,-79 936,-79 942,-85 942,-91 942,-91 942,-219.6 942,-219.6 942,-225.6 936,-231.6 930,-231.6 930,-231.6 432,-231.6 432,-231.6 426,-231.6 420,-225.6 420,-219.6 420,-219.6 420,-91 420,-91 420,-85 426,-79 432,-79"/>
<text text-anchor="middle" x="681" y="-220.4" font-family="Helvetica,sans-Serif" font-weight="bold" font-size="9.00">extract</text>
</g>
<g id="clust4" class="cluster">
<title>cluster_src/extract/derive</title>
<path fill="#ffffff" stroke="black" stroke-width="2" d="M612,-138.3C612,-138.3 808,-138.3 808,-138.3 814,-138.3 820,-144.3 820,-150.3 820,-150.3 820,-176.3 820,-176.3 820,-182.3 814,-188.3 808,-188.3 808,-188.3 612,-188.3 612,-188.3 606,-188.3 600,-182.3 600,-176.3 600,-176.3 600,-150.3 600,-150.3 600,-144.3 606,-138.3 612,-138.3"/>
<text text-anchor="middle" x="710" y="-177.1" font-family="Helvetica,sans-Serif" font-weight="bold" font-size="9.00">derive</text>
</g>
<g id="clust5" class="cluster">
<title>cluster_src/extract/resolve</title>
<path fill="#ffffff" stroke="black" stroke-width="2" d="M840,-87C840,-87 922,-87 922,-87 928,-87 934,-93 934,-99 934,-99 934,-169.6 934,-169.6 934,-175.6 928,-181.6 922,-181.6 922,-181.6 840,-181.6 840,-181.6 834,-181.6 828,-175.6 828,-169.6 828,-169.6 828,-99 828,-99 828,-93 834,-87 840,-87"/>
<text text-anchor="middle" x="881" y="-170.4" font-family="Helvetica,sans-Serif" font-weight="bold" font-size="9.00">resolve</text>
</g>
<g id="clust6" class="cluster">
<title>cluster_src/main</title>
<path fill="#ffffff" stroke="black" stroke-width="2" d="M142,-138.3C142,-138.3 366,-138.3 366,-138.3 372,-138.3 378,-144.3 378,-150.3 378,-150.3 378,-270.9 378,-270.9 378,-276.9 372,-282.9 366,-282.9 366,-282.9 142,-282.9 142,-282.9 136,-282.9 130,-276.9 130,-270.9 130,-270.9 130,-150.3 130,-150.3 130,-144.3 136,-138.3 142,-138.3"/>
<text text-anchor="middle" x="254" y="-271.7" font-family="Helvetica,sans-Serif" font-weight="bold" font-size="9.00">main</text>
</g>
<g id="clust2" class="cluster">
<title>cluster_src/cli</title>
<path fill="#ffffff" stroke="black" stroke-width="2" d="M398,-239.6C398,-239.6 596,-239.6 596,-239.6 602,-239.6 608,-245.6 608,-251.6 608,-251.6 608,-320.9 608,-320.9 608,-326.9 602,-332.9 596,-332.9 596,-332.9 398,-332.9 398,-332.9 392,-332.9 386,-326.9 386,-320.9 386,-320.9 386,-251.6 386,-251.6 386,-245.6 392,-239.6 398,-239.6"/>
<text text-anchor="middle" x="497" y="-321.7" font-family="Helvetica,sans-Serif" font-weight="bold" font-size="9.00">cli</text>
</g>
<!-- bin -->
<g id="node1" class="node">
<title>bin</title>
<g id="a_node1"><a xlink:href="https://github.com/sverweij/dependency-cruiser/blob/develop/bin" xlink:title="bin">
<polygon fill="#ffffcc" stroke="black" points="544,-382.9 491.89,-382.9 490,-381.01 490,-365.9 542.11,-365.9 544,-367.79 544,-382.9"/>
<polyline fill="none" stroke="black" points="542.11,-381.01 490,-381.01 "/>
<polyline fill="none" stroke="black" points="542.11,-381.01 542.11,-365.9 "/>
<polyline fill="none" stroke="black" points="542.11,-381.01 544,-382.9 "/>
<text text-anchor="middle" x="517" y="-371.7" font-family="Helvetica,sans-Serif" font-size="9.00">bin</text>
</a>
</g>
</g>
<!-- src/cli -->
<!-- bin&#45;&gt;src/cli -->
<g id="edge1" class="edge">
<title>bin&#45;&gt;src/cli</title>
<path fill="none" stroke="#0000ff" stroke-width="2" stroke-opacity="0.466667" d="M496.4,-365.8C496.4,-365.8 496.4,-307.44 496.4,-307.44"/>
<polygon fill="#0000ff" fill-opacity="0.466667" stroke="#0000ff" stroke-width="2" stroke-opacity="0.466667" points="498.5,-307.44 496.4,-301.44 494.3,-307.45 498.5,-307.44"/>
</g>
<!-- src/cli/tools -->
<g id="node3" class="node">
<title>src/cli/tools</title>
<g id="a_node3"><a xlink:href="https://github.com/sverweij/dependency-cruiser/blob/develop/src/cli/tools" xlink:title="tools">
<polygon fill="#ccccff" stroke="black" points="565,-307.9 512.89,-307.9 511,-306.01 511,-290.9 563.11,-290.9 565,-292.79 565,-307.9"/>
<polyline fill="none" stroke="black" points="563.11,-306.01 511,-306.01 "/>
<polyline fill="none" stroke="black" points="563.11,-306.01 563.11,-290.9 "/>
<polyline fill="none" stroke="black" points="563.11,-306.01 565,-307.9 "/>
<text text-anchor="middle" x="538" y="-296.7" font-family="Helvetica,sans-Serif" font-size="9.00">tools</text>
</a>
</g>
</g>
<!-- bin&#45;&gt;src/cli/tools -->
<g id="edge2" class="edge">
<title>bin&#45;&gt;src/cli/tools</title>
<path fill="none" stroke="#0000ff" stroke-width="2" stroke-opacity="0.466667" d="M527.5,-365.8C527.5,-365.8 527.5,-313.9 527.5,-313.9"/>
<polygon fill="#0000ff" fill-opacity="0.466667" stroke="#0000ff" stroke-width="2" stroke-opacity="0.466667" points="529.6,-313.9 527.5,-307.9 525.4,-313.9 529.6,-313.9"/>
</g>
<!-- src/main -->
<!-- src/cli&#45;&gt;src/main -->
<g id="edge3" class="edge">
<title>src/cli&#45;&gt;src/main</title>
<path fill="none" stroke="#770000" stroke-width="2" stroke-opacity="0.466667" d="M495.14,-300C470.27,-300 205,-300 205,-300 205,-300 205,-263.99 205,-263.99"/>
<polygon fill="#770000" fill-opacity="0.466667" stroke="#770000" stroke-width="2" stroke-opacity="0.466667" points="207.1,-263.99 205,-257.99 202.9,-263.99 207.1,-263.99"/>
</g>
<!-- src/cli/utl -->
<g id="node6" class="node">
<title>src/cli/utl</title>
<g id="a_node6"><a xlink:href="https://github.com/sverweij/dependency-cruiser/blob/develop/src/cli/utl" xlink:title="utl">
<polygon fill="#ccccff" stroke="black" points="448,-264.6 395.89,-264.6 394,-262.71 394,-247.6 446.11,-247.6 448,-249.49 448,-264.6"/>
<polyline fill="none" stroke="black" points="446.11,-262.71 394,-262.71 "/>
<polyline fill="none" stroke="black" points="446.11,-262.71 446.11,-247.6 "/>
<polyline fill="none" stroke="black" points="446.11,-262.71 448,-264.6 "/>
<text text-anchor="middle" x="421" y="-253.4" font-family="Helvetica,sans-Serif" font-size="9.00">utl</text>
</a>
</g>
</g>
<!-- src/cli&#45;&gt;src/cli/utl -->
<g id="edge4" class="edge">
<title>src/cli&#45;&gt;src/cli/utl</title>
<path fill="none" stroke="#0000ff" stroke-width="2" stroke-opacity="0.466667" d="M495.68,-298C485.59,-298 421,-298 421,-298 421,-298 421,-270.99 421,-270.99"/>
<polygon fill="#0000ff" fill-opacity="0.466667" stroke="#0000ff" stroke-width="2" stroke-opacity="0.466667" points="423.1,-270.99 421,-264.99 418.9,-270.99 423.1,-270.99"/>
</g>
<!-- src/cli/compileConfig -->
<g id="node7" class="node">
<title>src/cli/compileConfig</title>
<g id="a_node7"><a xlink:href="https://github.com/sverweij/dependency-cruiser/blob/develop/src/cli/compileConfig" xlink:title="compileConfig">
<polygon fill="#ccccff" stroke="black" points="533.53,-264.6 462.36,-264.6 460.47,-262.71 460.47,-247.6 531.64,-247.6 533.53,-249.49 533.53,-264.6"/>
<polyline fill="none" stroke="black" points="531.64,-262.71 460.47,-262.71 "/>
<polyline fill="none" stroke="black" points="531.64,-262.71 531.64,-247.6 "/>
<polyline fill="none" stroke="black" points="531.64,-262.71 533.53,-264.6 "/>
<text text-anchor="middle" x="497" y="-253.4" font-family="Helvetica,sans-Serif" font-size="9.00">compileConfig</text>
</a>
</g>
</g>
<!-- src/cli&#45;&gt;src/cli/compileConfig -->
<g id="edge5" class="edge">
<title>src/cli&#45;&gt;src/cli/compileConfig</title>
<path fill="none" stroke="#0000ff" stroke-width="2" stroke-opacity="0.466667" d="M497,-297.54C497,-297.54 497,-270.76 497,-270.76"/>
<polygon fill="#0000ff" fill-opacity="0.466667" stroke="#0000ff" stroke-width="2" stroke-opacity="0.466667" points="499.1,-270.76 497,-264.76 494.9,-270.76 499.1,-270.76"/>
</g>
<!-- src/cli/initConfig -->
<g id="node8" class="node">
<title>src/cli/initConfig</title>
<g id="a_node8"><a xlink:href="https://github.com/sverweij/dependency-cruiser/blob/develop/src/cli/initConfig" xlink:title="initConfig">
<polygon fill="#ccccff" stroke="black" points="600,-264.6 547.89,-264.6 546,-262.71 546,-247.6 598.11,-247.6 600,-249.49 600,-264.6"/>
<polyline fill="none" stroke="black" points="598.11,-262.71 546,-262.71 "/>
<polyline fill="none" stroke="black" points="598.11,-262.71 598.11,-247.6 "/>
<polyline fill="none" stroke="black" points="598.11,-262.71 600,-264.6 "/>
<text text-anchor="middle" x="573" y="-253.4" font-family="Helvetica,sans-Serif" font-size="9.00">initConfig</text>
</a>
</g>
</g>
<!-- src/cli&#45;&gt;src/cli/initConfig -->
<g id="edge6" class="edge">
<title>src/cli&#45;&gt;src/cli/initConfig</title>
<path fill="none" stroke="#0000ff" stroke-width="2" stroke-opacity="0.466667" d="M498.83,-299C501.17,-299 504.9,-299 504.9,-299 504.9,-299 504.9,-273 504.9,-273 504.9,-273 555.5,-273 555.5,-273 555.5,-273 555.5,-270.95 555.5,-270.95"/>
<polygon fill="#0000ff" fill-opacity="0.466667" stroke="#0000ff" stroke-width="2" stroke-opacity="0.466667" points="557.6,-270.95 555.5,-264.95 553.4,-270.95 557.6,-270.95"/>
</g>
<!-- src -->
<!-- src/main/resolveOptions -->
<g id="node10" class="node">
<title>src/main/resolveOptions</title>
<g id="a_node10"><a xlink:href="https://github.com/sverweij/dependency-cruiser/blob/develop/src/main/resolveOptions" xlink:title="resolveOptions">
<polygon fill="#ffcccc" stroke="black" points="370.03,-213.3 295.86,-213.3 293.97,-211.41 293.97,-196.3 368.14,-196.3 370.03,-198.19 370.03,-213.3"/>
<polyline fill="none" stroke="black" points="368.14,-211.41 293.97,-211.41 "/>
<polyline fill="none" stroke="black" points="368.14,-211.41 368.14,-196.3 "/>
<polyline fill="none" stroke="black" points="368.14,-211.41 370.03,-213.3 "/>
<text text-anchor="middle" x="332" y="-202.1" font-family="Helvetica,sans-Serif" font-size="9.00">resolveOptions</text>
</a>
</g>
</g>
<!-- src/main&#45;&gt;src/main/resolveOptions -->
<g id="edge31" class="edge">
<title>src/main&#45;&gt;src/main/resolveOptions</title>
<path fill="none" stroke="#770000" stroke-width="2" stroke-opacity="0.466667" d="M205.9,-257.8C205.9,-263.56 205.9,-282 205.9,-282 205.9,-282 319.33,-282 319.33,-282 319.33,-282 319.33,-219.36 319.33,-219.36"/>
<polygon fill="#770000" fill-opacity="0.466667" stroke="#770000" stroke-width="2" stroke-opacity="0.466667" points="321.43,-219.36 319.33,-213.36 317.23,-219.36 321.43,-219.36"/>
</g>
<!-- src/extract -->
<!-- src/main&#45;&gt;src/extract -->
<g id="edge25" class="edge">
<title>src/main&#45;&gt;src/extract</title>
<path fill="none" stroke="#007700" stroke-width="2" stroke-opacity="0.466667" d="M204.1,-257.66C204.1,-269.6 204.1,-346 204.1,-346 204.1,-346 454.24,-346 454.24,-346 454.24,-346 454.24,-205 454.24,-205 454.24,-205 525.05,-205 525.05,-205"/>
<polygon fill="#007700" fill-opacity="0.466667" stroke="#007700" stroke-width="2" stroke-opacity="0.466667" points="525.05,-207.1 531.05,-205 525.05,-202.9 525.05,-207.1"/>
</g>
<!-- src/extract/transpile -->
<g id="node21" class="node">
<title>src/extract/transpile</title>
<g id="a_node21"><a xlink:href="https://github.com/sverweij/dependency-cruiser/blob/develop/src/extract/transpile" xlink:title="transpile">
<polygon fill="#ccffcc" stroke="black" points="492,-112 439.89,-112 438,-110.11 438,-95 490.11,-95 492,-96.89 492,-112"/>
<polyline fill="none" stroke="black" points="490.11,-110.11 438,-110.11 "/>
<polyline fill="none" stroke="black" points="490.11,-110.11 490.11,-95 "/>
<polyline fill="none" stroke="black" points="490.11,-110.11 492,-112 "/>
<text text-anchor="middle" x="465" y="-100.8" font-family="Helvetica,sans-Serif" font-size="9.00">transpile</text>
</a>
</g>
</g>
<!-- src/main&#45;&gt;src/extract/transpile -->
<g id="edge26" class="edge">
<title>src/main&#45;&gt;src/extract/transpile</title>
<path fill="none" stroke="#007700" stroke-width="2" stroke-opacity="0.466667" d="M205.6,-254.19C205.6,-242.32 205.6,-179 205.6,-179 205.6,-179 418.5,-179 418.5,-179 418.5,-179 418.5,-100 418.5,-100 418.5,-100 431.95,-100 431.95,-100"/>
<polygon fill="#007700" fill-opacity="0.466667" stroke="#007700" stroke-width="2" stroke-opacity="0.466667" points="431.95,-102.1 437.95,-100 431.95,-97.9 431.95,-102.1"/>
</g>
<!-- src/report -->
<!-- src/main&#45;&gt;src/report -->
<g id="edge27" class="edge">
<title>src/main&#45;&gt;src/report</title>
<path fill="none" stroke="#ff00ff" stroke-width="2" stroke-opacity="0.466667" d="M206.99,-256C226.43,-256 382.01,-256 382.01,-256 382.01,-256 382.01,-129 382.01,-129 382.01,-129 183.6,-129 183.6,-129 183.6,-129 183.6,-111.5 183.6,-111.5"/>
<polygon fill="#ff00ff" fill-opacity="0.466667" stroke="#ff00ff" stroke-width="2" stroke-opacity="0.466667" points="185.7,-111.5 183.6,-105.5 181.5,-111.5 185.7,-111.5"/>
</g>
<!-- src/schema -->
<g id="node24" class="node">
<title>src/schema</title>
<g id="a_node24"><a xlink:href="https://github.com/sverweij/dependency-cruiser/blob/develop/src/schema" xlink:title="schema">
<polygon fill="#ffffcc" stroke="black" points="122,-163.3 69.89,-163.3 68,-161.41 68,-146.3 120.11,-146.3 122,-148.19 122,-163.3"/>
<polyline fill="none" stroke="black" points="120.11,-161.41 68,-161.41 "/>
<polyline fill="none" stroke="black" points="120.11,-161.41 120.11,-146.3 "/>
<polyline fill="none" stroke="black" points="120.11,-161.41 122,-163.3 "/>
<text text-anchor="middle" x="95" y="-152.1" font-family="Helvetica,sans-Serif" font-size="9.00">schema</text>
</a>
</g>
</g>
<!-- src/main&#45;&gt;src/schema -->
<g id="edge28" class="edge">
<title>src/main&#45;&gt;src/schema</title>
<path fill="none" stroke="#000000" stroke-width="2" stroke-opacity="0.200000" d="M203.09,-256C188.48,-256 95,-256 95,-256 95,-256 95,-169.43 95,-169.43"/>
<polygon fill="#000000" fill-opacity="0.200000" stroke="#000000" stroke-width="2" stroke-opacity="0.200000" points="97.1,-169.43 95,-163.43 92.9,-169.43 97.1,-169.43"/>
</g>
<!-- src/main/filesAndDirs -->
<g id="node25" class="node">
<title>src/main/filesAndDirs</title>
<g id="a_node25"><a xlink:href="https://github.com/sverweij/dependency-cruiser/blob/develop/src/main/filesAndDirs" xlink:title="filesAndDirs">
<polygon fill="#ffcccc" stroke="black" points="282.01,-213.3 219.87,-213.3 217.99,-211.41 217.99,-196.3 280.13,-196.3 282.01,-198.19 282.01,-213.3"/>
<polyline fill="none" stroke="black" points="280.13,-211.41 217.99,-211.41 "/>
<polyline fill="none" stroke="black" points="280.13,-211.41 280.13,-196.3 "/>
<polyline fill="none" stroke="black" points="280.13,-211.41 282.01,-213.3 "/>
<text text-anchor="middle" x="250" y="-202.1" font-family="Helvetica,sans-Serif" font-size="9.00">filesAndDirs</text>
</a>
</g>
</g>
<!-- src/main&#45;&gt;src/main/filesAndDirs -->
<g id="edge29" class="edge">
<title>src/main&#45;&gt;src/main/filesAndDirs</title>
<path fill="none" stroke="#770000" stroke-width="2" stroke-opacity="0.466667" d="M206.5,-255C214.31,-255 250,-255 250,-255 250,-255 250,-219.54 250,-219.54"/>
<polygon fill="#770000" fill-opacity="0.466667" stroke="#770000" stroke-width="2" stroke-opacity="0.466667" points="252.1,-219.54 250,-213.54 247.9,-219.54 252.1,-219.54"/>
</g>
<!-- src/main/options -->
<g id="node26" class="node">
<title>src/main/options</title>
<g id="a_node26"><a xlink:href="https://github.com/sverweij/dependency-cruiser/blob/develop/src/main/options" xlink:title="options">
<polygon fill="#ffcccc" stroke="black" points="210,-163.3 157.89,-163.3 156,-161.41 156,-146.3 208.11,-146.3 210,-148.19 210,-163.3"/>
<polyline fill="none" stroke="black" points="208.11,-161.41 156,-161.41 "/>
<polyline fill="none" stroke="black" points="208.11,-161.41 208.11,-146.3 "/>
<polyline fill="none" stroke="black" points="208.11,-161.41 210,-163.3 "/>
<text text-anchor="middle" x="183" y="-152.1" font-family="Helvetica,sans-Serif" font-size="9.00">options</text>
</a>
</g>
</g>
<!-- src/main&#45;&gt;src/main/options -->
<g id="edge30" class="edge">
<title>src/main&#45;&gt;src/main/options</title>
<path fill="none" stroke="#770000" stroke-width="2" stroke-opacity="0.466667" d="M203.46,-255C201.13,-255 197,-255 197,-255 197,-255 197,-169.34 197,-169.34"/>
<polygon fill="#770000" fill-opacity="0.466667" stroke="#770000" stroke-width="2" stroke-opacity="0.466667" points="199.1,-169.34 197,-163.34 194.9,-169.34 199.1,-169.34"/>
</g>
<!-- src/main/ruleSet -->
<g id="node27" class="node">
<title>src/main/ruleSet</title>
<g id="a_node27"><a xlink:href="https://github.com/sverweij/dependency-cruiser/blob/develop/src/main/ruleSet" xlink:title="ruleSet">
<polygon fill="#ffcccc" stroke="black" points="192,-213.3 139.89,-213.3 138,-211.41 138,-196.3 190.11,-196.3 192,-198.19 192,-213.3"/>
<polyline fill="none" stroke="black" points="190.11,-211.41 138,-211.41 "/>
<polyline fill="none" stroke="black" points="190.11,-211.41 190.11,-196.3 "/>
<polyline fill="none" stroke="black" points="190.11,-211.41 192,-213.3 "/>
<text text-anchor="middle" x="165" y="-202.1" font-family="Helvetica,sans-Serif" font-size="9.00">ruleSet</text>
</a>
</g>
</g>
<!-- src/main&#45;&gt;src/main/ruleSet -->
<g id="edge32" class="edge">
<title>src/main&#45;&gt;src/main/ruleSet</title>
<path fill="none" stroke="#770000" stroke-width="2" stroke-opacity="0.466667" d="M204.4,-254.37C204.4,-245.33 204.4,-204 204.4,-204 204.4,-204 198.36,-204 198.36,-204"/>
<polygon fill="#770000" fill-opacity="0.466667" stroke="#770000" stroke-width="2" stroke-opacity="0.466667" points="198.36,-201.9 192.36,-204 198.36,-206.1 198.36,-201.9"/>
</g>
<!-- src/extract/resolve -->
<!-- src/cli/compileConfig&#45;&gt;src/extract/resolve -->
<g id="edge7" class="edge">
<title>src/cli/compileConfig&#45;&gt;src/extract/resolve</title>
<g id="a_edge7"><a xlink:title="cli&#45;to&#45;main&#45;only&#45;warn">
<path fill="none" stroke="orange" stroke-width="2" d="M524.9,-247.49C524.9,-244.1 524.9,-241 524.9,-241 524.9,-241 882.91,-241 882.91,-241 882.91,-241 882.91,-154 882.91,-154 882.91,-154 845.93,-154 845.93,-154"/>
<polygon fill="orange" stroke="orange" stroke-width="2" points="845.93,-151.9 839.93,-154 845.93,-156.1 845.93,-151.9"/>
</a>
</g>
<text text-anchor="middle" x="720.89" y="-242.8" font-family="Helvetica,sans-Serif" font-size="9.00" fill="orange">cli&#45;to&#45;main&#45;only&#45;warn</text>
</g>
<!-- src/cli/compileConfig&#45;&gt;src/main/resolveOptions -->
<g id="edge8" class="edge">
<title>src/cli/compileConfig&#45;&gt;src/main/resolveOptions</title>
<path fill="none" stroke="#770000" stroke-width="2" stroke-opacity="0.466667" d="M472.32,-247.46C472.32,-242.01 472.32,-236 472.32,-236 472.32,-236 344.67,-236 344.67,-236 344.67,-236 344.67,-219.33 344.67,-219.33"/>
<polygon fill="#770000" fill-opacity="0.466667" stroke="#770000" stroke-width="2" stroke-opacity="0.466667" points="346.77,-219.33 344.67,-213.33 342.57,-219.33 346.77,-219.33"/>
</g>
<!-- src/cli/initConfig&#45;&gt;src/cli -->
<g id="edge9" class="edge">
<title>src/cli/initConfig&#45;&gt;src/cli</title>
<path fill="none" stroke="#0000ff" stroke-width="2" stroke-opacity="0.466667" d="M582.5,-264.79C582.5,-283.73 582.5,-327 582.5,-327 582.5,-327 497.6,-327 497.6,-327 497.6,-327 497.6,-307.21 497.6,-307.21"/>
<polygon fill="#0000ff" fill-opacity="0.466667" stroke="#0000ff" stroke-width="2" stroke-opacity="0.466667" points="499.7,-307.21 497.6,-301.21 495.5,-307.21 499.7,-307.21"/>
</g>
<!-- src/extract/utl -->
<g id="node15" class="node">
<title>src/extract/utl</title>
<g id="a_node15"><a xlink:href="https://github.com/sverweij/dependency-cruiser/blob/develop/src/extract/utl" xlink:title="utl">
<polygon fill="#ccffcc" stroke="black" points="558,-112 505.89,-112 504,-110.11 504,-95 556.11,-95 558,-96.89 558,-112"/>
<polyline fill="none" stroke="black" points="556.11,-110.11 504,-110.11 "/>
<polyline fill="none" stroke="black" points="556.11,-110.11 556.11,-95 "/>
<polyline fill="none" stroke="black" points="556.11,-110.11 558,-112 "/>
<text text-anchor="middle" x="531" y="-100.8" font-family="Helvetica,sans-Serif" font-size="9.00">utl</text>
</a>
</g>
</g>
<!-- src/extract/resolve&#45;&gt;src/extract/utl -->
<g id="edge23" class="edge">
<title>src/extract/resolve&#45;&gt;src/extract/utl</title>
<path fill="none" stroke="#007700" stroke-width="2" stroke-opacity="0.466667" d="M836.07,-154C833.16,-154 827.98,-154 827.98,-154 827.98,-154 827.98,-106 827.98,-106 827.98,-106 564.14,-106 564.14,-106"/>
<polygon fill="#007700" fill-opacity="0.466667" stroke="#007700" stroke-width="2" stroke-opacity="0.466667" points="564.14,-103.9 558.14,-106 564.14,-108.1 564.14,-103.9"/>
</g>
<!-- src/extract/resolve/readPackageDeps -->
<g id="node18" class="node">
<title>src/extract/resolve/readPackageDeps</title>
<g id="a_node18"><a xlink:href="https://github.com/sverweij/dependency-cruiser/blob/develop/src/extract/resolve/readPackageDeps" xlink:title="readPackageDeps">
<polygon fill="#ccffcc" stroke="black" points="926.05,-112 837.84,-112 835.95,-110.11 835.95,-95 924.16,-95 926.05,-96.89 926.05,-112"/>
<polyline fill="none" stroke="black" points="924.16,-110.11 835.95,-110.11 "/>
<polyline fill="none" stroke="black" points="924.16,-110.11 924.16,-95 "/>
<polyline fill="none" stroke="black" points="924.16,-110.11 926.05,-112 "/>
<text text-anchor="middle" x="881" y="-100.8" font-family="Helvetica,sans-Serif" font-size="9.00">readPackageDeps</text>
</a>
</g>
</g>
<!-- src/extract/resolve&#45;&gt;src/extract/resolve/readPackageDeps -->
<g id="edge24" class="edge">
<title>src/extract/resolve&#45;&gt;src/extract/resolve/readPackageDeps</title>
<path fill="none" stroke="#007700" stroke-width="2" stroke-opacity="0.466667" d="M838,-152.6C838,-152.6 838,-118.09 838,-118.09"/>
<polygon fill="#007700" fill-opacity="0.466667" stroke="#007700" stroke-width="2" stroke-opacity="0.466667" points="840.1,-118.09 838,-112.09 835.9,-118.09 840.1,-118.09"/>
</g>
<!-- src/main/resolveOptions&#45;&gt;src/extract/transpile -->
<g id="edge34" class="edge">
<title>src/main/resolveOptions&#45;&gt;src/extract/transpile</title>
<path fill="none" stroke="#007700" stroke-width="2" stroke-opacity="0.466667" d="M370.18,-204C398.24,-204 431.5,-204 431.5,-204 431.5,-204 431.5,-106 431.5,-106 431.5,-106 432.15,-106 432.15,-106"/>
<polygon fill="#007700" fill-opacity="0.466667" stroke="#007700" stroke-width="2" stroke-opacity="0.466667" points="431.96,-108.1 437.96,-106 431.96,-103.9 431.96,-108.1"/>
</g>
<!-- src/extract&#45;&gt;src/extract/resolve -->
<g id="edge16" class="edge">
<title>src/extract&#45;&gt;src/extract/resolve</title>
<path fill="none" stroke="#007700" stroke-width="2" stroke-opacity="0.466667" d="M533.6,-203C533.6,-198.67 533.6,-188 533.6,-188 533.6,-188 838,-188 838,-188 838,-188 838,-162.98 838,-162.98"/>
<polygon fill="#007700" fill-opacity="0.466667" stroke="#007700" stroke-width="2" stroke-opacity="0.466667" points="840.1,-162.98 838,-156.98 835.9,-162.98 840.1,-162.98"/>
</g>
<!-- src/extract/derive/circular -->
<g id="node12" class="node">
<title>src/extract/derive/circular</title>
<g id="a_node12"><a xlink:href="https://github.com/sverweij/dependency-cruiser/blob/develop/src/extract/derive/circular" xlink:title="circular">
<polygon fill="#ccffcc" stroke="black" points="678,-163.3 625.89,-163.3 624,-161.41 624,-146.3 676.11,-146.3 678,-148.19 678,-163.3"/>
<polyline fill="none" stroke="black" points="676.11,-161.41 624,-161.41 "/>
<polyline fill="none" stroke="black" points="676.11,-161.41 676.11,-146.3 "/>
<polyline fill="none" stroke="black" points="676.11,-161.41 678,-163.3 "/>
<text text-anchor="middle" x="651" y="-152.1" font-family="Helvetica,sans-Serif" font-size="9.00">circular</text>
</a>
</g>
</g>
<!-- src/extract&#45;&gt;src/extract/derive/circular -->
<g id="edge10" class="edge">
<title>src/extract&#45;&gt;src/extract/derive/circular</title>
<path fill="none" stroke="#007700" stroke-width="2" stroke-opacity="0.466667" d="M533.09,-203C536.66,-203 651,-203 651,-203 651,-203 651,-169.64 651,-169.64"/>
<polygon fill="#007700" fill-opacity="0.466667" stroke="#007700" stroke-width="2" stroke-opacity="0.466667" points="653.1,-169.64 651,-163.64 648.9,-169.64 653.1,-169.64"/>
</g>
<!-- src/extract/derive/orphan -->
<g id="node13" class="node">
<title>src/extract/derive/orphan</title>
<g id="a_node13"><a xlink:href="https://github.com/sverweij/dependency-cruiser/blob/develop/src/extract/derive/orphan" xlink:title="orphan">
<polygon fill="#ccffcc" stroke="black" points="812,-163.3 759.89,-163.3 758,-161.41 758,-146.3 810.11,-146.3 812,-148.19 812,-163.3"/>
<polyline fill="none" stroke="black" points="810.11,-161.41 758,-161.41 "/>
<polyline fill="none" stroke="black" points="810.11,-161.41 810.11,-146.3 "/>
<polyline fill="none" stroke="black" points="810.11,-161.41 812,-163.3 "/>
<text text-anchor="middle" x="785" y="-152.1" font-family="Helvetica,sans-Serif" font-size="9.00">orphan</text>
</a>
</g>
</g>
<!-- src/extract&#45;&gt;src/extract/derive/orphan -->
<g id="edge11" class="edge">
<title>src/extract&#45;&gt;src/extract/derive/orphan</title>
<path fill="none" stroke="#007700" stroke-width="2" stroke-opacity="0.466667" d="M534.88,-205C557.94,-205 785,-205 785,-205 785,-205 785,-169.54 785,-169.54"/>
<polygon fill="#007700" fill-opacity="0.466667" stroke="#007700" stroke-width="2" stroke-opacity="0.466667" points="787.1,-169.54 785,-163.54 782.9,-169.54 787.1,-169.54"/>
</g>
<!-- src/extract/derive/reachable -->
<g id="node14" class="node">
<title>src/extract/derive/reachable</title>
<g id="a_node14"><a xlink:href="https://github.com/sverweij/dependency-cruiser/blob/develop/src/extract/derive/reachable" xlink:title="reachable">
<polygon fill="#ccffcc" stroke="black" points="745.53,-163.3 692.36,-163.3 690.47,-161.41 690.47,-146.3 743.64,-146.3 745.53,-148.19 745.53,-163.3"/>
<polyline fill="none" stroke="black" points="743.64,-161.41 690.47,-161.41 "/>
<polyline fill="none" stroke="black" points="743.64,-161.41 743.64,-146.3 "/>
<polyline fill="none" stroke="black" points="743.64,-161.41 745.53,-163.3 "/>
<text text-anchor="middle" x="718" y="-152.1" font-family="Helvetica,sans-Serif" font-size="9.00">reachable</text>
</a>
</g>
</g>
<!-- src/extract&#45;&gt;src/extract/derive/reachable -->
<g id="edge12" class="edge">
<title>src/extract&#45;&gt;src/extract/derive/reachable</title>
<path fill="none" stroke="#007700" stroke-width="2" stroke-opacity="0.466667" d="M535.08,-204C555.4,-204 718,-204 718,-204 718,-204 718,-169.37 718,-169.37"/>
<polygon fill="#007700" fill-opacity="0.466667" stroke="#007700" stroke-width="2" stroke-opacity="0.466667" points="720.1,-169.37 718,-163.37 715.9,-169.37 720.1,-169.37"/>
</g>
<!-- src/extract&#45;&gt;src/extract/utl -->
<g id="edge13" class="edge">
<title>src/extract&#45;&gt;src/extract/utl</title>
<path fill="none" stroke="#007700" stroke-width="2" stroke-opacity="0.466667" d="M532.36,-206.54C532.36,-210.33 532.36,-219 532.36,-219 532.36,-219 515.83,-219 515.83,-219 515.83,-219 515.83,-118.18 515.83,-118.18"/>
<polygon fill="#007700" fill-opacity="0.466667" stroke="#007700" stroke-width="2" stroke-opacity="0.466667" points="517.93,-118.18 515.83,-112.18 513.73,-118.18 517.93,-118.18"/>
</g>
<!-- src/validate -->
<g id="node16" class="node">
<title>src/validate</title>
<g id="a_node16"><a xlink:href="https://github.com/sverweij/dependency-cruiser/blob/develop/src/validate" xlink:title="validate">
<polygon fill="#ccccff" stroke="black" points="412,-112 359.89,-112 358,-110.11 358,-95 410.11,-95 412,-96.89 412,-112"/>
<polyline fill="none" stroke="black" points="410.11,-110.11 358,-110.11 "/>
<polyline fill="none" stroke="black" points="410.11,-110.11 410.11,-95 "/>
<polyline fill="none" stroke="black" points="410.11,-110.11 412,-112 "/>
<text text-anchor="middle" x="385" y="-100.8" font-family="Helvetica,sans-Serif" font-size="9.00">validate</text>
</a>
</g>
</g>
<!-- src/extract&#45;&gt;src/validate -->
<g id="edge14" class="edge">
<title>src/extract&#45;&gt;src/validate</title>
<path fill="none" stroke="#0000ff" stroke-width="2" stroke-opacity="0.466667" d="M530.99,-205C529.61,-205 528.05,-205 528.05,-205 528.05,-205 528.05,-171 528.05,-171 528.05,-171 403,-171 403,-171 403,-171 403,-118.05 403,-118.05"/>
<polygon fill="#0000ff" fill-opacity="0.466667" stroke="#0000ff" stroke-width="2" stroke-opacity="0.466667" points="405.1,-118.05 403,-112.05 400.9,-118.05 405.1,-118.05"/>
</g>
<!-- src/extract/parse -->
<g id="node17" class="node">
<title>src/extract/parse</title>
<g id="a_node17"><a xlink:href="https://github.com/sverweij/dependency-cruiser/blob/develop/src/extract/parse" xlink:title="parse">
<polygon fill="#ccffcc" stroke="black" points="496,-163.3 443.89,-163.3 442,-161.41 442,-146.3 494.11,-146.3 496,-148.19 496,-163.3"/>
<polyline fill="none" stroke="black" points="494.11,-161.41 442,-161.41 "/>
<polyline fill="none" stroke="black" points="494.11,-161.41 494.11,-146.3 "/>
<polyline fill="none" stroke="black" points="494.11,-161.41 496,-163.3 "/>
<text text-anchor="middle" x="469" y="-152.1" font-family="Helvetica,sans-Serif" font-size="9.00">parse</text>
</a>
</g>
</g>
<!-- src/extract&#45;&gt;src/extract/parse -->
<g id="edge15" class="edge">
<title>src/extract&#45;&gt;src/extract/parse</title>
<path fill="none" stroke="#007700" stroke-width="2" stroke-opacity="0.466667" d="M532.86,-203C530,-203 484.16,-203 484.16,-203 484.16,-203 484.16,-169.64 484.16,-169.64"/>
<polygon fill="#007700" fill-opacity="0.466667" stroke="#007700" stroke-width="2" stroke-opacity="0.466667" points="486.26,-169.64 484.16,-163.64 482.06,-169.64 486.26,-169.64"/>
</g>
<!-- src/extract&#45;&gt;src/extract/resolve/readPackageDeps -->
<g id="edge17" class="edge">
<title>src/extract&#45;&gt;src/extract/resolve/readPackageDeps</title>
<path fill="none" stroke="#007700" stroke-width="2" stroke-opacity="0.466667" d="M534.83,-205C559.27,-205 819.99,-205 819.99,-205 819.99,-205 819.99,-100 819.99,-100 819.99,-100 829.7,-100 829.7,-100"/>
<polygon fill="#007700" fill-opacity="0.466667" stroke="#007700" stroke-width="2" stroke-opacity="0.466667" points="829.7,-102.1 835.7,-100 829.7,-97.9 829.7,-102.1"/>
</g>
<!-- src/utl -->
<g id="node19" class="node">
<title>src/utl</title>
<g id="a_node19"><a xlink:href="https://github.com/sverweij/dependency-cruiser/blob/develop/src/utl" xlink:title="utl">
<polygon fill="#cccccc" stroke="black" points="412,-71 359.89,-71 358,-69.11 358,-54 410.11,-54 412,-55.89 412,-71"/>
<polyline fill="none" stroke="black" points="410.11,-69.11 358,-69.11 "/>
<polyline fill="none" stroke="black" points="410.11,-69.11 410.11,-54 "/>
<polyline fill="none" stroke="black" points="410.11,-69.11 412,-71 "/>
<text text-anchor="middle" x="385" y="-59.8" font-family="Helvetica,sans-Serif" font-size="9.00">utl</text>
</a>
</g>
</g>
<!-- src/extract&#45;&gt;src/utl -->
<g id="edge18" class="edge">
<title>src/extract&#45;&gt;src/utl</title>
<path fill="none" stroke="#aaaaaa" stroke-width="2" stroke-opacity="0.466667" d="M534.37,-206.07C534.37,-213.95 534.37,-256 534.37,-256 534.37,-256 540.4,-256 540.4,-256 540.4,-256 540.4,-230 540.4,-230 540.4,-230 425,-230 425,-230 425,-230 425,-62 425,-62 425,-62 418.34,-62 418.34,-62"/>
<polygon fill="#aaaaaa" fill-opacity="0.466667" stroke="#aaaaaa" stroke-width="2" stroke-opacity="0.466667" points="418.34,-59.9 412.34,-62 418.34,-64.1 418.34,-59.9"/>
</g>
<!-- src/extract/ast&#45;extractors -->
<g id="node20" class="node">
<title>src/extract/ast&#45;extractors</title>
<g id="a_node20"><a xlink:href="https://github.com/sverweij/dependency-cruiser/blob/develop/src/extract/ast-extractors" xlink:title="ast&#45;extractors">
<polygon fill="#ccffcc" stroke="black" points="592.02,-163.3 523.87,-163.3 521.98,-161.41 521.98,-146.3 590.13,-146.3 592.02,-148.19 592.02,-163.3"/>
<polyline fill="none" stroke="black" points="590.13,-161.41 521.98,-161.41 "/>
<polyline fill="none" stroke="black" points="590.13,-161.41 590.13,-146.3 "/>
<polyline fill="none" stroke="black" points="590.13,-161.41 592.02,-163.3 "/>
<text text-anchor="middle" x="557" y="-152.1" font-family="Helvetica,sans-Serif" font-size="9.00">ast&#45;extractors</text>
</a>
</g>
</g>
<!-- src/extract&#45;&gt;src/extract/ast&#45;extractors -->
<g id="edge19" class="edge">
<title>src/extract&#45;&gt;src/extract/ast&#45;extractors</title>
<path fill="none" stroke="#007700" stroke-width="2" stroke-opacity="0.466667" d="M532.4,-202.65C532.4,-202.65 532.4,-169.57 532.4,-169.57"/>
<polygon fill="#007700" fill-opacity="0.466667" stroke="#007700" stroke-width="2" stroke-opacity="0.466667" points="534.5,-169.57 532.4,-163.57 530.3,-169.57 534.5,-169.57"/>
</g>
<!-- src/extract&#45;&gt;src/extract/transpile -->
<g id="edge20" class="edge">
<title>src/extract&#45;&gt;src/extract/transpile</title>
<path fill="none" stroke="#007700" stroke-width="2" stroke-opacity="0.466667" d="M533.94,-206.57C533.94,-211.33 533.94,-224 533.94,-224 533.94,-224 500,-224 500,-224 500,-224 500,-103 500,-103 500,-103 498.23,-103 498.23,-103"/>
<polygon fill="#007700" fill-opacity="0.466667" stroke="#007700" stroke-width="2" stroke-opacity="0.466667" points="498.23,-100.9 492.23,-103 498.23,-105.1 498.23,-100.9"/>
</g>
<!-- src/validate&#45;&gt;src/utl -->
<g id="edge46" class="edge">
<title>src/validate&#45;&gt;src/utl</title>
<path fill="none" stroke="#aaaaaa" stroke-width="2" stroke-opacity="0.466667" d="M385,-94.8C385,-94.8 385,-77.18 385,-77.18"/>
<polygon fill="#aaaaaa" fill-opacity="0.466667" stroke="#aaaaaa" stroke-width="2" stroke-opacity="0.466667" points="387.1,-77.18 385,-71.18 382.9,-77.18 387.1,-77.18"/>
</g>
<!-- src/extract/parse&#45;&gt;src/extract/utl -->
<g id="edge22" class="edge">
<title>src/extract/parse&#45;&gt;src/extract/utl</title>
<path fill="none" stroke="#007700" stroke-width="2" stroke-opacity="0.466667" d="M496.06,-154C503.67,-154 509.91,-154 509.91,-154 509.91,-154 509.91,-118.3 509.91,-118.3"/>
<polygon fill="#007700" fill-opacity="0.466667" stroke="#007700" stroke-width="2" stroke-opacity="0.466667" points="512.01,-118.3 509.91,-112.3 507.81,-118.3 512.01,-118.3"/>
</g>
<!-- src/extract/parse&#45;&gt;src/extract/transpile -->
<g id="edge21" class="edge">
<title>src/extract/parse&#45;&gt;src/extract/transpile</title>
<path fill="none" stroke="#007700" stroke-width="2" stroke-opacity="0.466667" d="M467,-145.86C467,-145.86 467,-118.33 467,-118.33"/>
<polygon fill="#007700" fill-opacity="0.466667" stroke="#007700" stroke-width="2" stroke-opacity="0.466667" points="469.1,-118.33 467,-112.33 464.9,-118.33 469.1,-118.33"/>
</g>
<!-- src/extract/derive -->
<!-- src/report&#45;&gt;src/utl -->
<g id="edge42" class="edge">
<title>src/report&#45;&gt;src/utl</title>
<path fill="none" stroke="#aaaaaa" stroke-width="2" stroke-opacity="0.466667" d="M184.88,-104C203.22,-104 350,-104 350,-104 350,-104 350,-62 350,-62 350,-62 351.77,-62 351.77,-62"/>
<polygon fill="#aaaaaa" fill-opacity="0.466667" stroke="#aaaaaa" stroke-width="2" stroke-opacity="0.466667" points="351.77,-64.1 357.77,-62 351.77,-59.9 351.77,-64.1"/>
</g>
<!-- src/report/anon -->
<g id="node28" class="node">
<title>src/report/anon</title>
<g id="a_node28"><a xlink:href="https://github.com/sverweij/dependency-cruiser/blob/develop/src/report/anon" xlink:title="anon">
<polygon fill="#ffccff" stroke="black" points="210,-71 157.89,-71 156,-69.11 156,-54 208.11,-54 210,-55.89 210,-71"/>
<polyline fill="none" stroke="black" points="208.11,-69.11 156,-69.11 "/>
<polyline fill="none" stroke="black" points="208.11,-69.11 208.11,-54 "/>
<polyline fill="none" stroke="black" points="208.11,-69.11 210,-71 "/>
<text text-anchor="middle" x="183" y="-59.8" font-family="Helvetica,sans-Serif" font-size="9.00">anon</text>
</a>
</g>
</g>
<!-- src/report&#45;&gt;src/report/anon -->
<g id="edge37" class="edge">
<title>src/report&#45;&gt;src/report/anon</title>
<path fill="none" stroke="#ff00ff" stroke-width="2" stroke-opacity="0.466667" d="M183,-101.3C183,-101.3 183,-77.12 183,-77.12"/>
<polygon fill="#ff00ff" fill-opacity="0.466667" stroke="#ff00ff" stroke-width="2" stroke-opacity="0.466667" points="185.1,-77.12 183,-71.12 180.9,-77.12 185.1,-77.12"/>
</g>
<!-- src/report/csv -->
<g id="node29" class="node">
<title>src/report/csv</title>
<g id="a_node29"><a xlink:href="https://github.com/sverweij/dependency-cruiser/blob/develop/src/report/csv" xlink:title="csv">
<polygon fill="#ffccff" stroke="black" points="276,-71 223.89,-71 222,-69.11 222,-54 274.11,-54 276,-55.89 276,-71"/>
<polyline fill="none" stroke="black" points="274.11,-69.11 222,-69.11 "/>
<polyline fill="none" stroke="black" points="274.11,-69.11 274.11,-54 "/>
<polyline fill="none" stroke="black" points="274.11,-69.11 276,-71 "/>
<text text-anchor="middle" x="249" y="-59.8" font-family="Helvetica,sans-Serif" font-size="9.00">csv</text>
</a>
</g>
</g>
<!-- src/report&#45;&gt;src/report/csv -->
<g id="edge38" class="edge">
<title>src/report&#45;&gt;src/report/csv</title>
<path fill="none" stroke="#ff00ff" stroke-width="2" stroke-opacity="0.466667" d="M184.15,-102C192.91,-102 249,-102 249,-102 249,-102 249,-77.27 249,-77.27"/>
<polygon fill="#ff00ff" fill-opacity="0.466667" stroke="#ff00ff" stroke-width="2" stroke-opacity="0.466667" points="251.1,-77.27 249,-71.27 246.9,-77.27 251.1,-77.27"/>
</g>
<!-- src/report/dot -->
<g id="node30" class="node">
<title>src/report/dot</title>
<g id="a_node30"><a xlink:href="https://github.com/sverweij/dependency-cruiser/blob/develop/src/report/dot" xlink:title="dot">
<polygon fill="#ffccff" stroke="black" points="342,-71 289.89,-71 288,-69.11 288,-54 340.11,-54 342,-55.89 342,-71"/>
<polyline fill="none" stroke="black" points="340.11,-69.11 288,-69.11 "/>
<polyline fill="none" stroke="black" points="340.11,-69.11 340.11,-54 "/>
<polyline fill="none" stroke="black" points="340.11,-69.11 342,-71 "/>
<text text-anchor="middle" x="315" y="-59.8" font-family="Helvetica,sans-Serif" font-size="9.00">dot</text>
</a>
</g>
</g>
<!-- src/report&#45;&gt;src/report/dot -->
<g id="edge39" class="edge">
<title>src/report&#45;&gt;src/report/dot</title>
<path fill="none" stroke="#ff00ff" stroke-width="2" stroke-opacity="0.466667" d="M184.91,-103C201.32,-103 317.99,-103 317.99,-103 317.99,-103 317.99,-77.09 317.99,-77.09"/>
<polygon fill="#ff00ff" fill-opacity="0.466667" stroke="#ff00ff" stroke-width="2" stroke-opacity="0.466667" points="320.09,-77.09 317.99,-71.09 315.89,-77.09 320.09,-77.09"/>
</g>
<!-- src/report/err&#45;html -->
<g id="node31" class="node">
<title>src/report/err&#45;html</title>
<g id="a_node31"><a xlink:href="https://github.com/sverweij/dependency-cruiser/blob/develop/src/report/err-html" xlink:title="err&#45;html">
<polygon fill="#ffccff" stroke="black" points="78,-71 25.89,-71 24,-69.11 24,-54 76.11,-54 78,-55.89 78,-71"/>
<polyline fill="none" stroke="black" points="76.11,-69.11 24,-69.11 "/>
<polyline fill="none" stroke="black" points="76.11,-69.11 76.11,-54 "/>
<polyline fill="none" stroke="black" points="76.11,-69.11 78,-71 "/>
<text text-anchor="middle" x="51" y="-59.8" font-family="Helvetica,sans-Serif" font-size="9.00">err&#45;html</text>
</a>
</g>
</g>
<!-- src/report&#45;&gt;src/report/err&#45;html -->
<g id="edge40" class="edge">
<title>src/report&#45;&gt;src/report/err&#45;html</title>
<path fill="none" stroke="#ff00ff" stroke-width="2" stroke-opacity="0.466667" d="M181.09,-104C166.48,-104 73,-104 73,-104 73,-104 73,-77.3 73,-77.3"/>
<polygon fill="#ff00ff" fill-opacity="0.466667" stroke="#ff00ff" stroke-width="2" stroke-opacity="0.466667" points="75.1,-77.3 73,-71.3 70.9,-77.3 75.1,-77.3"/>
</g>
<!-- src/report/html -->
<g id="node32" class="node">
<title>src/report/html</title>
<g id="a_node32"><a xlink:href="https://github.com/sverweij/dependency-cruiser/blob/develop/src/report/html" xlink:title="html">
<polygon fill="#ffccff" stroke="black" points="144,-71 91.89,-71 90,-69.11 90,-54 142.11,-54 144,-55.89 144,-71"/>
<polyline fill="none" stroke="black" points="142.11,-69.11 90,-69.11 "/>
<polyline fill="none" stroke="black" points="142.11,-69.11 142.11,-54 "/>
<polyline fill="none" stroke="black" points="142.11,-69.11 144,-71 "/>
<text text-anchor="middle" x="117" y="-59.8" font-family="Helvetica,sans-Serif" font-size="9.00">html</text>
</a>
</g>
</g>
<!-- src/report&#45;&gt;src/report/html -->
<g id="edge41" class="edge">
<title>src/report&#45;&gt;src/report/html</title>
<path fill="none" stroke="#ff00ff" stroke-width="2" stroke-opacity="0.466667" d="M181.69,-102C173.53,-102 130,-102 130,-102 130,-102 130,-77.27 130,-77.27"/>
<polygon fill="#ff00ff" fill-opacity="0.466667" stroke="#ff00ff" stroke-width="2" stroke-opacity="0.466667" points="132.1,-77.27 130,-71.27 127.9,-77.27 132.1,-77.27"/>
</g>
<!-- src/main/options&#45;&gt;src/report -->
<g id="edge33" class="edge">
<title>src/main/options&#45;&gt;src/report</title>
<path fill="none" stroke="#ff00ff" stroke-width="2" stroke-opacity="0.466667" d="M182.4,-145.86C182.4,-145.86 182.4,-111.37 182.4,-111.37"/>
<polygon fill="#ff00ff" fill-opacity="0.466667" stroke="#ff00ff" stroke-width="2" stroke-opacity="0.466667" points="184.5,-111.37 182.4,-105.37 180.3,-111.37 184.5,-111.37"/>
</g>
<!-- src/main/ruleSet&#45;&gt;src/schema -->
<g id="edge35" class="edge">
<title>src/main/ruleSet&#45;&gt;src/schema</title>
<path fill="none" stroke="#000000" stroke-width="2" stroke-opacity="0.200000" d="M150,-195.95C150,-181.4 150,-154 150,-154 150,-154 128.18,-154 128.18,-154"/>
<polygon fill="#000000" fill-opacity="0.200000" stroke="#000000" stroke-width="2" stroke-opacity="0.200000" points="128.18,-151.9 122.18,-154 128.18,-156.1 128.18,-151.9"/>
</g>
<!-- src/main/ruleSet&#45;&gt;src/main/options -->
<g id="edge36" class="edge">
<title>src/main/ruleSet&#45;&gt;src/main/options</title>
<path fill="none" stroke="#770000" stroke-width="2" stroke-opacity="0.466667" d="M174,-196.09C174,-196.09 174,-169.41 174,-169.41"/>
<polygon fill="#770000" fill-opacity="0.466667" stroke="#770000" stroke-width="2" stroke-opacity="0.466667" points="176.1,-169.41 174,-163.41 171.9,-169.41 176.1,-169.41"/>
</g>
<!-- src/report/utl -->
<g id="node33" class="node">
<title>src/report/utl</title>
<g id="a_node33"><a xlink:href="https://github.com/sverweij/dependency-cruiser/blob/develop/src/report/utl" xlink:title="utl">
<polygon fill="#ffccff" stroke="black" points="276,-41 223.89,-41 222,-39.11 222,-24 274.11,-24 276,-25.89 276,-41"/>
<polyline fill="none" stroke="black" points="274.11,-39.11 222,-39.11 "/>
<polyline fill="none" stroke="black" points="274.11,-39.11 274.11,-24 "/>
<polyline fill="none" stroke="black" points="274.11,-39.11 276,-41 "/>
<text text-anchor="middle" x="249" y="-29.8" font-family="Helvetica,sans-Serif" font-size="9.00">utl</text>
</a>
</g>
</g>
<!-- src/report/csv&#45;&gt;src/report/utl -->
<g id="edge43" class="edge">
<title>src/report/csv&#45;&gt;src/report/utl</title>
<path fill="none" stroke="#ff00ff" stroke-width="2" stroke-opacity="0.466667" d="M249,-53.98C249,-53.98 249,-47.14 249,-47.14"/>
<polygon fill="#ff00ff" fill-opacity="0.466667" stroke="#ff00ff" stroke-width="2" stroke-opacity="0.466667" points="251.1,-47.14 249,-41.14 246.9,-47.14 251.1,-47.14"/>
</g>
<!-- src/report/dot&#45;&gt;src/report/utl -->
<g id="edge44" class="edge">
<title>src/report/dot&#45;&gt;src/report/utl</title>
<path fill="none" stroke="#ff00ff" stroke-width="2" stroke-opacity="0.466667" d="M315,-53.84C315,-44.82 315,-32 315,-32 315,-32 282.23,-32 282.23,-32"/>
<polygon fill="#ff00ff" fill-opacity="0.466667" stroke="#ff00ff" stroke-width="2" stroke-opacity="0.466667" points="282.23,-29.9 276.23,-32 282.23,-34.1 282.23,-29.9"/>
</g>
<!-- src/report/html&#45;&gt;src/report/utl -->
<g id="edge45" class="edge">
<title>src/report/html&#45;&gt;src/report/utl</title>
<path fill="none" stroke="#ff00ff" stroke-width="2" stroke-opacity="0.466667" d="M117,-53.84C117,-44.82 117,-32 117,-32 117,-32 215.97,-32 215.97,-32"/>
<polygon fill="#ff00ff" fill-opacity="0.466667" stroke="#ff00ff" stroke-width="2" stroke-opacity="0.466667" points="215.97,-34.1 221.97,-32 215.97,-29.9 215.97,-34.1"/>
</g>
</g>
</svg>
