<?xml version="1.0" encoding="UTF-8" standalone="no"?>
<!DOCTYPE svg PUBLIC "-//W3C//DTD SVG 1.1//EN"
 "http://www.w3.org/Graphics/SVG/1.1/DTD/svg11.dtd">
<!-- Generated by graphviz version 9.0.0 (20230911.1827)
 -->
<!-- Title: dependency&#45;cruiser output Pages: 1 -->
<svg width="324pt" height="247pt"
 viewBox="0.00 0.00 324.00 247.00" xmlns="http://www.w3.org/2000/svg" xmlns:xlink="http://www.w3.org/1999/xlink">
<g id="graph0" class="graph" transform="scale(1 1) rotate(0) translate(4 243)">
<title>dependency&#45;cruiser output</title>
<polygon fill="white" stroke="none" points="-4,4 -4,-243 320,-243 320,4 -4,4"/>
<g id="clust1" class="cluster">
<title>cluster_src</title>
<path fill="#ffffff" stroke="black" stroke-width="2" d="M20,-8C20,-8 296,-8 296,-8 302,-8 308,-14 308,-20 308,-20 308,-201.25 308,-201.25 308,-207.25 302,-213.25 296,-213.25 296,-213.25 20,-213.25 20,-213.25 14,-213.25 8,-207.25 8,-201.25 8,-201.25 8,-20 8,-20 8,-14 14,-8 20,-8"/>
<text text-anchor="middle" x="158" y="-200.7" font-family="Helvetica,sans-Serif" font-weight="bold" font-size="9.00">src</text>
</g>
<!-- bin/ -->
<g id="node1" class="node">
<title>bin/</title>
<g id="a_node1"><a xlink:href="https://github.com/sverweij/dependency-cruiser/blob/main/bin/" xlink:title="bin">
<polygon fill="#ffffcc" stroke="black" points="164,-239 111.97,-239 110,-237.03 110,-221.25 162.03,-221.25 164,-223.22 164,-239"/>
<polyline fill="none" stroke="black" points="162.03,-237.03 110,-237.03"/>
<polyline fill="none" stroke="black" points="162.03,-237.03 162.03,-221.25"/>
<polyline fill="none" stroke="black" points="162.03,-237.03 164,-239"/>
<text text-anchor="start" x="130.62" y="-226.45" font-family="Helvetica,sans-Serif" font-size="9.00">bin</text>
</a>
</g>
</g>
<!-- src/cli -->
<g id="node2" class="node">
<title>src/cli</title>
<g id="a_node2"><a xlink:href="https://github.com/sverweij/dependency-cruiser/blob/main/src/cli" xlink:title="cli">
<polygon fill="#ccccff" stroke="black" points="164,-187.5 111.97,-187.5 110,-185.53 110,-169.75 162.03,-169.75 164,-171.72 164,-187.5"/>
<polyline fill="none" stroke="black" points="162.03,-185.53 110,-185.53"/>
<polyline fill="none" stroke="black" points="162.03,-185.53 162.03,-169.75"/>
<polyline fill="none" stroke="black" points="162.03,-185.53 164,-187.5"/>
<text text-anchor="start" x="132.5" y="-174.95" font-family="Helvetica,sans-Serif" font-size="9.00">cli</text>
</a>
</g>
</g>
<!-- bin/&#45;&gt;src/cli -->
<g id="edge1" class="edge">
<title>bin/&#45;&gt;src/cli</title>
<path fill="none" stroke="#0000ff" stroke-width="2" stroke-opacity="0.466667" d="M137,-221.15C137,-221.15 137,-196.87 137,-196.87"/>
<polygon fill="#0000ff" fill-opacity="0.466667" stroke="#0000ff" stroke-width="2" stroke-opacity="0.466667" points="139.1,-196.87 137,-190.87 134.9,-196.87 139.1,-196.87"/>
</g>
<!-- src/extract -->
<g id="node4" class="node">
<title>src/extract</title>
<g id="a_node4"><a xlink:href="https://github.com/sverweij/dependency-cruiser/blob/main/src/extract" xlink:title="extract">
<polygon fill="#ccffcc" stroke="black" points="178,-64.5 125.97,-64.5 124,-62.53 124,-46.75 176.03,-46.75 178,-48.72 178,-64.5"/>
<polyline fill="none" stroke="black" points="176.03,-62.53 124,-62.53"/>
<polyline fill="none" stroke="black" points="176.03,-62.53 176.03,-46.75"/>
<polyline fill="none" stroke="black" points="176.03,-62.53 178,-64.5"/>
<text text-anchor="start" x="137.5" y="-51.95" font-family="Helvetica,sans-Serif" font-size="9.00">extract</text>
</a>
</g>
</g>
<!-- src/cli&#45;&gt;src/extract -->
<g id="edge7" class="edge">
<title>src/cli&#45;&gt;src/extract</title>
<path fill="none" stroke="#007700" stroke-width="2" stroke-opacity="0.466667" d="M109.77,-175C108.05,-175 107,-175 107,-175 107,-175 107,-55 107,-55 107,-55 114.61,-55 114.61,-55"/>
<polygon fill="#007700" fill-opacity="0.466667" stroke="#007700" stroke-width="2" stroke-opacity="0.466667" points="114.61,-57.1 120.61,-55 114.61,-52.9 114.61,-57.1"/>
</g>
<!-- src/utl -->
<g id="node5" class="node">
<title>src/utl</title>
<g id="a_node5"><a xlink:href="https://github.com/sverweij/dependency-cruiser/blob/main/src/utl" xlink:title="utl&#45;module&#45;not&#45;shared&#45;enough">
<polygon fill="#cccccc" stroke="blue" points="132,-33.75 79.97,-33.75 78,-31.78 78,-16 130.03,-16 132,-17.97 132,-33.75"/>
<polyline fill="none" stroke="blue" points="130.03,-31.78 78,-31.78"/>
<polyline fill="none" stroke="blue" points="130.03,-31.78 130.03,-16"/>
<polyline fill="none" stroke="blue" points="130.03,-31.78 132,-33.75"/>
<text text-anchor="start" x="100.12" y="-21.2" font-family="Helvetica,sans-Serif" font-size="9.00" fill="blue">utl</text>
</a>
</g>
</g>
<!-- src/cli&#45;&gt;src/utl -->
<g id="edge8" class="edge">
<title>src/cli&#45;&gt;src/utl</title>
<path fill="none" stroke="#aaaaaa" stroke-width="2" stroke-opacity="0.466667" d="M109.75,-181C106.33,-181 104,-181 104,-181 104,-181 104,-43.2 104,-43.2"/>
<polygon fill="#aaaaaa" fill-opacity="0.466667" stroke="#aaaaaa" stroke-width="2" stroke-opacity="0.466667" points="106.1,-43.2 104,-37.2 101.9,-43.2 106.1,-43.2"/>
</g>
<!-- src/config&#45;utl -->
<g id="node7" class="node">
<title>src/config&#45;utl</title>
<g id="a_node7"><a xlink:href="https://github.com/sverweij/dependency-cruiser/blob/main/src/config-utl" xlink:title="config&#45;utl">
<polygon fill="#99ffff" stroke="black" points="164,-156.75 111.97,-156.75 110,-154.78 110,-139 162.03,-139 164,-140.97 164,-156.75"/>
<polyline fill="none" stroke="black" points="162.03,-154.78 110,-154.78"/>
<polyline fill="none" stroke="black" points="162.03,-154.78 162.03,-139"/>
<polyline fill="none" stroke="black" points="162.03,-154.78 164,-156.75"/>
<text text-anchor="start" x="118.25" y="-144.2" font-family="Helvetica,sans-Serif" font-size="9.00">config&#45;utl</text>
</a>
</g>
</g>
<!-- src/cli&#45;&gt;src/config&#45;utl -->
<g id="edge5" class="edge">
<title>src/cli&#45;&gt;src/config&#45;utl</title>
<path fill="none" stroke="#229999" stroke-width="2" stroke-dasharray="5,2" stroke-opacity="0.466667" d="M137,-169.57C137,-169.57 137,-166 137,-166"/>
<polygon fill="#229999" fill-opacity="0.466667" stroke="#229999" stroke-width="2" stroke-opacity="0.466667" points="139.1,-166 137,-160 134.9,-166 139.1,-166"/>
</g>
<!-- src/main -->
<g id="node8" class="node">
<title>src/main</title>
<g id="a_node8"><a xlink:href="https://github.com/sverweij/dependency-cruiser/blob/main/src/main" xlink:title="main">
<polygon fill="#ffcccc" stroke="black" points="198,-126 145.97,-126 144,-124.03 144,-108.25 196.03,-108.25 198,-110.22 198,-126"/>
<polyline fill="none" stroke="black" points="196.03,-124.03 144,-124.03"/>
<polyline fill="none" stroke="black" points="196.03,-124.03 196.03,-108.25"/>
<polyline fill="none" stroke="black" points="196.03,-124.03 198,-126"/>
<text text-anchor="start" x="160.88" y="-113.45" font-family="Helvetica,sans-Serif" font-size="9.00">main</text>
</a>
</g>
</g>
<!-- src/cli&#45;&gt;src/main -->
<g id="edge6" class="edge">
<title>src/cli&#45;&gt;src/main</title>
<path fill="none" stroke="#770000" stroke-width="2" stroke-opacity="0.466667" d="M164.37,-175C173.31,-175 181,-175 181,-175 181,-175 181,-135.45 181,-135.45"/>
<polygon fill="#770000" fill-opacity="0.466667" stroke="#770000" stroke-width="2" stroke-opacity="0.466667" points="183.1,-135.45 181,-129.45 178.9,-135.45 183.1,-135.45"/>
</g>
<!-- src/report -->
<g id="node9" class="node">
<title>src/report</title>
<g id="a_node9"><a xlink:href="https://github.com/sverweij/dependency-cruiser/blob/main/src/report" xlink:title="report">
<polygon fill="#ffccff" stroke="black" points="272,-64.5 219.97,-64.5 218,-62.53 218,-46.75 270.03,-46.75 272,-48.72 272,-64.5"/>
<polyline fill="none" stroke="black" points="270.03,-62.53 218,-62.53"/>
<polyline fill="none" stroke="black" points="270.03,-62.53 270.03,-46.75"/>
<polyline fill="none" stroke="black" points="270.03,-62.53 272,-64.5"/>
<text text-anchor="start" x="233" y="-51.95" font-family="Helvetica,sans-Serif" font-size="9.00">report</text>
</a>
</g>
</g>
<!-- src/cli&#45;&gt;src/report -->
<g id="edge9" class="edge">
<title>src/cli&#45;&gt;src/report</title>
<path fill="none" stroke="#ff00ff" stroke-width="2" stroke-opacity="0.466667" d="M164.1,-181C190.71,-181 227.33,-181 227.33,-181 227.33,-181 227.33,-73.67 227.33,-73.67"/>
<polygon fill="#ff00ff" fill-opacity="0.466667" stroke="#ff00ff" stroke-width="2" stroke-opacity="0.466667" points="229.43,-73.67 227.33,-67.67 225.23,-73.67 229.43,-73.67"/>
</g>
<!-- src/cache -->
<g id="node3" class="node">
<title>src/cache</title>
<g id="a_node3"><a xlink:href="https://github.com/sverweij/dependency-cruiser/blob/main/src/cache" xlink:title="cache">
<polygon fill="#ffffcc" stroke="black" points="192,-95.25 139.97,-95.25 138,-93.28 138,-77.5 190.03,-77.5 192,-79.47 192,-95.25"/>
<polyline fill="none" stroke="black" points="190.03,-93.28 138,-93.28"/>
<polyline fill="none" stroke="black" points="190.03,-93.28 190.03,-77.5"/>
<polyline fill="none" stroke="black" points="190.03,-93.28 192,-95.25"/>
<text text-anchor="start" x="152.62" y="-82.7" font-family="Helvetica,sans-Serif" font-size="9.00">cache</text>
</a>
</g>
</g>
<!-- src/cache&#45;&gt;src/extract -->
<g id="edge2" class="edge">
<title>src/cache&#45;&gt;src/extract</title>
<path fill="none" stroke="#007700" stroke-width="2" stroke-opacity="0.466667" d="M158,-77.32C158,-77.32 158,-73.75 158,-73.75"/>
<polygon fill="#007700" fill-opacity="0.466667" stroke="#007700" stroke-width="2" stroke-opacity="0.466667" points="160.1,-73.75 158,-67.75 155.9,-73.75 160.1,-73.75"/>
</g>
<!-- src/cache&#45;&gt;src/utl -->
<g id="edge3" class="edge">
<title>src/cache&#45;&gt;src/utl</title>
<path fill="none" stroke="#aaaaaa" stroke-width="2" stroke-opacity="0.466667" d="M137.63,-89C126.86,-89 117,-89 117,-89 117,-89 117,-43.09 117,-43.09"/>
<polygon fill="#aaaaaa" fill-opacity="0.466667" stroke="#aaaaaa" stroke-width="2" stroke-opacity="0.466667" points="119.1,-43.09 117,-37.09 114.9,-43.09 119.1,-43.09"/>
</g>
<!-- src/graph&#45;utl -->
<g id="node6" class="node">
<title>src/graph&#45;utl</title>
<g id="a_node6"><a xlink:href="https://github.com/sverweij/dependency-cruiser/blob/main/src/graph-utl" xlink:title="not&#45;unreachable&#45;from&#45;cli">
<polygon fill="#ffcccc" stroke="red" points="232,-33.75 179.97,-33.75 178,-31.78 178,-16 230.03,-16 232,-17.97 232,-33.75"/>
<polyline fill="none" stroke="red" points="230.03,-31.78 178,-31.78"/>
<polyline fill="none" stroke="red" points="230.03,-31.78 230.03,-16"/>
<polyline fill="none" stroke="red" points="230.03,-31.78 232,-33.75"/>
<text text-anchor="start" x="186.62" y="-21.2" font-family="Helvetica,sans-Serif" font-size="9.00" fill="red">graph&#45;utl</text>
</a>
</g>
</g>
<!-- src/cache&#45;&gt;src/graph&#45;utl -->
<g id="edge4" class="edge">
<title>src/cache&#45;&gt;src/graph&#45;utl</title>
<path fill="none" stroke="#770000" stroke-width="2" stroke-opacity="0.466667" d="M188.5,-77.03C188.5,-77.03 188.5,-42.93 188.5,-42.93"/>
<polygon fill="#770000" fill-opacity="0.466667" stroke="#770000" stroke-width="2" stroke-opacity="0.466667" points="190.6,-42.93 188.5,-36.93 186.4,-42.93 190.6,-42.93"/>
</g>
<!-- src/extract&#45;&gt;src/utl -->
<g id="edge15" class="edge">
<title>src/extract&#45;&gt;src/utl</title>
<path fill="none" stroke="#aaaaaa" stroke-width="2" stroke-opacity="0.466667" d="M126.67,-46.57C126.67,-46.57 126.67,-43 126.67,-43"/>
<polygon fill="#aaaaaa" fill-opacity="0.466667" stroke="#aaaaaa" stroke-width="2" stroke-opacity="0.466667" points="128.77,-43 126.67,-37 124.57,-43 128.77,-43"/>
</g>
<!-- src/extract&#45;&gt;src/graph&#45;utl -->
<g id="edge16" class="edge">
<title>src/extract&#45;&gt;src/graph&#45;utl</title>
<path fill="none" stroke="#770000" stroke-width="2" stroke-opacity="0.466667" d="M178.24,-55C180.24,-55 181.5,-55 181.5,-55 181.5,-55 181.5,-43.1 181.5,-43.1"/>
<polygon fill="#770000" fill-opacity="0.466667" stroke="#770000" stroke-width="2" stroke-opacity="0.466667" points="183.6,-43.1 181.5,-37.1 179.4,-43.1 183.6,-43.1"/>
</g>
<!-- src/config&#45;utl&#45;&gt;src/extract -->
<g id="edge10" class="edge">
<title>src/config&#45;utl&#45;&gt;src/extract</title>
<path fill="none" stroke="#007700" stroke-width="2" stroke-opacity="0.466667" d="M128.67,-138.69C128.67,-138.69 128.67,-73.8 128.67,-73.8"/>
<polygon fill="#007700" fill-opacity="0.466667" stroke="#007700" stroke-width="2" stroke-opacity="0.466667" points="130.77,-73.8 128.67,-67.8 126.57,-73.8 130.77,-73.8"/>
</g>
<!-- src/config&#45;utl&#45;&gt;src/main -->
<g id="edge11" class="edge">
<title>src/config&#45;utl&#45;&gt;src/main</title>
<path fill="none" stroke="#770000" stroke-width="2" stroke-opacity="0.466667" d="M154,-138.82C154,-138.82 154,-135.25 154,-135.25"/>
<polygon fill="#770000" fill-opacity="0.466667" stroke="#770000" stroke-width="2" stroke-opacity="0.466667" points="156.1,-135.25 154,-129.25 151.9,-135.25 156.1,-135.25"/>
</g>
<!-- src/main&#45;&gt;src/cache -->
<g id="edge18" class="edge">
<title>src/main&#45;&gt;src/cache</title>
<path fill="none" stroke="#000000" stroke-width="2" stroke-dasharray="5,2" stroke-opacity="0.200000" d="M168,-108.07C168,-108.07 168,-104.5 168,-104.5"/>
<polygon fill="#000000" fill-opacity="0.200000" stroke="#000000" stroke-width="2" stroke-opacity="0.200000" points="170.1,-104.5 168,-98.5 165.9,-104.5 170.1,-104.5"/>
</g>
<!-- src/main&#45;&gt;src/extract -->
<g id="edge17" class="edge">
<title>src/main&#45;&gt;src/extract</title>
<path fill="none" stroke="#007700" stroke-width="2" stroke-opacity="0.466667" d="M143.63,-114C137.78,-114 133.33,-114 133.33,-114 133.33,-114 133.33,-73.77 133.33,-73.77"/>
<polygon fill="#007700" fill-opacity="0.466667" stroke="#007700" stroke-width="2" stroke-opacity="0.466667" points="135.43,-73.77 133.33,-67.77 131.23,-73.77 135.43,-73.77"/>
</g>
<!-- src/main&#45;&gt;src/graph&#45;utl -->
<g id="edge21" class="edge">
<title>src/main&#45;&gt;src/graph&#45;utl</title>
<path fill="none" stroke="#770000" stroke-width="2" stroke-opacity="0.466667" d="M198.28,-121C203.82,-121 208,-121 208,-121 208,-121 208,-43.12 208,-43.12"/>
<polygon fill="#770000" fill-opacity="0.466667" stroke="#770000" stroke-width="2" stroke-opacity="0.466667" points="210.1,-43.12 208,-37.12 205.9,-43.12 210.1,-43.12"/>
</g>
<!-- src/main&#45;&gt;src/report -->
<g id="edge20" class="edge">
<title>src/main&#45;&gt;src/report</title>
<path fill="none" stroke="#ff00ff" stroke-width="2" stroke-opacity="0.466667" d="M198.35,-112C210.74,-112 222.67,-112 222.67,-112 222.67,-112 222.67,-73.96 222.67,-73.96"/>
<polygon fill="#ff00ff" fill-opacity="0.466667" stroke="#ff00ff" stroke-width="2" stroke-opacity="0.466667" points="224.77,-73.96 222.67,-67.96 220.57,-73.96 224.77,-73.96"/>
</g>
<!-- src/enrich -->
<g id="node10" class="node">
<title>src/enrich</title>
<g id="a_node10"><a xlink:href="https://github.com/sverweij/dependency-cruiser/blob/main/src/enrich" xlink:title="enrich">
<polygon fill="#77eeaa" stroke="black" points="84,-95.25 31.97,-95.25 30,-93.28 30,-77.5 82.03,-77.5 84,-79.47 84,-95.25"/>
<polyline fill="none" stroke="black" points="82.03,-93.28 30,-93.28"/>
<polyline fill="none" stroke="black" points="82.03,-93.28 82.03,-77.5"/>
<polyline fill="none" stroke="black" points="82.03,-93.28 84,-95.25"/>
<text text-anchor="start" x="44.25" y="-82.7" font-family="Helvetica,sans-Serif" font-size="9.00">enrich</text>
</a>
</g>
</g>
<!-- src/main&#45;&gt;src/enrich -->
<g id="edge19" class="edge">
<title>src/main&#45;&gt;src/enrich</title>
<path fill="none" stroke="#007766" stroke-width="2" stroke-dasharray="5,2" stroke-opacity="0.466667" d="M143.69,-120C109.97,-120 57,-120 57,-120 57,-120 57,-104.59 57,-104.59"/>
<polygon fill="#007766" fill-opacity="0.466667" stroke="#007766" stroke-width="2" stroke-opacity="0.466667" points="59.1,-104.59 57,-98.59 54.9,-104.59 59.1,-104.59"/>
</g>
<!-- src/schema -->
<g id="node12" class="node">
<title>src/schema</title>
<g id="a_node12"><a xlink:href="https://github.com/sverweij/dependency-cruiser/blob/main/src/schema" xlink:title="not&#45;unreachable&#45;from&#45;cli">
<polygon fill="#ccffcc" stroke="red" points="286,-95.25 233.97,-95.25 232,-93.28 232,-77.5 284.03,-77.5 286,-79.47 286,-95.25"/>
<polyline fill="none" stroke="red" points="284.03,-93.28 232,-93.28"/>
<polyline fill="none" stroke="red" points="284.03,-93.28 284.03,-77.5"/>
<polyline fill="none" stroke="red" points="284.03,-93.28 286,-95.25"/>
<text text-anchor="start" x="242.88" y="-82.7" font-family="Helvetica,sans-Serif" font-size="9.00" fill="red">schema</text>
</a>
</g>
</g>
<!-- src/main&#45;&gt;src/schema -->
<g id="edge22" class="edge">
<title>src/main&#45;&gt;src/schema</title>
<path fill="none" stroke="#000000" stroke-width="2" stroke-opacity="0.200000" d="M198.36,-117C224.19,-117 259,-117 259,-117 259,-117 259,-104.76 259,-104.76"/>
<polygon fill="#000000" fill-opacity="0.200000" stroke="#000000" stroke-width="2" stroke-opacity="0.200000" points="261.1,-104.76 259,-98.76 256.9,-104.76 261.1,-104.76"/>
</g>
<!-- src/report&#45;&gt;src/utl -->
<g id="edge24" class="edge">
<title>src/report&#45;&gt;src/utl</title>
<path fill="none" stroke="#aaaaaa" stroke-width="2" stroke-opacity="0.466667" d="M222.67,-46.36C222.67,-42.99 222.67,-40 222.67,-40 222.67,-40 129.33,-40 129.33,-40 129.33,-40 129.33,-39.42 129.33,-39.42"/>
<polygon fill="#aaaaaa" fill-opacity="0.466667" stroke="#aaaaaa" stroke-width="2" stroke-opacity="0.466667" points="131.43,-43.22 129.33,-37.22 127.23,-43.22 131.43,-43.22"/>
</g>
<!-- src/report&#45;&gt;src/graph&#45;utl -->
<g id="edge23" class="edge">
<title>src/report&#45;&gt;src/graph&#45;utl</title>
<path fill="none" stroke="#770000" stroke-width="2" stroke-opacity="0.466667" d="M227.33,-46.57C227.33,-46.57 227.33,-43 227.33,-43"/>
<polygon fill="#770000" fill-opacity="0.466667" stroke="#770000" stroke-width="2" stroke-opacity="0.466667" points="229.43,-43 227.33,-37 225.23,-43 229.43,-43"/>
</g>
<!-- src/enrich&#45;&gt;src/utl -->
<g id="edge14" class="edge">
<title>src/enrich&#45;&gt;src/utl</title>
<path fill="none" stroke="#aaaaaa" stroke-width="2" stroke-opacity="0.466667" d="M84.37,-83C93.31,-83 101,-83 101,-83 101,-83 101,-43.24 101,-43.24"/>
<polygon fill="#aaaaaa" fill-opacity="0.466667" stroke="#aaaaaa" stroke-width="2" stroke-opacity="0.466667" points="103.1,-43.24 101,-37.24 98.9,-43.24 103.1,-43.24"/>
</g>
<!-- src/enrich&#45;&gt;src/graph&#45;utl -->
<g id="edge12" class="edge">
<title>src/enrich&#45;&gt;src/graph&#45;utl</title>
<path fill="none" stroke="#770000" stroke-width="2" stroke-opacity="0.466667" d="M70.67,-77.25C70.67,-73.94 70.67,-71 70.67,-71 70.67,-71 185,-71 185,-71 185,-71 185,-43.24 185,-43.24"/>
<polygon fill="#770000" fill-opacity="0.466667" stroke="#770000" stroke-width="2" stroke-opacity="0.466667" points="187.1,-43.24 185,-37.24 182.9,-43.24 187.1,-43.24"/>
</g>
<!-- src/validate -->
<g id="node11" class="node">
<title>src/validate</title>
<g id="a_node11"><a xlink:href="https://github.com/sverweij/dependency-cruiser/blob/main/src/validate" xlink:title="validate">
<polygon fill="#ccccff" stroke="black" points="98,-64.5 45.97,-64.5 44,-62.53 44,-46.75 96.03,-46.75 98,-48.72 98,-64.5"/>
<polyline fill="none" stroke="black" points="96.03,-62.53 44,-62.53"/>
<polyline fill="none" stroke="black" points="96.03,-62.53 96.03,-46.75"/>
<polyline fill="none" stroke="black" points="96.03,-62.53 98,-64.5"/>
<text text-anchor="start" x="54.88" y="-51.95" font-family="Helvetica,sans-Serif" font-size="9.00">validate</text>
</a>
</g>
</g>
<!-- src/enrich&#45;&gt;src/validate -->
<g id="edge13" class="edge">
<title>src/enrich&#45;&gt;src/validate</title>
<path fill="none" stroke="#0000ff" stroke-width="2" stroke-opacity="0.466667" d="M57.33,-77.32C57.33,-77.32 57.33,-73.75 57.33,-73.75"/>
<polygon fill="#0000ff" fill-opacity="0.466667" stroke="#0000ff" stroke-width="2" stroke-opacity="0.466667" points="59.43,-73.75 57.33,-67.75 55.23,-73.75 59.43,-73.75"/>
</g>
<!-- src/validate&#45;&gt;src/utl -->
<g id="edge25" class="edge">
<title>src/validate&#45;&gt;src/utl</title>
<path fill="none" stroke="#aaaaaa" stroke-width="2" stroke-opacity="0.466667" d="M88,-46.57C88,-46.57 88,-43 88,-43"/>
<polygon fill="#aaaaaa" fill-opacity="0.466667" stroke="#aaaaaa" stroke-width="2" stroke-opacity="0.466667" points="90.1,-43 88,-37 85.9,-43 90.1,-43"/>
</g>
</g>
</svg>
