<?xml version="1.0" encoding="UTF-8" standalone="no"?>
<!DOCTYPE svg PUBLIC "-//W3C//DTD SVG 1.1//EN"
 "http://www.w3.org/Graphics/SVG/1.1/DTD/svg11.dtd">
<!-- Generated by graphviz version 2.43.0 (0)
 -->
<!-- Title: dependency&#45;cruiser output Pages: 1 -->
<svg width="998pt" height="391pt"
 viewBox="0.00 0.00 998.00 390.90" xmlns="http://www.w3.org/2000/svg" xmlns:xlink="http://www.w3.org/1999/xlink">
<g id="graph0" class="graph" transform="scale(1 1) rotate(0) translate(4 386.9)">
<title>dependency&#45;cruiser output</title>
<polygon fill="white" stroke="transparent" points="-4,4 -4,-386.9 994,-386.9 994,4 -4,4"/>
<g id="clust1" class="cluster">
<title>cluster_src</title>
<path fill="#ffffff" stroke="black" stroke-width="2" d="M20,-8C20,-8 970,-8 970,-8 976,-8 982,-14 982,-20 982,-20 982,-345.9 982,-345.9 982,-351.9 976,-357.9 970,-357.9 970,-357.9 20,-357.9 20,-357.9 14,-357.9 8,-351.9 8,-345.9 8,-345.9 8,-20 8,-20 8,-14 14,-8 20,-8"/>
<text text-anchor="middle" x="495" y="-346.7" font-family="Helvetica,sans-Serif" font-weight="bold" font-size="9.00">src</text>
</g>
<g id="clust2" class="cluster">
<title>cluster_src/cli</title>
<path fill="#ffffff" stroke="black" stroke-width="2" d="M426,-239.6C426,-239.6 624,-239.6 624,-239.6 630,-239.6 636,-245.6 636,-251.6 636,-251.6 636,-320.9 636,-320.9 636,-326.9 630,-332.9 624,-332.9 624,-332.9 426,-332.9 426,-332.9 420,-332.9 414,-326.9 414,-320.9 414,-320.9 414,-251.6 414,-251.6 414,-245.6 420,-239.6 426,-239.6"/>
<text text-anchor="middle" x="525" y="-321.7" font-family="Helvetica,sans-Serif" font-weight="bold" font-size="9.00">cli</text>
</g>
<g id="clust3" class="cluster">
<title>cluster_src/extract</title>
<path fill="#ffffff" stroke="black" stroke-width="2" d="M446,-79C446,-79 962,-79 962,-79 968,-79 974,-85 974,-91 974,-91 974,-219.6 974,-219.6 974,-225.6 968,-231.6 962,-231.6 962,-231.6 446,-231.6 446,-231.6 440,-231.6 434,-225.6 434,-219.6 434,-219.6 434,-91 434,-91 434,-85 440,-79 446,-79"/>
<text text-anchor="middle" x="704" y="-220.4" font-family="Helvetica,sans-Serif" font-weight="bold" font-size="9.00">extract</text>
</g>
<g id="clust4" class="cluster">
<title>cluster_src/extract/derive</title>
<path fill="#ffffff" stroke="black" stroke-width="2" d="M640,-138.3C640,-138.3 836,-138.3 836,-138.3 842,-138.3 848,-144.3 848,-150.3 848,-150.3 848,-176.3 848,-176.3 848,-182.3 842,-188.3 836,-188.3 836,-188.3 640,-188.3 640,-188.3 634,-188.3 628,-182.3 628,-176.3 628,-176.3 628,-150.3 628,-150.3 628,-144.3 634,-138.3 640,-138.3"/>
<text text-anchor="middle" x="738" y="-177.1" font-family="Helvetica,sans-Serif" font-weight="bold" font-size="9.00">derive</text>
</g>
<g id="clust5" class="cluster">
<title>cluster_src/extract/resolve</title>
<path fill="#ffffff" stroke="black" stroke-width="2" d="M868,-87C868,-87 954,-87 954,-87 960,-87 966,-93 966,-99 966,-99 966,-169.6 966,-169.6 966,-175.6 960,-181.6 954,-181.6 954,-181.6 868,-181.6 868,-181.6 862,-181.6 856,-175.6 856,-169.6 856,-169.6 856,-99 856,-99 856,-93 862,-87 868,-87"/>
<text text-anchor="middle" x="911" y="-170.4" font-family="Helvetica,sans-Serif" font-weight="bold" font-size="9.00">resolve</text>
</g>
<g id="clust6" class="cluster">
<title>cluster_src/main</title>
<path fill="#ffffff" stroke="black" stroke-width="2" d="M165,-138.3C165,-138.3 394,-138.3 394,-138.3 400,-138.3 406,-144.3 406,-150.3 406,-150.3 406,-270.9 406,-270.9 406,-276.9 400,-282.9 394,-282.9 394,-282.9 165,-282.9 165,-282.9 159,-282.9 153,-276.9 153,-270.9 153,-270.9 153,-150.3 153,-150.3 153,-144.3 159,-138.3 165,-138.3"/>
<text text-anchor="middle" x="279.5" y="-271.7" font-family="Helvetica,sans-Serif" font-weight="bold" font-size="9.00">main</text>
</g>
<g id="clust7" class="cluster">
<title>cluster_src/report</title>
<path fill="#ffffff" stroke="black" stroke-width="2" d="M28,-16C28,-16 338,-16 338,-16 344,-16 350,-22 350,-28 350,-28 350,-118.3 350,-118.3 350,-124.3 344,-130.3 338,-130.3 338,-130.3 28,-130.3 28,-130.3 22,-130.3 16,-124.3 16,-118.3 16,-118.3 16,-28 16,-28 16,-22 22,-16 28,-16"/>
<text text-anchor="middle" x="183" y="-119.1" font-family="Helvetica,sans-Serif" font-weight="bold" font-size="9.00">report</text>
</g>
<!-- bin -->
<g id="node1" class="node">
<title>bin</title>
<g id="a_node1"><a xlink:href="https://github.com/sverweij/dependency-cruiser/blob/develop/bin" xlink:title="bin">
<polygon fill="#ffffcc" stroke="black" points="541,-382.9 488.89,-382.9 487,-381.01 487,-365.9 539.11,-365.9 541,-367.79 541,-382.9"/>
<polyline fill="none" stroke="black" points="539.11,-381.01 487,-381.01 "/>
<polyline fill="none" stroke="black" points="539.11,-381.01 539.11,-365.9 "/>
<polyline fill="none" stroke="black" points="539.11,-381.01 541,-382.9 "/>
<text text-anchor="middle" x="514" y="-371.7" font-family="Helvetica,sans-Serif" font-size="9.00">bin</text>
</a>
</g>
</g>
<!-- src/cli -->
<!-- bin&#45;&gt;src/cli -->
<g id="edge1" class="edge">
<title>bin&#45;&gt;src/cli</title>
<path fill="none" stroke="#0000ff" stroke-width="2" stroke-opacity="0.466667" d="M535.6,-365.8C535.6,-365.8 535.6,-307.44 535.6,-307.44"/>
<polygon fill="#0000ff" fill-opacity="0.466667" stroke="#0000ff" stroke-width="2" stroke-opacity="0.466667" points="537.7,-307.44 535.6,-301.44 533.5,-307.45 537.7,-307.44"/>
</g>
<!-- src/cli/tools -->
<g id="node3" class="node">
<title>src/cli/tools</title>
<g id="a_node3"><a xlink:href="https://github.com/sverweij/dependency-cruiser/blob/develop/src/cli/tools" xlink:title="tools">
<polygon fill="#ccccff" stroke="black" points="521,-307.9 468.89,-307.9 467,-306.01 467,-290.9 519.11,-290.9 521,-292.79 521,-307.9"/>
<polyline fill="none" stroke="black" points="519.11,-306.01 467,-306.01 "/>
<polyline fill="none" stroke="black" points="519.11,-306.01 519.11,-290.9 "/>
<polyline fill="none" stroke="black" points="519.11,-306.01 521,-307.9 "/>
<text text-anchor="middle" x="494" y="-296.7" font-family="Helvetica,sans-Serif" font-size="9.00">tools</text>
</a>
</g>
</g>
<!-- bin&#45;&gt;src/cli/tools -->
<g id="edge2" class="edge">
<title>bin&#45;&gt;src/cli/tools</title>
<path fill="none" stroke="#0000ff" stroke-width="2" stroke-opacity="0.466667" d="M504,-365.8C504,-365.8 504,-313.9 504,-313.9"/>
<polygon fill="#0000ff" fill-opacity="0.466667" stroke="#0000ff" stroke-width="2" stroke-opacity="0.466667" points="506.1,-313.9 504,-307.9 501.9,-313.9 506.1,-313.9"/>
</g>
<!-- src/main -->
<!-- src/cli&#45;&gt;src/main -->
<g id="edge3" class="edge">
<title>src/cli&#45;&gt;src/main</title>
<path fill="none" stroke="#770000" stroke-width="2" stroke-opacity="0.466667" d="M533.08,-300C530.2,-300 525.07,-300 525.07,-300 525.07,-300 525.07,-346 525.07,-346 525.07,-346 227.4,-346 227.4,-346 227.4,-346 227.4,-263.98 227.4,-263.98"/>
<polygon fill="#770000" fill-opacity="0.466667" stroke="#770000" stroke-width="2" stroke-opacity="0.466667" points="229.5,-263.98 227.4,-257.98 225.3,-263.98 229.5,-263.98"/>
</g>
<!-- src/cli/utl -->
<g id="node6" class="node">
<title>src/cli/utl</title>
<g id="a_node6"><a xlink:href="https://github.com/sverweij/dependency-cruiser/blob/develop/src/cli/utl" xlink:title="utl">
<polygon fill="#ccccff" stroke="black" points="628,-264.6 575.89,-264.6 574,-262.71 574,-247.6 626.11,-247.6 628,-249.49 628,-264.6"/>
<polyline fill="none" stroke="black" points="626.11,-262.71 574,-262.71 "/>
<polyline fill="none" stroke="black" points="626.11,-262.71 626.11,-247.6 "/>
<polyline fill="none" stroke="black" points="626.11,-262.71 628,-264.6 "/>
<text text-anchor="middle" x="601" y="-253.4" font-family="Helvetica,sans-Serif" font-size="9.00">utl</text>
</a>
</g>
</g>
<!-- src/cli&#45;&gt;src/cli/utl -->
<g id="edge4" class="edge">
<title>src/cli&#45;&gt;src/cli/utl</title>
<path fill="none" stroke="#0000ff" stroke-width="2" stroke-opacity="0.466667" d="M536.9,-299C547.73,-299 601,-299 601,-299 601,-299 601,-270.78 601,-270.78"/>
<polygon fill="#0000ff" fill-opacity="0.466667" stroke="#0000ff" stroke-width="2" stroke-opacity="0.466667" points="603.1,-270.78 601,-264.78 598.9,-270.78 603.1,-270.78"/>
</g>
<!-- src/cli/compile&#45;config -->
<g id="node7" class="node">
<title>src/cli/compile&#45;config</title>
<g id="a_node7"><a xlink:href="https://github.com/sverweij/dependency-cruiser/blob/develop/src/cli/compile-config" xlink:title="compile&#45;config">
<polygon fill="#ccccff" stroke="black" points="496.03,-264.6 423.86,-264.6 421.97,-262.71 421.97,-247.6 494.14,-247.6 496.03,-249.49 496.03,-264.6"/>
<polyline fill="none" stroke="black" points="494.14,-262.71 421.97,-262.71 "/>
<polyline fill="none" stroke="black" points="494.14,-262.71 494.14,-247.6 "/>
<polyline fill="none" stroke="black" points="494.14,-262.71 496.03,-264.6 "/>
<text text-anchor="middle" x="459" y="-253.4" font-family="Helvetica,sans-Serif" font-size="9.00">compile&#45;config</text>
</a>
</g>
</g>
<!-- src/cli&#45;&gt;src/cli/compile&#45;config -->
<g id="edge5" class="edge">
<title>src/cli&#45;&gt;src/cli/compile&#45;config</title>
<path fill="none" stroke="#0000ff" stroke-width="2" stroke-opacity="0.466667" d="M534.4,-301.21C534.4,-307.35 534.4,-327 534.4,-327 534.4,-327 444.49,-327 444.49,-327 444.49,-327 444.49,-270.79 444.49,-270.79"/>
<polygon fill="#0000ff" fill-opacity="0.466667" stroke="#0000ff" stroke-width="2" stroke-opacity="0.466667" points="446.59,-270.79 444.49,-264.79 442.39,-270.79 446.59,-270.79"/>
</g>
<!-- src/cli/init&#45;config -->
<g id="node8" class="node">
<title>src/cli/init&#45;config</title>
<g id="a_node8"><a xlink:href="https://github.com/sverweij/dependency-cruiser/blob/develop/src/cli/init-config" xlink:title="init&#45;config">
<polygon fill="#ccccff" stroke="black" points="562.02,-264.6 509.87,-264.6 507.98,-262.71 507.98,-247.6 560.13,-247.6 562.02,-249.49 562.02,-264.6"/>
<polyline fill="none" stroke="black" points="560.13,-262.71 507.98,-262.71 "/>
<polyline fill="none" stroke="black" points="560.13,-262.71 560.13,-247.6 "/>
<polyline fill="none" stroke="black" points="560.13,-262.71 562.02,-264.6 "/>
<text text-anchor="middle" x="535" y="-253.4" font-family="Helvetica,sans-Serif" font-size="9.00">init&#45;config</text>
</a>
</g>
</g>
<!-- src/cli&#45;&gt;src/cli/init&#45;config -->
<g id="edge6" class="edge">
<title>src/cli&#45;&gt;src/cli/init&#45;config</title>
<path fill="none" stroke="#0000ff" stroke-width="2" stroke-opacity="0.466667" d="M535,-297.54C535,-297.54 535,-270.76 535,-270.76"/>
<polygon fill="#0000ff" fill-opacity="0.466667" stroke="#0000ff" stroke-width="2" stroke-opacity="0.466667" points="537.1,-270.76 535,-264.76 532.9,-270.76 537.1,-270.76"/>
</g>
<!-- src -->
<!-- src/main/resolve&#45;options -->
<g id="node10" class="node">
<title>src/main/resolve&#45;options</title>
<g id="a_node10"><a xlink:href="https://github.com/sverweij/dependency-cruiser/blob/develop/src/main/resolve-options" xlink:title="resolve&#45;options">
<polygon fill="#ffcccc" stroke="black" points="397.53,-213.3 322.36,-213.3 320.47,-211.41 320.47,-196.3 395.64,-196.3 397.53,-198.19 397.53,-213.3"/>
<polyline fill="none" stroke="black" points="395.64,-211.41 320.47,-211.41 "/>
<polyline fill="none" stroke="black" points="395.64,-211.41 395.64,-196.3 "/>
<polyline fill="none" stroke="black" points="395.64,-211.41 397.53,-213.3 "/>
<text text-anchor="middle" x="359" y="-202.1" font-family="Helvetica,sans-Serif" font-size="9.00">resolve&#45;options</text>
</a>
</g>
</g>
<!-- src/main&#45;&gt;src/main/resolve&#45;options -->
<g id="edge31" class="edge">
<title>src/main&#45;&gt;src/main/resolve&#45;options</title>
<path fill="none" stroke="#770000" stroke-width="2" stroke-opacity="0.466667" d="M228.6,-258.03C228.6,-263.2 228.6,-277 228.6,-277 228.6,-277 359,-277 359,-277 359,-277 359,-219.37 359,-219.37"/>
<polygon fill="#770000" fill-opacity="0.466667" stroke="#770000" stroke-width="2" stroke-opacity="0.466667" points="361.1,-219.37 359,-213.37 356.9,-219.37 361.1,-219.37"/>
</g>
<!-- src/extract -->
<!-- src/main&#45;&gt;src/extract -->
<g id="edge25" class="edge">
<title>src/main&#45;&gt;src/extract</title>
<path fill="none" stroke="#007700" stroke-width="2" stroke-opacity="0.466667" d="M229.62,-257C232.54,-257 238.38,-257 238.38,-257 238.38,-257 238.38,-239 238.38,-239 238.38,-239 577.07,-239 577.07,-239 577.07,-239 577.07,-206 577.07,-206 577.07,-206 577.71,-206 577.71,-206"/>
<polygon fill="#007700" fill-opacity="0.466667" stroke="#007700" stroke-width="2" stroke-opacity="0.466667" points="577.47,-208.1 583.47,-206 577.47,-203.9 577.47,-208.1"/>
</g>
<!-- src/extract/transpile -->
<g id="node19" class="node">
<title>src/extract/transpile</title>
<g id="a_node19"><a xlink:href="https://github.com/sverweij/dependency-cruiser/blob/develop/src/extract/transpile" xlink:title="transpile">
<polygon fill="#ccffcc" stroke="black" points="524,-112 471.89,-112 470,-110.11 470,-95 522.11,-95 524,-96.89 524,-112"/>
<polyline fill="none" stroke="black" points="522.11,-110.11 470,-110.11 "/>
<polyline fill="none" stroke="black" points="522.11,-110.11 522.11,-95 "/>
<polyline fill="none" stroke="black" points="522.11,-110.11 524,-112 "/>
<text text-anchor="middle" x="497" y="-100.8" font-family="Helvetica,sans-Serif" font-size="9.00">transpile</text>
</a>
</g>
</g>
<!-- src/main&#45;&gt;src/extract/transpile -->
<g id="edge26" class="edge">
<title>src/main&#45;&gt;src/extract/transpile</title>
<path fill="none" stroke="#007700" stroke-width="2" stroke-opacity="0.466667" d="M230.06,-256C232.28,-256 235.52,-256 235.52,-256 235.52,-256 235.52,-129 235.52,-129 235.52,-129 484.09,-129 484.09,-129 484.09,-129 484.09,-118.13 484.09,-118.13"/>
<polygon fill="#007700" fill-opacity="0.466667" stroke="#007700" stroke-width="2" stroke-opacity="0.466667" points="486.19,-118.13 484.09,-112.13 481.99,-118.13 486.19,-118.13"/>
</g>
<!-- src/report -->
<!-- src/main&#45;&gt;src/report -->
<g id="edge27" class="edge">
<title>src/main&#45;&gt;src/report</title>
<path fill="none" stroke="#ff00ff" stroke-width="2" stroke-opacity="0.466667" d="M227.1,-254.18C227.1,-237.63 227.1,-120 227.1,-120 227.1,-120 185.6,-120 185.6,-120 185.6,-120 185.6,-111.27 185.6,-111.27"/>
<polygon fill="#ff00ff" fill-opacity="0.466667" stroke="#ff00ff" stroke-width="2" stroke-opacity="0.466667" points="187.7,-111.27 185.6,-105.27 183.5,-111.27 187.7,-111.27"/>
</g>
<!-- src/schema -->
<g id="node24" class="node">
<title>src/schema</title>
<g id="a_node24"><a xlink:href="https://github.com/sverweij/dependency-cruiser/blob/develop/src/schema" xlink:title="schema">
<polygon fill="#ffffcc" stroke="black" points="145,-163.3 92.89,-163.3 91,-161.41 91,-146.3 143.11,-146.3 145,-148.19 145,-163.3"/>
<polyline fill="none" stroke="black" points="143.11,-161.41 91,-161.41 "/>
<polyline fill="none" stroke="black" points="143.11,-161.41 143.11,-146.3 "/>
<polyline fill="none" stroke="black" points="143.11,-161.41 145,-163.3 "/>
<text text-anchor="middle" x="118" y="-152.1" font-family="Helvetica,sans-Serif" font-size="9.00">schema</text>
</a>
</g>
</g>
<!-- src/main&#45;&gt;src/schema -->
<g id="edge28" class="edge">
<title>src/main&#45;&gt;src/schema</title>
<path fill="none" stroke="#000000" stroke-width="2" stroke-opacity="0.200000" d="M225.93,-256C210.13,-256 109,-256 109,-256 109,-256 109,-169.43 109,-169.43"/>
<polygon fill="#000000" fill-opacity="0.200000" stroke="#000000" stroke-width="2" stroke-opacity="0.200000" points="111.1,-169.43 109,-163.43 106.9,-169.43 111.1,-169.43"/>
</g>
<!-- src/main/files&#45;and&#45;dirs -->
<g id="node25" class="node">
<title>src/main/files&#45;and&#45;dirs</title>
<g id="a_node25"><a xlink:href="https://github.com/sverweij/dependency-cruiser/blob/develop/src/main/files-and-dirs" xlink:title="files&#45;and&#45;dirs">
<polygon fill="#ffcccc" stroke="black" points="308.52,-213.3 243.37,-213.3 241.48,-211.41 241.48,-196.3 306.63,-196.3 308.52,-198.19 308.52,-213.3"/>
<polyline fill="none" stroke="black" points="306.63,-211.41 241.48,-211.41 "/>
<polyline fill="none" stroke="black" points="306.63,-211.41 306.63,-196.3 "/>
<polyline fill="none" stroke="black" points="306.63,-211.41 308.52,-213.3 "/>
<text text-anchor="middle" x="275" y="-202.1" font-family="Helvetica,sans-Serif" font-size="9.00">files&#45;and&#45;dirs</text>
</a>
</g>
</g>
<!-- src/main&#45;&gt;src/main/files&#45;and&#45;dirs -->
<g id="edge29" class="edge">
<title>src/main&#45;&gt;src/main/files&#45;and&#45;dirs</title>
<path fill="none" stroke="#770000" stroke-width="2" stroke-opacity="0.466667" d="M228.9,-254.37C228.9,-245.33 228.9,-204 228.9,-204 228.9,-204 235.01,-204 235.01,-204"/>
<polygon fill="#770000" fill-opacity="0.466667" stroke="#770000" stroke-width="2" stroke-opacity="0.466667" points="235.01,-206.1 241.01,-204 235.01,-201.9 235.01,-206.1"/>
</g>
<!-- src/main/options -->
<g id="node26" class="node">
<title>src/main/options</title>
<g id="a_node26"><a xlink:href="https://github.com/sverweij/dependency-cruiser/blob/develop/src/main/options" xlink:title="options">
<polygon fill="#ffcccc" stroke="black" points="215,-163.3 162.89,-163.3 161,-161.41 161,-146.3 213.11,-146.3 215,-148.19 215,-163.3"/>
<polyline fill="none" stroke="black" points="213.11,-161.41 161,-161.41 "/>
<polyline fill="none" stroke="black" points="213.11,-161.41 213.11,-146.3 "/>
<polyline fill="none" stroke="black" points="213.11,-161.41 215,-163.3 "/>
<text text-anchor="middle" x="188" y="-152.1" font-family="Helvetica,sans-Serif" font-size="9.00">options</text>
</a>
</g>
</g>
<!-- src/main&#45;&gt;src/main/options -->
<g id="edge30" class="edge">
<title>src/main&#45;&gt;src/main/options</title>
<path fill="none" stroke="#770000" stroke-width="2" stroke-opacity="0.466667" d="M229.47,-255C230.84,-255 232.66,-255 232.66,-255 232.66,-255 232.66,-154 232.66,-154 232.66,-154 221.01,-154 221.01,-154"/>
<polygon fill="#770000" fill-opacity="0.466667" stroke="#770000" stroke-width="2" stroke-opacity="0.466667" points="221.01,-151.9 215.01,-154 221.01,-156.1 221.01,-151.9"/>
</g>
<!-- src/main/rule&#45;set -->
<g id="node27" class="node">
<title>src/main/rule&#45;set</title>
<g id="a_node27"><a xlink:href="https://github.com/sverweij/dependency-cruiser/blob/develop/src/main/rule-set" xlink:title="rule&#45;set">
<polygon fill="#ffcccc" stroke="black" points="215,-213.3 162.89,-213.3 161,-211.41 161,-196.3 213.11,-196.3 215,-198.19 215,-213.3"/>
<polyline fill="none" stroke="black" points="213.11,-211.41 161,-211.41 "/>
<polyline fill="none" stroke="black" points="213.11,-211.41 213.11,-196.3 "/>
<polyline fill="none" stroke="black" points="213.11,-211.41 215,-213.3 "/>
<text text-anchor="middle" x="188" y="-202.1" font-family="Helvetica,sans-Serif" font-size="9.00">rule&#45;set</text>
</a>
</g>
</g>
<!-- src/main&#45;&gt;src/main/rule&#45;set -->
<g id="edge32" class="edge">
<title>src/main&#45;&gt;src/main/rule&#45;set</title>
<path fill="none" stroke="#770000" stroke-width="2" stroke-opacity="0.466667" d="M226.43,-255C222.22,-255 211,-255 211,-255 211,-255 211,-219.54 211,-219.54"/>
<polygon fill="#770000" fill-opacity="0.466667" stroke="#770000" stroke-width="2" stroke-opacity="0.466667" points="213.1,-219.54 211,-213.54 208.9,-219.54 213.1,-219.54"/>
</g>
<!-- src/extract/resolve -->
<!-- src/cli/compile&#45;config&#45;&gt;src/extract/resolve -->
<g id="edge7" class="edge">
<title>src/cli/compile&#45;config&#45;&gt;src/extract/resolve</title>
<g id="a_edge7"><a xlink:title="cli&#45;to&#45;main&#45;only&#45;warn">
<path fill="none" stroke="orange" stroke-width="2" d="M459.83,-247.33C459.83,-229.14 459.83,-189 459.83,-189 459.83,-189 851.98,-189 851.98,-189 851.98,-189 851.98,-154 851.98,-154 851.98,-154 858.28,-154 858.28,-154"/>
<polygon fill="orange" stroke="orange" stroke-width="2" points="858.28,-156.1 864.28,-154 858.28,-151.9 858.28,-156.1"/>
</a>
</g>
<text text-anchor="middle" x="605.63" y="-190.8" font-family="Helvetica,sans-Serif" font-size="9.00" fill="orange">cli&#45;to&#45;main&#45;only&#45;warn</text>
</g>
<!-- src/cli/compile&#45;config&#45;&gt;src/main/resolve&#45;options -->
<g id="edge8" class="edge">
<title>src/cli/compile&#45;config&#45;&gt;src/main/resolve&#45;options</title>
<path fill="none" stroke="#770000" stroke-width="2" stroke-opacity="0.466667" d="M433.87,-247.33C433.87,-232.25 433.87,-203 433.87,-203 433.87,-203 403.75,-203 403.75,-203"/>
<polygon fill="#770000" fill-opacity="0.466667" stroke="#770000" stroke-width="2" stroke-opacity="0.466667" points="403.75,-200.9 397.75,-203 403.75,-205.1 403.75,-200.9"/>
</g>
<!-- src/cli/init&#45;config&#45;&gt;src/cli -->
<g id="edge9" class="edge">
<title>src/cli/init&#45;config&#45;&gt;src/cli</title>
<path fill="none" stroke="#0000ff" stroke-width="2" stroke-opacity="0.466667" d="M529.13,-264.99C529.13,-277.29 529.13,-298 529.13,-298 529.13,-298 529.58,-298 529.58,-298"/>
<polygon fill="#0000ff" fill-opacity="0.466667" stroke="#0000ff" stroke-width="2" stroke-opacity="0.466667" points="527.64,-300.1 533.64,-298 527.64,-295.9 527.64,-300.1"/>
</g>
<!-- src/extract/utl -->
<g id="node15" class="node">
<title>src/extract/utl</title>
<g id="a_node15"><a xlink:href="https://github.com/sverweij/dependency-cruiser/blob/develop/src/extract/utl" xlink:title="utl">
<polygon fill="#ccffcc" stroke="black" points="632,-112 579.89,-112 578,-110.11 578,-95 630.11,-95 632,-96.89 632,-112"/>
<polyline fill="none" stroke="black" points="630.11,-110.11 578,-110.11 "/>
<polyline fill="none" stroke="black" points="630.11,-110.11 630.11,-95 "/>
<polyline fill="none" stroke="black" points="630.11,-110.11 632,-112 "/>
<text text-anchor="middle" x="605" y="-100.8" font-family="Helvetica,sans-Serif" font-size="9.00">utl</text>
</a>
</g>
</g>
<!-- src/extract/resolve&#45;&gt;src/extract/utl -->
<g id="edge23" class="edge">
<title>src/extract/resolve&#45;&gt;src/extract/utl</title>
<path fill="none" stroke="#007700" stroke-width="2" stroke-opacity="0.466667" d="M864.21,-154.22C864.21,-148.53 864.21,-103 864.21,-103 864.21,-103 638.25,-103 638.25,-103"/>
<polygon fill="#007700" fill-opacity="0.466667" stroke="#007700" stroke-width="2" stroke-opacity="0.466667" points="638.25,-100.9 632.25,-103 638.25,-105.1 638.25,-100.9"/>
</g>
<!-- src/extract/resolve/read&#45;package&#45;deps -->
<g id="node18" class="node">
<title>src/extract/resolve/read&#45;package&#45;deps</title>
<g id="a_node18"><a xlink:href="https://github.com/sverweij/dependency-cruiser/blob/develop/src/extract/resolve/read-package-deps" xlink:title="read&#45;package&#45;deps">
<polygon fill="#ccffcc" stroke="black" points="957.55,-112 866.34,-112 864.45,-110.11 864.45,-95 955.66,-95 957.55,-96.89 957.55,-112"/>
<polyline fill="none" stroke="black" points="955.66,-110.11 864.45,-110.11 "/>
<polyline fill="none" stroke="black" points="955.66,-110.11 955.66,-95 "/>
<polyline fill="none" stroke="black" points="955.66,-110.11 957.55,-112 "/>
<text text-anchor="middle" x="911" y="-100.8" font-family="Helvetica,sans-Serif" font-size="9.00">read&#45;package&#45;deps</text>
</a>
</g>
</g>
<!-- src/extract/resolve&#45;&gt;src/extract/resolve/read&#45;package&#45;deps -->
<g id="edge24" class="edge">
<title>src/extract/resolve&#45;&gt;src/extract/resolve/read&#45;package&#45;deps</title>
<path fill="none" stroke="#007700" stroke-width="2" stroke-opacity="0.466667" d="M866.01,-152.6C866.01,-152.6 866.01,-118.09 866.01,-118.09"/>
<polygon fill="#007700" fill-opacity="0.466667" stroke="#007700" stroke-width="2" stroke-opacity="0.466667" points="868.11,-118.09 866.01,-112.09 863.91,-118.09 868.11,-118.09"/>
</g>
<!-- src/main/resolve&#45;options&#45;&gt;src/extract/transpile -->
<g id="edge34" class="edge">
<title>src/main/resolve&#45;options&#45;&gt;src/extract/transpile</title>
<path fill="none" stroke="#007700" stroke-width="2" stroke-opacity="0.466667" d="M384.76,-196.21C384.76,-177.97 384.76,-137 384.76,-137 384.76,-137 498.17,-137 498.17,-137 498.17,-137 498.17,-118.3 498.17,-118.3"/>
<polygon fill="#007700" fill-opacity="0.466667" stroke="#007700" stroke-width="2" stroke-opacity="0.466667" points="500.27,-118.3 498.17,-112.3 496.07,-118.3 500.27,-118.3"/>
</g>
<!-- src/extract&#45;&gt;src/extract/resolve -->
<g id="edge16" class="edge">
<title>src/extract&#45;&gt;src/extract/resolve</title>
<path fill="none" stroke="#007700" stroke-width="2" stroke-opacity="0.466667" d="M584.4,-206.78C584.4,-212.72 584.4,-230 584.4,-230 584.4,-230 866,-230 866,-230 866,-230 866,-162.66 866,-162.66"/>
<polygon fill="#007700" fill-opacity="0.466667" stroke="#007700" stroke-width="2" stroke-opacity="0.466667" points="868.1,-162.66 866,-156.66 863.9,-162.66 868.1,-162.66"/>
</g>
<!-- src/extract/derive/circular -->
<g id="node12" class="node">
<title>src/extract/derive/circular</title>
<g id="a_node12"><a xlink:href="https://github.com/sverweij/dependency-cruiser/blob/develop/src/extract/derive/circular" xlink:title="circular">
<polygon fill="#ccffcc" stroke="black" points="772,-163.3 719.89,-163.3 718,-161.41 718,-146.3 770.11,-146.3 772,-148.19 772,-163.3"/>
<polyline fill="none" stroke="black" points="770.11,-161.41 718,-161.41 "/>
<polyline fill="none" stroke="black" points="770.11,-161.41 770.11,-146.3 "/>
<polyline fill="none" stroke="black" points="770.11,-161.41 772,-163.3 "/>
<text text-anchor="middle" x="745" y="-152.1" font-family="Helvetica,sans-Serif" font-size="9.00">circular</text>
</a>
</g>
</g>
<!-- src/extract&#45;&gt;src/extract/derive/circular -->
<g id="edge10" class="edge">
<title>src/extract&#45;&gt;src/extract/derive/circular</title>
<path fill="none" stroke="#007700" stroke-width="2" stroke-opacity="0.466667" d="M586.8,-204C604.38,-204 745,-204 745,-204 745,-204 745,-169.37 745,-169.37"/>
<polygon fill="#007700" fill-opacity="0.466667" stroke="#007700" stroke-width="2" stroke-opacity="0.466667" points="747.1,-169.37 745,-163.37 742.9,-169.37 747.1,-169.37"/>
</g>
<!-- src/extract/derive/orphan -->
<g id="node13" class="node">
<title>src/extract/derive/orphan</title>
<g id="a_node13"><a xlink:href="https://github.com/sverweij/dependency-cruiser/blob/develop/src/extract/derive/orphan" xlink:title="orphan">
<polygon fill="#ccffcc" stroke="black" points="706,-163.3 653.89,-163.3 652,-161.41 652,-146.3 704.11,-146.3 706,-148.19 706,-163.3"/>
<polyline fill="none" stroke="black" points="704.11,-161.41 652,-161.41 "/>
<polyline fill="none" stroke="black" points="704.11,-161.41 704.11,-146.3 "/>
<polyline fill="none" stroke="black" points="704.11,-161.41 706,-163.3 "/>
<text text-anchor="middle" x="679" y="-152.1" font-family="Helvetica,sans-Serif" font-size="9.00">orphan</text>
</a>
</g>
</g>
<!-- src/extract&#45;&gt;src/extract/derive/orphan -->
<g id="edge11" class="edge">
<title>src/extract&#45;&gt;src/extract/derive/orphan</title>
<path fill="none" stroke="#007700" stroke-width="2" stroke-opacity="0.466667" d="M585.6,-206.79C585.6,-211.11 585.6,-221 585.6,-221 585.6,-221 679,-221 679,-221 679,-221 679,-169.45 679,-169.45"/>
<polygon fill="#007700" fill-opacity="0.466667" stroke="#007700" stroke-width="2" stroke-opacity="0.466667" points="681.1,-169.45 679,-163.45 676.9,-169.45 681.1,-169.45"/>
</g>
<!-- src/extract/derive/reachable -->
<g id="node14" class="node">
<title>src/extract/derive/reachable</title>
<g id="a_node14"><a xlink:href="https://github.com/sverweij/dependency-cruiser/blob/develop/src/extract/derive/reachable" xlink:title="reachable">
<polygon fill="#ccffcc" stroke="black" points="839.53,-163.3 786.36,-163.3 784.47,-161.41 784.47,-146.3 837.64,-146.3 839.53,-148.19 839.53,-163.3"/>
<polyline fill="none" stroke="black" points="837.64,-161.41 784.47,-161.41 "/>
<polyline fill="none" stroke="black" points="837.64,-161.41 837.64,-146.3 "/>
<polyline fill="none" stroke="black" points="837.64,-161.41 839.53,-163.3 "/>
<text text-anchor="middle" x="812" y="-152.1" font-family="Helvetica,sans-Serif" font-size="9.00">reachable</text>
</a>
</g>
</g>
<!-- src/extract&#45;&gt;src/extract/derive/reachable -->
<g id="edge12" class="edge">
<title>src/extract&#45;&gt;src/extract/derive/reachable</title>
<path fill="none" stroke="#007700" stroke-width="2" stroke-opacity="0.466667" d="M586.96,-205C609.15,-205 812,-205 812,-205 812,-205 812,-169.54 812,-169.54"/>
<polygon fill="#007700" fill-opacity="0.466667" stroke="#007700" stroke-width="2" stroke-opacity="0.466667" points="814.1,-169.54 812,-163.54 809.9,-169.54 814.1,-169.54"/>
</g>
<!-- src/extract&#45;&gt;src/extract/utl -->
<g id="edge13" class="edge">
<title>src/extract&#45;&gt;src/extract/utl</title>
<path fill="none" stroke="#007700" stroke-width="2" stroke-opacity="0.466667" d="M585.07,-203C586.54,-203 610,-203 610,-203 610,-203 610,-118.33 610,-118.33"/>
<polygon fill="#007700" fill-opacity="0.466667" stroke="#007700" stroke-width="2" stroke-opacity="0.466667" points="612.1,-118.33 610,-112.33 607.9,-118.33 612.1,-118.33"/>
</g>
<!-- src/validate -->
<g id="node16" class="node">
<title>src/validate</title>
<g id="a_node16"><a xlink:href="https://github.com/sverweij/dependency-cruiser/blob/develop/src/validate" xlink:title="validate">
<polygon fill="#ccccff" stroke="black" points="426,-112 373.89,-112 372,-110.11 372,-95 424.11,-95 426,-96.89 426,-112"/>
<polyline fill="none" stroke="black" points="424.11,-110.11 372,-110.11 "/>
<polyline fill="none" stroke="black" points="424.11,-110.11 424.11,-95 "/>
<polyline fill="none" stroke="black" points="424.11,-110.11 426,-112 "/>
<text text-anchor="middle" x="399" y="-100.8" font-family="Helvetica,sans-Serif" font-size="9.00">validate</text>
</a>
</g>
</g>
<!-- src/extract&#45;&gt;src/validate -->
<g id="edge14" class="edge">
<title>src/extract&#45;&gt;src/validate</title>
<path fill="none" stroke="#0000ff" stroke-width="2" stroke-opacity="0.466667" d="M584.4,-202.91C584.4,-196.5 584.4,-176 584.4,-176 584.4,-176 409.75,-176 409.75,-176 409.75,-176 409.75,-118.1 409.75,-118.1"/>
<polygon fill="#0000ff" fill-opacity="0.466667" stroke="#0000ff" stroke-width="2" stroke-opacity="0.466667" points="411.85,-118.1 409.75,-112.1 407.65,-118.1 411.85,-118.1"/>
</g>
<!-- src/extract/parse -->
<g id="node17" class="node">
<title>src/extract/parse</title>
<g id="a_node17"><a xlink:href="https://github.com/sverweij/dependency-cruiser/blob/develop/src/extract/parse" xlink:title="parse">
<polygon fill="#ccffcc" stroke="black" points="592,-163.3 539.89,-163.3 538,-161.41 538,-146.3 590.11,-146.3 592,-148.19 592,-163.3"/>
<polyline fill="none" stroke="black" points="590.11,-161.41 538,-161.41 "/>
<polyline fill="none" stroke="black" points="590.11,-161.41 590.11,-146.3 "/>
<polyline fill="none" stroke="black" points="590.11,-161.41 592,-163.3 "/>
<text text-anchor="middle" x="565" y="-152.1" font-family="Helvetica,sans-Serif" font-size="9.00">parse</text>
</a>
</g>
</g>
<!-- src/extract&#45;&gt;src/extract/parse -->
<g id="edge15" class="edge">
<title>src/extract&#45;&gt;src/extract/parse</title>
<path fill="none" stroke="#007700" stroke-width="2" stroke-opacity="0.466667" d="M585.6,-202.65C585.6,-202.65 585.6,-169.57 585.6,-169.57"/>
<polygon fill="#007700" fill-opacity="0.466667" stroke="#007700" stroke-width="2" stroke-opacity="0.466667" points="587.7,-169.57 585.6,-163.57 583.5,-169.57 587.7,-169.57"/>
</g>
<!-- src/extract&#45;&gt;src/extract/resolve/read&#45;package&#45;deps -->
<g id="edge17" class="edge">
<title>src/extract&#45;&gt;src/extract/resolve/read&#45;package&#45;deps</title>
<path fill="none" stroke="#007700" stroke-width="2" stroke-opacity="0.466667" d="M587.09,-205C615.01,-205 912.79,-205 912.79,-205 912.79,-205 912.79,-118.15 912.79,-118.15"/>
<polygon fill="#007700" fill-opacity="0.466667" stroke="#007700" stroke-width="2" stroke-opacity="0.466667" points="914.89,-118.15 912.79,-112.15 910.69,-118.15 914.89,-118.15"/>
</g>
<!-- src/extract&#45;&gt;src/extract/transpile -->
<g id="edge18" class="edge">
<title>src/extract&#45;&gt;src/extract/transpile</title>
<path fill="none" stroke="#007700" stroke-width="2" stroke-opacity="0.466667" d="M583.02,-204C581.67,-204 580.13,-204 580.13,-204 580.13,-204 580.13,-169 580.13,-169 580.13,-169 516.17,-169 516.17,-169 516.17,-169 516.17,-118.06 516.17,-118.06"/>
<polygon fill="#007700" fill-opacity="0.466667" stroke="#007700" stroke-width="2" stroke-opacity="0.466667" points="518.27,-118.06 516.17,-112.06 514.07,-118.06 518.27,-118.06"/>
</g>
<!-- src/utl -->
<g id="node20" class="node">
<title>src/utl</title>
<g id="a_node20"><a xlink:href="https://github.com/sverweij/dependency-cruiser/blob/develop/src/utl" xlink:title="utl">
<polygon fill="#cccccc" stroke="black" points="412,-71 359.89,-71 358,-69.11 358,-54 410.11,-54 412,-55.89 412,-71"/>
<polyline fill="none" stroke="black" points="410.11,-69.11 358,-69.11 "/>
<polyline fill="none" stroke="black" points="410.11,-69.11 410.11,-54 "/>
<polyline fill="none" stroke="black" points="410.11,-69.11 412,-71 "/>
<text text-anchor="middle" x="385" y="-59.8" font-family="Helvetica,sans-Serif" font-size="9.00">utl</text>
</a>
</g>
</g>
<!-- src/extract&#45;&gt;src/utl -->
<g id="edge19" class="edge">
<title>src/extract&#45;&gt;src/utl</title>
<path fill="none" stroke="#aaaaaa" stroke-width="2" stroke-opacity="0.466667" d="M583.14,-205C568.92,-205 477.92,-205 477.92,-205 477.92,-205 477.92,-183 477.92,-183 477.92,-183 367.33,-183 367.33,-183 367.33,-183 367.33,-77.17 367.33,-77.17"/>
<polygon fill="#aaaaaa" fill-opacity="0.466667" stroke="#aaaaaa" stroke-width="2" stroke-opacity="0.466667" points="369.43,-77.17 367.33,-71.17 365.23,-77.17 369.43,-77.17"/>
</g>
<!-- src/extract/ast&#45;extractors -->
<g id="node21" class="node">
<title>src/extract/ast&#45;extractors</title>
<g id="a_node21"><a xlink:href="https://github.com/sverweij/dependency-cruiser/blob/develop/src/extract/ast-extractors" xlink:title="ast&#45;extractors">
<polygon fill="#ccffcc" stroke="black" points="512.02,-163.3 443.87,-163.3 441.98,-161.41 441.98,-146.3 510.13,-146.3 512.02,-148.19 512.02,-163.3"/>
<polyline fill="none" stroke="black" points="510.13,-161.41 441.98,-161.41 "/>
<polyline fill="none" stroke="black" points="510.13,-161.41 510.13,-146.3 "/>
<polyline fill="none" stroke="black" points="510.13,-161.41 512.02,-163.3 "/>
<text text-anchor="middle" x="477" y="-152.1" font-family="Helvetica,sans-Serif" font-size="9.00">ast&#45;extractors</text>
</a>
</g>
</g>
<!-- src/extract&#45;&gt;src/extract/ast&#45;extractors -->
<g id="edge20" class="edge">
<title>src/extract&#45;&gt;src/extract/ast&#45;extractors</title>
<path fill="none" stroke="#007700" stroke-width="2" stroke-opacity="0.466667" d="M583.26,-204C571.33,-204 501.88,-204 501.88,-204 501.88,-204 501.88,-169.37 501.88,-169.37"/>
<polygon fill="#007700" fill-opacity="0.466667" stroke="#007700" stroke-width="2" stroke-opacity="0.466667" points="503.98,-169.37 501.88,-163.37 499.78,-169.37 503.98,-169.37"/>
</g>
<!-- src/validate&#45;&gt;src/utl -->
<g id="edge46" class="edge">
<title>src/validate&#45;&gt;src/utl</title>
<path fill="none" stroke="#aaaaaa" stroke-width="2" stroke-opacity="0.466667" d="M392,-94.8C392,-94.8 392,-77.18 392,-77.18"/>
<polygon fill="#aaaaaa" fill-opacity="0.466667" stroke="#aaaaaa" stroke-width="2" stroke-opacity="0.466667" points="394.1,-77.18 392,-71.18 389.9,-77.18 394.1,-77.18"/>
</g>
<!-- src/extract/parse&#45;&gt;src/extract/utl -->
<g id="edge22" class="edge">
<title>src/extract/parse&#45;&gt;src/extract/utl</title>
<path fill="none" stroke="#007700" stroke-width="2" stroke-opacity="0.466667" d="M585,-145.86C585,-145.86 585,-118.33 585,-118.33"/>
<polygon fill="#007700" fill-opacity="0.466667" stroke="#007700" stroke-width="2" stroke-opacity="0.466667" points="587.1,-118.33 585,-112.33 582.9,-118.33 587.1,-118.33"/>
</g>
<!-- src/extract/parse&#45;&gt;src/extract/transpile -->
<g id="edge21" class="edge">
<title>src/extract/parse&#45;&gt;src/extract/transpile</title>
<path fill="none" stroke="#007700" stroke-width="2" stroke-opacity="0.466667" d="M537.84,-154C528.38,-154 520.09,-154 520.09,-154 520.09,-154 520.09,-118.3 520.09,-118.3"/>
<polygon fill="#007700" fill-opacity="0.466667" stroke="#007700" stroke-width="2" stroke-opacity="0.466667" points="522.19,-118.3 520.09,-112.3 517.99,-118.3 522.19,-118.3"/>
</g>
<!-- src/extract/derive -->
<!-- src/report&#45;&gt;src/utl -->
<g id="edge42" class="edge">
<title>src/report&#45;&gt;src/utl</title>
<path fill="none" stroke="#aaaaaa" stroke-width="2" stroke-opacity="0.466667" d="M187,-104C206.51,-104 362.67,-104 362.67,-104 362.67,-104 362.67,-77.3 362.67,-77.3"/>
<polygon fill="#aaaaaa" fill-opacity="0.466667" stroke="#aaaaaa" stroke-width="2" stroke-opacity="0.466667" points="364.77,-77.3 362.67,-71.3 360.57,-77.3 364.77,-77.3"/>
</g>
<!-- src/report/anon -->
<g id="node28" class="node">
<title>src/report/anon</title>
<g id="a_node28"><a xlink:href="https://github.com/sverweij/dependency-cruiser/blob/develop/src/report/anon" xlink:title="anon">
<polygon fill="#ffccff" stroke="black" points="144,-71 91.89,-71 90,-69.11 90,-54 142.11,-54 144,-55.89 144,-71"/>
<polyline fill="none" stroke="black" points="142.11,-69.11 90,-69.11 "/>
<polyline fill="none" stroke="black" points="142.11,-69.11 142.11,-54 "/>
<polyline fill="none" stroke="black" points="142.11,-69.11 144,-71 "/>
<text text-anchor="middle" x="117" y="-59.8" font-family="Helvetica,sans-Serif" font-size="9.00">anon</text>
</a>
</g>
</g>
<!-- src/report&#45;&gt;src/report/anon -->
<g id="edge37" class="edge">
<title>src/report&#45;&gt;src/report/anon</title>
<path fill="none" stroke="#ff00ff" stroke-width="2" stroke-opacity="0.466667" d="M183.83,-102C174.87,-102 117.5,-102 117.5,-102 117.5,-102 117.5,-77.27 117.5,-77.27"/>
<polygon fill="#ff00ff" fill-opacity="0.466667" stroke="#ff00ff" stroke-width="2" stroke-opacity="0.466667" points="119.6,-77.27 117.5,-71.27 115.4,-77.27 119.6,-77.27"/>
</g>
<!-- src/report/csv -->
<g id="node29" class="node">
<title>src/report/csv</title>
<g id="a_node29"><a xlink:href="https://github.com/sverweij/dependency-cruiser/blob/develop/src/report/csv" xlink:title="csv">
<polygon fill="#ffccff" stroke="black" points="210,-71 157.89,-71 156,-69.11 156,-54 208.11,-54 210,-55.89 210,-71"/>
<polyline fill="none" stroke="black" points="208.11,-69.11 156,-69.11 "/>
<polyline fill="none" stroke="black" points="208.11,-69.11 208.11,-54 "/>
<polyline fill="none" stroke="black" points="208.11,-69.11 210,-71 "/>
<text text-anchor="middle" x="183" y="-59.8" font-family="Helvetica,sans-Serif" font-size="9.00">csv</text>
</a>
</g>
</g>
<!-- src/report&#45;&gt;src/report/csv -->
<g id="edge38" class="edge">
<title>src/report&#45;&gt;src/report/csv</title>
<path fill="none" stroke="#ff00ff" stroke-width="2" stroke-opacity="0.466667" d="M185,-101.3C185,-101.3 185,-77.12 185,-77.12"/>
<polygon fill="#ff00ff" fill-opacity="0.466667" stroke="#ff00ff" stroke-width="2" stroke-opacity="0.466667" points="187.1,-77.12 185,-71.12 182.9,-77.12 187.1,-77.12"/>
</g>
<!-- src/report/dot -->
<g id="node30" class="node">
<title>src/report/dot</title>
<g id="a_node30"><a xlink:href="https://github.com/sverweij/dependency-cruiser/blob/develop/src/report/dot" xlink:title="dot">
<polygon fill="#ffccff" stroke="black" points="276,-71 223.89,-71 222,-69.11 222,-54 274.11,-54 276,-55.89 276,-71"/>
<polyline fill="none" stroke="black" points="274.11,-69.11 222,-69.11 "/>
<polyline fill="none" stroke="black" points="274.11,-69.11 274.11,-54 "/>
<polyline fill="none" stroke="black" points="274.11,-69.11 276,-71 "/>
<text text-anchor="middle" x="249" y="-59.8" font-family="Helvetica,sans-Serif" font-size="9.00">dot</text>
</a>
</g>
</g>
<!-- src/report&#45;&gt;src/report/dot -->
<g id="edge39" class="edge">
<title>src/report&#45;&gt;src/report/dot</title>
<path fill="none" stroke="#ff00ff" stroke-width="2" stroke-opacity="0.466667" d="M186.06,-102C192.68,-102 228,-102 228,-102 228,-102 228,-77.27 228,-77.27"/>
<polygon fill="#ff00ff" fill-opacity="0.466667" stroke="#ff00ff" stroke-width="2" stroke-opacity="0.466667" points="230.1,-77.27 228,-71.27 225.9,-77.27 230.1,-77.27"/>
</g>
<!-- src/report/err&#45;html -->
<g id="node31" class="node">
<title>src/report/err&#45;html</title>
<g id="a_node31"><a xlink:href="https://github.com/sverweij/dependency-cruiser/blob/develop/src/report/err-html" xlink:title="err&#45;html">
<polygon fill="#ffccff" stroke="black" points="342,-71 289.89,-71 288,-69.11 288,-54 340.11,-54 342,-55.89 342,-71"/>
<polyline fill="none" stroke="black" points="340.11,-69.11 288,-69.11 "/>
<polyline fill="none" stroke="black" points="340.11,-69.11 340.11,-54 "/>
<polyline fill="none" stroke="black" points="340.11,-69.11 342,-71 "/>
<text text-anchor="middle" x="315" y="-59.8" font-family="Helvetica,sans-Serif" font-size="9.00">err&#45;html</text>
</a>
</g>
</g>
<!-- src/report&#45;&gt;src/report/err&#45;html -->
<g id="edge40" class="edge">
<title>src/report&#45;&gt;src/report/err&#45;html</title>
<path fill="none" stroke="#ff00ff" stroke-width="2" stroke-opacity="0.466667" d="M186.97,-103C202.02,-103 298.38,-103 298.38,-103 298.38,-103 298.38,-77.09 298.38,-77.09"/>
<polygon fill="#ff00ff" fill-opacity="0.466667" stroke="#ff00ff" stroke-width="2" stroke-opacity="0.466667" points="300.48,-77.09 298.38,-71.09 296.28,-77.09 300.48,-77.09"/>
</g>
<!-- src/report/html -->
<g id="node32" class="node">
<title>src/report/html</title>
<g id="a_node32"><a xlink:href="https://github.com/sverweij/dependency-cruiser/blob/develop/src/report/html" xlink:title="html">
<polygon fill="#ffccff" stroke="black" points="78,-71 25.89,-71 24,-69.11 24,-54 76.11,-54 78,-55.89 78,-71"/>
<polyline fill="none" stroke="black" points="76.11,-69.11 24,-69.11 "/>
<polyline fill="none" stroke="black" points="76.11,-69.11 76.11,-54 "/>
<polyline fill="none" stroke="black" points="76.11,-69.11 78,-71 "/>
<text text-anchor="middle" x="51" y="-59.8" font-family="Helvetica,sans-Serif" font-size="9.00">html</text>
</a>
</g>
</g>
<!-- src/report&#45;&gt;src/report/html -->
<g id="edge41" class="edge">
<title>src/report&#45;&gt;src/report/html</title>
<path fill="none" stroke="#ff00ff" stroke-width="2" stroke-opacity="0.466667" d="M183.11,-104C166.82,-104 51,-104 51,-104 51,-104 51,-77.3 51,-77.3"/>
<polygon fill="#ff00ff" fill-opacity="0.466667" stroke="#ff00ff" stroke-width="2" stroke-opacity="0.466667" points="53.1,-77.3 51,-71.3 48.9,-77.3 53.1,-77.3"/>
</g>
<!-- src/main/options&#45;&gt;src/report -->
<g id="edge33" class="edge">
<title>src/main/options&#45;&gt;src/report</title>
<path fill="none" stroke="#ff00ff" stroke-width="2" stroke-opacity="0.466667" d="M184.4,-145.86C184.4,-145.86 184.4,-111.37 184.4,-111.37"/>
<polygon fill="#ff00ff" fill-opacity="0.466667" stroke="#ff00ff" stroke-width="2" stroke-opacity="0.466667" points="186.5,-111.37 184.4,-105.37 182.3,-111.37 186.5,-111.37"/>
</g>
<!-- src/main/rule&#45;set&#45;&gt;src/schema -->
<g id="edge35" class="edge">
<title>src/main/rule&#45;set&#45;&gt;src/schema</title>
<path fill="none" stroke="#000000" stroke-width="2" stroke-opacity="0.200000" d="M160.71,-204C144.47,-204 127,-204 127,-204 127,-204 127,-169.37 127,-169.37"/>
<polygon fill="#000000" fill-opacity="0.200000" stroke="#000000" stroke-width="2" stroke-opacity="0.200000" points="129.1,-169.37 127,-163.37 124.9,-169.37 129.1,-169.37"/>
</g>
<!-- src/main/rule&#45;set&#45;&gt;src/main/options -->
<g id="edge36" class="edge">
<title>src/main/rule&#45;set&#45;&gt;src/main/options</title>
<path fill="none" stroke="#770000" stroke-width="2" stroke-opacity="0.466667" d="M188,-196.09C188,-196.09 188,-169.41 188,-169.41"/>
<polygon fill="#770000" fill-opacity="0.466667" stroke="#770000" stroke-width="2" stroke-opacity="0.466667" points="190.1,-169.41 188,-163.41 185.9,-169.41 190.1,-169.41"/>
</g>
<!-- src/report/utl -->
<g id="node33" class="node">
<title>src/report/utl</title>
<g id="a_node33"><a xlink:href="https://github.com/sverweij/dependency-cruiser/blob/develop/src/report/utl" xlink:title="utl">
<polygon fill="#ffccff" stroke="black" points="210,-41 157.89,-41 156,-39.11 156,-24 208.11,-24 210,-25.89 210,-41"/>
<polyline fill="none" stroke="black" points="208.11,-39.11 156,-39.11 "/>
<polyline fill="none" stroke="black" points="208.11,-39.11 208.11,-24 "/>
<polyline fill="none" stroke="black" points="208.11,-39.11 210,-41 "/>
<text text-anchor="middle" x="183" y="-29.8" font-family="Helvetica,sans-Serif" font-size="9.00">utl</text>
</a>
</g>
</g>
<!-- src/report/csv&#45;&gt;src/report/utl -->
<g id="edge43" class="edge">
<title>src/report/csv&#45;&gt;src/report/utl</title>
<path fill="none" stroke="#ff00ff" stroke-width="2" stroke-opacity="0.466667" d="M183,-53.98C183,-53.98 183,-47.14 183,-47.14"/>
<polygon fill="#ff00ff" fill-opacity="0.466667" stroke="#ff00ff" stroke-width="2" stroke-opacity="0.466667" points="185.1,-47.14 183,-41.14 180.9,-47.14 185.1,-47.14"/>
</g>
<!-- src/report/dot&#45;&gt;src/report/utl -->
<g id="edge44" class="edge">
<title>src/report/dot&#45;&gt;src/report/utl</title>
<path fill="none" stroke="#ff00ff" stroke-width="2" stroke-opacity="0.466667" d="M249,-53.84C249,-44.82 249,-32 249,-32 249,-32 216.23,-32 216.23,-32"/>
<polygon fill="#ff00ff" fill-opacity="0.466667" stroke="#ff00ff" stroke-width="2" stroke-opacity="0.466667" points="216.23,-29.9 210.23,-32 216.23,-34.1 216.23,-29.9"/>
</g>
<!-- src/report/html&#45;&gt;src/report/utl -->
<g id="edge45" class="edge">
<title>src/report/html&#45;&gt;src/report/utl</title>
<path fill="none" stroke="#ff00ff" stroke-width="2" stroke-opacity="0.466667" d="M51,-53.84C51,-44.82 51,-32 51,-32 51,-32 149.97,-32 149.97,-32"/>
<polygon fill="#ff00ff" fill-opacity="0.466667" stroke="#ff00ff" stroke-width="2" stroke-opacity="0.466667" points="149.97,-34.1 155.97,-32 149.97,-29.9 149.97,-34.1"/>
</g>
</g>
</svg>
