<?xml version="1.0" encoding="UTF-8" standalone="no"?>
<!DOCTYPE svg PUBLIC "-//W3C//DTD SVG 1.1//EN"
 "http://www.w3.org/Graphics/SVG/1.1/DTD/svg11.dtd">
<!-- Generated by graphviz version 9.0.0 (20230911.1827)
 -->
<!-- Title: dependency&#45;cruiser output Pages: 1 -->
<svg width="310pt" height="247pt"
 viewBox="0.00 0.00 310.00 247.00" xmlns="http://www.w3.org/2000/svg" xmlns:xlink="http://www.w3.org/1999/xlink">
<g id="graph0" class="graph" transform="scale(1 1) rotate(0) translate(4 243)">
<title>dependency&#45;cruiser output</title>
<polygon fill="white" stroke="none" points="-4,4 -4,-243 306,-243 306,4 -4,4"/>
<g id="clust1" class="cluster">
<title>cluster_src</title>
<path fill="#ffffff" stroke="black" stroke-width="2" d="M20,-8C20,-8 282,-8 282,-8 288,-8 294,-14 294,-20 294,-20 294,-201.25 294,-201.25 294,-207.25 288,-213.25 282,-213.25 282,-213.25 20,-213.25 20,-213.25 14,-213.25 8,-207.25 8,-201.25 8,-201.25 8,-20 8,-20 8,-14 14,-8 20,-8"/>
<text text-anchor="middle" x="151" y="-200.7" font-family="Helvetica,sans-Serif" font-weight="bold" font-size="9.00">src</text>
</g>
<!-- bin/ -->
<g id="node1" class="node">
<title>bin/</title>
<g id="a_node1"><a xlink:href="https://github.com/sverweij/dependency-cruiser/blob/main/bin/" xlink:title="bin">
<polygon fill="#ffffcc" stroke="black" points="132,-239 79.97,-239 78,-237.03 78,-221.25 130.03,-221.25 132,-223.22 132,-239"/>
<polyline fill="none" stroke="black" points="130.03,-237.03 78,-237.03"/>
<polyline fill="none" stroke="black" points="130.03,-237.03 130.03,-221.25"/>
<polyline fill="none" stroke="black" points="130.03,-237.03 132,-239"/>
<text text-anchor="start" x="98.62" y="-226.45" font-family="Helvetica,sans-Serif" font-size="9.00">bin</text>
</a>
</g>
</g>
<!-- src/cli -->
<g id="node2" class="node">
<title>src/cli</title>
<g id="a_node2"><a xlink:href="https://github.com/sverweij/dependency-cruiser/blob/main/src/cli" xlink:title="cli">
<polygon fill="#ccccff" stroke="black" points="132,-187.5 79.97,-187.5 78,-185.53 78,-169.75 130.03,-169.75 132,-171.72 132,-187.5"/>
<polyline fill="none" stroke="black" points="130.03,-185.53 78,-185.53"/>
<polyline fill="none" stroke="black" points="130.03,-185.53 130.03,-169.75"/>
<polyline fill="none" stroke="black" points="130.03,-185.53 132,-187.5"/>
<text text-anchor="start" x="100.5" y="-174.95" font-family="Helvetica,sans-Serif" font-size="9.00">cli</text>
</a>
</g>
</g>
<!-- bin/&#45;&gt;src/cli -->
<g id="edge1" class="edge">
<title>bin/&#45;&gt;src/cli</title>
<path fill="none" stroke="#0000ff" stroke-width="2" stroke-opacity="0.466667" d="M105,-221.15C105,-221.15 105,-196.87 105,-196.87"/>
<polygon fill="#0000ff" fill-opacity="0.466667" stroke="#0000ff" stroke-width="2" stroke-opacity="0.466667" points="107.1,-196.87 105,-190.87 102.9,-196.87 107.1,-196.87"/>
</g>
<!-- src/extract -->
<g id="node4" class="node">
<title>src/extract</title>
<g id="a_node4"><a xlink:href="https://github.com/sverweij/dependency-cruiser/blob/main/src/extract" xlink:title="extract">
<polygon fill="#ccffcc" stroke="black" points="84,-64.5 31.97,-64.5 30,-62.53 30,-46.75 82.03,-46.75 84,-48.72 84,-64.5"/>
<polyline fill="none" stroke="black" points="82.03,-62.53 30,-62.53"/>
<polyline fill="none" stroke="black" points="82.03,-62.53 82.03,-46.75"/>
<polyline fill="none" stroke="black" points="82.03,-62.53 84,-64.5"/>
<text text-anchor="start" x="43.5" y="-51.95" font-family="Helvetica,sans-Serif" font-size="9.00">extract</text>
</a>
</g>
</g>
<!-- src/cli&#45;&gt;src/extract -->
<g id="edge7" class="edge">
<title>src/cli&#45;&gt;src/extract</title>
<path fill="none" stroke="#007700" stroke-width="2" stroke-opacity="0.466667" d="M77.61,-178C57.86,-178 34.67,-178 34.67,-178 34.67,-178 34.67,-73.85 34.67,-73.85"/>
<polygon fill="#007700" fill-opacity="0.466667" stroke="#007700" stroke-width="2" stroke-opacity="0.466667" points="36.77,-73.85 34.67,-67.85 32.57,-73.85 36.77,-73.85"/>
</g>
<!-- src/utl -->
<g id="node5" class="node">
<title>src/utl</title>
<g id="a_node5"><a xlink:href="https://github.com/sverweij/dependency-cruiser/blob/main/src/utl" xlink:title="utl&#45;module&#45;not&#45;shared&#45;enough">
<polygon fill="#cccccc" stroke="blue" points="238,-33.75 185.97,-33.75 184,-31.78 184,-16 236.03,-16 238,-17.97 238,-33.75"/>
<polyline fill="none" stroke="blue" points="236.03,-31.78 184,-31.78"/>
<polyline fill="none" stroke="blue" points="236.03,-31.78 236.03,-16"/>
<polyline fill="none" stroke="blue" points="236.03,-31.78 238,-33.75"/>
<text text-anchor="start" x="206.12" y="-21.2" font-family="Helvetica,sans-Serif" font-size="9.00" fill="blue">utl</text>
</a>
</g>
</g>
<!-- src/cli&#45;&gt;src/utl -->
<g id="edge8" class="edge">
<title>src/cli&#45;&gt;src/utl</title>
<path fill="none" stroke="#aaaaaa" stroke-width="2" stroke-opacity="0.466667" d="M132.3,-178C159.11,-178 196,-178 196,-178 196,-178 196,-43.02 196,-43.02"/>
<polygon fill="#aaaaaa" fill-opacity="0.466667" stroke="#aaaaaa" stroke-width="2" stroke-opacity="0.466667" points="198.1,-43.02 196,-37.02 193.9,-43.02 198.1,-43.02"/>
</g>
<!-- src/config&#45;utl -->
<g id="node7" class="node">
<title>src/config&#45;utl</title>
<g id="a_node7"><a xlink:href="https://github.com/sverweij/dependency-cruiser/blob/main/src/config-utl" xlink:title="config&#45;utl">
<polygon fill="#99ffff" stroke="black" points="112,-156.75 59.97,-156.75 58,-154.78 58,-139 110.03,-139 112,-140.97 112,-156.75"/>
<polyline fill="none" stroke="black" points="110.03,-154.78 58,-154.78"/>
<polyline fill="none" stroke="black" points="110.03,-154.78 110.03,-139"/>
<polyline fill="none" stroke="black" points="110.03,-154.78 112,-156.75"/>
<text text-anchor="start" x="66.25" y="-144.2" font-family="Helvetica,sans-Serif" font-size="9.00">config&#45;utl</text>
</a>
</g>
</g>
<!-- src/cli&#45;&gt;src/config&#45;utl -->
<g id="edge5" class="edge">
<title>src/cli&#45;&gt;src/config&#45;utl</title>
<path fill="none" stroke="#229999" stroke-width="2" stroke-dasharray="5,2" stroke-opacity="0.466667" d="M95,-169.57C95,-169.57 95,-166 95,-166"/>
<polygon fill="#229999" fill-opacity="0.466667" stroke="#229999" stroke-width="2" stroke-opacity="0.466667" points="97.1,-166 95,-160 92.9,-166 97.1,-166"/>
</g>
<!-- src/main -->
<g id="node8" class="node">
<title>src/main</title>
<g id="a_node8"><a xlink:href="https://github.com/sverweij/dependency-cruiser/blob/main/src/main" xlink:title="main">
<polygon fill="#ffcccc" stroke="black" points="152,-126 99.97,-126 98,-124.03 98,-108.25 150.03,-108.25 152,-110.22 152,-126"/>
<polyline fill="none" stroke="black" points="150.03,-124.03 98,-124.03"/>
<polyline fill="none" stroke="black" points="150.03,-124.03 150.03,-108.25"/>
<polyline fill="none" stroke="black" points="150.03,-124.03 152,-126"/>
<text text-anchor="start" x="114.88" y="-113.45" font-family="Helvetica,sans-Serif" font-size="9.00">main</text>
</a>
</g>
</g>
<!-- src/cli&#45;&gt;src/main -->
<g id="edge6" class="edge">
<title>src/cli&#45;&gt;src/main</title>
<path fill="none" stroke="#770000" stroke-width="2" stroke-opacity="0.466667" d="M122,-169.28C122,-169.28 122,-135.18 122,-135.18"/>
<polygon fill="#770000" fill-opacity="0.466667" stroke="#770000" stroke-width="2" stroke-opacity="0.466667" points="124.1,-135.18 122,-129.18 119.9,-135.18 124.1,-135.18"/>
</g>
<!-- src/cache -->
<g id="node3" class="node">
<title>src/cache</title>
<g id="a_node3"><a xlink:href="https://github.com/sverweij/dependency-cruiser/blob/main/src/cache" xlink:title="cache">
<polygon fill="#ffffcc" stroke="black" points="192,-95.25 139.97,-95.25 138,-93.28 138,-77.5 190.03,-77.5 192,-79.47 192,-95.25"/>
<polyline fill="none" stroke="black" points="190.03,-93.28 138,-93.28"/>
<polyline fill="none" stroke="black" points="190.03,-93.28 190.03,-77.5"/>
<polyline fill="none" stroke="black" points="190.03,-93.28 192,-95.25"/>
<text text-anchor="start" x="152.62" y="-82.7" font-family="Helvetica,sans-Serif" font-size="9.00">cache</text>
</a>
</g>
</g>
<!-- src/cache&#45;&gt;src/extract -->
<g id="edge2" class="edge">
<title>src/cache&#45;&gt;src/extract</title>
<path fill="none" stroke="#007700" stroke-width="2" stroke-opacity="0.466667" d="M137.72,-86C122.97,-86 107.75,-86 107.75,-86 107.75,-86 107.75,-55 107.75,-55 107.75,-55 93.48,-55 93.48,-55"/>
<polygon fill="#007700" fill-opacity="0.466667" stroke="#007700" stroke-width="2" stroke-opacity="0.466667" points="93.48,-52.9 87.48,-55 93.48,-57.1 93.48,-52.9"/>
</g>
<!-- src/cache&#45;&gt;src/utl -->
<g id="edge3" class="edge">
<title>src/cache&#45;&gt;src/utl</title>
<path fill="none" stroke="#aaaaaa" stroke-width="2" stroke-opacity="0.466667" d="M190,-77.03C190,-77.03 190,-42.93 190,-42.93"/>
<polygon fill="#aaaaaa" fill-opacity="0.466667" stroke="#aaaaaa" stroke-width="2" stroke-opacity="0.466667" points="192.1,-42.93 190,-36.93 187.9,-42.93 192.1,-42.93"/>
</g>
<!-- src/graph&#45;utl -->
<g id="node6" class="node">
<title>src/graph&#45;utl</title>
<g id="a_node6"><a xlink:href="https://github.com/sverweij/dependency-cruiser/blob/main/src/graph-utl" xlink:title="not&#45;unreachable&#45;from&#45;cli">
<polygon fill="#ffcccc" stroke="red" points="124,-33.75 71.97,-33.75 70,-31.78 70,-16 122.03,-16 124,-17.97 124,-33.75"/>
<polyline fill="none" stroke="red" points="122.03,-31.78 70,-31.78"/>
<polyline fill="none" stroke="red" points="122.03,-31.78 122.03,-16"/>
<polyline fill="none" stroke="red" points="122.03,-31.78 124,-33.75"/>
<text text-anchor="start" x="78.62" y="-21.2" font-family="Helvetica,sans-Serif" font-size="9.00" fill="red">graph&#45;utl</text>
</a>
</g>
</g>
<!-- src/cache&#45;&gt;src/graph&#45;utl -->
<g id="edge4" class="edge">
<title>src/cache&#45;&gt;src/graph&#45;utl</title>
<path fill="none" stroke="#770000" stroke-width="2" stroke-opacity="0.466667" d="M137.55,-81C125.59,-81 114.25,-81 114.25,-81 114.25,-81 114.25,-43.17 114.25,-43.17"/>
<polygon fill="#770000" fill-opacity="0.466667" stroke="#770000" stroke-width="2" stroke-opacity="0.466667" points="116.35,-43.17 114.25,-37.17 112.15,-43.17 116.35,-43.17"/>
</g>
<!-- src/extract&#45;&gt;src/utl -->
<g id="edge14" class="edge">
<title>src/extract&#45;&gt;src/utl</title>
<path fill="none" stroke="#aaaaaa" stroke-width="2" stroke-opacity="0.466667" d="M79.33,-46.36C79.33,-42.99 79.33,-40 79.33,-40 79.33,-40 186,-40 186,-40 186,-40 186,-39.42 186,-39.42"/>
<polygon fill="#aaaaaa" fill-opacity="0.466667" stroke="#aaaaaa" stroke-width="2" stroke-opacity="0.466667" points="188.1,-43.22 186,-37.22 183.9,-43.22 188.1,-43.22"/>
</g>
<!-- src/extract&#45;&gt;src/graph&#45;utl -->
<g id="edge15" class="edge">
<title>src/extract&#45;&gt;src/graph&#45;utl</title>
<path fill="none" stroke="#770000" stroke-width="2" stroke-opacity="0.466667" d="M74.67,-46.57C74.67,-46.57 74.67,-43 74.67,-43"/>
<polygon fill="#770000" fill-opacity="0.466667" stroke="#770000" stroke-width="2" stroke-opacity="0.466667" points="76.77,-43 74.67,-37 72.57,-43 76.77,-43"/>
</g>
<!-- src/config&#45;utl&#45;&gt;src/extract -->
<g id="edge9" class="edge">
<title>src/config&#45;utl&#45;&gt;src/extract</title>
<path fill="none" stroke="#007700" stroke-width="2" stroke-opacity="0.466667" d="M57.64,-147C47.92,-147 39.33,-147 39.33,-147 39.33,-147 39.33,-73.75 39.33,-73.75"/>
<polygon fill="#007700" fill-opacity="0.466667" stroke="#007700" stroke-width="2" stroke-opacity="0.466667" points="41.43,-73.75 39.33,-67.75 37.23,-73.75 41.43,-73.75"/>
</g>
<!-- src/config&#45;utl&#45;&gt;src/main -->
<g id="edge10" class="edge">
<title>src/config&#45;utl&#45;&gt;src/main</title>
<path fill="none" stroke="#770000" stroke-width="2" stroke-opacity="0.466667" d="M105,-138.82C105,-138.82 105,-135.25 105,-135.25"/>
<polygon fill="#770000" fill-opacity="0.466667" stroke="#770000" stroke-width="2" stroke-opacity="0.466667" points="107.1,-135.25 105,-129.25 102.9,-135.25 107.1,-135.25"/>
</g>
<!-- src/main&#45;&gt;src/cache -->
<g id="edge16" class="edge">
<title>src/main&#45;&gt;src/cache</title>
<path fill="none" stroke="#000000" stroke-width="2" stroke-dasharray="5,2" stroke-opacity="0.200000" d="M145,-108.07C145,-108.07 145,-104.5 145,-104.5"/>
<polygon fill="#000000" fill-opacity="0.200000" stroke="#000000" stroke-width="2" stroke-opacity="0.200000" points="147.1,-104.5 145,-98.5 142.9,-104.5 147.1,-104.5"/>
</g>
<!-- src/main&#45;&gt;src/extract -->
<g id="edge18" class="edge">
<title>src/main&#45;&gt;src/extract</title>
<path fill="none" stroke="#007700" stroke-width="2" stroke-dasharray="5,2" stroke-opacity="0.466667" d="M104.5,-107.95C104.5,-91.8 104.5,-60 104.5,-60 104.5,-60 93.38,-60 93.38,-60"/>
<polygon fill="#007700" fill-opacity="0.466667" stroke="#007700" stroke-width="2" stroke-opacity="0.466667" points="93.38,-57.9 87.38,-60 93.38,-62.1 93.38,-57.9"/>
</g>
<!-- src/main&#45;&gt;src/graph&#45;utl -->
<g id="edge20" class="edge">
<title>src/main&#45;&gt;src/graph&#45;utl</title>
<path fill="none" stroke="#770000" stroke-width="2" stroke-opacity="0.466667" d="M111,-107.94C111,-107.94 111,-43.05 111,-43.05"/>
<polygon fill="#770000" fill-opacity="0.466667" stroke="#770000" stroke-width="2" stroke-opacity="0.466667" points="113.1,-43.05 111,-37.05 108.9,-43.05 113.1,-43.05"/>
</g>
<!-- src/enrich -->
<g id="node9" class="node">
<title>src/enrich</title>
<g id="a_node9"><a xlink:href="https://github.com/sverweij/dependency-cruiser/blob/main/src/enrich" xlink:title="enrich">
<polygon fill="#77eeaa" stroke="black" points="272,-95.25 219.97,-95.25 218,-93.28 218,-77.5 270.03,-77.5 272,-79.47 272,-95.25"/>
<polyline fill="none" stroke="black" points="270.03,-93.28 218,-93.28"/>
<polyline fill="none" stroke="black" points="270.03,-93.28 270.03,-77.5"/>
<polyline fill="none" stroke="black" points="270.03,-93.28 272,-95.25"/>
<text text-anchor="start" x="232.25" y="-82.7" font-family="Helvetica,sans-Serif" font-size="9.00">enrich</text>
</a>
</g>
</g>
<!-- src/main&#45;&gt;src/enrich -->
<g id="edge17" class="edge">
<title>src/main&#45;&gt;src/enrich</title>
<path fill="none" stroke="#007766" stroke-width="2" stroke-dasharray="5,2" stroke-opacity="0.466667" d="M152.23,-117C187.63,-117 245,-117 245,-117 245,-117 245,-104.76 245,-104.76"/>
<polygon fill="#007766" fill-opacity="0.466667" stroke="#007766" stroke-width="2" stroke-opacity="0.466667" points="247.1,-104.76 245,-98.76 242.9,-104.76 247.1,-104.76"/>
</g>
<!-- src/report -->
<g id="node11" class="node">
<title>src/report</title>
<g id="a_node11"><a xlink:href="https://github.com/sverweij/dependency-cruiser/blob/main/src/report" xlink:title="report">
<polygon fill="#ffccff" stroke="black" points="178,-64.5 125.97,-64.5 124,-62.53 124,-46.75 176.03,-46.75 178,-48.72 178,-64.5"/>
<polyline fill="none" stroke="black" points="176.03,-62.53 124,-62.53"/>
<polyline fill="none" stroke="black" points="176.03,-62.53 176.03,-46.75"/>
<polyline fill="none" stroke="black" points="176.03,-62.53 178,-64.5"/>
<text text-anchor="start" x="139" y="-51.95" font-family="Helvetica,sans-Serif" font-size="9.00">report</text>
</a>
</g>
</g>
<!-- src/main&#45;&gt;src/report -->
<g id="edge19" class="edge">
<title>src/main&#45;&gt;src/report</title>
<path fill="none" stroke="#ff00ff" stroke-width="2" stroke-opacity="0.466667" d="M131,-107.78C131,-107.78 131,-73.68 131,-73.68"/>
<polygon fill="#ff00ff" fill-opacity="0.466667" stroke="#ff00ff" stroke-width="2" stroke-opacity="0.466667" points="133.1,-73.68 131,-67.68 128.9,-73.68 133.1,-73.68"/>
</g>
<!-- src/schema -->
<g id="node12" class="node">
<title>src/schema</title>
<g id="a_node12"><a xlink:href="https://github.com/sverweij/dependency-cruiser/blob/main/src/schema" xlink:title="not&#45;unreachable&#45;from&#45;cli">
<polygon fill="#ccffcc" stroke="red" points="98,-95.25 45.97,-95.25 44,-93.28 44,-77.5 96.03,-77.5 98,-79.47 98,-95.25"/>
<polyline fill="none" stroke="red" points="96.03,-93.28 44,-93.28"/>
<polyline fill="none" stroke="red" points="96.03,-93.28 96.03,-77.5"/>
<polyline fill="none" stroke="red" points="96.03,-93.28 98,-95.25"/>
<text text-anchor="start" x="54.88" y="-82.7" font-family="Helvetica,sans-Serif" font-size="9.00" fill="red">schema</text>
</a>
</g>
</g>
<!-- src/main&#45;&gt;src/schema -->
<g id="edge21" class="edge">
<title>src/main&#45;&gt;src/schema</title>
<path fill="none" stroke="#000000" stroke-width="2" stroke-opacity="0.200000" d="M101.25,-107.94C101.25,-100.07 101.25,-90 101.25,-90 101.25,-90 100.97,-90 100.97,-90"/>
<polygon fill="#000000" fill-opacity="0.200000" stroke="#000000" stroke-width="2" stroke-opacity="0.200000" points="107.49,-87.9 101.49,-90 107.49,-92.1 107.49,-87.9"/>
</g>
<!-- src/enrich&#45;&gt;src/utl -->
<g id="edge13" class="edge">
<title>src/enrich&#45;&gt;src/utl</title>
<path fill="none" stroke="#aaaaaa" stroke-width="2" stroke-opacity="0.466667" d="M217.53,-86C208.16,-86 200,-86 200,-86 200,-86 200,-43.19 200,-43.19"/>
<polygon fill="#aaaaaa" fill-opacity="0.466667" stroke="#aaaaaa" stroke-width="2" stroke-opacity="0.466667" points="202.1,-43.19 200,-37.19 197.9,-43.19 202.1,-43.19"/>
</g>
<!-- src/enrich&#45;&gt;src/graph&#45;utl -->
<g id="edge12" class="edge">
<title>src/enrich&#45;&gt;src/graph&#45;utl</title>
<path fill="none" stroke="#770000" stroke-width="2" stroke-opacity="0.466667" d="M231.33,-77.25C231.33,-73.94 231.33,-71 231.33,-71 231.33,-71 117.5,-71 117.5,-71 117.5,-71 117.5,-43.24 117.5,-43.24"/>
<polygon fill="#770000" fill-opacity="0.466667" stroke="#770000" stroke-width="2" stroke-opacity="0.466667" points="119.6,-43.24 117.5,-37.24 115.4,-43.24 119.6,-43.24"/>
</g>
<!-- src/validate -->
<g id="node10" class="node">
<title>src/validate</title>
<g id="a_node10"><a xlink:href="https://github.com/sverweij/dependency-cruiser/blob/main/src/validate" xlink:title="validate">
<polygon fill="#ccccff" stroke="black" points="258,-64.5 205.97,-64.5 204,-62.53 204,-46.75 256.03,-46.75 258,-48.72 258,-64.5"/>
<polyline fill="none" stroke="black" points="256.03,-62.53 204,-62.53"/>
<polyline fill="none" stroke="black" points="256.03,-62.53 256.03,-46.75"/>
<polyline fill="none" stroke="black" points="256.03,-62.53 258,-64.5"/>
<text text-anchor="start" x="214.88" y="-51.95" font-family="Helvetica,sans-Serif" font-size="9.00">validate</text>
</a>
</g>
</g>
<!-- src/enrich&#45;&gt;src/validate -->
<g id="edge11" class="edge">
<title>src/enrich&#45;&gt;src/validate</title>
<path fill="none" stroke="#0000ff" stroke-width="2" stroke-opacity="0.466667" d="M244.67,-77.32C244.67,-77.32 244.67,-73.75 244.67,-73.75"/>
<polygon fill="#0000ff" fill-opacity="0.466667" stroke="#0000ff" stroke-width="2" stroke-opacity="0.466667" points="246.77,-73.75 244.67,-67.75 242.57,-73.75 246.77,-73.75"/>
</g>
<!-- src/validate&#45;&gt;src/utl -->
<g id="edge24" class="edge">
<title>src/validate&#45;&gt;src/utl</title>
<path fill="none" stroke="#aaaaaa" stroke-width="2" stroke-opacity="0.466667" d="M221,-46.57C221,-46.57 221,-43 221,-43"/>
<polygon fill="#aaaaaa" fill-opacity="0.466667" stroke="#aaaaaa" stroke-width="2" stroke-opacity="0.466667" points="223.1,-43 221,-37 218.9,-43 223.1,-43"/>
</g>
<!-- src/report&#45;&gt;src/utl -->
<g id="edge23" class="edge">
<title>src/report&#45;&gt;src/utl</title>
<path fill="none" stroke="#aaaaaa" stroke-width="2" stroke-opacity="0.466667" d="M178.28,-55C183.82,-55 188,-55 188,-55 188,-55 188,-43.1 188,-43.1"/>
<polygon fill="#aaaaaa" fill-opacity="0.466667" stroke="#aaaaaa" stroke-width="2" stroke-opacity="0.466667" points="190.1,-43.1 188,-37.1 185.9,-43.1 190.1,-43.1"/>
</g>
<!-- src/report&#45;&gt;src/graph&#45;utl -->
<g id="edge22" class="edge">
<title>src/report&#45;&gt;src/graph&#45;utl</title>
<path fill="none" stroke="#770000" stroke-width="2" stroke-opacity="0.466667" d="M123.54,-51C121.81,-51 120.75,-51 120.75,-51 120.75,-51 120.75,-43.04 120.75,-43.04"/>
<polygon fill="#770000" fill-opacity="0.466667" stroke="#770000" stroke-width="2" stroke-opacity="0.466667" points="122.85,-43.04 120.75,-37.04 118.65,-43.04 122.85,-43.04"/>
</g>
</g>
</svg>
