<?xml version="1.0" encoding="UTF-8" standalone="no"?>
<!DOCTYPE svg PUBLIC "-//W3C//DTD SVG 1.1//EN"
 "http://www.w3.org/Graphics/SVG/1.1/DTD/svg11.dtd">
<!-- Generated by graphviz version 2.40.1 (20161225.0304)
 -->
<!-- Title: dependency&#45;cruiser output Pages: 1 -->
<svg width="623pt" height="747pt"
 viewBox="0.00 0.00 622.93 747.00" xmlns="http://www.w3.org/2000/svg" xmlns:xlink="http://www.w3.org/1999/xlink">
<g id="graph0" class="graph" transform="scale(1 1) rotate(0) translate(4 743)">
<title>dependency&#45;cruiser output</title>
<polygon fill="#ffffff" stroke="transparent" points="-4,4 -4,-743 618.9294,-743 618.9294,4 -4,4"/>
<g id="clust1" class="cluster">
<title>cluster_/bin</title>
<path fill="none" stroke="#000000" stroke-width="2" d="M20,-387.5C20,-387.5 104.0474,-387.5 104.0474,-387.5 110.0474,-387.5 116.0474,-393.5 116.0474,-399.5 116.0474,-399.5 116.0474,-426.5 116.0474,-426.5 116.0474,-432.5 110.0474,-438.5 104.0474,-438.5 104.0474,-438.5 20,-438.5 20,-438.5 14,-438.5 8,-432.5 8,-426.5 8,-426.5 8,-399.5 8,-399.5 8,-393.5 14,-387.5 20,-387.5"/>
<text text-anchor="middle" x="62.0237" y="-427.3" font-family="Helvetica,sans-Serif" font-weight="bold" font-size="9.00" fill="#000000">bin</text>
</g>
<g id="clust2" class="cluster">
<title>cluster_/src</title>
<path fill="none" stroke="#000000" stroke-width="2" d="M147.5662,-25.5C147.5662,-25.5 594.9294,-25.5 594.9294,-25.5 600.9294,-25.5 606.9294,-31.5 606.9294,-37.5 606.9294,-37.5 606.9294,-701.5 606.9294,-701.5 606.9294,-707.5 600.9294,-713.5 594.9294,-713.5 594.9294,-713.5 147.5662,-713.5 147.5662,-713.5 141.5662,-713.5 135.5662,-707.5 135.5662,-701.5 135.5662,-701.5 135.5662,-37.5 135.5662,-37.5 135.5662,-31.5 141.5662,-25.5 147.5662,-25.5"/>
<text text-anchor="middle" x="371.2478" y="-702.3" font-family="Helvetica,sans-Serif" font-weight="bold" font-size="9.00" fill="#000000">src</text>
</g>
<g id="clust3" class="cluster">
<title>cluster_/src/cli</title>
<path fill="none" stroke="#000000" stroke-width="2" d="M155.5662,-33.5C155.5662,-33.5 472.6592,-33.5 472.6592,-33.5 478.6592,-33.5 484.6592,-39.5 484.6592,-45.5 484.6592,-45.5 484.6592,-174.5 484.6592,-174.5 484.6592,-180.5 478.6592,-186.5 472.6592,-186.5 472.6592,-186.5 155.5662,-186.5 155.5662,-186.5 149.5662,-186.5 143.5662,-180.5 143.5662,-174.5 143.5662,-174.5 143.5662,-45.5 143.5662,-45.5 143.5662,-39.5 149.5662,-33.5 155.5662,-33.5"/>
<text text-anchor="middle" x="314.1127" y="-175.3" font-family="Helvetica,sans-Serif" font-weight="bold" font-size="9.00" fill="#000000">cli</text>
</g>
<g id="clust4" class="cluster">
<title>cluster_/src/extract</title>
<path fill="none" stroke="#000000" stroke-width="2" d="M519.9221,-403.5C519.9221,-403.5 581.9221,-403.5 581.9221,-403.5 587.9221,-403.5 593.9221,-409.5 593.9221,-415.5 593.9221,-415.5 593.9221,-501.5 593.9221,-501.5 593.9221,-507.5 587.9221,-513.5 581.9221,-513.5 581.9221,-513.5 519.9221,-513.5 519.9221,-513.5 513.9221,-513.5 507.9221,-507.5 507.9221,-501.5 507.9221,-501.5 507.9221,-415.5 507.9221,-415.5 507.9221,-409.5 513.9221,-403.5 519.9221,-403.5"/>
<text text-anchor="middle" x="550.9221" y="-502.3" font-family="Helvetica,sans-Serif" font-weight="bold" font-size="9.00" fill="#000000">extract</text>
</g>
<g id="clust5" class="cluster">
<title>cluster_/src/extract/transpile</title>
<path fill="none" stroke="#000000" stroke-width="2" d="M527.9221,-437.5C527.9221,-437.5 573.9221,-437.5 573.9221,-437.5 579.9221,-437.5 585.9221,-443.5 585.9221,-449.5 585.9221,-449.5 585.9221,-476.5 585.9221,-476.5 585.9221,-482.5 579.9221,-488.5 573.9221,-488.5 573.9221,-488.5 527.9221,-488.5 527.9221,-488.5 521.9221,-488.5 515.9221,-482.5 515.9221,-476.5 515.9221,-476.5 515.9221,-449.5 515.9221,-449.5 515.9221,-443.5 521.9221,-437.5 527.9221,-437.5"/>
<text text-anchor="middle" x="550.9221" y="-477.3" font-family="Helvetica,sans-Serif" font-weight="bold" font-size="9.00" fill="#000000">transpile</text>
</g>
<g id="clust6" class="cluster">
<title>cluster_/src/main</title>
<path fill="none" stroke="#000000" stroke-width="2" d="M412.6431,-194.5C412.6431,-194.5 586.9294,-194.5 586.9294,-194.5 592.9294,-194.5 598.9294,-200.5 598.9294,-206.5 598.9294,-206.5 598.9294,-383.5 598.9294,-383.5 598.9294,-389.5 592.9294,-395.5 586.9294,-395.5 586.9294,-395.5 412.6431,-395.5 412.6431,-395.5 406.6431,-395.5 400.6431,-389.5 400.6431,-383.5 400.6431,-383.5 400.6431,-206.5 400.6431,-206.5 400.6431,-200.5 406.6431,-194.5 412.6431,-194.5"/>
<text text-anchor="middle" x="499.7863" y="-384.3" font-family="Helvetica,sans-Serif" font-weight="bold" font-size="9.00" fill="#000000">main</text>
</g>
<g id="clust8" class="cluster">
<title>cluster_/src/main/ruleSet</title>
<path fill="none" stroke="#000000" stroke-width="2" d="M522.9148,-290.5C522.9148,-290.5 578.9294,-290.5 578.9294,-290.5 584.9294,-290.5 590.9294,-296.5 590.9294,-302.5 590.9294,-302.5 590.9294,-358.5 590.9294,-358.5 590.9294,-364.5 584.9294,-370.5 578.9294,-370.5 578.9294,-370.5 522.9148,-370.5 522.9148,-370.5 516.9148,-370.5 510.9148,-364.5 510.9148,-358.5 510.9148,-358.5 510.9148,-302.5 510.9148,-302.5 510.9148,-296.5 516.9148,-290.5 522.9148,-290.5"/>
<text text-anchor="middle" x="550.9221" y="-359.3" font-family="Helvetica,sans-Serif" font-weight="bold" font-size="9.00" fill="#000000">ruleSet</text>
</g>
<g id="clust7" class="cluster">
<title>cluster_/src/main/options</title>
<path fill="none" stroke="#000000" stroke-width="2" d="M522.9148,-202.5C522.9148,-202.5 578.9294,-202.5 578.9294,-202.5 584.9294,-202.5 590.9294,-208.5 590.9294,-214.5 590.9294,-214.5 590.9294,-270.5 590.9294,-270.5 590.9294,-276.5 584.9294,-282.5 578.9294,-282.5 578.9294,-282.5 522.9148,-282.5 522.9148,-282.5 516.9148,-282.5 510.9148,-276.5 510.9148,-270.5 510.9148,-270.5 510.9148,-214.5 510.9148,-214.5 510.9148,-208.5 516.9148,-202.5 522.9148,-202.5"/>
<text text-anchor="middle" x="550.9221" y="-271.3" font-family="Helvetica,sans-Serif" font-weight="bold" font-size="9.00" fill="#000000">options</text>
</g>
<g id="clust9" class="cluster">
<title>cluster_/src/report</title>
<path fill="none" stroke="#000000" stroke-width="2" d="M516.6592,-521.5C516.6592,-521.5 585.1851,-521.5 585.1851,-521.5 591.1851,-521.5 597.1851,-527.5 597.1851,-533.5 597.1851,-533.5 597.1851,-676.5 597.1851,-676.5 597.1851,-682.5 591.1851,-688.5 585.1851,-688.5 585.1851,-688.5 516.6592,-688.5 516.6592,-688.5 510.6592,-688.5 504.6592,-682.5 504.6592,-676.5 504.6592,-676.5 504.6592,-533.5 504.6592,-533.5 504.6592,-527.5 510.6592,-521.5 516.6592,-521.5"/>
<text text-anchor="middle" x="550.9221" y="-677.3" font-family="Helvetica,sans-Serif" font-weight="bold" font-size="9.00" fill="#000000">report</text>
</g>
<!-- bin/dependency&#45;cruise -->
<g id="node1" class="node">
<title>bin/dependency&#45;cruise</title>
<g id="a_node1"><a xlink:href="bin/dependency-cruise" xlink:title="dependency&#45;cruise">
<path fill="#ffffcc" stroke="#000000" d="M102.4044,-413C102.4044,-413 21.643,-413 21.643,-413 18.8096,-413 15.9763,-410.1667 15.9763,-407.3333 15.9763,-407.3333 15.9763,-401.6667 15.9763,-401.6667 15.9763,-398.8333 18.8096,-396 21.643,-396 21.643,-396 102.4044,-396 102.4044,-396 105.2377,-396 108.0711,-398.8333 108.0711,-401.6667 108.0711,-401.6667 108.0711,-407.3333 108.0711,-407.3333 108.0711,-410.1667 105.2377,-413 102.4044,-413"/>
<text text-anchor="middle" x="62.0237" y="-401.8" font-family="Helvetica,sans-Serif" font-size="9.00" fill="#000000">dependency&#45;cruise</text>
</a>
</g>
</g>
<!-- package.json -->
<g id="node3" class="node">
<title>package.json</title>
<g id="a_node3"><a xlink:href="package.json" xlink:title="package.json">
<path fill="#ffffcc" stroke="#000000" d="M207.4371,-739C207.4371,-739 149.6952,-739 149.6952,-739 146.8619,-739 144.0286,-736.1667 144.0286,-733.3333 144.0286,-733.3333 144.0286,-727.6667 144.0286,-727.6667 144.0286,-724.8333 146.8619,-722 149.6952,-722 149.6952,-722 207.4371,-722 207.4371,-722 210.2704,-722 213.1038,-724.8333 213.1038,-727.6667 213.1038,-727.6667 213.1038,-733.3333 213.1038,-733.3333 213.1038,-736.1667 210.2704,-739 207.4371,-739"/>
<text text-anchor="middle" x="178.5662" y="-727.8" font-family="Helvetica,sans-Serif" font-size="9.00" fill="#000000">package.json</text>
</a>
</g>
</g>
<!-- bin/dependency&#45;cruise&#45;&gt;package.json -->
<g id="edge1" class="edge">
<title>bin/dependency&#45;cruise&#45;&gt;package.json</title>
<path fill="none" stroke="#000000" d="M65.1409,-413.2197C80.7142,-456.7824 150.2017,-651.157 172.0016,-712.1372"/>
<polygon fill="#000000" stroke="#000000" points="168.8314,-713.6666 175.4934,-721.9048 175.4228,-711.3102 168.8314,-713.6666"/>
</g>
<!-- src/cli/index.js -->
<g id="node6" class="node">
<title>src/cli/index.js</title>
<g id="a_node6"><a xlink:href="src/cli/index.js" xlink:title="index.js">
<path fill="#ffffcc" stroke="#000000" d="M199.8995,-128C199.8995,-128 157.2328,-128 157.2328,-128 154.3995,-128 151.5662,-125.1667 151.5662,-122.3333 151.5662,-122.3333 151.5662,-116.6667 151.5662,-116.6667 151.5662,-113.8333 154.3995,-111 157.2328,-111 157.2328,-111 199.8995,-111 199.8995,-111 202.7328,-111 205.5662,-113.8333 205.5662,-116.6667 205.5662,-116.6667 205.5662,-122.3333 205.5662,-122.3333 205.5662,-125.1667 202.7328,-128 199.8995,-128"/>
<text text-anchor="middle" x="178.5662" y="-116.8" font-family="Helvetica,sans-Serif" font-size="9.00" fill="#000000">index.js</text>
</a>
</g>
</g>
<!-- bin/dependency&#45;cruise&#45;&gt;src/cli/index.js -->
<g id="edge2" class="edge">
<title>bin/dependency&#45;cruise&#45;&gt;src/cli/index.js</title>
<path fill="none" stroke="#000000" d="M65.5116,-395.9705C81.5605,-356.7236 148.4845,-193.0636 171.0782,-137.8116"/>
<polygon fill="#000000" stroke="#000000" points="174.4322,-138.8564 174.9776,-128.2757 167.953,-136.2069 174.4322,-138.8564"/>
</g>
<!-- fs -->
<g id="node2" class="node">
<title>fs</title>
<path fill="#ffffcc" stroke="#c0c0c0" d="M456.9764,-17C456.9764,-17 414.3097,-17 414.3097,-17 411.4764,-17 408.6431,-14.1667 408.6431,-11.3333 408.6431,-11.3333 408.6431,-5.6667 408.6431,-5.6667 408.6431,-2.8333 411.4764,0 414.3097,0 414.3097,0 456.9764,0 456.9764,0 459.8097,0 462.6431,-2.8333 462.6431,-5.6667 462.6431,-5.6667 462.6431,-11.3333 462.6431,-11.3333 462.6431,-14.1667 459.8097,-17 456.9764,-17"/>
<text text-anchor="middle" x="435.6431" y="-5.8" font-family="Helvetica,sans-Serif" font-size="9.00" fill="#c0c0c0">fs</text>
</g>
<!-- src/cli/defaults.json -->
<g id="node4" class="node">
<title>src/cli/defaults.json</title>
<g id="a_node4"><a xlink:href="src/cli/defaults.json" xlink:title="defaults.json">
<path fill="#ffffcc" stroke="#000000" d="M463.0107,-128C463.0107,-128 408.2754,-128 408.2754,-128 405.4421,-128 402.6087,-125.1667 402.6087,-122.3333 402.6087,-122.3333 402.6087,-116.6667 402.6087,-116.6667 402.6087,-113.8333 405.4421,-111 408.2754,-111 408.2754,-111 463.0107,-111 463.0107,-111 465.8441,-111 468.6774,-113.8333 468.6774,-116.6667 468.6774,-116.6667 468.6774,-122.3333 468.6774,-122.3333 468.6774,-125.1667 465.8441,-128 463.0107,-128"/>
<text text-anchor="middle" x="435.6431" y="-116.8" font-family="Helvetica,sans-Serif" font-size="9.00" fill="#000000">defaults.json</text>
</a>
</g>
</g>
<!-- src/cli/formatMetaInfo.js -->
<g id="node5" class="node">
<title>src/cli/formatMetaInfo.js</title>
<g id="a_node5"><a xlink:href="src/cli/formatMetaInfo.js" xlink:title="formatMetaInfo.js">
<path fill="#ffffcc" stroke="#000000" d="M340.7165,-161C340.7165,-161 266.9954,-161 266.9954,-161 264.1621,-161 261.3288,-158.1667 261.3288,-155.3333 261.3288,-155.3333 261.3288,-149.6667 261.3288,-149.6667 261.3288,-146.8333 264.1621,-144 266.9954,-144 266.9954,-144 340.7165,-144 340.7165,-144 343.5498,-144 346.3831,-146.8333 346.3831,-149.6667 346.3831,-149.6667 346.3831,-155.3333 346.3831,-155.3333 346.3831,-158.1667 343.5498,-161 340.7165,-161"/>
<text text-anchor="middle" x="303.856" y="-149.8" font-family="Helvetica,sans-Serif" font-size="9.00" fill="#000000">formatMetaInfo.js</text>
</a>
</g>
</g>
<!-- src/main/index.js -->
<g id="node13" class="node">
<title>src/main/index.js</title>
<g id="a_node13"><a xlink:href="src/main/index.js" xlink:title="index.js">
<path fill="#ffffcc" stroke="#000000" d="M456.9764,-370C456.9764,-370 414.3097,-370 414.3097,-370 411.4764,-370 408.6431,-367.1667 408.6431,-364.3333 408.6431,-364.3333 408.6431,-358.6667 408.6431,-358.6667 408.6431,-355.8333 411.4764,-353 414.3097,-353 414.3097,-353 456.9764,-353 456.9764,-353 459.8097,-353 462.6431,-355.8333 462.6431,-358.6667 462.6431,-358.6667 462.6431,-364.3333 462.6431,-364.3333 462.6431,-367.1667 459.8097,-370 456.9764,-370"/>
<text text-anchor="middle" x="435.6431" y="-358.8" font-family="Helvetica,sans-Serif" font-size="9.00" fill="#000000">index.js</text>
</a>
</g>
</g>
<!-- src/cli/formatMetaInfo.js&#45;&gt;src/main/index.js -->
<g id="edge3" class="edge">
<title>src/cli/formatMetaInfo.js&#45;&gt;src/main/index.js</title>
<path fill="none" stroke="#000000" d="M309.3509,-161.2144C329.2362,-192.7503 397.6902,-301.3108 424.628,-344.0313"/>
<polygon fill="#000000" stroke="#000000" points="421.8303,-346.1565 430.1247,-352.7484 427.7514,-342.4228 421.8303,-346.1565"/>
</g>
<!-- src/cli/index.js&#45;&gt;fs -->
<g id="edge10" class="edge">
<title>src/cli/index.js&#45;&gt;fs</title>
<path fill="none" stroke="#c0c0c0" d="M183.0346,-110.9287C192.5677,-93.5996 216.7,-54.5192 249.085,-36.5 295.8487,-10.4804 358.9191,-6.269 398.4285,-6.6269"/>
<polygon fill="#c0c0c0" stroke="#c0c0c0" points="398.3617,-10.1262 408.4275,-6.82 398.497,-3.1275 398.3617,-10.1262"/>
</g>
<!-- src/cli/index.js&#45;&gt;src/cli/defaults.json -->
<g id="edge5" class="edge">
<title>src/cli/index.js&#45;&gt;src/cli/defaults.json</title>
<path fill="none" stroke="#000000" d="M205.6753,-121.3977C218.7813,-122.2232 234.7436,-123.0936 249.085,-123.5 297.7508,-124.8791 309.958,-124.763 358.627,-123.5 369.4798,-123.2184 381.1842,-122.7138 392.1119,-122.1559"/>
<polygon fill="#000000" stroke="#000000" points="392.4995,-125.6402 402.2979,-121.6101 392.1249,-118.6502 392.4995,-125.6402"/>
</g>
<!-- src/cli/index.js&#45;&gt;src/cli/formatMetaInfo.js -->
<g id="edge6" class="edge">
<title>src/cli/index.js&#45;&gt;src/cli/formatMetaInfo.js</title>
<path fill="none" stroke="#000000" d="M205.7522,-126.6605C222.0264,-130.947 243.0613,-136.4873 261.4773,-141.3379"/>
<polygon fill="#000000" stroke="#000000" points="260.8304,-144.7868 271.3921,-143.9494 262.6134,-138.0177 260.8304,-144.7868"/>
</g>
<!-- src/cli/initRules.js -->
<g id="node7" class="node">
<title>src/cli/initRules.js</title>
<g id="a_node7"><a xlink:href="src/cli/initRules.js" xlink:title="initRules.js">
<path fill="#ffffcc" stroke="#000000" d="M327.7059,-88C327.7059,-88 280.006,-88 280.006,-88 277.1727,-88 274.3393,-85.1667 274.3393,-82.3333 274.3393,-82.3333 274.3393,-76.6667 274.3393,-76.6667 274.3393,-73.8333 277.1727,-71 280.006,-71 280.006,-71 327.7059,-71 327.7059,-71 330.5392,-71 333.3726,-73.8333 333.3726,-76.6667 333.3726,-76.6667 333.3726,-82.3333 333.3726,-82.3333 333.3726,-85.1667 330.5392,-88 327.7059,-88"/>
<text text-anchor="middle" x="303.856" y="-76.8" font-family="Helvetica,sans-Serif" font-size="9.00" fill="#000000">initRules.js</text>
</a>
</g>
</g>
<!-- src/cli/index.js&#45;&gt;src/cli/initRules.js -->
<g id="edge7" class="edge">
<title>src/cli/index.js&#45;&gt;src/cli/initRules.js</title>
<path fill="none" stroke="#000000" d="M201.2899,-110.9665C215.0398,-105.9226 232.973,-99.5548 249.085,-94.5 254.0148,-92.9534 259.2215,-91.4114 264.3852,-89.9369"/>
<polygon fill="#000000" stroke="#000000" points="265.4884,-93.2628 274.1779,-87.2013 263.6049,-86.5209 265.4884,-93.2628"/>
</g>
<!-- src/cli/normalizeOptions.js -->
<g id="node8" class="node">
<title>src/cli/normalizeOptions.js</title>
<g id="a_node8"><a xlink:href="src/cli/normalizeOptions.js" xlink:title="normalizeOptions.js">
<path fill="#ffffcc" stroke="#000000" d="M345.7205,-117C345.7205,-117 261.9914,-117 261.9914,-117 259.158,-117 256.3247,-114.1667 256.3247,-111.3333 256.3247,-111.3333 256.3247,-105.6667 256.3247,-105.6667 256.3247,-102.8333 259.158,-100 261.9914,-100 261.9914,-100 345.7205,-100 345.7205,-100 348.5539,-100 351.3872,-102.8333 351.3872,-105.6667 351.3872,-105.6667 351.3872,-111.3333 351.3872,-111.3333 351.3872,-114.1667 348.5539,-117 345.7205,-117"/>
<text text-anchor="middle" x="303.856" y="-105.8" font-family="Helvetica,sans-Serif" font-size="9.00" fill="#000000">normalizeOptions.js</text>
</a>
</g>
</g>
<!-- src/cli/index.js&#45;&gt;src/cli/normalizeOptions.js -->
<g id="edge8" class="edge">
<title>src/cli/index.js&#45;&gt;src/cli/normalizeOptions.js</title>
<path fill="none" stroke="#000000" d="M205.7522,-117.1132C217.5665,-116.0759 231.8898,-114.8184 245.8986,-113.5885"/>
<polygon fill="#000000" stroke="#000000" points="246.3477,-117.0626 256.0033,-112.7013 245.7355,-110.0894 246.3477,-117.0626"/>
</g>
<!-- src/cli/validateFileExistence.js -->
<g id="node10" class="node">
<title>src/cli/validateFileExistence.js</title>
<g id="a_node10"><a xlink:href="src/cli/validateFileExistence.js" xlink:title="validateFileExistence.js">
<path fill="#ffffcc" stroke="#000000" d="M352.7322,-59C352.7322,-59 254.9797,-59 254.9797,-59 252.1463,-59 249.313,-56.1667 249.313,-53.3333 249.313,-53.3333 249.313,-47.6667 249.313,-47.6667 249.313,-44.8333 252.1463,-42 254.9797,-42 254.9797,-42 352.7322,-42 352.7322,-42 355.5656,-42 358.3989,-44.8333 358.3989,-47.6667 358.3989,-47.6667 358.3989,-53.3333 358.3989,-53.3333 358.3989,-56.1667 355.5656,-59 352.7322,-59"/>
<text text-anchor="middle" x="303.856" y="-47.8" font-family="Helvetica,sans-Serif" font-size="9.00" fill="#000000">validateFileExistence.js</text>
</a>
</g>
</g>
<!-- src/cli/index.js&#45;&gt;src/cli/validateFileExistence.js -->
<g id="edge9" class="edge">
<title>src/cli/index.js&#45;&gt;src/cli/validateFileExistence.js</title>
<path fill="none" stroke="#000000" d="M187.3683,-110.9121C200.0077,-99.0384 224.4954,-77.6954 249.085,-65.5 251.2089,-64.4466 253.417,-63.4588 255.6749,-62.5335"/>
<polygon fill="#000000" stroke="#000000" points="256.9556,-65.7919 265.1482,-59.0739 254.5543,-59.2167 256.9556,-65.7919"/>
</g>
<!-- src/cli/index.js&#45;&gt;src/main/index.js -->
<g id="edge4" class="edge">
<title>src/cli/index.js&#45;&gt;src/main/index.js</title>
<path fill="none" stroke="#000000" d="M187.7157,-128.1129C225.5108,-163.6914 369.7903,-299.5094 419.0475,-345.8777"/>
<polygon fill="#000000" stroke="#000000" points="416.9228,-348.6844 426.6032,-352.9903 421.7208,-343.5875 416.9228,-348.6844"/>
</g>
<!-- src/cli/initRules.js&#45;&gt;fs -->
<g id="edge12" class="edge">
<title>src/cli/initRules.js&#45;&gt;fs</title>
<path fill="none" stroke="#c0c0c0" d="M333.642,-74.8513C342.0653,-72.7634 351.0069,-69.7702 358.627,-65.5 378.094,-54.5909 376.6195,-43.6797 394.627,-30.5 398.8389,-27.4173 403.5366,-24.4896 408.2068,-21.835"/>
<polygon fill="#c0c0c0" stroke="#c0c0c0" points="409.8683,-24.9155 417.0188,-17.0976 406.5536,-18.75 409.8683,-24.9155"/>
</g>
<!-- src/cli/rules.starter.json -->
<g id="node9" class="node">
<title>src/cli/rules.starter.json</title>
<g id="a_node9"><a xlink:href="src/cli/rules.starter.json" xlink:title="rules.starter.json">
<path fill="#ffffcc" stroke="#000000" d="M471.0086,-88C471.0086,-88 400.2775,-88 400.2775,-88 397.4442,-88 394.6108,-85.1667 394.6108,-82.3333 394.6108,-82.3333 394.6108,-76.6667 394.6108,-76.6667 394.6108,-73.8333 397.4442,-71 400.2775,-71 400.2775,-71 471.0086,-71 471.0086,-71 473.842,-71 476.6753,-73.8333 476.6753,-76.6667 476.6753,-76.6667 476.6753,-82.3333 476.6753,-82.3333 476.6753,-85.1667 473.842,-88 471.0086,-88"/>
<text text-anchor="middle" x="435.6431" y="-76.8" font-family="Helvetica,sans-Serif" font-size="9.00" fill="#000000">rules.starter.json</text>
</a>
</g>
</g>
<!-- src/cli/initRules.js&#45;&gt;src/cli/rules.starter.json -->
<g id="edge11" class="edge">
<title>src/cli/initRules.js&#45;&gt;src/cli/rules.starter.json</title>
<path fill="none" stroke="#000000" d="M333.4316,-79.5C348.326,-79.5 366.8207,-79.5 383.9668,-79.5"/>
<polygon fill="#000000" stroke="#000000" points="384.4242,-83.0001 394.4242,-79.5 384.4241,-76.0001 384.4242,-83.0001"/>
</g>
<!-- src/cli/normalizeOptions.js&#45;&gt;fs -->
<g id="edge14" class="edge">
<title>src/cli/normalizeOptions.js&#45;&gt;fs</title>
<path fill="none" stroke="#c0c0c0" d="M349.7417,-99.8878C352.8972,-98.3714 355.9013,-96.5907 358.627,-94.5 384.5219,-74.6371 371.3197,-53.3442 394.627,-30.5 397.7432,-27.4457 401.3698,-24.701 405.1527,-22.2713"/>
<polygon fill="#c0c0c0" stroke="#c0c0c0" points="407.1405,-25.167 414.0969,-17.1759 403.6754,-19.0848 407.1405,-25.167"/>
</g>
<!-- src/cli/normalizeOptions.js&#45;&gt;src/cli/defaults.json -->
<g id="edge13" class="edge">
<title>src/cli/normalizeOptions.js&#45;&gt;src/cli/defaults.json</title>
<path fill="none" stroke="#000000" d="M351.4341,-112.4713C364.8146,-113.5881 379.2897,-114.7963 392.4021,-115.8908"/>
<polygon fill="#000000" stroke="#000000" points="392.3225,-119.3962 402.579,-116.7402 392.9048,-112.4205 392.3225,-119.3962"/>
</g>
<!-- src/cli/validateFileExistence.js&#45;&gt;fs -->
<g id="edge15" class="edge">
<title>src/cli/validateFileExistence.js&#45;&gt;fs</title>
<path fill="none" stroke="#c0c0c0" d="M330.8431,-41.8993C350.4758,-35.6424 377.2877,-27.0976 398.877,-20.2172"/>
<polygon fill="#c0c0c0" stroke="#c0c0c0" points="400.227,-23.4605 408.6921,-17.0892 398.1014,-16.791 400.227,-23.4605"/>
</g>
<!-- src/extract/index.js -->
<g id="node11" class="node">
<title>src/extract/index.js</title>
<g id="a_node11"><a xlink:href="src/extract/index.js" xlink:title="index.js">
<path fill="#ffffcc" stroke="#000000" d="M572.2555,-429C572.2555,-429 529.5888,-429 529.5888,-429 526.7555,-429 523.9221,-426.1667 523.9221,-423.3333 523.9221,-423.3333 523.9221,-417.6667 523.9221,-417.6667 523.9221,-414.8333 526.7555,-412 529.5888,-412 529.5888,-412 572.2555,-412 572.2555,-412 575.0888,-412 577.9221,-414.8333 577.9221,-417.6667 577.9221,-417.6667 577.9221,-423.3333 577.9221,-423.3333 577.9221,-426.1667 575.0888,-429 572.2555,-429"/>
<text text-anchor="middle" x="550.9221" y="-417.8" font-family="Helvetica,sans-Serif" font-size="9.00" fill="#000000">index.js</text>
</a>
</g>
</g>
<!-- src/extract/transpile/meta.js -->
<g id="node12" class="node">
<title>src/extract/transpile/meta.js</title>
<g id="a_node12"><a xlink:href="src/extract/transpile/meta.js" xlink:title="meta.js">
<path fill="#ffffcc" stroke="#000000" d="M572.2555,-463C572.2555,-463 529.5888,-463 529.5888,-463 526.7555,-463 523.9221,-460.1667 523.9221,-457.3333 523.9221,-457.3333 523.9221,-451.6667 523.9221,-451.6667 523.9221,-448.8333 526.7555,-446 529.5888,-446 529.5888,-446 572.2555,-446 572.2555,-446 575.0888,-446 577.9221,-448.8333 577.9221,-451.6667 577.9221,-451.6667 577.9221,-457.3333 577.9221,-457.3333 577.9221,-460.1667 575.0888,-463 572.2555,-463"/>
<text text-anchor="middle" x="550.9221" y="-451.8" font-family="Helvetica,sans-Serif" font-size="9.00" fill="#000000">meta.js</text>
</a>
</g>
</g>
<!-- src/main/index.js&#45;&gt;src/extract/index.js -->
<g id="edge16" class="edge">
<title>src/main/index.js&#45;&gt;src/extract/index.js</title>
<path fill="none" stroke="#000000" d="M452.6529,-370.2057C471.7478,-379.9785 502.9469,-395.9462 525.0639,-407.2657"/>
<polygon fill="#000000" stroke="#000000" points="523.7208,-410.5101 534.2173,-411.9505 526.9101,-404.2788 523.7208,-410.5101"/>
</g>
<!-- src/main/index.js&#45;&gt;src/extract/transpile/meta.js -->
<g id="edge17" class="edge">
<title>src/main/index.js&#45;&gt;src/extract/transpile/meta.js</title>
<path fill="none" stroke="#000000" d="M440.4813,-370.1047C450.3107,-386.7697 474.2821,-423.4782 504.6592,-442.5 507.6326,-444.3619 510.8859,-445.9362 514.2453,-447.267"/>
<polygon fill="#000000" stroke="#000000" points="513.2577,-450.6264 523.8504,-450.4095 515.4345,-443.9734 513.2577,-450.6264"/>
</g>
<!-- src/main/options/normalize.js -->
<g id="node14" class="node">
<title>src/main/options/normalize.js</title>
<g id="a_node14"><a xlink:href="src/main/options/normalize.js" xlink:title="normalize.js">
<path fill="#ffffcc" stroke="#000000" d="M577.2701,-228C577.2701,-228 524.5741,-228 524.5741,-228 521.7408,-228 518.9075,-225.1667 518.9075,-222.3333 518.9075,-222.3333 518.9075,-216.6667 518.9075,-216.6667 518.9075,-213.8333 521.7408,-211 524.5741,-211 524.5741,-211 577.2701,-211 577.2701,-211 580.1034,-211 582.9368,-213.8333 582.9368,-216.6667 582.9368,-216.6667 582.9368,-222.3333 582.9368,-222.3333 582.9368,-225.1667 580.1034,-228 577.2701,-228"/>
<text text-anchor="middle" x="550.9221" y="-216.8" font-family="Helvetica,sans-Serif" font-size="9.00" fill="#000000">normalize.js</text>
</a>
</g>
</g>
<!-- src/main/index.js&#45;&gt;src/main/options/normalize.js -->
<g id="edge23" class="edge">
<title>src/main/index.js&#45;&gt;src/main/options/normalize.js</title>
<path fill="none" stroke="#000000" d="M437.8694,-352.9712C444.2401,-330.2433 464.7056,-267.6956 504.6592,-234.5 506.2178,-233.205 507.8908,-232.021 509.643,-230.9385"/>
<polygon fill="#000000" stroke="#000000" points="511.5098,-233.919 518.9016,-226.3288 508.3898,-227.6527 511.5098,-233.919"/>
</g>
<!-- src/main/options/validate.js -->
<g id="node15" class="node">
<title>src/main/options/validate.js</title>
<g id="a_node15"><a xlink:href="src/main/options/validate.js" xlink:title="validate.js">
<path fill="#ffffcc" stroke="#000000" d="M573.2765,-257C573.2765,-257 528.5678,-257 528.5678,-257 525.7345,-257 522.9011,-254.1667 522.9011,-251.3333 522.9011,-251.3333 522.9011,-245.6667 522.9011,-245.6667 522.9011,-242.8333 525.7345,-240 528.5678,-240 528.5678,-240 573.2765,-240 573.2765,-240 576.1098,-240 578.9431,-242.8333 578.9431,-245.6667 578.9431,-245.6667 578.9431,-251.3333 578.9431,-251.3333 578.9431,-254.1667 576.1098,-257 573.2765,-257"/>
<text text-anchor="middle" x="550.9221" y="-245.8" font-family="Helvetica,sans-Serif" font-size="9.00" fill="#000000">validate.js</text>
</a>
</g>
</g>
<!-- src/main/index.js&#45;&gt;src/main/options/validate.js -->
<g id="edge24" class="edge">
<title>src/main/index.js&#45;&gt;src/main/options/validate.js</title>
<path fill="none" stroke="#000000" d="M442.9908,-352.9783C455.2776,-338.879 480.9821,-310.0187 504.6592,-287.5 513.3368,-279.2469 523.46,-270.6104 532.0206,-263.5686"/>
<polygon fill="#000000" stroke="#000000" points="534.3915,-266.152 539.9487,-257.1316 529.9792,-260.7176 534.3915,-266.152"/>
</g>
<!-- src/main/ruleSet/normalize.js -->
<g id="node16" class="node">
<title>src/main/ruleSet/normalize.js</title>
<g id="a_node16"><a xlink:href="src/main/ruleSet/normalize.js" xlink:title="normalize.js">
<path fill="#ffffcc" stroke="#000000" d="M577.2701,-316C577.2701,-316 524.5741,-316 524.5741,-316 521.7408,-316 518.9075,-313.1667 518.9075,-310.3333 518.9075,-310.3333 518.9075,-304.6667 518.9075,-304.6667 518.9075,-301.8333 521.7408,-299 524.5741,-299 524.5741,-299 577.2701,-299 577.2701,-299 580.1034,-299 582.9368,-301.8333 582.9368,-304.6667 582.9368,-304.6667 582.9368,-310.3333 582.9368,-310.3333 582.9368,-313.1667 580.1034,-316 577.2701,-316"/>
<text text-anchor="middle" x="550.9221" y="-304.8" font-family="Helvetica,sans-Serif" font-size="9.00" fill="#000000">normalize.js</text>
</a>
</g>
</g>
<!-- src/main/index.js&#45;&gt;src/main/ruleSet/normalize.js -->
<g id="edge25" class="edge">
<title>src/main/index.js&#45;&gt;src/main/ruleSet/normalize.js</title>
<path fill="none" stroke="#000000" d="M448.975,-352.8967C462.5794,-344.3772 484.4987,-331.3571 504.6592,-322.5 506.9589,-321.4896 509.349,-320.5116 511.7772,-319.5719"/>
<polygon fill="#000000" stroke="#000000" points="513.012,-322.8472 521.2223,-316.1508 510.6281,-316.2656 513.012,-322.8472"/>
</g>
<!-- src/main/ruleSet/validate.js -->
<g id="node17" class="node">
<title>src/main/ruleSet/validate.js</title>
<g id="a_node17"><a xlink:href="src/main/ruleSet/validate.js" xlink:title="validate.js">
<path fill="#ffffcc" stroke="#000000" d="M573.2765,-345C573.2765,-345 528.5678,-345 528.5678,-345 525.7345,-345 522.9011,-342.1667 522.9011,-339.3333 522.9011,-339.3333 522.9011,-333.6667 522.9011,-333.6667 522.9011,-330.8333 525.7345,-328 528.5678,-328 528.5678,-328 573.2765,-328 573.2765,-328 576.1098,-328 578.9431,-330.8333 578.9431,-333.6667 578.9431,-333.6667 578.9431,-339.3333 578.9431,-339.3333 578.9431,-342.1667 576.1098,-345 573.2765,-345"/>
<text text-anchor="middle" x="550.9221" y="-333.8" font-family="Helvetica,sans-Serif" font-size="9.00" fill="#000000">validate.js</text>
</a>
</g>
</g>
<!-- src/main/index.js&#45;&gt;src/main/ruleSet/validate.js -->
<g id="edge26" class="edge">
<title>src/main/index.js&#45;&gt;src/main/ruleSet/validate.js</title>
<path fill="none" stroke="#000000" d="M462.6709,-355.6386C477.661,-352.3878 496.5425,-348.293 512.99,-344.7261"/>
<polygon fill="#000000" stroke="#000000" points="513.8289,-348.1257 522.8599,-342.5857 512.3453,-341.2847 513.8289,-348.1257"/>
</g>
<!-- src/report/csvReporter.js -->
<g id="node18" class="node">
<title>src/report/csvReporter.js</title>
<g id="a_node18"><a xlink:href="src/report/csvReporter.js" xlink:title="csvReporter.js">
<path fill="#ffffcc" stroke="#000000" d="M581.7789,-576C581.7789,-576 520.0653,-576 520.0653,-576 517.232,-576 514.3987,-573.1667 514.3987,-570.3333 514.3987,-570.3333 514.3987,-564.6667 514.3987,-564.6667 514.3987,-561.8333 517.232,-559 520.0653,-559 520.0653,-559 581.7789,-559 581.7789,-559 584.6122,-559 587.4456,-561.8333 587.4456,-564.6667 587.4456,-564.6667 587.4456,-570.3333 587.4456,-570.3333 587.4456,-573.1667 584.6122,-576 581.7789,-576"/>
<text text-anchor="middle" x="550.9221" y="-564.8" font-family="Helvetica,sans-Serif" font-size="9.00" fill="#000000">csvReporter.js</text>
</a>
</g>
</g>
<!-- src/main/index.js&#45;&gt;src/report/csvReporter.js -->
<g id="edge18" class="edge">
<title>src/main/index.js&#45;&gt;src/report/csvReporter.js</title>
<path fill="none" stroke="#000000" d="M436.1088,-370.2379C438.1917,-400.3444 449.1906,-500.8021 504.6592,-553.5 505.009,-553.8323 505.3664,-554.1568 505.731,-554.4736"/>
<polygon fill="#000000" stroke="#000000" points="503.971,-557.5049 514.2529,-560.0608 507.8091,-551.6509 503.971,-557.5049"/>
</g>
<!-- src/report/dotReporter.js -->
<g id="node19" class="node">
<title>src/report/dotReporter.js</title>
<g id="a_node19"><a xlink:href="src/report/dotReporter.js" xlink:title="dotReporter.js">
<path fill="#ffffcc" stroke="#000000" d="M581.2901,-547C581.2901,-547 520.5541,-547 520.5541,-547 517.7208,-547 514.8874,-544.1667 514.8874,-541.3333 514.8874,-541.3333 514.8874,-535.6667 514.8874,-535.6667 514.8874,-532.8333 517.7208,-530 520.5541,-530 520.5541,-530 581.2901,-530 581.2901,-530 584.1235,-530 586.9568,-532.8333 586.9568,-535.6667 586.9568,-535.6667 586.9568,-541.3333 586.9568,-541.3333 586.9568,-544.1667 584.1235,-547 581.2901,-547"/>
<text text-anchor="middle" x="550.9221" y="-535.8" font-family="Helvetica,sans-Serif" font-size="9.00" fill="#000000">dotReporter.js</text>
</a>
</g>
</g>
<!-- src/main/index.js&#45;&gt;src/report/dotReporter.js -->
<g id="edge19" class="edge">
<title>src/main/index.js&#45;&gt;src/report/dotReporter.js</title>
<path fill="none" stroke="#000000" d="M439.2132,-370.2092C448.3096,-391.8719 473.8316,-449.4647 504.6592,-491.5 513.0383,-502.9255 524.127,-514.2875 533.3476,-522.9776"/>
<polygon fill="#000000" stroke="#000000" points="531.1187,-525.6824 540.8547,-529.861 535.8495,-520.523 531.1187,-525.6824"/>
</g>
<!-- src/report/errReporter.js -->
<g id="node20" class="node">
<title>src/report/errReporter.js</title>
<g id="a_node20"><a xlink:href="src/report/errReporter.js" xlink:title="errReporter.js">
<path fill="#ffffcc" stroke="#000000" d="M580.28,-663C580.28,-663 521.5642,-663 521.5642,-663 518.7309,-663 515.8976,-660.1667 515.8976,-657.3333 515.8976,-657.3333 515.8976,-651.6667 515.8976,-651.6667 515.8976,-648.8333 518.7309,-646 521.5642,-646 521.5642,-646 580.28,-646 580.28,-646 583.1133,-646 585.9467,-648.8333 585.9467,-651.6667 585.9467,-651.6667 585.9467,-657.3333 585.9467,-657.3333 585.9467,-660.1667 583.1133,-663 580.28,-663"/>
<text text-anchor="middle" x="550.9221" y="-651.8" font-family="Helvetica,sans-Serif" font-size="9.00" fill="#000000">errReporter.js</text>
</a>
</g>
</g>
<!-- src/main/index.js&#45;&gt;src/report/errReporter.js -->
<g id="edge20" class="edge">
<title>src/main/index.js&#45;&gt;src/report/errReporter.js</title>
<path fill="none" stroke="#000000" d="M436.6308,-370.1285C441.6631,-412.6535 465.7404,-599.5294 504.6592,-640.5 505.4394,-641.3213 506.266,-642.095 507.1319,-642.8237"/>
<polygon fill="#000000" stroke="#000000" points="505.4612,-645.907 515.7954,-648.2426 509.1733,-639.9723 505.4612,-645.907"/>
</g>
<!-- src/report/htmlReporter.js -->
<g id="node21" class="node">
<title>src/report/htmlReporter.js</title>
<g id="a_node21"><a xlink:href="src/report/htmlReporter.js" xlink:title="htmlReporter.js">
<path fill="#ffffcc" stroke="#000000" d="M583.2828,-634C583.2828,-634 518.5614,-634 518.5614,-634 515.7281,-634 512.8948,-631.1667 512.8948,-628.3333 512.8948,-628.3333 512.8948,-622.6667 512.8948,-622.6667 512.8948,-619.8333 515.7281,-617 518.5614,-617 518.5614,-617 583.2828,-617 583.2828,-617 586.1161,-617 588.9495,-619.8333 588.9495,-622.6667 588.9495,-622.6667 588.9495,-628.3333 588.9495,-628.3333 588.9495,-631.1667 586.1161,-634 583.2828,-634"/>
<text text-anchor="middle" x="550.9221" y="-622.8" font-family="Helvetica,sans-Serif" font-size="9.00" fill="#000000">htmlReporter.js</text>
</a>
</g>
</g>
<!-- src/main/index.js&#45;&gt;src/report/htmlReporter.js -->
<g id="edge21" class="edge">
<title>src/main/index.js&#45;&gt;src/report/htmlReporter.js</title>
<path fill="none" stroke="#000000" d="M436.8778,-370.0151C442.7781,-409.6006 469.2824,-575.2457 504.6592,-611.5 504.8057,-611.6501 504.9538,-611.7987 505.1033,-611.9457"/>
<polygon fill="#000000" stroke="#000000" points="502.5759,-614.4305 512.7013,-617.5494 506.7308,-608.797 502.5759,-614.4305"/>
</g>
<!-- src/report/jsonReporter.js -->
<g id="node22" class="node">
<title>src/report/jsonReporter.js</title>
<g id="a_node22"><a xlink:href="src/report/jsonReporter.js" xlink:title="jsonReporter.js">
<path fill="#ffffcc" stroke="#000000" d="M583.2892,-605C583.2892,-605 518.5551,-605 518.5551,-605 515.7218,-605 512.8884,-602.1667 512.8884,-599.3333 512.8884,-599.3333 512.8884,-593.6667 512.8884,-593.6667 512.8884,-590.8333 515.7218,-588 518.5551,-588 518.5551,-588 583.2892,-588 583.2892,-588 586.1225,-588 588.9558,-590.8333 588.9558,-593.6667 588.9558,-593.6667 588.9558,-599.3333 588.9558,-599.3333 588.9558,-602.1667 586.1225,-605 583.2892,-605"/>
<text text-anchor="middle" x="550.9221" y="-593.8" font-family="Helvetica,sans-Serif" font-size="9.00" fill="#000000">jsonReporter.js</text>
</a>
</g>
</g>
<!-- src/main/index.js&#45;&gt;src/report/jsonReporter.js -->
<g id="edge22" class="edge">
<title>src/main/index.js&#45;&gt;src/report/jsonReporter.js</title>
<path fill="none" stroke="#000000" d="M437.295,-370.4972C444.3409,-407.9618 472.9711,-551.0907 504.6592,-582.5 504.8082,-582.6477 504.9587,-582.7938 505.1106,-582.9384"/>
<polygon fill="#000000" stroke="#000000" points="502.6258,-585.4621 512.7861,-588.4652 506.7162,-579.7815 502.6258,-585.4621"/>
</g>
</g>
</svg>
