<?xml version="1.0" encoding="UTF-8" standalone="no"?>
<!DOCTYPE svg PUBLIC "-//W3C//DTD SVG 1.1//EN"
 "http://www.w3.org/Graphics/SVG/1.1/DTD/svg11.dtd">
<!-- Generated by graphviz version 6.0.2 (20221011.1828)
 -->
<!-- Title: dependency&#45;cruiser output Pages: 1 -->
<svg width="386pt" height="249pt"
 viewBox="0.00 0.00 386.00 249.00" xmlns="http://www.w3.org/2000/svg" xmlns:xlink="http://www.w3.org/1999/xlink">
<g id="graph0" class="graph" transform="scale(1 1) rotate(0) translate(4 245)">
<title>dependency&#45;cruiser output</title>
<polygon fill="white" stroke="none" points="-4,4 -4,-245 382,-245 382,4 -4,4"/>
<g id="clust1" class="cluster">
<title>cluster_src</title>
<path fill="#ffffff" stroke="black" stroke-width="2" d="M20,-8C20,-8 358,-8 358,-8 364,-8 370,-14 370,-20 370,-20 370,-203 370,-203 370,-209 364,-215 358,-215 358,-215 20,-215 20,-215 14,-215 8,-209 8,-203 8,-203 8,-20 8,-20 8,-14 14,-8 20,-8"/>
<text text-anchor="middle" x="189" y="-203.8" font-family="Helvetica,sans-Serif" font-weight="bold" font-size="9.00">src</text>
</g>
<!-- bin/ -->
<g id="node1" class="node">
<title>bin/</title>
<g id="a_node1"><a xlink:href="https://github.com/sverweij/dependency-cruiser/blob/develop/bin/" xlink:title="bin">
<polygon fill="#ffffcc" stroke="black" points="319,-241 267,-241 265,-239 265,-223 317,-223 319,-225 319,-241"/>
<polyline fill="none" stroke="black" points="317,-239 265,-239"/>
<polyline fill="none" stroke="black" points="317,-239 317,-223"/>
<polyline fill="none" stroke="black" points="317,-239 319,-241"/>
<text text-anchor="start" x="285.5" y="-229.8" font-family="Helvetica,sans-Serif" font-size="9.00">bin</text>
</a>
</g>
</g>
<!-- src/cli -->
<g id="node2" class="node">
<title>src/cli</title>
<g id="a_node2"><a xlink:href="https://github.com/sverweij/dependency-cruiser/blob/develop/src/cli" xlink:title="not&#45;reachable&#45;from&#45;folder&#45;index">
<polygon fill="#ccccff" stroke="blue" points="319,-189 267,-189 265,-187 265,-171 317,-171 319,-173 319,-189"/>
<polyline fill="none" stroke="blue" points="317,-187 265,-187"/>
<polyline fill="none" stroke="blue" points="317,-187 317,-171"/>
<polyline fill="none" stroke="blue" points="317,-187 319,-189"/>
<text text-anchor="start" x="287" y="-177.8" font-family="Helvetica,sans-Serif" font-size="9.00" fill="blue">cli</text>
</a>
</g>
</g>
<!-- bin/&#45;&gt;src/cli -->
<g id="edge1" class="edge">
<title>bin/&#45;&gt;src/cli</title>
<path fill="none" stroke="#0000ff" stroke-width="2" stroke-opacity="0.466667" d="M292,-222.94C292,-222.94 292,-195.3 292,-195.3"/>
<polygon fill="#0000ff" fill-opacity="0.466667" stroke="#0000ff" stroke-width="2" stroke-opacity="0.466667" points="294.1,-195.3 292,-189.3 289.9,-195.3 294.1,-195.3"/>
</g>
<!-- src/config&#45;utl -->
<g id="node4" class="node">
<title>src/config&#45;utl</title>
<g id="a_node4"><a xlink:href="https://github.com/sverweij/dependency-cruiser/blob/develop/src/config-utl" xlink:title="config&#45;utl">
<polygon fill="#99ffff" stroke="black" points="319,-158 267,-158 265,-156 265,-140 317,-140 319,-142 319,-158"/>
<polyline fill="none" stroke="black" points="317,-156 265,-156"/>
<polyline fill="none" stroke="black" points="317,-156 317,-140"/>
<polyline fill="none" stroke="black" points="317,-156 319,-158"/>
<text text-anchor="start" x="273" y="-146.8" font-family="Helvetica,sans-Serif" font-size="9.00">config&#45;utl</text>
</a>
</g>
</g>
<!-- src/cli&#45;&gt;src/config&#45;utl -->
<g id="edge2" class="edge">
<title>src/cli&#45;&gt;src/config&#45;utl</title>
<path fill="none" stroke="#229999" stroke-width="2" stroke-opacity="0.466667" d="M292,-170.87C292,-170.87 292,-164.18 292,-164.18"/>
<polygon fill="#229999" fill-opacity="0.466667" stroke="#229999" stroke-width="2" stroke-opacity="0.466667" points="294.1,-164.18 292,-158.18 289.9,-164.18 294.1,-164.18"/>
</g>
<!-- src/main -->
<g id="node5" class="node">
<title>src/main</title>
<g id="a_node5"><a xlink:href="https://github.com/sverweij/dependency-cruiser/blob/develop/src/main" xlink:title="main">
<polygon fill="#ffcccc" stroke="black" points="227,-127 175,-127 173,-125 173,-109 225,-109 227,-111 227,-127"/>
<polyline fill="none" stroke="black" points="225,-125 173,-125"/>
<polyline fill="none" stroke="black" points="225,-125 225,-109"/>
<polyline fill="none" stroke="black" points="225,-125 227,-127"/>
<text text-anchor="start" x="189.5" y="-115.8" font-family="Helvetica,sans-Serif" font-size="9.00">main</text>
</a>
</g>
</g>
<!-- src/cli&#45;&gt;src/main -->
<g id="edge3" class="edge">
<title>src/cli&#45;&gt;src/main</title>
<path fill="none" stroke="#770000" stroke-width="2" stroke-opacity="0.466667" d="M264.89,-180C237.76,-180 200,-180 200,-180 200,-180 200,-133.15 200,-133.15"/>
<polygon fill="#770000" fill-opacity="0.466667" stroke="#770000" stroke-width="2" stroke-opacity="0.466667" points="202.1,-133.15 200,-127.15 197.9,-133.15 202.1,-133.15"/>
</g>
<!-- src/utl -->
<g id="node6" class="node">
<title>src/utl</title>
<g id="a_node6"><a xlink:href="https://github.com/sverweij/dependency-cruiser/blob/develop/src/utl" xlink:title="utl&#45;module&#45;not&#45;shared&#45;enough">
<polygon fill="#cccccc" stroke="blue" points="282,-34 230,-34 228,-32 228,-16 280,-16 282,-18 282,-34"/>
<polyline fill="none" stroke="blue" points="280,-32 228,-32"/>
<polyline fill="none" stroke="blue" points="280,-32 280,-16"/>
<polyline fill="none" stroke="blue" points="280,-32 282,-34"/>
<text text-anchor="start" x="250" y="-22.8" font-family="Helvetica,sans-Serif" font-size="9.00" fill="blue">utl</text>
</a>
</g>
</g>
<!-- src/cli&#45;&gt;src/utl -->
<g id="edge4" class="edge">
<title>src/cli&#45;&gt;src/utl</title>
<path fill="none" stroke="#aaaaaa" stroke-width="2" stroke-opacity="0.466667" d="M319.13,-180C340.25,-180 366,-180 366,-180 366,-180 366,-22 366,-22 366,-22 288.15,-22 288.15,-22"/>
<polygon fill="#aaaaaa" fill-opacity="0.466667" stroke="#aaaaaa" stroke-width="2" stroke-opacity="0.466667" points="288.15,-19.9 282.15,-22 288.15,-24.1 288.15,-19.9"/>
</g>
<!-- src/cache -->
<g id="node3" class="node">
<title>src/cache</title>
<g id="a_node3"><a xlink:href="https://github.com/sverweij/dependency-cruiser/blob/develop/src/cache" xlink:title="cache">
<polygon fill="yellow" stroke="black" stroke-width="2" points="216,-96 164,-96 162,-94 162,-78 214,-78 216,-80 216,-96"/>
<polyline fill="none" stroke="black" stroke-width="2" points="214,-94 162,-94"/>
<polyline fill="none" stroke="black" stroke-width="2" points="214,-94 214,-78"/>
<polyline fill="none" stroke="black" stroke-width="2" points="214,-94 216,-96"/>
<text text-anchor="start" x="176.5" y="-84.8" font-family="Helvetica,sans-Serif" font-size="9.00">cache</text>
</a>
</g>
</g>
<!-- src/config&#45;utl&#45;&gt;src/main -->
<g id="edge6" class="edge">
<title>src/config&#45;utl&#45;&gt;src/main</title>
<path fill="none" stroke="#770000" stroke-width="2" stroke-opacity="0.466667" d="M273.5,-139.83C273.5,-131.67 273.5,-121 273.5,-121 273.5,-121 233.37,-121 233.37,-121"/>
<polygon fill="#770000" fill-opacity="0.466667" stroke="#770000" stroke-width="2" stroke-opacity="0.466667" points="233.37,-118.9 227.37,-121 233.37,-123.1 233.37,-118.9"/>
</g>
<!-- src/extract -->
<g id="node7" class="node">
<title>src/extract</title>
<g id="a_node7"><a xlink:href="https://github.com/sverweij/dependency-cruiser/blob/develop/src/extract" xlink:title="extract">
<polygon fill="#ccffcc" stroke="black" points="348,-96 296,-96 294,-94 294,-78 346,-78 348,-80 348,-96"/>
<polyline fill="none" stroke="black" points="346,-94 294,-94"/>
<polyline fill="none" stroke="black" points="346,-94 346,-78"/>
<polyline fill="none" stroke="black" points="346,-94 348,-96"/>
<text text-anchor="start" x="307" y="-84.8" font-family="Helvetica,sans-Serif" font-size="9.00">extract</text>
</a>
</g>
</g>
<!-- src/config&#45;utl&#45;&gt;src/extract -->
<g id="edge5" class="edge">
<title>src/config&#45;utl&#45;&gt;src/extract</title>
<path fill="none" stroke="#007700" stroke-width="2" stroke-opacity="0.466667" d="M310.67,-139.85C310.67,-139.85 310.67,-102.19 310.67,-102.19"/>
<polygon fill="#007700" fill-opacity="0.466667" stroke="#007700" stroke-width="2" stroke-opacity="0.466667" points="312.77,-102.19 310.67,-96.19 308.57,-102.19 312.77,-102.19"/>
</g>
<!-- src/main&#45;&gt;src/cache -->
<g id="edge12" class="edge">
<title>src/main&#45;&gt;src/cache</title>
<path fill="none" stroke="#000000" stroke-width="2" stroke-opacity="0.200000" d="M194.5,-108.87C194.5,-108.87 194.5,-102.18 194.5,-102.18"/>
<polygon fill="#000000" fill-opacity="0.200000" stroke="#000000" stroke-width="2" stroke-opacity="0.200000" points="196.6,-102.18 194.5,-96.18 192.4,-102.18 196.6,-102.18"/>
</g>
<!-- src/main&#45;&gt;src/extract -->
<g id="edge14" class="edge">
<title>src/main&#45;&gt;src/extract</title>
<path fill="none" stroke="#007700" stroke-width="2" stroke-opacity="0.466667" d="M227.15,-115C257.47,-115 302.33,-115 302.33,-115 302.33,-115 302.33,-102.17 302.33,-102.17"/>
<polygon fill="#007700" fill-opacity="0.466667" stroke="#007700" stroke-width="2" stroke-opacity="0.466667" points="304.43,-102.17 302.33,-96.17 300.23,-102.17 304.43,-102.17"/>
</g>
<!-- src/enrich -->
<g id="node8" class="node">
<title>src/enrich</title>
<g id="a_node8"><a xlink:href="https://github.com/sverweij/dependency-cruiser/blob/develop/src/enrich" xlink:title="enrich">
<polygon fill="#77eeaa" stroke="black" points="70,-96 18,-96 16,-94 16,-78 68,-78 70,-80 70,-96"/>
<polyline fill="none" stroke="black" points="68,-94 16,-94"/>
<polyline fill="none" stroke="black" points="68,-94 68,-78"/>
<polyline fill="none" stroke="black" points="68,-94 70,-96"/>
<text text-anchor="start" x="30" y="-84.8" font-family="Helvetica,sans-Serif" font-size="9.00">enrich</text>
</a>
</g>
</g>
<!-- src/main&#45;&gt;src/enrich -->
<g id="edge13" class="edge">
<title>src/main&#45;&gt;src/enrich</title>
<path fill="none" stroke="#007766" stroke-width="2" stroke-opacity="0.466667" d="M172.65,-121C127.67,-121 43,-121 43,-121 43,-121 43,-102.29 43,-102.29"/>
<polygon fill="#007766" fill-opacity="0.466667" stroke="#007766" stroke-width="2" stroke-opacity="0.466667" points="45.1,-102.29 43,-96.29 40.9,-102.29 45.1,-102.29"/>
</g>
<!-- src/graph&#45;utl -->
<g id="node10" class="node">
<title>src/graph&#45;utl</title>
<g id="a_node10"><a xlink:href="https://github.com/sverweij/dependency-cruiser/blob/develop/src/graph-utl" xlink:title="graph&#45;utl">
<polygon fill="#ffcccc" stroke="black" points="209,-65 157,-65 155,-63 155,-47 207,-47 209,-49 209,-65"/>
<polyline fill="none" stroke="black" points="207,-63 155,-63"/>
<polyline fill="none" stroke="black" points="207,-63 207,-47"/>
<polyline fill="none" stroke="black" points="207,-63 209,-65"/>
<text text-anchor="start" x="163.5" y="-53.8" font-family="Helvetica,sans-Serif" font-size="9.00">graph&#45;utl</text>
</a>
</g>
</g>
<!-- src/main&#45;&gt;src/graph&#45;utl -->
<g id="edge17" class="edge">
<title>src/main&#45;&gt;src/graph&#45;utl</title>
<path fill="none" stroke="#770000" stroke-width="2" stroke-opacity="0.466667" d="M219.67,-108.94C219.67,-92.62 219.67,-60 219.67,-60 219.67,-60 215.37,-60 215.37,-60"/>
<polygon fill="#770000" fill-opacity="0.466667" stroke="#770000" stroke-width="2" stroke-opacity="0.466667" points="215.37,-57.9 209.37,-60 215.37,-62.1 215.37,-57.9"/>
</g>
<!-- src/schema -->
<g id="node11" class="node">
<title>src/schema</title>
<g id="a_node11"><a xlink:href="https://github.com/sverweij/dependency-cruiser/blob/develop/src/schema" xlink:title="not&#45;unreachable&#45;from&#45;cli">
<polygon fill="#ccffcc" stroke="red" points="136,-96 84,-96 82,-94 82,-78 134,-78 136,-80 136,-96"/>
<polyline fill="none" stroke="red" points="134,-94 82,-94"/>
<polyline fill="none" stroke="red" points="134,-94 134,-78"/>
<polyline fill="none" stroke="red" points="134,-94 136,-96"/>
<text text-anchor="start" x="92.5" y="-84.8" font-family="Helvetica,sans-Serif" font-size="9.00" fill="red">schema</text>
</a>
</g>
</g>
<!-- src/main&#45;&gt;src/schema -->
<g id="edge15" class="edge">
<title>src/main&#45;&gt;src/schema</title>
<path fill="none" stroke="#000000" stroke-width="2" stroke-opacity="0.200000" d="M172.7,-115C145.89,-115 109,-115 109,-115 109,-115 109,-102.17 109,-102.17"/>
<polygon fill="#000000" fill-opacity="0.200000" stroke="#000000" stroke-width="2" stroke-opacity="0.200000" points="111.1,-102.17 109,-96.17 106.9,-102.17 111.1,-102.17"/>
</g>
<!-- src/report -->
<g id="node12" class="node">
<title>src/report</title>
<g id="a_node12"><a xlink:href="https://github.com/sverweij/dependency-cruiser/blob/develop/src/report" xlink:title="report">
<polygon fill="#ffccff" stroke="black" points="282,-96 230,-96 228,-94 228,-78 280,-78 282,-80 282,-96"/>
<polyline fill="none" stroke="black" points="280,-94 228,-94"/>
<polyline fill="none" stroke="black" points="280,-94 280,-78"/>
<polyline fill="none" stroke="black" points="280,-94 282,-96"/>
<text text-anchor="start" x="242.5" y="-84.8" font-family="Helvetica,sans-Serif" font-size="9.00">report</text>
</a>
</g>
</g>
<!-- src/main&#45;&gt;src/report -->
<g id="edge16" class="edge">
<title>src/main&#45;&gt;src/report</title>
<path fill="none" stroke="#ff00ff" stroke-width="2" stroke-opacity="0.466667" d="M223.33,-108.87C223.33,-99.72 223.33,-87 223.33,-87 223.33,-87 223.77,-87 223.77,-87"/>
<polygon fill="#ff00ff" fill-opacity="0.466667" stroke="#ff00ff" stroke-width="2" stroke-opacity="0.466667" points="221.74,-89.1 227.74,-87 221.74,-84.9 221.74,-89.1"/>
</g>
<!-- src/extract&#45;&gt;src/utl -->
<g id="edge11" class="edge">
<title>src/extract&#45;&gt;src/utl</title>
<path fill="none" stroke="#aaaaaa" stroke-width="2" stroke-opacity="0.466667" d="M330,-77.78C330,-61.19 330,-28 330,-28 330,-28 288.08,-28 288.08,-28"/>
<polygon fill="#aaaaaa" fill-opacity="0.466667" stroke="#aaaaaa" stroke-width="2" stroke-opacity="0.466667" points="288.08,-25.9 282.08,-28 288.08,-30.1 288.08,-25.9"/>
</g>
<!-- src/extract&#45;&gt;src/graph&#45;utl -->
<g id="edge10" class="edge">
<title>src/extract&#45;&gt;src/graph&#45;utl</title>
<path fill="none" stroke="#770000" stroke-width="2" stroke-opacity="0.466667" d="M312,-77.92C312,-67.25 312,-51 312,-51 312,-51 215.25,-51 215.25,-51"/>
<polygon fill="#770000" fill-opacity="0.466667" stroke="#770000" stroke-width="2" stroke-opacity="0.466667" points="215.25,-48.9 209.25,-51 215.25,-53.1 215.25,-48.9"/>
</g>
<!-- src/enrich&#45;&gt;src/utl -->
<g id="edge9" class="edge">
<title>src/enrich&#45;&gt;src/utl</title>
<path fill="none" stroke="#aaaaaa" stroke-width="2" stroke-opacity="0.466667" d="M34,-77.96C34,-60.1 34,-22 34,-22 34,-22 221.9,-22 221.9,-22"/>
<polygon fill="#aaaaaa" fill-opacity="0.466667" stroke="#aaaaaa" stroke-width="2" stroke-opacity="0.466667" points="221.9,-24.1 227.9,-22 221.9,-19.9 221.9,-24.1"/>
</g>
<!-- src/validate -->
<g id="node9" class="node">
<title>src/validate</title>
<g id="a_node9"><a xlink:href="https://github.com/sverweij/dependency-cruiser/blob/develop/src/validate" xlink:title="validate">
<polygon fill="#ccccff" stroke="black" points="127,-65 75,-65 73,-63 73,-47 125,-47 127,-49 127,-65"/>
<polyline fill="none" stroke="black" points="125,-63 73,-63"/>
<polyline fill="none" stroke="black" points="125,-63 125,-47"/>
<polyline fill="none" stroke="black" points="125,-63 127,-65"/>
<text text-anchor="start" x="83.5" y="-53.8" font-family="Helvetica,sans-Serif" font-size="9.00">validate</text>
</a>
</g>
</g>
<!-- src/enrich&#45;&gt;src/validate -->
<g id="edge7" class="edge">
<title>src/enrich&#45;&gt;src/validate</title>
<path fill="none" stroke="#0000ff" stroke-width="2" stroke-opacity="0.466667" d="M70.18,-87C74.46,-87 77.5,-87 77.5,-87 77.5,-87 77.5,-71.13 77.5,-71.13"/>
<polygon fill="#0000ff" fill-opacity="0.466667" stroke="#0000ff" stroke-width="2" stroke-opacity="0.466667" points="79.6,-71.13 77.5,-65.13 75.4,-71.13 79.6,-71.13"/>
</g>
<!-- src/enrich&#45;&gt;src/graph&#45;utl -->
<g id="edge8" class="edge">
<title>src/enrich&#45;&gt;src/graph&#45;utl</title>
<path fill="none" stroke="#770000" stroke-width="2" stroke-opacity="0.466667" d="M52,-77.88C52,-74.29 52,-71 52,-71 52,-71 158.5,-71 158.5,-71 158.5,-71 158.5,-70.42 158.5,-70.42"/>
<polygon fill="#770000" fill-opacity="0.466667" stroke="#770000" stroke-width="2" stroke-opacity="0.466667" points="160.6,-71.24 158.5,-65.24 156.4,-71.24 160.6,-71.24"/>
</g>
<!-- src/validate&#45;&gt;src/utl -->
<g id="edge20" class="edge">
<title>src/validate&#45;&gt;src/utl</title>
<path fill="none" stroke="#aaaaaa" stroke-width="2" stroke-opacity="0.466667" d="M100,-46.83C100,-38.67 100,-28 100,-28 100,-28 221.65,-28 221.65,-28"/>
<polygon fill="#aaaaaa" fill-opacity="0.466667" stroke="#aaaaaa" stroke-width="2" stroke-opacity="0.466667" points="221.65,-30.1 227.65,-28 221.65,-25.9 221.65,-30.1"/>
</g>
<!-- src/report&#45;&gt;src/utl -->
<g id="edge19" class="edge">
<title>src/report&#45;&gt;src/utl</title>
<path fill="none" stroke="#aaaaaa" stroke-width="2" stroke-opacity="0.466667" d="M264,-77.85C264,-77.85 264,-40.19 264,-40.19"/>
<polygon fill="#aaaaaa" fill-opacity="0.466667" stroke="#aaaaaa" stroke-width="2" stroke-opacity="0.466667" points="266.1,-40.19 264,-34.19 261.9,-40.19 266.1,-40.19"/>
</g>
<!-- src/report&#45;&gt;src/graph&#45;utl -->
<g id="edge18" class="edge">
<title>src/report&#45;&gt;src/graph&#45;utl</title>
<path fill="none" stroke="#770000" stroke-width="2" stroke-opacity="0.466667" d="M246,-77.87C246,-68.72 246,-56 246,-56 246,-56 215.14,-56 215.14,-56"/>
<polygon fill="#770000" fill-opacity="0.466667" stroke="#770000" stroke-width="2" stroke-opacity="0.466667" points="215.14,-53.9 209.14,-56 215.14,-58.1 215.14,-53.9"/>
</g>
</g>
</svg>
