<?xml version="1.0" encoding="UTF-8" standalone="no"?>
<!DOCTYPE svg PUBLIC "-//W3C//DTD SVG 1.1//EN"
 "http://www.w3.org/Graphics/SVG/1.1/DTD/svg11.dtd">
<!-- Generated by graphviz version 2.44.0 (20200408.0750)
 -->
<!-- Title: dependency&#45;cruiser output Pages: 1 -->
<svg width="1020pt" height="470pt"
 viewBox="0.00 0.00 1020.00 470.00" xmlns="http://www.w3.org/2000/svg" xmlns:xlink="http://www.w3.org/1999/xlink">
<g id="graph0" class="graph" transform="scale(1 1) rotate(0) translate(4 466)">
<title>dependency&#45;cruiser output</title>
<polygon fill="white" stroke="transparent" points="-4,4 -4,-466 1016,-466 1016,4 -4,4"/>
<g id="clust1" class="cluster">
<title>cluster_src</title>
<path fill="#ffffff" stroke="black" stroke-width="2" d="M20,-8C20,-8 992,-8 992,-8 998,-8 1004,-14 1004,-20 1004,-20 1004,-424 1004,-424 1004,-430 998,-436 992,-436 992,-436 20,-436 20,-436 14,-436 8,-430 8,-424 8,-424 8,-20 8,-20 8,-14 14,-8 20,-8"/>
<text text-anchor="middle" x="506" y="-424.8" font-family="Helvetica,sans-Serif" font-weight="bold" font-size="9.00">src</text>
</g>
<g id="clust2" class="cluster">
<title>cluster_src/cli</title>
<path fill="#ffffff" stroke="black" stroke-width="2" d="M141,-313.2C141,-313.2 345,-313.2 345,-313.2 351,-313.2 357,-319.2 357,-325.2 357,-325.2 357,-398 357,-398 357,-404 351,-410 345,-410 345,-410 141,-410 141,-410 135,-410 129,-404 129,-398 129,-398 129,-325.2 129,-325.2 129,-319.2 135,-313.2 141,-313.2"/>
<text text-anchor="middle" x="243" y="-398.8" font-family="Helvetica,sans-Serif" font-weight="bold" font-size="9.00">cli</text>
</g>
<g id="clust3" class="cluster">
<title>cluster_src/enrich</title>
<path fill="#ffffff" stroke="black" stroke-width="2" d="M694,-42C694,-42 908,-42 908,-42 914,-42 920,-48 920,-54 920,-54 920,-134.8 920,-134.8 920,-140.8 914,-146.8 908,-146.8 908,-146.8 694,-146.8 694,-146.8 688,-146.8 682,-140.8 682,-134.8 682,-134.8 682,-54 682,-54 682,-48 688,-42 694,-42"/>
<text text-anchor="middle" x="801" y="-135.6" font-family="Helvetica,sans-Serif" font-weight="bold" font-size="9.00">enrich</text>
</g>
<g id="clust4" class="cluster">
<title>cluster_src/enrich/derive</title>
<path fill="#ffffff" stroke="black" stroke-width="2" d="M702,-50C702,-50 900,-50 900,-50 906,-50 912,-56 912,-62 912,-62 912,-90 912,-90 912,-96 906,-102 900,-102 900,-102 702,-102 702,-102 696,-102 690,-96 690,-90 690,-90 690,-62 690,-62 690,-56 696,-50 702,-50"/>
<text text-anchor="middle" x="801" y="-90.8" font-family="Helvetica,sans-Serif" font-weight="bold" font-size="9.00">derive</text>
</g>
<g id="clust5" class="cluster">
<title>cluster_src/extract</title>
<path fill="#ffffff" stroke="black" stroke-width="2" d="M40,-154.8C40,-154.8 364,-154.8 364,-154.8 370,-154.8 376,-160.8 376,-166.8 376,-166.8 376,-293.2 376,-293.2 376,-299.2 370,-305.2 364,-305.2 364,-305.2 40,-305.2 40,-305.2 34,-305.2 28,-299.2 28,-293.2 28,-293.2 28,-166.8 28,-166.8 28,-160.8 34,-154.8 40,-154.8"/>
<text text-anchor="middle" x="202" y="-294" font-family="Helvetica,sans-Serif" font-weight="bold" font-size="9.00">extract</text>
</g>
<g id="clust6" class="cluster">
<title>cluster_src/extract/resolve</title>
<path fill="#ffffff" stroke="black" stroke-width="2" d="M48,-162.8C48,-162.8 168,-162.8 168,-162.8 174,-162.8 180,-168.8 180,-174.8 180,-174.8 180,-248.4 180,-248.4 180,-254.4 174,-260.4 168,-260.4 168,-260.4 48,-260.4 48,-260.4 42,-260.4 36,-254.4 36,-248.4 36,-248.4 36,-174.8 36,-174.8 36,-168.8 42,-162.8 48,-162.8"/>
<text text-anchor="middle" x="108" y="-249.2" font-family="Helvetica,sans-Serif" font-weight="bold" font-size="9.00">resolve</text>
</g>
<g id="clust7" class="cluster">
<title>cluster_src/main</title>
<path fill="#ffffff" stroke="black" stroke-width="2" d="M402,-215.6C402,-215.6 636,-215.6 636,-215.6 642,-215.6 648,-221.6 648,-227.6 648,-227.6 648,-346 648,-346 648,-352 642,-358 636,-358 636,-358 402,-358 402,-358 396,-358 390,-352 390,-346 390,-346 390,-227.6 390,-227.6 390,-221.6 396,-215.6 402,-215.6"/>
<text text-anchor="middle" x="519" y="-346.8" font-family="Helvetica,sans-Serif" font-weight="bold" font-size="9.00">main</text>
</g>
<g id="clust8" class="cluster">
<title>cluster_src/report</title>
<path fill="#ffffff" stroke="black" stroke-width="2" d="M396,-50C396,-50 656,-50 656,-50 662,-50 668,-56 668,-62 668,-62 668,-195.6 668,-195.6 668,-201.6 662,-207.6 656,-207.6 656,-207.6 396,-207.6 396,-207.6 390,-207.6 384,-201.6 384,-195.6 384,-195.6 384,-62 384,-62 384,-56 390,-50 396,-50"/>
<text text-anchor="middle" x="526" y="-196.4" font-family="Helvetica,sans-Serif" font-weight="bold" font-size="9.00">report</text>
</g>
<!-- bin -->
<g id="node1" class="node">
<title>bin</title>
<g id="a_node1"><a xlink:href="https://github.com/sverweij/dependency-cruiser/blob/develop/bin" xlink:title="bin">
<polygon fill="#ffffcc" stroke="black" points="291,-462 239,-462 237,-460 237,-444 289,-444 291,-446 291,-462"/>
<polyline fill="none" stroke="black" points="289,-460 237,-460 "/>
<polyline fill="none" stroke="black" points="289,-460 289,-444 "/>
<polyline fill="none" stroke="black" points="289,-460 291,-462 "/>
<text text-anchor="middle" x="264" y="-450.8" font-family="Helvetica,sans-Serif" font-size="9.00">bin</text>
</a>
</g>
</g>
<!-- src/cli -->
<!-- bin&#45;&gt;src/cli -->
<g id="edge1" class="edge">
<title>bin&#45;&gt;src/cli</title>
<path fill="none" stroke="#0000ff" stroke-width="2" stroke-opacity="0.466667" d="M243.4,-443.75C243.4,-443.75 243.4,-383.11 243.4,-383.11"/>
<polygon fill="#0000ff" fill-opacity="0.466667" stroke="#0000ff" stroke-width="2" stroke-opacity="0.466667" points="245.5,-383.11 243.4,-377.11 241.3,-383.11 245.5,-383.11"/>
</g>
<!-- src/cli/tools -->
<g id="node3" class="node">
<title>src/cli/tools</title>
<g id="a_node3"><a xlink:href="https://github.com/sverweij/dependency-cruiser/blob/develop/src/cli/tools" xlink:title="tools">
<polygon fill="#ccccff" stroke="black" points="312,-384 260,-384 258,-382 258,-366 310,-366 312,-368 312,-384"/>
<polyline fill="none" stroke="black" points="310,-382 258,-382 "/>
<polyline fill="none" stroke="black" points="310,-382 310,-366 "/>
<polyline fill="none" stroke="black" points="310,-382 312,-384 "/>
<text text-anchor="middle" x="285" y="-372.8" font-family="Helvetica,sans-Serif" font-size="9.00">tools</text>
</a>
</g>
</g>
<!-- bin&#45;&gt;src/cli/tools -->
<g id="edge2" class="edge">
<title>bin&#45;&gt;src/cli/tools</title>
<path fill="none" stroke="#0000ff" stroke-width="2" stroke-opacity="0.466667" d="M274.5,-443.75C274.5,-443.75 274.5,-390.24 274.5,-390.24"/>
<polygon fill="#0000ff" fill-opacity="0.466667" stroke="#0000ff" stroke-width="2" stroke-opacity="0.466667" points="276.6,-390.24 274.5,-384.24 272.4,-390.24 276.6,-390.24"/>
</g>
<!-- src/main -->
<!-- src/cli&#45;&gt;src/main -->
<g id="edge3" class="edge">
<title>src/cli&#45;&gt;src/main</title>
<path fill="none" stroke="#770000" stroke-width="2" stroke-opacity="0.466667" d="M244.6,-377.1C244.6,-385.2 244.6,-414 244.6,-414 244.6,-414 613.1,-414 613.1,-414 613.1,-414 613.1,-337.95 613.1,-337.95"/>
<polygon fill="#770000" fill-opacity="0.466667" stroke="#770000" stroke-width="2" stroke-opacity="0.466667" points="615.2,-337.95 613.1,-331.95 611,-337.95 615.2,-337.95"/>
</g>
<!-- src/cli/utl -->
<g id="node6" class="node">
<title>src/cli/utl</title>
<g id="a_node6"><a xlink:href="https://github.com/sverweij/dependency-cruiser/blob/develop/src/cli/utl" xlink:title="utl">
<polygon fill="#ccccff" stroke="black" points="349,-339.2 297,-339.2 295,-337.2 295,-321.2 347,-321.2 349,-323.2 349,-339.2"/>
<polyline fill="none" stroke="black" points="347,-337.2 295,-337.2 "/>
<polyline fill="none" stroke="black" points="347,-337.2 347,-321.2 "/>
<polyline fill="none" stroke="black" points="347,-337.2 349,-339.2 "/>
<text text-anchor="middle" x="322" y="-328" font-family="Helvetica,sans-Serif" font-size="9.00">utl</text>
</a>
</g>
</g>
<!-- src/cli&#45;&gt;src/cli/utl -->
<g id="edge4" class="edge">
<title>src/cli&#45;&gt;src/cli/utl</title>
<path fill="none" stroke="#0000ff" stroke-width="2" stroke-opacity="0.466667" d="M245.83,-375C248.17,-375 251.9,-375 251.9,-375 251.9,-375 251.9,-352 251.9,-352 251.9,-352 303.5,-352 303.5,-352 303.5,-352 303.5,-345.32 303.5,-345.32"/>
<polygon fill="#0000ff" fill-opacity="0.466667" stroke="#0000ff" stroke-width="2" stroke-opacity="0.466667" points="305.6,-345.32 303.5,-339.32 301.4,-345.32 305.6,-345.32"/>
</g>
<!-- src/cli/compile&#45;config -->
<g id="node7" class="node">
<title>src/cli/compile&#45;config</title>
<g id="a_node7"><a xlink:href="https://github.com/sverweij/dependency-cruiser/blob/develop/src/cli/compile-config" xlink:title="compile&#45;config">
<polygon fill="#ccccff" stroke="black" points="282.5,-339.2 207.5,-339.2 205.5,-337.2 205.5,-321.2 280.5,-321.2 282.5,-323.2 282.5,-339.2"/>
<polyline fill="none" stroke="black" points="280.5,-337.2 205.5,-337.2 "/>
<polyline fill="none" stroke="black" points="280.5,-337.2 280.5,-321.2 "/>
<polyline fill="none" stroke="black" points="280.5,-337.2 282.5,-339.2 "/>
<text text-anchor="middle" x="244" y="-328" font-family="Helvetica,sans-Serif" font-size="9.00">compile&#45;config</text>
</a>
</g>
</g>
<!-- src/cli&#45;&gt;src/cli/compile&#45;config -->
<g id="edge5" class="edge">
<title>src/cli&#45;&gt;src/cli/compile&#45;config</title>
<path fill="none" stroke="#0000ff" stroke-width="2" stroke-opacity="0.466667" d="M244.6,-373.08C244.6,-373.08 244.6,-345.54 244.6,-345.54"/>
<polygon fill="#0000ff" fill-opacity="0.466667" stroke="#0000ff" stroke-width="2" stroke-opacity="0.466667" points="246.7,-345.54 244.6,-339.54 242.5,-345.54 246.7,-345.54"/>
</g>
<!-- src/cli/init&#45;config -->
<g id="node8" class="node">
<title>src/cli/init&#45;config</title>
<g id="a_node8"><a xlink:href="https://github.com/sverweij/dependency-cruiser/blob/develop/src/cli/init-config" xlink:title="init&#45;config">
<polygon fill="#ccccff" stroke="black" points="193,-339.2 139,-339.2 137,-337.2 137,-321.2 191,-321.2 193,-323.2 193,-339.2"/>
<polyline fill="none" stroke="black" points="191,-337.2 137,-337.2 "/>
<polyline fill="none" stroke="black" points="191,-337.2 191,-321.2 "/>
<polyline fill="none" stroke="black" points="191,-337.2 193,-339.2 "/>
<text text-anchor="middle" x="165" y="-328" font-family="Helvetica,sans-Serif" font-size="9.00">init&#45;config</text>
</a>
</g>
</g>
<!-- src/cli&#45;&gt;src/cli/init&#45;config -->
<g id="edge6" class="edge">
<title>src/cli&#45;&gt;src/cli/init&#45;config</title>
<path fill="none" stroke="#0000ff" stroke-width="2" stroke-opacity="0.466667" d="M242.16,-375C229.47,-375 155.67,-375 155.67,-375 155.67,-375 155.67,-345.27 155.67,-345.27"/>
<polygon fill="#0000ff" fill-opacity="0.466667" stroke="#0000ff" stroke-width="2" stroke-opacity="0.466667" points="157.77,-345.27 155.67,-339.27 153.57,-345.27 157.77,-345.27"/>
</g>
<!-- src -->
<!-- src/main/resolve&#45;options -->
<g id="node10" class="node">
<title>src/main/resolve&#45;options</title>
<g id="a_node10"><a xlink:href="https://github.com/sverweij/dependency-cruiser/blob/develop/src/main/resolve-options" xlink:title="resolve&#45;options">
<polygon fill="#ffcccc" stroke="black" points="478,-286.4 400,-286.4 398,-284.4 398,-268.4 476,-268.4 478,-270.4 478,-286.4"/>
<polyline fill="none" stroke="black" points="476,-284.4 398,-284.4 "/>
<polyline fill="none" stroke="black" points="476,-284.4 476,-268.4 "/>
<polyline fill="none" stroke="black" points="476,-284.4 478,-286.4 "/>
<text text-anchor="middle" x="438" y="-275.2" font-family="Helvetica,sans-Serif" font-size="9.00">resolve&#45;options</text>
</a>
</g>
</g>
<!-- src/main&#45;&gt;src/main/resolve&#45;options -->
<g id="edge35" class="edge">
<title>src/main&#45;&gt;src/main/resolve&#45;options</title>
<path fill="none" stroke="#770000" stroke-width="2" stroke-opacity="0.466667" d="M612.02,-330C592.69,-330 438,-330 438,-330 438,-330 438,-292.56 438,-292.56"/>
<polygon fill="#770000" fill-opacity="0.466667" stroke="#770000" stroke-width="2" stroke-opacity="0.466667" points="440.1,-292.56 438,-286.56 435.9,-292.56 440.1,-292.56"/>
</g>
<!-- src/enrich -->
<!-- src/main&#45;&gt;src/enrich -->
<g id="edge28" class="edge">
<title>src/main&#45;&gt;src/enrich</title>
<path fill="none" stroke="#007766" stroke-width="2" stroke-opacity="0.466667" d="M614,-332.04C614,-333.73 614,-336 614,-336 614,-336 843.6,-336 843.6,-336 843.6,-336 843.6,-126.88 843.6,-126.88"/>
<polygon fill="#007766" fill-opacity="0.466667" stroke="#007766" stroke-width="2" stroke-opacity="0.466667" points="845.7,-126.88 843.6,-120.88 841.5,-126.88 845.7,-126.88"/>
</g>
<!-- src/extract -->
<!-- src/main&#45;&gt;src/extract -->
<g id="edge29" class="edge">
<title>src/main&#45;&gt;src/extract</title>
<path fill="none" stroke="#007700" stroke-width="2" stroke-opacity="0.466667" d="M613.4,-328.24C613.4,-326.42 613.4,-324 613.4,-324 613.4,-324 382,-324 382,-324 382,-324 382,-278 382,-278 382,-278 314.85,-278 314.85,-278"/>
<polygon fill="#007700" fill-opacity="0.466667" stroke="#007700" stroke-width="2" stroke-opacity="0.466667" points="314.85,-275.9 308.85,-278 314.85,-280.1 314.85,-275.9"/>
</g>
<!-- src/extract/transpile -->
<g id="node21" class="node">
<title>src/extract/transpile</title>
<g id="a_node21"><a xlink:href="https://github.com/sverweij/dependency-cruiser/blob/develop/src/extract/transpile" xlink:title="transpile">
<polygon fill="#ccffcc" stroke="black" points="362,-188.8 310,-188.8 308,-186.8 308,-170.8 360,-170.8 362,-172.8 362,-188.8"/>
<polyline fill="none" stroke="black" points="360,-186.8 308,-186.8 "/>
<polyline fill="none" stroke="black" points="360,-186.8 360,-170.8 "/>
<polyline fill="none" stroke="black" points="360,-186.8 362,-188.8 "/>
<text text-anchor="middle" x="335" y="-177.6" font-family="Helvetica,sans-Serif" font-size="9.00">transpile</text>
</a>
</g>
</g>
<!-- src/main&#45;&gt;src/extract/transpile -->
<g id="edge30" class="edge">
<title>src/main&#45;&gt;src/extract/transpile</title>
<path fill="none" stroke="#007700" stroke-width="2" stroke-opacity="0.466667" d="M612.37,-331C590.56,-331 358,-331 358,-331 358,-331 358,-194.81 358,-194.81"/>
<polygon fill="#007700" fill-opacity="0.466667" stroke="#007700" stroke-width="2" stroke-opacity="0.466667" points="360.1,-194.81 358,-188.81 355.9,-194.81 360.1,-194.81"/>
</g>
<!-- src/report -->
<!-- src/main&#45;&gt;src/report -->
<g id="edge31" class="edge">
<title>src/main&#45;&gt;src/report</title>
<path fill="none" stroke="#ff00ff" stroke-width="2" stroke-opacity="0.466667" d="M616.05,-330C631.72,-330 732,-330 732,-330 732,-330 732,-180 732,-180 732,-180 624.01,-180 624.01,-180"/>
<polygon fill="#ff00ff" fill-opacity="0.466667" stroke="#ff00ff" stroke-width="2" stroke-opacity="0.466667" points="624.01,-177.9 618.01,-180 624.01,-182.1 624.01,-177.9"/>
</g>
<!-- src/schema -->
<g id="node25" class="node">
<title>src/schema</title>
<g id="a_node25"><a xlink:href="https://github.com/sverweij/dependency-cruiser/blob/develop/src/schema" xlink:title="schema">
<polygon fill="#ffffcc" stroke="black" points="710,-241.6 658,-241.6 656,-239.6 656,-223.6 708,-223.6 710,-225.6 710,-241.6"/>
<polyline fill="none" stroke="black" points="708,-239.6 656,-239.6 "/>
<polyline fill="none" stroke="black" points="708,-239.6 708,-223.6 "/>
<polyline fill="none" stroke="black" points="708,-239.6 710,-241.6 "/>
<text text-anchor="middle" x="683" y="-230.4" font-family="Helvetica,sans-Serif" font-size="9.00">schema</text>
</a>
</g>
</g>
<!-- src/main&#45;&gt;src/schema -->
<g id="edge32" class="edge">
<title>src/main&#45;&gt;src/schema</title>
<path fill="none" stroke="#000000" stroke-width="2" stroke-opacity="0.200000" d="M614.9,-332.1C614.9,-333.05 614.9,-334 614.9,-334 614.9,-334 692,-334 692,-334 692,-334 692,-247.96 692,-247.96"/>
<polygon fill="#000000" fill-opacity="0.200000" stroke="#000000" stroke-width="2" stroke-opacity="0.200000" points="694.1,-247.96 692,-241.96 689.9,-247.96 694.1,-247.96"/>
</g>
<!-- src/main/files&#45;and&#45;dirs -->
<g id="node26" class="node">
<title>src/main/files&#45;and&#45;dirs</title>
<g id="a_node26"><a xlink:href="https://github.com/sverweij/dependency-cruiser/blob/develop/src/main/files-and-dirs" xlink:title="files&#45;and&#45;dirs">
<polygon fill="#ffcccc" stroke="black" points="626,-286.4 558,-286.4 556,-284.4 556,-268.4 624,-268.4 626,-270.4 626,-286.4"/>
<polyline fill="none" stroke="black" points="624,-284.4 556,-284.4 "/>
<polyline fill="none" stroke="black" points="624,-284.4 624,-268.4 "/>
<polyline fill="none" stroke="black" points="624,-284.4 626,-286.4 "/>
<text text-anchor="middle" x="591" y="-275.2" font-family="Helvetica,sans-Serif" font-size="9.00">files&#45;and&#45;dirs</text>
</a>
</g>
</g>
<!-- src/main&#45;&gt;src/main/files&#45;and&#45;dirs -->
<g id="edge33" class="edge">
<title>src/main&#45;&gt;src/main/files&#45;and&#45;dirs</title>
<path fill="none" stroke="#770000" stroke-width="2" stroke-opacity="0.466667" d="M614.6,-328.44C614.6,-328.44 614.6,-292.52 614.6,-292.52"/>
<polygon fill="#770000" fill-opacity="0.466667" stroke="#770000" stroke-width="2" stroke-opacity="0.466667" points="616.7,-292.52 614.6,-286.52 612.5,-292.52 616.7,-292.52"/>
</g>
<!-- src/main/options -->
<g id="node27" class="node">
<title>src/main/options</title>
<g id="a_node27"><a xlink:href="https://github.com/sverweij/dependency-cruiser/blob/develop/src/main/options" xlink:title="options">
<polygon fill="#ffcccc" stroke="black" points="640,-241.6 588,-241.6 586,-239.6 586,-223.6 638,-223.6 640,-225.6 640,-241.6"/>
<polyline fill="none" stroke="black" points="638,-239.6 586,-239.6 "/>
<polyline fill="none" stroke="black" points="638,-239.6 638,-223.6 "/>
<polyline fill="none" stroke="black" points="638,-239.6 640,-241.6 "/>
<text text-anchor="middle" x="613" y="-230.4" font-family="Helvetica,sans-Serif" font-size="9.00">options</text>
</a>
</g>
</g>
<!-- src/main&#45;&gt;src/main/options -->
<g id="edge34" class="edge">
<title>src/main&#45;&gt;src/main/options</title>
<path fill="none" stroke="#770000" stroke-width="2" stroke-opacity="0.466667" d="M615.49,-329C619.97,-329 633,-329 633,-329 633,-329 633,-247.84 633,-247.84"/>
<polygon fill="#770000" fill-opacity="0.466667" stroke="#770000" stroke-width="2" stroke-opacity="0.466667" points="635.1,-247.84 633,-241.84 630.9,-247.84 635.1,-247.84"/>
</g>
<!-- src/main/rule&#45;set -->
<g id="node28" class="node">
<title>src/main/rule&#45;set</title>
<g id="a_node28"><a xlink:href="https://github.com/sverweij/dependency-cruiser/blob/develop/src/main/rule-set" xlink:title="rule&#45;set">
<polygon fill="#ffcccc" stroke="black" points="544,-286.4 492,-286.4 490,-284.4 490,-268.4 542,-268.4 544,-270.4 544,-286.4"/>
<polyline fill="none" stroke="black" points="542,-284.4 490,-284.4 "/>
<polyline fill="none" stroke="black" points="542,-284.4 542,-268.4 "/>
<polyline fill="none" stroke="black" points="542,-284.4 544,-286.4 "/>
<text text-anchor="middle" x="517" y="-275.2" font-family="Helvetica,sans-Serif" font-size="9.00">rule&#45;set</text>
</a>
</g>
</g>
<!-- src/main&#45;&gt;src/main/rule&#45;set -->
<g id="edge36" class="edge">
<title>src/main&#45;&gt;src/main/rule&#45;set</title>
<path fill="none" stroke="#770000" stroke-width="2" stroke-opacity="0.466667" d="M612.63,-329C600.84,-329 517,-329 517,-329 517,-329 517,-292.86 517,-292.86"/>
<polygon fill="#770000" fill-opacity="0.466667" stroke="#770000" stroke-width="2" stroke-opacity="0.466667" points="519.1,-292.86 517,-286.86 514.9,-292.86 519.1,-292.86"/>
</g>
<!-- src/extract/resolve -->
<!-- src/cli/compile&#45;config&#45;&gt;src/extract/resolve -->
<g id="edge7" class="edge">
<title>src/cli/compile&#45;config&#45;&gt;src/extract/resolve</title>
<g id="a_edge7"><a xlink:title="cli&#45;to&#45;main&#45;only&#45;warn">
<path fill="none" stroke="orange" stroke-width="2" d="M223.5,-320.91C223.5,-306.9 223.5,-282 223.5,-282 223.5,-282 170,-282 170,-282 170,-282 170,-240.72 170,-240.72"/>
<polygon fill="orange" stroke="orange" stroke-width="2" points="172.1,-240.72 170,-234.72 167.9,-240.72 172.1,-240.72"/>
</a>
</g>
<text text-anchor="middle" x="152.06" y="-274.8" font-family="Helvetica,sans-Serif" font-size="9.00" fill="orange">cli&#45;to&#45;main&#45;only&#45;warn</text>
</g>
<!-- src/cli/compile&#45;config&#45;&gt;src/main/resolve&#45;options -->
<g id="edge8" class="edge">
<title>src/cli/compile&#45;config&#45;&gt;src/main/resolve&#45;options</title>
<path fill="none" stroke="#770000" stroke-width="2" stroke-opacity="0.466667" d="M271,-320.85C271,-307.35 271,-284 271,-284 271,-284 392,-284 392,-284"/>
<polygon fill="#770000" fill-opacity="0.466667" stroke="#770000" stroke-width="2" stroke-opacity="0.466667" points="392,-286.1 398,-284 392,-281.9 392,-286.1"/>
</g>
<!-- src/cli/init&#45;config&#45;&gt;src/cli -->
<g id="edge9" class="edge">
<title>src/cli/init&#45;config&#45;&gt;src/cli</title>
<path fill="none" stroke="#0000ff" stroke-width="2" stroke-opacity="0.466667" d="M174.33,-339.59C174.33,-351.08 174.33,-369 174.33,-369 174.33,-369 243.4,-369 243.4,-369 243.4,-369 243.4,-369.41 243.4,-369.41"/>
<polygon fill="#0000ff" fill-opacity="0.466667" stroke="#0000ff" stroke-width="2" stroke-opacity="0.466667" points="241.3,-367.1 243.4,-373.1 245.5,-367.1 241.3,-367.1"/>
</g>
<!-- src/utl -->
<g id="node11" class="node">
<title>src/utl</title>
<g id="a_node11"><a xlink:href="https://github.com/sverweij/dependency-cruiser/blob/develop/src/utl" xlink:title="utl">
<polygon fill="#cccccc" stroke="black" points="599,-34 547,-34 545,-32 545,-16 597,-16 599,-18 599,-34"/>
<polyline fill="none" stroke="black" points="597,-32 545,-32 "/>
<polyline fill="none" stroke="black" points="597,-32 597,-16 "/>
<polyline fill="none" stroke="black" points="597,-32 599,-34 "/>
<text text-anchor="middle" x="572" y="-22.8" font-family="Helvetica,sans-Serif" font-size="9.00">utl</text>
</a>
</g>
</g>
<!-- src/cli/init&#45;config&#45;&gt;src/utl -->
<g id="edge10" class="edge">
<title>src/cli/init&#45;config&#45;&gt;src/utl</title>
<path fill="none" stroke="#aaaaaa" stroke-width="2" stroke-opacity="0.466667" d="M177.5,-321.01C177.5,-269.89 177.5,-23 177.5,-23 177.5,-23 538.88,-23 538.88,-23"/>
<polygon fill="#aaaaaa" fill-opacity="0.466667" stroke="#aaaaaa" stroke-width="2" stroke-opacity="0.466667" points="538.88,-25.1 544.88,-23 538.88,-20.9 538.88,-25.1"/>
</g>
<!-- src/extract/resolve&#45;&gt;src/utl -->
<g id="edge25" class="edge">
<title>src/extract/resolve&#45;&gt;src/utl</title>
<path fill="none" stroke="#aaaaaa" stroke-width="2" stroke-opacity="0.466667" d="M167.96,-233C150.46,-233 26,-233 26,-233 26,-233 26,-19 26,-19 26,-19 538.92,-19 538.92,-19"/>
<polygon fill="#aaaaaa" fill-opacity="0.466667" stroke="#aaaaaa" stroke-width="2" stroke-opacity="0.466667" points="538.92,-21.1 544.92,-19 538.92,-16.9 538.92,-21.1"/>
</g>
<!-- src/extract/resolve/get&#45;manifest&#45;dependencies -->
<g id="node20" class="node">
<title>src/extract/resolve/get&#45;manifest&#45;dependencies</title>
<g id="a_node20"><a xlink:href="https://github.com/sverweij/dependency-cruiser/blob/develop/src/extract/resolve/get-manifest-dependencies" xlink:title="get&#45;manifest&#45;dependencies">
<polygon fill="#ccffcc" stroke="black" points="172,-188.8 46,-188.8 44,-186.8 44,-170.8 170,-170.8 172,-172.8 172,-188.8"/>
<polyline fill="none" stroke="black" points="170,-186.8 44,-186.8 "/>
<polyline fill="none" stroke="black" points="170,-186.8 170,-170.8 "/>
<polyline fill="none" stroke="black" points="170,-186.8 172,-188.8 "/>
<text text-anchor="middle" x="108" y="-177.6" font-family="Helvetica,sans-Serif" font-size="9.00">get&#45;manifest&#45;dependencies</text>
</a>
</g>
</g>
<!-- src/extract/resolve&#45;&gt;src/extract/resolve/get&#45;manifest&#45;dependencies -->
<g id="edge27" class="edge">
<title>src/extract/resolve&#45;&gt;src/extract/resolve/get&#45;manifest&#45;dependencies</title>
<path fill="none" stroke="#007700" stroke-width="2" stroke-opacity="0.466667" d="M170,-230.33C170,-230.33 170,-195.06 170,-195.06"/>
<polygon fill="#007700" fill-opacity="0.466667" stroke="#007700" stroke-width="2" stroke-opacity="0.466667" points="172.1,-195.06 170,-189.06 167.9,-195.06 172.1,-195.06"/>
</g>
<!-- src/extract/utl -->
<g id="node23" class="node">
<title>src/extract/utl</title>
<g id="a_node23"><a xlink:href="https://github.com/sverweij/dependency-cruiser/blob/develop/src/extract/utl" xlink:title="utl">
<polygon fill="#ccffcc" stroke="black" points="296,-188.8 244,-188.8 242,-186.8 242,-170.8 294,-170.8 296,-172.8 296,-188.8"/>
<polyline fill="none" stroke="black" points="294,-186.8 242,-186.8 "/>
<polyline fill="none" stroke="black" points="294,-186.8 294,-170.8 "/>
<polyline fill="none" stroke="black" points="294,-186.8 296,-188.8 "/>
<text text-anchor="middle" x="269" y="-177.6" font-family="Helvetica,sans-Serif" font-size="9.00">utl</text>
</a>
</g>
</g>
<!-- src/extract/resolve&#45;&gt;src/extract/utl -->
<g id="edge26" class="edge">
<title>src/extract/resolve&#45;&gt;src/extract/utl</title>
<path fill="none" stroke="#007700" stroke-width="2" stroke-opacity="0.466667" d="M172.03,-232C175.69,-232 183,-232 183,-232 183,-232 183,-179 183,-179 183,-179 235.79,-179 235.79,-179"/>
<polygon fill="#007700" fill-opacity="0.466667" stroke="#007700" stroke-width="2" stroke-opacity="0.466667" points="235.79,-181.1 241.79,-179 235.79,-176.9 235.79,-181.1"/>
</g>
<!-- src/main/resolve&#45;options&#45;&gt;src/extract/transpile -->
<g id="edge38" class="edge">
<title>src/main/resolve&#45;options&#45;&gt;src/extract/transpile</title>
<path fill="none" stroke="#007700" stroke-width="2" stroke-opacity="0.466667" d="M397.63,-270C378.6,-270 360,-270 360,-270 360,-270 360,-195.11 360,-195.11"/>
<polygon fill="#007700" fill-opacity="0.466667" stroke="#007700" stroke-width="2" stroke-opacity="0.466667" points="362.1,-195.11 360,-189.11 357.9,-195.11 362.1,-195.11"/>
</g>
<!-- src/enrich&#45;&gt;src/utl -->
<g id="edge11" class="edge">
<title>src/enrich&#45;&gt;src/utl</title>
<path fill="none" stroke="#aaaaaa" stroke-width="2" stroke-opacity="0.466667" d="M842.4,-117.04C842.4,-103.54 842.4,-25 842.4,-25 842.4,-25 605.17,-25 605.17,-25"/>
<polygon fill="#aaaaaa" fill-opacity="0.466667" stroke="#aaaaaa" stroke-width="2" stroke-opacity="0.466667" points="605.17,-22.9 599.17,-25 605.16,-27.1 605.17,-22.9"/>
</g>
<!-- src/enrich/derive/circular -->
<g id="node13" class="node">
<title>src/enrich/derive/circular</title>
<g id="a_node13"><a xlink:href="https://github.com/sverweij/dependency-cruiser/blob/develop/src/enrich/derive/circular" xlink:title="circular">
<polygon fill="#77eeaa" stroke="black" points="768,-76 716,-76 714,-74 714,-58 766,-58 768,-60 768,-76"/>
<polyline fill="none" stroke="black" points="766,-74 714,-74 "/>
<polyline fill="none" stroke="black" points="766,-74 766,-58 "/>
<polyline fill="none" stroke="black" points="766,-74 768,-76 "/>
<text text-anchor="middle" x="741" y="-64.8" font-family="Helvetica,sans-Serif" font-size="9.00">circular</text>
</a>
</g>
</g>
<!-- src/enrich&#45;&gt;src/enrich/derive/circular -->
<g id="edge12" class="edge">
<title>src/enrich&#45;&gt;src/enrich/derive/circular</title>
<path fill="none" stroke="#007766" stroke-width="2" stroke-opacity="0.466667" d="M842.4,-121.03C842.4,-122.42 842.4,-124 842.4,-124 842.4,-124 750,-124 750,-124 750,-124 750,-82.16 750,-82.16"/>
<polygon fill="#007766" fill-opacity="0.466667" stroke="#007766" stroke-width="2" stroke-opacity="0.466667" points="752.1,-82.16 750,-76.16 747.9,-82.16 752.1,-82.16"/>
</g>
<!-- src/enrich/derive/orphan -->
<g id="node14" class="node">
<title>src/enrich/derive/orphan</title>
<g id="a_node14"><a xlink:href="https://github.com/sverweij/dependency-cruiser/blob/develop/src/enrich/derive/orphan" xlink:title="orphan">
<polygon fill="#77eeaa" stroke="black" points="904,-76 852,-76 850,-74 850,-58 902,-58 904,-60 904,-76"/>
<polyline fill="none" stroke="black" points="902,-74 850,-74 "/>
<polyline fill="none" stroke="black" points="902,-74 902,-58 "/>
<polyline fill="none" stroke="black" points="902,-74 904,-76 "/>
<text text-anchor="middle" x="877" y="-64.8" font-family="Helvetica,sans-Serif" font-size="9.00">orphan</text>
</a>
</g>
</g>
<!-- src/enrich&#45;&gt;src/enrich/derive/orphan -->
<g id="edge13" class="edge">
<title>src/enrich&#45;&gt;src/enrich/derive/orphan</title>
<path fill="none" stroke="#007766" stroke-width="2" stroke-opacity="0.466667" d="M843.6,-117.27C843.6,-108.25 843.6,-67 843.6,-67 843.6,-67 844.21,-67 844.21,-67"/>
<polygon fill="#007766" fill-opacity="0.466667" stroke="#007766" stroke-width="2" stroke-opacity="0.466667" points="843.73,-69.1 849.73,-67 843.73,-64.9 843.73,-69.1"/>
</g>
<!-- src/enrich/derive/reachable -->
<g id="node15" class="node">
<title>src/enrich/derive/reachable</title>
<g id="a_node15"><a xlink:href="https://github.com/sverweij/dependency-cruiser/blob/develop/src/enrich/derive/reachable" xlink:title="reachable">
<polygon fill="#77eeaa" stroke="black" points="838,-76 782,-76 780,-74 780,-58 836,-58 838,-60 838,-76"/>
<polyline fill="none" stroke="black" points="836,-74 780,-74 "/>
<polyline fill="none" stroke="black" points="836,-74 836,-58 "/>
<polyline fill="none" stroke="black" points="836,-74 838,-76 "/>
<text text-anchor="middle" x="809" y="-64.8" font-family="Helvetica,sans-Serif" font-size="9.00">reachable</text>
</a>
</g>
</g>
<!-- src/enrich&#45;&gt;src/enrich/derive/reachable -->
<g id="edge14" class="edge">
<title>src/enrich&#45;&gt;src/enrich/derive/reachable</title>
<path fill="none" stroke="#007766" stroke-width="2" stroke-opacity="0.466667" d="M841.17,-119C834.11,-119 809,-119 809,-119 809,-119 809,-82.06 809,-82.06"/>
<polygon fill="#007766" fill-opacity="0.466667" stroke="#007766" stroke-width="2" stroke-opacity="0.466667" points="811.1,-82.06 809,-76.06 806.9,-82.06 811.1,-82.06"/>
</g>
<!-- src/validate -->
<g id="node16" class="node">
<title>src/validate</title>
<g id="a_node16"><a xlink:href="https://github.com/sverweij/dependency-cruiser/blob/develop/src/validate" xlink:title="validate">
<polygon fill="#ccccff" stroke="black" points="982,-76 930,-76 928,-74 928,-58 980,-58 982,-60 982,-76"/>
<polyline fill="none" stroke="black" points="980,-74 928,-74 "/>
<polyline fill="none" stroke="black" points="980,-74 980,-58 "/>
<polyline fill="none" stroke="black" points="980,-74 982,-76 "/>
<text text-anchor="middle" x="955" y="-64.8" font-family="Helvetica,sans-Serif" font-size="9.00">validate</text>
</a>
</g>
</g>
<!-- src/enrich&#45;&gt;src/validate -->
<g id="edge15" class="edge">
<title>src/enrich&#45;&gt;src/validate</title>
<path fill="none" stroke="#0000ff" stroke-width="2" stroke-opacity="0.466667" d="M844.94,-119C859.82,-119 955,-119 955,-119 955,-119 955,-82.06 955,-82.06"/>
<polygon fill="#0000ff" fill-opacity="0.466667" stroke="#0000ff" stroke-width="2" stroke-opacity="0.466667" points="957.1,-82.06 955,-76.06 952.9,-82.06 957.1,-82.06"/>
</g>
<!-- src/validate&#45;&gt;src/utl -->
<g id="edge51" class="edge">
<title>src/validate&#45;&gt;src/utl</title>
<path fill="none" stroke="#aaaaaa" stroke-width="2" stroke-opacity="0.466667" d="M955,-57.94C955,-44.28 955,-20 955,-20 955,-20 605.24,-20 605.24,-20"/>
<polygon fill="#aaaaaa" fill-opacity="0.466667" stroke="#aaaaaa" stroke-width="2" stroke-opacity="0.466667" points="605.24,-17.9 599.24,-20 605.24,-22.1 605.24,-17.9"/>
</g>
<!-- src/enrich/derive -->
<!-- src/extract&#45;&gt;src/extract/resolve -->
<g id="edge19" class="edge">
<title>src/extract&#45;&gt;src/extract/resolve</title>
<path fill="none" stroke="#007700" stroke-width="2" stroke-opacity="0.466667" d="M304.89,-278C286.76,-278 157.8,-278 157.8,-278 157.8,-278 157.8,-232 157.8,-232 157.8,-232 162.09,-232 162.09,-232"/>
<polygon fill="#007700" fill-opacity="0.466667" stroke="#007700" stroke-width="2" stroke-opacity="0.466667" points="162.09,-234.1 168.09,-232 162.09,-229.9 162.09,-234.1"/>
</g>
<!-- src/extract&#45;&gt;src/utl -->
<g id="edge16" class="edge">
<title>src/extract&#45;&gt;src/utl</title>
<path fill="none" stroke="#aaaaaa" stroke-width="2" stroke-opacity="0.466667" d="M307.6,-279.41C307.6,-285.44 307.6,-303 307.6,-303 307.6,-303 372,-303 372,-303 372,-303 372,-26 372,-26 372,-26 538.61,-26 538.61,-26"/>
<polygon fill="#aaaaaa" fill-opacity="0.466667" stroke="#aaaaaa" stroke-width="2" stroke-opacity="0.466667" points="538.61,-28.1 544.61,-26 538.61,-23.9 538.61,-28.1"/>
</g>
<!-- src/extract/parse -->
<g id="node19" class="node">
<title>src/extract/parse</title>
<g id="a_node19"><a xlink:href="https://github.com/sverweij/dependency-cruiser/blob/develop/src/extract/parse" xlink:title="parse">
<polygon fill="#ccffcc" stroke="black" points="354,-241.6 302,-241.6 300,-239.6 300,-223.6 352,-223.6 354,-225.6 354,-241.6"/>
<polyline fill="none" stroke="black" points="352,-239.6 300,-239.6 "/>
<polyline fill="none" stroke="black" points="352,-239.6 352,-223.6 "/>
<polyline fill="none" stroke="black" points="352,-239.6 354,-241.6 "/>
<text text-anchor="middle" x="327" y="-230.4" font-family="Helvetica,sans-Serif" font-size="9.00">parse</text>
</a>
</g>
</g>
<!-- src/extract&#45;&gt;src/extract/parse -->
<g id="edge17" class="edge">
<title>src/extract&#45;&gt;src/extract/parse</title>
<path fill="none" stroke="#007700" stroke-width="2" stroke-opacity="0.466667" d="M307.6,-275.48C307.6,-275.48 307.6,-247.94 307.6,-247.94"/>
<polygon fill="#007700" fill-opacity="0.466667" stroke="#007700" stroke-width="2" stroke-opacity="0.466667" points="309.7,-247.94 307.6,-241.94 305.5,-247.94 309.7,-247.94"/>
</g>
<!-- src/extract&#45;&gt;src/extract/resolve/get&#45;manifest&#45;dependencies -->
<g id="edge18" class="edge">
<title>src/extract&#45;&gt;src/extract/resolve/get&#45;manifest&#45;dependencies</title>
<path fill="none" stroke="#007700" stroke-width="2" stroke-opacity="0.466667" d="M306.4,-275.61C306.4,-274.39 306.4,-273 306.4,-273 306.4,-273 147.4,-273 147.4,-273 147.4,-273 147.4,-195.08 147.4,-195.08"/>
<polygon fill="#007700" fill-opacity="0.466667" stroke="#007700" stroke-width="2" stroke-opacity="0.466667" points="149.5,-195.08 147.4,-189.08 145.3,-195.08 149.5,-195.08"/>
</g>
<!-- src/extract&#45;&gt;src/extract/transpile -->
<g id="edge20" class="edge">
<title>src/extract&#45;&gt;src/extract/transpile</title>
<path fill="none" stroke="#007700" stroke-width="2" stroke-opacity="0.466667" d="M308.21,-276C315.76,-276 356,-276 356,-276 356,-276 356,-195.02 356,-195.02"/>
<polygon fill="#007700" fill-opacity="0.466667" stroke="#007700" stroke-width="2" stroke-opacity="0.466667" points="358.1,-195.02 356,-189.02 353.9,-195.02 358.1,-195.02"/>
</g>
<!-- src/extract/ast&#45;extractors -->
<g id="node22" class="node">
<title>src/extract/ast&#45;extractors</title>
<g id="a_node22"><a xlink:href="https://github.com/sverweij/dependency-cruiser/blob/develop/src/extract/ast-extractors" xlink:title="ast&#45;extractors">
<polygon fill="#ccffcc" stroke="black" points="259.5,-241.6 190.5,-241.6 188.5,-239.6 188.5,-223.6 257.5,-223.6 259.5,-225.6 259.5,-241.6"/>
<polyline fill="none" stroke="black" points="257.5,-239.6 188.5,-239.6 "/>
<polyline fill="none" stroke="black" points="257.5,-239.6 257.5,-223.6 "/>
<polyline fill="none" stroke="black" points="257.5,-239.6 259.5,-241.6 "/>
<text text-anchor="middle" x="224" y="-230.4" font-family="Helvetica,sans-Serif" font-size="9.00">ast&#45;extractors</text>
</a>
</g>
</g>
<!-- src/extract&#45;&gt;src/extract/ast&#45;extractors -->
<g id="edge21" class="edge">
<title>src/extract&#45;&gt;src/extract/ast&#45;extractors</title>
<path fill="none" stroke="#007700" stroke-width="2" stroke-opacity="0.466667" d="M305.86,-276C297.17,-276 241.5,-276 241.5,-276 241.5,-276 241.5,-247.8 241.5,-247.8"/>
<polygon fill="#007700" fill-opacity="0.466667" stroke="#007700" stroke-width="2" stroke-opacity="0.466667" points="243.6,-247.8 241.5,-241.8 239.4,-247.8 243.6,-247.8"/>
</g>
<!-- src/extract&#45;&gt;src/extract/utl -->
<g id="edge22" class="edge">
<title>src/extract&#45;&gt;src/extract/utl</title>
<path fill="none" stroke="#007700" stroke-width="2" stroke-opacity="0.466667" d="M306.4,-279.2C306.4,-280.1 306.4,-281 306.4,-281 306.4,-281 288.75,-281 288.75,-281 288.75,-281 288.75,-195.14 288.75,-195.14"/>
<polygon fill="#007700" fill-opacity="0.466667" stroke="#007700" stroke-width="2" stroke-opacity="0.466667" points="290.85,-195.14 288.75,-189.14 286.65,-195.14 290.85,-195.14"/>
</g>
<!-- src/extract/parse&#45;&gt;src/extract/transpile -->
<g id="edge23" class="edge">
<title>src/extract/parse&#45;&gt;src/extract/transpile</title>
<path fill="none" stroke="#007700" stroke-width="2" stroke-opacity="0.466667" d="M331,-223.4C331,-223.4 331,-194.89 331,-194.89"/>
<polygon fill="#007700" fill-opacity="0.466667" stroke="#007700" stroke-width="2" stroke-opacity="0.466667" points="333.1,-194.89 331,-188.89 328.9,-194.89 333.1,-194.89"/>
</g>
<!-- src/extract/parse&#45;&gt;src/extract/utl -->
<g id="edge24" class="edge">
<title>src/extract/parse&#45;&gt;src/extract/utl</title>
<path fill="none" stroke="#007700" stroke-width="2" stroke-opacity="0.466667" d="M304,-223.26C304,-207.91 304,-179 304,-179 304,-179 302.23,-179 302.23,-179"/>
<polygon fill="#007700" fill-opacity="0.466667" stroke="#007700" stroke-width="2" stroke-opacity="0.466667" points="302.23,-176.9 296.23,-179 302.23,-181.1 302.23,-176.9"/>
</g>
<!-- src/report&#45;&gt;src/utl -->
<g id="edge46" class="edge">
<title>src/report&#45;&gt;src/utl</title>
<path fill="none" stroke="#aaaaaa" stroke-width="2" stroke-opacity="0.466667" d="M615.4,-177.96C615.4,-176.27 615.4,-174 615.4,-174 615.4,-174 649.33,-174 649.33,-174 649.33,-174 649.33,-29 649.33,-29 649.33,-29 605.05,-29 605.05,-29"/>
<polygon fill="#aaaaaa" fill-opacity="0.466667" stroke="#aaaaaa" stroke-width="2" stroke-opacity="0.466667" points="605.05,-26.9 599.05,-29 605.05,-31.1 605.05,-26.9"/>
</g>
<!-- src/report/anon -->
<g id="node29" class="node">
<title>src/report/anon</title>
<g id="a_node29"><a xlink:href="https://github.com/sverweij/dependency-cruiser/blob/develop/src/report/anon" xlink:title="anon">
<polygon fill="#ffccff" stroke="black" points="446,-128 394,-128 392,-126 392,-110 444,-110 446,-112 446,-128"/>
<polyline fill="none" stroke="black" points="444,-126 392,-126 "/>
<polyline fill="none" stroke="black" points="444,-126 444,-110 "/>
<polyline fill="none" stroke="black" points="444,-126 446,-128 "/>
<text text-anchor="middle" x="419" y="-116.8" font-family="Helvetica,sans-Serif" font-size="9.00">anon</text>
</a>
</g>
</g>
<!-- src/report&#45;&gt;src/report/anon -->
<g id="edge41" class="edge">
<title>src/report&#45;&gt;src/report/anon</title>
<path fill="none" stroke="#ff00ff" stroke-width="2" stroke-opacity="0.466667" d="M616.6,-181.92C616.6,-183.35 616.6,-185 616.6,-185 616.6,-185 422,-185 422,-185 422,-185 422,-134.18 422,-134.18"/>
<polygon fill="#ff00ff" fill-opacity="0.466667" stroke="#ff00ff" stroke-width="2" stroke-opacity="0.466667" points="424.1,-134.18 422,-128.18 419.9,-134.18 424.1,-134.18"/>
</g>
<!-- src/report/dot -->
<g id="node30" class="node">
<title>src/report/dot</title>
<g id="a_node30"><a xlink:href="https://github.com/sverweij/dependency-cruiser/blob/develop/src/report/dot" xlink:title="dot">
<polygon fill="#ffccff" stroke="black" points="512,-128 460,-128 458,-126 458,-110 510,-110 512,-112 512,-128"/>
<polyline fill="none" stroke="black" points="510,-126 458,-126 "/>
<polyline fill="none" stroke="black" points="510,-126 510,-110 "/>
<polyline fill="none" stroke="black" points="510,-126 512,-128 "/>
<text text-anchor="middle" x="485" y="-116.8" font-family="Helvetica,sans-Serif" font-size="9.00">dot</text>
</a>
</g>
</g>
<!-- src/report&#45;&gt;src/report/dot -->
<g id="edge42" class="edge">
<title>src/report&#45;&gt;src/report/dot</title>
<path fill="none" stroke="#ff00ff" stroke-width="2" stroke-opacity="0.466667" d="M614,-180C598.73,-180 501,-180 501,-180 501,-180 501,-134 501,-134"/>
<polygon fill="#ff00ff" fill-opacity="0.466667" stroke="#ff00ff" stroke-width="2" stroke-opacity="0.466667" points="503.1,-134 501,-128 498.9,-134 503.1,-134"/>
</g>
<!-- src/report/error&#45;html -->
<g id="node31" class="node">
<title>src/report/error&#45;html</title>
<g id="a_node31"><a xlink:href="https://github.com/sverweij/dependency-cruiser/blob/develop/src/report/error-html" xlink:title="error&#45;html">
<polygon fill="#ffccff" stroke="black" points="580,-128 526,-128 524,-126 524,-110 578,-110 580,-112 580,-128"/>
<polyline fill="none" stroke="black" points="578,-126 524,-126 "/>
<polyline fill="none" stroke="black" points="578,-126 578,-110 "/>
<polyline fill="none" stroke="black" points="578,-126 580,-128 "/>
<text text-anchor="middle" x="552" y="-116.8" font-family="Helvetica,sans-Serif" font-size="9.00">error&#45;html</text>
</a>
</g>
</g>
<!-- src/report&#45;&gt;src/report/error&#45;html -->
<g id="edge43" class="edge">
<title>src/report&#45;&gt;src/report/error&#45;html</title>
<path fill="none" stroke="#ff00ff" stroke-width="2" stroke-opacity="0.466667" d="M613.94,-179C604.75,-179 568,-179 568,-179 568,-179 568,-134.11 568,-134.11"/>
<polygon fill="#ff00ff" fill-opacity="0.466667" stroke="#ff00ff" stroke-width="2" stroke-opacity="0.466667" points="570.1,-134.11 568,-128.11 565.9,-134.11 570.1,-134.11"/>
</g>
<!-- src/report/html -->
<g id="node32" class="node">
<title>src/report/html</title>
<g id="a_node32"><a xlink:href="https://github.com/sverweij/dependency-cruiser/blob/develop/src/report/html" xlink:title="html">
<polygon fill="#ffccff" stroke="black" points="646,-128 594,-128 592,-126 592,-110 644,-110 646,-112 646,-128"/>
<polyline fill="none" stroke="black" points="644,-126 592,-126 "/>
<polyline fill="none" stroke="black" points="644,-126 644,-110 "/>
<polyline fill="none" stroke="black" points="644,-126 646,-128 "/>
<text text-anchor="middle" x="619" y="-116.8" font-family="Helvetica,sans-Serif" font-size="9.00">html</text>
</a>
</g>
</g>
<!-- src/report&#45;&gt;src/report/html -->
<g id="edge44" class="edge">
<title>src/report&#45;&gt;src/report/html</title>
<path fill="none" stroke="#ff00ff" stroke-width="2" stroke-opacity="0.466667" d="M616.6,-178.05C616.6,-178.05 616.6,-134.21 616.6,-134.21"/>
<polygon fill="#ff00ff" fill-opacity="0.466667" stroke="#ff00ff" stroke-width="2" stroke-opacity="0.466667" points="618.7,-134.21 616.6,-128.21 614.5,-134.21 618.7,-134.21"/>
</g>
<!-- src/report/utl -->
<g id="node33" class="node">
<title>src/report/utl</title>
<g id="a_node33"><a xlink:href="https://github.com/sverweij/dependency-cruiser/blob/develop/src/report/utl" xlink:title="utl">
<polygon fill="#ffccff" stroke="black" points="579,-76 527,-76 525,-74 525,-58 577,-58 579,-60 579,-76"/>
<polyline fill="none" stroke="black" points="577,-74 525,-74 "/>
<polyline fill="none" stroke="black" points="577,-74 577,-58 "/>
<polyline fill="none" stroke="black" points="577,-74 579,-76 "/>
<text text-anchor="middle" x="552" y="-64.8" font-family="Helvetica,sans-Serif" font-size="9.00">utl</text>
</a>
</g>
</g>
<!-- src/report&#45;&gt;src/report/utl -->
<g id="edge45" class="edge">
<title>src/report&#45;&gt;src/report/utl</title>
<path fill="none" stroke="#ff00ff" stroke-width="2" stroke-opacity="0.466667" d="M617.97,-179C625.59,-179 652.67,-179 652.67,-179 652.67,-179 652.67,-71 652.67,-71 652.67,-71 585.24,-71 585.24,-71"/>
<polygon fill="#ff00ff" fill-opacity="0.466667" stroke="#ff00ff" stroke-width="2" stroke-opacity="0.466667" points="585.24,-68.9 579.24,-71 585.24,-73.1 585.24,-68.9"/>
</g>
<!-- src/main/options&#45;&gt;src/report -->
<g id="edge37" class="edge">
<title>src/main/options&#45;&gt;src/report</title>
<path fill="none" stroke="#ff00ff" stroke-width="2" stroke-opacity="0.466667" d="M615.4,-223.4C615.4,-223.4 615.4,-187.73 615.4,-187.73"/>
<polygon fill="#ff00ff" fill-opacity="0.466667" stroke="#ff00ff" stroke-width="2" stroke-opacity="0.466667" points="617.5,-187.73 615.4,-181.73 613.3,-187.73 617.5,-187.73"/>
</g>
<!-- src/main/rule&#45;set&#45;&gt;src/schema -->
<g id="edge39" class="edge">
<title>src/main/rule&#45;set&#45;&gt;src/schema</title>
<path fill="none" stroke="#000000" stroke-width="2" stroke-opacity="0.200000" d="M530.67,-268.29C530.67,-262.09 530.67,-255 530.67,-255 530.67,-255 674,-255 674,-255 674,-255 674,-247.71 674,-247.71"/>
<polygon fill="#000000" fill-opacity="0.200000" stroke="#000000" stroke-width="2" stroke-opacity="0.200000" points="676.1,-247.71 674,-241.71 671.9,-247.71 676.1,-247.71"/>
</g>
<!-- src/main/rule&#45;set&#45;&gt;src/main/options -->
<g id="edge40" class="edge">
<title>src/main/rule&#45;set&#45;&gt;src/main/options</title>
<path fill="none" stroke="#770000" stroke-width="2" stroke-opacity="0.466667" d="M537.33,-268.21C537.33,-254.95 537.33,-232 537.33,-232 537.33,-232 579.68,-232 579.68,-232"/>
<polygon fill="#770000" fill-opacity="0.466667" stroke="#770000" stroke-width="2" stroke-opacity="0.466667" points="579.68,-234.1 585.68,-232 579.68,-229.9 579.68,-234.1"/>
</g>
<!-- src/report/dot&#45;&gt;src/utl -->
<g id="edge47" class="edge">
<title>src/report/dot&#45;&gt;src/utl</title>
<path fill="none" stroke="#aaaaaa" stroke-width="2" stroke-opacity="0.466667" d="M476,-109.81C476,-87.07 476,-30 476,-30 476,-30 538.75,-30 538.75,-30"/>
<polygon fill="#aaaaaa" fill-opacity="0.466667" stroke="#aaaaaa" stroke-width="2" stroke-opacity="0.466667" points="538.75,-32.1 544.75,-30 538.75,-27.9 538.75,-32.1"/>
</g>
<!-- src/report/dot&#45;&gt;src/report/utl -->
<g id="edge48" class="edge">
<title>src/report/dot&#45;&gt;src/report/utl</title>
<path fill="none" stroke="#ff00ff" stroke-width="2" stroke-opacity="0.466667" d="M494,-109.94C494,-95.04 494,-67 494,-67 494,-67 518.7,-67 518.7,-67"/>
<polygon fill="#ff00ff" fill-opacity="0.466667" stroke="#ff00ff" stroke-width="2" stroke-opacity="0.466667" points="518.7,-69.1 524.7,-67 518.7,-64.9 518.7,-69.1"/>
</g>
<!-- src/report/html&#45;&gt;src/report/utl -->
<g id="edge49" class="edge">
<title>src/report/html&#45;&gt;src/report/utl</title>
<path fill="none" stroke="#ff00ff" stroke-width="2" stroke-opacity="0.466667" d="M595.5,-109.69C595.5,-96.25 595.5,-73 595.5,-73 595.5,-73 585.3,-73 585.3,-73"/>
<polygon fill="#ff00ff" fill-opacity="0.466667" stroke="#ff00ff" stroke-width="2" stroke-opacity="0.466667" points="585.3,-70.9 579.3,-73 585.3,-75.1 585.3,-70.9"/>
</g>
<!-- src/report/utl&#45;&gt;src/utl -->
<g id="edge50" class="edge">
<title>src/report/utl&#45;&gt;src/utl</title>
<path fill="none" stroke="#aaaaaa" stroke-width="2" stroke-opacity="0.466667" d="M562,-57.68C562,-57.68 562,-40.01 562,-40.01"/>
<polygon fill="#aaaaaa" fill-opacity="0.466667" stroke="#aaaaaa" stroke-width="2" stroke-opacity="0.466667" points="564.1,-40.01 562,-34.01 559.9,-40.01 564.1,-40.01"/>
</g>
</g>
</svg>
