<?xml version="1.0" encoding="UTF-8" standalone="no"?>
<!DOCTYPE svg PUBLIC "-//W3C//DTD SVG 1.1//EN"
 "http://www.w3.org/Graphics/SVG/1.1/DTD/svg11.dtd">
<!-- Generated by graphviz version 7.0.5 (20221223.1930)
 -->
<!-- Title: dependency&#45;cruiser output Pages: 1 -->
<svg width="310pt" height="249pt"
 viewBox="0.00 0.00 310.00 249.00" xmlns="http://www.w3.org/2000/svg" xmlns:xlink="http://www.w3.org/1999/xlink">
<g id="graph0" class="graph" transform="scale(1 1) rotate(0) translate(4 245)">
<title>dependency&#45;cruiser output</title>
<polygon fill="white" stroke="none" points="-4,4 -4,-245 306,-245 306,4 -4,4"/>
<g id="clust1" class="cluster">
<title>cluster_src</title>
<path fill="#ffffff" stroke="black" stroke-width="2" d="M20,-8C20,-8 282,-8 282,-8 288,-8 294,-14 294,-20 294,-20 294,-203 294,-203 294,-209 288,-215 282,-215 282,-215 20,-215 20,-215 14,-215 8,-209 8,-203 8,-203 8,-20 8,-20 8,-14 14,-8 20,-8"/>
<text text-anchor="middle" x="151" y="-203.8" font-family="Helvetica,sans-Serif" font-weight="bold" font-size="9.00">src</text>
</g>
<!-- bin/ -->
<g id="node1" class="node">
<title>bin/</title>
<g id="a_node1"><a xlink:href="https://github.com/sverweij/dependency-cruiser/blob/develop/bin/" xlink:title="bin">
<polygon fill="#ffffcc" stroke="black" points="158,-241 106,-241 104,-239 104,-223 156,-223 158,-225 158,-241"/>
<polyline fill="none" stroke="black" points="156,-239 104,-239"/>
<polyline fill="none" stroke="black" points="156,-239 156,-223"/>
<polyline fill="none" stroke="black" points="156,-239 158,-241"/>
<text text-anchor="start" x="124.5" y="-229.8" font-family="Helvetica,sans-Serif" font-size="9.00">bin</text>
</a>
</g>
</g>
<!-- src/cli -->
<g id="node2" class="node">
<title>src/cli</title>
<g id="a_node2"><a xlink:href="https://github.com/sverweij/dependency-cruiser/blob/develop/src/cli" xlink:title="not&#45;reachable&#45;from&#45;folder&#45;index">
<polygon fill="#ccccff" stroke="blue" points="158,-189 106,-189 104,-187 104,-171 156,-171 158,-173 158,-189"/>
<polyline fill="none" stroke="blue" points="156,-187 104,-187"/>
<polyline fill="none" stroke="blue" points="156,-187 156,-171"/>
<polyline fill="none" stroke="blue" points="156,-187 158,-189"/>
<text text-anchor="start" x="126" y="-177.8" font-family="Helvetica,sans-Serif" font-size="9.00" fill="blue">cli</text>
</a>
</g>
</g>
<!-- bin/&#45;&gt;src/cli -->
<g id="edge1" class="edge">
<title>bin/&#45;&gt;src/cli</title>
<path fill="none" stroke="#0000ff" stroke-width="2" stroke-opacity="0.466667" d="M131,-222.94C131,-222.94 131,-198.33 131,-198.33"/>
<polygon fill="#0000ff" fill-opacity="0.466667" stroke="#0000ff" stroke-width="2" stroke-opacity="0.466667" points="133.1,-198.33 131,-192.33 128.9,-198.33 133.1,-198.33"/>
</g>
<!-- src/extract -->
<g id="node4" class="node">
<title>src/extract</title>
<g id="a_node4"><a xlink:href="https://github.com/sverweij/dependency-cruiser/blob/develop/src/extract" xlink:title="extract">
<polygon fill="#ccffcc" stroke="black" points="112,-65 60,-65 58,-63 58,-47 110,-47 112,-49 112,-65"/>
<polyline fill="none" stroke="black" points="110,-63 58,-63"/>
<polyline fill="none" stroke="black" points="110,-63 110,-47"/>
<polyline fill="none" stroke="black" points="110,-63 112,-65"/>
<text text-anchor="start" x="71" y="-53.8" font-family="Helvetica,sans-Serif" font-size="9.00">extract</text>
</a>
</g>
</g>
<!-- src/cli&#45;&gt;src/extract -->
<g id="edge5" class="edge">
<title>src/cli&#45;&gt;src/extract</title>
<path fill="none" stroke="#007700" stroke-width="2" stroke-opacity="0.466667" d="M103.7,-180C76.89,-180 40,-180 40,-180 40,-180 40,-56 40,-56 40,-56 48.5,-56 48.5,-56"/>
<polygon fill="#007700" fill-opacity="0.466667" stroke="#007700" stroke-width="2" stroke-opacity="0.466667" points="48.5,-58.1 54.5,-56 48.5,-53.9 48.5,-58.1"/>
</g>
<!-- src/config&#45;utl -->
<g id="node5" class="node">
<title>src/config&#45;utl</title>
<g id="a_node5"><a xlink:href="https://github.com/sverweij/dependency-cruiser/blob/develop/src/config-utl" xlink:title="config&#45;utl">
<polygon fill="#99ffff" stroke="black" points="138,-158 86,-158 84,-156 84,-140 136,-140 138,-142 138,-158"/>
<polyline fill="none" stroke="black" points="136,-156 84,-156"/>
<polyline fill="none" stroke="black" points="136,-156 136,-140"/>
<polyline fill="none" stroke="black" points="136,-156 138,-158"/>
<text text-anchor="start" x="92" y="-146.8" font-family="Helvetica,sans-Serif" font-size="9.00">config&#45;utl</text>
</a>
</g>
</g>
<!-- src/cli&#45;&gt;src/config&#45;utl -->
<g id="edge3" class="edge">
<title>src/cli&#45;&gt;src/config&#45;utl</title>
<path fill="none" stroke="#229999" stroke-width="2" stroke-opacity="0.466667" d="M121,-170.53C121,-170.53 121,-167.44 121,-167.44"/>
<polygon fill="#229999" fill-opacity="0.466667" stroke="#229999" stroke-width="2" stroke-opacity="0.466667" points="123.1,-167.44 121,-161.44 118.9,-167.44 123.1,-167.44"/>
</g>
<!-- src/main -->
<g id="node6" class="node">
<title>src/main</title>
<g id="a_node6"><a xlink:href="https://github.com/sverweij/dependency-cruiser/blob/develop/src/main" xlink:title="main">
<polygon fill="#ffcccc" stroke="black" points="178,-127 126,-127 124,-125 124,-109 176,-109 178,-111 178,-127"/>
<polyline fill="none" stroke="black" points="176,-125 124,-125"/>
<polyline fill="none" stroke="black" points="176,-125 176,-109"/>
<polyline fill="none" stroke="black" points="176,-125 178,-127"/>
<text text-anchor="start" x="140.5" y="-115.8" font-family="Helvetica,sans-Serif" font-size="9.00">main</text>
</a>
</g>
</g>
<!-- src/cli&#45;&gt;src/main -->
<g id="edge4" class="edge">
<title>src/cli&#45;&gt;src/main</title>
<path fill="none" stroke="#770000" stroke-width="2" stroke-opacity="0.466667" d="M148,-170.58C148,-170.58 148,-136.13 148,-136.13"/>
<polygon fill="#770000" fill-opacity="0.466667" stroke="#770000" stroke-width="2" stroke-opacity="0.466667" points="150.1,-136.13 148,-130.13 145.9,-136.13 150.1,-136.13"/>
</g>
<!-- src/utl -->
<g id="node7" class="node">
<title>src/utl</title>
<g id="a_node7"><a xlink:href="https://github.com/sverweij/dependency-cruiser/blob/develop/src/utl" xlink:title="utl&#45;module&#45;not&#45;shared&#45;enough">
<polygon fill="#cccccc" stroke="blue" points="258,-34 206,-34 204,-32 204,-16 256,-16 258,-18 258,-34"/>
<polyline fill="none" stroke="blue" points="256,-32 204,-32"/>
<polyline fill="none" stroke="blue" points="256,-32 256,-16"/>
<polyline fill="none" stroke="blue" points="256,-32 258,-34"/>
<text text-anchor="start" x="226" y="-22.8" font-family="Helvetica,sans-Serif" font-size="9.00" fill="blue">utl</text>
</a>
</g>
</g>
<!-- src/cli&#45;&gt;src/utl -->
<g id="edge6" class="edge">
<title>src/cli&#45;&gt;src/utl</title>
<path fill="none" stroke="#aaaaaa" stroke-width="2" stroke-opacity="0.466667" d="M158.19,-180C176,-180 196,-180 196,-180 196,-180 196,-25 196,-25 196,-25 196.78,-25 196.78,-25"/>
<polygon fill="#aaaaaa" fill-opacity="0.466667" stroke="#aaaaaa" stroke-width="2" stroke-opacity="0.466667" points="194.74,-27.1 200.74,-25 194.74,-22.9 194.74,-27.1"/>
</g>
<!-- src/cache -->
<g id="node3" class="node">
<title>src/cache</title>
<g id="a_node3"><a xlink:href="https://github.com/sverweij/dependency-cruiser/blob/develop/src/cache" xlink:title="cache">
<polygon fill="#ffffcc" stroke="black" points="178,-96 126,-96 124,-94 124,-78 176,-78 178,-80 178,-96"/>
<polyline fill="none" stroke="black" points="176,-94 124,-94"/>
<polyline fill="none" stroke="black" points="176,-94 176,-78"/>
<polyline fill="none" stroke="black" points="176,-94 178,-96"/>
<text text-anchor="start" x="138.5" y="-84.8" font-family="Helvetica,sans-Serif" font-size="9.00">cache</text>
</a>
</g>
</g>
<!-- src/cache&#45;&gt;src/extract -->
<g id="edge2" class="edge">
<title>src/cache&#45;&gt;src/extract</title>
<path fill="none" stroke="#007700" stroke-width="2" stroke-opacity="0.466667" d="M126.67,-77.63C126.67,-67.88 126.67,-54 126.67,-54 126.67,-54 121.12,-54 121.12,-54"/>
<polygon fill="#007700" fill-opacity="0.466667" stroke="#007700" stroke-width="2" stroke-opacity="0.466667" points="121.12,-51.9 115.12,-54 121.12,-56.1 121.12,-51.9"/>
</g>
<!-- src/extract&#45;&gt;src/utl -->
<g id="edge12" class="edge">
<title>src/extract&#45;&gt;src/utl</title>
<path fill="none" stroke="#aaaaaa" stroke-width="2" stroke-opacity="0.466667" d="M100.67,-46.51C100.67,-43.06 100.67,-40 100.67,-40 100.67,-40 222,-40 222,-40 222,-40 222,-39.42 222,-39.42"/>
<polygon fill="#aaaaaa" fill-opacity="0.466667" stroke="#aaaaaa" stroke-width="2" stroke-opacity="0.466667" points="224.1,-43.27 222,-37.27 219.9,-43.27 224.1,-43.27"/>
</g>
<!-- src/graph&#45;utl -->
<g id="node10" class="node">
<title>src/graph&#45;utl</title>
<g id="a_node10"><a xlink:href="https://github.com/sverweij/dependency-cruiser/blob/develop/src/graph-utl" xlink:title="graph&#45;utl">
<polygon fill="#ffcccc" stroke="black" points="132,-34 80,-34 78,-32 78,-16 130,-16 132,-18 132,-34"/>
<polyline fill="none" stroke="black" points="130,-32 78,-32"/>
<polyline fill="none" stroke="black" points="130,-32 130,-16"/>
<polyline fill="none" stroke="black" points="130,-32 132,-34"/>
<text text-anchor="start" x="86.5" y="-22.8" font-family="Helvetica,sans-Serif" font-size="9.00">graph&#45;utl</text>
</a>
</g>
</g>
<!-- src/extract&#45;&gt;src/graph&#45;utl -->
<g id="edge13" class="edge">
<title>src/extract&#45;&gt;src/graph&#45;utl</title>
<path fill="none" stroke="#770000" stroke-width="2" stroke-opacity="0.466667" d="M89.33,-46.53C89.33,-46.53 89.33,-43.44 89.33,-43.44"/>
<polygon fill="#770000" fill-opacity="0.466667" stroke="#770000" stroke-width="2" stroke-opacity="0.466667" points="91.43,-43.44 89.33,-37.44 87.23,-43.44 91.43,-43.44"/>
</g>
<!-- src/config&#45;utl&#45;&gt;src/extract -->
<g id="edge7" class="edge">
<title>src/config&#45;utl&#45;&gt;src/extract</title>
<path fill="none" stroke="#007700" stroke-width="2" stroke-opacity="0.466667" d="M115,-139.58C115,-116.88 115,-61 115,-61 115,-61 114.72,-61 114.72,-61"/>
<polygon fill="#007700" fill-opacity="0.466667" stroke="#007700" stroke-width="2" stroke-opacity="0.466667" points="121.26,-58.9 115.26,-61 121.26,-63.1 121.26,-58.9"/>
</g>
<!-- src/config&#45;utl&#45;&gt;src/main -->
<g id="edge8" class="edge">
<title>src/config&#45;utl&#45;&gt;src/main</title>
<path fill="none" stroke="#770000" stroke-width="2" stroke-opacity="0.466667" d="M131,-139.53C131,-139.53 131,-136.44 131,-136.44"/>
<polygon fill="#770000" fill-opacity="0.466667" stroke="#770000" stroke-width="2" stroke-opacity="0.466667" points="133.1,-136.44 131,-130.44 128.9,-136.44 133.1,-136.44"/>
</g>
<!-- src/main&#45;&gt;src/cache -->
<g id="edge14" class="edge">
<title>src/main&#45;&gt;src/cache</title>
<path fill="none" stroke="#000000" stroke-width="2" stroke-opacity="0.200000" d="M151,-108.53C151,-108.53 151,-105.44 151,-105.44"/>
<polygon fill="#000000" fill-opacity="0.200000" stroke="#000000" stroke-width="2" stroke-opacity="0.200000" points="153.1,-105.44 151,-99.44 148.9,-105.44 153.1,-105.44"/>
</g>
<!-- src/main&#45;&gt;src/extract -->
<g id="edge16" class="edge">
<title>src/main&#45;&gt;src/extract</title>
<path fill="none" stroke="#007700" stroke-width="2" stroke-opacity="0.466667" d="M123.75,-122C120.33,-122 118,-122 118,-122 118,-122 118,-57 118,-57 118,-57 117.43,-57 117.43,-57"/>
<polygon fill="#007700" fill-opacity="0.466667" stroke="#007700" stroke-width="2" stroke-opacity="0.466667" points="121.28,-54.9 115.28,-57 121.28,-59.1 121.28,-54.9"/>
</g>
<!-- src/enrich -->
<g id="node8" class="node">
<title>src/enrich</title>
<g id="a_node8"><a xlink:href="https://github.com/sverweij/dependency-cruiser/blob/develop/src/enrich" xlink:title="enrich">
<polygon fill="#77eeaa" stroke="black" points="272,-96 220,-96 218,-94 218,-78 270,-78 272,-80 272,-96"/>
<polyline fill="none" stroke="black" points="270,-94 218,-94"/>
<polyline fill="none" stroke="black" points="270,-94 270,-78"/>
<polyline fill="none" stroke="black" points="270,-94 272,-96"/>
<text text-anchor="start" x="232" y="-84.8" font-family="Helvetica,sans-Serif" font-size="9.00">enrich</text>
</a>
</g>
</g>
<!-- src/main&#45;&gt;src/enrich -->
<g id="edge15" class="edge">
<title>src/main&#45;&gt;src/enrich</title>
<path fill="none" stroke="#007766" stroke-width="2" stroke-opacity="0.466667" d="M178.44,-121C206.19,-121 245,-121 245,-121 245,-121 245,-105.32 245,-105.32"/>
<polygon fill="#007766" fill-opacity="0.466667" stroke="#007766" stroke-width="2" stroke-opacity="0.466667" points="247.1,-105.32 245,-99.32 242.9,-105.32 247.1,-105.32"/>
</g>
<!-- src/main&#45;&gt;src/graph&#45;utl -->
<g id="edge19" class="edge">
<title>src/main&#45;&gt;src/graph&#45;utl</title>
<path fill="none" stroke="#770000" stroke-width="2" stroke-opacity="0.466667" d="M123.77,-118C122.05,-118 121,-118 121,-118 121,-118 121,-43.28 121,-43.28"/>
<polygon fill="#770000" fill-opacity="0.466667" stroke="#770000" stroke-width="2" stroke-opacity="0.466667" points="123.1,-43.28 121,-37.28 118.9,-43.28 123.1,-43.28"/>
</g>
<!-- src/schema -->
<g id="node11" class="node">
<title>src/schema</title>
<g id="a_node11"><a xlink:href="https://github.com/sverweij/dependency-cruiser/blob/develop/src/schema" xlink:title="not&#45;unreachable&#45;from&#45;cli">
<polygon fill="#ccffcc" stroke="red" points="112,-96 60,-96 58,-94 58,-78 110,-78 112,-80 112,-96"/>
<polyline fill="none" stroke="red" points="110,-94 58,-94"/>
<polyline fill="none" stroke="red" points="110,-94 110,-78"/>
<polyline fill="none" stroke="red" points="110,-94 112,-96"/>
<text text-anchor="start" x="68.5" y="-84.8" font-family="Helvetica,sans-Serif" font-size="9.00" fill="red">schema</text>
</a>
</g>
</g>
<!-- src/main&#45;&gt;src/schema -->
<g id="edge17" class="edge">
<title>src/main&#45;&gt;src/schema</title>
<path fill="none" stroke="#000000" stroke-width="2" stroke-opacity="0.200000" d="M123.57,-113C110.64,-113 98,-113 98,-113 98,-113 98,-105.41 98,-105.41"/>
<polygon fill="#000000" fill-opacity="0.200000" stroke="#000000" stroke-width="2" stroke-opacity="0.200000" points="100.1,-105.41 98,-99.41 95.9,-105.41 100.1,-105.41"/>
</g>
<!-- src/report -->
<g id="node12" class="node">
<title>src/report</title>
<g id="a_node12"><a xlink:href="https://github.com/sverweij/dependency-cruiser/blob/develop/src/report" xlink:title="report">
<polygon fill="#ffccff" stroke="black" points="192,-65 140,-65 138,-63 138,-47 190,-47 192,-49 192,-65"/>
<polyline fill="none" stroke="black" points="190,-63 138,-63"/>
<polyline fill="none" stroke="black" points="190,-63 190,-47"/>
<polyline fill="none" stroke="black" points="190,-63 192,-65"/>
<text text-anchor="start" x="152.5" y="-53.8" font-family="Helvetica,sans-Serif" font-size="9.00">report</text>
</a>
</g>
</g>
<!-- src/main&#45;&gt;src/report -->
<g id="edge18" class="edge">
<title>src/main&#45;&gt;src/report</title>
<path fill="none" stroke="#ff00ff" stroke-width="2" stroke-opacity="0.466667" d="M178.44,-115C182.31,-115 185,-115 185,-115 185,-115 185,-74.51 185,-74.51"/>
<polygon fill="#ff00ff" fill-opacity="0.466667" stroke="#ff00ff" stroke-width="2" stroke-opacity="0.466667" points="187.1,-74.51 185,-68.51 182.9,-74.51 187.1,-74.51"/>
</g>
<!-- src/enrich&#45;&gt;src/utl -->
<g id="edge11" class="edge">
<title>src/enrich&#45;&gt;src/utl</title>
<path fill="none" stroke="#aaaaaa" stroke-width="2" stroke-opacity="0.466667" d="M265,-77.58C265,-60.24 265,-25 265,-25 265,-25 264.34,-25 264.34,-25"/>
<polygon fill="#aaaaaa" fill-opacity="0.466667" stroke="#aaaaaa" stroke-width="2" stroke-opacity="0.466667" points="267.47,-22.9 261.47,-25 267.47,-27.1 267.47,-22.9"/>
</g>
<!-- src/validate -->
<g id="node9" class="node">
<title>src/validate</title>
<g id="a_node9"><a xlink:href="https://github.com/sverweij/dependency-cruiser/blob/develop/src/validate" xlink:title="validate">
<polygon fill="#ccccff" stroke="black" points="258,-65 206,-65 204,-63 204,-47 256,-47 258,-49 258,-65"/>
<polyline fill="none" stroke="black" points="256,-63 204,-63"/>
<polyline fill="none" stroke="black" points="256,-63 256,-47"/>
<polyline fill="none" stroke="black" points="256,-63 258,-65"/>
<text text-anchor="start" x="214.5" y="-53.8" font-family="Helvetica,sans-Serif" font-size="9.00">validate</text>
</a>
</g>
</g>
<!-- src/enrich&#45;&gt;src/validate -->
<g id="edge9" class="edge">
<title>src/enrich&#45;&gt;src/validate</title>
<path fill="none" stroke="#0000ff" stroke-width="2" stroke-opacity="0.466667" d="M238,-77.53C238,-77.53 238,-74.44 238,-74.44"/>
<polygon fill="#0000ff" fill-opacity="0.466667" stroke="#0000ff" stroke-width="2" stroke-opacity="0.466667" points="240.1,-74.44 238,-68.44 235.9,-74.44 240.1,-74.44"/>
</g>
<!-- src/enrich&#45;&gt;src/graph&#45;utl -->
<g id="edge10" class="edge">
<title>src/enrich&#45;&gt;src/graph&#45;utl</title>
<path fill="none" stroke="#770000" stroke-width="2" stroke-opacity="0.466667" d="M217.53,-87C208.16,-87 200,-87 200,-87 200,-87 200,-29 200,-29 200,-29 141.51,-29 141.51,-29"/>
<polygon fill="#770000" fill-opacity="0.466667" stroke="#770000" stroke-width="2" stroke-opacity="0.466667" points="141.51,-26.9 135.51,-29 141.51,-31.1 141.51,-26.9"/>
</g>
<!-- src/validate&#45;&gt;src/utl -->
<g id="edge22" class="edge">
<title>src/validate&#45;&gt;src/utl</title>
<path fill="none" stroke="#aaaaaa" stroke-width="2" stroke-opacity="0.466667" d="M240,-46.53C240,-46.53 240,-43.44 240,-43.44"/>
<polygon fill="#aaaaaa" fill-opacity="0.466667" stroke="#aaaaaa" stroke-width="2" stroke-opacity="0.466667" points="242.1,-43.44 240,-37.44 237.9,-43.44 242.1,-43.44"/>
</g>
<!-- src/report&#45;&gt;src/utl -->
<g id="edge21" class="edge">
<title>src/report&#45;&gt;src/utl</title>
<path fill="none" stroke="#aaaaaa" stroke-width="2" stroke-opacity="0.466667" d="M165,-46.54C165,-35.88 165,-20 165,-20 165,-20 194.75,-20 194.75,-20"/>
<polygon fill="#aaaaaa" fill-opacity="0.466667" stroke="#aaaaaa" stroke-width="2" stroke-opacity="0.466667" points="194.75,-22.1 200.75,-20 194.75,-17.9 194.75,-22.1"/>
</g>
<!-- src/report&#45;&gt;src/graph&#45;utl -->
<g id="edge20" class="edge">
<title>src/report&#45;&gt;src/graph&#45;utl</title>
<path fill="none" stroke="#770000" stroke-width="2" stroke-opacity="0.466667" d="M137.61,-50C132.82,-50 129.33,-50 129.33,-50 129.33,-50 129.33,-43.34 129.33,-43.34"/>
<polygon fill="#770000" fill-opacity="0.466667" stroke="#770000" stroke-width="2" stroke-opacity="0.466667" points="131.43,-43.34 129.33,-37.34 127.23,-43.34 131.43,-43.34"/>
</g>
</g>
</svg>
