<?xml version="1.0" encoding="UTF-8" standalone="no"?>
<!DOCTYPE svg PUBLIC "-//W3C//DTD SVG 1.1//EN"
 "http://www.w3.org/Graphics/SVG/1.1/DTD/svg11.dtd">
<!-- Generated by graphviz version 2.43.0 (0)
 -->
<!-- Title: dependency&#45;cruiser output Pages: 1 -->
<svg width="1000pt" height="391pt"
 viewBox="0.00 0.00 1000.00 390.90" xmlns="http://www.w3.org/2000/svg" xmlns:xlink="http://www.w3.org/1999/xlink">
<g id="graph0" class="graph" transform="scale(1 1) rotate(0) translate(4 386.9)">
<title>dependency&#45;cruiser output</title>
<polygon fill="white" stroke="transparent" points="-4,4 -4,-386.9 996,-386.9 996,4 -4,4"/>
<g id="clust1" class="cluster">
<title>cluster_src</title>
<path fill="#ffffff" stroke="black" stroke-width="2" d="M20,-8C20,-8 972,-8 972,-8 978,-8 984,-14 984,-20 984,-20 984,-345.9 984,-345.9 984,-351.9 978,-357.9 972,-357.9 972,-357.9 20,-357.9 20,-357.9 14,-357.9 8,-351.9 8,-345.9 8,-345.9 8,-20 8,-20 8,-14 14,-8 20,-8"/>
<text text-anchor="middle" x="496" y="-346.7" font-family="Helvetica,sans-Serif" font-weight="bold" font-size="9.00">src</text>
</g>
<g id="clust2" class="cluster">
<title>cluster_src/cli</title>
<path fill="#ffffff" stroke="black" stroke-width="2" d="M428,-239.6C428,-239.6 626,-239.6 626,-239.6 632,-239.6 638,-245.6 638,-251.6 638,-251.6 638,-320.9 638,-320.9 638,-326.9 632,-332.9 626,-332.9 626,-332.9 428,-332.9 428,-332.9 422,-332.9 416,-326.9 416,-320.9 416,-320.9 416,-251.6 416,-251.6 416,-245.6 422,-239.6 428,-239.6"/>
<text text-anchor="middle" x="527" y="-321.7" font-family="Helvetica,sans-Serif" font-weight="bold" font-size="9.00">cli</text>
</g>
<g id="clust3" class="cluster">
<title>cluster_src/extract</title>
<path fill="#ffffff" stroke="black" stroke-width="2" d="M448,-79C448,-79 964,-79 964,-79 970,-79 976,-85 976,-91 976,-91 976,-219.6 976,-219.6 976,-225.6 970,-231.6 964,-231.6 964,-231.6 448,-231.6 448,-231.6 442,-231.6 436,-225.6 436,-219.6 436,-219.6 436,-91 436,-91 436,-85 442,-79 448,-79"/>
<text text-anchor="middle" x="706" y="-220.4" font-family="Helvetica,sans-Serif" font-weight="bold" font-size="9.00">extract</text>
</g>
<g id="clust4" class="cluster">
<title>cluster_src/extract/derive</title>
<path fill="#ffffff" stroke="black" stroke-width="2" d="M642,-138.3C642,-138.3 838,-138.3 838,-138.3 844,-138.3 850,-144.3 850,-150.3 850,-150.3 850,-176.3 850,-176.3 850,-182.3 844,-188.3 838,-188.3 838,-188.3 642,-188.3 642,-188.3 636,-188.3 630,-182.3 630,-176.3 630,-176.3 630,-150.3 630,-150.3 630,-144.3 636,-138.3 642,-138.3"/>
<text text-anchor="middle" x="740" y="-177.1" font-family="Helvetica,sans-Serif" font-weight="bold" font-size="9.00">derive</text>
</g>
<g id="clust5" class="cluster">
<title>cluster_src/extract/resolve</title>
<path fill="#ffffff" stroke="black" stroke-width="2" d="M870,-87C870,-87 956,-87 956,-87 962,-87 968,-93 968,-99 968,-99 968,-169.6 968,-169.6 968,-175.6 962,-181.6 956,-181.6 956,-181.6 870,-181.6 870,-181.6 864,-181.6 858,-175.6 858,-169.6 858,-169.6 858,-99 858,-99 858,-93 864,-87 870,-87"/>
<text text-anchor="middle" x="913" y="-170.4" font-family="Helvetica,sans-Serif" font-weight="bold" font-size="9.00">resolve</text>
</g>
<g id="clust6" class="cluster">
<title>cluster_src/main</title>
<path fill="#ffffff" stroke="black" stroke-width="2" d="M167,-138.3C167,-138.3 396,-138.3 396,-138.3 402,-138.3 408,-144.3 408,-150.3 408,-150.3 408,-270.9 408,-270.9 408,-276.9 402,-282.9 396,-282.9 396,-282.9 167,-282.9 167,-282.9 161,-282.9 155,-276.9 155,-270.9 155,-270.9 155,-150.3 155,-150.3 155,-144.3 161,-138.3 167,-138.3"/>
<text text-anchor="middle" x="281.5" y="-271.7" font-family="Helvetica,sans-Serif" font-weight="bold" font-size="9.00">main</text>
</g>
<g id="clust7" class="cluster">
<title>cluster_src/report</title>
<path fill="#ffffff" stroke="black" stroke-width="2" d="M28,-16C28,-16 340,-16 340,-16 346,-16 352,-22 352,-28 352,-28 352,-118.3 352,-118.3 352,-124.3 346,-130.3 340,-130.3 340,-130.3 28,-130.3 28,-130.3 22,-130.3 16,-124.3 16,-118.3 16,-118.3 16,-28 16,-28 16,-22 22,-16 28,-16"/>
<text text-anchor="middle" x="184" y="-119.1" font-family="Helvetica,sans-Serif" font-weight="bold" font-size="9.00">report</text>
</g>
<!-- bin -->
<g id="node1" class="node">
<title>bin</title>
<g id="a_node1"><a xlink:href="https://github.com/sverweij/dependency-cruiser/blob/develop/bin" xlink:title="bin">
<polygon fill="#ffffcc" stroke="black" points="543,-382.9 490.89,-382.9 489,-381.01 489,-365.9 541.11,-365.9 543,-367.79 543,-382.9"/>
<polyline fill="none" stroke="black" points="541.11,-381.01 489,-381.01 "/>
<polyline fill="none" stroke="black" points="541.11,-381.01 541.11,-365.9 "/>
<polyline fill="none" stroke="black" points="541.11,-381.01 543,-382.9 "/>
<text text-anchor="middle" x="516" y="-371.7" font-family="Helvetica,sans-Serif" font-size="9.00">bin</text>
</a>
</g>
</g>
<!-- src/cli -->
<!-- bin&#45;&gt;src/cli -->
<g id="edge1" class="edge">
<title>bin&#45;&gt;src/cli</title>
<path fill="none" stroke="#0000ff" stroke-width="2" stroke-opacity="0.466667" d="M537.6,-365.8C537.6,-365.8 537.6,-307.44 537.6,-307.44"/>
<polygon fill="#0000ff" fill-opacity="0.466667" stroke="#0000ff" stroke-width="2" stroke-opacity="0.466667" points="539.7,-307.44 537.6,-301.44 535.5,-307.45 539.7,-307.44"/>
</g>
<!-- src/cli/tools -->
<g id="node3" class="node">
<title>src/cli/tools</title>
<g id="a_node3"><a xlink:href="https://github.com/sverweij/dependency-cruiser/blob/develop/src/cli/tools" xlink:title="tools">
<polygon fill="#ccccff" stroke="black" points="523,-307.9 470.89,-307.9 469,-306.01 469,-290.9 521.11,-290.9 523,-292.79 523,-307.9"/>
<polyline fill="none" stroke="black" points="521.11,-306.01 469,-306.01 "/>
<polyline fill="none" stroke="black" points="521.11,-306.01 521.11,-290.9 "/>
<polyline fill="none" stroke="black" points="521.11,-306.01 523,-307.9 "/>
<text text-anchor="middle" x="496" y="-296.7" font-family="Helvetica,sans-Serif" font-size="9.00">tools</text>
</a>
</g>
</g>
<!-- bin&#45;&gt;src/cli/tools -->
<g id="edge2" class="edge">
<title>bin&#45;&gt;src/cli/tools</title>
<path fill="none" stroke="#0000ff" stroke-width="2" stroke-opacity="0.466667" d="M506,-365.8C506,-365.8 506,-313.9 506,-313.9"/>
<polygon fill="#0000ff" fill-opacity="0.466667" stroke="#0000ff" stroke-width="2" stroke-opacity="0.466667" points="508.1,-313.9 506,-307.9 503.9,-313.9 508.1,-313.9"/>
</g>
<!-- src/main -->
<!-- src/cli&#45;&gt;src/main -->
<g id="edge3" class="edge">
<title>src/cli&#45;&gt;src/main</title>
<path fill="none" stroke="#770000" stroke-width="2" stroke-opacity="0.466667" d="M535.08,-300C532.2,-300 527.07,-300 527.07,-300 527.07,-300 527.07,-346 527.07,-346 527.07,-346 229.4,-346 229.4,-346 229.4,-346 229.4,-263.98 229.4,-263.98"/>
<polygon fill="#770000" fill-opacity="0.466667" stroke="#770000" stroke-width="2" stroke-opacity="0.466667" points="231.5,-263.98 229.4,-257.98 227.3,-263.98 231.5,-263.98"/>
</g>
<!-- src/cli/utl -->
<g id="node6" class="node">
<title>src/cli/utl</title>
<g id="a_node6"><a xlink:href="https://github.com/sverweij/dependency-cruiser/blob/develop/src/cli/utl" xlink:title="utl">
<polygon fill="#ccccff" stroke="black" points="630,-264.6 577.89,-264.6 576,-262.71 576,-247.6 628.11,-247.6 630,-249.49 630,-264.6"/>
<polyline fill="none" stroke="black" points="628.11,-262.71 576,-262.71 "/>
<polyline fill="none" stroke="black" points="628.11,-262.71 628.11,-247.6 "/>
<polyline fill="none" stroke="black" points="628.11,-262.71 630,-264.6 "/>
<text text-anchor="middle" x="603" y="-253.4" font-family="Helvetica,sans-Serif" font-size="9.00">utl</text>
</a>
</g>
</g>
<!-- src/cli&#45;&gt;src/cli/utl -->
<g id="edge4" class="edge">
<title>src/cli&#45;&gt;src/cli/utl</title>
<path fill="none" stroke="#0000ff" stroke-width="2" stroke-opacity="0.466667" d="M538.9,-299C549.73,-299 603,-299 603,-299 603,-299 603,-270.78 603,-270.78"/>
<polygon fill="#0000ff" fill-opacity="0.466667" stroke="#0000ff" stroke-width="2" stroke-opacity="0.466667" points="605.1,-270.78 603,-264.78 600.9,-270.78 605.1,-270.78"/>
</g>
<!-- src/cli/compile&#45;config -->
<g id="node7" class="node">
<title>src/cli/compile&#45;config</title>
<g id="a_node7"><a xlink:href="https://github.com/sverweij/dependency-cruiser/blob/develop/src/cli/compile-config" xlink:title="compile&#45;config">
<polygon fill="#ccccff" stroke="black" points="498.03,-264.6 425.86,-264.6 423.97,-262.71 423.97,-247.6 496.14,-247.6 498.03,-249.49 498.03,-264.6"/>
<polyline fill="none" stroke="black" points="496.14,-262.71 423.97,-262.71 "/>
<polyline fill="none" stroke="black" points="496.14,-262.71 496.14,-247.6 "/>
<polyline fill="none" stroke="black" points="496.14,-262.71 498.03,-264.6 "/>
<text text-anchor="middle" x="461" y="-253.4" font-family="Helvetica,sans-Serif" font-size="9.00">compile&#45;config</text>
</a>
</g>
</g>
<!-- src/cli&#45;&gt;src/cli/compile&#45;config -->
<g id="edge5" class="edge">
<title>src/cli&#45;&gt;src/cli/compile&#45;config</title>
<path fill="none" stroke="#0000ff" stroke-width="2" stroke-opacity="0.466667" d="M536.4,-301.21C536.4,-307.35 536.4,-327 536.4,-327 536.4,-327 446.49,-327 446.49,-327 446.49,-327 446.49,-270.79 446.49,-270.79"/>
<polygon fill="#0000ff" fill-opacity="0.466667" stroke="#0000ff" stroke-width="2" stroke-opacity="0.466667" points="448.59,-270.79 446.49,-264.79 444.39,-270.79 448.59,-270.79"/>
</g>
<!-- src/cli/init&#45;config -->
<g id="node8" class="node">
<title>src/cli/init&#45;config</title>
<g id="a_node8"><a xlink:href="https://github.com/sverweij/dependency-cruiser/blob/develop/src/cli/init-config" xlink:title="init&#45;config">
<polygon fill="#ccccff" stroke="black" points="564.02,-264.6 511.87,-264.6 509.98,-262.71 509.98,-247.6 562.13,-247.6 564.02,-249.49 564.02,-264.6"/>
<polyline fill="none" stroke="black" points="562.13,-262.71 509.98,-262.71 "/>
<polyline fill="none" stroke="black" points="562.13,-262.71 562.13,-247.6 "/>
<polyline fill="none" stroke="black" points="562.13,-262.71 564.02,-264.6 "/>
<text text-anchor="middle" x="537" y="-253.4" font-family="Helvetica,sans-Serif" font-size="9.00">init&#45;config</text>
</a>
</g>
</g>
<!-- src/cli&#45;&gt;src/cli/init&#45;config -->
<g id="edge6" class="edge">
<title>src/cli&#45;&gt;src/cli/init&#45;config</title>
<path fill="none" stroke="#0000ff" stroke-width="2" stroke-opacity="0.466667" d="M537,-297.54C537,-297.54 537,-270.76 537,-270.76"/>
<polygon fill="#0000ff" fill-opacity="0.466667" stroke="#0000ff" stroke-width="2" stroke-opacity="0.466667" points="539.1,-270.76 537,-264.76 534.9,-270.76 539.1,-270.76"/>
</g>
<!-- src -->
<!-- src/main/resolve&#45;options -->
<g id="node10" class="node">
<title>src/main/resolve&#45;options</title>
<g id="a_node10"><a xlink:href="https://github.com/sverweij/dependency-cruiser/blob/develop/src/main/resolve-options" xlink:title="resolve&#45;options">
<polygon fill="#ffcccc" stroke="black" points="399.53,-213.3 324.36,-213.3 322.47,-211.41 322.47,-196.3 397.64,-196.3 399.53,-198.19 399.53,-213.3"/>
<polyline fill="none" stroke="black" points="397.64,-211.41 322.47,-211.41 "/>
<polyline fill="none" stroke="black" points="397.64,-211.41 397.64,-196.3 "/>
<polyline fill="none" stroke="black" points="397.64,-211.41 399.53,-213.3 "/>
<text text-anchor="middle" x="361" y="-202.1" font-family="Helvetica,sans-Serif" font-size="9.00">resolve&#45;options</text>
</a>
</g>
</g>
<!-- src/main&#45;&gt;src/main/resolve&#45;options -->
<g id="edge31" class="edge">
<title>src/main&#45;&gt;src/main/resolve&#45;options</title>
<path fill="none" stroke="#770000" stroke-width="2" stroke-opacity="0.466667" d="M230.6,-258.03C230.6,-263.2 230.6,-277 230.6,-277 230.6,-277 361,-277 361,-277 361,-277 361,-219.37 361,-219.37"/>
<polygon fill="#770000" fill-opacity="0.466667" stroke="#770000" stroke-width="2" stroke-opacity="0.466667" points="363.1,-219.37 361,-213.37 358.9,-219.37 363.1,-219.37"/>
</g>
<!-- src/extract -->
<!-- src/main&#45;&gt;src/extract -->
<g id="edge25" class="edge">
<title>src/main&#45;&gt;src/extract</title>
<path fill="none" stroke="#007700" stroke-width="2" stroke-opacity="0.466667" d="M231.62,-257C234.54,-257 240.38,-257 240.38,-257 240.38,-257 240.38,-239 240.38,-239 240.38,-239 579.07,-239 579.07,-239 579.07,-239 579.07,-206 579.07,-206 579.07,-206 579.71,-206 579.71,-206"/>
<polygon fill="#007700" fill-opacity="0.466667" stroke="#007700" stroke-width="2" stroke-opacity="0.466667" points="579.47,-208.1 585.47,-206 579.47,-203.9 579.47,-208.1"/>
</g>
<!-- src/extract/transpile -->
<g id="node19" class="node">
<title>src/extract/transpile</title>
<g id="a_node19"><a xlink:href="https://github.com/sverweij/dependency-cruiser/blob/develop/src/extract/transpile" xlink:title="transpile">
<polygon fill="#ccffcc" stroke="black" points="526,-112 473.89,-112 472,-110.11 472,-95 524.11,-95 526,-96.89 526,-112"/>
<polyline fill="none" stroke="black" points="524.11,-110.11 472,-110.11 "/>
<polyline fill="none" stroke="black" points="524.11,-110.11 524.11,-95 "/>
<polyline fill="none" stroke="black" points="524.11,-110.11 526,-112 "/>
<text text-anchor="middle" x="499" y="-100.8" font-family="Helvetica,sans-Serif" font-size="9.00">transpile</text>
</a>
</g>
</g>
<!-- src/main&#45;&gt;src/extract/transpile -->
<g id="edge26" class="edge">
<title>src/main&#45;&gt;src/extract/transpile</title>
<path fill="none" stroke="#007700" stroke-width="2" stroke-opacity="0.466667" d="M232.06,-256C234.28,-256 237.52,-256 237.52,-256 237.52,-256 237.52,-129 237.52,-129 237.52,-129 486.09,-129 486.09,-129 486.09,-129 486.09,-118.13 486.09,-118.13"/>
<polygon fill="#007700" fill-opacity="0.466667" stroke="#007700" stroke-width="2" stroke-opacity="0.466667" points="488.19,-118.13 486.09,-112.13 483.99,-118.13 488.19,-118.13"/>
</g>
<!-- src/report -->
<!-- src/main&#45;&gt;src/report -->
<g id="edge27" class="edge">
<title>src/main&#45;&gt;src/report</title>
<path fill="none" stroke="#ff00ff" stroke-width="2" stroke-opacity="0.466667" d="M229.1,-254.18C229.1,-237.63 229.1,-120 229.1,-120 229.1,-120 186.6,-120 186.6,-120 186.6,-120 186.6,-111.27 186.6,-111.27"/>
<polygon fill="#ff00ff" fill-opacity="0.466667" stroke="#ff00ff" stroke-width="2" stroke-opacity="0.466667" points="188.7,-111.27 186.6,-105.27 184.5,-111.27 188.7,-111.27"/>
</g>
<!-- src/schema -->
<g id="node24" class="node">
<title>src/schema</title>
<g id="a_node24"><a xlink:href="https://github.com/sverweij/dependency-cruiser/blob/develop/src/schema" xlink:title="schema">
<polygon fill="#ffffcc" stroke="black" points="147,-163.3 94.89,-163.3 93,-161.41 93,-146.3 145.11,-146.3 147,-148.19 147,-163.3"/>
<polyline fill="none" stroke="black" points="145.11,-161.41 93,-161.41 "/>
<polyline fill="none" stroke="black" points="145.11,-161.41 145.11,-146.3 "/>
<polyline fill="none" stroke="black" points="145.11,-161.41 147,-163.3 "/>
<text text-anchor="middle" x="120" y="-152.1" font-family="Helvetica,sans-Serif" font-size="9.00">schema</text>
</a>
</g>
</g>
<!-- src/main&#45;&gt;src/schema -->
<g id="edge28" class="edge">
<title>src/main&#45;&gt;src/schema</title>
<path fill="none" stroke="#000000" stroke-width="2" stroke-opacity="0.200000" d="M227.93,-256C212.13,-256 111,-256 111,-256 111,-256 111,-169.43 111,-169.43"/>
<polygon fill="#000000" fill-opacity="0.200000" stroke="#000000" stroke-width="2" stroke-opacity="0.200000" points="113.1,-169.43 111,-163.43 108.9,-169.43 113.1,-169.43"/>
</g>
<!-- src/main/files&#45;and&#45;dirs -->
<g id="node25" class="node">
<title>src/main/files&#45;and&#45;dirs</title>
<g id="a_node25"><a xlink:href="https://github.com/sverweij/dependency-cruiser/blob/develop/src/main/files-and-dirs" xlink:title="files&#45;and&#45;dirs">
<polygon fill="#ffcccc" stroke="black" points="310.52,-213.3 245.37,-213.3 243.48,-211.41 243.48,-196.3 308.63,-196.3 310.52,-198.19 310.52,-213.3"/>
<polyline fill="none" stroke="black" points="308.63,-211.41 243.48,-211.41 "/>
<polyline fill="none" stroke="black" points="308.63,-211.41 308.63,-196.3 "/>
<polyline fill="none" stroke="black" points="308.63,-211.41 310.52,-213.3 "/>
<text text-anchor="middle" x="277" y="-202.1" font-family="Helvetica,sans-Serif" font-size="9.00">files&#45;and&#45;dirs</text>
</a>
</g>
</g>
<!-- src/main&#45;&gt;src/main/files&#45;and&#45;dirs -->
<g id="edge29" class="edge">
<title>src/main&#45;&gt;src/main/files&#45;and&#45;dirs</title>
<path fill="none" stroke="#770000" stroke-width="2" stroke-opacity="0.466667" d="M230.9,-254.37C230.9,-245.33 230.9,-204 230.9,-204 230.9,-204 237.01,-204 237.01,-204"/>
<polygon fill="#770000" fill-opacity="0.466667" stroke="#770000" stroke-width="2" stroke-opacity="0.466667" points="237.01,-206.1 243.01,-204 237.01,-201.9 237.01,-206.1"/>
</g>
<!-- src/main/options -->
<g id="node26" class="node">
<title>src/main/options</title>
<g id="a_node26"><a xlink:href="https://github.com/sverweij/dependency-cruiser/blob/develop/src/main/options" xlink:title="options">
<polygon fill="#ffcccc" stroke="black" points="217,-163.3 164.89,-163.3 163,-161.41 163,-146.3 215.11,-146.3 217,-148.19 217,-163.3"/>
<polyline fill="none" stroke="black" points="215.11,-161.41 163,-161.41 "/>
<polyline fill="none" stroke="black" points="215.11,-161.41 215.11,-146.3 "/>
<polyline fill="none" stroke="black" points="215.11,-161.41 217,-163.3 "/>
<text text-anchor="middle" x="190" y="-152.1" font-family="Helvetica,sans-Serif" font-size="9.00">options</text>
</a>
</g>
</g>
<!-- src/main&#45;&gt;src/main/options -->
<g id="edge30" class="edge">
<title>src/main&#45;&gt;src/main/options</title>
<path fill="none" stroke="#770000" stroke-width="2" stroke-opacity="0.466667" d="M231.47,-255C232.84,-255 234.66,-255 234.66,-255 234.66,-255 234.66,-154 234.66,-154 234.66,-154 223.01,-154 223.01,-154"/>
<polygon fill="#770000" fill-opacity="0.466667" stroke="#770000" stroke-width="2" stroke-opacity="0.466667" points="223.01,-151.9 217.01,-154 223.01,-156.1 223.01,-151.9"/>
</g>
<!-- src/main/rule&#45;set -->
<g id="node27" class="node">
<title>src/main/rule&#45;set</title>
<g id="a_node27"><a xlink:href="https://github.com/sverweij/dependency-cruiser/blob/develop/src/main/rule-set" xlink:title="rule&#45;set">
<polygon fill="#ffcccc" stroke="black" points="217,-213.3 164.89,-213.3 163,-211.41 163,-196.3 215.11,-196.3 217,-198.19 217,-213.3"/>
<polyline fill="none" stroke="black" points="215.11,-211.41 163,-211.41 "/>
<polyline fill="none" stroke="black" points="215.11,-211.41 215.11,-196.3 "/>
<polyline fill="none" stroke="black" points="215.11,-211.41 217,-213.3 "/>
<text text-anchor="middle" x="190" y="-202.1" font-family="Helvetica,sans-Serif" font-size="9.00">rule&#45;set</text>
</a>
</g>
</g>
<!-- src/main&#45;&gt;src/main/rule&#45;set -->
<g id="edge32" class="edge">
<title>src/main&#45;&gt;src/main/rule&#45;set</title>
<path fill="none" stroke="#770000" stroke-width="2" stroke-opacity="0.466667" d="M228.34,-255C223.88,-255 212,-255 212,-255 212,-255 212,-219.54 212,-219.54"/>
<polygon fill="#770000" fill-opacity="0.466667" stroke="#770000" stroke-width="2" stroke-opacity="0.466667" points="214.1,-219.54 212,-213.54 209.9,-219.54 214.1,-219.54"/>
</g>
<!-- src/extract/resolve -->
<!-- src/cli/compile&#45;config&#45;&gt;src/extract/resolve -->
<g id="edge7" class="edge">
<title>src/cli/compile&#45;config&#45;&gt;src/extract/resolve</title>
<g id="a_edge7"><a xlink:title="cli&#45;to&#45;main&#45;only&#45;warn">
<path fill="none" stroke="orange" stroke-width="2" d="M461.83,-247.33C461.83,-229.14 461.83,-189 461.83,-189 461.83,-189 853.98,-189 853.98,-189 853.98,-189 853.98,-154 853.98,-154 853.98,-154 860.28,-154 860.28,-154"/>
<polygon fill="orange" stroke="orange" stroke-width="2" points="860.28,-156.1 866.28,-154 860.28,-151.9 860.28,-156.1"/>
</a>
</g>
<text text-anchor="middle" x="607.63" y="-190.8" font-family="Helvetica,sans-Serif" font-size="9.00" fill="orange">cli&#45;to&#45;main&#45;only&#45;warn</text>
</g>
<!-- src/cli/compile&#45;config&#45;&gt;src/main/resolve&#45;options -->
<g id="edge8" class="edge">
<title>src/cli/compile&#45;config&#45;&gt;src/main/resolve&#45;options</title>
<path fill="none" stroke="#770000" stroke-width="2" stroke-opacity="0.466667" d="M435.87,-247.33C435.87,-232.25 435.87,-203 435.87,-203 435.87,-203 405.75,-203 405.75,-203"/>
<polygon fill="#770000" fill-opacity="0.466667" stroke="#770000" stroke-width="2" stroke-opacity="0.466667" points="405.75,-200.9 399.75,-203 405.75,-205.1 405.75,-200.9"/>
</g>
<!-- src/cli/init&#45;config&#45;&gt;src/cli -->
<g id="edge9" class="edge">
<title>src/cli/init&#45;config&#45;&gt;src/cli</title>
<path fill="none" stroke="#0000ff" stroke-width="2" stroke-opacity="0.466667" d="M531.13,-264.99C531.13,-277.29 531.13,-298 531.13,-298 531.13,-298 531.58,-298 531.58,-298"/>
<polygon fill="#0000ff" fill-opacity="0.466667" stroke="#0000ff" stroke-width="2" stroke-opacity="0.466667" points="529.64,-300.1 535.64,-298 529.64,-295.9 529.64,-300.1"/>
</g>
<!-- src/extract/utl -->
<g id="node15" class="node">
<title>src/extract/utl</title>
<g id="a_node15"><a xlink:href="https://github.com/sverweij/dependency-cruiser/blob/develop/src/extract/utl" xlink:title="utl">
<polygon fill="#ccffcc" stroke="black" points="634,-112 581.89,-112 580,-110.11 580,-95 632.11,-95 634,-96.89 634,-112"/>
<polyline fill="none" stroke="black" points="632.11,-110.11 580,-110.11 "/>
<polyline fill="none" stroke="black" points="632.11,-110.11 632.11,-95 "/>
<polyline fill="none" stroke="black" points="632.11,-110.11 634,-112 "/>
<text text-anchor="middle" x="607" y="-100.8" font-family="Helvetica,sans-Serif" font-size="9.00">utl</text>
</a>
</g>
</g>
<!-- src/extract/resolve&#45;&gt;src/extract/utl -->
<g id="edge23" class="edge">
<title>src/extract/resolve&#45;&gt;src/extract/utl</title>
<path fill="none" stroke="#007700" stroke-width="2" stroke-opacity="0.466667" d="M866.21,-154.22C866.21,-148.53 866.21,-103 866.21,-103 866.21,-103 640.25,-103 640.25,-103"/>
<polygon fill="#007700" fill-opacity="0.466667" stroke="#007700" stroke-width="2" stroke-opacity="0.466667" points="640.25,-100.9 634.25,-103 640.25,-105.1 640.25,-100.9"/>
</g>
<!-- src/extract/resolve/read&#45;package&#45;deps -->
<g id="node18" class="node">
<title>src/extract/resolve/read&#45;package&#45;deps</title>
<g id="a_node18"><a xlink:href="https://github.com/sverweij/dependency-cruiser/blob/develop/src/extract/resolve/read-package-deps" xlink:title="read&#45;package&#45;deps">
<polygon fill="#ccffcc" stroke="black" points="959.55,-112 868.34,-112 866.45,-110.11 866.45,-95 957.66,-95 959.55,-96.89 959.55,-112"/>
<polyline fill="none" stroke="black" points="957.66,-110.11 866.45,-110.11 "/>
<polyline fill="none" stroke="black" points="957.66,-110.11 957.66,-95 "/>
<polyline fill="none" stroke="black" points="957.66,-110.11 959.55,-112 "/>
<text text-anchor="middle" x="913" y="-100.8" font-family="Helvetica,sans-Serif" font-size="9.00">read&#45;package&#45;deps</text>
</a>
</g>
</g>
<!-- src/extract/resolve&#45;&gt;src/extract/resolve/read&#45;package&#45;deps -->
<g id="edge24" class="edge">
<title>src/extract/resolve&#45;&gt;src/extract/resolve/read&#45;package&#45;deps</title>
<path fill="none" stroke="#007700" stroke-width="2" stroke-opacity="0.466667" d="M868.01,-152.6C868.01,-152.6 868.01,-118.09 868.01,-118.09"/>
<polygon fill="#007700" fill-opacity="0.466667" stroke="#007700" stroke-width="2" stroke-opacity="0.466667" points="870.11,-118.09 868.01,-112.09 865.91,-118.09 870.11,-118.09"/>
</g>
<!-- src/main/resolve&#45;options&#45;&gt;src/extract/transpile -->
<g id="edge34" class="edge">
<title>src/main/resolve&#45;options&#45;&gt;src/extract/transpile</title>
<path fill="none" stroke="#007700" stroke-width="2" stroke-opacity="0.466667" d="M386.76,-196.21C386.76,-177.97 386.76,-137 386.76,-137 386.76,-137 500.17,-137 500.17,-137 500.17,-137 500.17,-118.3 500.17,-118.3"/>
<polygon fill="#007700" fill-opacity="0.466667" stroke="#007700" stroke-width="2" stroke-opacity="0.466667" points="502.27,-118.3 500.17,-112.3 498.07,-118.3 502.27,-118.3"/>
</g>
<!-- src/extract&#45;&gt;src/extract/resolve -->
<g id="edge16" class="edge">
<title>src/extract&#45;&gt;src/extract/resolve</title>
<path fill="none" stroke="#007700" stroke-width="2" stroke-opacity="0.466667" d="M586.4,-206.78C586.4,-212.72 586.4,-230 586.4,-230 586.4,-230 868,-230 868,-230 868,-230 868,-162.66 868,-162.66"/>
<polygon fill="#007700" fill-opacity="0.466667" stroke="#007700" stroke-width="2" stroke-opacity="0.466667" points="870.1,-162.66 868,-156.66 865.9,-162.66 870.1,-162.66"/>
</g>
<!-- src/extract/derive/circular -->
<g id="node12" class="node">
<title>src/extract/derive/circular</title>
<g id="a_node12"><a xlink:href="https://github.com/sverweij/dependency-cruiser/blob/develop/src/extract/derive/circular" xlink:title="circular">
<polygon fill="#ccffcc" stroke="black" points="774,-163.3 721.89,-163.3 720,-161.41 720,-146.3 772.11,-146.3 774,-148.19 774,-163.3"/>
<polyline fill="none" stroke="black" points="772.11,-161.41 720,-161.41 "/>
<polyline fill="none" stroke="black" points="772.11,-161.41 772.11,-146.3 "/>
<polyline fill="none" stroke="black" points="772.11,-161.41 774,-163.3 "/>
<text text-anchor="middle" x="747" y="-152.1" font-family="Helvetica,sans-Serif" font-size="9.00">circular</text>
</a>
</g>
</g>
<!-- src/extract&#45;&gt;src/extract/derive/circular -->
<g id="edge10" class="edge">
<title>src/extract&#45;&gt;src/extract/derive/circular</title>
<path fill="none" stroke="#007700" stroke-width="2" stroke-opacity="0.466667" d="M588.8,-204C606.38,-204 747,-204 747,-204 747,-204 747,-169.37 747,-169.37"/>
<polygon fill="#007700" fill-opacity="0.466667" stroke="#007700" stroke-width="2" stroke-opacity="0.466667" points="749.1,-169.37 747,-163.37 744.9,-169.37 749.1,-169.37"/>
</g>
<!-- src/extract/derive/orphan -->
<g id="node13" class="node">
<title>src/extract/derive/orphan</title>
<g id="a_node13"><a xlink:href="https://github.com/sverweij/dependency-cruiser/blob/develop/src/extract/derive/orphan" xlink:title="orphan">
<polygon fill="#ccffcc" stroke="black" points="708,-163.3 655.89,-163.3 654,-161.41 654,-146.3 706.11,-146.3 708,-148.19 708,-163.3"/>
<polyline fill="none" stroke="black" points="706.11,-161.41 654,-161.41 "/>
<polyline fill="none" stroke="black" points="706.11,-161.41 706.11,-146.3 "/>
<polyline fill="none" stroke="black" points="706.11,-161.41 708,-163.3 "/>
<text text-anchor="middle" x="681" y="-152.1" font-family="Helvetica,sans-Serif" font-size="9.00">orphan</text>
</a>
</g>
</g>
<!-- src/extract&#45;&gt;src/extract/derive/orphan -->
<g id="edge11" class="edge">
<title>src/extract&#45;&gt;src/extract/derive/orphan</title>
<path fill="none" stroke="#007700" stroke-width="2" stroke-opacity="0.466667" d="M587.6,-206.79C587.6,-211.11 587.6,-221 587.6,-221 587.6,-221 681,-221 681,-221 681,-221 681,-169.45 681,-169.45"/>
<polygon fill="#007700" fill-opacity="0.466667" stroke="#007700" stroke-width="2" stroke-opacity="0.466667" points="683.1,-169.45 681,-163.45 678.9,-169.45 683.1,-169.45"/>
</g>
<!-- src/extract/derive/reachable -->
<g id="node14" class="node">
<title>src/extract/derive/reachable</title>
<g id="a_node14"><a xlink:href="https://github.com/sverweij/dependency-cruiser/blob/develop/src/extract/derive/reachable" xlink:title="reachable">
<polygon fill="#ccffcc" stroke="black" points="841.53,-163.3 788.36,-163.3 786.47,-161.41 786.47,-146.3 839.64,-146.3 841.53,-148.19 841.53,-163.3"/>
<polyline fill="none" stroke="black" points="839.64,-161.41 786.47,-161.41 "/>
<polyline fill="none" stroke="black" points="839.64,-161.41 839.64,-146.3 "/>
<polyline fill="none" stroke="black" points="839.64,-161.41 841.53,-163.3 "/>
<text text-anchor="middle" x="814" y="-152.1" font-family="Helvetica,sans-Serif" font-size="9.00">reachable</text>
</a>
</g>
</g>
<!-- src/extract&#45;&gt;src/extract/derive/reachable -->
<g id="edge12" class="edge">
<title>src/extract&#45;&gt;src/extract/derive/reachable</title>
<path fill="none" stroke="#007700" stroke-width="2" stroke-opacity="0.466667" d="M588.96,-205C611.15,-205 814,-205 814,-205 814,-205 814,-169.54 814,-169.54"/>
<polygon fill="#007700" fill-opacity="0.466667" stroke="#007700" stroke-width="2" stroke-opacity="0.466667" points="816.1,-169.54 814,-163.54 811.9,-169.54 816.1,-169.54"/>
</g>
<!-- src/extract&#45;&gt;src/extract/utl -->
<g id="edge13" class="edge">
<title>src/extract&#45;&gt;src/extract/utl</title>
<path fill="none" stroke="#007700" stroke-width="2" stroke-opacity="0.466667" d="M587.07,-203C588.54,-203 612,-203 612,-203 612,-203 612,-118.33 612,-118.33"/>
<polygon fill="#007700" fill-opacity="0.466667" stroke="#007700" stroke-width="2" stroke-opacity="0.466667" points="614.1,-118.33 612,-112.33 609.9,-118.33 614.1,-118.33"/>
</g>
<!-- src/validate -->
<g id="node16" class="node">
<title>src/validate</title>
<g id="a_node16"><a xlink:href="https://github.com/sverweij/dependency-cruiser/blob/develop/src/validate" xlink:title="validate">
<polygon fill="#ccccff" stroke="black" points="428,-112 375.89,-112 374,-110.11 374,-95 426.11,-95 428,-96.89 428,-112"/>
<polyline fill="none" stroke="black" points="426.11,-110.11 374,-110.11 "/>
<polyline fill="none" stroke="black" points="426.11,-110.11 426.11,-95 "/>
<polyline fill="none" stroke="black" points="426.11,-110.11 428,-112 "/>
<text text-anchor="middle" x="401" y="-100.8" font-family="Helvetica,sans-Serif" font-size="9.00">validate</text>
</a>
</g>
</g>
<!-- src/extract&#45;&gt;src/validate -->
<g id="edge14" class="edge">
<title>src/extract&#45;&gt;src/validate</title>
<path fill="none" stroke="#0000ff" stroke-width="2" stroke-opacity="0.466667" d="M586.4,-202.91C586.4,-196.5 586.4,-176 586.4,-176 586.4,-176 411.75,-176 411.75,-176 411.75,-176 411.75,-118.1 411.75,-118.1"/>
<polygon fill="#0000ff" fill-opacity="0.466667" stroke="#0000ff" stroke-width="2" stroke-opacity="0.466667" points="413.85,-118.1 411.75,-112.1 409.65,-118.1 413.85,-118.1"/>
</g>
<!-- src/extract/parse -->
<g id="node17" class="node">
<title>src/extract/parse</title>
<g id="a_node17"><a xlink:href="https://github.com/sverweij/dependency-cruiser/blob/develop/src/extract/parse" xlink:title="parse">
<polygon fill="#ccffcc" stroke="black" points="594,-163.3 541.89,-163.3 540,-161.41 540,-146.3 592.11,-146.3 594,-148.19 594,-163.3"/>
<polyline fill="none" stroke="black" points="592.11,-161.41 540,-161.41 "/>
<polyline fill="none" stroke="black" points="592.11,-161.41 592.11,-146.3 "/>
<polyline fill="none" stroke="black" points="592.11,-161.41 594,-163.3 "/>
<text text-anchor="middle" x="567" y="-152.1" font-family="Helvetica,sans-Serif" font-size="9.00">parse</text>
</a>
</g>
</g>
<!-- src/extract&#45;&gt;src/extract/parse -->
<g id="edge15" class="edge">
<title>src/extract&#45;&gt;src/extract/parse</title>
<path fill="none" stroke="#007700" stroke-width="2" stroke-opacity="0.466667" d="M587.6,-202.65C587.6,-202.65 587.6,-169.57 587.6,-169.57"/>
<polygon fill="#007700" fill-opacity="0.466667" stroke="#007700" stroke-width="2" stroke-opacity="0.466667" points="589.7,-169.57 587.6,-163.57 585.5,-169.57 589.7,-169.57"/>
</g>
<!-- src/extract&#45;&gt;src/extract/resolve/read&#45;package&#45;deps -->
<g id="edge17" class="edge">
<title>src/extract&#45;&gt;src/extract/resolve/read&#45;package&#45;deps</title>
<path fill="none" stroke="#007700" stroke-width="2" stroke-opacity="0.466667" d="M589.09,-205C617.01,-205 914.79,-205 914.79,-205 914.79,-205 914.79,-118.15 914.79,-118.15"/>
<polygon fill="#007700" fill-opacity="0.466667" stroke="#007700" stroke-width="2" stroke-opacity="0.466667" points="916.89,-118.15 914.79,-112.15 912.69,-118.15 916.89,-118.15"/>
</g>
<!-- src/extract&#45;&gt;src/extract/transpile -->
<g id="edge18" class="edge">
<title>src/extract&#45;&gt;src/extract/transpile</title>
<path fill="none" stroke="#007700" stroke-width="2" stroke-opacity="0.466667" d="M585.02,-204C583.67,-204 582.13,-204 582.13,-204 582.13,-204 582.13,-169 582.13,-169 582.13,-169 518.17,-169 518.17,-169 518.17,-169 518.17,-118.06 518.17,-118.06"/>
<polygon fill="#007700" fill-opacity="0.466667" stroke="#007700" stroke-width="2" stroke-opacity="0.466667" points="520.27,-118.06 518.17,-112.06 516.07,-118.06 520.27,-118.06"/>
</g>
<!-- src/utl -->
<g id="node20" class="node">
<title>src/utl</title>
<g id="a_node20"><a xlink:href="https://github.com/sverweij/dependency-cruiser/blob/develop/src/utl" xlink:title="utl">
<polygon fill="#cccccc" stroke="black" points="414,-71 361.89,-71 360,-69.11 360,-54 412.11,-54 414,-55.89 414,-71"/>
<polyline fill="none" stroke="black" points="412.11,-69.11 360,-69.11 "/>
<polyline fill="none" stroke="black" points="412.11,-69.11 412.11,-54 "/>
<polyline fill="none" stroke="black" points="412.11,-69.11 414,-71 "/>
<text text-anchor="middle" x="387" y="-59.8" font-family="Helvetica,sans-Serif" font-size="9.00">utl</text>
</a>
</g>
</g>
<!-- src/extract&#45;&gt;src/utl -->
<g id="edge19" class="edge">
<title>src/extract&#45;&gt;src/utl</title>
<path fill="none" stroke="#aaaaaa" stroke-width="2" stroke-opacity="0.466667" d="M585.14,-205C570.92,-205 479.92,-205 479.92,-205 479.92,-205 479.92,-183 479.92,-183 479.92,-183 369.33,-183 369.33,-183 369.33,-183 369.33,-77.17 369.33,-77.17"/>
<polygon fill="#aaaaaa" fill-opacity="0.466667" stroke="#aaaaaa" stroke-width="2" stroke-opacity="0.466667" points="371.43,-77.17 369.33,-71.17 367.23,-77.17 371.43,-77.17"/>
</g>
<!-- src/extract/ast&#45;extractors -->
<g id="node21" class="node">
<title>src/extract/ast&#45;extractors</title>
<g id="a_node21"><a xlink:href="https://github.com/sverweij/dependency-cruiser/blob/develop/src/extract/ast-extractors" xlink:title="ast&#45;extractors">
<polygon fill="#ccffcc" stroke="black" points="514.02,-163.3 445.87,-163.3 443.98,-161.41 443.98,-146.3 512.13,-146.3 514.02,-148.19 514.02,-163.3"/>
<polyline fill="none" stroke="black" points="512.13,-161.41 443.98,-161.41 "/>
<polyline fill="none" stroke="black" points="512.13,-161.41 512.13,-146.3 "/>
<polyline fill="none" stroke="black" points="512.13,-161.41 514.02,-163.3 "/>
<text text-anchor="middle" x="479" y="-152.1" font-family="Helvetica,sans-Serif" font-size="9.00">ast&#45;extractors</text>
</a>
</g>
</g>
<!-- src/extract&#45;&gt;src/extract/ast&#45;extractors -->
<g id="edge20" class="edge">
<title>src/extract&#45;&gt;src/extract/ast&#45;extractors</title>
<path fill="none" stroke="#007700" stroke-width="2" stroke-opacity="0.466667" d="M585.26,-204C573.33,-204 503.88,-204 503.88,-204 503.88,-204 503.88,-169.37 503.88,-169.37"/>
<polygon fill="#007700" fill-opacity="0.466667" stroke="#007700" stroke-width="2" stroke-opacity="0.466667" points="505.98,-169.37 503.88,-163.37 501.78,-169.37 505.98,-169.37"/>
</g>
<!-- src/validate&#45;&gt;src/utl -->
<g id="edge46" class="edge">
<title>src/validate&#45;&gt;src/utl</title>
<path fill="none" stroke="#aaaaaa" stroke-width="2" stroke-opacity="0.466667" d="M394,-94.8C394,-94.8 394,-77.18 394,-77.18"/>
<polygon fill="#aaaaaa" fill-opacity="0.466667" stroke="#aaaaaa" stroke-width="2" stroke-opacity="0.466667" points="396.1,-77.18 394,-71.18 391.9,-77.18 396.1,-77.18"/>
</g>
<!-- src/extract/parse&#45;&gt;src/extract/utl -->
<g id="edge22" class="edge">
<title>src/extract/parse&#45;&gt;src/extract/utl</title>
<path fill="none" stroke="#007700" stroke-width="2" stroke-opacity="0.466667" d="M587,-145.86C587,-145.86 587,-118.33 587,-118.33"/>
<polygon fill="#007700" fill-opacity="0.466667" stroke="#007700" stroke-width="2" stroke-opacity="0.466667" points="589.1,-118.33 587,-112.33 584.9,-118.33 589.1,-118.33"/>
</g>
<!-- src/extract/parse&#45;&gt;src/extract/transpile -->
<g id="edge21" class="edge">
<title>src/extract/parse&#45;&gt;src/extract/transpile</title>
<path fill="none" stroke="#007700" stroke-width="2" stroke-opacity="0.466667" d="M539.84,-154C530.38,-154 522.09,-154 522.09,-154 522.09,-154 522.09,-118.3 522.09,-118.3"/>
<polygon fill="#007700" fill-opacity="0.466667" stroke="#007700" stroke-width="2" stroke-opacity="0.466667" points="524.19,-118.3 522.09,-112.3 519.99,-118.3 524.19,-118.3"/>
</g>
<!-- src/extract/derive -->
<!-- src/report&#45;&gt;src/utl -->
<g id="edge42" class="edge">
<title>src/report&#45;&gt;src/utl</title>
<path fill="none" stroke="#aaaaaa" stroke-width="2" stroke-opacity="0.466667" d="M188.01,-104C207.64,-104 364.67,-104 364.67,-104 364.67,-104 364.67,-77.3 364.67,-77.3"/>
<polygon fill="#aaaaaa" fill-opacity="0.466667" stroke="#aaaaaa" stroke-width="2" stroke-opacity="0.466667" points="366.77,-77.3 364.67,-71.3 362.57,-77.3 366.77,-77.3"/>
</g>
<!-- src/report/anon -->
<g id="node28" class="node">
<title>src/report/anon</title>
<g id="a_node28"><a xlink:href="https://github.com/sverweij/dependency-cruiser/blob/develop/src/report/anon" xlink:title="anon">
<polygon fill="#ffccff" stroke="black" points="144,-71 91.89,-71 90,-69.11 90,-54 142.11,-54 144,-55.89 144,-71"/>
<polyline fill="none" stroke="black" points="142.11,-69.11 90,-69.11 "/>
<polyline fill="none" stroke="black" points="142.11,-69.11 142.11,-54 "/>
<polyline fill="none" stroke="black" points="142.11,-69.11 144,-71 "/>
<text text-anchor="middle" x="117" y="-59.8" font-family="Helvetica,sans-Serif" font-size="9.00">anon</text>
</a>
</g>
</g>
<!-- src/report&#45;&gt;src/report/anon -->
<g id="edge37" class="edge">
<title>src/report&#45;&gt;src/report/anon</title>
<path fill="none" stroke="#ff00ff" stroke-width="2" stroke-opacity="0.466667" d="M184.83,-102C175.87,-102 118.5,-102 118.5,-102 118.5,-102 118.5,-77.27 118.5,-77.27"/>
<polygon fill="#ff00ff" fill-opacity="0.466667" stroke="#ff00ff" stroke-width="2" stroke-opacity="0.466667" points="120.6,-77.27 118.5,-71.27 116.4,-77.27 120.6,-77.27"/>
</g>
<!-- src/report/csv -->
<g id="node29" class="node">
<title>src/report/csv</title>
<g id="a_node29"><a xlink:href="https://github.com/sverweij/dependency-cruiser/blob/develop/src/report/csv" xlink:title="csv">
<polygon fill="#ffccff" stroke="black" points="210,-71 157.89,-71 156,-69.11 156,-54 208.11,-54 210,-55.89 210,-71"/>
<polyline fill="none" stroke="black" points="208.11,-69.11 156,-69.11 "/>
<polyline fill="none" stroke="black" points="208.11,-69.11 208.11,-54 "/>
<polyline fill="none" stroke="black" points="208.11,-69.11 210,-71 "/>
<text text-anchor="middle" x="183" y="-59.8" font-family="Helvetica,sans-Serif" font-size="9.00">csv</text>
</a>
</g>
</g>
<!-- src/report&#45;&gt;src/report/csv -->
<g id="edge38" class="edge">
<title>src/report&#45;&gt;src/report/csv</title>
<path fill="none" stroke="#ff00ff" stroke-width="2" stroke-opacity="0.466667" d="M186,-101.3C186,-101.3 186,-77.12 186,-77.12"/>
<polygon fill="#ff00ff" fill-opacity="0.466667" stroke="#ff00ff" stroke-width="2" stroke-opacity="0.466667" points="188.1,-77.12 186,-71.12 183.9,-77.12 188.1,-77.12"/>
</g>
<!-- src/report/dot -->
<g id="node30" class="node">
<title>src/report/dot</title>
<g id="a_node30"><a xlink:href="https://github.com/sverweij/dependency-cruiser/blob/develop/src/report/dot" xlink:title="dot">
<polygon fill="#ffccff" stroke="black" points="276,-71 223.89,-71 222,-69.11 222,-54 274.11,-54 276,-55.89 276,-71"/>
<polyline fill="none" stroke="black" points="274.11,-69.11 222,-69.11 "/>
<polyline fill="none" stroke="black" points="274.11,-69.11 274.11,-54 "/>
<polyline fill="none" stroke="black" points="274.11,-69.11 276,-71 "/>
<text text-anchor="middle" x="249" y="-59.8" font-family="Helvetica,sans-Serif" font-size="9.00">dot</text>
</a>
</g>
</g>
<!-- src/report&#45;&gt;src/report/dot -->
<g id="edge39" class="edge">
<title>src/report&#45;&gt;src/report/dot</title>
<path fill="none" stroke="#ff00ff" stroke-width="2" stroke-opacity="0.466667" d="M187.09,-102C193.86,-102 230,-102 230,-102 230,-102 230,-77.27 230,-77.27"/>
<polygon fill="#ff00ff" fill-opacity="0.466667" stroke="#ff00ff" stroke-width="2" stroke-opacity="0.466667" points="232.1,-77.27 230,-71.27 227.9,-77.27 232.1,-77.27"/>
</g>
<!-- src/report/error&#45;html -->
<g id="node31" class="node">
<title>src/report/error&#45;html</title>
<g id="a_node31"><a xlink:href="https://github.com/sverweij/dependency-cruiser/blob/develop/src/report/error-html" xlink:title="error&#45;html">
<polygon fill="#ffccff" stroke="black" points="343.5,-71 290.39,-71 288.5,-69.11 288.5,-54 341.61,-54 343.5,-55.89 343.5,-71"/>
<polyline fill="none" stroke="black" points="341.61,-69.11 288.5,-69.11 "/>
<polyline fill="none" stroke="black" points="341.61,-69.11 341.61,-54 "/>
<polyline fill="none" stroke="black" points="341.61,-69.11 343.5,-71 "/>
<text text-anchor="middle" x="316" y="-59.8" font-family="Helvetica,sans-Serif" font-size="9.00">error&#45;html</text>
</a>
</g>
</g>
<!-- src/report&#45;&gt;src/report/error&#45;html -->
<g id="edge40" class="edge">
<title>src/report&#45;&gt;src/report/error&#45;html</title>
<path fill="none" stroke="#ff00ff" stroke-width="2" stroke-opacity="0.466667" d="M187.97,-103C203.06,-103 299.63,-103 299.63,-103 299.63,-103 299.63,-77.09 299.63,-77.09"/>
<polygon fill="#ff00ff" fill-opacity="0.466667" stroke="#ff00ff" stroke-width="2" stroke-opacity="0.466667" points="301.73,-77.09 299.63,-71.09 297.53,-77.09 301.73,-77.09"/>
</g>
<!-- src/report/html -->
<g id="node32" class="node">
<title>src/report/html</title>
<g id="a_node32"><a xlink:href="https://github.com/sverweij/dependency-cruiser/blob/develop/src/report/html" xlink:title="html">
<polygon fill="#ffccff" stroke="black" points="78,-71 25.89,-71 24,-69.11 24,-54 76.11,-54 78,-55.89 78,-71"/>
<polyline fill="none" stroke="black" points="76.11,-69.11 24,-69.11 "/>
<polyline fill="none" stroke="black" points="76.11,-69.11 76.11,-54 "/>
<polyline fill="none" stroke="black" points="76.11,-69.11 78,-71 "/>
<text text-anchor="middle" x="51" y="-59.8" font-family="Helvetica,sans-Serif" font-size="9.00">html</text>
</a>
</g>
</g>
<!-- src/report&#45;&gt;src/report/html -->
<g id="edge41" class="edge">
<title>src/report&#45;&gt;src/report/html</title>
<path fill="none" stroke="#ff00ff" stroke-width="2" stroke-opacity="0.466667" d="M184.09,-104C167.68,-104 51,-104 51,-104 51,-104 51,-77.3 51,-77.3"/>
<polygon fill="#ff00ff" fill-opacity="0.466667" stroke="#ff00ff" stroke-width="2" stroke-opacity="0.466667" points="53.1,-77.3 51,-71.3 48.9,-77.3 53.1,-77.3"/>
</g>
<!-- src/main/options&#45;&gt;src/report -->
<g id="edge33" class="edge">
<title>src/main/options&#45;&gt;src/report</title>
<path fill="none" stroke="#ff00ff" stroke-width="2" stroke-opacity="0.466667" d="M185.4,-145.86C185.4,-145.86 185.4,-111.37 185.4,-111.37"/>
<polygon fill="#ff00ff" fill-opacity="0.466667" stroke="#ff00ff" stroke-width="2" stroke-opacity="0.466667" points="187.5,-111.37 185.4,-105.37 183.3,-111.37 187.5,-111.37"/>
</g>
<!-- src/main/rule&#45;set&#45;&gt;src/schema -->
<g id="edge35" class="edge">
<title>src/main/rule&#45;set&#45;&gt;src/schema</title>
<path fill="none" stroke="#000000" stroke-width="2" stroke-opacity="0.200000" d="M162.71,-204C146.47,-204 129,-204 129,-204 129,-204 129,-169.37 129,-169.37"/>
<polygon fill="#000000" fill-opacity="0.200000" stroke="#000000" stroke-width="2" stroke-opacity="0.200000" points="131.1,-169.37 129,-163.37 126.9,-169.37 131.1,-169.37"/>
</g>
<!-- src/main/rule&#45;set&#45;&gt;src/main/options -->
<g id="edge36" class="edge">
<title>src/main/rule&#45;set&#45;&gt;src/main/options</title>
<path fill="none" stroke="#770000" stroke-width="2" stroke-opacity="0.466667" d="M190,-196.09C190,-196.09 190,-169.41 190,-169.41"/>
<polygon fill="#770000" fill-opacity="0.466667" stroke="#770000" stroke-width="2" stroke-opacity="0.466667" points="192.1,-169.41 190,-163.41 187.9,-169.41 192.1,-169.41"/>
</g>
<!-- src/report/utl -->
<g id="node33" class="node">
<title>src/report/utl</title>
<g id="a_node33"><a xlink:href="https://github.com/sverweij/dependency-cruiser/blob/develop/src/report/utl" xlink:title="utl">
<polygon fill="#ffccff" stroke="black" points="210,-41 157.89,-41 156,-39.11 156,-24 208.11,-24 210,-25.89 210,-41"/>
<polyline fill="none" stroke="black" points="208.11,-39.11 156,-39.11 "/>
<polyline fill="none" stroke="black" points="208.11,-39.11 208.11,-24 "/>
<polyline fill="none" stroke="black" points="208.11,-39.11 210,-41 "/>
<text text-anchor="middle" x="183" y="-29.8" font-family="Helvetica,sans-Serif" font-size="9.00">utl</text>
</a>
</g>
</g>
<!-- src/report/csv&#45;&gt;src/report/utl -->
<g id="edge43" class="edge">
<title>src/report/csv&#45;&gt;src/report/utl</title>
<path fill="none" stroke="#ff00ff" stroke-width="2" stroke-opacity="0.466667" d="M183,-53.98C183,-53.98 183,-47.14 183,-47.14"/>
<polygon fill="#ff00ff" fill-opacity="0.466667" stroke="#ff00ff" stroke-width="2" stroke-opacity="0.466667" points="185.1,-47.14 183,-41.14 180.9,-47.14 185.1,-47.14"/>
</g>
<!-- src/report/dot&#45;&gt;src/report/utl -->
<g id="edge44" class="edge">
<title>src/report/dot&#45;&gt;src/report/utl</title>
<path fill="none" stroke="#ff00ff" stroke-width="2" stroke-opacity="0.466667" d="M249,-53.84C249,-44.82 249,-32 249,-32 249,-32 216.23,-32 216.23,-32"/>
<polygon fill="#ff00ff" fill-opacity="0.466667" stroke="#ff00ff" stroke-width="2" stroke-opacity="0.466667" points="216.23,-29.9 210.23,-32 216.23,-34.1 216.23,-29.9"/>
</g>
<!-- src/report/html&#45;&gt;src/report/utl -->
<g id="edge45" class="edge">
<title>src/report/html&#45;&gt;src/report/utl</title>
<path fill="none" stroke="#ff00ff" stroke-width="2" stroke-opacity="0.466667" d="M51,-53.84C51,-44.82 51,-32 51,-32 51,-32 149.97,-32 149.97,-32"/>
<polygon fill="#ff00ff" fill-opacity="0.466667" stroke="#ff00ff" stroke-width="2" stroke-opacity="0.466667" points="149.97,-34.1 155.97,-32 149.97,-29.9 149.97,-34.1"/>
</g>
</g>
</svg>
