<?xml version="1.0" encoding="UTF-8" standalone="no"?>
<!DOCTYPE svg PUBLIC "-//W3C//DTD SVG 1.1//EN"
 "http://www.w3.org/Graphics/SVG/1.1/DTD/svg11.dtd">
<!-- Generated by graphviz version 8.0.1 (20230327.1645)
 -->
<!-- Title: dependency&#45;cruiser output Pages: 1 -->
<svg width="310pt" height="249pt"
 viewBox="0.00 0.00 310.00 249.00" xmlns="http://www.w3.org/2000/svg" xmlns:xlink="http://www.w3.org/1999/xlink">
<g id="graph0" class="graph" transform="scale(1 1) rotate(0) translate(4 245)">
<title>dependency&#45;cruiser output</title>
<polygon fill="white" stroke="none" points="-4,4 -4,-245 306,-245 306,4 -4,4"/>
<g id="clust1" class="cluster">
<title>cluster_src</title>
<path fill="#ffffff" stroke="black" stroke-width="2" d="M20,-8C20,-8 282,-8 282,-8 288,-8 294,-14 294,-20 294,-20 294,-203 294,-203 294,-209 288,-215 282,-215 282,-215 20,-215 20,-215 14,-215 8,-209 8,-203 8,-203 8,-20 8,-20 8,-14 14,-8 20,-8"/>
<text text-anchor="middle" x="151" y="-203.8" font-family="Helvetica,sans-Serif" font-weight="bold" font-size="9.00">src</text>
</g>
<!-- bin/ -->
<g id="node1" class="node">
<title>bin/</title>
<g id="a_node1"><a xlink:href="https://github.com/sverweij/dependency-cruiser/blob/develop/bin/" xlink:title="bin">
<polygon fill="#ffffcc" stroke="black" points="118,-241 66,-241 64,-239 64,-223 116,-223 118,-225 118,-241"/>
<polyline fill="none" stroke="black" points="116,-239 64,-239"/>
<polyline fill="none" stroke="black" points="116,-239 116,-223"/>
<polyline fill="none" stroke="black" points="116,-239 118,-241"/>
<text text-anchor="start" x="84.5" y="-229.8" font-family="Helvetica,sans-Serif" font-size="9.00">bin</text>
</a>
</g>
</g>
<!-- src/cli -->
<g id="node2" class="node">
<title>src/cli</title>
<g id="a_node2"><a xlink:href="https://github.com/sverweij/dependency-cruiser/blob/develop/src/cli" xlink:title="not&#45;reachable&#45;from&#45;folder&#45;index">
<polygon fill="#ccccff" stroke="blue" points="118,-189 66,-189 64,-187 64,-171 116,-171 118,-173 118,-189"/>
<polyline fill="none" stroke="blue" points="116,-187 64,-187"/>
<polyline fill="none" stroke="blue" points="116,-187 116,-171"/>
<polyline fill="none" stroke="blue" points="116,-187 118,-189"/>
<text text-anchor="start" x="86" y="-177.8" font-family="Helvetica,sans-Serif" font-size="9.00" fill="blue">cli</text>
</a>
</g>
</g>
<!-- bin/&#45;&gt;src/cli -->
<g id="edge1" class="edge">
<title>bin/&#45;&gt;src/cli</title>
<path fill="none" stroke="#0000ff" stroke-width="2" stroke-opacity="0.466667" d="M91,-222.94C91,-222.94 91,-198.3 91,-198.3"/>
<polygon fill="#0000ff" fill-opacity="0.466667" stroke="#0000ff" stroke-width="2" stroke-opacity="0.466667" points="93.1,-198.3 91,-192.3 88.9,-198.3 93.1,-198.3"/>
</g>
<!-- src/extract -->
<g id="node4" class="node">
<title>src/extract</title>
<g id="a_node4"><a xlink:href="https://github.com/sverweij/dependency-cruiser/blob/develop/src/extract" xlink:title="extract">
<polygon fill="#ccffcc" stroke="black" points="84,-65 32,-65 30,-63 30,-47 82,-47 84,-49 84,-65"/>
<polyline fill="none" stroke="black" points="82,-63 30,-63"/>
<polyline fill="none" stroke="black" points="82,-63 82,-47"/>
<polyline fill="none" stroke="black" points="82,-63 84,-65"/>
<text text-anchor="start" x="43" y="-53.8" font-family="Helvetica,sans-Serif" font-size="9.00">extract</text>
</a>
</g>
</g>
<!-- src/cli&#45;&gt;src/extract -->
<g id="edge7" class="edge">
<title>src/cli&#45;&gt;src/extract</title>
<path fill="none" stroke="#007700" stroke-width="2" stroke-opacity="0.466667" d="M63.68,-180C50.29,-180 37,-180 37,-180 37,-180 37,-74.32 37,-74.32"/>
<polygon fill="#007700" fill-opacity="0.466667" stroke="#007700" stroke-width="2" stroke-opacity="0.466667" points="39.1,-74.32 37,-68.32 34.9,-74.32 39.1,-74.32"/>
</g>
<!-- src/utl -->
<g id="node5" class="node">
<title>src/utl</title>
<g id="a_node5"><a xlink:href="https://github.com/sverweij/dependency-cruiser/blob/develop/src/utl" xlink:title="utl&#45;module&#45;not&#45;shared&#45;enough">
<polygon fill="#cccccc" stroke="blue" points="238,-34 186,-34 184,-32 184,-16 236,-16 238,-18 238,-34"/>
<polyline fill="none" stroke="blue" points="236,-32 184,-32"/>
<polyline fill="none" stroke="blue" points="236,-32 236,-16"/>
<polyline fill="none" stroke="blue" points="236,-32 238,-34"/>
<text text-anchor="start" x="206" y="-22.8" font-family="Helvetica,sans-Serif" font-size="9.00" fill="blue">utl</text>
</a>
</g>
</g>
<!-- src/cli&#45;&gt;src/utl -->
<g id="edge8" class="edge">
<title>src/cli&#45;&gt;src/utl</title>
<path fill="none" stroke="#aaaaaa" stroke-width="2" stroke-opacity="0.466667" d="M118.25,-180C172.75,-180 290,-180 290,-180 290,-180 290,-22 290,-22 290,-22 247.19,-22 247.19,-22"/>
<polygon fill="#aaaaaa" fill-opacity="0.466667" stroke="#aaaaaa" stroke-width="2" stroke-opacity="0.466667" points="247.19,-19.9 241.19,-22 247.19,-24.1 247.19,-19.9"/>
</g>
<!-- src/config&#45;utl -->
<g id="node7" class="node">
<title>src/config&#45;utl</title>
<g id="a_node7"><a xlink:href="https://github.com/sverweij/dependency-cruiser/blob/develop/src/config-utl" xlink:title="config&#45;utl">
<polygon fill="#99ffff" stroke="black" points="98,-158 46,-158 44,-156 44,-140 96,-140 98,-142 98,-158"/>
<polyline fill="none" stroke="black" points="96,-156 44,-156"/>
<polyline fill="none" stroke="black" points="96,-156 96,-140"/>
<polyline fill="none" stroke="black" points="96,-156 98,-158"/>
<text text-anchor="start" x="52" y="-146.8" font-family="Helvetica,sans-Serif" font-size="9.00">config&#45;utl</text>
</a>
</g>
</g>
<!-- src/cli&#45;&gt;src/config&#45;utl -->
<g id="edge5" class="edge">
<title>src/cli&#45;&gt;src/config&#45;utl</title>
<path fill="none" stroke="#229999" stroke-width="2" stroke-opacity="0.466667" d="M81,-170.53C81,-170.53 81,-167.41 81,-167.41"/>
<polygon fill="#229999" fill-opacity="0.466667" stroke="#229999" stroke-width="2" stroke-opacity="0.466667" points="83.1,-167.41 81,-161.41 78.9,-167.41 83.1,-167.41"/>
</g>
<!-- src/main -->
<g id="node8" class="node">
<title>src/main</title>
<g id="a_node8"><a xlink:href="https://github.com/sverweij/dependency-cruiser/blob/develop/src/main" xlink:title="main">
<polygon fill="#ffcccc" stroke="black" points="132,-127 80,-127 78,-125 78,-109 130,-109 132,-111 132,-127"/>
<polyline fill="none" stroke="black" points="130,-125 78,-125"/>
<polyline fill="none" stroke="black" points="130,-125 130,-109"/>
<polyline fill="none" stroke="black" points="130,-125 132,-127"/>
<text text-anchor="start" x="94.5" y="-115.8" font-family="Helvetica,sans-Serif" font-size="9.00">main</text>
</a>
</g>
</g>
<!-- src/cli&#45;&gt;src/main -->
<g id="edge6" class="edge">
<title>src/cli&#45;&gt;src/main</title>
<path fill="none" stroke="#770000" stroke-width="2" stroke-opacity="0.466667" d="M108,-170.58C108,-170.58 108,-136.1 108,-136.1"/>
<polygon fill="#770000" fill-opacity="0.466667" stroke="#770000" stroke-width="2" stroke-opacity="0.466667" points="110.1,-136.1 108,-130.1 105.9,-136.1 110.1,-136.1"/>
</g>
<!-- src/cache -->
<g id="node3" class="node">
<title>src/cache</title>
<g id="a_node3"><a xlink:href="https://github.com/sverweij/dependency-cruiser/blob/develop/src/cache" xlink:title="cache">
<polygon fill="#ffffcc" stroke="black" points="126,-96 74,-96 72,-94 72,-78 124,-78 126,-80 126,-96"/>
<polyline fill="none" stroke="black" points="124,-94 72,-94"/>
<polyline fill="none" stroke="black" points="124,-94 124,-78"/>
<polyline fill="none" stroke="black" points="124,-94 126,-96"/>
<text text-anchor="start" x="86.5" y="-84.8" font-family="Helvetica,sans-Serif" font-size="9.00">cache</text>
</a>
</g>
</g>
<!-- src/cache&#45;&gt;src/extract -->
<g id="edge2" class="edge">
<title>src/cache&#45;&gt;src/extract</title>
<path fill="none" stroke="#007700" stroke-width="2" stroke-opacity="0.466667" d="M78,-77.53C78,-77.53 78,-74.41 78,-74.41"/>
<polygon fill="#007700" fill-opacity="0.466667" stroke="#007700" stroke-width="2" stroke-opacity="0.466667" points="80.1,-74.41 78,-68.41 75.9,-74.41 80.1,-74.41"/>
</g>
<!-- src/cache&#45;&gt;src/utl -->
<g id="edge3" class="edge">
<title>src/cache&#45;&gt;src/utl</title>
<path fill="none" stroke="#aaaaaa" stroke-width="2" stroke-opacity="0.466667" d="M92,-77.58C92,-73.22 92,-69 92,-69 92,-69 199,-69 199,-69 199,-69 199,-43.33 199,-43.33"/>
<polygon fill="#aaaaaa" fill-opacity="0.466667" stroke="#aaaaaa" stroke-width="2" stroke-opacity="0.466667" points="201.1,-43.33 199,-37.33 196.9,-43.33 201.1,-43.33"/>
</g>
<!-- src/graph&#45;utl -->
<g id="node6" class="node">
<title>src/graph&#45;utl</title>
<g id="a_node6"><a xlink:href="https://github.com/sverweij/dependency-cruiser/blob/develop/src/graph-utl" xlink:title="graph&#45;utl">
<polygon fill="#ffcccc" stroke="black" points="124,-34 72,-34 70,-32 70,-16 122,-16 124,-18 124,-34"/>
<polyline fill="none" stroke="black" points="122,-32 70,-32"/>
<polyline fill="none" stroke="black" points="122,-32 122,-16"/>
<polyline fill="none" stroke="black" points="122,-32 124,-34"/>
<text text-anchor="start" x="78.5" y="-22.8" font-family="Helvetica,sans-Serif" font-size="9.00">graph&#45;utl</text>
</a>
</g>
</g>
<!-- src/cache&#45;&gt;src/graph&#45;utl -->
<g id="edge4" class="edge">
<title>src/cache&#45;&gt;src/graph&#45;utl</title>
<path fill="none" stroke="#770000" stroke-width="2" stroke-opacity="0.466667" d="M100,-77.58C100,-77.58 100,-43.1 100,-43.1"/>
<polygon fill="#770000" fill-opacity="0.466667" stroke="#770000" stroke-width="2" stroke-opacity="0.466667" points="102.1,-43.1 100,-37.1 97.9,-43.1 102.1,-43.1"/>
</g>
<!-- src/extract&#45;&gt;src/utl -->
<g id="edge14" class="edge">
<title>src/extract&#45;&gt;src/utl</title>
<path fill="none" stroke="#aaaaaa" stroke-width="2" stroke-opacity="0.466667" d="M79.33,-46.51C79.33,-43.06 79.33,-40 79.33,-40 79.33,-40 189,-40 189,-40 189,-40 189,-39.42 189,-39.42"/>
<polygon fill="#aaaaaa" fill-opacity="0.466667" stroke="#aaaaaa" stroke-width="2" stroke-opacity="0.466667" points="191.1,-43.24 189,-37.24 186.9,-43.24 191.1,-43.24"/>
</g>
<!-- src/extract&#45;&gt;src/graph&#45;utl -->
<g id="edge15" class="edge">
<title>src/extract&#45;&gt;src/graph&#45;utl</title>
<path fill="none" stroke="#770000" stroke-width="2" stroke-opacity="0.466667" d="M74.67,-46.53C74.67,-46.53 74.67,-43.41 74.67,-43.41"/>
<polygon fill="#770000" fill-opacity="0.466667" stroke="#770000" stroke-width="2" stroke-opacity="0.466667" points="76.77,-43.41 74.67,-37.41 72.57,-43.41 76.77,-43.41"/>
</g>
<!-- src/config&#45;utl&#45;&gt;src/extract -->
<g id="edge9" class="edge">
<title>src/config&#45;utl&#45;&gt;src/extract</title>
<path fill="none" stroke="#007700" stroke-width="2" stroke-opacity="0.466667" d="M53.33,-139.74C53.33,-139.74 53.33,-74.5 53.33,-74.5"/>
<polygon fill="#007700" fill-opacity="0.466667" stroke="#007700" stroke-width="2" stroke-opacity="0.466667" points="55.43,-74.5 53.33,-68.5 51.23,-74.5 55.43,-74.5"/>
</g>
<!-- src/config&#45;utl&#45;&gt;src/main -->
<g id="edge10" class="edge">
<title>src/config&#45;utl&#45;&gt;src/main</title>
<path fill="none" stroke="#770000" stroke-width="2" stroke-opacity="0.466667" d="M88,-139.53C88,-139.53 88,-136.41 88,-136.41"/>
<polygon fill="#770000" fill-opacity="0.466667" stroke="#770000" stroke-width="2" stroke-opacity="0.466667" points="90.1,-136.41 88,-130.41 85.9,-136.41 90.1,-136.41"/>
</g>
<!-- src/main&#45;&gt;src/cache -->
<g id="edge16" class="edge">
<title>src/main&#45;&gt;src/cache</title>
<path fill="none" stroke="#000000" stroke-width="2" stroke-opacity="0.200000" d="M102,-108.53C102,-108.53 102,-105.41 102,-105.41"/>
<polygon fill="#000000" fill-opacity="0.200000" stroke="#000000" stroke-width="2" stroke-opacity="0.200000" points="104.1,-105.41 102,-99.41 99.9,-105.41 104.1,-105.41"/>
</g>
<!-- src/main&#45;&gt;src/extract -->
<g id="edge18" class="edge">
<title>src/main&#45;&gt;src/extract</title>
<path fill="none" stroke="#007700" stroke-width="2" stroke-opacity="0.466667" d="M77.95,-115C69.65,-115 62.67,-115 62.67,-115 62.67,-115 62.67,-74.48 62.67,-74.48"/>
<polygon fill="#007700" fill-opacity="0.466667" stroke="#007700" stroke-width="2" stroke-opacity="0.466667" points="64.77,-74.48 62.67,-68.48 60.57,-74.48 64.77,-74.48"/>
</g>
<!-- src/main&#45;&gt;src/graph&#45;utl -->
<g id="edge21" class="edge">
<title>src/main&#45;&gt;src/graph&#45;utl</title>
<path fill="none" stroke="#770000" stroke-width="2" stroke-opacity="0.466667" d="M77.6,-121C50.17,-121 12,-121 12,-121 12,-121 12,-25 12,-25 12,-25 60.64,-25 60.64,-25"/>
<polygon fill="#770000" fill-opacity="0.466667" stroke="#770000" stroke-width="2" stroke-opacity="0.466667" points="60.64,-27.1 66.64,-25 60.64,-22.9 60.64,-27.1"/>
</g>
<!-- src/enrich -->
<g id="node9" class="node">
<title>src/enrich</title>
<g id="a_node9"><a xlink:href="https://github.com/sverweij/dependency-cruiser/blob/develop/src/enrich" xlink:title="enrich">
<polygon fill="#77eeaa" stroke="black" points="272,-96 220,-96 218,-94 218,-78 270,-78 272,-80 272,-96"/>
<polyline fill="none" stroke="black" points="270,-94 218,-94"/>
<polyline fill="none" stroke="black" points="270,-94 270,-78"/>
<polyline fill="none" stroke="black" points="270,-94 272,-96"/>
<text text-anchor="start" x="232" y="-84.8" font-family="Helvetica,sans-Serif" font-size="9.00">enrich</text>
</a>
</g>
</g>
<!-- src/main&#45;&gt;src/enrich -->
<g id="edge17" class="edge">
<title>src/main&#45;&gt;src/enrich</title>
<path fill="none" stroke="#007766" stroke-width="2" stroke-opacity="0.466667" d="M132.33,-122C173.07,-122 245,-122 245,-122 245,-122 245,-105.2 245,-105.2"/>
<polygon fill="#007766" fill-opacity="0.466667" stroke="#007766" stroke-width="2" stroke-opacity="0.466667" points="247.1,-105.2 245,-99.2 242.9,-105.2 247.1,-105.2"/>
</g>
<!-- src/schema -->
<g id="node11" class="node">
<title>src/schema</title>
<g id="a_node11"><a xlink:href="https://github.com/sverweij/dependency-cruiser/blob/develop/src/schema" xlink:title="not&#45;unreachable&#45;from&#45;cli">
<polygon fill="#ccffcc" stroke="red" points="206,-96 154,-96 152,-94 152,-78 204,-78 206,-80 206,-96"/>
<polyline fill="none" stroke="red" points="204,-94 152,-94"/>
<polyline fill="none" stroke="red" points="204,-94 204,-78"/>
<polyline fill="none" stroke="red" points="204,-94 206,-96"/>
<text text-anchor="start" x="162.5" y="-84.8" font-family="Helvetica,sans-Serif" font-size="9.00" fill="red">schema</text>
</a>
</g>
</g>
<!-- src/main&#45;&gt;src/schema -->
<g id="edge19" class="edge">
<title>src/main&#45;&gt;src/schema</title>
<path fill="none" stroke="#000000" stroke-width="2" stroke-opacity="0.200000" d="M132.13,-118C153.25,-118 179,-118 179,-118 179,-118 179,-105.47 179,-105.47"/>
<polygon fill="#000000" fill-opacity="0.200000" stroke="#000000" stroke-width="2" stroke-opacity="0.200000" points="181.1,-105.47 179,-99.47 176.9,-105.47 181.1,-105.47"/>
</g>
<!-- src/report -->
<g id="node12" class="node">
<title>src/report</title>
<g id="a_node12"><a xlink:href="https://github.com/sverweij/dependency-cruiser/blob/develop/src/report" xlink:title="report">
<polygon fill="#ffccff" stroke="black" points="178,-65 126,-65 124,-63 124,-47 176,-47 178,-49 178,-65"/>
<polyline fill="none" stroke="black" points="176,-63 124,-63"/>
<polyline fill="none" stroke="black" points="176,-63 176,-47"/>
<polyline fill="none" stroke="black" points="176,-63 178,-65"/>
<text text-anchor="start" x="138.5" y="-53.8" font-family="Helvetica,sans-Serif" font-size="9.00">report</text>
</a>
</g>
</g>
<!-- src/main&#45;&gt;src/report -->
<g id="edge20" class="edge">
<title>src/main&#45;&gt;src/report</title>
<path fill="none" stroke="#ff00ff" stroke-width="2" stroke-opacity="0.466667" d="M132.28,-113C137.82,-113 142,-113 142,-113 142,-113 142,-74.41 142,-74.41"/>
<polygon fill="#ff00ff" fill-opacity="0.466667" stroke="#ff00ff" stroke-width="2" stroke-opacity="0.466667" points="144.1,-74.41 142,-68.41 139.9,-74.41 144.1,-74.41"/>
</g>
<!-- src/enrich&#45;&gt;src/utl -->
<g id="edge13" class="edge">
<title>src/enrich&#45;&gt;src/utl</title>
<path fill="none" stroke="#aaaaaa" stroke-width="2" stroke-opacity="0.466667" d="M265,-77.52C265,-60.84 265,-28 265,-28 265,-28 247.32,-28 247.32,-28"/>
<polygon fill="#aaaaaa" fill-opacity="0.466667" stroke="#aaaaaa" stroke-width="2" stroke-opacity="0.466667" points="247.32,-25.9 241.32,-28 247.32,-30.1 247.32,-25.9"/>
</g>
<!-- src/enrich&#45;&gt;src/graph&#45;utl -->
<g id="edge12" class="edge">
<title>src/enrich&#45;&gt;src/graph&#45;utl</title>
<path fill="none" stroke="#770000" stroke-width="2" stroke-opacity="0.466667" d="M231.33,-77.74C231.33,-75.14 231.33,-73 231.33,-73 231.33,-73 108,-73 108,-73 108,-73 108,-43.25 108,-43.25"/>
<polygon fill="#770000" fill-opacity="0.466667" stroke="#770000" stroke-width="2" stroke-opacity="0.466667" points="110.1,-43.25 108,-37.25 105.9,-43.25 110.1,-43.25"/>
</g>
<!-- src/validate -->
<g id="node10" class="node">
<title>src/validate</title>
<g id="a_node10"><a xlink:href="https://github.com/sverweij/dependency-cruiser/blob/develop/src/validate" xlink:title="validate">
<polygon fill="#ccccff" stroke="black" points="258,-65 206,-65 204,-63 204,-47 256,-47 258,-49 258,-65"/>
<polyline fill="none" stroke="black" points="256,-63 204,-63"/>
<polyline fill="none" stroke="black" points="256,-63 256,-47"/>
<polyline fill="none" stroke="black" points="256,-63 258,-65"/>
<text text-anchor="start" x="214.5" y="-53.8" font-family="Helvetica,sans-Serif" font-size="9.00">validate</text>
</a>
</g>
</g>
<!-- src/enrich&#45;&gt;src/validate -->
<g id="edge11" class="edge">
<title>src/enrich&#45;&gt;src/validate</title>
<path fill="none" stroke="#0000ff" stroke-width="2" stroke-opacity="0.466667" d="M244.67,-77.53C244.67,-77.53 244.67,-74.41 244.67,-74.41"/>
<polygon fill="#0000ff" fill-opacity="0.466667" stroke="#0000ff" stroke-width="2" stroke-opacity="0.466667" points="246.77,-74.41 244.67,-68.41 242.57,-74.41 246.77,-74.41"/>
</g>
<!-- src/validate&#45;&gt;src/utl -->
<g id="edge24" class="edge">
<title>src/validate&#45;&gt;src/utl</title>
<path fill="none" stroke="#aaaaaa" stroke-width="2" stroke-opacity="0.466667" d="M221,-46.53C221,-46.53 221,-43.41 221,-43.41"/>
<polygon fill="#aaaaaa" fill-opacity="0.466667" stroke="#aaaaaa" stroke-width="2" stroke-opacity="0.466667" points="223.1,-43.41 221,-37.41 218.9,-43.41 223.1,-43.41"/>
</g>
<!-- src/report&#45;&gt;src/utl -->
<g id="edge23" class="edge">
<title>src/report&#45;&gt;src/utl</title>
<path fill="none" stroke="#aaaaaa" stroke-width="2" stroke-opacity="0.466667" d="M178.48,-56C186.9,-56 194,-56 194,-56 194,-56 194,-43.47 194,-43.47"/>
<polygon fill="#aaaaaa" fill-opacity="0.466667" stroke="#aaaaaa" stroke-width="2" stroke-opacity="0.466667" points="196.1,-43.47 194,-37.47 191.9,-43.47 196.1,-43.47"/>
</g>
<!-- src/report&#45;&gt;src/graph&#45;utl -->
<g id="edge22" class="edge">
<title>src/report&#45;&gt;src/graph&#45;utl</title>
<path fill="none" stroke="#770000" stroke-width="2" stroke-opacity="0.466667" d="M123.77,-56C119.25,-56 116,-56 116,-56 116,-56 116,-43.47 116,-43.47"/>
<polygon fill="#770000" fill-opacity="0.466667" stroke="#770000" stroke-width="2" stroke-opacity="0.466667" points="118.1,-43.47 116,-37.47 113.9,-43.47 118.1,-43.47"/>
</g>
</g>
</svg>
