<?xml version="1.0" encoding="UTF-8" standalone="no"?>
<!DOCTYPE svg PUBLIC "-//W3C//DTD SVG 1.1//EN"
 "http://www.w3.org/Graphics/SVG/1.1/DTD/svg11.dtd">
<!-- Generated by graphviz version 2.44.0 (20200408.0750)
 -->
<!-- Title: dependency&#45;cruiser output Pages: 1 -->
<svg width="298pt" height="218pt"
 viewBox="0.00 0.00 297.50 218.00" xmlns="http://www.w3.org/2000/svg" xmlns:xlink="http://www.w3.org/1999/xlink">
<g id="graph0" class="graph" transform="scale(1 1) rotate(0) translate(4 214)">
<title>dependency&#45;cruiser output</title>
<polygon fill="white" stroke="transparent" points="-4,4 -4,-214 293.5,-214 293.5,4 -4,4"/>
<g id="clust1" class="cluster">
<title>cluster_src</title>
<path fill="#ffffff" stroke="black" stroke-width="2" d="M20,-8C20,-8 226,-8 226,-8 232,-8 238,-14 238,-20 238,-20 238,-172 238,-172 238,-178 232,-184 226,-184 226,-184 20,-184 20,-184 14,-184 8,-178 8,-172 8,-172 8,-20 8,-20 8,-14 14,-8 20,-8"/>
<text text-anchor="middle" x="123" y="-172.8" font-family="Helvetica,sans-Serif" font-weight="bold" font-size="9.00">src</text>
</g>
<!-- bin/ -->
<g id="node1" class="node">
<title>bin/</title>
<g id="a_node1"><a xlink:href="https://github.com/sverweij/dependency-cruiser/blob/develop/bin/" xlink:title="bin">
<polygon fill="#ffffcc" stroke="black" points="216,-210 164,-210 162,-208 162,-192 214,-192 216,-194 216,-210"/>
<polyline fill="none" stroke="black" points="214,-208 162,-208 "/>
<polyline fill="none" stroke="black" points="214,-208 214,-192 "/>
<polyline fill="none" stroke="black" points="214,-208 216,-210 "/>
<text text-anchor="middle" x="189" y="-198.8" font-family="Helvetica,sans-Serif" font-size="9.00">bin</text>
</a>
</g>
</g>
<!-- src/cli -->
<g id="node2" class="node">
<title>src/cli</title>
<g id="a_node2"><a xlink:href="https://github.com/sverweij/dependency-cruiser/blob/develop/src/cli" xlink:title="cli">
<polygon fill="#ccccff" stroke="black" points="216,-158 164,-158 162,-156 162,-140 214,-140 216,-142 216,-158"/>
<polyline fill="none" stroke="black" points="214,-156 162,-156 "/>
<polyline fill="none" stroke="black" points="214,-156 214,-140 "/>
<polyline fill="none" stroke="black" points="214,-156 216,-158 "/>
<text text-anchor="middle" x="189" y="-146.8" font-family="Helvetica,sans-Serif" font-size="9.00">cli</text>
</a>
</g>
</g>
<!-- bin/&#45;&gt;src/cli -->
<g id="edge1" class="edge">
<title>bin/&#45;&gt;src/cli</title>
<path fill="none" stroke="#0000ff" stroke-width="2" stroke-opacity="0.466667" d="M189,-191.94C189,-191.94 189,-164.3 189,-164.3"/>
<polygon fill="#0000ff" fill-opacity="0.466667" stroke="#0000ff" stroke-width="2" stroke-opacity="0.466667" points="191.1,-164.3 189,-158.3 186.9,-164.3 191.1,-164.3"/>
</g>
<!-- src/main -->
<g id="node3" class="node">
<title>src/main</title>
<g id="a_node3"><a xlink:href="https://github.com/sverweij/dependency-cruiser/blob/develop/src/main" xlink:title="main">
<polygon fill="#ffcccc" stroke="black" points="150,-127 98,-127 96,-125 96,-109 148,-109 150,-111 150,-127"/>
<polyline fill="none" stroke="black" points="148,-125 96,-125 "/>
<polyline fill="none" stroke="black" points="148,-125 148,-109 "/>
<polyline fill="none" stroke="black" points="148,-125 150,-127 "/>
<text text-anchor="middle" x="123" y="-115.8" font-family="Helvetica,sans-Serif" font-size="9.00">main</text>
</a>
</g>
</g>
<!-- src/cli&#45;&gt;src/main -->
<g id="edge2" class="edge">
<title>src/cli&#45;&gt;src/main</title>
<path fill="none" stroke="#770000" stroke-width="2" stroke-opacity="0.466667" d="M175.5,-139.83C175.5,-131.67 175.5,-121 175.5,-121 175.5,-121 156.17,-121 156.17,-121"/>
<polygon fill="#770000" fill-opacity="0.466667" stroke="#770000" stroke-width="2" stroke-opacity="0.466667" points="156.17,-118.9 150.17,-121 156.17,-123.1 156.17,-118.9"/>
</g>
<!-- src/extract -->
<g id="node4" class="node">
<title>src/extract</title>
<g id="a_node4"><a xlink:href="https://github.com/sverweij/dependency-cruiser/blob/develop/src/extract" xlink:title="extract">
<polygon fill="#ccffcc" stroke="black" points="216,-96 164,-96 162,-94 162,-78 214,-78 216,-80 216,-96"/>
<polyline fill="none" stroke="black" points="214,-94 162,-94 "/>
<polyline fill="none" stroke="black" points="214,-94 214,-78 "/>
<polyline fill="none" stroke="black" points="214,-94 216,-96 "/>
<text text-anchor="middle" x="189" y="-84.8" font-family="Helvetica,sans-Serif" font-size="9.00">extract</text>
</a>
</g>
</g>
<!-- src/cli&#45;&gt;src/extract -->
<g id="edge3" class="edge">
<title>src/cli&#45;&gt;src/extract</title>
<g id="a_edge3"><a xlink:title="cli&#45;to&#45;main&#45;only&#45;warn">
<path fill="none" stroke="orange" stroke-width="2" d="M202.5,-139.85C202.5,-139.85 202.5,-102.19 202.5,-102.19"/>
<polygon fill="orange" stroke="orange" stroke-width="2" points="204.6,-102.19 202.5,-96.19 200.4,-102.19 204.6,-102.19"/>
</a>
</g>
<text text-anchor="middle" x="246" y="-123.82" font-family="Helvetica,sans-Serif" font-size="9.00" fill="orange">cli&#45;to&#45;main&#45;only&#45;warn</text>
</g>
<!-- src/utl -->
<g id="node5" class="node">
<title>src/utl</title>
<g id="a_node5"><a xlink:href="https://github.com/sverweij/dependency-cruiser/blob/develop/src/utl" xlink:title="utl">
<polygon fill="#cccccc" stroke="black" points="176,-34 124,-34 122,-32 122,-16 174,-16 176,-18 176,-34"/>
<polyline fill="none" stroke="black" points="174,-32 122,-32 "/>
<polyline fill="none" stroke="black" points="174,-32 174,-16 "/>
<polyline fill="none" stroke="black" points="174,-32 176,-34 "/>
<text text-anchor="middle" x="149" y="-22.8" font-family="Helvetica,sans-Serif" font-size="9.00">utl</text>
</a>
</g>
</g>
<!-- src/cli&#45;&gt;src/utl -->
<g id="edge4" class="edge">
<title>src/cli&#45;&gt;src/utl</title>
<path fill="none" stroke="#aaaaaa" stroke-width="2" stroke-opacity="0.466667" d="M216.21,-149C225.69,-149 234,-149 234,-149 234,-149 234,-22 234,-22 234,-22 182.36,-22 182.36,-22"/>
<polygon fill="#aaaaaa" fill-opacity="0.466667" stroke="#aaaaaa" stroke-width="2" stroke-opacity="0.466667" points="182.36,-19.9 176.36,-22 182.36,-24.1 182.36,-19.9"/>
</g>
<!-- src/main&#45;&gt;src/extract -->
<g id="edge9" class="edge">
<title>src/main&#45;&gt;src/extract</title>
<path fill="none" stroke="#007700" stroke-width="2" stroke-opacity="0.466667" d="M150.23,-115C168.41,-115 189,-115 189,-115 189,-115 189,-102.17 189,-102.17"/>
<polygon fill="#007700" fill-opacity="0.466667" stroke="#007700" stroke-width="2" stroke-opacity="0.466667" points="191.1,-102.17 189,-96.17 186.9,-102.17 191.1,-102.17"/>
</g>
<!-- src/enrich -->
<g id="node6" class="node">
<title>src/enrich</title>
<g id="a_node6"><a xlink:href="https://github.com/sverweij/dependency-cruiser/blob/develop/src/enrich" xlink:title="enrich">
<polygon fill="#77eeaa" stroke="black" points="150,-96 98,-96 96,-94 96,-78 148,-78 150,-80 150,-96"/>
<polyline fill="none" stroke="black" points="148,-94 96,-94 "/>
<polyline fill="none" stroke="black" points="148,-94 148,-78 "/>
<polyline fill="none" stroke="black" points="148,-94 150,-96 "/>
<text text-anchor="middle" x="123" y="-84.8" font-family="Helvetica,sans-Serif" font-size="9.00">enrich</text>
</a>
</g>
</g>
<!-- src/main&#45;&gt;src/enrich -->
<g id="edge8" class="edge">
<title>src/main&#45;&gt;src/enrich</title>
<path fill="none" stroke="#007766" stroke-width="2" stroke-opacity="0.466667" d="M123,-108.87C123,-108.87 123,-102.18 123,-102.18"/>
<polygon fill="#007766" fill-opacity="0.466667" stroke="#007766" stroke-width="2" stroke-opacity="0.466667" points="125.1,-102.18 123,-96.18 120.9,-102.18 125.1,-102.18"/>
</g>
<!-- src/report -->
<g id="node8" class="node">
<title>src/report</title>
<g id="a_node8"><a xlink:href="https://github.com/sverweij/dependency-cruiser/blob/develop/src/report" xlink:title="report">
<polygon fill="#ffccff" stroke="black" points="83,-65 31,-65 29,-63 29,-47 81,-47 83,-49 83,-65"/>
<polyline fill="none" stroke="black" points="81,-63 29,-63 "/>
<polyline fill="none" stroke="black" points="81,-63 81,-47 "/>
<polyline fill="none" stroke="black" points="81,-63 83,-65 "/>
<text text-anchor="middle" x="56" y="-53.8" font-family="Helvetica,sans-Serif" font-size="9.00">report</text>
</a>
</g>
</g>
<!-- src/main&#45;&gt;src/report -->
<g id="edge10" class="edge">
<title>src/main&#45;&gt;src/report</title>
<path fill="none" stroke="#ff00ff" stroke-width="2" stroke-opacity="0.466667" d="M95.75,-121C92.33,-121 90,-121 90,-121 90,-121 90,-56 90,-56 90,-56 89.12,-56 89.12,-56"/>
<polygon fill="#ff00ff" fill-opacity="0.466667" stroke="#ff00ff" stroke-width="2" stroke-opacity="0.466667" points="89.12,-53.9 83.12,-56 89.12,-58.1 89.12,-53.9"/>
</g>
<!-- src/schema -->
<g id="node9" class="node">
<title>src/schema</title>
<g id="a_node9"><a xlink:href="https://github.com/sverweij/dependency-cruiser/blob/develop/src/schema" xlink:title="schema">
<polygon fill="#ffffcc" stroke="black" points="84,-96 32,-96 30,-94 30,-78 82,-78 84,-80 84,-96"/>
<polyline fill="none" stroke="black" points="82,-94 30,-94 "/>
<polyline fill="none" stroke="black" points="82,-94 82,-78 "/>
<polyline fill="none" stroke="black" points="82,-94 84,-96 "/>
<text text-anchor="middle" x="57" y="-84.8" font-family="Helvetica,sans-Serif" font-size="9.00">schema</text>
</a>
</g>
</g>
<!-- src/main&#45;&gt;src/schema -->
<g id="edge11" class="edge">
<title>src/main&#45;&gt;src/schema</title>
<path fill="none" stroke="#000000" stroke-width="2" stroke-opacity="0.200000" d="M95.77,-115C77.59,-115 57,-115 57,-115 57,-115 57,-102.17 57,-102.17"/>
<polygon fill="#000000" fill-opacity="0.200000" stroke="#000000" stroke-width="2" stroke-opacity="0.200000" points="59.1,-102.17 57,-96.17 54.9,-102.17 59.1,-102.17"/>
</g>
<!-- src/extract&#45;&gt;src/utl -->
<g id="edge7" class="edge">
<title>src/extract&#45;&gt;src/utl</title>
<path fill="none" stroke="#aaaaaa" stroke-width="2" stroke-opacity="0.466667" d="M196,-77.78C196,-61.19 196,-28 196,-28 196,-28 182.07,-28 182.07,-28"/>
<polygon fill="#aaaaaa" fill-opacity="0.466667" stroke="#aaaaaa" stroke-width="2" stroke-opacity="0.466667" points="182.07,-25.9 176.07,-28 182.07,-30.1 182.07,-25.9"/>
</g>
<!-- src/enrich&#45;&gt;src/utl -->
<g id="edge5" class="edge">
<title>src/enrich&#45;&gt;src/utl</title>
<path fill="none" stroke="#aaaaaa" stroke-width="2" stroke-opacity="0.466667" d="M109,-77.96C109,-60.1 109,-22 109,-22 109,-22 115.66,-22 115.66,-22"/>
<polygon fill="#aaaaaa" fill-opacity="0.466667" stroke="#aaaaaa" stroke-width="2" stroke-opacity="0.466667" points="115.66,-24.1 121.66,-22 115.66,-19.9 115.66,-24.1"/>
</g>
<!-- src/validate -->
<g id="node7" class="node">
<title>src/validate</title>
<g id="a_node7"><a xlink:href="https://github.com/sverweij/dependency-cruiser/blob/develop/src/validate" xlink:title="validate">
<polygon fill="#ccccff" stroke="black" points="176,-65 124,-65 122,-63 122,-47 174,-47 176,-49 176,-65"/>
<polyline fill="none" stroke="black" points="174,-63 122,-63 "/>
<polyline fill="none" stroke="black" points="174,-63 174,-47 "/>
<polyline fill="none" stroke="black" points="174,-63 176,-65 "/>
<text text-anchor="middle" x="149" y="-53.8" font-family="Helvetica,sans-Serif" font-size="9.00">validate</text>
</a>
</g>
</g>
<!-- src/enrich&#45;&gt;src/validate -->
<g id="edge6" class="edge">
<title>src/enrich&#45;&gt;src/validate</title>
<path fill="none" stroke="#0000ff" stroke-width="2" stroke-opacity="0.466667" d="M136,-77.87C136,-77.87 136,-71.18 136,-71.18"/>
<polygon fill="#0000ff" fill-opacity="0.466667" stroke="#0000ff" stroke-width="2" stroke-opacity="0.466667" points="138.1,-71.18 136,-65.18 133.9,-71.18 138.1,-71.18"/>
</g>
<!-- src/validate&#45;&gt;src/utl -->
<g id="edge13" class="edge">
<title>src/validate&#45;&gt;src/utl</title>
<path fill="none" stroke="#aaaaaa" stroke-width="2" stroke-opacity="0.466667" d="M149,-46.87C149,-46.87 149,-40.18 149,-40.18"/>
<polygon fill="#aaaaaa" fill-opacity="0.466667" stroke="#aaaaaa" stroke-width="2" stroke-opacity="0.466667" points="151.1,-40.18 149,-34.18 146.9,-40.18 151.1,-40.18"/>
</g>
<!-- src/report&#45;&gt;src/utl -->
<g id="edge12" class="edge">
<title>src/report&#45;&gt;src/utl</title>
<path fill="none" stroke="#aaaaaa" stroke-width="2" stroke-opacity="0.466667" d="M56,-46.83C56,-38.67 56,-28 56,-28 56,-28 115.6,-28 115.6,-28"/>
<polygon fill="#aaaaaa" fill-opacity="0.466667" stroke="#aaaaaa" stroke-width="2" stroke-opacity="0.466667" points="115.6,-30.1 121.6,-28 115.6,-25.9 115.6,-30.1"/>
</g>
</g>
</svg>
