<?xml version="1.0" encoding="UTF-8" standalone="no"?>
<!DOCTYPE svg PUBLIC "-//W3C//DTD SVG 1.1//EN"
 "http://www.w3.org/Graphics/SVG/1.1/DTD/svg11.dtd">
<!-- Generated by graphviz version 2.43.0 (0)
 -->
<!-- Title: dependency&#45;cruiser output Pages: 1 -->
<svg width="966pt" height="395pt"
 viewBox="0.00 0.00 966.00 395.00" xmlns="http://www.w3.org/2000/svg" xmlns:xlink="http://www.w3.org/1999/xlink">
<g id="graph0" class="graph" transform="scale(1 1) rotate(0) translate(4 391)">
<title>dependency&#45;cruiser output</title>
<polygon fill="white" stroke="transparent" points="-4,4 -4,-391 962,-391 962,4 -4,4"/>
<g id="clust1" class="cluster">
<title>cluster_src</title>
<path fill="#ffffff" stroke="black" stroke-width="2" d="M20,-8C20,-8 938,-8 938,-8 944,-8 950,-14 950,-20 950,-20 950,-332.5 950,-332.5 950,-338.5 944,-344.5 938,-344.5 938,-344.5 20,-344.5 20,-344.5 14,-344.5 8,-338.5 8,-332.5 8,-332.5 8,-20 8,-20 8,-14 14,-8 20,-8"/>
<text text-anchor="middle" x="479" y="-333.3" font-family="Helvetica,sans-Serif" font-weight="bold" font-size="9.00">src</text>
</g>
<g id="clust6" class="cluster">
<title>cluster_src/main</title>
<path fill="#ffffff" stroke="black" stroke-width="2" d="M142,-138.3C142,-138.3 366,-138.3 366,-138.3 372,-138.3 378,-144.3 378,-150.3 378,-150.3 378,-270.9 378,-270.9 378,-276.9 372,-282.9 366,-282.9 366,-282.9 142,-282.9 142,-282.9 136,-282.9 130,-276.9 130,-270.9 130,-270.9 130,-150.3 130,-150.3 130,-144.3 136,-138.3 142,-138.3"/>
<text text-anchor="middle" x="254" y="-271.7" font-family="Helvetica,sans-Serif" font-weight="bold" font-size="9.00">main</text>
</g>
<g id="clust7" class="cluster">
<title>cluster_src/report</title>
<path fill="#ffffff" stroke="black" stroke-width="2" d="M28,-16C28,-16 338,-16 338,-16 344,-16 350,-22 350,-28 350,-28 350,-118.3 350,-118.3 350,-124.3 344,-130.3 338,-130.3 338,-130.3 28,-130.3 28,-130.3 22,-130.3 16,-124.3 16,-118.3 16,-118.3 16,-28 16,-28 16,-22 22,-16 28,-16"/>
<text text-anchor="middle" x="183" y="-119.1" font-family="Helvetica,sans-Serif" font-weight="bold" font-size="9.00">report</text>
</g>
<g id="clust2" class="cluster">
<title>cluster_src/cli</title>
<path fill="#ffffff" stroke="black" stroke-width="2" d="M398,-239.6C398,-239.6 596,-239.6 596,-239.6 602,-239.6 608,-245.6 608,-251.6 608,-251.6 608,-307.5 608,-307.5 608,-313.5 602,-319.5 596,-319.5 596,-319.5 398,-319.5 398,-319.5 392,-319.5 386,-313.5 386,-307.5 386,-307.5 386,-251.6 386,-251.6 386,-245.6 392,-239.6 398,-239.6"/>
<text text-anchor="middle" x="497" y="-308.3" font-family="Helvetica,sans-Serif" font-weight="bold" font-size="9.00">cli</text>
</g>
<g id="clust3" class="cluster">
<title>cluster_src/extract</title>
<path fill="#ffffff" stroke="black" stroke-width="2" d="M432,-79C432,-79 930,-79 930,-79 936,-79 942,-85 942,-91 942,-91 942,-219.6 942,-219.6 942,-225.6 936,-231.6 930,-231.6 930,-231.6 432,-231.6 432,-231.6 426,-231.6 420,-225.6 420,-219.6 420,-219.6 420,-91 420,-91 420,-85 426,-79 432,-79"/>
<text text-anchor="middle" x="681" y="-220.4" font-family="Helvetica,sans-Serif" font-weight="bold" font-size="9.00">extract</text>
</g>
<g id="clust4" class="cluster">
<title>cluster_src/extract/derive</title>
<path fill="#ffffff" stroke="black" stroke-width="2" d="M612,-138.3C612,-138.3 808,-138.3 808,-138.3 814,-138.3 820,-144.3 820,-150.3 820,-150.3 820,-176.3 820,-176.3 820,-182.3 814,-188.3 808,-188.3 808,-188.3 612,-188.3 612,-188.3 606,-188.3 600,-182.3 600,-176.3 600,-176.3 600,-150.3 600,-150.3 600,-144.3 606,-138.3 612,-138.3"/>
<text text-anchor="middle" x="710" y="-177.1" font-family="Helvetica,sans-Serif" font-weight="bold" font-size="9.00">derive</text>
</g>
<g id="clust5" class="cluster">
<title>cluster_src/extract/resolve</title>
<path fill="#ffffff" stroke="black" stroke-width="2" d="M840,-87C840,-87 922,-87 922,-87 928,-87 934,-93 934,-99 934,-99 934,-169.6 934,-169.6 934,-175.6 928,-181.6 922,-181.6 922,-181.6 840,-181.6 840,-181.6 834,-181.6 828,-175.6 828,-169.6 828,-169.6 828,-99 828,-99 828,-93 834,-87 840,-87"/>
<text text-anchor="middle" x="881" y="-170.4" font-family="Helvetica,sans-Serif" font-weight="bold" font-size="9.00">resolve</text>
</g>
<!-- bin -->
<g id="node1" class="node">
<title>bin</title>
<g id="a_node1"><a xlink:href="https://github.com/sverweij/dependency-cruiser/blob/develop/bin" xlink:title="bin">
<path fill="#ffffcc" stroke="black" d="M518.33,-369.5C518.33,-369.5 475.67,-369.5 475.67,-369.5 472.83,-369.5 470,-366.67 470,-363.83 470,-363.83 470,-358.17 470,-358.17 470,-355.33 472.83,-352.5 475.67,-352.5 475.67,-352.5 518.33,-352.5 518.33,-352.5 521.17,-352.5 524,-355.33 524,-358.17 524,-358.17 524,-363.83 524,-363.83 524,-366.67 521.17,-369.5 518.33,-369.5"/>
<text text-anchor="middle" x="497" y="-358.3" font-family="Helvetica,sans-Serif" font-size="9.00">bin</text>
</a>
</g>
</g>
<!-- src/cli -->
<!-- bin&#45;&gt;src/cli -->
<g id="edge1" class="edge">
<title>bin&#45;&gt;src/cli</title>
<path fill="none" stroke="#0000ff" stroke-width="2" stroke-opacity="0.466667" d="M497,-352.35C497,-352.35 497,-300.51 497,-300.51"/>
<polygon fill="#0000ff" fill-opacity="0.466667" stroke="#0000ff" stroke-width="2" stroke-opacity="0.466667" points="499.1,-300.51 497,-294.51 494.9,-300.51 499.1,-300.51"/>
</g>
<!-- src/main -->
<!-- src/cli&#45;&gt;src/main -->
<g id="edge2" class="edge">
<title>src/cli&#45;&gt;src/main</title>
<path fill="none" stroke="#770000" stroke-width="2" stroke-opacity="0.466667" d="M495.14,-293C470.27,-293 205,-293 205,-293 205,-293 205,-264.08 205,-264.08"/>
<polygon fill="#770000" fill-opacity="0.466667" stroke="#770000" stroke-width="2" stroke-opacity="0.466667" points="207.1,-264.08 205,-258.08 202.9,-264.08 207.1,-264.08"/>
</g>
<!-- src/cli/utl -->
<g id="node5" class="node">
<title>src/cli/utl</title>
<g id="a_node5"><a xlink:href="https://github.com/sverweij/dependency-cruiser/blob/develop/src/cli/utl" xlink:title="utl">
<path fill="#ccccff" stroke="black" d="M442.33,-264.6C442.33,-264.6 399.67,-264.6 399.67,-264.6 396.83,-264.6 394,-261.77 394,-258.93 394,-258.93 394,-253.27 394,-253.27 394,-250.43 396.83,-247.6 399.67,-247.6 399.67,-247.6 442.33,-247.6 442.33,-247.6 445.17,-247.6 448,-250.43 448,-253.27 448,-253.27 448,-258.93 448,-258.93 448,-261.77 445.17,-264.6 442.33,-264.6"/>
<text text-anchor="middle" x="421" y="-253.4" font-family="Helvetica,sans-Serif" font-size="9.00">utl</text>
</a>
</g>
</g>
<!-- src/cli&#45;&gt;src/cli/utl -->
<g id="edge3" class="edge">
<title>src/cli&#45;&gt;src/cli/utl</title>
<path fill="none" stroke="#0000ff" stroke-width="2" stroke-opacity="0.466667" d="M495.12,-292C483.42,-292 421,-292 421,-292 421,-292 421,-270.79 421,-270.79"/>
<polygon fill="#0000ff" fill-opacity="0.466667" stroke="#0000ff" stroke-width="2" stroke-opacity="0.466667" points="423.1,-270.79 421,-264.79 418.9,-270.79 423.1,-270.79"/>
</g>
<!-- src/cli/compileConfig -->
<g id="node6" class="node">
<title>src/cli/compileConfig</title>
<g id="a_node6"><a xlink:href="https://github.com/sverweij/dependency-cruiser/blob/develop/src/cli/compileConfig" xlink:title="compileConfig">
<path fill="#ccccff" stroke="black" d="M527.86,-264.6C527.86,-264.6 466.14,-264.6 466.14,-264.6 463.31,-264.6 460.47,-261.77 460.47,-258.93 460.47,-258.93 460.47,-253.27 460.47,-253.27 460.47,-250.43 463.31,-247.6 466.14,-247.6 466.14,-247.6 527.86,-247.6 527.86,-247.6 530.69,-247.6 533.53,-250.43 533.53,-253.27 533.53,-253.27 533.53,-258.93 533.53,-258.93 533.53,-261.77 530.69,-264.6 527.86,-264.6"/>
<text text-anchor="middle" x="497" y="-253.4" font-family="Helvetica,sans-Serif" font-size="9.00">compileConfig</text>
</a>
</g>
</g>
<!-- src/cli&#45;&gt;src/cli/compileConfig -->
<g id="edge4" class="edge">
<title>src/cli&#45;&gt;src/cli/compileConfig</title>
<path fill="none" stroke="#0000ff" stroke-width="2" stroke-opacity="0.466667" d="M496.4,-290.73C496.4,-290.73 496.4,-270.73 496.4,-270.73"/>
<polygon fill="#0000ff" fill-opacity="0.466667" stroke="#0000ff" stroke-width="2" stroke-opacity="0.466667" points="498.5,-270.73 496.4,-264.73 494.3,-270.73 498.5,-270.73"/>
</g>
<!-- src/cli/initConfig -->
<g id="node7" class="node">
<title>src/cli/initConfig</title>
<g id="a_node7"><a xlink:href="https://github.com/sverweij/dependency-cruiser/blob/develop/src/cli/initConfig" xlink:title="initConfig">
<path fill="#ccccff" stroke="black" d="M594.33,-264.6C594.33,-264.6 551.67,-264.6 551.67,-264.6 548.83,-264.6 546,-261.77 546,-258.93 546,-258.93 546,-253.27 546,-253.27 546,-250.43 548.83,-247.6 551.67,-247.6 551.67,-247.6 594.33,-247.6 594.33,-247.6 597.17,-247.6 600,-250.43 600,-253.27 600,-253.27 600,-258.93 600,-258.93 600,-261.77 597.17,-264.6 594.33,-264.6"/>
<text text-anchor="middle" x="573" y="-253.4" font-family="Helvetica,sans-Serif" font-size="9.00">initConfig</text>
</a>
</g>
</g>
<!-- src/cli&#45;&gt;src/cli/initConfig -->
<g id="edge5" class="edge">
<title>src/cli&#45;&gt;src/cli/initConfig</title>
<path fill="none" stroke="#0000ff" stroke-width="2" stroke-opacity="0.466667" d="M498.93,-292C509.92,-292 564,-292 564,-292 564,-292 564,-270.79 564,-270.79"/>
<polygon fill="#0000ff" fill-opacity="0.466667" stroke="#0000ff" stroke-width="2" stroke-opacity="0.466667" points="566.1,-270.79 564,-264.79 561.9,-270.79 566.1,-270.79"/>
</g>
<!-- src -->
<!-- src/main/resolveOptions -->
<g id="node9" class="node">
<title>src/main/resolveOptions</title>
<g id="a_node9"><a xlink:href="https://github.com/sverweij/dependency-cruiser/blob/develop/src/main/resolveOptions" xlink:title="resolveOptions">
<path fill="#ffcccc" stroke="black" d="M364.36,-213.3C364.36,-213.3 299.64,-213.3 299.64,-213.3 296.8,-213.3 293.97,-210.47 293.97,-207.63 293.97,-207.63 293.97,-201.97 293.97,-201.97 293.97,-199.13 296.8,-196.3 299.64,-196.3 299.64,-196.3 364.36,-196.3 364.36,-196.3 367.2,-196.3 370.03,-199.13 370.03,-201.97 370.03,-201.97 370.03,-207.63 370.03,-207.63 370.03,-210.47 367.2,-213.3 364.36,-213.3"/>
<text text-anchor="middle" x="332" y="-202.1" font-family="Helvetica,sans-Serif" font-size="9.00">resolveOptions</text>
</a>
</g>
</g>
<!-- src/main&#45;&gt;src/main/resolveOptions -->
<g id="edge30" class="edge">
<title>src/main&#45;&gt;src/main/resolveOptions</title>
<path fill="none" stroke="#770000" stroke-width="2" stroke-opacity="0.466667" d="M205.9,-257.8C205.9,-263.56 205.9,-282 205.9,-282 205.9,-282 319.33,-282 319.33,-282 319.33,-282 319.33,-219.36 319.33,-219.36"/>
<polygon fill="#770000" fill-opacity="0.466667" stroke="#770000" stroke-width="2" stroke-opacity="0.466667" points="321.43,-219.36 319.33,-213.36 317.23,-219.36 321.43,-219.36"/>
</g>
<!-- src/extract -->
<!-- src/main&#45;&gt;src/extract -->
<g id="edge24" class="edge">
<title>src/main&#45;&gt;src/extract</title>
<path fill="none" stroke="#007700" stroke-width="2" stroke-opacity="0.466667" d="M204.1,-257.95C204.1,-273.86 204.1,-387 204.1,-387 204.1,-387 534.48,-387 534.48,-387 534.48,-387 534.48,-211.96 534.48,-211.96"/>
<polygon fill="#007700" fill-opacity="0.466667" stroke="#007700" stroke-width="2" stroke-opacity="0.466667" points="536.58,-211.96 534.48,-205.96 532.38,-211.96 536.58,-211.96"/>
</g>
<!-- src/extract/transpile -->
<g id="node20" class="node">
<title>src/extract/transpile</title>
<g id="a_node20"><a xlink:href="https://github.com/sverweij/dependency-cruiser/blob/develop/src/extract/transpile" xlink:title="transpile">
<path fill="#ccffcc" stroke="black" d="M486.33,-112C486.33,-112 443.67,-112 443.67,-112 440.83,-112 438,-109.17 438,-106.33 438,-106.33 438,-100.67 438,-100.67 438,-97.83 440.83,-95 443.67,-95 443.67,-95 486.33,-95 486.33,-95 489.17,-95 492,-97.83 492,-100.67 492,-100.67 492,-106.33 492,-106.33 492,-109.17 489.17,-112 486.33,-112"/>
<text text-anchor="middle" x="465" y="-100.8" font-family="Helvetica,sans-Serif" font-size="9.00">transpile</text>
</a>
</g>
</g>
<!-- src/main&#45;&gt;src/extract/transpile -->
<g id="edge25" class="edge">
<title>src/main&#45;&gt;src/extract/transpile</title>
<path fill="none" stroke="#007700" stroke-width="2" stroke-opacity="0.466667" d="M205.6,-254.12C205.6,-241.79 205.6,-176 205.6,-176 205.6,-176 425,-176 425,-176 425,-176 425,-100 425,-100 425,-100 431.66,-100 431.66,-100"/>
<polygon fill="#007700" fill-opacity="0.466667" stroke="#007700" stroke-width="2" stroke-opacity="0.466667" points="431.66,-102.1 437.66,-100 431.66,-97.9 431.66,-102.1"/>
</g>
<!-- src/report -->
<!-- src/main&#45;&gt;src/report -->
<g id="edge26" class="edge">
<title>src/main&#45;&gt;src/report</title>
<path fill="none" stroke="#ff00ff" stroke-width="2" stroke-opacity="0.466667" d="M206.94,-256C225.95,-256 378.01,-256 378.01,-256 378.01,-256 378.01,-129 378.01,-129 378.01,-129 183.6,-129 183.6,-129 183.6,-129 183.6,-111.5 183.6,-111.5"/>
<polygon fill="#ff00ff" fill-opacity="0.466667" stroke="#ff00ff" stroke-width="2" stroke-opacity="0.466667" points="185.7,-111.5 183.6,-105.5 181.5,-111.5 185.7,-111.5"/>
</g>
<!-- src/schema -->
<g id="node23" class="node">
<title>src/schema</title>
<g id="a_node23"><a xlink:href="https://github.com/sverweij/dependency-cruiser/blob/develop/src/schema" xlink:title="schema">
<path fill="#ffffcc" stroke="black" d="M116.33,-163.3C116.33,-163.3 73.67,-163.3 73.67,-163.3 70.83,-163.3 68,-160.47 68,-157.63 68,-157.63 68,-151.97 68,-151.97 68,-149.13 70.83,-146.3 73.67,-146.3 73.67,-146.3 116.33,-146.3 116.33,-146.3 119.17,-146.3 122,-149.13 122,-151.97 122,-151.97 122,-157.63 122,-157.63 122,-160.47 119.17,-163.3 116.33,-163.3"/>
<text text-anchor="middle" x="95" y="-152.1" font-family="Helvetica,sans-Serif" font-size="9.00">schema</text>
</a>
</g>
</g>
<!-- src/main&#45;&gt;src/schema -->
<g id="edge27" class="edge">
<title>src/main&#45;&gt;src/schema</title>
<path fill="none" stroke="#000000" stroke-width="2" stroke-opacity="0.200000" d="M203.09,-256C188.48,-256 95,-256 95,-256 95,-256 95,-169.43 95,-169.43"/>
<polygon fill="#000000" fill-opacity="0.200000" stroke="#000000" stroke-width="2" stroke-opacity="0.200000" points="97.1,-169.43 95,-163.43 92.9,-169.43 97.1,-169.43"/>
</g>
<!-- src/main/filesAndDirs -->
<g id="node24" class="node">
<title>src/main/filesAndDirs</title>
<g id="a_node24"><a xlink:href="https://github.com/sverweij/dependency-cruiser/blob/develop/src/main/filesAndDirs" xlink:title="filesAndDirs">
<path fill="#ffcccc" stroke="black" d="M276.35,-213.3C276.35,-213.3 223.65,-213.3 223.65,-213.3 220.82,-213.3 217.99,-210.47 217.99,-207.63 217.99,-207.63 217.99,-201.97 217.99,-201.97 217.99,-199.13 220.82,-196.3 223.65,-196.3 223.65,-196.3 276.35,-196.3 276.35,-196.3 279.18,-196.3 282.01,-199.13 282.01,-201.97 282.01,-201.97 282.01,-207.63 282.01,-207.63 282.01,-210.47 279.18,-213.3 276.35,-213.3"/>
<text text-anchor="middle" x="250" y="-202.1" font-family="Helvetica,sans-Serif" font-size="9.00">filesAndDirs</text>
</a>
</g>
</g>
<!-- src/main&#45;&gt;src/main/filesAndDirs -->
<g id="edge28" class="edge">
<title>src/main&#45;&gt;src/main/filesAndDirs</title>
<path fill="none" stroke="#770000" stroke-width="2" stroke-opacity="0.466667" d="M206.5,-255C214.31,-255 250,-255 250,-255 250,-255 250,-219.54 250,-219.54"/>
<polygon fill="#770000" fill-opacity="0.466667" stroke="#770000" stroke-width="2" stroke-opacity="0.466667" points="252.1,-219.54 250,-213.54 247.9,-219.54 252.1,-219.54"/>
</g>
<!-- src/main/options -->
<g id="node25" class="node">
<title>src/main/options</title>
<g id="a_node25"><a xlink:href="https://github.com/sverweij/dependency-cruiser/blob/develop/src/main/options" xlink:title="options">
<path fill="#ffcccc" stroke="black" d="M204.33,-163.3C204.33,-163.3 161.67,-163.3 161.67,-163.3 158.83,-163.3 156,-160.47 156,-157.63 156,-157.63 156,-151.97 156,-151.97 156,-149.13 158.83,-146.3 161.67,-146.3 161.67,-146.3 204.33,-146.3 204.33,-146.3 207.17,-146.3 210,-149.13 210,-151.97 210,-151.97 210,-157.63 210,-157.63 210,-160.47 207.17,-163.3 204.33,-163.3"/>
<text text-anchor="middle" x="183" y="-152.1" font-family="Helvetica,sans-Serif" font-size="9.00">options</text>
</a>
</g>
</g>
<!-- src/main&#45;&gt;src/main/options -->
<g id="edge29" class="edge">
<title>src/main&#45;&gt;src/main/options</title>
<path fill="none" stroke="#770000" stroke-width="2" stroke-opacity="0.466667" d="M203.46,-255C201.13,-255 197,-255 197,-255 197,-255 197,-169.34 197,-169.34"/>
<polygon fill="#770000" fill-opacity="0.466667" stroke="#770000" stroke-width="2" stroke-opacity="0.466667" points="199.1,-169.34 197,-163.34 194.9,-169.34 199.1,-169.34"/>
</g>
<!-- src/main/ruleSet -->
<g id="node26" class="node">
<title>src/main/ruleSet</title>
<g id="a_node26"><a xlink:href="https://github.com/sverweij/dependency-cruiser/blob/develop/src/main/ruleSet" xlink:title="ruleSet">
<path fill="#ffcccc" stroke="black" d="M186.33,-213.3C186.33,-213.3 143.67,-213.3 143.67,-213.3 140.83,-213.3 138,-210.47 138,-207.63 138,-207.63 138,-201.97 138,-201.97 138,-199.13 140.83,-196.3 143.67,-196.3 143.67,-196.3 186.33,-196.3 186.33,-196.3 189.17,-196.3 192,-199.13 192,-201.97 192,-201.97 192,-207.63 192,-207.63 192,-210.47 189.17,-213.3 186.33,-213.3"/>
<text text-anchor="middle" x="165" y="-202.1" font-family="Helvetica,sans-Serif" font-size="9.00">ruleSet</text>
</a>
</g>
</g>
<!-- src/main&#45;&gt;src/main/ruleSet -->
<g id="edge31" class="edge">
<title>src/main&#45;&gt;src/main/ruleSet</title>
<path fill="none" stroke="#770000" stroke-width="2" stroke-opacity="0.466667" d="M204.4,-254.37C204.4,-245.33 204.4,-204 204.4,-204 204.4,-204 198.36,-204 198.36,-204"/>
<polygon fill="#770000" fill-opacity="0.466667" stroke="#770000" stroke-width="2" stroke-opacity="0.466667" points="198.36,-201.9 192.36,-204 198.36,-206.1 198.36,-201.9"/>
</g>
<!-- src/extract/resolve -->
<!-- src/cli/compileConfig&#45;&gt;src/extract/resolve -->
<g id="edge6" class="edge">
<title>src/cli/compileConfig&#45;&gt;src/extract/resolve</title>
<g id="a_edge6"><a xlink:title="cli&#45;to&#45;main&#45;only&#45;warn">
<path fill="none" stroke="orange" stroke-width="2" d="M524.11,-247.3C524.11,-243.54 524.11,-240 524.11,-240 524.11,-240 897.28,-240 897.28,-240 897.28,-240 897.28,-154 897.28,-154 897.28,-154 845.71,-154 845.71,-154"/>
<polygon fill="orange" stroke="orange" stroke-width="2" points="845.71,-151.9 839.71,-154 845.71,-156.1 845.71,-151.9"/>
</a>
</g>
<text text-anchor="middle" x="734.07" y="-241.8" font-family="Helvetica,sans-Serif" font-size="9.00" fill="orange">cli&#45;to&#45;main&#45;only&#45;warn</text>
</g>
<!-- src/cli/compileConfig&#45;&gt;src/main/resolveOptions -->
<g id="edge7" class="edge">
<title>src/cli/compileConfig&#45;&gt;src/main/resolveOptions</title>
<path fill="none" stroke="#770000" stroke-width="2" stroke-opacity="0.466667" d="M472.32,-247.5C472.32,-240.93 472.32,-233 472.32,-233 472.32,-233 344.67,-233 344.67,-233 344.67,-233 344.67,-219.41 344.67,-219.41"/>
<polygon fill="#770000" fill-opacity="0.466667" stroke="#770000" stroke-width="2" stroke-opacity="0.466667" points="346.77,-219.41 344.67,-213.41 342.57,-219.41 346.77,-219.41"/>
</g>
<!-- src/cli/initConfig&#45;&gt;src/cli -->
<g id="edge8" class="edge">
<title>src/cli/initConfig&#45;&gt;src/cli</title>
<path fill="none" stroke="#0000ff" stroke-width="2" stroke-opacity="0.466667" d="M582,-264.95C582,-269.03 582,-273 582,-273 582,-273 497.6,-273 497.6,-273 497.6,-273 497.6,-284.88 497.6,-284.88"/>
<polygon fill="#0000ff" fill-opacity="0.466667" stroke="#0000ff" stroke-width="2" stroke-opacity="0.466667" points="495.5,-284.88 497.6,-290.88 499.7,-284.88 495.5,-284.88"/>
</g>
<!-- src/extract/utl -->
<g id="node14" class="node">
<title>src/extract/utl</title>
<g id="a_node14"><a xlink:href="https://github.com/sverweij/dependency-cruiser/blob/develop/src/extract/utl" xlink:title="utl">
<path fill="#ccffcc" stroke="black" d="M552.33,-112C552.33,-112 509.67,-112 509.67,-112 506.83,-112 504,-109.17 504,-106.33 504,-106.33 504,-100.67 504,-100.67 504,-97.83 506.83,-95 509.67,-95 509.67,-95 552.33,-95 552.33,-95 555.17,-95 558,-97.83 558,-100.67 558,-100.67 558,-106.33 558,-106.33 558,-109.17 555.17,-112 552.33,-112"/>
<text text-anchor="middle" x="531" y="-100.8" font-family="Helvetica,sans-Serif" font-size="9.00">utl</text>
</a>
</g>
</g>
<!-- src/extract/resolve&#45;&gt;src/extract/utl -->
<g id="edge22" class="edge">
<title>src/extract/resolve&#45;&gt;src/extract/utl</title>
<path fill="none" stroke="#007700" stroke-width="2" stroke-opacity="0.466667" d="M836.28,-154C832.54,-154 823.99,-154 823.99,-154 823.99,-154 823.99,-103 823.99,-103 823.99,-103 564.04,-103 564.04,-103"/>
<polygon fill="#007700" fill-opacity="0.466667" stroke="#007700" stroke-width="2" stroke-opacity="0.466667" points="564.04,-100.9 558.04,-103 564.04,-105.1 564.04,-100.9"/>
</g>
<!-- src/extract/resolve/readPackageDeps -->
<g id="node17" class="node">
<title>src/extract/resolve/readPackageDeps</title>
<g id="a_node17"><a xlink:href="https://github.com/sverweij/dependency-cruiser/blob/develop/src/extract/resolve/readPackageDeps" xlink:title="readPackageDeps">
<path fill="#ccffcc" stroke="black" d="M920.38,-112C920.38,-112 841.62,-112 841.62,-112 838.79,-112 835.95,-109.17 835.95,-106.33 835.95,-106.33 835.95,-100.67 835.95,-100.67 835.95,-97.83 838.79,-95 841.62,-95 841.62,-95 920.38,-95 920.38,-95 923.21,-95 926.05,-97.83 926.05,-100.67 926.05,-100.67 926.05,-106.33 926.05,-106.33 926.05,-109.17 923.21,-112 920.38,-112"/>
<text text-anchor="middle" x="881" y="-100.8" font-family="Helvetica,sans-Serif" font-size="9.00">readPackageDeps</text>
</a>
</g>
</g>
<!-- src/extract/resolve&#45;&gt;src/extract/resolve/readPackageDeps -->
<g id="edge23" class="edge">
<title>src/extract/resolve&#45;&gt;src/extract/resolve/readPackageDeps</title>
<path fill="none" stroke="#007700" stroke-width="2" stroke-opacity="0.466667" d="M838,-152.6C838,-152.6 838,-118.09 838,-118.09"/>
<polygon fill="#007700" fill-opacity="0.466667" stroke="#007700" stroke-width="2" stroke-opacity="0.466667" points="840.1,-118.09 838,-112.09 835.9,-118.09 840.1,-118.09"/>
</g>
<!-- src/main/resolveOptions&#45;&gt;src/extract/transpile -->
<g id="edge33" class="edge">
<title>src/main/resolveOptions&#45;&gt;src/extract/transpile</title>
<path fill="none" stroke="#007700" stroke-width="2" stroke-opacity="0.466667" d="M370.18,-204C398.24,-204 431.5,-204 431.5,-204 431.5,-204 431.5,-106 431.5,-106 431.5,-106 432.15,-106 432.15,-106"/>
<polygon fill="#007700" fill-opacity="0.466667" stroke="#007700" stroke-width="2" stroke-opacity="0.466667" points="431.96,-108.1 437.96,-106 431.96,-103.9 431.96,-108.1"/>
</g>
<!-- src/extract&#45;&gt;src/extract/resolve -->
<g id="edge15" class="edge">
<title>src/extract&#45;&gt;src/extract/resolve</title>
<path fill="none" stroke="#007700" stroke-width="2" stroke-opacity="0.466667" d="M533.6,-203.09C533.6,-197.95 533.6,-183 533.6,-183 533.6,-183 838,-183 838,-183 838,-183 838,-162.65 838,-162.65"/>
<polygon fill="#007700" fill-opacity="0.466667" stroke="#007700" stroke-width="2" stroke-opacity="0.466667" points="840.1,-162.65 838,-156.65 835.9,-162.65 840.1,-162.65"/>
</g>
<!-- src/extract/derive/circular -->
<g id="node11" class="node">
<title>src/extract/derive/circular</title>
<g id="a_node11"><a xlink:href="https://github.com/sverweij/dependency-cruiser/blob/develop/src/extract/derive/circular" xlink:title="circular">
<path fill="#ccffcc" stroke="black" d="M672.33,-163.3C672.33,-163.3 629.67,-163.3 629.67,-163.3 626.83,-163.3 624,-160.47 624,-157.63 624,-157.63 624,-151.97 624,-151.97 624,-149.13 626.83,-146.3 629.67,-146.3 629.67,-146.3 672.33,-146.3 672.33,-146.3 675.17,-146.3 678,-149.13 678,-151.97 678,-151.97 678,-157.63 678,-157.63 678,-160.47 675.17,-163.3 672.33,-163.3"/>
<text text-anchor="middle" x="651" y="-152.1" font-family="Helvetica,sans-Serif" font-size="9.00">circular</text>
</a>
</g>
</g>
<!-- src/extract&#45;&gt;src/extract/derive/circular -->
<g id="edge9" class="edge">
<title>src/extract&#45;&gt;src/extract/derive/circular</title>
<path fill="none" stroke="#007700" stroke-width="2" stroke-opacity="0.466667" d="M533.09,-203C536.66,-203 651,-203 651,-203 651,-203 651,-169.64 651,-169.64"/>
<polygon fill="#007700" fill-opacity="0.466667" stroke="#007700" stroke-width="2" stroke-opacity="0.466667" points="653.1,-169.64 651,-163.64 648.9,-169.64 653.1,-169.64"/>
</g>
<!-- src/extract/derive/orphan -->
<g id="node12" class="node">
<title>src/extract/derive/orphan</title>
<g id="a_node12"><a xlink:href="https://github.com/sverweij/dependency-cruiser/blob/develop/src/extract/derive/orphan" xlink:title="orphan">
<path fill="#ccffcc" stroke="black" d="M806.33,-163.3C806.33,-163.3 763.67,-163.3 763.67,-163.3 760.83,-163.3 758,-160.47 758,-157.63 758,-157.63 758,-151.97 758,-151.97 758,-149.13 760.83,-146.3 763.67,-146.3 763.67,-146.3 806.33,-146.3 806.33,-146.3 809.17,-146.3 812,-149.13 812,-151.97 812,-151.97 812,-157.63 812,-157.63 812,-160.47 809.17,-163.3 806.33,-163.3"/>
<text text-anchor="middle" x="785" y="-152.1" font-family="Helvetica,sans-Serif" font-size="9.00">orphan</text>
</a>
</g>
</g>
<!-- src/extract&#45;&gt;src/extract/derive/orphan -->
<g id="edge10" class="edge">
<title>src/extract&#45;&gt;src/extract/derive/orphan</title>
<path fill="none" stroke="#007700" stroke-width="2" stroke-opacity="0.466667" d="M534.88,-205C557.94,-205 785,-205 785,-205 785,-205 785,-169.54 785,-169.54"/>
<polygon fill="#007700" fill-opacity="0.466667" stroke="#007700" stroke-width="2" stroke-opacity="0.466667" points="787.1,-169.54 785,-163.54 782.9,-169.54 787.1,-169.54"/>
</g>
<!-- src/extract/derive/reachable -->
<g id="node13" class="node">
<title>src/extract/derive/reachable</title>
<g id="a_node13"><a xlink:href="https://github.com/sverweij/dependency-cruiser/blob/develop/src/extract/derive/reachable" xlink:title="reachable">
<path fill="#ccffcc" stroke="black" d="M739.86,-163.3C739.86,-163.3 696.14,-163.3 696.14,-163.3 693.3,-163.3 690.47,-160.47 690.47,-157.63 690.47,-157.63 690.47,-151.97 690.47,-151.97 690.47,-149.13 693.3,-146.3 696.14,-146.3 696.14,-146.3 739.86,-146.3 739.86,-146.3 742.7,-146.3 745.53,-149.13 745.53,-151.97 745.53,-151.97 745.53,-157.63 745.53,-157.63 745.53,-160.47 742.7,-163.3 739.86,-163.3"/>
<text text-anchor="middle" x="718" y="-152.1" font-family="Helvetica,sans-Serif" font-size="9.00">reachable</text>
</a>
</g>
</g>
<!-- src/extract&#45;&gt;src/extract/derive/reachable -->
<g id="edge11" class="edge">
<title>src/extract&#45;&gt;src/extract/derive/reachable</title>
<path fill="none" stroke="#007700" stroke-width="2" stroke-opacity="0.466667" d="M535.08,-204C555.4,-204 718,-204 718,-204 718,-204 718,-169.37 718,-169.37"/>
<polygon fill="#007700" fill-opacity="0.466667" stroke="#007700" stroke-width="2" stroke-opacity="0.466667" points="720.1,-169.37 718,-163.37 715.9,-169.37 720.1,-169.37"/>
</g>
<!-- src/extract&#45;&gt;src/extract/utl -->
<g id="edge12" class="edge">
<title>src/extract&#45;&gt;src/extract/utl</title>
<path fill="none" stroke="#007700" stroke-width="2" stroke-opacity="0.466667" d="M532.36,-206.66C532.36,-210.72 532.36,-220 532.36,-220 532.36,-220 515.83,-220 515.83,-220 515.83,-220 515.83,-118.26 515.83,-118.26"/>
<polygon fill="#007700" fill-opacity="0.466667" stroke="#007700" stroke-width="2" stroke-opacity="0.466667" points="517.93,-118.26 515.83,-112.26 513.73,-118.26 517.93,-118.26"/>
</g>
<!-- src/validate -->
<g id="node15" class="node">
<title>src/validate</title>
<g id="a_node15"><a xlink:href="https://github.com/sverweij/dependency-cruiser/blob/develop/src/validate" xlink:title="validate">
<path fill="#ccccff" stroke="black" d="M406.33,-112C406.33,-112 363.67,-112 363.67,-112 360.83,-112 358,-109.17 358,-106.33 358,-106.33 358,-100.67 358,-100.67 358,-97.83 360.83,-95 363.67,-95 363.67,-95 406.33,-95 406.33,-95 409.17,-95 412,-97.83 412,-100.67 412,-100.67 412,-106.33 412,-106.33 412,-109.17 409.17,-112 406.33,-112"/>
<text text-anchor="middle" x="385" y="-100.8" font-family="Helvetica,sans-Serif" font-size="9.00">validate</text>
</a>
</g>
</g>
<!-- src/extract&#45;&gt;src/validate -->
<g id="edge13" class="edge">
<title>src/extract&#45;&gt;src/validate</title>
<path fill="none" stroke="#0000ff" stroke-width="2" stroke-opacity="0.466667" d="M534.16,-206.47C534.16,-220.84 534.16,-323 534.16,-323 534.16,-323 386,-323 386,-323 386,-323 386,-118.1 386,-118.1"/>
<polygon fill="#0000ff" fill-opacity="0.466667" stroke="#0000ff" stroke-width="2" stroke-opacity="0.466667" points="388.1,-118.1 386,-112.1 383.9,-118.1 388.1,-118.1"/>
</g>
<!-- src/extract/parse -->
<g id="node16" class="node">
<title>src/extract/parse</title>
<g id="a_node16"><a xlink:href="https://github.com/sverweij/dependency-cruiser/blob/develop/src/extract/parse" xlink:title="parse">
<path fill="#ccffcc" stroke="black" d="M490.33,-163.3C490.33,-163.3 447.67,-163.3 447.67,-163.3 444.83,-163.3 442,-160.47 442,-157.63 442,-157.63 442,-151.97 442,-151.97 442,-149.13 444.83,-146.3 447.67,-146.3 447.67,-146.3 490.33,-146.3 490.33,-146.3 493.17,-146.3 496,-149.13 496,-151.97 496,-151.97 496,-157.63 496,-157.63 496,-160.47 493.17,-163.3 490.33,-163.3"/>
<text text-anchor="middle" x="469" y="-152.1" font-family="Helvetica,sans-Serif" font-size="9.00">parse</text>
</a>
</g>
</g>
<!-- src/extract&#45;&gt;src/extract/parse -->
<g id="edge14" class="edge">
<title>src/extract&#45;&gt;src/extract/parse</title>
<path fill="none" stroke="#007700" stroke-width="2" stroke-opacity="0.466667" d="M532.86,-203C530,-203 484.16,-203 484.16,-203 484.16,-203 484.16,-169.64 484.16,-169.64"/>
<polygon fill="#007700" fill-opacity="0.466667" stroke="#007700" stroke-width="2" stroke-opacity="0.466667" points="486.26,-169.64 484.16,-163.64 482.06,-169.64 486.26,-169.64"/>
</g>
<!-- src/extract&#45;&gt;src/extract/resolve/readPackageDeps -->
<g id="edge16" class="edge">
<title>src/extract&#45;&gt;src/extract/resolve/readPackageDeps</title>
<path fill="none" stroke="#007700" stroke-width="2" stroke-opacity="0.466667" d="M530.92,-205C529.88,-205 528.84,-205 528.84,-205 528.84,-205 528.84,-189 528.84,-189 528.84,-189 868.54,-189 868.54,-189 868.54,-189 868.54,-118.01 868.54,-118.01"/>
<polygon fill="#007700" fill-opacity="0.466667" stroke="#007700" stroke-width="2" stroke-opacity="0.466667" points="870.64,-118.01 868.54,-112.01 866.44,-118.01 870.64,-118.01"/>
</g>
<!-- src/utl -->
<g id="node18" class="node">
<title>src/utl</title>
<g id="a_node18"><a xlink:href="https://github.com/sverweij/dependency-cruiser/blob/develop/src/utl" xlink:title="utl">
<path fill="#cccccc" stroke="black" d="M406.33,-71C406.33,-71 363.67,-71 363.67,-71 360.83,-71 358,-68.17 358,-65.33 358,-65.33 358,-59.67 358,-59.67 358,-56.83 360.83,-54 363.67,-54 363.67,-54 406.33,-54 406.33,-54 409.17,-54 412,-56.83 412,-59.67 412,-59.67 412,-65.33 412,-65.33 412,-68.17 409.17,-71 406.33,-71"/>
<text text-anchor="middle" x="385" y="-59.8" font-family="Helvetica,sans-Serif" font-size="9.00">utl</text>
</a>
</g>
</g>
<!-- src/extract&#45;&gt;src/utl -->
<g id="edge17" class="edge">
<title>src/extract&#45;&gt;src/utl</title>
<path fill="none" stroke="#aaaaaa" stroke-width="2" stroke-opacity="0.466667" d="M530.93,-205C529.02,-205 526.47,-205 526.47,-205 526.47,-205 526.47,-169 526.47,-169 526.47,-169 418.5,-169 418.5,-169 418.5,-169 418.5,-62 418.5,-62 418.5,-62 417.85,-62 417.85,-62"/>
<polygon fill="#aaaaaa" fill-opacity="0.466667" stroke="#aaaaaa" stroke-width="2" stroke-opacity="0.466667" points="418.04,-59.9 412.04,-62 418.04,-64.1 418.04,-59.9"/>
</g>
<!-- src/extract/ast&#45;extractors -->
<g id="node19" class="node">
<title>src/extract/ast&#45;extractors</title>
<g id="a_node19"><a xlink:href="https://github.com/sverweij/dependency-cruiser/blob/develop/src/extract/ast-extractors" xlink:title="ast&#45;extractors">
<path fill="#ccffcc" stroke="black" d="M586.35,-163.3C586.35,-163.3 527.65,-163.3 527.65,-163.3 524.82,-163.3 521.98,-160.47 521.98,-157.63 521.98,-157.63 521.98,-151.97 521.98,-151.97 521.98,-149.13 524.82,-146.3 527.65,-146.3 527.65,-146.3 586.35,-146.3 586.35,-146.3 589.18,-146.3 592.02,-149.13 592.02,-151.97 592.02,-151.97 592.02,-157.63 592.02,-157.63 592.02,-160.47 589.18,-163.3 586.35,-163.3"/>
<text text-anchor="middle" x="557" y="-152.1" font-family="Helvetica,sans-Serif" font-size="9.00">ast&#45;extractors</text>
</a>
</g>
</g>
<!-- src/extract&#45;&gt;src/extract/ast&#45;extractors -->
<g id="edge18" class="edge">
<title>src/extract&#45;&gt;src/extract/ast&#45;extractors</title>
<path fill="none" stroke="#007700" stroke-width="2" stroke-opacity="0.466667" d="M532.4,-202.65C532.4,-202.65 532.4,-169.57 532.4,-169.57"/>
<polygon fill="#007700" fill-opacity="0.466667" stroke="#007700" stroke-width="2" stroke-opacity="0.466667" points="534.5,-169.57 532.4,-163.57 530.3,-169.57 534.5,-169.57"/>
</g>
<!-- src/extract&#45;&gt;src/extract/transpile -->
<g id="edge19" class="edge">
<title>src/extract&#45;&gt;src/extract/transpile</title>
<path fill="none" stroke="#007700" stroke-width="2" stroke-opacity="0.466667" d="M533.84,-206.54C533.84,-211.78 533.84,-227 533.84,-227 533.84,-227 500,-227 500,-227 500,-227 500,-103 500,-103 500,-103 498.23,-103 498.23,-103"/>
<polygon fill="#007700" fill-opacity="0.466667" stroke="#007700" stroke-width="2" stroke-opacity="0.466667" points="498.23,-100.9 492.23,-103 498.23,-105.1 498.23,-100.9"/>
</g>
<!-- src/validate&#45;&gt;src/utl -->
<g id="edge44" class="edge">
<title>src/validate&#45;&gt;src/utl</title>
<path fill="none" stroke="#aaaaaa" stroke-width="2" stroke-opacity="0.466667" d="M385,-94.8C385,-94.8 385,-77.18 385,-77.18"/>
<polygon fill="#aaaaaa" fill-opacity="0.466667" stroke="#aaaaaa" stroke-width="2" stroke-opacity="0.466667" points="387.1,-77.18 385,-71.18 382.9,-77.18 387.1,-77.18"/>
</g>
<!-- src/extract/parse&#45;&gt;src/extract/utl -->
<g id="edge21" class="edge">
<title>src/extract/parse&#45;&gt;src/extract/utl</title>
<path fill="none" stroke="#007700" stroke-width="2" stroke-opacity="0.466667" d="M496.06,-154C503.67,-154 509.91,-154 509.91,-154 509.91,-154 509.91,-118.3 509.91,-118.3"/>
<polygon fill="#007700" fill-opacity="0.466667" stroke="#007700" stroke-width="2" stroke-opacity="0.466667" points="512.01,-118.3 509.91,-112.3 507.81,-118.3 512.01,-118.3"/>
</g>
<!-- src/extract/parse&#45;&gt;src/extract/transpile -->
<g id="edge20" class="edge">
<title>src/extract/parse&#45;&gt;src/extract/transpile</title>
<path fill="none" stroke="#007700" stroke-width="2" stroke-opacity="0.466667" d="M467,-145.86C467,-145.86 467,-118.33 467,-118.33"/>
<polygon fill="#007700" fill-opacity="0.466667" stroke="#007700" stroke-width="2" stroke-opacity="0.466667" points="469.1,-118.33 467,-112.33 464.9,-118.33 469.1,-118.33"/>
</g>
<!-- src/extract/derive -->
<!-- src/report&#45;&gt;src/utl -->
<g id="edge41" class="edge">
<title>src/report&#45;&gt;src/utl</title>
<path fill="none" stroke="#aaaaaa" stroke-width="2" stroke-opacity="0.466667" d="M184.88,-104C203.22,-104 350,-104 350,-104 350,-104 350,-62 350,-62 350,-62 351.77,-62 351.77,-62"/>
<polygon fill="#aaaaaa" fill-opacity="0.466667" stroke="#aaaaaa" stroke-width="2" stroke-opacity="0.466667" points="351.77,-64.1 357.77,-62 351.77,-59.9 351.77,-64.1"/>
</g>
<!-- src/report/anon -->
<g id="node27" class="node">
<title>src/report/anon</title>
<g id="a_node27"><a xlink:href="https://github.com/sverweij/dependency-cruiser/blob/develop/src/report/anon" xlink:title="anon">
<path fill="#ffccff" stroke="black" d="M204.33,-71C204.33,-71 161.67,-71 161.67,-71 158.83,-71 156,-68.17 156,-65.33 156,-65.33 156,-59.67 156,-59.67 156,-56.83 158.83,-54 161.67,-54 161.67,-54 204.33,-54 204.33,-54 207.17,-54 210,-56.83 210,-59.67 210,-59.67 210,-65.33 210,-65.33 210,-68.17 207.17,-71 204.33,-71"/>
<text text-anchor="middle" x="183" y="-59.8" font-family="Helvetica,sans-Serif" font-size="9.00">anon</text>
</a>
</g>
</g>
<!-- src/report&#45;&gt;src/report/anon -->
<g id="edge36" class="edge">
<title>src/report&#45;&gt;src/report/anon</title>
<path fill="none" stroke="#ff00ff" stroke-width="2" stroke-opacity="0.466667" d="M183,-101.3C183,-101.3 183,-77.12 183,-77.12"/>
<polygon fill="#ff00ff" fill-opacity="0.466667" stroke="#ff00ff" stroke-width="2" stroke-opacity="0.466667" points="185.1,-77.12 183,-71.12 180.9,-77.12 185.1,-77.12"/>
</g>
<!-- src/report/csv -->
<g id="node28" class="node">
<title>src/report/csv</title>
<g id="a_node28"><a xlink:href="https://github.com/sverweij/dependency-cruiser/blob/develop/src/report/csv" xlink:title="csv">
<path fill="#ffccff" stroke="black" d="M270.33,-71C270.33,-71 227.67,-71 227.67,-71 224.83,-71 222,-68.17 222,-65.33 222,-65.33 222,-59.67 222,-59.67 222,-56.83 224.83,-54 227.67,-54 227.67,-54 270.33,-54 270.33,-54 273.17,-54 276,-56.83 276,-59.67 276,-59.67 276,-65.33 276,-65.33 276,-68.17 273.17,-71 270.33,-71"/>
<text text-anchor="middle" x="249" y="-59.8" font-family="Helvetica,sans-Serif" font-size="9.00">csv</text>
</a>
</g>
</g>
<!-- src/report&#45;&gt;src/report/csv -->
<g id="edge37" class="edge">
<title>src/report&#45;&gt;src/report/csv</title>
<path fill="none" stroke="#ff00ff" stroke-width="2" stroke-opacity="0.466667" d="M184.15,-102C192.91,-102 249,-102 249,-102 249,-102 249,-77.27 249,-77.27"/>
<polygon fill="#ff00ff" fill-opacity="0.466667" stroke="#ff00ff" stroke-width="2" stroke-opacity="0.466667" points="251.1,-77.27 249,-71.27 246.9,-77.27 251.1,-77.27"/>
</g>
<!-- src/report/dot -->
<g id="node29" class="node">
<title>src/report/dot</title>
<g id="a_node29"><a xlink:href="https://github.com/sverweij/dependency-cruiser/blob/develop/src/report/dot" xlink:title="dot">
<path fill="#ffccff" stroke="black" d="M336.33,-71C336.33,-71 293.67,-71 293.67,-71 290.83,-71 288,-68.17 288,-65.33 288,-65.33 288,-59.67 288,-59.67 288,-56.83 290.83,-54 293.67,-54 293.67,-54 336.33,-54 336.33,-54 339.17,-54 342,-56.83 342,-59.67 342,-59.67 342,-65.33 342,-65.33 342,-68.17 339.17,-71 336.33,-71"/>
<text text-anchor="middle" x="315" y="-59.8" font-family="Helvetica,sans-Serif" font-size="9.00">dot</text>
</a>
</g>
</g>
<!-- src/report&#45;&gt;src/report/dot -->
<g id="edge38" class="edge">
<title>src/report&#45;&gt;src/report/dot</title>
<path fill="none" stroke="#ff00ff" stroke-width="2" stroke-opacity="0.466667" d="M184.91,-103C201.32,-103 317.99,-103 317.99,-103 317.99,-103 317.99,-77.09 317.99,-77.09"/>
<polygon fill="#ff00ff" fill-opacity="0.466667" stroke="#ff00ff" stroke-width="2" stroke-opacity="0.466667" points="320.09,-77.09 317.99,-71.09 315.89,-77.09 320.09,-77.09"/>
</g>
<!-- src/report/err&#45;html -->
<g id="node30" class="node">
<title>src/report/err&#45;html</title>
<g id="a_node30"><a xlink:href="https://github.com/sverweij/dependency-cruiser/blob/develop/src/report/err-html" xlink:title="err&#45;html">
<path fill="#ffccff" stroke="black" d="M72.33,-71C72.33,-71 29.67,-71 29.67,-71 26.83,-71 24,-68.17 24,-65.33 24,-65.33 24,-59.67 24,-59.67 24,-56.83 26.83,-54 29.67,-54 29.67,-54 72.33,-54 72.33,-54 75.17,-54 78,-56.83 78,-59.67 78,-59.67 78,-65.33 78,-65.33 78,-68.17 75.17,-71 72.33,-71"/>
<text text-anchor="middle" x="51" y="-59.8" font-family="Helvetica,sans-Serif" font-size="9.00">err&#45;html</text>
</a>
</g>
</g>
<!-- src/report&#45;&gt;src/report/err&#45;html -->
<g id="edge39" class="edge">
<title>src/report&#45;&gt;src/report/err&#45;html</title>
<path fill="none" stroke="#ff00ff" stroke-width="2" stroke-opacity="0.466667" d="M181.09,-104C166.48,-104 73,-104 73,-104 73,-104 73,-77.3 73,-77.3"/>
<polygon fill="#ff00ff" fill-opacity="0.466667" stroke="#ff00ff" stroke-width="2" stroke-opacity="0.466667" points="75.1,-77.3 73,-71.3 70.9,-77.3 75.1,-77.3"/>
</g>
<!-- src/report/html -->
<g id="node31" class="node">
<title>src/report/html</title>
<g id="a_node31"><a xlink:href="https://github.com/sverweij/dependency-cruiser/blob/develop/src/report/html" xlink:title="html">
<path fill="#ffccff" stroke="black" d="M138.33,-71C138.33,-71 95.67,-71 95.67,-71 92.83,-71 90,-68.17 90,-65.33 90,-65.33 90,-59.67 90,-59.67 90,-56.83 92.83,-54 95.67,-54 95.67,-54 138.33,-54 138.33,-54 141.17,-54 144,-56.83 144,-59.67 144,-59.67 144,-65.33 144,-65.33 144,-68.17 141.17,-71 138.33,-71"/>
<text text-anchor="middle" x="117" y="-59.8" font-family="Helvetica,sans-Serif" font-size="9.00">html</text>
</a>
</g>
</g>
<!-- src/report&#45;&gt;src/report/html -->
<g id="edge40" class="edge">
<title>src/report&#45;&gt;src/report/html</title>
<path fill="none" stroke="#ff00ff" stroke-width="2" stroke-opacity="0.466667" d="M181.69,-102C173.53,-102 130,-102 130,-102 130,-102 130,-77.27 130,-77.27"/>
<polygon fill="#ff00ff" fill-opacity="0.466667" stroke="#ff00ff" stroke-width="2" stroke-opacity="0.466667" points="132.1,-77.27 130,-71.27 127.9,-77.27 132.1,-77.27"/>
</g>
<!-- src/main/options&#45;&gt;src/report -->
<g id="edge32" class="edge">
<title>src/main/options&#45;&gt;src/report</title>
<path fill="none" stroke="#ff00ff" stroke-width="2" stroke-opacity="0.466667" d="M182.4,-145.86C182.4,-145.86 182.4,-111.37 182.4,-111.37"/>
<polygon fill="#ff00ff" fill-opacity="0.466667" stroke="#ff00ff" stroke-width="2" stroke-opacity="0.466667" points="184.5,-111.37 182.4,-105.37 180.3,-111.37 184.5,-111.37"/>
</g>
<!-- src/main/ruleSet&#45;&gt;src/schema -->
<g id="edge34" class="edge">
<title>src/main/ruleSet&#45;&gt;src/schema</title>
<path fill="none" stroke="#000000" stroke-width="2" stroke-opacity="0.200000" d="M150,-195.95C150,-181.4 150,-154 150,-154 150,-154 128.18,-154 128.18,-154"/>
<polygon fill="#000000" fill-opacity="0.200000" stroke="#000000" stroke-width="2" stroke-opacity="0.200000" points="128.18,-151.9 122.18,-154 128.18,-156.1 128.18,-151.9"/>
</g>
<!-- src/main/ruleSet&#45;&gt;src/main/options -->
<g id="edge35" class="edge">
<title>src/main/ruleSet&#45;&gt;src/main/options</title>
<path fill="none" stroke="#770000" stroke-width="2" stroke-opacity="0.466667" d="M174,-196.09C174,-196.09 174,-169.41 174,-169.41"/>
<polygon fill="#770000" fill-opacity="0.466667" stroke="#770000" stroke-width="2" stroke-opacity="0.466667" points="176.1,-169.41 174,-163.41 171.9,-169.41 176.1,-169.41"/>
</g>
<!-- src/report/utl -->
<g id="node32" class="node">
<title>src/report/utl</title>
<g id="a_node32"><a xlink:href="https://github.com/sverweij/dependency-cruiser/blob/develop/src/report/utl" xlink:title="utl">
<path fill="#ffccff" stroke="black" d="M204.33,-41C204.33,-41 161.67,-41 161.67,-41 158.83,-41 156,-38.17 156,-35.33 156,-35.33 156,-29.67 156,-29.67 156,-26.83 158.83,-24 161.67,-24 161.67,-24 204.33,-24 204.33,-24 207.17,-24 210,-26.83 210,-29.67 210,-29.67 210,-35.33 210,-35.33 210,-38.17 207.17,-41 204.33,-41"/>
<text text-anchor="middle" x="183" y="-29.8" font-family="Helvetica,sans-Serif" font-size="9.00">utl</text>
</a>
</g>
</g>
<!-- src/report/csv&#45;&gt;src/report/utl -->
<g id="edge42" class="edge">
<title>src/report/csv&#45;&gt;src/report/utl</title>
<path fill="none" stroke="#ff00ff" stroke-width="2" stroke-opacity="0.466667" d="M249,-53.84C249,-44.82 249,-32 249,-32 249,-32 216.23,-32 216.23,-32"/>
<polygon fill="#ff00ff" fill-opacity="0.466667" stroke="#ff00ff" stroke-width="2" stroke-opacity="0.466667" points="216.23,-29.9 210.23,-32 216.23,-34.1 216.23,-29.9"/>
</g>
<!-- src/report/html&#45;&gt;src/report/utl -->
<g id="edge43" class="edge">
<title>src/report/html&#45;&gt;src/report/utl</title>
<path fill="none" stroke="#ff00ff" stroke-width="2" stroke-opacity="0.466667" d="M117,-53.84C117,-44.82 117,-32 117,-32 117,-32 149.77,-32 149.77,-32"/>
<polygon fill="#ff00ff" fill-opacity="0.466667" stroke="#ff00ff" stroke-width="2" stroke-opacity="0.466667" points="149.77,-34.1 155.77,-32 149.77,-29.9 149.77,-34.1"/>
</g>
</g>
</svg>
