<?xml version="1.0" encoding="UTF-8" standalone="no"?>
<!DOCTYPE svg PUBLIC "-//W3C//DTD SVG 1.1//EN"
 "http://www.w3.org/Graphics/SVG/1.1/DTD/svg11.dtd">
<!-- Generated by graphviz version 2.40.1 (20161225.0304)
 -->
<!-- Title: dependency&#45;cruiser output Pages: 1 -->
<svg width="238pt" height="126pt"
 viewBox="0.00 0.00 237.57 125.50" xmlns="http://www.w3.org/2000/svg" xmlns:xlink="http://www.w3.org/1999/xlink">
<g id="graph0" class="graph" transform="scale(1 1) rotate(0) translate(4 121.5)">
<title>dependency&#45;cruiser output</title>
<polygon fill="#ffffff" stroke="transparent" points="-4,4 -4,-121.5 233.5662,-121.5 233.5662,4 -4,4"/>
<g id="clust1" class="cluster">
<title>cluster_/bin</title>
<path fill="none" stroke="#000000" stroke-width="2" d="M20,-28C20,-28 104.0474,-28 104.0474,-28 110.0474,-28 116.0474,-34 116.0474,-40 116.0474,-40 116.0474,-67 116.0474,-67 116.0474,-73 110.0474,-79 104.0474,-79 104.0474,-79 20,-79 20,-79 14,-79 8,-73 8,-67 8,-67 8,-40 8,-40 8,-34 14,-28 20,-28"/>
<text text-anchor="middle" x="62.0237" y="-67.8" font-family="Helvetica,sans-Serif" font-weight="bold" font-size="9.00" fill="#000000">bin</text>
</g>
<g id="clust2" class="cluster">
<title>cluster_/src</title>
<path fill="none" stroke="#000000" stroke-width="2" d="M147.5662,-8C147.5662,-8 209.5662,-8 209.5662,-8 215.5662,-8 221.5662,-14 221.5662,-20 221.5662,-20 221.5662,-80 221.5662,-80 221.5662,-86 215.5662,-92 209.5662,-92 209.5662,-92 147.5662,-92 147.5662,-92 141.5662,-92 135.5662,-86 135.5662,-80 135.5662,-80 135.5662,-20 135.5662,-20 135.5662,-14 141.5662,-8 147.5662,-8"/>
<text text-anchor="middle" x="178.5662" y="-80.8" font-family="Helvetica,sans-Serif" font-weight="bold" font-size="9.00" fill="#000000">src</text>
</g>
<g id="clust3" class="cluster">
<title>cluster_/src/cli</title>
<path fill="none" stroke="#000000" stroke-width="2" d="M155.5662,-16C155.5662,-16 201.5662,-16 201.5662,-16 207.5662,-16 213.5662,-22 213.5662,-28 213.5662,-28 213.5662,-55 213.5662,-55 213.5662,-61 207.5662,-67 201.5662,-67 201.5662,-67 155.5662,-67 155.5662,-67 149.5662,-67 143.5662,-61 143.5662,-55 143.5662,-55 143.5662,-28 143.5662,-28 143.5662,-22 149.5662,-16 155.5662,-16"/>
<text text-anchor="middle" x="178.5662" y="-55.8" font-family="Helvetica,sans-Serif" font-weight="bold" font-size="9.00" fill="#000000">cli</text>
</g>
<!-- bin/dependency&#45;cruise -->
<g id="node1" class="node">
<title>bin/dependency&#45;cruise</title>
<g id="a_node1"><a xlink:href="bin/dependency-cruise" xlink:title="dependency&#45;cruise">
<path fill="#ffffcc" stroke="#000000" d="M102.4044,-53.5C102.4044,-53.5 21.643,-53.5 21.643,-53.5 18.8096,-53.5 15.9763,-50.6667 15.9763,-47.8333 15.9763,-47.8333 15.9763,-42.1667 15.9763,-42.1667 15.9763,-39.3333 18.8096,-36.5 21.643,-36.5 21.643,-36.5 102.4044,-36.5 102.4044,-36.5 105.2377,-36.5 108.0711,-39.3333 108.0711,-42.1667 108.0711,-42.1667 108.0711,-47.8333 108.0711,-47.8333 108.0711,-50.6667 105.2377,-53.5 102.4044,-53.5"/>
<text text-anchor="middle" x="62.0237" y="-42.3" font-family="Helvetica,sans-Serif" font-size="9.00" fill="#000000">dependency&#45;cruise</text>
</a>
</g>
</g>
<!-- package.json -->
<g id="node2" class="node">
<title>package.json</title>
<g id="a_node2"><a xlink:href="package.json" xlink:title="package.json">
<path fill="#ffffcc" stroke="#000000" d="M207.4371,-117.5C207.4371,-117.5 149.6952,-117.5 149.6952,-117.5 146.8619,-117.5 144.0286,-114.6667 144.0286,-111.8333 144.0286,-111.8333 144.0286,-106.1667 144.0286,-106.1667 144.0286,-103.3333 146.8619,-100.5 149.6952,-100.5 149.6952,-100.5 207.4371,-100.5 207.4371,-100.5 210.2704,-100.5 213.1038,-103.3333 213.1038,-106.1667 213.1038,-106.1667 213.1038,-111.8333 213.1038,-111.8333 213.1038,-114.6667 210.2704,-117.5 207.4371,-117.5"/>
<text text-anchor="middle" x="178.5662" y="-106.3" font-family="Helvetica,sans-Serif" font-size="9.00" fill="#000000">package.json</text>
</a>
</g>
</g>
<!-- bin/dependency&#45;cruise&#45;&gt;package.json -->
<g id="edge1" class="edge">
<title>bin/dependency&#45;cruise&#45;&gt;package.json</title>
<path fill="none" stroke="#000000" d="M77.7411,-53.6313C97.2906,-64.367 130.8904,-82.8185 153.8881,-95.4479"/>
<polygon fill="#000000" stroke="#000000" points="152.2755,-98.5553 162.7255,-100.301 155.645,-92.4196 152.2755,-98.5553"/>
</g>
<!-- src/cli/index.js -->
<g id="node3" class="node">
<title>src/cli/index.js</title>
<g id="a_node3"><a xlink:href="src/cli/index.js" xlink:title="index.js">
<path fill="#ffffcc" stroke="#000000" d="M199.8995,-41.5C199.8995,-41.5 157.2328,-41.5 157.2328,-41.5 154.3995,-41.5 151.5662,-38.6667 151.5662,-35.8333 151.5662,-35.8333 151.5662,-30.1667 151.5662,-30.1667 151.5662,-27.3333 154.3995,-24.5 157.2328,-24.5 157.2328,-24.5 199.8995,-24.5 199.8995,-24.5 202.7328,-24.5 205.5662,-27.3333 205.5662,-30.1667 205.5662,-30.1667 205.5662,-35.8333 205.5662,-35.8333 205.5662,-38.6667 202.7328,-41.5 199.8995,-41.5"/>
<text text-anchor="middle" x="178.5662" y="-30.3" font-family="Helvetica,sans-Serif" font-size="9.00" fill="#000000">index.js</text>
</a>
</g>
</g>
<!-- bin/dependency&#45;cruise&#45;&gt;src/cli/index.js -->
<g id="edge2" class="edge">
<title>bin/dependency&#45;cruise&#45;&gt;src/cli/index.js</title>
<path fill="none" stroke="#000000" d="M108.0844,-40.2573C119.0595,-39.1272 130.6398,-37.9348 141.1716,-36.8504"/>
<polygon fill="#000000" stroke="#000000" points="141.7038,-40.3142 151.2927,-35.8083 140.9868,-33.351 141.7038,-40.3142"/>
</g>
</g>
</svg>
