<svg width="791pt" height="766pt" viewBox="0 0 791 766" xmlns="http://www.w3.org/2000/svg" xmlns:xlink="http://www.w3.org/1999/xlink"><g class="graph" transform="translate(4 762)"><path fill="#fff" stroke="transparent" d="M-4 4v-766h791V4H-4z"/><g class="cluster"><path fill="#fff" stroke="#000" stroke-width="2" d="M20-8h743c6 0 12-6 12-12v-718c0-6-6-12-12-12H20c-6 0-12 6-12 12v718c0 6 6 12 12 12"/><text text-anchor="middle" x="391.5" y="-738.8" font-family="Helvetica,sans-Serif" font-weight="bold" font-size="9">src</text></g><g class="cluster"><path fill="#fff" stroke="#000" stroke-width="2" d="M28-307h151c6 0 12-6 12-12v-58c0-6-6-12-12-12H28c-6 0-12 6-12 12v58c0 6 6 12 12 12"/><text text-anchor="middle" x="103.5" y="-377.8" font-family="Helvetica,sans-Serif" font-weight="bold" font-size="9">cli</text></g><g class="cluster"><path fill="#fff" stroke="#000" stroke-width="2" d="M219-16h114c6 0 12-6 12-12v-62c0-6-6-12-12-12H219c-6 0-12 6-12 12v62c0 6 6 12 12 12"/><text text-anchor="middle" x="276" y="-90.8" font-family="Helvetica,sans-Serif" font-weight="bold" font-size="9">config-utl</text></g><g class="cluster"><path fill="#fff" stroke="#000" stroke-width="2" d="M227-24h98c6 0 12-6 12-12v-28c0-6-6-12-12-12h-98c-6 0-12 6-12 12v28c0 6 6 12 12 12"/><text text-anchor="middle" x="276" y="-64.8" font-family="Helvetica,sans-Serif" font-weight="bold" font-size="9">extract-depcruise-config</text></g><g class="cluster"><path fill="#fff" stroke="#000" stroke-width="2" d="M395-614h184.5c6 0 12-6 12-12v-62c0-6-6-12-12-12H395c-6 0-12 6-12 12v62c0 6 6 12 12 12"/><text text-anchor="middle" x="487.25" y="-688.8" font-family="Helvetica,sans-Serif" font-weight="bold" font-size="9">enrich</text></g><g class="cluster"><path fill="#fff" stroke="#000" stroke-width="2" d="M525.5-622h46c6 0 12-6 12-12v-28c0-6-6-12-12-12h-46c-6 0-12 6-12 12v28c0 6 6 12 12 12"/><text text-anchor="middle" x="548.5" y="-662.8" font-family="Helvetica,sans-Serif" font-weight="bold" font-size="9">summarize</text></g><g class="cluster"><path fill="#fff" stroke="#000" stroke-width="2" d="M517.5-404h62c6 0 12-6 12-12v-88c0-6-6-12-12-12h-62c-6 0-12 6-12 12v88c0 6 6 12 12 12"/><text text-anchor="middle" x="548.5" y="-504.8" font-family="Helvetica,sans-Serif" font-weight="bold" font-size="9">extract</text></g><g class="cluster"><path fill="#fff" stroke="#000" stroke-width="2" d="M525.5-412h46c6 0 12-6 12-12v-28c0-6-6-12-12-12h-46c-6 0-12 6-12 12v28c0 6 6 12 12 12"/><text text-anchor="middle" x="548.5" y="-452.8" font-family="Helvetica,sans-Serif" font-weight="bold" font-size="9">transpile</text></g><g class="cluster"><path fill="#fff" stroke="#000" stroke-width="2" d="M636.5-404h107c6 0 12-6 12-12v-148c0-6-6-12-12-12h-107c-6 0-12 6-12 12v148c0 6 6 12 12 12"/><text text-anchor="middle" x="690" y="-564.8" font-family="Helvetica,sans-Serif" font-weight="bold" font-size="9">graph-utl</text></g><g class="cluster"><path fill="#fff" stroke="#000" stroke-width="2" d="M253-110h502c6 0 12-6 12-12v-262c0-6-6-12-12-12H253c-6 0-12 6-12 12v262c0 6 6 12 12 12"/><text text-anchor="middle" x="504" y="-384.8" font-family="Helvetica,sans-Serif" font-weight="bold" font-size="9">main</text></g><g class="cluster"><path fill="#fff" stroke="#000" stroke-width="2" d="M389-318h58c6 0 12-6 12-12v-28c0-6-6-12-12-12h-58c-6 0-12 6-12 12v28c0 6 6 12 12 12"/><text text-anchor="middle" x="418" y="-358.8" font-family="Helvetica,sans-Serif" font-weight="bold" font-size="9">files-and-dirs</text></g><g class="cluster"><path fill="#fff" stroke="#000" stroke-width="2" d="M519.5-118H715c6 0 12-6 12-12v-58c0-6-6-12-12-12H519.5c-6 0-12 6-12 12v58c0 6 6 12 12 12"/><text text-anchor="middle" x="617.25" y="-188.8" font-family="Helvetica,sans-Serif" font-weight="bold" font-size="9">options</text></g><g class="cluster"><path fill="#fff" stroke="#000" stroke-width="2" d="M389-258h59c6 0 12-6 12-12v-28c0-6-6-12-12-12h-59c-6 0-12 6-12 12v28c0 6 6 12 12 12"/><text text-anchor="middle" x="418.5" y="-298.8" font-family="Helvetica,sans-Serif" font-weight="bold" font-size="9">resolve-options</text></g><g class="cluster"><path fill="#fff" stroke="#000" stroke-width="2" d="M389-142h58c6 0 12-6 12-12v-58c0-6-6-12-12-12h-58c-6 0-12 6-12 12v58c0 6 6 12 12 12"/><text text-anchor="middle" x="418" y="-212.8" font-family="Helvetica,sans-Serif" font-weight="bold" font-size="9">rule-set</text></g><g class="cluster"><path fill="#fff" stroke="#000" stroke-width="2" d="M633-208h114c6 0 12-6 12-12v-28c0-6-6-12-12-12H633c-6 0-12 6-12 12v28c0 6 6 12 12 12"/><text text-anchor="middle" x="690" y="-248.8" font-family="Helvetica,sans-Serif" font-weight="bold" font-size="9">utl</text></g><g class="cluster"><path fill="#fff" stroke="#000" stroke-width="2" d="M667-50h46c6 0 12-6 12-12v-28c0-6-6-12-12-12h-46c-6 0-12 6-12 12v28c0 6 6 12 12 12"/><text text-anchor="middle" x="690" y="-90.8" font-family="Helvetica,sans-Serif" font-weight="bold" font-size="9">report</text></g><g class="cluster"><path fill="#fff" stroke="#000" stroke-width="2" d="M496-524h105c6 0 12-6 12-12v-58c0-6-6-12-12-12H496c-6 0-12 6-12 12v58c0 6 6 12 12 12"/><text text-anchor="middle" x="548.5" y="-594.8" font-family="Helvetica,sans-Serif" font-weight="bold" font-size="9">schema</text></g><g class="cluster"><path fill="#fff" stroke="#000" stroke-width="2" d="M667-672h46c6 0 12-6 12-12v-28c0-6-6-12-12-12h-46c-6 0-12 6-12 12v28c0 6 6 12 12 12"/><text text-anchor="middle" x="690" y="-712.8" font-family="Helvetica,sans-Serif" font-weight="bold" font-size="9">utl</text></g><g class="node"><a xlink:href="src/cli/format-meta-info.js" xlink:title="format-meta-info.js"><path fill="#ffc" stroke="#000" d="M177-333H97c-3 0-6 3-6 6v6c0 3 3 6 6 6h80c3 0 6-3 6-6v-6c0-3-3-6-6-6"/><text x="99" y="-321.8" font-family="Helvetica,sans-Serif" font-size="9">format-meta-info.js</text></a></g><g class="node"><a xlink:href="src/main/index.js" xlink:title="index.js"><path fill="#ffc" stroke="#000" d="M297-344h-42c-3 0-6 3-6 6v6c0 3 3 6 6 6h42c3 0 6-3 6-6v-6c0-3-3-6-6-6"/><text x="260" y="-332.8" font-family="Helvetica,sans-Serif" font-size="9">index.js</text></a></g><g class="edge"><path fill="none" stroke="#000" stroke-width="2" stroke-opacity=".2" d="M183.28-329.5h59.68"/><path fill-opacity=".2" stroke="#000" stroke-width="2" stroke-opacity=".2" d="m242.96-331.6 6 2.1-6 2.1v-4.2z"/></g><g class="node"><a xlink:href="src/utl/bus.js" xlink:title="bus.js"><path fill="#ffc" stroke="#000" d="M711-698h-42c-3 0-6 3-6 6v6c0 3 3 6 6 6h42c3 0 6-3 6-6v-6c0-3-3-6-6-6"/><text x="677.5" y="-686.8" font-family="Helvetica,sans-Serif" font-size="9">bus.js</text></a></g><g class="edge"><path fill="none" stroke="#000" stroke-width="2" stroke-opacity=".2" d="M258-344.11V-689h398.98"/><path fill-opacity=".2" stroke="#000" stroke-width="2" stroke-opacity=".2" d="m656.98-691.1 6 2.1-6 2.1v-4.2z"/></g><g class="node"><a xlink:href="src/main/resolve-options/normalize.js" xlink:title="normalize.js"><path fill="#ffc" stroke="#000" d="M445-284h-54c-3 0-6 3-6 6v6c0 3 3 6 6 6h54c3 0 6-3 6-6v-6c0-3-3-6-6-6"/><text x="393" y="-272.8" font-family="Helvetica,sans-Serif" font-size="9">normalize.js</text></a></g><g class="edge"><path fill="none" stroke="#000" stroke-width="2" stroke-opacity=".2" d="M297-325.84V-278h81.94"/><path fill-opacity=".2" stroke="#000" stroke-width="2" stroke-opacity=".2" d="m378.94-280.1 6 2.1-6 2.1v-4.2z"/></g><g class="node"><a xlink:href="src/enrich/index.js" xlink:title="index.js"><path fill="#ffc" stroke="#000" d="M439-644h-42c-3 0-6 3-6 6v6c0 3 3 6 6 6h42c3 0 6-3 6-6v-6c0-3-3-6-6-6"/><text x="402" y="-632.8" font-family="Helvetica,sans-Serif" font-size="9">index.js</text></a></g><g class="edge"><path fill="none" stroke="#000" stroke-width="2" stroke-opacity=".2" d="M267-344.31V-635h117.66"/><path fill-opacity=".2" stroke="#000" stroke-width="2" stroke-opacity=".2" d="m384.66-637.1 6 2.1-6 2.1v-4.2z"/></g><g class="node"><a xlink:href="src/extract/index.js" xlink:title="index.js"><path fill="#ffc" stroke="#000" d="M569.5-490h-42c-3 0-6 3-6 6v6c0 3 3 6 6 6h42c3 0 6-3 6-6v-6c0-3-3-6-6-6"/><text x="532.5" y="-478.8" font-family="Helvetica,sans-Serif" font-size="9">index.js</text></a></g><g class="edge"><path fill="none" stroke="#000" stroke-width="2" stroke-opacity=".2" d="M285-344.13V-481h230.29"/><path fill-opacity=".2" stroke="#000" stroke-width="2" stroke-opacity=".2" d="m515.29-483.1 6 2.1-6 2.1v-4.2z"/></g><g class="node"><a xlink:href="src/extract/transpile/meta.js" xlink:title="meta.js"><path fill="#ffc" stroke="#000" d="M569.5-438h-42c-3 0-6 3-6 6v6c0 3 3 6 6 6h42c3 0 6-3 6-6v-6c0-3-3-6-6-6"/><text x="533.5" y="-426.8" font-family="Helvetica,sans-Serif" font-size="9">meta.js</text></a></g><g class="edge"><path fill="none" stroke="#000" stroke-width="2" stroke-opacity=".2" d="M294-344.01V-429h221.26"/><path fill-opacity=".2" stroke="#000" stroke-width="2" stroke-opacity=".2" d="m515.26-431.1 6 2.1-6 2.1v-4.2z"/></g><g class="node"><a xlink:href="src/main/files-and-dirs/normalize.js" xlink:title="normalize.js"><path fill="#ffc" stroke="#000" d="M445-344h-54c-3 0-6 3-6 6v6c0 3 3 6 6 6h54c3 0 6-3 6-6v-6c0-3-3-6-6-6"/><text x="393" y="-332.8" font-family="Helvetica,sans-Serif" font-size="9">normalize.js</text></a></g><g class="edge"><path fill="none" stroke="#000" stroke-width="2" stroke-opacity=".2" d="M303.04-335h75.77"/><path fill-opacity=".2" stroke="#000" stroke-width="2" stroke-opacity=".2" d="m378.81-337.1 6 2.1-6 2.1v-4.2z"/></g><g class="node"><a xlink:href="src/schema/cruise-result.schema.js" xlink:title="cruise-result.schema.js"><path fill="#ffc" stroke="#000" d="M597.5-580h-98c-3 0-6 3-6 6v6c0 3 3 6 6 6h98c3 0 6-3 6-6v-6c0-3-3-6-6-6"/><text x="501.5" y="-568.8" font-family="Helvetica,sans-Serif" font-size="9">cruise-result.schema.js</text></a></g><g class="edge"><path fill="none" stroke="#000" stroke-width="2" stroke-opacity=".2" d="M276-344.25V-571h211.36"/><path fill-opacity=".2" stroke="#000" stroke-width="2" stroke-opacity=".2" d="m487.36-573.1 6 2.1-6 2.1v-4.2z"/></g><g class="node"><a xlink:href="src/main/options/normalize.js" xlink:title="normalize.js"><path fill="#ffc" stroke="#000" d="M575.5-174h-54c-3 0-6 3-6 6v6c0 3 3 6 6 6h54c3 0 6-3 6-6v-6c0-3-3-6-6-6"/><text x="523.5" y="-162.8" font-family="Helvetica,sans-Serif" font-size="9">normalize.js</text></a></g><g class="edge"><path fill="none" stroke="#000" stroke-width="2" stroke-opacity=".2" d="M263-325.73v5.23h277v140.24"/><path fill-opacity=".2" stroke="#000" stroke-width="2" stroke-opacity=".2" d="m542.1-180.26-2.1 6-2.1-6h4.2z"/></g><g class="node"><a xlink:href="src/main/options/validate.js" xlink:title="validate.js"><path fill="#ffc" stroke="#000" d="M571.5-144h-46c-3 0-6 3-6 6v6c0 3 3 6 6 6h46c3 0 6-3 6-6v-6c0-3-3-6-6-6"/><text x="527.5" y="-132.8" font-family="Helvetica,sans-Serif" font-size="9">validate.js</text></a></g><g class="edge"><path fill="none" stroke="#000" stroke-width="2" stroke-opacity=".2" d="M256-325.75V-132h257.38"/><path fill-opacity=".2" stroke="#000" stroke-width="2" stroke-opacity=".2" d="m513.38-134.1 6 2.1-6 2.1v-4.2z"/></g><g class="node"><a xlink:href="src/main/report-wrap.js" xlink:title="report-wrap.js"><path fill="#ffc" stroke="#000" d="M448.5-250h-61c-3 0-6 3-6 6v6c0 3 3 6 6 6h61c3 0 6-3 6-6v-6c0-3-3-6-6-6"/><text x="389.5" y="-238.8" font-family="Helvetica,sans-Serif" font-size="9">report-wrap.js</text></a></g><g class="edge"><path fill="none" stroke="#000" stroke-width="2" stroke-opacity=".2" d="M290-325.99V-241h85.32"/><path fill-opacity=".2" stroke="#000" stroke-width="2" stroke-opacity=".2" d="m375.32-243.1 6 2.1-6 2.1v-4.2z"/></g><g class="node"><a xlink:href="src/main/rule-set/normalize.js" xlink:title="normalize.js"><path fill="#ffc" stroke="#000" d="M445-198h-54c-3 0-6 3-6 6v6c0 3 3 6 6 6h54c3 0 6-3 6-6v-6c0-3-3-6-6-6"/><text x="393" y="-186.8" font-family="Helvetica,sans-Serif" font-size="9">normalize.js</text></a></g><g class="edge"><path fill="none" stroke="#000" stroke-width="2" stroke-opacity=".2" d="M283-325.87V-189h95.98"/><path fill-opacity=".2" stroke="#000" stroke-width="2" stroke-opacity=".2" d="m378.98-191.1 6 2.1-6 2.1v-4.2z"/></g><g class="node"><a xlink:href="src/main/rule-set/validate.js" xlink:title="validate.js"><path fill="#ffc" stroke="#000" d="M441-168h-46c-3 0-6 3-6 6v6c0 3 3 6 6 6h46c3 0 6-3 6-6v-6c0-3-3-6-6-6"/><text x="397" y="-156.8" font-family="Helvetica,sans-Serif" font-size="9">validate.js</text></a></g><g class="edge"><path fill="none" stroke="#000" stroke-width="2" stroke-opacity=".2" d="M276-325.54V-159h106.92"/><path fill-opacity=".2" stroke="#000" stroke-width="2" stroke-opacity=".2" d="m382.92-161.1 6 2.1-6 2.1v-4.2z"/></g><g class="node"><a xlink:href="src/cli/format.js" xlink:title="format.js"><path fill="#ffc" stroke="#000" d="M72-333H30c-3 0-6 3-6 6v6c0 3 3 6 6 6h42c3 0 6-3 6-6v-6c0-3-3-6-6-6"/><text x="33.5" y="-321.8" font-family="Helvetica,sans-Serif" font-size="9">format.js</text></a></g><g class="edge"><path fill="none" stroke="#000" stroke-width="2" stroke-opacity=".2" d="M42-333.21v-3.46h200.7"/><path fill-opacity=".2" stroke="#000" stroke-width="2" stroke-opacity=".2" d="m242.7-338.77 6 2.1-6 2.1v-4.2z"/></g><g class="node"><a xlink:href="src/cli/index.js" xlink:title="index.js"><path fill="#ffc" stroke="#000" d="M72-363H30c-3 0-6 3-6 6v6c0 3 3 6 6 6h42c3 0 6-3 6-6v-6c0-3-3-6-6-6"/><text x="35" y="-351.8" font-family="Helvetica,sans-Serif" font-size="9">index.js</text></a></g><g class="edge"><path fill="none" stroke="#000" stroke-width="2" stroke-opacity=".2" d="M78.21-354H137v14.84"/><path fill-opacity=".2" stroke="#000" stroke-width="2" stroke-opacity=".2" d="m139.1-339.16-2.1 6-2.1-6h4.2z"/></g><g class="edge"><path fill="none" stroke="#000" stroke-width="2" stroke-opacity=".2" d="M60-344.96v4.63h182.64"/><path fill-opacity=".2" stroke="#000" stroke-width="2" stroke-opacity=".2" d="m242.64-342.43 6 2.1-6 2.1v-4.2z"/></g><g class="edge"><path fill="none" stroke="#000" stroke-width="2" stroke-opacity=".2" d="M51-363.08V-693.5h605.95"/><path fill-opacity=".2" stroke="#000" stroke-width="2" stroke-opacity=".2" d="m656.95-695.6 6 2.1-6 2.1v-4.2z"/></g><g class="node"><a xlink:href="src/config-utl/extract-depcruise-config/index.js" xlink:title="index.js"><path fill="#ffc" stroke="#000" d="M297-50h-42c-3 0-6 3-6 6v6c0 3 3 6 6 6h42c3 0 6-3 6-6v-6c0-3-3-6-6-6"/><text x="260" y="-38.8" font-family="Helvetica,sans-Serif" font-size="9">index.js</text></a></g><g class="edge"><path fill="none" stroke="#000" stroke-width="2" stroke-opacity=".2" d="M270-50.06V-272h108.79"/><path fill-opacity=".2" stroke="#000" stroke-width="2" stroke-opacity=".2" d="m378.79-274.1 6 2.1-6 2.1v-4.2z"/></g><g class="edge"><path fill="none" stroke="#000" stroke-width="2" stroke-opacity=".2" d="M451.18-278H558v-135.55"/><path fill-opacity=".2" stroke="#000" stroke-width="2" stroke-opacity=".2" d="m555.9-413.55 2.1-6 2.1 6h-4.2z"/></g><g class="node"><a xlink:href="src/graph-utl/rule-set.js" xlink:title="rule-set.js"><path fill="#ffc" stroke="#000" d="M712-550h-44c-3 0-6 3-6 6v6c0 3 3 6 6 6h44c3 0 6-3 6-6v-6c0-3-3-6-6-6"/><text x="670" y="-538.8" font-family="Helvetica,sans-Serif" font-size="9">rule-set.js</text></a></g><g class="edge"><path fill="none" stroke="#000" stroke-width="2" stroke-opacity=".2" d="M451.31-272H617v-269h38.99"/><path fill-opacity=".2" stroke="#000" stroke-width="2" stroke-opacity=".2" d="m655.99-543.1 6 2.1-6 2.1v-4.2z"/></g><g class="node"><a xlink:href="src/enrich/summarize/index.js" xlink:title="index.js"><path fill="#ffc" stroke="#000" d="M569.5-648h-42c-3 0-6 3-6 6v6c0 3 3 6 6 6h42c3 0 6-3 6-6v-6c0-3-3-6-6-6"/><text x="532.5" y="-636.8" font-family="Helvetica,sans-Serif" font-size="9">index.js</text></a></g><g class="edge"><path fill="none" stroke="#000" stroke-width="2" stroke-opacity=".2" d="M445.04-639.33h70.45"/><path fill-opacity=".2" stroke="#000" stroke-width="2" stroke-opacity=".2" d="m515.49-641.43 6 2.1-6 2.1v-4.2z"/></g><g class="node"><a xlink:href="src/graph-utl/compare.js" xlink:title="compare.js"><path fill="#ffc" stroke="#000" d="M715-520h-50c-3 0-6 3-6 6v6c0 3 3 6 6 6h50c3 0 6-3 6-6v-6c0-3-3-6-6-6"/><text x="667" y="-508.8" font-family="Helvetica,sans-Serif" font-size="9">compare.js</text></a></g><g class="edge"><path fill="none" stroke="#000" stroke-width="2" stroke-opacity=".2" d="M575.82-639H623v125h29.85"/><path fill-opacity=".2" stroke="#000" stroke-width="2" stroke-opacity=".2" d="m652.85-516.1 6 2.1-6 2.1v-4.2z"/></g><g class="edge"><path fill="none" stroke="#000" stroke-width="2" stroke-opacity=".2" d="M575.73-484H611v-200.5h45.81"/><path fill-opacity=".2" stroke="#000" stroke-width="2" stroke-opacity=".2" d="m656.81-686.6 6 2.1-6 2.1v-4.2z"/></g><g class="node"><a xlink:href="src/graph-utl/consolidate-to-pattern.js" xlink:title="consolidate-to-pattern.js"><path fill="#ffc" stroke="#000" d="M741.5-490h-103c-3 0-6 3-6 6v6c0 3 3 6 6 6h103c3 0 6-3 6-6v-6c0-3-3-6-6-6"/><text x="640.5" y="-478.8" font-family="Helvetica,sans-Serif" font-size="9">consolidate-to-pattern.js</text></a></g><g class="node"><a xlink:href="src/graph-utl/filterbank.js" xlink:title="filterbank.js"><path fill="#ffc" stroke="#000" d="M715.5-430h-51c-3 0-6 3-6 6v6c0 3 3 6 6 6h51c3 0 6-3 6-6v-6c0-3-3-6-6-6"/><text x="666.5" y="-418.8" font-family="Helvetica,sans-Serif" font-size="9">filterbank.js</text></a></g><g class="node"><a xlink:href="src/graph-utl/strip-self-transitions.js" xlink:title="strip-self-transitions.js"><path fill="#ffc" stroke="#000" d="M736.5-460h-93c-3 0-6 3-6 6v6c0 3 3 6 6 6h93c3 0 6-3 6-6v-6c0-3-3-6-6-6"/><text x="645.5" y="-448.8" font-family="Helvetica,sans-Serif" font-size="9">strip-self-transitions.js</text></a></g><g class="node"><a xlink:href="src/main/options/defaults.js" xlink:title="defaults.js"><path fill="#ffc" stroke="#000" d="M713-174h-46c-3 0-6 3-6 6v6c0 3 3 6 6 6h46c3 0 6-3 6-6v-6c0-3-3-6-6-6"/><text x="669" y="-162.8" font-family="Helvetica,sans-Serif" font-size="9">defaults.js</text></a></g><g class="edge"><path fill="none" stroke="#000" stroke-width="2" stroke-opacity=".2" d="M581.68-162h73.19"/><path fill-opacity=".2" stroke="#000" stroke-width="2" stroke-opacity=".2" d="m654.87-164.1 6 2.1-6 2.1v-4.2z"/></g><g class="node"><a xlink:href="src/main/utl/normalize-re-properties.js" xlink:title="normalize-re-properties.js"><path fill="#ffc" stroke="#000" d="M745-234H635c-3 0-6 3-6 6v6c0 3 3 6 6 6h110c3 0 6-3 6-6v-6c0-3-3-6-6-6"/><text x="637" y="-222.8" font-family="Helvetica,sans-Serif" font-size="9">normalize-re-properties.js</text></a></g><g class="edge"><path fill="none" stroke="#000" stroke-width="2" stroke-opacity=".2" d="M581.78-168H651v-41.84"/><path fill-opacity=".2" stroke="#000" stroke-width="2" stroke-opacity=".2" d="m648.9-209.84 2.1-6 2.1 6h-4.2z"/></g><g class="node"><a xlink:href="src/report/index.js" xlink:title="index.js"><path fill="#ffc" stroke="#000" d="M711-76h-42c-3 0-6 3-6 6v6c0 3 3 6 6 6h42c3 0 6-3 6-6v-6c0-3-3-6-6-6"/><text x="674" y="-64.8" font-family="Helvetica,sans-Serif" font-size="9">index.js</text></a></g><g class="edge"><path fill="none" stroke="#000" stroke-width="2" stroke-opacity=".2" d="M577.82-135H690v52.83"/><path fill-opacity=".2" stroke="#000" stroke-width="2" stroke-opacity=".2" d="m692.1-82.17-2.1 6-2.1-6h4.2z"/></g><g class="edge"><path fill="none" stroke="#000" stroke-width="2" stroke-opacity=".2" d="M454.69-240.86H464v-393.81h51.3"/><path fill-opacity=".2" stroke="#000" stroke-width="2" stroke-opacity=".2" d="m515.3-636.77 6 2.1-6 2.1v-4.2z"/></g><g class="edge"><path fill="none" stroke="#000" stroke-width="2" stroke-opacity=".2" d="M454.73-238.57H474V-508h178.59"/><path fill-opacity=".2" stroke="#000" stroke-width="2" stroke-opacity=".2" d="m652.59-510.1 6 2.1-6 2.1v-4.2z"/></g><g class="edge"><path fill="none" stroke="#000" stroke-width="2" stroke-opacity=".2" d="M454.9-247.71H594V-478h32.49"/><path fill-opacity=".2" stroke="#000" stroke-width="2" stroke-opacity=".2" d="m626.49-480.1 6 2.1-6 2.1v-4.2z"/></g><g class="edge"><path fill="none" stroke="#000" stroke-width="2" stroke-opacity=".2" d="M454.68-243.14H690v-162.8"/><path fill-opacity=".2" stroke="#000" stroke-width="2" stroke-opacity=".2" d="m687.9-405.94 2.1-6 2.1 6h-4.2z"/></g><g class="edge"><path fill="none" stroke="#000" stroke-width="2" stroke-opacity=".2" d="M454.7-245.43H648V-435.9"/><path fill-opacity=".2" stroke="#000" stroke-width="2" stroke-opacity=".2" d="m645.9-435.9 2.1-6 2.1 6h-4.2z"/></g><g class="edge"><path fill="none" stroke="#000" stroke-width="2" stroke-opacity=".2" d="M454.68-236.29H483V-67h173.94"/><path fill-opacity=".2" stroke="#000" stroke-width="2" stroke-opacity=".2" d="m656.94-69.1 6 2.1-6 2.1v-4.2z"/></g><g class="edge"><path fill="none" stroke="#000" stroke-width="2" stroke-opacity=".2" d="M451.24-189H640v-20.92"/><path fill-opacity=".2" stroke="#000" stroke-width="2" stroke-opacity=".2" d="m637.9-209.92 2.1-6 2.1 6h-4.2z"/></g><g class="edge"><path fill="none" stroke="#000" stroke-width="2" stroke-opacity=".2" d="M418-149.97V-138h95.21"/><path fill-opacity=".2" stroke="#000" stroke-width="2" stroke-opacity=".2" d="m513.21-140.1 6 2.1-6 2.1v-4.2z"/></g><g class="node"><a xlink:href="src/schema/configuration.schema.js" xlink:title="configuration.schema.js"><path fill="#ffc" stroke="#000" d="M599-550H498c-3 0-6 3-6 6v6c0 3 3 6 6 6h101c3 0 6-3 6-6v-6c0-3-3-6-6-6"/><text x="500" y="-538.8" font-family="Helvetica,sans-Serif" font-size="9">configuration.schema.js</text></a></g><g class="edge"><path fill="none" stroke="#000" stroke-width="2" stroke-opacity=".2" d="M447.12-162H504v-363.63"/><path fill-opacity=".2" stroke="#000" stroke-width="2" stroke-opacity=".2" d="m501.9-525.63 2.1-6 2.1 6h-4.2z"/></g></g></svg>