<?xml version="1.0" encoding="UTF-8" standalone="no"?>
<!DOCTYPE svg PUBLIC "-//W3C//DTD SVG 1.1//EN"
 "http://www.w3.org/Graphics/SVG/1.1/DTD/svg11.dtd">
<!-- Generated by graphviz version 3.0.0 (20220226.1711)
 -->
<!-- Title: dependency&#45;cruiser output Pages: 1 -->
<svg width="791pt" height="878pt"
 viewBox="0.00 0.00 791.00 878.00" xmlns="http://www.w3.org/2000/svg" xmlns:xlink="http://www.w3.org/1999/xlink">
<g id="graph0" class="graph" transform="scale(1 1) rotate(0) translate(4 874)">
<title>dependency&#45;cruiser output</title>
<polygon fill="white" stroke="transparent" points="-4,4 -4,-874 787,-874 787,4 -4,4"/>
<g id="clust1" class="cluster">
<title>cluster_src</title>
<path fill="#ffffff" stroke="black" stroke-width="2" d="M20,-8C20,-8 763,-8 763,-8 769,-8 775,-14 775,-20 775,-20 775,-850 775,-850 775,-856 769,-862 763,-862 763,-862 20,-862 20,-862 14,-862 8,-856 8,-850 8,-850 8,-20 8,-20 8,-14 14,-8 20,-8"/>
<text text-anchor="middle" x="391.5" y="-850.8" font-family="Helvetica,sans-Serif" font-weight="bold" font-size="9.00">src</text>
</g>
<g id="clust10" class="cluster">
<title>cluster_src/graph&#45;utl</title>
<path fill="#ffffff" stroke="black" stroke-width="2" d="M636.5,-16C636.5,-16 743.5,-16 743.5,-16 749.5,-16 755.5,-22 755.5,-28 755.5,-28 755.5,-176 755.5,-176 755.5,-182 749.5,-188 743.5,-188 743.5,-188 636.5,-188 636.5,-188 630.5,-188 624.5,-182 624.5,-176 624.5,-176 624.5,-28 624.5,-28 624.5,-22 630.5,-16 636.5,-16"/>
<text text-anchor="middle" x="690" y="-176.8" font-family="Helvetica,sans-Serif" font-weight="bold" font-size="9.00">graph&#45;utl</text>
</g>
<g id="clust11" class="cluster">
<title>cluster_src/main</title>
<path fill="#ffffff" stroke="black" stroke-width="2" d="M253,-256C253,-256 755,-256 755,-256 761,-256 767,-262 767,-268 767,-268 767,-530 767,-530 767,-536 761,-542 755,-542 755,-542 253,-542 253,-542 247,-542 241,-536 241,-530 241,-530 241,-268 241,-268 241,-262 247,-256 253,-256"/>
<text text-anchor="middle" x="504" y="-530.8" font-family="Helvetica,sans-Serif" font-weight="bold" font-size="9.00">main</text>
</g>
<g id="clust12" class="cluster">
<title>cluster_src/main/files&#45;and&#45;dirs</title>
<path fill="#ffffff" stroke="black" stroke-width="2" d="M389,-374C389,-374 447,-374 447,-374 453,-374 459,-380 459,-386 459,-386 459,-414 459,-414 459,-420 453,-426 447,-426 447,-426 389,-426 389,-426 383,-426 377,-420 377,-414 377,-414 377,-386 377,-386 377,-380 383,-374 389,-374"/>
<text text-anchor="middle" x="418" y="-414.8" font-family="Helvetica,sans-Serif" font-weight="bold" font-size="9.00">files&#45;and&#45;dirs</text>
</g>
<g id="clust13" class="cluster">
<title>cluster_src/main/options</title>
<path fill="#ffffff" stroke="black" stroke-width="2" d="M519.5,-334C519.5,-334 715,-334 715,-334 721,-334 727,-340 727,-346 727,-346 727,-404 727,-404 727,-410 721,-416 715,-416 715,-416 519.5,-416 519.5,-416 513.5,-416 507.5,-410 507.5,-404 507.5,-404 507.5,-346 507.5,-346 507.5,-340 513.5,-334 519.5,-334"/>
<text text-anchor="middle" x="617.25" y="-404.8" font-family="Helvetica,sans-Serif" font-weight="bold" font-size="9.00">options</text>
</g>
<g id="clust14" class="cluster">
<title>cluster_src/main/resolve&#45;options</title>
<path fill="#ffffff" stroke="black" stroke-width="2" d="M389,-290C389,-290 448,-290 448,-290 454,-290 460,-296 460,-302 460,-302 460,-330 460,-330 460,-336 454,-342 448,-342 448,-342 389,-342 389,-342 383,-342 377,-336 377,-330 377,-330 377,-302 377,-302 377,-296 383,-290 389,-290"/>
<text text-anchor="middle" x="418.5" y="-330.8" font-family="Helvetica,sans-Serif" font-weight="bold" font-size="9.00">resolve&#45;options</text>
</g>
<g id="clust15" class="cluster">
<title>cluster_src/main/rule&#45;set</title>
<path fill="#ffffff" stroke="black" stroke-width="2" d="M389,-434C389,-434 447,-434 447,-434 453,-434 459,-440 459,-446 459,-446 459,-504 459,-504 459,-510 453,-516 447,-516 447,-516 389,-516 389,-516 383,-516 377,-510 377,-504 377,-504 377,-446 377,-446 377,-440 383,-434 389,-434"/>
<text text-anchor="middle" x="418" y="-504.8" font-family="Helvetica,sans-Serif" font-weight="bold" font-size="9.00">rule&#45;set</text>
</g>
<g id="clust16" class="cluster">
<title>cluster_src/main/utl</title>
<path fill="#ffffff" stroke="black" stroke-width="2" d="M633,-429C633,-429 747,-429 747,-429 753,-429 759,-435 759,-441 759,-441 759,-469 759,-469 759,-475 753,-481 747,-481 747,-481 633,-481 633,-481 627,-481 621,-475 621,-469 621,-469 621,-441 621,-441 621,-435 627,-429 633,-429"/>
<text text-anchor="middle" x="690" y="-469.8" font-family="Helvetica,sans-Serif" font-weight="bold" font-size="9.00">utl</text>
</g>
<g id="clust17" class="cluster">
<title>cluster_src/report</title>
<path fill="#ffffff" stroke="black" stroke-width="2" d="M667,-196C667,-196 713,-196 713,-196 719,-196 725,-202 725,-208 725,-208 725,-236 725,-236 725,-242 719,-248 713,-248 713,-248 667,-248 667,-248 661,-248 655,-242 655,-236 655,-236 655,-208 655,-208 655,-202 661,-196 667,-196"/>
<text text-anchor="middle" x="690" y="-236.8" font-family="Helvetica,sans-Serif" font-weight="bold" font-size="9.00">report</text>
</g>
<g id="clust18" class="cluster">
<title>cluster_src/schema</title>
<path fill="#ffffff" stroke="black" stroke-width="2" d="M496,-550C496,-550 601,-550 601,-550 607,-550 613,-556 613,-562 613,-562 613,-620 613,-620 613,-626 607,-632 601,-632 601,-632 496,-632 496,-632 490,-632 484,-626 484,-620 484,-620 484,-562 484,-562 484,-556 490,-550 496,-550"/>
<text text-anchor="middle" x="548.5" y="-620.8" font-family="Helvetica,sans-Serif" font-weight="bold" font-size="9.00">schema</text>
</g>
<g id="clust19" class="cluster">
<title>cluster_src/utl</title>
<path fill="#ffffff" stroke="black" stroke-width="2" d="M667,-784C667,-784 713,-784 713,-784 719,-784 725,-790 725,-796 725,-796 725,-824 725,-824 725,-830 719,-836 713,-836 713,-836 667,-836 667,-836 661,-836 655,-830 655,-824 655,-824 655,-796 655,-796 655,-790 661,-784 667,-784"/>
<text text-anchor="middle" x="690" y="-824.8" font-family="Helvetica,sans-Serif" font-weight="bold" font-size="9.00">utl</text>
</g>
<g id="clust2" class="cluster">
<title>cluster_src/cache</title>
<path fill="#ffffff" stroke="black" stroke-width="2" d="M395,-760C395,-760 584,-760 584,-760 590,-760 596,-766 596,-772 596,-772 596,-800 596,-800 596,-806 590,-812 584,-812 584,-812 395,-812 395,-812 389,-812 383,-806 383,-800 383,-800 383,-772 383,-772 383,-766 389,-760 395,-760"/>
<text text-anchor="middle" x="489.5" y="-800.8" font-family="Helvetica,sans-Serif" font-weight="bold" font-size="9.00">cache</text>
</g>
<g id="clust3" class="cluster">
<title>cluster_src/cli</title>
<path fill="#ffffff" stroke="black" stroke-width="2" d="M28,-463C28,-463 179,-463 179,-463 185,-463 191,-469 191,-475 191,-475 191,-533 191,-533 191,-539 185,-545 179,-545 179,-545 28,-545 28,-545 22,-545 16,-539 16,-533 16,-533 16,-475 16,-475 16,-469 22,-463 28,-463"/>
<text text-anchor="middle" x="103.5" y="-533.8" font-family="Helvetica,sans-Serif" font-weight="bold" font-size="9.00">cli</text>
</g>
<g id="clust4" class="cluster">
<title>cluster_src/config&#45;utl</title>
<path fill="#ffffff" stroke="black" stroke-width="2" d="M219,-162C219,-162 333,-162 333,-162 339,-162 345,-168 345,-174 345,-174 345,-236 345,-236 345,-242 339,-248 333,-248 333,-248 219,-248 219,-248 213,-248 207,-242 207,-236 207,-236 207,-174 207,-174 207,-168 213,-162 219,-162"/>
<text text-anchor="middle" x="276" y="-236.8" font-family="Helvetica,sans-Serif" font-weight="bold" font-size="9.00">config&#45;utl</text>
</g>
<g id="clust5" class="cluster">
<title>cluster_src/config&#45;utl/extract&#45;depcruise&#45;config</title>
<path fill="#ffffff" stroke="black" stroke-width="2" d="M227,-170C227,-170 325,-170 325,-170 331,-170 337,-176 337,-182 337,-182 337,-210 337,-210 337,-216 331,-222 325,-222 325,-222 227,-222 227,-222 221,-222 215,-216 215,-210 215,-210 215,-182 215,-182 215,-176 221,-170 227,-170"/>
<text text-anchor="middle" x="276" y="-210.8" font-family="Helvetica,sans-Serif" font-weight="bold" font-size="9.00">extract&#45;depcruise&#45;config</text>
</g>
<g id="clust6" class="cluster">
<title>cluster_src/enrich</title>
<path fill="#ffffff" stroke="black" stroke-width="2" d="M395,-108C395,-108 579.5,-108 579.5,-108 585.5,-108 591.5,-114 591.5,-120 591.5,-120 591.5,-182 591.5,-182 591.5,-188 585.5,-194 579.5,-194 579.5,-194 395,-194 395,-194 389,-194 383,-188 383,-182 383,-182 383,-120 383,-120 383,-114 389,-108 395,-108"/>
<text text-anchor="middle" x="487.25" y="-182.8" font-family="Helvetica,sans-Serif" font-weight="bold" font-size="9.00">enrich</text>
</g>
<g id="clust7" class="cluster">
<title>cluster_src/enrich/summarize</title>
<path fill="#ffffff" stroke="black" stroke-width="2" d="M525.5,-116C525.5,-116 571.5,-116 571.5,-116 577.5,-116 583.5,-122 583.5,-128 583.5,-128 583.5,-156 583.5,-156 583.5,-162 577.5,-168 571.5,-168 571.5,-168 525.5,-168 525.5,-168 519.5,-168 513.5,-162 513.5,-156 513.5,-156 513.5,-128 513.5,-128 513.5,-122 519.5,-116 525.5,-116"/>
<text text-anchor="middle" x="548.5" y="-156.8" font-family="Helvetica,sans-Serif" font-weight="bold" font-size="9.00">summarize</text>
</g>
<g id="clust8" class="cluster">
<title>cluster_src/extract</title>
<path fill="#ffffff" stroke="black" stroke-width="2" d="M517.5,-640C517.5,-640 579.5,-640 579.5,-640 585.5,-640 591.5,-646 591.5,-652 591.5,-652 591.5,-740 591.5,-740 591.5,-746 585.5,-752 579.5,-752 579.5,-752 517.5,-752 517.5,-752 511.5,-752 505.5,-746 505.5,-740 505.5,-740 505.5,-652 505.5,-652 505.5,-646 511.5,-640 517.5,-640"/>
<text text-anchor="middle" x="548.5" y="-740.8" font-family="Helvetica,sans-Serif" font-weight="bold" font-size="9.00">extract</text>
</g>
<g id="clust9" class="cluster">
<title>cluster_src/extract/transpile</title>
<path fill="#ffffff" stroke="black" stroke-width="2" d="M525.5,-648C525.5,-648 571.5,-648 571.5,-648 577.5,-648 583.5,-654 583.5,-660 583.5,-660 583.5,-688 583.5,-688 583.5,-694 577.5,-700 571.5,-700 571.5,-700 525.5,-700 525.5,-700 519.5,-700 513.5,-694 513.5,-688 513.5,-688 513.5,-660 513.5,-660 513.5,-654 519.5,-648 525.5,-648"/>
<text text-anchor="middle" x="548.5" y="-688.8" font-family="Helvetica,sans-Serif" font-weight="bold" font-size="9.00">transpile</text>
</g>
<!-- src/cache/cache.js -->
<g id="node1" class="node">
<title>src/cache/cache.js</title>
<g id="a_node1"><a xlink:href="src/cache/cache.js" xlink:title="cache.js">
<path fill="#ffffcc" stroke="black" d="M439,-786C439,-786 397,-786 397,-786 394,-786 391,-783 391,-780 391,-780 391,-774 391,-774 391,-771 394,-768 397,-768 397,-768 439,-768 439,-768 442,-768 445,-771 445,-774 445,-774 445,-780 445,-780 445,-783 442,-786 439,-786"/>
<text text-anchor="start" x="401" y="-774.8" font-family="Helvetica,sans-Serif" font-size="9.00">cache.js</text>
</a>
</g>
</g>
<!-- src/cache/revision&#45;data.js -->
<g id="node2" class="node">
<title>src/cache/revision&#45;data.js</title>
<g id="a_node2"><a xlink:href="src/cache/revision-data.js" xlink:title="revision&#45;data.js">
<path fill="#ffffcc" stroke="black" d="M582,-786C582,-786 515,-786 515,-786 512,-786 509,-783 509,-780 509,-780 509,-774 509,-774 509,-771 512,-768 515,-768 515,-768 582,-768 582,-768 585,-768 588,-771 588,-774 588,-774 588,-780 588,-780 588,-783 585,-786 582,-786"/>
<text text-anchor="start" x="517" y="-774.8" font-family="Helvetica,sans-Serif" font-size="9.00">revision&#45;data.js</text>
</a>
</g>
</g>
<!-- src/cache/cache.js&#45;&gt;src/cache/revision&#45;data.js -->
<g id="edge1" class="edge">
<title>src/cache/cache.js&#45;&gt;src/cache/revision&#45;data.js</title>
<path fill="none" stroke="#000000" stroke-width="2" stroke-opacity="0.200000" d="M445.04,-777C445.04,-777 502.86,-777 502.86,-777"/>
<polygon fill="#000000" fill-opacity="0.200000" stroke="#000000" stroke-width="2" stroke-opacity="0.200000" points="502.86,-779.1 508.86,-777 502.86,-774.9 502.86,-779.1"/>
</g>
<!-- src/cli/format&#45;meta&#45;info.js -->
<g id="node3" class="node">
<title>src/cli/format&#45;meta&#45;info.js</title>
<g id="a_node3"><a xlink:href="src/cli/format-meta-info.js" xlink:title="format&#45;meta&#45;info.js">
<path fill="#ffffcc" stroke="black" d="M177,-519C177,-519 97,-519 97,-519 94,-519 91,-516 91,-513 91,-513 91,-507 91,-507 91,-504 94,-501 97,-501 97,-501 177,-501 177,-501 180,-501 183,-504 183,-507 183,-507 183,-513 183,-513 183,-516 180,-519 177,-519"/>
<text text-anchor="start" x="99" y="-507.8" font-family="Helvetica,sans-Serif" font-size="9.00">format&#45;meta&#45;info.js</text>
</a>
</g>
</g>
<!-- src/main/index.js -->
<g id="node4" class="node">
<title>src/main/index.js</title>
<g id="a_node4"><a xlink:href="src/main/index.js" xlink:title="index.js">
<path fill="#ffffcc" stroke="black" d="M297,-490C297,-490 255,-490 255,-490 252,-490 249,-487 249,-484 249,-484 249,-478 249,-478 249,-475 252,-472 255,-472 255,-472 297,-472 297,-472 300,-472 303,-475 303,-478 303,-478 303,-484 303,-484 303,-487 300,-490 297,-490"/>
<text text-anchor="start" x="260" y="-478.8" font-family="Helvetica,sans-Serif" font-size="9.00">index.js</text>
</a>
</g>
</g>
<!-- src/cli/format&#45;meta&#45;info.js&#45;&gt;src/main/index.js -->
<g id="edge2" class="edge">
<title>src/cli/format&#45;meta&#45;info.js&#45;&gt;src/main/index.js</title>
<path fill="none" stroke="#000000" stroke-width="2" stroke-opacity="0.200000" d="M183.01,-510C216.5,-510 256,-510 256,-510 256,-510 256,-496.18 256,-496.18"/>
<polygon fill="#000000" fill-opacity="0.200000" stroke="#000000" stroke-width="2" stroke-opacity="0.200000" points="258.1,-496.18 256,-490.18 253.9,-496.18 258.1,-496.18"/>
</g>
<!-- src/main/index.js&#45;&gt;src/cache/cache.js -->
<g id="edge11" class="edge">
<title>src/main/index.js&#45;&gt;src/cache/cache.js</title>
<path fill="none" stroke="#000000" stroke-width="2" stroke-opacity="0.200000" d="M270,-490.18C270,-540.14 270,-777 270,-777 270,-777 384.85,-777 384.85,-777"/>
<polygon fill="#000000" fill-opacity="0.200000" stroke="#000000" stroke-width="2" stroke-opacity="0.200000" points="384.85,-779.1 390.85,-777 384.85,-774.9 384.85,-779.1"/>
</g>
<!-- src/main/index.js&#45;&gt;src/cache/revision&#45;data.js -->
<g id="edge12" class="edge">
<title>src/main/index.js&#45;&gt;src/cache/revision&#45;data.js</title>
<path fill="none" stroke="#000000" stroke-width="2" stroke-opacity="0.200000" d="M290,-490.38C290,-523.22 290,-631 290,-631 290,-631 516,-631 516,-631 516,-631 516,-761.87 516,-761.87"/>
<polygon fill="#000000" fill-opacity="0.200000" stroke="#000000" stroke-width="2" stroke-opacity="0.200000" points="513.9,-761.87 516,-767.87 518.1,-761.87 513.9,-761.87"/>
</g>
<!-- src/utl/bus.js -->
<g id="node7" class="node">
<title>src/utl/bus.js</title>
<g id="a_node7"><a xlink:href="src/utl/bus.js" xlink:title="bus.js">
<path fill="#ffffcc" stroke="black" d="M711,-810C711,-810 669,-810 669,-810 666,-810 663,-807 663,-804 663,-804 663,-798 663,-798 663,-795 666,-792 669,-792 669,-792 711,-792 711,-792 714,-792 717,-795 717,-798 717,-798 717,-804 717,-804 717,-807 714,-810 711,-810"/>
<text text-anchor="start" x="677.5" y="-798.8" font-family="Helvetica,sans-Serif" font-size="9.00">bus.js</text>
</a>
</g>
</g>
<!-- src/main/index.js&#45;&gt;src/utl/bus.js -->
<g id="edge17" class="edge">
<title>src/main/index.js&#45;&gt;src/utl/bus.js</title>
<path fill="none" stroke="#000000" stroke-width="2" stroke-opacity="0.200000" d="M263,-490.15C263,-542.12 263,-798 263,-798 263,-798 656.97,-798 656.97,-798"/>
<polygon fill="#000000" fill-opacity="0.200000" stroke="#000000" stroke-width="2" stroke-opacity="0.200000" points="656.97,-800.1 662.97,-798 656.97,-795.9 656.97,-800.1"/>
</g>
<!-- src/main/resolve&#45;options/normalize.js -->
<g id="node9" class="node">
<title>src/main/resolve&#45;options/normalize.js</title>
<g id="a_node9"><a xlink:href="src/main/resolve-options/normalize.js" xlink:title="normalize.js">
<path fill="#ffffcc" stroke="black" d="M445,-316C445,-316 391,-316 391,-316 388,-316 385,-313 385,-310 385,-310 385,-304 385,-304 385,-301 388,-298 391,-298 391,-298 445,-298 445,-298 448,-298 451,-301 451,-304 451,-304 451,-310 451,-310 451,-313 448,-316 445,-316"/>
<text text-anchor="start" x="393" y="-304.8" font-family="Helvetica,sans-Serif" font-size="9.00">normalize.js</text>
</a>
</g>
</g>
<!-- src/main/index.js&#45;&gt;src/main/resolve&#45;options/normalize.js -->
<g id="edge22" class="edge">
<title>src/main/index.js&#45;&gt;src/main/resolve&#45;options/normalize.js</title>
<path fill="none" stroke="#000000" stroke-width="2" stroke-opacity="0.200000" d="M263,-471.81C263,-436.29 263,-310 263,-310 263,-310 378.75,-310 378.75,-310"/>
<polygon fill="#000000" fill-opacity="0.200000" stroke="#000000" stroke-width="2" stroke-opacity="0.200000" points="378.75,-312.1 384.75,-310 378.75,-307.9 378.75,-312.1"/>
</g>
<!-- src/enrich/index.js -->
<g id="node10" class="node">
<title>src/enrich/index.js</title>
<g id="a_node10"><a xlink:href="src/enrich/index.js" xlink:title="index.js">
<path fill="#ffffcc" stroke="black" d="M439,-155C439,-155 397,-155 397,-155 394,-155 391,-152 391,-149 391,-149 391,-143 391,-143 391,-140 394,-137 397,-137 397,-137 439,-137 439,-137 442,-137 445,-140 445,-143 445,-143 445,-149 445,-149 445,-152 442,-155 439,-155"/>
<text text-anchor="start" x="402" y="-143.8" font-family="Helvetica,sans-Serif" font-size="9.00">index.js</text>
</a>
</g>
</g>
<!-- src/main/index.js&#45;&gt;src/enrich/index.js -->
<g id="edge13" class="edge">
<title>src/main/index.js&#45;&gt;src/enrich/index.js</title>
<path fill="none" stroke="#000000" stroke-width="2" stroke-opacity="0.200000" d="M303.25,-478C321.8,-478 343,-478 343,-478 343,-478 343,-146 343,-146 343,-146 384.92,-146 384.92,-146"/>
<polygon fill="#000000" fill-opacity="0.200000" stroke="#000000" stroke-width="2" stroke-opacity="0.200000" points="384.92,-148.1 390.92,-146 384.92,-143.9 384.92,-148.1"/>
</g>
<!-- src/extract/index.js -->
<g id="node13" class="node">
<title>src/extract/index.js</title>
<g id="a_node13"><a xlink:href="src/extract/index.js" xlink:title="index.js">
<path fill="#ffffcc" stroke="black" d="M569.5,-726C569.5,-726 527.5,-726 527.5,-726 524.5,-726 521.5,-723 521.5,-720 521.5,-720 521.5,-714 521.5,-714 521.5,-711 524.5,-708 527.5,-708 527.5,-708 569.5,-708 569.5,-708 572.5,-708 575.5,-711 575.5,-714 575.5,-714 575.5,-720 575.5,-720 575.5,-723 572.5,-726 569.5,-726"/>
<text text-anchor="start" x="532.5" y="-714.8" font-family="Helvetica,sans-Serif" font-size="9.00">index.js</text>
</a>
</g>
</g>
<!-- src/main/index.js&#45;&gt;src/extract/index.js -->
<g id="edge14" class="edge">
<title>src/main/index.js&#45;&gt;src/extract/index.js</title>
<path fill="none" stroke="#000000" stroke-width="2" stroke-opacity="0.200000" d="M276,-490.25C276,-533.88 276,-717 276,-717 276,-717 515.38,-717 515.38,-717"/>
<polygon fill="#000000" fill-opacity="0.200000" stroke="#000000" stroke-width="2" stroke-opacity="0.200000" points="515.38,-719.1 521.38,-717 515.38,-714.9 515.38,-719.1"/>
</g>
<!-- src/extract/transpile/meta.js -->
<g id="node14" class="node">
<title>src/extract/transpile/meta.js</title>
<g id="a_node14"><a xlink:href="src/extract/transpile/meta.js" xlink:title="meta.js">
<path fill="#ffffcc" stroke="black" d="M569.5,-674C569.5,-674 527.5,-674 527.5,-674 524.5,-674 521.5,-671 521.5,-668 521.5,-668 521.5,-662 521.5,-662 521.5,-659 524.5,-656 527.5,-656 527.5,-656 569.5,-656 569.5,-656 572.5,-656 575.5,-659 575.5,-662 575.5,-662 575.5,-668 575.5,-668 575.5,-671 572.5,-674 569.5,-674"/>
<text text-anchor="start" x="533.5" y="-662.8" font-family="Helvetica,sans-Serif" font-size="9.00">meta.js</text>
</a>
</g>
</g>
<!-- src/main/index.js&#45;&gt;src/extract/transpile/meta.js -->
<g id="edge15" class="edge">
<title>src/main/index.js&#45;&gt;src/extract/transpile/meta.js</title>
<path fill="none" stroke="#000000" stroke-width="2" stroke-opacity="0.200000" d="M283,-490.02C283,-527.37 283,-668 283,-668 283,-668 515.09,-668 515.09,-668"/>
<polygon fill="#000000" fill-opacity="0.200000" stroke="#000000" stroke-width="2" stroke-opacity="0.200000" points="515.09,-670.1 521.09,-668 515.09,-665.9 515.09,-670.1"/>
</g>
<!-- src/main/files&#45;and&#45;dirs/normalize.js -->
<g id="node19" class="node">
<title>src/main/files&#45;and&#45;dirs/normalize.js</title>
<g id="a_node19"><a xlink:href="src/main/files-and-dirs/normalize.js" xlink:title="normalize.js">
<path fill="#ffffcc" stroke="black" d="M445,-400C445,-400 391,-400 391,-400 388,-400 385,-397 385,-394 385,-394 385,-388 385,-388 385,-385 388,-382 391,-382 391,-382 445,-382 445,-382 448,-382 451,-385 451,-388 451,-388 451,-394 451,-394 451,-397 448,-400 445,-400"/>
<text text-anchor="start" x="393" y="-388.8" font-family="Helvetica,sans-Serif" font-size="9.00">normalize.js</text>
</a>
</g>
</g>
<!-- src/main/index.js&#45;&gt;src/main/files&#45;and&#45;dirs/normalize.js -->
<g id="edge18" class="edge">
<title>src/main/index.js&#45;&gt;src/main/files&#45;and&#45;dirs/normalize.js</title>
<path fill="none" stroke="#000000" stroke-width="2" stroke-opacity="0.200000" d="M290,-471.71C290,-448.71 290,-391 290,-391 290,-391 378.7,-391 378.7,-391"/>
<polygon fill="#000000" fill-opacity="0.200000" stroke="#000000" stroke-width="2" stroke-opacity="0.200000" points="378.7,-393.1 384.7,-391 378.7,-388.9 378.7,-393.1"/>
</g>
<!-- src/schema/cruise&#45;result.schema.js -->
<g id="node20" class="node">
<title>src/schema/cruise&#45;result.schema.js</title>
<g id="a_node20"><a xlink:href="src/schema/cruise-result.schema.js" xlink:title="cruise&#45;result.schema.js">
<path fill="#ffffcc" stroke="black" d="M597.5,-606C597.5,-606 499.5,-606 499.5,-606 496.5,-606 493.5,-603 493.5,-600 493.5,-600 493.5,-594 493.5,-594 493.5,-591 496.5,-588 499.5,-588 499.5,-588 597.5,-588 597.5,-588 600.5,-588 603.5,-591 603.5,-594 603.5,-594 603.5,-600 603.5,-600 603.5,-603 600.5,-606 597.5,-606"/>
<text text-anchor="start" x="501.5" y="-594.8" font-family="Helvetica,sans-Serif" font-size="9.00">cruise&#45;result.schema.js</text>
</a>
</g>
</g>
<!-- src/main/index.js&#45;&gt;src/schema/cruise&#45;result.schema.js -->
<g id="edge16" class="edge">
<title>src/main/index.js&#45;&gt;src/schema/cruise&#45;result.schema.js</title>
<path fill="none" stroke="#000000" stroke-width="2" stroke-opacity="0.200000" d="M297,-490.1C297,-517.45 297,-597 297,-597 297,-597 487.31,-597 487.31,-597"/>
<polygon fill="#000000" fill-opacity="0.200000" stroke="#000000" stroke-width="2" stroke-opacity="0.200000" points="487.31,-599.1 493.31,-597 487.31,-594.9 487.31,-599.1"/>
</g>
<!-- src/main/options/normalize.js -->
<g id="node21" class="node">
<title>src/main/options/normalize.js</title>
<g id="a_node21"><a xlink:href="src/main/options/normalize.js" xlink:title="normalize.js">
<path fill="#ffffcc" stroke="black" d="M575.5,-390C575.5,-390 521.5,-390 521.5,-390 518.5,-390 515.5,-387 515.5,-384 515.5,-384 515.5,-378 515.5,-378 515.5,-375 518.5,-372 521.5,-372 521.5,-372 575.5,-372 575.5,-372 578.5,-372 581.5,-375 581.5,-378 581.5,-378 581.5,-384 581.5,-384 581.5,-387 578.5,-390 575.5,-390"/>
<text text-anchor="start" x="523.5" y="-378.8" font-family="Helvetica,sans-Serif" font-size="9.00">normalize.js</text>
</a>
</g>
</g>
<!-- src/main/index.js&#45;&gt;src/main/options/normalize.js -->
<g id="edge19" class="edge">
<title>src/main/index.js&#45;&gt;src/main/options/normalize.js</title>
<path fill="none" stroke="#000000" stroke-width="2" stroke-opacity="0.200000" d="M276,-471.77C276,-446.32 276,-377 276,-377 276,-377 509.36,-377 509.36,-377"/>
<polygon fill="#000000" fill-opacity="0.200000" stroke="#000000" stroke-width="2" stroke-opacity="0.200000" points="509.36,-379.1 515.36,-377 509.36,-374.9 509.36,-379.1"/>
</g>
<!-- src/main/options/validate.js -->
<g id="node22" class="node">
<title>src/main/options/validate.js</title>
<g id="a_node22"><a xlink:href="src/main/options/validate.js" xlink:title="validate.js">
<path fill="#ffffcc" stroke="black" d="M571.5,-360C571.5,-360 525.5,-360 525.5,-360 522.5,-360 519.5,-357 519.5,-354 519.5,-354 519.5,-348 519.5,-348 519.5,-345 522.5,-342 525.5,-342 525.5,-342 571.5,-342 571.5,-342 574.5,-342 577.5,-345 577.5,-348 577.5,-348 577.5,-354 577.5,-354 577.5,-357 574.5,-360 571.5,-360"/>
<text text-anchor="start" x="527.5" y="-348.8" font-family="Helvetica,sans-Serif" font-size="9.00">validate.js</text>
</a>
</g>
</g>
<!-- src/main/index.js&#45;&gt;src/main/options/validate.js -->
<g id="edge20" class="edge">
<title>src/main/index.js&#45;&gt;src/main/options/validate.js</title>
<path fill="none" stroke="#000000" stroke-width="2" stroke-opacity="0.200000" d="M270,-471.86C270,-441.81 270,-348 270,-348 270,-348 513.48,-348 513.48,-348"/>
<polygon fill="#000000" fill-opacity="0.200000" stroke="#000000" stroke-width="2" stroke-opacity="0.200000" points="513.48,-350.1 519.48,-348 513.48,-345.9 513.48,-350.1"/>
</g>
<!-- src/main/report&#45;wrap.js -->
<g id="node23" class="node">
<title>src/main/report&#45;wrap.js</title>
<g id="a_node23"><a xlink:href="src/main/report-wrap.js" xlink:title="report&#45;wrap.js">
<path fill="#ffffcc" stroke="black" d="M448.5,-282C448.5,-282 387.5,-282 387.5,-282 384.5,-282 381.5,-279 381.5,-276 381.5,-276 381.5,-270 381.5,-270 381.5,-267 384.5,-264 387.5,-264 387.5,-264 448.5,-264 448.5,-264 451.5,-264 454.5,-267 454.5,-270 454.5,-270 454.5,-276 454.5,-276 454.5,-279 451.5,-282 448.5,-282"/>
<text text-anchor="start" x="389.5" y="-270.8" font-family="Helvetica,sans-Serif" font-size="9.00">report&#45;wrap.js</text>
</a>
</g>
</g>
<!-- src/main/index.js&#45;&gt;src/main/report&#45;wrap.js -->
<g id="edge21" class="edge">
<title>src/main/index.js&#45;&gt;src/main/report&#45;wrap.js</title>
<path fill="none" stroke="#000000" stroke-width="2" stroke-opacity="0.200000" d="M256,-471.79C256,-431.54 256,-273 256,-273 256,-273 375.24,-273 375.24,-273"/>
<polygon fill="#000000" fill-opacity="0.200000" stroke="#000000" stroke-width="2" stroke-opacity="0.200000" points="375.24,-275.1 381.24,-273 375.24,-270.9 375.24,-275.1"/>
</g>
<!-- src/main/rule&#45;set/normalize.js -->
<g id="node24" class="node">
<title>src/main/rule&#45;set/normalize.js</title>
<g id="a_node24"><a xlink:href="src/main/rule-set/normalize.js" xlink:title="normalize.js">
<path fill="#ffffcc" stroke="black" d="M445,-460C445,-460 391,-460 391,-460 388,-460 385,-457 385,-454 385,-454 385,-448 385,-448 385,-445 388,-442 391,-442 391,-442 445,-442 445,-442 448,-442 451,-445 451,-448 451,-448 451,-454 451,-454 451,-457 448,-460 445,-460"/>
<text text-anchor="start" x="393" y="-448.8" font-family="Helvetica,sans-Serif" font-size="9.00">normalize.js</text>
</a>
</g>
</g>
<!-- src/main/index.js&#45;&gt;src/main/rule&#45;set/normalize.js -->
<g id="edge23" class="edge">
<title>src/main/index.js&#45;&gt;src/main/rule&#45;set/normalize.js</title>
<path fill="none" stroke="#000000" stroke-width="2" stroke-opacity="0.200000" d="M297,-471.84C297,-463.01 297,-451 297,-451 297,-451 378.94,-451 378.94,-451"/>
<polygon fill="#000000" fill-opacity="0.200000" stroke="#000000" stroke-width="2" stroke-opacity="0.200000" points="378.94,-453.1 384.94,-451 378.94,-448.9 378.94,-453.1"/>
</g>
<!-- src/main/rule&#45;set/validate.js -->
<g id="node25" class="node">
<title>src/main/rule&#45;set/validate.js</title>
<g id="a_node25"><a xlink:href="src/main/rule-set/validate.js" xlink:title="validate.js">
<path fill="#ffffcc" stroke="black" d="M441,-490C441,-490 395,-490 395,-490 392,-490 389,-487 389,-484 389,-484 389,-478 389,-478 389,-475 392,-472 395,-472 395,-472 441,-472 441,-472 444,-472 447,-475 447,-478 447,-478 447,-484 447,-484 447,-487 444,-490 441,-490"/>
<text text-anchor="start" x="397" y="-478.8" font-family="Helvetica,sans-Serif" font-size="9.00">validate.js</text>
</a>
</g>
</g>
<!-- src/main/index.js&#45;&gt;src/main/rule&#45;set/validate.js -->
<g id="edge24" class="edge">
<title>src/main/index.js&#45;&gt;src/main/rule&#45;set/validate.js</title>
<path fill="none" stroke="#000000" stroke-width="2" stroke-opacity="0.200000" d="M303.04,-484C303.04,-484 382.61,-484 382.61,-484"/>
<polygon fill="#000000" fill-opacity="0.200000" stroke="#000000" stroke-width="2" stroke-opacity="0.200000" points="382.61,-486.1 388.61,-484 382.61,-481.9 382.61,-486.1"/>
</g>
<!-- src/cli/format.js -->
<g id="node5" class="node">
<title>src/cli/format.js</title>
<g id="a_node5"><a xlink:href="src/cli/format.js" xlink:title="format.js">
<path fill="#ffffcc" stroke="black" d="M72,-489C72,-489 30,-489 30,-489 27,-489 24,-486 24,-483 24,-483 24,-477 24,-477 24,-474 27,-471 30,-471 30,-471 72,-471 72,-471 75,-471 78,-474 78,-477 78,-477 78,-483 78,-483 78,-486 75,-489 72,-489"/>
<text text-anchor="start" x="33.5" y="-477.8" font-family="Helvetica,sans-Serif" font-size="9.00">format.js</text>
</a>
</g>
</g>
<!-- src/cli/format.js&#45;&gt;src/main/index.js -->
<g id="edge3" class="edge">
<title>src/cli/format.js&#45;&gt;src/main/index.js</title>
<path fill="none" stroke="#000000" stroke-width="2" stroke-opacity="0.200000" d="M78.14,-477.67C78.14,-477.67 242.76,-477.67 242.76,-477.67"/>
<polygon fill="#000000" fill-opacity="0.200000" stroke="#000000" stroke-width="2" stroke-opacity="0.200000" points="242.76,-479.77 248.76,-477.67 242.76,-475.57 242.76,-479.77"/>
</g>
<!-- src/cli/index.js -->
<g id="node6" class="node">
<title>src/cli/index.js</title>
<g id="a_node6"><a xlink:href="src/cli/index.js" xlink:title="index.js">
<path fill="#ffffcc" stroke="black" d="M72,-519C72,-519 30,-519 30,-519 27,-519 24,-516 24,-513 24,-513 24,-507 24,-507 24,-504 27,-501 30,-501 30,-501 72,-501 72,-501 75,-501 78,-504 78,-507 78,-507 78,-513 78,-513 78,-516 75,-519 72,-519"/>
<text text-anchor="start" x="35" y="-507.8" font-family="Helvetica,sans-Serif" font-size="9.00">index.js</text>
</a>
</g>
</g>
<!-- src/cli/index.js&#45;&gt;src/cli/format&#45;meta&#45;info.js -->
<g id="edge6" class="edge">
<title>src/cli/index.js&#45;&gt;src/cli/format&#45;meta&#45;info.js</title>
<path fill="none" stroke="#000000" stroke-width="2" stroke-opacity="0.200000" d="M78.21,-513C78.21,-513 84.79,-513 84.79,-513"/>
<polygon fill="#000000" fill-opacity="0.200000" stroke="#000000" stroke-width="2" stroke-opacity="0.200000" points="84.79,-515.1 90.79,-513 84.79,-510.9 84.79,-515.1"/>
</g>
<!-- src/cli/index.js&#45;&gt;src/main/index.js -->
<g id="edge4" class="edge">
<title>src/cli/index.js&#45;&gt;src/main/index.js</title>
<path fill="none" stroke="#000000" stroke-width="2" stroke-opacity="0.200000" d="M78.12,-507C82.16,-507 85,-507 85,-507 85,-507 85,-483.33 85,-483.33 85,-483.33 242.63,-483.33 242.63,-483.33"/>
<polygon fill="#000000" fill-opacity="0.200000" stroke="#000000" stroke-width="2" stroke-opacity="0.200000" points="242.63,-485.43 248.63,-483.33 242.63,-481.23 242.63,-485.43"/>
</g>
<!-- src/cli/index.js&#45;&gt;src/utl/bus.js -->
<g id="edge5" class="edge">
<title>src/cli/index.js&#45;&gt;src/utl/bus.js</title>
<path fill="none" stroke="#000000" stroke-width="2" stroke-opacity="0.200000" d="M51,-519.12C51,-568.75 51,-804 51,-804 51,-804 656.95,-804 656.95,-804"/>
<polygon fill="#000000" fill-opacity="0.200000" stroke="#000000" stroke-width="2" stroke-opacity="0.200000" points="656.95,-806.1 662.95,-804 656.95,-801.9 656.95,-806.1"/>
</g>
<!-- src/config&#45;utl/extract&#45;depcruise&#45;config/index.js -->
<g id="node8" class="node">
<title>src/config&#45;utl/extract&#45;depcruise&#45;config/index.js</title>
<g id="a_node8"><a xlink:href="src/config-utl/extract-depcruise-config/index.js" xlink:title="index.js">
<path fill="#ffffcc" stroke="black" d="M297,-196C297,-196 255,-196 255,-196 252,-196 249,-193 249,-190 249,-190 249,-184 249,-184 249,-181 252,-178 255,-178 255,-178 297,-178 297,-178 300,-178 303,-181 303,-184 303,-184 303,-190 303,-190 303,-193 300,-196 297,-196"/>
<text text-anchor="start" x="260" y="-184.8" font-family="Helvetica,sans-Serif" font-size="9.00">index.js</text>
</a>
</g>
</g>
<!-- src/config&#45;utl/extract&#45;depcruise&#45;config/index.js&#45;&gt;src/main/resolve&#45;options/normalize.js -->
<g id="edge7" class="edge">
<title>src/config&#45;utl/extract&#45;depcruise&#45;config/index.js&#45;&gt;src/main/resolve&#45;options/normalize.js</title>
<path fill="none" stroke="#000000" stroke-width="2" stroke-opacity="0.200000" d="M283,-196.18C283,-223.76 283,-304 283,-304 283,-304 378.98,-304 378.98,-304"/>
<polygon fill="#000000" fill-opacity="0.200000" stroke="#000000" stroke-width="2" stroke-opacity="0.200000" points="378.98,-306.1 384.98,-304 378.98,-301.9 378.98,-306.1"/>
</g>
<!-- src/main/resolve&#45;options/normalize.js&#45;&gt;src/extract/transpile/meta.js -->
<g id="edge34" class="edge">
<title>src/main/resolve&#45;options/normalize.js&#45;&gt;src/extract/transpile/meta.js</title>
<path fill="none" stroke="#000000" stroke-width="2" stroke-opacity="0.200000" d="M451.43,-310C458.56,-310 464,-310 464,-310 464,-310 464,-662 464,-662 464,-662 515.3,-662 515.3,-662"/>
<polygon fill="#000000" fill-opacity="0.200000" stroke="#000000" stroke-width="2" stroke-opacity="0.200000" points="515.3,-664.1 521.3,-662 515.3,-659.9 515.3,-664.1"/>
</g>
<!-- src/graph&#45;utl/rule&#45;set.js -->
<g id="node17" class="node">
<title>src/graph&#45;utl/rule&#45;set.js</title>
<g id="a_node17"><a xlink:href="src/graph-utl/rule-set.js" xlink:title="rule&#45;set.js">
<path fill="#ffffcc" stroke="black" d="M712,-162C712,-162 668,-162 668,-162 665,-162 662,-159 662,-156 662,-156 662,-150 662,-150 662,-147 665,-144 668,-144 668,-144 712,-144 712,-144 715,-144 718,-147 718,-150 718,-150 718,-156 718,-156 718,-159 715,-162 712,-162"/>
<text text-anchor="start" x="670" y="-150.8" font-family="Helvetica,sans-Serif" font-size="9.00">rule&#45;set.js</text>
</a>
</g>
</g>
<!-- src/main/resolve&#45;options/normalize.js&#45;&gt;src/graph&#45;utl/rule&#45;set.js -->
<g id="edge35" class="edge">
<title>src/main/resolve&#45;options/normalize.js&#45;&gt;src/graph&#45;utl/rule&#45;set.js</title>
<path fill="none" stroke="#000000" stroke-width="2" stroke-opacity="0.200000" d="M451.22,-304C463.28,-304 474,-304 474,-304 474,-304 474,-158.5 474,-158.5 474,-158.5 655.76,-158.5 655.76,-158.5"/>
<polygon fill="#000000" fill-opacity="0.200000" stroke="#000000" stroke-width="2" stroke-opacity="0.200000" points="655.76,-160.6 661.76,-158.5 655.76,-156.4 655.76,-160.6"/>
</g>
<!-- src/enrich/summarize/index.js -->
<g id="node11" class="node">
<title>src/enrich/summarize/index.js</title>
<g id="a_node11"><a xlink:href="src/enrich/summarize/index.js" xlink:title="index.js">
<path fill="#ffffcc" stroke="black" d="M569.5,-142C569.5,-142 527.5,-142 527.5,-142 524.5,-142 521.5,-139 521.5,-136 521.5,-136 521.5,-130 521.5,-130 521.5,-127 524.5,-124 527.5,-124 527.5,-124 569.5,-124 569.5,-124 572.5,-124 575.5,-127 575.5,-130 575.5,-130 575.5,-136 575.5,-136 575.5,-139 572.5,-142 569.5,-142"/>
<text text-anchor="start" x="532.5" y="-130.8" font-family="Helvetica,sans-Serif" font-size="9.00">index.js</text>
</a>
</g>
</g>
<!-- src/enrich/index.js&#45;&gt;src/enrich/summarize/index.js -->
<g id="edge8" class="edge">
<title>src/enrich/index.js&#45;&gt;src/enrich/summarize/index.js</title>
<path fill="none" stroke="#000000" stroke-width="2" stroke-opacity="0.200000" d="M418,-136.75C418,-132.48 418,-128.33 418,-128.33 418,-128.33 515.46,-128.33 515.46,-128.33"/>
<polygon fill="#000000" fill-opacity="0.200000" stroke="#000000" stroke-width="2" stroke-opacity="0.200000" points="515.46,-130.43 521.46,-128.33 515.46,-126.23 515.46,-130.43"/>
</g>
<!-- src/graph&#45;utl/compare.js -->
<g id="node12" class="node">
<title>src/graph&#45;utl/compare.js</title>
<g id="a_node12"><a xlink:href="src/graph-utl/compare.js" xlink:title="compare.js">
<path fill="#ffffcc" stroke="black" d="M715,-42C715,-42 665,-42 665,-42 662,-42 659,-39 659,-36 659,-36 659,-30 659,-30 659,-27 662,-24 665,-24 665,-24 715,-24 715,-24 718,-24 721,-27 721,-30 721,-30 721,-36 721,-36 721,-39 718,-42 715,-42"/>
<text text-anchor="start" x="667" y="-30.8" font-family="Helvetica,sans-Serif" font-size="9.00">compare.js</text>
</a>
</g>
</g>
<!-- src/enrich/summarize/index.js&#45;&gt;src/graph&#45;utl/compare.js -->
<g id="edge9" class="edge">
<title>src/enrich/summarize/index.js&#45;&gt;src/graph&#45;utl/compare.js</title>
<path fill="none" stroke="#000000" stroke-width="2" stroke-opacity="0.200000" d="M549,-123.7C549,-99.42 549,-36 549,-36 549,-36 652.71,-36 652.71,-36"/>
<polygon fill="#000000" fill-opacity="0.200000" stroke="#000000" stroke-width="2" stroke-opacity="0.200000" points="652.71,-38.1 658.71,-36 652.71,-33.9 652.71,-38.1"/>
</g>
<!-- src/extract/index.js&#45;&gt;src/utl/bus.js -->
<g id="edge10" class="edge">
<title>src/extract/index.js&#45;&gt;src/utl/bus.js</title>
<path fill="none" stroke="#000000" stroke-width="2" stroke-opacity="0.200000" d="M575.78,-717C616.9,-717 690,-717 690,-717 690,-717 690,-785.69 690,-785.69"/>
<polygon fill="#000000" fill-opacity="0.200000" stroke="#000000" stroke-width="2" stroke-opacity="0.200000" points="687.9,-785.69 690,-791.69 692.1,-785.69 687.9,-785.69"/>
</g>
<!-- src/graph&#45;utl/consolidate&#45;to&#45;pattern.js -->
<g id="node15" class="node">
<title>src/graph&#45;utl/consolidate&#45;to&#45;pattern.js</title>
<g id="a_node15"><a xlink:href="src/graph-utl/consolidate-to-pattern.js" xlink:title="consolidate&#45;to&#45;pattern.js">
<path fill="#ffffcc" stroke="black" d="M741.5,-102C741.5,-102 638.5,-102 638.5,-102 635.5,-102 632.5,-99 632.5,-96 632.5,-96 632.5,-90 632.5,-90 632.5,-87 635.5,-84 638.5,-84 638.5,-84 741.5,-84 741.5,-84 744.5,-84 747.5,-87 747.5,-90 747.5,-90 747.5,-96 747.5,-96 747.5,-99 744.5,-102 741.5,-102"/>
<text text-anchor="start" x="640.5" y="-90.8" font-family="Helvetica,sans-Serif" font-size="9.00">consolidate&#45;to&#45;pattern.js</text>
</a>
</g>
</g>
<!-- src/graph&#45;utl/filter&#45;bank.js -->
<g id="node16" class="node">
<title>src/graph&#45;utl/filter&#45;bank.js</title>
<g id="a_node16"><a xlink:href="src/graph-utl/filter-bank.js" xlink:title="filter&#45;bank.js">
<path fill="#ffffcc" stroke="black" d="M717,-132C717,-132 663,-132 663,-132 660,-132 657,-129 657,-126 657,-126 657,-120 657,-120 657,-117 660,-114 663,-114 663,-114 717,-114 717,-114 720,-114 723,-117 723,-120 723,-120 723,-126 723,-126 723,-129 720,-132 717,-132"/>
<text text-anchor="start" x="665" y="-120.8" font-family="Helvetica,sans-Serif" font-size="9.00">filter&#45;bank.js</text>
</a>
</g>
</g>
<!-- src/graph&#45;utl/strip&#45;self&#45;transitions.js -->
<g id="node18" class="node">
<title>src/graph&#45;utl/strip&#45;self&#45;transitions.js</title>
<g id="a_node18"><a xlink:href="src/graph-utl/strip-self-transitions.js" xlink:title="strip&#45;self&#45;transitions.js">
<path fill="#ffffcc" stroke="black" d="M736.5,-72C736.5,-72 643.5,-72 643.5,-72 640.5,-72 637.5,-69 637.5,-66 637.5,-66 637.5,-60 637.5,-60 637.5,-57 640.5,-54 643.5,-54 643.5,-54 736.5,-54 736.5,-54 739.5,-54 742.5,-57 742.5,-60 742.5,-60 742.5,-66 742.5,-66 742.5,-69 739.5,-72 736.5,-72"/>
<text text-anchor="start" x="645.5" y="-60.8" font-family="Helvetica,sans-Serif" font-size="9.00">strip&#45;self&#45;transitions.js</text>
</a>
</g>
</g>
<!-- src/main/options/defaults.js -->
<g id="node26" class="node">
<title>src/main/options/defaults.js</title>
<g id="a_node26"><a xlink:href="src/main/options/defaults.js" xlink:title="defaults.js">
<path fill="#ffffcc" stroke="black" d="M713,-390C713,-390 667,-390 667,-390 664,-390 661,-387 661,-384 661,-384 661,-378 661,-378 661,-375 664,-372 667,-372 667,-372 713,-372 713,-372 716,-372 719,-375 719,-378 719,-378 719,-384 719,-384 719,-387 716,-390 713,-390"/>
<text text-anchor="start" x="669" y="-378.8" font-family="Helvetica,sans-Serif" font-size="9.00">defaults.js</text>
</a>
</g>
</g>
<!-- src/main/options/normalize.js&#45;&gt;src/main/options/defaults.js -->
<g id="edge26" class="edge">
<title>src/main/options/normalize.js&#45;&gt;src/main/options/defaults.js</title>
<path fill="none" stroke="#000000" stroke-width="2" stroke-opacity="0.200000" d="M581.68,-378C581.68,-378 654.87,-378 654.87,-378"/>
<polygon fill="#000000" fill-opacity="0.200000" stroke="#000000" stroke-width="2" stroke-opacity="0.200000" points="654.87,-380.1 660.87,-378 654.87,-375.9 654.87,-380.1"/>
</g>
<!-- src/main/utl/normalize&#45;re&#45;properties.js -->
<g id="node27" class="node">
<title>src/main/utl/normalize&#45;re&#45;properties.js</title>
<g id="a_node27"><a xlink:href="src/main/utl/normalize-re-properties.js" xlink:title="normalize&#45;re&#45;properties.js">
<path fill="#ffffcc" stroke="black" d="M745,-455C745,-455 635,-455 635,-455 632,-455 629,-452 629,-449 629,-449 629,-443 629,-443 629,-440 632,-437 635,-437 635,-437 745,-437 745,-437 748,-437 751,-440 751,-443 751,-443 751,-449 751,-449 751,-452 748,-455 745,-455"/>
<text text-anchor="start" x="637" y="-443.8" font-family="Helvetica,sans-Serif" font-size="9.00">normalize&#45;re&#45;properties.js</text>
</a>
</g>
</g>
<!-- src/main/options/normalize.js&#45;&gt;src/main/utl/normalize&#45;re&#45;properties.js -->
<g id="edge25" class="edge">
<title>src/main/options/normalize.js&#45;&gt;src/main/utl/normalize&#45;re&#45;properties.js</title>
<path fill="none" stroke="#000000" stroke-width="2" stroke-opacity="0.200000" d="M581.71,-384C609.62,-384 645,-384 645,-384 645,-384 645,-430.85 645,-430.85"/>
<polygon fill="#000000" fill-opacity="0.200000" stroke="#000000" stroke-width="2" stroke-opacity="0.200000" points="642.9,-430.85 645,-436.85 647.1,-430.85 642.9,-430.85"/>
</g>
<!-- src/report/index.js -->
<g id="node28" class="node">
<title>src/report/index.js</title>
<g id="a_node28"><a xlink:href="src/report/index.js" xlink:title="index.js">
<path fill="#ffffcc" stroke="black" d="M711,-222C711,-222 669,-222 669,-222 666,-222 663,-219 663,-216 663,-216 663,-210 663,-210 663,-207 666,-204 669,-204 669,-204 711,-204 711,-204 714,-204 717,-207 717,-210 717,-210 717,-216 717,-216 717,-219 714,-222 711,-222"/>
<text text-anchor="start" x="674" y="-210.8" font-family="Helvetica,sans-Serif" font-size="9.00">index.js</text>
</a>
</g>
</g>
<!-- src/main/options/validate.js&#45;&gt;src/report/index.js -->
<g id="edge27" class="edge">
<title>src/main/options/validate.js&#45;&gt;src/report/index.js</title>
<path fill="none" stroke="#000000" stroke-width="2" stroke-opacity="0.200000" d="M577.82,-351C619.27,-351 690,-351 690,-351 690,-351 690,-228.05 690,-228.05"/>
<polygon fill="#000000" fill-opacity="0.200000" stroke="#000000" stroke-width="2" stroke-opacity="0.200000" points="692.1,-228.05 690,-222.05 687.9,-228.05 692.1,-228.05"/>
</g>
<!-- src/main/report&#45;wrap.js&#45;&gt;src/enrich/summarize/index.js -->
<g id="edge28" class="edge">
<title>src/main/report&#45;wrap.js&#45;&gt;src/enrich/summarize/index.js</title>
<path fill="none" stroke="#000000" stroke-width="2" stroke-opacity="0.200000" d="M451,-263.79C451,-232.57 451,-132.67 451,-132.67 451,-132.67 515.34,-132.67 515.34,-132.67"/>
<polygon fill="#000000" fill-opacity="0.200000" stroke="#000000" stroke-width="2" stroke-opacity="0.200000" points="515.34,-134.77 521.34,-132.67 515.34,-130.57 515.34,-134.77"/>
</g>
<!-- src/main/report&#45;wrap.js&#45;&gt;src/graph&#45;utl/compare.js -->
<g id="edge29" class="edge">
<title>src/main/report&#45;wrap.js&#45;&gt;src/graph&#45;utl/compare.js</title>
<path fill="none" stroke="#000000" stroke-width="2" stroke-opacity="0.200000" d="M385,-263.77C385,-219.38 385,-30 385,-30 385,-30 652.79,-30 652.79,-30"/>
<polygon fill="#000000" fill-opacity="0.200000" stroke="#000000" stroke-width="2" stroke-opacity="0.200000" points="652.79,-32.1 658.79,-30 652.79,-27.9 652.79,-32.1"/>
</g>
<!-- src/main/report&#45;wrap.js&#45;&gt;src/graph&#45;utl/consolidate&#45;to&#45;pattern.js -->
<g id="edge30" class="edge">
<title>src/main/report&#45;wrap.js&#45;&gt;src/graph&#45;utl/consolidate&#45;to&#45;pattern.js</title>
<path fill="none" stroke="#000000" stroke-width="2" stroke-opacity="0.200000" d="M447,-263.83C447,-227.15 447,-93 447,-93 447,-93 626.41,-93 626.41,-93"/>
<polygon fill="#000000" fill-opacity="0.200000" stroke="#000000" stroke-width="2" stroke-opacity="0.200000" points="626.41,-95.1 632.41,-93 626.41,-90.9 626.41,-95.1"/>
</g>
<!-- src/main/report&#45;wrap.js&#45;&gt;src/graph&#45;utl/filter&#45;bank.js -->
<g id="edge31" class="edge">
<title>src/main/report&#45;wrap.js&#45;&gt;src/graph&#45;utl/filter&#45;bank.js</title>
<path fill="none" stroke="#000000" stroke-width="2" stroke-opacity="0.200000" d="M449,-263.83C449,-230.67 449,-119 449,-119 449,-119 651,-119 651,-119"/>
<polygon fill="#000000" fill-opacity="0.200000" stroke="#000000" stroke-width="2" stroke-opacity="0.200000" points="651,-121.1 657,-119 651,-116.9 651,-121.1"/>
</g>
<!-- src/main/report&#45;wrap.js&#45;&gt;src/graph&#45;utl/strip&#45;self&#45;transitions.js -->
<g id="edge32" class="edge">
<title>src/main/report&#45;wrap.js&#45;&gt;src/graph&#45;utl/strip&#45;self&#45;transitions.js</title>
<path fill="none" stroke="#000000" stroke-width="2" stroke-opacity="0.200000" d="M388,-263.98C388,-223.78 388,-63 388,-63 388,-63 631.4,-63 631.4,-63"/>
<polygon fill="#000000" fill-opacity="0.200000" stroke="#000000" stroke-width="2" stroke-opacity="0.200000" points="631.4,-65.1 637.4,-63 631.4,-60.9 631.4,-65.1"/>
</g>
<!-- src/main/report&#45;wrap.js&#45;&gt;src/report/index.js -->
<g id="edge33" class="edge">
<title>src/main/report&#45;wrap.js&#45;&gt;src/report/index.js</title>
<path fill="none" stroke="#000000" stroke-width="2" stroke-opacity="0.200000" d="M453,-263.89C453,-247.1 453,-213 453,-213 453,-213 656.81,-213 656.81,-213"/>
<polygon fill="#000000" fill-opacity="0.200000" stroke="#000000" stroke-width="2" stroke-opacity="0.200000" points="656.81,-215.1 662.81,-213 656.81,-210.9 656.81,-215.1"/>
</g>
<!-- src/main/rule&#45;set/normalize.js&#45;&gt;src/main/utl/normalize&#45;re&#45;properties.js -->
<g id="edge36" class="edge">
<title>src/main/rule&#45;set/normalize.js&#45;&gt;src/main/utl/normalize&#45;re&#45;properties.js</title>
<path fill="none" stroke="#000000" stroke-width="2" stroke-opacity="0.200000" d="M451.08,-448.5C451.08,-448.5 622.8,-448.5 622.8,-448.5"/>
<polygon fill="#000000" fill-opacity="0.200000" stroke="#000000" stroke-width="2" stroke-opacity="0.200000" points="622.8,-450.6 628.8,-448.5 622.8,-446.4 622.8,-450.6"/>
</g>
<!-- src/main/rule&#45;set/validate.js&#45;&gt;src/main/options/validate.js -->
<g id="edge38" class="edge">
<title>src/main/rule&#45;set/validate.js&#45;&gt;src/main/options/validate.js</title>
<path fill="none" stroke="#000000" stroke-width="2" stroke-opacity="0.200000" d="M447.08,-478C464.38,-478 483,-478 483,-478 483,-478 483,-354 483,-354 483,-354 513.2,-354 513.2,-354"/>
<polygon fill="#000000" fill-opacity="0.200000" stroke="#000000" stroke-width="2" stroke-opacity="0.200000" points="513.2,-356.1 519.2,-354 513.2,-351.9 513.2,-356.1"/>
</g>
<!-- src/schema/configuration.schema.js -->
<g id="node29" class="node">
<title>src/schema/configuration.schema.js</title>
<g id="a_node29"><a xlink:href="src/schema/configuration.schema.js" xlink:title="configuration.schema.js">
<path fill="#ffffcc" stroke="black" d="M599,-576C599,-576 498,-576 498,-576 495,-576 492,-573 492,-570 492,-570 492,-564 492,-564 492,-561 495,-558 498,-558 498,-558 599,-558 599,-558 602,-558 605,-561 605,-564 605,-564 605,-570 605,-570 605,-573 602,-576 599,-576"/>
<text text-anchor="start" x="500" y="-564.8" font-family="Helvetica,sans-Serif" font-size="9.00">configuration.schema.js</text>
</a>
</g>
</g>
<!-- src/main/rule&#45;set/validate.js&#45;&gt;src/schema/configuration.schema.js -->
<g id="edge37" class="edge">
<title>src/main/rule&#45;set/validate.js&#45;&gt;src/schema/configuration.schema.js</title>
<path fill="none" stroke="#000000" stroke-width="2" stroke-opacity="0.200000" d="M447.12,-484C472.06,-484 504,-484 504,-484 504,-484 504,-551.8 504,-551.8"/>
<polygon fill="#000000" fill-opacity="0.200000" stroke="#000000" stroke-width="2" stroke-opacity="0.200000" points="501.9,-551.8 504,-557.8 506.1,-551.8 501.9,-551.8"/>
</g>
</g>
</svg>
