<?xml version="1.0" encoding="UTF-8" standalone="no"?>
<!DOCTYPE svg PUBLIC "-//W3C//DTD SVG 1.1//EN"
 "http://www.w3.org/Graphics/SVG/1.1/DTD/svg11.dtd">
<!-- Generated by graphviz version 3.0.0 (20220226.1711)
 -->
<!-- Title: dependency&#45;cruiser output Pages: 1 -->
<svg width="725pt" height="864pt"
 viewBox="0.00 0.00 725.00 864.00" xmlns="http://www.w3.org/2000/svg" xmlns:xlink="http://www.w3.org/1999/xlink">
<g id="graph0" class="graph" transform="scale(1 1) rotate(0) translate(4 860)">
<title>dependency&#45;cruiser output</title>
<polygon fill="white" stroke="transparent" points="-4,4 -4,-860 721,-860 721,4 -4,4"/>
<g id="clust1" class="cluster">
<title>cluster_src</title>
<path fill="#ffffff" stroke="black" stroke-width="2" d="M20,-8C20,-8 697,-8 697,-8 703,-8 709,-14 709,-20 709,-20 709,-836 709,-836 709,-842 703,-848 697,-848 697,-848 20,-848 20,-848 14,-848 8,-842 8,-836 8,-836 8,-20 8,-20 8,-14 14,-8 20,-8"/>
<text text-anchor="middle" x="358.5" y="-836.8" font-family="Helvetica,sans-Serif" font-weight="bold" font-size="9.00">src</text>
</g>
<g id="clust8" class="cluster">
<title>cluster_src/extract</title>
<path fill="#ffffff" stroke="black" stroke-width="2" d="M450.5,-16C450.5,-16 512.5,-16 512.5,-16 518.5,-16 524.5,-22 524.5,-28 524.5,-28 524.5,-116 524.5,-116 524.5,-122 518.5,-128 512.5,-128 512.5,-128 450.5,-128 450.5,-128 444.5,-128 438.5,-122 438.5,-116 438.5,-116 438.5,-28 438.5,-28 438.5,-22 444.5,-16 450.5,-16"/>
<text text-anchor="middle" x="481.5" y="-116.8" font-family="Helvetica,sans-Serif" font-weight="bold" font-size="9.00">extract</text>
</g>
<g id="clust9" class="cluster">
<title>cluster_src/extract/transpile</title>
<path fill="#ffffff" stroke="black" stroke-width="2" d="M458.5,-50C458.5,-50 504.5,-50 504.5,-50 510.5,-50 516.5,-56 516.5,-62 516.5,-62 516.5,-90 516.5,-90 516.5,-96 510.5,-102 504.5,-102 504.5,-102 458.5,-102 458.5,-102 452.5,-102 446.5,-96 446.5,-90 446.5,-90 446.5,-62 446.5,-62 446.5,-56 452.5,-50 458.5,-50"/>
<text text-anchor="middle" x="481.5" y="-90.8" font-family="Helvetica,sans-Serif" font-weight="bold" font-size="9.00">transpile</text>
</g>
<g id="clust10" class="cluster">
<title>cluster_src/graph&#45;utl</title>
<path fill="#ffffff" stroke="black" stroke-width="2" d="M428,-640C428,-640 535,-640 535,-640 541,-640 547,-646 547,-652 547,-652 547,-800 547,-800 547,-806 541,-812 535,-812 535,-812 428,-812 428,-812 422,-812 416,-806 416,-800 416,-800 416,-652 416,-652 416,-646 422,-640 428,-640"/>
<text text-anchor="middle" x="481.5" y="-800.8" font-family="Helvetica,sans-Serif" font-weight="bold" font-size="9.00">graph&#45;utl</text>
</g>
<g id="clust11" class="cluster">
<title>cluster_src/main</title>
<path fill="#ffffff" stroke="black" stroke-width="2" d="M186,-346C186,-346 689,-346 689,-346 695,-346 701,-352 701,-358 701,-358 701,-620 701,-620 701,-626 695,-632 689,-632 689,-632 186,-632 186,-632 180,-632 174,-626 174,-620 174,-620 174,-358 174,-358 174,-352 180,-346 186,-346"/>
<text text-anchor="middle" x="437.5" y="-620.8" font-family="Helvetica,sans-Serif" font-weight="bold" font-size="9.00">main</text>
</g>
<g id="clust12" class="cluster">
<title>cluster_src/main/files&#45;and&#45;dirs</title>
<path fill="#ffffff" stroke="black" stroke-width="2" d="M321.5,-468C321.5,-468 379.5,-468 379.5,-468 385.5,-468 391.5,-474 391.5,-480 391.5,-480 391.5,-508 391.5,-508 391.5,-514 385.5,-520 379.5,-520 379.5,-520 321.5,-520 321.5,-520 315.5,-520 309.5,-514 309.5,-508 309.5,-508 309.5,-480 309.5,-480 309.5,-474 315.5,-468 321.5,-468"/>
<text text-anchor="middle" x="350.5" y="-508.8" font-family="Helvetica,sans-Serif" font-weight="bold" font-size="9.00">files&#45;and&#45;dirs</text>
</g>
<g id="clust13" class="cluster">
<title>cluster_src/main/options</title>
<path fill="#ffffff" stroke="black" stroke-width="2" d="M452.5,-414C452.5,-414 649,-414 649,-414 655,-414 661,-420 661,-426 661,-426 661,-484 661,-484 661,-490 655,-496 649,-496 649,-496 452.5,-496 452.5,-496 446.5,-496 440.5,-490 440.5,-484 440.5,-484 440.5,-426 440.5,-426 440.5,-420 446.5,-414 452.5,-414"/>
<text text-anchor="middle" x="550.75" y="-484.8" font-family="Helvetica,sans-Serif" font-weight="bold" font-size="9.00">options</text>
</g>
<g id="clust14" class="cluster">
<title>cluster_src/main/resolve&#45;options</title>
<path fill="#ffffff" stroke="black" stroke-width="2" d="M321.5,-528C321.5,-528 380.5,-528 380.5,-528 386.5,-528 392.5,-534 392.5,-540 392.5,-540 392.5,-568 392.5,-568 392.5,-574 386.5,-580 380.5,-580 380.5,-580 321.5,-580 321.5,-580 315.5,-580 309.5,-574 309.5,-568 309.5,-568 309.5,-540 309.5,-540 309.5,-534 315.5,-528 321.5,-528"/>
<text text-anchor="middle" x="351" y="-568.8" font-family="Helvetica,sans-Serif" font-weight="bold" font-size="9.00">resolve&#45;options</text>
</g>
<g id="clust15" class="cluster">
<title>cluster_src/main/rule&#45;set</title>
<path fill="#ffffff" stroke="black" stroke-width="2" d="M321.5,-354C321.5,-354 379.5,-354 379.5,-354 385.5,-354 391.5,-360 391.5,-366 391.5,-366 391.5,-424 391.5,-424 391.5,-430 385.5,-436 379.5,-436 379.5,-436 321.5,-436 321.5,-436 315.5,-436 309.5,-430 309.5,-424 309.5,-424 309.5,-366 309.5,-366 309.5,-360 315.5,-354 321.5,-354"/>
<text text-anchor="middle" x="350.5" y="-424.8" font-family="Helvetica,sans-Serif" font-weight="bold" font-size="9.00">rule&#45;set</text>
</g>
<g id="clust16" class="cluster">
<title>cluster_src/main/utl</title>
<path fill="#ffffff" stroke="black" stroke-width="2" d="M567,-354C567,-354 681,-354 681,-354 687,-354 693,-360 693,-366 693,-366 693,-394 693,-394 693,-400 687,-406 681,-406 681,-406 567,-406 567,-406 561,-406 555,-400 555,-394 555,-394 555,-366 555,-366 555,-360 561,-354 567,-354"/>
<text text-anchor="middle" x="624" y="-394.8" font-family="Helvetica,sans-Serif" font-weight="bold" font-size="9.00">utl</text>
</g>
<g id="clust17" class="cluster">
<title>cluster_src/report</title>
<path fill="#ffffff" stroke="black" stroke-width="2" d="M601,-705C601,-705 647,-705 647,-705 653,-705 659,-711 659,-717 659,-717 659,-745 659,-745 659,-751 653,-757 647,-757 647,-757 601,-757 601,-757 595,-757 589,-751 589,-745 589,-745 589,-717 589,-717 589,-711 595,-705 601,-705"/>
<text text-anchor="middle" x="624" y="-745.8" font-family="Helvetica,sans-Serif" font-weight="bold" font-size="9.00">report</text>
</g>
<g id="clust18" class="cluster">
<title>cluster_src/schema</title>
<path fill="#ffffff" stroke="black" stroke-width="2" d="M429,-256C429,-256 534,-256 534,-256 540,-256 546,-262 546,-268 546,-268 546,-326 546,-326 546,-332 540,-338 534,-338 534,-338 429,-338 429,-338 423,-338 417,-332 417,-326 417,-326 417,-268 417,-268 417,-262 423,-256 429,-256"/>
<text text-anchor="middle" x="481.5" y="-326.8" font-family="Helvetica,sans-Serif" font-weight="bold" font-size="9.00">schema</text>
</g>
<g id="clust19" class="cluster">
<title>cluster_src/utl</title>
<path fill="#ffffff" stroke="black" stroke-width="2" d="M327.5,-226C327.5,-226 373.5,-226 373.5,-226 379.5,-226 385.5,-232 385.5,-238 385.5,-238 385.5,-266 385.5,-266 385.5,-272 379.5,-278 373.5,-278 373.5,-278 327.5,-278 327.5,-278 321.5,-278 315.5,-272 315.5,-266 315.5,-266 315.5,-238 315.5,-238 315.5,-232 321.5,-226 327.5,-226"/>
<text text-anchor="middle" x="350.5" y="-266.8" font-family="Helvetica,sans-Serif" font-weight="bold" font-size="9.00">utl</text>
</g>
<g id="clust4" class="cluster">
<title>cluster_src/config&#45;utl</title>
<path fill="#ffffff" stroke="black" stroke-width="2" d="M152,-640C152,-640 266,-640 266,-640 272,-640 278,-646 278,-652 278,-652 278,-714 278,-714 278,-720 272,-726 266,-726 266,-726 152,-726 152,-726 146,-726 140,-720 140,-714 140,-714 140,-652 140,-652 140,-646 146,-640 152,-640"/>
<text text-anchor="middle" x="209" y="-714.8" font-family="Helvetica,sans-Serif" font-weight="bold" font-size="9.00">config&#45;utl</text>
</g>
<g id="clust5" class="cluster">
<title>cluster_src/config&#45;utl/extract&#45;depcruise&#45;config</title>
<path fill="#ffffff" stroke="black" stroke-width="2" d="M160,-648C160,-648 258,-648 258,-648 264,-648 270,-654 270,-660 270,-660 270,-688 270,-688 270,-694 264,-700 258,-700 258,-700 160,-700 160,-700 154,-700 148,-694 148,-688 148,-688 148,-660 148,-660 148,-654 154,-648 160,-648"/>
<text text-anchor="middle" x="209" y="-688.8" font-family="Helvetica,sans-Serif" font-weight="bold" font-size="9.00">extract&#45;depcruise&#45;config</text>
</g>
<g id="clust6" class="cluster">
<title>cluster_src/enrich</title>
<path fill="#ffffff" stroke="black" stroke-width="2" d="M450.5,-136C450.5,-136 512.5,-136 512.5,-136 518.5,-136 524.5,-142 524.5,-148 524.5,-148 524.5,-236 524.5,-236 524.5,-242 518.5,-248 512.5,-248 512.5,-248 450.5,-248 450.5,-248 444.5,-248 438.5,-242 438.5,-236 438.5,-236 438.5,-148 438.5,-148 438.5,-142 444.5,-136 450.5,-136"/>
<text text-anchor="middle" x="481.5" y="-236.8" font-family="Helvetica,sans-Serif" font-weight="bold" font-size="9.00">enrich</text>
</g>
<g id="clust7" class="cluster">
<title>cluster_src/enrich/summarize</title>
<path fill="#ffffff" stroke="black" stroke-width="2" d="M458.5,-170C458.5,-170 504.5,-170 504.5,-170 510.5,-170 516.5,-176 516.5,-182 516.5,-182 516.5,-210 516.5,-210 516.5,-216 510.5,-222 504.5,-222 504.5,-222 458.5,-222 458.5,-222 452.5,-222 446.5,-216 446.5,-210 446.5,-210 446.5,-182 446.5,-182 446.5,-176 452.5,-170 458.5,-170"/>
<text text-anchor="middle" x="481.5" y="-210.8" font-family="Helvetica,sans-Serif" font-weight="bold" font-size="9.00">summarize</text>
</g>
<g id="clust2" class="cluster">
<title>cluster_src/cache</title>
<path fill="#ffffff" stroke="black" stroke-width="2" d="M315,-286C315,-286 386,-286 386,-286 392,-286 398,-292 398,-298 398,-298 398,-326 398,-326 398,-332 392,-338 386,-338 386,-338 315,-338 315,-338 309,-338 303,-332 303,-326 303,-326 303,-298 303,-298 303,-292 309,-286 315,-286"/>
<text text-anchor="middle" x="350.5" y="-326.8" font-family="Helvetica,sans-Serif" font-weight="bold" font-size="9.00">cache</text>
</g>
<g id="clust3" class="cluster">
<title>cluster_src/cli</title>
<path fill="#ffffff" stroke="black" stroke-width="2" d="M28,-324C28,-324 112,-324 112,-324 118,-324 124,-330 124,-336 124,-336 124,-424 124,-424 124,-430 118,-436 112,-436 112,-436 28,-436 28,-436 22,-436 16,-430 16,-424 16,-424 16,-336 16,-336 16,-330 22,-324 28,-324"/>
<text text-anchor="middle" x="70" y="-424.8" font-family="Helvetica,sans-Serif" font-weight="bold" font-size="9.00">cli</text>
</g>
<!-- src/cache/revision&#45;data.js -->
<g id="node1" class="node">
<title>src/cache/revision&#45;data.js</title>
<g id="a_node1"><a xlink:href="src/cache/revision-data.js" xlink:title="revision&#45;data.js">
<path fill="#ffffcc" stroke="black" d="M384,-312C384,-312 317,-312 317,-312 314,-312 311,-309 311,-306 311,-306 311,-300 311,-300 311,-297 314,-294 317,-294 317,-294 384,-294 384,-294 387,-294 390,-297 390,-300 390,-300 390,-306 390,-306 390,-309 387,-312 384,-312"/>
<text text-anchor="start" x="319" y="-300.8" font-family="Helvetica,sans-Serif" font-size="9.00">revision&#45;data.js</text>
</a>
</g>
</g>
<!-- src/cli/format&#45;meta&#45;info.js -->
<g id="node2" class="node">
<title>src/cli/format&#45;meta&#45;info.js</title>
<g id="a_node2"><a xlink:href="src/cli/format-meta-info.js" xlink:title="format&#45;meta&#45;info.js">
<path fill="#ffffcc" stroke="black" d="M110,-410C110,-410 30,-410 30,-410 27,-410 24,-407 24,-404 24,-404 24,-398 24,-398 24,-395 27,-392 30,-392 30,-392 110,-392 110,-392 113,-392 116,-395 116,-398 116,-398 116,-404 116,-404 116,-407 113,-410 110,-410"/>
<text text-anchor="start" x="32" y="-398.8" font-family="Helvetica,sans-Serif" font-size="9.00">format&#45;meta&#45;info.js</text>
</a>
</g>
</g>
<!-- src/main/index.js -->
<g id="node3" class="node">
<title>src/main/index.js</title>
<g id="a_node3"><a xlink:href="src/main/index.js" xlink:title="index.js">
<path fill="#ffffcc" stroke="black" d="M230,-380C230,-380 188,-380 188,-380 185,-380 182,-377 182,-374 182,-374 182,-368 182,-368 182,-365 185,-362 188,-362 188,-362 230,-362 230,-362 233,-362 236,-365 236,-368 236,-368 236,-374 236,-374 236,-377 233,-380 230,-380"/>
<text text-anchor="start" x="193" y="-368.8" font-family="Helvetica,sans-Serif" font-size="9.00">index.js</text>
</a>
</g>
</g>
<!-- src/cli/format&#45;meta&#45;info.js&#45;&gt;src/main/index.js -->
<g id="edge1" class="edge">
<title>src/cli/format&#45;meta&#45;info.js&#45;&gt;src/main/index.js</title>
<path fill="none" stroke="#000000" stroke-width="2" stroke-opacity="0.200000" d="M107,-391.86C107,-384.03 107,-374 107,-374 107,-374 175.93,-374 175.93,-374"/>
<polygon fill="#000000" fill-opacity="0.200000" stroke="#000000" stroke-width="2" stroke-opacity="0.200000" points="175.93,-376.1 181.93,-374 175.93,-371.9 175.93,-376.1"/>
</g>
<!-- src/main/index.js&#45;&gt;src/cache/revision&#45;data.js -->
<g id="edge5" class="edge">
<title>src/main/index.js&#45;&gt;src/cache/revision&#45;data.js</title>
<path fill="none" stroke="#000000" stroke-width="2" stroke-opacity="0.200000" d="M230,-361.83C230,-343.27 230,-303 230,-303 230,-303 304.71,-303 304.71,-303"/>
<polygon fill="#000000" fill-opacity="0.200000" stroke="#000000" stroke-width="2" stroke-opacity="0.200000" points="304.71,-305.1 310.71,-303 304.71,-300.9 304.71,-305.1"/>
</g>
<!-- src/main/resolve&#45;options/normalize.js -->
<g id="node7" class="node">
<title>src/main/resolve&#45;options/normalize.js</title>
<g id="a_node7"><a xlink:href="src/main/resolve-options/normalize.js" xlink:title="normalize.js">
<path fill="#ffffcc" stroke="black" d="M377.5,-554C377.5,-554 323.5,-554 323.5,-554 320.5,-554 317.5,-551 317.5,-548 317.5,-548 317.5,-542 317.5,-542 317.5,-539 320.5,-536 323.5,-536 323.5,-536 377.5,-536 377.5,-536 380.5,-536 383.5,-539 383.5,-542 383.5,-542 383.5,-548 383.5,-548 383.5,-551 380.5,-554 377.5,-554"/>
<text text-anchor="start" x="325.5" y="-542.8" font-family="Helvetica,sans-Serif" font-size="9.00">normalize.js</text>
</a>
</g>
</g>
<!-- src/main/index.js&#45;&gt;src/main/resolve&#45;options/normalize.js -->
<g id="edge15" class="edge">
<title>src/main/index.js&#45;&gt;src/main/resolve&#45;options/normalize.js</title>
<path fill="none" stroke="#000000" stroke-width="2" stroke-opacity="0.200000" d="M196,-380.19C196,-415.71 196,-542 196,-542 196,-542 311.36,-542 311.36,-542"/>
<polygon fill="#000000" fill-opacity="0.200000" stroke="#000000" stroke-width="2" stroke-opacity="0.200000" points="311.36,-544.1 317.36,-542 311.36,-539.9 311.36,-544.1"/>
</g>
<!-- src/enrich/index.js -->
<g id="node8" class="node">
<title>src/enrich/index.js</title>
<g id="a_node8"><a xlink:href="src/enrich/index.js" xlink:title="index.js">
<path fill="#ffffcc" stroke="black" d="M502.5,-162C502.5,-162 460.5,-162 460.5,-162 457.5,-162 454.5,-159 454.5,-156 454.5,-156 454.5,-150 454.5,-150 454.5,-147 457.5,-144 460.5,-144 460.5,-144 502.5,-144 502.5,-144 505.5,-144 508.5,-147 508.5,-150 508.5,-150 508.5,-156 508.5,-156 508.5,-159 505.5,-162 502.5,-162"/>
<text text-anchor="start" x="465.5" y="-150.8" font-family="Helvetica,sans-Serif" font-size="9.00">index.js</text>
</a>
</g>
</g>
<!-- src/main/index.js&#45;&gt;src/enrich/index.js -->
<g id="edge6" class="edge">
<title>src/main/index.js&#45;&gt;src/enrich/index.js</title>
<path fill="none" stroke="#000000" stroke-width="2" stroke-opacity="0.200000" d="M209,-361.91C209,-320.65 209,-153 209,-153 209,-153 448.38,-153 448.38,-153"/>
<polygon fill="#000000" fill-opacity="0.200000" stroke="#000000" stroke-width="2" stroke-opacity="0.200000" points="448.38,-155.1 454.38,-153 448.38,-150.9 448.38,-155.1"/>
</g>
<!-- src/extract/index.js -->
<g id="node10" class="node">
<title>src/extract/index.js</title>
<g id="a_node10"><a xlink:href="src/extract/index.js" xlink:title="index.js">
<path fill="#ffffcc" stroke="black" d="M502.5,-42C502.5,-42 460.5,-42 460.5,-42 457.5,-42 454.5,-39 454.5,-36 454.5,-36 454.5,-30 454.5,-30 454.5,-27 457.5,-24 460.5,-24 460.5,-24 502.5,-24 502.5,-24 505.5,-24 508.5,-27 508.5,-30 508.5,-30 508.5,-36 508.5,-36 508.5,-39 505.5,-42 502.5,-42"/>
<text text-anchor="start" x="465.5" y="-30.8" font-family="Helvetica,sans-Serif" font-size="9.00">index.js</text>
</a>
</g>
</g>
<!-- src/main/index.js&#45;&gt;src/extract/index.js -->
<g id="edge7" class="edge">
<title>src/main/index.js&#45;&gt;src/extract/index.js</title>
<path fill="none" stroke="#000000" stroke-width="2" stroke-opacity="0.200000" d="M196,-361.96C196,-308.21 196,-33 196,-33 196,-33 448.38,-33 448.38,-33"/>
<polygon fill="#000000" fill-opacity="0.200000" stroke="#000000" stroke-width="2" stroke-opacity="0.200000" points="448.38,-35.1 454.38,-33 448.38,-30.9 448.38,-35.1"/>
</g>
<!-- src/extract/transpile/meta.js -->
<g id="node11" class="node">
<title>src/extract/transpile/meta.js</title>
<g id="a_node11"><a xlink:href="src/extract/transpile/meta.js" xlink:title="meta.js">
<path fill="#ffffcc" stroke="black" d="M502.5,-76C502.5,-76 460.5,-76 460.5,-76 457.5,-76 454.5,-73 454.5,-70 454.5,-70 454.5,-64 454.5,-64 454.5,-61 457.5,-58 460.5,-58 460.5,-58 502.5,-58 502.5,-58 505.5,-58 508.5,-61 508.5,-64 508.5,-64 508.5,-70 508.5,-70 508.5,-73 505.5,-76 502.5,-76"/>
<text text-anchor="start" x="466.5" y="-64.8" font-family="Helvetica,sans-Serif" font-size="9.00">meta.js</text>
</a>
</g>
</g>
<!-- src/main/index.js&#45;&gt;src/extract/transpile/meta.js -->
<g id="edge8" class="edge">
<title>src/main/index.js&#45;&gt;src/extract/transpile/meta.js</title>
<path fill="none" stroke="#000000" stroke-width="2" stroke-opacity="0.200000" d="M203,-361.81C203,-310.73 203,-64 203,-64 203,-64 448.29,-64 448.29,-64"/>
<polygon fill="#000000" fill-opacity="0.200000" stroke="#000000" stroke-width="2" stroke-opacity="0.200000" points="448.29,-66.1 454.29,-64 448.29,-61.9 448.29,-66.1"/>
</g>
<!-- src/main/files&#45;and&#45;dirs/normalize.js -->
<g id="node17" class="node">
<title>src/main/files&#45;and&#45;dirs/normalize.js</title>
<g id="a_node17"><a xlink:href="src/main/files-and-dirs/normalize.js" xlink:title="normalize.js">
<path fill="#ffffcc" stroke="black" d="M377.5,-494C377.5,-494 323.5,-494 323.5,-494 320.5,-494 317.5,-491 317.5,-488 317.5,-488 317.5,-482 317.5,-482 317.5,-479 320.5,-476 323.5,-476 323.5,-476 377.5,-476 377.5,-476 380.5,-476 383.5,-479 383.5,-482 383.5,-482 383.5,-488 383.5,-488 383.5,-491 380.5,-494 377.5,-494"/>
<text text-anchor="start" x="325.5" y="-482.8" font-family="Helvetica,sans-Serif" font-size="9.00">normalize.js</text>
</a>
</g>
</g>
<!-- src/main/index.js&#45;&gt;src/main/files&#45;and&#45;dirs/normalize.js -->
<g id="edge11" class="edge">
<title>src/main/index.js&#45;&gt;src/main/files&#45;and&#45;dirs/normalize.js</title>
<path fill="none" stroke="#000000" stroke-width="2" stroke-opacity="0.200000" d="M209,-380.33C209,-407.56 209,-485 209,-485 209,-485 311.32,-485 311.32,-485"/>
<polygon fill="#000000" fill-opacity="0.200000" stroke="#000000" stroke-width="2" stroke-opacity="0.200000" points="311.32,-487.1 317.32,-485 311.32,-482.9 311.32,-487.1"/>
</g>
<!-- src/schema/cruise&#45;result.schema.js -->
<g id="node18" class="node">
<title>src/schema/cruise&#45;result.schema.js</title>
<g id="a_node18"><a xlink:href="src/schema/cruise-result.schema.js" xlink:title="cruise&#45;result.schema.js">
<path fill="#ffffcc" stroke="black" d="M530.5,-282C530.5,-282 432.5,-282 432.5,-282 429.5,-282 426.5,-279 426.5,-276 426.5,-276 426.5,-270 426.5,-270 426.5,-267 429.5,-264 432.5,-264 432.5,-264 530.5,-264 530.5,-264 533.5,-264 536.5,-267 536.5,-270 536.5,-270 536.5,-276 536.5,-276 536.5,-279 533.5,-282 530.5,-282"/>
<text text-anchor="start" x="434.5" y="-270.8" font-family="Helvetica,sans-Serif" font-size="9.00">cruise&#45;result.schema.js</text>
</a>
</g>
</g>
<!-- src/main/index.js&#45;&gt;src/schema/cruise&#45;result.schema.js -->
<g id="edge9" class="edge">
<title>src/main/index.js&#45;&gt;src/schema/cruise&#45;result.schema.js</title>
<path fill="none" stroke="#000000" stroke-width="2" stroke-opacity="0.200000" d="M223,-361.96C223,-337.7 223,-273 223,-273 223,-273 420.36,-273 420.36,-273"/>
<polygon fill="#000000" fill-opacity="0.200000" stroke="#000000" stroke-width="2" stroke-opacity="0.200000" points="420.36,-275.1 426.36,-273 420.36,-270.9 420.36,-275.1"/>
</g>
<!-- src/utl/bus.js -->
<g id="node19" class="node">
<title>src/utl/bus.js</title>
<g id="a_node19"><a xlink:href="src/utl/bus.js" xlink:title="bus.js">
<path fill="#ffffcc" stroke="black" d="M371.5,-252C371.5,-252 329.5,-252 329.5,-252 326.5,-252 323.5,-249 323.5,-246 323.5,-246 323.5,-240 323.5,-240 323.5,-237 326.5,-234 329.5,-234 329.5,-234 371.5,-234 371.5,-234 374.5,-234 377.5,-237 377.5,-240 377.5,-240 377.5,-246 377.5,-246 377.5,-249 374.5,-252 371.5,-252"/>
<text text-anchor="start" x="338" y="-240.8" font-family="Helvetica,sans-Serif" font-size="9.00">bus.js</text>
</a>
</g>
</g>
<!-- src/main/index.js&#45;&gt;src/utl/bus.js -->
<g id="edge10" class="edge">
<title>src/main/index.js&#45;&gt;src/utl/bus.js</title>
<path fill="none" stroke="#000000" stroke-width="2" stroke-opacity="0.200000" d="M216,-361.79C216,-332.45 216,-243 216,-243 216,-243 317.28,-243 317.28,-243"/>
<polygon fill="#000000" fill-opacity="0.200000" stroke="#000000" stroke-width="2" stroke-opacity="0.200000" points="317.28,-245.1 323.28,-243 317.28,-240.9 317.28,-245.1"/>
</g>
<!-- src/main/options/normalize.js -->
<g id="node20" class="node">
<title>src/main/options/normalize.js</title>
<g id="a_node20"><a xlink:href="src/main/options/normalize.js" xlink:title="normalize.js">
<path fill="#ffffcc" stroke="black" d="M508.5,-440C508.5,-440 454.5,-440 454.5,-440 451.5,-440 448.5,-437 448.5,-434 448.5,-434 448.5,-428 448.5,-428 448.5,-425 451.5,-422 454.5,-422 454.5,-422 508.5,-422 508.5,-422 511.5,-422 514.5,-425 514.5,-428 514.5,-428 514.5,-434 514.5,-434 514.5,-437 511.5,-440 508.5,-440"/>
<text text-anchor="start" x="456.5" y="-428.8" font-family="Helvetica,sans-Serif" font-size="9.00">normalize.js</text>
</a>
</g>
</g>
<!-- src/main/index.js&#45;&gt;src/main/options/normalize.js -->
<g id="edge12" class="edge">
<title>src/main/index.js&#45;&gt;src/main/options/normalize.js</title>
<path fill="none" stroke="#000000" stroke-width="2" stroke-opacity="0.200000" d="M223,-380.11C223,-396.9 223,-431 223,-431 223,-431 442.5,-431 442.5,-431"/>
<polygon fill="#000000" fill-opacity="0.200000" stroke="#000000" stroke-width="2" stroke-opacity="0.200000" points="442.5,-433.1 448.5,-431 442.5,-428.9 442.5,-433.1"/>
</g>
<!-- src/main/options/validate.js -->
<g id="node21" class="node">
<title>src/main/options/validate.js</title>
<g id="a_node21"><a xlink:href="src/main/options/validate.js" xlink:title="validate.js">
<path fill="#ffffcc" stroke="black" d="M504.5,-470C504.5,-470 458.5,-470 458.5,-470 455.5,-470 452.5,-467 452.5,-464 452.5,-464 452.5,-458 452.5,-458 452.5,-455 455.5,-452 458.5,-452 458.5,-452 504.5,-452 504.5,-452 507.5,-452 510.5,-455 510.5,-458 510.5,-458 510.5,-464 510.5,-464 510.5,-467 507.5,-470 504.5,-470"/>
<text text-anchor="start" x="460.5" y="-458.8" font-family="Helvetica,sans-Serif" font-size="9.00">validate.js</text>
</a>
</g>
</g>
<!-- src/main/index.js&#45;&gt;src/main/options/validate.js -->
<g id="edge13" class="edge">
<title>src/main/index.js&#45;&gt;src/main/options/validate.js</title>
<path fill="none" stroke="#000000" stroke-width="2" stroke-opacity="0.200000" d="M216,-380.26C216,-403.78 216,-464 216,-464 216,-464 446.33,-464 446.33,-464"/>
<polygon fill="#000000" fill-opacity="0.200000" stroke="#000000" stroke-width="2" stroke-opacity="0.200000" points="446.33,-466.1 452.33,-464 446.33,-461.9 446.33,-466.1"/>
</g>
<!-- src/main/report&#45;wrap.js -->
<g id="node22" class="node">
<title>src/main/report&#45;wrap.js</title>
<g id="a_node22"><a xlink:href="src/main/report-wrap.js" xlink:title="report&#45;wrap.js">
<path fill="#ffffcc" stroke="black" d="M381,-606C381,-606 320,-606 320,-606 317,-606 314,-603 314,-600 314,-600 314,-594 314,-594 314,-591 317,-588 320,-588 320,-588 381,-588 381,-588 384,-588 387,-591 387,-594 387,-594 387,-600 387,-600 387,-603 384,-606 381,-606"/>
<text text-anchor="start" x="322" y="-594.8" font-family="Helvetica,sans-Serif" font-size="9.00">report&#45;wrap.js</text>
</a>
</g>
</g>
<!-- src/main/index.js&#45;&gt;src/main/report&#45;wrap.js -->
<g id="edge14" class="edge">
<title>src/main/index.js&#45;&gt;src/main/report&#45;wrap.js</title>
<path fill="none" stroke="#000000" stroke-width="2" stroke-opacity="0.200000" d="M189,-380.14C189,-422.42 189,-597 189,-597 189,-597 307.85,-597 307.85,-597"/>
<polygon fill="#000000" fill-opacity="0.200000" stroke="#000000" stroke-width="2" stroke-opacity="0.200000" points="307.85,-599.1 313.85,-597 307.85,-594.9 307.85,-599.1"/>
</g>
<!-- src/main/rule&#45;set/normalize.js -->
<g id="node23" class="node">
<title>src/main/rule&#45;set/normalize.js</title>
<g id="a_node23"><a xlink:href="src/main/rule-set/normalize.js" xlink:title="normalize.js">
<path fill="#ffffcc" stroke="black" d="M377.5,-380C377.5,-380 323.5,-380 323.5,-380 320.5,-380 317.5,-377 317.5,-374 317.5,-374 317.5,-368 317.5,-368 317.5,-365 320.5,-362 323.5,-362 323.5,-362 377.5,-362 377.5,-362 380.5,-362 383.5,-365 383.5,-368 383.5,-368 383.5,-374 383.5,-374 383.5,-377 380.5,-380 377.5,-380"/>
<text text-anchor="start" x="325.5" y="-368.8" font-family="Helvetica,sans-Serif" font-size="9.00">normalize.js</text>
</a>
</g>
</g>
<!-- src/main/index.js&#45;&gt;src/main/rule&#45;set/normalize.js -->
<g id="edge16" class="edge">
<title>src/main/index.js&#45;&gt;src/main/rule&#45;set/normalize.js</title>
<path fill="none" stroke="#000000" stroke-width="2" stroke-opacity="0.200000" d="M236.28,-371C236.28,-371 311.32,-371 311.32,-371"/>
<polygon fill="#000000" fill-opacity="0.200000" stroke="#000000" stroke-width="2" stroke-opacity="0.200000" points="311.32,-373.1 317.32,-371 311.32,-368.9 311.32,-373.1"/>
</g>
<!-- src/main/rule&#45;set/validate.js -->
<g id="node24" class="node">
<title>src/main/rule&#45;set/validate.js</title>
<g id="a_node24"><a xlink:href="src/main/rule-set/validate.js" xlink:title="validate.js">
<path fill="#ffffcc" stroke="black" d="M373.5,-410C373.5,-410 327.5,-410 327.5,-410 324.5,-410 321.5,-407 321.5,-404 321.5,-404 321.5,-398 321.5,-398 321.5,-395 324.5,-392 327.5,-392 327.5,-392 373.5,-392 373.5,-392 376.5,-392 379.5,-395 379.5,-398 379.5,-398 379.5,-404 379.5,-404 379.5,-407 376.5,-410 373.5,-410"/>
<text text-anchor="start" x="329.5" y="-398.8" font-family="Helvetica,sans-Serif" font-size="9.00">validate.js</text>
</a>
</g>
</g>
<!-- src/main/index.js&#45;&gt;src/main/rule&#45;set/validate.js -->
<g id="edge17" class="edge">
<title>src/main/index.js&#45;&gt;src/main/rule&#45;set/validate.js</title>
<path fill="none" stroke="#000000" stroke-width="2" stroke-opacity="0.200000" d="M230,-380.16C230,-388.99 230,-401 230,-401 230,-401 315.33,-401 315.33,-401"/>
<polygon fill="#000000" fill-opacity="0.200000" stroke="#000000" stroke-width="2" stroke-opacity="0.200000" points="315.33,-403.1 321.33,-401 315.33,-398.9 315.33,-403.1"/>
</g>
<!-- src/cli/format.js -->
<g id="node4" class="node">
<title>src/cli/format.js</title>
<g id="a_node4"><a xlink:href="src/cli/format.js" xlink:title="format.js">
<path fill="#ffffcc" stroke="black" d="M91,-380C91,-380 49,-380 49,-380 46,-380 43,-377 43,-374 43,-374 43,-368 43,-368 43,-365 46,-362 49,-362 49,-362 91,-362 91,-362 94,-362 97,-365 97,-368 97,-368 97,-374 97,-374 97,-377 94,-380 91,-380"/>
<text text-anchor="start" x="52.5" y="-368.8" font-family="Helvetica,sans-Serif" font-size="9.00">format.js</text>
</a>
</g>
</g>
<!-- src/cli/format.js&#45;&gt;src/main/index.js -->
<g id="edge2" class="edge">
<title>src/cli/format.js&#45;&gt;src/main/index.js</title>
<path fill="none" stroke="#000000" stroke-width="2" stroke-opacity="0.200000" d="M97.13,-368C97.13,-368 175.94,-368 175.94,-368"/>
<polygon fill="#000000" fill-opacity="0.200000" stroke="#000000" stroke-width="2" stroke-opacity="0.200000" points="175.94,-370.1 181.94,-368 175.94,-365.9 175.94,-370.1"/>
</g>
<!-- src/cli/index.js -->
<g id="node5" class="node">
<title>src/cli/index.js</title>
<g id="a_node5"><a xlink:href="src/cli/index.js" xlink:title="index.js">
<path fill="#ffffcc" stroke="black" d="M91,-350C91,-350 49,-350 49,-350 46,-350 43,-347 43,-344 43,-344 43,-338 43,-338 43,-335 46,-332 49,-332 49,-332 91,-332 91,-332 94,-332 97,-335 97,-338 97,-338 97,-344 97,-344 97,-347 94,-350 91,-350"/>
<text text-anchor="start" x="54" y="-338.8" font-family="Helvetica,sans-Serif" font-size="9.00">index.js</text>
</a>
</g>
</g>
<!-- src/cli/index.js&#45;&gt;src/main/index.js -->
<g id="edge3" class="edge">
<title>src/cli/index.js&#45;&gt;src/main/index.js</title>
<path fill="none" stroke="#000000" stroke-width="2" stroke-opacity="0.200000" d="M97,-341C132.11,-341 189,-341 189,-341 189,-341 189,-355.84 189,-355.84"/>
<polygon fill="#000000" fill-opacity="0.200000" stroke="#000000" stroke-width="2" stroke-opacity="0.200000" points="186.9,-355.84 189,-361.84 191.1,-355.84 186.9,-355.84"/>
</g>
<!-- src/config&#45;utl/extract&#45;depcruise&#45;config/index.js -->
<g id="node6" class="node">
<title>src/config&#45;utl/extract&#45;depcruise&#45;config/index.js</title>
<g id="a_node6"><a xlink:href="src/config-utl/extract-depcruise-config/index.js" xlink:title="index.js">
<path fill="#ffffcc" stroke="black" d="M230,-674C230,-674 188,-674 188,-674 185,-674 182,-671 182,-668 182,-668 182,-662 182,-662 182,-659 185,-656 188,-656 188,-656 230,-656 230,-656 233,-656 236,-659 236,-662 236,-662 236,-668 236,-668 236,-671 233,-674 230,-674"/>
<text text-anchor="start" x="193" y="-662.8" font-family="Helvetica,sans-Serif" font-size="9.00">index.js</text>
</a>
</g>
</g>
<!-- src/config&#45;utl/extract&#45;depcruise&#45;config/index.js&#45;&gt;src/main/resolve&#45;options/normalize.js -->
<g id="edge4" class="edge">
<title>src/config&#45;utl/extract&#45;depcruise&#45;config/index.js&#45;&gt;src/main/resolve&#45;options/normalize.js</title>
<path fill="none" stroke="#000000" stroke-width="2" stroke-opacity="0.200000" d="M203,-655.82C203,-628.24 203,-548 203,-548 203,-548 311.4,-548 311.4,-548"/>
<polygon fill="#000000" fill-opacity="0.200000" stroke="#000000" stroke-width="2" stroke-opacity="0.200000" points="311.4,-550.1 317.4,-548 311.4,-545.9 311.4,-550.1"/>
</g>
<!-- src/main/resolve&#45;options/normalize.js&#45;&gt;src/extract/transpile/meta.js -->
<g id="edge27" class="edge">
<title>src/main/resolve&#45;options/normalize.js&#45;&gt;src/extract/transpile/meta.js</title>
<path fill="none" stroke="#000000" stroke-width="2" stroke-opacity="0.200000" d="M383.7,-542C393.66,-542 402,-542 402,-542 402,-542 402,-70 402,-70 402,-70 448.14,-70 448.14,-70"/>
<polygon fill="#000000" fill-opacity="0.200000" stroke="#000000" stroke-width="2" stroke-opacity="0.200000" points="448.14,-72.1 454.14,-70 448.14,-67.9 448.14,-72.1"/>
</g>
<!-- src/graph&#45;utl/rule&#45;set.js -->
<g id="node15" class="node">
<title>src/graph&#45;utl/rule&#45;set.js</title>
<g id="a_node15"><a xlink:href="src/graph-utl/rule-set.js" xlink:title="rule&#45;set.js">
<path fill="#ffffcc" stroke="black" d="M503.5,-666C503.5,-666 459.5,-666 459.5,-666 456.5,-666 453.5,-663 453.5,-660 453.5,-660 453.5,-654 453.5,-654 453.5,-651 456.5,-648 459.5,-648 459.5,-648 503.5,-648 503.5,-648 506.5,-648 509.5,-651 509.5,-654 509.5,-654 509.5,-660 509.5,-660 509.5,-663 506.5,-666 503.5,-666"/>
<text text-anchor="start" x="461.5" y="-654.8" font-family="Helvetica,sans-Serif" font-size="9.00">rule&#45;set.js</text>
</a>
</g>
</g>
<!-- src/main/resolve&#45;options/normalize.js&#45;&gt;src/graph&#45;utl/rule&#45;set.js -->
<g id="edge28" class="edge">
<title>src/main/resolve&#45;options/normalize.js&#45;&gt;src/graph&#45;utl/rule&#45;set.js</title>
<path fill="none" stroke="#000000" stroke-width="2" stroke-opacity="0.200000" d="M383.68,-548C422.64,-548 482,-548 482,-548 482,-548 482,-641.71 482,-641.71"/>
<polygon fill="#000000" fill-opacity="0.200000" stroke="#000000" stroke-width="2" stroke-opacity="0.200000" points="479.9,-641.71 482,-647.71 484.1,-641.71 479.9,-641.71"/>
</g>
<!-- src/enrich/summarize/index.js -->
<g id="node9" class="node">
<title>src/enrich/summarize/index.js</title>
<g id="a_node9"><a xlink:href="src/enrich/summarize/index.js" xlink:title="index.js">
<path fill="#ffffcc" stroke="black" d="M502.5,-196C502.5,-196 460.5,-196 460.5,-196 457.5,-196 454.5,-193 454.5,-190 454.5,-190 454.5,-184 454.5,-184 454.5,-181 457.5,-178 460.5,-178 460.5,-178 502.5,-178 502.5,-178 505.5,-178 508.5,-181 508.5,-184 508.5,-184 508.5,-190 508.5,-190 508.5,-193 505.5,-196 502.5,-196"/>
<text text-anchor="start" x="465.5" y="-184.8" font-family="Helvetica,sans-Serif" font-size="9.00">index.js</text>
</a>
</g>
</g>
<!-- src/graph&#45;utl/compare.js -->
<g id="node12" class="node">
<title>src/graph&#45;utl/compare.js</title>
<g id="a_node12"><a xlink:href="src/graph-utl/compare.js" xlink:title="compare.js">
<path fill="#ffffcc" stroke="black" d="M506.5,-756C506.5,-756 456.5,-756 456.5,-756 453.5,-756 450.5,-753 450.5,-750 450.5,-750 450.5,-744 450.5,-744 450.5,-741 453.5,-738 456.5,-738 456.5,-738 506.5,-738 506.5,-738 509.5,-738 512.5,-741 512.5,-744 512.5,-744 512.5,-750 512.5,-750 512.5,-753 509.5,-756 506.5,-756"/>
<text text-anchor="start" x="458.5" y="-744.8" font-family="Helvetica,sans-Serif" font-size="9.00">compare.js</text>
</a>
</g>
</g>
<!-- src/graph&#45;utl/consolidate&#45;to&#45;pattern.js -->
<g id="node13" class="node">
<title>src/graph&#45;utl/consolidate&#45;to&#45;pattern.js</title>
<g id="a_node13"><a xlink:href="src/graph-utl/consolidate-to-pattern.js" xlink:title="consolidate&#45;to&#45;pattern.js">
<path fill="#ffffcc" stroke="black" d="M533,-726C533,-726 430,-726 430,-726 427,-726 424,-723 424,-720 424,-720 424,-714 424,-714 424,-711 427,-708 430,-708 430,-708 533,-708 533,-708 536,-708 539,-711 539,-714 539,-714 539,-720 539,-720 539,-723 536,-726 533,-726"/>
<text text-anchor="start" x="432" y="-714.8" font-family="Helvetica,sans-Serif" font-size="9.00">consolidate&#45;to&#45;pattern.js</text>
</a>
</g>
</g>
<!-- src/graph&#45;utl/filterbank.js -->
<g id="node14" class="node">
<title>src/graph&#45;utl/filterbank.js</title>
<g id="a_node14"><a xlink:href="src/graph-utl/filterbank.js" xlink:title="filterbank.js">
<path fill="#ffffcc" stroke="black" d="M507,-696C507,-696 456,-696 456,-696 453,-696 450,-693 450,-690 450,-690 450,-684 450,-684 450,-681 453,-678 456,-678 456,-678 507,-678 507,-678 510,-678 513,-681 513,-684 513,-684 513,-690 513,-690 513,-693 510,-696 507,-696"/>
<text text-anchor="start" x="458" y="-684.8" font-family="Helvetica,sans-Serif" font-size="9.00">filterbank.js</text>
</a>
</g>
</g>
<!-- src/graph&#45;utl/strip&#45;self&#45;transitions.js -->
<g id="node16" class="node">
<title>src/graph&#45;utl/strip&#45;self&#45;transitions.js</title>
<g id="a_node16"><a xlink:href="src/graph-utl/strip-self-transitions.js" xlink:title="strip&#45;self&#45;transitions.js">
<path fill="#ffffcc" stroke="black" d="M528,-786C528,-786 435,-786 435,-786 432,-786 429,-783 429,-780 429,-780 429,-774 429,-774 429,-771 432,-768 435,-768 435,-768 528,-768 528,-768 531,-768 534,-771 534,-774 534,-774 534,-780 534,-780 534,-783 531,-786 528,-786"/>
<text text-anchor="start" x="437" y="-774.8" font-family="Helvetica,sans-Serif" font-size="9.00">strip&#45;self&#45;transitions.js</text>
</a>
</g>
</g>
<!-- src/main/options/defaults.js -->
<g id="node25" class="node">
<title>src/main/options/defaults.js</title>
<g id="a_node25"><a xlink:href="src/main/options/defaults.js" xlink:title="defaults.js">
<path fill="#ffffcc" stroke="black" d="M647,-440C647,-440 601,-440 601,-440 598,-440 595,-437 595,-434 595,-434 595,-428 595,-428 595,-425 598,-422 601,-422 601,-422 647,-422 647,-422 650,-422 653,-425 653,-428 653,-428 653,-434 653,-434 653,-437 650,-440 647,-440"/>
<text text-anchor="start" x="603" y="-428.8" font-family="Helvetica,sans-Serif" font-size="9.00">defaults.js</text>
</a>
</g>
</g>
<!-- src/main/options/normalize.js&#45;&gt;src/main/options/defaults.js -->
<g id="edge19" class="edge">
<title>src/main/options/normalize.js&#45;&gt;src/main/options/defaults.js</title>
<path fill="none" stroke="#000000" stroke-width="2" stroke-opacity="0.200000" d="M514.55,-434C514.55,-434 588.99,-434 588.99,-434"/>
<polygon fill="#000000" fill-opacity="0.200000" stroke="#000000" stroke-width="2" stroke-opacity="0.200000" points="588.99,-436.1 594.99,-434 588.99,-431.9 588.99,-436.1"/>
</g>
<!-- src/main/utl/normalize&#45;re&#45;properties.js -->
<g id="node26" class="node">
<title>src/main/utl/normalize&#45;re&#45;properties.js</title>
<g id="a_node26"><a xlink:href="src/main/utl/normalize-re-properties.js" xlink:title="normalize&#45;re&#45;properties.js">
<path fill="#ffffcc" stroke="black" d="M679,-380C679,-380 569,-380 569,-380 566,-380 563,-377 563,-374 563,-374 563,-368 563,-368 563,-365 566,-362 569,-362 569,-362 679,-362 679,-362 682,-362 685,-365 685,-368 685,-368 685,-374 685,-374 685,-377 682,-380 679,-380"/>
<text text-anchor="start" x="571" y="-368.8" font-family="Helvetica,sans-Serif" font-size="9.00">normalize&#45;re&#45;properties.js</text>
</a>
</g>
</g>
<!-- src/main/options/normalize.js&#45;&gt;src/main/utl/normalize&#45;re&#45;properties.js -->
<g id="edge18" class="edge">
<title>src/main/options/normalize.js&#45;&gt;src/main/utl/normalize&#45;re&#45;properties.js</title>
<path fill="none" stroke="#000000" stroke-width="2" stroke-opacity="0.200000" d="M514.51,-428C542.79,-428 579,-428 579,-428 579,-428 579,-386.16 579,-386.16"/>
<polygon fill="#000000" fill-opacity="0.200000" stroke="#000000" stroke-width="2" stroke-opacity="0.200000" points="581.1,-386.16 579,-380.16 576.9,-386.16 581.1,-386.16"/>
</g>
<!-- src/report/index.js -->
<g id="node27" class="node">
<title>src/report/index.js</title>
<g id="a_node27"><a xlink:href="src/report/index.js" xlink:title="index.js">
<path fill="#ffffcc" stroke="black" d="M645,-731C645,-731 603,-731 603,-731 600,-731 597,-728 597,-725 597,-725 597,-719 597,-719 597,-716 600,-713 603,-713 603,-713 645,-713 645,-713 648,-713 651,-716 651,-719 651,-719 651,-725 651,-725 651,-728 648,-731 645,-731"/>
<text text-anchor="start" x="608" y="-719.8" font-family="Helvetica,sans-Serif" font-size="9.00">index.js</text>
</a>
</g>
</g>
<!-- src/main/options/validate.js&#45;&gt;src/report/index.js -->
<g id="edge20" class="edge">
<title>src/main/options/validate.js&#45;&gt;src/report/index.js</title>
<path fill="none" stroke="#000000" stroke-width="2" stroke-opacity="0.200000" d="M510.71,-461C554.73,-461 633,-461 633,-461 633,-461 633,-706.71 633,-706.71"/>
<polygon fill="#000000" fill-opacity="0.200000" stroke="#000000" stroke-width="2" stroke-opacity="0.200000" points="630.9,-706.71 633,-712.71 635.1,-706.71 630.9,-706.71"/>
</g>
<!-- src/main/report&#45;wrap.js&#45;&gt;src/enrich/summarize/index.js -->
<g id="edge21" class="edge">
<title>src/main/report&#45;wrap.js&#45;&gt;src/enrich/summarize/index.js</title>
<path fill="none" stroke="#000000" stroke-width="2" stroke-opacity="0.200000" d="M387.22,-592.5C400.82,-592.5 413,-592.5 413,-592.5 413,-592.5 413,-187 413,-187 413,-187 448.43,-187 448.43,-187"/>
<polygon fill="#000000" fill-opacity="0.200000" stroke="#000000" stroke-width="2" stroke-opacity="0.200000" points="448.43,-189.1 454.43,-187 448.43,-184.9 448.43,-189.1"/>
</g>
<!-- src/main/report&#45;wrap.js&#45;&gt;src/graph&#45;utl/compare.js -->
<g id="edge22" class="edge">
<title>src/main/report&#45;wrap.js&#45;&gt;src/graph&#45;utl/compare.js</title>
<path fill="none" stroke="#000000" stroke-width="2" stroke-opacity="0.200000" d="M351,-606.38C351,-639.22 351,-747 351,-747 351,-747 444.24,-747 444.24,-747"/>
<polygon fill="#000000" fill-opacity="0.200000" stroke="#000000" stroke-width="2" stroke-opacity="0.200000" points="444.24,-749.1 450.24,-747 444.24,-744.9 444.24,-749.1"/>
</g>
<!-- src/main/report&#45;wrap.js&#45;&gt;src/graph&#45;utl/consolidate&#45;to&#45;pattern.js -->
<g id="edge23" class="edge">
<title>src/main/report&#45;wrap.js&#45;&gt;src/graph&#45;utl/consolidate&#45;to&#45;pattern.js</title>
<path fill="none" stroke="#000000" stroke-width="2" stroke-opacity="0.200000" d="M387.41,-601.5C409.37,-601.5 433,-601.5 433,-601.5 433,-601.5 433,-701.94 433,-701.94"/>
<polygon fill="#000000" fill-opacity="0.200000" stroke="#000000" stroke-width="2" stroke-opacity="0.200000" points="430.9,-701.94 433,-707.94 435.1,-701.94 430.9,-701.94"/>
</g>
<!-- src/main/report&#45;wrap.js&#45;&gt;src/graph&#45;utl/filterbank.js -->
<g id="edge24" class="edge">
<title>src/main/report&#45;wrap.js&#45;&gt;src/graph&#45;utl/filterbank.js</title>
<path fill="none" stroke="#000000" stroke-width="2" stroke-opacity="0.200000" d="M369,-606.29C369,-629.29 369,-687 369,-687 369,-687 443.86,-687 443.86,-687"/>
<polygon fill="#000000" fill-opacity="0.200000" stroke="#000000" stroke-width="2" stroke-opacity="0.200000" points="443.86,-689.1 449.86,-687 443.86,-684.9 443.86,-689.1"/>
</g>
<!-- src/main/report&#45;wrap.js&#45;&gt;src/graph&#45;utl/strip&#45;self&#45;transitions.js -->
<g id="edge25" class="edge">
<title>src/main/report&#45;wrap.js&#45;&gt;src/graph&#45;utl/strip&#45;self&#45;transitions.js</title>
<path fill="none" stroke="#000000" stroke-width="2" stroke-opacity="0.200000" d="M333,-606.17C333,-642.85 333,-777 333,-777 333,-777 422.73,-777 422.73,-777"/>
<polygon fill="#000000" fill-opacity="0.200000" stroke="#000000" stroke-width="2" stroke-opacity="0.200000" points="422.73,-779.1 428.73,-777 422.73,-774.9 422.73,-779.1"/>
</g>
<!-- src/main/report&#45;wrap.js&#45;&gt;src/report/index.js -->
<g id="edge26" class="edge">
<title>src/main/report&#45;wrap.js&#45;&gt;src/report/index.js</title>
<path fill="none" stroke="#000000" stroke-width="2" stroke-opacity="0.200000" d="M387.28,-597C459.95,-597 615,-597 615,-597 615,-597 615,-706.6 615,-706.6"/>
<polygon fill="#000000" fill-opacity="0.200000" stroke="#000000" stroke-width="2" stroke-opacity="0.200000" points="612.9,-706.6 615,-712.6 617.1,-706.6 612.9,-706.6"/>
</g>
<!-- src/main/rule&#45;set/normalize.js&#45;&gt;src/main/utl/normalize&#45;re&#45;properties.js -->
<g id="edge29" class="edge">
<title>src/main/rule&#45;set/normalize.js&#45;&gt;src/main/utl/normalize&#45;re&#45;properties.js</title>
<path fill="none" stroke="#000000" stroke-width="2" stroke-opacity="0.200000" d="M383.76,-371C383.76,-371 557,-371 557,-371"/>
<polygon fill="#000000" fill-opacity="0.200000" stroke="#000000" stroke-width="2" stroke-opacity="0.200000" points="557,-373.1 563,-371 557,-368.9 557,-373.1"/>
</g>
<!-- src/main/rule&#45;set/validate.js&#45;&gt;src/main/options/validate.js -->
<g id="edge31" class="edge">
<title>src/main/rule&#45;set/validate.js&#45;&gt;src/main/options/validate.js</title>
<path fill="none" stroke="#000000" stroke-width="2" stroke-opacity="0.200000" d="M351,-410.16C351,-426.27 351,-458 351,-458 351,-458 446.21,-458 446.21,-458"/>
<polygon fill="#000000" fill-opacity="0.200000" stroke="#000000" stroke-width="2" stroke-opacity="0.200000" points="446.21,-460.1 452.21,-458 446.21,-455.9 446.21,-460.1"/>
</g>
<!-- src/schema/configuration.schema.js -->
<g id="node28" class="node">
<title>src/schema/configuration.schema.js</title>
<g id="a_node28"><a xlink:href="src/schema/configuration.schema.js" xlink:title="configuration.schema.js">
<path fill="#ffffcc" stroke="black" d="M532,-312C532,-312 431,-312 431,-312 428,-312 425,-309 425,-306 425,-306 425,-300 425,-300 425,-297 428,-294 431,-294 431,-294 532,-294 532,-294 535,-294 538,-297 538,-300 538,-300 538,-306 538,-306 538,-309 535,-312 532,-312"/>
<text text-anchor="start" x="433" y="-300.8" font-family="Helvetica,sans-Serif" font-size="9.00">configuration.schema.js</text>
</a>
</g>
</g>
<!-- src/main/rule&#45;set/validate.js&#45;&gt;src/schema/configuration.schema.js -->
<g id="edge30" class="edge">
<title>src/main/rule&#45;set/validate.js&#45;&gt;src/schema/configuration.schema.js</title>
<path fill="none" stroke="#000000" stroke-width="2" stroke-opacity="0.200000" d="M379.63,-401C406.09,-401 441,-401 441,-401 441,-401 441,-318.04 441,-318.04"/>
<polygon fill="#000000" fill-opacity="0.200000" stroke="#000000" stroke-width="2" stroke-opacity="0.200000" points="443.1,-318.04 441,-312.04 438.9,-318.04 443.1,-318.04"/>
</g>
</g>
</svg>
