<svg width="968" height="1264" viewBox="0 0 726 948" xmlns="http://www.w3.org/2000/svg" xmlns:xlink="http://www.w3.org/1999/xlink"><g class="graph"><path fill="#fff" stroke="transparent" d="M0 948V0h726v948H0z"/><g class="cluster"><path fill="#fff" stroke="#000" stroke-width="2" d="M24 936h678c6 0 12-6 12-12V24c0-6-6-12-12-12H24c-6 0-12 6-12 12v900c0 6 6 12 12 12"/><text text-anchor="middle" x="359" y="-920.8" font-family="Helvetica,sans-Serif" font-weight="bold" font-size="9" transform="translate(4 944)">src</text></g><g class="cluster"><path fill="#fff" stroke="#000" stroke-width="2" d="M32 686h84c6 0 12-6 12-12v-88c0-6-6-12-12-12H32c-6 0-12 6-12 12v88c0 6 6 12 12 12"/><text text-anchor="middle" x="70" y="-358.8" font-family="Helvetica,sans-Serif" font-weight="bold" font-size="9" transform="translate(4 944)">cli</text></g><g class="cluster"><path fill="#fff" stroke="#000" stroke-width="2" d="M156 928h114c6 0 12-6 12-12v-62c0-6-6-12-12-12H156c-6 0-12 6-12 12v62c0 6 6 12 12 12"/><text text-anchor="middle" x="209" y="-90.8" font-family="Helvetica,sans-Serif" font-weight="bold" font-size="9" transform="translate(4 944)">config-utl</text></g><g class="cluster"><path fill="#fff" stroke="#000" stroke-width="2" d="M164 920h98c6 0 12-6 12-12v-28c0-6-6-12-12-12h-98c-6 0-12 6-12 12v28c0 6 6 12 12 12"/><text text-anchor="middle" x="209" y="-64.8" font-family="Helvetica,sans-Serif" font-weight="bold" font-size="9" transform="translate(4 944)">extract-depcruise-config</text></g><g class="cluster"><path fill="#fff" stroke="#000" stroke-width="2" d="M455.5 360h62c6 0 12-6 12-12v-88c0-6-6-12-12-12h-62c-6 0-12 6-12 12v88c0 6 6 12 12 12"/><text text-anchor="middle" x="482.5" y="-684.8" font-family="Helvetica,sans-Serif" font-weight="bold" font-size="9" transform="translate(4 944)">enrich</text></g><g class="cluster"><path fill="#fff" stroke="#000" stroke-width="2" d="M463.5 352h46c6 0 12-6 12-12v-28c0-6-6-12-12-12h-46c-6 0-12 6-12 12v28c0 6 6 12 12 12"/><text text-anchor="middle" x="482.5" y="-632.8" font-family="Helvetica,sans-Serif" font-weight="bold" font-size="9" transform="translate(4 944)">summarize</text></g><g class="cluster"><path fill="#fff" stroke="#000" stroke-width="2" d="M455.5 240h62c6 0 12-6 12-12v-88c0-6-6-12-12-12h-62c-6 0-12 6-12 12v88c0 6 6 12 12 12"/><text text-anchor="middle" x="482.5" y="-804.8" font-family="Helvetica,sans-Serif" font-weight="bold" font-size="9" transform="translate(4 944)">extract</text></g><g class="cluster"><path fill="#fff" stroke="#000" stroke-width="2" d="M463.5 232h46c6 0 12-6 12-12v-28c0-6-6-12-12-12h-46c-6 0-12 6-12 12v28c0 6 6 12 12 12"/><text text-anchor="middle" x="482.5" y="-752.8" font-family="Helvetica,sans-Serif" font-weight="bold" font-size="9" transform="translate(4 944)">transpile</text></g><g class="cluster"><path fill="#fff" stroke="#000" stroke-width="2" d="M433 540h107c6 0 12-6 12-12V380c0-6-6-12-12-12H433c-6 0-12 6-12 12v148c0 6 6 12 12 12"/><text text-anchor="middle" x="482.5" y="-564.8" font-family="Helvetica,sans-Serif" font-weight="bold" font-size="9" transform="translate(4 944)">graph-utl</text></g><g class="cluster"><path fill="#fff" stroke="#000" stroke-width="2" d="M190 834h504c6 0 12-6 12-12V560c0-6-6-12-12-12H190c-6 0-12 6-12 12v262c0 6 6 12 12 12"/><text text-anchor="middle" x="438" y="-384.8" font-family="Helvetica,sans-Serif" font-weight="bold" font-size="9" transform="translate(4 944)">main</text></g><g class="cluster"><path fill="#fff" stroke="#000" stroke-width="2" d="M326 626h58c6 0 12-6 12-12v-28c0-6-6-12-12-12h-58c-6 0-12 6-12 12v28c0 6 6 12 12 12"/><text text-anchor="middle" x="351" y="-358.8" font-family="Helvetica,sans-Serif" font-weight="bold" font-size="9" transform="translate(4 944)">files-and-dirs</text></g><g class="cluster"><path fill="#fff" stroke="#000" stroke-width="2" d="M326 686h59c6 0 12-6 12-12v-28c0-6-6-12-12-12h-59c-6 0-12 6-12 12v28c0 6 6 12 12 12"/><text text-anchor="middle" x="351.5" y="-298.8" font-family="Helvetica,sans-Serif" font-weight="bold" font-size="9" transform="translate(4 944)">resolve-options</text></g><g class="cluster"><path fill="#fff" stroke="#000" stroke-width="2" d="M326 802h58c6 0 12-6 12-12v-58c0-6-6-12-12-12h-58c-6 0-12 6-12 12v58c0 6 6 12 12 12"/><text text-anchor="middle" x="351" y="-212.8" font-family="Helvetica,sans-Serif" font-weight="bold" font-size="9" transform="translate(4 944)">rule-set</text></g><g class="cluster"><path fill="#fff" stroke="#000" stroke-width="2" d="M457.5 826H654c6 0 12-6 12-12v-58c0-6-6-12-12-12H457.5c-6 0-12 6-12 12v58c0 6 6 12 12 12"/><text text-anchor="middle" x="551.75" y="-188.8" font-family="Helvetica,sans-Serif" font-weight="bold" font-size="9" transform="translate(4 944)">options</text></g><g class="cluster"><path fill="#fff" stroke="#000" stroke-width="2" d="M572 736h114c6 0 12-6 12-12v-28c0-6-6-12-12-12H572c-6 0-12 6-12 12v28c0 6 6 12 12 12"/><text text-anchor="middle" x="625" y="-248.8" font-family="Helvetica,sans-Serif" font-weight="bold" font-size="9" transform="translate(4 944)">utl</text></g><g class="cluster"><path fill="#fff" stroke="#000" stroke-width="2" d="M606 540h46c6 0 12-6 12-12v-28c0-6-6-12-12-12h-46c-6 0-12 6-12 12v28c0 6 6 12 12 12"/><text text-anchor="middle" x="625" y="-444.8" font-family="Helvetica,sans-Serif" font-weight="bold" font-size="9" transform="translate(4 944)">report</text></g><g class="cluster"><path fill="#fff" stroke="#000" stroke-width="2" d="M434 120h105c6 0 12-6 12-12V50c0-6-6-12-12-12H434c-6 0-12 6-12 12v58c0 6 6 12 12 12"/><text text-anchor="middle" x="482.5" y="-894.8" font-family="Helvetica,sans-Serif" font-weight="bold" font-size="9" transform="translate(4 944)">schema</text></g><g class="cluster"><path fill="#fff" stroke="#000" stroke-width="2" d="M332 540h46c6 0 12-6 12-12v-28c0-6-6-12-12-12h-46c-6 0-12 6-12 12v28c0 6 6 12 12 12"/><text text-anchor="middle" x="351" y="-444.8" font-family="Helvetica,sans-Serif" font-weight="bold" font-size="9" transform="translate(4 944)">utl</text></g><a xlink:href="src/cli/format-meta-info.js" xlink:title="format-meta-info.js" class="node" transform="translate(4 944)"><path fill="#ffc" stroke="#000" d="M110-344H30c-3 0-6 3-6 6v6c0 3 3 6 6 6h80c3 0 6-3 6-6v-6c0-3-3-6-6-6"/><text x="32" y="-332.8" font-family="Helvetica,sans-Serif" font-size="9">format-meta-info.js</text></a><a xlink:href="src/main/index.js" xlink:title="index.js" class="node" transform="translate(4 944)"><path fill="#ffc" stroke="#000" d="M230-314h-42c-3 0-6 3-6 6v6c0 3 3 6 6 6h42c3 0 6-3 6-6v-6c0-3-3-6-6-6"/><text x="193" y="-302.8" font-family="Helvetica,sans-Serif" font-size="9">index.js</text></a><g class="edge" stroke="#000" stroke-width="2" stroke-opacity=".2"><path fill="none" d="M111 618.14V636h68.93"/><path fill-opacity=".2" d="m179.93 633.9 6 2.1-6 2.1v-4.2z"/></g><a xlink:href="src/main/resolve-options/normalize.js" xlink:title="normalize.js" class="node" transform="translate(4 944)"><path fill="#ffc" stroke="#000" d="M378-284h-54c-3 0-6 3-6 6v6c0 3 3 6 6 6h54c3 0 6-3 6-6v-6c0-3-3-6-6-6"/><text x="326" y="-272.8" font-family="Helvetica,sans-Serif" font-size="9">normalize.js</text></a><g class="edge" stroke="#000" stroke-width="2" stroke-opacity=".2"><path fill="none" d="M234 648.16V669h81.94"/><path fill-opacity=".2" d="m315.94 666.9 6 2.1-6 2.1v-4.2z"/></g><a xlink:href="src/enrich/index.js" xlink:title="index.js" class="node" transform="translate(4 944)"><path fill="#ffc" stroke="#000" d="M503.5-670h-42c-3 0-6 3-6 6v6c0 3 3 6 6 6h42c3 0 6-3 6-6v-6c0-3-3-6-6-6"/><text x="466.5" y="-658.8" font-family="Helvetica,sans-Serif" font-size="9">index.js</text></a><g class="edge" stroke="#000" stroke-width="2" stroke-opacity=".2"><path fill="none" d="M217 629.84V283h236.43"/><path fill-opacity=".2" d="m453.43 280.9 6 2.1-6 2.1v-4.2z"/></g><a xlink:href="src/extract/index.js" xlink:title="index.js" class="node" transform="translate(4 944)"><path fill="#ffc" stroke="#000" d="M503.5-790h-42c-3 0-6 3-6 6v6c0 3 3 6 6 6h42c3 0 6-3 6-6v-6c0-3-3-6-6-6"/><text x="466.5" y="-778.8" font-family="Helvetica,sans-Serif" font-size="9">index.js</text></a><g class="edge" stroke="#000" stroke-width="2" stroke-opacity=".2"><path fill="none" d="M202 629.92V163h251.48"/><path fill-opacity=".2" d="m453.48 160.9 6 2.1-6 2.1v-4.2z"/></g><a xlink:href="src/extract/transpile/meta.js" xlink:title="meta.js" class="node" transform="translate(4 944)"><path fill="#ffc" stroke="#000" d="M503.5-738h-42c-3 0-6 3-6 6v6c0 3 3 6 6 6h42c3 0 6-3 6-6v-6c0-3-3-6-6-6"/><text x="467.5" y="-726.8" font-family="Helvetica,sans-Serif" font-size="9">meta.js</text></a><g class="edge" stroke="#000" stroke-width="2" stroke-opacity=".2"><path fill="none" d="M210 629.68V212h243.48"/><path fill-opacity=".2" d="m453.48 209.9 6 2.1-6 2.1v-4.2z"/></g><a xlink:href="src/main/files-and-dirs/normalize.js" xlink:title="normalize.js" class="node" transform="translate(4 944)"><path fill="#ffc" stroke="#000" d="M378-344h-54c-3 0-6 3-6 6v6c0 3 3 6 6 6h54c3 0 6-3 6-6v-6c0-3-3-6-6-6"/><text x="326" y="-332.8" font-family="Helvetica,sans-Serif" font-size="9">normalize.js</text></a><g class="edge" stroke="#000" stroke-width="2" stroke-opacity=".2"><path fill="none" d="M233 629.84V609h82.99"/><path fill-opacity=".2" d="m315.99 606.9 6 2.1-6 2.1v-4.2z"/></g><a xlink:href="src/schema/cruise-result.schema.js" xlink:title="cruise-result.schema.js" class="node" transform="translate(4 944)"><path fill="#ffc" stroke="#000" d="M531.5-880h-98c-3 0-6 3-6 6v6c0 3 3 6 6 6h98c3 0 6-3 6-6v-6c0-3-3-6-6-6"/><text x="435.5" y="-868.8" font-family="Helvetica,sans-Serif" font-size="9">cruise-result.schema.js</text></a><g class="edge" stroke="#000" stroke-width="2" stroke-opacity=".2"><path fill="none" d="M194 629.65V73h231.48"/><path fill-opacity=".2" d="m425.48 70.9 6 2.1-6 2.1v-4.2z"/></g><a xlink:href="src/utl/bus.js" xlink:title="bus.js" class="node" transform="translate(4 944)"><path fill="#ffc" stroke="#000" d="M372-430h-42c-3 0-6 3-6 6v6c0 3 3 6 6 6h42c3 0 6-3 6-6v-6c0-3-3-6-6-6"/><text x="338.5" y="-418.8" font-family="Helvetica,sans-Serif" font-size="9">bus.js</text></a><g class="edge" stroke="#000" stroke-width="2" stroke-opacity=".2"><path fill="none" d="M225 629.9V523h96.75"/><path fill-opacity=".2" d="m321.75 520.9 6 2.1-6 2.1v-4.2z"/></g><a xlink:href="src/main/options/normalize.js" xlink:title="normalize.js" class="node" transform="translate(4 944)"><path fill="#ffc" stroke="#000" d="M509.5-144h-54c-3 0-6 3-6 6v6c0 3 3 6 6 6h54c3 0 6-3 6-6v-6c0-3-3-6-6-6"/><text x="457.5" y="-132.8" font-family="Helvetica,sans-Serif" font-size="9">normalize.js</text></a><g class="edge" stroke="#000" stroke-width="2" stroke-opacity=".2"><path fill="none" d="M200 648.14V809h247.35"/><path fill-opacity=".2" d="m447.35 806.9 6 2.1-6 2.1v-4.2z"/></g><a xlink:href="src/main/options/validate.js" xlink:title="validate.js" class="node" transform="translate(4 944)"><path fill="#ffc" stroke="#000" d="M505.5-174h-46c-3 0-6 3-6 6v6c0 3 3 6 6 6h46c3 0 6-3 6-6v-6c0-3-3-6-6-6"/><text x="461.5" y="-162.8" font-family="Helvetica,sans-Serif" font-size="9">validate.js</text></a><g class="edge" stroke="#000" stroke-width="2" stroke-opacity=".2"><path fill="none" d="M240.27 639H487v124.81"/><path fill-opacity=".2" d="m489.1 763.81-2.1 6-2.1-6h4.2z"/></g><a xlink:href="src/main/report-wrap.js" xlink:title="report-wrap.js" class="node" transform="translate(4 944)"><path fill="#ffc" stroke="#000" d="M381.5-250h-61c-3 0-6 3-6 6v6c0 3 3 6 6 6h61c3 0 6-3 6-6v-6c0-3-3-6-6-6"/><text x="322.5" y="-238.8" font-family="Helvetica,sans-Serif" font-size="9">report-wrap.js</text></a><g class="edge" stroke="#000" stroke-width="2" stroke-opacity=".2"><path fill="none" d="M227 648.17V703h85.32"/><path fill-opacity=".2" d="m312.32 700.9 6 2.1-6 2.1v-4.2z"/></g><a xlink:href="src/main/rule-set/normalize.js" xlink:title="normalize.js" class="node" transform="translate(4 944)"><path fill="#ffc" stroke="#000" d="M378-198h-54c-3 0-6 3-6 6v6c0 3 3 6 6 6h54c3 0 6-3 6-6v-6c0-3-3-6-6-6"/><text x="326" y="-186.8" font-family="Helvetica,sans-Serif" font-size="9">normalize.js</text></a><g class="edge" stroke="#000" stroke-width="2" stroke-opacity=".2"><path fill="none" d="M220 648.1V755h95.98"/><path fill-opacity=".2" d="m315.98 752.9 6 2.1-6 2.1v-4.2z"/></g><a xlink:href="src/main/rule-set/validate.js" xlink:title="validate.js" class="node" transform="translate(4 944)"><path fill="#ffc" stroke="#000" d="M374-168h-46c-3 0-6 3-6 6v6c0 3 3 6 6 6h46c3 0 6-3 6-6v-6c0-3-3-6-6-6"/><text x="330" y="-156.8" font-family="Helvetica,sans-Serif" font-size="9">validate.js</text></a><g class="edge" stroke="#000" stroke-width="2" stroke-opacity=".2"><path fill="none" d="M213 648.13V785h106.92"/><path fill-opacity=".2" d="m319.92 782.9 6 2.1-6 2.1v-4.2z"/></g><a xlink:href="src/cli/format.js" xlink:title="format.js" class="node" transform="translate(4 944)"><path fill="#ffc" stroke="#000" d="M91-314H49c-3 0-6 3-6 6v6c0 3 3 6 6 6h42c3 0 6-3 6-6v-6c0-3-3-6-6-6"/><text x="52.5" y="-302.8" font-family="Helvetica,sans-Serif" font-size="9">format.js</text></a><g class="edge" stroke="#000" stroke-width="2" stroke-opacity=".2"><path fill="none" d="M101.13 642h78.81"/><path fill-opacity=".2" d="m179.94 639.9 6 2.1-6 2.1v-4.2z"/></g><a xlink:href="src/cli/index.js" xlink:title="index.js" class="node" transform="translate(4 944)"><path fill="#ffc" stroke="#000" d="M91-284H49c-3 0-6 3-6 6v6c0 3 3 6 6 6h42c3 0 6-3 6-6v-6c0-3-3-6-6-6"/><text x="54" y="-272.8" font-family="Helvetica,sans-Serif" font-size="9">index.js</text></a><g class="edge" stroke="#000" stroke-width="2" stroke-opacity=".2"><path fill="none" d="M101 664.5h92v-10.29"/><path fill-opacity=".2" d="m190.9 654.21 2.1-6 2.1 6h-4.2z"/></g><a xlink:href="src/config-utl/extract-depcruise-config/index.js" xlink:title="index.js" class="node" transform="translate(4 944)"><path fill="#ffc" stroke="#000" d="M230-50h-42c-3 0-6 3-6 6v6c0 3 3 6 6 6h42c3 0 6-3 6-6v-6c0-3-3-6-6-6"/><text x="193" y="-38.8" font-family="Helvetica,sans-Serif" font-size="9">index.js</text></a><g class="edge" stroke="#000" stroke-width="2" stroke-opacity=".2"><path fill="none" d="M207 893.72V673.5h108.79"/><path fill-opacity=".2" d="m315.79 671.4 6 2.1-6 2.1v-4.2z"/></g><g class="edge" stroke="#000" stroke-width="2" stroke-opacity=".2"><path fill="none" d="M388.43 666H401V218h52.45"/><path fill-opacity=".2" d="m453.45 215.9 6 2.1-6 2.1v-4.2z"/></g><a xlink:href="src/graph-utl/rule-set.js" xlink:title="rule-set.js" class="node" transform="translate(4 944)"><path fill="#ffc" stroke="#000" d="M504.5-550h-44c-3 0-6 3-6 6v6c0 3 3 6 6 6h44c3 0 6-3 6-6v-6c0-3-3-6-6-6"/><text x="462.5" y="-538.8" font-family="Helvetica,sans-Serif" font-size="9">rule-set.js</text></a><g class="edge" stroke="#000" stroke-width="2" stroke-opacity=".2"><path fill="none" d="M388.22 672H411V403h41.39"/><path fill-opacity=".2" d="m452.39 400.9 6 2.1-6 2.1v-4.2z"/></g><a xlink:href="src/enrich/summarize/index.js" xlink:title="index.js" class="node" transform="translate(4 944)"><path fill="#ffc" stroke="#000" d="M503.5-618h-42c-3 0-6 3-6 6v6c0 3 3 6 6 6h42c3 0 6-3 6-6v-6c0-3-3-6-6-6"/><text x="466.5" y="-606.8" font-family="Helvetica,sans-Serif" font-size="9">index.js</text></a><a xlink:href="src/graph-utl/compare.js" xlink:title="compare.js" class="node" transform="translate(4 944)"><path fill="#ffc" stroke="#000" d="M507.5-520h-50c-3 0-6 3-6 6v6c0 3 3 6 6 6h50c3 0 6-3 6-6v-6c0-3-3-6-6-6"/><text x="459.5" y="-508.8" font-family="Helvetica,sans-Serif" font-size="9">compare.js</text></a><a xlink:href="src/graph-utl/consolidate-to-pattern.js" xlink:title="consolidate-to-pattern.js" class="node" transform="translate(4 944)"><path fill="#ffc" stroke="#000" d="M534-490H431c-3 0-6 3-6 6v6c0 3 3 6 6 6h103c3 0 6-3 6-6v-6c0-3-3-6-6-6"/><text x="433" y="-478.8" font-family="Helvetica,sans-Serif" font-size="9">consolidate-to-pattern.js</text></a><a xlink:href="src/graph-utl/filterbank.js" xlink:title="filterbank.js" class="node" transform="translate(4 944)"><path fill="#ffc" stroke="#000" d="M508-460h-51c-3 0-6 3-6 6v6c0 3 3 6 6 6h51c3 0 6-3 6-6v-6c0-3-3-6-6-6"/><text x="459" y="-448.8" font-family="Helvetica,sans-Serif" font-size="9">filterbank.js</text></a><a xlink:href="src/graph-utl/strip-self-transitions.js" xlink:title="strip-self-transitions.js" class="node" transform="translate(4 944)"><path fill="#ffc" stroke="#000" d="M529-430h-93c-3 0-6 3-6 6v6c0 3 3 6 6 6h93c3 0 6-3 6-6v-6c0-3-3-6-6-6"/><text x="438" y="-418.8" font-family="Helvetica,sans-Serif" font-size="9">strip-self-transitions.js</text></a><a xlink:href="src/main/options/defaults.js" xlink:title="defaults.js" class="node" transform="translate(4 944)"><path fill="#ffc" stroke="#000" d="M648-144h-46c-3 0-6 3-6 6v6c0 3 3 6 6 6h46c3 0 6-3 6-6v-6c0-3-3-6-6-6"/><text x="604" y="-132.8" font-family="Helvetica,sans-Serif" font-size="9">defaults.js</text></a><g class="edge" stroke="#000" stroke-width="2" stroke-opacity=".2"><path fill="none" d="M519.55 812h74.44"/><path fill-opacity=".2" d="m593.99 809.9 6 2.1-6 2.1v-4.2z"/></g><a xlink:href="src/main/utl/normalize-re-properties.js" xlink:title="normalize-re-properties.js" class="node" transform="translate(4 944)"><path fill="#ffc" stroke="#000" d="M680-234H570c-3 0-6 3-6 6v6c0 3 3 6 6 6h110c3 0 6-3 6-6v-6c0-3-3-6-6-6"/><text x="572" y="-222.8" font-family="Helvetica,sans-Serif" font-size="9">normalize-re-properties.js</text></a><g class="edge" stroke="#000" stroke-width="2" stroke-opacity=".2"><path fill="none" d="M519.53 806H590v-71.69"/><path fill-opacity=".2" d="m587.9 734.31 2.1-6 2.1 6h-4.2z"/></g><a xlink:href="src/report/index.js" xlink:title="index.js" class="node" transform="translate(4 944)"><path fill="#ffc" stroke="#000" d="M646-430h-42c-3 0-6 3-6 6v6c0 3 3 6 6 6h42c3 0 6-3 6-6v-6c0-3-3-6-6-6"/><text x="609" y="-418.8" font-family="Helvetica,sans-Serif" font-size="9">index.js</text></a><g class="edge" stroke="#000" stroke-width="2" stroke-opacity=".2"><path fill="none" d="M515.57 779H556V523h39.82"/><path fill-opacity=".2" d="m595.82 520.9 6 2.1-6 2.1v-4.2z"/></g><g class="edge" stroke="#000" stroke-width="2" stroke-opacity=".2"><path fill="none" d="M391.52 700.86H406V335h47.25"/><path fill-opacity=".2" d="m453.25 332.9 6 2.1-6 2.1v-4.2z"/></g><g class="edge" stroke="#000" stroke-width="2" stroke-opacity=".2"><path fill="none" d="M391.63 703.14H415V433h34.35"/><path fill-opacity=".2" d="m449.35 430.9 6 2.1-6 2.1v-4.2z"/></g><g class="edge" stroke="#000" stroke-width="2" stroke-opacity=".2"><path fill="none" d="M391.68 705.43H420V463h2.97"/><path fill-opacity=".2" d="m422.97 460.9 6 2.1-6 2.1v-4.2z"/></g><g class="edge" stroke="#000" stroke-width="2" stroke-opacity=".2"><path fill="none" d="M391.64 707.71H425V493h23.67"/><path fill-opacity=".2" d="m448.67 490.9 6 2.1-6 2.1v-4.2z"/></g><g class="edge" stroke="#000" stroke-width="2" stroke-opacity=".2"><path fill="none" d="M391.71 696.29H444V538.32"/><path fill-opacity=".2" d="m441.9 538.32 2.1-6 2.1 6h-4.2z"/></g><g class="edge" stroke="#000" stroke-width="2" stroke-opacity=".2"><path fill="none" d="M391.67 698.57H629V538.44"/><path fill-opacity=".2" d="m626.9 538.44 2.1-6 2.1 6h-4.2z"/></g><g class="edge" stroke="#000" stroke-width="2" stroke-opacity=".2"><path fill="none" d="M388.05 755H579v-20.92"/><path fill-opacity=".2" d="m576.9 734.08 2.1-6 2.1 6h-4.2z"/></g><g class="edge" stroke="#000" stroke-width="2" stroke-opacity=".2"><path fill="none" d="M384.18 784h67.22"/><path fill-opacity=".2" d="m451.4 781.9 6 2.1-6 2.1v-4.2z"/></g><a xlink:href="src/schema/configuration.schema.js" xlink:title="configuration.schema.js" class="node" transform="translate(4 944)"><path fill="#ffc" stroke="#000" d="M533-850H432c-3 0-6 3-6 6v6c0 3 3 6 6 6h101c3 0 6-3 6-6v-6c0-3-3-6-6-6"/><text x="434" y="-838.8" font-family="Helvetica,sans-Serif" font-size="9">configuration.schema.js</text></a><g class="edge" stroke="#000" stroke-width="2" stroke-opacity=".2"><path fill="none" d="M384.17 780H397V103h26.82"/><path fill-opacity=".2" d="m423.82 100.9 6 2.1-6 2.1v-4.2z"/></g></g></svg>