<?xml version="1.0" encoding="UTF-8" standalone="no"?>
<!DOCTYPE svg PUBLIC "-//W3C//DTD SVG 1.1//EN"
 "http://www.w3.org/Graphics/SVG/1.1/DTD/svg11.dtd">
<!-- Generated by graphviz version 10.0.1 (20240210.2158)
 -->
<!-- Title: dependency&#45;cruiser output Pages: 1 -->
<svg width="960pt" height="720pt"
 viewBox="0.00 0.00 959.62 720.00" xmlns="http://www.w3.org/2000/svg" xmlns:xlink="http://www.w3.org/1999/xlink">
<g id="graph0" class="graph" transform="scale(1 1) rotate(0) translate(4 716)">
<title>dependency&#45;cruiser output</title>
<polygon fill="white" stroke="none" points="-4,4 -4,-716 955.62,-716 955.62,4 -4,4"/>
<g id="clust1" class="cluster">
<title>cluster_src</title>
<path fill="#ffffff" stroke="black" stroke-width="2" d="M20,-8C20,-8 931.62,-8 931.62,-8 937.62,-8 943.62,-14 943.62,-20 943.62,-20 943.62,-692 943.62,-692 943.62,-698 937.62,-704 931.62,-704 931.62,-704 20,-704 20,-704 14,-704 8,-698 8,-692 8,-692 8,-20 8,-20 8,-14 14,-8 20,-8"/>
<text text-anchor="middle" x="475.81" y="-691.45" font-family="Helvetica,sans-Serif" font-weight="bold" font-size="9.00">src</text>
</g>
<g id="clust2" class="cluster">
<title>cluster_src/cache</title>
<path fill="#ffffff" stroke="black" stroke-width="2" d="M470,-36C470,-36 519.25,-36 519.25,-36 525.25,-36 531.25,-42 531.25,-48 531.25,-48 531.25,-76 531.25,-76 531.25,-82 525.25,-88 519.25,-88 519.25,-88 470,-88 470,-88 464,-88 458,-82 458,-76 458,-76 458,-48 458,-48 458,-42 464,-36 470,-36"/>
<text text-anchor="middle" x="494.62" y="-75.45" font-family="Helvetica,sans-Serif" font-weight="bold" font-size="9.00">cache</text>
</g>
<g id="clust3" class="cluster">
<title>cluster_src/cli</title>
<path fill="#ffffff" stroke="black" stroke-width="2" d="M28,-276C28,-276 190.25,-276 190.25,-276 196.25,-276 202.25,-282 202.25,-288 202.25,-288 202.25,-346 202.25,-346 202.25,-352 196.25,-358 190.25,-358 190.25,-358 28,-358 28,-358 22,-358 16,-352 16,-346 16,-346 16,-288 16,-288 16,-282 22,-276 28,-276"/>
<text text-anchor="middle" x="109.12" y="-345.45" font-family="Helvetica,sans-Serif" font-weight="bold" font-size="9.00">cli</text>
</g>
<g id="clust4" class="cluster">
<title>cluster_src/config&#45;utl</title>
<path fill="#ffffff" stroke="black" stroke-width="2" d="M301.25,-502C301.25,-502 414.25,-502 414.25,-502 420.25,-502 426.25,-508 426.25,-514 426.25,-514 426.25,-576 426.25,-576 426.25,-582 420.25,-588 414.25,-588 414.25,-588 301.25,-588 301.25,-588 295.25,-588 289.25,-582 289.25,-576 289.25,-576 289.25,-514 289.25,-514 289.25,-508 295.25,-502 301.25,-502"/>
<text text-anchor="middle" x="357.75" y="-575.45" font-family="Helvetica,sans-Serif" font-weight="bold" font-size="9.00">config&#45;utl</text>
</g>
<g id="clust5" class="cluster">
<title>cluster_src/config&#45;utl/extract&#45;depcruise&#45;config</title>
<path fill="#ffffff" stroke="black" stroke-width="2" d="M309.25,-510C309.25,-510 406.25,-510 406.25,-510 412.25,-510 418.25,-516 418.25,-522 418.25,-522 418.25,-550 418.25,-550 418.25,-556 412.25,-562 406.25,-562 406.25,-562 309.25,-562 309.25,-562 303.25,-562 297.25,-556 297.25,-550 297.25,-550 297.25,-522 297.25,-522 297.25,-516 303.25,-510 309.25,-510"/>
<text text-anchor="middle" x="357.75" y="-549.45" font-family="Helvetica,sans-Serif" font-weight="bold" font-size="9.00">extract&#45;depcruise&#45;config</text>
</g>
<g id="clust6" class="cluster">
<title>cluster_src/enrich</title>
<path fill="#ffffff" stroke="black" stroke-width="2" d="M599.62,-592C599.62,-592 773,-592 773,-592 779,-592 785,-598 785,-604 785,-604 785,-666 785,-666 785,-672 779,-678 773,-678 773,-678 599.62,-678 599.62,-678 593.62,-678 587.62,-672 587.62,-666 587.62,-666 587.62,-604 587.62,-604 587.62,-598 593.62,-592 599.62,-592"/>
<text text-anchor="middle" x="686.31" y="-665.45" font-family="Helvetica,sans-Serif" font-weight="bold" font-size="9.00">enrich</text>
</g>
<g id="clust7" class="cluster">
<title>cluster_src/enrich/summarize</title>
<path fill="#ffffff" stroke="black" stroke-width="2" d="M718,-600C718,-600 765,-600 765,-600 771,-600 777,-606 777,-612 777,-612 777,-640 777,-640 777,-646 771,-652 765,-652 765,-652 718,-652 718,-652 712,-652 706,-646 706,-640 706,-640 706,-612 706,-612 706,-606 712,-600 718,-600"/>
<text text-anchor="middle" x="741.5" y="-639.45" font-family="Helvetica,sans-Serif" font-weight="bold" font-size="9.00">summarize</text>
</g>
<g id="clust8" class="cluster">
<title>cluster_src/extract</title>
<path fill="#ffffff" stroke="black" stroke-width="2" d="M592.12,-70C592.12,-70 654.12,-70 654.12,-70 660.12,-70 666.12,-76 666.12,-82 666.12,-82 666.12,-170 666.12,-170 666.12,-176 660.12,-182 654.12,-182 654.12,-182 592.12,-182 592.12,-182 586.12,-182 580.12,-176 580.12,-170 580.12,-170 580.12,-82 580.12,-82 580.12,-76 586.12,-70 592.12,-70"/>
<text text-anchor="middle" x="623.12" y="-169.45" font-family="Helvetica,sans-Serif" font-weight="bold" font-size="9.00">extract</text>
</g>
<g id="clust9" class="cluster">
<title>cluster_src/extract/transpile</title>
<path fill="#ffffff" stroke="black" stroke-width="2" d="M600.12,-78C600.12,-78 646.12,-78 646.12,-78 652.12,-78 658.12,-84 658.12,-90 658.12,-90 658.12,-118 658.12,-118 658.12,-124 652.12,-130 646.12,-130 646.12,-130 600.12,-130 600.12,-130 594.12,-130 588.12,-124 588.12,-118 588.12,-118 588.12,-90 588.12,-90 588.12,-84 594.12,-78 600.12,-78"/>
<text text-anchor="middle" x="623.12" y="-117.45" font-family="Helvetica,sans-Serif" font-weight="bold" font-size="9.00">transpile</text>
</g>
<g id="clust10" class="cluster">
<title>cluster_src/graph&#45;utl</title>
<path fill="#ffffff" stroke="black" stroke-width="2" d="M809.88,-238C809.88,-238 923.62,-238 923.62,-238 929.62,-238 935.62,-244 935.62,-250 935.62,-250 935.62,-398 935.62,-398 935.62,-404 929.62,-410 923.62,-410 923.62,-410 809.88,-410 809.88,-410 803.88,-410 797.88,-404 797.88,-398 797.88,-398 797.88,-250 797.88,-250 797.88,-244 803.88,-238 809.88,-238"/>
<text text-anchor="middle" x="866.75" y="-397.45" font-family="Helvetica,sans-Serif" font-weight="bold" font-size="9.00">graph&#45;utl</text>
</g>
<g id="clust11" class="cluster">
<title>cluster_src/main</title>
<path fill="#ffffff" stroke="black" stroke-width="2" d="M222.25,-190C222.25,-190 777.88,-190 777.88,-190 783.88,-190 789.88,-196 789.88,-202 789.88,-202 789.88,-482 789.88,-482 789.88,-488 783.88,-494 777.88,-494 777.88,-494 222.25,-494 222.25,-494 216.25,-494 210.25,-488 210.25,-482 210.25,-482 210.25,-202 210.25,-202 210.25,-196 216.25,-190 222.25,-190"/>
<text text-anchor="middle" x="500.06" y="-481.45" font-family="Helvetica,sans-Serif" font-weight="bold" font-size="9.00">main</text>
</g>
<g id="clust12" class="cluster">
<title>cluster_src/main/files&#45;and&#45;dirs</title>
<path fill="#ffffff" stroke="black" stroke-width="2" d="M462.12,-198C462.12,-198 527.12,-198 527.12,-198 533.12,-198 539.12,-204 539.12,-210 539.12,-210 539.12,-238 539.12,-238 539.12,-244 533.12,-250 527.12,-250 527.12,-250 462.12,-250 462.12,-250 456.12,-250 450.12,-244 450.12,-238 450.12,-238 450.12,-210 450.12,-210 450.12,-204 456.12,-198 462.12,-198"/>
<text text-anchor="middle" x="494.62" y="-237.45" font-family="Helvetica,sans-Serif" font-weight="bold" font-size="9.00">files&#45;and&#45;dirs</text>
</g>
<g id="clust13" class="cluster">
<title>cluster_src/main/options</title>
<path fill="#ffffff" stroke="black" stroke-width="2" d="M582.75,-282C582.75,-282 769.88,-282 769.88,-282 775.88,-282 781.88,-288 781.88,-294 781.88,-294 781.88,-352 781.88,-352 781.88,-358 775.88,-364 769.88,-364 769.88,-364 582.75,-364 582.75,-364 576.75,-364 570.75,-358 570.75,-352 570.75,-352 570.75,-294 570.75,-294 570.75,-288 576.75,-282 582.75,-282"/>
<text text-anchor="middle" x="676.31" y="-351.45" font-family="Helvetica,sans-Serif" font-weight="bold" font-size="9.00">options</text>
</g>
<g id="clust14" class="cluster">
<title>cluster_src/main/resolve&#45;options</title>
<path fill="#ffffff" stroke="black" stroke-width="2" d="M462.12,-258C462.12,-258 527.12,-258 527.12,-258 533.12,-258 539.12,-264 539.12,-270 539.12,-270 539.12,-298 539.12,-298 539.12,-304 533.12,-310 527.12,-310 527.12,-310 462.12,-310 462.12,-310 456.12,-310 450.12,-304 450.12,-298 450.12,-298 450.12,-270 450.12,-270 450.12,-264 456.12,-258 462.12,-258"/>
<text text-anchor="middle" x="494.62" y="-297.45" font-family="Helvetica,sans-Serif" font-weight="bold" font-size="9.00">resolve&#45;options</text>
</g>
<g id="clust15" class="cluster">
<title>cluster_src/main/rule&#45;set</title>
<path fill="#ffffff" stroke="black" stroke-width="2" d="M454.25,-386C454.25,-386 535,-386 535,-386 541,-386 547,-392 547,-398 547,-398 547,-456 547,-456 547,-462 541,-468 535,-468 535,-468 454.25,-468 454.25,-468 448.25,-468 442.25,-462 442.25,-456 442.25,-456 442.25,-398 442.25,-398 442.25,-392 448.25,-386 454.25,-386"/>
<text text-anchor="middle" x="494.62" y="-455.45" font-family="Helvetica,sans-Serif" font-weight="bold" font-size="9.00">rule&#45;set</text>
</g>
<g id="clust16" class="cluster">
<title>cluster_src/report</title>
<path fill="#ffffff" stroke="black" stroke-width="2" d="M718,-130C718,-130 765,-130 765,-130 771,-130 777,-136 777,-142 777,-142 777,-170 777,-170 777,-176 771,-182 765,-182 765,-182 718,-182 718,-182 712,-182 706,-176 706,-170 706,-170 706,-142 706,-142 706,-136 712,-130 718,-130"/>
<text text-anchor="middle" x="741.5" y="-169.45" font-family="Helvetica,sans-Serif" font-weight="bold" font-size="9.00">report</text>
</g>
<g id="clust17" class="cluster">
<title>cluster_src/schema</title>
<path fill="#ffffff" stroke="black" stroke-width="2" d="M567,-502C567,-502 679.25,-502 679.25,-502 685.25,-502 691.25,-508 691.25,-514 691.25,-514 691.25,-572 691.25,-572 691.25,-578 685.25,-584 679.25,-584 679.25,-584 567,-584 567,-584 561,-584 555,-578 555,-572 555,-572 555,-514 555,-514 555,-508 561,-502 567,-502"/>
<text text-anchor="middle" x="623.12" y="-571.45" font-family="Helvetica,sans-Serif" font-weight="bold" font-size="9.00">schema</text>
</g>
<g id="clust18" class="cluster">
<title>cluster_src/utl</title>
<path fill="#ffffff" stroke="black" stroke-width="2" d="M711.25,-16C711.25,-16 771.75,-16 771.75,-16 777.75,-16 783.75,-22 783.75,-28 783.75,-28 783.75,-86 783.75,-86 783.75,-92 777.75,-98 771.75,-98 771.75,-98 711.25,-98 711.25,-98 705.25,-98 699.25,-92 699.25,-86 699.25,-86 699.25,-28 699.25,-28 699.25,-22 705.25,-16 711.25,-16"/>
<text text-anchor="middle" x="741.5" y="-85.45" font-family="Helvetica,sans-Serif" font-weight="bold" font-size="9.00">utl</text>
</g>
<!-- src/cache/cache.mjs -->
<g id="node1" class="node">
<title>src/cache/cache.mjs</title>
<g id="a_node1"><a xlink:href="src/cache/cache.mjs" xlink:title="cache.mjs">
<path fill="#ffffcc" stroke="black" d="M517.33,-61.88C517.33,-61.88 471.92,-61.88 471.92,-61.88 468.96,-61.88 466,-58.92 466,-55.96 466,-55.96 466,-50.04 466,-50.04 466,-47.08 468.96,-44.12 471.92,-44.12 471.92,-44.12 517.33,-44.12 517.33,-44.12 520.29,-44.12 523.25,-47.08 523.25,-50.04 523.25,-50.04 523.25,-55.96 523.25,-55.96 523.25,-58.92 520.29,-61.88 517.33,-61.88"/>
<text text-anchor="start" x="474" y="-49.33" font-family="Helvetica,sans-Serif" font-size="9.00">cache.mjs</text>
</a>
</g>
</g>
<!-- src/extract/transpile/meta.mjs -->
<g id="node2" class="node">
<title>src/extract/transpile/meta.mjs</title>
<g id="a_node2"><a xlink:href="src/extract/transpile/meta.mjs" xlink:title="meta.mjs">
<path fill="#ffffcc" stroke="black" d="M644.21,-103.88C644.21,-103.88 602.04,-103.88 602.04,-103.88 599.08,-103.88 596.12,-100.92 596.12,-97.96 596.12,-97.96 596.12,-92.04 596.12,-92.04 596.12,-89.08 599.08,-86.12 602.04,-86.12 602.04,-86.12 644.21,-86.12 644.21,-86.12 647.17,-86.12 650.12,-89.08 650.12,-92.04 650.12,-92.04 650.12,-97.96 650.12,-97.96 650.12,-100.92 647.17,-103.88 644.21,-103.88"/>
<text text-anchor="start" x="604.75" y="-91.33" font-family="Helvetica,sans-Serif" font-size="9.00">meta.mjs</text>
</a>
</g>
</g>
<!-- src/cache/cache.mjs&#45;&gt;src/extract/transpile/meta.mjs -->
<g id="edge1" class="edge">
<title>src/cache/cache.mjs&#45;&gt;src/extract/transpile/meta.mjs</title>
<path fill="none" stroke="#000000" stroke-width="2" stroke-opacity="0.200000" d="M523.58,-58C561.61,-58 623.62,-58 623.62,-58 623.62,-58 623.62,-76.64 623.62,-76.64"/>
<polygon fill="#000000" fill-opacity="0.200000" stroke="#000000" stroke-width="2" stroke-opacity="0.200000" points="621.53,-76.64 623.63,-82.64 625.73,-76.64 621.53,-76.64"/>
</g>
<!-- src/utl/bus.mjs -->
<g id="node3" class="node">
<title>src/utl/bus.mjs</title>
<g id="a_node3"><a xlink:href="src/utl/bus.mjs" xlink:title="bus.mjs">
<path fill="#ffffcc" stroke="black" d="M762.58,-41.88C762.58,-41.88 720.42,-41.88 720.42,-41.88 717.46,-41.88 714.5,-38.92 714.5,-35.96 714.5,-35.96 714.5,-30.04 714.5,-30.04 714.5,-27.08 717.46,-24.12 720.42,-24.12 720.42,-24.12 762.58,-24.12 762.58,-24.12 765.54,-24.12 768.5,-27.08 768.5,-30.04 768.5,-30.04 768.5,-35.96 768.5,-35.96 768.5,-38.92 765.54,-41.88 762.58,-41.88"/>
<text text-anchor="start" x="725.75" y="-29.32" font-family="Helvetica,sans-Serif" font-size="9.00">bus.mjs</text>
</a>
</g>
</g>
<!-- src/cache/cache.mjs&#45;&gt;src/utl/bus.mjs -->
<g id="edge2" class="edge">
<title>src/cache/cache.mjs&#45;&gt;src/utl/bus.mjs</title>
<path fill="none" stroke="#000000" stroke-width="2" stroke-opacity="0.200000" d="M523.44,-49.12C588.6,-49.12 741.62,-49.12 741.62,-49.12 741.62,-49.12 741.62,-48.43 741.62,-48.43"/>
<polygon fill="#000000" fill-opacity="0.200000" stroke="#000000" stroke-width="2" stroke-opacity="0.200000" points="743.73,-51.22 741.63,-45.22 739.53,-51.22 743.73,-51.22"/>
</g>
<!-- src/cli/format&#45;meta&#45;info.mjs -->
<g id="node4" class="node">
<title>src/cli/format&#45;meta&#45;info.mjs</title>
<g id="a_node4"><a xlink:href="src/cli/format-meta-info.mjs" xlink:title="format&#45;meta&#45;info.mjs">
<path fill="#ffffcc" stroke="black" d="M188.33,-301.88C188.33,-301.88 100.92,-301.88 100.92,-301.88 97.96,-301.88 95,-298.92 95,-295.96 95,-295.96 95,-290.04 95,-290.04 95,-287.08 97.96,-284.12 100.92,-284.12 100.92,-284.12 188.33,-284.12 188.33,-284.12 191.29,-284.12 194.25,-287.08 194.25,-290.04 194.25,-290.04 194.25,-295.96 194.25,-295.96 194.25,-298.92 191.29,-301.88 188.33,-301.88"/>
<text text-anchor="start" x="103" y="-289.32" font-family="Helvetica,sans-Serif" font-size="9.00">format&#45;meta&#45;info.mjs</text>
</a>
</g>
</g>
<!-- src/main/index.mjs -->
<g id="node5" class="node">
<title>src/main/index.mjs</title>
<g id="a_node5"><a xlink:href="src/main/index.mjs" xlink:title="index.mjs">
<path fill="#ffffcc" stroke="black" d="M267.33,-286.88C267.33,-286.88 224.17,-286.88 224.17,-286.88 221.21,-286.88 218.25,-283.92 218.25,-280.96 218.25,-280.96 218.25,-275.04 218.25,-275.04 218.25,-272.08 221.21,-269.12 224.17,-269.12 224.17,-269.12 267.33,-269.12 267.33,-269.12 270.29,-269.12 273.25,-272.08 273.25,-275.04 273.25,-275.04 273.25,-280.96 273.25,-280.96 273.25,-283.92 270.29,-286.88 267.33,-286.88"/>
<text text-anchor="start" x="226.25" y="-274.32" font-family="Helvetica,sans-Serif" font-size="9.00">index.mjs</text>
</a>
</g>
</g>
<!-- src/cli/format&#45;meta&#45;info.mjs&#45;&gt;src/main/index.mjs -->
<g id="edge3" class="edge">
<title>src/cli/format&#45;meta&#45;info.mjs&#45;&gt;src/main/index.mjs</title>
<path fill="none" stroke="#000000" stroke-width="2" stroke-opacity="0.200000" d="M194.73,-294.62C220.52,-294.62 246.62,-294.62 246.62,-294.62 246.62,-294.62 246.62,-293.87 246.62,-293.87"/>
<polygon fill="#000000" fill-opacity="0.200000" stroke="#000000" stroke-width="2" stroke-opacity="0.200000" points="248.73,-296.12 246.63,-290.12 244.53,-296.12 248.73,-296.12"/>
</g>
<!-- src/main/index.mjs&#45;&gt;src/extract/transpile/meta.mjs -->
<g id="edge29" class="edge">
<title>src/main/index.mjs&#45;&gt;src/extract/transpile/meta.mjs</title>
<path fill="none" stroke="#000000" stroke-width="2" stroke-opacity="0.200000" d="M246.62,-268.78C246.62,-231.26 246.62,-92.04 246.62,-92.04 246.62,-92.04 586.72,-92.04 586.72,-92.04"/>
<polygon fill="#000000" fill-opacity="0.200000" stroke="#000000" stroke-width="2" stroke-opacity="0.200000" points="586.72,-94.14 592.72,-92.04 586.72,-89.94 586.72,-94.14"/>
</g>
<!-- src/main/format.mjs -->
<g id="node7" class="node">
<title>src/main/format.mjs</title>
<g id="a_node7"><a xlink:href="src/main/format.mjs" xlink:title="format.mjs">
<path fill="#ffffcc" stroke="black" d="M517.71,-377.88C517.71,-377.88 471.54,-377.88 471.54,-377.88 468.58,-377.88 465.62,-374.92 465.62,-371.96 465.62,-371.96 465.62,-366.04 465.62,-366.04 465.62,-363.08 468.58,-360.12 471.54,-360.12 471.54,-360.12 517.71,-360.12 517.71,-360.12 520.67,-360.12 523.62,-363.08 523.62,-366.04 523.62,-366.04 523.62,-371.96 523.62,-371.96 523.62,-374.92 520.67,-377.88 517.71,-377.88"/>
<text text-anchor="start" x="473.62" y="-365.32" font-family="Helvetica,sans-Serif" font-size="9.00">format.mjs</text>
</a>
</g>
</g>
<!-- src/main/index.mjs&#45;&gt;src/main/format.mjs -->
<g id="edge28" class="edge">
<title>src/main/index.mjs&#45;&gt;src/main/format.mjs</title>
<path fill="none" stroke="#000000" stroke-width="2" stroke-opacity="0.200000" d="M273.69,-276.5C287.66,-276.5 301.62,-276.5 301.62,-276.5 301.62,-276.5 301.62,-366.04 301.62,-366.04 301.62,-366.04 456.29,-366.04 456.29,-366.04"/>
<polygon fill="#000000" fill-opacity="0.200000" stroke="#000000" stroke-width="2" stroke-opacity="0.200000" points="456.29,-368.14 462.29,-366.04 456.29,-363.94 456.29,-368.14"/>
</g>
<!-- src/main/cruise.mjs -->
<g id="node9" class="node">
<title>src/main/cruise.mjs</title>
<g id="a_node9"><a xlink:href="src/main/cruise.mjs" xlink:title="cruise.mjs">
<path fill="#ffffcc" stroke="black" d="M380.46,-327.88C380.46,-327.88 335.04,-327.88 335.04,-327.88 332.08,-327.88 329.12,-324.92 329.12,-321.96 329.12,-321.96 329.12,-316.04 329.12,-316.04 329.12,-313.08 332.08,-310.12 335.04,-310.12 335.04,-310.12 380.46,-310.12 380.46,-310.12 383.42,-310.12 386.38,-313.08 386.38,-316.04 386.38,-316.04 386.38,-321.96 386.38,-321.96 386.38,-324.92 383.42,-327.88 380.46,-327.88"/>
<text text-anchor="start" x="337.12" y="-315.32" font-family="Helvetica,sans-Serif" font-size="9.00">cruise.mjs</text>
</a>
</g>
</g>
<!-- src/main/index.mjs&#45;&gt;src/main/cruise.mjs -->
<g id="edge27" class="edge">
<title>src/main/index.mjs&#45;&gt;src/main/cruise.mjs</title>
<path fill="none" stroke="#000000" stroke-width="2" stroke-opacity="0.200000" d="M273.32,-280.19C300.38,-280.19 337.62,-280.19 337.62,-280.19 337.62,-280.19 337.62,-300.97 337.62,-300.97"/>
<polygon fill="#000000" fill-opacity="0.200000" stroke="#000000" stroke-width="2" stroke-opacity="0.200000" points="335.53,-300.97 337.63,-306.97 339.73,-300.97 335.53,-300.97"/>
</g>
<!-- src/cli/format.mjs -->
<g id="node6" class="node">
<title>src/cli/format.mjs</title>
<g id="a_node6"><a xlink:href="src/cli/format.mjs" xlink:title="format.mjs">
<path fill="#ffffcc" stroke="black" d="M76.08,-331.88C76.08,-331.88 29.92,-331.88 29.92,-331.88 26.96,-331.88 24,-328.92 24,-325.96 24,-325.96 24,-320.04 24,-320.04 24,-317.08 26.96,-314.12 29.92,-314.12 29.92,-314.12 76.08,-314.12 76.08,-314.12 79.04,-314.12 82,-317.08 82,-320.04 82,-320.04 82,-325.96 82,-325.96 82,-328.92 79.04,-331.88 76.08,-331.88"/>
<text text-anchor="start" x="32" y="-319.32" font-family="Helvetica,sans-Serif" font-size="9.00">format.mjs</text>
</a>
</g>
</g>
<!-- src/cli/format.mjs&#45;&gt;src/main/format.mjs -->
<g id="edge4" class="edge">
<title>src/cli/format.mjs&#45;&gt;src/main/format.mjs</title>
<path fill="none" stroke="#000000" stroke-width="2" stroke-opacity="0.200000" d="M53.62,-331.98C53.62,-346.11 53.62,-371.96 53.62,-371.96 53.62,-371.96 456.32,-371.96 456.32,-371.96"/>
<polygon fill="#000000" fill-opacity="0.200000" stroke="#000000" stroke-width="2" stroke-opacity="0.200000" points="456.32,-374.06 462.32,-371.96 456.32,-369.86 456.32,-374.06"/>
</g>
<!-- src/main/options/assert&#45;validity.mjs -->
<g id="node21" class="node">
<title>src/main/options/assert&#45;validity.mjs</title>
<g id="a_node21"><a xlink:href="src/main/options/assert-validity.mjs" xlink:title="assert&#45;validity.mjs">
<path fill="#ffffcc" stroke="black" d="M661.58,-337.88C661.58,-337.88 584.67,-337.88 584.67,-337.88 581.71,-337.88 578.75,-334.92 578.75,-331.96 578.75,-331.96 578.75,-326.04 578.75,-326.04 578.75,-323.08 581.71,-320.12 584.67,-320.12 584.67,-320.12 661.58,-320.12 661.58,-320.12 664.54,-320.12 667.5,-323.08 667.5,-326.04 667.5,-326.04 667.5,-331.96 667.5,-331.96 667.5,-334.92 664.54,-337.88 661.58,-337.88"/>
<text text-anchor="start" x="586.75" y="-325.32" font-family="Helvetica,sans-Serif" font-size="9.00">assert&#45;validity.mjs</text>
</a>
</g>
</g>
<!-- src/main/format.mjs&#45;&gt;src/main/options/assert&#45;validity.mjs -->
<g id="edge23" class="edge">
<title>src/main/format.mjs&#45;&gt;src/main/options/assert&#45;validity.mjs</title>
<path fill="none" stroke="#000000" stroke-width="2" stroke-opacity="0.200000" d="M504.62,-360.05C504.62,-347.13 504.62,-324.77 504.62,-324.77 504.62,-324.77 569.3,-324.77 569.3,-324.77"/>
<polygon fill="#000000" fill-opacity="0.200000" stroke="#000000" stroke-width="2" stroke-opacity="0.200000" points="569.3,-326.88 575.3,-324.78 569.3,-322.68 569.3,-326.88"/>
</g>
<!-- src/main/options/normalize.mjs -->
<g id="node22" class="node">
<title>src/main/options/normalize.mjs</title>
<g id="a_node22"><a xlink:href="src/main/options/normalize.mjs" xlink:title="normalize.mjs">
<path fill="#ffffcc" stroke="black" d="M653.71,-307.88C653.71,-307.88 592.54,-307.88 592.54,-307.88 589.58,-307.88 586.62,-304.92 586.62,-301.96 586.62,-301.96 586.62,-296.04 586.62,-296.04 586.62,-293.08 589.58,-290.12 592.54,-290.12 592.54,-290.12 653.71,-290.12 653.71,-290.12 656.67,-290.12 659.62,-293.08 659.62,-296.04 659.62,-296.04 659.62,-301.96 659.62,-301.96 659.62,-304.92 656.67,-307.88 653.71,-307.88"/>
<text text-anchor="start" x="594.62" y="-295.32" font-family="Helvetica,sans-Serif" font-size="9.00">normalize.mjs</text>
</a>
</g>
</g>
<!-- src/main/format.mjs&#45;&gt;src/main/options/normalize.mjs -->
<g id="edge24" class="edge">
<title>src/main/format.mjs&#45;&gt;src/main/options/normalize.mjs</title>
<path fill="none" stroke="#000000" stroke-width="2" stroke-opacity="0.200000" d="M485.62,-359.82C485.62,-342.12 485.62,-304.96 485.62,-304.96 485.62,-304.96 577.25,-304.96 577.25,-304.96"/>
<polygon fill="#000000" fill-opacity="0.200000" stroke="#000000" stroke-width="2" stroke-opacity="0.200000" points="577.25,-307.06 583.25,-304.96 577.25,-302.86 577.25,-307.06"/>
</g>
<!-- src/main/report&#45;wrap.mjs -->
<g id="node23" class="node">
<title>src/main/report&#45;wrap.mjs</title>
<g id="a_node23"><a xlink:href="src/main/report-wrap.mjs" xlink:title="report&#45;wrap.mjs">
<path fill="#ffffcc" stroke="black" d="M657.08,-389.88C657.08,-389.88 589.17,-389.88 589.17,-389.88 586.21,-389.88 583.25,-386.92 583.25,-383.96 583.25,-383.96 583.25,-378.04 583.25,-378.04 583.25,-375.08 586.21,-372.12 589.17,-372.12 589.17,-372.12 657.08,-372.12 657.08,-372.12 660.04,-372.12 663,-375.08 663,-378.04 663,-378.04 663,-383.96 663,-383.96 663,-386.92 660.04,-389.88 657.08,-389.88"/>
<text text-anchor="start" x="591.25" y="-377.32" font-family="Helvetica,sans-Serif" font-size="9.00">report&#45;wrap.mjs</text>
</a>
</g>
</g>
<!-- src/main/format.mjs&#45;&gt;src/main/report&#45;wrap.mjs -->
<g id="edge25" class="edge">
<title>src/main/format.mjs&#45;&gt;src/main/report&#45;wrap.mjs</title>
<path fill="none" stroke="#000000" stroke-width="2" stroke-opacity="0.200000" d="M504.62,-378.12C504.62,-379.72 504.62,-380.88 504.62,-380.88 504.62,-380.88 573.98,-380.88 573.98,-380.88"/>
<polygon fill="#000000" fill-opacity="0.200000" stroke="#000000" stroke-width="2" stroke-opacity="0.200000" points="573.98,-382.98 579.98,-380.88 573.98,-378.78 573.98,-382.98"/>
</g>
<!-- src/schema/cruise&#45;result.schema.mjs -->
<g id="node26" class="node">
<title>src/schema/cruise&#45;result.schema.mjs</title>
<g id="a_node26"><a xlink:href="src/schema/cruise-result.schema.mjs" xlink:title="cruise&#45;result.schema.mjs">
<path fill="#ffffcc" stroke="black" d="M675.83,-527.88C675.83,-527.88 570.42,-527.88 570.42,-527.88 567.46,-527.88 564.5,-524.92 564.5,-521.96 564.5,-521.96 564.5,-516.04 564.5,-516.04 564.5,-513.08 567.46,-510.12 570.42,-510.12 570.42,-510.12 675.83,-510.12 675.83,-510.12 678.79,-510.12 681.75,-513.08 681.75,-516.04 681.75,-516.04 681.75,-521.96 681.75,-521.96 681.75,-524.92 678.79,-527.88 675.83,-527.88"/>
<text text-anchor="start" x="572.5" y="-515.33" font-family="Helvetica,sans-Serif" font-size="9.00">cruise&#45;result.schema.mjs</text>
</a>
</g>
</g>
<!-- src/main/format.mjs&#45;&gt;src/schema/cruise&#45;result.schema.mjs -->
<g id="edge26" class="edge">
<title>src/main/format.mjs&#45;&gt;src/schema/cruise&#45;result.schema.mjs</title>
<path fill="none" stroke="#000000" stroke-width="2" stroke-opacity="0.200000" d="M485.62,-378.36C485.62,-382.68 485.62,-386.88 485.62,-386.88 485.62,-386.88 571.62,-386.88 571.62,-386.88 571.62,-386.88 571.62,-500.89 571.62,-500.89"/>
<polygon fill="#000000" fill-opacity="0.200000" stroke="#000000" stroke-width="2" stroke-opacity="0.200000" points="569.53,-500.89 571.63,-506.89 573.73,-500.89 569.53,-500.89"/>
</g>
<!-- src/cli/index.mjs -->
<g id="node8" class="node">
<title>src/cli/index.mjs</title>
<g id="a_node8"><a xlink:href="src/cli/index.mjs" xlink:title="index.mjs">
<path fill="#ffffcc" stroke="black" d="M74.58,-301.88C74.58,-301.88 31.42,-301.88 31.42,-301.88 28.46,-301.88 25.5,-298.92 25.5,-295.96 25.5,-295.96 25.5,-290.04 25.5,-290.04 25.5,-287.08 28.46,-284.12 31.42,-284.12 31.42,-284.12 74.58,-284.12 74.58,-284.12 77.54,-284.12 80.5,-287.08 80.5,-290.04 80.5,-290.04 80.5,-295.96 80.5,-295.96 80.5,-298.92 77.54,-301.88 74.58,-301.88"/>
<text text-anchor="start" x="33.5" y="-289.32" font-family="Helvetica,sans-Serif" font-size="9.00">index.mjs</text>
</a>
</g>
</g>
<!-- src/cli/index.mjs&#45;&gt;src/utl/bus.mjs -->
<g id="edge7" class="edge">
<title>src/cli/index.mjs&#45;&gt;src/utl/bus.mjs</title>
<path fill="none" stroke="#000000" stroke-width="2" stroke-opacity="0.200000" d="M53.62,-283.9C53.62,-237.4 53.62,-28.56 53.62,-28.56 53.62,-28.56 705.08,-28.56 705.08,-28.56"/>
<polygon fill="#000000" fill-opacity="0.200000" stroke="#000000" stroke-width="2" stroke-opacity="0.200000" points="705.08,-30.66 711.08,-28.56 705.08,-26.46 705.08,-30.66"/>
</g>
<!-- src/cli/index.mjs&#45;&gt;src/cli/format&#45;meta&#45;info.mjs -->
<g id="edge5" class="edge">
<title>src/cli/index.mjs&#45;&gt;src/cli/format&#45;meta&#45;info.mjs</title>
<path fill="none" stroke="#000000" stroke-width="2" stroke-dasharray="5,2" stroke-opacity="0.200000" d="M80.99,-290.04C80.99,-290.04 85.81,-290.04 85.81,-290.04"/>
<polygon fill="#000000" fill-opacity="0.200000" stroke="#000000" stroke-width="2" stroke-opacity="0.200000" points="85.81,-292.14 91.81,-290.04 85.81,-287.94 85.81,-292.14"/>
</g>
<!-- src/cli/index.mjs&#45;&gt;src/main/cruise.mjs -->
<g id="edge6" class="edge">
<title>src/cli/index.mjs&#45;&gt;src/main/cruise.mjs</title>
<path fill="none" stroke="#000000" stroke-width="2" stroke-opacity="0.200000" d="M80.72,-295.96C85.32,-295.96 88.62,-295.96 88.62,-295.96 88.62,-295.96 88.62,-322.38 88.62,-322.38 88.62,-322.38 319.67,-322.38 319.67,-322.38"/>
<polygon fill="#000000" fill-opacity="0.200000" stroke="#000000" stroke-width="2" stroke-opacity="0.200000" points="319.67,-324.48 325.67,-322.38 319.67,-320.28 319.67,-324.48"/>
</g>
<!-- src/main/cruise.mjs&#45;&gt;src/cache/cache.mjs -->
<g id="edge19" class="edge">
<title>src/main/cruise.mjs&#45;&gt;src/cache/cache.mjs</title>
<path fill="none" stroke="#000000" stroke-width="2" stroke-dasharray="5,2" stroke-opacity="0.200000" d="M354.62,-309.84C354.62,-263.07 354.62,-53 354.62,-53 354.62,-53 456.59,-53 456.59,-53"/>
<polygon fill="#000000" fill-opacity="0.200000" stroke="#000000" stroke-width="2" stroke-opacity="0.200000" points="456.59,-55.1 462.59,-53 456.59,-50.9 456.59,-55.1"/>
</g>
<!-- src/main/cruise.mjs&#45;&gt;src/utl/bus.mjs -->
<g id="edge22" class="edge">
<title>src/main/cruise.mjs&#45;&gt;src/utl/bus.mjs</title>
<path fill="none" stroke="#000000" stroke-width="2" stroke-opacity="0.200000" d="M345.62,-309.81C345.62,-260.85 345.62,-33 345.62,-33 345.62,-33 705.26,-33 705.26,-33"/>
<polygon fill="#000000" fill-opacity="0.200000" stroke="#000000" stroke-width="2" stroke-opacity="0.200000" points="705.26,-35.1 711.26,-33 705.26,-30.9 705.26,-35.1"/>
</g>
<!-- src/main/resolve&#45;options/normalize.mjs -->
<g id="node11" class="node">
<title>src/main/resolve&#45;options/normalize.mjs</title>
<g id="a_node11"><a xlink:href="src/main/resolve-options/normalize.mjs" xlink:title="normalize.mjs">
<path fill="#ffffcc" stroke="black" d="M525.21,-283.88C525.21,-283.88 464.04,-283.88 464.04,-283.88 461.08,-283.88 458.12,-280.92 458.12,-277.96 458.12,-277.96 458.12,-272.04 458.12,-272.04 458.12,-269.08 461.08,-266.12 464.04,-266.12 464.04,-266.12 525.21,-266.12 525.21,-266.12 528.17,-266.12 531.12,-269.08 531.12,-272.04 531.12,-272.04 531.12,-277.96 531.12,-277.96 531.12,-280.92 528.17,-283.88 525.21,-283.88"/>
<text text-anchor="start" x="466.12" y="-271.32" font-family="Helvetica,sans-Serif" font-size="9.00">normalize.mjs</text>
</a>
</g>
</g>
<!-- src/main/cruise.mjs&#45;&gt;src/main/resolve&#45;options/normalize.mjs -->
<g id="edge16" class="edge">
<title>src/main/cruise.mjs&#45;&gt;src/main/resolve&#45;options/normalize.mjs</title>
<path fill="none" stroke="#000000" stroke-width="2" stroke-dasharray="5,2" stroke-opacity="0.200000" d="M386.69,-315.12C417.73,-315.12 462.62,-315.12 462.62,-315.12 462.62,-315.12 462.62,-293.33 462.62,-293.33"/>
<polygon fill="#000000" fill-opacity="0.200000" stroke="#000000" stroke-width="2" stroke-opacity="0.200000" points="464.73,-293.33 462.63,-287.33 460.53,-293.33 464.73,-293.33"/>
</g>
<!-- src/enrich/index.mjs -->
<g id="node12" class="node">
<title>src/enrich/index.mjs</title>
<g id="a_node12"><a xlink:href="src/enrich/index.mjs" xlink:title="index.mjs">
<path fill="#ffffcc" stroke="black" d="M644.71,-621.88C644.71,-621.88 601.54,-621.88 601.54,-621.88 598.58,-621.88 595.62,-618.92 595.62,-615.96 595.62,-615.96 595.62,-610.04 595.62,-610.04 595.62,-607.08 598.58,-604.12 601.54,-604.12 601.54,-604.12 644.71,-604.12 644.71,-604.12 647.67,-604.12 650.62,-607.08 650.62,-610.04 650.62,-610.04 650.62,-615.96 650.62,-615.96 650.62,-618.92 647.67,-621.88 644.71,-621.88"/>
<text text-anchor="start" x="603.62" y="-609.33" font-family="Helvetica,sans-Serif" font-size="9.00">index.mjs</text>
</a>
</g>
</g>
<!-- src/main/cruise.mjs&#45;&gt;src/enrich/index.mjs -->
<g id="edge20" class="edge">
<title>src/main/cruise.mjs&#45;&gt;src/enrich/index.mjs</title>
<path fill="none" stroke="#000000" stroke-width="2" stroke-dasharray="5,2" stroke-opacity="0.200000" d="M386.78,-317.62C440.86,-317.62 551.62,-317.62 551.62,-317.62 551.62,-317.62 551.62,-613 551.62,-613 551.62,-613 586.25,-613 586.25,-613"/>
<polygon fill="#000000" fill-opacity="0.200000" stroke="#000000" stroke-width="2" stroke-opacity="0.200000" points="586.25,-615.1 592.25,-613 586.25,-610.9 586.25,-615.1"/>
</g>
<!-- src/extract/index.mjs -->
<g id="node15" class="node">
<title>src/extract/index.mjs</title>
<g id="a_node15"><a xlink:href="src/extract/index.mjs" xlink:title="index.mjs">
<path fill="#ffffcc" stroke="black" d="M644.71,-155.88C644.71,-155.88 601.54,-155.88 601.54,-155.88 598.58,-155.88 595.62,-152.92 595.62,-149.96 595.62,-149.96 595.62,-144.04 595.62,-144.04 595.62,-141.08 598.58,-138.12 601.54,-138.12 601.54,-138.12 644.71,-138.12 644.71,-138.12 647.67,-138.12 650.62,-141.08 650.62,-144.04 650.62,-144.04 650.62,-149.96 650.62,-149.96 650.62,-152.92 647.67,-155.88 644.71,-155.88"/>
<text text-anchor="start" x="603.62" y="-143.32" font-family="Helvetica,sans-Serif" font-size="9.00">index.mjs</text>
</a>
</g>
</g>
<!-- src/main/cruise.mjs&#45;&gt;src/extract/index.mjs -->
<g id="edge21" class="edge">
<title>src/main/cruise.mjs&#45;&gt;src/extract/index.mjs</title>
<path fill="none" stroke="#000000" stroke-width="2" stroke-dasharray="5,2" stroke-opacity="0.200000" d="M362.62,-309.75C362.62,-274.03 362.62,-147 362.62,-147 362.62,-147 586.22,-147 586.22,-147"/>
<polygon fill="#000000" fill-opacity="0.200000" stroke="#000000" stroke-width="2" stroke-opacity="0.200000" points="586.22,-149.1 592.22,-147 586.22,-144.9 586.22,-149.1"/>
</g>
<!-- src/main/files&#45;and&#45;dirs/normalize.mjs -->
<g id="node20" class="node">
<title>src/main/files&#45;and&#45;dirs/normalize.mjs</title>
<g id="a_node20"><a xlink:href="src/main/files-and-dirs/normalize.mjs" xlink:title="normalize.mjs">
<path fill="#ffffcc" stroke="black" d="M525.21,-223.88C525.21,-223.88 464.04,-223.88 464.04,-223.88 461.08,-223.88 458.12,-220.92 458.12,-217.96 458.12,-217.96 458.12,-212.04 458.12,-212.04 458.12,-209.08 461.08,-206.12 464.04,-206.12 464.04,-206.12 525.21,-206.12 525.21,-206.12 528.17,-206.12 531.12,-209.08 531.12,-212.04 531.12,-212.04 531.12,-217.96 531.12,-217.96 531.12,-220.92 528.17,-223.88 525.21,-223.88"/>
<text text-anchor="start" x="466.12" y="-211.32" font-family="Helvetica,sans-Serif" font-size="9.00">normalize.mjs</text>
</a>
</g>
</g>
<!-- src/main/cruise.mjs&#45;&gt;src/main/files&#45;and&#45;dirs/normalize.mjs -->
<g id="edge12" class="edge">
<title>src/main/cruise.mjs&#45;&gt;src/main/files&#45;and&#45;dirs/normalize.mjs</title>
<path fill="none" stroke="#000000" stroke-width="2" stroke-dasharray="5,2" stroke-opacity="0.200000" d="M370.62,-309.77C370.62,-284.32 370.62,-215 370.62,-215 370.62,-215 448.73,-215 448.73,-215"/>
<polygon fill="#000000" fill-opacity="0.200000" stroke="#000000" stroke-width="2" stroke-opacity="0.200000" points="448.73,-217.1 454.73,-215 448.73,-212.9 448.73,-217.1"/>
</g>
<!-- src/main/cruise.mjs&#45;&gt;src/main/options/assert&#45;validity.mjs -->
<g id="edge13" class="edge">
<title>src/main/cruise.mjs&#45;&gt;src/main/options/assert&#45;validity.mjs</title>
<path fill="none" stroke="#000000" stroke-width="2" stroke-opacity="0.200000" d="M386.65,-321.68C386.65,-321.68 569.35,-321.68 569.35,-321.68"/>
<polygon fill="#000000" fill-opacity="0.200000" stroke="#000000" stroke-width="2" stroke-opacity="0.200000" points="569.35,-323.78 575.35,-321.68 569.35,-319.58 569.35,-323.78"/>
</g>
<!-- src/main/cruise.mjs&#45;&gt;src/main/options/normalize.mjs -->
<g id="edge14" class="edge">
<title>src/main/cruise.mjs&#45;&gt;src/main/options/normalize.mjs</title>
<path fill="none" stroke="#000000" stroke-width="2" stroke-opacity="0.200000" d="M378.62,-309.73C378.62,-305.77 378.62,-302.04 378.62,-302.04 378.62,-302.04 577.23,-302.04 577.23,-302.04"/>
<polygon fill="#000000" fill-opacity="0.200000" stroke="#000000" stroke-width="2" stroke-opacity="0.200000" points="577.23,-304.14 583.23,-302.04 577.23,-299.94 577.23,-304.14"/>
</g>
<!-- src/main/cruise.mjs&#45;&gt;src/main/report&#45;wrap.mjs -->
<g id="edge15" class="edge">
<title>src/main/cruise.mjs&#45;&gt;src/main/report&#45;wrap.mjs</title>
<path fill="none" stroke="#000000" stroke-width="2" stroke-opacity="0.200000" d="M367.62,-328.3C367.62,-346.23 367.62,-383.88 367.62,-383.88 367.62,-383.88 573.89,-383.88 573.89,-383.88"/>
<polygon fill="#000000" fill-opacity="0.200000" stroke="#000000" stroke-width="2" stroke-opacity="0.200000" points="573.89,-385.98 579.89,-383.88 573.89,-381.78 573.89,-385.98"/>
</g>
<!-- src/main/rule&#45;set/assert&#45;validity.mjs -->
<g id="node24" class="node">
<title>src/main/rule&#45;set/assert&#45;validity.mjs</title>
<g id="a_node24"><a xlink:href="src/main/rule-set/assert-validity.mjs" xlink:title="assert&#45;validity.mjs">
<path fill="#ffffcc" stroke="black" d="M533.08,-411.88C533.08,-411.88 456.17,-411.88 456.17,-411.88 453.21,-411.88 450.25,-408.92 450.25,-405.96 450.25,-405.96 450.25,-400.04 450.25,-400.04 450.25,-397.08 453.21,-394.12 456.17,-394.12 456.17,-394.12 533.08,-394.12 533.08,-394.12 536.04,-394.12 539,-397.08 539,-400.04 539,-400.04 539,-405.96 539,-405.96 539,-408.92 536.04,-411.88 533.08,-411.88"/>
<text text-anchor="start" x="458.25" y="-399.32" font-family="Helvetica,sans-Serif" font-size="9.00">assert&#45;validity.mjs</text>
</a>
</g>
</g>
<!-- src/main/cruise.mjs&#45;&gt;src/main/rule&#45;set/assert&#45;validity.mjs -->
<g id="edge17" class="edge">
<title>src/main/cruise.mjs&#45;&gt;src/main/rule&#45;set/assert&#45;validity.mjs</title>
<path fill="none" stroke="#000000" stroke-width="2" stroke-dasharray="5,2" stroke-opacity="0.200000" d="M386.82,-323.23C415.35,-323.23 454.62,-323.23 454.62,-323.23 454.62,-323.23 454.62,-384.82 454.62,-384.82"/>
<polygon fill="#000000" fill-opacity="0.200000" stroke="#000000" stroke-width="2" stroke-opacity="0.200000" points="452.53,-384.82 454.63,-390.82 456.73,-384.82 452.53,-384.82"/>
</g>
<!-- src/main/rule&#45;set/normalize.mjs -->
<g id="node25" class="node">
<title>src/main/rule&#45;set/normalize.mjs</title>
<g id="a_node25"><a xlink:href="src/main/rule-set/normalize.mjs" xlink:title="normalize.mjs">
<path fill="#ffffcc" stroke="black" d="M525.21,-441.88C525.21,-441.88 464.04,-441.88 464.04,-441.88 461.08,-441.88 458.12,-438.92 458.12,-435.96 458.12,-435.96 458.12,-430.04 458.12,-430.04 458.12,-427.08 461.08,-424.12 464.04,-424.12 464.04,-424.12 525.21,-424.12 525.21,-424.12 528.17,-424.12 531.12,-427.08 531.12,-430.04 531.12,-430.04 531.12,-435.96 531.12,-435.96 531.12,-438.92 528.17,-441.88 525.21,-441.88"/>
<text text-anchor="start" x="466.12" y="-429.32" font-family="Helvetica,sans-Serif" font-size="9.00">normalize.mjs</text>
</a>
</g>
</g>
<!-- src/main/cruise.mjs&#45;&gt;src/main/rule&#45;set/normalize.mjs -->
<g id="edge18" class="edge">
<title>src/main/cruise.mjs&#45;&gt;src/main/rule&#45;set/normalize.mjs</title>
<path fill="none" stroke="#000000" stroke-width="2" stroke-dasharray="5,2" stroke-opacity="0.200000" d="M348.62,-328.33C348.62,-355.56 348.62,-433 348.62,-433 348.62,-433 448.76,-433 448.76,-433"/>
<polygon fill="#000000" fill-opacity="0.200000" stroke="#000000" stroke-width="2" stroke-opacity="0.200000" points="448.76,-435.1 454.76,-433 448.76,-430.9 448.76,-435.1"/>
</g>
<!-- src/config&#45;utl/extract&#45;depcruise&#45;config/index.mjs -->
<g id="node10" class="node">
<title>src/config&#45;utl/extract&#45;depcruise&#45;config/index.mjs</title>
<g id="a_node10"><a xlink:href="src/config-utl/extract-depcruise-config/index.mjs" xlink:title="index.mjs">
<path fill="#ffffcc" stroke="black" d="M379.33,-535.88C379.33,-535.88 336.17,-535.88 336.17,-535.88 333.21,-535.88 330.25,-532.92 330.25,-529.96 330.25,-529.96 330.25,-524.04 330.25,-524.04 330.25,-521.08 333.21,-518.12 336.17,-518.12 336.17,-518.12 379.33,-518.12 379.33,-518.12 382.29,-518.12 385.25,-521.08 385.25,-524.04 385.25,-524.04 385.25,-529.96 385.25,-529.96 385.25,-532.92 382.29,-535.88 379.33,-535.88"/>
<text text-anchor="start" x="338.25" y="-523.33" font-family="Helvetica,sans-Serif" font-size="9.00">index.mjs</text>
</a>
</g>
</g>
<!-- src/config&#45;utl/extract&#45;depcruise&#45;config/index.mjs&#45;&gt;src/main/resolve&#45;options/normalize.mjs -->
<g id="edge8" class="edge">
<title>src/config&#45;utl/extract&#45;depcruise&#45;config/index.mjs&#45;&gt;src/main/resolve&#45;options/normalize.mjs</title>
<path fill="none" stroke="#000000" stroke-width="2" stroke-opacity="0.200000" d="M385.69,-523C401.7,-523 418.62,-523 418.62,-523 418.62,-523 418.62,-272.81 418.62,-272.81 418.62,-272.81 448.93,-272.81 448.93,-272.81"/>
<polygon fill="#000000" fill-opacity="0.200000" stroke="#000000" stroke-width="2" stroke-opacity="0.200000" points="448.93,-274.91 454.93,-272.81 448.93,-270.71 448.93,-274.91"/>
</g>
<!-- src/main/resolve&#45;options/normalize.mjs&#45;&gt;src/extract/transpile/meta.mjs -->
<g id="edge40" class="edge">
<title>src/main/resolve&#45;options/normalize.mjs&#45;&gt;src/extract/transpile/meta.mjs</title>
<path fill="none" stroke="#000000" stroke-width="2" stroke-opacity="0.200000" d="M531.49,-269.46C533.44,-269.46 534.62,-269.46 534.62,-269.46 534.62,-269.46 534.62,-97.96 534.62,-97.96 534.62,-97.96 587.06,-97.96 587.06,-97.96"/>
<polygon fill="#000000" fill-opacity="0.200000" stroke="#000000" stroke-width="2" stroke-opacity="0.200000" points="587.06,-100.06 593.06,-97.96 587.06,-95.86 587.06,-100.06"/>
</g>
<!-- src/graph&#45;utl/rule&#45;set.mjs -->
<g id="node18" class="node">
<title>src/graph&#45;utl/rule&#45;set.mjs</title>
<g id="a_node18"><a xlink:href="src/graph-utl/rule-set.mjs" xlink:title="rule&#45;set.mjs">
<path fill="#ffffcc" stroke="black" d="M892.46,-263.88C892.46,-263.88 841.04,-263.88 841.04,-263.88 838.08,-263.88 835.12,-260.92 835.12,-257.96 835.12,-257.96 835.12,-252.04 835.12,-252.04 835.12,-249.08 838.08,-246.12 841.04,-246.12 841.04,-246.12 892.46,-246.12 892.46,-246.12 895.42,-246.12 898.38,-249.08 898.38,-252.04 898.38,-252.04 898.38,-257.96 898.38,-257.96 898.38,-260.92 895.42,-263.88 892.46,-263.88"/>
<text text-anchor="start" x="843.12" y="-251.32" font-family="Helvetica,sans-Serif" font-size="9.00">rule&#45;set.mjs</text>
</a>
</g>
</g>
<!-- src/main/resolve&#45;options/normalize.mjs&#45;&gt;src/graph&#45;utl/rule&#45;set.mjs -->
<g id="edge41" class="edge">
<title>src/main/resolve&#45;options/normalize.mjs&#45;&gt;src/graph&#45;utl/rule&#45;set.mjs</title>
<path fill="none" stroke="#000000" stroke-width="2" stroke-opacity="0.200000" d="M531.41,-272.79C625.51,-272.79 867.62,-272.79 867.62,-272.79 867.62,-272.79 867.62,-271.94 867.62,-271.94"/>
<polygon fill="#000000" fill-opacity="0.200000" stroke="#000000" stroke-width="2" stroke-opacity="0.200000" points="869.73,-273.34 867.63,-267.34 865.53,-273.34 869.73,-273.34"/>
</g>
<!-- src/enrich/summarize/index.mjs -->
<g id="node13" class="node">
<title>src/enrich/summarize/index.mjs</title>
<g id="a_node13"><a xlink:href="src/enrich/summarize/index.mjs" xlink:title="index.mjs">
<path fill="#ffffcc" stroke="black" d="M763.08,-625.88C763.08,-625.88 719.92,-625.88 719.92,-625.88 716.96,-625.88 714,-622.92 714,-619.96 714,-619.96 714,-614.04 714,-614.04 714,-611.08 716.96,-608.12 719.92,-608.12 719.92,-608.12 763.08,-608.12 763.08,-608.12 766.04,-608.12 769,-611.08 769,-614.04 769,-614.04 769,-619.96 769,-619.96 769,-622.92 766.04,-625.88 763.08,-625.88"/>
<text text-anchor="start" x="722" y="-613.33" font-family="Helvetica,sans-Serif" font-size="9.00">index.mjs</text>
</a>
</g>
</g>
<!-- src/enrich/index.mjs&#45;&gt;src/enrich/summarize/index.mjs -->
<g id="edge9" class="edge">
<title>src/enrich/index.mjs&#45;&gt;src/enrich/summarize/index.mjs</title>
<path fill="none" stroke="#000000" stroke-width="2" stroke-opacity="0.200000" d="M650.88,-617.29C650.88,-617.29 704.48,-617.29 704.48,-617.29"/>
<polygon fill="#000000" fill-opacity="0.200000" stroke="#000000" stroke-width="2" stroke-opacity="0.200000" points="704.48,-619.39 710.48,-617.29 704.48,-615.19 704.48,-619.39"/>
</g>
<!-- src/graph&#45;utl/compare.mjs -->
<g id="node14" class="node">
<title>src/graph&#45;utl/compare.mjs</title>
<g id="a_node14"><a xlink:href="src/graph-utl/compare.mjs" xlink:title="compare.mjs">
<path fill="#ffffcc" stroke="black" d="M895.08,-293.88C895.08,-293.88 838.42,-293.88 838.42,-293.88 835.46,-293.88 832.5,-290.92 832.5,-287.96 832.5,-287.96 832.5,-282.04 832.5,-282.04 832.5,-279.08 835.46,-276.12 838.42,-276.12 838.42,-276.12 895.08,-276.12 895.08,-276.12 898.04,-276.12 901,-279.08 901,-282.04 901,-282.04 901,-287.96 901,-287.96 901,-290.92 898.04,-293.88 895.08,-293.88"/>
<text text-anchor="start" x="840.5" y="-281.32" font-family="Helvetica,sans-Serif" font-size="9.00">compare.mjs</text>
</a>
</g>
</g>
<!-- src/enrich/summarize/index.mjs&#45;&gt;src/graph&#45;utl/compare.mjs -->
<g id="edge10" class="edge">
<title>src/enrich/summarize/index.mjs&#45;&gt;src/graph&#45;utl/compare.mjs</title>
<path fill="none" stroke="#000000" stroke-width="2" stroke-opacity="0.200000" d="M769.49,-617C780.98,-617 791.62,-617 791.62,-617 791.62,-617 791.62,-281.29 791.62,-281.29 791.62,-281.29 823.24,-281.29 823.24,-281.29"/>
<polygon fill="#000000" fill-opacity="0.200000" stroke="#000000" stroke-width="2" stroke-opacity="0.200000" points="823.24,-283.39 829.24,-281.29 823.24,-279.19 823.24,-283.39"/>
</g>
<!-- src/extract/index.mjs&#45;&gt;src/utl/bus.mjs -->
<g id="edge11" class="edge">
<title>src/extract/index.mjs&#45;&gt;src/utl/bus.mjs</title>
<path fill="none" stroke="#000000" stroke-width="2" stroke-opacity="0.200000" d="M650.97,-142.56C669.56,-142.56 690.62,-142.56 690.62,-142.56 690.62,-142.56 690.62,-37.44 690.62,-37.44 690.62,-37.44 705.25,-37.44 705.25,-37.44"/>
<polygon fill="#000000" fill-opacity="0.200000" stroke="#000000" stroke-width="2" stroke-opacity="0.200000" points="705.25,-39.54 711.25,-37.44 705.25,-35.34 705.25,-39.54"/>
</g>
<!-- src/graph&#45;utl/consolidate&#45;to&#45;pattern.mjs -->
<g id="node16" class="node">
<title>src/graph&#45;utl/consolidate&#45;to&#45;pattern.mjs</title>
<g id="a_node16"><a xlink:href="src/graph-utl/consolidate-to-pattern.mjs" xlink:title="consolidate&#45;to&#45;pattern.mjs">
<path fill="#ffffcc" stroke="black" d="M921.71,-323.88C921.71,-323.88 811.79,-323.88 811.79,-323.88 808.83,-323.88 805.88,-320.92 805.88,-317.96 805.88,-317.96 805.88,-312.04 805.88,-312.04 805.88,-309.08 808.83,-306.12 811.79,-306.12 811.79,-306.12 921.71,-306.12 921.71,-306.12 924.67,-306.12 927.62,-309.08 927.62,-312.04 927.62,-312.04 927.62,-317.96 927.62,-317.96 927.62,-320.92 924.67,-323.88 921.71,-323.88"/>
<text text-anchor="start" x="813.88" y="-311.32" font-family="Helvetica,sans-Serif" font-size="9.00">consolidate&#45;to&#45;pattern.mjs</text>
</a>
</g>
</g>
<!-- src/graph&#45;utl/filter&#45;bank.mjs -->
<g id="node17" class="node">
<title>src/graph&#45;utl/filter&#45;bank.mjs</title>
<g id="a_node17"><a xlink:href="src/graph-utl/filter-bank.mjs" xlink:title="filter&#45;bank.mjs">
<path fill="#ffffcc" stroke="black" d="M897.33,-353.88C897.33,-353.88 836.17,-353.88 836.17,-353.88 833.21,-353.88 830.25,-350.92 830.25,-347.96 830.25,-347.96 830.25,-342.04 830.25,-342.04 830.25,-339.08 833.21,-336.12 836.17,-336.12 836.17,-336.12 897.33,-336.12 897.33,-336.12 900.29,-336.12 903.25,-339.08 903.25,-342.04 903.25,-342.04 903.25,-347.96 903.25,-347.96 903.25,-350.92 900.29,-353.88 897.33,-353.88"/>
<text text-anchor="start" x="838.25" y="-341.32" font-family="Helvetica,sans-Serif" font-size="9.00">filter&#45;bank.mjs</text>
</a>
</g>
</g>
<!-- src/graph&#45;utl/strip&#45;self&#45;transitions.mjs -->
<g id="node19" class="node">
<title>src/graph&#45;utl/strip&#45;self&#45;transitions.mjs</title>
<g id="a_node19"><a xlink:href="src/graph-utl/strip-self-transitions.mjs" xlink:title="strip&#45;self&#45;transitions.mjs">
<path fill="#ffffcc" stroke="black" d="M916.83,-383.88C916.83,-383.88 816.67,-383.88 816.67,-383.88 813.71,-383.88 810.75,-380.92 810.75,-377.96 810.75,-377.96 810.75,-372.04 810.75,-372.04 810.75,-369.08 813.71,-366.12 816.67,-366.12 816.67,-366.12 916.83,-366.12 916.83,-366.12 919.79,-366.12 922.75,-369.08 922.75,-372.04 922.75,-372.04 922.75,-377.96 922.75,-377.96 922.75,-380.92 919.79,-383.88 916.83,-383.88"/>
<text text-anchor="start" x="818.75" y="-371.32" font-family="Helvetica,sans-Serif" font-size="9.00">strip&#45;self&#45;transitions.mjs</text>
</a>
</g>
</g>
<!-- src/report/index.mjs -->
<g id="node29" class="node">
<title>src/report/index.mjs</title>
<g id="a_node29"><a xlink:href="src/report/index.mjs" xlink:title="index.mjs">
<path fill="#ffffcc" stroke="black" d="M763.08,-155.88C763.08,-155.88 719.92,-155.88 719.92,-155.88 716.96,-155.88 714,-152.92 714,-149.96 714,-149.96 714,-144.04 714,-144.04 714,-141.08 716.96,-138.12 719.92,-138.12 719.92,-138.12 763.08,-138.12 763.08,-138.12 766.04,-138.12 769,-141.08 769,-144.04 769,-144.04 769,-149.96 769,-149.96 769,-152.92 766.04,-155.88 763.08,-155.88"/>
<text text-anchor="start" x="722" y="-143.32" font-family="Helvetica,sans-Serif" font-size="9.00">index.mjs</text>
</a>
</g>
</g>
<!-- src/main/options/assert&#45;validity.mjs&#45;&gt;src/report/index.mjs -->
<g id="edge30" class="edge">
<title>src/main/options/assert&#45;validity.mjs&#45;&gt;src/report/index.mjs</title>
<path fill="none" stroke="#000000" stroke-width="2" stroke-opacity="0.200000" d="M663.62,-319.72C663.62,-282.64 663.62,-147 663.62,-147 663.62,-147 704.8,-147 704.8,-147"/>
<polygon fill="#000000" fill-opacity="0.200000" stroke="#000000" stroke-width="2" stroke-opacity="0.200000" points="704.8,-149.1 710.8,-147 704.8,-144.9 704.8,-149.1"/>
</g>
<!-- src/main/helpers.mjs -->
<g id="node27" class="node">
<title>src/main/helpers.mjs</title>
<g id="a_node27"><a xlink:href="src/main/helpers.mjs" xlink:title="helpers.mjs">
<path fill="#ffffcc" stroke="black" d="M767.21,-389.88C767.21,-389.88 715.79,-389.88 715.79,-389.88 712.83,-389.88 709.88,-386.92 709.88,-383.96 709.88,-383.96 709.88,-378.04 709.88,-378.04 709.88,-375.08 712.83,-372.12 715.79,-372.12 715.79,-372.12 767.21,-372.12 767.21,-372.12 770.17,-372.12 773.12,-375.08 773.12,-378.04 773.12,-378.04 773.12,-383.96 773.12,-383.96 773.12,-386.92 770.17,-389.88 767.21,-389.88"/>
<text text-anchor="start" x="717.88" y="-377.32" font-family="Helvetica,sans-Serif" font-size="9.00">helpers.mjs</text>
</a>
</g>
</g>
<!-- src/main/options/normalize.mjs&#45;&gt;src/main/helpers.mjs -->
<g id="edge31" class="edge">
<title>src/main/options/normalize.mjs&#45;&gt;src/main/helpers.mjs</title>
<path fill="none" stroke="#000000" stroke-width="2" stroke-opacity="0.200000" d="M660.06,-301.96C681.62,-301.96 704.62,-301.96 704.62,-301.96 704.62,-301.96 704.62,-383.96 704.62,-383.96 704.62,-383.96 705.11,-383.96 705.11,-383.96"/>
<polygon fill="#000000" fill-opacity="0.200000" stroke="#000000" stroke-width="2" stroke-opacity="0.200000" points="700.42,-386.06 706.42,-383.96 700.42,-381.86 700.42,-386.06"/>
</g>
<!-- src/main/options/defaults.mjs -->
<g id="node30" class="node">
<title>src/main/options/defaults.mjs</title>
<g id="a_node30"><a xlink:href="src/main/options/defaults.mjs" xlink:title="defaults.mjs">
<path fill="#ffffcc" stroke="black" d="M767.96,-307.88C767.96,-307.88 715.04,-307.88 715.04,-307.88 712.08,-307.88 709.12,-304.92 709.12,-301.96 709.12,-301.96 709.12,-296.04 709.12,-296.04 709.12,-293.08 712.08,-290.12 715.04,-290.12 715.04,-290.12 767.96,-290.12 767.96,-290.12 770.92,-290.12 773.88,-293.08 773.88,-296.04 773.88,-296.04 773.88,-301.96 773.88,-301.96 773.88,-304.92 770.92,-307.88 767.96,-307.88"/>
<text text-anchor="start" x="717.12" y="-295.32" font-family="Helvetica,sans-Serif" font-size="9.00">defaults.mjs</text>
</a>
</g>
</g>
<!-- src/main/options/normalize.mjs&#45;&gt;src/main/options/defaults.mjs -->
<g id="edge32" class="edge">
<title>src/main/options/normalize.mjs&#45;&gt;src/main/options/defaults.mjs</title>
<path fill="none" stroke="#000000" stroke-width="2" stroke-opacity="0.200000" d="M659.93,-296.04C659.93,-296.04 699.7,-296.04 699.7,-296.04"/>
<polygon fill="#000000" fill-opacity="0.200000" stroke="#000000" stroke-width="2" stroke-opacity="0.200000" points="699.7,-298.14 705.7,-296.04 699.7,-293.94 699.7,-298.14"/>
</g>
<!-- src/utl/array&#45;util.mjs -->
<g id="node31" class="node">
<title>src/utl/array&#45;util.mjs</title>
<g id="a_node31"><a xlink:href="src/utl/array-util.mjs" xlink:title="array&#45;util.mjs">
<path fill="#ffffcc" stroke="black" d="M769.83,-71.88C769.83,-71.88 713.17,-71.88 713.17,-71.88 710.21,-71.88 707.25,-68.92 707.25,-65.96 707.25,-65.96 707.25,-60.04 707.25,-60.04 707.25,-57.08 710.21,-54.12 713.17,-54.12 713.17,-54.12 769.83,-54.12 769.83,-54.12 772.79,-54.12 775.75,-57.08 775.75,-60.04 775.75,-60.04 775.75,-65.96 775.75,-65.96 775.75,-68.92 772.79,-71.88 769.83,-71.88"/>
<text text-anchor="start" x="715.25" y="-59.33" font-family="Helvetica,sans-Serif" font-size="9.00">array&#45;util.mjs</text>
</a>
</g>
</g>
<!-- src/main/options/normalize.mjs&#45;&gt;src/utl/array&#45;util.mjs -->
<g id="edge33" class="edge">
<title>src/main/options/normalize.mjs&#45;&gt;src/utl/array&#45;util.mjs</title>
<path fill="none" stroke="#000000" stroke-width="2" stroke-opacity="0.200000" d="M655.62,-289.9C655.62,-246.98 655.62,-66.88 655.62,-66.88 655.62,-66.88 698.04,-66.88 698.04,-66.88"/>
<polygon fill="#000000" fill-opacity="0.200000" stroke="#000000" stroke-width="2" stroke-opacity="0.200000" points="698.04,-68.98 704.04,-66.88 698.04,-64.78 698.04,-68.98"/>
</g>
<!-- src/main/report&#45;wrap.mjs&#45;&gt;src/enrich/summarize/index.mjs -->
<g id="edge34" class="edge">
<title>src/main/report&#45;wrap.mjs&#45;&gt;src/enrich/summarize/index.mjs</title>
<path fill="none" stroke="#000000" stroke-width="2" stroke-opacity="0.200000" d="M663.24,-386.92C676.36,-386.92 687.62,-386.92 687.62,-386.92 687.62,-386.92 687.62,-612.71 687.62,-612.71 687.62,-612.71 704.59,-612.71 704.59,-612.71"/>
<polygon fill="#000000" fill-opacity="0.200000" stroke="#000000" stroke-width="2" stroke-opacity="0.200000" points="704.59,-614.81 710.59,-612.71 704.59,-610.61 704.59,-614.81"/>
</g>
<!-- src/main/report&#45;wrap.mjs&#45;&gt;src/graph&#45;utl/compare.mjs -->
<g id="edge35" class="edge">
<title>src/main/report&#45;wrap.mjs&#45;&gt;src/graph&#45;utl/compare.mjs</title>
<path fill="none" stroke="#000000" stroke-width="2" stroke-opacity="0.200000" d="M663.43,-378.04C680.98,-378.04 697.62,-378.04 697.62,-378.04 697.62,-378.04 697.62,-278.71 697.62,-278.71 697.62,-278.71 823.09,-278.71 823.09,-278.71"/>
<polygon fill="#000000" fill-opacity="0.200000" stroke="#000000" stroke-width="2" stroke-opacity="0.200000" points="823.09,-280.81 829.09,-278.71 823.09,-276.61 823.09,-280.81"/>
</g>
<!-- src/main/report&#45;wrap.mjs&#45;&gt;src/graph&#45;utl/consolidate&#45;to&#45;pattern.mjs -->
<g id="edge36" class="edge">
<title>src/main/report&#45;wrap.mjs&#45;&gt;src/graph&#45;utl/consolidate&#45;to&#45;pattern.mjs</title>
<path fill="none" stroke="#000000" stroke-width="2" stroke-opacity="0.200000" d="M663.24,-381C682.15,-381 700.62,-381 700.62,-381 700.62,-381 700.62,-312.62 700.62,-312.62 700.62,-312.62 796.81,-312.62 796.81,-312.62"/>
<polygon fill="#000000" fill-opacity="0.200000" stroke="#000000" stroke-width="2" stroke-opacity="0.200000" points="796.81,-314.73 802.81,-312.63 796.81,-310.53 796.81,-314.73"/>
</g>
<!-- src/main/report&#45;wrap.mjs&#45;&gt;src/graph&#45;utl/filter&#45;bank.mjs -->
<g id="edge37" class="edge">
<title>src/main/report&#45;wrap.mjs&#45;&gt;src/graph&#45;utl/filter&#45;bank.mjs</title>
<path fill="none" stroke="#000000" stroke-width="2" stroke-opacity="0.200000" d="M610.62,-371.85C610.62,-360.67 610.62,-343.21 610.62,-343.21 610.62,-343.21 820.75,-343.21 820.75,-343.21"/>
<polygon fill="#000000" fill-opacity="0.200000" stroke="#000000" stroke-width="2" stroke-opacity="0.200000" points="820.75,-345.31 826.75,-343.21 820.75,-341.11 820.75,-345.31"/>
</g>
<!-- src/main/report&#45;wrap.mjs&#45;&gt;src/graph&#45;utl/strip&#45;self&#45;transitions.mjs -->
<g id="edge38" class="edge">
<title>src/main/report&#45;wrap.mjs&#45;&gt;src/graph&#45;utl/strip&#45;self&#45;transitions.mjs</title>
<path fill="none" stroke="#000000" stroke-width="2" stroke-opacity="0.200000" d="M636.62,-371.79C636.62,-362.19 636.62,-348.54 636.62,-348.54 636.62,-348.54 820.62,-348.54 820.62,-348.54 820.62,-348.54 820.62,-356.72 820.62,-356.72"/>
<polygon fill="#000000" fill-opacity="0.200000" stroke="#000000" stroke-width="2" stroke-opacity="0.200000" points="818.53,-356.72 820.63,-362.72 822.73,-356.72 818.53,-356.72"/>
</g>
<!-- src/main/report&#45;wrap.mjs&#45;&gt;src/report/index.mjs -->
<g id="edge39" class="edge">
<title>src/main/report&#45;wrap.mjs&#45;&gt;src/report/index.mjs</title>
<path fill="none" stroke="#000000" stroke-width="2" stroke-opacity="0.200000" d="M663.32,-375.08C679.15,-375.08 693.62,-375.08 693.62,-375.08 693.62,-375.08 693.62,-151.44 693.62,-151.44 693.62,-151.44 704.62,-151.44 704.62,-151.44"/>
<polygon fill="#000000" fill-opacity="0.200000" stroke="#000000" stroke-width="2" stroke-opacity="0.200000" points="704.62,-153.54 710.62,-151.44 704.62,-149.34 704.62,-153.54"/>
</g>
<!-- src/main/rule&#45;set/assert&#45;validity.mjs&#45;&gt;src/main/options/assert&#45;validity.mjs -->
<g id="edge43" class="edge">
<title>src/main/rule&#45;set/assert&#45;validity.mjs&#45;&gt;src/main/options/assert&#45;validity.mjs</title>
<path fill="none" stroke="#000000" stroke-width="2" stroke-opacity="0.200000" d="M536.62,-393.9C536.62,-373.59 536.62,-326.32 536.62,-326.32 536.62,-326.32 569.33,-326.32 569.33,-326.32"/>
<polygon fill="#000000" fill-opacity="0.200000" stroke="#000000" stroke-width="2" stroke-opacity="0.200000" points="569.33,-328.43 575.33,-326.33 569.33,-324.23 569.33,-328.43"/>
</g>
<!-- src/main/rule&#45;set/assert&#45;validity.mjs&#45;&gt;src/main/helpers.mjs -->
<g id="edge42" class="edge">
<title>src/main/rule&#45;set/assert&#45;validity.mjs&#45;&gt;src/main/helpers.mjs</title>
<path fill="none" stroke="#000000" stroke-width="2" stroke-opacity="0.200000" d="M539.39,-403C608.33,-403 732.62,-403 732.62,-403 732.62,-403 732.62,-399.23 732.62,-399.23"/>
<polygon fill="#000000" fill-opacity="0.200000" stroke="#000000" stroke-width="2" stroke-opacity="0.200000" points="734.73,-399.23 732.63,-393.23 730.53,-399.23 734.73,-399.23"/>
</g>
<!-- src/schema/configuration.schema.mjs -->
<g id="node32" class="node">
<title>src/schema/configuration.schema.mjs</title>
<g id="a_node32"><a xlink:href="src/schema/configuration.schema.mjs" xlink:title="configuration.schema.mjs">
<path fill="#ffffcc" stroke="black" d="M677.33,-557.88C677.33,-557.88 568.92,-557.88 568.92,-557.88 565.96,-557.88 563,-554.92 563,-551.96 563,-551.96 563,-546.04 563,-546.04 563,-543.08 565.96,-540.12 568.92,-540.12 568.92,-540.12 677.33,-540.12 677.33,-540.12 680.29,-540.12 683.25,-543.08 683.25,-546.04 683.25,-546.04 683.25,-551.96 683.25,-551.96 683.25,-554.92 680.29,-557.88 677.33,-557.88"/>
<text text-anchor="start" x="571" y="-545.33" font-family="Helvetica,sans-Serif" font-size="9.00">configuration.schema.mjs</text>
</a>
</g>
</g>
<!-- src/main/rule&#45;set/assert&#45;validity.mjs&#45;&gt;src/schema/configuration.schema.mjs -->
<g id="edge44" class="edge">
<title>src/main/rule&#45;set/assert&#45;validity.mjs&#45;&gt;src/schema/configuration.schema.mjs</title>
<path fill="none" stroke="#000000" stroke-width="2" stroke-opacity="0.200000" d="M535.62,-412.13C535.62,-444.1 535.62,-549 535.62,-549 535.62,-549 553.8,-549 553.8,-549"/>
<polygon fill="#000000" fill-opacity="0.200000" stroke="#000000" stroke-width="2" stroke-opacity="0.200000" points="553.8,-551.1 559.8,-549 553.8,-546.9 553.8,-551.1"/>
</g>
<!-- src/main/rule&#45;set/normalize.mjs&#45;&gt;src/main/helpers.mjs -->
<g id="edge45" class="edge">
<title>src/main/rule&#45;set/normalize.mjs&#45;&gt;src/main/helpers.mjs</title>
<path fill="none" stroke="#000000" stroke-width="2" stroke-opacity="0.200000" d="M531.45,-433C602.51,-433 751.62,-433 751.62,-433 751.62,-433 751.62,-399.08 751.62,-399.08"/>
<polygon fill="#000000" fill-opacity="0.200000" stroke="#000000" stroke-width="2" stroke-opacity="0.200000" points="753.73,-399.08 751.63,-393.08 749.53,-399.08 753.73,-399.08"/>
</g>
<!-- src/main/index.d.ts -->
<g id="node28" class="node">
<title>src/main/index.d.ts</title>
<g id="a_node28"><a xlink:href="src/main/index.d.ts" xlink:title="index.d.ts">
<path fill="#ccffcc" stroke="black" d="M267.33,-316.88C267.33,-316.88 224.17,-316.88 224.17,-316.88 221.21,-316.88 218.25,-313.92 218.25,-310.96 218.25,-310.96 218.25,-305.04 218.25,-305.04 218.25,-302.08 221.21,-299.12 224.17,-299.12 224.17,-299.12 267.33,-299.12 267.33,-299.12 270.29,-299.12 273.25,-302.08 273.25,-305.04 273.25,-305.04 273.25,-310.96 273.25,-310.96 273.25,-313.92 270.29,-316.88 267.33,-316.88"/>
<text text-anchor="start" x="226.25" y="-304.32" font-family="Helvetica,sans-Serif" font-size="9.00">index.d.ts</text>
</a>
</g>
</g>
</g>
</svg>
