<?xml version="1.0" encoding="UTF-8" standalone="no"?>
<!DOCTYPE svg PUBLIC "-//W3C//DTD SVG 1.1//EN"
 "http://www.w3.org/Graphics/SVG/1.1/DTD/svg11.dtd">
<!-- Generated by graphviz version 10.0.1 (20240210.2158)
 -->
<!-- Title: dependency&#45;cruiser output Pages: 1 -->
<svg width="953pt" height="700pt"
 viewBox="0.00 0.00 952.88 700.00" xmlns="http://www.w3.org/2000/svg" xmlns:xlink="http://www.w3.org/1999/xlink">
<g id="graph0" class="graph" transform="scale(1 1) rotate(0) translate(4 696)">
<title>dependency&#45;cruiser output</title>
<polygon fill="white" stroke="none" points="-4,4 -4,-696 948.88,-696 948.88,4 -4,4"/>
<g id="clust1" class="cluster">
<title>cluster_src</title>
<path fill="#ffffff" stroke="black" stroke-width="2" d="M20,-8C20,-8 924.88,-8 924.88,-8 930.88,-8 936.88,-14 936.88,-20 936.88,-20 936.88,-672 936.88,-672 936.88,-678 930.88,-684 924.88,-684 924.88,-684 20,-684 20,-684 14,-684 8,-678 8,-672 8,-672 8,-20 8,-20 8,-14 14,-8 20,-8"/>
<text text-anchor="middle" x="472.44" y="-671.45" font-family="Helvetica,sans-Serif" font-weight="bold" font-size="9.00">src</text>
</g>
<g id="clust2" class="cluster">
<title>cluster_src/cache</title>
<path fill="#ffffff" stroke="black" stroke-width="2" d="M470,-556C470,-556 519.25,-556 519.25,-556 525.25,-556 531.25,-562 531.25,-568 531.25,-568 531.25,-596 531.25,-596 531.25,-602 525.25,-608 519.25,-608 519.25,-608 470,-608 470,-608 464,-608 458,-602 458,-596 458,-596 458,-568 458,-568 458,-562 464,-556 470,-556"/>
<text text-anchor="middle" x="494.62" y="-595.45" font-family="Helvetica,sans-Serif" font-weight="bold" font-size="9.00">cache</text>
</g>
<g id="clust3" class="cluster">
<title>cluster_src/cli</title>
<path fill="#ffffff" stroke="black" stroke-width="2" d="M28,-278C28,-278 190.25,-278 190.25,-278 196.25,-278 202.25,-284 202.25,-290 202.25,-290 202.25,-348 202.25,-348 202.25,-354 196.25,-360 190.25,-360 190.25,-360 28,-360 28,-360 22,-360 16,-354 16,-348 16,-348 16,-290 16,-290 16,-284 22,-278 28,-278"/>
<text text-anchor="middle" x="109.12" y="-347.45" font-family="Helvetica,sans-Serif" font-weight="bold" font-size="9.00">cli</text>
</g>
<g id="clust4" class="cluster">
<title>cluster_src/config&#45;utl</title>
<path fill="#ffffff" stroke="black" stroke-width="2" d="M301.25,-16C301.25,-16 414.25,-16 414.25,-16 420.25,-16 426.25,-22 426.25,-28 426.25,-28 426.25,-90 426.25,-90 426.25,-96 420.25,-102 414.25,-102 414.25,-102 301.25,-102 301.25,-102 295.25,-102 289.25,-96 289.25,-90 289.25,-90 289.25,-28 289.25,-28 289.25,-22 295.25,-16 301.25,-16"/>
<text text-anchor="middle" x="357.75" y="-89.45" font-family="Helvetica,sans-Serif" font-weight="bold" font-size="9.00">config&#45;utl</text>
</g>
<g id="clust5" class="cluster">
<title>cluster_src/config&#45;utl/extract&#45;depcruise&#45;config</title>
<path fill="#ffffff" stroke="black" stroke-width="2" d="M309.25,-24C309.25,-24 406.25,-24 406.25,-24 412.25,-24 418.25,-30 418.25,-36 418.25,-36 418.25,-64 418.25,-64 418.25,-70 412.25,-76 406.25,-76 406.25,-76 309.25,-76 309.25,-76 303.25,-76 297.25,-70 297.25,-64 297.25,-64 297.25,-36 297.25,-36 297.25,-30 303.25,-24 309.25,-24"/>
<text text-anchor="middle" x="357.75" y="-63.45" font-family="Helvetica,sans-Serif" font-weight="bold" font-size="9.00">extract&#45;depcruise&#45;config</text>
</g>
<g id="clust6" class="cluster">
<title>cluster_src/enrich</title>
<path fill="#ffffff" stroke="black" stroke-width="2" d="M599.62,-418C599.62,-418 766.25,-418 766.25,-418 772.25,-418 778.25,-424 778.25,-430 778.25,-430 778.25,-492 778.25,-492 778.25,-498 772.25,-504 766.25,-504 766.25,-504 599.62,-504 599.62,-504 593.62,-504 587.62,-498 587.62,-492 587.62,-492 587.62,-430 587.62,-430 587.62,-424 593.62,-418 599.62,-418"/>
<text text-anchor="middle" x="682.94" y="-491.45" font-family="Helvetica,sans-Serif" font-weight="bold" font-size="9.00">enrich</text>
</g>
<g id="clust7" class="cluster">
<title>cluster_src/enrich/summarize</title>
<path fill="#ffffff" stroke="black" stroke-width="2" d="M711.25,-426C711.25,-426 758.25,-426 758.25,-426 764.25,-426 770.25,-432 770.25,-438 770.25,-438 770.25,-466 770.25,-466 770.25,-472 764.25,-478 758.25,-478 758.25,-478 711.25,-478 711.25,-478 705.25,-478 699.25,-472 699.25,-466 699.25,-466 699.25,-438 699.25,-438 699.25,-432 705.25,-426 711.25,-426"/>
<text text-anchor="middle" x="734.75" y="-465.45" font-family="Helvetica,sans-Serif" font-weight="bold" font-size="9.00">summarize</text>
</g>
<g id="clust8" class="cluster">
<title>cluster_src/extract</title>
<path fill="#ffffff" stroke="black" stroke-width="2" d="M592.12,-522C592.12,-522 654.12,-522 654.12,-522 660.12,-522 666.12,-528 666.12,-534 666.12,-534 666.12,-622 666.12,-622 666.12,-628 660.12,-634 654.12,-634 654.12,-634 592.12,-634 592.12,-634 586.12,-634 580.12,-628 580.12,-622 580.12,-622 580.12,-534 580.12,-534 580.12,-528 586.12,-522 592.12,-522"/>
<text text-anchor="middle" x="623.12" y="-621.45" font-family="Helvetica,sans-Serif" font-weight="bold" font-size="9.00">extract</text>
</g>
<g id="clust9" class="cluster">
<title>cluster_src/extract/transpile</title>
<path fill="#ffffff" stroke="black" stroke-width="2" d="M600.12,-556C600.12,-556 646.12,-556 646.12,-556 652.12,-556 658.12,-562 658.12,-568 658.12,-568 658.12,-596 658.12,-596 658.12,-602 652.12,-608 646.12,-608 646.12,-608 600.12,-608 600.12,-608 594.12,-608 588.12,-602 588.12,-596 588.12,-596 588.12,-568 588.12,-568 588.12,-562 594.12,-556 600.12,-556"/>
<text text-anchor="middle" x="623.12" y="-595.45" font-family="Helvetica,sans-Serif" font-weight="bold" font-size="9.00">transpile</text>
</g>
<g id="clust10" class="cluster">
<title>cluster_src/graph&#45;utl</title>
<path fill="#ffffff" stroke="black" stroke-width="2" d="M803.12,-87C803.12,-87 916.88,-87 916.88,-87 922.88,-87 928.88,-93 928.88,-99 928.88,-99 928.88,-247 928.88,-247 928.88,-253 922.88,-259 916.88,-259 916.88,-259 803.12,-259 803.12,-259 797.12,-259 791.12,-253 791.12,-247 791.12,-247 791.12,-99 791.12,-99 791.12,-93 797.12,-87 803.12,-87"/>
<text text-anchor="middle" x="860" y="-246.45" font-family="Helvetica,sans-Serif" font-weight="bold" font-size="9.00">graph&#45;utl</text>
</g>
<g id="clust11" class="cluster">
<title>cluster_src/main</title>
<path fill="#ffffff" stroke="black" stroke-width="2" d="M222.25,-110C222.25,-110 771.12,-110 771.12,-110 777.12,-110 783.12,-116 783.12,-122 783.12,-122 783.12,-398 783.12,-398 783.12,-404 777.12,-410 771.12,-410 771.12,-410 222.25,-410 222.25,-410 216.25,-410 210.25,-404 210.25,-398 210.25,-398 210.25,-122 210.25,-122 210.25,-116 216.25,-110 222.25,-110"/>
<text text-anchor="middle" x="496.69" y="-397.45" font-family="Helvetica,sans-Serif" font-weight="bold" font-size="9.00">main</text>
</g>
<g id="clust12" class="cluster">
<title>cluster_src/main/files&#45;and&#45;dirs</title>
<path fill="#ffffff" stroke="black" stroke-width="2" d="M462.12,-242C462.12,-242 527.12,-242 527.12,-242 533.12,-242 539.12,-248 539.12,-254 539.12,-254 539.12,-282 539.12,-282 539.12,-288 533.12,-294 527.12,-294 527.12,-294 462.12,-294 462.12,-294 456.12,-294 450.12,-288 450.12,-282 450.12,-282 450.12,-254 450.12,-254 450.12,-248 456.12,-242 462.12,-242"/>
<text text-anchor="middle" x="494.62" y="-281.45" font-family="Helvetica,sans-Serif" font-weight="bold" font-size="9.00">files&#45;and&#45;dirs</text>
</g>
<g id="clust13" class="cluster">
<title>cluster_src/main/options</title>
<path fill="#ffffff" stroke="black" stroke-width="2" d="M582.75,-176C582.75,-176 763.12,-176 763.12,-176 769.12,-176 775.12,-182 775.12,-188 775.12,-188 775.12,-246 775.12,-246 775.12,-252 769.12,-258 763.12,-258 763.12,-258 582.75,-258 582.75,-258 576.75,-258 570.75,-252 570.75,-246 570.75,-246 570.75,-188 570.75,-188 570.75,-182 576.75,-176 582.75,-176"/>
<text text-anchor="middle" x="672.94" y="-245.45" font-family="Helvetica,sans-Serif" font-weight="bold" font-size="9.00">options</text>
</g>
<g id="clust14" class="cluster">
<title>cluster_src/main/resolve&#45;options</title>
<path fill="#ffffff" stroke="black" stroke-width="2" d="M462.12,-144C462.12,-144 527.12,-144 527.12,-144 533.12,-144 539.12,-150 539.12,-156 539.12,-156 539.12,-184 539.12,-184 539.12,-190 533.12,-196 527.12,-196 527.12,-196 462.12,-196 462.12,-196 456.12,-196 450.12,-190 450.12,-184 450.12,-184 450.12,-156 450.12,-156 450.12,-150 456.12,-144 462.12,-144"/>
<text text-anchor="middle" x="494.62" y="-183.45" font-family="Helvetica,sans-Serif" font-weight="bold" font-size="9.00">resolve&#45;options</text>
</g>
<g id="clust15" class="cluster">
<title>cluster_src/main/rule&#45;set</title>
<path fill="#ffffff" stroke="black" stroke-width="2" d="M454.25,-302C454.25,-302 535,-302 535,-302 541,-302 547,-308 547,-314 547,-314 547,-372 547,-372 547,-378 541,-384 535,-384 535,-384 454.25,-384 454.25,-384 448.25,-384 442.25,-378 442.25,-372 442.25,-372 442.25,-314 442.25,-314 442.25,-308 448.25,-302 454.25,-302"/>
<text text-anchor="middle" x="494.62" y="-371.45" font-family="Helvetica,sans-Serif" font-weight="bold" font-size="9.00">rule&#45;set</text>
</g>
<g id="clust16" class="cluster">
<title>cluster_src/report</title>
<path fill="#ffffff" stroke="black" stroke-width="2" d="M711.25,-50C711.25,-50 758.25,-50 758.25,-50 764.25,-50 770.25,-56 770.25,-62 770.25,-62 770.25,-90 770.25,-90 770.25,-96 764.25,-102 758.25,-102 758.25,-102 711.25,-102 711.25,-102 705.25,-102 699.25,-96 699.25,-90 699.25,-90 699.25,-62 699.25,-62 699.25,-56 705.25,-50 711.25,-50"/>
<text text-anchor="middle" x="734.75" y="-89.45" font-family="Helvetica,sans-Serif" font-weight="bold" font-size="9.00">report</text>
</g>
<g id="clust17" class="cluster">
<title>cluster_src/schema</title>
<path fill="#ffffff" stroke="black" stroke-width="2" d="M567,-16C567,-16 679.25,-16 679.25,-16 685.25,-16 691.25,-22 691.25,-28 691.25,-28 691.25,-86 691.25,-86 691.25,-92 685.25,-98 679.25,-98 679.25,-98 567,-98 567,-98 561,-98 555,-92 555,-86 555,-86 555,-28 555,-28 555,-22 561,-16 567,-16"/>
<text text-anchor="middle" x="623.12" y="-85.45" font-family="Helvetica,sans-Serif" font-weight="bold" font-size="9.00">schema</text>
</g>
<g id="clust18" class="cluster">
<title>cluster_src/utl</title>
<path fill="#ffffff" stroke="black" stroke-width="2" d="M711.75,-564C711.75,-564 757.75,-564 757.75,-564 763.75,-564 769.75,-570 769.75,-576 769.75,-576 769.75,-604 769.75,-604 769.75,-610 763.75,-616 757.75,-616 757.75,-616 711.75,-616 711.75,-616 705.75,-616 699.75,-610 699.75,-604 699.75,-604 699.75,-576 699.75,-576 699.75,-570 705.75,-564 711.75,-564"/>
<text text-anchor="middle" x="734.75" y="-603.45" font-family="Helvetica,sans-Serif" font-weight="bold" font-size="9.00">utl</text>
</g>
<!-- src/cache/cache.mjs -->
<g id="node1" class="node">
<title>src/cache/cache.mjs</title>
<g id="a_node1"><a xlink:href="src/cache/cache.mjs" xlink:title="cache.mjs">
<path fill="#ffffcc" stroke="black" d="M517.33,-581.88C517.33,-581.88 471.92,-581.88 471.92,-581.88 468.96,-581.88 466,-578.92 466,-575.96 466,-575.96 466,-570.04 466,-570.04 466,-567.08 468.96,-564.12 471.92,-564.12 471.92,-564.12 517.33,-564.12 517.33,-564.12 520.29,-564.12 523.25,-567.08 523.25,-570.04 523.25,-570.04 523.25,-575.96 523.25,-575.96 523.25,-578.92 520.29,-581.88 517.33,-581.88"/>
<text text-anchor="start" x="474" y="-569.33" font-family="Helvetica,sans-Serif" font-size="9.00">cache.mjs</text>
</a>
</g>
</g>
<!-- src/extract/transpile/meta.mjs -->
<g id="node2" class="node">
<title>src/extract/transpile/meta.mjs</title>
<g id="a_node2"><a xlink:href="src/extract/transpile/meta.mjs" xlink:title="meta.mjs">
<path fill="#ffffcc" stroke="black" d="M644.21,-581.88C644.21,-581.88 602.04,-581.88 602.04,-581.88 599.08,-581.88 596.12,-578.92 596.12,-575.96 596.12,-575.96 596.12,-570.04 596.12,-570.04 596.12,-567.08 599.08,-564.12 602.04,-564.12 602.04,-564.12 644.21,-564.12 644.21,-564.12 647.17,-564.12 650.12,-567.08 650.12,-570.04 650.12,-570.04 650.12,-575.96 650.12,-575.96 650.12,-578.92 647.17,-581.88 644.21,-581.88"/>
<text text-anchor="start" x="604.75" y="-569.33" font-family="Helvetica,sans-Serif" font-size="9.00">meta.mjs</text>
</a>
</g>
</g>
<!-- src/cache/cache.mjs&#45;&gt;src/extract/transpile/meta.mjs -->
<g id="edge1" class="edge">
<title>src/cache/cache.mjs&#45;&gt;src/extract/transpile/meta.mjs</title>
<path fill="none" stroke="#000000" stroke-width="2" stroke-opacity="0.200000" d="M523.46,-575.96C523.46,-575.96 586.68,-575.96 586.68,-575.96"/>
<polygon fill="#000000" fill-opacity="0.200000" stroke="#000000" stroke-width="2" stroke-opacity="0.200000" points="586.68,-578.06 592.68,-575.96 586.68,-573.86 586.68,-578.06"/>
</g>
<!-- src/utl/bus.mjs -->
<g id="node3" class="node">
<title>src/utl/bus.mjs</title>
<g id="a_node3"><a xlink:href="src/utl/bus.mjs" xlink:title="bus.mjs">
<path fill="#ffffcc" stroke="black" d="M755.83,-589.88C755.83,-589.88 713.67,-589.88 713.67,-589.88 710.71,-589.88 707.75,-586.92 707.75,-583.96 707.75,-583.96 707.75,-578.04 707.75,-578.04 707.75,-575.08 710.71,-572.12 713.67,-572.12 713.67,-572.12 755.83,-572.12 755.83,-572.12 758.79,-572.12 761.75,-575.08 761.75,-578.04 761.75,-578.04 761.75,-583.96 761.75,-583.96 761.75,-586.92 758.79,-589.88 755.83,-589.88"/>
<text text-anchor="start" x="719" y="-577.33" font-family="Helvetica,sans-Serif" font-size="9.00">bus.mjs</text>
</a>
</g>
</g>
<!-- src/cache/cache.mjs&#45;&gt;src/utl/bus.mjs -->
<g id="edge2" class="edge">
<title>src/cache/cache.mjs&#45;&gt;src/utl/bus.mjs</title>
<path fill="none" stroke="#000000" stroke-width="2" stroke-opacity="0.200000" d="M494.88,-582.18C494.88,-583.2 494.88,-583.88 494.88,-583.88 494.88,-583.88 698.67,-583.88 698.67,-583.88"/>
<polygon fill="#000000" fill-opacity="0.200000" stroke="#000000" stroke-width="2" stroke-opacity="0.200000" points="698.67,-585.98 704.67,-583.88 698.67,-581.78 698.67,-585.98"/>
</g>
<!-- src/cli/format&#45;meta&#45;info.mjs -->
<g id="node4" class="node">
<title>src/cli/format&#45;meta&#45;info.mjs</title>
<g id="a_node4"><a xlink:href="src/cli/format-meta-info.mjs" xlink:title="format&#45;meta&#45;info.mjs">
<path fill="#ffffcc" stroke="black" d="M188.33,-333.88C188.33,-333.88 100.92,-333.88 100.92,-333.88 97.96,-333.88 95,-330.92 95,-327.96 95,-327.96 95,-322.04 95,-322.04 95,-319.08 97.96,-316.12 100.92,-316.12 100.92,-316.12 188.33,-316.12 188.33,-316.12 191.29,-316.12 194.25,-319.08 194.25,-322.04 194.25,-322.04 194.25,-327.96 194.25,-327.96 194.25,-330.92 191.29,-333.88 188.33,-333.88"/>
<text text-anchor="start" x="103" y="-321.32" font-family="Helvetica,sans-Serif" font-size="9.00">format&#45;meta&#45;info.mjs</text>
</a>
</g>
</g>
<!-- src/main/index.mjs -->
<g id="node5" class="node">
<title>src/main/index.mjs</title>
<g id="a_node5"><a xlink:href="src/main/index.mjs" xlink:title="index.mjs">
<path fill="#ffffcc" stroke="black" d="M267.33,-333.88C267.33,-333.88 224.17,-333.88 224.17,-333.88 221.21,-333.88 218.25,-330.92 218.25,-327.96 218.25,-327.96 218.25,-322.04 218.25,-322.04 218.25,-319.08 221.21,-316.12 224.17,-316.12 224.17,-316.12 267.33,-316.12 267.33,-316.12 270.29,-316.12 273.25,-319.08 273.25,-322.04 273.25,-322.04 273.25,-327.96 273.25,-327.96 273.25,-330.92 270.29,-333.88 267.33,-333.88"/>
<text text-anchor="start" x="226.25" y="-321.32" font-family="Helvetica,sans-Serif" font-size="9.00">index.mjs</text>
</a>
</g>
</g>
<!-- src/cli/format&#45;meta&#45;info.mjs&#45;&gt;src/main/index.mjs -->
<g id="edge3" class="edge">
<title>src/cli/format&#45;meta&#45;info.mjs&#45;&gt;src/main/index.mjs</title>
<path fill="none" stroke="#000000" stroke-width="2" stroke-opacity="0.200000" d="M194.59,-325C194.59,-325 208.99,-325 208.99,-325"/>
<polygon fill="#000000" fill-opacity="0.200000" stroke="#000000" stroke-width="2" stroke-opacity="0.200000" points="208.99,-327.1 214.99,-325 208.99,-322.9 208.99,-327.1"/>
</g>
<!-- src/main/index.mjs&#45;&gt;src/extract/transpile/meta.mjs -->
<g id="edge29" class="edge">
<title>src/main/index.mjs&#45;&gt;src/extract/transpile/meta.mjs</title>
<path fill="none" stroke="#000000" stroke-width="2" stroke-opacity="0.200000" d="M273.48,-323.96C287.62,-323.96 301.88,-323.96 301.88,-323.96 301.88,-323.96 301.88,-556 301.88,-556 301.88,-556 623.88,-556 623.88,-556 623.88,-556 623.88,-556.77 623.88,-556.77"/>
<polygon fill="#000000" fill-opacity="0.200000" stroke="#000000" stroke-width="2" stroke-opacity="0.200000" points="621.78,-554.68 623.88,-560.68 625.98,-554.68 621.78,-554.68"/>
</g>
<!-- src/main/format.mjs -->
<g id="node7" class="node">
<title>src/main/format.mjs</title>
<g id="a_node7"><a xlink:href="src/main/format.mjs" xlink:title="format.mjs">
<path fill="#ffffcc" stroke="black" d="M517.71,-135.88C517.71,-135.88 471.54,-135.88 471.54,-135.88 468.58,-135.88 465.62,-132.92 465.62,-129.96 465.62,-129.96 465.62,-124.04 465.62,-124.04 465.62,-121.08 468.58,-118.12 471.54,-118.12 471.54,-118.12 517.71,-118.12 517.71,-118.12 520.67,-118.12 523.62,-121.08 523.62,-124.04 523.62,-124.04 523.62,-129.96 523.62,-129.96 523.62,-132.92 520.67,-135.88 517.71,-135.88"/>
<text text-anchor="start" x="473.62" y="-123.33" font-family="Helvetica,sans-Serif" font-size="9.00">format.mjs</text>
</a>
</g>
</g>
<!-- src/main/index.mjs&#45;&gt;src/main/format.mjs -->
<g id="edge28" class="edge">
<title>src/main/index.mjs&#45;&gt;src/main/format.mjs</title>
<path fill="none" stroke="#000000" stroke-width="2" stroke-opacity="0.200000" d="M245.88,-315.85C245.88,-277.29 245.88,-129.96 245.88,-129.96 245.88,-129.96 456.58,-129.96 456.58,-129.96"/>
<polygon fill="#000000" fill-opacity="0.200000" stroke="#000000" stroke-width="2" stroke-opacity="0.200000" points="456.58,-132.06 462.58,-129.96 456.58,-127.86 456.58,-132.06"/>
</g>
<!-- src/main/cruise.mjs -->
<g id="node9" class="node">
<title>src/main/cruise.mjs</title>
<g id="a_node9"><a xlink:href="src/main/cruise.mjs" xlink:title="cruise.mjs">
<path fill="#ffffcc" stroke="black" d="M380.46,-327.88C380.46,-327.88 335.04,-327.88 335.04,-327.88 332.08,-327.88 329.12,-324.92 329.12,-321.96 329.12,-321.96 329.12,-316.04 329.12,-316.04 329.12,-313.08 332.08,-310.12 335.04,-310.12 335.04,-310.12 380.46,-310.12 380.46,-310.12 383.42,-310.12 386.38,-313.08 386.38,-316.04 386.38,-316.04 386.38,-321.96 386.38,-321.96 386.38,-324.92 383.42,-327.88 380.46,-327.88"/>
<text text-anchor="start" x="337.12" y="-315.32" font-family="Helvetica,sans-Serif" font-size="9.00">cruise.mjs</text>
</a>
</g>
</g>
<!-- src/main/index.mjs&#45;&gt;src/main/cruise.mjs -->
<g id="edge27" class="edge">
<title>src/main/index.mjs&#45;&gt;src/main/cruise.mjs</title>
<path fill="none" stroke="#000000" stroke-width="2" stroke-opacity="0.200000" d="M273.72,-320.04C273.72,-320.04 319.94,-320.04 319.94,-320.04"/>
<polygon fill="#000000" fill-opacity="0.200000" stroke="#000000" stroke-width="2" stroke-opacity="0.200000" points="319.94,-322.14 325.94,-320.04 319.94,-317.94 319.94,-322.14"/>
</g>
<!-- src/cli/format.mjs -->
<g id="node6" class="node">
<title>src/cli/format.mjs</title>
<g id="a_node6"><a xlink:href="src/cli/format.mjs" xlink:title="format.mjs">
<path fill="#ffffcc" stroke="black" d="M76.08,-303.88C76.08,-303.88 29.92,-303.88 29.92,-303.88 26.96,-303.88 24,-300.92 24,-297.96 24,-297.96 24,-292.04 24,-292.04 24,-289.08 26.96,-286.12 29.92,-286.12 29.92,-286.12 76.08,-286.12 76.08,-286.12 79.04,-286.12 82,-289.08 82,-292.04 82,-292.04 82,-297.96 82,-297.96 82,-300.92 79.04,-303.88 76.08,-303.88"/>
<text text-anchor="start" x="32" y="-291.32" font-family="Helvetica,sans-Serif" font-size="9.00">format.mjs</text>
</a>
</g>
</g>
<!-- src/cli/format.mjs&#45;&gt;src/main/format.mjs -->
<g id="edge4" class="edge">
<title>src/cli/format.mjs&#45;&gt;src/main/format.mjs</title>
<path fill="none" stroke="#000000" stroke-width="2" stroke-opacity="0.200000" d="M53.88,-285.81C53.88,-250.3 53.88,-124.04 53.88,-124.04 53.88,-124.04 456.34,-124.04 456.34,-124.04"/>
<polygon fill="#000000" fill-opacity="0.200000" stroke="#000000" stroke-width="2" stroke-opacity="0.200000" points="456.34,-126.14 462.34,-124.04 456.34,-121.94 456.34,-126.14"/>
</g>
<!-- src/main/options/assert&#45;validity.mjs -->
<g id="node21" class="node">
<title>src/main/options/assert&#45;validity.mjs</title>
<g id="a_node21"><a xlink:href="src/main/options/assert-validity.mjs" xlink:title="assert&#45;validity.mjs">
<path fill="#ffffcc" stroke="black" d="M661.58,-201.88C661.58,-201.88 584.67,-201.88 584.67,-201.88 581.71,-201.88 578.75,-198.92 578.75,-195.96 578.75,-195.96 578.75,-190.04 578.75,-190.04 578.75,-187.08 581.71,-184.12 584.67,-184.12 584.67,-184.12 661.58,-184.12 661.58,-184.12 664.54,-184.12 667.5,-187.08 667.5,-190.04 667.5,-190.04 667.5,-195.96 667.5,-195.96 667.5,-198.92 664.54,-201.88 661.58,-201.88"/>
<text text-anchor="start" x="586.75" y="-189.32" font-family="Helvetica,sans-Serif" font-size="9.00">assert&#45;validity.mjs</text>
</a>
</g>
</g>
<!-- src/main/format.mjs&#45;&gt;src/main/options/assert&#45;validity.mjs -->
<g id="edge23" class="edge">
<title>src/main/format.mjs&#45;&gt;src/main/options/assert&#45;validity.mjs</title>
<path fill="none" stroke="#000000" stroke-width="2" stroke-opacity="0.200000" d="M524.03,-128.71C540.55,-128.71 557.88,-128.71 557.88,-128.71 557.88,-128.71 557.88,-190.04 557.88,-190.04 557.88,-190.04 569.49,-190.04 569.49,-190.04"/>
<polygon fill="#000000" fill-opacity="0.200000" stroke="#000000" stroke-width="2" stroke-opacity="0.200000" points="569.49,-192.14 575.49,-190.04 569.49,-187.94 569.49,-192.14"/>
</g>
<!-- src/main/options/normalize.mjs -->
<g id="node22" class="node">
<title>src/main/options/normalize.mjs</title>
<g id="a_node22"><a xlink:href="src/main/options/normalize.mjs" xlink:title="normalize.mjs">
<path fill="#ffffcc" stroke="black" d="M653.71,-231.88C653.71,-231.88 592.54,-231.88 592.54,-231.88 589.58,-231.88 586.62,-228.92 586.62,-225.96 586.62,-225.96 586.62,-220.04 586.62,-220.04 586.62,-217.08 589.58,-214.12 592.54,-214.12 592.54,-214.12 653.71,-214.12 653.71,-214.12 656.67,-214.12 659.62,-217.08 659.62,-220.04 659.62,-220.04 659.62,-225.96 659.62,-225.96 659.62,-228.92 656.67,-231.88 653.71,-231.88"/>
<text text-anchor="start" x="594.62" y="-219.32" font-family="Helvetica,sans-Serif" font-size="9.00">normalize.mjs</text>
</a>
</g>
</g>
<!-- src/main/format.mjs&#45;&gt;src/main/options/normalize.mjs -->
<g id="edge24" class="edge">
<title>src/main/format.mjs&#45;&gt;src/main/options/normalize.mjs</title>
<path fill="none" stroke="#000000" stroke-width="2" stroke-opacity="0.200000" d="M523.92,-132.29C538.01,-132.29 551.88,-132.29 551.88,-132.29 551.88,-132.29 551.88,-220.04 551.88,-220.04 551.88,-220.04 577.22,-220.04 577.22,-220.04"/>
<polygon fill="#000000" fill-opacity="0.200000" stroke="#000000" stroke-width="2" stroke-opacity="0.200000" points="577.22,-222.14 583.22,-220.04 577.22,-217.94 577.22,-222.14"/>
</g>
<!-- src/main/report&#45;wrap.mjs -->
<g id="node23" class="node">
<title>src/main/report&#45;wrap.mjs</title>
<g id="a_node23"><a xlink:href="src/main/report-wrap.mjs" xlink:title="report&#45;wrap.mjs">
<path fill="#ffffcc" stroke="black" d="M657.08,-157.88C657.08,-157.88 589.17,-157.88 589.17,-157.88 586.21,-157.88 583.25,-154.92 583.25,-151.96 583.25,-151.96 583.25,-146.04 583.25,-146.04 583.25,-143.08 586.21,-140.12 589.17,-140.12 589.17,-140.12 657.08,-140.12 657.08,-140.12 660.04,-140.12 663,-143.08 663,-146.04 663,-146.04 663,-151.96 663,-151.96 663,-154.92 660.04,-157.88 657.08,-157.88"/>
<text text-anchor="start" x="591.25" y="-145.32" font-family="Helvetica,sans-Serif" font-size="9.00">report&#45;wrap.mjs</text>
</a>
</g>
</g>
<!-- src/main/format.mjs&#45;&gt;src/main/report&#45;wrap.mjs -->
<g id="edge25" class="edge">
<title>src/main/format.mjs&#45;&gt;src/main/report&#45;wrap.mjs</title>
<path fill="none" stroke="#000000" stroke-width="2" stroke-opacity="0.200000" d="M494.88,-136.36C494.88,-140.36 494.88,-144.12 494.88,-144.12 494.88,-144.12 573.87,-144.12 573.87,-144.12"/>
<polygon fill="#000000" fill-opacity="0.200000" stroke="#000000" stroke-width="2" stroke-opacity="0.200000" points="573.87,-146.23 579.87,-144.13 573.87,-142.03 573.87,-146.23"/>
</g>
<!-- src/schema/cruise&#45;result.schema.mjs -->
<g id="node26" class="node">
<title>src/schema/cruise&#45;result.schema.mjs</title>
<g id="a_node26"><a xlink:href="src/schema/cruise-result.schema.mjs" xlink:title="cruise&#45;result.schema.mjs">
<path fill="#ffffcc" stroke="black" d="M675.83,-41.88C675.83,-41.88 570.42,-41.88 570.42,-41.88 567.46,-41.88 564.5,-38.92 564.5,-35.96 564.5,-35.96 564.5,-30.04 564.5,-30.04 564.5,-27.08 567.46,-24.12 570.42,-24.12 570.42,-24.12 675.83,-24.12 675.83,-24.12 678.79,-24.12 681.75,-27.08 681.75,-30.04 681.75,-30.04 681.75,-35.96 681.75,-35.96 681.75,-38.92 678.79,-41.88 675.83,-41.88"/>
<text text-anchor="start" x="572.5" y="-29.32" font-family="Helvetica,sans-Serif" font-size="9.00">cruise&#45;result.schema.mjs</text>
</a>
</g>
</g>
<!-- src/main/format.mjs&#45;&gt;src/schema/cruise&#45;result.schema.mjs -->
<g id="edge26" class="edge">
<title>src/main/format.mjs&#45;&gt;src/schema/cruise&#45;result.schema.mjs</title>
<path fill="none" stroke="#000000" stroke-width="2" stroke-opacity="0.200000" d="M494.88,-117.71C494.88,-94.71 494.88,-37 494.88,-37 494.88,-37 555.23,-37 555.23,-37"/>
<polygon fill="#000000" fill-opacity="0.200000" stroke="#000000" stroke-width="2" stroke-opacity="0.200000" points="555.23,-39.1 561.23,-37 555.23,-34.9 555.23,-39.1"/>
</g>
<!-- src/cli/index.mjs -->
<g id="node8" class="node">
<title>src/cli/index.mjs</title>
<g id="a_node8"><a xlink:href="src/cli/index.mjs" xlink:title="index.mjs">
<path fill="#ffffcc" stroke="black" d="M74.58,-333.88C74.58,-333.88 31.42,-333.88 31.42,-333.88 28.46,-333.88 25.5,-330.92 25.5,-327.96 25.5,-327.96 25.5,-322.04 25.5,-322.04 25.5,-319.08 28.46,-316.12 31.42,-316.12 31.42,-316.12 74.58,-316.12 74.58,-316.12 77.54,-316.12 80.5,-319.08 80.5,-322.04 80.5,-322.04 80.5,-327.96 80.5,-327.96 80.5,-330.92 77.54,-333.88 74.58,-333.88"/>
<text text-anchor="start" x="33.5" y="-321.32" font-family="Helvetica,sans-Serif" font-size="9.00">index.mjs</text>
</a>
</g>
</g>
<!-- src/cli/index.mjs&#45;&gt;src/utl/bus.mjs -->
<g id="edge7" class="edge">
<title>src/cli/index.mjs&#45;&gt;src/utl/bus.mjs</title>
<path fill="none" stroke="#000000" stroke-width="2" stroke-opacity="0.200000" d="M43.88,-334.36C43.88,-381.18 43.88,-587.88 43.88,-587.88 43.88,-587.88 698.64,-587.88 698.64,-587.88"/>
<polygon fill="#000000" fill-opacity="0.200000" stroke="#000000" stroke-width="2" stroke-opacity="0.200000" points="698.64,-589.98 704.64,-587.88 698.64,-585.78 698.64,-589.98"/>
</g>
<!-- src/cli/index.mjs&#45;&gt;src/cli/format&#45;meta&#45;info.mjs -->
<g id="edge5" class="edge">
<title>src/cli/index.mjs&#45;&gt;src/cli/format&#45;meta&#45;info.mjs</title>
<path fill="none" stroke="#000000" stroke-width="2" stroke-dasharray="5,2" stroke-opacity="0.200000" d="M80.99,-325C80.99,-325 85.81,-325 85.81,-325"/>
<polygon fill="#000000" fill-opacity="0.200000" stroke="#000000" stroke-width="2" stroke-opacity="0.200000" points="85.81,-327.1 91.81,-325 85.81,-322.9 85.81,-327.1"/>
</g>
<!-- src/cli/index.mjs&#45;&gt;src/main/cruise.mjs -->
<g id="edge6" class="edge">
<title>src/cli/index.mjs&#45;&gt;src/main/cruise.mjs</title>
<path fill="none" stroke="#000000" stroke-width="2" stroke-opacity="0.200000" d="M62.88,-334.27C62.88,-339.28 62.88,-344.46 62.88,-344.46 62.88,-344.46 337.88,-344.46 337.88,-344.46 337.88,-344.46 337.88,-337.22 337.88,-337.22"/>
<polygon fill="#000000" fill-opacity="0.200000" stroke="#000000" stroke-width="2" stroke-opacity="0.200000" points="339.98,-337.22 337.88,-331.22 335.78,-337.22 339.98,-337.22"/>
</g>
<!-- src/main/cruise.mjs&#45;&gt;src/cache/cache.mjs -->
<g id="edge19" class="edge">
<title>src/main/cruise.mjs&#45;&gt;src/cache/cache.mjs</title>
<path fill="none" stroke="#000000" stroke-width="2" stroke-dasharray="5,2" stroke-opacity="0.200000" d="M353.88,-328.34C353.88,-374.17 353.88,-573 353.88,-573 353.88,-573 456.78,-573 456.78,-573"/>
<polygon fill="#000000" fill-opacity="0.200000" stroke="#000000" stroke-width="2" stroke-opacity="0.200000" points="456.78,-575.1 462.78,-573 456.78,-570.9 456.78,-575.1"/>
</g>
<!-- src/main/cruise.mjs&#45;&gt;src/utl/bus.mjs -->
<g id="edge22" class="edge">
<title>src/main/cruise.mjs&#45;&gt;src/utl/bus.mjs</title>
<path fill="none" stroke="#000000" stroke-width="2" stroke-opacity="0.200000" d="M345.88,-328.19C345.88,-375.11 345.88,-585.88 345.88,-585.88 345.88,-585.88 698.38,-585.88 698.38,-585.88"/>
<polygon fill="#000000" fill-opacity="0.200000" stroke="#000000" stroke-width="2" stroke-opacity="0.200000" points="698.38,-587.98 704.38,-585.88 698.38,-583.78 698.38,-587.98"/>
</g>
<!-- src/main/resolve&#45;options/normalize.mjs -->
<g id="node11" class="node">
<title>src/main/resolve&#45;options/normalize.mjs</title>
<g id="a_node11"><a xlink:href="src/main/resolve-options/normalize.mjs" xlink:title="normalize.mjs">
<path fill="#ffffcc" stroke="black" d="M525.21,-169.88C525.21,-169.88 464.04,-169.88 464.04,-169.88 461.08,-169.88 458.12,-166.92 458.12,-163.96 458.12,-163.96 458.12,-158.04 458.12,-158.04 458.12,-155.08 461.08,-152.12 464.04,-152.12 464.04,-152.12 525.21,-152.12 525.21,-152.12 528.17,-152.12 531.12,-155.08 531.12,-158.04 531.12,-158.04 531.12,-163.96 531.12,-163.96 531.12,-166.92 528.17,-169.88 525.21,-169.88"/>
<text text-anchor="start" x="466.12" y="-157.32" font-family="Helvetica,sans-Serif" font-size="9.00">normalize.mjs</text>
</a>
</g>
</g>
<!-- src/main/cruise.mjs&#45;&gt;src/main/resolve&#45;options/normalize.mjs -->
<g id="edge16" class="edge">
<title>src/main/cruise.mjs&#45;&gt;src/main/resolve&#45;options/normalize.mjs</title>
<path fill="none" stroke="#000000" stroke-width="2" stroke-dasharray="5,2" stroke-opacity="0.200000" d="M348.88,-310.05C348.88,-276.63 348.88,-161 348.88,-161 348.88,-161 448.82,-161 448.82,-161"/>
<polygon fill="#000000" fill-opacity="0.200000" stroke="#000000" stroke-width="2" stroke-opacity="0.200000" points="448.82,-163.1 454.82,-161 448.82,-158.9 448.82,-163.1"/>
</g>
<!-- src/enrich/index.mjs -->
<g id="node12" class="node">
<title>src/enrich/index.mjs</title>
<g id="a_node12"><a xlink:href="src/enrich/index.mjs" xlink:title="index.mjs">
<path fill="#ffffcc" stroke="black" d="M644.71,-447.88C644.71,-447.88 601.54,-447.88 601.54,-447.88 598.58,-447.88 595.62,-444.92 595.62,-441.96 595.62,-441.96 595.62,-436.04 595.62,-436.04 595.62,-433.08 598.58,-430.12 601.54,-430.12 601.54,-430.12 644.71,-430.12 644.71,-430.12 647.67,-430.12 650.62,-433.08 650.62,-436.04 650.62,-436.04 650.62,-441.96 650.62,-441.96 650.62,-444.92 647.67,-447.88 644.71,-447.88"/>
<text text-anchor="start" x="603.62" y="-435.32" font-family="Helvetica,sans-Serif" font-size="9.00">index.mjs</text>
</a>
</g>
</g>
<!-- src/main/cruise.mjs&#45;&gt;src/enrich/index.mjs -->
<g id="edge20" class="edge">
<title>src/main/cruise.mjs&#45;&gt;src/enrich/index.mjs</title>
<path fill="none" stroke="#000000" stroke-width="2" stroke-dasharray="5,2" stroke-opacity="0.200000" d="M370.88,-328.02C370.88,-355.93 370.88,-439 370.88,-439 370.88,-439 586.14,-439 586.14,-439"/>
<polygon fill="#000000" fill-opacity="0.200000" stroke="#000000" stroke-width="2" stroke-opacity="0.200000" points="586.14,-441.1 592.14,-439 586.14,-436.9 586.14,-441.1"/>
</g>
<!-- src/extract/index.mjs -->
<g id="node15" class="node">
<title>src/extract/index.mjs</title>
<g id="a_node15"><a xlink:href="src/extract/index.mjs" xlink:title="index.mjs">
<path fill="#ffffcc" stroke="black" d="M644.71,-547.88C644.71,-547.88 601.54,-547.88 601.54,-547.88 598.58,-547.88 595.62,-544.92 595.62,-541.96 595.62,-541.96 595.62,-536.04 595.62,-536.04 595.62,-533.08 598.58,-530.12 601.54,-530.12 601.54,-530.12 644.71,-530.12 644.71,-530.12 647.67,-530.12 650.62,-533.08 650.62,-536.04 650.62,-536.04 650.62,-541.96 650.62,-541.96 650.62,-544.92 647.67,-547.88 644.71,-547.88"/>
<text text-anchor="start" x="603.62" y="-535.33" font-family="Helvetica,sans-Serif" font-size="9.00">index.mjs</text>
</a>
</g>
</g>
<!-- src/main/cruise.mjs&#45;&gt;src/extract/index.mjs -->
<g id="edge21" class="edge">
<title>src/main/cruise.mjs&#45;&gt;src/extract/index.mjs</title>
<path fill="none" stroke="#000000" stroke-width="2" stroke-dasharray="5,2" stroke-opacity="0.200000" d="M361.88,-328.17C361.88,-369.81 361.88,-539 361.88,-539 361.88,-539 586.14,-539 586.14,-539"/>
<polygon fill="#000000" fill-opacity="0.200000" stroke="#000000" stroke-width="2" stroke-opacity="0.200000" points="586.14,-541.1 592.14,-539 586.14,-536.9 586.14,-541.1"/>
</g>
<!-- src/main/files&#45;and&#45;dirs/normalize.mjs -->
<g id="node20" class="node">
<title>src/main/files&#45;and&#45;dirs/normalize.mjs</title>
<g id="a_node20"><a xlink:href="src/main/files-and-dirs/normalize.mjs" xlink:title="normalize.mjs">
<path fill="#ffffcc" stroke="black" d="M525.21,-267.88C525.21,-267.88 464.04,-267.88 464.04,-267.88 461.08,-267.88 458.12,-264.92 458.12,-261.96 458.12,-261.96 458.12,-256.04 458.12,-256.04 458.12,-253.08 461.08,-250.12 464.04,-250.12 464.04,-250.12 525.21,-250.12 525.21,-250.12 528.17,-250.12 531.12,-253.08 531.12,-256.04 531.12,-256.04 531.12,-261.96 531.12,-261.96 531.12,-264.92 528.17,-267.88 525.21,-267.88"/>
<text text-anchor="start" x="466.12" y="-255.32" font-family="Helvetica,sans-Serif" font-size="9.00">normalize.mjs</text>
</a>
</g>
</g>
<!-- src/main/cruise.mjs&#45;&gt;src/main/files&#45;and&#45;dirs/normalize.mjs -->
<g id="edge12" class="edge">
<title>src/main/cruise.mjs&#45;&gt;src/main/files&#45;and&#45;dirs/normalize.mjs</title>
<path fill="none" stroke="#000000" stroke-width="2" stroke-dasharray="5,2" stroke-opacity="0.200000" d="M376.88,-309.62C376.88,-292.75 376.88,-259 376.88,-259 376.88,-259 448.66,-259 448.66,-259"/>
<polygon fill="#000000" fill-opacity="0.200000" stroke="#000000" stroke-width="2" stroke-opacity="0.200000" points="448.66,-261.1 454.66,-259 448.66,-256.9 448.66,-261.1"/>
</g>
<!-- src/main/cruise.mjs&#45;&gt;src/main/options/assert&#45;validity.mjs -->
<g id="edge13" class="edge">
<title>src/main/cruise.mjs&#45;&gt;src/main/options/assert&#45;validity.mjs</title>
<path fill="none" stroke="#000000" stroke-width="2" stroke-opacity="0.200000" d="M357.88,-309.75C357.88,-281.14 357.88,-195.96 357.88,-195.96 357.88,-195.96 569.4,-195.96 569.4,-195.96"/>
<polygon fill="#000000" fill-opacity="0.200000" stroke="#000000" stroke-width="2" stroke-opacity="0.200000" points="569.4,-198.06 575.4,-195.96 569.4,-193.86 569.4,-198.06"/>
</g>
<!-- src/main/cruise.mjs&#45;&gt;src/main/options/normalize.mjs -->
<g id="edge14" class="edge">
<title>src/main/cruise.mjs&#45;&gt;src/main/options/normalize.mjs</title>
<path fill="none" stroke="#000000" stroke-width="2" stroke-opacity="0.200000" d="M367.88,-309.74C367.88,-286.2 367.88,-225.96 367.88,-225.96 367.88,-225.96 577.25,-225.96 577.25,-225.96"/>
<polygon fill="#000000" fill-opacity="0.200000" stroke="#000000" stroke-width="2" stroke-opacity="0.200000" points="577.25,-228.06 583.25,-225.96 577.25,-223.86 577.25,-228.06"/>
</g>
<!-- src/main/cruise.mjs&#45;&gt;src/main/report&#45;wrap.mjs -->
<g id="edge15" class="edge">
<title>src/main/cruise.mjs&#45;&gt;src/main/report&#45;wrap.mjs</title>
<path fill="none" stroke="#000000" stroke-width="2" stroke-opacity="0.200000" d="M339.88,-309.81C339.88,-274.32 339.88,-148.12 339.88,-148.12 339.88,-148.12 573.82,-148.12 573.82,-148.12"/>
<polygon fill="#000000" fill-opacity="0.200000" stroke="#000000" stroke-width="2" stroke-opacity="0.200000" points="573.82,-150.23 579.82,-148.13 573.82,-146.03 573.82,-150.23"/>
</g>
<!-- src/main/rule&#45;set/assert&#45;validity.mjs -->
<g id="node24" class="node">
<title>src/main/rule&#45;set/assert&#45;validity.mjs</title>
<g id="a_node24"><a xlink:href="src/main/rule-set/assert-validity.mjs" xlink:title="assert&#45;validity.mjs">
<path fill="#ffffcc" stroke="black" d="M533.08,-327.88C533.08,-327.88 456.17,-327.88 456.17,-327.88 453.21,-327.88 450.25,-324.92 450.25,-321.96 450.25,-321.96 450.25,-316.04 450.25,-316.04 450.25,-313.08 453.21,-310.12 456.17,-310.12 456.17,-310.12 533.08,-310.12 533.08,-310.12 536.04,-310.12 539,-313.08 539,-316.04 539,-316.04 539,-321.96 539,-321.96 539,-324.92 536.04,-327.88 533.08,-327.88"/>
<text text-anchor="start" x="458.25" y="-315.32" font-family="Helvetica,sans-Serif" font-size="9.00">assert&#45;validity.mjs</text>
</a>
</g>
</g>
<!-- src/main/cruise.mjs&#45;&gt;src/main/rule&#45;set/assert&#45;validity.mjs -->
<g id="edge17" class="edge">
<title>src/main/cruise.mjs&#45;&gt;src/main/rule&#45;set/assert&#45;validity.mjs</title>
<path fill="none" stroke="#000000" stroke-width="2" stroke-dasharray="5,2" stroke-opacity="0.200000" d="M386.78,-319C386.78,-319 440.98,-319 440.98,-319"/>
<polygon fill="#000000" fill-opacity="0.200000" stroke="#000000" stroke-width="2" stroke-opacity="0.200000" points="440.98,-321.1 446.98,-319 440.98,-316.9 440.98,-321.1"/>
</g>
<!-- src/main/rule&#45;set/normalize.mjs -->
<g id="node25" class="node">
<title>src/main/rule&#45;set/normalize.mjs</title>
<g id="a_node25"><a xlink:href="src/main/rule-set/normalize.mjs" xlink:title="normalize.mjs">
<path fill="#ffffcc" stroke="black" d="M525.21,-357.88C525.21,-357.88 464.04,-357.88 464.04,-357.88 461.08,-357.88 458.12,-354.92 458.12,-351.96 458.12,-351.96 458.12,-346.04 458.12,-346.04 458.12,-343.08 461.08,-340.12 464.04,-340.12 464.04,-340.12 525.21,-340.12 525.21,-340.12 528.17,-340.12 531.12,-343.08 531.12,-346.04 531.12,-346.04 531.12,-351.96 531.12,-351.96 531.12,-354.92 528.17,-357.88 525.21,-357.88"/>
<text text-anchor="start" x="466.12" y="-345.32" font-family="Helvetica,sans-Serif" font-size="9.00">normalize.mjs</text>
</a>
</g>
</g>
<!-- src/main/cruise.mjs&#45;&gt;src/main/rule&#45;set/normalize.mjs -->
<g id="edge18" class="edge">
<title>src/main/cruise.mjs&#45;&gt;src/main/rule&#45;set/normalize.mjs</title>
<path fill="none" stroke="#000000" stroke-width="2" stroke-dasharray="5,2" stroke-opacity="0.200000" d="M378.88,-328.1C378.88,-336.86 378.88,-348.79 378.88,-348.79 378.88,-348.79 448.66,-348.79 448.66,-348.79"/>
<polygon fill="#000000" fill-opacity="0.200000" stroke="#000000" stroke-width="2" stroke-opacity="0.200000" points="448.66,-350.89 454.66,-348.79 448.66,-346.69 448.66,-350.89"/>
</g>
<!-- src/config&#45;utl/extract&#45;depcruise&#45;config/index.mjs -->
<g id="node10" class="node">
<title>src/config&#45;utl/extract&#45;depcruise&#45;config/index.mjs</title>
<g id="a_node10"><a xlink:href="src/config-utl/extract-depcruise-config/index.mjs" xlink:title="index.mjs">
<path fill="#ffffcc" stroke="black" d="M379.33,-49.88C379.33,-49.88 336.17,-49.88 336.17,-49.88 333.21,-49.88 330.25,-46.92 330.25,-43.96 330.25,-43.96 330.25,-38.04 330.25,-38.04 330.25,-35.08 333.21,-32.12 336.17,-32.12 336.17,-32.12 379.33,-32.12 379.33,-32.12 382.29,-32.12 385.25,-35.08 385.25,-38.04 385.25,-38.04 385.25,-43.96 385.25,-43.96 385.25,-46.92 382.29,-49.88 379.33,-49.88"/>
<text text-anchor="start" x="338.25" y="-37.33" font-family="Helvetica,sans-Serif" font-size="9.00">index.mjs</text>
</a>
</g>
</g>
<!-- src/config&#45;utl/extract&#45;depcruise&#45;config/index.mjs&#45;&gt;src/main/resolve&#45;options/normalize.mjs -->
<g id="edge8" class="edge">
<title>src/config&#45;utl/extract&#45;depcruise&#45;config/index.mjs&#45;&gt;src/main/resolve&#45;options/normalize.mjs</title>
<path fill="none" stroke="#000000" stroke-width="2" stroke-opacity="0.200000" d="M385.65,-45.88C416.5,-45.88 461.88,-45.88 461.88,-45.88 461.88,-45.88 461.88,-142.94 461.88,-142.94"/>
<polygon fill="#000000" fill-opacity="0.200000" stroke="#000000" stroke-width="2" stroke-opacity="0.200000" points="459.78,-142.94 461.88,-148.94 463.98,-142.94 459.78,-142.94"/>
</g>
<!-- src/main/resolve&#45;options/normalize.mjs&#45;&gt;src/extract/transpile/meta.mjs -->
<g id="edge39" class="edge">
<title>src/main/resolve&#45;options/normalize.mjs&#45;&gt;src/extract/transpile/meta.mjs</title>
<path fill="none" stroke="#000000" stroke-width="2" stroke-opacity="0.200000" d="M531.6,-161.88C539.68,-161.88 545.88,-161.88 545.88,-161.88 545.88,-161.88 545.88,-570.04 545.88,-570.04 545.88,-570.04 586.64,-570.04 586.64,-570.04"/>
<polygon fill="#000000" fill-opacity="0.200000" stroke="#000000" stroke-width="2" stroke-opacity="0.200000" points="586.64,-572.14 592.64,-570.04 586.64,-567.94 586.64,-572.14"/>
</g>
<!-- src/graph&#45;utl/rule&#45;set.mjs -->
<g id="node18" class="node">
<title>src/graph&#45;utl/rule&#45;set.mjs</title>
<g id="a_node18"><a xlink:href="src/graph-utl/rule-set.mjs" xlink:title="rule&#45;set.mjs">
<path fill="#ffffcc" stroke="black" d="M885.71,-112.88C885.71,-112.88 834.29,-112.88 834.29,-112.88 831.33,-112.88 828.38,-109.92 828.38,-106.96 828.38,-106.96 828.38,-101.04 828.38,-101.04 828.38,-98.08 831.33,-95.12 834.29,-95.12 834.29,-95.12 885.71,-95.12 885.71,-95.12 888.67,-95.12 891.62,-98.08 891.62,-101.04 891.62,-101.04 891.62,-106.96 891.62,-106.96 891.62,-109.92 888.67,-112.88 885.71,-112.88"/>
<text text-anchor="start" x="836.38" y="-100.33" font-family="Helvetica,sans-Serif" font-size="9.00">rule&#45;set.mjs</text>
</a>
</g>
</g>
<!-- src/main/resolve&#45;options/normalize.mjs&#45;&gt;src/graph&#45;utl/rule&#45;set.mjs -->
<g id="edge40" class="edge">
<title>src/main/resolve&#45;options/normalize.mjs&#45;&gt;src/graph&#45;utl/rule&#45;set.mjs</title>
<path fill="none" stroke="#000000" stroke-width="2" stroke-opacity="0.200000" d="M527.88,-151.84C527.88,-135.73 527.88,-104 527.88,-104 527.88,-104 819.13,-104 819.13,-104"/>
<polygon fill="#000000" fill-opacity="0.200000" stroke="#000000" stroke-width="2" stroke-opacity="0.200000" points="819.13,-106.1 825.13,-104 819.13,-101.9 819.13,-106.1"/>
</g>
<!-- src/enrich/summarize/index.mjs -->
<g id="node13" class="node">
<title>src/enrich/summarize/index.mjs</title>
<g id="a_node13"><a xlink:href="src/enrich/summarize/index.mjs" xlink:title="index.mjs">
<path fill="#ffffcc" stroke="black" d="M756.33,-451.88C756.33,-451.88 713.17,-451.88 713.17,-451.88 710.21,-451.88 707.25,-448.92 707.25,-445.96 707.25,-445.96 707.25,-440.04 707.25,-440.04 707.25,-437.08 710.21,-434.12 713.17,-434.12 713.17,-434.12 756.33,-434.12 756.33,-434.12 759.29,-434.12 762.25,-437.08 762.25,-440.04 762.25,-440.04 762.25,-445.96 762.25,-445.96 762.25,-448.92 759.29,-451.88 756.33,-451.88"/>
<text text-anchor="start" x="715.25" y="-439.32" font-family="Helvetica,sans-Serif" font-size="9.00">index.mjs</text>
</a>
</g>
</g>
<!-- src/enrich/index.mjs&#45;&gt;src/enrich/summarize/index.mjs -->
<g id="edge9" class="edge">
<title>src/enrich/index.mjs&#45;&gt;src/enrich/summarize/index.mjs</title>
<path fill="none" stroke="#000000" stroke-width="2" stroke-opacity="0.200000" d="M651,-443.29C651,-443.29 697.81,-443.29 697.81,-443.29"/>
<polygon fill="#000000" fill-opacity="0.200000" stroke="#000000" stroke-width="2" stroke-opacity="0.200000" points="697.81,-445.39 703.81,-443.29 697.81,-441.19 697.81,-445.39"/>
</g>
<!-- src/graph&#45;utl/compare.mjs -->
<g id="node14" class="node">
<title>src/graph&#45;utl/compare.mjs</title>
<g id="a_node14"><a xlink:href="src/graph-utl/compare.mjs" xlink:title="compare.mjs">
<path fill="#ffffcc" stroke="black" d="M888.33,-232.88C888.33,-232.88 831.67,-232.88 831.67,-232.88 828.71,-232.88 825.75,-229.92 825.75,-226.96 825.75,-226.96 825.75,-221.04 825.75,-221.04 825.75,-218.08 828.71,-215.12 831.67,-215.12 831.67,-215.12 888.33,-215.12 888.33,-215.12 891.29,-215.12 894.25,-218.08 894.25,-221.04 894.25,-221.04 894.25,-226.96 894.25,-226.96 894.25,-229.92 891.29,-232.88 888.33,-232.88"/>
<text text-anchor="start" x="833.75" y="-220.32" font-family="Helvetica,sans-Serif" font-size="9.00">compare.mjs</text>
</a>
</g>
</g>
<!-- src/enrich/summarize/index.mjs&#45;&gt;src/graph&#45;utl/compare.mjs -->
<g id="edge10" class="edge">
<title>src/enrich/summarize/index.mjs&#45;&gt;src/graph&#45;utl/compare.mjs</title>
<path fill="none" stroke="#000000" stroke-width="2" stroke-opacity="0.200000" d="M762.74,-443C799.9,-443 860.88,-443 860.88,-443 860.88,-443 860.88,-242.16 860.88,-242.16"/>
<polygon fill="#000000" fill-opacity="0.200000" stroke="#000000" stroke-width="2" stroke-opacity="0.200000" points="862.98,-242.16 860.88,-236.16 858.78,-242.16 862.98,-242.16"/>
</g>
<!-- src/extract/index.mjs&#45;&gt;src/utl/bus.mjs -->
<g id="edge11" class="edge">
<title>src/extract/index.mjs&#45;&gt;src/utl/bus.mjs</title>
<path fill="none" stroke="#000000" stroke-width="2" stroke-opacity="0.200000" d="M651.04,-539C684.14,-539 734.88,-539 734.88,-539 734.88,-539 734.88,-562.65 734.88,-562.65"/>
<polygon fill="#000000" fill-opacity="0.200000" stroke="#000000" stroke-width="2" stroke-opacity="0.200000" points="732.78,-562.65 734.88,-568.65 736.98,-562.65 732.78,-562.65"/>
</g>
<!-- src/graph&#45;utl/consolidate&#45;to&#45;pattern.mjs -->
<g id="node16" class="node">
<title>src/graph&#45;utl/consolidate&#45;to&#45;pattern.mjs</title>
<g id="a_node16"><a xlink:href="src/graph-utl/consolidate-to-pattern.mjs" xlink:title="consolidate&#45;to&#45;pattern.mjs">
<path fill="#ffffcc" stroke="black" d="M914.96,-142.88C914.96,-142.88 805.04,-142.88 805.04,-142.88 802.08,-142.88 799.12,-139.92 799.12,-136.96 799.12,-136.96 799.12,-131.04 799.12,-131.04 799.12,-128.08 802.08,-125.12 805.04,-125.12 805.04,-125.12 914.96,-125.12 914.96,-125.12 917.92,-125.12 920.88,-128.08 920.88,-131.04 920.88,-131.04 920.88,-136.96 920.88,-136.96 920.88,-139.92 917.92,-142.88 914.96,-142.88"/>
<text text-anchor="start" x="807.12" y="-130.32" font-family="Helvetica,sans-Serif" font-size="9.00">consolidate&#45;to&#45;pattern.mjs</text>
</a>
</g>
</g>
<!-- src/graph&#45;utl/filter&#45;bank.mjs -->
<g id="node17" class="node">
<title>src/graph&#45;utl/filter&#45;bank.mjs</title>
<g id="a_node17"><a xlink:href="src/graph-utl/filter-bank.mjs" xlink:title="filter&#45;bank.mjs">
<path fill="#ffffcc" stroke="black" d="M890.58,-172.88C890.58,-172.88 829.42,-172.88 829.42,-172.88 826.46,-172.88 823.5,-169.92 823.5,-166.96 823.5,-166.96 823.5,-161.04 823.5,-161.04 823.5,-158.08 826.46,-155.12 829.42,-155.12 829.42,-155.12 890.58,-155.12 890.58,-155.12 893.54,-155.12 896.5,-158.08 896.5,-161.04 896.5,-161.04 896.5,-166.96 896.5,-166.96 896.5,-169.92 893.54,-172.88 890.58,-172.88"/>
<text text-anchor="start" x="831.5" y="-160.32" font-family="Helvetica,sans-Serif" font-size="9.00">filter&#45;bank.mjs</text>
</a>
</g>
</g>
<!-- src/graph&#45;utl/strip&#45;self&#45;transitions.mjs -->
<g id="node19" class="node">
<title>src/graph&#45;utl/strip&#45;self&#45;transitions.mjs</title>
<g id="a_node19"><a xlink:href="src/graph-utl/strip-self-transitions.mjs" xlink:title="strip&#45;self&#45;transitions.mjs">
<path fill="#ffffcc" stroke="black" d="M910.08,-202.88C910.08,-202.88 809.92,-202.88 809.92,-202.88 806.96,-202.88 804,-199.92 804,-196.96 804,-196.96 804,-191.04 804,-191.04 804,-188.08 806.96,-185.12 809.92,-185.12 809.92,-185.12 910.08,-185.12 910.08,-185.12 913.04,-185.12 916,-188.08 916,-191.04 916,-191.04 916,-196.96 916,-196.96 916,-199.92 913.04,-202.88 910.08,-202.88"/>
<text text-anchor="start" x="812" y="-190.32" font-family="Helvetica,sans-Serif" font-size="9.00">strip&#45;self&#45;transitions.mjs</text>
</a>
</g>
</g>
<!-- src/report/index.mjs -->
<g id="node29" class="node">
<title>src/report/index.mjs</title>
<g id="a_node29"><a xlink:href="src/report/index.mjs" xlink:title="index.mjs">
<path fill="#ffffcc" stroke="black" d="M756.33,-75.88C756.33,-75.88 713.17,-75.88 713.17,-75.88 710.21,-75.88 707.25,-72.92 707.25,-69.96 707.25,-69.96 707.25,-64.04 707.25,-64.04 707.25,-61.08 710.21,-58.12 713.17,-58.12 713.17,-58.12 756.33,-58.12 756.33,-58.12 759.29,-58.12 762.25,-61.08 762.25,-64.04 762.25,-64.04 762.25,-69.96 762.25,-69.96 762.25,-72.92 759.29,-75.88 756.33,-75.88"/>
<text text-anchor="start" x="715.25" y="-63.33" font-family="Helvetica,sans-Serif" font-size="9.00">index.mjs</text>
</a>
</g>
</g>
<!-- src/main/options/assert&#45;validity.mjs&#45;&gt;src/report/index.mjs -->
<g id="edge30" class="edge">
<title>src/main/options/assert&#45;validity.mjs&#45;&gt;src/report/index.mjs</title>
<path fill="none" stroke="#000000" stroke-width="2" stroke-opacity="0.200000" d="M667.77,-193.5C702.52,-193.5 744.88,-193.5 744.88,-193.5 744.88,-193.5 744.88,-85.12 744.88,-85.12"/>
<polygon fill="#000000" fill-opacity="0.200000" stroke="#000000" stroke-width="2" stroke-opacity="0.200000" points="746.98,-85.12 744.88,-79.12 742.78,-85.12 746.98,-85.12"/>
</g>
<!-- src/main/helpers.mjs -->
<g id="node27" class="node">
<title>src/main/helpers.mjs</title>
<g id="a_node27"><a xlink:href="src/main/helpers.mjs" xlink:title="helpers.mjs">
<path fill="#ffffcc" stroke="black" d="M760.46,-283.88C760.46,-283.88 709.04,-283.88 709.04,-283.88 706.08,-283.88 703.12,-280.92 703.12,-277.96 703.12,-277.96 703.12,-272.04 703.12,-272.04 703.12,-269.08 706.08,-266.12 709.04,-266.12 709.04,-266.12 760.46,-266.12 760.46,-266.12 763.42,-266.12 766.38,-269.08 766.38,-272.04 766.38,-272.04 766.38,-277.96 766.38,-277.96 766.38,-280.92 763.42,-283.88 760.46,-283.88"/>
<text text-anchor="start" x="711.12" y="-271.32" font-family="Helvetica,sans-Serif" font-size="9.00">helpers.mjs</text>
</a>
</g>
</g>
<!-- src/main/options/normalize.mjs&#45;&gt;src/main/helpers.mjs -->
<g id="edge31" class="edge">
<title>src/main/options/normalize.mjs&#45;&gt;src/main/helpers.mjs</title>
<path fill="none" stroke="#000000" stroke-width="2" stroke-opacity="0.200000" d="M655.88,-232.21C655.88,-246.7 655.88,-273.21 655.88,-273.21 655.88,-273.21 693.64,-273.21 693.64,-273.21"/>
<polygon fill="#000000" fill-opacity="0.200000" stroke="#000000" stroke-width="2" stroke-opacity="0.200000" points="693.64,-275.31 699.64,-273.21 693.64,-271.11 693.64,-275.31"/>
</g>
<!-- src/main/options/defaults.mjs -->
<g id="node30" class="node">
<title>src/main/options/defaults.mjs</title>
<g id="a_node30"><a xlink:href="src/main/options/defaults.mjs" xlink:title="defaults.mjs">
<path fill="#ffffcc" stroke="black" d="M761.21,-231.88C761.21,-231.88 708.29,-231.88 708.29,-231.88 705.33,-231.88 702.38,-228.92 702.38,-225.96 702.38,-225.96 702.38,-220.04 702.38,-220.04 702.38,-217.08 705.33,-214.12 708.29,-214.12 708.29,-214.12 761.21,-214.12 761.21,-214.12 764.17,-214.12 767.12,-217.08 767.12,-220.04 767.12,-220.04 767.12,-225.96 767.12,-225.96 767.12,-228.92 764.17,-231.88 761.21,-231.88"/>
<text text-anchor="start" x="710.38" y="-219.32" font-family="Helvetica,sans-Serif" font-size="9.00">defaults.mjs</text>
</a>
</g>
</g>
<!-- src/main/options/normalize.mjs&#45;&gt;src/main/options/defaults.mjs -->
<g id="edge32" class="edge">
<title>src/main/options/normalize.mjs&#45;&gt;src/main/options/defaults.mjs</title>
<path fill="none" stroke="#000000" stroke-width="2" stroke-opacity="0.200000" d="M659.98,-223C659.98,-223 693.03,-223 693.03,-223"/>
<polygon fill="#000000" fill-opacity="0.200000" stroke="#000000" stroke-width="2" stroke-opacity="0.200000" points="693.03,-225.1 699.03,-223 693.03,-220.9 693.03,-225.1"/>
</g>
<!-- src/main/report&#45;wrap.mjs&#45;&gt;src/enrich/summarize/index.mjs -->
<g id="edge33" class="edge">
<title>src/main/report&#45;wrap.mjs&#45;&gt;src/enrich/summarize/index.mjs</title>
<path fill="none" stroke="#000000" stroke-width="2" stroke-opacity="0.200000" d="M623.88,-158.23C623.88,-162.17 623.88,-165.88 623.88,-165.88 623.88,-165.88 675.88,-165.88 675.88,-165.88 675.88,-165.88 675.88,-438.71 675.88,-438.71 675.88,-438.71 698.01,-438.71 698.01,-438.71"/>
<polygon fill="#000000" fill-opacity="0.200000" stroke="#000000" stroke-width="2" stroke-opacity="0.200000" points="698.01,-440.81 704.01,-438.71 698.01,-436.61 698.01,-440.81"/>
</g>
<!-- src/main/report&#45;wrap.mjs&#45;&gt;src/graph&#45;utl/compare.mjs -->
<g id="edge34" class="edge">
<title>src/main/report&#45;wrap.mjs&#45;&gt;src/graph&#45;utl/compare.mjs</title>
<path fill="none" stroke="#000000" stroke-width="2" stroke-opacity="0.200000" d="M663.27,-153.08C710.89,-153.08 783.88,-153.08 783.88,-153.08 783.88,-153.08 783.88,-223.5 783.88,-223.5 783.88,-223.5 816.47,-223.5 816.47,-223.5"/>
<polygon fill="#000000" fill-opacity="0.200000" stroke="#000000" stroke-width="2" stroke-opacity="0.200000" points="816.47,-225.6 822.47,-223.5 816.47,-221.4 816.47,-225.6"/>
</g>
<!-- src/main/report&#45;wrap.mjs&#45;&gt;src/graph&#45;utl/consolidate&#45;to&#45;pattern.mjs -->
<g id="edge35" class="edge">
<title>src/main/report&#45;wrap.mjs&#45;&gt;src/graph&#45;utl/consolidate&#45;to&#45;pattern.mjs</title>
<path fill="none" stroke="#000000" stroke-width="2" stroke-opacity="0.200000" d="M663.48,-146.96C720.52,-146.96 817.88,-146.96 817.88,-146.96 817.88,-146.96 817.88,-146.58 817.88,-146.58"/>
<polygon fill="#000000" fill-opacity="0.200000" stroke="#000000" stroke-width="2" stroke-opacity="0.200000" points="819.98,-152.17 817.88,-146.17 815.78,-152.17 819.98,-152.17"/>
</g>
<!-- src/main/report&#45;wrap.mjs&#45;&gt;src/graph&#45;utl/filter&#45;bank.mjs -->
<g id="edge36" class="edge">
<title>src/main/report&#45;wrap.mjs&#45;&gt;src/graph&#45;utl/filter&#45;bank.mjs</title>
<path fill="none" stroke="#000000" stroke-width="2" stroke-opacity="0.200000" d="M663.46,-149C731.29,-149 860.88,-149 860.88,-149 860.88,-149 860.88,-149.58 860.88,-149.58"/>
<polygon fill="#000000" fill-opacity="0.200000" stroke="#000000" stroke-width="2" stroke-opacity="0.200000" points="858.78,-145.73 860.88,-151.73 862.98,-145.73 858.78,-145.73"/>
</g>
<!-- src/main/report&#45;wrap.mjs&#45;&gt;src/graph&#45;utl/strip&#45;self&#45;transitions.mjs -->
<g id="edge37" class="edge">
<title>src/main/report&#45;wrap.mjs&#45;&gt;src/graph&#45;utl/strip&#45;self&#45;transitions.mjs</title>
<path fill="none" stroke="#000000" stroke-width="2" stroke-opacity="0.200000" d="M663.4,-151.04C718.57,-151.04 810.88,-151.04 810.88,-151.04 810.88,-151.04 810.88,-175.86 810.88,-175.86"/>
<polygon fill="#000000" fill-opacity="0.200000" stroke="#000000" stroke-width="2" stroke-opacity="0.200000" points="808.78,-175.86 810.88,-181.86 812.98,-175.86 808.78,-175.86"/>
</g>
<!-- src/main/report&#45;wrap.mjs&#45;&gt;src/report/index.mjs -->
<g id="edge38" class="edge">
<title>src/main/report&#45;wrap.mjs&#45;&gt;src/report/index.mjs</title>
<path fill="none" stroke="#000000" stroke-width="2" stroke-opacity="0.200000" d="M663.44,-144.92C692.23,-144.92 725.88,-144.92 725.88,-144.92 725.88,-144.92 725.88,-85.27 725.88,-85.27"/>
<polygon fill="#000000" fill-opacity="0.200000" stroke="#000000" stroke-width="2" stroke-opacity="0.200000" points="727.98,-85.27 725.88,-79.27 723.78,-85.27 727.98,-85.27"/>
</g>
<!-- src/main/rule&#45;set/assert&#45;validity.mjs&#45;&gt;src/main/options/assert&#45;validity.mjs -->
<g id="edge42" class="edge">
<title>src/main/rule&#45;set/assert&#45;validity.mjs&#45;&gt;src/main/options/assert&#45;validity.mjs</title>
<path fill="none" stroke="#000000" stroke-width="2" stroke-opacity="0.200000" d="M539.27,-319C561.16,-319 582.88,-319 582.88,-319 582.88,-319 582.88,-211.09 582.88,-211.09"/>
<polygon fill="#000000" fill-opacity="0.200000" stroke="#000000" stroke-width="2" stroke-opacity="0.200000" points="584.98,-211.09 582.88,-205.09 580.78,-211.09 584.98,-211.09"/>
</g>
<!-- src/main/rule&#45;set/assert&#45;validity.mjs&#45;&gt;src/main/helpers.mjs -->
<g id="edge41" class="edge">
<title>src/main/rule&#45;set/assert&#45;validity.mjs&#45;&gt;src/main/helpers.mjs</title>
<path fill="none" stroke="#000000" stroke-width="2" stroke-opacity="0.200000" d="M536.88,-310.02C536.88,-298.1 536.88,-278.54 536.88,-278.54 536.88,-278.54 693.93,-278.54 693.93,-278.54"/>
<polygon fill="#000000" fill-opacity="0.200000" stroke="#000000" stroke-width="2" stroke-opacity="0.200000" points="693.93,-280.64 699.93,-278.54 693.93,-276.44 693.93,-280.64"/>
</g>
<!-- src/schema/configuration.schema.mjs -->
<g id="node31" class="node">
<title>src/schema/configuration.schema.mjs</title>
<g id="a_node31"><a xlink:href="src/schema/configuration.schema.mjs" xlink:title="configuration.schema.mjs">
<path fill="#ffffcc" stroke="black" d="M677.33,-71.88C677.33,-71.88 568.92,-71.88 568.92,-71.88 565.96,-71.88 563,-68.92 563,-65.96 563,-65.96 563,-60.04 563,-60.04 563,-57.08 565.96,-54.12 568.92,-54.12 568.92,-54.12 677.33,-54.12 677.33,-54.12 680.29,-54.12 683.25,-57.08 683.25,-60.04 683.25,-60.04 683.25,-65.96 683.25,-65.96 683.25,-68.92 680.29,-71.88 677.33,-71.88"/>
<text text-anchor="start" x="571" y="-59.33" font-family="Helvetica,sans-Serif" font-size="9.00">configuration.schema.mjs</text>
</a>
</g>
</g>
<!-- src/main/rule&#45;set/assert&#45;validity.mjs&#45;&gt;src/schema/configuration.schema.mjs -->
<g id="edge43" class="edge">
<title>src/main/rule&#45;set/assert&#45;validity.mjs&#45;&gt;src/schema/configuration.schema.mjs</title>
<path fill="none" stroke="#000000" stroke-width="2" stroke-opacity="0.200000" d="M533.88,-309.89C533.88,-264.29 533.88,-63 533.88,-63 533.88,-63 553.58,-63 553.58,-63"/>
<polygon fill="#000000" fill-opacity="0.200000" stroke="#000000" stroke-width="2" stroke-opacity="0.200000" points="553.58,-65.1 559.58,-63 553.58,-60.9 553.58,-65.1"/>
</g>
<!-- src/main/rule&#45;set/normalize.mjs&#45;&gt;src/main/helpers.mjs -->
<g id="edge44" class="edge">
<title>src/main/rule&#45;set/normalize.mjs&#45;&gt;src/main/helpers.mjs</title>
<path fill="none" stroke="#000000" stroke-width="2" stroke-opacity="0.200000" d="M531.38,-349C598.68,-349 734.88,-349 734.88,-349 734.88,-349 734.88,-293.4 734.88,-293.4"/>
<polygon fill="#000000" fill-opacity="0.200000" stroke="#000000" stroke-width="2" stroke-opacity="0.200000" points="736.98,-293.4 734.88,-287.4 732.78,-293.4 736.98,-293.4"/>
</g>
<!-- src/main/index.d.ts -->
<g id="node28" class="node">
<title>src/main/index.d.ts</title>
<g id="a_node28"><a xlink:href="src/main/index.d.ts" xlink:title="index.d.ts">
<path fill="#ccffcc" stroke="black" d="M267.33,-370.88C267.33,-370.88 224.17,-370.88 224.17,-370.88 221.21,-370.88 218.25,-367.92 218.25,-364.96 218.25,-364.96 218.25,-359.04 218.25,-359.04 218.25,-356.08 221.21,-353.12 224.17,-353.12 224.17,-353.12 267.33,-353.12 267.33,-353.12 270.29,-353.12 273.25,-356.08 273.25,-359.04 273.25,-359.04 273.25,-364.96 273.25,-364.96 273.25,-367.92 270.29,-370.88 267.33,-370.88"/>
<text text-anchor="start" x="226.25" y="-358.32" font-family="Helvetica,sans-Serif" font-size="9.00">index.d.ts</text>
</a>
</g>
</g>
</g>
</svg>
