<?xml version="1.0" encoding="UTF-8" standalone="no"?>
<!DOCTYPE svg PUBLIC "-//W3C//DTD SVG 1.1//EN"
 "http://www.w3.org/Graphics/SVG/1.1/DTD/svg11.dtd">
<!-- Generated by graphviz version 15.0.0 (20260523.1842)
 -->
<!-- Title: dependency&#45;cruiser output Pages: 1 -->
<svg width="775pt" height="1032pt"
 viewBox="0.00 0.00 775.00 1032.00" xmlns="http://www.w3.org/2000/svg" xmlns:xlink="http://www.w3.org/1999/xlink">
<g id="graph0" class="graph" transform="scale(1 1) rotate(0) translate(4 1028)">
<title>dependency&#45;cruiser output</title>
<polygon fill="white" stroke="none" points="-4,4 -4,-1028 770.75,-1028 770.75,4 -4,4"/>
<g id="clust1" class="cluster">
<title>cluster_src</title>
<path fill="#ffffff" stroke="black" stroke-width="2" d="M20,-8C20,-8 746.75,-8 746.75,-8 752.75,-8 758.75,-14 758.75,-20 758.75,-20 758.75,-1004 758.75,-1004 758.75,-1010 752.75,-1016 746.75,-1016 746.75,-1016 20,-1016 20,-1016 14,-1016 8,-1010 8,-1004 8,-1004 8,-20 8,-20 8,-14 14,-8 20,-8"/>
<text xml:space="preserve" text-anchor="middle" x="383.38" y="-1003.45" font-family="Helvetica,sans-Serif" font-weight="bold" font-size="9.00">src</text>
</g>
<g id="clust2" class="cluster">
<title>cluster_src/analyze</title>
<path fill="#ffffff" stroke="black" stroke-width="2" d="M417.12,-750C417.12,-750 617.12,-750 617.12,-750 623.12,-750 629.12,-756 629.12,-762 629.12,-762 629.12,-824 629.12,-824 629.12,-830 623.12,-836 617.12,-836 617.12,-836 417.12,-836 417.12,-836 411.12,-836 405.12,-830 405.12,-824 405.12,-824 405.12,-762 405.12,-762 405.12,-756 411.12,-750 417.12,-750"/>
<text xml:space="preserve" text-anchor="middle" x="517.12" y="-823.45" font-family="Helvetica,sans-Serif" font-weight="bold" font-size="9.00">analyze</text>
</g>
<g id="clust3" class="cluster">
<title>cluster_src/analyze/summarize</title>
<path fill="#ffffff" stroke="black" stroke-width="2" d="M562.12,-758C562.12,-758 609.12,-758 609.12,-758 615.12,-758 621.12,-764 621.12,-770 621.12,-770 621.12,-798 621.12,-798 621.12,-804 615.12,-810 609.12,-810 609.12,-810 562.12,-810 562.12,-810 556.12,-810 550.12,-804 550.12,-798 550.12,-798 550.12,-770 550.12,-770 550.12,-764 556.12,-758 562.12,-758"/>
<text xml:space="preserve" text-anchor="middle" x="585.62" y="-797.45" font-family="Helvetica,sans-Serif" font-weight="bold" font-size="9.00">summarize</text>
</g>
<g id="clust4" class="cluster">
<title>cluster_src/cache</title>
<path fill="#ffffff" stroke="black" stroke-width="2" d="M287.5,-804C287.5,-804 336.75,-804 336.75,-804 342.75,-804 348.75,-810 348.75,-816 348.75,-816 348.75,-844 348.75,-844 348.75,-850 342.75,-856 336.75,-856 336.75,-856 287.5,-856 287.5,-856 281.5,-856 275.5,-850 275.5,-844 275.5,-844 275.5,-816 275.5,-816 275.5,-810 281.5,-804 287.5,-804"/>
<text xml:space="preserve" text-anchor="middle" x="312.12" y="-843.45" font-family="Helvetica,sans-Serif" font-weight="bold" font-size="9.00">cache</text>
</g>
<g id="clust5" class="cluster">
<title>cluster_src/cli</title>
<path fill="#ffffff" stroke="black" stroke-width="2" d="M28,-70C28,-70 78,-70 78,-70 84,-70 90,-76 90,-82 90,-82 90,-140 90,-140 90,-146 84,-152 78,-152 78,-152 28,-152 28,-152 22,-152 16,-146 16,-140 16,-140 16,-82 16,-82 16,-76 22,-70 28,-70"/>
<text xml:space="preserve" text-anchor="middle" x="53" y="-139.45" font-family="Helvetica,sans-Serif" font-weight="bold" font-size="9.00">cli</text>
</g>
<g id="clust6" class="cluster">
<title>cluster_src/config&#45;utl</title>
<path fill="#ffffff" stroke="black" stroke-width="2" d="M118,-108C118,-108 231.75,-108 231.75,-108 237.75,-108 243.75,-114 243.75,-120 243.75,-120 243.75,-182 243.75,-182 243.75,-188 237.75,-194 231.75,-194 231.75,-194 118,-194 118,-194 112,-194 106,-188 106,-182 106,-182 106,-120 106,-120 106,-114 112,-108 118,-108"/>
<text xml:space="preserve" text-anchor="middle" x="174.88" y="-181.45" font-family="Helvetica,sans-Serif" font-weight="bold" font-size="9.00">config&#45;utl</text>
</g>
<g id="clust7" class="cluster">
<title>cluster_src/config&#45;utl/extract&#45;depcruise&#45;config</title>
<path fill="#ffffff" stroke="black" stroke-width="2" d="M126,-116C126,-116 223.75,-116 223.75,-116 229.75,-116 235.75,-122 235.75,-128 235.75,-128 235.75,-156 235.75,-156 235.75,-162 229.75,-168 223.75,-168 223.75,-168 126,-168 126,-168 120,-168 114,-162 114,-156 114,-156 114,-128 114,-128 114,-122 120,-116 126,-116"/>
<text xml:space="preserve" text-anchor="middle" x="174.88" y="-155.45" font-family="Helvetica,sans-Serif" font-weight="bold" font-size="9.00">extract&#45;depcruise&#45;config</text>
</g>
<g id="clust8" class="cluster">
<title>cluster_src/extract</title>
<path fill="#ffffff" stroke="black" stroke-width="2" d="M409.62,-854C409.62,-854 471.62,-854 471.62,-854 477.62,-854 483.62,-860 483.62,-866 483.62,-866 483.62,-954 483.62,-954 483.62,-960 477.62,-966 471.62,-966 471.62,-966 409.62,-966 409.62,-966 403.62,-966 397.62,-960 397.62,-954 397.62,-954 397.62,-866 397.62,-866 397.62,-860 403.62,-854 409.62,-854"/>
<text xml:space="preserve" text-anchor="middle" x="440.62" y="-953.45" font-family="Helvetica,sans-Serif" font-weight="bold" font-size="9.00">extract</text>
</g>
<g id="clust9" class="cluster">
<title>cluster_src/extract/transpile</title>
<path fill="#ffffff" stroke="black" stroke-width="2" d="M417.62,-862C417.62,-862 463.62,-862 463.62,-862 469.62,-862 475.62,-868 475.62,-874 475.62,-874 475.62,-902 475.62,-902 475.62,-908 469.62,-914 463.62,-914 463.62,-914 417.62,-914 417.62,-914 411.62,-914 405.62,-908 405.62,-902 405.62,-902 405.62,-874 405.62,-874 405.62,-868 411.62,-862 417.62,-862"/>
<text xml:space="preserve" text-anchor="middle" x="440.62" y="-901.45" font-family="Helvetica,sans-Serif" font-weight="bold" font-size="9.00">transpile</text>
</g>
<g id="clust10" class="cluster">
<title>cluster_src/graph&#45;utl</title>
<path fill="#ffffff" stroke="black" stroke-width="2" d="M528.75,-570C528.75,-570 642.5,-570 642.5,-570 648.5,-570 654.5,-576 654.5,-582 654.5,-582 654.5,-730 654.5,-730 654.5,-736 648.5,-742 642.5,-742 642.5,-742 528.75,-742 528.75,-742 522.75,-742 516.75,-736 516.75,-730 516.75,-730 516.75,-582 516.75,-582 516.75,-576 522.75,-570 528.75,-570"/>
<text xml:space="preserve" text-anchor="middle" x="585.62" y="-729.45" font-family="Helvetica,sans-Serif" font-weight="bold" font-size="9.00">graph&#45;utl</text>
</g>
<g id="clust11" class="cluster">
<title>cluster_src/main</title>
<path fill="#ffffff" stroke="black" stroke-width="2" d="M29.5,-202C29.5,-202 622,-202 622,-202 628,-202 634,-208 634,-214 634,-214 634,-490 634,-490 634,-496 628,-502 622,-502 622,-502 29.5,-502 29.5,-502 23.5,-502 17.5,-496 17.5,-490 17.5,-490 17.5,-214 17.5,-214 17.5,-208 23.5,-202 29.5,-202"/>
<text xml:space="preserve" text-anchor="middle" x="325.75" y="-489.45" font-family="Helvetica,sans-Serif" font-weight="bold" font-size="9.00">main</text>
</g>
<g id="clust12" class="cluster">
<title>cluster_src/main/files&#45;and&#45;dirs</title>
<path fill="#ffffff" stroke="black" stroke-width="2" d="M279.62,-236C279.62,-236 344.62,-236 344.62,-236 350.62,-236 356.62,-242 356.62,-248 356.62,-248 356.62,-276 356.62,-276 356.62,-282 350.62,-288 344.62,-288 344.62,-288 279.62,-288 279.62,-288 273.62,-288 267.62,-282 267.62,-276 267.62,-276 267.62,-248 267.62,-248 267.62,-242 273.62,-236 279.62,-236"/>
<text xml:space="preserve" text-anchor="middle" x="312.12" y="-275.45" font-family="Helvetica,sans-Serif" font-weight="bold" font-size="9.00">files&#45;and&#45;dirs</text>
</g>
<g id="clust13" class="cluster">
<title>cluster_src/main/options</title>
<path fill="#ffffff" stroke="black" stroke-width="2" d="M400.25,-252C400.25,-252 614,-252 614,-252 620,-252 626,-258 626,-264 626,-264 626,-322 626,-322 626,-328 620,-334 614,-334 614,-334 400.25,-334 400.25,-334 394.25,-334 388.25,-328 388.25,-322 388.25,-322 388.25,-264 388.25,-264 388.25,-258 394.25,-252 400.25,-252"/>
<text xml:space="preserve" text-anchor="middle" x="507.12" y="-321.45" font-family="Helvetica,sans-Serif" font-weight="bold" font-size="9.00">options</text>
</g>
<g id="clust14" class="cluster">
<title>cluster_src/main/resolve&#45;options</title>
<path fill="#ffffff" stroke="black" stroke-width="2" d="M279.62,-424C279.62,-424 344.62,-424 344.62,-424 350.62,-424 356.62,-430 356.62,-436 356.62,-436 356.62,-464 356.62,-464 356.62,-470 350.62,-476 344.62,-476 344.62,-476 279.62,-476 279.62,-476 273.62,-476 267.62,-470 267.62,-464 267.62,-464 267.62,-436 267.62,-436 267.62,-430 273.62,-424 279.62,-424"/>
<text xml:space="preserve" text-anchor="middle" x="312.12" y="-463.45" font-family="Helvetica,sans-Serif" font-weight="bold" font-size="9.00">resolve&#45;options</text>
</g>
<g id="clust15" class="cluster">
<title>cluster_src/main/rule&#45;set</title>
<path fill="#ffffff" stroke="black" stroke-width="2" d="M271.75,-296C271.75,-296 352.5,-296 352.5,-296 358.5,-296 364.5,-302 364.5,-308 364.5,-308 364.5,-366 364.5,-366 364.5,-372 358.5,-378 352.5,-378 352.5,-378 271.75,-378 271.75,-378 265.75,-378 259.75,-372 259.75,-366 259.75,-366 259.75,-308 259.75,-308 259.75,-302 265.75,-296 271.75,-296"/>
<text xml:space="preserve" text-anchor="middle" x="312.12" y="-365.45" font-family="Helvetica,sans-Serif" font-weight="bold" font-size="9.00">rule&#45;set</text>
</g>
<g id="clust16" class="cluster">
<title>cluster_src/report</title>
<path fill="#ffffff" stroke="black" stroke-width="2" d="M562.12,-510C562.12,-510 609.12,-510 609.12,-510 615.12,-510 621.12,-516 621.12,-522 621.12,-522 621.12,-550 621.12,-550 621.12,-556 615.12,-562 609.12,-562 609.12,-562 562.12,-562 562.12,-562 556.12,-562 550.12,-556 550.12,-550 550.12,-550 550.12,-522 550.12,-522 550.12,-516 556.12,-510 562.12,-510"/>
<text xml:space="preserve" text-anchor="middle" x="585.62" y="-549.45" font-family="Helvetica,sans-Serif" font-weight="bold" font-size="9.00">report</text>
</g>
<g id="clust17" class="cluster">
<title>cluster_src/schema</title>
<path fill="#ffffff" stroke="black" stroke-width="2" d="M384.5,-82C384.5,-82 496.75,-82 496.75,-82 502.75,-82 508.75,-88 508.75,-94 508.75,-94 508.75,-182 508.75,-182 508.75,-188 502.75,-194 496.75,-194 496.75,-194 384.5,-194 384.5,-194 378.5,-194 372.5,-188 372.5,-182 372.5,-182 372.5,-94 372.5,-94 372.5,-88 378.5,-82 384.5,-82"/>
<text xml:space="preserve" text-anchor="middle" x="440.62" y="-181.45" font-family="Helvetica,sans-Serif" font-weight="bold" font-size="9.00">schema</text>
</g>
<g id="clust18" class="cluster">
<title>cluster_src/utl</title>
<path fill="#ffffff" stroke="black" stroke-width="2" d="M674.5,-250C674.5,-250 738.75,-250 738.75,-250 744.75,-250 750.75,-256 750.75,-262 750.75,-262 750.75,-380 750.75,-380 750.75,-386 744.75,-392 738.75,-392 738.75,-392 674.5,-392 674.5,-392 668.5,-392 662.5,-386 662.5,-380 662.5,-380 662.5,-262 662.5,-262 662.5,-256 668.5,-250 674.5,-250"/>
<text xml:space="preserve" text-anchor="middle" x="706.62" y="-379.45" font-family="Helvetica,sans-Serif" font-weight="bold" font-size="9.00">utl</text>
</g>
<!-- src/analyze/index.mjs -->
<g id="node1" class="node">
<title>src/analyze/index.mjs</title>
<g id="a_node1"><a xlink:href="src/analyze/index.mjs" xlink:title="index.mjs">
<path fill="#ffffcc" stroke="black" d="M462.21,-783.88C462.21,-783.88 419.04,-783.88 419.04,-783.88 416.08,-783.88 413.12,-780.92 413.12,-777.96 413.12,-777.96 413.12,-772.04 413.12,-772.04 413.12,-769.08 416.08,-766.12 419.04,-766.12 419.04,-766.12 462.21,-766.12 462.21,-766.12 465.17,-766.12 468.12,-769.08 468.12,-772.04 468.12,-772.04 468.12,-777.96 468.12,-777.96 468.12,-780.92 465.17,-783.88 462.21,-783.88"/>
<text xml:space="preserve" text-anchor="start" x="421.12" y="-772.38" font-family="Helvetica,sans-Serif" font-size="9.00">index.mjs</text>
</a>
</g>
</g>
<!-- src/analyze/summarize/index.mjs -->
<g id="node2" class="node">
<title>src/analyze/summarize/index.mjs</title>
<g id="a_node2"><a xlink:href="src/analyze/summarize/index.mjs" xlink:title="index.mjs">
<path fill="#ffffcc" stroke="black" d="M607.21,-783.88C607.21,-783.88 564.04,-783.88 564.04,-783.88 561.08,-783.88 558.12,-780.92 558.12,-777.96 558.12,-777.96 558.12,-772.04 558.12,-772.04 558.12,-769.08 561.08,-766.12 564.04,-766.12 564.04,-766.12 607.21,-766.12 607.21,-766.12 610.17,-766.12 613.12,-769.08 613.12,-772.04 613.12,-772.04 613.12,-777.96 613.12,-777.96 613.12,-780.92 610.17,-783.88 607.21,-783.88"/>
<text xml:space="preserve" text-anchor="start" x="566.12" y="-772.38" font-family="Helvetica,sans-Serif" font-size="9.00">index.mjs</text>
</a>
</g>
</g>
<!-- src/analyze/index.mjs&#45;&gt;src/analyze/summarize/index.mjs -->
<g id="edge1" class="edge">
<title>src/analyze/index.mjs&#45;&gt;src/analyze/summarize/index.mjs</title>
<path fill="none" stroke="#000000" stroke-width="2" stroke-opacity="0.200000" d="M468.58,-779.44C468.58,-779.44 548.73,-779.44 548.73,-779.44"/>
<polygon fill="#000000" fill-opacity="0.200000" stroke="#000000" stroke-width="2" stroke-opacity="0.200000" points="548.73,-781.54 554.73,-779.44 548.73,-777.34 548.73,-781.54"/>
</g>
<!-- src/utl/bus.mjs -->
<g id="node3" class="node">
<title>src/utl/bus.mjs</title>
<g id="a_node3"><a xlink:href="src/utl/bus.mjs" xlink:title="bus.mjs">
<path fill="#ffffcc" stroke="black" d="M727.71,-335.88C727.71,-335.88 685.54,-335.88 685.54,-335.88 682.58,-335.88 679.62,-332.92 679.62,-329.96 679.62,-329.96 679.62,-324.04 679.62,-324.04 679.62,-321.08 682.58,-318.12 685.54,-318.12 685.54,-318.12 727.71,-318.12 727.71,-318.12 730.67,-318.12 733.62,-321.08 733.62,-324.04 733.62,-324.04 733.62,-329.96 733.62,-329.96 733.62,-332.92 730.67,-335.88 727.71,-335.88"/>
<text xml:space="preserve" text-anchor="start" x="690.88" y="-324.38" font-family="Helvetica,sans-Serif" font-size="9.00">bus.mjs</text>
</a>
</g>
</g>
<!-- src/analyze/index.mjs&#45;&gt;src/utl/bus.mjs -->
<g id="edge2" class="edge">
<title>src/analyze/index.mjs&#45;&gt;src/utl/bus.mjs</title>
<path fill="none" stroke="#000000" stroke-width="2" stroke-opacity="0.200000" d="M468.52,-770.56C480.91,-770.56 492.75,-770.56 492.75,-770.56 492.75,-770.56 492.75,-332.76 492.75,-332.76 492.75,-332.76 670.51,-332.76 670.51,-332.76"/>
<polygon fill="#000000" fill-opacity="0.200000" stroke="#000000" stroke-width="2" stroke-opacity="0.200000" points="670.51,-334.86 676.51,-332.76 670.51,-330.66 670.51,-334.86"/>
</g>
<!-- src/graph&#45;utl/compare.mjs -->
<g id="node4" class="node">
<title>src/graph&#45;utl/compare.mjs</title>
<g id="a_node4"><a xlink:href="src/graph-utl/compare.mjs" xlink:title="compare.mjs">
<path fill="#ffffcc" stroke="black" d="M613.96,-625.88C613.96,-625.88 557.29,-625.88 557.29,-625.88 554.33,-625.88 551.38,-622.92 551.38,-619.96 551.38,-619.96 551.38,-614.04 551.38,-614.04 551.38,-611.08 554.33,-608.12 557.29,-608.12 557.29,-608.12 613.96,-608.12 613.96,-608.12 616.92,-608.12 619.88,-611.08 619.88,-614.04 619.88,-614.04 619.88,-619.96 619.88,-619.96 619.88,-622.92 616.92,-625.88 613.96,-625.88"/>
<text xml:space="preserve" text-anchor="start" x="559.38" y="-614.38" font-family="Helvetica,sans-Serif" font-size="9.00">compare.mjs</text>
</a>
</g>
</g>
<!-- src/analyze/summarize/index.mjs&#45;&gt;src/graph&#45;utl/compare.mjs -->
<g id="edge3" class="edge">
<title>src/analyze/summarize/index.mjs&#45;&gt;src/graph&#45;utl/compare.mjs</title>
<path fill="none" stroke="#000000" stroke-width="2" stroke-opacity="0.200000" d="M613.34,-775C632.57,-775 654.75,-775 654.75,-775 654.75,-775 654.75,-617 654.75,-617 654.75,-617 629.21,-617 629.21,-617"/>
<polygon fill="#000000" fill-opacity="0.200000" stroke="#000000" stroke-width="2" stroke-opacity="0.200000" points="629.21,-614.9 623.21,-617 629.21,-619.1 629.21,-614.9"/>
</g>
<!-- src/cache/cache.mjs -->
<g id="node5" class="node">
<title>src/cache/cache.mjs</title>
<g id="a_node5"><a xlink:href="src/cache/cache.mjs" xlink:title="cache.mjs">
<path fill="#ffffcc" stroke="black" d="M334.83,-829.88C334.83,-829.88 289.42,-829.88 289.42,-829.88 286.46,-829.88 283.5,-826.92 283.5,-823.96 283.5,-823.96 283.5,-818.04 283.5,-818.04 283.5,-815.08 286.46,-812.12 289.42,-812.12 289.42,-812.12 334.83,-812.12 334.83,-812.12 337.79,-812.12 340.75,-815.08 340.75,-818.04 340.75,-818.04 340.75,-823.96 340.75,-823.96 340.75,-826.92 337.79,-829.88 334.83,-829.88"/>
<text xml:space="preserve" text-anchor="start" x="291.5" y="-818.38" font-family="Helvetica,sans-Serif" font-size="9.00">cache.mjs</text>
</a>
</g>
</g>
<!-- src/cache/cache.mjs&#45;&gt;src/utl/bus.mjs -->
<g id="edge5" class="edge">
<title>src/cache/cache.mjs&#45;&gt;src/utl/bus.mjs</title>
<path fill="none" stroke="#000000" stroke-width="2" stroke-opacity="0.200000" d="M341.21,-818.04C353.38,-818.04 364.75,-818.04 364.75,-818.04 364.75,-818.04 364.75,-328.68 364.75,-328.68 364.75,-328.68 670.2,-328.68 670.2,-328.68"/>
<polygon fill="#000000" fill-opacity="0.200000" stroke="#000000" stroke-width="2" stroke-opacity="0.200000" points="670.2,-330.78 676.2,-328.68 670.2,-326.58 670.2,-330.78"/>
</g>
<!-- src/extract/transpile/meta.mjs -->
<g id="node6" class="node">
<title>src/extract/transpile/meta.mjs</title>
<g id="a_node6"><a xlink:href="src/extract/transpile/meta.mjs" xlink:title="meta.mjs">
<path fill="#ffffcc" stroke="black" d="M461.71,-887.88C461.71,-887.88 419.54,-887.88 419.54,-887.88 416.58,-887.88 413.62,-884.92 413.62,-881.96 413.62,-881.96 413.62,-876.04 413.62,-876.04 413.62,-873.08 416.58,-870.12 419.54,-870.12 419.54,-870.12 461.71,-870.12 461.71,-870.12 464.67,-870.12 467.62,-873.08 467.62,-876.04 467.62,-876.04 467.62,-881.96 467.62,-881.96 467.62,-884.92 464.67,-887.88 461.71,-887.88"/>
<text xml:space="preserve" text-anchor="start" x="422.25" y="-876.38" font-family="Helvetica,sans-Serif" font-size="9.00">meta.mjs</text>
</a>
</g>
</g>
<!-- src/cache/cache.mjs&#45;&gt;src/extract/transpile/meta.mjs -->
<g id="edge4" class="edge">
<title>src/cache/cache.mjs&#45;&gt;src/extract/transpile/meta.mjs</title>
<path fill="none" stroke="#000000" stroke-width="2" stroke-opacity="0.200000" d="M340.99,-823.96C378.91,-823.96 440.75,-823.96 440.75,-823.96 440.75,-823.96 440.75,-860.88 440.75,-860.88"/>
<polygon fill="#000000" fill-opacity="0.200000" stroke="#000000" stroke-width="2" stroke-opacity="0.200000" points="438.65,-860.88 440.75,-866.88 442.85,-860.88 438.65,-860.88"/>
</g>
<!-- src/cli/format.mjs -->
<g id="node7" class="node">
<title>src/cli/format.mjs</title>
<g id="a_node7"><a xlink:href="src/cli/format.mjs" xlink:title="format.mjs">
<path fill="#ffffcc" stroke="black" d="M76.08,-125.88C76.08,-125.88 29.92,-125.88 29.92,-125.88 26.96,-125.88 24,-122.92 24,-119.96 24,-119.96 24,-114.04 24,-114.04 24,-111.08 26.96,-108.12 29.92,-108.12 29.92,-108.12 76.08,-108.12 76.08,-108.12 79.04,-108.12 82,-111.08 82,-114.04 82,-114.04 82,-119.96 82,-119.96 82,-122.92 79.04,-125.88 76.08,-125.88"/>
<text xml:space="preserve" text-anchor="start" x="32" y="-114.38" font-family="Helvetica,sans-Serif" font-size="9.00">format.mjs</text>
</a>
</g>
</g>
<!-- src/main/format.mjs -->
<g id="node8" class="node">
<title>src/main/format.mjs</title>
<g id="a_node8"><a xlink:href="src/main/format.mjs" xlink:title="format.mjs">
<path fill="#ffffcc" stroke="black" d="M335.21,-227.88C335.21,-227.88 289.04,-227.88 289.04,-227.88 286.08,-227.88 283.12,-224.92 283.12,-221.96 283.12,-221.96 283.12,-216.04 283.12,-216.04 283.12,-213.08 286.08,-210.12 289.04,-210.12 289.04,-210.12 335.21,-210.12 335.21,-210.12 338.17,-210.12 341.12,-213.08 341.12,-216.04 341.12,-216.04 341.12,-221.96 341.12,-221.96 341.12,-224.92 338.17,-227.88 335.21,-227.88"/>
<text xml:space="preserve" text-anchor="start" x="291.12" y="-216.38" font-family="Helvetica,sans-Serif" font-size="9.00">format.mjs</text>
</a>
</g>
</g>
<!-- src/cli/format.mjs&#45;&gt;src/main/format.mjs -->
<g id="edge6" class="edge">
<title>src/cli/format.mjs&#45;&gt;src/main/format.mjs</title>
<path fill="none" stroke="#000000" stroke-width="2" stroke-opacity="0.200000" d="M52.75,-126.14C52.75,-150.66 52.75,-216.04 52.75,-216.04 52.75,-216.04 273.85,-216.04 273.85,-216.04"/>
<polygon fill="#000000" fill-opacity="0.200000" stroke="#000000" stroke-width="2" stroke-opacity="0.200000" points="273.85,-218.14 279.85,-216.04 273.85,-213.94 273.85,-218.14"/>
</g>
<!-- src/main/options/assert&#45;validity.mjs -->
<g id="node21" class="node">
<title>src/main/options/assert&#45;validity.mjs</title>
<g id="a_node21"><a xlink:href="src/main/options/assert-validity.mjs" xlink:title="assert&#45;validity.mjs">
<path fill="#ffffcc" stroke="black" d="M479.08,-307.88C479.08,-307.88 402.17,-307.88 402.17,-307.88 399.21,-307.88 396.25,-304.92 396.25,-301.96 396.25,-301.96 396.25,-296.04 396.25,-296.04 396.25,-293.08 399.21,-290.12 402.17,-290.12 402.17,-290.12 479.08,-290.12 479.08,-290.12 482.04,-290.12 485,-293.08 485,-296.04 485,-296.04 485,-301.96 485,-301.96 485,-304.92 482.04,-307.88 479.08,-307.88"/>
<text xml:space="preserve" text-anchor="start" x="404.25" y="-296.38" font-family="Helvetica,sans-Serif" font-size="9.00">assert&#45;validity.mjs</text>
</a>
</g>
</g>
<!-- src/main/format.mjs&#45;&gt;src/main/options/assert&#45;validity.mjs -->
<g id="edge25" class="edge">
<title>src/main/format.mjs&#45;&gt;src/main/options/assert&#45;validity.mjs</title>
<path fill="none" stroke="#000000" stroke-width="2" stroke-opacity="0.200000" d="M341.3,-219C366.79,-219 399.75,-219 399.75,-219 399.75,-219 399.75,-280.8 399.75,-280.8"/>
<polygon fill="#000000" fill-opacity="0.200000" stroke="#000000" stroke-width="2" stroke-opacity="0.200000" points="397.65,-280.8 399.75,-286.8 401.85,-280.8 397.65,-280.8"/>
</g>
<!-- src/main/options/normalize.mjs -->
<g id="node22" class="node">
<title>src/main/options/normalize.mjs</title>
<g id="a_node22"><a xlink:href="src/main/options/normalize.mjs" xlink:title="normalize.mjs">
<path fill="#ffffcc" stroke="black" d="M471.21,-277.88C471.21,-277.88 410.04,-277.88 410.04,-277.88 407.08,-277.88 404.12,-274.92 404.12,-271.96 404.12,-271.96 404.12,-266.04 404.12,-266.04 404.12,-263.08 407.08,-260.12 410.04,-260.12 410.04,-260.12 471.21,-260.12 471.21,-260.12 474.17,-260.12 477.12,-263.08 477.12,-266.04 477.12,-266.04 477.12,-271.96 477.12,-271.96 477.12,-274.92 474.17,-277.88 471.21,-277.88"/>
<text xml:space="preserve" text-anchor="start" x="412.12" y="-266.38" font-family="Helvetica,sans-Serif" font-size="9.00">normalize.mjs</text>
</a>
</g>
</g>
<!-- src/main/format.mjs&#45;&gt;src/main/options/normalize.mjs -->
<g id="edge26" class="edge">
<title>src/main/format.mjs&#45;&gt;src/main/options/normalize.mjs</title>
<path fill="none" stroke="#000000" stroke-width="2" stroke-opacity="0.200000" d="M341.31,-214.56C379.26,-214.56 440.75,-214.56 440.75,-214.56 440.75,-214.56 440.75,-250.98 440.75,-250.98"/>
<polygon fill="#000000" fill-opacity="0.200000" stroke="#000000" stroke-width="2" stroke-opacity="0.200000" points="438.65,-250.98 440.75,-256.98 442.85,-250.98 438.65,-250.98"/>
</g>
<!-- src/main/report&#45;wrap.mjs -->
<g id="node23" class="node">
<title>src/main/report&#45;wrap.mjs</title>
<g id="a_node23"><a xlink:href="src/main/report-wrap.mjs" xlink:title="report&#45;wrap.mjs">
<path fill="#ffffcc" stroke="black" d="M474.58,-475.88C474.58,-475.88 406.67,-475.88 406.67,-475.88 403.71,-475.88 400.75,-472.92 400.75,-469.96 400.75,-469.96 400.75,-464.04 400.75,-464.04 400.75,-461.08 403.71,-458.12 406.67,-458.12 406.67,-458.12 474.58,-458.12 474.58,-458.12 477.54,-458.12 480.5,-461.08 480.5,-464.04 480.5,-464.04 480.5,-469.96 480.5,-469.96 480.5,-472.92 477.54,-475.88 474.58,-475.88"/>
<text xml:space="preserve" text-anchor="start" x="408.75" y="-464.38" font-family="Helvetica,sans-Serif" font-size="9.00">report&#45;wrap.mjs</text>
</a>
</g>
</g>
<!-- src/main/format.mjs&#45;&gt;src/main/report&#45;wrap.mjs -->
<g id="edge27" class="edge">
<title>src/main/format.mjs&#45;&gt;src/main/report&#45;wrap.mjs</title>
<path fill="none" stroke="#000000" stroke-width="2" stroke-opacity="0.200000" d="M341.37,-223.44C356.87,-223.44 372.75,-223.44 372.75,-223.44 372.75,-223.44 372.75,-464.04 372.75,-464.04 372.75,-464.04 391.33,-464.04 391.33,-464.04"/>
<polygon fill="#000000" fill-opacity="0.200000" stroke="#000000" stroke-width="2" stroke-opacity="0.200000" points="391.33,-466.14 397.33,-464.04 391.33,-461.94 391.33,-466.14"/>
</g>
<!-- src/schema/cruise&#45;result.validate.mjs -->
<g id="node26" class="node">
<title>src/schema/cruise&#45;result.validate.mjs</title>
<g id="a_node26"><a xlink:href="src/schema/cruise-result.validate.mjs" xlink:title="cruise&#45;result.validate.mjs">
<path fill="#ffffcc" stroke="black" d="M493.33,-107.88C493.33,-107.88 387.92,-107.88 387.92,-107.88 384.96,-107.88 382,-104.92 382,-101.96 382,-101.96 382,-96.04 382,-96.04 382,-93.08 384.96,-90.12 387.92,-90.12 387.92,-90.12 493.33,-90.12 493.33,-90.12 496.29,-90.12 499.25,-93.08 499.25,-96.04 499.25,-96.04 499.25,-101.96 499.25,-101.96 499.25,-104.92 496.29,-107.88 493.33,-107.88"/>
<text xml:space="preserve" text-anchor="start" x="390" y="-96.38" font-family="Helvetica,sans-Serif" font-size="9.00">cruise&#45;result.validate.mjs</text>
</a>
</g>
</g>
<!-- src/main/format.mjs&#45;&gt;src/schema/cruise&#45;result.validate.mjs -->
<g id="edge28" class="edge">
<title>src/main/format.mjs&#45;&gt;src/schema/cruise&#45;result.validate.mjs</title>
<path fill="none" stroke="#000000" stroke-width="2" stroke-opacity="0.200000" d="M302.75,-209.81C302.75,-182.2 302.75,-101.88 302.75,-101.88 302.75,-101.88 372.73,-101.88 372.73,-101.88"/>
<polygon fill="#000000" fill-opacity="0.200000" stroke="#000000" stroke-width="2" stroke-opacity="0.200000" points="372.73,-103.98 378.73,-101.88 372.73,-99.78 372.73,-103.98"/>
</g>
<!-- src/schema/utl.mjs -->
<g id="node27" class="node">
<title>src/schema/utl.mjs</title>
<g id="a_node27"><a xlink:href="src/schema/utl.mjs" xlink:title="utl.mjs">
<path fill="#ffffcc" stroke="black" d="M461.71,-137.88C461.71,-137.88 419.54,-137.88 419.54,-137.88 416.58,-137.88 413.62,-134.92 413.62,-131.96 413.62,-131.96 413.62,-126.04 413.62,-126.04 413.62,-123.08 416.58,-120.12 419.54,-120.12 419.54,-120.12 461.71,-120.12 461.71,-120.12 464.67,-120.12 467.62,-123.08 467.62,-126.04 467.62,-126.04 467.62,-131.96 467.62,-131.96 467.62,-134.92 464.67,-137.88 461.71,-137.88"/>
<text xml:space="preserve" text-anchor="start" x="427.5" y="-126.38" font-family="Helvetica,sans-Serif" font-size="9.00">utl.mjs</text>
</a>
</g>
</g>
<!-- src/main/format.mjs&#45;&gt;src/schema/utl.mjs -->
<g id="edge29" class="edge">
<title>src/main/format.mjs&#45;&gt;src/schema/utl.mjs</title>
<path fill="none" stroke="#000000" stroke-width="2" stroke-opacity="0.200000" d="M321.75,-209.91C321.75,-187.43 321.75,-131 321.75,-131 321.75,-131 404.33,-131 404.33,-131"/>
<polygon fill="#000000" fill-opacity="0.200000" stroke="#000000" stroke-width="2" stroke-opacity="0.200000" points="404.33,-133.1 410.33,-131 404.33,-128.9 404.33,-133.1"/>
</g>
<!-- src/cli/index.mjs -->
<g id="node9" class="node">
<title>src/cli/index.mjs</title>
<g id="a_node9"><a xlink:href="src/cli/index.mjs" xlink:title="index.mjs">
<path fill="#ffffcc" stroke="black" d="M74.58,-95.88C74.58,-95.88 31.42,-95.88 31.42,-95.88 28.46,-95.88 25.5,-92.92 25.5,-89.96 25.5,-89.96 25.5,-84.04 25.5,-84.04 25.5,-81.08 28.46,-78.12 31.42,-78.12 31.42,-78.12 74.58,-78.12 74.58,-78.12 77.54,-78.12 80.5,-81.08 80.5,-84.04 80.5,-84.04 80.5,-89.96 80.5,-89.96 80.5,-92.92 77.54,-95.88 74.58,-95.88"/>
<text xml:space="preserve" text-anchor="start" x="33.5" y="-84.38" font-family="Helvetica,sans-Serif" font-size="9.00">index.mjs</text>
</a>
</g>
</g>
<!-- src/cli/index.mjs&#45;&gt;src/utl/bus.mjs -->
<g id="edge8" class="edge">
<title>src/cli/index.mjs&#45;&gt;src/utl/bus.mjs</title>
<path fill="none" stroke="#000000" stroke-width="2" stroke-opacity="0.200000" d="M80.89,-84.12C96.86,-84.12 113.75,-84.12 113.75,-84.12 113.75,-84.12 113.75,-324.6 113.75,-324.6 113.75,-324.6 670.19,-324.6 670.19,-324.6"/>
<polygon fill="#000000" fill-opacity="0.200000" stroke="#000000" stroke-width="2" stroke-opacity="0.200000" points="670.19,-326.7 676.19,-324.6 670.19,-322.5 670.19,-326.7"/>
</g>
<!-- src/main/cruise.mjs -->
<g id="node10" class="node">
<title>src/main/cruise.mjs</title>
<g id="a_node10"><a xlink:href="src/main/cruise.mjs" xlink:title="cruise.mjs">
<path fill="#ffffcc" stroke="black" d="M197.08,-423.88C197.08,-423.88 151.67,-423.88 151.67,-423.88 148.71,-423.88 145.75,-420.92 145.75,-417.96 145.75,-417.96 145.75,-412.04 145.75,-412.04 145.75,-409.08 148.71,-406.12 151.67,-406.12 151.67,-406.12 197.08,-406.12 197.08,-406.12 200.04,-406.12 203,-409.08 203,-412.04 203,-412.04 203,-417.96 203,-417.96 203,-420.92 200.04,-423.88 197.08,-423.88"/>
<text xml:space="preserve" text-anchor="start" x="153.75" y="-412.38" font-family="Helvetica,sans-Serif" font-size="9.00">cruise.mjs</text>
</a>
</g>
</g>
<!-- src/cli/index.mjs&#45;&gt;src/main/cruise.mjs -->
<g id="edge7" class="edge">
<title>src/cli/index.mjs&#45;&gt;src/main/cruise.mjs</title>
<path fill="none" stroke="#000000" stroke-width="2" stroke-opacity="0.200000" d="M80.83,-87.12C89.93,-87.12 97.75,-87.12 97.75,-87.12 97.75,-87.12 97.75,-410.56 97.75,-410.56 97.75,-410.56 136.38,-410.56 136.38,-410.56"/>
<polygon fill="#000000" fill-opacity="0.200000" stroke="#000000" stroke-width="2" stroke-opacity="0.200000" points="136.38,-412.66 142.38,-410.56 136.38,-408.46 136.38,-412.66"/>
</g>
<!-- src/utl/object&#45;util.mjs -->
<g id="node11" class="node">
<title>src/utl/object&#45;util.mjs</title>
<g id="a_node11"><a xlink:href="src/utl/object-util.mjs" xlink:title="object&#45;util.mjs">
<path fill="#ffffcc" stroke="black" d="M736.83,-275.88C736.83,-275.88 676.42,-275.88 676.42,-275.88 673.46,-275.88 670.5,-272.92 670.5,-269.96 670.5,-269.96 670.5,-264.04 670.5,-264.04 670.5,-261.08 673.46,-258.12 676.42,-258.12 676.42,-258.12 736.83,-258.12 736.83,-258.12 739.79,-258.12 742.75,-261.08 742.75,-264.04 742.75,-264.04 742.75,-269.96 742.75,-269.96 742.75,-272.92 739.79,-275.88 736.83,-275.88"/>
<text xml:space="preserve" text-anchor="start" x="678.5" y="-264.38" font-family="Helvetica,sans-Serif" font-size="9.00">object&#45;util.mjs</text>
</a>
</g>
</g>
<!-- src/cli/index.mjs&#45;&gt;src/utl/object&#45;util.mjs -->
<g id="edge9" class="edge">
<title>src/cli/index.mjs&#45;&gt;src/utl/object&#45;util.mjs</title>
<path fill="none" stroke="#000000" stroke-width="2" stroke-opacity="0.200000" d="M80.67,-81.12C205.1,-81.12 706.75,-81.12 706.75,-81.12 706.75,-81.12 706.75,-248.76 706.75,-248.76"/>
<polygon fill="#000000" fill-opacity="0.200000" stroke="#000000" stroke-width="2" stroke-opacity="0.200000" points="704.65,-248.76 706.75,-254.76 708.85,-248.76 704.65,-248.76"/>
</g>
<!-- src/main/cruise.mjs&#45;&gt;src/analyze/index.mjs -->
<g id="edge20" class="edge">
<title>src/main/cruise.mjs&#45;&gt;src/analyze/index.mjs</title>
<path fill="none" stroke="#000000" stroke-width="2" stroke-dasharray="5,2" stroke-opacity="0.200000" d="M174.75,-424.26C174.75,-480.61 174.75,-775 174.75,-775 174.75,-775 403.65,-775 403.65,-775"/>
<polygon fill="#000000" fill-opacity="0.200000" stroke="#000000" stroke-width="2" stroke-opacity="0.200000" points="403.65,-777.1 409.65,-775 403.65,-772.9 403.65,-777.1"/>
</g>
<!-- src/main/cruise.mjs&#45;&gt;src/utl/bus.mjs -->
<g id="edge23" class="edge">
<title>src/main/cruise.mjs&#45;&gt;src/utl/bus.mjs</title>
<path fill="none" stroke="#000000" stroke-width="2" stroke-opacity="0.200000" d="M183.75,-405.81C183.75,-383.06 183.75,-325.96 183.75,-325.96 183.75,-325.96 670.22,-325.96 670.22,-325.96"/>
<polygon fill="#000000" fill-opacity="0.200000" stroke="#000000" stroke-width="2" stroke-opacity="0.200000" points="670.22,-328.06 676.22,-325.96 670.22,-323.86 670.22,-328.06"/>
</g>
<!-- src/main/cruise.mjs&#45;&gt;src/cache/cache.mjs -->
<g id="edge21" class="edge">
<title>src/main/cruise.mjs&#45;&gt;src/cache/cache.mjs</title>
<path fill="none" stroke="#000000" stroke-width="2" stroke-dasharray="5,2" stroke-opacity="0.200000" d="M164.75,-424.24C164.75,-484.68 164.75,-821 164.75,-821 164.75,-821 273.98,-821 273.98,-821"/>
<polygon fill="#000000" fill-opacity="0.200000" stroke="#000000" stroke-width="2" stroke-opacity="0.200000" points="273.98,-823.1 279.98,-821 273.98,-818.9 273.98,-823.1"/>
</g>
<!-- src/main/resolve&#45;options/normalize.mjs -->
<g id="node13" class="node">
<title>src/main/resolve&#45;options/normalize.mjs</title>
<g id="a_node13"><a xlink:href="src/main/resolve-options/normalize.mjs" xlink:title="normalize.mjs">
<path fill="#ffffcc" stroke="black" d="M342.71,-449.88C342.71,-449.88 281.54,-449.88 281.54,-449.88 278.58,-449.88 275.62,-446.92 275.62,-443.96 275.62,-443.96 275.62,-438.04 275.62,-438.04 275.62,-435.08 278.58,-432.12 281.54,-432.12 281.54,-432.12 342.71,-432.12 342.71,-432.12 345.67,-432.12 348.62,-435.08 348.62,-438.04 348.62,-438.04 348.62,-443.96 348.62,-443.96 348.62,-446.92 345.67,-449.88 342.71,-449.88"/>
<text xml:space="preserve" text-anchor="start" x="283.62" y="-438.38" font-family="Helvetica,sans-Serif" font-size="9.00">normalize.mjs</text>
</a>
</g>
</g>
<!-- src/main/cruise.mjs&#45;&gt;src/main/resolve&#45;options/normalize.mjs -->
<g id="edge17" class="edge">
<title>src/main/cruise.mjs&#45;&gt;src/main/resolve&#45;options/normalize.mjs</title>
<path fill="none" stroke="#000000" stroke-width="2" stroke-dasharray="5,2" stroke-opacity="0.200000" d="M193.75,-424.16C193.75,-432.65 193.75,-443.96 193.75,-443.96 193.75,-443.96 266.29,-443.96 266.29,-443.96"/>
<polygon fill="#000000" fill-opacity="0.200000" stroke="#000000" stroke-width="2" stroke-opacity="0.200000" points="266.29,-446.06 272.29,-443.96 266.29,-441.86 266.29,-446.06"/>
</g>
<!-- src/extract/index.mjs -->
<g id="node14" class="node">
<title>src/extract/index.mjs</title>
<g id="a_node14"><a xlink:href="src/extract/index.mjs" xlink:title="index.mjs">
<path fill="#ffffcc" stroke="black" d="M462.21,-939.88C462.21,-939.88 419.04,-939.88 419.04,-939.88 416.08,-939.88 413.12,-936.92 413.12,-933.96 413.12,-933.96 413.12,-928.04 413.12,-928.04 413.12,-925.08 416.08,-922.12 419.04,-922.12 419.04,-922.12 462.21,-922.12 462.21,-922.12 465.17,-922.12 468.12,-925.08 468.12,-928.04 468.12,-928.04 468.12,-933.96 468.12,-933.96 468.12,-936.92 465.17,-939.88 462.21,-939.88"/>
<text xml:space="preserve" text-anchor="start" x="421.12" y="-928.38" font-family="Helvetica,sans-Serif" font-size="9.00">index.mjs</text>
</a>
</g>
</g>
<!-- src/main/cruise.mjs&#45;&gt;src/extract/index.mjs -->
<g id="edge22" class="edge">
<title>src/main/cruise.mjs&#45;&gt;src/extract/index.mjs</title>
<path fill="none" stroke="#000000" stroke-width="2" stroke-dasharray="5,2" stroke-opacity="0.200000" d="M155.75,-424.01C155.75,-492.92 155.75,-933.96 155.75,-933.96 155.75,-933.96 403.76,-933.96 403.76,-933.96"/>
<polygon fill="#000000" fill-opacity="0.200000" stroke="#000000" stroke-width="2" stroke-opacity="0.200000" points="403.76,-936.06 409.76,-933.96 403.76,-931.86 403.76,-936.06"/>
</g>
<!-- src/utl/regex&#45;util.mjs -->
<g id="node16" class="node">
<title>src/utl/regex&#45;util.mjs</title>
<g id="a_node16"><a xlink:href="src/utl/regex-util.mjs" xlink:title="regex&#45;util.mjs">
<path fill="#ffffcc" stroke="black" d="M736.08,-365.88C736.08,-365.88 677.17,-365.88 677.17,-365.88 674.21,-365.88 671.25,-362.92 671.25,-359.96 671.25,-359.96 671.25,-354.04 671.25,-354.04 671.25,-351.08 674.21,-348.12 677.17,-348.12 677.17,-348.12 736.08,-348.12 736.08,-348.12 739.04,-348.12 742,-351.08 742,-354.04 742,-354.04 742,-359.96 742,-359.96 742,-362.92 739.04,-365.88 736.08,-365.88"/>
<text xml:space="preserve" text-anchor="start" x="679.25" y="-354.38" font-family="Helvetica,sans-Serif" font-size="9.00">regex&#45;util.mjs</text>
</a>
</g>
</g>
<!-- src/main/cruise.mjs&#45;&gt;src/utl/regex&#45;util.mjs -->
<g id="edge24" class="edge">
<title>src/main/cruise.mjs&#45;&gt;src/utl/regex&#45;util.mjs</title>
<path fill="none" stroke="#000000" stroke-width="2" stroke-opacity="0.200000" d="M203.47,-417.96C313.06,-417.96 694.75,-417.96 694.75,-417.96 694.75,-417.96 694.75,-375.29 694.75,-375.29"/>
<polygon fill="#000000" fill-opacity="0.200000" stroke="#000000" stroke-width="2" stroke-opacity="0.200000" points="696.85,-375.29 694.75,-369.29 692.65,-375.29 696.85,-375.29"/>
</g>
<!-- src/main/files&#45;and&#45;dirs/normalize.mjs -->
<g id="node20" class="node">
<title>src/main/files&#45;and&#45;dirs/normalize.mjs</title>
<g id="a_node20"><a xlink:href="src/main/files-and-dirs/normalize.mjs" xlink:title="normalize.mjs">
<path fill="#ffffcc" stroke="black" d="M342.71,-261.88C342.71,-261.88 281.54,-261.88 281.54,-261.88 278.58,-261.88 275.62,-258.92 275.62,-255.96 275.62,-255.96 275.62,-250.04 275.62,-250.04 275.62,-247.08 278.58,-244.12 281.54,-244.12 281.54,-244.12 342.71,-244.12 342.71,-244.12 345.67,-244.12 348.62,-247.08 348.62,-250.04 348.62,-250.04 348.62,-255.96 348.62,-255.96 348.62,-258.92 345.67,-261.88 342.71,-261.88"/>
<text xml:space="preserve" text-anchor="start" x="283.62" y="-250.38" font-family="Helvetica,sans-Serif" font-size="9.00">normalize.mjs</text>
</a>
</g>
</g>
<!-- src/main/cruise.mjs&#45;&gt;src/main/files&#45;and&#45;dirs/normalize.mjs -->
<g id="edge13" class="edge">
<title>src/main/cruise.mjs&#45;&gt;src/main/files&#45;and&#45;dirs/normalize.mjs</title>
<path fill="none" stroke="#000000" stroke-width="2" stroke-dasharray="5,2" stroke-opacity="0.200000" d="M155.75,-405.83C155.75,-371.56 155.75,-253 155.75,-253 155.75,-253 266.43,-253 266.43,-253"/>
<polygon fill="#000000" fill-opacity="0.200000" stroke="#000000" stroke-width="2" stroke-opacity="0.200000" points="266.43,-255.1 272.43,-253 266.43,-250.9 266.43,-255.1"/>
</g>
<!-- src/main/cruise.mjs&#45;&gt;src/main/options/assert&#45;validity.mjs -->
<g id="edge14" class="edge">
<title>src/main/cruise.mjs&#45;&gt;src/main/options/assert&#45;validity.mjs</title>
<path fill="none" stroke="#000000" stroke-width="2" stroke-opacity="0.200000" d="M174.75,-405.72C174.75,-377.86 174.75,-296.79 174.75,-296.79 174.75,-296.79 386.8,-296.79 386.8,-296.79"/>
<polygon fill="#000000" fill-opacity="0.200000" stroke="#000000" stroke-width="2" stroke-opacity="0.200000" points="386.8,-298.89 392.8,-296.79 386.8,-294.69 386.8,-298.89"/>
</g>
<!-- src/main/cruise.mjs&#45;&gt;src/main/options/normalize.mjs -->
<g id="edge15" class="edge">
<title>src/main/cruise.mjs&#45;&gt;src/main/options/normalize.mjs</title>
<path fill="none" stroke="#000000" stroke-width="2" stroke-opacity="0.200000" d="M164.75,-405.92C164.75,-374.15 164.75,-269.88 164.75,-269.88 164.75,-269.88 394.68,-269.88 394.68,-269.88"/>
<polygon fill="#000000" fill-opacity="0.200000" stroke="#000000" stroke-width="2" stroke-opacity="0.200000" points="394.68,-271.98 400.68,-269.88 394.68,-267.78 394.68,-271.98"/>
</g>
<!-- src/main/cruise.mjs&#45;&gt;src/main/report&#45;wrap.mjs -->
<g id="edge16" class="edge">
<title>src/main/cruise.mjs&#45;&gt;src/main/report&#45;wrap.mjs</title>
<path fill="none" stroke="#000000" stroke-width="2" stroke-opacity="0.200000" d="M183.75,-424.08C183.75,-439.68 183.75,-469.96 183.75,-469.96 183.75,-469.96 391.46,-469.96 391.46,-469.96"/>
<polygon fill="#000000" fill-opacity="0.200000" stroke="#000000" stroke-width="2" stroke-opacity="0.200000" points="391.46,-472.06 397.46,-469.96 391.46,-467.86 391.46,-472.06"/>
</g>
<!-- src/main/rule&#45;set/assert&#45;validity.mjs -->
<g id="node24" class="node">
<title>src/main/rule&#45;set/assert&#45;validity.mjs</title>
<g id="a_node24"><a xlink:href="src/main/rule-set/assert-validity.mjs" xlink:title="assert&#45;validity.mjs">
<path fill="#ffffcc" stroke="black" d="M350.58,-321.88C350.58,-321.88 273.67,-321.88 273.67,-321.88 270.71,-321.88 267.75,-318.92 267.75,-315.96 267.75,-315.96 267.75,-310.04 267.75,-310.04 267.75,-307.08 270.71,-304.12 273.67,-304.12 273.67,-304.12 350.58,-304.12 350.58,-304.12 353.54,-304.12 356.5,-307.08 356.5,-310.04 356.5,-310.04 356.5,-315.96 356.5,-315.96 356.5,-318.92 353.54,-321.88 350.58,-321.88"/>
<text xml:space="preserve" text-anchor="start" x="275.75" y="-310.38" font-family="Helvetica,sans-Serif" font-size="9.00">assert&#45;validity.mjs</text>
</a>
</g>
</g>
<!-- src/main/cruise.mjs&#45;&gt;src/main/rule&#45;set/assert&#45;validity.mjs -->
<g id="edge18" class="edge">
<title>src/main/cruise.mjs&#45;&gt;src/main/rule&#45;set/assert&#45;validity.mjs</title>
<path fill="none" stroke="#000000" stroke-width="2" stroke-dasharray="5,2" stroke-opacity="0.200000" d="M203.33,-412.04C232.03,-412.04 271.75,-412.04 271.75,-412.04 271.75,-412.04 271.75,-331.17 271.75,-331.17"/>
<polygon fill="#000000" fill-opacity="0.200000" stroke="#000000" stroke-width="2" stroke-opacity="0.200000" points="273.85,-331.17 271.75,-325.17 269.65,-331.17 273.85,-331.17"/>
</g>
<!-- src/main/rule&#45;set/normalize.mjs -->
<g id="node25" class="node">
<title>src/main/rule&#45;set/normalize.mjs</title>
<g id="a_node25"><a xlink:href="src/main/rule-set/normalize.mjs" xlink:title="normalize.mjs">
<path fill="#ffffcc" stroke="black" d="M342.71,-351.88C342.71,-351.88 281.54,-351.88 281.54,-351.88 278.58,-351.88 275.62,-348.92 275.62,-345.96 275.62,-345.96 275.62,-340.04 275.62,-340.04 275.62,-337.08 278.58,-334.12 281.54,-334.12 281.54,-334.12 342.71,-334.12 342.71,-334.12 345.67,-334.12 348.62,-337.08 348.62,-340.04 348.62,-340.04 348.62,-345.96 348.62,-345.96 348.62,-348.92 345.67,-351.88 342.71,-351.88"/>
<text xml:space="preserve" text-anchor="start" x="283.62" y="-340.38" font-family="Helvetica,sans-Serif" font-size="9.00">normalize.mjs</text>
</a>
</g>
</g>
<!-- src/main/cruise.mjs&#45;&gt;src/main/rule&#45;set/normalize.mjs -->
<g id="edge19" class="edge">
<title>src/main/cruise.mjs&#45;&gt;src/main/rule&#45;set/normalize.mjs</title>
<path fill="none" stroke="#000000" stroke-width="2" stroke-dasharray="5,2" stroke-opacity="0.200000" d="M192.75,-405.88C192.75,-386.51 192.75,-343 192.75,-343 192.75,-343 266.31,-343 266.31,-343"/>
<polygon fill="#000000" fill-opacity="0.200000" stroke="#000000" stroke-width="2" stroke-opacity="0.200000" points="266.31,-345.1 272.31,-343 266.31,-340.9 266.31,-345.1"/>
</g>
<!-- src/config&#45;utl/extract&#45;depcruise&#45;config/index.mjs -->
<g id="node12" class="node">
<title>src/config&#45;utl/extract&#45;depcruise&#45;config/index.mjs</title>
<g id="a_node12"><a xlink:href="src/config-utl/extract-depcruise-config/index.mjs" xlink:title="index.mjs">
<path fill="#ffffcc" stroke="black" d="M195.96,-141.88C195.96,-141.88 152.79,-141.88 152.79,-141.88 149.83,-141.88 146.88,-138.92 146.88,-135.96 146.88,-135.96 146.88,-130.04 146.88,-130.04 146.88,-127.08 149.83,-124.12 152.79,-124.12 152.79,-124.12 195.96,-124.12 195.96,-124.12 198.92,-124.12 201.88,-127.08 201.88,-130.04 201.88,-130.04 201.88,-135.96 201.88,-135.96 201.88,-138.92 198.92,-141.88 195.96,-141.88"/>
<text xml:space="preserve" text-anchor="start" x="154.88" y="-130.38" font-family="Helvetica,sans-Serif" font-size="9.00">index.mjs</text>
</a>
</g>
</g>
<!-- src/config&#45;utl/extract&#45;depcruise&#45;config/index.mjs&#45;&gt;src/main/resolve&#45;options/normalize.mjs -->
<g id="edge10" class="edge">
<title>src/config&#45;utl/extract&#45;depcruise&#45;config/index.mjs&#45;&gt;src/main/resolve&#45;options/normalize.mjs</title>
<path fill="none" stroke="#000000" stroke-width="2" stroke-opacity="0.200000" d="M202.19,-127.56C218.43,-127.56 235.75,-127.56 235.75,-127.56 235.75,-127.56 235.75,-438.04 235.75,-438.04 235.75,-438.04 266.25,-438.04 266.25,-438.04"/>
<polygon fill="#000000" fill-opacity="0.200000" stroke="#000000" stroke-width="2" stroke-opacity="0.200000" points="266.25,-440.14 272.25,-438.04 266.25,-435.94 266.25,-440.14"/>
</g>
<!-- src/main/resolve&#45;options/normalize.mjs&#45;&gt;src/extract/transpile/meta.mjs -->
<g id="edge45" class="edge">
<title>src/main/resolve&#45;options/normalize.mjs&#45;&gt;src/extract/transpile/meta.mjs</title>
<path fill="none" stroke="#000000" stroke-width="2" stroke-opacity="0.200000" d="M343.75,-450.09C343.75,-512.56 343.75,-876.04 343.75,-876.04 343.75,-876.04 404.36,-876.04 404.36,-876.04"/>
<polygon fill="#000000" fill-opacity="0.200000" stroke="#000000" stroke-width="2" stroke-opacity="0.200000" points="404.36,-878.14 410.36,-876.04 404.35,-873.94 404.36,-878.14"/>
</g>
<!-- src/graph&#45;utl/rule&#45;set.mjs -->
<g id="node18" class="node">
<title>src/graph&#45;utl/rule&#45;set.mjs</title>
<g id="a_node18"><a xlink:href="src/graph-utl/rule-set.mjs" xlink:title="rule&#45;set.mjs">
<path fill="#ffffcc" stroke="black" d="M611.33,-715.88C611.33,-715.88 559.92,-715.88 559.92,-715.88 556.96,-715.88 554,-712.92 554,-709.96 554,-709.96 554,-704.04 554,-704.04 554,-701.08 556.96,-698.12 559.92,-698.12 559.92,-698.12 611.33,-698.12 611.33,-698.12 614.29,-698.12 617.25,-701.08 617.25,-704.04 617.25,-704.04 617.25,-709.96 617.25,-709.96 617.25,-712.92 614.29,-715.88 611.33,-715.88"/>
<text xml:space="preserve" text-anchor="start" x="562" y="-704.38" font-family="Helvetica,sans-Serif" font-size="9.00">rule&#45;set.mjs</text>
</a>
</g>
</g>
<!-- src/main/resolve&#45;options/normalize.mjs&#45;&gt;src/graph&#45;utl/rule&#45;set.mjs -->
<g id="edge46" class="edge">
<title>src/main/resolve&#45;options/normalize.mjs&#45;&gt;src/graph&#45;utl/rule&#45;set.mjs</title>
<path fill="none" stroke="#000000" stroke-width="2" stroke-opacity="0.200000" d="M345.75,-450.16C345.75,-496.93 345.75,-707 345.75,-707 345.75,-707 544.74,-707 544.74,-707"/>
<polygon fill="#000000" fill-opacity="0.200000" stroke="#000000" stroke-width="2" stroke-opacity="0.200000" points="544.74,-709.1 550.74,-707 544.74,-704.9 544.74,-709.1"/>
</g>
<!-- src/extract/index.mjs&#45;&gt;src/utl/bus.mjs -->
<g id="edge11" class="edge">
<title>src/extract/index.mjs&#45;&gt;src/utl/bus.mjs</title>
<path fill="none" stroke="#000000" stroke-width="2" stroke-opacity="0.200000" d="M412.87,-928.04C400.53,-928.04 388.75,-928.04 388.75,-928.04 388.75,-928.04 388.75,-330.04 388.75,-330.04 388.75,-330.04 670.22,-330.04 670.22,-330.04"/>
<polygon fill="#000000" fill-opacity="0.200000" stroke="#000000" stroke-width="2" stroke-opacity="0.200000" points="670.22,-332.14 676.22,-330.04 670.22,-327.94 670.22,-332.14"/>
</g>
<!-- src/graph&#45;utl/consolidate&#45;to&#45;pattern.mjs -->
<g id="node15" class="node">
<title>src/graph&#45;utl/consolidate&#45;to&#45;pattern.mjs</title>
<g id="a_node15"><a xlink:href="src/graph-utl/consolidate-to-pattern.mjs" xlink:title="consolidate&#45;to&#45;pattern.mjs">
<path fill="#ffffcc" stroke="black" d="M640.58,-685.88C640.58,-685.88 530.67,-685.88 530.67,-685.88 527.71,-685.88 524.75,-682.92 524.75,-679.96 524.75,-679.96 524.75,-674.04 524.75,-674.04 524.75,-671.08 527.71,-668.12 530.67,-668.12 530.67,-668.12 640.58,-668.12 640.58,-668.12 643.54,-668.12 646.5,-671.08 646.5,-674.04 646.5,-674.04 646.5,-679.96 646.5,-679.96 646.5,-682.92 643.54,-685.88 640.58,-685.88"/>
<text xml:space="preserve" text-anchor="start" x="532.75" y="-674.38" font-family="Helvetica,sans-Serif" font-size="9.00">consolidate&#45;to&#45;pattern.mjs</text>
</a>
</g>
</g>
<!-- src/graph&#45;utl/consolidate&#45;to&#45;pattern.mjs&#45;&gt;src/utl/regex&#45;util.mjs -->
<g id="edge12" class="edge">
<title>src/graph&#45;utl/consolidate&#45;to&#45;pattern.mjs&#45;&gt;src/utl/regex&#45;util.mjs</title>
<path fill="none" stroke="#000000" stroke-width="2" stroke-opacity="0.200000" d="M646.73,-677C681.73,-677 718.75,-677 718.75,-677 718.75,-677 718.75,-375.26 718.75,-375.26"/>
<polygon fill="#000000" fill-opacity="0.200000" stroke="#000000" stroke-width="2" stroke-opacity="0.200000" points="720.85,-375.26 718.75,-369.26 716.65,-375.26 720.85,-375.26"/>
</g>
<!-- src/graph&#45;utl/filter&#45;bank.mjs -->
<g id="node17" class="node">
<title>src/graph&#45;utl/filter&#45;bank.mjs</title>
<g id="a_node17"><a xlink:href="src/graph-utl/filter-bank.mjs" xlink:title="filter&#45;bank.mjs">
<path fill="#ffffcc" stroke="black" d="M616.21,-595.88C616.21,-595.88 555.04,-595.88 555.04,-595.88 552.08,-595.88 549.12,-592.92 549.12,-589.96 549.12,-589.96 549.12,-584.04 549.12,-584.04 549.12,-581.08 552.08,-578.12 555.04,-578.12 555.04,-578.12 616.21,-578.12 616.21,-578.12 619.17,-578.12 622.12,-581.08 622.12,-584.04 622.12,-584.04 622.12,-589.96 622.12,-589.96 622.12,-592.92 619.17,-595.88 616.21,-595.88"/>
<text xml:space="preserve" text-anchor="start" x="557.12" y="-584.38" font-family="Helvetica,sans-Serif" font-size="9.00">filter&#45;bank.mjs</text>
</a>
</g>
</g>
<!-- src/graph&#45;utl/strip&#45;self&#45;transitions.mjs -->
<g id="node19" class="node">
<title>src/graph&#45;utl/strip&#45;self&#45;transitions.mjs</title>
<g id="a_node19"><a xlink:href="src/graph-utl/strip-self-transitions.mjs" xlink:title="strip&#45;self&#45;transitions.mjs">
<path fill="#ffffcc" stroke="black" d="M635.71,-655.88C635.71,-655.88 535.54,-655.88 535.54,-655.88 532.58,-655.88 529.62,-652.92 529.62,-649.96 529.62,-649.96 529.62,-644.04 529.62,-644.04 529.62,-641.08 532.58,-638.12 535.54,-638.12 535.54,-638.12 635.71,-638.12 635.71,-638.12 638.67,-638.12 641.62,-641.08 641.62,-644.04 641.62,-644.04 641.62,-649.96 641.62,-649.96 641.62,-652.92 638.67,-655.88 635.71,-655.88"/>
<text xml:space="preserve" text-anchor="start" x="537.62" y="-644.38" font-family="Helvetica,sans-Serif" font-size="9.00">strip&#45;self&#45;transitions.mjs</text>
</a>
</g>
</g>
<!-- src/report/index.mjs -->
<g id="node31" class="node">
<title>src/report/index.mjs</title>
<g id="a_node31"><a xlink:href="src/report/index.mjs" xlink:title="index.mjs">
<path fill="#ffffcc" stroke="black" d="M607.21,-535.88C607.21,-535.88 564.04,-535.88 564.04,-535.88 561.08,-535.88 558.12,-532.92 558.12,-529.96 558.12,-529.96 558.12,-524.04 558.12,-524.04 558.12,-521.08 561.08,-518.12 564.04,-518.12 564.04,-518.12 607.21,-518.12 607.21,-518.12 610.17,-518.12 613.12,-521.08 613.12,-524.04 613.12,-524.04 613.12,-529.96 613.12,-529.96 613.12,-532.92 610.17,-535.88 607.21,-535.88"/>
<text xml:space="preserve" text-anchor="start" x="566.12" y="-524.38" font-family="Helvetica,sans-Serif" font-size="9.00">index.mjs</text>
</a>
</g>
</g>
<!-- src/main/options/assert&#45;validity.mjs&#45;&gt;src/report/index.mjs -->
<g id="edge34" class="edge">
<title>src/main/options/assert&#45;validity.mjs&#45;&gt;src/report/index.mjs</title>
<path fill="none" stroke="#000000" stroke-width="2" stroke-opacity="0.200000" d="M485.43,-300.62C499.18,-300.62 510.75,-300.62 510.75,-300.62 510.75,-300.62 510.75,-524.04 510.75,-524.04 510.75,-524.04 548.72,-524.04 548.72,-524.04"/>
<polygon fill="#000000" fill-opacity="0.200000" stroke="#000000" stroke-width="2" stroke-opacity="0.200000" points="548.72,-526.14 554.72,-524.04 548.72,-521.94 548.72,-526.14"/>
</g>
<!-- src/main/helpers.mjs -->
<g id="node28" class="node">
<title>src/main/helpers.mjs</title>
<g id="a_node28"><a xlink:href="src/main/helpers.mjs" xlink:title="helpers.mjs">
<path fill="#ffffcc" stroke="black" d="M611.33,-359.88C611.33,-359.88 559.92,-359.88 559.92,-359.88 556.96,-359.88 554,-356.92 554,-353.96 554,-353.96 554,-348.04 554,-348.04 554,-345.08 556.96,-342.12 559.92,-342.12 559.92,-342.12 611.33,-342.12 611.33,-342.12 614.29,-342.12 617.25,-345.08 617.25,-348.04 617.25,-348.04 617.25,-353.96 617.25,-353.96 617.25,-356.92 614.29,-359.88 611.33,-359.88"/>
<text xml:space="preserve" text-anchor="start" x="562" y="-348.38" font-family="Helvetica,sans-Serif" font-size="9.00">helpers.mjs</text>
</a>
</g>
</g>
<!-- src/main/options/normalize.mjs&#45;&gt;src/main/helpers.mjs -->
<g id="edge35" class="edge">
<title>src/main/options/normalize.mjs&#45;&gt;src/main/helpers.mjs</title>
<path fill="none" stroke="#000000" stroke-width="2" stroke-opacity="0.200000" d="M477.25,-273.44C495.93,-273.44 514.75,-273.44 514.75,-273.44 514.75,-273.44 514.75,-344.56 514.75,-344.56 514.75,-344.56 544.48,-344.56 544.48,-344.56"/>
<polygon fill="#000000" fill-opacity="0.200000" stroke="#000000" stroke-width="2" stroke-opacity="0.200000" points="544.48,-346.66 550.48,-344.56 544.48,-342.46 544.48,-346.66"/>
</g>
<!-- src/main/options/defaults.mjs -->
<g id="node32" class="node">
<title>src/main/options/defaults.mjs</title>
<g id="a_node32"><a xlink:href="src/main/options/defaults.mjs" xlink:title="defaults.mjs">
<path fill="#ffffcc" stroke="black" d="M612.08,-277.88C612.08,-277.88 559.17,-277.88 559.17,-277.88 556.21,-277.88 553.25,-274.92 553.25,-271.96 553.25,-271.96 553.25,-266.04 553.25,-266.04 553.25,-263.08 556.21,-260.12 559.17,-260.12 559.17,-260.12 612.08,-260.12 612.08,-260.12 615.04,-260.12 618,-263.08 618,-266.04 618,-266.04 618,-271.96 618,-271.96 618,-274.92 615.04,-277.88 612.08,-277.88"/>
<text xml:space="preserve" text-anchor="start" x="561.25" y="-266.38" font-family="Helvetica,sans-Serif" font-size="9.00">defaults.mjs</text>
</a>
</g>
</g>
<!-- src/main/options/normalize.mjs&#45;&gt;src/main/options/defaults.mjs -->
<g id="edge36" class="edge">
<title>src/main/options/normalize.mjs&#45;&gt;src/main/options/defaults.mjs</title>
<path fill="none" stroke="#000000" stroke-width="2" stroke-opacity="0.200000" d="M477.59,-264.56C477.59,-264.56 544.14,-264.56 544.14,-264.56"/>
<polygon fill="#000000" fill-opacity="0.200000" stroke="#000000" stroke-width="2" stroke-opacity="0.200000" points="544.14,-266.66 550.14,-264.56 544.14,-262.46 544.14,-266.66"/>
</g>
<!-- src/utl/array&#45;util.mjs -->
<g id="node33" class="node">
<title>src/utl/array&#45;util.mjs</title>
<g id="a_node33"><a xlink:href="src/utl/array-util.mjs" xlink:title="array&#45;util.mjs">
<path fill="#ffffcc" stroke="black" d="M734.96,-305.88C734.96,-305.88 678.29,-305.88 678.29,-305.88 675.33,-305.88 672.38,-302.92 672.38,-299.96 672.38,-299.96 672.38,-294.04 672.38,-294.04 672.38,-291.08 675.33,-288.12 678.29,-288.12 678.29,-288.12 734.96,-288.12 734.96,-288.12 737.92,-288.12 740.88,-291.08 740.88,-294.04 740.88,-294.04 740.88,-299.96 740.88,-299.96 740.88,-302.92 737.92,-305.88 734.96,-305.88"/>
<text xml:space="preserve" text-anchor="start" x="680.38" y="-294.38" font-family="Helvetica,sans-Serif" font-size="9.00">array&#45;util.mjs</text>
</a>
</g>
</g>
<!-- src/main/options/normalize.mjs&#45;&gt;src/utl/array&#45;util.mjs -->
<g id="edge37" class="edge">
<title>src/main/options/normalize.mjs&#45;&gt;src/utl/array&#45;util.mjs</title>
<path fill="none" stroke="#000000" stroke-width="2" stroke-opacity="0.200000" d="M477.41,-269C498.07,-269 519.75,-269 519.75,-269 519.75,-269 519.75,-295.38 519.75,-295.38 519.75,-295.38 662.89,-295.38 662.89,-295.38"/>
<polygon fill="#000000" fill-opacity="0.200000" stroke="#000000" stroke-width="2" stroke-opacity="0.200000" points="662.89,-297.48 668.89,-295.38 662.89,-293.28 662.89,-297.48"/>
</g>
<!-- src/main/report&#45;wrap.mjs&#45;&gt;src/analyze/summarize/index.mjs -->
<g id="edge38" class="edge">
<title>src/main/report&#45;wrap.mjs&#45;&gt;src/analyze/summarize/index.mjs</title>
<path fill="none" stroke="#000000" stroke-width="2" stroke-opacity="0.200000" d="M480.76,-467C494.16,-467 505.75,-467 505.75,-467 505.75,-467 505.75,-775 505.75,-775 505.75,-775 548.66,-775 548.66,-775"/>
<polygon fill="#000000" fill-opacity="0.200000" stroke="#000000" stroke-width="2" stroke-opacity="0.200000" points="548.66,-777.1 554.66,-775 548.66,-772.9 548.66,-777.1"/>
</g>
<!-- src/main/report&#45;wrap.mjs&#45;&gt;src/utl/bus.mjs -->
<g id="edge44" class="edge">
<title>src/main/report&#45;wrap.mjs&#45;&gt;src/utl/bus.mjs</title>
<path fill="none" stroke="#000000" stroke-width="2" stroke-opacity="0.200000" d="M440.75,-457.68C440.75,-427.04 440.75,-331.4 440.75,-331.4 440.75,-331.4 670.15,-331.4 670.15,-331.4"/>
<polygon fill="#000000" fill-opacity="0.200000" stroke="#000000" stroke-width="2" stroke-opacity="0.200000" points="670.15,-333.5 676.15,-331.4 670.15,-329.3 670.15,-333.5"/>
</g>
<!-- src/main/report&#45;wrap.mjs&#45;&gt;src/graph&#45;utl/compare.mjs -->
<g id="edge39" class="edge">
<title>src/main/report&#45;wrap.mjs&#45;&gt;src/graph&#45;utl/compare.mjs</title>
<path fill="none" stroke="#000000" stroke-width="2" stroke-opacity="0.200000" d="M474.75,-475.93C474.75,-508.23 474.75,-617 474.75,-617 474.75,-617 542.12,-617 542.12,-617"/>
<polygon fill="#000000" fill-opacity="0.200000" stroke="#000000" stroke-width="2" stroke-opacity="0.200000" points="542.12,-619.1 548.12,-617 542.12,-614.9 542.12,-619.1"/>
</g>
<!-- src/main/report&#45;wrap.mjs&#45;&gt;src/graph&#45;utl/consolidate&#45;to&#45;pattern.mjs -->
<g id="edge40" class="edge">
<title>src/main/report&#45;wrap.mjs&#45;&gt;src/graph&#45;utl/consolidate&#45;to&#45;pattern.mjs</title>
<path fill="none" stroke="#000000" stroke-width="2" stroke-opacity="0.200000" d="M469.75,-476.29C469.75,-516.94 469.75,-677 469.75,-677 469.75,-677 515.27,-677 515.27,-677"/>
<polygon fill="#000000" fill-opacity="0.200000" stroke="#000000" stroke-width="2" stroke-opacity="0.200000" points="515.27,-679.1 521.27,-677 515.27,-674.9 515.27,-679.1"/>
</g>
<!-- src/main/report&#45;wrap.mjs&#45;&gt;src/graph&#45;utl/filter&#45;bank.mjs -->
<g id="edge41" class="edge">
<title>src/main/report&#45;wrap.mjs&#45;&gt;src/graph&#45;utl/filter&#45;bank.mjs</title>
<path fill="none" stroke="#000000" stroke-width="2" stroke-opacity="0.200000" d="M476.75,-476.02C476.75,-503.93 476.75,-587 476.75,-587 476.75,-587 539.74,-587 539.74,-587"/>
<polygon fill="#000000" fill-opacity="0.200000" stroke="#000000" stroke-width="2" stroke-opacity="0.200000" points="539.74,-589.1 545.74,-587 539.74,-584.9 539.74,-589.1"/>
</g>
<!-- src/main/report&#45;wrap.mjs&#45;&gt;src/graph&#45;utl/strip&#45;self&#45;transitions.mjs -->
<g id="edge42" class="edge">
<title>src/main/report&#45;wrap.mjs&#45;&gt;src/graph&#45;utl/strip&#45;self&#45;transitions.mjs</title>
<path fill="none" stroke="#000000" stroke-width="2" stroke-opacity="0.200000" d="M471.75,-476.17C471.75,-512.85 471.75,-647 471.75,-647 471.75,-647 520.33,-647 520.33,-647"/>
<polygon fill="#000000" fill-opacity="0.200000" stroke="#000000" stroke-width="2" stroke-opacity="0.200000" points="520.33,-649.1 526.33,-647 520.33,-644.9 520.33,-649.1"/>
</g>
<!-- src/main/report&#45;wrap.mjs&#45;&gt;src/report/index.mjs -->
<g id="edge43" class="edge">
<title>src/main/report&#45;wrap.mjs&#45;&gt;src/report/index.mjs</title>
<path fill="none" stroke="#000000" stroke-width="2" stroke-opacity="0.200000" d="M478.75,-476.29C478.75,-493.8 478.75,-529.96 478.75,-529.96 478.75,-529.96 548.8,-529.96 548.8,-529.96"/>
<polygon fill="#000000" fill-opacity="0.200000" stroke="#000000" stroke-width="2" stroke-opacity="0.200000" points="548.8,-532.06 554.8,-529.96 548.8,-527.86 548.8,-532.06"/>
</g>
<!-- src/main/rule&#45;set/assert&#45;validity.mjs&#45;&gt;src/utl/bus.mjs -->
<g id="edge51" class="edge">
<title>src/main/rule&#45;set/assert&#45;validity.mjs&#45;&gt;src/utl/bus.mjs</title>
<path fill="none" stroke="#000000" stroke-width="2" stroke-opacity="0.200000" d="M350.75,-322.29C350.75,-322.88 350.75,-323.24 350.75,-323.24 350.75,-323.24 670.26,-323.24 670.26,-323.24"/>
<polygon fill="#000000" fill-opacity="0.200000" stroke="#000000" stroke-width="2" stroke-opacity="0.200000" points="670.26,-325.34 676.26,-323.24 670.26,-321.14 670.26,-325.34"/>
</g>
<!-- src/main/rule&#45;set/assert&#45;validity.mjs&#45;&gt;src/utl/object&#45;util.mjs -->
<g id="edge52" class="edge">
<title>src/main/rule&#45;set/assert&#45;validity.mjs&#45;&gt;src/utl/object&#45;util.mjs</title>
<path fill="none" stroke="#000000" stroke-width="2" stroke-opacity="0.200000" d="M356.9,-313C444.87,-313 631.75,-313 631.75,-313 631.75,-313 631.75,-265.38 631.75,-265.38 631.75,-265.38 661.04,-265.38 661.04,-265.38"/>
<polygon fill="#000000" fill-opacity="0.200000" stroke="#000000" stroke-width="2" stroke-opacity="0.200000" points="661.04,-267.48 667.04,-265.38 661.04,-263.28 661.04,-267.48"/>
</g>
<!-- src/main/rule&#45;set/assert&#45;validity.mjs&#45;&gt;src/main/options/assert&#45;validity.mjs -->
<g id="edge48" class="edge">
<title>src/main/rule&#45;set/assert&#45;validity.mjs&#45;&gt;src/main/options/assert&#45;validity.mjs</title>
<path fill="none" stroke="#000000" stroke-width="2" stroke-opacity="0.200000" d="M354.75,-303.89C354.75,-301.94 354.75,-300.46 354.75,-300.46 354.75,-300.46 386.9,-300.46 386.9,-300.46"/>
<polygon fill="#000000" fill-opacity="0.200000" stroke="#000000" stroke-width="2" stroke-opacity="0.200000" points="386.9,-302.56 392.9,-300.46 386.9,-298.36 386.9,-302.56"/>
</g>
<!-- src/main/rule&#45;set/assert&#45;validity.mjs&#45;&gt;src/schema/utl.mjs -->
<g id="edge50" class="edge">
<title>src/main/rule&#45;set/assert&#45;validity.mjs&#45;&gt;src/schema/utl.mjs</title>
<path fill="none" stroke="#000000" stroke-width="2" stroke-opacity="0.200000" d="M350.75,-303.9C350.75,-267.51 350.75,-134.44 350.75,-134.44 350.75,-134.44 404.14,-134.44 404.14,-134.44"/>
<polygon fill="#000000" fill-opacity="0.200000" stroke="#000000" stroke-width="2" stroke-opacity="0.200000" points="404.14,-136.54 410.14,-134.44 404.14,-132.34 404.14,-136.54"/>
</g>
<!-- src/main/rule&#45;set/assert&#45;validity.mjs&#45;&gt;src/main/helpers.mjs -->
<g id="edge47" class="edge">
<title>src/main/rule&#45;set/assert&#45;validity.mjs&#45;&gt;src/main/helpers.mjs</title>
<path fill="none" stroke="#000000" stroke-width="2" stroke-opacity="0.200000" d="M353.75,-322.29C353.75,-332.36 353.75,-347 353.75,-347 353.75,-347 544.84,-347 544.84,-347"/>
<polygon fill="#000000" fill-opacity="0.200000" stroke="#000000" stroke-width="2" stroke-opacity="0.200000" points="544.84,-349.1 550.84,-347 544.84,-344.9 544.84,-349.1"/>
</g>
<!-- src/schema/configuration.validate.mjs -->
<g id="node34" class="node">
<title>src/schema/configuration.validate.mjs</title>
<g id="a_node34"><a xlink:href="src/schema/configuration.validate.mjs" xlink:title="configuration.validate.mjs">
<path fill="#ffffcc" stroke="black" d="M494.83,-167.88C494.83,-167.88 386.42,-167.88 386.42,-167.88 383.46,-167.88 380.5,-164.92 380.5,-161.96 380.5,-161.96 380.5,-156.04 380.5,-156.04 380.5,-153.08 383.46,-150.12 386.42,-150.12 386.42,-150.12 494.83,-150.12 494.83,-150.12 497.79,-150.12 500.75,-153.08 500.75,-156.04 500.75,-156.04 500.75,-161.96 500.75,-161.96 500.75,-164.92 497.79,-167.88 494.83,-167.88"/>
<text xml:space="preserve" text-anchor="start" x="388.5" y="-156.38" font-family="Helvetica,sans-Serif" font-size="9.00">configuration.validate.mjs</text>
</a>
</g>
</g>
<!-- src/main/rule&#45;set/assert&#45;validity.mjs&#45;&gt;src/schema/configuration.validate.mjs -->
<g id="edge49" class="edge">
<title>src/main/rule&#45;set/assert&#45;validity.mjs&#45;&gt;src/schema/configuration.validate.mjs</title>
<path fill="none" stroke="#000000" stroke-width="2" stroke-opacity="0.200000" d="M352.75,-303.83C352.75,-270.67 352.75,-159 352.75,-159 352.75,-159 371.05,-159 371.05,-159"/>
<polygon fill="#000000" fill-opacity="0.200000" stroke="#000000" stroke-width="2" stroke-opacity="0.200000" points="371.05,-161.1 377.05,-159 371.05,-156.9 371.05,-161.1"/>
</g>
<!-- src/main/rule&#45;set/normalize.mjs&#45;&gt;src/utl/bus.mjs -->
<g id="edge54" class="edge">
<title>src/main/rule&#45;set/normalize.mjs&#45;&gt;src/utl/bus.mjs</title>
<path fill="none" stroke="#000000" stroke-width="2" stroke-opacity="0.200000" d="M311.75,-333.7C311.75,-330.32 311.75,-327.32 311.75,-327.32 311.75,-327.32 670.14,-327.32 670.14,-327.32"/>
<polygon fill="#000000" fill-opacity="0.200000" stroke="#000000" stroke-width="2" stroke-opacity="0.200000" points="670.14,-329.42 676.14,-327.32 670.14,-325.22 670.14,-329.42"/>
</g>
<!-- src/main/rule&#45;set/normalize.mjs&#45;&gt;src/main/helpers.mjs -->
<g id="edge53" class="edge">
<title>src/main/rule&#45;set/normalize.mjs&#45;&gt;src/main/helpers.mjs</title>
<path fill="none" stroke="#000000" stroke-width="2" stroke-opacity="0.200000" d="M349.01,-349.44C349.01,-349.44 544.54,-349.44 544.54,-349.44"/>
<polygon fill="#000000" fill-opacity="0.200000" stroke="#000000" stroke-width="2" stroke-opacity="0.200000" points="544.54,-351.54 550.54,-349.44 544.54,-347.34 544.54,-351.54"/>
</g>
<!-- src/main/helpers.mjs&#45;&gt;src/utl/object&#45;util.mjs -->
<g id="edge30" class="edge">
<title>src/main/helpers.mjs&#45;&gt;src/utl/object&#45;util.mjs</title>
<path fill="none" stroke="#000000" stroke-width="2" stroke-opacity="0.200000" d="M617.44,-354C638.68,-354 662.75,-354 662.75,-354 662.75,-354 662.75,-270.62 662.75,-270.62 662.75,-270.62 663.51,-270.62 663.51,-270.62"/>
<polygon fill="#000000" fill-opacity="0.200000" stroke="#000000" stroke-width="2" stroke-opacity="0.200000" points="661.37,-272.73 667.37,-270.63 661.37,-268.53 661.37,-272.73"/>
</g>
<!-- src/main/index.d.ts -->
<g id="node29" class="node">
<title>src/main/index.d.ts</title>
<g id="a_node29"><a xlink:href="src/main/index.d.ts" xlink:title="index.d.ts">
<path fill="#ccffcc" stroke="black" d="M74.58,-310.88C74.58,-310.88 31.42,-310.88 31.42,-310.88 28.46,-310.88 25.5,-307.92 25.5,-304.96 25.5,-304.96 25.5,-299.04 25.5,-299.04 25.5,-296.08 28.46,-293.12 31.42,-293.12 31.42,-293.12 74.58,-293.12 74.58,-293.12 77.54,-293.12 80.5,-296.08 80.5,-299.04 80.5,-299.04 80.5,-304.96 80.5,-304.96 80.5,-307.92 77.54,-310.88 74.58,-310.88"/>
<text xml:space="preserve" text-anchor="start" x="33.5" y="-299.38" font-family="Helvetica,sans-Serif" font-size="9.00">index.d.ts</text>
</a>
</g>
</g>
<!-- src/main/index.mjs -->
<g id="node30" class="node">
<title>src/main/index.mjs</title>
<g id="a_node30"><a xlink:href="src/main/index.mjs" xlink:title="index.mjs">
<path fill="#ffffcc" stroke="black" d="M74.58,-423.88C74.58,-423.88 31.42,-423.88 31.42,-423.88 28.46,-423.88 25.5,-420.92 25.5,-417.96 25.5,-417.96 25.5,-412.04 25.5,-412.04 25.5,-409.08 28.46,-406.12 31.42,-406.12 31.42,-406.12 74.58,-406.12 74.58,-406.12 77.54,-406.12 80.5,-409.08 80.5,-412.04 80.5,-412.04 80.5,-417.96 80.5,-417.96 80.5,-420.92 77.54,-423.88 74.58,-423.88"/>
<text xml:space="preserve" text-anchor="start" x="33.5" y="-412.38" font-family="Helvetica,sans-Serif" font-size="9.00">index.mjs</text>
</a>
</g>
</g>
<!-- src/main/index.mjs&#45;&gt;src/extract/transpile/meta.mjs -->
<g id="edge33" class="edge">
<title>src/main/index.mjs&#45;&gt;src/extract/transpile/meta.mjs</title>
<path fill="none" stroke="#000000" stroke-width="2" stroke-opacity="0.200000" d="M52.75,-424.33C52.75,-490.14 52.75,-881.96 52.75,-881.96 52.75,-881.96 404.32,-881.96 404.32,-881.96"/>
<polygon fill="#000000" fill-opacity="0.200000" stroke="#000000" stroke-width="2" stroke-opacity="0.200000" points="404.32,-884.06 410.32,-881.96 404.32,-879.86 404.32,-884.06"/>
</g>
<!-- src/main/index.mjs&#45;&gt;src/main/format.mjs -->
<g id="edge32" class="edge">
<title>src/main/index.mjs&#45;&gt;src/main/format.mjs</title>
<path fill="none" stroke="#000000" stroke-width="2" stroke-opacity="0.200000" d="M80.71,-415C102.69,-415 129.75,-415 129.75,-415 129.75,-415 129.75,-221.96 129.75,-221.96 129.75,-221.96 273.8,-221.96 273.8,-221.96"/>
<polygon fill="#000000" fill-opacity="0.200000" stroke="#000000" stroke-width="2" stroke-opacity="0.200000" points="273.8,-224.06 279.8,-221.96 273.8,-219.86 273.8,-224.06"/>
</g>
<!-- src/main/index.mjs&#45;&gt;src/main/cruise.mjs -->
<g id="edge31" class="edge">
<title>src/main/index.mjs&#45;&gt;src/main/cruise.mjs</title>
<path fill="none" stroke="#000000" stroke-width="2" stroke-opacity="0.200000" d="M80.85,-419.44C80.85,-419.44 136.36,-419.44 136.36,-419.44"/>
<polygon fill="#000000" fill-opacity="0.200000" stroke="#000000" stroke-width="2" stroke-opacity="0.200000" points="136.36,-421.54 142.36,-419.44 136.36,-417.34 136.36,-421.54"/>
</g>
</g>
</svg>
