<?xml version="1.0" encoding="UTF-8" standalone="no"?>
<!DOCTYPE svg PUBLIC "-//W3C//DTD SVG 1.1//EN"
 "http://www.w3.org/Graphics/SVG/1.1/DTD/svg11.dtd">
<!-- Generated by graphviz version 8.0.5 (20230430.1635)
 -->
<!-- Title: dependency&#45;cruiser output Pages: 1 -->
<svg width="788pt" height="814pt"
 viewBox="0.00 0.00 788.00 814.00" xmlns="http://www.w3.org/2000/svg" xmlns:xlink="http://www.w3.org/1999/xlink">
<g id="graph0" class="graph" transform="scale(1 1) rotate(0) translate(4 810)">
<title>dependency&#45;cruiser output</title>
<polygon fill="white" stroke="none" points="-4,4 -4,-810 784,-810 784,4 -4,4"/>
<g id="clust1" class="cluster">
<title>cluster_src</title>
<path fill="#ffffff" stroke="black" stroke-width="2" d="M20,-8C20,-8 760,-8 760,-8 766,-8 772,-14 772,-20 772,-20 772,-786 772,-786 772,-792 766,-798 760,-798 760,-798 20,-798 20,-798 14,-798 8,-792 8,-786 8,-786 8,-20 8,-20 8,-14 14,-8 20,-8"/>
<text text-anchor="middle" x="390" y="-785.45" font-family="Helvetica,sans-Serif" font-weight="bold" font-size="9.00">src</text>
</g>
<g id="clust2" class="cluster">
<title>cluster_src/cache</title>
<path fill="#ffffff" stroke="black" stroke-width="2" d="M393.5,-678C393.5,-678 439.5,-678 439.5,-678 445.5,-678 451.5,-684 451.5,-690 451.5,-690 451.5,-718 451.5,-718 451.5,-724 445.5,-730 439.5,-730 439.5,-730 393.5,-730 393.5,-730 387.5,-730 381.5,-724 381.5,-718 381.5,-718 381.5,-690 381.5,-690 381.5,-684 387.5,-678 393.5,-678"/>
<text text-anchor="middle" x="416.5" y="-717.45" font-family="Helvetica,sans-Serif" font-weight="bold" font-size="9.00">cache</text>
</g>
<g id="clust3" class="cluster">
<title>cluster_src/cli</title>
<path fill="#ffffff" stroke="black" stroke-width="2" d="M28,-448C28,-448 178.75,-448 178.75,-448 184.75,-448 190.75,-454 190.75,-460 190.75,-460 190.75,-518 190.75,-518 190.75,-524 184.75,-530 178.75,-530 178.75,-530 28,-530 28,-530 22,-530 16,-524 16,-518 16,-518 16,-460 16,-460 16,-454 22,-448 28,-448"/>
<text text-anchor="middle" x="103.38" y="-517.45" font-family="Helvetica,sans-Serif" font-weight="bold" font-size="9.00">cli</text>
</g>
<g id="clust4" class="cluster">
<title>cluster_src/config&#45;utl</title>
<path fill="#ffffff" stroke="black" stroke-width="2" d="M218.75,-162C218.75,-162 331.75,-162 331.75,-162 337.75,-162 343.75,-168 343.75,-174 343.75,-174 343.75,-236 343.75,-236 343.75,-242 337.75,-248 331.75,-248 331.75,-248 218.75,-248 218.75,-248 212.75,-248 206.75,-242 206.75,-236 206.75,-236 206.75,-174 206.75,-174 206.75,-168 212.75,-162 218.75,-162"/>
<text text-anchor="middle" x="275.25" y="-235.45" font-family="Helvetica,sans-Serif" font-weight="bold" font-size="9.00">config&#45;utl</text>
</g>
<g id="clust5" class="cluster">
<title>cluster_src/config&#45;utl/extract&#45;depcruise&#45;config</title>
<path fill="#ffffff" stroke="black" stroke-width="2" d="M226.75,-170C226.75,-170 323.75,-170 323.75,-170 329.75,-170 335.75,-176 335.75,-182 335.75,-182 335.75,-210 335.75,-210 335.75,-216 329.75,-222 323.75,-222 323.75,-222 226.75,-222 226.75,-222 220.75,-222 214.75,-216 214.75,-210 214.75,-210 214.75,-182 214.75,-182 214.75,-176 220.75,-170 226.75,-170"/>
<text text-anchor="middle" x="275.25" y="-209.45" font-family="Helvetica,sans-Serif" font-weight="bold" font-size="9.00">extract&#45;depcruise&#45;config</text>
</g>
<g id="clust6" class="cluster">
<title>cluster_src/enrich</title>
<path fill="#ffffff" stroke="black" stroke-width="2" d="M393.5,-108C393.5,-108 577.62,-108 577.62,-108 583.62,-108 589.62,-114 589.62,-120 589.62,-120 589.62,-182 589.62,-182 589.62,-188 583.62,-194 577.62,-194 577.62,-194 393.5,-194 393.5,-194 387.5,-194 381.5,-188 381.5,-182 381.5,-182 381.5,-120 381.5,-120 381.5,-114 387.5,-108 393.5,-108"/>
<text text-anchor="middle" x="485.56" y="-181.45" font-family="Helvetica,sans-Serif" font-weight="bold" font-size="9.00">enrich</text>
</g>
<g id="clust7" class="cluster">
<title>cluster_src/enrich/summarize</title>
<path fill="#ffffff" stroke="black" stroke-width="2" d="M523.62,-116C523.62,-116 569.62,-116 569.62,-116 575.62,-116 581.62,-122 581.62,-128 581.62,-128 581.62,-156 581.62,-156 581.62,-162 575.62,-168 569.62,-168 569.62,-168 523.62,-168 523.62,-168 517.62,-168 511.62,-162 511.62,-156 511.62,-156 511.62,-128 511.62,-128 511.62,-122 517.62,-116 523.62,-116"/>
<text text-anchor="middle" x="546.62" y="-155.45" font-family="Helvetica,sans-Serif" font-weight="bold" font-size="9.00">summarize</text>
</g>
<g id="clust8" class="cluster">
<title>cluster_src/extract</title>
<path fill="#ffffff" stroke="black" stroke-width="2" d="M515.62,-650C515.62,-650 577.62,-650 577.62,-650 583.62,-650 589.62,-656 589.62,-662 589.62,-662 589.62,-750 589.62,-750 589.62,-756 583.62,-762 577.62,-762 577.62,-762 515.62,-762 515.62,-762 509.62,-762 503.62,-756 503.62,-750 503.62,-750 503.62,-662 503.62,-662 503.62,-656 509.62,-650 515.62,-650"/>
<text text-anchor="middle" x="546.62" y="-749.45" font-family="Helvetica,sans-Serif" font-weight="bold" font-size="9.00">extract</text>
</g>
<g id="clust9" class="cluster">
<title>cluster_src/extract/transpile</title>
<path fill="#ffffff" stroke="black" stroke-width="2" d="M523.62,-658C523.62,-658 569.62,-658 569.62,-658 575.62,-658 581.62,-664 581.62,-670 581.62,-670 581.62,-698 581.62,-698 581.62,-704 575.62,-710 569.62,-710 569.62,-710 523.62,-710 523.62,-710 517.62,-710 511.62,-704 511.62,-698 511.62,-698 511.62,-670 511.62,-670 511.62,-664 517.62,-658 523.62,-658"/>
<text text-anchor="middle" x="546.62" y="-697.45" font-family="Helvetica,sans-Serif" font-weight="bold" font-size="9.00">transpile</text>
</g>
<g id="clust10" class="cluster">
<title>cluster_src/graph&#45;utl</title>
<path fill="#ffffff" stroke="black" stroke-width="2" d="M634.38,-16C634.38,-16 740.62,-16 740.62,-16 746.62,-16 752.62,-22 752.62,-28 752.62,-28 752.62,-176 752.62,-176 752.62,-182 746.62,-188 740.62,-188 740.62,-188 634.38,-188 634.38,-188 628.38,-188 622.38,-182 622.38,-176 622.38,-176 622.38,-28 622.38,-28 622.38,-22 628.38,-16 634.38,-16"/>
<text text-anchor="middle" x="687.5" y="-175.45" font-family="Helvetica,sans-Serif" font-weight="bold" font-size="9.00">graph&#45;utl</text>
</g>
<g id="clust11" class="cluster">
<title>cluster_src/main</title>
<path fill="#ffffff" stroke="black" stroke-width="2" d="M251.25,-256C251.25,-256 752,-256 752,-256 758,-256 764,-262 764,-268 764,-268 764,-530 764,-530 764,-536 758,-542 752,-542 752,-542 251.25,-542 251.25,-542 245.25,-542 239.25,-536 239.25,-530 239.25,-530 239.25,-268 239.25,-268 239.25,-262 245.25,-256 251.25,-256"/>
<text text-anchor="middle" x="501.62" y="-529.45" font-family="Helvetica,sans-Serif" font-weight="bold" font-size="9.00">main</text>
</g>
<g id="clust12" class="cluster">
<title>cluster_src/main/files&#45;and&#45;dirs</title>
<path fill="#ffffff" stroke="black" stroke-width="2" d="M387.75,-374C387.75,-374 445.25,-374 445.25,-374 451.25,-374 457.25,-380 457.25,-386 457.25,-386 457.25,-414 457.25,-414 457.25,-420 451.25,-426 445.25,-426 445.25,-426 387.75,-426 387.75,-426 381.75,-426 375.75,-420 375.75,-414 375.75,-414 375.75,-386 375.75,-386 375.75,-380 381.75,-374 387.75,-374"/>
<text text-anchor="middle" x="416.5" y="-413.45" font-family="Helvetica,sans-Serif" font-weight="bold" font-size="9.00">files&#45;and&#45;dirs</text>
</g>
<g id="clust13" class="cluster">
<title>cluster_src/main/options</title>
<path fill="#ffffff" stroke="black" stroke-width="2" d="M517.88,-334C517.88,-334 712.12,-334 712.12,-334 718.12,-334 724.12,-340 724.12,-346 724.12,-346 724.12,-404 724.12,-404 724.12,-410 718.12,-416 712.12,-416 712.12,-416 517.88,-416 517.88,-416 511.88,-416 505.88,-410 505.88,-404 505.88,-404 505.88,-346 505.88,-346 505.88,-340 511.88,-334 517.88,-334"/>
<text text-anchor="middle" x="615" y="-403.45" font-family="Helvetica,sans-Serif" font-weight="bold" font-size="9.00">options</text>
</g>
<g id="clust14" class="cluster">
<title>cluster_src/main/resolve&#45;options</title>
<path fill="#ffffff" stroke="black" stroke-width="2" d="M387.75,-290C387.75,-290 446.25,-290 446.25,-290 452.25,-290 458.25,-296 458.25,-302 458.25,-302 458.25,-330 458.25,-330 458.25,-336 452.25,-342 446.25,-342 446.25,-342 387.75,-342 387.75,-342 381.75,-342 375.75,-336 375.75,-330 375.75,-330 375.75,-302 375.75,-302 375.75,-296 381.75,-290 387.75,-290"/>
<text text-anchor="middle" x="417" y="-329.45" font-family="Helvetica,sans-Serif" font-weight="bold" font-size="9.00">resolve&#45;options</text>
</g>
<g id="clust15" class="cluster">
<title>cluster_src/main/rule&#45;set</title>
<path fill="#ffffff" stroke="black" stroke-width="2" d="M387.75,-434C387.75,-434 445.25,-434 445.25,-434 451.25,-434 457.25,-440 457.25,-446 457.25,-446 457.25,-504 457.25,-504 457.25,-510 451.25,-516 445.25,-516 445.25,-516 387.75,-516 387.75,-516 381.75,-516 375.75,-510 375.75,-504 375.75,-504 375.75,-446 375.75,-446 375.75,-440 381.75,-434 387.75,-434"/>
<text text-anchor="middle" x="416.5" y="-503.45" font-family="Helvetica,sans-Serif" font-weight="bold" font-size="9.00">rule&#45;set</text>
</g>
<g id="clust16" class="cluster">
<title>cluster_src/main/utl</title>
<path fill="#ffffff" stroke="black" stroke-width="2" d="M631,-434C631,-434 744,-434 744,-434 750,-434 756,-440 756,-446 756,-446 756,-474 756,-474 756,-480 750,-486 744,-486 744,-486 631,-486 631,-486 625,-486 619,-480 619,-474 619,-474 619,-446 619,-446 619,-440 625,-434 631,-434"/>
<text text-anchor="middle" x="687.5" y="-473.45" font-family="Helvetica,sans-Serif" font-weight="bold" font-size="9.00">utl</text>
</g>
<g id="clust17" class="cluster">
<title>cluster_src/report</title>
<path fill="#ffffff" stroke="black" stroke-width="2" d="M664.5,-196C664.5,-196 710.5,-196 710.5,-196 716.5,-196 722.5,-202 722.5,-208 722.5,-208 722.5,-236 722.5,-236 722.5,-242 716.5,-248 710.5,-248 710.5,-248 664.5,-248 664.5,-248 658.5,-248 652.5,-242 652.5,-236 652.5,-236 652.5,-208 652.5,-208 652.5,-202 658.5,-196 664.5,-196"/>
<text text-anchor="middle" x="687.5" y="-235.45" font-family="Helvetica,sans-Serif" font-weight="bold" font-size="9.00">report</text>
</g>
<g id="clust18" class="cluster">
<title>cluster_src/schema</title>
<path fill="#ffffff" stroke="black" stroke-width="2" d="M494.25,-550C494.25,-550 599,-550 599,-550 605,-550 611,-556 611,-562 611,-562 611,-620 611,-620 611,-626 605,-632 599,-632 599,-632 494.25,-632 494.25,-632 488.25,-632 482.25,-626 482.25,-620 482.25,-620 482.25,-562 482.25,-562 482.25,-556 488.25,-550 494.25,-550"/>
<text text-anchor="middle" x="546.62" y="-619.45" font-family="Helvetica,sans-Serif" font-weight="bold" font-size="9.00">schema</text>
</g>
<g id="clust19" class="cluster">
<title>cluster_src/utl</title>
<path fill="#ffffff" stroke="black" stroke-width="2" d="M664.5,-710C664.5,-710 710.5,-710 710.5,-710 716.5,-710 722.5,-716 722.5,-722 722.5,-722 722.5,-750 722.5,-750 722.5,-756 716.5,-762 710.5,-762 710.5,-762 664.5,-762 664.5,-762 658.5,-762 652.5,-756 652.5,-750 652.5,-750 652.5,-722 652.5,-722 652.5,-716 658.5,-710 664.5,-710"/>
<text text-anchor="middle" x="687.5" y="-749.45" font-family="Helvetica,sans-Serif" font-weight="bold" font-size="9.00">utl</text>
</g>
<!-- src/cache/cache.js -->
<g id="node1" class="node">
<title>src/cache/cache.js</title>
<g id="a_node1"><a xlink:href="src/cache/cache.js" xlink:title="cache.js">
<path fill="#ffffcc" stroke="black" d="M437.58,-703.88C437.58,-703.88 395.42,-703.88 395.42,-703.88 392.46,-703.88 389.5,-700.92 389.5,-697.96 389.5,-697.96 389.5,-692.04 389.5,-692.04 389.5,-689.08 392.46,-686.12 395.42,-686.12 395.42,-686.12 437.58,-686.12 437.58,-686.12 440.54,-686.12 443.5,-689.08 443.5,-692.04 443.5,-692.04 443.5,-697.96 443.5,-697.96 443.5,-700.92 440.54,-703.88 437.58,-703.88"/>
<text text-anchor="start" x="399.62" y="-691.33" font-family="Helvetica,sans-Serif" font-size="9.00">cache.js</text>
</a>
</g>
</g>
<!-- src/extract/transpile/meta.js -->
<g id="node2" class="node">
<title>src/extract/transpile/meta.js</title>
<g id="a_node2"><a xlink:href="src/extract/transpile/meta.js" xlink:title="meta.js">
<path fill="#ffffcc" stroke="black" d="M567.71,-683.88C567.71,-683.88 525.54,-683.88 525.54,-683.88 522.58,-683.88 519.62,-680.92 519.62,-677.96 519.62,-677.96 519.62,-672.04 519.62,-672.04 519.62,-669.08 522.58,-666.12 525.54,-666.12 525.54,-666.12 567.71,-666.12 567.71,-666.12 570.67,-666.12 573.62,-669.08 573.62,-672.04 573.62,-672.04 573.62,-677.96 573.62,-677.96 573.62,-680.92 570.67,-683.88 567.71,-683.88"/>
<text text-anchor="start" x="532" y="-671.33" font-family="Helvetica,sans-Serif" font-size="9.00">meta.js</text>
</a>
</g>
</g>
<!-- src/cache/cache.js&#45;&gt;src/extract/transpile/meta.js -->
<g id="edge1" class="edge">
<title>src/cache/cache.js&#45;&gt;src/extract/transpile/meta.js</title>
<path fill="none" stroke="#000000" stroke-width="2" stroke-opacity="0.200000" d="M443.86,-695C482.12,-695 547,-695 547,-695 547,-695 547,-693.06 547,-693.06"/>
<polygon fill="#000000" fill-opacity="0.200000" stroke="#000000" stroke-width="2" stroke-opacity="0.200000" points="549.1,-693.06 547,-687.06 544.9,-693.06 549.1,-693.06"/>
</g>
<!-- src/cli/format&#45;meta&#45;info.js -->
<g id="node3" class="node">
<title>src/cli/format&#45;meta&#45;info.js</title>
<g id="a_node3"><a xlink:href="src/cli/format-meta-info.js" xlink:title="format&#45;meta&#45;info.js">
<path fill="#ffffcc" stroke="black" d="M176.83,-503.88C176.83,-503.88 96.92,-503.88 96.92,-503.88 93.96,-503.88 91,-500.92 91,-497.96 91,-497.96 91,-492.04 91,-492.04 91,-489.08 93.96,-486.12 96.92,-486.12 96.92,-486.12 176.83,-486.12 176.83,-486.12 179.79,-486.12 182.75,-489.08 182.75,-492.04 182.75,-492.04 182.75,-497.96 182.75,-497.96 182.75,-500.92 179.79,-503.88 176.83,-503.88"/>
<text text-anchor="start" x="99" y="-491.32" font-family="Helvetica,sans-Serif" font-size="9.00">format&#45;meta&#45;info.js</text>
</a>
</g>
</g>
<!-- src/main/index.js -->
<g id="node4" class="node">
<title>src/main/index.js</title>
<g id="a_node4"><a xlink:href="src/main/index.js" xlink:title="index.js">
<path fill="#ffffcc" stroke="black" d="M295.83,-474.88C295.83,-474.88 253.67,-474.88 253.67,-474.88 250.71,-474.88 247.75,-471.92 247.75,-468.96 247.75,-468.96 247.75,-463.04 247.75,-463.04 247.75,-460.08 250.71,-457.12 253.67,-457.12 253.67,-457.12 295.83,-457.12 295.83,-457.12 298.79,-457.12 301.75,-460.08 301.75,-463.04 301.75,-463.04 301.75,-468.96 301.75,-468.96 301.75,-471.92 298.79,-474.88 295.83,-474.88"/>
<text text-anchor="start" x="259" y="-462.32" font-family="Helvetica,sans-Serif" font-size="9.00">index.js</text>
</a>
</g>
</g>
<!-- src/cli/format&#45;meta&#45;info.js&#45;&gt;src/main/index.js -->
<g id="edge2" class="edge">
<title>src/cli/format&#45;meta&#45;info.js&#45;&gt;src/main/index.js</title>
<path fill="none" stroke="#000000" stroke-width="2" stroke-opacity="0.200000" d="M183.11,-496.88C218.75,-496.88 262,-496.88 262,-496.88 262,-496.88 262,-484.1 262,-484.1"/>
<polygon fill="#000000" fill-opacity="0.200000" stroke="#000000" stroke-width="2" stroke-opacity="0.200000" points="264.1,-484.1 262,-478.1 259.9,-484.1 264.1,-484.1"/>
</g>
<!-- src/main/index.js&#45;&gt;src/cache/cache.js -->
<g id="edge11" class="edge">
<title>src/main/index.js&#45;&gt;src/cache/cache.js</title>
<path fill="none" stroke="#000000" stroke-width="2" stroke-opacity="0.200000" d="M275,-475.26C275,-518.1 275,-695 275,-695 275,-695 380.22,-695 380.22,-695"/>
<polygon fill="#000000" fill-opacity="0.200000" stroke="#000000" stroke-width="2" stroke-opacity="0.200000" points="380.22,-697.1 386.22,-695 380.22,-692.9 380.22,-697.1"/>
</g>
<!-- src/main/index.js&#45;&gt;src/extract/transpile/meta.js -->
<g id="edge14" class="edge">
<title>src/main/index.js&#45;&gt;src/extract/transpile/meta.js</title>
<path fill="none" stroke="#000000" stroke-width="2" stroke-opacity="0.200000" d="M282,-475.11C282,-515.68 282,-677.96 282,-677.96 282,-677.96 510.3,-677.96 510.3,-677.96"/>
<polygon fill="#000000" fill-opacity="0.200000" stroke="#000000" stroke-width="2" stroke-opacity="0.200000" points="510.3,-680.06 516.3,-677.96 510.3,-675.86 510.3,-680.06"/>
</g>
<!-- src/utl/bus.js -->
<g id="node7" class="node">
<title>src/utl/bus.js</title>
<g id="a_node7"><a xlink:href="src/utl/bus.js" xlink:title="bus.js">
<path fill="#ffffcc" stroke="black" d="M708.58,-735.88C708.58,-735.88 666.42,-735.88 666.42,-735.88 663.46,-735.88 660.5,-732.92 660.5,-729.96 660.5,-729.96 660.5,-724.04 660.5,-724.04 660.5,-721.08 663.46,-718.12 666.42,-718.12 666.42,-718.12 708.58,-718.12 708.58,-718.12 711.54,-718.12 714.5,-721.08 714.5,-724.04 714.5,-724.04 714.5,-729.96 714.5,-729.96 714.5,-732.92 711.54,-735.88 708.58,-735.88"/>
<text text-anchor="start" x="675.5" y="-723.33" font-family="Helvetica,sans-Serif" font-size="9.00">bus.js</text>
</a>
</g>
</g>
<!-- src/main/index.js&#45;&gt;src/utl/bus.js -->
<g id="edge16" class="edge">
<title>src/main/index.js&#45;&gt;src/utl/bus.js</title>
<path fill="none" stroke="#000000" stroke-width="2" stroke-opacity="0.200000" d="M289,-475.06C289,-508.9 289,-625.96 289,-625.96 289,-625.96 697,-625.96 697,-625.96 697,-625.96 697,-708.68 697,-708.68"/>
<polygon fill="#000000" fill-opacity="0.200000" stroke="#000000" stroke-width="2" stroke-opacity="0.200000" points="694.9,-708.68 697,-714.68 699.1,-708.68 694.9,-708.68"/>
</g>
<!-- src/main/resolve&#45;options/normalize.js -->
<g id="node9" class="node">
<title>src/main/resolve&#45;options/normalize.js</title>
<g id="a_node9"><a xlink:href="src/main/resolve-options/normalize.js" xlink:title="normalize.js">
<path fill="#ffffcc" stroke="black" d="M443.33,-315.88C443.33,-315.88 389.67,-315.88 389.67,-315.88 386.71,-315.88 383.75,-312.92 383.75,-309.96 383.75,-309.96 383.75,-304.04 383.75,-304.04 383.75,-301.08 386.71,-298.12 389.67,-298.12 389.67,-298.12 443.33,-298.12 443.33,-298.12 446.29,-298.12 449.25,-301.08 449.25,-304.04 449.25,-304.04 449.25,-309.96 449.25,-309.96 449.25,-312.92 446.29,-315.88 443.33,-315.88"/>
<text text-anchor="start" x="391.75" y="-303.32" font-family="Helvetica,sans-Serif" font-size="9.00">normalize.js</text>
</a>
</g>
</g>
<!-- src/main/index.js&#45;&gt;src/main/resolve&#45;options/normalize.js -->
<g id="edge21" class="edge">
<title>src/main/index.js&#45;&gt;src/main/resolve&#45;options/normalize.js</title>
<path fill="none" stroke="#000000" stroke-width="2" stroke-opacity="0.200000" d="M301.92,-466C323.47,-466 350,-466 350,-466 350,-466 350,-309.96 350,-309.96 350,-309.96 374.25,-309.96 374.25,-309.96"/>
<polygon fill="#000000" fill-opacity="0.200000" stroke="#000000" stroke-width="2" stroke-opacity="0.200000" points="374.25,-312.06 380.25,-309.96 374.25,-307.86 374.25,-312.06"/>
</g>
<!-- src/enrich/index.js -->
<g id="node10" class="node">
<title>src/enrich/index.js</title>
<g id="a_node10"><a xlink:href="src/enrich/index.js" xlink:title="index.js">
<path fill="#ffffcc" stroke="black" d="M437.58,-154.88C437.58,-154.88 395.42,-154.88 395.42,-154.88 392.46,-154.88 389.5,-151.92 389.5,-148.96 389.5,-148.96 389.5,-143.04 389.5,-143.04 389.5,-140.08 392.46,-137.12 395.42,-137.12 395.42,-137.12 437.58,-137.12 437.58,-137.12 440.54,-137.12 443.5,-140.08 443.5,-143.04 443.5,-143.04 443.5,-148.96 443.5,-148.96 443.5,-151.92 440.54,-154.88 437.58,-154.88"/>
<text text-anchor="start" x="400.75" y="-142.32" font-family="Helvetica,sans-Serif" font-size="9.00">index.js</text>
</a>
</g>
</g>
<!-- src/main/index.js&#45;&gt;src/enrich/index.js -->
<g id="edge12" class="edge">
<title>src/main/index.js&#45;&gt;src/enrich/index.js</title>
<path fill="none" stroke="#000000" stroke-width="2" stroke-opacity="0.200000" d="M301.9,-461.92C310.58,-461.92 318,-461.92 318,-461.92 318,-461.92 318,-146 318,-146 318,-146 380.06,-146 380.06,-146"/>
<polygon fill="#000000" fill-opacity="0.200000" stroke="#000000" stroke-width="2" stroke-opacity="0.200000" points="380.06,-148.1 386.06,-146 380.06,-143.9 380.06,-148.1"/>
</g>
<!-- src/extract/index.js -->
<g id="node13" class="node">
<title>src/extract/index.js</title>
<g id="a_node13"><a xlink:href="src/extract/index.js" xlink:title="index.js">
<path fill="#ffffcc" stroke="black" d="M567.71,-735.88C567.71,-735.88 525.54,-735.88 525.54,-735.88 522.58,-735.88 519.62,-732.92 519.62,-729.96 519.62,-729.96 519.62,-724.04 519.62,-724.04 519.62,-721.08 522.58,-718.12 525.54,-718.12 525.54,-718.12 567.71,-718.12 567.71,-718.12 570.67,-718.12 573.62,-721.08 573.62,-724.04 573.62,-724.04 573.62,-729.96 573.62,-729.96 573.62,-732.92 570.67,-735.88 567.71,-735.88"/>
<text text-anchor="start" x="530.88" y="-723.33" font-family="Helvetica,sans-Serif" font-size="9.00">index.js</text>
</a>
</g>
</g>
<!-- src/main/index.js&#45;&gt;src/extract/index.js -->
<g id="edge13" class="edge">
<title>src/main/index.js&#45;&gt;src/extract/index.js</title>
<path fill="none" stroke="#000000" stroke-width="2" stroke-opacity="0.200000" d="M268,-475.29C268,-521.78 268,-727 268,-727 268,-727 510.15,-727 510.15,-727"/>
<polygon fill="#000000" fill-opacity="0.200000" stroke="#000000" stroke-width="2" stroke-opacity="0.200000" points="510.15,-729.1 516.15,-727 510.15,-724.9 510.15,-729.1"/>
</g>
<!-- src/main/files&#45;and&#45;dirs/normalize.js -->
<g id="node18" class="node">
<title>src/main/files&#45;and&#45;dirs/normalize.js</title>
<g id="a_node18"><a xlink:href="src/main/files-and-dirs/normalize.js" xlink:title="normalize.js">
<path fill="#ffffcc" stroke="black" d="M443.33,-399.88C443.33,-399.88 389.67,-399.88 389.67,-399.88 386.71,-399.88 383.75,-396.92 383.75,-393.96 383.75,-393.96 383.75,-388.04 383.75,-388.04 383.75,-385.08 386.71,-382.12 389.67,-382.12 389.67,-382.12 443.33,-382.12 443.33,-382.12 446.29,-382.12 449.25,-385.08 449.25,-388.04 449.25,-388.04 449.25,-393.96 449.25,-393.96 449.25,-396.92 446.29,-399.88 443.33,-399.88"/>
<text text-anchor="start" x="391.75" y="-387.32" font-family="Helvetica,sans-Serif" font-size="9.00">normalize.js</text>
</a>
</g>
</g>
<!-- src/main/index.js&#45;&gt;src/main/files&#45;and&#45;dirs/normalize.js -->
<g id="edge17" class="edge">
<title>src/main/index.js&#45;&gt;src/main/files&#45;and&#45;dirs/normalize.js</title>
<path fill="none" stroke="#000000" stroke-width="2" stroke-opacity="0.200000" d="M284,-456.8C284,-436.78 284,-391 284,-391 284,-391 374.41,-391 374.41,-391"/>
<polygon fill="#000000" fill-opacity="0.200000" stroke="#000000" stroke-width="2" stroke-opacity="0.200000" points="374.41,-393.1 380.41,-391 374.41,-388.9 374.41,-393.1"/>
</g>
<!-- src/schema/cruise&#45;result.schema.js -->
<g id="node20" class="node">
<title>src/schema/cruise&#45;result.schema.js</title>
<g id="a_node20"><a xlink:href="src/schema/cruise-result.schema.js" xlink:title="cruise&#45;result.schema.js">
<path fill="#ffffcc" stroke="black" d="M595.58,-605.88C595.58,-605.88 497.67,-605.88 497.67,-605.88 494.71,-605.88 491.75,-602.92 491.75,-599.96 491.75,-599.96 491.75,-594.04 491.75,-594.04 491.75,-591.08 494.71,-588.12 497.67,-588.12 497.67,-588.12 595.58,-588.12 595.58,-588.12 598.54,-588.12 601.5,-591.08 601.5,-594.04 601.5,-594.04 601.5,-599.96 601.5,-599.96 601.5,-602.92 598.54,-605.88 595.58,-605.88"/>
<text text-anchor="start" x="499.75" y="-593.33" font-family="Helvetica,sans-Serif" font-size="9.00">cruise&#45;result.schema.js</text>
</a>
</g>
</g>
<!-- src/main/index.js&#45;&gt;src/schema/cruise&#45;result.schema.js -->
<g id="edge15" class="edge">
<title>src/main/index.js&#45;&gt;src/schema/cruise&#45;result.schema.js</title>
<path fill="none" stroke="#000000" stroke-width="2" stroke-opacity="0.200000" d="M295,-475C295,-504.6 295,-597 295,-597 295,-597 482.4,-597 482.4,-597"/>
<polygon fill="#000000" fill-opacity="0.200000" stroke="#000000" stroke-width="2" stroke-opacity="0.200000" points="482.4,-599.1 488.4,-597 482.4,-594.9 482.4,-599.1"/>
</g>
<!-- src/main/options/normalize.js -->
<g id="node21" class="node">
<title>src/main/options/normalize.js</title>
<g id="a_node21"><a xlink:href="src/main/options/normalize.js" xlink:title="normalize.js">
<path fill="#ffffcc" stroke="black" d="M573.46,-389.88C573.46,-389.88 519.79,-389.88 519.79,-389.88 516.83,-389.88 513.88,-386.92 513.88,-383.96 513.88,-383.96 513.88,-378.04 513.88,-378.04 513.88,-375.08 516.83,-372.12 519.79,-372.12 519.79,-372.12 573.46,-372.12 573.46,-372.12 576.42,-372.12 579.38,-375.08 579.38,-378.04 579.38,-378.04 579.38,-383.96 579.38,-383.96 579.38,-386.92 576.42,-389.88 573.46,-389.88"/>
<text text-anchor="start" x="521.88" y="-377.32" font-family="Helvetica,sans-Serif" font-size="9.00">normalize.js</text>
</a>
</g>
</g>
<!-- src/main/index.js&#45;&gt;src/main/options/normalize.js -->
<g id="edge18" class="edge">
<title>src/main/index.js&#45;&gt;src/main/options/normalize.js</title>
<path fill="none" stroke="#000000" stroke-width="2" stroke-opacity="0.200000" d="M266,-456.82C266,-434.12 266,-377.12 266,-377.12 266,-377.12 504.61,-377.12 504.61,-377.12"/>
<polygon fill="#000000" fill-opacity="0.200000" stroke="#000000" stroke-width="2" stroke-opacity="0.200000" points="504.61,-379.23 510.61,-377.12 504.61,-375.03 504.61,-379.23"/>
</g>
<!-- src/main/options/validate.js -->
<g id="node22" class="node">
<title>src/main/options/validate.js</title>
<g id="a_node22"><a xlink:href="src/main/options/validate.js" xlink:title="validate.js">
<path fill="#ffffcc" stroke="black" d="M569.33,-359.88C569.33,-359.88 523.92,-359.88 523.92,-359.88 520.96,-359.88 518,-356.92 518,-353.96 518,-353.96 518,-348.04 518,-348.04 518,-345.08 520.96,-342.12 523.92,-342.12 523.92,-342.12 569.33,-342.12 569.33,-342.12 572.29,-342.12 575.25,-345.08 575.25,-348.04 575.25,-348.04 575.25,-353.96 575.25,-353.96 575.25,-356.92 572.29,-359.88 569.33,-359.88"/>
<text text-anchor="start" x="526" y="-347.32" font-family="Helvetica,sans-Serif" font-size="9.00">validate.js</text>
</a>
</g>
</g>
<!-- src/main/index.js&#45;&gt;src/main/options/validate.js -->
<g id="edge19" class="edge">
<title>src/main/index.js&#45;&gt;src/main/options/validate.js</title>
<path fill="none" stroke="#000000" stroke-width="2" stroke-opacity="0.200000" d="M301.83,-468.04C328.41,-468.04 365,-468.04 365,-468.04 365,-468.04 365,-345.79 365,-345.79 365,-345.79 508.85,-345.79 508.85,-345.79"/>
<polygon fill="#000000" fill-opacity="0.200000" stroke="#000000" stroke-width="2" stroke-opacity="0.200000" points="508.85,-347.89 514.85,-345.79 508.85,-343.69 508.85,-347.89"/>
</g>
<!-- src/main/report&#45;wrap.js -->
<g id="node23" class="node">
<title>src/main/report&#45;wrap.js</title>
<g id="a_node23"><a xlink:href="src/main/report-wrap.js" xlink:title="report&#45;wrap.js">
<path fill="#ffffcc" stroke="black" d="M446.71,-281.88C446.71,-281.88 386.29,-281.88 386.29,-281.88 383.33,-281.88 380.38,-278.92 380.38,-275.96 380.38,-275.96 380.38,-270.04 380.38,-270.04 380.38,-267.08 383.33,-264.12 386.29,-264.12 386.29,-264.12 446.71,-264.12 446.71,-264.12 449.67,-264.12 452.62,-267.08 452.62,-270.04 452.62,-270.04 452.62,-275.96 452.62,-275.96 452.62,-278.92 449.67,-281.88 446.71,-281.88"/>
<text text-anchor="start" x="388.38" y="-269.32" font-family="Helvetica,sans-Serif" font-size="9.00">report&#45;wrap.js</text>
</a>
</g>
</g>
<!-- src/main/index.js&#45;&gt;src/main/report&#45;wrap.js -->
<g id="edge20" class="edge">
<title>src/main/index.js&#45;&gt;src/main/report&#45;wrap.js</title>
<path fill="none" stroke="#000000" stroke-width="2" stroke-opacity="0.200000" d="M301.95,-463.96C317.52,-463.96 334,-463.96 334,-463.96 334,-463.96 334,-273 334,-273 334,-273 371.07,-273 371.07,-273"/>
<polygon fill="#000000" fill-opacity="0.200000" stroke="#000000" stroke-width="2" stroke-opacity="0.200000" points="371.07,-275.1 377.07,-273 371.07,-270.9 371.07,-275.1"/>
</g>
<!-- src/main/rule&#45;set/normalize.js -->
<g id="node24" class="node">
<title>src/main/rule&#45;set/normalize.js</title>
<g id="a_node24"><a xlink:href="src/main/rule-set/normalize.js" xlink:title="normalize.js">
<path fill="#ffffcc" stroke="black" d="M443.33,-489.88C443.33,-489.88 389.67,-489.88 389.67,-489.88 386.71,-489.88 383.75,-486.92 383.75,-483.96 383.75,-483.96 383.75,-478.04 383.75,-478.04 383.75,-475.08 386.71,-472.12 389.67,-472.12 389.67,-472.12 443.33,-472.12 443.33,-472.12 446.29,-472.12 449.25,-475.08 449.25,-478.04 449.25,-478.04 449.25,-483.96 449.25,-483.96 449.25,-486.92 446.29,-489.88 443.33,-489.88"/>
<text text-anchor="start" x="391.75" y="-477.32" font-family="Helvetica,sans-Serif" font-size="9.00">normalize.js</text>
</a>
</g>
</g>
<!-- src/main/index.js&#45;&gt;src/main/rule&#45;set/normalize.js -->
<g id="edge22" class="edge">
<title>src/main/index.js&#45;&gt;src/main/rule&#45;set/normalize.js</title>
<path fill="none" stroke="#000000" stroke-width="2" stroke-opacity="0.200000" d="M255,-475.27C255,-478.11 255,-480.5 255,-480.5 255,-480.5 374.43,-480.5 374.43,-480.5"/>
<polygon fill="#000000" fill-opacity="0.200000" stroke="#000000" stroke-width="2" stroke-opacity="0.200000" points="374.43,-482.6 380.43,-480.5 374.43,-478.4 374.43,-482.6"/>
</g>
<!-- src/main/rule&#45;set/validate.js -->
<g id="node25" class="node">
<title>src/main/rule&#45;set/validate.js</title>
<g id="a_node25"><a xlink:href="src/main/rule-set/validate.js" xlink:title="validate.js">
<path fill="#ffffcc" stroke="black" d="M439.21,-459.88C439.21,-459.88 393.79,-459.88 393.79,-459.88 390.83,-459.88 387.88,-456.92 387.88,-453.96 387.88,-453.96 387.88,-448.04 387.88,-448.04 387.88,-445.08 390.83,-442.12 393.79,-442.12 393.79,-442.12 439.21,-442.12 439.21,-442.12 442.17,-442.12 445.12,-445.08 445.12,-448.04 445.12,-448.04 445.12,-453.96 445.12,-453.96 445.12,-456.92 442.17,-459.88 439.21,-459.88"/>
<text text-anchor="start" x="395.88" y="-447.32" font-family="Helvetica,sans-Serif" font-size="9.00">validate.js</text>
</a>
</g>
</g>
<!-- src/main/index.js&#45;&gt;src/main/rule&#45;set/validate.js -->
<g id="edge23" class="edge">
<title>src/main/index.js&#45;&gt;src/main/rule&#45;set/validate.js</title>
<path fill="none" stroke="#000000" stroke-width="2" stroke-opacity="0.200000" d="M302.18,-470.08C343.51,-470.08 417,-470.08 417,-470.08 417,-470.08 417,-469.08 417,-469.08"/>
<polygon fill="#000000" fill-opacity="0.200000" stroke="#000000" stroke-width="2" stroke-opacity="0.200000" points="419.1,-469.09 417,-463.09 414.9,-469.09 419.1,-469.09"/>
</g>
<!-- src/cli/format.js -->
<g id="node5" class="node">
<title>src/cli/format.js</title>
<g id="a_node5"><a xlink:href="src/cli/format.js" xlink:title="format.js">
<path fill="#ffffcc" stroke="black" d="M72.08,-473.88C72.08,-473.88 29.92,-473.88 29.92,-473.88 26.96,-473.88 24,-470.92 24,-467.96 24,-467.96 24,-462.04 24,-462.04 24,-459.08 26.96,-456.12 29.92,-456.12 29.92,-456.12 72.08,-456.12 72.08,-456.12 75.04,-456.12 78,-459.08 78,-462.04 78,-462.04 78,-467.96 78,-467.96 78,-470.92 75.04,-473.88 72.08,-473.88"/>
<text text-anchor="start" x="33.75" y="-461.32" font-family="Helvetica,sans-Serif" font-size="9.00">format.js</text>
</a>
</g>
</g>
<!-- src/cli/format.js&#45;&gt;src/main/index.js -->
<g id="edge3" class="edge">
<title>src/cli/format.js&#45;&gt;src/main/index.js</title>
<path fill="none" stroke="#000000" stroke-width="2" stroke-opacity="0.200000" d="M78.44,-462.71C78.44,-462.71 238.44,-462.71 238.44,-462.71"/>
<polygon fill="#000000" fill-opacity="0.200000" stroke="#000000" stroke-width="2" stroke-opacity="0.200000" points="238.44,-464.81 244.44,-462.71 238.44,-460.61 238.44,-464.81"/>
</g>
<!-- src/cli/index.js -->
<g id="node6" class="node">
<title>src/cli/index.js</title>
<g id="a_node6"><a xlink:href="src/cli/index.js" xlink:title="index.js">
<path fill="#ffffcc" stroke="black" d="M72.08,-503.88C72.08,-503.88 29.92,-503.88 29.92,-503.88 26.96,-503.88 24,-500.92 24,-497.96 24,-497.96 24,-492.04 24,-492.04 24,-489.08 26.96,-486.12 29.92,-486.12 29.92,-486.12 72.08,-486.12 72.08,-486.12 75.04,-486.12 78,-489.08 78,-492.04 78,-492.04 78,-497.96 78,-497.96 78,-500.92 75.04,-503.88 72.08,-503.88"/>
<text text-anchor="start" x="35.25" y="-491.32" font-family="Helvetica,sans-Serif" font-size="9.00">index.js</text>
</a>
</g>
</g>
<!-- src/cli/index.js&#45;&gt;src/cli/format&#45;meta&#45;info.js -->
<g id="edge6" class="edge">
<title>src/cli/index.js&#45;&gt;src/cli/format&#45;meta&#45;info.js</title>
<path fill="none" stroke="#000000" stroke-width="2" stroke-opacity="0.200000" d="M78.17,-497.96C78.17,-497.96 81.73,-497.96 81.73,-497.96"/>
<polygon fill="#000000" fill-opacity="0.200000" stroke="#000000" stroke-width="2" stroke-opacity="0.200000" points="81.73,-500.06 87.73,-497.96 81.73,-495.86 81.73,-500.06"/>
</g>
<!-- src/cli/index.js&#45;&gt;src/main/index.js -->
<g id="edge4" class="edge">
<title>src/cli/index.js&#45;&gt;src/main/index.js</title>
<path fill="none" stroke="#000000" stroke-width="2" stroke-opacity="0.200000" d="M78.44,-492.04C82.31,-492.04 85,-492.04 85,-492.04 85,-492.04 85,-468.29 85,-468.29 85,-468.29 238.56,-468.29 238.56,-468.29"/>
<polygon fill="#000000" fill-opacity="0.200000" stroke="#000000" stroke-width="2" stroke-opacity="0.200000" points="238.56,-470.39 244.56,-468.29 238.56,-466.19 238.56,-470.39"/>
</g>
<!-- src/cli/index.js&#45;&gt;src/utl/bus.js -->
<g id="edge5" class="edge">
<title>src/cli/index.js&#45;&gt;src/utl/bus.js</title>
<path fill="none" stroke="#000000" stroke-width="2" stroke-opacity="0.200000" d="M51,-504C51,-536.51 51,-646.04 51,-646.04 51,-646.04 679,-646.04 679,-646.04 679,-646.04 679,-708.71 679,-708.71"/>
<polygon fill="#000000" fill-opacity="0.200000" stroke="#000000" stroke-width="2" stroke-opacity="0.200000" points="676.9,-708.71 679,-714.71 681.1,-708.71 676.9,-708.71"/>
</g>
<!-- src/config&#45;utl/extract&#45;depcruise&#45;config/index.js -->
<g id="node8" class="node">
<title>src/config&#45;utl/extract&#45;depcruise&#45;config/index.js</title>
<g id="a_node8"><a xlink:href="src/config-utl/extract-depcruise-config/index.js" xlink:title="index.js">
<path fill="#ffffcc" stroke="black" d="M295.83,-195.88C295.83,-195.88 253.67,-195.88 253.67,-195.88 250.71,-195.88 247.75,-192.92 247.75,-189.96 247.75,-189.96 247.75,-184.04 247.75,-184.04 247.75,-181.08 250.71,-178.12 253.67,-178.12 253.67,-178.12 295.83,-178.12 295.83,-178.12 298.79,-178.12 301.75,-181.08 301.75,-184.04 301.75,-184.04 301.75,-189.96 301.75,-189.96 301.75,-192.92 298.79,-195.88 295.83,-195.88"/>
<text text-anchor="start" x="259" y="-183.32" font-family="Helvetica,sans-Serif" font-size="9.00">index.js</text>
</a>
</g>
</g>
<!-- src/config&#45;utl/extract&#45;depcruise&#45;config/index.js&#45;&gt;src/main/resolve&#45;options/normalize.js -->
<g id="edge7" class="edge">
<title>src/config&#45;utl/extract&#45;depcruise&#45;config/index.js&#45;&gt;src/main/resolve&#45;options/normalize.js</title>
<path fill="none" stroke="#000000" stroke-width="2" stroke-opacity="0.200000" d="M275,-196.18C275,-223.78 275,-304.04 275,-304.04 275,-304.04 374.32,-304.04 374.32,-304.04"/>
<polygon fill="#000000" fill-opacity="0.200000" stroke="#000000" stroke-width="2" stroke-opacity="0.200000" points="374.32,-306.14 380.32,-304.04 374.32,-301.94 374.32,-306.14"/>
</g>
<!-- src/main/resolve&#45;options/normalize.js&#45;&gt;src/extract/transpile/meta.js -->
<g id="edge33" class="edge">
<title>src/main/resolve&#45;options/normalize.js&#45;&gt;src/extract/transpile/meta.js</title>
<path fill="none" stroke="#000000" stroke-width="2" stroke-opacity="0.200000" d="M449.52,-309.96C458.6,-309.96 466,-309.96 466,-309.96 466,-309.96 466,-672.04 466,-672.04 466,-672.04 510.33,-672.04 510.33,-672.04"/>
<polygon fill="#000000" fill-opacity="0.200000" stroke="#000000" stroke-width="2" stroke-opacity="0.200000" points="510.33,-674.14 516.33,-672.04 510.33,-669.94 510.33,-674.14"/>
</g>
<!-- src/graph&#45;utl/rule&#45;set.js -->
<g id="node16" class="node">
<title>src/graph&#45;utl/rule&#45;set.js</title>
<g id="a_node16"><a xlink:href="src/graph-utl/rule-set.js" xlink:title="rule&#45;set.js">
<path fill="#ffffcc" stroke="black" d="M709.46,-161.88C709.46,-161.88 665.54,-161.88 665.54,-161.88 662.58,-161.88 659.62,-158.92 659.62,-155.96 659.62,-155.96 659.62,-150.04 659.62,-150.04 659.62,-147.08 662.58,-144.12 665.54,-144.12 665.54,-144.12 709.46,-144.12 709.46,-144.12 712.42,-144.12 715.38,-147.08 715.38,-150.04 715.38,-150.04 715.38,-155.96 715.38,-155.96 715.38,-158.92 712.42,-161.88 709.46,-161.88"/>
<text text-anchor="start" x="667.62" y="-149.32" font-family="Helvetica,sans-Serif" font-size="9.00">rule&#45;set.js</text>
</a>
</g>
</g>
<!-- src/main/resolve&#45;options/normalize.js&#45;&gt;src/graph&#45;utl/rule&#45;set.js -->
<g id="edge34" class="edge">
<title>src/main/resolve&#45;options/normalize.js&#45;&gt;src/graph&#45;utl/rule&#45;set.js</title>
<path fill="none" stroke="#000000" stroke-width="2" stroke-opacity="0.200000" d="M449.43,-304.04C488.09,-304.04 547,-304.04 547,-304.04 547,-304.04 547,-158.38 547,-158.38 547,-158.38 650.41,-158.38 650.41,-158.38"/>
<polygon fill="#000000" fill-opacity="0.200000" stroke="#000000" stroke-width="2" stroke-opacity="0.200000" points="650.41,-160.48 656.41,-158.38 650.41,-156.28 650.41,-160.48"/>
</g>
<!-- src/enrich/summarize/index.js -->
<g id="node11" class="node">
<title>src/enrich/summarize/index.js</title>
<g id="a_node11"><a xlink:href="src/enrich/summarize/index.js" xlink:title="index.js">
<path fill="#ffffcc" stroke="black" d="M567.71,-141.88C567.71,-141.88 525.54,-141.88 525.54,-141.88 522.58,-141.88 519.62,-138.92 519.62,-135.96 519.62,-135.96 519.62,-130.04 519.62,-130.04 519.62,-127.08 522.58,-124.12 525.54,-124.12 525.54,-124.12 567.71,-124.12 567.71,-124.12 570.67,-124.12 573.62,-127.08 573.62,-130.04 573.62,-130.04 573.62,-135.96 573.62,-135.96 573.62,-138.92 570.67,-141.88 567.71,-141.88"/>
<text text-anchor="start" x="530.88" y="-129.32" font-family="Helvetica,sans-Serif" font-size="9.00">index.js</text>
</a>
</g>
</g>
<!-- src/enrich/index.js&#45;&gt;src/enrich/summarize/index.js -->
<g id="edge8" class="edge">
<title>src/enrich/index.js&#45;&gt;src/enrich/summarize/index.js</title>
<path fill="none" stroke="#000000" stroke-width="2" stroke-opacity="0.200000" d="M417,-136.82C417,-132.57 417,-128.46 417,-128.46 417,-128.46 510.13,-128.46 510.13,-128.46"/>
<polygon fill="#000000" fill-opacity="0.200000" stroke="#000000" stroke-width="2" stroke-opacity="0.200000" points="510.13,-130.56 516.13,-128.46 510.13,-126.36 510.13,-130.56"/>
</g>
<!-- src/graph&#45;utl/compare.js -->
<g id="node12" class="node">
<title>src/graph&#45;utl/compare.js</title>
<g id="a_node12"><a xlink:href="src/graph-utl/compare.js" xlink:title="compare.js">
<path fill="#ffffcc" stroke="black" d="M712.08,-41.88C712.08,-41.88 662.92,-41.88 662.92,-41.88 659.96,-41.88 657,-38.92 657,-35.96 657,-35.96 657,-30.04 657,-30.04 657,-27.08 659.96,-24.12 662.92,-24.12 662.92,-24.12 712.08,-24.12 712.08,-24.12 715.04,-24.12 718,-27.08 718,-30.04 718,-30.04 718,-35.96 718,-35.96 718,-38.92 715.04,-41.88 712.08,-41.88"/>
<text text-anchor="start" x="665" y="-29.32" font-family="Helvetica,sans-Serif" font-size="9.00">compare.js</text>
</a>
</g>
</g>
<!-- src/enrich/summarize/index.js&#45;&gt;src/graph&#45;utl/compare.js -->
<g id="edge9" class="edge">
<title>src/enrich/summarize/index.js&#45;&gt;src/graph&#45;utl/compare.js</title>
<path fill="none" stroke="#000000" stroke-width="2" stroke-opacity="0.200000" d="M547,-123.7C547,-99.41 547,-35.96 547,-35.96 547,-35.96 647.67,-35.96 647.67,-35.96"/>
<polygon fill="#000000" fill-opacity="0.200000" stroke="#000000" stroke-width="2" stroke-opacity="0.200000" points="647.67,-38.06 653.67,-35.96 647.67,-33.86 647.67,-38.06"/>
</g>
<!-- src/extract/index.js&#45;&gt;src/utl/bus.js -->
<g id="edge10" class="edge">
<title>src/extract/index.js&#45;&gt;src/utl/bus.js</title>
<path fill="none" stroke="#000000" stroke-width="2" stroke-opacity="0.200000" d="M574.12,-727C574.12,-727 651.07,-727 651.07,-727"/>
<polygon fill="#000000" fill-opacity="0.200000" stroke="#000000" stroke-width="2" stroke-opacity="0.200000" points="651.07,-729.1 657.07,-727 651.07,-724.9 651.07,-729.1"/>
</g>
<!-- src/graph&#45;utl/consolidate&#45;to&#45;pattern.js -->
<g id="node14" class="node">
<title>src/graph&#45;utl/consolidate&#45;to&#45;pattern.js</title>
<g id="a_node14"><a xlink:href="src/graph-utl/consolidate-to-pattern.js" xlink:title="consolidate&#45;to&#45;pattern.js">
<path fill="#ffffcc" stroke="black" d="M738.71,-131.88C738.71,-131.88 636.29,-131.88 636.29,-131.88 633.33,-131.88 630.38,-128.92 630.38,-125.96 630.38,-125.96 630.38,-120.04 630.38,-120.04 630.38,-117.08 633.33,-114.12 636.29,-114.12 636.29,-114.12 738.71,-114.12 738.71,-114.12 741.67,-114.12 744.62,-117.08 744.62,-120.04 744.62,-120.04 744.62,-125.96 744.62,-125.96 744.62,-128.92 741.67,-131.88 738.71,-131.88"/>
<text text-anchor="start" x="638.38" y="-119.33" font-family="Helvetica,sans-Serif" font-size="9.00">consolidate&#45;to&#45;pattern.js</text>
</a>
</g>
</g>
<!-- src/graph&#45;utl/filter&#45;bank.js -->
<g id="node15" class="node">
<title>src/graph&#45;utl/filter&#45;bank.js</title>
<g id="a_node15"><a xlink:href="src/graph-utl/filter-bank.js" xlink:title="filter&#45;bank.js">
<path fill="#ffffcc" stroke="black" d="M714.33,-101.88C714.33,-101.88 660.67,-101.88 660.67,-101.88 657.71,-101.88 654.75,-98.92 654.75,-95.96 654.75,-95.96 654.75,-90.04 654.75,-90.04 654.75,-87.08 657.71,-84.12 660.67,-84.12 660.67,-84.12 714.33,-84.12 714.33,-84.12 717.29,-84.12 720.25,-87.08 720.25,-90.04 720.25,-90.04 720.25,-95.96 720.25,-95.96 720.25,-98.92 717.29,-101.88 714.33,-101.88"/>
<text text-anchor="start" x="662.75" y="-89.33" font-family="Helvetica,sans-Serif" font-size="9.00">filter&#45;bank.js</text>
</a>
</g>
</g>
<!-- src/graph&#45;utl/strip&#45;self&#45;transitions.js -->
<g id="node17" class="node">
<title>src/graph&#45;utl/strip&#45;self&#45;transitions.js</title>
<g id="a_node17"><a xlink:href="src/graph-utl/strip-self-transitions.js" xlink:title="strip&#45;self&#45;transitions.js">
<path fill="#ffffcc" stroke="black" d="M733.83,-71.88C733.83,-71.88 641.17,-71.88 641.17,-71.88 638.21,-71.88 635.25,-68.92 635.25,-65.96 635.25,-65.96 635.25,-60.04 635.25,-60.04 635.25,-57.08 638.21,-54.12 641.17,-54.12 641.17,-54.12 733.83,-54.12 733.83,-54.12 736.79,-54.12 739.75,-57.08 739.75,-60.04 739.75,-60.04 739.75,-65.96 739.75,-65.96 739.75,-68.92 736.79,-71.88 733.83,-71.88"/>
<text text-anchor="start" x="643.25" y="-59.33" font-family="Helvetica,sans-Serif" font-size="9.00">strip&#45;self&#45;transitions.js</text>
</a>
</g>
</g>
<!-- src/main/index.d.ts -->
<g id="node19" class="node">
<title>src/main/index.d.ts</title>
<g id="a_node19"><a xlink:href="src/main/index.d.ts" xlink:title="index.d.ts">
<path fill="#ccffcc" stroke="black" d="M296.33,-370.88C296.33,-370.88 253.17,-370.88 253.17,-370.88 250.21,-370.88 247.25,-367.92 247.25,-364.96 247.25,-364.96 247.25,-359.04 247.25,-359.04 247.25,-356.08 250.21,-353.12 253.17,-353.12 253.17,-353.12 296.33,-353.12 296.33,-353.12 299.29,-353.12 302.25,-356.08 302.25,-359.04 302.25,-359.04 302.25,-364.96 302.25,-364.96 302.25,-367.92 299.29,-370.88 296.33,-370.88"/>
<text text-anchor="start" x="255.25" y="-358.32" font-family="Helvetica,sans-Serif" font-size="9.00">index.d.ts</text>
</a>
</g>
</g>
<!-- src/main/options/defaults.js -->
<g id="node26" class="node">
<title>src/main/options/defaults.js</title>
<g id="a_node26"><a xlink:href="src/main/options/defaults.js" xlink:title="defaults.js">
<path fill="#ffffcc" stroke="black" d="M710.21,-389.88C710.21,-389.88 664.79,-389.88 664.79,-389.88 661.83,-389.88 658.88,-386.92 658.88,-383.96 658.88,-383.96 658.88,-378.04 658.88,-378.04 658.88,-375.08 661.83,-372.12 664.79,-372.12 664.79,-372.12 710.21,-372.12 710.21,-372.12 713.17,-372.12 716.12,-375.08 716.12,-378.04 716.12,-378.04 716.12,-383.96 716.12,-383.96 716.12,-386.92 713.17,-389.88 710.21,-389.88"/>
<text text-anchor="start" x="666.88" y="-377.32" font-family="Helvetica,sans-Serif" font-size="9.00">defaults.js</text>
</a>
</g>
</g>
<!-- src/main/options/normalize.js&#45;&gt;src/main/options/defaults.js -->
<g id="edge25" class="edge">
<title>src/main/options/normalize.js&#45;&gt;src/main/options/defaults.js</title>
<path fill="none" stroke="#000000" stroke-width="2" stroke-opacity="0.200000" d="M579.65,-378.04C579.65,-378.04 649.5,-378.04 649.5,-378.04"/>
<polygon fill="#000000" fill-opacity="0.200000" stroke="#000000" stroke-width="2" stroke-opacity="0.200000" points="649.5,-380.14 655.5,-378.04 649.5,-375.94 649.5,-380.14"/>
</g>
<!-- src/main/utl/normalize&#45;re&#45;properties.js -->
<g id="node27" class="node">
<title>src/main/utl/normalize&#45;re&#45;properties.js</title>
<g id="a_node27"><a xlink:href="src/main/utl/normalize-re-properties.js" xlink:title="normalize&#45;re&#45;properties.js">
<path fill="#ffffcc" stroke="black" d="M742.08,-459.88C742.08,-459.88 632.92,-459.88 632.92,-459.88 629.96,-459.88 627,-456.92 627,-453.96 627,-453.96 627,-448.04 627,-448.04 627,-445.08 629.96,-442.12 632.92,-442.12 632.92,-442.12 742.08,-442.12 742.08,-442.12 745.04,-442.12 748,-445.08 748,-448.04 748,-448.04 748,-453.96 748,-453.96 748,-456.92 745.04,-459.88 742.08,-459.88"/>
<text text-anchor="start" x="635" y="-447.32" font-family="Helvetica,sans-Serif" font-size="9.00">normalize&#45;re&#45;properties.js</text>
</a>
</g>
</g>
<!-- src/main/options/normalize.js&#45;&gt;src/main/utl/normalize&#45;re&#45;properties.js -->
<g id="edge24" class="edge">
<title>src/main/options/normalize.js&#45;&gt;src/main/utl/normalize&#45;re&#45;properties.js</title>
<path fill="none" stroke="#000000" stroke-width="2" stroke-opacity="0.200000" d="M579.66,-383.96C608.24,-383.96 645,-383.96 645,-383.96 645,-383.96 645,-432.68 645,-432.68"/>
<polygon fill="#000000" fill-opacity="0.200000" stroke="#000000" stroke-width="2" stroke-opacity="0.200000" points="642.9,-432.68 645,-438.68 647.1,-432.68 642.9,-432.68"/>
</g>
<!-- src/report/index.js -->
<g id="node28" class="node">
<title>src/report/index.js</title>
<g id="a_node28"><a xlink:href="src/report/index.js" xlink:title="index.js">
<path fill="#ffffcc" stroke="black" d="M708.58,-221.88C708.58,-221.88 666.42,-221.88 666.42,-221.88 663.46,-221.88 660.5,-218.92 660.5,-215.96 660.5,-215.96 660.5,-210.04 660.5,-210.04 660.5,-207.08 663.46,-204.12 666.42,-204.12 666.42,-204.12 708.58,-204.12 708.58,-204.12 711.54,-204.12 714.5,-207.08 714.5,-210.04 714.5,-210.04 714.5,-215.96 714.5,-215.96 714.5,-218.92 711.54,-221.88 708.58,-221.88"/>
<text text-anchor="start" x="671.75" y="-209.32" font-family="Helvetica,sans-Serif" font-size="9.00">index.js</text>
</a>
</g>
</g>
<!-- src/main/options/validate.js&#45;&gt;src/report/index.js -->
<g id="edge26" class="edge">
<title>src/main/options/validate.js&#45;&gt;src/report/index.js</title>
<path fill="none" stroke="#000000" stroke-width="2" stroke-opacity="0.200000" d="M575.58,-351C616.94,-351 688,-351 688,-351 688,-351 688,-231.05 688,-231.05"/>
<polygon fill="#000000" fill-opacity="0.200000" stroke="#000000" stroke-width="2" stroke-opacity="0.200000" points="690.1,-231.05 688,-225.05 685.9,-231.05 690.1,-231.05"/>
</g>
<!-- src/main/report&#45;wrap.js&#45;&gt;src/enrich/summarize/index.js -->
<g id="edge27" class="edge">
<title>src/main/report&#45;wrap.js&#45;&gt;src/enrich/summarize/index.js</title>
<path fill="none" stroke="#000000" stroke-width="2" stroke-opacity="0.200000" d="M449,-263.8C449,-232.61 449,-132.79 449,-132.79 449,-132.79 510.17,-132.79 510.17,-132.79"/>
<polygon fill="#000000" fill-opacity="0.200000" stroke="#000000" stroke-width="2" stroke-opacity="0.200000" points="510.17,-134.89 516.17,-132.79 510.17,-130.69 510.17,-134.89"/>
</g>
<!-- src/main/report&#45;wrap.js&#45;&gt;src/graph&#45;utl/compare.js -->
<g id="edge28" class="edge">
<title>src/main/report&#45;wrap.js&#45;&gt;src/graph&#45;utl/compare.js</title>
<path fill="none" stroke="#000000" stroke-width="2" stroke-opacity="0.200000" d="M384,-263.77C384,-219.39 384,-30.04 384,-30.04 384,-30.04 647.73,-30.04 647.73,-30.04"/>
<polygon fill="#000000" fill-opacity="0.200000" stroke="#000000" stroke-width="2" stroke-opacity="0.200000" points="647.73,-32.14 653.73,-30.04 647.73,-27.94 647.73,-32.14"/>
</g>
<!-- src/main/report&#45;wrap.js&#45;&gt;src/graph&#45;utl/consolidate&#45;to&#45;pattern.js -->
<g id="edge29" class="edge">
<title>src/main/report&#45;wrap.js&#45;&gt;src/graph&#45;utl/consolidate&#45;to&#45;pattern.js</title>
<path fill="none" stroke="#000000" stroke-width="2" stroke-opacity="0.200000" d="M448,-263.84C448,-230.71 448,-119.12 448,-119.12 448,-119.12 621.13,-119.12 621.13,-119.12"/>
<polygon fill="#000000" fill-opacity="0.200000" stroke="#000000" stroke-width="2" stroke-opacity="0.200000" points="621.13,-121.23 627.13,-119.12 621.13,-117.03 621.13,-121.23"/>
</g>
<!-- src/main/report&#45;wrap.js&#45;&gt;src/graph&#45;utl/filter&#45;bank.js -->
<g id="edge30" class="edge">
<title>src/main/report&#45;wrap.js&#45;&gt;src/graph&#45;utl/filter&#45;bank.js</title>
<path fill="none" stroke="#000000" stroke-width="2" stroke-opacity="0.200000" d="M446,-263.83C446,-227.15 446,-93 446,-93 446,-93 645.43,-93 645.43,-93"/>
<polygon fill="#000000" fill-opacity="0.200000" stroke="#000000" stroke-width="2" stroke-opacity="0.200000" points="645.43,-95.1 651.43,-93 645.43,-90.9 645.43,-95.1"/>
</g>
<!-- src/main/report&#45;wrap.js&#45;&gt;src/graph&#45;utl/strip&#45;self&#45;transitions.js -->
<g id="edge31" class="edge">
<title>src/main/report&#45;wrap.js&#45;&gt;src/graph&#45;utl/strip&#45;self&#45;transitions.js</title>
<path fill="none" stroke="#000000" stroke-width="2" stroke-opacity="0.200000" d="M387,-263.71C387,-223.06 387,-63 387,-63 387,-63 625.81,-63 625.81,-63"/>
<polygon fill="#000000" fill-opacity="0.200000" stroke="#000000" stroke-width="2" stroke-opacity="0.200000" points="625.81,-65.1 631.81,-63 625.81,-60.9 625.81,-65.1"/>
</g>
<!-- src/main/report&#45;wrap.js&#45;&gt;src/report/index.js -->
<g id="edge32" class="edge">
<title>src/main/report&#45;wrap.js&#45;&gt;src/report/index.js</title>
<path fill="none" stroke="#000000" stroke-width="2" stroke-opacity="0.200000" d="M451,-263.62C451,-246.75 451,-213 451,-213 451,-213 651.37,-213 651.37,-213"/>
<polygon fill="#000000" fill-opacity="0.200000" stroke="#000000" stroke-width="2" stroke-opacity="0.200000" points="651.37,-215.1 657.37,-213 651.37,-210.9 651.37,-215.1"/>
</g>
<!-- src/main/rule&#45;set/normalize.js&#45;&gt;src/main/utl/normalize&#45;re&#45;properties.js -->
<g id="edge35" class="edge">
<title>src/main/rule&#45;set/normalize.js&#45;&gt;src/main/utl/normalize&#45;re&#45;properties.js</title>
<path fill="none" stroke="#000000" stroke-width="2" stroke-opacity="0.200000" d="M449.58,-481C512.68,-481 644,-481 644,-481 644,-481 644,-469.16 644,-469.16"/>
<polygon fill="#000000" fill-opacity="0.200000" stroke="#000000" stroke-width="2" stroke-opacity="0.200000" points="646.1,-469.16 644,-463.16 641.9,-469.16 646.1,-469.16"/>
</g>
<!-- src/main/rule&#45;set/validate.js&#45;&gt;src/main/options/validate.js -->
<g id="edge37" class="edge">
<title>src/main/rule&#45;set/validate.js&#45;&gt;src/main/options/validate.js</title>
<path fill="none" stroke="#000000" stroke-width="2" stroke-opacity="0.200000" d="M445.45,-446.56C461.4,-446.56 478,-446.56 478,-446.56 478,-446.56 478,-349.46 478,-349.46 478,-349.46 508.52,-349.46 508.52,-349.46"/>
<polygon fill="#000000" fill-opacity="0.200000" stroke="#000000" stroke-width="2" stroke-opacity="0.200000" points="508.52,-351.56 514.52,-349.46 508.52,-347.36 508.52,-351.56"/>
</g>
<!-- src/main/rule&#45;set/validate.js&#45;&gt;src/main/utl/normalize&#45;re&#45;properties.js -->
<g id="edge38" class="edge">
<title>src/main/rule&#45;set/validate.js&#45;&gt;src/main/utl/normalize&#45;re&#45;properties.js</title>
<path fill="none" stroke="#000000" stroke-width="2" stroke-opacity="0.200000" d="M445.5,-451C445.5,-451 617.69,-451 617.69,-451"/>
<polygon fill="#000000" fill-opacity="0.200000" stroke="#000000" stroke-width="2" stroke-opacity="0.200000" points="617.69,-453.1 623.69,-451 617.69,-448.9 617.69,-453.1"/>
</g>
<!-- src/schema/configuration.schema.js -->
<g id="node29" class="node">
<title>src/schema/configuration.schema.js</title>
<g id="a_node29"><a xlink:href="src/schema/configuration.schema.js" xlink:title="configuration.schema.js">
<path fill="#ffffcc" stroke="black" d="M597.08,-575.88C597.08,-575.88 496.17,-575.88 496.17,-575.88 493.21,-575.88 490.25,-572.92 490.25,-569.96 490.25,-569.96 490.25,-564.04 490.25,-564.04 490.25,-561.08 493.21,-558.12 496.17,-558.12 496.17,-558.12 597.08,-558.12 597.08,-558.12 600.04,-558.12 603,-561.08 603,-564.04 603,-564.04 603,-569.96 603,-569.96 603,-572.92 600.04,-575.88 597.08,-575.88"/>
<text text-anchor="start" x="498.25" y="-563.33" font-family="Helvetica,sans-Serif" font-size="9.00">configuration.schema.js</text>
</a>
</g>
</g>
<!-- src/main/rule&#45;set/validate.js&#45;&gt;src/schema/configuration.schema.js -->
<g id="edge36" class="edge">
<title>src/main/rule&#45;set/validate.js&#45;&gt;src/schema/configuration.schema.js</title>
<path fill="none" stroke="#000000" stroke-width="2" stroke-opacity="0.200000" d="M445.3,-455.44C470.47,-455.44 503,-455.44 503,-455.44 503,-455.44 503,-548.87 503,-548.87"/>
<polygon fill="#000000" fill-opacity="0.200000" stroke="#000000" stroke-width="2" stroke-opacity="0.200000" points="500.9,-548.87 503,-554.87 505.1,-548.87 500.9,-548.87"/>
</g>
</g>
</svg>
