<?xml version="1.0" encoding="UTF-8" standalone="no"?>
<!DOCTYPE svg PUBLIC "-//W3C//DTD SVG 1.1//EN"
 "http://www.w3.org/Graphics/SVG/1.1/DTD/svg11.dtd">
<!-- Generated by graphviz version 2.47.3 (20210619.1520)
 -->
<!-- Title: dependency&#45;cruiser output Pages: 1 -->
<svg width="736pt" height="860pt"
 viewBox="0.00 0.00 736.00 860.00" xmlns="http://www.w3.org/2000/svg" xmlns:xlink="http://www.w3.org/1999/xlink">
<g id="graph0" class="graph" transform="scale(1 1) rotate(0) translate(4 856)">
<title>dependency&#45;cruiser output</title>
<polygon fill="white" stroke="transparent" points="-4,4 -4,-856 732,-856 732,4 -4,4"/>
<g id="clust1" class="cluster">
<title>cluster_src</title>
<path fill="#ffffff" stroke="black" stroke-width="2" d="M20,-8C20,-8 708,-8 708,-8 714,-8 720,-14 720,-20 720,-20 720,-832 720,-832 720,-838 714,-844 708,-844 708,-844 20,-844 20,-844 14,-844 8,-838 8,-832 8,-832 8,-20 8,-20 8,-14 14,-8 20,-8"/>
<text text-anchor="middle" x="364" y="-832.8" font-family="Helvetica,sans-Serif" font-weight="bold" font-size="9.00">src</text>
</g>
<g id="clust3" class="cluster">
<title>cluster_src/config&#45;utl</title>
<path fill="#ffffff" stroke="black" stroke-width="2" d="M152,-636C152,-636 266,-636 266,-636 272,-636 278,-642 278,-648 278,-648 278,-710 278,-710 278,-716 272,-722 266,-722 266,-722 152,-722 152,-722 146,-722 140,-716 140,-710 140,-710 140,-648 140,-648 140,-642 146,-636 152,-636"/>
<text text-anchor="middle" x="209" y="-710.8" font-family="Helvetica,sans-Serif" font-weight="bold" font-size="9.00">config&#45;utl</text>
</g>
<g id="clust4" class="cluster">
<title>cluster_src/config&#45;utl/extract&#45;depcruise&#45;config</title>
<path fill="#ffffff" stroke="black" stroke-width="2" d="M160,-644C160,-644 258,-644 258,-644 264,-644 270,-650 270,-656 270,-656 270,-684 270,-684 270,-690 264,-696 258,-696 258,-696 160,-696 160,-696 154,-696 148,-690 148,-684 148,-684 148,-656 148,-656 148,-650 154,-644 160,-644"/>
<text text-anchor="middle" x="209" y="-684.8" font-family="Helvetica,sans-Serif" font-weight="bold" font-size="9.00">extract&#45;depcruise&#45;config</text>
</g>
<g id="clust5" class="cluster">
<title>cluster_src/enrich</title>
<path fill="#ffffff" stroke="black" stroke-width="2" d="M429,-136C429,-136 546,-136 546,-136 552,-136 558,-142 558,-148 558,-148 558,-236 558,-236 558,-242 552,-248 546,-248 546,-248 429,-248 429,-248 423,-248 417,-242 417,-236 417,-236 417,-148 417,-148 417,-142 423,-136 429,-136"/>
<text text-anchor="middle" x="487.5" y="-236.8" font-family="Helvetica,sans-Serif" font-weight="bold" font-size="9.00">enrich</text>
</g>
<g id="clust6" class="cluster">
<title>cluster_src/enrich/summarize</title>
<path fill="#ffffff" stroke="black" stroke-width="2" d="M437,-170C437,-170 538,-170 538,-170 544,-170 550,-176 550,-182 550,-182 550,-210 550,-210 550,-216 544,-222 538,-222 538,-222 437,-222 437,-222 431,-222 425,-216 425,-210 425,-210 425,-182 425,-182 425,-176 431,-170 437,-170"/>
<text text-anchor="middle" x="487.5" y="-210.8" font-family="Helvetica,sans-Serif" font-weight="bold" font-size="9.00">summarize</text>
</g>
<g id="clust7" class="cluster">
<title>cluster_src/extract</title>
<path fill="#ffffff" stroke="black" stroke-width="2" d="M456.5,-16C456.5,-16 518.5,-16 518.5,-16 524.5,-16 530.5,-22 530.5,-28 530.5,-28 530.5,-116 530.5,-116 530.5,-122 524.5,-128 518.5,-128 518.5,-128 456.5,-128 456.5,-128 450.5,-128 444.5,-122 444.5,-116 444.5,-116 444.5,-28 444.5,-28 444.5,-22 450.5,-16 456.5,-16"/>
<text text-anchor="middle" x="487.5" y="-116.8" font-family="Helvetica,sans-Serif" font-weight="bold" font-size="9.00">extract</text>
</g>
<g id="clust8" class="cluster">
<title>cluster_src/extract/transpile</title>
<path fill="#ffffff" stroke="black" stroke-width="2" d="M464.5,-50C464.5,-50 510.5,-50 510.5,-50 516.5,-50 522.5,-56 522.5,-62 522.5,-62 522.5,-90 522.5,-90 522.5,-96 516.5,-102 510.5,-102 510.5,-102 464.5,-102 464.5,-102 458.5,-102 452.5,-96 452.5,-90 452.5,-90 452.5,-62 452.5,-62 452.5,-56 458.5,-50 464.5,-50"/>
<text text-anchor="middle" x="487.5" y="-90.8" font-family="Helvetica,sans-Serif" font-weight="bold" font-size="9.00">transpile</text>
</g>
<g id="clust9" class="cluster">
<title>cluster_src/graph&#45;utl</title>
<path fill="#ffffff" stroke="black" stroke-width="2" d="M434,-636C434,-636 541,-636 541,-636 547,-636 553,-642 553,-648 553,-648 553,-796 553,-796 553,-802 547,-808 541,-808 541,-808 434,-808 434,-808 428,-808 422,-802 422,-796 422,-796 422,-648 422,-648 422,-642 428,-636 434,-636"/>
<text text-anchor="middle" x="487.5" y="-796.8" font-family="Helvetica,sans-Serif" font-weight="bold" font-size="9.00">graph&#45;utl</text>
</g>
<g id="clust10" class="cluster">
<title>cluster_src/main</title>
<path fill="#ffffff" stroke="black" stroke-width="2" d="M186,-346C186,-346 700,-346 700,-346 706,-346 712,-352 712,-358 712,-358 712,-616 712,-616 712,-622 706,-628 700,-628 700,-628 186,-628 186,-628 180,-628 174,-622 174,-616 174,-616 174,-358 174,-358 174,-352 180,-346 186,-346"/>
<text text-anchor="middle" x="443" y="-616.8" font-family="Helvetica,sans-Serif" font-weight="bold" font-size="9.00">main</text>
</g>
<g id="clust11" class="cluster">
<title>cluster_src/main/files&#45;and&#45;dirs</title>
<path fill="#ffffff" stroke="black" stroke-width="2" d="M322,-454C322,-454 380,-454 380,-454 386,-454 392,-460 392,-466 392,-466 392,-494 392,-494 392,-500 386,-506 380,-506 380,-506 322,-506 322,-506 316,-506 310,-500 310,-494 310,-494 310,-466 310,-466 310,-460 316,-454 322,-454"/>
<text text-anchor="middle" x="351" y="-494.8" font-family="Helvetica,sans-Serif" font-weight="bold" font-size="9.00">files&#45;and&#45;dirs</text>
</g>
<g id="clust12" class="cluster">
<title>cluster_src/main/options</title>
<path fill="#ffffff" stroke="black" stroke-width="2" d="M458.5,-364C458.5,-364 665,-364 665,-364 671,-364 677,-370 677,-376 677,-376 677,-434 677,-434 677,-440 671,-446 665,-446 665,-446 458.5,-446 458.5,-446 452.5,-446 446.5,-440 446.5,-434 446.5,-434 446.5,-376 446.5,-376 446.5,-370 452.5,-364 458.5,-364"/>
<text text-anchor="middle" x="561.75" y="-434.8" font-family="Helvetica,sans-Serif" font-weight="bold" font-size="9.00">options</text>
</g>
<g id="clust13" class="cluster">
<title>cluster_src/main/resolve&#45;options</title>
<path fill="#ffffff" stroke="black" stroke-width="2" d="M322,-524C322,-524 381,-524 381,-524 387,-524 393,-530 393,-536 393,-536 393,-564 393,-564 393,-570 387,-576 381,-576 381,-576 322,-576 322,-576 316,-576 310,-570 310,-564 310,-564 310,-536 310,-536 310,-530 316,-524 322,-524"/>
<text text-anchor="middle" x="351.5" y="-564.8" font-family="Helvetica,sans-Serif" font-weight="bold" font-size="9.00">resolve&#45;options</text>
</g>
<g id="clust14" class="cluster">
<title>cluster_src/main/rule&#45;set</title>
<path fill="#ffffff" stroke="black" stroke-width="2" d="M322,-364C322,-364 380,-364 380,-364 386,-364 392,-370 392,-376 392,-376 392,-434 392,-434 392,-440 386,-446 380,-446 380,-446 322,-446 322,-446 316,-446 310,-440 310,-434 310,-434 310,-376 310,-376 310,-370 316,-364 322,-364"/>
<text text-anchor="middle" x="351" y="-434.8" font-family="Helvetica,sans-Serif" font-weight="bold" font-size="9.00">rule&#45;set</text>
</g>
<g id="clust15" class="cluster">
<title>cluster_src/main/utl</title>
<path fill="#ffffff" stroke="black" stroke-width="2" d="M578,-454C578,-454 692,-454 692,-454 698,-454 704,-460 704,-466 704,-466 704,-494 704,-494 704,-500 698,-506 692,-506 692,-506 578,-506 578,-506 572,-506 566,-500 566,-494 566,-494 566,-466 566,-466 566,-460 572,-454 578,-454"/>
<text text-anchor="middle" x="635" y="-494.8" font-family="Helvetica,sans-Serif" font-weight="bold" font-size="9.00">utl</text>
</g>
<g id="clust16" class="cluster">
<title>cluster_src/report</title>
<path fill="#ffffff" stroke="black" stroke-width="2" d="M612,-701C612,-701 658,-701 658,-701 664,-701 670,-707 670,-713 670,-713 670,-741 670,-741 670,-747 664,-753 658,-753 658,-753 612,-753 612,-753 606,-753 600,-747 600,-741 600,-741 600,-713 600,-713 600,-707 606,-701 612,-701"/>
<text text-anchor="middle" x="635" y="-741.8" font-family="Helvetica,sans-Serif" font-weight="bold" font-size="9.00">report</text>
</g>
<g id="clust17" class="cluster">
<title>cluster_src/schema</title>
<path fill="#ffffff" stroke="black" stroke-width="2" d="M429.5,-256C429.5,-256 545.5,-256 545.5,-256 551.5,-256 557.5,-262 557.5,-268 557.5,-268 557.5,-326 557.5,-326 557.5,-332 551.5,-338 545.5,-338 545.5,-338 429.5,-338 429.5,-338 423.5,-338 417.5,-332 417.5,-326 417.5,-326 417.5,-268 417.5,-268 417.5,-262 423.5,-256 429.5,-256"/>
<text text-anchor="middle" x="487.5" y="-326.8" font-family="Helvetica,sans-Serif" font-weight="bold" font-size="9.00">schema</text>
</g>
<g id="clust18" class="cluster">
<title>cluster_src/utl</title>
<path fill="#ffffff" stroke="black" stroke-width="2" d="M328,-286C328,-286 374,-286 374,-286 380,-286 386,-292 386,-298 386,-298 386,-326 386,-326 386,-332 380,-338 374,-338 374,-338 328,-338 328,-338 322,-338 316,-332 316,-326 316,-326 316,-298 316,-298 316,-292 322,-286 328,-286"/>
<text text-anchor="middle" x="351" y="-326.8" font-family="Helvetica,sans-Serif" font-weight="bold" font-size="9.00">utl</text>
</g>
<g id="clust2" class="cluster">
<title>cluster_src/cli</title>
<path fill="#ffffff" stroke="black" stroke-width="2" d="M28,-325C28,-325 112,-325 112,-325 118,-325 124,-331 124,-337 124,-337 124,-425 124,-425 124,-431 118,-437 112,-437 112,-437 28,-437 28,-437 22,-437 16,-431 16,-425 16,-425 16,-337 16,-337 16,-331 22,-325 28,-325"/>
<text text-anchor="middle" x="70" y="-425.8" font-family="Helvetica,sans-Serif" font-weight="bold" font-size="9.00">cli</text>
</g>
<!-- src/cli/format&#45;meta&#45;info.js -->
<g id="node1" class="node">
<title>src/cli/format&#45;meta&#45;info.js</title>
<g id="a_node1"><a xlink:href="src/cli/format-meta-info.js" xlink:title="format&#45;meta&#45;info.js">
<path fill="#ffffcc" stroke="black" d="M110,-411C110,-411 30,-411 30,-411 27,-411 24,-408 24,-405 24,-405 24,-399 24,-399 24,-396 27,-393 30,-393 30,-393 110,-393 110,-393 113,-393 116,-396 116,-399 116,-399 116,-405 116,-405 116,-408 113,-411 110,-411"/>
<text text-anchor="middle" x="70" y="-399.8" font-family="Helvetica,sans-Serif" font-size="9.00">format&#45;meta&#45;info.js</text>
</a>
</g>
</g>
<!-- src/main/index.js -->
<g id="node2" class="node">
<title>src/main/index.js</title>
<g id="a_node2"><a xlink:href="src/main/index.js" xlink:title="index.js">
<path fill="#ffffcc" stroke="black" d="M230,-381C230,-381 188,-381 188,-381 185,-381 182,-378 182,-375 182,-375 182,-369 182,-369 182,-366 185,-363 188,-363 188,-363 230,-363 230,-363 233,-363 236,-366 236,-369 236,-369 236,-375 236,-375 236,-378 233,-381 230,-381"/>
<text text-anchor="middle" x="209" y="-369.8" font-family="Helvetica,sans-Serif" font-size="9.00">index.js</text>
</a>
</g>
</g>
<!-- src/cli/format&#45;meta&#45;info.js&#45;&gt;src/main/index.js -->
<g id="edge1" class="edge">
<title>src/cli/format&#45;meta&#45;info.js&#45;&gt;src/main/index.js</title>
<path fill="none" stroke="#000000" stroke-width="2" stroke-opacity="0.200000" d="M107,-392.86C107,-385.03 107,-375 107,-375 107,-375 175.93,-375 175.93,-375"/>
<polygon fill="#000000" fill-opacity="0.200000" stroke="#000000" stroke-width="2" stroke-opacity="0.200000" points="175.93,-377.1 181.93,-375 175.93,-372.9 175.93,-377.1"/>
</g>
<!-- src/main/resolve&#45;options/normalize.js -->
<g id="node6" class="node">
<title>src/main/resolve&#45;options/normalize.js</title>
<g id="a_node6"><a xlink:href="src/main/resolve-options/normalize.js" xlink:title="normalize.js">
<path fill="#ffffcc" stroke="black" d="M378,-550C378,-550 324,-550 324,-550 321,-550 318,-547 318,-544 318,-544 318,-538 318,-538 318,-535 321,-532 324,-532 324,-532 378,-532 378,-532 381,-532 384,-535 384,-538 384,-538 384,-544 384,-544 384,-547 381,-550 378,-550"/>
<text text-anchor="middle" x="351" y="-538.8" font-family="Helvetica,sans-Serif" font-size="9.00">normalize.js</text>
</a>
</g>
</g>
<!-- src/main/index.js&#45;&gt;src/main/resolve&#45;options/normalize.js -->
<g id="edge14" class="edge">
<title>src/main/index.js&#45;&gt;src/main/resolve&#45;options/normalize.js</title>
<path fill="none" stroke="#000000" stroke-width="2" stroke-opacity="0.200000" d="M200,-381.4C200,-416.52 200,-538 200,-538 200,-538 311.86,-538 311.86,-538"/>
<polygon fill="#000000" fill-opacity="0.200000" stroke="#000000" stroke-width="2" stroke-opacity="0.200000" points="311.86,-540.1 317.86,-538 311.86,-535.9 311.86,-540.1"/>
</g>
<!-- src/enrich/index.js -->
<g id="node7" class="node">
<title>src/enrich/index.js</title>
<g id="a_node7"><a xlink:href="src/enrich/index.js" xlink:title="index.js">
<path fill="#ffffcc" stroke="black" d="M508.5,-162C508.5,-162 466.5,-162 466.5,-162 463.5,-162 460.5,-159 460.5,-156 460.5,-156 460.5,-150 460.5,-150 460.5,-147 463.5,-144 466.5,-144 466.5,-144 508.5,-144 508.5,-144 511.5,-144 514.5,-147 514.5,-150 514.5,-150 514.5,-156 514.5,-156 514.5,-159 511.5,-162 508.5,-162"/>
<text text-anchor="middle" x="487.5" y="-150.8" font-family="Helvetica,sans-Serif" font-size="9.00">index.js</text>
</a>
</g>
</g>
<!-- src/main/index.js&#45;&gt;src/enrich/index.js -->
<g id="edge5" class="edge">
<title>src/main/index.js&#45;&gt;src/enrich/index.js</title>
<path fill="none" stroke="#000000" stroke-width="2" stroke-opacity="0.200000" d="M218,-362.87C218,-321.42 218,-153 218,-153 218,-153 454.43,-153 454.43,-153"/>
<polygon fill="#000000" fill-opacity="0.200000" stroke="#000000" stroke-width="2" stroke-opacity="0.200000" points="454.43,-155.1 460.43,-153 454.43,-150.9 454.43,-155.1"/>
</g>
<!-- src/extract/index.js -->
<g id="node9" class="node">
<title>src/extract/index.js</title>
<g id="a_node9"><a xlink:href="src/extract/index.js" xlink:title="index.js">
<path fill="#ffffcc" stroke="black" d="M508.5,-42C508.5,-42 466.5,-42 466.5,-42 463.5,-42 460.5,-39 460.5,-36 460.5,-36 460.5,-30 460.5,-30 460.5,-27 463.5,-24 466.5,-24 466.5,-24 508.5,-24 508.5,-24 511.5,-24 514.5,-27 514.5,-30 514.5,-30 514.5,-36 514.5,-36 514.5,-39 511.5,-42 508.5,-42"/>
<text text-anchor="middle" x="487.5" y="-30.8" font-family="Helvetica,sans-Serif" font-size="9.00">index.js</text>
</a>
</g>
</g>
<!-- src/main/index.js&#45;&gt;src/extract/index.js -->
<g id="edge6" class="edge">
<title>src/main/index.js&#45;&gt;src/extract/index.js</title>
<path fill="none" stroke="#000000" stroke-width="2" stroke-opacity="0.200000" d="M200,-362.93C200,-309.02 200,-33 200,-33 200,-33 454.45,-33 454.45,-33"/>
<polygon fill="#000000" fill-opacity="0.200000" stroke="#000000" stroke-width="2" stroke-opacity="0.200000" points="454.45,-35.1 460.45,-33 454.45,-30.9 454.45,-35.1"/>
</g>
<!-- src/extract/transpile/meta.js -->
<g id="node10" class="node">
<title>src/extract/transpile/meta.js</title>
<g id="a_node10"><a xlink:href="src/extract/transpile/meta.js" xlink:title="meta.js">
<path fill="#ffffcc" stroke="black" d="M508.5,-76C508.5,-76 466.5,-76 466.5,-76 463.5,-76 460.5,-73 460.5,-70 460.5,-70 460.5,-64 460.5,-64 460.5,-61 463.5,-58 466.5,-58 466.5,-58 508.5,-58 508.5,-58 511.5,-58 514.5,-61 514.5,-64 514.5,-64 514.5,-70 514.5,-70 514.5,-73 511.5,-76 508.5,-76"/>
<text text-anchor="middle" x="487.5" y="-64.8" font-family="Helvetica,sans-Serif" font-size="9.00">meta.js</text>
</a>
</g>
</g>
<!-- src/main/index.js&#45;&gt;src/extract/transpile/meta.js -->
<g id="edge7" class="edge">
<title>src/main/index.js&#45;&gt;src/extract/transpile/meta.js</title>
<path fill="none" stroke="#000000" stroke-width="2" stroke-opacity="0.200000" d="M209,-362.78C209,-311.53 209,-64 209,-64 209,-64 454.29,-64 454.29,-64"/>
<polygon fill="#000000" fill-opacity="0.200000" stroke="#000000" stroke-width="2" stroke-opacity="0.200000" points="454.29,-66.1 460.29,-64 454.29,-61.9 454.29,-66.1"/>
</g>
<!-- src/main/files&#45;and&#45;dirs/normalize.js -->
<g id="node16" class="node">
<title>src/main/files&#45;and&#45;dirs/normalize.js</title>
<g id="a_node16"><a xlink:href="src/main/files-and-dirs/normalize.js" xlink:title="normalize.js">
<path fill="#ffffcc" stroke="black" d="M378,-480C378,-480 324,-480 324,-480 321,-480 318,-477 318,-474 318,-474 318,-468 318,-468 318,-465 321,-462 324,-462 324,-462 378,-462 378,-462 381,-462 384,-465 384,-468 384,-468 384,-474 384,-474 384,-477 381,-480 378,-480"/>
<text text-anchor="middle" x="351" y="-468.8" font-family="Helvetica,sans-Serif" font-size="9.00">normalize.js</text>
</a>
</g>
</g>
<!-- src/main/index.js&#45;&gt;src/main/files&#45;and&#45;dirs/normalize.js -->
<g id="edge10" class="edge">
<title>src/main/index.js&#45;&gt;src/main/files&#45;and&#45;dirs/normalize.js</title>
<path fill="none" stroke="#000000" stroke-width="2" stroke-opacity="0.200000" d="M218,-381.14C218,-405.64 218,-471 218,-471 218,-471 311.78,-471 311.78,-471"/>
<polygon fill="#000000" fill-opacity="0.200000" stroke="#000000" stroke-width="2" stroke-opacity="0.200000" points="311.78,-473.1 317.78,-471 311.78,-468.9 311.78,-473.1"/>
</g>
<!-- src/schema/cruise&#45;result.schema.json -->
<g id="node17" class="node">
<title>src/schema/cruise&#45;result.schema.json</title>
<g id="a_node17"><a xlink:href="src/schema/cruise-result.schema.json" xlink:title="cruise&#45;result.schema.json">
<path fill="#ffee44" stroke="black" d="M542,-282C542,-282 433,-282 433,-282 430,-282 427,-279 427,-276 427,-276 427,-270 427,-270 427,-267 430,-264 433,-264 433,-264 542,-264 542,-264 545,-264 548,-267 548,-270 548,-270 548,-276 548,-276 548,-279 545,-282 542,-282"/>
<text text-anchor="middle" x="487.5" y="-270.8" font-family="Helvetica,sans-Serif" font-size="9.00">cruise&#45;result.schema.json</text>
</a>
</g>
</g>
<!-- src/main/index.js&#45;&gt;src/schema/cruise&#45;result.schema.json -->
<g id="edge8" class="edge">
<title>src/main/index.js&#45;&gt;src/schema/cruise&#45;result.schema.json</title>
<path fill="none" stroke="#000000" stroke-width="2" stroke-opacity="0.200000" d="M227,-362.86C227,-338.36 227,-273 227,-273 227,-273 420.75,-273 420.75,-273"/>
<polygon fill="#000000" fill-opacity="0.200000" stroke="#000000" stroke-width="2" stroke-opacity="0.200000" points="420.75,-275.1 426.75,-273 420.75,-270.9 420.75,-275.1"/>
</g>
<!-- src/utl/bus.js -->
<g id="node18" class="node">
<title>src/utl/bus.js</title>
<g id="a_node18"><a xlink:href="src/utl/bus.js" xlink:title="bus.js">
<path fill="#ffffcc" stroke="black" d="M372,-312C372,-312 330,-312 330,-312 327,-312 324,-309 324,-306 324,-306 324,-300 324,-300 324,-297 327,-294 330,-294 330,-294 372,-294 372,-294 375,-294 378,-297 378,-300 378,-300 378,-306 378,-306 378,-309 375,-312 372,-312"/>
<text text-anchor="middle" x="351" y="-300.8" font-family="Helvetica,sans-Serif" font-size="9.00">bus.js</text>
</a>
</g>
</g>
<!-- src/main/index.js&#45;&gt;src/utl/bus.js -->
<g id="edge9" class="edge">
<title>src/main/index.js&#45;&gt;src/utl/bus.js</title>
<path fill="none" stroke="#000000" stroke-width="2" stroke-opacity="0.200000" d="M236.04,-365.25C277.24,-365.25 351,-365.25 351,-365.25 351,-365.25 351,-318.19 351,-318.19"/>
<polygon fill="#000000" fill-opacity="0.200000" stroke="#000000" stroke-width="2" stroke-opacity="0.200000" points="353.1,-318.19 351,-312.19 348.9,-318.19 353.1,-318.19"/>
</g>
<!-- src/main/options/normalize.js -->
<g id="node19" class="node">
<title>src/main/options/normalize.js</title>
<g id="a_node19"><a xlink:href="src/main/options/normalize.js" xlink:title="normalize.js">
<path fill="#ffffcc" stroke="black" d="M514.5,-420C514.5,-420 460.5,-420 460.5,-420 457.5,-420 454.5,-417 454.5,-414 454.5,-414 454.5,-408 454.5,-408 454.5,-405 457.5,-402 460.5,-402 460.5,-402 514.5,-402 514.5,-402 517.5,-402 520.5,-405 520.5,-408 520.5,-408 520.5,-414 520.5,-414 520.5,-417 517.5,-420 514.5,-420"/>
<text text-anchor="middle" x="487.5" y="-408.8" font-family="Helvetica,sans-Serif" font-size="9.00">normalize.js</text>
</a>
</g>
</g>
<!-- src/main/index.js&#45;&gt;src/main/options/normalize.js -->
<g id="edge11" class="edge">
<title>src/main/index.js&#45;&gt;src/main/options/normalize.js</title>
<path fill="none" stroke="#000000" stroke-width="2" stroke-opacity="0.200000" d="M236.32,-369.75C292.98,-369.75 418,-369.75 418,-369.75 418,-369.75 418,-408 418,-408 418,-408 448.38,-408 448.38,-408"/>
<polygon fill="#000000" fill-opacity="0.200000" stroke="#000000" stroke-width="2" stroke-opacity="0.200000" points="448.38,-410.1 454.38,-408 448.38,-405.9 448.38,-410.1"/>
</g>
<!-- src/main/options/validate.js -->
<g id="node20" class="node">
<title>src/main/options/validate.js</title>
<g id="a_node20"><a xlink:href="src/main/options/validate.js" xlink:title="validate.js">
<path fill="#ffffcc" stroke="black" d="M510.5,-390C510.5,-390 464.5,-390 464.5,-390 461.5,-390 458.5,-387 458.5,-384 458.5,-384 458.5,-378 458.5,-378 458.5,-375 461.5,-372 464.5,-372 464.5,-372 510.5,-372 510.5,-372 513.5,-372 516.5,-375 516.5,-378 516.5,-378 516.5,-384 516.5,-384 516.5,-387 513.5,-390 510.5,-390"/>
<text text-anchor="middle" x="487.5" y="-378.8" font-family="Helvetica,sans-Serif" font-size="9.00">validate.js</text>
</a>
</g>
</g>
<!-- src/main/index.js&#45;&gt;src/main/options/validate.js -->
<g id="edge12" class="edge">
<title>src/main/index.js&#45;&gt;src/main/options/validate.js</title>
<path fill="none" stroke="#000000" stroke-width="2" stroke-opacity="0.200000" d="M236.01,-367.5C306.02,-367.5 488,-367.5 488,-367.5 488,-367.5 488,-367.93 488,-367.93"/>
<polygon fill="#000000" fill-opacity="0.200000" stroke="#000000" stroke-width="2" stroke-opacity="0.200000" points="485.9,-365.77 488,-371.77 490.1,-365.77 485.9,-365.77"/>
</g>
<!-- src/main/report&#45;wrap.js -->
<g id="node21" class="node">
<title>src/main/report&#45;wrap.js</title>
<g id="a_node21"><a xlink:href="src/main/report-wrap.js" xlink:title="report&#45;wrap.js">
<path fill="#ffffcc" stroke="black" d="M381.5,-602C381.5,-602 320.5,-602 320.5,-602 317.5,-602 314.5,-599 314.5,-596 314.5,-596 314.5,-590 314.5,-590 314.5,-587 317.5,-584 320.5,-584 320.5,-584 381.5,-584 381.5,-584 384.5,-584 387.5,-587 387.5,-590 387.5,-590 387.5,-596 387.5,-596 387.5,-599 384.5,-602 381.5,-602"/>
<text text-anchor="middle" x="351" y="-590.8" font-family="Helvetica,sans-Serif" font-size="9.00">report&#45;wrap.js</text>
</a>
</g>
</g>
<!-- src/main/index.js&#45;&gt;src/main/report&#45;wrap.js -->
<g id="edge13" class="edge">
<title>src/main/index.js&#45;&gt;src/main/report&#45;wrap.js</title>
<path fill="none" stroke="#000000" stroke-width="2" stroke-opacity="0.200000" d="M191,-381.21C191,-423.04 191,-593 191,-593 191,-593 308.29,-593 308.29,-593"/>
<polygon fill="#000000" fill-opacity="0.200000" stroke="#000000" stroke-width="2" stroke-opacity="0.200000" points="308.29,-595.1 314.29,-593 308.29,-590.9 308.29,-595.1"/>
</g>
<!-- src/main/rule&#45;set/normalize.js -->
<g id="node22" class="node">
<title>src/main/rule&#45;set/normalize.js</title>
<g id="a_node22"><a xlink:href="src/main/rule-set/normalize.js" xlink:title="normalize.js">
<path fill="#ffffcc" stroke="black" d="M378,-420C378,-420 324,-420 324,-420 321,-420 318,-417 318,-414 318,-414 318,-408 318,-408 318,-405 321,-402 324,-402 324,-402 378,-402 378,-402 381,-402 384,-405 384,-408 384,-408 384,-414 384,-414 384,-417 381,-420 378,-420"/>
<text text-anchor="middle" x="351" y="-408.8" font-family="Helvetica,sans-Serif" font-size="9.00">normalize.js</text>
</a>
</g>
</g>
<!-- src/main/index.js&#45;&gt;src/main/rule&#45;set/normalize.js -->
<g id="edge15" class="edge">
<title>src/main/index.js&#45;&gt;src/main/rule&#45;set/normalize.js</title>
<path fill="none" stroke="#000000" stroke-width="2" stroke-opacity="0.200000" d="M227,-381.06C227,-391.29 227,-406.5 227,-406.5 227,-406.5 311.77,-406.5 311.77,-406.5"/>
<polygon fill="#000000" fill-opacity="0.200000" stroke="#000000" stroke-width="2" stroke-opacity="0.200000" points="311.77,-408.6 317.77,-406.5 311.77,-404.4 311.77,-408.6"/>
</g>
<!-- src/main/rule&#45;set/validate.js -->
<g id="node23" class="node">
<title>src/main/rule&#45;set/validate.js</title>
<g id="a_node23"><a xlink:href="src/main/rule-set/validate.js" xlink:title="validate.js">
<path fill="#ffffcc" stroke="black" d="M374,-390C374,-390 328,-390 328,-390 325,-390 322,-387 322,-384 322,-384 322,-378 322,-378 322,-375 325,-372 328,-372 328,-372 374,-372 374,-372 377,-372 380,-375 380,-378 380,-378 380,-384 380,-384 380,-387 377,-390 374,-390"/>
<text text-anchor="middle" x="351" y="-378.8" font-family="Helvetica,sans-Serif" font-size="9.00">validate.js</text>
</a>
</g>
</g>
<!-- src/main/index.js&#45;&gt;src/main/rule&#45;set/validate.js -->
<g id="edge16" class="edge">
<title>src/main/index.js&#45;&gt;src/main/rule&#45;set/validate.js</title>
<path fill="none" stroke="#000000" stroke-width="2" stroke-opacity="0.200000" d="M236.04,-376.5C236.04,-376.5 315.61,-376.5 315.61,-376.5"/>
<polygon fill="#000000" fill-opacity="0.200000" stroke="#000000" stroke-width="2" stroke-opacity="0.200000" points="315.61,-378.6 321.61,-376.5 315.61,-374.4 315.61,-378.6"/>
</g>
<!-- src/cli/format.js -->
<g id="node3" class="node">
<title>src/cli/format.js</title>
<g id="a_node3"><a xlink:href="src/cli/format.js" xlink:title="format.js">
<path fill="#ffffcc" stroke="black" d="M91,-381C91,-381 49,-381 49,-381 46,-381 43,-378 43,-375 43,-375 43,-369 43,-369 43,-366 46,-363 49,-363 49,-363 91,-363 91,-363 94,-363 97,-366 97,-369 97,-369 97,-375 97,-375 97,-378 94,-381 91,-381"/>
<text text-anchor="middle" x="70" y="-369.8" font-family="Helvetica,sans-Serif" font-size="9.00">format.js</text>
</a>
</g>
</g>
<!-- src/cli/format.js&#45;&gt;src/main/index.js -->
<g id="edge2" class="edge">
<title>src/cli/format.js&#45;&gt;src/main/index.js</title>
<path fill="none" stroke="#000000" stroke-width="2" stroke-opacity="0.200000" d="M97.13,-369C97.13,-369 175.94,-369 175.94,-369"/>
<polygon fill="#000000" fill-opacity="0.200000" stroke="#000000" stroke-width="2" stroke-opacity="0.200000" points="175.94,-371.1 181.94,-369 175.94,-366.9 175.94,-371.1"/>
</g>
<!-- src/cli/index.js -->
<g id="node4" class="node">
<title>src/cli/index.js</title>
<g id="a_node4"><a xlink:href="src/cli/index.js" xlink:title="index.js">
<path fill="#ffffcc" stroke="black" d="M91,-351C91,-351 49,-351 49,-351 46,-351 43,-348 43,-345 43,-345 43,-339 43,-339 43,-336 46,-333 49,-333 49,-333 91,-333 91,-333 94,-333 97,-336 97,-339 97,-339 97,-345 97,-345 97,-348 94,-351 91,-351"/>
<text text-anchor="middle" x="70" y="-339.8" font-family="Helvetica,sans-Serif" font-size="9.00">index.js</text>
</a>
</g>
</g>
<!-- src/cli/index.js&#45;&gt;src/main/index.js -->
<g id="edge3" class="edge">
<title>src/cli/index.js&#45;&gt;src/main/index.js</title>
<path fill="none" stroke="#000000" stroke-width="2" stroke-opacity="0.200000" d="M97.15,-342C132.83,-342 191,-342 191,-342 191,-342 191,-356.84 191,-356.84"/>
<polygon fill="#000000" fill-opacity="0.200000" stroke="#000000" stroke-width="2" stroke-opacity="0.200000" points="188.9,-356.84 191,-362.84 193.1,-356.84 188.9,-356.84"/>
</g>
<!-- src/config&#45;utl/extract&#45;depcruise&#45;config/index.js -->
<g id="node5" class="node">
<title>src/config&#45;utl/extract&#45;depcruise&#45;config/index.js</title>
<g id="a_node5"><a xlink:href="src/config-utl/extract-depcruise-config/index.js" xlink:title="index.js">
<path fill="#ffffcc" stroke="black" d="M230,-670C230,-670 188,-670 188,-670 185,-670 182,-667 182,-664 182,-664 182,-658 182,-658 182,-655 185,-652 188,-652 188,-652 230,-652 230,-652 233,-652 236,-655 236,-658 236,-658 236,-664 236,-664 236,-667 233,-670 230,-670"/>
<text text-anchor="middle" x="209" y="-658.8" font-family="Helvetica,sans-Serif" font-size="9.00">index.js</text>
</a>
</g>
</g>
<!-- src/config&#45;utl/extract&#45;depcruise&#45;config/index.js&#45;&gt;src/main/resolve&#45;options/normalize.js -->
<g id="edge4" class="edge">
<title>src/config&#45;utl/extract&#45;depcruise&#45;config/index.js&#45;&gt;src/main/resolve&#45;options/normalize.js</title>
<path fill="none" stroke="#000000" stroke-width="2" stroke-opacity="0.200000" d="M209,-651.82C209,-624.24 209,-544 209,-544 209,-544 311.71,-544 311.71,-544"/>
<polygon fill="#000000" fill-opacity="0.200000" stroke="#000000" stroke-width="2" stroke-opacity="0.200000" points="311.71,-546.1 317.71,-544 311.71,-541.9 311.71,-546.1"/>
</g>
<!-- src/main/resolve&#45;options/normalize.js&#45;&gt;src/extract/transpile/meta.js -->
<g id="edge26" class="edge">
<title>src/main/resolve&#45;options/normalize.js&#45;&gt;src/extract/transpile/meta.js</title>
<path fill="none" stroke="#000000" stroke-width="2" stroke-opacity="0.200000" d="M384.18,-538C390.92,-538 396,-538 396,-538 396,-538 396,-70 396,-70 396,-70 454.05,-70 454.05,-70"/>
<polygon fill="#000000" fill-opacity="0.200000" stroke="#000000" stroke-width="2" stroke-opacity="0.200000" points="454.05,-72.1 460.05,-70 454.05,-67.9 454.05,-72.1"/>
</g>
<!-- src/graph&#45;utl/rule&#45;set.js -->
<g id="node14" class="node">
<title>src/graph&#45;utl/rule&#45;set.js</title>
<g id="a_node14"><a xlink:href="src/graph-utl/rule-set.js" xlink:title="rule&#45;set.js">
<path fill="#ffffcc" stroke="black" d="M509.5,-662C509.5,-662 465.5,-662 465.5,-662 462.5,-662 459.5,-659 459.5,-656 459.5,-656 459.5,-650 459.5,-650 459.5,-647 462.5,-644 465.5,-644 465.5,-644 509.5,-644 509.5,-644 512.5,-644 515.5,-647 515.5,-650 515.5,-650 515.5,-656 515.5,-656 515.5,-659 512.5,-662 509.5,-662"/>
<text text-anchor="middle" x="487.5" y="-650.8" font-family="Helvetica,sans-Serif" font-size="9.00">rule&#45;set.js</text>
</a>
</g>
</g>
<!-- src/main/resolve&#45;options/normalize.js&#45;&gt;src/graph&#45;utl/rule&#45;set.js -->
<g id="edge27" class="edge">
<title>src/main/resolve&#45;options/normalize.js&#45;&gt;src/graph&#45;utl/rule&#45;set.js</title>
<path fill="none" stroke="#000000" stroke-width="2" stroke-opacity="0.200000" d="M384.16,-544C424.71,-544 488,-544 488,-544 488,-544 488,-637.71 488,-637.71"/>
<polygon fill="#000000" fill-opacity="0.200000" stroke="#000000" stroke-width="2" stroke-opacity="0.200000" points="485.9,-637.71 488,-643.71 490.1,-637.71 485.9,-637.71"/>
</g>
<!-- src/enrich/summarize/summarize&#45;modules.js -->
<g id="node8" class="node">
<title>src/enrich/summarize/summarize&#45;modules.js</title>
<g id="a_node8"><a xlink:href="src/enrich/summarize/summarize-modules.js" xlink:title="summarize&#45;modules.js">
<path fill="#ffffcc" stroke="black" d="M536,-196C536,-196 439,-196 439,-196 436,-196 433,-193 433,-190 433,-190 433,-184 433,-184 433,-181 436,-178 439,-178 439,-178 536,-178 536,-178 539,-178 542,-181 542,-184 542,-184 542,-190 542,-190 542,-193 539,-196 536,-196"/>
<text text-anchor="middle" x="487.5" y="-184.8" font-family="Helvetica,sans-Serif" font-size="9.00">summarize&#45;modules.js</text>
</a>
</g>
</g>
<!-- src/graph&#45;utl/compare.js -->
<g id="node11" class="node">
<title>src/graph&#45;utl/compare.js</title>
<g id="a_node11"><a xlink:href="src/graph-utl/compare.js" xlink:title="compare.js">
<path fill="#ffffcc" stroke="black" d="M512.5,-752C512.5,-752 462.5,-752 462.5,-752 459.5,-752 456.5,-749 456.5,-746 456.5,-746 456.5,-740 456.5,-740 456.5,-737 459.5,-734 462.5,-734 462.5,-734 512.5,-734 512.5,-734 515.5,-734 518.5,-737 518.5,-740 518.5,-740 518.5,-746 518.5,-746 518.5,-749 515.5,-752 512.5,-752"/>
<text text-anchor="middle" x="487.5" y="-740.8" font-family="Helvetica,sans-Serif" font-size="9.00">compare.js</text>
</a>
</g>
</g>
<!-- src/graph&#45;utl/consolidate&#45;to&#45;pattern.js -->
<g id="node12" class="node">
<title>src/graph&#45;utl/consolidate&#45;to&#45;pattern.js</title>
<g id="a_node12"><a xlink:href="src/graph-utl/consolidate-to-pattern.js" xlink:title="consolidate&#45;to&#45;pattern.js">
<path fill="#ffffcc" stroke="black" d="M539,-722C539,-722 436,-722 436,-722 433,-722 430,-719 430,-716 430,-716 430,-710 430,-710 430,-707 433,-704 436,-704 436,-704 539,-704 539,-704 542,-704 545,-707 545,-710 545,-710 545,-716 545,-716 545,-719 542,-722 539,-722"/>
<text text-anchor="middle" x="487.5" y="-710.8" font-family="Helvetica,sans-Serif" font-size="9.00">consolidate&#45;to&#45;pattern.js</text>
</a>
</g>
</g>
<!-- src/graph&#45;utl/filterbank.js -->
<g id="node13" class="node">
<title>src/graph&#45;utl/filterbank.js</title>
<g id="a_node13"><a xlink:href="src/graph-utl/filterbank.js" xlink:title="filterbank.js">
<path fill="#ffffcc" stroke="black" d="M513,-692C513,-692 462,-692 462,-692 459,-692 456,-689 456,-686 456,-686 456,-680 456,-680 456,-677 459,-674 462,-674 462,-674 513,-674 513,-674 516,-674 519,-677 519,-680 519,-680 519,-686 519,-686 519,-689 516,-692 513,-692"/>
<text text-anchor="middle" x="487.5" y="-680.8" font-family="Helvetica,sans-Serif" font-size="9.00">filterbank.js</text>
</a>
</g>
</g>
<!-- src/graph&#45;utl/strip&#45;self&#45;transitions.js -->
<g id="node15" class="node">
<title>src/graph&#45;utl/strip&#45;self&#45;transitions.js</title>
<g id="a_node15"><a xlink:href="src/graph-utl/strip-self-transitions.js" xlink:title="strip&#45;self&#45;transitions.js">
<path fill="#ffffcc" stroke="black" d="M534,-782C534,-782 441,-782 441,-782 438,-782 435,-779 435,-776 435,-776 435,-770 435,-770 435,-767 438,-764 441,-764 441,-764 534,-764 534,-764 537,-764 540,-767 540,-770 540,-770 540,-776 540,-776 540,-779 537,-782 534,-782"/>
<text text-anchor="middle" x="487.5" y="-770.8" font-family="Helvetica,sans-Serif" font-size="9.00">strip&#45;self&#45;transitions.js</text>
</a>
</g>
</g>
<!-- src/main/options/defaults.json -->
<g id="node24" class="node">
<title>src/main/options/defaults.json</title>
<g id="a_node24"><a xlink:href="src/main/options/defaults.json" xlink:title="defaults.json">
<path fill="#ffee44" stroke="black" d="M663,-420C663,-420 607,-420 607,-420 604,-420 601,-417 601,-414 601,-414 601,-408 601,-408 601,-405 604,-402 607,-402 607,-402 663,-402 663,-402 666,-402 669,-405 669,-408 669,-408 669,-414 669,-414 669,-417 666,-420 663,-420"/>
<text text-anchor="middle" x="635" y="-408.8" font-family="Helvetica,sans-Serif" font-size="9.00">defaults.json</text>
</a>
</g>
</g>
<!-- src/main/options/normalize.js&#45;&gt;src/main/options/defaults.json -->
<g id="edge18" class="edge">
<title>src/main/options/normalize.js&#45;&gt;src/main/options/defaults.json</title>
<path fill="none" stroke="#000000" stroke-width="2" stroke-opacity="0.200000" d="M520.6,-408C520.6,-408 594.99,-408 594.99,-408"/>
<polygon fill="#000000" fill-opacity="0.200000" stroke="#000000" stroke-width="2" stroke-opacity="0.200000" points="594.99,-410.1 600.99,-408 594.99,-405.9 594.99,-410.1"/>
</g>
<!-- src/main/utl/normalize&#45;re&#45;properties.js -->
<g id="node25" class="node">
<title>src/main/utl/normalize&#45;re&#45;properties.js</title>
<g id="a_node25"><a xlink:href="src/main/utl/normalize-re-properties.js" xlink:title="normalize&#45;re&#45;properties.js">
<path fill="#ffffcc" stroke="black" d="M690,-480C690,-480 580,-480 580,-480 577,-480 574,-477 574,-474 574,-474 574,-468 574,-468 574,-465 577,-462 580,-462 580,-462 690,-462 690,-462 693,-462 696,-465 696,-468 696,-468 696,-474 696,-474 696,-477 693,-480 690,-480"/>
<text text-anchor="middle" x="635" y="-468.8" font-family="Helvetica,sans-Serif" font-size="9.00">normalize&#45;re&#45;properties.js</text>
</a>
</g>
</g>
<!-- src/main/options/normalize.js&#45;&gt;src/main/utl/normalize&#45;re&#45;properties.js -->
<g id="edge17" class="edge">
<title>src/main/options/normalize.js&#45;&gt;src/main/utl/normalize&#45;re&#45;properties.js</title>
<path fill="none" stroke="#000000" stroke-width="2" stroke-opacity="0.200000" d="M520.69,-414C549.96,-414 588,-414 588,-414 588,-414 588,-455.84 588,-455.84"/>
<polygon fill="#000000" fill-opacity="0.200000" stroke="#000000" stroke-width="2" stroke-opacity="0.200000" points="585.9,-455.84 588,-461.84 590.1,-455.84 585.9,-455.84"/>
</g>
<!-- src/report/index.js -->
<g id="node26" class="node">
<title>src/report/index.js</title>
<g id="a_node26"><a xlink:href="src/report/index.js" xlink:title="index.js">
<path fill="#ffffcc" stroke="black" d="M656,-727C656,-727 614,-727 614,-727 611,-727 608,-724 608,-721 608,-721 608,-715 608,-715 608,-712 611,-709 614,-709 614,-709 656,-709 656,-709 659,-709 662,-712 662,-715 662,-715 662,-721 662,-721 662,-724 659,-727 656,-727"/>
<text text-anchor="middle" x="635" y="-715.8" font-family="Helvetica,sans-Serif" font-size="9.00">index.js</text>
</a>
</g>
</g>
<!-- src/main/options/validate.js&#45;&gt;src/report/index.js -->
<g id="edge19" class="edge">
<title>src/main/options/validate.js&#45;&gt;src/report/index.js</title>
<path fill="none" stroke="#000000" stroke-width="2" stroke-opacity="0.200000" d="M516.52,-381C537.44,-381 562,-381 562,-381 562,-381 562,-715.5 562,-715.5 562,-715.5 601.82,-715.5 601.82,-715.5"/>
<polygon fill="#000000" fill-opacity="0.200000" stroke="#000000" stroke-width="2" stroke-opacity="0.200000" points="601.82,-717.6 607.82,-715.5 601.82,-713.4 601.82,-717.6"/>
</g>
<!-- src/main/report&#45;wrap.js&#45;&gt;src/enrich/summarize/summarize&#45;modules.js -->
<g id="edge20" class="edge">
<title>src/main/report&#45;wrap.js&#45;&gt;src/enrich/summarize/summarize&#45;modules.js</title>
<path fill="none" stroke="#000000" stroke-width="2" stroke-opacity="0.200000" d="M387.68,-588.5C396.28,-588.5 403,-588.5 403,-588.5 403,-588.5 403,-187 403,-187 403,-187 426.55,-187 426.55,-187"/>
<polygon fill="#000000" fill-opacity="0.200000" stroke="#000000" stroke-width="2" stroke-opacity="0.200000" points="426.55,-189.1 432.55,-187 426.55,-184.9 426.55,-189.1"/>
</g>
<!-- src/main/report&#45;wrap.js&#45;&gt;src/graph&#45;utl/compare.js -->
<g id="edge21" class="edge">
<title>src/main/report&#45;wrap.js&#45;&gt;src/graph&#45;utl/compare.js</title>
<path fill="none" stroke="#000000" stroke-width="2" stroke-opacity="0.200000" d="M351,-602.38C351,-635.22 351,-743 351,-743 351,-743 450.18,-743 450.18,-743"/>
<polygon fill="#000000" fill-opacity="0.200000" stroke="#000000" stroke-width="2" stroke-opacity="0.200000" points="450.18,-745.1 456.18,-743 450.18,-740.9 450.18,-745.1"/>
</g>
<!-- src/main/report&#45;wrap.js&#45;&gt;src/graph&#45;utl/consolidate&#45;to&#45;pattern.js -->
<g id="edge22" class="edge">
<title>src/main/report&#45;wrap.js&#45;&gt;src/graph&#45;utl/consolidate&#45;to&#45;pattern.js</title>
<path fill="none" stroke="#000000" stroke-width="2" stroke-opacity="0.200000" d="M387.56,-597.5C411.73,-597.5 439,-597.5 439,-597.5 439,-597.5 439,-697.94 439,-697.94"/>
<polygon fill="#000000" fill-opacity="0.200000" stroke="#000000" stroke-width="2" stroke-opacity="0.200000" points="436.9,-697.94 439,-703.94 441.1,-697.94 436.9,-697.94"/>
</g>
<!-- src/main/report&#45;wrap.js&#45;&gt;src/graph&#45;utl/filterbank.js -->
<g id="edge23" class="edge">
<title>src/main/report&#45;wrap.js&#45;&gt;src/graph&#45;utl/filterbank.js</title>
<path fill="none" stroke="#000000" stroke-width="2" stroke-opacity="0.200000" d="M370,-602.29C370,-625.29 370,-683 370,-683 370,-683 449.7,-683 449.7,-683"/>
<polygon fill="#000000" fill-opacity="0.200000" stroke="#000000" stroke-width="2" stroke-opacity="0.200000" points="449.7,-685.1 455.7,-683 449.7,-680.9 449.7,-685.1"/>
</g>
<!-- src/main/report&#45;wrap.js&#45;&gt;src/graph&#45;utl/strip&#45;self&#45;transitions.js -->
<g id="edge24" class="edge">
<title>src/main/report&#45;wrap.js&#45;&gt;src/graph&#45;utl/strip&#45;self&#45;transitions.js</title>
<path fill="none" stroke="#000000" stroke-width="2" stroke-opacity="0.200000" d="M333,-602.17C333,-638.85 333,-773 333,-773 333,-773 428.76,-773 428.76,-773"/>
<polygon fill="#000000" fill-opacity="0.200000" stroke="#000000" stroke-width="2" stroke-opacity="0.200000" points="428.76,-775.1 434.76,-773 428.76,-770.9 428.76,-775.1"/>
</g>
<!-- src/main/report&#45;wrap.js&#45;&gt;src/report/index.js -->
<g id="edge25" class="edge">
<title>src/main/report&#45;wrap.js&#45;&gt;src/report/index.js</title>
<path fill="none" stroke="#000000" stroke-width="2" stroke-opacity="0.200000" d="M387.55,-593C464.25,-593 635,-593 635,-593 635,-593 635,-702.6 635,-702.6"/>
<polygon fill="#000000" fill-opacity="0.200000" stroke="#000000" stroke-width="2" stroke-opacity="0.200000" points="632.9,-702.6 635,-708.6 637.1,-702.6 632.9,-702.6"/>
</g>
<!-- src/main/rule&#45;set/normalize.js&#45;&gt;src/main/utl/normalize&#45;re&#45;properties.js -->
<g id="edge28" class="edge">
<title>src/main/rule&#45;set/normalize.js&#45;&gt;src/main/utl/normalize&#45;re&#45;properties.js</title>
<path fill="none" stroke="#000000" stroke-width="2" stroke-opacity="0.200000" d="M384.16,-414C398.04,-414 411,-414 411,-414 411,-414 411,-471 411,-471 411,-471 567.79,-471 567.79,-471"/>
<polygon fill="#000000" fill-opacity="0.200000" stroke="#000000" stroke-width="2" stroke-opacity="0.200000" points="567.79,-473.1 573.79,-471 567.79,-468.9 567.79,-473.1"/>
</g>
<!-- src/main/rule&#45;set/validate.js&#45;&gt;src/main/options/validate.js -->
<g id="edge30" class="edge">
<title>src/main/rule&#45;set/validate.js&#45;&gt;src/main/options/validate.js</title>
<path fill="none" stroke="#000000" stroke-width="2" stroke-opacity="0.200000" d="M380.28,-384C380.28,-384 452.27,-384 452.27,-384"/>
<polygon fill="#000000" fill-opacity="0.200000" stroke="#000000" stroke-width="2" stroke-opacity="0.200000" points="452.27,-386.1 458.27,-384 452.27,-381.9 452.27,-386.1"/>
</g>
<!-- src/schema/configuration.schema.json -->
<g id="node27" class="node">
<title>src/schema/configuration.schema.json</title>
<g id="a_node27"><a xlink:href="src/schema/configuration.schema.json" xlink:title="configuration.schema.json">
<path fill="#ffee44" stroke="black" d="M543.5,-312C543.5,-312 431.5,-312 431.5,-312 428.5,-312 425.5,-309 425.5,-306 425.5,-306 425.5,-300 425.5,-300 425.5,-297 428.5,-294 431.5,-294 431.5,-294 543.5,-294 543.5,-294 546.5,-294 549.5,-297 549.5,-300 549.5,-300 549.5,-306 549.5,-306 549.5,-309 546.5,-312 543.5,-312"/>
<text text-anchor="middle" x="487.5" y="-300.8" font-family="Helvetica,sans-Serif" font-size="9.00">configuration.schema.json</text>
</a>
</g>
</g>
<!-- src/main/rule&#45;set/validate.js&#45;&gt;src/schema/configuration.schema.json -->
<g id="edge29" class="edge">
<title>src/main/rule&#45;set/validate.js&#45;&gt;src/schema/configuration.schema.json</title>
<path fill="none" stroke="#000000" stroke-width="2" stroke-opacity="0.200000" d="M380.06,-378C408.32,-378 447,-378 447,-378 447,-378 447,-318.2 447,-318.2"/>
<polygon fill="#000000" fill-opacity="0.200000" stroke="#000000" stroke-width="2" stroke-opacity="0.200000" points="449.1,-318.2 447,-312.2 444.9,-318.2 449.1,-318.2"/>
</g>
</g>
</svg>
