<?xml version="1.0" encoding="UTF-8" standalone="no"?>
<!DOCTYPE svg PUBLIC "-//W3C//DTD SVG 1.1//EN"
 "http://www.w3.org/Graphics/SVG/1.1/DTD/svg11.dtd">
<!-- Generated by graphviz version 12.0.0 (20240704.0754)
 -->
<!-- Title: dependency&#45;cruiser output Pages: 1 -->
<svg width="954pt" height="718pt"
 viewBox="0.00 0.00 953.62 718.00" xmlns="http://www.w3.org/2000/svg" xmlns:xlink="http://www.w3.org/1999/xlink">
<g id="graph0" class="graph" transform="scale(1 1) rotate(0) translate(4 714)">
<title>dependency&#45;cruiser output</title>
<polygon fill="white" stroke="none" points="-4,4 -4,-714 949.62,-714 949.62,4 -4,4"/>
<g id="clust1" class="cluster">
<title>cluster_src</title>
<path fill="#ffffff" stroke="black" stroke-width="2" d="M20,-8C20,-8 925.62,-8 925.62,-8 931.62,-8 937.62,-14 937.62,-20 937.62,-20 937.62,-690 937.62,-690 937.62,-696 931.62,-702 925.62,-702 925.62,-702 20,-702 20,-702 14,-702 8,-696 8,-690 8,-690 8,-20 8,-20 8,-14 14,-8 20,-8"/>
<text text-anchor="middle" x="472.81" y="-689.45" font-family="Helvetica,sans-Serif" font-weight="bold" font-size="9.00">src</text>
</g>
<g id="clust2" class="cluster">
<title>cluster_src/cache</title>
<path fill="#ffffff" stroke="black" stroke-width="2" d="M470.75,-530C470.75,-530 520,-530 520,-530 526,-530 532,-536 532,-542 532,-542 532,-570 532,-570 532,-576 526,-582 520,-582 520,-582 470.75,-582 470.75,-582 464.75,-582 458.75,-576 458.75,-570 458.75,-570 458.75,-542 458.75,-542 458.75,-536 464.75,-530 470.75,-530"/>
<text text-anchor="middle" x="495.38" y="-569.45" font-family="Helvetica,sans-Serif" font-weight="bold" font-size="9.00">cache</text>
</g>
<g id="clust3" class="cluster">
<title>cluster_src/cli</title>
<path fill="#ffffff" stroke="black" stroke-width="2" d="M28,-376C28,-376 190.25,-376 190.25,-376 196.25,-376 202.25,-382 202.25,-388 202.25,-388 202.25,-446 202.25,-446 202.25,-452 196.25,-458 190.25,-458 190.25,-458 28,-458 28,-458 22,-458 16,-452 16,-446 16,-446 16,-388 16,-388 16,-382 22,-376 28,-376"/>
<text text-anchor="middle" x="109.12" y="-445.45" font-family="Helvetica,sans-Serif" font-weight="bold" font-size="9.00">cli</text>
</g>
<g id="clust4" class="cluster">
<title>cluster_src/config&#45;utl</title>
<path fill="#ffffff" stroke="black" stroke-width="2" d="M301.25,-124C301.25,-124 415,-124 415,-124 421,-124 427,-130 427,-136 427,-136 427,-198 427,-198 427,-204 421,-210 415,-210 415,-210 301.25,-210 301.25,-210 295.25,-210 289.25,-204 289.25,-198 289.25,-198 289.25,-136 289.25,-136 289.25,-130 295.25,-124 301.25,-124"/>
<text text-anchor="middle" x="358.12" y="-197.45" font-family="Helvetica,sans-Serif" font-weight="bold" font-size="9.00">config&#45;utl</text>
</g>
<g id="clust5" class="cluster">
<title>cluster_src/config&#45;utl/extract&#45;depcruise&#45;config</title>
<path fill="#ffffff" stroke="black" stroke-width="2" d="M309.25,-132C309.25,-132 407,-132 407,-132 413,-132 419,-138 419,-144 419,-144 419,-172 419,-172 419,-178 413,-184 407,-184 407,-184 309.25,-184 309.25,-184 303.25,-184 297.25,-178 297.25,-172 297.25,-172 297.25,-144 297.25,-144 297.25,-138 303.25,-132 309.25,-132"/>
<text text-anchor="middle" x="358.12" y="-171.45" font-family="Helvetica,sans-Serif" font-weight="bold" font-size="9.00">extract&#45;depcruise&#45;config</text>
</g>
<g id="clust6" class="cluster">
<title>cluster_src/enrich</title>
<path fill="#ffffff" stroke="black" stroke-width="2" d="M600.38,-26C600.38,-26 767,-26 767,-26 773,-26 779,-32 779,-38 779,-38 779,-100 779,-100 779,-106 773,-112 767,-112 767,-112 600.38,-112 600.38,-112 594.38,-112 588.38,-106 588.38,-100 588.38,-100 588.38,-38 588.38,-38 588.38,-32 594.38,-26 600.38,-26"/>
<text text-anchor="middle" x="683.69" y="-99.45" font-family="Helvetica,sans-Serif" font-weight="bold" font-size="9.00">enrich</text>
</g>
<g id="clust7" class="cluster">
<title>cluster_src/enrich/summarize</title>
<path fill="#ffffff" stroke="black" stroke-width="2" d="M712,-34C712,-34 759,-34 759,-34 765,-34 771,-40 771,-46 771,-46 771,-74 771,-74 771,-80 765,-86 759,-86 759,-86 712,-86 712,-86 706,-86 700,-80 700,-74 700,-74 700,-46 700,-46 700,-40 706,-34 712,-34"/>
<text text-anchor="middle" x="735.5" y="-73.45" font-family="Helvetica,sans-Serif" font-weight="bold" font-size="9.00">summarize</text>
</g>
<g id="clust8" class="cluster">
<title>cluster_src/extract</title>
<path fill="#ffffff" stroke="black" stroke-width="2" d="M592.88,-540C592.88,-540 654.88,-540 654.88,-540 660.88,-540 666.88,-546 666.88,-552 666.88,-552 666.88,-640 666.88,-640 666.88,-646 660.88,-652 654.88,-652 654.88,-652 592.88,-652 592.88,-652 586.88,-652 580.88,-646 580.88,-640 580.88,-640 580.88,-552 580.88,-552 580.88,-546 586.88,-540 592.88,-540"/>
<text text-anchor="middle" x="623.88" y="-639.45" font-family="Helvetica,sans-Serif" font-weight="bold" font-size="9.00">extract</text>
</g>
<g id="clust9" class="cluster">
<title>cluster_src/extract/transpile</title>
<path fill="#ffffff" stroke="black" stroke-width="2" d="M600.88,-548C600.88,-548 646.88,-548 646.88,-548 652.88,-548 658.88,-554 658.88,-560 658.88,-560 658.88,-588 658.88,-588 658.88,-594 652.88,-600 646.88,-600 646.88,-600 600.88,-600 600.88,-600 594.88,-600 588.88,-594 588.88,-588 588.88,-588 588.88,-560 588.88,-560 588.88,-554 594.88,-548 600.88,-548"/>
<text text-anchor="middle" x="623.88" y="-587.45" font-family="Helvetica,sans-Serif" font-weight="bold" font-size="9.00">transpile</text>
</g>
<g id="clust10" class="cluster">
<title>cluster_src/graph&#45;utl</title>
<path fill="#ffffff" stroke="black" stroke-width="2" d="M803.88,-22C803.88,-22 917.62,-22 917.62,-22 923.62,-22 929.62,-28 929.62,-34 929.62,-34 929.62,-182 929.62,-182 929.62,-188 923.62,-194 917.62,-194 917.62,-194 803.88,-194 803.88,-194 797.88,-194 791.88,-188 791.88,-182 791.88,-182 791.88,-34 791.88,-34 791.88,-28 797.88,-22 803.88,-22"/>
<text text-anchor="middle" x="860.75" y="-181.45" font-family="Helvetica,sans-Serif" font-weight="bold" font-size="9.00">graph&#45;utl</text>
</g>
<g id="clust11" class="cluster">
<title>cluster_src/main</title>
<path fill="#ffffff" stroke="black" stroke-width="2" d="M222.25,-218C222.25,-218 771.88,-218 771.88,-218 777.88,-218 783.88,-224 783.88,-230 783.88,-230 783.88,-510 783.88,-510 783.88,-516 777.88,-522 771.88,-522 771.88,-522 222.25,-522 222.25,-522 216.25,-522 210.25,-516 210.25,-510 210.25,-510 210.25,-230 210.25,-230 210.25,-224 216.25,-218 222.25,-218"/>
<text text-anchor="middle" x="497.06" y="-509.45" font-family="Helvetica,sans-Serif" font-weight="bold" font-size="9.00">main</text>
</g>
<g id="clust12" class="cluster">
<title>cluster_src/main/files&#45;and&#45;dirs</title>
<path fill="#ffffff" stroke="black" stroke-width="2" d="M462.88,-354C462.88,-354 527.88,-354 527.88,-354 533.88,-354 539.88,-360 539.88,-366 539.88,-366 539.88,-394 539.88,-394 539.88,-400 533.88,-406 527.88,-406 527.88,-406 462.88,-406 462.88,-406 456.88,-406 450.88,-400 450.88,-394 450.88,-394 450.88,-366 450.88,-366 450.88,-360 456.88,-354 462.88,-354"/>
<text text-anchor="middle" x="495.38" y="-393.45" font-family="Helvetica,sans-Serif" font-weight="bold" font-size="9.00">files&#45;and&#45;dirs</text>
</g>
<g id="clust13" class="cluster">
<title>cluster_src/main/options</title>
<path fill="#ffffff" stroke="black" stroke-width="2" d="M583.5,-306C583.5,-306 763.88,-306 763.88,-306 769.88,-306 775.88,-312 775.88,-318 775.88,-318 775.88,-376 775.88,-376 775.88,-382 769.88,-388 763.88,-388 763.88,-388 583.5,-388 583.5,-388 577.5,-388 571.5,-382 571.5,-376 571.5,-376 571.5,-318 571.5,-318 571.5,-312 577.5,-306 583.5,-306"/>
<text text-anchor="middle" x="673.69" y="-375.45" font-family="Helvetica,sans-Serif" font-weight="bold" font-size="9.00">options</text>
</g>
<g id="clust14" class="cluster">
<title>cluster_src/main/resolve&#45;options</title>
<path fill="#ffffff" stroke="black" stroke-width="2" d="M462.88,-226C462.88,-226 527.88,-226 527.88,-226 533.88,-226 539.88,-232 539.88,-238 539.88,-238 539.88,-266 539.88,-266 539.88,-272 533.88,-278 527.88,-278 527.88,-278 462.88,-278 462.88,-278 456.88,-278 450.88,-272 450.88,-266 450.88,-266 450.88,-238 450.88,-238 450.88,-232 456.88,-226 462.88,-226"/>
<text text-anchor="middle" x="495.38" y="-265.45" font-family="Helvetica,sans-Serif" font-weight="bold" font-size="9.00">resolve&#45;options</text>
</g>
<g id="clust15" class="cluster">
<title>cluster_src/main/rule&#45;set</title>
<path fill="#ffffff" stroke="black" stroke-width="2" d="M455,-414C455,-414 535.75,-414 535.75,-414 541.75,-414 547.75,-420 547.75,-426 547.75,-426 547.75,-484 547.75,-484 547.75,-490 541.75,-496 535.75,-496 535.75,-496 455,-496 455,-496 449,-496 443,-490 443,-484 443,-484 443,-426 443,-426 443,-420 449,-414 455,-414"/>
<text text-anchor="middle" x="495.38" y="-483.45" font-family="Helvetica,sans-Serif" font-weight="bold" font-size="9.00">rule&#45;set</text>
</g>
<g id="clust16" class="cluster">
<title>cluster_src/report</title>
<path fill="#ffffff" stroke="black" stroke-width="2" d="M712,-158C712,-158 759,-158 759,-158 765,-158 771,-164 771,-170 771,-170 771,-198 771,-198 771,-204 765,-210 759,-210 759,-210 712,-210 712,-210 706,-210 700,-204 700,-198 700,-198 700,-170 700,-170 700,-164 706,-158 712,-158"/>
<text text-anchor="middle" x="735.5" y="-197.45" font-family="Helvetica,sans-Serif" font-weight="bold" font-size="9.00">report</text>
</g>
<g id="clust17" class="cluster">
<title>cluster_src/schema</title>
<path fill="#ffffff" stroke="black" stroke-width="2" d="M567.75,-128C567.75,-128 680,-128 680,-128 686,-128 692,-134 692,-140 692,-140 692,-198 692,-198 692,-204 686,-210 680,-210 680,-210 567.75,-210 567.75,-210 561.75,-210 555.75,-204 555.75,-198 555.75,-198 555.75,-140 555.75,-140 555.75,-134 561.75,-128 567.75,-128"/>
<text text-anchor="middle" x="623.88" y="-197.45" font-family="Helvetica,sans-Serif" font-weight="bold" font-size="9.00">schema</text>
</g>
<g id="clust18" class="cluster">
<title>cluster_src/utl</title>
<path fill="#ffffff" stroke="black" stroke-width="2" d="M828.62,-442C828.62,-442 892.88,-442 892.88,-442 898.88,-442 904.88,-448 904.88,-454 904.88,-454 904.88,-542 904.88,-542 904.88,-548 898.88,-554 892.88,-554 892.88,-554 828.62,-554 828.62,-554 822.62,-554 816.62,-548 816.62,-542 816.62,-542 816.62,-454 816.62,-454 816.62,-448 822.62,-442 828.62,-442"/>
<text text-anchor="middle" x="860.75" y="-541.45" font-family="Helvetica,sans-Serif" font-weight="bold" font-size="9.00">utl</text>
</g>
<!-- src/cache/cache.mjs -->
<g id="node1" class="node">
<title>src/cache/cache.mjs</title>
<g id="a_node1"><a xlink:href="src/cache/cache.mjs" xlink:title="cache.mjs">
<path fill="#ffffcc" stroke="black" d="M518.08,-555.88C518.08,-555.88 472.67,-555.88 472.67,-555.88 469.71,-555.88 466.75,-552.92 466.75,-549.96 466.75,-549.96 466.75,-544.04 466.75,-544.04 466.75,-541.08 469.71,-538.12 472.67,-538.12 472.67,-538.12 518.08,-538.12 518.08,-538.12 521.04,-538.12 524,-541.08 524,-544.04 524,-544.04 524,-549.96 524,-549.96 524,-552.92 521.04,-555.88 518.08,-555.88"/>
<text text-anchor="start" x="474.75" y="-543.33" font-family="Helvetica,sans-Serif" font-size="9.00">cache.mjs</text>
</a>
</g>
</g>
<!-- src/extract/transpile/meta.mjs -->
<g id="node2" class="node">
<title>src/extract/transpile/meta.mjs</title>
<g id="a_node2"><a xlink:href="src/extract/transpile/meta.mjs" xlink:title="meta.mjs">
<path fill="#ffffcc" stroke="black" d="M644.96,-573.88C644.96,-573.88 602.79,-573.88 602.79,-573.88 599.83,-573.88 596.88,-570.92 596.88,-567.96 596.88,-567.96 596.88,-562.04 596.88,-562.04 596.88,-559.08 599.83,-556.12 602.79,-556.12 602.79,-556.12 644.96,-556.12 644.96,-556.12 647.92,-556.12 650.88,-559.08 650.88,-562.04 650.88,-562.04 650.88,-567.96 650.88,-567.96 650.88,-570.92 647.92,-573.88 644.96,-573.88"/>
<text text-anchor="start" x="605.5" y="-561.33" font-family="Helvetica,sans-Serif" font-size="9.00">meta.mjs</text>
</a>
</g>
</g>
<!-- src/cache/cache.mjs&#45;&gt;src/extract/transpile/meta.mjs -->
<g id="edge1" class="edge">
<title>src/cache/cache.mjs&#45;&gt;src/extract/transpile/meta.mjs</title>
<path fill="none" stroke="#000000" stroke-width="2" stroke-opacity="0.200000" d="M524.3,-549.96C559.67,-549.96 614.88,-549.96 614.88,-549.96 614.88,-549.96 614.88,-550.54 614.88,-550.54"/>
<polygon fill="#000000" fill-opacity="0.200000" stroke="#000000" stroke-width="2" stroke-opacity="0.200000" points="612.78,-546.7 614.88,-552.7 616.98,-546.7 612.78,-546.7"/>
</g>
<!-- src/utl/bus.mjs -->
<g id="node3" class="node">
<title>src/utl/bus.mjs</title>
<g id="a_node3"><a xlink:href="src/utl/bus.mjs" xlink:title="bus.mjs">
<path fill="#ffffcc" stroke="black" d="M881.83,-527.88C881.83,-527.88 839.67,-527.88 839.67,-527.88 836.71,-527.88 833.75,-524.92 833.75,-521.96 833.75,-521.96 833.75,-516.04 833.75,-516.04 833.75,-513.08 836.71,-510.12 839.67,-510.12 839.67,-510.12 881.83,-510.12 881.83,-510.12 884.79,-510.12 887.75,-513.08 887.75,-516.04 887.75,-516.04 887.75,-521.96 887.75,-521.96 887.75,-524.92 884.79,-527.88 881.83,-527.88"/>
<text text-anchor="start" x="845" y="-515.33" font-family="Helvetica,sans-Serif" font-size="9.00">bus.mjs</text>
</a>
</g>
</g>
<!-- src/cache/cache.mjs&#45;&gt;src/utl/bus.mjs -->
<g id="edge2" class="edge">
<title>src/cache/cache.mjs&#45;&gt;src/utl/bus.mjs</title>
<path fill="none" stroke="#000000" stroke-width="2" stroke-opacity="0.200000" d="M524.24,-544.04C609.08,-544.04 851.75,-544.04 851.75,-544.04 851.75,-544.04 851.75,-537.35 851.75,-537.35"/>
<polygon fill="#000000" fill-opacity="0.200000" stroke="#000000" stroke-width="2" stroke-opacity="0.200000" points="853.85,-537.35 851.75,-531.35 849.65,-537.35 853.85,-537.35"/>
</g>
<!-- src/cli/format&#45;meta&#45;info.mjs -->
<g id="node4" class="node">
<title>src/cli/format&#45;meta&#45;info.mjs</title>
<g id="a_node4"><a xlink:href="src/cli/format-meta-info.mjs" xlink:title="format&#45;meta&#45;info.mjs">
<path fill="#ffffcc" stroke="black" d="M188.33,-431.88C188.33,-431.88 100.92,-431.88 100.92,-431.88 97.96,-431.88 95,-428.92 95,-425.96 95,-425.96 95,-420.04 95,-420.04 95,-417.08 97.96,-414.12 100.92,-414.12 100.92,-414.12 188.33,-414.12 188.33,-414.12 191.29,-414.12 194.25,-417.08 194.25,-420.04 194.25,-420.04 194.25,-425.96 194.25,-425.96 194.25,-428.92 191.29,-431.88 188.33,-431.88"/>
<text text-anchor="start" x="103" y="-419.32" font-family="Helvetica,sans-Serif" font-size="9.00">format&#45;meta&#45;info.mjs</text>
</a>
</g>
</g>
<!-- src/main/index.mjs -->
<g id="node5" class="node">
<title>src/main/index.mjs</title>
<g id="a_node5"><a xlink:href="src/main/index.mjs" xlink:title="index.mjs">
<path fill="#ffffcc" stroke="black" d="M267.33,-431.88C267.33,-431.88 224.17,-431.88 224.17,-431.88 221.21,-431.88 218.25,-428.92 218.25,-425.96 218.25,-425.96 218.25,-420.04 218.25,-420.04 218.25,-417.08 221.21,-414.12 224.17,-414.12 224.17,-414.12 267.33,-414.12 267.33,-414.12 270.29,-414.12 273.25,-417.08 273.25,-420.04 273.25,-420.04 273.25,-425.96 273.25,-425.96 273.25,-428.92 270.29,-431.88 267.33,-431.88"/>
<text text-anchor="start" x="226.25" y="-419.32" font-family="Helvetica,sans-Serif" font-size="9.00">index.mjs</text>
</a>
</g>
</g>
<!-- src/cli/format&#45;meta&#45;info.mjs&#45;&gt;src/main/index.mjs -->
<g id="edge3" class="edge">
<title>src/cli/format&#45;meta&#45;info.mjs&#45;&gt;src/main/index.mjs</title>
<path fill="none" stroke="#000000" stroke-width="2" stroke-opacity="0.200000" d="M194.59,-423C194.59,-423 208.99,-423 208.99,-423"/>
<polygon fill="#000000" fill-opacity="0.200000" stroke="#000000" stroke-width="2" stroke-opacity="0.200000" points="208.99,-425.1 214.99,-423 208.99,-420.9 208.99,-425.1"/>
</g>
<!-- src/main/index.mjs&#45;&gt;src/extract/transpile/meta.mjs -->
<g id="edge31" class="edge">
<title>src/main/index.mjs&#45;&gt;src/extract/transpile/meta.mjs</title>
<path fill="none" stroke="#000000" stroke-width="2" stroke-opacity="0.200000" d="M273.59,-418.12C362.36,-418.12 632.88,-418.12 632.88,-418.12 632.88,-418.12 632.88,-546.79 632.88,-546.79"/>
<polygon fill="#000000" fill-opacity="0.200000" stroke="#000000" stroke-width="2" stroke-opacity="0.200000" points="630.78,-546.79 632.88,-552.79 634.98,-546.79 630.78,-546.79"/>
</g>
<!-- src/main/format.mjs -->
<g id="node7" class="node">
<title>src/main/format.mjs</title>
<g id="a_node7"><a xlink:href="src/main/format.mjs" xlink:title="format.mjs">
<path fill="#ffffcc" stroke="black" d="M518.46,-303.88C518.46,-303.88 472.29,-303.88 472.29,-303.88 469.33,-303.88 466.38,-300.92 466.38,-297.96 466.38,-297.96 466.38,-292.04 466.38,-292.04 466.38,-289.08 469.33,-286.12 472.29,-286.12 472.29,-286.12 518.46,-286.12 518.46,-286.12 521.42,-286.12 524.38,-289.08 524.38,-292.04 524.38,-292.04 524.38,-297.96 524.38,-297.96 524.38,-300.92 521.42,-303.88 518.46,-303.88"/>
<text text-anchor="start" x="474.38" y="-291.32" font-family="Helvetica,sans-Serif" font-size="9.00">format.mjs</text>
</a>
</g>
</g>
<!-- src/main/index.mjs&#45;&gt;src/main/format.mjs -->
<g id="edge30" class="edge">
<title>src/main/index.mjs&#45;&gt;src/main/format.mjs</title>
<path fill="none" stroke="#000000" stroke-width="2" stroke-opacity="0.200000" d="M236.58,-414.01C236.58,-385.34 236.58,-297.96 236.58,-297.96 236.58,-297.96 457.16,-297.96 457.16,-297.96"/>
<polygon fill="#000000" fill-opacity="0.200000" stroke="#000000" stroke-width="2" stroke-opacity="0.200000" points="457.16,-300.06 463.16,-297.96 457.16,-295.86 457.16,-300.06"/>
</g>
<!-- src/main/cruise.mjs -->
<g id="node9" class="node">
<title>src/main/cruise.mjs</title>
<g id="a_node9"><a xlink:href="src/main/cruise.mjs" xlink:title="cruise.mjs">
<path fill="#ffffcc" stroke="black" d="M380.33,-409.88C380.33,-409.88 334.92,-409.88 334.92,-409.88 331.96,-409.88 329,-406.92 329,-403.96 329,-403.96 329,-398.04 329,-398.04 329,-395.08 331.96,-392.12 334.92,-392.12 334.92,-392.12 380.33,-392.12 380.33,-392.12 383.29,-392.12 386.25,-395.08 386.25,-398.04 386.25,-398.04 386.25,-403.96 386.25,-403.96 386.25,-406.92 383.29,-409.88 380.33,-409.88"/>
<text text-anchor="start" x="337" y="-397.32" font-family="Helvetica,sans-Serif" font-size="9.00">cruise.mjs</text>
</a>
</g>
</g>
<!-- src/main/index.mjs&#45;&gt;src/main/cruise.mjs -->
<g id="edge29" class="edge">
<title>src/main/index.mjs&#45;&gt;src/main/cruise.mjs</title>
<path fill="none" stroke="#000000" stroke-width="2" stroke-opacity="0.200000" d="M254.92,-413.63C254.92,-410.23 254.92,-407.21 254.92,-407.21 254.92,-407.21 319.71,-407.21 319.71,-407.21"/>
<polygon fill="#000000" fill-opacity="0.200000" stroke="#000000" stroke-width="2" stroke-opacity="0.200000" points="319.71,-409.31 325.71,-407.21 319.71,-405.11 319.71,-409.31"/>
</g>
<!-- src/cli/format.mjs -->
<g id="node6" class="node">
<title>src/cli/format.mjs</title>
<g id="a_node6"><a xlink:href="src/cli/format.mjs" xlink:title="format.mjs">
<path fill="#ffffcc" stroke="black" d="M76.08,-401.88C76.08,-401.88 29.92,-401.88 29.92,-401.88 26.96,-401.88 24,-398.92 24,-395.96 24,-395.96 24,-390.04 24,-390.04 24,-387.08 26.96,-384.12 29.92,-384.12 29.92,-384.12 76.08,-384.12 76.08,-384.12 79.04,-384.12 82,-387.08 82,-390.04 82,-390.04 82,-395.96 82,-395.96 82,-398.92 79.04,-401.88 76.08,-401.88"/>
<text text-anchor="start" x="32" y="-389.32" font-family="Helvetica,sans-Serif" font-size="9.00">format.mjs</text>
</a>
</g>
</g>
<!-- src/cli/format.mjs&#45;&gt;src/main/format.mjs -->
<g id="edge4" class="edge">
<title>src/cli/format.mjs&#45;&gt;src/main/format.mjs</title>
<path fill="none" stroke="#000000" stroke-width="2" stroke-opacity="0.200000" d="M53,-383.68C53,-358.69 53,-292.04 53,-292.04 53,-292.04 456.98,-292.04 456.98,-292.04"/>
<polygon fill="#000000" fill-opacity="0.200000" stroke="#000000" stroke-width="2" stroke-opacity="0.200000" points="456.98,-294.14 462.98,-292.04 456.98,-289.94 456.98,-294.14"/>
</g>
<!-- src/main/options/assert&#45;validity.mjs -->
<g id="node22" class="node">
<title>src/main/options/assert&#45;validity.mjs</title>
<g id="a_node22"><a xlink:href="src/main/options/assert-validity.mjs" xlink:title="assert&#45;validity.mjs">
<path fill="#ffffcc" stroke="black" d="M662.33,-331.88C662.33,-331.88 585.42,-331.88 585.42,-331.88 582.46,-331.88 579.5,-328.92 579.5,-325.96 579.5,-325.96 579.5,-320.04 579.5,-320.04 579.5,-317.08 582.46,-314.12 585.42,-314.12 585.42,-314.12 662.33,-314.12 662.33,-314.12 665.29,-314.12 668.25,-317.08 668.25,-320.04 668.25,-320.04 668.25,-325.96 668.25,-325.96 668.25,-328.92 665.29,-331.88 662.33,-331.88"/>
<text text-anchor="start" x="587.5" y="-319.32" font-family="Helvetica,sans-Serif" font-size="9.00">assert&#45;validity.mjs</text>
</a>
</g>
</g>
<!-- src/main/format.mjs&#45;&gt;src/main/options/assert&#45;validity.mjs -->
<g id="edge24" class="edge">
<title>src/main/format.mjs&#45;&gt;src/main/options/assert&#45;validity.mjs</title>
<path fill="none" stroke="#000000" stroke-width="2" stroke-opacity="0.200000" d="M505.04,-304.32C505.04,-311.44 505.04,-320.04 505.04,-320.04 505.04,-320.04 570.26,-320.04 570.26,-320.04"/>
<polygon fill="#000000" fill-opacity="0.200000" stroke="#000000" stroke-width="2" stroke-opacity="0.200000" points="570.26,-322.14 576.26,-320.04 570.26,-317.94 570.26,-322.14"/>
</g>
<!-- src/main/options/normalize.mjs -->
<g id="node23" class="node">
<title>src/main/options/normalize.mjs</title>
<g id="a_node23"><a xlink:href="src/main/options/normalize.mjs" xlink:title="normalize.mjs">
<path fill="#ffffcc" stroke="black" d="M654.46,-361.88C654.46,-361.88 593.29,-361.88 593.29,-361.88 590.33,-361.88 587.38,-358.92 587.38,-355.96 587.38,-355.96 587.38,-350.04 587.38,-350.04 587.38,-347.08 590.33,-344.12 593.29,-344.12 593.29,-344.12 654.46,-344.12 654.46,-344.12 657.42,-344.12 660.38,-347.08 660.38,-350.04 660.38,-350.04 660.38,-355.96 660.38,-355.96 660.38,-358.92 657.42,-361.88 654.46,-361.88"/>
<text text-anchor="start" x="595.38" y="-349.32" font-family="Helvetica,sans-Serif" font-size="9.00">normalize.mjs</text>
</a>
</g>
</g>
<!-- src/main/format.mjs&#45;&gt;src/main/options/normalize.mjs -->
<g id="edge25" class="edge">
<title>src/main/format.mjs&#45;&gt;src/main/options/normalize.mjs</title>
<path fill="none" stroke="#000000" stroke-width="2" stroke-opacity="0.200000" d="M485.71,-304.32C485.71,-320.71 485.71,-353 485.71,-353 485.71,-353 578.18,-353 578.18,-353"/>
<polygon fill="#000000" fill-opacity="0.200000" stroke="#000000" stroke-width="2" stroke-opacity="0.200000" points="578.18,-355.1 584.18,-353 578.18,-350.9 578.18,-355.1"/>
</g>
<!-- src/main/report&#45;wrap.mjs -->
<g id="node24" class="node">
<title>src/main/report&#45;wrap.mjs</title>
<g id="a_node24"><a xlink:href="src/main/report-wrap.mjs" xlink:title="report&#45;wrap.mjs">
<path fill="#ffffcc" stroke="black" d="M657.83,-243.88C657.83,-243.88 589.92,-243.88 589.92,-243.88 586.96,-243.88 584,-240.92 584,-237.96 584,-237.96 584,-232.04 584,-232.04 584,-229.08 586.96,-226.12 589.92,-226.12 589.92,-226.12 657.83,-226.12 657.83,-226.12 660.79,-226.12 663.75,-229.08 663.75,-232.04 663.75,-232.04 663.75,-237.96 663.75,-237.96 663.75,-240.92 660.79,-243.88 657.83,-243.88"/>
<text text-anchor="start" x="592" y="-231.32" font-family="Helvetica,sans-Serif" font-size="9.00">report&#45;wrap.mjs</text>
</a>
</g>
</g>
<!-- src/main/format.mjs&#45;&gt;src/main/report&#45;wrap.mjs -->
<g id="edge26" class="edge">
<title>src/main/format.mjs&#45;&gt;src/main/report&#45;wrap.mjs</title>
<path fill="none" stroke="#000000" stroke-width="2" stroke-opacity="0.200000" d="M524.86,-297.96C562.79,-297.96 623.88,-297.96 623.88,-297.96 623.88,-297.96 623.88,-253.32 623.88,-253.32"/>
<polygon fill="#000000" fill-opacity="0.200000" stroke="#000000" stroke-width="2" stroke-opacity="0.200000" points="625.98,-253.32 623.88,-247.32 621.78,-253.32 625.98,-253.32"/>
</g>
<!-- src/schema/cruise&#45;result.schema.mjs -->
<g id="node27" class="node">
<title>src/schema/cruise&#45;result.schema.mjs</title>
<g id="a_node27"><a xlink:href="src/schema/cruise-result.schema.mjs" xlink:title="cruise&#45;result.schema.mjs">
<path fill="#ffffcc" stroke="black" d="M676.58,-153.88C676.58,-153.88 571.17,-153.88 571.17,-153.88 568.21,-153.88 565.25,-150.92 565.25,-147.96 565.25,-147.96 565.25,-142.04 565.25,-142.04 565.25,-139.08 568.21,-136.12 571.17,-136.12 571.17,-136.12 676.58,-136.12 676.58,-136.12 679.54,-136.12 682.5,-139.08 682.5,-142.04 682.5,-142.04 682.5,-147.96 682.5,-147.96 682.5,-150.92 679.54,-153.88 676.58,-153.88"/>
<text text-anchor="start" x="573.25" y="-141.32" font-family="Helvetica,sans-Serif" font-size="9.00">cruise&#45;result.schema.mjs</text>
</a>
</g>
</g>
<!-- src/main/format.mjs&#45;&gt;src/schema/cruise&#45;result.schema.mjs -->
<g id="edge27" class="edge">
<title>src/main/format.mjs&#45;&gt;src/schema/cruise&#45;result.schema.mjs</title>
<path fill="none" stroke="#000000" stroke-width="2" stroke-opacity="0.200000" d="M524.74,-292.04C540.91,-292.04 557.75,-292.04 557.75,-292.04 557.75,-292.04 557.75,-147 557.75,-147 557.75,-147 558.46,-147 558.46,-147"/>
<polygon fill="#000000" fill-opacity="0.200000" stroke="#000000" stroke-width="2" stroke-opacity="0.200000" points="555.8,-149.1 561.8,-147 555.8,-144.9 555.8,-149.1"/>
</g>
<!-- src/cli/index.mjs -->
<g id="node8" class="node">
<title>src/cli/index.mjs</title>
<g id="a_node8"><a xlink:href="src/cli/index.mjs" xlink:title="index.mjs">
<path fill="#ffffcc" stroke="black" d="M74.58,-431.88C74.58,-431.88 31.42,-431.88 31.42,-431.88 28.46,-431.88 25.5,-428.92 25.5,-425.96 25.5,-425.96 25.5,-420.04 25.5,-420.04 25.5,-417.08 28.46,-414.12 31.42,-414.12 31.42,-414.12 74.58,-414.12 74.58,-414.12 77.54,-414.12 80.5,-417.08 80.5,-420.04 80.5,-420.04 80.5,-425.96 80.5,-425.96 80.5,-428.92 77.54,-431.88 74.58,-431.88"/>
<text text-anchor="start" x="33.5" y="-419.32" font-family="Helvetica,sans-Serif" font-size="9.00">index.mjs</text>
</a>
</g>
</g>
<!-- src/cli/index.mjs&#45;&gt;src/utl/bus.mjs -->
<g id="edge7" class="edge">
<title>src/cli/index.mjs&#45;&gt;src/utl/bus.mjs</title>
<path fill="none" stroke="#000000" stroke-width="2" stroke-opacity="0.200000" d="M43.83,-432.13C43.83,-456.63 43.83,-521.96 43.83,-521.96 43.83,-521.96 824.54,-521.96 824.54,-521.96"/>
<polygon fill="#000000" fill-opacity="0.200000" stroke="#000000" stroke-width="2" stroke-opacity="0.200000" points="824.54,-524.06 830.54,-521.96 824.54,-519.86 824.54,-524.06"/>
</g>
<!-- src/cli/index.mjs&#45;&gt;src/cli/format&#45;meta&#45;info.mjs -->
<g id="edge5" class="edge">
<title>src/cli/index.mjs&#45;&gt;src/cli/format&#45;meta&#45;info.mjs</title>
<path fill="none" stroke="#000000" stroke-width="2" stroke-dasharray="5,2" stroke-opacity="0.200000" d="M80.99,-423C80.99,-423 85.81,-423 85.81,-423"/>
<polygon fill="#000000" fill-opacity="0.200000" stroke="#000000" stroke-width="2" stroke-opacity="0.200000" points="85.81,-425.1 91.81,-423 85.81,-420.9 85.81,-425.1"/>
</g>
<!-- src/cli/index.mjs&#45;&gt;src/main/cruise.mjs -->
<g id="edge6" class="edge">
<title>src/cli/index.mjs&#45;&gt;src/main/cruise.mjs</title>
<path fill="none" stroke="#000000" stroke-width="2" stroke-opacity="0.200000" d="M53,-413.77C53,-409.16 53,-404.54 53,-404.54 53,-404.54 319.66,-404.54 319.66,-404.54"/>
<polygon fill="#000000" fill-opacity="0.200000" stroke="#000000" stroke-width="2" stroke-opacity="0.200000" points="319.66,-406.64 325.66,-404.54 319.66,-402.44 319.66,-406.64"/>
</g>
<!-- src/utl/object&#45;util.mjs -->
<g id="node10" class="node">
<title>src/utl/object&#45;util.mjs</title>
<g id="a_node10"><a xlink:href="src/utl/object-util.mjs" xlink:title="object&#45;util.mjs">
<path fill="#ffffcc" stroke="black" d="M890.96,-497.88C890.96,-497.88 830.54,-497.88 830.54,-497.88 827.58,-497.88 824.62,-494.92 824.62,-491.96 824.62,-491.96 824.62,-486.04 824.62,-486.04 824.62,-483.08 827.58,-480.12 830.54,-480.12 830.54,-480.12 890.96,-480.12 890.96,-480.12 893.92,-480.12 896.88,-483.08 896.88,-486.04 896.88,-486.04 896.88,-491.96 896.88,-491.96 896.88,-494.92 893.92,-497.88 890.96,-497.88"/>
<text text-anchor="start" x="832.62" y="-485.32" font-family="Helvetica,sans-Serif" font-size="9.00">object&#45;util.mjs</text>
</a>
</g>
</g>
<!-- src/cli/index.mjs&#45;&gt;src/utl/object&#45;util.mjs -->
<g id="edge8" class="edge">
<title>src/cli/index.mjs&#45;&gt;src/utl/object&#45;util.mjs</title>
<path fill="none" stroke="#000000" stroke-width="2" stroke-opacity="0.200000" d="M62.17,-432.21C62.17,-451.3 62.17,-493.44 62.17,-493.44 62.17,-493.44 815.33,-493.44 815.33,-493.44"/>
<polygon fill="#000000" fill-opacity="0.200000" stroke="#000000" stroke-width="2" stroke-opacity="0.200000" points="815.33,-495.54 821.33,-493.44 815.33,-491.34 815.33,-495.54"/>
</g>
<!-- src/main/cruise.mjs&#45;&gt;src/cache/cache.mjs -->
<g id="edge20" class="edge">
<title>src/main/cruise.mjs&#45;&gt;src/cache/cache.mjs</title>
<path fill="none" stroke="#000000" stroke-width="2" stroke-dasharray="5,2" stroke-opacity="0.200000" d="M351.9,-410.13C351.9,-442.1 351.9,-547 351.9,-547 351.9,-547 457.31,-547 457.31,-547"/>
<polygon fill="#000000" fill-opacity="0.200000" stroke="#000000" stroke-width="2" stroke-opacity="0.200000" points="457.31,-549.1 463.31,-547 457.31,-544.9 457.31,-549.1"/>
</g>
<!-- src/main/cruise.mjs&#45;&gt;src/utl/bus.mjs -->
<g id="edge23" class="edge">
<title>src/main/cruise.mjs&#45;&gt;src/utl/bus.mjs</title>
<path fill="none" stroke="#000000" stroke-width="2" stroke-opacity="0.200000" d="M363.35,-410.03C363.35,-437.15 363.35,-516.04 363.35,-516.04 363.35,-516.04 824.27,-516.04 824.27,-516.04"/>
<polygon fill="#000000" fill-opacity="0.200000" stroke="#000000" stroke-width="2" stroke-opacity="0.200000" points="824.27,-518.14 830.27,-516.04 824.27,-513.94 824.27,-518.14"/>
</g>
<!-- src/main/resolve&#45;options/normalize.mjs -->
<g id="node12" class="node">
<title>src/main/resolve&#45;options/normalize.mjs</title>
<g id="a_node12"><a xlink:href="src/main/resolve-options/normalize.mjs" xlink:title="normalize.mjs">
<path fill="#ffffcc" stroke="black" d="M525.96,-251.88C525.96,-251.88 464.79,-251.88 464.79,-251.88 461.83,-251.88 458.88,-248.92 458.88,-245.96 458.88,-245.96 458.88,-240.04 458.88,-240.04 458.88,-237.08 461.83,-234.12 464.79,-234.12 464.79,-234.12 525.96,-234.12 525.96,-234.12 528.92,-234.12 531.88,-237.08 531.88,-240.04 531.88,-240.04 531.88,-245.96 531.88,-245.96 531.88,-248.92 528.92,-251.88 525.96,-251.88"/>
<text text-anchor="start" x="466.88" y="-239.32" font-family="Helvetica,sans-Serif" font-size="9.00">normalize.mjs</text>
</a>
</g>
</g>
<!-- src/main/cruise.mjs&#45;&gt;src/main/resolve&#45;options/normalize.mjs -->
<g id="edge17" class="edge">
<title>src/main/cruise.mjs&#45;&gt;src/main/resolve&#45;options/normalize.mjs</title>
<path fill="none" stroke="#000000" stroke-width="2" stroke-dasharray="5,2" stroke-opacity="0.200000" d="M352.12,-391.77C352.12,-358.39 352.12,-245.96 352.12,-245.96 352.12,-245.96 449.46,-245.96 449.46,-245.96"/>
<polygon fill="#000000" fill-opacity="0.200000" stroke="#000000" stroke-width="2" stroke-opacity="0.200000" points="449.46,-248.06 455.46,-245.96 449.46,-243.86 449.46,-248.06"/>
</g>
<!-- src/enrich/index.mjs -->
<g id="node13" class="node">
<title>src/enrich/index.mjs</title>
<g id="a_node13"><a xlink:href="src/enrich/index.mjs" xlink:title="index.mjs">
<path fill="#ffffcc" stroke="black" d="M645.46,-72.88C645.46,-72.88 602.29,-72.88 602.29,-72.88 599.33,-72.88 596.38,-69.92 596.38,-66.96 596.38,-66.96 596.38,-61.04 596.38,-61.04 596.38,-58.08 599.33,-55.12 602.29,-55.12 602.29,-55.12 645.46,-55.12 645.46,-55.12 648.42,-55.12 651.38,-58.08 651.38,-61.04 651.38,-61.04 651.38,-66.96 651.38,-66.96 651.38,-69.92 648.42,-72.88 645.46,-72.88"/>
<text text-anchor="start" x="604.38" y="-60.33" font-family="Helvetica,sans-Serif" font-size="9.00">index.mjs</text>
</a>
</g>
</g>
<!-- src/main/cruise.mjs&#45;&gt;src/enrich/index.mjs -->
<g id="edge21" class="edge">
<title>src/main/cruise.mjs&#45;&gt;src/enrich/index.mjs</title>
<path fill="none" stroke="#000000" stroke-width="2" stroke-dasharray="5,2" stroke-opacity="0.200000" d="M386.61,-395.68C439.38,-395.68 545.75,-395.68 545.75,-395.68 545.75,-395.68 545.75,-64 545.75,-64 545.75,-64 587.08,-64 587.08,-64"/>
<polygon fill="#000000" fill-opacity="0.200000" stroke="#000000" stroke-width="2" stroke-opacity="0.200000" points="587.08,-66.1 593.08,-64 587.08,-61.9 587.08,-66.1"/>
</g>
<!-- src/extract/index.mjs -->
<g id="node16" class="node">
<title>src/extract/index.mjs</title>
<g id="a_node16"><a xlink:href="src/extract/index.mjs" xlink:title="index.mjs">
<path fill="#ffffcc" stroke="black" d="M645.46,-625.88C645.46,-625.88 602.29,-625.88 602.29,-625.88 599.33,-625.88 596.38,-622.92 596.38,-619.96 596.38,-619.96 596.38,-614.04 596.38,-614.04 596.38,-611.08 599.33,-608.12 602.29,-608.12 602.29,-608.12 645.46,-608.12 645.46,-608.12 648.42,-608.12 651.38,-611.08 651.38,-614.04 651.38,-614.04 651.38,-619.96 651.38,-619.96 651.38,-622.92 648.42,-625.88 645.46,-625.88"/>
<text text-anchor="start" x="604.38" y="-613.33" font-family="Helvetica,sans-Serif" font-size="9.00">index.mjs</text>
</a>
</g>
</g>
<!-- src/main/cruise.mjs&#45;&gt;src/extract/index.mjs -->
<g id="edge22" class="edge">
<title>src/main/cruise.mjs&#45;&gt;src/extract/index.mjs</title>
<path fill="none" stroke="#000000" stroke-width="2" stroke-dasharray="5,2" stroke-opacity="0.200000" d="M340.45,-410.28C340.45,-451.62 340.45,-617 340.45,-617 340.45,-617 586.9,-617 586.9,-617"/>
<polygon fill="#000000" fill-opacity="0.200000" stroke="#000000" stroke-width="2" stroke-opacity="0.200000" points="586.9,-619.1 592.9,-617 586.9,-614.9 586.9,-619.1"/>
</g>
<!-- src/main/files&#45;and&#45;dirs/normalize.mjs -->
<g id="node21" class="node">
<title>src/main/files&#45;and&#45;dirs/normalize.mjs</title>
<g id="a_node21"><a xlink:href="src/main/files-and-dirs/normalize.mjs" xlink:title="normalize.mjs">
<path fill="#ffffcc" stroke="black" d="M525.96,-379.88C525.96,-379.88 464.79,-379.88 464.79,-379.88 461.83,-379.88 458.88,-376.92 458.88,-373.96 458.88,-373.96 458.88,-368.04 458.88,-368.04 458.88,-365.08 461.83,-362.12 464.79,-362.12 464.79,-362.12 525.96,-362.12 525.96,-362.12 528.92,-362.12 531.88,-365.08 531.88,-368.04 531.88,-368.04 531.88,-373.96 531.88,-373.96 531.88,-376.92 528.92,-379.88 525.96,-379.88"/>
<text text-anchor="start" x="466.88" y="-367.32" font-family="Helvetica,sans-Serif" font-size="9.00">normalize.mjs</text>
</a>
</g>
</g>
<!-- src/main/cruise.mjs&#45;&gt;src/main/files&#45;and&#45;dirs/normalize.mjs -->
<g id="edge13" class="edge">
<title>src/main/cruise.mjs&#45;&gt;src/main/files&#45;and&#45;dirs/normalize.mjs</title>
<path fill="none" stroke="#000000" stroke-width="2" stroke-dasharray="5,2" stroke-opacity="0.200000" d="M374.12,-391.84C374.12,-383.01 374.12,-371 374.12,-371 374.12,-371 449.64,-371 449.64,-371"/>
<polygon fill="#000000" fill-opacity="0.200000" stroke="#000000" stroke-width="2" stroke-opacity="0.200000" points="449.64,-373.1 455.64,-371 449.64,-368.9 449.64,-373.1"/>
</g>
<!-- src/main/cruise.mjs&#45;&gt;src/main/options/assert&#45;validity.mjs -->
<g id="edge14" class="edge">
<title>src/main/cruise.mjs&#45;&gt;src/main/options/assert&#45;validity.mjs</title>
<path fill="none" stroke="#000000" stroke-width="2" stroke-opacity="0.200000" d="M386.68,-399.23C447.67,-399.23 583.44,-399.23 583.44,-399.23 583.44,-399.23 583.44,-341.37 583.44,-341.37"/>
<polygon fill="#000000" fill-opacity="0.200000" stroke="#000000" stroke-width="2" stroke-opacity="0.200000" points="585.54,-341.37 583.44,-335.37 581.34,-341.37 585.54,-341.37"/>
</g>
<!-- src/main/cruise.mjs&#45;&gt;src/main/options/normalize.mjs -->
<g id="edge15" class="edge">
<title>src/main/cruise.mjs&#45;&gt;src/main/options/normalize.mjs</title>
<path fill="none" stroke="#000000" stroke-width="2" stroke-opacity="0.200000" d="M386.35,-402.77C448.9,-402.77 591.88,-402.77 591.88,-402.77 591.88,-402.77 591.88,-371.16 591.88,-371.16"/>
<polygon fill="#000000" fill-opacity="0.200000" stroke="#000000" stroke-width="2" stroke-opacity="0.200000" points="593.98,-371.16 591.88,-365.16 589.78,-371.16 593.98,-371.16"/>
</g>
<!-- src/main/cruise.mjs&#45;&gt;src/main/report&#45;wrap.mjs -->
<g id="edge16" class="edge">
<title>src/main/cruise.mjs&#45;&gt;src/main/report&#45;wrap.mjs</title>
<path fill="none" stroke="#000000" stroke-width="2" stroke-opacity="0.200000" d="M341.12,-391.81C341.12,-356.32 341.12,-230.12 341.12,-230.12 341.12,-230.12 574.64,-230.12 574.64,-230.12"/>
<polygon fill="#000000" fill-opacity="0.200000" stroke="#000000" stroke-width="2" stroke-opacity="0.200000" points="574.64,-232.23 580.64,-230.13 574.64,-228.03 574.64,-232.23"/>
</g>
<!-- src/main/rule&#45;set/assert&#45;validity.mjs -->
<g id="node25" class="node">
<title>src/main/rule&#45;set/assert&#45;validity.mjs</title>
<g id="a_node25"><a xlink:href="src/main/rule-set/assert-validity.mjs" xlink:title="assert&#45;validity.mjs">
<path fill="#ffffcc" stroke="black" d="M533.83,-439.88C533.83,-439.88 456.92,-439.88 456.92,-439.88 453.96,-439.88 451,-436.92 451,-433.96 451,-433.96 451,-428.04 451,-428.04 451,-425.08 453.96,-422.12 456.92,-422.12 456.92,-422.12 533.83,-422.12 533.83,-422.12 536.79,-422.12 539.75,-425.08 539.75,-428.04 539.75,-428.04 539.75,-433.96 539.75,-433.96 539.75,-436.92 536.79,-439.88 533.83,-439.88"/>
<text text-anchor="start" x="459" y="-427.32" font-family="Helvetica,sans-Serif" font-size="9.00">assert&#45;validity.mjs</text>
</a>
</g>
</g>
<!-- src/main/cruise.mjs&#45;&gt;src/main/rule&#45;set/assert&#45;validity.mjs -->
<g id="edge18" class="edge">
<title>src/main/cruise.mjs&#45;&gt;src/main/rule&#45;set/assert&#45;validity.mjs</title>
<path fill="none" stroke="#000000" stroke-width="2" stroke-dasharray="5,2" stroke-opacity="0.200000" d="M386.56,-406.32C415.24,-406.32 454.94,-406.32 454.94,-406.32 454.94,-406.32 454.94,-412.78 454.94,-412.78"/>
<polygon fill="#000000" fill-opacity="0.200000" stroke="#000000" stroke-width="2" stroke-opacity="0.200000" points="452.84,-412.78 454.94,-418.78 457.04,-412.78 452.84,-412.78"/>
</g>
<!-- src/main/rule&#45;set/normalize.mjs -->
<g id="node26" class="node">
<title>src/main/rule&#45;set/normalize.mjs</title>
<g id="a_node26"><a xlink:href="src/main/rule-set/normalize.mjs" xlink:title="normalize.mjs">
<path fill="#ffffcc" stroke="black" d="M525.96,-469.88C525.96,-469.88 464.79,-469.88 464.79,-469.88 461.83,-469.88 458.88,-466.92 458.88,-463.96 458.88,-463.96 458.88,-458.04 458.88,-458.04 458.88,-455.08 461.83,-452.12 464.79,-452.12 464.79,-452.12 525.96,-452.12 525.96,-452.12 528.92,-452.12 531.88,-455.08 531.88,-458.04 531.88,-458.04 531.88,-463.96 531.88,-463.96 531.88,-466.92 528.92,-469.88 525.96,-469.88"/>
<text text-anchor="start" x="466.88" y="-457.32" font-family="Helvetica,sans-Serif" font-size="9.00">normalize.mjs</text>
</a>
</g>
</g>
<!-- src/main/cruise.mjs&#45;&gt;src/main/rule&#45;set/normalize.mjs -->
<g id="edge19" class="edge">
<title>src/main/cruise.mjs&#45;&gt;src/main/rule&#45;set/normalize.mjs</title>
<path fill="none" stroke="#000000" stroke-width="2" stroke-dasharray="5,2" stroke-opacity="0.200000" d="M374.8,-410.19C374.8,-425.98 374.8,-456.62 374.8,-456.62 374.8,-456.62 449.52,-456.62 449.52,-456.62"/>
<polygon fill="#000000" fill-opacity="0.200000" stroke="#000000" stroke-width="2" stroke-opacity="0.200000" points="449.52,-458.73 455.52,-456.63 449.52,-454.53 449.52,-458.73"/>
</g>
<!-- src/config&#45;utl/extract&#45;depcruise&#45;config/index.mjs -->
<g id="node11" class="node">
<title>src/config&#45;utl/extract&#45;depcruise&#45;config/index.mjs</title>
<g id="a_node11"><a xlink:href="src/config-utl/extract-depcruise-config/index.mjs" xlink:title="index.mjs">
<path fill="#ffffcc" stroke="black" d="M379.21,-157.88C379.21,-157.88 336.04,-157.88 336.04,-157.88 333.08,-157.88 330.12,-154.92 330.12,-151.96 330.12,-151.96 330.12,-146.04 330.12,-146.04 330.12,-143.08 333.08,-140.12 336.04,-140.12 336.04,-140.12 379.21,-140.12 379.21,-140.12 382.17,-140.12 385.12,-143.08 385.12,-146.04 385.12,-146.04 385.12,-151.96 385.12,-151.96 385.12,-154.92 382.17,-157.88 379.21,-157.88"/>
<text text-anchor="start" x="338.12" y="-145.32" font-family="Helvetica,sans-Serif" font-size="9.00">index.mjs</text>
</a>
</g>
</g>
<!-- src/config&#45;utl/extract&#45;depcruise&#45;config/index.mjs&#45;&gt;src/main/resolve&#45;options/normalize.mjs -->
<g id="edge9" class="edge">
<title>src/config&#45;utl/extract&#45;depcruise&#45;config/index.mjs&#45;&gt;src/main/resolve&#45;options/normalize.mjs</title>
<path fill="none" stroke="#000000" stroke-width="2" stroke-opacity="0.200000" d="M363.12,-158.06C363.12,-181.09 363.12,-240.04 363.12,-240.04 363.12,-240.04 449.51,-240.04 449.51,-240.04"/>
<polygon fill="#000000" fill-opacity="0.200000" stroke="#000000" stroke-width="2" stroke-opacity="0.200000" points="449.51,-242.14 455.51,-240.04 449.51,-237.94 449.51,-242.14"/>
</g>
<!-- src/main/resolve&#45;options/normalize.mjs&#45;&gt;src/extract/transpile/meta.mjs -->
<g id="edge42" class="edge">
<title>src/main/resolve&#45;options/normalize.mjs&#45;&gt;src/extract/transpile/meta.mjs</title>
<path fill="none" stroke="#000000" stroke-width="2" stroke-opacity="0.200000" d="M532.35,-247.88C542.97,-247.88 551.75,-247.88 551.75,-247.88 551.75,-247.88 551.75,-565 551.75,-565 551.75,-565 587.58,-565 587.58,-565"/>
<polygon fill="#000000" fill-opacity="0.200000" stroke="#000000" stroke-width="2" stroke-opacity="0.200000" points="587.58,-567.1 593.58,-565 587.58,-562.9 587.58,-567.1"/>
</g>
<!-- src/graph&#45;utl/rule&#45;set.mjs -->
<g id="node19" class="node">
<title>src/graph&#45;utl/rule&#45;set.mjs</title>
<g id="a_node19"><a xlink:href="src/graph-utl/rule-set.mjs" xlink:title="rule&#45;set.mjs">
<path fill="#ffffcc" stroke="black" d="M886.46,-47.88C886.46,-47.88 835.04,-47.88 835.04,-47.88 832.08,-47.88 829.12,-44.92 829.12,-41.96 829.12,-41.96 829.12,-36.04 829.12,-36.04 829.12,-33.08 832.08,-30.12 835.04,-30.12 835.04,-30.12 886.46,-30.12 886.46,-30.12 889.42,-30.12 892.38,-33.08 892.38,-36.04 892.38,-36.04 892.38,-41.96 892.38,-41.96 892.38,-44.92 889.42,-47.88 886.46,-47.88"/>
<text text-anchor="start" x="837.12" y="-35.33" font-family="Helvetica,sans-Serif" font-size="9.00">rule&#45;set.mjs</text>
</a>
</g>
</g>
<!-- src/main/resolve&#45;options/normalize.mjs&#45;&gt;src/graph&#45;utl/rule&#45;set.mjs -->
<g id="edge43" class="edge">
<title>src/main/resolve&#45;options/normalize.mjs&#45;&gt;src/graph&#45;utl/rule&#45;set.mjs</title>
<path fill="none" stroke="#000000" stroke-width="2" stroke-opacity="0.200000" d="M495.38,-233.84C495.38,-193.81 495.38,-36.12 495.38,-36.12 495.38,-36.12 819.62,-36.12 819.62,-36.12"/>
<polygon fill="#000000" fill-opacity="0.200000" stroke="#000000" stroke-width="2" stroke-opacity="0.200000" points="819.62,-38.23 825.62,-36.13 819.62,-34.03 819.62,-38.23"/>
</g>
<!-- src/enrich/summarize/index.mjs -->
<g id="node14" class="node">
<title>src/enrich/summarize/index.mjs</title>
<g id="a_node14"><a xlink:href="src/enrich/summarize/index.mjs" xlink:title="index.mjs">
<path fill="#ffffcc" stroke="black" d="M757.08,-59.88C757.08,-59.88 713.92,-59.88 713.92,-59.88 710.96,-59.88 708,-56.92 708,-53.96 708,-53.96 708,-48.04 708,-48.04 708,-45.08 710.96,-42.12 713.92,-42.12 713.92,-42.12 757.08,-42.12 757.08,-42.12 760.04,-42.12 763,-45.08 763,-48.04 763,-48.04 763,-53.96 763,-53.96 763,-56.92 760.04,-59.88 757.08,-59.88"/>
<text text-anchor="start" x="716" y="-47.33" font-family="Helvetica,sans-Serif" font-size="9.00">index.mjs</text>
</a>
</g>
</g>
<!-- src/enrich/index.mjs&#45;&gt;src/enrich/summarize/index.mjs -->
<g id="edge10" class="edge">
<title>src/enrich/index.mjs&#45;&gt;src/enrich/summarize/index.mjs</title>
<path fill="none" stroke="#000000" stroke-width="2" stroke-opacity="0.200000" d="M651.87,-64.38C682.21,-64.38 726.33,-64.38 726.33,-64.38 726.33,-64.38 726.33,-63.95 726.33,-63.95"/>
<polygon fill="#000000" fill-opacity="0.200000" stroke="#000000" stroke-width="2" stroke-opacity="0.200000" points="728.43,-69.17 726.33,-63.17 724.23,-69.17 728.43,-69.17"/>
</g>
<!-- src/graph&#45;utl/compare.mjs -->
<g id="node15" class="node">
<title>src/graph&#45;utl/compare.mjs</title>
<g id="a_node15"><a xlink:href="src/graph-utl/compare.mjs" xlink:title="compare.mjs">
<path fill="#ffffcc" stroke="black" d="M889.08,-107.88C889.08,-107.88 832.42,-107.88 832.42,-107.88 829.46,-107.88 826.5,-104.92 826.5,-101.96 826.5,-101.96 826.5,-96.04 826.5,-96.04 826.5,-93.08 829.46,-90.12 832.42,-90.12 832.42,-90.12 889.08,-90.12 889.08,-90.12 892.04,-90.12 895,-93.08 895,-96.04 895,-96.04 895,-101.96 895,-101.96 895,-104.92 892.04,-107.88 889.08,-107.88"/>
<text text-anchor="start" x="834.5" y="-95.33" font-family="Helvetica,sans-Serif" font-size="9.00">compare.mjs</text>
</a>
</g>
</g>
<!-- src/enrich/summarize/index.mjs&#45;&gt;src/graph&#45;utl/compare.mjs -->
<g id="edge11" class="edge">
<title>src/enrich/summarize/index.mjs&#45;&gt;src/graph&#45;utl/compare.mjs</title>
<path fill="none" stroke="#000000" stroke-width="2" stroke-opacity="0.200000" d="M744.67,-60.11C744.67,-73.28 744.67,-96.04 744.67,-96.04 744.67,-96.04 817.21,-96.04 817.21,-96.04"/>
<polygon fill="#000000" fill-opacity="0.200000" stroke="#000000" stroke-width="2" stroke-opacity="0.200000" points="817.21,-98.14 823.21,-96.04 817.21,-93.94 817.21,-98.14"/>
</g>
<!-- src/extract/index.mjs&#45;&gt;src/utl/bus.mjs -->
<g id="edge12" class="edge">
<title>src/extract/index.mjs&#45;&gt;src/utl/bus.mjs</title>
<path fill="none" stroke="#000000" stroke-width="2" stroke-opacity="0.200000" d="M651.6,-617C715.9,-617 869.75,-617 869.75,-617 869.75,-617 869.75,-537.07 869.75,-537.07"/>
<polygon fill="#000000" fill-opacity="0.200000" stroke="#000000" stroke-width="2" stroke-opacity="0.200000" points="871.85,-537.07 869.75,-531.07 867.65,-537.07 871.85,-537.07"/>
</g>
<!-- src/graph&#45;utl/consolidate&#45;to&#45;pattern.mjs -->
<g id="node17" class="node">
<title>src/graph&#45;utl/consolidate&#45;to&#45;pattern.mjs</title>
<g id="a_node17"><a xlink:href="src/graph-utl/consolidate-to-pattern.mjs" xlink:title="consolidate&#45;to&#45;pattern.mjs">
<path fill="#ffffcc" stroke="black" d="M915.71,-77.88C915.71,-77.88 805.79,-77.88 805.79,-77.88 802.83,-77.88 799.88,-74.92 799.88,-71.96 799.88,-71.96 799.88,-66.04 799.88,-66.04 799.88,-63.08 802.83,-60.12 805.79,-60.12 805.79,-60.12 915.71,-60.12 915.71,-60.12 918.67,-60.12 921.62,-63.08 921.62,-66.04 921.62,-66.04 921.62,-71.96 921.62,-71.96 921.62,-74.92 918.67,-77.88 915.71,-77.88"/>
<text text-anchor="start" x="807.88" y="-65.33" font-family="Helvetica,sans-Serif" font-size="9.00">consolidate&#45;to&#45;pattern.mjs</text>
</a>
</g>
</g>
<!-- src/graph&#45;utl/filter&#45;bank.mjs -->
<g id="node18" class="node">
<title>src/graph&#45;utl/filter&#45;bank.mjs</title>
<g id="a_node18"><a xlink:href="src/graph-utl/filter-bank.mjs" xlink:title="filter&#45;bank.mjs">
<path fill="#ffffcc" stroke="black" d="M891.33,-137.88C891.33,-137.88 830.17,-137.88 830.17,-137.88 827.21,-137.88 824.25,-134.92 824.25,-131.96 824.25,-131.96 824.25,-126.04 824.25,-126.04 824.25,-123.08 827.21,-120.12 830.17,-120.12 830.17,-120.12 891.33,-120.12 891.33,-120.12 894.29,-120.12 897.25,-123.08 897.25,-126.04 897.25,-126.04 897.25,-131.96 897.25,-131.96 897.25,-134.92 894.29,-137.88 891.33,-137.88"/>
<text text-anchor="start" x="832.25" y="-125.33" font-family="Helvetica,sans-Serif" font-size="9.00">filter&#45;bank.mjs</text>
</a>
</g>
</g>
<!-- src/graph&#45;utl/strip&#45;self&#45;transitions.mjs -->
<g id="node20" class="node">
<title>src/graph&#45;utl/strip&#45;self&#45;transitions.mjs</title>
<g id="a_node20"><a xlink:href="src/graph-utl/strip-self-transitions.mjs" xlink:title="strip&#45;self&#45;transitions.mjs">
<path fill="#ffffcc" stroke="black" d="M910.83,-167.88C910.83,-167.88 810.67,-167.88 810.67,-167.88 807.71,-167.88 804.75,-164.92 804.75,-161.96 804.75,-161.96 804.75,-156.04 804.75,-156.04 804.75,-153.08 807.71,-150.12 810.67,-150.12 810.67,-150.12 910.83,-150.12 910.83,-150.12 913.79,-150.12 916.75,-153.08 916.75,-156.04 916.75,-156.04 916.75,-161.96 916.75,-161.96 916.75,-164.92 913.79,-167.88 910.83,-167.88"/>
<text text-anchor="start" x="812.75" y="-155.32" font-family="Helvetica,sans-Serif" font-size="9.00">strip&#45;self&#45;transitions.mjs</text>
</a>
</g>
</g>
<!-- src/report/index.mjs -->
<g id="node30" class="node">
<title>src/report/index.mjs</title>
<g id="a_node30"><a xlink:href="src/report/index.mjs" xlink:title="index.mjs">
<path fill="#ffffcc" stroke="black" d="M757.08,-183.88C757.08,-183.88 713.92,-183.88 713.92,-183.88 710.96,-183.88 708,-180.92 708,-177.96 708,-177.96 708,-172.04 708,-172.04 708,-169.08 710.96,-166.12 713.92,-166.12 713.92,-166.12 757.08,-166.12 757.08,-166.12 760.04,-166.12 763,-169.08 763,-172.04 763,-172.04 763,-177.96 763,-177.96 763,-180.92 760.04,-183.88 757.08,-183.88"/>
<text text-anchor="start" x="716" y="-171.32" font-family="Helvetica,sans-Serif" font-size="9.00">index.mjs</text>
</a>
</g>
</g>
<!-- src/main/options/assert&#45;validity.mjs&#45;&gt;src/report/index.mjs -->
<g id="edge32" class="edge">
<title>src/main/options/assert&#45;validity.mjs&#45;&gt;src/report/index.mjs</title>
<path fill="none" stroke="#000000" stroke-width="2" stroke-opacity="0.200000" d="M668.51,-323C702.92,-323 744.67,-323 744.67,-323 744.67,-323 744.67,-193.29 744.67,-193.29"/>
<polygon fill="#000000" fill-opacity="0.200000" stroke="#000000" stroke-width="2" stroke-opacity="0.200000" points="746.77,-193.29 744.67,-187.29 742.57,-193.29 746.77,-193.29"/>
</g>
<!-- src/main/helpers.mjs -->
<g id="node28" class="node">
<title>src/main/helpers.mjs</title>
<g id="a_node28"><a xlink:href="src/main/helpers.mjs" xlink:title="helpers.mjs">
<path fill="#ffffcc" stroke="black" d="M761.21,-441.88C761.21,-441.88 709.79,-441.88 709.79,-441.88 706.83,-441.88 703.88,-438.92 703.88,-435.96 703.88,-435.96 703.88,-430.04 703.88,-430.04 703.88,-427.08 706.83,-424.12 709.79,-424.12 709.79,-424.12 761.21,-424.12 761.21,-424.12 764.17,-424.12 767.12,-427.08 767.12,-430.04 767.12,-430.04 767.12,-435.96 767.12,-435.96 767.12,-438.92 764.17,-441.88 761.21,-441.88"/>
<text text-anchor="start" x="711.88" y="-429.32" font-family="Helvetica,sans-Serif" font-size="9.00">helpers.mjs</text>
</a>
</g>
</g>
<!-- src/main/options/normalize.mjs&#45;&gt;src/main/helpers.mjs -->
<g id="edge33" class="edge">
<title>src/main/options/normalize.mjs&#45;&gt;src/main/helpers.mjs</title>
<path fill="none" stroke="#000000" stroke-width="2" stroke-opacity="0.200000" d="M657.38,-362.37C657.38,-382.76 657.38,-429.38 657.38,-429.38 657.38,-429.38 694.7,-429.38 694.7,-429.38"/>
<polygon fill="#000000" fill-opacity="0.200000" stroke="#000000" stroke-width="2" stroke-opacity="0.200000" points="694.7,-431.48 700.7,-429.38 694.7,-427.28 694.7,-431.48"/>
</g>
<!-- src/main/options/defaults.mjs -->
<g id="node31" class="node">
<title>src/main/options/defaults.mjs</title>
<g id="a_node31"><a xlink:href="src/main/options/defaults.mjs" xlink:title="defaults.mjs">
<path fill="#ffffcc" stroke="black" d="M761.96,-361.88C761.96,-361.88 709.04,-361.88 709.04,-361.88 706.08,-361.88 703.12,-358.92 703.12,-355.96 703.12,-355.96 703.12,-350.04 703.12,-350.04 703.12,-347.08 706.08,-344.12 709.04,-344.12 709.04,-344.12 761.96,-344.12 761.96,-344.12 764.92,-344.12 767.88,-347.08 767.88,-350.04 767.88,-350.04 767.88,-355.96 767.88,-355.96 767.88,-358.92 764.92,-361.88 761.96,-361.88"/>
<text text-anchor="start" x="711.12" y="-349.32" font-family="Helvetica,sans-Serif" font-size="9.00">defaults.mjs</text>
</a>
</g>
</g>
<!-- src/main/options/normalize.mjs&#45;&gt;src/main/options/defaults.mjs -->
<g id="edge34" class="edge">
<title>src/main/options/normalize.mjs&#45;&gt;src/main/options/defaults.mjs</title>
<path fill="none" stroke="#000000" stroke-width="2" stroke-opacity="0.200000" d="M660.73,-353C660.73,-353 693.78,-353 693.78,-353"/>
<polygon fill="#000000" fill-opacity="0.200000" stroke="#000000" stroke-width="2" stroke-opacity="0.200000" points="693.78,-355.1 699.78,-353 693.78,-350.9 693.78,-355.1"/>
</g>
<!-- src/utl/array&#45;util.mjs -->
<g id="node32" class="node">
<title>src/utl/array&#45;util.mjs</title>
<g id="a_node32"><a xlink:href="src/utl/array-util.mjs" xlink:title="array&#45;util.mjs">
<path fill="#ffffcc" stroke="black" d="M889.08,-467.88C889.08,-467.88 832.42,-467.88 832.42,-467.88 829.46,-467.88 826.5,-464.92 826.5,-461.96 826.5,-461.96 826.5,-456.04 826.5,-456.04 826.5,-453.08 829.46,-450.12 832.42,-450.12 832.42,-450.12 889.08,-450.12 889.08,-450.12 892.04,-450.12 895,-453.08 895,-456.04 895,-456.04 895,-461.96 895,-461.96 895,-464.92 892.04,-467.88 889.08,-467.88"/>
<text text-anchor="start" x="834.5" y="-455.32" font-family="Helvetica,sans-Serif" font-size="9.00">array&#45;util.mjs</text>
</a>
</g>
</g>
<!-- src/main/options/normalize.mjs&#45;&gt;src/utl/array&#45;util.mjs -->
<g id="edge35" class="edge">
<title>src/main/options/normalize.mjs&#45;&gt;src/utl/array&#45;util.mjs</title>
<path fill="none" stroke="#000000" stroke-width="2" stroke-opacity="0.200000" d="M654.38,-362.26C654.38,-387.81 654.38,-457.38 654.38,-457.38 654.38,-457.38 817.18,-457.38 817.18,-457.38"/>
<polygon fill="#000000" fill-opacity="0.200000" stroke="#000000" stroke-width="2" stroke-opacity="0.200000" points="817.18,-459.48 823.18,-457.38 817.18,-455.28 817.18,-459.48"/>
</g>
<!-- src/main/report&#45;wrap.mjs&#45;&gt;src/enrich/summarize/index.mjs -->
<g id="edge36" class="edge">
<title>src/main/report&#45;wrap.mjs&#45;&gt;src/enrich/summarize/index.mjs</title>
<path fill="none" stroke="#000000" stroke-width="2" stroke-opacity="0.200000" d="M664.24,-228.66C677.44,-228.66 688.78,-228.66 688.78,-228.66 688.78,-228.66 688.78,-48.62 688.78,-48.62 688.78,-48.62 698.49,-48.62 698.49,-48.62"/>
<polygon fill="#000000" fill-opacity="0.200000" stroke="#000000" stroke-width="2" stroke-opacity="0.200000" points="698.49,-50.73 704.49,-48.63 698.49,-46.53 698.49,-50.73"/>
</g>
<!-- src/main/report&#45;wrap.mjs&#45;&gt;src/graph&#45;utl/compare.mjs -->
<g id="edge37" class="edge">
<title>src/main/report&#45;wrap.mjs&#45;&gt;src/graph&#45;utl/compare.mjs</title>
<path fill="none" stroke="#000000" stroke-width="2" stroke-opacity="0.200000" d="M664.25,-238.8C711.65,-238.8 783.88,-238.8 783.88,-238.8 783.88,-238.8 783.88,-101.96 783.88,-101.96 783.88,-101.96 817.33,-101.96 817.33,-101.96"/>
<polygon fill="#000000" fill-opacity="0.200000" stroke="#000000" stroke-width="2" stroke-opacity="0.200000" points="817.33,-104.06 823.33,-101.96 817.33,-99.86 817.33,-104.06"/>
</g>
<!-- src/main/report&#45;wrap.mjs&#45;&gt;src/graph&#45;utl/consolidate&#45;to&#45;pattern.mjs -->
<g id="edge38" class="edge">
<title>src/main/report&#45;wrap.mjs&#45;&gt;src/graph&#45;utl/consolidate&#45;to&#45;pattern.mjs</title>
<path fill="none" stroke="#000000" stroke-width="2" stroke-opacity="0.200000" d="M664.01,-231.2C679.5,-231.2 693.56,-231.2 693.56,-231.2 693.56,-231.2 693.56,-68.62 693.56,-68.62 693.56,-68.62 790.42,-68.62 790.42,-68.62"/>
<polygon fill="#000000" fill-opacity="0.200000" stroke="#000000" stroke-width="2" stroke-opacity="0.200000" points="790.42,-70.73 796.42,-68.63 790.42,-66.53 790.42,-70.73"/>
</g>
<!-- src/main/report&#45;wrap.mjs&#45;&gt;src/graph&#45;utl/filter&#45;bank.mjs -->
<g id="edge39" class="edge">
<title>src/main/report&#45;wrap.mjs&#45;&gt;src/graph&#45;utl/filter&#45;bank.mjs</title>
<path fill="none" stroke="#000000" stroke-width="2" stroke-opacity="0.200000" d="M664.16,-233.73C681.71,-233.73 698.34,-233.73 698.34,-233.73 698.34,-233.73 698.34,-128.12 698.34,-128.12 698.34,-128.12 814.87,-128.12 814.87,-128.12"/>
<polygon fill="#000000" fill-opacity="0.200000" stroke="#000000" stroke-width="2" stroke-opacity="0.200000" points="814.87,-130.23 820.87,-128.13 814.87,-126.03 814.87,-130.23"/>
</g>
<!-- src/main/report&#45;wrap.mjs&#45;&gt;src/graph&#45;utl/strip&#45;self&#45;transitions.mjs -->
<g id="edge40" class="edge">
<title>src/main/report&#45;wrap.mjs&#45;&gt;src/graph&#45;utl/strip&#45;self&#45;transitions.mjs</title>
<path fill="none" stroke="#000000" stroke-width="2" stroke-opacity="0.200000" d="M663.88,-241.34C719.83,-241.34 814.69,-241.34 814.69,-241.34 814.69,-241.34 814.69,-177.15 814.69,-177.15"/>
<polygon fill="#000000" fill-opacity="0.200000" stroke="#000000" stroke-width="2" stroke-opacity="0.200000" points="816.79,-177.15 814.69,-171.15 812.59,-177.15 816.79,-177.15"/>
</g>
<!-- src/main/report&#45;wrap.mjs&#45;&gt;src/report/index.mjs -->
<g id="edge41" class="edge">
<title>src/main/report&#45;wrap.mjs&#45;&gt;src/report/index.mjs</title>
<path fill="none" stroke="#000000" stroke-width="2" stroke-opacity="0.200000" d="M664.08,-236.27C692.78,-236.27 726.33,-236.27 726.33,-236.27 726.33,-236.27 726.33,-193.33 726.33,-193.33"/>
<polygon fill="#000000" fill-opacity="0.200000" stroke="#000000" stroke-width="2" stroke-opacity="0.200000" points="728.43,-193.33 726.33,-187.33 724.23,-193.33 728.43,-193.33"/>
</g>
<!-- src/main/rule&#45;set/assert&#45;validity.mjs&#45;&gt;src/utl/object&#45;util.mjs -->
<g id="edge47" class="edge">
<title>src/main/rule&#45;set/assert&#45;validity.mjs&#45;&gt;src/utl/object&#45;util.mjs</title>
<path fill="none" stroke="#000000" stroke-width="2" stroke-opacity="0.200000" d="M535.81,-440.32C535.81,-456.71 535.81,-489 535.81,-489 535.81,-489 815.39,-489 815.39,-489"/>
<polygon fill="#000000" fill-opacity="0.200000" stroke="#000000" stroke-width="2" stroke-opacity="0.200000" points="815.39,-491.1 821.39,-489 815.39,-486.9 815.39,-491.1"/>
</g>
<!-- src/main/rule&#45;set/assert&#45;validity.mjs&#45;&gt;src/main/options/assert&#45;validity.mjs -->
<g id="edge45" class="edge">
<title>src/main/rule&#45;set/assert&#45;validity.mjs&#45;&gt;src/main/options/assert&#45;validity.mjs</title>
<path fill="none" stroke="#000000" stroke-width="2" stroke-opacity="0.200000" d="M537.12,-421.68C537.12,-395.97 537.12,-325.96 537.12,-325.96 537.12,-325.96 570.2,-325.96 570.2,-325.96"/>
<polygon fill="#000000" fill-opacity="0.200000" stroke="#000000" stroke-width="2" stroke-opacity="0.200000" points="570.2,-328.06 576.2,-325.96 570.2,-323.86 570.2,-328.06"/>
</g>
<!-- src/main/rule&#45;set/assert&#45;validity.mjs&#45;&gt;src/main/helpers.mjs -->
<g id="edge44" class="edge">
<title>src/main/rule&#45;set/assert&#45;validity.mjs&#45;&gt;src/main/helpers.mjs</title>
<path fill="none" stroke="#000000" stroke-width="2" stroke-opacity="0.200000" d="M539.98,-434.62C539.98,-434.62 694.39,-434.62 694.39,-434.62"/>
<polygon fill="#000000" fill-opacity="0.200000" stroke="#000000" stroke-width="2" stroke-opacity="0.200000" points="694.39,-436.73 700.39,-434.63 694.39,-432.53 694.39,-436.73"/>
</g>
<!-- src/schema/configuration.schema.mjs -->
<g id="node33" class="node">
<title>src/schema/configuration.schema.mjs</title>
<g id="a_node33"><a xlink:href="src/schema/configuration.schema.mjs" xlink:title="configuration.schema.mjs">
<path fill="#ffffcc" stroke="black" d="M678.08,-183.88C678.08,-183.88 569.67,-183.88 569.67,-183.88 566.71,-183.88 563.75,-180.92 563.75,-177.96 563.75,-177.96 563.75,-172.04 563.75,-172.04 563.75,-169.08 566.71,-166.12 569.67,-166.12 569.67,-166.12 678.08,-166.12 678.08,-166.12 681.04,-166.12 684,-169.08 684,-172.04 684,-172.04 684,-177.96 684,-177.96 684,-180.92 681.04,-183.88 678.08,-183.88"/>
<text text-anchor="start" x="571.75" y="-171.32" font-family="Helvetica,sans-Serif" font-size="9.00">configuration.schema.mjs</text>
</a>
</g>
</g>
<!-- src/main/rule&#45;set/assert&#45;validity.mjs&#45;&gt;src/schema/configuration.schema.mjs -->
<g id="edge46" class="edge">
<title>src/main/rule&#45;set/assert&#45;validity.mjs&#45;&gt;src/schema/configuration.schema.mjs</title>
<path fill="none" stroke="#000000" stroke-width="2" stroke-opacity="0.200000" d="M534.5,-421.89C534.5,-376.29 534.5,-175 534.5,-175 534.5,-175 554.24,-175 554.24,-175"/>
<polygon fill="#000000" fill-opacity="0.200000" stroke="#000000" stroke-width="2" stroke-opacity="0.200000" points="554.24,-177.1 560.24,-175 554.24,-172.9 554.24,-177.1"/>
</g>
<!-- src/main/rule&#45;set/normalize.mjs&#45;&gt;src/main/helpers.mjs -->
<g id="edge48" class="edge">
<title>src/main/rule&#45;set/normalize.mjs&#45;&gt;src/main/helpers.mjs</title>
<path fill="none" stroke="#000000" stroke-width="2" stroke-opacity="0.200000" d="M532.26,-462.62C597.16,-462.62 724.96,-462.62 724.96,-462.62 724.96,-462.62 724.96,-451.4 724.96,-451.4"/>
<polygon fill="#000000" fill-opacity="0.200000" stroke="#000000" stroke-width="2" stroke-opacity="0.200000" points="727.06,-451.4 724.96,-445.4 722.86,-451.4 727.06,-451.4"/>
</g>
<!-- src/main/helpers.mjs&#45;&gt;src/utl/object&#45;util.mjs -->
<g id="edge28" class="edge">
<title>src/main/helpers.mjs&#45;&gt;src/utl/object&#45;util.mjs</title>
<path fill="none" stroke="#000000" stroke-width="2" stroke-opacity="0.200000" d="M746.04,-441.98C746.04,-456.75 746.04,-484.56 746.04,-484.56 746.04,-484.56 815.11,-484.56 815.11,-484.56"/>
<polygon fill="#000000" fill-opacity="0.200000" stroke="#000000" stroke-width="2" stroke-opacity="0.200000" points="815.11,-486.66 821.11,-484.56 815.11,-482.46 815.11,-486.66"/>
</g>
<!-- src/main/index.d.ts -->
<g id="node29" class="node">
<title>src/main/index.d.ts</title>
<g id="a_node29"><a xlink:href="src/main/index.d.ts" xlink:title="index.d.ts">
<path fill="#ccffcc" stroke="black" d="M267.33,-478.88C267.33,-478.88 224.17,-478.88 224.17,-478.88 221.21,-478.88 218.25,-475.92 218.25,-472.96 218.25,-472.96 218.25,-467.04 218.25,-467.04 218.25,-464.08 221.21,-461.12 224.17,-461.12 224.17,-461.12 267.33,-461.12 267.33,-461.12 270.29,-461.12 273.25,-464.08 273.25,-467.04 273.25,-467.04 273.25,-472.96 273.25,-472.96 273.25,-475.92 270.29,-478.88 267.33,-478.88"/>
<text text-anchor="start" x="226.25" y="-466.32" font-family="Helvetica,sans-Serif" font-size="9.00">index.d.ts</text>
</a>
</g>
</g>
</g>
</svg>
