<?xml version="1.0" encoding="UTF-8" standalone="no"?>
<!DOCTYPE svg PUBLIC "-//W3C//DTD SVG 1.1//EN"
 "http://www.w3.org/Graphics/SVG/1.1/DTD/svg11.dtd">
<!-- Generated by graphviz version 2.44.1 (20200629.0846)
 -->
<!-- Title: dependency&#45;cruiser output Pages: 1 -->
<svg width="661pt" height="626pt"
 viewBox="0.00 0.00 661.00 626.00" xmlns="http://www.w3.org/2000/svg" xmlns:xlink="http://www.w3.org/1999/xlink">
<g id="graph0" class="graph" transform="scale(1 1) rotate(0) translate(4 622)">
<title>dependency&#45;cruiser output</title>
<polygon fill="white" stroke="transparent" points="-4,4 -4,-622 657,-622 657,4 -4,4"/>
<g id="clust1" class="cluster">
<title>cluster_src</title>
<path fill="#ffffff" stroke="black" stroke-width="2" d="M20,-8C20,-8 633,-8 633,-8 639,-8 645,-14 645,-20 645,-20 645,-598 645,-598 645,-604 639,-610 633,-610 633,-610 20,-610 20,-610 14,-610 8,-604 8,-598 8,-598 8,-20 8,-20 8,-14 14,-8 20,-8"/>
<text text-anchor="middle" x="326.5" y="-598.8" font-family="Helvetica,sans-Serif" font-weight="bold" font-size="9.00">src</text>
</g>
<g id="clust2" class="cluster">
<title>cluster_src/cli</title>
<path fill="#ffffff" stroke="black" stroke-width="2" d="M28,-133C28,-133 112,-133 112,-133 118,-133 124,-139 124,-145 124,-145 124,-293 124,-293 124,-299 118,-305 112,-305 112,-305 28,-305 28,-305 22,-305 16,-299 16,-293 16,-293 16,-145 16,-145 16,-139 22,-133 28,-133"/>
<text text-anchor="middle" x="70" y="-293.8" font-family="Helvetica,sans-Serif" font-weight="bold" font-size="9.00">cli</text>
</g>
<g id="clust3" class="cluster">
<title>cluster_src/cli/compile&#45;config</title>
<path fill="#ffffff" stroke="black" stroke-width="2" d="M42,-141C42,-141 98,-141 98,-141 104,-141 110,-147 110,-153 110,-153 110,-181 110,-181 110,-187 104,-193 98,-193 98,-193 42,-193 42,-193 36,-193 30,-187 30,-181 30,-181 30,-153 30,-153 30,-147 36,-141 42,-141"/>
<text text-anchor="middle" x="70" y="-181.8" font-family="Helvetica,sans-Serif" font-weight="bold" font-size="9.00">compile&#45;config</text>
</g>
<g id="clust4" class="cluster">
<title>cluster_src/enrich</title>
<path fill="#ffffff" stroke="black" stroke-width="2" d="M219,-464C219,-464 320,-464 320,-464 326,-464 332,-470 332,-476 332,-476 332,-534 332,-534 332,-540 326,-546 320,-546 320,-546 219,-546 219,-546 213,-546 207,-540 207,-534 207,-534 207,-476 207,-476 207,-470 213,-464 219,-464"/>
<text text-anchor="middle" x="269.5" y="-534.8" font-family="Helvetica,sans-Serif" font-weight="bold" font-size="9.00">enrich</text>
</g>
<g id="clust5" class="cluster">
<title>cluster_src/extract</title>
<path fill="#ffffff" stroke="black" stroke-width="2" d="M382,-462C382,-462 444,-462 444,-462 450,-462 456,-468 456,-474 456,-474 456,-562 456,-562 456,-568 450,-574 444,-574 444,-574 382,-574 382,-574 376,-574 370,-568 370,-562 370,-562 370,-474 370,-474 370,-468 376,-462 382,-462"/>
<text text-anchor="middle" x="413" y="-562.8" font-family="Helvetica,sans-Serif" font-weight="bold" font-size="9.00">extract</text>
</g>
<g id="clust6" class="cluster">
<title>cluster_src/extract/transpile</title>
<path fill="#ffffff" stroke="black" stroke-width="2" d="M390,-470C390,-470 436,-470 436,-470 442,-470 448,-476 448,-482 448,-482 448,-510 448,-510 448,-516 442,-522 436,-522 436,-522 390,-522 390,-522 384,-522 378,-516 378,-510 378,-510 378,-482 378,-482 378,-476 384,-470 390,-470"/>
<text text-anchor="middle" x="413" y="-510.8" font-family="Helvetica,sans-Serif" font-weight="bold" font-size="9.00">transpile</text>
</g>
<g id="clust7" class="cluster">
<title>cluster_src/main</title>
<path fill="#ffffff" stroke="black" stroke-width="2" d="M146,-16C146,-16 625,-16 625,-16 631,-16 637,-22 637,-28 637,-28 637,-264 637,-264 637,-270 631,-276 625,-276 625,-276 146,-276 146,-276 140,-276 134,-270 134,-264 134,-264 134,-28 134,-28 134,-22 140,-16 146,-16"/>
<text text-anchor="middle" x="385.5" y="-264.8" font-family="Helvetica,sans-Serif" font-weight="bold" font-size="9.00">main</text>
</g>
<g id="clust8" class="cluster">
<title>cluster_src/main/files&#45;and&#45;dirs</title>
<path fill="#ffffff" stroke="black" stroke-width="2" d="M240.5,-198C240.5,-198 298.5,-198 298.5,-198 304.5,-198 310.5,-204 310.5,-210 310.5,-210 310.5,-238 310.5,-238 310.5,-244 304.5,-250 298.5,-250 298.5,-250 240.5,-250 240.5,-250 234.5,-250 228.5,-244 228.5,-238 228.5,-238 228.5,-210 228.5,-210 228.5,-204 234.5,-198 240.5,-198"/>
<text text-anchor="middle" x="269.5" y="-238.8" font-family="Helvetica,sans-Serif" font-weight="bold" font-size="9.00">files&#45;and&#45;dirs</text>
</g>
<g id="clust9" class="cluster">
<title>cluster_src/main/options</title>
<path fill="#ffffff" stroke="black" stroke-width="2" d="M384,-24C384,-24 590,-24 590,-24 596,-24 602,-30 602,-36 602,-36 602,-94 602,-94 602,-100 596,-106 590,-106 590,-106 384,-106 384,-106 378,-106 372,-100 372,-94 372,-94 372,-36 372,-36 372,-30 378,-24 384,-24"/>
<text text-anchor="middle" x="487" y="-94.8" font-family="Helvetica,sans-Serif" font-weight="bold" font-size="9.00">options</text>
</g>
<g id="clust10" class="cluster">
<title>cluster_src/main/resolve&#45;options</title>
<path fill="#ffffff" stroke="black" stroke-width="2" d="M240.5,-138C240.5,-138 299.5,-138 299.5,-138 305.5,-138 311.5,-144 311.5,-150 311.5,-150 311.5,-178 311.5,-178 311.5,-184 305.5,-190 299.5,-190 299.5,-190 240.5,-190 240.5,-190 234.5,-190 228.5,-184 228.5,-178 228.5,-178 228.5,-150 228.5,-150 228.5,-144 234.5,-138 240.5,-138"/>
<text text-anchor="middle" x="270" y="-178.8" font-family="Helvetica,sans-Serif" font-weight="bold" font-size="9.00">resolve&#45;options</text>
</g>
<g id="clust11" class="cluster">
<title>cluster_src/main/rule&#45;set</title>
<path fill="#ffffff" stroke="black" stroke-width="2" d="M240.5,-48C240.5,-48 298.5,-48 298.5,-48 304.5,-48 310.5,-54 310.5,-60 310.5,-60 310.5,-118 310.5,-118 310.5,-124 304.5,-130 298.5,-130 298.5,-130 240.5,-130 240.5,-130 234.5,-130 228.5,-124 228.5,-118 228.5,-118 228.5,-60 228.5,-60 228.5,-54 234.5,-48 240.5,-48"/>
<text text-anchor="middle" x="269.5" y="-118.8" font-family="Helvetica,sans-Serif" font-weight="bold" font-size="9.00">rule&#45;set</text>
</g>
<g id="clust12" class="cluster">
<title>cluster_src/main/utl</title>
<path fill="#ffffff" stroke="black" stroke-width="2" d="M503,-114C503,-114 617,-114 617,-114 623,-114 629,-120 629,-126 629,-126 629,-154 629,-154 629,-160 623,-166 617,-166 617,-166 503,-166 503,-166 497,-166 491,-160 491,-154 491,-154 491,-126 491,-126 491,-120 497,-114 503,-114"/>
<text text-anchor="middle" x="560" y="-154.8" font-family="Helvetica,sans-Serif" font-weight="bold" font-size="9.00">utl</text>
</g>
<g id="clust13" class="cluster">
<title>cluster_src/report</title>
<path fill="#ffffff" stroke="black" stroke-width="2" d="M537,-408C537,-408 583,-408 583,-408 589,-408 595,-414 595,-420 595,-420 595,-448 595,-448 595,-454 589,-460 583,-460 583,-460 537,-460 537,-460 531,-460 525,-454 525,-448 525,-448 525,-420 525,-420 525,-414 531,-408 537,-408"/>
<text text-anchor="middle" x="560" y="-448.8" font-family="Helvetica,sans-Serif" font-weight="bold" font-size="9.00">report</text>
</g>
<g id="clust14" class="cluster">
<title>cluster_src/schema</title>
<path fill="#ffffff" stroke="black" stroke-width="2" d="M355,-284C355,-284 471,-284 471,-284 477,-284 483,-290 483,-296 483,-296 483,-354 483,-354 483,-360 477,-366 471,-366 471,-366 355,-366 355,-366 349,-366 343,-360 343,-354 343,-354 343,-296 343,-296 343,-290 349,-284 355,-284"/>
<text text-anchor="middle" x="413" y="-354.8" font-family="Helvetica,sans-Serif" font-weight="bold" font-size="9.00">schema</text>
</g>
<g id="clust15" class="cluster">
<title>cluster_src/utl</title>
<path fill="#ffffff" stroke="black" stroke-width="2" d="M216,-284C216,-284 323,-284 323,-284 329,-284 335,-290 335,-296 335,-296 335,-444 335,-444 335,-450 329,-456 323,-456 323,-456 216,-456 216,-456 210,-456 204,-450 204,-444 204,-444 204,-296 204,-296 204,-290 210,-284 216,-284"/>
<text text-anchor="middle" x="269.5" y="-444.8" font-family="Helvetica,sans-Serif" font-weight="bold" font-size="9.00">utl</text>
</g>
<!-- src/cli/compile&#45;config/index.js -->
<g id="node1" class="node">
<title>src/cli/compile&#45;config/index.js</title>
<g id="a_node1"><a xlink:href="src/cli/compile-config/index.js" xlink:title="index.js">
<path fill="#ffffcc" stroke="black" d="M91,-167C91,-167 49,-167 49,-167 46,-167 43,-164 43,-161 43,-161 43,-155 43,-155 43,-152 46,-149 49,-149 49,-149 91,-149 91,-149 94,-149 97,-152 97,-155 97,-155 97,-161 97,-161 97,-164 94,-167 91,-167"/>
<text text-anchor="middle" x="70" y="-155.8" font-family="Helvetica,sans-Serif" font-size="9.00">index.js</text>
</a>
</g>
</g>
<!-- src/main/resolve&#45;options/normalize.js -->
<g id="node2" class="node">
<title>src/main/resolve&#45;options/normalize.js</title>
<g id="a_node2"><a xlink:href="src/main/resolve-options/normalize.js" xlink:title="normalize.js">
<path fill="#ffffcc" stroke="black" d="M296.5,-164C296.5,-164 242.5,-164 242.5,-164 239.5,-164 236.5,-161 236.5,-158 236.5,-158 236.5,-152 236.5,-152 236.5,-149 239.5,-146 242.5,-146 242.5,-146 296.5,-146 296.5,-146 299.5,-146 302.5,-149 302.5,-152 302.5,-152 302.5,-158 302.5,-158 302.5,-161 299.5,-164 296.5,-164"/>
<text text-anchor="middle" x="269.5" y="-152.8" font-family="Helvetica,sans-Serif" font-size="9.00">normalize.js</text>
</a>
</g>
</g>
<!-- src/cli/compile&#45;config/index.js&#45;&gt;src/main/resolve&#45;options/normalize.js -->
<g id="edge1" class="edge">
<title>src/cli/compile&#45;config/index.js&#45;&gt;src/main/resolve&#45;options/normalize.js</title>
<path fill="none" stroke="#000000" stroke-width="2" stroke-opacity="0.200000" d="M97.32,-154C97.32,-154 230.2,-154 230.2,-154"/>
<polygon fill="#000000" fill-opacity="0.200000" stroke="#000000" stroke-width="2" stroke-opacity="0.200000" points="230.2,-156.1 236.2,-154 230.2,-151.9 230.2,-156.1"/>
</g>
<!-- src/extract/transpile/meta.js -->
<g id="node10" class="node">
<title>src/extract/transpile/meta.js</title>
<g id="a_node10"><a xlink:href="src/extract/transpile/meta.js" xlink:title="meta.js">
<path fill="#ffffcc" stroke="black" d="M434,-496C434,-496 392,-496 392,-496 389,-496 386,-493 386,-490 386,-490 386,-484 386,-484 386,-481 389,-478 392,-478 392,-478 434,-478 434,-478 437,-478 440,-481 440,-484 440,-484 440,-490 440,-490 440,-493 437,-496 434,-496"/>
<text text-anchor="middle" x="413" y="-484.8" font-family="Helvetica,sans-Serif" font-size="9.00">meta.js</text>
</a>
</g>
</g>
<!-- src/main/resolve&#45;options/normalize.js&#45;&gt;src/extract/transpile/meta.js -->
<g id="edge25" class="edge">
<title>src/main/resolve&#45;options/normalize.js&#45;&gt;src/extract/transpile/meta.js</title>
<path fill="none" stroke="#000000" stroke-width="2" stroke-opacity="0.200000" d="M302.62,-155C320.52,-155 339,-155 339,-155 339,-155 339,-482 339,-482 339,-482 379.87,-482 379.87,-482"/>
<polygon fill="#000000" fill-opacity="0.200000" stroke="#000000" stroke-width="2" stroke-opacity="0.200000" points="379.87,-484.1 385.87,-482 379.87,-479.9 379.87,-484.1"/>
</g>
<!-- src/cli/format&#45;meta&#45;info.js -->
<g id="node3" class="node">
<title>src/cli/format&#45;meta&#45;info.js</title>
<g id="a_node3"><a xlink:href="src/cli/format-meta-info.js" xlink:title="format&#45;meta&#45;info.js">
<path fill="#ffffcc" stroke="black" d="M110,-219C110,-219 30,-219 30,-219 27,-219 24,-216 24,-213 24,-213 24,-207 24,-207 24,-204 27,-201 30,-201 30,-201 110,-201 110,-201 113,-201 116,-204 116,-207 116,-207 116,-213 116,-213 116,-216 113,-219 110,-219"/>
<text text-anchor="middle" x="70" y="-207.8" font-family="Helvetica,sans-Serif" font-size="9.00">format&#45;meta&#45;info.js</text>
</a>
</g>
</g>
<!-- src/main/index.js -->
<g id="node4" class="node">
<title>src/main/index.js</title>
<g id="a_node4"><a xlink:href="src/main/index.js" xlink:title="index.js">
<path fill="#ffffcc" stroke="black" d="M190,-250C190,-250 148,-250 148,-250 145,-250 142,-247 142,-244 142,-244 142,-238 142,-238 142,-235 145,-232 148,-232 148,-232 190,-232 190,-232 193,-232 196,-235 196,-238 196,-238 196,-244 196,-244 196,-247 193,-250 190,-250"/>
<text text-anchor="middle" x="169" y="-238.8" font-family="Helvetica,sans-Serif" font-size="9.00">index.js</text>
</a>
</g>
</g>
<!-- src/cli/format&#45;meta&#45;info.js&#45;&gt;src/main/index.js -->
<g id="edge2" class="edge">
<title>src/cli/format&#45;meta&#45;info.js&#45;&gt;src/main/index.js</title>
<path fill="none" stroke="#000000" stroke-width="2" stroke-opacity="0.200000" d="M107,-219.06C107,-227.13 107,-237.67 107,-237.67 107,-237.67 135.99,-237.67 135.99,-237.67"/>
<polygon fill="#000000" fill-opacity="0.200000" stroke="#000000" stroke-width="2" stroke-opacity="0.200000" points="135.99,-239.77 141.99,-237.67 135.99,-235.57 135.99,-239.77"/>
</g>
<!-- src/main/index.js&#45;&gt;src/main/resolve&#45;options/normalize.js -->
<g id="edge19" class="edge">
<title>src/main/index.js&#45;&gt;src/main/resolve&#45;options/normalize.js</title>
<path fill="none" stroke="#000000" stroke-width="2" stroke-opacity="0.200000" d="M178,-231.91C178,-210.56 178,-159 178,-159 178,-159 230.47,-159 230.47,-159"/>
<polygon fill="#000000" fill-opacity="0.200000" stroke="#000000" stroke-width="2" stroke-opacity="0.200000" points="230.47,-161.1 236.47,-159 230.47,-156.9 230.47,-161.1"/>
</g>
<!-- src/enrich/index.js -->
<g id="node7" class="node">
<title>src/enrich/index.js</title>
<g id="a_node7"><a xlink:href="src/enrich/index.js" xlink:title="index.js">
<path fill="#ffffcc" stroke="black" d="M290.5,-520C290.5,-520 248.5,-520 248.5,-520 245.5,-520 242.5,-517 242.5,-514 242.5,-514 242.5,-508 242.5,-508 242.5,-505 245.5,-502 248.5,-502 248.5,-502 290.5,-502 290.5,-502 293.5,-502 296.5,-505 296.5,-508 296.5,-508 296.5,-514 296.5,-514 296.5,-517 293.5,-520 290.5,-520"/>
<text text-anchor="middle" x="269.5" y="-508.8" font-family="Helvetica,sans-Serif" font-size="9.00">index.js</text>
</a>
</g>
</g>
<!-- src/main/index.js&#45;&gt;src/enrich/index.js -->
<g id="edge5" class="edge">
<title>src/main/index.js&#45;&gt;src/enrich/index.js</title>
<path fill="none" stroke="#000000" stroke-width="2" stroke-opacity="0.200000" d="M163,-250.29C163,-297.77 163,-511 163,-511 163,-511 236.35,-511 236.35,-511"/>
<polygon fill="#000000" fill-opacity="0.200000" stroke="#000000" stroke-width="2" stroke-opacity="0.200000" points="236.35,-513.1 242.35,-511 236.35,-508.9 236.35,-513.1"/>
</g>
<!-- src/enrich/summarize&#45;modules.js -->
<g id="node8" class="node">
<title>src/enrich/summarize&#45;modules.js</title>
<g id="a_node8"><a xlink:href="src/enrich/summarize-modules.js" xlink:title="summarize&#45;modules.js">
<path fill="#ffffcc" stroke="black" d="M318,-490C318,-490 221,-490 221,-490 218,-490 215,-487 215,-484 215,-484 215,-478 215,-478 215,-475 218,-472 221,-472 221,-472 318,-472 318,-472 321,-472 324,-475 324,-478 324,-478 324,-484 324,-484 324,-487 321,-490 318,-490"/>
<text text-anchor="middle" x="269.5" y="-478.8" font-family="Helvetica,sans-Serif" font-size="9.00">summarize&#45;modules.js</text>
</a>
</g>
</g>
<!-- src/main/index.js&#45;&gt;src/enrich/summarize&#45;modules.js -->
<g id="edge6" class="edge">
<title>src/main/index.js&#45;&gt;src/enrich/summarize&#45;modules.js</title>
<path fill="none" stroke="#000000" stroke-width="2" stroke-opacity="0.200000" d="M169,-250.12C169,-293.95 169,-481 169,-481 169,-481 208.84,-481 208.84,-481"/>
<polygon fill="#000000" fill-opacity="0.200000" stroke="#000000" stroke-width="2" stroke-opacity="0.200000" points="208.84,-483.1 214.84,-481 208.84,-478.9 208.84,-483.1"/>
</g>
<!-- src/extract/index.js -->
<g id="node9" class="node">
<title>src/extract/index.js</title>
<g id="a_node9"><a xlink:href="src/extract/index.js" xlink:title="index.js">
<path fill="#ffffcc" stroke="black" d="M434,-548C434,-548 392,-548 392,-548 389,-548 386,-545 386,-542 386,-542 386,-536 386,-536 386,-533 389,-530 392,-530 392,-530 434,-530 434,-530 437,-530 440,-533 440,-536 440,-536 440,-542 440,-542 440,-545 437,-548 434,-548"/>
<text text-anchor="middle" x="413" y="-536.8" font-family="Helvetica,sans-Serif" font-size="9.00">index.js</text>
</a>
</g>
</g>
<!-- src/main/index.js&#45;&gt;src/extract/index.js -->
<g id="edge7" class="edge">
<title>src/main/index.js&#45;&gt;src/extract/index.js</title>
<path fill="none" stroke="#000000" stroke-width="2" stroke-opacity="0.200000" d="M156,-250.25C156,-300.54 156,-539 156,-539 156,-539 379.98,-539 379.98,-539"/>
<polygon fill="#000000" fill-opacity="0.200000" stroke="#000000" stroke-width="2" stroke-opacity="0.200000" points="379.98,-541.1 385.98,-539 379.98,-536.9 379.98,-541.1"/>
</g>
<!-- src/main/index.js&#45;&gt;src/extract/transpile/meta.js -->
<g id="edge8" class="edge">
<title>src/main/index.js&#45;&gt;src/extract/transpile/meta.js</title>
<path fill="none" stroke="#000000" stroke-width="2" stroke-opacity="0.200000" d="M196.08,-242.29C242.66,-242.29 333,-242.29 333,-242.29 333,-242.29 333,-486 333,-486 333,-486 379.92,-486 379.92,-486"/>
<polygon fill="#000000" fill-opacity="0.200000" stroke="#000000" stroke-width="2" stroke-opacity="0.200000" points="379.92,-488.1 385.92,-486 379.92,-483.9 379.92,-488.1"/>
</g>
<!-- src/main/files&#45;and&#45;dirs/normalize.js -->
<g id="node11" class="node">
<title>src/main/files&#45;and&#45;dirs/normalize.js</title>
<g id="a_node11"><a xlink:href="src/main/files-and-dirs/normalize.js" xlink:title="normalize.js">
<path fill="#ffffcc" stroke="black" d="M296.5,-224C296.5,-224 242.5,-224 242.5,-224 239.5,-224 236.5,-221 236.5,-218 236.5,-218 236.5,-212 236.5,-212 236.5,-209 239.5,-206 242.5,-206 242.5,-206 296.5,-206 296.5,-206 299.5,-206 302.5,-209 302.5,-212 302.5,-212 302.5,-218 302.5,-218 302.5,-221 299.5,-224 296.5,-224"/>
<text text-anchor="middle" x="269.5" y="-212.8" font-family="Helvetica,sans-Serif" font-size="9.00">normalize.js</text>
</a>
</g>
</g>
<!-- src/main/index.js&#45;&gt;src/main/files&#45;and&#45;dirs/normalize.js -->
<g id="edge16" class="edge">
<title>src/main/index.js&#45;&gt;src/main/files&#45;and&#45;dirs/normalize.js</title>
<path fill="none" stroke="#000000" stroke-width="2" stroke-opacity="0.200000" d="M187,-231.98C187,-223.63 187,-212.5 187,-212.5 187,-212.5 230.42,-212.5 230.42,-212.5"/>
<polygon fill="#000000" fill-opacity="0.200000" stroke="#000000" stroke-width="2" stroke-opacity="0.200000" points="230.42,-214.6 236.42,-212.5 230.42,-210.4 230.42,-214.6"/>
</g>
<!-- src/report/index.js -->
<g id="node12" class="node">
<title>src/report/index.js</title>
<g id="a_node12"><a xlink:href="src/report/index.js" xlink:title="index.js">
<path fill="#ffffcc" stroke="black" d="M581,-434C581,-434 539,-434 539,-434 536,-434 533,-431 533,-428 533,-428 533,-422 533,-422 533,-419 536,-416 539,-416 539,-416 581,-416 581,-416 584,-416 587,-419 587,-422 587,-422 587,-428 587,-428 587,-431 584,-434 581,-434"/>
<text text-anchor="middle" x="560" y="-422.8" font-family="Helvetica,sans-Serif" font-size="9.00">index.js</text>
</a>
</g>
</g>
<!-- src/main/index.js&#45;&gt;src/report/index.js -->
<g id="edge9" class="edge">
<title>src/main/index.js&#45;&gt;src/report/index.js</title>
<path fill="none" stroke="#000000" stroke-width="2" stroke-opacity="0.200000" d="M196.18,-237.14C284.85,-237.14 560,-237.14 560,-237.14 560,-237.14 560,-409.94 560,-409.94"/>
<polygon fill="#000000" fill-opacity="0.200000" stroke="#000000" stroke-width="2" stroke-opacity="0.200000" points="557.9,-409.94 560,-415.94 562.1,-409.94 557.9,-409.94"/>
</g>
<!-- src/schema/cruise&#45;result.schema.json -->
<g id="node13" class="node">
<title>src/schema/cruise&#45;result.schema.json</title>
<g id="a_node13"><a xlink:href="src/schema/cruise-result.schema.json" xlink:title="cruise&#45;result.schema.json">
<path fill="#ffee44" stroke="black" d="M467.5,-340C467.5,-340 358.5,-340 358.5,-340 355.5,-340 352.5,-337 352.5,-334 352.5,-334 352.5,-328 352.5,-328 352.5,-325 355.5,-322 358.5,-322 358.5,-322 467.5,-322 467.5,-322 470.5,-322 473.5,-325 473.5,-328 473.5,-328 473.5,-334 473.5,-334 473.5,-337 470.5,-340 467.5,-340"/>
<text text-anchor="middle" x="413" y="-328.8" font-family="Helvetica,sans-Serif" font-size="9.00">cruise&#45;result.schema.json</text>
</a>
</g>
</g>
<!-- src/main/index.js&#45;&gt;src/schema/cruise&#45;result.schema.json -->
<g id="edge10" class="edge">
<title>src/main/index.js&#45;&gt;src/schema/cruise&#45;result.schema.json</title>
<path fill="none" stroke="#000000" stroke-width="2" stroke-opacity="0.200000" d="M196.11,-239.71C245.48,-239.71 345,-239.71 345,-239.71 345,-239.71 345,-331 345,-331 345,-331 346.28,-331 346.28,-331"/>
<polygon fill="#000000" fill-opacity="0.200000" stroke="#000000" stroke-width="2" stroke-opacity="0.200000" points="346.28,-333.1 352.28,-331 346.28,-328.9 346.28,-333.1"/>
</g>
<!-- src/utl/bus.js -->
<g id="node14" class="node">
<title>src/utl/bus.js</title>
<g id="a_node14"><a xlink:href="src/utl/bus.js" xlink:title="bus.js">
<path fill="#ffffcc" stroke="black" d="M290.5,-310C290.5,-310 248.5,-310 248.5,-310 245.5,-310 242.5,-307 242.5,-304 242.5,-304 242.5,-298 242.5,-298 242.5,-295 245.5,-292 248.5,-292 248.5,-292 290.5,-292 290.5,-292 293.5,-292 296.5,-295 296.5,-298 296.5,-298 296.5,-304 296.5,-304 296.5,-307 293.5,-310 290.5,-310"/>
<text text-anchor="middle" x="269.5" y="-298.8" font-family="Helvetica,sans-Serif" font-size="9.00">bus.js</text>
</a>
</g>
</g>
<!-- src/main/index.js&#45;&gt;src/utl/bus.js -->
<g id="edge11" class="edge">
<title>src/main/index.js&#45;&gt;src/utl/bus.js</title>
<path fill="none" stroke="#000000" stroke-width="2" stroke-opacity="0.200000" d="M196.07,-244.86C225.98,-244.86 270,-244.86 270,-244.86 270,-244.86 270,-285.98 270,-285.98"/>
<polygon fill="#000000" fill-opacity="0.200000" stroke="#000000" stroke-width="2" stroke-opacity="0.200000" points="267.9,-285.98 270,-291.98 272.1,-285.98 267.9,-285.98"/>
</g>
<!-- src/utl/compare.js -->
<g id="node15" class="node">
<title>src/utl/compare.js</title>
<g id="a_node15"><a xlink:href="src/utl/compare.js" xlink:title="compare.js">
<path fill="#ffffcc" stroke="black" d="M294.5,-430C294.5,-430 244.5,-430 244.5,-430 241.5,-430 238.5,-427 238.5,-424 238.5,-424 238.5,-418 238.5,-418 238.5,-415 241.5,-412 244.5,-412 244.5,-412 294.5,-412 294.5,-412 297.5,-412 300.5,-415 300.5,-418 300.5,-418 300.5,-424 300.5,-424 300.5,-427 297.5,-430 294.5,-430"/>
<text text-anchor="middle" x="269.5" y="-418.8" font-family="Helvetica,sans-Serif" font-size="9.00">compare.js</text>
</a>
</g>
</g>
<!-- src/main/index.js&#45;&gt;src/utl/compare.js -->
<g id="edge12" class="edge">
<title>src/main/index.js&#45;&gt;src/utl/compare.js</title>
<path fill="none" stroke="#000000" stroke-width="2" stroke-opacity="0.200000" d="M176,-250.17C176,-286.85 176,-421 176,-421 176,-421 232.37,-421 232.37,-421"/>
<polygon fill="#000000" fill-opacity="0.200000" stroke="#000000" stroke-width="2" stroke-opacity="0.200000" points="232.37,-423.1 238.37,-421 232.37,-418.9 232.37,-423.1"/>
</g>
<!-- src/utl/consolidate&#45;to&#45;pattern.js -->
<g id="node16" class="node">
<title>src/utl/consolidate&#45;to&#45;pattern.js</title>
<g id="a_node16"><a xlink:href="src/utl/consolidate-to-pattern.js" xlink:title="consolidate&#45;to&#45;pattern.js">
<path fill="#ffffcc" stroke="black" d="M321,-400C321,-400 218,-400 218,-400 215,-400 212,-397 212,-394 212,-394 212,-388 212,-388 212,-385 215,-382 218,-382 218,-382 321,-382 321,-382 324,-382 327,-385 327,-388 327,-388 327,-394 327,-394 327,-397 324,-400 321,-400"/>
<text text-anchor="middle" x="269.5" y="-388.8" font-family="Helvetica,sans-Serif" font-size="9.00">consolidate&#45;to&#45;pattern.js</text>
</a>
</g>
</g>
<!-- src/main/index.js&#45;&gt;src/utl/consolidate&#45;to&#45;pattern.js -->
<g id="edge13" class="edge">
<title>src/main/index.js&#45;&gt;src/utl/consolidate&#45;to&#45;pattern.js</title>
<path fill="none" stroke="#000000" stroke-width="2" stroke-opacity="0.200000" d="M183,-250.38C183,-283.22 183,-391 183,-391 183,-391 205.8,-391 205.8,-391"/>
<polygon fill="#000000" fill-opacity="0.200000" stroke="#000000" stroke-width="2" stroke-opacity="0.200000" points="205.8,-393.1 211.8,-391 205.8,-388.9 205.8,-393.1"/>
</g>
<!-- src/utl/filterbank.js -->
<g id="node17" class="node">
<title>src/utl/filterbank.js</title>
<g id="a_node17"><a xlink:href="src/utl/filterbank.js" xlink:title="filterbank.js">
<path fill="#ffffcc" stroke="black" d="M295,-370C295,-370 244,-370 244,-370 241,-370 238,-367 238,-364 238,-364 238,-358 238,-358 238,-355 241,-352 244,-352 244,-352 295,-352 295,-352 298,-352 301,-355 301,-358 301,-358 301,-364 301,-364 301,-367 298,-370 295,-370"/>
<text text-anchor="middle" x="269.5" y="-358.8" font-family="Helvetica,sans-Serif" font-size="9.00">filterbank.js</text>
</a>
</g>
</g>
<!-- src/main/index.js&#45;&gt;src/utl/filterbank.js -->
<g id="edge14" class="edge">
<title>src/main/index.js&#45;&gt;src/utl/filterbank.js</title>
<path fill="none" stroke="#000000" stroke-width="2" stroke-opacity="0.200000" d="M190,-250.02C190,-277.93 190,-361 190,-361 190,-361 231.62,-361 231.62,-361"/>
<polygon fill="#000000" fill-opacity="0.200000" stroke="#000000" stroke-width="2" stroke-opacity="0.200000" points="231.62,-363.1 237.62,-361 231.62,-358.9 231.62,-363.1"/>
</g>
<!-- src/utl/strip&#45;self&#45;transitions.js -->
<g id="node18" class="node">
<title>src/utl/strip&#45;self&#45;transitions.js</title>
<g id="a_node18"><a xlink:href="src/utl/strip-self-transitions.js" xlink:title="strip&#45;self&#45;transitions.js">
<path fill="#ffffcc" stroke="black" d="M316,-340C316,-340 223,-340 223,-340 220,-340 217,-337 217,-334 217,-334 217,-328 217,-328 217,-325 220,-322 223,-322 223,-322 316,-322 316,-322 319,-322 322,-325 322,-328 322,-328 322,-334 322,-334 322,-337 319,-340 316,-340"/>
<text text-anchor="middle" x="269.5" y="-328.8" font-family="Helvetica,sans-Serif" font-size="9.00">strip&#45;self&#45;transitions.js</text>
</a>
</g>
</g>
<!-- src/main/index.js&#45;&gt;src/utl/strip&#45;self&#45;transitions.js -->
<g id="edge15" class="edge">
<title>src/main/index.js&#45;&gt;src/utl/strip&#45;self&#45;transitions.js</title>
<path fill="none" stroke="#000000" stroke-width="2" stroke-opacity="0.200000" d="M196.3,-247.43C211.35,-247.43 227,-247.43 227,-247.43 227,-247.43 227,-315.74 227,-315.74"/>
<polygon fill="#000000" fill-opacity="0.200000" stroke="#000000" stroke-width="2" stroke-opacity="0.200000" points="224.9,-315.74 227,-321.74 229.1,-315.74 224.9,-315.74"/>
</g>
<!-- src/main/options/normalize.js -->
<g id="node19" class="node">
<title>src/main/options/normalize.js</title>
<g id="a_node19"><a xlink:href="src/main/options/normalize.js" xlink:title="normalize.js">
<path fill="#ffffcc" stroke="black" d="M440,-50C440,-50 386,-50 386,-50 383,-50 380,-47 380,-44 380,-44 380,-38 380,-38 380,-35 383,-32 386,-32 386,-32 440,-32 440,-32 443,-32 446,-35 446,-38 446,-38 446,-44 446,-44 446,-47 443,-50 440,-50"/>
<text text-anchor="middle" x="413" y="-38.8" font-family="Helvetica,sans-Serif" font-size="9.00">normalize.js</text>
</a>
</g>
</g>
<!-- src/main/index.js&#45;&gt;src/main/options/normalize.js -->
<g id="edge17" class="edge">
<title>src/main/index.js&#45;&gt;src/main/options/normalize.js</title>
<path fill="none" stroke="#000000" stroke-width="2" stroke-opacity="0.200000" d="M151,-231.89C151,-192.76 151,-41 151,-41 151,-41 373.82,-41 373.82,-41"/>
<polygon fill="#000000" fill-opacity="0.200000" stroke="#000000" stroke-width="2" stroke-opacity="0.200000" points="373.82,-43.1 379.82,-41 373.82,-38.9 373.82,-43.1"/>
</g>
<!-- src/main/options/validate.js -->
<g id="node20" class="node">
<title>src/main/options/validate.js</title>
<g id="a_node20"><a xlink:href="src/main/options/validate.js" xlink:title="validate.js">
<path fill="#ffffcc" stroke="black" d="M436,-80C436,-80 390,-80 390,-80 387,-80 384,-77 384,-74 384,-74 384,-68 384,-68 384,-65 387,-62 390,-62 390,-62 436,-62 436,-62 439,-62 442,-65 442,-68 442,-68 442,-74 442,-74 442,-77 439,-80 436,-80"/>
<text text-anchor="middle" x="413" y="-68.8" font-family="Helvetica,sans-Serif" font-size="9.00">validate.js</text>
</a>
</g>
</g>
<!-- src/main/index.js&#45;&gt;src/main/options/validate.js -->
<g id="edge18" class="edge">
<title>src/main/index.js&#45;&gt;src/main/options/validate.js</title>
<path fill="none" stroke="#000000" stroke-width="2" stroke-opacity="0.200000" d="M196.04,-234.57C259.57,-234.57 413,-234.57 413,-234.57 413,-234.57 413,-86.26 413,-86.26"/>
<polygon fill="#000000" fill-opacity="0.200000" stroke="#000000" stroke-width="2" stroke-opacity="0.200000" points="415.1,-86.26 413,-80.26 410.9,-86.26 415.1,-86.26"/>
</g>
<!-- src/main/rule&#45;set/normalize.js -->
<g id="node21" class="node">
<title>src/main/rule&#45;set/normalize.js</title>
<g id="a_node21"><a xlink:href="src/main/rule-set/normalize.js" xlink:title="normalize.js">
<path fill="#ffffcc" stroke="black" d="M296.5,-104C296.5,-104 242.5,-104 242.5,-104 239.5,-104 236.5,-101 236.5,-98 236.5,-98 236.5,-92 236.5,-92 236.5,-89 239.5,-86 242.5,-86 242.5,-86 296.5,-86 296.5,-86 299.5,-86 302.5,-89 302.5,-92 302.5,-92 302.5,-98 302.5,-98 302.5,-101 299.5,-104 296.5,-104"/>
<text text-anchor="middle" x="269.5" y="-92.8" font-family="Helvetica,sans-Serif" font-size="9.00">normalize.js</text>
</a>
</g>
</g>
<!-- src/main/index.js&#45;&gt;src/main/rule&#45;set/normalize.js -->
<g id="edge20" class="edge">
<title>src/main/index.js&#45;&gt;src/main/rule&#45;set/normalize.js</title>
<path fill="none" stroke="#000000" stroke-width="2" stroke-opacity="0.200000" d="M169,-231.87C169,-199.9 169,-95 169,-95 169,-95 230.31,-95 230.31,-95"/>
<polygon fill="#000000" fill-opacity="0.200000" stroke="#000000" stroke-width="2" stroke-opacity="0.200000" points="230.31,-97.1 236.31,-95 230.31,-92.9 230.31,-97.1"/>
</g>
<!-- src/main/rule&#45;set/validate.js -->
<g id="node22" class="node">
<title>src/main/rule&#45;set/validate.js</title>
<g id="a_node22"><a xlink:href="src/main/rule-set/validate.js" xlink:title="validate.js">
<path fill="#ffffcc" stroke="black" d="M292.5,-74C292.5,-74 246.5,-74 246.5,-74 243.5,-74 240.5,-71 240.5,-68 240.5,-68 240.5,-62 240.5,-62 240.5,-59 243.5,-56 246.5,-56 246.5,-56 292.5,-56 292.5,-56 295.5,-56 298.5,-59 298.5,-62 298.5,-62 298.5,-68 298.5,-68 298.5,-71 295.5,-74 292.5,-74"/>
<text text-anchor="middle" x="269.5" y="-62.8" font-family="Helvetica,sans-Serif" font-size="9.00">validate.js</text>
</a>
</g>
</g>
<!-- src/main/index.js&#45;&gt;src/main/rule&#45;set/validate.js -->
<g id="edge21" class="edge">
<title>src/main/index.js&#45;&gt;src/main/rule&#45;set/validate.js</title>
<path fill="none" stroke="#000000" stroke-width="2" stroke-opacity="0.200000" d="M160,-231.54C160,-194.98 160,-65 160,-65 160,-65 234.44,-65 234.44,-65"/>
<polygon fill="#000000" fill-opacity="0.200000" stroke="#000000" stroke-width="2" stroke-opacity="0.200000" points="234.44,-67.1 240.44,-65 234.44,-62.9 234.44,-67.1"/>
</g>
<!-- src/cli/format.js -->
<g id="node5" class="node">
<title>src/cli/format.js</title>
<g id="a_node5"><a xlink:href="src/cli/format.js" xlink:title="format.js">
<path fill="#ffffcc" stroke="black" d="M91,-279C91,-279 49,-279 49,-279 46,-279 43,-276 43,-273 43,-273 43,-267 43,-267 43,-264 46,-261 49,-261 49,-261 91,-261 91,-261 94,-261 97,-264 97,-267 97,-267 97,-273 97,-273 97,-276 94,-279 91,-279"/>
<text text-anchor="middle" x="70" y="-267.8" font-family="Helvetica,sans-Serif" font-size="9.00">format.js</text>
</a>
</g>
</g>
<!-- src/cli/format.js&#45;&gt;src/main/index.js -->
<g id="edge3" class="edge">
<title>src/cli/format.js&#45;&gt;src/main/index.js</title>
<path fill="none" stroke="#000000" stroke-width="2" stroke-opacity="0.200000" d="M97.19,-270C120.04,-270 149,-270 149,-270 149,-270 149,-256.18 149,-256.18"/>
<polygon fill="#000000" fill-opacity="0.200000" stroke="#000000" stroke-width="2" stroke-opacity="0.200000" points="151.1,-256.18 149,-250.18 146.9,-256.18 151.1,-256.18"/>
</g>
<!-- src/cli/index.js -->
<g id="node6" class="node">
<title>src/cli/index.js</title>
<g id="a_node6"><a xlink:href="src/cli/index.js" xlink:title="index.js">
<path fill="#ffffcc" stroke="black" d="M91,-249C91,-249 49,-249 49,-249 46,-249 43,-246 43,-243 43,-243 43,-237 43,-237 43,-234 46,-231 49,-231 49,-231 91,-231 91,-231 94,-231 97,-234 97,-237 97,-237 97,-243 97,-243 97,-246 94,-249 91,-249"/>
<text text-anchor="middle" x="70" y="-237.8" font-family="Helvetica,sans-Serif" font-size="9.00">index.js</text>
</a>
</g>
</g>
<!-- src/cli/index.js&#45;&gt;src/main/index.js -->
<g id="edge4" class="edge">
<title>src/cli/index.js&#45;&gt;src/main/index.js</title>
<path fill="none" stroke="#000000" stroke-width="2" stroke-opacity="0.200000" d="M97.05,-243.33C97.05,-243.33 135.98,-243.33 135.98,-243.33"/>
<polygon fill="#000000" fill-opacity="0.200000" stroke="#000000" stroke-width="2" stroke-opacity="0.200000" points="135.98,-245.43 141.98,-243.33 135.98,-241.23 135.98,-245.43"/>
</g>
<!-- src/main/options/defaults.json -->
<g id="node23" class="node">
<title>src/main/options/defaults.json</title>
<g id="a_node23"><a xlink:href="src/main/options/defaults.json" xlink:title="defaults.json">
<path fill="#ffee44" stroke="black" d="M588,-50C588,-50 532,-50 532,-50 529,-50 526,-47 526,-44 526,-44 526,-38 526,-38 526,-35 529,-32 532,-32 532,-32 588,-32 588,-32 591,-32 594,-35 594,-38 594,-38 594,-44 594,-44 594,-47 591,-50 588,-50"/>
<text text-anchor="middle" x="560" y="-38.8" font-family="Helvetica,sans-Serif" font-size="9.00">defaults.json</text>
</a>
</g>
</g>
<!-- src/main/options/normalize.js&#45;&gt;src/main/options/defaults.json -->
<g id="edge23" class="edge">
<title>src/main/options/normalize.js&#45;&gt;src/main/options/defaults.json</title>
<path fill="none" stroke="#000000" stroke-width="2" stroke-opacity="0.200000" d="M446.36,-38C446.36,-38 519.76,-38 519.76,-38"/>
<polygon fill="#000000" fill-opacity="0.200000" stroke="#000000" stroke-width="2" stroke-opacity="0.200000" points="519.76,-40.1 525.76,-38 519.76,-35.9 519.76,-40.1"/>
</g>
<!-- src/main/utl/normalize&#45;re&#45;properties.js -->
<g id="node24" class="node">
<title>src/main/utl/normalize&#45;re&#45;properties.js</title>
<g id="a_node24"><a xlink:href="src/main/utl/normalize-re-properties.js" xlink:title="normalize&#45;re&#45;properties.js">
<path fill="#ffffcc" stroke="black" d="M615,-140C615,-140 505,-140 505,-140 502,-140 499,-137 499,-134 499,-134 499,-128 499,-128 499,-125 502,-122 505,-122 505,-122 615,-122 615,-122 618,-122 621,-125 621,-128 621,-128 621,-134 621,-134 621,-137 618,-140 615,-140"/>
<text text-anchor="middle" x="560" y="-128.8" font-family="Helvetica,sans-Serif" font-size="9.00">normalize&#45;re&#45;properties.js</text>
</a>
</g>
</g>
<!-- src/main/options/normalize.js&#45;&gt;src/main/utl/normalize&#45;re&#45;properties.js -->
<g id="edge22" class="edge">
<title>src/main/options/normalize.js&#45;&gt;src/main/utl/normalize&#45;re&#45;properties.js</title>
<path fill="none" stroke="#000000" stroke-width="2" stroke-opacity="0.200000" d="M446.19,-44C476.63,-44 517,-44 517,-44 517,-44 517,-115.69 517,-115.69"/>
<polygon fill="#000000" fill-opacity="0.200000" stroke="#000000" stroke-width="2" stroke-opacity="0.200000" points="514.9,-115.69 517,-121.69 519.1,-115.69 514.9,-115.69"/>
</g>
<!-- src/main/options/validate.js&#45;&gt;src/report/index.js -->
<g id="edge24" class="edge">
<title>src/main/options/validate.js&#45;&gt;src/report/index.js</title>
<path fill="none" stroke="#000000" stroke-width="2" stroke-opacity="0.200000" d="M442.25,-71C462.93,-71 487,-71 487,-71 487,-71 487,-423 487,-423 487,-423 526.82,-423 526.82,-423"/>
<polygon fill="#000000" fill-opacity="0.200000" stroke="#000000" stroke-width="2" stroke-opacity="0.200000" points="526.82,-425.1 532.82,-423 526.82,-420.9 526.82,-425.1"/>
</g>
<!-- src/main/rule&#45;set/normalize.js&#45;&gt;src/main/utl/normalize&#45;re&#45;properties.js -->
<g id="edge26" class="edge">
<title>src/main/rule&#45;set/normalize.js&#45;&gt;src/main/utl/normalize&#45;re&#45;properties.js</title>
<path fill="none" stroke="#000000" stroke-width="2" stroke-opacity="0.200000" d="M302.66,-95C368.2,-95 508,-95 508,-95 508,-95 508,-115.92 508,-115.92"/>
<polygon fill="#000000" fill-opacity="0.200000" stroke="#000000" stroke-width="2" stroke-opacity="0.200000" points="505.9,-115.92 508,-121.92 510.1,-115.92 505.9,-115.92"/>
</g>
<!-- src/main/rule&#45;set/validate.js&#45;&gt;src/main/options/validate.js -->
<g id="edge28" class="edge">
<title>src/main/rule&#45;set/validate.js&#45;&gt;src/main/options/validate.js</title>
<path fill="none" stroke="#000000" stroke-width="2" stroke-opacity="0.200000" d="M298.54,-66C298.54,-66 377.51,-66 377.51,-66"/>
<polygon fill="#000000" fill-opacity="0.200000" stroke="#000000" stroke-width="2" stroke-opacity="0.200000" points="377.51,-68.1 383.51,-66 377.51,-63.9 377.51,-68.1"/>
</g>
<!-- src/schema/configuration.schema.json -->
<g id="node25" class="node">
<title>src/schema/configuration.schema.json</title>
<g id="a_node25"><a xlink:href="src/schema/configuration.schema.json" xlink:title="configuration.schema.json">
<path fill="#ffee44" stroke="black" d="M469,-310C469,-310 357,-310 357,-310 354,-310 351,-307 351,-304 351,-304 351,-298 351,-298 351,-295 354,-292 357,-292 357,-292 469,-292 469,-292 472,-292 475,-295 475,-298 475,-298 475,-304 475,-304 475,-307 472,-310 469,-310"/>
<text text-anchor="middle" x="413" y="-298.8" font-family="Helvetica,sans-Serif" font-size="9.00">configuration.schema.json</text>
</a>
</g>
</g>
<!-- src/main/rule&#45;set/validate.js&#45;&gt;src/schema/configuration.schema.json -->
<g id="edge27" class="edge">
<title>src/main/rule&#45;set/validate.js&#45;&gt;src/schema/configuration.schema.json</title>
<path fill="none" stroke="#000000" stroke-width="2" stroke-opacity="0.200000" d="M298.72,-70C327.12,-70 366,-70 366,-70 366,-70 366,-285.94 366,-285.94"/>
<polygon fill="#000000" fill-opacity="0.200000" stroke="#000000" stroke-width="2" stroke-opacity="0.200000" points="363.9,-285.94 366,-291.94 368.1,-285.94 363.9,-285.94"/>
</g>
</g>
</svg>
