<?xml version="1.0" encoding="UTF-8" standalone="no"?>
<!DOCTYPE svg PUBLIC "-//W3C//DTD SVG 1.1//EN"
 "http://www.w3.org/Graphics/SVG/1.1/DTD/svg11.dtd">
<!-- Generated by graphviz version 9.0.0 (20230911.1827)
 -->
<!-- Title: dependency&#45;cruiser output Pages: 1 -->
<svg width="953pt" height="732pt"
 viewBox="0.00 0.00 952.88 732.00" xmlns="http://www.w3.org/2000/svg" xmlns:xlink="http://www.w3.org/1999/xlink">
<g id="graph0" class="graph" transform="scale(1 1) rotate(0) translate(4 728)">
<title>dependency&#45;cruiser output</title>
<polygon fill="white" stroke="none" points="-4,4 -4,-728 948.88,-728 948.88,4 -4,4"/>
<g id="clust1" class="cluster">
<title>cluster_src</title>
<path fill="#ffffff" stroke="black" stroke-width="2" d="M20,-8C20,-8 924.88,-8 924.88,-8 930.88,-8 936.88,-14 936.88,-20 936.88,-20 936.88,-704 936.88,-704 936.88,-710 930.88,-716 924.88,-716 924.88,-716 20,-716 20,-716 14,-716 8,-710 8,-704 8,-704 8,-20 8,-20 8,-14 14,-8 20,-8"/>
<text text-anchor="middle" x="472.44" y="-703.45" font-family="Helvetica,sans-Serif" font-weight="bold" font-size="9.00">src</text>
</g>
<g id="clust16" class="cluster">
<title>cluster_src/report</title>
<path fill="#ffffff" stroke="black" stroke-width="2" d="M711.25,-82C711.25,-82 758.25,-82 758.25,-82 764.25,-82 770.25,-88 770.25,-94 770.25,-94 770.25,-122 770.25,-122 770.25,-128 764.25,-134 758.25,-134 758.25,-134 711.25,-134 711.25,-134 705.25,-134 699.25,-128 699.25,-122 699.25,-122 699.25,-94 699.25,-94 699.25,-88 705.25,-82 711.25,-82"/>
<text text-anchor="middle" x="734.75" y="-121.45" font-family="Helvetica,sans-Serif" font-weight="bold" font-size="9.00">report</text>
</g>
<g id="clust17" class="cluster">
<title>cluster_src/schema</title>
<path fill="#ffffff" stroke="black" stroke-width="2" d="M567,-16C567,-16 679.25,-16 679.25,-16 685.25,-16 691.25,-22 691.25,-28 691.25,-28 691.25,-86 691.25,-86 691.25,-92 685.25,-98 679.25,-98 679.25,-98 567,-98 567,-98 561,-98 555,-92 555,-86 555,-86 555,-28 555,-28 555,-22 561,-16 567,-16"/>
<text text-anchor="middle" x="623.12" y="-85.45" font-family="Helvetica,sans-Serif" font-weight="bold" font-size="9.00">schema</text>
</g>
<g id="clust18" class="cluster">
<title>cluster_src/utl</title>
<path fill="#ffffff" stroke="black" stroke-width="2" d="M711.75,-626C711.75,-626 757.75,-626 757.75,-626 763.75,-626 769.75,-632 769.75,-638 769.75,-638 769.75,-666 769.75,-666 769.75,-672 763.75,-678 757.75,-678 757.75,-678 711.75,-678 711.75,-678 705.75,-678 699.75,-672 699.75,-666 699.75,-666 699.75,-638 699.75,-638 699.75,-632 705.75,-626 711.75,-626"/>
<text text-anchor="middle" x="734.75" y="-665.45" font-family="Helvetica,sans-Serif" font-weight="bold" font-size="9.00">utl</text>
</g>
<g id="clust2" class="cluster">
<title>cluster_src/cache</title>
<path fill="#ffffff" stroke="black" stroke-width="2" d="M470,-528C470,-528 519.25,-528 519.25,-528 525.25,-528 531.25,-534 531.25,-540 531.25,-540 531.25,-568 531.25,-568 531.25,-574 525.25,-580 519.25,-580 519.25,-580 470,-580 470,-580 464,-580 458,-574 458,-568 458,-568 458,-540 458,-540 458,-534 464,-528 470,-528"/>
<text text-anchor="middle" x="494.62" y="-567.45" font-family="Helvetica,sans-Serif" font-weight="bold" font-size="9.00">cache</text>
</g>
<g id="clust3" class="cluster">
<title>cluster_src/cli</title>
<path fill="#ffffff" stroke="black" stroke-width="2" d="M28,-315C28,-315 190.25,-315 190.25,-315 196.25,-315 202.25,-321 202.25,-327 202.25,-327 202.25,-385 202.25,-385 202.25,-391 196.25,-397 190.25,-397 190.25,-397 28,-397 28,-397 22,-397 16,-391 16,-385 16,-385 16,-327 16,-327 16,-321 22,-315 28,-315"/>
<text text-anchor="middle" x="109.12" y="-384.45" font-family="Helvetica,sans-Serif" font-weight="bold" font-size="9.00">cli</text>
</g>
<g id="clust4" class="cluster">
<title>cluster_src/config&#45;utl</title>
<path fill="#ffffff" stroke="black" stroke-width="2" d="M301.25,-48C301.25,-48 414.25,-48 414.25,-48 420.25,-48 426.25,-54 426.25,-60 426.25,-60 426.25,-122 426.25,-122 426.25,-128 420.25,-134 414.25,-134 414.25,-134 301.25,-134 301.25,-134 295.25,-134 289.25,-128 289.25,-122 289.25,-122 289.25,-60 289.25,-60 289.25,-54 295.25,-48 301.25,-48"/>
<text text-anchor="middle" x="357.75" y="-121.45" font-family="Helvetica,sans-Serif" font-weight="bold" font-size="9.00">config&#45;utl</text>
</g>
<g id="clust5" class="cluster">
<title>cluster_src/config&#45;utl/extract&#45;depcruise&#45;config</title>
<path fill="#ffffff" stroke="black" stroke-width="2" d="M309.25,-56C309.25,-56 406.25,-56 406.25,-56 412.25,-56 418.25,-62 418.25,-68 418.25,-68 418.25,-96 418.25,-96 418.25,-102 412.25,-108 406.25,-108 406.25,-108 309.25,-108 309.25,-108 303.25,-108 297.25,-102 297.25,-96 297.25,-96 297.25,-68 297.25,-68 297.25,-62 303.25,-56 309.25,-56"/>
<text text-anchor="middle" x="357.75" y="-95.45" font-family="Helvetica,sans-Serif" font-weight="bold" font-size="9.00">extract&#45;depcruise&#45;config</text>
</g>
<g id="clust6" class="cluster">
<title>cluster_src/enrich</title>
<path fill="#ffffff" stroke="black" stroke-width="2" d="M599.62,-450C599.62,-450 766.25,-450 766.25,-450 772.25,-450 778.25,-456 778.25,-462 778.25,-462 778.25,-524 778.25,-524 778.25,-530 772.25,-536 766.25,-536 766.25,-536 599.62,-536 599.62,-536 593.62,-536 587.62,-530 587.62,-524 587.62,-524 587.62,-462 587.62,-462 587.62,-456 593.62,-450 599.62,-450"/>
<text text-anchor="middle" x="682.94" y="-523.45" font-family="Helvetica,sans-Serif" font-weight="bold" font-size="9.00">enrich</text>
</g>
<g id="clust7" class="cluster">
<title>cluster_src/enrich/summarize</title>
<path fill="#ffffff" stroke="black" stroke-width="2" d="M711.25,-458C711.25,-458 758.25,-458 758.25,-458 764.25,-458 770.25,-464 770.25,-470 770.25,-470 770.25,-498 770.25,-498 770.25,-504 764.25,-510 758.25,-510 758.25,-510 711.25,-510 711.25,-510 705.25,-510 699.25,-504 699.25,-498 699.25,-498 699.25,-470 699.25,-470 699.25,-464 705.25,-458 711.25,-458"/>
<text text-anchor="middle" x="734.75" y="-497.45" font-family="Helvetica,sans-Serif" font-weight="bold" font-size="9.00">summarize</text>
</g>
<g id="clust8" class="cluster">
<title>cluster_src/extract</title>
<path fill="#ffffff" stroke="black" stroke-width="2" d="M592.12,-554C592.12,-554 654.12,-554 654.12,-554 660.12,-554 666.12,-560 666.12,-566 666.12,-566 666.12,-654 666.12,-654 666.12,-660 660.12,-666 654.12,-666 654.12,-666 592.12,-666 592.12,-666 586.12,-666 580.12,-660 580.12,-654 580.12,-654 580.12,-566 580.12,-566 580.12,-560 586.12,-554 592.12,-554"/>
<text text-anchor="middle" x="623.12" y="-653.45" font-family="Helvetica,sans-Serif" font-weight="bold" font-size="9.00">extract</text>
</g>
<g id="clust9" class="cluster">
<title>cluster_src/extract/transpile</title>
<path fill="#ffffff" stroke="black" stroke-width="2" d="M600.12,-562C600.12,-562 646.12,-562 646.12,-562 652.12,-562 658.12,-568 658.12,-574 658.12,-574 658.12,-602 658.12,-602 658.12,-608 652.12,-614 646.12,-614 646.12,-614 600.12,-614 600.12,-614 594.12,-614 588.12,-608 588.12,-602 588.12,-602 588.12,-574 588.12,-574 588.12,-568 594.12,-562 600.12,-562"/>
<text text-anchor="middle" x="623.12" y="-601.45" font-family="Helvetica,sans-Serif" font-weight="bold" font-size="9.00">transpile</text>
</g>
<g id="clust10" class="cluster">
<title>cluster_src/graph&#45;utl</title>
<path fill="#ffffff" stroke="black" stroke-width="2" d="M803.12,-16C803.12,-16 916.88,-16 916.88,-16 922.88,-16 928.88,-22 928.88,-28 928.88,-28 928.88,-176 928.88,-176 928.88,-182 922.88,-188 916.88,-188 916.88,-188 803.12,-188 803.12,-188 797.12,-188 791.12,-182 791.12,-176 791.12,-176 791.12,-28 791.12,-28 791.12,-22 797.12,-16 803.12,-16"/>
<text text-anchor="middle" x="860" y="-175.45" font-family="Helvetica,sans-Serif" font-weight="bold" font-size="9.00">graph&#45;utl</text>
</g>
<g id="clust11" class="cluster">
<title>cluster_src/main</title>
<path fill="#ffffff" stroke="black" stroke-width="2" d="M222.25,-142C222.25,-142 771.12,-142 771.12,-142 777.12,-142 783.12,-148 783.12,-154 783.12,-154 783.12,-430 783.12,-430 783.12,-436 777.12,-442 771.12,-442 771.12,-442 222.25,-442 222.25,-442 216.25,-442 210.25,-436 210.25,-430 210.25,-430 210.25,-154 210.25,-154 210.25,-148 216.25,-142 222.25,-142"/>
<text text-anchor="middle" x="496.69" y="-429.45" font-family="Helvetica,sans-Serif" font-weight="bold" font-size="9.00">main</text>
</g>
<g id="clust13" class="cluster">
<title>cluster_src/main/options</title>
<path fill="#ffffff" stroke="black" stroke-width="2" d="M582.75,-218C582.75,-218 763.12,-218 763.12,-218 769.12,-218 775.12,-224 775.12,-230 775.12,-230 775.12,-288 775.12,-288 775.12,-294 769.12,-300 763.12,-300 763.12,-300 582.75,-300 582.75,-300 576.75,-300 570.75,-294 570.75,-288 570.75,-288 570.75,-230 570.75,-230 570.75,-224 576.75,-218 582.75,-218"/>
<text text-anchor="middle" x="672.94" y="-287.45" font-family="Helvetica,sans-Serif" font-weight="bold" font-size="9.00">options</text>
</g>
<g id="clust14" class="cluster">
<title>cluster_src/main/resolve&#45;options</title>
<path fill="#ffffff" stroke="black" stroke-width="2" d="M462.12,-176C462.12,-176 527.12,-176 527.12,-176 533.12,-176 539.12,-182 539.12,-188 539.12,-188 539.12,-216 539.12,-216 539.12,-222 533.12,-228 527.12,-228 527.12,-228 462.12,-228 462.12,-228 456.12,-228 450.12,-222 450.12,-216 450.12,-216 450.12,-188 450.12,-188 450.12,-182 456.12,-176 462.12,-176"/>
<text text-anchor="middle" x="494.62" y="-215.45" font-family="Helvetica,sans-Serif" font-weight="bold" font-size="9.00">resolve&#45;options</text>
</g>
<g id="clust15" class="cluster">
<title>cluster_src/main/rule&#45;set</title>
<path fill="#ffffff" stroke="black" stroke-width="2" d="M454.25,-334C454.25,-334 535,-334 535,-334 541,-334 547,-340 547,-346 547,-346 547,-404 547,-404 547,-410 541,-416 535,-416 535,-416 454.25,-416 454.25,-416 448.25,-416 442.25,-410 442.25,-404 442.25,-404 442.25,-346 442.25,-346 442.25,-340 448.25,-334 454.25,-334"/>
<text text-anchor="middle" x="494.62" y="-403.45" font-family="Helvetica,sans-Serif" font-weight="bold" font-size="9.00">rule&#45;set</text>
</g>
<g id="clust12" class="cluster">
<title>cluster_src/main/files&#45;and&#45;dirs</title>
<path fill="#ffffff" stroke="black" stroke-width="2" d="M462.12,-274C462.12,-274 527.12,-274 527.12,-274 533.12,-274 539.12,-280 539.12,-286 539.12,-286 539.12,-314 539.12,-314 539.12,-320 533.12,-326 527.12,-326 527.12,-326 462.12,-326 462.12,-326 456.12,-326 450.12,-320 450.12,-314 450.12,-314 450.12,-286 450.12,-286 450.12,-280 456.12,-274 462.12,-274"/>
<text text-anchor="middle" x="494.62" y="-313.45" font-family="Helvetica,sans-Serif" font-weight="bold" font-size="9.00">files&#45;and&#45;dirs</text>
</g>
<!-- src/cache/cache.mjs -->
<g id="node1" class="node">
<title>src/cache/cache.mjs</title>
<g id="a_node1"><a xlink:href="src/cache/cache.mjs" xlink:title="cache.mjs">
<path fill="#ffffcc" stroke="black" d="M517.33,-553.88C517.33,-553.88 471.92,-553.88 471.92,-553.88 468.96,-553.88 466,-550.92 466,-547.96 466,-547.96 466,-542.04 466,-542.04 466,-539.08 468.96,-536.12 471.92,-536.12 471.92,-536.12 517.33,-536.12 517.33,-536.12 520.29,-536.12 523.25,-539.08 523.25,-542.04 523.25,-542.04 523.25,-547.96 523.25,-547.96 523.25,-550.92 520.29,-553.88 517.33,-553.88"/>
<text text-anchor="start" x="474" y="-541.33" font-family="Helvetica,sans-Serif" font-size="9.00">cache.mjs</text>
</a>
</g>
</g>
<!-- src/extract/transpile/meta.mjs -->
<g id="node2" class="node">
<title>src/extract/transpile/meta.mjs</title>
<g id="a_node2"><a xlink:href="src/extract/transpile/meta.mjs" xlink:title="meta.mjs">
<path fill="#ffffcc" stroke="black" d="M644.21,-587.88C644.21,-587.88 602.04,-587.88 602.04,-587.88 599.08,-587.88 596.12,-584.92 596.12,-581.96 596.12,-581.96 596.12,-576.04 596.12,-576.04 596.12,-573.08 599.08,-570.12 602.04,-570.12 602.04,-570.12 644.21,-570.12 644.21,-570.12 647.17,-570.12 650.12,-573.08 650.12,-576.04 650.12,-576.04 650.12,-581.96 650.12,-581.96 650.12,-584.92 647.17,-587.88 644.21,-587.88"/>
<text text-anchor="start" x="604.75" y="-575.33" font-family="Helvetica,sans-Serif" font-size="9.00">meta.mjs</text>
</a>
</g>
</g>
<!-- src/cache/cache.mjs&#45;&gt;src/extract/transpile/meta.mjs -->
<g id="edge1" class="edge">
<title>src/cache/cache.mjs&#45;&gt;src/extract/transpile/meta.mjs</title>
<path fill="none" stroke="#000000" stroke-width="2" stroke-opacity="0.200000" d="M523.63,-547.96C561.74,-547.96 623.88,-547.96 623.88,-547.96 623.88,-547.96 623.88,-560.83 623.88,-560.83"/>
<polygon fill="#000000" fill-opacity="0.200000" stroke="#000000" stroke-width="2" stroke-opacity="0.200000" points="621.78,-560.83 623.88,-566.83 625.98,-560.83 621.78,-560.83"/>
</g>
<!-- src/utl/bus.mjs -->
<g id="node3" class="node">
<title>src/utl/bus.mjs</title>
<g id="a_node3"><a xlink:href="src/utl/bus.mjs" xlink:title="bus.mjs">
<path fill="#ffffcc" stroke="black" d="M755.83,-651.88C755.83,-651.88 713.67,-651.88 713.67,-651.88 710.71,-651.88 707.75,-648.92 707.75,-645.96 707.75,-645.96 707.75,-640.04 707.75,-640.04 707.75,-637.08 710.71,-634.12 713.67,-634.12 713.67,-634.12 755.83,-634.12 755.83,-634.12 758.79,-634.12 761.75,-637.08 761.75,-640.04 761.75,-640.04 761.75,-645.96 761.75,-645.96 761.75,-648.92 758.79,-651.88 755.83,-651.88"/>
<text text-anchor="start" x="719" y="-639.33" font-family="Helvetica,sans-Serif" font-size="9.00">bus.mjs</text>
</a>
</g>
</g>
<!-- src/cache/cache.mjs&#45;&gt;src/utl/bus.mjs -->
<g id="edge2" class="edge">
<title>src/cache/cache.mjs&#45;&gt;src/utl/bus.mjs</title>
<path fill="none" stroke="#000000" stroke-width="2" stroke-opacity="0.200000" d="M523.6,-542.04C587.5,-542.04 734.88,-542.04 734.88,-542.04 734.88,-542.04 734.88,-624.66 734.88,-624.66"/>
<polygon fill="#000000" fill-opacity="0.200000" stroke="#000000" stroke-width="2" stroke-opacity="0.200000" points="732.78,-624.66 734.88,-630.66 736.98,-624.66 732.78,-624.66"/>
</g>
<!-- src/cli/format&#45;meta&#45;info.mjs -->
<g id="node4" class="node">
<title>src/cli/format&#45;meta&#45;info.mjs</title>
<g id="a_node4"><a xlink:href="src/cli/format-meta-info.mjs" xlink:title="format&#45;meta&#45;info.mjs">
<path fill="#ffffcc" stroke="black" d="M188.33,-370.88C188.33,-370.88 100.92,-370.88 100.92,-370.88 97.96,-370.88 95,-367.92 95,-364.96 95,-364.96 95,-359.04 95,-359.04 95,-356.08 97.96,-353.12 100.92,-353.12 100.92,-353.12 188.33,-353.12 188.33,-353.12 191.29,-353.12 194.25,-356.08 194.25,-359.04 194.25,-359.04 194.25,-364.96 194.25,-364.96 194.25,-367.92 191.29,-370.88 188.33,-370.88"/>
<text text-anchor="start" x="103" y="-358.32" font-family="Helvetica,sans-Serif" font-size="9.00">format&#45;meta&#45;info.mjs</text>
</a>
</g>
</g>
<!-- src/main/index.mjs -->
<g id="node5" class="node">
<title>src/main/index.mjs</title>
<g id="a_node5"><a xlink:href="src/main/index.mjs" xlink:title="index.mjs">
<path fill="#ffffcc" stroke="black" d="M267.33,-385.88C267.33,-385.88 224.17,-385.88 224.17,-385.88 221.21,-385.88 218.25,-382.92 218.25,-379.96 218.25,-379.96 218.25,-374.04 218.25,-374.04 218.25,-371.08 221.21,-368.12 224.17,-368.12 224.17,-368.12 267.33,-368.12 267.33,-368.12 270.29,-368.12 273.25,-371.08 273.25,-374.04 273.25,-374.04 273.25,-379.96 273.25,-379.96 273.25,-382.92 270.29,-385.88 267.33,-385.88"/>
<text text-anchor="start" x="226.25" y="-373.32" font-family="Helvetica,sans-Serif" font-size="9.00">index.mjs</text>
</a>
</g>
</g>
<!-- src/cli/format&#45;meta&#45;info.mjs&#45;&gt;src/main/index.mjs -->
<g id="edge3" class="edge">
<title>src/cli/format&#45;meta&#45;info.mjs&#45;&gt;src/main/index.mjs</title>
<path fill="none" stroke="#000000" stroke-width="2" stroke-opacity="0.200000" d="M194.66,-364C220.17,-364 245.88,-364 245.88,-364 245.88,-364 245.88,-364.38 245.88,-364.38"/>
<polygon fill="#000000" fill-opacity="0.200000" stroke="#000000" stroke-width="2" stroke-opacity="0.200000" points="243.78,-358.8 245.88,-364.8 247.98,-358.8 243.78,-358.8"/>
</g>
<!-- src/main/index.mjs&#45;&gt;src/extract/transpile/meta.mjs -->
<g id="edge29" class="edge">
<title>src/main/index.mjs&#45;&gt;src/extract/transpile/meta.mjs</title>
<path fill="none" stroke="#000000" stroke-width="2" stroke-opacity="0.200000" d="M245.88,-386.34C245.88,-426.44 245.88,-581.96 245.88,-581.96 245.88,-581.96 586.66,-581.96 586.66,-581.96"/>
<polygon fill="#000000" fill-opacity="0.200000" stroke="#000000" stroke-width="2" stroke-opacity="0.200000" points="586.66,-584.06 592.66,-581.96 586.66,-579.86 586.66,-584.06"/>
</g>
<!-- src/main/format.mjs -->
<g id="node7" class="node">
<title>src/main/format.mjs</title>
<g id="a_node7"><a xlink:href="src/main/format.mjs" xlink:title="format.mjs">
<path fill="#ffffcc" stroke="black" d="M517.71,-167.88C517.71,-167.88 471.54,-167.88 471.54,-167.88 468.58,-167.88 465.62,-164.92 465.62,-161.96 465.62,-161.96 465.62,-156.04 465.62,-156.04 465.62,-153.08 468.58,-150.12 471.54,-150.12 471.54,-150.12 517.71,-150.12 517.71,-150.12 520.67,-150.12 523.62,-153.08 523.62,-156.04 523.62,-156.04 523.62,-161.96 523.62,-161.96 523.62,-164.92 520.67,-167.88 517.71,-167.88"/>
<text text-anchor="start" x="473.62" y="-155.32" font-family="Helvetica,sans-Serif" font-size="9.00">format.mjs</text>
</a>
</g>
</g>
<!-- src/main/index.mjs&#45;&gt;src/main/format.mjs -->
<g id="edge28" class="edge">
<title>src/main/index.mjs&#45;&gt;src/main/format.mjs</title>
<path fill="none" stroke="#000000" stroke-width="2" stroke-opacity="0.200000" d="M273.48,-375.56C287.62,-375.56 301.88,-375.56 301.88,-375.56 301.88,-375.56 301.88,-161.96 301.88,-161.96 301.88,-161.96 456.32,-161.96 456.32,-161.96"/>
<polygon fill="#000000" fill-opacity="0.200000" stroke="#000000" stroke-width="2" stroke-opacity="0.200000" points="456.32,-164.06 462.32,-161.96 456.32,-159.86 456.32,-164.06"/>
</g>
<!-- src/main/cruise.mjs -->
<g id="node9" class="node">
<title>src/main/cruise.mjs</title>
<g id="a_node9"><a xlink:href="src/main/cruise.mjs" xlink:title="cruise.mjs">
<path fill="#ffffcc" stroke="black" d="M380.46,-359.88C380.46,-359.88 335.04,-359.88 335.04,-359.88 332.08,-359.88 329.12,-356.92 329.12,-353.96 329.12,-353.96 329.12,-348.04 329.12,-348.04 329.12,-345.08 332.08,-342.12 335.04,-342.12 335.04,-342.12 380.46,-342.12 380.46,-342.12 383.42,-342.12 386.38,-345.08 386.38,-348.04 386.38,-348.04 386.38,-353.96 386.38,-353.96 386.38,-356.92 383.42,-359.88 380.46,-359.88"/>
<text text-anchor="start" x="337.12" y="-347.32" font-family="Helvetica,sans-Serif" font-size="9.00">cruise.mjs</text>
</a>
</g>
</g>
<!-- src/main/index.mjs&#45;&gt;src/main/cruise.mjs -->
<g id="edge27" class="edge">
<title>src/main/index.mjs&#45;&gt;src/main/cruise.mjs</title>
<path fill="none" stroke="#000000" stroke-width="2" stroke-opacity="0.200000" d="M273.59,-382.44C300.38,-382.44 336.88,-382.44 336.88,-382.44 336.88,-382.44 336.88,-369.29 336.88,-369.29"/>
<polygon fill="#000000" fill-opacity="0.200000" stroke="#000000" stroke-width="2" stroke-opacity="0.200000" points="338.98,-369.29 336.88,-363.29 334.78,-369.29 338.98,-369.29"/>
</g>
<!-- src/cli/format.mjs -->
<g id="node6" class="node">
<title>src/cli/format.mjs</title>
<g id="a_node6"><a xlink:href="src/cli/format.mjs" xlink:title="format.mjs">
<path fill="#ffffcc" stroke="black" d="M76.08,-340.88C76.08,-340.88 29.92,-340.88 29.92,-340.88 26.96,-340.88 24,-337.92 24,-334.96 24,-334.96 24,-329.04 24,-329.04 24,-326.08 26.96,-323.12 29.92,-323.12 29.92,-323.12 76.08,-323.12 76.08,-323.12 79.04,-323.12 82,-326.08 82,-329.04 82,-329.04 82,-334.96 82,-334.96 82,-337.92 79.04,-340.88 76.08,-340.88"/>
<text text-anchor="start" x="32" y="-328.32" font-family="Helvetica,sans-Serif" font-size="9.00">format.mjs</text>
</a>
</g>
</g>
<!-- src/cli/format.mjs&#45;&gt;src/main/format.mjs -->
<g id="edge4" class="edge">
<title>src/cli/format.mjs&#45;&gt;src/main/format.mjs</title>
<path fill="none" stroke="#000000" stroke-width="2" stroke-opacity="0.200000" d="M53.88,-323.03C53.88,-287.18 53.88,-156.04 53.88,-156.04 53.88,-156.04 456.34,-156.04 456.34,-156.04"/>
<polygon fill="#000000" fill-opacity="0.200000" stroke="#000000" stroke-width="2" stroke-opacity="0.200000" points="456.34,-158.14 462.34,-156.04 456.34,-153.94 456.34,-158.14"/>
</g>
<!-- src/main/options/assert&#45;validity.mjs -->
<g id="node21" class="node">
<title>src/main/options/assert&#45;validity.mjs</title>
<g id="a_node21"><a xlink:href="src/main/options/assert-validity.mjs" xlink:title="assert&#45;validity.mjs">
<path fill="#ffffcc" stroke="black" d="M661.58,-273.88C661.58,-273.88 584.67,-273.88 584.67,-273.88 581.71,-273.88 578.75,-270.92 578.75,-267.96 578.75,-267.96 578.75,-262.04 578.75,-262.04 578.75,-259.08 581.71,-256.12 584.67,-256.12 584.67,-256.12 661.58,-256.12 661.58,-256.12 664.54,-256.12 667.5,-259.08 667.5,-262.04 667.5,-262.04 667.5,-267.96 667.5,-267.96 667.5,-270.92 664.54,-273.88 661.58,-273.88"/>
<text text-anchor="start" x="586.75" y="-261.32" font-family="Helvetica,sans-Serif" font-size="9.00">assert&#45;validity.mjs</text>
</a>
</g>
</g>
<!-- src/main/format.mjs&#45;&gt;src/main/options/assert&#45;validity.mjs -->
<g id="edge23" class="edge">
<title>src/main/format.mjs&#45;&gt;src/main/options/assert&#45;validity.mjs</title>
<path fill="none" stroke="#000000" stroke-width="2" stroke-opacity="0.200000" d="M523.92,-163.44C538.01,-163.44 551.88,-163.44 551.88,-163.44 551.88,-163.44 551.88,-260.56 551.88,-260.56 551.88,-260.56 569.38,-260.56 569.38,-260.56"/>
<polygon fill="#000000" fill-opacity="0.200000" stroke="#000000" stroke-width="2" stroke-opacity="0.200000" points="569.38,-262.66 575.38,-260.56 569.38,-258.46 569.38,-262.66"/>
</g>
<!-- src/main/options/normalize.mjs -->
<g id="node22" class="node">
<title>src/main/options/normalize.mjs</title>
<g id="a_node22"><a xlink:href="src/main/options/normalize.mjs" xlink:title="normalize.mjs">
<path fill="#ffffcc" stroke="black" d="M653.71,-243.88C653.71,-243.88 592.54,-243.88 592.54,-243.88 589.58,-243.88 586.62,-240.92 586.62,-237.96 586.62,-237.96 586.62,-232.04 586.62,-232.04 586.62,-229.08 589.58,-226.12 592.54,-226.12 592.54,-226.12 653.71,-226.12 653.71,-226.12 656.67,-226.12 659.62,-229.08 659.62,-232.04 659.62,-232.04 659.62,-237.96 659.62,-237.96 659.62,-240.92 656.67,-243.88 653.71,-243.88"/>
<text text-anchor="start" x="594.62" y="-231.32" font-family="Helvetica,sans-Serif" font-size="9.00">normalize.mjs</text>
</a>
</g>
</g>
<!-- src/main/format.mjs&#45;&gt;src/main/options/normalize.mjs -->
<g id="edge24" class="edge">
<title>src/main/format.mjs&#45;&gt;src/main/options/normalize.mjs</title>
<path fill="none" stroke="#000000" stroke-width="2" stroke-opacity="0.200000" d="M524.03,-159C540.55,-159 557.88,-159 557.88,-159 557.88,-159 557.88,-232.04 557.88,-232.04 557.88,-232.04 577.28,-232.04 577.28,-232.04"/>
<polygon fill="#000000" fill-opacity="0.200000" stroke="#000000" stroke-width="2" stroke-opacity="0.200000" points="577.28,-234.14 583.28,-232.04 577.28,-229.94 577.28,-234.14"/>
</g>
<!-- src/main/report&#45;wrap.mjs -->
<g id="node23" class="node">
<title>src/main/report&#45;wrap.mjs</title>
<g id="a_node23"><a xlink:href="src/main/report-wrap.mjs" xlink:title="report&#45;wrap.mjs">
<path fill="#ffffcc" stroke="black" d="M657.08,-167.88C657.08,-167.88 589.17,-167.88 589.17,-167.88 586.21,-167.88 583.25,-164.92 583.25,-161.96 583.25,-161.96 583.25,-156.04 583.25,-156.04 583.25,-153.08 586.21,-150.12 589.17,-150.12 589.17,-150.12 657.08,-150.12 657.08,-150.12 660.04,-150.12 663,-153.08 663,-156.04 663,-156.04 663,-161.96 663,-161.96 663,-164.92 660.04,-167.88 657.08,-167.88"/>
<text text-anchor="start" x="591.25" y="-155.32" font-family="Helvetica,sans-Serif" font-size="9.00">report&#45;wrap.mjs</text>
</a>
</g>
</g>
<!-- src/main/format.mjs&#45;&gt;src/main/report&#45;wrap.mjs -->
<g id="edge25" class="edge">
<title>src/main/format.mjs&#45;&gt;src/main/report&#45;wrap.mjs</title>
<path fill="none" stroke="#000000" stroke-width="2" stroke-opacity="0.200000" d="M524.11,-154.56C524.11,-154.56 574.04,-154.56 574.04,-154.56"/>
<polygon fill="#000000" fill-opacity="0.200000" stroke="#000000" stroke-width="2" stroke-opacity="0.200000" points="574.04,-156.66 580.04,-154.56 574.04,-152.46 574.04,-156.66"/>
</g>
<!-- src/schema/cruise&#45;result.schema.mjs -->
<g id="node26" class="node">
<title>src/schema/cruise&#45;result.schema.mjs</title>
<g id="a_node26"><a xlink:href="src/schema/cruise-result.schema.mjs" xlink:title="cruise&#45;result.schema.mjs">
<path fill="#ffffcc" stroke="black" d="M675.83,-41.88C675.83,-41.88 570.42,-41.88 570.42,-41.88 567.46,-41.88 564.5,-38.92 564.5,-35.96 564.5,-35.96 564.5,-30.04 564.5,-30.04 564.5,-27.08 567.46,-24.12 570.42,-24.12 570.42,-24.12 675.83,-24.12 675.83,-24.12 678.79,-24.12 681.75,-27.08 681.75,-30.04 681.75,-30.04 681.75,-35.96 681.75,-35.96 681.75,-38.92 678.79,-41.88 675.83,-41.88"/>
<text text-anchor="start" x="572.5" y="-29.32" font-family="Helvetica,sans-Serif" font-size="9.00">cruise&#45;result.schema.mjs</text>
</a>
</g>
</g>
<!-- src/main/format.mjs&#45;&gt;src/schema/cruise&#45;result.schema.mjs -->
<g id="edge26" class="edge">
<title>src/main/format.mjs&#45;&gt;src/schema/cruise&#45;result.schema.mjs</title>
<path fill="none" stroke="#000000" stroke-width="2" stroke-opacity="0.200000" d="M494.88,-149.94C494.88,-121.05 494.88,-33 494.88,-33 494.88,-33 555.23,-33 555.23,-33"/>
<polygon fill="#000000" fill-opacity="0.200000" stroke="#000000" stroke-width="2" stroke-opacity="0.200000" points="555.23,-35.1 561.23,-33 555.23,-30.9 555.23,-35.1"/>
</g>
<!-- src/cli/index.mjs -->
<g id="node8" class="node">
<title>src/cli/index.mjs</title>
<g id="a_node8"><a xlink:href="src/cli/index.mjs" xlink:title="index.mjs">
<path fill="#ffffcc" stroke="black" d="M74.58,-370.88C74.58,-370.88 31.42,-370.88 31.42,-370.88 28.46,-370.88 25.5,-367.92 25.5,-364.96 25.5,-364.96 25.5,-359.04 25.5,-359.04 25.5,-356.08 28.46,-353.12 31.42,-353.12 31.42,-353.12 74.58,-353.12 74.58,-353.12 77.54,-353.12 80.5,-356.08 80.5,-359.04 80.5,-359.04 80.5,-364.96 80.5,-364.96 80.5,-367.92 77.54,-370.88 74.58,-370.88"/>
<text text-anchor="start" x="33.5" y="-358.32" font-family="Helvetica,sans-Serif" font-size="9.00">index.mjs</text>
</a>
</g>
</g>
<!-- src/cli/index.mjs&#45;&gt;src/utl/bus.mjs -->
<g id="edge7" class="edge">
<title>src/cli/index.mjs&#45;&gt;src/utl/bus.mjs</title>
<path fill="none" stroke="#000000" stroke-width="2" stroke-opacity="0.200000" d="M43.88,-371.22C43.88,-420.32 43.88,-648.88 43.88,-648.88 43.88,-648.88 698.64,-648.88 698.64,-648.88"/>
<polygon fill="#000000" fill-opacity="0.200000" stroke="#000000" stroke-width="2" stroke-opacity="0.200000" points="698.64,-650.98 704.64,-648.88 698.64,-646.78 698.64,-650.98"/>
</g>
<!-- src/cli/index.mjs&#45;&gt;src/cli/format&#45;meta&#45;info.mjs -->
<g id="edge5" class="edge">
<title>src/cli/index.mjs&#45;&gt;src/cli/format&#45;meta&#45;info.mjs</title>
<path fill="none" stroke="#000000" stroke-width="2" stroke-dasharray="5,2" stroke-opacity="0.200000" d="M80.99,-362C80.99,-362 85.81,-362 85.81,-362"/>
<polygon fill="#000000" fill-opacity="0.200000" stroke="#000000" stroke-width="2" stroke-opacity="0.200000" points="85.81,-364.1 91.81,-362 85.81,-359.9 85.81,-364.1"/>
</g>
<!-- src/cli/index.mjs&#45;&gt;src/main/cruise.mjs -->
<g id="edge6" class="edge">
<title>src/cli/index.mjs&#45;&gt;src/main/cruise.mjs</title>
<path fill="none" stroke="#000000" stroke-width="2" stroke-opacity="0.200000" d="M62.88,-371.17C62.88,-388.87 62.88,-426 62.88,-426 62.88,-426 343.88,-426 343.88,-426 343.88,-426 343.88,-369.22 343.88,-369.22"/>
<polygon fill="#000000" fill-opacity="0.200000" stroke="#000000" stroke-width="2" stroke-opacity="0.200000" points="345.98,-369.22 343.88,-363.22 341.78,-369.22 345.98,-369.22"/>
</g>
<!-- src/main/cruise.mjs&#45;&gt;src/cache/cache.mjs -->
<g id="edge19" class="edge">
<title>src/main/cruise.mjs&#45;&gt;src/cache/cache.mjs</title>
<path fill="none" stroke="#000000" stroke-width="2" stroke-dasharray="5,2" stroke-opacity="0.200000" d="M365.88,-360.36C365.88,-399.11 365.88,-545 365.88,-545 365.88,-545 456.7,-545 456.7,-545"/>
<polygon fill="#000000" fill-opacity="0.200000" stroke="#000000" stroke-width="2" stroke-opacity="0.200000" points="456.7,-547.1 462.7,-545 456.7,-542.9 456.7,-547.1"/>
</g>
<!-- src/main/cruise.mjs&#45;&gt;src/utl/bus.mjs -->
<g id="edge22" class="edge">
<title>src/main/cruise.mjs&#45;&gt;src/utl/bus.mjs</title>
<path fill="none" stroke="#000000" stroke-width="2" stroke-opacity="0.200000" d="M350.88,-360.15C350.88,-409.92 350.88,-645.88 350.88,-645.88 350.88,-645.88 698.42,-645.88 698.42,-645.88"/>
<polygon fill="#000000" fill-opacity="0.200000" stroke="#000000" stroke-width="2" stroke-opacity="0.200000" points="698.42,-647.98 704.42,-645.88 698.42,-643.78 698.42,-647.98"/>
</g>
<!-- src/main/resolve&#45;options/normalize.mjs -->
<g id="node11" class="node">
<title>src/main/resolve&#45;options/normalize.mjs</title>
<g id="a_node11"><a xlink:href="src/main/resolve-options/normalize.mjs" xlink:title="normalize.mjs">
<path fill="#ffffcc" stroke="black" d="M525.21,-201.88C525.21,-201.88 464.04,-201.88 464.04,-201.88 461.08,-201.88 458.12,-198.92 458.12,-195.96 458.12,-195.96 458.12,-190.04 458.12,-190.04 458.12,-187.08 461.08,-184.12 464.04,-184.12 464.04,-184.12 525.21,-184.12 525.21,-184.12 528.17,-184.12 531.12,-187.08 531.12,-190.04 531.12,-190.04 531.12,-195.96 531.12,-195.96 531.12,-198.92 528.17,-201.88 525.21,-201.88"/>
<text text-anchor="start" x="466.12" y="-189.32" font-family="Helvetica,sans-Serif" font-size="9.00">normalize.mjs</text>
</a>
</g>
</g>
<!-- src/main/cruise.mjs&#45;&gt;src/main/resolve&#45;options/normalize.mjs -->
<g id="edge16" class="edge">
<title>src/main/cruise.mjs&#45;&gt;src/main/resolve&#45;options/normalize.mjs</title>
<path fill="none" stroke="#000000" stroke-width="2" stroke-dasharray="5,2" stroke-opacity="0.200000" d="M348.88,-342.05C348.88,-308.63 348.88,-193 348.88,-193 348.88,-193 448.82,-193 448.82,-193"/>
<polygon fill="#000000" fill-opacity="0.200000" stroke="#000000" stroke-width="2" stroke-opacity="0.200000" points="448.82,-195.1 454.82,-193 448.82,-190.9 448.82,-195.1"/>
</g>
<!-- src/enrich/index.mjs -->
<g id="node12" class="node">
<title>src/enrich/index.mjs</title>
<g id="a_node12"><a xlink:href="src/enrich/index.mjs" xlink:title="index.mjs">
<path fill="#ffffcc" stroke="black" d="M644.71,-479.88C644.71,-479.88 601.54,-479.88 601.54,-479.88 598.58,-479.88 595.62,-476.92 595.62,-473.96 595.62,-473.96 595.62,-468.04 595.62,-468.04 595.62,-465.08 598.58,-462.12 601.54,-462.12 601.54,-462.12 644.71,-462.12 644.71,-462.12 647.67,-462.12 650.62,-465.08 650.62,-468.04 650.62,-468.04 650.62,-473.96 650.62,-473.96 650.62,-476.92 647.67,-479.88 644.71,-479.88"/>
<text text-anchor="start" x="603.62" y="-467.32" font-family="Helvetica,sans-Serif" font-size="9.00">index.mjs</text>
</a>
</g>
</g>
<!-- src/main/cruise.mjs&#45;&gt;src/enrich/index.mjs -->
<g id="edge20" class="edge">
<title>src/main/cruise.mjs&#45;&gt;src/enrich/index.mjs</title>
<path fill="none" stroke="#000000" stroke-width="2" stroke-dasharray="5,2" stroke-opacity="0.200000" d="M372.88,-360.02C372.88,-387.93 372.88,-471 372.88,-471 372.88,-471 586.36,-471 586.36,-471"/>
<polygon fill="#000000" fill-opacity="0.200000" stroke="#000000" stroke-width="2" stroke-opacity="0.200000" points="586.36,-473.1 592.36,-471 586.36,-468.9 586.36,-473.1"/>
</g>
<!-- src/extract/index.mjs -->
<g id="node15" class="node">
<title>src/extract/index.mjs</title>
<g id="a_node15"><a xlink:href="src/extract/index.mjs" xlink:title="index.mjs">
<path fill="#ffffcc" stroke="black" d="M644.71,-639.88C644.71,-639.88 601.54,-639.88 601.54,-639.88 598.58,-639.88 595.62,-636.92 595.62,-633.96 595.62,-633.96 595.62,-628.04 595.62,-628.04 595.62,-625.08 598.58,-622.12 601.54,-622.12 601.54,-622.12 644.71,-622.12 644.71,-622.12 647.67,-622.12 650.62,-625.08 650.62,-628.04 650.62,-628.04 650.62,-633.96 650.62,-633.96 650.62,-636.92 647.67,-639.88 644.71,-639.88"/>
<text text-anchor="start" x="603.62" y="-627.33" font-family="Helvetica,sans-Serif" font-size="9.00">index.mjs</text>
</a>
</g>
</g>
<!-- src/main/cruise.mjs&#45;&gt;src/extract/index.mjs -->
<g id="edge21" class="edge">
<title>src/main/cruise.mjs&#45;&gt;src/extract/index.mjs</title>
<path fill="none" stroke="#000000" stroke-width="2" stroke-dasharray="5,2" stroke-opacity="0.200000" d="M357.88,-360.32C357.88,-408.9 357.88,-631 357.88,-631 357.88,-631 586.21,-631 586.21,-631"/>
<polygon fill="#000000" fill-opacity="0.200000" stroke="#000000" stroke-width="2" stroke-opacity="0.200000" points="586.21,-633.1 592.21,-631 586.21,-628.9 586.21,-633.1"/>
</g>
<!-- src/main/files&#45;and&#45;dirs/normalize.mjs -->
<g id="node20" class="node">
<title>src/main/files&#45;and&#45;dirs/normalize.mjs</title>
<g id="a_node20"><a xlink:href="src/main/files-and-dirs/normalize.mjs" xlink:title="normalize.mjs">
<path fill="#ffffcc" stroke="black" d="M525.21,-299.88C525.21,-299.88 464.04,-299.88 464.04,-299.88 461.08,-299.88 458.12,-296.92 458.12,-293.96 458.12,-293.96 458.12,-288.04 458.12,-288.04 458.12,-285.08 461.08,-282.12 464.04,-282.12 464.04,-282.12 525.21,-282.12 525.21,-282.12 528.17,-282.12 531.12,-285.08 531.12,-288.04 531.12,-288.04 531.12,-293.96 531.12,-293.96 531.12,-296.92 528.17,-299.88 525.21,-299.88"/>
<text text-anchor="start" x="466.12" y="-287.32" font-family="Helvetica,sans-Serif" font-size="9.00">normalize.mjs</text>
</a>
</g>
</g>
<!-- src/main/cruise.mjs&#45;&gt;src/main/files&#45;and&#45;dirs/normalize.mjs -->
<g id="edge12" class="edge">
<title>src/main/cruise.mjs&#45;&gt;src/main/files&#45;and&#45;dirs/normalize.mjs</title>
<path fill="none" stroke="#000000" stroke-width="2" stroke-dasharray="5,2" stroke-opacity="0.200000" d="M376.88,-341.62C376.88,-324.75 376.88,-291 376.88,-291 376.88,-291 448.66,-291 448.66,-291"/>
<polygon fill="#000000" fill-opacity="0.200000" stroke="#000000" stroke-width="2" stroke-opacity="0.200000" points="448.66,-293.1 454.66,-291 448.66,-288.9 448.66,-293.1"/>
</g>
<!-- src/main/cruise.mjs&#45;&gt;src/main/options/assert&#45;validity.mjs -->
<g id="edge13" class="edge">
<title>src/main/cruise.mjs&#45;&gt;src/main/options/assert&#45;validity.mjs</title>
<path fill="none" stroke="#000000" stroke-width="2" stroke-opacity="0.200000" d="M367.88,-341.8C367.88,-319.61 367.88,-265 367.88,-265 367.88,-265 569.34,-265 569.34,-265"/>
<polygon fill="#000000" fill-opacity="0.200000" stroke="#000000" stroke-width="2" stroke-opacity="0.200000" points="569.34,-267.1 575.34,-265 569.34,-262.9 569.34,-267.1"/>
</g>
<!-- src/main/cruise.mjs&#45;&gt;src/main/options/normalize.mjs -->
<g id="edge14" class="edge">
<title>src/main/cruise.mjs&#45;&gt;src/main/options/normalize.mjs</title>
<path fill="none" stroke="#000000" stroke-width="2" stroke-opacity="0.200000" d="M357.88,-341.75C357.88,-314.75 357.88,-237.96 357.88,-237.96 357.88,-237.96 577.22,-237.96 577.22,-237.96"/>
<polygon fill="#000000" fill-opacity="0.200000" stroke="#000000" stroke-width="2" stroke-opacity="0.200000" points="577.22,-240.06 583.22,-237.96 577.22,-235.86 577.22,-240.06"/>
</g>
<!-- src/main/cruise.mjs&#45;&gt;src/main/report&#45;wrap.mjs -->
<g id="edge15" class="edge">
<title>src/main/cruise.mjs&#45;&gt;src/main/report&#45;wrap.mjs</title>
<path fill="none" stroke="#000000" stroke-width="2" stroke-opacity="0.200000" d="M339.88,-341.74C339.88,-305.95 339.88,-178.71 339.88,-178.71 339.88,-178.71 611.88,-178.71 611.88,-178.71 611.88,-178.71 611.88,-176.96 611.88,-176.96"/>
<polygon fill="#000000" fill-opacity="0.200000" stroke="#000000" stroke-width="2" stroke-opacity="0.200000" points="613.98,-176.96 611.88,-170.96 609.78,-176.96 613.98,-176.96"/>
</g>
<!-- src/main/rule&#45;set/assert&#45;validity.mjs -->
<g id="node24" class="node">
<title>src/main/rule&#45;set/assert&#45;validity.mjs</title>
<g id="a_node24"><a xlink:href="src/main/rule-set/assert-validity.mjs" xlink:title="assert&#45;validity.mjs">
<path fill="#ffffcc" stroke="black" d="M533.08,-359.88C533.08,-359.88 456.17,-359.88 456.17,-359.88 453.21,-359.88 450.25,-356.92 450.25,-353.96 450.25,-353.96 450.25,-348.04 450.25,-348.04 450.25,-345.08 453.21,-342.12 456.17,-342.12 456.17,-342.12 533.08,-342.12 533.08,-342.12 536.04,-342.12 539,-345.08 539,-348.04 539,-348.04 539,-353.96 539,-353.96 539,-356.92 536.04,-359.88 533.08,-359.88"/>
<text text-anchor="start" x="458.25" y="-347.32" font-family="Helvetica,sans-Serif" font-size="9.00">assert&#45;validity.mjs</text>
</a>
</g>
</g>
<!-- src/main/cruise.mjs&#45;&gt;src/main/rule&#45;set/assert&#45;validity.mjs -->
<g id="edge17" class="edge">
<title>src/main/cruise.mjs&#45;&gt;src/main/rule&#45;set/assert&#45;validity.mjs</title>
<path fill="none" stroke="#000000" stroke-width="2" stroke-dasharray="5,2" stroke-opacity="0.200000" d="M386.78,-351C386.78,-351 440.98,-351 440.98,-351"/>
<polygon fill="#000000" fill-opacity="0.200000" stroke="#000000" stroke-width="2" stroke-opacity="0.200000" points="440.98,-353.1 446.98,-351 440.98,-348.9 440.98,-353.1"/>
</g>
<!-- src/main/rule&#45;set/normalize.mjs -->
<g id="node25" class="node">
<title>src/main/rule&#45;set/normalize.mjs</title>
<g id="a_node25"><a xlink:href="src/main/rule-set/normalize.mjs" xlink:title="normalize.mjs">
<path fill="#ffffcc" stroke="black" d="M525.21,-389.88C525.21,-389.88 464.04,-389.88 464.04,-389.88 461.08,-389.88 458.12,-386.92 458.12,-383.96 458.12,-383.96 458.12,-378.04 458.12,-378.04 458.12,-375.08 461.08,-372.12 464.04,-372.12 464.04,-372.12 525.21,-372.12 525.21,-372.12 528.17,-372.12 531.12,-375.08 531.12,-378.04 531.12,-378.04 531.12,-383.96 531.12,-383.96 531.12,-386.92 528.17,-389.88 525.21,-389.88"/>
<text text-anchor="start" x="466.12" y="-377.32" font-family="Helvetica,sans-Serif" font-size="9.00">normalize.mjs</text>
</a>
</g>
</g>
<!-- src/main/cruise.mjs&#45;&gt;src/main/rule&#45;set/normalize.mjs -->
<g id="edge18" class="edge">
<title>src/main/cruise.mjs&#45;&gt;src/main/rule&#45;set/normalize.mjs</title>
<path fill="none" stroke="#000000" stroke-width="2" stroke-dasharray="5,2" stroke-opacity="0.200000" d="M379.88,-360.17C379.88,-368.33 379.88,-379 379.88,-379 379.88,-379 448.66,-379 448.66,-379"/>
<polygon fill="#000000" fill-opacity="0.200000" stroke="#000000" stroke-width="2" stroke-opacity="0.200000" points="448.66,-381.1 454.66,-379 448.66,-376.9 448.66,-381.1"/>
</g>
<!-- src/config&#45;utl/extract&#45;depcruise&#45;config/index.mjs -->
<g id="node10" class="node">
<title>src/config&#45;utl/extract&#45;depcruise&#45;config/index.mjs</title>
<g id="a_node10"><a xlink:href="src/config-utl/extract-depcruise-config/index.mjs" xlink:title="index.mjs">
<path fill="#ffffcc" stroke="black" d="M379.33,-81.88C379.33,-81.88 336.17,-81.88 336.17,-81.88 333.21,-81.88 330.25,-78.92 330.25,-75.96 330.25,-75.96 330.25,-70.04 330.25,-70.04 330.25,-67.08 333.21,-64.12 336.17,-64.12 336.17,-64.12 379.33,-64.12 379.33,-64.12 382.29,-64.12 385.25,-67.08 385.25,-70.04 385.25,-70.04 385.25,-75.96 385.25,-75.96 385.25,-78.92 382.29,-81.88 379.33,-81.88"/>
<text text-anchor="start" x="338.25" y="-69.33" font-family="Helvetica,sans-Serif" font-size="9.00">index.mjs</text>
</a>
</g>
</g>
<!-- src/config&#45;utl/extract&#45;depcruise&#45;config/index.mjs&#45;&gt;src/main/resolve&#45;options/normalize.mjs -->
<g id="edge8" class="edge">
<title>src/config&#45;utl/extract&#45;depcruise&#45;config/index.mjs&#45;&gt;src/main/resolve&#45;options/normalize.mjs</title>
<path fill="none" stroke="#000000" stroke-width="2" stroke-opacity="0.200000" d="M385.65,-76.88C416.5,-76.88 461.88,-76.88 461.88,-76.88 461.88,-76.88 461.88,-174.86 461.88,-174.86"/>
<polygon fill="#000000" fill-opacity="0.200000" stroke="#000000" stroke-width="2" stroke-opacity="0.200000" points="459.78,-174.86 461.88,-180.86 463.98,-174.86 459.78,-174.86"/>
</g>
<!-- src/main/resolve&#45;options/normalize.mjs&#45;&gt;src/extract/transpile/meta.mjs -->
<g id="edge39" class="edge">
<title>src/main/resolve&#45;options/normalize.mjs&#45;&gt;src/extract/transpile/meta.mjs</title>
<path fill="none" stroke="#000000" stroke-width="2" stroke-opacity="0.200000" d="M531.6,-195.96C539.68,-195.96 545.88,-195.96 545.88,-195.96 545.88,-195.96 545.88,-576.04 545.88,-576.04 545.88,-576.04 586.64,-576.04 586.64,-576.04"/>
<polygon fill="#000000" fill-opacity="0.200000" stroke="#000000" stroke-width="2" stroke-opacity="0.200000" points="586.64,-578.14 592.64,-576.04 586.64,-573.94 586.64,-578.14"/>
</g>
<!-- src/graph&#45;utl/rule&#45;set.mjs -->
<g id="node18" class="node">
<title>src/graph&#45;utl/rule&#45;set.mjs</title>
<g id="a_node18"><a xlink:href="src/graph-utl/rule-set.mjs" xlink:title="rule&#45;set.mjs">
<path fill="#ffffcc" stroke="black" d="M885.71,-41.88C885.71,-41.88 834.29,-41.88 834.29,-41.88 831.33,-41.88 828.38,-38.92 828.38,-35.96 828.38,-35.96 828.38,-30.04 828.38,-30.04 828.38,-27.08 831.33,-24.12 834.29,-24.12 834.29,-24.12 885.71,-24.12 885.71,-24.12 888.67,-24.12 891.62,-27.08 891.62,-30.04 891.62,-30.04 891.62,-35.96 891.62,-35.96 891.62,-38.92 888.67,-41.88 885.71,-41.88"/>
<text text-anchor="start" x="836.38" y="-29.32" font-family="Helvetica,sans-Serif" font-size="9.00">rule&#45;set.mjs</text>
</a>
</g>
</g>
<!-- src/main/resolve&#45;options/normalize.mjs&#45;&gt;src/graph&#45;utl/rule&#45;set.mjs -->
<g id="edge40" class="edge">
<title>src/main/resolve&#45;options/normalize.mjs&#45;&gt;src/graph&#45;utl/rule&#45;set.mjs</title>
<path fill="none" stroke="#000000" stroke-width="2" stroke-opacity="0.200000" d="M531.39,-190.04C607.63,-190.04 775.88,-190.04 775.88,-190.04 775.88,-190.04 775.88,-33 775.88,-33 775.88,-33 819.17,-33 819.17,-33"/>
<polygon fill="#000000" fill-opacity="0.200000" stroke="#000000" stroke-width="2" stroke-opacity="0.200000" points="819.17,-35.1 825.17,-33 819.17,-30.9 819.17,-35.1"/>
</g>
<!-- src/enrich/summarize/index.mjs -->
<g id="node13" class="node">
<title>src/enrich/summarize/index.mjs</title>
<g id="a_node13"><a xlink:href="src/enrich/summarize/index.mjs" xlink:title="index.mjs">
<path fill="#ffffcc" stroke="black" d="M756.33,-483.88C756.33,-483.88 713.17,-483.88 713.17,-483.88 710.21,-483.88 707.25,-480.92 707.25,-477.96 707.25,-477.96 707.25,-472.04 707.25,-472.04 707.25,-469.08 710.21,-466.12 713.17,-466.12 713.17,-466.12 756.33,-466.12 756.33,-466.12 759.29,-466.12 762.25,-469.08 762.25,-472.04 762.25,-472.04 762.25,-477.96 762.25,-477.96 762.25,-480.92 759.29,-483.88 756.33,-483.88"/>
<text text-anchor="start" x="715.25" y="-471.32" font-family="Helvetica,sans-Serif" font-size="9.00">index.mjs</text>
</a>
</g>
</g>
<!-- src/enrich/index.mjs&#45;&gt;src/enrich/summarize/index.mjs -->
<g id="edge9" class="edge">
<title>src/enrich/index.mjs&#45;&gt;src/enrich/summarize/index.mjs</title>
<path fill="none" stroke="#000000" stroke-width="2" stroke-opacity="0.200000" d="M651,-475.29C651,-475.29 697.81,-475.29 697.81,-475.29"/>
<polygon fill="#000000" fill-opacity="0.200000" stroke="#000000" stroke-width="2" stroke-opacity="0.200000" points="697.81,-477.39 703.81,-475.29 697.81,-473.19 697.81,-477.39"/>
</g>
<!-- src/graph&#45;utl/compare.mjs -->
<g id="node14" class="node">
<title>src/graph&#45;utl/compare.mjs</title>
<g id="a_node14"><a xlink:href="src/graph-utl/compare.mjs" xlink:title="compare.mjs">
<path fill="#ffffcc" stroke="black" d="M888.33,-161.88C888.33,-161.88 831.67,-161.88 831.67,-161.88 828.71,-161.88 825.75,-158.92 825.75,-155.96 825.75,-155.96 825.75,-150.04 825.75,-150.04 825.75,-147.08 828.71,-144.12 831.67,-144.12 831.67,-144.12 888.33,-144.12 888.33,-144.12 891.29,-144.12 894.25,-147.08 894.25,-150.04 894.25,-150.04 894.25,-155.96 894.25,-155.96 894.25,-158.92 891.29,-161.88 888.33,-161.88"/>
<text text-anchor="start" x="833.75" y="-149.32" font-family="Helvetica,sans-Serif" font-size="9.00">compare.mjs</text>
</a>
</g>
</g>
<!-- src/enrich/summarize/index.mjs&#45;&gt;src/graph&#45;utl/compare.mjs -->
<g id="edge10" class="edge">
<title>src/enrich/summarize/index.mjs&#45;&gt;src/graph&#45;utl/compare.mjs</title>
<path fill="none" stroke="#000000" stroke-width="2" stroke-opacity="0.200000" d="M762.74,-475C799.9,-475 860.88,-475 860.88,-475 860.88,-475 860.88,-171.32 860.88,-171.32"/>
<polygon fill="#000000" fill-opacity="0.200000" stroke="#000000" stroke-width="2" stroke-opacity="0.200000" points="862.98,-171.32 860.88,-165.32 858.78,-171.32 862.98,-171.32"/>
</g>
<!-- src/extract/index.mjs&#45;&gt;src/utl/bus.mjs -->
<g id="edge11" class="edge">
<title>src/extract/index.mjs&#45;&gt;src/utl/bus.mjs</title>
<path fill="none" stroke="#000000" stroke-width="2" stroke-opacity="0.200000" d="M623.88,-640.12C623.88,-641.72 623.88,-642.88 623.88,-642.88 623.88,-642.88 698.32,-642.88 698.32,-642.88"/>
<polygon fill="#000000" fill-opacity="0.200000" stroke="#000000" stroke-width="2" stroke-opacity="0.200000" points="698.32,-644.98 704.32,-642.88 698.32,-640.78 698.32,-644.98"/>
</g>
<!-- src/graph&#45;utl/consolidate&#45;to&#45;pattern.mjs -->
<g id="node16" class="node">
<title>src/graph&#45;utl/consolidate&#45;to&#45;pattern.mjs</title>
<g id="a_node16"><a xlink:href="src/graph-utl/consolidate-to-pattern.mjs" xlink:title="consolidate&#45;to&#45;pattern.mjs">
<path fill="#ffffcc" stroke="black" d="M914.96,-131.88C914.96,-131.88 805.04,-131.88 805.04,-131.88 802.08,-131.88 799.12,-128.92 799.12,-125.96 799.12,-125.96 799.12,-120.04 799.12,-120.04 799.12,-117.08 802.08,-114.12 805.04,-114.12 805.04,-114.12 914.96,-114.12 914.96,-114.12 917.92,-114.12 920.88,-117.08 920.88,-120.04 920.88,-120.04 920.88,-125.96 920.88,-125.96 920.88,-128.92 917.92,-131.88 914.96,-131.88"/>
<text text-anchor="start" x="807.12" y="-119.33" font-family="Helvetica,sans-Serif" font-size="9.00">consolidate&#45;to&#45;pattern.mjs</text>
</a>
</g>
</g>
<!-- src/graph&#45;utl/filter&#45;bank.mjs -->
<g id="node17" class="node">
<title>src/graph&#45;utl/filter&#45;bank.mjs</title>
<g id="a_node17"><a xlink:href="src/graph-utl/filter-bank.mjs" xlink:title="filter&#45;bank.mjs">
<path fill="#ffffcc" stroke="black" d="M890.58,-71.88C890.58,-71.88 829.42,-71.88 829.42,-71.88 826.46,-71.88 823.5,-68.92 823.5,-65.96 823.5,-65.96 823.5,-60.04 823.5,-60.04 823.5,-57.08 826.46,-54.12 829.42,-54.12 829.42,-54.12 890.58,-54.12 890.58,-54.12 893.54,-54.12 896.5,-57.08 896.5,-60.04 896.5,-60.04 896.5,-65.96 896.5,-65.96 896.5,-68.92 893.54,-71.88 890.58,-71.88"/>
<text text-anchor="start" x="831.5" y="-59.33" font-family="Helvetica,sans-Serif" font-size="9.00">filter&#45;bank.mjs</text>
</a>
</g>
</g>
<!-- src/graph&#45;utl/strip&#45;self&#45;transitions.mjs -->
<g id="node19" class="node">
<title>src/graph&#45;utl/strip&#45;self&#45;transitions.mjs</title>
<g id="a_node19"><a xlink:href="src/graph-utl/strip-self-transitions.mjs" xlink:title="strip&#45;self&#45;transitions.mjs">
<path fill="#ffffcc" stroke="black" d="M910.08,-101.88C910.08,-101.88 809.92,-101.88 809.92,-101.88 806.96,-101.88 804,-98.92 804,-95.96 804,-95.96 804,-90.04 804,-90.04 804,-87.08 806.96,-84.12 809.92,-84.12 809.92,-84.12 910.08,-84.12 910.08,-84.12 913.04,-84.12 916,-87.08 916,-90.04 916,-90.04 916,-95.96 916,-95.96 916,-98.92 913.04,-101.88 910.08,-101.88"/>
<text text-anchor="start" x="812" y="-89.33" font-family="Helvetica,sans-Serif" font-size="9.00">strip&#45;self&#45;transitions.mjs</text>
</a>
</g>
</g>
<!-- src/report/index.mjs -->
<g id="node29" class="node">
<title>src/report/index.mjs</title>
<g id="a_node29"><a xlink:href="src/report/index.mjs" xlink:title="index.mjs">
<path fill="#ffffcc" stroke="black" d="M756.33,-107.88C756.33,-107.88 713.17,-107.88 713.17,-107.88 710.21,-107.88 707.25,-104.92 707.25,-101.96 707.25,-101.96 707.25,-96.04 707.25,-96.04 707.25,-93.08 710.21,-90.12 713.17,-90.12 713.17,-90.12 756.33,-90.12 756.33,-90.12 759.29,-90.12 762.25,-93.08 762.25,-96.04 762.25,-96.04 762.25,-101.96 762.25,-101.96 762.25,-104.92 759.29,-107.88 756.33,-107.88"/>
<text text-anchor="start" x="715.25" y="-95.33" font-family="Helvetica,sans-Serif" font-size="9.00">index.mjs</text>
</a>
</g>
</g>
<!-- src/main/options/assert&#45;validity.mjs&#45;&gt;src/report/index.mjs -->
<g id="edge30" class="edge">
<title>src/main/options/assert&#45;validity.mjs&#45;&gt;src/report/index.mjs</title>
<path fill="none" stroke="#000000" stroke-width="2" stroke-opacity="0.200000" d="M667.92,-265C670.98,-265 672.88,-265 672.88,-265 672.88,-265 672.88,-99 672.88,-99 672.88,-99 698.04,-99 698.04,-99"/>
<polygon fill="#000000" fill-opacity="0.200000" stroke="#000000" stroke-width="2" stroke-opacity="0.200000" points="698.04,-101.1 704.04,-99 698.04,-96.9 698.04,-101.1"/>
</g>
<!-- src/main/helpers.mjs -->
<g id="node27" class="node">
<title>src/main/helpers.mjs</title>
<g id="a_node27"><a xlink:href="src/main/helpers.mjs" xlink:title="helpers.mjs">
<path fill="#ffffcc" stroke="black" d="M760.46,-359.88C760.46,-359.88 709.04,-359.88 709.04,-359.88 706.08,-359.88 703.12,-356.92 703.12,-353.96 703.12,-353.96 703.12,-348.04 703.12,-348.04 703.12,-345.08 706.08,-342.12 709.04,-342.12 709.04,-342.12 760.46,-342.12 760.46,-342.12 763.42,-342.12 766.38,-345.08 766.38,-348.04 766.38,-348.04 766.38,-353.96 766.38,-353.96 766.38,-356.92 763.42,-359.88 760.46,-359.88"/>
<text text-anchor="start" x="711.12" y="-347.32" font-family="Helvetica,sans-Serif" font-size="9.00">helpers.mjs</text>
</a>
</g>
</g>
<!-- src/main/options/normalize.mjs&#45;&gt;src/main/helpers.mjs -->
<g id="edge31" class="edge">
<title>src/main/options/normalize.mjs&#45;&gt;src/main/helpers.mjs</title>
<path fill="none" stroke="#000000" stroke-width="2" stroke-opacity="0.200000" d="M660,-237.96C670.37,-237.96 678.88,-237.96 678.88,-237.96 678.88,-237.96 678.88,-348.04 678.88,-348.04 678.88,-348.04 693.87,-348.04 693.87,-348.04"/>
<polygon fill="#000000" fill-opacity="0.200000" stroke="#000000" stroke-width="2" stroke-opacity="0.200000" points="693.87,-350.14 699.87,-348.04 693.87,-345.94 693.87,-350.14"/>
</g>
<!-- src/main/options/defaults.mjs -->
<g id="node30" class="node">
<title>src/main/options/defaults.mjs</title>
<g id="a_node30"><a xlink:href="src/main/options/defaults.mjs" xlink:title="defaults.mjs">
<path fill="#ffffcc" stroke="black" d="M761.21,-243.88C761.21,-243.88 708.29,-243.88 708.29,-243.88 705.33,-243.88 702.38,-240.92 702.38,-237.96 702.38,-237.96 702.38,-232.04 702.38,-232.04 702.38,-229.08 705.33,-226.12 708.29,-226.12 708.29,-226.12 761.21,-226.12 761.21,-226.12 764.17,-226.12 767.12,-229.08 767.12,-232.04 767.12,-232.04 767.12,-237.96 767.12,-237.96 767.12,-240.92 764.17,-243.88 761.21,-243.88"/>
<text text-anchor="start" x="710.38" y="-231.32" font-family="Helvetica,sans-Serif" font-size="9.00">defaults.mjs</text>
</a>
</g>
</g>
<!-- src/main/options/normalize.mjs&#45;&gt;src/main/options/defaults.mjs -->
<g id="edge32" class="edge">
<title>src/main/options/normalize.mjs&#45;&gt;src/main/options/defaults.mjs</title>
<path fill="none" stroke="#000000" stroke-width="2" stroke-opacity="0.200000" d="M659.98,-232.04C659.98,-232.04 693.03,-232.04 693.03,-232.04"/>
<polygon fill="#000000" fill-opacity="0.200000" stroke="#000000" stroke-width="2" stroke-opacity="0.200000" points="693.03,-234.14 699.03,-232.04 693.03,-229.94 693.03,-234.14"/>
</g>
<!-- src/main/report&#45;wrap.mjs&#45;&gt;src/enrich/summarize/index.mjs -->
<g id="edge33" class="edge">
<title>src/main/report&#45;wrap.mjs&#45;&gt;src/enrich/summarize/index.mjs</title>
<path fill="none" stroke="#000000" stroke-width="2" stroke-opacity="0.200000" d="M635.88,-168.13C635.88,-170.93 635.88,-173.29 635.88,-173.29 635.88,-173.29 692.88,-173.29 692.88,-173.29 692.88,-173.29 692.88,-470.71 692.88,-470.71 692.88,-470.71 698.02,-470.71 698.02,-470.71"/>
<polygon fill="#000000" fill-opacity="0.200000" stroke="#000000" stroke-width="2" stroke-opacity="0.200000" points="698.02,-472.81 704.02,-470.71 698.02,-468.61 698.02,-472.81"/>
</g>
<!-- src/main/report&#45;wrap.mjs&#45;&gt;src/graph&#45;utl/compare.mjs -->
<g id="edge34" class="edge">
<title>src/main/report&#45;wrap.mjs&#45;&gt;src/graph&#45;utl/compare.mjs</title>
<path fill="none" stroke="#000000" stroke-width="2" stroke-opacity="0.200000" d="M663.31,-159.92C663.31,-159.92 816.38,-159.92 816.38,-159.92"/>
<polygon fill="#000000" fill-opacity="0.200000" stroke="#000000" stroke-width="2" stroke-opacity="0.200000" points="816.38,-162.02 822.38,-159.92 816.38,-157.82 816.38,-162.02"/>
</g>
<!-- src/main/report&#45;wrap.mjs&#45;&gt;src/graph&#45;utl/consolidate&#45;to&#45;pattern.mjs -->
<g id="edge35" class="edge">
<title>src/main/report&#45;wrap.mjs&#45;&gt;src/graph&#45;utl/consolidate&#45;to&#45;pattern.mjs</title>
<path fill="none" stroke="#000000" stroke-width="2" stroke-opacity="0.200000" d="M663.37,-157.96C719.07,-157.96 812.88,-157.96 812.88,-157.96 812.88,-157.96 812.88,-141.21 812.88,-141.21"/>
<polygon fill="#000000" fill-opacity="0.200000" stroke="#000000" stroke-width="2" stroke-opacity="0.200000" points="814.98,-141.21 812.88,-135.21 810.78,-141.21 814.98,-141.21"/>
</g>
<!-- src/main/report&#45;wrap.mjs&#45;&gt;src/graph&#45;utl/filter&#45;bank.mjs -->
<g id="edge36" class="edge">
<title>src/main/report&#45;wrap.mjs&#45;&gt;src/graph&#45;utl/filter&#45;bank.mjs</title>
<path fill="none" stroke="#000000" stroke-width="2" stroke-opacity="0.200000" d="M663.27,-154.04C710.89,-154.04 783.88,-154.04 783.88,-154.04 783.88,-154.04 783.88,-63 783.88,-63 783.88,-63 814.25,-63 814.25,-63"/>
<polygon fill="#000000" fill-opacity="0.200000" stroke="#000000" stroke-width="2" stroke-opacity="0.200000" points="814.25,-65.1 820.25,-63 814.25,-60.9 814.25,-65.1"/>
</g>
<!-- src/main/report&#45;wrap.mjs&#45;&gt;src/graph&#45;utl/strip&#45;self&#45;transitions.mjs -->
<g id="edge37" class="edge">
<title>src/main/report&#45;wrap.mjs&#45;&gt;src/graph&#45;utl/strip&#45;self&#45;transitions.mjs</title>
<path fill="none" stroke="#000000" stroke-width="2" stroke-opacity="0.200000" d="M663.12,-156C713.02,-156 791.88,-156 791.88,-156 791.88,-156 791.88,-96 791.88,-96 791.88,-96 794.71,-96 794.71,-96"/>
<polygon fill="#000000" fill-opacity="0.200000" stroke="#000000" stroke-width="2" stroke-opacity="0.200000" points="794.71,-98.1 800.71,-96 794.71,-93.9 794.71,-98.1"/>
</g>
<!-- src/main/report&#45;wrap.mjs&#45;&gt;src/report/index.mjs -->
<g id="edge38" class="edge">
<title>src/main/report&#45;wrap.mjs&#45;&gt;src/report/index.mjs</title>
<path fill="none" stroke="#000000" stroke-width="2" stroke-opacity="0.200000" d="M663.47,-152.08C695.48,-152.08 734.88,-152.08 734.88,-152.08 734.88,-152.08 734.88,-117.27 734.88,-117.27"/>
<polygon fill="#000000" fill-opacity="0.200000" stroke="#000000" stroke-width="2" stroke-opacity="0.200000" points="736.98,-117.27 734.88,-111.27 732.78,-117.27 736.98,-117.27"/>
</g>
<!-- src/main/rule&#45;set/assert&#45;validity.mjs&#45;&gt;src/main/options/assert&#45;validity.mjs -->
<g id="edge42" class="edge">
<title>src/main/rule&#45;set/assert&#45;validity.mjs&#45;&gt;src/main/options/assert&#45;validity.mjs</title>
<path fill="none" stroke="#000000" stroke-width="2" stroke-opacity="0.200000" d="M536.88,-341.64C536.88,-320.22 536.88,-269.44 536.88,-269.44 536.88,-269.44 569.46,-269.44 569.46,-269.44"/>
<polygon fill="#000000" fill-opacity="0.200000" stroke="#000000" stroke-width="2" stroke-opacity="0.200000" points="569.46,-271.54 575.46,-269.44 569.46,-267.34 569.46,-271.54"/>
</g>
<!-- src/main/rule&#45;set/assert&#45;validity.mjs&#45;&gt;src/main/helpers.mjs -->
<g id="edge41" class="edge">
<title>src/main/rule&#45;set/assert&#45;validity.mjs&#45;&gt;src/main/helpers.mjs</title>
<path fill="none" stroke="#000000" stroke-width="2" stroke-opacity="0.200000" d="M539.23,-353.96C539.23,-353.96 693.64,-353.96 693.64,-353.96"/>
<polygon fill="#000000" fill-opacity="0.200000" stroke="#000000" stroke-width="2" stroke-opacity="0.200000" points="693.64,-356.06 699.64,-353.96 693.64,-351.86 693.64,-356.06"/>
</g>
<!-- src/schema/configuration.schema.mjs -->
<g id="node31" class="node">
<title>src/schema/configuration.schema.mjs</title>
<g id="a_node31"><a xlink:href="src/schema/configuration.schema.mjs" xlink:title="configuration.schema.mjs">
<path fill="#ffffcc" stroke="black" d="M677.33,-71.88C677.33,-71.88 568.92,-71.88 568.92,-71.88 565.96,-71.88 563,-68.92 563,-65.96 563,-65.96 563,-60.04 563,-60.04 563,-57.08 565.96,-54.12 568.92,-54.12 568.92,-54.12 677.33,-54.12 677.33,-54.12 680.29,-54.12 683.25,-57.08 683.25,-60.04 683.25,-60.04 683.25,-65.96 683.25,-65.96 683.25,-68.92 680.29,-71.88 677.33,-71.88"/>
<text text-anchor="start" x="571" y="-59.33" font-family="Helvetica,sans-Serif" font-size="9.00">configuration.schema.mjs</text>
</a>
</g>
</g>
<!-- src/main/rule&#45;set/assert&#45;validity.mjs&#45;&gt;src/schema/configuration.schema.mjs -->
<g id="edge43" class="edge">
<title>src/main/rule&#45;set/assert&#45;validity.mjs&#45;&gt;src/schema/configuration.schema.mjs</title>
<path fill="none" stroke="#000000" stroke-width="2" stroke-opacity="0.200000" d="M533.88,-341.9C533.88,-293.46 533.88,-68 533.88,-68 533.88,-68 553.58,-68 553.58,-68"/>
<polygon fill="#000000" fill-opacity="0.200000" stroke="#000000" stroke-width="2" stroke-opacity="0.200000" points="553.58,-70.1 559.58,-68 553.58,-65.9 553.58,-70.1"/>
</g>
<!-- src/main/rule&#45;set/normalize.mjs&#45;&gt;src/main/helpers.mjs -->
<g id="edge44" class="edge">
<title>src/main/rule&#45;set/normalize.mjs&#45;&gt;src/main/helpers.mjs</title>
<path fill="none" stroke="#000000" stroke-width="2" stroke-opacity="0.200000" d="M531.38,-381C598.68,-381 734.88,-381 734.88,-381 734.88,-381 734.88,-369.19 734.88,-369.19"/>
<polygon fill="#000000" fill-opacity="0.200000" stroke="#000000" stroke-width="2" stroke-opacity="0.200000" points="736.98,-369.19 734.88,-363.19 732.78,-369.19 736.98,-369.19"/>
</g>
<!-- src/main/index.d.ts -->
<g id="node28" class="node">
<title>src/main/index.d.ts</title>
<g id="a_node28"><a xlink:href="src/main/index.d.ts" xlink:title="index.d.ts">
<path fill="#ccffcc" stroke="black" d="M267.33,-355.88C267.33,-355.88 224.17,-355.88 224.17,-355.88 221.21,-355.88 218.25,-352.92 218.25,-349.96 218.25,-349.96 218.25,-344.04 218.25,-344.04 218.25,-341.08 221.21,-338.12 224.17,-338.12 224.17,-338.12 267.33,-338.12 267.33,-338.12 270.29,-338.12 273.25,-341.08 273.25,-344.04 273.25,-344.04 273.25,-349.96 273.25,-349.96 273.25,-352.92 270.29,-355.88 267.33,-355.88"/>
<text text-anchor="start" x="226.25" y="-343.32" font-family="Helvetica,sans-Serif" font-size="9.00">index.d.ts</text>
</a>
</g>
</g>
</g>
</svg>
