<?xml version="1.0" encoding="UTF-8" standalone="no"?>
<!DOCTYPE svg PUBLIC "-//W3C//DTD SVG 1.1//EN"
 "http://www.w3.org/Graphics/SVG/1.1/DTD/svg11.dtd">
<!-- Generated by graphviz version 2.44.0 (20200408.0750)
 -->
<!-- Title: dependency&#45;cruiser output Pages: 1 -->
<svg width="584pt" height="538pt"
 viewBox="0.00 0.00 584.00 538.00" xmlns="http://www.w3.org/2000/svg" xmlns:xlink="http://www.w3.org/1999/xlink">
<g id="graph0" class="graph" transform="scale(1 1) rotate(0) translate(4 534)">
<title>dependency&#45;cruiser output</title>
<polygon fill="white" stroke="transparent" points="-4,4 -4,-534 580,-534 580,4 -4,4"/>
<g id="clust1" class="cluster">
<title>cluster_src</title>
<path fill="#ffffff" stroke="black" stroke-width="2" d="M20,-8C20,-8 556,-8 556,-8 562,-8 568,-14 568,-20 568,-20 568,-510 568,-510 568,-516 562,-522 556,-522 556,-522 20,-522 20,-522 14,-522 8,-516 8,-510 8,-510 8,-20 8,-20 8,-14 14,-8 20,-8"/>
<text text-anchor="middle" x="288" y="-510.8" font-family="Helvetica,sans-Serif" font-weight="bold" font-size="9.00">src</text>
</g>
<g id="clust2" class="cluster">
<title>cluster_src/cli</title>
<path fill="#ffffff" stroke="black" stroke-width="2" d="M28,-114C28,-114 112,-114 112,-114 118,-114 124,-120 124,-126 124,-126 124,-274 124,-274 124,-280 118,-286 112,-286 112,-286 28,-286 28,-286 22,-286 16,-280 16,-274 16,-274 16,-126 16,-126 16,-120 22,-114 28,-114"/>
<text text-anchor="middle" x="70" y="-274.8" font-family="Helvetica,sans-Serif" font-weight="bold" font-size="9.00">cli</text>
</g>
<g id="clust3" class="cluster">
<title>cluster_src/cli/compile&#45;config</title>
<path fill="#ffffff" stroke="black" stroke-width="2" d="M42,-122C42,-122 98,-122 98,-122 104,-122 110,-128 110,-134 110,-134 110,-162 110,-162 110,-168 104,-174 98,-174 98,-174 42,-174 42,-174 36,-174 30,-168 30,-162 30,-162 30,-134 30,-134 30,-128 36,-122 42,-122"/>
<text text-anchor="middle" x="70" y="-162.8" font-family="Helvetica,sans-Serif" font-weight="bold" font-size="9.00">compile&#45;config</text>
</g>
<g id="clust4" class="cluster">
<title>cluster_src/enrich</title>
<path fill="#ffffff" stroke="black" stroke-width="2" d="M238,-284C238,-284 284,-284 284,-284 290,-284 296,-290 296,-296 296,-296 296,-324 296,-324 296,-330 290,-336 284,-336 284,-336 238,-336 238,-336 232,-336 226,-330 226,-324 226,-324 226,-296 226,-296 226,-290 232,-284 238,-284"/>
<text text-anchor="middle" x="261" y="-324.8" font-family="Helvetica,sans-Serif" font-weight="bold" font-size="9.00">enrich</text>
</g>
<g id="clust5" class="cluster">
<title>cluster_src/extract</title>
<path fill="#ffffff" stroke="black" stroke-width="2" d="M366,-374C366,-374 428,-374 428,-374 434,-374 440,-380 440,-386 440,-386 440,-474 440,-474 440,-480 434,-486 428,-486 428,-486 366,-486 366,-486 360,-486 354,-480 354,-474 354,-474 354,-386 354,-386 354,-380 360,-374 366,-374"/>
<text text-anchor="middle" x="397" y="-474.8" font-family="Helvetica,sans-Serif" font-weight="bold" font-size="9.00">extract</text>
</g>
<g id="clust6" class="cluster">
<title>cluster_src/extract/transpile</title>
<path fill="#ffffff" stroke="black" stroke-width="2" d="M374,-382C374,-382 420,-382 420,-382 426,-382 432,-388 432,-394 432,-394 432,-422 432,-422 432,-428 426,-434 420,-434 420,-434 374,-434 374,-434 368,-434 362,-428 362,-422 362,-422 362,-394 362,-394 362,-388 368,-382 374,-382"/>
<text text-anchor="middle" x="397" y="-422.8" font-family="Helvetica,sans-Serif" font-weight="bold" font-size="9.00">transpile</text>
</g>
<g id="clust7" class="cluster">
<title>cluster_src/main</title>
<path fill="#ffffff" stroke="black" stroke-width="2" d="M146,-16C146,-16 548,-16 548,-16 554,-16 560,-22 560,-28 560,-28 560,-264 560,-264 560,-270 554,-276 548,-276 548,-276 146,-276 146,-276 140,-276 134,-270 134,-264 134,-264 134,-28 134,-28 134,-22 140,-16 146,-16"/>
<text text-anchor="middle" x="347" y="-264.8" font-family="Helvetica,sans-Serif" font-weight="bold" font-size="9.00">main</text>
</g>
<g id="clust8" class="cluster">
<title>cluster_src/main/files&#45;and&#45;dirs</title>
<path fill="#ffffff" stroke="black" stroke-width="2" d="M232,-198C232,-198 290,-198 290,-198 296,-198 302,-204 302,-210 302,-210 302,-238 302,-238 302,-244 296,-250 290,-250 290,-250 232,-250 232,-250 226,-250 220,-244 220,-238 220,-238 220,-210 220,-210 220,-204 226,-198 232,-198"/>
<text text-anchor="middle" x="261" y="-238.8" font-family="Helvetica,sans-Serif" font-weight="bold" font-size="9.00">files&#45;and&#45;dirs</text>
</g>
<g id="clust9" class="cluster">
<title>cluster_src/main/options</title>
<path fill="#ffffff" stroke="black" stroke-width="2" d="M368,-24C368,-24 540,-24 540,-24 546,-24 552,-30 552,-36 552,-36 552,-94 552,-94 552,-100 546,-106 540,-106 540,-106 368,-106 368,-106 362,-106 356,-100 356,-94 356,-94 356,-36 356,-36 356,-30 362,-24 368,-24"/>
<text text-anchor="middle" x="454" y="-94.8" font-family="Helvetica,sans-Serif" font-weight="bold" font-size="9.00">options</text>
</g>
<g id="clust10" class="cluster">
<title>cluster_src/main/resolve&#45;options</title>
<path fill="#ffffff" stroke="black" stroke-width="2" d="M232,-138C232,-138 291,-138 291,-138 297,-138 303,-144 303,-150 303,-150 303,-178 303,-178 303,-184 297,-190 291,-190 291,-190 232,-190 232,-190 226,-190 220,-184 220,-178 220,-178 220,-150 220,-150 220,-144 226,-138 232,-138"/>
<text text-anchor="middle" x="261.5" y="-178.8" font-family="Helvetica,sans-Serif" font-weight="bold" font-size="9.00">resolve&#45;options</text>
</g>
<g id="clust11" class="cluster">
<title>cluster_src/main/rule&#45;set</title>
<path fill="#ffffff" stroke="black" stroke-width="2" d="M232,-48C232,-48 290,-48 290,-48 296,-48 302,-54 302,-60 302,-60 302,-118 302,-118 302,-124 296,-130 290,-130 290,-130 232,-130 232,-130 226,-130 220,-124 220,-118 220,-118 220,-60 220,-60 220,-54 226,-48 232,-48"/>
<text text-anchor="middle" x="261" y="-118.8" font-family="Helvetica,sans-Serif" font-weight="bold" font-size="9.00">rule&#45;set</text>
</g>
<g id="clust12" class="cluster">
<title>cluster_src/main/utl</title>
<path fill="#ffffff" stroke="black" stroke-width="2" d="M340,-114C340,-114 454,-114 454,-114 460,-114 466,-120 466,-126 466,-126 466,-154 466,-154 466,-160 460,-166 454,-166 454,-166 340,-166 340,-166 334,-166 328,-160 328,-154 328,-154 328,-126 328,-126 328,-120 334,-114 340,-114"/>
<text text-anchor="middle" x="397" y="-154.8" font-family="Helvetica,sans-Serif" font-weight="bold" font-size="9.00">utl</text>
</g>
<g id="clust13" class="cluster">
<title>cluster_src/report</title>
<path fill="#ffffff" stroke="black" stroke-width="2" d="M487,-364C487,-364 533,-364 533,-364 539,-364 545,-370 545,-376 545,-376 545,-404 545,-404 545,-410 539,-416 533,-416 533,-416 487,-416 487,-416 481,-416 475,-410 475,-404 475,-404 475,-376 475,-376 475,-370 481,-364 487,-364"/>
<text text-anchor="middle" x="510" y="-404.8" font-family="Helvetica,sans-Serif" font-weight="bold" font-size="9.00">report</text>
</g>
<g id="clust14" class="cluster">
<title>cluster_src/schema</title>
<path fill="#ffffff" stroke="black" stroke-width="2" d="M339,-284C339,-284 455,-284 455,-284 461,-284 467,-290 467,-296 467,-296 467,-354 467,-354 467,-360 461,-366 455,-366 455,-366 339,-366 339,-366 333,-366 327,-360 327,-354 327,-354 327,-296 327,-296 327,-290 333,-284 339,-284"/>
<text text-anchor="middle" x="397" y="-354.8" font-family="Helvetica,sans-Serif" font-weight="bold" font-size="9.00">schema</text>
</g>
<!-- src/cli/compile&#45;config/index.js -->
<g id="node1" class="node">
<title>src/cli/compile&#45;config/index.js</title>
<g id="a_node1"><a xlink:href="src/cli/compile-config/index.js" xlink:title="index.js">
<path fill="#ffffcc" stroke="black" d="M91,-148C91,-148 49,-148 49,-148 46,-148 43,-145 43,-142 43,-142 43,-136 43,-136 43,-133 46,-130 49,-130 49,-130 91,-130 91,-130 94,-130 97,-133 97,-136 97,-136 97,-142 97,-142 97,-145 94,-148 91,-148"/>
<text text-anchor="middle" x="70" y="-136.8" font-family="Helvetica,sans-Serif" font-size="9.00">index.js</text>
</a>
</g>
</g>
<!-- src/main/resolve&#45;options/normalize.js -->
<g id="node2" class="node">
<title>src/main/resolve&#45;options/normalize.js</title>
<g id="a_node2"><a xlink:href="src/main/resolve-options/normalize.js" xlink:title="normalize.js">
<path fill="#ffffcc" stroke="black" d="M288,-164C288,-164 234,-164 234,-164 231,-164 228,-161 228,-158 228,-158 228,-152 228,-152 228,-149 231,-146 234,-146 234,-146 288,-146 288,-146 291,-146 294,-149 294,-152 294,-152 294,-158 294,-158 294,-161 291,-164 288,-164"/>
<text text-anchor="middle" x="261" y="-152.8" font-family="Helvetica,sans-Serif" font-size="9.00">normalize.js</text>
</a>
</g>
</g>
<!-- src/cli/compile&#45;config/index.js&#45;&gt;src/main/resolve&#45;options/normalize.js -->
<g id="edge1" class="edge">
<title>src/cli/compile&#45;config/index.js&#45;&gt;src/main/resolve&#45;options/normalize.js</title>
<path fill="none" stroke="#000000" stroke-width="2" stroke-opacity="0.200000" d="M70,-148.16C70,-150.97 70,-153.33 70,-153.33 70,-153.33 221.73,-153.33 221.73,-153.33"/>
<polygon fill="#000000" fill-opacity="0.200000" stroke="#000000" stroke-width="2" stroke-opacity="0.200000" points="221.73,-155.43 227.73,-153.33 221.73,-151.23 221.73,-155.43"/>
</g>
<!-- src/extract/transpile/meta.js -->
<g id="node9" class="node">
<title>src/extract/transpile/meta.js</title>
<g id="a_node9"><a xlink:href="src/extract/transpile/meta.js" xlink:title="meta.js">
<path fill="#ffffcc" stroke="black" d="M418,-408C418,-408 376,-408 376,-408 373,-408 370,-405 370,-402 370,-402 370,-396 370,-396 370,-393 373,-390 376,-390 376,-390 418,-390 418,-390 421,-390 424,-393 424,-396 424,-396 424,-402 424,-402 424,-405 421,-408 418,-408"/>
<text text-anchor="middle" x="397" y="-396.8" font-family="Helvetica,sans-Serif" font-size="9.00">meta.js</text>
</a>
</g>
</g>
<!-- src/main/resolve&#45;options/normalize.js&#45;&gt;src/extract/transpile/meta.js -->
<g id="edge18" class="edge">
<title>src/main/resolve&#45;options/normalize.js&#45;&gt;src/extract/transpile/meta.js</title>
<path fill="none" stroke="#000000" stroke-width="2" stroke-opacity="0.200000" d="M294.15,-155C301.93,-155 308,-155 308,-155 308,-155 308,-396 308,-396 308,-396 363.81,-396 363.81,-396"/>
<polygon fill="#000000" fill-opacity="0.200000" stroke="#000000" stroke-width="2" stroke-opacity="0.200000" points="363.81,-398.1 369.81,-396 363.81,-393.9 363.81,-398.1"/>
</g>
<!-- src/cli/format&#45;meta&#45;info.js -->
<g id="node3" class="node">
<title>src/cli/format&#45;meta&#45;info.js</title>
<g id="a_node3"><a xlink:href="src/cli/format-meta-info.js" xlink:title="format&#45;meta&#45;info.js">
<path fill="#ffffcc" stroke="black" d="M110,-200C110,-200 30,-200 30,-200 27,-200 24,-197 24,-194 24,-194 24,-188 24,-188 24,-185 27,-182 30,-182 30,-182 110,-182 110,-182 113,-182 116,-185 116,-188 116,-188 116,-194 116,-194 116,-197 113,-200 110,-200"/>
<text text-anchor="middle" x="70" y="-188.8" font-family="Helvetica,sans-Serif" font-size="9.00">format&#45;meta&#45;info.js</text>
</a>
</g>
</g>
<!-- src/main/index.js -->
<g id="node4" class="node">
<title>src/main/index.js</title>
<g id="a_node4"><a xlink:href="src/main/index.js" xlink:title="index.js">
<path fill="#ffffcc" stroke="black" d="M190,-227C190,-227 148,-227 148,-227 145,-227 142,-224 142,-221 142,-221 142,-215 142,-215 142,-212 145,-209 148,-209 148,-209 190,-209 190,-209 193,-209 196,-212 196,-215 196,-215 196,-221 196,-221 196,-224 193,-227 190,-227"/>
<text text-anchor="middle" x="169" y="-215.8" font-family="Helvetica,sans-Serif" font-size="9.00">index.js</text>
</a>
</g>
</g>
<!-- src/cli/format&#45;meta&#45;info.js&#45;&gt;src/main/index.js -->
<g id="edge2" class="edge">
<title>src/cli/format&#45;meta&#45;info.js&#45;&gt;src/main/index.js</title>
<path fill="none" stroke="#000000" stroke-width="2" stroke-opacity="0.200000" d="M107,-200.09C107,-207.59 107,-217 107,-217 107,-217 135.99,-217 135.99,-217"/>
<polygon fill="#000000" fill-opacity="0.200000" stroke="#000000" stroke-width="2" stroke-opacity="0.200000" points="135.99,-219.1 141.99,-217 135.99,-214.9 135.99,-219.1"/>
</g>
<!-- src/main/index.js&#45;&gt;src/main/resolve&#45;options/normalize.js -->
<g id="edge13" class="edge">
<title>src/main/index.js&#45;&gt;src/main/resolve&#45;options/normalize.js</title>
<path fill="none" stroke="#000000" stroke-width="2" stroke-opacity="0.200000" d="M187,-208.99C187,-192.39 187,-158.67 187,-158.67 187,-158.67 221.9,-158.67 221.9,-158.67"/>
<polygon fill="#000000" fill-opacity="0.200000" stroke="#000000" stroke-width="2" stroke-opacity="0.200000" points="221.9,-160.77 227.9,-158.67 221.9,-156.57 221.9,-160.77"/>
</g>
<!-- src/enrich/index.js -->
<g id="node7" class="node">
<title>src/enrich/index.js</title>
<g id="a_node7"><a xlink:href="src/enrich/index.js" xlink:title="index.js">
<path fill="#ffffcc" stroke="black" d="M282,-310C282,-310 240,-310 240,-310 237,-310 234,-307 234,-304 234,-304 234,-298 234,-298 234,-295 237,-292 240,-292 240,-292 282,-292 282,-292 285,-292 288,-295 288,-298 288,-298 288,-304 288,-304 288,-307 285,-310 282,-310"/>
<text text-anchor="middle" x="261" y="-298.8" font-family="Helvetica,sans-Serif" font-size="9.00">index.js</text>
</a>
</g>
</g>
<!-- src/main/index.js&#45;&gt;src/enrich/index.js -->
<g id="edge5" class="edge">
<title>src/main/index.js&#45;&gt;src/enrich/index.js</title>
<path fill="none" stroke="#000000" stroke-width="2" stroke-opacity="0.200000" d="M189,-227.2C189,-248.81 189,-301 189,-301 189,-301 227.78,-301 227.78,-301"/>
<polygon fill="#000000" fill-opacity="0.200000" stroke="#000000" stroke-width="2" stroke-opacity="0.200000" points="227.78,-303.1 233.78,-301 227.78,-298.9 227.78,-303.1"/>
</g>
<!-- src/extract/index.js -->
<g id="node8" class="node">
<title>src/extract/index.js</title>
<g id="a_node8"><a xlink:href="src/extract/index.js" xlink:title="index.js">
<path fill="#ffffcc" stroke="black" d="M418,-460C418,-460 376,-460 376,-460 373,-460 370,-457 370,-454 370,-454 370,-448 370,-448 370,-445 373,-442 376,-442 376,-442 418,-442 418,-442 421,-442 424,-445 424,-448 424,-448 424,-454 424,-454 424,-457 421,-460 418,-460"/>
<text text-anchor="middle" x="397" y="-448.8" font-family="Helvetica,sans-Serif" font-size="9.00">index.js</text>
</a>
</g>
</g>
<!-- src/main/index.js&#45;&gt;src/extract/index.js -->
<g id="edge6" class="edge">
<title>src/main/index.js&#45;&gt;src/extract/index.js</title>
<path fill="none" stroke="#000000" stroke-width="2" stroke-opacity="0.200000" d="M158,-227.13C158,-270.21 158,-451 158,-451 158,-451 363.58,-451 363.58,-451"/>
<polygon fill="#000000" fill-opacity="0.200000" stroke="#000000" stroke-width="2" stroke-opacity="0.200000" points="363.58,-453.1 369.58,-451 363.58,-448.9 363.58,-453.1"/>
</g>
<!-- src/main/index.js&#45;&gt;src/extract/transpile/meta.js -->
<g id="edge7" class="edge">
<title>src/main/index.js&#45;&gt;src/extract/transpile/meta.js</title>
<path fill="none" stroke="#000000" stroke-width="2" stroke-opacity="0.200000" d="M166,-227.12C166,-264.25 166,-402 166,-402 166,-402 363.59,-402 363.59,-402"/>
<polygon fill="#000000" fill-opacity="0.200000" stroke="#000000" stroke-width="2" stroke-opacity="0.200000" points="363.59,-404.1 369.59,-402 363.59,-399.9 363.59,-404.1"/>
</g>
<!-- src/main/files&#45;and&#45;dirs/normalize.js -->
<g id="node10" class="node">
<title>src/main/files&#45;and&#45;dirs/normalize.js</title>
<g id="a_node10"><a xlink:href="src/main/files-and-dirs/normalize.js" xlink:title="normalize.js">
<path fill="#ffffcc" stroke="black" d="M288,-224C288,-224 234,-224 234,-224 231,-224 228,-221 228,-218 228,-218 228,-212 228,-212 228,-209 231,-206 234,-206 234,-206 288,-206 288,-206 291,-206 294,-209 294,-212 294,-212 294,-218 294,-218 294,-221 291,-224 288,-224"/>
<text text-anchor="middle" x="261" y="-212.8" font-family="Helvetica,sans-Serif" font-size="9.00">normalize.js</text>
</a>
</g>
</g>
<!-- src/main/index.js&#45;&gt;src/main/files&#45;and&#45;dirs/normalize.js -->
<g id="edge10" class="edge">
<title>src/main/index.js&#45;&gt;src/main/files&#45;and&#45;dirs/normalize.js</title>
<path fill="none" stroke="#000000" stroke-width="2" stroke-opacity="0.200000" d="M196.11,-216.5C196.11,-216.5 221.9,-216.5 221.9,-216.5"/>
<polygon fill="#000000" fill-opacity="0.200000" stroke="#000000" stroke-width="2" stroke-opacity="0.200000" points="221.9,-218.6 227.9,-216.5 221.9,-214.4 221.9,-218.6"/>
</g>
<!-- src/report/index.js -->
<g id="node11" class="node">
<title>src/report/index.js</title>
<g id="a_node11"><a xlink:href="src/report/index.js" xlink:title="index.js">
<path fill="#ffffcc" stroke="black" d="M531,-390C531,-390 489,-390 489,-390 486,-390 483,-387 483,-384 483,-384 483,-378 483,-378 483,-375 486,-372 489,-372 489,-372 531,-372 531,-372 534,-372 537,-375 537,-378 537,-378 537,-384 537,-384 537,-387 534,-390 531,-390"/>
<text text-anchor="middle" x="510" y="-378.8" font-family="Helvetica,sans-Serif" font-size="9.00">index.js</text>
</a>
</g>
</g>
<!-- src/main/index.js&#45;&gt;src/report/index.js -->
<g id="edge8" class="edge">
<title>src/main/index.js&#45;&gt;src/report/index.js</title>
<path fill="none" stroke="#000000" stroke-width="2" stroke-opacity="0.200000" d="M173,-227.23C173,-261.71 173,-381 173,-381 173,-381 476.99,-381 476.99,-381"/>
<polygon fill="#000000" fill-opacity="0.200000" stroke="#000000" stroke-width="2" stroke-opacity="0.200000" points="476.99,-383.1 482.99,-381 476.99,-378.9 476.99,-383.1"/>
</g>
<!-- src/schema/cruise&#45;result.schema.json -->
<g id="node12" class="node">
<title>src/schema/cruise&#45;result.schema.json</title>
<g id="a_node12"><a xlink:href="src/schema/cruise-result.schema.json" xlink:title="cruise&#45;result.schema.json">
<path fill="#ffee44" stroke="black" d="M451.5,-340C451.5,-340 342.5,-340 342.5,-340 339.5,-340 336.5,-337 336.5,-334 336.5,-334 336.5,-328 336.5,-328 336.5,-325 339.5,-322 342.5,-322 342.5,-322 451.5,-322 451.5,-322 454.5,-322 457.5,-325 457.5,-328 457.5,-328 457.5,-334 457.5,-334 457.5,-337 454.5,-340 451.5,-340"/>
<text text-anchor="middle" x="397" y="-328.8" font-family="Helvetica,sans-Serif" font-size="9.00">cruise&#45;result.schema.json</text>
</a>
</g>
</g>
<!-- src/main/index.js&#45;&gt;src/schema/cruise&#45;result.schema.json -->
<g id="edge9" class="edge">
<title>src/main/index.js&#45;&gt;src/schema/cruise&#45;result.schema.json</title>
<path fill="none" stroke="#000000" stroke-width="2" stroke-opacity="0.200000" d="M181,-227.25C181,-254.23 181,-331 181,-331 181,-331 330.26,-331 330.26,-331"/>
<polygon fill="#000000" fill-opacity="0.200000" stroke="#000000" stroke-width="2" stroke-opacity="0.200000" points="330.26,-333.1 336.26,-331 330.26,-328.9 330.26,-333.1"/>
</g>
<!-- src/main/options/normalize.js -->
<g id="node13" class="node">
<title>src/main/options/normalize.js</title>
<g id="a_node13"><a xlink:href="src/main/options/normalize.js" xlink:title="normalize.js">
<path fill="#ffffcc" stroke="black" d="M424,-50C424,-50 370,-50 370,-50 367,-50 364,-47 364,-44 364,-44 364,-38 364,-38 364,-35 367,-32 370,-32 370,-32 424,-32 424,-32 427,-32 430,-35 430,-38 430,-38 430,-44 430,-44 430,-47 427,-50 424,-50"/>
<text text-anchor="middle" x="397" y="-38.8" font-family="Helvetica,sans-Serif" font-size="9.00">normalize.js</text>
</a>
</g>
</g>
<!-- src/main/index.js&#45;&gt;src/main/options/normalize.js -->
<g id="edge11" class="edge">
<title>src/main/index.js&#45;&gt;src/main/options/normalize.js</title>
<path fill="none" stroke="#000000" stroke-width="2" stroke-opacity="0.200000" d="M151,-208.98C151,-172.91 151,-41 151,-41 151,-41 357.82,-41 357.82,-41"/>
<polygon fill="#000000" fill-opacity="0.200000" stroke="#000000" stroke-width="2" stroke-opacity="0.200000" points="357.82,-43.1 363.82,-41 357.82,-38.9 357.82,-43.1"/>
</g>
<!-- src/main/options/validate.js -->
<g id="node14" class="node">
<title>src/main/options/validate.js</title>
<g id="a_node14"><a xlink:href="src/main/options/validate.js" xlink:title="validate.js">
<path fill="#ffffcc" stroke="black" d="M420,-80C420,-80 374,-80 374,-80 371,-80 368,-77 368,-74 368,-74 368,-68 368,-68 368,-65 371,-62 374,-62 374,-62 420,-62 420,-62 423,-62 426,-65 426,-68 426,-68 426,-74 426,-74 426,-77 423,-80 420,-80"/>
<text text-anchor="middle" x="397" y="-68.8" font-family="Helvetica,sans-Serif" font-size="9.00">validate.js</text>
</a>
</g>
</g>
<!-- src/main/index.js&#45;&gt;src/main/options/validate.js -->
<g id="edge12" class="edge">
<title>src/main/index.js&#45;&gt;src/main/options/validate.js</title>
<path fill="none" stroke="#000000" stroke-width="2" stroke-opacity="0.200000" d="M178,-208.68C178,-182.98 178,-113 178,-113 178,-113 397,-113 397,-113 397,-113 397,-86.32 397,-86.32"/>
<polygon fill="#000000" fill-opacity="0.200000" stroke="#000000" stroke-width="2" stroke-opacity="0.200000" points="399.1,-86.32 397,-80.32 394.9,-86.32 399.1,-86.32"/>
</g>
<!-- src/main/rule&#45;set/normalize.js -->
<g id="node15" class="node">
<title>src/main/rule&#45;set/normalize.js</title>
<g id="a_node15"><a xlink:href="src/main/rule-set/normalize.js" xlink:title="normalize.js">
<path fill="#ffffcc" stroke="black" d="M288,-104C288,-104 234,-104 234,-104 231,-104 228,-101 228,-98 228,-98 228,-92 228,-92 228,-89 231,-86 234,-86 234,-86 288,-86 288,-86 291,-86 294,-89 294,-92 294,-92 294,-98 294,-98 294,-101 291,-104 288,-104"/>
<text text-anchor="middle" x="261" y="-92.8" font-family="Helvetica,sans-Serif" font-size="9.00">normalize.js</text>
</a>
</g>
</g>
<!-- src/main/index.js&#45;&gt;src/main/rule&#45;set/normalize.js -->
<g id="edge14" class="edge">
<title>src/main/index.js&#45;&gt;src/main/rule&#45;set/normalize.js</title>
<path fill="none" stroke="#000000" stroke-width="2" stroke-opacity="0.200000" d="M169,-208.76C169,-180.15 169,-95 169,-95 169,-95 221.79,-95 221.79,-95"/>
<polygon fill="#000000" fill-opacity="0.200000" stroke="#000000" stroke-width="2" stroke-opacity="0.200000" points="221.79,-97.1 227.79,-95 221.79,-92.9 221.79,-97.1"/>
</g>
<!-- src/main/rule&#45;set/validate.js -->
<g id="node16" class="node">
<title>src/main/rule&#45;set/validate.js</title>
<g id="a_node16"><a xlink:href="src/main/rule-set/validate.js" xlink:title="validate.js">
<path fill="#ffffcc" stroke="black" d="M284,-74C284,-74 238,-74 238,-74 235,-74 232,-71 232,-68 232,-68 232,-62 232,-62 232,-59 235,-56 238,-56 238,-56 284,-56 284,-56 287,-56 290,-59 290,-62 290,-62 290,-68 290,-68 290,-71 287,-74 284,-74"/>
<text text-anchor="middle" x="261" y="-62.8" font-family="Helvetica,sans-Serif" font-size="9.00">validate.js</text>
</a>
</g>
</g>
<!-- src/main/index.js&#45;&gt;src/main/rule&#45;set/validate.js -->
<g id="edge15" class="edge">
<title>src/main/index.js&#45;&gt;src/main/rule&#45;set/validate.js</title>
<path fill="none" stroke="#000000" stroke-width="2" stroke-opacity="0.200000" d="M160,-208.89C160,-175.95 160,-65 160,-65 160,-65 225.79,-65 225.79,-65"/>
<polygon fill="#000000" fill-opacity="0.200000" stroke="#000000" stroke-width="2" stroke-opacity="0.200000" points="225.79,-67.1 231.79,-65 225.79,-62.9 225.79,-67.1"/>
</g>
<!-- src/cli/format.js -->
<g id="node5" class="node">
<title>src/cli/format.js</title>
<g id="a_node5"><a xlink:href="src/cli/format.js" xlink:title="format.js">
<path fill="#ffffcc" stroke="black" d="M91,-260C91,-260 49,-260 49,-260 46,-260 43,-257 43,-254 43,-254 43,-248 43,-248 43,-245 46,-242 49,-242 49,-242 91,-242 91,-242 94,-242 97,-245 97,-248 97,-248 97,-254 97,-254 97,-257 94,-260 91,-260"/>
<text text-anchor="middle" x="70" y="-248.8" font-family="Helvetica,sans-Serif" font-size="9.00">format.js</text>
</a>
</g>
</g>
<!-- src/cli/format.js&#45;&gt;src/main/index.js -->
<g id="edge3" class="edge">
<title>src/cli/format.js&#45;&gt;src/main/index.js</title>
<path fill="none" stroke="#000000" stroke-width="2" stroke-opacity="0.200000" d="M97.08,-251C120.29,-251 150,-251 150,-251 150,-251 150,-233.02 150,-233.02"/>
<polygon fill="#000000" fill-opacity="0.200000" stroke="#000000" stroke-width="2" stroke-opacity="0.200000" points="152.1,-233.02 150,-227.02 147.9,-233.02 152.1,-233.02"/>
</g>
<!-- src/cli/index.js -->
<g id="node6" class="node">
<title>src/cli/index.js</title>
<g id="a_node6"><a xlink:href="src/cli/index.js" xlink:title="index.js">
<path fill="#ffffcc" stroke="black" d="M91,-230C91,-230 49,-230 49,-230 46,-230 43,-227 43,-224 43,-224 43,-218 43,-218 43,-215 46,-212 49,-212 49,-212 91,-212 91,-212 94,-212 97,-215 97,-218 97,-218 97,-224 97,-224 97,-227 94,-230 91,-230"/>
<text text-anchor="middle" x="70" y="-218.8" font-family="Helvetica,sans-Serif" font-size="9.00">index.js</text>
</a>
</g>
</g>
<!-- src/cli/index.js&#45;&gt;src/main/index.js -->
<g id="edge4" class="edge">
<title>src/cli/index.js&#45;&gt;src/main/index.js</title>
<path fill="none" stroke="#000000" stroke-width="2" stroke-opacity="0.200000" d="M97.05,-222C97.05,-222 135.98,-222 135.98,-222"/>
<polygon fill="#000000" fill-opacity="0.200000" stroke="#000000" stroke-width="2" stroke-opacity="0.200000" points="135.98,-224.1 141.98,-222 135.98,-219.9 135.98,-224.1"/>
</g>
<!-- src/main/options/defaults.json -->
<g id="node17" class="node">
<title>src/main/options/defaults.json</title>
<g id="a_node17"><a xlink:href="src/main/options/defaults.json" xlink:title="defaults.json">
<path fill="#ffee44" stroke="black" d="M538,-50C538,-50 482,-50 482,-50 479,-50 476,-47 476,-44 476,-44 476,-38 476,-38 476,-35 479,-32 482,-32 482,-32 538,-32 538,-32 541,-32 544,-35 544,-38 544,-38 544,-44 544,-44 544,-47 541,-50 538,-50"/>
<text text-anchor="middle" x="510" y="-38.8" font-family="Helvetica,sans-Serif" font-size="9.00">defaults.json</text>
</a>
</g>
</g>
<!-- src/main/options/normalize.js&#45;&gt;src/main/options/defaults.json -->
<g id="edge16" class="edge">
<title>src/main/options/normalize.js&#45;&gt;src/main/options/defaults.json</title>
<path fill="none" stroke="#000000" stroke-width="2" stroke-opacity="0.200000" d="M430.29,-41C430.29,-41 469.77,-41 469.77,-41"/>
<polygon fill="#000000" fill-opacity="0.200000" stroke="#000000" stroke-width="2" stroke-opacity="0.200000" points="469.77,-43.1 475.77,-41 469.77,-38.9 469.77,-43.1"/>
</g>
<!-- src/main/options/validate.js&#45;&gt;src/report/index.js -->
<g id="edge17" class="edge">
<title>src/main/options/validate.js&#45;&gt;src/report/index.js</title>
<path fill="none" stroke="#000000" stroke-width="2" stroke-opacity="0.200000" d="M426.1,-71C459.58,-71 510,-71 510,-71 510,-71 510,-365.72 510,-365.72"/>
<polygon fill="#000000" fill-opacity="0.200000" stroke="#000000" stroke-width="2" stroke-opacity="0.200000" points="507.9,-365.72 510,-371.72 512.1,-365.72 507.9,-365.72"/>
</g>
<!-- src/main/utl/normalize&#45;re&#45;properties.js -->
<g id="node18" class="node">
<title>src/main/utl/normalize&#45;re&#45;properties.js</title>
<g id="a_node18"><a xlink:href="src/main/utl/normalize-re-properties.js" xlink:title="normalize&#45;re&#45;properties.js">
<path fill="#ffffcc" stroke="black" d="M452,-140C452,-140 342,-140 342,-140 339,-140 336,-137 336,-134 336,-134 336,-128 336,-128 336,-125 339,-122 342,-122 342,-122 452,-122 452,-122 455,-122 458,-125 458,-128 458,-128 458,-134 458,-134 458,-137 455,-140 452,-140"/>
<text text-anchor="middle" x="397" y="-128.8" font-family="Helvetica,sans-Serif" font-size="9.00">normalize&#45;re&#45;properties.js</text>
</a>
</g>
</g>
<!-- src/main/rule&#45;set/normalize.js&#45;&gt;src/main/utl/normalize&#45;re&#45;properties.js -->
<g id="edge19" class="edge">
<title>src/main/rule&#45;set/normalize.js&#45;&gt;src/main/utl/normalize&#45;re&#45;properties.js</title>
<path fill="none" stroke="#000000" stroke-width="2" stroke-opacity="0.200000" d="M294.14,-95C319.44,-95 350,-95 350,-95 350,-95 350,-115.92 350,-115.92"/>
<polygon fill="#000000" fill-opacity="0.200000" stroke="#000000" stroke-width="2" stroke-opacity="0.200000" points="347.9,-115.92 350,-121.92 352.1,-115.92 347.9,-115.92"/>
</g>
<!-- src/main/rule&#45;set/validate.js&#45;&gt;src/main/options/validate.js -->
<g id="edge21" class="edge">
<title>src/main/rule&#45;set/validate.js&#45;&gt;src/main/options/validate.js</title>
<path fill="none" stroke="#000000" stroke-width="2" stroke-opacity="0.200000" d="M290.18,-66C290.18,-66 361.87,-66 361.87,-66"/>
<polygon fill="#000000" fill-opacity="0.200000" stroke="#000000" stroke-width="2" stroke-opacity="0.200000" points="361.87,-68.1 367.87,-66 361.87,-63.9 361.87,-68.1"/>
</g>
<!-- src/schema/configuration.schema.json -->
<g id="node19" class="node">
<title>src/schema/configuration.schema.json</title>
<g id="a_node19"><a xlink:href="src/schema/configuration.schema.json" xlink:title="configuration.schema.json">
<path fill="#ffee44" stroke="black" d="M453,-310C453,-310 341,-310 341,-310 338,-310 335,-307 335,-304 335,-304 335,-298 335,-298 335,-295 338,-292 341,-292 341,-292 453,-292 453,-292 456,-292 459,-295 459,-298 459,-298 459,-304 459,-304 459,-307 456,-310 453,-310"/>
<text text-anchor="middle" x="397" y="-298.8" font-family="Helvetica,sans-Serif" font-size="9.00">configuration.schema.json</text>
</a>
</g>
</g>
<!-- src/main/rule&#45;set/validate.js&#45;&gt;src/schema/configuration.schema.json -->
<g id="edge20" class="edge">
<title>src/main/rule&#45;set/validate.js&#45;&gt;src/schema/configuration.schema.json</title>
<path fill="none" stroke="#000000" stroke-width="2" stroke-opacity="0.200000" d="M290.07,-70C305.78,-70 322,-70 322,-70 322,-70 322,-301 322,-301 322,-301 328.72,-301 328.72,-301"/>
<polygon fill="#000000" fill-opacity="0.200000" stroke="#000000" stroke-width="2" stroke-opacity="0.200000" points="328.72,-303.1 334.72,-301 328.72,-298.9 328.72,-303.1"/>
</g>
</g>
</svg>
