<?xml version="1.0" encoding="UTF-8" standalone="no"?>
<!DOCTYPE svg PUBLIC "-//W3C//DTD SVG 1.1//EN"
 "http://www.w3.org/Graphics/SVG/1.1/DTD/svg11.dtd">
<!-- Generated by graphviz version 2.44.1 (20200629.0846)
 -->
<!-- Title: dependency&#45;cruiser output Pages: 1 -->
<svg width="736pt" height="948pt"
 viewBox="0.00 0.00 736.00 948.00" xmlns="http://www.w3.org/2000/svg" xmlns:xlink="http://www.w3.org/1999/xlink">
<g id="graph0" class="graph" transform="scale(1 1) rotate(0) translate(4 944)">
<title>dependency&#45;cruiser output</title>
<polygon fill="white" stroke="transparent" points="-4,4 -4,-944 732,-944 732,4 -4,4"/>
<g id="clust1" class="cluster">
<title>cluster_src</title>
<path fill="#ffffff" stroke="black" stroke-width="2" d="M20,-8C20,-8 708,-8 708,-8 714,-8 720,-14 720,-20 720,-20 720,-920 720,-920 720,-926 714,-932 708,-932 708,-932 20,-932 20,-932 14,-932 8,-926 8,-920 8,-920 8,-20 8,-20 8,-14 14,-8 20,-8"/>
<text text-anchor="middle" x="364" y="-920.8" font-family="Helvetica,sans-Serif" font-weight="bold" font-size="9.00">src</text>
</g>
<g id="clust7" class="cluster">
<title>cluster_src/extract</title>
<path fill="#ffffff" stroke="black" stroke-width="2" d="M456.5,-704C456.5,-704 518.5,-704 518.5,-704 524.5,-704 530.5,-710 530.5,-716 530.5,-716 530.5,-804 530.5,-804 530.5,-810 524.5,-816 518.5,-816 518.5,-816 456.5,-816 456.5,-816 450.5,-816 444.5,-810 444.5,-804 444.5,-804 444.5,-716 444.5,-716 444.5,-710 450.5,-704 456.5,-704"/>
<text text-anchor="middle" x="487.5" y="-804.8" font-family="Helvetica,sans-Serif" font-weight="bold" font-size="9.00">extract</text>
</g>
<g id="clust8" class="cluster">
<title>cluster_src/extract/transpile</title>
<path fill="#ffffff" stroke="black" stroke-width="2" d="M464.5,-712C464.5,-712 510.5,-712 510.5,-712 516.5,-712 522.5,-718 522.5,-724 522.5,-724 522.5,-752 522.5,-752 522.5,-758 516.5,-764 510.5,-764 510.5,-764 464.5,-764 464.5,-764 458.5,-764 452.5,-758 452.5,-752 452.5,-752 452.5,-724 452.5,-724 452.5,-718 458.5,-712 464.5,-712"/>
<text text-anchor="middle" x="487.5" y="-752.8" font-family="Helvetica,sans-Serif" font-weight="bold" font-size="9.00">transpile</text>
</g>
<g id="clust9" class="cluster">
<title>cluster_src/graph&#45;utl</title>
<path fill="#ffffff" stroke="black" stroke-width="2" d="M434,-404C434,-404 541,-404 541,-404 547,-404 553,-410 553,-416 553,-416 553,-564 553,-564 553,-570 547,-576 541,-576 541,-576 434,-576 434,-576 428,-576 422,-570 422,-564 422,-564 422,-416 422,-416 422,-410 428,-404 434,-404"/>
<text text-anchor="middle" x="487.5" y="-564.8" font-family="Helvetica,sans-Serif" font-weight="bold" font-size="9.00">graph&#45;utl</text>
</g>
<g id="clust2" class="cluster">
<title>cluster_src/cli</title>
<path fill="#ffffff" stroke="black" stroke-width="2" d="M28,-258C28,-258 112,-258 112,-258 118,-258 124,-264 124,-270 124,-270 124,-358 124,-358 124,-364 118,-370 112,-370 112,-370 28,-370 28,-370 22,-370 16,-364 16,-358 16,-358 16,-270 16,-270 16,-264 22,-258 28,-258"/>
<text text-anchor="middle" x="70" y="-358.8" font-family="Helvetica,sans-Serif" font-weight="bold" font-size="9.00">cli</text>
</g>
<g id="clust3" class="cluster">
<title>cluster_src/config&#45;utl</title>
<path fill="#ffffff" stroke="black" stroke-width="2" d="M152,-16C152,-16 266,-16 266,-16 272,-16 278,-22 278,-28 278,-28 278,-90 278,-90 278,-96 272,-102 266,-102 266,-102 152,-102 152,-102 146,-102 140,-96 140,-90 140,-90 140,-28 140,-28 140,-22 146,-16 152,-16"/>
<text text-anchor="middle" x="209" y="-90.8" font-family="Helvetica,sans-Serif" font-weight="bold" font-size="9.00">config&#45;utl</text>
</g>
<g id="clust4" class="cluster">
<title>cluster_src/config&#45;utl/extract&#45;depcruise&#45;config</title>
<path fill="#ffffff" stroke="black" stroke-width="2" d="M160,-24C160,-24 258,-24 258,-24 264,-24 270,-30 270,-36 270,-36 270,-64 270,-64 270,-70 264,-76 258,-76 258,-76 160,-76 160,-76 154,-76 148,-70 148,-64 148,-64 148,-36 148,-36 148,-30 154,-24 160,-24"/>
<text text-anchor="middle" x="209" y="-64.8" font-family="Helvetica,sans-Serif" font-weight="bold" font-size="9.00">extract&#45;depcruise&#45;config</text>
</g>
<g id="clust5" class="cluster">
<title>cluster_src/enrich</title>
<path fill="#ffffff" stroke="black" stroke-width="2" d="M429,-584C429,-584 546,-584 546,-584 552,-584 558,-590 558,-596 558,-596 558,-684 558,-684 558,-690 552,-696 546,-696 546,-696 429,-696 429,-696 423,-696 417,-690 417,-684 417,-684 417,-596 417,-596 417,-590 423,-584 429,-584"/>
<text text-anchor="middle" x="487.5" y="-684.8" font-family="Helvetica,sans-Serif" font-weight="bold" font-size="9.00">enrich</text>
</g>
<g id="clust6" class="cluster">
<title>cluster_src/enrich/summarize</title>
<path fill="#ffffff" stroke="black" stroke-width="2" d="M437,-592C437,-592 538,-592 538,-592 544,-592 550,-598 550,-604 550,-604 550,-632 550,-632 550,-638 544,-644 538,-644 538,-644 437,-644 437,-644 431,-644 425,-638 425,-632 425,-632 425,-604 425,-604 425,-598 431,-592 437,-592"/>
<text text-anchor="middle" x="487.5" y="-632.8" font-family="Helvetica,sans-Serif" font-weight="bold" font-size="9.00">summarize</text>
</g>
<g id="clust10" class="cluster">
<title>cluster_src/main</title>
<path fill="#ffffff" stroke="black" stroke-width="2" d="M186,-110C186,-110 700,-110 700,-110 706,-110 712,-116 712,-122 712,-122 712,-384 712,-384 712,-390 706,-396 700,-396 700,-396 186,-396 186,-396 180,-396 174,-390 174,-384 174,-384 174,-122 174,-122 174,-116 180,-110 186,-110"/>
<text text-anchor="middle" x="443" y="-384.8" font-family="Helvetica,sans-Serif" font-weight="bold" font-size="9.00">main</text>
</g>
<g id="clust11" class="cluster">
<title>cluster_src/main/files&#45;and&#45;dirs</title>
<path fill="#ffffff" stroke="black" stroke-width="2" d="M322,-318C322,-318 380,-318 380,-318 386,-318 392,-324 392,-330 392,-330 392,-358 392,-358 392,-364 386,-370 380,-370 380,-370 322,-370 322,-370 316,-370 310,-364 310,-358 310,-358 310,-330 310,-330 310,-324 316,-318 322,-318"/>
<text text-anchor="middle" x="351" y="-358.8" font-family="Helvetica,sans-Serif" font-weight="bold" font-size="9.00">files&#45;and&#45;dirs</text>
</g>
<g id="clust12" class="cluster">
<title>cluster_src/main/options</title>
<path fill="#ffffff" stroke="black" stroke-width="2" d="M458.5,-118C458.5,-118 665,-118 665,-118 671,-118 677,-124 677,-130 677,-130 677,-188 677,-188 677,-194 671,-200 665,-200 665,-200 458.5,-200 458.5,-200 452.5,-200 446.5,-194 446.5,-188 446.5,-188 446.5,-130 446.5,-130 446.5,-124 452.5,-118 458.5,-118"/>
<text text-anchor="middle" x="561.75" y="-188.8" font-family="Helvetica,sans-Serif" font-weight="bold" font-size="9.00">options</text>
</g>
<g id="clust13" class="cluster">
<title>cluster_src/main/resolve&#45;options</title>
<path fill="#ffffff" stroke="black" stroke-width="2" d="M322,-258C322,-258 381,-258 381,-258 387,-258 393,-264 393,-270 393,-270 393,-298 393,-298 393,-304 387,-310 381,-310 381,-310 322,-310 322,-310 316,-310 310,-304 310,-298 310,-298 310,-270 310,-270 310,-264 316,-258 322,-258"/>
<text text-anchor="middle" x="351.5" y="-298.8" font-family="Helvetica,sans-Serif" font-weight="bold" font-size="9.00">resolve&#45;options</text>
</g>
<g id="clust14" class="cluster">
<title>cluster_src/main/rule&#45;set</title>
<path fill="#ffffff" stroke="black" stroke-width="2" d="M322,-142C322,-142 380,-142 380,-142 386,-142 392,-148 392,-154 392,-154 392,-212 392,-212 392,-218 386,-224 380,-224 380,-224 322,-224 322,-224 316,-224 310,-218 310,-212 310,-212 310,-154 310,-154 310,-148 316,-142 322,-142"/>
<text text-anchor="middle" x="351" y="-212.8" font-family="Helvetica,sans-Serif" font-weight="bold" font-size="9.00">rule&#45;set</text>
</g>
<g id="clust15" class="cluster">
<title>cluster_src/main/utl</title>
<path fill="#ffffff" stroke="black" stroke-width="2" d="M578,-208C578,-208 692,-208 692,-208 698,-208 704,-214 704,-220 704,-220 704,-248 704,-248 704,-254 698,-260 692,-260 692,-260 578,-260 578,-260 572,-260 566,-254 566,-248 566,-248 566,-220 566,-220 566,-214 572,-208 578,-208"/>
<text text-anchor="middle" x="635" y="-248.8" font-family="Helvetica,sans-Serif" font-weight="bold" font-size="9.00">utl</text>
</g>
<g id="clust16" class="cluster">
<title>cluster_src/report</title>
<path fill="#ffffff" stroke="black" stroke-width="2" d="M612,-404C612,-404 658,-404 658,-404 664,-404 670,-410 670,-416 670,-416 670,-444 670,-444 670,-450 664,-456 658,-456 658,-456 612,-456 612,-456 606,-456 600,-450 600,-444 600,-444 600,-416 600,-416 600,-410 606,-404 612,-404"/>
<text text-anchor="middle" x="635" y="-444.8" font-family="Helvetica,sans-Serif" font-weight="bold" font-size="9.00">report</text>
</g>
<g id="clust17" class="cluster">
<title>cluster_src/schema</title>
<path fill="#ffffff" stroke="black" stroke-width="2" d="M429.5,-824C429.5,-824 545.5,-824 545.5,-824 551.5,-824 557.5,-830 557.5,-836 557.5,-836 557.5,-894 557.5,-894 557.5,-900 551.5,-906 545.5,-906 545.5,-906 429.5,-906 429.5,-906 423.5,-906 417.5,-900 417.5,-894 417.5,-894 417.5,-836 417.5,-836 417.5,-830 423.5,-824 429.5,-824"/>
<text text-anchor="middle" x="487.5" y="-894.8" font-family="Helvetica,sans-Serif" font-weight="bold" font-size="9.00">schema</text>
</g>
<g id="clust18" class="cluster">
<title>cluster_src/utl</title>
<path fill="#ffffff" stroke="black" stroke-width="2" d="M328,-404C328,-404 374,-404 374,-404 380,-404 386,-410 386,-416 386,-416 386,-444 386,-444 386,-450 380,-456 374,-456 374,-456 328,-456 328,-456 322,-456 316,-450 316,-444 316,-444 316,-416 316,-416 316,-410 322,-404 328,-404"/>
<text text-anchor="middle" x="351" y="-444.8" font-family="Helvetica,sans-Serif" font-weight="bold" font-size="9.00">utl</text>
</g>
<!-- src/cli/format&#45;meta&#45;info.js -->
<g id="node1" class="node">
<title>src/cli/format&#45;meta&#45;info.js</title>
<g id="a_node1"><a xlink:href="src/cli/format-meta-info.js" xlink:title="format&#45;meta&#45;info.js">
<path fill="#ffffcc" stroke="black" d="M110,-344C110,-344 30,-344 30,-344 27,-344 24,-341 24,-338 24,-338 24,-332 24,-332 24,-329 27,-326 30,-326 30,-326 110,-326 110,-326 113,-326 116,-329 116,-332 116,-332 116,-338 116,-338 116,-341 113,-344 110,-344"/>
<text text-anchor="middle" x="70" y="-332.8" font-family="Helvetica,sans-Serif" font-size="9.00">format&#45;meta&#45;info.js</text>
</a>
</g>
</g>
<!-- src/main/index.js -->
<g id="node2" class="node">
<title>src/main/index.js</title>
<g id="a_node2"><a xlink:href="src/main/index.js" xlink:title="index.js">
<path fill="#ffffcc" stroke="black" d="M230,-314C230,-314 188,-314 188,-314 185,-314 182,-311 182,-308 182,-308 182,-302 182,-302 182,-299 185,-296 188,-296 188,-296 230,-296 230,-296 233,-296 236,-299 236,-302 236,-302 236,-308 236,-308 236,-311 233,-314 230,-314"/>
<text text-anchor="middle" x="209" y="-302.8" font-family="Helvetica,sans-Serif" font-size="9.00">index.js</text>
</a>
</g>
</g>
<!-- src/cli/format&#45;meta&#45;info.js&#45;&gt;src/main/index.js -->
<g id="edge1" class="edge">
<title>src/cli/format&#45;meta&#45;info.js&#45;&gt;src/main/index.js</title>
<path fill="none" stroke="#000000" stroke-width="2" stroke-opacity="0.200000" d="M107,-325.86C107,-318.03 107,-308 107,-308 107,-308 175.93,-308 175.93,-308"/>
<polygon fill="#000000" fill-opacity="0.200000" stroke="#000000" stroke-width="2" stroke-opacity="0.200000" points="175.93,-310.1 181.93,-308 175.93,-305.9 175.93,-310.1"/>
</g>
<!-- src/main/resolve&#45;options/normalize.js -->
<g id="node6" class="node">
<title>src/main/resolve&#45;options/normalize.js</title>
<g id="a_node6"><a xlink:href="src/main/resolve-options/normalize.js" xlink:title="normalize.js">
<path fill="#ffffcc" stroke="black" d="M378,-284C378,-284 324,-284 324,-284 321,-284 318,-281 318,-278 318,-278 318,-272 318,-272 318,-269 321,-266 324,-266 324,-266 378,-266 378,-266 381,-266 384,-269 384,-272 384,-272 384,-278 384,-278 384,-281 381,-284 378,-284"/>
<text text-anchor="middle" x="351" y="-272.8" font-family="Helvetica,sans-Serif" font-size="9.00">normalize.js</text>
</a>
</g>
</g>
<!-- src/main/index.js&#45;&gt;src/main/resolve&#45;options/normalize.js -->
<g id="edge14" class="edge">
<title>src/main/index.js&#45;&gt;src/main/resolve&#45;options/normalize.js</title>
<path fill="none" stroke="#000000" stroke-width="2" stroke-opacity="0.200000" d="M230,-295.84C230,-287.01 230,-275 230,-275 230,-275 311.94,-275 311.94,-275"/>
<polygon fill="#000000" fill-opacity="0.200000" stroke="#000000" stroke-width="2" stroke-opacity="0.200000" points="311.94,-277.1 317.94,-275 311.94,-272.9 311.94,-277.1"/>
</g>
<!-- src/enrich/index.js -->
<g id="node7" class="node">
<title>src/enrich/index.js</title>
<g id="a_node7"><a xlink:href="src/enrich/index.js" xlink:title="index.js">
<path fill="#ffffcc" stroke="black" d="M508.5,-670C508.5,-670 466.5,-670 466.5,-670 463.5,-670 460.5,-667 460.5,-664 460.5,-664 460.5,-658 460.5,-658 460.5,-655 463.5,-652 466.5,-652 466.5,-652 508.5,-652 508.5,-652 511.5,-652 514.5,-655 514.5,-658 514.5,-658 514.5,-664 514.5,-664 514.5,-667 511.5,-670 508.5,-670"/>
<text text-anchor="middle" x="487.5" y="-658.8" font-family="Helvetica,sans-Serif" font-size="9.00">index.js</text>
</a>
</g>
</g>
<!-- src/main/index.js&#45;&gt;src/enrich/index.js -->
<g id="edge5" class="edge">
<title>src/main/index.js&#45;&gt;src/enrich/index.js</title>
<path fill="none" stroke="#000000" stroke-width="2" stroke-opacity="0.200000" d="M213,-314.16C213,-369.88 213,-661 213,-661 213,-661 454.18,-661 454.18,-661"/>
<polygon fill="#000000" fill-opacity="0.200000" stroke="#000000" stroke-width="2" stroke-opacity="0.200000" points="454.18,-663.1 460.18,-661 454.18,-658.9 454.18,-663.1"/>
</g>
<!-- src/extract/index.js -->
<g id="node9" class="node">
<title>src/extract/index.js</title>
<g id="a_node9"><a xlink:href="src/extract/index.js" xlink:title="index.js">
<path fill="#ffffcc" stroke="black" d="M508.5,-790C508.5,-790 466.5,-790 466.5,-790 463.5,-790 460.5,-787 460.5,-784 460.5,-784 460.5,-778 460.5,-778 460.5,-775 463.5,-772 466.5,-772 466.5,-772 508.5,-772 508.5,-772 511.5,-772 514.5,-775 514.5,-778 514.5,-778 514.5,-784 514.5,-784 514.5,-787 511.5,-790 508.5,-790"/>
<text text-anchor="middle" x="487.5" y="-778.8" font-family="Helvetica,sans-Serif" font-size="9.00">index.js</text>
</a>
</g>
</g>
<!-- src/main/index.js&#45;&gt;src/extract/index.js -->
<g id="edge6" class="edge">
<title>src/main/index.js&#45;&gt;src/extract/index.js</title>
<path fill="none" stroke="#000000" stroke-width="2" stroke-opacity="0.200000" d="M198,-314.08C198,-379.89 198,-781 198,-781 198,-781 454.26,-781 454.26,-781"/>
<polygon fill="#000000" fill-opacity="0.200000" stroke="#000000" stroke-width="2" stroke-opacity="0.200000" points="454.26,-783.1 460.26,-781 454.26,-778.9 454.26,-783.1"/>
</g>
<!-- src/extract/transpile/meta.js -->
<g id="node10" class="node">
<title>src/extract/transpile/meta.js</title>
<g id="a_node10"><a xlink:href="src/extract/transpile/meta.js" xlink:title="meta.js">
<path fill="#ffffcc" stroke="black" d="M508.5,-738C508.5,-738 466.5,-738 466.5,-738 463.5,-738 460.5,-735 460.5,-732 460.5,-732 460.5,-726 460.5,-726 460.5,-723 463.5,-720 466.5,-720 466.5,-720 508.5,-720 508.5,-720 511.5,-720 514.5,-723 514.5,-726 514.5,-726 514.5,-732 514.5,-732 514.5,-735 511.5,-738 508.5,-738"/>
<text text-anchor="middle" x="487.5" y="-726.8" font-family="Helvetica,sans-Serif" font-size="9.00">meta.js</text>
</a>
</g>
</g>
<!-- src/main/index.js&#45;&gt;src/extract/transpile/meta.js -->
<g id="edge7" class="edge">
<title>src/main/index.js&#45;&gt;src/extract/transpile/meta.js</title>
<path fill="none" stroke="#000000" stroke-width="2" stroke-opacity="0.200000" d="M206,-314.32C206,-376.76 206,-732 206,-732 206,-732 454.25,-732 454.25,-732"/>
<polygon fill="#000000" fill-opacity="0.200000" stroke="#000000" stroke-width="2" stroke-opacity="0.200000" points="454.25,-734.1 460.25,-732 454.25,-729.9 454.25,-734.1"/>
</g>
<!-- src/main/files&#45;and&#45;dirs/normalize.js -->
<g id="node16" class="node">
<title>src/main/files&#45;and&#45;dirs/normalize.js</title>
<g id="a_node16"><a xlink:href="src/main/files-and-dirs/normalize.js" xlink:title="normalize.js">
<path fill="#ffffcc" stroke="black" d="M378,-344C378,-344 324,-344 324,-344 321,-344 318,-341 318,-338 318,-338 318,-332 318,-332 318,-329 321,-326 324,-326 324,-326 378,-326 378,-326 381,-326 384,-329 384,-332 384,-332 384,-338 384,-338 384,-341 381,-344 378,-344"/>
<text text-anchor="middle" x="351" y="-332.8" font-family="Helvetica,sans-Serif" font-size="9.00">normalize.js</text>
</a>
</g>
</g>
<!-- src/main/index.js&#45;&gt;src/main/files&#45;and&#45;dirs/normalize.js -->
<g id="edge10" class="edge">
<title>src/main/index.js&#45;&gt;src/main/files&#45;and&#45;dirs/normalize.js</title>
<path fill="none" stroke="#000000" stroke-width="2" stroke-opacity="0.200000" d="M229,-314.16C229,-322.99 229,-335 229,-335 229,-335 311.99,-335 311.99,-335"/>
<polygon fill="#000000" fill-opacity="0.200000" stroke="#000000" stroke-width="2" stroke-opacity="0.200000" points="311.99,-337.1 317.99,-335 311.99,-332.9 311.99,-337.1"/>
</g>
<!-- src/schema/cruise&#45;result.schema.json -->
<g id="node17" class="node">
<title>src/schema/cruise&#45;result.schema.json</title>
<g id="a_node17"><a xlink:href="src/schema/cruise-result.schema.json" xlink:title="cruise&#45;result.schema.json">
<path fill="#ffee44" stroke="black" d="M542,-880C542,-880 433,-880 433,-880 430,-880 427,-877 427,-874 427,-874 427,-868 427,-868 427,-865 430,-862 433,-862 433,-862 542,-862 542,-862 545,-862 548,-865 548,-868 548,-868 548,-874 548,-874 548,-877 545,-880 542,-880"/>
<text text-anchor="middle" x="487.5" y="-868.8" font-family="Helvetica,sans-Serif" font-size="9.00">cruise&#45;result.schema.json</text>
</a>
</g>
</g>
<!-- src/main/index.js&#45;&gt;src/schema/cruise&#45;result.schema.json -->
<g id="edge8" class="edge">
<title>src/main/index.js&#45;&gt;src/schema/cruise&#45;result.schema.json</title>
<path fill="none" stroke="#000000" stroke-width="2" stroke-opacity="0.200000" d="M190,-314.35C190,-387.94 190,-871 190,-871 190,-871 420.94,-871 420.94,-871"/>
<polygon fill="#000000" fill-opacity="0.200000" stroke="#000000" stroke-width="2" stroke-opacity="0.200000" points="420.94,-873.1 426.94,-871 420.94,-868.9 420.94,-873.1"/>
</g>
<!-- src/utl/bus.js -->
<g id="node18" class="node">
<title>src/utl/bus.js</title>
<g id="a_node18"><a xlink:href="src/utl/bus.js" xlink:title="bus.js">
<path fill="#ffffcc" stroke="black" d="M372,-430C372,-430 330,-430 330,-430 327,-430 324,-427 324,-424 324,-424 324,-418 324,-418 324,-415 327,-412 330,-412 330,-412 372,-412 372,-412 375,-412 378,-415 378,-418 378,-418 378,-424 378,-424 378,-427 375,-430 372,-430"/>
<text text-anchor="middle" x="351" y="-418.8" font-family="Helvetica,sans-Serif" font-size="9.00">bus.js</text>
</a>
</g>
</g>
<!-- src/main/index.js&#45;&gt;src/utl/bus.js -->
<g id="edge9" class="edge">
<title>src/main/index.js&#45;&gt;src/utl/bus.js</title>
<path fill="none" stroke="#000000" stroke-width="2" stroke-opacity="0.200000" d="M221,-314.1C221,-341.45 221,-421 221,-421 221,-421 317.75,-421 317.75,-421"/>
<polygon fill="#000000" fill-opacity="0.200000" stroke="#000000" stroke-width="2" stroke-opacity="0.200000" points="317.75,-423.1 323.75,-421 317.75,-418.9 317.75,-423.1"/>
</g>
<!-- src/main/options/normalize.js -->
<g id="node19" class="node">
<title>src/main/options/normalize.js</title>
<g id="a_node19"><a xlink:href="src/main/options/normalize.js" xlink:title="normalize.js">
<path fill="#ffffcc" stroke="black" d="M514.5,-144C514.5,-144 460.5,-144 460.5,-144 457.5,-144 454.5,-141 454.5,-138 454.5,-138 454.5,-132 454.5,-132 454.5,-129 457.5,-126 460.5,-126 460.5,-126 514.5,-126 514.5,-126 517.5,-126 520.5,-129 520.5,-132 520.5,-132 520.5,-138 520.5,-138 520.5,-141 517.5,-144 514.5,-144"/>
<text text-anchor="middle" x="487.5" y="-132.8" font-family="Helvetica,sans-Serif" font-size="9.00">normalize.js</text>
</a>
</g>
</g>
<!-- src/main/index.js&#45;&gt;src/main/options/normalize.js -->
<g id="edge11" class="edge">
<title>src/main/index.js&#45;&gt;src/main/options/normalize.js</title>
<path fill="none" stroke="#000000" stroke-width="2" stroke-opacity="0.200000" d="M196,-295.86C196,-260.55 196,-135 196,-135 196,-135 448.35,-135 448.35,-135"/>
<polygon fill="#000000" fill-opacity="0.200000" stroke="#000000" stroke-width="2" stroke-opacity="0.200000" points="448.35,-137.1 454.35,-135 448.35,-132.9 448.35,-137.1"/>
</g>
<!-- src/main/options/validate.js -->
<g id="node20" class="node">
<title>src/main/options/validate.js</title>
<g id="a_node20"><a xlink:href="src/main/options/validate.js" xlink:title="validate.js">
<path fill="#ffffcc" stroke="black" d="M510.5,-174C510.5,-174 464.5,-174 464.5,-174 461.5,-174 458.5,-171 458.5,-168 458.5,-168 458.5,-162 458.5,-162 458.5,-159 461.5,-156 464.5,-156 464.5,-156 510.5,-156 510.5,-156 513.5,-156 516.5,-159 516.5,-162 516.5,-162 516.5,-168 516.5,-168 516.5,-171 513.5,-174 510.5,-174"/>
<text text-anchor="middle" x="487.5" y="-162.8" font-family="Helvetica,sans-Serif" font-size="9.00">validate.js</text>
</a>
</g>
</g>
<!-- src/main/index.js&#45;&gt;src/main/options/validate.js -->
<g id="edge12" class="edge">
<title>src/main/index.js&#45;&gt;src/main/options/validate.js</title>
<path fill="none" stroke="#000000" stroke-width="2" stroke-opacity="0.200000" d="M236.01,-305C306.02,-305 488,-305 488,-305 488,-305 488,-180.19 488,-180.19"/>
<polygon fill="#000000" fill-opacity="0.200000" stroke="#000000" stroke-width="2" stroke-opacity="0.200000" points="490.1,-180.19 488,-174.19 485.9,-180.19 490.1,-180.19"/>
</g>
<!-- src/main/report&#45;wrap.js -->
<g id="node21" class="node">
<title>src/main/report&#45;wrap.js</title>
<g id="a_node21"><a xlink:href="src/main/report-wrap.js" xlink:title="report&#45;wrap.js">
<path fill="#ffffcc" stroke="black" d="M381.5,-250C381.5,-250 320.5,-250 320.5,-250 317.5,-250 314.5,-247 314.5,-244 314.5,-244 314.5,-238 314.5,-238 314.5,-235 317.5,-232 320.5,-232 320.5,-232 381.5,-232 381.5,-232 384.5,-232 387.5,-235 387.5,-238 387.5,-238 387.5,-244 387.5,-244 387.5,-247 384.5,-250 381.5,-250"/>
<text text-anchor="middle" x="351" y="-238.8" font-family="Helvetica,sans-Serif" font-size="9.00">report&#45;wrap.js</text>
</a>
</g>
</g>
<!-- src/main/index.js&#45;&gt;src/main/report&#45;wrap.js -->
<g id="edge13" class="edge">
<title>src/main/index.js&#45;&gt;src/main/report&#45;wrap.js</title>
<path fill="none" stroke="#000000" stroke-width="2" stroke-opacity="0.200000" d="M223,-295.83C223,-278.13 223,-241 223,-241 223,-241 308.32,-241 308.32,-241"/>
<polygon fill="#000000" fill-opacity="0.200000" stroke="#000000" stroke-width="2" stroke-opacity="0.200000" points="308.32,-243.1 314.32,-241 308.32,-238.9 308.32,-243.1"/>
</g>
<!-- src/main/rule&#45;set/normalize.js -->
<g id="node22" class="node">
<title>src/main/rule&#45;set/normalize.js</title>
<g id="a_node22"><a xlink:href="src/main/rule-set/normalize.js" xlink:title="normalize.js">
<path fill="#ffffcc" stroke="black" d="M378,-198C378,-198 324,-198 324,-198 321,-198 318,-195 318,-192 318,-192 318,-186 318,-186 318,-183 321,-180 324,-180 324,-180 378,-180 378,-180 381,-180 384,-183 384,-186 384,-186 384,-192 384,-192 384,-195 381,-198 378,-198"/>
<text text-anchor="middle" x="351" y="-186.8" font-family="Helvetica,sans-Serif" font-size="9.00">normalize.js</text>
</a>
</g>
</g>
<!-- src/main/index.js&#45;&gt;src/main/rule&#45;set/normalize.js -->
<g id="edge15" class="edge">
<title>src/main/index.js&#45;&gt;src/main/rule&#45;set/normalize.js</title>
<path fill="none" stroke="#000000" stroke-width="2" stroke-opacity="0.200000" d="M216,-295.9C216,-268.55 216,-189 216,-189 216,-189 311.98,-189 311.98,-189"/>
<polygon fill="#000000" fill-opacity="0.200000" stroke="#000000" stroke-width="2" stroke-opacity="0.200000" points="311.98,-191.1 317.98,-189 311.98,-186.9 311.98,-191.1"/>
</g>
<!-- src/main/rule&#45;set/validate.js -->
<g id="node23" class="node">
<title>src/main/rule&#45;set/validate.js</title>
<g id="a_node23"><a xlink:href="src/main/rule-set/validate.js" xlink:title="validate.js">
<path fill="#ffffcc" stroke="black" d="M374,-168C374,-168 328,-168 328,-168 325,-168 322,-165 322,-162 322,-162 322,-156 322,-156 322,-153 325,-150 328,-150 328,-150 374,-150 374,-150 377,-150 380,-153 380,-156 380,-156 380,-162 380,-162 380,-165 377,-168 374,-168"/>
<text text-anchor="middle" x="351" y="-156.8" font-family="Helvetica,sans-Serif" font-size="9.00">validate.js</text>
</a>
</g>
</g>
<!-- src/main/index.js&#45;&gt;src/main/rule&#45;set/validate.js -->
<g id="edge16" class="edge">
<title>src/main/index.js&#45;&gt;src/main/rule&#45;set/validate.js</title>
<path fill="none" stroke="#000000" stroke-width="2" stroke-opacity="0.200000" d="M209,-295.87C209,-263.9 209,-159 209,-159 209,-159 315.92,-159 315.92,-159"/>
<polygon fill="#000000" fill-opacity="0.200000" stroke="#000000" stroke-width="2" stroke-opacity="0.200000" points="315.92,-161.1 321.92,-159 315.92,-156.9 315.92,-161.1"/>
</g>
<!-- src/cli/format.js -->
<g id="node3" class="node">
<title>src/cli/format.js</title>
<g id="a_node3"><a xlink:href="src/cli/format.js" xlink:title="format.js">
<path fill="#ffffcc" stroke="black" d="M91,-314C91,-314 49,-314 49,-314 46,-314 43,-311 43,-308 43,-308 43,-302 43,-302 43,-299 46,-296 49,-296 49,-296 91,-296 91,-296 94,-296 97,-299 97,-302 97,-302 97,-308 97,-308 97,-311 94,-314 91,-314"/>
<text text-anchor="middle" x="70" y="-302.8" font-family="Helvetica,sans-Serif" font-size="9.00">format.js</text>
</a>
</g>
</g>
<!-- src/cli/format.js&#45;&gt;src/main/index.js -->
<g id="edge2" class="edge">
<title>src/cli/format.js&#45;&gt;src/main/index.js</title>
<path fill="none" stroke="#000000" stroke-width="2" stroke-opacity="0.200000" d="M97.13,-302C97.13,-302 175.94,-302 175.94,-302"/>
<polygon fill="#000000" fill-opacity="0.200000" stroke="#000000" stroke-width="2" stroke-opacity="0.200000" points="175.94,-304.1 181.94,-302 175.94,-299.9 175.94,-304.1"/>
</g>
<!-- src/cli/index.js -->
<g id="node4" class="node">
<title>src/cli/index.js</title>
<g id="a_node4"><a xlink:href="src/cli/index.js" xlink:title="index.js">
<path fill="#ffffcc" stroke="black" d="M91,-284C91,-284 49,-284 49,-284 46,-284 43,-281 43,-278 43,-278 43,-272 43,-272 43,-269 46,-266 49,-266 49,-266 91,-266 91,-266 94,-266 97,-269 97,-272 97,-272 97,-278 97,-278 97,-281 94,-284 91,-284"/>
<text text-anchor="middle" x="70" y="-272.8" font-family="Helvetica,sans-Serif" font-size="9.00">index.js</text>
</a>
</g>
</g>
<!-- src/cli/index.js&#45;&gt;src/main/index.js -->
<g id="edge3" class="edge">
<title>src/cli/index.js&#45;&gt;src/main/index.js</title>
<path fill="none" stroke="#000000" stroke-width="2" stroke-opacity="0.200000" d="M97,-279.5C132.11,-279.5 189,-279.5 189,-279.5 189,-279.5 189,-289.79 189,-289.79"/>
<polygon fill="#000000" fill-opacity="0.200000" stroke="#000000" stroke-width="2" stroke-opacity="0.200000" points="186.9,-289.79 189,-295.79 191.1,-289.79 186.9,-289.79"/>
</g>
<!-- src/config&#45;utl/extract&#45;depcruise&#45;config/index.js -->
<g id="node5" class="node">
<title>src/config&#45;utl/extract&#45;depcruise&#45;config/index.js</title>
<g id="a_node5"><a xlink:href="src/config-utl/extract-depcruise-config/index.js" xlink:title="index.js">
<path fill="#ffffcc" stroke="black" d="M230,-50C230,-50 188,-50 188,-50 185,-50 182,-47 182,-44 182,-44 182,-38 182,-38 182,-35 185,-32 188,-32 188,-32 230,-32 230,-32 233,-32 236,-35 236,-38 236,-38 236,-44 236,-44 236,-47 233,-50 230,-50"/>
<text text-anchor="middle" x="209" y="-38.8" font-family="Helvetica,sans-Serif" font-size="9.00">index.js</text>
</a>
</g>
</g>
<!-- src/config&#45;utl/extract&#45;depcruise&#45;config/index.js&#45;&gt;src/main/resolve&#45;options/normalize.js -->
<g id="edge4" class="edge">
<title>src/config&#45;utl/extract&#45;depcruise&#45;config/index.js&#45;&gt;src/main/resolve&#45;options/normalize.js</title>
<path fill="none" stroke="#000000" stroke-width="2" stroke-opacity="0.200000" d="M203,-50.28C203,-93.22 203,-270.5 203,-270.5 203,-270.5 311.79,-270.5 311.79,-270.5"/>
<polygon fill="#000000" fill-opacity="0.200000" stroke="#000000" stroke-width="2" stroke-opacity="0.200000" points="311.79,-272.6 317.79,-270.5 311.79,-268.4 311.79,-272.6"/>
</g>
<!-- src/main/resolve&#45;options/normalize.js&#45;&gt;src/extract/transpile/meta.js -->
<g id="edge26" class="edge">
<title>src/main/resolve&#45;options/normalize.js&#45;&gt;src/extract/transpile/meta.js</title>
<path fill="none" stroke="#000000" stroke-width="2" stroke-opacity="0.200000" d="M384.43,-278C391.56,-278 397,-278 397,-278 397,-278 397,-726 397,-726 397,-726 454.35,-726 454.35,-726"/>
<polygon fill="#000000" fill-opacity="0.200000" stroke="#000000" stroke-width="2" stroke-opacity="0.200000" points="454.35,-728.1 460.35,-726 454.35,-723.9 454.35,-728.1"/>
</g>
<!-- src/graph&#45;utl/rule&#45;set.js -->
<g id="node14" class="node">
<title>src/graph&#45;utl/rule&#45;set.js</title>
<g id="a_node14"><a xlink:href="src/graph-utl/rule-set.js" xlink:title="rule&#45;set.js">
<path fill="#ffffcc" stroke="black" d="M509.5,-550C509.5,-550 465.5,-550 465.5,-550 462.5,-550 459.5,-547 459.5,-544 459.5,-544 459.5,-538 459.5,-538 459.5,-535 462.5,-532 465.5,-532 465.5,-532 509.5,-532 509.5,-532 512.5,-532 515.5,-535 515.5,-538 515.5,-538 515.5,-544 515.5,-544 515.5,-547 512.5,-550 509.5,-550"/>
<text text-anchor="middle" x="487.5" y="-538.8" font-family="Helvetica,sans-Serif" font-size="9.00">rule&#45;set.js</text>
</a>
</g>
</g>
<!-- src/main/resolve&#45;options/normalize.js&#45;&gt;src/graph&#45;utl/rule&#45;set.js -->
<g id="edge27" class="edge">
<title>src/main/resolve&#45;options/normalize.js&#45;&gt;src/graph&#45;utl/rule&#45;set.js</title>
<path fill="none" stroke="#000000" stroke-width="2" stroke-opacity="0.200000" d="M384.22,-272C396.28,-272 407,-272 407,-272 407,-272 407,-541 407,-541 407,-541 453.35,-541 453.35,-541"/>
<polygon fill="#000000" fill-opacity="0.200000" stroke="#000000" stroke-width="2" stroke-opacity="0.200000" points="453.35,-543.1 459.35,-541 453.34,-538.9 453.35,-543.1"/>
</g>
<!-- src/enrich/summarize/summarize&#45;modules.js -->
<g id="node8" class="node">
<title>src/enrich/summarize/summarize&#45;modules.js</title>
<g id="a_node8"><a xlink:href="src/enrich/summarize/summarize-modules.js" xlink:title="summarize&#45;modules.js">
<path fill="#ffffcc" stroke="black" d="M536,-618C536,-618 439,-618 439,-618 436,-618 433,-615 433,-612 433,-612 433,-606 433,-606 433,-603 436,-600 439,-600 439,-600 536,-600 536,-600 539,-600 542,-603 542,-606 542,-606 542,-612 542,-612 542,-615 539,-618 536,-618"/>
<text text-anchor="middle" x="487.5" y="-606.8" font-family="Helvetica,sans-Serif" font-size="9.00">summarize&#45;modules.js</text>
</a>
</g>
</g>
<!-- src/graph&#45;utl/compare.js -->
<g id="node11" class="node">
<title>src/graph&#45;utl/compare.js</title>
<g id="a_node11"><a xlink:href="src/graph-utl/compare.js" xlink:title="compare.js">
<path fill="#ffffcc" stroke="black" d="M512.5,-520C512.5,-520 462.5,-520 462.5,-520 459.5,-520 456.5,-517 456.5,-514 456.5,-514 456.5,-508 456.5,-508 456.5,-505 459.5,-502 462.5,-502 462.5,-502 512.5,-502 512.5,-502 515.5,-502 518.5,-505 518.5,-508 518.5,-508 518.5,-514 518.5,-514 518.5,-517 515.5,-520 512.5,-520"/>
<text text-anchor="middle" x="487.5" y="-508.8" font-family="Helvetica,sans-Serif" font-size="9.00">compare.js</text>
</a>
</g>
</g>
<!-- src/graph&#45;utl/consolidate&#45;to&#45;pattern.js -->
<g id="node12" class="node">
<title>src/graph&#45;utl/consolidate&#45;to&#45;pattern.js</title>
<g id="a_node12"><a xlink:href="src/graph-utl/consolidate-to-pattern.js" xlink:title="consolidate&#45;to&#45;pattern.js">
<path fill="#ffffcc" stroke="black" d="M539,-490C539,-490 436,-490 436,-490 433,-490 430,-487 430,-484 430,-484 430,-478 430,-478 430,-475 433,-472 436,-472 436,-472 539,-472 539,-472 542,-472 545,-475 545,-478 545,-478 545,-484 545,-484 545,-487 542,-490 539,-490"/>
<text text-anchor="middle" x="487.5" y="-478.8" font-family="Helvetica,sans-Serif" font-size="9.00">consolidate&#45;to&#45;pattern.js</text>
</a>
</g>
</g>
<!-- src/graph&#45;utl/filterbank.js -->
<g id="node13" class="node">
<title>src/graph&#45;utl/filterbank.js</title>
<g id="a_node13"><a xlink:href="src/graph-utl/filterbank.js" xlink:title="filterbank.js">
<path fill="#ffffcc" stroke="black" d="M513,-460C513,-460 462,-460 462,-460 459,-460 456,-457 456,-454 456,-454 456,-448 456,-448 456,-445 459,-442 462,-442 462,-442 513,-442 513,-442 516,-442 519,-445 519,-448 519,-448 519,-454 519,-454 519,-457 516,-460 513,-460"/>
<text text-anchor="middle" x="487.5" y="-448.8" font-family="Helvetica,sans-Serif" font-size="9.00">filterbank.js</text>
</a>
</g>
</g>
<!-- src/graph&#45;utl/strip&#45;self&#45;transitions.js -->
<g id="node15" class="node">
<title>src/graph&#45;utl/strip&#45;self&#45;transitions.js</title>
<g id="a_node15"><a xlink:href="src/graph-utl/strip-self-transitions.js" xlink:title="strip&#45;self&#45;transitions.js">
<path fill="#ffffcc" stroke="black" d="M534,-430C534,-430 441,-430 441,-430 438,-430 435,-427 435,-424 435,-424 435,-418 435,-418 435,-415 438,-412 441,-412 441,-412 534,-412 534,-412 537,-412 540,-415 540,-418 540,-418 540,-424 540,-424 540,-427 537,-430 534,-430"/>
<text text-anchor="middle" x="487.5" y="-418.8" font-family="Helvetica,sans-Serif" font-size="9.00">strip&#45;self&#45;transitions.js</text>
</a>
</g>
</g>
<!-- src/main/options/defaults.json -->
<g id="node24" class="node">
<title>src/main/options/defaults.json</title>
<g id="a_node24"><a xlink:href="src/main/options/defaults.json" xlink:title="defaults.json">
<path fill="#ffee44" stroke="black" d="M663,-144C663,-144 607,-144 607,-144 604,-144 601,-141 601,-138 601,-138 601,-132 601,-132 601,-129 604,-126 607,-126 607,-126 663,-126 663,-126 666,-126 669,-129 669,-132 669,-132 669,-138 669,-138 669,-141 666,-144 663,-144"/>
<text text-anchor="middle" x="635" y="-132.8" font-family="Helvetica,sans-Serif" font-size="9.00">defaults.json</text>
</a>
</g>
</g>
<!-- src/main/options/normalize.js&#45;&gt;src/main/options/defaults.json -->
<g id="edge18" class="edge">
<title>src/main/options/normalize.js&#45;&gt;src/main/options/defaults.json</title>
<path fill="none" stroke="#000000" stroke-width="2" stroke-opacity="0.200000" d="M520.6,-132C520.6,-132 594.99,-132 594.99,-132"/>
<polygon fill="#000000" fill-opacity="0.200000" stroke="#000000" stroke-width="2" stroke-opacity="0.200000" points="594.99,-134.1 600.99,-132 594.99,-129.9 594.99,-134.1"/>
</g>
<!-- src/main/utl/normalize&#45;re&#45;properties.js -->
<g id="node25" class="node">
<title>src/main/utl/normalize&#45;re&#45;properties.js</title>
<g id="a_node25"><a xlink:href="src/main/utl/normalize-re-properties.js" xlink:title="normalize&#45;re&#45;properties.js">
<path fill="#ffffcc" stroke="black" d="M690,-234C690,-234 580,-234 580,-234 577,-234 574,-231 574,-228 574,-228 574,-222 574,-222 574,-219 577,-216 580,-216 580,-216 690,-216 690,-216 693,-216 696,-219 696,-222 696,-222 696,-228 696,-228 696,-231 693,-234 690,-234"/>
<text text-anchor="middle" x="635" y="-222.8" font-family="Helvetica,sans-Serif" font-size="9.00">normalize&#45;re&#45;properties.js</text>
</a>
</g>
</g>
<!-- src/main/options/normalize.js&#45;&gt;src/main/utl/normalize&#45;re&#45;properties.js -->
<g id="edge17" class="edge">
<title>src/main/options/normalize.js&#45;&gt;src/main/utl/normalize&#45;re&#45;properties.js</title>
<path fill="none" stroke="#000000" stroke-width="2" stroke-opacity="0.200000" d="M520.56,-138C551.18,-138 592,-138 592,-138 592,-138 592,-209.69 592,-209.69"/>
<polygon fill="#000000" fill-opacity="0.200000" stroke="#000000" stroke-width="2" stroke-opacity="0.200000" points="589.9,-209.69 592,-215.69 594.1,-209.69 589.9,-209.69"/>
</g>
<!-- src/report/index.js -->
<g id="node26" class="node">
<title>src/report/index.js</title>
<g id="a_node26"><a xlink:href="src/report/index.js" xlink:title="index.js">
<path fill="#ffffcc" stroke="black" d="M656,-430C656,-430 614,-430 614,-430 611,-430 608,-427 608,-424 608,-424 608,-418 608,-418 608,-415 611,-412 614,-412 614,-412 656,-412 656,-412 659,-412 662,-415 662,-418 662,-418 662,-424 662,-424 662,-427 659,-430 656,-430"/>
<text text-anchor="middle" x="635" y="-418.8" font-family="Helvetica,sans-Serif" font-size="9.00">index.js</text>
</a>
</g>
</g>
<!-- src/main/options/validate.js&#45;&gt;src/report/index.js -->
<g id="edge19" class="edge">
<title>src/main/options/validate.js&#45;&gt;src/report/index.js</title>
<path fill="none" stroke="#000000" stroke-width="2" stroke-opacity="0.200000" d="M516.52,-165C537.44,-165 562,-165 562,-165 562,-165 562,-421 562,-421 562,-421 601.82,-421 601.82,-421"/>
<polygon fill="#000000" fill-opacity="0.200000" stroke="#000000" stroke-width="2" stroke-opacity="0.200000" points="601.82,-423.1 607.82,-421 601.82,-418.9 601.82,-423.1"/>
</g>
<!-- src/main/report&#45;wrap.js&#45;&gt;src/enrich/summarize/summarize&#45;modules.js -->
<g id="edge20" class="edge">
<title>src/main/report&#45;wrap.js&#45;&gt;src/enrich/summarize/summarize&#45;modules.js</title>
<path fill="none" stroke="#000000" stroke-width="2" stroke-opacity="0.200000" d="M387.52,-243.14C395.7,-243.14 402,-243.14 402,-243.14 402,-243.14 402,-609 402,-609 402,-609 426.87,-609 426.87,-609"/>
<polygon fill="#000000" fill-opacity="0.200000" stroke="#000000" stroke-width="2" stroke-opacity="0.200000" points="426.87,-611.1 432.87,-609 426.87,-606.9 426.87,-611.1"/>
</g>
<!-- src/main/report&#45;wrap.js&#45;&gt;src/graph&#45;utl/compare.js -->
<g id="edge21" class="edge">
<title>src/main/report&#45;wrap.js&#45;&gt;src/graph&#45;utl/compare.js</title>
<path fill="none" stroke="#000000" stroke-width="2" stroke-opacity="0.200000" d="M387.54,-240.86C400.53,-240.86 412,-240.86 412,-240.86 412,-240.86 412,-511 412,-511 412,-511 450.36,-511 450.36,-511"/>
<polygon fill="#000000" fill-opacity="0.200000" stroke="#000000" stroke-width="2" stroke-opacity="0.200000" points="450.36,-513.1 456.36,-511 450.36,-508.9 450.36,-513.1"/>
</g>
<!-- src/main/report&#45;wrap.js&#45;&gt;src/graph&#45;utl/consolidate&#45;to&#45;pattern.js -->
<g id="edge22" class="edge">
<title>src/main/report&#45;wrap.js&#45;&gt;src/graph&#45;utl/consolidate&#45;to&#45;pattern.js</title>
<path fill="none" stroke="#000000" stroke-width="2" stroke-opacity="0.200000" d="M387.68,-238.57C402.42,-238.57 416,-238.57 416,-238.57 416,-238.57 416,-481 416,-481 416,-481 423.79,-481 423.79,-481"/>
<polygon fill="#000000" fill-opacity="0.200000" stroke="#000000" stroke-width="2" stroke-opacity="0.200000" points="423.79,-483.1 429.79,-481 423.79,-478.9 423.79,-483.1"/>
</g>
<!-- src/main/report&#45;wrap.js&#45;&gt;src/graph&#45;utl/filterbank.js -->
<g id="edge23" class="edge">
<title>src/main/report&#45;wrap.js&#45;&gt;src/graph&#45;utl/filterbank.js</title>
<path fill="none" stroke="#000000" stroke-width="2" stroke-opacity="0.200000" d="M387.64,-236.29C404.58,-236.29 421,-236.29 421,-236.29 421,-236.29 421,-451 421,-451 421,-451 449.81,-451 449.81,-451"/>
<polygon fill="#000000" fill-opacity="0.200000" stroke="#000000" stroke-width="2" stroke-opacity="0.200000" points="449.81,-453.1 455.81,-451 449.81,-448.9 449.81,-453.1"/>
</g>
<!-- src/main/report&#45;wrap.js&#45;&gt;src/graph&#45;utl/strip&#45;self&#45;transitions.js -->
<g id="edge24" class="edge">
<title>src/main/report&#45;wrap.js&#45;&gt;src/graph&#45;utl/strip&#45;self&#45;transitions.js</title>
<path fill="none" stroke="#000000" stroke-width="2" stroke-opacity="0.200000" d="M387.61,-247.71C414.01,-247.71 445,-247.71 445,-247.71 445,-247.71 445,-405.68 445,-405.68"/>
<polygon fill="#000000" fill-opacity="0.200000" stroke="#000000" stroke-width="2" stroke-opacity="0.200000" points="442.9,-405.68 445,-411.68 447.1,-405.68 442.9,-405.68"/>
</g>
<!-- src/main/report&#45;wrap.js&#45;&gt;src/report/index.js -->
<g id="edge25" class="edge">
<title>src/main/report&#45;wrap.js&#45;&gt;src/report/index.js</title>
<path fill="none" stroke="#000000" stroke-width="2" stroke-opacity="0.200000" d="M387.55,-245.43C464.25,-245.43 635,-245.43 635,-245.43 635,-245.43 635,-405.56 635,-405.56"/>
<polygon fill="#000000" fill-opacity="0.200000" stroke="#000000" stroke-width="2" stroke-opacity="0.200000" points="632.9,-405.56 635,-411.56 637.1,-405.56 632.9,-405.56"/>
</g>
<!-- src/main/rule&#45;set/normalize.js&#45;&gt;src/main/utl/normalize&#45;re&#45;properties.js -->
<g id="edge28" class="edge">
<title>src/main/rule&#45;set/normalize.js&#45;&gt;src/main/utl/normalize&#45;re&#45;properties.js</title>
<path fill="none" stroke="#000000" stroke-width="2" stroke-opacity="0.200000" d="M384.24,-189C448.39,-189 583,-189 583,-189 583,-189 583,-209.92 583,-209.92"/>
<polygon fill="#000000" fill-opacity="0.200000" stroke="#000000" stroke-width="2" stroke-opacity="0.200000" points="580.9,-209.92 583,-215.92 585.1,-209.92 580.9,-209.92"/>
</g>
<!-- src/main/rule&#45;set/validate.js&#45;&gt;src/main/options/validate.js -->
<g id="edge30" class="edge">
<title>src/main/rule&#45;set/validate.js&#45;&gt;src/main/options/validate.js</title>
<path fill="none" stroke="#000000" stroke-width="2" stroke-opacity="0.200000" d="M380.28,-160C380.28,-160 452.27,-160 452.27,-160"/>
<polygon fill="#000000" fill-opacity="0.200000" stroke="#000000" stroke-width="2" stroke-opacity="0.200000" points="452.27,-162.1 458.27,-160 452.27,-157.9 452.27,-162.1"/>
</g>
<!-- src/schema/configuration.schema.json -->
<g id="node27" class="node">
<title>src/schema/configuration.schema.json</title>
<g id="a_node27"><a xlink:href="src/schema/configuration.schema.json" xlink:title="configuration.schema.json">
<path fill="#ffee44" stroke="black" d="M543.5,-850C543.5,-850 431.5,-850 431.5,-850 428.5,-850 425.5,-847 425.5,-844 425.5,-844 425.5,-838 425.5,-838 425.5,-835 428.5,-832 431.5,-832 431.5,-832 543.5,-832 543.5,-832 546.5,-832 549.5,-835 549.5,-838 549.5,-838 549.5,-844 549.5,-844 549.5,-847 546.5,-850 543.5,-850"/>
<text text-anchor="middle" x="487.5" y="-838.8" font-family="Helvetica,sans-Serif" font-size="9.00">configuration.schema.json</text>
</a>
</g>
</g>
<!-- src/main/rule&#45;set/validate.js&#45;&gt;src/schema/configuration.schema.json -->
<g id="edge29" class="edge">
<title>src/main/rule&#45;set/validate.js&#45;&gt;src/schema/configuration.schema.json</title>
<path fill="none" stroke="#000000" stroke-width="2" stroke-opacity="0.200000" d="M380.17,-164C387.34,-164 393,-164 393,-164 393,-164 393,-841 393,-841 393,-841 419.26,-841 419.26,-841"/>
<polygon fill="#000000" fill-opacity="0.200000" stroke="#000000" stroke-width="2" stroke-opacity="0.200000" points="419.26,-843.1 425.26,-841 419.26,-838.9 419.26,-843.1"/>
</g>
</g>
</svg>
