<?xml version="1.0" encoding="UTF-8" standalone="no"?>
<!DOCTYPE svg PUBLIC "-//W3C//DTD SVG 1.1//EN"
 "http://www.w3.org/Graphics/SVG/1.1/DTD/svg11.dtd">
<!-- Generated by graphviz version 8.0.1 (20230327.1645)
 -->
<!-- Title: dependency&#45;cruiser output Pages: 1 -->
<svg width="779pt" height="814pt"
 viewBox="0.00 0.00 779.00 814.00" xmlns="http://www.w3.org/2000/svg" xmlns:xlink="http://www.w3.org/1999/xlink">
<g id="graph0" class="graph" transform="scale(1 1) rotate(0) translate(4 810)">
<title>dependency&#45;cruiser output</title>
<polygon fill="white" stroke="none" points="-4,4 -4,-810 775,-810 775,4 -4,4"/>
<g id="clust1" class="cluster">
<title>cluster_src</title>
<path fill="#ffffff" stroke="black" stroke-width="2" d="M20,-8C20,-8 751,-8 751,-8 757,-8 763,-14 763,-20 763,-20 763,-786 763,-786 763,-792 757,-798 751,-798 751,-798 20,-798 20,-798 14,-798 8,-792 8,-786 8,-786 8,-20 8,-20 8,-14 14,-8 20,-8"/>
<text text-anchor="middle" x="385.5" y="-786.8" font-family="Helvetica,sans-Serif" font-weight="bold" font-size="9.00">src</text>
</g>
<g id="clust2" class="cluster">
<title>cluster_src/cache</title>
<path fill="#ffffff" stroke="black" stroke-width="2" d="M394,-678C394,-678 444,-678 444,-678 450,-678 456,-684 456,-690 456,-690 456,-718 456,-718 456,-724 450,-730 444,-730 444,-730 394,-730 394,-730 388,-730 382,-724 382,-718 382,-718 382,-690 382,-690 382,-684 388,-678 394,-678"/>
<text text-anchor="middle" x="419" y="-718.8" font-family="Helvetica,sans-Serif" font-weight="bold" font-size="9.00">cache</text>
</g>
<g id="clust3" class="cluster">
<title>cluster_src/cli</title>
<path fill="#ffffff" stroke="black" stroke-width="2" d="M28,-448C28,-448 192,-448 192,-448 198,-448 204,-454 204,-460 204,-460 204,-518 204,-518 204,-524 198,-530 192,-530 192,-530 28,-530 28,-530 22,-530 16,-524 16,-518 16,-518 16,-460 16,-460 16,-454 22,-448 28,-448"/>
<text text-anchor="middle" x="110" y="-518.8" font-family="Helvetica,sans-Serif" font-weight="bold" font-size="9.00">cli</text>
</g>
<g id="clust4" class="cluster">
<title>cluster_src/config&#45;utl</title>
<path fill="#ffffff" stroke="black" stroke-width="2" d="M232,-162C232,-162 346,-162 346,-162 352,-162 358,-168 358,-174 358,-174 358,-236 358,-236 358,-242 352,-248 346,-248 346,-248 232,-248 232,-248 226,-248 220,-242 220,-236 220,-236 220,-174 220,-174 220,-168 226,-162 232,-162"/>
<text text-anchor="middle" x="289" y="-236.8" font-family="Helvetica,sans-Serif" font-weight="bold" font-size="9.00">config&#45;utl</text>
</g>
<g id="clust5" class="cluster">
<title>cluster_src/config&#45;utl/extract&#45;depcruise&#45;config</title>
<path fill="#ffffff" stroke="black" stroke-width="2" d="M240,-170C240,-170 338,-170 338,-170 344,-170 350,-176 350,-182 350,-182 350,-210 350,-210 350,-216 344,-222 338,-222 338,-222 240,-222 240,-222 234,-222 228,-216 228,-210 228,-210 228,-182 228,-182 228,-176 234,-170 240,-170"/>
<text text-anchor="middle" x="289" y="-210.8" font-family="Helvetica,sans-Serif" font-weight="bold" font-size="9.00">extract&#45;depcruise&#45;config</text>
</g>
<g id="clust6" class="cluster">
<title>cluster_src/enrich</title>
<path fill="#ffffff" stroke="black" stroke-width="2" d="M395,-108C395,-108 572.5,-108 572.5,-108 578.5,-108 584.5,-114 584.5,-120 584.5,-120 584.5,-182 584.5,-182 584.5,-188 578.5,-194 572.5,-194 572.5,-194 395,-194 395,-194 389,-194 383,-188 383,-182 383,-182 383,-120 383,-120 383,-114 389,-108 395,-108"/>
<text text-anchor="middle" x="483.75" y="-182.8" font-family="Helvetica,sans-Serif" font-weight="bold" font-size="9.00">enrich</text>
</g>
<g id="clust7" class="cluster">
<title>cluster_src/enrich/summarize</title>
<path fill="#ffffff" stroke="black" stroke-width="2" d="M516.5,-116C516.5,-116 564.5,-116 564.5,-116 570.5,-116 576.5,-122 576.5,-128 576.5,-128 576.5,-156 576.5,-156 576.5,-162 570.5,-168 564.5,-168 564.5,-168 516.5,-168 516.5,-168 510.5,-168 504.5,-162 504.5,-156 504.5,-156 504.5,-128 504.5,-128 504.5,-122 510.5,-116 516.5,-116"/>
<text text-anchor="middle" x="540.5" y="-156.8" font-family="Helvetica,sans-Serif" font-weight="bold" font-size="9.00">summarize</text>
</g>
<g id="clust8" class="cluster">
<title>cluster_src/extract</title>
<path fill="#ffffff" stroke="black" stroke-width="2" d="M509.5,-650C509.5,-650 571.5,-650 571.5,-650 577.5,-650 583.5,-656 583.5,-662 583.5,-662 583.5,-750 583.5,-750 583.5,-756 577.5,-762 571.5,-762 571.5,-762 509.5,-762 509.5,-762 503.5,-762 497.5,-756 497.5,-750 497.5,-750 497.5,-662 497.5,-662 497.5,-656 503.5,-650 509.5,-650"/>
<text text-anchor="middle" x="540.5" y="-750.8" font-family="Helvetica,sans-Serif" font-weight="bold" font-size="9.00">extract</text>
</g>
<g id="clust9" class="cluster">
<title>cluster_src/extract/transpile</title>
<path fill="#ffffff" stroke="black" stroke-width="2" d="M517.5,-658C517.5,-658 563.5,-658 563.5,-658 569.5,-658 575.5,-664 575.5,-670 575.5,-670 575.5,-698 575.5,-698 575.5,-704 569.5,-710 563.5,-710 563.5,-710 517.5,-710 517.5,-710 511.5,-710 505.5,-704 505.5,-698 505.5,-698 505.5,-670 505.5,-670 505.5,-664 511.5,-658 517.5,-658"/>
<text text-anchor="middle" x="540.5" y="-698.8" font-family="Helvetica,sans-Serif" font-weight="bold" font-size="9.00">transpile</text>
</g>
<g id="clust10" class="cluster">
<title>cluster_src/graph&#45;utl</title>
<path fill="#ffffff" stroke="black" stroke-width="2" d="M629,-16C629,-16 743,-16 743,-16 749,-16 755,-22 755,-28 755,-28 755,-176 755,-176 755,-182 749,-188 743,-188 743,-188 629,-188 629,-188 623,-188 617,-182 617,-176 617,-176 617,-28 617,-28 617,-22 623,-16 629,-16"/>
<text text-anchor="middle" x="686" y="-176.8" font-family="Helvetica,sans-Serif" font-weight="bold" font-size="9.00">graph&#45;utl</text>
</g>
<g id="clust11" class="cluster">
<title>cluster_src/main</title>
<path fill="#ffffff" stroke="black" stroke-width="2" d="M265,-256C265,-256 722.5,-256 722.5,-256 728.5,-256 734.5,-262 734.5,-268 734.5,-268 734.5,-530 734.5,-530 734.5,-536 728.5,-542 722.5,-542 722.5,-542 265,-542 265,-542 259,-542 253,-536 253,-530 253,-530 253,-268 253,-268 253,-262 259,-256 265,-256"/>
<text text-anchor="middle" x="493.75" y="-530.8" font-family="Helvetica,sans-Serif" font-weight="bold" font-size="9.00">main</text>
</g>
<g id="clust13" class="cluster">
<title>cluster_src/main/options</title>
<path fill="#ffffff" stroke="black" stroke-width="2" d="M507.5,-334C507.5,-334 714.5,-334 714.5,-334 720.5,-334 726.5,-340 726.5,-346 726.5,-346 726.5,-404 726.5,-404 726.5,-410 720.5,-416 714.5,-416 714.5,-416 507.5,-416 507.5,-416 501.5,-416 495.5,-410 495.5,-404 495.5,-404 495.5,-346 495.5,-346 495.5,-340 501.5,-334 507.5,-334"/>
<text text-anchor="middle" x="611" y="-404.8" font-family="Helvetica,sans-Serif" font-weight="bold" font-size="9.00">options</text>
</g>
<g id="clust12" class="cluster">
<title>cluster_src/main/files&#45;and&#45;dirs</title>
<path fill="#ffffff" stroke="black" stroke-width="2" d="M386,-374C386,-374 452,-374 452,-374 458,-374 464,-380 464,-386 464,-386 464,-414 464,-414 464,-420 458,-426 452,-426 452,-426 386,-426 386,-426 380,-426 374,-420 374,-414 374,-414 374,-386 374,-386 374,-380 380,-374 386,-374"/>
<text text-anchor="middle" x="419" y="-414.8" font-family="Helvetica,sans-Serif" font-weight="bold" font-size="9.00">files&#45;and&#45;dirs</text>
</g>
<g id="clust14" class="cluster">
<title>cluster_src/main/resolve&#45;options</title>
<path fill="#ffffff" stroke="black" stroke-width="2" d="M386,-290C386,-290 452,-290 452,-290 458,-290 464,-296 464,-302 464,-302 464,-330 464,-330 464,-336 458,-342 452,-342 452,-342 386,-342 386,-342 380,-342 374,-336 374,-330 374,-330 374,-302 374,-302 374,-296 380,-290 386,-290"/>
<text text-anchor="middle" x="419" y="-330.8" font-family="Helvetica,sans-Serif" font-weight="bold" font-size="9.00">resolve&#45;options</text>
</g>
<g id="clust15" class="cluster">
<title>cluster_src/main/rule&#45;set</title>
<path fill="#ffffff" stroke="black" stroke-width="2" d="M386,-434C386,-434 452,-434 452,-434 458,-434 464,-440 464,-446 464,-446 464,-504 464,-504 464,-510 458,-516 452,-516 452,-516 386,-516 386,-516 380,-516 374,-510 374,-504 374,-504 374,-446 374,-446 374,-440 380,-434 386,-434"/>
<text text-anchor="middle" x="419" y="-504.8" font-family="Helvetica,sans-Serif" font-weight="bold" font-size="9.00">rule&#45;set</text>
</g>
<g id="clust16" class="cluster">
<title>cluster_src/report</title>
<path fill="#ffffff" stroke="black" stroke-width="2" d="M662,-196C662,-196 710,-196 710,-196 716,-196 722,-202 722,-208 722,-208 722,-236 722,-236 722,-242 716,-248 710,-248 710,-248 662,-248 662,-248 656,-248 650,-242 650,-236 650,-236 650,-208 650,-208 650,-202 656,-196 662,-196"/>
<text text-anchor="middle" x="686" y="-236.8" font-family="Helvetica,sans-Serif" font-weight="bold" font-size="9.00">report</text>
</g>
<g id="clust17" class="cluster">
<title>cluster_src/schema</title>
<path fill="#ffffff" stroke="black" stroke-width="2" d="M484,-550C484,-550 597,-550 597,-550 603,-550 609,-556 609,-562 609,-562 609,-620 609,-620 609,-626 603,-632 597,-632 597,-632 484,-632 484,-632 478,-632 472,-626 472,-620 472,-620 472,-562 472,-562 472,-556 478,-550 484,-550"/>
<text text-anchor="middle" x="540.5" y="-620.8" font-family="Helvetica,sans-Serif" font-weight="bold" font-size="9.00">schema</text>
</g>
<g id="clust18" class="cluster">
<title>cluster_src/utl</title>
<path fill="#ffffff" stroke="black" stroke-width="2" d="M663,-710C663,-710 709,-710 709,-710 715,-710 721,-716 721,-722 721,-722 721,-750 721,-750 721,-756 715,-762 709,-762 709,-762 663,-762 663,-762 657,-762 651,-756 651,-750 651,-750 651,-722 651,-722 651,-716 657,-710 663,-710"/>
<text text-anchor="middle" x="686" y="-750.8" font-family="Helvetica,sans-Serif" font-weight="bold" font-size="9.00">utl</text>
</g>
<!-- src/cache/cache.mjs -->
<g id="node1" class="node">
<title>src/cache/cache.mjs</title>
<g id="a_node1"><a xlink:href="src/cache/cache.mjs" xlink:title="cache.mjs">
<path fill="#ffffcc" stroke="black" d="M442,-704C442,-704 396,-704 396,-704 393,-704 390,-701 390,-698 390,-698 390,-692 390,-692 390,-689 393,-686 396,-686 396,-686 442,-686 442,-686 445,-686 448,-689 448,-692 448,-692 448,-698 448,-698 448,-701 445,-704 442,-704"/>
<text text-anchor="start" x="398" y="-692.8" font-family="Helvetica,sans-Serif" font-size="9.00">cache.mjs</text>
</a>
</g>
</g>
<!-- src/extract/transpile/meta.mjs -->
<g id="node2" class="node">
<title>src/extract/transpile/meta.mjs</title>
<g id="a_node2"><a xlink:href="src/extract/transpile/meta.mjs" xlink:title="meta.mjs">
<path fill="#ffffcc" stroke="black" d="M561.5,-684C561.5,-684 519.5,-684 519.5,-684 516.5,-684 513.5,-681 513.5,-678 513.5,-678 513.5,-672 513.5,-672 513.5,-669 516.5,-666 519.5,-666 519.5,-666 561.5,-666 561.5,-666 564.5,-666 567.5,-669 567.5,-672 567.5,-672 567.5,-678 567.5,-678 567.5,-681 564.5,-684 561.5,-684"/>
<text text-anchor="start" x="522" y="-672.8" font-family="Helvetica,sans-Serif" font-size="9.00">meta.mjs</text>
</a>
</g>
</g>
<!-- src/cache/cache.mjs&#45;&gt;src/extract/transpile/meta.mjs -->
<g id="edge1" class="edge">
<title>src/cache/cache.mjs&#45;&gt;src/extract/transpile/meta.mjs</title>
<path fill="none" stroke="#000000" stroke-width="2" stroke-opacity="0.200000" d="M448.22,-695C484.31,-695 541,-695 541,-695 541,-695 541,-693.06 541,-693.06"/>
<polygon fill="#000000" fill-opacity="0.200000" stroke="#000000" stroke-width="2" stroke-opacity="0.200000" points="543.1,-693.06 541,-687.06 538.9,-693.06 543.1,-693.06"/>
</g>
<!-- src/cli/format&#45;meta&#45;info.mjs -->
<g id="node3" class="node">
<title>src/cli/format&#45;meta&#45;info.mjs</title>
<g id="a_node3"><a xlink:href="src/cli/format-meta-info.mjs" xlink:title="format&#45;meta&#45;info.mjs">
<path fill="#ffffcc" stroke="black" d="M190,-504C190,-504 102,-504 102,-504 99,-504 96,-501 96,-498 96,-498 96,-492 96,-492 96,-489 99,-486 102,-486 102,-486 190,-486 190,-486 193,-486 196,-489 196,-492 196,-492 196,-498 196,-498 196,-501 193,-504 190,-504"/>
<text text-anchor="start" x="104" y="-492.8" font-family="Helvetica,sans-Serif" font-size="9.00">format&#45;meta&#45;info.mjs</text>
</a>
</g>
</g>
<!-- src/main/index.mjs -->
<g id="node4" class="node">
<title>src/main/index.mjs</title>
<g id="a_node4"><a xlink:href="src/main/index.mjs" xlink:title="index.mjs">
<path fill="#ffffcc" stroke="black" d="M311,-475C311,-475 267,-475 267,-475 264,-475 261,-472 261,-469 261,-469 261,-463 261,-463 261,-460 264,-457 267,-457 267,-457 311,-457 311,-457 314,-457 317,-460 317,-463 317,-463 317,-469 317,-469 317,-472 314,-475 311,-475"/>
<text text-anchor="start" x="269" y="-463.8" font-family="Helvetica,sans-Serif" font-size="9.00">index.mjs</text>
</a>
</g>
</g>
<!-- src/cli/format&#45;meta&#45;info.mjs&#45;&gt;src/main/index.mjs -->
<g id="edge2" class="edge">
<title>src/cli/format&#45;meta&#45;info.mjs&#45;&gt;src/main/index.mjs</title>
<path fill="none" stroke="#000000" stroke-width="2" stroke-opacity="0.200000" d="M196.38,-497C230.35,-497 269,-497 269,-497 269,-497 269,-484.47 269,-484.47"/>
<polygon fill="#000000" fill-opacity="0.200000" stroke="#000000" stroke-width="2" stroke-opacity="0.200000" points="271.1,-484.47 269,-478.47 266.9,-484.47 271.1,-484.47"/>
</g>
<!-- src/main/index.mjs&#45;&gt;src/cache/cache.mjs -->
<g id="edge11" class="edge">
<title>src/main/index.mjs&#45;&gt;src/cache/cache.mjs</title>
<path fill="none" stroke="#000000" stroke-width="2" stroke-opacity="0.200000" d="M285,-475.26C285,-518.1 285,-695 285,-695 285,-695 380.59,-695 380.59,-695"/>
<polygon fill="#000000" fill-opacity="0.200000" stroke="#000000" stroke-width="2" stroke-opacity="0.200000" points="380.59,-697.1 386.59,-695 380.59,-692.9 380.59,-697.1"/>
</g>
<!-- src/main/index.mjs&#45;&gt;src/extract/transpile/meta.mjs -->
<g id="edge14" class="edge">
<title>src/main/index.mjs&#45;&gt;src/extract/transpile/meta.mjs</title>
<path fill="none" stroke="#000000" stroke-width="2" stroke-opacity="0.200000" d="M293,-475.38C293,-516.41 293,-678 293,-678 293,-678 504.07,-678 504.07,-678"/>
<polygon fill="#000000" fill-opacity="0.200000" stroke="#000000" stroke-width="2" stroke-opacity="0.200000" points="504.07,-680.1 510.07,-678 504.07,-675.9 504.07,-680.1"/>
</g>
<!-- src/utl/bus.mjs -->
<g id="node7" class="node">
<title>src/utl/bus.mjs</title>
<g id="a_node7"><a xlink:href="src/utl/bus.mjs" xlink:title="bus.mjs">
<path fill="#ffffcc" stroke="black" d="M707,-736C707,-736 665,-736 665,-736 662,-736 659,-733 659,-730 659,-730 659,-724 659,-724 659,-721 662,-718 665,-718 665,-718 707,-718 707,-718 710,-718 713,-721 713,-724 713,-724 713,-730 713,-730 713,-733 710,-736 707,-736"/>
<text text-anchor="start" x="670" y="-724.8" font-family="Helvetica,sans-Serif" font-size="9.00">bus.mjs</text>
</a>
</g>
</g>
<!-- src/main/index.mjs&#45;&gt;src/utl/bus.mjs -->
<g id="edge16" class="edge">
<title>src/main/index.mjs&#45;&gt;src/utl/bus.mjs</title>
<path fill="none" stroke="#000000" stroke-width="2" stroke-opacity="0.200000" d="M317.23,-470C407.93,-470 686,-470 686,-470 686,-470 686,-708.55 686,-708.55"/>
<polygon fill="#000000" fill-opacity="0.200000" stroke="#000000" stroke-width="2" stroke-opacity="0.200000" points="683.9,-708.55 686,-714.55 688.1,-708.55 683.9,-708.55"/>
</g>
<!-- src/main/resolve&#45;options/normalize.mjs -->
<g id="node9" class="node">
<title>src/main/resolve&#45;options/normalize.mjs</title>
<g id="a_node9"><a xlink:href="src/main/resolve-options/normalize.mjs" xlink:title="normalize.mjs">
<path fill="#ffffcc" stroke="black" d="M450,-316C450,-316 388,-316 388,-316 385,-316 382,-313 382,-310 382,-310 382,-304 382,-304 382,-301 385,-298 388,-298 388,-298 450,-298 450,-298 453,-298 456,-301 456,-304 456,-304 456,-310 456,-310 456,-313 453,-316 450,-316"/>
<text text-anchor="start" x="390" y="-304.8" font-family="Helvetica,sans-Serif" font-size="9.00">normalize.mjs</text>
</a>
</g>
</g>
<!-- src/main/index.mjs&#45;&gt;src/main/resolve&#45;options/normalize.mjs -->
<g id="edge21" class="edge">
<title>src/main/index.mjs&#45;&gt;src/main/resolve&#45;options/normalize.mjs</title>
<path fill="none" stroke="#000000" stroke-width="2" stroke-opacity="0.200000" d="M317.35,-466C338.59,-466 364,-466 364,-466 364,-466 364,-310 364,-310 364,-310 372.71,-310 372.71,-310"/>
<polygon fill="#000000" fill-opacity="0.200000" stroke="#000000" stroke-width="2" stroke-opacity="0.200000" points="372.71,-312.1 378.71,-310 372.71,-307.9 372.71,-312.1"/>
</g>
<!-- src/enrich/index.mjs -->
<g id="node10" class="node">
<title>src/enrich/index.mjs</title>
<g id="a_node10"><a xlink:href="src/enrich/index.mjs" xlink:title="index.mjs">
<path fill="#ffffcc" stroke="black" d="M441,-155C441,-155 397,-155 397,-155 394,-155 391,-152 391,-149 391,-149 391,-143 391,-143 391,-140 394,-137 397,-137 397,-137 441,-137 441,-137 444,-137 447,-140 447,-143 447,-143 447,-149 447,-149 447,-152 444,-155 441,-155"/>
<text text-anchor="start" x="399" y="-143.8" font-family="Helvetica,sans-Serif" font-size="9.00">index.mjs</text>
</a>
</g>
</g>
<!-- src/main/index.mjs&#45;&gt;src/enrich/index.mjs -->
<g id="edge12" class="edge">
<title>src/main/index.mjs&#45;&gt;src/enrich/index.mjs</title>
<path fill="none" stroke="#000000" stroke-width="2" stroke-opacity="0.200000" d="M317.11,-462C325.74,-462 333,-462 333,-462 333,-462 333,-146 333,-146 333,-146 381.84,-146 381.84,-146"/>
<polygon fill="#000000" fill-opacity="0.200000" stroke="#000000" stroke-width="2" stroke-opacity="0.200000" points="381.84,-148.1 387.84,-146 381.84,-143.9 381.84,-148.1"/>
</g>
<!-- src/extract/index.mjs -->
<g id="node13" class="node">
<title>src/extract/index.mjs</title>
<g id="a_node13"><a xlink:href="src/extract/index.mjs" xlink:title="index.mjs">
<path fill="#ffffcc" stroke="black" d="M562.5,-736C562.5,-736 518.5,-736 518.5,-736 515.5,-736 512.5,-733 512.5,-730 512.5,-730 512.5,-724 512.5,-724 512.5,-721 515.5,-718 518.5,-718 518.5,-718 562.5,-718 562.5,-718 565.5,-718 568.5,-721 568.5,-724 568.5,-724 568.5,-730 568.5,-730 568.5,-733 565.5,-736 562.5,-736"/>
<text text-anchor="start" x="520.5" y="-724.8" font-family="Helvetica,sans-Serif" font-size="9.00">index.mjs</text>
</a>
</g>
</g>
<!-- src/main/index.mjs&#45;&gt;src/extract/index.mjs -->
<g id="edge13" class="edge">
<title>src/main/index.mjs&#45;&gt;src/extract/index.mjs</title>
<path fill="none" stroke="#000000" stroke-width="2" stroke-opacity="0.200000" d="M277,-475.29C277,-521.78 277,-727 277,-727 277,-727 503.05,-727 503.05,-727"/>
<polygon fill="#000000" fill-opacity="0.200000" stroke="#000000" stroke-width="2" stroke-opacity="0.200000" points="503.05,-729.1 509.05,-727 503.05,-724.9 503.05,-729.1"/>
</g>
<!-- src/main/files&#45;and&#45;dirs/normalize.mjs -->
<g id="node18" class="node">
<title>src/main/files&#45;and&#45;dirs/normalize.mjs</title>
<g id="a_node18"><a xlink:href="src/main/files-and-dirs/normalize.mjs" xlink:title="normalize.mjs">
<path fill="#ffffcc" stroke="black" d="M450,-400C450,-400 388,-400 388,-400 385,-400 382,-397 382,-394 382,-394 382,-388 382,-388 382,-385 385,-382 388,-382 388,-382 450,-382 450,-382 453,-382 456,-385 456,-388 456,-388 456,-394 456,-394 456,-397 453,-400 450,-400"/>
<text text-anchor="start" x="390" y="-388.8" font-family="Helvetica,sans-Serif" font-size="9.00">normalize.mjs</text>
</a>
</g>
</g>
<!-- src/main/index.mjs&#45;&gt;src/main/files&#45;and&#45;dirs/normalize.mjs -->
<g id="edge17" class="edge">
<title>src/main/index.mjs&#45;&gt;src/main/files&#45;and&#45;dirs/normalize.mjs</title>
<path fill="none" stroke="#000000" stroke-width="2" stroke-opacity="0.200000" d="M289,-456.5C289,-436.32 289,-391 289,-391 289,-391 372.75,-391 372.75,-391"/>
<polygon fill="#000000" fill-opacity="0.200000" stroke="#000000" stroke-width="2" stroke-opacity="0.200000" points="372.75,-393.1 378.75,-391 372.75,-388.9 372.75,-393.1"/>
</g>
<!-- src/schema/cruise&#45;result.schema.mjs -->
<g id="node21" class="node">
<title>src/schema/cruise&#45;result.schema.mjs</title>
<g id="a_node21"><a xlink:href="src/schema/cruise-result.schema.mjs" xlink:title="cruise&#45;result.schema.mjs">
<path fill="#ffffcc" stroke="black" d="M593.5,-606C593.5,-606 487.5,-606 487.5,-606 484.5,-606 481.5,-603 481.5,-600 481.5,-600 481.5,-594 481.5,-594 481.5,-591 484.5,-588 487.5,-588 487.5,-588 593.5,-588 593.5,-588 596.5,-588 599.5,-591 599.5,-594 599.5,-594 599.5,-600 599.5,-600 599.5,-603 596.5,-606 593.5,-606"/>
<text text-anchor="start" x="489.5" y="-594.8" font-family="Helvetica,sans-Serif" font-size="9.00">cruise&#45;result.schema.mjs</text>
</a>
</g>
</g>
<!-- src/main/index.mjs&#45;&gt;src/schema/cruise&#45;result.schema.mjs -->
<g id="edge15" class="edge">
<title>src/main/index.mjs&#45;&gt;src/schema/cruise&#45;result.schema.mjs</title>
<path fill="none" stroke="#000000" stroke-width="2" stroke-opacity="0.200000" d="M301,-475.42C301,-505.46 301,-597 301,-597 301,-597 472.3,-597 472.3,-597"/>
<polygon fill="#000000" fill-opacity="0.200000" stroke="#000000" stroke-width="2" stroke-opacity="0.200000" points="472.3,-599.1 478.3,-597 472.3,-594.9 472.3,-599.1"/>
</g>
<!-- src/main/options/normalize.mjs -->
<g id="node22" class="node">
<title>src/main/options/normalize.mjs</title>
<g id="a_node22"><a xlink:href="src/main/options/normalize.mjs" xlink:title="normalize.mjs">
<path fill="#ffffcc" stroke="black" d="M571.5,-390C571.5,-390 509.5,-390 509.5,-390 506.5,-390 503.5,-387 503.5,-384 503.5,-384 503.5,-378 503.5,-378 503.5,-375 506.5,-372 509.5,-372 509.5,-372 571.5,-372 571.5,-372 574.5,-372 577.5,-375 577.5,-378 577.5,-378 577.5,-384 577.5,-384 577.5,-387 574.5,-390 571.5,-390"/>
<text text-anchor="start" x="511.5" y="-378.8" font-family="Helvetica,sans-Serif" font-size="9.00">normalize.mjs</text>
</a>
</g>
</g>
<!-- src/main/index.mjs&#45;&gt;src/main/options/normalize.mjs -->
<g id="edge18" class="edge">
<title>src/main/index.mjs&#45;&gt;src/main/options/normalize.mjs</title>
<path fill="none" stroke="#000000" stroke-width="2" stroke-opacity="0.200000" d="M275,-456.81C275,-434.07 275,-377 275,-377 275,-377 494.02,-377 494.02,-377"/>
<polygon fill="#000000" fill-opacity="0.200000" stroke="#000000" stroke-width="2" stroke-opacity="0.200000" points="494.02,-379.1 500.02,-377 494.02,-374.9 494.02,-379.1"/>
</g>
<!-- src/main/options/validate.mjs -->
<g id="node23" class="node">
<title>src/main/options/validate.mjs</title>
<g id="a_node23"><a xlink:href="src/main/options/validate.mjs" xlink:title="validate.mjs">
<path fill="#ffffcc" stroke="black" d="M567,-360C567,-360 514,-360 514,-360 511,-360 508,-357 508,-354 508,-354 508,-348 508,-348 508,-345 511,-342 514,-342 514,-342 567,-342 567,-342 570,-342 573,-345 573,-348 573,-348 573,-354 573,-354 573,-357 570,-360 567,-360"/>
<text text-anchor="start" x="516" y="-348.8" font-family="Helvetica,sans-Serif" font-size="9.00">validate.mjs</text>
</a>
</g>
</g>
<!-- src/main/index.mjs&#45;&gt;src/main/options/validate.mjs -->
<g id="edge19" class="edge">
<title>src/main/index.mjs&#45;&gt;src/main/options/validate.mjs</title>
<path fill="none" stroke="#000000" stroke-width="2" stroke-opacity="0.200000" d="M317.4,-468C369.71,-468 476,-468 476,-468 476,-468 476,-357.67 476,-357.67 476,-357.67 498.87,-357.67 498.87,-357.67"/>
<polygon fill="#000000" fill-opacity="0.200000" stroke="#000000" stroke-width="2" stroke-opacity="0.200000" points="498.87,-359.77 504.87,-357.67 498.87,-355.57 498.87,-359.77"/>
</g>
<!-- src/main/report&#45;wrap.mjs -->
<g id="node24" class="node">
<title>src/main/report&#45;wrap.mjs</title>
<g id="a_node24"><a xlink:href="src/main/report-wrap.mjs" xlink:title="report&#45;wrap.mjs">
<path fill="#ffffcc" stroke="black" d="M453,-282C453,-282 385,-282 385,-282 382,-282 379,-279 379,-276 379,-276 379,-270 379,-270 379,-267 382,-264 385,-264 385,-264 453,-264 453,-264 456,-264 459,-267 459,-270 459,-270 459,-276 459,-276 459,-279 456,-282 453,-282"/>
<text text-anchor="start" x="387" y="-270.8" font-family="Helvetica,sans-Serif" font-size="9.00">report&#45;wrap.mjs</text>
</a>
</g>
</g>
<!-- src/main/index.mjs&#45;&gt;src/main/report&#45;wrap.mjs -->
<g id="edge20" class="edge">
<title>src/main/index.mjs&#45;&gt;src/main/report&#45;wrap.mjs</title>
<path fill="none" stroke="#000000" stroke-width="2" stroke-opacity="0.200000" d="M317.46,-464C332.55,-464 348,-464 348,-464 348,-464 348,-273 348,-273 348,-273 369.52,-273 369.52,-273"/>
<polygon fill="#000000" fill-opacity="0.200000" stroke="#000000" stroke-width="2" stroke-opacity="0.200000" points="369.52,-275.1 375.52,-273 369.52,-270.9 369.52,-275.1"/>
</g>
<!-- src/main/rule&#45;set/normalize.mjs -->
<g id="node25" class="node">
<title>src/main/rule&#45;set/normalize.mjs</title>
<g id="a_node25"><a xlink:href="src/main/rule-set/normalize.mjs" xlink:title="normalize.mjs">
<path fill="#ffffcc" stroke="black" d="M450,-490C450,-490 388,-490 388,-490 385,-490 382,-487 382,-484 382,-484 382,-478 382,-478 382,-475 385,-472 388,-472 388,-472 450,-472 450,-472 453,-472 456,-475 456,-478 456,-478 456,-484 456,-484 456,-487 453,-490 450,-490"/>
<text text-anchor="start" x="390" y="-478.8" font-family="Helvetica,sans-Serif" font-size="9.00">normalize.mjs</text>
</a>
</g>
</g>
<!-- src/main/index.mjs&#45;&gt;src/main/rule&#45;set/normalize.mjs -->
<g id="edge22" class="edge">
<title>src/main/index.mjs&#45;&gt;src/main/rule&#45;set/normalize.mjs</title>
<path fill="none" stroke="#000000" stroke-width="2" stroke-opacity="0.200000" d="M309,-475.27C309,-478.11 309,-480.5 309,-480.5 309,-480.5 372.76,-480.5 372.76,-480.5"/>
<polygon fill="#000000" fill-opacity="0.200000" stroke="#000000" stroke-width="2" stroke-opacity="0.200000" points="372.76,-482.6 378.76,-480.5 372.76,-478.4 372.76,-482.6"/>
</g>
<!-- src/main/rule&#45;set/validate.mjs -->
<g id="node26" class="node">
<title>src/main/rule&#45;set/validate.mjs</title>
<g id="a_node26"><a xlink:href="src/main/rule-set/validate.mjs" xlink:title="validate.mjs">
<path fill="#ffffcc" stroke="black" d="M445.5,-460C445.5,-460 392.5,-460 392.5,-460 389.5,-460 386.5,-457 386.5,-454 386.5,-454 386.5,-448 386.5,-448 386.5,-445 389.5,-442 392.5,-442 392.5,-442 445.5,-442 445.5,-442 448.5,-442 451.5,-445 451.5,-448 451.5,-448 451.5,-454 451.5,-454 451.5,-457 448.5,-460 445.5,-460"/>
<text text-anchor="start" x="394.5" y="-448.8" font-family="Helvetica,sans-Serif" font-size="9.00">validate.mjs</text>
</a>
</g>
</g>
<!-- src/main/index.mjs&#45;&gt;src/main/rule&#45;set/validate.mjs -->
<g id="edge23" class="edge">
<title>src/main/index.mjs&#45;&gt;src/main/rule&#45;set/validate.mjs</title>
<path fill="none" stroke="#000000" stroke-width="2" stroke-opacity="0.200000" d="M303,-456.7C303,-452.74 303,-449 303,-449 303,-449 377.07,-449 377.07,-449"/>
<polygon fill="#000000" fill-opacity="0.200000" stroke="#000000" stroke-width="2" stroke-opacity="0.200000" points="377.07,-451.1 383.07,-449 377.07,-446.9 377.07,-451.1"/>
</g>
<!-- src/cli/format.mjs -->
<g id="node5" class="node">
<title>src/cli/format.mjs</title>
<g id="a_node5"><a xlink:href="src/cli/format.mjs" xlink:title="format.mjs">
<path fill="#ffffcc" stroke="black" d="M77,-474C77,-474 30,-474 30,-474 27,-474 24,-471 24,-468 24,-468 24,-462 24,-462 24,-459 27,-456 30,-456 30,-456 77,-456 77,-456 80,-456 83,-459 83,-462 83,-462 83,-468 83,-468 83,-471 80,-474 77,-474"/>
<text text-anchor="start" x="32" y="-462.8" font-family="Helvetica,sans-Serif" font-size="9.00">format.mjs</text>
</a>
</g>
</g>
<!-- src/cli/format.mjs&#45;&gt;src/main/index.mjs -->
<g id="edge3" class="edge">
<title>src/cli/format.mjs&#45;&gt;src/main/index.mjs</title>
<path fill="none" stroke="#000000" stroke-width="2" stroke-opacity="0.200000" d="M83.33,-462.67C83.33,-462.67 251.52,-462.67 251.52,-462.67"/>
<polygon fill="#000000" fill-opacity="0.200000" stroke="#000000" stroke-width="2" stroke-opacity="0.200000" points="251.52,-464.77 257.52,-462.67 251.52,-460.57 251.52,-464.77"/>
</g>
<!-- src/cli/index.mjs -->
<g id="node6" class="node">
<title>src/cli/index.mjs</title>
<g id="a_node6"><a xlink:href="src/cli/index.mjs" xlink:title="index.mjs">
<path fill="#ffffcc" stroke="black" d="M75.5,-504C75.5,-504 31.5,-504 31.5,-504 28.5,-504 25.5,-501 25.5,-498 25.5,-498 25.5,-492 25.5,-492 25.5,-489 28.5,-486 31.5,-486 31.5,-486 75.5,-486 75.5,-486 78.5,-486 81.5,-489 81.5,-492 81.5,-492 81.5,-498 81.5,-498 81.5,-501 78.5,-504 75.5,-504"/>
<text text-anchor="start" x="33.5" y="-492.8" font-family="Helvetica,sans-Serif" font-size="9.00">index.mjs</text>
</a>
</g>
</g>
<!-- src/cli/index.mjs&#45;&gt;src/cli/format&#45;meta&#45;info.mjs -->
<g id="edge6" class="edge">
<title>src/cli/index.mjs&#45;&gt;src/cli/format&#45;meta&#45;info.mjs</title>
<path fill="none" stroke="#000000" stroke-width="2" stroke-opacity="0.200000" d="M81.76,-498C81.76,-498 86.73,-498 86.73,-498"/>
<polygon fill="#000000" fill-opacity="0.200000" stroke="#000000" stroke-width="2" stroke-opacity="0.200000" points="86.73,-500.1 92.73,-498 86.73,-495.9 86.73,-500.1"/>
</g>
<!-- src/cli/index.mjs&#45;&gt;src/main/index.mjs -->
<g id="edge4" class="edge">
<title>src/cli/index.mjs&#45;&gt;src/main/index.mjs</title>
<path fill="none" stroke="#000000" stroke-width="2" stroke-opacity="0.200000" d="M81.9,-492C86.61,-492 90,-492 90,-492 90,-492 90,-468.33 90,-468.33 90,-468.33 251.91,-468.33 251.91,-468.33"/>
<polygon fill="#000000" fill-opacity="0.200000" stroke="#000000" stroke-width="2" stroke-opacity="0.200000" points="251.91,-470.43 257.91,-468.33 251.91,-466.23 251.91,-470.43"/>
</g>
<!-- src/cli/index.mjs&#45;&gt;src/utl/bus.mjs -->
<g id="edge5" class="edge">
<title>src/cli/index.mjs&#45;&gt;src/utl/bus.mjs</title>
<path fill="none" stroke="#000000" stroke-width="2" stroke-opacity="0.200000" d="M54,-504.46C54,-515.12 54,-531 54,-531 54,-531 673,-531 673,-531 673,-531 673,-708.55 673,-708.55"/>
<polygon fill="#000000" fill-opacity="0.200000" stroke="#000000" stroke-width="2" stroke-opacity="0.200000" points="670.9,-708.55 673,-714.55 675.1,-708.55 670.9,-708.55"/>
</g>
<!-- src/config&#45;utl/extract&#45;depcruise&#45;config/index.mjs -->
<g id="node8" class="node">
<title>src/config&#45;utl/extract&#45;depcruise&#45;config/index.mjs</title>
<g id="a_node8"><a xlink:href="src/config-utl/extract-depcruise-config/index.mjs" xlink:title="index.mjs">
<path fill="#ffffcc" stroke="black" d="M311,-196C311,-196 267,-196 267,-196 264,-196 261,-193 261,-190 261,-190 261,-184 261,-184 261,-181 264,-178 267,-178 267,-178 311,-178 311,-178 314,-178 317,-181 317,-184 317,-184 317,-190 317,-190 317,-193 314,-196 311,-196"/>
<text text-anchor="start" x="269" y="-184.8" font-family="Helvetica,sans-Serif" font-size="9.00">index.mjs</text>
</a>
</g>
</g>
<!-- src/config&#45;utl/extract&#45;depcruise&#45;config/index.mjs&#45;&gt;src/main/resolve&#45;options/normalize.mjs -->
<g id="edge7" class="edge">
<title>src/config&#45;utl/extract&#45;depcruise&#45;config/index.mjs&#45;&gt;src/main/resolve&#45;options/normalize.mjs</title>
<path fill="none" stroke="#000000" stroke-width="2" stroke-opacity="0.200000" d="M289,-196.18C289,-223.76 289,-304 289,-304 289,-304 372.75,-304 372.75,-304"/>
<polygon fill="#000000" fill-opacity="0.200000" stroke="#000000" stroke-width="2" stroke-opacity="0.200000" points="372.75,-306.1 378.75,-304 372.75,-301.9 372.75,-306.1"/>
</g>
<!-- src/main/resolve&#45;options/normalize.mjs&#45;&gt;src/extract/transpile/meta.mjs -->
<g id="edge33" class="edge">
<title>src/main/resolve&#45;options/normalize.mjs&#45;&gt;src/extract/transpile/meta.mjs</title>
<path fill="none" stroke="#000000" stroke-width="2" stroke-opacity="0.200000" d="M456.16,-310C460.82,-310 464,-310 464,-310 464,-310 464,-672 464,-672 464,-672 504.31,-672 504.31,-672"/>
<polygon fill="#000000" fill-opacity="0.200000" stroke="#000000" stroke-width="2" stroke-opacity="0.200000" points="504.31,-674.1 510.31,-672 504.31,-669.9 504.31,-674.1"/>
</g>
<!-- src/graph&#45;utl/rule&#45;set.mjs -->
<g id="node16" class="node">
<title>src/graph&#45;utl/rule&#45;set.mjs</title>
<g id="a_node16"><a xlink:href="src/graph-utl/rule-set.mjs" xlink:title="rule&#45;set.mjs">
<path fill="#ffffcc" stroke="black" d="M712,-162C712,-162 660,-162 660,-162 657,-162 654,-159 654,-156 654,-156 654,-150 654,-150 654,-147 657,-144 660,-144 660,-144 712,-144 712,-144 715,-144 718,-147 718,-150 718,-150 718,-156 718,-156 718,-159 715,-162 712,-162"/>
<text text-anchor="start" x="662" y="-150.8" font-family="Helvetica,sans-Serif" font-size="9.00">rule&#45;set.mjs</text>
</a>
</g>
</g>
<!-- src/main/resolve&#45;options/normalize.mjs&#45;&gt;src/graph&#45;utl/rule&#45;set.mjs -->
<g id="edge34" class="edge">
<title>src/main/resolve&#45;options/normalize.mjs&#45;&gt;src/graph&#45;utl/rule&#45;set.mjs</title>
<path fill="none" stroke="#000000" stroke-width="2" stroke-opacity="0.200000" d="M456.39,-304C463.09,-304 468,-304 468,-304 468,-304 468,-158.5 468,-158.5 468,-158.5 644.83,-158.5 644.83,-158.5"/>
<polygon fill="#000000" fill-opacity="0.200000" stroke="#000000" stroke-width="2" stroke-opacity="0.200000" points="644.83,-160.6 650.83,-158.5 644.83,-156.4 644.83,-160.6"/>
</g>
<!-- src/enrich/summarize/index.mjs -->
<g id="node11" class="node">
<title>src/enrich/summarize/index.mjs</title>
<g id="a_node11"><a xlink:href="src/enrich/summarize/index.mjs" xlink:title="index.mjs">
<path fill="#ffffcc" stroke="black" d="M562.5,-142C562.5,-142 518.5,-142 518.5,-142 515.5,-142 512.5,-139 512.5,-136 512.5,-136 512.5,-130 512.5,-130 512.5,-127 515.5,-124 518.5,-124 518.5,-124 562.5,-124 562.5,-124 565.5,-124 568.5,-127 568.5,-130 568.5,-130 568.5,-136 568.5,-136 568.5,-139 565.5,-142 562.5,-142"/>
<text text-anchor="start" x="520.5" y="-130.8" font-family="Helvetica,sans-Serif" font-size="9.00">index.mjs</text>
</a>
</g>
</g>
<!-- src/enrich/index.mjs&#45;&gt;src/enrich/summarize/index.mjs -->
<g id="edge8" class="edge">
<title>src/enrich/index.mjs&#45;&gt;src/enrich/summarize/index.mjs</title>
<path fill="none" stroke="#000000" stroke-width="2" stroke-opacity="0.200000" d="M419,-136.75C419,-132.48 419,-128.33 419,-128.33 419,-128.33 503.01,-128.33 503.01,-128.33"/>
<polygon fill="#000000" fill-opacity="0.200000" stroke="#000000" stroke-width="2" stroke-opacity="0.200000" points="503.01,-130.43 509.01,-128.33 503.01,-126.23 503.01,-130.43"/>
</g>
<!-- src/graph&#45;utl/compare.mjs -->
<g id="node12" class="node">
<title>src/graph&#45;utl/compare.mjs</title>
<g id="a_node12"><a xlink:href="src/graph-utl/compare.mjs" xlink:title="compare.mjs">
<path fill="#ffffcc" stroke="black" d="M714.5,-42C714.5,-42 657.5,-42 657.5,-42 654.5,-42 651.5,-39 651.5,-36 651.5,-36 651.5,-30 651.5,-30 651.5,-27 654.5,-24 657.5,-24 657.5,-24 714.5,-24 714.5,-24 717.5,-24 720.5,-27 720.5,-30 720.5,-30 720.5,-36 720.5,-36 720.5,-39 717.5,-42 714.5,-42"/>
<text text-anchor="start" x="659.5" y="-30.8" font-family="Helvetica,sans-Serif" font-size="9.00">compare.mjs</text>
</a>
</g>
</g>
<!-- src/enrich/summarize/index.mjs&#45;&gt;src/graph&#45;utl/compare.mjs -->
<g id="edge9" class="edge">
<title>src/enrich/summarize/index.mjs&#45;&gt;src/graph&#45;utl/compare.mjs</title>
<path fill="none" stroke="#000000" stroke-width="2" stroke-opacity="0.200000" d="M541,-123.7C541,-99.42 541,-36 541,-36 541,-36 642.27,-36 642.27,-36"/>
<polygon fill="#000000" fill-opacity="0.200000" stroke="#000000" stroke-width="2" stroke-opacity="0.200000" points="642.27,-38.1 648.27,-36 642.27,-33.9 642.27,-38.1"/>
</g>
<!-- src/extract/index.mjs&#45;&gt;src/utl/bus.mjs -->
<g id="edge10" class="edge">
<title>src/extract/index.mjs&#45;&gt;src/utl/bus.mjs</title>
<path fill="none" stroke="#000000" stroke-width="2" stroke-opacity="0.200000" d="M568.9,-727C568.9,-727 649.66,-727 649.66,-727"/>
<polygon fill="#000000" fill-opacity="0.200000" stroke="#000000" stroke-width="2" stroke-opacity="0.200000" points="649.66,-729.1 655.66,-727 649.66,-724.9 649.66,-729.1"/>
</g>
<!-- src/graph&#45;utl/consolidate&#45;to&#45;pattern.mjs -->
<g id="node14" class="node">
<title>src/graph&#45;utl/consolidate&#45;to&#45;pattern.mjs</title>
<g id="a_node14"><a xlink:href="src/graph-utl/consolidate-to-pattern.mjs" xlink:title="consolidate&#45;to&#45;pattern.mjs">
<path fill="#ffffcc" stroke="black" d="M741,-132C741,-132 631,-132 631,-132 628,-132 625,-129 625,-126 625,-126 625,-120 625,-120 625,-117 628,-114 631,-114 631,-114 741,-114 741,-114 744,-114 747,-117 747,-120 747,-120 747,-126 747,-126 747,-129 744,-132 741,-132"/>
<text text-anchor="start" x="633" y="-120.8" font-family="Helvetica,sans-Serif" font-size="9.00">consolidate&#45;to&#45;pattern.mjs</text>
</a>
</g>
</g>
<!-- src/graph&#45;utl/filter&#45;bank.mjs -->
<g id="node15" class="node">
<title>src/graph&#45;utl/filter&#45;bank.mjs</title>
<g id="a_node15"><a xlink:href="src/graph-utl/filter-bank.mjs" xlink:title="filter&#45;bank.mjs">
<path fill="#ffffcc" stroke="black" d="M717,-102C717,-102 655,-102 655,-102 652,-102 649,-99 649,-96 649,-96 649,-90 649,-90 649,-87 652,-84 655,-84 655,-84 717,-84 717,-84 720,-84 723,-87 723,-90 723,-90 723,-96 723,-96 723,-99 720,-102 717,-102"/>
<text text-anchor="start" x="657" y="-90.8" font-family="Helvetica,sans-Serif" font-size="9.00">filter&#45;bank.mjs</text>
</a>
</g>
</g>
<!-- src/graph&#45;utl/strip&#45;self&#45;transitions.mjs -->
<g id="node17" class="node">
<title>src/graph&#45;utl/strip&#45;self&#45;transitions.mjs</title>
<g id="a_node17"><a xlink:href="src/graph-utl/strip-self-transitions.mjs" xlink:title="strip&#45;self&#45;transitions.mjs">
<path fill="#ffffcc" stroke="black" d="M736.5,-72C736.5,-72 635.5,-72 635.5,-72 632.5,-72 629.5,-69 629.5,-66 629.5,-66 629.5,-60 629.5,-60 629.5,-57 632.5,-54 635.5,-54 635.5,-54 736.5,-54 736.5,-54 739.5,-54 742.5,-57 742.5,-60 742.5,-60 742.5,-66 742.5,-66 742.5,-69 739.5,-72 736.5,-72"/>
<text text-anchor="start" x="637.5" y="-60.8" font-family="Helvetica,sans-Serif" font-size="9.00">strip&#45;self&#45;transitions.mjs</text>
</a>
</g>
</g>
<!-- src/main/helpers.mjs -->
<g id="node19" class="node">
<title>src/main/helpers.mjs</title>
<g id="a_node19"><a xlink:href="src/main/helpers.mjs" xlink:title="helpers.mjs">
<path fill="#ffffcc" stroke="black" d="M712,-460C712,-460 660,-460 660,-460 657,-460 654,-457 654,-454 654,-454 654,-448 654,-448 654,-445 657,-442 660,-442 660,-442 712,-442 712,-442 715,-442 718,-445 718,-448 718,-448 718,-454 718,-454 718,-457 715,-460 712,-460"/>
<text text-anchor="start" x="662" y="-448.8" font-family="Helvetica,sans-Serif" font-size="9.00">helpers.mjs</text>
</a>
</g>
</g>
<!-- src/main/index.d.ts -->
<g id="node20" class="node">
<title>src/main/index.d.ts</title>
<g id="a_node20"><a xlink:href="src/main/index.d.ts" xlink:title="index.d.ts">
<path fill="#ccffcc" stroke="black" d="M311,-371C311,-371 267,-371 267,-371 264,-371 261,-368 261,-365 261,-365 261,-359 261,-359 261,-356 264,-353 267,-353 267,-353 311,-353 311,-353 314,-353 317,-356 317,-359 317,-359 317,-365 317,-365 317,-368 314,-371 311,-371"/>
<text text-anchor="start" x="269" y="-359.8" font-family="Helvetica,sans-Serif" font-size="9.00">index.d.ts</text>
</a>
</g>
</g>
<!-- src/main/options/normalize.mjs&#45;&gt;src/main/helpers.mjs -->
<g id="edge24" class="edge">
<title>src/main/options/normalize.mjs&#45;&gt;src/main/helpers.mjs</title>
<path fill="none" stroke="#000000" stroke-width="2" stroke-opacity="0.200000" d="M541,-390.26C541,-408.12 541,-445.6 541,-445.6 541,-445.6 644.82,-445.6 644.82,-445.6"/>
<polygon fill="#000000" fill-opacity="0.200000" stroke="#000000" stroke-width="2" stroke-opacity="0.200000" points="644.82,-447.7 650.82,-445.6 644.82,-443.5 644.82,-447.7"/>
</g>
<!-- src/main/options/defaults.mjs -->
<g id="node27" class="node">
<title>src/main/options/defaults.mjs</title>
<g id="a_node27"><a xlink:href="src/main/options/defaults.mjs" xlink:title="defaults.mjs">
<path fill="#ffffcc" stroke="black" d="M712.5,-390C712.5,-390 659.5,-390 659.5,-390 656.5,-390 653.5,-387 653.5,-384 653.5,-384 653.5,-378 653.5,-378 653.5,-375 656.5,-372 659.5,-372 659.5,-372 712.5,-372 712.5,-372 715.5,-372 718.5,-375 718.5,-378 718.5,-378 718.5,-384 718.5,-384 718.5,-387 715.5,-390 712.5,-390"/>
<text text-anchor="start" x="661.5" y="-378.8" font-family="Helvetica,sans-Serif" font-size="9.00">defaults.mjs</text>
</a>
</g>
</g>
<!-- src/main/options/normalize.mjs&#45;&gt;src/main/options/defaults.mjs -->
<g id="edge25" class="edge">
<title>src/main/options/normalize.mjs&#45;&gt;src/main/options/defaults.mjs</title>
<path fill="none" stroke="#000000" stroke-width="2" stroke-opacity="0.200000" d="M577.97,-381C577.97,-381 644.11,-381 644.11,-381"/>
<polygon fill="#000000" fill-opacity="0.200000" stroke="#000000" stroke-width="2" stroke-opacity="0.200000" points="644.11,-383.1 650.11,-381 644.11,-378.9 644.11,-383.1"/>
</g>
<!-- src/report/index.mjs -->
<g id="node28" class="node">
<title>src/report/index.mjs</title>
<g id="a_node28"><a xlink:href="src/report/index.mjs" xlink:title="index.mjs">
<path fill="#ffffcc" stroke="black" d="M708,-222C708,-222 664,-222 664,-222 661,-222 658,-219 658,-216 658,-216 658,-210 658,-210 658,-207 661,-204 664,-204 664,-204 708,-204 708,-204 711,-204 714,-207 714,-210 714,-210 714,-216 714,-216 714,-219 711,-222 708,-222"/>
<text text-anchor="start" x="666" y="-210.8" font-family="Helvetica,sans-Serif" font-size="9.00">index.mjs</text>
</a>
</g>
</g>
<!-- src/main/options/validate.mjs&#45;&gt;src/report/index.mjs -->
<g id="edge26" class="edge">
<title>src/main/options/validate.mjs&#45;&gt;src/report/index.mjs</title>
<path fill="none" stroke="#000000" stroke-width="2" stroke-opacity="0.200000" d="M573.15,-351C616.05,-351 686,-351 686,-351 686,-351 686,-231.49 686,-231.49"/>
<polygon fill="#000000" fill-opacity="0.200000" stroke="#000000" stroke-width="2" stroke-opacity="0.200000" points="688.1,-231.49 686,-225.49 683.9,-231.49 688.1,-231.49"/>
</g>
<!-- src/main/report&#45;wrap.mjs&#45;&gt;src/enrich/summarize/index.mjs -->
<g id="edge27" class="edge">
<title>src/main/report&#45;wrap.mjs&#45;&gt;src/enrich/summarize/index.mjs</title>
<path fill="none" stroke="#000000" stroke-width="2" stroke-opacity="0.200000" d="M455,-263.79C455,-232.57 455,-132.67 455,-132.67 455,-132.67 503.03,-132.67 503.03,-132.67"/>
<polygon fill="#000000" fill-opacity="0.200000" stroke="#000000" stroke-width="2" stroke-opacity="0.200000" points="503.03,-134.77 509.03,-132.67 503.03,-130.57 503.03,-134.77"/>
</g>
<!-- src/main/report&#45;wrap.mjs&#45;&gt;src/graph&#45;utl/compare.mjs -->
<g id="edge28" class="edge">
<title>src/main/report&#45;wrap.mjs&#45;&gt;src/graph&#45;utl/compare.mjs</title>
<path fill="none" stroke="#000000" stroke-width="2" stroke-opacity="0.200000" d="M385,-263.77C385,-219.38 385,-30 385,-30 385,-30 642.18,-30 642.18,-30"/>
<polygon fill="#000000" fill-opacity="0.200000" stroke="#000000" stroke-width="2" stroke-opacity="0.200000" points="642.18,-32.1 648.18,-30 642.18,-27.9 642.18,-32.1"/>
</g>
<!-- src/main/report&#45;wrap.mjs&#45;&gt;src/graph&#45;utl/consolidate&#45;to&#45;pattern.mjs -->
<g id="edge29" class="edge">
<title>src/main/report&#45;wrap.mjs&#45;&gt;src/graph&#45;utl/consolidate&#45;to&#45;pattern.mjs</title>
<path fill="none" stroke="#000000" stroke-width="2" stroke-opacity="0.200000" d="M453,-263.83C453,-230.67 453,-119 453,-119 453,-119 615.78,-119 615.78,-119"/>
<polygon fill="#000000" fill-opacity="0.200000" stroke="#000000" stroke-width="2" stroke-opacity="0.200000" points="615.78,-121.1 621.78,-119 615.78,-116.9 615.78,-121.1"/>
</g>
<!-- src/main/report&#45;wrap.mjs&#45;&gt;src/graph&#45;utl/filter&#45;bank.mjs -->
<g id="edge30" class="edge">
<title>src/main/report&#45;wrap.mjs&#45;&gt;src/graph&#45;utl/filter&#45;bank.mjs</title>
<path fill="none" stroke="#000000" stroke-width="2" stroke-opacity="0.200000" d="M451,-263.83C451,-227.15 451,-93 451,-93 451,-93 639.5,-93 639.5,-93"/>
<polygon fill="#000000" fill-opacity="0.200000" stroke="#000000" stroke-width="2" stroke-opacity="0.200000" points="639.5,-95.1 645.5,-93 639.5,-90.9 639.5,-95.1"/>
</g>
<!-- src/main/report&#45;wrap.mjs&#45;&gt;src/graph&#45;utl/strip&#45;self&#45;transitions.mjs -->
<g id="edge31" class="edge">
<title>src/main/report&#45;wrap.mjs&#45;&gt;src/graph&#45;utl/strip&#45;self&#45;transitions.mjs</title>
<path fill="none" stroke="#000000" stroke-width="2" stroke-opacity="0.200000" d="M449,-263.71C449,-223.06 449,-63 449,-63 449,-63 620.23,-63 620.23,-63"/>
<polygon fill="#000000" fill-opacity="0.200000" stroke="#000000" stroke-width="2" stroke-opacity="0.200000" points="620.23,-65.1 626.23,-63 620.23,-60.9 620.23,-65.1"/>
</g>
<!-- src/main/report&#45;wrap.mjs&#45;&gt;src/report/index.mjs -->
<g id="edge32" class="edge">
<title>src/main/report&#45;wrap.mjs&#45;&gt;src/report/index.mjs</title>
<path fill="none" stroke="#000000" stroke-width="2" stroke-opacity="0.200000" d="M457,-263.62C457,-246.75 457,-213 457,-213 457,-213 648.92,-213 648.92,-213"/>
<polygon fill="#000000" fill-opacity="0.200000" stroke="#000000" stroke-width="2" stroke-opacity="0.200000" points="648.92,-215.1 654.92,-213 648.92,-210.9 648.92,-215.1"/>
</g>
<!-- src/main/rule&#45;set/normalize.mjs&#45;&gt;src/main/helpers.mjs -->
<g id="edge35" class="edge">
<title>src/main/rule&#45;set/normalize.mjs&#45;&gt;src/main/helpers.mjs</title>
<path fill="none" stroke="#000000" stroke-width="2" stroke-opacity="0.200000" d="M456.31,-481C532.75,-481 700,-481 700,-481 700,-481 700,-469.49 700,-469.49"/>
<polygon fill="#000000" fill-opacity="0.200000" stroke="#000000" stroke-width="2" stroke-opacity="0.200000" points="702.1,-469.49 700,-463.49 697.9,-469.49 702.1,-469.49"/>
</g>
<!-- src/main/rule&#45;set/validate.mjs&#45;&gt;src/main/helpers.mjs -->
<g id="edge37" class="edge">
<title>src/main/rule&#45;set/validate.mjs&#45;&gt;src/main/helpers.mjs</title>
<path fill="none" stroke="#000000" stroke-width="2" stroke-opacity="0.200000" d="M451.74,-452.8C451.74,-452.8 644.83,-452.8 644.83,-452.8"/>
<polygon fill="#000000" fill-opacity="0.200000" stroke="#000000" stroke-width="2" stroke-opacity="0.200000" points="644.83,-454.9 650.83,-452.8 644.83,-450.7 644.83,-454.9"/>
</g>
<!-- src/main/rule&#45;set/validate.mjs&#45;&gt;src/main/options/validate.mjs -->
<g id="edge38" class="edge">
<title>src/main/rule&#45;set/validate.mjs&#45;&gt;src/main/options/validate.mjs</title>
<path fill="none" stroke="#000000" stroke-width="2" stroke-opacity="0.200000" d="M451.96,-449.2C462.74,-449.2 472,-449.2 472,-449.2 472,-449.2 472,-355.33 472,-355.33 472,-355.33 498.85,-355.33 498.85,-355.33"/>
<polygon fill="#000000" fill-opacity="0.200000" stroke="#000000" stroke-width="2" stroke-opacity="0.200000" points="498.85,-357.43 504.85,-355.33 498.85,-353.23 498.85,-357.43"/>
</g>
<!-- src/schema/configuration.schema.mjs -->
<g id="node29" class="node">
<title>src/schema/configuration.schema.mjs</title>
<g id="a_node29"><a xlink:href="src/schema/configuration.schema.mjs" xlink:title="configuration.schema.mjs">
<path fill="#ffffcc" stroke="black" d="M595,-576C595,-576 486,-576 486,-576 483,-576 480,-573 480,-570 480,-570 480,-564 480,-564 480,-561 483,-558 486,-558 486,-558 595,-558 595,-558 598,-558 601,-561 601,-564 601,-564 601,-570 601,-570 601,-573 598,-576 595,-576"/>
<text text-anchor="start" x="488" y="-564.8" font-family="Helvetica,sans-Serif" font-size="9.00">configuration.schema.mjs</text>
</a>
</g>
</g>
<!-- src/main/rule&#45;set/validate.mjs&#45;&gt;src/schema/configuration.schema.mjs -->
<g id="edge36" class="edge">
<title>src/main/rule&#45;set/validate.mjs&#45;&gt;src/schema/configuration.schema.mjs</title>
<path fill="none" stroke="#000000" stroke-width="2" stroke-opacity="0.200000" d="M451.66,-456.4C471.09,-456.4 492,-456.4 492,-456.4 492,-456.4 492,-548.57 492,-548.57"/>
<polygon fill="#000000" fill-opacity="0.200000" stroke="#000000" stroke-width="2" stroke-opacity="0.200000" points="489.9,-548.57 492,-554.57 494.1,-548.57 489.9,-548.57"/>
</g>
</g>
</svg>
