<?xml version="1.0" encoding="UTF-8" standalone="no"?>
<!DOCTYPE svg PUBLIC "-//W3C//DTD SVG 1.1//EN"
 "http://www.w3.org/Graphics/SVG/1.1/DTD/svg11.dtd">
<!-- Generated by graphviz version 11.0.0 (20240428.1522)
 -->
<!-- Title: dependency&#45;cruiser output Pages: 1 -->
<svg width="953pt" height="718pt"
 viewBox="0.00 0.00 952.88 718.00" xmlns="http://www.w3.org/2000/svg" xmlns:xlink="http://www.w3.org/1999/xlink">
<g id="graph0" class="graph" transform="scale(1 1) rotate(0) translate(4 714)">
<title>dependency&#45;cruiser output</title>
<polygon fill="white" stroke="none" points="-4,4 -4,-714 948.88,-714 948.88,4 -4,4"/>
<g id="clust1" class="cluster">
<title>cluster_src</title>
<path fill="#ffffff" stroke="black" stroke-width="2" d="M20,-8C20,-8 924.88,-8 924.88,-8 930.88,-8 936.88,-14 936.88,-20 936.88,-20 936.88,-690 936.88,-690 936.88,-696 930.88,-702 924.88,-702 924.88,-702 20,-702 20,-702 14,-702 8,-696 8,-690 8,-690 8,-20 8,-20 8,-14 14,-8 20,-8"/>
<text text-anchor="middle" x="472.44" y="-689.45" font-family="Helvetica,sans-Serif" font-weight="bold" font-size="9.00">src</text>
</g>
<g id="clust2" class="cluster">
<title>cluster_src/cache</title>
<path fill="#ffffff" stroke="black" stroke-width="2" d="M470,-530C470,-530 519.25,-530 519.25,-530 525.25,-530 531.25,-536 531.25,-542 531.25,-542 531.25,-570 531.25,-570 531.25,-576 525.25,-582 519.25,-582 519.25,-582 470,-582 470,-582 464,-582 458,-576 458,-570 458,-570 458,-542 458,-542 458,-536 464,-530 470,-530"/>
<text text-anchor="middle" x="494.62" y="-569.45" font-family="Helvetica,sans-Serif" font-weight="bold" font-size="9.00">cache</text>
</g>
<g id="clust3" class="cluster">
<title>cluster_src/cli</title>
<path fill="#ffffff" stroke="black" stroke-width="2" d="M28,-376C28,-376 190.25,-376 190.25,-376 196.25,-376 202.25,-382 202.25,-388 202.25,-388 202.25,-446 202.25,-446 202.25,-452 196.25,-458 190.25,-458 190.25,-458 28,-458 28,-458 22,-458 16,-452 16,-446 16,-446 16,-388 16,-388 16,-382 22,-376 28,-376"/>
<text text-anchor="middle" x="109.12" y="-445.45" font-family="Helvetica,sans-Serif" font-weight="bold" font-size="9.00">cli</text>
</g>
<g id="clust4" class="cluster">
<title>cluster_src/config&#45;utl</title>
<path fill="#ffffff" stroke="black" stroke-width="2" d="M301.25,-124C301.25,-124 414.25,-124 414.25,-124 420.25,-124 426.25,-130 426.25,-136 426.25,-136 426.25,-198 426.25,-198 426.25,-204 420.25,-210 414.25,-210 414.25,-210 301.25,-210 301.25,-210 295.25,-210 289.25,-204 289.25,-198 289.25,-198 289.25,-136 289.25,-136 289.25,-130 295.25,-124 301.25,-124"/>
<text text-anchor="middle" x="357.75" y="-197.45" font-family="Helvetica,sans-Serif" font-weight="bold" font-size="9.00">config&#45;utl</text>
</g>
<g id="clust5" class="cluster">
<title>cluster_src/config&#45;utl/extract&#45;depcruise&#45;config</title>
<path fill="#ffffff" stroke="black" stroke-width="2" d="M309.25,-132C309.25,-132 406.25,-132 406.25,-132 412.25,-132 418.25,-138 418.25,-144 418.25,-144 418.25,-172 418.25,-172 418.25,-178 412.25,-184 406.25,-184 406.25,-184 309.25,-184 309.25,-184 303.25,-184 297.25,-178 297.25,-172 297.25,-172 297.25,-144 297.25,-144 297.25,-138 303.25,-132 309.25,-132"/>
<text text-anchor="middle" x="357.75" y="-171.45" font-family="Helvetica,sans-Serif" font-weight="bold" font-size="9.00">extract&#45;depcruise&#45;config</text>
</g>
<g id="clust6" class="cluster">
<title>cluster_src/enrich</title>
<path fill="#ffffff" stroke="black" stroke-width="2" d="M599.62,-26C599.62,-26 766.25,-26 766.25,-26 772.25,-26 778.25,-32 778.25,-38 778.25,-38 778.25,-100 778.25,-100 778.25,-106 772.25,-112 766.25,-112 766.25,-112 599.62,-112 599.62,-112 593.62,-112 587.62,-106 587.62,-100 587.62,-100 587.62,-38 587.62,-38 587.62,-32 593.62,-26 599.62,-26"/>
<text text-anchor="middle" x="682.94" y="-99.45" font-family="Helvetica,sans-Serif" font-weight="bold" font-size="9.00">enrich</text>
</g>
<g id="clust7" class="cluster">
<title>cluster_src/enrich/summarize</title>
<path fill="#ffffff" stroke="black" stroke-width="2" d="M711.25,-34C711.25,-34 758.25,-34 758.25,-34 764.25,-34 770.25,-40 770.25,-46 770.25,-46 770.25,-74 770.25,-74 770.25,-80 764.25,-86 758.25,-86 758.25,-86 711.25,-86 711.25,-86 705.25,-86 699.25,-80 699.25,-74 699.25,-74 699.25,-46 699.25,-46 699.25,-40 705.25,-34 711.25,-34"/>
<text text-anchor="middle" x="734.75" y="-73.45" font-family="Helvetica,sans-Serif" font-weight="bold" font-size="9.00">summarize</text>
</g>
<g id="clust8" class="cluster">
<title>cluster_src/extract</title>
<path fill="#ffffff" stroke="black" stroke-width="2" d="M592.12,-540C592.12,-540 654.12,-540 654.12,-540 660.12,-540 666.12,-546 666.12,-552 666.12,-552 666.12,-640 666.12,-640 666.12,-646 660.12,-652 654.12,-652 654.12,-652 592.12,-652 592.12,-652 586.12,-652 580.12,-646 580.12,-640 580.12,-640 580.12,-552 580.12,-552 580.12,-546 586.12,-540 592.12,-540"/>
<text text-anchor="middle" x="623.12" y="-639.45" font-family="Helvetica,sans-Serif" font-weight="bold" font-size="9.00">extract</text>
</g>
<g id="clust9" class="cluster">
<title>cluster_src/extract/transpile</title>
<path fill="#ffffff" stroke="black" stroke-width="2" d="M600.12,-548C600.12,-548 646.12,-548 646.12,-548 652.12,-548 658.12,-554 658.12,-560 658.12,-560 658.12,-588 658.12,-588 658.12,-594 652.12,-600 646.12,-600 646.12,-600 600.12,-600 600.12,-600 594.12,-600 588.12,-594 588.12,-588 588.12,-588 588.12,-560 588.12,-560 588.12,-554 594.12,-548 600.12,-548"/>
<text text-anchor="middle" x="623.12" y="-587.45" font-family="Helvetica,sans-Serif" font-weight="bold" font-size="9.00">transpile</text>
</g>
<g id="clust10" class="cluster">
<title>cluster_src/graph&#45;utl</title>
<path fill="#ffffff" stroke="black" stroke-width="2" d="M803.12,-22C803.12,-22 916.88,-22 916.88,-22 922.88,-22 928.88,-28 928.88,-34 928.88,-34 928.88,-182 928.88,-182 928.88,-188 922.88,-194 916.88,-194 916.88,-194 803.12,-194 803.12,-194 797.12,-194 791.12,-188 791.12,-182 791.12,-182 791.12,-34 791.12,-34 791.12,-28 797.12,-22 803.12,-22"/>
<text text-anchor="middle" x="860" y="-181.45" font-family="Helvetica,sans-Serif" font-weight="bold" font-size="9.00">graph&#45;utl</text>
</g>
<g id="clust11" class="cluster">
<title>cluster_src/main</title>
<path fill="#ffffff" stroke="black" stroke-width="2" d="M222.25,-218C222.25,-218 771.12,-218 771.12,-218 777.12,-218 783.12,-224 783.12,-230 783.12,-230 783.12,-510 783.12,-510 783.12,-516 777.12,-522 771.12,-522 771.12,-522 222.25,-522 222.25,-522 216.25,-522 210.25,-516 210.25,-510 210.25,-510 210.25,-230 210.25,-230 210.25,-224 216.25,-218 222.25,-218"/>
<text text-anchor="middle" x="496.69" y="-509.45" font-family="Helvetica,sans-Serif" font-weight="bold" font-size="9.00">main</text>
</g>
<g id="clust12" class="cluster">
<title>cluster_src/main/files&#45;and&#45;dirs</title>
<path fill="#ffffff" stroke="black" stroke-width="2" d="M462.12,-354C462.12,-354 527.12,-354 527.12,-354 533.12,-354 539.12,-360 539.12,-366 539.12,-366 539.12,-394 539.12,-394 539.12,-400 533.12,-406 527.12,-406 527.12,-406 462.12,-406 462.12,-406 456.12,-406 450.12,-400 450.12,-394 450.12,-394 450.12,-366 450.12,-366 450.12,-360 456.12,-354 462.12,-354"/>
<text text-anchor="middle" x="494.62" y="-393.45" font-family="Helvetica,sans-Serif" font-weight="bold" font-size="9.00">files&#45;and&#45;dirs</text>
</g>
<g id="clust13" class="cluster">
<title>cluster_src/main/options</title>
<path fill="#ffffff" stroke="black" stroke-width="2" d="M582.75,-306C582.75,-306 763.12,-306 763.12,-306 769.12,-306 775.12,-312 775.12,-318 775.12,-318 775.12,-376 775.12,-376 775.12,-382 769.12,-388 763.12,-388 763.12,-388 582.75,-388 582.75,-388 576.75,-388 570.75,-382 570.75,-376 570.75,-376 570.75,-318 570.75,-318 570.75,-312 576.75,-306 582.75,-306"/>
<text text-anchor="middle" x="672.94" y="-375.45" font-family="Helvetica,sans-Serif" font-weight="bold" font-size="9.00">options</text>
</g>
<g id="clust14" class="cluster">
<title>cluster_src/main/resolve&#45;options</title>
<path fill="#ffffff" stroke="black" stroke-width="2" d="M462.12,-226C462.12,-226 527.12,-226 527.12,-226 533.12,-226 539.12,-232 539.12,-238 539.12,-238 539.12,-266 539.12,-266 539.12,-272 533.12,-278 527.12,-278 527.12,-278 462.12,-278 462.12,-278 456.12,-278 450.12,-272 450.12,-266 450.12,-266 450.12,-238 450.12,-238 450.12,-232 456.12,-226 462.12,-226"/>
<text text-anchor="middle" x="494.62" y="-265.45" font-family="Helvetica,sans-Serif" font-weight="bold" font-size="9.00">resolve&#45;options</text>
</g>
<g id="clust15" class="cluster">
<title>cluster_src/main/rule&#45;set</title>
<path fill="#ffffff" stroke="black" stroke-width="2" d="M454.25,-414C454.25,-414 535,-414 535,-414 541,-414 547,-420 547,-426 547,-426 547,-484 547,-484 547,-490 541,-496 535,-496 535,-496 454.25,-496 454.25,-496 448.25,-496 442.25,-490 442.25,-484 442.25,-484 442.25,-426 442.25,-426 442.25,-420 448.25,-414 454.25,-414"/>
<text text-anchor="middle" x="494.62" y="-483.45" font-family="Helvetica,sans-Serif" font-weight="bold" font-size="9.00">rule&#45;set</text>
</g>
<g id="clust16" class="cluster">
<title>cluster_src/report</title>
<path fill="#ffffff" stroke="black" stroke-width="2" d="M711.25,-158C711.25,-158 758.25,-158 758.25,-158 764.25,-158 770.25,-164 770.25,-170 770.25,-170 770.25,-198 770.25,-198 770.25,-204 764.25,-210 758.25,-210 758.25,-210 711.25,-210 711.25,-210 705.25,-210 699.25,-204 699.25,-198 699.25,-198 699.25,-170 699.25,-170 699.25,-164 705.25,-158 711.25,-158"/>
<text text-anchor="middle" x="734.75" y="-197.45" font-family="Helvetica,sans-Serif" font-weight="bold" font-size="9.00">report</text>
</g>
<g id="clust17" class="cluster">
<title>cluster_src/schema</title>
<path fill="#ffffff" stroke="black" stroke-width="2" d="M567,-128C567,-128 679.25,-128 679.25,-128 685.25,-128 691.25,-134 691.25,-140 691.25,-140 691.25,-198 691.25,-198 691.25,-204 685.25,-210 679.25,-210 679.25,-210 567,-210 567,-210 561,-210 555,-204 555,-198 555,-198 555,-140 555,-140 555,-134 561,-128 567,-128"/>
<text text-anchor="middle" x="623.12" y="-197.45" font-family="Helvetica,sans-Serif" font-weight="bold" font-size="9.00">schema</text>
</g>
<g id="clust18" class="cluster">
<title>cluster_src/utl</title>
<path fill="#ffffff" stroke="black" stroke-width="2" d="M827.88,-442C827.88,-442 892.12,-442 892.12,-442 898.12,-442 904.12,-448 904.12,-454 904.12,-454 904.12,-542 904.12,-542 904.12,-548 898.12,-554 892.12,-554 892.12,-554 827.88,-554 827.88,-554 821.88,-554 815.88,-548 815.88,-542 815.88,-542 815.88,-454 815.88,-454 815.88,-448 821.88,-442 827.88,-442"/>
<text text-anchor="middle" x="860" y="-541.45" font-family="Helvetica,sans-Serif" font-weight="bold" font-size="9.00">utl</text>
</g>
<!-- src/cache/cache.mjs -->
<g id="node1" class="node">
<title>src/cache/cache.mjs</title>
<g id="a_node1"><a xlink:href="src/cache/cache.mjs" xlink:title="cache.mjs">
<path fill="#ffffcc" stroke="black" d="M517.33,-555.88C517.33,-555.88 471.92,-555.88 471.92,-555.88 468.96,-555.88 466,-552.92 466,-549.96 466,-549.96 466,-544.04 466,-544.04 466,-541.08 468.96,-538.12 471.92,-538.12 471.92,-538.12 517.33,-538.12 517.33,-538.12 520.29,-538.12 523.25,-541.08 523.25,-544.04 523.25,-544.04 523.25,-549.96 523.25,-549.96 523.25,-552.92 520.29,-555.88 517.33,-555.88"/>
<text text-anchor="start" x="474" y="-543.33" font-family="Helvetica,sans-Serif" font-size="9.00">cache.mjs</text>
</a>
</g>
</g>
<!-- src/extract/transpile/meta.mjs -->
<g id="node2" class="node">
<title>src/extract/transpile/meta.mjs</title>
<g id="a_node2"><a xlink:href="src/extract/transpile/meta.mjs" xlink:title="meta.mjs">
<path fill="#ffffcc" stroke="black" d="M644.21,-573.88C644.21,-573.88 602.04,-573.88 602.04,-573.88 599.08,-573.88 596.12,-570.92 596.12,-567.96 596.12,-567.96 596.12,-562.04 596.12,-562.04 596.12,-559.08 599.08,-556.12 602.04,-556.12 602.04,-556.12 644.21,-556.12 644.21,-556.12 647.17,-556.12 650.12,-559.08 650.12,-562.04 650.12,-562.04 650.12,-567.96 650.12,-567.96 650.12,-570.92 647.17,-573.88 644.21,-573.88"/>
<text text-anchor="start" x="604.75" y="-561.33" font-family="Helvetica,sans-Serif" font-size="9.00">meta.mjs</text>
</a>
</g>
</g>
<!-- src/cache/cache.mjs&#45;&gt;src/extract/transpile/meta.mjs -->
<g id="edge1" class="edge">
<title>src/cache/cache.mjs&#45;&gt;src/extract/transpile/meta.mjs</title>
<path fill="none" stroke="#000000" stroke-width="2" stroke-opacity="0.200000" d="M523.73,-549.96C559.32,-549.96 614.88,-549.96 614.88,-549.96 614.88,-549.96 614.88,-550.54 614.88,-550.54"/>
<polygon fill="#000000" fill-opacity="0.200000" stroke="#000000" stroke-width="2" stroke-opacity="0.200000" points="612.78,-546.7 614.88,-552.7 616.98,-546.7 612.78,-546.7"/>
</g>
<!-- src/utl/bus.mjs -->
<g id="node3" class="node">
<title>src/utl/bus.mjs</title>
<g id="a_node3"><a xlink:href="src/utl/bus.mjs" xlink:title="bus.mjs">
<path fill="#ffffcc" stroke="black" d="M881.08,-527.88C881.08,-527.88 838.92,-527.88 838.92,-527.88 835.96,-527.88 833,-524.92 833,-521.96 833,-521.96 833,-516.04 833,-516.04 833,-513.08 835.96,-510.12 838.92,-510.12 838.92,-510.12 881.08,-510.12 881.08,-510.12 884.04,-510.12 887,-513.08 887,-516.04 887,-516.04 887,-521.96 887,-521.96 887,-524.92 884.04,-527.88 881.08,-527.88"/>
<text text-anchor="start" x="844.25" y="-515.33" font-family="Helvetica,sans-Serif" font-size="9.00">bus.mjs</text>
</a>
</g>
</g>
<!-- src/cache/cache.mjs&#45;&gt;src/utl/bus.mjs -->
<g id="edge2" class="edge">
<title>src/cache/cache.mjs&#45;&gt;src/utl/bus.mjs</title>
<path fill="none" stroke="#000000" stroke-width="2" stroke-opacity="0.200000" d="M523.56,-544.04C608.61,-544.04 851.88,-544.04 851.88,-544.04 851.88,-544.04 851.88,-537.35 851.88,-537.35"/>
<polygon fill="#000000" fill-opacity="0.200000" stroke="#000000" stroke-width="2" stroke-opacity="0.200000" points="853.98,-537.35 851.88,-531.35 849.78,-537.35 853.98,-537.35"/>
</g>
<!-- src/cli/format&#45;meta&#45;info.mjs -->
<g id="node4" class="node">
<title>src/cli/format&#45;meta&#45;info.mjs</title>
<g id="a_node4"><a xlink:href="src/cli/format-meta-info.mjs" xlink:title="format&#45;meta&#45;info.mjs">
<path fill="#ffffcc" stroke="black" d="M188.33,-431.88C188.33,-431.88 100.92,-431.88 100.92,-431.88 97.96,-431.88 95,-428.92 95,-425.96 95,-425.96 95,-420.04 95,-420.04 95,-417.08 97.96,-414.12 100.92,-414.12 100.92,-414.12 188.33,-414.12 188.33,-414.12 191.29,-414.12 194.25,-417.08 194.25,-420.04 194.25,-420.04 194.25,-425.96 194.25,-425.96 194.25,-428.92 191.29,-431.88 188.33,-431.88"/>
<text text-anchor="start" x="103" y="-419.32" font-family="Helvetica,sans-Serif" font-size="9.00">format&#45;meta&#45;info.mjs</text>
</a>
</g>
</g>
<!-- src/main/index.mjs -->
<g id="node5" class="node">
<title>src/main/index.mjs</title>
<g id="a_node5"><a xlink:href="src/main/index.mjs" xlink:title="index.mjs">
<path fill="#ffffcc" stroke="black" d="M267.33,-431.88C267.33,-431.88 224.17,-431.88 224.17,-431.88 221.21,-431.88 218.25,-428.92 218.25,-425.96 218.25,-425.96 218.25,-420.04 218.25,-420.04 218.25,-417.08 221.21,-414.12 224.17,-414.12 224.17,-414.12 267.33,-414.12 267.33,-414.12 270.29,-414.12 273.25,-417.08 273.25,-420.04 273.25,-420.04 273.25,-425.96 273.25,-425.96 273.25,-428.92 270.29,-431.88 267.33,-431.88"/>
<text text-anchor="start" x="226.25" y="-419.32" font-family="Helvetica,sans-Serif" font-size="9.00">index.mjs</text>
</a>
</g>
</g>
<!-- src/cli/format&#45;meta&#45;info.mjs&#45;&gt;src/main/index.mjs -->
<g id="edge3" class="edge">
<title>src/cli/format&#45;meta&#45;info.mjs&#45;&gt;src/main/index.mjs</title>
<path fill="none" stroke="#000000" stroke-width="2" stroke-opacity="0.200000" d="M194.59,-423C194.59,-423 208.99,-423 208.99,-423"/>
<polygon fill="#000000" fill-opacity="0.200000" stroke="#000000" stroke-width="2" stroke-opacity="0.200000" points="208.99,-425.1 214.99,-423 208.99,-420.9 208.99,-425.1"/>
</g>
<!-- src/main/index.mjs&#45;&gt;src/extract/transpile/meta.mjs -->
<g id="edge31" class="edge">
<title>src/main/index.mjs&#45;&gt;src/extract/transpile/meta.mjs</title>
<path fill="none" stroke="#000000" stroke-width="2" stroke-opacity="0.200000" d="M273.59,-418.12C362.36,-418.12 632.88,-418.12 632.88,-418.12 632.88,-418.12 632.88,-546.79 632.88,-546.79"/>
<polygon fill="#000000" fill-opacity="0.200000" stroke="#000000" stroke-width="2" stroke-opacity="0.200000" points="630.78,-546.79 632.88,-552.79 634.98,-546.79 630.78,-546.79"/>
</g>
<!-- src/main/format.mjs -->
<g id="node7" class="node">
<title>src/main/format.mjs</title>
<g id="a_node7"><a xlink:href="src/main/format.mjs" xlink:title="format.mjs">
<path fill="#ffffcc" stroke="black" d="M517.71,-303.88C517.71,-303.88 471.54,-303.88 471.54,-303.88 468.58,-303.88 465.62,-300.92 465.62,-297.96 465.62,-297.96 465.62,-292.04 465.62,-292.04 465.62,-289.08 468.58,-286.12 471.54,-286.12 471.54,-286.12 517.71,-286.12 517.71,-286.12 520.67,-286.12 523.62,-289.08 523.62,-292.04 523.62,-292.04 523.62,-297.96 523.62,-297.96 523.62,-300.92 520.67,-303.88 517.71,-303.88"/>
<text text-anchor="start" x="473.62" y="-291.32" font-family="Helvetica,sans-Serif" font-size="9.00">format.mjs</text>
</a>
</g>
</g>
<!-- src/main/index.mjs&#45;&gt;src/main/format.mjs -->
<g id="edge30" class="edge">
<title>src/main/index.mjs&#45;&gt;src/main/format.mjs</title>
<path fill="none" stroke="#000000" stroke-width="2" stroke-opacity="0.200000" d="M236.88,-414.01C236.88,-385.34 236.88,-297.96 236.88,-297.96 236.88,-297.96 456.53,-297.96 456.53,-297.96"/>
<polygon fill="#000000" fill-opacity="0.200000" stroke="#000000" stroke-width="2" stroke-opacity="0.200000" points="456.53,-300.06 462.53,-297.96 456.53,-295.86 456.53,-300.06"/>
</g>
<!-- src/main/cruise.mjs -->
<g id="node9" class="node">
<title>src/main/cruise.mjs</title>
<g id="a_node9"><a xlink:href="src/main/cruise.mjs" xlink:title="cruise.mjs">
<path fill="#ffffcc" stroke="black" d="M380.46,-409.88C380.46,-409.88 335.04,-409.88 335.04,-409.88 332.08,-409.88 329.12,-406.92 329.12,-403.96 329.12,-403.96 329.12,-398.04 329.12,-398.04 329.12,-395.08 332.08,-392.12 335.04,-392.12 335.04,-392.12 380.46,-392.12 380.46,-392.12 383.42,-392.12 386.38,-395.08 386.38,-398.04 386.38,-398.04 386.38,-403.96 386.38,-403.96 386.38,-406.92 383.42,-409.88 380.46,-409.88"/>
<text text-anchor="start" x="337.12" y="-397.32" font-family="Helvetica,sans-Serif" font-size="9.00">cruise.mjs</text>
</a>
</g>
</g>
<!-- src/main/index.mjs&#45;&gt;src/main/cruise.mjs -->
<g id="edge29" class="edge">
<title>src/main/index.mjs&#45;&gt;src/main/cruise.mjs</title>
<path fill="none" stroke="#000000" stroke-width="2" stroke-opacity="0.200000" d="M255.88,-413.63C255.88,-410.23 255.88,-407.21 255.88,-407.21 255.88,-407.21 319.8,-407.21 319.8,-407.21"/>
<polygon fill="#000000" fill-opacity="0.200000" stroke="#000000" stroke-width="2" stroke-opacity="0.200000" points="319.8,-409.31 325.8,-407.21 319.8,-405.11 319.8,-409.31"/>
</g>
<!-- src/cli/format.mjs -->
<g id="node6" class="node">
<title>src/cli/format.mjs</title>
<g id="a_node6"><a xlink:href="src/cli/format.mjs" xlink:title="format.mjs">
<path fill="#ffffcc" stroke="black" d="M76.08,-401.88C76.08,-401.88 29.92,-401.88 29.92,-401.88 26.96,-401.88 24,-398.92 24,-395.96 24,-395.96 24,-390.04 24,-390.04 24,-387.08 26.96,-384.12 29.92,-384.12 29.92,-384.12 76.08,-384.12 76.08,-384.12 79.04,-384.12 82,-387.08 82,-390.04 82,-390.04 82,-395.96 82,-395.96 82,-398.92 79.04,-401.88 76.08,-401.88"/>
<text text-anchor="start" x="32" y="-389.32" font-family="Helvetica,sans-Serif" font-size="9.00">format.mjs</text>
</a>
</g>
</g>
<!-- src/cli/format.mjs&#45;&gt;src/main/format.mjs -->
<g id="edge4" class="edge">
<title>src/cli/format.mjs&#45;&gt;src/main/format.mjs</title>
<path fill="none" stroke="#000000" stroke-width="2" stroke-opacity="0.200000" d="M53.88,-383.68C53.88,-358.69 53.88,-292.04 53.88,-292.04 53.88,-292.04 456.34,-292.04 456.34,-292.04"/>
<polygon fill="#000000" fill-opacity="0.200000" stroke="#000000" stroke-width="2" stroke-opacity="0.200000" points="456.34,-294.14 462.34,-292.04 456.34,-289.94 456.34,-294.14"/>
</g>
<!-- src/main/options/assert&#45;validity.mjs -->
<g id="node22" class="node">
<title>src/main/options/assert&#45;validity.mjs</title>
<g id="a_node22"><a xlink:href="src/main/options/assert-validity.mjs" xlink:title="assert&#45;validity.mjs">
<path fill="#ffffcc" stroke="black" d="M661.58,-331.88C661.58,-331.88 584.67,-331.88 584.67,-331.88 581.71,-331.88 578.75,-328.92 578.75,-325.96 578.75,-325.96 578.75,-320.04 578.75,-320.04 578.75,-317.08 581.71,-314.12 584.67,-314.12 584.67,-314.12 661.58,-314.12 661.58,-314.12 664.54,-314.12 667.5,-317.08 667.5,-320.04 667.5,-320.04 667.5,-325.96 667.5,-325.96 667.5,-328.92 664.54,-331.88 661.58,-331.88"/>
<text text-anchor="start" x="586.75" y="-319.32" font-family="Helvetica,sans-Serif" font-size="9.00">assert&#45;validity.mjs</text>
</a>
</g>
</g>
<!-- src/main/format.mjs&#45;&gt;src/main/options/assert&#45;validity.mjs -->
<g id="edge24" class="edge">
<title>src/main/format.mjs&#45;&gt;src/main/options/assert&#45;validity.mjs</title>
<path fill="none" stroke="#000000" stroke-width="2" stroke-opacity="0.200000" d="M504.88,-304.32C504.88,-311.44 504.88,-320.04 504.88,-320.04 504.88,-320.04 569.39,-320.04 569.39,-320.04"/>
<polygon fill="#000000" fill-opacity="0.200000" stroke="#000000" stroke-width="2" stroke-opacity="0.200000" points="569.39,-322.14 575.39,-320.04 569.39,-317.94 569.39,-322.14"/>
</g>
<!-- src/main/options/normalize.mjs -->
<g id="node23" class="node">
<title>src/main/options/normalize.mjs</title>
<g id="a_node23"><a xlink:href="src/main/options/normalize.mjs" xlink:title="normalize.mjs">
<path fill="#ffffcc" stroke="black" d="M653.71,-361.88C653.71,-361.88 592.54,-361.88 592.54,-361.88 589.58,-361.88 586.62,-358.92 586.62,-355.96 586.62,-355.96 586.62,-350.04 586.62,-350.04 586.62,-347.08 589.58,-344.12 592.54,-344.12 592.54,-344.12 653.71,-344.12 653.71,-344.12 656.67,-344.12 659.62,-347.08 659.62,-350.04 659.62,-350.04 659.62,-355.96 659.62,-355.96 659.62,-358.92 656.67,-361.88 653.71,-361.88"/>
<text text-anchor="start" x="594.62" y="-349.32" font-family="Helvetica,sans-Serif" font-size="9.00">normalize.mjs</text>
</a>
</g>
</g>
<!-- src/main/format.mjs&#45;&gt;src/main/options/normalize.mjs -->
<g id="edge25" class="edge">
<title>src/main/format.mjs&#45;&gt;src/main/options/normalize.mjs</title>
<path fill="none" stroke="#000000" stroke-width="2" stroke-opacity="0.200000" d="M485.88,-304.32C485.88,-320.71 485.88,-353 485.88,-353 485.88,-353 577.32,-353 577.32,-353"/>
<polygon fill="#000000" fill-opacity="0.200000" stroke="#000000" stroke-width="2" stroke-opacity="0.200000" points="577.32,-355.1 583.32,-353 577.32,-350.9 577.32,-355.1"/>
</g>
<!-- src/main/report&#45;wrap.mjs -->
<g id="node24" class="node">
<title>src/main/report&#45;wrap.mjs</title>
<g id="a_node24"><a xlink:href="src/main/report-wrap.mjs" xlink:title="report&#45;wrap.mjs">
<path fill="#ffffcc" stroke="black" d="M657.08,-243.88C657.08,-243.88 589.17,-243.88 589.17,-243.88 586.21,-243.88 583.25,-240.92 583.25,-237.96 583.25,-237.96 583.25,-232.04 583.25,-232.04 583.25,-229.08 586.21,-226.12 589.17,-226.12 589.17,-226.12 657.08,-226.12 657.08,-226.12 660.04,-226.12 663,-229.08 663,-232.04 663,-232.04 663,-237.96 663,-237.96 663,-240.92 660.04,-243.88 657.08,-243.88"/>
<text text-anchor="start" x="591.25" y="-231.32" font-family="Helvetica,sans-Serif" font-size="9.00">report&#45;wrap.mjs</text>
</a>
</g>
</g>
<!-- src/main/format.mjs&#45;&gt;src/main/report&#45;wrap.mjs -->
<g id="edge26" class="edge">
<title>src/main/format.mjs&#45;&gt;src/main/report&#45;wrap.mjs</title>
<path fill="none" stroke="#000000" stroke-width="2" stroke-opacity="0.200000" d="M523.95,-297.96C562.09,-297.96 623.88,-297.96 623.88,-297.96 623.88,-297.96 623.88,-253.32 623.88,-253.32"/>
<polygon fill="#000000" fill-opacity="0.200000" stroke="#000000" stroke-width="2" stroke-opacity="0.200000" points="625.98,-253.32 623.88,-247.32 621.78,-253.32 625.98,-253.32"/>
</g>
<!-- src/schema/cruise&#45;result.schema.mjs -->
<g id="node27" class="node">
<title>src/schema/cruise&#45;result.schema.mjs</title>
<g id="a_node27"><a xlink:href="src/schema/cruise-result.schema.mjs" xlink:title="cruise&#45;result.schema.mjs">
<path fill="#ffffcc" stroke="black" d="M675.83,-153.88C675.83,-153.88 570.42,-153.88 570.42,-153.88 567.46,-153.88 564.5,-150.92 564.5,-147.96 564.5,-147.96 564.5,-142.04 564.5,-142.04 564.5,-139.08 567.46,-136.12 570.42,-136.12 570.42,-136.12 675.83,-136.12 675.83,-136.12 678.79,-136.12 681.75,-139.08 681.75,-142.04 681.75,-142.04 681.75,-147.96 681.75,-147.96 681.75,-150.92 678.79,-153.88 675.83,-153.88"/>
<text text-anchor="start" x="572.5" y="-141.32" font-family="Helvetica,sans-Serif" font-size="9.00">cruise&#45;result.schema.mjs</text>
</a>
</g>
</g>
<!-- src/main/format.mjs&#45;&gt;src/schema/cruise&#45;result.schema.mjs -->
<g id="edge27" class="edge">
<title>src/main/format.mjs&#45;&gt;src/schema/cruise&#45;result.schema.mjs</title>
<path fill="none" stroke="#000000" stroke-width="2" stroke-opacity="0.200000" d="M524.03,-292.04C540.55,-292.04 557.88,-292.04 557.88,-292.04 557.88,-292.04 557.88,-147 557.88,-147 557.88,-147 558.52,-147 558.52,-147"/>
<polygon fill="#000000" fill-opacity="0.200000" stroke="#000000" stroke-width="2" stroke-opacity="0.200000" points="555.34,-149.1 561.34,-147 555.34,-144.9 555.34,-149.1"/>
</g>
<!-- src/cli/index.mjs -->
<g id="node8" class="node">
<title>src/cli/index.mjs</title>
<g id="a_node8"><a xlink:href="src/cli/index.mjs" xlink:title="index.mjs">
<path fill="#ffffcc" stroke="black" d="M74.58,-431.88C74.58,-431.88 31.42,-431.88 31.42,-431.88 28.46,-431.88 25.5,-428.92 25.5,-425.96 25.5,-425.96 25.5,-420.04 25.5,-420.04 25.5,-417.08 28.46,-414.12 31.42,-414.12 31.42,-414.12 74.58,-414.12 74.58,-414.12 77.54,-414.12 80.5,-417.08 80.5,-420.04 80.5,-420.04 80.5,-425.96 80.5,-425.96 80.5,-428.92 77.54,-431.88 74.58,-431.88"/>
<text text-anchor="start" x="33.5" y="-419.32" font-family="Helvetica,sans-Serif" font-size="9.00">index.mjs</text>
</a>
</g>
</g>
<!-- src/cli/index.mjs&#45;&gt;src/utl/bus.mjs -->
<g id="edge7" class="edge">
<title>src/cli/index.mjs&#45;&gt;src/utl/bus.mjs</title>
<path fill="none" stroke="#000000" stroke-width="2" stroke-opacity="0.200000" d="M43.88,-432.13C43.88,-456.63 43.88,-521.96 43.88,-521.96 43.88,-521.96 823.82,-521.96 823.82,-521.96"/>
<polygon fill="#000000" fill-opacity="0.200000" stroke="#000000" stroke-width="2" stroke-opacity="0.200000" points="823.82,-524.06 829.82,-521.96 823.82,-519.86 823.82,-524.06"/>
</g>
<!-- src/cli/index.mjs&#45;&gt;src/cli/format&#45;meta&#45;info.mjs -->
<g id="edge5" class="edge">
<title>src/cli/index.mjs&#45;&gt;src/cli/format&#45;meta&#45;info.mjs</title>
<path fill="none" stroke="#000000" stroke-width="2" stroke-dasharray="5,2" stroke-opacity="0.200000" d="M80.99,-423C80.99,-423 85.81,-423 85.81,-423"/>
<polygon fill="#000000" fill-opacity="0.200000" stroke="#000000" stroke-width="2" stroke-opacity="0.200000" points="85.81,-425.1 91.81,-423 85.81,-420.9 85.81,-425.1"/>
</g>
<!-- src/cli/index.mjs&#45;&gt;src/main/cruise.mjs -->
<g id="edge6" class="edge">
<title>src/cli/index.mjs&#45;&gt;src/main/cruise.mjs</title>
<path fill="none" stroke="#000000" stroke-width="2" stroke-opacity="0.200000" d="M53.88,-413.77C53.88,-409.16 53.88,-404.54 53.88,-404.54 53.88,-404.54 319.86,-404.54 319.86,-404.54"/>
<polygon fill="#000000" fill-opacity="0.200000" stroke="#000000" stroke-width="2" stroke-opacity="0.200000" points="319.86,-406.64 325.86,-404.54 319.86,-402.44 319.86,-406.64"/>
</g>
<!-- src/utl/object&#45;util.mjs -->
<g id="node10" class="node">
<title>src/utl/object&#45;util.mjs</title>
<g id="a_node10"><a xlink:href="src/utl/object-util.mjs" xlink:title="object&#45;util.mjs">
<path fill="#ffffcc" stroke="black" d="M890.21,-497.88C890.21,-497.88 829.79,-497.88 829.79,-497.88 826.83,-497.88 823.88,-494.92 823.88,-491.96 823.88,-491.96 823.88,-486.04 823.88,-486.04 823.88,-483.08 826.83,-480.12 829.79,-480.12 829.79,-480.12 890.21,-480.12 890.21,-480.12 893.17,-480.12 896.12,-483.08 896.12,-486.04 896.12,-486.04 896.12,-491.96 896.12,-491.96 896.12,-494.92 893.17,-497.88 890.21,-497.88"/>
<text text-anchor="start" x="831.88" y="-485.32" font-family="Helvetica,sans-Serif" font-size="9.00">object&#45;util.mjs</text>
</a>
</g>
</g>
<!-- src/cli/index.mjs&#45;&gt;src/utl/object&#45;util.mjs -->
<g id="edge8" class="edge">
<title>src/cli/index.mjs&#45;&gt;src/utl/object&#45;util.mjs</title>
<path fill="none" stroke="#000000" stroke-width="2" stroke-opacity="0.200000" d="M62.88,-432.21C62.88,-451.3 62.88,-493.44 62.88,-493.44 62.88,-493.44 814.39,-493.44 814.39,-493.44"/>
<polygon fill="#000000" fill-opacity="0.200000" stroke="#000000" stroke-width="2" stroke-opacity="0.200000" points="814.39,-495.54 820.39,-493.44 814.39,-491.34 814.39,-495.54"/>
</g>
<!-- src/main/cruise.mjs&#45;&gt;src/cache/cache.mjs -->
<g id="edge20" class="edge">
<title>src/main/cruise.mjs&#45;&gt;src/cache/cache.mjs</title>
<path fill="none" stroke="#000000" stroke-width="2" stroke-dasharray="5,2" stroke-opacity="0.200000" d="M352.88,-410.13C352.88,-442.1 352.88,-547 352.88,-547 352.88,-547 456.57,-547 456.57,-547"/>
<polygon fill="#000000" fill-opacity="0.200000" stroke="#000000" stroke-width="2" stroke-opacity="0.200000" points="456.57,-549.1 462.57,-547 456.57,-544.9 456.57,-549.1"/>
</g>
<!-- src/main/cruise.mjs&#45;&gt;src/utl/bus.mjs -->
<g id="edge23" class="edge">
<title>src/main/cruise.mjs&#45;&gt;src/utl/bus.mjs</title>
<path fill="none" stroke="#000000" stroke-width="2" stroke-opacity="0.200000" d="M363.88,-410.03C363.88,-437.15 363.88,-516.04 363.88,-516.04 363.88,-516.04 823.59,-516.04 823.59,-516.04"/>
<polygon fill="#000000" fill-opacity="0.200000" stroke="#000000" stroke-width="2" stroke-opacity="0.200000" points="823.59,-518.14 829.59,-516.04 823.59,-513.94 823.59,-518.14"/>
</g>
<!-- src/main/resolve&#45;options/normalize.mjs -->
<g id="node12" class="node">
<title>src/main/resolve&#45;options/normalize.mjs</title>
<g id="a_node12"><a xlink:href="src/main/resolve-options/normalize.mjs" xlink:title="normalize.mjs">
<path fill="#ffffcc" stroke="black" d="M525.21,-251.88C525.21,-251.88 464.04,-251.88 464.04,-251.88 461.08,-251.88 458.12,-248.92 458.12,-245.96 458.12,-245.96 458.12,-240.04 458.12,-240.04 458.12,-237.08 461.08,-234.12 464.04,-234.12 464.04,-234.12 525.21,-234.12 525.21,-234.12 528.17,-234.12 531.12,-237.08 531.12,-240.04 531.12,-240.04 531.12,-245.96 531.12,-245.96 531.12,-248.92 528.17,-251.88 525.21,-251.88"/>
<text text-anchor="start" x="466.12" y="-239.32" font-family="Helvetica,sans-Serif" font-size="9.00">normalize.mjs</text>
</a>
</g>
</g>
<!-- src/main/cruise.mjs&#45;&gt;src/main/resolve&#45;options/normalize.mjs -->
<g id="edge17" class="edge">
<title>src/main/cruise.mjs&#45;&gt;src/main/resolve&#45;options/normalize.mjs</title>
<path fill="none" stroke="#000000" stroke-width="2" stroke-dasharray="5,2" stroke-opacity="0.200000" d="M352.88,-391.77C352.88,-358.39 352.88,-245.96 352.88,-245.96 352.88,-245.96 448.72,-245.96 448.72,-245.96"/>
<polygon fill="#000000" fill-opacity="0.200000" stroke="#000000" stroke-width="2" stroke-opacity="0.200000" points="448.72,-248.06 454.72,-245.96 448.72,-243.86 448.72,-248.06"/>
</g>
<!-- src/enrich/index.mjs -->
<g id="node13" class="node">
<title>src/enrich/index.mjs</title>
<g id="a_node13"><a xlink:href="src/enrich/index.mjs" xlink:title="index.mjs">
<path fill="#ffffcc" stroke="black" d="M644.71,-72.88C644.71,-72.88 601.54,-72.88 601.54,-72.88 598.58,-72.88 595.62,-69.92 595.62,-66.96 595.62,-66.96 595.62,-61.04 595.62,-61.04 595.62,-58.08 598.58,-55.12 601.54,-55.12 601.54,-55.12 644.71,-55.12 644.71,-55.12 647.67,-55.12 650.62,-58.08 650.62,-61.04 650.62,-61.04 650.62,-66.96 650.62,-66.96 650.62,-69.92 647.67,-72.88 644.71,-72.88"/>
<text text-anchor="start" x="603.62" y="-60.33" font-family="Helvetica,sans-Serif" font-size="9.00">index.mjs</text>
</a>
</g>
</g>
<!-- src/main/cruise.mjs&#45;&gt;src/enrich/index.mjs -->
<g id="edge21" class="edge">
<title>src/main/cruise.mjs&#45;&gt;src/enrich/index.mjs</title>
<path fill="none" stroke="#000000" stroke-width="2" stroke-dasharray="5,2" stroke-opacity="0.200000" d="M386.73,-395.68C439.5,-395.68 545.88,-395.68 545.88,-395.68 545.88,-395.68 545.88,-64 545.88,-64 545.88,-64 586.21,-64 586.21,-64"/>
<polygon fill="#000000" fill-opacity="0.200000" stroke="#000000" stroke-width="2" stroke-opacity="0.200000" points="586.21,-66.1 592.21,-64 586.21,-61.9 586.21,-66.1"/>
</g>
<!-- src/extract/index.mjs -->
<g id="node16" class="node">
<title>src/extract/index.mjs</title>
<g id="a_node16"><a xlink:href="src/extract/index.mjs" xlink:title="index.mjs">
<path fill="#ffffcc" stroke="black" d="M644.71,-625.88C644.71,-625.88 601.54,-625.88 601.54,-625.88 598.58,-625.88 595.62,-622.92 595.62,-619.96 595.62,-619.96 595.62,-614.04 595.62,-614.04 595.62,-611.08 598.58,-608.12 601.54,-608.12 601.54,-608.12 644.71,-608.12 644.71,-608.12 647.67,-608.12 650.62,-611.08 650.62,-614.04 650.62,-614.04 650.62,-619.96 650.62,-619.96 650.62,-622.92 647.67,-625.88 644.71,-625.88"/>
<text text-anchor="start" x="603.62" y="-613.33" font-family="Helvetica,sans-Serif" font-size="9.00">index.mjs</text>
</a>
</g>
</g>
<!-- src/main/cruise.mjs&#45;&gt;src/extract/index.mjs -->
<g id="edge22" class="edge">
<title>src/main/cruise.mjs&#45;&gt;src/extract/index.mjs</title>
<path fill="none" stroke="#000000" stroke-width="2" stroke-dasharray="5,2" stroke-opacity="0.200000" d="M340.88,-410.28C340.88,-451.62 340.88,-617 340.88,-617 340.88,-617 586.26,-617 586.26,-617"/>
<polygon fill="#000000" fill-opacity="0.200000" stroke="#000000" stroke-width="2" stroke-opacity="0.200000" points="586.26,-619.1 592.26,-617 586.26,-614.9 586.26,-619.1"/>
</g>
<!-- src/main/files&#45;and&#45;dirs/normalize.mjs -->
<g id="node21" class="node">
<title>src/main/files&#45;and&#45;dirs/normalize.mjs</title>
<g id="a_node21"><a xlink:href="src/main/files-and-dirs/normalize.mjs" xlink:title="normalize.mjs">
<path fill="#ffffcc" stroke="black" d="M525.21,-379.88C525.21,-379.88 464.04,-379.88 464.04,-379.88 461.08,-379.88 458.12,-376.92 458.12,-373.96 458.12,-373.96 458.12,-368.04 458.12,-368.04 458.12,-365.08 461.08,-362.12 464.04,-362.12 464.04,-362.12 525.21,-362.12 525.21,-362.12 528.17,-362.12 531.12,-365.08 531.12,-368.04 531.12,-368.04 531.12,-373.96 531.12,-373.96 531.12,-376.92 528.17,-379.88 525.21,-379.88"/>
<text text-anchor="start" x="466.12" y="-367.32" font-family="Helvetica,sans-Serif" font-size="9.00">normalize.mjs</text>
</a>
</g>
</g>
<!-- src/main/cruise.mjs&#45;&gt;src/main/files&#45;and&#45;dirs/normalize.mjs -->
<g id="edge13" class="edge">
<title>src/main/cruise.mjs&#45;&gt;src/main/files&#45;and&#45;dirs/normalize.mjs</title>
<path fill="none" stroke="#000000" stroke-width="2" stroke-dasharray="5,2" stroke-opacity="0.200000" d="M374.88,-391.84C374.88,-383.01 374.88,-371 374.88,-371 374.88,-371 448.69,-371 448.69,-371"/>
<polygon fill="#000000" fill-opacity="0.200000" stroke="#000000" stroke-width="2" stroke-opacity="0.200000" points="448.69,-373.1 454.69,-371 448.69,-368.9 448.69,-373.1"/>
</g>
<!-- src/main/cruise.mjs&#45;&gt;src/main/options/assert&#45;validity.mjs -->
<g id="edge14" class="edge">
<title>src/main/cruise.mjs&#45;&gt;src/main/options/assert&#45;validity.mjs</title>
<path fill="none" stroke="#000000" stroke-width="2" stroke-opacity="0.200000" d="M386.72,-399.23C447.52,-399.23 582.88,-399.23 582.88,-399.23 582.88,-399.23 582.88,-341.37 582.88,-341.37"/>
<polygon fill="#000000" fill-opacity="0.200000" stroke="#000000" stroke-width="2" stroke-opacity="0.200000" points="584.98,-341.37 582.88,-335.37 580.78,-341.37 584.98,-341.37"/>
</g>
<!-- src/main/cruise.mjs&#45;&gt;src/main/options/normalize.mjs -->
<g id="edge15" class="edge">
<title>src/main/cruise.mjs&#45;&gt;src/main/options/normalize.mjs</title>
<path fill="none" stroke="#000000" stroke-width="2" stroke-opacity="0.200000" d="M386.46,-402.77C448.98,-402.77 591.88,-402.77 591.88,-402.77 591.88,-402.77 591.88,-371.16 591.88,-371.16"/>
<polygon fill="#000000" fill-opacity="0.200000" stroke="#000000" stroke-width="2" stroke-opacity="0.200000" points="593.98,-371.16 591.88,-365.16 589.78,-371.16 593.98,-371.16"/>
</g>
<!-- src/main/cruise.mjs&#45;&gt;src/main/report&#45;wrap.mjs -->
<g id="edge16" class="edge">
<title>src/main/cruise.mjs&#45;&gt;src/main/report&#45;wrap.mjs</title>
<path fill="none" stroke="#000000" stroke-width="2" stroke-opacity="0.200000" d="M341.88,-391.81C341.88,-356.32 341.88,-230.12 341.88,-230.12 341.88,-230.12 573.8,-230.12 573.8,-230.12"/>
<polygon fill="#000000" fill-opacity="0.200000" stroke="#000000" stroke-width="2" stroke-opacity="0.200000" points="573.8,-232.23 579.8,-230.13 573.8,-228.03 573.8,-232.23"/>
</g>
<!-- src/main/rule&#45;set/assert&#45;validity.mjs -->
<g id="node25" class="node">
<title>src/main/rule&#45;set/assert&#45;validity.mjs</title>
<g id="a_node25"><a xlink:href="src/main/rule-set/assert-validity.mjs" xlink:title="assert&#45;validity.mjs">
<path fill="#ffffcc" stroke="black" d="M533.08,-439.88C533.08,-439.88 456.17,-439.88 456.17,-439.88 453.21,-439.88 450.25,-436.92 450.25,-433.96 450.25,-433.96 450.25,-428.04 450.25,-428.04 450.25,-425.08 453.21,-422.12 456.17,-422.12 456.17,-422.12 533.08,-422.12 533.08,-422.12 536.04,-422.12 539,-425.08 539,-428.04 539,-428.04 539,-433.96 539,-433.96 539,-436.92 536.04,-439.88 533.08,-439.88"/>
<text text-anchor="start" x="458.25" y="-427.32" font-family="Helvetica,sans-Serif" font-size="9.00">assert&#45;validity.mjs</text>
</a>
</g>
</g>
<!-- src/main/cruise.mjs&#45;&gt;src/main/rule&#45;set/assert&#45;validity.mjs -->
<g id="edge18" class="edge">
<title>src/main/cruise.mjs&#45;&gt;src/main/rule&#45;set/assert&#45;validity.mjs</title>
<path fill="none" stroke="#000000" stroke-width="2" stroke-dasharray="5,2" stroke-opacity="0.200000" d="M386.63,-406.32C415.26,-406.32 454.88,-406.32 454.88,-406.32 454.88,-406.32 454.88,-412.78 454.88,-412.78"/>
<polygon fill="#000000" fill-opacity="0.200000" stroke="#000000" stroke-width="2" stroke-opacity="0.200000" points="452.78,-412.78 454.88,-418.78 456.98,-412.78 452.78,-412.78"/>
</g>
<!-- src/main/rule&#45;set/normalize.mjs -->
<g id="node26" class="node">
<title>src/main/rule&#45;set/normalize.mjs</title>
<g id="a_node26"><a xlink:href="src/main/rule-set/normalize.mjs" xlink:title="normalize.mjs">
<path fill="#ffffcc" stroke="black" d="M525.21,-469.88C525.21,-469.88 464.04,-469.88 464.04,-469.88 461.08,-469.88 458.12,-466.92 458.12,-463.96 458.12,-463.96 458.12,-458.04 458.12,-458.04 458.12,-455.08 461.08,-452.12 464.04,-452.12 464.04,-452.12 525.21,-452.12 525.21,-452.12 528.17,-452.12 531.12,-455.08 531.12,-458.04 531.12,-458.04 531.12,-463.96 531.12,-463.96 531.12,-466.92 528.17,-469.88 525.21,-469.88"/>
<text text-anchor="start" x="466.12" y="-457.32" font-family="Helvetica,sans-Serif" font-size="9.00">normalize.mjs</text>
</a>
</g>
</g>
<!-- src/main/cruise.mjs&#45;&gt;src/main/rule&#45;set/normalize.mjs -->
<g id="edge19" class="edge">
<title>src/main/cruise.mjs&#45;&gt;src/main/rule&#45;set/normalize.mjs</title>
<path fill="none" stroke="#000000" stroke-width="2" stroke-dasharray="5,2" stroke-opacity="0.200000" d="M375.88,-410.19C375.88,-425.98 375.88,-456.62 375.88,-456.62 375.88,-456.62 448.68,-456.62 448.68,-456.62"/>
<polygon fill="#000000" fill-opacity="0.200000" stroke="#000000" stroke-width="2" stroke-opacity="0.200000" points="448.68,-458.73 454.68,-456.63 448.68,-454.53 448.68,-458.73"/>
</g>
<!-- src/config&#45;utl/extract&#45;depcruise&#45;config/index.mjs -->
<g id="node11" class="node">
<title>src/config&#45;utl/extract&#45;depcruise&#45;config/index.mjs</title>
<g id="a_node11"><a xlink:href="src/config-utl/extract-depcruise-config/index.mjs" xlink:title="index.mjs">
<path fill="#ffffcc" stroke="black" d="M379.33,-157.88C379.33,-157.88 336.17,-157.88 336.17,-157.88 333.21,-157.88 330.25,-154.92 330.25,-151.96 330.25,-151.96 330.25,-146.04 330.25,-146.04 330.25,-143.08 333.21,-140.12 336.17,-140.12 336.17,-140.12 379.33,-140.12 379.33,-140.12 382.29,-140.12 385.25,-143.08 385.25,-146.04 385.25,-146.04 385.25,-151.96 385.25,-151.96 385.25,-154.92 382.29,-157.88 379.33,-157.88"/>
<text text-anchor="start" x="338.25" y="-145.32" font-family="Helvetica,sans-Serif" font-size="9.00">index.mjs</text>
</a>
</g>
</g>
<!-- src/config&#45;utl/extract&#45;depcruise&#45;config/index.mjs&#45;&gt;src/main/resolve&#45;options/normalize.mjs -->
<g id="edge9" class="edge">
<title>src/config&#45;utl/extract&#45;depcruise&#45;config/index.mjs&#45;&gt;src/main/resolve&#45;options/normalize.mjs</title>
<path fill="none" stroke="#000000" stroke-width="2" stroke-opacity="0.200000" d="M363.88,-158.06C363.88,-181.09 363.88,-240.04 363.88,-240.04 363.88,-240.04 448.83,-240.04 448.83,-240.04"/>
<polygon fill="#000000" fill-opacity="0.200000" stroke="#000000" stroke-width="2" stroke-opacity="0.200000" points="448.83,-242.14 454.83,-240.04 448.83,-237.94 448.83,-242.14"/>
</g>
<!-- src/main/resolve&#45;options/normalize.mjs&#45;&gt;src/extract/transpile/meta.mjs -->
<g id="edge42" class="edge">
<title>src/main/resolve&#45;options/normalize.mjs&#45;&gt;src/extract/transpile/meta.mjs</title>
<path fill="none" stroke="#000000" stroke-width="2" stroke-opacity="0.200000" d="M531.53,-247.88C542.61,-247.88 551.88,-247.88 551.88,-247.88 551.88,-247.88 551.88,-565 551.88,-565 551.88,-565 586.75,-565 586.75,-565"/>
<polygon fill="#000000" fill-opacity="0.200000" stroke="#000000" stroke-width="2" stroke-opacity="0.200000" points="586.75,-567.1 592.75,-565 586.75,-562.9 586.75,-567.1"/>
</g>
<!-- src/graph&#45;utl/rule&#45;set.mjs -->
<g id="node19" class="node">
<title>src/graph&#45;utl/rule&#45;set.mjs</title>
<g id="a_node19"><a xlink:href="src/graph-utl/rule-set.mjs" xlink:title="rule&#45;set.mjs">
<path fill="#ffffcc" stroke="black" d="M885.71,-47.88C885.71,-47.88 834.29,-47.88 834.29,-47.88 831.33,-47.88 828.38,-44.92 828.38,-41.96 828.38,-41.96 828.38,-36.04 828.38,-36.04 828.38,-33.08 831.33,-30.12 834.29,-30.12 834.29,-30.12 885.71,-30.12 885.71,-30.12 888.67,-30.12 891.62,-33.08 891.62,-36.04 891.62,-36.04 891.62,-41.96 891.62,-41.96 891.62,-44.92 888.67,-47.88 885.71,-47.88"/>
<text text-anchor="start" x="836.38" y="-35.33" font-family="Helvetica,sans-Serif" font-size="9.00">rule&#45;set.mjs</text>
</a>
</g>
</g>
<!-- src/main/resolve&#45;options/normalize.mjs&#45;&gt;src/graph&#45;utl/rule&#45;set.mjs -->
<g id="edge43" class="edge">
<title>src/main/resolve&#45;options/normalize.mjs&#45;&gt;src/graph&#45;utl/rule&#45;set.mjs</title>
<path fill="none" stroke="#000000" stroke-width="2" stroke-opacity="0.200000" d="M494.88,-233.84C494.88,-193.81 494.88,-36.12 494.88,-36.12 494.88,-36.12 818.89,-36.12 818.89,-36.12"/>
<polygon fill="#000000" fill-opacity="0.200000" stroke="#000000" stroke-width="2" stroke-opacity="0.200000" points="818.89,-38.23 824.89,-36.13 818.89,-34.03 818.89,-38.23"/>
</g>
<!-- src/enrich/summarize/index.mjs -->
<g id="node14" class="node">
<title>src/enrich/summarize/index.mjs</title>
<g id="a_node14"><a xlink:href="src/enrich/summarize/index.mjs" xlink:title="index.mjs">
<path fill="#ffffcc" stroke="black" d="M756.33,-59.88C756.33,-59.88 713.17,-59.88 713.17,-59.88 710.21,-59.88 707.25,-56.92 707.25,-53.96 707.25,-53.96 707.25,-48.04 707.25,-48.04 707.25,-45.08 710.21,-42.12 713.17,-42.12 713.17,-42.12 756.33,-42.12 756.33,-42.12 759.29,-42.12 762.25,-45.08 762.25,-48.04 762.25,-48.04 762.25,-53.96 762.25,-53.96 762.25,-56.92 759.29,-59.88 756.33,-59.88"/>
<text text-anchor="start" x="715.25" y="-47.33" font-family="Helvetica,sans-Serif" font-size="9.00">index.mjs</text>
</a>
</g>
</g>
<!-- src/enrich/index.mjs&#45;&gt;src/enrich/summarize/index.mjs -->
<g id="edge10" class="edge">
<title>src/enrich/index.mjs&#45;&gt;src/enrich/summarize/index.mjs</title>
<path fill="none" stroke="#000000" stroke-width="2" stroke-opacity="0.200000" d="M650.93,-64.38C681.36,-64.38 725.88,-64.38 725.88,-64.38 725.88,-64.38 725.88,-63.95 725.88,-63.95"/>
<polygon fill="#000000" fill-opacity="0.200000" stroke="#000000" stroke-width="2" stroke-opacity="0.200000" points="727.98,-69.17 725.88,-63.17 723.78,-69.17 727.98,-69.17"/>
</g>
<!-- src/graph&#45;utl/compare.mjs -->
<g id="node15" class="node">
<title>src/graph&#45;utl/compare.mjs</title>
<g id="a_node15"><a xlink:href="src/graph-utl/compare.mjs" xlink:title="compare.mjs">
<path fill="#ffffcc" stroke="black" d="M888.33,-107.88C888.33,-107.88 831.67,-107.88 831.67,-107.88 828.71,-107.88 825.75,-104.92 825.75,-101.96 825.75,-101.96 825.75,-96.04 825.75,-96.04 825.75,-93.08 828.71,-90.12 831.67,-90.12 831.67,-90.12 888.33,-90.12 888.33,-90.12 891.29,-90.12 894.25,-93.08 894.25,-96.04 894.25,-96.04 894.25,-101.96 894.25,-101.96 894.25,-104.92 891.29,-107.88 888.33,-107.88"/>
<text text-anchor="start" x="833.75" y="-95.33" font-family="Helvetica,sans-Serif" font-size="9.00">compare.mjs</text>
</a>
</g>
</g>
<!-- src/enrich/summarize/index.mjs&#45;&gt;src/graph&#45;utl/compare.mjs -->
<g id="edge11" class="edge">
<title>src/enrich/summarize/index.mjs&#45;&gt;src/graph&#45;utl/compare.mjs</title>
<path fill="none" stroke="#000000" stroke-width="2" stroke-opacity="0.200000" d="M744.88,-60.11C744.88,-73.28 744.88,-96.04 744.88,-96.04 744.88,-96.04 816.43,-96.04 816.43,-96.04"/>
<polygon fill="#000000" fill-opacity="0.200000" stroke="#000000" stroke-width="2" stroke-opacity="0.200000" points="816.43,-98.14 822.43,-96.04 816.43,-93.94 816.43,-98.14"/>
</g>
<!-- src/extract/index.mjs&#45;&gt;src/utl/bus.mjs -->
<g id="edge12" class="edge">
<title>src/extract/index.mjs&#45;&gt;src/utl/bus.mjs</title>
<path fill="none" stroke="#000000" stroke-width="2" stroke-opacity="0.200000" d="M650.95,-617C715.48,-617 869.88,-617 869.88,-617 869.88,-617 869.88,-537.07 869.88,-537.07"/>
<polygon fill="#000000" fill-opacity="0.200000" stroke="#000000" stroke-width="2" stroke-opacity="0.200000" points="871.98,-537.07 869.88,-531.07 867.78,-537.07 871.98,-537.07"/>
</g>
<!-- src/graph&#45;utl/consolidate&#45;to&#45;pattern.mjs -->
<g id="node17" class="node">
<title>src/graph&#45;utl/consolidate&#45;to&#45;pattern.mjs</title>
<g id="a_node17"><a xlink:href="src/graph-utl/consolidate-to-pattern.mjs" xlink:title="consolidate&#45;to&#45;pattern.mjs">
<path fill="#ffffcc" stroke="black" d="M914.96,-77.88C914.96,-77.88 805.04,-77.88 805.04,-77.88 802.08,-77.88 799.12,-74.92 799.12,-71.96 799.12,-71.96 799.12,-66.04 799.12,-66.04 799.12,-63.08 802.08,-60.12 805.04,-60.12 805.04,-60.12 914.96,-60.12 914.96,-60.12 917.92,-60.12 920.88,-63.08 920.88,-66.04 920.88,-66.04 920.88,-71.96 920.88,-71.96 920.88,-74.92 917.92,-77.88 914.96,-77.88"/>
<text text-anchor="start" x="807.12" y="-65.33" font-family="Helvetica,sans-Serif" font-size="9.00">consolidate&#45;to&#45;pattern.mjs</text>
</a>
</g>
</g>
<!-- src/graph&#45;utl/filter&#45;bank.mjs -->
<g id="node18" class="node">
<title>src/graph&#45;utl/filter&#45;bank.mjs</title>
<g id="a_node18"><a xlink:href="src/graph-utl/filter-bank.mjs" xlink:title="filter&#45;bank.mjs">
<path fill="#ffffcc" stroke="black" d="M890.58,-137.88C890.58,-137.88 829.42,-137.88 829.42,-137.88 826.46,-137.88 823.5,-134.92 823.5,-131.96 823.5,-131.96 823.5,-126.04 823.5,-126.04 823.5,-123.08 826.46,-120.12 829.42,-120.12 829.42,-120.12 890.58,-120.12 890.58,-120.12 893.54,-120.12 896.5,-123.08 896.5,-126.04 896.5,-126.04 896.5,-131.96 896.5,-131.96 896.5,-134.92 893.54,-137.88 890.58,-137.88"/>
<text text-anchor="start" x="831.5" y="-125.33" font-family="Helvetica,sans-Serif" font-size="9.00">filter&#45;bank.mjs</text>
</a>
</g>
</g>
<!-- src/graph&#45;utl/strip&#45;self&#45;transitions.mjs -->
<g id="node20" class="node">
<title>src/graph&#45;utl/strip&#45;self&#45;transitions.mjs</title>
<g id="a_node20"><a xlink:href="src/graph-utl/strip-self-transitions.mjs" xlink:title="strip&#45;self&#45;transitions.mjs">
<path fill="#ffffcc" stroke="black" d="M910.08,-167.88C910.08,-167.88 809.92,-167.88 809.92,-167.88 806.96,-167.88 804,-164.92 804,-161.96 804,-161.96 804,-156.04 804,-156.04 804,-153.08 806.96,-150.12 809.92,-150.12 809.92,-150.12 910.08,-150.12 910.08,-150.12 913.04,-150.12 916,-153.08 916,-156.04 916,-156.04 916,-161.96 916,-161.96 916,-164.92 913.04,-167.88 910.08,-167.88"/>
<text text-anchor="start" x="812" y="-155.32" font-family="Helvetica,sans-Serif" font-size="9.00">strip&#45;self&#45;transitions.mjs</text>
</a>
</g>
</g>
<!-- src/report/index.mjs -->
<g id="node30" class="node">
<title>src/report/index.mjs</title>
<g id="a_node30"><a xlink:href="src/report/index.mjs" xlink:title="index.mjs">
<path fill="#ffffcc" stroke="black" d="M756.33,-183.88C756.33,-183.88 713.17,-183.88 713.17,-183.88 710.21,-183.88 707.25,-180.92 707.25,-177.96 707.25,-177.96 707.25,-172.04 707.25,-172.04 707.25,-169.08 710.21,-166.12 713.17,-166.12 713.17,-166.12 756.33,-166.12 756.33,-166.12 759.29,-166.12 762.25,-169.08 762.25,-172.04 762.25,-172.04 762.25,-177.96 762.25,-177.96 762.25,-180.92 759.29,-183.88 756.33,-183.88"/>
<text text-anchor="start" x="715.25" y="-171.32" font-family="Helvetica,sans-Serif" font-size="9.00">index.mjs</text>
</a>
</g>
</g>
<!-- src/main/options/assert&#45;validity.mjs&#45;&gt;src/report/index.mjs -->
<g id="edge32" class="edge">
<title>src/main/options/assert&#45;validity.mjs&#45;&gt;src/report/index.mjs</title>
<path fill="none" stroke="#000000" stroke-width="2" stroke-opacity="0.200000" d="M667.77,-323C702.52,-323 744.88,-323 744.88,-323 744.88,-323 744.88,-193.29 744.88,-193.29"/>
<polygon fill="#000000" fill-opacity="0.200000" stroke="#000000" stroke-width="2" stroke-opacity="0.200000" points="746.98,-193.29 744.88,-187.29 742.78,-193.29 746.98,-193.29"/>
</g>
<!-- src/main/helpers.mjs -->
<g id="node28" class="node">
<title>src/main/helpers.mjs</title>
<g id="a_node28"><a xlink:href="src/main/helpers.mjs" xlink:title="helpers.mjs">
<path fill="#ffffcc" stroke="black" d="M760.46,-441.88C760.46,-441.88 709.04,-441.88 709.04,-441.88 706.08,-441.88 703.12,-438.92 703.12,-435.96 703.12,-435.96 703.12,-430.04 703.12,-430.04 703.12,-427.08 706.08,-424.12 709.04,-424.12 709.04,-424.12 760.46,-424.12 760.46,-424.12 763.42,-424.12 766.38,-427.08 766.38,-430.04 766.38,-430.04 766.38,-435.96 766.38,-435.96 766.38,-438.92 763.42,-441.88 760.46,-441.88"/>
<text text-anchor="start" x="711.12" y="-429.32" font-family="Helvetica,sans-Serif" font-size="9.00">helpers.mjs</text>
</a>
</g>
</g>
<!-- src/main/options/normalize.mjs&#45;&gt;src/main/helpers.mjs -->
<g id="edge33" class="edge">
<title>src/main/options/normalize.mjs&#45;&gt;src/main/helpers.mjs</title>
<path fill="none" stroke="#000000" stroke-width="2" stroke-opacity="0.200000" d="M656.88,-362.37C656.88,-382.76 656.88,-429.38 656.88,-429.38 656.88,-429.38 693.6,-429.38 693.6,-429.38"/>
<polygon fill="#000000" fill-opacity="0.200000" stroke="#000000" stroke-width="2" stroke-opacity="0.200000" points="693.6,-431.48 699.6,-429.38 693.6,-427.28 693.6,-431.48"/>
</g>
<!-- src/main/options/defaults.mjs -->
<g id="node31" class="node">
<title>src/main/options/defaults.mjs</title>
<g id="a_node31"><a xlink:href="src/main/options/defaults.mjs" xlink:title="defaults.mjs">
<path fill="#ffffcc" stroke="black" d="M761.21,-361.88C761.21,-361.88 708.29,-361.88 708.29,-361.88 705.33,-361.88 702.38,-358.92 702.38,-355.96 702.38,-355.96 702.38,-350.04 702.38,-350.04 702.38,-347.08 705.33,-344.12 708.29,-344.12 708.29,-344.12 761.21,-344.12 761.21,-344.12 764.17,-344.12 767.12,-347.08 767.12,-350.04 767.12,-350.04 767.12,-355.96 767.12,-355.96 767.12,-358.92 764.17,-361.88 761.21,-361.88"/>
<text text-anchor="start" x="710.38" y="-349.32" font-family="Helvetica,sans-Serif" font-size="9.00">defaults.mjs</text>
</a>
</g>
</g>
<!-- src/main/options/normalize.mjs&#45;&gt;src/main/options/defaults.mjs -->
<g id="edge34" class="edge">
<title>src/main/options/normalize.mjs&#45;&gt;src/main/options/defaults.mjs</title>
<path fill="none" stroke="#000000" stroke-width="2" stroke-opacity="0.200000" d="M659.98,-353C659.98,-353 693.03,-353 693.03,-353"/>
<polygon fill="#000000" fill-opacity="0.200000" stroke="#000000" stroke-width="2" stroke-opacity="0.200000" points="693.03,-355.1 699.03,-353 693.03,-350.9 693.03,-355.1"/>
</g>
<!-- src/utl/array&#45;util.mjs -->
<g id="node32" class="node">
<title>src/utl/array&#45;util.mjs</title>
<g id="a_node32"><a xlink:href="src/utl/array-util.mjs" xlink:title="array&#45;util.mjs">
<path fill="#ffffcc" stroke="black" d="M888.33,-467.88C888.33,-467.88 831.67,-467.88 831.67,-467.88 828.71,-467.88 825.75,-464.92 825.75,-461.96 825.75,-461.96 825.75,-456.04 825.75,-456.04 825.75,-453.08 828.71,-450.12 831.67,-450.12 831.67,-450.12 888.33,-450.12 888.33,-450.12 891.29,-450.12 894.25,-453.08 894.25,-456.04 894.25,-456.04 894.25,-461.96 894.25,-461.96 894.25,-464.92 891.29,-467.88 888.33,-467.88"/>
<text text-anchor="start" x="833.75" y="-455.32" font-family="Helvetica,sans-Serif" font-size="9.00">array&#45;util.mjs</text>
</a>
</g>
</g>
<!-- src/main/options/normalize.mjs&#45;&gt;src/utl/array&#45;util.mjs -->
<g id="edge35" class="edge">
<title>src/main/options/normalize.mjs&#45;&gt;src/utl/array&#45;util.mjs</title>
<path fill="none" stroke="#000000" stroke-width="2" stroke-opacity="0.200000" d="M653.88,-362.26C653.88,-387.81 653.88,-457.38 653.88,-457.38 653.88,-457.38 816.47,-457.38 816.47,-457.38"/>
<polygon fill="#000000" fill-opacity="0.200000" stroke="#000000" stroke-width="2" stroke-opacity="0.200000" points="816.47,-459.48 822.47,-457.38 816.47,-455.28 816.47,-459.48"/>
</g>
<!-- src/main/report&#45;wrap.mjs&#45;&gt;src/enrich/summarize/index.mjs -->
<g id="edge36" class="edge">
<title>src/main/report&#45;wrap.mjs&#45;&gt;src/enrich/summarize/index.mjs</title>
<path fill="none" stroke="#000000" stroke-width="2" stroke-opacity="0.200000" d="M663.27,-228.66C676.96,-228.66 688.88,-228.66 688.88,-228.66 688.88,-228.66 688.88,-48.62 688.88,-48.62 688.88,-48.62 697.98,-48.62 697.98,-48.62"/>
<polygon fill="#000000" fill-opacity="0.200000" stroke="#000000" stroke-width="2" stroke-opacity="0.200000" points="697.98,-50.73 703.98,-48.63 697.98,-46.53 697.98,-50.73"/>
</g>
<!-- src/main/report&#45;wrap.mjs&#45;&gt;src/graph&#45;utl/compare.mjs -->
<g id="edge37" class="edge">
<title>src/main/report&#45;wrap.mjs&#45;&gt;src/graph&#45;utl/compare.mjs</title>
<path fill="none" stroke="#000000" stroke-width="2" stroke-opacity="0.200000" d="M663.27,-238.8C710.89,-238.8 783.88,-238.8 783.88,-238.8 783.88,-238.8 783.88,-101.96 783.88,-101.96 783.88,-101.96 816.47,-101.96 816.47,-101.96"/>
<polygon fill="#000000" fill-opacity="0.200000" stroke="#000000" stroke-width="2" stroke-opacity="0.200000" points="816.47,-104.06 822.47,-101.96 816.47,-99.86 816.47,-104.06"/>
</g>
<!-- src/main/report&#45;wrap.mjs&#45;&gt;src/graph&#45;utl/consolidate&#45;to&#45;pattern.mjs -->
<g id="edge38" class="edge">
<title>src/main/report&#45;wrap.mjs&#45;&gt;src/graph&#45;utl/consolidate&#45;to&#45;pattern.mjs</title>
<path fill="none" stroke="#000000" stroke-width="2" stroke-opacity="0.200000" d="M663.29,-231.2C678.8,-231.2 692.88,-231.2 692.88,-231.2 692.88,-231.2 692.88,-68.62 692.88,-68.62 692.88,-68.62 789.69,-68.62 789.69,-68.62"/>
<polygon fill="#000000" fill-opacity="0.200000" stroke="#000000" stroke-width="2" stroke-opacity="0.200000" points="789.69,-70.73 795.69,-68.63 789.69,-66.53 789.69,-70.73"/>
</g>
<!-- src/main/report&#45;wrap.mjs&#45;&gt;src/graph&#45;utl/filter&#45;bank.mjs -->
<g id="edge39" class="edge">
<title>src/main/report&#45;wrap.mjs&#45;&gt;src/graph&#45;utl/filter&#45;bank.mjs</title>
<path fill="none" stroke="#000000" stroke-width="2" stroke-opacity="0.200000" d="M663.13,-233.73C680.9,-233.73 697.88,-233.73 697.88,-233.73 697.88,-233.73 697.88,-128.12 697.88,-128.12 697.88,-128.12 814.18,-128.12 814.18,-128.12"/>
<polygon fill="#000000" fill-opacity="0.200000" stroke="#000000" stroke-width="2" stroke-opacity="0.200000" points="814.18,-130.23 820.18,-128.13 814.18,-126.03 814.18,-130.23"/>
</g>
<!-- src/main/report&#45;wrap.mjs&#45;&gt;src/graph&#45;utl/strip&#45;self&#45;transitions.mjs -->
<g id="edge40" class="edge">
<title>src/main/report&#45;wrap.mjs&#45;&gt;src/graph&#45;utl/strip&#45;self&#45;transitions.mjs</title>
<path fill="none" stroke="#000000" stroke-width="2" stroke-opacity="0.200000" d="M663.32,-241.34C719.55,-241.34 814.88,-241.34 814.88,-241.34 814.88,-241.34 814.88,-177.15 814.88,-177.15"/>
<polygon fill="#000000" fill-opacity="0.200000" stroke="#000000" stroke-width="2" stroke-opacity="0.200000" points="816.98,-177.15 814.88,-171.15 812.78,-177.15 816.98,-177.15"/>
</g>
<!-- src/main/report&#45;wrap.mjs&#45;&gt;src/report/index.mjs -->
<g id="edge41" class="edge">
<title>src/main/report&#45;wrap.mjs&#45;&gt;src/report/index.mjs</title>
<path fill="none" stroke="#000000" stroke-width="2" stroke-opacity="0.200000" d="M663.44,-236.27C692.23,-236.27 725.88,-236.27 725.88,-236.27 725.88,-236.27 725.88,-193.33 725.88,-193.33"/>
<polygon fill="#000000" fill-opacity="0.200000" stroke="#000000" stroke-width="2" stroke-opacity="0.200000" points="727.98,-193.33 725.88,-187.33 723.78,-193.33 727.98,-193.33"/>
</g>
<!-- src/main/rule&#45;set/assert&#45;validity.mjs&#45;&gt;src/utl/object&#45;util.mjs -->
<g id="edge47" class="edge">
<title>src/main/rule&#45;set/assert&#45;validity.mjs&#45;&gt;src/utl/object&#45;util.mjs</title>
<path fill="none" stroke="#000000" stroke-width="2" stroke-opacity="0.200000" d="M535.88,-440.32C535.88,-456.71 535.88,-489 535.88,-489 535.88,-489 814.42,-489 814.42,-489"/>
<polygon fill="#000000" fill-opacity="0.200000" stroke="#000000" stroke-width="2" stroke-opacity="0.200000" points="814.42,-491.1 820.42,-489 814.42,-486.9 814.42,-491.1"/>
</g>
<!-- src/main/rule&#45;set/assert&#45;validity.mjs&#45;&gt;src/main/options/assert&#45;validity.mjs -->
<g id="edge45" class="edge">
<title>src/main/rule&#45;set/assert&#45;validity.mjs&#45;&gt;src/main/options/assert&#45;validity.mjs</title>
<path fill="none" stroke="#000000" stroke-width="2" stroke-opacity="0.200000" d="M536.88,-421.68C536.88,-395.97 536.88,-325.96 536.88,-325.96 536.88,-325.96 569.46,-325.96 569.46,-325.96"/>
<polygon fill="#000000" fill-opacity="0.200000" stroke="#000000" stroke-width="2" stroke-opacity="0.200000" points="569.46,-328.06 575.46,-325.96 569.46,-323.86 569.46,-328.06"/>
</g>
<!-- src/main/rule&#45;set/assert&#45;validity.mjs&#45;&gt;src/main/helpers.mjs -->
<g id="edge44" class="edge">
<title>src/main/rule&#45;set/assert&#45;validity.mjs&#45;&gt;src/main/helpers.mjs</title>
<path fill="none" stroke="#000000" stroke-width="2" stroke-opacity="0.200000" d="M539.23,-434.62C539.23,-434.62 693.64,-434.62 693.64,-434.62"/>
<polygon fill="#000000" fill-opacity="0.200000" stroke="#000000" stroke-width="2" stroke-opacity="0.200000" points="693.64,-436.73 699.64,-434.63 693.64,-432.53 693.64,-436.73"/>
</g>
<!-- src/schema/configuration.schema.mjs -->
<g id="node33" class="node">
<title>src/schema/configuration.schema.mjs</title>
<g id="a_node33"><a xlink:href="src/schema/configuration.schema.mjs" xlink:title="configuration.schema.mjs">
<path fill="#ffffcc" stroke="black" d="M677.33,-183.88C677.33,-183.88 568.92,-183.88 568.92,-183.88 565.96,-183.88 563,-180.92 563,-177.96 563,-177.96 563,-172.04 563,-172.04 563,-169.08 565.96,-166.12 568.92,-166.12 568.92,-166.12 677.33,-166.12 677.33,-166.12 680.29,-166.12 683.25,-169.08 683.25,-172.04 683.25,-172.04 683.25,-177.96 683.25,-177.96 683.25,-180.92 680.29,-183.88 677.33,-183.88"/>
<text text-anchor="start" x="571" y="-171.32" font-family="Helvetica,sans-Serif" font-size="9.00">configuration.schema.mjs</text>
</a>
</g>
</g>
<!-- src/main/rule&#45;set/assert&#45;validity.mjs&#45;&gt;src/schema/configuration.schema.mjs -->
<g id="edge46" class="edge">
<title>src/main/rule&#45;set/assert&#45;validity.mjs&#45;&gt;src/schema/configuration.schema.mjs</title>
<path fill="none" stroke="#000000" stroke-width="2" stroke-opacity="0.200000" d="M533.88,-421.89C533.88,-376.29 533.88,-175 533.88,-175 533.88,-175 553.58,-175 553.58,-175"/>
<polygon fill="#000000" fill-opacity="0.200000" stroke="#000000" stroke-width="2" stroke-opacity="0.200000" points="553.58,-177.1 559.58,-175 553.58,-172.9 553.58,-177.1"/>
</g>
<!-- src/main/rule&#45;set/normalize.mjs&#45;&gt;src/main/helpers.mjs -->
<g id="edge48" class="edge">
<title>src/main/rule&#45;set/normalize.mjs&#45;&gt;src/main/helpers.mjs</title>
<path fill="none" stroke="#000000" stroke-width="2" stroke-opacity="0.200000" d="M531.62,-462.62C596.7,-462.62 724.88,-462.62 724.88,-462.62 724.88,-462.62 724.88,-451.4 724.88,-451.4"/>
<polygon fill="#000000" fill-opacity="0.200000" stroke="#000000" stroke-width="2" stroke-opacity="0.200000" points="726.98,-451.4 724.88,-445.4 722.78,-451.4 726.98,-451.4"/>
</g>
<!-- src/main/helpers.mjs&#45;&gt;src/utl/object&#45;util.mjs -->
<g id="edge28" class="edge">
<title>src/main/helpers.mjs&#45;&gt;src/utl/object&#45;util.mjs</title>
<path fill="none" stroke="#000000" stroke-width="2" stroke-opacity="0.200000" d="M745.88,-441.98C745.88,-456.75 745.88,-484.56 745.88,-484.56 745.88,-484.56 814.55,-484.56 814.55,-484.56"/>
<polygon fill="#000000" fill-opacity="0.200000" stroke="#000000" stroke-width="2" stroke-opacity="0.200000" points="814.55,-486.66 820.55,-484.56 814.55,-482.46 814.55,-486.66"/>
</g>
<!-- src/main/index.d.ts -->
<g id="node29" class="node">
<title>src/main/index.d.ts</title>
<g id="a_node29"><a xlink:href="src/main/index.d.ts" xlink:title="index.d.ts">
<path fill="#ccffcc" stroke="black" d="M267.33,-478.88C267.33,-478.88 224.17,-478.88 224.17,-478.88 221.21,-478.88 218.25,-475.92 218.25,-472.96 218.25,-472.96 218.25,-467.04 218.25,-467.04 218.25,-464.08 221.21,-461.12 224.17,-461.12 224.17,-461.12 267.33,-461.12 267.33,-461.12 270.29,-461.12 273.25,-464.08 273.25,-467.04 273.25,-467.04 273.25,-472.96 273.25,-472.96 273.25,-475.92 270.29,-478.88 267.33,-478.88"/>
<text text-anchor="start" x="226.25" y="-466.32" font-family="Helvetica,sans-Serif" font-size="9.00">index.d.ts</text>
</a>
</g>
</g>
</g>
</svg>
