<?xml version="1.0" encoding="UTF-8" standalone="no"?>
<!DOCTYPE svg PUBLIC "-//W3C//DTD SVG 1.1//EN"
 "http://www.w3.org/Graphics/SVG/1.1/DTD/svg11.dtd">
<!-- Generated by graphviz version 3.0.0 (20220226.1711)
 -->
<!-- Title: dependency&#45;cruiser output Pages: 1 -->
<svg width="790pt" height="818pt"
 viewBox="0.00 0.00 790.00 818.00" xmlns="http://www.w3.org/2000/svg" xmlns:xlink="http://www.w3.org/1999/xlink">
<g id="graph0" class="graph" transform="scale(1 1) rotate(0) translate(4 814)">
<title>dependency&#45;cruiser output</title>
<polygon fill="white" stroke="transparent" points="-4,4 -4,-814 786,-814 786,4 -4,4"/>
<g id="clust1" class="cluster">
<title>cluster_src</title>
<path fill="#ffffff" stroke="black" stroke-width="2" d="M20,-8C20,-8 762,-8 762,-8 768,-8 774,-14 774,-20 774,-20 774,-790 774,-790 774,-796 768,-802 762,-802 762,-802 20,-802 20,-802 14,-802 8,-796 8,-790 8,-790 8,-20 8,-20 8,-14 14,-8 20,-8"/>
<text text-anchor="middle" x="391" y="-790.8" font-family="Helvetica,sans-Serif" font-weight="bold" font-size="9.00">src</text>
</g>
<g id="clust2" class="cluster">
<title>cluster_src/cache</title>
<path fill="#ffffff" stroke="black" stroke-width="2" d="M382,-550C382,-550 453,-550 453,-550 459,-550 465,-556 465,-562 465,-562 465,-590 465,-590 465,-596 459,-602 453,-602 453,-602 382,-602 382,-602 376,-602 370,-596 370,-590 370,-590 370,-562 370,-562 370,-556 376,-550 382,-550"/>
<text text-anchor="middle" x="417.5" y="-590.8" font-family="Helvetica,sans-Serif" font-weight="bold" font-size="9.00">cache</text>
</g>
<g id="clust3" class="cluster">
<title>cluster_src/cli</title>
<path fill="#ffffff" stroke="black" stroke-width="2" d="M28,-448C28,-448 179,-448 179,-448 185,-448 191,-454 191,-460 191,-460 191,-518 191,-518 191,-524 185,-530 179,-530 179,-530 28,-530 28,-530 22,-530 16,-524 16,-518 16,-518 16,-460 16,-460 16,-454 22,-448 28,-448"/>
<text text-anchor="middle" x="103.5" y="-518.8" font-family="Helvetica,sans-Serif" font-weight="bold" font-size="9.00">cli</text>
</g>
<g id="clust4" class="cluster">
<title>cluster_src/config&#45;utl</title>
<path fill="#ffffff" stroke="black" stroke-width="2" d="M219,-162C219,-162 333,-162 333,-162 339,-162 345,-168 345,-174 345,-174 345,-236 345,-236 345,-242 339,-248 333,-248 333,-248 219,-248 219,-248 213,-248 207,-242 207,-236 207,-236 207,-174 207,-174 207,-168 213,-162 219,-162"/>
<text text-anchor="middle" x="276" y="-236.8" font-family="Helvetica,sans-Serif" font-weight="bold" font-size="9.00">config&#45;utl</text>
</g>
<g id="clust5" class="cluster">
<title>cluster_src/config&#45;utl/extract&#45;depcruise&#45;config</title>
<path fill="#ffffff" stroke="black" stroke-width="2" d="M227,-170C227,-170 325,-170 325,-170 331,-170 337,-176 337,-182 337,-182 337,-210 337,-210 337,-216 331,-222 325,-222 325,-222 227,-222 227,-222 221,-222 215,-216 215,-210 215,-210 215,-182 215,-182 215,-176 221,-170 227,-170"/>
<text text-anchor="middle" x="276" y="-210.8" font-family="Helvetica,sans-Serif" font-weight="bold" font-size="9.00">extract&#45;depcruise&#45;config</text>
</g>
<g id="clust6" class="cluster">
<title>cluster_src/enrich</title>
<path fill="#ffffff" stroke="black" stroke-width="2" d="M394.5,-108C394.5,-108 578.5,-108 578.5,-108 584.5,-108 590.5,-114 590.5,-120 590.5,-120 590.5,-182 590.5,-182 590.5,-188 584.5,-194 578.5,-194 578.5,-194 394.5,-194 394.5,-194 388.5,-194 382.5,-188 382.5,-182 382.5,-182 382.5,-120 382.5,-120 382.5,-114 388.5,-108 394.5,-108"/>
<text text-anchor="middle" x="486.5" y="-182.8" font-family="Helvetica,sans-Serif" font-weight="bold" font-size="9.00">enrich</text>
</g>
<g id="clust7" class="cluster">
<title>cluster_src/enrich/summarize</title>
<path fill="#ffffff" stroke="black" stroke-width="2" d="M524.5,-116C524.5,-116 570.5,-116 570.5,-116 576.5,-116 582.5,-122 582.5,-128 582.5,-128 582.5,-156 582.5,-156 582.5,-162 576.5,-168 570.5,-168 570.5,-168 524.5,-168 524.5,-168 518.5,-168 512.5,-162 512.5,-156 512.5,-156 512.5,-128 512.5,-128 512.5,-122 518.5,-116 524.5,-116"/>
<text text-anchor="middle" x="547.5" y="-156.8" font-family="Helvetica,sans-Serif" font-weight="bold" font-size="9.00">summarize</text>
</g>
<g id="clust8" class="cluster">
<title>cluster_src/extract</title>
<path fill="#ffffff" stroke="black" stroke-width="2" d="M516.5,-640C516.5,-640 578.5,-640 578.5,-640 584.5,-640 590.5,-646 590.5,-652 590.5,-652 590.5,-740 590.5,-740 590.5,-746 584.5,-752 578.5,-752 578.5,-752 516.5,-752 516.5,-752 510.5,-752 504.5,-746 504.5,-740 504.5,-740 504.5,-652 504.5,-652 504.5,-646 510.5,-640 516.5,-640"/>
<text text-anchor="middle" x="547.5" y="-740.8" font-family="Helvetica,sans-Serif" font-weight="bold" font-size="9.00">extract</text>
</g>
<g id="clust9" class="cluster">
<title>cluster_src/extract/transpile</title>
<path fill="#ffffff" stroke="black" stroke-width="2" d="M524.5,-674C524.5,-674 570.5,-674 570.5,-674 576.5,-674 582.5,-680 582.5,-686 582.5,-686 582.5,-714 582.5,-714 582.5,-720 576.5,-726 570.5,-726 570.5,-726 524.5,-726 524.5,-726 518.5,-726 512.5,-720 512.5,-714 512.5,-714 512.5,-686 512.5,-686 512.5,-680 518.5,-674 524.5,-674"/>
<text text-anchor="middle" x="547.5" y="-714.8" font-family="Helvetica,sans-Serif" font-weight="bold" font-size="9.00">transpile</text>
</g>
<g id="clust10" class="cluster">
<title>cluster_src/graph&#45;utl</title>
<path fill="#ffffff" stroke="black" stroke-width="2" d="M635.5,-16C635.5,-16 742.5,-16 742.5,-16 748.5,-16 754.5,-22 754.5,-28 754.5,-28 754.5,-176 754.5,-176 754.5,-182 748.5,-188 742.5,-188 742.5,-188 635.5,-188 635.5,-188 629.5,-188 623.5,-182 623.5,-176 623.5,-176 623.5,-28 623.5,-28 623.5,-22 629.5,-16 635.5,-16"/>
<text text-anchor="middle" x="689" y="-176.8" font-family="Helvetica,sans-Serif" font-weight="bold" font-size="9.00">graph&#45;utl</text>
</g>
<g id="clust11" class="cluster">
<title>cluster_src/main</title>
<path fill="#ffffff" stroke="black" stroke-width="2" d="M253,-256C253,-256 754,-256 754,-256 760,-256 766,-262 766,-268 766,-268 766,-530 766,-530 766,-536 760,-542 754,-542 754,-542 253,-542 253,-542 247,-542 241,-536 241,-530 241,-530 241,-268 241,-268 241,-262 247,-256 253,-256"/>
<text text-anchor="middle" x="503.5" y="-530.8" font-family="Helvetica,sans-Serif" font-weight="bold" font-size="9.00">main</text>
</g>
<g id="clust12" class="cluster">
<title>cluster_src/main/files&#45;and&#45;dirs</title>
<path fill="#ffffff" stroke="black" stroke-width="2" d="M388.5,-374C388.5,-374 446.5,-374 446.5,-374 452.5,-374 458.5,-380 458.5,-386 458.5,-386 458.5,-414 458.5,-414 458.5,-420 452.5,-426 446.5,-426 446.5,-426 388.5,-426 388.5,-426 382.5,-426 376.5,-420 376.5,-414 376.5,-414 376.5,-386 376.5,-386 376.5,-380 382.5,-374 388.5,-374"/>
<text text-anchor="middle" x="417.5" y="-414.8" font-family="Helvetica,sans-Serif" font-weight="bold" font-size="9.00">files&#45;and&#45;dirs</text>
</g>
<g id="clust13" class="cluster">
<title>cluster_src/main/options</title>
<path fill="#ffffff" stroke="black" stroke-width="2" d="M518.5,-334C518.5,-334 714,-334 714,-334 720,-334 726,-340 726,-346 726,-346 726,-404 726,-404 726,-410 720,-416 714,-416 714,-416 518.5,-416 518.5,-416 512.5,-416 506.5,-410 506.5,-404 506.5,-404 506.5,-346 506.5,-346 506.5,-340 512.5,-334 518.5,-334"/>
<text text-anchor="middle" x="616.25" y="-404.8" font-family="Helvetica,sans-Serif" font-weight="bold" font-size="9.00">options</text>
</g>
<g id="clust14" class="cluster">
<title>cluster_src/main/resolve&#45;options</title>
<path fill="#ffffff" stroke="black" stroke-width="2" d="M388.5,-290C388.5,-290 447.5,-290 447.5,-290 453.5,-290 459.5,-296 459.5,-302 459.5,-302 459.5,-330 459.5,-330 459.5,-336 453.5,-342 447.5,-342 447.5,-342 388.5,-342 388.5,-342 382.5,-342 376.5,-336 376.5,-330 376.5,-330 376.5,-302 376.5,-302 376.5,-296 382.5,-290 388.5,-290"/>
<text text-anchor="middle" x="418" y="-330.8" font-family="Helvetica,sans-Serif" font-weight="bold" font-size="9.00">resolve&#45;options</text>
</g>
<g id="clust15" class="cluster">
<title>cluster_src/main/rule&#45;set</title>
<path fill="#ffffff" stroke="black" stroke-width="2" d="M388.5,-434C388.5,-434 446.5,-434 446.5,-434 452.5,-434 458.5,-440 458.5,-446 458.5,-446 458.5,-504 458.5,-504 458.5,-510 452.5,-516 446.5,-516 446.5,-516 388.5,-516 388.5,-516 382.5,-516 376.5,-510 376.5,-504 376.5,-504 376.5,-446 376.5,-446 376.5,-440 382.5,-434 388.5,-434"/>
<text text-anchor="middle" x="417.5" y="-504.8" font-family="Helvetica,sans-Serif" font-weight="bold" font-size="9.00">rule&#45;set</text>
</g>
<g id="clust16" class="cluster">
<title>cluster_src/main/utl</title>
<path fill="#ffffff" stroke="black" stroke-width="2" d="M632,-429C632,-429 746,-429 746,-429 752,-429 758,-435 758,-441 758,-441 758,-469 758,-469 758,-475 752,-481 746,-481 746,-481 632,-481 632,-481 626,-481 620,-475 620,-469 620,-469 620,-441 620,-441 620,-435 626,-429 632,-429"/>
<text text-anchor="middle" x="689" y="-469.8" font-family="Helvetica,sans-Serif" font-weight="bold" font-size="9.00">utl</text>
</g>
<g id="clust17" class="cluster">
<title>cluster_src/report</title>
<path fill="#ffffff" stroke="black" stroke-width="2" d="M666,-196C666,-196 712,-196 712,-196 718,-196 724,-202 724,-208 724,-208 724,-236 724,-236 724,-242 718,-248 712,-248 712,-248 666,-248 666,-248 660,-248 654,-242 654,-236 654,-236 654,-208 654,-208 654,-202 660,-196 666,-196"/>
<text text-anchor="middle" x="689" y="-236.8" font-family="Helvetica,sans-Serif" font-weight="bold" font-size="9.00">report</text>
</g>
<g id="clust18" class="cluster">
<title>cluster_src/schema</title>
<path fill="#ffffff" stroke="black" stroke-width="2" d="M495,-550C495,-550 600,-550 600,-550 606,-550 612,-556 612,-562 612,-562 612,-620 612,-620 612,-626 606,-632 600,-632 600,-632 495,-632 495,-632 489,-632 483,-626 483,-620 483,-620 483,-562 483,-562 483,-556 489,-550 495,-550"/>
<text text-anchor="middle" x="547.5" y="-620.8" font-family="Helvetica,sans-Serif" font-weight="bold" font-size="9.00">schema</text>
</g>
<g id="clust19" class="cluster">
<title>cluster_src/utl</title>
<path fill="#ffffff" stroke="black" stroke-width="2" d="M666,-724C666,-724 712,-724 712,-724 718,-724 724,-730 724,-736 724,-736 724,-764 724,-764 724,-770 718,-776 712,-776 712,-776 666,-776 666,-776 660,-776 654,-770 654,-764 654,-764 654,-736 654,-736 654,-730 660,-724 666,-724"/>
<text text-anchor="middle" x="689" y="-764.8" font-family="Helvetica,sans-Serif" font-weight="bold" font-size="9.00">utl</text>
</g>
<!-- src/cache/revision&#45;data.js -->
<g id="node1" class="node">
<title>src/cache/revision&#45;data.js</title>
<g id="a_node1"><a xlink:href="src/cache/revision-data.js" xlink:title="revision&#45;data.js">
<path fill="#ffffcc" stroke="black" d="M451,-576C451,-576 384,-576 384,-576 381,-576 378,-573 378,-570 378,-570 378,-564 378,-564 378,-561 381,-558 384,-558 384,-558 451,-558 451,-558 454,-558 457,-561 457,-564 457,-564 457,-570 457,-570 457,-573 454,-576 451,-576"/>
<text text-anchor="start" x="386" y="-564.8" font-family="Helvetica,sans-Serif" font-size="9.00">revision&#45;data.js</text>
</a>
</g>
</g>
<!-- src/cli/format&#45;meta&#45;info.js -->
<g id="node2" class="node">
<title>src/cli/format&#45;meta&#45;info.js</title>
<g id="a_node2"><a xlink:href="src/cli/format-meta-info.js" xlink:title="format&#45;meta&#45;info.js">
<path fill="#ffffcc" stroke="black" d="M177,-504C177,-504 97,-504 97,-504 94,-504 91,-501 91,-498 91,-498 91,-492 91,-492 91,-489 94,-486 97,-486 97,-486 177,-486 177,-486 180,-486 183,-489 183,-492 183,-492 183,-498 183,-498 183,-501 180,-504 177,-504"/>
<text text-anchor="start" x="99" y="-492.8" font-family="Helvetica,sans-Serif" font-size="9.00">format&#45;meta&#45;info.js</text>
</a>
</g>
</g>
<!-- src/main/index.js -->
<g id="node3" class="node">
<title>src/main/index.js</title>
<g id="a_node3"><a xlink:href="src/main/index.js" xlink:title="index.js">
<path fill="#ffffcc" stroke="black" d="M297,-475C297,-475 255,-475 255,-475 252,-475 249,-472 249,-469 249,-469 249,-463 249,-463 249,-460 252,-457 255,-457 255,-457 297,-457 297,-457 300,-457 303,-460 303,-463 303,-463 303,-469 303,-469 303,-472 300,-475 297,-475"/>
<text text-anchor="start" x="260" y="-463.8" font-family="Helvetica,sans-Serif" font-size="9.00">index.js</text>
</a>
</g>
</g>
<!-- src/cli/format&#45;meta&#45;info.js&#45;&gt;src/main/index.js -->
<g id="edge1" class="edge">
<title>src/cli/format&#45;meta&#45;info.js&#45;&gt;src/main/index.js</title>
<path fill="none" stroke="#000000" stroke-width="2" stroke-opacity="0.200000" d="M183.21,-497C219.88,-497 265,-497 265,-497 265,-497 265,-481.13 265,-481.13"/>
<polygon fill="#000000" fill-opacity="0.200000" stroke="#000000" stroke-width="2" stroke-opacity="0.200000" points="267.1,-481.13 265,-475.13 262.9,-481.13 267.1,-481.13"/>
</g>
<!-- src/main/index.js&#45;&gt;src/cache/revision&#45;data.js -->
<g id="edge10" class="edge">
<title>src/main/index.js&#45;&gt;src/cache/revision&#45;data.js</title>
<path fill="none" stroke="#000000" stroke-width="2" stroke-opacity="0.200000" d="M296,-475.32C296,-500.32 296,-567 296,-567 296,-567 371.72,-567 371.72,-567"/>
<polygon fill="#000000" fill-opacity="0.200000" stroke="#000000" stroke-width="2" stroke-opacity="0.200000" points="371.72,-569.1 377.72,-567 371.72,-564.9 371.72,-569.1"/>
</g>
<!-- src/utl/bus.js -->
<g id="node6" class="node">
<title>src/utl/bus.js</title>
<g id="a_node6"><a xlink:href="src/utl/bus.js" xlink:title="bus.js">
<path fill="#ffffcc" stroke="black" d="M710,-750C710,-750 668,-750 668,-750 665,-750 662,-747 662,-744 662,-744 662,-738 662,-738 662,-735 665,-732 668,-732 668,-732 710,-732 710,-732 713,-732 716,-735 716,-738 716,-738 716,-744 716,-744 716,-747 713,-750 710,-750"/>
<text text-anchor="start" x="676.5" y="-738.8" font-family="Helvetica,sans-Serif" font-size="9.00">bus.js</text>
</a>
</g>
</g>
<!-- src/main/index.js&#45;&gt;src/utl/bus.js -->
<g id="edge15" class="edge">
<title>src/main/index.js&#45;&gt;src/utl/bus.js</title>
<path fill="none" stroke="#000000" stroke-width="2" stroke-opacity="0.200000" d="M303.04,-468C396.18,-468 698,-468 698,-468 698,-468 698,-725.92 698,-725.92"/>
<polygon fill="#000000" fill-opacity="0.200000" stroke="#000000" stroke-width="2" stroke-opacity="0.200000" points="695.9,-725.92 698,-731.92 700.1,-725.92 695.9,-725.92"/>
</g>
<!-- src/main/resolve&#45;options/normalize.js -->
<g id="node8" class="node">
<title>src/main/resolve&#45;options/normalize.js</title>
<g id="a_node8"><a xlink:href="src/main/resolve-options/normalize.js" xlink:title="normalize.js">
<path fill="#ffffcc" stroke="black" d="M444.5,-316C444.5,-316 390.5,-316 390.5,-316 387.5,-316 384.5,-313 384.5,-310 384.5,-310 384.5,-304 384.5,-304 384.5,-301 387.5,-298 390.5,-298 390.5,-298 444.5,-298 444.5,-298 447.5,-298 450.5,-301 450.5,-304 450.5,-304 450.5,-310 450.5,-310 450.5,-313 447.5,-316 444.5,-316"/>
<text text-anchor="start" x="392.5" y="-304.8" font-family="Helvetica,sans-Serif" font-size="9.00">normalize.js</text>
</a>
</g>
</g>
<!-- src/main/index.js&#45;&gt;src/main/resolve&#45;options/normalize.js -->
<g id="edge20" class="edge">
<title>src/main/index.js&#45;&gt;src/main/resolve&#45;options/normalize.js</title>
<path fill="none" stroke="#000000" stroke-width="2" stroke-opacity="0.200000" d="M263,-456.71C263,-423.12 263,-310 263,-310 263,-310 378.36,-310 378.36,-310"/>
<polygon fill="#000000" fill-opacity="0.200000" stroke="#000000" stroke-width="2" stroke-opacity="0.200000" points="378.36,-312.1 384.36,-310 378.36,-307.9 378.36,-312.1"/>
</g>
<!-- src/enrich/index.js -->
<g id="node9" class="node">
<title>src/enrich/index.js</title>
<g id="a_node9"><a xlink:href="src/enrich/index.js" xlink:title="index.js">
<path fill="#ffffcc" stroke="black" d="M438.5,-155C438.5,-155 396.5,-155 396.5,-155 393.5,-155 390.5,-152 390.5,-149 390.5,-149 390.5,-143 390.5,-143 390.5,-140 393.5,-137 396.5,-137 396.5,-137 438.5,-137 438.5,-137 441.5,-137 444.5,-140 444.5,-143 444.5,-143 444.5,-149 444.5,-149 444.5,-152 441.5,-155 438.5,-155"/>
<text text-anchor="start" x="401.5" y="-143.8" font-family="Helvetica,sans-Serif" font-size="9.00">index.js</text>
</a>
</g>
</g>
<!-- src/main/index.js&#45;&gt;src/enrich/index.js -->
<g id="edge11" class="edge">
<title>src/main/index.js&#45;&gt;src/enrich/index.js</title>
<path fill="none" stroke="#000000" stroke-width="2" stroke-opacity="0.200000" d="M303.19,-464C321,-464 341,-464 341,-464 341,-464 341,-146 341,-146 341,-146 384.31,-146 384.31,-146"/>
<polygon fill="#000000" fill-opacity="0.200000" stroke="#000000" stroke-width="2" stroke-opacity="0.200000" points="384.31,-148.1 390.31,-146 384.31,-143.9 384.31,-148.1"/>
</g>
<!-- src/extract/index.js -->
<g id="node12" class="node">
<title>src/extract/index.js</title>
<g id="a_node12"><a xlink:href="src/extract/index.js" xlink:title="index.js">
<path fill="#ffffcc" stroke="black" d="M568.5,-666C568.5,-666 526.5,-666 526.5,-666 523.5,-666 520.5,-663 520.5,-660 520.5,-660 520.5,-654 520.5,-654 520.5,-651 523.5,-648 526.5,-648 526.5,-648 568.5,-648 568.5,-648 571.5,-648 574.5,-651 574.5,-654 574.5,-654 574.5,-660 574.5,-660 574.5,-663 571.5,-666 568.5,-666"/>
<text text-anchor="start" x="531.5" y="-654.8" font-family="Helvetica,sans-Serif" font-size="9.00">index.js</text>
</a>
</g>
</g>
<!-- src/main/index.js&#45;&gt;src/extract/index.js -->
<g id="edge12" class="edge">
<title>src/main/index.js&#45;&gt;src/extract/index.js</title>
<path fill="none" stroke="#000000" stroke-width="2" stroke-opacity="0.200000" d="M280,-475.21C280,-513.37 280,-657 280,-657 280,-657 514.38,-657 514.38,-657"/>
<polygon fill="#000000" fill-opacity="0.200000" stroke="#000000" stroke-width="2" stroke-opacity="0.200000" points="514.38,-659.1 520.38,-657 514.38,-654.9 514.38,-659.1"/>
</g>
<!-- src/extract/transpile/meta.js -->
<g id="node13" class="node">
<title>src/extract/transpile/meta.js</title>
<g id="a_node13"><a xlink:href="src/extract/transpile/meta.js" xlink:title="meta.js">
<path fill="#ffffcc" stroke="black" d="M568.5,-700C568.5,-700 526.5,-700 526.5,-700 523.5,-700 520.5,-697 520.5,-694 520.5,-694 520.5,-688 520.5,-688 520.5,-685 523.5,-682 526.5,-682 526.5,-682 568.5,-682 568.5,-682 571.5,-682 574.5,-685 574.5,-688 574.5,-688 574.5,-694 574.5,-694 574.5,-697 571.5,-700 568.5,-700"/>
<text text-anchor="start" x="532.5" y="-688.8" font-family="Helvetica,sans-Serif" font-size="9.00">meta.js</text>
</a>
</g>
</g>
<!-- src/main/index.js&#45;&gt;src/extract/transpile/meta.js -->
<g id="edge13" class="edge">
<title>src/main/index.js&#45;&gt;src/extract/transpile/meta.js</title>
<path fill="none" stroke="#000000" stroke-width="2" stroke-opacity="0.200000" d="M273,-475.22C273,-517.88 273,-694 273,-694 273,-694 514.18,-694 514.18,-694"/>
<polygon fill="#000000" fill-opacity="0.200000" stroke="#000000" stroke-width="2" stroke-opacity="0.200000" points="514.18,-696.1 520.18,-694 514.18,-691.9 514.18,-696.1"/>
</g>
<!-- src/main/files&#45;and&#45;dirs/normalize.js -->
<g id="node18" class="node">
<title>src/main/files&#45;and&#45;dirs/normalize.js</title>
<g id="a_node18"><a xlink:href="src/main/files-and-dirs/normalize.js" xlink:title="normalize.js">
<path fill="#ffffcc" stroke="black" d="M444.5,-400C444.5,-400 390.5,-400 390.5,-400 387.5,-400 384.5,-397 384.5,-394 384.5,-394 384.5,-388 384.5,-388 384.5,-385 387.5,-382 390.5,-382 390.5,-382 444.5,-382 444.5,-382 447.5,-382 450.5,-385 450.5,-388 450.5,-388 450.5,-394 450.5,-394 450.5,-397 447.5,-400 444.5,-400"/>
<text text-anchor="start" x="392.5" y="-388.8" font-family="Helvetica,sans-Serif" font-size="9.00">normalize.js</text>
</a>
</g>
</g>
<!-- src/main/index.js&#45;&gt;src/main/files&#45;and&#45;dirs/normalize.js -->
<g id="edge16" class="edge">
<title>src/main/index.js&#45;&gt;src/main/files&#45;and&#45;dirs/normalize.js</title>
<path fill="none" stroke="#000000" stroke-width="2" stroke-opacity="0.200000" d="M290,-456.8C290,-436.78 290,-391 290,-391 290,-391 378.33,-391 378.33,-391"/>
<polygon fill="#000000" fill-opacity="0.200000" stroke="#000000" stroke-width="2" stroke-opacity="0.200000" points="378.33,-393.1 384.33,-391 378.33,-388.9 378.33,-393.1"/>
</g>
<!-- src/schema/cruise&#45;result.schema.js -->
<g id="node19" class="node">
<title>src/schema/cruise&#45;result.schema.js</title>
<g id="a_node19"><a xlink:href="src/schema/cruise-result.schema.js" xlink:title="cruise&#45;result.schema.js">
<path fill="#ffffcc" stroke="black" d="M596.5,-606C596.5,-606 498.5,-606 498.5,-606 495.5,-606 492.5,-603 492.5,-600 492.5,-600 492.5,-594 492.5,-594 492.5,-591 495.5,-588 498.5,-588 498.5,-588 596.5,-588 596.5,-588 599.5,-588 602.5,-591 602.5,-594 602.5,-594 602.5,-600 602.5,-600 602.5,-603 599.5,-606 596.5,-606"/>
<text text-anchor="start" x="500.5" y="-594.8" font-family="Helvetica,sans-Serif" font-size="9.00">cruise&#45;result.schema.js</text>
</a>
</g>
</g>
<!-- src/main/index.js&#45;&gt;src/schema/cruise&#45;result.schema.js -->
<g id="edge14" class="edge">
<title>src/main/index.js&#45;&gt;src/schema/cruise&#45;result.schema.js</title>
<path fill="none" stroke="#000000" stroke-width="2" stroke-opacity="0.200000" d="M288,-475C288,-504.6 288,-597 288,-597 288,-597 486.47,-597 486.47,-597"/>
<polygon fill="#000000" fill-opacity="0.200000" stroke="#000000" stroke-width="2" stroke-opacity="0.200000" points="486.47,-599.1 492.47,-597 486.47,-594.9 486.47,-599.1"/>
</g>
<!-- src/main/options/normalize.js -->
<g id="node20" class="node">
<title>src/main/options/normalize.js</title>
<g id="a_node20"><a xlink:href="src/main/options/normalize.js" xlink:title="normalize.js">
<path fill="#ffffcc" stroke="black" d="M574.5,-390C574.5,-390 520.5,-390 520.5,-390 517.5,-390 514.5,-387 514.5,-384 514.5,-384 514.5,-378 514.5,-378 514.5,-375 517.5,-372 520.5,-372 520.5,-372 574.5,-372 574.5,-372 577.5,-372 580.5,-375 580.5,-378 580.5,-378 580.5,-384 580.5,-384 580.5,-387 577.5,-390 574.5,-390"/>
<text text-anchor="start" x="522.5" y="-378.8" font-family="Helvetica,sans-Serif" font-size="9.00">normalize.js</text>
</a>
</g>
</g>
<!-- src/main/index.js&#45;&gt;src/main/options/normalize.js -->
<g id="edge17" class="edge">
<title>src/main/index.js&#45;&gt;src/main/options/normalize.js</title>
<path fill="none" stroke="#000000" stroke-width="2" stroke-opacity="0.200000" d="M276,-456.81C276,-434.07 276,-377 276,-377 276,-377 508.48,-377 508.48,-377"/>
<polygon fill="#000000" fill-opacity="0.200000" stroke="#000000" stroke-width="2" stroke-opacity="0.200000" points="508.48,-379.1 514.48,-377 508.48,-374.9 508.48,-379.1"/>
</g>
<!-- src/main/options/validate.js -->
<g id="node21" class="node">
<title>src/main/options/validate.js</title>
<g id="a_node21"><a xlink:href="src/main/options/validate.js" xlink:title="validate.js">
<path fill="#ffffcc" stroke="black" d="M570.5,-360C570.5,-360 524.5,-360 524.5,-360 521.5,-360 518.5,-357 518.5,-354 518.5,-354 518.5,-348 518.5,-348 518.5,-345 521.5,-342 524.5,-342 524.5,-342 570.5,-342 570.5,-342 573.5,-342 576.5,-345 576.5,-348 576.5,-348 576.5,-354 576.5,-354 576.5,-357 573.5,-360 570.5,-360"/>
<text text-anchor="start" x="526.5" y="-348.8" font-family="Helvetica,sans-Serif" font-size="9.00">validate.js</text>
</a>
</g>
</g>
<!-- src/main/index.js&#45;&gt;src/main/options/validate.js -->
<g id="edge18" class="edge">
<title>src/main/index.js&#45;&gt;src/main/options/validate.js</title>
<path fill="none" stroke="#000000" stroke-width="2" stroke-opacity="0.200000" d="M270,-456.74C270,-428.92 270,-348 270,-348 270,-348 512.33,-348 512.33,-348"/>
<polygon fill="#000000" fill-opacity="0.200000" stroke="#000000" stroke-width="2" stroke-opacity="0.200000" points="512.33,-350.1 518.33,-348 512.33,-345.9 512.33,-350.1"/>
</g>
<!-- src/main/report&#45;wrap.js -->
<g id="node22" class="node">
<title>src/main/report&#45;wrap.js</title>
<g id="a_node22"><a xlink:href="src/main/report-wrap.js" xlink:title="report&#45;wrap.js">
<path fill="#ffffcc" stroke="black" d="M448,-282C448,-282 387,-282 387,-282 384,-282 381,-279 381,-276 381,-276 381,-270 381,-270 381,-267 384,-264 387,-264 387,-264 448,-264 448,-264 451,-264 454,-267 454,-270 454,-270 454,-276 454,-276 454,-279 451,-282 448,-282"/>
<text text-anchor="start" x="389" y="-270.8" font-family="Helvetica,sans-Serif" font-size="9.00">report&#45;wrap.js</text>
</a>
</g>
</g>
<!-- src/main/index.js&#45;&gt;src/main/report&#45;wrap.js -->
<g id="edge19" class="edge">
<title>src/main/index.js&#45;&gt;src/main/report&#45;wrap.js</title>
<path fill="none" stroke="#000000" stroke-width="2" stroke-opacity="0.200000" d="M256,-456.95C256,-418.79 256,-273 256,-273 256,-273 374.85,-273 374.85,-273"/>
<polygon fill="#000000" fill-opacity="0.200000" stroke="#000000" stroke-width="2" stroke-opacity="0.200000" points="374.85,-275.1 380.85,-273 374.85,-270.9 374.85,-275.1"/>
</g>
<!-- src/main/rule&#45;set/normalize.js -->
<g id="node23" class="node">
<title>src/main/rule&#45;set/normalize.js</title>
<g id="a_node23"><a xlink:href="src/main/rule-set/normalize.js" xlink:title="normalize.js">
<path fill="#ffffcc" stroke="black" d="M444.5,-460C444.5,-460 390.5,-460 390.5,-460 387.5,-460 384.5,-457 384.5,-454 384.5,-454 384.5,-448 384.5,-448 384.5,-445 387.5,-442 390.5,-442 390.5,-442 444.5,-442 444.5,-442 447.5,-442 450.5,-445 450.5,-448 450.5,-448 450.5,-454 450.5,-454 450.5,-457 447.5,-460 444.5,-460"/>
<text text-anchor="start" x="392.5" y="-448.8" font-family="Helvetica,sans-Serif" font-size="9.00">normalize.js</text>
</a>
</g>
</g>
<!-- src/main/index.js&#45;&gt;src/main/rule&#45;set/normalize.js -->
<g id="edge21" class="edge">
<title>src/main/index.js&#45;&gt;src/main/rule&#45;set/normalize.js</title>
<path fill="none" stroke="#000000" stroke-width="2" stroke-opacity="0.200000" d="M297,-456.7C297,-452.74 297,-449 297,-449 297,-449 378.25,-449 378.25,-449"/>
<polygon fill="#000000" fill-opacity="0.200000" stroke="#000000" stroke-width="2" stroke-opacity="0.200000" points="378.25,-451.1 384.25,-449 378.25,-446.9 378.25,-451.1"/>
</g>
<!-- src/main/rule&#45;set/validate.js -->
<g id="node24" class="node">
<title>src/main/rule&#45;set/validate.js</title>
<g id="a_node24"><a xlink:href="src/main/rule-set/validate.js" xlink:title="validate.js">
<path fill="#ffffcc" stroke="black" d="M440.5,-490C440.5,-490 394.5,-490 394.5,-490 391.5,-490 388.5,-487 388.5,-484 388.5,-484 388.5,-478 388.5,-478 388.5,-475 391.5,-472 394.5,-472 394.5,-472 440.5,-472 440.5,-472 443.5,-472 446.5,-475 446.5,-478 446.5,-478 446.5,-484 446.5,-484 446.5,-487 443.5,-490 440.5,-490"/>
<text text-anchor="start" x="396.5" y="-478.8" font-family="Helvetica,sans-Serif" font-size="9.00">validate.js</text>
</a>
</g>
</g>
<!-- src/main/index.js&#45;&gt;src/main/rule&#45;set/validate.js -->
<g id="edge22" class="edge">
<title>src/main/index.js&#45;&gt;src/main/rule&#45;set/validate.js</title>
<path fill="none" stroke="#000000" stroke-width="2" stroke-opacity="0.200000" d="M257,-475.27C257,-478.11 257,-480.5 257,-480.5 257,-480.5 382.43,-480.5 382.43,-480.5"/>
<polygon fill="#000000" fill-opacity="0.200000" stroke="#000000" stroke-width="2" stroke-opacity="0.200000" points="382.43,-482.6 388.43,-480.5 382.43,-478.4 382.43,-482.6"/>
</g>
<!-- src/cli/format.js -->
<g id="node4" class="node">
<title>src/cli/format.js</title>
<g id="a_node4"><a xlink:href="src/cli/format.js" xlink:title="format.js">
<path fill="#ffffcc" stroke="black" d="M72,-474C72,-474 30,-474 30,-474 27,-474 24,-471 24,-468 24,-468 24,-462 24,-462 24,-459 27,-456 30,-456 30,-456 72,-456 72,-456 75,-456 78,-459 78,-462 78,-462 78,-468 78,-468 78,-471 75,-474 72,-474"/>
<text text-anchor="start" x="33.5" y="-462.8" font-family="Helvetica,sans-Serif" font-size="9.00">format.js</text>
</a>
</g>
</g>
<!-- src/cli/format.js&#45;&gt;src/main/index.js -->
<g id="edge2" class="edge">
<title>src/cli/format.js&#45;&gt;src/main/index.js</title>
<path fill="none" stroke="#000000" stroke-width="2" stroke-opacity="0.200000" d="M78.14,-462.67C78.14,-462.67 242.76,-462.67 242.76,-462.67"/>
<polygon fill="#000000" fill-opacity="0.200000" stroke="#000000" stroke-width="2" stroke-opacity="0.200000" points="242.76,-464.77 248.76,-462.67 242.76,-460.57 242.76,-464.77"/>
</g>
<!-- src/cli/index.js -->
<g id="node5" class="node">
<title>src/cli/index.js</title>
<g id="a_node5"><a xlink:href="src/cli/index.js" xlink:title="index.js">
<path fill="#ffffcc" stroke="black" d="M72,-504C72,-504 30,-504 30,-504 27,-504 24,-501 24,-498 24,-498 24,-492 24,-492 24,-489 27,-486 30,-486 30,-486 72,-486 72,-486 75,-486 78,-489 78,-492 78,-492 78,-498 78,-498 78,-501 75,-504 72,-504"/>
<text text-anchor="start" x="35" y="-492.8" font-family="Helvetica,sans-Serif" font-size="9.00">index.js</text>
</a>
</g>
</g>
<!-- src/cli/index.js&#45;&gt;src/cli/format&#45;meta&#45;info.js -->
<g id="edge5" class="edge">
<title>src/cli/index.js&#45;&gt;src/cli/format&#45;meta&#45;info.js</title>
<path fill="none" stroke="#000000" stroke-width="2" stroke-opacity="0.200000" d="M78.21,-498C78.21,-498 84.79,-498 84.79,-498"/>
<polygon fill="#000000" fill-opacity="0.200000" stroke="#000000" stroke-width="2" stroke-opacity="0.200000" points="84.79,-500.1 90.79,-498 84.79,-495.9 84.79,-500.1"/>
</g>
<!-- src/cli/index.js&#45;&gt;src/main/index.js -->
<g id="edge3" class="edge">
<title>src/cli/index.js&#45;&gt;src/main/index.js</title>
<path fill="none" stroke="#000000" stroke-width="2" stroke-opacity="0.200000" d="M78.12,-492C82.16,-492 85,-492 85,-492 85,-492 85,-468.33 85,-468.33 85,-468.33 242.63,-468.33 242.63,-468.33"/>
<polygon fill="#000000" fill-opacity="0.200000" stroke="#000000" stroke-width="2" stroke-opacity="0.200000" points="242.63,-470.43 248.63,-468.33 242.63,-466.23 242.63,-470.43"/>
</g>
<!-- src/cli/index.js&#45;&gt;src/utl/bus.js -->
<g id="edge4" class="edge">
<title>src/cli/index.js&#45;&gt;src/utl/bus.js</title>
<path fill="none" stroke="#000000" stroke-width="2" stroke-opacity="0.200000" d="M51,-504.05C51,-548.43 51,-741 51,-741 51,-741 655.99,-741 655.99,-741"/>
<polygon fill="#000000" fill-opacity="0.200000" stroke="#000000" stroke-width="2" stroke-opacity="0.200000" points="655.99,-743.1 661.99,-741 655.99,-738.9 655.99,-743.1"/>
</g>
<!-- src/config&#45;utl/extract&#45;depcruise&#45;config/index.js -->
<g id="node7" class="node">
<title>src/config&#45;utl/extract&#45;depcruise&#45;config/index.js</title>
<g id="a_node7"><a xlink:href="src/config-utl/extract-depcruise-config/index.js" xlink:title="index.js">
<path fill="#ffffcc" stroke="black" d="M297,-196C297,-196 255,-196 255,-196 252,-196 249,-193 249,-190 249,-190 249,-184 249,-184 249,-181 252,-178 255,-178 255,-178 297,-178 297,-178 300,-178 303,-181 303,-184 303,-184 303,-190 303,-190 303,-193 300,-196 297,-196"/>
<text text-anchor="start" x="260" y="-184.8" font-family="Helvetica,sans-Serif" font-size="9.00">index.js</text>
</a>
</g>
</g>
<!-- src/config&#45;utl/extract&#45;depcruise&#45;config/index.js&#45;&gt;src/main/resolve&#45;options/normalize.js -->
<g id="edge6" class="edge">
<title>src/config&#45;utl/extract&#45;depcruise&#45;config/index.js&#45;&gt;src/main/resolve&#45;options/normalize.js</title>
<path fill="none" stroke="#000000" stroke-width="2" stroke-opacity="0.200000" d="M283,-196.18C283,-223.76 283,-304 283,-304 283,-304 378.25,-304 378.25,-304"/>
<polygon fill="#000000" fill-opacity="0.200000" stroke="#000000" stroke-width="2" stroke-opacity="0.200000" points="378.25,-306.1 384.25,-304 378.25,-301.9 378.25,-306.1"/>
</g>
<!-- src/main/resolve&#45;options/normalize.js&#45;&gt;src/extract/transpile/meta.js -->
<g id="edge32" class="edge">
<title>src/main/resolve&#45;options/normalize.js&#45;&gt;src/extract/transpile/meta.js</title>
<path fill="none" stroke="#000000" stroke-width="2" stroke-opacity="0.200000" d="M450.7,-310C460.66,-310 469,-310 469,-310 469,-310 469,-688 469,-688 469,-688 514.48,-688 514.48,-688"/>
<polygon fill="#000000" fill-opacity="0.200000" stroke="#000000" stroke-width="2" stroke-opacity="0.200000" points="514.48,-690.1 520.48,-688 514.48,-685.9 514.48,-690.1"/>
</g>
<!-- src/graph&#45;utl/rule&#45;set.js -->
<g id="node16" class="node">
<title>src/graph&#45;utl/rule&#45;set.js</title>
<g id="a_node16"><a xlink:href="src/graph-utl/rule-set.js" xlink:title="rule&#45;set.js">
<path fill="#ffffcc" stroke="black" d="M711,-162C711,-162 667,-162 667,-162 664,-162 661,-159 661,-156 661,-156 661,-150 661,-150 661,-147 664,-144 667,-144 667,-144 711,-144 711,-144 714,-144 717,-147 717,-150 717,-150 717,-156 717,-156 717,-159 714,-162 711,-162"/>
<text text-anchor="start" x="669" y="-150.8" font-family="Helvetica,sans-Serif" font-size="9.00">rule&#45;set.js</text>
</a>
</g>
</g>
<!-- src/main/resolve&#45;options/normalize.js&#45;&gt;src/graph&#45;utl/rule&#45;set.js -->
<g id="edge33" class="edge">
<title>src/main/resolve&#45;options/normalize.js&#45;&gt;src/graph&#45;utl/rule&#45;set.js</title>
<path fill="none" stroke="#000000" stroke-width="2" stroke-opacity="0.200000" d="M450.58,-304C465.57,-304 480,-304 480,-304 480,-304 480,-158.5 480,-158.5 480,-158.5 654.81,-158.5 654.81,-158.5"/>
<polygon fill="#000000" fill-opacity="0.200000" stroke="#000000" stroke-width="2" stroke-opacity="0.200000" points="654.81,-160.6 660.81,-158.5 654.81,-156.4 654.81,-160.6"/>
</g>
<!-- src/enrich/summarize/index.js -->
<g id="node10" class="node">
<title>src/enrich/summarize/index.js</title>
<g id="a_node10"><a xlink:href="src/enrich/summarize/index.js" xlink:title="index.js">
<path fill="#ffffcc" stroke="black" d="M568.5,-142C568.5,-142 526.5,-142 526.5,-142 523.5,-142 520.5,-139 520.5,-136 520.5,-136 520.5,-130 520.5,-130 520.5,-127 523.5,-124 526.5,-124 526.5,-124 568.5,-124 568.5,-124 571.5,-124 574.5,-127 574.5,-130 574.5,-130 574.5,-136 574.5,-136 574.5,-139 571.5,-142 568.5,-142"/>
<text text-anchor="start" x="531.5" y="-130.8" font-family="Helvetica,sans-Serif" font-size="9.00">index.js</text>
</a>
</g>
</g>
<!-- src/enrich/index.js&#45;&gt;src/enrich/summarize/index.js -->
<g id="edge7" class="edge">
<title>src/enrich/index.js&#45;&gt;src/enrich/summarize/index.js</title>
<path fill="none" stroke="#000000" stroke-width="2" stroke-opacity="0.200000" d="M418,-136.75C418,-132.48 418,-128.33 418,-128.33 418,-128.33 514.35,-128.33 514.35,-128.33"/>
<polygon fill="#000000" fill-opacity="0.200000" stroke="#000000" stroke-width="2" stroke-opacity="0.200000" points="514.35,-130.43 520.35,-128.33 514.35,-126.23 514.35,-130.43"/>
</g>
<!-- src/graph&#45;utl/compare.js -->
<g id="node11" class="node">
<title>src/graph&#45;utl/compare.js</title>
<g id="a_node11"><a xlink:href="src/graph-utl/compare.js" xlink:title="compare.js">
<path fill="#ffffcc" stroke="black" d="M714,-42C714,-42 664,-42 664,-42 661,-42 658,-39 658,-36 658,-36 658,-30 658,-30 658,-27 661,-24 664,-24 664,-24 714,-24 714,-24 717,-24 720,-27 720,-30 720,-30 720,-36 720,-36 720,-39 717,-42 714,-42"/>
<text text-anchor="start" x="666" y="-30.8" font-family="Helvetica,sans-Serif" font-size="9.00">compare.js</text>
</a>
</g>
</g>
<!-- src/enrich/summarize/index.js&#45;&gt;src/graph&#45;utl/compare.js -->
<g id="edge8" class="edge">
<title>src/enrich/summarize/index.js&#45;&gt;src/graph&#45;utl/compare.js</title>
<path fill="none" stroke="#000000" stroke-width="2" stroke-opacity="0.200000" d="M548,-123.7C548,-99.42 548,-36 548,-36 548,-36 651.71,-36 651.71,-36"/>
<polygon fill="#000000" fill-opacity="0.200000" stroke="#000000" stroke-width="2" stroke-opacity="0.200000" points="651.71,-38.1 657.71,-36 651.71,-33.9 651.71,-38.1"/>
</g>
<!-- src/extract/index.js&#45;&gt;src/utl/bus.js -->
<g id="edge9" class="edge">
<title>src/extract/index.js&#45;&gt;src/utl/bus.js</title>
<path fill="none" stroke="#000000" stroke-width="2" stroke-opacity="0.200000" d="M574.63,-657C613.4,-657 680,-657 680,-657 680,-657 680,-725.69 680,-725.69"/>
<polygon fill="#000000" fill-opacity="0.200000" stroke="#000000" stroke-width="2" stroke-opacity="0.200000" points="677.9,-725.69 680,-731.69 682.1,-725.69 677.9,-725.69"/>
</g>
<!-- src/graph&#45;utl/consolidate&#45;to&#45;pattern.js -->
<g id="node14" class="node">
<title>src/graph&#45;utl/consolidate&#45;to&#45;pattern.js</title>
<g id="a_node14"><a xlink:href="src/graph-utl/consolidate-to-pattern.js" xlink:title="consolidate&#45;to&#45;pattern.js">
<path fill="#ffffcc" stroke="black" d="M740.5,-132C740.5,-132 637.5,-132 637.5,-132 634.5,-132 631.5,-129 631.5,-126 631.5,-126 631.5,-120 631.5,-120 631.5,-117 634.5,-114 637.5,-114 637.5,-114 740.5,-114 740.5,-114 743.5,-114 746.5,-117 746.5,-120 746.5,-120 746.5,-126 746.5,-126 746.5,-129 743.5,-132 740.5,-132"/>
<text text-anchor="start" x="639.5" y="-120.8" font-family="Helvetica,sans-Serif" font-size="9.00">consolidate&#45;to&#45;pattern.js</text>
</a>
</g>
</g>
<!-- src/graph&#45;utl/filter&#45;bank.js -->
<g id="node15" class="node">
<title>src/graph&#45;utl/filter&#45;bank.js</title>
<g id="a_node15"><a xlink:href="src/graph-utl/filter-bank.js" xlink:title="filter&#45;bank.js">
<path fill="#ffffcc" stroke="black" d="M716,-102C716,-102 662,-102 662,-102 659,-102 656,-99 656,-96 656,-96 656,-90 656,-90 656,-87 659,-84 662,-84 662,-84 716,-84 716,-84 719,-84 722,-87 722,-90 722,-90 722,-96 722,-96 722,-99 719,-102 716,-102"/>
<text text-anchor="start" x="664" y="-90.8" font-family="Helvetica,sans-Serif" font-size="9.00">filter&#45;bank.js</text>
</a>
</g>
</g>
<!-- src/graph&#45;utl/strip&#45;self&#45;transitions.js -->
<g id="node17" class="node">
<title>src/graph&#45;utl/strip&#45;self&#45;transitions.js</title>
<g id="a_node17"><a xlink:href="src/graph-utl/strip-self-transitions.js" xlink:title="strip&#45;self&#45;transitions.js">
<path fill="#ffffcc" stroke="black" d="M735.5,-72C735.5,-72 642.5,-72 642.5,-72 639.5,-72 636.5,-69 636.5,-66 636.5,-66 636.5,-60 636.5,-60 636.5,-57 639.5,-54 642.5,-54 642.5,-54 735.5,-54 735.5,-54 738.5,-54 741.5,-57 741.5,-60 741.5,-60 741.5,-66 741.5,-66 741.5,-69 738.5,-72 735.5,-72"/>
<text text-anchor="start" x="644.5" y="-60.8" font-family="Helvetica,sans-Serif" font-size="9.00">strip&#45;self&#45;transitions.js</text>
</a>
</g>
</g>
<!-- src/main/options/defaults.js -->
<g id="node25" class="node">
<title>src/main/options/defaults.js</title>
<g id="a_node25"><a xlink:href="src/main/options/defaults.js" xlink:title="defaults.js">
<path fill="#ffffcc" stroke="black" d="M712,-390C712,-390 666,-390 666,-390 663,-390 660,-387 660,-384 660,-384 660,-378 660,-378 660,-375 663,-372 666,-372 666,-372 712,-372 712,-372 715,-372 718,-375 718,-378 718,-378 718,-384 718,-384 718,-387 715,-390 712,-390"/>
<text text-anchor="start" x="668" y="-378.8" font-family="Helvetica,sans-Serif" font-size="9.00">defaults.js</text>
</a>
</g>
</g>
<!-- src/main/options/normalize.js&#45;&gt;src/main/options/defaults.js -->
<g id="edge24" class="edge">
<title>src/main/options/normalize.js&#45;&gt;src/main/options/defaults.js</title>
<path fill="none" stroke="#000000" stroke-width="2" stroke-opacity="0.200000" d="M580.68,-378C580.68,-378 653.87,-378 653.87,-378"/>
<polygon fill="#000000" fill-opacity="0.200000" stroke="#000000" stroke-width="2" stroke-opacity="0.200000" points="653.87,-380.1 659.87,-378 653.87,-375.9 653.87,-380.1"/>
</g>
<!-- src/main/utl/normalize&#45;re&#45;properties.js -->
<g id="node26" class="node">
<title>src/main/utl/normalize&#45;re&#45;properties.js</title>
<g id="a_node26"><a xlink:href="src/main/utl/normalize-re-properties.js" xlink:title="normalize&#45;re&#45;properties.js">
<path fill="#ffffcc" stroke="black" d="M744,-455C744,-455 634,-455 634,-455 631,-455 628,-452 628,-449 628,-449 628,-443 628,-443 628,-440 631,-437 634,-437 634,-437 744,-437 744,-437 747,-437 750,-440 750,-443 750,-443 750,-449 750,-449 750,-452 747,-455 744,-455"/>
<text text-anchor="start" x="636" y="-443.8" font-family="Helvetica,sans-Serif" font-size="9.00">normalize&#45;re&#45;properties.js</text>
</a>
</g>
</g>
<!-- src/main/options/normalize.js&#45;&gt;src/main/utl/normalize&#45;re&#45;properties.js -->
<g id="edge23" class="edge">
<title>src/main/options/normalize.js&#45;&gt;src/main/utl/normalize&#45;re&#45;properties.js</title>
<path fill="none" stroke="#000000" stroke-width="2" stroke-opacity="0.200000" d="M580.57,-384C609.19,-384 646,-384 646,-384 646,-384 646,-430.85 646,-430.85"/>
<polygon fill="#000000" fill-opacity="0.200000" stroke="#000000" stroke-width="2" stroke-opacity="0.200000" points="643.9,-430.85 646,-436.85 648.1,-430.85 643.9,-430.85"/>
</g>
<!-- src/report/index.js -->
<g id="node27" class="node">
<title>src/report/index.js</title>
<g id="a_node27"><a xlink:href="src/report/index.js" xlink:title="index.js">
<path fill="#ffffcc" stroke="black" d="M710,-222C710,-222 668,-222 668,-222 665,-222 662,-219 662,-216 662,-216 662,-210 662,-210 662,-207 665,-204 668,-204 668,-204 710,-204 710,-204 713,-204 716,-207 716,-210 716,-210 716,-216 716,-216 716,-219 713,-222 710,-222"/>
<text text-anchor="start" x="673" y="-210.8" font-family="Helvetica,sans-Serif" font-size="9.00">index.js</text>
</a>
</g>
</g>
<!-- src/main/options/validate.js&#45;&gt;src/report/index.js -->
<g id="edge25" class="edge">
<title>src/main/options/validate.js&#45;&gt;src/report/index.js</title>
<path fill="none" stroke="#000000" stroke-width="2" stroke-opacity="0.200000" d="M576.82,-351C618.27,-351 689,-351 689,-351 689,-351 689,-228.05 689,-228.05"/>
<polygon fill="#000000" fill-opacity="0.200000" stroke="#000000" stroke-width="2" stroke-opacity="0.200000" points="691.1,-228.05 689,-222.05 686.9,-228.05 691.1,-228.05"/>
</g>
<!-- src/main/report&#45;wrap.js&#45;&gt;src/enrich/summarize/index.js -->
<g id="edge26" class="edge">
<title>src/main/report&#45;wrap.js&#45;&gt;src/enrich/summarize/index.js</title>
<path fill="none" stroke="#000000" stroke-width="2" stroke-opacity="0.200000" d="M451,-263.79C451,-232.57 451,-132.67 451,-132.67 451,-132.67 514.36,-132.67 514.36,-132.67"/>
<polygon fill="#000000" fill-opacity="0.200000" stroke="#000000" stroke-width="2" stroke-opacity="0.200000" points="514.36,-134.77 520.36,-132.67 514.36,-130.57 514.36,-134.77"/>
</g>
<!-- src/main/report&#45;wrap.js&#45;&gt;src/graph&#45;utl/compare.js -->
<g id="edge27" class="edge">
<title>src/main/report&#45;wrap.js&#45;&gt;src/graph&#45;utl/compare.js</title>
<path fill="none" stroke="#000000" stroke-width="2" stroke-opacity="0.200000" d="M385,-263.77C385,-219.38 385,-30 385,-30 385,-30 651.9,-30 651.9,-30"/>
<polygon fill="#000000" fill-opacity="0.200000" stroke="#000000" stroke-width="2" stroke-opacity="0.200000" points="651.9,-32.1 657.9,-30 651.9,-27.9 651.9,-32.1"/>
</g>
<!-- src/main/report&#45;wrap.js&#45;&gt;src/graph&#45;utl/consolidate&#45;to&#45;pattern.js -->
<g id="edge28" class="edge">
<title>src/main/report&#45;wrap.js&#45;&gt;src/graph&#45;utl/consolidate&#45;to&#45;pattern.js</title>
<path fill="none" stroke="#000000" stroke-width="2" stroke-opacity="0.200000" d="M449,-263.83C449,-230.67 449,-119 449,-119 449,-119 625.21,-119 625.21,-119"/>
<polygon fill="#000000" fill-opacity="0.200000" stroke="#000000" stroke-width="2" stroke-opacity="0.200000" points="625.21,-121.1 631.21,-119 625.21,-116.9 625.21,-121.1"/>
</g>
<!-- src/main/report&#45;wrap.js&#45;&gt;src/graph&#45;utl/filter&#45;bank.js -->
<g id="edge29" class="edge">
<title>src/main/report&#45;wrap.js&#45;&gt;src/graph&#45;utl/filter&#45;bank.js</title>
<path fill="none" stroke="#000000" stroke-width="2" stroke-opacity="0.200000" d="M447,-263.83C447,-227.15 447,-93 447,-93 447,-93 649.86,-93 649.86,-93"/>
<polygon fill="#000000" fill-opacity="0.200000" stroke="#000000" stroke-width="2" stroke-opacity="0.200000" points="649.86,-95.1 655.86,-93 649.86,-90.9 649.86,-95.1"/>
</g>
<!-- src/main/report&#45;wrap.js&#45;&gt;src/graph&#45;utl/strip&#45;self&#45;transitions.js -->
<g id="edge30" class="edge">
<title>src/main/report&#45;wrap.js&#45;&gt;src/graph&#45;utl/strip&#45;self&#45;transitions.js</title>
<path fill="none" stroke="#000000" stroke-width="2" stroke-opacity="0.200000" d="M388,-263.98C388,-223.78 388,-63 388,-63 388,-63 630.23,-63 630.23,-63"/>
<polygon fill="#000000" fill-opacity="0.200000" stroke="#000000" stroke-width="2" stroke-opacity="0.200000" points="630.23,-65.1 636.23,-63 630.23,-60.9 630.23,-65.1"/>
</g>
<!-- src/main/report&#45;wrap.js&#45;&gt;src/report/index.js -->
<g id="edge31" class="edge">
<title>src/main/report&#45;wrap.js&#45;&gt;src/report/index.js</title>
<path fill="none" stroke="#000000" stroke-width="2" stroke-opacity="0.200000" d="M453,-263.89C453,-247.1 453,-213 453,-213 453,-213 655.93,-213 655.93,-213"/>
<polygon fill="#000000" fill-opacity="0.200000" stroke="#000000" stroke-width="2" stroke-opacity="0.200000" points="655.93,-215.1 661.93,-213 655.93,-210.9 655.93,-215.1"/>
</g>
<!-- src/main/rule&#45;set/normalize.js&#45;&gt;src/main/utl/normalize&#45;re&#45;properties.js -->
<g id="edge34" class="edge">
<title>src/main/rule&#45;set/normalize.js&#45;&gt;src/main/utl/normalize&#45;re&#45;properties.js</title>
<path fill="none" stroke="#000000" stroke-width="2" stroke-opacity="0.200000" d="M450.52,-448.5C450.52,-448.5 621.92,-448.5 621.92,-448.5"/>
<polygon fill="#000000" fill-opacity="0.200000" stroke="#000000" stroke-width="2" stroke-opacity="0.200000" points="621.92,-450.6 627.92,-448.5 621.92,-446.4 621.92,-450.6"/>
</g>
<!-- src/main/rule&#45;set/validate.js&#45;&gt;src/main/options/validate.js -->
<g id="edge36" class="edge">
<title>src/main/rule&#45;set/validate.js&#45;&gt;src/main/options/validate.js</title>
<path fill="none" stroke="#000000" stroke-width="2" stroke-opacity="0.200000" d="M446.92,-478C470.27,-478 499,-478 499,-478 499,-478 499,-354 499,-354 499,-354 512.45,-354 512.45,-354"/>
<polygon fill="#000000" fill-opacity="0.200000" stroke="#000000" stroke-width="2" stroke-opacity="0.200000" points="512.45,-356.1 518.45,-354 512.45,-351.9 512.45,-356.1"/>
</g>
<!-- src/schema/configuration.schema.js -->
<g id="node28" class="node">
<title>src/schema/configuration.schema.js</title>
<g id="a_node28"><a xlink:href="src/schema/configuration.schema.js" xlink:title="configuration.schema.js">
<path fill="#ffffcc" stroke="black" d="M598,-576C598,-576 497,-576 497,-576 494,-576 491,-573 491,-570 491,-570 491,-564 491,-564 491,-561 494,-558 497,-558 497,-558 598,-558 598,-558 601,-558 604,-561 604,-564 604,-564 604,-570 604,-570 604,-573 601,-576 598,-576"/>
<text text-anchor="start" x="499" y="-564.8" font-family="Helvetica,sans-Serif" font-size="9.00">configuration.schema.js</text>
</a>
</g>
</g>
<!-- src/main/rule&#45;set/validate.js&#45;&gt;src/schema/configuration.schema.js -->
<g id="edge35" class="edge">
<title>src/main/rule&#45;set/validate.js&#45;&gt;src/schema/configuration.schema.js</title>
<path fill="none" stroke="#000000" stroke-width="2" stroke-opacity="0.200000" d="M446.81,-484C472.91,-484 507,-484 507,-484 507,-484 507,-551.8 507,-551.8"/>
<polygon fill="#000000" fill-opacity="0.200000" stroke="#000000" stroke-width="2" stroke-opacity="0.200000" points="504.9,-551.8 507,-557.8 509.1,-551.8 504.9,-551.8"/>
</g>
</g>
</svg>
