<?xml version="1.0" encoding="UTF-8" standalone="no"?>
<!DOCTYPE svg PUBLIC "-//W3C//DTD SVG 1.1//EN"
 "http://www.w3.org/Graphics/SVG/1.1/DTD/svg11.dtd">
<!-- Generated by graphviz version 14.0.1 (20251006.0113)
 -->
<!-- Title: dependency&#45;cruiser output Pages: 1 -->
<svg width="954pt" height="864pt"
 viewBox="0.00 0.00 954.00 864.00" xmlns="http://www.w3.org/2000/svg" xmlns:xlink="http://www.w3.org/1999/xlink">
<g id="graph0" class="graph" transform="scale(1 1) rotate(0) translate(4 860)">
<title>dependency&#45;cruiser output</title>
<polygon fill="white" stroke="none" points="-4,4 -4,-860 949.62,-860 949.62,4 -4,4"/>
<g id="clust1" class="cluster">
<title>cluster_src</title>
<path fill="#ffffff" stroke="black" stroke-width="2" d="M20,-8C20,-8 925.62,-8 925.62,-8 931.62,-8 937.62,-14 937.62,-20 937.62,-20 937.62,-836 937.62,-836 937.62,-842 931.62,-848 925.62,-848 925.62,-848 20,-848 20,-848 14,-848 8,-842 8,-836 8,-836 8,-20 8,-20 8,-14 14,-8 20,-8"/>
<text xml:space="preserve" text-anchor="middle" x="472.81" y="-835.45" font-family="Helvetica,sans-Serif" font-weight="bold" font-size="9.00">src</text>
</g>
<g id="clust2" class="cluster">
<title>cluster_src/cache</title>
<path fill="#ffffff" stroke="black" stroke-width="2" d="M470.75,-706C470.75,-706 520,-706 520,-706 526,-706 532,-712 532,-718 532,-718 532,-746 532,-746 532,-752 526,-758 520,-758 520,-758 470.75,-758 470.75,-758 464.75,-758 458.75,-752 458.75,-746 458.75,-746 458.75,-718 458.75,-718 458.75,-712 464.75,-706 470.75,-706"/>
<text xml:space="preserve" text-anchor="middle" x="495.38" y="-745.45" font-family="Helvetica,sans-Serif" font-weight="bold" font-size="9.00">cache</text>
</g>
<g id="clust3" class="cluster">
<title>cluster_src/cli</title>
<path fill="#ffffff" stroke="black" stroke-width="2" d="M28,-302C28,-302 190.25,-302 190.25,-302 196.25,-302 202.25,-308 202.25,-314 202.25,-314 202.25,-372 202.25,-372 202.25,-378 196.25,-384 190.25,-384 190.25,-384 28,-384 28,-384 22,-384 16,-378 16,-372 16,-372 16,-314 16,-314 16,-308 22,-302 28,-302"/>
<text xml:space="preserve" text-anchor="middle" x="109.12" y="-371.45" font-family="Helvetica,sans-Serif" font-weight="bold" font-size="9.00">cli</text>
</g>
<g id="clust4" class="cluster">
<title>cluster_src/config&#45;utl</title>
<path fill="#ffffff" stroke="black" stroke-width="2" d="M301.25,-76C301.25,-76 415,-76 415,-76 421,-76 427,-82 427,-88 427,-88 427,-150 427,-150 427,-156 421,-162 415,-162 415,-162 301.25,-162 301.25,-162 295.25,-162 289.25,-156 289.25,-150 289.25,-150 289.25,-88 289.25,-88 289.25,-82 295.25,-76 301.25,-76"/>
<text xml:space="preserve" text-anchor="middle" x="358.12" y="-149.45" font-family="Helvetica,sans-Serif" font-weight="bold" font-size="9.00">config&#45;utl</text>
</g>
<g id="clust5" class="cluster">
<title>cluster_src/config&#45;utl/extract&#45;depcruise&#45;config</title>
<path fill="#ffffff" stroke="black" stroke-width="2" d="M309.25,-84C309.25,-84 407,-84 407,-84 413,-84 419,-90 419,-96 419,-96 419,-124 419,-124 419,-130 413,-136 407,-136 407,-136 309.25,-136 309.25,-136 303.25,-136 297.25,-130 297.25,-124 297.25,-124 297.25,-96 297.25,-96 297.25,-90 303.25,-84 309.25,-84"/>
<text xml:space="preserve" text-anchor="middle" x="358.12" y="-123.45" font-family="Helvetica,sans-Serif" font-weight="bold" font-size="9.00">extract&#45;depcruise&#45;config</text>
</g>
<g id="clust6" class="cluster">
<title>cluster_src/enrich</title>
<path fill="#ffffff" stroke="black" stroke-width="2" d="M600.38,-568C600.38,-568 767,-568 767,-568 773,-568 779,-574 779,-580 779,-580 779,-642 779,-642 779,-648 773,-654 767,-654 767,-654 600.38,-654 600.38,-654 594.38,-654 588.38,-648 588.38,-642 588.38,-642 588.38,-580 588.38,-580 588.38,-574 594.38,-568 600.38,-568"/>
<text xml:space="preserve" text-anchor="middle" x="683.69" y="-641.45" font-family="Helvetica,sans-Serif" font-weight="bold" font-size="9.00">enrich</text>
</g>
<g id="clust7" class="cluster">
<title>cluster_src/enrich/summarize</title>
<path fill="#ffffff" stroke="black" stroke-width="2" d="M712,-576C712,-576 759,-576 759,-576 765,-576 771,-582 771,-588 771,-588 771,-616 771,-616 771,-622 765,-628 759,-628 759,-628 712,-628 712,-628 706,-628 700,-622 700,-616 700,-616 700,-588 700,-588 700,-582 706,-576 712,-576"/>
<text xml:space="preserve" text-anchor="middle" x="735.5" y="-615.45" font-family="Helvetica,sans-Serif" font-weight="bold" font-size="9.00">summarize</text>
</g>
<g id="clust8" class="cluster">
<title>cluster_src/extract</title>
<path fill="#ffffff" stroke="black" stroke-width="2" d="M592.88,-672C592.88,-672 654.88,-672 654.88,-672 660.88,-672 666.88,-678 666.88,-684 666.88,-684 666.88,-772 666.88,-772 666.88,-778 660.88,-784 654.88,-784 654.88,-784 592.88,-784 592.88,-784 586.88,-784 580.88,-778 580.88,-772 580.88,-772 580.88,-684 580.88,-684 580.88,-678 586.88,-672 592.88,-672"/>
<text xml:space="preserve" text-anchor="middle" x="623.88" y="-771.45" font-family="Helvetica,sans-Serif" font-weight="bold" font-size="9.00">extract</text>
</g>
<g id="clust9" class="cluster">
<title>cluster_src/extract/transpile</title>
<path fill="#ffffff" stroke="black" stroke-width="2" d="M600.88,-706C600.88,-706 646.88,-706 646.88,-706 652.88,-706 658.88,-712 658.88,-718 658.88,-718 658.88,-746 658.88,-746 658.88,-752 652.88,-758 646.88,-758 646.88,-758 600.88,-758 600.88,-758 594.88,-758 588.88,-752 588.88,-746 588.88,-746 588.88,-718 588.88,-718 588.88,-712 594.88,-706 600.88,-706"/>
<text xml:space="preserve" text-anchor="middle" x="623.88" y="-745.45" font-family="Helvetica,sans-Serif" font-weight="bold" font-size="9.00">transpile</text>
</g>
<g id="clust10" class="cluster">
<title>cluster_src/graph&#45;utl</title>
<path fill="#ffffff" stroke="black" stroke-width="2" d="M803.88,-16C803.88,-16 917.62,-16 917.62,-16 923.62,-16 929.62,-22 929.62,-28 929.62,-28 929.62,-176 929.62,-176 929.62,-182 923.62,-188 917.62,-188 917.62,-188 803.88,-188 803.88,-188 797.88,-188 791.88,-182 791.88,-176 791.88,-176 791.88,-28 791.88,-28 791.88,-22 797.88,-16 803.88,-16"/>
<text xml:space="preserve" text-anchor="middle" x="860.75" y="-175.45" font-family="Helvetica,sans-Serif" font-weight="bold" font-size="9.00">graph&#45;utl</text>
</g>
<g id="clust11" class="cluster">
<title>cluster_src/main</title>
<path fill="#ffffff" stroke="black" stroke-width="2" d="M222.25,-170C222.25,-170 771.88,-170 771.88,-170 777.88,-170 783.88,-176 783.88,-182 783.88,-182 783.88,-458 783.88,-458 783.88,-464 777.88,-470 771.88,-470 771.88,-470 222.25,-470 222.25,-470 216.25,-470 210.25,-464 210.25,-458 210.25,-458 210.25,-182 210.25,-182 210.25,-176 216.25,-170 222.25,-170"/>
<text xml:space="preserve" text-anchor="middle" x="497.06" y="-457.45" font-family="Helvetica,sans-Serif" font-weight="bold" font-size="9.00">main</text>
</g>
<g id="clust12" class="cluster">
<title>cluster_src/main/files&#45;and&#45;dirs</title>
<path fill="#ffffff" stroke="black" stroke-width="2" d="M462.88,-302C462.88,-302 527.88,-302 527.88,-302 533.88,-302 539.88,-308 539.88,-314 539.88,-314 539.88,-342 539.88,-342 539.88,-348 533.88,-354 527.88,-354 527.88,-354 462.88,-354 462.88,-354 456.88,-354 450.88,-348 450.88,-342 450.88,-342 450.88,-314 450.88,-314 450.88,-308 456.88,-302 462.88,-302"/>
<text xml:space="preserve" text-anchor="middle" x="495.38" y="-341.45" font-family="Helvetica,sans-Serif" font-weight="bold" font-size="9.00">files&#45;and&#45;dirs</text>
</g>
<g id="clust13" class="cluster">
<title>cluster_src/main/options</title>
<path fill="#ffffff" stroke="black" stroke-width="2" d="M583.5,-225C583.5,-225 763.88,-225 763.88,-225 769.88,-225 775.88,-231 775.88,-237 775.88,-237 775.88,-295 775.88,-295 775.88,-301 769.88,-307 763.88,-307 763.88,-307 583.5,-307 583.5,-307 577.5,-307 571.5,-301 571.5,-295 571.5,-295 571.5,-237 571.5,-237 571.5,-231 577.5,-225 583.5,-225"/>
<text xml:space="preserve" text-anchor="middle" x="673.69" y="-294.45" font-family="Helvetica,sans-Serif" font-weight="bold" font-size="9.00">options</text>
</g>
<g id="clust14" class="cluster">
<title>cluster_src/main/resolve&#45;options</title>
<path fill="#ffffff" stroke="black" stroke-width="2" d="M462.88,-218C462.88,-218 527.88,-218 527.88,-218 533.88,-218 539.88,-224 539.88,-230 539.88,-230 539.88,-258 539.88,-258 539.88,-264 533.88,-270 527.88,-270 527.88,-270 462.88,-270 462.88,-270 456.88,-270 450.88,-264 450.88,-258 450.88,-258 450.88,-230 450.88,-230 450.88,-224 456.88,-218 462.88,-218"/>
<text xml:space="preserve" text-anchor="middle" x="495.38" y="-257.45" font-family="Helvetica,sans-Serif" font-weight="bold" font-size="9.00">resolve&#45;options</text>
</g>
<g id="clust15" class="cluster">
<title>cluster_src/main/rule&#45;set</title>
<path fill="#ffffff" stroke="black" stroke-width="2" d="M455,-362C455,-362 535.75,-362 535.75,-362 541.75,-362 547.75,-368 547.75,-374 547.75,-374 547.75,-432 547.75,-432 547.75,-438 541.75,-444 535.75,-444 535.75,-444 455,-444 455,-444 449,-444 443,-438 443,-432 443,-432 443,-374 443,-374 443,-368 449,-362 455,-362"/>
<text xml:space="preserve" text-anchor="middle" x="495.38" y="-431.45" font-family="Helvetica,sans-Serif" font-weight="bold" font-size="9.00">rule&#45;set</text>
</g>
<g id="clust16" class="cluster">
<title>cluster_src/report</title>
<path fill="#ffffff" stroke="black" stroke-width="2" d="M712,-110C712,-110 759,-110 759,-110 765,-110 771,-116 771,-122 771,-122 771,-150 771,-150 771,-156 765,-162 759,-162 759,-162 712,-162 712,-162 706,-162 700,-156 700,-150 700,-150 700,-122 700,-122 700,-116 706,-110 712,-110"/>
<text xml:space="preserve" text-anchor="middle" x="735.5" y="-149.45" font-family="Helvetica,sans-Serif" font-weight="bold" font-size="9.00">report</text>
</g>
<g id="clust17" class="cluster">
<title>cluster_src/schema</title>
<path fill="#ffffff" stroke="black" stroke-width="2" d="M567.75,-478C567.75,-478 680,-478 680,-478 686,-478 692,-484 692,-490 692,-490 692,-548 692,-548 692,-554 686,-560 680,-560 680,-560 567.75,-560 567.75,-560 561.75,-560 555.75,-554 555.75,-548 555.75,-548 555.75,-490 555.75,-490 555.75,-484 561.75,-478 567.75,-478"/>
<text xml:space="preserve" text-anchor="middle" x="623.88" y="-547.45" font-family="Helvetica,sans-Serif" font-weight="bold" font-size="9.00">schema</text>
</g>
<g id="clust18" class="cluster">
<title>cluster_src/utl</title>
<path fill="#ffffff" stroke="black" stroke-width="2" d="M828.62,-612C828.62,-612 892.88,-612 892.88,-612 898.88,-612 904.88,-618 904.88,-624 904.88,-624 904.88,-712 904.88,-712 904.88,-718 898.88,-724 892.88,-724 892.88,-724 828.62,-724 828.62,-724 822.62,-724 816.62,-718 816.62,-712 816.62,-712 816.62,-624 816.62,-624 816.62,-618 822.62,-612 828.62,-612"/>
<text xml:space="preserve" text-anchor="middle" x="860.75" y="-711.45" font-family="Helvetica,sans-Serif" font-weight="bold" font-size="9.00">utl</text>
</g>
<!-- src/cache/cache.mjs -->
<g id="node1" class="node">
<title>src/cache/cache.mjs</title>
<g id="a_node1"><a xlink:href="src/cache/cache.mjs" xlink:title="cache.mjs">
<path fill="#ffffcc" stroke="black" d="M518.08,-731.88C518.08,-731.88 472.67,-731.88 472.67,-731.88 469.71,-731.88 466.75,-728.92 466.75,-725.96 466.75,-725.96 466.75,-720.04 466.75,-720.04 466.75,-717.08 469.71,-714.12 472.67,-714.12 472.67,-714.12 518.08,-714.12 518.08,-714.12 521.04,-714.12 524,-717.08 524,-720.04 524,-720.04 524,-725.96 524,-725.96 524,-728.92 521.04,-731.88 518.08,-731.88"/>
<text xml:space="preserve" text-anchor="start" x="474.75" y="-719.33" font-family="Helvetica,sans-Serif" font-size="9.00">cache.mjs</text>
</a>
</g>
</g>
<!-- src/extract/transpile/meta.mjs -->
<g id="node2" class="node">
<title>src/extract/transpile/meta.mjs</title>
<g id="a_node2"><a xlink:href="src/extract/transpile/meta.mjs" xlink:title="meta.mjs">
<path fill="#ffffcc" stroke="black" d="M644.96,-731.88C644.96,-731.88 602.79,-731.88 602.79,-731.88 599.83,-731.88 596.88,-728.92 596.88,-725.96 596.88,-725.96 596.88,-720.04 596.88,-720.04 596.88,-717.08 599.83,-714.12 602.79,-714.12 602.79,-714.12 644.96,-714.12 644.96,-714.12 647.92,-714.12 650.88,-717.08 650.88,-720.04 650.88,-720.04 650.88,-725.96 650.88,-725.96 650.88,-728.92 647.92,-731.88 644.96,-731.88"/>
<text xml:space="preserve" text-anchor="start" x="605.5" y="-719.33" font-family="Helvetica,sans-Serif" font-size="9.00">meta.mjs</text>
</a>
</g>
</g>
<!-- src/cache/cache.mjs&#45;&gt;src/extract/transpile/meta.mjs -->
<g id="edge1" class="edge">
<title>src/cache/cache.mjs&#45;&gt;src/extract/transpile/meta.mjs</title>
<path fill="none" stroke="#000000" stroke-width="2" stroke-opacity="0.200000" d="M524.21,-727.44C524.21,-727.44 587.43,-727.44 587.43,-727.44"/>
<polygon fill="#000000" fill-opacity="0.200000" stroke="#000000" stroke-width="2" stroke-opacity="0.200000" points="587.43,-729.54 593.43,-727.44 587.43,-725.34 587.43,-729.54"/>
</g>
<!-- src/utl/bus.mjs -->
<g id="node3" class="node">
<title>src/utl/bus.mjs</title>
<g id="a_node3"><a xlink:href="src/utl/bus.mjs" xlink:title="bus.mjs">
<path fill="#ffffcc" stroke="black" d="M881.83,-697.88C881.83,-697.88 839.67,-697.88 839.67,-697.88 836.71,-697.88 833.75,-694.92 833.75,-691.96 833.75,-691.96 833.75,-686.04 833.75,-686.04 833.75,-683.08 836.71,-680.12 839.67,-680.12 839.67,-680.12 881.83,-680.12 881.83,-680.12 884.79,-680.12 887.75,-683.08 887.75,-686.04 887.75,-686.04 887.75,-691.96 887.75,-691.96 887.75,-694.92 884.79,-697.88 881.83,-697.88"/>
<text xml:space="preserve" text-anchor="start" x="845" y="-685.33" font-family="Helvetica,sans-Serif" font-size="9.00">bus.mjs</text>
</a>
</g>
</g>
<!-- src/cache/cache.mjs&#45;&gt;src/utl/bus.mjs -->
<g id="edge2" class="edge">
<title>src/cache/cache.mjs&#45;&gt;src/utl/bus.mjs</title>
<path fill="none" stroke="#000000" stroke-width="2" stroke-opacity="0.200000" d="M495.62,-713.7C495.62,-709.74 495.62,-706 495.62,-706 495.62,-706 860.62,-706 860.62,-706 860.62,-706 860.62,-705.23 860.62,-705.23"/>
<polygon fill="#000000" fill-opacity="0.200000" stroke="#000000" stroke-width="2" stroke-opacity="0.200000" points="862.73,-707.32 860.63,-701.32 858.53,-707.32 862.73,-707.32"/>
</g>
<!-- src/cli/format&#45;meta&#45;info.mjs -->
<g id="node4" class="node">
<title>src/cli/format&#45;meta&#45;info.mjs</title>
<g id="a_node4"><a xlink:href="src/cli/format-meta-info.mjs" xlink:title="format&#45;meta&#45;info.mjs">
<path fill="#ffffcc" stroke="black" d="M188.33,-357.88C188.33,-357.88 100.92,-357.88 100.92,-357.88 97.96,-357.88 95,-354.92 95,-351.96 95,-351.96 95,-346.04 95,-346.04 95,-343.08 97.96,-340.12 100.92,-340.12 100.92,-340.12 188.33,-340.12 188.33,-340.12 191.29,-340.12 194.25,-343.08 194.25,-346.04 194.25,-346.04 194.25,-351.96 194.25,-351.96 194.25,-354.92 191.29,-357.88 188.33,-357.88"/>
<text xml:space="preserve" text-anchor="start" x="103" y="-345.32" font-family="Helvetica,sans-Serif" font-size="9.00">format&#45;meta&#45;info.mjs</text>
</a>
</g>
</g>
<!-- src/main/index.mjs -->
<g id="node5" class="node">
<title>src/main/index.mjs</title>
<g id="a_node5"><a xlink:href="src/main/index.mjs" xlink:title="index.mjs">
<path fill="#ffffcc" stroke="black" d="M267.33,-357.88C267.33,-357.88 224.17,-357.88 224.17,-357.88 221.21,-357.88 218.25,-354.92 218.25,-351.96 218.25,-351.96 218.25,-346.04 218.25,-346.04 218.25,-343.08 221.21,-340.12 224.17,-340.12 224.17,-340.12 267.33,-340.12 267.33,-340.12 270.29,-340.12 273.25,-343.08 273.25,-346.04 273.25,-346.04 273.25,-351.96 273.25,-351.96 273.25,-354.92 270.29,-357.88 267.33,-357.88"/>
<text xml:space="preserve" text-anchor="start" x="226.25" y="-345.32" font-family="Helvetica,sans-Serif" font-size="9.00">index.mjs</text>
</a>
</g>
</g>
<!-- src/cli/format&#45;meta&#45;info.mjs&#45;&gt;src/main/index.mjs -->
<g id="edge3" class="edge">
<title>src/cli/format&#45;meta&#45;info.mjs&#45;&gt;src/main/index.mjs</title>
<path fill="none" stroke="#000000" stroke-width="2" stroke-opacity="0.200000" d="M194.59,-349C194.59,-349 208.99,-349 208.99,-349"/>
<polygon fill="#000000" fill-opacity="0.200000" stroke="#000000" stroke-width="2" stroke-opacity="0.200000" points="208.99,-351.1 214.99,-349 208.99,-346.9 208.99,-351.1"/>
</g>
<!-- src/main/index.mjs&#45;&gt;src/extract/transpile/meta.mjs -->
<g id="edge32" class="edge">
<title>src/main/index.mjs&#45;&gt;src/extract/transpile/meta.mjs</title>
<path fill="none" stroke="#000000" stroke-width="2" stroke-opacity="0.200000" d="M245.62,-358.14C245.62,-360.28 245.62,-361.96 245.62,-361.96 245.62,-361.96 547.62,-361.96 547.62,-361.96 547.62,-361.96 547.62,-723 547.62,-723 547.62,-723 587.75,-723 587.75,-723"/>
<polygon fill="#000000" fill-opacity="0.200000" stroke="#000000" stroke-width="2" stroke-opacity="0.200000" points="587.75,-725.1 593.75,-723 587.75,-720.9 587.75,-725.1"/>
</g>
<!-- src/main/format.mjs -->
<g id="node7" class="node">
<title>src/main/format.mjs</title>
<g id="a_node7"><a xlink:href="src/main/format.mjs" xlink:title="format.mjs">
<path fill="#ffffcc" stroke="black" d="M518.46,-209.88C518.46,-209.88 472.29,-209.88 472.29,-209.88 469.33,-209.88 466.38,-206.92 466.38,-203.96 466.38,-203.96 466.38,-198.04 466.38,-198.04 466.38,-195.08 469.33,-192.12 472.29,-192.12 472.29,-192.12 518.46,-192.12 518.46,-192.12 521.42,-192.12 524.38,-195.08 524.38,-198.04 524.38,-198.04 524.38,-203.96 524.38,-203.96 524.38,-206.92 521.42,-209.88 518.46,-209.88"/>
<text xml:space="preserve" text-anchor="start" x="474.38" y="-197.32" font-family="Helvetica,sans-Serif" font-size="9.00">format.mjs</text>
</a>
</g>
</g>
<!-- src/main/index.mjs&#45;&gt;src/main/format.mjs -->
<g id="edge31" class="edge">
<title>src/main/index.mjs&#45;&gt;src/main/format.mjs</title>
<path fill="none" stroke="#000000" stroke-width="2" stroke-opacity="0.200000" d="M245.62,-339.93C245.62,-308.17 245.62,-203.96 245.62,-203.96 245.62,-203.96 457.21,-203.96 457.21,-203.96"/>
<polygon fill="#000000" fill-opacity="0.200000" stroke="#000000" stroke-width="2" stroke-opacity="0.200000" points="457.21,-206.06 463.21,-203.96 457.21,-201.86 457.21,-206.06"/>
</g>
<!-- src/main/cruise.mjs -->
<g id="node9" class="node">
<title>src/main/cruise.mjs</title>
<g id="a_node9"><a xlink:href="src/main/cruise.mjs" xlink:title="cruise.mjs">
<path fill="#ffffcc" stroke="black" d="M380.33,-357.88C380.33,-357.88 334.92,-357.88 334.92,-357.88 331.96,-357.88 329,-354.92 329,-351.96 329,-351.96 329,-346.04 329,-346.04 329,-343.08 331.96,-340.12 334.92,-340.12 334.92,-340.12 380.33,-340.12 380.33,-340.12 383.29,-340.12 386.25,-343.08 386.25,-346.04 386.25,-346.04 386.25,-351.96 386.25,-351.96 386.25,-354.92 383.29,-357.88 380.33,-357.88"/>
<text xml:space="preserve" text-anchor="start" x="337" y="-345.32" font-family="Helvetica,sans-Serif" font-size="9.00">cruise.mjs</text>
</a>
</g>
</g>
<!-- src/main/index.mjs&#45;&gt;src/main/cruise.mjs -->
<g id="edge30" class="edge">
<title>src/main/index.mjs&#45;&gt;src/main/cruise.mjs</title>
<path fill="none" stroke="#000000" stroke-width="2" stroke-opacity="0.200000" d="M273.69,-349C273.69,-349 319.84,-349 319.84,-349"/>
<polygon fill="#000000" fill-opacity="0.200000" stroke="#000000" stroke-width="2" stroke-opacity="0.200000" points="319.84,-351.1 325.84,-349 319.84,-346.9 319.84,-351.1"/>
</g>
<!-- src/cli/format.mjs -->
<g id="node6" class="node">
<title>src/cli/format.mjs</title>
<g id="a_node6"><a xlink:href="src/cli/format.mjs" xlink:title="format.mjs">
<path fill="#ffffcc" stroke="black" d="M76.08,-327.88C76.08,-327.88 29.92,-327.88 29.92,-327.88 26.96,-327.88 24,-324.92 24,-321.96 24,-321.96 24,-316.04 24,-316.04 24,-313.08 26.96,-310.12 29.92,-310.12 29.92,-310.12 76.08,-310.12 76.08,-310.12 79.04,-310.12 82,-313.08 82,-316.04 82,-316.04 82,-321.96 82,-321.96 82,-324.92 79.04,-327.88 76.08,-327.88"/>
<text xml:space="preserve" text-anchor="start" x="32" y="-315.32" font-family="Helvetica,sans-Serif" font-size="9.00">format.mjs</text>
</a>
</g>
</g>
<!-- src/cli/format.mjs&#45;&gt;src/main/format.mjs -->
<g id="edge4" class="edge">
<title>src/cli/format.mjs&#45;&gt;src/main/format.mjs</title>
<path fill="none" stroke="#000000" stroke-width="2" stroke-opacity="0.200000" d="M52.62,-309.91C52.62,-281.78 52.62,-198.04 52.62,-198.04 52.62,-198.04 456.95,-198.04 456.95,-198.04"/>
<polygon fill="#000000" fill-opacity="0.200000" stroke="#000000" stroke-width="2" stroke-opacity="0.200000" points="456.95,-200.14 462.95,-198.04 456.95,-195.94 456.95,-200.14"/>
</g>
<!-- src/main/options/assert&#45;validity.mjs -->
<g id="node22" class="node">
<title>src/main/options/assert&#45;validity.mjs</title>
<g id="a_node22"><a xlink:href="src/main/options/assert-validity.mjs" xlink:title="assert&#45;validity.mjs">
<path fill="#ffffcc" stroke="black" d="M662.33,-280.88C662.33,-280.88 585.42,-280.88 585.42,-280.88 582.46,-280.88 579.5,-277.92 579.5,-274.96 579.5,-274.96 579.5,-269.04 579.5,-269.04 579.5,-266.08 582.46,-263.12 585.42,-263.12 585.42,-263.12 662.33,-263.12 662.33,-263.12 665.29,-263.12 668.25,-266.08 668.25,-269.04 668.25,-269.04 668.25,-274.96 668.25,-274.96 668.25,-277.92 665.29,-280.88 662.33,-280.88"/>
<text xml:space="preserve" text-anchor="start" x="587.5" y="-268.32" font-family="Helvetica,sans-Serif" font-size="9.00">assert&#45;validity.mjs</text>
</a>
</g>
</g>
<!-- src/main/format.mjs&#45;&gt;src/main/options/assert&#45;validity.mjs -->
<g id="edge25" class="edge">
<title>src/main/format.mjs&#45;&gt;src/main/options/assert&#45;validity.mjs</title>
<path fill="none" stroke="#000000" stroke-width="2" stroke-opacity="0.200000" d="M524.72,-206.38C531.93,-206.38 537.62,-206.38 537.62,-206.38 537.62,-206.38 537.62,-267.56 537.62,-267.56 537.62,-267.56 570.21,-267.56 570.21,-267.56"/>
<polygon fill="#000000" fill-opacity="0.200000" stroke="#000000" stroke-width="2" stroke-opacity="0.200000" points="570.21,-269.66 576.21,-267.56 570.21,-265.46 570.21,-269.66"/>
</g>
<!-- src/main/options/normalize.mjs -->
<g id="node23" class="node">
<title>src/main/options/normalize.mjs</title>
<g id="a_node23"><a xlink:href="src/main/options/normalize.mjs" xlink:title="normalize.mjs">
<path fill="#ffffcc" stroke="black" d="M654.46,-250.88C654.46,-250.88 593.29,-250.88 593.29,-250.88 590.33,-250.88 587.38,-247.92 587.38,-244.96 587.38,-244.96 587.38,-239.04 587.38,-239.04 587.38,-236.08 590.33,-233.12 593.29,-233.12 593.29,-233.12 654.46,-233.12 654.46,-233.12 657.42,-233.12 660.38,-236.08 660.38,-239.04 660.38,-239.04 660.38,-244.96 660.38,-244.96 660.38,-247.92 657.42,-250.88 654.46,-250.88"/>
<text xml:space="preserve" text-anchor="start" x="595.38" y="-238.32" font-family="Helvetica,sans-Serif" font-size="9.00">normalize.mjs</text>
</a>
</g>
</g>
<!-- src/main/format.mjs&#45;&gt;src/main/options/normalize.mjs -->
<g id="edge26" class="edge">
<title>src/main/format.mjs&#45;&gt;src/main/options/normalize.mjs</title>
<path fill="none" stroke="#000000" stroke-width="2" stroke-opacity="0.200000" d="M524.8,-199.38C562.66,-199.38 623.62,-199.38 623.62,-199.38 623.62,-199.38 623.62,-223.93 623.62,-223.93"/>
<polygon fill="#000000" fill-opacity="0.200000" stroke="#000000" stroke-width="2" stroke-opacity="0.200000" points="621.53,-223.93 623.63,-229.93 625.73,-223.93 621.53,-223.93"/>
</g>
<!-- src/main/report&#45;wrap.mjs -->
<g id="node24" class="node">
<title>src/main/report&#45;wrap.mjs</title>
<g id="a_node24"><a xlink:href="src/main/report-wrap.mjs" xlink:title="report&#45;wrap.mjs">
<path fill="#ffffcc" stroke="black" d="M657.83,-195.88C657.83,-195.88 589.92,-195.88 589.92,-195.88 586.96,-195.88 584,-192.92 584,-189.96 584,-189.96 584,-184.04 584,-184.04 584,-181.08 586.96,-178.12 589.92,-178.12 589.92,-178.12 657.83,-178.12 657.83,-178.12 660.79,-178.12 663.75,-181.08 663.75,-184.04 663.75,-184.04 663.75,-189.96 663.75,-189.96 663.75,-192.92 660.79,-195.88 657.83,-195.88"/>
<text xml:space="preserve" text-anchor="start" x="592" y="-183.32" font-family="Helvetica,sans-Serif" font-size="9.00">report&#45;wrap.mjs</text>
</a>
</g>
</g>
<!-- src/main/format.mjs&#45;&gt;src/main/report&#45;wrap.mjs -->
<g id="edge27" class="edge">
<title>src/main/format.mjs&#45;&gt;src/main/report&#45;wrap.mjs</title>
<path fill="none" stroke="#000000" stroke-width="2" stroke-opacity="0.200000" d="M495.62,-191.74C495.62,-189.36 495.62,-187.46 495.62,-187.46 495.62,-187.46 574.62,-187.46 574.62,-187.46"/>
<polygon fill="#000000" fill-opacity="0.200000" stroke="#000000" stroke-width="2" stroke-opacity="0.200000" points="574.62,-189.56 580.62,-187.46 574.62,-185.36 574.62,-189.56"/>
</g>
<!-- src/schema/cruise&#45;result.schema.mjs -->
<g id="node27" class="node">
<title>src/schema/cruise&#45;result.schema.mjs</title>
<g id="a_node27"><a xlink:href="src/schema/cruise-result.schema.mjs" xlink:title="cruise&#45;result.schema.mjs">
<path fill="#ffffcc" stroke="black" d="M676.58,-503.88C676.58,-503.88 571.17,-503.88 571.17,-503.88 568.21,-503.88 565.25,-500.92 565.25,-497.96 565.25,-497.96 565.25,-492.04 565.25,-492.04 565.25,-489.08 568.21,-486.12 571.17,-486.12 571.17,-486.12 676.58,-486.12 676.58,-486.12 679.54,-486.12 682.5,-489.08 682.5,-492.04 682.5,-492.04 682.5,-497.96 682.5,-497.96 682.5,-500.92 679.54,-503.88 676.58,-503.88"/>
<text xml:space="preserve" text-anchor="start" x="573.25" y="-491.32" font-family="Helvetica,sans-Serif" font-size="9.00">cruise&#45;result.schema.mjs</text>
</a>
</g>
</g>
<!-- src/main/format.mjs&#45;&gt;src/schema/cruise&#45;result.schema.mjs -->
<g id="edge28" class="edge">
<title>src/main/format.mjs&#45;&gt;src/schema/cruise&#45;result.schema.mjs</title>
<path fill="none" stroke="#000000" stroke-width="2" stroke-opacity="0.200000" d="M524.58,-202.88C546.46,-202.88 572.62,-202.88 572.62,-202.88 572.62,-202.88 572.62,-476.91 572.62,-476.91"/>
<polygon fill="#000000" fill-opacity="0.200000" stroke="#000000" stroke-width="2" stroke-opacity="0.200000" points="570.53,-476.91 572.63,-482.91 574.73,-476.91 570.53,-476.91"/>
</g>
<!-- src/cli/index.mjs -->
<g id="node8" class="node">
<title>src/cli/index.mjs</title>
<g id="a_node8"><a xlink:href="src/cli/index.mjs" xlink:title="index.mjs">
<path fill="#ffffcc" stroke="black" d="M74.58,-357.88C74.58,-357.88 31.42,-357.88 31.42,-357.88 28.46,-357.88 25.5,-354.92 25.5,-351.96 25.5,-351.96 25.5,-346.04 25.5,-346.04 25.5,-343.08 28.46,-340.12 31.42,-340.12 31.42,-340.12 74.58,-340.12 74.58,-340.12 77.54,-340.12 80.5,-343.08 80.5,-346.04 80.5,-346.04 80.5,-351.96 80.5,-351.96 80.5,-354.92 77.54,-357.88 74.58,-357.88"/>
<text xml:space="preserve" text-anchor="start" x="33.5" y="-345.32" font-family="Helvetica,sans-Serif" font-size="9.00">index.mjs</text>
</a>
</g>
</g>
<!-- src/cli/index.mjs&#45;&gt;src/utl/bus.mjs -->
<g id="edge7" class="edge">
<title>src/cli/index.mjs&#45;&gt;src/utl/bus.mjs</title>
<path fill="none" stroke="#000000" stroke-width="2" stroke-opacity="0.200000" d="M39.62,-358.03C39.62,-410.52 39.62,-674 39.62,-674 39.62,-674 860.62,-674 860.62,-674 860.62,-674 860.62,-674.58 860.62,-674.58"/>
<polygon fill="#000000" fill-opacity="0.200000" stroke="#000000" stroke-width="2" stroke-opacity="0.200000" points="858.53,-670.73 860.63,-676.73 862.73,-670.73 858.53,-670.73"/>
</g>
<!-- src/cli/index.mjs&#45;&gt;src/cli/format&#45;meta&#45;info.mjs -->
<g id="edge5" class="edge">
<title>src/cli/index.mjs&#45;&gt;src/cli/format&#45;meta&#45;info.mjs</title>
<path fill="none" stroke="#000000" stroke-width="2" stroke-dasharray="5,2" stroke-opacity="0.200000" d="M80.99,-349C80.99,-349 85.81,-349 85.81,-349"/>
<polygon fill="#000000" fill-opacity="0.200000" stroke="#000000" stroke-width="2" stroke-opacity="0.200000" points="85.81,-351.1 91.81,-349 85.81,-346.9 85.81,-351.1"/>
</g>
<!-- src/cli/index.mjs&#45;&gt;src/main/cruise.mjs -->
<g id="edge6" class="edge">
<title>src/cli/index.mjs&#45;&gt;src/main/cruise.mjs</title>
<path fill="none" stroke="#000000" stroke-width="2" stroke-opacity="0.200000" d="M66.62,-358.32C66.62,-362.3 66.62,-366.04 66.62,-366.04 66.62,-366.04 338.62,-366.04 338.62,-366.04 338.62,-366.04 338.62,-365.27 338.62,-365.27"/>
<polygon fill="#000000" fill-opacity="0.200000" stroke="#000000" stroke-width="2" stroke-opacity="0.200000" points="340.73,-367.35 338.63,-361.35 336.53,-367.35 340.73,-367.35"/>
</g>
<!-- src/utl/object&#45;util.mjs -->
<g id="node10" class="node">
<title>src/utl/object&#45;util.mjs</title>
<g id="a_node10"><a xlink:href="src/utl/object-util.mjs" xlink:title="object&#45;util.mjs">
<path fill="#ffffcc" stroke="black" d="M890.96,-667.88C890.96,-667.88 830.54,-667.88 830.54,-667.88 827.58,-667.88 824.62,-664.92 824.62,-661.96 824.62,-661.96 824.62,-656.04 824.62,-656.04 824.62,-653.08 827.58,-650.12 830.54,-650.12 830.54,-650.12 890.96,-650.12 890.96,-650.12 893.92,-650.12 896.88,-653.08 896.88,-656.04 896.88,-656.04 896.88,-661.96 896.88,-661.96 896.88,-664.92 893.92,-667.88 890.96,-667.88"/>
<text xml:space="preserve" text-anchor="start" x="832.62" y="-655.33" font-family="Helvetica,sans-Serif" font-size="9.00">object&#45;util.mjs</text>
</a>
</g>
</g>
<!-- src/cli/index.mjs&#45;&gt;src/utl/object&#45;util.mjs -->
<g id="edge8" class="edge">
<title>src/cli/index.mjs&#45;&gt;src/utl/object&#45;util.mjs</title>
<path fill="none" stroke="#000000" stroke-width="2" stroke-opacity="0.200000" d="M52.62,-358.07C52.62,-409.63 52.62,-663.44 52.62,-663.44 52.62,-663.44 815.16,-663.44 815.16,-663.44"/>
<polygon fill="#000000" fill-opacity="0.200000" stroke="#000000" stroke-width="2" stroke-opacity="0.200000" points="815.16,-665.54 821.16,-663.44 815.16,-661.34 815.16,-665.54"/>
</g>
<!-- src/main/cruise.mjs&#45;&gt;src/cache/cache.mjs -->
<g id="edge21" class="edge">
<title>src/main/cruise.mjs&#45;&gt;src/cache/cache.mjs</title>
<path fill="none" stroke="#000000" stroke-width="2" stroke-dasharray="5,2" stroke-opacity="0.200000" d="M347.62,-358.24C347.62,-415.84 347.62,-723 347.62,-723 347.62,-723 457.51,-723 457.51,-723"/>
<polygon fill="#000000" fill-opacity="0.200000" stroke="#000000" stroke-width="2" stroke-opacity="0.200000" points="457.51,-725.1 463.51,-723 457.51,-720.9 457.51,-725.1"/>
</g>
<!-- src/main/cruise.mjs&#45;&gt;src/utl/bus.mjs -->
<g id="edge24" class="edge">
<title>src/main/cruise.mjs&#45;&gt;src/utl/bus.mjs</title>
<path fill="none" stroke="#000000" stroke-width="2" stroke-opacity="0.200000" d="M386.51,-346.04C467.28,-346.04 689.62,-346.04 689.62,-346.04 689.62,-346.04 689.62,-684.56 689.62,-684.56 689.62,-684.56 824.23,-684.56 824.23,-684.56"/>
<polygon fill="#000000" fill-opacity="0.200000" stroke="#000000" stroke-width="2" stroke-opacity="0.200000" points="824.23,-686.66 830.23,-684.56 824.23,-682.46 824.23,-686.66"/>
</g>
<!-- src/main/resolve&#45;options/normalize.mjs -->
<g id="node12" class="node">
<title>src/main/resolve&#45;options/normalize.mjs</title>
<g id="a_node12"><a xlink:href="src/main/resolve-options/normalize.mjs" xlink:title="normalize.mjs">
<path fill="#ffffcc" stroke="black" d="M525.96,-243.88C525.96,-243.88 464.79,-243.88 464.79,-243.88 461.83,-243.88 458.88,-240.92 458.88,-237.96 458.88,-237.96 458.88,-232.04 458.88,-232.04 458.88,-229.08 461.83,-226.12 464.79,-226.12 464.79,-226.12 525.96,-226.12 525.96,-226.12 528.92,-226.12 531.88,-229.08 531.88,-232.04 531.88,-232.04 531.88,-237.96 531.88,-237.96 531.88,-240.92 528.92,-243.88 525.96,-243.88"/>
<text xml:space="preserve" text-anchor="start" x="466.88" y="-231.32" font-family="Helvetica,sans-Serif" font-size="9.00">normalize.mjs</text>
</a>
</g>
</g>
<!-- src/main/cruise.mjs&#45;&gt;src/main/resolve&#45;options/normalize.mjs -->
<g id="edge18" class="edge">
<title>src/main/cruise.mjs&#45;&gt;src/main/resolve&#45;options/normalize.mjs</title>
<path fill="none" stroke="#000000" stroke-width="2" stroke-dasharray="5,2" stroke-opacity="0.200000" d="M348.62,-339.67C348.62,-312.44 348.62,-235 348.62,-235 348.62,-235 449.7,-235 449.7,-235"/>
<polygon fill="#000000" fill-opacity="0.200000" stroke="#000000" stroke-width="2" stroke-opacity="0.200000" points="449.7,-237.1 455.7,-235 449.7,-232.9 449.7,-237.1"/>
</g>
<!-- src/enrich/index.mjs -->
<g id="node13" class="node">
<title>src/enrich/index.mjs</title>
<g id="a_node13"><a xlink:href="src/enrich/index.mjs" xlink:title="index.mjs">
<path fill="#ffffcc" stroke="black" d="M645.46,-601.88C645.46,-601.88 602.29,-601.88 602.29,-601.88 599.33,-601.88 596.38,-598.92 596.38,-595.96 596.38,-595.96 596.38,-590.04 596.38,-590.04 596.38,-587.08 599.33,-584.12 602.29,-584.12 602.29,-584.12 645.46,-584.12 645.46,-584.12 648.42,-584.12 651.38,-587.08 651.38,-590.04 651.38,-590.04 651.38,-595.96 651.38,-595.96 651.38,-598.92 648.42,-601.88 645.46,-601.88"/>
<text xml:space="preserve" text-anchor="start" x="604.38" y="-589.33" font-family="Helvetica,sans-Serif" font-size="9.00">index.mjs</text>
</a>
</g>
</g>
<!-- src/main/cruise.mjs&#45;&gt;src/enrich/index.mjs -->
<g id="edge22" class="edge">
<title>src/main/cruise.mjs&#45;&gt;src/enrich/index.mjs</title>
<path fill="none" stroke="#000000" stroke-width="2" stroke-dasharray="5,2" stroke-opacity="0.200000" d="M367.62,-358.27C367.62,-402.84 367.62,-593 367.62,-593 367.62,-593 586.94,-593 586.94,-593"/>
<polygon fill="#000000" fill-opacity="0.200000" stroke="#000000" stroke-width="2" stroke-opacity="0.200000" points="586.94,-595.1 592.94,-593 586.94,-590.9 586.94,-595.1"/>
</g>
<!-- src/extract/index.mjs -->
<g id="node16" class="node">
<title>src/extract/index.mjs</title>
<g id="a_node16"><a xlink:href="src/extract/index.mjs" xlink:title="index.mjs">
<path fill="#ffffcc" stroke="black" d="M645.46,-697.88C645.46,-697.88 602.29,-697.88 602.29,-697.88 599.33,-697.88 596.38,-694.92 596.38,-691.96 596.38,-691.96 596.38,-686.04 596.38,-686.04 596.38,-683.08 599.33,-680.12 602.29,-680.12 602.29,-680.12 645.46,-680.12 645.46,-680.12 648.42,-680.12 651.38,-683.08 651.38,-686.04 651.38,-686.04 651.38,-691.96 651.38,-691.96 651.38,-694.92 648.42,-697.88 645.46,-697.88"/>
<text xml:space="preserve" text-anchor="start" x="604.38" y="-685.33" font-family="Helvetica,sans-Serif" font-size="9.00">index.mjs</text>
</a>
</g>
</g>
<!-- src/main/cruise.mjs&#45;&gt;src/extract/index.mjs -->
<g id="edge23" class="edge">
<title>src/main/cruise.mjs&#45;&gt;src/extract/index.mjs</title>
<path fill="none" stroke="#000000" stroke-width="2" stroke-dasharray="5,2" stroke-opacity="0.200000" d="M357.62,-358.09C357.62,-412.16 357.62,-689 357.62,-689 357.62,-689 586.86,-689 586.86,-689"/>
<polygon fill="#000000" fill-opacity="0.200000" stroke="#000000" stroke-width="2" stroke-opacity="0.200000" points="586.86,-691.1 592.86,-689 586.86,-686.9 586.86,-691.1"/>
</g>
<!-- src/main/files&#45;and&#45;dirs/normalize.mjs -->
<g id="node21" class="node">
<title>src/main/files&#45;and&#45;dirs/normalize.mjs</title>
<g id="a_node21"><a xlink:href="src/main/files-and-dirs/normalize.mjs" xlink:title="normalize.mjs">
<path fill="#ffffcc" stroke="black" d="M525.96,-327.88C525.96,-327.88 464.79,-327.88 464.79,-327.88 461.83,-327.88 458.88,-324.92 458.88,-321.96 458.88,-321.96 458.88,-316.04 458.88,-316.04 458.88,-313.08 461.83,-310.12 464.79,-310.12 464.79,-310.12 525.96,-310.12 525.96,-310.12 528.92,-310.12 531.88,-313.08 531.88,-316.04 531.88,-316.04 531.88,-321.96 531.88,-321.96 531.88,-324.92 528.92,-327.88 525.96,-327.88"/>
<text xml:space="preserve" text-anchor="start" x="466.88" y="-315.32" font-family="Helvetica,sans-Serif" font-size="9.00">normalize.mjs</text>
</a>
</g>
</g>
<!-- src/main/cruise.mjs&#45;&gt;src/main/files&#45;and&#45;dirs/normalize.mjs -->
<g id="edge14" class="edge">
<title>src/main/cruise.mjs&#45;&gt;src/main/files&#45;and&#45;dirs/normalize.mjs</title>
<path fill="none" stroke="#000000" stroke-width="2" stroke-dasharray="5,2" stroke-opacity="0.200000" d="M375.62,-339.84C375.62,-331.01 375.62,-319 375.62,-319 375.62,-319 449.44,-319 449.44,-319"/>
<polygon fill="#000000" fill-opacity="0.200000" stroke="#000000" stroke-width="2" stroke-opacity="0.200000" points="449.44,-321.1 455.44,-319 449.44,-316.9 449.44,-321.1"/>
</g>
<!-- src/main/cruise.mjs&#45;&gt;src/main/options/assert&#45;validity.mjs -->
<g id="edge15" class="edge">
<title>src/main/cruise.mjs&#45;&gt;src/main/options/assert&#45;validity.mjs</title>
<path fill="none" stroke="#000000" stroke-width="2" stroke-opacity="0.200000" d="M366.62,-339.86C366.62,-319.47 366.62,-272 366.62,-272 366.62,-272 570.04,-272 570.04,-272"/>
<polygon fill="#000000" fill-opacity="0.200000" stroke="#000000" stroke-width="2" stroke-opacity="0.200000" points="570.04,-274.1 576.04,-272 570.04,-269.9 570.04,-274.1"/>
</g>
<!-- src/main/cruise.mjs&#45;&gt;src/main/options/normalize.mjs -->
<g id="edge16" class="edge">
<title>src/main/cruise.mjs&#45;&gt;src/main/options/normalize.mjs</title>
<path fill="none" stroke="#000000" stroke-width="2" stroke-opacity="0.200000" d="M357.62,-339.98C357.62,-315.11 357.62,-247.38 357.62,-247.38 357.62,-247.38 578.11,-247.38 578.11,-247.38"/>
<polygon fill="#000000" fill-opacity="0.200000" stroke="#000000" stroke-width="2" stroke-opacity="0.200000" points="578.11,-249.48 584.11,-247.38 578.11,-245.28 578.11,-249.48"/>
</g>
<!-- src/main/cruise.mjs&#45;&gt;src/main/report&#45;wrap.mjs -->
<g id="edge17" class="edge">
<title>src/main/cruise.mjs&#45;&gt;src/main/report&#45;wrap.mjs</title>
<path fill="none" stroke="#000000" stroke-width="2" stroke-opacity="0.200000" d="M339.62,-340.06C339.62,-305.54 339.62,-182.79 339.62,-182.79 339.62,-182.79 574.72,-182.79 574.72,-182.79"/>
<polygon fill="#000000" fill-opacity="0.200000" stroke="#000000" stroke-width="2" stroke-opacity="0.200000" points="574.72,-184.89 580.72,-182.79 574.72,-180.69 574.72,-184.89"/>
</g>
<!-- src/main/rule&#45;set/assert&#45;validity.mjs -->
<g id="node25" class="node">
<title>src/main/rule&#45;set/assert&#45;validity.mjs</title>
<g id="a_node25"><a xlink:href="src/main/rule-set/assert-validity.mjs" xlink:title="assert&#45;validity.mjs">
<path fill="#ffffcc" stroke="black" d="M533.83,-417.88C533.83,-417.88 456.92,-417.88 456.92,-417.88 453.96,-417.88 451,-414.92 451,-411.96 451,-411.96 451,-406.04 451,-406.04 451,-403.08 453.96,-400.12 456.92,-400.12 456.92,-400.12 533.83,-400.12 533.83,-400.12 536.79,-400.12 539.75,-403.08 539.75,-406.04 539.75,-406.04 539.75,-411.96 539.75,-411.96 539.75,-414.92 536.79,-417.88 533.83,-417.88"/>
<text xml:space="preserve" text-anchor="start" x="459" y="-405.32" font-family="Helvetica,sans-Serif" font-size="9.00">assert&#45;validity.mjs</text>
</a>
</g>
</g>
<!-- src/main/cruise.mjs&#45;&gt;src/main/rule&#45;set/assert&#45;validity.mjs -->
<g id="edge19" class="edge">
<title>src/main/cruise.mjs&#45;&gt;src/main/rule&#45;set/assert&#45;validity.mjs</title>
<path fill="none" stroke="#000000" stroke-width="2" stroke-dasharray="5,2" stroke-opacity="0.200000" d="M386.73,-351.96C415.3,-351.96 454.62,-351.96 454.62,-351.96 454.62,-351.96 454.62,-390.81 454.62,-390.81"/>
<polygon fill="#000000" fill-opacity="0.200000" stroke="#000000" stroke-width="2" stroke-opacity="0.200000" points="452.53,-390.81 454.63,-396.81 456.73,-390.81 452.53,-390.81"/>
</g>
<!-- src/main/rule&#45;set/normalize.mjs -->
<g id="node26" class="node">
<title>src/main/rule&#45;set/normalize.mjs</title>
<g id="a_node26"><a xlink:href="src/main/rule-set/normalize.mjs" xlink:title="normalize.mjs">
<path fill="#ffffcc" stroke="black" d="M525.96,-387.88C525.96,-387.88 464.79,-387.88 464.79,-387.88 461.83,-387.88 458.88,-384.92 458.88,-381.96 458.88,-381.96 458.88,-376.04 458.88,-376.04 458.88,-373.08 461.83,-370.12 464.79,-370.12 464.79,-370.12 525.96,-370.12 525.96,-370.12 528.92,-370.12 531.88,-373.08 531.88,-376.04 531.88,-376.04 531.88,-381.96 531.88,-381.96 531.88,-384.92 528.92,-387.88 525.96,-387.88"/>
<text xml:space="preserve" text-anchor="start" x="466.88" y="-375.32" font-family="Helvetica,sans-Serif" font-size="9.00">normalize.mjs</text>
</a>
</g>
</g>
<!-- src/main/cruise.mjs&#45;&gt;src/main/rule&#45;set/normalize.mjs -->
<g id="edge20" class="edge">
<title>src/main/cruise.mjs&#45;&gt;src/main/rule&#45;set/normalize.mjs</title>
<path fill="none" stroke="#000000" stroke-width="2" stroke-dasharray="5,2" stroke-opacity="0.200000" d="M376.62,-358.16C376.62,-366.99 376.62,-379 376.62,-379 376.62,-379 449.43,-379 449.43,-379"/>
<polygon fill="#000000" fill-opacity="0.200000" stroke="#000000" stroke-width="2" stroke-opacity="0.200000" points="449.43,-381.1 455.43,-379 449.43,-376.9 449.43,-381.1"/>
</g>
<!-- src/config&#45;utl/extract&#45;depcruise&#45;config/index.mjs -->
<g id="node11" class="node">
<title>src/config&#45;utl/extract&#45;depcruise&#45;config/index.mjs</title>
<g id="a_node11"><a xlink:href="src/config-utl/extract-depcruise-config/index.mjs" xlink:title="index.mjs">
<path fill="#ffffcc" stroke="black" d="M379.21,-109.88C379.21,-109.88 336.04,-109.88 336.04,-109.88 333.08,-109.88 330.12,-106.92 330.12,-103.96 330.12,-103.96 330.12,-98.04 330.12,-98.04 330.12,-95.08 333.08,-92.12 336.04,-92.12 336.04,-92.12 379.21,-92.12 379.21,-92.12 382.17,-92.12 385.12,-95.08 385.12,-98.04 385.12,-98.04 385.12,-103.96 385.12,-103.96 385.12,-106.92 382.17,-109.88 379.21,-109.88"/>
<text xml:space="preserve" text-anchor="start" x="338.12" y="-97.33" font-family="Helvetica,sans-Serif" font-size="9.00">index.mjs</text>
</a>
</g>
</g>
<!-- src/config&#45;utl/extract&#45;depcruise&#45;config/index.mjs&#45;&gt;src/main/resolve&#45;options/normalize.mjs -->
<g id="edge9" class="edge">
<title>src/config&#45;utl/extract&#45;depcruise&#45;config/index.mjs&#45;&gt;src/main/resolve&#45;options/normalize.mjs</title>
<path fill="none" stroke="#000000" stroke-width="2" stroke-opacity="0.200000" d="M385.49,-105.88C416.59,-105.88 462.62,-105.88 462.62,-105.88 462.62,-105.88 462.62,-216.69 462.62,-216.69"/>
<polygon fill="#000000" fill-opacity="0.200000" stroke="#000000" stroke-width="2" stroke-opacity="0.200000" points="460.53,-216.69 462.63,-222.69 464.73,-216.69 460.53,-216.69"/>
</g>
<!-- src/main/resolve&#45;options/normalize.mjs&#45;&gt;src/extract/transpile/meta.mjs -->
<g id="edge43" class="edge">
<title>src/main/resolve&#45;options/normalize.mjs&#45;&gt;src/extract/transpile/meta.mjs</title>
<path fill="none" stroke="#000000" stroke-width="2" stroke-opacity="0.200000" d="M532.16,-238.5C544.7,-238.5 555.62,-238.5 555.62,-238.5 555.62,-238.5 555.62,-718.56 555.62,-718.56 555.62,-718.56 587.48,-718.56 587.48,-718.56"/>
<polygon fill="#000000" fill-opacity="0.200000" stroke="#000000" stroke-width="2" stroke-opacity="0.200000" points="587.48,-720.66 593.48,-718.56 587.48,-716.46 587.48,-720.66"/>
</g>
<!-- src/graph&#45;utl/rule&#45;set.mjs -->
<g id="node19" class="node">
<title>src/graph&#45;utl/rule&#45;set.mjs</title>
<g id="a_node19"><a xlink:href="src/graph-utl/rule-set.mjs" xlink:title="rule&#45;set.mjs">
<path fill="#ffffcc" stroke="black" d="M886.46,-41.88C886.46,-41.88 835.04,-41.88 835.04,-41.88 832.08,-41.88 829.12,-38.92 829.12,-35.96 829.12,-35.96 829.12,-30.04 829.12,-30.04 829.12,-27.08 832.08,-24.12 835.04,-24.12 835.04,-24.12 886.46,-24.12 886.46,-24.12 889.42,-24.12 892.38,-27.08 892.38,-30.04 892.38,-30.04 892.38,-35.96 892.38,-35.96 892.38,-38.92 889.42,-41.88 886.46,-41.88"/>
<text xml:space="preserve" text-anchor="start" x="837.12" y="-29.32" font-family="Helvetica,sans-Serif" font-size="9.00">rule&#45;set.mjs</text>
</a>
</g>
</g>
<!-- src/main/resolve&#45;options/normalize.mjs&#45;&gt;src/graph&#45;utl/rule&#45;set.mjs -->
<g id="edge44" class="edge">
<title>src/main/resolve&#45;options/normalize.mjs&#45;&gt;src/graph&#45;utl/rule&#45;set.mjs</title>
<path fill="none" stroke="#000000" stroke-width="2" stroke-opacity="0.200000" d="M527.62,-225.8C527.62,-186.28 527.62,-33 527.62,-33 527.62,-33 819.78,-33 819.78,-33"/>
<polygon fill="#000000" fill-opacity="0.200000" stroke="#000000" stroke-width="2" stroke-opacity="0.200000" points="819.78,-35.1 825.78,-33 819.78,-30.9 819.78,-35.1"/>
</g>
<!-- src/enrich/index.mjs&#45;&gt;src/utl/bus.mjs -->
<g id="edge11" class="edge">
<title>src/enrich/index.mjs&#45;&gt;src/utl/bus.mjs</title>
<path fill="none" stroke="#000000" stroke-width="2" stroke-opacity="0.200000" d="M651.58,-597.44C668.39,-597.44 686.62,-597.44 686.62,-597.44 686.62,-597.44 686.62,-689 686.62,-689 686.62,-689 824.52,-689 824.52,-689"/>
<polygon fill="#000000" fill-opacity="0.200000" stroke="#000000" stroke-width="2" stroke-opacity="0.200000" points="824.52,-691.1 830.52,-689 824.52,-686.9 824.52,-691.1"/>
</g>
<!-- src/enrich/summarize/index.mjs -->
<g id="node14" class="node">
<title>src/enrich/summarize/index.mjs</title>
<g id="a_node14"><a xlink:href="src/enrich/summarize/index.mjs" xlink:title="index.mjs">
<path fill="#ffffcc" stroke="black" d="M757.08,-601.88C757.08,-601.88 713.92,-601.88 713.92,-601.88 710.96,-601.88 708,-598.92 708,-595.96 708,-595.96 708,-590.04 708,-590.04 708,-587.08 710.96,-584.12 713.92,-584.12 713.92,-584.12 757.08,-584.12 757.08,-584.12 760.04,-584.12 763,-587.08 763,-590.04 763,-590.04 763,-595.96 763,-595.96 763,-598.92 760.04,-601.88 757.08,-601.88"/>
<text xml:space="preserve" text-anchor="start" x="716" y="-589.33" font-family="Helvetica,sans-Serif" font-size="9.00">index.mjs</text>
</a>
</g>
</g>
<!-- src/enrich/index.mjs&#45;&gt;src/enrich/summarize/index.mjs -->
<g id="edge10" class="edge">
<title>src/enrich/index.mjs&#45;&gt;src/enrich/summarize/index.mjs</title>
<path fill="none" stroke="#000000" stroke-width="2" stroke-opacity="0.200000" d="M651.75,-593C651.75,-593 698.56,-593 698.56,-593"/>
<polygon fill="#000000" fill-opacity="0.200000" stroke="#000000" stroke-width="2" stroke-opacity="0.200000" points="698.56,-595.1 704.56,-593 698.56,-590.9 698.56,-595.1"/>
</g>
<!-- src/graph&#45;utl/compare.mjs -->
<g id="node15" class="node">
<title>src/graph&#45;utl/compare.mjs</title>
<g id="a_node15"><a xlink:href="src/graph-utl/compare.mjs" xlink:title="compare.mjs">
<path fill="#ffffcc" stroke="black" d="M889.08,-161.88C889.08,-161.88 832.42,-161.88 832.42,-161.88 829.46,-161.88 826.5,-158.92 826.5,-155.96 826.5,-155.96 826.5,-150.04 826.5,-150.04 826.5,-147.08 829.46,-144.12 832.42,-144.12 832.42,-144.12 889.08,-144.12 889.08,-144.12 892.04,-144.12 895,-147.08 895,-150.04 895,-150.04 895,-155.96 895,-155.96 895,-158.92 892.04,-161.88 889.08,-161.88"/>
<text xml:space="preserve" text-anchor="start" x="834.5" y="-149.32" font-family="Helvetica,sans-Serif" font-size="9.00">compare.mjs</text>
</a>
</g>
</g>
<!-- src/enrich/summarize/index.mjs&#45;&gt;src/graph&#45;utl/compare.mjs -->
<g id="edge12" class="edge">
<title>src/enrich/summarize/index.mjs&#45;&gt;src/graph&#45;utl/compare.mjs</title>
<path fill="none" stroke="#000000" stroke-width="2" stroke-opacity="0.200000" d="M763.25,-593C803.32,-593 872.62,-593 872.62,-593 872.62,-593 872.62,-171.22 872.62,-171.22"/>
<polygon fill="#000000" fill-opacity="0.200000" stroke="#000000" stroke-width="2" stroke-opacity="0.200000" points="874.73,-171.22 872.63,-165.22 870.53,-171.22 874.73,-171.22"/>
</g>
<!-- src/extract/index.mjs&#45;&gt;src/utl/bus.mjs -->
<g id="edge13" class="edge">
<title>src/extract/index.mjs&#45;&gt;src/utl/bus.mjs</title>
<path fill="none" stroke="#000000" stroke-width="2" stroke-opacity="0.200000" d="M651.51,-693.44C651.51,-693.44 824.26,-693.44 824.26,-693.44"/>
<polygon fill="#000000" fill-opacity="0.200000" stroke="#000000" stroke-width="2" stroke-opacity="0.200000" points="824.26,-695.54 830.26,-693.44 824.26,-691.34 824.26,-695.54"/>
</g>
<!-- src/graph&#45;utl/consolidate&#45;to&#45;pattern.mjs -->
<g id="node17" class="node">
<title>src/graph&#45;utl/consolidate&#45;to&#45;pattern.mjs</title>
<g id="a_node17"><a xlink:href="src/graph-utl/consolidate-to-pattern.mjs" xlink:title="consolidate&#45;to&#45;pattern.mjs">
<path fill="#ffffcc" stroke="black" d="M915.71,-101.88C915.71,-101.88 805.79,-101.88 805.79,-101.88 802.83,-101.88 799.88,-98.92 799.88,-95.96 799.88,-95.96 799.88,-90.04 799.88,-90.04 799.88,-87.08 802.83,-84.12 805.79,-84.12 805.79,-84.12 915.71,-84.12 915.71,-84.12 918.67,-84.12 921.62,-87.08 921.62,-90.04 921.62,-90.04 921.62,-95.96 921.62,-95.96 921.62,-98.92 918.67,-101.88 915.71,-101.88"/>
<text xml:space="preserve" text-anchor="start" x="807.88" y="-89.33" font-family="Helvetica,sans-Serif" font-size="9.00">consolidate&#45;to&#45;pattern.mjs</text>
</a>
</g>
</g>
<!-- src/graph&#45;utl/filter&#45;bank.mjs -->
<g id="node18" class="node">
<title>src/graph&#45;utl/filter&#45;bank.mjs</title>
<g id="a_node18"><a xlink:href="src/graph-utl/filter-bank.mjs" xlink:title="filter&#45;bank.mjs">
<path fill="#ffffcc" stroke="black" d="M891.33,-131.88C891.33,-131.88 830.17,-131.88 830.17,-131.88 827.21,-131.88 824.25,-128.92 824.25,-125.96 824.25,-125.96 824.25,-120.04 824.25,-120.04 824.25,-117.08 827.21,-114.12 830.17,-114.12 830.17,-114.12 891.33,-114.12 891.33,-114.12 894.29,-114.12 897.25,-117.08 897.25,-120.04 897.25,-120.04 897.25,-125.96 897.25,-125.96 897.25,-128.92 894.29,-131.88 891.33,-131.88"/>
<text xml:space="preserve" text-anchor="start" x="832.25" y="-119.33" font-family="Helvetica,sans-Serif" font-size="9.00">filter&#45;bank.mjs</text>
</a>
</g>
</g>
<!-- src/graph&#45;utl/strip&#45;self&#45;transitions.mjs -->
<g id="node20" class="node">
<title>src/graph&#45;utl/strip&#45;self&#45;transitions.mjs</title>
<g id="a_node20"><a xlink:href="src/graph-utl/strip-self-transitions.mjs" xlink:title="strip&#45;self&#45;transitions.mjs">
<path fill="#ffffcc" stroke="black" d="M910.83,-71.88C910.83,-71.88 810.67,-71.88 810.67,-71.88 807.71,-71.88 804.75,-68.92 804.75,-65.96 804.75,-65.96 804.75,-60.04 804.75,-60.04 804.75,-57.08 807.71,-54.12 810.67,-54.12 810.67,-54.12 910.83,-54.12 910.83,-54.12 913.79,-54.12 916.75,-57.08 916.75,-60.04 916.75,-60.04 916.75,-65.96 916.75,-65.96 916.75,-68.92 913.79,-71.88 910.83,-71.88"/>
<text xml:space="preserve" text-anchor="start" x="812.75" y="-59.33" font-family="Helvetica,sans-Serif" font-size="9.00">strip&#45;self&#45;transitions.mjs</text>
</a>
</g>
</g>
<!-- src/report/index.mjs -->
<g id="node30" class="node">
<title>src/report/index.mjs</title>
<g id="a_node30"><a xlink:href="src/report/index.mjs" xlink:title="index.mjs">
<path fill="#ffffcc" stroke="black" d="M757.08,-135.88C757.08,-135.88 713.92,-135.88 713.92,-135.88 710.96,-135.88 708,-132.92 708,-129.96 708,-129.96 708,-124.04 708,-124.04 708,-121.08 710.96,-118.12 713.92,-118.12 713.92,-118.12 757.08,-118.12 757.08,-118.12 760.04,-118.12 763,-121.08 763,-124.04 763,-124.04 763,-129.96 763,-129.96 763,-132.92 760.04,-135.88 757.08,-135.88"/>
<text xml:space="preserve" text-anchor="start" x="716" y="-123.33" font-family="Helvetica,sans-Serif" font-size="9.00">index.mjs</text>
</a>
</g>
</g>
<!-- src/main/options/assert&#45;validity.mjs&#45;&gt;src/report/index.mjs -->
<g id="edge33" class="edge">
<title>src/main/options/assert&#45;validity.mjs&#45;&gt;src/report/index.mjs</title>
<path fill="none" stroke="#000000" stroke-width="2" stroke-opacity="0.200000" d="M668.52,-272C685.41,-272 700.62,-272 700.62,-272 700.62,-272 700.62,-127 700.62,-127 700.62,-127 701.33,-127 701.33,-127"/>
<polygon fill="#000000" fill-opacity="0.200000" stroke="#000000" stroke-width="2" stroke-opacity="0.200000" points="698.66,-129.1 704.66,-127 698.66,-124.9 698.66,-129.1"/>
</g>
<!-- src/main/helpers.mjs -->
<g id="node28" class="node">
<title>src/main/helpers.mjs</title>
<g id="a_node28"><a xlink:href="src/main/helpers.mjs" xlink:title="helpers.mjs">
<path fill="#ffffcc" stroke="black" d="M761.21,-398.88C761.21,-398.88 709.79,-398.88 709.79,-398.88 706.83,-398.88 703.88,-395.92 703.88,-392.96 703.88,-392.96 703.88,-387.04 703.88,-387.04 703.88,-384.08 706.83,-381.12 709.79,-381.12 709.79,-381.12 761.21,-381.12 761.21,-381.12 764.17,-381.12 767.12,-384.08 767.12,-387.04 767.12,-387.04 767.12,-392.96 767.12,-392.96 767.12,-395.92 764.17,-398.88 761.21,-398.88"/>
<text xml:space="preserve" text-anchor="start" x="711.88" y="-386.32" font-family="Helvetica,sans-Serif" font-size="9.00">helpers.mjs</text>
</a>
</g>
</g>
<!-- src/main/options/normalize.mjs&#45;&gt;src/main/helpers.mjs -->
<g id="edge34" class="edge">
<title>src/main/options/normalize.mjs&#45;&gt;src/main/helpers.mjs</title>
<path fill="none" stroke="#000000" stroke-width="2" stroke-opacity="0.200000" d="M660.75,-242C679.19,-242 697.62,-242 697.62,-242 697.62,-242 697.62,-391.29 697.62,-391.29 697.62,-391.29 698.22,-391.29 698.22,-391.29"/>
<polygon fill="#000000" fill-opacity="0.200000" stroke="#000000" stroke-width="2" stroke-opacity="0.200000" points="694.52,-393.39 700.52,-391.29 694.52,-389.19 694.52,-393.39"/>
</g>
<!-- src/main/options/defaults.mjs -->
<g id="node31" class="node">
<title>src/main/options/defaults.mjs</title>
<g id="a_node31"><a xlink:href="src/main/options/defaults.mjs" xlink:title="defaults.mjs">
<path fill="#ffffcc" stroke="black" d="M761.96,-250.88C761.96,-250.88 709.04,-250.88 709.04,-250.88 706.08,-250.88 703.12,-247.92 703.12,-244.96 703.12,-244.96 703.12,-239.04 703.12,-239.04 703.12,-236.08 706.08,-233.12 709.04,-233.12 709.04,-233.12 761.96,-233.12 761.96,-233.12 764.92,-233.12 767.88,-236.08 767.88,-239.04 767.88,-239.04 767.88,-244.96 767.88,-244.96 767.88,-247.92 764.92,-250.88 761.96,-250.88"/>
<text xml:space="preserve" text-anchor="start" x="711.12" y="-238.32" font-family="Helvetica,sans-Serif" font-size="9.00">defaults.mjs</text>
</a>
</g>
</g>
<!-- src/main/options/normalize.mjs&#45;&gt;src/main/options/defaults.mjs -->
<g id="edge35" class="edge">
<title>src/main/options/normalize.mjs&#45;&gt;src/main/options/defaults.mjs</title>
<path fill="none" stroke="#000000" stroke-width="2" stroke-opacity="0.200000" d="M660.73,-237.56C660.73,-237.56 693.78,-237.56 693.78,-237.56"/>
<polygon fill="#000000" fill-opacity="0.200000" stroke="#000000" stroke-width="2" stroke-opacity="0.200000" points="693.78,-239.66 699.78,-237.56 693.78,-235.46 693.78,-239.66"/>
</g>
<!-- src/utl/array&#45;util.mjs -->
<g id="node32" class="node">
<title>src/utl/array&#45;util.mjs</title>
<g id="a_node32"><a xlink:href="src/utl/array-util.mjs" xlink:title="array&#45;util.mjs">
<path fill="#ffffcc" stroke="black" d="M889.08,-637.88C889.08,-637.88 832.42,-637.88 832.42,-637.88 829.46,-637.88 826.5,-634.92 826.5,-631.96 826.5,-631.96 826.5,-626.04 826.5,-626.04 826.5,-623.08 829.46,-620.12 832.42,-620.12 832.42,-620.12 889.08,-620.12 889.08,-620.12 892.04,-620.12 895,-623.08 895,-626.04 895,-626.04 895,-631.96 895,-631.96 895,-634.92 892.04,-637.88 889.08,-637.88"/>
<text xml:space="preserve" text-anchor="start" x="834.5" y="-625.33" font-family="Helvetica,sans-Serif" font-size="9.00">array&#45;util.mjs</text>
</a>
</g>
</g>
<!-- src/main/options/normalize.mjs&#45;&gt;src/utl/array&#45;util.mjs -->
<g id="edge36" class="edge">
<title>src/main/options/normalize.mjs&#45;&gt;src/utl/array&#45;util.mjs</title>
<path fill="none" stroke="#000000" stroke-width="2" stroke-opacity="0.200000" d="M660.67,-246.44C677.01,-246.44 692.62,-246.44 692.62,-246.44 692.62,-246.44 692.62,-629 692.62,-629 692.62,-629 817.29,-629 817.29,-629"/>
<polygon fill="#000000" fill-opacity="0.200000" stroke="#000000" stroke-width="2" stroke-opacity="0.200000" points="817.29,-631.1 823.29,-629 817.29,-626.9 817.29,-631.1"/>
</g>
<!-- src/main/report&#45;wrap.mjs&#45;&gt;src/enrich/summarize/index.mjs -->
<g id="edge37" class="edge">
<title>src/main/report&#45;wrap.mjs&#45;&gt;src/enrich/summarize/index.mjs</title>
<path fill="none" stroke="#000000" stroke-width="2" stroke-opacity="0.200000" d="M664.21,-192.92C680.1,-192.92 694.62,-192.92 694.62,-192.92 694.62,-192.92 694.62,-588.56 694.62,-588.56 694.62,-588.56 698.53,-588.56 698.53,-588.56"/>
<polygon fill="#000000" fill-opacity="0.200000" stroke="#000000" stroke-width="2" stroke-opacity="0.200000" points="698.53,-590.66 704.53,-588.56 698.53,-586.46 698.53,-590.66"/>
</g>
<!-- src/main/report&#45;wrap.mjs&#45;&gt;src/graph&#45;utl/compare.mjs -->
<g id="edge38" class="edge">
<title>src/main/report&#45;wrap.mjs&#45;&gt;src/graph&#45;utl/compare.mjs</title>
<path fill="none" stroke="#000000" stroke-width="2" stroke-opacity="0.200000" d="M664.23,-189.96C729.17,-189.96 849.62,-189.96 849.62,-189.96 849.62,-189.96 849.62,-171.35 849.62,-171.35"/>
<polygon fill="#000000" fill-opacity="0.200000" stroke="#000000" stroke-width="2" stroke-opacity="0.200000" points="851.73,-171.35 849.63,-165.35 847.53,-171.35 851.73,-171.35"/>
</g>
<!-- src/main/report&#45;wrap.mjs&#45;&gt;src/graph&#45;utl/consolidate&#45;to&#45;pattern.mjs -->
<g id="edge39" class="edge">
<title>src/main/report&#45;wrap.mjs&#45;&gt;src/graph&#45;utl/consolidate&#45;to&#45;pattern.mjs</title>
<path fill="none" stroke="#000000" stroke-width="2" stroke-opacity="0.200000" d="M664.15,-187C719.32,-187 811.62,-187 811.62,-187 811.62,-187 811.62,-111.38 811.62,-111.38"/>
<polygon fill="#000000" fill-opacity="0.200000" stroke="#000000" stroke-width="2" stroke-opacity="0.200000" points="813.73,-111.38 811.63,-105.38 809.53,-111.38 813.73,-111.38"/>
</g>
<!-- src/main/report&#45;wrap.mjs&#45;&gt;src/graph&#45;utl/filter&#45;bank.mjs -->
<g id="edge40" class="edge">
<title>src/main/report&#45;wrap.mjs&#45;&gt;src/graph&#45;utl/filter&#45;bank.mjs</title>
<path fill="none" stroke="#000000" stroke-width="2" stroke-opacity="0.200000" d="M664,-184.04C713.05,-184.04 789.62,-184.04 789.62,-184.04 789.62,-184.04 789.62,-125 789.62,-125 789.62,-125 814.91,-125 814.91,-125"/>
<polygon fill="#000000" fill-opacity="0.200000" stroke="#000000" stroke-width="2" stroke-opacity="0.200000" points="814.91,-127.1 820.91,-125 814.91,-122.9 814.91,-127.1"/>
</g>
<!-- src/main/report&#45;wrap.mjs&#45;&gt;src/graph&#45;utl/strip&#45;self&#45;transitions.mjs -->
<g id="edge41" class="edge">
<title>src/main/report&#45;wrap.mjs&#45;&gt;src/graph&#45;utl/strip&#45;self&#45;transitions.mjs</title>
<path fill="none" stroke="#000000" stroke-width="2" stroke-opacity="0.200000" d="M623.62,-177.68C623.62,-148.84 623.62,-63 623.62,-63 623.62,-63 795.23,-63 795.23,-63"/>
<polygon fill="#000000" fill-opacity="0.200000" stroke="#000000" stroke-width="2" stroke-opacity="0.200000" points="795.23,-65.1 801.23,-63 795.23,-60.9 795.23,-65.1"/>
</g>
<!-- src/main/report&#45;wrap.mjs&#45;&gt;src/report/index.mjs -->
<g id="edge42" class="edge">
<title>src/main/report&#45;wrap.mjs&#45;&gt;src/report/index.mjs</title>
<path fill="none" stroke="#000000" stroke-width="2" stroke-opacity="0.200000" d="M664.22,-181.08C696.23,-181.08 735.62,-181.08 735.62,-181.08 735.62,-181.08 735.62,-144.96 735.62,-144.96"/>
<polygon fill="#000000" fill-opacity="0.200000" stroke="#000000" stroke-width="2" stroke-opacity="0.200000" points="737.73,-144.96 735.63,-138.96 733.53,-144.96 737.73,-144.96"/>
</g>
<!-- src/main/rule&#45;set/assert&#45;validity.mjs&#45;&gt;src/utl/object&#45;util.mjs -->
<g id="edge48" class="edge">
<title>src/main/rule&#45;set/assert&#45;validity.mjs&#45;&gt;src/utl/object&#45;util.mjs</title>
<path fill="none" stroke="#000000" stroke-width="2" stroke-opacity="0.200000" d="M529.62,-418.19C529.62,-463.3 529.62,-659 529.62,-659 529.62,-659 815.34,-659 815.34,-659"/>
<polygon fill="#000000" fill-opacity="0.200000" stroke="#000000" stroke-width="2" stroke-opacity="0.200000" points="815.34,-661.1 821.34,-659 815.34,-656.9 815.34,-661.1"/>
</g>
<!-- src/main/rule&#45;set/assert&#45;validity.mjs&#45;&gt;src/main/options/assert&#45;validity.mjs -->
<g id="edge46" class="edge">
<title>src/main/rule&#45;set/assert&#45;validity.mjs&#45;&gt;src/main/options/assert&#45;validity.mjs</title>
<path fill="none" stroke="#000000" stroke-width="2" stroke-opacity="0.200000" d="M533.62,-399.89C533.62,-369.94 533.62,-276.44 533.62,-276.44 533.62,-276.44 569.99,-276.44 569.99,-276.44"/>
<polygon fill="#000000" fill-opacity="0.200000" stroke="#000000" stroke-width="2" stroke-opacity="0.200000" points="569.99,-278.54 575.99,-276.44 569.99,-274.34 569.99,-278.54"/>
</g>
<!-- src/main/rule&#45;set/assert&#45;validity.mjs&#45;&gt;src/main/helpers.mjs -->
<g id="edge45" class="edge">
<title>src/main/rule&#45;set/assert&#45;validity.mjs&#45;&gt;src/main/helpers.mjs</title>
<path fill="none" stroke="#000000" stroke-width="2" stroke-opacity="0.200000" d="M535.62,-399.87C535.62,-397.07 535.62,-394.71 535.62,-394.71 535.62,-394.71 694.36,-394.71 694.36,-394.71"/>
<polygon fill="#000000" fill-opacity="0.200000" stroke="#000000" stroke-width="2" stroke-opacity="0.200000" points="694.36,-396.81 700.36,-394.71 694.36,-392.61 694.36,-396.81"/>
</g>
<!-- src/schema/configuration.schema.mjs -->
<g id="node33" class="node">
<title>src/schema/configuration.schema.mjs</title>
<g id="a_node33"><a xlink:href="src/schema/configuration.schema.mjs" xlink:title="configuration.schema.mjs">
<path fill="#ffffcc" stroke="black" d="M678.08,-533.88C678.08,-533.88 569.67,-533.88 569.67,-533.88 566.71,-533.88 563.75,-530.92 563.75,-527.96 563.75,-527.96 563.75,-522.04 563.75,-522.04 563.75,-519.08 566.71,-516.12 569.67,-516.12 569.67,-516.12 678.08,-516.12 678.08,-516.12 681.04,-516.12 684,-519.08 684,-522.04 684,-522.04 684,-527.96 684,-527.96 684,-530.92 681.04,-533.88 678.08,-533.88"/>
<text xml:space="preserve" text-anchor="start" x="571.75" y="-521.33" font-family="Helvetica,sans-Serif" font-size="9.00">configuration.schema.mjs</text>
</a>
</g>
</g>
<!-- src/main/rule&#45;set/assert&#45;validity.mjs&#45;&gt;src/schema/configuration.schema.mjs -->
<g id="edge47" class="edge">
<title>src/main/rule&#45;set/assert&#45;validity.mjs&#45;&gt;src/schema/configuration.schema.mjs</title>
<path fill="none" stroke="#000000" stroke-width="2" stroke-opacity="0.200000" d="M534.62,-418.1C534.62,-445.45 534.62,-525 534.62,-525 534.62,-525 554.33,-525 554.33,-525"/>
<polygon fill="#000000" fill-opacity="0.200000" stroke="#000000" stroke-width="2" stroke-opacity="0.200000" points="554.33,-527.1 560.33,-525 554.33,-522.9 554.33,-527.1"/>
</g>
<!-- src/main/rule&#45;set/normalize.mjs&#45;&gt;src/main/helpers.mjs -->
<g id="edge49" class="edge">
<title>src/main/rule&#45;set/normalize.mjs&#45;&gt;src/main/helpers.mjs</title>
<path fill="none" stroke="#000000" stroke-width="2" stroke-opacity="0.200000" d="M532.13,-375.62C599.43,-375.62 735.62,-375.62 735.62,-375.62 735.62,-375.62 735.62,-376.14 735.62,-376.14"/>
<polygon fill="#000000" fill-opacity="0.200000" stroke="#000000" stroke-width="2" stroke-opacity="0.200000" points="733.53,-371.79 735.63,-377.79 737.73,-371.79 733.53,-371.79"/>
</g>
<!-- src/main/helpers.mjs&#45;&gt;src/utl/object&#45;util.mjs -->
<g id="edge29" class="edge">
<title>src/main/helpers.mjs&#45;&gt;src/utl/object&#45;util.mjs</title>
<path fill="none" stroke="#000000" stroke-width="2" stroke-opacity="0.200000" d="M767.29,-390C773.76,-390 778.62,-390 778.62,-390 778.62,-390 778.62,-654.56 778.62,-654.56 778.62,-654.56 815.46,-654.56 815.46,-654.56"/>
<polygon fill="#000000" fill-opacity="0.200000" stroke="#000000" stroke-width="2" stroke-opacity="0.200000" points="815.46,-656.66 821.46,-654.56 815.46,-652.46 815.46,-656.66"/>
</g>
<!-- src/main/index.d.ts -->
<g id="node29" class="node">
<title>src/main/index.d.ts</title>
<g id="a_node29"><a xlink:href="src/main/index.d.ts" xlink:title="index.d.ts">
<path fill="#ccffcc" stroke="black" d="M267.33,-415.88C267.33,-415.88 224.17,-415.88 224.17,-415.88 221.21,-415.88 218.25,-412.92 218.25,-409.96 218.25,-409.96 218.25,-404.04 218.25,-404.04 218.25,-401.08 221.21,-398.12 224.17,-398.12 224.17,-398.12 267.33,-398.12 267.33,-398.12 270.29,-398.12 273.25,-401.08 273.25,-404.04 273.25,-404.04 273.25,-409.96 273.25,-409.96 273.25,-412.92 270.29,-415.88 267.33,-415.88"/>
<text xml:space="preserve" text-anchor="start" x="226.25" y="-403.32" font-family="Helvetica,sans-Serif" font-size="9.00">index.d.ts</text>
</a>
</g>
</g>
</g>
</svg>
