<?xml version="1.0" encoding="UTF-8" standalone="no"?>
<!DOCTYPE svg PUBLIC "-//W3C//DTD SVG 1.1//EN"
 "http://www.w3.org/Graphics/SVG/1.1/DTD/svg11.dtd">
<!-- Generated by graphviz version 2.44.1 (20200629.0846)
 -->
<!-- Title: dependency&#45;cruiser output Pages: 1 -->
<svg width="736pt" height="824pt"
 viewBox="0.00 0.00 736.00 824.00" xmlns="http://www.w3.org/2000/svg" xmlns:xlink="http://www.w3.org/1999/xlink">
<g id="graph0" class="graph" transform="scale(1 1) rotate(0) translate(4 820)">
<title>dependency&#45;cruiser output</title>
<polygon fill="white" stroke="transparent" points="-4,4 -4,-820 732,-820 732,4 -4,4"/>
<g id="clust1" class="cluster">
<title>cluster_src</title>
<path fill="#ffffff" stroke="black" stroke-width="2" d="M20,-8C20,-8 708,-8 708,-8 714,-8 720,-14 720,-20 720,-20 720,-796 720,-796 720,-802 714,-808 708,-808 708,-808 20,-808 20,-808 14,-808 8,-802 8,-796 8,-796 8,-20 8,-20 8,-14 14,-8 20,-8"/>
<text text-anchor="middle" x="364" y="-796.8" font-family="Helvetica,sans-Serif" font-weight="bold" font-size="9.00">src</text>
</g>
<g id="clust2" class="cluster">
<title>cluster_src/cli</title>
<path fill="#ffffff" stroke="black" stroke-width="2" d="M28,-314C28,-314 112,-314 112,-314 118,-314 124,-320 124,-326 124,-326 124,-414 124,-414 124,-420 118,-426 112,-426 112,-426 28,-426 28,-426 22,-426 16,-420 16,-414 16,-414 16,-326 16,-326 16,-320 22,-314 28,-314"/>
<text text-anchor="middle" x="70" y="-414.8" font-family="Helvetica,sans-Serif" font-weight="bold" font-size="9.00">cli</text>
</g>
<g id="clust3" class="cluster">
<title>cluster_src/config&#45;utl</title>
<path fill="#ffffff" stroke="black" stroke-width="2" d="M152,-72C152,-72 266,-72 266,-72 272,-72 278,-78 278,-84 278,-84 278,-146 278,-146 278,-152 272,-158 266,-158 266,-158 152,-158 152,-158 146,-158 140,-152 140,-146 140,-146 140,-84 140,-84 140,-78 146,-72 152,-72"/>
<text text-anchor="middle" x="209" y="-146.8" font-family="Helvetica,sans-Serif" font-weight="bold" font-size="9.00">config&#45;utl</text>
</g>
<g id="clust4" class="cluster">
<title>cluster_src/config&#45;utl/extract&#45;depcruise&#45;config</title>
<path fill="#ffffff" stroke="black" stroke-width="2" d="M160,-80C160,-80 258,-80 258,-80 264,-80 270,-86 270,-92 270,-92 270,-120 270,-120 270,-126 264,-132 258,-132 258,-132 160,-132 160,-132 154,-132 148,-126 148,-120 148,-120 148,-92 148,-92 148,-86 154,-80 160,-80"/>
<text text-anchor="middle" x="209" y="-120.8" font-family="Helvetica,sans-Serif" font-weight="bold" font-size="9.00">extract&#45;depcruise&#45;config</text>
</g>
<g id="clust5" class="cluster">
<title>cluster_src/enrich</title>
<path fill="#ffffff" stroke="black" stroke-width="2" d="M429,-460C429,-460 546,-460 546,-460 552,-460 558,-466 558,-472 558,-472 558,-560 558,-560 558,-566 552,-572 546,-572 546,-572 429,-572 429,-572 423,-572 417,-566 417,-560 417,-560 417,-472 417,-472 417,-466 423,-460 429,-460"/>
<text text-anchor="middle" x="487.5" y="-560.8" font-family="Helvetica,sans-Serif" font-weight="bold" font-size="9.00">enrich</text>
</g>
<g id="clust6" class="cluster">
<title>cluster_src/enrich/summarize</title>
<path fill="#ffffff" stroke="black" stroke-width="2" d="M437,-468C437,-468 538,-468 538,-468 544,-468 550,-474 550,-480 550,-480 550,-508 550,-508 550,-514 544,-520 538,-520 538,-520 437,-520 437,-520 431,-520 425,-514 425,-508 425,-508 425,-480 425,-480 425,-474 431,-468 437,-468"/>
<text text-anchor="middle" x="487.5" y="-508.8" font-family="Helvetica,sans-Serif" font-weight="bold" font-size="9.00">summarize</text>
</g>
<g id="clust7" class="cluster">
<title>cluster_src/extract</title>
<path fill="#ffffff" stroke="black" stroke-width="2" d="M456.5,-580C456.5,-580 518.5,-580 518.5,-580 524.5,-580 530.5,-586 530.5,-592 530.5,-592 530.5,-680 530.5,-680 530.5,-686 524.5,-692 518.5,-692 518.5,-692 456.5,-692 456.5,-692 450.5,-692 444.5,-686 444.5,-680 444.5,-680 444.5,-592 444.5,-592 444.5,-586 450.5,-580 456.5,-580"/>
<text text-anchor="middle" x="487.5" y="-680.8" font-family="Helvetica,sans-Serif" font-weight="bold" font-size="9.00">extract</text>
</g>
<g id="clust8" class="cluster">
<title>cluster_src/extract/transpile</title>
<path fill="#ffffff" stroke="black" stroke-width="2" d="M464.5,-588C464.5,-588 510.5,-588 510.5,-588 516.5,-588 522.5,-594 522.5,-600 522.5,-600 522.5,-628 522.5,-628 522.5,-634 516.5,-640 510.5,-640 510.5,-640 464.5,-640 464.5,-640 458.5,-640 452.5,-634 452.5,-628 452.5,-628 452.5,-600 452.5,-600 452.5,-594 458.5,-588 464.5,-588"/>
<text text-anchor="middle" x="487.5" y="-628.8" font-family="Helvetica,sans-Serif" font-weight="bold" font-size="9.00">transpile</text>
</g>
<g id="clust9" class="cluster">
<title>cluster_src/graph&#45;utl</title>
<path fill="#ffffff" stroke="black" stroke-width="2" d="M434,-16C434,-16 541,-16 541,-16 547,-16 553,-22 553,-28 553,-28 553,-146 553,-146 553,-152 547,-158 541,-158 541,-158 434,-158 434,-158 428,-158 422,-152 422,-146 422,-146 422,-28 422,-28 422,-22 428,-16 434,-16"/>
<text text-anchor="middle" x="487.5" y="-146.8" font-family="Helvetica,sans-Serif" font-weight="bold" font-size="9.00">graph&#45;utl</text>
</g>
<g id="clust10" class="cluster">
<title>cluster_src/main</title>
<path fill="#ffffff" stroke="black" stroke-width="2" d="M186,-166C186,-166 700,-166 700,-166 706,-166 712,-172 712,-178 712,-178 712,-440 712,-440 712,-446 706,-452 700,-452 700,-452 186,-452 186,-452 180,-452 174,-446 174,-440 174,-440 174,-178 174,-178 174,-172 180,-166 186,-166"/>
<text text-anchor="middle" x="443" y="-440.8" font-family="Helvetica,sans-Serif" font-weight="bold" font-size="9.00">main</text>
</g>
<g id="clust11" class="cluster">
<title>cluster_src/main/files&#45;and&#45;dirs</title>
<path fill="#ffffff" stroke="black" stroke-width="2" d="M322,-374C322,-374 380,-374 380,-374 386,-374 392,-380 392,-386 392,-386 392,-414 392,-414 392,-420 386,-426 380,-426 380,-426 322,-426 322,-426 316,-426 310,-420 310,-414 310,-414 310,-386 310,-386 310,-380 316,-374 322,-374"/>
<text text-anchor="middle" x="351" y="-414.8" font-family="Helvetica,sans-Serif" font-weight="bold" font-size="9.00">files&#45;and&#45;dirs</text>
</g>
<g id="clust12" class="cluster">
<title>cluster_src/main/options</title>
<path fill="#ffffff" stroke="black" stroke-width="2" d="M458.5,-224C458.5,-224 665,-224 665,-224 671,-224 677,-230 677,-236 677,-236 677,-294 677,-294 677,-300 671,-306 665,-306 665,-306 458.5,-306 458.5,-306 452.5,-306 446.5,-300 446.5,-294 446.5,-294 446.5,-236 446.5,-236 446.5,-230 452.5,-224 458.5,-224"/>
<text text-anchor="middle" x="561.75" y="-294.8" font-family="Helvetica,sans-Serif" font-weight="bold" font-size="9.00">options</text>
</g>
<g id="clust13" class="cluster">
<title>cluster_src/main/resolve&#45;options</title>
<path fill="#ffffff" stroke="black" stroke-width="2" d="M322,-214C322,-214 381,-214 381,-214 387,-214 393,-220 393,-226 393,-226 393,-254 393,-254 393,-260 387,-266 381,-266 381,-266 322,-266 322,-266 316,-266 310,-260 310,-254 310,-254 310,-226 310,-226 310,-220 316,-214 322,-214"/>
<text text-anchor="middle" x="351.5" y="-254.8" font-family="Helvetica,sans-Serif" font-weight="bold" font-size="9.00">resolve&#45;options</text>
</g>
<g id="clust14" class="cluster">
<title>cluster_src/main/rule&#45;set</title>
<path fill="#ffffff" stroke="black" stroke-width="2" d="M322,-284C322,-284 380,-284 380,-284 386,-284 392,-290 392,-296 392,-296 392,-354 392,-354 392,-360 386,-366 380,-366 380,-366 322,-366 322,-366 316,-366 310,-360 310,-354 310,-354 310,-296 310,-296 310,-290 316,-284 322,-284"/>
<text text-anchor="middle" x="351" y="-354.8" font-family="Helvetica,sans-Serif" font-weight="bold" font-size="9.00">rule&#45;set</text>
</g>
<g id="clust15" class="cluster">
<title>cluster_src/main/utl</title>
<path fill="#ffffff" stroke="black" stroke-width="2" d="M578,-314C578,-314 692,-314 692,-314 698,-314 704,-320 704,-326 704,-326 704,-354 704,-354 704,-360 698,-366 692,-366 692,-366 578,-366 578,-366 572,-366 566,-360 566,-354 566,-354 566,-326 566,-326 566,-320 572,-314 578,-314"/>
<text text-anchor="middle" x="635" y="-354.8" font-family="Helvetica,sans-Serif" font-weight="bold" font-size="9.00">utl</text>
</g>
<g id="clust16" class="cluster">
<title>cluster_src/report</title>
<path fill="#ffffff" stroke="black" stroke-width="2" d="M612,-106C612,-106 658,-106 658,-106 664,-106 670,-112 670,-118 670,-118 670,-146 670,-146 670,-152 664,-158 658,-158 658,-158 612,-158 612,-158 606,-158 600,-152 600,-146 600,-146 600,-118 600,-118 600,-112 606,-106 612,-106"/>
<text text-anchor="middle" x="635" y="-146.8" font-family="Helvetica,sans-Serif" font-weight="bold" font-size="9.00">report</text>
</g>
<g id="clust17" class="cluster">
<title>cluster_src/schema</title>
<path fill="#ffffff" stroke="black" stroke-width="2" d="M429.5,-700C429.5,-700 545.5,-700 545.5,-700 551.5,-700 557.5,-706 557.5,-712 557.5,-712 557.5,-770 557.5,-770 557.5,-776 551.5,-782 545.5,-782 545.5,-782 429.5,-782 429.5,-782 423.5,-782 417.5,-776 417.5,-770 417.5,-770 417.5,-712 417.5,-712 417.5,-706 423.5,-700 429.5,-700"/>
<text text-anchor="middle" x="487.5" y="-770.8" font-family="Helvetica,sans-Serif" font-weight="bold" font-size="9.00">schema</text>
</g>
<g id="clust18" class="cluster">
<title>cluster_src/utl</title>
<path fill="#ffffff" stroke="black" stroke-width="2" d="M328,-460C328,-460 374,-460 374,-460 380,-460 386,-466 386,-472 386,-472 386,-500 386,-500 386,-506 380,-512 374,-512 374,-512 328,-512 328,-512 322,-512 316,-506 316,-500 316,-500 316,-472 316,-472 316,-466 322,-460 328,-460"/>
<text text-anchor="middle" x="351" y="-500.8" font-family="Helvetica,sans-Serif" font-weight="bold" font-size="9.00">utl</text>
</g>
<!-- src/cli/format&#45;meta&#45;info.js -->
<g id="node1" class="node">
<title>src/cli/format&#45;meta&#45;info.js</title>
<g id="a_node1"><a xlink:href="src/cli/format-meta-info.js" xlink:title="format&#45;meta&#45;info.js">
<path fill="#ffffcc" stroke="black" d="M110,-400C110,-400 30,-400 30,-400 27,-400 24,-397 24,-394 24,-394 24,-388 24,-388 24,-385 27,-382 30,-382 30,-382 110,-382 110,-382 113,-382 116,-385 116,-388 116,-388 116,-394 116,-394 116,-397 113,-400 110,-400"/>
<text text-anchor="middle" x="70" y="-388.8" font-family="Helvetica,sans-Serif" font-size="9.00">format&#45;meta&#45;info.js</text>
</a>
</g>
</g>
<!-- src/main/index.js -->
<g id="node2" class="node">
<title>src/main/index.js</title>
<g id="a_node2"><a xlink:href="src/main/index.js" xlink:title="index.js">
<path fill="#ffffcc" stroke="black" d="M230,-370C230,-370 188,-370 188,-370 185,-370 182,-367 182,-364 182,-364 182,-358 182,-358 182,-355 185,-352 188,-352 188,-352 230,-352 230,-352 233,-352 236,-355 236,-358 236,-358 236,-364 236,-364 236,-367 233,-370 230,-370"/>
<text text-anchor="middle" x="209" y="-358.8" font-family="Helvetica,sans-Serif" font-size="9.00">index.js</text>
</a>
</g>
</g>
<!-- src/cli/format&#45;meta&#45;info.js&#45;&gt;src/main/index.js -->
<g id="edge1" class="edge">
<title>src/cli/format&#45;meta&#45;info.js&#45;&gt;src/main/index.js</title>
<path fill="none" stroke="#000000" stroke-width="2" stroke-opacity="0.200000" d="M107,-381.86C107,-374.03 107,-364 107,-364 107,-364 175.93,-364 175.93,-364"/>
<polygon fill="#000000" fill-opacity="0.200000" stroke="#000000" stroke-width="2" stroke-opacity="0.200000" points="175.93,-366.1 181.93,-364 175.93,-361.9 175.93,-366.1"/>
</g>
<!-- src/main/resolve&#45;options/normalize.js -->
<g id="node6" class="node">
<title>src/main/resolve&#45;options/normalize.js</title>
<g id="a_node6"><a xlink:href="src/main/resolve-options/normalize.js" xlink:title="normalize.js">
<path fill="#ffffcc" stroke="black" d="M378,-240C378,-240 324,-240 324,-240 321,-240 318,-237 318,-234 318,-234 318,-228 318,-228 318,-225 321,-222 324,-222 324,-222 378,-222 378,-222 381,-222 384,-225 384,-228 384,-228 384,-234 384,-234 384,-237 381,-240 378,-240"/>
<text text-anchor="middle" x="351" y="-228.8" font-family="Helvetica,sans-Serif" font-size="9.00">normalize.js</text>
</a>
</g>
</g>
<!-- src/main/index.js&#45;&gt;src/main/resolve&#45;options/normalize.js -->
<g id="edge14" class="edge">
<title>src/main/index.js&#45;&gt;src/main/resolve&#45;options/normalize.js</title>
<path fill="none" stroke="#000000" stroke-width="2" stroke-opacity="0.200000" d="M206,-351.87C206,-322.75 206,-234 206,-234 206,-234 311.73,-234 311.73,-234"/>
<polygon fill="#000000" fill-opacity="0.200000" stroke="#000000" stroke-width="2" stroke-opacity="0.200000" points="311.73,-236.1 317.73,-234 311.73,-231.9 311.73,-236.1"/>
</g>
<!-- src/enrich/index.js -->
<g id="node7" class="node">
<title>src/enrich/index.js</title>
<g id="a_node7"><a xlink:href="src/enrich/index.js" xlink:title="index.js">
<path fill="#ffffcc" stroke="black" d="M508.5,-546C508.5,-546 466.5,-546 466.5,-546 463.5,-546 460.5,-543 460.5,-540 460.5,-540 460.5,-534 460.5,-534 460.5,-531 463.5,-528 466.5,-528 466.5,-528 508.5,-528 508.5,-528 511.5,-528 514.5,-531 514.5,-534 514.5,-534 514.5,-540 514.5,-540 514.5,-543 511.5,-546 508.5,-546"/>
<text text-anchor="middle" x="487.5" y="-534.8" font-family="Helvetica,sans-Serif" font-size="9.00">index.js</text>
</a>
</g>
</g>
<!-- src/main/index.js&#45;&gt;src/enrich/index.js -->
<g id="edge5" class="edge">
<title>src/main/index.js&#45;&gt;src/enrich/index.js</title>
<path fill="none" stroke="#000000" stroke-width="2" stroke-opacity="0.200000" d="M213,-370.46C213,-407.02 213,-537 213,-537 213,-537 454.18,-537 454.18,-537"/>
<polygon fill="#000000" fill-opacity="0.200000" stroke="#000000" stroke-width="2" stroke-opacity="0.200000" points="454.18,-539.1 460.18,-537 454.18,-534.9 454.18,-539.1"/>
</g>
<!-- src/extract/index.js -->
<g id="node9" class="node">
<title>src/extract/index.js</title>
<g id="a_node9"><a xlink:href="src/extract/index.js" xlink:title="index.js">
<path fill="#ffffcc" stroke="black" d="M508.5,-666C508.5,-666 466.5,-666 466.5,-666 463.5,-666 460.5,-663 460.5,-660 460.5,-660 460.5,-654 460.5,-654 460.5,-651 463.5,-648 466.5,-648 466.5,-648 508.5,-648 508.5,-648 511.5,-648 514.5,-651 514.5,-654 514.5,-654 514.5,-660 514.5,-660 514.5,-663 511.5,-666 508.5,-666"/>
<text text-anchor="middle" x="487.5" y="-654.8" font-family="Helvetica,sans-Serif" font-size="9.00">index.js</text>
</a>
</g>
</g>
<!-- src/main/index.js&#45;&gt;src/extract/index.js -->
<g id="edge6" class="edge">
<title>src/main/index.js&#45;&gt;src/extract/index.js</title>
<path fill="none" stroke="#000000" stroke-width="2" stroke-opacity="0.200000" d="M198,-370.18C198,-420.14 198,-657 198,-657 198,-657 454.26,-657 454.26,-657"/>
<polygon fill="#000000" fill-opacity="0.200000" stroke="#000000" stroke-width="2" stroke-opacity="0.200000" points="454.26,-659.1 460.26,-657 454.26,-654.9 454.26,-659.1"/>
</g>
<!-- src/extract/transpile/meta.js -->
<g id="node10" class="node">
<title>src/extract/transpile/meta.js</title>
<g id="a_node10"><a xlink:href="src/extract/transpile/meta.js" xlink:title="meta.js">
<path fill="#ffffcc" stroke="black" d="M508.5,-614C508.5,-614 466.5,-614 466.5,-614 463.5,-614 460.5,-611 460.5,-608 460.5,-608 460.5,-602 460.5,-602 460.5,-599 463.5,-596 466.5,-596 466.5,-596 508.5,-596 508.5,-596 511.5,-596 514.5,-599 514.5,-602 514.5,-602 514.5,-608 514.5,-608 514.5,-611 511.5,-614 508.5,-614"/>
<text text-anchor="middle" x="487.5" y="-602.8" font-family="Helvetica,sans-Serif" font-size="9.00">meta.js</text>
</a>
</g>
</g>
<!-- src/main/index.js&#45;&gt;src/extract/transpile/meta.js -->
<g id="edge7" class="edge">
<title>src/main/index.js&#45;&gt;src/extract/transpile/meta.js</title>
<path fill="none" stroke="#000000" stroke-width="2" stroke-opacity="0.200000" d="M206,-370.08C206,-414.65 206,-608 206,-608 206,-608 454.25,-608 454.25,-608"/>
<polygon fill="#000000" fill-opacity="0.200000" stroke="#000000" stroke-width="2" stroke-opacity="0.200000" points="454.25,-610.1 460.25,-608 454.25,-605.9 454.25,-610.1"/>
</g>
<!-- src/main/files&#45;and&#45;dirs/normalize.js -->
<g id="node15" class="node">
<title>src/main/files&#45;and&#45;dirs/normalize.js</title>
<g id="a_node15"><a xlink:href="src/main/files-and-dirs/normalize.js" xlink:title="normalize.js">
<path fill="#ffffcc" stroke="black" d="M378,-400C378,-400 324,-400 324,-400 321,-400 318,-397 318,-394 318,-394 318,-388 318,-388 318,-385 321,-382 324,-382 324,-382 378,-382 378,-382 381,-382 384,-385 384,-388 384,-388 384,-394 384,-394 384,-397 381,-400 378,-400"/>
<text text-anchor="middle" x="351" y="-388.8" font-family="Helvetica,sans-Serif" font-size="9.00">normalize.js</text>
</a>
</g>
</g>
<!-- src/main/index.js&#45;&gt;src/main/files&#45;and&#45;dirs/normalize.js -->
<g id="edge10" class="edge">
<title>src/main/index.js&#45;&gt;src/main/files&#45;and&#45;dirs/normalize.js</title>
<path fill="none" stroke="#000000" stroke-width="2" stroke-opacity="0.200000" d="M229,-370.16C229,-378.99 229,-391 229,-391 229,-391 311.99,-391 311.99,-391"/>
<polygon fill="#000000" fill-opacity="0.200000" stroke="#000000" stroke-width="2" stroke-opacity="0.200000" points="311.99,-393.1 317.99,-391 311.99,-388.9 311.99,-393.1"/>
</g>
<!-- src/schema/cruise&#45;result.schema.json -->
<g id="node16" class="node">
<title>src/schema/cruise&#45;result.schema.json</title>
<g id="a_node16"><a xlink:href="src/schema/cruise-result.schema.json" xlink:title="cruise&#45;result.schema.json">
<path fill="#ffee44" stroke="black" d="M542,-756C542,-756 433,-756 433,-756 430,-756 427,-753 427,-750 427,-750 427,-744 427,-744 427,-741 430,-738 433,-738 433,-738 542,-738 542,-738 545,-738 548,-741 548,-744 548,-744 548,-750 548,-750 548,-753 545,-756 542,-756"/>
<text text-anchor="middle" x="487.5" y="-744.8" font-family="Helvetica,sans-Serif" font-size="9.00">cruise&#45;result.schema.json</text>
</a>
</g>
</g>
<!-- src/main/index.js&#45;&gt;src/schema/cruise&#45;result.schema.json -->
<g id="edge8" class="edge">
<title>src/main/index.js&#45;&gt;src/schema/cruise&#45;result.schema.json</title>
<path fill="none" stroke="#000000" stroke-width="2" stroke-opacity="0.200000" d="M190,-370.16C190,-428.61 190,-747 190,-747 190,-747 420.94,-747 420.94,-747"/>
<polygon fill="#000000" fill-opacity="0.200000" stroke="#000000" stroke-width="2" stroke-opacity="0.200000" points="420.94,-749.1 426.94,-747 420.94,-744.9 420.94,-749.1"/>
</g>
<!-- src/utl/bus.js -->
<g id="node17" class="node">
<title>src/utl/bus.js</title>
<g id="a_node17"><a xlink:href="src/utl/bus.js" xlink:title="bus.js">
<path fill="#ffffcc" stroke="black" d="M372,-486C372,-486 330,-486 330,-486 327,-486 324,-483 324,-480 324,-480 324,-474 324,-474 324,-471 327,-468 330,-468 330,-468 372,-468 372,-468 375,-468 378,-471 378,-474 378,-474 378,-480 378,-480 378,-483 375,-486 372,-486"/>
<text text-anchor="middle" x="351" y="-474.8" font-family="Helvetica,sans-Serif" font-size="9.00">bus.js</text>
</a>
</g>
</g>
<!-- src/main/index.js&#45;&gt;src/utl/bus.js -->
<g id="edge9" class="edge">
<title>src/main/index.js&#45;&gt;src/utl/bus.js</title>
<path fill="none" stroke="#000000" stroke-width="2" stroke-opacity="0.200000" d="M221,-370.1C221,-397.45 221,-477 221,-477 221,-477 317.75,-477 317.75,-477"/>
<polygon fill="#000000" fill-opacity="0.200000" stroke="#000000" stroke-width="2" stroke-opacity="0.200000" points="317.75,-479.1 323.75,-477 317.75,-474.9 317.75,-479.1"/>
</g>
<!-- src/main/options/normalize.js -->
<g id="node18" class="node">
<title>src/main/options/normalize.js</title>
<g id="a_node18"><a xlink:href="src/main/options/normalize.js" xlink:title="normalize.js">
<path fill="#ffffcc" stroke="black" d="M514.5,-250C514.5,-250 460.5,-250 460.5,-250 457.5,-250 454.5,-247 454.5,-244 454.5,-244 454.5,-238 454.5,-238 454.5,-235 457.5,-232 460.5,-232 460.5,-232 514.5,-232 514.5,-232 517.5,-232 520.5,-235 520.5,-238 520.5,-238 520.5,-244 520.5,-244 520.5,-247 517.5,-250 514.5,-250"/>
<text text-anchor="middle" x="487.5" y="-238.8" font-family="Helvetica,sans-Serif" font-size="9.00">normalize.js</text>
</a>
</g>
</g>
<!-- src/main/index.js&#45;&gt;src/main/options/normalize.js -->
<g id="edge11" class="edge">
<title>src/main/index.js&#45;&gt;src/main/options/normalize.js</title>
<path fill="none" stroke="#000000" stroke-width="2" stroke-opacity="0.200000" d="M212,-351.9C212,-324.55 212,-245 212,-245 212,-245 448.27,-245 448.27,-245"/>
<polygon fill="#000000" fill-opacity="0.200000" stroke="#000000" stroke-width="2" stroke-opacity="0.200000" points="448.27,-247.1 454.27,-245 448.27,-242.9 448.27,-247.1"/>
</g>
<!-- src/main/options/validate.js -->
<g id="node19" class="node">
<title>src/main/options/validate.js</title>
<g id="a_node19"><a xlink:href="src/main/options/validate.js" xlink:title="validate.js">
<path fill="#ffffcc" stroke="black" d="M510.5,-280C510.5,-280 464.5,-280 464.5,-280 461.5,-280 458.5,-277 458.5,-274 458.5,-274 458.5,-268 458.5,-268 458.5,-265 461.5,-262 464.5,-262 464.5,-262 510.5,-262 510.5,-262 513.5,-262 516.5,-265 516.5,-268 516.5,-268 516.5,-274 516.5,-274 516.5,-277 513.5,-280 510.5,-280"/>
<text text-anchor="middle" x="487.5" y="-268.8" font-family="Helvetica,sans-Serif" font-size="9.00">validate.js</text>
</a>
</g>
</g>
<!-- src/main/index.js&#45;&gt;src/main/options/validate.js -->
<g id="edge12" class="edge">
<title>src/main/index.js&#45;&gt;src/main/options/validate.js</title>
<path fill="none" stroke="#000000" stroke-width="2" stroke-opacity="0.200000" d="M218,-351.74C218,-328.22 218,-268 218,-268 218,-268 452.4,-268 452.4,-268"/>
<polygon fill="#000000" fill-opacity="0.200000" stroke="#000000" stroke-width="2" stroke-opacity="0.200000" points="452.4,-270.1 458.4,-268 452.4,-265.9 452.4,-270.1"/>
</g>
<!-- src/main/report&#45;wrap.js -->
<g id="node20" class="node">
<title>src/main/report&#45;wrap.js</title>
<g id="a_node20"><a xlink:href="src/main/report-wrap.js" xlink:title="report&#45;wrap.js">
<path fill="#ffffcc" stroke="black" d="M381.5,-192C381.5,-192 320.5,-192 320.5,-192 317.5,-192 314.5,-189 314.5,-186 314.5,-186 314.5,-180 314.5,-180 314.5,-177 317.5,-174 320.5,-174 320.5,-174 381.5,-174 381.5,-174 384.5,-174 387.5,-177 387.5,-180 387.5,-180 387.5,-186 387.5,-186 387.5,-189 384.5,-192 381.5,-192"/>
<text text-anchor="middle" x="351" y="-180.8" font-family="Helvetica,sans-Serif" font-size="9.00">report&#45;wrap.js</text>
</a>
</g>
</g>
<!-- src/main/index.js&#45;&gt;src/main/report&#45;wrap.js -->
<g id="edge13" class="edge">
<title>src/main/index.js&#45;&gt;src/main/report&#45;wrap.js</title>
<path fill="none" stroke="#000000" stroke-width="2" stroke-opacity="0.200000" d="M200,-351.93C200,-315.66 200,-183 200,-183 200,-183 308.45,-183 308.45,-183"/>
<polygon fill="#000000" fill-opacity="0.200000" stroke="#000000" stroke-width="2" stroke-opacity="0.200000" points="308.45,-185.1 314.45,-183 308.45,-180.9 308.45,-185.1"/>
</g>
<!-- src/main/rule&#45;set/normalize.js -->
<g id="node21" class="node">
<title>src/main/rule&#45;set/normalize.js</title>
<g id="a_node21"><a xlink:href="src/main/rule-set/normalize.js" xlink:title="normalize.js">
<path fill="#ffffcc" stroke="black" d="M378,-340C378,-340 324,-340 324,-340 321,-340 318,-337 318,-334 318,-334 318,-328 318,-328 318,-325 321,-322 324,-322 324,-322 378,-322 378,-322 381,-322 384,-325 384,-328 384,-328 384,-334 384,-334 384,-337 381,-340 378,-340"/>
<text text-anchor="middle" x="351" y="-328.8" font-family="Helvetica,sans-Serif" font-size="9.00">normalize.js</text>
</a>
</g>
</g>
<!-- src/main/index.js&#45;&gt;src/main/rule&#45;set/normalize.js -->
<g id="edge15" class="edge">
<title>src/main/index.js&#45;&gt;src/main/rule&#45;set/normalize.js</title>
<path fill="none" stroke="#000000" stroke-width="2" stroke-opacity="0.200000" d="M230,-351.98C230,-342.21 230,-328 230,-328 230,-328 311.94,-328 311.94,-328"/>
<polygon fill="#000000" fill-opacity="0.200000" stroke="#000000" stroke-width="2" stroke-opacity="0.200000" points="311.94,-330.1 317.94,-328 311.94,-325.9 311.94,-330.1"/>
</g>
<!-- src/main/rule&#45;set/validate.js -->
<g id="node22" class="node">
<title>src/main/rule&#45;set/validate.js</title>
<g id="a_node22"><a xlink:href="src/main/rule-set/validate.js" xlink:title="validate.js">
<path fill="#ffffcc" stroke="black" d="M374,-310C374,-310 328,-310 328,-310 325,-310 322,-307 322,-304 322,-304 322,-298 322,-298 322,-295 325,-292 328,-292 328,-292 374,-292 374,-292 377,-292 380,-295 380,-298 380,-298 380,-304 380,-304 380,-307 377,-310 374,-310"/>
<text text-anchor="middle" x="351" y="-298.8" font-family="Helvetica,sans-Serif" font-size="9.00">validate.js</text>
</a>
</g>
</g>
<!-- src/main/index.js&#45;&gt;src/main/rule&#45;set/validate.js -->
<g id="edge16" class="edge">
<title>src/main/index.js&#45;&gt;src/main/rule&#45;set/validate.js</title>
<path fill="none" stroke="#000000" stroke-width="2" stroke-opacity="0.200000" d="M224,-351.89C224,-335.1 224,-301 224,-301 224,-301 315.86,-301 315.86,-301"/>
<polygon fill="#000000" fill-opacity="0.200000" stroke="#000000" stroke-width="2" stroke-opacity="0.200000" points="315.86,-303.1 321.86,-301 315.86,-298.9 315.86,-303.1"/>
</g>
<!-- src/cli/format.js -->
<g id="node3" class="node">
<title>src/cli/format.js</title>
<g id="a_node3"><a xlink:href="src/cli/format.js" xlink:title="format.js">
<path fill="#ffffcc" stroke="black" d="M91,-370C91,-370 49,-370 49,-370 46,-370 43,-367 43,-364 43,-364 43,-358 43,-358 43,-355 46,-352 49,-352 49,-352 91,-352 91,-352 94,-352 97,-355 97,-358 97,-358 97,-364 97,-364 97,-367 94,-370 91,-370"/>
<text text-anchor="middle" x="70" y="-358.8" font-family="Helvetica,sans-Serif" font-size="9.00">format.js</text>
</a>
</g>
</g>
<!-- src/cli/format.js&#45;&gt;src/main/index.js -->
<g id="edge2" class="edge">
<title>src/cli/format.js&#45;&gt;src/main/index.js</title>
<path fill="none" stroke="#000000" stroke-width="2" stroke-opacity="0.200000" d="M97.13,-358C97.13,-358 175.94,-358 175.94,-358"/>
<polygon fill="#000000" fill-opacity="0.200000" stroke="#000000" stroke-width="2" stroke-opacity="0.200000" points="175.94,-360.1 181.94,-358 175.94,-355.9 175.94,-360.1"/>
</g>
<!-- src/cli/index.js -->
<g id="node4" class="node">
<title>src/cli/index.js</title>
<g id="a_node4"><a xlink:href="src/cli/index.js" xlink:title="index.js">
<path fill="#ffffcc" stroke="black" d="M91,-340C91,-340 49,-340 49,-340 46,-340 43,-337 43,-334 43,-334 43,-328 43,-328 43,-325 46,-322 49,-322 49,-322 91,-322 91,-322 94,-322 97,-325 97,-328 97,-328 97,-334 97,-334 97,-337 94,-340 91,-340"/>
<text text-anchor="middle" x="70" y="-328.8" font-family="Helvetica,sans-Serif" font-size="9.00">index.js</text>
</a>
</g>
</g>
<!-- src/cli/index.js&#45;&gt;src/main/index.js -->
<g id="edge3" class="edge">
<title>src/cli/index.js&#45;&gt;src/main/index.js</title>
<path fill="none" stroke="#000000" stroke-width="2" stroke-opacity="0.200000" d="M97.21,-334C133.71,-334 194,-334 194,-334 194,-334 194,-345.86 194,-345.86"/>
<polygon fill="#000000" fill-opacity="0.200000" stroke="#000000" stroke-width="2" stroke-opacity="0.200000" points="191.9,-345.86 194,-351.86 196.1,-345.86 191.9,-345.86"/>
</g>
<!-- src/config&#45;utl/extract&#45;depcruise&#45;config/index.js -->
<g id="node5" class="node">
<title>src/config&#45;utl/extract&#45;depcruise&#45;config/index.js</title>
<g id="a_node5"><a xlink:href="src/config-utl/extract-depcruise-config/index.js" xlink:title="index.js">
<path fill="#ffffcc" stroke="black" d="M230,-106C230,-106 188,-106 188,-106 185,-106 182,-103 182,-100 182,-100 182,-94 182,-94 182,-91 185,-88 188,-88 188,-88 230,-88 230,-88 233,-88 236,-91 236,-94 236,-94 236,-100 236,-100 236,-103 233,-106 230,-106"/>
<text text-anchor="middle" x="209" y="-94.8" font-family="Helvetica,sans-Serif" font-size="9.00">index.js</text>
</a>
</g>
</g>
<!-- src/config&#45;utl/extract&#45;depcruise&#45;config/index.js&#45;&gt;src/main/resolve&#45;options/normalize.js -->
<g id="edge4" class="edge">
<title>src/config&#45;utl/extract&#45;depcruise&#45;config/index.js&#45;&gt;src/main/resolve&#45;options/normalize.js</title>
<path fill="none" stroke="#000000" stroke-width="2" stroke-opacity="0.200000" d="M188,-106C188,-135.6 188,-228 188,-228 188,-228 311.62,-228 311.62,-228"/>
<polygon fill="#000000" fill-opacity="0.200000" stroke="#000000" stroke-width="2" stroke-opacity="0.200000" points="311.62,-230.1 317.62,-228 311.62,-225.9 311.62,-230.1"/>
</g>
<!-- src/main/resolve&#45;options/normalize.js&#45;&gt;src/extract/transpile/meta.js -->
<g id="edge26" class="edge">
<title>src/main/resolve&#45;options/normalize.js&#45;&gt;src/extract/transpile/meta.js</title>
<path fill="none" stroke="#000000" stroke-width="2" stroke-opacity="0.200000" d="M384.18,-236C398.92,-236 413,-236 413,-236 413,-236 413,-602 413,-602 413,-602 454.18,-602 454.18,-602"/>
<polygon fill="#000000" fill-opacity="0.200000" stroke="#000000" stroke-width="2" stroke-opacity="0.200000" points="454.18,-604.1 460.18,-602 454.18,-599.9 454.18,-604.1"/>
</g>
<!-- src/enrich/summarize/summarize&#45;modules.js -->
<g id="node8" class="node">
<title>src/enrich/summarize/summarize&#45;modules.js</title>
<g id="a_node8"><a xlink:href="src/enrich/summarize/summarize-modules.js" xlink:title="summarize&#45;modules.js">
<path fill="#ffffcc" stroke="black" d="M536,-494C536,-494 439,-494 439,-494 436,-494 433,-491 433,-488 433,-488 433,-482 433,-482 433,-479 436,-476 439,-476 439,-476 536,-476 536,-476 539,-476 542,-479 542,-482 542,-482 542,-488 542,-488 542,-491 539,-494 536,-494"/>
<text text-anchor="middle" x="487.5" y="-482.8" font-family="Helvetica,sans-Serif" font-size="9.00">summarize&#45;modules.js</text>
</a>
</g>
</g>
<!-- src/graph&#45;utl/compare.js -->
<g id="node11" class="node">
<title>src/graph&#45;utl/compare.js</title>
<g id="a_node11"><a xlink:href="src/graph-utl/compare.js" xlink:title="compare.js">
<path fill="#ffffcc" stroke="black" d="M512.5,-72C512.5,-72 462.5,-72 462.5,-72 459.5,-72 456.5,-69 456.5,-66 456.5,-66 456.5,-60 456.5,-60 456.5,-57 459.5,-54 462.5,-54 462.5,-54 512.5,-54 512.5,-54 515.5,-54 518.5,-57 518.5,-60 518.5,-60 518.5,-66 518.5,-66 518.5,-69 515.5,-72 512.5,-72"/>
<text text-anchor="middle" x="487.5" y="-60.8" font-family="Helvetica,sans-Serif" font-size="9.00">compare.js</text>
</a>
</g>
</g>
<!-- src/graph&#45;utl/consolidate&#45;to&#45;pattern.js -->
<g id="node12" class="node">
<title>src/graph&#45;utl/consolidate&#45;to&#45;pattern.js</title>
<g id="a_node12"><a xlink:href="src/graph-utl/consolidate-to-pattern.js" xlink:title="consolidate&#45;to&#45;pattern.js">
<path fill="#ffffcc" stroke="black" d="M539,-42C539,-42 436,-42 436,-42 433,-42 430,-39 430,-36 430,-36 430,-30 430,-30 430,-27 433,-24 436,-24 436,-24 539,-24 539,-24 542,-24 545,-27 545,-30 545,-30 545,-36 545,-36 545,-39 542,-42 539,-42"/>
<text text-anchor="middle" x="487.5" y="-30.8" font-family="Helvetica,sans-Serif" font-size="9.00">consolidate&#45;to&#45;pattern.js</text>
</a>
</g>
</g>
<!-- src/graph&#45;utl/filterbank.js -->
<g id="node13" class="node">
<title>src/graph&#45;utl/filterbank.js</title>
<g id="a_node13"><a xlink:href="src/graph-utl/filterbank.js" xlink:title="filterbank.js">
<path fill="#ffffcc" stroke="black" d="M513,-132C513,-132 462,-132 462,-132 459,-132 456,-129 456,-126 456,-126 456,-120 456,-120 456,-117 459,-114 462,-114 462,-114 513,-114 513,-114 516,-114 519,-117 519,-120 519,-120 519,-126 519,-126 519,-129 516,-132 513,-132"/>
<text text-anchor="middle" x="487.5" y="-120.8" font-family="Helvetica,sans-Serif" font-size="9.00">filterbank.js</text>
</a>
</g>
</g>
<!-- src/graph&#45;utl/strip&#45;self&#45;transitions.js -->
<g id="node14" class="node">
<title>src/graph&#45;utl/strip&#45;self&#45;transitions.js</title>
<g id="a_node14"><a xlink:href="src/graph-utl/strip-self-transitions.js" xlink:title="strip&#45;self&#45;transitions.js">
<path fill="#ffffcc" stroke="black" d="M534,-102C534,-102 441,-102 441,-102 438,-102 435,-99 435,-96 435,-96 435,-90 435,-90 435,-87 438,-84 441,-84 441,-84 534,-84 534,-84 537,-84 540,-87 540,-90 540,-90 540,-96 540,-96 540,-99 537,-102 534,-102"/>
<text text-anchor="middle" x="487.5" y="-90.8" font-family="Helvetica,sans-Serif" font-size="9.00">strip&#45;self&#45;transitions.js</text>
</a>
</g>
</g>
<!-- src/main/options/defaults.json -->
<g id="node23" class="node">
<title>src/main/options/defaults.json</title>
<g id="a_node23"><a xlink:href="src/main/options/defaults.json" xlink:title="defaults.json">
<path fill="#ffee44" stroke="black" d="M663,-250C663,-250 607,-250 607,-250 604,-250 601,-247 601,-244 601,-244 601,-238 601,-238 601,-235 604,-232 607,-232 607,-232 663,-232 663,-232 666,-232 669,-235 669,-238 669,-238 669,-244 669,-244 669,-247 666,-250 663,-250"/>
<text text-anchor="middle" x="635" y="-238.8" font-family="Helvetica,sans-Serif" font-size="9.00">defaults.json</text>
</a>
</g>
</g>
<!-- src/main/options/normalize.js&#45;&gt;src/main/options/defaults.json -->
<g id="edge18" class="edge">
<title>src/main/options/normalize.js&#45;&gt;src/main/options/defaults.json</title>
<path fill="none" stroke="#000000" stroke-width="2" stroke-opacity="0.200000" d="M520.6,-238C520.6,-238 594.99,-238 594.99,-238"/>
<polygon fill="#000000" fill-opacity="0.200000" stroke="#000000" stroke-width="2" stroke-opacity="0.200000" points="594.99,-240.1 600.99,-238 594.99,-235.9 594.99,-240.1"/>
</g>
<!-- src/main/utl/normalize&#45;re&#45;properties.js -->
<g id="node24" class="node">
<title>src/main/utl/normalize&#45;re&#45;properties.js</title>
<g id="a_node24"><a xlink:href="src/main/utl/normalize-re-properties.js" xlink:title="normalize&#45;re&#45;properties.js">
<path fill="#ffffcc" stroke="black" d="M690,-340C690,-340 580,-340 580,-340 577,-340 574,-337 574,-334 574,-334 574,-328 574,-328 574,-325 577,-322 580,-322 580,-322 690,-322 690,-322 693,-322 696,-325 696,-328 696,-328 696,-334 696,-334 696,-337 693,-340 690,-340"/>
<text text-anchor="middle" x="635" y="-328.8" font-family="Helvetica,sans-Serif" font-size="9.00">normalize&#45;re&#45;properties.js</text>
</a>
</g>
</g>
<!-- src/main/options/normalize.js&#45;&gt;src/main/utl/normalize&#45;re&#45;properties.js -->
<g id="edge17" class="edge">
<title>src/main/options/normalize.js&#45;&gt;src/main/utl/normalize&#45;re&#45;properties.js</title>
<path fill="none" stroke="#000000" stroke-width="2" stroke-opacity="0.200000" d="M520.69,-244C549.96,-244 588,-244 588,-244 588,-244 588,-315.69 588,-315.69"/>
<polygon fill="#000000" fill-opacity="0.200000" stroke="#000000" stroke-width="2" stroke-opacity="0.200000" points="585.9,-315.69 588,-321.69 590.1,-315.69 585.9,-315.69"/>
</g>
<!-- src/report/index.js -->
<g id="node25" class="node">
<title>src/report/index.js</title>
<g id="a_node25"><a xlink:href="src/report/index.js" xlink:title="index.js">
<path fill="#ffffcc" stroke="black" d="M656,-132C656,-132 614,-132 614,-132 611,-132 608,-129 608,-126 608,-126 608,-120 608,-120 608,-117 611,-114 614,-114 614,-114 656,-114 656,-114 659,-114 662,-117 662,-120 662,-120 662,-126 662,-126 662,-129 659,-132 656,-132"/>
<text text-anchor="middle" x="635" y="-120.8" font-family="Helvetica,sans-Serif" font-size="9.00">index.js</text>
</a>
</g>
</g>
<!-- src/main/options/validate.js&#45;&gt;src/report/index.js -->
<g id="edge19" class="edge">
<title>src/main/options/validate.js&#45;&gt;src/report/index.js</title>
<path fill="none" stroke="#000000" stroke-width="2" stroke-opacity="0.200000" d="M516.76,-271C524.63,-271 531,-271 531,-271 531,-271 531,-123 531,-123 531,-123 601.95,-123 601.95,-123"/>
<polygon fill="#000000" fill-opacity="0.200000" stroke="#000000" stroke-width="2" stroke-opacity="0.200000" points="601.95,-125.1 607.95,-123 601.95,-120.9 601.95,-125.1"/>
</g>
<!-- src/main/report&#45;wrap.js&#45;&gt;src/enrich/summarize/summarize&#45;modules.js -->
<g id="edge20" class="edge">
<title>src/main/report&#45;wrap.js&#45;&gt;src/enrich/summarize/summarize&#45;modules.js</title>
<path fill="none" stroke="#000000" stroke-width="2" stroke-opacity="0.200000" d="M387.75,-188.4C413.01,-188.4 442,-188.4 442,-188.4 442,-188.4 442,-469.8 442,-469.8"/>
<polygon fill="#000000" fill-opacity="0.200000" stroke="#000000" stroke-width="2" stroke-opacity="0.200000" points="439.9,-469.8 442,-475.8 444.1,-469.8 439.9,-469.8"/>
</g>
<!-- src/main/report&#45;wrap.js&#45;&gt;src/graph&#45;utl/compare.js -->
<g id="edge21" class="edge">
<title>src/main/report&#45;wrap.js&#45;&gt;src/graph&#45;utl/compare.js</title>
<path fill="none" stroke="#000000" stroke-width="2" stroke-opacity="0.200000" d="M364,-173.98C364,-146.07 364,-63 364,-63 364,-63 450.34,-63 450.34,-63"/>
<polygon fill="#000000" fill-opacity="0.200000" stroke="#000000" stroke-width="2" stroke-opacity="0.200000" points="450.34,-65.1 456.34,-63 450.34,-60.9 450.34,-65.1"/>
</g>
<!-- src/main/report&#45;wrap.js&#45;&gt;src/graph&#45;utl/consolidate&#45;to&#45;pattern.js -->
<g id="edge22" class="edge">
<title>src/main/report&#45;wrap.js&#45;&gt;src/graph&#45;utl/consolidate&#45;to&#45;pattern.js</title>
<path fill="none" stroke="#000000" stroke-width="2" stroke-opacity="0.200000" d="M339,-173.62C339,-140.78 339,-33 339,-33 339,-33 423.66,-33 423.66,-33"/>
<polygon fill="#000000" fill-opacity="0.200000" stroke="#000000" stroke-width="2" stroke-opacity="0.200000" points="423.66,-35.1 429.66,-33 423.66,-30.9 423.66,-35.1"/>
</g>
<!-- src/main/report&#45;wrap.js&#45;&gt;src/graph&#45;utl/filterbank.js -->
<g id="edge23" class="edge">
<title>src/main/report&#45;wrap.js&#45;&gt;src/graph&#45;utl/filterbank.js</title>
<path fill="none" stroke="#000000" stroke-width="2" stroke-opacity="0.200000" d="M387.71,-181.2C428.29,-181.2 488,-181.2 488,-181.2 488,-181.2 488,-138.09 488,-138.09"/>
<polygon fill="#000000" fill-opacity="0.200000" stroke="#000000" stroke-width="2" stroke-opacity="0.200000" points="490.1,-138.09 488,-132.09 485.9,-138.09 490.1,-138.09"/>
</g>
<!-- src/main/report&#45;wrap.js&#45;&gt;src/graph&#45;utl/strip&#45;self&#45;transitions.js -->
<g id="edge24" class="edge">
<title>src/main/report&#45;wrap.js&#45;&gt;src/graph&#45;utl/strip&#45;self&#45;transitions.js</title>
<path fill="none" stroke="#000000" stroke-width="2" stroke-opacity="0.200000" d="M387.67,-177.6C415.14,-177.6 448,-177.6 448,-177.6 448,-177.6 448,-108.05 448,-108.05"/>
<polygon fill="#000000" fill-opacity="0.200000" stroke="#000000" stroke-width="2" stroke-opacity="0.200000" points="450.1,-108.05 448,-102.05 445.9,-108.05 450.1,-108.05"/>
</g>
<!-- src/main/report&#45;wrap.js&#45;&gt;src/report/index.js -->
<g id="edge25" class="edge">
<title>src/main/report&#45;wrap.js&#45;&gt;src/report/index.js</title>
<path fill="none" stroke="#000000" stroke-width="2" stroke-opacity="0.200000" d="M387.55,-184.8C464.25,-184.8 635,-184.8 635,-184.8 635,-184.8 635,-138.12 635,-138.12"/>
<polygon fill="#000000" fill-opacity="0.200000" stroke="#000000" stroke-width="2" stroke-opacity="0.200000" points="637.1,-138.12 635,-132.12 632.9,-138.12 637.1,-138.12"/>
</g>
<!-- src/main/rule&#45;set/normalize.js&#45;&gt;src/main/utl/normalize&#45;re&#45;properties.js -->
<g id="edge27" class="edge">
<title>src/main/rule&#45;set/normalize.js&#45;&gt;src/main/utl/normalize&#45;re&#45;properties.js</title>
<path fill="none" stroke="#000000" stroke-width="2" stroke-opacity="0.200000" d="M384.13,-331C384.13,-331 567.74,-331 567.74,-331"/>
<polygon fill="#000000" fill-opacity="0.200000" stroke="#000000" stroke-width="2" stroke-opacity="0.200000" points="567.74,-333.1 573.74,-331 567.74,-328.9 567.74,-333.1"/>
</g>
<!-- src/main/rule&#45;set/validate.js&#45;&gt;src/main/options/validate.js -->
<g id="edge29" class="edge">
<title>src/main/rule&#45;set/validate.js&#45;&gt;src/main/options/validate.js</title>
<path fill="none" stroke="#000000" stroke-width="2" stroke-opacity="0.200000" d="M351,-291.86C351,-284.03 351,-274 351,-274 351,-274 452.22,-274 452.22,-274"/>
<polygon fill="#000000" fill-opacity="0.200000" stroke="#000000" stroke-width="2" stroke-opacity="0.200000" points="452.22,-276.1 458.22,-274 452.22,-271.9 452.22,-276.1"/>
</g>
<!-- src/schema/configuration.schema.json -->
<g id="node26" class="node">
<title>src/schema/configuration.schema.json</title>
<g id="a_node26"><a xlink:href="src/schema/configuration.schema.json" xlink:title="configuration.schema.json">
<path fill="#ffee44" stroke="black" d="M543.5,-726C543.5,-726 431.5,-726 431.5,-726 428.5,-726 425.5,-723 425.5,-720 425.5,-720 425.5,-714 425.5,-714 425.5,-711 428.5,-708 431.5,-708 431.5,-708 543.5,-708 543.5,-708 546.5,-708 549.5,-711 549.5,-714 549.5,-714 549.5,-720 549.5,-720 549.5,-723 546.5,-726 543.5,-726"/>
<text text-anchor="middle" x="487.5" y="-714.8" font-family="Helvetica,sans-Serif" font-size="9.00">configuration.schema.json</text>
</a>
</g>
</g>
<!-- src/main/rule&#45;set/validate.js&#45;&gt;src/schema/configuration.schema.json -->
<g id="edge28" class="edge">
<title>src/main/rule&#45;set/validate.js&#45;&gt;src/schema/configuration.schema.json</title>
<path fill="none" stroke="#000000" stroke-width="2" stroke-opacity="0.200000" d="M380.09,-301C391.08,-301 401,-301 401,-301 401,-301 401,-717 401,-717 401,-717 419.1,-717 419.1,-717"/>
<polygon fill="#000000" fill-opacity="0.200000" stroke="#000000" stroke-width="2" stroke-opacity="0.200000" points="419.1,-719.1 425.1,-717 419.1,-714.9 419.1,-719.1"/>
</g>
</g>
</svg>
