<?xml version="1.0" encoding="UTF-8" standalone="no"?>
<!DOCTYPE svg PUBLIC "-//W3C//DTD SVG 1.1//EN"
 "http://www.w3.org/Graphics/SVG/1.1/DTD/svg11.dtd">
<!-- Generated by graphviz version 14.0.4 (20251115.1723)
 -->
<!-- Title: dependency&#45;cruiser output Pages: 1 -->
<svg width="962pt" height="904pt"
 viewBox="0.00 0.00 962.00 904.00" xmlns="http://www.w3.org/2000/svg" xmlns:xlink="http://www.w3.org/1999/xlink">
<g id="graph0" class="graph" transform="scale(1 1) rotate(0) translate(4 900)">
<title>dependency&#45;cruiser output</title>
<polygon fill="white" stroke="none" points="-4,4 -4,-900 958.25,-900 958.25,4 -4,4"/>
<g id="clust1" class="cluster">
<title>cluster_src</title>
<path fill="#ffffff" stroke="black" stroke-width="2" d="M20,-8C20,-8 934.25,-8 934.25,-8 940.25,-8 946.25,-14 946.25,-20 946.25,-20 946.25,-876 946.25,-876 946.25,-882 940.25,-888 934.25,-888 934.25,-888 20,-888 20,-888 14,-888 8,-882 8,-876 8,-876 8,-20 8,-20 8,-14 14,-8 20,-8"/>
<text xml:space="preserve" text-anchor="middle" x="477.12" y="-875.45" font-family="Helvetica,sans-Serif" font-weight="bold" font-size="9.00">src</text>
</g>
<g id="clust2" class="cluster">
<title>cluster_src/cache</title>
<path fill="#ffffff" stroke="black" stroke-width="2" d="M470.75,-594C470.75,-594 520,-594 520,-594 526,-594 532,-600 532,-606 532,-606 532,-634 532,-634 532,-640 526,-646 520,-646 520,-646 470.75,-646 470.75,-646 464.75,-646 458.75,-640 458.75,-634 458.75,-634 458.75,-606 458.75,-606 458.75,-600 464.75,-594 470.75,-594"/>
<text xml:space="preserve" text-anchor="middle" x="495.38" y="-633.45" font-family="Helvetica,sans-Serif" font-weight="bold" font-size="9.00">cache</text>
</g>
<g id="clust3" class="cluster">
<title>cluster_src/cli</title>
<path fill="#ffffff" stroke="black" stroke-width="2" d="M28,-323C28,-323 190.25,-323 190.25,-323 196.25,-323 202.25,-329 202.25,-335 202.25,-335 202.25,-393 202.25,-393 202.25,-399 196.25,-405 190.25,-405 190.25,-405 28,-405 28,-405 22,-405 16,-399 16,-393 16,-393 16,-335 16,-335 16,-329 22,-323 28,-323"/>
<text xml:space="preserve" text-anchor="middle" x="109.12" y="-392.45" font-family="Helvetica,sans-Serif" font-weight="bold" font-size="9.00">cli</text>
</g>
<g id="clust4" class="cluster">
<title>cluster_src/config&#45;utl</title>
<path fill="#ffffff" stroke="black" stroke-width="2" d="M301.25,-48C301.25,-48 415,-48 415,-48 421,-48 427,-54 427,-60 427,-60 427,-122 427,-122 427,-128 421,-134 415,-134 415,-134 301.25,-134 301.25,-134 295.25,-134 289.25,-128 289.25,-122 289.25,-122 289.25,-60 289.25,-60 289.25,-54 295.25,-48 301.25,-48"/>
<text xml:space="preserve" text-anchor="middle" x="358.12" y="-121.45" font-family="Helvetica,sans-Serif" font-weight="bold" font-size="9.00">config&#45;utl</text>
</g>
<g id="clust5" class="cluster">
<title>cluster_src/config&#45;utl/extract&#45;depcruise&#45;config</title>
<path fill="#ffffff" stroke="black" stroke-width="2" d="M309.25,-56C309.25,-56 407,-56 407,-56 413,-56 419,-62 419,-68 419,-68 419,-96 419,-96 419,-102 413,-108 407,-108 407,-108 309.25,-108 309.25,-108 303.25,-108 297.25,-102 297.25,-96 297.25,-96 297.25,-68 297.25,-68 297.25,-62 303.25,-56 309.25,-56"/>
<text xml:space="preserve" text-anchor="middle" x="358.12" y="-95.45" font-family="Helvetica,sans-Serif" font-weight="bold" font-size="9.00">extract&#45;depcruise&#45;config</text>
</g>
<g id="clust6" class="cluster">
<title>cluster_src/enrich</title>
<path fill="#ffffff" stroke="black" stroke-width="2" d="M600.38,-776C600.38,-776 775.62,-776 775.62,-776 781.62,-776 787.62,-782 787.62,-788 787.62,-788 787.62,-850 787.62,-850 787.62,-856 781.62,-862 775.62,-862 775.62,-862 600.38,-862 600.38,-862 594.38,-862 588.38,-856 588.38,-850 588.38,-850 588.38,-788 588.38,-788 588.38,-782 594.38,-776 600.38,-776"/>
<text xml:space="preserve" text-anchor="middle" x="688" y="-849.45" font-family="Helvetica,sans-Serif" font-weight="bold" font-size="9.00">enrich</text>
</g>
<g id="clust7" class="cluster">
<title>cluster_src/enrich/summarize</title>
<path fill="#ffffff" stroke="black" stroke-width="2" d="M720.62,-784C720.62,-784 767.62,-784 767.62,-784 773.62,-784 779.62,-790 779.62,-796 779.62,-796 779.62,-824 779.62,-824 779.62,-830 773.62,-836 767.62,-836 767.62,-836 720.62,-836 720.62,-836 714.62,-836 708.62,-830 708.62,-824 708.62,-824 708.62,-796 708.62,-796 708.62,-790 714.62,-784 720.62,-784"/>
<text xml:space="preserve" text-anchor="middle" x="744.12" y="-823.45" font-family="Helvetica,sans-Serif" font-weight="bold" font-size="9.00">summarize</text>
</g>
<g id="clust8" class="cluster">
<title>cluster_src/extract</title>
<path fill="#ffffff" stroke="black" stroke-width="2" d="M592.88,-604C592.88,-604 654.88,-604 654.88,-604 660.88,-604 666.88,-610 666.88,-616 666.88,-616 666.88,-704 666.88,-704 666.88,-710 660.88,-716 654.88,-716 654.88,-716 592.88,-716 592.88,-716 586.88,-716 580.88,-710 580.88,-704 580.88,-704 580.88,-616 580.88,-616 580.88,-610 586.88,-604 592.88,-604"/>
<text xml:space="preserve" text-anchor="middle" x="623.88" y="-703.45" font-family="Helvetica,sans-Serif" font-weight="bold" font-size="9.00">extract</text>
</g>
<g id="clust9" class="cluster">
<title>cluster_src/extract/transpile</title>
<path fill="#ffffff" stroke="black" stroke-width="2" d="M600.88,-638C600.88,-638 646.88,-638 646.88,-638 652.88,-638 658.88,-644 658.88,-650 658.88,-650 658.88,-678 658.88,-678 658.88,-684 652.88,-690 646.88,-690 646.88,-690 600.88,-690 600.88,-690 594.88,-690 588.88,-684 588.88,-678 588.88,-678 588.88,-650 588.88,-650 588.88,-644 594.88,-638 600.88,-638"/>
<text xml:space="preserve" text-anchor="middle" x="623.88" y="-677.45" font-family="Helvetica,sans-Serif" font-weight="bold" font-size="9.00">transpile</text>
</g>
<g id="clust10" class="cluster">
<title>cluster_src/graph&#45;utl</title>
<path fill="#ffffff" stroke="black" stroke-width="2" d="M812.5,-16C812.5,-16 926.25,-16 926.25,-16 932.25,-16 938.25,-22 938.25,-28 938.25,-28 938.25,-176 938.25,-176 938.25,-182 932.25,-188 926.25,-188 926.25,-188 812.5,-188 812.5,-188 806.5,-188 800.5,-182 800.5,-176 800.5,-176 800.5,-28 800.5,-28 800.5,-22 806.5,-16 812.5,-16"/>
<text xml:space="preserve" text-anchor="middle" x="869.38" y="-175.45" font-family="Helvetica,sans-Serif" font-weight="bold" font-size="9.00">graph&#45;utl</text>
</g>
<g id="clust11" class="cluster">
<title>cluster_src/main</title>
<path fill="#ffffff" stroke="black" stroke-width="2" d="M222.25,-142C222.25,-142 780.5,-142 780.5,-142 786.5,-142 792.5,-148 792.5,-154 792.5,-154 792.5,-426 792.5,-426 792.5,-432 786.5,-438 780.5,-438 780.5,-438 222.25,-438 222.25,-438 216.25,-438 210.25,-432 210.25,-426 210.25,-426 210.25,-154 210.25,-154 210.25,-148 216.25,-142 222.25,-142"/>
<text xml:space="preserve" text-anchor="middle" x="501.38" y="-425.45" font-family="Helvetica,sans-Serif" font-weight="bold" font-size="9.00">main</text>
</g>
<g id="clust12" class="cluster">
<title>cluster_src/main/files&#45;and&#45;dirs</title>
<path fill="#ffffff" stroke="black" stroke-width="2" d="M462.88,-260C462.88,-260 527.88,-260 527.88,-260 533.88,-260 539.88,-266 539.88,-272 539.88,-272 539.88,-300 539.88,-300 539.88,-306 533.88,-312 527.88,-312 527.88,-312 462.88,-312 462.88,-312 456.88,-312 450.88,-306 450.88,-300 450.88,-300 450.88,-272 450.88,-272 450.88,-266 456.88,-260 462.88,-260"/>
<text xml:space="preserve" text-anchor="middle" x="495.38" y="-299.45" font-family="Helvetica,sans-Serif" font-weight="bold" font-size="9.00">files&#45;and&#45;dirs</text>
</g>
<g id="clust13" class="cluster">
<title>cluster_src/main/options</title>
<path fill="#ffffff" stroke="black" stroke-width="2" d="M583.5,-231C583.5,-231 772.5,-231 772.5,-231 778.5,-231 784.5,-237 784.5,-243 784.5,-243 784.5,-301 784.5,-301 784.5,-307 778.5,-313 772.5,-313 772.5,-313 583.5,-313 583.5,-313 577.5,-313 571.5,-307 571.5,-301 571.5,-301 571.5,-243 571.5,-243 571.5,-237 577.5,-231 583.5,-231"/>
<text xml:space="preserve" text-anchor="middle" x="678" y="-300.45" font-family="Helvetica,sans-Serif" font-weight="bold" font-size="9.00">options</text>
</g>
<g id="clust14" class="cluster">
<title>cluster_src/main/resolve&#45;options</title>
<path fill="#ffffff" stroke="black" stroke-width="2" d="M462.88,-190C462.88,-190 527.88,-190 527.88,-190 533.88,-190 539.88,-196 539.88,-202 539.88,-202 539.88,-230 539.88,-230 539.88,-236 533.88,-242 527.88,-242 527.88,-242 462.88,-242 462.88,-242 456.88,-242 450.88,-236 450.88,-230 450.88,-230 450.88,-202 450.88,-202 450.88,-196 456.88,-190 462.88,-190"/>
<text xml:space="preserve" text-anchor="middle" x="495.38" y="-229.45" font-family="Helvetica,sans-Serif" font-weight="bold" font-size="9.00">resolve&#45;options</text>
</g>
<g id="clust15" class="cluster">
<title>cluster_src/main/rule&#45;set</title>
<path fill="#ffffff" stroke="black" stroke-width="2" d="M455,-330C455,-330 535.75,-330 535.75,-330 541.75,-330 547.75,-336 547.75,-342 547.75,-342 547.75,-400 547.75,-400 547.75,-406 541.75,-412 535.75,-412 535.75,-412 455,-412 455,-412 449,-412 443,-406 443,-400 443,-400 443,-342 443,-342 443,-336 449,-330 455,-330"/>
<text xml:space="preserve" text-anchor="middle" x="495.38" y="-399.45" font-family="Helvetica,sans-Serif" font-weight="bold" font-size="9.00">rule&#45;set</text>
</g>
<g id="clust16" class="cluster">
<title>cluster_src/report</title>
<path fill="#ffffff" stroke="black" stroke-width="2" d="M720.62,-82C720.62,-82 767.62,-82 767.62,-82 773.62,-82 779.62,-88 779.62,-94 779.62,-94 779.62,-122 779.62,-122 779.62,-128 773.62,-134 767.62,-134 767.62,-134 720.62,-134 720.62,-134 714.62,-134 708.62,-128 708.62,-122 708.62,-122 708.62,-94 708.62,-94 708.62,-88 714.62,-82 720.62,-82"/>
<text xml:space="preserve" text-anchor="middle" x="744.12" y="-121.45" font-family="Helvetica,sans-Serif" font-weight="bold" font-size="9.00">report</text>
</g>
<g id="clust17" class="cluster">
<title>cluster_src/schema</title>
<path fill="#ffffff" stroke="black" stroke-width="2" d="M567.75,-446C567.75,-446 680,-446 680,-446 686,-446 692,-452 692,-458 692,-458 692,-546 692,-546 692,-552 686,-558 680,-558 680,-558 567.75,-558 567.75,-558 561.75,-558 555.75,-552 555.75,-546 555.75,-546 555.75,-458 555.75,-458 555.75,-452 561.75,-446 567.75,-446"/>
<text xml:space="preserve" text-anchor="middle" x="623.88" y="-545.45" font-family="Helvetica,sans-Serif" font-weight="bold" font-size="9.00">schema</text>
</g>
<g id="clust18" class="cluster">
<title>cluster_src/utl</title>
<path fill="#ffffff" stroke="black" stroke-width="2" d="M712,-544C712,-544 776.25,-544 776.25,-544 782.25,-544 788.25,-550 788.25,-556 788.25,-556 788.25,-644 788.25,-644 788.25,-650 782.25,-656 776.25,-656 776.25,-656 712,-656 712,-656 706,-656 700,-650 700,-644 700,-644 700,-556 700,-556 700,-550 706,-544 712,-544"/>
<text xml:space="preserve" text-anchor="middle" x="744.12" y="-643.45" font-family="Helvetica,sans-Serif" font-weight="bold" font-size="9.00">utl</text>
</g>
<!-- src/cache/cache.mjs -->
<g id="node1" class="node">
<title>src/cache/cache.mjs</title>
<g id="a_node1"><a xlink:href="src/cache/cache.mjs" xlink:title="cache.mjs">
<path fill="#ffffcc" stroke="black" d="M518.08,-619.88C518.08,-619.88 472.67,-619.88 472.67,-619.88 469.71,-619.88 466.75,-616.92 466.75,-613.96 466.75,-613.96 466.75,-608.04 466.75,-608.04 466.75,-605.08 469.71,-602.12 472.67,-602.12 472.67,-602.12 518.08,-602.12 518.08,-602.12 521.04,-602.12 524,-605.08 524,-608.04 524,-608.04 524,-613.96 524,-613.96 524,-616.92 521.04,-619.88 518.08,-619.88"/>
<text xml:space="preserve" text-anchor="start" x="474.75" y="-607.33" font-family="Helvetica,sans-Serif" font-size="9.00">cache.mjs</text>
</a>
</g>
</g>
<!-- src/extract/transpile/meta.mjs -->
<g id="node2" class="node">
<title>src/extract/transpile/meta.mjs</title>
<g id="a_node2"><a xlink:href="src/extract/transpile/meta.mjs" xlink:title="meta.mjs">
<path fill="#ffffcc" stroke="black" d="M644.96,-663.88C644.96,-663.88 602.79,-663.88 602.79,-663.88 599.83,-663.88 596.88,-660.92 596.88,-657.96 596.88,-657.96 596.88,-652.04 596.88,-652.04 596.88,-649.08 599.83,-646.12 602.79,-646.12 602.79,-646.12 644.96,-646.12 644.96,-646.12 647.92,-646.12 650.88,-649.08 650.88,-652.04 650.88,-652.04 650.88,-657.96 650.88,-657.96 650.88,-660.92 647.92,-663.88 644.96,-663.88"/>
<text xml:space="preserve" text-anchor="start" x="605.5" y="-651.33" font-family="Helvetica,sans-Serif" font-size="9.00">meta.mjs</text>
</a>
</g>
</g>
<!-- src/cache/cache.mjs&#45;&gt;src/extract/transpile/meta.mjs -->
<g id="edge1" class="edge">
<title>src/cache/cache.mjs&#45;&gt;src/extract/transpile/meta.mjs</title>
<path fill="none" stroke="#000000" stroke-width="2" stroke-opacity="0.200000" d="M495.25,-620.33C495.25,-633.25 495.25,-655 495.25,-655 495.25,-655 587.57,-655 587.57,-655"/>
<polygon fill="#000000" fill-opacity="0.200000" stroke="#000000" stroke-width="2" stroke-opacity="0.200000" points="587.57,-657.1 593.57,-655 587.57,-652.9 587.57,-657.1"/>
</g>
<!-- src/utl/bus.mjs -->
<g id="node3" class="node">
<title>src/utl/bus.mjs</title>
<g id="a_node3"><a xlink:href="src/utl/bus.mjs" xlink:title="bus.mjs">
<path fill="#ffffcc" stroke="black" d="M765.21,-629.88C765.21,-629.88 723.04,-629.88 723.04,-629.88 720.08,-629.88 717.12,-626.92 717.12,-623.96 717.12,-623.96 717.12,-618.04 717.12,-618.04 717.12,-615.08 720.08,-612.12 723.04,-612.12 723.04,-612.12 765.21,-612.12 765.21,-612.12 768.17,-612.12 771.12,-615.08 771.12,-618.04 771.12,-618.04 771.12,-623.96 771.12,-623.96 771.12,-626.92 768.17,-629.88 765.21,-629.88"/>
<text xml:space="preserve" text-anchor="start" x="728.38" y="-617.33" font-family="Helvetica,sans-Serif" font-size="9.00">bus.mjs</text>
</a>
</g>
</g>
<!-- src/cache/cache.mjs&#45;&gt;src/utl/bus.mjs -->
<g id="edge2" class="edge">
<title>src/cache/cache.mjs&#45;&gt;src/utl/bus.mjs</title>
<path fill="none" stroke="#000000" stroke-width="2" stroke-opacity="0.200000" d="M524.41,-607.12C590.06,-607.12 744.25,-607.12 744.25,-607.12 744.25,-607.12 744.25,-607.59 744.25,-607.59"/>
<polygon fill="#000000" fill-opacity="0.200000" stroke="#000000" stroke-width="2" stroke-opacity="0.200000" points="742.15,-602.8 744.25,-608.8 746.35,-602.8 742.15,-602.8"/>
</g>
<!-- src/cli/format&#45;meta&#45;info.mjs -->
<g id="node4" class="node">
<title>src/cli/format&#45;meta&#45;info.mjs</title>
<g id="a_node4"><a xlink:href="src/cli/format-meta-info.mjs" xlink:title="format&#45;meta&#45;info.mjs">
<path fill="#ffffcc" stroke="black" d="M188.33,-378.88C188.33,-378.88 100.92,-378.88 100.92,-378.88 97.96,-378.88 95,-375.92 95,-372.96 95,-372.96 95,-367.04 95,-367.04 95,-364.08 97.96,-361.12 100.92,-361.12 100.92,-361.12 188.33,-361.12 188.33,-361.12 191.29,-361.12 194.25,-364.08 194.25,-367.04 194.25,-367.04 194.25,-372.96 194.25,-372.96 194.25,-375.92 191.29,-378.88 188.33,-378.88"/>
<text xml:space="preserve" text-anchor="start" x="103" y="-366.32" font-family="Helvetica,sans-Serif" font-size="9.00">format&#45;meta&#45;info.mjs</text>
</a>
</g>
</g>
<!-- src/main/index.mjs -->
<g id="node5" class="node">
<title>src/main/index.mjs</title>
<g id="a_node5"><a xlink:href="src/main/index.mjs" xlink:title="index.mjs">
<path fill="#ffffcc" stroke="black" d="M267.33,-378.88C267.33,-378.88 224.17,-378.88 224.17,-378.88 221.21,-378.88 218.25,-375.92 218.25,-372.96 218.25,-372.96 218.25,-367.04 218.25,-367.04 218.25,-364.08 221.21,-361.12 224.17,-361.12 224.17,-361.12 267.33,-361.12 267.33,-361.12 270.29,-361.12 273.25,-364.08 273.25,-367.04 273.25,-367.04 273.25,-372.96 273.25,-372.96 273.25,-375.92 270.29,-378.88 267.33,-378.88"/>
<text xml:space="preserve" text-anchor="start" x="226.25" y="-366.32" font-family="Helvetica,sans-Serif" font-size="9.00">index.mjs</text>
</a>
</g>
</g>
<!-- src/cli/format&#45;meta&#45;info.mjs&#45;&gt;src/main/index.mjs -->
<g id="edge3" class="edge">
<title>src/cli/format&#45;meta&#45;info.mjs&#45;&gt;src/main/index.mjs</title>
<path fill="none" stroke="#000000" stroke-width="2" stroke-opacity="0.200000" d="M194.59,-370C194.59,-370 208.99,-370 208.99,-370"/>
<polygon fill="#000000" fill-opacity="0.200000" stroke="#000000" stroke-width="2" stroke-opacity="0.200000" points="208.99,-372.1 214.99,-370 208.99,-367.9 208.99,-372.1"/>
</g>
<!-- src/main/index.mjs&#45;&gt;src/extract/transpile/meta.mjs -->
<g id="edge33" class="edge">
<title>src/main/index.mjs&#45;&gt;src/extract/transpile/meta.mjs</title>
<path fill="none" stroke="#000000" stroke-width="2" stroke-opacity="0.200000" d="M273.5,-371.71C287.38,-371.71 301.25,-371.71 301.25,-371.71 301.25,-371.71 301.25,-659.44 301.25,-659.44 301.25,-659.44 587.62,-659.44 587.62,-659.44"/>
<polygon fill="#000000" fill-opacity="0.200000" stroke="#000000" stroke-width="2" stroke-opacity="0.200000" points="587.62,-661.54 593.62,-659.44 587.62,-657.34 587.62,-661.54"/>
</g>
<!-- src/main/format.mjs -->
<g id="node7" class="node">
<title>src/main/format.mjs</title>
<g id="a_node7"><a xlink:href="src/main/format.mjs" xlink:title="format.mjs">
<path fill="#ffffcc" stroke="black" d="M518.46,-181.88C518.46,-181.88 472.29,-181.88 472.29,-181.88 469.33,-181.88 466.38,-178.92 466.38,-175.96 466.38,-175.96 466.38,-170.04 466.38,-170.04 466.38,-167.08 469.33,-164.12 472.29,-164.12 472.29,-164.12 518.46,-164.12 518.46,-164.12 521.42,-164.12 524.38,-167.08 524.38,-170.04 524.38,-170.04 524.38,-175.96 524.38,-175.96 524.38,-178.92 521.42,-181.88 518.46,-181.88"/>
<text xml:space="preserve" text-anchor="start" x="474.38" y="-169.32" font-family="Helvetica,sans-Serif" font-size="9.00">format.mjs</text>
</a>
</g>
</g>
<!-- src/main/index.mjs&#45;&gt;src/main/format.mjs -->
<g id="edge32" class="edge">
<title>src/main/index.mjs&#45;&gt;src/main/format.mjs</title>
<path fill="none" stroke="#000000" stroke-width="2" stroke-opacity="0.200000" d="M236.25,-360.64C236.25,-321.88 236.25,-175.96 236.25,-175.96 236.25,-175.96 456.88,-175.96 456.88,-175.96"/>
<polygon fill="#000000" fill-opacity="0.200000" stroke="#000000" stroke-width="2" stroke-opacity="0.200000" points="456.88,-178.06 462.88,-175.96 456.88,-173.86 456.88,-178.06"/>
</g>
<!-- src/main/cruise.mjs -->
<g id="node9" class="node">
<title>src/main/cruise.mjs</title>
<g id="a_node9"><a xlink:href="src/main/cruise.mjs" xlink:title="cruise.mjs">
<path fill="#ffffcc" stroke="black" d="M380.33,-356.88C380.33,-356.88 334.92,-356.88 334.92,-356.88 331.96,-356.88 329,-353.92 329,-350.96 329,-350.96 329,-345.04 329,-345.04 329,-342.08 331.96,-339.12 334.92,-339.12 334.92,-339.12 380.33,-339.12 380.33,-339.12 383.29,-339.12 386.25,-342.08 386.25,-345.04 386.25,-345.04 386.25,-350.96 386.25,-350.96 386.25,-353.92 383.29,-356.88 380.33,-356.88"/>
<text xml:space="preserve" text-anchor="start" x="337" y="-344.32" font-family="Helvetica,sans-Serif" font-size="9.00">cruise.mjs</text>
</a>
</g>
</g>
<!-- src/main/index.mjs&#45;&gt;src/main/cruise.mjs -->
<g id="edge31" class="edge">
<title>src/main/index.mjs&#45;&gt;src/main/cruise.mjs</title>
<path fill="none" stroke="#000000" stroke-width="2" stroke-opacity="0.200000" d="M255.25,-360.63C255.25,-357.23 255.25,-354.21 255.25,-354.21 255.25,-354.21 319.54,-354.21 319.54,-354.21"/>
<polygon fill="#000000" fill-opacity="0.200000" stroke="#000000" stroke-width="2" stroke-opacity="0.200000" points="319.54,-356.31 325.54,-354.21 319.54,-352.11 319.54,-356.31"/>
</g>
<!-- src/cli/format.mjs -->
<g id="node6" class="node">
<title>src/cli/format.mjs</title>
<g id="a_node6"><a xlink:href="src/cli/format.mjs" xlink:title="format.mjs">
<path fill="#ffffcc" stroke="black" d="M76.08,-348.88C76.08,-348.88 29.92,-348.88 29.92,-348.88 26.96,-348.88 24,-345.92 24,-342.96 24,-342.96 24,-337.04 24,-337.04 24,-334.08 26.96,-331.12 29.92,-331.12 29.92,-331.12 76.08,-331.12 76.08,-331.12 79.04,-331.12 82,-334.08 82,-337.04 82,-337.04 82,-342.96 82,-342.96 82,-345.92 79.04,-348.88 76.08,-348.88"/>
<text xml:space="preserve" text-anchor="start" x="32" y="-336.32" font-family="Helvetica,sans-Serif" font-size="9.00">format.mjs</text>
</a>
</g>
</g>
<!-- src/cli/format.mjs&#45;&gt;src/main/format.mjs -->
<g id="edge4" class="edge">
<title>src/cli/format.mjs&#45;&gt;src/main/format.mjs</title>
<path fill="none" stroke="#000000" stroke-width="2" stroke-opacity="0.200000" d="M53.25,-330.86C53.25,-295.56 53.25,-170.04 53.25,-170.04 53.25,-170.04 457,-170.04 457,-170.04"/>
<polygon fill="#000000" fill-opacity="0.200000" stroke="#000000" stroke-width="2" stroke-opacity="0.200000" points="457,-172.14 463,-170.04 457,-167.94 457,-172.14"/>
</g>
<!-- src/main/options/assert&#45;validity.mjs -->
<g id="node22" class="node">
<title>src/main/options/assert&#45;validity.mjs</title>
<g id="a_node22"><a xlink:href="src/main/options/assert-validity.mjs" xlink:title="assert&#45;validity.mjs">
<path fill="#ffffcc" stroke="black" d="M662.33,-256.88C662.33,-256.88 585.42,-256.88 585.42,-256.88 582.46,-256.88 579.5,-253.92 579.5,-250.96 579.5,-250.96 579.5,-245.04 579.5,-245.04 579.5,-242.08 582.46,-239.12 585.42,-239.12 585.42,-239.12 662.33,-239.12 662.33,-239.12 665.29,-239.12 668.25,-242.08 668.25,-245.04 668.25,-245.04 668.25,-250.96 668.25,-250.96 668.25,-253.92 665.29,-256.88 662.33,-256.88"/>
<text xml:space="preserve" text-anchor="start" x="587.5" y="-244.32" font-family="Helvetica,sans-Serif" font-size="9.00">assert&#45;validity.mjs</text>
</a>
</g>
</g>
<!-- src/main/format.mjs&#45;&gt;src/main/options/assert&#45;validity.mjs -->
<g id="edge25" class="edge">
<title>src/main/format.mjs&#45;&gt;src/main/options/assert&#45;validity.mjs</title>
<path fill="none" stroke="#000000" stroke-width="2" stroke-opacity="0.200000" d="M524.62,-170.68C562.64,-170.68 624.25,-170.68 624.25,-170.68 624.25,-170.68 624.25,-229.8 624.25,-229.8"/>
<polygon fill="#000000" fill-opacity="0.200000" stroke="#000000" stroke-width="2" stroke-opacity="0.200000" points="622.15,-229.8 624.25,-235.8 626.35,-229.8 622.15,-229.8"/>
</g>
<!-- src/main/options/normalize.mjs -->
<g id="node23" class="node">
<title>src/main/options/normalize.mjs</title>
<g id="a_node23"><a xlink:href="src/main/options/normalize.mjs" xlink:title="normalize.mjs">
<path fill="#ffffcc" stroke="black" d="M654.46,-286.88C654.46,-286.88 593.29,-286.88 593.29,-286.88 590.33,-286.88 587.38,-283.92 587.38,-280.96 587.38,-280.96 587.38,-275.04 587.38,-275.04 587.38,-272.08 590.33,-269.12 593.29,-269.12 593.29,-269.12 654.46,-269.12 654.46,-269.12 657.42,-269.12 660.38,-272.08 660.38,-275.04 660.38,-275.04 660.38,-280.96 660.38,-280.96 660.38,-283.92 657.42,-286.88 654.46,-286.88"/>
<text xml:space="preserve" text-anchor="start" x="595.38" y="-274.32" font-family="Helvetica,sans-Serif" font-size="9.00">normalize.mjs</text>
</a>
</g>
</g>
<!-- src/main/format.mjs&#45;&gt;src/main/options/normalize.mjs -->
<g id="edge26" class="edge">
<title>src/main/format.mjs&#45;&gt;src/main/options/normalize.mjs</title>
<path fill="none" stroke="#000000" stroke-width="2" stroke-opacity="0.200000" d="M524.65,-179.07C531.2,-179.07 536.25,-179.07 536.25,-179.07 536.25,-179.07 536.25,-277.5 536.25,-277.5 536.25,-277.5 577.94,-277.5 577.94,-277.5"/>
<polygon fill="#000000" fill-opacity="0.200000" stroke="#000000" stroke-width="2" stroke-opacity="0.200000" points="577.94,-279.6 583.94,-277.5 577.94,-275.4 577.94,-279.6"/>
</g>
<!-- src/main/report&#45;wrap.mjs -->
<g id="node24" class="node">
<title>src/main/report&#45;wrap.mjs</title>
<g id="a_node24"><a xlink:href="src/main/report-wrap.mjs" xlink:title="report&#45;wrap.mjs">
<path fill="#ffffcc" stroke="black" d="M657.83,-167.88C657.83,-167.88 589.92,-167.88 589.92,-167.88 586.96,-167.88 584,-164.92 584,-161.96 584,-161.96 584,-156.04 584,-156.04 584,-153.08 586.96,-150.12 589.92,-150.12 589.92,-150.12 657.83,-150.12 657.83,-150.12 660.79,-150.12 663.75,-153.08 663.75,-156.04 663.75,-156.04 663.75,-161.96 663.75,-161.96 663.75,-164.92 660.79,-167.88 657.83,-167.88"/>
<text xml:space="preserve" text-anchor="start" x="592" y="-155.32" font-family="Helvetica,sans-Serif" font-size="9.00">report&#45;wrap.mjs</text>
</a>
</g>
</g>
<!-- src/main/format.mjs&#45;&gt;src/main/report&#45;wrap.mjs -->
<g id="edge27" class="edge">
<title>src/main/format.mjs&#45;&gt;src/main/report&#45;wrap.mjs</title>
<path fill="none" stroke="#000000" stroke-width="2" stroke-opacity="0.200000" d="M495.25,-163.74C495.25,-161.36 495.25,-159.46 495.25,-159.46 495.25,-159.46 574.5,-159.46 574.5,-159.46"/>
<polygon fill="#000000" fill-opacity="0.200000" stroke="#000000" stroke-width="2" stroke-opacity="0.200000" points="574.5,-161.56 580.5,-159.46 574.5,-157.36 574.5,-161.56"/>
</g>
<!-- src/schema/cruise&#45;result.validate.mjs -->
<g id="node27" class="node">
<title>src/schema/cruise&#45;result.validate.mjs</title>
<g id="a_node27"><a xlink:href="src/schema/cruise-result.validate.mjs" xlink:title="cruise&#45;result.validate.mjs">
<path fill="#ffffcc" stroke="black" d="M676.58,-471.88C676.58,-471.88 571.17,-471.88 571.17,-471.88 568.21,-471.88 565.25,-468.92 565.25,-465.96 565.25,-465.96 565.25,-460.04 565.25,-460.04 565.25,-457.08 568.21,-454.12 571.17,-454.12 571.17,-454.12 676.58,-454.12 676.58,-454.12 679.54,-454.12 682.5,-457.08 682.5,-460.04 682.5,-460.04 682.5,-465.96 682.5,-465.96 682.5,-468.92 679.54,-471.88 676.58,-471.88"/>
<text xml:space="preserve" text-anchor="start" x="573.25" y="-459.32" font-family="Helvetica,sans-Serif" font-size="9.00">cruise&#45;result.validate.mjs</text>
</a>
</g>
</g>
<!-- src/main/format.mjs&#45;&gt;src/schema/cruise&#45;result.validate.mjs -->
<g id="edge28" class="edge">
<title>src/main/format.mjs&#45;&gt;src/schema/cruise&#45;result.validate.mjs</title>
<path fill="none" stroke="#000000" stroke-width="2" stroke-opacity="0.200000" d="M524.44,-173.47C546.21,-173.47 572.25,-173.47 572.25,-173.48 572.25,-173.48 572.25,-444.67 572.25,-444.67"/>
<polygon fill="#000000" fill-opacity="0.200000" stroke="#000000" stroke-width="2" stroke-opacity="0.200000" points="570.15,-444.67 572.25,-450.67 574.35,-444.67 570.15,-444.67"/>
</g>
<!-- src/schema/utl.mjs -->
<g id="node28" class="node">
<title>src/schema/utl.mjs</title>
<g id="a_node28"><a xlink:href="src/schema/utl.mjs" xlink:title="utl.mjs">
<path fill="#ffffcc" stroke="black" d="M644.96,-501.88C644.96,-501.88 602.79,-501.88 602.79,-501.88 599.83,-501.88 596.88,-498.92 596.88,-495.96 596.88,-495.96 596.88,-490.04 596.88,-490.04 596.88,-487.08 599.83,-484.12 602.79,-484.12 602.79,-484.12 644.96,-484.12 644.96,-484.12 647.92,-484.12 650.88,-487.08 650.88,-490.04 650.88,-490.04 650.88,-495.96 650.88,-495.96 650.88,-498.92 647.92,-501.88 644.96,-501.88"/>
<text xml:space="preserve" text-anchor="start" x="610.75" y="-489.32" font-family="Helvetica,sans-Serif" font-size="9.00">utl.mjs</text>
</a>
</g>
</g>
<!-- src/main/format.mjs&#45;&gt;src/schema/utl.mjs -->
<g id="edge29" class="edge">
<title>src/main/format.mjs&#45;&gt;src/schema/utl.mjs</title>
<path fill="none" stroke="#000000" stroke-width="2" stroke-opacity="0.200000" d="M524.61,-176.28C539.81,-176.28 555.25,-176.28 555.25,-176.28 555.25,-176.28 555.25,-490.04 555.25,-490.04 555.25,-490.04 587.73,-490.04 587.73,-490.04"/>
<polygon fill="#000000" fill-opacity="0.200000" stroke="#000000" stroke-width="2" stroke-opacity="0.200000" points="587.73,-492.14 593.73,-490.04 587.73,-487.94 587.73,-492.14"/>
</g>
<!-- src/cli/index.mjs -->
<g id="node8" class="node">
<title>src/cli/index.mjs</title>
<g id="a_node8"><a xlink:href="src/cli/index.mjs" xlink:title="index.mjs">
<path fill="#ffffcc" stroke="black" d="M74.58,-378.88C74.58,-378.88 31.42,-378.88 31.42,-378.88 28.46,-378.88 25.5,-375.92 25.5,-372.96 25.5,-372.96 25.5,-367.04 25.5,-367.04 25.5,-364.08 28.46,-361.12 31.42,-361.12 31.42,-361.12 74.58,-361.12 74.58,-361.12 77.54,-361.12 80.5,-364.08 80.5,-367.04 80.5,-367.04 80.5,-372.96 80.5,-372.96 80.5,-375.92 77.54,-378.88 74.58,-378.88"/>
<text xml:space="preserve" text-anchor="start" x="33.5" y="-366.32" font-family="Helvetica,sans-Serif" font-size="9.00">index.mjs</text>
</a>
</g>
</g>
<!-- src/cli/index.mjs&#45;&gt;src/utl/bus.mjs -->
<g id="edge7" class="edge">
<title>src/cli/index.mjs&#45;&gt;src/utl/bus.mjs</title>
<path fill="none" stroke="#000000" stroke-width="2" stroke-opacity="0.200000" d="M44.25,-379.32C44.25,-426.92 44.25,-640.71 44.25,-640.71 44.25,-640.71 744.25,-640.71 744.25,-640.71 744.25,-640.71 744.25,-638.96 744.25,-638.96"/>
<polygon fill="#000000" fill-opacity="0.200000" stroke="#000000" stroke-width="2" stroke-opacity="0.200000" points="746.35,-638.96 744.25,-632.96 742.15,-638.96 746.35,-638.96"/>
</g>
<!-- src/cli/index.mjs&#45;&gt;src/cli/format&#45;meta&#45;info.mjs -->
<g id="edge5" class="edge">
<title>src/cli/index.mjs&#45;&gt;src/cli/format&#45;meta&#45;info.mjs</title>
<path fill="none" stroke="#000000" stroke-width="2" stroke-dasharray="5,2" stroke-opacity="0.200000" d="M80.99,-370C80.99,-370 85.81,-370 85.81,-370"/>
<polygon fill="#000000" fill-opacity="0.200000" stroke="#000000" stroke-width="2" stroke-opacity="0.200000" points="85.81,-372.1 91.81,-370 85.81,-367.9 85.81,-372.1"/>
</g>
<!-- src/cli/index.mjs&#45;&gt;src/main/cruise.mjs -->
<g id="edge6" class="edge">
<title>src/cli/index.mjs&#45;&gt;src/main/cruise.mjs</title>
<path fill="none" stroke="#000000" stroke-width="2" stroke-opacity="0.200000" d="M53.25,-360.77C53.25,-356.16 53.25,-351.54 53.25,-351.54 53.25,-351.54 319.69,-351.54 319.69,-351.54"/>
<polygon fill="#000000" fill-opacity="0.200000" stroke="#000000" stroke-width="2" stroke-opacity="0.200000" points="319.69,-353.64 325.69,-351.54 319.69,-349.44 319.69,-353.64"/>
</g>
<!-- src/utl/object&#45;util.mjs -->
<g id="node10" class="node">
<title>src/utl/object&#45;util.mjs</title>
<g id="a_node10"><a xlink:href="src/utl/object-util.mjs" xlink:title="object&#45;util.mjs">
<path fill="#ffffcc" stroke="black" d="M774.33,-599.88C774.33,-599.88 713.92,-599.88 713.92,-599.88 710.96,-599.88 708,-596.92 708,-593.96 708,-593.96 708,-588.04 708,-588.04 708,-585.08 710.96,-582.12 713.92,-582.12 713.92,-582.12 774.33,-582.12 774.33,-582.12 777.29,-582.12 780.25,-585.08 780.25,-588.04 780.25,-588.04 780.25,-593.96 780.25,-593.96 780.25,-596.92 777.29,-599.88 774.33,-599.88"/>
<text xml:space="preserve" text-anchor="start" x="716" y="-587.33" font-family="Helvetica,sans-Serif" font-size="9.00">object&#45;util.mjs</text>
</a>
</g>
</g>
<!-- src/cli/index.mjs&#45;&gt;src/utl/object&#45;util.mjs -->
<g id="edge8" class="edge">
<title>src/cli/index.mjs&#45;&gt;src/utl/object&#45;util.mjs</title>
<path fill="none" stroke="#000000" stroke-width="2" stroke-opacity="0.200000" d="M62.25,-379.34C62.25,-421.72 62.25,-593.96 62.25,-593.96 62.25,-593.96 698.92,-593.96 698.92,-593.96"/>
<polygon fill="#000000" fill-opacity="0.200000" stroke="#000000" stroke-width="2" stroke-opacity="0.200000" points="698.92,-596.06 704.92,-593.96 698.92,-591.86 698.92,-596.06"/>
</g>
<!-- src/main/cruise.mjs&#45;&gt;src/cache/cache.mjs -->
<g id="edge21" class="edge">
<title>src/main/cruise.mjs&#45;&gt;src/cache/cache.mjs</title>
<path fill="none" stroke="#000000" stroke-width="2" stroke-dasharray="5,2" stroke-opacity="0.200000" d="M367.25,-357.36C367.25,-404.21 367.25,-611 367.25,-611 367.25,-611 457.27,-611 457.27,-611"/>
<polygon fill="#000000" fill-opacity="0.200000" stroke="#000000" stroke-width="2" stroke-opacity="0.200000" points="457.27,-613.1 463.27,-611 457.27,-608.9 457.27,-613.1"/>
</g>
<!-- src/main/cruise.mjs&#45;&gt;src/utl/bus.mjs -->
<g id="edge24" class="edge">
<title>src/main/cruise.mjs&#45;&gt;src/utl/bus.mjs</title>
<path fill="none" stroke="#000000" stroke-width="2" stroke-opacity="0.200000" d="M348.25,-357.23C348.25,-406.41 348.25,-635.29 348.25,-635.29 348.25,-635.29 730.25,-635.29 730.25,-635.29 730.25,-635.29 730.25,-634.78 730.25,-634.78"/>
<polygon fill="#000000" fill-opacity="0.200000" stroke="#000000" stroke-width="2" stroke-opacity="0.200000" points="732.35,-639.16 730.25,-633.16 728.15,-639.16 732.35,-639.16"/>
</g>
<!-- src/main/resolve&#45;options/normalize.mjs -->
<g id="node12" class="node">
<title>src/main/resolve&#45;options/normalize.mjs</title>
<g id="a_node12"><a xlink:href="src/main/resolve-options/normalize.mjs" xlink:title="normalize.mjs">
<path fill="#ffffcc" stroke="black" d="M525.96,-215.88C525.96,-215.88 464.79,-215.88 464.79,-215.88 461.83,-215.88 458.88,-212.92 458.88,-209.96 458.88,-209.96 458.88,-204.04 458.88,-204.04 458.88,-201.08 461.83,-198.12 464.79,-198.12 464.79,-198.12 525.96,-198.12 525.96,-198.12 528.92,-198.12 531.88,-201.08 531.88,-204.04 531.88,-204.04 531.88,-209.96 531.88,-209.96 531.88,-212.92 528.92,-215.88 525.96,-215.88"/>
<text xml:space="preserve" text-anchor="start" x="466.88" y="-203.32" font-family="Helvetica,sans-Serif" font-size="9.00">normalize.mjs</text>
</a>
</g>
</g>
<!-- src/main/cruise.mjs&#45;&gt;src/main/resolve&#45;options/normalize.mjs -->
<g id="edge18" class="edge">
<title>src/main/cruise.mjs&#45;&gt;src/main/resolve&#45;options/normalize.mjs</title>
<path fill="none" stroke="#000000" stroke-width="2" stroke-dasharray="5,2" stroke-opacity="0.200000" d="M348.25,-338.75C348.25,-307.38 348.25,-207 348.25,-207 348.25,-207 449.6,-207 449.6,-207"/>
<polygon fill="#000000" fill-opacity="0.200000" stroke="#000000" stroke-width="2" stroke-opacity="0.200000" points="449.6,-209.1 455.6,-207 449.6,-204.9 449.6,-209.1"/>
</g>
<!-- src/enrich/index.mjs -->
<g id="node13" class="node">
<title>src/enrich/index.mjs</title>
<g id="a_node13"><a xlink:href="src/enrich/index.mjs" xlink:title="index.mjs">
<path fill="#ffffcc" stroke="black" d="M645.46,-801.88C645.46,-801.88 602.29,-801.88 602.29,-801.88 599.33,-801.88 596.38,-798.92 596.38,-795.96 596.38,-795.96 596.38,-790.04 596.38,-790.04 596.38,-787.08 599.33,-784.12 602.29,-784.12 602.29,-784.12 645.46,-784.12 645.46,-784.12 648.42,-784.12 651.38,-787.08 651.38,-790.04 651.38,-790.04 651.38,-795.96 651.38,-795.96 651.38,-798.92 648.42,-801.88 645.46,-801.88"/>
<text xml:space="preserve" text-anchor="start" x="604.38" y="-789.33" font-family="Helvetica,sans-Serif" font-size="9.00">index.mjs</text>
</a>
</g>
</g>
<!-- src/main/cruise.mjs&#45;&gt;src/enrich/index.mjs -->
<g id="edge22" class="edge">
<title>src/main/cruise.mjs&#45;&gt;src/enrich/index.mjs</title>
<path fill="none" stroke="#000000" stroke-width="2" stroke-dasharray="5,2" stroke-opacity="0.200000" d="M338.25,-357.29C338.25,-421.2 338.25,-793 338.25,-793 338.25,-793 586.94,-793 586.94,-793"/>
<polygon fill="#000000" fill-opacity="0.200000" stroke="#000000" stroke-width="2" stroke-opacity="0.200000" points="586.94,-795.1 592.94,-793 586.94,-790.9 586.94,-795.1"/>
</g>
<!-- src/extract/index.mjs -->
<g id="node16" class="node">
<title>src/extract/index.mjs</title>
<g id="a_node16"><a xlink:href="src/extract/index.mjs" xlink:title="index.mjs">
<path fill="#ffffcc" stroke="black" d="M645.46,-629.88C645.46,-629.88 602.29,-629.88 602.29,-629.88 599.33,-629.88 596.38,-626.92 596.38,-623.96 596.38,-623.96 596.38,-618.04 596.38,-618.04 596.38,-615.08 599.33,-612.12 602.29,-612.12 602.29,-612.12 645.46,-612.12 645.46,-612.12 648.42,-612.12 651.38,-615.08 651.38,-618.04 651.38,-618.04 651.38,-623.96 651.38,-623.96 651.38,-626.92 648.42,-629.88 645.46,-629.88"/>
<text xml:space="preserve" text-anchor="start" x="604.38" y="-617.33" font-family="Helvetica,sans-Serif" font-size="9.00">index.mjs</text>
</a>
</g>
</g>
<!-- src/main/cruise.mjs&#45;&gt;src/extract/index.mjs -->
<g id="edge23" class="edge">
<title>src/main/cruise.mjs&#45;&gt;src/extract/index.mjs</title>
<path fill="none" stroke="#000000" stroke-width="2" stroke-dasharray="5,2" stroke-opacity="0.200000" d="M357.25,-357.21C357.25,-405.25 357.25,-624.88 357.25,-624.88 357.25,-624.88 587.07,-624.88 587.07,-624.88"/>
<polygon fill="#000000" fill-opacity="0.200000" stroke="#000000" stroke-width="2" stroke-opacity="0.200000" points="587.07,-626.98 593.07,-624.88 587.07,-622.78 587.07,-626.98"/>
</g>
<!-- src/main/files&#45;and&#45;dirs/normalize.mjs -->
<g id="node21" class="node">
<title>src/main/files&#45;and&#45;dirs/normalize.mjs</title>
<g id="a_node21"><a xlink:href="src/main/files-and-dirs/normalize.mjs" xlink:title="normalize.mjs">
<path fill="#ffffcc" stroke="black" d="M525.96,-285.88C525.96,-285.88 464.79,-285.88 464.79,-285.88 461.83,-285.88 458.88,-282.92 458.88,-279.96 458.88,-279.96 458.88,-274.04 458.88,-274.04 458.88,-271.08 461.83,-268.12 464.79,-268.12 464.79,-268.12 525.96,-268.12 525.96,-268.12 528.92,-268.12 531.88,-271.08 531.88,-274.04 531.88,-274.04 531.88,-279.96 531.88,-279.96 531.88,-282.92 528.92,-285.88 525.96,-285.88"/>
<text xml:space="preserve" text-anchor="start" x="466.88" y="-273.32" font-family="Helvetica,sans-Serif" font-size="9.00">normalize.mjs</text>
</a>
</g>
</g>
<!-- src/main/cruise.mjs&#45;&gt;src/main/files&#45;and&#45;dirs/normalize.mjs -->
<g id="edge14" class="edge">
<title>src/main/cruise.mjs&#45;&gt;src/main/files&#45;and&#45;dirs/normalize.mjs</title>
<path fill="none" stroke="#000000" stroke-width="2" stroke-dasharray="5,2" stroke-opacity="0.200000" d="M367.25,-338.72C367.25,-319.47 367.25,-277 367.25,-277 367.25,-277 449.63,-277 449.63,-277"/>
<polygon fill="#000000" fill-opacity="0.200000" stroke="#000000" stroke-width="2" stroke-opacity="0.200000" points="449.63,-279.1 455.63,-277 449.63,-274.9 449.63,-279.1"/>
</g>
<!-- src/main/cruise.mjs&#45;&gt;src/main/options/assert&#45;validity.mjs -->
<g id="edge15" class="edge">
<title>src/main/cruise.mjs&#45;&gt;src/main/options/assert&#45;validity.mjs</title>
<path fill="none" stroke="#000000" stroke-width="2" stroke-opacity="0.200000" d="M357.25,-338.77C357.25,-314.02 357.25,-248 357.25,-248 357.25,-248 570.22,-248 570.22,-248"/>
<polygon fill="#000000" fill-opacity="0.200000" stroke="#000000" stroke-width="2" stroke-opacity="0.200000" points="570.22,-250.1 576.22,-248 570.22,-245.9 570.22,-250.1"/>
</g>
<!-- src/main/cruise.mjs&#45;&gt;src/main/options/normalize.mjs -->
<g id="edge16" class="edge">
<title>src/main/cruise.mjs&#45;&gt;src/main/options/normalize.mjs</title>
<path fill="none" stroke="#000000" stroke-width="2" stroke-opacity="0.200000" d="M376.25,-339.06C376.25,-325.58 376.25,-301.62 376.25,-301.62 376.25,-301.62 611.25,-301.62 611.25,-301.62 611.25,-301.62 611.25,-296.36 611.25,-296.36"/>
<polygon fill="#000000" fill-opacity="0.200000" stroke="#000000" stroke-width="2" stroke-opacity="0.200000" points="613.35,-296.36 611.25,-290.36 609.15,-296.36 613.35,-296.36"/>
</g>
<!-- src/main/cruise.mjs&#45;&gt;src/main/report&#45;wrap.mjs -->
<g id="edge17" class="edge">
<title>src/main/cruise.mjs&#45;&gt;src/main/report&#45;wrap.mjs</title>
<path fill="none" stroke="#000000" stroke-width="2" stroke-opacity="0.200000" d="M339.25,-338.68C339.25,-300.09 339.25,-154.79 339.25,-154.79 339.25,-154.79 574.67,-154.79 574.67,-154.79"/>
<polygon fill="#000000" fill-opacity="0.200000" stroke="#000000" stroke-width="2" stroke-opacity="0.200000" points="574.67,-156.89 580.67,-154.79 574.67,-152.69 574.67,-156.89"/>
</g>
<!-- src/main/rule&#45;set/assert&#45;validity.mjs -->
<g id="node25" class="node">
<title>src/main/rule&#45;set/assert&#45;validity.mjs</title>
<g id="a_node25"><a xlink:href="src/main/rule-set/assert-validity.mjs" xlink:title="assert&#45;validity.mjs">
<path fill="#ffffcc" stroke="black" d="M533.83,-355.88C533.83,-355.88 456.92,-355.88 456.92,-355.88 453.96,-355.88 451,-352.92 451,-349.96 451,-349.96 451,-344.04 451,-344.04 451,-341.08 453.96,-338.12 456.92,-338.12 456.92,-338.12 533.83,-338.12 533.83,-338.12 536.79,-338.12 539.75,-341.08 539.75,-344.04 539.75,-344.04 539.75,-349.96 539.75,-349.96 539.75,-352.92 536.79,-355.88 533.83,-355.88"/>
<text xml:space="preserve" text-anchor="start" x="459" y="-343.32" font-family="Helvetica,sans-Serif" font-size="9.00">assert&#45;validity.mjs</text>
</a>
</g>
</g>
<!-- src/main/cruise.mjs&#45;&gt;src/main/rule&#45;set/assert&#45;validity.mjs -->
<g id="edge19" class="edge">
<title>src/main/cruise.mjs&#45;&gt;src/main/rule&#45;set/assert&#45;validity.mjs</title>
<path fill="none" stroke="#000000" stroke-width="2" stroke-dasharray="5,2" stroke-opacity="0.200000" d="M386.5,-347.5C386.5,-347.5 441.51,-347.5 441.51,-347.5"/>
<polygon fill="#000000" fill-opacity="0.200000" stroke="#000000" stroke-width="2" stroke-opacity="0.200000" points="441.51,-349.6 447.51,-347.5 441.51,-345.4 441.51,-349.6"/>
</g>
<!-- src/main/rule&#45;set/normalize.mjs -->
<g id="node26" class="node">
<title>src/main/rule&#45;set/normalize.mjs</title>
<g id="a_node26"><a xlink:href="src/main/rule-set/normalize.mjs" xlink:title="normalize.mjs">
<path fill="#ffffcc" stroke="black" d="M525.96,-385.88C525.96,-385.88 464.79,-385.88 464.79,-385.88 461.83,-385.88 458.88,-382.92 458.88,-379.96 458.88,-379.96 458.88,-374.04 458.88,-374.04 458.88,-371.08 461.83,-368.12 464.79,-368.12 464.79,-368.12 525.96,-368.12 525.96,-368.12 528.92,-368.12 531.88,-371.08 531.88,-374.04 531.88,-374.04 531.88,-379.96 531.88,-379.96 531.88,-382.92 528.92,-385.88 525.96,-385.88"/>
<text xml:space="preserve" text-anchor="start" x="466.88" y="-373.32" font-family="Helvetica,sans-Serif" font-size="9.00">normalize.mjs</text>
</a>
</g>
</g>
<!-- src/main/cruise.mjs&#45;&gt;src/main/rule&#45;set/normalize.mjs -->
<g id="edge20" class="edge">
<title>src/main/cruise.mjs&#45;&gt;src/main/rule&#45;set/normalize.mjs</title>
<path fill="none" stroke="#000000" stroke-width="2" stroke-dasharray="5,2" stroke-opacity="0.200000" d="M376.25,-357.24C376.25,-365.16 376.25,-375.29 376.25,-375.29 376.25,-375.29 449.63,-375.29 449.63,-375.29"/>
<polygon fill="#000000" fill-opacity="0.200000" stroke="#000000" stroke-width="2" stroke-opacity="0.200000" points="449.63,-377.39 455.63,-375.29 449.63,-373.19 449.63,-377.39"/>
</g>
<!-- src/config&#45;utl/extract&#45;depcruise&#45;config/index.mjs -->
<g id="node11" class="node">
<title>src/config&#45;utl/extract&#45;depcruise&#45;config/index.mjs</title>
<g id="a_node11"><a xlink:href="src/config-utl/extract-depcruise-config/index.mjs" xlink:title="index.mjs">
<path fill="#ffffcc" stroke="black" d="M379.21,-81.88C379.21,-81.88 336.04,-81.88 336.04,-81.88 333.08,-81.88 330.12,-78.92 330.12,-75.96 330.12,-75.96 330.12,-70.04 330.12,-70.04 330.12,-67.08 333.08,-64.12 336.04,-64.12 336.04,-64.12 379.21,-64.12 379.21,-64.12 382.17,-64.12 385.12,-67.08 385.12,-70.04 385.12,-70.04 385.12,-75.96 385.12,-75.96 385.12,-78.92 382.17,-81.88 379.21,-81.88"/>
<text xml:space="preserve" text-anchor="start" x="338.12" y="-69.33" font-family="Helvetica,sans-Serif" font-size="9.00">index.mjs</text>
</a>
</g>
</g>
<!-- src/config&#45;utl/extract&#45;depcruise&#45;config/index.mjs&#45;&gt;src/main/resolve&#45;options/normalize.mjs -->
<g id="edge9" class="edge">
<title>src/config&#45;utl/extract&#45;depcruise&#45;config/index.mjs&#45;&gt;src/main/resolve&#45;options/normalize.mjs</title>
<path fill="none" stroke="#000000" stroke-width="2" stroke-opacity="0.200000" d="M385.39,-76.88C416.38,-76.88 462.25,-76.88 462.25,-76.88 462.25,-76.88 462.25,-188.61 462.25,-188.61"/>
<polygon fill="#000000" fill-opacity="0.200000" stroke="#000000" stroke-width="2" stroke-opacity="0.200000" points="460.15,-188.61 462.25,-194.61 464.35,-188.61 460.15,-188.61"/>
</g>
<!-- src/main/resolve&#45;options/normalize.mjs&#45;&gt;src/extract/transpile/meta.mjs -->
<g id="edge44" class="edge">
<title>src/main/resolve&#45;options/normalize.mjs&#45;&gt;src/extract/transpile/meta.mjs</title>
<path fill="none" stroke="#000000" stroke-width="2" stroke-opacity="0.200000" d="M532.25,-207C540.7,-207 547.25,-207 547.25,-207 547.25,-207 547.25,-650.56 547.25,-650.56 547.25,-650.56 587.62,-650.56 587.62,-650.56"/>
<polygon fill="#000000" fill-opacity="0.200000" stroke="#000000" stroke-width="2" stroke-opacity="0.200000" points="587.62,-652.66 593.62,-650.56 587.62,-648.46 587.62,-652.66"/>
</g>
<!-- src/graph&#45;utl/rule&#45;set.mjs -->
<g id="node19" class="node">
<title>src/graph&#45;utl/rule&#45;set.mjs</title>
<g id="a_node19"><a xlink:href="src/graph-utl/rule-set.mjs" xlink:title="rule&#45;set.mjs">
<path fill="#ffffcc" stroke="black" d="M895.08,-41.88C895.08,-41.88 843.67,-41.88 843.67,-41.88 840.71,-41.88 837.75,-38.92 837.75,-35.96 837.75,-35.96 837.75,-30.04 837.75,-30.04 837.75,-27.08 840.71,-24.12 843.67,-24.12 843.67,-24.12 895.08,-24.12 895.08,-24.12 898.04,-24.12 901,-27.08 901,-30.04 901,-30.04 901,-35.96 901,-35.96 901,-38.92 898.04,-41.88 895.08,-41.88"/>
<text xml:space="preserve" text-anchor="start" x="845.75" y="-29.32" font-family="Helvetica,sans-Serif" font-size="9.00">rule&#45;set.mjs</text>
</a>
</g>
</g>
<!-- src/main/resolve&#45;options/normalize.mjs&#45;&gt;src/graph&#45;utl/rule&#45;set.mjs -->
<g id="edge45" class="edge">
<title>src/main/resolve&#45;options/normalize.mjs&#45;&gt;src/graph&#45;utl/rule&#45;set.mjs</title>
<path fill="none" stroke="#000000" stroke-width="2" stroke-opacity="0.200000" d="M528.25,-197.65C528.25,-161.5 528.25,-33 528.25,-33 528.25,-33 828.26,-33 828.26,-33"/>
<polygon fill="#000000" fill-opacity="0.200000" stroke="#000000" stroke-width="2" stroke-opacity="0.200000" points="828.26,-35.1 834.26,-33 828.26,-30.9 828.26,-35.1"/>
</g>
<!-- src/enrich/index.mjs&#45;&gt;src/utl/bus.mjs -->
<g id="edge11" class="edge">
<title>src/enrich/index.mjs&#45;&gt;src/utl/bus.mjs</title>
<path fill="none" stroke="#000000" stroke-width="2" stroke-opacity="0.200000" d="M651.83,-788.12C690.94,-788.12 757.25,-788.12 757.25,-788.12 757.25,-788.12 757.25,-639.01 757.25,-639.01"/>
<polygon fill="#000000" fill-opacity="0.200000" stroke="#000000" stroke-width="2" stroke-opacity="0.200000" points="759.35,-639.01 757.25,-633.01 755.15,-639.01 759.35,-639.01"/>
</g>
<!-- src/enrich/summarize/index.mjs -->
<g id="node14" class="node">
<title>src/enrich/summarize/index.mjs</title>
<g id="a_node14"><a xlink:href="src/enrich/summarize/index.mjs" xlink:title="index.mjs">
<path fill="#ffffcc" stroke="black" d="M765.71,-809.88C765.71,-809.88 722.54,-809.88 722.54,-809.88 719.58,-809.88 716.62,-806.92 716.62,-803.96 716.62,-803.96 716.62,-798.04 716.62,-798.04 716.62,-795.08 719.58,-792.12 722.54,-792.12 722.54,-792.12 765.71,-792.12 765.71,-792.12 768.67,-792.12 771.62,-795.08 771.62,-798.04 771.62,-798.04 771.62,-803.96 771.62,-803.96 771.62,-806.92 768.67,-809.88 765.71,-809.88"/>
<text xml:space="preserve" text-anchor="start" x="724.62" y="-797.33" font-family="Helvetica,sans-Serif" font-size="9.00">index.mjs</text>
</a>
</g>
</g>
<!-- src/enrich/index.mjs&#45;&gt;src/enrich/summarize/index.mjs -->
<g id="edge10" class="edge">
<title>src/enrich/index.mjs&#45;&gt;src/enrich/summarize/index.mjs</title>
<path fill="none" stroke="#000000" stroke-width="2" stroke-opacity="0.200000" d="M651.77,-798.62C651.77,-798.62 707.36,-798.62 707.36,-798.62"/>
<polygon fill="#000000" fill-opacity="0.200000" stroke="#000000" stroke-width="2" stroke-opacity="0.200000" points="707.36,-800.73 713.36,-798.63 707.36,-796.53 707.36,-800.73"/>
</g>
<!-- src/graph&#45;utl/compare.mjs -->
<g id="node15" class="node">
<title>src/graph&#45;utl/compare.mjs</title>
<g id="a_node15"><a xlink:href="src/graph-utl/compare.mjs" xlink:title="compare.mjs">
<path fill="#ffffcc" stroke="black" d="M897.71,-161.88C897.71,-161.88 841.04,-161.88 841.04,-161.88 838.08,-161.88 835.12,-158.92 835.12,-155.96 835.12,-155.96 835.12,-150.04 835.12,-150.04 835.12,-147.08 838.08,-144.12 841.04,-144.12 841.04,-144.12 897.71,-144.12 897.71,-144.12 900.67,-144.12 903.62,-147.08 903.62,-150.04 903.62,-150.04 903.62,-155.96 903.62,-155.96 903.62,-158.92 900.67,-161.88 897.71,-161.88"/>
<text xml:space="preserve" text-anchor="start" x="843.12" y="-149.32" font-family="Helvetica,sans-Serif" font-size="9.00">compare.mjs</text>
</a>
</g>
</g>
<!-- src/enrich/summarize/index.mjs&#45;&gt;src/graph&#45;utl/compare.mjs -->
<g id="edge12" class="edge">
<title>src/enrich/summarize/index.mjs&#45;&gt;src/graph&#45;utl/compare.mjs</title>
<path fill="none" stroke="#000000" stroke-width="2" stroke-opacity="0.200000" d="M771.89,-801C808.76,-801 869.25,-801 869.25,-801 869.25,-801 869.25,-171.19 869.25,-171.19"/>
<polygon fill="#000000" fill-opacity="0.200000" stroke="#000000" stroke-width="2" stroke-opacity="0.200000" points="871.35,-171.19 869.25,-165.19 867.15,-171.19 871.35,-171.19"/>
</g>
<!-- src/extract/index.mjs&#45;&gt;src/utl/bus.mjs -->
<g id="edge13" class="edge">
<title>src/extract/index.mjs&#45;&gt;src/utl/bus.mjs</title>
<path fill="none" stroke="#000000" stroke-width="2" stroke-opacity="0.200000" d="M651.77,-625.44C651.77,-625.44 707.77,-625.44 707.77,-625.44"/>
<polygon fill="#000000" fill-opacity="0.200000" stroke="#000000" stroke-width="2" stroke-opacity="0.200000" points="707.77,-627.54 713.77,-625.44 707.77,-623.34 707.77,-627.54"/>
</g>
<!-- src/graph&#45;utl/consolidate&#45;to&#45;pattern.mjs -->
<g id="node17" class="node">
<title>src/graph&#45;utl/consolidate&#45;to&#45;pattern.mjs</title>
<g id="a_node17"><a xlink:href="src/graph-utl/consolidate-to-pattern.mjs" xlink:title="consolidate&#45;to&#45;pattern.mjs">
<path fill="#ffffcc" stroke="black" d="M924.33,-71.88C924.33,-71.88 814.42,-71.88 814.42,-71.88 811.46,-71.88 808.5,-68.92 808.5,-65.96 808.5,-65.96 808.5,-60.04 808.5,-60.04 808.5,-57.08 811.46,-54.12 814.42,-54.12 814.42,-54.12 924.33,-54.12 924.33,-54.12 927.29,-54.12 930.25,-57.08 930.25,-60.04 930.25,-60.04 930.25,-65.96 930.25,-65.96 930.25,-68.92 927.29,-71.88 924.33,-71.88"/>
<text xml:space="preserve" text-anchor="start" x="816.5" y="-59.33" font-family="Helvetica,sans-Serif" font-size="9.00">consolidate&#45;to&#45;pattern.mjs</text>
</a>
</g>
</g>
<!-- src/graph&#45;utl/filter&#45;bank.mjs -->
<g id="node18" class="node">
<title>src/graph&#45;utl/filter&#45;bank.mjs</title>
<g id="a_node18"><a xlink:href="src/graph-utl/filter-bank.mjs" xlink:title="filter&#45;bank.mjs">
<path fill="#ffffcc" stroke="black" d="M899.96,-101.88C899.96,-101.88 838.79,-101.88 838.79,-101.88 835.83,-101.88 832.88,-98.92 832.88,-95.96 832.88,-95.96 832.88,-90.04 832.88,-90.04 832.88,-87.08 835.83,-84.12 838.79,-84.12 838.79,-84.12 899.96,-84.12 899.96,-84.12 902.92,-84.12 905.88,-87.08 905.88,-90.04 905.88,-90.04 905.88,-95.96 905.88,-95.96 905.88,-98.92 902.92,-101.88 899.96,-101.88"/>
<text xml:space="preserve" text-anchor="start" x="840.88" y="-89.33" font-family="Helvetica,sans-Serif" font-size="9.00">filter&#45;bank.mjs</text>
</a>
</g>
</g>
<!-- src/graph&#45;utl/strip&#45;self&#45;transitions.mjs -->
<g id="node20" class="node">
<title>src/graph&#45;utl/strip&#45;self&#45;transitions.mjs</title>
<g id="a_node20"><a xlink:href="src/graph-utl/strip-self-transitions.mjs" xlink:title="strip&#45;self&#45;transitions.mjs">
<path fill="#ffffcc" stroke="black" d="M919.46,-131.88C919.46,-131.88 819.29,-131.88 819.29,-131.88 816.33,-131.88 813.38,-128.92 813.38,-125.96 813.38,-125.96 813.38,-120.04 813.38,-120.04 813.38,-117.08 816.33,-114.12 819.29,-114.12 819.29,-114.12 919.46,-114.12 919.46,-114.12 922.42,-114.12 925.38,-117.08 925.38,-120.04 925.38,-120.04 925.38,-125.96 925.38,-125.96 925.38,-128.92 922.42,-131.88 919.46,-131.88"/>
<text xml:space="preserve" text-anchor="start" x="821.38" y="-119.33" font-family="Helvetica,sans-Serif" font-size="9.00">strip&#45;self&#45;transitions.mjs</text>
</a>
</g>
</g>
<!-- src/report/index.mjs -->
<g id="node31" class="node">
<title>src/report/index.mjs</title>
<g id="a_node31"><a xlink:href="src/report/index.mjs" xlink:title="index.mjs">
<path fill="#ffffcc" stroke="black" d="M765.71,-107.88C765.71,-107.88 722.54,-107.88 722.54,-107.88 719.58,-107.88 716.62,-104.92 716.62,-101.96 716.62,-101.96 716.62,-96.04 716.62,-96.04 716.62,-93.08 719.58,-90.12 722.54,-90.12 722.54,-90.12 765.71,-90.12 765.71,-90.12 768.67,-90.12 771.62,-93.08 771.62,-96.04 771.62,-96.04 771.62,-101.96 771.62,-101.96 771.62,-104.92 768.67,-107.88 765.71,-107.88"/>
<text xml:space="preserve" text-anchor="start" x="724.62" y="-95.33" font-family="Helvetica,sans-Serif" font-size="9.00">index.mjs</text>
</a>
</g>
</g>
<!-- src/main/options/assert&#45;validity.mjs&#45;&gt;src/report/index.mjs -->
<g id="edge34" class="edge">
<title>src/main/options/assert&#45;validity.mjs&#45;&gt;src/report/index.mjs</title>
<path fill="none" stroke="#000000" stroke-width="2" stroke-opacity="0.200000" d="M668.4,-248C705.82,-248 753.25,-248 753.25,-248 753.25,-248 753.25,-117.35 753.25,-117.35"/>
<polygon fill="#000000" fill-opacity="0.200000" stroke="#000000" stroke-width="2" stroke-opacity="0.200000" points="755.35,-117.35 753.25,-111.35 751.15,-117.35 755.35,-117.35"/>
</g>
<!-- src/main/helpers.mjs -->
<g id="node29" class="node">
<title>src/main/helpers.mjs</title>
<g id="a_node29"><a xlink:href="src/main/helpers.mjs" xlink:title="helpers.mjs">
<path fill="#ffffcc" stroke="black" d="M769.83,-366.88C769.83,-366.88 718.42,-366.88 718.42,-366.88 715.46,-366.88 712.5,-363.92 712.5,-360.96 712.5,-360.96 712.5,-355.04 712.5,-355.04 712.5,-352.08 715.46,-349.12 718.42,-349.12 718.42,-349.12 769.83,-349.12 769.83,-349.12 772.79,-349.12 775.75,-352.08 775.75,-355.04 775.75,-355.04 775.75,-360.96 775.75,-360.96 775.75,-363.92 772.79,-366.88 769.83,-366.88"/>
<text xml:space="preserve" text-anchor="start" x="720.5" y="-354.32" font-family="Helvetica,sans-Serif" font-size="9.00">helpers.mjs</text>
</a>
</g>
</g>
<!-- src/main/options/normalize.mjs&#45;&gt;src/main/helpers.mjs -->
<g id="edge35" class="edge">
<title>src/main/options/normalize.mjs&#45;&gt;src/main/helpers.mjs</title>
<path fill="none" stroke="#000000" stroke-width="2" stroke-opacity="0.200000" d="M636.25,-287.29C636.25,-298.65 636.25,-316.38 636.25,-316.38 636.25,-316.38 754.25,-316.38 754.25,-316.38 754.25,-316.38 754.25,-339.73 754.25,-339.73"/>
<polygon fill="#000000" fill-opacity="0.200000" stroke="#000000" stroke-width="2" stroke-opacity="0.200000" points="752.15,-339.73 754.25,-345.73 756.35,-339.73 752.15,-339.73"/>
</g>
<!-- src/main/options/defaults.mjs -->
<g id="node32" class="node">
<title>src/main/options/defaults.mjs</title>
<g id="a_node32"><a xlink:href="src/main/options/defaults.mjs" xlink:title="defaults.mjs">
<path fill="#ffffcc" stroke="black" d="M770.58,-286.88C770.58,-286.88 717.67,-286.88 717.67,-286.88 714.71,-286.88 711.75,-283.92 711.75,-280.96 711.75,-280.96 711.75,-275.04 711.75,-275.04 711.75,-272.08 714.71,-269.12 717.67,-269.12 717.67,-269.12 770.58,-269.12 770.58,-269.12 773.54,-269.12 776.5,-272.08 776.5,-275.04 776.5,-275.04 776.5,-280.96 776.5,-280.96 776.5,-283.92 773.54,-286.88 770.58,-286.88"/>
<text xml:space="preserve" text-anchor="start" x="719.75" y="-274.32" font-family="Helvetica,sans-Serif" font-size="9.00">defaults.mjs</text>
</a>
</g>
</g>
<!-- src/main/options/normalize.mjs&#45;&gt;src/main/options/defaults.mjs -->
<g id="edge36" class="edge">
<title>src/main/options/normalize.mjs&#45;&gt;src/main/options/defaults.mjs</title>
<path fill="none" stroke="#000000" stroke-width="2" stroke-opacity="0.200000" d="M660.61,-275.04C660.61,-275.04 702.26,-275.04 702.26,-275.04"/>
<polygon fill="#000000" fill-opacity="0.200000" stroke="#000000" stroke-width="2" stroke-opacity="0.200000" points="702.26,-277.14 708.26,-275.04 702.26,-272.94 702.26,-277.14"/>
</g>
<!-- src/utl/array&#45;util.mjs -->
<g id="node33" class="node">
<title>src/utl/array&#45;util.mjs</title>
<g id="a_node33"><a xlink:href="src/utl/array-util.mjs" xlink:title="array&#45;util.mjs">
<path fill="#ffffcc" stroke="black" d="M772.46,-569.88C772.46,-569.88 715.79,-569.88 715.79,-569.88 712.83,-569.88 709.88,-566.92 709.88,-563.96 709.88,-563.96 709.88,-558.04 709.88,-558.04 709.88,-555.08 712.83,-552.12 715.79,-552.12 715.79,-552.12 772.46,-552.12 772.46,-552.12 775.42,-552.12 778.38,-555.08 778.38,-558.04 778.38,-558.04 778.38,-563.96 778.38,-563.96 778.38,-566.92 775.42,-569.88 772.46,-569.88"/>
<text xml:space="preserve" text-anchor="start" x="717.88" y="-557.33" font-family="Helvetica,sans-Serif" font-size="9.00">array&#45;util.mjs</text>
</a>
</g>
</g>
<!-- src/main/options/normalize.mjs&#45;&gt;src/utl/array&#45;util.mjs -->
<g id="edge37" class="edge">
<title>src/main/options/normalize.mjs&#45;&gt;src/utl/array&#45;util.mjs</title>
<path fill="none" stroke="#000000" stroke-width="2" stroke-opacity="0.200000" d="M660.77,-280.96C681.5,-280.96 703.25,-280.96 703.25,-280.96 703.25,-280.96 703.25,-561 703.25,-561 703.25,-561 703.89,-561 703.89,-561"/>
<polygon fill="#000000" fill-opacity="0.200000" stroke="#000000" stroke-width="2" stroke-opacity="0.200000" points="700.61,-563.1 706.61,-561 700.61,-558.9 700.61,-563.1"/>
</g>
<!-- src/main/report&#45;wrap.mjs&#45;&gt;src/enrich/summarize/index.mjs -->
<g id="edge38" class="edge">
<title>src/main/report&#45;wrap.mjs&#45;&gt;src/enrich/summarize/index.mjs</title>
<path fill="none" stroke="#000000" stroke-width="2" stroke-opacity="0.200000" d="M664.16,-159.92C677.61,-159.92 689.25,-159.92 689.25,-159.92 689.25,-159.92 689.25,-795.38 689.25,-795.38 689.25,-795.38 707.34,-795.38 707.34,-795.38"/>
<polygon fill="#000000" fill-opacity="0.200000" stroke="#000000" stroke-width="2" stroke-opacity="0.200000" points="707.34,-797.48 713.34,-795.38 707.34,-793.28 707.34,-797.48"/>
</g>
<!-- src/main/report&#45;wrap.mjs&#45;&gt;src/graph&#45;utl/compare.mjs -->
<g id="edge39" class="edge">
<title>src/main/report&#45;wrap.mjs&#45;&gt;src/graph&#45;utl/compare.mjs</title>
<path fill="none" stroke="#000000" stroke-width="2" stroke-opacity="0.200000" d="M664.14,-157.96C664.14,-157.96 825.62,-157.96 825.62,-157.96"/>
<polygon fill="#000000" fill-opacity="0.200000" stroke="#000000" stroke-width="2" stroke-opacity="0.200000" points="825.62,-160.06 831.62,-157.96 825.62,-155.86 825.62,-160.06"/>
</g>
<!-- src/main/report&#45;wrap.mjs&#45;&gt;src/graph&#45;utl/consolidate&#45;to&#45;pattern.mjs -->
<g id="edge40" class="edge">
<title>src/main/report&#45;wrap.mjs&#45;&gt;src/graph&#45;utl/consolidate&#45;to&#45;pattern.mjs</title>
<path fill="none" stroke="#000000" stroke-width="2" stroke-opacity="0.200000" d="M624.25,-149.94C624.25,-126.92 624.25,-68 624.25,-68 624.25,-68 799.12,-68 799.12,-68"/>
<polygon fill="#000000" fill-opacity="0.200000" stroke="#000000" stroke-width="2" stroke-opacity="0.200000" points="799.12,-70.1 805.12,-68 799.12,-65.9 799.12,-70.1"/>
</g>
<!-- src/main/report&#45;wrap.mjs&#45;&gt;src/graph&#45;utl/filter&#45;bank.mjs -->
<g id="edge41" class="edge">
<title>src/main/report&#45;wrap.mjs&#45;&gt;src/graph&#45;utl/filter&#45;bank.mjs</title>
<path fill="none" stroke="#000000" stroke-width="2" stroke-opacity="0.200000" d="M663.91,-154.04C712.85,-154.04 789.25,-154.04 789.25,-154.04 789.25,-154.04 789.25,-96 789.25,-96 789.25,-96 823.57,-96 823.57,-96"/>
<polygon fill="#000000" fill-opacity="0.200000" stroke="#000000" stroke-width="2" stroke-opacity="0.200000" points="823.57,-98.1 829.57,-96 823.57,-93.9 823.57,-98.1"/>
</g>
<!-- src/main/report&#45;wrap.mjs&#45;&gt;src/graph&#45;utl/strip&#45;self&#45;transitions.mjs -->
<g id="edge42" class="edge">
<title>src/main/report&#45;wrap.mjs&#45;&gt;src/graph&#45;utl/strip&#45;self&#45;transitions.mjs</title>
<path fill="none" stroke="#000000" stroke-width="2" stroke-opacity="0.200000" d="M663.94,-156C722.42,-156 824.25,-156 824.25,-156 824.25,-156 824.25,-141.4 824.25,-141.4"/>
<polygon fill="#000000" fill-opacity="0.200000" stroke="#000000" stroke-width="2" stroke-opacity="0.200000" points="826.35,-141.4 824.25,-135.4 822.15,-141.4 826.35,-141.4"/>
</g>
<!-- src/main/report&#45;wrap.mjs&#45;&gt;src/report/index.mjs -->
<g id="edge43" class="edge">
<title>src/main/report&#45;wrap.mjs&#45;&gt;src/report/index.mjs</title>
<path fill="none" stroke="#000000" stroke-width="2" stroke-opacity="0.200000" d="M664.08,-152.08C695.99,-152.08 735.25,-152.08 735.25,-152.08 735.25,-152.08 735.25,-117.27 735.25,-117.27"/>
<polygon fill="#000000" fill-opacity="0.200000" stroke="#000000" stroke-width="2" stroke-opacity="0.200000" points="737.35,-117.27 735.25,-111.27 733.15,-117.27 737.35,-117.27"/>
</g>
<!-- src/main/rule&#45;set/assert&#45;validity.mjs&#45;&gt;src/utl/bus.mjs -->
<g id="edge50" class="edge">
<title>src/main/rule&#45;set/assert&#45;validity.mjs&#45;&gt;src/utl/bus.mjs</title>
<path fill="none" stroke="#000000" stroke-width="2" stroke-opacity="0.200000" d="M540.15,-346.38C599.89,-346.38 698.25,-346.38 698.25,-346.38 698.25,-346.38 698.25,-616.56 698.25,-616.56 698.25,-616.56 707.62,-616.56 707.62,-616.56"/>
<polygon fill="#000000" fill-opacity="0.200000" stroke="#000000" stroke-width="2" stroke-opacity="0.200000" points="707.62,-618.66 713.62,-616.56 707.62,-614.46 707.62,-618.66"/>
</g>
<!-- src/main/rule&#45;set/assert&#45;validity.mjs&#45;&gt;src/utl/object&#45;util.mjs -->
<g id="edge51" class="edge">
<title>src/main/rule&#45;set/assert&#45;validity.mjs&#45;&gt;src/utl/object&#45;util.mjs</title>
<path fill="none" stroke="#000000" stroke-width="2" stroke-opacity="0.200000" d="M534.25,-356.15C534.25,-400.18 534.25,-588.04 534.25,-588.04 534.25,-588.04 698.54,-588.04 698.54,-588.04"/>
<polygon fill="#000000" fill-opacity="0.200000" stroke="#000000" stroke-width="2" stroke-opacity="0.200000" points="698.54,-590.14 704.54,-588.04 698.54,-585.94 698.54,-590.14"/>
</g>
<!-- src/main/rule&#45;set/assert&#45;validity.mjs&#45;&gt;src/main/options/assert&#45;validity.mjs -->
<g id="edge47" class="edge">
<title>src/main/rule&#45;set/assert&#45;validity.mjs&#45;&gt;src/main/options/assert&#45;validity.mjs</title>
<path fill="none" stroke="#000000" stroke-width="2" stroke-opacity="0.200000" d="M540.08,-340.88C561.79,-340.88 583.25,-340.88 583.25,-340.88 583.25,-340.88 583.25,-266.27 583.25,-266.27"/>
<polygon fill="#000000" fill-opacity="0.200000" stroke="#000000" stroke-width="2" stroke-opacity="0.200000" points="585.35,-266.27 583.25,-260.27 581.15,-266.27 585.35,-266.27"/>
</g>
<!-- src/main/rule&#45;set/assert&#45;validity.mjs&#45;&gt;src/schema/utl.mjs -->
<g id="edge49" class="edge">
<title>src/main/rule&#45;set/assert&#45;validity.mjs&#45;&gt;src/schema/utl.mjs</title>
<path fill="none" stroke="#000000" stroke-width="2" stroke-opacity="0.200000" d="M538.25,-356.32C538.25,-388.93 538.25,-495.96 538.25,-495.96 538.25,-495.96 587.76,-495.96 587.76,-495.96"/>
<polygon fill="#000000" fill-opacity="0.200000" stroke="#000000" stroke-width="2" stroke-opacity="0.200000" points="587.76,-498.06 593.76,-495.96 587.76,-493.86 587.76,-498.06"/>
</g>
<!-- src/main/rule&#45;set/assert&#45;validity.mjs&#45;&gt;src/main/helpers.mjs -->
<g id="edge46" class="edge">
<title>src/main/rule&#45;set/assert&#45;validity.mjs&#45;&gt;src/main/helpers.mjs</title>
<path fill="none" stroke="#000000" stroke-width="2" stroke-opacity="0.200000" d="M540.12,-343.62C609.02,-343.62 733.25,-343.62 733.25,-343.62 733.25,-343.62 733.25,-344.14 733.25,-344.14"/>
<polygon fill="#000000" fill-opacity="0.200000" stroke="#000000" stroke-width="2" stroke-opacity="0.200000" points="731.15,-339.79 733.25,-345.79 735.35,-339.79 731.15,-339.79"/>
</g>
<!-- src/schema/configuration.validate.mjs -->
<g id="node34" class="node">
<title>src/schema/configuration.validate.mjs</title>
<g id="a_node34"><a xlink:href="src/schema/configuration.validate.mjs" xlink:title="configuration.validate.mjs">
<path fill="#ffffcc" stroke="black" d="M678.08,-531.88C678.08,-531.88 569.67,-531.88 569.67,-531.88 566.71,-531.88 563.75,-528.92 563.75,-525.96 563.75,-525.96 563.75,-520.04 563.75,-520.04 563.75,-517.08 566.71,-514.12 569.67,-514.12 569.67,-514.12 678.08,-514.12 678.08,-514.12 681.04,-514.12 684,-517.08 684,-520.04 684,-520.04 684,-525.96 684,-525.96 684,-528.92 681.04,-531.88 678.08,-531.88"/>
<text xml:space="preserve" text-anchor="start" x="571.75" y="-519.33" font-family="Helvetica,sans-Serif" font-size="9.00">configuration.validate.mjs</text>
</a>
</g>
</g>
<!-- src/main/rule&#45;set/assert&#45;validity.mjs&#45;&gt;src/schema/configuration.validate.mjs -->
<g id="edge48" class="edge">
<title>src/main/rule&#45;set/assert&#45;validity.mjs&#45;&gt;src/schema/configuration.validate.mjs</title>
<path fill="none" stroke="#000000" stroke-width="2" stroke-opacity="0.200000" d="M536.25,-355.97C536.25,-391.84 536.25,-523 536.25,-523 536.25,-523 554.47,-523 554.47,-523"/>
<polygon fill="#000000" fill-opacity="0.200000" stroke="#000000" stroke-width="2" stroke-opacity="0.200000" points="554.47,-525.1 560.47,-523 554.47,-520.9 554.47,-525.1"/>
</g>
<!-- src/main/rule&#45;set/normalize.mjs&#45;&gt;src/utl/bus.mjs -->
<g id="edge53" class="edge">
<title>src/main/rule&#45;set/normalize.mjs&#45;&gt;src/utl/bus.mjs</title>
<path fill="none" stroke="#000000" stroke-width="2" stroke-opacity="0.200000" d="M532.13,-379.96C589.35,-379.96 693.25,-379.96 693.25,-379.96 693.25,-379.96 693.25,-621 693.25,-621 693.25,-621 707.87,-621 707.87,-621"/>
<polygon fill="#000000" fill-opacity="0.200000" stroke="#000000" stroke-width="2" stroke-opacity="0.200000" points="707.87,-623.1 713.87,-621 707.87,-618.9 707.87,-623.1"/>
</g>
<!-- src/main/rule&#45;set/normalize.mjs&#45;&gt;src/main/helpers.mjs -->
<g id="edge52" class="edge">
<title>src/main/rule&#45;set/normalize.mjs&#45;&gt;src/main/helpers.mjs</title>
<path fill="none" stroke="#000000" stroke-width="2" stroke-opacity="0.200000" d="M532.37,-374.04C601.69,-374.04 744.25,-374.04 744.25,-374.04 744.25,-374.04 744.25,-373.35 744.25,-373.35"/>
<polygon fill="#000000" fill-opacity="0.200000" stroke="#000000" stroke-width="2" stroke-opacity="0.200000" points="746.35,-376.17 744.25,-370.17 742.15,-376.17 746.35,-376.17"/>
</g>
<!-- src/main/helpers.mjs&#45;&gt;src/utl/object&#45;util.mjs -->
<g id="edge30" class="edge">
<title>src/main/helpers.mjs&#45;&gt;src/utl/object&#45;util.mjs</title>
<path fill="none" stroke="#000000" stroke-width="2" stroke-opacity="0.200000" d="M776.19,-358C788.32,-358 799.25,-358 799.25,-358 799.25,-358 799.25,-591 799.25,-591 799.25,-591 789.61,-591 789.61,-591"/>
<polygon fill="#000000" fill-opacity="0.200000" stroke="#000000" stroke-width="2" stroke-opacity="0.200000" points="789.61,-588.9 783.61,-591 789.61,-593.1 789.61,-588.9"/>
</g>
<!-- src/main/index.d.ts -->
<g id="node30" class="node">
<title>src/main/index.d.ts</title>
<g id="a_node30"><a xlink:href="src/main/index.d.ts" xlink:title="index.d.ts">
<path fill="#ccffcc" stroke="black" d="M267.33,-410.88C267.33,-410.88 224.17,-410.88 224.17,-410.88 221.21,-410.88 218.25,-407.92 218.25,-404.96 218.25,-404.96 218.25,-399.04 218.25,-399.04 218.25,-396.08 221.21,-393.12 224.17,-393.12 224.17,-393.12 267.33,-393.12 267.33,-393.12 270.29,-393.12 273.25,-396.08 273.25,-399.04 273.25,-399.04 273.25,-404.96 273.25,-404.96 273.25,-407.92 270.29,-410.88 267.33,-410.88"/>
<text xml:space="preserve" text-anchor="start" x="226.25" y="-398.32" font-family="Helvetica,sans-Serif" font-size="9.00">index.d.ts</text>
</a>
</g>
</g>
</g>
</svg>
