<?xml version="1.0" encoding="UTF-8" standalone="no"?>
<!DOCTYPE svg PUBLIC "-//W3C//DTD SVG 1.1//EN"
 "http://www.w3.org/Graphics/SVG/1.1/DTD/svg11.dtd">
<!-- Generated by graphviz version 2.48.0 (20210717.1556)
 -->
<!-- Title: dependency&#45;cruiser output Pages: 1 -->
<svg width="732pt" height="948pt"
 viewBox="0.00 0.00 732.00 948.00" xmlns="http://www.w3.org/2000/svg" xmlns:xlink="http://www.w3.org/1999/xlink">
<g id="graph0" class="graph" transform="scale(1 1) rotate(0) translate(4 944)">
<title>dependency&#45;cruiser output</title>
<polygon fill="white" stroke="transparent" points="-4,4 -4,-944 728,-944 728,4 -4,4"/>
<g id="clust1" class="cluster">
<title>cluster_src</title>
<path fill="#ffffff" stroke="black" stroke-width="2" d="M20,-8C20,-8 704,-8 704,-8 710,-8 716,-14 716,-20 716,-20 716,-920 716,-920 716,-926 710,-932 704,-932 704,-932 20,-932 20,-932 14,-932 8,-926 8,-920 8,-920 8,-20 8,-20 8,-14 14,-8 20,-8"/>
<text text-anchor="middle" x="362" y="-920.8" font-family="Helvetica,sans-Serif" font-weight="bold" font-size="9.00">src</text>
</g>
<g id="clust10" class="cluster">
<title>cluster_src/main</title>
<path fill="#ffffff" stroke="black" stroke-width="2" d="M186,-110C186,-110 696,-110 696,-110 702,-110 708,-116 708,-122 708,-122 708,-384 708,-384 708,-390 702,-396 696,-396 696,-396 186,-396 186,-396 180,-396 174,-390 174,-384 174,-384 174,-122 174,-122 174,-116 180,-110 186,-110"/>
<text text-anchor="middle" x="441" y="-384.8" font-family="Helvetica,sans-Serif" font-weight="bold" font-size="9.00">main</text>
</g>
<g id="clust11" class="cluster">
<title>cluster_src/main/files&#45;and&#45;dirs</title>
<path fill="#ffffff" stroke="black" stroke-width="2" d="M323,-318C323,-318 380,-318 380,-318 386,-318 392,-324 392,-330 392,-330 392,-358 392,-358 392,-364 386,-370 380,-370 380,-370 323,-370 323,-370 317,-370 311,-364 311,-358 311,-358 311,-330 311,-330 311,-324 317,-318 323,-318"/>
<text text-anchor="middle" x="351.5" y="-358.8" font-family="Helvetica,sans-Serif" font-weight="bold" font-size="9.00">files&#45;and&#45;dirs</text>
</g>
<g id="clust12" class="cluster">
<title>cluster_src/main/options</title>
<path fill="#ffffff" stroke="black" stroke-width="2" d="M459,-118C459,-118 657,-118 657,-118 663,-118 669,-124 669,-130 669,-130 669,-188 669,-188 669,-194 663,-200 657,-200 657,-200 459,-200 459,-200 453,-200 447,-194 447,-188 447,-188 447,-130 447,-130 447,-124 453,-118 459,-118"/>
<text text-anchor="middle" x="558" y="-188.8" font-family="Helvetica,sans-Serif" font-weight="bold" font-size="9.00">options</text>
</g>
<g id="clust13" class="cluster">
<title>cluster_src/main/resolve&#45;options</title>
<path fill="#ffffff" stroke="black" stroke-width="2" d="M322,-258C322,-258 382,-258 382,-258 388,-258 394,-264 394,-270 394,-270 394,-298 394,-298 394,-304 388,-310 382,-310 382,-310 322,-310 322,-310 316,-310 310,-304 310,-298 310,-298 310,-270 310,-270 310,-264 316,-258 322,-258"/>
<text text-anchor="middle" x="352" y="-298.8" font-family="Helvetica,sans-Serif" font-weight="bold" font-size="9.00">resolve&#45;options</text>
</g>
<g id="clust14" class="cluster">
<title>cluster_src/main/rule&#45;set</title>
<path fill="#ffffff" stroke="black" stroke-width="2" d="M323,-142C323,-142 380,-142 380,-142 386,-142 392,-148 392,-154 392,-154 392,-212 392,-212 392,-218 386,-224 380,-224 380,-224 323,-224 323,-224 317,-224 311,-218 311,-212 311,-212 311,-154 311,-154 311,-148 317,-142 323,-142"/>
<text text-anchor="middle" x="351.5" y="-212.8" font-family="Helvetica,sans-Serif" font-weight="bold" font-size="9.00">rule&#45;set</text>
</g>
<g id="clust15" class="cluster">
<title>cluster_src/main/utl</title>
<path fill="#ffffff" stroke="black" stroke-width="2" d="M577,-208C577,-208 688,-208 688,-208 694,-208 700,-214 700,-220 700,-220 700,-248 700,-248 700,-254 694,-260 688,-260 688,-260 577,-260 577,-260 571,-260 565,-254 565,-248 565,-248 565,-220 565,-220 565,-214 571,-208 577,-208"/>
<text text-anchor="middle" x="632.5" y="-248.8" font-family="Helvetica,sans-Serif" font-weight="bold" font-size="9.00">utl</text>
</g>
<g id="clust16" class="cluster">
<title>cluster_src/report</title>
<path fill="#ffffff" stroke="black" stroke-width="2" d="M609.5,-404C609.5,-404 655.5,-404 655.5,-404 661.5,-404 667.5,-410 667.5,-416 667.5,-416 667.5,-444 667.5,-444 667.5,-450 661.5,-456 655.5,-456 655.5,-456 609.5,-456 609.5,-456 603.5,-456 597.5,-450 597.5,-444 597.5,-444 597.5,-416 597.5,-416 597.5,-410 603.5,-404 609.5,-404"/>
<text text-anchor="middle" x="632.5" y="-444.8" font-family="Helvetica,sans-Serif" font-weight="bold" font-size="9.00">report</text>
</g>
<g id="clust17" class="cluster">
<title>cluster_src/schema</title>
<path fill="#ffffff" stroke="black" stroke-width="2" d="M436,-824C436,-824 539,-824 539,-824 545,-824 551,-830 551,-836 551,-836 551,-894 551,-894 551,-900 545,-906 539,-906 539,-906 436,-906 436,-906 430,-906 424,-900 424,-894 424,-894 424,-836 424,-836 424,-830 430,-824 436,-824"/>
<text text-anchor="middle" x="487.5" y="-894.8" font-family="Helvetica,sans-Serif" font-weight="bold" font-size="9.00">schema</text>
</g>
<g id="clust18" class="cluster">
<title>cluster_src/utl</title>
<path fill="#ffffff" stroke="black" stroke-width="2" d="M328.5,-404C328.5,-404 374.5,-404 374.5,-404 380.5,-404 386.5,-410 386.5,-416 386.5,-416 386.5,-444 386.5,-444 386.5,-450 380.5,-456 374.5,-456 374.5,-456 328.5,-456 328.5,-456 322.5,-456 316.5,-450 316.5,-444 316.5,-444 316.5,-416 316.5,-416 316.5,-410 322.5,-404 328.5,-404"/>
<text text-anchor="middle" x="351.5" y="-444.8" font-family="Helvetica,sans-Serif" font-weight="bold" font-size="9.00">utl</text>
</g>
<g id="clust9" class="cluster">
<title>cluster_src/graph&#45;utl</title>
<path fill="#ffffff" stroke="black" stroke-width="2" d="M435,-404C435,-404 540,-404 540,-404 546,-404 552,-410 552,-416 552,-416 552,-564 552,-564 552,-570 546,-576 540,-576 540,-576 435,-576 435,-576 429,-576 423,-570 423,-564 423,-564 423,-416 423,-416 423,-410 429,-404 435,-404"/>
<text text-anchor="middle" x="487.5" y="-564.8" font-family="Helvetica,sans-Serif" font-weight="bold" font-size="9.00">graph&#45;utl</text>
</g>
<g id="clust2" class="cluster">
<title>cluster_src/cli</title>
<path fill="#ffffff" stroke="black" stroke-width="2" d="M28,-258C28,-258 112,-258 112,-258 118,-258 124,-264 124,-270 124,-270 124,-358 124,-358 124,-364 118,-370 112,-370 112,-370 28,-370 28,-370 22,-370 16,-364 16,-358 16,-358 16,-270 16,-270 16,-264 22,-258 28,-258"/>
<text text-anchor="middle" x="70" y="-358.8" font-family="Helvetica,sans-Serif" font-weight="bold" font-size="9.00">cli</text>
</g>
<g id="clust3" class="cluster">
<title>cluster_src/config&#45;utl</title>
<path fill="#ffffff" stroke="black" stroke-width="2" d="M152,-16C152,-16 266,-16 266,-16 272,-16 278,-22 278,-28 278,-28 278,-90 278,-90 278,-96 272,-102 266,-102 266,-102 152,-102 152,-102 146,-102 140,-96 140,-90 140,-90 140,-28 140,-28 140,-22 146,-16 152,-16"/>
<text text-anchor="middle" x="209" y="-90.8" font-family="Helvetica,sans-Serif" font-weight="bold" font-size="9.00">config&#45;utl</text>
</g>
<g id="clust4" class="cluster">
<title>cluster_src/config&#45;utl/extract&#45;depcruise&#45;config</title>
<path fill="#ffffff" stroke="black" stroke-width="2" d="M160,-24C160,-24 258,-24 258,-24 264,-24 270,-30 270,-36 270,-36 270,-64 270,-64 270,-70 264,-76 258,-76 258,-76 160,-76 160,-76 154,-76 148,-70 148,-64 148,-64 148,-36 148,-36 148,-30 154,-24 160,-24"/>
<text text-anchor="middle" x="209" y="-64.8" font-family="Helvetica,sans-Serif" font-weight="bold" font-size="9.00">extract&#45;depcruise&#45;config</text>
</g>
<g id="clust5" class="cluster">
<title>cluster_src/enrich</title>
<path fill="#ffffff" stroke="black" stroke-width="2" d="M430,-584C430,-584 545,-584 545,-584 551,-584 557,-590 557,-596 557,-596 557,-684 557,-684 557,-690 551,-696 545,-696 545,-696 430,-696 430,-696 424,-696 418,-690 418,-684 418,-684 418,-596 418,-596 418,-590 424,-584 430,-584"/>
<text text-anchor="middle" x="487.5" y="-684.8" font-family="Helvetica,sans-Serif" font-weight="bold" font-size="9.00">enrich</text>
</g>
<g id="clust6" class="cluster">
<title>cluster_src/enrich/summarize</title>
<path fill="#ffffff" stroke="black" stroke-width="2" d="M438,-592C438,-592 537,-592 537,-592 543,-592 549,-598 549,-604 549,-604 549,-632 549,-632 549,-638 543,-644 537,-644 537,-644 438,-644 438,-644 432,-644 426,-638 426,-632 426,-632 426,-604 426,-604 426,-598 432,-592 438,-592"/>
<text text-anchor="middle" x="487.5" y="-632.8" font-family="Helvetica,sans-Serif" font-weight="bold" font-size="9.00">summarize</text>
</g>
<g id="clust7" class="cluster">
<title>cluster_src/extract</title>
<path fill="#ffffff" stroke="black" stroke-width="2" d="M456.5,-704C456.5,-704 518.5,-704 518.5,-704 524.5,-704 530.5,-710 530.5,-716 530.5,-716 530.5,-804 530.5,-804 530.5,-810 524.5,-816 518.5,-816 518.5,-816 456.5,-816 456.5,-816 450.5,-816 444.5,-810 444.5,-804 444.5,-804 444.5,-716 444.5,-716 444.5,-710 450.5,-704 456.5,-704"/>
<text text-anchor="middle" x="487.5" y="-804.8" font-family="Helvetica,sans-Serif" font-weight="bold" font-size="9.00">extract</text>
</g>
<g id="clust8" class="cluster">
<title>cluster_src/extract/transpile</title>
<path fill="#ffffff" stroke="black" stroke-width="2" d="M464.5,-712C464.5,-712 510.5,-712 510.5,-712 516.5,-712 522.5,-718 522.5,-724 522.5,-724 522.5,-752 522.5,-752 522.5,-758 516.5,-764 510.5,-764 510.5,-764 464.5,-764 464.5,-764 458.5,-764 452.5,-758 452.5,-752 452.5,-752 452.5,-724 452.5,-724 452.5,-718 458.5,-712 464.5,-712"/>
<text text-anchor="middle" x="487.5" y="-752.8" font-family="Helvetica,sans-Serif" font-weight="bold" font-size="9.00">transpile</text>
</g>
<!-- src/cli/format&#45;meta&#45;info.js -->
<g id="node1" class="node">
<title>src/cli/format&#45;meta&#45;info.js</title>
<g id="a_node1"><a xlink:href="src/cli/format-meta-info.js" xlink:title="format&#45;meta&#45;info.js">
<path fill="#ffffcc" stroke="black" d="M110,-344C110,-344 30,-344 30,-344 27,-344 24,-341 24,-338 24,-338 24,-332 24,-332 24,-329 27,-326 30,-326 30,-326 110,-326 110,-326 113,-326 116,-329 116,-332 116,-332 116,-338 116,-338 116,-341 113,-344 110,-344"/>
<text text-anchor="middle" x="70" y="-332.8" font-family="Helvetica,sans-Serif" font-size="9.00">format&#45;meta&#45;info.js</text>
</a>
</g>
</g>
<!-- src/main/index.js -->
<g id="node2" class="node">
<title>src/main/index.js</title>
<g id="a_node2"><a xlink:href="src/main/index.js" xlink:title="index.js">
<path fill="#ffffcc" stroke="black" d="M230,-314C230,-314 188,-314 188,-314 185,-314 182,-311 182,-308 182,-308 182,-302 182,-302 182,-299 185,-296 188,-296 188,-296 230,-296 230,-296 233,-296 236,-299 236,-302 236,-302 236,-308 236,-308 236,-311 233,-314 230,-314"/>
<text text-anchor="middle" x="209" y="-302.8" font-family="Helvetica,sans-Serif" font-size="9.00">index.js</text>
</a>
</g>
</g>
<!-- src/cli/format&#45;meta&#45;info.js&#45;&gt;src/main/index.js -->
<g id="edge1" class="edge">
<title>src/cli/format&#45;meta&#45;info.js&#45;&gt;src/main/index.js</title>
<path fill="none" stroke="#000000" stroke-width="2" stroke-opacity="0.200000" d="M107,-325.86C107,-318.03 107,-308 107,-308 107,-308 175.93,-308 175.93,-308"/>
<polygon fill="#000000" fill-opacity="0.200000" stroke="#000000" stroke-width="2" stroke-opacity="0.200000" points="175.93,-310.1 181.93,-308 175.93,-305.9 175.93,-310.1"/>
</g>
<!-- src/main/resolve&#45;options/normalize.js -->
<g id="node6" class="node">
<title>src/main/resolve&#45;options/normalize.js</title>
<g id="a_node6"><a xlink:href="src/main/resolve-options/normalize.js" xlink:title="normalize.js">
<path fill="#ffffcc" stroke="black" d="M378,-284C378,-284 325,-284 325,-284 322,-284 319,-281 319,-278 319,-278 319,-272 319,-272 319,-269 322,-266 325,-266 325,-266 378,-266 378,-266 381,-266 384,-269 384,-272 384,-272 384,-278 384,-278 384,-281 381,-284 378,-284"/>
<text text-anchor="middle" x="351.5" y="-272.8" font-family="Helvetica,sans-Serif" font-size="9.00">normalize.js</text>
</a>
</g>
</g>
<!-- src/main/index.js&#45;&gt;src/main/resolve&#45;options/normalize.js -->
<g id="edge14" class="edge">
<title>src/main/index.js&#45;&gt;src/main/resolve&#45;options/normalize.js</title>
<path fill="none" stroke="#000000" stroke-width="2" stroke-opacity="0.200000" d="M230,-295.84C230,-287.01 230,-275 230,-275 230,-275 312.94,-275 312.94,-275"/>
<polygon fill="#000000" fill-opacity="0.200000" stroke="#000000" stroke-width="2" stroke-opacity="0.200000" points="312.94,-277.1 318.94,-275 312.94,-272.9 312.94,-277.1"/>
</g>
<!-- src/enrich/index.js -->
<g id="node7" class="node">
<title>src/enrich/index.js</title>
<g id="a_node7"><a xlink:href="src/enrich/index.js" xlink:title="index.js">
<path fill="#ffffcc" stroke="black" d="M508.5,-670C508.5,-670 466.5,-670 466.5,-670 463.5,-670 460.5,-667 460.5,-664 460.5,-664 460.5,-658 460.5,-658 460.5,-655 463.5,-652 466.5,-652 466.5,-652 508.5,-652 508.5,-652 511.5,-652 514.5,-655 514.5,-658 514.5,-658 514.5,-664 514.5,-664 514.5,-667 511.5,-670 508.5,-670"/>
<text text-anchor="middle" x="487.5" y="-658.8" font-family="Helvetica,sans-Serif" font-size="9.00">index.js</text>
</a>
</g>
</g>
<!-- src/main/index.js&#45;&gt;src/enrich/index.js -->
<g id="edge5" class="edge">
<title>src/main/index.js&#45;&gt;src/enrich/index.js</title>
<path fill="none" stroke="#000000" stroke-width="2" stroke-opacity="0.200000" d="M213,-314.16C213,-369.88 213,-661 213,-661 213,-661 454.18,-661 454.18,-661"/>
<polygon fill="#000000" fill-opacity="0.200000" stroke="#000000" stroke-width="2" stroke-opacity="0.200000" points="454.18,-663.1 460.18,-661 454.18,-658.9 454.18,-663.1"/>
</g>
<!-- src/extract/index.js -->
<g id="node9" class="node">
<title>src/extract/index.js</title>
<g id="a_node9"><a xlink:href="src/extract/index.js" xlink:title="index.js">
<path fill="#ffffcc" stroke="black" d="M508.5,-790C508.5,-790 466.5,-790 466.5,-790 463.5,-790 460.5,-787 460.5,-784 460.5,-784 460.5,-778 460.5,-778 460.5,-775 463.5,-772 466.5,-772 466.5,-772 508.5,-772 508.5,-772 511.5,-772 514.5,-775 514.5,-778 514.5,-778 514.5,-784 514.5,-784 514.5,-787 511.5,-790 508.5,-790"/>
<text text-anchor="middle" x="487.5" y="-778.8" font-family="Helvetica,sans-Serif" font-size="9.00">index.js</text>
</a>
</g>
</g>
<!-- src/main/index.js&#45;&gt;src/extract/index.js -->
<g id="edge6" class="edge">
<title>src/main/index.js&#45;&gt;src/extract/index.js</title>
<path fill="none" stroke="#000000" stroke-width="2" stroke-opacity="0.200000" d="M198,-314.08C198,-379.89 198,-781 198,-781 198,-781 454.26,-781 454.26,-781"/>
<polygon fill="#000000" fill-opacity="0.200000" stroke="#000000" stroke-width="2" stroke-opacity="0.200000" points="454.26,-783.1 460.26,-781 454.26,-778.9 454.26,-783.1"/>
</g>
<!-- src/extract/transpile/meta.js -->
<g id="node10" class="node">
<title>src/extract/transpile/meta.js</title>
<g id="a_node10"><a xlink:href="src/extract/transpile/meta.js" xlink:title="meta.js">
<path fill="#ffffcc" stroke="black" d="M508.5,-738C508.5,-738 466.5,-738 466.5,-738 463.5,-738 460.5,-735 460.5,-732 460.5,-732 460.5,-726 460.5,-726 460.5,-723 463.5,-720 466.5,-720 466.5,-720 508.5,-720 508.5,-720 511.5,-720 514.5,-723 514.5,-726 514.5,-726 514.5,-732 514.5,-732 514.5,-735 511.5,-738 508.5,-738"/>
<text text-anchor="middle" x="487.5" y="-726.8" font-family="Helvetica,sans-Serif" font-size="9.00">meta.js</text>
</a>
</g>
</g>
<!-- src/main/index.js&#45;&gt;src/extract/transpile/meta.js -->
<g id="edge7" class="edge">
<title>src/main/index.js&#45;&gt;src/extract/transpile/meta.js</title>
<path fill="none" stroke="#000000" stroke-width="2" stroke-opacity="0.200000" d="M206,-314.32C206,-376.76 206,-732 206,-732 206,-732 454.25,-732 454.25,-732"/>
<polygon fill="#000000" fill-opacity="0.200000" stroke="#000000" stroke-width="2" stroke-opacity="0.200000" points="454.25,-734.1 460.25,-732 454.25,-729.9 454.25,-734.1"/>
</g>
<!-- src/main/files&#45;and&#45;dirs/normalize.js -->
<g id="node16" class="node">
<title>src/main/files&#45;and&#45;dirs/normalize.js</title>
<g id="a_node16"><a xlink:href="src/main/files-and-dirs/normalize.js" xlink:title="normalize.js">
<path fill="#ffffcc" stroke="black" d="M378,-344C378,-344 325,-344 325,-344 322,-344 319,-341 319,-338 319,-338 319,-332 319,-332 319,-329 322,-326 325,-326 325,-326 378,-326 378,-326 381,-326 384,-329 384,-332 384,-332 384,-338 384,-338 384,-341 381,-344 378,-344"/>
<text text-anchor="middle" x="351.5" y="-332.8" font-family="Helvetica,sans-Serif" font-size="9.00">normalize.js</text>
</a>
</g>
</g>
<!-- src/main/index.js&#45;&gt;src/main/files&#45;and&#45;dirs/normalize.js -->
<g id="edge10" class="edge">
<title>src/main/index.js&#45;&gt;src/main/files&#45;and&#45;dirs/normalize.js</title>
<path fill="none" stroke="#000000" stroke-width="2" stroke-opacity="0.200000" d="M229,-314.16C229,-322.99 229,-335 229,-335 229,-335 312.99,-335 312.99,-335"/>
<polygon fill="#000000" fill-opacity="0.200000" stroke="#000000" stroke-width="2" stroke-opacity="0.200000" points="312.99,-337.1 318.99,-335 312.99,-332.9 312.99,-337.1"/>
</g>
<!-- src/schema/cruise&#45;result.schema.js -->
<g id="node17" class="node">
<title>src/schema/cruise&#45;result.schema.js</title>
<g id="a_node17"><a xlink:href="src/schema/cruise-result.schema.js" xlink:title="cruise&#45;result.schema.js">
<path fill="#ffffcc" stroke="black" d="M536,-880C536,-880 439,-880 439,-880 436,-880 433,-877 433,-874 433,-874 433,-868 433,-868 433,-865 436,-862 439,-862 439,-862 536,-862 536,-862 539,-862 542,-865 542,-868 542,-868 542,-874 542,-874 542,-877 539,-880 536,-880"/>
<text text-anchor="middle" x="487.5" y="-868.8" font-family="Helvetica,sans-Serif" font-size="9.00">cruise&#45;result.schema.js</text>
</a>
</g>
</g>
<!-- src/main/index.js&#45;&gt;src/schema/cruise&#45;result.schema.js -->
<g id="edge8" class="edge">
<title>src/main/index.js&#45;&gt;src/schema/cruise&#45;result.schema.js</title>
<path fill="none" stroke="#000000" stroke-width="2" stroke-opacity="0.200000" d="M190,-314.35C190,-387.94 190,-871 190,-871 190,-871 426.93,-871 426.93,-871"/>
<polygon fill="#000000" fill-opacity="0.200000" stroke="#000000" stroke-width="2" stroke-opacity="0.200000" points="426.93,-873.1 432.93,-871 426.93,-868.9 426.93,-873.1"/>
</g>
<!-- src/utl/bus.js -->
<g id="node18" class="node">
<title>src/utl/bus.js</title>
<g id="a_node18"><a xlink:href="src/utl/bus.js" xlink:title="bus.js">
<path fill="#ffffcc" stroke="black" d="M372.5,-430C372.5,-430 330.5,-430 330.5,-430 327.5,-430 324.5,-427 324.5,-424 324.5,-424 324.5,-418 324.5,-418 324.5,-415 327.5,-412 330.5,-412 330.5,-412 372.5,-412 372.5,-412 375.5,-412 378.5,-415 378.5,-418 378.5,-418 378.5,-424 378.5,-424 378.5,-427 375.5,-430 372.5,-430"/>
<text text-anchor="middle" x="351.5" y="-418.8" font-family="Helvetica,sans-Serif" font-size="9.00">bus.js</text>
</a>
</g>
</g>
<!-- src/main/index.js&#45;&gt;src/utl/bus.js -->
<g id="edge9" class="edge">
<title>src/main/index.js&#45;&gt;src/utl/bus.js</title>
<path fill="none" stroke="#000000" stroke-width="2" stroke-opacity="0.200000" d="M221,-314.1C221,-341.45 221,-421 221,-421 221,-421 318.46,-421 318.46,-421"/>
<polygon fill="#000000" fill-opacity="0.200000" stroke="#000000" stroke-width="2" stroke-opacity="0.200000" points="318.46,-423.1 324.46,-421 318.46,-418.9 318.46,-423.1"/>
</g>
<!-- src/main/options/normalize.js -->
<g id="node19" class="node">
<title>src/main/options/normalize.js</title>
<g id="a_node19"><a xlink:href="src/main/options/normalize.js" xlink:title="normalize.js">
<path fill="#ffffcc" stroke="black" d="M514,-144C514,-144 461,-144 461,-144 458,-144 455,-141 455,-138 455,-138 455,-132 455,-132 455,-129 458,-126 461,-126 461,-126 514,-126 514,-126 517,-126 520,-129 520,-132 520,-132 520,-138 520,-138 520,-141 517,-144 514,-144"/>
<text text-anchor="middle" x="487.5" y="-132.8" font-family="Helvetica,sans-Serif" font-size="9.00">normalize.js</text>
</a>
</g>
</g>
<!-- src/main/index.js&#45;&gt;src/main/options/normalize.js -->
<g id="edge11" class="edge">
<title>src/main/index.js&#45;&gt;src/main/options/normalize.js</title>
<path fill="none" stroke="#000000" stroke-width="2" stroke-opacity="0.200000" d="M196,-295.86C196,-260.55 196,-135 196,-135 196,-135 448.91,-135 448.91,-135"/>
<polygon fill="#000000" fill-opacity="0.200000" stroke="#000000" stroke-width="2" stroke-opacity="0.200000" points="448.91,-137.1 454.91,-135 448.91,-132.9 448.91,-137.1"/>
</g>
<!-- src/main/options/validate.js -->
<g id="node20" class="node">
<title>src/main/options/validate.js</title>
<g id="a_node20"><a xlink:href="src/main/options/validate.js" xlink:title="validate.js">
<path fill="#ffffcc" stroke="black" d="M510,-174C510,-174 465,-174 465,-174 462,-174 459,-171 459,-168 459,-168 459,-162 459,-162 459,-159 462,-156 465,-156 465,-156 510,-156 510,-156 513,-156 516,-159 516,-162 516,-162 516,-168 516,-168 516,-171 513,-174 510,-174"/>
<text text-anchor="middle" x="487.5" y="-162.8" font-family="Helvetica,sans-Serif" font-size="9.00">validate.js</text>
</a>
</g>
</g>
<!-- src/main/index.js&#45;&gt;src/main/options/validate.js -->
<g id="edge12" class="edge">
<title>src/main/index.js&#45;&gt;src/main/options/validate.js</title>
<path fill="none" stroke="#000000" stroke-width="2" stroke-opacity="0.200000" d="M236.02,-305C304.24,-305 478,-305 478,-305 478,-305 478,-180.19 478,-180.19"/>
<polygon fill="#000000" fill-opacity="0.200000" stroke="#000000" stroke-width="2" stroke-opacity="0.200000" points="480.1,-180.19 478,-174.19 475.9,-180.19 480.1,-180.19"/>
</g>
<!-- src/main/report&#45;wrap.js -->
<g id="node21" class="node">
<title>src/main/report&#45;wrap.js</title>
<g id="a_node21"><a xlink:href="src/main/report-wrap.js" xlink:title="report&#45;wrap.js">
<path fill="#ffffcc" stroke="black" d="M381.5,-250C381.5,-250 321.5,-250 321.5,-250 318.5,-250 315.5,-247 315.5,-244 315.5,-244 315.5,-238 315.5,-238 315.5,-235 318.5,-232 321.5,-232 321.5,-232 381.5,-232 381.5,-232 384.5,-232 387.5,-235 387.5,-238 387.5,-238 387.5,-244 387.5,-244 387.5,-247 384.5,-250 381.5,-250"/>
<text text-anchor="middle" x="351.5" y="-238.8" font-family="Helvetica,sans-Serif" font-size="9.00">report&#45;wrap.js</text>
</a>
</g>
</g>
<!-- src/main/index.js&#45;&gt;src/main/report&#45;wrap.js -->
<g id="edge13" class="edge">
<title>src/main/index.js&#45;&gt;src/main/report&#45;wrap.js</title>
<path fill="none" stroke="#000000" stroke-width="2" stroke-opacity="0.200000" d="M223,-295.83C223,-278.13 223,-241 223,-241 223,-241 309.36,-241 309.36,-241"/>
<polygon fill="#000000" fill-opacity="0.200000" stroke="#000000" stroke-width="2" stroke-opacity="0.200000" points="309.36,-243.1 315.36,-241 309.36,-238.9 309.36,-243.1"/>
</g>
<!-- src/main/rule&#45;set/normalize.js -->
<g id="node22" class="node">
<title>src/main/rule&#45;set/normalize.js</title>
<g id="a_node22"><a xlink:href="src/main/rule-set/normalize.js" xlink:title="normalize.js">
<path fill="#ffffcc" stroke="black" d="M378,-198C378,-198 325,-198 325,-198 322,-198 319,-195 319,-192 319,-192 319,-186 319,-186 319,-183 322,-180 325,-180 325,-180 378,-180 378,-180 381,-180 384,-183 384,-186 384,-186 384,-192 384,-192 384,-195 381,-198 378,-198"/>
<text text-anchor="middle" x="351.5" y="-186.8" font-family="Helvetica,sans-Serif" font-size="9.00">normalize.js</text>
</a>
</g>
</g>
<!-- src/main/index.js&#45;&gt;src/main/rule&#45;set/normalize.js -->
<g id="edge15" class="edge">
<title>src/main/index.js&#45;&gt;src/main/rule&#45;set/normalize.js</title>
<path fill="none" stroke="#000000" stroke-width="2" stroke-opacity="0.200000" d="M216,-295.9C216,-268.55 216,-189 216,-189 216,-189 312.7,-189 312.7,-189"/>
<polygon fill="#000000" fill-opacity="0.200000" stroke="#000000" stroke-width="2" stroke-opacity="0.200000" points="312.7,-191.1 318.7,-189 312.7,-186.9 312.7,-191.1"/>
</g>
<!-- src/main/rule&#45;set/validate.js -->
<g id="node23" class="node">
<title>src/main/rule&#45;set/validate.js</title>
<g id="a_node23"><a xlink:href="src/main/rule-set/validate.js" xlink:title="validate.js">
<path fill="#ffffcc" stroke="black" d="M374,-168C374,-168 329,-168 329,-168 326,-168 323,-165 323,-162 323,-162 323,-156 323,-156 323,-153 326,-150 329,-150 329,-150 374,-150 374,-150 377,-150 380,-153 380,-156 380,-156 380,-162 380,-162 380,-165 377,-168 374,-168"/>
<text text-anchor="middle" x="351.5" y="-156.8" font-family="Helvetica,sans-Serif" font-size="9.00">validate.js</text>
</a>
</g>
</g>
<!-- src/main/index.js&#45;&gt;src/main/rule&#45;set/validate.js -->
<g id="edge16" class="edge">
<title>src/main/index.js&#45;&gt;src/main/rule&#45;set/validate.js</title>
<path fill="none" stroke="#000000" stroke-width="2" stroke-opacity="0.200000" d="M209,-295.87C209,-263.9 209,-159 209,-159 209,-159 316.66,-159 316.66,-159"/>
<polygon fill="#000000" fill-opacity="0.200000" stroke="#000000" stroke-width="2" stroke-opacity="0.200000" points="316.66,-161.1 322.66,-159 316.66,-156.9 316.66,-161.1"/>
</g>
<!-- src/cli/format.js -->
<g id="node3" class="node">
<title>src/cli/format.js</title>
<g id="a_node3"><a xlink:href="src/cli/format.js" xlink:title="format.js">
<path fill="#ffffcc" stroke="black" d="M91,-314C91,-314 49,-314 49,-314 46,-314 43,-311 43,-308 43,-308 43,-302 43,-302 43,-299 46,-296 49,-296 49,-296 91,-296 91,-296 94,-296 97,-299 97,-302 97,-302 97,-308 97,-308 97,-311 94,-314 91,-314"/>
<text text-anchor="middle" x="70" y="-302.8" font-family="Helvetica,sans-Serif" font-size="9.00">format.js</text>
</a>
</g>
</g>
<!-- src/cli/format.js&#45;&gt;src/main/index.js -->
<g id="edge2" class="edge">
<title>src/cli/format.js&#45;&gt;src/main/index.js</title>
<path fill="none" stroke="#000000" stroke-width="2" stroke-opacity="0.200000" d="M97.13,-302C97.13,-302 175.94,-302 175.94,-302"/>
<polygon fill="#000000" fill-opacity="0.200000" stroke="#000000" stroke-width="2" stroke-opacity="0.200000" points="175.94,-304.1 181.94,-302 175.94,-299.9 175.94,-304.1"/>
</g>
<!-- src/cli/index.js -->
<g id="node4" class="node">
<title>src/cli/index.js</title>
<g id="a_node4"><a xlink:href="src/cli/index.js" xlink:title="index.js">
<path fill="#ffffcc" stroke="black" d="M91,-284C91,-284 49,-284 49,-284 46,-284 43,-281 43,-278 43,-278 43,-272 43,-272 43,-269 46,-266 49,-266 49,-266 91,-266 91,-266 94,-266 97,-269 97,-272 97,-272 97,-278 97,-278 97,-281 94,-284 91,-284"/>
<text text-anchor="middle" x="70" y="-272.8" font-family="Helvetica,sans-Serif" font-size="9.00">index.js</text>
</a>
</g>
</g>
<!-- src/cli/index.js&#45;&gt;src/main/index.js -->
<g id="edge3" class="edge">
<title>src/cli/index.js&#45;&gt;src/main/index.js</title>
<path fill="none" stroke="#000000" stroke-width="2" stroke-opacity="0.200000" d="M97,-279.5C132.11,-279.5 189,-279.5 189,-279.5 189,-279.5 189,-289.79 189,-289.79"/>
<polygon fill="#000000" fill-opacity="0.200000" stroke="#000000" stroke-width="2" stroke-opacity="0.200000" points="186.9,-289.79 189,-295.79 191.1,-289.79 186.9,-289.79"/>
</g>
<!-- src/config&#45;utl/extract&#45;depcruise&#45;config/index.js -->
<g id="node5" class="node">
<title>src/config&#45;utl/extract&#45;depcruise&#45;config/index.js</title>
<g id="a_node5"><a xlink:href="src/config-utl/extract-depcruise-config/index.js" xlink:title="index.js">
<path fill="#ffffcc" stroke="black" d="M230,-50C230,-50 188,-50 188,-50 185,-50 182,-47 182,-44 182,-44 182,-38 182,-38 182,-35 185,-32 188,-32 188,-32 230,-32 230,-32 233,-32 236,-35 236,-38 236,-38 236,-44 236,-44 236,-47 233,-50 230,-50"/>
<text text-anchor="middle" x="209" y="-38.8" font-family="Helvetica,sans-Serif" font-size="9.00">index.js</text>
</a>
</g>
</g>
<!-- src/config&#45;utl/extract&#45;depcruise&#45;config/index.js&#45;&gt;src/main/resolve&#45;options/normalize.js -->
<g id="edge4" class="edge">
<title>src/config&#45;utl/extract&#45;depcruise&#45;config/index.js&#45;&gt;src/main/resolve&#45;options/normalize.js</title>
<path fill="none" stroke="#000000" stroke-width="2" stroke-opacity="0.200000" d="M203,-50.28C203,-93.22 203,-270.5 203,-270.5 203,-270.5 312.91,-270.5 312.91,-270.5"/>
<polygon fill="#000000" fill-opacity="0.200000" stroke="#000000" stroke-width="2" stroke-opacity="0.200000" points="312.91,-272.6 318.91,-270.5 312.91,-268.4 312.91,-272.6"/>
</g>
<!-- src/main/resolve&#45;options/normalize.js&#45;&gt;src/extract/transpile/meta.js -->
<g id="edge26" class="edge">
<title>src/main/resolve&#45;options/normalize.js&#45;&gt;src/extract/transpile/meta.js</title>
<path fill="none" stroke="#000000" stroke-width="2" stroke-opacity="0.200000" d="M384.12,-278C392.89,-278 400,-278 400,-278 400,-278 400,-726 400,-726 400,-726 454.29,-726 454.29,-726"/>
<polygon fill="#000000" fill-opacity="0.200000" stroke="#000000" stroke-width="2" stroke-opacity="0.200000" points="454.29,-728.1 460.29,-726 454.29,-723.9 454.29,-728.1"/>
</g>
<!-- src/graph&#45;utl/rule&#45;set.js -->
<g id="node14" class="node">
<title>src/graph&#45;utl/rule&#45;set.js</title>
<g id="a_node14"><a xlink:href="src/graph-utl/rule-set.js" xlink:title="rule&#45;set.js">
<path fill="#ffffcc" stroke="black" d="M509.5,-550C509.5,-550 465.5,-550 465.5,-550 462.5,-550 459.5,-547 459.5,-544 459.5,-544 459.5,-538 459.5,-538 459.5,-535 462.5,-532 465.5,-532 465.5,-532 509.5,-532 509.5,-532 512.5,-532 515.5,-535 515.5,-538 515.5,-538 515.5,-544 515.5,-544 515.5,-547 512.5,-550 509.5,-550"/>
<text text-anchor="middle" x="487.5" y="-538.8" font-family="Helvetica,sans-Serif" font-size="9.00">rule&#45;set.js</text>
</a>
</g>
</g>
<!-- src/main/resolve&#45;options/normalize.js&#45;&gt;src/graph&#45;utl/rule&#45;set.js -->
<g id="edge27" class="edge">
<title>src/main/resolve&#45;options/normalize.js&#45;&gt;src/graph&#45;utl/rule&#45;set.js</title>
<path fill="none" stroke="#000000" stroke-width="2" stroke-opacity="0.200000" d="M384.05,-272C398.8,-272 413,-272 413,-272 413,-272 413,-541 413,-541 413,-541 453.33,-541 453.33,-541"/>
<polygon fill="#000000" fill-opacity="0.200000" stroke="#000000" stroke-width="2" stroke-opacity="0.200000" points="453.33,-543.1 459.33,-541 453.33,-538.9 453.33,-543.1"/>
</g>
<!-- src/enrich/summarize/summarize&#45;modules.js -->
<g id="node8" class="node">
<title>src/enrich/summarize/summarize&#45;modules.js</title>
<g id="a_node8"><a xlink:href="src/enrich/summarize/summarize-modules.js" xlink:title="summarize&#45;modules.js">
<path fill="#ffffcc" stroke="black" d="M535,-618C535,-618 440,-618 440,-618 437,-618 434,-615 434,-612 434,-612 434,-606 434,-606 434,-603 437,-600 440,-600 440,-600 535,-600 535,-600 538,-600 541,-603 541,-606 541,-606 541,-612 541,-612 541,-615 538,-618 535,-618"/>
<text text-anchor="middle" x="487.5" y="-606.8" font-family="Helvetica,sans-Serif" font-size="9.00">summarize&#45;modules.js</text>
</a>
</g>
</g>
<!-- src/graph&#45;utl/compare.js -->
<g id="node11" class="node">
<title>src/graph&#45;utl/compare.js</title>
<g id="a_node11"><a xlink:href="src/graph-utl/compare.js" xlink:title="compare.js">
<path fill="#ffffcc" stroke="black" d="M512,-430C512,-430 463,-430 463,-430 460,-430 457,-427 457,-424 457,-424 457,-418 457,-418 457,-415 460,-412 463,-412 463,-412 512,-412 512,-412 515,-412 518,-415 518,-418 518,-418 518,-424 518,-424 518,-427 515,-430 512,-430"/>
<text text-anchor="middle" x="487.5" y="-418.8" font-family="Helvetica,sans-Serif" font-size="9.00">compare.js</text>
</a>
</g>
</g>
<!-- src/graph&#45;utl/consolidate&#45;to&#45;pattern.js -->
<g id="node12" class="node">
<title>src/graph&#45;utl/consolidate&#45;to&#45;pattern.js</title>
<g id="a_node12"><a xlink:href="src/graph-utl/consolidate-to-pattern.js" xlink:title="consolidate&#45;to&#45;pattern.js">
<path fill="#ffffcc" stroke="black" d="M538,-520C538,-520 437,-520 437,-520 434,-520 431,-517 431,-514 431,-514 431,-508 431,-508 431,-505 434,-502 437,-502 437,-502 538,-502 538,-502 541,-502 544,-505 544,-508 544,-508 544,-514 544,-514 544,-517 541,-520 538,-520"/>
<text text-anchor="middle" x="487.5" y="-508.8" font-family="Helvetica,sans-Serif" font-size="9.00">consolidate&#45;to&#45;pattern.js</text>
</a>
</g>
</g>
<!-- src/graph&#45;utl/filterbank.js -->
<g id="node13" class="node">
<title>src/graph&#45;utl/filterbank.js</title>
<g id="a_node13"><a xlink:href="src/graph-utl/filterbank.js" xlink:title="filterbank.js">
<path fill="#ffffcc" stroke="black" d="M512.5,-490C512.5,-490 462.5,-490 462.5,-490 459.5,-490 456.5,-487 456.5,-484 456.5,-484 456.5,-478 456.5,-478 456.5,-475 459.5,-472 462.5,-472 462.5,-472 512.5,-472 512.5,-472 515.5,-472 518.5,-475 518.5,-478 518.5,-478 518.5,-484 518.5,-484 518.5,-487 515.5,-490 512.5,-490"/>
<text text-anchor="middle" x="487.5" y="-478.8" font-family="Helvetica,sans-Serif" font-size="9.00">filterbank.js</text>
</a>
</g>
</g>
<!-- src/graph&#45;utl/strip&#45;self&#45;transitions.js -->
<g id="node15" class="node">
<title>src/graph&#45;utl/strip&#45;self&#45;transitions.js</title>
<g id="a_node15"><a xlink:href="src/graph-utl/strip-self-transitions.js" xlink:title="strip&#45;self&#45;transitions.js">
<path fill="#ffffcc" stroke="black" d="M533.5,-460C533.5,-460 441.5,-460 441.5,-460 438.5,-460 435.5,-457 435.5,-454 435.5,-454 435.5,-448 435.5,-448 435.5,-445 438.5,-442 441.5,-442 441.5,-442 533.5,-442 533.5,-442 536.5,-442 539.5,-445 539.5,-448 539.5,-448 539.5,-454 539.5,-454 539.5,-457 536.5,-460 533.5,-460"/>
<text text-anchor="middle" x="487.5" y="-448.8" font-family="Helvetica,sans-Serif" font-size="9.00">strip&#45;self&#45;transitions.js</text>
</a>
</g>
</g>
<!-- src/main/options/defaults.js -->
<g id="node24" class="node">
<title>src/main/options/defaults.js</title>
<g id="a_node24"><a xlink:href="src/main/options/defaults.js" xlink:title="defaults.js">
<path fill="#ffffcc" stroke="black" d="M655,-144C655,-144 610,-144 610,-144 607,-144 604,-141 604,-138 604,-138 604,-132 604,-132 604,-129 607,-126 610,-126 610,-126 655,-126 655,-126 658,-126 661,-129 661,-132 661,-132 661,-138 661,-138 661,-141 658,-144 655,-144"/>
<text text-anchor="middle" x="632.5" y="-132.8" font-family="Helvetica,sans-Serif" font-size="9.00">defaults.js</text>
</a>
</g>
</g>
<!-- src/main/options/normalize.js&#45;&gt;src/main/options/defaults.js -->
<g id="edge18" class="edge">
<title>src/main/options/normalize.js&#45;&gt;src/main/options/defaults.js</title>
<path fill="none" stroke="#000000" stroke-width="2" stroke-opacity="0.200000" d="M520.04,-132C520.04,-132 597.99,-132 597.99,-132"/>
<polygon fill="#000000" fill-opacity="0.200000" stroke="#000000" stroke-width="2" stroke-opacity="0.200000" points="597.99,-134.1 603.99,-132 597.99,-129.9 597.99,-134.1"/>
</g>
<!-- src/main/utl/normalize&#45;re&#45;properties.js -->
<g id="node25" class="node">
<title>src/main/utl/normalize&#45;re&#45;properties.js</title>
<g id="a_node25"><a xlink:href="src/main/utl/normalize-re-properties.js" xlink:title="normalize&#45;re&#45;properties.js">
<path fill="#ffffcc" stroke="black" d="M686,-234C686,-234 579,-234 579,-234 576,-234 573,-231 573,-228 573,-228 573,-222 573,-222 573,-219 576,-216 579,-216 579,-216 686,-216 686,-216 689,-216 692,-219 692,-222 692,-222 692,-228 692,-228 692,-231 689,-234 686,-234"/>
<text text-anchor="middle" x="632.5" y="-222.8" font-family="Helvetica,sans-Serif" font-size="9.00">normalize&#45;re&#45;properties.js</text>
</a>
</g>
</g>
<!-- src/main/options/normalize.js&#45;&gt;src/main/utl/normalize&#45;re&#45;properties.js -->
<g id="edge17" class="edge">
<title>src/main/options/normalize.js&#45;&gt;src/main/utl/normalize&#45;re&#45;properties.js</title>
<path fill="none" stroke="#000000" stroke-width="2" stroke-opacity="0.200000" d="M520.03,-138C551.35,-138 594,-138 594,-138 594,-138 594,-209.69 594,-209.69"/>
<polygon fill="#000000" fill-opacity="0.200000" stroke="#000000" stroke-width="2" stroke-opacity="0.200000" points="591.9,-209.69 594,-215.69 596.1,-209.69 591.9,-209.69"/>
</g>
<!-- src/report/index.js -->
<g id="node26" class="node">
<title>src/report/index.js</title>
<g id="a_node26"><a xlink:href="src/report/index.js" xlink:title="index.js">
<path fill="#ffffcc" stroke="black" d="M653.5,-430C653.5,-430 611.5,-430 611.5,-430 608.5,-430 605.5,-427 605.5,-424 605.5,-424 605.5,-418 605.5,-418 605.5,-415 608.5,-412 611.5,-412 611.5,-412 653.5,-412 653.5,-412 656.5,-412 659.5,-415 659.5,-418 659.5,-418 659.5,-424 659.5,-424 659.5,-427 656.5,-430 653.5,-430"/>
<text text-anchor="middle" x="632.5" y="-418.8" font-family="Helvetica,sans-Serif" font-size="9.00">index.js</text>
</a>
</g>
</g>
<!-- src/main/options/validate.js&#45;&gt;src/report/index.js -->
<g id="edge19" class="edge">
<title>src/main/options/validate.js&#45;&gt;src/report/index.js</title>
<path fill="none" stroke="#000000" stroke-width="2" stroke-opacity="0.200000" d="M516.08,-165C523.77,-165 530,-165 530,-165 530,-165 530,-421 530,-421 530,-421 599.3,-421 599.3,-421"/>
<polygon fill="#000000" fill-opacity="0.200000" stroke="#000000" stroke-width="2" stroke-opacity="0.200000" points="599.3,-423.1 605.3,-421 599.3,-418.9 599.3,-423.1"/>
</g>
<!-- src/main/report&#45;wrap.js&#45;&gt;src/enrich/summarize/summarize&#45;modules.js -->
<g id="edge20" class="edge">
<title>src/main/report&#45;wrap.js&#45;&gt;src/enrich/summarize/summarize&#45;modules.js</title>
<path fill="none" stroke="#000000" stroke-width="2" stroke-opacity="0.200000" d="M387.59,-240.86C398.19,-240.86 407,-240.86 407,-240.86 407,-240.86 407,-609 407,-609 407,-609 427.81,-609 427.81,-609"/>
<polygon fill="#000000" fill-opacity="0.200000" stroke="#000000" stroke-width="2" stroke-opacity="0.200000" points="427.81,-611.1 433.81,-609 427.81,-606.9 427.81,-611.1"/>
</g>
<!-- src/main/report&#45;wrap.js&#45;&gt;src/graph&#45;utl/compare.js -->
<g id="edge21" class="edge">
<title>src/main/report&#45;wrap.js&#45;&gt;src/graph&#45;utl/compare.js</title>
<path fill="none" stroke="#000000" stroke-width="2" stroke-opacity="0.200000" d="M387.84,-245.43C430.94,-245.43 497,-245.43 497,-245.43 497,-245.43 497,-405.56 497,-405.56"/>
<polygon fill="#000000" fill-opacity="0.200000" stroke="#000000" stroke-width="2" stroke-opacity="0.200000" points="494.9,-405.56 497,-411.56 499.1,-405.56 494.9,-405.56"/>
</g>
<!-- src/main/report&#45;wrap.js&#45;&gt;src/graph&#45;utl/consolidate&#45;to&#45;pattern.js -->
<g id="edge22" class="edge">
<title>src/main/report&#45;wrap.js&#45;&gt;src/graph&#45;utl/consolidate&#45;to&#45;pattern.js</title>
<path fill="none" stroke="#000000" stroke-width="2" stroke-opacity="0.200000" d="M387.62,-238.57C403.67,-238.57 419,-238.57 419,-238.57 419,-238.57 419,-511 419,-511 419,-511 424.93,-511 424.93,-511"/>
<polygon fill="#000000" fill-opacity="0.200000" stroke="#000000" stroke-width="2" stroke-opacity="0.200000" points="424.93,-513.1 430.93,-511 424.93,-508.9 424.93,-513.1"/>
</g>
<!-- src/main/report&#45;wrap.js&#45;&gt;src/graph&#45;utl/filterbank.js -->
<g id="edge23" class="edge">
<title>src/main/report&#45;wrap.js&#45;&gt;src/graph&#45;utl/filterbank.js</title>
<path fill="none" stroke="#000000" stroke-width="2" stroke-opacity="0.200000" d="M387.82,-236.29C406.34,-236.29 425,-236.29 425,-236.29 425,-236.29 425,-481 425,-481 425,-481 450.25,-481 450.25,-481"/>
<polygon fill="#000000" fill-opacity="0.200000" stroke="#000000" stroke-width="2" stroke-opacity="0.200000" points="450.25,-483.1 456.25,-481 450.25,-478.9 450.25,-483.1"/>
</g>
<!-- src/main/report&#45;wrap.js&#45;&gt;src/graph&#45;utl/strip&#45;self&#45;transitions.js -->
<g id="edge24" class="edge">
<title>src/main/report&#45;wrap.js&#45;&gt;src/graph&#45;utl/strip&#45;self&#45;transitions.js</title>
<path fill="none" stroke="#000000" stroke-width="2" stroke-opacity="0.200000" d="M387.77,-247.71C414.42,-247.71 446,-247.71 446,-247.71 446,-247.71 446,-435.74 446,-435.74"/>
<polygon fill="#000000" fill-opacity="0.200000" stroke="#000000" stroke-width="2" stroke-opacity="0.200000" points="443.9,-435.74 446,-441.74 448.1,-435.74 443.9,-435.74"/>
</g>
<!-- src/main/report&#45;wrap.js&#45;&gt;src/report/index.js -->
<g id="edge25" class="edge">
<title>src/main/report&#45;wrap.js&#45;&gt;src/report/index.js</title>
<path fill="none" stroke="#000000" stroke-width="2" stroke-opacity="0.200000" d="M387.72,-243.14C463.75,-243.14 633,-243.14 633,-243.14 633,-243.14 633,-405.94 633,-405.94"/>
<polygon fill="#000000" fill-opacity="0.200000" stroke="#000000" stroke-width="2" stroke-opacity="0.200000" points="630.9,-405.94 633,-411.94 635.1,-405.94 630.9,-405.94"/>
</g>
<!-- src/main/rule&#45;set/normalize.js&#45;&gt;src/main/utl/normalize&#45;re&#45;properties.js -->
<g id="edge28" class="edge">
<title>src/main/rule&#45;set/normalize.js&#45;&gt;src/main/utl/normalize&#45;re&#45;properties.js</title>
<path fill="none" stroke="#000000" stroke-width="2" stroke-opacity="0.200000" d="M384.32,-189C448.41,-189 584,-189 584,-189 584,-189 584,-209.92 584,-209.92"/>
<polygon fill="#000000" fill-opacity="0.200000" stroke="#000000" stroke-width="2" stroke-opacity="0.200000" points="581.9,-209.92 584,-215.92 586.1,-209.92 581.9,-209.92"/>
</g>
<!-- src/main/rule&#45;set/validate.js&#45;&gt;src/main/options/validate.js -->
<g id="edge30" class="edge">
<title>src/main/rule&#45;set/validate.js&#45;&gt;src/main/options/validate.js</title>
<path fill="none" stroke="#000000" stroke-width="2" stroke-opacity="0.200000" d="M380.01,-160C380.01,-160 452.56,-160 452.56,-160"/>
<polygon fill="#000000" fill-opacity="0.200000" stroke="#000000" stroke-width="2" stroke-opacity="0.200000" points="452.56,-162.1 458.56,-160 452.56,-157.9 452.56,-162.1"/>
</g>
<!-- src/schema/configuration.schema.js -->
<g id="node27" class="node">
<title>src/schema/configuration.schema.js</title>
<g id="a_node27"><a xlink:href="src/schema/configuration.schema.js" xlink:title="configuration.schema.js">
<path fill="#ffffcc" stroke="black" d="M537,-850C537,-850 438,-850 438,-850 435,-850 432,-847 432,-844 432,-844 432,-838 432,-838 432,-835 435,-832 438,-832 438,-832 537,-832 537,-832 540,-832 543,-835 543,-838 543,-838 543,-844 543,-844 543,-847 540,-850 537,-850"/>
<text text-anchor="middle" x="487.5" y="-838.8" font-family="Helvetica,sans-Serif" font-size="9.00">configuration.schema.js</text>
</a>
</g>
</g>
<!-- src/main/rule&#45;set/validate.js&#45;&gt;src/schema/configuration.schema.js -->
<g id="edge29" class="edge">
<title>src/main/rule&#45;set/validate.js&#45;&gt;src/schema/configuration.schema.js</title>
<path fill="none" stroke="#000000" stroke-width="2" stroke-opacity="0.200000" d="M380.08,-164C387.77,-164 394,-164 394,-164 394,-164 394,-841 394,-841 394,-841 425.76,-841 425.76,-841"/>
<polygon fill="#000000" fill-opacity="0.200000" stroke="#000000" stroke-width="2" stroke-opacity="0.200000" points="425.76,-843.1 431.76,-841 425.76,-838.9 425.76,-843.1"/>
</g>
</g>
</svg>
