<?xml version="1.0" encoding="UTF-8" standalone="no"?>
<!DOCTYPE svg PUBLIC "-//W3C//DTD SVG 1.1//EN"
 "http://www.w3.org/Graphics/SVG/1.1/DTD/svg11.dtd">
<!-- Generated by graphviz version 2.44.0 (20200408.0750)
 -->
<!-- Title: dependency&#45;cruiser output Pages: 1 -->
<svg width="584pt" height="538pt"
 viewBox="0.00 0.00 584.00 538.00" xmlns="http://www.w3.org/2000/svg" xmlns:xlink="http://www.w3.org/1999/xlink">
<g id="graph0" class="graph" transform="scale(1 1) rotate(0) translate(4 534)">
<title>dependency&#45;cruiser output</title>
<polygon fill="white" stroke="transparent" points="-4,4 -4,-534 580,-534 580,4 -4,4"/>
<g id="clust1" class="cluster">
<title>cluster_src</title>
<path fill="#ffffff" stroke="black" stroke-width="2" d="M20,-8C20,-8 556,-8 556,-8 562,-8 568,-14 568,-20 568,-20 568,-510 568,-510 568,-516 562,-522 556,-522 556,-522 20,-522 20,-522 14,-522 8,-516 8,-510 8,-510 8,-20 8,-20 8,-14 14,-8 20,-8"/>
<text text-anchor="middle" x="288" y="-510.8" font-family="Helvetica,sans-Serif" font-weight="bold" font-size="9.00">src</text>
</g>
<g id="clust2" class="cluster">
<title>cluster_src/cli</title>
<path fill="#ffffff" stroke="black" stroke-width="2" d="M28,-46C28,-46 112,-46 112,-46 118,-46 124,-52 124,-58 124,-58 124,-206 124,-206 124,-212 118,-218 112,-218 112,-218 28,-218 28,-218 22,-218 16,-212 16,-206 16,-206 16,-58 16,-58 16,-52 22,-46 28,-46"/>
<text text-anchor="middle" x="70" y="-206.8" font-family="Helvetica,sans-Serif" font-weight="bold" font-size="9.00">cli</text>
</g>
<g id="clust3" class="cluster">
<title>cluster_src/cli/compile&#45;config</title>
<path fill="#ffffff" stroke="black" stroke-width="2" d="M42,-54C42,-54 98,-54 98,-54 104,-54 110,-60 110,-66 110,-66 110,-94 110,-94 110,-100 104,-106 98,-106 98,-106 42,-106 42,-106 36,-106 30,-100 30,-94 30,-94 30,-66 30,-66 30,-60 36,-54 42,-54"/>
<text text-anchor="middle" x="70" y="-94.8" font-family="Helvetica,sans-Serif" font-weight="bold" font-size="9.00">compile&#45;config</text>
</g>
<g id="clust4" class="cluster">
<title>cluster_src/extract</title>
<path fill="#ffffff" stroke="black" stroke-width="2" d="M366,-374C366,-374 428,-374 428,-374 434,-374 440,-380 440,-386 440,-386 440,-474 440,-474 440,-480 434,-486 428,-486 428,-486 366,-486 366,-486 360,-486 354,-480 354,-474 354,-474 354,-386 354,-386 354,-380 360,-374 366,-374"/>
<text text-anchor="middle" x="397" y="-474.8" font-family="Helvetica,sans-Serif" font-weight="bold" font-size="9.00">extract</text>
</g>
<g id="clust5" class="cluster">
<title>cluster_src/extract/transpile</title>
<path fill="#ffffff" stroke="black" stroke-width="2" d="M374,-382C374,-382 420,-382 420,-382 426,-382 432,-388 432,-394 432,-394 432,-422 432,-422 432,-428 426,-434 420,-434 420,-434 374,-434 374,-434 368,-434 362,-428 362,-422 362,-422 362,-394 362,-394 362,-388 368,-382 374,-382"/>
<text text-anchor="middle" x="397" y="-422.8" font-family="Helvetica,sans-Serif" font-weight="bold" font-size="9.00">transpile</text>
</g>
<g id="clust6" class="cluster">
<title>cluster_src/main</title>
<path fill="#ffffff" stroke="black" stroke-width="2" d="M146,-16C146,-16 548,-16 548,-16 554,-16 560,-22 560,-28 560,-28 560,-264 560,-264 560,-270 554,-276 548,-276 548,-276 146,-276 146,-276 140,-276 134,-270 134,-264 134,-264 134,-28 134,-28 134,-22 140,-16 146,-16"/>
<text text-anchor="middle" x="347" y="-264.8" font-family="Helvetica,sans-Serif" font-weight="bold" font-size="9.00">main</text>
</g>
<g id="clust7" class="cluster">
<title>cluster_src/main/files&#45;and&#45;dirs</title>
<path fill="#ffffff" stroke="black" stroke-width="2" d="M232,-198C232,-198 290,-198 290,-198 296,-198 302,-204 302,-210 302,-210 302,-238 302,-238 302,-244 296,-250 290,-250 290,-250 232,-250 232,-250 226,-250 220,-244 220,-238 220,-238 220,-210 220,-210 220,-204 226,-198 232,-198"/>
<text text-anchor="middle" x="261" y="-238.8" font-family="Helvetica,sans-Serif" font-weight="bold" font-size="9.00">files&#45;and&#45;dirs</text>
</g>
<g id="clust8" class="cluster">
<title>cluster_src/main/options</title>
<path fill="#ffffff" stroke="black" stroke-width="2" d="M368,-51C368,-51 540,-51 540,-51 546,-51 552,-57 552,-63 552,-63 552,-121 552,-121 552,-127 546,-133 540,-133 540,-133 368,-133 368,-133 362,-133 356,-127 356,-121 356,-121 356,-63 356,-63 356,-57 362,-51 368,-51"/>
<text text-anchor="middle" x="454" y="-121.8" font-family="Helvetica,sans-Serif" font-weight="bold" font-size="9.00">options</text>
</g>
<g id="clust9" class="cluster">
<title>cluster_src/main/resolve&#45;options</title>
<path fill="#ffffff" stroke="black" stroke-width="2" d="M232,-48C232,-48 291,-48 291,-48 297,-48 303,-54 303,-60 303,-60 303,-88 303,-88 303,-94 297,-100 291,-100 291,-100 232,-100 232,-100 226,-100 220,-94 220,-88 220,-88 220,-60 220,-60 220,-54 226,-48 232,-48"/>
<text text-anchor="middle" x="261.5" y="-88.8" font-family="Helvetica,sans-Serif" font-weight="bold" font-size="9.00">resolve&#45;options</text>
</g>
<g id="clust10" class="cluster">
<title>cluster_src/main/rule&#45;set</title>
<path fill="#ffffff" stroke="black" stroke-width="2" d="M232,-108C232,-108 290,-108 290,-108 296,-108 302,-114 302,-120 302,-120 302,-178 302,-178 302,-184 296,-190 290,-190 290,-190 232,-190 232,-190 226,-190 220,-184 220,-178 220,-178 220,-120 220,-120 220,-114 226,-108 232,-108"/>
<text text-anchor="middle" x="261" y="-178.8" font-family="Helvetica,sans-Serif" font-weight="bold" font-size="9.00">rule&#45;set</text>
</g>
<g id="clust11" class="cluster">
<title>cluster_src/report</title>
<path fill="#ffffff" stroke="black" stroke-width="2" d="M487,-364C487,-364 533,-364 533,-364 539,-364 545,-370 545,-376 545,-376 545,-404 545,-404 545,-410 539,-416 533,-416 533,-416 487,-416 487,-416 481,-416 475,-410 475,-404 475,-404 475,-376 475,-376 475,-370 481,-364 487,-364"/>
<text text-anchor="middle" x="510" y="-404.8" font-family="Helvetica,sans-Serif" font-weight="bold" font-size="9.00">report</text>
</g>
<g id="clust12" class="cluster">
<title>cluster_src/schema</title>
<path fill="#ffffff" stroke="black" stroke-width="2" d="M339,-284C339,-284 455,-284 455,-284 461,-284 467,-290 467,-296 467,-296 467,-354 467,-354 467,-360 461,-366 455,-366 455,-366 339,-366 339,-366 333,-366 327,-360 327,-354 327,-354 327,-296 327,-296 327,-290 333,-284 339,-284"/>
<text text-anchor="middle" x="397" y="-354.8" font-family="Helvetica,sans-Serif" font-weight="bold" font-size="9.00">schema</text>
</g>
<!-- src/cli/compile&#45;config/index.js -->
<g id="node1" class="node">
<title>src/cli/compile&#45;config/index.js</title>
<g id="a_node1"><a xlink:href="src/cli/compile-config/index.js" xlink:title="index.js">
<path fill="#ffffcc" stroke="black" d="M91,-80C91,-80 49,-80 49,-80 46,-80 43,-77 43,-74 43,-74 43,-68 43,-68 43,-65 46,-62 49,-62 49,-62 91,-62 91,-62 94,-62 97,-65 97,-68 97,-68 97,-74 97,-74 97,-77 94,-80 91,-80"/>
<text text-anchor="middle" x="70" y="-68.8" font-family="Helvetica,sans-Serif" font-size="9.00">index.js</text>
</a>
</g>
</g>
<!-- src/main/resolve&#45;options/normalize.js -->
<g id="node2" class="node">
<title>src/main/resolve&#45;options/normalize.js</title>
<g id="a_node2"><a xlink:href="src/main/resolve-options/normalize.js" xlink:title="normalize.js">
<path fill="#ffffcc" stroke="black" d="M288,-74C288,-74 234,-74 234,-74 231,-74 228,-71 228,-68 228,-68 228,-62 228,-62 228,-59 231,-56 234,-56 234,-56 288,-56 288,-56 291,-56 294,-59 294,-62 294,-62 294,-68 294,-68 294,-71 291,-74 288,-74"/>
<text text-anchor="middle" x="261" y="-62.8" font-family="Helvetica,sans-Serif" font-size="9.00">normalize.js</text>
</a>
</g>
</g>
<!-- src/cli/compile&#45;config/index.js&#45;&gt;src/main/resolve&#45;options/normalize.js -->
<g id="edge1" class="edge">
<title>src/cli/compile&#45;config/index.js&#45;&gt;src/main/resolve&#45;options/normalize.js</title>
<path fill="none" stroke="#000000" stroke-width="2" stroke-opacity="0.200000" d="M97.37,-66C97.37,-66 221.91,-66 221.91,-66"/>
<polygon fill="#000000" fill-opacity="0.200000" stroke="#000000" stroke-width="2" stroke-opacity="0.200000" points="221.91,-68.1 227.91,-66 221.91,-63.9 221.91,-68.1"/>
</g>
<!-- src/extract/transpile/meta.js -->
<g id="node8" class="node">
<title>src/extract/transpile/meta.js</title>
<g id="a_node8"><a xlink:href="src/extract/transpile/meta.js" xlink:title="meta.js">
<path fill="#ffffcc" stroke="black" d="M418,-408C418,-408 376,-408 376,-408 373,-408 370,-405 370,-402 370,-402 370,-396 370,-396 370,-393 373,-390 376,-390 376,-390 418,-390 418,-390 421,-390 424,-393 424,-396 424,-396 424,-402 424,-402 424,-405 421,-408 418,-408"/>
<text text-anchor="middle" x="397" y="-396.8" font-family="Helvetica,sans-Serif" font-size="9.00">meta.js</text>
</a>
</g>
</g>
<!-- src/main/resolve&#45;options/normalize.js&#45;&gt;src/extract/transpile/meta.js -->
<g id="edge17" class="edge">
<title>src/main/resolve&#45;options/normalize.js&#45;&gt;src/extract/transpile/meta.js</title>
<path fill="none" stroke="#000000" stroke-width="2" stroke-opacity="0.200000" d="M294.28,-66.5C305.39,-66.5 315,-66.5 315,-66.5 315,-66.5 315,-396 315,-396 315,-396 363.7,-396 363.7,-396"/>
<polygon fill="#000000" fill-opacity="0.200000" stroke="#000000" stroke-width="2" stroke-opacity="0.200000" points="363.7,-398.1 369.7,-396 363.7,-393.9 363.7,-398.1"/>
</g>
<!-- src/cli/format&#45;meta&#45;info.js -->
<g id="node3" class="node">
<title>src/cli/format&#45;meta&#45;info.js</title>
<g id="a_node3"><a xlink:href="src/cli/format-meta-info.js" xlink:title="format&#45;meta&#45;info.js">
<path fill="#ffffcc" stroke="black" d="M110,-132C110,-132 30,-132 30,-132 27,-132 24,-129 24,-126 24,-126 24,-120 24,-120 24,-117 27,-114 30,-114 30,-114 110,-114 110,-114 113,-114 116,-117 116,-120 116,-120 116,-126 116,-126 116,-129 113,-132 110,-132"/>
<text text-anchor="middle" x="70" y="-120.8" font-family="Helvetica,sans-Serif" font-size="9.00">format&#45;meta&#45;info.js</text>
</a>
</g>
</g>
<!-- src/main/index.js -->
<g id="node4" class="node">
<title>src/main/index.js</title>
<g id="a_node4"><a xlink:href="src/main/index.js" xlink:title="index.js">
<path fill="#ffffcc" stroke="black" d="M190,-164C190,-164 148,-164 148,-164 145,-164 142,-161 142,-158 142,-158 142,-152 142,-152 142,-149 145,-146 148,-146 148,-146 190,-146 190,-146 193,-146 196,-149 196,-152 196,-152 196,-158 196,-158 196,-161 193,-164 190,-164"/>
<text text-anchor="middle" x="169" y="-152.8" font-family="Helvetica,sans-Serif" font-size="9.00">index.js</text>
</a>
</g>
</g>
<!-- src/cli/format&#45;meta&#45;info.js&#45;&gt;src/main/index.js -->
<g id="edge2" class="edge">
<title>src/cli/format&#45;meta&#45;info.js&#45;&gt;src/main/index.js</title>
<path fill="none" stroke="#000000" stroke-width="2" stroke-opacity="0.200000" d="M107,-132.28C107,-140.54 107,-151.33 107,-151.33 107,-151.33 135.99,-151.33 135.99,-151.33"/>
<polygon fill="#000000" fill-opacity="0.200000" stroke="#000000" stroke-width="2" stroke-opacity="0.200000" points="135.99,-153.43 141.99,-151.33 135.99,-149.23 135.99,-153.43"/>
</g>
<!-- src/main/index.js&#45;&gt;src/main/resolve&#45;options/normalize.js -->
<g id="edge12" class="edge">
<title>src/main/index.js&#45;&gt;src/main/resolve&#45;options/normalize.js</title>
<path fill="none" stroke="#000000" stroke-width="2" stroke-opacity="0.200000" d="M153,-145.9C153,-123.98 153,-70 153,-70 153,-70 221.72,-70 221.72,-70"/>
<polygon fill="#000000" fill-opacity="0.200000" stroke="#000000" stroke-width="2" stroke-opacity="0.200000" points="221.72,-72.1 227.72,-70 221.72,-67.9 221.72,-72.1"/>
</g>
<!-- src/extract/index.js -->
<g id="node7" class="node">
<title>src/extract/index.js</title>
<g id="a_node7"><a xlink:href="src/extract/index.js" xlink:title="index.js">
<path fill="#ffffcc" stroke="black" d="M418,-460C418,-460 376,-460 376,-460 373,-460 370,-457 370,-454 370,-454 370,-448 370,-448 370,-445 373,-442 376,-442 376,-442 418,-442 418,-442 421,-442 424,-445 424,-448 424,-448 424,-454 424,-454 424,-457 421,-460 418,-460"/>
<text text-anchor="middle" x="397" y="-448.8" font-family="Helvetica,sans-Serif" font-size="9.00">index.js</text>
</a>
</g>
</g>
<!-- src/main/index.js&#45;&gt;src/extract/index.js -->
<g id="edge5" class="edge">
<title>src/main/index.js&#45;&gt;src/extract/index.js</title>
<path fill="none" stroke="#000000" stroke-width="2" stroke-opacity="0.200000" d="M158,-164.18C158,-214.14 158,-451 158,-451 158,-451 363.58,-451 363.58,-451"/>
<polygon fill="#000000" fill-opacity="0.200000" stroke="#000000" stroke-width="2" stroke-opacity="0.200000" points="363.58,-453.1 369.58,-451 363.58,-448.9 363.58,-453.1"/>
</g>
<!-- src/main/index.js&#45;&gt;src/extract/transpile/meta.js -->
<g id="edge6" class="edge">
<title>src/main/index.js&#45;&gt;src/extract/transpile/meta.js</title>
<path fill="none" stroke="#000000" stroke-width="2" stroke-opacity="0.200000" d="M166,-164.08C166,-208.65 166,-402 166,-402 166,-402 363.59,-402 363.59,-402"/>
<polygon fill="#000000" fill-opacity="0.200000" stroke="#000000" stroke-width="2" stroke-opacity="0.200000" points="363.59,-404.1 369.59,-402 363.59,-399.9 363.59,-404.1"/>
</g>
<!-- src/main/files&#45;and&#45;dirs/normalize.js -->
<g id="node9" class="node">
<title>src/main/files&#45;and&#45;dirs/normalize.js</title>
<g id="a_node9"><a xlink:href="src/main/files-and-dirs/normalize.js" xlink:title="normalize.js">
<path fill="#ffffcc" stroke="black" d="M288,-224C288,-224 234,-224 234,-224 231,-224 228,-221 228,-218 228,-218 228,-212 228,-212 228,-209 231,-206 234,-206 234,-206 288,-206 288,-206 291,-206 294,-209 294,-212 294,-212 294,-218 294,-218 294,-221 291,-224 288,-224"/>
<text text-anchor="middle" x="261" y="-212.8" font-family="Helvetica,sans-Serif" font-size="9.00">normalize.js</text>
</a>
</g>
</g>
<!-- src/main/index.js&#45;&gt;src/main/files&#45;and&#45;dirs/normalize.js -->
<g id="edge9" class="edge">
<title>src/main/index.js&#45;&gt;src/main/files&#45;and&#45;dirs/normalize.js</title>
<path fill="none" stroke="#000000" stroke-width="2" stroke-opacity="0.200000" d="M189,-164.11C189,-180.9 189,-215 189,-215 189,-215 221.95,-215 221.95,-215"/>
<polygon fill="#000000" fill-opacity="0.200000" stroke="#000000" stroke-width="2" stroke-opacity="0.200000" points="221.95,-217.1 227.95,-215 221.95,-212.9 221.95,-217.1"/>
</g>
<!-- src/report/index.js -->
<g id="node10" class="node">
<title>src/report/index.js</title>
<g id="a_node10"><a xlink:href="src/report/index.js" xlink:title="index.js">
<path fill="#ffffcc" stroke="black" d="M531,-390C531,-390 489,-390 489,-390 486,-390 483,-387 483,-384 483,-384 483,-378 483,-378 483,-375 486,-372 489,-372 489,-372 531,-372 531,-372 534,-372 537,-375 537,-378 537,-378 537,-384 537,-384 537,-387 534,-390 531,-390"/>
<text text-anchor="middle" x="510" y="-378.8" font-family="Helvetica,sans-Serif" font-size="9.00">index.js</text>
</a>
</g>
</g>
<!-- src/main/index.js&#45;&gt;src/report/index.js -->
<g id="edge7" class="edge">
<title>src/main/index.js&#45;&gt;src/report/index.js</title>
<path fill="none" stroke="#000000" stroke-width="2" stroke-opacity="0.200000" d="M173,-164.14C173,-206.42 173,-381 173,-381 173,-381 476.99,-381 476.99,-381"/>
<polygon fill="#000000" fill-opacity="0.200000" stroke="#000000" stroke-width="2" stroke-opacity="0.200000" points="476.99,-383.1 482.99,-381 476.99,-378.9 476.99,-383.1"/>
</g>
<!-- src/schema/cruise&#45;result.schema.json -->
<g id="node11" class="node">
<title>src/schema/cruise&#45;result.schema.json</title>
<g id="a_node11"><a xlink:href="src/schema/cruise-result.schema.json" xlink:title="cruise&#45;result.schema.json">
<path fill="#ffee44" stroke="black" d="M451.5,-340C451.5,-340 342.5,-340 342.5,-340 339.5,-340 336.5,-337 336.5,-334 336.5,-334 336.5,-328 336.5,-328 336.5,-325 339.5,-322 342.5,-322 342.5,-322 451.5,-322 451.5,-322 454.5,-322 457.5,-325 457.5,-328 457.5,-328 457.5,-334 457.5,-334 457.5,-337 454.5,-340 451.5,-340"/>
<text text-anchor="middle" x="397" y="-328.8" font-family="Helvetica,sans-Serif" font-size="9.00">cruise&#45;result.schema.json</text>
</a>
</g>
</g>
<!-- src/main/index.js&#45;&gt;src/schema/cruise&#45;result.schema.json -->
<g id="edge8" class="edge">
<title>src/main/index.js&#45;&gt;src/schema/cruise&#45;result.schema.json</title>
<path fill="none" stroke="#000000" stroke-width="2" stroke-opacity="0.200000" d="M181,-164.46C181,-201.02 181,-331 181,-331 181,-331 330.26,-331 330.26,-331"/>
<polygon fill="#000000" fill-opacity="0.200000" stroke="#000000" stroke-width="2" stroke-opacity="0.200000" points="330.26,-333.1 336.26,-331 330.26,-328.9 330.26,-333.1"/>
</g>
<!-- src/main/options/normalize.js -->
<g id="node12" class="node">
<title>src/main/options/normalize.js</title>
<g id="a_node12"><a xlink:href="src/main/options/normalize.js" xlink:title="normalize.js">
<path fill="#ffffcc" stroke="black" d="M424,-77C424,-77 370,-77 370,-77 367,-77 364,-74 364,-71 364,-71 364,-65 364,-65 364,-62 367,-59 370,-59 370,-59 424,-59 424,-59 427,-59 430,-62 430,-65 430,-65 430,-71 430,-71 430,-74 427,-77 424,-77"/>
<text text-anchor="middle" x="397" y="-65.8" font-family="Helvetica,sans-Serif" font-size="9.00">normalize.js</text>
</a>
</g>
</g>
<!-- src/main/index.js&#45;&gt;src/main/options/normalize.js -->
<g id="edge10" class="edge">
<title>src/main/index.js&#45;&gt;src/main/options/normalize.js</title>
<path fill="none" stroke="#000000" stroke-width="2" stroke-opacity="0.200000" d="M164,-145.78C164,-126.67 164,-84.5 164,-84.5 164,-84.5 397,-84.5 397,-84.5 397,-84.5 397,-83.02 397,-83.02"/>
<polygon fill="#000000" fill-opacity="0.200000" stroke="#000000" stroke-width="2" stroke-opacity="0.200000" points="399.1,-83.02 397,-77.02 394.9,-83.02 399.1,-83.02"/>
</g>
<!-- src/main/options/validate.js -->
<g id="node13" class="node">
<title>src/main/options/validate.js</title>
<g id="a_node13"><a xlink:href="src/main/options/validate.js" xlink:title="validate.js">
<path fill="#ffffcc" stroke="black" d="M420,-107C420,-107 374,-107 374,-107 371,-107 368,-104 368,-101 368,-101 368,-95 368,-95 368,-92 371,-89 374,-89 374,-89 420,-89 420,-89 423,-89 426,-92 426,-95 426,-95 426,-101 426,-101 426,-104 423,-107 420,-107"/>
<text text-anchor="middle" x="397" y="-95.8" font-family="Helvetica,sans-Serif" font-size="9.00">validate.js</text>
</a>
</g>
</g>
<!-- src/main/index.js&#45;&gt;src/main/options/validate.js -->
<g id="edge11" class="edge">
<title>src/main/index.js&#45;&gt;src/main/options/validate.js</title>
<path fill="none" stroke="#000000" stroke-width="2" stroke-opacity="0.200000" d="M175,-145.84C175,-129.73 175,-98 175,-98 175,-98 361.98,-98 361.98,-98"/>
<polygon fill="#000000" fill-opacity="0.200000" stroke="#000000" stroke-width="2" stroke-opacity="0.200000" points="361.98,-100.1 367.98,-98 361.98,-95.9 361.98,-100.1"/>
</g>
<!-- src/main/rule&#45;set/normalize.js -->
<g id="node14" class="node">
<title>src/main/rule&#45;set/normalize.js</title>
<g id="a_node14"><a xlink:href="src/main/rule-set/normalize.js" xlink:title="normalize.js">
<path fill="#ffffcc" stroke="black" d="M288,-164C288,-164 234,-164 234,-164 231,-164 228,-161 228,-158 228,-158 228,-152 228,-152 228,-149 231,-146 234,-146 234,-146 288,-146 288,-146 291,-146 294,-149 294,-152 294,-152 294,-158 294,-158 294,-161 291,-164 288,-164"/>
<text text-anchor="middle" x="261" y="-152.8" font-family="Helvetica,sans-Serif" font-size="9.00">normalize.js</text>
</a>
</g>
</g>
<!-- src/main/index.js&#45;&gt;src/main/rule&#45;set/normalize.js -->
<g id="edge13" class="edge">
<title>src/main/index.js&#45;&gt;src/main/rule&#45;set/normalize.js</title>
<path fill="none" stroke="#000000" stroke-width="2" stroke-opacity="0.200000" d="M196.11,-155C196.11,-155 221.9,-155 221.9,-155"/>
<polygon fill="#000000" fill-opacity="0.200000" stroke="#000000" stroke-width="2" stroke-opacity="0.200000" points="221.9,-157.1 227.9,-155 221.9,-152.9 221.9,-157.1"/>
</g>
<!-- src/main/rule&#45;set/validate.js -->
<g id="node15" class="node">
<title>src/main/rule&#45;set/validate.js</title>
<g id="a_node15"><a xlink:href="src/main/rule-set/validate.js" xlink:title="validate.js">
<path fill="#ffffcc" stroke="black" d="M284,-134C284,-134 238,-134 238,-134 235,-134 232,-131 232,-128 232,-128 232,-122 232,-122 232,-119 235,-116 238,-116 238,-116 284,-116 284,-116 287,-116 290,-119 290,-122 290,-122 290,-128 290,-128 290,-131 287,-134 284,-134"/>
<text text-anchor="middle" x="261" y="-122.8" font-family="Helvetica,sans-Serif" font-size="9.00">validate.js</text>
</a>
</g>
</g>
<!-- src/main/index.js&#45;&gt;src/main/rule&#45;set/validate.js -->
<g id="edge14" class="edge">
<title>src/main/index.js&#45;&gt;src/main/rule&#45;set/validate.js</title>
<path fill="none" stroke="#000000" stroke-width="2" stroke-opacity="0.200000" d="M186,-145.87C186,-136.72 186,-124 186,-124 186,-124 225.79,-124 225.79,-124"/>
<polygon fill="#000000" fill-opacity="0.200000" stroke="#000000" stroke-width="2" stroke-opacity="0.200000" points="225.79,-126.1 231.79,-124 225.79,-121.9 225.79,-126.1"/>
</g>
<!-- src/cli/format.js -->
<g id="node5" class="node">
<title>src/cli/format.js</title>
<g id="a_node5"><a xlink:href="src/cli/format.js" xlink:title="format.js">
<path fill="#ffffcc" stroke="black" d="M91,-192C91,-192 49,-192 49,-192 46,-192 43,-189 43,-186 43,-186 43,-180 43,-180 43,-177 46,-174 49,-174 49,-174 91,-174 91,-174 94,-174 97,-177 97,-180 97,-180 97,-186 97,-186 97,-189 94,-192 91,-192"/>
<text text-anchor="middle" x="70" y="-180.8" font-family="Helvetica,sans-Serif" font-size="9.00">format.js</text>
</a>
</g>
</g>
<!-- src/cli/format.js&#45;&gt;src/main/index.js -->
<g id="edge3" class="edge">
<title>src/cli/format.js&#45;&gt;src/main/index.js</title>
<path fill="none" stroke="#000000" stroke-width="2" stroke-opacity="0.200000" d="M97.08,-183C120.29,-183 150,-183 150,-183 150,-183 150,-170.17 150,-170.17"/>
<polygon fill="#000000" fill-opacity="0.200000" stroke="#000000" stroke-width="2" stroke-opacity="0.200000" points="152.1,-170.17 150,-164.17 147.9,-170.17 152.1,-170.17"/>
</g>
<!-- src/cli/index.js -->
<g id="node6" class="node">
<title>src/cli/index.js</title>
<g id="a_node6"><a xlink:href="src/cli/index.js" xlink:title="index.js">
<path fill="#ffffcc" stroke="black" d="M91,-162C91,-162 49,-162 49,-162 46,-162 43,-159 43,-156 43,-156 43,-150 43,-150 43,-147 46,-144 49,-144 49,-144 91,-144 91,-144 94,-144 97,-147 97,-150 97,-150 97,-156 97,-156 97,-159 94,-162 91,-162"/>
<text text-anchor="middle" x="70" y="-150.8" font-family="Helvetica,sans-Serif" font-size="9.00">index.js</text>
</a>
</g>
</g>
<!-- src/cli/index.js&#45;&gt;src/main/index.js -->
<g id="edge4" class="edge">
<title>src/cli/index.js&#45;&gt;src/main/index.js</title>
<path fill="none" stroke="#000000" stroke-width="2" stroke-opacity="0.200000" d="M97.05,-156.67C97.05,-156.67 135.98,-156.67 135.98,-156.67"/>
<polygon fill="#000000" fill-opacity="0.200000" stroke="#000000" stroke-width="2" stroke-opacity="0.200000" points="135.98,-158.77 141.98,-156.67 135.98,-154.57 135.98,-158.77"/>
</g>
<!-- src/main/options/defaults.json -->
<g id="node16" class="node">
<title>src/main/options/defaults.json</title>
<g id="a_node16"><a xlink:href="src/main/options/defaults.json" xlink:title="defaults.json">
<path fill="#ffee44" stroke="black" d="M538,-77C538,-77 482,-77 482,-77 479,-77 476,-74 476,-71 476,-71 476,-65 476,-65 476,-62 479,-59 482,-59 482,-59 538,-59 538,-59 541,-59 544,-62 544,-65 544,-65 544,-71 544,-71 544,-74 541,-77 538,-77"/>
<text text-anchor="middle" x="510" y="-65.8" font-family="Helvetica,sans-Serif" font-size="9.00">defaults.json</text>
</a>
</g>
</g>
<!-- src/main/options/normalize.js&#45;&gt;src/main/options/defaults.json -->
<g id="edge15" class="edge">
<title>src/main/options/normalize.js&#45;&gt;src/main/options/defaults.json</title>
<path fill="none" stroke="#000000" stroke-width="2" stroke-opacity="0.200000" d="M430.29,-68C430.29,-68 469.77,-68 469.77,-68"/>
<polygon fill="#000000" fill-opacity="0.200000" stroke="#000000" stroke-width="2" stroke-opacity="0.200000" points="469.77,-70.1 475.77,-68 469.77,-65.9 469.77,-70.1"/>
</g>
<!-- src/main/options/validate.js&#45;&gt;src/report/index.js -->
<g id="edge16" class="edge">
<title>src/main/options/validate.js&#45;&gt;src/report/index.js</title>
<path fill="none" stroke="#000000" stroke-width="2" stroke-opacity="0.200000" d="M426.1,-98C459.58,-98 510,-98 510,-98 510,-98 510,-365.9 510,-365.9"/>
<polygon fill="#000000" fill-opacity="0.200000" stroke="#000000" stroke-width="2" stroke-opacity="0.200000" points="507.9,-365.9 510,-371.9 512.1,-365.9 507.9,-365.9"/>
</g>
<!-- src/main/rule&#45;set/validate.js&#45;&gt;src/main/options/validate.js -->
<g id="edge19" class="edge">
<title>src/main/rule&#45;set/validate.js&#45;&gt;src/main/options/validate.js</title>
<path fill="none" stroke="#000000" stroke-width="2" stroke-opacity="0.200000" d="M290.18,-122C330.14,-122 397,-122 397,-122 397,-122 397,-113.21 397,-113.21"/>
<polygon fill="#000000" fill-opacity="0.200000" stroke="#000000" stroke-width="2" stroke-opacity="0.200000" points="399.1,-113.21 397,-107.21 394.9,-113.21 399.1,-113.21"/>
</g>
<!-- src/schema/configuration.schema.json -->
<g id="node17" class="node">
<title>src/schema/configuration.schema.json</title>
<g id="a_node17"><a xlink:href="src/schema/configuration.schema.json" xlink:title="configuration.schema.json">
<path fill="#ffee44" stroke="black" d="M453,-310C453,-310 341,-310 341,-310 338,-310 335,-307 335,-304 335,-304 335,-298 335,-298 335,-295 338,-292 341,-292 341,-292 453,-292 453,-292 456,-292 459,-295 459,-298 459,-298 459,-304 459,-304 459,-307 456,-310 453,-310"/>
<text text-anchor="middle" x="397" y="-298.8" font-family="Helvetica,sans-Serif" font-size="9.00">configuration.schema.json</text>
</a>
</g>
</g>
<!-- src/main/rule&#45;set/validate.js&#45;&gt;src/schema/configuration.schema.json -->
<g id="edge18" class="edge">
<title>src/main/rule&#45;set/validate.js&#45;&gt;src/schema/configuration.schema.json</title>
<path fill="none" stroke="#000000" stroke-width="2" stroke-opacity="0.200000" d="M290.14,-128C316.1,-128 350,-128 350,-128 350,-128 350,-285.7 350,-285.7"/>
<polygon fill="#000000" fill-opacity="0.200000" stroke="#000000" stroke-width="2" stroke-opacity="0.200000" points="347.9,-285.7 350,-291.7 352.1,-285.7 347.9,-285.7"/>
</g>
</g>
</svg>
