<svg width="533pt" height="504" viewBox="0 0 533 378" xmlns="http://www.w3.org/2000/svg" xmlns:xlink="http://www.w3.org/1999/xlink"><g class="graph" transform="translate(4 374)"><path fill="#fff" stroke="transparent" d="M-4 4v-378h533V4H-4z"/><g class="cluster"><path fill="#fff" stroke="#000" stroke-width="2" d="M20-8h485c6 0 12-6 12-12v-330c0-6-6-12-12-12H20c-6 0-12 6-12 12v330c0 6 6 12 12 12"/><text text-anchor="middle" x="262.5" y="-350.8" font-family="Helvetica,sans-Serif" font-weight="bold" font-size="9">src</text></g><g class="cluster"><path fill="#fff" stroke="#000" stroke-width="2" d="M28-16h469c6 0 12-6 12-12v-296c0-6-6-12-12-12H28c-6 0-12 6-12 12v296c0 6 6 12 12 12"/><text text-anchor="middle" x="262.5" y="-324.8" font-family="Helvetica,sans-Serif" font-weight="bold" font-size="9">report</text></g><g class="cluster"><path fill="#fff" stroke="#000" stroke-width="2" d="M115.5-24H410c6 0 12-6 12-12v-102c0-6-6-12-12-12H115.5c-6 0-12 6-12 12v102c0 6 6 12 12 12"/><text text-anchor="middle" x="262.75" y="-138.8" font-family="Helvetica,sans-Serif" font-weight="bold" font-size="9">dot</text></g><g class="cluster"><path fill="#fff" stroke="#000" stroke-width="2" d="M115.5-158h165c6 0 12-6 12-12v-28c0-6-6-12-12-12h-165c-6 0-12 6-12 12v28c0 6 6 12 12 12"/><text text-anchor="middle" x="198" y="-198.8" font-family="Helvetica,sans-Serif" font-weight="bold" font-size="9">error-html</text></g><g class="cluster"><path fill="#fff" stroke="#000" stroke-width="2" d="M442-201h47c6 0 12-6 12-12v-28c0-6-6-12-12-12h-47c-6 0-12 6-12 12v28c0 6 6 12 12 12"/><text text-anchor="middle" x="465.5" y="-241.8" font-family="Helvetica,sans-Serif" font-weight="bold" font-size="9">utl</text></g><g class="node"><a xlink:href="https://github.com/sverweij/dependency-cruiser/blob/develop/src/report/dot/index.js" xlink:title="index.js"><path fill="#fcf" stroke="#000" d="M165.5-94h-48c-3 0-6 3-6 6v6c0 3 3 6 6 6h48c3 0 6-3 6-6v-6c0-3-3-6-6-6"/><text x="119.5" y="-83.8" font-family="Helvetica,sans-Serif" font-size="9">index.js </text><text x="153.5" y="-83.8" font-family="Helvetica,sans-Serif" font-size="8" fill="gray">86</text></a></g><g class="node"><a xlink:href="https://github.com/sverweij/dependency-cruiser/blob/develop/src/report/dot/module-utl.js" xlink:title="module-utl.js"><path fill="#fcf" stroke="#000" d="M408-94h-69c-3 0-6 3-6 6v6c0 3 3 6 6 6h69c3 0 6-3 6-6v-6c0-3-3-6-6-6"/><text x="341" y="-83.8" font-family="Helvetica,sans-Serif" font-size="9">module-utl.js </text><text x="396" y="-83.8" font-family="Helvetica,sans-Serif" font-size="8" fill="gray">33</text></a></g><g class="edge"><path fill="none" stroke="#f0f" stroke-width="2" stroke-opacity=".467" d="M132-94.24V-100h228v.58"/><path fill="#f0f" fill-opacity=".467" stroke="#f0f" stroke-width="2" stroke-opacity=".467" d="m362.1-100.24-2.1 6-2.1-6h4.2z"/></g><g class="node"><a xlink:href="https://github.com/sverweij/dependency-cruiser/blob/develop/src/report/dot/prepare-custom-level.js" xlink:title="prepare-custom-level.js"><path fill="#fcf" stroke="#000" d="M314-94H201c-3 0-6 3-6 6v6c0 3 3 6 6 6h113c3 0 6-3 6-6v-6c0-3-3-6-6-6"/><text x="203" y="-83.8" font-family="Helvetica,sans-Serif" font-size="9">prepare-custom-level.js </text><text x="302" y="-83.8" font-family="Helvetica,sans-Serif" font-size="8" fill="gray">50</text></a></g><g class="edge"><path fill="none" stroke="#f0f" stroke-width="2" stroke-opacity=".467" d="M171.67-85h16.94"/><path fill="#f0f" fill-opacity=".467" stroke="#f0f" stroke-width="2" stroke-opacity=".467" d="m188.61-87.1 6 2.1-6 2.1v-4.2z"/></g><g class="node"><a xlink:href="https://github.com/sverweij/dependency-cruiser/blob/develop/src/report/dot/prepare-flat-level.js" xlink:title="prepare-flat-level.js"><path fill="#fcf" stroke="#000" d="M305.5-124h-96c-3 0-6 3-6 6v6c0 3 3 6 6 6h96c3 0 6-3 6-6v-6c0-3-3-6-6-6"/><text x="211.5" y="-113.8" font-family="Helvetica,sans-Serif" font-size="9">prepare-flat-level.js </text><text x="293.5" y="-113.8" font-family="Helvetica,sans-Serif" font-size="8" fill="gray">50</text></a></g><g class="edge"><path fill="none" stroke="#f0f" stroke-width="2" stroke-opacity=".467" d="M152-94.16V-115h45.2"/><path fill="#f0f" fill-opacity=".467" stroke="#f0f" stroke-width="2" stroke-opacity=".467" d="m197.2-117.1 6 2.1-6 2.1v-4.2z"/></g><g class="node"><a xlink:href="https://github.com/sverweij/dependency-cruiser/blob/develop/src/report/dot/prepare-folder-level.js" xlink:title="prepare-folder-level.js"><path fill="#fcf" stroke="#000" d="M311-50H204c-3 0-6 3-6 6v6c0 3 3 6 6 6h107c3 0 6-3 6-6v-6c0-3-3-6-6-6"/><text x="206" y="-39.8" font-family="Helvetica,sans-Serif" font-size="9">prepare-folder-level.js </text><text x="299" y="-39.8" font-family="Helvetica,sans-Serif" font-size="8" fill="gray">50</text></a></g><g class="edge"><path fill="none" stroke="#f0f" stroke-width="2" stroke-opacity=".467" d="M142-75.67V-41h49.72"/><path fill="#f0f" fill-opacity=".467" stroke="#f0f" stroke-width="2" stroke-opacity=".467" d="m191.72-43.1 6 2.1-6 2.1v-4.2z"/></g><g class="node"><a xlink:href="https://github.com/sverweij/dependency-cruiser/blob/develop/src/report/utl/index.js" xlink:title="index.js"><path fill="#fcf" stroke="#000" d="M487-227h-43c-3 0-6 3-6 6v6c0 3 3 6 6 6h43c3 0 6-3 6-6v-6c0-3-3-6-6-6"/><text x="446" y="-216.8" font-family="Helvetica,sans-Serif" font-size="9">index.js </text><text x="480" y="-216.8" font-family="Helvetica,sans-Serif" font-size="8" fill="gray">0</text></a></g><g class="edge"><path fill="none" stroke="#f0f" stroke-width="2" stroke-opacity=".467" d="M414.07-85H466v-117.86"/><path fill="#f0f" fill-opacity=".467" stroke="#f0f" stroke-width="2" stroke-opacity=".467" d="m463.9-202.86 2.1-6 2.1 6h-4.2z"/></g><g class="edge"><path fill="none" stroke="#f0f" stroke-width="2" stroke-opacity=".467" d="M320.25-85h6.62"/><path fill="#f0f" fill-opacity=".467" stroke="#f0f" stroke-width="2" stroke-opacity=".467" d="m326.87-87.1 6 2.1-6 2.1v-4.2z"/></g><g class="edge"><path fill="none" stroke="#f0f" stroke-width="2" stroke-opacity=".467" d="M311.67-115H387v14.84"/><path fill="#f0f" fill-opacity=".467" stroke="#f0f" stroke-width="2" stroke-opacity=".467" d="m389.1-100.16-2.1 6-2.1-6h4.2z"/></g><g class="edge"><path fill="none" stroke="#f0f" stroke-width="2" stroke-opacity=".467" d="M317.12-41H374v-28.67"/><path fill="#f0f" fill-opacity=".467" stroke="#f0f" stroke-width="2" stroke-opacity=".467" d="m371.9-69.67 2.1-6 2.1 6h-4.2z"/></g><g class="node"><a xlink:href="https://github.com/sverweij/dependency-cruiser/blob/develop/src/report/error-html/index.js" xlink:title="index.js"><path fill="#fcf" stroke="#000" d="M165.5-184h-48c-3 0-6 3-6 6v6c0 3 3 6 6 6h48c3 0 6-3 6-6v-6c0-3-3-6-6-6"/><text x="119.5" y="-173.8" font-family="Helvetica,sans-Serif" font-size="9">index.js </text><text x="153.5" y="-173.8" font-family="Helvetica,sans-Serif" font-size="8" fill="gray">67</text></a></g><g class="node"><a xlink:href="https://github.com/sverweij/dependency-cruiser/blob/develop/src/report/error-html/utl.js" xlink:title="utl.js"><path fill="#fcf" stroke="#000" d="M278.5-184h-42c-3 0-6 3-6 6v6c0 3 3 6 6 6h42c3 0 6-3 6-6v-6c0-3-3-6-6-6"/><text x="241.5" y="-173.8" font-family="Helvetica,sans-Serif" font-size="9">utl.js </text><text x="263.5" y="-173.8" font-family="Helvetica,sans-Serif" font-size="8" fill="gray">33</text></a></g><g class="edge"><path fill="none" stroke="#f0f" stroke-width="2" stroke-opacity=".467" d="M171.67-172h52.58"/><path fill="#f0f" fill-opacity=".467" stroke="#f0f" stroke-width="2" stroke-opacity=".467" d="m224.25-174.1 6 2.1-6 2.1v-4.2z"/></g><g class="edge"><path fill="none" stroke="#f0f" stroke-width="2" stroke-opacity=".467" d="M244-184.32v-29.18h187.89"/><path fill="#f0f" fill-opacity=".467" stroke="#f0f" stroke-width="2" stroke-opacity=".467" d="m431.89-215.6 6 2.1-6 2.1v-4.2z"/></g><g class="node"><a xlink:href="https://github.com/sverweij/dependency-cruiser/blob/develop/src/report/error-long.js" xlink:title="error-long.js"><path fill="#fcf" stroke="#000" d="M174.5-310h-66c-3 0-6 3-6 6v6c0 3 3 6 6 6h66c3 0 6-3 6-6v-6c0-3-3-6-6-6"/><text x="110.5" y="-299.8" font-family="Helvetica,sans-Serif" font-size="9">error-long.js </text><text x="162.5" y="-299.8" font-family="Helvetica,sans-Serif" font-size="8" fill="gray">50</text></a></g><g class="node"><a xlink:href="https://github.com/sverweij/dependency-cruiser/blob/develop/src/report/error.js" xlink:title="error.js"><path fill="#fcf" stroke="#000" d="M280-288h-45c-3 0-6 3-6 6v6c0 3 3 6 6 6h45c3 0 6-3 6-6v-6c0-3-3-6-6-6"/><text x="237" y="-277.8" font-family="Helvetica,sans-Serif" font-size="9">error.js </text><text x="268" y="-277.8" font-family="Helvetica,sans-Serif" font-size="8" fill="gray">33</text></a></g><g class="edge"><path fill="none" stroke="#f0f" stroke-width="2" stroke-opacity=".467" d="M180.62-301H258v6.8"/><path fill="#f0f" fill-opacity=".467" stroke="#f0f" stroke-width="2" stroke-opacity=".467" d="m260.1-294.2-2.1 6-2.1-6h4.2z"/></g><g class="edge"><path fill="none" stroke="#f0f" stroke-width="2" stroke-opacity=".467" d="M271-269.92v47.42h160.63"/><path fill="#f0f" fill-opacity=".467" stroke="#f0f" stroke-width="2" stroke-opacity=".467" d="m431.63-224.6 6 2.1-6 2.1v-4.2z"/></g><g class="node"><a xlink:href="https://github.com/sverweij/dependency-cruiser/blob/develop/src/report/index.js" xlink:title="index.js"><path fill="#fcf" stroke="#000" d="M82-251H30c-3 0-6 3-6 6v6c0 3 3 6 6 6h52c3 0 6-3 6-6v-6c0-3-3-6-6-6"/><text x="32" y="-240.8" font-family="Helvetica,sans-Serif" font-size="9">index.js </text><text x="66" y="-240.8" font-family="Helvetica,sans-Serif" font-size="8" fill="gray">100</text></a></g><g class="edge"><path fill="none" stroke="#f0f" stroke-width="2" stroke-opacity=".467" d="M40-232.65V-85h65.32"/><path fill="#f0f" fill-opacity=".467" stroke="#f0f" stroke-width="2" stroke-opacity=".467" d="m105.32-87.1 6 2.1-6 2.1v-4.2z"/></g><g class="edge"><path fill="none" stroke="#f0f" stroke-width="2" stroke-opacity=".467" d="M56-232.96V-175h49.12"/><path fill="#f0f" fill-opacity=".467" stroke="#f0f" stroke-width="2" stroke-opacity=".467" d="m105.12-177.1 6 2.1-6 2.1v-4.2z"/></g><g class="edge"><path fill="none" stroke="#f0f" stroke-width="2" stroke-opacity=".467" d="M46-251.22V-301h50.38"/><path fill="#f0f" fill-opacity=".467" stroke="#f0f" stroke-width="2" stroke-opacity=".467" d="m96.38-303.1 6 2.1-6 2.1v-4.2z"/></g><g class="edge"><path fill="none" stroke="#f0f" stroke-width="2" stroke-opacity=".467" d="M88.01-242H258v-21.66"/><path fill="#f0f" fill-opacity=".467" stroke="#f0f" stroke-width="2" stroke-opacity=".467" d="m255.9-263.66 2.1-6 2.1 6h-4.2z"/></g><g class="node"><a xlink:href="https://github.com/sverweij/dependency-cruiser/blob/develop/src/report/markdown.js" xlink:title="markdown.js"><path fill="#fcf" stroke="#000" d="M176-236h-69c-3 0-6 3-6 6v6c0 3 3 6 6 6h69c3 0 6-3 6-6v-6c0-3-3-6-6-6"/><text x="109" y="-225.8" font-family="Helvetica,sans-Serif" font-size="9">markdown.js </text><text x="164" y="-225.8" font-family="Helvetica,sans-Serif" font-size="8" fill="gray">50</text></a></g><g class="edge"><path fill="none" stroke="#f0f" stroke-width="2" stroke-opacity=".467" d="M72-232.98v7.48h22.67"/><path fill="#f0f" fill-opacity=".467" stroke="#f0f" stroke-width="2" stroke-opacity=".467" d="m94.67-227.6 6 2.1-6 2.1v-4.2z"/></g><g class="node"><a xlink:href="https://github.com/sverweij/dependency-cruiser/blob/develop/src/report/teamcity.js" xlink:title="teamcity.js"><path fill="#fcf" stroke="#000" d="M171.5-266h-60c-3 0-6 3-6 6v6c0 3 3 6 6 6h60c3 0 6-3 6-6v-6c0-3-3-6-6-6"/><text x="113.5" y="-255.8" font-family="Helvetica,sans-Serif" font-size="9">teamcity.js </text><text x="159.5" y="-255.8" font-family="Helvetica,sans-Serif" font-size="8" fill="gray">50</text></a></g><g class="edge"><path fill="none" stroke="#f0f" stroke-width="2" stroke-opacity=".467" d="M67-251.02v-7.48h32.12"/><path fill="#f0f" fill-opacity=".467" stroke="#f0f" stroke-width="2" stroke-opacity=".467" d="m99.12-260.6 6 2.1-6 2.1v-4.2z"/></g><g class="edge"><path fill="none" stroke="#f0f" stroke-width="2" stroke-opacity=".467" d="M177-217.55V-178h47.25"/><path fill="#f0f" fill-opacity=".467" stroke="#f0f" stroke-width="2" stroke-opacity=".467" d="m224.25-180.1 6 2.1-6 2.1v-4.2z"/></g><g class="edge"><path fill="none" stroke="#f0f" stroke-width="2" stroke-opacity=".467" d="M177.78-257H466v23.95"/><path fill="#f0f" fill-opacity=".467" stroke="#f0f" stroke-width="2" stroke-opacity=".467" d="m468.1-233.05-2.1 6-2.1-6h4.2z"/></g></g></svg>