<svg width="720" height="240" viewBox="0 0 539.5 180" xmlns="http://www.w3.org/2000/svg" xmlns:xlink="http://www.w3.org/1999/xlink"><g class="graph"><path fill="#fff" stroke="transparent" d="M0 180V0h539.5v180H0z"/><g class="cluster"><path fill="#fff" stroke="#000" stroke-width="2" d="M24 168h491.5c6 0 12-6 12-12V24c0-6-6-12-12-12H24c-6 0-12 6-12 12v132c0 6 6 12 12 12"/><text text-anchor="middle" x="265.75" y="-152.8" font-family="Helvetica,sans-Serif" font-weight="bold" font-size="9" transform="translate(4 176)">src</text></g><g class="cluster"><path fill="#fff" stroke="#000" stroke-width="2" d="M32 160h151c6 0 12-6 12-12V90c0-6-6-12-12-12H32c-6 0-12 6-12 12v58c0 6 6 12 12 12"/><text text-anchor="middle" x="103.5" y="-86.8" font-family="Helvetica,sans-Serif" font-weight="bold" font-size="9" transform="translate(4 176)">cli</text></g><g class="cluster"><path fill="#fff" stroke="#000" stroke-width="2" d="M215 160h214.5c6 0 12-6 12-12V50c0-6-6-12-12-12H215c-6 0-12 6-12 12v98c0 6 6 12 12 12"/><text text-anchor="middle" x="318.25" y="-126.8" font-family="Helvetica,sans-Serif" font-weight="bold" font-size="9" transform="translate(4 176)">main</text></g><g class="cluster"><path fill="#fff" stroke="#000" stroke-width="2" d="M371.5 142h50c6 0 12-6 12-12v-28c0-6-6-12-12-12h-50c-6 0-12 6-12 12v28c0 6 6 12 12 12"/><text text-anchor="middle" x="392.5" y="-74.8" font-family="Helvetica,sans-Serif" font-weight="bold" font-size="9" transform="translate(4 176)">options</text></g><g class="cluster"><path fill="#fff" stroke="#000" stroke-width="2" d="M289.5 142h50c6 0 12-6 12-12v-28c0-6-6-12-12-12h-50c-6 0-12 6-12 12v28c0 6 6 12 12 12"/><text text-anchor="middle" x="310.5" y="-74.8" font-family="Helvetica,sans-Serif" font-weight="bold" font-size="9" transform="translate(4 176)">rule-set</text></g><g class="cluster"><path fill="#fff" stroke="#000" stroke-width="2" d="M461.5 118h46c6 0 12-6 12-12V78c0-6-6-12-12-12h-46c-6 0-12 6-12 12v28c0 6 6 12 12 12"/><text text-anchor="middle" x="480.5" y="-98.8" font-family="Helvetica,sans-Serif" font-weight="bold" font-size="9" transform="translate(4 176)">report</text></g><a xlink:href="https://github.com/sverweij/dependency-cruiser/blob/develop/src/cli/format-meta-info.js" xlink:title="format-meta-info.js" class="node" transform="translate(4 176)"><path fill="#ccf" stroke="#000" d="M177-42H97c-3 0-6 3-6 6v6c0 3 3 6 6 6h80c3 0 6-3 6-6v-6c0-3-3-6-6-6"/><text x="99" y="-30.8" font-family="Helvetica,sans-Serif" font-size="9">format-meta-info.js</text></a><a xlink:href="https://github.com/sverweij/dependency-cruiser/blob/develop/src/main/index.js" xlink:title="index.js" class="node" transform="translate(4 176)"><path fill="#fcc" stroke="#000" d="M255-62h-42c-3 0-6 3-6 6v6c0 3 3 6 6 6h42c3 0 6-3 6-6v-6c0-3-3-6-6-6"/><text x="218" y="-50.8" font-family="Helvetica,sans-Serif" font-size="9">index.js</text></a><g class="edge" stroke="#700" stroke-width="2" stroke-opacity=".467"><path fill="none" d="M187.06 140h42.44v-1.7"/><path fill="#700" fill-opacity=".467" d="m227.4 138.3 2.1-6 2.1 6h-4.2z"/></g><a xlink:href="https://github.com/sverweij/dependency-cruiser/blob/develop/src/main/options/validate.js" xlink:title="validate.js" class="node" transform="translate(4 176)"><path fill="#fcc" stroke="#000" d="M415.5-60h-46c-3 0-6 3-6 6v6c0 3 3 6 6 6h46c3 0 6-3 6-6v-6c0-3-3-6-6-6"/><text x="371.5" y="-48.8" font-family="Helvetica,sans-Serif" font-size="9">validate.js</text></a><g class="edge" stroke="#700" stroke-width="2" stroke-opacity=".467"><path fill="none" d="M247.5 132.09V146h149v-5.97"/><path fill="#700" fill-opacity=".467" d="m394.4 140.03 2.1-6 2.1 6h-4.2z"/></g><a xlink:href="https://github.com/sverweij/dependency-cruiser/blob/develop/src/main/report-wrap.js" xlink:title="report-wrap.js" class="node" transform="translate(4 176)"><path fill="#fcc" stroke="#000" d="M341-112h-61c-3 0-6 3-6 6v6c0 3 3 6 6 6h61c3 0 6-3 6-6v-6c0-3-3-6-6-6"/><text x="282" y="-100.8" font-family="Helvetica,sans-Serif" font-size="9">report-wrap.js</text></a><g class="edge" stroke="#700" stroke-width="2" stroke-opacity=".467"><path fill="none" d="M265.17 121.33h17.33V88.32"/><path fill="#700" fill-opacity=".467" d="m280.4 88.32 2.1-6 2.1 6h-4.2z"/></g><a xlink:href="https://github.com/sverweij/dependency-cruiser/blob/develop/src/main/rule-set/validate.js" xlink:title="validate.js" class="node" transform="translate(4 176)"><path fill="#fcc" stroke="#000" d="M333.5-60h-46c-3 0-6 3-6 6v6c0 3 3 6 6 6h46c3 0 6-3 6-6v-6c0-3-3-6-6-6"/><text x="289.5" y="-48.8" font-family="Helvetica,sans-Serif" font-size="9">validate.js</text></a><g class="edge" stroke="#700" stroke-width="2" stroke-opacity=".467"><path fill="none" d="M265.19 126.67h14.14"/><path fill="#700" fill-opacity=".467" d="m279.33 124.57 6 2.1-6 2.1v-4.2z"/></g><a xlink:href="https://github.com/sverweij/dependency-cruiser/blob/develop/src/cli/format.js" xlink:title="not-reachable-from-folder-index" class="node" transform="translate(4 176)"><path fill="#ccf" stroke="#00f" d="M72-72H30c-3 0-6 3-6 6v6c0 3 3 6 6 6h42c3 0 6-3 6-6v-6c0-3-3-6-6-6"/><text x="33.5" y="-60.8" font-family="Helvetica,sans-Serif" font-size="9" fill="#00f">format.js</text></a><g class="edge" stroke="#700" stroke-width="2" stroke-opacity=".467"><path fill="none" d="M82 118h122.89"/><path fill="#700" fill-opacity=".467" d="m204.89 115.9 6 2.1-6 2.1v-4.2z"/></g><a xlink:href="https://github.com/sverweij/dependency-cruiser/blob/develop/src/cli/index.js" xlink:title="index.js" class="node" transform="translate(4 176)"><path fill="#ccf" stroke="#000" d="M72-42H30c-3 0-6 3-6 6v6c0 3 3 6 6 6h42c3 0 6-3 6-6v-6c0-3-3-6-6-6"/><text x="35" y="-30.8" font-family="Helvetica,sans-Serif" font-size="9">index.js</text></a><g class="edge" stroke="#00f" stroke-width="2" stroke-opacity=".467"><path fill="none" d="M82.21 143h6.58"/><path fill="#00f" fill-opacity=".467" d="m88.79 140.9 6 2.1-6 2.1v-4.2z"/></g><g class="edge" stroke="#700" stroke-width="2" stroke-opacity=".467"><path fill="none" d="M55.5 133.88V127h149.18"/><path fill="#700" fill-opacity=".467" d="m204.68 124.9 6 2.1-6 2.1v-4.2z"/></g><a xlink:href="https://github.com/sverweij/dependency-cruiser/blob/develop/src/report/index.js" xlink:title="index.js" class="node" transform="translate(4 176)"><path fill="#fcf" stroke="#000" d="M501.5-84h-42c-3 0-6 3-6 6v6c0 3 3 6 6 6h42c3 0 6-3 6-6v-6c0-3-3-6-6-6"/><text x="464.5" y="-72.8" font-family="Helvetica,sans-Serif" font-size="9">index.js</text></a><g class="edge" stroke="#f0f" stroke-width="2" stroke-opacity=".467"><path fill="none" d="M425.8 125h58.7v-8.79"/><path fill="#f0f" fill-opacity=".467" d="m482.4 116.21 2.1-6 2.1 6h-4.2z"/></g><g class="edge" stroke="#f0f" stroke-width="2" stroke-opacity=".467"><path fill="none" d="M347.5 82.03V98h103.93"/><path fill="#f0f" fill-opacity=".467" d="m451.43 95.9 6 2.1-6 2.1v-4.2z"/></g><g class="edge" stroke="#700" stroke-width="2" stroke-opacity=".467"><path fill="none" d="M343.64 125h17.81"/><path fill="#700" fill-opacity=".467" d="m361.45 122.9 6 2.1-6 2.1v-4.2z"/></g></g></svg>