<svg xmlns="http://www.w3.org/2000/svg" xmlns:xlink="http://www.w3.org/1999/xlink" width="775pt" height="1376" viewBox="0 0 775 1032"><g class="graph" transform="translate(4 1028)"><title>dependency-cruiser output</title><path fill="#fff" d="M-4 4v-1032h774.75V4z"/><g class="cluster"><title>cluster_src</title><path fill="#fff" stroke="#000" stroke-width="2" d="M20-8h726.75c6 0 12-6 12-12v-984c0-6-6-12-12-12H20c-6 0-12 6-12 12v984c0 6 6 12 12 12"/><text xml:space="preserve" x="383.38" y="-1003.45" font-family="Helvetica,sans-Serif" font-size="9" font-weight="bold" text-anchor="middle">src</text></g><g class="cluster"><title>cluster_src/analyze</title><path fill="#fff" stroke="#000" stroke-width="2" d="M417.12-750h200c6 0 12-6 12-12v-62c0-6-6-12-12-12h-200c-6 0-12 6-12 12v62c0 6 6 12 12 12"/><text xml:space="preserve" x="517.12" y="-823.45" font-family="Helvetica,sans-Serif" font-size="9" font-weight="bold" text-anchor="middle">analyze</text></g><g class="cluster"><title>cluster_src/analyze/summarize</title><path fill="#fff" stroke="#000" stroke-width="2" d="M562.12-758h47c6 0 12-6 12-12v-28c0-6-6-12-12-12h-47c-6 0-12 6-12 12v28c0 6 6 12 12 12"/><text xml:space="preserve" x="585.62" y="-797.45" font-family="Helvetica,sans-Serif" font-size="9" font-weight="bold" text-anchor="middle">summarize</text></g><g class="cluster"><title>cluster_src/cache</title><path fill="#fff" stroke="#000" stroke-width="2" d="M287.5-804h49.25c6 0 12-6 12-12v-28c0-6-6-12-12-12H287.5c-6 0-12 6-12 12v28c0 6 6 12 12 12"/><text xml:space="preserve" x="312.12" y="-843.45" font-family="Helvetica,sans-Serif" font-size="9" font-weight="bold" text-anchor="middle">cache</text></g><g class="cluster"><title>cluster_src/cli</title><path fill="#fff" stroke="#000" stroke-width="2" d="M28-70h50c6 0 12-6 12-12v-58c0-6-6-12-12-12H28c-6 0-12 6-12 12v58c0 6 6 12 12 12"/><text xml:space="preserve" x="53" y="-139.45" font-family="Helvetica,sans-Serif" font-size="9" font-weight="bold" text-anchor="middle">cli</text></g><g class="cluster"><title>cluster_src/config-utl</title><path fill="#fff" stroke="#000" stroke-width="2" d="M118-108h113.75c6 0 12-6 12-12v-62c0-6-6-12-12-12H118c-6 0-12 6-12 12v62c0 6 6 12 12 12"/><text xml:space="preserve" x="174.88" y="-181.45" font-family="Helvetica,sans-Serif" font-size="9" font-weight="bold" text-anchor="middle">config-utl</text></g><g class="cluster"><title>cluster_src/config-utl/extract-depcruise-config</title><path fill="#fff" stroke="#000" stroke-width="2" d="M126-116h97.75c6 0 12-6 12-12v-28c0-6-6-12-12-12H126c-6 0-12 6-12 12v28c0 6 6 12 12 12"/><text xml:space="preserve" x="174.88" y="-155.45" font-family="Helvetica,sans-Serif" font-size="9" font-weight="bold" text-anchor="middle">extract-depcruise-config</text></g><g class="cluster"><title>cluster_src/extract</title><path fill="#fff" stroke="#000" stroke-width="2" d="M409.62-854h62c6 0 12-6 12-12v-88c0-6-6-12-12-12h-62c-6 0-12 6-12 12v88c0 6 6 12 12 12"/><text xml:space="preserve" x="440.62" y="-953.45" font-family="Helvetica,sans-Serif" font-size="9" font-weight="bold" text-anchor="middle">extract</text></g><g class="cluster"><title>cluster_src/extract/transpile</title><path fill="#fff" stroke="#000" stroke-width="2" d="M417.62-862h46c6 0 12-6 12-12v-28c0-6-6-12-12-12h-46c-6 0-12 6-12 12v28c0 6 6 12 12 12"/><text xml:space="preserve" x="440.62" y="-901.45" font-family="Helvetica,sans-Serif" font-size="9" font-weight="bold" text-anchor="middle">transpile</text></g><g class="cluster"><title>cluster_src/graph-utl</title><path fill="#fff" stroke="#000" stroke-width="2" d="M528.75-570H642.5c6 0 12-6 12-12v-148c0-6-6-12-12-12H528.75c-6 0-12 6-12 12v148c0 6 6 12 12 12"/><text xml:space="preserve" x="585.62" y="-729.45" font-family="Helvetica,sans-Serif" font-size="9" font-weight="bold" text-anchor="middle">graph-utl</text></g><g class="cluster"><title>cluster_src/main</title><path fill="#fff" stroke="#000" stroke-width="2" d="M29.5-202H622c6 0 12-6 12-12v-276c0-6-6-12-12-12H29.5c-6 0-12 6-12 12v276c0 6 6 12 12 12"/><text xml:space="preserve" x="325.75" y="-489.45" font-family="Helvetica,sans-Serif" font-size="9" font-weight="bold" text-anchor="middle">main</text></g><g class="cluster"><title>cluster_src/main/files-and-dirs</title><path fill="#fff" stroke="#000" stroke-width="2" d="M279.62-236h65c6 0 12-6 12-12v-28c0-6-6-12-12-12h-65c-6 0-12 6-12 12v28c0 6 6 12 12 12"/><text xml:space="preserve" x="312.12" y="-275.45" font-family="Helvetica,sans-Serif" font-size="9" font-weight="bold" text-anchor="middle">files-and-dirs</text></g><g class="cluster"><title>cluster_src/main/options</title><path fill="#fff" stroke="#000" stroke-width="2" d="M400.25-252H614c6 0 12-6 12-12v-58c0-6-6-12-12-12H400.25c-6 0-12 6-12 12v58c0 6 6 12 12 12"/><text xml:space="preserve" x="507.12" y="-321.45" font-family="Helvetica,sans-Serif" font-size="9" font-weight="bold" text-anchor="middle">options</text></g><g class="cluster"><title>cluster_src/main/resolve-options</title><path fill="#fff" stroke="#000" stroke-width="2" d="M279.62-424h65c6 0 12-6 12-12v-28c0-6-6-12-12-12h-65c-6 0-12 6-12 12v28c0 6 6 12 12 12"/><text xml:space="preserve" x="312.12" y="-463.45" font-family="Helvetica,sans-Serif" font-size="9" font-weight="bold" text-anchor="middle">resolve-options</text></g><g class="cluster"><title>cluster_src/main/rule-set</title><path fill="#fff" stroke="#000" stroke-width="2" d="M271.75-296h80.75c6 0 12-6 12-12v-58c0-6-6-12-12-12h-80.75c-6 0-12 6-12 12v58c0 6 6 12 12 12"/><text xml:space="preserve" x="312.12" y="-365.45" font-family="Helvetica,sans-Serif" font-size="9" font-weight="bold" text-anchor="middle">rule-set</text></g><g class="cluster"><title>cluster_src/report</title><path fill="#fff" stroke="#000" stroke-width="2" d="M562.12-510h47c6 0 12-6 12-12v-28c0-6-6-12-12-12h-47c-6 0-12 6-12 12v28c0 6 6 12 12 12"/><text xml:space="preserve" x="585.62" y="-549.45" font-family="Helvetica,sans-Serif" font-size="9" font-weight="bold" text-anchor="middle">report</text></g><g class="cluster"><title>cluster_src/schema</title><path fill="#fff" stroke="#000" stroke-width="2" d="M384.5-82h112.25c6 0 12-6 12-12v-88c0-6-6-12-12-12H384.5c-6 0-12 6-12 12v88c0 6 6 12 12 12"/><text xml:space="preserve" x="440.62" y="-181.45" font-family="Helvetica,sans-Serif" font-size="9" font-weight="bold" text-anchor="middle">schema</text></g><g class="cluster"><title>cluster_src/utl</title><path fill="#fff" stroke="#000" stroke-width="2" d="M674.5-250h64.25c6 0 12-6 12-12v-118c0-6-6-12-12-12H674.5c-6 0-12 6-12 12v118c0 6 6 12 12 12"/><text xml:space="preserve" x="706.62" y="-379.45" font-family="Helvetica,sans-Serif" font-size="9" font-weight="bold" text-anchor="middle">utl</text></g><g class="node"><title>src/analyze/index.mjs</title><a xlink:href="src/analyze/index.mjs" xlink:title="index.mjs">
<path fill="#ffc" stroke="#000" d="M462.21-783.88h-43.17c-2.96 0-5.92 2.96-5.92 5.92v5.92c0 2.96 2.96 5.92 5.92 5.92h43.17c2.96 0 5.91-2.96 5.91-5.92v-5.92c0-2.96-2.95-5.92-5.91-5.92"/>
<text xml:space="preserve" x="421.12" y="-772.38" font-family="Helvetica,sans-Serif" font-size="9">index.mjs</text>
</a></g><g class="node"><title>src/analyze/summarize/index.mjs</title><a xlink:href="src/analyze/summarize/index.mjs" xlink:title="index.mjs">
<path fill="#ffc" stroke="#000" d="M607.21-783.88h-43.17c-2.96 0-5.92 2.96-5.92 5.92v5.92c0 2.96 2.96 5.92 5.92 5.92h43.17c2.96 0 5.91-2.96 5.91-5.92v-5.92c0-2.96-2.95-5.92-5.91-5.92"/>
<text xml:space="preserve" x="566.12" y="-772.38" font-family="Helvetica,sans-Serif" font-size="9">index.mjs</text>
</a></g><g class="edge"><title>src/analyze/index.mjs-&gt;src/analyze/summarize/index.mjs</title><path fill="none" stroke="#000" stroke-opacity=".2" stroke-width="2" d="M468.58-779.44h80.15"/><path fill-opacity=".2" stroke="#000" stroke-opacity=".2" stroke-width="2" d="m548.73-781.54 6 2.1-6 2.1z"/></g><g class="node"><title>src/utl/bus.mjs</title><a xlink:href="src/utl/bus.mjs" xlink:title="bus.mjs">
<path fill="#ffc" stroke="#000" d="M727.71-335.88h-42.17c-2.96 0-5.92 2.96-5.92 5.92v5.92c0 2.96 2.96 5.92 5.92 5.92h42.17c2.96 0 5.91-2.96 5.91-5.92v-5.92c0-2.96-2.95-5.92-5.91-5.92"/>
<text xml:space="preserve" x="690.88" y="-324.38" font-family="Helvetica,sans-Serif" font-size="9">bus.mjs</text>
</a></g><g class="edge"><title>src/analyze/index.mjs-&gt;src/utl/bus.mjs</title><path fill="none" stroke="#000" stroke-opacity=".2" stroke-width="2" d="M468.52-770.56h24.23v437.8h177.76"/><path fill-opacity=".2" stroke="#000" stroke-opacity=".2" stroke-width="2" d="m670.51-334.86 6 2.1-6 2.1z"/></g><g class="node"><title>src/graph-utl/compare.mjs</title><a xlink:href="src/graph-utl/compare.mjs" xlink:title="compare.mjs">
<path fill="#ffc" stroke="#000" d="M613.96-625.88h-56.67c-2.96 0-5.91 2.96-5.91 5.92v5.92c0 2.96 2.95 5.92 5.91 5.92h56.67c2.96 0 5.92-2.96 5.92-5.92v-5.92c0-2.96-2.96-5.92-5.92-5.92"/>
<text xml:space="preserve" x="559.38" y="-614.38" font-family="Helvetica,sans-Serif" font-size="9">compare.mjs</text>
</a></g><g class="edge"><title>src/analyze/summarize/index.mjs-&gt;src/graph-utl/compare.mjs</title><path fill="none" stroke="#000" stroke-opacity=".2" stroke-width="2" d="M613.34-775h41.41v158h-25.54"/><path fill-opacity=".2" stroke="#000" stroke-opacity=".2" stroke-width="2" d="m629.21-614.9-6-2.1 6-2.1z"/></g><g class="node"><title>src/cache/cache.mjs</title><a xlink:href="src/cache/cache.mjs" xlink:title="cache.mjs">
<path fill="#ffc" stroke="#000" d="M334.83-829.88h-45.41c-2.96 0-5.92 2.96-5.92 5.92v5.92c0 2.96 2.96 5.92 5.92 5.92h45.41c2.96 0 5.92-2.96 5.92-5.92v-5.92c0-2.96-2.96-5.92-5.92-5.92"/>
<text xml:space="preserve" x="291.5" y="-818.38" font-family="Helvetica,sans-Serif" font-size="9">cache.mjs</text>
</a></g><g class="edge"><title>src/cache/cache.mjs-&gt;src/utl/bus.mjs</title><path fill="none" stroke="#000" stroke-opacity=".2" stroke-width="2" d="M341.21-818.04h23.54v489.36H670.2"/><path fill-opacity=".2" stroke="#000" stroke-opacity=".2" stroke-width="2" d="m670.2-330.78 6 2.1-6 2.1z"/></g><g class="node"><title>src/extract/transpile/meta.mjs</title><a xlink:href="src/extract/transpile/meta.mjs" xlink:title="meta.mjs">
<path fill="#ffc" stroke="#000" d="M461.71-887.88h-42.17c-2.96 0-5.92 2.96-5.92 5.92v5.92c0 2.96 2.96 5.92 5.92 5.92h42.17c2.96 0 5.91-2.96 5.91-5.92v-5.92c0-2.96-2.95-5.92-5.91-5.92"/>
<text xml:space="preserve" x="422.25" y="-876.38" font-family="Helvetica,sans-Serif" font-size="9">meta.mjs</text>
</a></g><g class="edge"><title>src/cache/cache.mjs-&gt;src/extract/transpile/meta.mjs</title><path fill="none" stroke="#000" stroke-opacity=".2" stroke-width="2" d="M340.99-823.96h99.76v-36.92"/><path fill-opacity=".2" stroke="#000" stroke-opacity=".2" stroke-width="2" d="m438.65-860.88 2.1-6 2.1 6z"/></g><g class="node"><title>src/cli/format.mjs</title><a xlink:href="src/cli/format.mjs" xlink:title="format.mjs">
<path fill="#ffc" stroke="#000" d="M76.08-125.88H29.92c-2.96 0-5.92 2.96-5.92 5.92v5.92c0 2.96 2.96 5.92 5.92 5.92h46.16c2.96 0 5.92-2.96 5.92-5.92v-5.92c0-2.96-2.96-5.92-5.92-5.92"/>
<text xml:space="preserve" x="32" y="-114.38" font-family="Helvetica,sans-Serif" font-size="9">format.mjs</text>
</a></g><g class="node"><title>src/main/format.mjs</title><a xlink:href="src/main/format.mjs" xlink:title="format.mjs">
<path fill="#0f0" stroke="#000" d="M335.21-227.88h-46.17c-2.96 0-5.92 2.96-5.92 5.92v5.92c0 2.96 2.96 5.92 5.92 5.92h46.17c2.96 0 5.91-2.96 5.91-5.92v-5.92c0-2.96-2.95-5.92-5.91-5.92"/>
<text xml:space="preserve" x="291.12" y="-216.38" font-family="Helvetica,sans-Serif" font-size="9">format.mjs</text>
</a></g><g class="edge"><title>src/cli/format.mjs-&gt;src/main/format.mjs</title><path fill="none" stroke="#000" stroke-opacity=".2" stroke-width="2" d="M52.75-126.14v-89.9h221.1"/><path fill-opacity=".2" stroke="#000" stroke-opacity=".2" stroke-width="2" d="m273.85-218.14 6 2.1-6 2.1z"/></g><g class="node"><title>src/main/options/assert-validity.mjs</title><a xlink:href="src/main/options/assert-validity.mjs" xlink:title="assert-validity.mjs">
<path fill="#0f0" stroke="#000" d="M479.08-307.88h-76.91c-2.96 0-5.92 2.96-5.92 5.92v5.92c0 2.96 2.96 5.92 5.92 5.92h76.91c2.96 0 5.92-2.96 5.92-5.92v-5.92c0-2.96-2.96-5.92-5.92-5.92"/>
<text xml:space="preserve" x="404.25" y="-296.38" font-family="Helvetica,sans-Serif" font-size="9">assert-validity.mjs</text>
</a></g><g class="edge"><title>src/main/format.mjs-&gt;src/main/options/assert-validity.mjs</title><path fill="none" stroke="#000" stroke-opacity=".2" stroke-width="2" d="M341.3-219h58.45v-61.8"/><path fill-opacity=".2" stroke="#000" stroke-opacity=".2" stroke-width="2" d="m397.65-280.8 2.1-6 2.1 6z"/></g><g class="node"><title>src/main/options/normalize.mjs</title><a xlink:href="src/main/options/normalize.mjs" xlink:title="normalize.mjs">
<path fill="#0f0" stroke="#000" d="M471.21-277.88h-61.17c-2.96 0-5.92 2.96-5.92 5.92v5.92c0 2.96 2.96 5.92 5.92 5.92h61.17c2.96 0 5.91-2.96 5.91-5.92v-5.92c0-2.96-2.95-5.92-5.91-5.92"/>
<text xml:space="preserve" x="412.12" y="-266.38" font-family="Helvetica,sans-Serif" font-size="9">normalize.mjs</text>
</a></g><g class="edge"><title>src/main/format.mjs-&gt;src/main/options/normalize.mjs</title><path fill="none" stroke="#000" stroke-opacity=".2" stroke-width="2" d="M341.31-214.56h99.44v-36.42"/><path fill-opacity=".2" stroke="#000" stroke-opacity=".2" stroke-width="2" d="m438.65-250.98 2.1-6 2.1 6z"/></g><g class="node"><title>src/main/report-wrap.mjs</title><a xlink:href="src/main/report-wrap.mjs" xlink:title="report-wrap.mjs">
<path fill="#0f0" stroke="#000" d="M474.58-475.88h-67.91c-2.96 0-5.92 2.96-5.92 5.92v5.92c0 2.96 2.96 5.92 5.92 5.92h67.91c2.96 0 5.92-2.96 5.92-5.92v-5.92c0-2.96-2.96-5.92-5.92-5.92"/>
<text xml:space="preserve" x="408.75" y="-464.38" font-family="Helvetica,sans-Serif" font-size="9">report-wrap.mjs</text>
</a></g><g class="edge"><title>src/main/format.mjs-&gt;src/main/report-wrap.mjs</title><path fill="none" stroke="#000" stroke-opacity=".2" stroke-width="2" d="M341.37-223.44h31.38v-240.6h18.58"/><path fill-opacity=".2" stroke="#000" stroke-opacity=".2" stroke-width="2" d="m391.33-466.14 6 2.1-6 2.1z"/></g><g class="node"><title>src/schema/cruise-result.validate.mjs</title><a xlink:href="src/schema/cruise-result.validate.mjs" xlink:title="cruise-result.validate.mjs">
<path fill="#ffc" stroke="#000" d="M493.33-107.88H387.92c-2.96 0-5.92 2.96-5.92 5.92v5.92c0 2.96 2.96 5.92 5.92 5.92h105.41c2.96 0 5.92-2.96 5.92-5.92v-5.92c0-2.96-2.96-5.92-5.92-5.92"/>
<text xml:space="preserve" x="390" y="-96.38" font-family="Helvetica,sans-Serif" font-size="9">cruise-result.validate.mjs</text>
</a></g><g class="edge"><title>src/main/format.mjs-&gt;src/schema/cruise-result.validate.mjs</title><path fill="none" stroke="#000" stroke-opacity=".2" stroke-width="2" d="M302.75-209.81v107.93h69.98"/><path fill-opacity=".2" stroke="#000" stroke-opacity=".2" stroke-width="2" d="m372.73-103.98 6 2.1-6 2.1z"/></g><g class="node"><title>src/schema/utl.mjs</title><a xlink:href="src/schema/utl.mjs" xlink:title="utl.mjs">
<path fill="#ffc" stroke="#000" d="M461.71-137.88h-42.17c-2.96 0-5.92 2.96-5.92 5.92v5.92c0 2.96 2.96 5.92 5.92 5.92h42.17c2.96 0 5.91-2.96 5.91-5.92v-5.92c0-2.96-2.95-5.92-5.91-5.92"/>
<text xml:space="preserve" x="427.5" y="-126.38" font-family="Helvetica,sans-Serif" font-size="9">utl.mjs</text>
</a></g><g class="edge"><title>src/main/format.mjs-&gt;src/schema/utl.mjs</title><path fill="none" stroke="#000" stroke-opacity=".2" stroke-width="2" d="M321.75-209.91V-131h82.58"/><path fill-opacity=".2" stroke="#000" stroke-opacity=".2" stroke-width="2" d="m404.33-133.1 6 2.1-6 2.1z"/></g><g class="node"><title>src/cli/index.mjs</title><a xlink:href="src/cli/index.mjs" xlink:title="index.mjs">
<path fill="#ffc" stroke="#000" d="M74.58-95.88H31.42c-2.96 0-5.92 2.96-5.92 5.92v5.92c0 2.96 2.96 5.92 5.92 5.92h43.16c2.96 0 5.92-2.96 5.92-5.92v-5.92c0-2.96-2.96-5.92-5.92-5.92"/>
<text xml:space="preserve" x="33.5" y="-84.38" font-family="Helvetica,sans-Serif" font-size="9">index.mjs</text>
</a></g><g class="edge"><title>src/cli/index.mjs-&gt;src/utl/bus.mjs</title><path fill="none" stroke="#000" stroke-opacity=".2" stroke-width="2" d="M80.89-84.12h32.86V-324.6h556.44"/><path fill-opacity=".2" stroke="#000" stroke-opacity=".2" stroke-width="2" d="m670.19-326.7 6 2.1-6 2.1z"/></g><g class="node"><title>src/main/cruise.mjs</title><a xlink:href="src/main/cruise.mjs" xlink:title="cruise.mjs">
<path fill="#0f0" stroke="#000" d="M197.08-423.88h-45.41c-2.96 0-5.92 2.96-5.92 5.92v5.92c0 2.96 2.96 5.92 5.92 5.92h45.41c2.96 0 5.92-2.96 5.92-5.92v-5.92c0-2.96-2.96-5.92-5.92-5.92"/>
<text xml:space="preserve" x="153.75" y="-412.38" font-family="Helvetica,sans-Serif" font-size="9">cruise.mjs</text>
</a></g><g class="edge"><title>src/cli/index.mjs-&gt;src/main/cruise.mjs</title><path fill="none" stroke="#000" stroke-opacity=".2" stroke-width="2" d="M80.83-87.12h16.92v-323.44h38.63"/><path fill-opacity=".2" stroke="#000" stroke-opacity=".2" stroke-width="2" d="m136.38-412.66 6 2.1-6 2.1z"/></g><g class="node"><title>src/utl/object-util.mjs</title><a xlink:href="src/utl/object-util.mjs" xlink:title="object-util.mjs">
<path fill="#ffc" stroke="#000" d="M736.83-275.88h-60.41c-2.96 0-5.92 2.96-5.92 5.92v5.92c0 2.96 2.96 5.92 5.92 5.92h60.41c2.96 0 5.92-2.96 5.92-5.92v-5.92c0-2.96-2.96-5.92-5.92-5.92"/>
<text xml:space="preserve" x="678.5" y="-264.38" font-family="Helvetica,sans-Serif" font-size="9">object-util.mjs</text>
</a></g><g class="edge"><title>src/cli/index.mjs-&gt;src/utl/object-util.mjs</title><path fill="none" stroke="#000" stroke-opacity=".2" stroke-width="2" d="M80.67-81.12h626.08v-167.64"/><path fill-opacity=".2" stroke="#000" stroke-opacity=".2" stroke-width="2" d="m704.65-248.76 2.1-6 2.1 6z"/></g><g class="edge"><title>src/main/cruise.mjs-&gt;src/analyze/index.mjs</title><path fill="none" stroke="#000" stroke-dasharray="5,2" stroke-opacity=".2" stroke-width="2" d="M174.75-424.26V-775h228.9"/><path fill-opacity=".2" stroke="#000" stroke-opacity=".2" stroke-width="2" d="m403.65-777.1 6 2.1-6 2.1z"/></g><g class="edge"><title>src/main/cruise.mjs-&gt;src/utl/bus.mjs</title><path fill="none" stroke="#000" stroke-opacity=".2" stroke-width="2" d="M183.75-405.81v79.85h486.47"/><path fill-opacity=".2" stroke="#000" stroke-opacity=".2" stroke-width="2" d="m670.22-328.06 6 2.1-6 2.1z"/></g><g class="edge"><title>src/main/cruise.mjs-&gt;src/cache/cache.mjs</title><path fill="none" stroke="#000" stroke-dasharray="5,2" stroke-opacity=".2" stroke-width="2" d="M164.75-424.24V-821h109.23"/><path fill-opacity=".2" stroke="#000" stroke-opacity=".2" stroke-width="2" d="m273.98-823.1 6 2.1-6 2.1z"/></g><g class="node"><title>src/main/resolve-options/normalize.mjs</title><a xlink:href="src/main/resolve-options/normalize.mjs" xlink:title="normalize.mjs">
<path fill="#0f0" stroke="#000" d="M342.71-449.88h-61.17c-2.96 0-5.92 2.96-5.92 5.92v5.92c0 2.96 2.96 5.92 5.92 5.92h61.17c2.96 0 5.91-2.96 5.91-5.92v-5.92c0-2.96-2.95-5.92-5.91-5.92"/>
<text xml:space="preserve" x="283.62" y="-438.38" font-family="Helvetica,sans-Serif" font-size="9">normalize.mjs</text>
</a></g><g class="edge"><title>src/main/cruise.mjs-&gt;src/main/resolve-options/normalize.mjs</title><path fill="none" stroke="#000" stroke-dasharray="5,2" stroke-opacity=".2" stroke-width="2" d="M193.75-424.16v-19.8h72.54"/><path fill-opacity=".2" stroke="#000" stroke-opacity=".2" stroke-width="2" d="m266.29-446.06 6 2.1-6 2.1z"/></g><g class="node"><title>src/extract/index.mjs</title><a xlink:href="src/extract/index.mjs" xlink:title="index.mjs">
<path fill="#ffc" stroke="#000" d="M462.21-939.88h-43.17c-2.96 0-5.92 2.96-5.92 5.92v5.92c0 2.96 2.96 5.92 5.92 5.92h43.17c2.96 0 5.91-2.96 5.91-5.92v-5.92c0-2.96-2.95-5.92-5.91-5.92"/>
<text xml:space="preserve" x="421.12" y="-928.38" font-family="Helvetica,sans-Serif" font-size="9">index.mjs</text>
</a></g><g class="edge"><title>src/main/cruise.mjs-&gt;src/extract/index.mjs</title><path fill="none" stroke="#000" stroke-dasharray="5,2" stroke-opacity=".2" stroke-width="2" d="M155.75-424.01v-509.95h248.01"/><path fill-opacity=".2" stroke="#000" stroke-opacity=".2" stroke-width="2" d="m403.76-936.06 6 2.1-6 2.1z"/></g><g class="node"><title>src/utl/regex-util.mjs</title><a xlink:href="src/utl/regex-util.mjs" xlink:title="regex-util.mjs">
<path fill="#ffc" stroke="#000" d="M736.08-365.88h-58.91c-2.96 0-5.92 2.96-5.92 5.92v5.92c0 2.96 2.96 5.92 5.92 5.92h58.91c2.96 0 5.92-2.96 5.92-5.92v-5.92c0-2.96-2.96-5.92-5.92-5.92"/>
<text xml:space="preserve" x="679.25" y="-354.38" font-family="Helvetica,sans-Serif" font-size="9">regex-util.mjs</text>
</a></g><g class="edge"><title>src/main/cruise.mjs-&gt;src/utl/regex-util.mjs</title><path fill="none" stroke="#000" stroke-opacity=".2" stroke-width="2" d="M203.47-417.96h491.28v42.67"/><path fill-opacity=".2" stroke="#000" stroke-opacity=".2" stroke-width="2" d="m696.85-375.29-2.1 6-2.1-6z"/></g><g class="node"><title>src/main/files-and-dirs/normalize.mjs</title><a xlink:href="src/main/files-and-dirs/normalize.mjs" xlink:title="normalize.mjs">
<path fill="#0f0" stroke="#000" d="M342.71-261.88h-61.17c-2.96 0-5.92 2.96-5.92 5.92v5.92c0 2.96 2.96 5.92 5.92 5.92h61.17c2.96 0 5.91-2.96 5.91-5.92v-5.92c0-2.96-2.95-5.92-5.91-5.92"/>
<text xml:space="preserve" x="283.62" y="-250.38" font-family="Helvetica,sans-Serif" font-size="9">normalize.mjs</text>
</a></g><g class="edge"><title>src/main/cruise.mjs-&gt;src/main/files-and-dirs/normalize.mjs</title><path fill="none" stroke="#000" stroke-dasharray="5,2" stroke-opacity=".2" stroke-width="2" d="M155.75-405.83V-253h110.68"/><path fill-opacity=".2" stroke="#000" stroke-opacity=".2" stroke-width="2" d="m266.43-255.1 6 2.1-6 2.1z"/></g><g class="edge"><title>src/main/cruise.mjs-&gt;src/main/options/assert-validity.mjs</title><path fill="none" stroke="#000" stroke-opacity=".2" stroke-width="2" d="M174.75-405.72v108.93H386.8"/><path fill-opacity=".2" stroke="#000" stroke-opacity=".2" stroke-width="2" d="m386.8-298.89 6 2.1-6 2.1z"/></g><g class="edge"><title>src/main/cruise.mjs-&gt;src/main/options/normalize.mjs</title><path fill="none" stroke="#000" stroke-opacity=".2" stroke-width="2" d="M164.75-405.92v136.04h229.93"/><path fill-opacity=".2" stroke="#000" stroke-opacity=".2" stroke-width="2" d="m394.68-271.98 6 2.1-6 2.1z"/></g><g class="edge"><title>src/main/cruise.mjs-&gt;src/main/report-wrap.mjs</title><path fill="none" stroke="#000" stroke-opacity=".2" stroke-width="2" d="M183.75-424.08v-45.88h207.71"/><path fill-opacity=".2" stroke="#000" stroke-opacity=".2" stroke-width="2" d="m391.46-472.06 6 2.1-6 2.1z"/></g><g class="node"><title>src/main/rule-set/assert-validity.mjs</title><a xlink:href="src/main/rule-set/assert-validity.mjs" xlink:title="assert-validity.mjs">
<path fill="#0f0" stroke="#000" d="M350.58-321.88h-76.91c-2.96 0-5.92 2.96-5.92 5.92v5.92c0 2.96 2.96 5.92 5.92 5.92h76.91c2.96 0 5.92-2.96 5.92-5.92v-5.92c0-2.96-2.96-5.92-5.92-5.92"/>
<text xml:space="preserve" x="275.75" y="-310.38" font-family="Helvetica,sans-Serif" font-size="9">assert-validity.mjs</text>
</a></g><g class="edge"><title>src/main/cruise.mjs-&gt;src/main/rule-set/assert-validity.mjs</title><path fill="none" stroke="#000" stroke-dasharray="5,2" stroke-opacity=".2" stroke-width="2" d="M203.33-412.04h68.42v80.87"/><path fill-opacity=".2" stroke="#000" stroke-opacity=".2" stroke-width="2" d="m273.85-331.17-2.1 6-2.1-6z"/></g><g class="node"><title>src/main/rule-set/normalize.mjs</title><a xlink:href="src/main/rule-set/normalize.mjs" xlink:title="normalize.mjs">
<path fill="#0f0" stroke="#000" d="M342.71-351.88h-61.17c-2.96 0-5.92 2.96-5.92 5.92v5.92c0 2.96 2.96 5.92 5.92 5.92h61.17c2.96 0 5.91-2.96 5.91-5.92v-5.92c0-2.96-2.95-5.92-5.91-5.92"/>
<text xml:space="preserve" x="283.62" y="-340.38" font-family="Helvetica,sans-Serif" font-size="9">normalize.mjs</text>
</a></g><g class="edge"><title>src/main/cruise.mjs-&gt;src/main/rule-set/normalize.mjs</title><path fill="none" stroke="#000" stroke-dasharray="5,2" stroke-opacity=".2" stroke-width="2" d="M192.75-405.88V-343h73.56"/><path fill-opacity=".2" stroke="#000" stroke-opacity=".2" stroke-width="2" d="m266.31-345.1 6 2.1-6 2.1z"/></g><g class="node"><title>src/config-utl/extract-depcruise-config/index.mjs</title><a xlink:href="src/config-utl/extract-depcruise-config/index.mjs" xlink:title="index.mjs">
<path fill="#ffc" stroke="#000" d="M195.96-141.88h-43.17c-2.96 0-5.91 2.96-5.91 5.92v5.92c0 2.96 2.95 5.92 5.91 5.92h43.17c2.96 0 5.92-2.96 5.92-5.92v-5.92c0-2.96-2.96-5.92-5.92-5.92"/>
<text xml:space="preserve" x="154.88" y="-130.38" font-family="Helvetica,sans-Serif" font-size="9">index.mjs</text>
</a></g><g class="edge"><title>src/config-utl/extract-depcruise-config/index.mjs-&gt;src/main/resolve-options/normalize.mjs</title><path fill="none" stroke="#000" stroke-opacity=".2" stroke-width="2" d="M202.19-127.56h33.56v-310.48h30.5"/><path fill-opacity=".2" stroke="#000" stroke-opacity=".2" stroke-width="2" d="m266.25-440.14 6 2.1-6 2.1z"/></g><g class="edge"><title>src/main/resolve-options/normalize.mjs-&gt;src/extract/transpile/meta.mjs</title><path fill="none" stroke="#000" stroke-opacity=".2" stroke-width="2" d="M343.75-450.09v-425.95h60.61"/><path fill-opacity=".2" stroke="#000" stroke-opacity=".2" stroke-width="2" d="m404.36-878.14 6 2.1-6.01 2.1z"/></g><g class="node"><title>src/graph-utl/rule-set.mjs</title><a xlink:href="src/graph-utl/rule-set.mjs" xlink:title="rule-set.mjs">
<path fill="#ffc" stroke="#000" d="M611.33-715.88h-51.41c-2.96 0-5.92 2.96-5.92 5.92v5.92c0 2.96 2.96 5.92 5.92 5.92h51.41c2.96 0 5.92-2.96 5.92-5.92v-5.92c0-2.96-2.96-5.92-5.92-5.92"/>
<text xml:space="preserve" x="562" y="-704.38" font-family="Helvetica,sans-Serif" font-size="9">rule-set.mjs</text>
</a></g><g class="edge"><title>src/main/resolve-options/normalize.mjs-&gt;src/graph-utl/rule-set.mjs</title><path fill="none" stroke="#000" stroke-opacity=".2" stroke-width="2" d="M345.75-450.16V-707h198.99"/><path fill-opacity=".2" stroke="#000" stroke-opacity=".2" stroke-width="2" d="m544.74-709.1 6 2.1-6 2.1z"/></g><g class="edge"><title>src/extract/index.mjs-&gt;src/utl/bus.mjs</title><path fill="none" stroke="#000" stroke-opacity=".2" stroke-width="2" d="M412.87-928.04h-24.12v598h281.47"/><path fill-opacity=".2" stroke="#000" stroke-opacity=".2" stroke-width="2" d="m670.22-332.14 6 2.1-6 2.1z"/></g><g class="node"><title>src/graph-utl/consolidate-to-pattern.mjs</title><a xlink:href="src/graph-utl/consolidate-to-pattern.mjs" xlink:title="consolidate-to-pattern.mjs">
<path fill="#ffc" stroke="#000" d="M640.58-685.88H530.67c-2.96 0-5.92 2.96-5.92 5.92v5.92c0 2.96 2.96 5.92 5.92 5.92h109.91c2.96 0 5.92-2.96 5.92-5.92v-5.92c0-2.96-2.96-5.92-5.92-5.92"/>
<text xml:space="preserve" x="532.75" y="-674.38" font-family="Helvetica,sans-Serif" font-size="9">consolidate-to-pattern.mjs</text>
</a></g><g class="edge"><title>src/graph-utl/consolidate-to-pattern.mjs-&gt;src/utl/regex-util.mjs</title><path fill="none" stroke="#000" stroke-opacity=".2" stroke-width="2" d="M646.73-677h72.02v301.74"/><path fill-opacity=".2" stroke="#000" stroke-opacity=".2" stroke-width="2" d="m720.85-375.26-2.1 6-2.1-6z"/></g><g class="node"><title>src/graph-utl/filter-bank.mjs</title><a xlink:href="src/graph-utl/filter-bank.mjs" xlink:title="filter-bank.mjs">
<path fill="#ffc" stroke="#000" d="M616.21-595.88h-61.17c-2.96 0-5.92 2.96-5.92 5.92v5.92c0 2.96 2.96 5.92 5.92 5.92h61.17c2.96 0 5.91-2.96 5.91-5.92v-5.92c0-2.96-2.95-5.92-5.91-5.92"/>
<text xml:space="preserve" x="557.12" y="-584.38" font-family="Helvetica,sans-Serif" font-size="9">filter-bank.mjs</text>
</a></g><g class="node"><title>src/graph-utl/strip-self-transitions.mjs</title><a xlink:href="src/graph-utl/strip-self-transitions.mjs" xlink:title="strip-self-transitions.mjs">
<path fill="#ffc" stroke="#000" d="M635.71-655.88H535.54c-2.96 0-5.92 2.96-5.92 5.92v5.92c0 2.96 2.96 5.92 5.92 5.92h100.17c2.96 0 5.91-2.96 5.91-5.92v-5.92c0-2.96-2.95-5.92-5.91-5.92"/>
<text xml:space="preserve" x="537.62" y="-644.38" font-family="Helvetica,sans-Serif" font-size="9">strip-self-transitions.mjs</text>
</a></g><g class="node"><title>src/report/index.mjs</title><a xlink:href="src/report/index.mjs" xlink:title="index.mjs">
<path fill="#ffc" stroke="#000" d="M607.21-535.88h-43.17c-2.96 0-5.92 2.96-5.92 5.92v5.92c0 2.96 2.96 5.92 5.92 5.92h43.17c2.96 0 5.91-2.96 5.91-5.92v-5.92c0-2.96-2.95-5.92-5.91-5.92"/>
<text xml:space="preserve" x="566.12" y="-524.38" font-family="Helvetica,sans-Serif" font-size="9">index.mjs</text>
</a></g><g class="edge"><title>src/main/options/assert-validity.mjs-&gt;src/report/index.mjs</title><path fill="none" stroke="#000" stroke-opacity=".2" stroke-width="2" d="M485.43-300.62h25.32v-223.42h37.97"/><path fill-opacity=".2" stroke="#000" stroke-opacity=".2" stroke-width="2" d="m548.72-526.14 6 2.1-6 2.1z"/></g><g class="node"><title>src/main/helpers.mjs</title><a xlink:href="src/main/helpers.mjs" xlink:title="helpers.mjs">
<path fill="#0f0" stroke="#000" d="M611.33-359.88h-51.41c-2.96 0-5.92 2.96-5.92 5.92v5.92c0 2.96 2.96 5.92 5.92 5.92h51.41c2.96 0 5.92-2.96 5.92-5.92v-5.92c0-2.96-2.96-5.92-5.92-5.92"/>
<text xml:space="preserve" x="562" y="-348.38" font-family="Helvetica,sans-Serif" font-size="9">helpers.mjs</text>
</a></g><g class="edge"><title>src/main/options/normalize.mjs-&gt;src/main/helpers.mjs</title><path fill="none" stroke="#000" stroke-opacity=".2" stroke-width="2" d="M477.25-273.44h37.5v-71.12h29.73"/><path fill-opacity=".2" stroke="#000" stroke-opacity=".2" stroke-width="2" d="m544.48-346.66 6 2.1-6 2.1z"/></g><g class="node"><title>src/main/options/defaults.mjs</title><a xlink:href="src/main/options/defaults.mjs" xlink:title="defaults.mjs">
<path fill="#0f0" stroke="#000" d="M612.08-277.88h-52.91c-2.96 0-5.92 2.96-5.92 5.92v5.92c0 2.96 2.96 5.92 5.92 5.92h52.91c2.96 0 5.92-2.96 5.92-5.92v-5.92c0-2.96-2.96-5.92-5.92-5.92"/>
<text xml:space="preserve" x="561.25" y="-266.38" font-family="Helvetica,sans-Serif" font-size="9">defaults.mjs</text>
</a></g><g class="edge"><title>src/main/options/normalize.mjs-&gt;src/main/options/defaults.mjs</title><path fill="none" stroke="#000" stroke-opacity=".2" stroke-width="2" d="M477.59-264.56h66.55"/><path fill-opacity=".2" stroke="#000" stroke-opacity=".2" stroke-width="2" d="m544.14-266.66 6 2.1-6 2.1z"/></g><g class="node"><title>src/utl/array-util.mjs</title><a xlink:href="src/utl/array-util.mjs" xlink:title="array-util.mjs">
<path fill="#ffc" stroke="#000" d="M734.96-305.88h-56.67c-2.96 0-5.91 2.96-5.91 5.92v5.92c0 2.96 2.95 5.92 5.91 5.92h56.67c2.96 0 5.92-2.96 5.92-5.92v-5.92c0-2.96-2.96-5.92-5.92-5.92"/>
<text xml:space="preserve" x="680.38" y="-294.38" font-family="Helvetica,sans-Serif" font-size="9">array-util.mjs</text>
</a></g><g class="edge"><title>src/main/options/normalize.mjs-&gt;src/utl/array-util.mjs</title><path fill="none" stroke="#000" stroke-opacity=".2" stroke-width="2" d="M477.41-269h42.34v-26.38h143.14"/><path fill-opacity=".2" stroke="#000" stroke-opacity=".2" stroke-width="2" d="m662.89-297.48 6 2.1-6 2.1z"/></g><g class="edge"><title>src/main/report-wrap.mjs-&gt;src/analyze/summarize/index.mjs</title><path fill="none" stroke="#000" stroke-opacity=".2" stroke-width="2" d="M480.76-467h24.99v-308h42.91"/><path fill-opacity=".2" stroke="#000" stroke-opacity=".2" stroke-width="2" d="m548.66-777.1 6 2.1-6 2.1z"/></g><g class="edge"><title>src/main/report-wrap.mjs-&gt;src/utl/bus.mjs</title><path fill="none" stroke="#000" stroke-opacity=".2" stroke-width="2" d="M440.75-457.68v126.28h229.4"/><path fill-opacity=".2" stroke="#000" stroke-opacity=".2" stroke-width="2" d="m670.15-333.5 6 2.1-6 2.1z"/></g><g class="edge"><title>src/main/report-wrap.mjs-&gt;src/graph-utl/compare.mjs</title><path fill="none" stroke="#000" stroke-opacity=".2" stroke-width="2" d="M474.75-475.93V-617h67.37"/><path fill-opacity=".2" stroke="#000" stroke-opacity=".2" stroke-width="2" d="m542.12-619.1 6 2.1-6 2.1z"/></g><g class="edge"><title>src/main/report-wrap.mjs-&gt;src/graph-utl/consolidate-to-pattern.mjs</title><path fill="none" stroke="#000" stroke-opacity=".2" stroke-width="2" d="M469.75-476.29V-677h45.52"/><path fill-opacity=".2" stroke="#000" stroke-opacity=".2" stroke-width="2" d="m515.27-679.1 6 2.1-6 2.1z"/></g><g class="edge"><title>src/main/report-wrap.mjs-&gt;src/graph-utl/filter-bank.mjs</title><path fill="none" stroke="#000" stroke-opacity=".2" stroke-width="2" d="M476.75-476.02V-587h62.99"/><path fill-opacity=".2" stroke="#000" stroke-opacity=".2" stroke-width="2" d="m539.74-589.1 6 2.1-6 2.1z"/></g><g class="edge"><title>src/main/report-wrap.mjs-&gt;src/graph-utl/strip-self-transitions.mjs</title><path fill="none" stroke="#000" stroke-opacity=".2" stroke-width="2" d="M471.75-476.17V-647h48.58"/><path fill-opacity=".2" stroke="#000" stroke-opacity=".2" stroke-width="2" d="m520.33-649.1 6 2.1-6 2.1z"/></g><g class="edge"><title>src/main/report-wrap.mjs-&gt;src/report/index.mjs</title><path fill="none" stroke="#000" stroke-opacity=".2" stroke-width="2" d="M478.75-476.29v-53.67h70.05"/><path fill-opacity=".2" stroke="#000" stroke-opacity=".2" stroke-width="2" d="m548.8-532.06 6 2.1-6 2.1z"/></g><g class="edge"><title>src/main/rule-set/assert-validity.mjs-&gt;src/utl/bus.mjs</title><path fill="none" stroke="#000" stroke-opacity=".2" stroke-width="2" d="M350.75-322.29v-.95h319.51"/><path fill-opacity=".2" stroke="#000" stroke-opacity=".2" stroke-width="2" d="m670.26-325.34 6 2.1-6 2.1z"/></g><g class="edge"><title>src/main/rule-set/assert-validity.mjs-&gt;src/utl/object-util.mjs</title><path fill="none" stroke="#000" stroke-opacity=".2" stroke-width="2" d="M356.9-313h274.85v47.62h29.29"/><path fill-opacity=".2" stroke="#000" stroke-opacity=".2" stroke-width="2" d="m661.04-267.48 6 2.1-6 2.1z"/></g><g class="edge"><title>src/main/rule-set/assert-validity.mjs-&gt;src/main/options/assert-validity.mjs</title><path fill="none" stroke="#000" stroke-opacity=".2" stroke-width="2" d="M354.75-303.89v3.43h32.15"/><path fill-opacity=".2" stroke="#000" stroke-opacity=".2" stroke-width="2" d="m386.9-302.56 6 2.1-6 2.1z"/></g><g class="edge"><title>src/main/rule-set/assert-validity.mjs-&gt;src/schema/utl.mjs</title><path fill="none" stroke="#000" stroke-opacity=".2" stroke-width="2" d="M350.75-303.9v169.46h53.39"/><path fill-opacity=".2" stroke="#000" stroke-opacity=".2" stroke-width="2" d="m404.14-136.54 6 2.1-6 2.1z"/></g><g class="edge"><title>src/main/rule-set/assert-validity.mjs-&gt;src/main/helpers.mjs</title><path fill="none" stroke="#000" stroke-opacity=".2" stroke-width="2" d="M353.75-322.29V-347h191.09"/><path fill-opacity=".2" stroke="#000" stroke-opacity=".2" stroke-width="2" d="m544.84-349.1 6 2.1-6 2.1z"/></g><g class="node"><title>src/schema/configuration.validate.mjs</title><a xlink:href="src/schema/configuration.validate.mjs" xlink:title="configuration.validate.mjs">
<path fill="#ffc" stroke="#000" d="M494.83-167.88H386.42c-2.96 0-5.92 2.96-5.92 5.92v5.92c0 2.96 2.96 5.92 5.92 5.92h108.41c2.96 0 5.92-2.96 5.92-5.92v-5.92c0-2.96-2.96-5.92-5.92-5.92"/>
<text xml:space="preserve" x="388.5" y="-156.38" font-family="Helvetica,sans-Serif" font-size="9">configuration.validate.mjs</text>
</a></g><g class="edge"><title>src/main/rule-set/assert-validity.mjs-&gt;src/schema/configuration.validate.mjs</title><path fill="none" stroke="#000" stroke-opacity=".2" stroke-width="2" d="M352.75-303.83V-159h18.3"/><path fill-opacity=".2" stroke="#000" stroke-opacity=".2" stroke-width="2" d="m371.05-161.1 6 2.1-6 2.1z"/></g><g class="edge"><title>src/main/rule-set/normalize.mjs-&gt;src/utl/bus.mjs</title><path fill="none" stroke="#000" stroke-opacity=".2" stroke-width="2" d="M311.75-333.7v6.38h358.39"/><path fill-opacity=".2" stroke="#000" stroke-opacity=".2" stroke-width="2" d="m670.14-329.42 6 2.1-6 2.1z"/></g><g class="edge"><title>src/main/rule-set/normalize.mjs-&gt;src/main/helpers.mjs</title><path fill="none" stroke="#000" stroke-opacity=".2" stroke-width="2" d="M349.01-349.44h195.53"/><path fill-opacity=".2" stroke="#000" stroke-opacity=".2" stroke-width="2" d="m544.54-351.54 6 2.1-6 2.1z"/></g><g class="edge"><title>src/main/helpers.mjs-&gt;src/utl/object-util.mjs</title><path fill="none" stroke="#000" stroke-opacity=".2" stroke-width="2" d="M617.44-354h45.31v83.38h.76"/><path fill-opacity=".2" stroke="#000" stroke-opacity=".2" stroke-width="2" d="m661.37-272.73 6 2.1-6 2.1z"/></g><g class="node"><title>src/main/index.d.ts</title><a xlink:href="src/main/index.d.ts" xlink:title="index.d.ts">
<path fill="#0f0" stroke="#000" d="M74.58-310.88H31.42c-2.96 0-5.92 2.96-5.92 5.92v5.92c0 2.96 2.96 5.92 5.92 5.92h43.16c2.96 0 5.92-2.96 5.92-5.92v-5.92c0-2.96-2.96-5.92-5.92-5.92"/>
<text xml:space="preserve" x="33.5" y="-299.38" font-family="Helvetica,sans-Serif" font-size="9">index.d.ts</text>
</a></g><g class="node"><title>src/main/index.mjs</title><a xlink:href="src/main/index.mjs" xlink:title="index.mjs">
<path fill="#0f0" stroke="#000" d="M74.58-423.88H31.42c-2.96 0-5.92 2.96-5.92 5.92v5.92c0 2.96 2.96 5.92 5.92 5.92h43.16c2.96 0 5.92-2.96 5.92-5.92v-5.92c0-2.96-2.96-5.92-5.92-5.92"/>
<text xml:space="preserve" x="33.5" y="-412.38" font-family="Helvetica,sans-Serif" font-size="9">index.mjs</text>
</a></g><g class="edge"><title>src/main/index.mjs-&gt;src/extract/transpile/meta.mjs</title><path fill="none" stroke="#000" stroke-opacity=".2" stroke-width="2" d="M52.75-424.33v-457.63h351.57"/><path fill-opacity=".2" stroke="#000" stroke-opacity=".2" stroke-width="2" d="m404.32-884.06 6 2.1-6 2.1z"/></g><g class="edge"><title>src/main/index.mjs-&gt;src/main/format.mjs</title><path fill="none" stroke="#000" stroke-opacity=".2" stroke-width="2" d="M80.71-415h49.04v193.04H273.8"/><path fill-opacity=".2" stroke="#000" stroke-opacity=".2" stroke-width="2" d="m273.8-224.06 6 2.1-6 2.1z"/></g><g class="edge"><title>src/main/index.mjs-&gt;src/main/cruise.mjs</title><path fill="none" stroke="#000" stroke-opacity=".2" stroke-width="2" d="M80.85-419.44h55.51"/><path fill-opacity=".2" stroke="#000" stroke-opacity=".2" stroke-width="2" d="m136.36-421.54 6 2.1-6 2.1z"/></g></g></svg>