<svg xmlns="http://www.w3.org/2000/svg" xmlns:xlink="http://www.w3.org/1999/xlink" width="953pt" height="976" viewBox="0 0 952.88 732"><g class="graph" transform="translate(4 728)"><path fill="#fff" d="M-4 4v-732h952.88V4z"/><g class="cluster"><path fill="#fff" stroke="#000" stroke-width="2" d="M20-8h904.88c6 0 12-6 12-12v-684c0-6-6-12-12-12H20c-6 0-12 6-12 12v684c0 6 6 12 12 12"/><text x="472.44" y="-703.45" font-family="Helvetica,sans-Serif" font-size="9" font-weight="bold" text-anchor="middle">src</text></g><g class="cluster"><path fill="#fff" stroke="#000" stroke-width="2" d="M470-528h49.25c6 0 12-6 12-12v-28c0-6-6-12-12-12H470c-6 0-12 6-12 12v28c0 6 6 12 12 12"/><text x="494.62" y="-567.45" font-family="Helvetica,sans-Serif" font-size="9" font-weight="bold" text-anchor="middle">cache</text></g><g class="cluster"><path fill="#fff" stroke="#000" stroke-width="2" d="M28-315h162.25c6 0 12-6 12-12v-58c0-6-6-12-12-12H28c-6 0-12 6-12 12v58c0 6 6 12 12 12"/><text x="109.12" y="-384.45" font-family="Helvetica,sans-Serif" font-size="9" font-weight="bold" text-anchor="middle">cli</text></g><g class="cluster"><path fill="#fff" stroke="#000" stroke-width="2" d="M301.25-48h113c6 0 12-6 12-12v-62c0-6-6-12-12-12h-113c-6 0-12 6-12 12v62c0 6 6 12 12 12"/><text x="357.75" y="-121.45" font-family="Helvetica,sans-Serif" font-size="9" font-weight="bold" text-anchor="middle">config-utl</text></g><g class="cluster"><path fill="#fff" stroke="#000" stroke-width="2" d="M309.25-56h97c6 0 12-6 12-12v-28c0-6-6-12-12-12h-97c-6 0-12 6-12 12v28c0 6 6 12 12 12"/><text x="357.75" y="-95.45" font-family="Helvetica,sans-Serif" font-size="9" font-weight="bold" text-anchor="middle">extract-depcruise-config</text></g><g class="cluster"><path fill="#fff" stroke="#000" stroke-width="2" d="M599.62-450h166.63c6 0 12-6 12-12v-62c0-6-6-12-12-12H599.62c-6 0-12 6-12 12v62c0 6 6 12 12 12"/><text x="682.94" y="-523.45" font-family="Helvetica,sans-Serif" font-size="9" font-weight="bold" text-anchor="middle">enrich</text></g><g class="cluster"><path fill="#fff" stroke="#000" stroke-width="2" d="M711.25-458h47c6 0 12-6 12-12v-28c0-6-6-12-12-12h-47c-6 0-12 6-12 12v28c0 6 6 12 12 12"/><text x="734.75" y="-497.45" font-family="Helvetica,sans-Serif" font-size="9" font-weight="bold" text-anchor="middle">summarize</text></g><g class="cluster"><path fill="#fff" stroke="#000" stroke-width="2" d="M803.12-16h113.76c6 0 12-6 12-12v-148c0-6-6-12-12-12H803.12c-6 0-12 6-12 12v148c0 6 6 12 12 12"/><text x="860" y="-175.45" font-family="Helvetica,sans-Serif" font-size="9" font-weight="bold" text-anchor="middle">graph-utl</text></g><g class="cluster"><path fill="#fff" stroke="#000" stroke-width="2" d="M592.12-554h62c6 0 12-6 12-12v-88c0-6-6-12-12-12h-62c-6 0-12 6-12 12v88c0 6 6 12 12 12"/><text x="623.12" y="-653.45" font-family="Helvetica,sans-Serif" font-size="9" font-weight="bold" text-anchor="middle">extract</text></g><g class="cluster"><path fill="#fff" stroke="#000" stroke-width="2" d="M600.12-562h46c6 0 12-6 12-12v-28c0-6-6-12-12-12h-46c-6 0-12 6-12 12v28c0 6 6 12 12 12"/><text x="623.12" y="-601.45" font-family="Helvetica,sans-Serif" font-size="9" font-weight="bold" text-anchor="middle">transpile</text></g><g class="cluster"><path fill="#fff" stroke="#000" stroke-width="2" d="M222.25-142h548.87c6 0 12-6 12-12v-276c0-6-6-12-12-12H222.25c-6 0-12 6-12 12v276c0 6 6 12 12 12"/><text x="496.69" y="-429.45" font-family="Helvetica,sans-Serif" font-size="9" font-weight="bold" text-anchor="middle">main</text></g><g class="cluster"><path fill="#fff" stroke="#000" stroke-width="2" d="M462.12-274h65c6 0 12-6 12-12v-28c0-6-6-12-12-12h-65c-6 0-12 6-12 12v28c0 6 6 12 12 12"/><text x="494.62" y="-313.45" font-family="Helvetica,sans-Serif" font-size="9" font-weight="bold" text-anchor="middle">files-and-dirs</text></g><g class="cluster"><path fill="#fff" stroke="#000" stroke-width="2" d="M582.75-218h180.37c6 0 12-6 12-12v-58c0-6-6-12-12-12H582.75c-6 0-12 6-12 12v58c0 6 6 12 12 12"/><text x="672.94" y="-287.45" font-family="Helvetica,sans-Serif" font-size="9" font-weight="bold" text-anchor="middle">options</text></g><g class="cluster"><path fill="#fff" stroke="#000" stroke-width="2" d="M462.12-176h65c6 0 12-6 12-12v-28c0-6-6-12-12-12h-65c-6 0-12 6-12 12v28c0 6 6 12 12 12"/><text x="494.62" y="-215.45" font-family="Helvetica,sans-Serif" font-size="9" font-weight="bold" text-anchor="middle">resolve-options</text></g><g class="cluster"><path fill="#fff" stroke="#000" stroke-width="2" d="M454.25-334H535c6 0 12-6 12-12v-58c0-6-6-12-12-12h-80.75c-6 0-12 6-12 12v58c0 6 6 12 12 12"/><text x="494.62" y="-403.45" font-family="Helvetica,sans-Serif" font-size="9" font-weight="bold" text-anchor="middle">rule-set</text></g><g class="cluster"><path fill="#fff" stroke="#000" stroke-width="2" d="M711.25-82h47c6 0 12-6 12-12v-28c0-6-6-12-12-12h-47c-6 0-12 6-12 12v28c0 6 6 12 12 12"/><text x="734.75" y="-121.45" font-family="Helvetica,sans-Serif" font-size="9" font-weight="bold" text-anchor="middle">report</text></g><g class="cluster"><path fill="#fff" stroke="#000" stroke-width="2" d="M567-16h112.25c6 0 12-6 12-12v-58c0-6-6-12-12-12H567c-6 0-12 6-12 12v58c0 6 6 12 12 12"/><text x="623.12" y="-85.45" font-family="Helvetica,sans-Serif" font-size="9" font-weight="bold" text-anchor="middle">schema</text></g><g class="cluster"><path fill="#fff" stroke="#000" stroke-width="2" d="M711.75-626h46c6 0 12-6 12-12v-28c0-6-6-12-12-12h-46c-6 0-12 6-12 12v28c0 6 6 12 12 12"/><text x="734.75" y="-665.45" font-family="Helvetica,sans-Serif" font-size="9" font-weight="bold" text-anchor="middle">utl</text></g><g class="node"><a xlink:href="src/cache/cache.mjs" xlink:title="cache.mjs"><path fill="#d3d3d3" stroke="#000" d="M517.33-553.88h-45.41c-2.96 0-5.92 2.96-5.92 5.92v5.92c0 2.96 2.96 5.92 5.92 5.92h45.41c2.96 0 5.92-2.96 5.92-5.92v-5.92c0-2.96-2.96-5.92-5.92-5.92"/><text x="474" y="-541.33" fill="gray" font-family="Helvetica,sans-Serif" font-size="9">cache.mjs</text></a></g><g class="node"><a xlink:href="src/extract/transpile/meta.mjs" xlink:title="meta.mjs"><path fill="#d3d3d3" stroke="#000" d="M644.21-587.88h-42.17c-2.96 0-5.92 2.96-5.92 5.92v5.92c0 2.96 2.96 5.92 5.92 5.92h42.17c2.96 0 5.91-2.96 5.91-5.92v-5.92c0-2.96-2.95-5.92-5.91-5.92"/><text x="604.75" y="-575.33" fill="gray" font-family="Helvetica,sans-Serif" font-size="9">meta.mjs</text></a></g><g class="edge"><path fill="none" stroke="#000" stroke-opacity=".2" stroke-width="2" d="M523.63-547.96h100.25v-12.87"/><path fill-opacity=".2" stroke="#000" stroke-opacity=".2" stroke-width="2" d="m621.78-560.83 2.1-6 2.1 6z"/></g><g class="node"><a xlink:href="src/utl/bus.mjs" xlink:title="bus.mjs"><path fill="#d3d3d3" stroke="#000" d="M755.83-651.88h-42.16c-2.96 0-5.92 2.96-5.92 5.92v5.92c0 2.96 2.96 5.92 5.92 5.92h42.16c2.96 0 5.92-2.96 5.92-5.92v-5.92c0-2.96-2.96-5.92-5.92-5.92"/><text x="719" y="-639.33" fill="gray" font-family="Helvetica,sans-Serif" font-size="9">bus.mjs</text></a></g><g class="edge"><path fill="none" stroke="#000" stroke-opacity=".2" stroke-width="2" d="M523.6-542.04h211.28v-82.62"/><path fill-opacity=".2" stroke="#000" stroke-opacity=".2" stroke-width="2" d="m732.78-624.66 2.1-6 2.1 6z"/></g><g class="node"><a xlink:href="src/cli/format-meta-info.mjs" xlink:title="format-meta-info.mjs"><path fill="#d3d3d3" stroke="#000" d="M188.33-370.88h-87.41c-2.96 0-5.92 2.96-5.92 5.92v5.92c0 2.96 2.96 5.92 5.92 5.92h87.41c2.96 0 5.92-2.96 5.92-5.92v-5.92c0-2.96-2.96-5.92-5.92-5.92"/><text x="103" y="-358.32" fill="gray" font-family="Helvetica,sans-Serif" font-size="9">format-meta-info.mjs</text></a></g><g class="node"><a xlink:href="src/main/index.mjs" xlink:title="index.mjs"><path fill="#0f0" stroke="#000" d="M267.33-385.88h-43.16c-2.96 0-5.92 2.96-5.92 5.92v5.92c0 2.96 2.96 5.92 5.92 5.92h43.16c2.96 0 5.92-2.96 5.92-5.92v-5.92c0-2.96-2.96-5.92-5.92-5.92"/><text x="226.25" y="-373.32" font-family="Helvetica,sans-Serif" font-size="9">index.mjs</text></a></g><g class="edge"><path fill="none" stroke="#000" stroke-opacity=".2" stroke-width="2" d="M194.66-364h51.22v-.38"/><path fill-opacity=".2" stroke="#000" stroke-opacity=".2" stroke-width="2" d="m243.78-358.8 2.1-6 2.1 6z"/></g><g class="edge"><path fill="none" stroke="#000" stroke-opacity=".2" stroke-width="2" d="M245.88-386.34v-195.62h340.78"/><path fill-opacity=".2" stroke="#000" stroke-opacity=".2" stroke-width="2" d="m586.66-584.06 6 2.1-6 2.1z"/></g><g class="node"><a xlink:href="src/main/format.mjs" xlink:title="format.mjs"><path fill="#0f0" stroke="#000" d="M517.71-167.88h-46.17c-2.96 0-5.92 2.96-5.92 5.92v5.92c0 2.96 2.96 5.92 5.92 5.92h46.17c2.96 0 5.91-2.96 5.91-5.92v-5.92c0-2.96-2.95-5.92-5.91-5.92"/><text x="473.62" y="-155.32" font-family="Helvetica,sans-Serif" font-size="9">format.mjs</text></a></g><g class="edge"><path fill="none" stroke="#000" stroke-opacity=".2" stroke-width="2" d="M273.48-375.56h28.4v213.6h154.44"/><path fill-opacity=".2" stroke="#000" stroke-opacity=".2" stroke-width="2" d="m456.32-164.06 6 2.1-6 2.1z"/></g><g class="node"><a xlink:href="src/main/cruise.mjs" xlink:title="cruise.mjs"><path fill="#0f0" stroke="#000" d="M380.46-359.88h-45.42c-2.96 0-5.92 2.96-5.92 5.92v5.92c0 2.96 2.96 5.92 5.92 5.92h45.42c2.96 0 5.92-2.96 5.92-5.92v-5.92c0-2.96-2.96-5.92-5.92-5.92"/><text x="337.12" y="-347.32" font-family="Helvetica,sans-Serif" font-size="9">cruise.mjs</text></a></g><g class="edge"><path fill="none" stroke="#000" stroke-opacity=".2" stroke-width="2" d="M273.59-382.44h63.29v13.15"/><path fill-opacity=".2" stroke="#000" stroke-opacity=".2" stroke-width="2" d="m338.98-369.29-2.1 6-2.1-6z"/></g><g class="node"><a xlink:href="src/cli/format.mjs" xlink:title="format.mjs"><path fill="#d3d3d3" stroke="#000" d="M76.08-340.88H29.92c-2.96 0-5.92 2.96-5.92 5.92v5.92c0 2.96 2.96 5.92 5.92 5.92h46.16c2.96 0 5.92-2.96 5.92-5.92v-5.92c0-2.96-2.96-5.92-5.92-5.92"/><text x="32" y="-328.32" fill="gray" font-family="Helvetica,sans-Serif" font-size="9">format.mjs</text></a></g><g class="edge"><path fill="none" stroke="#000" stroke-opacity=".2" stroke-width="2" d="M53.88-323.03v166.99h402.46"/><path fill-opacity=".2" stroke="#000" stroke-opacity=".2" stroke-width="2" d="m456.34-158.14 6 2.1-6 2.1z"/></g><g class="node"><a xlink:href="src/main/options/assert-validity.mjs" xlink:title="assert-validity.mjs"><path fill="#0f0" stroke="#000" d="M661.58-273.88h-76.91c-2.96 0-5.92 2.96-5.92 5.92v5.92c0 2.96 2.96 5.92 5.92 5.92h76.91c2.96 0 5.92-2.96 5.92-5.92v-5.92c0-2.96-2.96-5.92-5.92-5.92"/><text x="586.75" y="-261.32" font-family="Helvetica,sans-Serif" font-size="9">assert-validity.mjs</text></a></g><g class="edge"><path fill="none" stroke="#000" stroke-opacity=".2" stroke-width="2" d="M523.92-163.44h27.96v-97.12h17.5"/><path fill-opacity=".2" stroke="#000" stroke-opacity=".2" stroke-width="2" d="m569.38-262.66 6 2.1-6 2.1z"/></g><g class="node"><a xlink:href="src/main/options/normalize.mjs" xlink:title="normalize.mjs"><path fill="#0f0" stroke="#000" d="M653.71-243.88h-61.17c-2.96 0-5.92 2.96-5.92 5.92v5.92c0 2.96 2.96 5.92 5.92 5.92h61.17c2.96 0 5.91-2.96 5.91-5.92v-5.92c0-2.96-2.95-5.92-5.91-5.92"/><text x="594.62" y="-231.32" font-family="Helvetica,sans-Serif" font-size="9">normalize.mjs</text></a></g><g class="edge"><path fill="none" stroke="#000" stroke-opacity=".2" stroke-width="2" d="M524.03-159h33.85v-73.04h19.4"/><path fill-opacity=".2" stroke="#000" stroke-opacity=".2" stroke-width="2" d="m577.28-234.14 6 2.1-6 2.1z"/></g><g class="node"><a xlink:href="src/main/report-wrap.mjs" xlink:title="report-wrap.mjs"><path fill="#0f0" stroke="#000" d="M657.08-167.88h-67.91c-2.96 0-5.92 2.96-5.92 5.92v5.92c0 2.96 2.96 5.92 5.92 5.92h67.91c2.96 0 5.92-2.96 5.92-5.92v-5.92c0-2.96-2.96-5.92-5.92-5.92"/><text x="591.25" y="-155.32" font-family="Helvetica,sans-Serif" font-size="9">report-wrap.mjs</text></a></g><g class="edge"><path fill="none" stroke="#000" stroke-opacity=".2" stroke-width="2" d="M524.11-154.56h49.93"/><path fill-opacity=".2" stroke="#000" stroke-opacity=".2" stroke-width="2" d="m574.04-156.66 6 2.1-6 2.1z"/></g><g class="node"><a xlink:href="src/schema/cruise-result.schema.mjs" xlink:title="cruise-result.schema.mjs"><path fill="#d3d3d3" stroke="#000" d="M675.83-41.88H570.42c-2.96 0-5.92 2.96-5.92 5.92v5.92c0 2.96 2.96 5.92 5.92 5.92h105.41c2.96 0 5.92-2.96 5.92-5.92v-5.92c0-2.96-2.96-5.92-5.92-5.92"/><text x="572.5" y="-29.32" fill="gray" font-family="Helvetica,sans-Serif" font-size="9">cruise-result.schema.mjs</text></a></g><g class="edge"><path fill="none" stroke="#000" stroke-opacity=".2" stroke-width="2" d="M494.88-149.94V-33h60.35"/><path fill-opacity=".2" stroke="#000" stroke-opacity=".2" stroke-width="2" d="m555.23-35.1 6 2.1-6 2.1z"/></g><g class="node"><a xlink:href="src/cli/index.mjs" xlink:title="index.mjs"><path fill="#d3d3d3" stroke="#000" d="M74.58-370.88H31.42c-2.96 0-5.92 2.96-5.92 5.92v5.92c0 2.96 2.96 5.92 5.92 5.92h43.16c2.96 0 5.92-2.96 5.92-5.92v-5.92c0-2.96-2.96-5.92-5.92-5.92"/><text x="33.5" y="-358.32" fill="gray" font-family="Helvetica,sans-Serif" font-size="9">index.mjs</text></a></g><g class="edge"><path fill="none" stroke="#000" stroke-opacity=".2" stroke-width="2" d="M43.88-371.22v-277.66h654.76"/><path fill-opacity=".2" stroke="#000" stroke-opacity=".2" stroke-width="2" d="m698.64-650.98 6 2.1-6 2.1z"/></g><g class="edge"><path fill="none" stroke="#000" stroke-dasharray="5,2" stroke-opacity=".2" stroke-width="2" d="M80.99-362h4.82"/><path fill-opacity=".2" stroke="#000" stroke-opacity=".2" stroke-width="2" d="m85.81-364.1 6 2.1-6 2.1z"/></g><g class="edge"><path fill="none" stroke="#000" stroke-opacity=".2" stroke-width="2" d="M62.88-371.17V-426h281v56.78"/><path fill-opacity=".2" stroke="#000" stroke-opacity=".2" stroke-width="2" d="m345.98-369.22-2.1 6-2.1-6z"/></g><g class="edge"><path fill="none" stroke="#000" stroke-dasharray="5,2" stroke-opacity=".2" stroke-width="2" d="M365.88-360.36V-545h90.82"/><path fill-opacity=".2" stroke="#000" stroke-opacity=".2" stroke-width="2" d="m456.7-547.1 6 2.1-6 2.1z"/></g><g class="edge"><path fill="none" stroke="#000" stroke-opacity=".2" stroke-width="2" d="M350.88-360.15v-285.73h347.54"/><path fill-opacity=".2" stroke="#000" stroke-opacity=".2" stroke-width="2" d="m698.42-647.98 6 2.1-6 2.1z"/></g><g class="node"><a xlink:href="src/main/resolve-options/normalize.mjs" xlink:title="normalize.mjs"><path fill="#0f0" stroke="#000" d="M525.21-201.88h-61.17c-2.96 0-5.92 2.96-5.92 5.92v5.92c0 2.96 2.96 5.92 5.92 5.92h61.17c2.96 0 5.91-2.96 5.91-5.92v-5.92c0-2.96-2.95-5.92-5.91-5.92"/><text x="466.12" y="-189.32" font-family="Helvetica,sans-Serif" font-size="9">normalize.mjs</text></a></g><g class="edge"><path fill="none" stroke="#000" stroke-dasharray="5,2" stroke-opacity=".2" stroke-width="2" d="M348.88-342.05V-193h99.94"/><path fill-opacity=".2" stroke="#000" stroke-opacity=".2" stroke-width="2" d="m448.82-195.1 6 2.1-6 2.1z"/></g><g class="node"><a xlink:href="src/enrich/index.mjs" xlink:title="index.mjs"><path fill="#d3d3d3" stroke="#000" d="M644.71-479.88h-43.17c-2.96 0-5.92 2.96-5.92 5.92v5.92c0 2.96 2.96 5.92 5.92 5.92h43.17c2.96 0 5.91-2.96 5.91-5.92v-5.92c0-2.96-2.95-5.92-5.91-5.92"/><text x="603.62" y="-467.32" fill="gray" font-family="Helvetica,sans-Serif" font-size="9">index.mjs</text></a></g><g class="edge"><path fill="none" stroke="#000" stroke-dasharray="5,2" stroke-opacity=".2" stroke-width="2" d="M372.88-360.02V-471h213.48"/><path fill-opacity=".2" stroke="#000" stroke-opacity=".2" stroke-width="2" d="m586.36-473.1 6 2.1-6 2.1z"/></g><g class="node"><a xlink:href="src/extract/index.mjs" xlink:title="index.mjs"><path fill="#d3d3d3" stroke="#000" d="M644.71-639.88h-43.17c-2.96 0-5.92 2.96-5.92 5.92v5.92c0 2.96 2.96 5.92 5.92 5.92h43.17c2.96 0 5.91-2.96 5.91-5.92v-5.92c0-2.96-2.95-5.92-5.91-5.92"/><text x="603.62" y="-627.33" fill="gray" font-family="Helvetica,sans-Serif" font-size="9">index.mjs</text></a></g><g class="edge"><path fill="none" stroke="#000" stroke-dasharray="5,2" stroke-opacity=".2" stroke-width="2" d="M357.88-360.32V-631h228.33"/><path fill-opacity=".2" stroke="#000" stroke-opacity=".2" stroke-width="2" d="m586.21-633.1 6 2.1-6 2.1z"/></g><g class="node"><a xlink:href="src/main/files-and-dirs/normalize.mjs" xlink:title="normalize.mjs"><path fill="#0f0" stroke="#000" d="M525.21-299.88h-61.17c-2.96 0-5.92 2.96-5.92 5.92v5.92c0 2.96 2.96 5.92 5.92 5.92h61.17c2.96 0 5.91-2.96 5.91-5.92v-5.92c0-2.96-2.95-5.92-5.91-5.92"/><text x="466.12" y="-287.32" font-family="Helvetica,sans-Serif" font-size="9">normalize.mjs</text></a></g><g class="edge"><path fill="none" stroke="#000" stroke-dasharray="5,2" stroke-opacity=".2" stroke-width="2" d="M376.88-341.62V-291h71.78"/><path fill-opacity=".2" stroke="#000" stroke-opacity=".2" stroke-width="2" d="m448.66-293.1 6 2.1-6 2.1z"/></g><g class="edge"><path fill="none" stroke="#000" stroke-opacity=".2" stroke-width="2" d="M367.88-341.8v76.8h201.46"/><path fill-opacity=".2" stroke="#000" stroke-opacity=".2" stroke-width="2" d="m569.34-267.1 6 2.1-6 2.1z"/></g><g class="edge"><path fill="none" stroke="#000" stroke-opacity=".2" stroke-width="2" d="M357.88-341.75v103.79h219.34"/><path fill-opacity=".2" stroke="#000" stroke-opacity=".2" stroke-width="2" d="m577.22-240.06 6 2.1-6 2.1z"/></g><g class="edge"><path fill="none" stroke="#000" stroke-opacity=".2" stroke-width="2" d="M339.88-341.74v163.03h272v1.75"/><path fill-opacity=".2" stroke="#000" stroke-opacity=".2" stroke-width="2" d="m613.98-176.96-2.1 6-2.1-6z"/></g><g class="node"><a xlink:href="src/main/rule-set/assert-validity.mjs" xlink:title="assert-validity.mjs"><path fill="#0f0" stroke="#000" d="M533.08-359.88h-76.91c-2.96 0-5.92 2.96-5.92 5.92v5.92c0 2.96 2.96 5.92 5.92 5.92h76.91c2.96 0 5.92-2.96 5.92-5.92v-5.92c0-2.96-2.96-5.92-5.92-5.92"/><text x="458.25" y="-347.32" font-family="Helvetica,sans-Serif" font-size="9">assert-validity.mjs</text></a></g><g class="edge"><path fill="none" stroke="#000" stroke-dasharray="5,2" stroke-opacity=".2" stroke-width="2" d="M386.78-351h54.2"/><path fill-opacity=".2" stroke="#000" stroke-opacity=".2" stroke-width="2" d="m440.98-353.1 6 2.1-6 2.1z"/></g><g class="node"><a xlink:href="src/main/rule-set/normalize.mjs" xlink:title="normalize.mjs"><path fill="#0f0" stroke="#000" d="M525.21-389.88h-61.17c-2.96 0-5.92 2.96-5.92 5.92v5.92c0 2.96 2.96 5.92 5.92 5.92h61.17c2.96 0 5.91-2.96 5.91-5.92v-5.92c0-2.96-2.95-5.92-5.91-5.92"/><text x="466.12" y="-377.32" font-family="Helvetica,sans-Serif" font-size="9">normalize.mjs</text></a></g><g class="edge"><path fill="none" stroke="#000" stroke-dasharray="5,2" stroke-opacity=".2" stroke-width="2" d="M379.88-360.17V-379h68.78"/><path fill-opacity=".2" stroke="#000" stroke-opacity=".2" stroke-width="2" d="m448.66-381.1 6 2.1-6 2.1z"/></g><g class="node"><a xlink:href="src/config-utl/extract-depcruise-config/index.mjs" xlink:title="index.mjs"><path fill="#d3d3d3" stroke="#000" d="M379.33-81.88h-43.16c-2.96 0-5.92 2.96-5.92 5.92v5.92c0 2.96 2.96 5.92 5.92 5.92h43.16c2.96 0 5.92-2.96 5.92-5.92v-5.92c0-2.96-2.96-5.92-5.92-5.92"/><text x="338.25" y="-69.33" fill="gray" font-family="Helvetica,sans-Serif" font-size="9">index.mjs</text></a></g><g class="edge"><path fill="none" stroke="#000" stroke-opacity=".2" stroke-width="2" d="M385.65-76.88h76.23v-97.98"/><path fill-opacity=".2" stroke="#000" stroke-opacity=".2" stroke-width="2" d="m459.78-174.86 2.1-6 2.1 6z"/></g><g class="edge"><path fill="none" stroke="#000" stroke-opacity=".2" stroke-width="2" d="M531.6-195.96h14.28v-380.08h40.76"/><path fill-opacity=".2" stroke="#000" stroke-opacity=".2" stroke-width="2" d="m586.64-578.14 6 2.1-6 2.1z"/></g><g class="node"><a xlink:href="src/graph-utl/rule-set.mjs" xlink:title="rule-set.mjs"><path fill="#d3d3d3" stroke="#000" d="M885.71-41.88h-51.42c-2.96 0-5.91 2.96-5.91 5.92v5.92c0 2.96 2.95 5.92 5.91 5.92h51.42c2.96 0 5.91-2.96 5.91-5.92v-5.92c0-2.96-2.95-5.92-5.91-5.92"/><text x="836.38" y="-29.32" fill="gray" font-family="Helvetica,sans-Serif" font-size="9">rule-set.mjs</text></a></g><g class="edge"><path fill="none" stroke="#000" stroke-opacity=".2" stroke-width="2" d="M531.39-190.04h244.49V-33h43.29"/><path fill-opacity=".2" stroke="#000" stroke-opacity=".2" stroke-width="2" d="m819.17-35.1 6 2.1-6 2.1z"/></g><g class="node"><a xlink:href="src/enrich/summarize/index.mjs" xlink:title="index.mjs"><path fill="#d3d3d3" stroke="#000" d="M756.33-483.88h-43.16c-2.96 0-5.92 2.96-5.92 5.92v5.92c0 2.96 2.96 5.92 5.92 5.92h43.16c2.96 0 5.92-2.96 5.92-5.92v-5.92c0-2.96-2.96-5.92-5.92-5.92"/><text x="715.25" y="-471.32" fill="gray" font-family="Helvetica,sans-Serif" font-size="9">index.mjs</text></a></g><g class="edge"><path fill="none" stroke="#000" stroke-opacity=".2" stroke-width="2" d="M651-475.29h46.81"/><path fill-opacity=".2" stroke="#000" stroke-opacity=".2" stroke-width="2" d="m697.81-477.39 6 2.1-6 2.1z"/></g><g class="node"><a xlink:href="src/graph-utl/compare.mjs" xlink:title="compare.mjs"><path fill="#d3d3d3" stroke="#000" d="M888.33-161.88h-56.66c-2.96 0-5.92 2.96-5.92 5.92v5.92c0 2.96 2.96 5.92 5.92 5.92h56.66c2.96 0 5.92-2.96 5.92-5.92v-5.92c0-2.96-2.96-5.92-5.92-5.92"/><text x="833.75" y="-149.32" fill="gray" font-family="Helvetica,sans-Serif" font-size="9">compare.mjs</text></a></g><g class="edge"><path fill="none" stroke="#000" stroke-opacity=".2" stroke-width="2" d="M762.74-475h98.14v303.68"/><path fill-opacity=".2" stroke="#000" stroke-opacity=".2" stroke-width="2" d="m862.98-171.32-2.1 6-2.1-6z"/></g><g class="edge"><path fill="none" stroke="#000" stroke-opacity=".2" stroke-width="2" d="M623.88-640.12v-2.76h74.44"/><path fill-opacity=".2" stroke="#000" stroke-opacity=".2" stroke-width="2" d="m698.32-644.98 6 2.1-6 2.1z"/></g><g class="node"><a xlink:href="src/graph-utl/consolidate-to-pattern.mjs" xlink:title="consolidate-to-pattern.mjs"><path fill="#d3d3d3" stroke="#000" d="M914.96-131.88H805.04c-2.96 0-5.92 2.96-5.92 5.92v5.92c0 2.96 2.96 5.92 5.92 5.92h109.92c2.96 0 5.92-2.96 5.92-5.92v-5.92c0-2.96-2.96-5.92-5.92-5.92"/><text x="807.12" y="-119.33" fill="gray" font-family="Helvetica,sans-Serif" font-size="9">consolidate-to-pattern.mjs</text></a></g><g class="node"><a xlink:href="src/graph-utl/filter-bank.mjs" xlink:title="filter-bank.mjs"><path fill="#d3d3d3" stroke="#000" d="M890.58-71.88h-61.16c-2.96 0-5.92 2.96-5.92 5.92v5.92c0 2.96 2.96 5.92 5.92 5.92h61.16c2.96 0 5.92-2.96 5.92-5.92v-5.92c0-2.96-2.96-5.92-5.92-5.92"/><text x="831.5" y="-59.33" fill="gray" font-family="Helvetica,sans-Serif" font-size="9">filter-bank.mjs</text></a></g><g class="node"><a xlink:href="src/graph-utl/strip-self-transitions.mjs" xlink:title="strip-self-transitions.mjs"><path fill="#d3d3d3" stroke="#000" d="M910.08-101.88H809.92c-2.96 0-5.92 2.96-5.92 5.92v5.92c0 2.96 2.96 5.92 5.92 5.92h100.16c2.96 0 5.92-2.96 5.92-5.92v-5.92c0-2.96-2.96-5.92-5.92-5.92"/><text x="812" y="-89.33" fill="gray" font-family="Helvetica,sans-Serif" font-size="9">strip-self-transitions.mjs</text></a></g><g class="node"><a xlink:href="src/report/index.mjs" xlink:title="index.mjs"><path fill="#d3d3d3" stroke="#000" d="M756.33-107.88h-43.16c-2.96 0-5.92 2.96-5.92 5.92v5.92c0 2.96 2.96 5.92 5.92 5.92h43.16c2.96 0 5.92-2.96 5.92-5.92v-5.92c0-2.96-2.96-5.92-5.92-5.92"/><text x="715.25" y="-95.33" fill="gray" font-family="Helvetica,sans-Serif" font-size="9">index.mjs</text></a></g><g class="edge"><path fill="none" stroke="#000" stroke-opacity=".2" stroke-width="2" d="M667.92-265h4.96v166h25.16"/><path fill-opacity=".2" stroke="#000" stroke-opacity=".2" stroke-width="2" d="m698.04-101.1 6 2.1-6 2.1z"/></g><g class="node"><a xlink:href="src/main/helpers.mjs" xlink:title="helpers.mjs"><path fill="#0f0" stroke="#000" d="M760.46-359.88h-51.42c-2.96 0-5.92 2.96-5.92 5.92v5.92c0 2.96 2.96 5.92 5.92 5.92h51.42c2.96 0 5.92-2.96 5.92-5.92v-5.92c0-2.96-2.96-5.92-5.92-5.92"/><text x="711.12" y="-347.32" font-family="Helvetica,sans-Serif" font-size="9">helpers.mjs</text></a></g><g class="edge"><path fill="none" stroke="#000" stroke-opacity=".2" stroke-width="2" d="M660-237.96h18.88v-110.08h14.99"/><path fill-opacity=".2" stroke="#000" stroke-opacity=".2" stroke-width="2" d="m693.87-350.14 6 2.1-6 2.1z"/></g><g class="node"><a xlink:href="src/main/options/defaults.mjs" xlink:title="defaults.mjs"><path fill="#0f0" stroke="#000" d="M761.21-243.88h-52.92c-2.96 0-5.91 2.96-5.91 5.92v5.92c0 2.96 2.95 5.92 5.91 5.92h52.92c2.96 0 5.91-2.96 5.91-5.92v-5.92c0-2.96-2.95-5.92-5.91-5.92"/><text x="710.38" y="-231.32" font-family="Helvetica,sans-Serif" font-size="9">defaults.mjs</text></a></g><g class="edge"><path fill="none" stroke="#000" stroke-opacity=".2" stroke-width="2" d="M659.98-232.04h33.05"/><path fill-opacity=".2" stroke="#000" stroke-opacity=".2" stroke-width="2" d="m693.03-234.14 6 2.1-6 2.1z"/></g><g class="edge"><path fill="none" stroke="#000" stroke-opacity=".2" stroke-width="2" d="M635.88-168.13v-5.16h57v-297.42h5.14"/><path fill-opacity=".2" stroke="#000" stroke-opacity=".2" stroke-width="2" d="m698.02-472.81 6 2.1-6 2.1z"/></g><g class="edge"><path fill="none" stroke="#000" stroke-opacity=".2" stroke-width="2" d="M663.31-159.92h153.07"/><path fill-opacity=".2" stroke="#000" stroke-opacity=".2" stroke-width="2" d="m816.38-162.02 6 2.1-6 2.1z"/></g><g class="edge"><path fill="none" stroke="#000" stroke-opacity=".2" stroke-width="2" d="M663.37-157.96h149.51v16.75"/><path fill-opacity=".2" stroke="#000" stroke-opacity=".2" stroke-width="2" d="m814.98-141.21-2.1 6-2.1-6z"/></g><g class="edge"><path fill="none" stroke="#000" stroke-opacity=".2" stroke-width="2" d="M663.27-154.04h120.61V-63h30.37"/><path fill-opacity=".2" stroke="#000" stroke-opacity=".2" stroke-width="2" d="m814.25-65.1 6 2.1-6 2.1z"/></g><g class="edge"><path fill="none" stroke="#000" stroke-opacity=".2" stroke-width="2" d="M663.12-156h128.76v60h2.83"/><path fill-opacity=".2" stroke="#000" stroke-opacity=".2" stroke-width="2" d="m794.71-98.1 6 2.1-6 2.1z"/></g><g class="edge"><path fill="none" stroke="#000" stroke-opacity=".2" stroke-width="2" d="M663.47-152.08h71.41v34.81"/><path fill-opacity=".2" stroke="#000" stroke-opacity=".2" stroke-width="2" d="m736.98-117.27-2.1 6-2.1-6z"/></g><g class="edge"><path fill="none" stroke="#000" stroke-opacity=".2" stroke-width="2" d="M536.88-341.64v72.2h32.58"/><path fill-opacity=".2" stroke="#000" stroke-opacity=".2" stroke-width="2" d="m569.46-271.54 6 2.1-6 2.1z"/></g><g class="edge"><path fill="none" stroke="#000" stroke-opacity=".2" stroke-width="2" d="M539.23-353.96h154.41"/><path fill-opacity=".2" stroke="#000" stroke-opacity=".2" stroke-width="2" d="m693.64-356.06 6 2.1-6 2.1z"/></g><g class="node"><a xlink:href="src/schema/configuration.schema.mjs" xlink:title="configuration.schema.mjs"><path fill="#d3d3d3" stroke="#000" d="M677.33-71.88H568.92c-2.96 0-5.92 2.96-5.92 5.92v5.92c0 2.96 2.96 5.92 5.92 5.92h108.41c2.96 0 5.92-2.96 5.92-5.92v-5.92c0-2.96-2.96-5.92-5.92-5.92"/><text x="571" y="-59.33" fill="gray" font-family="Helvetica,sans-Serif" font-size="9">configuration.schema.mjs</text></a></g><g class="edge"><path fill="none" stroke="#000" stroke-opacity=".2" stroke-width="2" d="M533.88-341.9V-68h19.7"/><path fill-opacity=".2" stroke="#000" stroke-opacity=".2" stroke-width="2" d="m553.58-70.1 6 2.1-6 2.1z"/></g><g class="edge"><path fill="none" stroke="#000" stroke-opacity=".2" stroke-width="2" d="M531.38-381h203.5v11.81"/><path fill-opacity=".2" stroke="#000" stroke-opacity=".2" stroke-width="2" d="m736.98-369.19-2.1 6-2.1-6z"/></g><g class="node"><a xlink:href="src/main/index.d.ts" xlink:title="index.d.ts"><path fill="#0f0" stroke="#000" d="M267.33-355.88h-43.16c-2.96 0-5.92 2.96-5.92 5.92v5.92c0 2.96 2.96 5.92 5.92 5.92h43.16c2.96 0 5.92-2.96 5.92-5.92v-5.92c0-2.96-2.96-5.92-5.92-5.92"/><text x="226.25" y="-343.32" font-family="Helvetica,sans-Serif" font-size="9">index.d.ts</text></a></g></g></svg>