<svg xmlns="http://www.w3.org/2000/svg" xmlns:xlink="http://www.w3.org/1999/xlink" width="1272" height="718pt" viewBox="0 0 953.62 718"><g class="graph" transform="translate(4 714)"><path fill="#fff" d="M-4 4v-718h953.62V4z"/><g class="cluster"><path fill="#fff" stroke="#000" stroke-width="2" d="M20-8h905.62c6 0 12-6 12-12v-670c0-6-6-12-12-12H20c-6 0-12 6-12 12v670c0 6 6 12 12 12"/><text x="472.81" y="-689.45" font-family="Helvetica,sans-Serif" font-size="9" font-weight="bold" text-anchor="middle">src</text></g><g class="cluster"><path fill="#fff" stroke="#000" stroke-width="2" d="M470.75-530H520c6 0 12-6 12-12v-28c0-6-6-12-12-12h-49.25c-6 0-12 6-12 12v28c0 6 6 12 12 12"/><text x="495.38" y="-569.45" font-family="Helvetica,sans-Serif" font-size="9" font-weight="bold" text-anchor="middle">cache</text></g><g class="cluster"><path fill="#fff" stroke="#000" stroke-width="2" d="M28-376h162.25c6 0 12-6 12-12v-58c0-6-6-12-12-12H28c-6 0-12 6-12 12v58c0 6 6 12 12 12"/><text x="109.12" y="-445.45" font-family="Helvetica,sans-Serif" font-size="9" font-weight="bold" text-anchor="middle">cli</text></g><g class="cluster"><path fill="#fff" stroke="#000" stroke-width="2" d="M301.25-124H415c6 0 12-6 12-12v-62c0-6-6-12-12-12H301.25c-6 0-12 6-12 12v62c0 6 6 12 12 12"/><text x="358.12" y="-197.45" font-family="Helvetica,sans-Serif" font-size="9" font-weight="bold" text-anchor="middle">config-utl</text></g><g class="cluster"><path fill="#fff" stroke="#000" stroke-width="2" d="M309.25-132H407c6 0 12-6 12-12v-28c0-6-6-12-12-12h-97.75c-6 0-12 6-12 12v28c0 6 6 12 12 12"/><text x="358.12" y="-171.45" font-family="Helvetica,sans-Serif" font-size="9" font-weight="bold" text-anchor="middle">extract-depcruise-config</text></g><g class="cluster"><path fill="#fff" stroke="#000" stroke-width="2" d="M600.38-26H767c6 0 12-6 12-12v-62c0-6-6-12-12-12H600.38c-6 0-12 6-12 12v62c0 6 6 12 12 12"/><text x="683.69" y="-99.45" font-family="Helvetica,sans-Serif" font-size="9" font-weight="bold" text-anchor="middle">enrich</text></g><g class="cluster"><path fill="#fff" stroke="#000" stroke-width="2" d="M712-34h47c6 0 12-6 12-12v-28c0-6-6-12-12-12h-47c-6 0-12 6-12 12v28c0 6 6 12 12 12"/><text x="735.5" y="-73.45" font-family="Helvetica,sans-Serif" font-size="9" font-weight="bold" text-anchor="middle">summarize</text></g><g class="cluster"><path fill="#fff" stroke="#000" stroke-width="2" d="M592.88-540h62c6 0 12-6 12-12v-88c0-6-6-12-12-12h-62c-6 0-12 6-12 12v88c0 6 6 12 12 12"/><text x="623.88" y="-639.45" font-family="Helvetica,sans-Serif" font-size="9" font-weight="bold" text-anchor="middle">extract</text></g><g class="cluster"><path fill="#fff" stroke="#000" stroke-width="2" d="M600.88-548h46c6 0 12-6 12-12v-28c0-6-6-12-12-12h-46c-6 0-12 6-12 12v28c0 6 6 12 12 12"/><text x="623.88" y="-587.45" font-family="Helvetica,sans-Serif" font-size="9" font-weight="bold" text-anchor="middle">transpile</text></g><g class="cluster"><path fill="#fff" stroke="#000" stroke-width="2" d="M803.88-22h113.74c6 0 12-6 12-12v-148c0-6-6-12-12-12H803.88c-6 0-12 6-12 12v148c0 6 6 12 12 12"/><text x="860.75" y="-181.45" font-family="Helvetica,sans-Serif" font-size="9" font-weight="bold" text-anchor="middle">graph-utl</text></g><g class="cluster"><path fill="#fff" stroke="#000" stroke-width="2" d="M222.25-218h549.63c6 0 12-6 12-12v-280c0-6-6-12-12-12H222.25c-6 0-12 6-12 12v280c0 6 6 12 12 12"/><text x="497.06" y="-509.45" font-family="Helvetica,sans-Serif" font-size="9" font-weight="bold" text-anchor="middle">main</text></g><g class="cluster"><path fill="#fff" stroke="#000" stroke-width="2" d="M462.88-354h65c6 0 12-6 12-12v-28c0-6-6-12-12-12h-65c-6 0-12 6-12 12v28c0 6 6 12 12 12"/><text x="495.38" y="-393.45" font-family="Helvetica,sans-Serif" font-size="9" font-weight="bold" text-anchor="middle">files-and-dirs</text></g><g class="cluster"><path fill="#fff" stroke="#000" stroke-width="2" d="M583.5-306h180.38c6 0 12-6 12-12v-58c0-6-6-12-12-12H583.5c-6 0-12 6-12 12v58c0 6 6 12 12 12"/><text x="673.69" y="-375.45" font-family="Helvetica,sans-Serif" font-size="9" font-weight="bold" text-anchor="middle">options</text></g><g class="cluster"><path fill="#fff" stroke="#000" stroke-width="2" d="M462.88-226h65c6 0 12-6 12-12v-28c0-6-6-12-12-12h-65c-6 0-12 6-12 12v28c0 6 6 12 12 12"/><text x="495.38" y="-265.45" font-family="Helvetica,sans-Serif" font-size="9" font-weight="bold" text-anchor="middle">resolve-options</text></g><g class="cluster"><path fill="#fff" stroke="#000" stroke-width="2" d="M455-414h80.75c6 0 12-6 12-12v-58c0-6-6-12-12-12H455c-6 0-12 6-12 12v58c0 6 6 12 12 12"/><text x="495.38" y="-483.45" font-family="Helvetica,sans-Serif" font-size="9" font-weight="bold" text-anchor="middle">rule-set</text></g><g class="cluster"><path fill="#fff" stroke="#000" stroke-width="2" d="M712-158h47c6 0 12-6 12-12v-28c0-6-6-12-12-12h-47c-6 0-12 6-12 12v28c0 6 6 12 12 12"/><text x="735.5" y="-197.45" font-family="Helvetica,sans-Serif" font-size="9" font-weight="bold" text-anchor="middle">report</text></g><g class="cluster"><path fill="#fff" stroke="#000" stroke-width="2" d="M567.75-128H680c6 0 12-6 12-12v-58c0-6-6-12-12-12H567.75c-6 0-12 6-12 12v58c0 6 6 12 12 12"/><text x="623.88" y="-197.45" font-family="Helvetica,sans-Serif" font-size="9" font-weight="bold" text-anchor="middle">schema</text></g><g class="cluster"><path fill="#fff" stroke="#000" stroke-width="2" d="M828.62-442h64.26c6 0 12-6 12-12v-88c0-6-6-12-12-12h-64.26c-6 0-12 6-12 12v88c0 6 6 12 12 12"/><text x="860.75" y="-541.45" font-family="Helvetica,sans-Serif" font-size="9" font-weight="bold" text-anchor="middle">utl</text></g><g class="node"><a xlink:href="src/cache/cache.mjs" xlink:title="cache.mjs"><path fill="#ffc" stroke="#000" d="M518.08-555.88h-45.41c-2.96 0-5.92 2.96-5.92 5.92v5.92c0 2.96 2.96 5.92 5.92 5.92h45.41c2.96 0 5.92-2.96 5.92-5.92v-5.92c0-2.96-2.96-5.92-5.92-5.92"/><text x="474.75" y="-543.33" font-family="Helvetica,sans-Serif" font-size="9">cache.mjs</text></a></g><g class="node"><a xlink:href="src/extract/transpile/meta.mjs" xlink:title="meta.mjs"><path fill="#ffc" stroke="#000" d="M644.96-573.88h-42.17c-2.96 0-5.91 2.96-5.91 5.92v5.92c0 2.96 2.95 5.92 5.91 5.92h42.17c2.96 0 5.92-2.96 5.92-5.92v-5.92c0-2.96-2.96-5.92-5.92-5.92"/><text x="605.5" y="-561.33" font-family="Helvetica,sans-Serif" font-size="9">meta.mjs</text></a></g><g class="edge"><path fill="none" stroke="#000" stroke-opacity=".2" stroke-width="2" d="M524.24-549.96h90.38v-.58"/><path fill-opacity=".2" stroke="#000" stroke-opacity=".2" stroke-width="2" d="m612.53-546.7 2.1-6 2.1 6z"/></g><g class="node"><a xlink:href="src/utl/bus.mjs" xlink:title="bus.mjs"><path fill="#ffc" stroke="#000" d="M881.83-527.88h-42.16c-2.96 0-5.92 2.96-5.92 5.92v5.92c0 2.96 2.96 5.92 5.92 5.92h42.16c2.96 0 5.92-2.96 5.92-5.92v-5.92c0-2.96-2.96-5.92-5.92-5.92"/><text x="845" y="-515.33" font-family="Helvetica,sans-Serif" font-size="9">bus.mjs</text></a></g><g class="edge"><path fill="none" stroke="#000" stroke-opacity=".2" stroke-width="2" d="M524.23-544.04h327.39v6.69"/><path fill-opacity=".2" stroke="#000" stroke-opacity=".2" stroke-width="2" d="m853.73-537.35-2.1 6-2.1-6z"/></g><g class="node"><a xlink:href="src/cli/format-meta-info.mjs" xlink:title="format-meta-info.mjs"><path fill="#ffc" stroke="#000" d="M188.33-431.88h-87.41c-2.96 0-5.92 2.96-5.92 5.92v5.92c0 2.96 2.96 5.92 5.92 5.92h87.41c2.96 0 5.92-2.96 5.92-5.92v-5.92c0-2.96-2.96-5.92-5.92-5.92"/><text x="103" y="-419.32" font-family="Helvetica,sans-Serif" font-size="9">format-meta-info.mjs</text></a></g><g class="node"><a xlink:href="src/main/index.mjs" xlink:title="index.mjs"><path fill="#0f0" stroke="#000" d="M267.33-431.88h-43.16c-2.96 0-5.92 2.96-5.92 5.92v5.92c0 2.96 2.96 5.92 5.92 5.92h43.16c2.96 0 5.92-2.96 5.92-5.92v-5.92c0-2.96-2.96-5.92-5.92-5.92"/><text x="226.25" y="-419.32" font-family="Helvetica,sans-Serif" font-size="9">index.mjs</text></a></g><g class="edge"><path fill="none" stroke="#000" stroke-opacity=".2" stroke-width="2" d="M194.59-423h14.4"/><path fill-opacity=".2" stroke="#000" stroke-opacity=".2" stroke-width="2" d="m208.99-425.1 6 2.1-6 2.1z"/></g><g class="edge"><path fill="none" stroke="#000" stroke-opacity=".2" stroke-width="2" d="M273.57-418.12h359.05v-128.67"/><path fill-opacity=".2" stroke="#000" stroke-opacity=".2" stroke-width="2" d="m630.53-546.79 2.1-6 2.1 6z"/></g><g class="node"><a xlink:href="src/main/format.mjs" xlink:title="format.mjs"><path fill="#0f0" stroke="#000" d="M518.46-303.88h-46.17c-2.96 0-5.91 2.96-5.91 5.92v5.92c0 2.96 2.95 5.92 5.91 5.92h46.17c2.96 0 5.92-2.96 5.92-5.92v-5.92c0-2.96-2.96-5.92-5.92-5.92"/><text x="474.38" y="-291.32" font-family="Helvetica,sans-Serif" font-size="9">format.mjs</text></a></g><g class="edge"><path fill="none" stroke="#000" stroke-opacity=".2" stroke-width="2" d="M236.62-414.01v116.05h220.55"/><path fill-opacity=".2" stroke="#000" stroke-opacity=".2" stroke-width="2" d="m457.17-300.06 6 2.1-6 2.1z"/></g><g class="node"><a xlink:href="src/main/cruise.mjs" xlink:title="cruise.mjs"><path fill="#0f0" stroke="#000" d="M380.33-409.88h-45.41c-2.96 0-5.92 2.96-5.92 5.92v5.92c0 2.96 2.96 5.92 5.92 5.92h45.41c2.96 0 5.92-2.96 5.92-5.92v-5.92c0-2.96-2.96-5.92-5.92-5.92"/><text x="337" y="-397.32" font-family="Helvetica,sans-Serif" font-size="9">cruise.mjs</text></a></g><g class="edge"><path fill="none" stroke="#000" stroke-opacity=".2" stroke-width="2" d="M254.62-413.63v6.42h65.01"/><path fill-opacity=".2" stroke="#000" stroke-opacity=".2" stroke-width="2" d="m319.63-409.31 6 2.1-6 2.1z"/></g><g class="node"><a xlink:href="src/cli/format.mjs" xlink:title="format.mjs"><path fill="#ffc" stroke="#000" d="M76.08-401.88H29.92c-2.96 0-5.92 2.96-5.92 5.92v5.92c0 2.96 2.96 5.92 5.92 5.92h46.16c2.96 0 5.92-2.96 5.92-5.92v-5.92c0-2.96-2.96-5.92-5.92-5.92"/><text x="32" y="-389.32" font-family="Helvetica,sans-Serif" font-size="9">format.mjs</text></a></g><g class="edge"><path fill="none" stroke="#000" stroke-opacity=".2" stroke-width="2" d="M52.62-383.68v91.64h404.33"/><path fill-opacity=".2" stroke="#000" stroke-opacity=".2" stroke-width="2" d="m456.95-294.14 6 2.1-6 2.1z"/></g><g class="node"><a xlink:href="src/main/options/assert-validity.mjs" xlink:title="assert-validity.mjs"><path fill="#0f0" stroke="#000" d="M662.33-331.88h-76.91c-2.96 0-5.92 2.96-5.92 5.92v5.92c0 2.96 2.96 5.92 5.92 5.92h76.91c2.96 0 5.92-2.96 5.92-5.92v-5.92c0-2.96-2.96-5.92-5.92-5.92"/><text x="587.5" y="-319.32" font-family="Helvetica,sans-Serif" font-size="9">assert-validity.mjs</text></a></g><g class="edge"><path fill="none" stroke="#000" stroke-opacity=".2" stroke-width="2" d="M504.62-304.32v-15.72h65.48"/><path fill-opacity=".2" stroke="#000" stroke-opacity=".2" stroke-width="2" d="m570.1-322.14 6 2.1-6 2.1z"/></g><g class="node"><a xlink:href="src/main/options/normalize.mjs" xlink:title="normalize.mjs"><path fill="#0f0" stroke="#000" d="M654.46-361.88h-61.17c-2.96 0-5.91 2.96-5.91 5.92v5.92c0 2.96 2.95 5.92 5.91 5.92h61.17c2.96 0 5.92-2.96 5.92-5.92v-5.92c0-2.96-2.96-5.92-5.92-5.92"/><text x="595.38" y="-349.32" font-family="Helvetica,sans-Serif" font-size="9">normalize.mjs</text></a></g><g class="edge"><path fill="none" stroke="#000" stroke-opacity=".2" stroke-width="2" d="M485.62-304.32V-353h92.54"/><path fill-opacity=".2" stroke="#000" stroke-opacity=".2" stroke-width="2" d="m578.16-355.1 6 2.1-6 2.1z"/></g><g class="node"><a xlink:href="src/main/report-wrap.mjs" xlink:title="report-wrap.mjs"><path fill="#0f0" stroke="#000" d="M657.83-243.88h-67.91c-2.96 0-5.92 2.96-5.92 5.92v5.92c0 2.96 2.96 5.92 5.92 5.92h67.91c2.96 0 5.92-2.96 5.92-5.92v-5.92c0-2.96-2.96-5.92-5.92-5.92"/><text x="592" y="-231.32" font-family="Helvetica,sans-Serif" font-size="9">report-wrap.mjs</text></a></g><g class="edge"><path fill="none" stroke="#000" stroke-opacity=".2" stroke-width="2" d="M524.8-297.96h98.82v44.64"/><path fill-opacity=".2" stroke="#000" stroke-opacity=".2" stroke-width="2" d="m625.73-253.32-2.1 6-2.1-6z"/></g><g class="node"><a xlink:href="src/schema/cruise-result.schema.mjs" xlink:title="cruise-result.schema.mjs"><path fill="#ffc" stroke="#000" d="M676.58-153.88H571.17c-2.96 0-5.92 2.96-5.92 5.92v5.92c0 2.96 2.96 5.92 5.92 5.92h105.41c2.96 0 5.92-2.96 5.92-5.92v-5.92c0-2.96-2.96-5.92-5.92-5.92"/><text x="573.25" y="-141.32" font-family="Helvetica,sans-Serif" font-size="9">cruise-result.schema.mjs</text></a></g><g class="edge"><path fill="none" stroke="#000" stroke-opacity=".2" stroke-width="2" d="M524.68-292.04h32.94V-147h.74"/><path fill-opacity=".2" stroke="#000" stroke-opacity=".2" stroke-width="2" d="m555.94-149.1 6 2.1-6 2.1z"/></g><g class="node"><a xlink:href="src/cli/index.mjs" xlink:title="index.mjs"><path fill="#ffc" stroke="#000" d="M74.58-431.88H31.42c-2.96 0-5.92 2.96-5.92 5.92v5.92c0 2.96 2.96 5.92 5.92 5.92h43.16c2.96 0 5.92-2.96 5.92-5.92v-5.92c0-2.96-2.96-5.92-5.92-5.92"/><text x="33.5" y="-419.32" font-family="Helvetica,sans-Serif" font-size="9">index.mjs</text></a></g><g class="edge"><path fill="none" stroke="#000" stroke-opacity=".2" stroke-width="2" d="M43.62-432.13v-89.83h780.92"/><path fill-opacity=".2" stroke="#000" stroke-opacity=".2" stroke-width="2" d="m824.54-524.06 6 2.1-6 2.1z"/></g><g class="edge"><path fill="none" stroke="#000" stroke-dasharray="5,2" stroke-opacity=".2" stroke-width="2" d="M80.99-423h4.82"/><path fill-opacity=".2" stroke="#000" stroke-opacity=".2" stroke-width="2" d="m85.81-425.1 6 2.1-6 2.1z"/></g><g class="edge"><path fill="none" stroke="#000" stroke-opacity=".2" stroke-width="2" d="M52.62-413.77v9.23h267.01"/><path fill-opacity=".2" stroke="#000" stroke-opacity=".2" stroke-width="2" d="m319.63-406.64 6 2.1-6 2.1z"/></g><g class="node"><a xlink:href="src/utl/object-util.mjs" xlink:title="object-util.mjs"><path fill="#ffc" stroke="#000" d="M890.96-497.88h-60.42c-2.96 0-5.92 2.96-5.92 5.92v5.92c0 2.96 2.96 5.92 5.92 5.92h60.42c2.96 0 5.92-2.96 5.92-5.92v-5.92c0-2.96-2.96-5.92-5.92-5.92"/><text x="832.62" y="-485.32" font-family="Helvetica,sans-Serif" font-size="9">object-util.mjs</text></a></g><g class="edge"><path fill="none" stroke="#000" stroke-opacity=".2" stroke-width="2" d="M62.62-432.21v-61.23h752.74"/><path fill-opacity=".2" stroke="#000" stroke-opacity=".2" stroke-width="2" d="m815.36-495.54 6 2.1-6 2.1z"/></g><g class="edge"><path fill="none" stroke="#000" stroke-dasharray="5,2" stroke-opacity=".2" stroke-width="2" d="M351.62-410.13V-547h105.64"/><path fill-opacity=".2" stroke="#000" stroke-opacity=".2" stroke-width="2" d="m457.26-549.1 6 2.1-6 2.1z"/></g><g class="edge"><path fill="none" stroke="#000" stroke-opacity=".2" stroke-width="2" d="M363.62-410.03v-106.01h460.67"/><path fill-opacity=".2" stroke="#000" stroke-opacity=".2" stroke-width="2" d="m824.29-518.14 6 2.1-6 2.1z"/></g><g class="node"><a xlink:href="src/main/resolve-options/normalize.mjs" xlink:title="normalize.mjs"><path fill="#0f0" stroke="#000" d="M525.96-251.88h-61.17c-2.96 0-5.91 2.96-5.91 5.92v5.92c0 2.96 2.95 5.92 5.91 5.92h61.17c2.96 0 5.92-2.96 5.92-5.92v-5.92c0-2.96-2.96-5.92-5.92-5.92"/><text x="466.88" y="-239.32" font-family="Helvetica,sans-Serif" font-size="9">normalize.mjs</text></a></g><g class="edge"><path fill="none" stroke="#000" stroke-dasharray="5,2" stroke-opacity=".2" stroke-width="2" d="M351.62-391.77v145.81h98.08"/><path fill-opacity=".2" stroke="#000" stroke-opacity=".2" stroke-width="2" d="m449.7-248.06 6 2.1-6 2.1z"/></g><g class="node"><a xlink:href="src/enrich/index.mjs" xlink:title="index.mjs"><path fill="#ffc" stroke="#000" d="M645.46-72.88h-43.17c-2.96 0-5.91 2.96-5.91 5.92v5.92c0 2.96 2.95 5.92 5.91 5.92h43.17c2.96 0 5.92-2.96 5.92-5.92v-5.92c0-2.96-2.96-5.92-5.92-5.92"/><text x="604.38" y="-60.33" font-family="Helvetica,sans-Serif" font-size="9">index.mjs</text></a></g><g class="edge"><path fill="none" stroke="#000" stroke-dasharray="5,2" stroke-opacity=".2" stroke-width="2" d="M386.59-395.68h159.03V-64h41.42"/><path fill-opacity=".2" stroke="#000" stroke-opacity=".2" stroke-width="2" d="m587.04-66.1 6 2.1-6 2.1z"/></g><g class="node"><a xlink:href="src/extract/index.mjs" xlink:title="index.mjs"><path fill="#ffc" stroke="#000" d="M645.46-625.88h-43.17c-2.96 0-5.91 2.96-5.91 5.92v5.92c0 2.96 2.95 5.92 5.91 5.92h43.17c2.96 0 5.92-2.96 5.92-5.92v-5.92c0-2.96-2.96-5.92-5.92-5.92"/><text x="604.38" y="-613.33" font-family="Helvetica,sans-Serif" font-size="9">index.mjs</text></a></g><g class="edge"><path fill="none" stroke="#000" stroke-dasharray="5,2" stroke-opacity=".2" stroke-width="2" d="M340.62-410.28V-617h246.29"/><path fill-opacity=".2" stroke="#000" stroke-opacity=".2" stroke-width="2" d="m586.91-619.1 6 2.1-6 2.1z"/></g><g class="node"><a xlink:href="src/main/files-and-dirs/normalize.mjs" xlink:title="normalize.mjs"><path fill="#0f0" stroke="#000" d="M525.96-379.88h-61.17c-2.96 0-5.91 2.96-5.91 5.92v5.92c0 2.96 2.95 5.92 5.91 5.92h61.17c2.96 0 5.92-2.96 5.92-5.92v-5.92c0-2.96-2.96-5.92-5.92-5.92"/><text x="466.88" y="-367.32" font-family="Helvetica,sans-Serif" font-size="9">normalize.mjs</text></a></g><g class="edge"><path fill="none" stroke="#000" stroke-dasharray="5,2" stroke-opacity=".2" stroke-width="2" d="M373.62-391.84V-371h75.87"/><path fill-opacity=".2" stroke="#000" stroke-opacity=".2" stroke-width="2" d="m449.49-373.1 6 2.1-6 2.1z"/></g><g class="edge"><path fill="none" stroke="#000" stroke-opacity=".2" stroke-width="2" d="M386.71-399.23h196.91v57.86"/><path fill-opacity=".2" stroke="#000" stroke-opacity=".2" stroke-width="2" d="m585.73-341.37-2.1 6-2.1-6z"/></g><g class="edge"><path fill="none" stroke="#000" stroke-opacity=".2" stroke-width="2" d="M386.32-402.77h205.3v31.61"/><path fill-opacity=".2" stroke="#000" stroke-opacity=".2" stroke-width="2" d="m593.73-371.16-2.1 6-2.1-6z"/></g><g class="edge"><path fill="none" stroke="#000" stroke-opacity=".2" stroke-width="2" d="M340.62-391.81v161.69h233.95"/><path fill-opacity=".2" stroke="#000" stroke-opacity=".2" stroke-width="2" d="m574.57-232.23 6 2.1-6 2.1z"/></g><g class="node"><a xlink:href="src/main/rule-set/assert-validity.mjs" xlink:title="assert-validity.mjs"><path fill="#0f0" stroke="#000" d="M533.83-439.88h-76.91c-2.96 0-5.92 2.96-5.92 5.92v5.92c0 2.96 2.96 5.92 5.92 5.92h76.91c2.96 0 5.92-2.96 5.92-5.92v-5.92c0-2.96-2.96-5.92-5.92-5.92"/><text x="459" y="-427.32" font-family="Helvetica,sans-Serif" font-size="9">assert-validity.mjs</text></a></g><g class="edge"><path fill="none" stroke="#000" stroke-dasharray="5,2" stroke-opacity=".2" stroke-width="2" d="M386.73-406.32h67.89v-6.46"/><path fill-opacity=".2" stroke="#000" stroke-opacity=".2" stroke-width="2" d="m452.53-412.78 2.1-6 2.1 6z"/></g><g class="node"><a xlink:href="src/main/rule-set/normalize.mjs" xlink:title="normalize.mjs"><path fill="#0f0" stroke="#000" d="M525.96-469.88h-61.17c-2.96 0-5.91 2.96-5.91 5.92v5.92c0 2.96 2.95 5.92 5.91 5.92h61.17c2.96 0 5.92-2.96 5.92-5.92v-5.92c0-2.96-2.96-5.92-5.92-5.92"/><text x="466.88" y="-457.32" font-family="Helvetica,sans-Serif" font-size="9">normalize.mjs</text></a></g><g class="edge"><path fill="none" stroke="#000" stroke-dasharray="5,2" stroke-opacity=".2" stroke-width="2" d="M374.62-410.19v-46.43h74.84"/><path fill-opacity=".2" stroke="#000" stroke-opacity=".2" stroke-width="2" d="m449.46-458.73 6 2.1-6 2.1z"/></g><g class="node"><a xlink:href="src/config-utl/extract-depcruise-config/index.mjs" xlink:title="index.mjs"><path fill="#ffc" stroke="#000" d="M379.21-157.88h-43.17c-2.96 0-5.92 2.96-5.92 5.92v5.92c0 2.96 2.96 5.92 5.92 5.92h43.17c2.96 0 5.91-2.96 5.91-5.92v-5.92c0-2.96-2.95-5.92-5.91-5.92"/><text x="338.12" y="-145.32" font-family="Helvetica,sans-Serif" font-size="9">index.mjs</text></a></g><g class="edge"><path fill="none" stroke="#000" stroke-opacity=".2" stroke-width="2" d="M362.62-158.06v-81.98h86.75"/><path fill-opacity=".2" stroke="#000" stroke-opacity=".2" stroke-width="2" d="m449.37-242.14 6 2.1-6 2.1z"/></g><g class="edge"><path fill="none" stroke="#000" stroke-opacity=".2" stroke-width="2" d="M532.27-247.88h19.35V-565h35.91"/><path fill-opacity=".2" stroke="#000" stroke-opacity=".2" stroke-width="2" d="m587.53-567.1 6 2.1-6 2.1z"/></g><g class="node"><a xlink:href="src/graph-utl/rule-set.mjs" xlink:title="rule-set.mjs"><path fill="#ffc" stroke="#000" d="M886.46-47.88h-51.42c-2.96 0-5.92 2.96-5.92 5.92v5.92c0 2.96 2.96 5.92 5.92 5.92h51.42c2.96 0 5.92-2.96 5.92-5.92v-5.92c0-2.96-2.96-5.92-5.92-5.92"/><text x="837.12" y="-35.33" font-family="Helvetica,sans-Serif" font-size="9">rule-set.mjs</text></a></g><g class="edge"><path fill="none" stroke="#000" stroke-opacity=".2" stroke-width="2" d="M495.62-233.84v197.72h324.02"/><path fill-opacity=".2" stroke="#000" stroke-opacity=".2" stroke-width="2" d="m819.64-38.23 6 2.1-6 2.1z"/></g><g class="node"><a xlink:href="src/enrich/summarize/index.mjs" xlink:title="index.mjs"><path fill="#ffc" stroke="#000" d="M757.08-59.88h-43.16c-2.96 0-5.92 2.96-5.92 5.92v5.92c0 2.96 2.96 5.92 5.92 5.92h43.16c2.96 0 5.92-2.96 5.92-5.92v-5.92c0-2.96-2.96-5.92-5.92-5.92"/><text x="716" y="-47.33" font-family="Helvetica,sans-Serif" font-size="9">index.mjs</text></a></g><g class="edge"><path fill="none" stroke="#000" stroke-opacity=".2" stroke-width="2" d="M651.68-64.38h74.94v.43"/><path fill-opacity=".2" stroke="#000" stroke-opacity=".2" stroke-width="2" d="m728.73-69.17-2.1 6-2.1-6z"/></g><g class="node"><a xlink:href="src/graph-utl/compare.mjs" xlink:title="compare.mjs"><path fill="#ffc" stroke="#000" d="M889.08-107.88h-56.66c-2.96 0-5.92 2.96-5.92 5.92v5.92c0 2.96 2.96 5.92 5.92 5.92h56.66c2.96 0 5.92-2.96 5.92-5.92v-5.92c0-2.96-2.96-5.92-5.92-5.92"/><text x="834.5" y="-95.33" font-family="Helvetica,sans-Serif" font-size="9">compare.mjs</text></a></g><g class="edge"><path fill="none" stroke="#000" stroke-opacity=".2" stroke-width="2" d="M744.62-60.11v-35.93h72.58"/><path fill-opacity=".2" stroke="#000" stroke-opacity=".2" stroke-width="2" d="m817.2-98.14 6 2.1-6 2.1z"/></g><g class="edge"><path fill="none" stroke="#000" stroke-opacity=".2" stroke-width="2" d="M651.59-617h218.03v79.93"/><path fill-opacity=".2" stroke="#000" stroke-opacity=".2" stroke-width="2" d="m871.73-537.07-2.1 6-2.1-6z"/></g><g class="node"><a xlink:href="src/graph-utl/consolidate-to-pattern.mjs" xlink:title="consolidate-to-pattern.mjs"><path fill="#ffc" stroke="#000" d="M915.71-77.88H805.79c-2.96 0-5.91 2.96-5.91 5.92v5.92c0 2.96 2.95 5.92 5.91 5.92h109.92c2.96 0 5.91-2.96 5.91-5.92v-5.92c0-2.96-2.95-5.92-5.91-5.92"/><text x="807.88" y="-65.33" font-family="Helvetica,sans-Serif" font-size="9">consolidate-to-pattern.mjs</text></a></g><g class="node"><a xlink:href="src/graph-utl/filter-bank.mjs" xlink:title="filter-bank.mjs"><path fill="#ffc" stroke="#000" d="M891.33-137.88h-61.16c-2.96 0-5.92 2.96-5.92 5.92v5.92c0 2.96 2.96 5.92 5.92 5.92h61.16c2.96 0 5.92-2.96 5.92-5.92v-5.92c0-2.96-2.96-5.92-5.92-5.92"/><text x="832.25" y="-125.33" font-family="Helvetica,sans-Serif" font-size="9">filter-bank.mjs</text></a></g><g class="node"><a xlink:href="src/graph-utl/strip-self-transitions.mjs" xlink:title="strip-self-transitions.mjs"><path fill="#ffc" stroke="#000" d="M910.83-167.88H810.67c-2.96 0-5.92 2.96-5.92 5.92v5.92c0 2.96 2.96 5.92 5.92 5.92h100.16c2.96 0 5.92-2.96 5.92-5.92v-5.92c0-2.96-2.96-5.92-5.92-5.92"/><text x="812.75" y="-155.32" font-family="Helvetica,sans-Serif" font-size="9">strip-self-transitions.mjs</text></a></g><g class="node"><a xlink:href="src/report/index.mjs" xlink:title="index.mjs"><path fill="#ffc" stroke="#000" d="M757.08-183.88h-43.16c-2.96 0-5.92 2.96-5.92 5.92v5.92c0 2.96 2.96 5.92 5.92 5.92h43.16c2.96 0 5.92-2.96 5.92-5.92v-5.92c0-2.96-2.96-5.92-5.92-5.92"/><text x="716" y="-171.32" font-family="Helvetica,sans-Serif" font-size="9">index.mjs</text></a></g><g class="edge"><path fill="none" stroke="#000" stroke-opacity=".2" stroke-width="2" d="M668.49-323h76.13v129.71"/><path fill-opacity=".2" stroke="#000" stroke-opacity=".2" stroke-width="2" d="m746.73-193.29-2.1 6-2.1-6z"/></g><g class="node"><a xlink:href="src/main/helpers.mjs" xlink:title="helpers.mjs"><path fill="#0f0" stroke="#000" d="M761.21-441.88h-51.42c-2.96 0-5.91 2.96-5.91 5.92v5.92c0 2.96 2.95 5.92 5.91 5.92h51.42c2.96 0 5.91-2.96 5.91-5.92v-5.92c0-2.96-2.95-5.92-5.91-5.92"/><text x="711.88" y="-429.32" font-family="Helvetica,sans-Serif" font-size="9">helpers.mjs</text></a></g><g class="edge"><path fill="none" stroke="#000" stroke-opacity=".2" stroke-width="2" d="M657.62-362.37v-67.01h36.73"/><path fill-opacity=".2" stroke="#000" stroke-opacity=".2" stroke-width="2" d="m694.35-431.48 6 2.1-6 2.1z"/></g><g class="node"><a xlink:href="src/main/options/defaults.mjs" xlink:title="defaults.mjs"><path fill="#0f0" stroke="#000" d="M761.96-361.88h-52.92c-2.96 0-5.92 2.96-5.92 5.92v5.92c0 2.96 2.96 5.92 5.92 5.92h52.92c2.96 0 5.92-2.96 5.92-5.92v-5.92c0-2.96-2.96-5.92-5.92-5.92"/><text x="711.12" y="-349.32" font-family="Helvetica,sans-Serif" font-size="9">defaults.mjs</text></a></g><g class="edge"><path fill="none" stroke="#000" stroke-opacity=".2" stroke-width="2" d="M660.73-353h33.05"/><path fill-opacity=".2" stroke="#000" stroke-opacity=".2" stroke-width="2" d="m693.78-355.1 6 2.1-6 2.1z"/></g><g class="node"><a xlink:href="src/utl/array-util.mjs" xlink:title="array-util.mjs"><path fill="#ffc" stroke="#000" d="M889.08-467.88h-56.66c-2.96 0-5.92 2.96-5.92 5.92v5.92c0 2.96 2.96 5.92 5.92 5.92h56.66c2.96 0 5.92-2.96 5.92-5.92v-5.92c0-2.96-2.96-5.92-5.92-5.92"/><text x="834.5" y="-455.32" font-family="Helvetica,sans-Serif" font-size="9">array-util.mjs</text></a></g><g class="edge"><path fill="none" stroke="#000" stroke-opacity=".2" stroke-width="2" d="M654.62-362.26v-95.12h162.6"/><path fill-opacity=".2" stroke="#000" stroke-opacity=".2" stroke-width="2" d="m817.22-459.48 6 2.1-6 2.1z"/></g><g class="edge"><path fill="none" stroke="#000" stroke-opacity=".2" stroke-width="2" d="M664.15-228.66h24.47v180.04h10.04"/><path fill-opacity=".2" stroke="#000" stroke-opacity=".2" stroke-width="2" d="m698.66-50.73 6 2.1-6 2.1z"/></g><g class="edge"><path fill="none" stroke="#000" stroke-opacity=".2" stroke-width="2" d="M664.19-238.8h119.43v136.84h33.6"/><path fill-opacity=".2" stroke="#000" stroke-opacity=".2" stroke-width="2" d="m817.22-104.06 6 2.1-6 2.1z"/></g><g class="edge"><path fill="none" stroke="#000" stroke-opacity=".2" stroke-width="2" d="M664.04-231.2h29.58v162.58h96.82"/><path fill-opacity=".2" stroke="#000" stroke-opacity=".2" stroke-width="2" d="m790.44-70.73 6 2.1-6 2.1z"/></g><g class="edge"><path fill="none" stroke="#000" stroke-opacity=".2" stroke-width="2" d="M663.88-233.73h34.74v105.61h116.31"/><path fill-opacity=".2" stroke="#000" stroke-opacity=".2" stroke-width="2" d="m814.93-130.23 6 2.1-6 2.1z"/></g><g class="edge"><path fill="none" stroke="#000" stroke-opacity=".2" stroke-width="2" d="M663.86-241.34h150.76v64.19"/><path fill-opacity=".2" stroke="#000" stroke-opacity=".2" stroke-width="2" d="m816.73-177.15-2.1 6-2.1-6z"/></g><g class="edge"><path fill="none" stroke="#000" stroke-opacity=".2" stroke-width="2" d="M664.19-236.27h62.43v42.94"/><path fill-opacity=".2" stroke="#000" stroke-opacity=".2" stroke-width="2" d="m728.73-193.33-2.1 6-2.1-6z"/></g><g class="edge"><path fill="none" stroke="#000" stroke-opacity=".2" stroke-width="2" d="M535.62-440.32V-489h279.75"/><path fill-opacity=".2" stroke="#000" stroke-opacity=".2" stroke-width="2" d="m815.37-491.1 6 2.1-6 2.1z"/></g><g class="edge"><path fill="none" stroke="#000" stroke-opacity=".2" stroke-width="2" d="M536.62-421.68v95.72h33.58"/><path fill-opacity=".2" stroke="#000" stroke-opacity=".2" stroke-width="2" d="m570.2-328.06 6 2.1-6 2.1z"/></g><g class="edge"><path fill="none" stroke="#000" stroke-opacity=".2" stroke-width="2" d="M539.98-434.62h154.41"/><path fill-opacity=".2" stroke="#000" stroke-opacity=".2" stroke-width="2" d="m694.39-436.73 6 2.1-6 2.1z"/></g><g class="node"><a xlink:href="src/schema/configuration.schema.mjs" xlink:title="configuration.schema.mjs"><path fill="#ffc" stroke="#000" d="M678.08-183.88H569.67c-2.96 0-5.92 2.96-5.92 5.92v5.92c0 2.96 2.96 5.92 5.92 5.92h108.41c2.96 0 5.92-2.96 5.92-5.92v-5.92c0-2.96-2.96-5.92-5.92-5.92"/><text x="571.75" y="-171.32" font-family="Helvetica,sans-Serif" font-size="9">configuration.schema.mjs</text></a></g><g class="edge"><path fill="none" stroke="#000" stroke-opacity=".2" stroke-width="2" d="M534.62-421.89V-175h19.71"/><path fill-opacity=".2" stroke="#000" stroke-opacity=".2" stroke-width="2" d="m554.33-177.1 6 2.1-6 2.1z"/></g><g class="edge"><path fill="none" stroke="#000" stroke-opacity=".2" stroke-width="2" d="M532.21-462.62h192.41v11.22"/><path fill-opacity=".2" stroke="#000" stroke-opacity=".2" stroke-width="2" d="m726.73-451.4-2.1 6-2.1-6z"/></g><g class="edge"><path fill="none" stroke="#000" stroke-opacity=".2" stroke-width="2" d="M745.62-441.98v-42.58h69.68"/><path fill-opacity=".2" stroke="#000" stroke-opacity=".2" stroke-width="2" d="m815.3-486.66 6 2.1-6 2.1z"/></g><g class="node"><a xlink:href="src/main/index.d.ts" xlink:title="index.d.ts"><path fill="#0f0" stroke="#000" d="M267.33-478.88h-43.16c-2.96 0-5.92 2.96-5.92 5.92v5.92c0 2.96 2.96 5.92 5.92 5.92h43.16c2.96 0 5.92-2.96 5.92-5.92v-5.92c0-2.96-2.96-5.92-5.92-5.92"/><text x="226.25" y="-466.32" font-family="Helvetica,sans-Serif" font-size="9">index.d.ts</text></a></g></g></svg>