<?xml version="1.0" encoding="UTF-8" standalone="no"?>
<!DOCTYPE svg PUBLIC "-//W3C//DTD SVG 1.1//EN"
 "http://www.w3.org/Graphics/SVG/1.1/DTD/svg11.dtd">
<!-- Generated by graphviz version 3.0.0 (20220226.1711)
 -->
<!-- Title: dependency&#45;cruiser output Pages: 1 -->
<svg width="725pt" height="948pt"
 viewBox="0.00 0.00 725.00 948.00" xmlns="http://www.w3.org/2000/svg" xmlns:xlink="http://www.w3.org/1999/xlink">
<g id="graph0" class="graph" transform="scale(1 1) rotate(0) translate(4 944)">
<title>dependency&#45;cruiser output</title>
<polygon fill="white" stroke="transparent" points="-4,4 -4,-944 721,-944 721,4 -4,4"/>
<g id="clust1" class="cluster">
<title>cluster_src</title>
<path fill="#ffffff" stroke="black" stroke-width="2" d="M20,-8C20,-8 697,-8 697,-8 703,-8 709,-14 709,-20 709,-20 709,-920 709,-920 709,-926 703,-932 697,-932 697,-932 20,-932 20,-932 14,-932 8,-926 8,-920 8,-920 8,-20 8,-20 8,-14 14,-8 20,-8"/>
<text text-anchor="middle" x="358.5" y="-920.8" font-family="Helvetica,sans-Serif" font-weight="bold" font-size="9.00">src</text>
</g>
<g id="clust2" class="cluster">
<title>cluster_src/cache</title>
<path fill="#ffffff" stroke="black" stroke-width="2" d="M315,-464C315,-464 386,-464 386,-464 392,-464 398,-470 398,-476 398,-476 398,-504 398,-504 398,-510 392,-516 386,-516 386,-516 315,-516 315,-516 309,-516 303,-510 303,-504 303,-504 303,-476 303,-476 303,-470 309,-464 315,-464"/>
<text text-anchor="middle" x="350.5" y="-504.8" font-family="Helvetica,sans-Serif" font-weight="bold" font-size="9.00">cache</text>
</g>
<g id="clust3" class="cluster">
<title>cluster_src/cli</title>
<path fill="#ffffff" stroke="black" stroke-width="2" d="M28,-288C28,-288 112,-288 112,-288 118,-288 124,-294 124,-300 124,-300 124,-388 124,-388 124,-394 118,-400 112,-400 112,-400 28,-400 28,-400 22,-400 16,-394 16,-388 16,-388 16,-300 16,-300 16,-294 22,-288 28,-288"/>
<text text-anchor="middle" x="70" y="-388.8" font-family="Helvetica,sans-Serif" font-weight="bold" font-size="9.00">cli</text>
</g>
<g id="clust4" class="cluster">
<title>cluster_src/config&#45;utl</title>
<path fill="#ffffff" stroke="black" stroke-width="2" d="M152,-16C152,-16 266,-16 266,-16 272,-16 278,-22 278,-28 278,-28 278,-90 278,-90 278,-96 272,-102 266,-102 266,-102 152,-102 152,-102 146,-102 140,-96 140,-90 140,-90 140,-28 140,-28 140,-22 146,-16 152,-16"/>
<text text-anchor="middle" x="209" y="-90.8" font-family="Helvetica,sans-Serif" font-weight="bold" font-size="9.00">config&#45;utl</text>
</g>
<g id="clust5" class="cluster">
<title>cluster_src/config&#45;utl/extract&#45;depcruise&#45;config</title>
<path fill="#ffffff" stroke="black" stroke-width="2" d="M160,-24C160,-24 258,-24 258,-24 264,-24 270,-30 270,-36 270,-36 270,-64 270,-64 270,-70 264,-76 258,-76 258,-76 160,-76 160,-76 154,-76 148,-70 148,-64 148,-64 148,-36 148,-36 148,-30 154,-24 160,-24"/>
<text text-anchor="middle" x="209" y="-64.8" font-family="Helvetica,sans-Serif" font-weight="bold" font-size="9.00">extract&#45;depcruise&#45;config</text>
</g>
<g id="clust6" class="cluster">
<title>cluster_src/enrich</title>
<path fill="#ffffff" stroke="black" stroke-width="2" d="M450.5,-794C450.5,-794 512.5,-794 512.5,-794 518.5,-794 524.5,-800 524.5,-806 524.5,-806 524.5,-894 524.5,-894 524.5,-900 518.5,-906 512.5,-906 512.5,-906 450.5,-906 450.5,-906 444.5,-906 438.5,-900 438.5,-894 438.5,-894 438.5,-806 438.5,-806 438.5,-800 444.5,-794 450.5,-794"/>
<text text-anchor="middle" x="481.5" y="-894.8" font-family="Helvetica,sans-Serif" font-weight="bold" font-size="9.00">enrich</text>
</g>
<g id="clust7" class="cluster">
<title>cluster_src/enrich/summarize</title>
<path fill="#ffffff" stroke="black" stroke-width="2" d="M458.5,-802C458.5,-802 504.5,-802 504.5,-802 510.5,-802 516.5,-808 516.5,-814 516.5,-814 516.5,-842 516.5,-842 516.5,-848 510.5,-854 504.5,-854 504.5,-854 458.5,-854 458.5,-854 452.5,-854 446.5,-848 446.5,-842 446.5,-842 446.5,-814 446.5,-814 446.5,-808 452.5,-802 458.5,-802"/>
<text text-anchor="middle" x="481.5" y="-842.8" font-family="Helvetica,sans-Serif" font-weight="bold" font-size="9.00">summarize</text>
</g>
<g id="clust8" class="cluster">
<title>cluster_src/extract</title>
<path fill="#ffffff" stroke="black" stroke-width="2" d="M450.5,-674C450.5,-674 512.5,-674 512.5,-674 518.5,-674 524.5,-680 524.5,-686 524.5,-686 524.5,-774 524.5,-774 524.5,-780 518.5,-786 512.5,-786 512.5,-786 450.5,-786 450.5,-786 444.5,-786 438.5,-780 438.5,-774 438.5,-774 438.5,-686 438.5,-686 438.5,-680 444.5,-674 450.5,-674"/>
<text text-anchor="middle" x="481.5" y="-774.8" font-family="Helvetica,sans-Serif" font-weight="bold" font-size="9.00">extract</text>
</g>
<g id="clust9" class="cluster">
<title>cluster_src/extract/transpile</title>
<path fill="#ffffff" stroke="black" stroke-width="2" d="M458.5,-682C458.5,-682 504.5,-682 504.5,-682 510.5,-682 516.5,-688 516.5,-694 516.5,-694 516.5,-722 516.5,-722 516.5,-728 510.5,-734 504.5,-734 504.5,-734 458.5,-734 458.5,-734 452.5,-734 446.5,-728 446.5,-722 446.5,-722 446.5,-694 446.5,-694 446.5,-688 452.5,-682 458.5,-682"/>
<text text-anchor="middle" x="481.5" y="-722.8" font-family="Helvetica,sans-Serif" font-weight="bold" font-size="9.00">transpile</text>
</g>
<g id="clust10" class="cluster">
<title>cluster_src/graph&#45;utl</title>
<path fill="#ffffff" stroke="black" stroke-width="2" d="M428,-404C428,-404 535,-404 535,-404 541,-404 547,-410 547,-416 547,-416 547,-564 547,-564 547,-570 541,-576 535,-576 535,-576 428,-576 428,-576 422,-576 416,-570 416,-564 416,-564 416,-416 416,-416 416,-410 422,-404 428,-404"/>
<text text-anchor="middle" x="481.5" y="-564.8" font-family="Helvetica,sans-Serif" font-weight="bold" font-size="9.00">graph&#45;utl</text>
</g>
<g id="clust11" class="cluster">
<title>cluster_src/main</title>
<path fill="#ffffff" stroke="black" stroke-width="2" d="M186,-110C186,-110 689,-110 689,-110 695,-110 701,-116 701,-122 701,-122 701,-384 701,-384 701,-390 695,-396 689,-396 689,-396 186,-396 186,-396 180,-396 174,-390 174,-384 174,-384 174,-122 174,-122 174,-116 180,-110 186,-110"/>
<text text-anchor="middle" x="437.5" y="-384.8" font-family="Helvetica,sans-Serif" font-weight="bold" font-size="9.00">main</text>
</g>
<g id="clust12" class="cluster">
<title>cluster_src/main/files&#45;and&#45;dirs</title>
<path fill="#ffffff" stroke="black" stroke-width="2" d="M321.5,-318C321.5,-318 379.5,-318 379.5,-318 385.5,-318 391.5,-324 391.5,-330 391.5,-330 391.5,-358 391.5,-358 391.5,-364 385.5,-370 379.5,-370 379.5,-370 321.5,-370 321.5,-370 315.5,-370 309.5,-364 309.5,-358 309.5,-358 309.5,-330 309.5,-330 309.5,-324 315.5,-318 321.5,-318"/>
<text text-anchor="middle" x="350.5" y="-358.8" font-family="Helvetica,sans-Serif" font-weight="bold" font-size="9.00">files&#45;and&#45;dirs</text>
</g>
<g id="clust13" class="cluster">
<title>cluster_src/main/options</title>
<path fill="#ffffff" stroke="black" stroke-width="2" d="M452.5,-118C452.5,-118 649,-118 649,-118 655,-118 661,-124 661,-130 661,-130 661,-188 661,-188 661,-194 655,-200 649,-200 649,-200 452.5,-200 452.5,-200 446.5,-200 440.5,-194 440.5,-188 440.5,-188 440.5,-130 440.5,-130 440.5,-124 446.5,-118 452.5,-118"/>
<text text-anchor="middle" x="550.75" y="-188.8" font-family="Helvetica,sans-Serif" font-weight="bold" font-size="9.00">options</text>
</g>
<g id="clust14" class="cluster">
<title>cluster_src/main/resolve&#45;options</title>
<path fill="#ffffff" stroke="black" stroke-width="2" d="M321.5,-258C321.5,-258 380.5,-258 380.5,-258 386.5,-258 392.5,-264 392.5,-270 392.5,-270 392.5,-298 392.5,-298 392.5,-304 386.5,-310 380.5,-310 380.5,-310 321.5,-310 321.5,-310 315.5,-310 309.5,-304 309.5,-298 309.5,-298 309.5,-270 309.5,-270 309.5,-264 315.5,-258 321.5,-258"/>
<text text-anchor="middle" x="351" y="-298.8" font-family="Helvetica,sans-Serif" font-weight="bold" font-size="9.00">resolve&#45;options</text>
</g>
<g id="clust15" class="cluster">
<title>cluster_src/main/rule&#45;set</title>
<path fill="#ffffff" stroke="black" stroke-width="2" d="M321.5,-142C321.5,-142 379.5,-142 379.5,-142 385.5,-142 391.5,-148 391.5,-154 391.5,-154 391.5,-212 391.5,-212 391.5,-218 385.5,-224 379.5,-224 379.5,-224 321.5,-224 321.5,-224 315.5,-224 309.5,-218 309.5,-212 309.5,-212 309.5,-154 309.5,-154 309.5,-148 315.5,-142 321.5,-142"/>
<text text-anchor="middle" x="350.5" y="-212.8" font-family="Helvetica,sans-Serif" font-weight="bold" font-size="9.00">rule&#45;set</text>
</g>
<g id="clust16" class="cluster">
<title>cluster_src/main/utl</title>
<path fill="#ffffff" stroke="black" stroke-width="2" d="M567,-208C567,-208 681,-208 681,-208 687,-208 693,-214 693,-220 693,-220 693,-248 693,-248 693,-254 687,-260 681,-260 681,-260 567,-260 567,-260 561,-260 555,-254 555,-248 555,-248 555,-220 555,-220 555,-214 561,-208 567,-208"/>
<text text-anchor="middle" x="624" y="-248.8" font-family="Helvetica,sans-Serif" font-weight="bold" font-size="9.00">utl</text>
</g>
<g id="clust17" class="cluster">
<title>cluster_src/report</title>
<path fill="#ffffff" stroke="black" stroke-width="2" d="M601,-404C601,-404 647,-404 647,-404 653,-404 659,-410 659,-416 659,-416 659,-444 659,-444 659,-450 653,-456 647,-456 647,-456 601,-456 601,-456 595,-456 589,-450 589,-444 589,-444 589,-416 589,-416 589,-410 595,-404 601,-404"/>
<text text-anchor="middle" x="624" y="-444.8" font-family="Helvetica,sans-Serif" font-weight="bold" font-size="9.00">report</text>
</g>
<g id="clust18" class="cluster">
<title>cluster_src/schema</title>
<path fill="#ffffff" stroke="black" stroke-width="2" d="M429,-584C429,-584 534,-584 534,-584 540,-584 546,-590 546,-596 546,-596 546,-654 546,-654 546,-660 540,-666 534,-666 534,-666 429,-666 429,-666 423,-666 417,-660 417,-654 417,-654 417,-596 417,-596 417,-590 423,-584 429,-584"/>
<text text-anchor="middle" x="481.5" y="-654.8" font-family="Helvetica,sans-Serif" font-weight="bold" font-size="9.00">schema</text>
</g>
<g id="clust19" class="cluster">
<title>cluster_src/utl</title>
<path fill="#ffffff" stroke="black" stroke-width="2" d="M327.5,-404C327.5,-404 373.5,-404 373.5,-404 379.5,-404 385.5,-410 385.5,-416 385.5,-416 385.5,-444 385.5,-444 385.5,-450 379.5,-456 373.5,-456 373.5,-456 327.5,-456 327.5,-456 321.5,-456 315.5,-450 315.5,-444 315.5,-444 315.5,-416 315.5,-416 315.5,-410 321.5,-404 327.5,-404"/>
<text text-anchor="middle" x="350.5" y="-444.8" font-family="Helvetica,sans-Serif" font-weight="bold" font-size="9.00">utl</text>
</g>
<!-- src/cache/revision&#45;data.js -->
<g id="node1" class="node">
<title>src/cache/revision&#45;data.js</title>
<g id="a_node1"><a xlink:href="src/cache/revision-data.js" xlink:title="revision&#45;data.js">
<path fill="lightgray" stroke="black" d="M384,-490C384,-490 317,-490 317,-490 314,-490 311,-487 311,-484 311,-484 311,-478 311,-478 311,-475 314,-472 317,-472 317,-472 384,-472 384,-472 387,-472 390,-475 390,-478 390,-478 390,-484 390,-484 390,-487 387,-490 384,-490"/>
<text text-anchor="start" x="319" y="-478.8" font-family="Helvetica,sans-Serif" font-size="9.00" fill="gray">revision&#45;data.js</text>
</a>
</g>
</g>
<!-- src/cli/format&#45;meta&#45;info.js -->
<g id="node2" class="node">
<title>src/cli/format&#45;meta&#45;info.js</title>
<g id="a_node2"><a xlink:href="src/cli/format-meta-info.js" xlink:title="format&#45;meta&#45;info.js">
<path fill="lightgray" stroke="black" d="M110,-374C110,-374 30,-374 30,-374 27,-374 24,-371 24,-368 24,-368 24,-362 24,-362 24,-359 27,-356 30,-356 30,-356 110,-356 110,-356 113,-356 116,-359 116,-362 116,-362 116,-368 116,-368 116,-371 113,-374 110,-374"/>
<text text-anchor="start" x="32" y="-362.8" font-family="Helvetica,sans-Serif" font-size="9.00" fill="gray">format&#45;meta&#45;info.js</text>
</a>
</g>
</g>
<!-- src/main/index.js -->
<g id="node3" class="node">
<title>src/main/index.js</title>
<g id="a_node3"><a xlink:href="src/main/index.js" xlink:title="index.js">
<path fill="lime" stroke="black" d="M230,-344C230,-344 188,-344 188,-344 185,-344 182,-341 182,-338 182,-338 182,-332 182,-332 182,-329 185,-326 188,-326 188,-326 230,-326 230,-326 233,-326 236,-329 236,-332 236,-332 236,-338 236,-338 236,-341 233,-344 230,-344"/>
<text text-anchor="start" x="193" y="-332.8" font-family="Helvetica,sans-Serif" font-size="9.00">index.js</text>
</a>
</g>
</g>
<!-- src/cli/format&#45;meta&#45;info.js&#45;&gt;src/main/index.js -->
<g id="edge1" class="edge">
<title>src/cli/format&#45;meta&#45;info.js&#45;&gt;src/main/index.js</title>
<path fill="none" stroke="#000000" stroke-width="2" stroke-opacity="0.200000" d="M107,-355.86C107,-348.03 107,-338 107,-338 107,-338 175.93,-338 175.93,-338"/>
<polygon fill="#000000" fill-opacity="0.200000" stroke="#000000" stroke-width="2" stroke-opacity="0.200000" points="175.93,-340.1 181.93,-338 175.93,-335.9 175.93,-340.1"/>
</g>
<!-- src/main/index.js&#45;&gt;src/cache/revision&#45;data.js -->
<g id="edge5" class="edge">
<title>src/main/index.js&#45;&gt;src/cache/revision&#45;data.js</title>
<path fill="none" stroke="#000000" stroke-width="2" stroke-opacity="0.200000" d="M221,-344.13C221,-376.1 221,-481 221,-481 221,-481 304.94,-481 304.94,-481"/>
<polygon fill="#000000" fill-opacity="0.200000" stroke="#000000" stroke-width="2" stroke-opacity="0.200000" points="304.94,-483.1 310.94,-481 304.94,-478.9 304.94,-483.1"/>
</g>
<!-- src/main/resolve&#45;options/normalize.js -->
<g id="node7" class="node">
<title>src/main/resolve&#45;options/normalize.js</title>
<g id="a_node7"><a xlink:href="src/main/resolve-options/normalize.js" xlink:title="normalize.js">
<path fill="lime" stroke="black" d="M377.5,-284C377.5,-284 323.5,-284 323.5,-284 320.5,-284 317.5,-281 317.5,-278 317.5,-278 317.5,-272 317.5,-272 317.5,-269 320.5,-266 323.5,-266 323.5,-266 377.5,-266 377.5,-266 380.5,-266 383.5,-269 383.5,-272 383.5,-272 383.5,-278 383.5,-278 383.5,-281 380.5,-284 377.5,-284"/>
<text text-anchor="start" x="325.5" y="-272.8" font-family="Helvetica,sans-Serif" font-size="9.00">normalize.js</text>
</a>
</g>
</g>
<!-- src/main/index.js&#45;&gt;src/main/resolve&#45;options/normalize.js -->
<g id="edge15" class="edge">
<title>src/main/index.js&#45;&gt;src/main/resolve&#45;options/normalize.js</title>
<path fill="none" stroke="#000000" stroke-width="2" stroke-opacity="0.200000" d="M224,-325.84C224,-309.73 224,-278 224,-278 224,-278 311.26,-278 311.26,-278"/>
<polygon fill="#000000" fill-opacity="0.200000" stroke="#000000" stroke-width="2" stroke-opacity="0.200000" points="311.26,-280.1 317.26,-278 311.26,-275.9 311.26,-280.1"/>
</g>
<!-- src/enrich/index.js -->
<g id="node8" class="node">
<title>src/enrich/index.js</title>
<g id="a_node8"><a xlink:href="src/enrich/index.js" xlink:title="index.js">
<path fill="lightgray" stroke="black" d="M502.5,-880C502.5,-880 460.5,-880 460.5,-880 457.5,-880 454.5,-877 454.5,-874 454.5,-874 454.5,-868 454.5,-868 454.5,-865 457.5,-862 460.5,-862 460.5,-862 502.5,-862 502.5,-862 505.5,-862 508.5,-865 508.5,-868 508.5,-868 508.5,-874 508.5,-874 508.5,-877 505.5,-880 502.5,-880"/>
<text text-anchor="start" x="465.5" y="-868.8" font-family="Helvetica,sans-Serif" font-size="9.00" fill="gray">index.js</text>
</a>
</g>
</g>
<!-- src/main/index.js&#45;&gt;src/enrich/index.js -->
<g id="edge6" class="edge">
<title>src/main/index.js&#45;&gt;src/enrich/index.js</title>
<path fill="none" stroke="#000000" stroke-width="2" stroke-opacity="0.200000" d="M190,-344.3C190,-415.48 190,-871 190,-871 190,-871 448.34,-871 448.34,-871"/>
<polygon fill="#000000" fill-opacity="0.200000" stroke="#000000" stroke-width="2" stroke-opacity="0.200000" points="448.34,-873.1 454.34,-871 448.34,-868.9 448.34,-873.1"/>
</g>
<!-- src/extract/index.js -->
<g id="node10" class="node">
<title>src/extract/index.js</title>
<g id="a_node10"><a xlink:href="src/extract/index.js" xlink:title="index.js">
<path fill="lightgray" stroke="black" d="M502.5,-760C502.5,-760 460.5,-760 460.5,-760 457.5,-760 454.5,-757 454.5,-754 454.5,-754 454.5,-748 454.5,-748 454.5,-745 457.5,-742 460.5,-742 460.5,-742 502.5,-742 502.5,-742 505.5,-742 508.5,-745 508.5,-748 508.5,-748 508.5,-754 508.5,-754 508.5,-757 505.5,-760 502.5,-760"/>
<text text-anchor="start" x="465.5" y="-748.8" font-family="Helvetica,sans-Serif" font-size="9.00" fill="gray">index.js</text>
</a>
</g>
</g>
<!-- src/main/index.js&#45;&gt;src/extract/index.js -->
<g id="edge7" class="edge">
<title>src/main/index.js&#45;&gt;src/extract/index.js</title>
<path fill="none" stroke="#000000" stroke-width="2" stroke-opacity="0.200000" d="M198,-344.08C198,-404.91 198,-751 198,-751 198,-751 448.32,-751 448.32,-751"/>
<polygon fill="#000000" fill-opacity="0.200000" stroke="#000000" stroke-width="2" stroke-opacity="0.200000" points="448.32,-753.1 454.32,-751 448.32,-748.9 448.32,-753.1"/>
</g>
<!-- src/extract/transpile/meta.js -->
<g id="node11" class="node">
<title>src/extract/transpile/meta.js</title>
<g id="a_node11"><a xlink:href="src/extract/transpile/meta.js" xlink:title="meta.js">
<path fill="lightgray" stroke="black" d="M502.5,-708C502.5,-708 460.5,-708 460.5,-708 457.5,-708 454.5,-705 454.5,-702 454.5,-702 454.5,-696 454.5,-696 454.5,-693 457.5,-690 460.5,-690 460.5,-690 502.5,-690 502.5,-690 505.5,-690 508.5,-693 508.5,-696 508.5,-696 508.5,-702 508.5,-702 508.5,-705 505.5,-708 502.5,-708"/>
<text text-anchor="start" x="466.5" y="-696.8" font-family="Helvetica,sans-Serif" font-size="9.00" fill="gray">meta.js</text>
</a>
</g>
</g>
<!-- src/main/index.js&#45;&gt;src/extract/transpile/meta.js -->
<g id="edge8" class="edge">
<title>src/main/index.js&#45;&gt;src/extract/transpile/meta.js</title>
<path fill="none" stroke="#000000" stroke-width="2" stroke-opacity="0.200000" d="M206,-344.07C206,-400.59 206,-702 206,-702 206,-702 448.33,-702 448.33,-702"/>
<polygon fill="#000000" fill-opacity="0.200000" stroke="#000000" stroke-width="2" stroke-opacity="0.200000" points="448.33,-704.1 454.33,-702 448.33,-699.9 448.33,-704.1"/>
</g>
<!-- src/main/files&#45;and&#45;dirs/normalize.js -->
<g id="node17" class="node">
<title>src/main/files&#45;and&#45;dirs/normalize.js</title>
<g id="a_node17"><a xlink:href="src/main/files-and-dirs/normalize.js" xlink:title="normalize.js">
<path fill="lime" stroke="black" d="M377.5,-344C377.5,-344 323.5,-344 323.5,-344 320.5,-344 317.5,-341 317.5,-338 317.5,-338 317.5,-332 317.5,-332 317.5,-329 320.5,-326 323.5,-326 323.5,-326 377.5,-326 377.5,-326 380.5,-326 383.5,-329 383.5,-332 383.5,-332 383.5,-338 383.5,-338 383.5,-341 380.5,-344 377.5,-344"/>
<text text-anchor="start" x="325.5" y="-332.8" font-family="Helvetica,sans-Serif" font-size="9.00">normalize.js</text>
</a>
</g>
</g>
<!-- src/main/index.js&#45;&gt;src/main/files&#45;and&#45;dirs/normalize.js -->
<g id="edge11" class="edge">
<title>src/main/index.js&#45;&gt;src/main/files&#45;and&#45;dirs/normalize.js</title>
<path fill="none" stroke="#000000" stroke-width="2" stroke-opacity="0.200000" d="M236.28,-335C236.28,-335 311.32,-335 311.32,-335"/>
<polygon fill="#000000" fill-opacity="0.200000" stroke="#000000" stroke-width="2" stroke-opacity="0.200000" points="311.32,-337.1 317.32,-335 311.32,-332.9 311.32,-337.1"/>
</g>
<!-- src/schema/cruise&#45;result.schema.js -->
<g id="node18" class="node">
<title>src/schema/cruise&#45;result.schema.js</title>
<g id="a_node18"><a xlink:href="src/schema/cruise-result.schema.js" xlink:title="cruise&#45;result.schema.js">
<path fill="lightgray" stroke="black" d="M530.5,-640C530.5,-640 432.5,-640 432.5,-640 429.5,-640 426.5,-637 426.5,-634 426.5,-634 426.5,-628 426.5,-628 426.5,-625 429.5,-622 432.5,-622 432.5,-622 530.5,-622 530.5,-622 533.5,-622 536.5,-625 536.5,-628 536.5,-628 536.5,-634 536.5,-634 536.5,-637 533.5,-640 530.5,-640"/>
<text text-anchor="start" x="434.5" y="-628.8" font-family="Helvetica,sans-Serif" font-size="9.00" fill="gray">cruise&#45;result.schema.js</text>
</a>
</g>
</g>
<!-- src/main/index.js&#45;&gt;src/schema/cruise&#45;result.schema.js -->
<g id="edge9" class="edge">
<title>src/main/index.js&#45;&gt;src/schema/cruise&#45;result.schema.js</title>
<path fill="none" stroke="#000000" stroke-width="2" stroke-opacity="0.200000" d="M213,-344.18C213,-394.14 213,-631 213,-631 213,-631 420.19,-631 420.19,-631"/>
<polygon fill="#000000" fill-opacity="0.200000" stroke="#000000" stroke-width="2" stroke-opacity="0.200000" points="420.19,-633.1 426.19,-631 420.19,-628.9 420.19,-633.1"/>
</g>
<!-- src/utl/bus.js -->
<g id="node19" class="node">
<title>src/utl/bus.js</title>
<g id="a_node19"><a xlink:href="src/utl/bus.js" xlink:title="bus.js">
<path fill="lightgray" stroke="black" d="M371.5,-430C371.5,-430 329.5,-430 329.5,-430 326.5,-430 323.5,-427 323.5,-424 323.5,-424 323.5,-418 323.5,-418 323.5,-415 326.5,-412 329.5,-412 329.5,-412 371.5,-412 371.5,-412 374.5,-412 377.5,-415 377.5,-418 377.5,-418 377.5,-424 377.5,-424 377.5,-427 374.5,-430 371.5,-430"/>
<text text-anchor="start" x="338" y="-418.8" font-family="Helvetica,sans-Serif" font-size="9.00" fill="gray">bus.js</text>
</a>
</g>
</g>
<!-- src/main/index.js&#45;&gt;src/utl/bus.js -->
<g id="edge10" class="edge">
<title>src/main/index.js&#45;&gt;src/utl/bus.js</title>
<path fill="none" stroke="#000000" stroke-width="2" stroke-opacity="0.200000" d="M229,-344.2C229,-366.39 229,-421 229,-421 229,-421 317.23,-421 317.23,-421"/>
<polygon fill="#000000" fill-opacity="0.200000" stroke="#000000" stroke-width="2" stroke-opacity="0.200000" points="317.23,-423.1 323.23,-421 317.23,-418.9 317.23,-423.1"/>
</g>
<!-- src/main/options/normalize.js -->
<g id="node20" class="node">
<title>src/main/options/normalize.js</title>
<g id="a_node20"><a xlink:href="src/main/options/normalize.js" xlink:title="normalize.js">
<path fill="lime" stroke="black" d="M508.5,-144C508.5,-144 454.5,-144 454.5,-144 451.5,-144 448.5,-141 448.5,-138 448.5,-138 448.5,-132 448.5,-132 448.5,-129 451.5,-126 454.5,-126 454.5,-126 508.5,-126 508.5,-126 511.5,-126 514.5,-129 514.5,-132 514.5,-132 514.5,-138 514.5,-138 514.5,-141 511.5,-144 508.5,-144"/>
<text text-anchor="start" x="456.5" y="-132.8" font-family="Helvetica,sans-Serif" font-size="9.00">normalize.js</text>
</a>
</g>
</g>
<!-- src/main/index.js&#45;&gt;src/main/options/normalize.js -->
<g id="edge12" class="edge">
<title>src/main/index.js&#45;&gt;src/main/options/normalize.js</title>
<path fill="none" stroke="#000000" stroke-width="2" stroke-opacity="0.200000" d="M200,-325.89C200,-286.76 200,-135 200,-135 200,-135 442.38,-135 442.38,-135"/>
<polygon fill="#000000" fill-opacity="0.200000" stroke="#000000" stroke-width="2" stroke-opacity="0.200000" points="442.38,-137.1 448.38,-135 442.38,-132.9 442.38,-137.1"/>
</g>
<!-- src/main/options/validate.js -->
<g id="node21" class="node">
<title>src/main/options/validate.js</title>
<g id="a_node21"><a xlink:href="src/main/options/validate.js" xlink:title="validate.js">
<path fill="lime" stroke="black" d="M504.5,-174C504.5,-174 458.5,-174 458.5,-174 455.5,-174 452.5,-171 452.5,-168 452.5,-168 452.5,-162 452.5,-162 452.5,-159 455.5,-156 458.5,-156 458.5,-156 504.5,-156 504.5,-156 507.5,-156 510.5,-159 510.5,-162 510.5,-162 510.5,-168 510.5,-168 510.5,-171 507.5,-174 504.5,-174"/>
<text text-anchor="start" x="460.5" y="-162.8" font-family="Helvetica,sans-Serif" font-size="9.00">validate.js</text>
</a>
</g>
</g>
<!-- src/main/index.js&#45;&gt;src/main/options/validate.js -->
<g id="edge13" class="edge">
<title>src/main/index.js&#45;&gt;src/main/options/validate.js</title>
<path fill="none" stroke="#000000" stroke-width="2" stroke-opacity="0.200000" d="M230,-325.98C230,-316.21 230,-302 230,-302 230,-302 492,-302 492,-302 492,-302 492,-180.42 492,-180.42"/>
<polygon fill="#000000" fill-opacity="0.200000" stroke="#000000" stroke-width="2" stroke-opacity="0.200000" points="494.1,-180.42 492,-174.42 489.9,-180.42 494.1,-180.42"/>
</g>
<!-- src/main/report&#45;wrap.js -->
<g id="node22" class="node">
<title>src/main/report&#45;wrap.js</title>
<g id="a_node22"><a xlink:href="src/main/report-wrap.js" xlink:title="report&#45;wrap.js">
<path fill="lime" stroke="black" d="M381,-250C381,-250 320,-250 320,-250 317,-250 314,-247 314,-244 314,-244 314,-238 314,-238 314,-235 317,-232 320,-232 320,-232 381,-232 381,-232 384,-232 387,-235 387,-238 387,-238 387,-244 387,-244 387,-247 384,-250 381,-250"/>
<text text-anchor="start" x="322" y="-238.8" font-family="Helvetica,sans-Serif" font-size="9.00">report&#45;wrap.js</text>
</a>
</g>
</g>
<!-- src/main/index.js&#45;&gt;src/main/report&#45;wrap.js -->
<g id="edge14" class="edge">
<title>src/main/index.js&#45;&gt;src/main/report&#45;wrap.js</title>
<path fill="none" stroke="#000000" stroke-width="2" stroke-opacity="0.200000" d="M218,-325.99C218,-302.46 218,-241 218,-241 218,-241 307.94,-241 307.94,-241"/>
<polygon fill="#000000" fill-opacity="0.200000" stroke="#000000" stroke-width="2" stroke-opacity="0.200000" points="307.94,-243.1 313.94,-241 307.94,-238.9 307.94,-243.1"/>
</g>
<!-- src/main/rule&#45;set/normalize.js -->
<g id="node23" class="node">
<title>src/main/rule&#45;set/normalize.js</title>
<g id="a_node23"><a xlink:href="src/main/rule-set/normalize.js" xlink:title="normalize.js">
<path fill="lime" stroke="black" d="M377.5,-168C377.5,-168 323.5,-168 323.5,-168 320.5,-168 317.5,-165 317.5,-162 317.5,-162 317.5,-156 317.5,-156 317.5,-153 320.5,-150 323.5,-150 323.5,-150 377.5,-150 377.5,-150 380.5,-150 383.5,-153 383.5,-156 383.5,-156 383.5,-162 383.5,-162 383.5,-165 380.5,-168 377.5,-168"/>
<text text-anchor="start" x="325.5" y="-156.8" font-family="Helvetica,sans-Serif" font-size="9.00">normalize.js</text>
</a>
</g>
</g>
<!-- src/main/index.js&#45;&gt;src/main/rule&#45;set/normalize.js -->
<g id="edge16" class="edge">
<title>src/main/index.js&#45;&gt;src/main/rule&#45;set/normalize.js</title>
<path fill="none" stroke="#000000" stroke-width="2" stroke-opacity="0.200000" d="M206,-325.54C206,-288.98 206,-159 206,-159 206,-159 311.35,-159 311.35,-159"/>
<polygon fill="#000000" fill-opacity="0.200000" stroke="#000000" stroke-width="2" stroke-opacity="0.200000" points="311.35,-161.1 317.35,-159 311.35,-156.9 311.35,-161.1"/>
</g>
<!-- src/main/rule&#45;set/validate.js -->
<g id="node24" class="node">
<title>src/main/rule&#45;set/validate.js</title>
<g id="a_node24"><a xlink:href="src/main/rule-set/validate.js" xlink:title="validate.js">
<path fill="lime" stroke="black" d="M373.5,-198C373.5,-198 327.5,-198 327.5,-198 324.5,-198 321.5,-195 321.5,-192 321.5,-192 321.5,-186 321.5,-186 321.5,-183 324.5,-180 327.5,-180 327.5,-180 373.5,-180 373.5,-180 376.5,-180 379.5,-183 379.5,-186 379.5,-186 379.5,-192 379.5,-192 379.5,-195 376.5,-198 373.5,-198"/>
<text text-anchor="start" x="329.5" y="-186.8" font-family="Helvetica,sans-Serif" font-size="9.00">validate.js</text>
</a>
</g>
</g>
<!-- src/main/index.js&#45;&gt;src/main/rule&#45;set/validate.js -->
<g id="edge17" class="edge">
<title>src/main/index.js&#45;&gt;src/main/rule&#45;set/validate.js</title>
<path fill="none" stroke="#000000" stroke-width="2" stroke-opacity="0.200000" d="M212,-325.87C212,-293.9 212,-189 212,-189 212,-189 315.47,-189 315.47,-189"/>
<polygon fill="#000000" fill-opacity="0.200000" stroke="#000000" stroke-width="2" stroke-opacity="0.200000" points="315.47,-191.1 321.47,-189 315.47,-186.9 315.47,-191.1"/>
</g>
<!-- src/cli/format.js -->
<g id="node4" class="node">
<title>src/cli/format.js</title>
<g id="a_node4"><a xlink:href="src/cli/format.js" xlink:title="format.js">
<path fill="lightgray" stroke="black" d="M91,-344C91,-344 49,-344 49,-344 46,-344 43,-341 43,-338 43,-338 43,-332 43,-332 43,-329 46,-326 49,-326 49,-326 91,-326 91,-326 94,-326 97,-329 97,-332 97,-332 97,-338 97,-338 97,-341 94,-344 91,-344"/>
<text text-anchor="start" x="52.5" y="-332.8" font-family="Helvetica,sans-Serif" font-size="9.00" fill="gray">format.js</text>
</a>
</g>
</g>
<!-- src/cli/format.js&#45;&gt;src/main/index.js -->
<g id="edge2" class="edge">
<title>src/cli/format.js&#45;&gt;src/main/index.js</title>
<path fill="none" stroke="#000000" stroke-width="2" stroke-opacity="0.200000" d="M97.13,-332C97.13,-332 175.94,-332 175.94,-332"/>
<polygon fill="#000000" fill-opacity="0.200000" stroke="#000000" stroke-width="2" stroke-opacity="0.200000" points="175.94,-334.1 181.94,-332 175.94,-329.9 175.94,-334.1"/>
</g>
<!-- src/cli/index.js -->
<g id="node5" class="node">
<title>src/cli/index.js</title>
<g id="a_node5"><a xlink:href="src/cli/index.js" xlink:title="index.js">
<path fill="lightgray" stroke="black" d="M91,-314C91,-314 49,-314 49,-314 46,-314 43,-311 43,-308 43,-308 43,-302 43,-302 43,-299 46,-296 49,-296 49,-296 91,-296 91,-296 94,-296 97,-299 97,-302 97,-302 97,-308 97,-308 97,-311 94,-314 91,-314"/>
<text text-anchor="start" x="54" y="-302.8" font-family="Helvetica,sans-Serif" font-size="9.00" fill="gray">index.js</text>
</a>
</g>
</g>
<!-- src/cli/index.js&#45;&gt;src/main/index.js -->
<g id="edge3" class="edge">
<title>src/cli/index.js&#45;&gt;src/main/index.js</title>
<path fill="none" stroke="#000000" stroke-width="2" stroke-opacity="0.200000" d="M97.21,-308C133.71,-308 194,-308 194,-308 194,-308 194,-319.86 194,-319.86"/>
<polygon fill="#000000" fill-opacity="0.200000" stroke="#000000" stroke-width="2" stroke-opacity="0.200000" points="191.9,-319.86 194,-325.86 196.1,-319.86 191.9,-319.86"/>
</g>
<!-- src/config&#45;utl/extract&#45;depcruise&#45;config/index.js -->
<g id="node6" class="node">
<title>src/config&#45;utl/extract&#45;depcruise&#45;config/index.js</title>
<g id="a_node6"><a xlink:href="src/config-utl/extract-depcruise-config/index.js" xlink:title="index.js">
<path fill="lightgray" stroke="black" d="M230,-50C230,-50 188,-50 188,-50 185,-50 182,-47 182,-44 182,-44 182,-38 182,-38 182,-35 185,-32 188,-32 188,-32 230,-32 230,-32 233,-32 236,-35 236,-38 236,-38 236,-44 236,-44 236,-47 233,-50 230,-50"/>
<text text-anchor="start" x="193" y="-38.8" font-family="Helvetica,sans-Serif" font-size="9.00" fill="gray">index.js</text>
</a>
</g>
</g>
<!-- src/config&#45;utl/extract&#45;depcruise&#45;config/index.js&#45;&gt;src/main/resolve&#45;options/normalize.js -->
<g id="edge4" class="edge">
<title>src/config&#45;utl/extract&#45;depcruise&#45;config/index.js&#45;&gt;src/main/resolve&#45;options/normalize.js</title>
<path fill="none" stroke="#000000" stroke-width="2" stroke-opacity="0.200000" d="M188,-50.06C188,-92.76 188,-272 188,-272 188,-272 311.22,-272 311.22,-272"/>
<polygon fill="#000000" fill-opacity="0.200000" stroke="#000000" stroke-width="2" stroke-opacity="0.200000" points="311.22,-274.1 317.22,-272 311.22,-269.9 311.22,-274.1"/>
</g>
<!-- src/main/resolve&#45;options/normalize.js&#45;&gt;src/extract/transpile/meta.js -->
<g id="edge27" class="edge">
<title>src/main/resolve&#45;options/normalize.js&#45;&gt;src/extract/transpile/meta.js</title>
<path fill="none" stroke="#000000" stroke-width="2" stroke-opacity="0.200000" d="M383.65,-278C392.18,-278 399,-278 399,-278 399,-278 399,-696 399,-696 399,-696 448.49,-696 448.49,-696"/>
<polygon fill="#000000" fill-opacity="0.200000" stroke="#000000" stroke-width="2" stroke-opacity="0.200000" points="448.49,-698.1 454.49,-696 448.49,-693.9 448.49,-698.1"/>
</g>
<!-- src/graph&#45;utl/rule&#45;set.js -->
<g id="node15" class="node">
<title>src/graph&#45;utl/rule&#45;set.js</title>
<g id="a_node15"><a xlink:href="src/graph-utl/rule-set.js" xlink:title="rule&#45;set.js">
<path fill="lightgray" stroke="black" d="M503.5,-550C503.5,-550 459.5,-550 459.5,-550 456.5,-550 453.5,-547 453.5,-544 453.5,-544 453.5,-538 453.5,-538 453.5,-535 456.5,-532 459.5,-532 459.5,-532 503.5,-532 503.5,-532 506.5,-532 509.5,-535 509.5,-538 509.5,-538 509.5,-544 509.5,-544 509.5,-547 506.5,-550 503.5,-550"/>
<text text-anchor="start" x="461.5" y="-538.8" font-family="Helvetica,sans-Serif" font-size="9.00" fill="gray">rule&#45;set.js</text>
</a>
</g>
</g>
<!-- src/main/resolve&#45;options/normalize.js&#45;&gt;src/graph&#45;utl/rule&#45;set.js -->
<g id="edge28" class="edge">
<title>src/main/resolve&#45;options/normalize.js&#45;&gt;src/graph&#45;utl/rule&#45;set.js</title>
<path fill="none" stroke="#000000" stroke-width="2" stroke-opacity="0.200000" d="M383.69,-272C395.99,-272 407,-272 407,-272 407,-272 407,-541 407,-541 407,-541 447.33,-541 447.33,-541"/>
<polygon fill="#000000" fill-opacity="0.200000" stroke="#000000" stroke-width="2" stroke-opacity="0.200000" points="447.33,-543.1 453.33,-541 447.33,-538.9 447.33,-543.1"/>
</g>
<!-- src/enrich/summarize/index.js -->
<g id="node9" class="node">
<title>src/enrich/summarize/index.js</title>
<g id="a_node9"><a xlink:href="src/enrich/summarize/index.js" xlink:title="index.js">
<path fill="lightgray" stroke="black" d="M502.5,-828C502.5,-828 460.5,-828 460.5,-828 457.5,-828 454.5,-825 454.5,-822 454.5,-822 454.5,-816 454.5,-816 454.5,-813 457.5,-810 460.5,-810 460.5,-810 502.5,-810 502.5,-810 505.5,-810 508.5,-813 508.5,-816 508.5,-816 508.5,-822 508.5,-822 508.5,-825 505.5,-828 502.5,-828"/>
<text text-anchor="start" x="465.5" y="-816.8" font-family="Helvetica,sans-Serif" font-size="9.00" fill="gray">index.js</text>
</a>
</g>
</g>
<!-- src/graph&#45;utl/compare.js -->
<g id="node12" class="node">
<title>src/graph&#45;utl/compare.js</title>
<g id="a_node12"><a xlink:href="src/graph-utl/compare.js" xlink:title="compare.js">
<path fill="lightgray" stroke="black" d="M506.5,-520C506.5,-520 456.5,-520 456.5,-520 453.5,-520 450.5,-517 450.5,-514 450.5,-514 450.5,-508 450.5,-508 450.5,-505 453.5,-502 456.5,-502 456.5,-502 506.5,-502 506.5,-502 509.5,-502 512.5,-505 512.5,-508 512.5,-508 512.5,-514 512.5,-514 512.5,-517 509.5,-520 506.5,-520"/>
<text text-anchor="start" x="458.5" y="-508.8" font-family="Helvetica,sans-Serif" font-size="9.00" fill="gray">compare.js</text>
</a>
</g>
</g>
<!-- src/graph&#45;utl/consolidate&#45;to&#45;pattern.js -->
<g id="node13" class="node">
<title>src/graph&#45;utl/consolidate&#45;to&#45;pattern.js</title>
<g id="a_node13"><a xlink:href="src/graph-utl/consolidate-to-pattern.js" xlink:title="consolidate&#45;to&#45;pattern.js">
<path fill="lightgray" stroke="black" d="M533,-490C533,-490 430,-490 430,-490 427,-490 424,-487 424,-484 424,-484 424,-478 424,-478 424,-475 427,-472 430,-472 430,-472 533,-472 533,-472 536,-472 539,-475 539,-478 539,-478 539,-484 539,-484 539,-487 536,-490 533,-490"/>
<text text-anchor="start" x="432" y="-478.8" font-family="Helvetica,sans-Serif" font-size="9.00" fill="gray">consolidate&#45;to&#45;pattern.js</text>
</a>
</g>
</g>
<!-- src/graph&#45;utl/filterbank.js -->
<g id="node14" class="node">
<title>src/graph&#45;utl/filterbank.js</title>
<g id="a_node14"><a xlink:href="src/graph-utl/filterbank.js" xlink:title="filterbank.js">
<path fill="lightgray" stroke="black" d="M507,-460C507,-460 456,-460 456,-460 453,-460 450,-457 450,-454 450,-454 450,-448 450,-448 450,-445 453,-442 456,-442 456,-442 507,-442 507,-442 510,-442 513,-445 513,-448 513,-448 513,-454 513,-454 513,-457 510,-460 507,-460"/>
<text text-anchor="start" x="458" y="-448.8" font-family="Helvetica,sans-Serif" font-size="9.00" fill="gray">filterbank.js</text>
</a>
</g>
</g>
<!-- src/graph&#45;utl/strip&#45;self&#45;transitions.js -->
<g id="node16" class="node">
<title>src/graph&#45;utl/strip&#45;self&#45;transitions.js</title>
<g id="a_node16"><a xlink:href="src/graph-utl/strip-self-transitions.js" xlink:title="strip&#45;self&#45;transitions.js">
<path fill="lightgray" stroke="black" d="M528,-430C528,-430 435,-430 435,-430 432,-430 429,-427 429,-424 429,-424 429,-418 429,-418 429,-415 432,-412 435,-412 435,-412 528,-412 528,-412 531,-412 534,-415 534,-418 534,-418 534,-424 534,-424 534,-427 531,-430 528,-430"/>
<text text-anchor="start" x="437" y="-418.8" font-family="Helvetica,sans-Serif" font-size="9.00" fill="gray">strip&#45;self&#45;transitions.js</text>
</a>
</g>
</g>
<!-- src/main/options/defaults.js -->
<g id="node25" class="node">
<title>src/main/options/defaults.js</title>
<g id="a_node25"><a xlink:href="src/main/options/defaults.js" xlink:title="defaults.js">
<path fill="lime" stroke="black" d="M647,-144C647,-144 601,-144 601,-144 598,-144 595,-141 595,-138 595,-138 595,-132 595,-132 595,-129 598,-126 601,-126 601,-126 647,-126 647,-126 650,-126 653,-129 653,-132 653,-132 653,-138 653,-138 653,-141 650,-144 647,-144"/>
<text text-anchor="start" x="603" y="-132.8" font-family="Helvetica,sans-Serif" font-size="9.00">defaults.js</text>
</a>
</g>
</g>
<!-- src/main/options/normalize.js&#45;&gt;src/main/options/defaults.js -->
<g id="edge19" class="edge">
<title>src/main/options/normalize.js&#45;&gt;src/main/options/defaults.js</title>
<path fill="none" stroke="#000000" stroke-width="2" stroke-opacity="0.200000" d="M514.55,-132C514.55,-132 588.99,-132 588.99,-132"/>
<polygon fill="#000000" fill-opacity="0.200000" stroke="#000000" stroke-width="2" stroke-opacity="0.200000" points="588.99,-134.1 594.99,-132 588.99,-129.9 588.99,-134.1"/>
</g>
<!-- src/main/utl/normalize&#45;re&#45;properties.js -->
<g id="node26" class="node">
<title>src/main/utl/normalize&#45;re&#45;properties.js</title>
<g id="a_node26"><a xlink:href="src/main/utl/normalize-re-properties.js" xlink:title="normalize&#45;re&#45;properties.js">
<path fill="lime" stroke="black" d="M679,-234C679,-234 569,-234 569,-234 566,-234 563,-231 563,-228 563,-228 563,-222 563,-222 563,-219 566,-216 569,-216 569,-216 679,-216 679,-216 682,-216 685,-219 685,-222 685,-222 685,-228 685,-228 685,-231 682,-234 679,-234"/>
<text text-anchor="start" x="571" y="-222.8" font-family="Helvetica,sans-Serif" font-size="9.00">normalize&#45;re&#45;properties.js</text>
</a>
</g>
</g>
<!-- src/main/options/normalize.js&#45;&gt;src/main/utl/normalize&#45;re&#45;properties.js -->
<g id="edge18" class="edge">
<title>src/main/options/normalize.js&#45;&gt;src/main/utl/normalize&#45;re&#45;properties.js</title>
<path fill="none" stroke="#000000" stroke-width="2" stroke-opacity="0.200000" d="M514.51,-138C542.79,-138 579,-138 579,-138 579,-138 579,-209.69 579,-209.69"/>
<polygon fill="#000000" fill-opacity="0.200000" stroke="#000000" stroke-width="2" stroke-opacity="0.200000" points="576.9,-209.69 579,-215.69 581.1,-209.69 576.9,-209.69"/>
</g>
<!-- src/report/index.js -->
<g id="node27" class="node">
<title>src/report/index.js</title>
<g id="a_node27"><a xlink:href="src/report/index.js" xlink:title="index.js">
<path fill="lightgray" stroke="black" d="M645,-430C645,-430 603,-430 603,-430 600,-430 597,-427 597,-424 597,-424 597,-418 597,-418 597,-415 600,-412 603,-412 603,-412 645,-412 645,-412 648,-412 651,-415 651,-418 651,-418 651,-424 651,-424 651,-427 648,-430 645,-430"/>
<text text-anchor="start" x="608" y="-418.8" font-family="Helvetica,sans-Serif" font-size="9.00" fill="gray">index.js</text>
</a>
</g>
</g>
<!-- src/main/options/validate.js&#45;&gt;src/report/index.js -->
<g id="edge20" class="edge">
<title>src/main/options/validate.js&#45;&gt;src/report/index.js</title>
<path fill="none" stroke="#000000" stroke-width="2" stroke-opacity="0.200000" d="M510.57,-165C529.62,-165 551,-165 551,-165 551,-165 551,-421 551,-421 551,-421 590.82,-421 590.82,-421"/>
<polygon fill="#000000" fill-opacity="0.200000" stroke="#000000" stroke-width="2" stroke-opacity="0.200000" points="590.82,-423.1 596.82,-421 590.82,-418.9 590.82,-423.1"/>
</g>
<!-- src/main/report&#45;wrap.js&#45;&gt;src/enrich/summarize/index.js -->
<g id="edge21" class="edge">
<title>src/main/report&#45;wrap.js&#45;&gt;src/enrich/summarize/index.js</title>
<path fill="none" stroke="#000000" stroke-width="2" stroke-opacity="0.200000" d="M387.25,-247.71C391.86,-247.71 395,-247.71 395,-247.71 395,-247.71 395,-819 395,-819 395,-819 448.13,-819 448.13,-819"/>
<polygon fill="#000000" fill-opacity="0.200000" stroke="#000000" stroke-width="2" stroke-opacity="0.200000" points="448.13,-821.1 454.13,-819 448.13,-816.9 448.13,-821.1"/>
</g>
<!-- src/main/report&#45;wrap.js&#45;&gt;src/graph&#45;utl/compare.js -->
<g id="edge22" class="edge">
<title>src/main/report&#45;wrap.js&#45;&gt;src/graph&#45;utl/compare.js</title>
<path fill="none" stroke="#000000" stroke-width="2" stroke-opacity="0.200000" d="M387.34,-245.43C400.44,-245.43 412,-245.43 412,-245.43 412,-245.43 412,-511 412,-511 412,-511 444.41,-511 444.41,-511"/>
<polygon fill="#000000" fill-opacity="0.200000" stroke="#000000" stroke-width="2" stroke-opacity="0.200000" points="444.41,-513.1 450.41,-511 444.41,-508.9 444.41,-513.1"/>
</g>
<!-- src/main/report&#45;wrap.js&#45;&gt;src/graph&#45;utl/consolidate&#45;to&#45;pattern.js -->
<g id="edge23" class="edge">
<title>src/main/report&#45;wrap.js&#45;&gt;src/graph&#45;utl/consolidate&#45;to&#45;pattern.js</title>
<path fill="none" stroke="#000000" stroke-width="2" stroke-opacity="0.200000" d="M387.08,-243.14C402.08,-243.14 416,-243.14 416,-243.14 416,-243.14 416,-481 416,-481 416,-481 417.77,-481 417.77,-481"/>
<polygon fill="#000000" fill-opacity="0.200000" stroke="#000000" stroke-width="2" stroke-opacity="0.200000" points="417.77,-483.1 423.77,-481 417.77,-478.9 417.77,-483.1"/>
</g>
<!-- src/main/report&#45;wrap.js&#45;&gt;src/graph&#45;utl/filterbank.js -->
<g id="edge24" class="edge">
<title>src/main/report&#45;wrap.js&#45;&gt;src/graph&#45;utl/filterbank.js</title>
<path fill="none" stroke="#000000" stroke-width="2" stroke-opacity="0.200000" d="M387.29,-240.86C403.96,-240.86 420,-240.86 420,-240.86 420,-240.86 420,-451 420,-451 420,-451 443.67,-451 443.67,-451"/>
<polygon fill="#000000" fill-opacity="0.200000" stroke="#000000" stroke-width="2" stroke-opacity="0.200000" points="443.67,-453.1 449.67,-451 443.67,-448.9 443.67,-453.1"/>
</g>
<!-- src/main/report&#45;wrap.js&#45;&gt;src/graph&#45;utl/strip&#45;self&#45;transitions.js -->
<g id="edge25" class="edge">
<title>src/main/report&#45;wrap.js&#45;&gt;src/graph&#45;utl/strip&#45;self&#45;transitions.js</title>
<path fill="none" stroke="#000000" stroke-width="2" stroke-opacity="0.200000" d="M387.19,-238.57C412.65,-238.57 442,-238.57 442,-238.57 442,-238.57 442,-405.7 442,-405.7"/>
<polygon fill="#000000" fill-opacity="0.200000" stroke="#000000" stroke-width="2" stroke-opacity="0.200000" points="439.9,-405.7 442,-411.7 444.1,-405.7 439.9,-405.7"/>
</g>
<!-- src/main/report&#45;wrap.js&#45;&gt;src/report/index.js -->
<g id="edge26" class="edge">
<title>src/main/report&#45;wrap.js&#45;&gt;src/report/index.js</title>
<path fill="none" stroke="#000000" stroke-width="2" stroke-opacity="0.200000" d="M387.1,-236.29C461.63,-236.29 624,-236.29 624,-236.29 624,-236.29 624,-405.84 624,-405.84"/>
<polygon fill="#000000" fill-opacity="0.200000" stroke="#000000" stroke-width="2" stroke-opacity="0.200000" points="621.9,-405.84 624,-411.84 626.1,-405.84 621.9,-405.84"/>
</g>
<!-- src/main/rule&#45;set/normalize.js&#45;&gt;src/main/utl/normalize&#45;re&#45;properties.js -->
<g id="edge29" class="edge">
<title>src/main/rule&#45;set/normalize.js&#45;&gt;src/main/utl/normalize&#45;re&#45;properties.js</title>
<path fill="none" stroke="#000000" stroke-width="2" stroke-opacity="0.200000" d="M383.8,-162C407.81,-162 436,-162 436,-162 436,-162 436,-224 436,-224 436,-224 556.96,-224 556.96,-224"/>
<polygon fill="#000000" fill-opacity="0.200000" stroke="#000000" stroke-width="2" stroke-opacity="0.200000" points="556.96,-226.1 562.96,-224 556.96,-221.9 556.96,-226.1"/>
</g>
<!-- src/main/rule&#45;set/validate.js&#45;&gt;src/main/options/validate.js -->
<g id="edge31" class="edge">
<title>src/main/rule&#45;set/validate.js&#45;&gt;src/main/options/validate.js</title>
<path fill="none" stroke="#000000" stroke-width="2" stroke-opacity="0.200000" d="M379.6,-186C415.55,-186 472,-186 472,-186 472,-186 472,-180.03 472,-180.03"/>
<polygon fill="#000000" fill-opacity="0.200000" stroke="#000000" stroke-width="2" stroke-opacity="0.200000" points="474.1,-180.03 472,-174.03 469.9,-180.03 474.1,-180.03"/>
</g>
<!-- src/schema/configuration.schema.js -->
<g id="node28" class="node">
<title>src/schema/configuration.schema.js</title>
<g id="a_node28"><a xlink:href="src/schema/configuration.schema.js" xlink:title="configuration.schema.js">
<path fill="lightgray" stroke="black" d="M532,-610C532,-610 431,-610 431,-610 428,-610 425,-607 425,-604 425,-604 425,-598 425,-598 425,-595 428,-592 431,-592 431,-592 532,-592 532,-592 535,-592 538,-595 538,-598 538,-598 538,-604 538,-604 538,-607 535,-610 532,-610"/>
<text text-anchor="start" x="433" y="-598.8" font-family="Helvetica,sans-Serif" font-size="9.00" fill="gray">configuration.schema.js</text>
</a>
</g>
</g>
<!-- src/main/rule&#45;set/validate.js&#45;&gt;src/schema/configuration.schema.js -->
<g id="edge30" class="edge">
<title>src/main/rule&#45;set/validate.js&#45;&gt;src/schema/configuration.schema.js</title>
<path fill="none" stroke="#000000" stroke-width="2" stroke-opacity="0.200000" d="M379.51,-192C391.66,-192 403,-192 403,-192 403,-192 403,-601 403,-601 403,-601 418.87,-601 418.87,-601"/>
<polygon fill="#000000" fill-opacity="0.200000" stroke="#000000" stroke-width="2" stroke-opacity="0.200000" points="418.87,-603.1 424.87,-601 418.87,-598.9 418.87,-603.1"/>
</g>
</g>
</svg>
