<?xml version="1.0" encoding="UTF-8" standalone="no"?>
<!DOCTYPE svg PUBLIC "-//W3C//DTD SVG 1.1//EN"
 "http://www.w3.org/Graphics/SVG/1.1/DTD/svg11.dtd">
<!-- Generated by graphviz version 2.42.3 (20191010.1750)
 -->
<!-- Title: dependency&#45;cruiser output Pages: 1 -->
<svg width="578pt" height="528pt"
 viewBox="0.00 0.00 577.86 528.00" xmlns="http://www.w3.org/2000/svg" xmlns:xlink="http://www.w3.org/1999/xlink">
<g id="graph0" class="graph" transform="scale(1 1) rotate(0) translate(4 524)">
<title>dependency&#45;cruiser output</title>
<polygon fill="white" stroke="transparent" points="-4,4 -4,-524 573.86,-524 573.86,4 -4,4"/>
<g id="clust1" class="cluster">
<title>cluster_src</title>
<path fill="#ffffff" stroke="black" stroke-width="2" d="M20,-8C20,-8 549.86,-8 549.86,-8 555.86,-8 561.86,-14 561.86,-20 561.86,-20 561.86,-500 561.86,-500 561.86,-506 555.86,-512 549.86,-512 549.86,-512 20,-512 20,-512 14,-512 8,-506 8,-500 8,-500 8,-20 8,-20 8,-14 14,-8 20,-8"/>
<text text-anchor="middle" x="284.93" y="-500.8" font-family="Helvetica,sans-Serif" font-weight="bold" font-size="9.00">src</text>
</g>
<g id="clust2" class="cluster">
<title>cluster_src/cli</title>
<path fill="#ffffff" stroke="black" stroke-width="2" d="M28,-46C28,-46 111.02,-46 111.02,-46 117.02,-46 123.02,-52 123.02,-58 123.02,-58 123.02,-202 123.02,-202 123.02,-208 117.02,-214 111.02,-214 111.02,-214 28,-214 28,-214 22,-214 16,-208 16,-202 16,-202 16,-58 16,-58 16,-52 22,-46 28,-46"/>
<text text-anchor="middle" x="69.51" y="-202.8" font-family="Helvetica,sans-Serif" font-weight="bold" font-size="9.00">cli</text>
</g>
<g id="clust3" class="cluster">
<title>cluster_src/cli/compile&#45;config</title>
<path fill="#ffffff" stroke="black" stroke-width="2" d="M41.51,-54C41.51,-54 97.51,-54 97.51,-54 103.51,-54 109.51,-60 109.51,-66 109.51,-66 109.51,-93 109.51,-93 109.51,-99 103.51,-105 97.51,-105 97.51,-105 41.51,-105 41.51,-105 35.51,-105 29.51,-99 29.51,-93 29.51,-93 29.51,-66 29.51,-66 29.51,-60 35.51,-54 41.51,-54"/>
<text text-anchor="middle" x="69.51" y="-93.8" font-family="Helvetica,sans-Serif" font-weight="bold" font-size="9.00">compile&#45;config</text>
</g>
<g id="clust4" class="cluster">
<title>cluster_src/extract</title>
<path fill="#ffffff" stroke="black" stroke-width="2" d="M362.31,-367C362.31,-367 424.31,-367 424.31,-367 430.31,-367 436.31,-373 436.31,-379 436.31,-379 436.31,-465 436.31,-465 436.31,-471 430.31,-477 424.31,-477 424.31,-477 362.31,-477 362.31,-477 356.31,-477 350.31,-471 350.31,-465 350.31,-465 350.31,-379 350.31,-379 350.31,-373 356.31,-367 362.31,-367"/>
<text text-anchor="middle" x="393.31" y="-465.8" font-family="Helvetica,sans-Serif" font-weight="bold" font-size="9.00">extract</text>
</g>
<g id="clust5" class="cluster">
<title>cluster_src/extract/transpile</title>
<path fill="#ffffff" stroke="black" stroke-width="2" d="M370.31,-375C370.31,-375 416.31,-375 416.31,-375 422.31,-375 428.31,-381 428.31,-387 428.31,-387 428.31,-414 428.31,-414 428.31,-420 422.31,-426 416.31,-426 416.31,-426 370.31,-426 370.31,-426 364.31,-426 358.31,-420 358.31,-414 358.31,-414 358.31,-387 358.31,-387 358.31,-381 364.31,-375 370.31,-375"/>
<text text-anchor="middle" x="393.31" y="-414.8" font-family="Helvetica,sans-Serif" font-weight="bold" font-size="9.00">transpile</text>
</g>
<g id="clust6" class="cluster">
<title>cluster_src/main</title>
<path fill="#ffffff" stroke="black" stroke-width="2" d="M145.02,-16C145.02,-16 541.86,-16 541.86,-16 547.86,-16 553.86,-22 553.86,-28 553.86,-28 553.86,-259 553.86,-259 553.86,-265 547.86,-271 541.86,-271 541.86,-271 145.02,-271 145.02,-271 139.02,-271 133.02,-265 133.02,-259 133.02,-259 133.02,-28 133.02,-28 133.02,-22 139.02,-16 145.02,-16"/>
<text text-anchor="middle" x="343.44" y="-259.8" font-family="Helvetica,sans-Serif" font-weight="bold" font-size="9.00">main</text>
</g>
<g id="clust7" class="cluster">
<title>cluster_src/main/files&#45;and&#45;dirs</title>
<path fill="#ffffff" stroke="black" stroke-width="2" d="M232.02,-195C232.02,-195 288.03,-195 288.03,-195 294.03,-195 300.03,-201 300.03,-207 300.03,-207 300.03,-234 300.03,-234 300.03,-240 294.03,-246 288.03,-246 288.03,-246 232.02,-246 232.02,-246 226.02,-246 220.02,-240 220.02,-234 220.02,-234 220.02,-207 220.02,-207 220.02,-201 226.02,-195 232.02,-195"/>
<text text-anchor="middle" x="260.03" y="-234.8" font-family="Helvetica,sans-Serif" font-weight="bold" font-size="9.00">files&#45;and&#45;dirs</text>
</g>
<g id="clust8" class="cluster">
<title>cluster_src/main/options</title>
<path fill="#ffffff" stroke="black" stroke-width="2" d="M365.31,-51C365.31,-51 533.86,-51 533.86,-51 539.86,-51 545.86,-57 545.86,-63 545.86,-63 545.86,-119 545.86,-119 545.86,-125 539.86,-131 533.86,-131 533.86,-131 365.31,-131 365.31,-131 359.31,-131 353.31,-125 353.31,-119 353.31,-119 353.31,-63 353.31,-63 353.31,-57 359.31,-51 365.31,-51"/>
<text text-anchor="middle" x="449.58" y="-119.8" font-family="Helvetica,sans-Serif" font-weight="bold" font-size="9.00">options</text>
</g>
<g id="clust9" class="cluster">
<title>cluster_src/main/resolve&#45;options</title>
<path fill="#ffffff" stroke="black" stroke-width="2" d="M231.02,-48C231.02,-48 289.03,-48 289.03,-48 295.03,-48 301.03,-54 301.03,-60 301.03,-60 301.03,-87 301.03,-87 301.03,-93 295.03,-99 289.03,-99 289.03,-99 231.02,-99 231.02,-99 225.02,-99 219.02,-93 219.02,-87 219.02,-87 219.02,-60 219.02,-60 219.02,-54 225.02,-48 231.02,-48"/>
<text text-anchor="middle" x="260.03" y="-87.8" font-family="Helvetica,sans-Serif" font-weight="bold" font-size="9.00">resolve&#45;options</text>
</g>
<g id="clust10" class="cluster">
<title>cluster_src/main/rule&#45;set</title>
<path fill="#ffffff" stroke="black" stroke-width="2" d="M232.02,-107C232.02,-107 288.03,-107 288.03,-107 294.03,-107 300.03,-113 300.03,-119 300.03,-119 300.03,-175 300.03,-175 300.03,-181 294.03,-187 288.03,-187 288.03,-187 232.02,-187 232.02,-187 226.02,-187 220.02,-181 220.02,-175 220.02,-175 220.02,-119 220.02,-119 220.02,-113 226.02,-107 232.02,-107"/>
<text text-anchor="middle" x="260.03" y="-175.8" font-family="Helvetica,sans-Serif" font-weight="bold" font-size="9.00">rule&#45;set</text>
</g>
<g id="clust11" class="cluster">
<title>cluster_src/report</title>
<path fill="#ffffff" stroke="black" stroke-width="2" d="M481.59,-357C481.59,-357 527.59,-357 527.59,-357 533.59,-357 539.59,-363 539.59,-369 539.59,-369 539.59,-396 539.59,-396 539.59,-402 533.59,-408 527.59,-408 527.59,-408 481.59,-408 481.59,-408 475.59,-408 469.59,-402 469.59,-396 469.59,-396 469.59,-369 469.59,-369 469.59,-363 475.59,-357 481.59,-357"/>
<text text-anchor="middle" x="504.59" y="-396.8" font-family="Helvetica,sans-Serif" font-weight="bold" font-size="9.00">report</text>
</g>
<g id="clust12" class="cluster">
<title>cluster_src/schema</title>
<path fill="#ffffff" stroke="black" stroke-width="2" d="M337.03,-279C337.03,-279 449.59,-279 449.59,-279 455.59,-279 461.59,-285 461.59,-291 461.59,-291 461.59,-347 461.59,-347 461.59,-353 455.59,-359 449.59,-359 449.59,-359 337.03,-359 337.03,-359 331.03,-359 325.03,-353 325.03,-347 325.03,-347 325.03,-291 325.03,-291 325.03,-285 331.03,-279 337.03,-279"/>
<text text-anchor="middle" x="393.31" y="-347.8" font-family="Helvetica,sans-Serif" font-weight="bold" font-size="9.00">schema</text>
</g>
<!-- src/cli/compile&#45;config/index.js -->
<g id="node1" class="node">
<title>src/cli/compile&#45;config/index.js</title>
<g id="a_node1"><a xlink:href="src/cli/compile-config/index.js" xlink:title="index.js">
<path fill="lightgray" stroke="black" d="M90.84,-79.5C90.84,-79.5 48.18,-79.5 48.18,-79.5 45.34,-79.5 42.51,-76.67 42.51,-73.83 42.51,-73.83 42.51,-68.17 42.51,-68.17 42.51,-65.33 45.34,-62.5 48.18,-62.5 48.18,-62.5 90.84,-62.5 90.84,-62.5 93.68,-62.5 96.51,-65.33 96.51,-68.17 96.51,-68.17 96.51,-73.83 96.51,-73.83 96.51,-76.67 93.68,-79.5 90.84,-79.5"/>
<text text-anchor="middle" x="69.51" y="-68.3" font-family="Helvetica,sans-Serif" font-size="9.00" fill="gray">index.js</text>
</a>
</g>
</g>
<!-- src/main/resolve&#45;options/normalize.js -->
<g id="node2" class="node">
<title>src/main/resolve&#45;options/normalize.js</title>
<g id="a_node2"><a xlink:href="src/main/resolve-options/normalize.js" xlink:title="normalize.js">
<path fill="lime" stroke="black" d="M286.37,-73.5C286.37,-73.5 233.68,-73.5 233.68,-73.5 230.85,-73.5 228.01,-70.67 228.01,-67.83 228.01,-67.83 228.01,-62.17 228.01,-62.17 228.01,-59.33 230.85,-56.5 233.68,-56.5 233.68,-56.5 286.37,-56.5 286.37,-56.5 289.21,-56.5 292.04,-59.33 292.04,-62.17 292.04,-62.17 292.04,-67.83 292.04,-67.83 292.04,-70.67 289.21,-73.5 286.37,-73.5"/>
<text text-anchor="middle" x="260.03" y="-62.3" font-family="Helvetica,sans-Serif" font-size="9.00">normalize.js</text>
</a>
</g>
</g>
<!-- src/cli/compile&#45;config/index.js&#45;&gt;src/main/resolve&#45;options/normalize.js -->
<g id="edge1" class="edge">
<title>src/cli/compile&#45;config/index.js&#45;&gt;src/main/resolve&#45;options/normalize.js</title>
<path fill="none" stroke="#000000" stroke-width="2" stroke-opacity="0.200000" d="M96.81,-66.17C96.81,-66.17 222.01,-66.17 222.01,-66.17"/>
<polygon fill="#000000" fill-opacity="0.200000" stroke="#000000" stroke-width="2" stroke-opacity="0.200000" points="222.01,-68.27 228.01,-66.17 222.01,-64.07 222.01,-68.27"/>
</g>
<!-- src/extract/transpile/meta.js -->
<g id="node8" class="node">
<title>src/extract/transpile/meta.js</title>
<g id="a_node8"><a xlink:href="src/extract/transpile/meta.js" xlink:title="meta.js">
<path fill="lightgray" stroke="black" d="M414.65,-400.5C414.65,-400.5 371.98,-400.5 371.98,-400.5 369.15,-400.5 366.31,-397.67 366.31,-394.83 366.31,-394.83 366.31,-389.17 366.31,-389.17 366.31,-386.33 369.15,-383.5 371.98,-383.5 371.98,-383.5 414.65,-383.5 414.65,-383.5 417.48,-383.5 420.31,-386.33 420.31,-389.17 420.31,-389.17 420.31,-394.83 420.31,-394.83 420.31,-397.67 417.48,-400.5 414.65,-400.5"/>
<text text-anchor="middle" x="393.31" y="-389.3" font-family="Helvetica,sans-Serif" font-size="9.00" fill="gray">meta.js</text>
</a>
</g>
</g>
<!-- src/main/resolve&#45;options/normalize.js&#45;&gt;src/extract/transpile/meta.js -->
<g id="edge17" class="edge">
<title>src/main/resolve&#45;options/normalize.js&#45;&gt;src/extract/transpile/meta.js</title>
<path fill="none" stroke="#000000" stroke-width="2" stroke-opacity="0.200000" d="M292.28,-66.5C303.28,-66.5 312.86,-66.5 312.86,-66.5 312.86,-66.5 312.86,-389.17 312.86,-389.17 312.86,-389.17 360.08,-389.17 360.08,-389.17"/>
<polygon fill="#000000" fill-opacity="0.200000" stroke="#000000" stroke-width="2" stroke-opacity="0.200000" points="360.08,-391.27 366.08,-389.17 360.08,-387.07 360.08,-391.27"/>
</g>
<!-- src/cli/format&#45;meta&#45;info.js -->
<g id="node3" class="node">
<title>src/cli/format&#45;meta&#45;info.js</title>
<g id="a_node3"><a xlink:href="src/cli/format-meta-info.js" xlink:title="format&#45;meta&#45;info.js">
<path fill="lightgray" stroke="black" d="M109.36,-130.5C109.36,-130.5 29.66,-130.5 29.66,-130.5 26.82,-130.5 23.99,-127.67 23.99,-124.83 23.99,-124.83 23.99,-119.17 23.99,-119.17 23.99,-116.33 26.82,-113.5 29.66,-113.5 29.66,-113.5 109.36,-113.5 109.36,-113.5 112.2,-113.5 115.03,-116.33 115.03,-119.17 115.03,-119.17 115.03,-124.83 115.03,-124.83 115.03,-127.67 112.2,-130.5 109.36,-130.5"/>
<text text-anchor="middle" x="69.51" y="-119.3" font-family="Helvetica,sans-Serif" font-size="9.00" fill="gray">format&#45;meta&#45;info.js</text>
</a>
</g>
</g>
<!-- src/main/index.js -->
<g id="node4" class="node">
<title>src/main/index.js</title>
<g id="a_node4"><a xlink:href="src/main/index.js" xlink:title="index.js">
<path fill="lime" stroke="black" d="M189.35,-161.5C189.35,-161.5 146.69,-161.5 146.69,-161.5 143.85,-161.5 141.02,-158.67 141.02,-155.83 141.02,-155.83 141.02,-150.17 141.02,-150.17 141.02,-147.33 143.85,-144.5 146.69,-144.5 146.69,-144.5 189.35,-144.5 189.35,-144.5 192.19,-144.5 195.02,-147.33 195.02,-150.17 195.02,-150.17 195.02,-155.83 195.02,-155.83 195.02,-158.67 192.19,-161.5 189.35,-161.5"/>
<text text-anchor="middle" x="168.02" y="-150.3" font-family="Helvetica,sans-Serif" font-size="9.00">index.js</text>
</a>
</g>
</g>
<!-- src/cli/format&#45;meta&#45;info.js&#45;&gt;src/main/index.js -->
<g id="edge2" class="edge">
<title>src/cli/format&#45;meta&#45;info.js&#45;&gt;src/main/index.js</title>
<path fill="none" stroke="#000000" stroke-width="2" stroke-opacity="0.200000" d="M105.86,-130.7C105.86,-138.76 105.86,-149.5 105.86,-149.5 105.86,-149.5 134.94,-149.5 134.94,-149.5"/>
<polygon fill="#000000" fill-opacity="0.200000" stroke="#000000" stroke-width="2" stroke-opacity="0.200000" points="134.94,-151.6 140.94,-149.5 134.94,-147.4 134.94,-151.6"/>
</g>
<!-- src/main/index.js&#45;&gt;src/main/resolve&#45;options/normalize.js -->
<g id="edge12" class="edge">
<title>src/main/index.js&#45;&gt;src/main/resolve&#45;options/normalize.js</title>
<path fill="none" stroke="#000000" stroke-width="2" stroke-opacity="0.200000" d="M151.86,-144.41C151.86,-123.16 151.86,-69.83 151.86,-69.83 151.86,-69.83 221.87,-69.83 221.87,-69.83"/>
<polygon fill="#000000" fill-opacity="0.200000" stroke="#000000" stroke-width="2" stroke-opacity="0.200000" points="221.87,-71.93 227.87,-69.83 221.87,-67.73 221.87,-71.93"/>
</g>
<!-- src/extract/index.js -->
<g id="node7" class="node">
<title>src/extract/index.js</title>
<g id="a_node7"><a xlink:href="src/extract/index.js" xlink:title="index.js">
<path fill="lightgray" stroke="black" d="M414.65,-451.5C414.65,-451.5 371.98,-451.5 371.98,-451.5 369.15,-451.5 366.31,-448.67 366.31,-445.83 366.31,-445.83 366.31,-440.17 366.31,-440.17 366.31,-437.33 369.15,-434.5 371.98,-434.5 371.98,-434.5 414.65,-434.5 414.65,-434.5 417.48,-434.5 420.31,-437.33 420.31,-440.17 420.31,-440.17 420.31,-445.83 420.31,-445.83 420.31,-448.67 417.48,-451.5 414.65,-451.5"/>
<text text-anchor="middle" x="393.31" y="-440.3" font-family="Helvetica,sans-Serif" font-size="9.00" fill="gray">index.js</text>
</a>
</g>
</g>
<!-- src/main/index.js&#45;&gt;src/extract/index.js -->
<g id="edge5" class="edge">
<title>src/main/index.js&#45;&gt;src/extract/index.js</title>
<path fill="none" stroke="#000000" stroke-width="2" stroke-opacity="0.200000" d="M156.86,-161.68C156.86,-209.93 156.86,-443 156.86,-443 156.86,-443 360.19,-443 360.19,-443"/>
<polygon fill="#000000" fill-opacity="0.200000" stroke="#000000" stroke-width="2" stroke-opacity="0.200000" points="360.19,-445.1 366.19,-443 360.19,-440.9 360.19,-445.1"/>
</g>
<!-- src/main/index.js&#45;&gt;src/extract/transpile/meta.js -->
<g id="edge6" class="edge">
<title>src/main/index.js&#45;&gt;src/extract/transpile/meta.js</title>
<path fill="none" stroke="#000000" stroke-width="2" stroke-opacity="0.200000" d="M164.86,-161.61C164.86,-204.69 164.86,-394.83 164.86,-394.83 164.86,-394.83 360.21,-394.83 360.21,-394.83"/>
<polygon fill="#000000" fill-opacity="0.200000" stroke="#000000" stroke-width="2" stroke-opacity="0.200000" points="360.21,-396.93 366.21,-394.83 360.21,-392.73 360.21,-396.93"/>
</g>
<!-- src/main/files&#45;and&#45;dirs/normalize.js -->
<g id="node9" class="node">
<title>src/main/files&#45;and&#45;dirs/normalize.js</title>
<g id="a_node9"><a xlink:href="src/main/files-and-dirs/normalize.js" xlink:title="normalize.js">
<path fill="lime" stroke="black" d="M286.37,-220.5C286.37,-220.5 233.68,-220.5 233.68,-220.5 230.85,-220.5 228.01,-217.67 228.01,-214.83 228.01,-214.83 228.01,-209.17 228.01,-209.17 228.01,-206.33 230.85,-203.5 233.68,-203.5 233.68,-203.5 286.37,-203.5 286.37,-203.5 289.21,-203.5 292.04,-206.33 292.04,-209.17 292.04,-209.17 292.04,-214.83 292.04,-214.83 292.04,-217.67 289.21,-220.5 286.37,-220.5"/>
<text text-anchor="middle" x="260.03" y="-209.3" font-family="Helvetica,sans-Serif" font-size="9.00">normalize.js</text>
</a>
</g>
</g>
<!-- src/main/index.js&#45;&gt;src/main/files&#45;and&#45;dirs/normalize.js -->
<g id="edge9" class="edge">
<title>src/main/index.js&#45;&gt;src/main/files&#45;and&#45;dirs/normalize.js</title>
<path fill="none" stroke="#000000" stroke-width="2" stroke-opacity="0.200000" d="M187.86,-161.71C187.86,-178.12 187.86,-212 187.86,-212 187.86,-212 221.74,-212 221.74,-212"/>
<polygon fill="#000000" fill-opacity="0.200000" stroke="#000000" stroke-width="2" stroke-opacity="0.200000" points="221.74,-214.1 227.74,-212 221.74,-209.9 221.74,-214.1"/>
</g>
<!-- src/report/index.js -->
<g id="node10" class="node">
<title>src/report/index.js</title>
<g id="a_node10"><a xlink:href="src/report/index.js" xlink:title="index.js">
<path fill="lightgray" stroke="black" d="M525.93,-382.5C525.93,-382.5 483.26,-382.5 483.26,-382.5 480.43,-382.5 477.59,-379.67 477.59,-376.83 477.59,-376.83 477.59,-371.17 477.59,-371.17 477.59,-368.33 480.43,-365.5 483.26,-365.5 483.26,-365.5 525.93,-365.5 525.93,-365.5 528.76,-365.5 531.59,-368.33 531.59,-371.17 531.59,-371.17 531.59,-376.83 531.59,-376.83 531.59,-379.67 528.76,-382.5 525.93,-382.5"/>
<text text-anchor="middle" x="504.59" y="-371.3" font-family="Helvetica,sans-Serif" font-size="9.00" fill="gray">index.js</text>
</a>
</g>
</g>
<!-- src/main/index.js&#45;&gt;src/report/index.js -->
<g id="edge7" class="edge">
<title>src/main/index.js&#45;&gt;src/report/index.js</title>
<path fill="none" stroke="#000000" stroke-width="2" stroke-opacity="0.200000" d="M172.86,-161.66C172.86,-202.52 172.86,-374 172.86,-374 172.86,-374 471.45,-374 471.45,-374"/>
<polygon fill="#000000" fill-opacity="0.200000" stroke="#000000" stroke-width="2" stroke-opacity="0.200000" points="471.45,-376.1 477.45,-374 471.45,-371.9 471.45,-376.1"/>
</g>
<!-- src/schema/cruise&#45;result.schema.json -->
<g id="node11" class="node">
<title>src/schema/cruise&#45;result.schema.json</title>
<g id="a_node11"><a xlink:href="src/schema/cruise-result.schema.json" xlink:title="cruise&#45;result.schema.json">
<path fill="lightgray" stroke="black" d="M446.68,-333.5C446.68,-333.5 339.94,-333.5 339.94,-333.5 337.11,-333.5 334.28,-330.67 334.28,-327.83 334.28,-327.83 334.28,-322.17 334.28,-322.17 334.28,-319.33 337.11,-316.5 339.94,-316.5 339.94,-316.5 446.68,-316.5 446.68,-316.5 449.52,-316.5 452.35,-319.33 452.35,-322.17 452.35,-322.17 452.35,-327.83 452.35,-327.83 452.35,-330.67 449.52,-333.5 446.68,-333.5"/>
<text text-anchor="middle" x="393.31" y="-322.3" font-family="Helvetica,sans-Serif" font-size="9.00" fill="gray">cruise&#45;result.schema.json</text>
</a>
</g>
</g>
<!-- src/main/index.js&#45;&gt;src/schema/cruise&#45;result.schema.json -->
<g id="edge8" class="edge">
<title>src/main/index.js&#45;&gt;src/schema/cruise&#45;result.schema.json</title>
<path fill="none" stroke="#000000" stroke-width="2" stroke-opacity="0.200000" d="M179.86,-161.77C179.86,-196.82 179.86,-325 179.86,-325 179.86,-325 328.14,-325 328.14,-325"/>
<polygon fill="#000000" fill-opacity="0.200000" stroke="#000000" stroke-width="2" stroke-opacity="0.200000" points="328.14,-327.1 334.14,-325 328.14,-322.9 328.14,-327.1"/>
</g>
<!-- src/main/options/normalize.js -->
<g id="node12" class="node">
<title>src/main/options/normalize.js</title>
<g id="a_node12"><a xlink:href="src/main/options/normalize.js" xlink:title="normalize.js">
<path fill="lime" stroke="black" d="M419.66,-76.5C419.66,-76.5 366.97,-76.5 366.97,-76.5 364.13,-76.5 361.3,-73.67 361.3,-70.83 361.3,-70.83 361.3,-65.17 361.3,-65.17 361.3,-62.33 364.13,-59.5 366.97,-59.5 366.97,-59.5 419.66,-59.5 419.66,-59.5 422.49,-59.5 425.33,-62.33 425.33,-65.17 425.33,-65.17 425.33,-70.83 425.33,-70.83 425.33,-73.67 422.49,-76.5 419.66,-76.5"/>
<text text-anchor="middle" x="393.31" y="-65.3" font-family="Helvetica,sans-Serif" font-size="9.00">normalize.js</text>
</a>
</g>
</g>
<!-- src/main/index.js&#45;&gt;src/main/options/normalize.js -->
<g id="edge10" class="edge">
<title>src/main/index.js&#45;&gt;src/main/options/normalize.js</title>
<path fill="none" stroke="#000000" stroke-width="2" stroke-opacity="0.200000" d="M162.86,-144.26C162.86,-125.69 162.86,-84 162.86,-84 162.86,-84 393.86,-84 393.86,-84 393.86,-84 393.86,-82.75 393.86,-82.75"/>
<polygon fill="#000000" fill-opacity="0.200000" stroke="#000000" stroke-width="2" stroke-opacity="0.200000" points="395.96,-82.75 393.86,-76.75 391.76,-82.75 395.96,-82.75"/>
</g>
<!-- src/main/options/validate.js -->
<g id="node13" class="node">
<title>src/main/options/validate.js</title>
<g id="a_node13"><a xlink:href="src/main/options/validate.js" xlink:title="validate.js">
<path fill="lime" stroke="black" d="M415.67,-105.5C415.67,-105.5 370.96,-105.5 370.96,-105.5 368.13,-105.5 365.29,-102.67 365.29,-99.83 365.29,-99.83 365.29,-94.17 365.29,-94.17 365.29,-91.33 368.13,-88.5 370.96,-88.5 370.96,-88.5 415.67,-88.5 415.67,-88.5 418.5,-88.5 421.33,-91.33 421.33,-94.17 421.33,-94.17 421.33,-99.83 421.33,-99.83 421.33,-102.67 418.5,-105.5 415.67,-105.5"/>
<text text-anchor="middle" x="393.31" y="-94.3" font-family="Helvetica,sans-Serif" font-size="9.00">validate.js</text>
</a>
</g>
</g>
<!-- src/main/index.js&#45;&gt;src/main/options/validate.js -->
<g id="edge11" class="edge">
<title>src/main/index.js&#45;&gt;src/main/options/validate.js</title>
<path fill="none" stroke="#000000" stroke-width="2" stroke-opacity="0.200000" d="M173.86,-144.25C173.86,-128.5 173.86,-97 173.86,-97 173.86,-97 359.07,-97 359.07,-97"/>
<polygon fill="#000000" fill-opacity="0.200000" stroke="#000000" stroke-width="2" stroke-opacity="0.200000" points="359.07,-99.1 365.07,-97 359.07,-94.9 359.07,-99.1"/>
</g>
<!-- src/main/rule&#45;set/normalize.js -->
<g id="node14" class="node">
<title>src/main/rule&#45;set/normalize.js</title>
<g id="a_node14"><a xlink:href="src/main/rule-set/normalize.js" xlink:title="normalize.js">
<path fill="lime" stroke="black" d="M286.37,-161.5C286.37,-161.5 233.68,-161.5 233.68,-161.5 230.85,-161.5 228.01,-158.67 228.01,-155.83 228.01,-155.83 228.01,-150.17 228.01,-150.17 228.01,-147.33 230.85,-144.5 233.68,-144.5 233.68,-144.5 286.37,-144.5 286.37,-144.5 289.21,-144.5 292.04,-147.33 292.04,-150.17 292.04,-150.17 292.04,-155.83 292.04,-155.83 292.04,-158.67 289.21,-161.5 286.37,-161.5"/>
<text text-anchor="middle" x="260.03" y="-150.3" font-family="Helvetica,sans-Serif" font-size="9.00">normalize.js</text>
</a>
</g>
</g>
<!-- src/main/index.js&#45;&gt;src/main/rule&#45;set/normalize.js -->
<g id="edge13" class="edge">
<title>src/main/index.js&#45;&gt;src/main/rule&#45;set/normalize.js</title>
<path fill="none" stroke="#000000" stroke-width="2" stroke-opacity="0.200000" d="M195.13,-153C195.13,-153 221.92,-153 221.92,-153"/>
<polygon fill="#000000" fill-opacity="0.200000" stroke="#000000" stroke-width="2" stroke-opacity="0.200000" points="221.92,-155.1 227.92,-153 221.92,-150.9 221.92,-155.1"/>
</g>
<!-- src/main/rule&#45;set/validate.js -->
<g id="node15" class="node">
<title>src/main/rule&#45;set/validate.js</title>
<g id="a_node15"><a xlink:href="src/main/rule-set/validate.js" xlink:title="validate.js">
<path fill="lime" stroke="black" d="M282.38,-132.5C282.38,-132.5 237.67,-132.5 237.67,-132.5 234.84,-132.5 232.01,-129.67 232.01,-126.83 232.01,-126.83 232.01,-121.17 232.01,-121.17 232.01,-118.33 234.84,-115.5 237.67,-115.5 237.67,-115.5 282.38,-115.5 282.38,-115.5 285.21,-115.5 288.05,-118.33 288.05,-121.17 288.05,-121.17 288.05,-126.83 288.05,-126.83 288.05,-129.67 285.21,-132.5 282.38,-132.5"/>
<text text-anchor="middle" x="260.03" y="-121.3" font-family="Helvetica,sans-Serif" font-size="9.00">validate.js</text>
</a>
</g>
</g>
<!-- src/main/index.js&#45;&gt;src/main/rule&#45;set/validate.js -->
<g id="edge14" class="edge">
<title>src/main/index.js&#45;&gt;src/main/rule&#45;set/validate.js</title>
<path fill="none" stroke="#000000" stroke-width="2" stroke-opacity="0.200000" d="M184.86,-144.48C184.86,-135.61 184.86,-123 184.86,-123 184.86,-123 225.61,-123 225.61,-123"/>
<polygon fill="#000000" fill-opacity="0.200000" stroke="#000000" stroke-width="2" stroke-opacity="0.200000" points="225.61,-125.1 231.61,-123 225.61,-120.9 225.61,-125.1"/>
</g>
<!-- src/cli/format.js -->
<g id="node5" class="node">
<title>src/cli/format.js</title>
<g id="a_node5"><a xlink:href="src/cli/format.js" xlink:title="format.js">
<path fill="lightgray" stroke="black" d="M90.84,-188.5C90.84,-188.5 48.18,-188.5 48.18,-188.5 45.34,-188.5 42.51,-185.67 42.51,-182.83 42.51,-182.83 42.51,-177.17 42.51,-177.17 42.51,-174.33 45.34,-171.5 48.18,-171.5 48.18,-171.5 90.84,-171.5 90.84,-171.5 93.68,-171.5 96.51,-174.33 96.51,-177.17 96.51,-177.17 96.51,-182.83 96.51,-182.83 96.51,-185.67 93.68,-188.5 90.84,-188.5"/>
<text text-anchor="middle" x="69.51" y="-177.3" font-family="Helvetica,sans-Serif" font-size="9.00" fill="gray">format.js</text>
</a>
</g>
</g>
<!-- src/cli/format.js&#45;&gt;src/main/index.js -->
<g id="edge3" class="edge">
<title>src/cli/format.js&#45;&gt;src/main/index.js</title>
<path fill="none" stroke="#000000" stroke-width="2" stroke-opacity="0.200000" d="M96.82,-180C119.77,-180 148.86,-180 148.86,-180 148.86,-180 148.86,-167.54 148.86,-167.54"/>
<polygon fill="#000000" fill-opacity="0.200000" stroke="#000000" stroke-width="2" stroke-opacity="0.200000" points="150.96,-167.54 148.86,-161.54 146.76,-167.54 150.96,-167.54"/>
</g>
<!-- src/cli/index.js -->
<g id="node6" class="node">
<title>src/cli/index.js</title>
<g id="a_node6"><a xlink:href="src/cli/index.js" xlink:title="index.js">
<path fill="lightgray" stroke="black" d="M90.84,-159.5C90.84,-159.5 48.18,-159.5 48.18,-159.5 45.34,-159.5 42.51,-156.67 42.51,-153.83 42.51,-153.83 42.51,-148.17 42.51,-148.17 42.51,-145.33 45.34,-142.5 48.18,-142.5 48.18,-142.5 90.84,-142.5 90.84,-142.5 93.68,-142.5 96.51,-145.33 96.51,-148.17 96.51,-148.17 96.51,-153.83 96.51,-153.83 96.51,-156.67 93.68,-159.5 90.84,-159.5"/>
<text text-anchor="middle" x="69.51" y="-148.3" font-family="Helvetica,sans-Serif" font-size="9.00" fill="gray">index.js</text>
</a>
</g>
</g>
<!-- src/cli/index.js&#45;&gt;src/main/index.js -->
<g id="edge4" class="edge">
<title>src/cli/index.js&#45;&gt;src/main/index.js</title>
<path fill="none" stroke="#000000" stroke-width="2" stroke-opacity="0.200000" d="M96.69,-154.5C96.69,-154.5 134.93,-154.5 134.93,-154.5"/>
<polygon fill="#000000" fill-opacity="0.200000" stroke="#000000" stroke-width="2" stroke-opacity="0.200000" points="134.93,-156.6 140.93,-154.5 134.93,-152.4 134.93,-156.6"/>
</g>
<!-- src/main/options/defaults.json -->
<g id="node16" class="node">
<title>src/main/options/defaults.json</title>
<g id="a_node16"><a xlink:href="src/main/options/defaults.json" xlink:title="defaults.json">
<path fill="lime" stroke="black" d="M531.96,-76.5C531.96,-76.5 477.23,-76.5 477.23,-76.5 474.39,-76.5 471.56,-73.67 471.56,-70.83 471.56,-70.83 471.56,-65.17 471.56,-65.17 471.56,-62.33 474.39,-59.5 477.23,-59.5 477.23,-59.5 531.96,-59.5 531.96,-59.5 534.79,-59.5 537.63,-62.33 537.63,-65.17 537.63,-65.17 537.63,-70.83 537.63,-70.83 537.63,-73.67 534.79,-76.5 531.96,-76.5"/>
<text text-anchor="middle" x="504.59" y="-65.3" font-family="Helvetica,sans-Serif" font-size="9.00">defaults.json</text>
</a>
</g>
</g>
<!-- src/main/options/normalize.js&#45;&gt;src/main/options/defaults.json -->
<g id="edge15" class="edge">
<title>src/main/options/normalize.js&#45;&gt;src/main/options/defaults.json</title>
<path fill="none" stroke="#000000" stroke-width="2" stroke-opacity="0.200000" d="M425.5,-68C425.5,-68 465.32,-68 465.32,-68"/>
<polygon fill="#000000" fill-opacity="0.200000" stroke="#000000" stroke-width="2" stroke-opacity="0.200000" points="465.32,-70.1 471.32,-68 465.32,-65.9 465.32,-70.1"/>
</g>
<!-- src/main/options/validate.js&#45;&gt;src/report/index.js -->
<g id="edge16" class="edge">
<title>src/main/options/validate.js&#45;&gt;src/report/index.js</title>
<path fill="none" stroke="#000000" stroke-width="2" stroke-opacity="0.200000" d="M421.46,-97C454.51,-97 504.86,-97 504.86,-97 504.86,-97 504.86,-359.41 504.86,-359.41"/>
<polygon fill="#000000" fill-opacity="0.200000" stroke="#000000" stroke-width="2" stroke-opacity="0.200000" points="502.76,-359.41 504.86,-365.41 506.96,-359.41 502.76,-359.41"/>
</g>
<!-- src/main/rule&#45;set/validate.js&#45;&gt;src/main/options/validate.js -->
<g id="edge19" class="edge">
<title>src/main/rule&#45;set/validate.js&#45;&gt;src/main/options/validate.js</title>
<path fill="none" stroke="#000000" stroke-width="2" stroke-opacity="0.200000" d="M288.08,-121.17C327.33,-121.17 393.86,-121.17 393.86,-121.17 393.86,-121.17 393.86,-111.72 393.86,-111.72"/>
<polygon fill="#000000" fill-opacity="0.200000" stroke="#000000" stroke-width="2" stroke-opacity="0.200000" points="395.96,-111.72 393.86,-105.72 391.76,-111.72 395.96,-111.72"/>
</g>
<!-- src/schema/configuration.schema.json -->
<g id="node17" class="node">
<title>src/schema/configuration.schema.json</title>
<g id="a_node17"><a xlink:href="src/schema/configuration.schema.json" xlink:title="configuration.schema.json">
<path fill="lightgray" stroke="black" d="M447.71,-304.5C447.71,-304.5 338.92,-304.5 338.92,-304.5 336.09,-304.5 333.25,-301.67 333.25,-298.83 333.25,-298.83 333.25,-293.17 333.25,-293.17 333.25,-290.33 336.09,-287.5 338.92,-287.5 338.92,-287.5 447.71,-287.5 447.71,-287.5 450.54,-287.5 453.37,-290.33 453.37,-293.17 453.37,-293.17 453.37,-298.83 453.37,-298.83 453.37,-301.67 450.54,-304.5 447.71,-304.5"/>
<text text-anchor="middle" x="393.31" y="-293.3" font-family="Helvetica,sans-Serif" font-size="9.00" fill="gray">configuration.schema.json</text>
</a>
</g>
</g>
<!-- src/main/rule&#45;set/validate.js&#45;&gt;src/schema/configuration.schema.json -->
<g id="edge18" class="edge">
<title>src/main/rule&#45;set/validate.js&#45;&gt;src/schema/configuration.schema.json</title>
<path fill="none" stroke="#000000" stroke-width="2" stroke-opacity="0.200000" d="M288.3,-126.83C313.98,-126.83 347.86,-126.83 347.86,-126.83 347.86,-126.83 347.86,-281.38 347.86,-281.38"/>
<polygon fill="#000000" fill-opacity="0.200000" stroke="#000000" stroke-width="2" stroke-opacity="0.200000" points="345.76,-281.38 347.86,-287.38 349.96,-281.38 345.76,-281.38"/>
</g>
</g>
</svg>
