<?xml version="1.0" encoding="UTF-8" standalone="no"?>
<!DOCTYPE svg PUBLIC "-//W3C//DTD SVG 1.1//EN"
 "http://www.w3.org/Graphics/SVG/1.1/DTD/svg11.dtd">
<!-- Generated by graphviz version 2.44.1 (20200629.0846)
 -->
<!-- Title: dependency&#45;cruiser output Pages: 1 -->
<svg width="661pt" height="742pt"
 viewBox="0.00 0.00 661.00 742.00" xmlns="http://www.w3.org/2000/svg" xmlns:xlink="http://www.w3.org/1999/xlink">
<g id="graph0" class="graph" transform="scale(1 1) rotate(0) translate(4 738)">
<title>dependency&#45;cruiser output</title>
<polygon fill="white" stroke="transparent" points="-4,4 -4,-738 657,-738 657,4 -4,4"/>
<g id="clust1" class="cluster">
<title>cluster_src</title>
<path fill="#ffffff" stroke="black" stroke-width="2" d="M20,-8C20,-8 633,-8 633,-8 639,-8 645,-14 645,-20 645,-20 645,-714 645,-714 645,-720 639,-726 633,-726 633,-726 20,-726 20,-726 14,-726 8,-720 8,-714 8,-714 8,-20 8,-20 8,-14 14,-8 20,-8"/>
<text text-anchor="middle" x="326.5" y="-714.8" font-family="Helvetica,sans-Serif" font-weight="bold" font-size="9.00">src</text>
</g>
<g id="clust4" class="cluster">
<title>cluster_src/enrich</title>
<path fill="#ffffff" stroke="black" stroke-width="2" d="M219,-580C219,-580 320,-580 320,-580 326,-580 332,-586 332,-592 332,-592 332,-650 332,-650 332,-656 326,-662 320,-662 320,-662 219,-662 219,-662 213,-662 207,-656 207,-650 207,-650 207,-592 207,-592 207,-586 213,-580 219,-580"/>
<text text-anchor="middle" x="269.5" y="-650.8" font-family="Helvetica,sans-Serif" font-weight="bold" font-size="9.00">enrich</text>
</g>
<g id="clust5" class="cluster">
<title>cluster_src/extract</title>
<path fill="#ffffff" stroke="black" stroke-width="2" d="M382,-578C382,-578 444,-578 444,-578 450,-578 456,-584 456,-590 456,-590 456,-678 456,-678 456,-684 450,-690 444,-690 444,-690 382,-690 382,-690 376,-690 370,-684 370,-678 370,-678 370,-590 370,-590 370,-584 376,-578 382,-578"/>
<text text-anchor="middle" x="413" y="-678.8" font-family="Helvetica,sans-Serif" font-weight="bold" font-size="9.00">extract</text>
</g>
<g id="clust6" class="cluster">
<title>cluster_src/extract/transpile</title>
<path fill="#ffffff" stroke="black" stroke-width="2" d="M390,-586C390,-586 436,-586 436,-586 442,-586 448,-592 448,-598 448,-598 448,-626 448,-626 448,-632 442,-638 436,-638 436,-638 390,-638 390,-638 384,-638 378,-632 378,-626 378,-626 378,-598 378,-598 378,-592 384,-586 390,-586"/>
<text text-anchor="middle" x="413" y="-626.8" font-family="Helvetica,sans-Serif" font-weight="bold" font-size="9.00">transpile</text>
</g>
<g id="clust7" class="cluster">
<title>cluster_src/graph&#45;utl</title>
<path fill="#ffffff" stroke="black" stroke-width="2" d="M216,-370C216,-370 323,-370 323,-370 329,-370 335,-376 335,-382 335,-382 335,-500 335,-500 335,-506 329,-512 323,-512 323,-512 216,-512 216,-512 210,-512 204,-506 204,-500 204,-500 204,-382 204,-382 204,-376 210,-370 216,-370"/>
<text text-anchor="middle" x="269.5" y="-500.8" font-family="Helvetica,sans-Serif" font-weight="bold" font-size="9.00">graph&#45;utl</text>
</g>
<g id="clust8" class="cluster">
<title>cluster_src/main</title>
<path fill="#ffffff" stroke="black" stroke-width="2" d="M146,-106C146,-106 625,-106 625,-106 631,-106 637,-112 637,-118 637,-118 637,-350 637,-350 637,-356 631,-362 625,-362 625,-362 146,-362 146,-362 140,-362 134,-356 134,-350 134,-350 134,-118 134,-118 134,-112 140,-106 146,-106"/>
<text text-anchor="middle" x="385.5" y="-350.8" font-family="Helvetica,sans-Serif" font-weight="bold" font-size="9.00">main</text>
</g>
<g id="clust9" class="cluster">
<title>cluster_src/main/files&#45;and&#45;dirs</title>
<path fill="#ffffff" stroke="black" stroke-width="2" d="M240.5,-284C240.5,-284 298.5,-284 298.5,-284 304.5,-284 310.5,-290 310.5,-296 310.5,-296 310.5,-324 310.5,-324 310.5,-330 304.5,-336 298.5,-336 298.5,-336 240.5,-336 240.5,-336 234.5,-336 228.5,-330 228.5,-324 228.5,-324 228.5,-296 228.5,-296 228.5,-290 234.5,-284 240.5,-284"/>
<text text-anchor="middle" x="269.5" y="-324.8" font-family="Helvetica,sans-Serif" font-weight="bold" font-size="9.00">files&#45;and&#45;dirs</text>
</g>
<g id="clust10" class="cluster">
<title>cluster_src/main/options</title>
<path fill="#ffffff" stroke="black" stroke-width="2" d="M384,-204C384,-204 590,-204 590,-204 596,-204 602,-210 602,-216 602,-216 602,-274 602,-274 602,-280 596,-286 590,-286 590,-286 384,-286 384,-286 378,-286 372,-280 372,-274 372,-274 372,-216 372,-216 372,-210 378,-204 384,-204"/>
<text text-anchor="middle" x="487" y="-274.8" font-family="Helvetica,sans-Serif" font-weight="bold" font-size="9.00">options</text>
</g>
<g id="clust11" class="cluster">
<title>cluster_src/main/resolve&#45;options</title>
<path fill="#ffffff" stroke="black" stroke-width="2" d="M240.5,-214C240.5,-214 299.5,-214 299.5,-214 305.5,-214 311.5,-220 311.5,-226 311.5,-226 311.5,-254 311.5,-254 311.5,-260 305.5,-266 299.5,-266 299.5,-266 240.5,-266 240.5,-266 234.5,-266 228.5,-260 228.5,-254 228.5,-254 228.5,-226 228.5,-226 228.5,-220 234.5,-214 240.5,-214"/>
<text text-anchor="middle" x="270" y="-254.8" font-family="Helvetica,sans-Serif" font-weight="bold" font-size="9.00">resolve&#45;options</text>
</g>
<g id="clust12" class="cluster">
<title>cluster_src/main/rule&#45;set</title>
<path fill="#ffffff" stroke="black" stroke-width="2" d="M240.5,-114C240.5,-114 298.5,-114 298.5,-114 304.5,-114 310.5,-120 310.5,-126 310.5,-126 310.5,-184 310.5,-184 310.5,-190 304.5,-196 298.5,-196 298.5,-196 240.5,-196 240.5,-196 234.5,-196 228.5,-190 228.5,-184 228.5,-184 228.5,-126 228.5,-126 228.5,-120 234.5,-114 240.5,-114"/>
<text text-anchor="middle" x="269.5" y="-184.8" font-family="Helvetica,sans-Serif" font-weight="bold" font-size="9.00">rule&#45;set</text>
</g>
<g id="clust13" class="cluster">
<title>cluster_src/main/utl</title>
<path fill="#ffffff" stroke="black" stroke-width="2" d="M503,-144C503,-144 617,-144 617,-144 623,-144 629,-150 629,-156 629,-156 629,-184 629,-184 629,-190 623,-196 617,-196 617,-196 503,-196 503,-196 497,-196 491,-190 491,-184 491,-184 491,-156 491,-156 491,-150 497,-144 503,-144"/>
<text text-anchor="middle" x="560" y="-184.8" font-family="Helvetica,sans-Serif" font-weight="bold" font-size="9.00">utl</text>
</g>
<g id="clust14" class="cluster">
<title>cluster_src/report</title>
<path fill="#ffffff" stroke="black" stroke-width="2" d="M537,-509C537,-509 583,-509 583,-509 589,-509 595,-515 595,-521 595,-521 595,-549 595,-549 595,-555 589,-561 583,-561 583,-561 537,-561 537,-561 531,-561 525,-555 525,-549 525,-549 525,-521 525,-521 525,-515 531,-509 537,-509"/>
<text text-anchor="middle" x="560" y="-549.8" font-family="Helvetica,sans-Serif" font-weight="bold" font-size="9.00">report</text>
</g>
<g id="clust15" class="cluster">
<title>cluster_src/schema</title>
<path fill="#ffffff" stroke="black" stroke-width="2" d="M355,-16C355,-16 471,-16 471,-16 477,-16 483,-22 483,-28 483,-28 483,-86 483,-86 483,-92 477,-98 471,-98 471,-98 355,-98 355,-98 349,-98 343,-92 343,-86 343,-86 343,-28 343,-28 343,-22 349,-16 355,-16"/>
<text text-anchor="middle" x="413" y="-86.8" font-family="Helvetica,sans-Serif" font-weight="bold" font-size="9.00">schema</text>
</g>
<g id="clust16" class="cluster">
<title>cluster_src/utl</title>
<path fill="#ffffff" stroke="black" stroke-width="2" d="M246.5,-520C246.5,-520 292.5,-520 292.5,-520 298.5,-520 304.5,-526 304.5,-532 304.5,-532 304.5,-560 304.5,-560 304.5,-566 298.5,-572 292.5,-572 292.5,-572 246.5,-572 246.5,-572 240.5,-572 234.5,-566 234.5,-560 234.5,-560 234.5,-532 234.5,-532 234.5,-526 240.5,-520 246.5,-520"/>
<text text-anchor="middle" x="269.5" y="-560.8" font-family="Helvetica,sans-Serif" font-weight="bold" font-size="9.00">utl</text>
</g>
<g id="clust2" class="cluster">
<title>cluster_src/cli</title>
<path fill="#ffffff" stroke="black" stroke-width="2" d="M28,-216C28,-216 112,-216 112,-216 118,-216 124,-222 124,-228 124,-228 124,-376 124,-376 124,-382 118,-388 112,-388 112,-388 28,-388 28,-388 22,-388 16,-382 16,-376 16,-376 16,-228 16,-228 16,-222 22,-216 28,-216"/>
<text text-anchor="middle" x="70" y="-376.8" font-family="Helvetica,sans-Serif" font-weight="bold" font-size="9.00">cli</text>
</g>
<g id="clust3" class="cluster">
<title>cluster_src/cli/compile&#45;config</title>
<path fill="#ffffff" stroke="black" stroke-width="2" d="M42,-224C42,-224 98,-224 98,-224 104,-224 110,-230 110,-236 110,-236 110,-264 110,-264 110,-270 104,-276 98,-276 98,-276 42,-276 42,-276 36,-276 30,-270 30,-264 30,-264 30,-236 30,-236 30,-230 36,-224 42,-224"/>
<text text-anchor="middle" x="70" y="-264.8" font-family="Helvetica,sans-Serif" font-weight="bold" font-size="9.00">compile&#45;config</text>
</g>
<!-- src/cli/compile&#45;config/index.js -->
<g id="node1" class="node">
<title>src/cli/compile&#45;config/index.js</title>
<g id="a_node1"><a xlink:href="src/cli/compile-config/index.js" xlink:title="index.js">
<path fill="lightgray" stroke="black" d="M91,-250C91,-250 49,-250 49,-250 46,-250 43,-247 43,-244 43,-244 43,-238 43,-238 43,-235 46,-232 49,-232 49,-232 91,-232 91,-232 94,-232 97,-235 97,-238 97,-238 97,-244 97,-244 97,-247 94,-250 91,-250"/>
<text text-anchor="middle" x="70" y="-238.8" font-family="Helvetica,sans-Serif" font-size="9.00" fill="gray">index.js</text>
</a>
</g>
</g>
<!-- src/main/resolve&#45;options/normalize.js -->
<g id="node2" class="node">
<title>src/main/resolve&#45;options/normalize.js</title>
<g id="a_node2"><a xlink:href="src/main/resolve-options/normalize.js" xlink:title="normalize.js">
<path fill="lime" stroke="black" d="M296.5,-240C296.5,-240 242.5,-240 242.5,-240 239.5,-240 236.5,-237 236.5,-234 236.5,-234 236.5,-228 236.5,-228 236.5,-225 239.5,-222 242.5,-222 242.5,-222 296.5,-222 296.5,-222 299.5,-222 302.5,-225 302.5,-228 302.5,-228 302.5,-234 302.5,-234 302.5,-237 299.5,-240 296.5,-240"/>
<text text-anchor="middle" x="269.5" y="-228.8" font-family="Helvetica,sans-Serif" font-size="9.00">normalize.js</text>
</a>
</g>
</g>
<!-- src/cli/compile&#45;config/index.js&#45;&gt;src/main/resolve&#45;options/normalize.js -->
<g id="edge1" class="edge">
<title>src/cli/compile&#45;config/index.js&#45;&gt;src/main/resolve&#45;options/normalize.js</title>
<path fill="none" stroke="#000000" stroke-width="2" stroke-opacity="0.200000" d="M97.32,-234.67C97.32,-234.67 230.2,-234.67 230.2,-234.67"/>
<polygon fill="#000000" fill-opacity="0.200000" stroke="#000000" stroke-width="2" stroke-opacity="0.200000" points="230.2,-236.77 236.2,-234.67 230.2,-232.57 230.2,-236.77"/>
</g>
<!-- src/extract/transpile/meta.js -->
<g id="node10" class="node">
<title>src/extract/transpile/meta.js</title>
<g id="a_node10"><a xlink:href="src/extract/transpile/meta.js" xlink:title="meta.js">
<path fill="lightgray" stroke="black" d="M434,-612C434,-612 392,-612 392,-612 389,-612 386,-609 386,-606 386,-606 386,-600 386,-600 386,-597 389,-594 392,-594 392,-594 434,-594 434,-594 437,-594 440,-597 440,-600 440,-600 440,-606 440,-606 440,-609 437,-612 434,-612"/>
<text text-anchor="middle" x="413" y="-600.8" font-family="Helvetica,sans-Serif" font-size="9.00" fill="gray">meta.js</text>
</a>
</g>
</g>
<!-- src/main/resolve&#45;options/normalize.js&#45;&gt;src/extract/transpile/meta.js -->
<g id="edge25" class="edge">
<title>src/main/resolve&#45;options/normalize.js&#45;&gt;src/extract/transpile/meta.js</title>
<path fill="none" stroke="#000000" stroke-width="2" stroke-opacity="0.200000" d="M302.53,-235C328.74,-235 361,-235 361,-235 361,-235 361,-600 361,-600 361,-600 379.78,-600 379.78,-600"/>
<polygon fill="#000000" fill-opacity="0.200000" stroke="#000000" stroke-width="2" stroke-opacity="0.200000" points="379.78,-602.1 385.78,-600 379.78,-597.9 379.78,-602.1"/>
</g>
<!-- src/cli/format&#45;meta&#45;info.js -->
<g id="node3" class="node">
<title>src/cli/format&#45;meta&#45;info.js</title>
<g id="a_node3"><a xlink:href="src/cli/format-meta-info.js" xlink:title="format&#45;meta&#45;info.js">
<path fill="lightgray" stroke="black" d="M110,-302C110,-302 30,-302 30,-302 27,-302 24,-299 24,-296 24,-296 24,-290 24,-290 24,-287 27,-284 30,-284 30,-284 110,-284 110,-284 113,-284 116,-287 116,-290 116,-290 116,-296 116,-296 116,-299 113,-302 110,-302"/>
<text text-anchor="middle" x="70" y="-290.8" font-family="Helvetica,sans-Serif" font-size="9.00" fill="gray">format&#45;meta&#45;info.js</text>
</a>
</g>
</g>
<!-- src/main/index.js -->
<g id="node4" class="node">
<title>src/main/index.js</title>
<g id="a_node4"><a xlink:href="src/main/index.js" xlink:title="index.js">
<path fill="lime" stroke="black" d="M190,-336C190,-336 148,-336 148,-336 145,-336 142,-333 142,-330 142,-330 142,-324 142,-324 142,-321 145,-318 148,-318 148,-318 190,-318 190,-318 193,-318 196,-321 196,-324 196,-324 196,-330 196,-330 196,-333 193,-336 190,-336"/>
<text text-anchor="middle" x="169" y="-324.8" font-family="Helvetica,sans-Serif" font-size="9.00">index.js</text>
</a>
</g>
</g>
<!-- src/cli/format&#45;meta&#45;info.js&#45;&gt;src/main/index.js -->
<g id="edge2" class="edge">
<title>src/cli/format&#45;meta&#45;info.js&#45;&gt;src/main/index.js</title>
<path fill="none" stroke="#000000" stroke-width="2" stroke-opacity="0.200000" d="M107,-302.06C107,-310.79 107,-322.67 107,-322.67 107,-322.67 135.99,-322.67 135.99,-322.67"/>
<polygon fill="#000000" fill-opacity="0.200000" stroke="#000000" stroke-width="2" stroke-opacity="0.200000" points="135.99,-324.77 141.99,-322.67 135.99,-320.57 135.99,-324.77"/>
</g>
<!-- src/main/index.js&#45;&gt;src/main/resolve&#45;options/normalize.js -->
<g id="edge19" class="edge">
<title>src/main/index.js&#45;&gt;src/main/resolve&#45;options/normalize.js</title>
<path fill="none" stroke="#000000" stroke-width="2" stroke-opacity="0.200000" d="M176,-317.74C176,-294.83 176,-237.33 176,-237.33 176,-237.33 230.27,-237.33 230.27,-237.33"/>
<polygon fill="#000000" fill-opacity="0.200000" stroke="#000000" stroke-width="2" stroke-opacity="0.200000" points="230.27,-239.43 236.27,-237.33 230.27,-235.23 230.27,-239.43"/>
</g>
<!-- src/enrich/index.js -->
<g id="node7" class="node">
<title>src/enrich/index.js</title>
<g id="a_node7"><a xlink:href="src/enrich/index.js" xlink:title="index.js">
<path fill="lightgray" stroke="black" d="M290.5,-636C290.5,-636 248.5,-636 248.5,-636 245.5,-636 242.5,-633 242.5,-630 242.5,-630 242.5,-624 242.5,-624 242.5,-621 245.5,-618 248.5,-618 248.5,-618 290.5,-618 290.5,-618 293.5,-618 296.5,-621 296.5,-624 296.5,-624 296.5,-630 296.5,-630 296.5,-633 293.5,-636 290.5,-636"/>
<text text-anchor="middle" x="269.5" y="-624.8" font-family="Helvetica,sans-Serif" font-size="9.00" fill="gray">index.js</text>
</a>
</g>
</g>
<!-- src/main/index.js&#45;&gt;src/enrich/index.js -->
<g id="edge5" class="edge">
<title>src/main/index.js&#45;&gt;src/enrich/index.js</title>
<path fill="none" stroke="#000000" stroke-width="2" stroke-opacity="0.200000" d="M159,-336.31C159,-386.94 159,-627 159,-627 159,-627 236.47,-627 236.47,-627"/>
<polygon fill="#000000" fill-opacity="0.200000" stroke="#000000" stroke-width="2" stroke-opacity="0.200000" points="236.47,-629.1 242.47,-627 236.47,-624.9 236.47,-629.1"/>
</g>
<!-- src/enrich/summarize&#45;modules.js -->
<g id="node8" class="node">
<title>src/enrich/summarize&#45;modules.js</title>
<g id="a_node8"><a xlink:href="src/enrich/summarize-modules.js" xlink:title="summarize&#45;modules.js">
<path fill="lightgray" stroke="black" d="M318,-606C318,-606 221,-606 221,-606 218,-606 215,-603 215,-600 215,-600 215,-594 215,-594 215,-591 218,-588 221,-588 221,-588 318,-588 318,-588 321,-588 324,-591 324,-594 324,-594 324,-600 324,-600 324,-603 321,-606 318,-606"/>
<text text-anchor="middle" x="269.5" y="-594.8" font-family="Helvetica,sans-Serif" font-size="9.00" fill="gray">summarize&#45;modules.js</text>
</a>
</g>
</g>
<!-- src/main/index.js&#45;&gt;src/enrich/summarize&#45;modules.js -->
<g id="edge6" class="edge">
<title>src/main/index.js&#45;&gt;src/enrich/summarize&#45;modules.js</title>
<path fill="none" stroke="#000000" stroke-width="2" stroke-opacity="0.200000" d="M164,-336.29C164,-383.77 164,-597 164,-597 164,-597 208.9,-597 208.9,-597"/>
<polygon fill="#000000" fill-opacity="0.200000" stroke="#000000" stroke-width="2" stroke-opacity="0.200000" points="208.9,-599.1 214.9,-597 208.9,-594.9 208.9,-599.1"/>
</g>
<!-- src/extract/index.js -->
<g id="node9" class="node">
<title>src/extract/index.js</title>
<g id="a_node9"><a xlink:href="src/extract/index.js" xlink:title="index.js">
<path fill="lightgray" stroke="black" d="M434,-664C434,-664 392,-664 392,-664 389,-664 386,-661 386,-658 386,-658 386,-652 386,-652 386,-649 389,-646 392,-646 392,-646 434,-646 434,-646 437,-646 440,-649 440,-652 440,-652 440,-658 440,-658 440,-661 437,-664 434,-664"/>
<text text-anchor="middle" x="413" y="-652.8" font-family="Helvetica,sans-Serif" font-size="9.00" fill="gray">index.js</text>
</a>
</g>
</g>
<!-- src/main/index.js&#45;&gt;src/extract/index.js -->
<g id="edge7" class="edge">
<title>src/main/index.js&#45;&gt;src/extract/index.js</title>
<path fill="none" stroke="#000000" stroke-width="2" stroke-opacity="0.200000" d="M153,-336.11C153,-389.09 153,-655 153,-655 153,-655 379.67,-655 379.67,-655"/>
<polygon fill="#000000" fill-opacity="0.200000" stroke="#000000" stroke-width="2" stroke-opacity="0.200000" points="379.67,-657.1 385.67,-655 379.67,-652.9 379.67,-657.1"/>
</g>
<!-- src/main/index.js&#45;&gt;src/extract/transpile/meta.js -->
<g id="edge8" class="edge">
<title>src/main/index.js&#45;&gt;src/extract/transpile/meta.js</title>
<path fill="none" stroke="#000000" stroke-width="2" stroke-opacity="0.200000" d="M196.04,-324C259.57,-324 413,-324 413,-324 413,-324 413,-587.72 413,-587.72"/>
<polygon fill="#000000" fill-opacity="0.200000" stroke="#000000" stroke-width="2" stroke-opacity="0.200000" points="410.9,-587.72 413,-593.72 415.1,-587.72 410.9,-587.72"/>
</g>
<!-- src/graph&#45;utl/compare.js -->
<g id="node11" class="node">
<title>src/graph&#45;utl/compare.js</title>
<g id="a_node11"><a xlink:href="src/graph-utl/compare.js" xlink:title="compare.js">
<path fill="lightgray" stroke="black" d="M294.5,-426C294.5,-426 244.5,-426 244.5,-426 241.5,-426 238.5,-423 238.5,-420 238.5,-420 238.5,-414 238.5,-414 238.5,-411 241.5,-408 244.5,-408 244.5,-408 294.5,-408 294.5,-408 297.5,-408 300.5,-411 300.5,-414 300.5,-414 300.5,-420 300.5,-420 300.5,-423 297.5,-426 294.5,-426"/>
<text text-anchor="middle" x="269.5" y="-414.8" font-family="Helvetica,sans-Serif" font-size="9.00" fill="gray">compare.js</text>
</a>
</g>
</g>
<!-- src/main/index.js&#45;&gt;src/graph&#45;utl/compare.js -->
<g id="edge9" class="edge">
<title>src/main/index.js&#45;&gt;src/graph&#45;utl/compare.js</title>
<path fill="none" stroke="#000000" stroke-width="2" stroke-opacity="0.200000" d="M191,-336.29C191,-359.29 191,-417 191,-417 191,-417 232.47,-417 232.47,-417"/>
<polygon fill="#000000" fill-opacity="0.200000" stroke="#000000" stroke-width="2" stroke-opacity="0.200000" points="232.47,-419.1 238.47,-417 232.47,-414.9 232.47,-419.1"/>
</g>
<!-- src/graph&#45;utl/consolidate&#45;to&#45;pattern.js -->
<g id="node12" class="node">
<title>src/graph&#45;utl/consolidate&#45;to&#45;pattern.js</title>
<g id="a_node12"><a xlink:href="src/graph-utl/consolidate-to-pattern.js" xlink:title="consolidate&#45;to&#45;pattern.js">
<path fill="lightgray" stroke="black" d="M321,-396C321,-396 218,-396 218,-396 215,-396 212,-393 212,-390 212,-390 212,-384 212,-384 212,-381 215,-378 218,-378 218,-378 321,-378 321,-378 324,-378 327,-381 327,-384 327,-384 327,-390 327,-390 327,-393 324,-396 321,-396"/>
<text text-anchor="middle" x="269.5" y="-384.8" font-family="Helvetica,sans-Serif" font-size="9.00" fill="gray">consolidate&#45;to&#45;pattern.js</text>
</a>
</g>
</g>
<!-- src/main/index.js&#45;&gt;src/graph&#45;utl/consolidate&#45;to&#45;pattern.js -->
<g id="edge10" class="edge">
<title>src/main/index.js&#45;&gt;src/graph&#45;utl/consolidate&#45;to&#45;pattern.js</title>
<path fill="none" stroke="#000000" stroke-width="2" stroke-opacity="0.200000" d="M196.02,-330C210.34,-330 225,-330 225,-330 225,-330 225,-371.84 225,-371.84"/>
<polygon fill="#000000" fill-opacity="0.200000" stroke="#000000" stroke-width="2" stroke-opacity="0.200000" points="222.9,-371.84 225,-377.84 227.1,-371.84 222.9,-371.84"/>
</g>
<!-- src/graph&#45;utl/filterbank.js -->
<g id="node13" class="node">
<title>src/graph&#45;utl/filterbank.js</title>
<g id="a_node13"><a xlink:href="src/graph-utl/filterbank.js" xlink:title="filterbank.js">
<path fill="lightgray" stroke="black" d="M295,-486C295,-486 244,-486 244,-486 241,-486 238,-483 238,-480 238,-480 238,-474 238,-474 238,-471 241,-468 244,-468 244,-468 295,-468 295,-468 298,-468 301,-471 301,-474 301,-474 301,-480 301,-480 301,-483 298,-486 295,-486"/>
<text text-anchor="middle" x="269.5" y="-474.8" font-family="Helvetica,sans-Serif" font-size="9.00" fill="gray">filterbank.js</text>
</a>
</g>
</g>
<!-- src/main/index.js&#45;&gt;src/graph&#45;utl/filterbank.js -->
<g id="edge11" class="edge">
<title>src/main/index.js&#45;&gt;src/graph&#45;utl/filterbank.js</title>
<path fill="none" stroke="#000000" stroke-width="2" stroke-opacity="0.200000" d="M180,-336.38C180,-369.22 180,-477 180,-477 180,-477 231.95,-477 231.95,-477"/>
<polygon fill="#000000" fill-opacity="0.200000" stroke="#000000" stroke-width="2" stroke-opacity="0.200000" points="231.95,-479.1 237.95,-477 231.95,-474.9 231.95,-479.1"/>
</g>
<!-- src/graph&#45;utl/strip&#45;self&#45;transitions.js -->
<g id="node14" class="node">
<title>src/graph&#45;utl/strip&#45;self&#45;transitions.js</title>
<g id="a_node14"><a xlink:href="src/graph-utl/strip-self-transitions.js" xlink:title="strip&#45;self&#45;transitions.js">
<path fill="lightgray" stroke="black" d="M316,-456C316,-456 223,-456 223,-456 220,-456 217,-453 217,-450 217,-450 217,-444 217,-444 217,-441 220,-438 223,-438 223,-438 316,-438 316,-438 319,-438 322,-441 322,-444 322,-444 322,-450 322,-450 322,-453 319,-456 316,-456"/>
<text text-anchor="middle" x="269.5" y="-444.8" font-family="Helvetica,sans-Serif" font-size="9.00" fill="gray">strip&#45;self&#45;transitions.js</text>
</a>
</g>
</g>
<!-- src/main/index.js&#45;&gt;src/graph&#45;utl/strip&#45;self&#45;transitions.js -->
<g id="edge12" class="edge">
<title>src/main/index.js&#45;&gt;src/graph&#45;utl/strip&#45;self&#45;transitions.js</title>
<path fill="none" stroke="#000000" stroke-width="2" stroke-opacity="0.200000" d="M186,-336.02C186,-363.93 186,-447 186,-447 186,-447 210.62,-447 210.62,-447"/>
<polygon fill="#000000" fill-opacity="0.200000" stroke="#000000" stroke-width="2" stroke-opacity="0.200000" points="210.62,-449.1 216.62,-447 210.62,-444.9 210.62,-449.1"/>
</g>
<!-- src/main/files&#45;and&#45;dirs/normalize.js -->
<g id="node15" class="node">
<title>src/main/files&#45;and&#45;dirs/normalize.js</title>
<g id="a_node15"><a xlink:href="src/main/files-and-dirs/normalize.js" xlink:title="normalize.js">
<path fill="lime" stroke="black" d="M296.5,-310C296.5,-310 242.5,-310 242.5,-310 239.5,-310 236.5,-307 236.5,-304 236.5,-304 236.5,-298 236.5,-298 236.5,-295 239.5,-292 242.5,-292 242.5,-292 296.5,-292 296.5,-292 299.5,-292 302.5,-295 302.5,-298 302.5,-298 302.5,-304 302.5,-304 302.5,-307 299.5,-310 296.5,-310"/>
<text text-anchor="middle" x="269.5" y="-298.8" font-family="Helvetica,sans-Serif" font-size="9.00">normalize.js</text>
</a>
</g>
</g>
<!-- src/main/index.js&#45;&gt;src/main/files&#45;and&#45;dirs/normalize.js -->
<g id="edge16" class="edge">
<title>src/main/index.js&#45;&gt;src/main/files&#45;and&#45;dirs/normalize.js</title>
<path fill="none" stroke="#000000" stroke-width="2" stroke-opacity="0.200000" d="M190,-317.97C190,-312.28 190,-306 190,-306 190,-306 230.25,-306 230.25,-306"/>
<polygon fill="#000000" fill-opacity="0.200000" stroke="#000000" stroke-width="2" stroke-opacity="0.200000" points="230.25,-308.1 236.25,-306 230.25,-303.9 230.25,-308.1"/>
</g>
<!-- src/report/index.js -->
<g id="node16" class="node">
<title>src/report/index.js</title>
<g id="a_node16"><a xlink:href="src/report/index.js" xlink:title="index.js">
<path fill="lightgray" stroke="black" d="M581,-535C581,-535 539,-535 539,-535 536,-535 533,-532 533,-529 533,-529 533,-523 533,-523 533,-520 536,-517 539,-517 539,-517 581,-517 581,-517 584,-517 587,-520 587,-523 587,-523 587,-529 587,-529 587,-532 584,-535 581,-535"/>
<text text-anchor="middle" x="560" y="-523.8" font-family="Helvetica,sans-Serif" font-size="9.00" fill="gray">index.js</text>
</a>
</g>
</g>
<!-- src/main/index.js&#45;&gt;src/report/index.js -->
<g id="edge13" class="edge">
<title>src/main/index.js&#45;&gt;src/report/index.js</title>
<path fill="none" stroke="#000000" stroke-width="2" stroke-opacity="0.200000" d="M175,-336.25C175,-375.27 175,-524.33 175,-524.33 175,-524.33 526.93,-524.33 526.93,-524.33"/>
<polygon fill="#000000" fill-opacity="0.200000" stroke="#000000" stroke-width="2" stroke-opacity="0.200000" points="526.93,-526.43 532.93,-524.33 526.93,-522.23 526.93,-526.43"/>
</g>
<!-- src/schema/cruise&#45;result.schema.json -->
<g id="node17" class="node">
<title>src/schema/cruise&#45;result.schema.json</title>
<g id="a_node17"><a xlink:href="src/schema/cruise-result.schema.json" xlink:title="cruise&#45;result.schema.json">
<path fill="lightgray" stroke="black" d="M467.5,-42C467.5,-42 358.5,-42 358.5,-42 355.5,-42 352.5,-39 352.5,-36 352.5,-36 352.5,-30 352.5,-30 352.5,-27 355.5,-24 358.5,-24 358.5,-24 467.5,-24 467.5,-24 470.5,-24 473.5,-27 473.5,-30 473.5,-30 473.5,-36 473.5,-36 473.5,-39 470.5,-42 467.5,-42"/>
<text text-anchor="middle" x="413" y="-30.8" font-family="Helvetica,sans-Serif" font-size="9.00" fill="gray">cruise&#45;result.schema.json</text>
</a>
</g>
</g>
<!-- src/main/index.js&#45;&gt;src/schema/cruise&#45;result.schema.json -->
<g id="edge14" class="edge">
<title>src/main/index.js&#45;&gt;src/schema/cruise&#45;result.schema.json</title>
<path fill="none" stroke="#000000" stroke-width="2" stroke-opacity="0.200000" d="M149,-317.88C149,-268.25 149,-33 149,-33 149,-33 346.43,-33 346.43,-33"/>
<polygon fill="#000000" fill-opacity="0.200000" stroke="#000000" stroke-width="2" stroke-opacity="0.200000" points="346.43,-35.1 352.43,-33 346.43,-30.9 346.43,-35.1"/>
</g>
<!-- src/utl/bus.js -->
<g id="node18" class="node">
<title>src/utl/bus.js</title>
<g id="a_node18"><a xlink:href="src/utl/bus.js" xlink:title="bus.js">
<path fill="lightgray" stroke="black" d="M290.5,-546C290.5,-546 248.5,-546 248.5,-546 245.5,-546 242.5,-543 242.5,-540 242.5,-540 242.5,-534 242.5,-534 242.5,-531 245.5,-528 248.5,-528 248.5,-528 290.5,-528 290.5,-528 293.5,-528 296.5,-531 296.5,-534 296.5,-534 296.5,-540 296.5,-540 296.5,-543 293.5,-546 290.5,-546"/>
<text text-anchor="middle" x="269.5" y="-534.8" font-family="Helvetica,sans-Serif" font-size="9.00" fill="gray">bus.js</text>
</a>
</g>
</g>
<!-- src/main/index.js&#45;&gt;src/utl/bus.js -->
<g id="edge15" class="edge">
<title>src/main/index.js&#45;&gt;src/utl/bus.js</title>
<path fill="none" stroke="#000000" stroke-width="2" stroke-opacity="0.200000" d="M169,-336.02C169,-376.22 169,-537 169,-537 169,-537 236.3,-537 236.3,-537"/>
<polygon fill="#000000" fill-opacity="0.200000" stroke="#000000" stroke-width="2" stroke-opacity="0.200000" points="236.3,-539.1 242.3,-537 236.3,-534.9 236.3,-539.1"/>
</g>
<!-- src/main/options/normalize.js -->
<g id="node19" class="node">
<title>src/main/options/normalize.js</title>
<g id="a_node19"><a xlink:href="src/main/options/normalize.js" xlink:title="normalize.js">
<path fill="lime" stroke="black" d="M440,-260C440,-260 386,-260 386,-260 383,-260 380,-257 380,-254 380,-254 380,-248 380,-248 380,-245 383,-242 386,-242 386,-242 440,-242 440,-242 443,-242 446,-245 446,-248 446,-248 446,-254 446,-254 446,-257 443,-260 440,-260"/>
<text text-anchor="middle" x="413" y="-248.8" font-family="Helvetica,sans-Serif" font-size="9.00">normalize.js</text>
</a>
</g>
</g>
<!-- src/main/index.js&#45;&gt;src/main/options/normalize.js -->
<g id="edge17" class="edge">
<title>src/main/index.js&#45;&gt;src/main/options/normalize.js</title>
<path fill="none" stroke="#000000" stroke-width="2" stroke-opacity="0.200000" d="M183,-317.88C183,-298.51 183,-255 183,-255 183,-255 373.56,-255 373.56,-255"/>
<polygon fill="#000000" fill-opacity="0.200000" stroke="#000000" stroke-width="2" stroke-opacity="0.200000" points="373.56,-257.1 379.56,-255 373.56,-252.9 373.56,-257.1"/>
</g>
<!-- src/main/options/validate.js -->
<g id="node20" class="node">
<title>src/main/options/validate.js</title>
<g id="a_node20"><a xlink:href="src/main/options/validate.js" xlink:title="validate.js">
<path fill="lime" stroke="black" d="M436,-230C436,-230 390,-230 390,-230 387,-230 384,-227 384,-224 384,-224 384,-218 384,-218 384,-215 387,-212 390,-212 390,-212 436,-212 436,-212 439,-212 442,-215 442,-218 442,-218 442,-224 442,-224 442,-227 439,-230 436,-230"/>
<text text-anchor="middle" x="413" y="-218.8" font-family="Helvetica,sans-Serif" font-size="9.00">validate.js</text>
</a>
</g>
</g>
<!-- src/main/index.js&#45;&gt;src/main/options/validate.js -->
<g id="edge18" class="edge">
<title>src/main/index.js&#45;&gt;src/main/options/validate.js</title>
<path fill="none" stroke="#000000" stroke-width="2" stroke-opacity="0.200000" d="M169,-318C169,-291.73 169,-217 169,-217 169,-217 377.57,-217 377.57,-217"/>
<polygon fill="#000000" fill-opacity="0.200000" stroke="#000000" stroke-width="2" stroke-opacity="0.200000" points="377.57,-219.1 383.57,-217 377.57,-214.9 377.57,-219.1"/>
</g>
<!-- src/main/rule&#45;set/normalize.js -->
<g id="node21" class="node">
<title>src/main/rule&#45;set/normalize.js</title>
<g id="a_node21"><a xlink:href="src/main/rule-set/normalize.js" xlink:title="normalize.js">
<path fill="lime" stroke="black" d="M296.5,-170C296.5,-170 242.5,-170 242.5,-170 239.5,-170 236.5,-167 236.5,-164 236.5,-164 236.5,-158 236.5,-158 236.5,-155 239.5,-152 242.5,-152 242.5,-152 296.5,-152 296.5,-152 299.5,-152 302.5,-155 302.5,-158 302.5,-158 302.5,-164 302.5,-164 302.5,-167 299.5,-170 296.5,-170"/>
<text text-anchor="middle" x="269.5" y="-158.8" font-family="Helvetica,sans-Serif" font-size="9.00">normalize.js</text>
</a>
</g>
</g>
<!-- src/main/index.js&#45;&gt;src/main/rule&#45;set/normalize.js -->
<g id="edge20" class="edge">
<title>src/main/index.js&#45;&gt;src/main/rule&#45;set/normalize.js</title>
<path fill="none" stroke="#000000" stroke-width="2" stroke-opacity="0.200000" d="M163,-317.6C163,-282.48 163,-161 163,-161 163,-161 230.39,-161 230.39,-161"/>
<polygon fill="#000000" fill-opacity="0.200000" stroke="#000000" stroke-width="2" stroke-opacity="0.200000" points="230.39,-163.1 236.39,-161 230.39,-158.9 230.39,-163.1"/>
</g>
<!-- src/main/rule&#45;set/validate.js -->
<g id="node22" class="node">
<title>src/main/rule&#45;set/validate.js</title>
<g id="a_node22"><a xlink:href="src/main/rule-set/validate.js" xlink:title="validate.js">
<path fill="lime" stroke="black" d="M292.5,-140C292.5,-140 246.5,-140 246.5,-140 243.5,-140 240.5,-137 240.5,-134 240.5,-134 240.5,-128 240.5,-128 240.5,-125 243.5,-122 246.5,-122 246.5,-122 292.5,-122 292.5,-122 295.5,-122 298.5,-125 298.5,-128 298.5,-128 298.5,-134 298.5,-134 298.5,-137 295.5,-140 292.5,-140"/>
<text text-anchor="middle" x="269.5" y="-128.8" font-family="Helvetica,sans-Serif" font-size="9.00">validate.js</text>
</a>
</g>
</g>
<!-- src/main/index.js&#45;&gt;src/main/rule&#45;set/validate.js -->
<g id="edge21" class="edge">
<title>src/main/index.js&#45;&gt;src/main/rule&#45;set/validate.js</title>
<path fill="none" stroke="#000000" stroke-width="2" stroke-opacity="0.200000" d="M156,-317.81C156,-279.06 156,-131 156,-131 156,-131 234.27,-131 234.27,-131"/>
<polygon fill="#000000" fill-opacity="0.200000" stroke="#000000" stroke-width="2" stroke-opacity="0.200000" points="234.27,-133.1 240.27,-131 234.27,-128.9 234.27,-133.1"/>
</g>
<!-- src/cli/format.js -->
<g id="node5" class="node">
<title>src/cli/format.js</title>
<g id="a_node5"><a xlink:href="src/cli/format.js" xlink:title="format.js">
<path fill="lightgray" stroke="black" d="M91,-362C91,-362 49,-362 49,-362 46,-362 43,-359 43,-356 43,-356 43,-350 43,-350 43,-347 46,-344 49,-344 49,-344 91,-344 91,-344 94,-344 97,-347 97,-350 97,-350 97,-356 97,-356 97,-359 94,-362 91,-362"/>
<text text-anchor="middle" x="70" y="-350.8" font-family="Helvetica,sans-Serif" font-size="9.00" fill="gray">format.js</text>
</a>
</g>
</g>
<!-- src/cli/format.js&#45;&gt;src/main/index.js -->
<g id="edge3" class="edge">
<title>src/cli/format.js&#45;&gt;src/main/index.js</title>
<path fill="none" stroke="#000000" stroke-width="2" stroke-opacity="0.200000" d="M97.28,-353C119.77,-353 148,-353 148,-353 148,-353 148,-342.09 148,-342.09"/>
<polygon fill="#000000" fill-opacity="0.200000" stroke="#000000" stroke-width="2" stroke-opacity="0.200000" points="150.1,-342.09 148,-336.09 145.9,-342.09 150.1,-342.09"/>
</g>
<!-- src/cli/index.js -->
<g id="node6" class="node">
<title>src/cli/index.js</title>
<g id="a_node6"><a xlink:href="src/cli/index.js" xlink:title="index.js">
<path fill="lightgray" stroke="black" d="M91,-332C91,-332 49,-332 49,-332 46,-332 43,-329 43,-326 43,-326 43,-320 43,-320 43,-317 46,-314 49,-314 49,-314 91,-314 91,-314 94,-314 97,-317 97,-320 97,-320 97,-326 97,-326 97,-329 94,-332 91,-332"/>
<text text-anchor="middle" x="70" y="-320.8" font-family="Helvetica,sans-Serif" font-size="9.00" fill="gray">index.js</text>
</a>
</g>
</g>
<!-- src/cli/index.js&#45;&gt;src/main/index.js -->
<g id="edge4" class="edge">
<title>src/cli/index.js&#45;&gt;src/main/index.js</title>
<path fill="none" stroke="#000000" stroke-width="2" stroke-opacity="0.200000" d="M97.05,-327.33C97.05,-327.33 135.98,-327.33 135.98,-327.33"/>
<polygon fill="#000000" fill-opacity="0.200000" stroke="#000000" stroke-width="2" stroke-opacity="0.200000" points="135.98,-329.43 141.98,-327.33 135.98,-325.23 135.98,-329.43"/>
</g>
<!-- src/main/options/defaults.json -->
<g id="node23" class="node">
<title>src/main/options/defaults.json</title>
<g id="a_node23"><a xlink:href="src/main/options/defaults.json" xlink:title="defaults.json">
<path fill="lime" stroke="black" d="M588,-260C588,-260 532,-260 532,-260 529,-260 526,-257 526,-254 526,-254 526,-248 526,-248 526,-245 529,-242 532,-242 532,-242 588,-242 588,-242 591,-242 594,-245 594,-248 594,-248 594,-254 594,-254 594,-257 591,-260 588,-260"/>
<text text-anchor="middle" x="560" y="-248.8" font-family="Helvetica,sans-Serif" font-size="9.00">defaults.json</text>
</a>
</g>
</g>
<!-- src/main/options/normalize.js&#45;&gt;src/main/options/defaults.json -->
<g id="edge23" class="edge">
<title>src/main/options/normalize.js&#45;&gt;src/main/options/defaults.json</title>
<path fill="none" stroke="#000000" stroke-width="2" stroke-opacity="0.200000" d="M446.36,-254C446.36,-254 519.76,-254 519.76,-254"/>
<polygon fill="#000000" fill-opacity="0.200000" stroke="#000000" stroke-width="2" stroke-opacity="0.200000" points="519.76,-256.1 525.76,-254 519.76,-251.9 519.76,-256.1"/>
</g>
<!-- src/main/utl/normalize&#45;re&#45;properties.js -->
<g id="node24" class="node">
<title>src/main/utl/normalize&#45;re&#45;properties.js</title>
<g id="a_node24"><a xlink:href="src/main/utl/normalize-re-properties.js" xlink:title="normalize&#45;re&#45;properties.js">
<path fill="lime" stroke="black" d="M615,-170C615,-170 505,-170 505,-170 502,-170 499,-167 499,-164 499,-164 499,-158 499,-158 499,-155 502,-152 505,-152 505,-152 615,-152 615,-152 618,-152 621,-155 621,-158 621,-158 621,-164 621,-164 621,-167 618,-170 615,-170"/>
<text text-anchor="middle" x="560" y="-158.8" font-family="Helvetica,sans-Serif" font-size="9.00">normalize&#45;re&#45;properties.js</text>
</a>
</g>
</g>
<!-- src/main/options/normalize.js&#45;&gt;src/main/utl/normalize&#45;re&#45;properties.js -->
<g id="edge22" class="edge">
<title>src/main/options/normalize.js&#45;&gt;src/main/utl/normalize&#45;re&#45;properties.js</title>
<path fill="none" stroke="#000000" stroke-width="2" stroke-opacity="0.200000" d="M446.02,-248C475.15,-248 513,-248 513,-248 513,-248 513,-176.31 513,-176.31"/>
<polygon fill="#000000" fill-opacity="0.200000" stroke="#000000" stroke-width="2" stroke-opacity="0.200000" points="515.1,-176.31 513,-170.31 510.9,-176.31 515.1,-176.31"/>
</g>
<!-- src/main/options/validate.js&#45;&gt;src/report/index.js -->
<g id="edge24" class="edge">
<title>src/main/options/validate.js&#45;&gt;src/report/index.js</title>
<path fill="none" stroke="#000000" stroke-width="2" stroke-opacity="0.200000" d="M442.03,-221C452.14,-221 461,-221 461,-221 461,-221 461,-520.67 461,-520.67 461,-520.67 526.95,-520.67 526.95,-520.67"/>
<polygon fill="#000000" fill-opacity="0.200000" stroke="#000000" stroke-width="2" stroke-opacity="0.200000" points="526.95,-522.77 532.95,-520.67 526.95,-518.57 526.95,-522.77"/>
</g>
<!-- src/main/rule&#45;set/normalize.js&#45;&gt;src/main/utl/normalize&#45;re&#45;properties.js -->
<g id="edge26" class="edge">
<title>src/main/rule&#45;set/normalize.js&#45;&gt;src/main/utl/normalize&#45;re&#45;properties.js</title>
<path fill="none" stroke="#000000" stroke-width="2" stroke-opacity="0.200000" d="M302.54,-161C302.54,-161 492.89,-161 492.89,-161"/>
<polygon fill="#000000" fill-opacity="0.200000" stroke="#000000" stroke-width="2" stroke-opacity="0.200000" points="492.89,-163.1 498.89,-161 492.89,-158.9 492.89,-163.1"/>
</g>
<!-- src/main/rule&#45;set/validate.js&#45;&gt;src/main/options/validate.js -->
<g id="edge28" class="edge">
<title>src/main/rule&#45;set/validate.js&#45;&gt;src/main/options/validate.js</title>
<path fill="none" stroke="#000000" stroke-width="2" stroke-opacity="0.200000" d="M298.54,-134C340.47,-134 413,-134 413,-134 413,-134 413,-205.69 413,-205.69"/>
<polygon fill="#000000" fill-opacity="0.200000" stroke="#000000" stroke-width="2" stroke-opacity="0.200000" points="410.9,-205.69 413,-211.69 415.1,-205.69 410.9,-205.69"/>
</g>
<!-- src/schema/configuration.schema.json -->
<g id="node25" class="node">
<title>src/schema/configuration.schema.json</title>
<g id="a_node25"><a xlink:href="src/schema/configuration.schema.json" xlink:title="configuration.schema.json">
<path fill="lightgray" stroke="black" d="M469,-72C469,-72 357,-72 357,-72 354,-72 351,-69 351,-66 351,-66 351,-60 351,-60 351,-57 354,-54 357,-54 357,-54 469,-54 469,-54 472,-54 475,-57 475,-60 475,-60 475,-66 475,-66 475,-69 472,-72 469,-72"/>
<text text-anchor="middle" x="413" y="-60.8" font-family="Helvetica,sans-Serif" font-size="9.00" fill="gray">configuration.schema.json</text>
</a>
</g>
</g>
<!-- src/main/rule&#45;set/validate.js&#45;&gt;src/schema/configuration.schema.json -->
<g id="edge27" class="edge">
<title>src/main/rule&#45;set/validate.js&#45;&gt;src/schema/configuration.schema.json</title>
<path fill="none" stroke="#000000" stroke-width="2" stroke-opacity="0.200000" d="M298.59,-128C328.58,-128 371,-128 371,-128 371,-128 371,-78.04 371,-78.04"/>
<polygon fill="#000000" fill-opacity="0.200000" stroke="#000000" stroke-width="2" stroke-opacity="0.200000" points="373.1,-78.04 371,-72.04 368.9,-78.04 373.1,-78.04"/>
</g>
</g>
</svg>
