<?xml version="1.0" encoding="UTF-8" standalone="no"?>
<!DOCTYPE svg PUBLIC "-//W3C//DTD SVG 1.1//EN"
 "http://www.w3.org/Graphics/SVG/1.1/DTD/svg11.dtd">
<!-- Generated by graphviz version 8.0.5 (20230430.1635)
 -->
<!-- Title: dependency&#45;cruiser output Pages: 1 -->
<svg width="937pt" height="732pt"
 viewBox="0.00 0.00 937.12 732.00" xmlns="http://www.w3.org/2000/svg" xmlns:xlink="http://www.w3.org/1999/xlink">
<g id="graph0" class="graph" transform="scale(1 1) rotate(0) translate(4 728)">
<title>dependency&#45;cruiser output</title>
<polygon fill="white" stroke="none" points="-4,4 -4,-728 933.12,-728 933.12,4 -4,4"/>
<g id="clust1" class="cluster">
<title>cluster_src</title>
<path fill="#ffffff" stroke="black" stroke-width="2" d="M20,-8C20,-8 909.12,-8 909.12,-8 915.12,-8 921.12,-14 921.12,-20 921.12,-20 921.12,-704 921.12,-704 921.12,-710 915.12,-716 909.12,-716 909.12,-716 20,-716 20,-716 14,-716 8,-710 8,-704 8,-704 8,-20 8,-20 8,-14 14,-8 20,-8"/>
<text text-anchor="middle" x="464.56" y="-703.45" font-family="Helvetica,sans-Serif" font-weight="bold" font-size="9.00">src</text>
</g>
<g id="clust2" class="cluster">
<title>cluster_src/cache</title>
<path fill="#ffffff" stroke="black" stroke-width="2" d="M462.12,-528C462.12,-528 511.38,-528 511.38,-528 517.38,-528 523.38,-534 523.38,-540 523.38,-540 523.38,-568 523.38,-568 523.38,-574 517.38,-580 511.38,-580 511.38,-580 462.12,-580 462.12,-580 456.12,-580 450.12,-574 450.12,-568 450.12,-568 450.12,-540 450.12,-540 450.12,-534 456.12,-528 462.12,-528"/>
<text text-anchor="middle" x="486.75" y="-567.45" font-family="Helvetica,sans-Serif" font-weight="bold" font-size="9.00">cache</text>
</g>
<g id="clust3" class="cluster">
<title>cluster_src/cli</title>
<path fill="#ffffff" stroke="black" stroke-width="2" d="M28,-315C28,-315 190.25,-315 190.25,-315 196.25,-315 202.25,-321 202.25,-327 202.25,-327 202.25,-385 202.25,-385 202.25,-391 196.25,-397 190.25,-397 190.25,-397 28,-397 28,-397 22,-397 16,-391 16,-385 16,-385 16,-327 16,-327 16,-321 22,-315 28,-315"/>
<text text-anchor="middle" x="109.12" y="-384.45" font-family="Helvetica,sans-Serif" font-weight="bold" font-size="9.00">cli</text>
</g>
<g id="clust4" class="cluster">
<title>cluster_src/config&#45;utl</title>
<path fill="#ffffff" stroke="black" stroke-width="2" d="M301.25,-48C301.25,-48 414.25,-48 414.25,-48 420.25,-48 426.25,-54 426.25,-60 426.25,-60 426.25,-122 426.25,-122 426.25,-128 420.25,-134 414.25,-134 414.25,-134 301.25,-134 301.25,-134 295.25,-134 289.25,-128 289.25,-122 289.25,-122 289.25,-60 289.25,-60 289.25,-54 295.25,-48 301.25,-48"/>
<text text-anchor="middle" x="357.75" y="-121.45" font-family="Helvetica,sans-Serif" font-weight="bold" font-size="9.00">config&#45;utl</text>
</g>
<g id="clust5" class="cluster">
<title>cluster_src/config&#45;utl/extract&#45;depcruise&#45;config</title>
<path fill="#ffffff" stroke="black" stroke-width="2" d="M309.25,-56C309.25,-56 406.25,-56 406.25,-56 412.25,-56 418.25,-62 418.25,-68 418.25,-68 418.25,-96 418.25,-96 418.25,-102 412.25,-108 406.25,-108 406.25,-108 309.25,-108 309.25,-108 303.25,-108 297.25,-102 297.25,-96 297.25,-96 297.25,-68 297.25,-68 297.25,-62 303.25,-56 309.25,-56"/>
<text text-anchor="middle" x="357.75" y="-95.45" font-family="Helvetica,sans-Serif" font-weight="bold" font-size="9.00">extract&#45;depcruise&#45;config</text>
</g>
<g id="clust6" class="cluster">
<title>cluster_src/enrich</title>
<path fill="#ffffff" stroke="black" stroke-width="2" d="M583.88,-450C583.88,-450 750.5,-450 750.5,-450 756.5,-450 762.5,-456 762.5,-462 762.5,-462 762.5,-524 762.5,-524 762.5,-530 756.5,-536 750.5,-536 750.5,-536 583.88,-536 583.88,-536 577.88,-536 571.88,-530 571.88,-524 571.88,-524 571.88,-462 571.88,-462 571.88,-456 577.88,-450 583.88,-450"/>
<text text-anchor="middle" x="667.19" y="-523.45" font-family="Helvetica,sans-Serif" font-weight="bold" font-size="9.00">enrich</text>
</g>
<g id="clust7" class="cluster">
<title>cluster_src/enrich/summarize</title>
<path fill="#ffffff" stroke="black" stroke-width="2" d="M695.5,-458C695.5,-458 742.5,-458 742.5,-458 748.5,-458 754.5,-464 754.5,-470 754.5,-470 754.5,-498 754.5,-498 754.5,-504 748.5,-510 742.5,-510 742.5,-510 695.5,-510 695.5,-510 689.5,-510 683.5,-504 683.5,-498 683.5,-498 683.5,-470 683.5,-470 683.5,-464 689.5,-458 695.5,-458"/>
<text text-anchor="middle" x="719" y="-497.45" font-family="Helvetica,sans-Serif" font-weight="bold" font-size="9.00">summarize</text>
</g>
<g id="clust10" class="cluster">
<title>cluster_src/graph&#45;utl</title>
<path fill="#ffffff" stroke="black" stroke-width="2" d="M787.38,-16C787.38,-16 901.12,-16 901.12,-16 907.12,-16 913.12,-22 913.12,-28 913.12,-28 913.12,-176 913.12,-176 913.12,-182 907.12,-188 901.12,-188 901.12,-188 787.38,-188 787.38,-188 781.38,-188 775.38,-182 775.38,-176 775.38,-176 775.38,-28 775.38,-28 775.38,-22 781.38,-16 787.38,-16"/>
<text text-anchor="middle" x="844.25" y="-175.45" font-family="Helvetica,sans-Serif" font-weight="bold" font-size="9.00">graph&#45;utl</text>
</g>
<g id="clust8" class="cluster">
<title>cluster_src/extract</title>
<path fill="#ffffff" stroke="black" stroke-width="2" d="M576.38,-554C576.38,-554 638.38,-554 638.38,-554 644.38,-554 650.38,-560 650.38,-566 650.38,-566 650.38,-654 650.38,-654 650.38,-660 644.38,-666 638.38,-666 638.38,-666 576.38,-666 576.38,-666 570.38,-666 564.38,-660 564.38,-654 564.38,-654 564.38,-566 564.38,-566 564.38,-560 570.38,-554 576.38,-554"/>
<text text-anchor="middle" x="607.38" y="-653.45" font-family="Helvetica,sans-Serif" font-weight="bold" font-size="9.00">extract</text>
</g>
<g id="clust9" class="cluster">
<title>cluster_src/extract/transpile</title>
<path fill="#ffffff" stroke="black" stroke-width="2" d="M584.38,-562C584.38,-562 630.38,-562 630.38,-562 636.38,-562 642.38,-568 642.38,-574 642.38,-574 642.38,-602 642.38,-602 642.38,-608 636.38,-614 630.38,-614 630.38,-614 584.38,-614 584.38,-614 578.38,-614 572.38,-608 572.38,-602 572.38,-602 572.38,-574 572.38,-574 572.38,-568 578.38,-562 584.38,-562"/>
<text text-anchor="middle" x="607.38" y="-601.45" font-family="Helvetica,sans-Serif" font-weight="bold" font-size="9.00">transpile</text>
</g>
<g id="clust11" class="cluster">
<title>cluster_src/main</title>
<path fill="#ffffff" stroke="black" stroke-width="2" d="M222.25,-142C222.25,-142 755.38,-142 755.38,-142 761.38,-142 767.38,-148 767.38,-154 767.38,-154 767.38,-430 767.38,-430 767.38,-436 761.38,-442 755.38,-442 755.38,-442 222.25,-442 222.25,-442 216.25,-442 210.25,-436 210.25,-430 210.25,-430 210.25,-154 210.25,-154 210.25,-148 216.25,-142 222.25,-142"/>
<text text-anchor="middle" x="488.81" y="-429.45" font-family="Helvetica,sans-Serif" font-weight="bold" font-size="9.00">main</text>
</g>
<g id="clust12" class="cluster">
<title>cluster_src/main/files&#45;and&#45;dirs</title>
<path fill="#ffffff" stroke="black" stroke-width="2" d="M454.25,-274C454.25,-274 519.25,-274 519.25,-274 525.25,-274 531.25,-280 531.25,-286 531.25,-286 531.25,-314 531.25,-314 531.25,-320 525.25,-326 519.25,-326 519.25,-326 454.25,-326 454.25,-326 448.25,-326 442.25,-320 442.25,-314 442.25,-314 442.25,-286 442.25,-286 442.25,-280 448.25,-274 454.25,-274"/>
<text text-anchor="middle" x="486.75" y="-313.45" font-family="Helvetica,sans-Serif" font-weight="bold" font-size="9.00">files&#45;and&#45;dirs</text>
</g>
<g id="clust13" class="cluster">
<title>cluster_src/main/options</title>
<path fill="#ffffff" stroke="black" stroke-width="2" d="M574.88,-218C574.88,-218 747.38,-218 747.38,-218 753.38,-218 759.38,-224 759.38,-230 759.38,-230 759.38,-288 759.38,-288 759.38,-294 753.38,-300 747.38,-300 747.38,-300 574.88,-300 574.88,-300 568.88,-300 562.88,-294 562.88,-288 562.88,-288 562.88,-230 562.88,-230 562.88,-224 568.88,-218 574.88,-218"/>
<text text-anchor="middle" x="661.12" y="-287.45" font-family="Helvetica,sans-Serif" font-weight="bold" font-size="9.00">options</text>
</g>
<g id="clust14" class="cluster">
<title>cluster_src/main/resolve&#45;options</title>
<path fill="#ffffff" stroke="black" stroke-width="2" d="M454.25,-176C454.25,-176 519.25,-176 519.25,-176 525.25,-176 531.25,-182 531.25,-188 531.25,-188 531.25,-216 531.25,-216 531.25,-222 525.25,-228 519.25,-228 519.25,-228 454.25,-228 454.25,-228 448.25,-228 442.25,-222 442.25,-216 442.25,-216 442.25,-188 442.25,-188 442.25,-182 448.25,-176 454.25,-176"/>
<text text-anchor="middle" x="486.75" y="-215.45" font-family="Helvetica,sans-Serif" font-weight="bold" font-size="9.00">resolve&#45;options</text>
</g>
<g id="clust15" class="cluster">
<title>cluster_src/main/rule&#45;set</title>
<path fill="#ffffff" stroke="black" stroke-width="2" d="M454.25,-334C454.25,-334 519.25,-334 519.25,-334 525.25,-334 531.25,-340 531.25,-346 531.25,-346 531.25,-404 531.25,-404 531.25,-410 525.25,-416 519.25,-416 519.25,-416 454.25,-416 454.25,-416 448.25,-416 442.25,-410 442.25,-404 442.25,-404 442.25,-346 442.25,-346 442.25,-340 448.25,-334 454.25,-334"/>
<text text-anchor="middle" x="486.75" y="-403.45" font-family="Helvetica,sans-Serif" font-weight="bold" font-size="9.00">rule&#45;set</text>
</g>
<g id="clust16" class="cluster">
<title>cluster_src/report</title>
<path fill="#ffffff" stroke="black" stroke-width="2" d="M695.5,-82C695.5,-82 742.5,-82 742.5,-82 748.5,-82 754.5,-88 754.5,-94 754.5,-94 754.5,-122 754.5,-122 754.5,-128 748.5,-134 742.5,-134 742.5,-134 695.5,-134 695.5,-134 689.5,-134 683.5,-128 683.5,-122 683.5,-122 683.5,-94 683.5,-94 683.5,-88 689.5,-82 695.5,-82"/>
<text text-anchor="middle" x="719" y="-121.45" font-family="Helvetica,sans-Serif" font-weight="bold" font-size="9.00">report</text>
</g>
<g id="clust17" class="cluster">
<title>cluster_src/schema</title>
<path fill="#ffffff" stroke="black" stroke-width="2" d="M551.25,-16C551.25,-16 663.5,-16 663.5,-16 669.5,-16 675.5,-22 675.5,-28 675.5,-28 675.5,-86 675.5,-86 675.5,-92 669.5,-98 663.5,-98 663.5,-98 551.25,-98 551.25,-98 545.25,-98 539.25,-92 539.25,-86 539.25,-86 539.25,-28 539.25,-28 539.25,-22 545.25,-16 551.25,-16"/>
<text text-anchor="middle" x="607.38" y="-85.45" font-family="Helvetica,sans-Serif" font-weight="bold" font-size="9.00">schema</text>
</g>
<g id="clust18" class="cluster">
<title>cluster_src/utl</title>
<path fill="#ffffff" stroke="black" stroke-width="2" d="M696,-626C696,-626 742,-626 742,-626 748,-626 754,-632 754,-638 754,-638 754,-666 754,-666 754,-672 748,-678 742,-678 742,-678 696,-678 696,-678 690,-678 684,-672 684,-666 684,-666 684,-638 684,-638 684,-632 690,-626 696,-626"/>
<text text-anchor="middle" x="719" y="-665.45" font-family="Helvetica,sans-Serif" font-weight="bold" font-size="9.00">utl</text>
</g>
<!-- src/cache/cache.mjs -->
<g id="node1" class="node">
<title>src/cache/cache.mjs</title>
<g id="a_node1"><a xlink:href="src/cache/cache.mjs" xlink:title="cache.mjs">
<path fill="lightgray" stroke="black" d="M509.46,-553.88C509.46,-553.88 464.04,-553.88 464.04,-553.88 461.08,-553.88 458.12,-550.92 458.12,-547.96 458.12,-547.96 458.12,-542.04 458.12,-542.04 458.12,-539.08 461.08,-536.12 464.04,-536.12 464.04,-536.12 509.46,-536.12 509.46,-536.12 512.42,-536.12 515.38,-539.08 515.38,-542.04 515.38,-542.04 515.38,-547.96 515.38,-547.96 515.38,-550.92 512.42,-553.88 509.46,-553.88"/>
<text text-anchor="start" x="466.12" y="-541.33" font-family="Helvetica,sans-Serif" font-size="9.00" fill="gray">cache.mjs</text>
</a>
</g>
</g>
<!-- src/extract/transpile/meta.mjs -->
<g id="node2" class="node">
<title>src/extract/transpile/meta.mjs</title>
<g id="a_node2"><a xlink:href="src/extract/transpile/meta.mjs" xlink:title="meta.mjs">
<path fill="lightgray" stroke="black" d="M628.46,-587.88C628.46,-587.88 586.29,-587.88 586.29,-587.88 583.33,-587.88 580.38,-584.92 580.38,-581.96 580.38,-581.96 580.38,-576.04 580.38,-576.04 580.38,-573.08 583.33,-570.12 586.29,-570.12 586.29,-570.12 628.46,-570.12 628.46,-570.12 631.42,-570.12 634.38,-573.08 634.38,-576.04 634.38,-576.04 634.38,-581.96 634.38,-581.96 634.38,-584.92 631.42,-587.88 628.46,-587.88"/>
<text text-anchor="start" x="589" y="-575.33" font-family="Helvetica,sans-Serif" font-size="9.00" fill="gray">meta.mjs</text>
</a>
</g>
</g>
<!-- src/cache/cache.mjs&#45;&gt;src/extract/transpile/meta.mjs -->
<g id="edge1" class="edge">
<title>src/cache/cache.mjs&#45;&gt;src/extract/transpile/meta.mjs</title>
<path fill="none" stroke="#000000" stroke-width="2" stroke-opacity="0.200000" d="M515.82,-547.96C551.73,-547.96 608.12,-547.96 608.12,-547.96 608.12,-547.96 608.12,-560.85 608.12,-560.85"/>
<polygon fill="#000000" fill-opacity="0.200000" stroke="#000000" stroke-width="2" stroke-opacity="0.200000" points="606.03,-560.85 608.12,-566.85 610.23,-560.85 606.03,-560.85"/>
</g>
<!-- src/utl/bus.mjs -->
<g id="node3" class="node">
<title>src/utl/bus.mjs</title>
<g id="a_node3"><a xlink:href="src/utl/bus.mjs" xlink:title="bus.mjs">
<path fill="lightgray" stroke="black" d="M740.08,-651.88C740.08,-651.88 697.92,-651.88 697.92,-651.88 694.96,-651.88 692,-648.92 692,-645.96 692,-645.96 692,-640.04 692,-640.04 692,-637.08 694.96,-634.12 697.92,-634.12 697.92,-634.12 740.08,-634.12 740.08,-634.12 743.04,-634.12 746,-637.08 746,-640.04 746,-640.04 746,-645.96 746,-645.96 746,-648.92 743.04,-651.88 740.08,-651.88"/>
<text text-anchor="start" x="703.25" y="-639.33" font-family="Helvetica,sans-Serif" font-size="9.00" fill="gray">bus.mjs</text>
</a>
</g>
</g>
<!-- src/cache/cache.mjs&#45;&gt;src/utl/bus.mjs -->
<g id="edge2" class="edge">
<title>src/cache/cache.mjs&#45;&gt;src/utl/bus.mjs</title>
<path fill="none" stroke="#000000" stroke-width="2" stroke-opacity="0.200000" d="M515.71,-542.04C578,-542.04 719.12,-542.04 719.12,-542.04 719.12,-542.04 719.12,-624.68 719.12,-624.68"/>
<polygon fill="#000000" fill-opacity="0.200000" stroke="#000000" stroke-width="2" stroke-opacity="0.200000" points="717.03,-624.68 719.12,-630.68 721.23,-624.68 717.03,-624.68"/>
</g>
<!-- src/cli/format&#45;meta&#45;info.mjs -->
<g id="node4" class="node">
<title>src/cli/format&#45;meta&#45;info.mjs</title>
<g id="a_node4"><a xlink:href="src/cli/format-meta-info.mjs" xlink:title="format&#45;meta&#45;info.mjs">
<path fill="lightgray" stroke="black" d="M188.33,-370.88C188.33,-370.88 100.92,-370.88 100.92,-370.88 97.96,-370.88 95,-367.92 95,-364.96 95,-364.96 95,-359.04 95,-359.04 95,-356.08 97.96,-353.12 100.92,-353.12 100.92,-353.12 188.33,-353.12 188.33,-353.12 191.29,-353.12 194.25,-356.08 194.25,-359.04 194.25,-359.04 194.25,-364.96 194.25,-364.96 194.25,-367.92 191.29,-370.88 188.33,-370.88"/>
<text text-anchor="start" x="103" y="-358.32" font-family="Helvetica,sans-Serif" font-size="9.00" fill="gray">format&#45;meta&#45;info.mjs</text>
</a>
</g>
</g>
<!-- src/main/index.mjs -->
<g id="node5" class="node">
<title>src/main/index.mjs</title>
<g id="a_node5"><a xlink:href="src/main/index.mjs" xlink:title="index.mjs">
<path fill="lime" stroke="black" d="M267.33,-385.88C267.33,-385.88 224.17,-385.88 224.17,-385.88 221.21,-385.88 218.25,-382.92 218.25,-379.96 218.25,-379.96 218.25,-374.04 218.25,-374.04 218.25,-371.08 221.21,-368.12 224.17,-368.12 224.17,-368.12 267.33,-368.12 267.33,-368.12 270.29,-368.12 273.25,-371.08 273.25,-374.04 273.25,-374.04 273.25,-379.96 273.25,-379.96 273.25,-382.92 270.29,-385.88 267.33,-385.88"/>
<text text-anchor="start" x="226.25" y="-373.32" font-family="Helvetica,sans-Serif" font-size="9.00">index.mjs</text>
</a>
</g>
</g>
<!-- src/cli/format&#45;meta&#45;info.mjs&#45;&gt;src/main/index.mjs -->
<g id="edge3" class="edge">
<title>src/cli/format&#45;meta&#45;info.mjs&#45;&gt;src/main/index.mjs</title>
<path fill="none" stroke="#000000" stroke-width="2" stroke-opacity="0.200000" d="M194.48,-364C220.15,-364 246.12,-364 246.12,-364 246.12,-364 246.12,-364.38 246.12,-364.38"/>
<polygon fill="#000000" fill-opacity="0.200000" stroke="#000000" stroke-width="2" stroke-opacity="0.200000" points="244.03,-358.83 246.12,-364.83 248.23,-358.83 244.03,-358.83"/>
</g>
<!-- src/main/index.mjs&#45;&gt;src/extract/transpile/meta.mjs -->
<g id="edge27" class="edge">
<title>src/main/index.mjs&#45;&gt;src/extract/transpile/meta.mjs</title>
<path fill="none" stroke="#000000" stroke-width="2" stroke-opacity="0.200000" d="M246.12,-386.34C246.12,-426.44 246.12,-581.96 246.12,-581.96 246.12,-581.96 570.93,-581.96 570.93,-581.96"/>
<polygon fill="#000000" fill-opacity="0.200000" stroke="#000000" stroke-width="2" stroke-opacity="0.200000" points="570.93,-584.06 576.93,-581.96 570.93,-579.86 570.93,-584.06"/>
</g>
<!-- src/main/format.mjs -->
<g id="node7" class="node">
<title>src/main/format.mjs</title>
<g id="a_node7"><a xlink:href="src/main/format.mjs" xlink:title="format.mjs">
<path fill="lime" stroke="black" d="M509.83,-167.88C509.83,-167.88 463.67,-167.88 463.67,-167.88 460.71,-167.88 457.75,-164.92 457.75,-161.96 457.75,-161.96 457.75,-156.04 457.75,-156.04 457.75,-153.08 460.71,-150.12 463.67,-150.12 463.67,-150.12 509.83,-150.12 509.83,-150.12 512.79,-150.12 515.75,-153.08 515.75,-156.04 515.75,-156.04 515.75,-161.96 515.75,-161.96 515.75,-164.92 512.79,-167.88 509.83,-167.88"/>
<text text-anchor="start" x="465.75" y="-155.32" font-family="Helvetica,sans-Serif" font-size="9.00">format.mjs</text>
</a>
</g>
</g>
<!-- src/main/index.mjs&#45;&gt;src/main/format.mjs -->
<g id="edge29" class="edge">
<title>src/main/index.mjs&#45;&gt;src/main/format.mjs</title>
<path fill="none" stroke="#000000" stroke-width="2" stroke-opacity="0.200000" d="M273.61,-375.56C287.81,-375.56 302.12,-375.56 302.12,-375.56 302.12,-375.56 302.12,-161.96 302.12,-161.96 302.12,-161.96 448.5,-161.96 448.5,-161.96"/>
<polygon fill="#000000" fill-opacity="0.200000" stroke="#000000" stroke-width="2" stroke-opacity="0.200000" points="448.5,-164.06 454.5,-161.96 448.5,-159.86 448.5,-164.06"/>
</g>
<!-- src/main/cruise.mjs -->
<g id="node9" class="node">
<title>src/main/cruise.mjs</title>
<g id="a_node9"><a xlink:href="src/main/cruise.mjs" xlink:title="cruise.mjs">
<path fill="lime" stroke="black" d="M380.46,-359.88C380.46,-359.88 335.04,-359.88 335.04,-359.88 332.08,-359.88 329.12,-356.92 329.12,-353.96 329.12,-353.96 329.12,-348.04 329.12,-348.04 329.12,-345.08 332.08,-342.12 335.04,-342.12 335.04,-342.12 380.46,-342.12 380.46,-342.12 383.42,-342.12 386.38,-345.08 386.38,-348.04 386.38,-348.04 386.38,-353.96 386.38,-353.96 386.38,-356.92 383.42,-359.88 380.46,-359.88"/>
<text text-anchor="start" x="337.12" y="-347.32" font-family="Helvetica,sans-Serif" font-size="9.00">cruise.mjs</text>
</a>
</g>
</g>
<!-- src/main/index.mjs&#45;&gt;src/main/cruise.mjs -->
<g id="edge28" class="edge">
<title>src/main/index.mjs&#45;&gt;src/main/cruise.mjs</title>
<path fill="none" stroke="#000000" stroke-width="2" stroke-opacity="0.200000" d="M273.66,-382.44C300.53,-382.44 337.12,-382.44 337.12,-382.44 337.12,-382.44 337.12,-369.26 337.12,-369.26"/>
<polygon fill="#000000" fill-opacity="0.200000" stroke="#000000" stroke-width="2" stroke-opacity="0.200000" points="339.23,-369.26 337.12,-363.26 335.03,-369.26 339.23,-369.26"/>
</g>
<!-- src/cli/format.mjs -->
<g id="node6" class="node">
<title>src/cli/format.mjs</title>
<g id="a_node6"><a xlink:href="src/cli/format.mjs" xlink:title="format.mjs">
<path fill="lightgray" stroke="black" d="M76.08,-340.88C76.08,-340.88 29.92,-340.88 29.92,-340.88 26.96,-340.88 24,-337.92 24,-334.96 24,-334.96 24,-329.04 24,-329.04 24,-326.08 26.96,-323.12 29.92,-323.12 29.92,-323.12 76.08,-323.12 76.08,-323.12 79.04,-323.12 82,-326.08 82,-329.04 82,-329.04 82,-334.96 82,-334.96 82,-337.92 79.04,-340.88 76.08,-340.88"/>
<text text-anchor="start" x="32" y="-328.32" font-family="Helvetica,sans-Serif" font-size="9.00" fill="gray">format.mjs</text>
</a>
</g>
</g>
<!-- src/cli/format.mjs&#45;&gt;src/main/format.mjs -->
<g id="edge4" class="edge">
<title>src/cli/format.mjs&#45;&gt;src/main/format.mjs</title>
<path fill="none" stroke="#000000" stroke-width="2" stroke-opacity="0.200000" d="M53.12,-323.03C53.12,-287.18 53.12,-156.04 53.12,-156.04 53.12,-156.04 448.29,-156.04 448.29,-156.04"/>
<polygon fill="#000000" fill-opacity="0.200000" stroke="#000000" stroke-width="2" stroke-opacity="0.200000" points="448.29,-158.14 454.29,-156.04 448.29,-153.94 448.29,-158.14"/>
</g>
<!-- src/main/options/normalize.mjs -->
<g id="node21" class="node">
<title>src/main/options/normalize.mjs</title>
<g id="a_node21"><a xlink:href="src/main/options/normalize.mjs" xlink:title="normalize.mjs">
<path fill="lime" stroke="black" d="M637.96,-243.88C637.96,-243.88 576.79,-243.88 576.79,-243.88 573.83,-243.88 570.88,-240.92 570.88,-237.96 570.88,-237.96 570.88,-232.04 570.88,-232.04 570.88,-229.08 573.83,-226.12 576.79,-226.12 576.79,-226.12 637.96,-226.12 637.96,-226.12 640.92,-226.12 643.88,-229.08 643.88,-232.04 643.88,-232.04 643.88,-237.96 643.88,-237.96 643.88,-240.92 640.92,-243.88 637.96,-243.88"/>
<text text-anchor="start" x="578.88" y="-231.32" font-family="Helvetica,sans-Serif" font-size="9.00">normalize.mjs</text>
</a>
</g>
</g>
<!-- src/main/format.mjs&#45;&gt;src/main/options/normalize.mjs -->
<g id="edge24" class="edge">
<title>src/main/format.mjs&#45;&gt;src/main/options/normalize.mjs</title>
<path fill="none" stroke="#000000" stroke-width="2" stroke-opacity="0.200000" d="M516.06,-159C529.34,-159 542.12,-159 542.12,-159 542.12,-159 542.12,-232.04 542.12,-232.04 542.12,-232.04 561.55,-232.04 561.55,-232.04"/>
<polygon fill="#000000" fill-opacity="0.200000" stroke="#000000" stroke-width="2" stroke-opacity="0.200000" points="561.55,-234.14 567.55,-232.04 561.55,-229.94 561.55,-234.14"/>
</g>
<!-- src/main/options/validate.mjs -->
<g id="node22" class="node">
<title>src/main/options/validate.mjs</title>
<g id="a_node22"><a xlink:href="src/main/options/validate.mjs" xlink:title="validate.mjs">
<path fill="lime" stroke="black" d="M633.83,-273.88C633.83,-273.88 580.92,-273.88 580.92,-273.88 577.96,-273.88 575,-270.92 575,-267.96 575,-267.96 575,-262.04 575,-262.04 575,-259.08 577.96,-256.12 580.92,-256.12 580.92,-256.12 633.83,-256.12 633.83,-256.12 636.79,-256.12 639.75,-259.08 639.75,-262.04 639.75,-262.04 639.75,-267.96 639.75,-267.96 639.75,-270.92 636.79,-273.88 633.83,-273.88"/>
<text text-anchor="start" x="583" y="-261.32" font-family="Helvetica,sans-Serif" font-size="9.00">validate.mjs</text>
</a>
</g>
</g>
<!-- src/main/format.mjs&#45;&gt;src/main/options/validate.mjs -->
<g id="edge25" class="edge">
<title>src/main/format.mjs&#45;&gt;src/main/options/validate.mjs</title>
<path fill="none" stroke="#000000" stroke-width="2" stroke-opacity="0.200000" d="M516.04,-163.44C526.67,-163.44 536.12,-163.44 536.12,-163.44 536.12,-163.44 536.12,-262.04 536.12,-262.04 536.12,-262.04 565.67,-262.04 565.67,-262.04"/>
<polygon fill="#000000" fill-opacity="0.200000" stroke="#000000" stroke-width="2" stroke-opacity="0.200000" points="565.67,-264.14 571.67,-262.04 565.67,-259.94 565.67,-264.14"/>
</g>
<!-- src/main/report&#45;wrap.mjs -->
<g id="node23" class="node">
<title>src/main/report&#45;wrap.mjs</title>
<g id="a_node23"><a xlink:href="src/main/report-wrap.mjs" xlink:title="report&#45;wrap.mjs">
<path fill="lime" stroke="black" d="M641.33,-167.88C641.33,-167.88 573.42,-167.88 573.42,-167.88 570.46,-167.88 567.5,-164.92 567.5,-161.96 567.5,-161.96 567.5,-156.04 567.5,-156.04 567.5,-153.08 570.46,-150.12 573.42,-150.12 573.42,-150.12 641.33,-150.12 641.33,-150.12 644.29,-150.12 647.25,-153.08 647.25,-156.04 647.25,-156.04 647.25,-161.96 647.25,-161.96 647.25,-164.92 644.29,-167.88 641.33,-167.88"/>
<text text-anchor="start" x="575.5" y="-155.32" font-family="Helvetica,sans-Serif" font-size="9.00">report&#45;wrap.mjs</text>
</a>
</g>
</g>
<!-- src/main/format.mjs&#45;&gt;src/main/report&#45;wrap.mjs -->
<g id="edge26" class="edge">
<title>src/main/format.mjs&#45;&gt;src/main/report&#45;wrap.mjs</title>
<path fill="none" stroke="#000000" stroke-width="2" stroke-opacity="0.200000" d="M515.95,-154.56C515.95,-154.56 558.05,-154.56 558.05,-154.56"/>
<polygon fill="#000000" fill-opacity="0.200000" stroke="#000000" stroke-width="2" stroke-opacity="0.200000" points="558.05,-156.66 564.05,-154.56 558.05,-152.46 558.05,-156.66"/>
</g>
<!-- src/schema/cruise&#45;result.schema.mjs -->
<g id="node26" class="node">
<title>src/schema/cruise&#45;result.schema.mjs</title>
<g id="a_node26"><a xlink:href="src/schema/cruise-result.schema.mjs" xlink:title="cruise&#45;result.schema.mjs">
<path fill="lightgray" stroke="black" d="M660.08,-41.88C660.08,-41.88 554.67,-41.88 554.67,-41.88 551.71,-41.88 548.75,-38.92 548.75,-35.96 548.75,-35.96 548.75,-30.04 548.75,-30.04 548.75,-27.08 551.71,-24.12 554.67,-24.12 554.67,-24.12 660.08,-24.12 660.08,-24.12 663.04,-24.12 666,-27.08 666,-30.04 666,-30.04 666,-35.96 666,-35.96 666,-38.92 663.04,-41.88 660.08,-41.88"/>
<text text-anchor="start" x="556.75" y="-29.32" font-family="Helvetica,sans-Serif" font-size="9.00" fill="gray">cruise&#45;result.schema.mjs</text>
</a>
</g>
</g>
<!-- src/main/format.mjs&#45;&gt;src/schema/cruise&#45;result.schema.mjs -->
<g id="edge23" class="edge">
<title>src/main/format.mjs&#45;&gt;src/schema/cruise&#45;result.schema.mjs</title>
<path fill="none" stroke="#000000" stroke-width="2" stroke-opacity="0.200000" d="M487.12,-149.94C487.12,-121.05 487.12,-33 487.12,-33 487.12,-33 539.31,-33 539.31,-33"/>
<polygon fill="#000000" fill-opacity="0.200000" stroke="#000000" stroke-width="2" stroke-opacity="0.200000" points="539.31,-35.1 545.31,-33 539.31,-30.9 539.31,-35.1"/>
</g>
<!-- src/cli/index.mjs -->
<g id="node8" class="node">
<title>src/cli/index.mjs</title>
<g id="a_node8"><a xlink:href="src/cli/index.mjs" xlink:title="index.mjs">
<path fill="lightgray" stroke="black" d="M74.58,-370.88C74.58,-370.88 31.42,-370.88 31.42,-370.88 28.46,-370.88 25.5,-367.92 25.5,-364.96 25.5,-364.96 25.5,-359.04 25.5,-359.04 25.5,-356.08 28.46,-353.12 31.42,-353.12 31.42,-353.12 74.58,-353.12 74.58,-353.12 77.54,-353.12 80.5,-356.08 80.5,-359.04 80.5,-359.04 80.5,-364.96 80.5,-364.96 80.5,-367.92 77.54,-370.88 74.58,-370.88"/>
<text text-anchor="start" x="33.5" y="-358.32" font-family="Helvetica,sans-Serif" font-size="9.00" fill="gray">index.mjs</text>
</a>
</g>
</g>
<!-- src/cli/index.mjs&#45;&gt;src/utl/bus.mjs -->
<g id="edge6" class="edge">
<title>src/cli/index.mjs&#45;&gt;src/utl/bus.mjs</title>
<path fill="none" stroke="#000000" stroke-width="2" stroke-opacity="0.200000" d="M44.12,-371.22C44.12,-420.32 44.12,-648.88 44.12,-648.88 44.12,-648.88 682.71,-648.88 682.71,-648.88"/>
<polygon fill="#000000" fill-opacity="0.200000" stroke="#000000" stroke-width="2" stroke-opacity="0.200000" points="682.71,-650.98 688.71,-648.88 682.71,-646.78 682.71,-650.98"/>
</g>
<!-- src/cli/index.mjs&#45;&gt;src/cli/format&#45;meta&#45;info.mjs -->
<g id="edge7" class="edge">
<title>src/cli/index.mjs&#45;&gt;src/cli/format&#45;meta&#45;info.mjs</title>
<path fill="none" stroke="#000000" stroke-width="2" stroke-dasharray="5,2" stroke-opacity="0.200000" d="M80.99,-362C80.99,-362 85.83,-362 85.83,-362"/>
<polygon fill="#000000" fill-opacity="0.200000" stroke="#000000" stroke-width="2" stroke-opacity="0.200000" points="85.83,-364.1 91.83,-362 85.83,-359.9 85.83,-364.1"/>
</g>
<!-- src/cli/index.mjs&#45;&gt;src/main/cruise.mjs -->
<g id="edge5" class="edge">
<title>src/cli/index.mjs&#45;&gt;src/main/cruise.mjs</title>
<path fill="none" stroke="#000000" stroke-width="2" stroke-opacity="0.200000" d="M63.12,-371.17C63.12,-388.87 63.12,-426 63.12,-426 63.12,-426 344.12,-426 344.12,-426 344.12,-426 344.12,-369.2 344.12,-369.2"/>
<polygon fill="#000000" fill-opacity="0.200000" stroke="#000000" stroke-width="2" stroke-opacity="0.200000" points="346.23,-369.2 344.12,-363.2 342.03,-369.2 346.23,-369.2"/>
</g>
<!-- src/main/cruise.mjs&#45;&gt;src/cache/cache.mjs -->
<g id="edge12" class="edge">
<title>src/main/cruise.mjs&#45;&gt;src/cache/cache.mjs</title>
<path fill="none" stroke="#000000" stroke-width="2" stroke-dasharray="5,2" stroke-opacity="0.200000" d="M365.12,-360.36C365.12,-399.11 365.12,-545 365.12,-545 365.12,-545 448.93,-545 448.93,-545"/>
<polygon fill="#000000" fill-opacity="0.200000" stroke="#000000" stroke-width="2" stroke-opacity="0.200000" points="448.93,-547.1 454.93,-545 448.93,-542.9 448.93,-547.1"/>
</g>
<!-- src/main/cruise.mjs&#45;&gt;src/utl/bus.mjs -->
<g id="edge15" class="edge">
<title>src/main/cruise.mjs&#45;&gt;src/utl/bus.mjs</title>
<path fill="none" stroke="#000000" stroke-width="2" stroke-opacity="0.200000" d="M351.12,-360.15C351.12,-409.92 351.12,-645.88 351.12,-645.88 351.12,-645.88 682.65,-645.88 682.65,-645.88"/>
<polygon fill="#000000" fill-opacity="0.200000" stroke="#000000" stroke-width="2" stroke-opacity="0.200000" points="682.65,-647.98 688.65,-645.88 682.65,-643.78 682.65,-647.98"/>
</g>
<!-- src/main/resolve&#45;options/normalize.mjs -->
<g id="node11" class="node">
<title>src/main/resolve&#45;options/normalize.mjs</title>
<g id="a_node11"><a xlink:href="src/main/resolve-options/normalize.mjs" xlink:title="normalize.mjs">
<path fill="lime" stroke="black" d="M517.33,-201.88C517.33,-201.88 456.17,-201.88 456.17,-201.88 453.21,-201.88 450.25,-198.92 450.25,-195.96 450.25,-195.96 450.25,-190.04 450.25,-190.04 450.25,-187.08 453.21,-184.12 456.17,-184.12 456.17,-184.12 517.33,-184.12 517.33,-184.12 520.29,-184.12 523.25,-187.08 523.25,-190.04 523.25,-190.04 523.25,-195.96 523.25,-195.96 523.25,-198.92 520.29,-201.88 517.33,-201.88"/>
<text text-anchor="start" x="458.25" y="-189.32" font-family="Helvetica,sans-Serif" font-size="9.00">normalize.mjs</text>
</a>
</g>
</g>
<!-- src/main/cruise.mjs&#45;&gt;src/main/resolve&#45;options/normalize.mjs -->
<g id="edge20" class="edge">
<title>src/main/cruise.mjs&#45;&gt;src/main/resolve&#45;options/normalize.mjs</title>
<path fill="none" stroke="#000000" stroke-width="2" stroke-dasharray="5,2" stroke-opacity="0.200000" d="M349.12,-342.05C349.12,-308.63 349.12,-193 349.12,-193 349.12,-193 440.87,-193 440.87,-193"/>
<polygon fill="#000000" fill-opacity="0.200000" stroke="#000000" stroke-width="2" stroke-opacity="0.200000" points="440.87,-195.1 446.87,-193 440.87,-190.9 440.87,-195.1"/>
</g>
<!-- src/enrich/index.mjs -->
<g id="node12" class="node">
<title>src/enrich/index.mjs</title>
<g id="a_node12"><a xlink:href="src/enrich/index.mjs" xlink:title="index.mjs">
<path fill="lightgray" stroke="black" d="M628.96,-479.88C628.96,-479.88 585.79,-479.88 585.79,-479.88 582.83,-479.88 579.88,-476.92 579.88,-473.96 579.88,-473.96 579.88,-468.04 579.88,-468.04 579.88,-465.08 582.83,-462.12 585.79,-462.12 585.79,-462.12 628.96,-462.12 628.96,-462.12 631.92,-462.12 634.88,-465.08 634.88,-468.04 634.88,-468.04 634.88,-473.96 634.88,-473.96 634.88,-476.92 631.92,-479.88 628.96,-479.88"/>
<text text-anchor="start" x="587.88" y="-467.32" font-family="Helvetica,sans-Serif" font-size="9.00" fill="gray">index.mjs</text>
</a>
</g>
</g>
<!-- src/main/cruise.mjs&#45;&gt;src/enrich/index.mjs -->
<g id="edge13" class="edge">
<title>src/main/cruise.mjs&#45;&gt;src/enrich/index.mjs</title>
<path fill="none" stroke="#000000" stroke-width="2" stroke-dasharray="5,2" stroke-opacity="0.200000" d="M372.12,-360.02C372.12,-387.93 372.12,-471 372.12,-471 372.12,-471 570.46,-471 570.46,-471"/>
<polygon fill="#000000" fill-opacity="0.200000" stroke="#000000" stroke-width="2" stroke-opacity="0.200000" points="570.46,-473.1 576.46,-471 570.46,-468.9 570.46,-473.1"/>
</g>
<!-- src/extract/index.mjs -->
<g id="node15" class="node">
<title>src/extract/index.mjs</title>
<g id="a_node15"><a xlink:href="src/extract/index.mjs" xlink:title="index.mjs">
<path fill="lightgray" stroke="black" d="M628.96,-639.88C628.96,-639.88 585.79,-639.88 585.79,-639.88 582.83,-639.88 579.88,-636.92 579.88,-633.96 579.88,-633.96 579.88,-628.04 579.88,-628.04 579.88,-625.08 582.83,-622.12 585.79,-622.12 585.79,-622.12 628.96,-622.12 628.96,-622.12 631.92,-622.12 634.88,-625.08 634.88,-628.04 634.88,-628.04 634.88,-633.96 634.88,-633.96 634.88,-636.92 631.92,-639.88 628.96,-639.88"/>
<text text-anchor="start" x="587.88" y="-627.33" font-family="Helvetica,sans-Serif" font-size="9.00" fill="gray">index.mjs</text>
</a>
</g>
</g>
<!-- src/main/cruise.mjs&#45;&gt;src/extract/index.mjs -->
<g id="edge14" class="edge">
<title>src/main/cruise.mjs&#45;&gt;src/extract/index.mjs</title>
<path fill="none" stroke="#000000" stroke-width="2" stroke-dasharray="5,2" stroke-opacity="0.200000" d="M358.12,-360.32C358.12,-408.9 358.12,-631 358.12,-631 358.12,-631 570.75,-631 570.75,-631"/>
<polygon fill="#000000" fill-opacity="0.200000" stroke="#000000" stroke-width="2" stroke-opacity="0.200000" points="570.75,-633.1 576.75,-631 570.75,-628.9 570.75,-633.1"/>
</g>
<!-- src/main/files&#45;and&#45;dirs/normalize.mjs -->
<g id="node20" class="node">
<title>src/main/files&#45;and&#45;dirs/normalize.mjs</title>
<g id="a_node20"><a xlink:href="src/main/files-and-dirs/normalize.mjs" xlink:title="normalize.mjs">
<path fill="lime" stroke="black" d="M517.33,-299.88C517.33,-299.88 456.17,-299.88 456.17,-299.88 453.21,-299.88 450.25,-296.92 450.25,-293.96 450.25,-293.96 450.25,-288.04 450.25,-288.04 450.25,-285.08 453.21,-282.12 456.17,-282.12 456.17,-282.12 517.33,-282.12 517.33,-282.12 520.29,-282.12 523.25,-285.08 523.25,-288.04 523.25,-288.04 523.25,-293.96 523.25,-293.96 523.25,-296.92 520.29,-299.88 517.33,-299.88"/>
<text text-anchor="start" x="458.25" y="-287.32" font-family="Helvetica,sans-Serif" font-size="9.00">normalize.mjs</text>
</a>
</g>
</g>
<!-- src/main/cruise.mjs&#45;&gt;src/main/files&#45;and&#45;dirs/normalize.mjs -->
<g id="edge16" class="edge">
<title>src/main/cruise.mjs&#45;&gt;src/main/files&#45;and&#45;dirs/normalize.mjs</title>
<path fill="none" stroke="#000000" stroke-width="2" stroke-dasharray="5,2" stroke-opacity="0.200000" d="M376.12,-341.62C376.12,-324.75 376.12,-291 376.12,-291 376.12,-291 440.91,-291 440.91,-291"/>
<polygon fill="#000000" fill-opacity="0.200000" stroke="#000000" stroke-width="2" stroke-opacity="0.200000" points="440.91,-293.1 446.91,-291 440.91,-288.9 440.91,-293.1"/>
</g>
<!-- src/main/cruise.mjs&#45;&gt;src/main/options/normalize.mjs -->
<g id="edge17" class="edge">
<title>src/main/cruise.mjs&#45;&gt;src/main/options/normalize.mjs</title>
<path fill="none" stroke="#000000" stroke-width="2" stroke-opacity="0.200000" d="M358.12,-341.75C358.12,-314.75 358.12,-237.96 358.12,-237.96 358.12,-237.96 561.6,-237.96 561.6,-237.96"/>
<polygon fill="#000000" fill-opacity="0.200000" stroke="#000000" stroke-width="2" stroke-opacity="0.200000" points="561.6,-240.06 567.6,-237.96 561.6,-235.86 561.6,-240.06"/>
</g>
<!-- src/main/cruise.mjs&#45;&gt;src/main/options/validate.mjs -->
<g id="edge18" class="edge">
<title>src/main/cruise.mjs&#45;&gt;src/main/options/validate.mjs</title>
<path fill="none" stroke="#000000" stroke-width="2" stroke-opacity="0.200000" d="M367.12,-341.8C367.12,-320.17 367.12,-267.96 367.12,-267.96 367.12,-267.96 565.72,-267.96 565.72,-267.96"/>
<polygon fill="#000000" fill-opacity="0.200000" stroke="#000000" stroke-width="2" stroke-opacity="0.200000" points="565.72,-270.06 571.72,-267.96 565.72,-265.86 565.72,-270.06"/>
</g>
<!-- src/main/cruise.mjs&#45;&gt;src/main/report&#45;wrap.mjs -->
<g id="edge19" class="edge">
<title>src/main/cruise.mjs&#45;&gt;src/main/report&#45;wrap.mjs</title>
<path fill="none" stroke="#000000" stroke-width="2" stroke-opacity="0.200000" d="M340.12,-341.74C340.12,-305.95 340.12,-178.71 340.12,-178.71 340.12,-178.71 596.12,-178.71 596.12,-178.71 596.12,-178.71 596.12,-176.93 596.12,-176.93"/>
<polygon fill="#000000" fill-opacity="0.200000" stroke="#000000" stroke-width="2" stroke-opacity="0.200000" points="598.23,-176.93 596.12,-170.93 594.03,-176.93 598.23,-176.93"/>
</g>
<!-- src/main/rule&#45;set/normalize.mjs -->
<g id="node24" class="node">
<title>src/main/rule&#45;set/normalize.mjs</title>
<g id="a_node24"><a xlink:href="src/main/rule-set/normalize.mjs" xlink:title="normalize.mjs">
<path fill="lime" stroke="black" d="M517.33,-389.88C517.33,-389.88 456.17,-389.88 456.17,-389.88 453.21,-389.88 450.25,-386.92 450.25,-383.96 450.25,-383.96 450.25,-378.04 450.25,-378.04 450.25,-375.08 453.21,-372.12 456.17,-372.12 456.17,-372.12 517.33,-372.12 517.33,-372.12 520.29,-372.12 523.25,-375.08 523.25,-378.04 523.25,-378.04 523.25,-383.96 523.25,-383.96 523.25,-386.92 520.29,-389.88 517.33,-389.88"/>
<text text-anchor="start" x="458.25" y="-377.32" font-family="Helvetica,sans-Serif" font-size="9.00">normalize.mjs</text>
</a>
</g>
</g>
<!-- src/main/cruise.mjs&#45;&gt;src/main/rule&#45;set/normalize.mjs -->
<g id="edge21" class="edge">
<title>src/main/cruise.mjs&#45;&gt;src/main/rule&#45;set/normalize.mjs</title>
<path fill="none" stroke="#000000" stroke-width="2" stroke-dasharray="5,2" stroke-opacity="0.200000" d="M380.12,-360.17C380.12,-368.33 380.12,-379 380.12,-379 380.12,-379 440.76,-379 440.76,-379"/>
<polygon fill="#000000" fill-opacity="0.200000" stroke="#000000" stroke-width="2" stroke-opacity="0.200000" points="440.76,-381.1 446.76,-379 440.76,-376.9 440.76,-381.1"/>
</g>
<!-- src/main/rule&#45;set/validate.mjs -->
<g id="node25" class="node">
<title>src/main/rule&#45;set/validate.mjs</title>
<g id="a_node25"><a xlink:href="src/main/rule-set/validate.mjs" xlink:title="validate.mjs">
<path fill="lime" stroke="black" d="M513.21,-359.88C513.21,-359.88 460.29,-359.88 460.29,-359.88 457.33,-359.88 454.38,-356.92 454.38,-353.96 454.38,-353.96 454.38,-348.04 454.38,-348.04 454.38,-345.08 457.33,-342.12 460.29,-342.12 460.29,-342.12 513.21,-342.12 513.21,-342.12 516.17,-342.12 519.12,-345.08 519.12,-348.04 519.12,-348.04 519.12,-353.96 519.12,-353.96 519.12,-356.92 516.17,-359.88 513.21,-359.88"/>
<text text-anchor="start" x="462.38" y="-347.32" font-family="Helvetica,sans-Serif" font-size="9.00">validate.mjs</text>
</a>
</g>
</g>
<!-- src/main/cruise.mjs&#45;&gt;src/main/rule&#45;set/validate.mjs -->
<g id="edge22" class="edge">
<title>src/main/cruise.mjs&#45;&gt;src/main/rule&#45;set/validate.mjs</title>
<path fill="none" stroke="#000000" stroke-width="2" stroke-dasharray="5,2" stroke-opacity="0.200000" d="M386.7,-351C386.7,-351 445.27,-351 445.27,-351"/>
<polygon fill="#000000" fill-opacity="0.200000" stroke="#000000" stroke-width="2" stroke-opacity="0.200000" points="445.27,-353.1 451.27,-351 445.27,-348.9 445.27,-353.1"/>
</g>
<!-- src/config&#45;utl/extract&#45;depcruise&#45;config/index.mjs -->
<g id="node10" class="node">
<title>src/config&#45;utl/extract&#45;depcruise&#45;config/index.mjs</title>
<g id="a_node10"><a xlink:href="src/config-utl/extract-depcruise-config/index.mjs" xlink:title="index.mjs">
<path fill="lightgray" stroke="black" d="M379.33,-81.88C379.33,-81.88 336.17,-81.88 336.17,-81.88 333.21,-81.88 330.25,-78.92 330.25,-75.96 330.25,-75.96 330.25,-70.04 330.25,-70.04 330.25,-67.08 333.21,-64.12 336.17,-64.12 336.17,-64.12 379.33,-64.12 379.33,-64.12 382.29,-64.12 385.25,-67.08 385.25,-70.04 385.25,-70.04 385.25,-75.96 385.25,-75.96 385.25,-78.92 382.29,-81.88 379.33,-81.88"/>
<text text-anchor="start" x="338.25" y="-69.33" font-family="Helvetica,sans-Serif" font-size="9.00" fill="gray">index.mjs</text>
</a>
</g>
</g>
<!-- src/config&#45;utl/extract&#45;depcruise&#45;config/index.mjs&#45;&gt;src/main/resolve&#45;options/normalize.mjs -->
<g id="edge8" class="edge">
<title>src/config&#45;utl/extract&#45;depcruise&#45;config/index.mjs&#45;&gt;src/main/resolve&#45;options/normalize.mjs</title>
<path fill="none" stroke="#000000" stroke-width="2" stroke-opacity="0.200000" d="M385.63,-76.88C414.09,-76.88 454.12,-76.88 454.12,-76.88 454.12,-76.88 454.12,-174.89 454.12,-174.89"/>
<polygon fill="#000000" fill-opacity="0.200000" stroke="#000000" stroke-width="2" stroke-opacity="0.200000" points="452.03,-174.89 454.12,-180.89 456.23,-174.89 452.03,-174.89"/>
</g>
<!-- src/main/resolve&#45;options/normalize.mjs&#45;&gt;src/extract/transpile/meta.mjs -->
<g id="edge39" class="edge">
<title>src/main/resolve&#45;options/normalize.mjs&#45;&gt;src/extract/transpile/meta.mjs</title>
<path fill="none" stroke="#000000" stroke-width="2" stroke-opacity="0.200000" d="M523.72,-190.04C527.58,-190.04 530.12,-190.04 530.12,-190.04 530.12,-190.04 530.12,-576.04 530.12,-576.04 530.12,-576.04 570.92,-576.04 570.92,-576.04"/>
<polygon fill="#000000" fill-opacity="0.200000" stroke="#000000" stroke-width="2" stroke-opacity="0.200000" points="570.92,-578.14 576.92,-576.04 570.92,-573.94 570.92,-578.14"/>
</g>
<!-- src/graph&#45;utl/rule&#45;set.mjs -->
<g id="node18" class="node">
<title>src/graph&#45;utl/rule&#45;set.mjs</title>
<g id="a_node18"><a xlink:href="src/graph-utl/rule-set.mjs" xlink:title="rule&#45;set.mjs">
<path fill="lightgray" stroke="black" d="M869.96,-41.88C869.96,-41.88 818.54,-41.88 818.54,-41.88 815.58,-41.88 812.62,-38.92 812.62,-35.96 812.62,-35.96 812.62,-30.04 812.62,-30.04 812.62,-27.08 815.58,-24.12 818.54,-24.12 818.54,-24.12 869.96,-24.12 869.96,-24.12 872.92,-24.12 875.88,-27.08 875.88,-30.04 875.88,-30.04 875.88,-35.96 875.88,-35.96 875.88,-38.92 872.92,-41.88 869.96,-41.88"/>
<text text-anchor="start" x="820.62" y="-29.32" font-family="Helvetica,sans-Serif" font-size="9.00" fill="gray">rule&#45;set.mjs</text>
</a>
</g>
</g>
<!-- src/main/resolve&#45;options/normalize.mjs&#45;&gt;src/graph&#45;utl/rule&#45;set.mjs -->
<g id="edge40" class="edge">
<title>src/main/resolve&#45;options/normalize.mjs&#45;&gt;src/graph&#45;utl/rule&#45;set.mjs</title>
<path fill="none" stroke="#000000" stroke-width="2" stroke-opacity="0.200000" d="M523.62,-195.96C598.24,-195.96 760.12,-195.96 760.12,-195.96 760.12,-195.96 760.12,-33 760.12,-33 760.12,-33 803.45,-33 803.45,-33"/>
<polygon fill="#000000" fill-opacity="0.200000" stroke="#000000" stroke-width="2" stroke-opacity="0.200000" points="803.45,-35.1 809.45,-33 803.45,-30.9 803.45,-35.1"/>
</g>
<!-- src/enrich/summarize/index.mjs -->
<g id="node13" class="node">
<title>src/enrich/summarize/index.mjs</title>
<g id="a_node13"><a xlink:href="src/enrich/summarize/index.mjs" xlink:title="index.mjs">
<path fill="lightgray" stroke="black" d="M740.58,-483.88C740.58,-483.88 697.42,-483.88 697.42,-483.88 694.46,-483.88 691.5,-480.92 691.5,-477.96 691.5,-477.96 691.5,-472.04 691.5,-472.04 691.5,-469.08 694.46,-466.12 697.42,-466.12 697.42,-466.12 740.58,-466.12 740.58,-466.12 743.54,-466.12 746.5,-469.08 746.5,-472.04 746.5,-472.04 746.5,-477.96 746.5,-477.96 746.5,-480.92 743.54,-483.88 740.58,-483.88"/>
<text text-anchor="start" x="699.5" y="-471.32" font-family="Helvetica,sans-Serif" font-size="9.00" fill="gray">index.mjs</text>
</a>
</g>
</g>
<!-- src/enrich/index.mjs&#45;&gt;src/enrich/summarize/index.mjs -->
<g id="edge9" class="edge">
<title>src/enrich/index.mjs&#45;&gt;src/enrich/summarize/index.mjs</title>
<path fill="none" stroke="#000000" stroke-width="2" stroke-opacity="0.200000" d="M635.25,-475.29C635.25,-475.29 682.09,-475.29 682.09,-475.29"/>
<polygon fill="#000000" fill-opacity="0.200000" stroke="#000000" stroke-width="2" stroke-opacity="0.200000" points="682.09,-477.39 688.09,-475.29 682.09,-473.19 682.09,-477.39"/>
</g>
<!-- src/graph&#45;utl/compare.mjs -->
<g id="node14" class="node">
<title>src/graph&#45;utl/compare.mjs</title>
<g id="a_node14"><a xlink:href="src/graph-utl/compare.mjs" xlink:title="compare.mjs">
<path fill="lightgray" stroke="black" d="M872.58,-161.88C872.58,-161.88 815.92,-161.88 815.92,-161.88 812.96,-161.88 810,-158.92 810,-155.96 810,-155.96 810,-150.04 810,-150.04 810,-147.08 812.96,-144.12 815.92,-144.12 815.92,-144.12 872.58,-144.12 872.58,-144.12 875.54,-144.12 878.5,-147.08 878.5,-150.04 878.5,-150.04 878.5,-155.96 878.5,-155.96 878.5,-158.92 875.54,-161.88 872.58,-161.88"/>
<text text-anchor="start" x="818" y="-149.32" font-family="Helvetica,sans-Serif" font-size="9.00" fill="gray">compare.mjs</text>
</a>
</g>
</g>
<!-- src/enrich/summarize/index.mjs&#45;&gt;src/graph&#45;utl/compare.mjs -->
<g id="edge10" class="edge">
<title>src/enrich/summarize/index.mjs&#45;&gt;src/graph&#45;utl/compare.mjs</title>
<path fill="none" stroke="#000000" stroke-width="2" stroke-opacity="0.200000" d="M746.99,-475C784.15,-475 845.12,-475 845.12,-475 845.12,-475 845.12,-171.29 845.12,-171.29"/>
<polygon fill="#000000" fill-opacity="0.200000" stroke="#000000" stroke-width="2" stroke-opacity="0.200000" points="847.23,-171.29 845.12,-165.29 843.03,-171.29 847.23,-171.29"/>
</g>
<!-- src/extract/index.mjs&#45;&gt;src/utl/bus.mjs -->
<g id="edge11" class="edge">
<title>src/extract/index.mjs&#45;&gt;src/utl/bus.mjs</title>
<path fill="none" stroke="#000000" stroke-width="2" stroke-opacity="0.200000" d="M608.12,-640.12C608.12,-641.72 608.12,-642.88 608.12,-642.88 608.12,-642.88 682.59,-642.88 682.59,-642.88"/>
<polygon fill="#000000" fill-opacity="0.200000" stroke="#000000" stroke-width="2" stroke-opacity="0.200000" points="682.59,-644.98 688.59,-642.88 682.59,-640.78 682.59,-644.98"/>
</g>
<!-- src/graph&#45;utl/consolidate&#45;to&#45;pattern.mjs -->
<g id="node16" class="node">
<title>src/graph&#45;utl/consolidate&#45;to&#45;pattern.mjs</title>
<g id="a_node16"><a xlink:href="src/graph-utl/consolidate-to-pattern.mjs" xlink:title="consolidate&#45;to&#45;pattern.mjs">
<path fill="lightgray" stroke="black" d="M899.21,-131.88C899.21,-131.88 789.29,-131.88 789.29,-131.88 786.33,-131.88 783.38,-128.92 783.38,-125.96 783.38,-125.96 783.38,-120.04 783.38,-120.04 783.38,-117.08 786.33,-114.12 789.29,-114.12 789.29,-114.12 899.21,-114.12 899.21,-114.12 902.17,-114.12 905.12,-117.08 905.12,-120.04 905.12,-120.04 905.12,-125.96 905.12,-125.96 905.12,-128.92 902.17,-131.88 899.21,-131.88"/>
<text text-anchor="start" x="791.38" y="-119.33" font-family="Helvetica,sans-Serif" font-size="9.00" fill="gray">consolidate&#45;to&#45;pattern.mjs</text>
</a>
</g>
</g>
<!-- src/graph&#45;utl/filter&#45;bank.mjs -->
<g id="node17" class="node">
<title>src/graph&#45;utl/filter&#45;bank.mjs</title>
<g id="a_node17"><a xlink:href="src/graph-utl/filter-bank.mjs" xlink:title="filter&#45;bank.mjs">
<path fill="lightgray" stroke="black" d="M874.83,-71.88C874.83,-71.88 813.67,-71.88 813.67,-71.88 810.71,-71.88 807.75,-68.92 807.75,-65.96 807.75,-65.96 807.75,-60.04 807.75,-60.04 807.75,-57.08 810.71,-54.12 813.67,-54.12 813.67,-54.12 874.83,-54.12 874.83,-54.12 877.79,-54.12 880.75,-57.08 880.75,-60.04 880.75,-60.04 880.75,-65.96 880.75,-65.96 880.75,-68.92 877.79,-71.88 874.83,-71.88"/>
<text text-anchor="start" x="815.75" y="-59.33" font-family="Helvetica,sans-Serif" font-size="9.00" fill="gray">filter&#45;bank.mjs</text>
</a>
</g>
</g>
<!-- src/graph&#45;utl/strip&#45;self&#45;transitions.mjs -->
<g id="node19" class="node">
<title>src/graph&#45;utl/strip&#45;self&#45;transitions.mjs</title>
<g id="a_node19"><a xlink:href="src/graph-utl/strip-self-transitions.mjs" xlink:title="strip&#45;self&#45;transitions.mjs">
<path fill="lightgray" stroke="black" d="M894.33,-101.88C894.33,-101.88 794.17,-101.88 794.17,-101.88 791.21,-101.88 788.25,-98.92 788.25,-95.96 788.25,-95.96 788.25,-90.04 788.25,-90.04 788.25,-87.08 791.21,-84.12 794.17,-84.12 794.17,-84.12 894.33,-84.12 894.33,-84.12 897.29,-84.12 900.25,-87.08 900.25,-90.04 900.25,-90.04 900.25,-95.96 900.25,-95.96 900.25,-98.92 897.29,-101.88 894.33,-101.88"/>
<text text-anchor="start" x="796.25" y="-89.33" font-family="Helvetica,sans-Serif" font-size="9.00" fill="gray">strip&#45;self&#45;transitions.mjs</text>
</a>
</g>
</g>
<!-- src/main/helpers.mjs -->
<g id="node27" class="node">
<title>src/main/helpers.mjs</title>
<g id="a_node27"><a xlink:href="src/main/helpers.mjs" xlink:title="helpers.mjs">
<path fill="lime" stroke="black" d="M744.71,-359.88C744.71,-359.88 693.29,-359.88 693.29,-359.88 690.33,-359.88 687.38,-356.92 687.38,-353.96 687.38,-353.96 687.38,-348.04 687.38,-348.04 687.38,-345.08 690.33,-342.12 693.29,-342.12 693.29,-342.12 744.71,-342.12 744.71,-342.12 747.67,-342.12 750.62,-345.08 750.62,-348.04 750.62,-348.04 750.62,-353.96 750.62,-353.96 750.62,-356.92 747.67,-359.88 744.71,-359.88"/>
<text text-anchor="start" x="695.38" y="-347.32" font-family="Helvetica,sans-Serif" font-size="9.00">helpers.mjs</text>
</a>
</g>
</g>
<!-- src/main/options/normalize.mjs&#45;&gt;src/main/helpers.mjs -->
<g id="edge30" class="edge">
<title>src/main/options/normalize.mjs&#45;&gt;src/main/helpers.mjs</title>
<path fill="none" stroke="#000000" stroke-width="2" stroke-opacity="0.200000" d="M644.31,-237.96C663.14,-237.96 682.12,-237.96 682.12,-237.96 682.12,-237.96 682.12,-349.23 682.12,-349.23 682.12,-349.23 682.61,-349.23 682.61,-349.23"/>
<polygon fill="#000000" fill-opacity="0.200000" stroke="#000000" stroke-width="2" stroke-opacity="0.200000" points="677.95,-351.33 683.95,-349.23 677.95,-347.13 677.95,-351.33"/>
</g>
<!-- src/main/options/defaults.mjs -->
<g id="node29" class="node">
<title>src/main/options/defaults.mjs</title>
<g id="a_node29"><a xlink:href="src/main/options/defaults.mjs" xlink:title="defaults.mjs">
<path fill="lime" stroke="black" d="M745.46,-243.88C745.46,-243.88 692.54,-243.88 692.54,-243.88 689.58,-243.88 686.62,-240.92 686.62,-237.96 686.62,-237.96 686.62,-232.04 686.62,-232.04 686.62,-229.08 689.58,-226.12 692.54,-226.12 692.54,-226.12 745.46,-226.12 745.46,-226.12 748.42,-226.12 751.38,-229.08 751.38,-232.04 751.38,-232.04 751.38,-237.96 751.38,-237.96 751.38,-240.92 748.42,-243.88 745.46,-243.88"/>
<text text-anchor="start" x="694.62" y="-231.32" font-family="Helvetica,sans-Serif" font-size="9.00">defaults.mjs</text>
</a>
</g>
</g>
<!-- src/main/options/normalize.mjs&#45;&gt;src/main/options/defaults.mjs -->
<g id="edge31" class="edge">
<title>src/main/options/normalize.mjs&#45;&gt;src/main/options/defaults.mjs</title>
<path fill="none" stroke="#000000" stroke-width="2" stroke-opacity="0.200000" d="M644.23,-232.04C644.23,-232.04 677.31,-232.04 677.31,-232.04"/>
<polygon fill="#000000" fill-opacity="0.200000" stroke="#000000" stroke-width="2" stroke-opacity="0.200000" points="677.31,-234.14 683.31,-232.04 677.31,-229.94 677.31,-234.14"/>
</g>
<!-- src/report/index.mjs -->
<g id="node30" class="node">
<title>src/report/index.mjs</title>
<g id="a_node30"><a xlink:href="src/report/index.mjs" xlink:title="index.mjs">
<path fill="lightgray" stroke="black" d="M740.58,-107.88C740.58,-107.88 697.42,-107.88 697.42,-107.88 694.46,-107.88 691.5,-104.92 691.5,-101.96 691.5,-101.96 691.5,-96.04 691.5,-96.04 691.5,-93.08 694.46,-90.12 697.42,-90.12 697.42,-90.12 740.58,-90.12 740.58,-90.12 743.54,-90.12 746.5,-93.08 746.5,-96.04 746.5,-96.04 746.5,-101.96 746.5,-101.96 746.5,-104.92 743.54,-107.88 740.58,-107.88"/>
<text text-anchor="start" x="699.5" y="-95.33" font-family="Helvetica,sans-Serif" font-size="9.00" fill="gray">index.mjs</text>
</a>
</g>
</g>
<!-- src/main/options/validate.mjs&#45;&gt;src/report/index.mjs -->
<g id="edge32" class="edge">
<title>src/main/options/validate.mjs&#45;&gt;src/report/index.mjs</title>
<path fill="none" stroke="#000000" stroke-width="2" stroke-opacity="0.200000" d="M640.21,-265C658.3,-265 677.12,-265 677.12,-265 677.12,-265 677.12,-99 677.12,-99 677.12,-99 682.3,-99 682.3,-99"/>
<polygon fill="#000000" fill-opacity="0.200000" stroke="#000000" stroke-width="2" stroke-opacity="0.200000" points="682.3,-101.1 688.3,-99 682.3,-96.9 682.3,-101.1"/>
</g>
<!-- src/main/report&#45;wrap.mjs&#45;&gt;src/enrich/summarize/index.mjs -->
<g id="edge33" class="edge">
<title>src/main/report&#45;wrap.mjs&#45;&gt;src/enrich/summarize/index.mjs</title>
<path fill="none" stroke="#000000" stroke-width="2" stroke-opacity="0.200000" d="M620.12,-168.13C620.12,-170.93 620.12,-173.29 620.12,-173.29 620.12,-173.29 673.12,-173.29 673.12,-173.29 673.12,-173.29 673.12,-470.71 673.12,-470.71 673.12,-470.71 682.26,-470.71 682.26,-470.71"/>
<polygon fill="#000000" fill-opacity="0.200000" stroke="#000000" stroke-width="2" stroke-opacity="0.200000" points="682.26,-472.81 688.26,-470.71 682.26,-468.61 682.26,-472.81"/>
</g>
<!-- src/main/report&#45;wrap.mjs&#45;&gt;src/graph&#45;utl/compare.mjs -->
<g id="edge34" class="edge">
<title>src/main/report&#45;wrap.mjs&#45;&gt;src/graph&#45;utl/compare.mjs</title>
<path fill="none" stroke="#000000" stroke-width="2" stroke-opacity="0.200000" d="M647.56,-159.92C647.56,-159.92 800.66,-159.92 800.66,-159.92"/>
<polygon fill="#000000" fill-opacity="0.200000" stroke="#000000" stroke-width="2" stroke-opacity="0.200000" points="800.66,-162.02 806.66,-159.92 800.66,-157.82 800.66,-162.02"/>
</g>
<!-- src/main/report&#45;wrap.mjs&#45;&gt;src/graph&#45;utl/consolidate&#45;to&#45;pattern.mjs -->
<g id="edge35" class="edge">
<title>src/main/report&#45;wrap.mjs&#45;&gt;src/graph&#45;utl/consolidate&#45;to&#45;pattern.mjs</title>
<path fill="none" stroke="#000000" stroke-width="2" stroke-opacity="0.200000" d="M647.62,-157.96C703.32,-157.96 797.12,-157.96 797.12,-157.96 797.12,-157.96 797.12,-141.18 797.12,-141.18"/>
<polygon fill="#000000" fill-opacity="0.200000" stroke="#000000" stroke-width="2" stroke-opacity="0.200000" points="799.23,-141.18 797.12,-135.18 795.03,-141.18 799.23,-141.18"/>
</g>
<!-- src/main/report&#45;wrap.mjs&#45;&gt;src/graph&#45;utl/filter&#45;bank.mjs -->
<g id="edge36" class="edge">
<title>src/main/report&#45;wrap.mjs&#45;&gt;src/graph&#45;utl/filter&#45;bank.mjs</title>
<path fill="none" stroke="#000000" stroke-width="2" stroke-opacity="0.200000" d="M647.52,-154.04C695.14,-154.04 768.12,-154.04 768.12,-154.04 768.12,-154.04 768.12,-63 768.12,-63 768.12,-63 798.53,-63 798.53,-63"/>
<polygon fill="#000000" fill-opacity="0.200000" stroke="#000000" stroke-width="2" stroke-opacity="0.200000" points="798.53,-65.1 804.53,-63 798.53,-60.9 798.53,-65.1"/>
</g>
<!-- src/main/report&#45;wrap.mjs&#45;&gt;src/graph&#45;utl/strip&#45;self&#45;transitions.mjs -->
<g id="edge37" class="edge">
<title>src/main/report&#45;wrap.mjs&#45;&gt;src/graph&#45;utl/strip&#45;self&#45;transitions.mjs</title>
<path fill="none" stroke="#000000" stroke-width="2" stroke-opacity="0.200000" d="M647.37,-156C697.27,-156 776.12,-156 776.12,-156 776.12,-156 776.12,-96 776.12,-96 776.12,-96 778.99,-96 778.99,-96"/>
<polygon fill="#000000" fill-opacity="0.200000" stroke="#000000" stroke-width="2" stroke-opacity="0.200000" points="778.99,-98.1 784.99,-96 778.99,-93.9 778.99,-98.1"/>
</g>
<!-- src/main/report&#45;wrap.mjs&#45;&gt;src/report/index.mjs -->
<g id="edge38" class="edge">
<title>src/main/report&#45;wrap.mjs&#45;&gt;src/report/index.mjs</title>
<path fill="none" stroke="#000000" stroke-width="2" stroke-opacity="0.200000" d="M647.72,-152.08C679.73,-152.08 719.12,-152.08 719.12,-152.08 719.12,-152.08 719.12,-117.25 719.12,-117.25"/>
<polygon fill="#000000" fill-opacity="0.200000" stroke="#000000" stroke-width="2" stroke-opacity="0.200000" points="721.23,-117.25 719.12,-111.25 717.03,-117.25 721.23,-117.25"/>
</g>
<!-- src/main/rule&#45;set/normalize.mjs&#45;&gt;src/main/helpers.mjs -->
<g id="edge41" class="edge">
<title>src/main/rule&#45;set/normalize.mjs&#45;&gt;src/main/helpers.mjs</title>
<path fill="none" stroke="#000000" stroke-width="2" stroke-opacity="0.200000" d="M523.57,-381C589.09,-381 719.12,-381 719.12,-381 719.12,-381 719.12,-369.16 719.12,-369.16"/>
<polygon fill="#000000" fill-opacity="0.200000" stroke="#000000" stroke-width="2" stroke-opacity="0.200000" points="721.23,-369.16 719.12,-363.16 717.03,-369.16 721.23,-369.16"/>
</g>
<!-- src/main/rule&#45;set/validate.mjs&#45;&gt;src/main/options/validate.mjs -->
<g id="edge44" class="edge">
<title>src/main/rule&#45;set/validate.mjs&#45;&gt;src/main/options/validate.mjs</title>
<path fill="none" stroke="#000000" stroke-width="2" stroke-opacity="0.200000" d="M519.6,-352.77C555.54,-352.77 608.12,-352.77 608.12,-352.77 608.12,-352.77 608.12,-283.06 608.12,-283.06"/>
<polygon fill="#000000" fill-opacity="0.200000" stroke="#000000" stroke-width="2" stroke-opacity="0.200000" points="610.23,-283.06 608.12,-277.06 606.03,-283.06 610.23,-283.06"/>
</g>
<!-- src/main/rule&#45;set/validate.mjs&#45;&gt;src/main/helpers.mjs -->
<g id="edge43" class="edge">
<title>src/main/rule&#45;set/validate.mjs&#45;&gt;src/main/helpers.mjs</title>
<path fill="none" stroke="#000000" stroke-width="2" stroke-opacity="0.200000" d="M519.53,-356.32C519.53,-356.32 678.13,-356.32 678.13,-356.32"/>
<polygon fill="#000000" fill-opacity="0.200000" stroke="#000000" stroke-width="2" stroke-opacity="0.200000" points="678.13,-358.43 684.13,-356.32 678.13,-354.23 678.13,-358.43"/>
</g>
<!-- src/schema/configuration.schema.mjs -->
<g id="node31" class="node">
<title>src/schema/configuration.schema.mjs</title>
<g id="a_node31"><a xlink:href="src/schema/configuration.schema.mjs" xlink:title="configuration.schema.mjs">
<path fill="lightgray" stroke="black" d="M661.58,-71.88C661.58,-71.88 553.17,-71.88 553.17,-71.88 550.21,-71.88 547.25,-68.92 547.25,-65.96 547.25,-65.96 547.25,-60.04 547.25,-60.04 547.25,-57.08 550.21,-54.12 553.17,-54.12 553.17,-54.12 661.58,-54.12 661.58,-54.12 664.54,-54.12 667.5,-57.08 667.5,-60.04 667.5,-60.04 667.5,-65.96 667.5,-65.96 667.5,-68.92 664.54,-71.88 661.58,-71.88"/>
<text text-anchor="start" x="555.25" y="-59.33" font-family="Helvetica,sans-Serif" font-size="9.00" fill="gray">configuration.schema.mjs</text>
</a>
</g>
</g>
<!-- src/main/rule&#45;set/validate.mjs&#45;&gt;src/schema/configuration.schema.mjs -->
<g id="edge42" class="edge">
<title>src/main/rule&#45;set/validate.mjs&#45;&gt;src/schema/configuration.schema.mjs</title>
<path fill="none" stroke="#000000" stroke-width="2" stroke-opacity="0.200000" d="M519.51,-345.68C538.28,-345.68 558.12,-345.68 558.12,-345.68 558.12,-345.68 558.12,-81.08 558.12,-81.08"/>
<polygon fill="#000000" fill-opacity="0.200000" stroke="#000000" stroke-width="2" stroke-opacity="0.200000" points="560.23,-81.08 558.12,-75.08 556.03,-81.08 560.23,-81.08"/>
</g>
<!-- src/main/index.d.ts -->
<g id="node28" class="node">
<title>src/main/index.d.ts</title>
<g id="a_node28"><a xlink:href="src/main/index.d.ts" xlink:title="index.d.ts">
<path fill="lime" stroke="black" d="M267.33,-355.88C267.33,-355.88 224.17,-355.88 224.17,-355.88 221.21,-355.88 218.25,-352.92 218.25,-349.96 218.25,-349.96 218.25,-344.04 218.25,-344.04 218.25,-341.08 221.21,-338.12 224.17,-338.12 224.17,-338.12 267.33,-338.12 267.33,-338.12 270.29,-338.12 273.25,-341.08 273.25,-344.04 273.25,-344.04 273.25,-349.96 273.25,-349.96 273.25,-352.92 270.29,-355.88 267.33,-355.88"/>
<text text-anchor="start" x="226.25" y="-343.32" font-family="Helvetica,sans-Serif" font-size="9.00">index.d.ts</text>
</a>
</g>
</g>
</g>
</svg>
