<svg xmlns="http://www.w3.org/2000/svg" xmlns:xlink="http://www.w3.org/1999/xlink" width="953pt" height="718pt" viewBox="0 0 952.88 718"><g class="graph" transform="translate(4 714)"><path fill="#fff" d="M-4 4v-718h952.88V4z"/><g class="cluster"><path fill="#fff" stroke="#000" stroke-width="2" d="M20-8h904.88c6 0 12-6 12-12v-670c0-6-6-12-12-12H20c-6 0-12 6-12 12v670c0 6 6 12 12 12"/><text x="472.44" y="-689.45" font-family="Helvetica,sans-Serif" font-size="9" font-weight="bold" text-anchor="middle">src</text></g><g class="cluster"><path fill="#fff" stroke="#000" stroke-width="2" d="M470-530h49.25c6 0 12-6 12-12v-28c0-6-6-12-12-12H470c-6 0-12 6-12 12v28c0 6 6 12 12 12"/><text x="494.62" y="-569.45" font-family="Helvetica,sans-Serif" font-size="9" font-weight="bold" text-anchor="middle">cache</text></g><g class="cluster"><path fill="#fff" stroke="#000" stroke-width="2" d="M28-376h162.25c6 0 12-6 12-12v-58c0-6-6-12-12-12H28c-6 0-12 6-12 12v58c0 6 6 12 12 12"/><text x="109.12" y="-445.45" font-family="Helvetica,sans-Serif" font-size="9" font-weight="bold" text-anchor="middle">cli</text></g><g class="cluster"><path fill="#fff" stroke="#000" stroke-width="2" d="M301.25-124h113c6 0 12-6 12-12v-62c0-6-6-12-12-12h-113c-6 0-12 6-12 12v62c0 6 6 12 12 12"/><text x="357.75" y="-197.45" font-family="Helvetica,sans-Serif" font-size="9" font-weight="bold" text-anchor="middle">config-utl</text></g><g class="cluster"><path fill="#fff" stroke="#000" stroke-width="2" d="M309.25-132h97c6 0 12-6 12-12v-28c0-6-6-12-12-12h-97c-6 0-12 6-12 12v28c0 6 6 12 12 12"/><text x="357.75" y="-171.45" font-family="Helvetica,sans-Serif" font-size="9" font-weight="bold" text-anchor="middle">extract-depcruise-config</text></g><g class="cluster"><path fill="#fff" stroke="#000" stroke-width="2" d="M599.62-26h166.63c6 0 12-6 12-12v-62c0-6-6-12-12-12H599.62c-6 0-12 6-12 12v62c0 6 6 12 12 12"/><text x="682.94" y="-99.45" font-family="Helvetica,sans-Serif" font-size="9" font-weight="bold" text-anchor="middle">enrich</text></g><g class="cluster"><path fill="#fff" stroke="#000" stroke-width="2" d="M711.25-34h47c6 0 12-6 12-12v-28c0-6-6-12-12-12h-47c-6 0-12 6-12 12v28c0 6 6 12 12 12"/><text x="734.75" y="-73.45" font-family="Helvetica,sans-Serif" font-size="9" font-weight="bold" text-anchor="middle">summarize</text></g><g class="cluster"><path fill="#fff" stroke="#000" stroke-width="2" d="M592.12-540h62c6 0 12-6 12-12v-88c0-6-6-12-12-12h-62c-6 0-12 6-12 12v88c0 6 6 12 12 12"/><text x="623.12" y="-639.45" font-family="Helvetica,sans-Serif" font-size="9" font-weight="bold" text-anchor="middle">extract</text></g><g class="cluster"><path fill="#fff" stroke="#000" stroke-width="2" d="M600.12-548h46c6 0 12-6 12-12v-28c0-6-6-12-12-12h-46c-6 0-12 6-12 12v28c0 6 6 12 12 12"/><text x="623.12" y="-587.45" font-family="Helvetica,sans-Serif" font-size="9" font-weight="bold" text-anchor="middle">transpile</text></g><g class="cluster"><path fill="#fff" stroke="#000" stroke-width="2" d="M803.12-22h113.76c6 0 12-6 12-12v-148c0-6-6-12-12-12H803.12c-6 0-12 6-12 12v148c0 6 6 12 12 12"/><text x="860" y="-181.45" font-family="Helvetica,sans-Serif" font-size="9" font-weight="bold" text-anchor="middle">graph-utl</text></g><g class="cluster"><path fill="#fff" stroke="#000" stroke-width="2" d="M222.25-218h548.87c6 0 12-6 12-12v-280c0-6-6-12-12-12H222.25c-6 0-12 6-12 12v280c0 6 6 12 12 12"/><text x="496.69" y="-509.45" font-family="Helvetica,sans-Serif" font-size="9" font-weight="bold" text-anchor="middle">main</text></g><g class="cluster"><path fill="#fff" stroke="#000" stroke-width="2" d="M462.12-354h65c6 0 12-6 12-12v-28c0-6-6-12-12-12h-65c-6 0-12 6-12 12v28c0 6 6 12 12 12"/><text x="494.62" y="-393.45" font-family="Helvetica,sans-Serif" font-size="9" font-weight="bold" text-anchor="middle">files-and-dirs</text></g><g class="cluster"><path fill="#fff" stroke="#000" stroke-width="2" d="M582.75-306h180.37c6 0 12-6 12-12v-58c0-6-6-12-12-12H582.75c-6 0-12 6-12 12v58c0 6 6 12 12 12"/><text x="672.94" y="-375.45" font-family="Helvetica,sans-Serif" font-size="9" font-weight="bold" text-anchor="middle">options</text></g><g class="cluster"><path fill="#fff" stroke="#000" stroke-width="2" d="M462.12-226h65c6 0 12-6 12-12v-28c0-6-6-12-12-12h-65c-6 0-12 6-12 12v28c0 6 6 12 12 12"/><text x="494.62" y="-265.45" font-family="Helvetica,sans-Serif" font-size="9" font-weight="bold" text-anchor="middle">resolve-options</text></g><g class="cluster"><path fill="#fff" stroke="#000" stroke-width="2" d="M454.25-414H535c6 0 12-6 12-12v-58c0-6-6-12-12-12h-80.75c-6 0-12 6-12 12v58c0 6 6 12 12 12"/><text x="494.62" y="-483.45" font-family="Helvetica,sans-Serif" font-size="9" font-weight="bold" text-anchor="middle">rule-set</text></g><g class="cluster"><path fill="#fff" stroke="#000" stroke-width="2" d="M711.25-158h47c6 0 12-6 12-12v-28c0-6-6-12-12-12h-47c-6 0-12 6-12 12v28c0 6 6 12 12 12"/><text x="734.75" y="-197.45" font-family="Helvetica,sans-Serif" font-size="9" font-weight="bold" text-anchor="middle">report</text></g><g class="cluster"><path fill="#fff" stroke="#000" stroke-width="2" d="M567-128h112.25c6 0 12-6 12-12v-58c0-6-6-12-12-12H567c-6 0-12 6-12 12v58c0 6 6 12 12 12"/><text x="623.12" y="-197.45" font-family="Helvetica,sans-Serif" font-size="9" font-weight="bold" text-anchor="middle">schema</text></g><g class="cluster"><path fill="#fff" stroke="#000" stroke-width="2" d="M827.88-442h64.24c6 0 12-6 12-12v-88c0-6-6-12-12-12h-64.24c-6 0-12 6-12 12v88c0 6 6 12 12 12"/><text x="860" y="-541.45" font-family="Helvetica,sans-Serif" font-size="9" font-weight="bold" text-anchor="middle">utl</text></g><g class="node"><a xlink:href="src/cache/cache.mjs" xlink:title="cache.mjs"><path fill="#ffc" stroke="#000" d="M517.33-555.88h-45.41c-2.96 0-5.92 2.96-5.92 5.92v5.92c0 2.96 2.96 5.92 5.92 5.92h45.41c2.96 0 5.92-2.96 5.92-5.92v-5.92c0-2.96-2.96-5.92-5.92-5.92"/><text x="474" y="-543.33" font-family="Helvetica,sans-Serif" font-size="9">cache.mjs</text></a></g><g class="node"><a xlink:href="src/extract/transpile/meta.mjs" xlink:title="meta.mjs"><path fill="#ffc" stroke="#000" d="M644.21-573.88h-42.17c-2.96 0-5.92 2.96-5.92 5.92v5.92c0 2.96 2.96 5.92 5.92 5.92h42.17c2.96 0 5.91-2.96 5.91-5.92v-5.92c0-2.96-2.95-5.92-5.91-5.92"/><text x="604.75" y="-561.33" font-family="Helvetica,sans-Serif" font-size="9">meta.mjs</text></a></g><g class="edge"><path fill="none" stroke="#000" stroke-opacity=".2" stroke-width="2" d="M523.73-549.96h91.15v-.58"/><path fill-opacity=".2" stroke="#000" stroke-opacity=".2" stroke-width="2" d="m612.78-546.7 2.1-6 2.1 6z"/></g><g class="node"><a xlink:href="src/utl/bus.mjs" xlink:title="bus.mjs"><path fill="#ffc" stroke="#000" d="M881.08-527.88h-42.16c-2.96 0-5.92 2.96-5.92 5.92v5.92c0 2.96 2.96 5.92 5.92 5.92h42.16c2.96 0 5.92-2.96 5.92-5.92v-5.92c0-2.96-2.96-5.92-5.92-5.92"/><text x="844.25" y="-515.33" font-family="Helvetica,sans-Serif" font-size="9">bus.mjs</text></a></g><g class="edge"><path fill="none" stroke="#000" stroke-opacity=".2" stroke-width="2" d="M523.56-544.04h328.32v6.69"/><path fill-opacity=".2" stroke="#000" stroke-opacity=".2" stroke-width="2" d="m853.98-537.35-2.1 6-2.1-6z"/></g><g class="node"><a xlink:href="src/cli/format-meta-info.mjs" xlink:title="format-meta-info.mjs"><path fill="#ffc" stroke="#000" d="M188.33-431.88h-87.41c-2.96 0-5.92 2.96-5.92 5.92v5.92c0 2.96 2.96 5.92 5.92 5.92h87.41c2.96 0 5.92-2.96 5.92-5.92v-5.92c0-2.96-2.96-5.92-5.92-5.92"/><text x="103" y="-419.32" font-family="Helvetica,sans-Serif" font-size="9">format-meta-info.mjs</text></a></g><g class="node"><a xlink:href="src/main/index.mjs" xlink:title="index.mjs"><path fill="#0f0" stroke="#000" d="M267.33-431.88h-43.16c-2.96 0-5.92 2.96-5.92 5.92v5.92c0 2.96 2.96 5.92 5.92 5.92h43.16c2.96 0 5.92-2.96 5.92-5.92v-5.92c0-2.96-2.96-5.92-5.92-5.92"/><text x="226.25" y="-419.32" font-family="Helvetica,sans-Serif" font-size="9">index.mjs</text></a></g><g class="edge"><path fill="none" stroke="#000" stroke-opacity=".2" stroke-width="2" d="M194.59-423h14.4"/><path fill-opacity=".2" stroke="#000" stroke-opacity=".2" stroke-width="2" d="m208.99-425.1 6 2.1-6 2.1z"/></g><g class="edge"><path fill="none" stroke="#000" stroke-opacity=".2" stroke-width="2" d="M273.59-418.12h359.29v-128.67"/><path fill-opacity=".2" stroke="#000" stroke-opacity=".2" stroke-width="2" d="m630.78-546.79 2.1-6 2.1 6z"/></g><g class="node"><a xlink:href="src/main/format.mjs" xlink:title="format.mjs"><path fill="#0f0" stroke="#000" d="M517.71-303.88h-46.17c-2.96 0-5.92 2.96-5.92 5.92v5.92c0 2.96 2.96 5.92 5.92 5.92h46.17c2.96 0 5.91-2.96 5.91-5.92v-5.92c0-2.96-2.95-5.92-5.91-5.92"/><text x="473.62" y="-291.32" font-family="Helvetica,sans-Serif" font-size="9">format.mjs</text></a></g><g class="edge"><path fill="none" stroke="#000" stroke-opacity=".2" stroke-width="2" d="M236.88-414.01v116.05h219.65"/><path fill-opacity=".2" stroke="#000" stroke-opacity=".2" stroke-width="2" d="m456.53-300.06 6 2.1-6 2.1z"/></g><g class="node"><a xlink:href="src/main/cruise.mjs" xlink:title="cruise.mjs"><path fill="#0f0" stroke="#000" d="M380.46-409.88h-45.42c-2.96 0-5.92 2.96-5.92 5.92v5.92c0 2.96 2.96 5.92 5.92 5.92h45.42c2.96 0 5.92-2.96 5.92-5.92v-5.92c0-2.96-2.96-5.92-5.92-5.92"/><text x="337.12" y="-397.32" font-family="Helvetica,sans-Serif" font-size="9">cruise.mjs</text></a></g><g class="edge"><path fill="none" stroke="#000" stroke-opacity=".2" stroke-width="2" d="M255.88-413.63v6.42h63.92"/><path fill-opacity=".2" stroke="#000" stroke-opacity=".2" stroke-width="2" d="m319.8-409.31 6 2.1-6 2.1z"/></g><g class="node"><a xlink:href="src/cli/format.mjs" xlink:title="format.mjs"><path fill="#ffc" stroke="#000" d="M76.08-401.88H29.92c-2.96 0-5.92 2.96-5.92 5.92v5.92c0 2.96 2.96 5.92 5.92 5.92h46.16c2.96 0 5.92-2.96 5.92-5.92v-5.92c0-2.96-2.96-5.92-5.92-5.92"/><text x="32" y="-389.32" font-family="Helvetica,sans-Serif" font-size="9">format.mjs</text></a></g><g class="edge"><path fill="none" stroke="#000" stroke-opacity=".2" stroke-width="2" d="M53.88-383.68v91.64h402.46"/><path fill-opacity=".2" stroke="#000" stroke-opacity=".2" stroke-width="2" d="m456.34-294.14 6 2.1-6 2.1z"/></g><g class="node"><a xlink:href="src/main/options/assert-validity.mjs" xlink:title="assert-validity.mjs"><path fill="#0f0" stroke="#000" d="M661.58-331.88h-76.91c-2.96 0-5.92 2.96-5.92 5.92v5.92c0 2.96 2.96 5.92 5.92 5.92h76.91c2.96 0 5.92-2.96 5.92-5.92v-5.92c0-2.96-2.96-5.92-5.92-5.92"/><text x="586.75" y="-319.32" font-family="Helvetica,sans-Serif" font-size="9">assert-validity.mjs</text></a></g><g class="edge"><path fill="none" stroke="#000" stroke-opacity=".2" stroke-width="2" d="M504.88-304.32v-15.72h64.51"/><path fill-opacity=".2" stroke="#000" stroke-opacity=".2" stroke-width="2" d="m569.39-322.14 6 2.1-6 2.1z"/></g><g class="node"><a xlink:href="src/main/options/normalize.mjs" xlink:title="normalize.mjs"><path fill="#0f0" stroke="#000" d="M653.71-361.88h-61.17c-2.96 0-5.92 2.96-5.92 5.92v5.92c0 2.96 2.96 5.92 5.92 5.92h61.17c2.96 0 5.91-2.96 5.91-5.92v-5.92c0-2.96-2.95-5.92-5.91-5.92"/><text x="594.62" y="-349.32" font-family="Helvetica,sans-Serif" font-size="9">normalize.mjs</text></a></g><g class="edge"><path fill="none" stroke="#000" stroke-opacity=".2" stroke-width="2" d="M485.88-304.32V-353h91.44"/><path fill-opacity=".2" stroke="#000" stroke-opacity=".2" stroke-width="2" d="m577.32-355.1 6 2.1-6 2.1z"/></g><g class="node"><a xlink:href="src/main/report-wrap.mjs" xlink:title="report-wrap.mjs"><path fill="#0f0" stroke="#000" d="M657.08-243.88h-67.91c-2.96 0-5.92 2.96-5.92 5.92v5.92c0 2.96 2.96 5.92 5.92 5.92h67.91c2.96 0 5.92-2.96 5.92-5.92v-5.92c0-2.96-2.96-5.92-5.92-5.92"/><text x="591.25" y="-231.32" font-family="Helvetica,sans-Serif" font-size="9">report-wrap.mjs</text></a></g><g class="edge"><path fill="none" stroke="#000" stroke-opacity=".2" stroke-width="2" d="M523.95-297.96h99.93v44.64"/><path fill-opacity=".2" stroke="#000" stroke-opacity=".2" stroke-width="2" d="m625.98-253.32-2.1 6-2.1-6z"/></g><g class="node"><a xlink:href="src/schema/cruise-result.schema.mjs" xlink:title="cruise-result.schema.mjs"><path fill="#ffc" stroke="#000" d="M675.83-153.88H570.42c-2.96 0-5.92 2.96-5.92 5.92v5.92c0 2.96 2.96 5.92 5.92 5.92h105.41c2.96 0 5.92-2.96 5.92-5.92v-5.92c0-2.96-2.96-5.92-5.92-5.92"/><text x="572.5" y="-141.32" font-family="Helvetica,sans-Serif" font-size="9">cruise-result.schema.mjs</text></a></g><g class="edge"><path fill="none" stroke="#000" stroke-opacity=".2" stroke-width="2" d="M524.03-292.04h33.85V-147h.64"/><path fill-opacity=".2" stroke="#000" stroke-opacity=".2" stroke-width="2" d="m555.34-149.1 6 2.1-6 2.1z"/></g><g class="node"><a xlink:href="src/cli/index.mjs" xlink:title="index.mjs"><path fill="#ffc" stroke="#000" d="M74.58-431.88H31.42c-2.96 0-5.92 2.96-5.92 5.92v5.92c0 2.96 2.96 5.92 5.92 5.92h43.16c2.96 0 5.92-2.96 5.92-5.92v-5.92c0-2.96-2.96-5.92-5.92-5.92"/><text x="33.5" y="-419.32" font-family="Helvetica,sans-Serif" font-size="9">index.mjs</text></a></g><g class="edge"><path fill="none" stroke="#000" stroke-opacity=".2" stroke-width="2" d="M43.88-432.13v-89.83h779.94"/><path fill-opacity=".2" stroke="#000" stroke-opacity=".2" stroke-width="2" d="m823.82-524.06 6 2.1-6 2.1z"/></g><g class="edge"><path fill="none" stroke="#000" stroke-dasharray="5,2" stroke-opacity=".2" stroke-width="2" d="M80.99-423h4.82"/><path fill-opacity=".2" stroke="#000" stroke-opacity=".2" stroke-width="2" d="m85.81-425.1 6 2.1-6 2.1z"/></g><g class="edge"><path fill="none" stroke="#000" stroke-opacity=".2" stroke-width="2" d="M53.88-413.77v9.23h265.98"/><path fill-opacity=".2" stroke="#000" stroke-opacity=".2" stroke-width="2" d="m319.86-406.64 6 2.1-6 2.1z"/></g><g class="node"><a xlink:href="src/utl/object-util.mjs" xlink:title="object-util.mjs"><path fill="#ffc" stroke="#000" d="M890.21-497.88h-60.42c-2.96 0-5.91 2.96-5.91 5.92v5.92c0 2.96 2.95 5.92 5.91 5.92h60.42c2.96 0 5.91-2.96 5.91-5.92v-5.92c0-2.96-2.95-5.92-5.91-5.92"/><text x="831.88" y="-485.32" font-family="Helvetica,sans-Serif" font-size="9">object-util.mjs</text></a></g><g class="edge"><path fill="none" stroke="#000" stroke-opacity=".2" stroke-width="2" d="M62.88-432.21v-61.23h751.51"/><path fill-opacity=".2" stroke="#000" stroke-opacity=".2" stroke-width="2" d="m814.39-495.54 6 2.1-6 2.1z"/></g><g class="edge"><path fill="none" stroke="#000" stroke-dasharray="5,2" stroke-opacity=".2" stroke-width="2" d="M352.88-410.13V-547h103.69"/><path fill-opacity=".2" stroke="#000" stroke-opacity=".2" stroke-width="2" d="m456.57-549.1 6 2.1-6 2.1z"/></g><g class="edge"><path fill="none" stroke="#000" stroke-opacity=".2" stroke-width="2" d="M363.88-410.03v-106.01h459.71"/><path fill-opacity=".2" stroke="#000" stroke-opacity=".2" stroke-width="2" d="m823.59-518.14 6 2.1-6 2.1z"/></g><g class="node"><a xlink:href="src/main/resolve-options/normalize.mjs" xlink:title="normalize.mjs"><path fill="#0f0" stroke="#000" d="M525.21-251.88h-61.17c-2.96 0-5.92 2.96-5.92 5.92v5.92c0 2.96 2.96 5.92 5.92 5.92h61.17c2.96 0 5.91-2.96 5.91-5.92v-5.92c0-2.96-2.95-5.92-5.91-5.92"/><text x="466.12" y="-239.32" font-family="Helvetica,sans-Serif" font-size="9">normalize.mjs</text></a></g><g class="edge"><path fill="none" stroke="#000" stroke-dasharray="5,2" stroke-opacity=".2" stroke-width="2" d="M352.88-391.77v145.81h95.84"/><path fill-opacity=".2" stroke="#000" stroke-opacity=".2" stroke-width="2" d="m448.72-248.06 6 2.1-6 2.1z"/></g><g class="node"><a xlink:href="src/enrich/index.mjs" xlink:title="index.mjs"><path fill="#ffc" stroke="#000" d="M644.71-72.88h-43.17c-2.96 0-5.92 2.96-5.92 5.92v5.92c0 2.96 2.96 5.92 5.92 5.92h43.17c2.96 0 5.91-2.96 5.91-5.92v-5.92c0-2.96-2.95-5.92-5.91-5.92"/><text x="603.62" y="-60.33" font-family="Helvetica,sans-Serif" font-size="9">index.mjs</text></a></g><g class="edge"><path fill="none" stroke="#000" stroke-dasharray="5,2" stroke-opacity=".2" stroke-width="2" d="M386.73-395.68h159.15V-64h40.33"/><path fill-opacity=".2" stroke="#000" stroke-opacity=".2" stroke-width="2" d="m586.21-66.1 6 2.1-6 2.1z"/></g><g class="node"><a xlink:href="src/extract/index.mjs" xlink:title="index.mjs"><path fill="#ffc" stroke="#000" d="M644.71-625.88h-43.17c-2.96 0-5.92 2.96-5.92 5.92v5.92c0 2.96 2.96 5.92 5.92 5.92h43.17c2.96 0 5.91-2.96 5.91-5.92v-5.92c0-2.96-2.95-5.92-5.91-5.92"/><text x="603.62" y="-613.33" font-family="Helvetica,sans-Serif" font-size="9">index.mjs</text></a></g><g class="edge"><path fill="none" stroke="#000" stroke-dasharray="5,2" stroke-opacity=".2" stroke-width="2" d="M340.88-410.28V-617h245.38"/><path fill-opacity=".2" stroke="#000" stroke-opacity=".2" stroke-width="2" d="m586.26-619.1 6 2.1-6 2.1z"/></g><g class="node"><a xlink:href="src/main/files-and-dirs/normalize.mjs" xlink:title="normalize.mjs"><path fill="#0f0" stroke="#000" d="M525.21-379.88h-61.17c-2.96 0-5.92 2.96-5.92 5.92v5.92c0 2.96 2.96 5.92 5.92 5.92h61.17c2.96 0 5.91-2.96 5.91-5.92v-5.92c0-2.96-2.95-5.92-5.91-5.92"/><text x="466.12" y="-367.32" font-family="Helvetica,sans-Serif" font-size="9">normalize.mjs</text></a></g><g class="edge"><path fill="none" stroke="#000" stroke-dasharray="5,2" stroke-opacity=".2" stroke-width="2" d="M374.88-391.84V-371h73.81"/><path fill-opacity=".2" stroke="#000" stroke-opacity=".2" stroke-width="2" d="m448.69-373.1 6 2.1-6 2.1z"/></g><g class="edge"><path fill="none" stroke="#000" stroke-opacity=".2" stroke-width="2" d="M386.72-399.23h196.16v57.86"/><path fill-opacity=".2" stroke="#000" stroke-opacity=".2" stroke-width="2" d="m584.98-341.37-2.1 6-2.1-6z"/></g><g class="edge"><path fill="none" stroke="#000" stroke-opacity=".2" stroke-width="2" d="M386.46-402.77h205.42v31.61"/><path fill-opacity=".2" stroke="#000" stroke-opacity=".2" stroke-width="2" d="m593.98-371.16-2.1 6-2.1-6z"/></g><g class="edge"><path fill="none" stroke="#000" stroke-opacity=".2" stroke-width="2" d="M341.88-391.81v161.69H573.8"/><path fill-opacity=".2" stroke="#000" stroke-opacity=".2" stroke-width="2" d="m573.8-232.23 6 2.1-6 2.1z"/></g><g class="node"><a xlink:href="src/main/rule-set/assert-validity.mjs" xlink:title="assert-validity.mjs"><path fill="#0f0" stroke="#000" d="M533.08-439.88h-76.91c-2.96 0-5.92 2.96-5.92 5.92v5.92c0 2.96 2.96 5.92 5.92 5.92h76.91c2.96 0 5.92-2.96 5.92-5.92v-5.92c0-2.96-2.96-5.92-5.92-5.92"/><text x="458.25" y="-427.32" font-family="Helvetica,sans-Serif" font-size="9">assert-validity.mjs</text></a></g><g class="edge"><path fill="none" stroke="#000" stroke-dasharray="5,2" stroke-opacity=".2" stroke-width="2" d="M386.63-406.32h68.25v-6.46"/><path fill-opacity=".2" stroke="#000" stroke-opacity=".2" stroke-width="2" d="m452.78-412.78 2.1-6 2.1 6z"/></g><g class="node"><a xlink:href="src/main/rule-set/normalize.mjs" xlink:title="normalize.mjs"><path fill="#0f0" stroke="#000" d="M525.21-469.88h-61.17c-2.96 0-5.92 2.96-5.92 5.92v5.92c0 2.96 2.96 5.92 5.92 5.92h61.17c2.96 0 5.91-2.96 5.91-5.92v-5.92c0-2.96-2.95-5.92-5.91-5.92"/><text x="466.12" y="-457.32" font-family="Helvetica,sans-Serif" font-size="9">normalize.mjs</text></a></g><g class="edge"><path fill="none" stroke="#000" stroke-dasharray="5,2" stroke-opacity=".2" stroke-width="2" d="M375.88-410.19v-46.43h72.8"/><path fill-opacity=".2" stroke="#000" stroke-opacity=".2" stroke-width="2" d="m448.68-458.73 6 2.1-6 2.1z"/></g><g class="node"><a xlink:href="src/config-utl/extract-depcruise-config/index.mjs" xlink:title="index.mjs"><path fill="#ffc" stroke="#000" d="M379.33-157.88h-43.16c-2.96 0-5.92 2.96-5.92 5.92v5.92c0 2.96 2.96 5.92 5.92 5.92h43.16c2.96 0 5.92-2.96 5.92-5.92v-5.92c0-2.96-2.96-5.92-5.92-5.92"/><text x="338.25" y="-145.32" font-family="Helvetica,sans-Serif" font-size="9">index.mjs</text></a></g><g class="edge"><path fill="none" stroke="#000" stroke-opacity=".2" stroke-width="2" d="M363.88-158.06v-81.98h84.95"/><path fill-opacity=".2" stroke="#000" stroke-opacity=".2" stroke-width="2" d="m448.83-242.14 6 2.1-6 2.1z"/></g><g class="edge"><path fill="none" stroke="#000" stroke-opacity=".2" stroke-width="2" d="M531.53-247.88h20.35V-565h34.87"/><path fill-opacity=".2" stroke="#000" stroke-opacity=".2" stroke-width="2" d="m586.75-567.1 6 2.1-6 2.1z"/></g><g class="node"><a xlink:href="src/graph-utl/rule-set.mjs" xlink:title="rule-set.mjs"><path fill="#ffc" stroke="#000" d="M885.71-47.88h-51.42c-2.96 0-5.91 2.96-5.91 5.92v5.92c0 2.96 2.95 5.92 5.91 5.92h51.42c2.96 0 5.91-2.96 5.91-5.92v-5.92c0-2.96-2.95-5.92-5.91-5.92"/><text x="836.38" y="-35.33" font-family="Helvetica,sans-Serif" font-size="9">rule-set.mjs</text></a></g><g class="edge"><path fill="none" stroke="#000" stroke-opacity=".2" stroke-width="2" d="M494.88-233.84v197.72h324.01"/><path fill-opacity=".2" stroke="#000" stroke-opacity=".2" stroke-width="2" d="m818.89-38.23 6 2.1-6 2.1z"/></g><g class="node"><a xlink:href="src/enrich/summarize/index.mjs" xlink:title="index.mjs"><path fill="#ffc" stroke="#000" d="M756.33-59.88h-43.16c-2.96 0-5.92 2.96-5.92 5.92v5.92c0 2.96 2.96 5.92 5.92 5.92h43.16c2.96 0 5.92-2.96 5.92-5.92v-5.92c0-2.96-2.96-5.92-5.92-5.92"/><text x="715.25" y="-47.33" font-family="Helvetica,sans-Serif" font-size="9">index.mjs</text></a></g><g class="edge"><path fill="none" stroke="#000" stroke-opacity=".2" stroke-width="2" d="M650.93-64.38h74.95v.43"/><path fill-opacity=".2" stroke="#000" stroke-opacity=".2" stroke-width="2" d="m727.98-69.17-2.1 6-2.1-6z"/></g><g class="node"><a xlink:href="src/graph-utl/compare.mjs" xlink:title="compare.mjs"><path fill="#ffc" stroke="#000" d="M888.33-107.88h-56.66c-2.96 0-5.92 2.96-5.92 5.92v5.92c0 2.96 2.96 5.92 5.92 5.92h56.66c2.96 0 5.92-2.96 5.92-5.92v-5.92c0-2.96-2.96-5.92-5.92-5.92"/><text x="833.75" y="-95.33" font-family="Helvetica,sans-Serif" font-size="9">compare.mjs</text></a></g><g class="edge"><path fill="none" stroke="#000" stroke-opacity=".2" stroke-width="2" d="M744.88-60.11v-35.93h71.55"/><path fill-opacity=".2" stroke="#000" stroke-opacity=".2" stroke-width="2" d="m816.43-98.14 6 2.1-6 2.1z"/></g><g class="edge"><path fill="none" stroke="#000" stroke-opacity=".2" stroke-width="2" d="M650.95-617h218.93v79.93"/><path fill-opacity=".2" stroke="#000" stroke-opacity=".2" stroke-width="2" d="m871.98-537.07-2.1 6-2.1-6z"/></g><g class="node"><a xlink:href="src/graph-utl/consolidate-to-pattern.mjs" xlink:title="consolidate-to-pattern.mjs"><path fill="#ffc" stroke="#000" d="M914.96-77.88H805.04c-2.96 0-5.92 2.96-5.92 5.92v5.92c0 2.96 2.96 5.92 5.92 5.92h109.92c2.96 0 5.92-2.96 5.92-5.92v-5.92c0-2.96-2.96-5.92-5.92-5.92"/><text x="807.12" y="-65.33" font-family="Helvetica,sans-Serif" font-size="9">consolidate-to-pattern.mjs</text></a></g><g class="node"><a xlink:href="src/graph-utl/filter-bank.mjs" xlink:title="filter-bank.mjs"><path fill="#ffc" stroke="#000" d="M890.58-137.88h-61.16c-2.96 0-5.92 2.96-5.92 5.92v5.92c0 2.96 2.96 5.92 5.92 5.92h61.16c2.96 0 5.92-2.96 5.92-5.92v-5.92c0-2.96-2.96-5.92-5.92-5.92"/><text x="831.5" y="-125.33" font-family="Helvetica,sans-Serif" font-size="9">filter-bank.mjs</text></a></g><g class="node"><a xlink:href="src/graph-utl/strip-self-transitions.mjs" xlink:title="strip-self-transitions.mjs"><path fill="#ffc" stroke="#000" d="M910.08-167.88H809.92c-2.96 0-5.92 2.96-5.92 5.92v5.92c0 2.96 2.96 5.92 5.92 5.92h100.16c2.96 0 5.92-2.96 5.92-5.92v-5.92c0-2.96-2.96-5.92-5.92-5.92"/><text x="812" y="-155.32" font-family="Helvetica,sans-Serif" font-size="9">strip-self-transitions.mjs</text></a></g><g class="node"><a xlink:href="src/report/index.mjs" xlink:title="index.mjs"><path fill="#ffc" stroke="#000" d="M756.33-183.88h-43.16c-2.96 0-5.92 2.96-5.92 5.92v5.92c0 2.96 2.96 5.92 5.92 5.92h43.16c2.96 0 5.92-2.96 5.92-5.92v-5.92c0-2.96-2.96-5.92-5.92-5.92"/><text x="715.25" y="-171.32" font-family="Helvetica,sans-Serif" font-size="9">index.mjs</text></a></g><g class="edge"><path fill="none" stroke="#000" stroke-opacity=".2" stroke-width="2" d="M667.77-323h77.11v129.71"/><path fill-opacity=".2" stroke="#000" stroke-opacity=".2" stroke-width="2" d="m746.98-193.29-2.1 6-2.1-6z"/></g><g class="node"><a xlink:href="src/main/helpers.mjs" xlink:title="helpers.mjs"><path fill="#0f0" stroke="#000" d="M760.46-441.88h-51.42c-2.96 0-5.92 2.96-5.92 5.92v5.92c0 2.96 2.96 5.92 5.92 5.92h51.42c2.96 0 5.92-2.96 5.92-5.92v-5.92c0-2.96-2.96-5.92-5.92-5.92"/><text x="711.12" y="-429.32" font-family="Helvetica,sans-Serif" font-size="9">helpers.mjs</text></a></g><g class="edge"><path fill="none" stroke="#000" stroke-opacity=".2" stroke-width="2" d="M656.88-362.37v-67.01h36.72"/><path fill-opacity=".2" stroke="#000" stroke-opacity=".2" stroke-width="2" d="m693.6-431.48 6 2.1-6 2.1z"/></g><g class="node"><a xlink:href="src/main/options/defaults.mjs" xlink:title="defaults.mjs"><path fill="#0f0" stroke="#000" d="M761.21-361.88h-52.92c-2.96 0-5.91 2.96-5.91 5.92v5.92c0 2.96 2.95 5.92 5.91 5.92h52.92c2.96 0 5.91-2.96 5.91-5.92v-5.92c0-2.96-2.95-5.92-5.91-5.92"/><text x="710.38" y="-349.32" font-family="Helvetica,sans-Serif" font-size="9">defaults.mjs</text></a></g><g class="edge"><path fill="none" stroke="#000" stroke-opacity=".2" stroke-width="2" d="M659.98-353h33.05"/><path fill-opacity=".2" stroke="#000" stroke-opacity=".2" stroke-width="2" d="m693.03-355.1 6 2.1-6 2.1z"/></g><g class="node"><a xlink:href="src/utl/array-util.mjs" xlink:title="array-util.mjs"><path fill="#ffc" stroke="#000" d="M888.33-467.88h-56.66c-2.96 0-5.92 2.96-5.92 5.92v5.92c0 2.96 2.96 5.92 5.92 5.92h56.66c2.96 0 5.92-2.96 5.92-5.92v-5.92c0-2.96-2.96-5.92-5.92-5.92"/><text x="833.75" y="-455.32" font-family="Helvetica,sans-Serif" font-size="9">array-util.mjs</text></a></g><g class="edge"><path fill="none" stroke="#000" stroke-opacity=".2" stroke-width="2" d="M653.88-362.26v-95.12h162.59"/><path fill-opacity=".2" stroke="#000" stroke-opacity=".2" stroke-width="2" d="m816.47-459.48 6 2.1-6 2.1z"/></g><g class="edge"><path fill="none" stroke="#000" stroke-opacity=".2" stroke-width="2" d="M663.27-228.66h25.61v180.04h9.1"/><path fill-opacity=".2" stroke="#000" stroke-opacity=".2" stroke-width="2" d="m697.98-50.73 6 2.1-6 2.1z"/></g><g class="edge"><path fill="none" stroke="#000" stroke-opacity=".2" stroke-width="2" d="M663.27-238.8h120.61v136.84h32.59"/><path fill-opacity=".2" stroke="#000" stroke-opacity=".2" stroke-width="2" d="m816.47-104.06 6 2.1-6 2.1z"/></g><g class="edge"><path fill="none" stroke="#000" stroke-opacity=".2" stroke-width="2" d="M663.29-231.2h29.59v162.58h96.81"/><path fill-opacity=".2" stroke="#000" stroke-opacity=".2" stroke-width="2" d="m789.69-70.73 6 2.1-6 2.1z"/></g><g class="edge"><path fill="none" stroke="#000" stroke-opacity=".2" stroke-width="2" d="M663.13-233.73h34.75v105.61h116.3"/><path fill-opacity=".2" stroke="#000" stroke-opacity=".2" stroke-width="2" d="m814.18-130.23 6 2.1-6 2.1z"/></g><g class="edge"><path fill="none" stroke="#000" stroke-opacity=".2" stroke-width="2" d="M663.32-241.34h151.56v64.19"/><path fill-opacity=".2" stroke="#000" stroke-opacity=".2" stroke-width="2" d="m816.98-177.15-2.1 6-2.1-6z"/></g><g class="edge"><path fill="none" stroke="#000" stroke-opacity=".2" stroke-width="2" d="M663.44-236.27h62.44v42.94"/><path fill-opacity=".2" stroke="#000" stroke-opacity=".2" stroke-width="2" d="m727.98-193.33-2.1 6-2.1-6z"/></g><g class="edge"><path fill="none" stroke="#000" stroke-opacity=".2" stroke-width="2" d="M535.88-440.32V-489h278.54"/><path fill-opacity=".2" stroke="#000" stroke-opacity=".2" stroke-width="2" d="m814.42-491.1 6 2.1-6 2.1z"/></g><g class="edge"><path fill="none" stroke="#000" stroke-opacity=".2" stroke-width="2" d="M536.88-421.68v95.72h32.58"/><path fill-opacity=".2" stroke="#000" stroke-opacity=".2" stroke-width="2" d="m569.46-328.06 6 2.1-6 2.1z"/></g><g class="edge"><path fill="none" stroke="#000" stroke-opacity=".2" stroke-width="2" d="M539.23-434.62h154.41"/><path fill-opacity=".2" stroke="#000" stroke-opacity=".2" stroke-width="2" d="m693.64-436.73 6 2.1-6 2.1z"/></g><g class="node"><a xlink:href="src/schema/configuration.schema.mjs" xlink:title="configuration.schema.mjs"><path fill="#ffc" stroke="#000" d="M677.33-183.88H568.92c-2.96 0-5.92 2.96-5.92 5.92v5.92c0 2.96 2.96 5.92 5.92 5.92h108.41c2.96 0 5.92-2.96 5.92-5.92v-5.92c0-2.96-2.96-5.92-5.92-5.92"/><text x="571" y="-171.32" font-family="Helvetica,sans-Serif" font-size="9">configuration.schema.mjs</text></a></g><g class="edge"><path fill="none" stroke="#000" stroke-opacity=".2" stroke-width="2" d="M533.88-421.89V-175h19.7"/><path fill-opacity=".2" stroke="#000" stroke-opacity=".2" stroke-width="2" d="m553.58-177.1 6 2.1-6 2.1z"/></g><g class="edge"><path fill="none" stroke="#000" stroke-opacity=".2" stroke-width="2" d="M531.62-462.62h193.26v11.22"/><path fill-opacity=".2" stroke="#000" stroke-opacity=".2" stroke-width="2" d="m726.98-451.4-2.1 6-2.1-6z"/></g><g class="edge"><path fill="none" stroke="#000" stroke-opacity=".2" stroke-width="2" d="M745.88-441.98v-42.58h68.67"/><path fill-opacity=".2" stroke="#000" stroke-opacity=".2" stroke-width="2" d="m814.55-486.66 6 2.1-6 2.1z"/></g><g class="node"><a xlink:href="src/main/index.d.ts" xlink:title="index.d.ts"><path fill="#0f0" stroke="#000" d="M267.33-478.88h-43.16c-2.96 0-5.92 2.96-5.92 5.92v5.92c0 2.96 2.96 5.92 5.92 5.92h43.16c2.96 0 5.92-2.96 5.92-5.92v-5.92c0-2.96-2.96-5.92-5.92-5.92"/><text x="226.25" y="-466.32" font-family="Helvetica,sans-Serif" font-size="9">index.d.ts</text></a></g></g></svg>