<svg xmlns="http://www.w3.org/2000/svg" xmlns:xlink="http://www.w3.org/1999/xlink" width="962pt" height="904pt" viewBox="0 0 962 904"><g class="graph" transform="translate(4 900)"><title>dependency-cruiser output</title><path fill="#fff" d="M-4 4v-904h962.25V4z"/><g class="cluster"><title>cluster_src</title><path fill="#fff" stroke="#000" stroke-width="2" d="M20-8h914.25c6 0 12-6 12-12v-856c0-6-6-12-12-12H20c-6 0-12 6-12 12v856c0 6 6 12 12 12"/><text xml:space="preserve" x="477.12" y="-875.45" font-family="Helvetica,sans-Serif" font-size="9" font-weight="bold" text-anchor="middle">src</text></g><g class="cluster"><title>cluster_src/cache</title><path fill="#fff" stroke="#000" stroke-width="2" d="M470.75-594H520c6 0 12-6 12-12v-28c0-6-6-12-12-12h-49.25c-6 0-12 6-12 12v28c0 6 6 12 12 12"/><text xml:space="preserve" x="495.38" y="-633.45" font-family="Helvetica,sans-Serif" font-size="9" font-weight="bold" text-anchor="middle">cache</text></g><g class="cluster"><title>cluster_src/cli</title><path fill="#fff" stroke="#000" stroke-width="2" d="M28-323h162.25c6 0 12-6 12-12v-58c0-6-6-12-12-12H28c-6 0-12 6-12 12v58c0 6 6 12 12 12"/><text xml:space="preserve" x="109.12" y="-392.45" font-family="Helvetica,sans-Serif" font-size="9" font-weight="bold" text-anchor="middle">cli</text></g><g class="cluster"><title>cluster_src/config-utl</title><path fill="#fff" stroke="#000" stroke-width="2" d="M301.25-48H415c6 0 12-6 12-12v-62c0-6-6-12-12-12H301.25c-6 0-12 6-12 12v62c0 6 6 12 12 12"/><text xml:space="preserve" x="358.12" y="-121.45" font-family="Helvetica,sans-Serif" font-size="9" font-weight="bold" text-anchor="middle">config-utl</text></g><g class="cluster"><title>cluster_src/config-utl/extract-depcruise-config</title><path fill="#fff" stroke="#000" stroke-width="2" d="M309.25-56H407c6 0 12-6 12-12v-28c0-6-6-12-12-12h-97.75c-6 0-12 6-12 12v28c0 6 6 12 12 12"/><text xml:space="preserve" x="358.12" y="-95.45" font-family="Helvetica,sans-Serif" font-size="9" font-weight="bold" text-anchor="middle">extract-depcruise-config</text></g><g class="cluster"><title>cluster_src/enrich</title><path fill="#fff" stroke="#000" stroke-width="2" d="M600.38-776h175.24c6 0 12-6 12-12v-62c0-6-6-12-12-12H600.38c-6 0-12 6-12 12v62c0 6 6 12 12 12"/><text xml:space="preserve" x="688" y="-849.45" font-family="Helvetica,sans-Serif" font-size="9" font-weight="bold" text-anchor="middle">enrich</text></g><g class="cluster"><title>cluster_src/enrich/summarize</title><path fill="#fff" stroke="#000" stroke-width="2" d="M720.62-784h47c6 0 12-6 12-12v-28c0-6-6-12-12-12h-47c-6 0-12 6-12 12v28c0 6 6 12 12 12"/><text xml:space="preserve" x="744.12" y="-823.45" font-family="Helvetica,sans-Serif" font-size="9" font-weight="bold" text-anchor="middle">summarize</text></g><g class="cluster"><title>cluster_src/extract</title><path fill="#fff" stroke="#000" stroke-width="2" d="M592.88-604h62c6 0 12-6 12-12v-88c0-6-6-12-12-12h-62c-6 0-12 6-12 12v88c0 6 6 12 12 12"/><text xml:space="preserve" x="623.88" y="-703.45" font-family="Helvetica,sans-Serif" font-size="9" font-weight="bold" text-anchor="middle">extract</text></g><g class="cluster"><title>cluster_src/extract/transpile</title><path fill="#fff" stroke="#000" stroke-width="2" d="M600.88-638h46c6 0 12-6 12-12v-28c0-6-6-12-12-12h-46c-6 0-12 6-12 12v28c0 6 6 12 12 12"/><text xml:space="preserve" x="623.88" y="-677.45" font-family="Helvetica,sans-Serif" font-size="9" font-weight="bold" text-anchor="middle">transpile</text></g><g class="cluster"><title>cluster_src/graph-utl</title><path fill="#fff" stroke="#000" stroke-width="2" d="M812.5-16h113.75c6 0 12-6 12-12v-148c0-6-6-12-12-12H812.5c-6 0-12 6-12 12v148c0 6 6 12 12 12"/><text xml:space="preserve" x="869.38" y="-175.45" font-family="Helvetica,sans-Serif" font-size="9" font-weight="bold" text-anchor="middle">graph-utl</text></g><g class="cluster"><title>cluster_src/main</title><path fill="#fff" stroke="#000" stroke-width="2" d="M222.25-142H780.5c6 0 12-6 12-12v-272c0-6-6-12-12-12H222.25c-6 0-12 6-12 12v272c0 6 6 12 12 12"/><text xml:space="preserve" x="501.38" y="-425.45" font-family="Helvetica,sans-Serif" font-size="9" font-weight="bold" text-anchor="middle">main</text></g><g class="cluster"><title>cluster_src/main/files-and-dirs</title><path fill="#fff" stroke="#000" stroke-width="2" d="M462.88-260h65c6 0 12-6 12-12v-28c0-6-6-12-12-12h-65c-6 0-12 6-12 12v28c0 6 6 12 12 12"/><text xml:space="preserve" x="495.38" y="-299.45" font-family="Helvetica,sans-Serif" font-size="9" font-weight="bold" text-anchor="middle">files-and-dirs</text></g><g class="cluster"><title>cluster_src/main/options</title><path fill="#fff" stroke="#000" stroke-width="2" d="M583.5-231h189c6 0 12-6 12-12v-58c0-6-6-12-12-12h-189c-6 0-12 6-12 12v58c0 6 6 12 12 12"/><text xml:space="preserve" x="678" y="-300.45" font-family="Helvetica,sans-Serif" font-size="9" font-weight="bold" text-anchor="middle">options</text></g><g class="cluster"><title>cluster_src/main/resolve-options</title><path fill="#fff" stroke="#000" stroke-width="2" d="M462.88-190h65c6 0 12-6 12-12v-28c0-6-6-12-12-12h-65c-6 0-12 6-12 12v28c0 6 6 12 12 12"/><text xml:space="preserve" x="495.38" y="-229.45" font-family="Helvetica,sans-Serif" font-size="9" font-weight="bold" text-anchor="middle">resolve-options</text></g><g class="cluster"><title>cluster_src/main/rule-set</title><path fill="#fff" stroke="#000" stroke-width="2" d="M455-330h80.75c6 0 12-6 12-12v-58c0-6-6-12-12-12H455c-6 0-12 6-12 12v58c0 6 6 12 12 12"/><text xml:space="preserve" x="495.38" y="-399.45" font-family="Helvetica,sans-Serif" font-size="9" font-weight="bold" text-anchor="middle">rule-set</text></g><g class="cluster"><title>cluster_src/report</title><path fill="#fff" stroke="#000" stroke-width="2" d="M720.62-82h47c6 0 12-6 12-12v-28c0-6-6-12-12-12h-47c-6 0-12 6-12 12v28c0 6 6 12 12 12"/><text xml:space="preserve" x="744.12" y="-121.45" font-family="Helvetica,sans-Serif" font-size="9" font-weight="bold" text-anchor="middle">report</text></g><g class="cluster"><title>cluster_src/schema</title><path fill="#fff" stroke="#000" stroke-width="2" d="M567.75-446H680c6 0 12-6 12-12v-88c0-6-6-12-12-12H567.75c-6 0-12 6-12 12v88c0 6 6 12 12 12"/><text xml:space="preserve" x="623.88" y="-545.45" font-family="Helvetica,sans-Serif" font-size="9" font-weight="bold" text-anchor="middle">schema</text></g><g class="cluster"><title>cluster_src/utl</title><path fill="#fff" stroke="#000" stroke-width="2" d="M712-544h64.25c6 0 12-6 12-12v-88c0-6-6-12-12-12H712c-6 0-12 6-12 12v88c0 6 6 12 12 12"/><text xml:space="preserve" x="744.12" y="-643.45" font-family="Helvetica,sans-Serif" font-size="9" font-weight="bold" text-anchor="middle">utl</text></g><g class="node"><title>src/cache/cache.mjs</title><a xlink:href="src/cache/cache.mjs" xlink:title="cache.mjs">
<path fill="#ffc" stroke="#000" d="M518.08-619.88h-45.41c-2.96 0-5.92 2.96-5.92 5.92v5.92c0 2.96 2.96 5.92 5.92 5.92h45.41c2.96 0 5.92-2.96 5.92-5.92v-5.92c0-2.96-2.96-5.92-5.92-5.92"/>
<text xml:space="preserve" x="474.75" y="-607.33" font-family="Helvetica,sans-Serif" font-size="9">cache.mjs</text>
</a></g><g class="node"><title>src/extract/transpile/meta.mjs</title><a xlink:href="src/extract/transpile/meta.mjs" xlink:title="meta.mjs">
<path fill="#ffc" stroke="#000" d="M644.96-663.88h-42.17c-2.96 0-5.91 2.96-5.91 5.92v5.92c0 2.96 2.95 5.92 5.91 5.92h42.17c2.96 0 5.92-2.96 5.92-5.92v-5.92c0-2.96-2.96-5.92-5.92-5.92"/>
<text xml:space="preserve" x="605.5" y="-651.33" font-family="Helvetica,sans-Serif" font-size="9">meta.mjs</text>
</a></g><g class="edge"><title>src/cache/cache.mjs-&gt;src/extract/transpile/meta.mjs</title><path fill="none" stroke="#000" stroke-opacity=".2" stroke-width="2" d="M495.25-620.33V-655h92.32"/><path fill-opacity=".2" stroke="#000" stroke-opacity=".2" stroke-width="2" d="m587.57-657.1 6 2.1-6 2.1z"/></g><g class="node"><title>src/utl/bus.mjs</title><a xlink:href="src/utl/bus.mjs" xlink:title="bus.mjs">
<path fill="#ffc" stroke="#000" d="M765.21-629.88h-42.17c-2.96 0-5.92 2.96-5.92 5.92v5.92c0 2.96 2.96 5.92 5.92 5.92h42.17c2.96 0 5.91-2.96 5.91-5.92v-5.92c0-2.96-2.95-5.92-5.91-5.92"/>
<text xml:space="preserve" x="728.38" y="-617.33" font-family="Helvetica,sans-Serif" font-size="9">bus.mjs</text>
</a></g><g class="edge"><title>src/cache/cache.mjs-&gt;src/utl/bus.mjs</title><path fill="none" stroke="#000" stroke-opacity=".2" stroke-width="2" d="M524.41-607.12h219.84v-.47"/><path fill-opacity=".2" stroke="#000" stroke-opacity=".2" stroke-width="2" d="m742.15-602.8 2.1-6 2.1 6z"/></g><g class="node"><title>src/cli/format-meta-info.mjs</title><a xlink:href="src/cli/format-meta-info.mjs" xlink:title="format-meta-info.mjs">
<path fill="#ffc" stroke="#000" d="M188.33-378.88h-87.41c-2.96 0-5.92 2.96-5.92 5.92v5.92c0 2.96 2.96 5.92 5.92 5.92h87.41c2.96 0 5.92-2.96 5.92-5.92v-5.92c0-2.96-2.96-5.92-5.92-5.92"/>
<text xml:space="preserve" x="103" y="-366.32" font-family="Helvetica,sans-Serif" font-size="9">format-meta-info.mjs</text>
</a></g><g class="node"><title>src/main/index.mjs</title><a xlink:href="src/main/index.mjs" xlink:title="index.mjs">
<path fill="#0f0" stroke="#000" d="M267.33-378.88h-43.16c-2.96 0-5.92 2.96-5.92 5.92v5.92c0 2.96 2.96 5.92 5.92 5.92h43.16c2.96 0 5.92-2.96 5.92-5.92v-5.92c0-2.96-2.96-5.92-5.92-5.92"/>
<text xml:space="preserve" x="226.25" y="-366.32" font-family="Helvetica,sans-Serif" font-size="9">index.mjs</text>
</a></g><g class="edge"><title>src/cli/format-meta-info.mjs-&gt;src/main/index.mjs</title><path fill="none" stroke="#000" stroke-opacity=".2" stroke-width="2" d="M194.59-370h14.4"/><path fill-opacity=".2" stroke="#000" stroke-opacity=".2" stroke-width="2" d="m208.99-372.1 6 2.1-6 2.1z"/></g><g class="edge"><title>src/main/index.mjs-&gt;src/extract/transpile/meta.mjs</title><path fill="none" stroke="#000" stroke-opacity=".2" stroke-width="2" d="M273.5-371.71h27.75v-287.73h286.37"/><path fill-opacity=".2" stroke="#000" stroke-opacity=".2" stroke-width="2" d="m587.62-661.54 6 2.1-6 2.1z"/></g><g class="node"><title>src/main/format.mjs</title><a xlink:href="src/main/format.mjs" xlink:title="format.mjs">
<path fill="#0f0" stroke="#000" d="M518.46-181.88h-46.17c-2.96 0-5.91 2.96-5.91 5.92v5.92c0 2.96 2.95 5.92 5.91 5.92h46.17c2.96 0 5.92-2.96 5.92-5.92v-5.92c0-2.96-2.96-5.92-5.92-5.92"/>
<text xml:space="preserve" x="474.38" y="-169.32" font-family="Helvetica,sans-Serif" font-size="9">format.mjs</text>
</a></g><g class="edge"><title>src/main/index.mjs-&gt;src/main/format.mjs</title><path fill="none" stroke="#000" stroke-opacity=".2" stroke-width="2" d="M236.25-360.64v184.68h220.63"/><path fill-opacity=".2" stroke="#000" stroke-opacity=".2" stroke-width="2" d="m456.88-178.06 6 2.1-6 2.1z"/></g><g class="node"><title>src/main/cruise.mjs</title><a xlink:href="src/main/cruise.mjs" xlink:title="cruise.mjs">
<path fill="#0f0" stroke="#000" d="M380.33-356.88h-45.41c-2.96 0-5.92 2.96-5.92 5.92v5.92c0 2.96 2.96 5.92 5.92 5.92h45.41c2.96 0 5.92-2.96 5.92-5.92v-5.92c0-2.96-2.96-5.92-5.92-5.92"/>
<text xml:space="preserve" x="337" y="-344.32" font-family="Helvetica,sans-Serif" font-size="9">cruise.mjs</text>
</a></g><g class="edge"><title>src/main/index.mjs-&gt;src/main/cruise.mjs</title><path fill="none" stroke="#000" stroke-opacity=".2" stroke-width="2" d="M255.25-360.63v6.42h64.29"/><path fill-opacity=".2" stroke="#000" stroke-opacity=".2" stroke-width="2" d="m319.54-356.31 6 2.1-6 2.1z"/></g><g class="node"><title>src/cli/format.mjs</title><a xlink:href="src/cli/format.mjs" xlink:title="format.mjs">
<path fill="#ffc" stroke="#000" d="M76.08-348.88H29.92c-2.96 0-5.92 2.96-5.92 5.92v5.92c0 2.96 2.96 5.92 5.92 5.92h46.16c2.96 0 5.92-2.96 5.92-5.92v-5.92c0-2.96-2.96-5.92-5.92-5.92"/>
<text xml:space="preserve" x="32" y="-336.32" font-family="Helvetica,sans-Serif" font-size="9">format.mjs</text>
</a></g><g class="edge"><title>src/cli/format.mjs-&gt;src/main/format.mjs</title><path fill="none" stroke="#000" stroke-opacity=".2" stroke-width="2" d="M53.25-330.86v160.82H457"/><path fill-opacity=".2" stroke="#000" stroke-opacity=".2" stroke-width="2" d="m457-172.14 6 2.1-6 2.1z"/></g><g class="node"><title>src/main/options/assert-validity.mjs</title><a xlink:href="src/main/options/assert-validity.mjs" xlink:title="assert-validity.mjs">
<path fill="#0f0" stroke="#000" d="M662.33-256.88h-76.91c-2.96 0-5.92 2.96-5.92 5.92v5.92c0 2.96 2.96 5.92 5.92 5.92h76.91c2.96 0 5.92-2.96 5.92-5.92v-5.92c0-2.96-2.96-5.92-5.92-5.92"/>
<text xml:space="preserve" x="587.5" y="-244.32" font-family="Helvetica,sans-Serif" font-size="9">assert-validity.mjs</text>
</a></g><g class="edge"><title>src/main/format.mjs-&gt;src/main/options/assert-validity.mjs</title><path fill="none" stroke="#000" stroke-opacity=".2" stroke-width="2" d="M524.62-170.68h99.63v-59.12"/><path fill-opacity=".2" stroke="#000" stroke-opacity=".2" stroke-width="2" d="m622.15-229.8 2.1-6 2.1 6z"/></g><g class="node"><title>src/main/options/normalize.mjs</title><a xlink:href="src/main/options/normalize.mjs" xlink:title="normalize.mjs">
<path fill="#0f0" stroke="#000" d="M654.46-286.88h-61.17c-2.96 0-5.91 2.96-5.91 5.92v5.92c0 2.96 2.95 5.92 5.91 5.92h61.17c2.96 0 5.92-2.96 5.92-5.92v-5.92c0-2.96-2.96-5.92-5.92-5.92"/>
<text xml:space="preserve" x="595.38" y="-274.32" font-family="Helvetica,sans-Serif" font-size="9">normalize.mjs</text>
</a></g><g class="edge"><title>src/main/format.mjs-&gt;src/main/options/normalize.mjs</title><path fill="none" stroke="#000" stroke-opacity=".2" stroke-width="2" d="M524.65-179.07h11.6v-98.43h41.69"/><path fill-opacity=".2" stroke="#000" stroke-opacity=".2" stroke-width="2" d="m577.94-279.6 6 2.1-6 2.1z"/></g><g class="node"><title>src/main/report-wrap.mjs</title><a xlink:href="src/main/report-wrap.mjs" xlink:title="report-wrap.mjs">
<path fill="#0f0" stroke="#000" d="M657.83-167.88h-67.91c-2.96 0-5.92 2.96-5.92 5.92v5.92c0 2.96 2.96 5.92 5.92 5.92h67.91c2.96 0 5.92-2.96 5.92-5.92v-5.92c0-2.96-2.96-5.92-5.92-5.92"/>
<text xml:space="preserve" x="592" y="-155.32" font-family="Helvetica,sans-Serif" font-size="9">report-wrap.mjs</text>
</a></g><g class="edge"><title>src/main/format.mjs-&gt;src/main/report-wrap.mjs</title><path fill="none" stroke="#000" stroke-opacity=".2" stroke-width="2" d="M495.25-163.74v4.28h79.25"/><path fill-opacity=".2" stroke="#000" stroke-opacity=".2" stroke-width="2" d="m574.5-161.56 6 2.1-6 2.1z"/></g><g class="node"><title>src/schema/cruise-result.validate.mjs</title><a xlink:href="src/schema/cruise-result.validate.mjs" xlink:title="cruise-result.validate.mjs">
<path fill="#ffc" stroke="#000" d="M676.58-471.88H571.17c-2.96 0-5.92 2.96-5.92 5.92v5.92c0 2.96 2.96 5.92 5.92 5.92h105.41c2.96 0 5.92-2.96 5.92-5.92v-5.92c0-2.96-2.96-5.92-5.92-5.92"/>
<text xml:space="preserve" x="573.25" y="-459.32" font-family="Helvetica,sans-Serif" font-size="9">cruise-result.validate.mjs</text>
</a></g><g class="edge"><title>src/main/format.mjs-&gt;src/schema/cruise-result.validate.mjs</title><path fill="none" stroke="#000" stroke-opacity=".2" stroke-width="2" d="M524.44-173.47c21.77 0 47.81 0 47.81-.01v-271.19"/><path fill-opacity=".2" stroke="#000" stroke-opacity=".2" stroke-width="2" d="m570.15-444.67 2.1-6 2.1 6z"/></g><g class="node"><title>src/schema/utl.mjs</title><a xlink:href="src/schema/utl.mjs" xlink:title="utl.mjs">
<path fill="#ffc" stroke="#000" d="M644.96-501.88h-42.17c-2.96 0-5.91 2.96-5.91 5.92v5.92c0 2.96 2.95 5.92 5.91 5.92h42.17c2.96 0 5.92-2.96 5.92-5.92v-5.92c0-2.96-2.96-5.92-5.92-5.92"/>
<text xml:space="preserve" x="610.75" y="-489.32" font-family="Helvetica,sans-Serif" font-size="9">utl.mjs</text>
</a></g><g class="edge"><title>src/main/format.mjs-&gt;src/schema/utl.mjs</title><path fill="none" stroke="#000" stroke-opacity=".2" stroke-width="2" d="M524.61-176.28h30.64v-313.76h32.48"/><path fill-opacity=".2" stroke="#000" stroke-opacity=".2" stroke-width="2" d="m587.73-492.14 6 2.1-6 2.1z"/></g><g class="node"><title>src/cli/index.mjs</title><a xlink:href="src/cli/index.mjs" xlink:title="index.mjs">
<path fill="#ffc" stroke="#000" d="M74.58-378.88H31.42c-2.96 0-5.92 2.96-5.92 5.92v5.92c0 2.96 2.96 5.92 5.92 5.92h43.16c2.96 0 5.92-2.96 5.92-5.92v-5.92c0-2.96-2.96-5.92-5.92-5.92"/>
<text xml:space="preserve" x="33.5" y="-366.32" font-family="Helvetica,sans-Serif" font-size="9">index.mjs</text>
</a></g><g class="edge"><title>src/cli/index.mjs-&gt;src/utl/bus.mjs</title><path fill="none" stroke="#000" stroke-opacity=".2" stroke-width="2" d="M44.25-379.32v-261.39h700v1.75"/><path fill-opacity=".2" stroke="#000" stroke-opacity=".2" stroke-width="2" d="m746.35-638.96-2.1 6-2.1-6z"/></g><g class="edge"><title>src/cli/index.mjs-&gt;src/cli/format-meta-info.mjs</title><path fill="none" stroke="#000" stroke-dasharray="5,2" stroke-opacity=".2" stroke-width="2" d="M80.99-370h4.82"/><path fill-opacity=".2" stroke="#000" stroke-opacity=".2" stroke-width="2" d="m85.81-372.1 6 2.1-6 2.1z"/></g><g class="edge"><title>src/cli/index.mjs-&gt;src/main/cruise.mjs</title><path fill="none" stroke="#000" stroke-opacity=".2" stroke-width="2" d="M53.25-360.77v9.23h266.44"/><path fill-opacity=".2" stroke="#000" stroke-opacity=".2" stroke-width="2" d="m319.69-353.64 6 2.1-6 2.1z"/></g><g class="node"><title>src/utl/object-util.mjs</title><a xlink:href="src/utl/object-util.mjs" xlink:title="object-util.mjs">
<path fill="#ffc" stroke="#000" d="M774.33-599.88h-60.41c-2.96 0-5.92 2.96-5.92 5.92v5.92c0 2.96 2.96 5.92 5.92 5.92h60.41c2.96 0 5.92-2.96 5.92-5.92v-5.92c0-2.96-2.96-5.92-5.92-5.92"/>
<text xml:space="preserve" x="716" y="-587.33" font-family="Helvetica,sans-Serif" font-size="9">object-util.mjs</text>
</a></g><g class="edge"><title>src/cli/index.mjs-&gt;src/utl/object-util.mjs</title><path fill="none" stroke="#000" stroke-opacity=".2" stroke-width="2" d="M62.25-379.34v-214.62h636.67"/><path fill-opacity=".2" stroke="#000" stroke-opacity=".2" stroke-width="2" d="m698.92-596.06 6 2.1-6 2.1z"/></g><g class="edge"><title>src/main/cruise.mjs-&gt;src/cache/cache.mjs</title><path fill="none" stroke="#000" stroke-dasharray="5,2" stroke-opacity=".2" stroke-width="2" d="M367.25-357.36V-611h90.02"/><path fill-opacity=".2" stroke="#000" stroke-opacity=".2" stroke-width="2" d="m457.27-613.1 6 2.1-6 2.1z"/></g><g class="edge"><title>src/main/cruise.mjs-&gt;src/utl/bus.mjs</title><path fill="none" stroke="#000" stroke-opacity=".2" stroke-width="2" d="M348.25-357.23v-278.06h382v.51"/><path fill-opacity=".2" stroke="#000" stroke-opacity=".2" stroke-width="2" d="m732.35-639.16-2.1 6-2.1-6z"/></g><g class="node"><title>src/main/resolve-options/normalize.mjs</title><a xlink:href="src/main/resolve-options/normalize.mjs" xlink:title="normalize.mjs">
<path fill="#0f0" stroke="#000" d="M525.96-215.88h-61.17c-2.96 0-5.91 2.96-5.91 5.92v5.92c0 2.96 2.95 5.92 5.91 5.92h61.17c2.96 0 5.92-2.96 5.92-5.92v-5.92c0-2.96-2.96-5.92-5.92-5.92"/>
<text xml:space="preserve" x="466.88" y="-203.32" font-family="Helvetica,sans-Serif" font-size="9">normalize.mjs</text>
</a></g><g class="edge"><title>src/main/cruise.mjs-&gt;src/main/resolve-options/normalize.mjs</title><path fill="none" stroke="#000" stroke-dasharray="5,2" stroke-opacity=".2" stroke-width="2" d="M348.25-338.75V-207H449.6"/><path fill-opacity=".2" stroke="#000" stroke-opacity=".2" stroke-width="2" d="m449.6-209.1 6 2.1-6 2.1z"/></g><g class="node"><title>src/enrich/index.mjs</title><a xlink:href="src/enrich/index.mjs" xlink:title="index.mjs">
<path fill="#ffc" stroke="#000" d="M645.46-801.88h-43.17c-2.96 0-5.91 2.96-5.91 5.92v5.92c0 2.96 2.95 5.92 5.91 5.92h43.17c2.96 0 5.92-2.96 5.92-5.92v-5.92c0-2.96-2.96-5.92-5.92-5.92"/>
<text xml:space="preserve" x="604.38" y="-789.33" font-family="Helvetica,sans-Serif" font-size="9">index.mjs</text>
</a></g><g class="edge"><title>src/main/cruise.mjs-&gt;src/enrich/index.mjs</title><path fill="none" stroke="#000" stroke-dasharray="5,2" stroke-opacity=".2" stroke-width="2" d="M338.25-357.29V-793h248.69"/><path fill-opacity=".2" stroke="#000" stroke-opacity=".2" stroke-width="2" d="m586.94-795.1 6 2.1-6 2.1z"/></g><g class="node"><title>src/extract/index.mjs</title><a xlink:href="src/extract/index.mjs" xlink:title="index.mjs">
<path fill="#ffc" stroke="#000" d="M645.46-629.88h-43.17c-2.96 0-5.91 2.96-5.91 5.92v5.92c0 2.96 2.95 5.92 5.91 5.92h43.17c2.96 0 5.92-2.96 5.92-5.92v-5.92c0-2.96-2.96-5.92-5.92-5.92"/>
<text xml:space="preserve" x="604.38" y="-617.33" font-family="Helvetica,sans-Serif" font-size="9">index.mjs</text>
</a></g><g class="edge"><title>src/main/cruise.mjs-&gt;src/extract/index.mjs</title><path fill="none" stroke="#000" stroke-dasharray="5,2" stroke-opacity=".2" stroke-width="2" d="M357.25-357.21v-267.67h229.82"/><path fill-opacity=".2" stroke="#000" stroke-opacity=".2" stroke-width="2" d="m587.07-626.98 6 2.1-6 2.1z"/></g><g class="node"><title>src/main/files-and-dirs/normalize.mjs</title><a xlink:href="src/main/files-and-dirs/normalize.mjs" xlink:title="normalize.mjs">
<path fill="#0f0" stroke="#000" d="M525.96-285.88h-61.17c-2.96 0-5.91 2.96-5.91 5.92v5.92c0 2.96 2.95 5.92 5.91 5.92h61.17c2.96 0 5.92-2.96 5.92-5.92v-5.92c0-2.96-2.96-5.92-5.92-5.92"/>
<text xml:space="preserve" x="466.88" y="-273.32" font-family="Helvetica,sans-Serif" font-size="9">normalize.mjs</text>
</a></g><g class="edge"><title>src/main/cruise.mjs-&gt;src/main/files-and-dirs/normalize.mjs</title><path fill="none" stroke="#000" stroke-dasharray="5,2" stroke-opacity=".2" stroke-width="2" d="M367.25-338.72V-277h82.38"/><path fill-opacity=".2" stroke="#000" stroke-opacity=".2" stroke-width="2" d="m449.63-279.1 6 2.1-6 2.1z"/></g><g class="edge"><title>src/main/cruise.mjs-&gt;src/main/options/assert-validity.mjs</title><path fill="none" stroke="#000" stroke-opacity=".2" stroke-width="2" d="M357.25-338.77V-248h212.97"/><path fill-opacity=".2" stroke="#000" stroke-opacity=".2" stroke-width="2" d="m570.22-250.1 6 2.1-6 2.1z"/></g><g class="edge"><title>src/main/cruise.mjs-&gt;src/main/options/normalize.mjs</title><path fill="none" stroke="#000" stroke-opacity=".2" stroke-width="2" d="M376.25-339.06v37.44h235v5.26"/><path fill-opacity=".2" stroke="#000" stroke-opacity=".2" stroke-width="2" d="m613.35-296.36-2.1 6-2.1-6z"/></g><g class="edge"><title>src/main/cruise.mjs-&gt;src/main/report-wrap.mjs</title><path fill="none" stroke="#000" stroke-opacity=".2" stroke-width="2" d="M339.25-338.68v183.89h235.42"/><path fill-opacity=".2" stroke="#000" stroke-opacity=".2" stroke-width="2" d="m574.67-156.89 6 2.1-6 2.1z"/></g><g class="node"><title>src/main/rule-set/assert-validity.mjs</title><a xlink:href="src/main/rule-set/assert-validity.mjs" xlink:title="assert-validity.mjs">
<path fill="#0f0" stroke="#000" d="M533.83-355.88h-76.91c-2.96 0-5.92 2.96-5.92 5.92v5.92c0 2.96 2.96 5.92 5.92 5.92h76.91c2.96 0 5.92-2.96 5.92-5.92v-5.92c0-2.96-2.96-5.92-5.92-5.92"/>
<text xml:space="preserve" x="459" y="-343.32" font-family="Helvetica,sans-Serif" font-size="9">assert-validity.mjs</text>
</a></g><g class="edge"><title>src/main/cruise.mjs-&gt;src/main/rule-set/assert-validity.mjs</title><path fill="none" stroke="#000" stroke-dasharray="5,2" stroke-opacity=".2" stroke-width="2" d="M386.5-347.5h55.01"/><path fill-opacity=".2" stroke="#000" stroke-opacity=".2" stroke-width="2" d="m441.51-349.6 6 2.1-6 2.1z"/></g><g class="node"><title>src/main/rule-set/normalize.mjs</title><a xlink:href="src/main/rule-set/normalize.mjs" xlink:title="normalize.mjs">
<path fill="#0f0" stroke="#000" d="M525.96-385.88h-61.17c-2.96 0-5.91 2.96-5.91 5.92v5.92c0 2.96 2.95 5.92 5.91 5.92h61.17c2.96 0 5.92-2.96 5.92-5.92v-5.92c0-2.96-2.96-5.92-5.92-5.92"/>
<text xml:space="preserve" x="466.88" y="-373.32" font-family="Helvetica,sans-Serif" font-size="9">normalize.mjs</text>
</a></g><g class="edge"><title>src/main/cruise.mjs-&gt;src/main/rule-set/normalize.mjs</title><path fill="none" stroke="#000" stroke-dasharray="5,2" stroke-opacity=".2" stroke-width="2" d="M376.25-357.24v-18.05h73.38"/><path fill-opacity=".2" stroke="#000" stroke-opacity=".2" stroke-width="2" d="m449.63-377.39 6 2.1-6 2.1z"/></g><g class="node"><title>src/config-utl/extract-depcruise-config/index.mjs</title><a xlink:href="src/config-utl/extract-depcruise-config/index.mjs" xlink:title="index.mjs">
<path fill="#ffc" stroke="#000" d="M379.21-81.88h-43.17c-2.96 0-5.92 2.96-5.92 5.92v5.92c0 2.96 2.96 5.92 5.92 5.92h43.17c2.96 0 5.91-2.96 5.91-5.92v-5.92c0-2.96-2.95-5.92-5.91-5.92"/>
<text xml:space="preserve" x="338.12" y="-69.33" font-family="Helvetica,sans-Serif" font-size="9">index.mjs</text>
</a></g><g class="edge"><title>src/config-utl/extract-depcruise-config/index.mjs-&gt;src/main/resolve-options/normalize.mjs</title><path fill="none" stroke="#000" stroke-opacity=".2" stroke-width="2" d="M385.39-76.88h76.86v-111.73"/><path fill-opacity=".2" stroke="#000" stroke-opacity=".2" stroke-width="2" d="m460.15-188.61 2.1-6 2.1 6z"/></g><g class="edge"><title>src/main/resolve-options/normalize.mjs-&gt;src/extract/transpile/meta.mjs</title><path fill="none" stroke="#000" stroke-opacity=".2" stroke-width="2" d="M532.25-207h15v-443.56h40.37"/><path fill-opacity=".2" stroke="#000" stroke-opacity=".2" stroke-width="2" d="m587.62-652.66 6 2.1-6 2.1z"/></g><g class="node"><title>src/graph-utl/rule-set.mjs</title><a xlink:href="src/graph-utl/rule-set.mjs" xlink:title="rule-set.mjs">
<path fill="#ffc" stroke="#000" d="M895.08-41.88h-51.41c-2.96 0-5.92 2.96-5.92 5.92v5.92c0 2.96 2.96 5.92 5.92 5.92h51.41c2.96 0 5.92-2.96 5.92-5.92v-5.92c0-2.96-2.96-5.92-5.92-5.92"/>
<text xml:space="preserve" x="845.75" y="-29.32" font-family="Helvetica,sans-Serif" font-size="9">rule-set.mjs</text>
</a></g><g class="edge"><title>src/main/resolve-options/normalize.mjs-&gt;src/graph-utl/rule-set.mjs</title><path fill="none" stroke="#000" stroke-opacity=".2" stroke-width="2" d="M528.25-197.65V-33h300.01"/><path fill-opacity=".2" stroke="#000" stroke-opacity=".2" stroke-width="2" d="m828.26-35.1 6 2.1-6 2.1z"/></g><g class="edge"><title>src/enrich/index.mjs-&gt;src/utl/bus.mjs</title><path fill="none" stroke="#000" stroke-opacity=".2" stroke-width="2" d="M651.83-788.12h105.42v149.11"/><path fill-opacity=".2" stroke="#000" stroke-opacity=".2" stroke-width="2" d="m759.35-639.01-2.1 6-2.1-6z"/></g><g class="node"><title>src/enrich/summarize/index.mjs</title><a xlink:href="src/enrich/summarize/index.mjs" xlink:title="index.mjs">
<path fill="#ffc" stroke="#000" d="M765.71-809.88h-43.17c-2.96 0-5.92 2.96-5.92 5.92v5.92c0 2.96 2.96 5.92 5.92 5.92h43.17c2.96 0 5.91-2.96 5.91-5.92v-5.92c0-2.96-2.95-5.92-5.91-5.92"/>
<text xml:space="preserve" x="724.62" y="-797.33" font-family="Helvetica,sans-Serif" font-size="9">index.mjs</text>
</a></g><g class="edge"><title>src/enrich/index.mjs-&gt;src/enrich/summarize/index.mjs</title><path fill="none" stroke="#000" stroke-opacity=".2" stroke-width="2" d="M651.77-798.62h55.59"/><path fill-opacity=".2" stroke="#000" stroke-opacity=".2" stroke-width="2" d="m707.36-800.73 6 2.1-6 2.1z"/></g><g class="node"><title>src/graph-utl/compare.mjs</title><a xlink:href="src/graph-utl/compare.mjs" xlink:title="compare.mjs">
<path fill="#ffc" stroke="#000" d="M897.71-161.88h-56.67c-2.96 0-5.92 2.96-5.92 5.92v5.92c0 2.96 2.96 5.92 5.92 5.92h56.67c2.96 0 5.91-2.96 5.91-5.92v-5.92c0-2.96-2.95-5.92-5.91-5.92"/>
<text xml:space="preserve" x="843.12" y="-149.32" font-family="Helvetica,sans-Serif" font-size="9">compare.mjs</text>
</a></g><g class="edge"><title>src/enrich/summarize/index.mjs-&gt;src/graph-utl/compare.mjs</title><path fill="none" stroke="#000" stroke-opacity=".2" stroke-width="2" d="M771.89-801h97.36v629.81"/><path fill-opacity=".2" stroke="#000" stroke-opacity=".2" stroke-width="2" d="m871.35-171.19-2.1 6-2.1-6z"/></g><g class="edge"><title>src/extract/index.mjs-&gt;src/utl/bus.mjs</title><path fill="none" stroke="#000" stroke-opacity=".2" stroke-width="2" d="M651.77-625.44h56"/><path fill-opacity=".2" stroke="#000" stroke-opacity=".2" stroke-width="2" d="m707.77-627.54 6 2.1-6 2.1z"/></g><g class="node"><title>src/graph-utl/consolidate-to-pattern.mjs</title><a xlink:href="src/graph-utl/consolidate-to-pattern.mjs" xlink:title="consolidate-to-pattern.mjs">
<path fill="#ffc" stroke="#000" d="M924.33-71.88H814.42c-2.96 0-5.92 2.96-5.92 5.92v5.92c0 2.96 2.96 5.92 5.92 5.92h109.91c2.96 0 5.92-2.96 5.92-5.92v-5.92c0-2.96-2.96-5.92-5.92-5.92"/>
<text xml:space="preserve" x="816.5" y="-59.33" font-family="Helvetica,sans-Serif" font-size="9">consolidate-to-pattern.mjs</text>
</a></g><g class="node"><title>src/graph-utl/filter-bank.mjs</title><a xlink:href="src/graph-utl/filter-bank.mjs" xlink:title="filter-bank.mjs">
<path fill="#ffc" stroke="#000" d="M899.96-101.88h-61.17c-2.96 0-5.91 2.96-5.91 5.92v5.92c0 2.96 2.95 5.92 5.91 5.92h61.17c2.96 0 5.92-2.96 5.92-5.92v-5.92c0-2.96-2.96-5.92-5.92-5.92"/>
<text xml:space="preserve" x="840.88" y="-89.33" font-family="Helvetica,sans-Serif" font-size="9">filter-bank.mjs</text>
</a></g><g class="node"><title>src/graph-utl/strip-self-transitions.mjs</title><a xlink:href="src/graph-utl/strip-self-transitions.mjs" xlink:title="strip-self-transitions.mjs">
<path fill="#ffc" stroke="#000" d="M919.46-131.88H819.29c-2.96 0-5.91 2.96-5.91 5.92v5.92c0 2.96 2.95 5.92 5.91 5.92h100.17c2.96 0 5.92-2.96 5.92-5.92v-5.92c0-2.96-2.96-5.92-5.92-5.92"/>
<text xml:space="preserve" x="821.38" y="-119.33" font-family="Helvetica,sans-Serif" font-size="9">strip-self-transitions.mjs</text>
</a></g><g class="node"><title>src/report/index.mjs</title><a xlink:href="src/report/index.mjs" xlink:title="index.mjs">
<path fill="#ffc" stroke="#000" d="M765.71-107.88h-43.17c-2.96 0-5.92 2.96-5.92 5.92v5.92c0 2.96 2.96 5.92 5.92 5.92h43.17c2.96 0 5.91-2.96 5.91-5.92v-5.92c0-2.96-2.95-5.92-5.91-5.92"/>
<text xml:space="preserve" x="724.62" y="-95.33" font-family="Helvetica,sans-Serif" font-size="9">index.mjs</text>
</a></g><g class="edge"><title>src/main/options/assert-validity.mjs-&gt;src/report/index.mjs</title><path fill="none" stroke="#000" stroke-opacity=".2" stroke-width="2" d="M668.4-248h84.85v130.65"/><path fill-opacity=".2" stroke="#000" stroke-opacity=".2" stroke-width="2" d="m755.35-117.35-2.1 6-2.1-6z"/></g><g class="node"><title>src/main/helpers.mjs</title><a xlink:href="src/main/helpers.mjs" xlink:title="helpers.mjs">
<path fill="#0f0" stroke="#000" d="M769.83-366.88h-51.41c-2.96 0-5.92 2.96-5.92 5.92v5.92c0 2.96 2.96 5.92 5.92 5.92h51.41c2.96 0 5.92-2.96 5.92-5.92v-5.92c0-2.96-2.96-5.92-5.92-5.92"/>
<text xml:space="preserve" x="720.5" y="-354.32" font-family="Helvetica,sans-Serif" font-size="9">helpers.mjs</text>
</a></g><g class="edge"><title>src/main/options/normalize.mjs-&gt;src/main/helpers.mjs</title><path fill="none" stroke="#000" stroke-opacity=".2" stroke-width="2" d="M636.25-287.29v-29.09h118v-23.35"/><path fill-opacity=".2" stroke="#000" stroke-opacity=".2" stroke-width="2" d="m752.15-339.73 2.1-6 2.1 6z"/></g><g class="node"><title>src/main/options/defaults.mjs</title><a xlink:href="src/main/options/defaults.mjs" xlink:title="defaults.mjs">
<path fill="#0f0" stroke="#000" d="M770.58-286.88h-52.91c-2.96 0-5.92 2.96-5.92 5.92v5.92c0 2.96 2.96 5.92 5.92 5.92h52.91c2.96 0 5.92-2.96 5.92-5.92v-5.92c0-2.96-2.96-5.92-5.92-5.92"/>
<text xml:space="preserve" x="719.75" y="-274.32" font-family="Helvetica,sans-Serif" font-size="9">defaults.mjs</text>
</a></g><g class="edge"><title>src/main/options/normalize.mjs-&gt;src/main/options/defaults.mjs</title><path fill="none" stroke="#000" stroke-opacity=".2" stroke-width="2" d="M660.61-275.04h41.65"/><path fill-opacity=".2" stroke="#000" stroke-opacity=".2" stroke-width="2" d="m702.26-277.14 6 2.1-6 2.1z"/></g><g class="node"><title>src/utl/array-util.mjs</title><a xlink:href="src/utl/array-util.mjs" xlink:title="array-util.mjs">
<path fill="#ffc" stroke="#000" d="M772.46-569.88h-56.67c-2.96 0-5.91 2.96-5.91 5.92v5.92c0 2.96 2.95 5.92 5.91 5.92h56.67c2.96 0 5.92-2.96 5.92-5.92v-5.92c0-2.96-2.96-5.92-5.92-5.92"/>
<text xml:space="preserve" x="717.88" y="-557.33" font-family="Helvetica,sans-Serif" font-size="9">array-util.mjs</text>
</a></g><g class="edge"><title>src/main/options/normalize.mjs-&gt;src/utl/array-util.mjs</title><path fill="none" stroke="#000" stroke-opacity=".2" stroke-width="2" d="M660.77-280.96h42.48V-561h.64"/><path fill-opacity=".2" stroke="#000" stroke-opacity=".2" stroke-width="2" d="m700.61-563.1 6 2.1-6 2.1z"/></g><g class="edge"><title>src/main/report-wrap.mjs-&gt;src/enrich/summarize/index.mjs</title><path fill="none" stroke="#000" stroke-opacity=".2" stroke-width="2" d="M664.16-159.92h25.09v-635.46h18.09"/><path fill-opacity=".2" stroke="#000" stroke-opacity=".2" stroke-width="2" d="m707.34-797.48 6 2.1-6 2.1z"/></g><g class="edge"><title>src/main/report-wrap.mjs-&gt;src/graph-utl/compare.mjs</title><path fill="none" stroke="#000" stroke-opacity=".2" stroke-width="2" d="M664.14-157.96h161.48"/><path fill-opacity=".2" stroke="#000" stroke-opacity=".2" stroke-width="2" d="m825.62-160.06 6 2.1-6 2.1z"/></g><g class="edge"><title>src/main/report-wrap.mjs-&gt;src/graph-utl/consolidate-to-pattern.mjs</title><path fill="none" stroke="#000" stroke-opacity=".2" stroke-width="2" d="M624.25-149.94V-68h174.87"/><path fill-opacity=".2" stroke="#000" stroke-opacity=".2" stroke-width="2" d="m799.12-70.1 6 2.1-6 2.1z"/></g><g class="edge"><title>src/main/report-wrap.mjs-&gt;src/graph-utl/filter-bank.mjs</title><path fill="none" stroke="#000" stroke-opacity=".2" stroke-width="2" d="M663.91-154.04h125.34V-96h34.32"/><path fill-opacity=".2" stroke="#000" stroke-opacity=".2" stroke-width="2" d="m823.57-98.1 6 2.1-6 2.1z"/></g><g class="edge"><title>src/main/report-wrap.mjs-&gt;src/graph-utl/strip-self-transitions.mjs</title><path fill="none" stroke="#000" stroke-opacity=".2" stroke-width="2" d="M663.94-156h160.31v14.6"/><path fill-opacity=".2" stroke="#000" stroke-opacity=".2" stroke-width="2" d="m826.35-141.4-2.1 6-2.1-6z"/></g><g class="edge"><title>src/main/report-wrap.mjs-&gt;src/report/index.mjs</title><path fill="none" stroke="#000" stroke-opacity=".2" stroke-width="2" d="M664.08-152.08h71.17v34.81"/><path fill-opacity=".2" stroke="#000" stroke-opacity=".2" stroke-width="2" d="m737.35-117.27-2.1 6-2.1-6z"/></g><g class="edge"><title>src/main/rule-set/assert-validity.mjs-&gt;src/utl/bus.mjs</title><path fill="none" stroke="#000" stroke-opacity=".2" stroke-width="2" d="M540.15-346.38h158.1v-270.18h9.37"/><path fill-opacity=".2" stroke="#000" stroke-opacity=".2" stroke-width="2" d="m707.62-618.66 6 2.1-6 2.1z"/></g><g class="edge"><title>src/main/rule-set/assert-validity.mjs-&gt;src/utl/object-util.mjs</title><path fill="none" stroke="#000" stroke-opacity=".2" stroke-width="2" d="M534.25-356.15v-231.89h164.29"/><path fill-opacity=".2" stroke="#000" stroke-opacity=".2" stroke-width="2" d="m698.54-590.14 6 2.1-6 2.1z"/></g><g class="edge"><title>src/main/rule-set/assert-validity.mjs-&gt;src/main/options/assert-validity.mjs</title><path fill="none" stroke="#000" stroke-opacity=".2" stroke-width="2" d="M540.08-340.88h43.17v74.61"/><path fill-opacity=".2" stroke="#000" stroke-opacity=".2" stroke-width="2" d="m585.35-266.27-2.1 6-2.1-6z"/></g><g class="edge"><title>src/main/rule-set/assert-validity.mjs-&gt;src/schema/utl.mjs</title><path fill="none" stroke="#000" stroke-opacity=".2" stroke-width="2" d="M538.25-356.32v-139.64h49.51"/><path fill-opacity=".2" stroke="#000" stroke-opacity=".2" stroke-width="2" d="m587.76-498.06 6 2.1-6 2.1z"/></g><g class="edge"><title>src/main/rule-set/assert-validity.mjs-&gt;src/main/helpers.mjs</title><path fill="none" stroke="#000" stroke-opacity=".2" stroke-width="2" d="M540.12-343.62h193.13v-.52"/><path fill-opacity=".2" stroke="#000" stroke-opacity=".2" stroke-width="2" d="m731.15-339.79 2.1-6 2.1 6z"/></g><g class="node"><title>src/schema/configuration.validate.mjs</title><a xlink:href="src/schema/configuration.validate.mjs" xlink:title="configuration.validate.mjs">
<path fill="#ffc" stroke="#000" d="M678.08-531.88H569.67c-2.96 0-5.92 2.96-5.92 5.92v5.92c0 2.96 2.96 5.92 5.92 5.92h108.41c2.96 0 5.92-2.96 5.92-5.92v-5.92c0-2.96-2.96-5.92-5.92-5.92"/>
<text xml:space="preserve" x="571.75" y="-519.33" font-family="Helvetica,sans-Serif" font-size="9">configuration.validate.mjs</text>
</a></g><g class="edge"><title>src/main/rule-set/assert-validity.mjs-&gt;src/schema/configuration.validate.mjs</title><path fill="none" stroke="#000" stroke-opacity=".2" stroke-width="2" d="M536.25-355.97V-523h18.22"/><path fill-opacity=".2" stroke="#000" stroke-opacity=".2" stroke-width="2" d="m554.47-525.1 6 2.1-6 2.1z"/></g><g class="edge"><title>src/main/rule-set/normalize.mjs-&gt;src/utl/bus.mjs</title><path fill="none" stroke="#000" stroke-opacity=".2" stroke-width="2" d="M532.13-379.96h161.12V-621h14.62"/><path fill-opacity=".2" stroke="#000" stroke-opacity=".2" stroke-width="2" d="m707.87-623.1 6 2.1-6 2.1z"/></g><g class="edge"><title>src/main/rule-set/normalize.mjs-&gt;src/main/helpers.mjs</title><path fill="none" stroke="#000" stroke-opacity=".2" stroke-width="2" d="M532.37-374.04h211.88v.69"/><path fill-opacity=".2" stroke="#000" stroke-opacity=".2" stroke-width="2" d="m746.35-376.17-2.1 6-2.1-6z"/></g><g class="edge"><title>src/main/helpers.mjs-&gt;src/utl/object-util.mjs</title><path fill="none" stroke="#000" stroke-opacity=".2" stroke-width="2" d="M776.19-358h23.06v-233h-9.64"/><path fill-opacity=".2" stroke="#000" stroke-opacity=".2" stroke-width="2" d="m789.61-588.9-6-2.1 6-2.1z"/></g><g class="node"><title>src/main/index.d.ts</title><a xlink:href="src/main/index.d.ts" xlink:title="index.d.ts">
<path fill="#0f0" stroke="#000" d="M267.33-410.88h-43.16c-2.96 0-5.92 2.96-5.92 5.92v5.92c0 2.96 2.96 5.92 5.92 5.92h43.16c2.96 0 5.92-2.96 5.92-5.92v-5.92c0-2.96-2.96-5.92-5.92-5.92"/>
<text xml:space="preserve" x="226.25" y="-398.32" font-family="Helvetica,sans-Serif" font-size="9">index.d.ts</text>
</a></g></g></svg>