<?xml version="1.0" encoding="UTF-8" standalone="no"?>
<!DOCTYPE svg PUBLIC "-//W3C//DTD SVG 1.1//EN"
 "http://www.w3.org/Graphics/SVG/1.1/DTD/svg11.dtd">
<!-- Generated by graphviz version 3.0.0 (20220226.1711)
 -->
<!-- Title: dependency&#45;cruiser output Pages: 1 -->
<svg width="726pt" height="948pt"
 viewBox="0.00 0.00 726.00 948.00" xmlns="http://www.w3.org/2000/svg" xmlns:xlink="http://www.w3.org/1999/xlink">
<g id="graph0" class="graph" transform="scale(1 1) rotate(0) translate(4 944)">
<title>dependency&#45;cruiser output</title>
<polygon fill="white" stroke="transparent" points="-4,4 -4,-944 722,-944 722,4 -4,4"/>
<g id="clust1" class="cluster">
<title>cluster_src</title>
<path fill="#ffffff" stroke="black" stroke-width="2" d="M20,-8C20,-8 698,-8 698,-8 704,-8 710,-14 710,-20 710,-20 710,-920 710,-920 710,-926 704,-932 698,-932 698,-932 20,-932 20,-932 14,-932 8,-926 8,-920 8,-920 8,-20 8,-20 8,-14 14,-8 20,-8"/>
<text text-anchor="middle" x="359" y="-920.8" font-family="Helvetica,sans-Serif" font-weight="bold" font-size="9.00">src</text>
</g>
<g id="clust2" class="cluster">
<title>cluster_src/cli</title>
<path fill="#ffffff" stroke="black" stroke-width="2" d="M28,-258C28,-258 112,-258 112,-258 118,-258 124,-264 124,-270 124,-270 124,-358 124,-358 124,-364 118,-370 112,-370 112,-370 28,-370 28,-370 22,-370 16,-364 16,-358 16,-358 16,-270 16,-270 16,-264 22,-258 28,-258"/>
<text text-anchor="middle" x="70" y="-358.8" font-family="Helvetica,sans-Serif" font-weight="bold" font-size="9.00">cli</text>
</g>
<g id="clust3" class="cluster">
<title>cluster_src/config&#45;utl</title>
<path fill="#ffffff" stroke="black" stroke-width="2" d="M152,-16C152,-16 266,-16 266,-16 272,-16 278,-22 278,-28 278,-28 278,-90 278,-90 278,-96 272,-102 266,-102 266,-102 152,-102 152,-102 146,-102 140,-96 140,-90 140,-90 140,-28 140,-28 140,-22 146,-16 152,-16"/>
<text text-anchor="middle" x="209" y="-90.8" font-family="Helvetica,sans-Serif" font-weight="bold" font-size="9.00">config&#45;utl</text>
</g>
<g id="clust4" class="cluster">
<title>cluster_src/config&#45;utl/extract&#45;depcruise&#45;config</title>
<path fill="#ffffff" stroke="black" stroke-width="2" d="M160,-24C160,-24 258,-24 258,-24 264,-24 270,-30 270,-36 270,-36 270,-64 270,-64 270,-70 264,-76 258,-76 258,-76 160,-76 160,-76 154,-76 148,-70 148,-64 148,-64 148,-36 148,-36 148,-30 154,-24 160,-24"/>
<text text-anchor="middle" x="209" y="-64.8" font-family="Helvetica,sans-Serif" font-weight="bold" font-size="9.00">extract&#45;depcruise&#45;config</text>
</g>
<g id="clust5" class="cluster">
<title>cluster_src/enrich</title>
<path fill="#ffffff" stroke="black" stroke-width="2" d="M451.5,-584C451.5,-584 513.5,-584 513.5,-584 519.5,-584 525.5,-590 525.5,-596 525.5,-596 525.5,-684 525.5,-684 525.5,-690 519.5,-696 513.5,-696 513.5,-696 451.5,-696 451.5,-696 445.5,-696 439.5,-690 439.5,-684 439.5,-684 439.5,-596 439.5,-596 439.5,-590 445.5,-584 451.5,-584"/>
<text text-anchor="middle" x="482.5" y="-684.8" font-family="Helvetica,sans-Serif" font-weight="bold" font-size="9.00">enrich</text>
</g>
<g id="clust6" class="cluster">
<title>cluster_src/enrich/summarize</title>
<path fill="#ffffff" stroke="black" stroke-width="2" d="M459.5,-592C459.5,-592 505.5,-592 505.5,-592 511.5,-592 517.5,-598 517.5,-604 517.5,-604 517.5,-632 517.5,-632 517.5,-638 511.5,-644 505.5,-644 505.5,-644 459.5,-644 459.5,-644 453.5,-644 447.5,-638 447.5,-632 447.5,-632 447.5,-604 447.5,-604 447.5,-598 453.5,-592 459.5,-592"/>
<text text-anchor="middle" x="482.5" y="-632.8" font-family="Helvetica,sans-Serif" font-weight="bold" font-size="9.00">summarize</text>
</g>
<g id="clust7" class="cluster">
<title>cluster_src/extract</title>
<path fill="#ffffff" stroke="black" stroke-width="2" d="M451.5,-704C451.5,-704 513.5,-704 513.5,-704 519.5,-704 525.5,-710 525.5,-716 525.5,-716 525.5,-804 525.5,-804 525.5,-810 519.5,-816 513.5,-816 513.5,-816 451.5,-816 451.5,-816 445.5,-816 439.5,-810 439.5,-804 439.5,-804 439.5,-716 439.5,-716 439.5,-710 445.5,-704 451.5,-704"/>
<text text-anchor="middle" x="482.5" y="-804.8" font-family="Helvetica,sans-Serif" font-weight="bold" font-size="9.00">extract</text>
</g>
<g id="clust8" class="cluster">
<title>cluster_src/extract/transpile</title>
<path fill="#ffffff" stroke="black" stroke-width="2" d="M459.5,-712C459.5,-712 505.5,-712 505.5,-712 511.5,-712 517.5,-718 517.5,-724 517.5,-724 517.5,-752 517.5,-752 517.5,-758 511.5,-764 505.5,-764 505.5,-764 459.5,-764 459.5,-764 453.5,-764 447.5,-758 447.5,-752 447.5,-752 447.5,-724 447.5,-724 447.5,-718 453.5,-712 459.5,-712"/>
<text text-anchor="middle" x="482.5" y="-752.8" font-family="Helvetica,sans-Serif" font-weight="bold" font-size="9.00">transpile</text>
</g>
<g id="clust9" class="cluster">
<title>cluster_src/graph&#45;utl</title>
<path fill="#ffffff" stroke="black" stroke-width="2" d="M429,-404C429,-404 536,-404 536,-404 542,-404 548,-410 548,-416 548,-416 548,-564 548,-564 548,-570 542,-576 536,-576 536,-576 429,-576 429,-576 423,-576 417,-570 417,-564 417,-564 417,-416 417,-416 417,-410 423,-404 429,-404"/>
<text text-anchor="middle" x="482.5" y="-564.8" font-family="Helvetica,sans-Serif" font-weight="bold" font-size="9.00">graph&#45;utl</text>
</g>
<g id="clust10" class="cluster">
<title>cluster_src/main</title>
<path fill="#ffffff" stroke="black" stroke-width="2" d="M186,-110C186,-110 690,-110 690,-110 696,-110 702,-116 702,-122 702,-122 702,-384 702,-384 702,-390 696,-396 690,-396 690,-396 186,-396 186,-396 180,-396 174,-390 174,-384 174,-384 174,-122 174,-122 174,-116 180,-110 186,-110"/>
<text text-anchor="middle" x="438" y="-384.8" font-family="Helvetica,sans-Serif" font-weight="bold" font-size="9.00">main</text>
</g>
<g id="clust12" class="cluster">
<title>cluster_src/main/options</title>
<path fill="#ffffff" stroke="black" stroke-width="2" d="M453.5,-118C453.5,-118 650,-118 650,-118 656,-118 662,-124 662,-130 662,-130 662,-188 662,-188 662,-194 656,-200 650,-200 650,-200 453.5,-200 453.5,-200 447.5,-200 441.5,-194 441.5,-188 441.5,-188 441.5,-130 441.5,-130 441.5,-124 447.5,-118 453.5,-118"/>
<text text-anchor="middle" x="551.75" y="-188.8" font-family="Helvetica,sans-Serif" font-weight="bold" font-size="9.00">options</text>
</g>
<g id="clust15" class="cluster">
<title>cluster_src/main/utl</title>
<path fill="#ffffff" stroke="black" stroke-width="2" d="M568,-208C568,-208 682,-208 682,-208 688,-208 694,-214 694,-220 694,-220 694,-248 694,-248 694,-254 688,-260 682,-260 682,-260 568,-260 568,-260 562,-260 556,-254 556,-248 556,-248 556,-220 556,-220 556,-214 562,-208 568,-208"/>
<text text-anchor="middle" x="625" y="-248.8" font-family="Helvetica,sans-Serif" font-weight="bold" font-size="9.00">utl</text>
</g>
<g id="clust11" class="cluster">
<title>cluster_src/main/files&#45;and&#45;dirs</title>
<path fill="#ffffff" stroke="black" stroke-width="2" d="M322,-318C322,-318 380,-318 380,-318 386,-318 392,-324 392,-330 392,-330 392,-358 392,-358 392,-364 386,-370 380,-370 380,-370 322,-370 322,-370 316,-370 310,-364 310,-358 310,-358 310,-330 310,-330 310,-324 316,-318 322,-318"/>
<text text-anchor="middle" x="351" y="-358.8" font-family="Helvetica,sans-Serif" font-weight="bold" font-size="9.00">files&#45;and&#45;dirs</text>
</g>
<g id="clust13" class="cluster">
<title>cluster_src/main/resolve&#45;options</title>
<path fill="#ffffff" stroke="black" stroke-width="2" d="M322,-258C322,-258 381,-258 381,-258 387,-258 393,-264 393,-270 393,-270 393,-298 393,-298 393,-304 387,-310 381,-310 381,-310 322,-310 322,-310 316,-310 310,-304 310,-298 310,-298 310,-270 310,-270 310,-264 316,-258 322,-258"/>
<text text-anchor="middle" x="351.5" y="-298.8" font-family="Helvetica,sans-Serif" font-weight="bold" font-size="9.00">resolve&#45;options</text>
</g>
<g id="clust14" class="cluster">
<title>cluster_src/main/rule&#45;set</title>
<path fill="#ffffff" stroke="black" stroke-width="2" d="M322,-142C322,-142 380,-142 380,-142 386,-142 392,-148 392,-154 392,-154 392,-212 392,-212 392,-218 386,-224 380,-224 380,-224 322,-224 322,-224 316,-224 310,-218 310,-212 310,-212 310,-154 310,-154 310,-148 316,-142 322,-142"/>
<text text-anchor="middle" x="351" y="-212.8" font-family="Helvetica,sans-Serif" font-weight="bold" font-size="9.00">rule&#45;set</text>
</g>
<g id="clust16" class="cluster">
<title>cluster_src/report</title>
<path fill="#ffffff" stroke="black" stroke-width="2" d="M602,-404C602,-404 648,-404 648,-404 654,-404 660,-410 660,-416 660,-416 660,-444 660,-444 660,-450 654,-456 648,-456 648,-456 602,-456 602,-456 596,-456 590,-450 590,-444 590,-444 590,-416 590,-416 590,-410 596,-404 602,-404"/>
<text text-anchor="middle" x="625" y="-444.8" font-family="Helvetica,sans-Serif" font-weight="bold" font-size="9.00">report</text>
</g>
<g id="clust17" class="cluster">
<title>cluster_src/schema</title>
<path fill="#ffffff" stroke="black" stroke-width="2" d="M430,-824C430,-824 535,-824 535,-824 541,-824 547,-830 547,-836 547,-836 547,-894 547,-894 547,-900 541,-906 535,-906 535,-906 430,-906 430,-906 424,-906 418,-900 418,-894 418,-894 418,-836 418,-836 418,-830 424,-824 430,-824"/>
<text text-anchor="middle" x="482.5" y="-894.8" font-family="Helvetica,sans-Serif" font-weight="bold" font-size="9.00">schema</text>
</g>
<g id="clust18" class="cluster">
<title>cluster_src/utl</title>
<path fill="#ffffff" stroke="black" stroke-width="2" d="M328,-404C328,-404 374,-404 374,-404 380,-404 386,-410 386,-416 386,-416 386,-444 386,-444 386,-450 380,-456 374,-456 374,-456 328,-456 328,-456 322,-456 316,-450 316,-444 316,-444 316,-416 316,-416 316,-410 322,-404 328,-404"/>
<text text-anchor="middle" x="351" y="-444.8" font-family="Helvetica,sans-Serif" font-weight="bold" font-size="9.00">utl</text>
</g>
<!-- src/cli/format&#45;meta&#45;info.js -->
<g id="node1" class="node">
<title>src/cli/format&#45;meta&#45;info.js</title>
<g id="a_node1"><a xlink:href="src/cli/format-meta-info.js" xlink:title="format&#45;meta&#45;info.js">
<path fill="lightgray" stroke="black" d="M110,-344C110,-344 30,-344 30,-344 27,-344 24,-341 24,-338 24,-338 24,-332 24,-332 24,-329 27,-326 30,-326 30,-326 110,-326 110,-326 113,-326 116,-329 116,-332 116,-332 116,-338 116,-338 116,-341 113,-344 110,-344"/>
<text text-anchor="start" x="32" y="-332.8" font-family="Helvetica,sans-Serif" font-size="9.00" fill="gray">format&#45;meta&#45;info.js</text>
</a>
</g>
</g>
<!-- src/main/index.js -->
<g id="node2" class="node">
<title>src/main/index.js</title>
<g id="a_node2"><a xlink:href="src/main/index.js" xlink:title="index.js">
<path fill="lime" stroke="black" d="M230,-314C230,-314 188,-314 188,-314 185,-314 182,-311 182,-308 182,-308 182,-302 182,-302 182,-299 185,-296 188,-296 188,-296 230,-296 230,-296 233,-296 236,-299 236,-302 236,-302 236,-308 236,-308 236,-311 233,-314 230,-314"/>
<text text-anchor="start" x="193" y="-302.8" font-family="Helvetica,sans-Serif" font-size="9.00">index.js</text>
</a>
</g>
</g>
<!-- src/cli/format&#45;meta&#45;info.js&#45;&gt;src/main/index.js -->
<g id="edge1" class="edge">
<title>src/cli/format&#45;meta&#45;info.js&#45;&gt;src/main/index.js</title>
<path fill="none" stroke="#000000" stroke-width="2" stroke-opacity="0.200000" d="M107,-325.86C107,-318.03 107,-308 107,-308 107,-308 175.93,-308 175.93,-308"/>
<polygon fill="#000000" fill-opacity="0.200000" stroke="#000000" stroke-width="2" stroke-opacity="0.200000" points="175.93,-310.1 181.93,-308 175.93,-305.9 175.93,-310.1"/>
</g>
<!-- src/main/resolve&#45;options/normalize.js -->
<g id="node6" class="node">
<title>src/main/resolve&#45;options/normalize.js</title>
<g id="a_node6"><a xlink:href="src/main/resolve-options/normalize.js" xlink:title="normalize.js">
<path fill="lime" stroke="black" d="M378,-284C378,-284 324,-284 324,-284 321,-284 318,-281 318,-278 318,-278 318,-272 318,-272 318,-269 321,-266 324,-266 324,-266 378,-266 378,-266 381,-266 384,-269 384,-272 384,-272 384,-278 384,-278 384,-281 381,-284 378,-284"/>
<text text-anchor="start" x="326" y="-272.8" font-family="Helvetica,sans-Serif" font-size="9.00">normalize.js</text>
</a>
</g>
</g>
<!-- src/main/index.js&#45;&gt;src/main/resolve&#45;options/normalize.js -->
<g id="edge14" class="edge">
<title>src/main/index.js&#45;&gt;src/main/resolve&#45;options/normalize.js</title>
<path fill="none" stroke="#000000" stroke-width="2" stroke-opacity="0.200000" d="M230,-295.84C230,-287.01 230,-275 230,-275 230,-275 311.94,-275 311.94,-275"/>
<polygon fill="#000000" fill-opacity="0.200000" stroke="#000000" stroke-width="2" stroke-opacity="0.200000" points="311.94,-277.1 317.94,-275 311.94,-272.9 311.94,-277.1"/>
</g>
<!-- src/enrich/index.js -->
<g id="node7" class="node">
<title>src/enrich/index.js</title>
<g id="a_node7"><a xlink:href="src/enrich/index.js" xlink:title="index.js">
<path fill="lightgray" stroke="black" d="M503.5,-670C503.5,-670 461.5,-670 461.5,-670 458.5,-670 455.5,-667 455.5,-664 455.5,-664 455.5,-658 455.5,-658 455.5,-655 458.5,-652 461.5,-652 461.5,-652 503.5,-652 503.5,-652 506.5,-652 509.5,-655 509.5,-658 509.5,-658 509.5,-664 509.5,-664 509.5,-667 506.5,-670 503.5,-670"/>
<text text-anchor="start" x="466.5" y="-658.8" font-family="Helvetica,sans-Serif" font-size="9.00" fill="gray">index.js</text>
</a>
</g>
</g>
<!-- src/main/index.js&#45;&gt;src/enrich/index.js -->
<g id="edge5" class="edge">
<title>src/main/index.js&#45;&gt;src/enrich/index.js</title>
<path fill="none" stroke="#000000" stroke-width="2" stroke-opacity="0.200000" d="M213,-314.16C213,-369.88 213,-661 213,-661 213,-661 449.43,-661 449.43,-661"/>
<polygon fill="#000000" fill-opacity="0.200000" stroke="#000000" stroke-width="2" stroke-opacity="0.200000" points="449.43,-663.1 455.43,-661 449.43,-658.9 449.43,-663.1"/>
</g>
<!-- src/extract/index.js -->
<g id="node9" class="node">
<title>src/extract/index.js</title>
<g id="a_node9"><a xlink:href="src/extract/index.js" xlink:title="index.js">
<path fill="lightgray" stroke="black" d="M503.5,-790C503.5,-790 461.5,-790 461.5,-790 458.5,-790 455.5,-787 455.5,-784 455.5,-784 455.5,-778 455.5,-778 455.5,-775 458.5,-772 461.5,-772 461.5,-772 503.5,-772 503.5,-772 506.5,-772 509.5,-775 509.5,-778 509.5,-778 509.5,-784 509.5,-784 509.5,-787 506.5,-790 503.5,-790"/>
<text text-anchor="start" x="466.5" y="-778.8" font-family="Helvetica,sans-Serif" font-size="9.00" fill="gray">index.js</text>
</a>
</g>
</g>
<!-- src/main/index.js&#45;&gt;src/extract/index.js -->
<g id="edge6" class="edge">
<title>src/main/index.js&#45;&gt;src/extract/index.js</title>
<path fill="none" stroke="#000000" stroke-width="2" stroke-opacity="0.200000" d="M198,-314.08C198,-379.89 198,-781 198,-781 198,-781 449.48,-781 449.48,-781"/>
<polygon fill="#000000" fill-opacity="0.200000" stroke="#000000" stroke-width="2" stroke-opacity="0.200000" points="449.48,-783.1 455.48,-781 449.48,-778.9 449.48,-783.1"/>
</g>
<!-- src/extract/transpile/meta.js -->
<g id="node10" class="node">
<title>src/extract/transpile/meta.js</title>
<g id="a_node10"><a xlink:href="src/extract/transpile/meta.js" xlink:title="meta.js">
<path fill="lightgray" stroke="black" d="M503.5,-738C503.5,-738 461.5,-738 461.5,-738 458.5,-738 455.5,-735 455.5,-732 455.5,-732 455.5,-726 455.5,-726 455.5,-723 458.5,-720 461.5,-720 461.5,-720 503.5,-720 503.5,-720 506.5,-720 509.5,-723 509.5,-726 509.5,-726 509.5,-732 509.5,-732 509.5,-735 506.5,-738 503.5,-738"/>
<text text-anchor="start" x="467.5" y="-726.8" font-family="Helvetica,sans-Serif" font-size="9.00" fill="gray">meta.js</text>
</a>
</g>
</g>
<!-- src/main/index.js&#45;&gt;src/extract/transpile/meta.js -->
<g id="edge7" class="edge">
<title>src/main/index.js&#45;&gt;src/extract/transpile/meta.js</title>
<path fill="none" stroke="#000000" stroke-width="2" stroke-opacity="0.200000" d="M206,-314.32C206,-376.76 206,-732 206,-732 206,-732 449.48,-732 449.48,-732"/>
<polygon fill="#000000" fill-opacity="0.200000" stroke="#000000" stroke-width="2" stroke-opacity="0.200000" points="449.48,-734.1 455.48,-732 449.48,-729.9 449.48,-734.1"/>
</g>
<!-- src/main/files&#45;and&#45;dirs/normalize.js -->
<g id="node16" class="node">
<title>src/main/files&#45;and&#45;dirs/normalize.js</title>
<g id="a_node16"><a xlink:href="src/main/files-and-dirs/normalize.js" xlink:title="normalize.js">
<path fill="lime" stroke="black" d="M378,-344C378,-344 324,-344 324,-344 321,-344 318,-341 318,-338 318,-338 318,-332 318,-332 318,-329 321,-326 324,-326 324,-326 378,-326 378,-326 381,-326 384,-329 384,-332 384,-332 384,-338 384,-338 384,-341 381,-344 378,-344"/>
<text text-anchor="start" x="326" y="-332.8" font-family="Helvetica,sans-Serif" font-size="9.00">normalize.js</text>
</a>
</g>
</g>
<!-- src/main/index.js&#45;&gt;src/main/files&#45;and&#45;dirs/normalize.js -->
<g id="edge10" class="edge">
<title>src/main/index.js&#45;&gt;src/main/files&#45;and&#45;dirs/normalize.js</title>
<path fill="none" stroke="#000000" stroke-width="2" stroke-opacity="0.200000" d="M229,-314.16C229,-322.99 229,-335 229,-335 229,-335 311.99,-335 311.99,-335"/>
<polygon fill="#000000" fill-opacity="0.200000" stroke="#000000" stroke-width="2" stroke-opacity="0.200000" points="311.99,-337.1 317.99,-335 311.99,-332.9 311.99,-337.1"/>
</g>
<!-- src/schema/cruise&#45;result.schema.js -->
<g id="node17" class="node">
<title>src/schema/cruise&#45;result.schema.js</title>
<g id="a_node17"><a xlink:href="src/schema/cruise-result.schema.js" xlink:title="cruise&#45;result.schema.js">
<path fill="lightgray" stroke="black" d="M531.5,-880C531.5,-880 433.5,-880 433.5,-880 430.5,-880 427.5,-877 427.5,-874 427.5,-874 427.5,-868 427.5,-868 427.5,-865 430.5,-862 433.5,-862 433.5,-862 531.5,-862 531.5,-862 534.5,-862 537.5,-865 537.5,-868 537.5,-868 537.5,-874 537.5,-874 537.5,-877 534.5,-880 531.5,-880"/>
<text text-anchor="start" x="435.5" y="-868.8" font-family="Helvetica,sans-Serif" font-size="9.00" fill="gray">cruise&#45;result.schema.js</text>
</a>
</g>
</g>
<!-- src/main/index.js&#45;&gt;src/schema/cruise&#45;result.schema.js -->
<g id="edge8" class="edge">
<title>src/main/index.js&#45;&gt;src/schema/cruise&#45;result.schema.js</title>
<path fill="none" stroke="#000000" stroke-width="2" stroke-opacity="0.200000" d="M190,-314.35C190,-387.94 190,-871 190,-871 190,-871 421.48,-871 421.48,-871"/>
<polygon fill="#000000" fill-opacity="0.200000" stroke="#000000" stroke-width="2" stroke-opacity="0.200000" points="421.48,-873.1 427.48,-871 421.48,-868.9 421.48,-873.1"/>
</g>
<!-- src/utl/bus.js -->
<g id="node18" class="node">
<title>src/utl/bus.js</title>
<g id="a_node18"><a xlink:href="src/utl/bus.js" xlink:title="bus.js">
<path fill="lightgray" stroke="black" d="M372,-430C372,-430 330,-430 330,-430 327,-430 324,-427 324,-424 324,-424 324,-418 324,-418 324,-415 327,-412 330,-412 330,-412 372,-412 372,-412 375,-412 378,-415 378,-418 378,-418 378,-424 378,-424 378,-427 375,-430 372,-430"/>
<text text-anchor="start" x="338.5" y="-418.8" font-family="Helvetica,sans-Serif" font-size="9.00" fill="gray">bus.js</text>
</a>
</g>
</g>
<!-- src/main/index.js&#45;&gt;src/utl/bus.js -->
<g id="edge9" class="edge">
<title>src/main/index.js&#45;&gt;src/utl/bus.js</title>
<path fill="none" stroke="#000000" stroke-width="2" stroke-opacity="0.200000" d="M221,-314.1C221,-341.45 221,-421 221,-421 221,-421 317.75,-421 317.75,-421"/>
<polygon fill="#000000" fill-opacity="0.200000" stroke="#000000" stroke-width="2" stroke-opacity="0.200000" points="317.75,-423.1 323.75,-421 317.75,-418.9 317.75,-423.1"/>
</g>
<!-- src/main/options/normalize.js -->
<g id="node19" class="node">
<title>src/main/options/normalize.js</title>
<g id="a_node19"><a xlink:href="src/main/options/normalize.js" xlink:title="normalize.js">
<path fill="lime" stroke="black" d="M509.5,-144C509.5,-144 455.5,-144 455.5,-144 452.5,-144 449.5,-141 449.5,-138 449.5,-138 449.5,-132 449.5,-132 449.5,-129 452.5,-126 455.5,-126 455.5,-126 509.5,-126 509.5,-126 512.5,-126 515.5,-129 515.5,-132 515.5,-132 515.5,-138 515.5,-138 515.5,-141 512.5,-144 509.5,-144"/>
<text text-anchor="start" x="457.5" y="-132.8" font-family="Helvetica,sans-Serif" font-size="9.00">normalize.js</text>
</a>
</g>
</g>
<!-- src/main/index.js&#45;&gt;src/main/options/normalize.js -->
<g id="edge11" class="edge">
<title>src/main/index.js&#45;&gt;src/main/options/normalize.js</title>
<path fill="none" stroke="#000000" stroke-width="2" stroke-opacity="0.200000" d="M196,-295.86C196,-260.55 196,-135 196,-135 196,-135 443.35,-135 443.35,-135"/>
<polygon fill="#000000" fill-opacity="0.200000" stroke="#000000" stroke-width="2" stroke-opacity="0.200000" points="443.35,-137.1 449.35,-135 443.35,-132.9 443.35,-137.1"/>
</g>
<!-- src/main/options/validate.js -->
<g id="node20" class="node">
<title>src/main/options/validate.js</title>
<g id="a_node20"><a xlink:href="src/main/options/validate.js" xlink:title="validate.js">
<path fill="lime" stroke="black" d="M505.5,-174C505.5,-174 459.5,-174 459.5,-174 456.5,-174 453.5,-171 453.5,-168 453.5,-168 453.5,-162 453.5,-162 453.5,-159 456.5,-156 459.5,-156 459.5,-156 505.5,-156 505.5,-156 508.5,-156 511.5,-159 511.5,-162 511.5,-162 511.5,-168 511.5,-168 511.5,-171 508.5,-174 505.5,-174"/>
<text text-anchor="start" x="461.5" y="-162.8" font-family="Helvetica,sans-Serif" font-size="9.00">validate.js</text>
</a>
</g>
</g>
<!-- src/main/index.js&#45;&gt;src/main/options/validate.js -->
<g id="edge12" class="edge">
<title>src/main/index.js&#45;&gt;src/main/options/validate.js</title>
<path fill="none" stroke="#000000" stroke-width="2" stroke-opacity="0.200000" d="M236.27,-305C305.58,-305 483,-305 483,-305 483,-305 483,-180.19 483,-180.19"/>
<polygon fill="#000000" fill-opacity="0.200000" stroke="#000000" stroke-width="2" stroke-opacity="0.200000" points="485.1,-180.19 483,-174.19 480.9,-180.19 485.1,-180.19"/>
</g>
<!-- src/main/report&#45;wrap.js -->
<g id="node21" class="node">
<title>src/main/report&#45;wrap.js</title>
<g id="a_node21"><a xlink:href="src/main/report-wrap.js" xlink:title="report&#45;wrap.js">
<path fill="lime" stroke="black" d="M381.5,-250C381.5,-250 320.5,-250 320.5,-250 317.5,-250 314.5,-247 314.5,-244 314.5,-244 314.5,-238 314.5,-238 314.5,-235 317.5,-232 320.5,-232 320.5,-232 381.5,-232 381.5,-232 384.5,-232 387.5,-235 387.5,-238 387.5,-238 387.5,-244 387.5,-244 387.5,-247 384.5,-250 381.5,-250"/>
<text text-anchor="start" x="322.5" y="-238.8" font-family="Helvetica,sans-Serif" font-size="9.00">report&#45;wrap.js</text>
</a>
</g>
</g>
<!-- src/main/index.js&#45;&gt;src/main/report&#45;wrap.js -->
<g id="edge13" class="edge">
<title>src/main/index.js&#45;&gt;src/main/report&#45;wrap.js</title>
<path fill="none" stroke="#000000" stroke-width="2" stroke-opacity="0.200000" d="M223,-295.83C223,-278.13 223,-241 223,-241 223,-241 308.32,-241 308.32,-241"/>
<polygon fill="#000000" fill-opacity="0.200000" stroke="#000000" stroke-width="2" stroke-opacity="0.200000" points="308.32,-243.1 314.32,-241 308.32,-238.9 308.32,-243.1"/>
</g>
<!-- src/main/rule&#45;set/normalize.js -->
<g id="node22" class="node">
<title>src/main/rule&#45;set/normalize.js</title>
<g id="a_node22"><a xlink:href="src/main/rule-set/normalize.js" xlink:title="normalize.js">
<path fill="lime" stroke="black" d="M378,-198C378,-198 324,-198 324,-198 321,-198 318,-195 318,-192 318,-192 318,-186 318,-186 318,-183 321,-180 324,-180 324,-180 378,-180 378,-180 381,-180 384,-183 384,-186 384,-186 384,-192 384,-192 384,-195 381,-198 378,-198"/>
<text text-anchor="start" x="326" y="-186.8" font-family="Helvetica,sans-Serif" font-size="9.00">normalize.js</text>
</a>
</g>
</g>
<!-- src/main/index.js&#45;&gt;src/main/rule&#45;set/normalize.js -->
<g id="edge15" class="edge">
<title>src/main/index.js&#45;&gt;src/main/rule&#45;set/normalize.js</title>
<path fill="none" stroke="#000000" stroke-width="2" stroke-opacity="0.200000" d="M216,-295.9C216,-268.55 216,-189 216,-189 216,-189 311.98,-189 311.98,-189"/>
<polygon fill="#000000" fill-opacity="0.200000" stroke="#000000" stroke-width="2" stroke-opacity="0.200000" points="311.98,-191.1 317.98,-189 311.98,-186.9 311.98,-191.1"/>
</g>
<!-- src/main/rule&#45;set/validate.js -->
<g id="node23" class="node">
<title>src/main/rule&#45;set/validate.js</title>
<g id="a_node23"><a xlink:href="src/main/rule-set/validate.js" xlink:title="validate.js">
<path fill="lime" stroke="black" d="M374,-168C374,-168 328,-168 328,-168 325,-168 322,-165 322,-162 322,-162 322,-156 322,-156 322,-153 325,-150 328,-150 328,-150 374,-150 374,-150 377,-150 380,-153 380,-156 380,-156 380,-162 380,-162 380,-165 377,-168 374,-168"/>
<text text-anchor="start" x="330" y="-156.8" font-family="Helvetica,sans-Serif" font-size="9.00">validate.js</text>
</a>
</g>
</g>
<!-- src/main/index.js&#45;&gt;src/main/rule&#45;set/validate.js -->
<g id="edge16" class="edge">
<title>src/main/index.js&#45;&gt;src/main/rule&#45;set/validate.js</title>
<path fill="none" stroke="#000000" stroke-width="2" stroke-opacity="0.200000" d="M209,-295.87C209,-263.9 209,-159 209,-159 209,-159 315.92,-159 315.92,-159"/>
<polygon fill="#000000" fill-opacity="0.200000" stroke="#000000" stroke-width="2" stroke-opacity="0.200000" points="315.92,-161.1 321.92,-159 315.92,-156.9 315.92,-161.1"/>
</g>
<!-- src/cli/format.js -->
<g id="node3" class="node">
<title>src/cli/format.js</title>
<g id="a_node3"><a xlink:href="src/cli/format.js" xlink:title="format.js">
<path fill="lightgray" stroke="black" d="M91,-314C91,-314 49,-314 49,-314 46,-314 43,-311 43,-308 43,-308 43,-302 43,-302 43,-299 46,-296 49,-296 49,-296 91,-296 91,-296 94,-296 97,-299 97,-302 97,-302 97,-308 97,-308 97,-311 94,-314 91,-314"/>
<text text-anchor="start" x="52.5" y="-302.8" font-family="Helvetica,sans-Serif" font-size="9.00" fill="gray">format.js</text>
</a>
</g>
</g>
<!-- src/cli/format.js&#45;&gt;src/main/index.js -->
<g id="edge2" class="edge">
<title>src/cli/format.js&#45;&gt;src/main/index.js</title>
<path fill="none" stroke="#000000" stroke-width="2" stroke-opacity="0.200000" d="M97.13,-302C97.13,-302 175.94,-302 175.94,-302"/>
<polygon fill="#000000" fill-opacity="0.200000" stroke="#000000" stroke-width="2" stroke-opacity="0.200000" points="175.94,-304.1 181.94,-302 175.94,-299.9 175.94,-304.1"/>
</g>
<!-- src/cli/index.js -->
<g id="node4" class="node">
<title>src/cli/index.js</title>
<g id="a_node4"><a xlink:href="src/cli/index.js" xlink:title="index.js">
<path fill="lightgray" stroke="black" d="M91,-284C91,-284 49,-284 49,-284 46,-284 43,-281 43,-278 43,-278 43,-272 43,-272 43,-269 46,-266 49,-266 49,-266 91,-266 91,-266 94,-266 97,-269 97,-272 97,-272 97,-278 97,-278 97,-281 94,-284 91,-284"/>
<text text-anchor="start" x="54" y="-272.8" font-family="Helvetica,sans-Serif" font-size="9.00" fill="gray">index.js</text>
</a>
</g>
</g>
<!-- src/cli/index.js&#45;&gt;src/main/index.js -->
<g id="edge3" class="edge">
<title>src/cli/index.js&#45;&gt;src/main/index.js</title>
<path fill="none" stroke="#000000" stroke-width="2" stroke-opacity="0.200000" d="M97,-279.5C132.11,-279.5 189,-279.5 189,-279.5 189,-279.5 189,-289.79 189,-289.79"/>
<polygon fill="#000000" fill-opacity="0.200000" stroke="#000000" stroke-width="2" stroke-opacity="0.200000" points="186.9,-289.79 189,-295.79 191.1,-289.79 186.9,-289.79"/>
</g>
<!-- src/config&#45;utl/extract&#45;depcruise&#45;config/index.js -->
<g id="node5" class="node">
<title>src/config&#45;utl/extract&#45;depcruise&#45;config/index.js</title>
<g id="a_node5"><a xlink:href="src/config-utl/extract-depcruise-config/index.js" xlink:title="index.js">
<path fill="lightgray" stroke="black" d="M230,-50C230,-50 188,-50 188,-50 185,-50 182,-47 182,-44 182,-44 182,-38 182,-38 182,-35 185,-32 188,-32 188,-32 230,-32 230,-32 233,-32 236,-35 236,-38 236,-38 236,-44 236,-44 236,-47 233,-50 230,-50"/>
<text text-anchor="start" x="193" y="-38.8" font-family="Helvetica,sans-Serif" font-size="9.00" fill="gray">index.js</text>
</a>
</g>
</g>
<!-- src/config&#45;utl/extract&#45;depcruise&#45;config/index.js&#45;&gt;src/main/resolve&#45;options/normalize.js -->
<g id="edge4" class="edge">
<title>src/config&#45;utl/extract&#45;depcruise&#45;config/index.js&#45;&gt;src/main/resolve&#45;options/normalize.js</title>
<path fill="none" stroke="#000000" stroke-width="2" stroke-opacity="0.200000" d="M203,-50.28C203,-93.22 203,-270.5 203,-270.5 203,-270.5 311.79,-270.5 311.79,-270.5"/>
<polygon fill="#000000" fill-opacity="0.200000" stroke="#000000" stroke-width="2" stroke-opacity="0.200000" points="311.79,-272.6 317.79,-270.5 311.79,-268.4 311.79,-272.6"/>
</g>
<!-- src/main/resolve&#45;options/normalize.js&#45;&gt;src/extract/transpile/meta.js -->
<g id="edge26" class="edge">
<title>src/main/resolve&#45;options/normalize.js&#45;&gt;src/extract/transpile/meta.js</title>
<path fill="none" stroke="#000000" stroke-width="2" stroke-opacity="0.200000" d="M384.43,-278C391.56,-278 397,-278 397,-278 397,-278 397,-726 397,-726 397,-726 449.45,-726 449.45,-726"/>
<polygon fill="#000000" fill-opacity="0.200000" stroke="#000000" stroke-width="2" stroke-opacity="0.200000" points="449.45,-728.1 455.45,-726 449.45,-723.9 449.45,-728.1"/>
</g>
<!-- src/graph&#45;utl/rule&#45;set.js -->
<g id="node14" class="node">
<title>src/graph&#45;utl/rule&#45;set.js</title>
<g id="a_node14"><a xlink:href="src/graph-utl/rule-set.js" xlink:title="rule&#45;set.js">
<path fill="lightgray" stroke="black" d="M504.5,-550C504.5,-550 460.5,-550 460.5,-550 457.5,-550 454.5,-547 454.5,-544 454.5,-544 454.5,-538 454.5,-538 454.5,-535 457.5,-532 460.5,-532 460.5,-532 504.5,-532 504.5,-532 507.5,-532 510.5,-535 510.5,-538 510.5,-538 510.5,-544 510.5,-544 510.5,-547 507.5,-550 504.5,-550"/>
<text text-anchor="start" x="462.5" y="-538.8" font-family="Helvetica,sans-Serif" font-size="9.00" fill="gray">rule&#45;set.js</text>
</a>
</g>
</g>
<!-- src/main/resolve&#45;options/normalize.js&#45;&gt;src/graph&#45;utl/rule&#45;set.js -->
<g id="edge27" class="edge">
<title>src/main/resolve&#45;options/normalize.js&#45;&gt;src/graph&#45;utl/rule&#45;set.js</title>
<path fill="none" stroke="#000000" stroke-width="2" stroke-opacity="0.200000" d="M384.22,-272C396.28,-272 407,-272 407,-272 407,-272 407,-541 407,-541 407,-541 448.39,-541 448.39,-541"/>
<polygon fill="#000000" fill-opacity="0.200000" stroke="#000000" stroke-width="2" stroke-opacity="0.200000" points="448.39,-543.1 454.39,-541 448.39,-538.9 448.39,-543.1"/>
</g>
<!-- src/enrich/summarize/index.js -->
<g id="node8" class="node">
<title>src/enrich/summarize/index.js</title>
<g id="a_node8"><a xlink:href="src/enrich/summarize/index.js" xlink:title="index.js">
<path fill="lightgray" stroke="black" d="M503.5,-618C503.5,-618 461.5,-618 461.5,-618 458.5,-618 455.5,-615 455.5,-612 455.5,-612 455.5,-606 455.5,-606 455.5,-603 458.5,-600 461.5,-600 461.5,-600 503.5,-600 503.5,-600 506.5,-600 509.5,-603 509.5,-606 509.5,-606 509.5,-612 509.5,-612 509.5,-615 506.5,-618 503.5,-618"/>
<text text-anchor="start" x="466.5" y="-606.8" font-family="Helvetica,sans-Serif" font-size="9.00" fill="gray">index.js</text>
</a>
</g>
</g>
<!-- src/graph&#45;utl/compare.js -->
<g id="node11" class="node">
<title>src/graph&#45;utl/compare.js</title>
<g id="a_node11"><a xlink:href="src/graph-utl/compare.js" xlink:title="compare.js">
<path fill="lightgray" stroke="black" d="M507.5,-520C507.5,-520 457.5,-520 457.5,-520 454.5,-520 451.5,-517 451.5,-514 451.5,-514 451.5,-508 451.5,-508 451.5,-505 454.5,-502 457.5,-502 457.5,-502 507.5,-502 507.5,-502 510.5,-502 513.5,-505 513.5,-508 513.5,-508 513.5,-514 513.5,-514 513.5,-517 510.5,-520 507.5,-520"/>
<text text-anchor="start" x="459.5" y="-508.8" font-family="Helvetica,sans-Serif" font-size="9.00" fill="gray">compare.js</text>
</a>
</g>
</g>
<!-- src/graph&#45;utl/consolidate&#45;to&#45;pattern.js -->
<g id="node12" class="node">
<title>src/graph&#45;utl/consolidate&#45;to&#45;pattern.js</title>
<g id="a_node12"><a xlink:href="src/graph-utl/consolidate-to-pattern.js" xlink:title="consolidate&#45;to&#45;pattern.js">
<path fill="lightgray" stroke="black" d="M534,-490C534,-490 431,-490 431,-490 428,-490 425,-487 425,-484 425,-484 425,-478 425,-478 425,-475 428,-472 431,-472 431,-472 534,-472 534,-472 537,-472 540,-475 540,-478 540,-478 540,-484 540,-484 540,-487 537,-490 534,-490"/>
<text text-anchor="start" x="433" y="-478.8" font-family="Helvetica,sans-Serif" font-size="9.00" fill="gray">consolidate&#45;to&#45;pattern.js</text>
</a>
</g>
</g>
<!-- src/graph&#45;utl/filterbank.js -->
<g id="node13" class="node">
<title>src/graph&#45;utl/filterbank.js</title>
<g id="a_node13"><a xlink:href="src/graph-utl/filterbank.js" xlink:title="filterbank.js">
<path fill="lightgray" stroke="black" d="M508,-460C508,-460 457,-460 457,-460 454,-460 451,-457 451,-454 451,-454 451,-448 451,-448 451,-445 454,-442 457,-442 457,-442 508,-442 508,-442 511,-442 514,-445 514,-448 514,-448 514,-454 514,-454 514,-457 511,-460 508,-460"/>
<text text-anchor="start" x="459" y="-448.8" font-family="Helvetica,sans-Serif" font-size="9.00" fill="gray">filterbank.js</text>
</a>
</g>
</g>
<!-- src/graph&#45;utl/strip&#45;self&#45;transitions.js -->
<g id="node15" class="node">
<title>src/graph&#45;utl/strip&#45;self&#45;transitions.js</title>
<g id="a_node15"><a xlink:href="src/graph-utl/strip-self-transitions.js" xlink:title="strip&#45;self&#45;transitions.js">
<path fill="lightgray" stroke="black" d="M529,-430C529,-430 436,-430 436,-430 433,-430 430,-427 430,-424 430,-424 430,-418 430,-418 430,-415 433,-412 436,-412 436,-412 529,-412 529,-412 532,-412 535,-415 535,-418 535,-418 535,-424 535,-424 535,-427 532,-430 529,-430"/>
<text text-anchor="start" x="438" y="-418.8" font-family="Helvetica,sans-Serif" font-size="9.00" fill="gray">strip&#45;self&#45;transitions.js</text>
</a>
</g>
</g>
<!-- src/main/options/defaults.js -->
<g id="node24" class="node">
<title>src/main/options/defaults.js</title>
<g id="a_node24"><a xlink:href="src/main/options/defaults.js" xlink:title="defaults.js">
<path fill="lime" stroke="black" d="M648,-144C648,-144 602,-144 602,-144 599,-144 596,-141 596,-138 596,-138 596,-132 596,-132 596,-129 599,-126 602,-126 602,-126 648,-126 648,-126 651,-126 654,-129 654,-132 654,-132 654,-138 654,-138 654,-141 651,-144 648,-144"/>
<text text-anchor="start" x="604" y="-132.8" font-family="Helvetica,sans-Serif" font-size="9.00">defaults.js</text>
</a>
</g>
</g>
<!-- src/main/options/normalize.js&#45;&gt;src/main/options/defaults.js -->
<g id="edge18" class="edge">
<title>src/main/options/normalize.js&#45;&gt;src/main/options/defaults.js</title>
<path fill="none" stroke="#000000" stroke-width="2" stroke-opacity="0.200000" d="M515.55,-132C515.55,-132 589.99,-132 589.99,-132"/>
<polygon fill="#000000" fill-opacity="0.200000" stroke="#000000" stroke-width="2" stroke-opacity="0.200000" points="589.99,-134.1 595.99,-132 589.99,-129.9 589.99,-134.1"/>
</g>
<!-- src/main/utl/normalize&#45;re&#45;properties.js -->
<g id="node25" class="node">
<title>src/main/utl/normalize&#45;re&#45;properties.js</title>
<g id="a_node25"><a xlink:href="src/main/utl/normalize-re-properties.js" xlink:title="normalize&#45;re&#45;properties.js">
<path fill="lime" stroke="black" d="M680,-234C680,-234 570,-234 570,-234 567,-234 564,-231 564,-228 564,-228 564,-222 564,-222 564,-219 567,-216 570,-216 570,-216 680,-216 680,-216 683,-216 686,-219 686,-222 686,-222 686,-228 686,-228 686,-231 683,-234 680,-234"/>
<text text-anchor="start" x="572" y="-222.8" font-family="Helvetica,sans-Serif" font-size="9.00">normalize&#45;re&#45;properties.js</text>
</a>
</g>
</g>
<!-- src/main/options/normalize.js&#45;&gt;src/main/utl/normalize&#45;re&#45;properties.js -->
<g id="edge17" class="edge">
<title>src/main/options/normalize.js&#45;&gt;src/main/utl/normalize&#45;re&#45;properties.js</title>
<path fill="none" stroke="#000000" stroke-width="2" stroke-opacity="0.200000" d="M515.53,-138C545.82,-138 586,-138 586,-138 586,-138 586,-209.69 586,-209.69"/>
<polygon fill="#000000" fill-opacity="0.200000" stroke="#000000" stroke-width="2" stroke-opacity="0.200000" points="583.9,-209.69 586,-215.69 588.1,-209.69 583.9,-209.69"/>
</g>
<!-- src/report/index.js -->
<g id="node26" class="node">
<title>src/report/index.js</title>
<g id="a_node26"><a xlink:href="src/report/index.js" xlink:title="index.js">
<path fill="lightgray" stroke="black" d="M646,-430C646,-430 604,-430 604,-430 601,-430 598,-427 598,-424 598,-424 598,-418 598,-418 598,-415 601,-412 604,-412 604,-412 646,-412 646,-412 649,-412 652,-415 652,-418 652,-418 652,-424 652,-424 652,-427 649,-430 646,-430"/>
<text text-anchor="start" x="609" y="-418.8" font-family="Helvetica,sans-Serif" font-size="9.00" fill="gray">index.js</text>
</a>
</g>
</g>
<!-- src/main/options/validate.js&#45;&gt;src/report/index.js -->
<g id="edge19" class="edge">
<title>src/main/options/validate.js&#45;&gt;src/report/index.js</title>
<path fill="none" stroke="#000000" stroke-width="2" stroke-opacity="0.200000" d="M511.57,-165C530.62,-165 552,-165 552,-165 552,-165 552,-421 552,-421 552,-421 591.82,-421 591.82,-421"/>
<polygon fill="#000000" fill-opacity="0.200000" stroke="#000000" stroke-width="2" stroke-opacity="0.200000" points="591.82,-423.1 597.82,-421 591.82,-418.9 591.82,-423.1"/>
</g>
<!-- src/main/report&#45;wrap.js&#45;&gt;src/enrich/summarize/index.js -->
<g id="edge20" class="edge">
<title>src/main/report&#45;wrap.js&#45;&gt;src/enrich/summarize/index.js</title>
<path fill="none" stroke="#000000" stroke-width="2" stroke-opacity="0.200000" d="M387.52,-243.14C395.7,-243.14 402,-243.14 402,-243.14 402,-243.14 402,-609 402,-609 402,-609 449.25,-609 449.25,-609"/>
<polygon fill="#000000" fill-opacity="0.200000" stroke="#000000" stroke-width="2" stroke-opacity="0.200000" points="449.25,-611.1 455.25,-609 449.25,-606.9 449.25,-611.1"/>
</g>
<!-- src/main/report&#45;wrap.js&#45;&gt;src/graph&#45;utl/compare.js -->
<g id="edge21" class="edge">
<title>src/main/report&#45;wrap.js&#45;&gt;src/graph&#45;utl/compare.js</title>
<path fill="none" stroke="#000000" stroke-width="2" stroke-opacity="0.200000" d="M387.63,-240.86C400.12,-240.86 411,-240.86 411,-240.86 411,-240.86 411,-511 411,-511 411,-511 445.35,-511 445.35,-511"/>
<polygon fill="#000000" fill-opacity="0.200000" stroke="#000000" stroke-width="2" stroke-opacity="0.200000" points="445.35,-513.1 451.35,-511 445.35,-508.9 445.35,-513.1"/>
</g>
<!-- src/main/report&#45;wrap.js&#45;&gt;src/graph&#45;utl/consolidate&#45;to&#45;pattern.js -->
<g id="edge22" class="edge">
<title>src/main/report&#45;wrap.js&#45;&gt;src/graph&#45;utl/consolidate&#45;to&#45;pattern.js</title>
<path fill="none" stroke="#000000" stroke-width="2" stroke-opacity="0.200000" d="M387.68,-238.57C402.42,-238.57 416,-238.57 416,-238.57 416,-238.57 416,-481 416,-481 416,-481 418.97,-481 418.97,-481"/>
<polygon fill="#000000" fill-opacity="0.200000" stroke="#000000" stroke-width="2" stroke-opacity="0.200000" points="418.97,-483.1 424.97,-481 418.97,-478.9 418.97,-483.1"/>
</g>
<!-- src/main/report&#45;wrap.js&#45;&gt;src/graph&#45;utl/filterbank.js -->
<g id="edge23" class="edge">
<title>src/main/report&#45;wrap.js&#45;&gt;src/graph&#45;utl/filterbank.js</title>
<path fill="none" stroke="#000000" stroke-width="2" stroke-opacity="0.200000" d="M387.64,-236.29C404.58,-236.29 421,-236.29 421,-236.29 421,-236.29 421,-451 421,-451 421,-451 444.67,-451 444.67,-451"/>
<polygon fill="#000000" fill-opacity="0.200000" stroke="#000000" stroke-width="2" stroke-opacity="0.200000" points="444.67,-453.1 450.67,-451 444.67,-448.9 444.67,-453.1"/>
</g>
<!-- src/main/report&#45;wrap.js&#45;&gt;src/graph&#45;utl/strip&#45;self&#45;transitions.js -->
<g id="edge24" class="edge">
<title>src/main/report&#45;wrap.js&#45;&gt;src/graph&#45;utl/strip&#45;self&#45;transitions.js</title>
<path fill="none" stroke="#000000" stroke-width="2" stroke-opacity="0.200000" d="M387.71,-247.71C412.23,-247.71 440,-247.71 440,-247.71 440,-247.71 440,-405.68 440,-405.68"/>
<polygon fill="#000000" fill-opacity="0.200000" stroke="#000000" stroke-width="2" stroke-opacity="0.200000" points="437.9,-405.68 440,-411.68 442.1,-405.68 437.9,-405.68"/>
</g>
<!-- src/main/report&#45;wrap.js&#45;&gt;src/report/index.js -->
<g id="edge25" class="edge">
<title>src/main/report&#45;wrap.js&#45;&gt;src/report/index.js</title>
<path fill="none" stroke="#000000" stroke-width="2" stroke-opacity="0.200000" d="M387.67,-245.43C462.33,-245.43 625,-245.43 625,-245.43 625,-245.43 625,-405.56 625,-405.56"/>
<polygon fill="#000000" fill-opacity="0.200000" stroke="#000000" stroke-width="2" stroke-opacity="0.200000" points="622.9,-405.56 625,-411.56 627.1,-405.56 622.9,-405.56"/>
</g>
<!-- src/main/rule&#45;set/normalize.js&#45;&gt;src/main/utl/normalize&#45;re&#45;properties.js -->
<g id="edge28" class="edge">
<title>src/main/rule&#45;set/normalize.js&#45;&gt;src/main/utl/normalize&#45;re&#45;properties.js</title>
<path fill="none" stroke="#000000" stroke-width="2" stroke-opacity="0.200000" d="M384.05,-189C446.36,-189 575,-189 575,-189 575,-189 575,-209.92 575,-209.92"/>
<polygon fill="#000000" fill-opacity="0.200000" stroke="#000000" stroke-width="2" stroke-opacity="0.200000" points="572.9,-209.92 575,-215.92 577.1,-209.92 572.9,-209.92"/>
</g>
<!-- src/main/rule&#45;set/validate.js&#45;&gt;src/main/options/validate.js -->
<g id="edge30" class="edge">
<title>src/main/rule&#45;set/validate.js&#45;&gt;src/main/options/validate.js</title>
<path fill="none" stroke="#000000" stroke-width="2" stroke-opacity="0.200000" d="M380.18,-160C380.18,-160 447.4,-160 447.4,-160"/>
<polygon fill="#000000" fill-opacity="0.200000" stroke="#000000" stroke-width="2" stroke-opacity="0.200000" points="447.4,-162.1 453.4,-160 447.4,-157.9 447.4,-162.1"/>
</g>
<!-- src/schema/configuration.schema.js -->
<g id="node27" class="node">
<title>src/schema/configuration.schema.js</title>
<g id="a_node27"><a xlink:href="src/schema/configuration.schema.js" xlink:title="configuration.schema.js">
<path fill="lightgray" stroke="black" d="M533,-850C533,-850 432,-850 432,-850 429,-850 426,-847 426,-844 426,-844 426,-838 426,-838 426,-835 429,-832 432,-832 432,-832 533,-832 533,-832 536,-832 539,-835 539,-838 539,-838 539,-844 539,-844 539,-847 536,-850 533,-850"/>
<text text-anchor="start" x="434" y="-838.8" font-family="Helvetica,sans-Serif" font-size="9.00" fill="gray">configuration.schema.js</text>
</a>
</g>
</g>
<!-- src/main/rule&#45;set/validate.js&#45;&gt;src/schema/configuration.schema.js -->
<g id="edge29" class="edge">
<title>src/main/rule&#45;set/validate.js&#45;&gt;src/schema/configuration.schema.js</title>
<path fill="none" stroke="#000000" stroke-width="2" stroke-opacity="0.200000" d="M380.17,-164C387.34,-164 393,-164 393,-164 393,-164 393,-841 393,-841 393,-841 419.82,-841 419.82,-841"/>
<polygon fill="#000000" fill-opacity="0.200000" stroke="#000000" stroke-width="2" stroke-opacity="0.200000" points="419.82,-843.1 425.82,-841 419.82,-838.9 419.82,-843.1"/>
</g>
</g>
</svg>
