<?xml version="1.0" encoding="UTF-8" standalone="no"?>
<!DOCTYPE svg PUBLIC "-//W3C//DTD SVG 1.1//EN"
 "http://www.w3.org/Graphics/SVG/1.1/DTD/svg11.dtd">
<!-- Generated by graphviz version 2.48.0 (20210717.1556)
 -->
<!-- Title: dependency&#45;cruiser output Pages: 1 -->
<svg width="732pt" height="860pt"
 viewBox="0.00 0.00 732.00 860.00" xmlns="http://www.w3.org/2000/svg" xmlns:xlink="http://www.w3.org/1999/xlink">
<g id="graph0" class="graph" transform="scale(1 1) rotate(0) translate(4 856)">
<title>dependency&#45;cruiser output</title>
<polygon fill="white" stroke="transparent" points="-4,4 -4,-856 728,-856 728,4 -4,4"/>
<g id="clust1" class="cluster">
<title>cluster_src</title>
<path fill="#ffffff" stroke="black" stroke-width="2" d="M20,-8C20,-8 704,-8 704,-8 710,-8 716,-14 716,-20 716,-20 716,-832 716,-832 716,-838 710,-844 704,-844 704,-844 20,-844 20,-844 14,-844 8,-838 8,-832 8,-832 8,-20 8,-20 8,-14 14,-8 20,-8"/>
<text text-anchor="middle" x="362" y="-832.8" font-family="Helvetica,sans-Serif" font-weight="bold" font-size="9.00">src</text>
</g>
<g id="clust10" class="cluster">
<title>cluster_src/main</title>
<path fill="#ffffff" stroke="black" stroke-width="2" d="M186,-346C186,-346 696,-346 696,-346 702,-346 708,-352 708,-358 708,-358 708,-616 708,-616 708,-622 702,-628 696,-628 696,-628 186,-628 186,-628 180,-628 174,-622 174,-616 174,-616 174,-358 174,-358 174,-352 180,-346 186,-346"/>
<text text-anchor="middle" x="441" y="-616.8" font-family="Helvetica,sans-Serif" font-weight="bold" font-size="9.00">main</text>
</g>
<g id="clust11" class="cluster">
<title>cluster_src/main/files&#45;and&#45;dirs</title>
<path fill="#ffffff" stroke="black" stroke-width="2" d="M323,-454C323,-454 380,-454 380,-454 386,-454 392,-460 392,-466 392,-466 392,-494 392,-494 392,-500 386,-506 380,-506 380,-506 323,-506 323,-506 317,-506 311,-500 311,-494 311,-494 311,-466 311,-466 311,-460 317,-454 323,-454"/>
<text text-anchor="middle" x="351.5" y="-494.8" font-family="Helvetica,sans-Serif" font-weight="bold" font-size="9.00">files&#45;and&#45;dirs</text>
</g>
<g id="clust15" class="cluster">
<title>cluster_src/main/utl</title>
<path fill="#ffffff" stroke="black" stroke-width="2" d="M577,-454C577,-454 688,-454 688,-454 694,-454 700,-460 700,-466 700,-466 700,-494 700,-494 700,-500 694,-506 688,-506 688,-506 577,-506 577,-506 571,-506 565,-500 565,-494 565,-494 565,-466 565,-466 565,-460 571,-454 577,-454"/>
<text text-anchor="middle" x="632.5" y="-494.8" font-family="Helvetica,sans-Serif" font-weight="bold" font-size="9.00">utl</text>
</g>
<g id="clust12" class="cluster">
<title>cluster_src/main/options</title>
<path fill="#ffffff" stroke="black" stroke-width="2" d="M459,-364C459,-364 657,-364 657,-364 663,-364 669,-370 669,-376 669,-376 669,-434 669,-434 669,-440 663,-446 657,-446 657,-446 459,-446 459,-446 453,-446 447,-440 447,-434 447,-434 447,-376 447,-376 447,-370 453,-364 459,-364"/>
<text text-anchor="middle" x="558" y="-434.8" font-family="Helvetica,sans-Serif" font-weight="bold" font-size="9.00">options</text>
</g>
<g id="clust13" class="cluster">
<title>cluster_src/main/resolve&#45;options</title>
<path fill="#ffffff" stroke="black" stroke-width="2" d="M322,-524C322,-524 382,-524 382,-524 388,-524 394,-530 394,-536 394,-536 394,-564 394,-564 394,-570 388,-576 382,-576 382,-576 322,-576 322,-576 316,-576 310,-570 310,-564 310,-564 310,-536 310,-536 310,-530 316,-524 322,-524"/>
<text text-anchor="middle" x="352" y="-564.8" font-family="Helvetica,sans-Serif" font-weight="bold" font-size="9.00">resolve&#45;options</text>
</g>
<g id="clust14" class="cluster">
<title>cluster_src/main/rule&#45;set</title>
<path fill="#ffffff" stroke="black" stroke-width="2" d="M323,-364C323,-364 380,-364 380,-364 386,-364 392,-370 392,-376 392,-376 392,-434 392,-434 392,-440 386,-446 380,-446 380,-446 323,-446 323,-446 317,-446 311,-440 311,-434 311,-434 311,-376 311,-376 311,-370 317,-364 323,-364"/>
<text text-anchor="middle" x="351.5" y="-434.8" font-family="Helvetica,sans-Serif" font-weight="bold" font-size="9.00">rule&#45;set</text>
</g>
<g id="clust3" class="cluster">
<title>cluster_src/config&#45;utl</title>
<path fill="#ffffff" stroke="black" stroke-width="2" d="M152,-636C152,-636 266,-636 266,-636 272,-636 278,-642 278,-648 278,-648 278,-710 278,-710 278,-716 272,-722 266,-722 266,-722 152,-722 152,-722 146,-722 140,-716 140,-710 140,-710 140,-648 140,-648 140,-642 146,-636 152,-636"/>
<text text-anchor="middle" x="209" y="-710.8" font-family="Helvetica,sans-Serif" font-weight="bold" font-size="9.00">config&#45;utl</text>
</g>
<g id="clust4" class="cluster">
<title>cluster_src/config&#45;utl/extract&#45;depcruise&#45;config</title>
<path fill="#ffffff" stroke="black" stroke-width="2" d="M160,-644C160,-644 258,-644 258,-644 264,-644 270,-650 270,-656 270,-656 270,-684 270,-684 270,-690 264,-696 258,-696 258,-696 160,-696 160,-696 154,-696 148,-690 148,-684 148,-684 148,-656 148,-656 148,-650 154,-644 160,-644"/>
<text text-anchor="middle" x="209" y="-684.8" font-family="Helvetica,sans-Serif" font-weight="bold" font-size="9.00">extract&#45;depcruise&#45;config</text>
</g>
<g id="clust5" class="cluster">
<title>cluster_src/enrich</title>
<path fill="#ffffff" stroke="black" stroke-width="2" d="M430,-136C430,-136 545,-136 545,-136 551,-136 557,-142 557,-148 557,-148 557,-236 557,-236 557,-242 551,-248 545,-248 545,-248 430,-248 430,-248 424,-248 418,-242 418,-236 418,-236 418,-148 418,-148 418,-142 424,-136 430,-136"/>
<text text-anchor="middle" x="487.5" y="-236.8" font-family="Helvetica,sans-Serif" font-weight="bold" font-size="9.00">enrich</text>
</g>
<g id="clust6" class="cluster">
<title>cluster_src/enrich/summarize</title>
<path fill="#ffffff" stroke="black" stroke-width="2" d="M438,-170C438,-170 537,-170 537,-170 543,-170 549,-176 549,-182 549,-182 549,-210 549,-210 549,-216 543,-222 537,-222 537,-222 438,-222 438,-222 432,-222 426,-216 426,-210 426,-210 426,-182 426,-182 426,-176 432,-170 438,-170"/>
<text text-anchor="middle" x="487.5" y="-210.8" font-family="Helvetica,sans-Serif" font-weight="bold" font-size="9.00">summarize</text>
</g>
<g id="clust7" class="cluster">
<title>cluster_src/extract</title>
<path fill="#ffffff" stroke="black" stroke-width="2" d="M456.5,-16C456.5,-16 518.5,-16 518.5,-16 524.5,-16 530.5,-22 530.5,-28 530.5,-28 530.5,-116 530.5,-116 530.5,-122 524.5,-128 518.5,-128 518.5,-128 456.5,-128 456.5,-128 450.5,-128 444.5,-122 444.5,-116 444.5,-116 444.5,-28 444.5,-28 444.5,-22 450.5,-16 456.5,-16"/>
<text text-anchor="middle" x="487.5" y="-116.8" font-family="Helvetica,sans-Serif" font-weight="bold" font-size="9.00">extract</text>
</g>
<g id="clust8" class="cluster">
<title>cluster_src/extract/transpile</title>
<path fill="#ffffff" stroke="black" stroke-width="2" d="M464.5,-50C464.5,-50 510.5,-50 510.5,-50 516.5,-50 522.5,-56 522.5,-62 522.5,-62 522.5,-90 522.5,-90 522.5,-96 516.5,-102 510.5,-102 510.5,-102 464.5,-102 464.5,-102 458.5,-102 452.5,-96 452.5,-90 452.5,-90 452.5,-62 452.5,-62 452.5,-56 458.5,-50 464.5,-50"/>
<text text-anchor="middle" x="487.5" y="-90.8" font-family="Helvetica,sans-Serif" font-weight="bold" font-size="9.00">transpile</text>
</g>
<g id="clust9" class="cluster">
<title>cluster_src/graph&#45;utl</title>
<path fill="#ffffff" stroke="black" stroke-width="2" d="M435,-636C435,-636 540,-636 540,-636 546,-636 552,-642 552,-648 552,-648 552,-796 552,-796 552,-802 546,-808 540,-808 540,-808 435,-808 435,-808 429,-808 423,-802 423,-796 423,-796 423,-648 423,-648 423,-642 429,-636 435,-636"/>
<text text-anchor="middle" x="487.5" y="-796.8" font-family="Helvetica,sans-Serif" font-weight="bold" font-size="9.00">graph&#45;utl</text>
</g>
<g id="clust16" class="cluster">
<title>cluster_src/report</title>
<path fill="#ffffff" stroke="black" stroke-width="2" d="M609.5,-701C609.5,-701 655.5,-701 655.5,-701 661.5,-701 667.5,-707 667.5,-713 667.5,-713 667.5,-741 667.5,-741 667.5,-747 661.5,-753 655.5,-753 655.5,-753 609.5,-753 609.5,-753 603.5,-753 597.5,-747 597.5,-741 597.5,-741 597.5,-713 597.5,-713 597.5,-707 603.5,-701 609.5,-701"/>
<text text-anchor="middle" x="632.5" y="-741.8" font-family="Helvetica,sans-Serif" font-weight="bold" font-size="9.00">report</text>
</g>
<g id="clust17" class="cluster">
<title>cluster_src/schema</title>
<path fill="#ffffff" stroke="black" stroke-width="2" d="M436,-256C436,-256 539,-256 539,-256 545,-256 551,-262 551,-268 551,-268 551,-326 551,-326 551,-332 545,-338 539,-338 539,-338 436,-338 436,-338 430,-338 424,-332 424,-326 424,-326 424,-268 424,-268 424,-262 430,-256 436,-256"/>
<text text-anchor="middle" x="487.5" y="-326.8" font-family="Helvetica,sans-Serif" font-weight="bold" font-size="9.00">schema</text>
</g>
<g id="clust18" class="cluster">
<title>cluster_src/utl</title>
<path fill="#ffffff" stroke="black" stroke-width="2" d="M328.5,-286C328.5,-286 374.5,-286 374.5,-286 380.5,-286 386.5,-292 386.5,-298 386.5,-298 386.5,-326 386.5,-326 386.5,-332 380.5,-338 374.5,-338 374.5,-338 328.5,-338 328.5,-338 322.5,-338 316.5,-332 316.5,-326 316.5,-326 316.5,-298 316.5,-298 316.5,-292 322.5,-286 328.5,-286"/>
<text text-anchor="middle" x="351.5" y="-326.8" font-family="Helvetica,sans-Serif" font-weight="bold" font-size="9.00">utl</text>
</g>
<g id="clust2" class="cluster">
<title>cluster_src/cli</title>
<path fill="#ffffff" stroke="black" stroke-width="2" d="M28,-325C28,-325 112,-325 112,-325 118,-325 124,-331 124,-337 124,-337 124,-425 124,-425 124,-431 118,-437 112,-437 112,-437 28,-437 28,-437 22,-437 16,-431 16,-425 16,-425 16,-337 16,-337 16,-331 22,-325 28,-325"/>
<text text-anchor="middle" x="70" y="-425.8" font-family="Helvetica,sans-Serif" font-weight="bold" font-size="9.00">cli</text>
</g>
<!-- src/cli/format&#45;meta&#45;info.js -->
<g id="node1" class="node">
<title>src/cli/format&#45;meta&#45;info.js</title>
<g id="a_node1"><a xlink:href="src/cli/format-meta-info.js" xlink:title="format&#45;meta&#45;info.js">
<path fill="lightgray" stroke="black" d="M110,-411C110,-411 30,-411 30,-411 27,-411 24,-408 24,-405 24,-405 24,-399 24,-399 24,-396 27,-393 30,-393 30,-393 110,-393 110,-393 113,-393 116,-396 116,-399 116,-399 116,-405 116,-405 116,-408 113,-411 110,-411"/>
<text text-anchor="middle" x="70" y="-399.8" font-family="Helvetica,sans-Serif" font-size="9.00" fill="gray">format&#45;meta&#45;info.js</text>
</a>
</g>
</g>
<!-- src/main/index.js -->
<g id="node2" class="node">
<title>src/main/index.js</title>
<g id="a_node2"><a xlink:href="src/main/index.js" xlink:title="index.js">
<path fill="lime" stroke="black" d="M230,-381C230,-381 188,-381 188,-381 185,-381 182,-378 182,-375 182,-375 182,-369 182,-369 182,-366 185,-363 188,-363 188,-363 230,-363 230,-363 233,-363 236,-366 236,-369 236,-369 236,-375 236,-375 236,-378 233,-381 230,-381"/>
<text text-anchor="middle" x="209" y="-369.8" font-family="Helvetica,sans-Serif" font-size="9.00">index.js</text>
</a>
</g>
</g>
<!-- src/cli/format&#45;meta&#45;info.js&#45;&gt;src/main/index.js -->
<g id="edge1" class="edge">
<title>src/cli/format&#45;meta&#45;info.js&#45;&gt;src/main/index.js</title>
<path fill="none" stroke="#000000" stroke-width="2" stroke-opacity="0.200000" d="M107,-392.86C107,-385.03 107,-375 107,-375 107,-375 175.93,-375 175.93,-375"/>
<polygon fill="#000000" fill-opacity="0.200000" stroke="#000000" stroke-width="2" stroke-opacity="0.200000" points="175.93,-377.1 181.93,-375 175.93,-372.9 175.93,-377.1"/>
</g>
<!-- src/main/resolve&#45;options/normalize.js -->
<g id="node6" class="node">
<title>src/main/resolve&#45;options/normalize.js</title>
<g id="a_node6"><a xlink:href="src/main/resolve-options/normalize.js" xlink:title="normalize.js">
<path fill="lime" stroke="black" d="M378,-550C378,-550 325,-550 325,-550 322,-550 319,-547 319,-544 319,-544 319,-538 319,-538 319,-535 322,-532 325,-532 325,-532 378,-532 378,-532 381,-532 384,-535 384,-538 384,-538 384,-544 384,-544 384,-547 381,-550 378,-550"/>
<text text-anchor="middle" x="351.5" y="-538.8" font-family="Helvetica,sans-Serif" font-size="9.00">normalize.js</text>
</a>
</g>
</g>
<!-- src/main/index.js&#45;&gt;src/main/resolve&#45;options/normalize.js -->
<g id="edge14" class="edge">
<title>src/main/index.js&#45;&gt;src/main/resolve&#45;options/normalize.js</title>
<path fill="none" stroke="#000000" stroke-width="2" stroke-opacity="0.200000" d="M200,-381.4C200,-416.52 200,-538 200,-538 200,-538 313,-538 313,-538"/>
<polygon fill="#000000" fill-opacity="0.200000" stroke="#000000" stroke-width="2" stroke-opacity="0.200000" points="313,-540.1 319,-538 313,-535.9 313,-540.1"/>
</g>
<!-- src/enrich/index.js -->
<g id="node7" class="node">
<title>src/enrich/index.js</title>
<g id="a_node7"><a xlink:href="src/enrich/index.js" xlink:title="index.js">
<path fill="lightgray" stroke="black" d="M508.5,-162C508.5,-162 466.5,-162 466.5,-162 463.5,-162 460.5,-159 460.5,-156 460.5,-156 460.5,-150 460.5,-150 460.5,-147 463.5,-144 466.5,-144 466.5,-144 508.5,-144 508.5,-144 511.5,-144 514.5,-147 514.5,-150 514.5,-150 514.5,-156 514.5,-156 514.5,-159 511.5,-162 508.5,-162"/>
<text text-anchor="middle" x="487.5" y="-150.8" font-family="Helvetica,sans-Serif" font-size="9.00" fill="gray">index.js</text>
</a>
</g>
</g>
<!-- src/main/index.js&#45;&gt;src/enrich/index.js -->
<g id="edge5" class="edge">
<title>src/main/index.js&#45;&gt;src/enrich/index.js</title>
<path fill="none" stroke="#000000" stroke-width="2" stroke-opacity="0.200000" d="M218,-362.87C218,-321.42 218,-153 218,-153 218,-153 454.43,-153 454.43,-153"/>
<polygon fill="#000000" fill-opacity="0.200000" stroke="#000000" stroke-width="2" stroke-opacity="0.200000" points="454.43,-155.1 460.43,-153 454.43,-150.9 454.43,-155.1"/>
</g>
<!-- src/extract/index.js -->
<g id="node9" class="node">
<title>src/extract/index.js</title>
<g id="a_node9"><a xlink:href="src/extract/index.js" xlink:title="index.js">
<path fill="lightgray" stroke="black" d="M508.5,-42C508.5,-42 466.5,-42 466.5,-42 463.5,-42 460.5,-39 460.5,-36 460.5,-36 460.5,-30 460.5,-30 460.5,-27 463.5,-24 466.5,-24 466.5,-24 508.5,-24 508.5,-24 511.5,-24 514.5,-27 514.5,-30 514.5,-30 514.5,-36 514.5,-36 514.5,-39 511.5,-42 508.5,-42"/>
<text text-anchor="middle" x="487.5" y="-30.8" font-family="Helvetica,sans-Serif" font-size="9.00" fill="gray">index.js</text>
</a>
</g>
</g>
<!-- src/main/index.js&#45;&gt;src/extract/index.js -->
<g id="edge6" class="edge">
<title>src/main/index.js&#45;&gt;src/extract/index.js</title>
<path fill="none" stroke="#000000" stroke-width="2" stroke-opacity="0.200000" d="M200,-362.93C200,-309.02 200,-33 200,-33 200,-33 454.45,-33 454.45,-33"/>
<polygon fill="#000000" fill-opacity="0.200000" stroke="#000000" stroke-width="2" stroke-opacity="0.200000" points="454.45,-35.1 460.45,-33 454.45,-30.9 454.45,-35.1"/>
</g>
<!-- src/extract/transpile/meta.js -->
<g id="node10" class="node">
<title>src/extract/transpile/meta.js</title>
<g id="a_node10"><a xlink:href="src/extract/transpile/meta.js" xlink:title="meta.js">
<path fill="lightgray" stroke="black" d="M508.5,-76C508.5,-76 466.5,-76 466.5,-76 463.5,-76 460.5,-73 460.5,-70 460.5,-70 460.5,-64 460.5,-64 460.5,-61 463.5,-58 466.5,-58 466.5,-58 508.5,-58 508.5,-58 511.5,-58 514.5,-61 514.5,-64 514.5,-64 514.5,-70 514.5,-70 514.5,-73 511.5,-76 508.5,-76"/>
<text text-anchor="middle" x="487.5" y="-64.8" font-family="Helvetica,sans-Serif" font-size="9.00" fill="gray">meta.js</text>
</a>
</g>
</g>
<!-- src/main/index.js&#45;&gt;src/extract/transpile/meta.js -->
<g id="edge7" class="edge">
<title>src/main/index.js&#45;&gt;src/extract/transpile/meta.js</title>
<path fill="none" stroke="#000000" stroke-width="2" stroke-opacity="0.200000" d="M209,-362.78C209,-311.53 209,-64 209,-64 209,-64 454.29,-64 454.29,-64"/>
<polygon fill="#000000" fill-opacity="0.200000" stroke="#000000" stroke-width="2" stroke-opacity="0.200000" points="454.29,-66.1 460.29,-64 454.29,-61.9 454.29,-66.1"/>
</g>
<!-- src/main/files&#45;and&#45;dirs/normalize.js -->
<g id="node16" class="node">
<title>src/main/files&#45;and&#45;dirs/normalize.js</title>
<g id="a_node16"><a xlink:href="src/main/files-and-dirs/normalize.js" xlink:title="normalize.js">
<path fill="lime" stroke="black" d="M378,-480C378,-480 325,-480 325,-480 322,-480 319,-477 319,-474 319,-474 319,-468 319,-468 319,-465 322,-462 325,-462 325,-462 378,-462 378,-462 381,-462 384,-465 384,-468 384,-468 384,-474 384,-474 384,-477 381,-480 378,-480"/>
<text text-anchor="middle" x="351.5" y="-468.8" font-family="Helvetica,sans-Serif" font-size="9.00">normalize.js</text>
</a>
</g>
</g>
<!-- src/main/index.js&#45;&gt;src/main/files&#45;and&#45;dirs/normalize.js -->
<g id="edge10" class="edge">
<title>src/main/index.js&#45;&gt;src/main/files&#45;and&#45;dirs/normalize.js</title>
<path fill="none" stroke="#000000" stroke-width="2" stroke-opacity="0.200000" d="M218,-381.14C218,-405.64 218,-471 218,-471 218,-471 312.84,-471 312.84,-471"/>
<polygon fill="#000000" fill-opacity="0.200000" stroke="#000000" stroke-width="2" stroke-opacity="0.200000" points="312.84,-473.1 318.84,-471 312.84,-468.9 312.84,-473.1"/>
</g>
<!-- src/schema/cruise&#45;result.schema.js -->
<g id="node17" class="node">
<title>src/schema/cruise&#45;result.schema.js</title>
<g id="a_node17"><a xlink:href="src/schema/cruise-result.schema.js" xlink:title="cruise&#45;result.schema.js">
<path fill="lightgray" stroke="black" d="M536,-282C536,-282 439,-282 439,-282 436,-282 433,-279 433,-276 433,-276 433,-270 433,-270 433,-267 436,-264 439,-264 439,-264 536,-264 536,-264 539,-264 542,-267 542,-270 542,-270 542,-276 542,-276 542,-279 539,-282 536,-282"/>
<text text-anchor="middle" x="487.5" y="-270.8" font-family="Helvetica,sans-Serif" font-size="9.00" fill="gray">cruise&#45;result.schema.js</text>
</a>
</g>
</g>
<!-- src/main/index.js&#45;&gt;src/schema/cruise&#45;result.schema.js -->
<g id="edge8" class="edge">
<title>src/main/index.js&#45;&gt;src/schema/cruise&#45;result.schema.js</title>
<path fill="none" stroke="#000000" stroke-width="2" stroke-opacity="0.200000" d="M227,-362.86C227,-338.36 227,-273 227,-273 227,-273 426.89,-273 426.89,-273"/>
<polygon fill="#000000" fill-opacity="0.200000" stroke="#000000" stroke-width="2" stroke-opacity="0.200000" points="426.89,-275.1 432.89,-273 426.89,-270.9 426.89,-275.1"/>
</g>
<!-- src/utl/bus.js -->
<g id="node18" class="node">
<title>src/utl/bus.js</title>
<g id="a_node18"><a xlink:href="src/utl/bus.js" xlink:title="bus.js">
<path fill="lightgray" stroke="black" d="M372.5,-312C372.5,-312 330.5,-312 330.5,-312 327.5,-312 324.5,-309 324.5,-306 324.5,-306 324.5,-300 324.5,-300 324.5,-297 327.5,-294 330.5,-294 330.5,-294 372.5,-294 372.5,-294 375.5,-294 378.5,-297 378.5,-300 378.5,-300 378.5,-306 378.5,-306 378.5,-309 375.5,-312 372.5,-312"/>
<text text-anchor="middle" x="351.5" y="-300.8" font-family="Helvetica,sans-Serif" font-size="9.00" fill="gray">bus.js</text>
</a>
</g>
</g>
<!-- src/main/index.js&#45;&gt;src/utl/bus.js -->
<g id="edge9" class="edge">
<title>src/main/index.js&#45;&gt;src/utl/bus.js</title>
<path fill="none" stroke="#000000" stroke-width="2" stroke-opacity="0.200000" d="M236.23,-365.25C277.72,-365.25 352,-365.25 352,-365.25 352,-365.25 352,-318.19 352,-318.19"/>
<polygon fill="#000000" fill-opacity="0.200000" stroke="#000000" stroke-width="2" stroke-opacity="0.200000" points="354.1,-318.19 352,-312.19 349.9,-318.19 354.1,-318.19"/>
</g>
<!-- src/main/options/normalize.js -->
<g id="node19" class="node">
<title>src/main/options/normalize.js</title>
<g id="a_node19"><a xlink:href="src/main/options/normalize.js" xlink:title="normalize.js">
<path fill="lime" stroke="black" d="M514,-420C514,-420 461,-420 461,-420 458,-420 455,-417 455,-414 455,-414 455,-408 455,-408 455,-405 458,-402 461,-402 461,-402 514,-402 514,-402 517,-402 520,-405 520,-408 520,-408 520,-414 520,-414 520,-417 517,-420 514,-420"/>
<text text-anchor="middle" x="487.5" y="-408.8" font-family="Helvetica,sans-Serif" font-size="9.00">normalize.js</text>
</a>
</g>
</g>
<!-- src/main/index.js&#45;&gt;src/main/options/normalize.js -->
<g id="edge11" class="edge">
<title>src/main/index.js&#45;&gt;src/main/options/normalize.js</title>
<path fill="none" stroke="#000000" stroke-width="2" stroke-opacity="0.200000" d="M236.1,-369.75C293.69,-369.75 423,-369.75 423,-369.75 423,-369.75 423,-408 423,-408 423,-408 448.87,-408 448.87,-408"/>
<polygon fill="#000000" fill-opacity="0.200000" stroke="#000000" stroke-width="2" stroke-opacity="0.200000" points="448.87,-410.1 454.87,-408 448.87,-405.9 448.87,-410.1"/>
</g>
<!-- src/main/options/validate.js -->
<g id="node20" class="node">
<title>src/main/options/validate.js</title>
<g id="a_node20"><a xlink:href="src/main/options/validate.js" xlink:title="validate.js">
<path fill="lime" stroke="black" d="M510,-390C510,-390 465,-390 465,-390 462,-390 459,-387 459,-384 459,-384 459,-378 459,-378 459,-375 462,-372 465,-372 465,-372 510,-372 510,-372 513,-372 516,-375 516,-378 516,-378 516,-384 516,-384 516,-387 513,-390 510,-390"/>
<text text-anchor="middle" x="487.5" y="-378.8" font-family="Helvetica,sans-Serif" font-size="9.00">validate.js</text>
</a>
</g>
</g>
<!-- src/main/index.js&#45;&gt;src/main/options/validate.js -->
<g id="edge12" class="edge">
<title>src/main/index.js&#45;&gt;src/main/options/validate.js</title>
<path fill="none" stroke="#000000" stroke-width="2" stroke-opacity="0.200000" d="M236.01,-367.5C306.02,-367.5 488,-367.5 488,-367.5 488,-367.5 488,-367.93 488,-367.93"/>
<polygon fill="#000000" fill-opacity="0.200000" stroke="#000000" stroke-width="2" stroke-opacity="0.200000" points="485.9,-365.77 488,-371.77 490.1,-365.77 485.9,-365.77"/>
</g>
<!-- src/main/report&#45;wrap.js -->
<g id="node21" class="node">
<title>src/main/report&#45;wrap.js</title>
<g id="a_node21"><a xlink:href="src/main/report-wrap.js" xlink:title="report&#45;wrap.js">
<path fill="lime" stroke="black" d="M381.5,-602C381.5,-602 321.5,-602 321.5,-602 318.5,-602 315.5,-599 315.5,-596 315.5,-596 315.5,-590 315.5,-590 315.5,-587 318.5,-584 321.5,-584 321.5,-584 381.5,-584 381.5,-584 384.5,-584 387.5,-587 387.5,-590 387.5,-590 387.5,-596 387.5,-596 387.5,-599 384.5,-602 381.5,-602"/>
<text text-anchor="middle" x="351.5" y="-590.8" font-family="Helvetica,sans-Serif" font-size="9.00">report&#45;wrap.js</text>
</a>
</g>
</g>
<!-- src/main/index.js&#45;&gt;src/main/report&#45;wrap.js -->
<g id="edge13" class="edge">
<title>src/main/index.js&#45;&gt;src/main/report&#45;wrap.js</title>
<path fill="none" stroke="#000000" stroke-width="2" stroke-opacity="0.200000" d="M191,-381.21C191,-423.04 191,-593 191,-593 191,-593 309.48,-593 309.48,-593"/>
<polygon fill="#000000" fill-opacity="0.200000" stroke="#000000" stroke-width="2" stroke-opacity="0.200000" points="309.48,-595.1 315.48,-593 309.48,-590.9 309.48,-595.1"/>
</g>
<!-- src/main/rule&#45;set/normalize.js -->
<g id="node22" class="node">
<title>src/main/rule&#45;set/normalize.js</title>
<g id="a_node22"><a xlink:href="src/main/rule-set/normalize.js" xlink:title="normalize.js">
<path fill="lime" stroke="black" d="M378,-420C378,-420 325,-420 325,-420 322,-420 319,-417 319,-414 319,-414 319,-408 319,-408 319,-405 322,-402 325,-402 325,-402 378,-402 378,-402 381,-402 384,-405 384,-408 384,-408 384,-414 384,-414 384,-417 381,-420 378,-420"/>
<text text-anchor="middle" x="351.5" y="-408.8" font-family="Helvetica,sans-Serif" font-size="9.00">normalize.js</text>
</a>
</g>
</g>
<!-- src/main/index.js&#45;&gt;src/main/rule&#45;set/normalize.js -->
<g id="edge15" class="edge">
<title>src/main/index.js&#45;&gt;src/main/rule&#45;set/normalize.js</title>
<path fill="none" stroke="#000000" stroke-width="2" stroke-opacity="0.200000" d="M227,-381.06C227,-391.29 227,-406.5 227,-406.5 227,-406.5 312.79,-406.5 312.79,-406.5"/>
<polygon fill="#000000" fill-opacity="0.200000" stroke="#000000" stroke-width="2" stroke-opacity="0.200000" points="312.79,-408.6 318.79,-406.5 312.79,-404.4 312.79,-408.6"/>
</g>
<!-- src/main/rule&#45;set/validate.js -->
<g id="node23" class="node">
<title>src/main/rule&#45;set/validate.js</title>
<g id="a_node23"><a xlink:href="src/main/rule-set/validate.js" xlink:title="validate.js">
<path fill="lime" stroke="black" d="M374,-390C374,-390 329,-390 329,-390 326,-390 323,-387 323,-384 323,-384 323,-378 323,-378 323,-375 326,-372 329,-372 329,-372 374,-372 374,-372 377,-372 380,-375 380,-378 380,-378 380,-384 380,-384 380,-387 377,-390 374,-390"/>
<text text-anchor="middle" x="351.5" y="-378.8" font-family="Helvetica,sans-Serif" font-size="9.00">validate.js</text>
</a>
</g>
</g>
<!-- src/main/index.js&#45;&gt;src/main/rule&#45;set/validate.js -->
<g id="edge16" class="edge">
<title>src/main/index.js&#45;&gt;src/main/rule&#45;set/validate.js</title>
<path fill="none" stroke="#000000" stroke-width="2" stroke-opacity="0.200000" d="M236.14,-376.5C236.14,-376.5 317,-376.5 317,-376.5"/>
<polygon fill="#000000" fill-opacity="0.200000" stroke="#000000" stroke-width="2" stroke-opacity="0.200000" points="317,-378.6 323,-376.5 317,-374.4 317,-378.6"/>
</g>
<!-- src/cli/format.js -->
<g id="node3" class="node">
<title>src/cli/format.js</title>
<g id="a_node3"><a xlink:href="src/cli/format.js" xlink:title="format.js">
<path fill="lightgray" stroke="black" d="M91,-381C91,-381 49,-381 49,-381 46,-381 43,-378 43,-375 43,-375 43,-369 43,-369 43,-366 46,-363 49,-363 49,-363 91,-363 91,-363 94,-363 97,-366 97,-369 97,-369 97,-375 97,-375 97,-378 94,-381 91,-381"/>
<text text-anchor="middle" x="70" y="-369.8" font-family="Helvetica,sans-Serif" font-size="9.00" fill="gray">format.js</text>
</a>
</g>
</g>
<!-- src/cli/format.js&#45;&gt;src/main/index.js -->
<g id="edge2" class="edge">
<title>src/cli/format.js&#45;&gt;src/main/index.js</title>
<path fill="none" stroke="#000000" stroke-width="2" stroke-opacity="0.200000" d="M97.13,-369C97.13,-369 175.94,-369 175.94,-369"/>
<polygon fill="#000000" fill-opacity="0.200000" stroke="#000000" stroke-width="2" stroke-opacity="0.200000" points="175.94,-371.1 181.94,-369 175.94,-366.9 175.94,-371.1"/>
</g>
<!-- src/cli/index.js -->
<g id="node4" class="node">
<title>src/cli/index.js</title>
<g id="a_node4"><a xlink:href="src/cli/index.js" xlink:title="index.js">
<path fill="lightgray" stroke="black" d="M91,-351C91,-351 49,-351 49,-351 46,-351 43,-348 43,-345 43,-345 43,-339 43,-339 43,-336 46,-333 49,-333 49,-333 91,-333 91,-333 94,-333 97,-336 97,-339 97,-339 97,-345 97,-345 97,-348 94,-351 91,-351"/>
<text text-anchor="middle" x="70" y="-339.8" font-family="Helvetica,sans-Serif" font-size="9.00" fill="gray">index.js</text>
</a>
</g>
</g>
<!-- src/cli/index.js&#45;&gt;src/main/index.js -->
<g id="edge3" class="edge">
<title>src/cli/index.js&#45;&gt;src/main/index.js</title>
<path fill="none" stroke="#000000" stroke-width="2" stroke-opacity="0.200000" d="M97.15,-342C132.83,-342 191,-342 191,-342 191,-342 191,-356.84 191,-356.84"/>
<polygon fill="#000000" fill-opacity="0.200000" stroke="#000000" stroke-width="2" stroke-opacity="0.200000" points="188.9,-356.84 191,-362.84 193.1,-356.84 188.9,-356.84"/>
</g>
<!-- src/config&#45;utl/extract&#45;depcruise&#45;config/index.js -->
<g id="node5" class="node">
<title>src/config&#45;utl/extract&#45;depcruise&#45;config/index.js</title>
<g id="a_node5"><a xlink:href="src/config-utl/extract-depcruise-config/index.js" xlink:title="index.js">
<path fill="lightgray" stroke="black" d="M230,-670C230,-670 188,-670 188,-670 185,-670 182,-667 182,-664 182,-664 182,-658 182,-658 182,-655 185,-652 188,-652 188,-652 230,-652 230,-652 233,-652 236,-655 236,-658 236,-658 236,-664 236,-664 236,-667 233,-670 230,-670"/>
<text text-anchor="middle" x="209" y="-658.8" font-family="Helvetica,sans-Serif" font-size="9.00" fill="gray">index.js</text>
</a>
</g>
</g>
<!-- src/config&#45;utl/extract&#45;depcruise&#45;config/index.js&#45;&gt;src/main/resolve&#45;options/normalize.js -->
<g id="edge4" class="edge">
<title>src/config&#45;utl/extract&#45;depcruise&#45;config/index.js&#45;&gt;src/main/resolve&#45;options/normalize.js</title>
<path fill="none" stroke="#000000" stroke-width="2" stroke-opacity="0.200000" d="M209,-651.82C209,-624.24 209,-544 209,-544 209,-544 312.81,-544 312.81,-544"/>
<polygon fill="#000000" fill-opacity="0.200000" stroke="#000000" stroke-width="2" stroke-opacity="0.200000" points="312.81,-546.1 318.81,-544 312.81,-541.9 312.81,-546.1"/>
</g>
<!-- src/main/resolve&#45;options/normalize.js&#45;&gt;src/extract/transpile/meta.js -->
<g id="edge26" class="edge">
<title>src/main/resolve&#45;options/normalize.js&#45;&gt;src/extract/transpile/meta.js</title>
<path fill="none" stroke="#000000" stroke-width="2" stroke-opacity="0.200000" d="M384.08,-538C391.38,-538 397,-538 397,-538 397,-538 397,-70 397,-70 397,-70 454.35,-70 454.35,-70"/>
<polygon fill="#000000" fill-opacity="0.200000" stroke="#000000" stroke-width="2" stroke-opacity="0.200000" points="454.35,-72.1 460.35,-70 454.35,-67.9 454.35,-72.1"/>
</g>
<!-- src/graph&#45;utl/rule&#45;set.js -->
<g id="node14" class="node">
<title>src/graph&#45;utl/rule&#45;set.js</title>
<g id="a_node14"><a xlink:href="src/graph-utl/rule-set.js" xlink:title="rule&#45;set.js">
<path fill="lightgray" stroke="black" d="M509.5,-662C509.5,-662 465.5,-662 465.5,-662 462.5,-662 459.5,-659 459.5,-656 459.5,-656 459.5,-650 459.5,-650 459.5,-647 462.5,-644 465.5,-644 465.5,-644 509.5,-644 509.5,-644 512.5,-644 515.5,-647 515.5,-650 515.5,-650 515.5,-656 515.5,-656 515.5,-659 512.5,-662 509.5,-662"/>
<text text-anchor="middle" x="487.5" y="-650.8" font-family="Helvetica,sans-Serif" font-size="9.00" fill="gray">rule&#45;set.js</text>
</a>
</g>
</g>
<!-- src/main/resolve&#45;options/normalize.js&#45;&gt;src/graph&#45;utl/rule&#45;set.js -->
<g id="edge27" class="edge">
<title>src/main/resolve&#45;options/normalize.js&#45;&gt;src/graph&#45;utl/rule&#45;set.js</title>
<path fill="none" stroke="#000000" stroke-width="2" stroke-opacity="0.200000" d="M384.2,-544C424.58,-544 488,-544 488,-544 488,-544 488,-637.71 488,-637.71"/>
<polygon fill="#000000" fill-opacity="0.200000" stroke="#000000" stroke-width="2" stroke-opacity="0.200000" points="485.9,-637.71 488,-643.71 490.1,-637.71 485.9,-637.71"/>
</g>
<!-- src/enrich/summarize/summarize&#45;modules.js -->
<g id="node8" class="node">
<title>src/enrich/summarize/summarize&#45;modules.js</title>
<g id="a_node8"><a xlink:href="src/enrich/summarize/summarize-modules.js" xlink:title="summarize&#45;modules.js">
<path fill="lightgray" stroke="black" d="M535,-196C535,-196 440,-196 440,-196 437,-196 434,-193 434,-190 434,-190 434,-184 434,-184 434,-181 437,-178 440,-178 440,-178 535,-178 535,-178 538,-178 541,-181 541,-184 541,-184 541,-190 541,-190 541,-193 538,-196 535,-196"/>
<text text-anchor="middle" x="487.5" y="-184.8" font-family="Helvetica,sans-Serif" font-size="9.00" fill="gray">summarize&#45;modules.js</text>
</a>
</g>
</g>
<!-- src/graph&#45;utl/compare.js -->
<g id="node11" class="node">
<title>src/graph&#45;utl/compare.js</title>
<g id="a_node11"><a xlink:href="src/graph-utl/compare.js" xlink:title="compare.js">
<path fill="lightgray" stroke="black" d="M512,-752C512,-752 463,-752 463,-752 460,-752 457,-749 457,-746 457,-746 457,-740 457,-740 457,-737 460,-734 463,-734 463,-734 512,-734 512,-734 515,-734 518,-737 518,-740 518,-740 518,-746 518,-746 518,-749 515,-752 512,-752"/>
<text text-anchor="middle" x="487.5" y="-740.8" font-family="Helvetica,sans-Serif" font-size="9.00" fill="gray">compare.js</text>
</a>
</g>
</g>
<!-- src/graph&#45;utl/consolidate&#45;to&#45;pattern.js -->
<g id="node12" class="node">
<title>src/graph&#45;utl/consolidate&#45;to&#45;pattern.js</title>
<g id="a_node12"><a xlink:href="src/graph-utl/consolidate-to-pattern.js" xlink:title="consolidate&#45;to&#45;pattern.js">
<path fill="lightgray" stroke="black" d="M538,-722C538,-722 437,-722 437,-722 434,-722 431,-719 431,-716 431,-716 431,-710 431,-710 431,-707 434,-704 437,-704 437,-704 538,-704 538,-704 541,-704 544,-707 544,-710 544,-710 544,-716 544,-716 544,-719 541,-722 538,-722"/>
<text text-anchor="middle" x="487.5" y="-710.8" font-family="Helvetica,sans-Serif" font-size="9.00" fill="gray">consolidate&#45;to&#45;pattern.js</text>
</a>
</g>
</g>
<!-- src/graph&#45;utl/filterbank.js -->
<g id="node13" class="node">
<title>src/graph&#45;utl/filterbank.js</title>
<g id="a_node13"><a xlink:href="src/graph-utl/filterbank.js" xlink:title="filterbank.js">
<path fill="lightgray" stroke="black" d="M512.5,-692C512.5,-692 462.5,-692 462.5,-692 459.5,-692 456.5,-689 456.5,-686 456.5,-686 456.5,-680 456.5,-680 456.5,-677 459.5,-674 462.5,-674 462.5,-674 512.5,-674 512.5,-674 515.5,-674 518.5,-677 518.5,-680 518.5,-680 518.5,-686 518.5,-686 518.5,-689 515.5,-692 512.5,-692"/>
<text text-anchor="middle" x="487.5" y="-680.8" font-family="Helvetica,sans-Serif" font-size="9.00" fill="gray">filterbank.js</text>
</a>
</g>
</g>
<!-- src/graph&#45;utl/strip&#45;self&#45;transitions.js -->
<g id="node15" class="node">
<title>src/graph&#45;utl/strip&#45;self&#45;transitions.js</title>
<g id="a_node15"><a xlink:href="src/graph-utl/strip-self-transitions.js" xlink:title="strip&#45;self&#45;transitions.js">
<path fill="lightgray" stroke="black" d="M533.5,-782C533.5,-782 441.5,-782 441.5,-782 438.5,-782 435.5,-779 435.5,-776 435.5,-776 435.5,-770 435.5,-770 435.5,-767 438.5,-764 441.5,-764 441.5,-764 533.5,-764 533.5,-764 536.5,-764 539.5,-767 539.5,-770 539.5,-770 539.5,-776 539.5,-776 539.5,-779 536.5,-782 533.5,-782"/>
<text text-anchor="middle" x="487.5" y="-770.8" font-family="Helvetica,sans-Serif" font-size="9.00" fill="gray">strip&#45;self&#45;transitions.js</text>
</a>
</g>
</g>
<!-- src/main/options/defaults.js -->
<g id="node24" class="node">
<title>src/main/options/defaults.js</title>
<g id="a_node24"><a xlink:href="src/main/options/defaults.js" xlink:title="defaults.js">
<path fill="lime" stroke="black" d="M655,-420C655,-420 610,-420 610,-420 607,-420 604,-417 604,-414 604,-414 604,-408 604,-408 604,-405 607,-402 610,-402 610,-402 655,-402 655,-402 658,-402 661,-405 661,-408 661,-408 661,-414 661,-414 661,-417 658,-420 655,-420"/>
<text text-anchor="middle" x="632.5" y="-408.8" font-family="Helvetica,sans-Serif" font-size="9.00">defaults.js</text>
</a>
</g>
</g>
<!-- src/main/options/normalize.js&#45;&gt;src/main/options/defaults.js -->
<g id="edge18" class="edge">
<title>src/main/options/normalize.js&#45;&gt;src/main/options/defaults.js</title>
<path fill="none" stroke="#000000" stroke-width="2" stroke-opacity="0.200000" d="M520.04,-408C520.04,-408 597.99,-408 597.99,-408"/>
<polygon fill="#000000" fill-opacity="0.200000" stroke="#000000" stroke-width="2" stroke-opacity="0.200000" points="597.99,-410.1 603.99,-408 597.99,-405.9 597.99,-410.1"/>
</g>
<!-- src/main/utl/normalize&#45;re&#45;properties.js -->
<g id="node25" class="node">
<title>src/main/utl/normalize&#45;re&#45;properties.js</title>
<g id="a_node25"><a xlink:href="src/main/utl/normalize-re-properties.js" xlink:title="normalize&#45;re&#45;properties.js">
<path fill="lime" stroke="black" d="M686,-480C686,-480 579,-480 579,-480 576,-480 573,-477 573,-474 573,-474 573,-468 573,-468 573,-465 576,-462 579,-462 579,-462 686,-462 686,-462 689,-462 692,-465 692,-468 692,-468 692,-474 692,-474 692,-477 689,-480 686,-480"/>
<text text-anchor="middle" x="632.5" y="-468.8" font-family="Helvetica,sans-Serif" font-size="9.00">normalize&#45;re&#45;properties.js</text>
</a>
</g>
</g>
<!-- src/main/options/normalize.js&#45;&gt;src/main/utl/normalize&#45;re&#45;properties.js -->
<g id="edge17" class="edge">
<title>src/main/options/normalize.js&#45;&gt;src/main/utl/normalize&#45;re&#45;properties.js</title>
<path fill="none" stroke="#000000" stroke-width="2" stroke-opacity="0.200000" d="M520.17,-414C549.85,-414 589,-414 589,-414 589,-414 589,-455.84 589,-455.84"/>
<polygon fill="#000000" fill-opacity="0.200000" stroke="#000000" stroke-width="2" stroke-opacity="0.200000" points="586.9,-455.84 589,-461.84 591.1,-455.84 586.9,-455.84"/>
</g>
<!-- src/report/index.js -->
<g id="node26" class="node">
<title>src/report/index.js</title>
<g id="a_node26"><a xlink:href="src/report/index.js" xlink:title="index.js">
<path fill="lightgray" stroke="black" d="M653.5,-727C653.5,-727 611.5,-727 611.5,-727 608.5,-727 605.5,-724 605.5,-721 605.5,-721 605.5,-715 605.5,-715 605.5,-712 608.5,-709 611.5,-709 611.5,-709 653.5,-709 653.5,-709 656.5,-709 659.5,-712 659.5,-715 659.5,-715 659.5,-721 659.5,-721 659.5,-724 656.5,-727 653.5,-727"/>
<text text-anchor="middle" x="632.5" y="-715.8" font-family="Helvetica,sans-Serif" font-size="9.00" fill="gray">index.js</text>
</a>
</g>
</g>
<!-- src/main/options/validate.js&#45;&gt;src/report/index.js -->
<g id="edge19" class="edge">
<title>src/main/options/validate.js&#45;&gt;src/report/index.js</title>
<path fill="none" stroke="#000000" stroke-width="2" stroke-opacity="0.200000" d="M516.17,-381C536.06,-381 559,-381 559,-381 559,-381 559,-715.5 559,-715.5 559,-715.5 599.13,-715.5 599.13,-715.5"/>
<polygon fill="#000000" fill-opacity="0.200000" stroke="#000000" stroke-width="2" stroke-opacity="0.200000" points="599.13,-717.6 605.13,-715.5 599.13,-713.4 599.13,-717.6"/>
</g>
<!-- src/main/report&#45;wrap.js&#45;&gt;src/enrich/summarize/summarize&#45;modules.js -->
<g id="edge20" class="edge">
<title>src/main/report&#45;wrap.js&#45;&gt;src/enrich/summarize/summarize&#45;modules.js</title>
<path fill="none" stroke="#000000" stroke-width="2" stroke-opacity="0.200000" d="M387.78,-588.5C397.32,-588.5 405,-588.5 405,-588.5 405,-588.5 405,-187 405,-187 405,-187 427.85,-187 427.85,-187"/>
<polygon fill="#000000" fill-opacity="0.200000" stroke="#000000" stroke-width="2" stroke-opacity="0.200000" points="427.85,-189.1 433.85,-187 427.85,-184.9 427.85,-189.1"/>
</g>
<!-- src/main/report&#45;wrap.js&#45;&gt;src/graph&#45;utl/compare.js -->
<g id="edge21" class="edge">
<title>src/main/report&#45;wrap.js&#45;&gt;src/graph&#45;utl/compare.js</title>
<path fill="none" stroke="#000000" stroke-width="2" stroke-opacity="0.200000" d="M352,-602.38C352,-635.22 352,-743 352,-743 352,-743 450.75,-743 450.75,-743"/>
<polygon fill="#000000" fill-opacity="0.200000" stroke="#000000" stroke-width="2" stroke-opacity="0.200000" points="450.75,-745.1 456.75,-743 450.75,-740.9 450.75,-745.1"/>
</g>
<!-- src/main/report&#45;wrap.js&#45;&gt;src/graph&#45;utl/consolidate&#45;to&#45;pattern.js -->
<g id="edge22" class="edge">
<title>src/main/report&#45;wrap.js&#45;&gt;src/graph&#45;utl/consolidate&#45;to&#45;pattern.js</title>
<path fill="none" stroke="#000000" stroke-width="2" stroke-opacity="0.200000" d="M387.75,-597.5C412.19,-597.5 440,-597.5 440,-597.5 440,-597.5 440,-697.94 440,-697.94"/>
<polygon fill="#000000" fill-opacity="0.200000" stroke="#000000" stroke-width="2" stroke-opacity="0.200000" points="437.9,-697.94 440,-703.94 442.1,-697.94 437.9,-697.94"/>
</g>
<!-- src/main/report&#45;wrap.js&#45;&gt;src/graph&#45;utl/filterbank.js -->
<g id="edge23" class="edge">
<title>src/main/report&#45;wrap.js&#45;&gt;src/graph&#45;utl/filterbank.js</title>
<path fill="none" stroke="#000000" stroke-width="2" stroke-opacity="0.200000" d="M370,-602.29C370,-625.29 370,-683 370,-683 370,-683 450.32,-683 450.32,-683"/>
<polygon fill="#000000" fill-opacity="0.200000" stroke="#000000" stroke-width="2" stroke-opacity="0.200000" points="450.32,-685.1 456.32,-683 450.32,-680.9 450.32,-685.1"/>
</g>
<!-- src/main/report&#45;wrap.js&#45;&gt;src/graph&#45;utl/strip&#45;self&#45;transitions.js -->
<g id="edge24" class="edge">
<title>src/main/report&#45;wrap.js&#45;&gt;src/graph&#45;utl/strip&#45;self&#45;transitions.js</title>
<path fill="none" stroke="#000000" stroke-width="2" stroke-opacity="0.200000" d="M334,-602.17C334,-638.85 334,-773 334,-773 334,-773 429.1,-773 429.1,-773"/>
<polygon fill="#000000" fill-opacity="0.200000" stroke="#000000" stroke-width="2" stroke-opacity="0.200000" points="429.1,-775.1 435.1,-773 429.1,-770.9 429.1,-775.1"/>
</g>
<!-- src/main/report&#45;wrap.js&#45;&gt;src/report/index.js -->
<g id="edge25" class="edge">
<title>src/main/report&#45;wrap.js&#45;&gt;src/report/index.js</title>
<path fill="none" stroke="#000000" stroke-width="2" stroke-opacity="0.200000" d="M387.72,-593C463.75,-593 633,-593 633,-593 633,-593 633,-702.6 633,-702.6"/>
<polygon fill="#000000" fill-opacity="0.200000" stroke="#000000" stroke-width="2" stroke-opacity="0.200000" points="630.9,-702.6 633,-708.6 635.1,-702.6 630.9,-702.6"/>
</g>
<!-- src/main/rule&#45;set/normalize.js&#45;&gt;src/main/utl/normalize&#45;re&#45;properties.js -->
<g id="edge28" class="edge">
<title>src/main/rule&#45;set/normalize.js&#45;&gt;src/main/utl/normalize&#45;re&#45;properties.js</title>
<path fill="none" stroke="#000000" stroke-width="2" stroke-opacity="0.200000" d="M384.21,-414C399.34,-414 414,-414 414,-414 414,-414 414,-471 414,-471 414,-471 566.79,-471 566.79,-471"/>
<polygon fill="#000000" fill-opacity="0.200000" stroke="#000000" stroke-width="2" stroke-opacity="0.200000" points="566.79,-473.1 572.79,-471 566.79,-468.9 566.79,-473.1"/>
</g>
<!-- src/main/rule&#45;set/validate.js&#45;&gt;src/main/options/validate.js -->
<g id="edge30" class="edge">
<title>src/main/rule&#45;set/validate.js&#45;&gt;src/main/options/validate.js</title>
<path fill="none" stroke="#000000" stroke-width="2" stroke-opacity="0.200000" d="M380.01,-384C380.01,-384 452.56,-384 452.56,-384"/>
<polygon fill="#000000" fill-opacity="0.200000" stroke="#000000" stroke-width="2" stroke-opacity="0.200000" points="452.56,-386.1 458.56,-384 452.56,-381.9 452.56,-386.1"/>
</g>
<!-- src/schema/configuration.schema.js -->
<g id="node27" class="node">
<title>src/schema/configuration.schema.js</title>
<g id="a_node27"><a xlink:href="src/schema/configuration.schema.js" xlink:title="configuration.schema.js">
<path fill="lightgray" stroke="black" d="M537,-312C537,-312 438,-312 438,-312 435,-312 432,-309 432,-306 432,-306 432,-300 432,-300 432,-297 435,-294 438,-294 438,-294 537,-294 537,-294 540,-294 543,-297 543,-300 543,-300 543,-306 543,-306 543,-309 540,-312 537,-312"/>
<text text-anchor="middle" x="487.5" y="-300.8" font-family="Helvetica,sans-Serif" font-size="9.00" fill="gray">configuration.schema.js</text>
</a>
</g>
</g>
<!-- src/main/rule&#45;set/validate.js&#45;&gt;src/schema/configuration.schema.js -->
<g id="edge29" class="edge">
<title>src/main/rule&#45;set/validate.js&#45;&gt;src/schema/configuration.schema.js</title>
<path fill="none" stroke="#000000" stroke-width="2" stroke-opacity="0.200000" d="M380.19,-378C408.64,-378 448,-378 448,-378 448,-378 448,-318.2 448,-318.2"/>
<polygon fill="#000000" fill-opacity="0.200000" stroke="#000000" stroke-width="2" stroke-opacity="0.200000" points="450.1,-318.2 448,-312.2 445.9,-318.2 450.1,-318.2"/>
</g>
</g>
</svg>
