<?xml version="1.0" encoding="UTF-8" standalone="no"?>
<!DOCTYPE svg PUBLIC "-//W3C//DTD SVG 1.1//EN"
 "http://www.w3.org/Graphics/SVG/1.1/DTD/svg11.dtd">
<!-- Generated by graphviz version 2.44.1 (20200629.0846)
 -->
<!-- Title: dependency&#45;cruiser output Pages: 1 -->
<svg width="671pt" height="772pt"
 viewBox="0.00 0.00 671.00 772.00" xmlns="http://www.w3.org/2000/svg" xmlns:xlink="http://www.w3.org/1999/xlink">
<g id="graph0" class="graph" transform="scale(1 1) rotate(0) translate(4 768)">
<title>dependency&#45;cruiser output</title>
<polygon fill="white" stroke="transparent" points="-4,4 -4,-768 667,-768 667,4 -4,4"/>
<g id="clust1" class="cluster">
<title>cluster_src</title>
<path fill="#ffffff" stroke="black" stroke-width="2" d="M20,-8C20,-8 643,-8 643,-8 649,-8 655,-14 655,-20 655,-20 655,-744 655,-744 655,-750 649,-756 643,-756 643,-756 20,-756 20,-756 14,-756 8,-750 8,-744 8,-744 8,-20 8,-20 8,-14 14,-8 20,-8"/>
<text text-anchor="middle" x="331.5" y="-744.8" font-family="Helvetica,sans-Serif" font-weight="bold" font-size="9.00">src</text>
</g>
<g id="clust2" class="cluster">
<title>cluster_src/cli</title>
<path fill="#ffffff" stroke="black" stroke-width="2" d="M28,-216C28,-216 112,-216 112,-216 118,-216 124,-222 124,-228 124,-228 124,-376 124,-376 124,-382 118,-388 112,-388 112,-388 28,-388 28,-388 22,-388 16,-382 16,-376 16,-376 16,-228 16,-228 16,-222 22,-216 28,-216"/>
<text text-anchor="middle" x="70" y="-376.8" font-family="Helvetica,sans-Serif" font-weight="bold" font-size="9.00">cli</text>
</g>
<g id="clust3" class="cluster">
<title>cluster_src/cli/compile&#45;config</title>
<path fill="#ffffff" stroke="black" stroke-width="2" d="M42,-224C42,-224 98,-224 98,-224 104,-224 110,-230 110,-236 110,-236 110,-264 110,-264 110,-270 104,-276 98,-276 98,-276 42,-276 42,-276 36,-276 30,-270 30,-264 30,-264 30,-236 30,-236 30,-230 36,-224 42,-224"/>
<text text-anchor="middle" x="70" y="-264.8" font-family="Helvetica,sans-Serif" font-weight="bold" font-size="9.00">compile&#45;config</text>
</g>
<g id="clust4" class="cluster">
<title>cluster_src/enrich</title>
<path fill="#ffffff" stroke="black" stroke-width="2" d="M216,-580C216,-580 333,-580 333,-580 339,-580 345,-586 345,-592 345,-592 345,-680 345,-680 345,-686 339,-692 333,-692 333,-692 216,-692 216,-692 210,-692 204,-686 204,-680 204,-680 204,-592 204,-592 204,-586 210,-580 216,-580"/>
<text text-anchor="middle" x="274.5" y="-680.8" font-family="Helvetica,sans-Serif" font-weight="bold" font-size="9.00">enrich</text>
</g>
<g id="clust5" class="cluster">
<title>cluster_src/enrich/summarize</title>
<path fill="#ffffff" stroke="black" stroke-width="2" d="M224,-614C224,-614 325,-614 325,-614 331,-614 337,-620 337,-626 337,-626 337,-654 337,-654 337,-660 331,-666 325,-666 325,-666 224,-666 224,-666 218,-666 212,-660 212,-654 212,-654 212,-626 212,-626 212,-620 218,-614 224,-614"/>
<text text-anchor="middle" x="274.5" y="-654.8" font-family="Helvetica,sans-Serif" font-weight="bold" font-size="9.00">summarize</text>
</g>
<g id="clust6" class="cluster">
<title>cluster_src/extract</title>
<path fill="#ffffff" stroke="black" stroke-width="2" d="M392,-608C392,-608 454,-608 454,-608 460,-608 466,-614 466,-620 466,-620 466,-708 466,-708 466,-714 460,-720 454,-720 454,-720 392,-720 392,-720 386,-720 380,-714 380,-708 380,-708 380,-620 380,-620 380,-614 386,-608 392,-608"/>
<text text-anchor="middle" x="423" y="-708.8" font-family="Helvetica,sans-Serif" font-weight="bold" font-size="9.00">extract</text>
</g>
<g id="clust7" class="cluster">
<title>cluster_src/extract/transpile</title>
<path fill="#ffffff" stroke="black" stroke-width="2" d="M400,-616C400,-616 446,-616 446,-616 452,-616 458,-622 458,-628 458,-628 458,-656 458,-656 458,-662 452,-668 446,-668 446,-668 400,-668 400,-668 394,-668 388,-662 388,-656 388,-656 388,-628 388,-628 388,-622 394,-616 400,-616"/>
<text text-anchor="middle" x="423" y="-656.8" font-family="Helvetica,sans-Serif" font-weight="bold" font-size="9.00">transpile</text>
</g>
<g id="clust8" class="cluster">
<title>cluster_src/graph&#45;utl</title>
<path fill="#ffffff" stroke="black" stroke-width="2" d="M221,-370C221,-370 328,-370 328,-370 334,-370 340,-376 340,-382 340,-382 340,-500 340,-500 340,-506 334,-512 328,-512 328,-512 221,-512 221,-512 215,-512 209,-506 209,-500 209,-500 209,-382 209,-382 209,-376 215,-370 221,-370"/>
<text text-anchor="middle" x="274.5" y="-500.8" font-family="Helvetica,sans-Serif" font-weight="bold" font-size="9.00">graph&#45;utl</text>
</g>
<g id="clust9" class="cluster">
<title>cluster_src/main</title>
<path fill="#ffffff" stroke="black" stroke-width="2" d="M146,-106C146,-106 635,-106 635,-106 641,-106 647,-112 647,-118 647,-118 647,-350 647,-350 647,-356 641,-362 635,-362 635,-362 146,-362 146,-362 140,-362 134,-356 134,-350 134,-350 134,-118 134,-118 134,-112 140,-106 146,-106"/>
<text text-anchor="middle" x="390.5" y="-350.8" font-family="Helvetica,sans-Serif" font-weight="bold" font-size="9.00">main</text>
</g>
<g id="clust10" class="cluster">
<title>cluster_src/main/files&#45;and&#45;dirs</title>
<path fill="#ffffff" stroke="black" stroke-width="2" d="M245.5,-284C245.5,-284 303.5,-284 303.5,-284 309.5,-284 315.5,-290 315.5,-296 315.5,-296 315.5,-324 315.5,-324 315.5,-330 309.5,-336 303.5,-336 303.5,-336 245.5,-336 245.5,-336 239.5,-336 233.5,-330 233.5,-324 233.5,-324 233.5,-296 233.5,-296 233.5,-290 239.5,-284 245.5,-284"/>
<text text-anchor="middle" x="274.5" y="-324.8" font-family="Helvetica,sans-Serif" font-weight="bold" font-size="9.00">files&#45;and&#45;dirs</text>
</g>
<g id="clust11" class="cluster">
<title>cluster_src/main/options</title>
<path fill="#ffffff" stroke="black" stroke-width="2" d="M394,-204C394,-204 600,-204 600,-204 606,-204 612,-210 612,-216 612,-216 612,-274 612,-274 612,-280 606,-286 600,-286 600,-286 394,-286 394,-286 388,-286 382,-280 382,-274 382,-274 382,-216 382,-216 382,-210 388,-204 394,-204"/>
<text text-anchor="middle" x="497" y="-274.8" font-family="Helvetica,sans-Serif" font-weight="bold" font-size="9.00">options</text>
</g>
<g id="clust12" class="cluster">
<title>cluster_src/main/resolve&#45;options</title>
<path fill="#ffffff" stroke="black" stroke-width="2" d="M245.5,-214C245.5,-214 304.5,-214 304.5,-214 310.5,-214 316.5,-220 316.5,-226 316.5,-226 316.5,-254 316.5,-254 316.5,-260 310.5,-266 304.5,-266 304.5,-266 245.5,-266 245.5,-266 239.5,-266 233.5,-260 233.5,-254 233.5,-254 233.5,-226 233.5,-226 233.5,-220 239.5,-214 245.5,-214"/>
<text text-anchor="middle" x="275" y="-254.8" font-family="Helvetica,sans-Serif" font-weight="bold" font-size="9.00">resolve&#45;options</text>
</g>
<g id="clust13" class="cluster">
<title>cluster_src/main/rule&#45;set</title>
<path fill="#ffffff" stroke="black" stroke-width="2" d="M245.5,-114C245.5,-114 303.5,-114 303.5,-114 309.5,-114 315.5,-120 315.5,-126 315.5,-126 315.5,-184 315.5,-184 315.5,-190 309.5,-196 303.5,-196 303.5,-196 245.5,-196 245.5,-196 239.5,-196 233.5,-190 233.5,-184 233.5,-184 233.5,-126 233.5,-126 233.5,-120 239.5,-114 245.5,-114"/>
<text text-anchor="middle" x="274.5" y="-184.8" font-family="Helvetica,sans-Serif" font-weight="bold" font-size="9.00">rule&#45;set</text>
</g>
<g id="clust14" class="cluster">
<title>cluster_src/main/utl</title>
<path fill="#ffffff" stroke="black" stroke-width="2" d="M513,-144C513,-144 627,-144 627,-144 633,-144 639,-150 639,-156 639,-156 639,-184 639,-184 639,-190 633,-196 627,-196 627,-196 513,-196 513,-196 507,-196 501,-190 501,-184 501,-184 501,-156 501,-156 501,-150 507,-144 513,-144"/>
<text text-anchor="middle" x="570" y="-184.8" font-family="Helvetica,sans-Serif" font-weight="bold" font-size="9.00">utl</text>
</g>
<g id="clust15" class="cluster">
<title>cluster_src/report</title>
<path fill="#ffffff" stroke="black" stroke-width="2" d="M547,-524C547,-524 593,-524 593,-524 599,-524 605,-530 605,-536 605,-536 605,-564 605,-564 605,-570 599,-576 593,-576 593,-576 547,-576 547,-576 541,-576 535,-570 535,-564 535,-564 535,-536 535,-536 535,-530 541,-524 547,-524"/>
<text text-anchor="middle" x="570" y="-564.8" font-family="Helvetica,sans-Serif" font-weight="bold" font-size="9.00">report</text>
</g>
<g id="clust16" class="cluster">
<title>cluster_src/schema</title>
<path fill="#ffffff" stroke="black" stroke-width="2" d="M365,-16C365,-16 481,-16 481,-16 487,-16 493,-22 493,-28 493,-28 493,-86 493,-86 493,-92 487,-98 481,-98 481,-98 365,-98 365,-98 359,-98 353,-92 353,-86 353,-86 353,-28 353,-28 353,-22 359,-16 365,-16"/>
<text text-anchor="middle" x="423" y="-86.8" font-family="Helvetica,sans-Serif" font-weight="bold" font-size="9.00">schema</text>
</g>
<g id="clust17" class="cluster">
<title>cluster_src/utl</title>
<path fill="#ffffff" stroke="black" stroke-width="2" d="M251.5,-520C251.5,-520 297.5,-520 297.5,-520 303.5,-520 309.5,-526 309.5,-532 309.5,-532 309.5,-560 309.5,-560 309.5,-566 303.5,-572 297.5,-572 297.5,-572 251.5,-572 251.5,-572 245.5,-572 239.5,-566 239.5,-560 239.5,-560 239.5,-532 239.5,-532 239.5,-526 245.5,-520 251.5,-520"/>
<text text-anchor="middle" x="274.5" y="-560.8" font-family="Helvetica,sans-Serif" font-weight="bold" font-size="9.00">utl</text>
</g>
<!-- src/cli/compile&#45;config/index.js -->
<g id="node1" class="node">
<title>src/cli/compile&#45;config/index.js</title>
<g id="a_node1"><a xlink:href="src/cli/compile-config/index.js" xlink:title="index.js">
<path fill="lightgray" stroke="black" d="M91,-250C91,-250 49,-250 49,-250 46,-250 43,-247 43,-244 43,-244 43,-238 43,-238 43,-235 46,-232 49,-232 49,-232 91,-232 91,-232 94,-232 97,-235 97,-238 97,-238 97,-244 97,-244 97,-247 94,-250 91,-250"/>
<text text-anchor="middle" x="70" y="-238.8" font-family="Helvetica,sans-Serif" font-size="9.00" fill="gray">index.js</text>
</a>
</g>
</g>
<!-- src/main/resolve&#45;options/normalize.js -->
<g id="node2" class="node">
<title>src/main/resolve&#45;options/normalize.js</title>
<g id="a_node2"><a xlink:href="src/main/resolve-options/normalize.js" xlink:title="normalize.js">
<path fill="lime" stroke="black" d="M301.5,-240C301.5,-240 247.5,-240 247.5,-240 244.5,-240 241.5,-237 241.5,-234 241.5,-234 241.5,-228 241.5,-228 241.5,-225 244.5,-222 247.5,-222 247.5,-222 301.5,-222 301.5,-222 304.5,-222 307.5,-225 307.5,-228 307.5,-228 307.5,-234 307.5,-234 307.5,-237 304.5,-240 301.5,-240"/>
<text text-anchor="middle" x="274.5" y="-228.8" font-family="Helvetica,sans-Serif" font-size="9.00">normalize.js</text>
</a>
</g>
</g>
<!-- src/cli/compile&#45;config/index.js&#45;&gt;src/main/resolve&#45;options/normalize.js -->
<g id="edge1" class="edge">
<title>src/cli/compile&#45;config/index.js&#45;&gt;src/main/resolve&#45;options/normalize.js</title>
<path fill="none" stroke="#000000" stroke-width="2" stroke-opacity="0.200000" d="M97.16,-234.67C97.16,-234.67 235.47,-234.67 235.47,-234.67"/>
<polygon fill="#000000" fill-opacity="0.200000" stroke="#000000" stroke-width="2" stroke-opacity="0.200000" points="235.47,-236.77 241.47,-234.67 235.47,-232.57 235.47,-236.77"/>
</g>
<!-- src/extract/transpile/meta.js -->
<g id="node10" class="node">
<title>src/extract/transpile/meta.js</title>
<g id="a_node10"><a xlink:href="src/extract/transpile/meta.js" xlink:title="meta.js">
<path fill="lightgray" stroke="black" d="M444,-642C444,-642 402,-642 402,-642 399,-642 396,-639 396,-636 396,-636 396,-630 396,-630 396,-627 399,-624 402,-624 402,-624 444,-624 444,-624 447,-624 450,-627 450,-630 450,-630 450,-636 450,-636 450,-639 447,-642 444,-642"/>
<text text-anchor="middle" x="423" y="-630.8" font-family="Helvetica,sans-Serif" font-size="9.00" fill="gray">meta.js</text>
</a>
</g>
</g>
<!-- src/main/resolve&#45;options/normalize.js&#45;&gt;src/extract/transpile/meta.js -->
<g id="edge25" class="edge">
<title>src/main/resolve&#45;options/normalize.js&#45;&gt;src/extract/transpile/meta.js</title>
<path fill="none" stroke="#000000" stroke-width="2" stroke-opacity="0.200000" d="M307.78,-235C326.84,-235 347,-235 347,-235 347,-235 347,-632 347,-632 347,-632 389.99,-632 389.99,-632"/>
<polygon fill="#000000" fill-opacity="0.200000" stroke="#000000" stroke-width="2" stroke-opacity="0.200000" points="389.99,-634.1 395.99,-632 389.99,-629.9 389.99,-634.1"/>
</g>
<!-- src/cli/format&#45;meta&#45;info.js -->
<g id="node3" class="node">
<title>src/cli/format&#45;meta&#45;info.js</title>
<g id="a_node3"><a xlink:href="src/cli/format-meta-info.js" xlink:title="format&#45;meta&#45;info.js">
<path fill="lightgray" stroke="black" d="M110,-302C110,-302 30,-302 30,-302 27,-302 24,-299 24,-296 24,-296 24,-290 24,-290 24,-287 27,-284 30,-284 30,-284 110,-284 110,-284 113,-284 116,-287 116,-290 116,-290 116,-296 116,-296 116,-299 113,-302 110,-302"/>
<text text-anchor="middle" x="70" y="-290.8" font-family="Helvetica,sans-Serif" font-size="9.00" fill="gray">format&#45;meta&#45;info.js</text>
</a>
</g>
</g>
<!-- src/main/index.js -->
<g id="node4" class="node">
<title>src/main/index.js</title>
<g id="a_node4"><a xlink:href="src/main/index.js" xlink:title="index.js">
<path fill="lime" stroke="black" d="M190,-336C190,-336 148,-336 148,-336 145,-336 142,-333 142,-330 142,-330 142,-324 142,-324 142,-321 145,-318 148,-318 148,-318 190,-318 190,-318 193,-318 196,-321 196,-324 196,-324 196,-330 196,-330 196,-333 193,-336 190,-336"/>
<text text-anchor="middle" x="169" y="-324.8" font-family="Helvetica,sans-Serif" font-size="9.00">index.js</text>
</a>
</g>
</g>
<!-- src/cli/format&#45;meta&#45;info.js&#45;&gt;src/main/index.js -->
<g id="edge2" class="edge">
<title>src/cli/format&#45;meta&#45;info.js&#45;&gt;src/main/index.js</title>
<path fill="none" stroke="#000000" stroke-width="2" stroke-opacity="0.200000" d="M107,-302.06C107,-310.79 107,-322.67 107,-322.67 107,-322.67 135.99,-322.67 135.99,-322.67"/>
<polygon fill="#000000" fill-opacity="0.200000" stroke="#000000" stroke-width="2" stroke-opacity="0.200000" points="135.99,-324.77 141.99,-322.67 135.99,-320.57 135.99,-324.77"/>
</g>
<!-- src/main/index.js&#45;&gt;src/main/resolve&#45;options/normalize.js -->
<g id="edge19" class="edge">
<title>src/main/index.js&#45;&gt;src/main/resolve&#45;options/normalize.js</title>
<path fill="none" stroke="#000000" stroke-width="2" stroke-opacity="0.200000" d="M176,-317.74C176,-294.83 176,-237.33 176,-237.33 176,-237.33 235.43,-237.33 235.43,-237.33"/>
<polygon fill="#000000" fill-opacity="0.200000" stroke="#000000" stroke-width="2" stroke-opacity="0.200000" points="235.43,-239.43 241.43,-237.33 235.43,-235.23 235.43,-239.43"/>
</g>
<!-- src/enrich/index.js -->
<g id="node7" class="node">
<title>src/enrich/index.js</title>
<g id="a_node7"><a xlink:href="src/enrich/index.js" xlink:title="index.js">
<path fill="lightgray" stroke="black" d="M295.5,-606C295.5,-606 253.5,-606 253.5,-606 250.5,-606 247.5,-603 247.5,-600 247.5,-600 247.5,-594 247.5,-594 247.5,-591 250.5,-588 253.5,-588 253.5,-588 295.5,-588 295.5,-588 298.5,-588 301.5,-591 301.5,-594 301.5,-594 301.5,-600 301.5,-600 301.5,-603 298.5,-606 295.5,-606"/>
<text text-anchor="middle" x="274.5" y="-594.8" font-family="Helvetica,sans-Serif" font-size="9.00" fill="gray">index.js</text>
</a>
</g>
</g>
<!-- src/main/index.js&#45;&gt;src/enrich/index.js -->
<g id="edge5" class="edge">
<title>src/main/index.js&#45;&gt;src/enrich/index.js</title>
<path fill="none" stroke="#000000" stroke-width="2" stroke-opacity="0.200000" d="M166,-336.29C166,-383.77 166,-597 166,-597 166,-597 241.4,-597 241.4,-597"/>
<polygon fill="#000000" fill-opacity="0.200000" stroke="#000000" stroke-width="2" stroke-opacity="0.200000" points="241.4,-599.1 247.4,-597 241.4,-594.9 241.4,-599.1"/>
</g>
<!-- src/enrich/summarize/summarize&#45;modules.js -->
<g id="node8" class="node">
<title>src/enrich/summarize/summarize&#45;modules.js</title>
<g id="a_node8"><a xlink:href="src/enrich/summarize/summarize-modules.js" xlink:title="summarize&#45;modules.js">
<path fill="lightgray" stroke="black" d="M323,-640C323,-640 226,-640 226,-640 223,-640 220,-637 220,-634 220,-634 220,-628 220,-628 220,-625 223,-622 226,-622 226,-622 323,-622 323,-622 326,-622 329,-625 329,-628 329,-628 329,-634 329,-634 329,-637 326,-640 323,-640"/>
<text text-anchor="middle" x="274.5" y="-628.8" font-family="Helvetica,sans-Serif" font-size="9.00" fill="gray">summarize&#45;modules.js</text>
</a>
</g>
</g>
<!-- src/main/index.js&#45;&gt;src/enrich/summarize/summarize&#45;modules.js -->
<g id="edge6" class="edge">
<title>src/main/index.js&#45;&gt;src/enrich/summarize/summarize&#45;modules.js</title>
<path fill="none" stroke="#000000" stroke-width="2" stroke-opacity="0.200000" d="M160,-336.1C160,-386.68 160,-631 160,-631 160,-631 213.93,-631 213.93,-631"/>
<polygon fill="#000000" fill-opacity="0.200000" stroke="#000000" stroke-width="2" stroke-opacity="0.200000" points="213.93,-633.1 219.93,-631 213.93,-628.9 213.93,-633.1"/>
</g>
<!-- src/extract/index.js -->
<g id="node9" class="node">
<title>src/extract/index.js</title>
<g id="a_node9"><a xlink:href="src/extract/index.js" xlink:title="index.js">
<path fill="lightgray" stroke="black" d="M444,-694C444,-694 402,-694 402,-694 399,-694 396,-691 396,-688 396,-688 396,-682 396,-682 396,-679 399,-676 402,-676 402,-676 444,-676 444,-676 447,-676 450,-679 450,-682 450,-682 450,-688 450,-688 450,-691 447,-694 444,-694"/>
<text text-anchor="middle" x="423" y="-682.8" font-family="Helvetica,sans-Serif" font-size="9.00" fill="gray">index.js</text>
</a>
</g>
</g>
<!-- src/main/index.js&#45;&gt;src/extract/index.js -->
<g id="edge7" class="edge">
<title>src/main/index.js&#45;&gt;src/extract/index.js</title>
<path fill="none" stroke="#000000" stroke-width="2" stroke-opacity="0.200000" d="M154,-336.21C154,-392.24 154,-685 154,-685 154,-685 389.98,-685 389.98,-685"/>
<polygon fill="#000000" fill-opacity="0.200000" stroke="#000000" stroke-width="2" stroke-opacity="0.200000" points="389.98,-687.1 395.98,-685 389.98,-682.9 389.98,-687.1"/>
</g>
<!-- src/main/index.js&#45;&gt;src/extract/transpile/meta.js -->
<g id="edge8" class="edge">
<title>src/main/index.js&#45;&gt;src/extract/transpile/meta.js</title>
<path fill="none" stroke="#000000" stroke-width="2" stroke-opacity="0.200000" d="M196.18,-327C261.71,-327 423,-327 423,-327 423,-327 423,-617.84 423,-617.84"/>
<polygon fill="#000000" fill-opacity="0.200000" stroke="#000000" stroke-width="2" stroke-opacity="0.200000" points="420.9,-617.84 423,-623.84 425.1,-617.84 420.9,-617.84"/>
</g>
<!-- src/graph&#45;utl/compare.js -->
<g id="node11" class="node">
<title>src/graph&#45;utl/compare.js</title>
<g id="a_node11"><a xlink:href="src/graph-utl/compare.js" xlink:title="compare.js">
<path fill="lightgray" stroke="black" d="M299.5,-426C299.5,-426 249.5,-426 249.5,-426 246.5,-426 243.5,-423 243.5,-420 243.5,-420 243.5,-414 243.5,-414 243.5,-411 246.5,-408 249.5,-408 249.5,-408 299.5,-408 299.5,-408 302.5,-408 305.5,-411 305.5,-414 305.5,-414 305.5,-420 305.5,-420 305.5,-423 302.5,-426 299.5,-426"/>
<text text-anchor="middle" x="274.5" y="-414.8" font-family="Helvetica,sans-Serif" font-size="9.00" fill="gray">compare.js</text>
</a>
</g>
</g>
<!-- src/main/index.js&#45;&gt;src/graph&#45;utl/compare.js -->
<g id="edge9" class="edge">
<title>src/main/index.js&#45;&gt;src/graph&#45;utl/compare.js</title>
<path fill="none" stroke="#000000" stroke-width="2" stroke-opacity="0.200000" d="M190,-336.29C190,-359.29 190,-417 190,-417 190,-417 237.04,-417 237.04,-417"/>
<polygon fill="#000000" fill-opacity="0.200000" stroke="#000000" stroke-width="2" stroke-opacity="0.200000" points="237.04,-419.1 243.04,-417 237.04,-414.9 237.04,-419.1"/>
</g>
<!-- src/graph&#45;utl/consolidate&#45;to&#45;pattern.js -->
<g id="node12" class="node">
<title>src/graph&#45;utl/consolidate&#45;to&#45;pattern.js</title>
<g id="a_node12"><a xlink:href="src/graph-utl/consolidate-to-pattern.js" xlink:title="consolidate&#45;to&#45;pattern.js">
<path fill="lightgray" stroke="black" d="M326,-396C326,-396 223,-396 223,-396 220,-396 217,-393 217,-390 217,-390 217,-384 217,-384 217,-381 220,-378 223,-378 223,-378 326,-378 326,-378 329,-378 332,-381 332,-384 332,-384 332,-390 332,-390 332,-393 329,-396 326,-396"/>
<text text-anchor="middle" x="274.5" y="-384.8" font-family="Helvetica,sans-Serif" font-size="9.00" fill="gray">consolidate&#45;to&#45;pattern.js</text>
</a>
</g>
</g>
<!-- src/main/index.js&#45;&gt;src/graph&#45;utl/consolidate&#45;to&#45;pattern.js -->
<g id="edge10" class="edge">
<title>src/main/index.js&#45;&gt;src/graph&#45;utl/consolidate&#45;to&#45;pattern.js</title>
<path fill="none" stroke="#000000" stroke-width="2" stroke-opacity="0.200000" d="M196.29,-331.5C212.53,-331.5 230,-331.5 230,-331.5 230,-331.5 230,-371.84 230,-371.84"/>
<polygon fill="#000000" fill-opacity="0.200000" stroke="#000000" stroke-width="2" stroke-opacity="0.200000" points="227.9,-371.84 230,-377.84 232.1,-371.84 227.9,-371.84"/>
</g>
<!-- src/graph&#45;utl/filterbank.js -->
<g id="node13" class="node">
<title>src/graph&#45;utl/filterbank.js</title>
<g id="a_node13"><a xlink:href="src/graph-utl/filterbank.js" xlink:title="filterbank.js">
<path fill="lightgray" stroke="black" d="M300,-486C300,-486 249,-486 249,-486 246,-486 243,-483 243,-480 243,-480 243,-474 243,-474 243,-471 246,-468 249,-468 249,-468 300,-468 300,-468 303,-468 306,-471 306,-474 306,-474 306,-480 306,-480 306,-483 303,-486 300,-486"/>
<text text-anchor="middle" x="274.5" y="-474.8" font-family="Helvetica,sans-Serif" font-size="9.00" fill="gray">filterbank.js</text>
</a>
</g>
</g>
<!-- src/main/index.js&#45;&gt;src/graph&#45;utl/filterbank.js -->
<g id="edge11" class="edge">
<title>src/main/index.js&#45;&gt;src/graph&#45;utl/filterbank.js</title>
<path fill="none" stroke="#000000" stroke-width="2" stroke-opacity="0.200000" d="M178,-336.38C178,-369.22 178,-477 178,-477 178,-477 236.9,-477 236.9,-477"/>
<polygon fill="#000000" fill-opacity="0.200000" stroke="#000000" stroke-width="2" stroke-opacity="0.200000" points="236.9,-479.1 242.9,-477 236.9,-474.9 236.9,-479.1"/>
</g>
<!-- src/graph&#45;utl/strip&#45;self&#45;transitions.js -->
<g id="node14" class="node">
<title>src/graph&#45;utl/strip&#45;self&#45;transitions.js</title>
<g id="a_node14"><a xlink:href="src/graph-utl/strip-self-transitions.js" xlink:title="strip&#45;self&#45;transitions.js">
<path fill="lightgray" stroke="black" d="M321,-456C321,-456 228,-456 228,-456 225,-456 222,-453 222,-450 222,-450 222,-444 222,-444 222,-441 225,-438 228,-438 228,-438 321,-438 321,-438 324,-438 327,-441 327,-444 327,-444 327,-450 327,-450 327,-453 324,-456 321,-456"/>
<text text-anchor="middle" x="274.5" y="-444.8" font-family="Helvetica,sans-Serif" font-size="9.00" fill="gray">strip&#45;self&#45;transitions.js</text>
</a>
</g>
</g>
<!-- src/main/index.js&#45;&gt;src/graph&#45;utl/strip&#45;self&#45;transitions.js -->
<g id="edge12" class="edge">
<title>src/main/index.js&#45;&gt;src/graph&#45;utl/strip&#45;self&#45;transitions.js</title>
<path fill="none" stroke="#000000" stroke-width="2" stroke-opacity="0.200000" d="M184,-336.02C184,-363.93 184,-447 184,-447 184,-447 215.86,-447 215.86,-447"/>
<polygon fill="#000000" fill-opacity="0.200000" stroke="#000000" stroke-width="2" stroke-opacity="0.200000" points="215.86,-449.1 221.86,-447 215.86,-444.9 215.86,-449.1"/>
</g>
<!-- src/main/files&#45;and&#45;dirs/normalize.js -->
<g id="node15" class="node">
<title>src/main/files&#45;and&#45;dirs/normalize.js</title>
<g id="a_node15"><a xlink:href="src/main/files-and-dirs/normalize.js" xlink:title="normalize.js">
<path fill="lime" stroke="black" d="M301.5,-310C301.5,-310 247.5,-310 247.5,-310 244.5,-310 241.5,-307 241.5,-304 241.5,-304 241.5,-298 241.5,-298 241.5,-295 244.5,-292 247.5,-292 247.5,-292 301.5,-292 301.5,-292 304.5,-292 307.5,-295 307.5,-298 307.5,-298 307.5,-304 307.5,-304 307.5,-307 304.5,-310 301.5,-310"/>
<text text-anchor="middle" x="274.5" y="-298.8" font-family="Helvetica,sans-Serif" font-size="9.00">normalize.js</text>
</a>
</g>
</g>
<!-- src/main/index.js&#45;&gt;src/main/files&#45;and&#45;dirs/normalize.js -->
<g id="edge16" class="edge">
<title>src/main/index.js&#45;&gt;src/main/files&#45;and&#45;dirs/normalize.js</title>
<path fill="none" stroke="#000000" stroke-width="2" stroke-opacity="0.200000" d="M190,-317.97C190,-312.28 190,-306 190,-306 190,-306 235.1,-306 235.1,-306"/>
<polygon fill="#000000" fill-opacity="0.200000" stroke="#000000" stroke-width="2" stroke-opacity="0.200000" points="235.1,-308.1 241.1,-306 235.1,-303.9 235.1,-308.1"/>
</g>
<!-- src/report/index.js -->
<g id="node16" class="node">
<title>src/report/index.js</title>
<g id="a_node16"><a xlink:href="src/report/index.js" xlink:title="index.js">
<path fill="lightgray" stroke="black" d="M591,-550C591,-550 549,-550 549,-550 546,-550 543,-547 543,-544 543,-544 543,-538 543,-538 543,-535 546,-532 549,-532 549,-532 591,-532 591,-532 594,-532 597,-535 597,-538 597,-538 597,-544 597,-544 597,-547 594,-550 591,-550"/>
<text text-anchor="middle" x="570" y="-538.8" font-family="Helvetica,sans-Serif" font-size="9.00" fill="gray">index.js</text>
</a>
</g>
</g>
<!-- src/main/index.js&#45;&gt;src/report/index.js -->
<g id="edge13" class="edge">
<title>src/main/index.js&#45;&gt;src/report/index.js</title>
<path fill="none" stroke="#000000" stroke-width="2" stroke-opacity="0.200000" d="M196.25,-322.5C286.5,-322.5 570,-322.5 570,-322.5 570,-322.5 570,-525.89 570,-525.89"/>
<polygon fill="#000000" fill-opacity="0.200000" stroke="#000000" stroke-width="2" stroke-opacity="0.200000" points="567.9,-525.89 570,-531.89 572.1,-525.89 567.9,-525.89"/>
</g>
<!-- src/schema/cruise&#45;result.schema.json -->
<g id="node17" class="node">
<title>src/schema/cruise&#45;result.schema.json</title>
<g id="a_node17"><a xlink:href="src/schema/cruise-result.schema.json" xlink:title="cruise&#45;result.schema.json">
<path fill="lightgray" stroke="black" d="M477.5,-42C477.5,-42 368.5,-42 368.5,-42 365.5,-42 362.5,-39 362.5,-36 362.5,-36 362.5,-30 362.5,-30 362.5,-27 365.5,-24 368.5,-24 368.5,-24 477.5,-24 477.5,-24 480.5,-24 483.5,-27 483.5,-30 483.5,-30 483.5,-36 483.5,-36 483.5,-39 480.5,-42 477.5,-42"/>
<text text-anchor="middle" x="423" y="-30.8" font-family="Helvetica,sans-Serif" font-size="9.00" fill="gray">cruise&#45;result.schema.json</text>
</a>
</g>
</g>
<!-- src/main/index.js&#45;&gt;src/schema/cruise&#45;result.schema.json -->
<g id="edge14" class="edge">
<title>src/main/index.js&#45;&gt;src/schema/cruise&#45;result.schema.json</title>
<path fill="none" stroke="#000000" stroke-width="2" stroke-opacity="0.200000" d="M149,-317.88C149,-268.25 149,-33 149,-33 149,-33 356.19,-33 356.19,-33"/>
<polygon fill="#000000" fill-opacity="0.200000" stroke="#000000" stroke-width="2" stroke-opacity="0.200000" points="356.19,-35.1 362.19,-33 356.19,-30.9 356.19,-35.1"/>
</g>
<!-- src/utl/bus.js -->
<g id="node18" class="node">
<title>src/utl/bus.js</title>
<g id="a_node18"><a xlink:href="src/utl/bus.js" xlink:title="bus.js">
<path fill="lightgray" stroke="black" d="M295.5,-546C295.5,-546 253.5,-546 253.5,-546 250.5,-546 247.5,-543 247.5,-540 247.5,-540 247.5,-534 247.5,-534 247.5,-531 250.5,-528 253.5,-528 253.5,-528 295.5,-528 295.5,-528 298.5,-528 301.5,-531 301.5,-534 301.5,-534 301.5,-540 301.5,-540 301.5,-543 298.5,-546 295.5,-546"/>
<text text-anchor="middle" x="274.5" y="-534.8" font-family="Helvetica,sans-Serif" font-size="9.00" fill="gray">bus.js</text>
</a>
</g>
</g>
<!-- src/main/index.js&#45;&gt;src/utl/bus.js -->
<g id="edge15" class="edge">
<title>src/main/index.js&#45;&gt;src/utl/bus.js</title>
<path fill="none" stroke="#000000" stroke-width="2" stroke-opacity="0.200000" d="M172,-336.02C172,-376.22 172,-537 172,-537 172,-537 241.3,-537 241.3,-537"/>
<polygon fill="#000000" fill-opacity="0.200000" stroke="#000000" stroke-width="2" stroke-opacity="0.200000" points="241.3,-539.1 247.3,-537 241.3,-534.9 241.3,-539.1"/>
</g>
<!-- src/main/options/normalize.js -->
<g id="node19" class="node">
<title>src/main/options/normalize.js</title>
<g id="a_node19"><a xlink:href="src/main/options/normalize.js" xlink:title="normalize.js">
<path fill="lime" stroke="black" d="M450,-260C450,-260 396,-260 396,-260 393,-260 390,-257 390,-254 390,-254 390,-248 390,-248 390,-245 393,-242 396,-242 396,-242 450,-242 450,-242 453,-242 456,-245 456,-248 456,-248 456,-254 456,-254 456,-257 453,-260 450,-260"/>
<text text-anchor="middle" x="423" y="-248.8" font-family="Helvetica,sans-Serif" font-size="9.00">normalize.js</text>
</a>
</g>
</g>
<!-- src/main/index.js&#45;&gt;src/main/options/normalize.js -->
<g id="edge17" class="edge">
<title>src/main/index.js&#45;&gt;src/main/options/normalize.js</title>
<path fill="none" stroke="#000000" stroke-width="2" stroke-opacity="0.200000" d="M183,-317.88C183,-298.51 183,-255 183,-255 183,-255 383.88,-255 383.88,-255"/>
<polygon fill="#000000" fill-opacity="0.200000" stroke="#000000" stroke-width="2" stroke-opacity="0.200000" points="383.88,-257.1 389.88,-255 383.88,-252.9 383.88,-257.1"/>
</g>
<!-- src/main/options/validate.js -->
<g id="node20" class="node">
<title>src/main/options/validate.js</title>
<g id="a_node20"><a xlink:href="src/main/options/validate.js" xlink:title="validate.js">
<path fill="lime" stroke="black" d="M446,-230C446,-230 400,-230 400,-230 397,-230 394,-227 394,-224 394,-224 394,-218 394,-218 394,-215 397,-212 400,-212 400,-212 446,-212 446,-212 449,-212 452,-215 452,-218 452,-218 452,-224 452,-224 452,-227 449,-230 446,-230"/>
<text text-anchor="middle" x="423" y="-218.8" font-family="Helvetica,sans-Serif" font-size="9.00">validate.js</text>
</a>
</g>
</g>
<!-- src/main/index.js&#45;&gt;src/main/options/validate.js -->
<g id="edge18" class="edge">
<title>src/main/index.js&#45;&gt;src/main/options/validate.js</title>
<path fill="none" stroke="#000000" stroke-width="2" stroke-opacity="0.200000" d="M169,-318C169,-291.73 169,-217 169,-217 169,-217 387.86,-217 387.86,-217"/>
<polygon fill="#000000" fill-opacity="0.200000" stroke="#000000" stroke-width="2" stroke-opacity="0.200000" points="387.86,-219.1 393.86,-217 387.86,-214.9 387.86,-219.1"/>
</g>
<!-- src/main/rule&#45;set/normalize.js -->
<g id="node21" class="node">
<title>src/main/rule&#45;set/normalize.js</title>
<g id="a_node21"><a xlink:href="src/main/rule-set/normalize.js" xlink:title="normalize.js">
<path fill="lime" stroke="black" d="M301.5,-170C301.5,-170 247.5,-170 247.5,-170 244.5,-170 241.5,-167 241.5,-164 241.5,-164 241.5,-158 241.5,-158 241.5,-155 244.5,-152 247.5,-152 247.5,-152 301.5,-152 301.5,-152 304.5,-152 307.5,-155 307.5,-158 307.5,-158 307.5,-164 307.5,-164 307.5,-167 304.5,-170 301.5,-170"/>
<text text-anchor="middle" x="274.5" y="-158.8" font-family="Helvetica,sans-Serif" font-size="9.00">normalize.js</text>
</a>
</g>
</g>
<!-- src/main/index.js&#45;&gt;src/main/rule&#45;set/normalize.js -->
<g id="edge20" class="edge">
<title>src/main/index.js&#45;&gt;src/main/rule&#45;set/normalize.js</title>
<path fill="none" stroke="#000000" stroke-width="2" stroke-opacity="0.200000" d="M163,-317.6C163,-282.48 163,-161 163,-161 163,-161 235.35,-161 235.35,-161"/>
<polygon fill="#000000" fill-opacity="0.200000" stroke="#000000" stroke-width="2" stroke-opacity="0.200000" points="235.35,-163.1 241.35,-161 235.35,-158.9 235.35,-163.1"/>
</g>
<!-- src/main/rule&#45;set/validate.js -->
<g id="node22" class="node">
<title>src/main/rule&#45;set/validate.js</title>
<g id="a_node22"><a xlink:href="src/main/rule-set/validate.js" xlink:title="validate.js">
<path fill="lime" stroke="black" d="M297.5,-140C297.5,-140 251.5,-140 251.5,-140 248.5,-140 245.5,-137 245.5,-134 245.5,-134 245.5,-128 245.5,-128 245.5,-125 248.5,-122 251.5,-122 251.5,-122 297.5,-122 297.5,-122 300.5,-122 303.5,-125 303.5,-128 303.5,-128 303.5,-134 303.5,-134 303.5,-137 300.5,-140 297.5,-140"/>
<text text-anchor="middle" x="274.5" y="-128.8" font-family="Helvetica,sans-Serif" font-size="9.00">validate.js</text>
</a>
</g>
</g>
<!-- src/main/index.js&#45;&gt;src/main/rule&#45;set/validate.js -->
<g id="edge21" class="edge">
<title>src/main/index.js&#45;&gt;src/main/rule&#45;set/validate.js</title>
<path fill="none" stroke="#000000" stroke-width="2" stroke-opacity="0.200000" d="M156,-317.81C156,-279.06 156,-131 156,-131 156,-131 239.21,-131 239.21,-131"/>
<polygon fill="#000000" fill-opacity="0.200000" stroke="#000000" stroke-width="2" stroke-opacity="0.200000" points="239.21,-133.1 245.21,-131 239.21,-128.9 239.21,-133.1"/>
</g>
<!-- src/cli/format.js -->
<g id="node5" class="node">
<title>src/cli/format.js</title>
<g id="a_node5"><a xlink:href="src/cli/format.js" xlink:title="format.js">
<path fill="lightgray" stroke="black" d="M91,-362C91,-362 49,-362 49,-362 46,-362 43,-359 43,-356 43,-356 43,-350 43,-350 43,-347 46,-344 49,-344 49,-344 91,-344 91,-344 94,-344 97,-347 97,-350 97,-350 97,-356 97,-356 97,-359 94,-362 91,-362"/>
<text text-anchor="middle" x="70" y="-350.8" font-family="Helvetica,sans-Serif" font-size="9.00" fill="gray">format.js</text>
</a>
</g>
</g>
<!-- src/cli/format.js&#45;&gt;src/main/index.js -->
<g id="edge3" class="edge">
<title>src/cli/format.js&#45;&gt;src/main/index.js</title>
<path fill="none" stroke="#000000" stroke-width="2" stroke-opacity="0.200000" d="M97.28,-353C119.77,-353 148,-353 148,-353 148,-353 148,-342.09 148,-342.09"/>
<polygon fill="#000000" fill-opacity="0.200000" stroke="#000000" stroke-width="2" stroke-opacity="0.200000" points="150.1,-342.09 148,-336.09 145.9,-342.09 150.1,-342.09"/>
</g>
<!-- src/cli/index.js -->
<g id="node6" class="node">
<title>src/cli/index.js</title>
<g id="a_node6"><a xlink:href="src/cli/index.js" xlink:title="index.js">
<path fill="lightgray" stroke="black" d="M91,-332C91,-332 49,-332 49,-332 46,-332 43,-329 43,-326 43,-326 43,-320 43,-320 43,-317 46,-314 49,-314 49,-314 91,-314 91,-314 94,-314 97,-317 97,-320 97,-320 97,-326 97,-326 97,-329 94,-332 91,-332"/>
<text text-anchor="middle" x="70" y="-320.8" font-family="Helvetica,sans-Serif" font-size="9.00" fill="gray">index.js</text>
</a>
</g>
</g>
<!-- src/cli/index.js&#45;&gt;src/main/index.js -->
<g id="edge4" class="edge">
<title>src/cli/index.js&#45;&gt;src/main/index.js</title>
<path fill="none" stroke="#000000" stroke-width="2" stroke-opacity="0.200000" d="M97.05,-327.33C97.05,-327.33 135.98,-327.33 135.98,-327.33"/>
<polygon fill="#000000" fill-opacity="0.200000" stroke="#000000" stroke-width="2" stroke-opacity="0.200000" points="135.98,-329.43 141.98,-327.33 135.98,-325.23 135.98,-329.43"/>
</g>
<!-- src/main/options/defaults.json -->
<g id="node23" class="node">
<title>src/main/options/defaults.json</title>
<g id="a_node23"><a xlink:href="src/main/options/defaults.json" xlink:title="defaults.json">
<path fill="lime" stroke="black" d="M598,-260C598,-260 542,-260 542,-260 539,-260 536,-257 536,-254 536,-254 536,-248 536,-248 536,-245 539,-242 542,-242 542,-242 598,-242 598,-242 601,-242 604,-245 604,-248 604,-248 604,-254 604,-254 604,-257 601,-260 598,-260"/>
<text text-anchor="middle" x="570" y="-248.8" font-family="Helvetica,sans-Serif" font-size="9.00">defaults.json</text>
</a>
</g>
</g>
<!-- src/main/options/normalize.js&#45;&gt;src/main/options/defaults.json -->
<g id="edge23" class="edge">
<title>src/main/options/normalize.js&#45;&gt;src/main/options/defaults.json</title>
<path fill="none" stroke="#000000" stroke-width="2" stroke-opacity="0.200000" d="M456.36,-254C456.36,-254 529.76,-254 529.76,-254"/>
<polygon fill="#000000" fill-opacity="0.200000" stroke="#000000" stroke-width="2" stroke-opacity="0.200000" points="529.76,-256.1 535.76,-254 529.76,-251.9 529.76,-256.1"/>
</g>
<!-- src/main/utl/normalize&#45;re&#45;properties.js -->
<g id="node24" class="node">
<title>src/main/utl/normalize&#45;re&#45;properties.js</title>
<g id="a_node24"><a xlink:href="src/main/utl/normalize-re-properties.js" xlink:title="normalize&#45;re&#45;properties.js">
<path fill="lime" stroke="black" d="M625,-170C625,-170 515,-170 515,-170 512,-170 509,-167 509,-164 509,-164 509,-158 509,-158 509,-155 512,-152 515,-152 515,-152 625,-152 625,-152 628,-152 631,-155 631,-158 631,-158 631,-164 631,-164 631,-167 628,-170 625,-170"/>
<text text-anchor="middle" x="570" y="-158.8" font-family="Helvetica,sans-Serif" font-size="9.00">normalize&#45;re&#45;properties.js</text>
</a>
</g>
</g>
<!-- src/main/options/normalize.js&#45;&gt;src/main/utl/normalize&#45;re&#45;properties.js -->
<g id="edge22" class="edge">
<title>src/main/options/normalize.js&#45;&gt;src/main/utl/normalize&#45;re&#45;properties.js</title>
<path fill="none" stroke="#000000" stroke-width="2" stroke-opacity="0.200000" d="M456.02,-248C485.15,-248 523,-248 523,-248 523,-248 523,-176.31 523,-176.31"/>
<polygon fill="#000000" fill-opacity="0.200000" stroke="#000000" stroke-width="2" stroke-opacity="0.200000" points="525.1,-176.31 523,-170.31 520.9,-176.31 525.1,-176.31"/>
</g>
<!-- src/main/options/validate.js&#45;&gt;src/report/index.js -->
<g id="edge24" class="edge">
<title>src/main/options/validate.js&#45;&gt;src/report/index.js</title>
<path fill="none" stroke="#000000" stroke-width="2" stroke-opacity="0.200000" d="M452.03,-221C462.14,-221 471,-221 471,-221 471,-221 471,-539 471,-539 471,-539 536.95,-539 536.95,-539"/>
<polygon fill="#000000" fill-opacity="0.200000" stroke="#000000" stroke-width="2" stroke-opacity="0.200000" points="536.95,-541.1 542.95,-539 536.95,-536.9 536.95,-541.1"/>
</g>
<!-- src/main/rule&#45;set/normalize.js&#45;&gt;src/main/utl/normalize&#45;re&#45;properties.js -->
<g id="edge26" class="edge">
<title>src/main/rule&#45;set/normalize.js&#45;&gt;src/main/utl/normalize&#45;re&#45;properties.js</title>
<path fill="none" stroke="#000000" stroke-width="2" stroke-opacity="0.200000" d="M307.54,-161C307.54,-161 503,-161 503,-161"/>
<polygon fill="#000000" fill-opacity="0.200000" stroke="#000000" stroke-width="2" stroke-opacity="0.200000" points="503,-163.1 509,-161 503,-158.9 503,-163.1"/>
</g>
<!-- src/main/rule&#45;set/validate.js&#45;&gt;src/main/options/validate.js -->
<g id="edge28" class="edge">
<title>src/main/rule&#45;set/validate.js&#45;&gt;src/main/options/validate.js</title>
<path fill="none" stroke="#000000" stroke-width="2" stroke-opacity="0.200000" d="M303.84,-134C347.12,-134 423,-134 423,-134 423,-134 423,-205.69 423,-205.69"/>
<polygon fill="#000000" fill-opacity="0.200000" stroke="#000000" stroke-width="2" stroke-opacity="0.200000" points="420.9,-205.69 423,-211.69 425.1,-205.69 420.9,-205.69"/>
</g>
<!-- src/schema/configuration.schema.json -->
<g id="node25" class="node">
<title>src/schema/configuration.schema.json</title>
<g id="a_node25"><a xlink:href="src/schema/configuration.schema.json" xlink:title="configuration.schema.json">
<path fill="lightgray" stroke="black" d="M479,-72C479,-72 367,-72 367,-72 364,-72 361,-69 361,-66 361,-66 361,-60 361,-60 361,-57 364,-54 367,-54 367,-54 479,-54 479,-54 482,-54 485,-57 485,-60 485,-60 485,-66 485,-66 485,-69 482,-72 479,-72"/>
<text text-anchor="middle" x="423" y="-60.8" font-family="Helvetica,sans-Serif" font-size="9.00" fill="gray">configuration.schema.json</text>
</a>
</g>
</g>
<!-- src/main/rule&#45;set/validate.js&#45;&gt;src/schema/configuration.schema.json -->
<g id="edge27" class="edge">
<title>src/main/rule&#45;set/validate.js&#45;&gt;src/schema/configuration.schema.json</title>
<path fill="none" stroke="#000000" stroke-width="2" stroke-opacity="0.200000" d="M303.59,-128C333.58,-128 376,-128 376,-128 376,-128 376,-78.04 376,-78.04"/>
<polygon fill="#000000" fill-opacity="0.200000" stroke="#000000" stroke-width="2" stroke-opacity="0.200000" points="378.1,-78.04 376,-72.04 373.9,-78.04 378.1,-78.04"/>
</g>
</g>
</svg>
