<svg xmlns="http://www.w3.org/2000/svg" xmlns:xlink="http://www.w3.org/1999/xlink" width="1280" height="960" viewBox="0 0 959.62 720"><g class="graph" transform="translate(4 716)"><path fill="#fff" d="M-4 4v-720h959.62V4z"/><g class="cluster"><path fill="#fff" stroke="#000" stroke-width="2" d="M20-8h911.62c6 0 12-6 12-12v-672c0-6-6-12-12-12H20c-6 0-12 6-12 12v672c0 6 6 12 12 12"/><text x="475.81" y="-691.45" font-family="Helvetica,sans-Serif" font-size="9" font-weight="bold" text-anchor="middle">src</text></g><g class="cluster"><path fill="#fff" stroke="#000" stroke-width="2" d="M470-36h49.25c6 0 12-6 12-12v-28c0-6-6-12-12-12H470c-6 0-12 6-12 12v28c0 6 6 12 12 12"/><text x="494.62" y="-75.45" font-family="Helvetica,sans-Serif" font-size="9" font-weight="bold" text-anchor="middle">cache</text></g><g class="cluster"><path fill="#fff" stroke="#000" stroke-width="2" d="M28-276h162.25c6 0 12-6 12-12v-58c0-6-6-12-12-12H28c-6 0-12 6-12 12v58c0 6 6 12 12 12"/><text x="109.12" y="-345.45" font-family="Helvetica,sans-Serif" font-size="9" font-weight="bold" text-anchor="middle">cli</text></g><g class="cluster"><path fill="#fff" stroke="#000" stroke-width="2" d="M301.25-502h113c6 0 12-6 12-12v-62c0-6-6-12-12-12h-113c-6 0-12 6-12 12v62c0 6 6 12 12 12"/><text x="357.75" y="-575.45" font-family="Helvetica,sans-Serif" font-size="9" font-weight="bold" text-anchor="middle">config-utl</text></g><g class="cluster"><path fill="#fff" stroke="#000" stroke-width="2" d="M309.25-510h97c6 0 12-6 12-12v-28c0-6-6-12-12-12h-97c-6 0-12 6-12 12v28c0 6 6 12 12 12"/><text x="357.75" y="-549.45" font-family="Helvetica,sans-Serif" font-size="9" font-weight="bold" text-anchor="middle">extract-depcruise-config</text></g><g class="cluster"><path fill="#fff" stroke="#000" stroke-width="2" d="M599.62-592H773c6 0 12-6 12-12v-62c0-6-6-12-12-12H599.62c-6 0-12 6-12 12v62c0 6 6 12 12 12"/><text x="686.31" y="-665.45" font-family="Helvetica,sans-Serif" font-size="9" font-weight="bold" text-anchor="middle">enrich</text></g><g class="cluster"><path fill="#fff" stroke="#000" stroke-width="2" d="M718-600h47c6 0 12-6 12-12v-28c0-6-6-12-12-12h-47c-6 0-12 6-12 12v28c0 6 6 12 12 12"/><text x="741.5" y="-639.45" font-family="Helvetica,sans-Serif" font-size="9" font-weight="bold" text-anchor="middle">summarize</text></g><g class="cluster"><path fill="#fff" stroke="#000" stroke-width="2" d="M592.12-70h62c6 0 12-6 12-12v-88c0-6-6-12-12-12h-62c-6 0-12 6-12 12v88c0 6 6 12 12 12"/><text x="623.12" y="-169.45" font-family="Helvetica,sans-Serif" font-size="9" font-weight="bold" text-anchor="middle">extract</text></g><g class="cluster"><path fill="#fff" stroke="#000" stroke-width="2" d="M600.12-78h46c6 0 12-6 12-12v-28c0-6-6-12-12-12h-46c-6 0-12 6-12 12v28c0 6 6 12 12 12"/><text x="623.12" y="-117.45" font-family="Helvetica,sans-Serif" font-size="9" font-weight="bold" text-anchor="middle">transpile</text></g><g class="cluster"><path fill="#fff" stroke="#000" stroke-width="2" d="M809.88-238h113.74c6 0 12-6 12-12v-148c0-6-6-12-12-12H809.88c-6 0-12 6-12 12v148c0 6 6 12 12 12"/><text x="866.75" y="-397.45" font-family="Helvetica,sans-Serif" font-size="9" font-weight="bold" text-anchor="middle">graph-utl</text></g><g class="cluster"><path fill="#fff" stroke="#000" stroke-width="2" d="M222.25-190h555.63c6 0 12-6 12-12v-280c0-6-6-12-12-12H222.25c-6 0-12 6-12 12v280c0 6 6 12 12 12"/><text x="500.06" y="-481.45" font-family="Helvetica,sans-Serif" font-size="9" font-weight="bold" text-anchor="middle">main</text></g><g class="cluster"><path fill="#fff" stroke="#000" stroke-width="2" d="M462.12-198h65c6 0 12-6 12-12v-28c0-6-6-12-12-12h-65c-6 0-12 6-12 12v28c0 6 6 12 12 12"/><text x="494.62" y="-237.45" font-family="Helvetica,sans-Serif" font-size="9" font-weight="bold" text-anchor="middle">files-and-dirs</text></g><g class="cluster"><path fill="#fff" stroke="#000" stroke-width="2" d="M582.75-282h187.13c6 0 12-6 12-12v-58c0-6-6-12-12-12H582.75c-6 0-12 6-12 12v58c0 6 6 12 12 12"/><text x="676.31" y="-351.45" font-family="Helvetica,sans-Serif" font-size="9" font-weight="bold" text-anchor="middle">options</text></g><g class="cluster"><path fill="#fff" stroke="#000" stroke-width="2" d="M462.12-258h65c6 0 12-6 12-12v-28c0-6-6-12-12-12h-65c-6 0-12 6-12 12v28c0 6 6 12 12 12"/><text x="494.62" y="-297.45" font-family="Helvetica,sans-Serif" font-size="9" font-weight="bold" text-anchor="middle">resolve-options</text></g><g class="cluster"><path fill="#fff" stroke="#000" stroke-width="2" d="M454.25-386H535c6 0 12-6 12-12v-58c0-6-6-12-12-12h-80.75c-6 0-12 6-12 12v58c0 6 6 12 12 12"/><text x="494.62" y="-455.45" font-family="Helvetica,sans-Serif" font-size="9" font-weight="bold" text-anchor="middle">rule-set</text></g><g class="cluster"><path fill="#fff" stroke="#000" stroke-width="2" d="M718-130h47c6 0 12-6 12-12v-28c0-6-6-12-12-12h-47c-6 0-12 6-12 12v28c0 6 6 12 12 12"/><text x="741.5" y="-169.45" font-family="Helvetica,sans-Serif" font-size="9" font-weight="bold" text-anchor="middle">report</text></g><g class="cluster"><path fill="#fff" stroke="#000" stroke-width="2" d="M567-502h112.25c6 0 12-6 12-12v-58c0-6-6-12-12-12H567c-6 0-12 6-12 12v58c0 6 6 12 12 12"/><text x="623.12" y="-571.45" font-family="Helvetica,sans-Serif" font-size="9" font-weight="bold" text-anchor="middle">schema</text></g><g class="cluster"><path fill="#fff" stroke="#000" stroke-width="2" d="M711.25-16h60.5c6 0 12-6 12-12v-58c0-6-6-12-12-12h-60.5c-6 0-12 6-12 12v58c0 6 6 12 12 12"/><text x="741.5" y="-85.45" font-family="Helvetica,sans-Serif" font-size="9" font-weight="bold" text-anchor="middle">utl</text></g><g class="node"><a xlink:href="src/cache/cache.mjs" xlink:title="cache.mjs"><path fill="#d3d3d3" stroke="#000" d="M517.33-61.88h-45.41c-2.96 0-5.92 2.96-5.92 5.92v5.92c0 2.96 2.96 5.92 5.92 5.92h45.41c2.96 0 5.92-2.96 5.92-5.92v-5.92c0-2.96-2.96-5.92-5.92-5.92"/><text x="474" y="-49.33" fill="gray" font-family="Helvetica,sans-Serif" font-size="9">cache.mjs</text></a></g><g class="node"><a xlink:href="src/extract/transpile/meta.mjs" xlink:title="meta.mjs"><path fill="#d3d3d3" stroke="#000" d="M644.21-103.88h-42.17c-2.96 0-5.92 2.96-5.92 5.92v5.92c0 2.96 2.96 5.92 5.92 5.92h42.17c2.96 0 5.91-2.96 5.91-5.92v-5.92c0-2.96-2.95-5.92-5.91-5.92"/><text x="604.75" y="-91.33" fill="gray" font-family="Helvetica,sans-Serif" font-size="9">meta.mjs</text></a></g><g class="edge"><path fill="none" stroke="#000" stroke-opacity=".2" stroke-width="2" d="M523.58-58h100.04v-18.64"/><path fill-opacity=".2" stroke="#000" stroke-opacity=".2" stroke-width="2" d="m621.53-76.64 2.1-6 2.1 6z"/></g><g class="node"><a xlink:href="src/utl/bus.mjs" xlink:title="bus.mjs"><path fill="#d3d3d3" stroke="#000" d="M762.58-41.88h-42.16c-2.96 0-5.92 2.96-5.92 5.92v5.92c0 2.96 2.96 5.92 5.92 5.92h42.16c2.96 0 5.92-2.96 5.92-5.92v-5.92c0-2.96-2.96-5.92-5.92-5.92"/><text x="725.75" y="-29.32" fill="gray" font-family="Helvetica,sans-Serif" font-size="9">bus.mjs</text></a></g><g class="edge"><path fill="none" stroke="#000" stroke-opacity=".2" stroke-width="2" d="M523.44-49.12h218.18v.69"/><path fill-opacity=".2" stroke="#000" stroke-opacity=".2" stroke-width="2" d="m743.73-51.22-2.1 6-2.1-6z"/></g><g class="node"><a xlink:href="src/cli/format-meta-info.mjs" xlink:title="format-meta-info.mjs"><path fill="#d3d3d3" stroke="#000" d="M188.33-301.88h-87.41c-2.96 0-5.92 2.96-5.92 5.92v5.92c0 2.96 2.96 5.92 5.92 5.92h87.41c2.96 0 5.92-2.96 5.92-5.92v-5.92c0-2.96-2.96-5.92-5.92-5.92"/><text x="103" y="-289.32" fill="gray" font-family="Helvetica,sans-Serif" font-size="9">format-meta-info.mjs</text></a></g><g class="node"><a xlink:href="src/main/index.mjs" xlink:title="index.mjs"><path fill="#0f0" stroke="#000" d="M267.33-286.88h-43.16c-2.96 0-5.92 2.96-5.92 5.92v5.92c0 2.96 2.96 5.92 5.92 5.92h43.16c2.96 0 5.92-2.96 5.92-5.92v-5.92c0-2.96-2.96-5.92-5.92-5.92"/><text x="226.25" y="-274.32" font-family="Helvetica,sans-Serif" font-size="9">index.mjs</text></a></g><g class="edge"><path fill="none" stroke="#000" stroke-opacity=".2" stroke-width="2" d="M194.73-294.62h51.89v.75"/><path fill-opacity=".2" stroke="#000" stroke-opacity=".2" stroke-width="2" d="m248.73-296.12-2.1 6-2.1-6z"/></g><g class="edge"><path fill="none" stroke="#000" stroke-opacity=".2" stroke-width="2" d="M246.62-268.78v176.74h340.1"/><path fill-opacity=".2" stroke="#000" stroke-opacity=".2" stroke-width="2" d="m586.72-94.14 6 2.1-6 2.1z"/></g><g class="node"><a xlink:href="src/main/format.mjs" xlink:title="format.mjs"><path fill="#0f0" stroke="#000" d="M517.71-377.88h-46.17c-2.96 0-5.92 2.96-5.92 5.92v5.92c0 2.96 2.96 5.92 5.92 5.92h46.17c2.96 0 5.91-2.96 5.91-5.92v-5.92c0-2.96-2.95-5.92-5.91-5.92"/><text x="473.62" y="-365.32" font-family="Helvetica,sans-Serif" font-size="9">format.mjs</text></a></g><g class="edge"><path fill="none" stroke="#000" stroke-opacity=".2" stroke-width="2" d="M273.69-276.5h27.93v-89.54h154.67"/><path fill-opacity=".2" stroke="#000" stroke-opacity=".2" stroke-width="2" d="m456.29-368.14 6 2.1-6 2.1z"/></g><g class="node"><a xlink:href="src/main/cruise.mjs" xlink:title="cruise.mjs"><path fill="#0f0" stroke="#000" d="M380.46-327.88h-45.42c-2.96 0-5.92 2.96-5.92 5.92v5.92c0 2.96 2.96 5.92 5.92 5.92h45.42c2.96 0 5.92-2.96 5.92-5.92v-5.92c0-2.96-2.96-5.92-5.92-5.92"/><text x="337.12" y="-315.32" font-family="Helvetica,sans-Serif" font-size="9">cruise.mjs</text></a></g><g class="edge"><path fill="none" stroke="#000" stroke-opacity=".2" stroke-width="2" d="M273.32-280.19h64.3v-20.78"/><path fill-opacity=".2" stroke="#000" stroke-opacity=".2" stroke-width="2" d="m335.53-300.97 2.1-6 2.1 6z"/></g><g class="node"><a xlink:href="src/cli/format.mjs" xlink:title="format.mjs"><path fill="#d3d3d3" stroke="#000" d="M76.08-331.88H29.92c-2.96 0-5.92 2.96-5.92 5.92v5.92c0 2.96 2.96 5.92 5.92 5.92h46.16c2.96 0 5.92-2.96 5.92-5.92v-5.92c0-2.96-2.96-5.92-5.92-5.92"/><text x="32" y="-319.32" fill="gray" font-family="Helvetica,sans-Serif" font-size="9">format.mjs</text></a></g><g class="edge"><path fill="none" stroke="#000" stroke-opacity=".2" stroke-width="2" d="M53.62-331.98v-39.98h402.7"/><path fill-opacity=".2" stroke="#000" stroke-opacity=".2" stroke-width="2" d="m456.32-374.06 6 2.1-6 2.1z"/></g><g class="node"><a xlink:href="src/main/options/assert-validity.mjs" xlink:title="assert-validity.mjs"><path fill="#0f0" stroke="#000" d="M661.58-337.88h-76.91c-2.96 0-5.92 2.96-5.92 5.92v5.92c0 2.96 2.96 5.92 5.92 5.92h76.91c2.96 0 5.92-2.96 5.92-5.92v-5.92c0-2.96-2.96-5.92-5.92-5.92"/><text x="586.75" y="-325.32" font-family="Helvetica,sans-Serif" font-size="9">assert-validity.mjs</text></a></g><g class="edge"><path fill="none" stroke="#000" stroke-opacity=".2" stroke-width="2" d="M504.62-360.05v35.28h64.68"/><path fill-opacity=".2" stroke="#000" stroke-opacity=".2" stroke-width="2" d="m569.3-326.88 6 2.1-6 2.1z"/></g><g class="node"><a xlink:href="src/main/options/normalize.mjs" xlink:title="normalize.mjs"><path fill="#0f0" stroke="#000" d="M653.71-307.88h-61.17c-2.96 0-5.92 2.96-5.92 5.92v5.92c0 2.96 2.96 5.92 5.92 5.92h61.17c2.96 0 5.91-2.96 5.91-5.92v-5.92c0-2.96-2.95-5.92-5.91-5.92"/><text x="594.62" y="-295.32" font-family="Helvetica,sans-Serif" font-size="9">normalize.mjs</text></a></g><g class="edge"><path fill="none" stroke="#000" stroke-opacity=".2" stroke-width="2" d="M485.62-359.82v54.86h91.63"/><path fill-opacity=".2" stroke="#000" stroke-opacity=".2" stroke-width="2" d="m577.25-307.06 6 2.1-6 2.1z"/></g><g class="node"><a xlink:href="src/main/report-wrap.mjs" xlink:title="report-wrap.mjs"><path fill="#0f0" stroke="#000" d="M657.08-389.88h-67.91c-2.96 0-5.92 2.96-5.92 5.92v5.92c0 2.96 2.96 5.92 5.92 5.92h67.91c2.96 0 5.92-2.96 5.92-5.92v-5.92c0-2.96-2.96-5.92-5.92-5.92"/><text x="591.25" y="-377.32" font-family="Helvetica,sans-Serif" font-size="9">report-wrap.mjs</text></a></g><g class="edge"><path fill="none" stroke="#000" stroke-opacity=".2" stroke-width="2" d="M504.62-378.12v-2.76h69.36"/><path fill-opacity=".2" stroke="#000" stroke-opacity=".2" stroke-width="2" d="m573.98-382.98 6 2.1-6 2.1z"/></g><g class="node"><a xlink:href="src/schema/cruise-result.schema.mjs" xlink:title="cruise-result.schema.mjs"><path fill="#d3d3d3" stroke="#000" d="M675.83-527.88H570.42c-2.96 0-5.92 2.96-5.92 5.92v5.92c0 2.96 2.96 5.92 5.92 5.92h105.41c2.96 0 5.92-2.96 5.92-5.92v-5.92c0-2.96-2.96-5.92-5.92-5.92"/><text x="572.5" y="-515.33" fill="gray" font-family="Helvetica,sans-Serif" font-size="9">cruise-result.schema.mjs</text></a></g><g class="edge"><path fill="none" stroke="#000" stroke-opacity=".2" stroke-width="2" d="M485.62-378.36v-8.52h86v-114.01"/><path fill-opacity=".2" stroke="#000" stroke-opacity=".2" stroke-width="2" d="m569.53-500.89 2.1-6 2.1 6z"/></g><g class="node"><a xlink:href="src/cli/index.mjs" xlink:title="index.mjs"><path fill="#d3d3d3" stroke="#000" d="M74.58-301.88H31.42c-2.96 0-5.92 2.96-5.92 5.92v5.92c0 2.96 2.96 5.92 5.92 5.92h43.16c2.96 0 5.92-2.96 5.92-5.92v-5.92c0-2.96-2.96-5.92-5.92-5.92"/><text x="33.5" y="-289.32" fill="gray" font-family="Helvetica,sans-Serif" font-size="9">index.mjs</text></a></g><g class="edge"><path fill="none" stroke="#000" stroke-opacity=".2" stroke-width="2" d="M53.62-283.9v255.34h651.46"/><path fill-opacity=".2" stroke="#000" stroke-opacity=".2" stroke-width="2" d="m705.08-30.66 6 2.1-6 2.1z"/></g><g class="edge"><path fill="none" stroke="#000" stroke-dasharray="5,2" stroke-opacity=".2" stroke-width="2" d="M80.99-290.04h4.82"/><path fill-opacity=".2" stroke="#000" stroke-opacity=".2" stroke-width="2" d="m85.81-292.14 6 2.1-6 2.1z"/></g><g class="edge"><path fill="none" stroke="#000" stroke-opacity=".2" stroke-width="2" d="M80.72-295.96h7.9v-26.42h231.05"/><path fill-opacity=".2" stroke="#000" stroke-opacity=".2" stroke-width="2" d="m319.67-324.48 6 2.1-6 2.1z"/></g><g class="edge"><path fill="none" stroke="#000" stroke-dasharray="5,2" stroke-opacity=".2" stroke-width="2" d="M354.62-309.84V-53h101.97"/><path fill-opacity=".2" stroke="#000" stroke-opacity=".2" stroke-width="2" d="m456.59-55.1 6 2.1-6 2.1z"/></g><g class="edge"><path fill="none" stroke="#000" stroke-opacity=".2" stroke-width="2" d="M345.62-309.81V-33h359.64"/><path fill-opacity=".2" stroke="#000" stroke-opacity=".2" stroke-width="2" d="m705.26-35.1 6 2.1-6 2.1z"/></g><g class="node"><a xlink:href="src/main/resolve-options/normalize.mjs" xlink:title="normalize.mjs"><path fill="#0f0" stroke="#000" d="M525.21-283.88h-61.17c-2.96 0-5.92 2.96-5.92 5.92v5.92c0 2.96 2.96 5.92 5.92 5.92h61.17c2.96 0 5.91-2.96 5.91-5.92v-5.92c0-2.96-2.95-5.92-5.91-5.92"/><text x="466.12" y="-271.32" font-family="Helvetica,sans-Serif" font-size="9">normalize.mjs</text></a></g><g class="edge"><path fill="none" stroke="#000" stroke-dasharray="5,2" stroke-opacity=".2" stroke-width="2" d="M386.69-315.12h75.93v21.79"/><path fill-opacity=".2" stroke="#000" stroke-opacity=".2" stroke-width="2" d="m464.73-293.33-2.1 6-2.1-6z"/></g><g class="node"><a xlink:href="src/enrich/index.mjs" xlink:title="index.mjs"><path fill="#d3d3d3" stroke="#000" d="M644.71-621.88h-43.17c-2.96 0-5.92 2.96-5.92 5.92v5.92c0 2.96 2.96 5.92 5.92 5.92h43.17c2.96 0 5.91-2.96 5.91-5.92v-5.92c0-2.96-2.95-5.92-5.91-5.92"/><text x="603.62" y="-609.33" fill="gray" font-family="Helvetica,sans-Serif" font-size="9">index.mjs</text></a></g><g class="edge"><path fill="none" stroke="#000" stroke-dasharray="5,2" stroke-opacity=".2" stroke-width="2" d="M386.78-317.62h164.84V-613h34.63"/><path fill-opacity=".2" stroke="#000" stroke-opacity=".2" stroke-width="2" d="m586.25-615.1 6 2.1-6 2.1z"/></g><g class="node"><a xlink:href="src/extract/index.mjs" xlink:title="index.mjs"><path fill="#d3d3d3" stroke="#000" d="M644.71-155.88h-43.17c-2.96 0-5.92 2.96-5.92 5.92v5.92c0 2.96 2.96 5.92 5.92 5.92h43.17c2.96 0 5.91-2.96 5.91-5.92v-5.92c0-2.96-2.95-5.92-5.91-5.92"/><text x="603.62" y="-143.32" fill="gray" font-family="Helvetica,sans-Serif" font-size="9">index.mjs</text></a></g><g class="edge"><path fill="none" stroke="#000" stroke-dasharray="5,2" stroke-opacity=".2" stroke-width="2" d="M362.62-309.75V-147h223.6"/><path fill-opacity=".2" stroke="#000" stroke-opacity=".2" stroke-width="2" d="m586.22-149.1 6 2.1-6 2.1z"/></g><g class="node"><a xlink:href="src/main/files-and-dirs/normalize.mjs" xlink:title="normalize.mjs"><path fill="#0f0" stroke="#000" d="M525.21-223.88h-61.17c-2.96 0-5.92 2.96-5.92 5.92v5.92c0 2.96 2.96 5.92 5.92 5.92h61.17c2.96 0 5.91-2.96 5.91-5.92v-5.92c0-2.96-2.95-5.92-5.91-5.92"/><text x="466.12" y="-211.32" font-family="Helvetica,sans-Serif" font-size="9">normalize.mjs</text></a></g><g class="edge"><path fill="none" stroke="#000" stroke-dasharray="5,2" stroke-opacity=".2" stroke-width="2" d="M370.62-309.77V-215h78.11"/><path fill-opacity=".2" stroke="#000" stroke-opacity=".2" stroke-width="2" d="m448.73-217.1 6 2.1-6 2.1z"/></g><g class="edge"><path fill="none" stroke="#000" stroke-opacity=".2" stroke-width="2" d="M386.65-321.68h182.7"/><path fill-opacity=".2" stroke="#000" stroke-opacity=".2" stroke-width="2" d="m569.35-323.78 6 2.1-6 2.1z"/></g><g class="edge"><path fill="none" stroke="#000" stroke-opacity=".2" stroke-width="2" d="M378.62-309.73v7.69h198.61"/><path fill-opacity=".2" stroke="#000" stroke-opacity=".2" stroke-width="2" d="m577.23-304.14 6 2.1-6 2.1z"/></g><g class="edge"><path fill="none" stroke="#000" stroke-opacity=".2" stroke-width="2" d="M367.62-328.3v-55.58h206.27"/><path fill-opacity=".2" stroke="#000" stroke-opacity=".2" stroke-width="2" d="m573.89-385.98 6 2.1-6 2.1z"/></g><g class="node"><a xlink:href="src/main/rule-set/assert-validity.mjs" xlink:title="assert-validity.mjs"><path fill="#0f0" stroke="#000" d="M533.08-411.88h-76.91c-2.96 0-5.92 2.96-5.92 5.92v5.92c0 2.96 2.96 5.92 5.92 5.92h76.91c2.96 0 5.92-2.96 5.92-5.92v-5.92c0-2.96-2.96-5.92-5.92-5.92"/><text x="458.25" y="-399.32" font-family="Helvetica,sans-Serif" font-size="9">assert-validity.mjs</text></a></g><g class="edge"><path fill="none" stroke="#000" stroke-dasharray="5,2" stroke-opacity=".2" stroke-width="2" d="M386.82-323.23h67.8v-61.59"/><path fill-opacity=".2" stroke="#000" stroke-opacity=".2" stroke-width="2" d="m452.53-384.82 2.1-6 2.1 6z"/></g><g class="node"><a xlink:href="src/main/rule-set/normalize.mjs" xlink:title="normalize.mjs"><path fill="#0f0" stroke="#000" d="M525.21-441.88h-61.17c-2.96 0-5.92 2.96-5.92 5.92v5.92c0 2.96 2.96 5.92 5.92 5.92h61.17c2.96 0 5.91-2.96 5.91-5.92v-5.92c0-2.96-2.95-5.92-5.91-5.92"/><text x="466.12" y="-429.32" font-family="Helvetica,sans-Serif" font-size="9">normalize.mjs</text></a></g><g class="edge"><path fill="none" stroke="#000" stroke-dasharray="5,2" stroke-opacity=".2" stroke-width="2" d="M348.62-328.33V-433h100.14"/><path fill-opacity=".2" stroke="#000" stroke-opacity=".2" stroke-width="2" d="m448.76-435.1 6 2.1-6 2.1z"/></g><g class="node"><a xlink:href="src/config-utl/extract-depcruise-config/index.mjs" xlink:title="index.mjs"><path fill="#d3d3d3" stroke="#000" d="M379.33-535.88h-43.16c-2.96 0-5.92 2.96-5.92 5.92v5.92c0 2.96 2.96 5.92 5.92 5.92h43.16c2.96 0 5.92-2.96 5.92-5.92v-5.92c0-2.96-2.96-5.92-5.92-5.92"/><text x="338.25" y="-523.33" fill="gray" font-family="Helvetica,sans-Serif" font-size="9">index.mjs</text></a></g><g class="edge"><path fill="none" stroke="#000" stroke-opacity=".2" stroke-width="2" d="M385.69-523h32.93v250.19h30.31"/><path fill-opacity=".2" stroke="#000" stroke-opacity=".2" stroke-width="2" d="m448.93-274.91 6 2.1-6 2.1z"/></g><g class="edge"><path fill="none" stroke="#000" stroke-opacity=".2" stroke-width="2" d="M531.49-269.46h3.13v171.5h52.44"/><path fill-opacity=".2" stroke="#000" stroke-opacity=".2" stroke-width="2" d="m587.06-100.06 6 2.1-6 2.1z"/></g><g class="node"><a xlink:href="src/graph-utl/rule-set.mjs" xlink:title="rule-set.mjs"><path fill="#d3d3d3" stroke="#000" d="M892.46-263.88h-51.42c-2.96 0-5.92 2.96-5.92 5.92v5.92c0 2.96 2.96 5.92 5.92 5.92h51.42c2.96 0 5.92-2.96 5.92-5.92v-5.92c0-2.96-2.96-5.92-5.92-5.92"/><text x="843.12" y="-251.32" fill="gray" font-family="Helvetica,sans-Serif" font-size="9">rule-set.mjs</text></a></g><g class="edge"><path fill="none" stroke="#000" stroke-opacity=".2" stroke-width="2" d="M531.41-272.79h336.21v.85"/><path fill-opacity=".2" stroke="#000" stroke-opacity=".2" stroke-width="2" d="m869.73-273.34-2.1 6-2.1-6z"/></g><g class="node"><a xlink:href="src/enrich/summarize/index.mjs" xlink:title="index.mjs"><path fill="#d3d3d3" stroke="#000" d="M763.08-625.88h-43.16c-2.96 0-5.92 2.96-5.92 5.92v5.92c0 2.96 2.96 5.92 5.92 5.92h43.16c2.96 0 5.92-2.96 5.92-5.92v-5.92c0-2.96-2.96-5.92-5.92-5.92"/><text x="722" y="-613.33" fill="gray" font-family="Helvetica,sans-Serif" font-size="9">index.mjs</text></a></g><g class="edge"><path fill="none" stroke="#000" stroke-opacity=".2" stroke-width="2" d="M650.88-617.29h53.6"/><path fill-opacity=".2" stroke="#000" stroke-opacity=".2" stroke-width="2" d="m704.48-619.39 6 2.1-6 2.1z"/></g><g class="node"><a xlink:href="src/graph-utl/compare.mjs" xlink:title="compare.mjs"><path fill="#d3d3d3" stroke="#000" d="M895.08-293.88h-56.66c-2.96 0-5.92 2.96-5.92 5.92v5.92c0 2.96 2.96 5.92 5.92 5.92h56.66c2.96 0 5.92-2.96 5.92-5.92v-5.92c0-2.96-2.96-5.92-5.92-5.92"/><text x="840.5" y="-281.32" fill="gray" font-family="Helvetica,sans-Serif" font-size="9">compare.mjs</text></a></g><g class="edge"><path fill="none" stroke="#000" stroke-opacity=".2" stroke-width="2" d="M769.49-617h22.13v335.71h31.62"/><path fill-opacity=".2" stroke="#000" stroke-opacity=".2" stroke-width="2" d="m823.24-283.39 6 2.1-6 2.1z"/></g><g class="edge"><path fill="none" stroke="#000" stroke-opacity=".2" stroke-width="2" d="M650.97-142.56h39.65v105.12h14.63"/><path fill-opacity=".2" stroke="#000" stroke-opacity=".2" stroke-width="2" d="m705.25-39.54 6 2.1-6 2.1z"/></g><g class="node"><a xlink:href="src/graph-utl/consolidate-to-pattern.mjs" xlink:title="consolidate-to-pattern.mjs"><path fill="#d3d3d3" stroke="#000" d="M921.71-323.88H811.79c-2.96 0-5.91 2.96-5.91 5.92v5.92c0 2.96 2.95 5.92 5.91 5.92h109.92c2.96 0 5.91-2.96 5.91-5.92v-5.92c0-2.96-2.95-5.92-5.91-5.92"/><text x="813.88" y="-311.32" fill="gray" font-family="Helvetica,sans-Serif" font-size="9">consolidate-to-pattern.mjs</text></a></g><g class="node"><a xlink:href="src/graph-utl/filter-bank.mjs" xlink:title="filter-bank.mjs"><path fill="#d3d3d3" stroke="#000" d="M897.33-353.88h-61.16c-2.96 0-5.92 2.96-5.92 5.92v5.92c0 2.96 2.96 5.92 5.92 5.92h61.16c2.96 0 5.92-2.96 5.92-5.92v-5.92c0-2.96-2.96-5.92-5.92-5.92"/><text x="838.25" y="-341.32" fill="gray" font-family="Helvetica,sans-Serif" font-size="9">filter-bank.mjs</text></a></g><g class="node"><a xlink:href="src/graph-utl/strip-self-transitions.mjs" xlink:title="strip-self-transitions.mjs"><path fill="#d3d3d3" stroke="#000" d="M916.83-383.88H816.67c-2.96 0-5.92 2.96-5.92 5.92v5.92c0 2.96 2.96 5.92 5.92 5.92h100.16c2.96 0 5.92-2.96 5.92-5.92v-5.92c0-2.96-2.96-5.92-5.92-5.92"/><text x="818.75" y="-371.32" fill="gray" font-family="Helvetica,sans-Serif" font-size="9">strip-self-transitions.mjs</text></a></g><g class="node"><a xlink:href="src/report/index.mjs" xlink:title="index.mjs"><path fill="#d3d3d3" stroke="#000" d="M763.08-155.88h-43.16c-2.96 0-5.92 2.96-5.92 5.92v5.92c0 2.96 2.96 5.92 5.92 5.92h43.16c2.96 0 5.92-2.96 5.92-5.92v-5.92c0-2.96-2.96-5.92-5.92-5.92"/><text x="722" y="-143.32" fill="gray" font-family="Helvetica,sans-Serif" font-size="9">index.mjs</text></a></g><g class="edge"><path fill="none" stroke="#000" stroke-opacity=".2" stroke-width="2" d="M663.62-319.72V-147h41.18"/><path fill-opacity=".2" stroke="#000" stroke-opacity=".2" stroke-width="2" d="m704.8-149.1 6 2.1-6 2.1z"/></g><g class="node"><a xlink:href="src/main/helpers.mjs" xlink:title="helpers.mjs"><path fill="#0f0" stroke="#000" d="M767.21-389.88h-51.42c-2.96 0-5.91 2.96-5.91 5.92v5.92c0 2.96 2.95 5.92 5.91 5.92h51.42c2.96 0 5.91-2.96 5.91-5.92v-5.92c0-2.96-2.95-5.92-5.91-5.92"/><text x="717.88" y="-377.32" font-family="Helvetica,sans-Serif" font-size="9">helpers.mjs</text></a></g><g class="edge"><path fill="none" stroke="#000" stroke-opacity=".2" stroke-width="2" d="M660.06-301.96h44.56v-82h.49"/><path fill-opacity=".2" stroke="#000" stroke-opacity=".2" stroke-width="2" d="m700.42-386.06 6 2.1-6 2.1z"/></g><g class="node"><a xlink:href="src/main/options/defaults.mjs" xlink:title="defaults.mjs"><path fill="#0f0" stroke="#000" d="M767.96-307.88h-52.92c-2.96 0-5.92 2.96-5.92 5.92v5.92c0 2.96 2.96 5.92 5.92 5.92h52.92c2.96 0 5.92-2.96 5.92-5.92v-5.92c0-2.96-2.96-5.92-5.92-5.92"/><text x="717.12" y="-295.32" font-family="Helvetica,sans-Serif" font-size="9">defaults.mjs</text></a></g><g class="edge"><path fill="none" stroke="#000" stroke-opacity=".2" stroke-width="2" d="M659.93-296.04h39.77"/><path fill-opacity=".2" stroke="#000" stroke-opacity=".2" stroke-width="2" d="m699.7-298.14 6 2.1-6 2.1z"/></g><g class="node"><a xlink:href="src/utl/array-util.mjs" xlink:title="array-util.mjs"><path fill="#d3d3d3" stroke="#000" d="M769.83-71.88h-56.66c-2.96 0-5.92 2.96-5.92 5.92v5.92c0 2.96 2.96 5.92 5.92 5.92h56.66c2.96 0 5.92-2.96 5.92-5.92v-5.92c0-2.96-2.96-5.92-5.92-5.92"/><text x="715.25" y="-59.33" fill="gray" font-family="Helvetica,sans-Serif" font-size="9">array-util.mjs</text></a></g><g class="edge"><path fill="none" stroke="#000" stroke-opacity=".2" stroke-width="2" d="M655.62-289.9v223.02h42.42"/><path fill-opacity=".2" stroke="#000" stroke-opacity=".2" stroke-width="2" d="m698.04-68.98 6 2.1-6 2.1z"/></g><g class="edge"><path fill="none" stroke="#000" stroke-opacity=".2" stroke-width="2" d="M663.24-386.92h24.38v-225.79h16.97"/><path fill-opacity=".2" stroke="#000" stroke-opacity=".2" stroke-width="2" d="m704.59-614.81 6 2.1-6 2.1z"/></g><g class="edge"><path fill="none" stroke="#000" stroke-opacity=".2" stroke-width="2" d="M663.43-378.04h34.19v99.33h125.47"/><path fill-opacity=".2" stroke="#000" stroke-opacity=".2" stroke-width="2" d="m823.09-280.81 6 2.1-6 2.1z"/></g><g class="edge"><path fill="none" stroke="#000" stroke-opacity=".2" stroke-width="2" d="M663.24-381h37.38v68.38h96.19"/><path fill-opacity=".2" stroke="#000" stroke-opacity=".2" stroke-width="2" d="m796.81-314.73 6 2.1-6 2.1z"/></g><g class="edge"><path fill="none" stroke="#000" stroke-opacity=".2" stroke-width="2" d="M610.62-371.85v28.64h210.13"/><path fill-opacity=".2" stroke="#000" stroke-opacity=".2" stroke-width="2" d="m820.75-345.31 6 2.1-6 2.1z"/></g><g class="edge"><path fill="none" stroke="#000" stroke-opacity=".2" stroke-width="2" d="M636.62-371.79v23.25h184v-8.18"/><path fill-opacity=".2" stroke="#000" stroke-opacity=".2" stroke-width="2" d="m818.53-356.72 2.1-6 2.1 6z"/></g><g class="edge"><path fill="none" stroke="#000" stroke-opacity=".2" stroke-width="2" d="M663.32-375.08h30.3v223.64h11"/><path fill-opacity=".2" stroke="#000" stroke-opacity=".2" stroke-width="2" d="m704.62-153.54 6 2.1-6 2.1z"/></g><g class="edge"><path fill="none" stroke="#000" stroke-opacity=".2" stroke-width="2" d="M536.62-393.9v67.58h32.71"/><path fill-opacity=".2" stroke="#000" stroke-opacity=".2" stroke-width="2" d="m569.33-328.43 6 2.1-6 2.1z"/></g><g class="edge"><path fill="none" stroke="#000" stroke-opacity=".2" stroke-width="2" d="M539.39-403h193.23v3.77"/><path fill-opacity=".2" stroke="#000" stroke-opacity=".2" stroke-width="2" d="m734.73-399.23-2.1 6-2.1-6z"/></g><g class="node"><a xlink:href="src/schema/configuration.schema.mjs" xlink:title="configuration.schema.mjs"><path fill="#d3d3d3" stroke="#000" d="M677.33-557.88H568.92c-2.96 0-5.92 2.96-5.92 5.92v5.92c0 2.96 2.96 5.92 5.92 5.92h108.41c2.96 0 5.92-2.96 5.92-5.92v-5.92c0-2.96-2.96-5.92-5.92-5.92"/><text x="571" y="-545.33" fill="gray" font-family="Helvetica,sans-Serif" font-size="9">configuration.schema.mjs</text></a></g><g class="edge"><path fill="none" stroke="#000" stroke-opacity=".2" stroke-width="2" d="M535.62-412.13V-549h18.18"/><path fill-opacity=".2" stroke="#000" stroke-opacity=".2" stroke-width="2" d="m553.8-551.1 6 2.1-6 2.1z"/></g><g class="edge"><path fill="none" stroke="#000" stroke-opacity=".2" stroke-width="2" d="M531.45-433h220.17v33.92"/><path fill-opacity=".2" stroke="#000" stroke-opacity=".2" stroke-width="2" d="m753.73-399.08-2.1 6-2.1-6z"/></g><g class="node"><a xlink:href="src/main/index.d.ts" xlink:title="index.d.ts"><path fill="#0f0" stroke="#000" d="M267.33-316.88h-43.16c-2.96 0-5.92 2.96-5.92 5.92v5.92c0 2.96 2.96 5.92 5.92 5.92h43.16c2.96 0 5.92-2.96 5.92-5.92v-5.92c0-2.96-2.96-5.92-5.92-5.92"/><text x="226.25" y="-304.32" font-family="Helvetica,sans-Serif" font-size="9">index.d.ts</text></a></g></g></svg>