<svg xmlns="http://www.w3.org/2000/svg" xmlns:xlink="http://www.w3.org/1999/xlink" width="958pt" height="976pt" viewBox="0 0 958 976"><g class="graph" transform="translate(4 972)"><title>dependency-cruiser output</title><path fill="#fff" d="M-4 4v-976h958V4z"/><g class="cluster"><title>cluster_src</title><path fill="#fff" stroke="#000" stroke-width="2" d="M20-8h910c6 0 12-6 12-12v-928c0-6-6-12-12-12H20c-6 0-12 6-12 12v928c0 6 6 12 12 12"/><text xml:space="preserve" x="475" y="-947.45" font-family="Helvetica,sans-Serif" font-size="9" font-weight="bold" text-anchor="middle">src</text></g><g class="cluster"><title>cluster_src/analyze</title><path fill="#fff" stroke="#000" stroke-width="2" d="M600.38-680h200c6 0 12-6 12-12v-62c0-6-6-12-12-12h-200c-6 0-12 6-12 12v62c0 6 6 12 12 12"/><text xml:space="preserve" x="700.38" y="-753.45" font-family="Helvetica,sans-Serif" font-size="9" font-weight="bold" text-anchor="middle">analyze</text></g><g class="cluster"><title>cluster_src/analyze/summarize</title><path fill="#fff" stroke="#000" stroke-width="2" d="M745.38-688h47c6 0 12-6 12-12v-28c0-6-6-12-12-12h-47c-6 0-12 6-12 12v28c0 6 6 12 12 12"/><text xml:space="preserve" x="768.88" y="-727.45" font-family="Helvetica,sans-Serif" font-size="9" font-weight="bold" text-anchor="middle">summarize</text></g><g class="cluster"><title>cluster_src/cache</title><path fill="#fff" stroke="#000" stroke-width="2" d="M470.75-778H520c6 0 12-6 12-12v-28c0-6-6-12-12-12h-49.25c-6 0-12 6-12 12v28c0 6 6 12 12 12"/><text xml:space="preserve" x="495.38" y="-817.45" font-family="Helvetica,sans-Serif" font-size="9" font-weight="bold" text-anchor="middle">cache</text></g><g class="cluster"><title>cluster_src/cli</title><path fill="#fff" stroke="#000" stroke-width="2" d="M28-324h162.25c6 0 12-6 12-12v-58c0-6-6-12-12-12H28c-6 0-12 6-12 12v58c0 6 6 12 12 12"/><text xml:space="preserve" x="109.12" y="-393.45" font-family="Helvetica,sans-Serif" font-size="9" font-weight="bold" text-anchor="middle">cli</text></g><g class="cluster"><title>cluster_src/config-utl</title><path fill="#fff" stroke="#000" stroke-width="2" d="M301.25-94H415c6 0 12-6 12-12v-62c0-6-6-12-12-12H301.25c-6 0-12 6-12 12v62c0 6 6 12 12 12"/><text xml:space="preserve" x="358.12" y="-167.45" font-family="Helvetica,sans-Serif" font-size="9" font-weight="bold" text-anchor="middle">config-utl</text></g><g class="cluster"><title>cluster_src/config-utl/extract-depcruise-config</title><path fill="#fff" stroke="#000" stroke-width="2" d="M309.25-102H407c6 0 12-6 12-12v-28c0-6-6-12-12-12h-97.75c-6 0-12 6-12 12v28c0 6 6 12 12 12"/><text xml:space="preserve" x="358.12" y="-141.45" font-family="Helvetica,sans-Serif" font-size="9" font-weight="bold" text-anchor="middle">extract-depcruise-config</text></g><g class="cluster"><title>cluster_src/extract</title><path fill="#fff" stroke="#000" stroke-width="2" d="M592.88-798h62c6 0 12-6 12-12v-88c0-6-6-12-12-12h-62c-6 0-12 6-12 12v88c0 6 6 12 12 12"/><text xml:space="preserve" x="623.88" y="-897.45" font-family="Helvetica,sans-Serif" font-size="9" font-weight="bold" text-anchor="middle">extract</text></g><g class="cluster"><title>cluster_src/extract/transpile</title><path fill="#fff" stroke="#000" stroke-width="2" d="M600.88-806h46c6 0 12-6 12-12v-28c0-6-6-12-12-12h-46c-6 0-12 6-12 12v28c0 6 6 12 12 12"/><text xml:space="preserve" x="623.88" y="-845.45" font-family="Helvetica,sans-Serif" font-size="9" font-weight="bold" text-anchor="middle">transpile</text></g><g class="cluster"><title>cluster_src/graph-utl</title><path fill="#fff" stroke="#000" stroke-width="2" d="M712-500h113.75c6 0 12-6 12-12v-148c0-6-6-12-12-12H712c-6 0-12 6-12 12v148c0 6 6 12 12 12"/><text xml:space="preserve" x="768.88" y="-659.45" font-family="Helvetica,sans-Serif" font-size="9" font-weight="bold" text-anchor="middle">graph-utl</text></g><g class="cluster"><title>cluster_src/main</title><path fill="#fff" stroke="#000" stroke-width="2" d="M222.25-188h583c6 0 12-6 12-12v-280c0-6-6-12-12-12h-583c-6 0-12 6-12 12v280c0 6 6 12 12 12"/><text xml:space="preserve" x="513.75" y="-479.45" font-family="Helvetica,sans-Serif" font-size="9" font-weight="bold" text-anchor="middle">main</text></g><g class="cluster"><title>cluster_src/main/files-and-dirs</title><path fill="#fff" stroke="#000" stroke-width="2" d="M462.88-414h65c6 0 12-6 12-12v-28c0-6-6-12-12-12h-65c-6 0-12 6-12 12v28c0 6 6 12 12 12"/><text xml:space="preserve" x="495.38" y="-453.45" font-family="Helvetica,sans-Serif" font-size="9" font-weight="bold" text-anchor="middle">files-and-dirs</text></g><g class="cluster"><title>cluster_src/main/options</title><path fill="#fff" stroke="#000" stroke-width="2" d="M583.5-252h213.75c6 0 12-6 12-12v-58c0-6-6-12-12-12H583.5c-6 0-12 6-12 12v58c0 6 6 12 12 12"/><text xml:space="preserve" x="690.38" y="-321.45" font-family="Helvetica,sans-Serif" font-size="9" font-weight="bold" text-anchor="middle">options</text></g><g class="cluster"><title>cluster_src/main/resolve-options</title><path fill="#fff" stroke="#000" stroke-width="2" d="M462.88-354h65c6 0 12-6 12-12v-28c0-6-6-12-12-12h-65c-6 0-12 6-12 12v28c0 6 6 12 12 12"/><text xml:space="preserve" x="495.38" y="-393.45" font-family="Helvetica,sans-Serif" font-size="9" font-weight="bold" text-anchor="middle">resolve-options</text></g><g class="cluster"><title>cluster_src/main/rule-set</title><path fill="#fff" stroke="#000" stroke-width="2" d="M455-196h80.75c6 0 12-6 12-12v-58c0-6-6-12-12-12H455c-6 0-12 6-12 12v58c0 6 6 12 12 12"/><text xml:space="preserve" x="495.38" y="-265.45" font-family="Helvetica,sans-Serif" font-size="9" font-weight="bold" text-anchor="middle">rule-set</text></g><g class="cluster"><title>cluster_src/report</title><path fill="#fff" stroke="#000" stroke-width="2" d="M745.38-128h47c6 0 12-6 12-12v-28c0-6-6-12-12-12h-47c-6 0-12 6-12 12v28c0 6 6 12 12 12"/><text xml:space="preserve" x="768.88" y="-167.45" font-family="Helvetica,sans-Serif" font-size="9" font-weight="bold" text-anchor="middle">report</text></g><g class="cluster"><title>cluster_src/schema</title><path fill="#fff" stroke="#000" stroke-width="2" d="M567.75-68H680c6 0 12-6 12-12v-88c0-6-6-12-12-12H567.75c-6 0-12 6-12 12v88c0 6 6 12 12 12"/><text xml:space="preserve" x="623.88" y="-167.45" font-family="Helvetica,sans-Serif" font-size="9" font-weight="bold" text-anchor="middle">schema</text></g><g class="cluster"><title>cluster_src/utl</title><path fill="#fff" stroke="#000" stroke-width="2" d="M857.75-331H922c6 0 12-6 12-12v-118c0-6-6-12-12-12h-64.25c-6 0-12 6-12 12v118c0 6 6 12 12 12"/><text xml:space="preserve" x="889.88" y="-460.45" font-family="Helvetica,sans-Serif" font-size="9" font-weight="bold" text-anchor="middle">utl</text></g><g class="node"><title>src/analyze/index.mjs</title><a xlink:href="src/analyze/index.mjs" xlink:title="index.mjs">
<path fill="#ffc" stroke="#000" d="M645.46-713.88h-43.17c-2.96 0-5.91 2.96-5.91 5.92v5.92c0 2.96 2.95 5.92 5.91 5.92h43.17c2.96 0 5.92-2.96 5.92-5.92v-5.92c0-2.96-2.96-5.92-5.92-5.92"/>
<text xml:space="preserve" x="604.38" y="-701.33" font-family="Helvetica,sans-Serif" font-size="9">index.mjs</text>
</a></g><g class="node"><title>src/analyze/summarize/index.mjs</title><a xlink:href="src/analyze/summarize/index.mjs" xlink:title="index.mjs">
<path fill="#ffc" stroke="#000" d="M790.46-713.88h-43.17c-2.96 0-5.91 2.96-5.91 5.92v5.92c0 2.96 2.95 5.92 5.91 5.92h43.17c2.96 0 5.92-2.96 5.92-5.92v-5.92c0-2.96-2.96-5.92-5.92-5.92"/>
<text xml:space="preserve" x="749.38" y="-701.33" font-family="Helvetica,sans-Serif" font-size="9">index.mjs</text>
</a></g><g class="edge"><title>src/analyze/index.mjs-&gt;src/analyze/summarize/index.mjs</title><path fill="none" stroke="#000" stroke-opacity=".2" stroke-width="2" d="M651.83-709.44h80.15"/><path fill-opacity=".2" stroke="#000" stroke-opacity=".2" stroke-width="2" d="m731.98-711.54 6 2.1-6 2.1z"/></g><g class="node"><title>src/utl/bus.mjs</title><a xlink:href="src/utl/bus.mjs" xlink:title="bus.mjs">
<path fill="#ffc" stroke="#000" d="M910.96-386.88h-42.17c-2.96 0-5.91 2.96-5.91 5.92v5.92c0 2.96 2.95 5.92 5.91 5.92h42.17c2.96 0 5.92-2.96 5.92-5.92v-5.92c0-2.96-2.96-5.92-5.92-5.92"/>
<text xml:space="preserve" x="874.12" y="-374.32" font-family="Helvetica,sans-Serif" font-size="9">bus.mjs</text>
</a></g><g class="edge"><title>src/analyze/index.mjs-&gt;src/utl/bus.mjs</title><path fill="none" stroke="#000" stroke-opacity=".2" stroke-width="2" d="M651.48-700.56H698V-386h155.36"/><path fill-opacity=".2" stroke="#000" stroke-opacity=".2" stroke-width="2" d="m853.36-388.1 6 2.1-6 2.1z"/></g><g class="node"><title>src/graph-utl/compare.mjs</title><a xlink:href="src/graph-utl/compare.mjs" xlink:title="compare.mjs">
<path fill="#ffc" stroke="#000" d="M797.21-555.88h-56.67c-2.96 0-5.92 2.96-5.92 5.92v5.92c0 2.96 2.96 5.92 5.92 5.92h56.67c2.96 0 5.91-2.96 5.91-5.92v-5.92c0-2.96-2.95-5.92-5.91-5.92"/>
<text xml:space="preserve" x="742.62" y="-543.33" font-family="Helvetica,sans-Serif" font-size="9">compare.mjs</text>
</a></g><g class="edge"><title>src/analyze/summarize/index.mjs-&gt;src/graph-utl/compare.mjs</title><path fill="none" stroke="#000" stroke-opacity=".2" stroke-width="2" d="M796.72-705H846v158h-33.6"/><path fill-opacity=".2" stroke="#000" stroke-opacity=".2" stroke-width="2" d="m812.4-544.9-6-2.1 6-2.1z"/></g><g class="node"><title>src/cache/cache.mjs</title><a xlink:href="src/cache/cache.mjs" xlink:title="cache.mjs">
<path fill="#ffc" stroke="#000" d="M518.08-803.88h-45.41c-2.96 0-5.92 2.96-5.92 5.92v5.92c0 2.96 2.96 5.92 5.92 5.92h45.41c2.96 0 5.92-2.96 5.92-5.92v-5.92c0-2.96-2.96-5.92-5.92-5.92"/>
<text xml:space="preserve" x="474.75" y="-791.33" font-family="Helvetica,sans-Serif" font-size="9">cache.mjs</text>
</a></g><g class="edge"><title>src/cache/cache.mjs-&gt;src/utl/bus.mjs</title><path fill="none" stroke="#000" stroke-opacity=".2" stroke-width="2" d="M524.27-792.04H533v408.66h320.44"/><path fill-opacity=".2" stroke="#000" stroke-opacity=".2" stroke-width="2" d="m853.44-385.48 6 2.1-6 2.1z"/></g><g class="node"><title>src/extract/transpile/meta.mjs</title><a xlink:href="src/extract/transpile/meta.mjs" xlink:title="meta.mjs">
<path fill="#ffc" stroke="#000" d="M644.96-831.88h-42.17c-2.96 0-5.91 2.96-5.91 5.92v5.92c0 2.96 2.95 5.92 5.91 5.92h42.17c2.96 0 5.92-2.96 5.92-5.92v-5.92c0-2.96-2.96-5.92-5.92-5.92"/>
<text xml:space="preserve" x="605.5" y="-819.33" font-family="Helvetica,sans-Serif" font-size="9">meta.mjs</text>
</a></g><g class="edge"><title>src/cache/cache.mjs-&gt;src/extract/transpile/meta.mjs</title><path fill="none" stroke="#000" stroke-opacity=".2" stroke-width="2" d="M524.24-797.96H624v-6.69"/><path fill-opacity=".2" stroke="#000" stroke-opacity=".2" stroke-width="2" d="m621.9-804.65 2.1-6 2.1 6z"/></g><g class="node"><title>src/cli/format-meta-info.mjs</title><a xlink:href="src/cli/format-meta-info.mjs" xlink:title="format-meta-info.mjs">
<path fill="#ffc" stroke="#000" d="M188.33-379.88h-87.41c-2.96 0-5.92 2.96-5.92 5.92v5.92c0 2.96 2.96 5.92 5.92 5.92h87.41c2.96 0 5.92-2.96 5.92-5.92v-5.92c0-2.96-2.96-5.92-5.92-5.92"/>
<text xml:space="preserve" x="103" y="-367.32" font-family="Helvetica,sans-Serif" font-size="9">format-meta-info.mjs</text>
</a></g><g class="node"><title>src/main/index.mjs</title><a xlink:href="src/main/index.mjs" xlink:title="index.mjs">
<path fill="#0f0" stroke="#000" d="M267.33-379.88h-43.16c-2.96 0-5.92 2.96-5.92 5.92v5.92c0 2.96 2.96 5.92 5.92 5.92h43.16c2.96 0 5.92-2.96 5.92-5.92v-5.92c0-2.96-2.96-5.92-5.92-5.92"/>
<text xml:space="preserve" x="226.25" y="-367.32" font-family="Helvetica,sans-Serif" font-size="9">index.mjs</text>
</a></g><g class="edge"><title>src/cli/format-meta-info.mjs-&gt;src/main/index.mjs</title><path fill="none" stroke="#000" stroke-opacity=".2" stroke-width="2" d="M194.59-371h14.4"/><path fill-opacity=".2" stroke="#000" stroke-opacity=".2" stroke-width="2" d="m208.99-373.1 6 2.1-6 2.1z"/></g><g class="edge"><title>src/main/index.mjs-&gt;src/extract/transpile/meta.mjs</title><path fill="none" stroke="#000" stroke-opacity=".2" stroke-width="2" d="M273.7-373.96H301v-452h286.6"/><path fill-opacity=".2" stroke="#000" stroke-opacity=".2" stroke-width="2" d="m587.6-828.06 6 2.1-6 2.1z"/></g><g class="node"><title>src/main/format.mjs</title><a xlink:href="src/main/format.mjs" xlink:title="format.mjs">
<path fill="#0f0" stroke="#000" d="M518.46-303.88h-46.17c-2.96 0-5.91 2.96-5.91 5.92v5.92c0 2.96 2.95 5.92 5.91 5.92h46.17c2.96 0 5.92-2.96 5.92-5.92v-5.92c0-2.96-2.96-5.92-5.92-5.92"/>
<text xml:space="preserve" x="474.38" y="-291.32" font-family="Helvetica,sans-Serif" font-size="9">format.mjs</text>
</a></g><g class="edge"><title>src/main/index.mjs-&gt;src/main/format.mjs</title><path fill="none" stroke="#000" stroke-opacity=".2" stroke-width="2" d="M246-361.68V-295h211.25"/><path fill-opacity=".2" stroke="#000" stroke-opacity=".2" stroke-width="2" d="m457.25-297.1 6 2.1-6 2.1z"/></g><g class="node"><title>src/main/cruise.mjs</title><a xlink:href="src/main/cruise.mjs" xlink:title="cruise.mjs">
<path fill="#0f0" stroke="#000" d="M380.33-379.88h-45.41c-2.96 0-5.92 2.96-5.92 5.92v5.92c0 2.96 2.96 5.92 5.92 5.92h45.41c2.96 0 5.92-2.96 5.92-5.92v-5.92c0-2.96-2.96-5.92-5.92-5.92"/>
<text xml:space="preserve" x="337" y="-367.32" font-family="Helvetica,sans-Serif" font-size="9">cruise.mjs</text>
</a></g><g class="edge"><title>src/main/index.mjs-&gt;src/main/cruise.mjs</title><path fill="none" stroke="#000" stroke-opacity=".2" stroke-width="2" d="M273.69-368.04h46.15"/><path fill-opacity=".2" stroke="#000" stroke-opacity=".2" stroke-width="2" d="m319.84-370.14 6 2.1-6 2.1z"/></g><g class="node"><title>src/cli/format.mjs</title><a xlink:href="src/cli/format.mjs" xlink:title="format.mjs">
<path fill="#ffc" stroke="#000" d="M76.08-349.88H29.92c-2.96 0-5.92 2.96-5.92 5.92v5.92c0 2.96 2.96 5.92 5.92 5.92h46.16c2.96 0 5.92-2.96 5.92-5.92v-5.92c0-2.96-2.96-5.92-5.92-5.92"/>
<text xml:space="preserve" x="32" y="-337.32" font-family="Helvetica,sans-Serif" font-size="9">format.mjs</text>
</a></g><g class="edge"><title>src/cli/format.mjs-&gt;src/main/format.mjs</title><path fill="none" stroke="#000" stroke-opacity=".2" stroke-width="2" d="M82.34-335.62H495v22.58"/><path fill-opacity=".2" stroke="#000" stroke-opacity=".2" stroke-width="2" d="m497.1-313.04-2.1 6-2.1-6z"/></g><g class="node"><title>src/main/options/assert-validity.mjs</title><a xlink:href="src/main/options/assert-validity.mjs" xlink:title="assert-validity.mjs">
<path fill="#0f0" stroke="#000" d="M662.33-277.88h-76.91c-2.96 0-5.92 2.96-5.92 5.92v5.92c0 2.96 2.96 5.92 5.92 5.92h76.91c2.96 0 5.92-2.96 5.92-5.92v-5.92c0-2.96-2.96-5.92-5.92-5.92"/>
<text xml:space="preserve" x="587.5" y="-265.32" font-family="Helvetica,sans-Serif" font-size="9">assert-validity.mjs</text>
</a></g><g class="edge"><title>src/main/format.mjs-&gt;src/main/options/assert-validity.mjs</title><path fill="none" stroke="#000" stroke-opacity=".2" stroke-width="2" d="M495-285.73v12.29h75.14"/><path fill-opacity=".2" stroke="#000" stroke-opacity=".2" stroke-width="2" d="m570.14-275.54 6 2.1-6 2.1z"/></g><g class="node"><title>src/main/options/normalize.mjs</title><a xlink:href="src/main/options/normalize.mjs" xlink:title="normalize.mjs">
<path fill="#0f0" stroke="#000" d="M654.46-307.88h-61.17c-2.96 0-5.91 2.96-5.91 5.92v5.92c0 2.96 2.95 5.92 5.91 5.92h61.17c2.96 0 5.92-2.96 5.92-5.92v-5.92c0-2.96-2.96-5.92-5.92-5.92"/>
<text xml:space="preserve" x="595.38" y="-295.32" font-family="Helvetica,sans-Serif" font-size="9">normalize.mjs</text>
</a></g><g class="edge"><title>src/main/format.mjs-&gt;src/main/options/normalize.mjs</title><path fill="none" stroke="#000" stroke-opacity=".2" stroke-width="2" d="M524.86-298.38h53.29"/><path fill-opacity=".2" stroke="#000" stroke-opacity=".2" stroke-width="2" d="m578.15-300.48 6 2.1-6 2.1z"/></g><g class="node"><title>src/main/report-wrap.mjs</title><a xlink:href="src/main/report-wrap.mjs" xlink:title="report-wrap.mjs">
<path fill="#0f0" stroke="#000" d="M657.83-465.88h-67.91c-2.96 0-5.92 2.96-5.92 5.92v5.92c0 2.96 2.96 5.92 5.92 5.92h67.91c2.96 0 5.92-2.96 5.92-5.92v-5.92c0-2.96-2.96-5.92-5.92-5.92"/>
<text xml:space="preserve" x="592" y="-453.32" font-family="Helvetica,sans-Serif" font-size="9">report-wrap.mjs</text>
</a></g><g class="edge"><title>src/main/format.mjs-&gt;src/main/report-wrap.mjs</title><path fill="none" stroke="#000" stroke-opacity=".2" stroke-width="2" d="M524.69-301.12H554v-152.92h20.61"/><path fill-opacity=".2" stroke="#000" stroke-opacity=".2" stroke-width="2" d="m574.61-456.14 6 2.1-6 2.1z"/></g><g class="node"><title>src/schema/cruise-result.validate.mjs</title><a xlink:href="src/schema/cruise-result.validate.mjs" xlink:title="cruise-result.validate.mjs">
<path fill="#ffc" stroke="#000" d="M676.58-153.88H571.17c-2.96 0-5.92 2.96-5.92 5.92v5.92c0 2.96 2.96 5.92 5.92 5.92h105.41c2.96 0 5.92-2.96 5.92-5.92v-5.92c0-2.96-2.96-5.92-5.92-5.92"/>
<text xml:space="preserve" x="573.25" y="-141.32" font-family="Helvetica,sans-Serif" font-size="9">cruise-result.validate.mjs</text>
</a></g><g class="edge"><title>src/main/format.mjs-&gt;src/schema/cruise-result.validate.mjs</title><path fill="none" stroke="#000" stroke-opacity=".2" stroke-width="2" d="M524.57-295.62H575V-163"/><path fill-opacity=".2" stroke="#000" stroke-opacity=".2" stroke-width="2" d="m577.1-163-2.1 6-2.1-6z"/></g><g class="node"><title>src/schema/utl.mjs</title><a xlink:href="src/schema/utl.mjs" xlink:title="utl.mjs">
<path fill="#ffc" stroke="#000" d="M644.96-123.88h-42.17c-2.96 0-5.91 2.96-5.91 5.92v5.92c0 2.96 2.95 5.92 5.91 5.92h42.17c2.96 0 5.92-2.96 5.92-5.92v-5.92c0-2.96-2.96-5.92-5.92-5.92"/>
<text xml:space="preserve" x="610.75" y="-111.33" font-family="Helvetica,sans-Serif" font-size="9">utl.mjs</text>
</a></g><g class="edge"><title>src/main/format.mjs-&gt;src/schema/utl.mjs</title><path fill="none" stroke="#000" stroke-opacity=".2" stroke-width="2" d="M524.7-292.88H549v172.44h38.39"/><path fill-opacity=".2" stroke="#000" stroke-opacity=".2" stroke-width="2" d="m587.39-122.54 6 2.1-6 2.1z"/></g><g class="node"><title>src/cli/index.mjs</title><a xlink:href="src/cli/index.mjs" xlink:title="index.mjs">
<path fill="#ffc" stroke="#000" d="M74.58-379.88H31.42c-2.96 0-5.92 2.96-5.92 5.92v5.92c0 2.96 2.96 5.92 5.92 5.92h43.16c2.96 0 5.92-2.96 5.92-5.92v-5.92c0-2.96-2.96-5.92-5.92-5.92"/>
<text xml:space="preserve" x="33.5" y="-367.32" font-family="Helvetica,sans-Serif" font-size="9">index.mjs</text>
</a></g><g class="edge"><title>src/cli/index.mjs-&gt;src/utl/bus.mjs</title><path fill="none" stroke="#000" stroke-opacity=".2" stroke-width="2" d="M53-380.28v-2.22h800.48"/><path fill-opacity=".2" stroke="#000" stroke-opacity=".2" stroke-width="2" d="m853.48-384.6 6 2.1-6 2.1z"/></g><g class="edge"><title>src/cli/index.mjs-&gt;src/cli/format-meta-info.mjs</title><path fill="none" stroke="#000" stroke-dasharray="5,2" stroke-opacity=".2" stroke-width="2" d="M80.99-371h4.82"/><path fill-opacity=".2" stroke="#000" stroke-opacity=".2" stroke-width="2" d="m85.81-373.1 6 2.1-6 2.1z"/></g><g class="edge"><title>src/cli/index.mjs-&gt;src/main/cruise.mjs</title><path fill="none" stroke="#000" stroke-opacity=".2" stroke-width="2" d="M67-380.32v-1.3h270v.13"/><path fill-opacity=".2" stroke="#000" stroke-opacity=".2" stroke-width="2" d="m339.1-389.35-2.1 6-2.1-6z"/></g><g class="node"><title>src/utl/object-util.mjs</title><a xlink:href="src/utl/object-util.mjs" xlink:title="object-util.mjs">
<path fill="#ffc" stroke="#000" d="M920.08-416.88h-60.41c-2.96 0-5.92 2.96-5.92 5.92v5.92c0 2.96 2.96 5.92 5.92 5.92h60.41c2.96 0 5.92-2.96 5.92-5.92v-5.92c0-2.96-2.96-5.92-5.92-5.92"/>
<text xml:space="preserve" x="861.75" y="-404.32" font-family="Helvetica,sans-Serif" font-size="9">object-util.mjs</text>
</a></g><g class="edge"><title>src/cli/index.mjs-&gt;src/utl/object-util.mjs</title><path fill="none" stroke="#000" stroke-opacity=".2" stroke-width="2" d="M39-380.2v-32.24h805.29"/><path fill-opacity=".2" stroke="#000" stroke-opacity=".2" stroke-width="2" d="m844.29-414.54 6 2.1-6 2.1z"/></g><g class="edge"><title>src/main/cruise.mjs-&gt;src/analyze/index.mjs</title><path fill="none" stroke="#000" stroke-dasharray="5,2" stroke-opacity=".2" stroke-width="2" d="M362-380.28V-705h225.32"/><path fill-opacity=".2" stroke="#000" stroke-opacity=".2" stroke-width="2" d="m587.32-707.1 6 2.1-6 2.1z"/></g><g class="edge"><title>src/main/cruise.mjs-&gt;src/utl/bus.mjs</title><path fill="none" stroke="#000" stroke-opacity=".2" stroke-width="2" d="M386.52-368.04H419v-12.71h434.5"/><path fill-opacity=".2" stroke="#000" stroke-opacity=".2" stroke-width="2" d="m853.5-382.85 6 2.1-6 2.1z"/></g><g class="edge"><title>src/main/cruise.mjs-&gt;src/cache/cache.mjs</title><path fill="none" stroke="#000" stroke-dasharray="5,2" stroke-opacity=".2" stroke-width="2" d="M354-380.25V-795h103.4"/><path fill-opacity=".2" stroke="#000" stroke-opacity=".2" stroke-width="2" d="m457.4-797.1 6 2.1-6 2.1z"/></g><g class="node"><title>src/main/resolve-options/normalize.mjs</title><a xlink:href="src/main/resolve-options/normalize.mjs" xlink:title="normalize.mjs">
<path fill="#0f0" stroke="#000" d="M525.96-379.88h-61.17c-2.96 0-5.91 2.96-5.91 5.92v5.92c0 2.96 2.95 5.92 5.91 5.92h61.17c2.96 0 5.92-2.96 5.92-5.92v-5.92c0-2.96-2.96-5.92-5.92-5.92"/>
<text xml:space="preserve" x="466.88" y="-367.32" font-family="Helvetica,sans-Serif" font-size="9">normalize.mjs</text>
</a></g><g class="edge"><title>src/main/cruise.mjs-&gt;src/main/resolve-options/normalize.mjs</title><path fill="none" stroke="#000" stroke-dasharray="5,2" stroke-opacity=".2" stroke-width="2" d="M386.5-376.92h62.88"/><path fill-opacity=".2" stroke="#000" stroke-opacity=".2" stroke-width="2" d="m449.38-379.02 6 2.1-6 2.1z"/></g><g class="node"><title>src/extract/index.mjs</title><a xlink:href="src/extract/index.mjs" xlink:title="index.mjs">
<path fill="#ffc" stroke="#000" d="M645.46-883.88h-43.17c-2.96 0-5.91 2.96-5.91 5.92v5.92c0 2.96 2.95 5.92 5.91 5.92h43.17c2.96 0 5.92-2.96 5.92-5.92v-5.92c0-2.96-2.96-5.92-5.92-5.92"/>
<text xml:space="preserve" x="604.38" y="-871.33" font-family="Helvetica,sans-Serif" font-size="9">index.mjs</text>
</a></g><g class="edge"><title>src/main/cruise.mjs-&gt;src/extract/index.mjs</title><path fill="none" stroke="#000" stroke-dasharray="5,2" stroke-opacity=".2" stroke-width="2" d="M345-380.18V-875h242.09"/><path fill-opacity=".2" stroke="#000" stroke-opacity=".2" stroke-width="2" d="m587.09-877.1 6 2.1-6 2.1z"/></g><g class="node"><title>src/utl/regex-util.mjs</title><a xlink:href="src/utl/regex-util.mjs" xlink:title="regex-util.mjs">
<path fill="#ffc" stroke="#000" d="M919.33-446.88h-58.91c-2.96 0-5.92 2.96-5.92 5.92v5.92c0 2.96 2.96 5.92 5.92 5.92h58.91c2.96 0 5.92-2.96 5.92-5.92v-5.92c0-2.96-2.96-5.92-5.92-5.92"/>
<text xml:space="preserve" x="862.5" y="-434.32" font-family="Helvetica,sans-Serif" font-size="9">regex-util.mjs</text>
</a></g><g class="edge"><title>src/main/cruise.mjs-&gt;src/utl/regex-util.mjs</title><path fill="none" stroke="#000" stroke-opacity=".2" stroke-width="2" d="M386.48-371H402v-72.38h442.97"/><path fill-opacity=".2" stroke="#000" stroke-opacity=".2" stroke-width="2" d="m844.97-445.48 6 2.1-6 2.1z"/></g><g class="node"><title>src/main/files-and-dirs/normalize.mjs</title><a xlink:href="src/main/files-and-dirs/normalize.mjs" xlink:title="normalize.mjs">
<path fill="#0f0" stroke="#000" d="M525.96-439.88h-61.17c-2.96 0-5.91 2.96-5.91 5.92v5.92c0 2.96 2.95 5.92 5.91 5.92h61.17c2.96 0 5.92-2.96 5.92-5.92v-5.92c0-2.96-2.96-5.92-5.92-5.92"/>
<text xml:space="preserve" x="466.88" y="-427.32" font-family="Helvetica,sans-Serif" font-size="9">normalize.mjs</text>
</a></g><g class="edge"><title>src/main/cruise.mjs-&gt;src/main/files-and-dirs/normalize.mjs</title><path fill="none" stroke="#000" stroke-dasharray="5,2" stroke-opacity=".2" stroke-width="2" d="M378-380.22V-430h71.53"/><path fill-opacity=".2" stroke="#000" stroke-opacity=".2" stroke-width="2" d="m449.53-432.1 6 2.1-6 2.1z"/></g><g class="edge"><title>src/main/cruise.mjs-&gt;src/main/options/assert-validity.mjs</title><path fill="none" stroke="#000" stroke-opacity=".2" stroke-width="2" d="M358-361.95V-269h212.05"/><path fill-opacity=".2" stroke="#000" stroke-opacity=".2" stroke-width="2" d="m570.05-271.1 6 2.1-6 2.1z"/></g><g class="edge"><title>src/main/cruise.mjs-&gt;src/main/options/normalize.mjs</title><path fill="none" stroke="#000" stroke-opacity=".2" stroke-width="2" d="M371-361.74v19.03h253v25.41"/><path fill-opacity=".2" stroke="#000" stroke-opacity=".2" stroke-width="2" d="m626.1-317.3-2.1 6-2.1-6z"/></g><g class="edge"><title>src/main/cruise.mjs-&gt;src/main/report-wrap.mjs</title><path fill="none" stroke="#000" stroke-opacity=".2" stroke-width="2" d="M370-380.19v-79.77h204.62"/><path fill-opacity=".2" stroke="#000" stroke-opacity=".2" stroke-width="2" d="m574.62-462.06 6 2.1-6 2.1z"/></g><g class="node"><title>src/main/rule-set/assert-validity.mjs</title><a xlink:href="src/main/rule-set/assert-validity.mjs" xlink:title="assert-validity.mjs">
<path fill="#0f0" stroke="#000" d="M533.83-251.88h-76.91c-2.96 0-5.92 2.96-5.92 5.92v5.92c0 2.96 2.96 5.92 5.92 5.92h76.91c2.96 0 5.92-2.96 5.92-5.92v-5.92c0-2.96-2.96-5.92-5.92-5.92"/>
<text xml:space="preserve" x="459" y="-239.32" font-family="Helvetica,sans-Serif" font-size="9">assert-validity.mjs</text>
</a></g><g class="edge"><title>src/main/cruise.mjs-&gt;src/main/rule-set/assert-validity.mjs</title><path fill="none" stroke="#000" stroke-dasharray="5,2" stroke-opacity=".2" stroke-width="2" d="M386.58-373.96H455v112.93"/><path fill-opacity=".2" stroke="#000" stroke-opacity=".2" stroke-width="2" d="m457.1-261.03-2.1 6-2.1-6z"/></g><g class="node"><title>src/main/rule-set/normalize.mjs</title><a xlink:href="src/main/rule-set/normalize.mjs" xlink:title="normalize.mjs">
<path fill="#0f0" stroke="#000" d="M525.96-221.88h-61.17c-2.96 0-5.91 2.96-5.91 5.92v5.92c0 2.96 2.95 5.92 5.91 5.92h61.17c2.96 0 5.92-2.96 5.92-5.92v-5.92c0-2.96-2.96-5.92-5.92-5.92"/>
<text xml:space="preserve" x="466.88" y="-209.32" font-family="Helvetica,sans-Serif" font-size="9">normalize.mjs</text>
</a></g><g class="edge"><title>src/main/cruise.mjs-&gt;src/main/rule-set/normalize.mjs</title><path fill="none" stroke="#000" stroke-dasharray="5,2" stroke-opacity=".2" stroke-width="2" d="M344-362.05V-213h105.7"/><path fill-opacity=".2" stroke="#000" stroke-opacity=".2" stroke-width="2" d="m449.7-215.1 6 2.1-6 2.1z"/></g><g class="node"><title>src/config-utl/extract-depcruise-config/index.mjs</title><a xlink:href="src/config-utl/extract-depcruise-config/index.mjs" xlink:title="index.mjs">
<path fill="#ffc" stroke="#000" d="M379.21-127.88h-43.17c-2.96 0-5.92 2.96-5.92 5.92v5.92c0 2.96 2.96 5.92 5.92 5.92h43.17c2.96 0 5.91-2.96 5.91-5.92v-5.92c0-2.96-2.95-5.92-5.91-5.92"/>
<text xml:space="preserve" x="338.12" y="-115.33" font-family="Helvetica,sans-Serif" font-size="9">index.mjs</text>
</a></g><g class="edge"><title>src/config-utl/extract-depcruise-config/index.mjs-&gt;src/main/resolve-options/normalize.mjs</title><path fill="none" stroke="#000" stroke-opacity=".2" stroke-width="2" d="M385.56-113.56H435v-251.52h14.49"/><path fill-opacity=".2" stroke="#000" stroke-opacity=".2" stroke-width="2" d="m449.49-367.18 6 2.1-6 2.1z"/></g><g class="edge"><title>src/main/resolve-options/normalize.mjs-&gt;src/extract/transpile/meta.mjs</title><path fill="none" stroke="#000" stroke-opacity=".2" stroke-width="2" d="M532.25-375.57H570v-444.47h17.59"/><path fill-opacity=".2" stroke="#000" stroke-opacity=".2" stroke-width="2" d="m587.59-822.14 6 2.1-6 2.1z"/></g><g class="node"><title>src/graph-utl/rule-set.mjs</title><a xlink:href="src/graph-utl/rule-set.mjs" xlink:title="rule-set.mjs">
<path fill="#ffc" stroke="#000" d="M794.58-645.88h-51.41c-2.96 0-5.92 2.96-5.92 5.92v5.92c0 2.96 2.96 5.92 5.92 5.92h51.41c2.96 0 5.92-2.96 5.92-5.92v-5.92c0-2.96-2.96-5.92-5.92-5.92"/>
<text xml:space="preserve" x="745.25" y="-633.33" font-family="Helvetica,sans-Serif" font-size="9">rule-set.mjs</text>
</a></g><g class="edge"><title>src/main/resolve-options/normalize.mjs-&gt;src/graph-utl/rule-set.mjs</title><path fill="none" stroke="#000" stroke-opacity=".2" stroke-width="2" d="M532.22-377.73H545V-637h182.77"/><path fill-opacity=".2" stroke="#000" stroke-opacity=".2" stroke-width="2" d="m727.77-639.1 6 2.1-6 2.1z"/></g><g class="edge"><title>src/extract/index.mjs-&gt;src/utl/bus.mjs</title><path fill="none" stroke="#000" stroke-opacity=".2" stroke-width="2" d="M651.83-875H675v489.88h178.63"/><path fill-opacity=".2" stroke="#000" stroke-opacity=".2" stroke-width="2" d="m853.63-387.23 6 2.1-6 2.1z"/></g><g class="node"><title>src/graph-utl/consolidate-to-pattern.mjs</title><a xlink:href="src/graph-utl/consolidate-to-pattern.mjs" xlink:title="consolidate-to-pattern.mjs">
<path fill="#ffc" stroke="#000" d="M823.83-615.88H713.92c-2.96 0-5.92 2.96-5.92 5.92v5.92c0 2.96 2.96 5.92 5.92 5.92h109.91c2.96 0 5.92-2.96 5.92-5.92v-5.92c0-2.96-2.96-5.92-5.92-5.92"/>
<text xml:space="preserve" x="716" y="-603.33" font-family="Helvetica,sans-Serif" font-size="9">consolidate-to-pattern.mjs</text>
</a></g><g class="edge"><title>src/graph-utl/consolidate-to-pattern.mjs-&gt;src/utl/regex-util.mjs</title><path fill="none" stroke="#000" stroke-opacity=".2" stroke-width="2" d="M830.15-607H890v150.89"/><path fill-opacity=".2" stroke="#000" stroke-opacity=".2" stroke-width="2" d="m892.1-456.11-2.1 6-2.1-6z"/></g><g class="node"><title>src/graph-utl/filter-bank.mjs</title><a xlink:href="src/graph-utl/filter-bank.mjs" xlink:title="filter-bank.mjs">
<path fill="#ffc" stroke="#000" d="M799.46-525.88h-61.17c-2.96 0-5.91 2.96-5.91 5.92v5.92c0 2.96 2.95 5.92 5.91 5.92h61.17c2.96 0 5.92-2.96 5.92-5.92v-5.92c0-2.96-2.96-5.92-5.92-5.92"/>
<text xml:space="preserve" x="740.38" y="-513.33" font-family="Helvetica,sans-Serif" font-size="9">filter-bank.mjs</text>
</a></g><g class="node"><title>src/graph-utl/strip-self-transitions.mjs</title><a xlink:href="src/graph-utl/strip-self-transitions.mjs" xlink:title="strip-self-transitions.mjs">
<path fill="#ffc" stroke="#000" d="M818.96-585.88H718.79c-2.96 0-5.91 2.96-5.91 5.92v5.92c0 2.96 2.95 5.92 5.91 5.92h100.17c2.96 0 5.92-2.96 5.92-5.92v-5.92c0-2.96-2.96-5.92-5.92-5.92"/>
<text xml:space="preserve" x="720.88" y="-573.33" font-family="Helvetica,sans-Serif" font-size="9">strip-self-transitions.mjs</text>
</a></g><g class="node"><title>src/report/index.mjs</title><a xlink:href="src/report/index.mjs" xlink:title="index.mjs">
<path fill="#ffc" stroke="#000" d="M790.46-153.88h-43.17c-2.96 0-5.91 2.96-5.91 5.92v5.92c0 2.96 2.95 5.92 5.91 5.92h43.17c2.96 0 5.92-2.96 5.92-5.92v-5.92c0-2.96-2.96-5.92-5.92-5.92"/>
<text xml:space="preserve" x="749.38" y="-141.32" font-family="Helvetica,sans-Serif" font-size="9">index.mjs</text>
</a></g><g class="edge"><title>src/main/options/assert-validity.mjs-&gt;src/report/index.mjs</title><path fill="none" stroke="#000" stroke-opacity=".2" stroke-width="2" d="M668.39-269H689v126.96h42.91"/><path fill-opacity=".2" stroke="#000" stroke-opacity=".2" stroke-width="2" d="m731.91-144.14 6 2.1-6 2.1z"/></g><g class="node"><title>src/main/helpers.mjs</title><a xlink:href="src/main/helpers.mjs" xlink:title="helpers.mjs">
<path fill="#0f0" stroke="#000" d="M794.58-243.88h-51.41c-2.96 0-5.92 2.96-5.92 5.92v5.92c0 2.96 2.96 5.92 5.92 5.92h51.41c2.96 0 5.92-2.96 5.92-5.92v-5.92c0-2.96-2.96-5.92-5.92-5.92"/>
<text xml:space="preserve" x="745.25" y="-231.32" font-family="Helvetica,sans-Serif" font-size="9">helpers.mjs</text>
</a></g><g class="edge"><title>src/main/options/normalize.mjs-&gt;src/main/helpers.mjs</title><path fill="none" stroke="#000" stroke-opacity=".2" stroke-width="2" d="M660.66-296.04H703v55.42h25.07"/><path fill-opacity=".2" stroke="#000" stroke-opacity=".2" stroke-width="2" d="m728.07-242.73 6 2.1-6 2.1z"/></g><g class="node"><title>src/main/options/defaults.mjs</title><a xlink:href="src/main/options/defaults.mjs" xlink:title="defaults.mjs">
<path fill="#0f0" stroke="#000" d="M795.33-307.88h-52.91c-2.96 0-5.92 2.96-5.92 5.92v5.92c0 2.96 2.96 5.92 5.92 5.92h52.91c2.96 0 5.92-2.96 5.92-5.92v-5.92c0-2.96-2.96-5.92-5.92-5.92"/>
<text xml:space="preserve" x="744.5" y="-295.32" font-family="Helvetica,sans-Serif" font-size="9">defaults.mjs</text>
</a></g><g class="edge"><title>src/main/options/normalize.mjs-&gt;src/main/options/defaults.mjs</title><path fill="none" stroke="#000" stroke-opacity=".2" stroke-width="2" d="M660.84-301.96h66.55"/><path fill-opacity=".2" stroke="#000" stroke-opacity=".2" stroke-width="2" d="m727.39-304.06 6 2.1-6 2.1z"/></g><g class="node"><title>src/utl/array-util.mjs</title><a xlink:href="src/utl/array-util.mjs" xlink:title="array-util.mjs">
<path fill="#ffc" stroke="#000" d="M918.21-356.88h-56.67c-2.96 0-5.92 2.96-5.92 5.92v5.92c0 2.96 2.96 5.92 5.92 5.92h56.67c2.96 0 5.91-2.96 5.91-5.92v-5.92c0-2.96-2.95-5.92-5.91-5.92"/>
<text xml:space="preserve" x="863.62" y="-344.32" font-family="Helvetica,sans-Serif" font-size="9">array-util.mjs</text>
</a></g><g class="edge"><title>src/main/options/normalize.mjs-&gt;src/utl/array-util.mjs</title><path fill="none" stroke="#000" stroke-opacity=".2" stroke-width="2" d="M642-308.12v-38.17h204.12"/><path fill-opacity=".2" stroke="#000" stroke-opacity=".2" stroke-width="2" d="m846.12-348.39 6 2.1-6 2.1z"/></g><g class="edge"><title>src/main/report-wrap.mjs-&gt;src/analyze/summarize/index.mjs</title><path fill="none" stroke="#000" stroke-opacity=".2" stroke-width="2" d="M653-466.12V-705h79.09"/><path fill-opacity=".2" stroke="#000" stroke-opacity=".2" stroke-width="2" d="m732.09-707.1 6 2.1-6 2.1z"/></g><g class="edge"><title>src/main/report-wrap.mjs-&gt;src/utl/bus.mjs</title><path fill="none" stroke="#000" stroke-opacity=".2" stroke-width="2" d="M606-447.79v63.54h247.37"/><path fill-opacity=".2" stroke="#000" stroke-opacity=".2" stroke-width="2" d="m853.37-386.35 6 2.1-6 2.1z"/></g><g class="edge"><title>src/main/report-wrap.mjs-&gt;src/graph-utl/compare.mjs</title><path fill="none" stroke="#000" stroke-opacity=".2" stroke-width="2" d="M660-466.29V-547h65.1"/><path fill-opacity=".2" stroke="#000" stroke-opacity=".2" stroke-width="2" d="m725.1-549.1 6 2.1-6 2.1z"/></g><g class="edge"><title>src/main/report-wrap.mjs-&gt;src/graph-utl/consolidate-to-pattern.mjs</title><path fill="none" stroke="#000" stroke-opacity=".2" stroke-width="2" d="M655-465.93V-607h43.58"/><path fill-opacity=".2" stroke="#000" stroke-opacity=".2" stroke-width="2" d="m698.58-609.1 6 2.1-6 2.1z"/></g><g class="edge"><title>src/main/report-wrap.mjs-&gt;src/graph-utl/filter-bank.mjs</title><path fill="none" stroke="#000" stroke-opacity=".2" stroke-width="2" d="M662-466.38V-517h61.07"/><path fill-opacity=".2" stroke="#000" stroke-opacity=".2" stroke-width="2" d="m723.07-519.1 6 2.1-6 2.1z"/></g><g class="edge"><title>src/main/report-wrap.mjs-&gt;src/graph-utl/strip-self-transitions.mjs</title><path fill="none" stroke="#000" stroke-opacity=".2" stroke-width="2" d="M658-466.02V-577h45.44"/><path fill-opacity=".2" stroke="#000" stroke-opacity=".2" stroke-width="2" d="m703.44-579.1 6 2.1-6 2.1z"/></g><g class="edge"><title>src/main/report-wrap.mjs-&gt;src/report/index.mjs</title><path fill="none" stroke="#000" stroke-opacity=".2" stroke-width="2" d="M663.85-457H694v309.04h37.97"/><path fill-opacity=".2" stroke="#000" stroke-opacity=".2" stroke-width="2" d="m731.97-150.06 6 2.1-6 2.1z"/></g><g class="edge"><title>src/main/rule-set/assert-validity.mjs-&gt;src/utl/bus.mjs</title><path fill="none" stroke="#000" stroke-opacity=".2" stroke-width="2" d="M537-251.96v-121.47h316.45"/><path fill-opacity=".2" stroke="#000" stroke-opacity=".2" stroke-width="2" d="m853.45-375.53 6 2.1-6 2.1z"/></g><g class="edge"><title>src/main/rule-set/assert-validity.mjs-&gt;src/utl/object-util.mjs</title><path fill="none" stroke="#000" stroke-opacity=".2" stroke-width="2" d="M535-252.34V-408h309.54"/><path fill-opacity=".2" stroke="#000" stroke-opacity=".2" stroke-width="2" d="m844.54-410.1 6 2.1-6 2.1z"/></g><g class="edge"><title>src/main/rule-set/assert-validity.mjs-&gt;src/main/options/assert-validity.mjs</title><path fill="none" stroke="#000" stroke-opacity=".2" stroke-width="2" d="M538-252.27v-12.29h32.15"/><path fill-opacity=".2" stroke="#000" stroke-opacity=".2" stroke-width="2" d="m570.15-266.66 6 2.1-6 2.1z"/></g><g class="edge"><title>src/main/rule-set/assert-validity.mjs-&gt;src/schema/utl.mjs</title><path fill="none" stroke="#000" stroke-opacity=".2" stroke-width="2" d="M537-233.94V-117h50.36"/><path fill-opacity=".2" stroke="#000" stroke-opacity=".2" stroke-width="2" d="m587.36-119.1 6 2.1-6 2.1z"/></g><g class="edge"><title>src/main/rule-set/assert-validity.mjs-&gt;src/main/helpers.mjs</title><path fill="none" stroke="#000" stroke-opacity=".2" stroke-width="2" d="M540.23-237.38h187.58"/><path fill-opacity=".2" stroke="#000" stroke-opacity=".2" stroke-width="2" d="m727.81-239.48 6 2.1-6 2.1z"/></g><g class="node"><title>src/schema/configuration.validate.mjs</title><a xlink:href="src/schema/configuration.validate.mjs" xlink:title="configuration.validate.mjs">
<path fill="#ffc" stroke="#000" d="M678.08-93.88H569.67c-2.96 0-5.92 2.96-5.92 5.92v5.92c0 2.96 2.96 5.92 5.92 5.92h108.41c2.96 0 5.92-2.96 5.92-5.92v-5.92c0-2.96-2.96-5.92-5.92-5.92"/>
<text xml:space="preserve" x="571.75" y="-81.33" font-family="Helvetica,sans-Serif" font-size="9">configuration.validate.mjs</text>
</a></g><g class="edge"><title>src/main/rule-set/assert-validity.mjs-&gt;src/schema/configuration.validate.mjs</title><path fill="none" stroke="#000" stroke-opacity=".2" stroke-width="2" d="M534-234.05V-85h20.4"/><path fill-opacity=".2" stroke="#000" stroke-opacity=".2" stroke-width="2" d="m554.4-87.1 6 2.1-6 2.1z"/></g><g class="edge"><title>src/main/rule-set/normalize.mjs-&gt;src/utl/bus.mjs</title><path fill="none" stroke="#000" stroke-opacity=".2" stroke-width="2" d="M532.02-215.96H559v-155.31h294.49"/><path fill-opacity=".2" stroke="#000" stroke-opacity=".2" stroke-width="2" d="m853.49-373.38 6 2.1-6 2.1z"/></g><g class="edge"><title>src/main/rule-set/normalize.mjs-&gt;src/main/helpers.mjs</title><path fill="none" stroke="#000" stroke-opacity=".2" stroke-width="2" d="M532.28-210.04H769v-6.64"/><path fill-opacity=".2" stroke="#000" stroke-opacity=".2" stroke-width="2" d="m766.9-216.68 2.1-6 2.1 6z"/></g><g class="edge"><title>src/main/helpers.mjs-&gt;src/utl/object-util.mjs</title><path fill="none" stroke="#000" stroke-opacity=".2" stroke-width="2" d="M800.61-235H838v-168.56h6.26"/><path fill-opacity=".2" stroke="#000" stroke-opacity=".2" stroke-width="2" d="m844.26-405.66 6 2.1-6 2.1z"/></g><g class="node"><title>src/main/index.d.ts</title><a xlink:href="src/main/index.d.ts" xlink:title="index.d.ts">
<path fill="#0f0" stroke="#000" d="M267.33-437.88h-43.16c-2.96 0-5.92 2.96-5.92 5.92v5.92c0 2.96 2.96 5.92 5.92 5.92h43.16c2.96 0 5.92-2.96 5.92-5.92v-5.92c0-2.96-2.96-5.92-5.92-5.92"/>
<text xml:space="preserve" x="226.25" y="-425.32" font-family="Helvetica,sans-Serif" font-size="9">index.d.ts</text>
</a></g></g></svg>