<svg xmlns="http://www.w3.org/2000/svg" xmlns:xlink="http://www.w3.org/1999/xlink" width="958pt" height="1216" viewBox="0 0 958 912"><g class="graph" transform="translate(4 908)"><title>dependency-cruiser output</title><path fill="#fff" d="M-4 4v-912h958V4z"/><g class="cluster"><title>cluster_src</title><path fill="#fff" stroke="#000" stroke-width="2" d="M20-8h910c6 0 12-6 12-12v-864c0-6-6-12-12-12H20c-6 0-12 6-12 12v864c0 6 6 12 12 12"/><text xml:space="preserve" x="475" y="-883.45" font-family="Helvetica,sans-Serif" font-size="9" font-weight="bold" text-anchor="middle">src</text></g><g class="cluster"><title>cluster_src/cache</title><path fill="#fff" stroke="#000" stroke-width="2" d="M470.75-714H520c6 0 12-6 12-12v-28c0-6-6-12-12-12h-49.25c-6 0-12 6-12 12v28c0 6 6 12 12 12"/><text xml:space="preserve" x="495.38" y="-753.45" font-family="Helvetica,sans-Serif" font-size="9" font-weight="bold" text-anchor="middle">cache</text></g><g class="cluster"><title>cluster_src/cli</title><path fill="#fff" stroke="#000" stroke-width="2" d="M28-408h162.25c6 0 12-6 12-12v-58c0-6-6-12-12-12H28c-6 0-12 6-12 12v58c0 6 6 12 12 12"/><text xml:space="preserve" x="109.12" y="-477.45" font-family="Helvetica,sans-Serif" font-size="9" font-weight="bold" text-anchor="middle">cli</text></g><g class="cluster"><title>cluster_src/config-utl</title><path fill="#fff" stroke="#000" stroke-width="2" d="M301.25-126H415c6 0 12-6 12-12v-62c0-6-6-12-12-12H301.25c-6 0-12 6-12 12v62c0 6 6 12 12 12"/><text xml:space="preserve" x="358.12" y="-199.45" font-family="Helvetica,sans-Serif" font-size="9" font-weight="bold" text-anchor="middle">config-utl</text></g><g class="cluster"><title>cluster_src/config-utl/extract-depcruise-config</title><path fill="#fff" stroke="#000" stroke-width="2" d="M309.25-134H407c6 0 12-6 12-12v-28c0-6-6-12-12-12h-97.75c-6 0-12 6-12 12v28c0 6 6 12 12 12"/><text xml:space="preserve" x="358.12" y="-173.45" font-family="Helvetica,sans-Serif" font-size="9" font-weight="bold" text-anchor="middle">extract-depcruise-config</text></g><g class="cluster"><title>cluster_src/enrich</title><path fill="#fff" stroke="#000" stroke-width="2" d="M600.38-588h200c6 0 12-6 12-12v-62c0-6-6-12-12-12h-200c-6 0-12 6-12 12v62c0 6 6 12 12 12"/><text xml:space="preserve" x="700.38" y="-661.45" font-family="Helvetica,sans-Serif" font-size="9" font-weight="bold" text-anchor="middle">enrich</text></g><g class="cluster"><title>cluster_src/enrich/summarize</title><path fill="#fff" stroke="#000" stroke-width="2" d="M745.38-596h47c6 0 12-6 12-12v-28c0-6-6-12-12-12h-47c-6 0-12 6-12 12v28c0 6 6 12 12 12"/><text xml:space="preserve" x="768.88" y="-635.45" font-family="Helvetica,sans-Serif" font-size="9" font-weight="bold" text-anchor="middle">summarize</text></g><g class="cluster"><title>cluster_src/extract</title><path fill="#fff" stroke="#000" stroke-width="2" d="M592.88-734h62c6 0 12-6 12-12v-88c0-6-6-12-12-12h-62c-6 0-12 6-12 12v88c0 6 6 12 12 12"/><text xml:space="preserve" x="623.88" y="-833.45" font-family="Helvetica,sans-Serif" font-size="9" font-weight="bold" text-anchor="middle">extract</text></g><g class="cluster"><title>cluster_src/extract/transpile</title><path fill="#fff" stroke="#000" stroke-width="2" d="M600.88-742h46c6 0 12-6 12-12v-28c0-6-6-12-12-12h-46c-6 0-12 6-12 12v28c0 6 6 12 12 12"/><text xml:space="preserve" x="623.88" y="-781.45" font-family="Helvetica,sans-Serif" font-size="9" font-weight="bold" text-anchor="middle">transpile</text></g><g class="cluster"><title>cluster_src/graph-utl</title><path fill="#fff" stroke="#000" stroke-width="2" d="M712-40h113.75c6 0 12-6 12-12v-148c0-6-6-12-12-12H712c-6 0-12 6-12 12v148c0 6 6 12 12 12"/><text xml:space="preserve" x="768.88" y="-199.45" font-family="Helvetica,sans-Serif" font-size="9" font-weight="bold" text-anchor="middle">graph-utl</text></g><g class="cluster"><title>cluster_src/main</title><path fill="#fff" stroke="#000" stroke-width="2" d="M222.25-220h583c6 0 12-6 12-12v-276c0-6-6-12-12-12h-583c-6 0-12 6-12 12v276c0 6 6 12 12 12"/><text xml:space="preserve" x="513.75" y="-507.45" font-family="Helvetica,sans-Serif" font-size="9" font-weight="bold" text-anchor="middle">main</text></g><g class="cluster"><title>cluster_src/main/files-and-dirs</title><path fill="#fff" stroke="#000" stroke-width="2" d="M462.88-442h65c6 0 12-6 12-12v-28c0-6-6-12-12-12h-65c-6 0-12 6-12 12v28c0 6 6 12 12 12"/><text xml:space="preserve" x="495.38" y="-481.45" font-family="Helvetica,sans-Serif" font-size="9" font-weight="bold" text-anchor="middle">files-and-dirs</text></g><g class="cluster"><title>cluster_src/main/options</title><path fill="#fff" stroke="#000" stroke-width="2" d="M583.5-365h213.75c6 0 12-6 12-12v-58c0-6-6-12-12-12H583.5c-6 0-12 6-12 12v58c0 6 6 12 12 12"/><text xml:space="preserve" x="690.38" y="-434.45" font-family="Helvetica,sans-Serif" font-size="9" font-weight="bold" text-anchor="middle">options</text></g><g class="cluster"><title>cluster_src/main/resolve-options</title><path fill="#fff" stroke="#000" stroke-width="2" d="M462.88-344h65c6 0 12-6 12-12v-28c0-6-6-12-12-12h-65c-6 0-12 6-12 12v28c0 6 6 12 12 12"/><text xml:space="preserve" x="495.38" y="-383.45" font-family="Helvetica,sans-Serif" font-size="9" font-weight="bold" text-anchor="middle">resolve-options</text></g><g class="cluster"><title>cluster_src/main/rule-set</title><path fill="#fff" stroke="#000" stroke-width="2" d="M455-228h80.75c6 0 12-6 12-12v-58c0-6-6-12-12-12H455c-6 0-12 6-12 12v58c0 6 6 12 12 12"/><text xml:space="preserve" x="495.38" y="-297.45" font-family="Helvetica,sans-Serif" font-size="9" font-weight="bold" text-anchor="middle">rule-set</text></g><g class="cluster"><title>cluster_src/report</title><path fill="#fff" stroke="#000" stroke-width="2" d="M745.38-528h47c6 0 12-6 12-12v-28c0-6-6-12-12-12h-47c-6 0-12 6-12 12v28c0 6 6 12 12 12"/><text xml:space="preserve" x="768.88" y="-567.45" font-family="Helvetica,sans-Serif" font-size="9" font-weight="bold" text-anchor="middle">report</text></g><g class="cluster"><title>cluster_src/schema</title><path fill="#fff" stroke="#000" stroke-width="2" d="M567.75-100H680c6 0 12-6 12-12v-88c0-6-6-12-12-12H567.75c-6 0-12 6-12 12v88c0 6 6 12 12 12"/><text xml:space="preserve" x="623.88" y="-199.45" font-family="Helvetica,sans-Serif" font-size="9" font-weight="bold" text-anchor="middle">schema</text></g><g class="cluster"><title>cluster_src/utl</title><path fill="#fff" stroke="#000" stroke-width="2" d="M857.75-573H922c6 0 12-6 12-12v-118c0-6-6-12-12-12h-64.25c-6 0-12 6-12 12v118c0 6 6 12 12 12"/><text xml:space="preserve" x="889.88" y="-702.45" font-family="Helvetica,sans-Serif" font-size="9" font-weight="bold" text-anchor="middle">utl</text></g><g class="node"><title>src/cache/cache.mjs</title><a xlink:href="src/cache/cache.mjs" xlink:title="cache.mjs">
<path fill="#ffc" stroke="#000" d="M518.08-739.88h-45.41c-2.96 0-5.92 2.96-5.92 5.92v5.92c0 2.96 2.96 5.92 5.92 5.92h45.41c2.96 0 5.92-2.96 5.92-5.92v-5.92c0-2.96-2.96-5.92-5.92-5.92"/>
<text xml:space="preserve" x="474.75" y="-727.33" font-family="Helvetica,sans-Serif" font-size="9">cache.mjs</text>
</a></g><g class="node"><title>src/extract/transpile/meta.mjs</title><a xlink:href="src/extract/transpile/meta.mjs" xlink:title="meta.mjs">
<path fill="#ffc" stroke="#000" d="M644.96-767.88h-42.17c-2.96 0-5.91 2.96-5.91 5.92v5.92c0 2.96 2.95 5.92 5.91 5.92h42.17c2.96 0 5.92-2.96 5.92-5.92v-5.92c0-2.96-2.96-5.92-5.92-5.92"/>
<text xml:space="preserve" x="605.5" y="-755.33" font-family="Helvetica,sans-Serif" font-size="9">meta.mjs</text>
</a></g><g class="edge"><title>src/cache/cache.mjs-&gt;src/extract/transpile/meta.mjs</title><path fill="none" stroke="#000" stroke-opacity=".2" stroke-width="2" d="M524.23-733.96H633v-6.69"/><path fill-opacity=".2" stroke="#000" stroke-opacity=".2" stroke-width="2" d="m630.9-740.65 2.1-6 2.1 6z"/></g><g class="node"><title>src/utl/bus.mjs</title><a xlink:href="src/utl/bus.mjs" xlink:title="bus.mjs">
<path fill="#ffc" stroke="#000" d="M910.96-688.88h-42.17c-2.96 0-5.91 2.96-5.91 5.92v5.92c0 2.96 2.95 5.92 5.91 5.92h42.17c2.96 0 5.92-2.96 5.92-5.92v-5.92c0-2.96-2.96-5.92-5.92-5.92"/>
<text xml:space="preserve" x="874.12" y="-676.33" font-family="Helvetica,sans-Serif" font-size="9">bus.mjs</text>
</a></g><g class="edge"><title>src/cache/cache.mjs-&gt;src/utl/bus.mjs</title><path fill="none" stroke="#000" stroke-opacity=".2" stroke-width="2" d="M524.36-728.04H881v29.75"/><path fill-opacity=".2" stroke="#000" stroke-opacity=".2" stroke-width="2" d="m883.1-698.29-2.1 6-2.1-6z"/></g><g class="node"><title>src/cli/format-meta-info.mjs</title><a xlink:href="src/cli/format-meta-info.mjs" xlink:title="format-meta-info.mjs">
<path fill="#ffc" stroke="#000" d="M188.33-463.88h-87.41c-2.96 0-5.92 2.96-5.92 5.92v5.92c0 2.96 2.96 5.92 5.92 5.92h87.41c2.96 0 5.92-2.96 5.92-5.92v-5.92c0-2.96-2.96-5.92-5.92-5.92"/>
<text xml:space="preserve" x="103" y="-451.32" font-family="Helvetica,sans-Serif" font-size="9">format-meta-info.mjs</text>
</a></g><g class="node"><title>src/main/index.mjs</title><a xlink:href="src/main/index.mjs" xlink:title="index.mjs">
<path fill="#0f0" stroke="#000" d="M267.33-463.88h-43.16c-2.96 0-5.92 2.96-5.92 5.92v5.92c0 2.96 2.96 5.92 5.92 5.92h43.16c2.96 0 5.92-2.96 5.92-5.92v-5.92c0-2.96-2.96-5.92-5.92-5.92"/>
<text xml:space="preserve" x="226.25" y="-451.32" font-family="Helvetica,sans-Serif" font-size="9">index.mjs</text>
</a></g><g class="edge"><title>src/cli/format-meta-info.mjs-&gt;src/main/index.mjs</title><path fill="none" stroke="#000" stroke-opacity=".2" stroke-width="2" d="M194.59-455h14.4"/><path fill-opacity=".2" stroke="#000" stroke-opacity=".2" stroke-width="2" d="m208.99-457.1 6 2.1-6 2.1z"/></g><g class="edge"><title>src/main/index.mjs-&gt;src/extract/transpile/meta.mjs</title><path fill="none" stroke="#000" stroke-opacity=".2" stroke-width="2" d="M273.7-456.54H301v-305.42h286.6"/><path fill-opacity=".2" stroke="#000" stroke-opacity=".2" stroke-width="2" d="m587.6-764.06 6 2.1-6 2.1z"/></g><g class="node"><title>src/main/format.mjs</title><a xlink:href="src/main/format.mjs" xlink:title="format.mjs">
<path fill="#0f0" stroke="#000" d="M518.46-335.88h-46.17c-2.96 0-5.91 2.96-5.91 5.92v5.92c0 2.96 2.95 5.92 5.91 5.92h46.17c2.96 0 5.92-2.96 5.92-5.92v-5.92c0-2.96-2.96-5.92-5.92-5.92"/>
<text xml:space="preserve" x="474.38" y="-323.32" font-family="Helvetica,sans-Serif" font-size="9">format.mjs</text>
</a></g><g class="edge"><title>src/main/index.mjs-&gt;src/main/format.mjs</title><path fill="none" stroke="#000" stroke-opacity=".2" stroke-width="2" d="M237-446.01v116.05h220.21"/><path fill-opacity=".2" stroke="#000" stroke-opacity=".2" stroke-width="2" d="m457.21-332.06 6 2.1-6 2.1z"/></g><g class="node"><title>src/main/cruise.mjs</title><a xlink:href="src/main/cruise.mjs" xlink:title="cruise.mjs">
<path fill="#0f0" stroke="#000" d="M380.33-452.88h-45.41c-2.96 0-5.92 2.96-5.92 5.92v5.92c0 2.96 2.96 5.92 5.92 5.92h45.41c2.96 0 5.92-2.96 5.92-5.92v-5.92c0-2.96-2.96-5.92-5.92-5.92"/>
<text xml:space="preserve" x="337" y="-440.32" font-family="Helvetica,sans-Serif" font-size="9">cruise.mjs</text>
</a></g><g class="edge"><title>src/main/index.mjs-&gt;src/main/cruise.mjs</title><path fill="none" stroke="#000" stroke-opacity=".2" stroke-width="2" d="M255-445.89v3.43h64.74"/><path fill-opacity=".2" stroke="#000" stroke-opacity=".2" stroke-width="2" d="m319.74-444.56 6 2.1-6 2.1z"/></g><g class="node"><title>src/cli/format.mjs</title><a xlink:href="src/cli/format.mjs" xlink:title="format.mjs">
<path fill="#ffc" stroke="#000" d="M76.08-433.88H29.92c-2.96 0-5.92 2.96-5.92 5.92v5.92c0 2.96 2.96 5.92 5.92 5.92h46.16c2.96 0 5.92-2.96 5.92-5.92v-5.92c0-2.96-2.96-5.92-5.92-5.92"/>
<text xml:space="preserve" x="32" y="-421.32" font-family="Helvetica,sans-Serif" font-size="9">format.mjs</text>
</a></g><g class="edge"><title>src/cli/format.mjs-&gt;src/main/format.mjs</title><path fill="none" stroke="#000" stroke-opacity=".2" stroke-width="2" d="M53-415.68v91.64h403.98"/><path fill-opacity=".2" stroke="#000" stroke-opacity=".2" stroke-width="2" d="m456.98-326.14 6 2.1-6 2.1z"/></g><g class="node"><title>src/main/options/assert-validity.mjs</title><a xlink:href="src/main/options/assert-validity.mjs" xlink:title="assert-validity.mjs">
<path fill="#0f0" stroke="#000" d="M662.33-420.88h-76.91c-2.96 0-5.92 2.96-5.92 5.92v5.92c0 2.96 2.96 5.92 5.92 5.92h76.91c2.96 0 5.92-2.96 5.92-5.92v-5.92c0-2.96-2.96-5.92-5.92-5.92"/>
<text xml:space="preserve" x="587.5" y="-408.32" font-family="Helvetica,sans-Serif" font-size="9">assert-validity.mjs</text>
</a></g><g class="edge"><title>src/main/format.mjs-&gt;src/main/options/assert-validity.mjs</title><path fill="none" stroke="#000" stroke-opacity=".2" stroke-width="2" d="M524.74-333.34H557v-74.12h13.24"/><path fill-opacity=".2" stroke="#000" stroke-opacity=".2" stroke-width="2" d="m570.24-409.56 6 2.1-6 2.1z"/></g><g class="node"><title>src/main/options/normalize.mjs</title><a xlink:href="src/main/options/normalize.mjs" xlink:title="normalize.mjs">
<path fill="#0f0" stroke="#000" d="M654.46-390.88h-61.17c-2.96 0-5.91 2.96-5.91 5.92v5.92c0 2.96 2.95 5.92 5.91 5.92h61.17c2.96 0 5.92-2.96 5.92-5.92v-5.92c0-2.96-2.96-5.92-5.92-5.92"/>
<text xml:space="preserve" x="595.38" y="-378.32" font-family="Helvetica,sans-Serif" font-size="9">normalize.mjs</text>
</a></g><g class="edge"><title>src/main/format.mjs-&gt;src/main/options/normalize.mjs</title><path fill="none" stroke="#000" stroke-opacity=".2" stroke-width="2" d="M524.66-330.8H560v-48.24h18.06"/><path fill-opacity=".2" stroke="#000" stroke-opacity=".2" stroke-width="2" d="m578.06-381.14 6 2.1-6 2.1z"/></g><g class="node"><title>src/main/report-wrap.mjs</title><a xlink:href="src/main/report-wrap.mjs" xlink:title="report-wrap.mjs">
<path fill="#0f0" stroke="#000" d="M657.83-335.88h-67.91c-2.96 0-5.92 2.96-5.92 5.92v5.92c0 2.96 2.96 5.92 5.92 5.92h67.91c2.96 0 5.92-2.96 5.92-5.92v-5.92c0-2.96-2.96-5.92-5.92-5.92"/>
<text xml:space="preserve" x="592" y="-323.32" font-family="Helvetica,sans-Serif" font-size="9">report-wrap.mjs</text>
</a></g><g class="edge"><title>src/main/format.mjs-&gt;src/main/report-wrap.mjs</title><path fill="none" stroke="#000" stroke-opacity=".2" stroke-width="2" d="M524.86-325.73h49.93"/><path fill-opacity=".2" stroke="#000" stroke-opacity=".2" stroke-width="2" d="m574.79-327.83 6 2.1-6 2.1z"/></g><g class="node"><title>src/schema/cruise-result.validate.mjs</title><a xlink:href="src/schema/cruise-result.validate.mjs" xlink:title="cruise-result.validate.mjs">
<path fill="#ffc" stroke="#000" d="M676.58-185.88H571.17c-2.96 0-5.92 2.96-5.92 5.92v5.92c0 2.96 2.96 5.92 5.92 5.92h105.41c2.96 0 5.92-2.96 5.92-5.92v-5.92c0-2.96-2.96-5.92-5.92-5.92"/>
<text xml:space="preserve" x="573.25" y="-173.32" font-family="Helvetica,sans-Serif" font-size="9">cruise-result.validate.mjs</text>
</a></g><g class="edge"><title>src/main/format.mjs-&gt;src/schema/cruise-result.validate.mjs</title><path fill="none" stroke="#000" stroke-opacity=".2" stroke-width="2" d="M524.78-323.2H572v128.03"/><path fill-opacity=".2" stroke="#000" stroke-opacity=".2" stroke-width="2" d="m574.1-195.17-2.1 6-2.1-6z"/></g><g class="node"><title>src/schema/utl.mjs</title><a xlink:href="src/schema/utl.mjs" xlink:title="utl.mjs">
<path fill="#ffc" stroke="#000" d="M644.96-155.88h-42.17c-2.96 0-5.91 2.96-5.91 5.92v5.92c0 2.96 2.95 5.92 5.91 5.92h42.17c2.96 0 5.92-2.96 5.92-5.92v-5.92c0-2.96-2.96-5.92-5.92-5.92"/>
<text xml:space="preserve" x="610.75" y="-143.32" font-family="Helvetica,sans-Serif" font-size="9">utl.mjs</text>
</a></g><g class="edge"><title>src/main/format.mjs-&gt;src/schema/utl.mjs</title><path fill="none" stroke="#000" stroke-opacity=".2" stroke-width="2" d="M524.61-320.66H550v169.37h37.76"/><path fill-opacity=".2" stroke="#000" stroke-opacity=".2" stroke-width="2" d="m587.76-153.39 6 2.1-6 2.1z"/></g><g class="node"><title>src/cli/index.mjs</title><a xlink:href="src/cli/index.mjs" xlink:title="index.mjs">
<path fill="#ffc" stroke="#000" d="M74.58-463.88H31.42c-2.96 0-5.92 2.96-5.92 5.92v5.92c0 2.96 2.96 5.92 5.92 5.92h43.16c2.96 0 5.92-2.96 5.92-5.92v-5.92c0-2.96-2.96-5.92-5.92-5.92"/>
<text xml:space="preserve" x="33.5" y="-451.32" font-family="Helvetica,sans-Serif" font-size="9">index.mjs</text>
</a></g><g class="edge"><title>src/cli/index.mjs-&gt;src/utl/bus.mjs</title><path fill="none" stroke="#000" stroke-opacity=".2" stroke-width="2" d="M44-464.36v-221.98h809.66"/><path fill-opacity=".2" stroke="#000" stroke-opacity=".2" stroke-width="2" d="m853.66-688.44 6 2.1-6 2.1z"/></g><g class="edge"><title>src/cli/index.mjs-&gt;src/cli/format-meta-info.mjs</title><path fill="none" stroke="#000" stroke-dasharray="5,2" stroke-opacity=".2" stroke-width="2" d="M80.99-455h4.82"/><path fill-opacity=".2" stroke="#000" stroke-opacity=".2" stroke-width="2" d="m85.81-457.1 6 2.1-6 2.1z"/></g><g class="edge"><title>src/cli/index.mjs-&gt;src/main/cruise.mjs</title><path fill="none" stroke="#000" stroke-opacity=".2" stroke-width="2" d="M53-445.76v6.97h266.66"/><path fill-opacity=".2" stroke="#000" stroke-opacity=".2" stroke-width="2" d="m319.66-440.89 6 2.1-6 2.1z"/></g><g class="node"><title>src/utl/object-util.mjs</title><a xlink:href="src/utl/object-util.mjs" xlink:title="object-util.mjs">
<path fill="#ffc" stroke="#000" d="M920.08-658.88h-60.41c-2.96 0-5.92 2.96-5.92 5.92v5.92c0 2.96 2.96 5.92 5.92 5.92h60.41c2.96 0 5.92-2.96 5.92-5.92v-5.92c0-2.96-2.96-5.92-5.92-5.92"/>
<text xml:space="preserve" x="861.75" y="-646.33" font-family="Helvetica,sans-Serif" font-size="9">object-util.mjs</text>
</a></g><g class="edge"><title>src/cli/index.mjs-&gt;src/utl/object-util.mjs</title><path fill="none" stroke="#000" stroke-opacity=".2" stroke-width="2" d="M62-464.35v-190.09h782.48"/><path fill-opacity=".2" stroke="#000" stroke-opacity=".2" stroke-width="2" d="m844.48-656.54 6 2.1-6 2.1z"/></g><g class="edge"><title>src/main/cruise.mjs-&gt;src/cache/cache.mjs</title><path fill="none" stroke="#000" stroke-dasharray="5,2" stroke-opacity=".2" stroke-width="2" d="M345-453.22V-731h112.35"/><path fill-opacity=".2" stroke="#000" stroke-opacity=".2" stroke-width="2" d="m457.35-733.1 6 2.1-6 2.1z"/></g><g class="edge"><title>src/main/cruise.mjs-&gt;src/utl/bus.mjs</title><path fill="none" stroke="#000" stroke-opacity=".2" stroke-width="2" d="M354-453.11V-683.8h499.54"/><path fill-opacity=".2" stroke="#000" stroke-opacity=".2" stroke-width="2" d="m853.54-685.9 6 2.1-6 2.1z"/></g><g class="node"><title>src/main/resolve-options/normalize.mjs</title><a xlink:href="src/main/resolve-options/normalize.mjs" xlink:title="normalize.mjs">
<path fill="#0f0" stroke="#000" d="M525.96-369.88h-61.17c-2.96 0-5.91 2.96-5.91 5.92v5.92c0 2.96 2.95 5.92 5.91 5.92h61.17c2.96 0 5.92-2.96 5.92-5.92v-5.92c0-2.96-2.96-5.92-5.92-5.92"/>
<text xml:space="preserve" x="466.88" y="-357.32" font-family="Helvetica,sans-Serif" font-size="9">normalize.mjs</text>
</a></g><g class="edge"><title>src/main/cruise.mjs-&gt;src/main/resolve-options/normalize.mjs</title><path fill="none" stroke="#000" stroke-dasharray="5,2" stroke-opacity=".2" stroke-width="2" d="M363-434.82v70.86h86.47"/><path fill-opacity=".2" stroke="#000" stroke-opacity=".2" stroke-width="2" d="m449.47-366.06 6 2.1-6 2.1z"/></g><g class="node"><title>src/enrich/index.mjs</title><a xlink:href="src/enrich/index.mjs" xlink:title="index.mjs">
<path fill="#ffc" stroke="#000" d="M645.46-621.88h-43.17c-2.96 0-5.91 2.96-5.91 5.92v5.92c0 2.96 2.95 5.92 5.91 5.92h43.17c2.96 0 5.92-2.96 5.92-5.92v-5.92c0-2.96-2.96-5.92-5.92-5.92"/>
<text xml:space="preserve" x="604.38" y="-609.33" font-family="Helvetica,sans-Serif" font-size="9">index.mjs</text>
</a></g><g class="edge"><title>src/main/cruise.mjs-&gt;src/enrich/index.mjs</title><path fill="none" stroke="#000" stroke-dasharray="5,2" stroke-opacity=".2" stroke-width="2" d="M362-453.09V-613h225.32"/><path fill-opacity=".2" stroke="#000" stroke-opacity=".2" stroke-width="2" d="m587.32-615.1 6 2.1-6 2.1z"/></g><g class="node"><title>src/extract/index.mjs</title><a xlink:href="src/extract/index.mjs" xlink:title="index.mjs">
<path fill="#ffc" stroke="#000" d="M645.46-819.88h-43.17c-2.96 0-5.91 2.96-5.91 5.92v5.92c0 2.96 2.95 5.92 5.91 5.92h43.17c2.96 0 5.92-2.96 5.92-5.92v-5.92c0-2.96-2.96-5.92-5.92-5.92"/>
<text xml:space="preserve" x="604.38" y="-807.33" font-family="Helvetica,sans-Serif" font-size="9">index.mjs</text>
</a></g><g class="edge"><title>src/main/cruise.mjs-&gt;src/extract/index.mjs</title><path fill="none" stroke="#000" stroke-dasharray="5,2" stroke-opacity=".2" stroke-width="2" d="M337-453.07V-811h250.08"/><path fill-opacity=".2" stroke="#000" stroke-opacity=".2" stroke-width="2" d="m587.08-813.1 6 2.1-6 2.1z"/></g><g class="node"><title>src/utl/regex-util.mjs</title><a xlink:href="src/utl/regex-util.mjs" xlink:title="regex-util.mjs">
<path fill="#ffc" stroke="#000" d="M919.33-598.88h-58.91c-2.96 0-5.92 2.96-5.92 5.92v5.92c0 2.96 2.96 5.92 5.92 5.92h58.91c2.96 0 5.92-2.96 5.92-5.92v-5.92c0-2.96-2.96-5.92-5.92-5.92"/>
<text xml:space="preserve" x="862.5" y="-586.33" font-family="Helvetica,sans-Serif" font-size="9">regex-util.mjs</text>
</a></g><g class="edge"><title>src/main/cruise.mjs-&gt;src/utl/regex-util.mjs</title><path fill="none" stroke="#000" stroke-opacity=".2" stroke-width="2" d="M370-453.32v-139.64h475.11"/><path fill-opacity=".2" stroke="#000" stroke-opacity=".2" stroke-width="2" d="m845.11-595.06 6 2.1-6 2.1z"/></g><g class="node"><title>src/main/files-and-dirs/normalize.mjs</title><a xlink:href="src/main/files-and-dirs/normalize.mjs" xlink:title="normalize.mjs">
<path fill="#0f0" stroke="#000" d="M525.96-467.88h-61.17c-2.96 0-5.91 2.96-5.91 5.92v5.92c0 2.96 2.95 5.92 5.91 5.92h61.17c2.96 0 5.92-2.96 5.92-5.92v-5.92c0-2.96-2.96-5.92-5.92-5.92"/>
<text xml:space="preserve" x="466.88" y="-455.32" font-family="Helvetica,sans-Serif" font-size="9">normalize.mjs</text>
</a></g><g class="edge"><title>src/main/cruise.mjs-&gt;src/main/files-and-dirs/normalize.mjs</title><path fill="none" stroke="#000" stroke-dasharray="5,2" stroke-opacity=".2" stroke-width="2" d="M378-453.24v-6.97h71.53"/><path fill-opacity=".2" stroke="#000" stroke-opacity=".2" stroke-width="2" d="m449.53-462.31 6 2.1-6 2.1z"/></g><g class="edge"><title>src/main/cruise.mjs-&gt;src/main/options/assert-validity.mjs</title><path fill="none" stroke="#000" stroke-opacity=".2" stroke-width="2" d="M386.34-446.38H588v16.32"/><path fill-opacity=".2" stroke="#000" stroke-opacity=".2" stroke-width="2" d="m590.1-430.06-2.1 6-2.1-6z"/></g><g class="edge"><title>src/main/cruise.mjs-&gt;src/main/options/normalize.mjs</title><path fill="none" stroke="#000" stroke-opacity=".2" stroke-width="2" d="M374-434.77v49.81h203.98"/><path fill-opacity=".2" stroke="#000" stroke-opacity=".2" stroke-width="2" d="m577.98-387.06 6 2.1-6 2.1z"/></g><g class="edge"><title>src/main/cruise.mjs-&gt;src/main/report-wrap.mjs</title><path fill="none" stroke="#000" stroke-opacity=".2" stroke-width="2" d="M386.45-442.62H553v114.35h21.85"/><path fill-opacity=".2" stroke="#000" stroke-opacity=".2" stroke-width="2" d="m574.85-330.37 6 2.1-6 2.1z"/></g><g class="node"><title>src/main/rule-set/assert-validity.mjs</title><a xlink:href="src/main/rule-set/assert-validity.mjs" xlink:title="assert-validity.mjs">
<path fill="#0f0" stroke="#000" d="M533.83-283.88h-76.91c-2.96 0-5.92 2.96-5.92 5.92v5.92c0 2.96 2.96 5.92 5.92 5.92h76.91c2.96 0 5.92-2.96 5.92-5.92v-5.92c0-2.96-2.96-5.92-5.92-5.92"/>
<text xml:space="preserve" x="459" y="-271.32" font-family="Helvetica,sans-Serif" font-size="9">assert-validity.mjs</text>
</a></g><g class="edge"><title>src/main/cruise.mjs-&gt;src/main/rule-set/assert-validity.mjs</title><path fill="none" stroke="#000" stroke-dasharray="5,2" stroke-opacity=".2" stroke-width="2" d="M386.54-438.88H454v145.57"/><path fill-opacity=".2" stroke="#000" stroke-opacity=".2" stroke-width="2" d="m456.1-293.31-2.1 6-2.1-6z"/></g><g class="node"><title>src/main/rule-set/normalize.mjs</title><a xlink:href="src/main/rule-set/normalize.mjs" xlink:title="normalize.mjs">
<path fill="#0f0" stroke="#000" d="M525.96-253.88h-61.17c-2.96 0-5.91 2.96-5.91 5.92v5.92c0 2.96 2.95 5.92 5.91 5.92h61.17c2.96 0 5.92-2.96 5.92-5.92v-5.92c0-2.96-2.96-5.92-5.92-5.92"/>
<text xml:space="preserve" x="466.88" y="-241.32" font-family="Helvetica,sans-Serif" font-size="9">normalize.mjs</text>
</a></g><g class="edge"><title>src/main/cruise.mjs-&gt;src/main/rule-set/normalize.mjs</title><path fill="none" stroke="#000" stroke-dasharray="5,2" stroke-opacity=".2" stroke-width="2" d="M352-434.67V-245h97.43"/><path fill-opacity=".2" stroke="#000" stroke-opacity=".2" stroke-width="2" d="m449.43-247.1 6 2.1-6 2.1z"/></g><g class="node"><title>src/config-utl/extract-depcruise-config/index.mjs</title><a xlink:href="src/config-utl/extract-depcruise-config/index.mjs" xlink:title="index.mjs">
<path fill="#ffc" stroke="#000" d="M379.21-159.88h-43.17c-2.96 0-5.92 2.96-5.92 5.92v5.92c0 2.96 2.96 5.92 5.92 5.92h43.17c2.96 0 5.91-2.96 5.91-5.92v-5.92c0-2.96-2.95-5.92-5.91-5.92"/>
<text xml:space="preserve" x="338.12" y="-147.32" font-family="Helvetica,sans-Serif" font-size="9">index.mjs</text>
</a></g><g class="edge"><title>src/config-utl/extract-depcruise-config/index.mjs-&gt;src/main/resolve-options/normalize.mjs</title><path fill="none" stroke="#000" stroke-opacity=".2" stroke-width="2" d="M341-160.16v-197.88h108.37"/><path fill-opacity=".2" stroke="#000" stroke-opacity=".2" stroke-width="2" d="m449.37-360.14 6 2.1-6 2.1z"/></g><g class="edge"><title>src/main/resolve-options/normalize.mjs-&gt;src/extract/transpile/meta.mjs</title><path fill="none" stroke="#000" stroke-opacity=".2" stroke-width="2" d="M531.95-365.54H543v-390.5h44.47"/><path fill-opacity=".2" stroke="#000" stroke-opacity=".2" stroke-width="2" d="m587.47-758.14 6 2.1-6 2.1z"/></g><g class="node"><title>src/graph-utl/rule-set.mjs</title><a xlink:href="src/graph-utl/rule-set.mjs" xlink:title="rule-set.mjs">
<path fill="#ffc" stroke="#000" d="M794.58-65.88h-51.41c-2.96 0-5.92 2.96-5.92 5.92v5.92c0 2.96 2.96 5.92 5.92 5.92h51.41c2.96 0 5.92-2.96 5.92-5.92v-5.92c0-2.96-2.96-5.92-5.92-5.92"/>
<text xml:space="preserve" x="745.25" y="-53.33" font-family="Helvetica,sans-Serif" font-size="9">rule-set.mjs</text>
</a></g><g class="edge"><title>src/main/resolve-options/normalize.mjs-&gt;src/graph-utl/rule-set.mjs</title><path fill="none" stroke="#000" stroke-opacity=".2" stroke-width="2" d="M532.25-361.21H689V-57h38.82"/><path fill-opacity=".2" stroke="#000" stroke-opacity=".2" stroke-width="2" d="m727.82-59.1 6 2.1-6 2.1z"/></g><g class="edge"><title>src/enrich/index.mjs-&gt;src/utl/bus.mjs</title><path fill="none" stroke="#000" stroke-opacity=".2" stroke-width="2" d="M615-622.32v-53.88h238.49"/><path fill-opacity=".2" stroke="#000" stroke-opacity=".2" stroke-width="2" d="m853.49-678.3 6 2.1-6 2.1z"/></g><g class="node"><title>src/enrich/summarize/index.mjs</title><a xlink:href="src/enrich/summarize/index.mjs" xlink:title="index.mjs">
<path fill="#ffc" stroke="#000" d="M790.46-621.88h-43.17c-2.96 0-5.91 2.96-5.91 5.92v5.92c0 2.96 2.95 5.92 5.91 5.92h43.17c2.96 0 5.92-2.96 5.92-5.92v-5.92c0-2.96-2.96-5.92-5.92-5.92"/>
<text xml:space="preserve" x="749.38" y="-609.33" font-family="Helvetica,sans-Serif" font-size="9">index.mjs</text>
</a></g><g class="edge"><title>src/enrich/index.mjs-&gt;src/enrich/summarize/index.mjs</title><path fill="none" stroke="#000" stroke-opacity=".2" stroke-width="2" d="M651.83-615.96h80.15"/><path fill-opacity=".2" stroke="#000" stroke-opacity=".2" stroke-width="2" d="m731.98-618.06 6 2.1-6 2.1z"/></g><g class="node"><title>src/graph-utl/compare.mjs</title><a xlink:href="src/graph-utl/compare.mjs" xlink:title="compare.mjs">
<path fill="#ffc" stroke="#000" d="M797.21-155.88h-56.67c-2.96 0-5.92 2.96-5.92 5.92v5.92c0 2.96 2.96 5.92 5.92 5.92h56.67c2.96 0 5.91-2.96 5.91-5.92v-5.92c0-2.96-2.95-5.92-5.91-5.92"/>
<text xml:space="preserve" x="742.62" y="-143.32" font-family="Helvetica,sans-Serif" font-size="9">compare.mjs</text>
</a></g><g class="edge"><title>src/enrich/summarize/index.mjs-&gt;src/graph-utl/compare.mjs</title><path fill="none" stroke="#000" stroke-opacity=".2" stroke-width="2" d="M796.59-607.62H838V-147h-25.54"/><path fill-opacity=".2" stroke="#000" stroke-opacity=".2" stroke-width="2" d="m812.46-144.9-6-2.1 6-2.1z"/></g><g class="edge"><title>src/extract/index.mjs-&gt;src/utl/bus.mjs</title><path fill="none" stroke="#000" stroke-opacity=".2" stroke-width="2" d="M651.77-811H899v112.97"/><path fill-opacity=".2" stroke="#000" stroke-opacity=".2" stroke-width="2" d="m901.1-698.03-2.1 6-2.1-6z"/></g><g class="node"><title>src/graph-utl/consolidate-to-pattern.mjs</title><a xlink:href="src/graph-utl/consolidate-to-pattern.mjs" xlink:title="consolidate-to-pattern.mjs">
<path fill="#ffc" stroke="#000" d="M823.83-185.88H713.92c-2.96 0-5.92 2.96-5.92 5.92v5.92c0 2.96 2.96 5.92 5.92 5.92h109.91c2.96 0 5.92-2.96 5.92-5.92v-5.92c0-2.96-2.96-5.92-5.92-5.92"/>
<text xml:space="preserve" x="716" y="-173.32" font-family="Helvetica,sans-Serif" font-size="9">consolidate-to-pattern.mjs</text>
</a></g><g class="edge"><title>src/graph-utl/consolidate-to-pattern.mjs-&gt;src/utl/regex-util.mjs</title><path fill="none" stroke="#000" stroke-opacity=".2" stroke-width="2" d="M815-186.33v-400.71h30.16"/><path fill-opacity=".2" stroke="#000" stroke-opacity=".2" stroke-width="2" d="m845.16-589.14 6 2.1-6 2.1z"/></g><g class="node"><title>src/graph-utl/filter-bank.mjs</title><a xlink:href="src/graph-utl/filter-bank.mjs" xlink:title="filter-bank.mjs">
<path fill="#ffc" stroke="#000" d="M799.46-95.88h-61.17c-2.96 0-5.91 2.96-5.91 5.92v5.92c0 2.96 2.95 5.92 5.91 5.92h61.17c2.96 0 5.92-2.96 5.92-5.92v-5.92c0-2.96-2.96-5.92-5.92-5.92"/>
<text xml:space="preserve" x="740.38" y="-83.33" font-family="Helvetica,sans-Serif" font-size="9">filter-bank.mjs</text>
</a></g><g class="node"><title>src/graph-utl/strip-self-transitions.mjs</title><a xlink:href="src/graph-utl/strip-self-transitions.mjs" xlink:title="strip-self-transitions.mjs">
<path fill="#ffc" stroke="#000" d="M818.96-125.88H718.79c-2.96 0-5.91 2.96-5.91 5.92v5.92c0 2.96 2.95 5.92 5.91 5.92h100.17c2.96 0 5.92-2.96 5.92-5.92v-5.92c0-2.96-2.96-5.92-5.92-5.92"/>
<text xml:space="preserve" x="720.88" y="-113.33" font-family="Helvetica,sans-Serif" font-size="9">strip-self-transitions.mjs</text>
</a></g><g class="node"><title>src/report/index.mjs</title><a xlink:href="src/report/index.mjs" xlink:title="index.mjs">
<path fill="#ffc" stroke="#000" d="M790.46-553.88h-43.17c-2.96 0-5.91 2.96-5.91 5.92v5.92c0 2.96 2.95 5.92 5.91 5.92h43.17c2.96 0 5.92-2.96 5.92-5.92v-5.92c0-2.96-2.96-5.92-5.92-5.92"/>
<text xml:space="preserve" x="749.38" y="-541.33" font-family="Helvetica,sans-Serif" font-size="9">index.mjs</text>
</a></g><g class="edge"><title>src/main/options/assert-validity.mjs-&gt;src/report/index.mjs</title><path fill="none" stroke="#000" stroke-opacity=".2" stroke-width="2" d="M660-421.34v-126.62h72.09"/><path fill-opacity=".2" stroke="#000" stroke-opacity=".2" stroke-width="2" d="m732.09-550.06 6 2.1-6 2.1z"/></g><g class="node"><title>src/main/helpers.mjs</title><a xlink:href="src/main/helpers.mjs" xlink:title="helpers.mjs">
<path fill="#0f0" stroke="#000" d="M794.58-356.88h-51.41c-2.96 0-5.92 2.96-5.92 5.92v5.92c0 2.96 2.96 5.92 5.92 5.92h51.41c2.96 0 5.92-2.96 5.92-5.92v-5.92c0-2.96-2.96-5.92-5.92-5.92"/>
<text xml:space="preserve" x="745.25" y="-344.32" font-family="Helvetica,sans-Serif" font-size="9">helpers.mjs</text>
</a></g><g class="edge"><title>src/main/options/normalize.mjs-&gt;src/main/helpers.mjs</title><path fill="none" stroke="#000" stroke-opacity=".2" stroke-width="2" d="M624-372.65v24.86h104.05"/><path fill-opacity=".2" stroke="#000" stroke-opacity=".2" stroke-width="2" d="m728.05-349.89 6 2.1-6 2.1z"/></g><g class="node"><title>src/main/options/defaults.mjs</title><a xlink:href="src/main/options/defaults.mjs" xlink:title="defaults.mjs">
<path fill="#0f0" stroke="#000" d="M795.33-390.88h-52.91c-2.96 0-5.92 2.96-5.92 5.92v5.92c0 2.96 2.96 5.92 5.92 5.92h52.91c2.96 0 5.92-2.96 5.92-5.92v-5.92c0-2.96-2.96-5.92-5.92-5.92"/>
<text xml:space="preserve" x="744.5" y="-378.32" font-family="Helvetica,sans-Serif" font-size="9">defaults.mjs</text>
</a></g><g class="edge"><title>src/main/options/normalize.mjs-&gt;src/main/options/defaults.mjs</title><path fill="none" stroke="#000" stroke-opacity=".2" stroke-width="2" d="M660.84-379.04h66.55"/><path fill-opacity=".2" stroke="#000" stroke-opacity=".2" stroke-width="2" d="m727.39-381.14 6 2.1-6 2.1z"/></g><g class="node"><title>src/utl/array-util.mjs</title><a xlink:href="src/utl/array-util.mjs" xlink:title="array-util.mjs">
<path fill="#ffc" stroke="#000" d="M918.21-628.88h-56.67c-2.96 0-5.92 2.96-5.92 5.92v5.92c0 2.96 2.96 5.92 5.92 5.92h56.67c2.96 0 5.91-2.96 5.91-5.92v-5.92c0-2.96-2.95-5.92-5.91-5.92"/>
<text xml:space="preserve" x="863.62" y="-616.33" font-family="Helvetica,sans-Serif" font-size="9">array-util.mjs</text>
</a></g><g class="edge"><title>src/main/options/normalize.mjs-&gt;src/utl/array-util.mjs</title><path fill="none" stroke="#000" stroke-opacity=".2" stroke-width="2" d="M660.73-384.96H692v-240.42h154.38"/><path fill-opacity=".2" stroke="#000" stroke-opacity=".2" stroke-width="2" d="m846.38-627.48 6 2.1-6 2.1z"/></g><g class="edge"><title>src/main/report-wrap.mjs-&gt;src/utl/bus.mjs</title><path fill="none" stroke="#000" stroke-opacity=".2" stroke-width="2" d="M664.21-333.66H687v-340h166.49"/><path fill-opacity=".2" stroke="#000" stroke-opacity=".2" stroke-width="2" d="m853.49-675.76 6 2.1-6 2.1z"/></g><g class="edge"><title>src/main/report-wrap.mjs-&gt;src/enrich/summarize/index.mjs</title><path fill="none" stroke="#000" stroke-opacity=".2" stroke-width="2" d="M664.01-331.44H695v-278.6h36.92"/><path fill-opacity=".2" stroke="#000" stroke-opacity=".2" stroke-width="2" d="m731.92-612.14 6 2.1-6 2.1z"/></g><g class="edge"><title>src/main/report-wrap.mjs-&gt;src/graph-utl/compare.mjs</title><path fill="none" stroke="#000" stroke-opacity=".2" stroke-width="2" d="M663.96-324.78H705V-147h20.29"/><path fill-opacity=".2" stroke="#000" stroke-opacity=".2" stroke-width="2" d="m725.29-149.1 6 2.1-6 2.1z"/></g><g class="edge"><title>src/main/report-wrap.mjs-&gt;src/graph-utl/consolidate-to-pattern.mjs</title><path fill="none" stroke="#000" stroke-opacity=".2" stroke-width="2" d="M664.07-327H722v132.04"/><path fill-opacity=".2" stroke="#000" stroke-opacity=".2" stroke-width="2" d="m724.1-194.96-2.1 6-2.1-6z"/></g><g class="edge"><title>src/main/report-wrap.mjs-&gt;src/graph-utl/filter-bank.mjs</title><path fill="none" stroke="#000" stroke-opacity=".2" stroke-width="2" d="M663.86-320.34H697V-87h26.07"/><path fill-opacity=".2" stroke="#000" stroke-opacity=".2" stroke-width="2" d="m723.07-89.1 6 2.1-6 2.1z"/></g><g class="edge"><title>src/main/report-wrap.mjs-&gt;src/graph-utl/strip-self-transitions.mjs</title><path fill="none" stroke="#000" stroke-opacity=".2" stroke-width="2" d="M663.9-322.56H703V-117h.94"/><path fill-opacity=".2" stroke="#000" stroke-opacity=".2" stroke-width="2" d="m703.41-119.1 6 2.1-6 2.1z"/></g><g class="edge"><title>src/main/report-wrap.mjs-&gt;src/report/index.mjs</title><path fill="none" stroke="#000" stroke-opacity=".2" stroke-width="2" d="M664.17-329.22H700v-212.82h32.23"/><path fill-opacity=".2" stroke="#000" stroke-opacity=".2" stroke-width="2" d="m732.23-544.14 6 2.1-6 2.1z"/></g><g class="edge"><title>src/main/rule-set/assert-validity.mjs-&gt;src/utl/bus.mjs</title><path fill="none" stroke="#000" stroke-opacity=".2" stroke-width="2" d="M456-284.25v-397.02h397.38"/><path fill-opacity=".2" stroke="#000" stroke-opacity=".2" stroke-width="2" d="m853.38-683.37 6 2.1-6 2.1z"/></g><g class="edge"><title>src/main/rule-set/assert-validity.mjs-&gt;src/utl/object-util.mjs</title><path fill="none" stroke="#000" stroke-opacity=".2" stroke-width="2" d="M534-284.27V-650h310.44"/><path fill-opacity=".2" stroke="#000" stroke-opacity=".2" stroke-width="2" d="m844.44-652.1 6 2.1-6 2.1z"/></g><g class="edge"><title>src/main/rule-set/assert-validity.mjs-&gt;src/main/options/assert-validity.mjs</title><path fill="none" stroke="#000" stroke-opacity=".2" stroke-width="2" d="M536-283.98v-127.81h34.14"/><path fill-opacity=".2" stroke="#000" stroke-opacity=".2" stroke-width="2" d="m570.14-413.89 6 2.1-6 2.1z"/></g><g class="edge"><title>src/main/rule-set/assert-validity.mjs-&gt;src/schema/utl.mjs</title><path fill="none" stroke="#000" stroke-opacity=".2" stroke-width="2" d="M537-265.77v119.06h50.36"/><path fill-opacity=".2" stroke="#000" stroke-opacity=".2" stroke-width="2" d="m587.36-148.81 6 2.1-6 2.1z"/></g><g class="edge"><title>src/main/rule-set/assert-validity.mjs-&gt;src/main/helpers.mjs</title><path fill="none" stroke="#000" stroke-opacity=".2" stroke-width="2" d="M538-284.23v-59.23h189.75"/><path fill-opacity=".2" stroke="#000" stroke-opacity=".2" stroke-width="2" d="m727.75-345.56 6 2.1-6 2.1z"/></g><g class="node"><title>src/schema/configuration.validate.mjs</title><a xlink:href="src/schema/configuration.validate.mjs" xlink:title="configuration.validate.mjs">
<path fill="#ffc" stroke="#000" d="M678.08-125.88H569.67c-2.96 0-5.92 2.96-5.92 5.92v5.92c0 2.96 2.96 5.92 5.92 5.92h108.41c2.96 0 5.92-2.96 5.92-5.92v-5.92c0-2.96-2.96-5.92-5.92-5.92"/>
<text xml:space="preserve" x="571.75" y="-113.33" font-family="Helvetica,sans-Serif" font-size="9">configuration.validate.mjs</text>
</a></g><g class="edge"><title>src/main/rule-set/assert-validity.mjs-&gt;src/schema/configuration.validate.mjs</title><path fill="none" stroke="#000" stroke-opacity=".2" stroke-width="2" d="M534-266.05V-117h20.4"/><path fill-opacity=".2" stroke="#000" stroke-opacity=".2" stroke-width="2" d="m554.4-119.1 6 2.1-6 2.1z"/></g><g class="edge"><title>src/main/rule-set/normalize.mjs-&gt;src/utl/bus.mjs</title><path fill="none" stroke="#000" stroke-opacity=".2" stroke-width="2" d="M532.34-247.96H547v-430.77h306.37"/><path fill-opacity=".2" stroke="#000" stroke-opacity=".2" stroke-width="2" d="m853.37-680.83 6 2.1-6 2.1z"/></g><g class="edge"><title>src/main/rule-set/normalize.mjs-&gt;src/main/helpers.mjs</title><path fill="none" stroke="#000" stroke-opacity=".2" stroke-width="2" d="M532.28-242.04H769v-87.9"/><path fill-opacity=".2" stroke="#000" stroke-opacity=".2" stroke-width="2" d="m766.9-329.94 2.1-6 2.1 6z"/></g><g class="edge"><title>src/main/helpers.mjs-&gt;src/utl/object-util.mjs</title><path fill="none" stroke="#000" stroke-opacity=".2" stroke-width="2" d="M800.69-348H846v-297.56h.76"/><path fill-opacity=".2" stroke="#000" stroke-opacity=".2" stroke-width="2" d="m844.62-647.66 6 2.1-6 2.1z"/></g><g class="node"><title>src/main/index.d.ts</title><a xlink:href="src/main/index.d.ts" xlink:title="index.d.ts">
<path fill="#0f0" stroke="#000" d="M267.33-493.88h-43.16c-2.96 0-5.92 2.96-5.92 5.92v5.92c0 2.96 2.96 5.92 5.92 5.92h43.16c2.96 0 5.92-2.96 5.92-5.92v-5.92c0-2.96-2.96-5.92-5.92-5.92"/>
<text xml:space="preserve" x="226.25" y="-481.32" font-family="Helvetica,sans-Serif" font-size="9">index.d.ts</text>
</a></g></g></svg>