<?xml version="1.0" encoding="UTF-8" standalone="no"?>
<!DOCTYPE svg PUBLIC "-//W3C//DTD SVG 1.1//EN"
 "http://www.w3.org/Graphics/SVG/1.1/DTD/svg11.dtd">
<!-- Generated by graphviz version 7.1.0 (20230121.1956)
 -->
<!-- Title: dependency&#45;cruiser output Pages: 1 -->
<svg width="791pt" height="814pt"
 viewBox="0.00 0.00 791.00 814.00" xmlns="http://www.w3.org/2000/svg" xmlns:xlink="http://www.w3.org/1999/xlink">
<g id="graph0" class="graph" transform="scale(1 1) rotate(0) translate(4 810)">
<title>dependency&#45;cruiser output</title>
<polygon fill="white" stroke="none" points="-4,4 -4,-810 787,-810 787,4 -4,4"/>
<g id="clust1" class="cluster">
<title>cluster_src</title>
<path fill="#ffffff" stroke="black" stroke-width="2" d="M20,-8C20,-8 763,-8 763,-8 769,-8 775,-14 775,-20 775,-20 775,-786 775,-786 775,-792 769,-798 763,-798 763,-798 20,-798 20,-798 14,-798 8,-792 8,-786 8,-786 8,-20 8,-20 8,-14 14,-8 20,-8"/>
<text text-anchor="middle" x="391.5" y="-786.8" font-family="Helvetica,sans-Serif" font-weight="bold" font-size="9.00">src</text>
</g>
<g id="clust2" class="cluster">
<title>cluster_src/cache</title>
<path fill="#ffffff" stroke="black" stroke-width="2" d="M395,-678C395,-678 441,-678 441,-678 447,-678 453,-684 453,-690 453,-690 453,-718 453,-718 453,-724 447,-730 441,-730 441,-730 395,-730 395,-730 389,-730 383,-724 383,-718 383,-718 383,-690 383,-690 383,-684 389,-678 395,-678"/>
<text text-anchor="middle" x="418" y="-718.8" font-family="Helvetica,sans-Serif" font-weight="bold" font-size="9.00">cache</text>
</g>
<g id="clust3" class="cluster">
<title>cluster_src/cli</title>
<path fill="#ffffff" stroke="black" stroke-width="2" d="M28,-448C28,-448 179,-448 179,-448 185,-448 191,-454 191,-460 191,-460 191,-518 191,-518 191,-524 185,-530 179,-530 179,-530 28,-530 28,-530 22,-530 16,-524 16,-518 16,-518 16,-460 16,-460 16,-454 22,-448 28,-448"/>
<text text-anchor="middle" x="103.5" y="-518.8" font-family="Helvetica,sans-Serif" font-weight="bold" font-size="9.00">cli</text>
</g>
<g id="clust4" class="cluster">
<title>cluster_src/config&#45;utl</title>
<path fill="#ffffff" stroke="black" stroke-width="2" d="M219,-162C219,-162 333,-162 333,-162 339,-162 345,-168 345,-174 345,-174 345,-236 345,-236 345,-242 339,-248 333,-248 333,-248 219,-248 219,-248 213,-248 207,-242 207,-236 207,-236 207,-174 207,-174 207,-168 213,-162 219,-162"/>
<text text-anchor="middle" x="276" y="-236.8" font-family="Helvetica,sans-Serif" font-weight="bold" font-size="9.00">config&#45;utl</text>
</g>
<g id="clust5" class="cluster">
<title>cluster_src/config&#45;utl/extract&#45;depcruise&#45;config</title>
<path fill="#ffffff" stroke="black" stroke-width="2" d="M227,-170C227,-170 325,-170 325,-170 331,-170 337,-176 337,-182 337,-182 337,-210 337,-210 337,-216 331,-222 325,-222 325,-222 227,-222 227,-222 221,-222 215,-216 215,-210 215,-210 215,-182 215,-182 215,-176 221,-170 227,-170"/>
<text text-anchor="middle" x="276" y="-210.8" font-family="Helvetica,sans-Serif" font-weight="bold" font-size="9.00">extract&#45;depcruise&#45;config</text>
</g>
<g id="clust6" class="cluster">
<title>cluster_src/enrich</title>
<path fill="#ffffff" stroke="black" stroke-width="2" d="M395,-108C395,-108 579.5,-108 579.5,-108 585.5,-108 591.5,-114 591.5,-120 591.5,-120 591.5,-182 591.5,-182 591.5,-188 585.5,-194 579.5,-194 579.5,-194 395,-194 395,-194 389,-194 383,-188 383,-182 383,-182 383,-120 383,-120 383,-114 389,-108 395,-108"/>
<text text-anchor="middle" x="487.25" y="-182.8" font-family="Helvetica,sans-Serif" font-weight="bold" font-size="9.00">enrich</text>
</g>
<g id="clust7" class="cluster">
<title>cluster_src/enrich/summarize</title>
<path fill="#ffffff" stroke="black" stroke-width="2" d="M525.5,-116C525.5,-116 571.5,-116 571.5,-116 577.5,-116 583.5,-122 583.5,-128 583.5,-128 583.5,-156 583.5,-156 583.5,-162 577.5,-168 571.5,-168 571.5,-168 525.5,-168 525.5,-168 519.5,-168 513.5,-162 513.5,-156 513.5,-156 513.5,-128 513.5,-128 513.5,-122 519.5,-116 525.5,-116"/>
<text text-anchor="middle" x="548.5" y="-156.8" font-family="Helvetica,sans-Serif" font-weight="bold" font-size="9.00">summarize</text>
</g>
<g id="clust8" class="cluster">
<title>cluster_src/extract</title>
<path fill="#ffffff" stroke="black" stroke-width="2" d="M517.5,-650C517.5,-650 579.5,-650 579.5,-650 585.5,-650 591.5,-656 591.5,-662 591.5,-662 591.5,-750 591.5,-750 591.5,-756 585.5,-762 579.5,-762 579.5,-762 517.5,-762 517.5,-762 511.5,-762 505.5,-756 505.5,-750 505.5,-750 505.5,-662 505.5,-662 505.5,-656 511.5,-650 517.5,-650"/>
<text text-anchor="middle" x="548.5" y="-750.8" font-family="Helvetica,sans-Serif" font-weight="bold" font-size="9.00">extract</text>
</g>
<g id="clust9" class="cluster">
<title>cluster_src/extract/transpile</title>
<path fill="#ffffff" stroke="black" stroke-width="2" d="M525.5,-658C525.5,-658 571.5,-658 571.5,-658 577.5,-658 583.5,-664 583.5,-670 583.5,-670 583.5,-698 583.5,-698 583.5,-704 577.5,-710 571.5,-710 571.5,-710 525.5,-710 525.5,-710 519.5,-710 513.5,-704 513.5,-698 513.5,-698 513.5,-670 513.5,-670 513.5,-664 519.5,-658 525.5,-658"/>
<text text-anchor="middle" x="548.5" y="-698.8" font-family="Helvetica,sans-Serif" font-weight="bold" font-size="9.00">transpile</text>
</g>
<g id="clust10" class="cluster">
<title>cluster_src/graph&#45;utl</title>
<path fill="#ffffff" stroke="black" stroke-width="2" d="M636.5,-16C636.5,-16 743.5,-16 743.5,-16 749.5,-16 755.5,-22 755.5,-28 755.5,-28 755.5,-176 755.5,-176 755.5,-182 749.5,-188 743.5,-188 743.5,-188 636.5,-188 636.5,-188 630.5,-188 624.5,-182 624.5,-176 624.5,-176 624.5,-28 624.5,-28 624.5,-22 630.5,-16 636.5,-16"/>
<text text-anchor="middle" x="690" y="-176.8" font-family="Helvetica,sans-Serif" font-weight="bold" font-size="9.00">graph&#45;utl</text>
</g>
<g id="clust11" class="cluster">
<title>cluster_src/main</title>
<path fill="#ffffff" stroke="black" stroke-width="2" d="M253,-256C253,-256 755,-256 755,-256 761,-256 767,-262 767,-268 767,-268 767,-530 767,-530 767,-536 761,-542 755,-542 755,-542 253,-542 253,-542 247,-542 241,-536 241,-530 241,-530 241,-268 241,-268 241,-262 247,-256 253,-256"/>
<text text-anchor="middle" x="504" y="-530.8" font-family="Helvetica,sans-Serif" font-weight="bold" font-size="9.00">main</text>
</g>
<g id="clust12" class="cluster">
<title>cluster_src/main/files&#45;and&#45;dirs</title>
<path fill="#ffffff" stroke="black" stroke-width="2" d="M389,-374C389,-374 447,-374 447,-374 453,-374 459,-380 459,-386 459,-386 459,-414 459,-414 459,-420 453,-426 447,-426 447,-426 389,-426 389,-426 383,-426 377,-420 377,-414 377,-414 377,-386 377,-386 377,-380 383,-374 389,-374"/>
<text text-anchor="middle" x="418" y="-414.8" font-family="Helvetica,sans-Serif" font-weight="bold" font-size="9.00">files&#45;and&#45;dirs</text>
</g>
<g id="clust13" class="cluster">
<title>cluster_src/main/options</title>
<path fill="#ffffff" stroke="black" stroke-width="2" d="M519.5,-334C519.5,-334 715,-334 715,-334 721,-334 727,-340 727,-346 727,-346 727,-404 727,-404 727,-410 721,-416 715,-416 715,-416 519.5,-416 519.5,-416 513.5,-416 507.5,-410 507.5,-404 507.5,-404 507.5,-346 507.5,-346 507.5,-340 513.5,-334 519.5,-334"/>
<text text-anchor="middle" x="617.25" y="-404.8" font-family="Helvetica,sans-Serif" font-weight="bold" font-size="9.00">options</text>
</g>
<g id="clust14" class="cluster">
<title>cluster_src/main/resolve&#45;options</title>
<path fill="#ffffff" stroke="black" stroke-width="2" d="M389,-290C389,-290 448,-290 448,-290 454,-290 460,-296 460,-302 460,-302 460,-330 460,-330 460,-336 454,-342 448,-342 448,-342 389,-342 389,-342 383,-342 377,-336 377,-330 377,-330 377,-302 377,-302 377,-296 383,-290 389,-290"/>
<text text-anchor="middle" x="418.5" y="-330.8" font-family="Helvetica,sans-Serif" font-weight="bold" font-size="9.00">resolve&#45;options</text>
</g>
<g id="clust15" class="cluster">
<title>cluster_src/main/rule&#45;set</title>
<path fill="#ffffff" stroke="black" stroke-width="2" d="M389,-434C389,-434 447,-434 447,-434 453,-434 459,-440 459,-446 459,-446 459,-504 459,-504 459,-510 453,-516 447,-516 447,-516 389,-516 389,-516 383,-516 377,-510 377,-504 377,-504 377,-446 377,-446 377,-440 383,-434 389,-434"/>
<text text-anchor="middle" x="418" y="-504.8" font-family="Helvetica,sans-Serif" font-weight="bold" font-size="9.00">rule&#45;set</text>
</g>
<g id="clust16" class="cluster">
<title>cluster_src/main/utl</title>
<path fill="#ffffff" stroke="black" stroke-width="2" d="M633,-434C633,-434 747,-434 747,-434 753,-434 759,-440 759,-446 759,-446 759,-474 759,-474 759,-480 753,-486 747,-486 747,-486 633,-486 633,-486 627,-486 621,-480 621,-474 621,-474 621,-446 621,-446 621,-440 627,-434 633,-434"/>
<text text-anchor="middle" x="690" y="-474.8" font-family="Helvetica,sans-Serif" font-weight="bold" font-size="9.00">utl</text>
</g>
<g id="clust17" class="cluster">
<title>cluster_src/report</title>
<path fill="#ffffff" stroke="black" stroke-width="2" d="M667,-196C667,-196 713,-196 713,-196 719,-196 725,-202 725,-208 725,-208 725,-236 725,-236 725,-242 719,-248 713,-248 713,-248 667,-248 667,-248 661,-248 655,-242 655,-236 655,-236 655,-208 655,-208 655,-202 661,-196 667,-196"/>
<text text-anchor="middle" x="690" y="-236.8" font-family="Helvetica,sans-Serif" font-weight="bold" font-size="9.00">report</text>
</g>
<g id="clust18" class="cluster">
<title>cluster_src/schema</title>
<path fill="#ffffff" stroke="black" stroke-width="2" d="M496,-550C496,-550 601,-550 601,-550 607,-550 613,-556 613,-562 613,-562 613,-620 613,-620 613,-626 607,-632 601,-632 601,-632 496,-632 496,-632 490,-632 484,-626 484,-620 484,-620 484,-562 484,-562 484,-556 490,-550 496,-550"/>
<text text-anchor="middle" x="548.5" y="-620.8" font-family="Helvetica,sans-Serif" font-weight="bold" font-size="9.00">schema</text>
</g>
<g id="clust19" class="cluster">
<title>cluster_src/utl</title>
<path fill="#ffffff" stroke="black" stroke-width="2" d="M667,-710C667,-710 713,-710 713,-710 719,-710 725,-716 725,-722 725,-722 725,-750 725,-750 725,-756 719,-762 713,-762 713,-762 667,-762 667,-762 661,-762 655,-756 655,-750 655,-750 655,-722 655,-722 655,-716 661,-710 667,-710"/>
<text text-anchor="middle" x="690" y="-750.8" font-family="Helvetica,sans-Serif" font-weight="bold" font-size="9.00">utl</text>
</g>
<!-- src/cache/cache.js -->
<g id="node1" class="node">
<title>src/cache/cache.js</title>
<g id="a_node1"><a xlink:href="src/cache/cache.js" xlink:title="cache.js">
<path fill="lightgray" stroke="black" d="M439,-704C439,-704 397,-704 397,-704 394,-704 391,-701 391,-698 391,-698 391,-692 391,-692 391,-689 394,-686 397,-686 397,-686 439,-686 439,-686 442,-686 445,-689 445,-692 445,-692 445,-698 445,-698 445,-701 442,-704 439,-704"/>
<text text-anchor="start" x="401" y="-692.8" font-family="Helvetica,sans-Serif" font-size="9.00" fill="gray">cache.js</text>
</a>
</g>
</g>
<!-- src/extract/transpile/meta.js -->
<g id="node2" class="node">
<title>src/extract/transpile/meta.js</title>
<g id="a_node2"><a xlink:href="src/extract/transpile/meta.js" xlink:title="meta.js">
<path fill="lightgray" stroke="black" d="M569.5,-684C569.5,-684 527.5,-684 527.5,-684 524.5,-684 521.5,-681 521.5,-678 521.5,-678 521.5,-672 521.5,-672 521.5,-669 524.5,-666 527.5,-666 527.5,-666 569.5,-666 569.5,-666 572.5,-666 575.5,-669 575.5,-672 575.5,-672 575.5,-678 575.5,-678 575.5,-681 572.5,-684 569.5,-684"/>
<text text-anchor="start" x="533.5" y="-672.8" font-family="Helvetica,sans-Serif" font-size="9.00" fill="gray">meta.js</text>
</a>
</g>
</g>
<!-- src/cache/cache.js&#45;&gt;src/extract/transpile/meta.js -->
<g id="edge1" class="edge">
<title>src/cache/cache.js&#45;&gt;src/extract/transpile/meta.js</title>
<path fill="none" stroke="#000000" stroke-width="2" stroke-opacity="0.200000" d="M445.46,-695C483.88,-695 549,-695 549,-695 549,-695 549,-693.09 549,-693.09"/>
<polygon fill="#000000" fill-opacity="0.200000" stroke="#000000" stroke-width="2" stroke-opacity="0.200000" points="551.1,-693.09 549,-687.09 546.9,-693.09 551.1,-693.09"/>
</g>
<!-- src/cli/format&#45;meta&#45;info.js -->
<g id="node3" class="node">
<title>src/cli/format&#45;meta&#45;info.js</title>
<g id="a_node3"><a xlink:href="src/cli/format-meta-info.js" xlink:title="format&#45;meta&#45;info.js">
<path fill="lightgray" stroke="black" d="M177,-504C177,-504 97,-504 97,-504 94,-504 91,-501 91,-498 91,-498 91,-492 91,-492 91,-489 94,-486 97,-486 97,-486 177,-486 177,-486 180,-486 183,-489 183,-492 183,-492 183,-498 183,-498 183,-501 180,-504 177,-504"/>
<text text-anchor="start" x="99" y="-492.8" font-family="Helvetica,sans-Serif" font-size="9.00" fill="gray">format&#45;meta&#45;info.js</text>
</a>
</g>
</g>
<!-- src/main/index.js -->
<g id="node4" class="node">
<title>src/main/index.js</title>
<g id="a_node4"><a xlink:href="src/main/index.js" xlink:title="index.js">
<path fill="lime" stroke="black" d="M297,-475C297,-475 255,-475 255,-475 252,-475 249,-472 249,-469 249,-469 249,-463 249,-463 249,-460 252,-457 255,-457 255,-457 297,-457 297,-457 300,-457 303,-460 303,-463 303,-463 303,-469 303,-469 303,-472 300,-475 297,-475"/>
<text text-anchor="start" x="260" y="-463.8" font-family="Helvetica,sans-Serif" font-size="9.00">index.js</text>
</a>
</g>
</g>
<!-- src/cli/format&#45;meta&#45;info.js&#45;&gt;src/main/index.js -->
<g id="edge2" class="edge">
<title>src/cli/format&#45;meta&#45;info.js&#45;&gt;src/main/index.js</title>
<path fill="none" stroke="#000000" stroke-width="2" stroke-opacity="0.200000" d="M183.21,-497C219.88,-497 265,-497 265,-497 265,-497 265,-484.5 265,-484.5"/>
<polygon fill="#000000" fill-opacity="0.200000" stroke="#000000" stroke-width="2" stroke-opacity="0.200000" points="267.1,-484.5 265,-478.5 262.9,-484.5 267.1,-484.5"/>
</g>
<!-- src/main/index.js&#45;&gt;src/cache/cache.js -->
<g id="edge11" class="edge">
<title>src/main/index.js&#45;&gt;src/cache/cache.js</title>
<path fill="none" stroke="#000000" stroke-width="2" stroke-opacity="0.200000" d="M280,-475.26C280,-518.1 280,-695 280,-695 280,-695 381.71,-695 381.71,-695"/>
<polygon fill="#000000" fill-opacity="0.200000" stroke="#000000" stroke-width="2" stroke-opacity="0.200000" points="381.71,-697.1 387.71,-695 381.71,-692.9 381.71,-697.1"/>
</g>
<!-- src/main/index.js&#45;&gt;src/extract/transpile/meta.js -->
<g id="edge14" class="edge">
<title>src/main/index.js&#45;&gt;src/extract/transpile/meta.js</title>
<path fill="none" stroke="#000000" stroke-width="2" stroke-opacity="0.200000" d="M288,-475.38C288,-516.41 288,-678 288,-678 288,-678 512.09,-678 512.09,-678"/>
<polygon fill="#000000" fill-opacity="0.200000" stroke="#000000" stroke-width="2" stroke-opacity="0.200000" points="512.09,-680.1 518.09,-678 512.09,-675.9 512.09,-680.1"/>
</g>
<!-- src/utl/bus.js -->
<g id="node7" class="node">
<title>src/utl/bus.js</title>
<g id="a_node7"><a xlink:href="src/utl/bus.js" xlink:title="bus.js">
<path fill="lightgray" stroke="black" d="M711,-736C711,-736 669,-736 669,-736 666,-736 663,-733 663,-730 663,-730 663,-724 663,-724 663,-721 666,-718 669,-718 669,-718 711,-718 711,-718 714,-718 717,-721 717,-724 717,-724 717,-730 717,-730 717,-733 714,-736 711,-736"/>
<text text-anchor="start" x="677.5" y="-724.8" font-family="Helvetica,sans-Serif" font-size="9.00" fill="gray">bus.js</text>
</a>
</g>
</g>
<!-- src/main/index.js&#45;&gt;src/utl/bus.js -->
<g id="edge16" class="edge">
<title>src/main/index.js&#45;&gt;src/utl/bus.js</title>
<path fill="none" stroke="#000000" stroke-width="2" stroke-opacity="0.200000" d="M303.43,-469C397.16,-469 699,-469 699,-469 699,-469 699,-708.48 699,-708.48"/>
<polygon fill="#000000" fill-opacity="0.200000" stroke="#000000" stroke-width="2" stroke-opacity="0.200000" points="696.9,-708.48 699,-714.48 701.1,-708.48 696.9,-708.48"/>
</g>
<!-- src/main/resolve&#45;options/normalize.js -->
<g id="node9" class="node">
<title>src/main/resolve&#45;options/normalize.js</title>
<g id="a_node9"><a xlink:href="src/main/resolve-options/normalize.js" xlink:title="normalize.js">
<path fill="lime" stroke="black" d="M445,-316C445,-316 391,-316 391,-316 388,-316 385,-313 385,-310 385,-310 385,-304 385,-304 385,-301 388,-298 391,-298 391,-298 445,-298 445,-298 448,-298 451,-301 451,-304 451,-304 451,-310 451,-310 451,-313 448,-316 445,-316"/>
<text text-anchor="start" x="393" y="-304.8" font-family="Helvetica,sans-Serif" font-size="9.00">normalize.js</text>
</a>
</g>
</g>
<!-- src/main/index.js&#45;&gt;src/main/resolve&#45;options/normalize.js -->
<g id="edge21" class="edge">
<title>src/main/index.js&#45;&gt;src/main/resolve&#45;options/normalize.js</title>
<path fill="none" stroke="#000000" stroke-width="2" stroke-opacity="0.200000" d="M265,-456.71C265,-423.12 265,-310 265,-310 265,-310 375.77,-310 375.77,-310"/>
<polygon fill="#000000" fill-opacity="0.200000" stroke="#000000" stroke-width="2" stroke-opacity="0.200000" points="375.77,-312.1 381.77,-310 375.77,-307.9 375.77,-312.1"/>
</g>
<!-- src/enrich/index.js -->
<g id="node10" class="node">
<title>src/enrich/index.js</title>
<g id="a_node10"><a xlink:href="src/enrich/index.js" xlink:title="index.js">
<path fill="lightgray" stroke="black" d="M439,-155C439,-155 397,-155 397,-155 394,-155 391,-152 391,-149 391,-149 391,-143 391,-143 391,-140 394,-137 397,-137 397,-137 439,-137 439,-137 442,-137 445,-140 445,-143 445,-143 445,-149 445,-149 445,-152 442,-155 439,-155"/>
<text text-anchor="start" x="402" y="-143.8" font-family="Helvetica,sans-Serif" font-size="9.00" fill="gray">index.js</text>
</a>
</g>
</g>
<!-- src/main/index.js&#45;&gt;src/enrich/index.js -->
<g id="edge12" class="edge">
<title>src/main/index.js&#45;&gt;src/enrich/index.js</title>
<path fill="none" stroke="#000000" stroke-width="2" stroke-opacity="0.200000" d="M303.25,-463C321.8,-463 343,-463 343,-463 343,-463 343,-146 343,-146 343,-146 381.9,-146 381.9,-146"/>
<polygon fill="#000000" fill-opacity="0.200000" stroke="#000000" stroke-width="2" stroke-opacity="0.200000" points="381.9,-148.1 387.9,-146 381.9,-143.9 381.9,-148.1"/>
</g>
<!-- src/extract/index.js -->
<g id="node13" class="node">
<title>src/extract/index.js</title>
<g id="a_node13"><a xlink:href="src/extract/index.js" xlink:title="index.js">
<path fill="lightgray" stroke="black" d="M569.5,-736C569.5,-736 527.5,-736 527.5,-736 524.5,-736 521.5,-733 521.5,-730 521.5,-730 521.5,-724 521.5,-724 521.5,-721 524.5,-718 527.5,-718 527.5,-718 569.5,-718 569.5,-718 572.5,-718 575.5,-721 575.5,-724 575.5,-724 575.5,-730 575.5,-730 575.5,-733 572.5,-736 569.5,-736"/>
<text text-anchor="start" x="532.5" y="-724.8" font-family="Helvetica,sans-Serif" font-size="9.00" fill="gray">index.js</text>
</a>
</g>
</g>
<!-- src/main/index.js&#45;&gt;src/extract/index.js -->
<g id="edge13" class="edge">
<title>src/main/index.js&#45;&gt;src/extract/index.js</title>
<path fill="none" stroke="#000000" stroke-width="2" stroke-opacity="0.200000" d="M273,-475.29C273,-521.78 273,-727 273,-727 273,-727 512.05,-727 512.05,-727"/>
<polygon fill="#000000" fill-opacity="0.200000" stroke="#000000" stroke-width="2" stroke-opacity="0.200000" points="512.05,-729.1 518.05,-727 512.05,-724.9 512.05,-729.1"/>
</g>
<!-- src/main/files&#45;and&#45;dirs/normalize.js -->
<g id="node18" class="node">
<title>src/main/files&#45;and&#45;dirs/normalize.js</title>
<g id="a_node18"><a xlink:href="src/main/files-and-dirs/normalize.js" xlink:title="normalize.js">
<path fill="lime" stroke="black" d="M445,-400C445,-400 391,-400 391,-400 388,-400 385,-397 385,-394 385,-394 385,-388 385,-388 385,-385 388,-382 391,-382 391,-382 445,-382 445,-382 448,-382 451,-385 451,-388 451,-388 451,-394 451,-394 451,-397 448,-400 445,-400"/>
<text text-anchor="start" x="393" y="-388.8" font-family="Helvetica,sans-Serif" font-size="9.00">normalize.js</text>
</a>
</g>
</g>
<!-- src/main/index.js&#45;&gt;src/main/files&#45;and&#45;dirs/normalize.js -->
<g id="edge17" class="edge">
<title>src/main/index.js&#45;&gt;src/main/files&#45;and&#45;dirs/normalize.js</title>
<path fill="none" stroke="#000000" stroke-width="2" stroke-opacity="0.200000" d="M296,-456.5C296,-436.32 296,-391 296,-391 296,-391 375.64,-391 375.64,-391"/>
<polygon fill="#000000" fill-opacity="0.200000" stroke="#000000" stroke-width="2" stroke-opacity="0.200000" points="375.64,-393.1 381.64,-391 375.64,-388.9 375.64,-393.1"/>
</g>
<!-- src/schema/cruise&#45;result.schema.js -->
<g id="node19" class="node">
<title>src/schema/cruise&#45;result.schema.js</title>
<g id="a_node19"><a xlink:href="src/schema/cruise-result.schema.js" xlink:title="cruise&#45;result.schema.js">
<path fill="lightgray" stroke="black" d="M597.5,-606C597.5,-606 499.5,-606 499.5,-606 496.5,-606 493.5,-603 493.5,-600 493.5,-600 493.5,-594 493.5,-594 493.5,-591 496.5,-588 499.5,-588 499.5,-588 597.5,-588 597.5,-588 600.5,-588 603.5,-591 603.5,-594 603.5,-594 603.5,-600 603.5,-600 603.5,-603 600.5,-606 597.5,-606"/>
<text text-anchor="start" x="501.5" y="-594.8" font-family="Helvetica,sans-Serif" font-size="9.00" fill="gray">cruise&#45;result.schema.js</text>
</a>
</g>
</g>
<!-- src/main/index.js&#45;&gt;src/schema/cruise&#45;result.schema.js -->
<g id="edge15" class="edge">
<title>src/main/index.js&#45;&gt;src/schema/cruise&#45;result.schema.js</title>
<path fill="none" stroke="#000000" stroke-width="2" stroke-opacity="0.200000" d="M296,-475.42C296,-505.46 296,-597 296,-597 296,-597 484.06,-597 484.06,-597"/>
<polygon fill="#000000" fill-opacity="0.200000" stroke="#000000" stroke-width="2" stroke-opacity="0.200000" points="484.06,-599.1 490.06,-597 484.06,-594.9 484.06,-599.1"/>
</g>
<!-- src/main/options/normalize.js -->
<g id="node20" class="node">
<title>src/main/options/normalize.js</title>
<g id="a_node20"><a xlink:href="src/main/options/normalize.js" xlink:title="normalize.js">
<path fill="lime" stroke="black" d="M575.5,-390C575.5,-390 521.5,-390 521.5,-390 518.5,-390 515.5,-387 515.5,-384 515.5,-384 515.5,-378 515.5,-378 515.5,-375 518.5,-372 521.5,-372 521.5,-372 575.5,-372 575.5,-372 578.5,-372 581.5,-375 581.5,-378 581.5,-378 581.5,-384 581.5,-384 581.5,-387 578.5,-390 575.5,-390"/>
<text text-anchor="start" x="523.5" y="-378.8" font-family="Helvetica,sans-Serif" font-size="9.00">normalize.js</text>
</a>
</g>
</g>
<!-- src/main/index.js&#45;&gt;src/main/options/normalize.js -->
<g id="edge18" class="edge">
<title>src/main/index.js&#45;&gt;src/main/options/normalize.js</title>
<path fill="none" stroke="#000000" stroke-width="2" stroke-opacity="0.200000" d="M280,-456.81C280,-434.07 280,-377 280,-377 280,-377 506.01,-377 506.01,-377"/>
<polygon fill="#000000" fill-opacity="0.200000" stroke="#000000" stroke-width="2" stroke-opacity="0.200000" points="506.01,-379.1 512.01,-377 506.01,-374.9 506.01,-379.1"/>
</g>
<!-- src/main/options/validate.js -->
<g id="node21" class="node">
<title>src/main/options/validate.js</title>
<g id="a_node21"><a xlink:href="src/main/options/validate.js" xlink:title="validate.js">
<path fill="lime" stroke="black" d="M571.5,-360C571.5,-360 525.5,-360 525.5,-360 522.5,-360 519.5,-357 519.5,-354 519.5,-354 519.5,-348 519.5,-348 519.5,-345 522.5,-342 525.5,-342 525.5,-342 571.5,-342 571.5,-342 574.5,-342 577.5,-345 577.5,-348 577.5,-348 577.5,-354 577.5,-354 577.5,-357 574.5,-360 571.5,-360"/>
<text text-anchor="start" x="527.5" y="-348.8" font-family="Helvetica,sans-Serif" font-size="9.00">validate.js</text>
</a>
</g>
</g>
<!-- src/main/index.js&#45;&gt;src/main/options/validate.js -->
<g id="edge19" class="edge">
<title>src/main/index.js&#45;&gt;src/main/options/validate.js</title>
<path fill="none" stroke="#000000" stroke-width="2" stroke-opacity="0.200000" d="M273,-456.74C273,-428.92 273,-348 273,-348 273,-348 509.99,-348 509.99,-348"/>
<polygon fill="#000000" fill-opacity="0.200000" stroke="#000000" stroke-width="2" stroke-opacity="0.200000" points="509.99,-350.1 515.99,-348 509.99,-345.9 509.99,-350.1"/>
</g>
<!-- src/main/report&#45;wrap.js -->
<g id="node22" class="node">
<title>src/main/report&#45;wrap.js</title>
<g id="a_node22"><a xlink:href="src/main/report-wrap.js" xlink:title="report&#45;wrap.js">
<path fill="lime" stroke="black" d="M448.5,-282C448.5,-282 387.5,-282 387.5,-282 384.5,-282 381.5,-279 381.5,-276 381.5,-276 381.5,-270 381.5,-270 381.5,-267 384.5,-264 387.5,-264 387.5,-264 448.5,-264 448.5,-264 451.5,-264 454.5,-267 454.5,-270 454.5,-270 454.5,-276 454.5,-276 454.5,-279 451.5,-282 448.5,-282"/>
<text text-anchor="start" x="389.5" y="-270.8" font-family="Helvetica,sans-Serif" font-size="9.00">report&#45;wrap.js</text>
</a>
</g>
</g>
<!-- src/main/index.js&#45;&gt;src/main/report&#45;wrap.js -->
<g id="edge20" class="edge">
<title>src/main/index.js&#45;&gt;src/main/report&#45;wrap.js</title>
<path fill="none" stroke="#000000" stroke-width="2" stroke-opacity="0.200000" d="M257,-456.69C257,-418.14 257,-273 257,-273 257,-273 372.04,-273 372.04,-273"/>
<polygon fill="#000000" fill-opacity="0.200000" stroke="#000000" stroke-width="2" stroke-opacity="0.200000" points="372.04,-275.1 378.04,-273 372.04,-270.9 372.04,-275.1"/>
</g>
<!-- src/main/rule&#45;set/normalize.js -->
<g id="node23" class="node">
<title>src/main/rule&#45;set/normalize.js</title>
<g id="a_node23"><a xlink:href="src/main/rule-set/normalize.js" xlink:title="normalize.js">
<path fill="lime" stroke="black" d="M445,-490C445,-490 391,-490 391,-490 388,-490 385,-487 385,-484 385,-484 385,-478 385,-478 385,-475 388,-472 391,-472 391,-472 445,-472 445,-472 448,-472 451,-475 451,-478 451,-478 451,-484 451,-484 451,-487 448,-490 445,-490"/>
<text text-anchor="start" x="393" y="-478.8" font-family="Helvetica,sans-Serif" font-size="9.00">normalize.js</text>
</a>
</g>
</g>
<!-- src/main/index.js&#45;&gt;src/main/rule&#45;set/normalize.js -->
<g id="edge22" class="edge">
<title>src/main/index.js&#45;&gt;src/main/rule&#45;set/normalize.js</title>
<path fill="none" stroke="#000000" stroke-width="2" stroke-opacity="0.200000" d="M257,-475.27C257,-478.11 257,-480.5 257,-480.5 257,-480.5 375.61,-480.5 375.61,-480.5"/>
<polygon fill="#000000" fill-opacity="0.200000" stroke="#000000" stroke-width="2" stroke-opacity="0.200000" points="375.61,-482.6 381.61,-480.5 375.61,-478.4 375.61,-482.6"/>
</g>
<!-- src/main/rule&#45;set/validate.js -->
<g id="node24" class="node">
<title>src/main/rule&#45;set/validate.js</title>
<g id="a_node24"><a xlink:href="src/main/rule-set/validate.js" xlink:title="validate.js">
<path fill="lime" stroke="black" d="M441,-460C441,-460 395,-460 395,-460 392,-460 389,-457 389,-454 389,-454 389,-448 389,-448 389,-445 392,-442 395,-442 395,-442 441,-442 441,-442 444,-442 447,-445 447,-448 447,-448 447,-454 447,-454 447,-457 444,-460 441,-460"/>
<text text-anchor="start" x="397" y="-448.8" font-family="Helvetica,sans-Serif" font-size="9.00">validate.js</text>
</a>
</g>
</g>
<!-- src/main/index.js&#45;&gt;src/main/rule&#45;set/validate.js -->
<g id="edge23" class="edge">
<title>src/main/index.js&#45;&gt;src/main/rule&#45;set/validate.js</title>
<path fill="none" stroke="#000000" stroke-width="2" stroke-opacity="0.200000" d="M303.38,-466C344.64,-466 418,-466 418,-466 418,-466 418,-465.42 418,-465.42"/>
<polygon fill="#000000" fill-opacity="0.200000" stroke="#000000" stroke-width="2" stroke-opacity="0.200000" points="420.1,-469.27 418,-463.27 415.9,-469.27 420.1,-469.27"/>
</g>
<!-- src/cli/format.js -->
<g id="node5" class="node">
<title>src/cli/format.js</title>
<g id="a_node5"><a xlink:href="src/cli/format.js" xlink:title="format.js">
<path fill="lightgray" stroke="black" d="M72,-474C72,-474 30,-474 30,-474 27,-474 24,-471 24,-468 24,-468 24,-462 24,-462 24,-459 27,-456 30,-456 30,-456 72,-456 72,-456 75,-456 78,-459 78,-462 78,-462 78,-468 78,-468 78,-471 75,-474 72,-474"/>
<text text-anchor="start" x="33.5" y="-462.8" font-family="Helvetica,sans-Serif" font-size="9.00" fill="gray">format.js</text>
</a>
</g>
</g>
<!-- src/cli/format.js&#45;&gt;src/main/index.js -->
<g id="edge3" class="edge">
<title>src/cli/format.js&#45;&gt;src/main/index.js</title>
<path fill="none" stroke="#000000" stroke-width="2" stroke-opacity="0.200000" d="M78.14,-462.67C78.14,-462.67 239.74,-462.67 239.74,-462.67"/>
<polygon fill="#000000" fill-opacity="0.200000" stroke="#000000" stroke-width="2" stroke-opacity="0.200000" points="239.74,-464.77 245.74,-462.67 239.74,-460.57 239.74,-464.77"/>
</g>
<!-- src/cli/index.js -->
<g id="node6" class="node">
<title>src/cli/index.js</title>
<g id="a_node6"><a xlink:href="src/cli/index.js" xlink:title="index.js">
<path fill="lightgray" stroke="black" d="M72,-504C72,-504 30,-504 30,-504 27,-504 24,-501 24,-498 24,-498 24,-492 24,-492 24,-489 27,-486 30,-486 30,-486 72,-486 72,-486 75,-486 78,-489 78,-492 78,-492 78,-498 78,-498 78,-501 75,-504 72,-504"/>
<text text-anchor="start" x="35" y="-492.8" font-family="Helvetica,sans-Serif" font-size="9.00" fill="gray">index.js</text>
</a>
</g>
</g>
<!-- src/cli/index.js&#45;&gt;src/cli/format&#45;meta&#45;info.js -->
<g id="edge6" class="edge">
<title>src/cli/index.js&#45;&gt;src/cli/format&#45;meta&#45;info.js</title>
<path fill="none" stroke="#000000" stroke-width="2" stroke-opacity="0.200000" d="M78.21,-498C78.21,-498 81.76,-498 81.76,-498"/>
<polygon fill="#000000" fill-opacity="0.200000" stroke="#000000" stroke-width="2" stroke-opacity="0.200000" points="81.76,-500.1 87.76,-498 81.76,-495.9 81.76,-500.1"/>
</g>
<!-- src/cli/index.js&#45;&gt;src/main/index.js -->
<g id="edge4" class="edge">
<title>src/cli/index.js&#45;&gt;src/main/index.js</title>
<path fill="none" stroke="#000000" stroke-width="2" stroke-opacity="0.200000" d="M78.44,-492C82.31,-492 85,-492 85,-492 85,-492 85,-468.33 85,-468.33 85,-468.33 239.61,-468.33 239.61,-468.33"/>
<polygon fill="#000000" fill-opacity="0.200000" stroke="#000000" stroke-width="2" stroke-opacity="0.200000" points="239.61,-470.43 245.61,-468.33 239.61,-466.23 239.61,-470.43"/>
</g>
<!-- src/cli/index.js&#45;&gt;src/utl/bus.js -->
<g id="edge5" class="edge">
<title>src/cli/index.js&#45;&gt;src/utl/bus.js</title>
<path fill="none" stroke="#000000" stroke-width="2" stroke-opacity="0.200000" d="M51,-504.46C51,-515.12 51,-531 51,-531 51,-531 681,-531 681,-531 681,-531 681,-708.52 681,-708.52"/>
<polygon fill="#000000" fill-opacity="0.200000" stroke="#000000" stroke-width="2" stroke-opacity="0.200000" points="678.9,-708.52 681,-714.52 683.1,-708.52 678.9,-708.52"/>
</g>
<!-- src/config&#45;utl/extract&#45;depcruise&#45;config/index.js -->
<g id="node8" class="node">
<title>src/config&#45;utl/extract&#45;depcruise&#45;config/index.js</title>
<g id="a_node8"><a xlink:href="src/config-utl/extract-depcruise-config/index.js" xlink:title="index.js">
<path fill="lightgray" stroke="black" d="M297,-196C297,-196 255,-196 255,-196 252,-196 249,-193 249,-190 249,-190 249,-184 249,-184 249,-181 252,-178 255,-178 255,-178 297,-178 297,-178 300,-178 303,-181 303,-184 303,-184 303,-190 303,-190 303,-193 300,-196 297,-196"/>
<text text-anchor="start" x="260" y="-184.8" font-family="Helvetica,sans-Serif" font-size="9.00" fill="gray">index.js</text>
</a>
</g>
</g>
<!-- src/config&#45;utl/extract&#45;depcruise&#45;config/index.js&#45;&gt;src/main/resolve&#45;options/normalize.js -->
<g id="edge7" class="edge">
<title>src/config&#45;utl/extract&#45;depcruise&#45;config/index.js&#45;&gt;src/main/resolve&#45;options/normalize.js</title>
<path fill="none" stroke="#000000" stroke-width="2" stroke-opacity="0.200000" d="M288,-196.18C288,-223.76 288,-304 288,-304 288,-304 375.49,-304 375.49,-304"/>
<polygon fill="#000000" fill-opacity="0.200000" stroke="#000000" stroke-width="2" stroke-opacity="0.200000" points="375.49,-306.1 381.49,-304 375.49,-301.9 375.49,-306.1"/>
</g>
<!-- src/main/resolve&#45;options/normalize.js&#45;&gt;src/extract/transpile/meta.js -->
<g id="edge33" class="edge">
<title>src/main/resolve&#45;options/normalize.js&#45;&gt;src/extract/transpile/meta.js</title>
<path fill="none" stroke="#000000" stroke-width="2" stroke-opacity="0.200000" d="M451.43,-310C458.56,-310 464,-310 464,-310 464,-310 464,-672 464,-672 464,-672 512.27,-672 512.27,-672"/>
<polygon fill="#000000" fill-opacity="0.200000" stroke="#000000" stroke-width="2" stroke-opacity="0.200000" points="512.27,-674.1 518.27,-672 512.27,-669.9 512.27,-674.1"/>
</g>
<!-- src/graph&#45;utl/rule&#45;set.js -->
<g id="node16" class="node">
<title>src/graph&#45;utl/rule&#45;set.js</title>
<g id="a_node16"><a xlink:href="src/graph-utl/rule-set.js" xlink:title="rule&#45;set.js">
<path fill="lightgray" stroke="black" d="M712,-162C712,-162 668,-162 668,-162 665,-162 662,-159 662,-156 662,-156 662,-150 662,-150 662,-147 665,-144 668,-144 668,-144 712,-144 712,-144 715,-144 718,-147 718,-150 718,-150 718,-156 718,-156 718,-159 715,-162 712,-162"/>
<text text-anchor="start" x="670" y="-150.8" font-family="Helvetica,sans-Serif" font-size="9.00" fill="gray">rule&#45;set.js</text>
</a>
</g>
</g>
<!-- src/main/resolve&#45;options/normalize.js&#45;&gt;src/graph&#45;utl/rule&#45;set.js -->
<g id="edge34" class="edge">
<title>src/main/resolve&#45;options/normalize.js&#45;&gt;src/graph&#45;utl/rule&#45;set.js</title>
<path fill="none" stroke="#000000" stroke-width="2" stroke-opacity="0.200000" d="M451.22,-304C463.28,-304 474,-304 474,-304 474,-304 474,-158.5 474,-158.5 474,-158.5 652.73,-158.5 652.73,-158.5"/>
<polygon fill="#000000" fill-opacity="0.200000" stroke="#000000" stroke-width="2" stroke-opacity="0.200000" points="652.73,-160.6 658.73,-158.5 652.73,-156.4 652.73,-160.6"/>
</g>
<!-- src/enrich/summarize/index.js -->
<g id="node11" class="node">
<title>src/enrich/summarize/index.js</title>
<g id="a_node11"><a xlink:href="src/enrich/summarize/index.js" xlink:title="index.js">
<path fill="lightgray" stroke="black" d="M569.5,-142C569.5,-142 527.5,-142 527.5,-142 524.5,-142 521.5,-139 521.5,-136 521.5,-136 521.5,-130 521.5,-130 521.5,-127 524.5,-124 527.5,-124 527.5,-124 569.5,-124 569.5,-124 572.5,-124 575.5,-127 575.5,-130 575.5,-130 575.5,-136 575.5,-136 575.5,-139 572.5,-142 569.5,-142"/>
<text text-anchor="start" x="532.5" y="-130.8" font-family="Helvetica,sans-Serif" font-size="9.00" fill="gray">index.js</text>
</a>
</g>
</g>
<!-- src/enrich/index.js&#45;&gt;src/enrich/summarize/index.js -->
<g id="edge8" class="edge">
<title>src/enrich/index.js&#45;&gt;src/enrich/summarize/index.js</title>
<path fill="none" stroke="#000000" stroke-width="2" stroke-opacity="0.200000" d="M418,-136.75C418,-132.48 418,-128.33 418,-128.33 418,-128.33 512.12,-128.33 512.12,-128.33"/>
<polygon fill="#000000" fill-opacity="0.200000" stroke="#000000" stroke-width="2" stroke-opacity="0.200000" points="512.12,-130.43 518.12,-128.33 512.12,-126.23 512.12,-130.43"/>
</g>
<!-- src/graph&#45;utl/compare.js -->
<g id="node12" class="node">
<title>src/graph&#45;utl/compare.js</title>
<g id="a_node12"><a xlink:href="src/graph-utl/compare.js" xlink:title="compare.js">
<path fill="lightgray" stroke="black" d="M715,-42C715,-42 665,-42 665,-42 662,-42 659,-39 659,-36 659,-36 659,-30 659,-30 659,-27 662,-24 665,-24 665,-24 715,-24 715,-24 718,-24 721,-27 721,-30 721,-30 721,-36 721,-36 721,-39 718,-42 715,-42"/>
<text text-anchor="start" x="667" y="-30.8" font-family="Helvetica,sans-Serif" font-size="9.00" fill="gray">compare.js</text>
</a>
</g>
</g>
<!-- src/enrich/summarize/index.js&#45;&gt;src/graph&#45;utl/compare.js -->
<g id="edge9" class="edge">
<title>src/enrich/summarize/index.js&#45;&gt;src/graph&#45;utl/compare.js</title>
<path fill="none" stroke="#000000" stroke-width="2" stroke-opacity="0.200000" d="M549,-123.7C549,-99.42 549,-36 549,-36 549,-36 649.68,-36 649.68,-36"/>
<polygon fill="#000000" fill-opacity="0.200000" stroke="#000000" stroke-width="2" stroke-opacity="0.200000" points="649.68,-38.1 655.68,-36 649.68,-33.9 649.68,-38.1"/>
</g>
<!-- src/extract/index.js&#45;&gt;src/utl/bus.js -->
<g id="edge10" class="edge">
<title>src/extract/index.js&#45;&gt;src/utl/bus.js</title>
<path fill="none" stroke="#000000" stroke-width="2" stroke-opacity="0.200000" d="M575.78,-727C575.78,-727 653.77,-727 653.77,-727"/>
<polygon fill="#000000" fill-opacity="0.200000" stroke="#000000" stroke-width="2" stroke-opacity="0.200000" points="653.77,-729.1 659.77,-727 653.77,-724.9 653.77,-729.1"/>
</g>
<!-- src/graph&#45;utl/consolidate&#45;to&#45;pattern.js -->
<g id="node14" class="node">
<title>src/graph&#45;utl/consolidate&#45;to&#45;pattern.js</title>
<g id="a_node14"><a xlink:href="src/graph-utl/consolidate-to-pattern.js" xlink:title="consolidate&#45;to&#45;pattern.js">
<path fill="lightgray" stroke="black" d="M741.5,-132C741.5,-132 638.5,-132 638.5,-132 635.5,-132 632.5,-129 632.5,-126 632.5,-126 632.5,-120 632.5,-120 632.5,-117 635.5,-114 638.5,-114 638.5,-114 741.5,-114 741.5,-114 744.5,-114 747.5,-117 747.5,-120 747.5,-120 747.5,-126 747.5,-126 747.5,-129 744.5,-132 741.5,-132"/>
<text text-anchor="start" x="640.5" y="-120.8" font-family="Helvetica,sans-Serif" font-size="9.00" fill="gray">consolidate&#45;to&#45;pattern.js</text>
</a>
</g>
</g>
<!-- src/graph&#45;utl/filter&#45;bank.js -->
<g id="node15" class="node">
<title>src/graph&#45;utl/filter&#45;bank.js</title>
<g id="a_node15"><a xlink:href="src/graph-utl/filter-bank.js" xlink:title="filter&#45;bank.js">
<path fill="lightgray" stroke="black" d="M717,-102C717,-102 663,-102 663,-102 660,-102 657,-99 657,-96 657,-96 657,-90 657,-90 657,-87 660,-84 663,-84 663,-84 717,-84 717,-84 720,-84 723,-87 723,-90 723,-90 723,-96 723,-96 723,-99 720,-102 717,-102"/>
<text text-anchor="start" x="665" y="-90.8" font-family="Helvetica,sans-Serif" font-size="9.00" fill="gray">filter&#45;bank.js</text>
</a>
</g>
</g>
<!-- src/graph&#45;utl/strip&#45;self&#45;transitions.js -->
<g id="node17" class="node">
<title>src/graph&#45;utl/strip&#45;self&#45;transitions.js</title>
<g id="a_node17"><a xlink:href="src/graph-utl/strip-self-transitions.js" xlink:title="strip&#45;self&#45;transitions.js">
<path fill="lightgray" stroke="black" d="M736.5,-72C736.5,-72 643.5,-72 643.5,-72 640.5,-72 637.5,-69 637.5,-66 637.5,-66 637.5,-60 637.5,-60 637.5,-57 640.5,-54 643.5,-54 643.5,-54 736.5,-54 736.5,-54 739.5,-54 742.5,-57 742.5,-60 742.5,-60 742.5,-66 742.5,-66 742.5,-69 739.5,-72 736.5,-72"/>
<text text-anchor="start" x="645.5" y="-60.8" font-family="Helvetica,sans-Serif" font-size="9.00" fill="gray">strip&#45;self&#45;transitions.js</text>
</a>
</g>
</g>
<!-- src/main/options/defaults.js -->
<g id="node25" class="node">
<title>src/main/options/defaults.js</title>
<g id="a_node25"><a xlink:href="src/main/options/defaults.js" xlink:title="defaults.js">
<path fill="lime" stroke="black" d="M713,-390C713,-390 667,-390 667,-390 664,-390 661,-387 661,-384 661,-384 661,-378 661,-378 661,-375 664,-372 667,-372 667,-372 713,-372 713,-372 716,-372 719,-375 719,-378 719,-378 719,-384 719,-384 719,-387 716,-390 713,-390"/>
<text text-anchor="start" x="669" y="-378.8" font-family="Helvetica,sans-Serif" font-size="9.00">defaults.js</text>
</a>
</g>
</g>
<!-- src/main/options/normalize.js&#45;&gt;src/main/options/defaults.js -->
<g id="edge25" class="edge">
<title>src/main/options/normalize.js&#45;&gt;src/main/options/defaults.js</title>
<path fill="none" stroke="#000000" stroke-width="2" stroke-opacity="0.200000" d="M581.68,-378C581.68,-378 651.84,-378 651.84,-378"/>
<polygon fill="#000000" fill-opacity="0.200000" stroke="#000000" stroke-width="2" stroke-opacity="0.200000" points="651.84,-380.1 657.84,-378 651.84,-375.9 651.84,-380.1"/>
</g>
<!-- src/main/utl/normalize&#45;re&#45;properties.js -->
<g id="node26" class="node">
<title>src/main/utl/normalize&#45;re&#45;properties.js</title>
<g id="a_node26"><a xlink:href="src/main/utl/normalize-re-properties.js" xlink:title="normalize&#45;re&#45;properties.js">
<path fill="lime" stroke="black" d="M745,-460C745,-460 635,-460 635,-460 632,-460 629,-457 629,-454 629,-454 629,-448 629,-448 629,-445 632,-442 635,-442 635,-442 745,-442 745,-442 748,-442 751,-445 751,-448 751,-448 751,-454 751,-454 751,-457 748,-460 745,-460"/>
<text text-anchor="start" x="637" y="-448.8" font-family="Helvetica,sans-Serif" font-size="9.00">normalize&#45;re&#45;properties.js</text>
</a>
</g>
</g>
<!-- src/main/options/normalize.js&#45;&gt;src/main/utl/normalize&#45;re&#45;properties.js -->
<g id="edge24" class="edge">
<title>src/main/options/normalize.js&#45;&gt;src/main/utl/normalize&#45;re&#45;properties.js</title>
<path fill="none" stroke="#000000" stroke-width="2" stroke-opacity="0.200000" d="M581.85,-384C610.42,-384 647,-384 647,-384 647,-384 647,-432.66 647,-432.66"/>
<polygon fill="#000000" fill-opacity="0.200000" stroke="#000000" stroke-width="2" stroke-opacity="0.200000" points="644.9,-432.66 647,-438.66 649.1,-432.66 644.9,-432.66"/>
</g>
<!-- src/report/index.js -->
<g id="node27" class="node">
<title>src/report/index.js</title>
<g id="a_node27"><a xlink:href="src/report/index.js" xlink:title="index.js">
<path fill="lightgray" stroke="black" d="M711,-222C711,-222 669,-222 669,-222 666,-222 663,-219 663,-216 663,-216 663,-210 663,-210 663,-207 666,-204 669,-204 669,-204 711,-204 711,-204 714,-204 717,-207 717,-210 717,-210 717,-216 717,-216 717,-219 714,-222 711,-222"/>
<text text-anchor="start" x="674" y="-210.8" font-family="Helvetica,sans-Serif" font-size="9.00" fill="gray">index.js</text>
</a>
</g>
</g>
<!-- src/main/options/validate.js&#45;&gt;src/report/index.js -->
<g id="edge26" class="edge">
<title>src/main/options/validate.js&#45;&gt;src/report/index.js</title>
<path fill="none" stroke="#000000" stroke-width="2" stroke-opacity="0.200000" d="M577.82,-351C619.27,-351 690,-351 690,-351 690,-351 690,-231.51 690,-231.51"/>
<polygon fill="#000000" fill-opacity="0.200000" stroke="#000000" stroke-width="2" stroke-opacity="0.200000" points="692.1,-231.51 690,-225.51 687.9,-231.51 692.1,-231.51"/>
</g>
<!-- src/main/report&#45;wrap.js&#45;&gt;src/enrich/summarize/index.js -->
<g id="edge27" class="edge">
<title>src/main/report&#45;wrap.js&#45;&gt;src/enrich/summarize/index.js</title>
<path fill="none" stroke="#000000" stroke-width="2" stroke-opacity="0.200000" d="M451,-263.79C451,-232.57 451,-132.67 451,-132.67 451,-132.67 512.05,-132.67 512.05,-132.67"/>
<polygon fill="#000000" fill-opacity="0.200000" stroke="#000000" stroke-width="2" stroke-opacity="0.200000" points="512.05,-134.77 518.05,-132.67 512.05,-130.57 512.05,-134.77"/>
</g>
<!-- src/main/report&#45;wrap.js&#45;&gt;src/graph&#45;utl/compare.js -->
<g id="edge28" class="edge">
<title>src/main/report&#45;wrap.js&#45;&gt;src/graph&#45;utl/compare.js</title>
<path fill="none" stroke="#000000" stroke-width="2" stroke-opacity="0.200000" d="M385,-263.77C385,-219.38 385,-30 385,-30 385,-30 649.48,-30 649.48,-30"/>
<polygon fill="#000000" fill-opacity="0.200000" stroke="#000000" stroke-width="2" stroke-opacity="0.200000" points="649.48,-32.1 655.48,-30 649.48,-27.9 649.48,-32.1"/>
</g>
<!-- src/main/report&#45;wrap.js&#45;&gt;src/graph&#45;utl/consolidate&#45;to&#45;pattern.js -->
<g id="edge29" class="edge">
<title>src/main/report&#45;wrap.js&#45;&gt;src/graph&#45;utl/consolidate&#45;to&#45;pattern.js</title>
<path fill="none" stroke="#000000" stroke-width="2" stroke-opacity="0.200000" d="M449,-263.83C449,-230.67 449,-119 449,-119 449,-119 623.25,-119 623.25,-119"/>
<polygon fill="#000000" fill-opacity="0.200000" stroke="#000000" stroke-width="2" stroke-opacity="0.200000" points="623.25,-121.1 629.25,-119 623.25,-116.9 623.25,-121.1"/>
</g>
<!-- src/main/report&#45;wrap.js&#45;&gt;src/graph&#45;utl/filter&#45;bank.js -->
<g id="edge30" class="edge">
<title>src/main/report&#45;wrap.js&#45;&gt;src/graph&#45;utl/filter&#45;bank.js</title>
<path fill="none" stroke="#000000" stroke-width="2" stroke-opacity="0.200000" d="M447,-263.83C447,-227.15 447,-93 447,-93 447,-93 647.69,-93 647.69,-93"/>
<polygon fill="#000000" fill-opacity="0.200000" stroke="#000000" stroke-width="2" stroke-opacity="0.200000" points="647.69,-95.1 653.69,-93 647.69,-90.9 647.69,-95.1"/>
</g>
<!-- src/main/report&#45;wrap.js&#45;&gt;src/graph&#45;utl/strip&#45;self&#45;transitions.js -->
<g id="edge31" class="edge">
<title>src/main/report&#45;wrap.js&#45;&gt;src/graph&#45;utl/strip&#45;self&#45;transitions.js</title>
<path fill="none" stroke="#000000" stroke-width="2" stroke-opacity="0.200000" d="M388,-263.71C388,-223.06 388,-63 388,-63 388,-63 628.02,-63 628.02,-63"/>
<polygon fill="#000000" fill-opacity="0.200000" stroke="#000000" stroke-width="2" stroke-opacity="0.200000" points="628.02,-65.1 634.02,-63 628.02,-60.9 628.02,-65.1"/>
</g>
<!-- src/main/report&#45;wrap.js&#45;&gt;src/report/index.js -->
<g id="edge32" class="edge">
<title>src/main/report&#45;wrap.js&#45;&gt;src/report/index.js</title>
<path fill="none" stroke="#000000" stroke-width="2" stroke-opacity="0.200000" d="M453,-263.62C453,-246.75 453,-213 453,-213 453,-213 653.79,-213 653.79,-213"/>
<polygon fill="#000000" fill-opacity="0.200000" stroke="#000000" stroke-width="2" stroke-opacity="0.200000" points="653.79,-215.1 659.79,-213 653.79,-210.9 653.79,-215.1"/>
</g>
<!-- src/main/rule&#45;set/normalize.js&#45;&gt;src/main/utl/normalize&#45;re&#45;properties.js -->
<g id="edge35" class="edge">
<title>src/main/rule&#45;set/normalize.js&#45;&gt;src/main/utl/normalize&#45;re&#45;properties.js</title>
<path fill="none" stroke="#000000" stroke-width="2" stroke-opacity="0.200000" d="M451.15,-481C514.39,-481 646,-481 646,-481 646,-481 646,-469.52 646,-469.52"/>
<polygon fill="#000000" fill-opacity="0.200000" stroke="#000000" stroke-width="2" stroke-opacity="0.200000" points="648.1,-469.52 646,-463.52 643.9,-469.52 648.1,-469.52"/>
</g>
<!-- src/main/rule&#45;set/validate.js&#45;&gt;src/main/options/validate.js -->
<g id="edge37" class="edge">
<title>src/main/rule&#45;set/validate.js&#45;&gt;src/main/options/validate.js</title>
<path fill="none" stroke="#000000" stroke-width="2" stroke-opacity="0.200000" d="M447.46,-446.5C464.66,-446.5 483,-446.5 483,-446.5 483,-446.5 483,-354 483,-354 483,-354 510.17,-354 510.17,-354"/>
<polygon fill="#000000" fill-opacity="0.200000" stroke="#000000" stroke-width="2" stroke-opacity="0.200000" points="510.17,-356.1 516.17,-354 510.17,-351.9 510.17,-356.1"/>
</g>
<!-- src/main/rule&#45;set/validate.js&#45;&gt;src/main/utl/normalize&#45;re&#45;properties.js -->
<g id="edge38" class="edge">
<title>src/main/rule&#45;set/validate.js&#45;&gt;src/main/utl/normalize&#45;re&#45;properties.js</title>
<path fill="none" stroke="#000000" stroke-width="2" stroke-opacity="0.200000" d="M447.37,-451C447.37,-451 619.53,-451 619.53,-451"/>
<polygon fill="#000000" fill-opacity="0.200000" stroke="#000000" stroke-width="2" stroke-opacity="0.200000" points="619.53,-453.1 625.53,-451 619.53,-448.9 619.53,-453.1"/>
</g>
<!-- src/schema/configuration.schema.js -->
<g id="node28" class="node">
<title>src/schema/configuration.schema.js</title>
<g id="a_node28"><a xlink:href="src/schema/configuration.schema.js" xlink:title="configuration.schema.js">
<path fill="lightgray" stroke="black" d="M599,-576C599,-576 498,-576 498,-576 495,-576 492,-573 492,-570 492,-570 492,-564 492,-564 492,-561 495,-558 498,-558 498,-558 599,-558 599,-558 602,-558 605,-561 605,-564 605,-564 605,-570 605,-570 605,-573 602,-576 599,-576"/>
<text text-anchor="start" x="500" y="-564.8" font-family="Helvetica,sans-Serif" font-size="9.00" fill="gray">configuration.schema.js</text>
</a>
</g>
</g>
<!-- src/main/rule&#45;set/validate.js&#45;&gt;src/schema/configuration.schema.js -->
<g id="edge36" class="edge">
<title>src/main/rule&#45;set/validate.js&#45;&gt;src/schema/configuration.schema.js</title>
<path fill="none" stroke="#000000" stroke-width="2" stroke-opacity="0.200000" d="M447.12,-455.5C472.06,-455.5 504,-455.5 504,-455.5 504,-455.5 504,-548.85 504,-548.85"/>
<polygon fill="#000000" fill-opacity="0.200000" stroke="#000000" stroke-width="2" stroke-opacity="0.200000" points="501.9,-548.85 504,-554.85 506.1,-548.85 501.9,-548.85"/>
</g>
</g>
</svg>
