<svg xmlns="http://www.w3.org/2000/svg" xmlns:xlink="http://www.w3.org/1999/xlink" width="953pt" height="700pt" viewBox="0 0 952.88 700"><g class="graph" transform="translate(4 696)"><path fill="#fff" d="M-4 4v-700h952.88V4z"/><g class="cluster"><path fill="#fff" stroke="#000" stroke-width="2" d="M20-8h904.88c6 0 12-6 12-12v-652c0-6-6-12-12-12H20c-6 0-12 6-12 12v652c0 6 6 12 12 12"/><text x="472.44" y="-671.45" font-family="Helvetica,sans-Serif" font-size="9" font-weight="bold" text-anchor="middle">src</text></g><g class="cluster"><path fill="#fff" stroke="#000" stroke-width="2" d="M470-556h49.25c6 0 12-6 12-12v-28c0-6-6-12-12-12H470c-6 0-12 6-12 12v28c0 6 6 12 12 12"/><text x="494.62" y="-595.45" font-family="Helvetica,sans-Serif" font-size="9" font-weight="bold" text-anchor="middle">cache</text></g><g class="cluster"><path fill="#fff" stroke="#000" stroke-width="2" d="M28-278h162.25c6 0 12-6 12-12v-58c0-6-6-12-12-12H28c-6 0-12 6-12 12v58c0 6 6 12 12 12"/><text x="109.12" y="-347.45" font-family="Helvetica,sans-Serif" font-size="9" font-weight="bold" text-anchor="middle">cli</text></g><g class="cluster"><path fill="#fff" stroke="#000" stroke-width="2" d="M301.25-16h113c6 0 12-6 12-12v-62c0-6-6-12-12-12h-113c-6 0-12 6-12 12v62c0 6 6 12 12 12"/><text x="357.75" y="-89.45" font-family="Helvetica,sans-Serif" font-size="9" font-weight="bold" text-anchor="middle">config-utl</text></g><g class="cluster"><path fill="#fff" stroke="#000" stroke-width="2" d="M309.25-24h97c6 0 12-6 12-12v-28c0-6-6-12-12-12h-97c-6 0-12 6-12 12v28c0 6 6 12 12 12"/><text x="357.75" y="-63.45" font-family="Helvetica,sans-Serif" font-size="9" font-weight="bold" text-anchor="middle">extract-depcruise-config</text></g><g class="cluster"><path fill="#fff" stroke="#000" stroke-width="2" d="M599.62-418h166.63c6 0 12-6 12-12v-62c0-6-6-12-12-12H599.62c-6 0-12 6-12 12v62c0 6 6 12 12 12"/><text x="682.94" y="-491.45" font-family="Helvetica,sans-Serif" font-size="9" font-weight="bold" text-anchor="middle">enrich</text></g><g class="cluster"><path fill="#fff" stroke="#000" stroke-width="2" d="M711.25-426h47c6 0 12-6 12-12v-28c0-6-6-12-12-12h-47c-6 0-12 6-12 12v28c0 6 6 12 12 12"/><text x="734.75" y="-465.45" font-family="Helvetica,sans-Serif" font-size="9" font-weight="bold" text-anchor="middle">summarize</text></g><g class="cluster"><path fill="#fff" stroke="#000" stroke-width="2" d="M592.12-522h62c6 0 12-6 12-12v-88c0-6-6-12-12-12h-62c-6 0-12 6-12 12v88c0 6 6 12 12 12"/><text x="623.12" y="-621.45" font-family="Helvetica,sans-Serif" font-size="9" font-weight="bold" text-anchor="middle">extract</text></g><g class="cluster"><path fill="#fff" stroke="#000" stroke-width="2" d="M600.12-556h46c6 0 12-6 12-12v-28c0-6-6-12-12-12h-46c-6 0-12 6-12 12v28c0 6 6 12 12 12"/><text x="623.12" y="-595.45" font-family="Helvetica,sans-Serif" font-size="9" font-weight="bold" text-anchor="middle">transpile</text></g><g class="cluster"><path fill="#fff" stroke="#000" stroke-width="2" d="M803.12-87h113.76c6 0 12-6 12-12v-148c0-6-6-12-12-12H803.12c-6 0-12 6-12 12v148c0 6 6 12 12 12"/><text x="860" y="-246.45" font-family="Helvetica,sans-Serif" font-size="9" font-weight="bold" text-anchor="middle">graph-utl</text></g><g class="cluster"><path fill="#fff" stroke="#000" stroke-width="2" d="M222.25-110h548.87c6 0 12-6 12-12v-276c0-6-6-12-12-12H222.25c-6 0-12 6-12 12v276c0 6 6 12 12 12"/><text x="496.69" y="-397.45" font-family="Helvetica,sans-Serif" font-size="9" font-weight="bold" text-anchor="middle">main</text></g><g class="cluster"><path fill="#fff" stroke="#000" stroke-width="2" d="M462.12-242h65c6 0 12-6 12-12v-28c0-6-6-12-12-12h-65c-6 0-12 6-12 12v28c0 6 6 12 12 12"/><text x="494.62" y="-281.45" font-family="Helvetica,sans-Serif" font-size="9" font-weight="bold" text-anchor="middle">files-and-dirs</text></g><g class="cluster"><path fill="#fff" stroke="#000" stroke-width="2" d="M582.75-176h180.37c6 0 12-6 12-12v-58c0-6-6-12-12-12H582.75c-6 0-12 6-12 12v58c0 6 6 12 12 12"/><text x="672.94" y="-245.45" font-family="Helvetica,sans-Serif" font-size="9" font-weight="bold" text-anchor="middle">options</text></g><g class="cluster"><path fill="#fff" stroke="#000" stroke-width="2" d="M462.12-144h65c6 0 12-6 12-12v-28c0-6-6-12-12-12h-65c-6 0-12 6-12 12v28c0 6 6 12 12 12"/><text x="494.62" y="-183.45" font-family="Helvetica,sans-Serif" font-size="9" font-weight="bold" text-anchor="middle">resolve-options</text></g><g class="cluster"><path fill="#fff" stroke="#000" stroke-width="2" d="M454.25-302H535c6 0 12-6 12-12v-58c0-6-6-12-12-12h-80.75c-6 0-12 6-12 12v58c0 6 6 12 12 12"/><text x="494.62" y="-371.45" font-family="Helvetica,sans-Serif" font-size="9" font-weight="bold" text-anchor="middle">rule-set</text></g><g class="cluster"><path fill="#fff" stroke="#000" stroke-width="2" d="M711.25-50h47c6 0 12-6 12-12v-28c0-6-6-12-12-12h-47c-6 0-12 6-12 12v28c0 6 6 12 12 12"/><text x="734.75" y="-89.45" font-family="Helvetica,sans-Serif" font-size="9" font-weight="bold" text-anchor="middle">report</text></g><g class="cluster"><path fill="#fff" stroke="#000" stroke-width="2" d="M567-16h112.25c6 0 12-6 12-12v-58c0-6-6-12-12-12H567c-6 0-12 6-12 12v58c0 6 6 12 12 12"/><text x="623.12" y="-85.45" font-family="Helvetica,sans-Serif" font-size="9" font-weight="bold" text-anchor="middle">schema</text></g><g class="cluster"><path fill="#fff" stroke="#000" stroke-width="2" d="M711.75-564h46c6 0 12-6 12-12v-28c0-6-6-12-12-12h-46c-6 0-12 6-12 12v28c0 6 6 12 12 12"/><text x="734.75" y="-603.45" font-family="Helvetica,sans-Serif" font-size="9" font-weight="bold" text-anchor="middle">utl</text></g><g class="node"><a xlink:href="src/cache/cache.mjs" xlink:title="cache.mjs"><path fill="#d3d3d3" stroke="#000" d="M517.33-581.88h-45.41c-2.96 0-5.92 2.96-5.92 5.92v5.92c0 2.96 2.96 5.92 5.92 5.92h45.41c2.96 0 5.92-2.96 5.92-5.92v-5.92c0-2.96-2.96-5.92-5.92-5.92"/><text x="474" y="-569.33" fill="gray" font-family="Helvetica,sans-Serif" font-size="9">cache.mjs</text></a></g><g class="node"><a xlink:href="src/extract/transpile/meta.mjs" xlink:title="meta.mjs"><path fill="#d3d3d3" stroke="#000" d="M644.21-581.88h-42.17c-2.96 0-5.92 2.96-5.92 5.92v5.92c0 2.96 2.96 5.92 5.92 5.92h42.17c2.96 0 5.91-2.96 5.91-5.92v-5.92c0-2.96-2.95-5.92-5.91-5.92"/><text x="604.75" y="-569.33" fill="gray" font-family="Helvetica,sans-Serif" font-size="9">meta.mjs</text></a></g><g class="edge"><path fill="none" stroke="#000" stroke-opacity=".2" stroke-width="2" d="M523.46-575.96h63.22"/><path fill-opacity=".2" stroke="#000" stroke-opacity=".2" stroke-width="2" d="m586.68-578.06 6 2.1-6 2.1z"/></g><g class="node"><a xlink:href="src/utl/bus.mjs" xlink:title="bus.mjs"><path fill="#d3d3d3" stroke="#000" d="M755.83-589.88h-42.16c-2.96 0-5.92 2.96-5.92 5.92v5.92c0 2.96 2.96 5.92 5.92 5.92h42.16c2.96 0 5.92-2.96 5.92-5.92v-5.92c0-2.96-2.96-5.92-5.92-5.92"/><text x="719" y="-577.33" fill="gray" font-family="Helvetica,sans-Serif" font-size="9">bus.mjs</text></a></g><g class="edge"><path fill="none" stroke="#000" stroke-opacity=".2" stroke-width="2" d="M494.88-582.18v-1.7h203.79"/><path fill-opacity=".2" stroke="#000" stroke-opacity=".2" stroke-width="2" d="m698.67-585.98 6 2.1-6 2.1z"/></g><g class="node"><a xlink:href="src/cli/format-meta-info.mjs" xlink:title="format-meta-info.mjs"><path fill="#d3d3d3" stroke="#000" d="M188.33-333.88h-87.41c-2.96 0-5.92 2.96-5.92 5.92v5.92c0 2.96 2.96 5.92 5.92 5.92h87.41c2.96 0 5.92-2.96 5.92-5.92v-5.92c0-2.96-2.96-5.92-5.92-5.92"/><text x="103" y="-321.32" fill="gray" font-family="Helvetica,sans-Serif" font-size="9">format-meta-info.mjs</text></a></g><g class="node"><a xlink:href="src/main/index.mjs" xlink:title="index.mjs"><path fill="#0f0" stroke="#000" d="M267.33-333.88h-43.16c-2.96 0-5.92 2.96-5.92 5.92v5.92c0 2.96 2.96 5.92 5.92 5.92h43.16c2.96 0 5.92-2.96 5.92-5.92v-5.92c0-2.96-2.96-5.92-5.92-5.92"/><text x="226.25" y="-321.32" font-family="Helvetica,sans-Serif" font-size="9">index.mjs</text></a></g><g class="edge"><path fill="none" stroke="#000" stroke-opacity=".2" stroke-width="2" d="M194.59-325h14.4"/><path fill-opacity=".2" stroke="#000" stroke-opacity=".2" stroke-width="2" d="m208.99-327.1 6 2.1-6 2.1z"/></g><g class="edge"><path fill="none" stroke="#000" stroke-opacity=".2" stroke-width="2" d="M273.48-323.96h28.4V-556h322v-.77"/><path fill-opacity=".2" stroke="#000" stroke-opacity=".2" stroke-width="2" d="m621.78-554.68 2.1-6 2.1 6z"/></g><g class="node"><a xlink:href="src/main/format.mjs" xlink:title="format.mjs"><path fill="#0f0" stroke="#000" d="M517.71-135.88h-46.17c-2.96 0-5.92 2.96-5.92 5.92v5.92c0 2.96 2.96 5.92 5.92 5.92h46.17c2.96 0 5.91-2.96 5.91-5.92v-5.92c0-2.96-2.95-5.92-5.91-5.92"/><text x="473.62" y="-123.33" font-family="Helvetica,sans-Serif" font-size="9">format.mjs</text></a></g><g class="edge"><path fill="none" stroke="#000" stroke-opacity=".2" stroke-width="2" d="M245.88-315.85v185.89h210.7"/><path fill-opacity=".2" stroke="#000" stroke-opacity=".2" stroke-width="2" d="m456.58-132.06 6 2.1-6 2.1z"/></g><g class="node"><a xlink:href="src/main/cruise.mjs" xlink:title="cruise.mjs"><path fill="#0f0" stroke="#000" d="M380.46-327.88h-45.42c-2.96 0-5.92 2.96-5.92 5.92v5.92c0 2.96 2.96 5.92 5.92 5.92h45.42c2.96 0 5.92-2.96 5.92-5.92v-5.92c0-2.96-2.96-5.92-5.92-5.92"/><text x="337.12" y="-315.32" font-family="Helvetica,sans-Serif" font-size="9">cruise.mjs</text></a></g><g class="edge"><path fill="none" stroke="#000" stroke-opacity=".2" stroke-width="2" d="M273.72-320.04h46.22"/><path fill-opacity=".2" stroke="#000" stroke-opacity=".2" stroke-width="2" d="m319.94-322.14 6 2.1-6 2.1z"/></g><g class="node"><a xlink:href="src/cli/format.mjs" xlink:title="format.mjs"><path fill="#d3d3d3" stroke="#000" d="M76.08-303.88H29.92c-2.96 0-5.92 2.96-5.92 5.92v5.92c0 2.96 2.96 5.92 5.92 5.92h46.16c2.96 0 5.92-2.96 5.92-5.92v-5.92c0-2.96-2.96-5.92-5.92-5.92"/><text x="32" y="-291.32" fill="gray" font-family="Helvetica,sans-Serif" font-size="9">format.mjs</text></a></g><g class="edge"><path fill="none" stroke="#000" stroke-opacity=".2" stroke-width="2" d="M53.88-285.81v161.77h402.46"/><path fill-opacity=".2" stroke="#000" stroke-opacity=".2" stroke-width="2" d="m456.34-126.14 6 2.1-6 2.1z"/></g><g class="node"><a xlink:href="src/main/options/assert-validity.mjs" xlink:title="assert-validity.mjs"><path fill="#0f0" stroke="#000" d="M661.58-201.88h-76.91c-2.96 0-5.92 2.96-5.92 5.92v5.92c0 2.96 2.96 5.92 5.92 5.92h76.91c2.96 0 5.92-2.96 5.92-5.92v-5.92c0-2.96-2.96-5.92-5.92-5.92"/><text x="586.75" y="-189.32" font-family="Helvetica,sans-Serif" font-size="9">assert-validity.mjs</text></a></g><g class="edge"><path fill="none" stroke="#000" stroke-opacity=".2" stroke-width="2" d="M524.03-128.71h33.85v-61.33h11.61"/><path fill-opacity=".2" stroke="#000" stroke-opacity=".2" stroke-width="2" d="m569.49-192.14 6 2.1-6 2.1z"/></g><g class="node"><a xlink:href="src/main/options/normalize.mjs" xlink:title="normalize.mjs"><path fill="#0f0" stroke="#000" d="M653.71-231.88h-61.17c-2.96 0-5.92 2.96-5.92 5.92v5.92c0 2.96 2.96 5.92 5.92 5.92h61.17c2.96 0 5.91-2.96 5.91-5.92v-5.92c0-2.96-2.95-5.92-5.91-5.92"/><text x="594.62" y="-219.32" font-family="Helvetica,sans-Serif" font-size="9">normalize.mjs</text></a></g><g class="edge"><path fill="none" stroke="#000" stroke-opacity=".2" stroke-width="2" d="M523.92-132.29h27.96v-87.75h25.34"/><path fill-opacity=".2" stroke="#000" stroke-opacity=".2" stroke-width="2" d="m577.22-222.14 6 2.1-6 2.1z"/></g><g class="node"><a xlink:href="src/main/report-wrap.mjs" xlink:title="report-wrap.mjs"><path fill="#0f0" stroke="#000" d="M657.08-157.88h-67.91c-2.96 0-5.92 2.96-5.92 5.92v5.92c0 2.96 2.96 5.92 5.92 5.92h67.91c2.96 0 5.92-2.96 5.92-5.92v-5.92c0-2.96-2.96-5.92-5.92-5.92"/><text x="591.25" y="-145.32" font-family="Helvetica,sans-Serif" font-size="9">report-wrap.mjs</text></a></g><g class="edge"><path fill="none" stroke="#000" stroke-opacity=".2" stroke-width="2" d="M494.88-136.36v-7.76h78.99"/><path fill-opacity=".2" stroke="#000" stroke-opacity=".2" stroke-width="2" d="m573.87-146.23 6 2.1-6 2.1z"/></g><g class="node"><a xlink:href="src/schema/cruise-result.schema.mjs" xlink:title="cruise-result.schema.mjs"><path fill="#d3d3d3" stroke="#000" d="M675.83-41.88H570.42c-2.96 0-5.92 2.96-5.92 5.92v5.92c0 2.96 2.96 5.92 5.92 5.92h105.41c2.96 0 5.92-2.96 5.92-5.92v-5.92c0-2.96-2.96-5.92-5.92-5.92"/><text x="572.5" y="-29.32" fill="gray" font-family="Helvetica,sans-Serif" font-size="9">cruise-result.schema.mjs</text></a></g><g class="edge"><path fill="none" stroke="#000" stroke-opacity=".2" stroke-width="2" d="M494.88-117.71V-37h60.35"/><path fill-opacity=".2" stroke="#000" stroke-opacity=".2" stroke-width="2" d="m555.23-39.1 6 2.1-6 2.1z"/></g><g class="node"><a xlink:href="src/cli/index.mjs" xlink:title="index.mjs"><path fill="#d3d3d3" stroke="#000" d="M74.58-333.88H31.42c-2.96 0-5.92 2.96-5.92 5.92v5.92c0 2.96 2.96 5.92 5.92 5.92h43.16c2.96 0 5.92-2.96 5.92-5.92v-5.92c0-2.96-2.96-5.92-5.92-5.92"/><text x="33.5" y="-321.32" fill="gray" font-family="Helvetica,sans-Serif" font-size="9">index.mjs</text></a></g><g class="edge"><path fill="none" stroke="#000" stroke-opacity=".2" stroke-width="2" d="M43.88-334.36v-253.52h654.76"/><path fill-opacity=".2" stroke="#000" stroke-opacity=".2" stroke-width="2" d="m698.64-589.98 6 2.1-6 2.1z"/></g><g class="edge"><path fill="none" stroke="#000" stroke-dasharray="5,2" stroke-opacity=".2" stroke-width="2" d="M80.99-325h4.82"/><path fill-opacity=".2" stroke="#000" stroke-opacity=".2" stroke-width="2" d="m85.81-327.1 6 2.1-6 2.1z"/></g><g class="edge"><path fill="none" stroke="#000" stroke-opacity=".2" stroke-width="2" d="M62.88-334.27v-10.19h275v7.24"/><path fill-opacity=".2" stroke="#000" stroke-opacity=".2" stroke-width="2" d="m339.98-337.22-2.1 6-2.1-6z"/></g><g class="edge"><path fill="none" stroke="#000" stroke-dasharray="5,2" stroke-opacity=".2" stroke-width="2" d="M353.88-328.34V-573h102.9"/><path fill-opacity=".2" stroke="#000" stroke-opacity=".2" stroke-width="2" d="m456.78-575.1 6 2.1-6 2.1z"/></g><g class="edge"><path fill="none" stroke="#000" stroke-opacity=".2" stroke-width="2" d="M345.88-328.19v-257.69h352.5"/><path fill-opacity=".2" stroke="#000" stroke-opacity=".2" stroke-width="2" d="m698.38-587.98 6 2.1-6 2.1z"/></g><g class="node"><a xlink:href="src/main/resolve-options/normalize.mjs" xlink:title="normalize.mjs"><path fill="#0f0" stroke="#000" d="M525.21-169.88h-61.17c-2.96 0-5.92 2.96-5.92 5.92v5.92c0 2.96 2.96 5.92 5.92 5.92h61.17c2.96 0 5.91-2.96 5.91-5.92v-5.92c0-2.96-2.95-5.92-5.91-5.92"/><text x="466.12" y="-157.32" font-family="Helvetica,sans-Serif" font-size="9">normalize.mjs</text></a></g><g class="edge"><path fill="none" stroke="#000" stroke-dasharray="5,2" stroke-opacity=".2" stroke-width="2" d="M348.88-310.05V-161h99.94"/><path fill-opacity=".2" stroke="#000" stroke-opacity=".2" stroke-width="2" d="m448.82-163.1 6 2.1-6 2.1z"/></g><g class="node"><a xlink:href="src/enrich/index.mjs" xlink:title="index.mjs"><path fill="#d3d3d3" stroke="#000" d="M644.71-447.88h-43.17c-2.96 0-5.92 2.96-5.92 5.92v5.92c0 2.96 2.96 5.92 5.92 5.92h43.17c2.96 0 5.91-2.96 5.91-5.92v-5.92c0-2.96-2.95-5.92-5.91-5.92"/><text x="603.62" y="-435.32" fill="gray" font-family="Helvetica,sans-Serif" font-size="9">index.mjs</text></a></g><g class="edge"><path fill="none" stroke="#000" stroke-dasharray="5,2" stroke-opacity=".2" stroke-width="2" d="M370.88-328.02V-439h215.26"/><path fill-opacity=".2" stroke="#000" stroke-opacity=".2" stroke-width="2" d="m586.14-441.1 6 2.1-6 2.1z"/></g><g class="node"><a xlink:href="src/extract/index.mjs" xlink:title="index.mjs"><path fill="#d3d3d3" stroke="#000" d="M644.71-547.88h-43.17c-2.96 0-5.92 2.96-5.92 5.92v5.92c0 2.96 2.96 5.92 5.92 5.92h43.17c2.96 0 5.91-2.96 5.91-5.92v-5.92c0-2.96-2.95-5.92-5.91-5.92"/><text x="603.62" y="-535.33" fill="gray" font-family="Helvetica,sans-Serif" font-size="9">index.mjs</text></a></g><g class="edge"><path fill="none" stroke="#000" stroke-dasharray="5,2" stroke-opacity=".2" stroke-width="2" d="M361.88-328.17V-539h224.26"/><path fill-opacity=".2" stroke="#000" stroke-opacity=".2" stroke-width="2" d="m586.14-541.1 6 2.1-6 2.1z"/></g><g class="node"><a xlink:href="src/main/files-and-dirs/normalize.mjs" xlink:title="normalize.mjs"><path fill="#0f0" stroke="#000" d="M525.21-267.88h-61.17c-2.96 0-5.92 2.96-5.92 5.92v5.92c0 2.96 2.96 5.92 5.92 5.92h61.17c2.96 0 5.91-2.96 5.91-5.92v-5.92c0-2.96-2.95-5.92-5.91-5.92"/><text x="466.12" y="-255.32" font-family="Helvetica,sans-Serif" font-size="9">normalize.mjs</text></a></g><g class="edge"><path fill="none" stroke="#000" stroke-dasharray="5,2" stroke-opacity=".2" stroke-width="2" d="M376.88-309.62V-259h71.78"/><path fill-opacity=".2" stroke="#000" stroke-opacity=".2" stroke-width="2" d="m448.66-261.1 6 2.1-6 2.1z"/></g><g class="edge"><path fill="none" stroke="#000" stroke-opacity=".2" stroke-width="2" d="M357.88-309.75v113.79H569.4"/><path fill-opacity=".2" stroke="#000" stroke-opacity=".2" stroke-width="2" d="m569.4-198.06 6 2.1-6 2.1z"/></g><g class="edge"><path fill="none" stroke="#000" stroke-opacity=".2" stroke-width="2" d="M367.88-309.74v83.78h209.37"/><path fill-opacity=".2" stroke="#000" stroke-opacity=".2" stroke-width="2" d="m577.25-228.06 6 2.1-6 2.1z"/></g><g class="edge"><path fill="none" stroke="#000" stroke-opacity=".2" stroke-width="2" d="M339.88-309.81v161.69h233.94"/><path fill-opacity=".2" stroke="#000" stroke-opacity=".2" stroke-width="2" d="m573.82-150.23 6 2.1-6 2.1z"/></g><g class="node"><a xlink:href="src/main/rule-set/assert-validity.mjs" xlink:title="assert-validity.mjs"><path fill="#0f0" stroke="#000" d="M533.08-327.88h-76.91c-2.96 0-5.92 2.96-5.92 5.92v5.92c0 2.96 2.96 5.92 5.92 5.92h76.91c2.96 0 5.92-2.96 5.92-5.92v-5.92c0-2.96-2.96-5.92-5.92-5.92"/><text x="458.25" y="-315.32" font-family="Helvetica,sans-Serif" font-size="9">assert-validity.mjs</text></a></g><g class="edge"><path fill="none" stroke="#000" stroke-dasharray="5,2" stroke-opacity=".2" stroke-width="2" d="M386.78-319h54.2"/><path fill-opacity=".2" stroke="#000" stroke-opacity=".2" stroke-width="2" d="m440.98-321.1 6 2.1-6 2.1z"/></g><g class="node"><a xlink:href="src/main/rule-set/normalize.mjs" xlink:title="normalize.mjs"><path fill="#0f0" stroke="#000" d="M525.21-357.88h-61.17c-2.96 0-5.92 2.96-5.92 5.92v5.92c0 2.96 2.96 5.92 5.92 5.92h61.17c2.96 0 5.91-2.96 5.91-5.92v-5.92c0-2.96-2.95-5.92-5.91-5.92"/><text x="466.12" y="-345.32" font-family="Helvetica,sans-Serif" font-size="9">normalize.mjs</text></a></g><g class="edge"><path fill="none" stroke="#000" stroke-dasharray="5,2" stroke-opacity=".2" stroke-width="2" d="M378.88-328.1v-20.69h69.78"/><path fill-opacity=".2" stroke="#000" stroke-opacity=".2" stroke-width="2" d="m448.66-350.89 6 2.1-6 2.1z"/></g><g class="node"><a xlink:href="src/config-utl/extract-depcruise-config/index.mjs" xlink:title="index.mjs"><path fill="#d3d3d3" stroke="#000" d="M379.33-49.88h-43.16c-2.96 0-5.92 2.96-5.92 5.92v5.92c0 2.96 2.96 5.92 5.92 5.92h43.16c2.96 0 5.92-2.96 5.92-5.92v-5.92c0-2.96-2.96-5.92-5.92-5.92"/><text x="338.25" y="-37.33" fill="gray" font-family="Helvetica,sans-Serif" font-size="9">index.mjs</text></a></g><g class="edge"><path fill="none" stroke="#000" stroke-opacity=".2" stroke-width="2" d="M385.65-45.88h76.23v-97.06"/><path fill-opacity=".2" stroke="#000" stroke-opacity=".2" stroke-width="2" d="m459.78-142.94 2.1-6 2.1 6z"/></g><g class="edge"><path fill="none" stroke="#000" stroke-opacity=".2" stroke-width="2" d="M531.6-161.88h14.28v-408.16h40.76"/><path fill-opacity=".2" stroke="#000" stroke-opacity=".2" stroke-width="2" d="m586.64-572.14 6 2.1-6 2.1z"/></g><g class="node"><a xlink:href="src/graph-utl/rule-set.mjs" xlink:title="rule-set.mjs"><path fill="#d3d3d3" stroke="#000" d="M885.71-112.88h-51.42c-2.96 0-5.91 2.96-5.91 5.92v5.92c0 2.96 2.95 5.92 5.91 5.92h51.42c2.96 0 5.91-2.96 5.91-5.92v-5.92c0-2.96-2.95-5.92-5.91-5.92"/><text x="836.38" y="-100.33" fill="gray" font-family="Helvetica,sans-Serif" font-size="9">rule-set.mjs</text></a></g><g class="edge"><path fill="none" stroke="#000" stroke-opacity=".2" stroke-width="2" d="M527.88-151.84V-104h291.25"/><path fill-opacity=".2" stroke="#000" stroke-opacity=".2" stroke-width="2" d="m819.13-106.1 6 2.1-6 2.1z"/></g><g class="node"><a xlink:href="src/enrich/summarize/index.mjs" xlink:title="index.mjs"><path fill="#d3d3d3" stroke="#000" d="M756.33-451.88h-43.16c-2.96 0-5.92 2.96-5.92 5.92v5.92c0 2.96 2.96 5.92 5.92 5.92h43.16c2.96 0 5.92-2.96 5.92-5.92v-5.92c0-2.96-2.96-5.92-5.92-5.92"/><text x="715.25" y="-439.32" fill="gray" font-family="Helvetica,sans-Serif" font-size="9">index.mjs</text></a></g><g class="edge"><path fill="none" stroke="#000" stroke-opacity=".2" stroke-width="2" d="M651-443.29h46.81"/><path fill-opacity=".2" stroke="#000" stroke-opacity=".2" stroke-width="2" d="m697.81-445.39 6 2.1-6 2.1z"/></g><g class="node"><a xlink:href="src/graph-utl/compare.mjs" xlink:title="compare.mjs"><path fill="#d3d3d3" stroke="#000" d="M888.33-232.88h-56.66c-2.96 0-5.92 2.96-5.92 5.92v5.92c0 2.96 2.96 5.92 5.92 5.92h56.66c2.96 0 5.92-2.96 5.92-5.92v-5.92c0-2.96-2.96-5.92-5.92-5.92"/><text x="833.75" y="-220.32" fill="gray" font-family="Helvetica,sans-Serif" font-size="9">compare.mjs</text></a></g><g class="edge"><path fill="none" stroke="#000" stroke-opacity=".2" stroke-width="2" d="M762.74-443h98.14v200.84"/><path fill-opacity=".2" stroke="#000" stroke-opacity=".2" stroke-width="2" d="m862.98-242.16-2.1 6-2.1-6z"/></g><g class="edge"><path fill="none" stroke="#000" stroke-opacity=".2" stroke-width="2" d="M651.04-539h83.84v-23.65"/><path fill-opacity=".2" stroke="#000" stroke-opacity=".2" stroke-width="2" d="m732.78-562.65 2.1-6 2.1 6z"/></g><g class="node"><a xlink:href="src/graph-utl/consolidate-to-pattern.mjs" xlink:title="consolidate-to-pattern.mjs"><path fill="#d3d3d3" stroke="#000" d="M914.96-142.88H805.04c-2.96 0-5.92 2.96-5.92 5.92v5.92c0 2.96 2.96 5.92 5.92 5.92h109.92c2.96 0 5.92-2.96 5.92-5.92v-5.92c0-2.96-2.96-5.92-5.92-5.92"/><text x="807.12" y="-130.32" fill="gray" font-family="Helvetica,sans-Serif" font-size="9">consolidate-to-pattern.mjs</text></a></g><g class="node"><a xlink:href="src/graph-utl/filter-bank.mjs" xlink:title="filter-bank.mjs"><path fill="#d3d3d3" stroke="#000" d="M890.58-172.88h-61.16c-2.96 0-5.92 2.96-5.92 5.92v5.92c0 2.96 2.96 5.92 5.92 5.92h61.16c2.96 0 5.92-2.96 5.92-5.92v-5.92c0-2.96-2.96-5.92-5.92-5.92"/><text x="831.5" y="-160.32" fill="gray" font-family="Helvetica,sans-Serif" font-size="9">filter-bank.mjs</text></a></g><g class="node"><a xlink:href="src/graph-utl/strip-self-transitions.mjs" xlink:title="strip-self-transitions.mjs"><path fill="#d3d3d3" stroke="#000" d="M910.08-202.88H809.92c-2.96 0-5.92 2.96-5.92 5.92v5.92c0 2.96 2.96 5.92 5.92 5.92h100.16c2.96 0 5.92-2.96 5.92-5.92v-5.92c0-2.96-2.96-5.92-5.92-5.92"/><text x="812" y="-190.32" fill="gray" font-family="Helvetica,sans-Serif" font-size="9">strip-self-transitions.mjs</text></a></g><g class="node"><a xlink:href="src/report/index.mjs" xlink:title="index.mjs"><path fill="#d3d3d3" stroke="#000" d="M756.33-75.88h-43.16c-2.96 0-5.92 2.96-5.92 5.92v5.92c0 2.96 2.96 5.92 5.92 5.92h43.16c2.96 0 5.92-2.96 5.92-5.92v-5.92c0-2.96-2.96-5.92-5.92-5.92"/><text x="715.25" y="-63.33" fill="gray" font-family="Helvetica,sans-Serif" font-size="9">index.mjs</text></a></g><g class="edge"><path fill="none" stroke="#000" stroke-opacity=".2" stroke-width="2" d="M667.77-193.5h77.11v108.38"/><path fill-opacity=".2" stroke="#000" stroke-opacity=".2" stroke-width="2" d="m746.98-85.12-2.1 6-2.1-6z"/></g><g class="node"><a xlink:href="src/main/helpers.mjs" xlink:title="helpers.mjs"><path fill="#0f0" stroke="#000" d="M760.46-283.88h-51.42c-2.96 0-5.92 2.96-5.92 5.92v5.92c0 2.96 2.96 5.92 5.92 5.92h51.42c2.96 0 5.92-2.96 5.92-5.92v-5.92c0-2.96-2.96-5.92-5.92-5.92"/><text x="711.12" y="-271.32" font-family="Helvetica,sans-Serif" font-size="9">helpers.mjs</text></a></g><g class="edge"><path fill="none" stroke="#000" stroke-opacity=".2" stroke-width="2" d="M655.88-232.21v-41h37.76"/><path fill-opacity=".2" stroke="#000" stroke-opacity=".2" stroke-width="2" d="m693.64-275.31 6 2.1-6 2.1z"/></g><g class="node"><a xlink:href="src/main/options/defaults.mjs" xlink:title="defaults.mjs"><path fill="#0f0" stroke="#000" d="M761.21-231.88h-52.92c-2.96 0-5.91 2.96-5.91 5.92v5.92c0 2.96 2.95 5.92 5.91 5.92h52.92c2.96 0 5.91-2.96 5.91-5.92v-5.92c0-2.96-2.95-5.92-5.91-5.92"/><text x="710.38" y="-219.32" font-family="Helvetica,sans-Serif" font-size="9">defaults.mjs</text></a></g><g class="edge"><path fill="none" stroke="#000" stroke-opacity=".2" stroke-width="2" d="M659.98-223h33.05"/><path fill-opacity=".2" stroke="#000" stroke-opacity=".2" stroke-width="2" d="m693.03-225.1 6 2.1-6 2.1z"/></g><g class="edge"><path fill="none" stroke="#000" stroke-opacity=".2" stroke-width="2" d="M623.88-158.23v-7.65h52v-272.83h22.13"/><path fill-opacity=".2" stroke="#000" stroke-opacity=".2" stroke-width="2" d="m698.01-440.81 6 2.1-6 2.1z"/></g><g class="edge"><path fill="none" stroke="#000" stroke-opacity=".2" stroke-width="2" d="M663.27-153.08h120.61v-70.42h32.59"/><path fill-opacity=".2" stroke="#000" stroke-opacity=".2" stroke-width="2" d="m816.47-225.6 6 2.1-6 2.1z"/></g><g class="edge"><path fill="none" stroke="#000" stroke-opacity=".2" stroke-width="2" d="M663.48-146.96h154.4v.38"/><path fill-opacity=".2" stroke="#000" stroke-opacity=".2" stroke-width="2" d="m819.98-152.17-2.1 6-2.1-6z"/></g><g class="edge"><path fill="none" stroke="#000" stroke-opacity=".2" stroke-width="2" d="M663.46-149h197.42v-.58"/><path fill-opacity=".2" stroke="#000" stroke-opacity=".2" stroke-width="2" d="m858.78-145.73 2.1-6 2.1 6z"/></g><g class="edge"><path fill="none" stroke="#000" stroke-opacity=".2" stroke-width="2" d="M663.4-151.04h147.48v-24.82"/><path fill-opacity=".2" stroke="#000" stroke-opacity=".2" stroke-width="2" d="m808.78-175.86 2.1-6 2.1 6z"/></g><g class="edge"><path fill="none" stroke="#000" stroke-opacity=".2" stroke-width="2" d="M663.44-144.92h62.44v59.65"/><path fill-opacity=".2" stroke="#000" stroke-opacity=".2" stroke-width="2" d="m727.98-85.27-2.1 6-2.1-6z"/></g><g class="edge"><path fill="none" stroke="#000" stroke-opacity=".2" stroke-width="2" d="M539.27-319h43.61v107.91"/><path fill-opacity=".2" stroke="#000" stroke-opacity=".2" stroke-width="2" d="m584.98-211.09-2.1 6-2.1-6z"/></g><g class="edge"><path fill="none" stroke="#000" stroke-opacity=".2" stroke-width="2" d="M536.88-310.02v31.48h157.05"/><path fill-opacity=".2" stroke="#000" stroke-opacity=".2" stroke-width="2" d="m693.93-280.64 6 2.1-6 2.1z"/></g><g class="node"><a xlink:href="src/schema/configuration.schema.mjs" xlink:title="configuration.schema.mjs"><path fill="#d3d3d3" stroke="#000" d="M677.33-71.88H568.92c-2.96 0-5.92 2.96-5.92 5.92v5.92c0 2.96 2.96 5.92 5.92 5.92h108.41c2.96 0 5.92-2.96 5.92-5.92v-5.92c0-2.96-2.96-5.92-5.92-5.92"/><text x="571" y="-59.33" fill="gray" font-family="Helvetica,sans-Serif" font-size="9">configuration.schema.mjs</text></a></g><g class="edge"><path fill="none" stroke="#000" stroke-opacity=".2" stroke-width="2" d="M533.88-309.89V-63h19.7"/><path fill-opacity=".2" stroke="#000" stroke-opacity=".2" stroke-width="2" d="m553.58-65.1 6 2.1-6 2.1z"/></g><g class="edge"><path fill="none" stroke="#000" stroke-opacity=".2" stroke-width="2" d="M531.38-349h203.5v55.6"/><path fill-opacity=".2" stroke="#000" stroke-opacity=".2" stroke-width="2" d="m736.98-293.4-2.1 6-2.1-6z"/></g><g class="node"><a xlink:href="src/main/index.d.ts" xlink:title="index.d.ts"><path fill="#0f0" stroke="#000" d="M267.33-370.88h-43.16c-2.96 0-5.92 2.96-5.92 5.92v5.92c0 2.96 2.96 5.92 5.92 5.92h43.16c2.96 0 5.92-2.96 5.92-5.92v-5.92c0-2.96-2.96-5.92-5.92-5.92"/><text x="226.25" y="-358.32" font-family="Helvetica,sans-Serif" font-size="9">index.d.ts</text></a></g></g></svg>