<svg xmlns="http://www.w3.org/2000/svg" xmlns:xlink="http://www.w3.org/1999/xlink" width="958pt" height="968pt" viewBox="0 0 958 968"><g class="graph" transform="translate(4 964)"><title>dependency-cruiser output</title><path fill="#fff" d="M-4 4v-968h958V4z"/><g class="cluster"><title>cluster_src</title><path fill="#fff" stroke="#000" stroke-width="2" d="M20-8h910c6 0 12-6 12-12v-920c0-6-6-12-12-12H20c-6 0-12 6-12 12v920c0 6 6 12 12 12"/><text xml:space="preserve" x="475" y="-939.45" font-family="Helvetica,sans-Serif" font-size="9" font-weight="bold" text-anchor="middle">src</text></g><g class="cluster"><title>cluster_src/cache</title><path fill="#fff" stroke="#000" stroke-width="2" d="M470.75-88H520c6 0 12-6 12-12v-28c0-6-6-12-12-12h-49.25c-6 0-12 6-12 12v28c0 6 6 12 12 12"/><text xml:space="preserve" x="495.38" y="-127.45" font-family="Helvetica,sans-Serif" font-size="9" font-weight="bold" text-anchor="middle">cache</text></g><g class="cluster"><title>cluster_src/cli</title><path fill="#fff" stroke="#000" stroke-width="2" d="M28-506h162.25c6 0 12-6 12-12v-58c0-6-6-12-12-12H28c-6 0-12 6-12 12v58c0 6 6 12 12 12"/><text xml:space="preserve" x="109.12" y="-575.45" font-family="Helvetica,sans-Serif" font-size="9" font-weight="bold" text-anchor="middle">cli</text></g><g class="cluster"><title>cluster_src/config-utl</title><path fill="#fff" stroke="#000" stroke-width="2" d="M301.25-702H415c6 0 12-6 12-12v-62c0-6-6-12-12-12H301.25c-6 0-12 6-12 12v62c0 6 6 12 12 12"/><text xml:space="preserve" x="358.12" y="-775.45" font-family="Helvetica,sans-Serif" font-size="9" font-weight="bold" text-anchor="middle">config-utl</text></g><g class="cluster"><title>cluster_src/config-utl/extract-depcruise-config</title><path fill="#fff" stroke="#000" stroke-width="2" d="M309.25-710H407c6 0 12-6 12-12v-28c0-6-6-12-12-12h-97.75c-6 0-12 6-12 12v28c0 6 6 12 12 12"/><text xml:space="preserve" x="358.12" y="-749.45" font-family="Helvetica,sans-Serif" font-size="9" font-weight="bold" text-anchor="middle">extract-depcruise-config</text></g><g class="cluster"><title>cluster_src/enrich</title><path fill="#fff" stroke="#000" stroke-width="2" d="M600.38-174h200c6 0 12-6 12-12v-62c0-6-6-12-12-12h-200c-6 0-12 6-12 12v62c0 6 6 12 12 12"/><text xml:space="preserve" x="700.38" y="-247.45" font-family="Helvetica,sans-Serif" font-size="9" font-weight="bold" text-anchor="middle">enrich</text></g><g class="cluster"><title>cluster_src/enrich/summarize</title><path fill="#fff" stroke="#000" stroke-width="2" d="M745.38-182h47c6 0 12-6 12-12v-28c0-6-6-12-12-12h-47c-6 0-12 6-12 12v28c0 6 6 12 12 12"/><text xml:space="preserve" x="768.88" y="-221.45" font-family="Helvetica,sans-Serif" font-size="9" font-weight="bold" text-anchor="middle">summarize</text></g><g class="cluster"><title>cluster_src/extract</title><path fill="#fff" stroke="#000" stroke-width="2" d="M592.88-54h62c6 0 12-6 12-12v-88c0-6-6-12-12-12h-62c-6 0-12 6-12 12v88c0 6 6 12 12 12"/><text xml:space="preserve" x="623.88" y="-153.45" font-family="Helvetica,sans-Serif" font-size="9" font-weight="bold" text-anchor="middle">extract</text></g><g class="cluster"><title>cluster_src/extract/transpile</title><path fill="#fff" stroke="#000" stroke-width="2" d="M600.88-62h46c6 0 12-6 12-12v-28c0-6-6-12-12-12h-46c-6 0-12 6-12 12v28c0 6 6 12 12 12"/><text xml:space="preserve" x="623.88" y="-101.45" font-family="Helvetica,sans-Serif" font-size="9" font-weight="bold" text-anchor="middle">transpile</text></g><g class="cluster"><title>cluster_src/graph-utl</title><path fill="#fff" stroke="#000" stroke-width="2" d="M712-702h113.75c6 0 12-6 12-12v-148c0-6-6-12-12-12H712c-6 0-12 6-12 12v148c0 6 6 12 12 12"/><text xml:space="preserve" x="768.88" y="-861.45" font-family="Helvetica,sans-Serif" font-size="9" font-weight="bold" text-anchor="middle">graph-utl</text></g><g class="cluster"><title>cluster_src/main</title><path fill="#fff" stroke="#000" stroke-width="2" d="M222.25-398h583c6 0 12-6 12-12v-272c0-6-6-12-12-12h-583c-6 0-12 6-12 12v272c0 6 6 12 12 12"/><text xml:space="preserve" x="513.75" y="-681.45" font-family="Helvetica,sans-Serif" font-size="9" font-weight="bold" text-anchor="middle">main</text></g><g class="cluster"><title>cluster_src/main/files-and-dirs</title><path fill="#fff" stroke="#000" stroke-width="2" d="M462.88-406h65c6 0 12-6 12-12v-28c0-6-6-12-12-12h-65c-6 0-12 6-12 12v28c0 6 6 12 12 12"/><text xml:space="preserve" x="495.38" y="-445.45" font-family="Helvetica,sans-Serif" font-size="9" font-weight="bold" text-anchor="middle">files-and-dirs</text></g><g class="cluster"><title>cluster_src/main/options</title><path fill="#fff" stroke="#000" stroke-width="2" d="M583.5-494h213.75c6 0 12-6 12-12v-58c0-6-6-12-12-12H583.5c-6 0-12 6-12 12v58c0 6 6 12 12 12"/><text xml:space="preserve" x="690.38" y="-563.45" font-family="Helvetica,sans-Serif" font-size="9" font-weight="bold" text-anchor="middle">options</text></g><g class="cluster"><title>cluster_src/main/resolve-options</title><path fill="#fff" stroke="#000" stroke-width="2" d="M462.88-490h65c6 0 12-6 12-12v-28c0-6-6-12-12-12h-65c-6 0-12 6-12 12v28c0 6 6 12 12 12"/><text xml:space="preserve" x="495.38" y="-529.45" font-family="Helvetica,sans-Serif" font-size="9" font-weight="bold" text-anchor="middle">resolve-options</text></g><g class="cluster"><title>cluster_src/main/rule-set</title><path fill="#fff" stroke="#000" stroke-width="2" d="M455-576h80.75c6 0 12-6 12-12v-58c0-6-6-12-12-12H455c-6 0-12 6-12 12v58c0 6 6 12 12 12"/><text xml:space="preserve" x="495.38" y="-645.45" font-family="Helvetica,sans-Serif" font-size="9" font-weight="bold" text-anchor="middle">rule-set</text></g><g class="cluster"><title>cluster_src/report</title><path fill="#fff" stroke="#000" stroke-width="2" d="M745.38-338h47c6 0 12-6 12-12v-28c0-6-6-12-12-12h-47c-6 0-12 6-12 12v28c0 6 6 12 12 12"/><text xml:space="preserve" x="768.88" y="-377.45" font-family="Helvetica,sans-Serif" font-size="9" font-weight="bold" text-anchor="middle">report</text></g><g class="cluster"><title>cluster_src/schema</title><path fill="#fff" stroke="#000" stroke-width="2" d="M567.75-278H680c6 0 12-6 12-12v-88c0-6-6-12-12-12H567.75c-6 0-12 6-12 12v88c0 6 6 12 12 12"/><text xml:space="preserve" x="623.88" y="-377.45" font-family="Helvetica,sans-Serif" font-size="9" font-weight="bold" text-anchor="middle">schema</text></g><g class="cluster"><title>cluster_src/utl</title><path fill="#fff" stroke="#000" stroke-width="2" d="M857.75-486H922c6 0 12-6 12-12v-118c0-6-6-12-12-12h-64.25c-6 0-12 6-12 12v118c0 6 6 12 12 12"/><text xml:space="preserve" x="889.88" y="-615.45" font-family="Helvetica,sans-Serif" font-size="9" font-weight="bold" text-anchor="middle">utl</text></g><g class="node"><title>src/cache/cache.mjs</title><a xlink:href="src/cache/cache.mjs" xlink:title="cache.mjs">
<path fill="#ffc" stroke="#000" d="M518.08-113.88h-45.41c-2.96 0-5.92 2.96-5.92 5.92v5.92c0 2.96 2.96 5.92 5.92 5.92h45.41c2.96 0 5.92-2.96 5.92-5.92v-5.92c0-2.96-2.96-5.92-5.92-5.92"/>
<text xml:space="preserve" x="474.75" y="-101.33" font-family="Helvetica,sans-Serif" font-size="9">cache.mjs</text>
</a></g><g class="node"><title>src/extract/transpile/meta.mjs</title><a xlink:href="src/extract/transpile/meta.mjs" xlink:title="meta.mjs">
<path fill="#ffc" stroke="#000" d="M644.96-87.88h-42.17c-2.96 0-5.91 2.96-5.91 5.92v5.92c0 2.96 2.95 5.92 5.91 5.92h42.17c2.96 0 5.92-2.96 5.92-5.92v-5.92c0-2.96-2.96-5.92-5.92-5.92"/>
<text xml:space="preserve" x="605.5" y="-75.33" font-family="Helvetica,sans-Serif" font-size="9">meta.mjs</text>
</a></g><g class="edge"><title>src/cache/cache.mjs-&gt;src/extract/transpile/meta.mjs</title><path fill="none" stroke="#000" stroke-opacity=".2" stroke-width="2" d="M524.24-102.04H624v4.64"/><path fill-opacity=".2" stroke="#000" stroke-opacity=".2" stroke-width="2" d="m626.1-97.4-2.1 6-2.1-6z"/></g><g class="node"><title>src/utl/bus.mjs</title><a xlink:href="src/utl/bus.mjs" xlink:title="bus.mjs">
<path fill="#ffc" stroke="#000" d="M910.96-541.88h-42.17c-2.96 0-5.91 2.96-5.91 5.92v5.92c0 2.96 2.95 5.92 5.91 5.92h42.17c2.96 0 5.92-2.96 5.92-5.92v-5.92c0-2.96-2.96-5.92-5.92-5.92"/>
<text xml:space="preserve" x="874.12" y="-529.33" font-family="Helvetica,sans-Serif" font-size="9">bus.mjs</text>
</a></g><g class="edge"><title>src/cache/cache.mjs-&gt;src/utl/bus.mjs</title><path fill="none" stroke="#000" stroke-opacity=".2" stroke-width="2" d="M524.38-107.96H819v-426.95h34.65"/><path fill-opacity=".2" stroke="#000" stroke-opacity=".2" stroke-width="2" d="m853.65-537.01 6 2.1-6 2.1z"/></g><g class="node"><title>src/cli/format-meta-info.mjs</title><a xlink:href="src/cli/format-meta-info.mjs" xlink:title="format-meta-info.mjs">
<path fill="#ffc" stroke="#000" d="M188.33-531.88h-87.41c-2.96 0-5.92 2.96-5.92 5.92v5.92c0 2.96 2.96 5.92 5.92 5.92h87.41c2.96 0 5.92-2.96 5.92-5.92v-5.92c0-2.96-2.96-5.92-5.92-5.92"/>
<text xml:space="preserve" x="103" y="-519.33" font-family="Helvetica,sans-Serif" font-size="9">format-meta-info.mjs</text>
</a></g><g class="node"><title>src/main/index.mjs</title><a xlink:href="src/main/index.mjs" xlink:title="index.mjs">
<path fill="#0f0" stroke="#000" d="M267.33-492.88h-43.16c-2.96 0-5.92 2.96-5.92 5.92v5.92c0 2.96 2.96 5.92 5.92 5.92h43.16c2.96 0 5.92-2.96 5.92-5.92v-5.92c0-2.96-2.96-5.92-5.92-5.92"/>
<text xml:space="preserve" x="226.25" y="-480.32" font-family="Helvetica,sans-Serif" font-size="9">index.mjs</text>
</a></g><g class="edge"><title>src/cli/format-meta-info.mjs-&gt;src/main/index.mjs</title><path fill="none" stroke="#000" stroke-opacity=".2" stroke-width="2" d="M145-513.95V-484h63.93"/><path fill-opacity=".2" stroke="#000" stroke-opacity=".2" stroke-width="2" d="m208.93-486.1 6 2.1-6 2.1z"/></g><g class="edge"><title>src/main/index.mjs-&gt;src/extract/transpile/meta.mjs</title><path fill="none" stroke="#000" stroke-opacity=".2" stroke-width="2" d="M246-474.71v398.67h341.37"/><path fill-opacity=".2" stroke="#000" stroke-opacity=".2" stroke-width="2" d="m587.37-78.14 6 2.1-6 2.1z"/></g><g class="node"><title>src/main/format.mjs</title><a xlink:href="src/main/format.mjs" xlink:title="format.mjs">
<path fill="#0f0" stroke="#000" d="M518.46-567.88h-46.17c-2.96 0-5.91 2.96-5.91 5.92v5.92c0 2.96 2.95 5.92 5.91 5.92h46.17c2.96 0 5.92-2.96 5.92-5.92v-5.92c0-2.96-2.96-5.92-5.92-5.92"/>
<text xml:space="preserve" x="474.38" y="-555.33" font-family="Helvetica,sans-Serif" font-size="9">format.mjs</text>
</a></g><g class="edge"><title>src/main/index.mjs-&gt;src/main/format.mjs</title><path fill="none" stroke="#000" stroke-opacity=".2" stroke-width="2" d="M273.7-487.88H301v-66.16h156.25"/><path fill-opacity=".2" stroke="#000" stroke-opacity=".2" stroke-width="2" d="m457.25-556.14 6 2.1-6 2.1z"/></g><g class="node"><title>src/main/cruise.mjs</title><a xlink:href="src/main/cruise.mjs" xlink:title="cruise.mjs">
<path fill="#0f0" stroke="#000" d="M380.33-482.88h-45.41c-2.96 0-5.92 2.96-5.92 5.92v5.92c0 2.96 2.96 5.92 5.92 5.92h45.41c2.96 0 5.92-2.96 5.92-5.92v-5.92c0-2.96-2.96-5.92-5.92-5.92"/>
<text xml:space="preserve" x="337" y="-470.32" font-family="Helvetica,sans-Serif" font-size="9">cruise.mjs</text>
</a></g><g class="edge"><title>src/main/index.mjs-&gt;src/main/cruise.mjs</title><path fill="none" stroke="#000" stroke-opacity=".2" stroke-width="2" d="M273.69-479h46.15"/><path fill-opacity=".2" stroke="#000" stroke-opacity=".2" stroke-width="2" d="m319.84-481.1 6 2.1-6 2.1z"/></g><g class="node"><title>src/cli/format.mjs</title><a xlink:href="src/cli/format.mjs" xlink:title="format.mjs">
<path fill="#ffc" stroke="#000" d="M76.08-561.88H29.92c-2.96 0-5.92 2.96-5.92 5.92v5.92c0 2.96 2.96 5.92 5.92 5.92h46.16c2.96 0 5.92-2.96 5.92-5.92v-5.92c0-2.96-2.96-5.92-5.92-5.92"/>
<text xml:space="preserve" x="32" y="-549.33" font-family="Helvetica,sans-Serif" font-size="9">format.mjs</text>
</a></g><g class="edge"><title>src/cli/format.mjs-&gt;src/main/format.mjs</title><path fill="none" stroke="#000" stroke-opacity=".2" stroke-width="2" d="M82.37-557.96h374.62"/><path fill-opacity=".2" stroke="#000" stroke-opacity=".2" stroke-width="2" d="m456.99-560.06 6 2.1-6 2.1z"/></g><g class="node"><title>src/main/options/assert-validity.mjs</title><a xlink:href="src/main/options/assert-validity.mjs" xlink:title="assert-validity.mjs">
<path fill="#0f0" stroke="#000" d="M662.33-519.88h-76.91c-2.96 0-5.92 2.96-5.92 5.92v5.92c0 2.96 2.96 5.92 5.92 5.92h76.91c2.96 0 5.92-2.96 5.92-5.92v-5.92c0-2.96-2.96-5.92-5.92-5.92"/>
<text xml:space="preserve" x="587.5" y="-507.32" font-family="Helvetica,sans-Serif" font-size="9">assert-validity.mjs</text>
</a></g><g class="edge"><title>src/main/format.mjs-&gt;src/main/options/assert-validity.mjs</title><path fill="none" stroke="#000" stroke-opacity=".2" stroke-width="2" d="M524.66-563.29H560v50.17h10.14"/><path fill-opacity=".2" stroke="#000" stroke-opacity=".2" stroke-width="2" d="m570.14-515.23 6 2.1-6 2.1z"/></g><g class="node"><title>src/main/options/normalize.mjs</title><a xlink:href="src/main/options/normalize.mjs" xlink:title="normalize.mjs">
<path fill="#0f0" stroke="#000" d="M654.46-549.88h-61.17c-2.96 0-5.91 2.96-5.91 5.92v5.92c0 2.96 2.95 5.92 5.91 5.92h61.17c2.96 0 5.92-2.96 5.92-5.92v-5.92c0-2.96-2.96-5.92-5.92-5.92"/>
<text xml:space="preserve" x="595.38" y="-537.33" font-family="Helvetica,sans-Serif" font-size="9">normalize.mjs</text>
</a></g><g class="edge"><title>src/main/format.mjs-&gt;src/main/options/normalize.mjs</title><path fill="none" stroke="#000" stroke-opacity=".2" stroke-width="2" d="M495-550v9.88h82.92"/><path fill-opacity=".2" stroke="#000" stroke-opacity=".2" stroke-width="2" d="m577.92-542.23 6 2.1-6 2.1z"/></g><g class="node"><title>src/main/report-wrap.mjs</title><a xlink:href="src/main/report-wrap.mjs" xlink:title="report-wrap.mjs">
<path fill="#0f0" stroke="#000" d="M657.83-667.88h-67.91c-2.96 0-5.92 2.96-5.92 5.92v5.92c0 2.96 2.96 5.92 5.92 5.92h67.91c2.96 0 5.92-2.96 5.92-5.92v-5.92c0-2.96-2.96-5.92-5.92-5.92"/>
<text xml:space="preserve" x="592" y="-655.33" font-family="Helvetica,sans-Serif" font-size="9">report-wrap.mjs</text>
</a></g><g class="edge"><title>src/main/format.mjs-&gt;src/main/report-wrap.mjs</title><path fill="none" stroke="#000" stroke-opacity=".2" stroke-width="2" d="M524.73-565.58H606v-75.09"/><path fill-opacity=".2" stroke="#000" stroke-opacity=".2" stroke-width="2" d="m603.9-640.67 2.1-6 2.1 6z"/></g><g class="node"><title>src/schema/cruise-result.validate.mjs</title><a xlink:href="src/schema/cruise-result.validate.mjs" xlink:title="cruise-result.validate.mjs">
<path fill="#ffc" stroke="#000" d="M676.58-303.88H571.17c-2.96 0-5.92 2.96-5.92 5.92v5.92c0 2.96 2.96 5.92 5.92 5.92h105.41c2.96 0 5.92-2.96 5.92-5.92v-5.92c0-2.96-2.96-5.92-5.92-5.92"/>
<text xml:space="preserve" x="573.25" y="-291.32" font-family="Helvetica,sans-Serif" font-size="9">cruise-result.validate.mjs</text>
</a></g><g class="edge"><title>src/main/format.mjs-&gt;src/schema/cruise-result.validate.mjs</title><path fill="none" stroke="#000" stroke-opacity=".2" stroke-width="2" d="M524.68-556.42H552V-295h3.82"/><path fill-opacity=".2" stroke="#000" stroke-opacity=".2" stroke-width="2" d="m555.82-297.1 6 2.1-6 2.1z"/></g><g class="node"><title>src/schema/utl.mjs</title><a xlink:href="src/schema/utl.mjs" xlink:title="utl.mjs">
<path fill="#ffc" stroke="#000" d="M644.96-333.88h-42.17c-2.96 0-5.91 2.96-5.91 5.92v5.92c0 2.96 2.95 5.92 5.91 5.92h42.17c2.96 0 5.92-2.96 5.92-5.92v-5.92c0-2.96-2.96-5.92-5.92-5.92"/>
<text xml:space="preserve" x="610.75" y="-321.32" font-family="Helvetica,sans-Serif" font-size="9">utl.mjs</text>
</a></g><g class="edge"><title>src/main/format.mjs-&gt;src/schema/utl.mjs</title><path fill="none" stroke="#000" stroke-opacity=".2" stroke-width="2" d="M524.62-558.71H556v230.75h31.63"/><path fill-opacity=".2" stroke="#000" stroke-opacity=".2" stroke-width="2" d="m587.63-330.06 6 2.1-6 2.1z"/></g><g class="node"><title>src/cli/index.mjs</title><a xlink:href="src/cli/index.mjs" xlink:title="index.mjs">
<path fill="#ffc" stroke="#000" d="M74.58-531.88H31.42c-2.96 0-5.92 2.96-5.92 5.92v5.92c0 2.96 2.96 5.92 5.92 5.92h43.16c2.96 0 5.92-2.96 5.92-5.92v-5.92c0-2.96-2.96-5.92-5.92-5.92"/>
<text xml:space="preserve" x="33.5" y="-519.33" font-family="Helvetica,sans-Serif" font-size="9">index.mjs</text>
</a></g><g class="edge"><title>src/cli/index.mjs-&gt;src/utl/bus.mjs</title><path fill="none" stroke="#000" stroke-opacity=".2" stroke-width="2" d="M44-513.86v65.36h770v-87.8h39.46"/><path fill-opacity=".2" stroke="#000" stroke-opacity=".2" stroke-width="2" d="m853.46-538.4 6 2.1-6 2.1z"/></g><g class="edge"><title>src/cli/index.mjs-&gt;src/cli/format-meta-info.mjs</title><path fill="none" stroke="#000" stroke-dasharray="5,2" stroke-opacity=".2" stroke-width="2" d="M80.99-520.04h4.82"/><path fill-opacity=".2" stroke="#000" stroke-opacity=".2" stroke-width="2" d="m85.81-522.14 6 2.1-6 2.1z"/></g><g class="edge"><title>src/cli/index.mjs-&gt;src/main/cruise.mjs</title><path fill="none" stroke="#000" stroke-opacity=".2" stroke-width="2" d="M62-513.79v43.67h257.71"/><path fill-opacity=".2" stroke="#000" stroke-opacity=".2" stroke-width="2" d="m319.71-472.23 6 2.1-6 2.1z"/></g><g class="node"><title>src/utl/object-util.mjs</title><a xlink:href="src/utl/object-util.mjs" xlink:title="object-util.mjs">
<path fill="#ffc" stroke="#000" d="M920.08-601.88h-60.41c-2.96 0-5.92 2.96-5.92 5.92v5.92c0 2.96 2.96 5.92 5.92 5.92h60.41c2.96 0 5.92-2.96 5.92-5.92v-5.92c0-2.96-2.96-5.92-5.92-5.92"/>
<text xml:space="preserve" x="861.75" y="-589.33" font-family="Helvetica,sans-Serif" font-size="9">object-util.mjs</text>
</a></g><g class="edge"><title>src/cli/index.mjs-&gt;src/utl/object-util.mjs</title><path fill="none" stroke="#000" stroke-opacity=".2" stroke-width="2" d="M80.92-525.96H88v-50h802v-.77"/><path fill-opacity=".2" stroke="#000" stroke-opacity=".2" stroke-width="2" d="m887.9-574.65 2.1-6 2.1 6z"/></g><g class="edge"><title>src/main/cruise.mjs-&gt;src/cache/cache.mjs</title><path fill="none" stroke="#000" stroke-dasharray="5,2" stroke-opacity=".2" stroke-width="2" d="M340-464.88V-105h117.49"/><path fill-opacity=".2" stroke="#000" stroke-opacity=".2" stroke-width="2" d="m457.49-107.1 6 2.1-6 2.1z"/></g><g class="edge"><title>src/main/cruise.mjs-&gt;src/utl/bus.mjs</title><path fill="none" stroke="#000" stroke-opacity=".2" stroke-width="2" d="M386.55-472.23H809v-65.47h44.47"/><path fill-opacity=".2" stroke="#000" stroke-opacity=".2" stroke-width="2" d="m853.47-539.8 6 2.1-6 2.1z"/></g><g class="node"><title>src/main/resolve-options/normalize.mjs</title><a xlink:href="src/main/resolve-options/normalize.mjs" xlink:title="normalize.mjs">
<path fill="#0f0" stroke="#000" d="M525.96-515.88h-61.17c-2.96 0-5.91 2.96-5.91 5.92v5.92c0 2.96 2.95 5.92 5.91 5.92h61.17c2.96 0 5.92-2.96 5.92-5.92v-5.92c0-2.96-2.96-5.92-5.92-5.92"/>
<text xml:space="preserve" x="466.88" y="-503.32" font-family="Helvetica,sans-Serif" font-size="9">normalize.mjs</text>
</a></g><g class="edge"><title>src/main/cruise.mjs-&gt;src/main/resolve-options/normalize.mjs</title><path fill="none" stroke="#000" stroke-dasharray="5,2" stroke-opacity=".2" stroke-width="2" d="M376-483.32v-19.14h73.56"/><path fill-opacity=".2" stroke="#000" stroke-opacity=".2" stroke-width="2" d="m449.56-504.56 6 2.1-6 2.1z"/></g><g class="node"><title>src/enrich/index.mjs</title><a xlink:href="src/enrich/index.mjs" xlink:title="index.mjs">
<path fill="#ffc" stroke="#000" d="M645.46-207.88h-43.17c-2.96 0-5.91 2.96-5.91 5.92v5.92c0 2.96 2.95 5.92 5.91 5.92h43.17c2.96 0 5.92-2.96 5.92-5.92v-5.92c0-2.96-2.96-5.92-5.92-5.92"/>
<text xml:space="preserve" x="604.38" y="-195.32" font-family="Helvetica,sans-Serif" font-size="9">index.mjs</text>
</a></g><g class="edge"><title>src/main/cruise.mjs-&gt;src/enrich/index.mjs</title><path fill="none" stroke="#000" stroke-dasharray="5,2" stroke-opacity=".2" stroke-width="2" d="M363-464.85V-199h223.93"/><path fill-opacity=".2" stroke="#000" stroke-opacity=".2" stroke-width="2" d="m586.93-201.1 6 2.1-6 2.1z"/></g><g class="node"><title>src/extract/index.mjs</title><a xlink:href="src/extract/index.mjs" xlink:title="index.mjs">
<path fill="#ffc" stroke="#000" d="M645.46-139.88h-43.17c-2.96 0-5.91 2.96-5.91 5.92v5.92c0 2.96 2.95 5.92 5.91 5.92h43.17c2.96 0 5.92-2.96 5.92-5.92v-5.92c0-2.96-2.96-5.92-5.92-5.92"/>
<text xml:space="preserve" x="604.38" y="-127.33" font-family="Helvetica,sans-Serif" font-size="9">index.mjs</text>
</a></g><g class="edge"><title>src/main/cruise.mjs-&gt;src/extract/index.mjs</title><path fill="none" stroke="#000" stroke-dasharray="5,2" stroke-opacity=".2" stroke-width="2" d="M352-464.83V-131h235.03"/><path fill-opacity=".2" stroke="#000" stroke-opacity=".2" stroke-width="2" d="m587.03-133.1 6 2.1-6 2.1z"/></g><g class="node"><title>src/utl/regex-util.mjs</title><a xlink:href="src/utl/regex-util.mjs" xlink:title="regex-util.mjs">
<path fill="#ffc" stroke="#000" d="M919.33-511.88h-58.91c-2.96 0-5.92 2.96-5.92 5.92v5.92c0 2.96 2.96 5.92 5.92 5.92h58.91c2.96 0 5.92-2.96 5.92-5.92v-5.92c0-2.96-2.96-5.92-5.92-5.92"/>
<text xml:space="preserve" x="862.5" y="-499.32" font-family="Helvetica,sans-Serif" font-size="9">regex-util.mjs</text>
</a></g><g class="edge"><title>src/main/cruise.mjs-&gt;src/utl/regex-util.mjs</title><path fill="none" stroke="#000" stroke-opacity=".2" stroke-width="2" d="M386.63-468.68H890v-16.27"/><path fill-opacity=".2" stroke="#000" stroke-opacity=".2" stroke-width="2" d="m887.9-484.95 2.1-6 2.1 6z"/></g><g class="node"><title>src/main/files-and-dirs/normalize.mjs</title><a xlink:href="src/main/files-and-dirs/normalize.mjs" xlink:title="normalize.mjs">
<path fill="#0f0" stroke="#000" d="M525.96-431.88h-61.17c-2.96 0-5.91 2.96-5.91 5.92v5.92c0 2.96 2.95 5.92 5.91 5.92h61.17c2.96 0 5.92-2.96 5.92-5.92v-5.92c0-2.96-2.96-5.92-5.92-5.92"/>
<text xml:space="preserve" x="466.88" y="-419.32" font-family="Helvetica,sans-Serif" font-size="9">normalize.mjs</text>
</a></g><g class="edge"><title>src/main/cruise.mjs-&gt;src/main/files-and-dirs/normalize.mjs</title><path fill="none" stroke="#000" stroke-dasharray="5,2" stroke-opacity=".2" stroke-width="2" d="M375-464.65V-423h74.58"/><path fill-opacity=".2" stroke="#000" stroke-opacity=".2" stroke-width="2" d="m449.58-425.1 6 2.1-6 2.1z"/></g><g class="edge"><title>src/main/cruise.mjs-&gt;src/main/options/assert-validity.mjs</title><path fill="none" stroke="#000" stroke-opacity=".2" stroke-width="2" d="M386.64-475.77H624v-16.95"/><path fill-opacity=".2" stroke="#000" stroke-opacity=".2" stroke-width="2" d="m621.9-492.72 2.1-6 2.1 6z"/></g><g class="edge"><title>src/main/cruise.mjs-&gt;src/main/options/normalize.mjs</title><path fill="none" stroke="#000" stroke-opacity=".2" stroke-width="2" d="M367-483.17v-52.95h211.04"/><path fill-opacity=".2" stroke="#000" stroke-opacity=".2" stroke-width="2" d="m578.04-538.23 6 2.1-6 2.1z"/></g><g class="edge"><title>src/main/cruise.mjs-&gt;src/main/report-wrap.mjs</title><path fill="none" stroke="#000" stroke-opacity=".2" stroke-width="2" d="M339-483.17V-659h235.64"/><path fill-opacity=".2" stroke="#000" stroke-opacity=".2" stroke-width="2" d="m574.64-661.1 6 2.1-6 2.1z"/></g><g class="node"><title>src/main/rule-set/assert-validity.mjs</title><a xlink:href="src/main/rule-set/assert-validity.mjs" xlink:title="assert-validity.mjs">
<path fill="#0f0" stroke="#000" d="M533.83-601.88h-76.91c-2.96 0-5.92 2.96-5.92 5.92v5.92c0 2.96 2.96 5.92 5.92 5.92h76.91c2.96 0 5.92-2.96 5.92-5.92v-5.92c0-2.96-2.96-5.92-5.92-5.92"/>
<text xml:space="preserve" x="459" y="-589.33" font-family="Helvetica,sans-Serif" font-size="9">assert-validity.mjs</text>
</a></g><g class="edge"><title>src/main/cruise.mjs-&gt;src/main/rule-set/assert-validity.mjs</title><path fill="none" stroke="#000" stroke-dasharray="5,2" stroke-opacity=".2" stroke-width="2" d="M386.58-479.32H455v-95.35"/><path fill-opacity=".2" stroke="#000" stroke-opacity=".2" stroke-width="2" d="m452.9-574.67 2.1-6 2.1 6z"/></g><g class="node"><title>src/main/rule-set/normalize.mjs</title><a xlink:href="src/main/rule-set/normalize.mjs" xlink:title="normalize.mjs">
<path fill="#0f0" stroke="#000" d="M525.96-631.88h-61.17c-2.96 0-5.91 2.96-5.91 5.92v5.92c0 2.96 2.95 5.92 5.91 5.92h61.17c2.96 0 5.92-2.96 5.92-5.92v-5.92c0-2.96-2.96-5.92-5.92-5.92"/>
<text xml:space="preserve" x="466.88" y="-619.33" font-family="Helvetica,sans-Serif" font-size="9">normalize.mjs</text>
</a></g><g class="edge"><title>src/main/cruise.mjs-&gt;src/main/rule-set/normalize.mjs</title><path fill="none" stroke="#000" stroke-dasharray="5,2" stroke-opacity=".2" stroke-width="2" d="M358-483.32V-623h91.53"/><path fill-opacity=".2" stroke="#000" stroke-opacity=".2" stroke-width="2" d="m449.53-625.1 6 2.1-6 2.1z"/></g><g class="node"><title>src/config-utl/extract-depcruise-config/index.mjs</title><a xlink:href="src/config-utl/extract-depcruise-config/index.mjs" xlink:title="index.mjs">
<path fill="#ffc" stroke="#000" d="M379.21-735.88h-43.17c-2.96 0-5.92 2.96-5.92 5.92v5.92c0 2.96 2.96 5.92 5.92 5.92h43.17c2.96 0 5.91-2.96 5.91-5.92v-5.92c0-2.96-2.95-5.92-5.91-5.92"/>
<text xml:space="preserve" x="338.12" y="-723.33" font-family="Helvetica,sans-Serif" font-size="9">index.mjs</text>
</a></g><g class="edge"><title>src/config-utl/extract-depcruise-config/index.mjs-&gt;src/main/resolve-options/normalize.mjs</title><path fill="none" stroke="#000" stroke-opacity=".2" stroke-width="2" d="M348-717.82v211.03h101.54"/><path fill-opacity=".2" stroke="#000" stroke-opacity=".2" stroke-width="2" d="m449.54-508.89 6 2.1-6 2.1z"/></g><g class="edge"><title>src/main/resolve-options/normalize.mjs-&gt;src/extract/transpile/meta.mjs</title><path fill="none" stroke="#000" stroke-opacity=".2" stroke-width="2" d="M532.23-504.88H544v422.92h43.36"/><path fill-opacity=".2" stroke="#000" stroke-opacity=".2" stroke-width="2" d="m587.36-84.06 6 2.1-6 2.1z"/></g><g class="node"><title>src/graph-utl/rule-set.mjs</title><a xlink:href="src/graph-utl/rule-set.mjs" xlink:title="rule-set.mjs">
<path fill="#ffc" stroke="#000" d="M794.58-847.88h-51.41c-2.96 0-5.92 2.96-5.92 5.92v5.92c0 2.96 2.96 5.92 5.92 5.92h51.41c2.96 0 5.92-2.96 5.92-5.92v-5.92c0-2.96-2.96-5.92-5.92-5.92"/>
<text xml:space="preserve" x="745.25" y="-835.33" font-family="Helvetica,sans-Serif" font-size="9">rule-set.mjs</text>
</a></g><g class="edge"><title>src/main/resolve-options/normalize.mjs-&gt;src/graph-utl/rule-set.mjs</title><path fill="none" stroke="#000" stroke-opacity=".2" stroke-width="2" d="M532.21-507.62H548V-839h179.73"/><path fill-opacity=".2" stroke="#000" stroke-opacity=".2" stroke-width="2" d="m727.73-841.1 6 2.1-6 2.1z"/></g><g class="edge"><title>src/enrich/index.mjs-&gt;src/utl/bus.mjs</title><path fill="none" stroke="#000" stroke-opacity=".2" stroke-width="2" d="M651.55-204.32H696v-311.56h194v-.77"/><path fill-opacity=".2" stroke="#000" stroke-opacity=".2" stroke-width="2" d="m887.9-514.61 2.1-6 2.1 6z"/></g><g class="node"><title>src/enrich/summarize/index.mjs</title><a xlink:href="src/enrich/summarize/index.mjs" xlink:title="index.mjs">
<path fill="#ffc" stroke="#000" d="M790.46-207.88h-43.17c-2.96 0-5.91 2.96-5.91 5.92v5.92c0 2.96 2.95 5.92 5.91 5.92h43.17c2.96 0 5.92-2.96 5.92-5.92v-5.92c0-2.96-2.96-5.92-5.92-5.92"/>
<text xml:space="preserve" x="749.38" y="-195.32" font-family="Helvetica,sans-Serif" font-size="9">index.mjs</text>
</a></g><g class="edge"><title>src/enrich/index.mjs-&gt;src/enrich/summarize/index.mjs</title><path fill="none" stroke="#000" stroke-opacity=".2" stroke-width="2" d="M651.83-193.68h80.15"/><path fill-opacity=".2" stroke="#000" stroke-opacity=".2" stroke-width="2" d="m731.98-195.78 6 2.1-6 2.1z"/></g><g class="node"><title>src/graph-utl/compare.mjs</title><a xlink:href="src/graph-utl/compare.mjs" xlink:title="compare.mjs">
<path fill="#ffc" stroke="#000" d="M797.21-727.88h-56.67c-2.96 0-5.92 2.96-5.92 5.92v5.92c0 2.96 2.96 5.92 5.92 5.92h56.67c2.96 0 5.91-2.96 5.91-5.92v-5.92c0-2.96-2.95-5.92-5.91-5.92"/>
<text xml:space="preserve" x="742.62" y="-715.33" font-family="Helvetica,sans-Serif" font-size="9">compare.mjs</text>
</a></g><g class="edge"><title>src/enrich/summarize/index.mjs-&gt;src/graph-utl/compare.mjs</title><path fill="none" stroke="#000" stroke-opacity=".2" stroke-width="2" d="M741.18-200.78H727v-513.34h.73"/><path fill-opacity=".2" stroke="#000" stroke-opacity=".2" stroke-width="2" d="m725.27-716.23 6 2.1-6 2.1z"/></g><g class="edge"><title>src/extract/index.mjs-&gt;src/utl/bus.mjs</title><path fill="none" stroke="#000" stroke-opacity=".2" stroke-width="2" d="M651.48-131H835v-402.52h18.41"/><path fill-opacity=".2" stroke="#000" stroke-opacity=".2" stroke-width="2" d="m853.41-535.62 6 2.1-6 2.1z"/></g><g class="node"><title>src/graph-utl/consolidate-to-pattern.mjs</title><a xlink:href="src/graph-utl/consolidate-to-pattern.mjs" xlink:title="consolidate-to-pattern.mjs">
<path fill="#ffc" stroke="#000" d="M823.83-787.88H713.92c-2.96 0-5.92 2.96-5.92 5.92v5.92c0 2.96 2.96 5.92 5.92 5.92h109.91c2.96 0 5.92-2.96 5.92-5.92v-5.92c0-2.96-2.96-5.92-5.92-5.92"/>
<text xml:space="preserve" x="716" y="-775.33" font-family="Helvetica,sans-Serif" font-size="9">consolidate-to-pattern.mjs</text>
</a></g><g class="edge"><title>src/graph-utl/consolidate-to-pattern.mjs-&gt;src/utl/regex-util.mjs</title><path fill="none" stroke="#000" stroke-opacity=".2" stroke-width="2" d="M830.01-779H849v273.62h.5"/><path fill-opacity=".2" stroke="#000" stroke-opacity=".2" stroke-width="2" d="m844.99-507.48 5.99 2.1-6 2.1z"/></g><g class="node"><title>src/graph-utl/filter-bank.mjs</title><a xlink:href="src/graph-utl/filter-bank.mjs" xlink:title="filter-bank.mjs">
<path fill="#ffc" stroke="#000" d="M799.46-817.88h-61.17c-2.96 0-5.91 2.96-5.91 5.92v5.92c0 2.96 2.95 5.92 5.91 5.92h61.17c2.96 0 5.92-2.96 5.92-5.92v-5.92c0-2.96-2.96-5.92-5.92-5.92"/>
<text xml:space="preserve" x="740.38" y="-805.33" font-family="Helvetica,sans-Serif" font-size="9">filter-bank.mjs</text>
</a></g><g class="node"><title>src/graph-utl/strip-self-transitions.mjs</title><a xlink:href="src/graph-utl/strip-self-transitions.mjs" xlink:title="strip-self-transitions.mjs">
<path fill="#ffc" stroke="#000" d="M818.96-757.88H718.79c-2.96 0-5.91 2.96-5.91 5.92v5.92c0 2.96 2.95 5.92 5.91 5.92h100.17c2.96 0 5.92-2.96 5.92-5.92v-5.92c0-2.96-2.96-5.92-5.92-5.92"/>
<text xml:space="preserve" x="720.88" y="-745.33" font-family="Helvetica,sans-Serif" font-size="9">strip-self-transitions.mjs</text>
</a></g><g class="node"><title>src/report/index.mjs</title><a xlink:href="src/report/index.mjs" xlink:title="index.mjs">
<path fill="#ffc" stroke="#000" d="M790.46-363.88h-43.17c-2.96 0-5.91 2.96-5.91 5.92v5.92c0 2.96 2.95 5.92 5.91 5.92h43.17c2.96 0 5.92-2.96 5.92-5.92v-5.92c0-2.96-2.96-5.92-5.92-5.92"/>
<text xml:space="preserve" x="749.38" y="-351.32" font-family="Helvetica,sans-Serif" font-size="9">index.mjs</text>
</a></g><g class="edge"><title>src/main/options/assert-validity.mjs-&gt;src/report/index.mjs</title><path fill="none" stroke="#000" stroke-opacity=".2" stroke-width="2" d="M668.6-508.62H769v135.44"/><path fill-opacity=".2" stroke="#000" stroke-opacity=".2" stroke-width="2" d="m771.1-373.18-2.1 6-2.1-6z"/></g><g class="node"><title>src/main/helpers.mjs</title><a xlink:href="src/main/helpers.mjs" xlink:title="helpers.mjs">
<path fill="#0f0" stroke="#000" d="M794.58-601.88h-51.41c-2.96 0-5.92 2.96-5.92 5.92v5.92c0 2.96 2.96 5.92 5.92 5.92h51.41c2.96 0 5.92-2.96 5.92-5.92v-5.92c0-2.96-2.96-5.92-5.92-5.92"/>
<text xml:space="preserve" x="745.25" y="-589.33" font-family="Helvetica,sans-Serif" font-size="9">helpers.mjs</text>
</a></g><g class="edge"><title>src/main/options/normalize.mjs-&gt;src/main/helpers.mjs</title><path fill="none" stroke="#000" stroke-opacity=".2" stroke-width="2" d="M624-549.99v-40.05h104.05"/><path fill-opacity=".2" stroke="#000" stroke-opacity=".2" stroke-width="2" d="m728.05-592.14 6 2.1-6 2.1z"/></g><g class="node"><title>src/main/options/defaults.mjs</title><a xlink:href="src/main/options/defaults.mjs" xlink:title="defaults.mjs">
<path fill="#0f0" stroke="#000" d="M795.33-549.88h-52.91c-2.96 0-5.92 2.96-5.92 5.92v5.92c0 2.96 2.96 5.92 5.92 5.92h52.91c2.96 0 5.92-2.96 5.92-5.92v-5.92c0-2.96-2.96-5.92-5.92-5.92"/>
<text xml:space="preserve" x="744.5" y="-537.33" font-family="Helvetica,sans-Serif" font-size="9">defaults.mjs</text>
</a></g><g class="edge"><title>src/main/options/normalize.mjs-&gt;src/main/options/defaults.mjs</title><path fill="none" stroke="#000" stroke-opacity=".2" stroke-width="2" d="M660.84-541h66.55"/><path fill-opacity=".2" stroke="#000" stroke-opacity=".2" stroke-width="2" d="m727.39-543.1 6 2.1-6 2.1z"/></g><g class="node"><title>src/utl/array-util.mjs</title><a xlink:href="src/utl/array-util.mjs" xlink:title="array-util.mjs">
<path fill="#ffc" stroke="#000" d="M918.21-571.88h-56.67c-2.96 0-5.92 2.96-5.92 5.92v5.92c0 2.96 2.96 5.92 5.92 5.92h56.67c2.96 0 5.91-2.96 5.91-5.92v-5.92c0-2.96-2.95-5.92-5.91-5.92"/>
<text xml:space="preserve" x="863.62" y="-559.33" font-family="Helvetica,sans-Serif" font-size="9">array-util.mjs</text>
</a></g><g class="edge"><title>src/main/options/normalize.mjs-&gt;src/utl/array-util.mjs</title><path fill="none" stroke="#000" stroke-opacity=".2" stroke-width="2" d="M642-550.06V-561h204.12"/><path fill-opacity=".2" stroke="#000" stroke-opacity=".2" stroke-width="2" d="m846.12-563.1 6 2.1-6 2.1z"/></g><g class="edge"><title>src/main/report-wrap.mjs-&gt;src/enrich/summarize/index.mjs</title><path fill="none" stroke="#000" stroke-opacity=".2" stroke-width="2" d="M664.25-653.67H690v456.45h42.26"/><path fill-opacity=".2" stroke="#000" stroke-opacity=".2" stroke-width="2" d="m732.26-199.33 6 2.1-6 2.1z"/></g><g class="edge"><title>src/main/report-wrap.mjs-&gt;src/graph-utl/compare.mjs</title><path fill="none" stroke="#000" stroke-opacity=".2" stroke-width="2" d="M664.23-660.77H779v-39.85"/><path fill-opacity=".2" stroke="#000" stroke-opacity=".2" stroke-width="2" d="m776.9-700.62 2.1-6 2.1 6z"/></g><g class="edge"><title>src/main/report-wrap.mjs-&gt;src/graph-utl/consolidate-to-pattern.mjs</title><path fill="none" stroke="#000" stroke-opacity=".2" stroke-width="2" d="M637-668.02V-779h61.54"/><path fill-opacity=".2" stroke="#000" stroke-opacity=".2" stroke-width="2" d="m698.54-781.1 6 2.1-6 2.1z"/></g><g class="edge"><title>src/main/report-wrap.mjs-&gt;src/graph-utl/filter-bank.mjs</title><path fill="none" stroke="#000" stroke-opacity=".2" stroke-width="2" d="M611-667.93V-809h112.23"/><path fill-opacity=".2" stroke="#000" stroke-opacity=".2" stroke-width="2" d="m723.23-811.1 6 2.1-6 2.1z"/></g><g class="edge"><title>src/main/report-wrap.mjs-&gt;src/graph-utl/strip-self-transitions.mjs</title><path fill="none" stroke="#000" stroke-opacity=".2" stroke-width="2" d="M664.08-664.33H720v-66.58"/><path fill-opacity=".2" stroke="#000" stroke-opacity=".2" stroke-width="2" d="m717.9-730.91 2.1-6 2.1 6z"/></g><g class="edge"><title>src/main/report-wrap.mjs-&gt;src/report/index.mjs</title><path fill="none" stroke="#000" stroke-opacity=".2" stroke-width="2" d="M663.85-657.23H702V-355h29.87"/><path fill-opacity=".2" stroke="#000" stroke-opacity=".2" stroke-width="2" d="m731.87-357.1 6 2.1-6 2.1z"/></g><g class="edge"><title>src/main/rule-set/assert-validity.mjs-&gt;src/utl/bus.mjs</title><path fill="none" stroke="#000" stroke-opacity=".2" stroke-width="2" d="M528-583.86v3.82h311v40.95h14.62"/><path fill-opacity=".2" stroke="#000" stroke-opacity=".2" stroke-width="2" d="m853.62-541.19 6 2.1-6 2.1z"/></g><g class="edge"><title>src/main/rule-set/assert-validity.mjs-&gt;src/utl/object-util.mjs</title><path fill="none" stroke="#000" stroke-opacity=".2" stroke-width="2" d="M536-602.24V-608h354v.58"/><path fill-opacity=".2" stroke="#000" stroke-opacity=".2" stroke-width="2" d="m892.1-611.27-2.1 6-2.1-6z"/></g><g class="edge"><title>src/main/rule-set/assert-validity.mjs-&gt;src/main/options/assert-validity.mjs</title><path fill="none" stroke="#000" stroke-opacity=".2" stroke-width="2" d="M538-583.84v73.46h32.15"/><path fill-opacity=".2" stroke="#000" stroke-opacity=".2" stroke-width="2" d="m570.15-512.48 6 2.1-6 2.1z"/></g><g class="edge"><title>src/main/rule-set/assert-validity.mjs-&gt;src/schema/utl.mjs</title><path fill="none" stroke="#000" stroke-opacity=".2" stroke-width="2" d="M534-583.67v261.63h53.39"/><path fill-opacity=".2" stroke="#000" stroke-opacity=".2" stroke-width="2" d="m587.39-324.14 6 2.1-6 2.1z"/></g><g class="edge"><title>src/main/rule-set/assert-validity.mjs-&gt;src/main/helpers.mjs</title><path fill="none" stroke="#000" stroke-opacity=".2" stroke-width="2" d="M540.23-595.96h187.58"/><path fill-opacity=".2" stroke="#000" stroke-opacity=".2" stroke-width="2" d="m727.81-598.06 6 2.1-6 2.1z"/></g><g class="node"><title>src/schema/configuration.validate.mjs</title><a xlink:href="src/schema/configuration.validate.mjs" xlink:title="configuration.validate.mjs">
<path fill="#ffc" stroke="#000" d="M678.08-363.88H569.67c-2.96 0-5.92 2.96-5.92 5.92v5.92c0 2.96 2.96 5.92 5.92 5.92h108.41c2.96 0 5.92-2.96 5.92-5.92v-5.92c0-2.96-2.96-5.92-5.92-5.92"/>
<text xml:space="preserve" x="571.75" y="-351.32" font-family="Helvetica,sans-Serif" font-size="9">configuration.validate.mjs</text>
</a></g><g class="edge"><title>src/main/rule-set/assert-validity.mjs-&gt;src/schema/configuration.validate.mjs</title><path fill="none" stroke="#000" stroke-opacity=".2" stroke-width="2" d="M536-583.67V-355h18.3"/><path fill-opacity=".2" stroke="#000" stroke-opacity=".2" stroke-width="2" d="m554.3-357.1 6 2.1-6 2.1z"/></g><g class="edge"><title>src/main/rule-set/normalize.mjs-&gt;src/utl/bus.mjs</title><path fill="none" stroke="#000" stroke-opacity=".2" stroke-width="2" d="M532.35-625.96H844v85.48h9.37"/><path fill-opacity=".2" stroke="#000" stroke-opacity=".2" stroke-width="2" d="m853.37-542.58 6 2.1-6 2.1z"/></g><g class="edge"><title>src/main/rule-set/normalize.mjs-&gt;src/main/helpers.mjs</title><path fill="none" stroke="#000" stroke-opacity=".2" stroke-width="2" d="M532.17-620.04H758v8.86"/><path fill-opacity=".2" stroke="#000" stroke-opacity=".2" stroke-width="2" d="m760.1-611.18-2.1 6-2.1-6z"/></g><g class="edge"><title>src/main/helpers.mjs-&gt;src/utl/object-util.mjs</title><path fill="none" stroke="#000" stroke-opacity=".2" stroke-width="2" d="M800.98-593h43.33"/><path fill-opacity=".2" stroke="#000" stroke-opacity=".2" stroke-width="2" d="m844.31-595.1 6 2.1-6 2.1z"/></g><g class="node"><title>src/main/index.d.ts</title><a xlink:href="src/main/index.d.ts" xlink:title="index.d.ts">
<path fill="#0f0" stroke="#000" d="M267.33-528.88h-43.16c-2.96 0-5.92 2.96-5.92 5.92v5.92c0 2.96 2.96 5.92 5.92 5.92h43.16c2.96 0 5.92-2.96 5.92-5.92v-5.92c0-2.96-2.96-5.92-5.92-5.92"/>
<text xml:space="preserve" x="226.25" y="-516.33" font-family="Helvetica,sans-Serif" font-size="9">index.d.ts</text>
</a></g></g></svg>