<?xml version="1.0" encoding="UTF-8" standalone="no"?>
<!DOCTYPE svg PUBLIC "-//W3C//DTD SVG 1.1//EN"
 "http://www.w3.org/Graphics/SVG/1.1/DTD/svg11.dtd">
<!-- Generated by graphviz version 2.44.0 (20200408.0750)
 -->
<!-- Title: dependency&#45;cruiser output Pages: 1 -->
<svg width="584pt" height="538pt"
 viewBox="0.00 0.00 584.00 538.00" xmlns="http://www.w3.org/2000/svg" xmlns:xlink="http://www.w3.org/1999/xlink">
<g id="graph0" class="graph" transform="scale(1 1) rotate(0) translate(4 534)">
<title>dependency&#45;cruiser output</title>
<polygon fill="white" stroke="transparent" points="-4,4 -4,-534 580,-534 580,4 -4,4"/>
<g id="clust1" class="cluster">
<title>cluster_src</title>
<path fill="#ffffff" stroke="black" stroke-width="2" d="M20,-8C20,-8 556,-8 556,-8 562,-8 568,-14 568,-20 568,-20 568,-510 568,-510 568,-516 562,-522 556,-522 556,-522 20,-522 20,-522 14,-522 8,-516 8,-510 8,-510 8,-20 8,-20 8,-14 14,-8 20,-8"/>
<text text-anchor="middle" x="288" y="-510.8" font-family="Helvetica,sans-Serif" font-weight="bold" font-size="9.00">src</text>
</g>
<g id="clust2" class="cluster">
<title>cluster_src/cli</title>
<path fill="#ffffff" stroke="black" stroke-width="2" d="M28,-69C28,-69 112,-69 112,-69 118,-69 124,-75 124,-81 124,-81 124,-229 124,-229 124,-235 118,-241 112,-241 112,-241 28,-241 28,-241 22,-241 16,-235 16,-229 16,-229 16,-81 16,-81 16,-75 22,-69 28,-69"/>
<text text-anchor="middle" x="70" y="-229.8" font-family="Helvetica,sans-Serif" font-weight="bold" font-size="9.00">cli</text>
</g>
<g id="clust3" class="cluster">
<title>cluster_src/cli/compile&#45;config</title>
<path fill="#ffffff" stroke="black" stroke-width="2" d="M42,-77C42,-77 98,-77 98,-77 104,-77 110,-83 110,-89 110,-89 110,-117 110,-117 110,-123 104,-129 98,-129 98,-129 42,-129 42,-129 36,-129 30,-123 30,-117 30,-117 30,-89 30,-89 30,-83 36,-77 42,-77"/>
<text text-anchor="middle" x="70" y="-117.8" font-family="Helvetica,sans-Serif" font-weight="bold" font-size="9.00">compile&#45;config</text>
</g>
<g id="clust4" class="cluster">
<title>cluster_src/enrich</title>
<path fill="#ffffff" stroke="black" stroke-width="2" d="M238,-284C238,-284 284,-284 284,-284 290,-284 296,-290 296,-296 296,-296 296,-324 296,-324 296,-330 290,-336 284,-336 284,-336 238,-336 238,-336 232,-336 226,-330 226,-324 226,-324 226,-296 226,-296 226,-290 232,-284 238,-284"/>
<text text-anchor="middle" x="261" y="-324.8" font-family="Helvetica,sans-Serif" font-weight="bold" font-size="9.00">enrich</text>
</g>
<g id="clust5" class="cluster">
<title>cluster_src/extract</title>
<path fill="#ffffff" stroke="black" stroke-width="2" d="M366,-374C366,-374 428,-374 428,-374 434,-374 440,-380 440,-386 440,-386 440,-474 440,-474 440,-480 434,-486 428,-486 428,-486 366,-486 366,-486 360,-486 354,-480 354,-474 354,-474 354,-386 354,-386 354,-380 360,-374 366,-374"/>
<text text-anchor="middle" x="397" y="-474.8" font-family="Helvetica,sans-Serif" font-weight="bold" font-size="9.00">extract</text>
</g>
<g id="clust6" class="cluster">
<title>cluster_src/extract/transpile</title>
<path fill="#ffffff" stroke="black" stroke-width="2" d="M374,-382C374,-382 420,-382 420,-382 426,-382 432,-388 432,-394 432,-394 432,-422 432,-422 432,-428 426,-434 420,-434 420,-434 374,-434 374,-434 368,-434 362,-428 362,-422 362,-422 362,-394 362,-394 362,-388 368,-382 374,-382"/>
<text text-anchor="middle" x="397" y="-422.8" font-family="Helvetica,sans-Serif" font-weight="bold" font-size="9.00">transpile</text>
</g>
<g id="clust7" class="cluster">
<title>cluster_src/main</title>
<path fill="#ffffff" stroke="black" stroke-width="2" d="M146,-16C146,-16 548,-16 548,-16 554,-16 560,-22 560,-28 560,-28 560,-264 560,-264 560,-270 554,-276 548,-276 548,-276 146,-276 146,-276 140,-276 134,-270 134,-264 134,-264 134,-28 134,-28 134,-22 140,-16 146,-16"/>
<text text-anchor="middle" x="347" y="-264.8" font-family="Helvetica,sans-Serif" font-weight="bold" font-size="9.00">main</text>
</g>
<g id="clust8" class="cluster">
<title>cluster_src/main/files&#45;and&#45;dirs</title>
<path fill="#ffffff" stroke="black" stroke-width="2" d="M232,-198C232,-198 290,-198 290,-198 296,-198 302,-204 302,-210 302,-210 302,-238 302,-238 302,-244 296,-250 290,-250 290,-250 232,-250 232,-250 226,-250 220,-244 220,-238 220,-238 220,-210 220,-210 220,-204 226,-198 232,-198"/>
<text text-anchor="middle" x="261" y="-238.8" font-family="Helvetica,sans-Serif" font-weight="bold" font-size="9.00">files&#45;and&#45;dirs</text>
</g>
<g id="clust9" class="cluster">
<title>cluster_src/main/options</title>
<path fill="#ffffff" stroke="black" stroke-width="2" d="M368,-51C368,-51 540,-51 540,-51 546,-51 552,-57 552,-63 552,-63 552,-121 552,-121 552,-127 546,-133 540,-133 540,-133 368,-133 368,-133 362,-133 356,-127 356,-121 356,-121 356,-63 356,-63 356,-57 362,-51 368,-51"/>
<text text-anchor="middle" x="454" y="-121.8" font-family="Helvetica,sans-Serif" font-weight="bold" font-size="9.00">options</text>
</g>
<g id="clust10" class="cluster">
<title>cluster_src/main/resolve&#45;options</title>
<path fill="#ffffff" stroke="black" stroke-width="2" d="M232,-48C232,-48 291,-48 291,-48 297,-48 303,-54 303,-60 303,-60 303,-88 303,-88 303,-94 297,-100 291,-100 291,-100 232,-100 232,-100 226,-100 220,-94 220,-88 220,-88 220,-60 220,-60 220,-54 226,-48 232,-48"/>
<text text-anchor="middle" x="261.5" y="-88.8" font-family="Helvetica,sans-Serif" font-weight="bold" font-size="9.00">resolve&#45;options</text>
</g>
<g id="clust11" class="cluster">
<title>cluster_src/main/rule&#45;set</title>
<path fill="#ffffff" stroke="black" stroke-width="2" d="M232,-108C232,-108 290,-108 290,-108 296,-108 302,-114 302,-120 302,-120 302,-178 302,-178 302,-184 296,-190 290,-190 290,-190 232,-190 232,-190 226,-190 220,-184 220,-178 220,-178 220,-120 220,-120 220,-114 226,-108 232,-108"/>
<text text-anchor="middle" x="261" y="-178.8" font-family="Helvetica,sans-Serif" font-weight="bold" font-size="9.00">rule&#45;set</text>
</g>
<g id="clust12" class="cluster">
<title>cluster_src/report</title>
<path fill="#ffffff" stroke="black" stroke-width="2" d="M487,-364C487,-364 533,-364 533,-364 539,-364 545,-370 545,-376 545,-376 545,-404 545,-404 545,-410 539,-416 533,-416 533,-416 487,-416 487,-416 481,-416 475,-410 475,-404 475,-404 475,-376 475,-376 475,-370 481,-364 487,-364"/>
<text text-anchor="middle" x="510" y="-404.8" font-family="Helvetica,sans-Serif" font-weight="bold" font-size="9.00">report</text>
</g>
<g id="clust13" class="cluster">
<title>cluster_src/schema</title>
<path fill="#ffffff" stroke="black" stroke-width="2" d="M339,-284C339,-284 455,-284 455,-284 461,-284 467,-290 467,-296 467,-296 467,-354 467,-354 467,-360 461,-366 455,-366 455,-366 339,-366 339,-366 333,-366 327,-360 327,-354 327,-354 327,-296 327,-296 327,-290 333,-284 339,-284"/>
<text text-anchor="middle" x="397" y="-354.8" font-family="Helvetica,sans-Serif" font-weight="bold" font-size="9.00">schema</text>
</g>
<!-- src/cli/compile&#45;config/index.js -->
<g id="node1" class="node">
<title>src/cli/compile&#45;config/index.js</title>
<g id="a_node1"><a xlink:href="src/cli/compile-config/index.js" xlink:title="index.js">
<path fill="lightgray" stroke="black" d="M91,-103C91,-103 49,-103 49,-103 46,-103 43,-100 43,-97 43,-97 43,-91 43,-91 43,-88 46,-85 49,-85 49,-85 91,-85 91,-85 94,-85 97,-88 97,-91 97,-91 97,-97 97,-97 97,-100 94,-103 91,-103"/>
<text text-anchor="middle" x="70" y="-91.8" font-family="Helvetica,sans-Serif" font-size="9.00" fill="gray">index.js</text>
</a>
</g>
</g>
<!-- src/main/resolve&#45;options/normalize.js -->
<g id="node2" class="node">
<title>src/main/resolve&#45;options/normalize.js</title>
<g id="a_node2"><a xlink:href="src/main/resolve-options/normalize.js" xlink:title="normalize.js">
<path fill="lime" stroke="black" d="M288,-74C288,-74 234,-74 234,-74 231,-74 228,-71 228,-68 228,-68 228,-62 228,-62 228,-59 231,-56 234,-56 234,-56 288,-56 288,-56 291,-56 294,-59 294,-62 294,-62 294,-68 294,-68 294,-71 291,-74 288,-74"/>
<text text-anchor="middle" x="261" y="-62.8" font-family="Helvetica,sans-Serif" font-size="9.00">normalize.js</text>
</a>
</g>
</g>
<!-- src/cli/compile&#45;config/index.js&#45;&gt;src/main/resolve&#45;options/normalize.js -->
<g id="edge1" class="edge">
<title>src/cli/compile&#45;config/index.js&#45;&gt;src/main/resolve&#45;options/normalize.js</title>
<path fill="none" stroke="#000000" stroke-width="2" stroke-opacity="0.200000" d="M70,-84.92C70,-75.46 70,-62 70,-62 70,-62 221.73,-62 221.73,-62"/>
<polygon fill="#000000" fill-opacity="0.200000" stroke="#000000" stroke-width="2" stroke-opacity="0.200000" points="221.73,-64.1 227.73,-62 221.73,-59.9 221.73,-64.1"/>
</g>
<!-- src/extract/transpile/meta.js -->
<g id="node9" class="node">
<title>src/extract/transpile/meta.js</title>
<g id="a_node9"><a xlink:href="src/extract/transpile/meta.js" xlink:title="meta.js">
<path fill="lightgray" stroke="black" d="M418,-408C418,-408 376,-408 376,-408 373,-408 370,-405 370,-402 370,-402 370,-396 370,-396 370,-393 373,-390 376,-390 376,-390 418,-390 418,-390 421,-390 424,-393 424,-396 424,-396 424,-402 424,-402 424,-405 421,-408 418,-408"/>
<text text-anchor="middle" x="397" y="-396.8" font-family="Helvetica,sans-Serif" font-size="9.00" fill="gray">meta.js</text>
</a>
</g>
</g>
<!-- src/main/resolve&#45;options/normalize.js&#45;&gt;src/extract/transpile/meta.js -->
<g id="edge18" class="edge">
<title>src/main/resolve&#45;options/normalize.js&#45;&gt;src/extract/transpile/meta.js</title>
<path fill="none" stroke="#000000" stroke-width="2" stroke-opacity="0.200000" d="M294.36,-64C308.6,-64 322,-64 322,-64 322,-64 322,-396 322,-396 322,-396 363.92,-396 363.92,-396"/>
<polygon fill="#000000" fill-opacity="0.200000" stroke="#000000" stroke-width="2" stroke-opacity="0.200000" points="363.92,-398.1 369.92,-396 363.92,-393.9 363.92,-398.1"/>
</g>
<!-- src/cli/format&#45;meta&#45;info.js -->
<g id="node3" class="node">
<title>src/cli/format&#45;meta&#45;info.js</title>
<g id="a_node3"><a xlink:href="src/cli/format-meta-info.js" xlink:title="format&#45;meta&#45;info.js">
<path fill="lightgray" stroke="black" d="M110,-155C110,-155 30,-155 30,-155 27,-155 24,-152 24,-149 24,-149 24,-143 24,-143 24,-140 27,-137 30,-137 30,-137 110,-137 110,-137 113,-137 116,-140 116,-143 116,-143 116,-149 116,-149 116,-152 113,-155 110,-155"/>
<text text-anchor="middle" x="70" y="-143.8" font-family="Helvetica,sans-Serif" font-size="9.00" fill="gray">format&#45;meta&#45;info.js</text>
</a>
</g>
</g>
<!-- src/main/index.js -->
<g id="node4" class="node">
<title>src/main/index.js</title>
<g id="a_node4"><a xlink:href="src/main/index.js" xlink:title="index.js">
<path fill="lime" stroke="black" d="M190,-194C190,-194 148,-194 148,-194 145,-194 142,-191 142,-188 142,-188 142,-182 142,-182 142,-179 145,-176 148,-176 148,-176 190,-176 190,-176 193,-176 196,-179 196,-182 196,-182 196,-188 196,-188 196,-191 193,-194 190,-194"/>
<text text-anchor="middle" x="169" y="-182.8" font-family="Helvetica,sans-Serif" font-size="9.00">index.js</text>
</a>
</g>
</g>
<!-- src/cli/format&#45;meta&#45;info.js&#45;&gt;src/main/index.js -->
<g id="edge2" class="edge">
<title>src/cli/format&#45;meta&#45;info.js&#45;&gt;src/main/index.js</title>
<path fill="none" stroke="#000000" stroke-width="2" stroke-opacity="0.200000" d="M107,-155.02C107,-164.79 107,-179 107,-179 107,-179 135.99,-179 135.99,-179"/>
<polygon fill="#000000" fill-opacity="0.200000" stroke="#000000" stroke-width="2" stroke-opacity="0.200000" points="135.99,-181.1 141.99,-179 135.99,-176.9 135.99,-181.1"/>
</g>
<!-- src/main/index.js&#45;&gt;src/main/resolve&#45;options/normalize.js -->
<g id="edge13" class="edge">
<title>src/main/index.js&#45;&gt;src/main/resolve&#45;options/normalize.js</title>
<path fill="none" stroke="#000000" stroke-width="2" stroke-opacity="0.200000" d="M156,-175.82C156,-148.24 156,-68 156,-68 156,-68 221.78,-68 221.78,-68"/>
<polygon fill="#000000" fill-opacity="0.200000" stroke="#000000" stroke-width="2" stroke-opacity="0.200000" points="221.78,-70.1 227.78,-68 221.78,-65.9 221.78,-70.1"/>
</g>
<!-- src/enrich/index.js -->
<g id="node7" class="node">
<title>src/enrich/index.js</title>
<g id="a_node7"><a xlink:href="src/enrich/index.js" xlink:title="index.js">
<path fill="lightgray" stroke="black" d="M282,-310C282,-310 240,-310 240,-310 237,-310 234,-307 234,-304 234,-304 234,-298 234,-298 234,-295 237,-292 240,-292 240,-292 282,-292 282,-292 285,-292 288,-295 288,-298 288,-298 288,-304 288,-304 288,-307 285,-310 282,-310"/>
<text text-anchor="middle" x="261" y="-298.8" font-family="Helvetica,sans-Serif" font-size="9.00" fill="gray">index.js</text>
</a>
</g>
</g>
<!-- src/main/index.js&#45;&gt;src/enrich/index.js -->
<g id="edge5" class="edge">
<title>src/main/index.js&#45;&gt;src/enrich/index.js</title>
<path fill="none" stroke="#000000" stroke-width="2" stroke-opacity="0.200000" d="M183,-194.1C183,-221.45 183,-301 183,-301 183,-301 227.72,-301 227.72,-301"/>
<polygon fill="#000000" fill-opacity="0.200000" stroke="#000000" stroke-width="2" stroke-opacity="0.200000" points="227.72,-303.1 233.72,-301 227.72,-298.9 227.72,-303.1"/>
</g>
<!-- src/extract/index.js -->
<g id="node8" class="node">
<title>src/extract/index.js</title>
<g id="a_node8"><a xlink:href="src/extract/index.js" xlink:title="index.js">
<path fill="lightgray" stroke="black" d="M418,-460C418,-460 376,-460 376,-460 373,-460 370,-457 370,-454 370,-454 370,-448 370,-448 370,-445 373,-442 376,-442 376,-442 418,-442 418,-442 421,-442 424,-445 424,-448 424,-448 424,-454 424,-454 424,-457 421,-460 418,-460"/>
<text text-anchor="middle" x="397" y="-448.8" font-family="Helvetica,sans-Serif" font-size="9.00" fill="gray">index.js</text>
</a>
</g>
</g>
<!-- src/main/index.js&#45;&gt;src/extract/index.js -->
<g id="edge6" class="edge">
<title>src/main/index.js&#45;&gt;src/extract/index.js</title>
<path fill="none" stroke="#000000" stroke-width="2" stroke-opacity="0.200000" d="M156,-194.16C156,-240.93 156,-451 156,-451 156,-451 363.82,-451 363.82,-451"/>
<polygon fill="#000000" fill-opacity="0.200000" stroke="#000000" stroke-width="2" stroke-opacity="0.200000" points="363.82,-453.1 369.82,-451 363.82,-448.9 363.82,-453.1"/>
</g>
<!-- src/main/index.js&#45;&gt;src/extract/transpile/meta.js -->
<g id="edge7" class="edge">
<title>src/main/index.js&#45;&gt;src/extract/transpile/meta.js</title>
<path fill="none" stroke="#000000" stroke-width="2" stroke-opacity="0.200000" d="M163,-194.05C163,-235.12 163,-402 163,-402 163,-402 363.7,-402 363.7,-402"/>
<polygon fill="#000000" fill-opacity="0.200000" stroke="#000000" stroke-width="2" stroke-opacity="0.200000" points="363.7,-404.1 369.7,-402 363.7,-399.9 363.7,-404.1"/>
</g>
<!-- src/main/files&#45;and&#45;dirs/normalize.js -->
<g id="node10" class="node">
<title>src/main/files&#45;and&#45;dirs/normalize.js</title>
<g id="a_node10"><a xlink:href="src/main/files-and-dirs/normalize.js" xlink:title="normalize.js">
<path fill="lime" stroke="black" d="M288,-224C288,-224 234,-224 234,-224 231,-224 228,-221 228,-218 228,-218 228,-212 228,-212 228,-209 231,-206 234,-206 234,-206 288,-206 288,-206 291,-206 294,-209 294,-212 294,-212 294,-218 294,-218 294,-221 291,-224 288,-224"/>
<text text-anchor="middle" x="261" y="-212.8" font-family="Helvetica,sans-Serif" font-size="9.00">normalize.js</text>
</a>
</g>
</g>
<!-- src/main/index.js&#45;&gt;src/main/files&#45;and&#45;dirs/normalize.js -->
<g id="edge10" class="edge">
<title>src/main/index.js&#45;&gt;src/main/files&#45;and&#45;dirs/normalize.js</title>
<path fill="none" stroke="#000000" stroke-width="2" stroke-opacity="0.200000" d="M190,-194.21C190,-201.51 190,-210.5 190,-210.5 190,-210.5 221.99,-210.5 221.99,-210.5"/>
<polygon fill="#000000" fill-opacity="0.200000" stroke="#000000" stroke-width="2" stroke-opacity="0.200000" points="221.99,-212.6 227.99,-210.5 221.99,-208.4 221.99,-212.6"/>
</g>
<!-- src/report/index.js -->
<g id="node11" class="node">
<title>src/report/index.js</title>
<g id="a_node11"><a xlink:href="src/report/index.js" xlink:title="index.js">
<path fill="lightgray" stroke="black" d="M531,-390C531,-390 489,-390 489,-390 486,-390 483,-387 483,-384 483,-384 483,-378 483,-378 483,-375 486,-372 489,-372 489,-372 531,-372 531,-372 534,-372 537,-375 537,-378 537,-378 537,-384 537,-384 537,-387 534,-390 531,-390"/>
<text text-anchor="middle" x="510" y="-378.8" font-family="Helvetica,sans-Serif" font-size="9.00" fill="gray">index.js</text>
</a>
</g>
</g>
<!-- src/main/index.js&#45;&gt;src/report/index.js -->
<g id="edge8" class="edge">
<title>src/main/index.js&#45;&gt;src/report/index.js</title>
<path fill="none" stroke="#000000" stroke-width="2" stroke-opacity="0.200000" d="M169,-194.19C169,-232.94 169,-381 169,-381 169,-381 476.96,-381 476.96,-381"/>
<polygon fill="#000000" fill-opacity="0.200000" stroke="#000000" stroke-width="2" stroke-opacity="0.200000" points="476.96,-383.1 482.96,-381 476.96,-378.9 476.96,-383.1"/>
</g>
<!-- src/schema/cruise&#45;result.schema.json -->
<g id="node12" class="node">
<title>src/schema/cruise&#45;result.schema.json</title>
<g id="a_node12"><a xlink:href="src/schema/cruise-result.schema.json" xlink:title="cruise&#45;result.schema.json">
<path fill="lightgray" stroke="black" d="M451.5,-340C451.5,-340 342.5,-340 342.5,-340 339.5,-340 336.5,-337 336.5,-334 336.5,-334 336.5,-328 336.5,-328 336.5,-325 339.5,-322 342.5,-322 342.5,-322 451.5,-322 451.5,-322 454.5,-322 457.5,-325 457.5,-328 457.5,-328 457.5,-334 457.5,-334 457.5,-337 454.5,-340 451.5,-340"/>
<text text-anchor="middle" x="397" y="-328.8" font-family="Helvetica,sans-Serif" font-size="9.00" fill="gray">cruise&#45;result.schema.json</text>
</a>
</g>
</g>
<!-- src/main/index.js&#45;&gt;src/schema/cruise&#45;result.schema.json -->
<g id="edge9" class="edge">
<title>src/main/index.js&#45;&gt;src/schema/cruise&#45;result.schema.json</title>
<path fill="none" stroke="#000000" stroke-width="2" stroke-opacity="0.200000" d="M176,-194.13C176,-226.1 176,-331 176,-331 176,-331 330.32,-331 330.32,-331"/>
<polygon fill="#000000" fill-opacity="0.200000" stroke="#000000" stroke-width="2" stroke-opacity="0.200000" points="330.32,-333.1 336.32,-331 330.32,-328.9 330.32,-333.1"/>
</g>
<!-- src/main/options/normalize.js -->
<g id="node13" class="node">
<title>src/main/options/normalize.js</title>
<g id="a_node13"><a xlink:href="src/main/options/normalize.js" xlink:title="normalize.js">
<path fill="lime" stroke="black" d="M424,-77C424,-77 370,-77 370,-77 367,-77 364,-74 364,-71 364,-71 364,-65 364,-65 364,-62 367,-59 370,-59 370,-59 424,-59 424,-59 427,-59 430,-62 430,-65 430,-65 430,-71 430,-71 430,-74 427,-77 424,-77"/>
<text text-anchor="middle" x="397" y="-65.8" font-family="Helvetica,sans-Serif" font-size="9.00">normalize.js</text>
</a>
</g>
</g>
<!-- src/main/index.js&#45;&gt;src/main/options/normalize.js -->
<g id="edge11" class="edge">
<title>src/main/index.js&#45;&gt;src/main/options/normalize.js</title>
<path fill="none" stroke="#000000" stroke-width="2" stroke-opacity="0.200000" d="M196.13,-182C236.58,-182 308,-182 308,-182 308,-182 308,-69 308,-69 308,-69 357.86,-69 357.86,-69"/>
<polygon fill="#000000" fill-opacity="0.200000" stroke="#000000" stroke-width="2" stroke-opacity="0.200000" points="357.86,-71.1 363.86,-69 357.86,-66.9 357.86,-71.1"/>
</g>
<!-- src/main/options/validate.js -->
<g id="node14" class="node">
<title>src/main/options/validate.js</title>
<g id="a_node14"><a xlink:href="src/main/options/validate.js" xlink:title="validate.js">
<path fill="lime" stroke="black" d="M420,-107C420,-107 374,-107 374,-107 371,-107 368,-104 368,-101 368,-101 368,-95 368,-95 368,-92 371,-89 374,-89 374,-89 420,-89 420,-89 423,-89 426,-92 426,-95 426,-95 426,-101 426,-101 426,-104 423,-107 420,-107"/>
<text text-anchor="middle" x="397" y="-95.8" font-family="Helvetica,sans-Serif" font-size="9.00">validate.js</text>
</a>
</g>
</g>
<!-- src/main/index.js&#45;&gt;src/main/options/validate.js -->
<g id="edge12" class="edge">
<title>src/main/index.js&#45;&gt;src/main/options/validate.js</title>
<path fill="none" stroke="#000000" stroke-width="2" stroke-opacity="0.200000" d="M196.3,-188C258.82,-188 407,-188 407,-188 407,-188 407,-113.29 407,-113.29"/>
<polygon fill="#000000" fill-opacity="0.200000" stroke="#000000" stroke-width="2" stroke-opacity="0.200000" points="409.1,-113.29 407,-107.29 404.9,-113.29 409.1,-113.29"/>
</g>
<!-- src/main/rule&#45;set/normalize.js -->
<g id="node15" class="node">
<title>src/main/rule&#45;set/normalize.js</title>
<g id="a_node15"><a xlink:href="src/main/rule-set/normalize.js" xlink:title="normalize.js">
<path fill="lime" stroke="black" d="M288,-164C288,-164 234,-164 234,-164 231,-164 228,-161 228,-158 228,-158 228,-152 228,-152 228,-149 231,-146 234,-146 234,-146 288,-146 288,-146 291,-146 294,-149 294,-152 294,-152 294,-158 294,-158 294,-161 291,-164 288,-164"/>
<text text-anchor="middle" x="261" y="-152.8" font-family="Helvetica,sans-Serif" font-size="9.00">normalize.js</text>
</a>
</g>
</g>
<!-- src/main/index.js&#45;&gt;src/main/rule&#45;set/normalize.js -->
<g id="edge14" class="edge">
<title>src/main/index.js&#45;&gt;src/main/rule&#45;set/normalize.js</title>
<path fill="none" stroke="#000000" stroke-width="2" stroke-opacity="0.200000" d="M183,-175.79C183,-168.49 183,-159.5 183,-159.5 183,-159.5 221.92,-159.5 221.92,-159.5"/>
<polygon fill="#000000" fill-opacity="0.200000" stroke="#000000" stroke-width="2" stroke-opacity="0.200000" points="221.92,-161.6 227.92,-159.5 221.92,-157.4 221.92,-161.6"/>
</g>
<!-- src/main/rule&#45;set/validate.js -->
<g id="node16" class="node">
<title>src/main/rule&#45;set/validate.js</title>
<g id="a_node16"><a xlink:href="src/main/rule-set/validate.js" xlink:title="validate.js">
<path fill="lime" stroke="black" d="M284,-134C284,-134 238,-134 238,-134 235,-134 232,-131 232,-128 232,-128 232,-122 232,-122 232,-119 235,-116 238,-116 238,-116 284,-116 284,-116 287,-116 290,-119 290,-122 290,-122 290,-128 290,-128 290,-131 287,-134 284,-134"/>
<text text-anchor="middle" x="261" y="-122.8" font-family="Helvetica,sans-Serif" font-size="9.00">validate.js</text>
</a>
</g>
</g>
<!-- src/main/index.js&#45;&gt;src/main/rule&#45;set/validate.js -->
<g id="edge15" class="edge">
<title>src/main/index.js&#45;&gt;src/main/rule&#45;set/validate.js</title>
<path fill="none" stroke="#000000" stroke-width="2" stroke-opacity="0.200000" d="M169,-175.89C169,-159.1 169,-125 169,-125 169,-125 225.89,-125 225.89,-125"/>
<polygon fill="#000000" fill-opacity="0.200000" stroke="#000000" stroke-width="2" stroke-opacity="0.200000" points="225.89,-127.1 231.89,-125 225.89,-122.9 225.89,-127.1"/>
</g>
<!-- src/cli/format.js -->
<g id="node5" class="node">
<title>src/cli/format.js</title>
<g id="a_node5"><a xlink:href="src/cli/format.js" xlink:title="format.js">
<path fill="lightgray" stroke="black" d="M91,-215C91,-215 49,-215 49,-215 46,-215 43,-212 43,-209 43,-209 43,-203 43,-203 43,-200 46,-197 49,-197 49,-197 91,-197 91,-197 94,-197 97,-200 97,-203 97,-203 97,-209 97,-209 97,-212 94,-215 91,-215"/>
<text text-anchor="middle" x="70" y="-203.8" font-family="Helvetica,sans-Serif" font-size="9.00" fill="gray">format.js</text>
</a>
</g>
</g>
<!-- src/cli/format.js&#45;&gt;src/main/index.js -->
<g id="edge3" class="edge">
<title>src/cli/format.js&#45;&gt;src/main/index.js</title>
<path fill="none" stroke="#000000" stroke-width="2" stroke-opacity="0.200000" d="M97.19,-201.5C120.04,-201.5 149,-201.5 149,-201.5 149,-201.5 149,-200.02 149,-200.02"/>
<polygon fill="#000000" fill-opacity="0.200000" stroke="#000000" stroke-width="2" stroke-opacity="0.200000" points="151.1,-200.02 149,-194.02 146.9,-200.02 151.1,-200.02"/>
</g>
<!-- src/cli/index.js -->
<g id="node6" class="node">
<title>src/cli/index.js</title>
<g id="a_node6"><a xlink:href="src/cli/index.js" xlink:title="index.js">
<path fill="lightgray" stroke="black" d="M91,-185C91,-185 49,-185 49,-185 46,-185 43,-182 43,-179 43,-179 43,-173 43,-173 43,-170 46,-167 49,-167 49,-167 91,-167 91,-167 94,-167 97,-170 97,-173 97,-173 97,-179 97,-179 97,-182 94,-185 91,-185"/>
<text text-anchor="middle" x="70" y="-173.8" font-family="Helvetica,sans-Serif" font-size="9.00" fill="gray">index.js</text>
</a>
</g>
</g>
<!-- src/cli/index.js&#45;&gt;src/main/index.js -->
<g id="edge4" class="edge">
<title>src/cli/index.js&#45;&gt;src/main/index.js</title>
<path fill="none" stroke="#000000" stroke-width="2" stroke-opacity="0.200000" d="M97.05,-182C97.05,-182 135.98,-182 135.98,-182"/>
<polygon fill="#000000" fill-opacity="0.200000" stroke="#000000" stroke-width="2" stroke-opacity="0.200000" points="135.98,-184.1 141.98,-182 135.98,-179.9 135.98,-184.1"/>
</g>
<!-- src/main/options/defaults.json -->
<g id="node17" class="node">
<title>src/main/options/defaults.json</title>
<g id="a_node17"><a xlink:href="src/main/options/defaults.json" xlink:title="defaults.json">
<path fill="lime" stroke="black" d="M538,-77C538,-77 482,-77 482,-77 479,-77 476,-74 476,-71 476,-71 476,-65 476,-65 476,-62 479,-59 482,-59 482,-59 538,-59 538,-59 541,-59 544,-62 544,-65 544,-65 544,-71 544,-71 544,-74 541,-77 538,-77"/>
<text text-anchor="middle" x="510" y="-65.8" font-family="Helvetica,sans-Serif" font-size="9.00">defaults.json</text>
</a>
</g>
</g>
<!-- src/main/options/normalize.js&#45;&gt;src/main/options/defaults.json -->
<g id="edge16" class="edge">
<title>src/main/options/normalize.js&#45;&gt;src/main/options/defaults.json</title>
<path fill="none" stroke="#000000" stroke-width="2" stroke-opacity="0.200000" d="M430.29,-68C430.29,-68 469.77,-68 469.77,-68"/>
<polygon fill="#000000" fill-opacity="0.200000" stroke="#000000" stroke-width="2" stroke-opacity="0.200000" points="469.77,-70.1 475.77,-68 469.77,-65.9 469.77,-70.1"/>
</g>
<!-- src/main/options/validate.js&#45;&gt;src/report/index.js -->
<g id="edge17" class="edge">
<title>src/main/options/validate.js&#45;&gt;src/report/index.js</title>
<path fill="none" stroke="#000000" stroke-width="2" stroke-opacity="0.200000" d="M426.1,-98C459.58,-98 510,-98 510,-98 510,-98 510,-365.9 510,-365.9"/>
<polygon fill="#000000" fill-opacity="0.200000" stroke="#000000" stroke-width="2" stroke-opacity="0.200000" points="507.9,-365.9 510,-371.9 512.1,-365.9 507.9,-365.9"/>
</g>
<!-- src/main/rule&#45;set/validate.js&#45;&gt;src/main/options/validate.js -->
<g id="edge20" class="edge">
<title>src/main/rule&#45;set/validate.js&#45;&gt;src/main/options/validate.js</title>
<path fill="none" stroke="#000000" stroke-width="2" stroke-opacity="0.200000" d="M290.14,-122C327.63,-122 388,-122 388,-122 388,-122 388,-113.21 388,-113.21"/>
<polygon fill="#000000" fill-opacity="0.200000" stroke="#000000" stroke-width="2" stroke-opacity="0.200000" points="390.1,-113.21 388,-107.21 385.9,-113.21 390.1,-113.21"/>
</g>
<!-- src/schema/configuration.schema.json -->
<g id="node18" class="node">
<title>src/schema/configuration.schema.json</title>
<g id="a_node18"><a xlink:href="src/schema/configuration.schema.json" xlink:title="configuration.schema.json">
<path fill="lightgray" stroke="black" d="M453,-310C453,-310 341,-310 341,-310 338,-310 335,-307 335,-304 335,-304 335,-298 335,-298 335,-295 338,-292 341,-292 341,-292 453,-292 453,-292 456,-292 459,-295 459,-298 459,-298 459,-304 459,-304 459,-307 456,-310 453,-310"/>
<text text-anchor="middle" x="397" y="-298.8" font-family="Helvetica,sans-Serif" font-size="9.00" fill="gray">configuration.schema.json</text>
</a>
</g>
</g>
<!-- src/main/rule&#45;set/validate.js&#45;&gt;src/schema/configuration.schema.json -->
<g id="edge19" class="edge">
<title>src/main/rule&#45;set/validate.js&#45;&gt;src/schema/configuration.schema.json</title>
<path fill="none" stroke="#000000" stroke-width="2" stroke-opacity="0.200000" d="M290.14,-128C316.1,-128 350,-128 350,-128 350,-128 350,-285.7 350,-285.7"/>
<polygon fill="#000000" fill-opacity="0.200000" stroke="#000000" stroke-width="2" stroke-opacity="0.200000" points="347.9,-285.7 350,-291.7 352.1,-285.7 347.9,-285.7"/>
</g>
</g>
</svg>
