<?xml version="1.0" encoding="UTF-8" standalone="no"?>
<!DOCTYPE svg PUBLIC "-//W3C//DTD SVG 1.1//EN"
 "http://www.w3.org/Graphics/SVG/1.1/DTD/svg11.dtd">
<!-- Generated by graphviz version 2.50.0 (20211204.2007)
 -->
<!-- Title: dependency&#45;cruiser output Pages: 1 -->
<svg width="726pt" height="860pt"
 viewBox="0.00 0.00 726.00 860.00" xmlns="http://www.w3.org/2000/svg" xmlns:xlink="http://www.w3.org/1999/xlink">
<g id="graph0" class="graph" transform="scale(1 1) rotate(0) translate(4 856)">
<title>dependency&#45;cruiser output</title>
<polygon fill="white" stroke="transparent" points="-4,4 -4,-856 722,-856 722,4 -4,4"/>
<g id="clust1" class="cluster">
<title>cluster_src</title>
<path fill="#ffffff" stroke="black" stroke-width="2" d="M20,-8C20,-8 698,-8 698,-8 704,-8 710,-14 710,-20 710,-20 710,-832 710,-832 710,-838 704,-844 698,-844 698,-844 20,-844 20,-844 14,-844 8,-838 8,-832 8,-832 8,-20 8,-20 8,-14 14,-8 20,-8"/>
<text text-anchor="middle" x="359" y="-832.8" font-family="Helvetica,sans-Serif" font-weight="bold" font-size="9.00">src</text>
</g>
<g id="clust3" class="cluster">
<title>cluster_src/config&#45;utl</title>
<path fill="#ffffff" stroke="black" stroke-width="2" d="M152,-636C152,-636 266,-636 266,-636 272,-636 278,-642 278,-648 278,-648 278,-710 278,-710 278,-716 272,-722 266,-722 266,-722 152,-722 152,-722 146,-722 140,-716 140,-710 140,-710 140,-648 140,-648 140,-642 146,-636 152,-636"/>
<text text-anchor="middle" x="209" y="-710.8" font-family="Helvetica,sans-Serif" font-weight="bold" font-size="9.00">config&#45;utl</text>
</g>
<g id="clust4" class="cluster">
<title>cluster_src/config&#45;utl/extract&#45;depcruise&#45;config</title>
<path fill="#ffffff" stroke="black" stroke-width="2" d="M160,-644C160,-644 258,-644 258,-644 264,-644 270,-650 270,-656 270,-656 270,-684 270,-684 270,-690 264,-696 258,-696 258,-696 160,-696 160,-696 154,-696 148,-690 148,-684 148,-684 148,-656 148,-656 148,-650 154,-644 160,-644"/>
<text text-anchor="middle" x="209" y="-684.8" font-family="Helvetica,sans-Serif" font-weight="bold" font-size="9.00">extract&#45;depcruise&#45;config</text>
</g>
<g id="clust5" class="cluster">
<title>cluster_src/enrich</title>
<path fill="#ffffff" stroke="black" stroke-width="2" d="M451.5,-136C451.5,-136 513.5,-136 513.5,-136 519.5,-136 525.5,-142 525.5,-148 525.5,-148 525.5,-236 525.5,-236 525.5,-242 519.5,-248 513.5,-248 513.5,-248 451.5,-248 451.5,-248 445.5,-248 439.5,-242 439.5,-236 439.5,-236 439.5,-148 439.5,-148 439.5,-142 445.5,-136 451.5,-136"/>
<text text-anchor="middle" x="482.5" y="-236.8" font-family="Helvetica,sans-Serif" font-weight="bold" font-size="9.00">enrich</text>
</g>
<g id="clust6" class="cluster">
<title>cluster_src/enrich/summarize</title>
<path fill="#ffffff" stroke="black" stroke-width="2" d="M459.5,-170C459.5,-170 505.5,-170 505.5,-170 511.5,-170 517.5,-176 517.5,-182 517.5,-182 517.5,-210 517.5,-210 517.5,-216 511.5,-222 505.5,-222 505.5,-222 459.5,-222 459.5,-222 453.5,-222 447.5,-216 447.5,-210 447.5,-210 447.5,-182 447.5,-182 447.5,-176 453.5,-170 459.5,-170"/>
<text text-anchor="middle" x="482.5" y="-210.8" font-family="Helvetica,sans-Serif" font-weight="bold" font-size="9.00">summarize</text>
</g>
<g id="clust7" class="cluster">
<title>cluster_src/extract</title>
<path fill="#ffffff" stroke="black" stroke-width="2" d="M451.5,-16C451.5,-16 513.5,-16 513.5,-16 519.5,-16 525.5,-22 525.5,-28 525.5,-28 525.5,-116 525.5,-116 525.5,-122 519.5,-128 513.5,-128 513.5,-128 451.5,-128 451.5,-128 445.5,-128 439.5,-122 439.5,-116 439.5,-116 439.5,-28 439.5,-28 439.5,-22 445.5,-16 451.5,-16"/>
<text text-anchor="middle" x="482.5" y="-116.8" font-family="Helvetica,sans-Serif" font-weight="bold" font-size="9.00">extract</text>
</g>
<g id="clust8" class="cluster">
<title>cluster_src/extract/transpile</title>
<path fill="#ffffff" stroke="black" stroke-width="2" d="M459.5,-50C459.5,-50 505.5,-50 505.5,-50 511.5,-50 517.5,-56 517.5,-62 517.5,-62 517.5,-90 517.5,-90 517.5,-96 511.5,-102 505.5,-102 505.5,-102 459.5,-102 459.5,-102 453.5,-102 447.5,-96 447.5,-90 447.5,-90 447.5,-62 447.5,-62 447.5,-56 453.5,-50 459.5,-50"/>
<text text-anchor="middle" x="482.5" y="-90.8" font-family="Helvetica,sans-Serif" font-weight="bold" font-size="9.00">transpile</text>
</g>
<g id="clust9" class="cluster">
<title>cluster_src/graph&#45;utl</title>
<path fill="#ffffff" stroke="black" stroke-width="2" d="M429,-636C429,-636 536,-636 536,-636 542,-636 548,-642 548,-648 548,-648 548,-796 548,-796 548,-802 542,-808 536,-808 536,-808 429,-808 429,-808 423,-808 417,-802 417,-796 417,-796 417,-648 417,-648 417,-642 423,-636 429,-636"/>
<text text-anchor="middle" x="482.5" y="-796.8" font-family="Helvetica,sans-Serif" font-weight="bold" font-size="9.00">graph&#45;utl</text>
</g>
<g id="clust10" class="cluster">
<title>cluster_src/main</title>
<path fill="#ffffff" stroke="black" stroke-width="2" d="M186,-346C186,-346 690,-346 690,-346 696,-346 702,-352 702,-358 702,-358 702,-616 702,-616 702,-622 696,-628 690,-628 690,-628 186,-628 186,-628 180,-628 174,-622 174,-616 174,-616 174,-358 174,-358 174,-352 180,-346 186,-346"/>
<text text-anchor="middle" x="438" y="-616.8" font-family="Helvetica,sans-Serif" font-weight="bold" font-size="9.00">main</text>
</g>
<g id="clust11" class="cluster">
<title>cluster_src/main/files&#45;and&#45;dirs</title>
<path fill="#ffffff" stroke="black" stroke-width="2" d="M322,-454C322,-454 380,-454 380,-454 386,-454 392,-460 392,-466 392,-466 392,-494 392,-494 392,-500 386,-506 380,-506 380,-506 322,-506 322,-506 316,-506 310,-500 310,-494 310,-494 310,-466 310,-466 310,-460 316,-454 322,-454"/>
<text text-anchor="middle" x="351" y="-494.8" font-family="Helvetica,sans-Serif" font-weight="bold" font-size="9.00">files&#45;and&#45;dirs</text>
</g>
<g id="clust13" class="cluster">
<title>cluster_src/main/resolve&#45;options</title>
<path fill="#ffffff" stroke="black" stroke-width="2" d="M322,-524C322,-524 381,-524 381,-524 387,-524 393,-530 393,-536 393,-536 393,-564 393,-564 393,-570 387,-576 381,-576 381,-576 322,-576 322,-576 316,-576 310,-570 310,-564 310,-564 310,-536 310,-536 310,-530 316,-524 322,-524"/>
<text text-anchor="middle" x="351.5" y="-564.8" font-family="Helvetica,sans-Serif" font-weight="bold" font-size="9.00">resolve&#45;options</text>
</g>
<g id="clust14" class="cluster">
<title>cluster_src/main/rule&#45;set</title>
<path fill="#ffffff" stroke="black" stroke-width="2" d="M322,-364C322,-364 380,-364 380,-364 386,-364 392,-370 392,-376 392,-376 392,-434 392,-434 392,-440 386,-446 380,-446 380,-446 322,-446 322,-446 316,-446 310,-440 310,-434 310,-434 310,-376 310,-376 310,-370 316,-364 322,-364"/>
<text text-anchor="middle" x="351" y="-434.8" font-family="Helvetica,sans-Serif" font-weight="bold" font-size="9.00">rule&#45;set</text>
</g>
<g id="clust12" class="cluster">
<title>cluster_src/main/options</title>
<path fill="#ffffff" stroke="black" stroke-width="2" d="M453.5,-364C453.5,-364 650,-364 650,-364 656,-364 662,-370 662,-376 662,-376 662,-434 662,-434 662,-440 656,-446 650,-446 650,-446 453.5,-446 453.5,-446 447.5,-446 441.5,-440 441.5,-434 441.5,-434 441.5,-376 441.5,-376 441.5,-370 447.5,-364 453.5,-364"/>
<text text-anchor="middle" x="551.75" y="-434.8" font-family="Helvetica,sans-Serif" font-weight="bold" font-size="9.00">options</text>
</g>
<g id="clust15" class="cluster">
<title>cluster_src/main/utl</title>
<path fill="#ffffff" stroke="black" stroke-width="2" d="M568,-454C568,-454 682,-454 682,-454 688,-454 694,-460 694,-466 694,-466 694,-494 694,-494 694,-500 688,-506 682,-506 682,-506 568,-506 568,-506 562,-506 556,-500 556,-494 556,-494 556,-466 556,-466 556,-460 562,-454 568,-454"/>
<text text-anchor="middle" x="625" y="-494.8" font-family="Helvetica,sans-Serif" font-weight="bold" font-size="9.00">utl</text>
</g>
<g id="clust16" class="cluster">
<title>cluster_src/report</title>
<path fill="#ffffff" stroke="black" stroke-width="2" d="M602,-701C602,-701 648,-701 648,-701 654,-701 660,-707 660,-713 660,-713 660,-741 660,-741 660,-747 654,-753 648,-753 648,-753 602,-753 602,-753 596,-753 590,-747 590,-741 590,-741 590,-713 590,-713 590,-707 596,-701 602,-701"/>
<text text-anchor="middle" x="625" y="-741.8" font-family="Helvetica,sans-Serif" font-weight="bold" font-size="9.00">report</text>
</g>
<g id="clust17" class="cluster">
<title>cluster_src/schema</title>
<path fill="#ffffff" stroke="black" stroke-width="2" d="M430,-256C430,-256 535,-256 535,-256 541,-256 547,-262 547,-268 547,-268 547,-326 547,-326 547,-332 541,-338 535,-338 535,-338 430,-338 430,-338 424,-338 418,-332 418,-326 418,-326 418,-268 418,-268 418,-262 424,-256 430,-256"/>
<text text-anchor="middle" x="482.5" y="-326.8" font-family="Helvetica,sans-Serif" font-weight="bold" font-size="9.00">schema</text>
</g>
<g id="clust18" class="cluster">
<title>cluster_src/utl</title>
<path fill="#ffffff" stroke="black" stroke-width="2" d="M328,-286C328,-286 374,-286 374,-286 380,-286 386,-292 386,-298 386,-298 386,-326 386,-326 386,-332 380,-338 374,-338 374,-338 328,-338 328,-338 322,-338 316,-332 316,-326 316,-326 316,-298 316,-298 316,-292 322,-286 328,-286"/>
<text text-anchor="middle" x="351" y="-326.8" font-family="Helvetica,sans-Serif" font-weight="bold" font-size="9.00">utl</text>
</g>
<g id="clust2" class="cluster">
<title>cluster_src/cli</title>
<path fill="#ffffff" stroke="black" stroke-width="2" d="M28,-325C28,-325 112,-325 112,-325 118,-325 124,-331 124,-337 124,-337 124,-425 124,-425 124,-431 118,-437 112,-437 112,-437 28,-437 28,-437 22,-437 16,-431 16,-425 16,-425 16,-337 16,-337 16,-331 22,-325 28,-325"/>
<text text-anchor="middle" x="70" y="-425.8" font-family="Helvetica,sans-Serif" font-weight="bold" font-size="9.00">cli</text>
</g>
<!-- src/cli/format&#45;meta&#45;info.js -->
<g id="node1" class="node">
<title>src/cli/format&#45;meta&#45;info.js</title>
<g id="a_node1"><a xlink:href="src/cli/format-meta-info.js" xlink:title="format&#45;meta&#45;info.js">
<path fill="lightgray" stroke="black" d="M110,-411C110,-411 30,-411 30,-411 27,-411 24,-408 24,-405 24,-405 24,-399 24,-399 24,-396 27,-393 30,-393 30,-393 110,-393 110,-393 113,-393 116,-396 116,-399 116,-399 116,-405 116,-405 116,-408 113,-411 110,-411"/>
<text text-anchor="start" x="32" y="-399.8" font-family="Helvetica,sans-Serif" font-size="9.00" fill="gray">format&#45;meta&#45;info.js</text>
</a>
</g>
</g>
<!-- src/main/index.js -->
<g id="node2" class="node">
<title>src/main/index.js</title>
<g id="a_node2"><a xlink:href="src/main/index.js" xlink:title="index.js">
<path fill="lime" stroke="black" d="M230,-381C230,-381 188,-381 188,-381 185,-381 182,-378 182,-375 182,-375 182,-369 182,-369 182,-366 185,-363 188,-363 188,-363 230,-363 230,-363 233,-363 236,-366 236,-369 236,-369 236,-375 236,-375 236,-378 233,-381 230,-381"/>
<text text-anchor="start" x="193" y="-369.8" font-family="Helvetica,sans-Serif" font-size="9.00">index.js</text>
</a>
</g>
</g>
<!-- src/cli/format&#45;meta&#45;info.js&#45;&gt;src/main/index.js -->
<g id="edge1" class="edge">
<title>src/cli/format&#45;meta&#45;info.js&#45;&gt;src/main/index.js</title>
<path fill="none" stroke="#000000" stroke-width="2" stroke-opacity="0.200000" d="M107,-392.86C107,-385.03 107,-375 107,-375 107,-375 175.93,-375 175.93,-375"/>
<polygon fill="#000000" fill-opacity="0.200000" stroke="#000000" stroke-width="2" stroke-opacity="0.200000" points="175.93,-377.1 181.93,-375 175.93,-372.9 175.93,-377.1"/>
</g>
<!-- src/main/resolve&#45;options/normalize.js -->
<g id="node6" class="node">
<title>src/main/resolve&#45;options/normalize.js</title>
<g id="a_node6"><a xlink:href="src/main/resolve-options/normalize.js" xlink:title="normalize.js">
<path fill="lime" stroke="black" d="M378,-550C378,-550 324,-550 324,-550 321,-550 318,-547 318,-544 318,-544 318,-538 318,-538 318,-535 321,-532 324,-532 324,-532 378,-532 378,-532 381,-532 384,-535 384,-538 384,-538 384,-544 384,-544 384,-547 381,-550 378,-550"/>
<text text-anchor="start" x="326" y="-538.8" font-family="Helvetica,sans-Serif" font-size="9.00">normalize.js</text>
</a>
</g>
</g>
<!-- src/main/index.js&#45;&gt;src/main/resolve&#45;options/normalize.js -->
<g id="edge14" class="edge">
<title>src/main/index.js&#45;&gt;src/main/resolve&#45;options/normalize.js</title>
<path fill="none" stroke="#000000" stroke-width="2" stroke-opacity="0.200000" d="M200,-381.4C200,-416.52 200,-538 200,-538 200,-538 311.86,-538 311.86,-538"/>
<polygon fill="#000000" fill-opacity="0.200000" stroke="#000000" stroke-width="2" stroke-opacity="0.200000" points="311.86,-540.1 317.86,-538 311.86,-535.9 311.86,-540.1"/>
</g>
<!-- src/enrich/index.js -->
<g id="node7" class="node">
<title>src/enrich/index.js</title>
<g id="a_node7"><a xlink:href="src/enrich/index.js" xlink:title="index.js">
<path fill="lightgray" stroke="black" d="M503.5,-162C503.5,-162 461.5,-162 461.5,-162 458.5,-162 455.5,-159 455.5,-156 455.5,-156 455.5,-150 455.5,-150 455.5,-147 458.5,-144 461.5,-144 461.5,-144 503.5,-144 503.5,-144 506.5,-144 509.5,-147 509.5,-150 509.5,-150 509.5,-156 509.5,-156 509.5,-159 506.5,-162 503.5,-162"/>
<text text-anchor="start" x="466.5" y="-150.8" font-family="Helvetica,sans-Serif" font-size="9.00" fill="gray">index.js</text>
</a>
</g>
</g>
<!-- src/main/index.js&#45;&gt;src/enrich/index.js -->
<g id="edge5" class="edge">
<title>src/main/index.js&#45;&gt;src/enrich/index.js</title>
<path fill="none" stroke="#000000" stroke-width="2" stroke-opacity="0.200000" d="M218,-362.87C218,-321.42 218,-153 218,-153 218,-153 449.19,-153 449.19,-153"/>
<polygon fill="#000000" fill-opacity="0.200000" stroke="#000000" stroke-width="2" stroke-opacity="0.200000" points="449.19,-155.1 455.19,-153 449.19,-150.9 449.19,-155.1"/>
</g>
<!-- src/extract/index.js -->
<g id="node9" class="node">
<title>src/extract/index.js</title>
<g id="a_node9"><a xlink:href="src/extract/index.js" xlink:title="index.js">
<path fill="lightgray" stroke="black" d="M503.5,-42C503.5,-42 461.5,-42 461.5,-42 458.5,-42 455.5,-39 455.5,-36 455.5,-36 455.5,-30 455.5,-30 455.5,-27 458.5,-24 461.5,-24 461.5,-24 503.5,-24 503.5,-24 506.5,-24 509.5,-27 509.5,-30 509.5,-30 509.5,-36 509.5,-36 509.5,-39 506.5,-42 503.5,-42"/>
<text text-anchor="start" x="466.5" y="-30.8" font-family="Helvetica,sans-Serif" font-size="9.00" fill="gray">index.js</text>
</a>
</g>
</g>
<!-- src/main/index.js&#45;&gt;src/extract/index.js -->
<g id="edge6" class="edge">
<title>src/main/index.js&#45;&gt;src/extract/index.js</title>
<path fill="none" stroke="#000000" stroke-width="2" stroke-opacity="0.200000" d="M200,-362.93C200,-309.02 200,-33 200,-33 200,-33 449.41,-33 449.41,-33"/>
<polygon fill="#000000" fill-opacity="0.200000" stroke="#000000" stroke-width="2" stroke-opacity="0.200000" points="449.41,-35.1 455.41,-33 449.41,-30.9 449.41,-35.1"/>
</g>
<!-- src/extract/transpile/meta.js -->
<g id="node10" class="node">
<title>src/extract/transpile/meta.js</title>
<g id="a_node10"><a xlink:href="src/extract/transpile/meta.js" xlink:title="meta.js">
<path fill="lightgray" stroke="black" d="M503.5,-76C503.5,-76 461.5,-76 461.5,-76 458.5,-76 455.5,-73 455.5,-70 455.5,-70 455.5,-64 455.5,-64 455.5,-61 458.5,-58 461.5,-58 461.5,-58 503.5,-58 503.5,-58 506.5,-58 509.5,-61 509.5,-64 509.5,-64 509.5,-70 509.5,-70 509.5,-73 506.5,-76 503.5,-76"/>
<text text-anchor="start" x="467.5" y="-64.8" font-family="Helvetica,sans-Serif" font-size="9.00" fill="gray">meta.js</text>
</a>
</g>
</g>
<!-- src/main/index.js&#45;&gt;src/extract/transpile/meta.js -->
<g id="edge7" class="edge">
<title>src/main/index.js&#45;&gt;src/extract/transpile/meta.js</title>
<path fill="none" stroke="#000000" stroke-width="2" stroke-opacity="0.200000" d="M209,-362.78C209,-311.53 209,-64 209,-64 209,-64 449.28,-64 449.28,-64"/>
<polygon fill="#000000" fill-opacity="0.200000" stroke="#000000" stroke-width="2" stroke-opacity="0.200000" points="449.28,-66.1 455.28,-64 449.28,-61.9 449.28,-66.1"/>
</g>
<!-- src/main/files&#45;and&#45;dirs/normalize.js -->
<g id="node16" class="node">
<title>src/main/files&#45;and&#45;dirs/normalize.js</title>
<g id="a_node16"><a xlink:href="src/main/files-and-dirs/normalize.js" xlink:title="normalize.js">
<path fill="lime" stroke="black" d="M378,-480C378,-480 324,-480 324,-480 321,-480 318,-477 318,-474 318,-474 318,-468 318,-468 318,-465 321,-462 324,-462 324,-462 378,-462 378,-462 381,-462 384,-465 384,-468 384,-468 384,-474 384,-474 384,-477 381,-480 378,-480"/>
<text text-anchor="start" x="326" y="-468.8" font-family="Helvetica,sans-Serif" font-size="9.00">normalize.js</text>
</a>
</g>
</g>
<!-- src/main/index.js&#45;&gt;src/main/files&#45;and&#45;dirs/normalize.js -->
<g id="edge10" class="edge">
<title>src/main/index.js&#45;&gt;src/main/files&#45;and&#45;dirs/normalize.js</title>
<path fill="none" stroke="#000000" stroke-width="2" stroke-opacity="0.200000" d="M218,-381.14C218,-405.64 218,-471 218,-471 218,-471 311.78,-471 311.78,-471"/>
<polygon fill="#000000" fill-opacity="0.200000" stroke="#000000" stroke-width="2" stroke-opacity="0.200000" points="311.78,-473.1 317.78,-471 311.78,-468.9 311.78,-473.1"/>
</g>
<!-- src/schema/cruise&#45;result.schema.js -->
<g id="node17" class="node">
<title>src/schema/cruise&#45;result.schema.js</title>
<g id="a_node17"><a xlink:href="src/schema/cruise-result.schema.js" xlink:title="cruise&#45;result.schema.js">
<path fill="lightgray" stroke="black" d="M531.5,-282C531.5,-282 433.5,-282 433.5,-282 430.5,-282 427.5,-279 427.5,-276 427.5,-276 427.5,-270 427.5,-270 427.5,-267 430.5,-264 433.5,-264 433.5,-264 531.5,-264 531.5,-264 534.5,-264 537.5,-267 537.5,-270 537.5,-270 537.5,-276 537.5,-276 537.5,-279 534.5,-282 531.5,-282"/>
<text text-anchor="start" x="435.5" y="-270.8" font-family="Helvetica,sans-Serif" font-size="9.00" fill="gray">cruise&#45;result.schema.js</text>
</a>
</g>
</g>
<!-- src/main/index.js&#45;&gt;src/schema/cruise&#45;result.schema.js -->
<g id="edge8" class="edge">
<title>src/main/index.js&#45;&gt;src/schema/cruise&#45;result.schema.js</title>
<path fill="none" stroke="#000000" stroke-width="2" stroke-opacity="0.200000" d="M227,-362.86C227,-338.36 227,-273 227,-273 227,-273 421.37,-273 421.37,-273"/>
<polygon fill="#000000" fill-opacity="0.200000" stroke="#000000" stroke-width="2" stroke-opacity="0.200000" points="421.37,-275.1 427.37,-273 421.37,-270.9 421.37,-275.1"/>
</g>
<!-- src/utl/bus.js -->
<g id="node18" class="node">
<title>src/utl/bus.js</title>
<g id="a_node18"><a xlink:href="src/utl/bus.js" xlink:title="bus.js">
<path fill="lightgray" stroke="black" d="M372,-312C372,-312 330,-312 330,-312 327,-312 324,-309 324,-306 324,-306 324,-300 324,-300 324,-297 327,-294 330,-294 330,-294 372,-294 372,-294 375,-294 378,-297 378,-300 378,-300 378,-306 378,-306 378,-309 375,-312 372,-312"/>
<text text-anchor="start" x="338.5" y="-300.8" font-family="Helvetica,sans-Serif" font-size="9.00" fill="gray">bus.js</text>
</a>
</g>
</g>
<!-- src/main/index.js&#45;&gt;src/utl/bus.js -->
<g id="edge9" class="edge">
<title>src/main/index.js&#45;&gt;src/utl/bus.js</title>
<path fill="none" stroke="#000000" stroke-width="2" stroke-opacity="0.200000" d="M236.04,-365.25C277.24,-365.25 351,-365.25 351,-365.25 351,-365.25 351,-318.19 351,-318.19"/>
<polygon fill="#000000" fill-opacity="0.200000" stroke="#000000" stroke-width="2" stroke-opacity="0.200000" points="353.1,-318.19 351,-312.19 348.9,-318.19 353.1,-318.19"/>
</g>
<!-- src/main/options/normalize.js -->
<g id="node19" class="node">
<title>src/main/options/normalize.js</title>
<g id="a_node19"><a xlink:href="src/main/options/normalize.js" xlink:title="normalize.js">
<path fill="lime" stroke="black" d="M509.5,-420C509.5,-420 455.5,-420 455.5,-420 452.5,-420 449.5,-417 449.5,-414 449.5,-414 449.5,-408 449.5,-408 449.5,-405 452.5,-402 455.5,-402 455.5,-402 509.5,-402 509.5,-402 512.5,-402 515.5,-405 515.5,-408 515.5,-408 515.5,-414 515.5,-414 515.5,-417 512.5,-420 509.5,-420"/>
<text text-anchor="start" x="457.5" y="-408.8" font-family="Helvetica,sans-Serif" font-size="9.00">normalize.js</text>
</a>
</g>
</g>
<!-- src/main/index.js&#45;&gt;src/main/options/normalize.js -->
<g id="edge11" class="edge">
<title>src/main/index.js&#45;&gt;src/main/options/normalize.js</title>
<path fill="none" stroke="#000000" stroke-width="2" stroke-opacity="0.200000" d="M236.32,-369.75C292.98,-369.75 418,-369.75 418,-369.75 418,-369.75 418,-408 418,-408 418,-408 443.49,-408 443.49,-408"/>
<polygon fill="#000000" fill-opacity="0.200000" stroke="#000000" stroke-width="2" stroke-opacity="0.200000" points="443.49,-410.1 449.49,-408 443.49,-405.9 443.49,-410.1"/>
</g>
<!-- src/main/options/validate.js -->
<g id="node20" class="node">
<title>src/main/options/validate.js</title>
<g id="a_node20"><a xlink:href="src/main/options/validate.js" xlink:title="validate.js">
<path fill="lime" stroke="black" d="M505.5,-390C505.5,-390 459.5,-390 459.5,-390 456.5,-390 453.5,-387 453.5,-384 453.5,-384 453.5,-378 453.5,-378 453.5,-375 456.5,-372 459.5,-372 459.5,-372 505.5,-372 505.5,-372 508.5,-372 511.5,-375 511.5,-378 511.5,-378 511.5,-384 511.5,-384 511.5,-387 508.5,-390 505.5,-390"/>
<text text-anchor="start" x="461.5" y="-378.8" font-family="Helvetica,sans-Serif" font-size="9.00">validate.js</text>
</a>
</g>
</g>
<!-- src/main/index.js&#45;&gt;src/main/options/validate.js -->
<g id="edge12" class="edge">
<title>src/main/index.js&#45;&gt;src/main/options/validate.js</title>
<path fill="none" stroke="#000000" stroke-width="2" stroke-opacity="0.200000" d="M236.27,-367.5C305.58,-367.5 483,-367.5 483,-367.5 483,-367.5 483,-367.93 483,-367.93"/>
<polygon fill="#000000" fill-opacity="0.200000" stroke="#000000" stroke-width="2" stroke-opacity="0.200000" points="480.9,-365.77 483,-371.77 485.1,-365.77 480.9,-365.77"/>
</g>
<!-- src/main/report&#45;wrap.js -->
<g id="node21" class="node">
<title>src/main/report&#45;wrap.js</title>
<g id="a_node21"><a xlink:href="src/main/report-wrap.js" xlink:title="report&#45;wrap.js">
<path fill="lime" stroke="black" d="M381.5,-602C381.5,-602 320.5,-602 320.5,-602 317.5,-602 314.5,-599 314.5,-596 314.5,-596 314.5,-590 314.5,-590 314.5,-587 317.5,-584 320.5,-584 320.5,-584 381.5,-584 381.5,-584 384.5,-584 387.5,-587 387.5,-590 387.5,-590 387.5,-596 387.5,-596 387.5,-599 384.5,-602 381.5,-602"/>
<text text-anchor="start" x="322.5" y="-590.8" font-family="Helvetica,sans-Serif" font-size="9.00">report&#45;wrap.js</text>
</a>
</g>
</g>
<!-- src/main/index.js&#45;&gt;src/main/report&#45;wrap.js -->
<g id="edge13" class="edge">
<title>src/main/index.js&#45;&gt;src/main/report&#45;wrap.js</title>
<path fill="none" stroke="#000000" stroke-width="2" stroke-opacity="0.200000" d="M191,-381.21C191,-423.04 191,-593 191,-593 191,-593 308.29,-593 308.29,-593"/>
<polygon fill="#000000" fill-opacity="0.200000" stroke="#000000" stroke-width="2" stroke-opacity="0.200000" points="308.29,-595.1 314.29,-593 308.29,-590.9 308.29,-595.1"/>
</g>
<!-- src/main/rule&#45;set/normalize.js -->
<g id="node22" class="node">
<title>src/main/rule&#45;set/normalize.js</title>
<g id="a_node22"><a xlink:href="src/main/rule-set/normalize.js" xlink:title="normalize.js">
<path fill="lime" stroke="black" d="M378,-420C378,-420 324,-420 324,-420 321,-420 318,-417 318,-414 318,-414 318,-408 318,-408 318,-405 321,-402 324,-402 324,-402 378,-402 378,-402 381,-402 384,-405 384,-408 384,-408 384,-414 384,-414 384,-417 381,-420 378,-420"/>
<text text-anchor="start" x="326" y="-408.8" font-family="Helvetica,sans-Serif" font-size="9.00">normalize.js</text>
</a>
</g>
</g>
<!-- src/main/index.js&#45;&gt;src/main/rule&#45;set/normalize.js -->
<g id="edge15" class="edge">
<title>src/main/index.js&#45;&gt;src/main/rule&#45;set/normalize.js</title>
<path fill="none" stroke="#000000" stroke-width="2" stroke-opacity="0.200000" d="M227,-381.06C227,-391.29 227,-406.5 227,-406.5 227,-406.5 311.77,-406.5 311.77,-406.5"/>
<polygon fill="#000000" fill-opacity="0.200000" stroke="#000000" stroke-width="2" stroke-opacity="0.200000" points="311.77,-408.6 317.77,-406.5 311.77,-404.4 311.77,-408.6"/>
</g>
<!-- src/main/rule&#45;set/validate.js -->
<g id="node23" class="node">
<title>src/main/rule&#45;set/validate.js</title>
<g id="a_node23"><a xlink:href="src/main/rule-set/validate.js" xlink:title="validate.js">
<path fill="lime" stroke="black" d="M374,-390C374,-390 328,-390 328,-390 325,-390 322,-387 322,-384 322,-384 322,-378 322,-378 322,-375 325,-372 328,-372 328,-372 374,-372 374,-372 377,-372 380,-375 380,-378 380,-378 380,-384 380,-384 380,-387 377,-390 374,-390"/>
<text text-anchor="start" x="330" y="-378.8" font-family="Helvetica,sans-Serif" font-size="9.00">validate.js</text>
</a>
</g>
</g>
<!-- src/main/index.js&#45;&gt;src/main/rule&#45;set/validate.js -->
<g id="edge16" class="edge">
<title>src/main/index.js&#45;&gt;src/main/rule&#45;set/validate.js</title>
<path fill="none" stroke="#000000" stroke-width="2" stroke-opacity="0.200000" d="M236.04,-376.5C236.04,-376.5 315.61,-376.5 315.61,-376.5"/>
<polygon fill="#000000" fill-opacity="0.200000" stroke="#000000" stroke-width="2" stroke-opacity="0.200000" points="315.61,-378.6 321.61,-376.5 315.61,-374.4 315.61,-378.6"/>
</g>
<!-- src/cli/format.js -->
<g id="node3" class="node">
<title>src/cli/format.js</title>
<g id="a_node3"><a xlink:href="src/cli/format.js" xlink:title="format.js">
<path fill="lightgray" stroke="black" d="M91,-381C91,-381 49,-381 49,-381 46,-381 43,-378 43,-375 43,-375 43,-369 43,-369 43,-366 46,-363 49,-363 49,-363 91,-363 91,-363 94,-363 97,-366 97,-369 97,-369 97,-375 97,-375 97,-378 94,-381 91,-381"/>
<text text-anchor="start" x="52.5" y="-369.8" font-family="Helvetica,sans-Serif" font-size="9.00" fill="gray">format.js</text>
</a>
</g>
</g>
<!-- src/cli/format.js&#45;&gt;src/main/index.js -->
<g id="edge2" class="edge">
<title>src/cli/format.js&#45;&gt;src/main/index.js</title>
<path fill="none" stroke="#000000" stroke-width="2" stroke-opacity="0.200000" d="M97.13,-369C97.13,-369 175.94,-369 175.94,-369"/>
<polygon fill="#000000" fill-opacity="0.200000" stroke="#000000" stroke-width="2" stroke-opacity="0.200000" points="175.94,-371.1 181.94,-369 175.94,-366.9 175.94,-371.1"/>
</g>
<!-- src/cli/index.js -->
<g id="node4" class="node">
<title>src/cli/index.js</title>
<g id="a_node4"><a xlink:href="src/cli/index.js" xlink:title="index.js">
<path fill="lightgray" stroke="black" d="M91,-351C91,-351 49,-351 49,-351 46,-351 43,-348 43,-345 43,-345 43,-339 43,-339 43,-336 46,-333 49,-333 49,-333 91,-333 91,-333 94,-333 97,-336 97,-339 97,-339 97,-345 97,-345 97,-348 94,-351 91,-351"/>
<text text-anchor="start" x="54" y="-339.8" font-family="Helvetica,sans-Serif" font-size="9.00" fill="gray">index.js</text>
</a>
</g>
</g>
<!-- src/cli/index.js&#45;&gt;src/main/index.js -->
<g id="edge3" class="edge">
<title>src/cli/index.js&#45;&gt;src/main/index.js</title>
<path fill="none" stroke="#000000" stroke-width="2" stroke-opacity="0.200000" d="M97.15,-342C132.83,-342 191,-342 191,-342 191,-342 191,-356.84 191,-356.84"/>
<polygon fill="#000000" fill-opacity="0.200000" stroke="#000000" stroke-width="2" stroke-opacity="0.200000" points="188.9,-356.84 191,-362.84 193.1,-356.84 188.9,-356.84"/>
</g>
<!-- src/config&#45;utl/extract&#45;depcruise&#45;config/index.js -->
<g id="node5" class="node">
<title>src/config&#45;utl/extract&#45;depcruise&#45;config/index.js</title>
<g id="a_node5"><a xlink:href="src/config-utl/extract-depcruise-config/index.js" xlink:title="index.js">
<path fill="lightgray" stroke="black" d="M230,-670C230,-670 188,-670 188,-670 185,-670 182,-667 182,-664 182,-664 182,-658 182,-658 182,-655 185,-652 188,-652 188,-652 230,-652 230,-652 233,-652 236,-655 236,-658 236,-658 236,-664 236,-664 236,-667 233,-670 230,-670"/>
<text text-anchor="start" x="193" y="-658.8" font-family="Helvetica,sans-Serif" font-size="9.00" fill="gray">index.js</text>
</a>
</g>
</g>
<!-- src/config&#45;utl/extract&#45;depcruise&#45;config/index.js&#45;&gt;src/main/resolve&#45;options/normalize.js -->
<g id="edge4" class="edge">
<title>src/config&#45;utl/extract&#45;depcruise&#45;config/index.js&#45;&gt;src/main/resolve&#45;options/normalize.js</title>
<path fill="none" stroke="#000000" stroke-width="2" stroke-opacity="0.200000" d="M209,-651.82C209,-624.24 209,-544 209,-544 209,-544 311.71,-544 311.71,-544"/>
<polygon fill="#000000" fill-opacity="0.200000" stroke="#000000" stroke-width="2" stroke-opacity="0.200000" points="311.71,-546.1 317.71,-544 311.71,-541.9 311.71,-546.1"/>
</g>
<!-- src/main/resolve&#45;options/normalize.js&#45;&gt;src/extract/transpile/meta.js -->
<g id="edge26" class="edge">
<title>src/main/resolve&#45;options/normalize.js&#45;&gt;src/extract/transpile/meta.js</title>
<path fill="none" stroke="#000000" stroke-width="2" stroke-opacity="0.200000" d="M384.35,-538C390.49,-538 395,-538 395,-538 395,-538 395,-70 395,-70 395,-70 449.29,-70 449.29,-70"/>
<polygon fill="#000000" fill-opacity="0.200000" stroke="#000000" stroke-width="2" stroke-opacity="0.200000" points="449.29,-72.1 455.29,-70 449.29,-67.9 449.29,-72.1"/>
</g>
<!-- src/graph&#45;utl/rule&#45;set.js -->
<g id="node14" class="node">
<title>src/graph&#45;utl/rule&#45;set.js</title>
<g id="a_node14"><a xlink:href="src/graph-utl/rule-set.js" xlink:title="rule&#45;set.js">
<path fill="lightgray" stroke="black" d="M504.5,-662C504.5,-662 460.5,-662 460.5,-662 457.5,-662 454.5,-659 454.5,-656 454.5,-656 454.5,-650 454.5,-650 454.5,-647 457.5,-644 460.5,-644 460.5,-644 504.5,-644 504.5,-644 507.5,-644 510.5,-647 510.5,-650 510.5,-650 510.5,-656 510.5,-656 510.5,-659 507.5,-662 504.5,-662"/>
<text text-anchor="start" x="462.5" y="-650.8" font-family="Helvetica,sans-Serif" font-size="9.00" fill="gray">rule&#45;set.js</text>
</a>
</g>
</g>
<!-- src/main/resolve&#45;options/normalize.js&#45;&gt;src/graph&#45;utl/rule&#45;set.js -->
<g id="edge27" class="edge">
<title>src/main/resolve&#45;options/normalize.js&#45;&gt;src/graph&#45;utl/rule&#45;set.js</title>
<path fill="none" stroke="#000000" stroke-width="2" stroke-opacity="0.200000" d="M384.31,-544C423.41,-544 483,-544 483,-544 483,-544 483,-637.71 483,-637.71"/>
<polygon fill="#000000" fill-opacity="0.200000" stroke="#000000" stroke-width="2" stroke-opacity="0.200000" points="480.9,-637.71 483,-643.71 485.1,-637.71 480.9,-637.71"/>
</g>
<!-- src/enrich/summarize/index.js -->
<g id="node8" class="node">
<title>src/enrich/summarize/index.js</title>
<g id="a_node8"><a xlink:href="src/enrich/summarize/index.js" xlink:title="index.js">
<path fill="lightgray" stroke="black" d="M503.5,-196C503.5,-196 461.5,-196 461.5,-196 458.5,-196 455.5,-193 455.5,-190 455.5,-190 455.5,-184 455.5,-184 455.5,-181 458.5,-178 461.5,-178 461.5,-178 503.5,-178 503.5,-178 506.5,-178 509.5,-181 509.5,-184 509.5,-184 509.5,-190 509.5,-190 509.5,-193 506.5,-196 503.5,-196"/>
<text text-anchor="start" x="466.5" y="-184.8" font-family="Helvetica,sans-Serif" font-size="9.00" fill="gray">index.js</text>
</a>
</g>
</g>
<!-- src/graph&#45;utl/compare.js -->
<g id="node11" class="node">
<title>src/graph&#45;utl/compare.js</title>
<g id="a_node11"><a xlink:href="src/graph-utl/compare.js" xlink:title="compare.js">
<path fill="lightgray" stroke="black" d="M507.5,-752C507.5,-752 457.5,-752 457.5,-752 454.5,-752 451.5,-749 451.5,-746 451.5,-746 451.5,-740 451.5,-740 451.5,-737 454.5,-734 457.5,-734 457.5,-734 507.5,-734 507.5,-734 510.5,-734 513.5,-737 513.5,-740 513.5,-740 513.5,-746 513.5,-746 513.5,-749 510.5,-752 507.5,-752"/>
<text text-anchor="start" x="459.5" y="-740.8" font-family="Helvetica,sans-Serif" font-size="9.00" fill="gray">compare.js</text>
</a>
</g>
</g>
<!-- src/graph&#45;utl/consolidate&#45;to&#45;pattern.js -->
<g id="node12" class="node">
<title>src/graph&#45;utl/consolidate&#45;to&#45;pattern.js</title>
<g id="a_node12"><a xlink:href="src/graph-utl/consolidate-to-pattern.js" xlink:title="consolidate&#45;to&#45;pattern.js">
<path fill="lightgray" stroke="black" d="M534,-722C534,-722 431,-722 431,-722 428,-722 425,-719 425,-716 425,-716 425,-710 425,-710 425,-707 428,-704 431,-704 431,-704 534,-704 534,-704 537,-704 540,-707 540,-710 540,-710 540,-716 540,-716 540,-719 537,-722 534,-722"/>
<text text-anchor="start" x="433" y="-710.8" font-family="Helvetica,sans-Serif" font-size="9.00" fill="gray">consolidate&#45;to&#45;pattern.js</text>
</a>
</g>
</g>
<!-- src/graph&#45;utl/filterbank.js -->
<g id="node13" class="node">
<title>src/graph&#45;utl/filterbank.js</title>
<g id="a_node13"><a xlink:href="src/graph-utl/filterbank.js" xlink:title="filterbank.js">
<path fill="lightgray" stroke="black" d="M508,-692C508,-692 457,-692 457,-692 454,-692 451,-689 451,-686 451,-686 451,-680 451,-680 451,-677 454,-674 457,-674 457,-674 508,-674 508,-674 511,-674 514,-677 514,-680 514,-680 514,-686 514,-686 514,-689 511,-692 508,-692"/>
<text text-anchor="start" x="459" y="-680.8" font-family="Helvetica,sans-Serif" font-size="9.00" fill="gray">filterbank.js</text>
</a>
</g>
</g>
<!-- src/graph&#45;utl/strip&#45;self&#45;transitions.js -->
<g id="node15" class="node">
<title>src/graph&#45;utl/strip&#45;self&#45;transitions.js</title>
<g id="a_node15"><a xlink:href="src/graph-utl/strip-self-transitions.js" xlink:title="strip&#45;self&#45;transitions.js">
<path fill="lightgray" stroke="black" d="M529,-782C529,-782 436,-782 436,-782 433,-782 430,-779 430,-776 430,-776 430,-770 430,-770 430,-767 433,-764 436,-764 436,-764 529,-764 529,-764 532,-764 535,-767 535,-770 535,-770 535,-776 535,-776 535,-779 532,-782 529,-782"/>
<text text-anchor="start" x="438" y="-770.8" font-family="Helvetica,sans-Serif" font-size="9.00" fill="gray">strip&#45;self&#45;transitions.js</text>
</a>
</g>
</g>
<!-- src/main/options/defaults.js -->
<g id="node24" class="node">
<title>src/main/options/defaults.js</title>
<g id="a_node24"><a xlink:href="src/main/options/defaults.js" xlink:title="defaults.js">
<path fill="lime" stroke="black" d="M648,-420C648,-420 602,-420 602,-420 599,-420 596,-417 596,-414 596,-414 596,-408 596,-408 596,-405 599,-402 602,-402 602,-402 648,-402 648,-402 651,-402 654,-405 654,-408 654,-408 654,-414 654,-414 654,-417 651,-420 648,-420"/>
<text text-anchor="start" x="604" y="-408.8" font-family="Helvetica,sans-Serif" font-size="9.00">defaults.js</text>
</a>
</g>
</g>
<!-- src/main/options/normalize.js&#45;&gt;src/main/options/defaults.js -->
<g id="edge18" class="edge">
<title>src/main/options/normalize.js&#45;&gt;src/main/options/defaults.js</title>
<path fill="none" stroke="#000000" stroke-width="2" stroke-opacity="0.200000" d="M515.55,-408C515.55,-408 589.99,-408 589.99,-408"/>
<polygon fill="#000000" fill-opacity="0.200000" stroke="#000000" stroke-width="2" stroke-opacity="0.200000" points="589.99,-410.1 595.99,-408 589.99,-405.9 589.99,-410.1"/>
</g>
<!-- src/main/utl/normalize&#45;re&#45;properties.js -->
<g id="node25" class="node">
<title>src/main/utl/normalize&#45;re&#45;properties.js</title>
<g id="a_node25"><a xlink:href="src/main/utl/normalize-re-properties.js" xlink:title="normalize&#45;re&#45;properties.js">
<path fill="lime" stroke="black" d="M680,-480C680,-480 570,-480 570,-480 567,-480 564,-477 564,-474 564,-474 564,-468 564,-468 564,-465 567,-462 570,-462 570,-462 680,-462 680,-462 683,-462 686,-465 686,-468 686,-468 686,-474 686,-474 686,-477 683,-480 680,-480"/>
<text text-anchor="start" x="572" y="-468.8" font-family="Helvetica,sans-Serif" font-size="9.00">normalize&#45;re&#45;properties.js</text>
</a>
</g>
</g>
<!-- src/main/options/normalize.js&#45;&gt;src/main/utl/normalize&#45;re&#45;properties.js -->
<g id="edge17" class="edge">
<title>src/main/options/normalize.js&#45;&gt;src/main/utl/normalize&#45;re&#45;properties.js</title>
<path fill="none" stroke="#000000" stroke-width="2" stroke-opacity="0.200000" d="M515.51,-414C543.79,-414 580,-414 580,-414 580,-414 580,-455.84 580,-455.84"/>
<polygon fill="#000000" fill-opacity="0.200000" stroke="#000000" stroke-width="2" stroke-opacity="0.200000" points="577.9,-455.84 580,-461.84 582.1,-455.84 577.9,-455.84"/>
</g>
<!-- src/report/index.js -->
<g id="node26" class="node">
<title>src/report/index.js</title>
<g id="a_node26"><a xlink:href="src/report/index.js" xlink:title="index.js">
<path fill="lightgray" stroke="black" d="M646,-727C646,-727 604,-727 604,-727 601,-727 598,-724 598,-721 598,-721 598,-715 598,-715 598,-712 601,-709 604,-709 604,-709 646,-709 646,-709 649,-709 652,-712 652,-715 652,-715 652,-721 652,-721 652,-724 649,-727 646,-727"/>
<text text-anchor="start" x="609" y="-715.8" font-family="Helvetica,sans-Serif" font-size="9.00" fill="gray">index.js</text>
</a>
</g>
</g>
<!-- src/main/options/validate.js&#45;&gt;src/report/index.js -->
<g id="edge19" class="edge">
<title>src/main/options/validate.js&#45;&gt;src/report/index.js</title>
<path fill="none" stroke="#000000" stroke-width="2" stroke-opacity="0.200000" d="M511.57,-381C530.62,-381 552,-381 552,-381 552,-381 552,-715.5 552,-715.5 552,-715.5 591.82,-715.5 591.82,-715.5"/>
<polygon fill="#000000" fill-opacity="0.200000" stroke="#000000" stroke-width="2" stroke-opacity="0.200000" points="591.82,-717.6 597.82,-715.5 591.82,-713.4 591.82,-717.6"/>
</g>
<!-- src/main/report&#45;wrap.js&#45;&gt;src/enrich/summarize/index.js -->
<g id="edge20" class="edge">
<title>src/main/report&#45;wrap.js&#45;&gt;src/enrich/summarize/index.js</title>
<path fill="none" stroke="#000000" stroke-width="2" stroke-opacity="0.200000" d="M387.68,-588.5C396.28,-588.5 403,-588.5 403,-588.5 403,-588.5 403,-187 403,-187 403,-187 449.14,-187 449.14,-187"/>
<polygon fill="#000000" fill-opacity="0.200000" stroke="#000000" stroke-width="2" stroke-opacity="0.200000" points="449.14,-189.1 455.14,-187 449.14,-184.9 449.14,-189.1"/>
</g>
<!-- src/main/report&#45;wrap.js&#45;&gt;src/graph&#45;utl/compare.js -->
<g id="edge21" class="edge">
<title>src/main/report&#45;wrap.js&#45;&gt;src/graph&#45;utl/compare.js</title>
<path fill="none" stroke="#000000" stroke-width="2" stroke-opacity="0.200000" d="M351,-602.38C351,-635.22 351,-743 351,-743 351,-743 445.34,-743 445.34,-743"/>
<polygon fill="#000000" fill-opacity="0.200000" stroke="#000000" stroke-width="2" stroke-opacity="0.200000" points="445.34,-745.1 451.34,-743 445.34,-740.9 445.34,-745.1"/>
</g>
<!-- src/main/report&#45;wrap.js&#45;&gt;src/graph&#45;utl/consolidate&#45;to&#45;pattern.js -->
<g id="edge22" class="edge">
<title>src/main/report&#45;wrap.js&#45;&gt;src/graph&#45;utl/consolidate&#45;to&#45;pattern.js</title>
<path fill="none" stroke="#000000" stroke-width="2" stroke-opacity="0.200000" d="M387.65,-597.5C409.88,-597.5 434,-597.5 434,-597.5 434,-597.5 434,-697.94 434,-697.94"/>
<polygon fill="#000000" fill-opacity="0.200000" stroke="#000000" stroke-width="2" stroke-opacity="0.200000" points="431.9,-697.94 434,-703.94 436.1,-697.94 431.9,-697.94"/>
</g>
<!-- src/main/report&#45;wrap.js&#45;&gt;src/graph&#45;utl/filterbank.js -->
<g id="edge23" class="edge">
<title>src/main/report&#45;wrap.js&#45;&gt;src/graph&#45;utl/filterbank.js</title>
<path fill="none" stroke="#000000" stroke-width="2" stroke-opacity="0.200000" d="M370,-602.29C370,-625.29 370,-683 370,-683 370,-683 444.86,-683 444.86,-683"/>
<polygon fill="#000000" fill-opacity="0.200000" stroke="#000000" stroke-width="2" stroke-opacity="0.200000" points="444.86,-685.1 450.86,-683 444.86,-680.9 444.86,-685.1"/>
</g>
<!-- src/main/report&#45;wrap.js&#45;&gt;src/graph&#45;utl/strip&#45;self&#45;transitions.js -->
<g id="edge24" class="edge">
<title>src/main/report&#45;wrap.js&#45;&gt;src/graph&#45;utl/strip&#45;self&#45;transitions.js</title>
<path fill="none" stroke="#000000" stroke-width="2" stroke-opacity="0.200000" d="M333,-602.17C333,-638.85 333,-773 333,-773 333,-773 423.79,-773 423.79,-773"/>
<polygon fill="#000000" fill-opacity="0.200000" stroke="#000000" stroke-width="2" stroke-opacity="0.200000" points="423.79,-775.1 429.79,-773 423.79,-770.9 423.79,-775.1"/>
</g>
<!-- src/main/report&#45;wrap.js&#45;&gt;src/report/index.js -->
<g id="edge25" class="edge">
<title>src/main/report&#45;wrap.js&#45;&gt;src/report/index.js</title>
<path fill="none" stroke="#000000" stroke-width="2" stroke-opacity="0.200000" d="M387.67,-593C462.33,-593 625,-593 625,-593 625,-593 625,-702.6 625,-702.6"/>
<polygon fill="#000000" fill-opacity="0.200000" stroke="#000000" stroke-width="2" stroke-opacity="0.200000" points="622.9,-702.6 625,-708.6 627.1,-702.6 622.9,-702.6"/>
</g>
<!-- src/main/rule&#45;set/normalize.js&#45;&gt;src/main/utl/normalize&#45;re&#45;properties.js -->
<g id="edge28" class="edge">
<title>src/main/rule&#45;set/normalize.js&#45;&gt;src/main/utl/normalize&#45;re&#45;properties.js</title>
<path fill="none" stroke="#000000" stroke-width="2" stroke-opacity="0.200000" d="M384.29,-414C397.68,-414 410,-414 410,-414 410,-414 410,-471 410,-471 410,-471 557.96,-471 557.96,-471"/>
<polygon fill="#000000" fill-opacity="0.200000" stroke="#000000" stroke-width="2" stroke-opacity="0.200000" points="557.96,-473.1 563.96,-471 557.96,-468.9 557.96,-473.1"/>
</g>
<!-- src/main/rule&#45;set/validate.js&#45;&gt;src/main/options/validate.js -->
<g id="edge30" class="edge">
<title>src/main/rule&#45;set/validate.js&#45;&gt;src/main/options/validate.js</title>
<path fill="none" stroke="#000000" stroke-width="2" stroke-opacity="0.200000" d="M380.18,-384C380.18,-384 447.4,-384 447.4,-384"/>
<polygon fill="#000000" fill-opacity="0.200000" stroke="#000000" stroke-width="2" stroke-opacity="0.200000" points="447.4,-386.1 453.4,-384 447.4,-381.9 447.4,-386.1"/>
</g>
<!-- src/schema/configuration.schema.js -->
<g id="node27" class="node">
<title>src/schema/configuration.schema.js</title>
<g id="a_node27"><a xlink:href="src/schema/configuration.schema.js" xlink:title="configuration.schema.js">
<path fill="lightgray" stroke="black" d="M533,-312C533,-312 432,-312 432,-312 429,-312 426,-309 426,-306 426,-306 426,-300 426,-300 426,-297 429,-294 432,-294 432,-294 533,-294 533,-294 536,-294 539,-297 539,-300 539,-300 539,-306 539,-306 539,-309 536,-312 533,-312"/>
<text text-anchor="start" x="434" y="-300.8" font-family="Helvetica,sans-Serif" font-size="9.00" fill="gray">configuration.schema.js</text>
</a>
</g>
</g>
<!-- src/main/rule&#45;set/validate.js&#45;&gt;src/schema/configuration.schema.js -->
<g id="edge29" class="edge">
<title>src/main/rule&#45;set/validate.js&#45;&gt;src/schema/configuration.schema.js</title>
<path fill="none" stroke="#000000" stroke-width="2" stroke-opacity="0.200000" d="M380.04,-378C406.67,-378 442,-378 442,-378 442,-378 442,-318.2 442,-318.2"/>
<polygon fill="#000000" fill-opacity="0.200000" stroke="#000000" stroke-width="2" stroke-opacity="0.200000" points="444.1,-318.2 442,-312.2 439.9,-318.2 444.1,-318.2"/>
</g>
</g>
</svg>
