<?xml version="1.0" encoding="UTF-8" standalone="no"?>
<!DOCTYPE svg PUBLIC "-//W3C//DTD SVG 1.1//EN"
 "http://www.w3.org/Graphics/SVG/1.1/DTD/svg11.dtd">
<!-- Generated by graphviz version 2.44.1 (20200629.0846)
 -->
<!-- Title: dependency&#45;cruiser output Pages: 1 -->
<svg width="655pt" height="538pt"
 viewBox="0.00 0.00 655.00 538.00" xmlns="http://www.w3.org/2000/svg" xmlns:xlink="http://www.w3.org/1999/xlink">
<g id="graph0" class="graph" transform="scale(1 1) rotate(0) translate(4 534)">
<title>dependency&#45;cruiser output</title>
<polygon fill="white" stroke="transparent" points="-4,4 -4,-534 651,-534 651,4 -4,4"/>
<g id="clust1" class="cluster">
<title>cluster_src</title>
<path fill="#ffffff" stroke="black" stroke-width="2" d="M20,-8C20,-8 627,-8 627,-8 633,-8 639,-14 639,-20 639,-20 639,-510 639,-510 639,-516 633,-522 627,-522 627,-522 20,-522 20,-522 14,-522 8,-516 8,-510 8,-510 8,-20 8,-20 8,-14 14,-8 20,-8"/>
<text text-anchor="middle" x="323.5" y="-510.8" font-family="Helvetica,sans-Serif" font-weight="bold" font-size="9.00">src</text>
</g>
<g id="clust2" class="cluster">
<title>cluster_src/cli</title>
<path fill="#ffffff" stroke="black" stroke-width="2" d="M28,-133C28,-133 112,-133 112,-133 118,-133 124,-139 124,-145 124,-145 124,-293 124,-293 124,-299 118,-305 112,-305 112,-305 28,-305 28,-305 22,-305 16,-299 16,-293 16,-293 16,-145 16,-145 16,-139 22,-133 28,-133"/>
<text text-anchor="middle" x="70" y="-293.8" font-family="Helvetica,sans-Serif" font-weight="bold" font-size="9.00">cli</text>
</g>
<g id="clust3" class="cluster">
<title>cluster_src/cli/compile&#45;config</title>
<path fill="#ffffff" stroke="black" stroke-width="2" d="M42,-141C42,-141 98,-141 98,-141 104,-141 110,-147 110,-153 110,-153 110,-181 110,-181 110,-187 104,-193 98,-193 98,-193 42,-193 42,-193 36,-193 30,-187 30,-181 30,-181 30,-153 30,-153 30,-147 36,-141 42,-141"/>
<text text-anchor="middle" x="70" y="-181.8" font-family="Helvetica,sans-Serif" font-weight="bold" font-size="9.00">compile&#45;config</text>
</g>
<g id="clust5" class="cluster">
<title>cluster_src/extract</title>
<path fill="#ffffff" stroke="black" stroke-width="2" d="M376,-374C376,-374 438,-374 438,-374 444,-374 450,-380 450,-386 450,-386 450,-474 450,-474 450,-480 444,-486 438,-486 438,-486 376,-486 376,-486 370,-486 364,-480 364,-474 364,-474 364,-386 364,-386 364,-380 370,-374 376,-374"/>
<text text-anchor="middle" x="407" y="-474.8" font-family="Helvetica,sans-Serif" font-weight="bold" font-size="9.00">extract</text>
</g>
<g id="clust6" class="cluster">
<title>cluster_src/extract/transpile</title>
<path fill="#ffffff" stroke="black" stroke-width="2" d="M384,-382C384,-382 430,-382 430,-382 436,-382 442,-388 442,-394 442,-394 442,-422 442,-422 442,-428 436,-434 430,-434 430,-434 384,-434 384,-434 378,-434 372,-428 372,-422 372,-422 372,-394 372,-394 372,-388 378,-382 384,-382"/>
<text text-anchor="middle" x="407" y="-422.8" font-family="Helvetica,sans-Serif" font-weight="bold" font-size="9.00">transpile</text>
</g>
<g id="clust7" class="cluster">
<title>cluster_src/main</title>
<path fill="#ffffff" stroke="black" stroke-width="2" d="M146,-16C146,-16 619,-16 619,-16 625,-16 631,-22 631,-28 631,-28 631,-264 631,-264 631,-270 625,-276 619,-276 619,-276 146,-276 146,-276 140,-276 134,-270 134,-264 134,-264 134,-28 134,-28 134,-22 140,-16 146,-16"/>
<text text-anchor="middle" x="382.5" y="-264.8" font-family="Helvetica,sans-Serif" font-weight="bold" font-size="9.00">main</text>
</g>
<g id="clust8" class="cluster">
<title>cluster_src/main/files&#45;and&#45;dirs</title>
<path fill="#ffffff" stroke="black" stroke-width="2" d="M237.5,-198C237.5,-198 295.5,-198 295.5,-198 301.5,-198 307.5,-204 307.5,-210 307.5,-210 307.5,-238 307.5,-238 307.5,-244 301.5,-250 295.5,-250 295.5,-250 237.5,-250 237.5,-250 231.5,-250 225.5,-244 225.5,-238 225.5,-238 225.5,-210 225.5,-210 225.5,-204 231.5,-198 237.5,-198"/>
<text text-anchor="middle" x="266.5" y="-238.8" font-family="Helvetica,sans-Serif" font-weight="bold" font-size="9.00">files&#45;and&#45;dirs</text>
</g>
<g id="clust9" class="cluster">
<title>cluster_src/main/options</title>
<path fill="#ffffff" stroke="black" stroke-width="2" d="M378,-24C378,-24 584,-24 584,-24 590,-24 596,-30 596,-36 596,-36 596,-94 596,-94 596,-100 590,-106 584,-106 584,-106 378,-106 378,-106 372,-106 366,-100 366,-94 366,-94 366,-36 366,-36 366,-30 372,-24 378,-24"/>
<text text-anchor="middle" x="481" y="-94.8" font-family="Helvetica,sans-Serif" font-weight="bold" font-size="9.00">options</text>
</g>
<g id="clust10" class="cluster">
<title>cluster_src/main/resolve&#45;options</title>
<path fill="#ffffff" stroke="black" stroke-width="2" d="M237.5,-138C237.5,-138 296.5,-138 296.5,-138 302.5,-138 308.5,-144 308.5,-150 308.5,-150 308.5,-178 308.5,-178 308.5,-184 302.5,-190 296.5,-190 296.5,-190 237.5,-190 237.5,-190 231.5,-190 225.5,-184 225.5,-178 225.5,-178 225.5,-150 225.5,-150 225.5,-144 231.5,-138 237.5,-138"/>
<text text-anchor="middle" x="267" y="-178.8" font-family="Helvetica,sans-Serif" font-weight="bold" font-size="9.00">resolve&#45;options</text>
</g>
<g id="clust11" class="cluster">
<title>cluster_src/main/rule&#45;set</title>
<path fill="#ffffff" stroke="black" stroke-width="2" d="M237.5,-48C237.5,-48 295.5,-48 295.5,-48 301.5,-48 307.5,-54 307.5,-60 307.5,-60 307.5,-118 307.5,-118 307.5,-124 301.5,-130 295.5,-130 295.5,-130 237.5,-130 237.5,-130 231.5,-130 225.5,-124 225.5,-118 225.5,-118 225.5,-60 225.5,-60 225.5,-54 231.5,-48 237.5,-48"/>
<text text-anchor="middle" x="266.5" y="-118.8" font-family="Helvetica,sans-Serif" font-weight="bold" font-size="9.00">rule&#45;set</text>
</g>
<g id="clust12" class="cluster">
<title>cluster_src/main/utl</title>
<path fill="#ffffff" stroke="black" stroke-width="2" d="M497,-114C497,-114 611,-114 611,-114 617,-114 623,-120 623,-126 623,-126 623,-154 623,-154 623,-160 617,-166 611,-166 611,-166 497,-166 497,-166 491,-166 485,-160 485,-154 485,-154 485,-126 485,-126 485,-120 491,-114 497,-114"/>
<text text-anchor="middle" x="554" y="-154.8" font-family="Helvetica,sans-Serif" font-weight="bold" font-size="9.00">utl</text>
</g>
<g id="clust13" class="cluster">
<title>cluster_src/report</title>
<path fill="#ffffff" stroke="black" stroke-width="2" d="M531,-364C531,-364 577,-364 577,-364 583,-364 589,-370 589,-376 589,-376 589,-404 589,-404 589,-410 583,-416 577,-416 577,-416 531,-416 531,-416 525,-416 519,-410 519,-404 519,-404 519,-376 519,-376 519,-370 525,-364 531,-364"/>
<text text-anchor="middle" x="554" y="-404.8" font-family="Helvetica,sans-Serif" font-weight="bold" font-size="9.00">report</text>
</g>
<g id="clust14" class="cluster">
<title>cluster_src/schema</title>
<path fill="#ffffff" stroke="black" stroke-width="2" d="M349,-284C349,-284 465,-284 465,-284 471,-284 477,-290 477,-296 477,-296 477,-354 477,-354 477,-360 471,-366 465,-366 465,-366 349,-366 349,-366 343,-366 337,-360 337,-354 337,-354 337,-296 337,-296 337,-290 343,-284 349,-284"/>
<text text-anchor="middle" x="407" y="-354.8" font-family="Helvetica,sans-Serif" font-weight="bold" font-size="9.00">schema</text>
</g>
<g id="clust15" class="cluster">
<title>cluster_src/utl</title>
<path fill="#ffffff" stroke="black" stroke-width="2" d="M239,-284C239,-284 294,-284 294,-284 300,-284 306,-290 306,-296 306,-296 306,-354 306,-354 306,-360 300,-366 294,-366 294,-366 239,-366 239,-366 233,-366 227,-360 227,-354 227,-354 227,-296 227,-296 227,-290 233,-284 239,-284"/>
<text text-anchor="middle" x="266.5" y="-354.8" font-family="Helvetica,sans-Serif" font-weight="bold" font-size="9.00">utl</text>
</g>
<g id="clust4" class="cluster">
<title>cluster_src/enrich</title>
<path fill="#ffffff" stroke="black" stroke-width="2" d="M216,-374C216,-374 317,-374 317,-374 323,-374 329,-380 329,-386 329,-386 329,-444 329,-444 329,-450 323,-456 317,-456 317,-456 216,-456 216,-456 210,-456 204,-450 204,-444 204,-444 204,-386 204,-386 204,-380 210,-374 216,-374"/>
<text text-anchor="middle" x="266.5" y="-444.8" font-family="Helvetica,sans-Serif" font-weight="bold" font-size="9.00">enrich</text>
</g>
<!-- src/cli/compile&#45;config/index.js -->
<g id="node1" class="node">
<title>src/cli/compile&#45;config/index.js</title>
<g id="a_node1"><a xlink:href="src/cli/compile-config/index.js" xlink:title="index.js">
<path fill="lightgray" stroke="black" d="M91,-167C91,-167 49,-167 49,-167 46,-167 43,-164 43,-161 43,-161 43,-155 43,-155 43,-152 46,-149 49,-149 49,-149 91,-149 91,-149 94,-149 97,-152 97,-155 97,-155 97,-161 97,-161 97,-164 94,-167 91,-167"/>
<text text-anchor="middle" x="70" y="-155.8" font-family="Helvetica,sans-Serif" font-size="9.00" fill="gray">index.js</text>
</a>
</g>
</g>
<!-- src/main/resolve&#45;options/normalize.js -->
<g id="node2" class="node">
<title>src/main/resolve&#45;options/normalize.js</title>
<g id="a_node2"><a xlink:href="src/main/resolve-options/normalize.js" xlink:title="normalize.js">
<path fill="lime" stroke="black" d="M293.5,-164C293.5,-164 239.5,-164 239.5,-164 236.5,-164 233.5,-161 233.5,-158 233.5,-158 233.5,-152 233.5,-152 233.5,-149 236.5,-146 239.5,-146 239.5,-146 293.5,-146 293.5,-146 296.5,-146 299.5,-149 299.5,-152 299.5,-152 299.5,-158 299.5,-158 299.5,-161 296.5,-164 293.5,-164"/>
<text text-anchor="middle" x="266.5" y="-152.8" font-family="Helvetica,sans-Serif" font-size="9.00">normalize.js</text>
</a>
</g>
</g>
<!-- src/cli/compile&#45;config/index.js&#45;&gt;src/main/resolve&#45;options/normalize.js -->
<g id="edge1" class="edge">
<title>src/cli/compile&#45;config/index.js&#45;&gt;src/main/resolve&#45;options/normalize.js</title>
<path fill="none" stroke="#000000" stroke-width="2" stroke-opacity="0.200000" d="M97.32,-154C97.32,-154 227.17,-154 227.17,-154"/>
<polygon fill="#000000" fill-opacity="0.200000" stroke="#000000" stroke-width="2" stroke-opacity="0.200000" points="227.17,-156.1 233.17,-154 227.17,-151.9 227.17,-156.1"/>
</g>
<!-- src/extract/transpile/meta.js -->
<g id="node10" class="node">
<title>src/extract/transpile/meta.js</title>
<g id="a_node10"><a xlink:href="src/extract/transpile/meta.js" xlink:title="meta.js">
<path fill="lightgray" stroke="black" d="M428,-408C428,-408 386,-408 386,-408 383,-408 380,-405 380,-402 380,-402 380,-396 380,-396 380,-393 383,-390 386,-390 386,-390 428,-390 428,-390 431,-390 434,-393 434,-396 434,-396 434,-402 434,-402 434,-405 431,-408 428,-408"/>
<text text-anchor="middle" x="407" y="-396.8" font-family="Helvetica,sans-Serif" font-size="9.00" fill="gray">meta.js</text>
</a>
</g>
</g>
<!-- src/main/resolve&#45;options/normalize.js&#45;&gt;src/extract/transpile/meta.js -->
<g id="edge22" class="edge">
<title>src/main/resolve&#45;options/normalize.js&#45;&gt;src/extract/transpile/meta.js</title>
<path fill="none" stroke="#000000" stroke-width="2" stroke-opacity="0.200000" d="M299.75,-155C316.38,-155 333,-155 333,-155 333,-155 333,-395 333,-395 333,-395 373.87,-395 373.87,-395"/>
<polygon fill="#000000" fill-opacity="0.200000" stroke="#000000" stroke-width="2" stroke-opacity="0.200000" points="373.87,-397.1 379.87,-395 373.87,-392.9 373.87,-397.1"/>
</g>
<!-- src/cli/format&#45;meta&#45;info.js -->
<g id="node3" class="node">
<title>src/cli/format&#45;meta&#45;info.js</title>
<g id="a_node3"><a xlink:href="src/cli/format-meta-info.js" xlink:title="format&#45;meta&#45;info.js">
<path fill="lightgray" stroke="black" d="M110,-219C110,-219 30,-219 30,-219 27,-219 24,-216 24,-213 24,-213 24,-207 24,-207 24,-204 27,-201 30,-201 30,-201 110,-201 110,-201 113,-201 116,-204 116,-207 116,-207 116,-213 116,-213 116,-216 113,-219 110,-219"/>
<text text-anchor="middle" x="70" y="-207.8" font-family="Helvetica,sans-Serif" font-size="9.00" fill="gray">format&#45;meta&#45;info.js</text>
</a>
</g>
</g>
<!-- src/main/index.js -->
<g id="node4" class="node">
<title>src/main/index.js</title>
<g id="a_node4"><a xlink:href="src/main/index.js" xlink:title="index.js">
<path fill="lime" stroke="black" d="M190,-250C190,-250 148,-250 148,-250 145,-250 142,-247 142,-244 142,-244 142,-238 142,-238 142,-235 145,-232 148,-232 148,-232 190,-232 190,-232 193,-232 196,-235 196,-238 196,-238 196,-244 196,-244 196,-247 193,-250 190,-250"/>
<text text-anchor="middle" x="169" y="-238.8" font-family="Helvetica,sans-Serif" font-size="9.00">index.js</text>
</a>
</g>
</g>
<!-- src/cli/format&#45;meta&#45;info.js&#45;&gt;src/main/index.js -->
<g id="edge2" class="edge">
<title>src/cli/format&#45;meta&#45;info.js&#45;&gt;src/main/index.js</title>
<path fill="none" stroke="#000000" stroke-width="2" stroke-opacity="0.200000" d="M107,-219.06C107,-227.13 107,-237.67 107,-237.67 107,-237.67 135.99,-237.67 135.99,-237.67"/>
<polygon fill="#000000" fill-opacity="0.200000" stroke="#000000" stroke-width="2" stroke-opacity="0.200000" points="135.99,-239.77 141.99,-237.67 135.99,-235.57 135.99,-239.77"/>
</g>
<!-- src/main/index.js&#45;&gt;src/main/resolve&#45;options/normalize.js -->
<g id="edge16" class="edge">
<title>src/main/index.js&#45;&gt;src/main/resolve&#45;options/normalize.js</title>
<path fill="none" stroke="#000000" stroke-width="2" stroke-opacity="0.200000" d="M178,-231.91C178,-210.56 178,-159 178,-159 178,-159 227.29,-159 227.29,-159"/>
<polygon fill="#000000" fill-opacity="0.200000" stroke="#000000" stroke-width="2" stroke-opacity="0.200000" points="227.29,-161.1 233.29,-159 227.29,-156.9 227.29,-161.1"/>
</g>
<!-- src/enrich/index.js -->
<g id="node7" class="node">
<title>src/enrich/index.js</title>
<g id="a_node7"><a xlink:href="src/enrich/index.js" xlink:title="index.js">
<path fill="lightgray" stroke="black" d="M287.5,-430C287.5,-430 245.5,-430 245.5,-430 242.5,-430 239.5,-427 239.5,-424 239.5,-424 239.5,-418 239.5,-418 239.5,-415 242.5,-412 245.5,-412 245.5,-412 287.5,-412 287.5,-412 290.5,-412 293.5,-415 293.5,-418 293.5,-418 293.5,-424 293.5,-424 293.5,-427 290.5,-430 287.5,-430"/>
<text text-anchor="middle" x="266.5" y="-418.8" font-family="Helvetica,sans-Serif" font-size="9.00" fill="gray">index.js</text>
</a>
</g>
</g>
<!-- src/main/index.js&#45;&gt;src/enrich/index.js -->
<g id="edge5" class="edge">
<title>src/main/index.js&#45;&gt;src/enrich/index.js</title>
<path fill="none" stroke="#000000" stroke-width="2" stroke-opacity="0.200000" d="M163,-250.17C163,-286.85 163,-421 163,-421 163,-421 233.31,-421 233.31,-421"/>
<polygon fill="#000000" fill-opacity="0.200000" stroke="#000000" stroke-width="2" stroke-opacity="0.200000" points="233.31,-423.1 239.31,-421 233.31,-418.9 233.31,-423.1"/>
</g>
<!-- src/enrich/summarize&#45;modules.js -->
<g id="node8" class="node">
<title>src/enrich/summarize&#45;modules.js</title>
<g id="a_node8"><a xlink:href="src/enrich/summarize-modules.js" xlink:title="summarize&#45;modules.js">
<path fill="lightgray" stroke="black" d="M315,-400C315,-400 218,-400 218,-400 215,-400 212,-397 212,-394 212,-394 212,-388 212,-388 212,-385 215,-382 218,-382 218,-382 315,-382 315,-382 318,-382 321,-385 321,-388 321,-388 321,-394 321,-394 321,-397 318,-400 315,-400"/>
<text text-anchor="middle" x="266.5" y="-388.8" font-family="Helvetica,sans-Serif" font-size="9.00" fill="gray">summarize&#45;modules.js</text>
</a>
</g>
</g>
<!-- src/main/index.js&#45;&gt;src/enrich/summarize&#45;modules.js -->
<g id="edge6" class="edge">
<title>src/main/index.js&#45;&gt;src/enrich/summarize&#45;modules.js</title>
<path fill="none" stroke="#000000" stroke-width="2" stroke-opacity="0.200000" d="M196.32,-245.5C209.71,-245.5 223,-245.5 223,-245.5 223,-245.5 223,-375.9 223,-375.9"/>
<polygon fill="#000000" fill-opacity="0.200000" stroke="#000000" stroke-width="2" stroke-opacity="0.200000" points="220.9,-375.9 223,-381.9 225.1,-375.9 220.9,-375.9"/>
</g>
<!-- src/extract/index.js -->
<g id="node9" class="node">
<title>src/extract/index.js</title>
<g id="a_node9"><a xlink:href="src/extract/index.js" xlink:title="index.js">
<path fill="lightgray" stroke="black" d="M428,-460C428,-460 386,-460 386,-460 383,-460 380,-457 380,-454 380,-454 380,-448 380,-448 380,-445 383,-442 386,-442 386,-442 428,-442 428,-442 431,-442 434,-445 434,-448 434,-448 434,-454 434,-454 434,-457 431,-460 428,-460"/>
<text text-anchor="middle" x="407" y="-448.8" font-family="Helvetica,sans-Serif" font-size="9.00" fill="gray">index.js</text>
</a>
</g>
</g>
<!-- src/main/index.js&#45;&gt;src/extract/index.js -->
<g id="edge7" class="edge">
<title>src/main/index.js&#45;&gt;src/extract/index.js</title>
<path fill="none" stroke="#000000" stroke-width="2" stroke-opacity="0.200000" d="M156,-250.02C156,-290.22 156,-451 156,-451 156,-451 373.66,-451 373.66,-451"/>
<polygon fill="#000000" fill-opacity="0.200000" stroke="#000000" stroke-width="2" stroke-opacity="0.200000" points="373.66,-453.1 379.66,-451 373.66,-448.9 373.66,-453.1"/>
</g>
<!-- src/main/index.js&#45;&gt;src/extract/transpile/meta.js -->
<g id="edge8" class="edge">
<title>src/main/index.js&#45;&gt;src/extract/transpile/meta.js</title>
<path fill="none" stroke="#000000" stroke-width="2" stroke-opacity="0.200000" d="M169,-250.23C169,-284.71 169,-404 169,-404 169,-404 373.7,-404 373.7,-404"/>
<polygon fill="#000000" fill-opacity="0.200000" stroke="#000000" stroke-width="2" stroke-opacity="0.200000" points="373.7,-406.1 379.7,-404 373.7,-401.9 373.7,-406.1"/>
</g>
<!-- src/main/files&#45;and&#45;dirs/normalize.js -->
<g id="node11" class="node">
<title>src/main/files&#45;and&#45;dirs/normalize.js</title>
<g id="a_node11"><a xlink:href="src/main/files-and-dirs/normalize.js" xlink:title="normalize.js">
<path fill="lime" stroke="black" d="M293.5,-224C293.5,-224 239.5,-224 239.5,-224 236.5,-224 233.5,-221 233.5,-218 233.5,-218 233.5,-212 233.5,-212 233.5,-209 236.5,-206 239.5,-206 239.5,-206 293.5,-206 293.5,-206 296.5,-206 299.5,-209 299.5,-212 299.5,-212 299.5,-218 299.5,-218 299.5,-221 296.5,-224 293.5,-224"/>
<text text-anchor="middle" x="266.5" y="-212.8" font-family="Helvetica,sans-Serif" font-size="9.00">normalize.js</text>
</a>
</g>
</g>
<!-- src/main/index.js&#45;&gt;src/main/files&#45;and&#45;dirs/normalize.js -->
<g id="edge13" class="edge">
<title>src/main/index.js&#45;&gt;src/main/files&#45;and&#45;dirs/normalize.js</title>
<path fill="none" stroke="#000000" stroke-width="2" stroke-opacity="0.200000" d="M187,-231.98C187,-223.63 187,-212.5 187,-212.5 187,-212.5 227.25,-212.5 227.25,-212.5"/>
<polygon fill="#000000" fill-opacity="0.200000" stroke="#000000" stroke-width="2" stroke-opacity="0.200000" points="227.25,-214.6 233.25,-212.5 227.25,-210.4 227.25,-214.6"/>
</g>
<!-- src/report/index.js -->
<g id="node12" class="node">
<title>src/report/index.js</title>
<g id="a_node12"><a xlink:href="src/report/index.js" xlink:title="index.js">
<path fill="lightgray" stroke="black" d="M575,-390C575,-390 533,-390 533,-390 530,-390 527,-387 527,-384 527,-384 527,-378 527,-378 527,-375 530,-372 533,-372 533,-372 575,-372 575,-372 578,-372 581,-375 581,-378 581,-378 581,-384 581,-384 581,-387 578,-390 575,-390"/>
<text text-anchor="middle" x="554" y="-378.8" font-family="Helvetica,sans-Serif" font-size="9.00" fill="gray">index.js</text>
</a>
</g>
</g>
<!-- src/main/index.js&#45;&gt;src/report/index.js -->
<g id="edge9" class="edge">
<title>src/main/index.js&#45;&gt;src/report/index.js</title>
<path fill="none" stroke="#000000" stroke-width="2" stroke-opacity="0.200000" d="M176,-250.03C176,-280.66 176,-378.67 176,-378.67 176,-378.67 520.82,-378.67 520.82,-378.67"/>
<polygon fill="#000000" fill-opacity="0.200000" stroke="#000000" stroke-width="2" stroke-opacity="0.200000" points="520.82,-380.77 526.82,-378.67 520.82,-376.57 520.82,-380.77"/>
</g>
<!-- src/schema/cruise&#45;result.schema.json -->
<g id="node13" class="node">
<title>src/schema/cruise&#45;result.schema.json</title>
<g id="a_node13"><a xlink:href="src/schema/cruise-result.schema.json" xlink:title="cruise&#45;result.schema.json">
<path fill="lightgray" stroke="black" d="M461.5,-340C461.5,-340 352.5,-340 352.5,-340 349.5,-340 346.5,-337 346.5,-334 346.5,-334 346.5,-328 346.5,-328 346.5,-325 349.5,-322 352.5,-322 352.5,-322 461.5,-322 461.5,-322 464.5,-322 467.5,-325 467.5,-328 467.5,-328 467.5,-334 467.5,-334 467.5,-337 464.5,-340 461.5,-340"/>
<text text-anchor="middle" x="407" y="-328.8" font-family="Helvetica,sans-Serif" font-size="9.00" fill="gray">cruise&#45;result.schema.json</text>
</a>
</g>
</g>
<!-- src/main/index.js&#45;&gt;src/schema/cruise&#45;result.schema.json -->
<g id="edge10" class="edge">
<title>src/main/index.js&#45;&gt;src/schema/cruise&#45;result.schema.json</title>
<path fill="none" stroke="#000000" stroke-width="2" stroke-opacity="0.200000" d="M196.04,-241C237.24,-241 311,-241 311,-241 311,-241 311,-331 311,-331 311,-331 340.47,-331 340.47,-331"/>
<polygon fill="#000000" fill-opacity="0.200000" stroke="#000000" stroke-width="2" stroke-opacity="0.200000" points="340.47,-333.1 346.47,-331 340.47,-328.9 340.47,-333.1"/>
</g>
<!-- src/utl/bus.js -->
<g id="node14" class="node">
<title>src/utl/bus.js</title>
<g id="a_node14"><a xlink:href="src/utl/bus.js" xlink:title="bus.js">
<path fill="lightgray" stroke="black" d="M287.5,-340C287.5,-340 245.5,-340 245.5,-340 242.5,-340 239.5,-337 239.5,-334 239.5,-334 239.5,-328 239.5,-328 239.5,-325 242.5,-322 245.5,-322 245.5,-322 287.5,-322 287.5,-322 290.5,-322 293.5,-325 293.5,-328 293.5,-328 293.5,-334 293.5,-334 293.5,-337 290.5,-340 287.5,-340"/>
<text text-anchor="middle" x="266.5" y="-328.8" font-family="Helvetica,sans-Serif" font-size="9.00" fill="gray">bus.js</text>
</a>
</g>
</g>
<!-- src/main/index.js&#45;&gt;src/utl/bus.js -->
<g id="edge11" class="edge">
<title>src/main/index.js&#45;&gt;src/utl/bus.js</title>
<path fill="none" stroke="#000000" stroke-width="2" stroke-opacity="0.200000" d="M183,-250.29C183,-273.29 183,-331 183,-331 183,-331 233.16,-331 233.16,-331"/>
<polygon fill="#000000" fill-opacity="0.200000" stroke="#000000" stroke-width="2" stroke-opacity="0.200000" points="233.16,-333.1 239.16,-331 233.16,-328.9 233.16,-333.1"/>
</g>
<!-- src/utl/filterbank.js -->
<g id="node15" class="node">
<title>src/utl/filterbank.js</title>
<g id="a_node15"><a xlink:href="src/utl/filterbank.js" xlink:title="filterbank.js">
<path fill="lightgray" stroke="black" d="M292,-310C292,-310 241,-310 241,-310 238,-310 235,-307 235,-304 235,-304 235,-298 235,-298 235,-295 238,-292 241,-292 241,-292 292,-292 292,-292 295,-292 298,-295 298,-298 298,-298 298,-304 298,-304 298,-307 295,-310 292,-310"/>
<text text-anchor="middle" x="266.5" y="-298.8" font-family="Helvetica,sans-Serif" font-size="9.00" fill="gray">filterbank.js</text>
</a>
</g>
</g>
<!-- src/main/index.js&#45;&gt;src/utl/filterbank.js -->
<g id="edge12" class="edge">
<title>src/main/index.js&#45;&gt;src/utl/filterbank.js</title>
<path fill="none" stroke="#000000" stroke-width="2" stroke-opacity="0.200000" d="M190,-250.11C190,-266.9 190,-301 190,-301 190,-301 228.94,-301 228.94,-301"/>
<polygon fill="#000000" fill-opacity="0.200000" stroke="#000000" stroke-width="2" stroke-opacity="0.200000" points="228.94,-303.1 234.94,-301 228.94,-298.9 228.94,-303.1"/>
</g>
<!-- src/main/options/normalize.js -->
<g id="node16" class="node">
<title>src/main/options/normalize.js</title>
<g id="a_node16"><a xlink:href="src/main/options/normalize.js" xlink:title="normalize.js">
<path fill="lime" stroke="black" d="M434,-50C434,-50 380,-50 380,-50 377,-50 374,-47 374,-44 374,-44 374,-38 374,-38 374,-35 377,-32 380,-32 380,-32 434,-32 434,-32 437,-32 440,-35 440,-38 440,-38 440,-44 440,-44 440,-47 437,-50 434,-50"/>
<text text-anchor="middle" x="407" y="-38.8" font-family="Helvetica,sans-Serif" font-size="9.00">normalize.js</text>
</a>
</g>
</g>
<!-- src/main/index.js&#45;&gt;src/main/options/normalize.js -->
<g id="edge14" class="edge">
<title>src/main/index.js&#45;&gt;src/main/options/normalize.js</title>
<path fill="none" stroke="#000000" stroke-width="2" stroke-opacity="0.200000" d="M151,-231.89C151,-192.76 151,-41 151,-41 151,-41 367.79,-41 367.79,-41"/>
<polygon fill="#000000" fill-opacity="0.200000" stroke="#000000" stroke-width="2" stroke-opacity="0.200000" points="367.79,-43.1 373.79,-41 367.79,-38.9 367.79,-43.1"/>
</g>
<!-- src/main/options/validate.js -->
<g id="node17" class="node">
<title>src/main/options/validate.js</title>
<g id="a_node17"><a xlink:href="src/main/options/validate.js" xlink:title="validate.js">
<path fill="lime" stroke="black" d="M430,-80C430,-80 384,-80 384,-80 381,-80 378,-77 378,-74 378,-74 378,-68 378,-68 378,-65 381,-62 384,-62 384,-62 430,-62 430,-62 433,-62 436,-65 436,-68 436,-68 436,-74 436,-74 436,-77 433,-80 430,-80"/>
<text text-anchor="middle" x="407" y="-68.8" font-family="Helvetica,sans-Serif" font-size="9.00">validate.js</text>
</a>
</g>
</g>
<!-- src/main/index.js&#45;&gt;src/main/options/validate.js -->
<g id="edge15" class="edge">
<title>src/main/index.js&#45;&gt;src/main/options/validate.js</title>
<path fill="none" stroke="#000000" stroke-width="2" stroke-opacity="0.200000" d="M196.3,-236.5C258.82,-236.5 407,-236.5 407,-236.5 407,-236.5 407,-86.37 407,-86.37"/>
<polygon fill="#000000" fill-opacity="0.200000" stroke="#000000" stroke-width="2" stroke-opacity="0.200000" points="409.1,-86.37 407,-80.37 404.9,-86.37 409.1,-86.37"/>
</g>
<!-- src/main/rule&#45;set/normalize.js -->
<g id="node18" class="node">
<title>src/main/rule&#45;set/normalize.js</title>
<g id="a_node18"><a xlink:href="src/main/rule-set/normalize.js" xlink:title="normalize.js">
<path fill="lime" stroke="black" d="M293.5,-104C293.5,-104 239.5,-104 239.5,-104 236.5,-104 233.5,-101 233.5,-98 233.5,-98 233.5,-92 233.5,-92 233.5,-89 236.5,-86 239.5,-86 239.5,-86 293.5,-86 293.5,-86 296.5,-86 299.5,-89 299.5,-92 299.5,-92 299.5,-98 299.5,-98 299.5,-101 296.5,-104 293.5,-104"/>
<text text-anchor="middle" x="266.5" y="-92.8" font-family="Helvetica,sans-Serif" font-size="9.00">normalize.js</text>
</a>
</g>
</g>
<!-- src/main/index.js&#45;&gt;src/main/rule&#45;set/normalize.js -->
<g id="edge17" class="edge">
<title>src/main/index.js&#45;&gt;src/main/rule&#45;set/normalize.js</title>
<path fill="none" stroke="#000000" stroke-width="2" stroke-opacity="0.200000" d="M169,-231.87C169,-199.9 169,-95 169,-95 169,-95 227.49,-95 227.49,-95"/>
<polygon fill="#000000" fill-opacity="0.200000" stroke="#000000" stroke-width="2" stroke-opacity="0.200000" points="227.49,-97.1 233.49,-95 227.49,-92.9 227.49,-97.1"/>
</g>
<!-- src/main/rule&#45;set/validate.js -->
<g id="node19" class="node">
<title>src/main/rule&#45;set/validate.js</title>
<g id="a_node19"><a xlink:href="src/main/rule-set/validate.js" xlink:title="validate.js">
<path fill="lime" stroke="black" d="M289.5,-74C289.5,-74 243.5,-74 243.5,-74 240.5,-74 237.5,-71 237.5,-68 237.5,-68 237.5,-62 237.5,-62 237.5,-59 240.5,-56 243.5,-56 243.5,-56 289.5,-56 289.5,-56 292.5,-56 295.5,-59 295.5,-62 295.5,-62 295.5,-68 295.5,-68 295.5,-71 292.5,-74 289.5,-74"/>
<text text-anchor="middle" x="266.5" y="-62.8" font-family="Helvetica,sans-Serif" font-size="9.00">validate.js</text>
</a>
</g>
</g>
<!-- src/main/index.js&#45;&gt;src/main/rule&#45;set/validate.js -->
<g id="edge18" class="edge">
<title>src/main/index.js&#45;&gt;src/main/rule&#45;set/validate.js</title>
<path fill="none" stroke="#000000" stroke-width="2" stroke-opacity="0.200000" d="M160,-231.54C160,-194.98 160,-65 160,-65 160,-65 231.4,-65 231.4,-65"/>
<polygon fill="#000000" fill-opacity="0.200000" stroke="#000000" stroke-width="2" stroke-opacity="0.200000" points="231.4,-67.1 237.4,-65 231.4,-62.9 231.4,-67.1"/>
</g>
<!-- src/cli/format.js -->
<g id="node5" class="node">
<title>src/cli/format.js</title>
<g id="a_node5"><a xlink:href="src/cli/format.js" xlink:title="format.js">
<path fill="lightgray" stroke="black" d="M91,-279C91,-279 49,-279 49,-279 46,-279 43,-276 43,-273 43,-273 43,-267 43,-267 43,-264 46,-261 49,-261 49,-261 91,-261 91,-261 94,-261 97,-264 97,-267 97,-267 97,-273 97,-273 97,-276 94,-279 91,-279"/>
<text text-anchor="middle" x="70" y="-267.8" font-family="Helvetica,sans-Serif" font-size="9.00" fill="gray">format.js</text>
</a>
</g>
</g>
<!-- src/cli/format.js&#45;&gt;src/main/index.js -->
<g id="edge3" class="edge">
<title>src/cli/format.js&#45;&gt;src/main/index.js</title>
<path fill="none" stroke="#000000" stroke-width="2" stroke-opacity="0.200000" d="M97.19,-270C120.04,-270 149,-270 149,-270 149,-270 149,-256.18 149,-256.18"/>
<polygon fill="#000000" fill-opacity="0.200000" stroke="#000000" stroke-width="2" stroke-opacity="0.200000" points="151.1,-256.18 149,-250.18 146.9,-256.18 151.1,-256.18"/>
</g>
<!-- src/cli/index.js -->
<g id="node6" class="node">
<title>src/cli/index.js</title>
<g id="a_node6"><a xlink:href="src/cli/index.js" xlink:title="index.js">
<path fill="lightgray" stroke="black" d="M91,-249C91,-249 49,-249 49,-249 46,-249 43,-246 43,-243 43,-243 43,-237 43,-237 43,-234 46,-231 49,-231 49,-231 91,-231 91,-231 94,-231 97,-234 97,-237 97,-237 97,-243 97,-243 97,-246 94,-249 91,-249"/>
<text text-anchor="middle" x="70" y="-237.8" font-family="Helvetica,sans-Serif" font-size="9.00" fill="gray">index.js</text>
</a>
</g>
</g>
<!-- src/cli/index.js&#45;&gt;src/main/index.js -->
<g id="edge4" class="edge">
<title>src/cli/index.js&#45;&gt;src/main/index.js</title>
<path fill="none" stroke="#000000" stroke-width="2" stroke-opacity="0.200000" d="M97.05,-243.33C97.05,-243.33 135.98,-243.33 135.98,-243.33"/>
<polygon fill="#000000" fill-opacity="0.200000" stroke="#000000" stroke-width="2" stroke-opacity="0.200000" points="135.98,-245.43 141.98,-243.33 135.98,-241.23 135.98,-245.43"/>
</g>
<!-- src/main/options/defaults.json -->
<g id="node20" class="node">
<title>src/main/options/defaults.json</title>
<g id="a_node20"><a xlink:href="src/main/options/defaults.json" xlink:title="defaults.json">
<path fill="lime" stroke="black" d="M582,-50C582,-50 526,-50 526,-50 523,-50 520,-47 520,-44 520,-44 520,-38 520,-38 520,-35 523,-32 526,-32 526,-32 582,-32 582,-32 585,-32 588,-35 588,-38 588,-38 588,-44 588,-44 588,-47 585,-50 582,-50"/>
<text text-anchor="middle" x="554" y="-38.8" font-family="Helvetica,sans-Serif" font-size="9.00">defaults.json</text>
</a>
</g>
</g>
<!-- src/main/options/normalize.js&#45;&gt;src/main/options/defaults.json -->
<g id="edge20" class="edge">
<title>src/main/options/normalize.js&#45;&gt;src/main/options/defaults.json</title>
<path fill="none" stroke="#000000" stroke-width="2" stroke-opacity="0.200000" d="M440.36,-38C440.36,-38 513.76,-38 513.76,-38"/>
<polygon fill="#000000" fill-opacity="0.200000" stroke="#000000" stroke-width="2" stroke-opacity="0.200000" points="513.76,-40.1 519.76,-38 513.76,-35.9 513.76,-40.1"/>
</g>
<!-- src/main/utl/normalize&#45;re&#45;properties.js -->
<g id="node21" class="node">
<title>src/main/utl/normalize&#45;re&#45;properties.js</title>
<g id="a_node21"><a xlink:href="src/main/utl/normalize-re-properties.js" xlink:title="normalize&#45;re&#45;properties.js">
<path fill="lime" stroke="black" d="M609,-140C609,-140 499,-140 499,-140 496,-140 493,-137 493,-134 493,-134 493,-128 493,-128 493,-125 496,-122 499,-122 499,-122 609,-122 609,-122 612,-122 615,-125 615,-128 615,-128 615,-134 615,-134 615,-137 612,-140 609,-140"/>
<text text-anchor="middle" x="554" y="-128.8" font-family="Helvetica,sans-Serif" font-size="9.00">normalize&#45;re&#45;properties.js</text>
</a>
</g>
</g>
<!-- src/main/options/normalize.js&#45;&gt;src/main/utl/normalize&#45;re&#45;properties.js -->
<g id="edge19" class="edge">
<title>src/main/options/normalize.js&#45;&gt;src/main/utl/normalize&#45;re&#45;properties.js</title>
<path fill="none" stroke="#000000" stroke-width="2" stroke-opacity="0.200000" d="M440.19,-44C470.63,-44 511,-44 511,-44 511,-44 511,-115.69 511,-115.69"/>
<polygon fill="#000000" fill-opacity="0.200000" stroke="#000000" stroke-width="2" stroke-opacity="0.200000" points="508.9,-115.69 511,-121.69 513.1,-115.69 508.9,-115.69"/>
</g>
<!-- src/main/options/validate.js&#45;&gt;src/report/index.js -->
<g id="edge21" class="edge">
<title>src/main/options/validate.js&#45;&gt;src/report/index.js</title>
<path fill="none" stroke="#000000" stroke-width="2" stroke-opacity="0.200000" d="M436.25,-71C456.93,-71 481,-71 481,-71 481,-71 481,-375.33 481,-375.33 481,-375.33 520.82,-375.33 520.82,-375.33"/>
<polygon fill="#000000" fill-opacity="0.200000" stroke="#000000" stroke-width="2" stroke-opacity="0.200000" points="520.82,-377.43 526.82,-375.33 520.82,-373.23 520.82,-377.43"/>
</g>
<!-- src/main/rule&#45;set/normalize.js&#45;&gt;src/main/utl/normalize&#45;re&#45;properties.js -->
<g id="edge23" class="edge">
<title>src/main/rule&#45;set/normalize.js&#45;&gt;src/main/utl/normalize&#45;re&#45;properties.js</title>
<path fill="none" stroke="#000000" stroke-width="2" stroke-opacity="0.200000" d="M299.74,-95C364.66,-95 502,-95 502,-95 502,-95 502,-115.92 502,-115.92"/>
<polygon fill="#000000" fill-opacity="0.200000" stroke="#000000" stroke-width="2" stroke-opacity="0.200000" points="499.9,-115.92 502,-121.92 504.1,-115.92 499.9,-115.92"/>
</g>
<!-- src/main/rule&#45;set/validate.js&#45;&gt;src/main/options/validate.js -->
<g id="edge25" class="edge">
<title>src/main/rule&#45;set/validate.js&#45;&gt;src/main/options/validate.js</title>
<path fill="none" stroke="#000000" stroke-width="2" stroke-opacity="0.200000" d="M295.61,-66C295.61,-66 371.93,-66 371.93,-66"/>
<polygon fill="#000000" fill-opacity="0.200000" stroke="#000000" stroke-width="2" stroke-opacity="0.200000" points="371.93,-68.1 377.93,-66 371.93,-63.9 371.93,-68.1"/>
</g>
<!-- src/schema/configuration.schema.json -->
<g id="node22" class="node">
<title>src/schema/configuration.schema.json</title>
<g id="a_node22"><a xlink:href="src/schema/configuration.schema.json" xlink:title="configuration.schema.json">
<path fill="lightgray" stroke="black" d="M463,-310C463,-310 351,-310 351,-310 348,-310 345,-307 345,-304 345,-304 345,-298 345,-298 345,-295 348,-292 351,-292 351,-292 463,-292 463,-292 466,-292 469,-295 469,-298 469,-298 469,-304 469,-304 469,-307 466,-310 463,-310"/>
<text text-anchor="middle" x="407" y="-298.8" font-family="Helvetica,sans-Serif" font-size="9.00" fill="gray">configuration.schema.json</text>
</a>
</g>
</g>
<!-- src/main/rule&#45;set/validate.js&#45;&gt;src/schema/configuration.schema.json -->
<g id="edge24" class="edge">
<title>src/main/rule&#45;set/validate.js&#45;&gt;src/schema/configuration.schema.json</title>
<path fill="none" stroke="#000000" stroke-width="2" stroke-opacity="0.200000" d="M295.57,-70C323.02,-70 360,-70 360,-70 360,-70 360,-285.94 360,-285.94"/>
<polygon fill="#000000" fill-opacity="0.200000" stroke="#000000" stroke-width="2" stroke-opacity="0.200000" points="357.9,-285.94 360,-291.94 362.1,-285.94 357.9,-285.94"/>
</g>
</g>
</svg>
