<?xml version="1.0" encoding="UTF-8" standalone="no"?>
<!DOCTYPE svg PUBLIC "-//W3C//DTD SVG 1.1//EN"
 "http://www.w3.org/Graphics/SVG/1.1/DTD/svg11.dtd">
<!-- Generated by graphviz version 2.44.0 (20200408.0750)
 -->
<!-- Title: dependency&#45;cruiser output Pages: 1 -->
<svg width="693pt" height="568pt"
 viewBox="0.00 0.00 693.00 568.00" xmlns="http://www.w3.org/2000/svg" xmlns:xlink="http://www.w3.org/1999/xlink">
<g id="graph0" class="graph" transform="scale(1 1) rotate(0) translate(4 564)">
<title>dependency&#45;cruiser output</title>
<polygon fill="white" stroke="transparent" points="-4,4 -4,-564 689,-564 689,4 -4,4"/>
<g id="clust1" class="cluster">
<title>cluster_src</title>
<path fill="#ffffff" stroke="black" stroke-width="2" d="M20,-8C20,-8 665,-8 665,-8 671,-8 677,-14 677,-20 677,-20 677,-540 677,-540 677,-546 671,-552 665,-552 665,-552 20,-552 20,-552 14,-552 8,-546 8,-540 8,-540 8,-20 8,-20 8,-14 14,-8 20,-8"/>
<text text-anchor="middle" x="342.5" y="-540.8" font-family="Helvetica,sans-Serif" font-weight="bold" font-size="9.00">src</text>
</g>
<g id="clust2" class="cluster">
<title>cluster_src/cli</title>
<path fill="#ffffff" stroke="black" stroke-width="2" d="M28,-16C28,-16 162,-16 162,-16 168,-16 174,-22 174,-28 174,-28 174,-266 174,-266 174,-272 168,-278 162,-278 162,-278 28,-278 28,-278 22,-278 16,-272 16,-266 16,-266 16,-28 16,-28 16,-22 22,-16 28,-16"/>
<text text-anchor="middle" x="95" y="-266.8" font-family="Helvetica,sans-Serif" font-weight="bold" font-size="9.00">cli</text>
</g>
<g id="clust3" class="cluster">
<title>cluster_src/cli/compile&#45;config</title>
<path fill="#ffffff" stroke="black" stroke-width="2" d="M67,-24C67,-24 123,-24 123,-24 129,-24 135,-30 135,-36 135,-36 135,-64 135,-64 135,-70 129,-76 123,-76 123,-76 67,-76 67,-76 61,-76 55,-70 55,-64 55,-64 55,-36 55,-36 55,-30 61,-24 67,-24"/>
<text text-anchor="middle" x="95" y="-64.8" font-family="Helvetica,sans-Serif" font-weight="bold" font-size="9.00">compile&#45;config</text>
</g>
<g id="clust4" class="cluster">
<title>cluster_src/cli/ears</title>
<path fill="#ffffff" stroke="black" stroke-width="2" d="M36,-84C36,-84 154,-84 154,-84 160,-84 166,-90 166,-96 166,-96 166,-154 166,-154 166,-160 160,-166 154,-166 154,-166 36,-166 36,-166 30,-166 24,-160 24,-154 24,-154 24,-96 24,-96 24,-90 30,-84 36,-84"/>
<text text-anchor="middle" x="95" y="-154.8" font-family="Helvetica,sans-Serif" font-weight="bold" font-size="9.00">ears</text>
</g>
<g id="clust8" class="cluster">
<title>cluster_src/main</title>
<path fill="#ffffff" stroke="black" stroke-width="2" d="M194,-16C194,-16 657,-16 657,-16 663,-16 669,-22 669,-28 669,-28 669,-294 669,-294 669,-300 663,-306 657,-306 657,-306 194,-306 194,-306 188,-306 182,-300 182,-294 182,-294 182,-28 182,-28 182,-22 188,-16 194,-16"/>
<text text-anchor="middle" x="425.5" y="-294.8" font-family="Helvetica,sans-Serif" font-weight="bold" font-size="9.00">main</text>
</g>
<g id="clust9" class="cluster">
<title>cluster_src/main/files&#45;and&#45;dirs</title>
<path fill="#ffffff" stroke="black" stroke-width="2" d="M280,-138C280,-138 338,-138 338,-138 344,-138 350,-144 350,-150 350,-150 350,-178 350,-178 350,-184 344,-190 338,-190 338,-190 280,-190 280,-190 274,-190 268,-184 268,-178 268,-178 268,-150 268,-150 268,-144 274,-138 280,-138"/>
<text text-anchor="middle" x="309" y="-178.8" font-family="Helvetica,sans-Serif" font-weight="bold" font-size="9.00">files&#45;and&#45;dirs</text>
</g>
<g id="clust10" class="cluster">
<title>cluster_src/main/options</title>
<path fill="#ffffff" stroke="black" stroke-width="2" d="M416,-138C416,-138 622,-138 622,-138 628,-138 634,-144 634,-150 634,-150 634,-208 634,-208 634,-214 628,-220 622,-220 622,-220 416,-220 416,-220 410,-220 404,-214 404,-208 404,-208 404,-150 404,-150 404,-144 410,-138 416,-138"/>
<text text-anchor="middle" x="519" y="-208.8" font-family="Helvetica,sans-Serif" font-weight="bold" font-size="9.00">options</text>
</g>
<g id="clust11" class="cluster">
<title>cluster_src/main/resolve&#45;options</title>
<path fill="#ffffff" stroke="black" stroke-width="2" d="M280,-24C280,-24 339,-24 339,-24 345,-24 351,-30 351,-36 351,-36 351,-64 351,-64 351,-70 345,-76 339,-76 339,-76 280,-76 280,-76 274,-76 268,-70 268,-64 268,-64 268,-36 268,-36 268,-30 274,-24 280,-24"/>
<text text-anchor="middle" x="309.5" y="-64.8" font-family="Helvetica,sans-Serif" font-weight="bold" font-size="9.00">resolve&#45;options</text>
</g>
<g id="clust12" class="cluster">
<title>cluster_src/main/rule&#45;set</title>
<path fill="#ffffff" stroke="black" stroke-width="2" d="M280,-198C280,-198 338,-198 338,-198 344,-198 350,-204 350,-210 350,-210 350,-268 350,-268 350,-274 344,-280 338,-280 338,-280 280,-280 280,-280 274,-280 268,-274 268,-268 268,-268 268,-210 268,-210 268,-204 274,-198 280,-198"/>
<text text-anchor="middle" x="309" y="-268.8" font-family="Helvetica,sans-Serif" font-weight="bold" font-size="9.00">rule&#45;set</text>
</g>
<g id="clust13" class="cluster">
<title>cluster_src/main/utl</title>
<path fill="#ffffff" stroke="black" stroke-width="2" d="M535,-228C535,-228 649,-228 649,-228 655,-228 661,-234 661,-240 661,-240 661,-268 661,-268 661,-274 655,-280 649,-280 649,-280 535,-280 535,-280 529,-280 523,-274 523,-268 523,-268 523,-240 523,-240 523,-234 529,-228 535,-228"/>
<text text-anchor="middle" x="592" y="-268.8" font-family="Helvetica,sans-Serif" font-weight="bold" font-size="9.00">utl</text>
</g>
<g id="clust15" class="cluster">
<title>cluster_src/schema</title>
<path fill="#ffffff" stroke="black" stroke-width="2" d="M387,-314C387,-314 503,-314 503,-314 509,-314 515,-320 515,-326 515,-326 515,-384 515,-384 515,-390 509,-396 503,-396 503,-396 387,-396 387,-396 381,-396 375,-390 375,-384 375,-384 375,-326 375,-326 375,-320 381,-314 387,-314"/>
<text text-anchor="middle" x="445" y="-384.8" font-family="Helvetica,sans-Serif" font-weight="bold" font-size="9.00">schema</text>
</g>
<g id="clust14" class="cluster">
<title>cluster_src/report</title>
<path fill="#ffffff" stroke="black" stroke-width="2" d="M569,-394C569,-394 615,-394 615,-394 621,-394 627,-400 627,-406 627,-406 627,-434 627,-434 627,-440 621,-446 615,-446 615,-446 569,-446 569,-446 563,-446 557,-440 557,-434 557,-434 557,-406 557,-406 557,-400 563,-394 569,-394"/>
<text text-anchor="middle" x="592" y="-434.8" font-family="Helvetica,sans-Serif" font-weight="bold" font-size="9.00">report</text>
</g>
<g id="clust5" class="cluster">
<title>cluster_src/enrich</title>
<path fill="#ffffff" stroke="black" stroke-width="2" d="M286,-314C286,-314 332,-314 332,-314 338,-314 344,-320 344,-326 344,-326 344,-354 344,-354 344,-360 338,-366 332,-366 332,-366 286,-366 286,-366 280,-366 274,-360 274,-354 274,-354 274,-326 274,-326 274,-320 280,-314 286,-314"/>
<text text-anchor="middle" x="309" y="-354.8" font-family="Helvetica,sans-Serif" font-weight="bold" font-size="9.00">enrich</text>
</g>
<g id="clust6" class="cluster">
<title>cluster_src/extract</title>
<path fill="#ffffff" stroke="black" stroke-width="2" d="M414,-404C414,-404 476,-404 476,-404 482,-404 488,-410 488,-416 488,-416 488,-504 488,-504 488,-510 482,-516 476,-516 476,-516 414,-516 414,-516 408,-516 402,-510 402,-504 402,-504 402,-416 402,-416 402,-410 408,-404 414,-404"/>
<text text-anchor="middle" x="445" y="-504.8" font-family="Helvetica,sans-Serif" font-weight="bold" font-size="9.00">extract</text>
</g>
<g id="clust7" class="cluster">
<title>cluster_src/extract/transpile</title>
<path fill="#ffffff" stroke="black" stroke-width="2" d="M422,-412C422,-412 468,-412 468,-412 474,-412 480,-418 480,-424 480,-424 480,-452 480,-452 480,-458 474,-464 468,-464 468,-464 422,-464 422,-464 416,-464 410,-458 410,-452 410,-452 410,-424 410,-424 410,-418 416,-412 422,-412"/>
<text text-anchor="middle" x="445" y="-452.8" font-family="Helvetica,sans-Serif" font-weight="bold" font-size="9.00">transpile</text>
</g>
<!-- src/cli/compile&#45;config/index.js -->
<g id="node1" class="node">
<title>src/cli/compile&#45;config/index.js</title>
<g id="a_node1"><a xlink:href="src/cli/compile-config/index.js" xlink:title="index.js">
<path fill="lightgray" stroke="black" d="M116,-50C116,-50 74,-50 74,-50 71,-50 68,-47 68,-44 68,-44 68,-38 68,-38 68,-35 71,-32 74,-32 74,-32 116,-32 116,-32 119,-32 122,-35 122,-38 122,-38 122,-44 122,-44 122,-47 119,-50 116,-50"/>
<text text-anchor="middle" x="95" y="-38.8" font-family="Helvetica,sans-Serif" font-size="9.00" fill="gray">index.js</text>
</a>
</g>
</g>
<!-- src/main/resolve&#45;options/normalize.js -->
<g id="node2" class="node">
<title>src/main/resolve&#45;options/normalize.js</title>
<g id="a_node2"><a xlink:href="src/main/resolve-options/normalize.js" xlink:title="normalize.js">
<path fill="lime" stroke="black" d="M336,-50C336,-50 282,-50 282,-50 279,-50 276,-47 276,-44 276,-44 276,-38 276,-38 276,-35 279,-32 282,-32 282,-32 336,-32 336,-32 339,-32 342,-35 342,-38 342,-38 342,-44 342,-44 342,-47 339,-50 336,-50"/>
<text text-anchor="middle" x="309" y="-38.8" font-family="Helvetica,sans-Serif" font-size="9.00">normalize.js</text>
</a>
</g>
</g>
<!-- src/cli/compile&#45;config/index.js&#45;&gt;src/main/resolve&#45;options/normalize.js -->
<g id="edge1" class="edge">
<title>src/cli/compile&#45;config/index.js&#45;&gt;src/main/resolve&#45;options/normalize.js</title>
<path fill="none" stroke="#000000" stroke-width="2" stroke-opacity="0.200000" d="M122.1,-38C122.1,-38 269.8,-38 269.8,-38"/>
<polygon fill="#000000" fill-opacity="0.200000" stroke="#000000" stroke-width="2" stroke-opacity="0.200000" points="269.8,-40.1 275.8,-38 269.8,-35.9 269.8,-40.1"/>
</g>
<!-- src/extract/transpile/meta.js -->
<g id="node12" class="node">
<title>src/extract/transpile/meta.js</title>
<g id="a_node12"><a xlink:href="src/extract/transpile/meta.js" xlink:title="meta.js">
<path fill="lightgray" stroke="black" d="M466,-438C466,-438 424,-438 424,-438 421,-438 418,-435 418,-432 418,-432 418,-426 418,-426 418,-423 421,-420 424,-420 424,-420 466,-420 466,-420 469,-420 472,-423 472,-426 472,-426 472,-432 472,-432 472,-435 469,-438 466,-438"/>
<text text-anchor="middle" x="445" y="-426.8" font-family="Helvetica,sans-Serif" font-size="9.00" fill="gray">meta.js</text>
</a>
</g>
</g>
<!-- src/main/resolve&#45;options/normalize.js&#45;&gt;src/extract/transpile/meta.js -->
<g id="edge23" class="edge">
<title>src/main/resolve&#45;options/normalize.js&#45;&gt;src/extract/transpile/meta.js</title>
<path fill="none" stroke="#000000" stroke-width="2" stroke-opacity="0.200000" d="M342.28,-41C353.39,-41 363,-41 363,-41 363,-41 363,-426 363,-426 363,-426 411.7,-426 411.7,-426"/>
<polygon fill="#000000" fill-opacity="0.200000" stroke="#000000" stroke-width="2" stroke-opacity="0.200000" points="411.7,-428.1 417.7,-426 411.7,-423.9 411.7,-428.1"/>
</g>
<!-- src/cli/ears/cli&#45;feedback&#45;listener.js -->
<g id="node3" class="node">
<title>src/cli/ears/cli&#45;feedback&#45;listener.js</title>
<g id="a_node3"><a xlink:href="src/cli/ears/cli-feedback-listener.js" xlink:title="cli&#45;feedback&#45;listener.js">
<path fill="lightgray" stroke="black" d="M143,-110C143,-110 47,-110 47,-110 44,-110 41,-107 41,-104 41,-104 41,-98 41,-98 41,-95 44,-92 47,-92 47,-92 143,-92 143,-92 146,-92 149,-95 149,-98 149,-98 149,-104 149,-104 149,-107 146,-110 143,-110"/>
<text text-anchor="middle" x="95" y="-98.8" font-family="Helvetica,sans-Serif" font-size="9.00" fill="gray">cli&#45;feedback&#45;listener.js</text>
</a>
</g>
</g>
<!-- src/main/bus.js -->
<g id="node4" class="node">
<title>src/main/bus.js</title>
<g id="a_node4"><a xlink:href="src/main/bus.js" xlink:title="bus.js">
<path fill="lime" stroke="black" d="M330,-102C330,-102 288,-102 288,-102 285,-102 282,-99 282,-96 282,-96 282,-90 282,-90 282,-87 285,-84 288,-84 288,-84 330,-84 330,-84 333,-84 336,-87 336,-90 336,-90 336,-96 336,-96 336,-99 333,-102 330,-102"/>
<text text-anchor="middle" x="309" y="-90.8" font-family="Helvetica,sans-Serif" font-size="9.00">bus.js</text>
</a>
</g>
</g>
<!-- src/cli/ears/cli&#45;feedback&#45;listener.js&#45;&gt;src/main/bus.js -->
<g id="edge2" class="edge">
<title>src/cli/ears/cli&#45;feedback&#45;listener.js&#45;&gt;src/main/bus.js</title>
<path fill="none" stroke="#000000" stroke-width="2" stroke-opacity="0.200000" d="M149,-94C149,-94 275.8,-94 275.8,-94"/>
<polygon fill="#000000" fill-opacity="0.200000" stroke="#000000" stroke-width="2" stroke-opacity="0.200000" points="275.8,-96.1 281.8,-94 275.8,-91.9 275.8,-96.1"/>
</g>
<!-- src/cli/ears/performance&#45;log&#45;listener.js -->
<g id="node5" class="node">
<title>src/cli/ears/performance&#45;log&#45;listener.js</title>
<g id="a_node5"><a xlink:href="src/cli/ears/performance-log-listener.js" xlink:title="performance&#45;log&#45;listener.js">
<path fill="lightgray" stroke="black" d="M152,-140C152,-140 38,-140 38,-140 35,-140 32,-137 32,-134 32,-134 32,-128 32,-128 32,-125 35,-122 38,-122 38,-122 152,-122 152,-122 155,-122 158,-125 158,-128 158,-128 158,-134 158,-134 158,-137 155,-140 152,-140"/>
<text text-anchor="middle" x="95" y="-128.8" font-family="Helvetica,sans-Serif" font-size="9.00" fill="gray">performance&#45;log&#45;listener.js</text>
</a>
</g>
</g>
<!-- src/cli/ears/performance&#45;log&#45;listener.js&#45;&gt;src/main/bus.js -->
<g id="edge3" class="edge">
<title>src/cli/ears/performance&#45;log&#45;listener.js&#45;&gt;src/main/bus.js</title>
<path fill="none" stroke="#000000" stroke-width="2" stroke-opacity="0.200000" d="M154,-121.8C154,-111.43 154,-96 154,-96 154,-96 275.65,-96 275.65,-96"/>
<polygon fill="#000000" fill-opacity="0.200000" stroke="#000000" stroke-width="2" stroke-opacity="0.200000" points="275.65,-98.1 281.65,-96 275.65,-93.9 275.65,-98.1"/>
</g>
<!-- src/cli/format&#45;meta&#45;info.js -->
<g id="node6" class="node">
<title>src/cli/format&#45;meta&#45;info.js</title>
<g id="a_node6"><a xlink:href="src/cli/format-meta-info.js" xlink:title="format&#45;meta&#45;info.js">
<path fill="lightgray" stroke="black" d="M135,-222C135,-222 55,-222 55,-222 52,-222 49,-219 49,-216 49,-216 49,-210 49,-210 49,-207 52,-204 55,-204 55,-204 135,-204 135,-204 138,-204 141,-207 141,-210 141,-210 141,-216 141,-216 141,-219 138,-222 135,-222"/>
<text text-anchor="middle" x="95" y="-210.8" font-family="Helvetica,sans-Serif" font-size="9.00" fill="gray">format&#45;meta&#45;info.js</text>
</a>
</g>
</g>
<!-- src/main/index.js -->
<g id="node7" class="node">
<title>src/main/index.js</title>
<g id="a_node7"><a xlink:href="src/main/index.js" xlink:title="index.js">
<path fill="lime" stroke="black" d="M238,-224C238,-224 196,-224 196,-224 193,-224 190,-221 190,-218 190,-218 190,-212 190,-212 190,-209 193,-206 196,-206 196,-206 238,-206 238,-206 241,-206 244,-209 244,-212 244,-212 244,-218 244,-218 244,-221 241,-224 238,-224"/>
<text text-anchor="middle" x="217" y="-212.8" font-family="Helvetica,sans-Serif" font-size="9.00">index.js</text>
</a>
</g>
</g>
<!-- src/cli/format&#45;meta&#45;info.js&#45;&gt;src/main/index.js -->
<g id="edge4" class="edge">
<title>src/cli/format&#45;meta&#45;info.js&#45;&gt;src/main/index.js</title>
<path fill="none" stroke="#000000" stroke-width="2" stroke-opacity="0.200000" d="M141.12,-214C141.12,-214 183.93,-214 183.93,-214"/>
<polygon fill="#000000" fill-opacity="0.200000" stroke="#000000" stroke-width="2" stroke-opacity="0.200000" points="183.93,-216.1 189.93,-214 183.93,-211.9 183.93,-216.1"/>
</g>
<!-- src/main/index.js&#45;&gt;src/main/resolve&#45;options/normalize.js -->
<g id="edge17" class="edge">
<title>src/main/index.js&#45;&gt;src/main/resolve&#45;options/normalize.js</title>
<path fill="none" stroke="#000000" stroke-width="2" stroke-opacity="0.200000" d="M206,-205.81C206,-170.29 206,-44 206,-44 206,-44 269.84,-44 269.84,-44"/>
<polygon fill="#000000" fill-opacity="0.200000" stroke="#000000" stroke-width="2" stroke-opacity="0.200000" points="269.84,-46.1 275.84,-44 269.84,-41.9 269.84,-46.1"/>
</g>
<!-- src/main/index.js&#45;&gt;src/main/bus.js -->
<g id="edge13" class="edge">
<title>src/main/index.js&#45;&gt;src/main/bus.js</title>
<path fill="none" stroke="#000000" stroke-width="2" stroke-opacity="0.200000" d="M214,-205.98C214,-178.87 214,-100 214,-100 214,-100 275.78,-100 275.78,-100"/>
<polygon fill="#000000" fill-opacity="0.200000" stroke="#000000" stroke-width="2" stroke-opacity="0.200000" points="275.78,-102.1 281.78,-100 275.78,-97.9 275.78,-102.1"/>
</g>
<!-- src/enrich/index.js -->
<g id="node10" class="node">
<title>src/enrich/index.js</title>
<g id="a_node10"><a xlink:href="src/enrich/index.js" xlink:title="index.js">
<path fill="lightgray" stroke="black" d="M330,-340C330,-340 288,-340 288,-340 285,-340 282,-337 282,-334 282,-334 282,-328 282,-328 282,-325 285,-322 288,-322 288,-322 330,-322 330,-322 333,-322 336,-325 336,-328 336,-328 336,-334 336,-334 336,-337 333,-340 330,-340"/>
<text text-anchor="middle" x="309" y="-328.8" font-family="Helvetica,sans-Serif" font-size="9.00" fill="gray">index.js</text>
</a>
</g>
</g>
<!-- src/main/index.js&#45;&gt;src/enrich/index.js -->
<g id="edge8" class="edge">
<title>src/main/index.js&#45;&gt;src/enrich/index.js</title>
<path fill="none" stroke="#000000" stroke-width="2" stroke-opacity="0.200000" d="M231,-224.1C231,-251.45 231,-331 231,-331 231,-331 275.72,-331 275.72,-331"/>
<polygon fill="#000000" fill-opacity="0.200000" stroke="#000000" stroke-width="2" stroke-opacity="0.200000" points="275.72,-333.1 281.72,-331 275.72,-328.9 275.72,-333.1"/>
</g>
<!-- src/extract/index.js -->
<g id="node11" class="node">
<title>src/extract/index.js</title>
<g id="a_node11"><a xlink:href="src/extract/index.js" xlink:title="index.js">
<path fill="lightgray" stroke="black" d="M466,-490C466,-490 424,-490 424,-490 421,-490 418,-487 418,-484 418,-484 418,-478 418,-478 418,-475 421,-472 424,-472 424,-472 466,-472 466,-472 469,-472 472,-475 472,-478 472,-478 472,-484 472,-484 472,-487 469,-490 466,-490"/>
<text text-anchor="middle" x="445" y="-478.8" font-family="Helvetica,sans-Serif" font-size="9.00" fill="gray">index.js</text>
</a>
</g>
</g>
<!-- src/main/index.js&#45;&gt;src/extract/index.js -->
<g id="edge9" class="edge">
<title>src/main/index.js&#45;&gt;src/extract/index.js</title>
<path fill="none" stroke="#000000" stroke-width="2" stroke-opacity="0.200000" d="M204,-224.16C204,-270.93 204,-481 204,-481 204,-481 411.82,-481 411.82,-481"/>
<polygon fill="#000000" fill-opacity="0.200000" stroke="#000000" stroke-width="2" stroke-opacity="0.200000" points="411.82,-483.1 417.82,-481 411.82,-478.9 411.82,-483.1"/>
</g>
<!-- src/main/index.js&#45;&gt;src/extract/transpile/meta.js -->
<g id="edge10" class="edge">
<title>src/main/index.js&#45;&gt;src/extract/transpile/meta.js</title>
<path fill="none" stroke="#000000" stroke-width="2" stroke-opacity="0.200000" d="M211,-224.05C211,-265.12 211,-432 211,-432 211,-432 411.7,-432 411.7,-432"/>
<polygon fill="#000000" fill-opacity="0.200000" stroke="#000000" stroke-width="2" stroke-opacity="0.200000" points="411.7,-434.1 417.7,-432 411.7,-429.9 411.7,-434.1"/>
</g>
<!-- src/main/files&#45;and&#45;dirs/normalize.js -->
<g id="node13" class="node">
<title>src/main/files&#45;and&#45;dirs/normalize.js</title>
<g id="a_node13"><a xlink:href="src/main/files-and-dirs/normalize.js" xlink:title="normalize.js">
<path fill="lime" stroke="black" d="M336,-164C336,-164 282,-164 282,-164 279,-164 276,-161 276,-158 276,-158 276,-152 276,-152 276,-149 279,-146 282,-146 282,-146 336,-146 336,-146 339,-146 342,-149 342,-152 342,-152 342,-158 342,-158 342,-161 339,-164 336,-164"/>
<text text-anchor="middle" x="309" y="-152.8" font-family="Helvetica,sans-Serif" font-size="9.00">normalize.js</text>
</a>
</g>
</g>
<!-- src/main/index.js&#45;&gt;src/main/files&#45;and&#45;dirs/normalize.js -->
<g id="edge14" class="edge">
<title>src/main/index.js&#45;&gt;src/main/files&#45;and&#45;dirs/normalize.js</title>
<path fill="none" stroke="#000000" stroke-width="2" stroke-opacity="0.200000" d="M221,-205.89C221,-189.1 221,-155 221,-155 221,-155 269.98,-155 269.98,-155"/>
<polygon fill="#000000" fill-opacity="0.200000" stroke="#000000" stroke-width="2" stroke-opacity="0.200000" points="269.98,-157.1 275.98,-155 269.98,-152.9 269.98,-157.1"/>
</g>
<!-- src/report/index.js -->
<g id="node14" class="node">
<title>src/report/index.js</title>
<g id="a_node14"><a xlink:href="src/report/index.js" xlink:title="index.js">
<path fill="lightgray" stroke="black" d="M613,-420C613,-420 571,-420 571,-420 568,-420 565,-417 565,-414 565,-414 565,-408 565,-408 565,-405 568,-402 571,-402 571,-402 613,-402 613,-402 616,-402 619,-405 619,-408 619,-408 619,-414 619,-414 619,-417 616,-420 613,-420"/>
<text text-anchor="middle" x="592" y="-408.8" font-family="Helvetica,sans-Serif" font-size="9.00" fill="gray">index.js</text>
</a>
</g>
</g>
<!-- src/main/index.js&#45;&gt;src/report/index.js -->
<g id="edge11" class="edge">
<title>src/main/index.js&#45;&gt;src/report/index.js</title>
<path fill="none" stroke="#000000" stroke-width="2" stroke-opacity="0.200000" d="M217,-224.07C217,-263 217,-414 217,-414 217,-414 558.73,-414 558.73,-414"/>
<polygon fill="#000000" fill-opacity="0.200000" stroke="#000000" stroke-width="2" stroke-opacity="0.200000" points="558.73,-416.1 564.73,-414 558.73,-411.9 558.73,-416.1"/>
</g>
<!-- src/schema/cruise&#45;result.schema.json -->
<g id="node15" class="node">
<title>src/schema/cruise&#45;result.schema.json</title>
<g id="a_node15"><a xlink:href="src/schema/cruise-result.schema.json" xlink:title="cruise&#45;result.schema.json">
<path fill="lightgray" stroke="black" d="M499.5,-370C499.5,-370 390.5,-370 390.5,-370 387.5,-370 384.5,-367 384.5,-364 384.5,-364 384.5,-358 384.5,-358 384.5,-355 387.5,-352 390.5,-352 390.5,-352 499.5,-352 499.5,-352 502.5,-352 505.5,-355 505.5,-358 505.5,-358 505.5,-364 505.5,-364 505.5,-367 502.5,-370 499.5,-370"/>
<text text-anchor="middle" x="445" y="-358.8" font-family="Helvetica,sans-Serif" font-size="9.00" fill="gray">cruise&#45;result.schema.json</text>
</a>
</g>
</g>
<!-- src/main/index.js&#45;&gt;src/schema/cruise&#45;result.schema.json -->
<g id="edge12" class="edge">
<title>src/main/index.js&#45;&gt;src/schema/cruise&#45;result.schema.json</title>
<path fill="none" stroke="#000000" stroke-width="2" stroke-opacity="0.200000" d="M224,-224.13C224,-256.1 224,-361 224,-361 224,-361 378.32,-361 378.32,-361"/>
<polygon fill="#000000" fill-opacity="0.200000" stroke="#000000" stroke-width="2" stroke-opacity="0.200000" points="378.32,-363.1 384.32,-361 378.32,-358.9 378.32,-363.1"/>
</g>
<!-- src/main/options/normalize.js -->
<g id="node16" class="node">
<title>src/main/options/normalize.js</title>
<g id="a_node16"><a xlink:href="src/main/options/normalize.js" xlink:title="normalize.js">
<path fill="lime" stroke="black" d="M472,-164C472,-164 418,-164 418,-164 415,-164 412,-161 412,-158 412,-158 412,-152 412,-152 412,-149 415,-146 418,-146 418,-146 472,-146 472,-146 475,-146 478,-149 478,-152 478,-152 478,-158 478,-158 478,-161 475,-164 472,-164"/>
<text text-anchor="middle" x="445" y="-152.8" font-family="Helvetica,sans-Serif" font-size="9.00">normalize.js</text>
</a>
</g>
</g>
<!-- src/main/index.js&#45;&gt;src/main/options/normalize.js -->
<g id="edge15" class="edge">
<title>src/main/index.js&#45;&gt;src/main/options/normalize.js</title>
<path fill="none" stroke="#000000" stroke-width="2" stroke-opacity="0.200000" d="M229,-205.69C229,-192.25 229,-169 229,-169 229,-169 445,-169 445,-169 445,-169 445,-168.53 445,-168.53"/>
<polygon fill="#000000" fill-opacity="0.200000" stroke="#000000" stroke-width="2" stroke-opacity="0.200000" points="447.1,-170.26 445,-164.26 442.9,-170.26 447.1,-170.26"/>
</g>
<!-- src/main/options/validate.js -->
<g id="node17" class="node">
<title>src/main/options/validate.js</title>
<g id="a_node17"><a xlink:href="src/main/options/validate.js" xlink:title="validate.js">
<path fill="lime" stroke="black" d="M468,-194C468,-194 422,-194 422,-194 419,-194 416,-191 416,-188 416,-188 416,-182 416,-182 416,-179 419,-176 422,-176 422,-176 468,-176 468,-176 471,-176 474,-179 474,-182 474,-182 474,-188 474,-188 474,-191 471,-194 468,-194"/>
<text text-anchor="middle" x="445" y="-182.8" font-family="Helvetica,sans-Serif" font-size="9.00">validate.js</text>
</a>
</g>
</g>
<!-- src/main/index.js&#45;&gt;src/main/options/validate.js -->
<g id="edge16" class="edge">
<title>src/main/index.js&#45;&gt;src/main/options/validate.js</title>
<path fill="none" stroke="#000000" stroke-width="2" stroke-opacity="0.200000" d="M237,-205.87C237,-196.72 237,-184 237,-184 237,-184 409.64,-184 409.64,-184"/>
<polygon fill="#000000" fill-opacity="0.200000" stroke="#000000" stroke-width="2" stroke-opacity="0.200000" points="409.64,-186.1 415.64,-184 409.64,-181.9 409.64,-186.1"/>
</g>
<!-- src/main/rule&#45;set/normalize.js -->
<g id="node18" class="node">
<title>src/main/rule&#45;set/normalize.js</title>
<g id="a_node18"><a xlink:href="src/main/rule-set/normalize.js" xlink:title="normalize.js">
<path fill="lime" stroke="black" d="M336,-254C336,-254 282,-254 282,-254 279,-254 276,-251 276,-248 276,-248 276,-242 276,-242 276,-239 279,-236 282,-236 282,-236 336,-236 336,-236 339,-236 342,-239 342,-242 342,-242 342,-248 342,-248 342,-251 339,-254 336,-254"/>
<text text-anchor="middle" x="309" y="-242.8" font-family="Helvetica,sans-Serif" font-size="9.00">normalize.js</text>
</a>
</g>
</g>
<!-- src/main/index.js&#45;&gt;src/main/rule&#45;set/normalize.js -->
<g id="edge18" class="edge">
<title>src/main/index.js&#45;&gt;src/main/rule&#45;set/normalize.js</title>
<path fill="none" stroke="#000000" stroke-width="2" stroke-opacity="0.200000" d="M238,-224.33C238,-233.67 238,-246.67 238,-246.67 238,-246.67 269.99,-246.67 269.99,-246.67"/>
<polygon fill="#000000" fill-opacity="0.200000" stroke="#000000" stroke-width="2" stroke-opacity="0.200000" points="269.99,-248.77 275.99,-246.67 269.99,-244.57 269.99,-248.77"/>
</g>
<!-- src/main/rule&#45;set/validate.js -->
<g id="node19" class="node">
<title>src/main/rule&#45;set/validate.js</title>
<g id="a_node19"><a xlink:href="src/main/rule-set/validate.js" xlink:title="validate.js">
<path fill="lime" stroke="black" d="M332,-224C332,-224 286,-224 286,-224 283,-224 280,-221 280,-218 280,-218 280,-212 280,-212 280,-209 283,-206 286,-206 286,-206 332,-206 332,-206 335,-206 338,-209 338,-212 338,-212 338,-218 338,-218 338,-221 335,-224 332,-224"/>
<text text-anchor="middle" x="309" y="-212.8" font-family="Helvetica,sans-Serif" font-size="9.00">validate.js</text>
</a>
</g>
</g>
<!-- src/main/index.js&#45;&gt;src/main/rule&#45;set/validate.js -->
<g id="edge19" class="edge">
<title>src/main/index.js&#45;&gt;src/main/rule&#45;set/validate.js</title>
<path fill="none" stroke="#000000" stroke-width="2" stroke-opacity="0.200000" d="M244.11,-215C244.11,-215 273.84,-215 273.84,-215"/>
<polygon fill="#000000" fill-opacity="0.200000" stroke="#000000" stroke-width="2" stroke-opacity="0.200000" points="273.84,-217.1 279.84,-215 273.84,-212.9 273.84,-217.1"/>
</g>
<!-- src/cli/format.js -->
<g id="node8" class="node">
<title>src/cli/format.js</title>
<g id="a_node8"><a xlink:href="src/cli/format.js" xlink:title="format.js">
<path fill="lightgray" stroke="black" d="M116,-252C116,-252 74,-252 74,-252 71,-252 68,-249 68,-246 68,-246 68,-240 68,-240 68,-237 71,-234 74,-234 74,-234 116,-234 116,-234 119,-234 122,-237 122,-240 122,-240 122,-246 122,-246 122,-249 119,-252 116,-252"/>
<text text-anchor="middle" x="95" y="-240.8" font-family="Helvetica,sans-Serif" font-size="9.00" fill="gray">format.js</text>
</a>
</g>
</g>
<!-- src/cli/format.js&#45;&gt;src/main/index.js -->
<g id="edge5" class="edge">
<title>src/cli/format.js&#45;&gt;src/main/index.js</title>
<path fill="none" stroke="#000000" stroke-width="2" stroke-opacity="0.200000" d="M122.07,-241.33C152.28,-241.33 197,-241.33 197,-241.33 197,-241.33 197,-230.21 197,-230.21"/>
<polygon fill="#000000" fill-opacity="0.200000" stroke="#000000" stroke-width="2" stroke-opacity="0.200000" points="199.1,-230.21 197,-224.21 194.9,-230.21 199.1,-230.21"/>
</g>
<!-- src/cli/index.js -->
<g id="node9" class="node">
<title>src/cli/index.js</title>
<g id="a_node9"><a xlink:href="src/cli/index.js" xlink:title="index.js">
<path fill="lightgray" stroke="black" d="M116,-192C116,-192 74,-192 74,-192 71,-192 68,-189 68,-186 68,-186 68,-180 68,-180 68,-177 71,-174 74,-174 74,-174 116,-174 116,-174 119,-174 122,-177 122,-180 122,-180 122,-186 122,-186 122,-189 119,-192 116,-192"/>
<text text-anchor="middle" x="95" y="-180.8" font-family="Helvetica,sans-Serif" font-size="9.00" fill="gray">index.js</text>
</a>
</g>
</g>
<!-- src/cli/index.js&#45;&gt;src/main/bus.js -->
<g id="edge7" class="edge">
<title>src/cli/index.js&#45;&gt;src/main/bus.js</title>
<path fill="none" stroke="#000000" stroke-width="2" stroke-opacity="0.200000" d="M122.19,-180C145.04,-180 174,-180 174,-180 174,-180 174,-98 174,-98 174,-98 275.68,-98 275.68,-98"/>
<polygon fill="#000000" fill-opacity="0.200000" stroke="#000000" stroke-width="2" stroke-opacity="0.200000" points="275.68,-100.1 281.68,-98 275.68,-95.9 275.68,-100.1"/>
</g>
<!-- src/cli/index.js&#45;&gt;src/main/index.js -->
<g id="edge6" class="edge">
<title>src/cli/index.js&#45;&gt;src/main/index.js</title>
<path fill="none" stroke="#000000" stroke-width="2" stroke-opacity="0.200000" d="M122.06,-188C152.58,-188 198,-188 198,-188 198,-188 198,-199.86 198,-199.86"/>
<polygon fill="#000000" fill-opacity="0.200000" stroke="#000000" stroke-width="2" stroke-opacity="0.200000" points="195.9,-199.86 198,-205.86 200.1,-199.86 195.9,-199.86"/>
</g>
<!-- src/main/options/defaults.json -->
<g id="node20" class="node">
<title>src/main/options/defaults.json</title>
<g id="a_node20"><a xlink:href="src/main/options/defaults.json" xlink:title="defaults.json">
<path fill="lime" stroke="black" d="M620,-164C620,-164 564,-164 564,-164 561,-164 558,-161 558,-158 558,-158 558,-152 558,-152 558,-149 561,-146 564,-146 564,-146 620,-146 620,-146 623,-146 626,-149 626,-152 626,-152 626,-158 626,-158 626,-161 623,-164 620,-164"/>
<text text-anchor="middle" x="592" y="-152.8" font-family="Helvetica,sans-Serif" font-size="9.00">defaults.json</text>
</a>
</g>
</g>
<!-- src/main/options/normalize.js&#45;&gt;src/main/options/defaults.json -->
<g id="edge21" class="edge">
<title>src/main/options/normalize.js&#45;&gt;src/main/options/defaults.json</title>
<path fill="none" stroke="#000000" stroke-width="2" stroke-opacity="0.200000" d="M478.36,-152C478.36,-152 551.76,-152 551.76,-152"/>
<polygon fill="#000000" fill-opacity="0.200000" stroke="#000000" stroke-width="2" stroke-opacity="0.200000" points="551.76,-154.1 557.76,-152 551.76,-149.9 551.76,-154.1"/>
</g>
<!-- src/main/utl/normalize&#45;re&#45;properties.js -->
<g id="node21" class="node">
<title>src/main/utl/normalize&#45;re&#45;properties.js</title>
<g id="a_node21"><a xlink:href="src/main/utl/normalize-re-properties.js" xlink:title="normalize&#45;re&#45;properties.js">
<path fill="lime" stroke="black" d="M647,-254C647,-254 537,-254 537,-254 534,-254 531,-251 531,-248 531,-248 531,-242 531,-242 531,-239 534,-236 537,-236 537,-236 647,-236 647,-236 650,-236 653,-239 653,-242 653,-242 653,-248 653,-248 653,-251 650,-254 647,-254"/>
<text text-anchor="middle" x="592" y="-242.8" font-family="Helvetica,sans-Serif" font-size="9.00">normalize&#45;re&#45;properties.js</text>
</a>
</g>
</g>
<!-- src/main/options/normalize.js&#45;&gt;src/main/utl/normalize&#45;re&#45;properties.js -->
<g id="edge20" class="edge">
<title>src/main/options/normalize.js&#45;&gt;src/main/utl/normalize&#45;re&#45;properties.js</title>
<path fill="none" stroke="#000000" stroke-width="2" stroke-opacity="0.200000" d="M478.02,-158C507.15,-158 545,-158 545,-158 545,-158 545,-229.69 545,-229.69"/>
<polygon fill="#000000" fill-opacity="0.200000" stroke="#000000" stroke-width="2" stroke-opacity="0.200000" points="542.9,-229.69 545,-235.69 547.1,-229.69 542.9,-229.69"/>
</g>
<!-- src/main/options/validate.js&#45;&gt;src/report/index.js -->
<g id="edge22" class="edge">
<title>src/main/options/validate.js&#45;&gt;src/report/index.js</title>
<path fill="none" stroke="#000000" stroke-width="2" stroke-opacity="0.200000" d="M474.25,-185C494.93,-185 519,-185 519,-185 519,-185 519,-408 519,-408 519,-408 558.82,-408 558.82,-408"/>
<polygon fill="#000000" fill-opacity="0.200000" stroke="#000000" stroke-width="2" stroke-opacity="0.200000" points="558.82,-410.1 564.82,-408 558.82,-405.9 558.82,-410.1"/>
</g>
<!-- src/main/rule&#45;set/normalize.js&#45;&gt;src/main/utl/normalize&#45;re&#45;properties.js -->
<g id="edge24" class="edge">
<title>src/main/rule&#45;set/normalize.js&#45;&gt;src/main/utl/normalize&#45;re&#45;properties.js</title>
<path fill="none" stroke="#000000" stroke-width="2" stroke-opacity="0.200000" d="M342.02,-245C342.02,-245 524.95,-245 524.95,-245"/>
<polygon fill="#000000" fill-opacity="0.200000" stroke="#000000" stroke-width="2" stroke-opacity="0.200000" points="524.95,-247.1 530.95,-245 524.95,-242.9 524.95,-247.1"/>
</g>
<!-- src/main/rule&#45;set/validate.js&#45;&gt;src/main/options/validate.js -->
<g id="edge26" class="edge">
<title>src/main/rule&#45;set/validate.js&#45;&gt;src/main/options/validate.js</title>
<path fill="none" stroke="#000000" stroke-width="2" stroke-opacity="0.200000" d="M338.18,-212C378.14,-212 445,-212 445,-212 445,-212 445,-200.14 445,-200.14"/>
<polygon fill="#000000" fill-opacity="0.200000" stroke="#000000" stroke-width="2" stroke-opacity="0.200000" points="447.1,-200.14 445,-194.14 442.9,-200.14 447.1,-200.14"/>
</g>
<!-- src/schema/configuration.schema.json -->
<g id="node22" class="node">
<title>src/schema/configuration.schema.json</title>
<g id="a_node22"><a xlink:href="src/schema/configuration.schema.json" xlink:title="configuration.schema.json">
<path fill="lightgray" stroke="black" d="M501,-340C501,-340 389,-340 389,-340 386,-340 383,-337 383,-334 383,-334 383,-328 383,-328 383,-325 386,-322 389,-322 389,-322 501,-322 501,-322 504,-322 507,-325 507,-328 507,-328 507,-334 507,-334 507,-337 504,-340 501,-340"/>
<text text-anchor="middle" x="445" y="-328.8" font-family="Helvetica,sans-Serif" font-size="9.00" fill="gray">configuration.schema.json</text>
</a>
</g>
</g>
<!-- src/main/rule&#45;set/validate.js&#45;&gt;src/schema/configuration.schema.json -->
<g id="edge25" class="edge">
<title>src/main/rule&#45;set/validate.js&#45;&gt;src/schema/configuration.schema.json</title>
<path fill="none" stroke="#000000" stroke-width="2" stroke-opacity="0.200000" d="M338.14,-218C364.1,-218 398,-218 398,-218 398,-218 398,-315.75 398,-315.75"/>
<polygon fill="#000000" fill-opacity="0.200000" stroke="#000000" stroke-width="2" stroke-opacity="0.200000" points="395.9,-315.75 398,-321.75 400.1,-315.75 395.9,-315.75"/>
</g>
</g>
</svg>
