<svg xmlns="http://www.w3.org/2000/svg" xmlns:xlink="http://www.w3.org/1999/xlink" width="854pt" height="454pt" viewBox="0 0 854 454"><g class="graph" transform="translate(4 450)"><title>dependency-cruiser output</title><path fill="#fff" d="M-4 4v-454h854V4z"/><g class="cluster"><title>cluster_src</title><path fill="none" stroke="#000" d="M8-8v-430h830V-8z"/><text xml:space="preserve" x="423" y="-420.7" font-family="Times,serif" font-size="14" text-anchor="middle">src</text></g><g class="cluster"><title>cluster_src/main</title><path fill="none" stroke="#000" d="M16-16v-389.5h814V-16z"/><text xml:space="preserve" x="423" y="-388.2" font-family="Times,serif" font-size="14" text-anchor="middle">main</text></g><g class="cluster"><title>cluster_src/main/files-and-dirs</title><path fill="none" stroke="#000" d="M354-180.5V-257h146v76.5z"/><text xml:space="preserve" x="427" y="-239.7" font-family="Times,serif" font-size="14" text-anchor="middle">files-and-dirs</text></g><g class="cluster"><title>cluster_src/main/options</title><path fill="none" stroke="#000" d="M334-24v-148.5h322V-24z"/><text xml:space="preserve" x="495" y="-155.2" font-family="Times,serif" font-size="14" text-anchor="middle">options</text></g><g class="cluster"><title>cluster_src/main/resolve-options</title><path fill="none" stroke="#000" d="M542-180.5V-257h146v76.5z"/><text xml:space="preserve" x="615" y="-239.7" font-family="Times,serif" font-size="14" text-anchor="middle">resolve-options</text></g><g class="cluster"><title>cluster_src/main/rule-set</title><path fill="none" stroke="#000" d="M24-180.5V-257h322v76.5z"/><text xml:space="preserve" x="185" y="-239.7" font-family="Times,serif" font-size="14" text-anchor="middle">rule-set</text></g><g class="node"><title>src/main/cruise.mjs</title><a xlink:href="src/main/cruise.mjs" xlink:title="cruise.mjs">
<ellipse cx="521" cy="-283" fill="none" stroke="#000" rx="49.3" ry="18"/>
<text xml:space="preserve" x="492.88" y="-277.95" font-family="Times,serif" font-size="14">cruise.mjs</text>
</a></g><g class="node"><title>src/main/files-and-dirs/normalize.mjs</title><a xlink:href="src/main/files-and-dirs/normalize.mjs" xlink:title="normalize.mjs">
<ellipse cx="427" cy="-206.5" fill="none" stroke="#000" rx="64.66" ry="18"/>
<text xml:space="preserve" x="387.62" y="-201.45" font-family="Times,serif" font-size="14">normalize.mjs</text>
</a></g><g class="edge"><title>src/main/cruise.mjs-&gt;src/main/files-and-dirs/normalize.mjs</title><path fill="none" stroke="#000" d="M501.07-266.2c-13.04 10.33-30.28 23.99-44.85 35.54"/><path stroke="#000" d="m458.75-228.2-10.01 3.47 5.67-8.96z"/></g><g class="node"><title>src/main/options/assert-validity.mjs</title><a xlink:href="src/main/options/assert-validity.mjs" xlink:title="assert-validity.mjs">
<ellipse cx="421" cy="-122" fill="none" stroke="#000" rx="78.99" ry="18"/>
<text xml:space="preserve" x="371.12" y="-116.95" font-family="Times,serif" font-size="14">assert-validity.mjs</text>
</a></g><g class="edge"><title>src/main/cruise.mjs-&gt;src/main/options/assert-validity.mjs</title><path fill="none" stroke="#000" d="M518.82-264.52c-3.49 27.14-10.39 77.04-14.82 84.02-9.55 15.06-24.62 27.22-39.31 36.42"/><path stroke="#000" d="m466.85-141.29-10.39 2.06 6.84-8.09z"/></g><g class="node"><title>src/main/options/normalize.mjs</title><a xlink:href="src/main/options/normalize.mjs" xlink:title="normalize.mjs">
<ellipse cx="583" cy="-122" fill="none" stroke="#000" rx="64.66" ry="18"/>
<text xml:space="preserve" x="543.62" y="-116.95" font-family="Times,serif" font-size="14">normalize.mjs</text>
</a></g><g class="edge"><title>src/main/cruise.mjs-&gt;src/main/options/normalize.mjs</title><path fill="none" stroke="#000" d="M521.32-264.74c.96 20.81 4.43 56.44 16.68 84.24 5.11 11.6 13.1 22.92 20.94 32.4"/><path stroke="#000" d="m561.39-150.61 3.92 9.84-9.2-5.25z"/></g><g class="node"><title>src/main/report-wrap.mjs</title><a xlink:href="src/main/report-wrap.mjs" xlink:title="report-wrap.mjs">
<ellipse cx="750" cy="-122" fill="none" stroke="#000" rx="70.8" ry="18"/>
<text xml:space="preserve" x="706.12" y="-116.95" font-family="Times,serif" font-size="14">report-wrap.mjs</text>
</a></g><g class="edge"><title>src/main/cruise.mjs-&gt;src/main/report-wrap.mjs</title><path fill="none" stroke="#000" d="M570.31-281.3c78.52 1.62 224.78 6.96 240.69 24.3 22.99 25.05 13.47 45.28 0 76.5-5.72 13.26-16.17 24.88-26.82 34.13"/><path stroke="#000" d="m786.43-143.69-9.98 3.58 5.57-9.02z"/></g><g class="node"><title>src/main/resolve-options/normalize.mjs</title><a xlink:href="src/main/resolve-options/normalize.mjs" xlink:title="normalize.mjs">
<ellipse cx="615" cy="-206.5" fill="none" stroke="#000" rx="64.66" ry="18"/>
<text xml:space="preserve" x="575.62" y="-201.45" font-family="Times,serif" font-size="14">normalize.mjs</text>
</a></g><g class="edge"><title>src/main/cruise.mjs-&gt;src/main/resolve-options/normalize.mjs</title><path fill="none" stroke="#000" d="M540.93-266.2c13.04 10.33 30.28 23.99 44.85 35.54"/><path stroke="#000" d="m587.59-233.69 5.67 8.96-10.01-3.47z"/></g><g class="node"><title>src/main/rule-set/assert-validity.mjs</title><a xlink:href="src/main/rule-set/assert-validity.mjs" xlink:title="assert-validity.mjs">
<ellipse cx="259" cy="-206.5" fill="none" stroke="#000" rx="78.99" ry="18"/>
<text xml:space="preserve" x="209.12" y="-201.45" font-family="Times,serif" font-size="14">assert-validity.mjs</text>
</a></g><g class="edge"><title>src/main/cruise.mjs-&gt;src/main/rule-set/assert-validity.mjs</title><path fill="none" stroke="#000" d="M472.41-279.46c-34.82 2.9-82.42 9.13-122.41 22.46-19.78 6.59-40.31 17.37-56.85 27.18"/><path stroke="#000" d="m295.06-226.88-10.36 2.22 6.71-8.2z"/></g><g class="node"><title>src/main/rule-set/normalize.mjs</title><a xlink:href="src/main/rule-set/normalize.mjs" xlink:title="normalize.mjs">
<ellipse cx="97" cy="-206.5" fill="none" stroke="#000" rx="64.66" ry="18"/>
<text xml:space="preserve" x="57.62" y="-201.45" font-family="Times,serif" font-size="14">normalize.mjs</text>
</a></g><g class="edge"><title>src/main/cruise.mjs-&gt;src/main/rule-set/normalize.mjs</title><path fill="none" stroke="#000" d="M471.5-281.58c-82.97 1.23-246.33 6-300.5 24.58-16.71 5.73-33.24 16.21-46.43 26.05"/><path stroke="#000" d="m126.84-228.28-10.04 3.38 5.74-8.9z"/></g><g class="node"><title>src/main/helpers.mjs</title><a xlink:href="src/main/helpers.mjs" xlink:title="helpers.mjs">
<ellipse cx="259" cy="-50" fill="none" stroke="#000" rx="53.91" ry="18"/>
<text xml:space="preserve" x="227.5" y="-44.95" font-family="Times,serif" font-size="14">helpers.mjs</text>
</a></g><g class="edge"><title>src/main/options/normalize.mjs-&gt;src/main/helpers.mjs</title><path fill="none" stroke="#000" d="M534.48-109.65A2613 2613 0 0 1 509-104c-79.33 17.09-99.75 18.55-179 36-5.66 1.25-11.56 2.59-17.43 3.95"/><path stroke="#000" d="m313.38-60.64-10.54-1.12 8.93-5.69z"/></g><g class="node"><title>src/main/options/defaults.mjs</title><a xlink:href="src/main/options/defaults.mjs" xlink:title="defaults.mjs">
<ellipse cx="583" cy="-50" fill="none" stroke="#000" rx="56.47" ry="18"/>
<text xml:space="preserve" x="549.62" y="-44.95" font-family="Times,serif" font-size="14">defaults.mjs</text>
</a></g><g class="edge"><title>src/main/options/normalize.mjs-&gt;src/main/options/defaults.mjs</title><path fill="none" stroke="#000" d="M583-103.7v24.16"/><path stroke="#000" d="m586.5-79.62-3.5 10-3.5-10z"/></g><g class="edge"><title>src/main/rule-set/assert-validity.mjs-&gt;src/main/options/assert-validity.mjs</title><path fill="none" stroke="#000" d="M298.07-190.47c12.89 5.3 27.19 11.55 39.93 17.97 16.19 8.16 33.5 18.25 48.1 27.19"/><path stroke="#000" d="m387.79-148.39 6.65 8.25-10.34-2.3z"/></g><g class="edge"><title>src/main/rule-set/assert-validity.mjs-&gt;src/main/helpers.mjs</title><path fill="none" stroke="#000" d="M259-188.08v108.79"/><path stroke="#000" d="m262.5-79.64-3.5 10-3.5-10z"/></g><g class="edge"><title>src/main/rule-set/normalize.mjs-&gt;src/main/helpers.mjs</title><path fill="none" stroke="#000" d="M114.34-188.97c28.62 27.3 85.89 81.92 119.15 113.64"/><path stroke="#000" d="m235.87-77.89 4.82 9.43-9.65-4.37z"/></g><g class="node"><title>src/main/format.mjs</title><a xlink:href="src/main/format.mjs" xlink:title="format.mjs">
<ellipse cx="750" cy="-206.5" fill="none" stroke="#000" rx="52.38" ry="18"/>
<text xml:space="preserve" x="719.62" y="-201.45" font-family="Times,serif" font-size="14">format.mjs</text>
</a></g><g class="edge"><title>src/main/format.mjs-&gt;src/main/options/assert-validity.mjs</title><path fill="none" stroke="#000" d="M721.79-190.9c-9.25 4.11-19.74 8.1-29.79 10.4-39.68 9.09-143.86-3.17-183 8-19.82 5.66-40 16.56-56.03 26.7"/><path stroke="#000" d="m455.12-143.02-10.28 2.55 6.44-8.41z"/></g><g class="edge"><title>src/main/format.mjs-&gt;src/main/options/normalize.mjs</title><path fill="none" stroke="#000" d="M720.35-191.3c-8.96 3.9-18.93 7.86-28.35 10.8-17.31 5.4-23.37.78-40 8-14.87 6.46-29.7 16.5-41.77 25.86"/><path stroke="#000" d="m612.74-144.17-9.99 3.53 5.61-8.99z"/></g><g class="edge"><title>src/main/format.mjs-&gt;src/main/report-wrap.mjs</title><path fill="none" stroke="#000" d="M750-188v36.17"/><path stroke="#000" d="m753.5-151.98-3.5 10-3.5-10z"/></g><g class="node"><title>src/main/index.d.ts</title><a xlink:href="src/main/index.d.ts" xlink:title="index.d.ts">
<ellipse cx="288" cy="-355" fill="none" stroke="#000" rx="47.26" ry="18"/>
<text xml:space="preserve" x="261.38" y="-349.95" font-family="Times,serif" font-size="14">index.d.ts</text>
</a></g><g class="node"><title>src/main/index.mjs</title><a xlink:href="src/main/index.mjs" xlink:title="index.mjs">
<ellipse cx="598" cy="-355" fill="none" stroke="#000" rx="47.77" ry="18"/>
<text xml:space="preserve" x="571" y="-349.95" font-family="Times,serif" font-size="14">index.mjs</text>
</a></g><g class="edge"><title>src/main/index.mjs-&gt;src/main/cruise.mjs</title><path fill="none" stroke="#000" d="M580.53-338.12c-9.88 8.98-22.41 20.38-33.43 30.39"/><path stroke="#000" d="m549.54-305.22-9.75 4.14 5.04-9.32z"/></g><g class="edge"><title>src/main/index.mjs-&gt;src/main/format.mjs</title><path fill="none" stroke="#000" d="M614.85-337.76c26.7 25.74 78.91 76.06 110.04 106.06"/><path stroke="#000" d="m727.22-234.32 4.77 9.46-9.63-4.42z"/></g></g></svg>