<?xml version="1.0" encoding="UTF-8" standalone="no"?>
<!DOCTYPE svg PUBLIC "-//W3C//DTD SVG 1.1//EN"
 "http://www.w3.org/Graphics/SVG/1.1/DTD/svg11.dtd">
<!-- Generated by graphviz version 9.0.0 (20230911.1827)
 -->
<!-- Title: dependency&#45;cruiser output Pages: 1 -->
<svg width="854pt" height="454pt"
 viewBox="0.00 0.00 854.00 454.00" xmlns="http://www.w3.org/2000/svg" xmlns:xlink="http://www.w3.org/1999/xlink">
<g id="graph0" class="graph" transform="scale(1 1) rotate(0) translate(4 450)">
<title>dependency&#45;cruiser output</title>
<polygon fill="white" stroke="none" points="-4,4 -4,-450 850,-450 850,4 -4,4"/>
<g id="clust1" class="cluster">
<title>cluster_src</title>
<polygon fill="none" stroke="black" points="8,-8 8,-438 838,-438 838,-8 8,-8"/>
<text text-anchor="middle" x="423" y="-420.7" font-family="Times,serif" font-size="14.00">src</text>
</g>
<g id="clust2" class="cluster">
<title>cluster_src/main</title>
<polygon fill="none" stroke="black" points="16,-16 16,-405.5 830,-405.5 830,-16 16,-16"/>
<text text-anchor="middle" x="423" y="-388.2" font-family="Times,serif" font-size="14.00">main</text>
</g>
<g id="clust3" class="cluster">
<title>cluster_src/main/files&#45;and&#45;dirs</title>
<polygon fill="none" stroke="black" points="354,-180.5 354,-257 500,-257 500,-180.5 354,-180.5"/>
<text text-anchor="middle" x="427" y="-239.7" font-family="Times,serif" font-size="14.00">files&#45;and&#45;dirs</text>
</g>
<g id="clust4" class="cluster">
<title>cluster_src/main/options</title>
<polygon fill="none" stroke="black" points="334,-24 334,-172.5 656,-172.5 656,-24 334,-24"/>
<text text-anchor="middle" x="495" y="-155.2" font-family="Times,serif" font-size="14.00">options</text>
</g>
<g id="clust5" class="cluster">
<title>cluster_src/main/resolve&#45;options</title>
<polygon fill="none" stroke="black" points="542,-180.5 542,-257 688,-257 688,-180.5 542,-180.5"/>
<text text-anchor="middle" x="615" y="-239.7" font-family="Times,serif" font-size="14.00">resolve&#45;options</text>
</g>
<g id="clust6" class="cluster">
<title>cluster_src/main/rule&#45;set</title>
<polygon fill="none" stroke="black" points="24,-180.5 24,-257 346,-257 346,-180.5 24,-180.5"/>
<text text-anchor="middle" x="185" y="-239.7" font-family="Times,serif" font-size="14.00">rule&#45;set</text>
</g>
<!-- src/main/cruise.mjs -->
<g id="node1" class="node">
<title>src/main/cruise.mjs</title>
<g id="a_node1"><a xlink:href="src/main/cruise.mjs" xlink:title="cruise.mjs">
<ellipse fill="none" stroke="black" cx="521" cy="-283" rx="49.3" ry="18"/>
<text text-anchor="start" x="492.88" y="-277.95" font-family="Times,serif" font-size="14.00">cruise.mjs</text>
</a>
</g>
</g>
<!-- src/main/files&#45;and&#45;dirs/normalize.mjs -->
<g id="node2" class="node">
<title>src/main/files&#45;and&#45;dirs/normalize.mjs</title>
<g id="a_node2"><a xlink:href="src/main/files-and-dirs/normalize.mjs" xlink:title="normalize.mjs">
<ellipse fill="none" stroke="black" cx="427" cy="-206.5" rx="64.66" ry="18"/>
<text text-anchor="start" x="387.62" y="-201.45" font-family="Times,serif" font-size="14.00">normalize.mjs</text>
</a>
</g>
</g>
<!-- src/main/cruise.mjs&#45;&gt;src/main/files&#45;and&#45;dirs/normalize.mjs -->
<g id="edge1" class="edge">
<title>src/main/cruise.mjs&#45;&gt;src/main/files&#45;and&#45;dirs/normalize.mjs</title>
<path fill="none" stroke="black" d="M501.07,-266.2C488.03,-255.87 470.79,-242.21 456.22,-230.66"/>
<polygon fill="black" stroke="black" points="458.75,-228.2 448.74,-224.73 454.41,-233.69 458.75,-228.2"/>
</g>
<!-- src/main/options/assert&#45;validity.mjs -->
<g id="node3" class="node">
<title>src/main/options/assert&#45;validity.mjs</title>
<g id="a_node3"><a xlink:href="src/main/options/assert-validity.mjs" xlink:title="assert&#45;validity.mjs">
<ellipse fill="none" stroke="black" cx="421" cy="-122" rx="78.99" ry="18"/>
<text text-anchor="start" x="371.12" y="-116.95" font-family="Times,serif" font-size="14.00">assert&#45;validity.mjs</text>
</a>
</g>
</g>
<!-- src/main/cruise.mjs&#45;&gt;src/main/options/assert&#45;validity.mjs -->
<g id="edge2" class="edge">
<title>src/main/cruise.mjs&#45;&gt;src/main/options/assert&#45;validity.mjs</title>
<path fill="none" stroke="black" d="M518.23,-264.97C513.56,-236.29 504.57,-181.39 504,-180.5 494.45,-165.44 479.38,-153.28 464.69,-144.08"/>
<polygon fill="black" stroke="black" points="466.85,-141.29 456.46,-139.23 463.3,-147.32 466.85,-141.29"/>
</g>
<!-- src/main/options/normalize.mjs -->
<g id="node4" class="node">
<title>src/main/options/normalize.mjs</title>
<g id="a_node4"><a xlink:href="src/main/options/normalize.mjs" xlink:title="normalize.mjs">
<ellipse fill="none" stroke="black" cx="583" cy="-122" rx="64.66" ry="18"/>
<text text-anchor="start" x="543.62" y="-116.95" font-family="Times,serif" font-size="14.00">normalize.mjs</text>
</a>
</g>
</g>
<!-- src/main/cruise.mjs&#45;&gt;src/main/options/normalize.mjs -->
<g id="edge3" class="edge">
<title>src/main/cruise.mjs&#45;&gt;src/main/options/normalize.mjs</title>
<path fill="none" stroke="black" d="M521.32,-264.74C522.28,-243.93 525.75,-208.3 538,-180.5 543.11,-168.9 551.1,-157.58 558.94,-148.1"/>
<polygon fill="black" stroke="black" points="561.39,-150.61 565.31,-140.77 556.11,-146.02 561.39,-150.61"/>
</g>
<!-- src/main/report&#45;wrap.mjs -->
<g id="node5" class="node">
<title>src/main/report&#45;wrap.mjs</title>
<g id="a_node5"><a xlink:href="src/main/report-wrap.mjs" xlink:title="report&#45;wrap.mjs">
<ellipse fill="none" stroke="black" cx="750" cy="-122" rx="70.8" ry="18"/>
<text text-anchor="start" x="706.12" y="-116.95" font-family="Times,serif" font-size="14.00">report&#45;wrap.mjs</text>
</a>
</g>
</g>
<!-- src/main/cruise.mjs&#45;&gt;src/main/report&#45;wrap.mjs -->
<g id="edge4" class="edge">
<title>src/main/cruise.mjs&#45;&gt;src/main/report&#45;wrap.mjs</title>
<path fill="none" stroke="black" d="M570.31,-281.3C648.83,-279.68 795.09,-274.34 811,-257 833.99,-231.95 824.47,-211.72 811,-180.5 805.28,-167.24 794.83,-155.62 784.18,-146.37"/>
<polygon fill="black" stroke="black" points="786.43,-143.69 776.45,-140.11 782.02,-149.13 786.43,-143.69"/>
</g>
<!-- src/main/resolve&#45;options/normalize.mjs -->
<g id="node6" class="node">
<title>src/main/resolve&#45;options/normalize.mjs</title>
<g id="a_node6"><a xlink:href="src/main/resolve-options/normalize.mjs" xlink:title="normalize.mjs">
<ellipse fill="none" stroke="black" cx="615" cy="-206.5" rx="64.66" ry="18"/>
<text text-anchor="start" x="575.62" y="-201.45" font-family="Times,serif" font-size="14.00">normalize.mjs</text>
</a>
</g>
</g>
<!-- src/main/cruise.mjs&#45;&gt;src/main/resolve&#45;options/normalize.mjs -->
<g id="edge5" class="edge">
<title>src/main/cruise.mjs&#45;&gt;src/main/resolve&#45;options/normalize.mjs</title>
<path fill="none" stroke="black" d="M540.93,-266.2C553.97,-255.87 571.21,-242.21 585.78,-230.66"/>
<polygon fill="black" stroke="black" points="587.59,-233.69 593.26,-224.73 583.25,-228.2 587.59,-233.69"/>
</g>
<!-- src/main/rule&#45;set/assert&#45;validity.mjs -->
<g id="node7" class="node">
<title>src/main/rule&#45;set/assert&#45;validity.mjs</title>
<g id="a_node7"><a xlink:href="src/main/rule-set/assert-validity.mjs" xlink:title="assert&#45;validity.mjs">
<ellipse fill="none" stroke="black" cx="259" cy="-206.5" rx="78.99" ry="18"/>
<text text-anchor="start" x="209.12" y="-201.45" font-family="Times,serif" font-size="14.00">assert&#45;validity.mjs</text>
</a>
</g>
</g>
<!-- src/main/cruise.mjs&#45;&gt;src/main/rule&#45;set/assert&#45;validity.mjs -->
<g id="edge6" class="edge">
<title>src/main/cruise.mjs&#45;&gt;src/main/rule&#45;set/assert&#45;validity.mjs</title>
<path fill="none" stroke="black" d="M472.41,-279.46C437.59,-276.56 389.99,-270.33 350,-257 330.22,-250.41 309.69,-239.63 293.15,-229.82"/>
<polygon fill="black" stroke="black" points="295.06,-226.88 284.7,-224.66 291.41,-232.86 295.06,-226.88"/>
</g>
<!-- src/main/rule&#45;set/normalize.mjs -->
<g id="node8" class="node">
<title>src/main/rule&#45;set/normalize.mjs</title>
<g id="a_node8"><a xlink:href="src/main/rule-set/normalize.mjs" xlink:title="normalize.mjs">
<ellipse fill="none" stroke="black" cx="97" cy="-206.5" rx="64.66" ry="18"/>
<text text-anchor="start" x="57.62" y="-201.45" font-family="Times,serif" font-size="14.00">normalize.mjs</text>
</a>
</g>
</g>
<!-- src/main/cruise.mjs&#45;&gt;src/main/rule&#45;set/normalize.mjs -->
<g id="edge7" class="edge">
<title>src/main/cruise.mjs&#45;&gt;src/main/rule&#45;set/normalize.mjs</title>
<path fill="none" stroke="black" d="M471.5,-281.58C388.53,-280.35 225.17,-275.58 171,-257 154.29,-251.27 137.76,-240.79 124.57,-230.95"/>
<polygon fill="black" stroke="black" points="126.84,-228.28 116.8,-224.9 122.54,-233.8 126.84,-228.28"/>
</g>
<!-- src/main/helpers.mjs -->
<g id="node10" class="node">
<title>src/main/helpers.mjs</title>
<g id="a_node10"><a xlink:href="src/main/helpers.mjs" xlink:title="helpers.mjs">
<ellipse fill="none" stroke="black" cx="259" cy="-50" rx="53.91" ry="18"/>
<text text-anchor="start" x="227.5" y="-44.95" font-family="Times,serif" font-size="14.00">helpers.mjs</text>
</a>
</g>
</g>
<!-- src/main/options/normalize.mjs&#45;&gt;src/main/helpers.mjs -->
<g id="edge13" class="edge">
<title>src/main/options/normalize.mjs&#45;&gt;src/main/helpers.mjs</title>
<path fill="none" stroke="black" d="M534.48,-109.65C526,-107.73 517.25,-105.78 509,-104 429.67,-86.91 409.25,-85.45 330,-68 324.34,-66.75 318.44,-65.41 312.57,-64.05"/>
<polygon fill="black" stroke="black" points="313.38,-60.64 302.84,-61.76 311.77,-67.45 313.38,-60.64"/>
</g>
<!-- src/main/options/defaults.mjs -->
<g id="node13" class="node">
<title>src/main/options/defaults.mjs</title>
<g id="a_node13"><a xlink:href="src/main/options/defaults.mjs" xlink:title="defaults.mjs">
<ellipse fill="none" stroke="black" cx="583" cy="-50" rx="56.47" ry="18"/>
<text text-anchor="start" x="549.62" y="-44.95" font-family="Times,serif" font-size="14.00">defaults.mjs</text>
</a>
</g>
</g>
<!-- src/main/options/normalize.mjs&#45;&gt;src/main/options/defaults.mjs -->
<g id="edge14" class="edge">
<title>src/main/options/normalize.mjs&#45;&gt;src/main/options/defaults.mjs</title>
<path fill="none" stroke="black" d="M583,-103.7C583,-96.41 583,-87.73 583,-79.54"/>
<polygon fill="black" stroke="black" points="586.5,-79.62 583,-69.62 579.5,-79.62 586.5,-79.62"/>
</g>
<!-- src/main/rule&#45;set/assert&#45;validity.mjs&#45;&gt;src/main/options/assert&#45;validity.mjs -->
<g id="edge16" class="edge">
<title>src/main/rule&#45;set/assert&#45;validity.mjs&#45;&gt;src/main/options/assert&#45;validity.mjs</title>
<path fill="none" stroke="black" d="M298.07,-190.47C310.96,-185.17 325.26,-178.92 338,-172.5 354.19,-164.34 371.5,-154.25 386.1,-145.31"/>
<polygon fill="black" stroke="black" points="387.79,-148.39 394.44,-140.14 384.1,-142.44 387.79,-148.39"/>
</g>
<!-- src/main/rule&#45;set/assert&#45;validity.mjs&#45;&gt;src/main/helpers.mjs -->
<g id="edge15" class="edge">
<title>src/main/rule&#45;set/assert&#45;validity.mjs&#45;&gt;src/main/helpers.mjs</title>
<path fill="none" stroke="black" d="M259,-188.08C259,-161.63 259,-111.06 259,-79.29"/>
<polygon fill="black" stroke="black" points="262.5,-79.64 259,-69.64 255.5,-79.64 262.5,-79.64"/>
</g>
<!-- src/main/rule&#45;set/normalize.mjs&#45;&gt;src/main/helpers.mjs -->
<g id="edge17" class="edge">
<title>src/main/rule&#45;set/normalize.mjs&#45;&gt;src/main/helpers.mjs</title>
<path fill="none" stroke="black" d="M114.34,-188.97C142.96,-161.67 200.23,-107.05 233.49,-75.33"/>
<polygon fill="black" stroke="black" points="235.87,-77.89 240.69,-68.46 231.04,-72.83 235.87,-77.89"/>
</g>
<!-- src/main/format.mjs -->
<g id="node9" class="node">
<title>src/main/format.mjs</title>
<g id="a_node9"><a xlink:href="src/main/format.mjs" xlink:title="format.mjs">
<ellipse fill="none" stroke="black" cx="750" cy="-206.5" rx="52.38" ry="18"/>
<text text-anchor="start" x="719.62" y="-201.45" font-family="Times,serif" font-size="14.00">format.mjs</text>
</a>
</g>
</g>
<!-- src/main/format.mjs&#45;&gt;src/main/options/assert&#45;validity.mjs -->
<g id="edge8" class="edge">
<title>src/main/format.mjs&#45;&gt;src/main/options/assert&#45;validity.mjs</title>
<path fill="none" stroke="black" d="M721.79,-190.9C712.54,-186.79 702.05,-182.8 692,-180.5 652.32,-171.41 548.14,-183.67 509,-172.5 489.18,-166.84 469,-155.94 452.97,-145.8"/>
<polygon fill="black" stroke="black" points="455.12,-143.02 444.84,-140.47 451.28,-148.88 455.12,-143.02"/>
</g>
<!-- src/main/format.mjs&#45;&gt;src/main/options/normalize.mjs -->
<g id="edge9" class="edge">
<title>src/main/format.mjs&#45;&gt;src/main/options/normalize.mjs</title>
<path fill="none" stroke="black" d="M720.35,-191.3C711.39,-187.4 701.42,-183.44 692,-180.5 674.69,-175.1 668.63,-179.72 652,-172.5 637.13,-166.04 622.3,-156 610.23,-146.64"/>
<polygon fill="black" stroke="black" points="612.74,-144.17 602.75,-140.64 608.36,-149.63 612.74,-144.17"/>
</g>
<!-- src/main/format.mjs&#45;&gt;src/main/report&#45;wrap.mjs -->
<g id="edge10" class="edge">
<title>src/main/format.mjs&#45;&gt;src/main/report&#45;wrap.mjs</title>
<path fill="none" stroke="black" d="M750,-188C750,-177.5 750,-163.89 750,-151.83"/>
<polygon fill="black" stroke="black" points="753.5,-151.98 750,-141.98 746.5,-151.98 753.5,-151.98"/>
</g>
<!-- src/main/index.d.ts -->
<g id="node11" class="node">
<title>src/main/index.d.ts</title>
<g id="a_node11"><a xlink:href="src/main/index.d.ts" xlink:title="index.d.ts">
<ellipse fill="none" stroke="black" cx="747" cy="-355" rx="47.26" ry="18"/>
<text text-anchor="start" x="720.38" y="-349.95" font-family="Times,serif" font-size="14.00">index.d.ts</text>
</a>
</g>
</g>
<!-- src/main/index.mjs -->
<g id="node12" class="node">
<title>src/main/index.mjs</title>
<g id="a_node12"><a xlink:href="src/main/index.mjs" xlink:title="index.mjs">
<ellipse fill="none" stroke="black" cx="559" cy="-355" rx="47.77" ry="18"/>
<text text-anchor="start" x="532" y="-349.95" font-family="Times,serif" font-size="14.00">index.mjs</text>
</a>
</g>
</g>
<!-- src/main/index.mjs&#45;&gt;src/main/cruise.mjs -->
<g id="edge11" class="edge">
<title>src/main/index.mjs&#45;&gt;src/main/cruise.mjs</title>
<path fill="none" stroke="black" d="M549.8,-337.05C545.51,-329.14 540.29,-319.54 535.49,-310.69"/>
<polygon fill="black" stroke="black" points="538.68,-309.24 530.84,-302.12 532.53,-312.58 538.68,-309.24"/>
</g>
<!-- src/main/index.mjs&#45;&gt;src/main/format.mjs -->
<g id="edge12" class="edge">
<title>src/main/index.mjs&#45;&gt;src/main/format.mjs</title>
<path fill="none" stroke="black" d="M581.03,-338.71C607.73,-320 653.87,-287.11 692,-257 702.42,-248.77 713.58,-239.39 723.3,-231.03"/>
<polygon fill="black" stroke="black" points="725.35,-233.88 730.61,-224.69 720.76,-228.59 725.35,-233.88"/>
</g>
</g>
</svg>
