<?xml version="1.0" encoding="UTF-8" standalone="no"?>
<!DOCTYPE svg PUBLIC "-//W3C//DTD SVG 1.1//EN"
 "http://www.w3.org/Graphics/SVG/1.1/DTD/svg11.dtd">
<!-- Generated by graphviz version 8.0.5 (20230430.1635)
 -->
<!-- Title: dependency&#45;cruiser output Pages: 1 -->
<svg width="756pt" height="387pt"
 viewBox="0.00 0.00 756.00 386.50" xmlns="http://www.w3.org/2000/svg" xmlns:xlink="http://www.w3.org/1999/xlink">
<g id="graph0" class="graph" transform="scale(1 1) rotate(0) translate(4 382.5)">
<title>dependency&#45;cruiser output</title>
<polygon fill="white" stroke="none" points="-4,4 -4,-382.5 752,-382.5 752,4 -4,4"/>
<g id="clust1" class="cluster">
<title>cluster_src</title>
<polygon fill="none" stroke="black" points="8,-8 8,-370.5 740,-370.5 740,-8 8,-8"/>
<text text-anchor="middle" x="374" y="-353.2" font-family="Times,serif" font-size="14.00">src</text>
</g>
<g id="clust2" class="cluster">
<title>cluster_src/main</title>
<polygon fill="none" stroke="black" points="16,-16 16,-338 732,-338 732,-16 16,-16"/>
<text text-anchor="middle" x="374" y="-320.7" font-family="Times,serif" font-size="14.00">main</text>
</g>
<g id="clust3" class="cluster">
<title>cluster_src/main/files&#45;and&#45;dirs</title>
<polygon fill="none" stroke="black" points="24,-185 24,-261.5 154,-261.5 154,-185 24,-185"/>
<text text-anchor="middle" x="89" y="-244.2" font-family="Times,serif" font-size="14.00">files&#45;and&#45;dirs</text>
</g>
<g id="clust4" class="cluster">
<title>cluster_src/main/options</title>
<polygon fill="none" stroke="black" points="240,-24 240,-177 486,-177 486,-24 240,-24"/>
<text text-anchor="middle" x="363" y="-159.7" font-family="Times,serif" font-size="14.00">options</text>
</g>
<g id="clust5" class="cluster">
<title>cluster_src/main/resolve&#45;options</title>
<polygon fill="none" stroke="black" points="340,-185 340,-261.5 470,-261.5 470,-185 340,-185"/>
<text text-anchor="middle" x="405" y="-244.2" font-family="Times,serif" font-size="14.00">resolve&#45;options</text>
</g>
<g id="clust6" class="cluster">
<title>cluster_src/main/rule&#45;set</title>
<polygon fill="none" stroke="black" points="478,-185 478,-261.5 724,-261.5 724,-185 478,-185"/>
<text text-anchor="middle" x="601" y="-244.2" font-family="Times,serif" font-size="14.00">rule&#45;set</text>
</g>
<g id="clust7" class="cluster">
<title>cluster_src/main/utl</title>
<polygon fill="none" stroke="black" points="494,-24 494,-100.5 724,-100.5 724,-24 494,-24"/>
<text text-anchor="middle" x="609" y="-83.2" font-family="Times,serif" font-size="14.00">utl</text>
</g>
<!-- src/main/files&#45;and&#45;dirs/normalize.js -->
<g id="node1" class="node">
<title>src/main/files&#45;and&#45;dirs/normalize.js</title>
<g id="a_node1"><a xlink:href="src/main/files-and-dirs/normalize.js" xlink:title="normalize.js">
<ellipse fill="none" stroke="black" cx="89" cy="-211" rx="56.98" ry="18"/>
<text text-anchor="start" x="55.25" y="-205.95" font-family="Times,serif" font-size="14.00">normalize.js</text>
</a>
</g>
</g>
<!-- src/main/index.d.ts -->
<g id="node2" class="node">
<title>src/main/index.d.ts</title>
<g id="a_node2"><a xlink:href="src/main/index.d.ts" xlink:title="index.d.ts">
<ellipse fill="none" stroke="black" cx="555" cy="-287.5" rx="47.26" ry="18"/>
<text text-anchor="start" x="528.38" y="-282.45" font-family="Times,serif" font-size="14.00">index.d.ts</text>
</a>
</g>
</g>
<!-- src/main/index.js -->
<g id="node3" class="node">
<title>src/main/index.js</title>
<g id="a_node3"><a xlink:href="src/main/index.js" xlink:title="index.js">
<ellipse fill="none" stroke="black" cx="329" cy="-287.5" rx="40.09" ry="18"/>
<text text-anchor="start" x="307.62" y="-282.45" font-family="Times,serif" font-size="14.00">index.js</text>
</a>
</g>
</g>
<!-- src/main/index.js&#45;&gt;src/main/files&#45;and&#45;dirs/normalize.js -->
<g id="edge1" class="edge">
<title>src/main/index.js&#45;&gt;src/main/files&#45;and&#45;dirs/normalize.js</title>
<path fill="none" stroke="black" d="M288.59,-286.96C251.18,-286 194.74,-280.96 150,-261.5 136.18,-255.49 122.93,-245.45 112.33,-235.98"/>
<polygon fill="black" stroke="black" points="115.13,-233.87 105.44,-229.59 110.35,-238.98 115.13,-233.87"/>
</g>
<!-- src/main/options/normalize.js -->
<g id="node4" class="node">
<title>src/main/options/normalize.js</title>
<g id="a_node4"><a xlink:href="src/main/options/normalize.js" xlink:title="normalize.js">
<ellipse fill="none" stroke="black" cx="305" cy="-126.5" rx="56.98" ry="18"/>
<text text-anchor="start" x="271.25" y="-121.45" font-family="Times,serif" font-size="14.00">normalize.js</text>
</a>
</g>
</g>
<!-- src/main/index.js&#45;&gt;src/main/options/normalize.js -->
<g id="edge2" class="edge">
<title>src/main/index.js&#45;&gt;src/main/options/normalize.js</title>
<path fill="none" stroke="black" d="M325.43,-269.31C324.93,-266.7 324.43,-264.03 324,-261.5 317.77,-225.02 312.01,-182.71 308.51,-155.55"/>
<polygon fill="black" stroke="black" points="311.89,-155.37 307.15,-145.89 304.94,-156.26 311.89,-155.37"/>
</g>
<!-- src/main/options/validate.js -->
<g id="node5" class="node">
<title>src/main/options/validate.js</title>
<g id="a_node5"><a xlink:href="src/main/options/validate.js" xlink:title="validate.js">
<ellipse fill="none" stroke="black" cx="429" cy="-126.5" rx="48.79" ry="18"/>
<text text-anchor="start" x="401.25" y="-121.45" font-family="Times,serif" font-size="14.00">validate.js</text>
</a>
</g>
</g>
<!-- src/main/index.js&#45;&gt;src/main/options/validate.js -->
<g id="edge3" class="edge">
<title>src/main/index.js&#45;&gt;src/main/options/validate.js</title>
<path fill="none" stroke="black" d="M327.8,-269.02C326.42,-243.36 325.55,-197.22 336,-185 346.37,-172.87 356.74,-184.16 371,-177 383.94,-170.5 396.41,-160.52 406.45,-151.22"/>
<polygon fill="black" stroke="black" points="408.51,-154.12 413.27,-144.65 403.65,-149.09 408.51,-154.12"/>
</g>
<!-- src/main/report&#45;wrap.js -->
<g id="node6" class="node">
<title>src/main/report&#45;wrap.js</title>
<g id="a_node6"><a xlink:href="src/main/report-wrap.js" xlink:title="report&#45;wrap.js">
<ellipse fill="none" stroke="black" cx="227" cy="-211" rx="63.12" ry="18"/>
<text text-anchor="start" x="188.75" y="-205.95" font-family="Times,serif" font-size="14.00">report&#45;wrap.js</text>
</a>
</g>
</g>
<!-- src/main/index.js&#45;&gt;src/main/report&#45;wrap.js -->
<g id="edge4" class="edge">
<title>src/main/index.js&#45;&gt;src/main/report&#45;wrap.js</title>
<path fill="none" stroke="black" d="M308.85,-271.78C294.35,-261.19 274.52,-246.71 258.01,-234.65"/>
<polygon fill="black" stroke="black" points="260.37,-231.31 250.23,-228.24 256.25,-236.96 260.37,-231.31"/>
</g>
<!-- src/main/resolve&#45;options/normalize.js -->
<g id="node7" class="node">
<title>src/main/resolve&#45;options/normalize.js</title>
<g id="a_node7"><a xlink:href="src/main/resolve-options/normalize.js" xlink:title="normalize.js">
<ellipse fill="none" stroke="black" cx="405" cy="-211" rx="56.98" ry="18"/>
<text text-anchor="start" x="371.25" y="-205.95" font-family="Times,serif" font-size="14.00">normalize.js</text>
</a>
</g>
</g>
<!-- src/main/index.js&#45;&gt;src/main/resolve&#45;options/normalize.js -->
<g id="edge5" class="edge">
<title>src/main/index.js&#45;&gt;src/main/resolve&#45;options/normalize.js</title>
<path fill="none" stroke="black" d="M345.12,-270.7C355.38,-260.64 368.88,-247.4 380.47,-236.05"/>
<polygon fill="black" stroke="black" points="382.42,-239.05 387.12,-229.55 377.52,-234.05 382.42,-239.05"/>
</g>
<!-- src/main/rule&#45;set/normalize.js -->
<g id="node8" class="node">
<title>src/main/rule&#45;set/normalize.js</title>
<g id="a_node8"><a xlink:href="src/main/rule-set/normalize.js" xlink:title="normalize.js">
<ellipse fill="none" stroke="black" cx="659" cy="-211" rx="56.98" ry="18"/>
<text text-anchor="start" x="625.25" y="-205.95" font-family="Times,serif" font-size="14.00">normalize.js</text>
</a>
</g>
</g>
<!-- src/main/index.js&#45;&gt;src/main/rule&#45;set/normalize.js -->
<g id="edge6" class="edge">
<title>src/main/index.js&#45;&gt;src/main/rule&#45;set/normalize.js</title>
<path fill="none" stroke="black" d="M367.81,-282.45C402.25,-278.9 453.96,-273.67 499,-269.5 519.88,-267.57 573.41,-268.97 593,-261.5 608.04,-255.77 622.59,-245.53 634.18,-235.85"/>
<polygon fill="black" stroke="black" points="636.21,-237.85 641.43,-228.64 631.6,-232.58 636.21,-237.85"/>
</g>
<!-- src/main/rule&#45;set/validate.js -->
<g id="node9" class="node">
<title>src/main/rule&#45;set/validate.js</title>
<g id="a_node9"><a xlink:href="src/main/rule-set/validate.js" xlink:title="validate.js">
<ellipse fill="none" stroke="black" cx="535" cy="-211" rx="48.79" ry="18"/>
<text text-anchor="start" x="507.25" y="-205.95" font-family="Times,serif" font-size="14.00">validate.js</text>
</a>
</g>
</g>
<!-- src/main/index.js&#45;&gt;src/main/rule&#45;set/validate.js -->
<g id="edge7" class="edge">
<title>src/main/index.js&#45;&gt;src/main/rule&#45;set/validate.js</title>
<path fill="none" stroke="black" d="M369.06,-285.04C399.1,-282.68 440.62,-276.66 474,-261.5 487.72,-255.27 500.96,-245.2 511.57,-235.76"/>
<polygon fill="black" stroke="black" points="513.54,-238.79 518.49,-229.42 508.78,-233.66 513.54,-238.79"/>
</g>
<!-- src/main/options/defaults.js -->
<g id="node10" class="node">
<title>src/main/options/defaults.js</title>
<g id="a_node10"><a xlink:href="src/main/options/defaults.js" xlink:title="defaults.js">
<ellipse fill="none" stroke="black" cx="305" cy="-50" rx="48.79" ry="18"/>
<text text-anchor="start" x="277.25" y="-44.95" font-family="Times,serif" font-size="14.00">defaults.js</text>
</a>
</g>
</g>
<!-- src/main/options/normalize.js&#45;&gt;src/main/options/defaults.js -->
<g id="edge9" class="edge">
<title>src/main/options/normalize.js&#45;&gt;src/main/options/defaults.js</title>
<path fill="none" stroke="black" d="M305,-108.22C305,-99.63 305,-89.03 305,-79.3"/>
<polygon fill="black" stroke="black" points="308.5,-79.44 305,-69.44 301.5,-79.44 308.5,-79.44"/>
</g>
<!-- src/main/utl/normalize&#45;re&#45;properties.js -->
<g id="node11" class="node">
<title>src/main/utl/normalize&#45;re&#45;properties.js</title>
<g id="a_node11"><a xlink:href="src/main/utl/normalize-re-properties.js" xlink:title="normalize&#45;re&#45;properties.js">
<ellipse fill="none" stroke="black" cx="609" cy="-50" rx="107.14" ry="18"/>
<text text-anchor="start" x="538.5" y="-44.95" font-family="Times,serif" font-size="14.00">normalize&#45;re&#45;properties.js</text>
</a>
</g>
</g>
<!-- src/main/options/normalize.js&#45;&gt;src/main/utl/normalize&#45;re&#45;properties.js -->
<g id="edge8" class="edge">
<title>src/main/options/normalize.js&#45;&gt;src/main/utl/normalize&#45;re&#45;properties.js</title>
<path fill="none" stroke="black" d="M345.94,-113.7C354.18,-111.68 362.82,-109.82 371,-108.5 423.33,-100.08 438.4,-112.62 490,-100.5 516.64,-94.25 544.97,-82.67 567.31,-72.29"/>
<polygon fill="black" stroke="black" points="568.6,-75.08 576.13,-67.63 565.59,-68.76 568.6,-75.08"/>
</g>
<!-- src/main/rule&#45;set/normalize.js&#45;&gt;src/main/utl/normalize&#45;re&#45;properties.js -->
<g id="edge10" class="edge">
<title>src/main/rule&#45;set/normalize.js&#45;&gt;src/main/utl/normalize&#45;re&#45;properties.js</title>
<path fill="none" stroke="black" d="M653.55,-192.68C644.91,-165.2 627.99,-111.37 617.66,-78.55"/>
<polygon fill="black" stroke="black" points="620.78,-77.79 614.44,-69.3 614.1,-79.89 620.78,-77.79"/>
</g>
<!-- src/main/rule&#45;set/validate.js&#45;&gt;src/main/options/validate.js -->
<g id="edge11" class="edge">
<title>src/main/rule&#45;set/validate.js&#45;&gt;src/main/options/validate.js</title>
<path fill="none" stroke="black" d="M515.06,-194.48C498.88,-181.89 475.85,-163.96 457.68,-149.82"/>
<polygon fill="black" stroke="black" points="460.25,-146.61 450.21,-143.23 455.95,-152.13 460.25,-146.61"/>
</g>
<!-- src/main/rule&#45;set/validate.js&#45;&gt;src/main/utl/normalize&#45;re&#45;properties.js -->
<g id="edge12" class="edge">
<title>src/main/rule&#45;set/validate.js&#45;&gt;src/main/utl/normalize&#45;re&#45;properties.js</title>
<path fill="none" stroke="black" d="M542.92,-192.98C555.7,-165.51 581,-111.16 596.32,-78.25"/>
<polygon fill="black" stroke="black" points="599.87,-79.92 600.91,-69.38 593.52,-76.96 599.87,-79.92"/>
</g>
</g>
</svg>
