<?xml version="1.0" encoding="UTF-8" standalone="no"?>
<!DOCTYPE svg PUBLIC "-//W3C//DTD SVG 1.1//EN"
 "http://www.w3.org/Graphics/SVG/1.1/DTD/svg11.dtd">
<!-- Generated by graphviz version 2.42.3 (20191010.1750)
 -->
<!-- Title: dependency&#45;cruiser output Pages: 1 -->
<svg width="588pt" height="372pt"
 viewBox="0.00 0.00 588.00 372.00" xmlns="http://www.w3.org/2000/svg" xmlns:xlink="http://www.w3.org/1999/xlink">
<g id="graph0" class="graph" transform="scale(1 1) rotate(0) translate(4 368)">
<title>dependency&#45;cruiser output</title>
<polygon fill="white" stroke="transparent" points="-4,4 -4,-368 584,-368 584,4 -4,4"/>
<g id="clust1" class="cluster">
<title>cluster_src</title>
<polygon fill="none" stroke="black" points="8,-8 8,-356 572,-356 572,-8 8,-8"/>
<text text-anchor="middle" x="290" y="-340.8" font-family="Times,serif" font-size="14.00">src</text>
</g>
<g id="clust2" class="cluster">
<title>cluster_src/main</title>
<polygon fill="none" stroke="black" points="16,-16 16,-326 564,-326 564,-16 16,-16"/>
<text text-anchor="middle" x="290" y="-310.8" font-family="Times,serif" font-size="14.00">main</text>
</g>
<g id="clust3" class="cluster">
<title>cluster_src/main/files&#45;and&#45;dirs</title>
<polygon fill="none" stroke="black" points="24,-178 24,-252 148,-252 148,-178 24,-178"/>
<text text-anchor="middle" x="86" y="-236.8" font-family="Times,serif" font-size="14.00">files&#45;and&#45;dirs</text>
</g>
<g id="clust5" class="cluster">
<title>cluster_src/main/resolve&#45;options</title>
<polygon fill="none" stroke="black" points="190,-178 190,-252 314,-252 314,-178 190,-178"/>
<text text-anchor="middle" x="252" y="-236.8" font-family="Times,serif" font-size="14.00">resolve&#45;options</text>
</g>
<g id="clust6" class="cluster">
<title>cluster_src/main/rule&#45;set</title>
<polygon fill="none" stroke="black" points="322,-178 322,-252 556,-252 556,-178 322,-178"/>
<text text-anchor="middle" x="439" y="-236.8" font-family="Times,serif" font-size="14.00">rule&#45;set</text>
</g>
<g id="clust4" class="cluster">
<title>cluster_src/main/options</title>
<polygon fill="none" stroke="black" points="97,-24 97,-170 331,-170 331,-24 97,-24"/>
<text text-anchor="middle" x="214" y="-154.8" font-family="Times,serif" font-size="14.00">options</text>
</g>
<!-- src/main/files&#45;and&#45;dirs/normalize.js -->
<g id="node1" class="node">
<title>src/main/files&#45;and&#45;dirs/normalize.js</title>
<g id="a_node1"><a xlink:href="src/main/files-and-dirs/normalize.js" xlink:title="normalize.js">
<ellipse fill="none" stroke="black" cx="86" cy="-204" rx="53.65" ry="18"/>
<text text-anchor="middle" x="86" y="-199.8" font-family="Times,serif" font-size="14.00">normalize.js</text>
</a>
</g>
</g>
<!-- src/main/index.js -->
<g id="node2" class="node">
<title>src/main/index.js</title>
<g id="a_node2"><a xlink:href="src/main/index.js" xlink:title="index.js">
<ellipse fill="none" stroke="black" cx="215" cy="-278" rx="37.73" ry="18"/>
<text text-anchor="middle" x="215" y="-273.8" font-family="Times,serif" font-size="14.00">index.js</text>
</a>
</g>
</g>
<!-- src/main/index.js&#45;&gt;src/main/files&#45;and&#45;dirs/normalize.js -->
<g id="edge1" class="edge">
<title>src/main/index.js&#45;&gt;src/main/files&#45;and&#45;dirs/normalize.js</title>
<path fill="none" stroke="black" d="M182.89,-268.27C170.34,-264.21 156.09,-258.76 144,-252 132.33,-245.48 120.65,-236.58 110.87,-228.29"/>
<polygon fill="black" stroke="black" points="112.96,-225.47 103.13,-221.52 108.36,-230.74 112.96,-225.47"/>
</g>
<!-- src/main/options/normalize.js -->
<g id="node3" class="node">
<title>src/main/options/normalize.js</title>
<g id="a_node3"><a xlink:href="src/main/options/normalize.js" xlink:title="normalize.js">
<ellipse fill="none" stroke="black" cx="159" cy="-122" rx="53.65" ry="18"/>
<text text-anchor="middle" x="159" y="-117.8" font-family="Times,serif" font-size="14.00">normalize.js</text>
</a>
</g>
</g>
<!-- src/main/index.js&#45;&gt;src/main/options/normalize.js -->
<g id="edge2" class="edge">
<title>src/main/index.js&#45;&gt;src/main/options/normalize.js</title>
<path fill="none" stroke="black" d="M187.76,-265.22C182.42,-261.71 177.42,-257.34 174,-252 154.36,-221.32 153.53,-177.99 155.6,-150.19"/>
<polygon fill="black" stroke="black" points="159.1,-150.29 156.54,-140.01 152.13,-149.65 159.1,-150.29"/>
</g>
<!-- src/main/options/validate.js -->
<g id="node4" class="node">
<title>src/main/options/validate.js</title>
<g id="a_node4"><a xlink:href="src/main/options/validate.js" xlink:title="validate.js">
<ellipse fill="none" stroke="black" cx="277" cy="-122" rx="46.41" ry="18"/>
<text text-anchor="middle" x="277" y="-117.8" font-family="Times,serif" font-size="14.00">validate.js</text>
</a>
</g>
</g>
<!-- src/main/index.js&#45;&gt;src/main/options/validate.js -->
<g id="edge3" class="edge">
<title>src/main/index.js&#45;&gt;src/main/options/validate.js</title>
<path fill="none" stroke="black" d="M193.81,-262.72C190.64,-259.58 187.83,-255.99 186,-252 172.3,-222.1 165.42,-203.65 186,-178 196.26,-165.21 207.33,-177.32 222,-170 233.94,-164.04 245.44,-154.93 254.82,-146.31"/>
<polygon fill="black" stroke="black" points="257.36,-148.72 262.15,-139.27 252.51,-143.67 257.36,-148.72"/>
</g>
<!-- src/main/resolve&#45;options/normalize.js -->
<g id="node5" class="node">
<title>src/main/resolve&#45;options/normalize.js</title>
<g id="a_node5"><a xlink:href="src/main/resolve-options/normalize.js" xlink:title="normalize.js">
<ellipse fill="none" stroke="black" cx="252" cy="-204" rx="53.65" ry="18"/>
<text text-anchor="middle" x="252" y="-199.8" font-family="Times,serif" font-size="14.00">normalize.js</text>
</a>
</g>
</g>
<!-- src/main/index.js&#45;&gt;src/main/resolve&#45;options/normalize.js -->
<g id="edge4" class="edge">
<title>src/main/index.js&#45;&gt;src/main/resolve&#45;options/normalize.js</title>
<path fill="none" stroke="black" d="M223.58,-260.3C228.05,-251.61 233.61,-240.79 238.62,-231.04"/>
<polygon fill="black" stroke="black" points="241.75,-232.6 243.21,-222.11 235.52,-229.4 241.75,-232.6"/>
</g>
<!-- src/main/rule&#45;set/normalize.js -->
<g id="node6" class="node">
<title>src/main/rule&#45;set/normalize.js</title>
<g id="a_node6"><a xlink:href="src/main/rule-set/normalize.js" xlink:title="normalize.js">
<ellipse fill="none" stroke="black" cx="494" cy="-204" rx="53.65" ry="18"/>
<text text-anchor="middle" x="494" y="-199.8" font-family="Times,serif" font-size="14.00">normalize.js</text>
</a>
</g>
</g>
<!-- src/main/index.js&#45;&gt;src/main/rule&#45;set/normalize.js -->
<g id="edge5" class="edge">
<title>src/main/index.js&#45;&gt;src/main/rule&#45;set/normalize.js</title>
<path fill="none" stroke="black" d="M252.46,-275.01C305.46,-271.81 399.42,-264.54 431,-252 444.95,-246.46 458.54,-237.01 469.5,-228.03"/>
<polygon fill="black" stroke="black" points="472.02,-230.48 477.34,-221.32 467.46,-225.16 472.02,-230.48"/>
</g>
<!-- src/main/rule&#45;set/validate.js -->
<g id="node7" class="node">
<title>src/main/rule&#45;set/validate.js</title>
<g id="a_node7"><a xlink:href="src/main/rule-set/validate.js" xlink:title="validate.js">
<ellipse fill="none" stroke="black" cx="376" cy="-204" rx="46.41" ry="18"/>
<text text-anchor="middle" x="376" y="-199.8" font-family="Times,serif" font-size="14.00">validate.js</text>
</a>
</g>
</g>
<!-- src/main/index.js&#45;&gt;src/main/rule&#45;set/validate.js -->
<g id="edge6" class="edge">
<title>src/main/index.js&#45;&gt;src/main/rule&#45;set/validate.js</title>
<path fill="none" stroke="black" d="M251.15,-272.25C271.54,-268.6 297.06,-262.37 318,-252 330.47,-245.83 342.67,-236.57 352.65,-227.9"/>
<polygon fill="black" stroke="black" points="355.05,-230.45 360.13,-221.15 350.36,-225.25 355.05,-230.45"/>
</g>
<!-- src/main/options/defaults.json -->
<g id="node8" class="node">
<title>src/main/options/defaults.json</title>
<g id="a_node8"><a xlink:href="src/main/options/defaults.json" xlink:title="defaults.json">
<ellipse fill="none" stroke="black" cx="160" cy="-50" rx="55.11" ry="18"/>
<text text-anchor="middle" x="160" y="-45.8" font-family="Times,serif" font-size="14.00">defaults.json</text>
</a>
</g>
</g>
<!-- src/main/options/normalize.js&#45;&gt;src/main/options/defaults.json -->
<g id="edge7" class="edge">
<title>src/main/options/normalize.js&#45;&gt;src/main/options/defaults.json</title>
<path fill="none" stroke="black" d="M159.25,-103.7C159.36,-95.98 159.49,-86.71 159.61,-78.11"/>
<polygon fill="black" stroke="black" points="163.11,-78.15 159.76,-68.1 156.11,-78.05 163.11,-78.15"/>
</g>
<!-- src/main/rule&#45;set/validate.js&#45;&gt;src/main/options/validate.js -->
<g id="edge8" class="edge">
<title>src/main/rule&#45;set/validate.js&#45;&gt;src/main/options/validate.js</title>
<path fill="none" stroke="black" d="M356.91,-187.58C341.94,-175.48 320.92,-158.49 304.19,-144.97"/>
<polygon fill="black" stroke="black" points="306.35,-142.21 296.37,-138.65 301.95,-147.66 306.35,-142.21"/>
</g>
</g>
</svg>
