<?xml version="1.0" encoding="UTF-8" standalone="no"?>
<!DOCTYPE svg PUBLIC "-//W3C//DTD SVG 1.1//EN"
 "http://www.w3.org/Graphics/SVG/1.1/DTD/svg11.dtd">
<!-- Generated by graphviz version 2.47.3 (20210619.1520)
 -->
<!-- Title: dependency&#45;cruiser output Pages: 1 -->
<svg width="733pt" height="379pt"
 viewBox="0.00 0.00 733.00 379.00" xmlns="http://www.w3.org/2000/svg" xmlns:xlink="http://www.w3.org/1999/xlink">
<g id="graph0" class="graph" transform="scale(1 1) rotate(0) translate(4 375)">
<title>dependency&#45;cruiser output</title>
<polygon fill="white" stroke="transparent" points="-4,4 -4,-375 729,-375 729,4 -4,4"/>
<g id="clust1" class="cluster">
<title>cluster_src</title>
<polygon fill="none" stroke="black" points="8,-8 8,-363 717,-363 717,-8 8,-8"/>
<text text-anchor="middle" x="362.5" y="-347.8" font-family="Times,serif" font-size="14.00">src</text>
</g>
<g id="clust2" class="cluster">
<title>cluster_src/main</title>
<polygon fill="none" stroke="black" points="16,-16 16,-332 709,-332 709,-16 16,-16"/>
<text text-anchor="middle" x="362.5" y="-316.8" font-family="Times,serif" font-size="14.00">main</text>
</g>
<g id="clust4" class="cluster">
<title>cluster_src/main/options</title>
<polygon fill="none" stroke="black" points="127,-24 127,-174 364,-174 364,-24 127,-24"/>
<text text-anchor="middle" x="245.5" y="-158.8" font-family="Times,serif" font-size="14.00">options</text>
</g>
<g id="clust5" class="cluster">
<title>cluster_src/main/resolve&#45;options</title>
<polygon fill="none" stroke="black" points="330,-182 330,-257 456,-257 456,-182 330,-182"/>
<text text-anchor="middle" x="393" y="-241.8" font-family="Times,serif" font-size="14.00">resolve&#45;options</text>
</g>
<g id="clust6" class="cluster">
<title>cluster_src/main/rule&#45;set</title>
<polygon fill="none" stroke="black" points="464,-182 464,-257 701,-257 701,-182 464,-182"/>
<text text-anchor="middle" x="582.5" y="-241.8" font-family="Times,serif" font-size="14.00">rule&#45;set</text>
</g>
<g id="clust7" class="cluster">
<title>cluster_src/main/utl</title>
<polygon fill="none" stroke="black" points="440,-24 440,-99 662,-99 662,-24 440,-24"/>
<text text-anchor="middle" x="551" y="-83.8" font-family="Times,serif" font-size="14.00">utl</text>
</g>
<g id="clust3" class="cluster">
<title>cluster_src/main/files&#45;and&#45;dirs</title>
<polygon fill="none" stroke="black" points="24,-182 24,-257 150,-257 150,-182 24,-182"/>
<text text-anchor="middle" x="87" y="-241.8" font-family="Times,serif" font-size="14.00">files&#45;and&#45;dirs</text>
</g>
<!-- src/main/files&#45;and&#45;dirs/normalize.js -->
<g id="node1" class="node">
<title>src/main/files&#45;and&#45;dirs/normalize.js</title>
<g id="a_node1"><a xlink:href="src/main/files-and-dirs/normalize.js" xlink:title="normalize.js">
<ellipse fill="none" stroke="black" cx="87" cy="-208" rx="54.69" ry="18"/>
<text text-anchor="middle" x="87" y="-204.3" font-family="Times,serif" font-size="14.00">normalize.js</text>
</a>
</g>
</g>
<!-- src/main/index.js -->
<g id="node2" class="node">
<title>src/main/index.js</title>
<g id="a_node2"><a xlink:href="src/main/index.js" xlink:title="index.js">
<ellipse fill="none" stroke="black" cx="260" cy="-283" rx="38.19" ry="18"/>
<text text-anchor="middle" x="260" y="-279.3" font-family="Times,serif" font-size="14.00">index.js</text>
</a>
</g>
</g>
<!-- src/main/index.js&#45;&gt;src/main/files&#45;and&#45;dirs/normalize.js -->
<g id="edge1" class="edge">
<title>src/main/index.js&#45;&gt;src/main/files&#45;and&#45;dirs/normalize.js</title>
<path fill="none" stroke="black" d="M222.89,-278.3C199.87,-274.95 170.18,-268.66 146,-257 133.24,-250.84 120.81,-241.41 110.67,-232.54"/>
<polygon fill="black" stroke="black" points="112.82,-229.76 103.08,-225.61 108.11,-234.93 112.82,-229.76"/>
</g>
<!-- src/main/options/normalize.js -->
<g id="node3" class="node">
<title>src/main/options/normalize.js</title>
<g id="a_node3"><a xlink:href="src/main/options/normalize.js" xlink:title="normalize.js">
<ellipse fill="none" stroke="black" cx="190" cy="-125" rx="54.69" ry="18"/>
<text text-anchor="middle" x="190" y="-121.3" font-family="Times,serif" font-size="14.00">normalize.js</text>
</a>
</g>
</g>
<!-- src/main/index.js&#45;&gt;src/main/options/normalize.js -->
<g id="edge2" class="edge">
<title>src/main/index.js&#45;&gt;src/main/options/normalize.js</title>
<path fill="none" stroke="black" d="M221.64,-281.39C203.25,-278.91 182.73,-272.48 171,-257 148.03,-226.69 162.7,-180.82 175.94,-152.18"/>
<polygon fill="black" stroke="black" points="179.27,-153.34 180.5,-142.82 172.97,-150.28 179.27,-153.34"/>
</g>
<!-- src/main/options/validate.js -->
<g id="node4" class="node">
<title>src/main/options/validate.js</title>
<g id="a_node4"><a xlink:href="src/main/options/validate.js" xlink:title="validate.js">
<ellipse fill="none" stroke="black" cx="309" cy="-125" rx="46.59" ry="18"/>
<text text-anchor="middle" x="309" y="-121.3" font-family="Times,serif" font-size="14.00">validate.js</text>
</a>
</g>
</g>
<!-- src/main/index.js&#45;&gt;src/main/options/validate.js -->
<g id="edge3" class="edge">
<title>src/main/index.js&#45;&gt;src/main/options/validate.js</title>
<path fill="none" stroke="black" d="M223.23,-277.3C210.93,-273.77 198.46,-267.64 191,-257 171.86,-229.71 168.96,-207.01 191,-182 200.33,-171.41 241.13,-179.78 254,-174 266.47,-168.4 278.19,-159.01 287.58,-150.01"/>
<polygon fill="black" stroke="black" points="290.34,-152.2 294.89,-142.63 285.36,-147.27 290.34,-152.2"/>
</g>
<!-- src/main/report&#45;wrap.js -->
<g id="node5" class="node">
<title>src/main/report&#45;wrap.js</title>
<g id="a_node5"><a xlink:href="src/main/report-wrap.js" xlink:title="report&#45;wrap.js">
<ellipse fill="none" stroke="black" cx="260" cy="-208" rx="60.39" ry="18"/>
<text text-anchor="middle" x="260" y="-204.3" font-family="Times,serif" font-size="14.00">report&#45;wrap.js</text>
</a>
</g>
</g>
<!-- src/main/index.js&#45;&gt;src/main/report&#45;wrap.js -->
<g id="edge4" class="edge">
<title>src/main/index.js&#45;&gt;src/main/report&#45;wrap.js</title>
<path fill="none" stroke="black" d="M260,-264.7C260,-256.25 260,-245.87 260,-236.37"/>
<polygon fill="black" stroke="black" points="263.5,-236.18 260,-226.18 256.5,-236.18 263.5,-236.18"/>
</g>
<!-- src/main/resolve&#45;options/normalize.js -->
<g id="node6" class="node">
<title>src/main/resolve&#45;options/normalize.js</title>
<g id="a_node6"><a xlink:href="src/main/resolve-options/normalize.js" xlink:title="normalize.js">
<ellipse fill="none" stroke="black" cx="393" cy="-208" rx="54.69" ry="18"/>
<text text-anchor="middle" x="393" y="-204.3" font-family="Times,serif" font-size="14.00">normalize.js</text>
</a>
</g>
</g>
<!-- src/main/index.js&#45;&gt;src/main/resolve&#45;options/normalize.js -->
<g id="edge5" class="edge">
<title>src/main/index.js&#45;&gt;src/main/resolve&#45;options/normalize.js</title>
<path fill="none" stroke="black" d="M293.11,-273.58C306.29,-269.53 321.3,-264.01 334,-257 346.31,-250.2 358.6,-240.75 368.74,-232.03"/>
<polygon fill="black" stroke="black" points="371.22,-234.51 376.38,-225.26 366.57,-229.28 371.22,-234.51"/>
</g>
<!-- src/main/rule&#45;set/normalize.js -->
<g id="node7" class="node">
<title>src/main/rule&#45;set/normalize.js</title>
<g id="a_node7"><a xlink:href="src/main/rule-set/normalize.js" xlink:title="normalize.js">
<ellipse fill="none" stroke="black" cx="638" cy="-208" rx="54.69" ry="18"/>
<text text-anchor="middle" x="638" y="-204.3" font-family="Times,serif" font-size="14.00">normalize.js</text>
</a>
</g>
</g>
<!-- src/main/index.js&#45;&gt;src/main/rule&#45;set/normalize.js -->
<g id="edge6" class="edge">
<title>src/main/index.js&#45;&gt;src/main/rule&#45;set/normalize.js</title>
<path fill="none" stroke="black" d="M298.29,-281.65C370.83,-280.54 525.42,-275.95 575,-257 589.47,-251.47 603.4,-241.51 614.47,-232.09"/>
<polygon fill="black" stroke="black" points="616.85,-234.66 621.99,-225.4 612.2,-229.43 616.85,-234.66"/>
</g>
<!-- src/main/rule&#45;set/validate.js -->
<g id="node8" class="node">
<title>src/main/rule&#45;set/validate.js</title>
<g id="a_node8"><a xlink:href="src/main/rule-set/validate.js" xlink:title="validate.js">
<ellipse fill="none" stroke="black" cx="519" cy="-208" rx="46.59" ry="18"/>
<text text-anchor="middle" x="519" y="-204.3" font-family="Times,serif" font-size="14.00">validate.js</text>
</a>
</g>
</g>
<!-- src/main/index.js&#45;&gt;src/main/rule&#45;set/validate.js -->
<g id="edge7" class="edge">
<title>src/main/index.js&#45;&gt;src/main/rule&#45;set/validate.js</title>
<path fill="none" stroke="black" d="M298.09,-279.75C347.77,-276.38 431.68,-269.1 460,-257 473.55,-251.21 486.49,-241.35 496.79,-232.07"/>
<polygon fill="black" stroke="black" points="499.24,-234.57 504.11,-225.16 494.43,-229.48 499.24,-234.57"/>
</g>
<!-- src/main/options/defaults.json -->
<g id="node9" class="node">
<title>src/main/options/defaults.json</title>
<g id="a_node9"><a xlink:href="src/main/options/defaults.json" xlink:title="defaults.json">
<ellipse fill="none" stroke="black" cx="191" cy="-50" rx="55.79" ry="18"/>
<text text-anchor="middle" x="191" y="-46.3" font-family="Times,serif" font-size="14.00">defaults.json</text>
</a>
</g>
</g>
<!-- src/main/options/normalize.js&#45;&gt;src/main/options/defaults.json -->
<g id="edge9" class="edge">
<title>src/main/options/normalize.js&#45;&gt;src/main/options/defaults.json</title>
<path fill="none" stroke="black" d="M190.24,-106.7C190.35,-98.25 190.49,-87.87 190.63,-78.37"/>
<polygon fill="black" stroke="black" points="194.13,-78.22 190.76,-68.18 187.13,-78.13 194.13,-78.22"/>
</g>
<!-- src/main/utl/normalize&#45;re&#45;properties.js -->
<g id="node10" class="node">
<title>src/main/utl/normalize&#45;re&#45;properties.js</title>
<g id="a_node10"><a xlink:href="src/main/utl/normalize-re-properties.js" xlink:title="normalize&#45;re&#45;properties.js">
<ellipse fill="none" stroke="black" cx="551" cy="-50" rx="102.88" ry="18"/>
<text text-anchor="middle" x="551" y="-46.3" font-family="Times,serif" font-size="14.00">normalize&#45;re&#45;properties.js</text>
</a>
</g>
</g>
<!-- src/main/options/normalize.js&#45;&gt;src/main/utl/normalize&#45;re&#45;properties.js -->
<g id="edge8" class="edge">
<title>src/main/options/normalize.js&#45;&gt;src/main/utl/normalize&#45;re&#45;properties.js</title>
<path fill="none" stroke="black" d="M228.72,-112.29C236.69,-110.23 245.07,-108.33 253,-107 303.53,-98.51 317.44,-107.31 368,-99 410.81,-91.96 458.16,-79.41 493.97,-68.9"/>
<polygon fill="black" stroke="black" points="495.16,-72.2 503.75,-66 493.16,-65.49 495.16,-72.2"/>
</g>
<!-- src/main/rule&#45;set/normalize.js&#45;&gt;src/main/utl/normalize&#45;re&#45;properties.js -->
<g id="edge10" class="edge">
<title>src/main/rule&#45;set/normalize.js&#45;&gt;src/main/utl/normalize&#45;re&#45;properties.js</title>
<path fill="none" stroke="black" d="M628.52,-190.01C613.29,-162.7 583.26,-108.85 565.38,-76.78"/>
<polygon fill="black" stroke="black" points="568.39,-75 560.46,-67.97 562.28,-78.41 568.39,-75"/>
</g>
<!-- src/main/rule&#45;set/validate.js&#45;&gt;src/main/options/validate.js -->
<g id="edge11" class="edge">
<title>src/main/rule&#45;set/validate.js&#45;&gt;src/main/options/validate.js</title>
<path fill="none" stroke="black" d="M489.09,-194.02C479.81,-190.07 469.51,-185.78 460,-182 423.65,-167.57 381.95,-152.19 351.59,-141.21"/>
<polygon fill="black" stroke="black" points="352.75,-137.91 342.16,-137.8 350.38,-144.49 352.75,-137.91"/>
</g>
</g>
</svg>
