<?xml version="1.0" encoding="UTF-8" standalone="no"?>
<!DOCTYPE svg PUBLIC "-//W3C//DTD SVG 1.1//EN"
 "http://www.w3.org/Graphics/SVG/1.1/DTD/svg11.dtd">
<!-- Generated by graphviz version 8.0.1 (20230327.1645)
 -->
<!-- Title: dependency&#45;cruiser output Pages: 1 -->
<svg width="782pt" height="448pt"
 viewBox="0.00 0.00 782.00 448.00" xmlns="http://www.w3.org/2000/svg" xmlns:xlink="http://www.w3.org/1999/xlink">
<g id="graph0" class="graph" transform="scale(1 1) rotate(0) translate(4 444)">
<title>dependency&#45;cruiser output</title>
<polygon fill="white" stroke="none" points="-4,4 -4,-444 778,-444 778,4 -4,4"/>
<g id="clust1" class="cluster">
<title>cluster_src</title>
<polygon fill="none" stroke="black" points="8,-8 8,-432 766,-432 766,-8 8,-8"/>
<text text-anchor="middle" x="387" y="-416.8" font-family="Times,serif" font-size="14.00">src</text>
</g>
<g id="clust2" class="cluster">
<title>cluster_src/main</title>
<polygon fill="none" stroke="black" points="16,-16 16,-401 758,-401 758,-16 16,-16"/>
<text text-anchor="middle" x="387" y="-385.8" font-family="Times,serif" font-size="14.00">main</text>
</g>
<g id="clust3" class="cluster">
<title>cluster_src/main/files&#45;and&#45;dirs</title>
<polygon fill="none" stroke="black" points="298,-179 298,-254 438,-254 438,-179 298,-179"/>
<text text-anchor="middle" x="368" y="-238.8" font-family="Times,serif" font-size="14.00">files&#45;and&#45;dirs</text>
</g>
<g id="clust4" class="cluster">
<title>cluster_src/main/options</title>
<polygon fill="none" stroke="black" points="312,-24 312,-171 578,-171 578,-24 312,-24"/>
<text text-anchor="middle" x="445" y="-155.8" font-family="Times,serif" font-size="14.00">options</text>
</g>
<g id="clust5" class="cluster">
<title>cluster_src/main/resolve&#45;options</title>
<polygon fill="none" stroke="black" points="480,-179 480,-254 620,-254 620,-179 480,-179"/>
<text text-anchor="middle" x="550" y="-238.8" font-family="Times,serif" font-size="14.00">resolve&#45;options</text>
</g>
<g id="clust6" class="cluster">
<title>cluster_src/main/rule&#45;set</title>
<polygon fill="none" stroke="black" points="24,-179 24,-254 290,-254 290,-179 24,-179"/>
<text text-anchor="middle" x="157" y="-238.8" font-family="Times,serif" font-size="14.00">rule&#45;set</text>
</g>
<!-- src/main/cruise.mjs -->
<g id="node1" class="node">
<title>src/main/cruise.mjs</title>
<g id="a_node1"><a xlink:href="src/main/cruise.mjs" xlink:title="cruise.mjs">
<ellipse fill="none" stroke="black" cx="459" cy="-280" rx="47.39" ry="18"/>
<text text-anchor="start" x="430.5" y="-276.3" font-family="Times,serif" font-size="14.00">cruise.mjs</text>
</a>
</g>
</g>
<!-- src/main/files&#45;and&#45;dirs/normalize.mjs -->
<g id="node2" class="node">
<title>src/main/files&#45;and&#45;dirs/normalize.mjs</title>
<g id="a_node2"><a xlink:href="src/main/files-and-dirs/normalize.mjs" xlink:title="normalize.mjs">
<ellipse fill="none" stroke="black" cx="368" cy="-205" rx="61.99" ry="18"/>
<text text-anchor="start" x="328.5" y="-201.3" font-family="Times,serif" font-size="14.00">normalize.mjs</text>
</a>
</g>
</g>
<!-- src/main/cruise.mjs&#45;&gt;src/main/files&#45;and&#45;dirs/normalize.mjs -->
<g id="edge1" class="edge">
<title>src/main/cruise.mjs&#45;&gt;src/main/files&#45;and&#45;dirs/normalize.mjs</title>
<path fill="none" stroke="black" d="M439.25,-263.16C426.79,-253.16 410.47,-240.07 396.6,-228.94"/>
<polygon fill="black" stroke="black" points="399.33,-225.84 389.34,-222.31 394.95,-231.3 399.33,-225.84"/>
</g>
<!-- src/main/options/normalize.mjs -->
<g id="node3" class="node">
<title>src/main/options/normalize.mjs</title>
<g id="a_node3"><a xlink:href="src/main/options/normalize.mjs" xlink:title="normalize.mjs">
<ellipse fill="none" stroke="black" cx="508" cy="-122" rx="61.99" ry="18"/>
<text text-anchor="start" x="468.5" y="-118.3" font-family="Times,serif" font-size="14.00">normalize.mjs</text>
</a>
</g>
</g>
<!-- src/main/cruise.mjs&#45;&gt;src/main/options/normalize.mjs -->
<g id="edge2" class="edge">
<title>src/main/cruise.mjs&#45;&gt;src/main/options/normalize.mjs</title>
<path fill="none" stroke="black" d="M460.11,-261.55C461.82,-241.22 466.03,-206.85 476,-179 479.66,-168.78 485.13,-158.27 490.53,-149.16"/>
<polygon fill="black" stroke="black" points="493.97,-151.24 496.26,-140.89 488.02,-147.56 493.97,-151.24"/>
</g>
<!-- src/main/options/validate.mjs -->
<g id="node4" class="node">
<title>src/main/options/validate.mjs</title>
<g id="a_node4"><a xlink:href="src/main/options/validate.mjs" xlink:title="validate.mjs">
<ellipse fill="none" stroke="black" cx="374" cy="-122" rx="53.89" ry="18"/>
<text text-anchor="start" x="340.5" y="-118.3" font-family="Times,serif" font-size="14.00">validate.mjs</text>
</a>
</g>
</g>
<!-- src/main/cruise.mjs&#45;&gt;src/main/options/validate.mjs -->
<g id="edge3" class="edge">
<title>src/main/cruise.mjs&#45;&gt;src/main/options/validate.mjs</title>
<path fill="none" stroke="black" d="M456.74,-261.82C453.14,-235.13 446.08,-186.05 442,-179 434.04,-165.26 421.36,-153.46 409.09,-144.28"/>
<polygon fill="black" stroke="black" points="411.49,-140.98 401.3,-138.07 407.45,-146.7 411.49,-140.98"/>
</g>
<!-- src/main/report&#45;wrap.mjs -->
<g id="node5" class="node">
<title>src/main/report&#45;wrap.mjs</title>
<g id="a_node5"><a xlink:href="src/main/report-wrap.mjs" xlink:title="report&#45;wrap.mjs">
<ellipse fill="none" stroke="black" cx="681" cy="-122" rx="67.69" ry="18"/>
<text text-anchor="start" x="637" y="-118.3" font-family="Times,serif" font-size="14.00">report&#45;wrap.mjs</text>
</a>
</g>
</g>
<!-- src/main/cruise.mjs&#45;&gt;src/main/report&#45;wrap.mjs -->
<g id="edge4" class="edge">
<title>src/main/cruise.mjs&#45;&gt;src/main/report&#45;wrap.mjs</title>
<path fill="none" stroke="black" d="M506.61,-278.18C582.43,-276.37 723.66,-270.77 739,-254 761.5,-229.4 752.03,-209.68 739,-179 733.62,-166.32 723.8,-155.11 713.75,-146.11"/>
<polygon fill="black" stroke="black" points="716.27,-142.82 706.35,-139.1 711.78,-148.19 716.27,-142.82"/>
</g>
<!-- src/main/resolve&#45;options/normalize.mjs -->
<g id="node6" class="node">
<title>src/main/resolve&#45;options/normalize.mjs</title>
<g id="a_node6"><a xlink:href="src/main/resolve-options/normalize.mjs" xlink:title="normalize.mjs">
<ellipse fill="none" stroke="black" cx="550" cy="-205" rx="61.99" ry="18"/>
<text text-anchor="start" x="510.5" y="-201.3" font-family="Times,serif" font-size="14.00">normalize.mjs</text>
</a>
</g>
</g>
<!-- src/main/cruise.mjs&#45;&gt;src/main/resolve&#45;options/normalize.mjs -->
<g id="edge5" class="edge">
<title>src/main/cruise.mjs&#45;&gt;src/main/resolve&#45;options/normalize.mjs</title>
<path fill="none" stroke="black" d="M478.75,-263.16C491.21,-253.16 507.53,-240.07 521.4,-228.94"/>
<polygon fill="black" stroke="black" points="523.05,-231.3 528.66,-222.31 518.67,-225.84 523.05,-231.3"/>
</g>
<!-- src/main/rule&#45;set/normalize.mjs -->
<g id="node7" class="node">
<title>src/main/rule&#45;set/normalize.mjs</title>
<g id="a_node7"><a xlink:href="src/main/rule-set/normalize.mjs" xlink:title="normalize.mjs">
<ellipse fill="none" stroke="black" cx="94" cy="-205" rx="61.99" ry="18"/>
<text text-anchor="start" x="54.5" y="-201.3" font-family="Times,serif" font-size="14.00">normalize.mjs</text>
</a>
</g>
</g>
<!-- src/main/cruise.mjs&#45;&gt;src/main/rule&#45;set/normalize.mjs -->
<g id="edge6" class="edge">
<title>src/main/cruise.mjs&#45;&gt;src/main/rule&#45;set/normalize.mjs</title>
<path fill="none" stroke="black" d="M411.7,-277.87C340.44,-275.68 209.19,-269.62 165,-254 149.31,-248.46 133.77,-238.59 121.26,-229.24"/>
<polygon fill="black" stroke="black" points="123.76,-225.98 113.72,-222.6 119.46,-231.5 123.76,-225.98"/>
</g>
<!-- src/main/rule&#45;set/validate.mjs -->
<g id="node8" class="node">
<title>src/main/rule&#45;set/validate.mjs</title>
<g id="a_node8"><a xlink:href="src/main/rule-set/validate.mjs" xlink:title="validate.mjs">
<ellipse fill="none" stroke="black" cx="228" cy="-205" rx="53.89" ry="18"/>
<text text-anchor="start" x="194.5" y="-201.3" font-family="Times,serif" font-size="14.00">validate.mjs</text>
</a>
</g>
</g>
<!-- src/main/cruise.mjs&#45;&gt;src/main/rule&#45;set/validate.mjs -->
<g id="edge7" class="edge">
<title>src/main/cruise.mjs&#45;&gt;src/main/rule&#45;set/validate.mjs</title>
<path fill="none" stroke="black" d="M411.54,-277.77C377.68,-275.48 331.66,-269.46 294,-254 279.59,-248.08 265.38,-238.39 253.86,-229.26"/>
<polygon fill="black" stroke="black" points="256.55,-226.12 246.61,-222.46 252.1,-231.52 256.55,-226.12"/>
</g>
<!-- src/main/helpers.mjs -->
<g id="node10" class="node">
<title>src/main/helpers.mjs</title>
<g id="a_node10"><a xlink:href="src/main/helpers.mjs" xlink:title="helpers.mjs">
<ellipse fill="none" stroke="black" cx="228" cy="-50" rx="51.99" ry="18"/>
<text text-anchor="start" x="196" y="-46.3" font-family="Times,serif" font-size="14.00">helpers.mjs</text>
</a>
</g>
</g>
<!-- src/main/options/normalize.mjs&#45;&gt;src/main/helpers.mjs -->
<g id="edge13" class="edge">
<title>src/main/options/normalize.mjs&#45;&gt;src/main/helpers.mjs</title>
<path fill="none" stroke="black" d="M462.08,-109.52C412,-97 332.04,-77.01 279.77,-63.94"/>
<polygon fill="black" stroke="black" points="280.93,-60.37 270.38,-61.35 279.23,-67.17 280.93,-60.37"/>
</g>
<!-- src/main/options/defaults.mjs -->
<g id="node13" class="node">
<title>src/main/options/defaults.mjs</title>
<g id="a_node13"><a xlink:href="src/main/options/defaults.mjs" xlink:title="defaults.mjs">
<ellipse fill="none" stroke="black" cx="508" cy="-50" rx="53.89" ry="18"/>
<text text-anchor="start" x="474.5" y="-46.3" font-family="Times,serif" font-size="14.00">defaults.mjs</text>
</a>
</g>
</g>
<!-- src/main/options/normalize.mjs&#45;&gt;src/main/options/defaults.mjs -->
<g id="edge14" class="edge">
<title>src/main/options/normalize.mjs&#45;&gt;src/main/options/defaults.mjs</title>
<path fill="none" stroke="black" d="M508,-103.7C508,-96.24 508,-87.32 508,-78.97"/>
<polygon fill="black" stroke="black" points="511.5,-79.1 508,-69.1 504.5,-79.1 511.5,-79.1"/>
</g>
<!-- src/main/rule&#45;set/normalize.mjs&#45;&gt;src/main/helpers.mjs -->
<g id="edge15" class="edge">
<title>src/main/rule&#45;set/normalize.mjs&#45;&gt;src/main/helpers.mjs</title>
<path fill="none" stroke="black" d="M108.85,-187.04C132.52,-160.02 178.91,-107.05 206.3,-75.78"/>
<polygon fill="black" stroke="black" points="209.53,-78.4 213.49,-68.57 204.27,-73.79 209.53,-78.4"/>
</g>
<!-- src/main/rule&#45;set/validate.mjs&#45;&gt;src/main/options/validate.mjs -->
<g id="edge17" class="edge">
<title>src/main/rule&#45;set/validate.mjs&#45;&gt;src/main/options/validate.mjs</title>
<path fill="none" stroke="black" d="M262.56,-190.81C272.68,-186.97 283.78,-182.79 294,-179 303.75,-175.38 306.97,-176.17 316,-171 327.76,-164.27 339.5,-155.12 349.31,-146.62"/>
<polygon fill="black" stroke="black" points="351.28,-149.66 356.39,-140.38 346.61,-144.44 351.28,-149.66"/>
</g>
<!-- src/main/rule&#45;set/validate.mjs&#45;&gt;src/main/helpers.mjs -->
<g id="edge16" class="edge">
<title>src/main/rule&#45;set/validate.mjs&#45;&gt;src/main/helpers.mjs</title>
<path fill="none" stroke="black" d="M228,-186.75C228,-160.58 228,-110.57 228,-79.1"/>
<polygon fill="black" stroke="black" points="231.5,-79.43 228,-69.43 224.5,-79.43 231.5,-79.43"/>
</g>
<!-- src/main/format.mjs -->
<g id="node9" class="node">
<title>src/main/format.mjs</title>
<g id="a_node9"><a xlink:href="src/main/format.mjs" xlink:title="format.mjs">
<ellipse fill="none" stroke="black" cx="680" cy="-205" rx="50.09" ry="18"/>
<text text-anchor="start" x="649.5" y="-201.3" font-family="Times,serif" font-size="14.00">format.mjs</text>
</a>
</g>
</g>
<!-- src/main/format.mjs&#45;&gt;src/main/options/normalize.mjs -->
<g id="edge8" class="edge">
<title>src/main/format.mjs&#45;&gt;src/main/options/normalize.mjs</title>
<path fill="none" stroke="black" d="M651.77,-189.68C643.05,-185.72 633.29,-181.76 624,-179 602.43,-172.58 594.78,-179.63 574,-171 559.72,-165.07 545.61,-155.46 534.13,-146.4"/>
<polygon fill="black" stroke="black" points="536.85,-143.29 526.91,-139.65 532.41,-148.7 536.85,-143.29"/>
</g>
<!-- src/main/format.mjs&#45;&gt;src/main/options/validate.mjs -->
<g id="edge9" class="edge">
<title>src/main/format.mjs&#45;&gt;src/main/options/validate.mjs</title>
<path fill="none" stroke="black" d="M653.09,-189.52C644.1,-185.36 633.85,-181.32 624,-179 583.51,-169.46 476.12,-185.14 437,-171 422.72,-165.84 409.03,-156.19 398.08,-146.89"/>
<polygon fill="black" stroke="black" points="400.72,-144.66 390.93,-140.6 396.05,-149.88 400.72,-144.66"/>
</g>
<!-- src/main/format.mjs&#45;&gt;src/main/report&#45;wrap.mjs -->
<g id="edge10" class="edge">
<title>src/main/format.mjs&#45;&gt;src/main/report&#45;wrap.mjs</title>
<path fill="none" stroke="black" d="M680.21,-186.82C680.34,-176.48 680.51,-163.05 680.65,-151.18"/>
<polygon fill="black" stroke="black" points="684.16,-151.47 680.78,-141.43 677.16,-151.39 684.16,-151.47"/>
</g>
<!-- src/main/index.d.ts -->
<g id="node11" class="node">
<title>src/main/index.d.ts</title>
<g id="a_node11"><a xlink:href="src/main/index.d.ts" xlink:title="index.d.ts">
<ellipse fill="none" stroke="black" cx="678" cy="-352" rx="45.49" ry="18"/>
<text text-anchor="start" x="651" y="-348.3" font-family="Times,serif" font-size="14.00">index.d.ts</text>
</a>
</g>
</g>
<!-- src/main/index.mjs -->
<g id="node12" class="node">
<title>src/main/index.mjs</title>
<g id="a_node12"><a xlink:href="src/main/index.mjs" xlink:title="index.mjs">
<ellipse fill="none" stroke="black" cx="495" cy="-352" rx="46.29" ry="18"/>
<text text-anchor="start" x="467.5" y="-348.3" font-family="Times,serif" font-size="14.00">index.mjs</text>
</a>
</g>
</g>
<!-- src/main/index.mjs&#45;&gt;src/main/cruise.mjs -->
<g id="edge11" class="edge">
<title>src/main/index.mjs&#45;&gt;src/main/cruise.mjs</title>
<path fill="none" stroke="black" d="M486.29,-334.05C482.17,-326.06 477.17,-316.33 472.58,-307.4"/>
<polygon fill="black" stroke="black" points="475.32,-306.08 467.63,-298.79 469.1,-309.28 475.32,-306.08"/>
</g>
<!-- src/main/index.mjs&#45;&gt;src/main/format.mjs -->
<g id="edge12" class="edge">
<title>src/main/index.mjs&#45;&gt;src/main/format.mjs</title>
<path fill="none" stroke="black" d="M516.32,-335.61C542.16,-316.82 586.86,-283.83 624,-254 633.94,-246.02 644.61,-236.99 653.95,-228.93"/>
<polygon fill="black" stroke="black" points="655.83,-231.06 661.09,-221.86 651.24,-225.78 655.83,-231.06"/>
</g>
</g>
</svg>
