<?xml version="1.0" encoding="UTF-8" standalone="no"?>
<!DOCTYPE svg PUBLIC "-//W3C//DTD SVG 1.1//EN"
 "http://www.w3.org/Graphics/SVG/1.1/DTD/svg11.dtd">
<!-- Generated by graphviz version 8.0.1 (20230327.1645)
 -->
<!-- Title: dependency&#45;cruiser output Pages: 1 -->
<svg width="805pt" height="376pt"
 viewBox="0.00 0.00 805.00 376.00" xmlns="http://www.w3.org/2000/svg" xmlns:xlink="http://www.w3.org/1999/xlink">
<g id="graph0" class="graph" transform="scale(1 1) rotate(0) translate(4 372)">
<title>dependency&#45;cruiser output</title>
<polygon fill="white" stroke="none" points="-4,4 -4,-372 801,-372 801,4 -4,4"/>
<g id="clust1" class="cluster">
<title>cluster_src</title>
<polygon fill="none" stroke="black" points="8,-8 8,-360 789,-360 789,-8 8,-8"/>
<text text-anchor="middle" x="398.5" y="-344.8" font-family="Times,serif" font-size="14.00">src</text>
</g>
<g id="clust2" class="cluster">
<title>cluster_src/main</title>
<polygon fill="none" stroke="black" points="16,-16 16,-329 781,-329 781,-16 16,-16"/>
<text text-anchor="middle" x="398.5" y="-313.8" font-family="Times,serif" font-size="14.00">main</text>
</g>
<g id="clust4" class="cluster">
<title>cluster_src/main/options</title>
<polygon fill="none" stroke="black" points="258,-24 258,-171 524,-171 524,-24 258,-24"/>
<text text-anchor="middle" x="391" y="-155.8" font-family="Times,serif" font-size="14.00">options</text>
</g>
<g id="clust5" class="cluster">
<title>cluster_src/main/resolve&#45;options</title>
<polygon fill="none" stroke="black" points="359,-179 359,-254 499,-254 499,-179 359,-179"/>
<text text-anchor="middle" x="429" y="-238.8" font-family="Times,serif" font-size="14.00">resolve&#45;options</text>
</g>
<g id="clust6" class="cluster">
<title>cluster_src/main/rule&#45;set</title>
<polygon fill="none" stroke="black" points="507,-179 507,-254 773,-254 773,-179 507,-179"/>
<text text-anchor="middle" x="640" y="-238.8" font-family="Times,serif" font-size="14.00">rule&#45;set</text>
</g>
<g id="clust3" class="cluster">
<title>cluster_src/main/files&#45;and&#45;dirs</title>
<polygon fill="none" stroke="black" points="24,-179 24,-254 164,-254 164,-179 24,-179"/>
<text text-anchor="middle" x="94" y="-238.8" font-family="Times,serif" font-size="14.00">files&#45;and&#45;dirs</text>
</g>
<!-- src/main/files&#45;and&#45;dirs/normalize.mjs -->
<g id="node1" class="node">
<title>src/main/files&#45;and&#45;dirs/normalize.mjs</title>
<g id="a_node1"><a xlink:href="src/main/files-and-dirs/normalize.mjs" xlink:title="normalize.mjs">
<ellipse fill="none" stroke="black" cx="94" cy="-205" rx="61.99" ry="18"/>
<text text-anchor="start" x="54.5" y="-201.3" font-family="Times,serif" font-size="14.00">normalize.mjs</text>
</a>
</g>
</g>
<!-- src/main/helpers.mjs -->
<g id="node2" class="node">
<title>src/main/helpers.mjs</title>
<g id="a_node2"><a xlink:href="src/main/helpers.mjs" xlink:title="helpers.mjs">
<ellipse fill="none" stroke="black" cx="584" cy="-50" rx="51.99" ry="18"/>
<text text-anchor="start" x="552" y="-46.3" font-family="Times,serif" font-size="14.00">helpers.mjs</text>
</a>
</g>
</g>
<!-- src/main/index.d.ts -->
<g id="node3" class="node">
<title>src/main/index.d.ts</title>
<g id="a_node3"><a xlink:href="src/main/index.d.ts" xlink:title="index.d.ts">
<ellipse fill="none" stroke="black" cx="593" cy="-280" rx="45.49" ry="18"/>
<text text-anchor="start" x="566" y="-276.3" font-family="Times,serif" font-size="14.00">index.d.ts</text>
</a>
</g>
</g>
<!-- src/main/index.mjs -->
<g id="node4" class="node">
<title>src/main/index.mjs</title>
<g id="a_node4"><a xlink:href="src/main/index.mjs" xlink:title="index.mjs">
<ellipse fill="none" stroke="black" cx="348" cy="-280" rx="46.29" ry="18"/>
<text text-anchor="start" x="320.5" y="-276.3" font-family="Times,serif" font-size="14.00">index.mjs</text>
</a>
</g>
</g>
<!-- src/main/index.mjs&#45;&gt;src/main/files&#45;and&#45;dirs/normalize.mjs -->
<g id="edge1" class="edge">
<title>src/main/index.mjs&#45;&gt;src/main/files&#45;and&#45;dirs/normalize.mjs</title>
<path fill="none" stroke="black" d="M301.58,-279.13C262.52,-277.77 205.86,-272.34 160,-254 145.53,-248.21 131.32,-238.54 119.81,-229.39"/>
<polygon fill="black" stroke="black" points="122.5,-226.25 112.57,-222.56 118.04,-231.64 122.5,-226.25"/>
</g>
<!-- src/main/options/normalize.mjs -->
<g id="node5" class="node">
<title>src/main/options/normalize.mjs</title>
<g id="a_node5"><a xlink:href="src/main/options/normalize.mjs" xlink:title="normalize.mjs">
<ellipse fill="none" stroke="black" cx="328" cy="-122" rx="61.99" ry="18"/>
<text text-anchor="start" x="288.5" y="-118.3" font-family="Times,serif" font-size="14.00">normalize.mjs</text>
</a>
</g>
</g>
<!-- src/main/index.mjs&#45;&gt;src/main/options/normalize.mjs -->
<g id="edge2" class="edge">
<title>src/main/index.mjs&#45;&gt;src/main/options/normalize.mjs</title>
<path fill="none" stroke="black" d="M344.37,-261.82C343.87,-259.21 343.4,-256.54 343,-254 337.46,-218.74 333.11,-177.83 330.55,-151.24"/>
<polygon fill="black" stroke="black" points="333.95,-151.07 329.53,-141.44 326.98,-151.72 333.95,-151.07"/>
</g>
<!-- src/main/options/validate.mjs -->
<g id="node6" class="node">
<title>src/main/options/validate.mjs</title>
<g id="a_node6"><a xlink:href="src/main/options/validate.mjs" xlink:title="validate.mjs">
<ellipse fill="none" stroke="black" cx="462" cy="-122" rx="53.89" ry="18"/>
<text text-anchor="start" x="428.5" y="-118.3" font-family="Times,serif" font-size="14.00">validate.mjs</text>
</a>
</g>
</g>
<!-- src/main/index.mjs&#45;&gt;src/main/options/validate.mjs -->
<g id="edge3" class="edge">
<title>src/main/index.mjs&#45;&gt;src/main/options/validate.mjs</title>
<path fill="none" stroke="black" d="M346.77,-261.72C345.35,-236.36 344.43,-190.8 355,-179 368.26,-164.19 380.81,-179.02 399,-171 412.6,-165 425.95,-155.51 436.83,-146.54"/>
<polygon fill="black" stroke="black" points="438.68,-148.71 443.99,-139.54 434.12,-143.4 438.68,-148.71"/>
</g>
<!-- src/main/report&#45;wrap.mjs -->
<g id="node7" class="node">
<title>src/main/report&#45;wrap.mjs</title>
<g id="a_node7"><a xlink:href="src/main/report-wrap.mjs" xlink:title="report&#45;wrap.mjs">
<ellipse fill="none" stroke="black" cx="241" cy="-205" rx="67.69" ry="18"/>
<text text-anchor="start" x="197" y="-201.3" font-family="Times,serif" font-size="14.00">report&#45;wrap.mjs</text>
</a>
</g>
</g>
<!-- src/main/index.mjs&#45;&gt;src/main/report&#45;wrap.mjs -->
<g id="edge4" class="edge">
<title>src/main/index.mjs&#45;&gt;src/main/report&#45;wrap.mjs</title>
<path fill="none" stroke="black" d="M325.83,-263.87C310.75,-253.59 290.54,-239.8 273.63,-228.26"/>
<polygon fill="black" stroke="black" points="275.86,-224.86 265.63,-222.12 271.91,-230.65 275.86,-224.86"/>
</g>
<!-- src/main/resolve&#45;options/normalize.mjs -->
<g id="node8" class="node">
<title>src/main/resolve&#45;options/normalize.mjs</title>
<g id="a_node8"><a xlink:href="src/main/resolve-options/normalize.mjs" xlink:title="normalize.mjs">
<ellipse fill="none" stroke="black" cx="429" cy="-205" rx="61.99" ry="18"/>
<text text-anchor="start" x="389.5" y="-201.3" font-family="Times,serif" font-size="14.00">normalize.mjs</text>
</a>
</g>
</g>
<!-- src/main/index.mjs&#45;&gt;src/main/resolve&#45;options/normalize.mjs -->
<g id="edge5" class="edge">
<title>src/main/index.mjs&#45;&gt;src/main/resolve&#45;options/normalize.mjs</title>
<path fill="none" stroke="black" d="M365.58,-263.16C376.39,-253.42 390.45,-240.74 402.59,-229.81"/>
<polygon fill="black" stroke="black" points="404.53,-232.86 409.62,-223.57 399.84,-227.66 404.53,-232.86"/>
</g>
<!-- src/main/rule&#45;set/normalize.mjs -->
<g id="node9" class="node">
<title>src/main/rule&#45;set/normalize.mjs</title>
<g id="a_node9"><a xlink:href="src/main/rule-set/normalize.mjs" xlink:title="normalize.mjs">
<ellipse fill="none" stroke="black" cx="703" cy="-205" rx="61.99" ry="18"/>
<text text-anchor="start" x="663.5" y="-201.3" font-family="Times,serif" font-size="14.00">normalize.mjs</text>
</a>
</g>
</g>
<!-- src/main/index.mjs&#45;&gt;src/main/rule&#45;set/normalize.mjs -->
<g id="edge6" class="edge">
<title>src/main/index.mjs&#45;&gt;src/main/rule&#45;set/normalize.mjs</title>
<path fill="none" stroke="black" d="M392.76,-274.98C431.47,-271.51 488.92,-266.38 539,-262 580.33,-258.38 592.89,-267.84 632,-254 647.69,-248.45 663.22,-238.58 675.74,-229.24"/>
<polygon fill="black" stroke="black" points="677.54,-231.49 683.28,-222.59 673.24,-225.97 677.54,-231.49"/>
</g>
<!-- src/main/rule&#45;set/validate.mjs -->
<g id="node10" class="node">
<title>src/main/rule&#45;set/validate.mjs</title>
<g id="a_node10"><a xlink:href="src/main/rule-set/validate.mjs" xlink:title="validate.mjs">
<ellipse fill="none" stroke="black" cx="569" cy="-205" rx="53.89" ry="18"/>
<text text-anchor="start" x="535.5" y="-201.3" font-family="Times,serif" font-size="14.00">validate.mjs</text>
</a>
</g>
</g>
<!-- src/main/index.mjs&#45;&gt;src/main/rule&#45;set/validate.mjs -->
<g id="edge7" class="edge">
<title>src/main/index.mjs&#45;&gt;src/main/rule&#45;set/validate.mjs</title>
<path fill="none" stroke="black" d="M393.96,-277.2C425.64,-274.63 468.15,-268.5 503,-254 517.38,-248.01 531.59,-238.31 543.12,-229.19"/>
<polygon fill="black" stroke="black" points="544.87,-231.46 550.37,-222.41 540.42,-226.06 544.87,-231.46"/>
</g>
<!-- src/main/options/normalize.mjs&#45;&gt;src/main/helpers.mjs -->
<g id="edge8" class="edge">
<title>src/main/options/normalize.mjs&#45;&gt;src/main/helpers.mjs</title>
<path fill="none" stroke="black" d="M373.4,-109.46C414.02,-99.02 475.13,-83.02 528,-68 530.47,-67.3 533.01,-66.57 535.56,-65.82"/>
<polygon fill="black" stroke="black" points="536.5,-68.9 545.1,-62.71 534.52,-62.18 536.5,-68.9"/>
</g>
<!-- src/main/options/defaults.mjs -->
<g id="node11" class="node">
<title>src/main/options/defaults.mjs</title>
<g id="a_node11"><a xlink:href="src/main/options/defaults.mjs" xlink:title="defaults.mjs">
<ellipse fill="none" stroke="black" cx="328" cy="-50" rx="53.89" ry="18"/>
<text text-anchor="start" x="294.5" y="-46.3" font-family="Times,serif" font-size="14.00">defaults.mjs</text>
</a>
</g>
</g>
<!-- src/main/options/normalize.mjs&#45;&gt;src/main/options/defaults.mjs -->
<g id="edge9" class="edge">
<title>src/main/options/normalize.mjs&#45;&gt;src/main/options/defaults.mjs</title>
<path fill="none" stroke="black" d="M328,-103.7C328,-96.24 328,-87.32 328,-78.97"/>
<polygon fill="black" stroke="black" points="331.5,-79.1 328,-69.1 324.5,-79.1 331.5,-79.1"/>
</g>
<!-- src/main/rule&#45;set/normalize.mjs&#45;&gt;src/main/helpers.mjs -->
<g id="edge10" class="edge">
<title>src/main/rule&#45;set/normalize.mjs&#45;&gt;src/main/helpers.mjs</title>
<path fill="none" stroke="black" d="M689.81,-187.04C668.88,-160.13 627.95,-107.5 603.58,-76.18"/>
<polygon fill="black" stroke="black" points="605.79,-74.31 596.89,-68.57 600.26,-78.61 605.79,-74.31"/>
</g>
<!-- src/main/rule&#45;set/validate.mjs&#45;&gt;src/main/helpers.mjs -->
<g id="edge11" class="edge">
<title>src/main/rule&#45;set/validate.mjs&#45;&gt;src/main/helpers.mjs</title>
<path fill="none" stroke="black" d="M570.69,-186.75C573.26,-160.58 578.16,-110.57 581.24,-79.1"/>
<polygon fill="black" stroke="black" points="584.8,-79.72 582.29,-69.43 577.83,-79.04 584.8,-79.72"/>
</g>
<!-- src/main/rule&#45;set/validate.mjs&#45;&gt;src/main/options/validate.mjs -->
<g id="edge12" class="edge">
<title>src/main/rule&#45;set/validate.mjs&#45;&gt;src/main/options/validate.mjs</title>
<path fill="none" stroke="black" d="M545.24,-188.68C537.12,-183.27 528.05,-177.02 520,-171 509.66,-163.27 498.67,-154.36 489.06,-146.33"/>
<polygon fill="black" stroke="black" points="491.59,-143.04 481.69,-139.26 487.07,-148.39 491.59,-143.04"/>
</g>
</g>
</svg>
