<?xml version="1.0" encoding="UTF-8" standalone="no"?>
<!DOCTYPE svg PUBLIC "-//W3C//DTD SVG 1.1//EN"
 "http://www.w3.org/Graphics/SVG/1.1/DTD/svg11.dtd">
<!-- Generated by graphviz version 2.43.0 (0)
 -->
<!-- Title: dependency&#45;cruiser output Pages: 1 -->
<svg width="454pt" height="372pt"
 viewBox="0.00 0.00 454.00 372.00" xmlns="http://www.w3.org/2000/svg" xmlns:xlink="http://www.w3.org/1999/xlink">
<g id="graph0" class="graph" transform="scale(1 1) rotate(0) translate(4 368)">
<title>dependency&#45;cruiser output</title>
<polygon fill="white" stroke="transparent" points="-4,4 -4,-368 450,-368 450,4 -4,4"/>
<g id="clust1" class="cluster">
<title>cluster_src</title>
<polygon fill="none" stroke="black" points="8,-8 8,-356 438,-356 438,-8 8,-8"/>
<text text-anchor="middle" x="223" y="-340.8" font-family="Times,serif" font-size="14.00">src</text>
</g>
<g id="clust2" class="cluster">
<title>cluster_src/main</title>
<polygon fill="none" stroke="black" points="16,-16 16,-326 430,-326 430,-16 16,-16"/>
<text text-anchor="middle" x="223" y="-310.8" font-family="Times,serif" font-size="14.00">main</text>
</g>
<g id="clust3" class="cluster">
<title>cluster_src/main/options</title>
<polygon fill="none" stroke="black" points="24,-24 24,-170 258,-170 258,-24 24,-24"/>
<text text-anchor="middle" x="141" y="-154.8" font-family="Times,serif" font-size="14.00">options</text>
</g>
<g id="clust4" class="cluster">
<title>cluster_src/main/resolveOptions</title>
<polygon fill="none" stroke="black" points="56,-178 56,-252 180,-252 180,-178 56,-178"/>
<text text-anchor="middle" x="118" y="-236.8" font-family="Times,serif" font-size="14.00">resolveOptions</text>
</g>
<g id="clust5" class="cluster">
<title>cluster_src/main/ruleSet</title>
<polygon fill="none" stroke="black" points="188,-178 188,-252 422,-252 422,-178 188,-178"/>
<text text-anchor="middle" x="305" y="-236.8" font-family="Times,serif" font-size="14.00">ruleSet</text>
</g>
<!-- src/main/index.js -->
<g id="node1" class="node">
<title>src/main/index.js</title>
<g id="a_node1"><a xlink:href="src/main/index.js" xlink:title="index.js">
<ellipse fill="none" stroke="black" cx="118" cy="-278" rx="37.73" ry="18"/>
<text text-anchor="middle" x="118" y="-273.8" font-family="Times,serif" font-size="14.00">index.js</text>
</a>
</g>
</g>
<!-- src/main/options/normalize.js -->
<g id="node2" class="node">
<title>src/main/options/normalize.js</title>
<g id="a_node2"><a xlink:href="src/main/options/normalize.js" xlink:title="normalize.js">
<ellipse fill="none" stroke="black" cx="86" cy="-122" rx="53.65" ry="18"/>
<text text-anchor="middle" x="86" y="-117.8" font-family="Times,serif" font-size="14.00">normalize.js</text>
</a>
</g>
</g>
<!-- src/main/index.js&#45;&gt;src/main/options/normalize.js -->
<g id="edge1" class="edge">
<title>src/main/index.js&#45;&gt;src/main/options/normalize.js</title>
<path fill="none" stroke="black" d="M80.64,-274.38C65.49,-271.26 49.39,-264.87 40,-252 20.62,-225.43 28.78,-208.91 40,-178 44.21,-166.42 52.04,-155.57 60.06,-146.62"/>
<polygon fill="black" stroke="black" points="62.7,-148.92 67.08,-139.27 57.64,-144.08 62.7,-148.92"/>
</g>
<!-- src/main/options/validate.js -->
<g id="node3" class="node">
<title>src/main/options/validate.js</title>
<g id="a_node3"><a xlink:href="src/main/options/validate.js" xlink:title="validate.js">
<ellipse fill="none" stroke="black" cx="204" cy="-122" rx="46.41" ry="18"/>
<text text-anchor="middle" x="204" y="-117.8" font-family="Times,serif" font-size="14.00">validate.js</text>
</a>
</g>
</g>
<!-- src/main/index.js&#45;&gt;src/main/options/validate.js -->
<g id="edge2" class="edge">
<title>src/main/index.js&#45;&gt;src/main/options/validate.js</title>
<path fill="none" stroke="black" d="M82.45,-271.8C70.79,-268.22 59.03,-262.18 52,-252 42.66,-238.47 40.86,-190.1 52,-178 66.65,-162.09 129.03,-178.32 149,-170 161.5,-164.79 173.23,-155.64 182.61,-146.78"/>
<polygon fill="black" stroke="black" points="185.3,-149.04 189.91,-139.5 180.36,-144.08 185.3,-149.04"/>
</g>
<!-- src/main/resolveOptions/normalize.js -->
<g id="node4" class="node">
<title>src/main/resolveOptions/normalize.js</title>
<g id="a_node4"><a xlink:href="src/main/resolveOptions/normalize.js" xlink:title="normalize.js">
<ellipse fill="none" stroke="black" cx="118" cy="-204" rx="53.65" ry="18"/>
<text text-anchor="middle" x="118" y="-199.8" font-family="Times,serif" font-size="14.00">normalize.js</text>
</a>
</g>
</g>
<!-- src/main/index.js&#45;&gt;src/main/resolveOptions/normalize.js -->
<g id="edge3" class="edge">
<title>src/main/index.js&#45;&gt;src/main/resolveOptions/normalize.js</title>
<path fill="none" stroke="black" d="M118,-259.94C118,-251.81 118,-241.88 118,-232.7"/>
<polygon fill="black" stroke="black" points="121.5,-232.44 118,-222.44 114.5,-232.44 121.5,-232.44"/>
</g>
<!-- src/main/ruleSet/normalize.js -->
<g id="node5" class="node">
<title>src/main/ruleSet/normalize.js</title>
<g id="a_node5"><a xlink:href="src/main/ruleSet/normalize.js" xlink:title="normalize.js">
<ellipse fill="none" stroke="black" cx="360" cy="-204" rx="53.65" ry="18"/>
<text text-anchor="middle" x="360" y="-199.8" font-family="Times,serif" font-size="14.00">normalize.js</text>
</a>
</g>
</g>
<!-- src/main/index.js&#45;&gt;src/main/ruleSet/normalize.js -->
<g id="edge4" class="edge">
<title>src/main/index.js&#45;&gt;src/main/ruleSet/normalize.js</title>
<path fill="none" stroke="black" d="M156.1,-277.11C193.34,-275.98 251,-270.9 297,-252 310.88,-246.3 324.46,-236.82 335.44,-227.87"/>
<polygon fill="black" stroke="black" points="337.94,-230.33 343.29,-221.19 333.4,-225 337.94,-230.33"/>
</g>
<!-- src/main/ruleSet/validate.js -->
<g id="node6" class="node">
<title>src/main/ruleSet/validate.js</title>
<g id="a_node6"><a xlink:href="src/main/ruleSet/validate.js" xlink:title="validate.js">
<ellipse fill="none" stroke="black" cx="242" cy="-204" rx="46.41" ry="18"/>
<text text-anchor="middle" x="242" y="-199.8" font-family="Times,serif" font-size="14.00">validate.js</text>
</a>
</g>
</g>
<!-- src/main/index.js&#45;&gt;src/main/ruleSet/validate.js -->
<g id="edge5" class="edge">
<title>src/main/index.js&#45;&gt;src/main/ruleSet/validate.js</title>
<path fill="none" stroke="black" d="M149.15,-267.5C160.48,-263.46 173.16,-258.23 184,-252 195.76,-245.24 207.61,-236.15 217.49,-227.76"/>
<polygon fill="black" stroke="black" points="220.07,-230.17 225.3,-220.95 215.46,-224.89 220.07,-230.17"/>
</g>
<!-- src/main/options/defaults.json -->
<g id="node7" class="node">
<title>src/main/options/defaults.json</title>
<g id="a_node7"><a xlink:href="src/main/options/defaults.json" xlink:title="defaults.json">
<ellipse fill="none" stroke="black" cx="87" cy="-50" rx="55.11" ry="18"/>
<text text-anchor="middle" x="87" y="-45.8" font-family="Times,serif" font-size="14.00">defaults.json</text>
</a>
</g>
</g>
<!-- src/main/options/normalize.js&#45;&gt;src/main/options/defaults.json -->
<g id="edge6" class="edge">
<title>src/main/options/normalize.js&#45;&gt;src/main/options/defaults.json</title>
<path fill="none" stroke="black" d="M86.25,-103.7C86.36,-95.98 86.49,-86.71 86.61,-78.11"/>
<polygon fill="black" stroke="black" points="90.11,-78.15 86.76,-68.1 83.11,-78.05 90.11,-78.15"/>
</g>
<!-- src/main/ruleSet/validate.js&#45;&gt;src/main/options/validate.js -->
<g id="edge7" class="edge">
<title>src/main/ruleSet/validate.js&#45;&gt;src/main/options/validate.js</title>
<path fill="none" stroke="black" d="M233.94,-186.03C228.85,-175.32 222.18,-161.27 216.42,-149.15"/>
<polygon fill="black" stroke="black" points="219.5,-147.47 212.05,-139.94 213.18,-150.48 219.5,-147.47"/>
</g>
</g>
</svg>
