<?xml version="1.0" encoding="UTF-8" standalone="no"?>
<!DOCTYPE svg PUBLIC "-//W3C//DTD SVG 1.1//EN"
 "http://www.w3.org/Graphics/SVG/1.1/DTD/svg11.dtd">
<!-- Generated by graphviz version 2.44.0 (20200408.0750)
 -->
<!-- Title: dependency&#45;cruiser output Pages: 1 -->
<svg width="667pt" height="379pt"
 viewBox="0.00 0.00 667.00 379.00" xmlns="http://www.w3.org/2000/svg" xmlns:xlink="http://www.w3.org/1999/xlink">
<g id="graph0" class="graph" transform="scale(1 1) rotate(0) translate(4 375)">
<title>dependency&#45;cruiser output</title>
<polygon fill="white" stroke="transparent" points="-4,4 -4,-375 663,-375 663,4 -4,4"/>
<g id="clust1" class="cluster">
<title>cluster_src</title>
<polygon fill="none" stroke="black" points="8,-8 8,-363 651,-363 651,-8 8,-8"/>
<text text-anchor="middle" x="329.5" y="-347.8" font-family="Times,serif" font-size="14.00">src</text>
</g>
<g id="clust2" class="cluster">
<title>cluster_src/main</title>
<polygon fill="none" stroke="black" points="16,-16 16,-332 643,-332 643,-16 16,-16"/>
<text text-anchor="middle" x="329.5" y="-316.8" font-family="Times,serif" font-size="14.00">main</text>
</g>
<g id="clust3" class="cluster">
<title>cluster_src/main/files&#45;and&#45;dirs</title>
<polygon fill="none" stroke="black" points="96,-182 96,-257 222,-257 222,-182 96,-182"/>
<text text-anchor="middle" x="159" y="-241.8" font-family="Times,serif" font-size="14.00">files&#45;and&#45;dirs</text>
</g>
<g id="clust4" class="cluster">
<title>cluster_src/main/options</title>
<polygon fill="none" stroke="black" points="168,-24 168,-174 405,-174 405,-24 168,-24"/>
<text text-anchor="middle" x="286.5" y="-158.8" font-family="Times,serif" font-size="14.00">options</text>
</g>
<g id="clust5" class="cluster">
<title>cluster_src/main/resolve&#45;options</title>
<polygon fill="none" stroke="black" points="264,-182 264,-257 390,-257 390,-182 264,-182"/>
<text text-anchor="middle" x="327" y="-241.8" font-family="Times,serif" font-size="14.00">resolve&#45;options</text>
</g>
<g id="clust6" class="cluster">
<title>cluster_src/main/rule&#45;set</title>
<polygon fill="none" stroke="black" points="398,-182 398,-257 635,-257 635,-182 398,-182"/>
<text text-anchor="middle" x="516.5" y="-241.8" font-family="Times,serif" font-size="14.00">rule&#45;set</text>
</g>
<g id="clust7" class="cluster">
<title>cluster_src/main/utl</title>
<polygon fill="none" stroke="black" points="413,-24 413,-99 635,-99 635,-24 413,-24"/>
<text text-anchor="middle" x="524" y="-83.8" font-family="Times,serif" font-size="14.00">utl</text>
</g>
<!-- src/main/bus.js -->
<g id="node1" class="node">
<title>src/main/bus.js</title>
<g id="a_node1"><a xlink:href="src/main/bus.js" xlink:title="bus.js">
<ellipse fill="none" stroke="black" cx="55" cy="-208" rx="31.4" ry="18"/>
<text text-anchor="middle" x="55" y="-204.3" font-family="Times,serif" font-size="14.00">bus.js</text>
</a>
</g>
</g>
<!-- src/main/files&#45;and&#45;dirs/normalize.js -->
<g id="node2" class="node">
<title>src/main/files&#45;and&#45;dirs/normalize.js</title>
<g id="a_node2"><a xlink:href="src/main/files-and-dirs/normalize.js" xlink:title="normalize.js">
<ellipse fill="none" stroke="black" cx="159" cy="-208" rx="54.69" ry="18"/>
<text text-anchor="middle" x="159" y="-204.3" font-family="Times,serif" font-size="14.00">normalize.js</text>
</a>
</g>
</g>
<!-- src/main/index.js -->
<g id="node3" class="node">
<title>src/main/index.js</title>
<g id="a_node3"><a xlink:href="src/main/index.js" xlink:title="index.js">
<ellipse fill="none" stroke="black" cx="253" cy="-283" rx="38.19" ry="18"/>
<text text-anchor="middle" x="253" y="-279.3" font-family="Times,serif" font-size="14.00">index.js</text>
</a>
</g>
</g>
<!-- src/main/index.js&#45;&gt;src/main/bus.js -->
<g id="edge1" class="edge">
<title>src/main/index.js&#45;&gt;src/main/bus.js</title>
<path fill="none" stroke="black" d="M215.16,-279.37C174.28,-275.96 112.27,-268.99 92,-257 82.63,-251.46 74.78,-242.55 68.77,-233.9"/>
<polygon fill="black" stroke="black" points="71.71,-232.01 63.37,-225.48 65.82,-235.79 71.71,-232.01"/>
</g>
<!-- src/main/index.js&#45;&gt;src/main/files&#45;and&#45;dirs/normalize.js -->
<g id="edge2" class="edge">
<title>src/main/index.js&#45;&gt;src/main/files&#45;and&#45;dirs/normalize.js</title>
<path fill="none" stroke="black" d="M232.48,-267.67C227.69,-264.23 222.63,-260.53 218,-257 207.42,-248.93 196.02,-239.77 186.1,-231.64"/>
<polygon fill="black" stroke="black" points="188.1,-228.75 178.15,-225.09 183.64,-234.15 188.1,-228.75"/>
</g>
<!-- src/main/options/normalize.js -->
<g id="node4" class="node">
<title>src/main/options/normalize.js</title>
<g id="a_node4"><a xlink:href="src/main/options/normalize.js" xlink:title="normalize.js">
<ellipse fill="none" stroke="black" cx="231" cy="-125" rx="54.69" ry="18"/>
<text text-anchor="middle" x="231" y="-121.3" font-family="Times,serif" font-size="14.00">normalize.js</text>
</a>
</g>
</g>
<!-- src/main/index.js&#45;&gt;src/main/options/normalize.js -->
<g id="edge3" class="edge">
<title>src/main/index.js&#45;&gt;src/main/options/normalize.js</title>
<path fill="none" stroke="black" d="M249.4,-264.81C248.9,-262.2 248.42,-259.53 248,-257 242.1,-221.2 237,-179.62 233.97,-153.07"/>
<polygon fill="black" stroke="black" points="237.43,-152.56 232.83,-143.01 230.47,-153.34 237.43,-152.56"/>
</g>
<!-- src/main/options/validate.js -->
<g id="node5" class="node">
<title>src/main/options/validate.js</title>
<g id="a_node5"><a xlink:href="src/main/options/validate.js" xlink:title="validate.js">
<ellipse fill="none" stroke="black" cx="350" cy="-125" rx="46.59" ry="18"/>
<text text-anchor="middle" x="350" y="-121.3" font-family="Times,serif" font-size="14.00">validate.js</text>
</a>
</g>
</g>
<!-- src/main/index.js&#45;&gt;src/main/options/validate.js -->
<g id="edge4" class="edge">
<title>src/main/index.js&#45;&gt;src/main/options/validate.js</title>
<path fill="none" stroke="black" d="M251.83,-264.78C250.51,-239.5 249.7,-194.03 260,-182 270.38,-169.88 280.78,-181.24 295,-174 307.18,-167.8 318.85,-158.31 328.29,-149.4"/>
<polygon fill="black" stroke="black" points="330.99,-151.65 335.65,-142.13 326.07,-146.66 330.99,-151.65"/>
</g>
<!-- src/main/resolve&#45;options/normalize.js -->
<g id="node6" class="node">
<title>src/main/resolve&#45;options/normalize.js</title>
<g id="a_node6"><a xlink:href="src/main/resolve-options/normalize.js" xlink:title="normalize.js">
<ellipse fill="none" stroke="black" cx="327" cy="-208" rx="54.69" ry="18"/>
<text text-anchor="middle" x="327" y="-204.3" font-family="Times,serif" font-size="14.00">normalize.js</text>
</a>
</g>
</g>
<!-- src/main/index.js&#45;&gt;src/main/resolve&#45;options/normalize.js -->
<g id="edge5" class="edge">
<title>src/main/index.js&#45;&gt;src/main/resolve&#45;options/normalize.js</title>
<path fill="none" stroke="black" d="M268.69,-266.52C278.79,-256.56 292.09,-243.44 303.44,-232.24"/>
<polygon fill="black" stroke="black" points="305.9,-234.73 310.56,-225.22 300.98,-229.75 305.9,-234.73"/>
</g>
<!-- src/main/rule&#45;set/normalize.js -->
<g id="node7" class="node">
<title>src/main/rule&#45;set/normalize.js</title>
<g id="a_node7"><a xlink:href="src/main/rule-set/normalize.js" xlink:title="normalize.js">
<ellipse fill="none" stroke="black" cx="572" cy="-208" rx="54.69" ry="18"/>
<text text-anchor="middle" x="572" y="-204.3" font-family="Times,serif" font-size="14.00">normalize.js</text>
</a>
</g>
</g>
<!-- src/main/index.js&#45;&gt;src/main/rule&#45;set/normalize.js -->
<g id="edge6" class="edge">
<title>src/main/index.js&#45;&gt;src/main/rule&#45;set/normalize.js</title>
<path fill="none" stroke="black" d="M291.28,-280.82C352.72,-278.5 470.34,-272.18 509,-257 523.42,-251.34 537.35,-241.36 548.43,-231.97"/>
<polygon fill="black" stroke="black" points="550.79,-234.55 555.95,-225.3 546.15,-229.31 550.79,-234.55"/>
</g>
<!-- src/main/rule&#45;set/validate.js -->
<g id="node8" class="node">
<title>src/main/rule&#45;set/validate.js</title>
<g id="a_node8"><a xlink:href="src/main/rule-set/validate.js" xlink:title="validate.js">
<ellipse fill="none" stroke="black" cx="453" cy="-208" rx="46.59" ry="18"/>
<text text-anchor="middle" x="453" y="-204.3" font-family="Times,serif" font-size="14.00">validate.js</text>
</a>
</g>
</g>
<!-- src/main/index.js&#45;&gt;src/main/rule&#45;set/validate.js -->
<g id="edge7" class="edge">
<title>src/main/index.js&#45;&gt;src/main/rule&#45;set/validate.js</title>
<path fill="none" stroke="black" d="M291.05,-280.44C320.34,-278.03 361.22,-272 394,-257 407.07,-251.02 419.7,-241.44 429.9,-232.41"/>
<polygon fill="black" stroke="black" points="432.55,-234.72 437.51,-225.36 427.79,-229.58 432.55,-234.72"/>
</g>
<!-- src/main/options/defaults.json -->
<g id="node9" class="node">
<title>src/main/options/defaults.json</title>
<g id="a_node9"><a xlink:href="src/main/options/defaults.json" xlink:title="defaults.json">
<ellipse fill="none" stroke="black" cx="232" cy="-50" rx="55.79" ry="18"/>
<text text-anchor="middle" x="232" y="-46.3" font-family="Times,serif" font-size="14.00">defaults.json</text>
</a>
</g>
</g>
<!-- src/main/options/normalize.js&#45;&gt;src/main/options/defaults.json -->
<g id="edge9" class="edge">
<title>src/main/options/normalize.js&#45;&gt;src/main/options/defaults.json</title>
<path fill="none" stroke="black" d="M231.24,-106.7C231.35,-98.25 231.49,-87.87 231.63,-78.37"/>
<polygon fill="black" stroke="black" points="235.13,-78.22 231.76,-68.18 228.13,-78.13 235.13,-78.22"/>
</g>
<!-- src/main/utl/normalize&#45;re&#45;properties.js -->
<g id="node10" class="node">
<title>src/main/utl/normalize&#45;re&#45;properties.js</title>
<g id="a_node10"><a xlink:href="src/main/utl/normalize-re-properties.js" xlink:title="normalize&#45;re&#45;properties.js">
<ellipse fill="none" stroke="black" cx="524" cy="-50" rx="102.88" ry="18"/>
<text text-anchor="middle" x="524" y="-46.3" font-family="Times,serif" font-size="14.00">normalize&#45;re&#45;properties.js</text>
</a>
</g>
</g>
<!-- src/main/options/normalize.js&#45;&gt;src/main/utl/normalize&#45;re&#45;properties.js -->
<g id="edge8" class="edge">
<title>src/main/options/normalize.js&#45;&gt;src/main/utl/normalize&#45;re&#45;properties.js</title>
<path fill="none" stroke="black" d="M269.72,-112.29C277.69,-110.23 286.07,-108.33 294,-107 344.53,-98.51 359.14,-110.8 409,-99 434.67,-92.92 461.99,-81.74 483.55,-71.7"/>
<polygon fill="black" stroke="black" points="485.19,-74.79 492.72,-67.34 482.18,-68.47 485.19,-74.79"/>
</g>
<!-- src/main/rule&#45;set/normalize.js&#45;&gt;src/main/utl/normalize&#45;re&#45;properties.js -->
<g id="edge10" class="edge">
<title>src/main/rule&#45;set/normalize.js&#45;&gt;src/main/utl/normalize&#45;re&#45;properties.js</title>
<path fill="none" stroke="black" d="M566.77,-190.01C558.48,-163.07 542.26,-110.33 532.35,-78.12"/>
<polygon fill="black" stroke="black" points="535.65,-76.98 529.37,-68.45 528.96,-79.03 535.65,-76.98"/>
</g>
<!-- src/main/rule&#45;set/validate.js&#45;&gt;src/main/options/validate.js -->
<g id="edge11" class="edge">
<title>src/main/rule&#45;set/validate.js&#45;&gt;src/main/options/validate.js</title>
<path fill="none" stroke="black" d="M433.14,-191.38C417.47,-179.06 395.41,-161.71 377.95,-147.98"/>
<polygon fill="black" stroke="black" points="379.82,-145 369.8,-141.57 375.5,-150.5 379.82,-145"/>
</g>
</g>
</svg>
