<?xml version="1.0" encoding="UTF-8" standalone="no"?>
<!DOCTYPE svg PUBLIC "-//W3C//DTD SVG 1.1//EN"
 "http://www.w3.org/Graphics/SVG/1.1/DTD/svg11.dtd">
<!-- Generated by graphviz version 2.49.0 (20210828.1703)
 -->
<!-- Title: dependency&#45;cruiser output Pages: 1 -->
<svg width="740pt" height="379pt"
 viewBox="0.00 0.00 740.00 379.00" xmlns="http://www.w3.org/2000/svg" xmlns:xlink="http://www.w3.org/1999/xlink">
<g id="graph0" class="graph" transform="scale(1 1) rotate(0) translate(4 375)">
<title>dependency&#45;cruiser output</title>
<polygon fill="white" stroke="transparent" points="-4,4 -4,-375 736,-375 736,4 -4,4"/>
<g id="clust1" class="cluster">
<title>cluster_src</title>
<polygon fill="none" stroke="black" points="8,-8 8,-363 724,-363 724,-8 8,-8"/>
<text text-anchor="middle" x="366" y="-347.8" font-family="Times,serif" font-size="14.00">src</text>
</g>
<g id="clust2" class="cluster">
<title>cluster_src/main</title>
<polygon fill="none" stroke="black" points="16,-16 16,-332 716,-332 716,-16 16,-16"/>
<text text-anchor="middle" x="366" y="-316.8" font-family="Times,serif" font-size="14.00">main</text>
</g>
<g id="clust4" class="cluster">
<title>cluster_src/main/options</title>
<polygon fill="none" stroke="black" points="127,-24 127,-174 367,-174 367,-24 127,-24"/>
<text text-anchor="middle" x="247" y="-158.8" font-family="Times,serif" font-size="14.00">options</text>
</g>
<g id="clust5" class="cluster">
<title>cluster_src/main/resolve&#45;options</title>
<polygon fill="none" stroke="black" points="334,-182 334,-257 460,-257 460,-182 334,-182"/>
<text text-anchor="middle" x="397" y="-241.8" font-family="Times,serif" font-size="14.00">resolve&#45;options</text>
</g>
<g id="clust6" class="cluster">
<title>cluster_src/main/rule&#45;set</title>
<polygon fill="none" stroke="black" points="468,-182 468,-257 708,-257 708,-182 468,-182"/>
<text text-anchor="middle" x="588" y="-241.8" font-family="Times,serif" font-size="14.00">rule&#45;set</text>
</g>
<g id="clust7" class="cluster">
<title>cluster_src/main/utl</title>
<polygon fill="none" stroke="black" points="443,-24 443,-99 669,-99 669,-24 443,-24"/>
<text text-anchor="middle" x="556" y="-83.8" font-family="Times,serif" font-size="14.00">utl</text>
</g>
<g id="clust3" class="cluster">
<title>cluster_src/main/files&#45;and&#45;dirs</title>
<polygon fill="none" stroke="black" points="24,-182 24,-257 150,-257 150,-182 24,-182"/>
<text text-anchor="middle" x="87" y="-241.8" font-family="Times,serif" font-size="14.00">files&#45;and&#45;dirs</text>
</g>
<!-- src/main/files&#45;and&#45;dirs/normalize.js -->
<g id="node1" class="node">
<title>src/main/files&#45;and&#45;dirs/normalize.js</title>
<g id="a_node1"><a xlink:href="src/main/files-and-dirs/normalize.js" xlink:title="normalize.js">
<ellipse fill="none" stroke="black" cx="87" cy="-208" rx="55.49" ry="18"/>
<text text-anchor="middle" x="87" y="-204.3" font-family="Times,serif" font-size="14.00">normalize.js</text>
</a>
</g>
</g>
<!-- src/main/index.js -->
<g id="node2" class="node">
<title>src/main/index.js</title>
<g id="a_node2"><a xlink:href="src/main/index.js" xlink:title="index.js">
<ellipse fill="none" stroke="black" cx="262" cy="-283" rx="38.99" ry="18"/>
<text text-anchor="middle" x="262" y="-279.3" font-family="Times,serif" font-size="14.00">index.js</text>
</a>
</g>
</g>
<!-- src/main/index.js&#45;&gt;src/main/files&#45;and&#45;dirs/normalize.js -->
<g id="edge1" class="edge">
<title>src/main/index.js&#45;&gt;src/main/files&#45;and&#45;dirs/normalize.js</title>
<path fill="none" stroke="black" d="M224.24,-278.41C200.82,-275.1 170.61,-268.81 146,-257 133.23,-250.87 120.79,-241.44 110.66,-232.56"/>
<polygon fill="black" stroke="black" points="112.81,-229.79 103.07,-225.63 108.09,-234.96 112.81,-229.79"/>
</g>
<!-- src/main/options/normalize.js -->
<g id="node3" class="node">
<title>src/main/options/normalize.js</title>
<g id="a_node3"><a xlink:href="src/main/options/normalize.js" xlink:title="normalize.js">
<ellipse fill="none" stroke="black" cx="190" cy="-125" rx="55.49" ry="18"/>
<text text-anchor="middle" x="190" y="-121.3" font-family="Times,serif" font-size="14.00">normalize.js</text>
</a>
</g>
</g>
<!-- src/main/index.js&#45;&gt;src/main/options/normalize.js -->
<g id="edge2" class="edge">
<title>src/main/index.js&#45;&gt;src/main/options/normalize.js</title>
<path fill="none" stroke="black" d="M222.8,-281.63C204.01,-279.21 183.02,-272.77 171,-257 147.84,-226.62 162.77,-180.47 176.08,-151.83"/>
<polygon fill="black" stroke="black" points="179.23,-153.36 180.48,-142.84 172.94,-150.28 179.23,-153.36"/>
</g>
<!-- src/main/options/validate.js -->
<g id="node4" class="node">
<title>src/main/options/validate.js</title>
<g id="a_node4"><a xlink:href="src/main/options/validate.js" xlink:title="validate.js">
<ellipse fill="none" stroke="black" cx="311" cy="-125" rx="48.19" ry="18"/>
<text text-anchor="middle" x="311" y="-121.3" font-family="Times,serif" font-size="14.00">validate.js</text>
</a>
</g>
</g>
<!-- src/main/index.js&#45;&gt;src/main/options/validate.js -->
<g id="edge3" class="edge">
<title>src/main/index.js&#45;&gt;src/main/options/validate.js</title>
<path fill="none" stroke="black" d="M224.57,-277.66C211.79,-274.18 198.78,-267.99 191,-257 171.74,-229.8 168.96,-207.01 191,-182 200.33,-171.41 241.07,-179.67 254,-174 266.9,-168.34 279.14,-158.82 288.95,-149.73"/>
<polygon fill="black" stroke="black" points="291.53,-152.11 296.26,-142.62 286.65,-147.09 291.53,-152.11"/>
</g>
<!-- src/main/report&#45;wrap.js -->
<g id="node5" class="node">
<title>src/main/report&#45;wrap.js</title>
<g id="a_node5"><a xlink:href="src/main/report-wrap.js" xlink:title="report&#45;wrap.js">
<ellipse fill="none" stroke="black" cx="262" cy="-208" rx="61.99" ry="18"/>
<text text-anchor="middle" x="262" y="-204.3" font-family="Times,serif" font-size="14.00">report&#45;wrap.js</text>
</a>
</g>
</g>
<!-- src/main/index.js&#45;&gt;src/main/report&#45;wrap.js -->
<g id="edge4" class="edge">
<title>src/main/index.js&#45;&gt;src/main/report&#45;wrap.js</title>
<path fill="none" stroke="black" d="M262,-264.7C262,-256.25 262,-245.87 262,-236.37"/>
<polygon fill="black" stroke="black" points="265.5,-236.18 262,-226.18 258.5,-236.18 265.5,-236.18"/>
</g>
<!-- src/main/resolve&#45;options/normalize.js -->
<g id="node6" class="node">
<title>src/main/resolve&#45;options/normalize.js</title>
<g id="a_node6"><a xlink:href="src/main/resolve-options/normalize.js" xlink:title="normalize.js">
<ellipse fill="none" stroke="black" cx="397" cy="-208" rx="55.49" ry="18"/>
<text text-anchor="middle" x="397" y="-204.3" font-family="Times,serif" font-size="14.00">normalize.js</text>
</a>
</g>
</g>
<!-- src/main/index.js&#45;&gt;src/main/resolve&#45;options/normalize.js -->
<g id="edge5" class="edge">
<title>src/main/index.js&#45;&gt;src/main/resolve&#45;options/normalize.js</title>
<path fill="none" stroke="black" d="M295.64,-273.81C309.26,-269.77 324.84,-264.2 338,-257 350.34,-250.25 362.63,-240.81 372.77,-232.08"/>
<polygon fill="black" stroke="black" points="375.25,-234.56 380.4,-225.3 370.6,-229.33 375.25,-234.56"/>
</g>
<!-- src/main/rule&#45;set/normalize.js -->
<g id="node7" class="node">
<title>src/main/rule&#45;set/normalize.js</title>
<g id="a_node7"><a xlink:href="src/main/rule-set/normalize.js" xlink:title="normalize.js">
<ellipse fill="none" stroke="black" cx="645" cy="-208" rx="55.49" ry="18"/>
<text text-anchor="middle" x="645" y="-204.3" font-family="Times,serif" font-size="14.00">normalize.js</text>
</a>
</g>
</g>
<!-- src/main/index.js&#45;&gt;src/main/rule&#45;set/normalize.js -->
<g id="edge6" class="edge">
<title>src/main/index.js&#45;&gt;src/main/rule&#45;set/normalize.js</title>
<path fill="none" stroke="black" d="M301.05,-281.65C374.6,-280.54 530.78,-275.95 581,-257 595.64,-251.48 609.79,-241.52 621.04,-232.1"/>
<polygon fill="black" stroke="black" points="623.47,-234.62 628.69,-225.41 618.86,-229.36 623.47,-234.62"/>
</g>
<!-- src/main/rule&#45;set/validate.js -->
<g id="node8" class="node">
<title>src/main/rule&#45;set/validate.js</title>
<g id="a_node8"><a xlink:href="src/main/rule-set/validate.js" xlink:title="validate.js">
<ellipse fill="none" stroke="black" cx="524" cy="-208" rx="48.19" ry="18"/>
<text text-anchor="middle" x="524" y="-204.3" font-family="Times,serif" font-size="14.00">validate.js</text>
</a>
</g>
</g>
<!-- src/main/index.js&#45;&gt;src/main/rule&#45;set/validate.js -->
<g id="edge7" class="edge">
<title>src/main/index.js&#45;&gt;src/main/rule&#45;set/validate.js</title>
<path fill="none" stroke="black" d="M300.46,-279.74C350.61,-276.37 435.35,-269.08 464,-257 477.71,-251.22 490.87,-241.36 501.35,-232.08"/>
<polygon fill="black" stroke="black" points="503.85,-234.53 508.81,-225.17 499.09,-229.4 503.85,-234.53"/>
</g>
<!-- src/main/options/defaults.js -->
<g id="node9" class="node">
<title>src/main/options/defaults.js</title>
<g id="a_node9"><a xlink:href="src/main/options/defaults.js" xlink:title="defaults.js">
<ellipse fill="none" stroke="black" cx="190" cy="-50" rx="48.19" ry="18"/>
<text text-anchor="middle" x="190" y="-46.3" font-family="Times,serif" font-size="14.00">defaults.js</text>
</a>
</g>
</g>
<!-- src/main/options/normalize.js&#45;&gt;src/main/options/defaults.js -->
<g id="edge9" class="edge">
<title>src/main/options/normalize.js&#45;&gt;src/main/options/defaults.js</title>
<path fill="none" stroke="black" d="M190,-106.7C190,-98.25 190,-87.87 190,-78.37"/>
<polygon fill="black" stroke="black" points="193.5,-78.18 190,-68.18 186.5,-78.18 193.5,-78.18"/>
</g>
<!-- src/main/utl/normalize&#45;re&#45;properties.js -->
<g id="node10" class="node">
<title>src/main/utl/normalize&#45;re&#45;properties.js</title>
<g id="a_node10"><a xlink:href="src/main/utl/normalize-re-properties.js" xlink:title="normalize&#45;re&#45;properties.js">
<ellipse fill="none" stroke="black" cx="556" cy="-50" rx="104.78" ry="18"/>
<text text-anchor="middle" x="556" y="-46.3" font-family="Times,serif" font-size="14.00">normalize&#45;re&#45;properties.js</text>
</a>
</g>
</g>
<!-- src/main/options/normalize.js&#45;&gt;src/main/utl/normalize&#45;re&#45;properties.js -->
<g id="edge8" class="edge">
<title>src/main/options/normalize.js&#45;&gt;src/main/utl/normalize&#45;re&#45;properties.js</title>
<path fill="none" stroke="black" d="M229.35,-112.28C237.44,-110.23 245.95,-108.33 254,-107 305.42,-98.49 319.55,-107.36 371,-99 414.11,-92 461.8,-79.5 497.96,-69.02"/>
<polygon fill="black" stroke="black" points="499.22,-72.3 507.84,-66.12 497.25,-65.58 499.22,-72.3"/>
</g>
<!-- src/main/rule&#45;set/normalize.js&#45;&gt;src/main/utl/normalize&#45;re&#45;properties.js -->
<g id="edge10" class="edge">
<title>src/main/rule&#45;set/normalize.js&#45;&gt;src/main/utl/normalize&#45;re&#45;properties.js</title>
<path fill="none" stroke="black" d="M635.31,-190.01C619.72,-162.7 589.01,-108.85 570.71,-76.78"/>
<polygon fill="black" stroke="black" points="573.68,-74.92 565.68,-67.97 567.6,-78.39 573.68,-74.92"/>
</g>
<!-- src/main/rule&#45;set/validate.js&#45;&gt;src/main/options/validate.js -->
<g id="edge11" class="edge">
<title>src/main/rule&#45;set/validate.js&#45;&gt;src/main/options/validate.js</title>
<path fill="none" stroke="black" d="M493.58,-194.02C484.14,-190.07 473.67,-185.78 464,-182 427.28,-167.64 385.17,-152.31 354.45,-141.33"/>
<polygon fill="black" stroke="black" points="355.48,-137.98 344.89,-137.92 353.13,-144.58 355.48,-137.98"/>
</g>
</g>
</svg>
