<?xml version="1.0" encoding="UTF-8" standalone="no"?>
<!DOCTYPE svg PUBLIC "-//W3C//DTD SVG 1.1//EN"
 "http://www.w3.org/Graphics/SVG/1.1/DTD/svg11.dtd">
<!-- Generated by graphviz version 2.44.1 (20200629.0846)
 -->
<!-- Title: dependency&#45;cruiser output Pages: 1 -->
<svg width="595pt" height="379pt"
 viewBox="0.00 0.00 595.00 379.00" xmlns="http://www.w3.org/2000/svg" xmlns:xlink="http://www.w3.org/1999/xlink">
<g id="graph0" class="graph" transform="scale(1 1) rotate(0) translate(4 375)">
<title>dependency&#45;cruiser output</title>
<polygon fill="white" stroke="transparent" points="-4,4 -4,-375 591,-375 591,4 -4,4"/>
<g id="clust1" class="cluster">
<title>cluster_src</title>
<polygon fill="none" stroke="black" points="8,-8 8,-363 579,-363 579,-8 8,-8"/>
<text text-anchor="middle" x="293.5" y="-347.8" font-family="Times,serif" font-size="14.00">src</text>
</g>
<g id="clust2" class="cluster">
<title>cluster_src/main</title>
<polygon fill="none" stroke="black" points="16,-16 16,-332 571,-332 571,-16 16,-16"/>
<text text-anchor="middle" x="293.5" y="-316.8" font-family="Times,serif" font-size="14.00">main</text>
</g>
<g id="clust3" class="cluster">
<title>cluster_src/main/files&#45;and&#45;dirs</title>
<polygon fill="none" stroke="black" points="24,-182 24,-257 150,-257 150,-182 24,-182"/>
<text text-anchor="middle" x="87" y="-241.8" font-family="Times,serif" font-size="14.00">files&#45;and&#45;dirs</text>
</g>
<g id="clust4" class="cluster">
<title>cluster_src/main/options</title>
<polygon fill="none" stroke="black" points="96,-24 96,-174 333,-174 333,-24 96,-24"/>
<text text-anchor="middle" x="214.5" y="-158.8" font-family="Times,serif" font-size="14.00">options</text>
</g>
<g id="clust5" class="cluster">
<title>cluster_src/main/resolve&#45;options</title>
<polygon fill="none" stroke="black" points="192,-182 192,-257 318,-257 318,-182 192,-182"/>
<text text-anchor="middle" x="255" y="-241.8" font-family="Times,serif" font-size="14.00">resolve&#45;options</text>
</g>
<g id="clust6" class="cluster">
<title>cluster_src/main/rule&#45;set</title>
<polygon fill="none" stroke="black" points="326,-182 326,-257 563,-257 563,-182 326,-182"/>
<text text-anchor="middle" x="444.5" y="-241.8" font-family="Times,serif" font-size="14.00">rule&#45;set</text>
</g>
<g id="clust7" class="cluster">
<title>cluster_src/main/utl</title>
<polygon fill="none" stroke="black" points="341,-24 341,-99 563,-99 563,-24 341,-24"/>
<text text-anchor="middle" x="452" y="-83.8" font-family="Times,serif" font-size="14.00">utl</text>
</g>
<!-- src/main/files&#45;and&#45;dirs/normalize.js -->
<g id="node1" class="node">
<title>src/main/files&#45;and&#45;dirs/normalize.js</title>
<g id="a_node1"><a xlink:href="src/main/files-and-dirs/normalize.js" xlink:title="normalize.js">
<ellipse fill="none" stroke="black" cx="87" cy="-208" rx="54.69" ry="18"/>
<text text-anchor="middle" x="87" y="-204.3" font-family="Times,serif" font-size="14.00">normalize.js</text>
</a>
</g>
</g>
<!-- src/main/index.js -->
<g id="node2" class="node">
<title>src/main/index.js</title>
<g id="a_node2"><a xlink:href="src/main/index.js" xlink:title="index.js">
<ellipse fill="none" stroke="black" cx="218" cy="-283" rx="38.19" ry="18"/>
<text text-anchor="middle" x="218" y="-279.3" font-family="Times,serif" font-size="14.00">index.js</text>
</a>
</g>
</g>
<!-- src/main/index.js&#45;&gt;src/main/files&#45;and&#45;dirs/normalize.js -->
<g id="edge1" class="edge">
<title>src/main/index.js&#45;&gt;src/main/files&#45;and&#45;dirs/normalize.js</title>
<path fill="none" stroke="black" d="M185.43,-273.34C172.7,-269.29 158.25,-263.83 146,-257 133.71,-250.15 121.44,-240.69 111.29,-231.98"/>
<polygon fill="black" stroke="black" points="113.46,-229.22 103.65,-225.22 108.82,-234.46 113.46,-229.22"/>
</g>
<!-- src/main/options/normalize.js -->
<g id="node3" class="node">
<title>src/main/options/normalize.js</title>
<g id="a_node3"><a xlink:href="src/main/options/normalize.js" xlink:title="normalize.js">
<ellipse fill="none" stroke="black" cx="159" cy="-125" rx="54.69" ry="18"/>
<text text-anchor="middle" x="159" y="-121.3" font-family="Times,serif" font-size="14.00">normalize.js</text>
</a>
</g>
</g>
<!-- src/main/index.js&#45;&gt;src/main/options/normalize.js -->
<g id="edge2" class="edge">
<title>src/main/index.js&#45;&gt;src/main/options/normalize.js</title>
<path fill="none" stroke="black" d="M190.16,-270.29C184.68,-266.78 179.54,-262.39 176,-257 155.56,-225.9 154.2,-181.59 155.95,-153.32"/>
<polygon fill="black" stroke="black" points="159.44,-153.57 156.74,-143.33 152.46,-153.02 159.44,-153.57"/>
</g>
<!-- src/main/options/validate.js -->
<g id="node4" class="node">
<title>src/main/options/validate.js</title>
<g id="a_node4"><a xlink:href="src/main/options/validate.js" xlink:title="validate.js">
<ellipse fill="none" stroke="black" cx="278" cy="-125" rx="46.59" ry="18"/>
<text text-anchor="middle" x="278" y="-121.3" font-family="Times,serif" font-size="14.00">validate.js</text>
</a>
</g>
</g>
<!-- src/main/index.js&#45;&gt;src/main/options/validate.js -->
<g id="edge3" class="edge">
<title>src/main/index.js&#45;&gt;src/main/options/validate.js</title>
<path fill="none" stroke="black" d="M196.39,-268.11C192.99,-264.9 189.96,-261.17 188,-257 173.86,-226.81 167.22,-208.06 188,-182 197.95,-169.52 208.78,-181.24 223,-174 235.18,-167.8 246.85,-158.31 256.29,-149.4"/>
<polygon fill="black" stroke="black" points="258.99,-151.65 263.65,-142.13 254.07,-146.66 258.99,-151.65"/>
</g>
<!-- src/main/resolve&#45;options/normalize.js -->
<g id="node5" class="node">
<title>src/main/resolve&#45;options/normalize.js</title>
<g id="a_node5"><a xlink:href="src/main/resolve-options/normalize.js" xlink:title="normalize.js">
<ellipse fill="none" stroke="black" cx="255" cy="-208" rx="54.69" ry="18"/>
<text text-anchor="middle" x="255" y="-204.3" font-family="Times,serif" font-size="14.00">normalize.js</text>
</a>
</g>
</g>
<!-- src/main/index.js&#45;&gt;src/main/resolve&#45;options/normalize.js -->
<g id="edge4" class="edge">
<title>src/main/index.js&#45;&gt;src/main/resolve&#45;options/normalize.js</title>
<path fill="none" stroke="black" d="M226.4,-265.44C230.92,-256.51 236.61,-245.29 241.72,-235.21"/>
<polygon fill="black" stroke="black" points="244.98,-236.51 246.38,-226.01 238.74,-233.34 244.98,-236.51"/>
</g>
<!-- src/main/rule&#45;set/normalize.js -->
<g id="node6" class="node">
<title>src/main/rule&#45;set/normalize.js</title>
<g id="a_node6"><a xlink:href="src/main/rule-set/normalize.js" xlink:title="normalize.js">
<ellipse fill="none" stroke="black" cx="500" cy="-208" rx="54.69" ry="18"/>
<text text-anchor="middle" x="500" y="-204.3" font-family="Times,serif" font-size="14.00">normalize.js</text>
</a>
</g>
</g>
<!-- src/main/index.js&#45;&gt;src/main/rule&#45;set/normalize.js -->
<g id="edge5" class="edge">
<title>src/main/index.js&#45;&gt;src/main/rule&#45;set/normalize.js</title>
<path fill="none" stroke="black" d="M256,-280.1C309.76,-276.99 405.05,-269.85 437,-257 451.37,-251.22 465.3,-241.23 476.38,-231.86"/>
<polygon fill="black" stroke="black" points="478.73,-234.45 483.92,-225.21 474.1,-229.2 478.73,-234.45"/>
</g>
<!-- src/main/rule&#45;set/validate.js -->
<g id="node7" class="node">
<title>src/main/rule&#45;set/validate.js</title>
<g id="a_node7"><a xlink:href="src/main/rule-set/validate.js" xlink:title="validate.js">
<ellipse fill="none" stroke="black" cx="381" cy="-208" rx="46.59" ry="18"/>
<text text-anchor="middle" x="381" y="-204.3" font-family="Times,serif" font-size="14.00">validate.js</text>
</a>
</g>
</g>
<!-- src/main/index.js&#45;&gt;src/main/rule&#45;set/validate.js -->
<g id="edge6" class="edge">
<title>src/main/index.js&#45;&gt;src/main/rule&#45;set/validate.js</title>
<path fill="none" stroke="black" d="M254.51,-277.32C275.1,-273.69 300.86,-267.46 322,-257 334.89,-250.62 347.49,-240.99 357.71,-232.02"/>
<polygon fill="black" stroke="black" points="360.33,-234.37 365.36,-225.04 355.61,-229.19 360.33,-234.37"/>
</g>
<!-- src/main/options/defaults.json -->
<g id="node8" class="node">
<title>src/main/options/defaults.json</title>
<g id="a_node8"><a xlink:href="src/main/options/defaults.json" xlink:title="defaults.json">
<ellipse fill="none" stroke="black" cx="160" cy="-50" rx="55.79" ry="18"/>
<text text-anchor="middle" x="160" y="-46.3" font-family="Times,serif" font-size="14.00">defaults.json</text>
</a>
</g>
</g>
<!-- src/main/options/normalize.js&#45;&gt;src/main/options/defaults.json -->
<g id="edge8" class="edge">
<title>src/main/options/normalize.js&#45;&gt;src/main/options/defaults.json</title>
<path fill="none" stroke="black" d="M159.24,-106.7C159.35,-98.25 159.49,-87.87 159.63,-78.37"/>
<polygon fill="black" stroke="black" points="163.13,-78.22 159.76,-68.18 156.13,-78.13 163.13,-78.22"/>
</g>
<!-- src/main/utl/normalize&#45;re&#45;properties.js -->
<g id="node9" class="node">
<title>src/main/utl/normalize&#45;re&#45;properties.js</title>
<g id="a_node9"><a xlink:href="src/main/utl/normalize-re-properties.js" xlink:title="normalize&#45;re&#45;properties.js">
<ellipse fill="none" stroke="black" cx="452" cy="-50" rx="102.88" ry="18"/>
<text text-anchor="middle" x="452" y="-46.3" font-family="Times,serif" font-size="14.00">normalize&#45;re&#45;properties.js</text>
</a>
</g>
</g>
<!-- src/main/options/normalize.js&#45;&gt;src/main/utl/normalize&#45;re&#45;properties.js -->
<g id="edge7" class="edge">
<title>src/main/options/normalize.js&#45;&gt;src/main/utl/normalize&#45;re&#45;properties.js</title>
<path fill="none" stroke="black" d="M197.72,-112.29C205.69,-110.23 214.07,-108.33 222,-107 272.53,-98.51 287.14,-110.8 337,-99 362.67,-92.92 389.99,-81.74 411.55,-71.7"/>
<polygon fill="black" stroke="black" points="413.19,-74.79 420.72,-67.34 410.18,-68.47 413.19,-74.79"/>
</g>
<!-- src/main/rule&#45;set/normalize.js&#45;&gt;src/main/utl/normalize&#45;re&#45;properties.js -->
<g id="edge9" class="edge">
<title>src/main/rule&#45;set/normalize.js&#45;&gt;src/main/utl/normalize&#45;re&#45;properties.js</title>
<path fill="none" stroke="black" d="M494.77,-190.01C486.48,-163.07 470.26,-110.33 460.35,-78.12"/>
<polygon fill="black" stroke="black" points="463.65,-76.98 457.37,-68.45 456.96,-79.03 463.65,-76.98"/>
</g>
<!-- src/main/rule&#45;set/validate.js&#45;&gt;src/main/options/validate.js -->
<g id="edge10" class="edge">
<title>src/main/rule&#45;set/validate.js&#45;&gt;src/main/options/validate.js</title>
<path fill="none" stroke="black" d="M361.14,-191.38C345.47,-179.06 323.41,-161.71 305.95,-147.98"/>
<polygon fill="black" stroke="black" points="307.82,-145 297.8,-141.57 303.5,-150.5 307.82,-145"/>
</g>
</g>
</svg>
