<?xml version="1.0" encoding="UTF-8" standalone="no"?>
<!DOCTYPE svg PUBLIC "-//W3C//DTD SVG 1.1//EN"
 "http://www.w3.org/Graphics/SVG/1.1/DTD/svg11.dtd">
<!-- Generated by graphviz version 2.44.0 (20200408.0750)
 -->
<!-- Title: dependency&#45;cruiser output Pages: 1 -->
<svg width="595pt" height="376pt"
 viewBox="0.00 0.00 595.00 376.00" xmlns="http://www.w3.org/2000/svg" xmlns:xlink="http://www.w3.org/1999/xlink">
<g id="graph0" class="graph" transform="scale(1 1) rotate(0) translate(4 372)">
<title>dependency&#45;cruiser output</title>
<polygon fill="white" stroke="transparent" points="-4,4 -4,-372 591,-372 591,4 -4,4"/>
<g id="clust1" class="cluster">
<title>cluster_src</title>
<polygon fill="none" stroke="black" points="8,-8 8,-360 579,-360 579,-8 8,-8"/>
<text text-anchor="middle" x="293.5" y="-344.8" font-family="Times,serif" font-size="14.00">src</text>
</g>
<g id="clust2" class="cluster">
<title>cluster_src/main</title>
<polygon fill="none" stroke="black" points="16,-16 16,-329 571,-329 571,-16 16,-16"/>
<text text-anchor="middle" x="293.5" y="-313.8" font-family="Times,serif" font-size="14.00">main</text>
</g>
<g id="clust3" class="cluster">
<title>cluster_src/main/files&#45;and&#45;dirs</title>
<polygon fill="none" stroke="black" points="24,-179 24,-254 150,-254 150,-179 24,-179"/>
<text text-anchor="middle" x="87" y="-238.8" font-family="Times,serif" font-size="14.00">files&#45;and&#45;dirs</text>
</g>
<g id="clust6" class="cluster">
<title>cluster_src/main/rule&#45;set</title>
<polygon fill="none" stroke="black" points="326,-179 326,-254 563,-254 563,-179 326,-179"/>
<text text-anchor="middle" x="444.5" y="-238.8" font-family="Times,serif" font-size="14.00">rule&#45;set</text>
</g>
<g id="clust4" class="cluster">
<title>cluster_src/main/options</title>
<polygon fill="none" stroke="black" points="98,-24 98,-171 335,-171 335,-24 98,-24"/>
<text text-anchor="middle" x="216.5" y="-155.8" font-family="Times,serif" font-size="14.00">options</text>
</g>
<g id="clust5" class="cluster">
<title>cluster_src/main/resolve&#45;options</title>
<polygon fill="none" stroke="black" points="192,-179 192,-254 318,-254 318,-179 192,-179"/>
<text text-anchor="middle" x="255" y="-238.8" font-family="Times,serif" font-size="14.00">resolve&#45;options</text>
</g>
<!-- src/main/files&#45;and&#45;dirs/normalize.js -->
<g id="node1" class="node">
<title>src/main/files&#45;and&#45;dirs/normalize.js</title>
<g id="a_node1"><a xlink:href="src/main/files-and-dirs/normalize.js" xlink:title="normalize.js">
<ellipse fill="none" stroke="black" cx="87" cy="-205" rx="54.69" ry="18"/>
<text text-anchor="middle" x="87" y="-201.3" font-family="Times,serif" font-size="14.00">normalize.js</text>
</a>
</g>
</g>
<!-- src/main/index.js -->
<g id="node2" class="node">
<title>src/main/index.js</title>
<g id="a_node2"><a xlink:href="src/main/index.js" xlink:title="index.js">
<ellipse fill="none" stroke="black" cx="218" cy="-280" rx="38.19" ry="18"/>
<text text-anchor="middle" x="218" y="-276.3" font-family="Times,serif" font-size="14.00">index.js</text>
</a>
</g>
</g>
<!-- src/main/index.js&#45;&gt;src/main/files&#45;and&#45;dirs/normalize.js -->
<g id="edge1" class="edge">
<title>src/main/index.js&#45;&gt;src/main/files&#45;and&#45;dirs/normalize.js</title>
<path fill="none" stroke="black" d="M185.43,-270.34C172.7,-266.29 158.25,-260.83 146,-254 133.71,-247.15 121.44,-237.69 111.29,-228.98"/>
<polygon fill="black" stroke="black" points="113.46,-226.22 103.65,-222.22 108.82,-231.46 113.46,-226.22"/>
</g>
<!-- src/main/options/normalize.js -->
<g id="node3" class="node">
<title>src/main/options/normalize.js</title>
<g id="a_node3"><a xlink:href="src/main/options/normalize.js" xlink:title="normalize.js">
<ellipse fill="none" stroke="black" cx="161" cy="-122" rx="54.69" ry="18"/>
<text text-anchor="middle" x="161" y="-118.3" font-family="Times,serif" font-size="14.00">normalize.js</text>
</a>
</g>
</g>
<!-- src/main/index.js&#45;&gt;src/main/options/normalize.js -->
<g id="edge2" class="edge">
<title>src/main/index.js&#45;&gt;src/main/options/normalize.js</title>
<path fill="none" stroke="black" d="M190.1,-267.33C184.63,-263.82 179.5,-259.42 176,-254 155.83,-222.81 155.2,-178.52 157.45,-150.28"/>
<polygon fill="black" stroke="black" points="160.94,-150.59 158.42,-140.3 153.97,-149.92 160.94,-150.59"/>
</g>
<!-- src/main/options/validate.js -->
<g id="node4" class="node">
<title>src/main/options/validate.js</title>
<g id="a_node4"><a xlink:href="src/main/options/validate.js" xlink:title="validate.js">
<ellipse fill="none" stroke="black" cx="280" cy="-122" rx="46.59" ry="18"/>
<text text-anchor="middle" x="280" y="-118.3" font-family="Times,serif" font-size="14.00">validate.js</text>
</a>
</g>
</g>
<!-- src/main/index.js&#45;&gt;src/main/options/validate.js -->
<g id="edge3" class="edge">
<title>src/main/index.js&#45;&gt;src/main/options/validate.js</title>
<path fill="none" stroke="black" d="M196.39,-265.11C192.99,-261.9 189.96,-258.17 188,-254 173.86,-223.81 167.07,-204.94 188,-179 198.57,-165.91 209.96,-178.55 225,-171 237.21,-164.87 248.89,-155.39 258.32,-146.47"/>
<polygon fill="black" stroke="black" points="261.03,-148.71 265.68,-139.19 256.11,-143.74 261.03,-148.71"/>
</g>
<!-- src/main/resolve&#45;options/normalize.js -->
<g id="node5" class="node">
<title>src/main/resolve&#45;options/normalize.js</title>
<g id="a_node5"><a xlink:href="src/main/resolve-options/normalize.js" xlink:title="normalize.js">
<ellipse fill="none" stroke="black" cx="255" cy="-205" rx="54.69" ry="18"/>
<text text-anchor="middle" x="255" y="-201.3" font-family="Times,serif" font-size="14.00">normalize.js</text>
</a>
</g>
</g>
<!-- src/main/index.js&#45;&gt;src/main/resolve&#45;options/normalize.js -->
<g id="edge4" class="edge">
<title>src/main/index.js&#45;&gt;src/main/resolve&#45;options/normalize.js</title>
<path fill="none" stroke="black" d="M226.4,-262.44C230.92,-253.51 236.61,-242.29 241.72,-232.21"/>
<polygon fill="black" stroke="black" points="244.98,-233.51 246.38,-223.01 238.74,-230.34 244.98,-233.51"/>
</g>
<!-- src/main/rule&#45;set/normalize.js -->
<g id="node6" class="node">
<title>src/main/rule&#45;set/normalize.js</title>
<g id="a_node6"><a xlink:href="src/main/rule-set/normalize.js" xlink:title="normalize.js">
<ellipse fill="none" stroke="black" cx="500" cy="-205" rx="54.69" ry="18"/>
<text text-anchor="middle" x="500" y="-201.3" font-family="Times,serif" font-size="14.00">normalize.js</text>
</a>
</g>
</g>
<!-- src/main/index.js&#45;&gt;src/main/rule&#45;set/normalize.js -->
<g id="edge5" class="edge">
<title>src/main/index.js&#45;&gt;src/main/rule&#45;set/normalize.js</title>
<path fill="none" stroke="black" d="M256,-277.1C309.76,-273.99 405.05,-266.85 437,-254 451.37,-248.22 465.3,-238.23 476.38,-228.86"/>
<polygon fill="black" stroke="black" points="478.73,-231.45 483.92,-222.21 474.1,-226.2 478.73,-231.45"/>
</g>
<!-- src/main/rule&#45;set/validate.js -->
<g id="node7" class="node">
<title>src/main/rule&#45;set/validate.js</title>
<g id="a_node7"><a xlink:href="src/main/rule-set/validate.js" xlink:title="validate.js">
<ellipse fill="none" stroke="black" cx="381" cy="-205" rx="46.59" ry="18"/>
<text text-anchor="middle" x="381" y="-201.3" font-family="Times,serif" font-size="14.00">validate.js</text>
</a>
</g>
</g>
<!-- src/main/index.js&#45;&gt;src/main/rule&#45;set/validate.js -->
<g id="edge6" class="edge">
<title>src/main/index.js&#45;&gt;src/main/rule&#45;set/validate.js</title>
<path fill="none" stroke="black" d="M254.51,-274.32C275.1,-270.69 300.86,-264.46 322,-254 334.89,-247.62 347.49,-237.99 357.71,-229.02"/>
<polygon fill="black" stroke="black" points="360.33,-231.37 365.36,-222.04 355.61,-226.19 360.33,-231.37"/>
</g>
<!-- src/main/options/defaults.json -->
<g id="node8" class="node">
<title>src/main/options/defaults.json</title>
<g id="a_node8"><a xlink:href="src/main/options/defaults.json" xlink:title="defaults.json">
<ellipse fill="none" stroke="black" cx="162" cy="-50" rx="55.79" ry="18"/>
<text text-anchor="middle" x="162" y="-46.3" font-family="Times,serif" font-size="14.00">defaults.json</text>
</a>
</g>
</g>
<!-- src/main/options/normalize.js&#45;&gt;src/main/options/defaults.json -->
<g id="edge7" class="edge">
<title>src/main/options/normalize.js&#45;&gt;src/main/options/defaults.json</title>
<path fill="none" stroke="black" d="M161.25,-103.7C161.36,-95.98 161.49,-86.71 161.61,-78.11"/>
<polygon fill="black" stroke="black" points="165.11,-78.15 161.76,-68.1 158.11,-78.05 165.11,-78.15"/>
</g>
<!-- src/main/rule&#45;set/validate.js&#45;&gt;src/main/options/validate.js -->
<g id="edge8" class="edge">
<title>src/main/rule&#45;set/validate.js&#45;&gt;src/main/options/validate.js</title>
<path fill="none" stroke="black" d="M361.53,-188.38C346.16,-176.06 324.53,-158.71 307.41,-144.98"/>
<polygon fill="black" stroke="black" points="309.4,-142.1 299.41,-138.57 305.03,-147.56 309.4,-142.1"/>
</g>
</g>
</svg>
