<?xml version="1.0" encoding="UTF-8" standalone="no"?>
<!DOCTYPE svg PUBLIC "-//W3C//DTD SVG 1.1//EN"
 "http://www.w3.org/Graphics/SVG/1.1/DTD/svg11.dtd">
<!-- Generated by graphviz version 8.1.0 (20230707.0739)
 -->
<!-- Title: dependency&#45;cruiser output Pages: 1 -->
<svg width="808pt" height="454pt"
 viewBox="0.00 0.00 808.00 454.00" xmlns="http://www.w3.org/2000/svg" xmlns:xlink="http://www.w3.org/1999/xlink">
<g id="graph0" class="graph" transform="scale(1 1) rotate(0) translate(4 450)">
<title>dependency&#45;cruiser output</title>
<polygon fill="white" stroke="none" points="-4,4 -4,-450 804,-450 804,4 -4,4"/>
<g id="clust1" class="cluster">
<title>cluster_src</title>
<polygon fill="none" stroke="black" points="8,-8 8,-438 792,-438 792,-8 8,-8"/>
<text text-anchor="middle" x="400" y="-420.7" font-family="Times,serif" font-size="14.00">src</text>
</g>
<g id="clust2" class="cluster">
<title>cluster_src/main</title>
<polygon fill="none" stroke="black" points="16,-16 16,-405.5 784,-405.5 784,-16 16,-16"/>
<text text-anchor="middle" x="400" y="-388.2" font-family="Times,serif" font-size="14.00">main</text>
</g>
<g id="clust6" class="cluster">
<title>cluster_src/main/rule&#45;set</title>
<polygon fill="none" stroke="black" points="24,-180.5 24,-257 300,-257 300,-180.5 24,-180.5"/>
<text text-anchor="middle" x="162" y="-239.7" font-family="Times,serif" font-size="14.00">rule&#45;set</text>
</g>
<g id="clust3" class="cluster">
<title>cluster_src/main/files&#45;and&#45;dirs</title>
<polygon fill="none" stroke="black" points="308,-180.5 308,-257 454,-257 454,-180.5 308,-180.5"/>
<text text-anchor="middle" x="381" y="-239.7" font-family="Times,serif" font-size="14.00">files&#45;and&#45;dirs</text>
</g>
<g id="clust4" class="cluster">
<title>cluster_src/main/options</title>
<polygon fill="none" stroke="black" points="323,-24 323,-172.5 599,-172.5 599,-24 323,-24"/>
<text text-anchor="middle" x="461" y="-155.2" font-family="Times,serif" font-size="14.00">options</text>
</g>
<g id="clust5" class="cluster">
<title>cluster_src/main/resolve&#45;options</title>
<polygon fill="none" stroke="black" points="496,-180.5 496,-257 642,-257 642,-180.5 496,-180.5"/>
<text text-anchor="middle" x="569" y="-239.7" font-family="Times,serif" font-size="14.00">resolve&#45;options</text>
</g>
<!-- src/main/cruise.mjs -->
<g id="node1" class="node">
<title>src/main/cruise.mjs</title>
<g id="a_node1"><a xlink:href="src/main/cruise.mjs" xlink:title="cruise.mjs">
<ellipse fill="none" stroke="black" cx="475" cy="-283" rx="49.3" ry="18"/>
<text text-anchor="start" x="446.88" y="-277.95" font-family="Times,serif" font-size="14.00">cruise.mjs</text>
</a>
</g>
</g>
<!-- src/main/files&#45;and&#45;dirs/normalize.mjs -->
<g id="node2" class="node">
<title>src/main/files&#45;and&#45;dirs/normalize.mjs</title>
<g id="a_node2"><a xlink:href="src/main/files-and-dirs/normalize.mjs" xlink:title="normalize.mjs">
<ellipse fill="none" stroke="black" cx="381" cy="-206.5" rx="64.66" ry="18"/>
<text text-anchor="start" x="341.62" y="-201.45" font-family="Times,serif" font-size="14.00">normalize.mjs</text>
</a>
</g>
</g>
<!-- src/main/cruise.mjs&#45;&gt;src/main/files&#45;and&#45;dirs/normalize.mjs -->
<g id="edge1" class="edge">
<title>src/main/cruise.mjs&#45;&gt;src/main/files&#45;and&#45;dirs/normalize.mjs</title>
<path fill="none" stroke="black" d="M455.07,-266.2C441.91,-255.77 424.46,-241.95 409.81,-230.33"/>
<polygon fill="black" stroke="black" points="412.57,-227.26 402.56,-223.79 408.22,-232.75 412.57,-227.26"/>
</g>
<!-- src/main/options/normalize.mjs -->
<g id="node3" class="node">
<title>src/main/options/normalize.mjs</title>
<g id="a_node3"><a xlink:href="src/main/options/normalize.mjs" xlink:title="normalize.mjs">
<ellipse fill="none" stroke="black" cx="526" cy="-122" rx="64.66" ry="18"/>
<text text-anchor="start" x="486.62" y="-116.95" font-family="Times,serif" font-size="14.00">normalize.mjs</text>
</a>
</g>
</g>
<!-- src/main/cruise.mjs&#45;&gt;src/main/options/normalize.mjs -->
<g id="edge2" class="edge">
<title>src/main/cruise.mjs&#45;&gt;src/main/options/normalize.mjs</title>
<path fill="none" stroke="black" d="M475.97,-264.63C477.55,-244.01 481.65,-208.86 492,-180.5 496,-169.55 502.09,-158.34 508.03,-148.75"/>
<polygon fill="black" stroke="black" points="511.34,-151.08 513.82,-140.78 505.46,-147.28 511.34,-151.08"/>
</g>
<!-- src/main/options/validate.mjs -->
<g id="node4" class="node">
<title>src/main/options/validate.mjs</title>
<g id="a_node4"><a xlink:href="src/main/options/validate.mjs" xlink:title="validate.mjs">
<ellipse fill="none" stroke="black" cx="387" cy="-122" rx="56.47" ry="18"/>
<text text-anchor="start" x="353.62" y="-116.95" font-family="Times,serif" font-size="14.00">validate.mjs</text>
</a>
</g>
</g>
<!-- src/main/cruise.mjs&#45;&gt;src/main/options/validate.mjs -->
<g id="edge3" class="edge">
<title>src/main/cruise.mjs&#45;&gt;src/main/options/validate.mjs</title>
<path fill="none" stroke="black" d="M472.76,-264.56C469.19,-237.47 462.16,-187.64 458,-180.5 452.86,-171.69 434.97,-157.22 418.44,-145.01"/>
<polygon fill="black" stroke="black" points="421.14,-141.91 410.99,-138.86 417.02,-147.58 421.14,-141.91"/>
</g>
<!-- src/main/report&#45;wrap.mjs -->
<g id="node5" class="node">
<title>src/main/report&#45;wrap.mjs</title>
<g id="a_node5"><a xlink:href="src/main/report-wrap.mjs" xlink:title="report&#45;wrap.mjs">
<ellipse fill="none" stroke="black" cx="704" cy="-122" rx="70.8" ry="18"/>
<text text-anchor="start" x="660.12" y="-116.95" font-family="Times,serif" font-size="14.00">report&#45;wrap.mjs</text>
</a>
</g>
</g>
<!-- src/main/cruise.mjs&#45;&gt;src/main/report&#45;wrap.mjs -->
<g id="edge4" class="edge">
<title>src/main/cruise.mjs&#45;&gt;src/main/report&#45;wrap.mjs</title>
<path fill="none" stroke="black" d="M524.31,-281.3C602.83,-279.68 749.09,-274.34 765,-257 787.99,-231.95 778.47,-211.72 765,-180.5 759.16,-166.98 748.41,-155.16 737.54,-145.81"/>
<polygon fill="black" stroke="black" points="740.26,-142.71 730.28,-139.16 735.87,-148.16 740.26,-142.71"/>
</g>
<!-- src/main/resolve&#45;options/normalize.mjs -->
<g id="node6" class="node">
<title>src/main/resolve&#45;options/normalize.mjs</title>
<g id="a_node6"><a xlink:href="src/main/resolve-options/normalize.mjs" xlink:title="normalize.mjs">
<ellipse fill="none" stroke="black" cx="569" cy="-206.5" rx="64.66" ry="18"/>
<text text-anchor="start" x="529.62" y="-201.45" font-family="Times,serif" font-size="14.00">normalize.mjs</text>
</a>
</g>
</g>
<!-- src/main/cruise.mjs&#45;&gt;src/main/resolve&#45;options/normalize.mjs -->
<g id="edge5" class="edge">
<title>src/main/cruise.mjs&#45;&gt;src/main/resolve&#45;options/normalize.mjs</title>
<path fill="none" stroke="black" d="M494.93,-266.2C508.09,-255.77 525.54,-241.95 540.19,-230.33"/>
<polygon fill="black" stroke="black" points="541.78,-232.75 547.44,-223.79 537.43,-227.26 541.78,-232.75"/>
</g>
<!-- src/main/rule&#45;set/normalize.mjs -->
<g id="node7" class="node">
<title>src/main/rule&#45;set/normalize.mjs</title>
<g id="a_node7"><a xlink:href="src/main/rule-set/normalize.mjs" xlink:title="normalize.mjs">
<ellipse fill="none" stroke="black" cx="97" cy="-206.5" rx="64.66" ry="18"/>
<text text-anchor="start" x="57.62" y="-201.45" font-family="Times,serif" font-size="14.00">normalize.mjs</text>
</a>
</g>
</g>
<!-- src/main/cruise.mjs&#45;&gt;src/main/rule&#45;set/normalize.mjs -->
<g id="edge6" class="edge">
<title>src/main/cruise.mjs&#45;&gt;src/main/rule&#45;set/normalize.mjs</title>
<path fill="none" stroke="black" d="M425.8,-280.95C352.06,-278.87 216.69,-272.95 171,-257 154.28,-251.16 137.71,-240.64 124.5,-230.79"/>
<polygon fill="black" stroke="black" points="126.97,-227.51 116.93,-224.14 122.68,-233.04 126.97,-227.51"/>
</g>
<!-- src/main/rule&#45;set/validate.mjs -->
<g id="node8" class="node">
<title>src/main/rule&#45;set/validate.mjs</title>
<g id="a_node8"><a xlink:href="src/main/rule-set/validate.mjs" xlink:title="validate.mjs">
<ellipse fill="none" stroke="black" cx="236" cy="-206.5" rx="56.47" ry="18"/>
<text text-anchor="start" x="202.62" y="-201.45" font-family="Times,serif" font-size="14.00">validate.mjs</text>
</a>
</g>
</g>
<!-- src/main/cruise.mjs&#45;&gt;src/main/rule&#45;set/validate.mjs -->
<g id="edge7" class="edge">
<title>src/main/cruise.mjs&#45;&gt;src/main/rule&#45;set/validate.mjs</title>
<path fill="none" stroke="black" d="M425.82,-281.05C390.73,-278.89 343.03,-272.92 304,-257 288.77,-250.79 273.77,-240.46 261.76,-230.84"/>
<polygon fill="black" stroke="black" points="264.5,-227.73 254.57,-224.02 260.02,-233.11 264.5,-227.73"/>
</g>
<!-- src/main/helpers.mjs -->
<g id="node10" class="node">
<title>src/main/helpers.mjs</title>
<g id="a_node10"><a xlink:href="src/main/helpers.mjs" xlink:title="helpers.mjs">
<ellipse fill="none" stroke="black" cx="236" cy="-50" rx="53.91" ry="18"/>
<text text-anchor="start" x="204.5" y="-44.95" font-family="Times,serif" font-size="14.00">helpers.mjs</text>
</a>
</g>
</g>
<!-- src/main/options/normalize.mjs&#45;&gt;src/main/helpers.mjs -->
<g id="edge13" class="edge">
<title>src/main/options/normalize.mjs&#45;&gt;src/main/helpers.mjs</title>
<path fill="none" stroke="black" d="M478.44,-109.52C426.46,-96.97 343.41,-76.93 289.28,-63.86"/>
<polygon fill="black" stroke="black" points="290.4,-60.29 279.86,-61.35 288.76,-67.09 290.4,-60.29"/>
</g>
<!-- src/main/options/defaults.mjs -->
<g id="node13" class="node">
<title>src/main/options/defaults.mjs</title>
<g id="a_node13"><a xlink:href="src/main/options/defaults.mjs" xlink:title="defaults.mjs">
<ellipse fill="none" stroke="black" cx="526" cy="-50" rx="56.47" ry="18"/>
<text text-anchor="start" x="492.62" y="-44.95" font-family="Times,serif" font-size="14.00">defaults.mjs</text>
</a>
</g>
</g>
<!-- src/main/options/normalize.mjs&#45;&gt;src/main/options/defaults.mjs -->
<g id="edge14" class="edge">
<title>src/main/options/normalize.mjs&#45;&gt;src/main/options/defaults.mjs</title>
<path fill="none" stroke="black" d="M526,-103.7C526,-96.24 526,-87.32 526,-78.97"/>
<polygon fill="black" stroke="black" points="529.5,-79.1 526,-69.1 522.5,-79.1 529.5,-79.1"/>
</g>
<!-- src/main/rule&#45;set/normalize.mjs&#45;&gt;src/main/helpers.mjs -->
<g id="edge15" class="edge">
<title>src/main/rule&#45;set/normalize.mjs&#45;&gt;src/main/helpers.mjs</title>
<path fill="none" stroke="black" d="M112.14,-188.67C136.81,-161.25 185.79,-106.81 214.21,-75.23"/>
<polygon fill="black" stroke="black" points="216.21,-78.12 220.3,-68.34 211.01,-73.43 216.21,-78.12"/>
</g>
<!-- src/main/rule&#45;set/validate.mjs&#45;&gt;src/main/options/validate.mjs -->
<g id="edge17" class="edge">
<title>src/main/rule&#45;set/validate.mjs&#45;&gt;src/main/options/validate.mjs</title>
<path fill="none" stroke="black" d="M271.6,-192.28C282.03,-188.44 293.46,-184.27 304,-180.5 314.19,-176.85 317.57,-177.8 327,-172.5 339.51,-165.47 351.97,-155.75 362.27,-146.78"/>
<polygon fill="black" stroke="black" points="364.27,-149.79 369.36,-140.5 359.58,-144.58 364.27,-149.79"/>
</g>
<!-- src/main/rule&#45;set/validate.mjs&#45;&gt;src/main/helpers.mjs -->
<g id="edge16" class="edge">
<title>src/main/rule&#45;set/validate.mjs&#45;&gt;src/main/helpers.mjs</title>
<path fill="none" stroke="black" d="M236,-188.08C236,-161.51 236,-110.61 236,-78.87"/>
<polygon fill="black" stroke="black" points="239.5,-79.12 236,-69.12 232.5,-79.12 239.5,-79.12"/>
</g>
<!-- src/main/format.mjs -->
<g id="node9" class="node">
<title>src/main/format.mjs</title>
<g id="a_node9"><a xlink:href="src/main/format.mjs" xlink:title="format.mjs">
<ellipse fill="none" stroke="black" cx="704" cy="-206.5" rx="52.38" ry="18"/>
<text text-anchor="start" x="673.62" y="-201.45" font-family="Times,serif" font-size="14.00">format.mjs</text>
</a>
</g>
</g>
<!-- src/main/format.mjs&#45;&gt;src/main/options/normalize.mjs -->
<g id="edge8" class="edge">
<title>src/main/format.mjs&#45;&gt;src/main/options/normalize.mjs</title>
<path fill="none" stroke="black" d="M674.72,-191.18C665.69,-187.23 655.59,-183.27 646,-180.5 623.96,-174.13 616.23,-181.2 595,-172.5 579.74,-166.25 564.64,-156.01 552.48,-146.46"/>
<polygon fill="black" stroke="black" points="555.14,-143.3 545.18,-139.7 550.72,-148.73 555.14,-143.3"/>
</g>
<!-- src/main/format.mjs&#45;&gt;src/main/options/validate.mjs -->
<g id="edge9" class="edge">
<title>src/main/format.mjs&#45;&gt;src/main/options/validate.mjs</title>
<path fill="none" stroke="black" d="M675.79,-190.89C666.54,-186.77 656.05,-182.79 646,-180.5 603.93,-170.91 492.59,-187.13 452,-172.5 436.9,-167.06 422.45,-156.75 411.02,-146.95"/>
<polygon fill="black" stroke="black" points="413.69,-144.74 403.92,-140.64 409,-149.94 413.69,-144.74"/>
</g>
<!-- src/main/format.mjs&#45;&gt;src/main/report&#45;wrap.mjs -->
<g id="edge10" class="edge">
<title>src/main/format.mjs&#45;&gt;src/main/report&#45;wrap.mjs</title>
<path fill="none" stroke="black" d="M704,-188C704,-177.39 704,-163.6 704,-151.46"/>
<polygon fill="black" stroke="black" points="707.5,-151.47 704,-141.47 700.5,-151.47 707.5,-151.47"/>
</g>
<!-- src/main/index.d.ts -->
<g id="node11" class="node">
<title>src/main/index.d.ts</title>
<g id="a_node11"><a xlink:href="src/main/index.d.ts" xlink:title="index.d.ts">
<ellipse fill="none" stroke="black" cx="701" cy="-355" rx="47.26" ry="18"/>
<text text-anchor="start" x="674.38" y="-349.95" font-family="Times,serif" font-size="14.00">index.d.ts</text>
</a>
</g>
</g>
<!-- src/main/index.mjs -->
<g id="node12" class="node">
<title>src/main/index.mjs</title>
<g id="a_node12"><a xlink:href="src/main/index.mjs" xlink:title="index.mjs">
<ellipse fill="none" stroke="black" cx="513" cy="-355" rx="47.77" ry="18"/>
<text text-anchor="start" x="486" y="-349.95" font-family="Times,serif" font-size="14.00">index.mjs</text>
</a>
</g>
</g>
<!-- src/main/index.mjs&#45;&gt;src/main/cruise.mjs -->
<g id="edge11" class="edge">
<title>src/main/index.mjs&#45;&gt;src/main/cruise.mjs</title>
<path fill="none" stroke="black" d="M503.8,-337.05C499.46,-329.06 494.18,-319.33 489.33,-310.4"/>
<polygon fill="black" stroke="black" points="491.96,-308.91 484.11,-301.79 485.81,-312.25 491.96,-308.91"/>
</g>
<!-- src/main/index.mjs&#45;&gt;src/main/format.mjs -->
<g id="edge12" class="edge">
<title>src/main/index.mjs&#45;&gt;src/main/format.mjs</title>
<path fill="none" stroke="black" d="M535.03,-338.71C561.73,-320 607.87,-287.11 646,-257 656.53,-248.69 667.81,-239.2 677.59,-230.77"/>
<polygon fill="black" stroke="black" points="679.49,-232.89 684.75,-223.69 674.91,-227.6 679.49,-232.89"/>
</g>
</g>
</svg>
