<?xml version="1.0" encoding="UTF-8" standalone="no"?>
<!DOCTYPE svg PUBLIC "-//W3C//DTD SVG 1.1//EN"
 "http://www.w3.org/Graphics/SVG/1.1/DTD/svg11.dtd">
<!-- Generated by graphviz version 7.0.6 (20230106.0513)
 -->
<!-- Title: dependency&#45;cruiser output Pages: 1 -->
<svg width="733pt" height="379pt"
 viewBox="0.00 0.00 733.00 379.00" xmlns="http://www.w3.org/2000/svg" xmlns:xlink="http://www.w3.org/1999/xlink">
<g id="graph0" class="graph" transform="scale(1 1) rotate(0) translate(4 375)">
<title>dependency&#45;cruiser output</title>
<polygon fill="white" stroke="none" points="-4,4 -4,-375 729,-375 729,4 -4,4"/>
<g id="clust1" class="cluster">
<title>cluster_src</title>
<polygon fill="none" stroke="black" points="8,-8 8,-363 717,-363 717,-8 8,-8"/>
<text text-anchor="middle" x="362.5" y="-347.8" font-family="Times,serif" font-size="14.00">src</text>
</g>
<g id="clust2" class="cluster">
<title>cluster_src/main</title>
<polygon fill="none" stroke="black" points="16,-16 16,-332 709,-332 709,-16 16,-16"/>
<text text-anchor="middle" x="362.5" y="-316.8" font-family="Times,serif" font-size="14.00">main</text>
</g>
<g id="clust5" class="cluster">
<title>cluster_src/main/resolve&#45;options</title>
<polygon fill="none" stroke="black" points="330,-182 330,-257 456,-257 456,-182 330,-182"/>
<text text-anchor="middle" x="393" y="-241.8" font-family="Times,serif" font-size="14.00">resolve&#45;options</text>
</g>
<g id="clust6" class="cluster">
<title>cluster_src/main/rule&#45;set</title>
<polygon fill="none" stroke="black" points="464,-182 464,-257 701,-257 701,-182 464,-182"/>
<text text-anchor="middle" x="582.5" y="-241.8" font-family="Times,serif" font-size="14.00">rule&#45;set</text>
</g>
<g id="clust7" class="cluster">
<title>cluster_src/main/utl</title>
<polygon fill="none" stroke="black" points="479,-24 479,-99 701,-99 701,-24 479,-24"/>
<text text-anchor="middle" x="590" y="-83.8" font-family="Times,serif" font-size="14.00">utl</text>
</g>
<g id="clust4" class="cluster">
<title>cluster_src/main/options</title>
<polygon fill="none" stroke="black" points="234,-24 234,-174 471,-174 471,-24 234,-24"/>
<text text-anchor="middle" x="352.5" y="-158.8" font-family="Times,serif" font-size="14.00">options</text>
</g>
<g id="clust3" class="cluster">
<title>cluster_src/main/files&#45;and&#45;dirs</title>
<polygon fill="none" stroke="black" points="24,-182 24,-257 150,-257 150,-182 24,-182"/>
<text text-anchor="middle" x="87" y="-241.8" font-family="Times,serif" font-size="14.00">files&#45;and&#45;dirs</text>
</g>
<!-- src/main/files&#45;and&#45;dirs/normalize.js -->
<g id="node1" class="node">
<title>src/main/files&#45;and&#45;dirs/normalize.js</title>
<g id="a_node1"><a xlink:href="src/main/files-and-dirs/normalize.js" xlink:title="normalize.js">
<ellipse fill="none" stroke="black" cx="87" cy="-208" rx="54.69" ry="18"/>
<text text-anchor="start" x="53" y="-204.3" font-family="Times,serif" font-size="14.00">normalize.js</text>
</a>
</g>
</g>
<!-- src/main/index.js -->
<g id="node2" class="node">
<title>src/main/index.js</title>
<g id="a_node2"><a xlink:href="src/main/index.js" xlink:title="index.js">
<ellipse fill="none" stroke="black" cx="319" cy="-283" rx="38.19" ry="18"/>
<text text-anchor="start" x="297.5" y="-279.3" font-family="Times,serif" font-size="14.00">index.js</text>
</a>
</g>
</g>
<!-- src/main/index.js&#45;&gt;src/main/files&#45;and&#45;dirs/normalize.js -->
<g id="edge1" class="edge">
<title>src/main/index.js&#45;&gt;src/main/files&#45;and&#45;dirs/normalize.js</title>
<path fill="none" stroke="black" d="M280.62,-282.25C244.46,-281.17 189.49,-276.07 146,-257 133.09,-251.34 120.69,-242.06 110.62,-233.15"/>
<polygon fill="black" stroke="black" points="113.23,-230.8 103.52,-226.56 108.47,-235.93 113.23,-230.8"/>
</g>
<!-- src/main/options/normalize.js -->
<g id="node3" class="node">
<title>src/main/options/normalize.js</title>
<g id="a_node3"><a xlink:href="src/main/options/normalize.js" xlink:title="normalize.js">
<ellipse fill="none" stroke="black" cx="297" cy="-125" rx="54.69" ry="18"/>
<text text-anchor="start" x="263" y="-121.3" font-family="Times,serif" font-size="14.00">normalize.js</text>
</a>
</g>
</g>
<!-- src/main/index.js&#45;&gt;src/main/options/normalize.js -->
<g id="edge2" class="edge">
<title>src/main/index.js&#45;&gt;src/main/options/normalize.js</title>
<path fill="none" stroke="black" d="M315.4,-264.81C314.9,-262.2 314.42,-259.53 314,-257 308.22,-221.87 303.2,-181.18 300.14,-154.59"/>
<polygon fill="black" stroke="black" points="303.65,-154.48 299.05,-144.94 296.69,-155.27 303.65,-154.48"/>
</g>
<!-- src/main/options/validate.js -->
<g id="node4" class="node">
<title>src/main/options/validate.js</title>
<g id="a_node4"><a xlink:href="src/main/options/validate.js" xlink:title="validate.js">
<ellipse fill="none" stroke="black" cx="416" cy="-125" rx="46.59" ry="18"/>
<text text-anchor="start" x="388" y="-121.3" font-family="Times,serif" font-size="14.00">validate.js</text>
</a>
</g>
</g>
<!-- src/main/index.js&#45;&gt;src/main/options/validate.js -->
<g id="edge3" class="edge">
<title>src/main/index.js&#45;&gt;src/main/options/validate.js</title>
<path fill="none" stroke="black" d="M317.83,-264.78C316.51,-239.5 315.7,-194.03 326,-182 336.38,-169.88 346.78,-181.24 361,-174 372.93,-167.92 384.38,-158.69 393.72,-149.93"/>
<polygon fill="black" stroke="black" points="395.89,-152.7 400.57,-143.19 390.99,-147.71 395.89,-152.7"/>
</g>
<!-- src/main/report&#45;wrap.js -->
<g id="node5" class="node">
<title>src/main/report&#45;wrap.js</title>
<g id="a_node5"><a xlink:href="src/main/report-wrap.js" xlink:title="report&#45;wrap.js">
<ellipse fill="none" stroke="black" cx="220" cy="-208" rx="60.39" ry="18"/>
<text text-anchor="start" x="181.5" y="-204.3" font-family="Times,serif" font-size="14.00">report&#45;wrap.js</text>
</a>
</g>
</g>
<!-- src/main/index.js&#45;&gt;src/main/report&#45;wrap.js -->
<g id="edge4" class="edge">
<title>src/main/index.js&#45;&gt;src/main/report&#45;wrap.js</title>
<path fill="none" stroke="black" d="M298.97,-267.23C285.08,-256.99 266.33,-243.16 250.59,-231.55"/>
<polygon fill="black" stroke="black" points="253.07,-229.03 242.94,-225.92 248.91,-234.67 253.07,-229.03"/>
</g>
<!-- src/main/resolve&#45;options/normalize.js -->
<g id="node6" class="node">
<title>src/main/resolve&#45;options/normalize.js</title>
<g id="a_node6"><a xlink:href="src/main/resolve-options/normalize.js" xlink:title="normalize.js">
<ellipse fill="none" stroke="black" cx="393" cy="-208" rx="54.69" ry="18"/>
<text text-anchor="start" x="359" y="-204.3" font-family="Times,serif" font-size="14.00">normalize.js</text>
</a>
</g>
</g>
<!-- src/main/index.js&#45;&gt;src/main/resolve&#45;options/normalize.js -->
<g id="edge5" class="edge">
<title>src/main/index.js&#45;&gt;src/main/resolve&#45;options/normalize.js</title>
<path fill="none" stroke="black" d="M334.69,-266.52C344.43,-256.91 357.15,-244.36 368.23,-233.44"/>
<polygon fill="black" stroke="black" points="370.56,-236.05 375.22,-226.54 365.65,-231.07 370.56,-236.05"/>
</g>
<!-- src/main/rule&#45;set/normalize.js -->
<g id="node7" class="node">
<title>src/main/rule&#45;set/normalize.js</title>
<g id="a_node7"><a xlink:href="src/main/rule-set/normalize.js" xlink:title="normalize.js">
<ellipse fill="none" stroke="black" cx="638" cy="-208" rx="54.69" ry="18"/>
<text text-anchor="start" x="604" y="-204.3" font-family="Times,serif" font-size="14.00">normalize.js</text>
</a>
</g>
</g>
<!-- src/main/index.js&#45;&gt;src/main/rule&#45;set/normalize.js -->
<g id="edge6" class="edge">
<title>src/main/index.js&#45;&gt;src/main/rule&#45;set/normalize.js</title>
<path fill="none" stroke="black" d="M357.28,-280.82C418.72,-278.5 536.34,-272.18 575,-257 588.9,-251.54 602.34,-242.08 613.22,-232.99"/>
<polygon fill="black" stroke="black" points="615.36,-235.76 620.56,-226.53 610.74,-230.5 615.36,-235.76"/>
</g>
<!-- src/main/rule&#45;set/validate.js -->
<g id="node8" class="node">
<title>src/main/rule&#45;set/validate.js</title>
<g id="a_node8"><a xlink:href="src/main/rule-set/validate.js" xlink:title="validate.js">
<ellipse fill="none" stroke="black" cx="519" cy="-208" rx="46.59" ry="18"/>
<text text-anchor="start" x="491" y="-204.3" font-family="Times,serif" font-size="14.00">validate.js</text>
</a>
</g>
</g>
<!-- src/main/index.js&#45;&gt;src/main/rule&#45;set/validate.js -->
<g id="edge7" class="edge">
<title>src/main/index.js&#45;&gt;src/main/rule&#45;set/validate.js</title>
<path fill="none" stroke="black" d="M357.05,-280.44C386.34,-278.03 427.22,-272 460,-257 472.82,-251.13 485.2,-241.82 495.29,-232.94"/>
<polygon fill="black" stroke="black" points="497.42,-235.74 502.4,-226.39 492.67,-230.59 497.42,-235.74"/>
</g>
<!-- src/main/options/defaults.js -->
<g id="node9" class="node">
<title>src/main/options/defaults.js</title>
<g id="a_node9"><a xlink:href="src/main/options/defaults.js" xlink:title="defaults.js">
<ellipse fill="none" stroke="black" cx="297" cy="-50" rx="46.59" ry="18"/>
<text text-anchor="start" x="269" y="-46.3" font-family="Times,serif" font-size="14.00">defaults.js</text>
</a>
</g>
</g>
<!-- src/main/options/normalize.js&#45;&gt;src/main/options/defaults.js -->
<g id="edge9" class="edge">
<title>src/main/options/normalize.js&#45;&gt;src/main/options/defaults.js</title>
<path fill="none" stroke="black" d="M297,-106.7C297,-98.67 297,-88.9 297,-79.8"/>
<polygon fill="black" stroke="black" points="300.5,-79.94 297,-69.94 293.5,-79.94 300.5,-79.94"/>
</g>
<!-- src/main/utl/normalize&#45;re&#45;properties.js -->
<g id="node10" class="node">
<title>src/main/utl/normalize&#45;re&#45;properties.js</title>
<g id="a_node10"><a xlink:href="src/main/utl/normalize-re-properties.js" xlink:title="normalize&#45;re&#45;properties.js">
<ellipse fill="none" stroke="black" cx="590" cy="-50" rx="102.88" ry="18"/>
<text text-anchor="start" x="519" y="-46.3" font-family="Times,serif" font-size="14.00">normalize&#45;re&#45;properties.js</text>
</a>
</g>
</g>
<!-- src/main/options/normalize.js&#45;&gt;src/main/utl/normalize&#45;re&#45;properties.js -->
<g id="edge8" class="edge">
<title>src/main/options/normalize.js&#45;&gt;src/main/utl/normalize&#45;re&#45;properties.js</title>
<path fill="none" stroke="black" d="M336.4,-112.11C344.16,-110.13 352.29,-108.3 360,-107 410.53,-98.51 425.14,-110.8 475,-99 500.03,-93.07 526.62,-82.3 547.92,-72.45"/>
<polygon fill="black" stroke="black" points="549.32,-75.66 556.86,-68.22 546.33,-69.34 549.32,-75.66"/>
</g>
<!-- src/main/rule&#45;set/normalize.js&#45;&gt;src/main/utl/normalize&#45;re&#45;properties.js -->
<g id="edge10" class="edge">
<title>src/main/rule&#45;set/normalize.js&#45;&gt;src/main/utl/normalize&#45;re&#45;properties.js</title>
<path fill="none" stroke="black" d="M632.68,-189.71C624.46,-163 608.6,-111.45 598.7,-79.27"/>
<polygon fill="black" stroke="black" points="602.08,-78.34 595.79,-69.81 595.38,-80.4 602.08,-78.34"/>
</g>
<!-- src/main/rule&#45;set/validate.js&#45;&gt;src/main/options/validate.js -->
<g id="edge11" class="edge">
<title>src/main/rule&#45;set/validate.js&#45;&gt;src/main/options/validate.js</title>
<path fill="none" stroke="black" d="M499.14,-191.38C483.61,-179.17 461.81,-162.02 444.43,-148.36"/>
<polygon fill="black" stroke="black" points="447.01,-145.94 436.99,-142.51 442.69,-151.44 447.01,-145.94"/>
</g>
<!-- src/main/rule&#45;set/validate.js&#45;&gt;src/main/utl/normalize&#45;re&#45;properties.js -->
<g id="edge12" class="edge">
<title>src/main/rule&#45;set/validate.js&#45;&gt;src/main/utl/normalize&#45;re&#45;properties.js</title>
<path fill="none" stroke="black" d="M526.73,-190.01C539,-163.05 563.04,-110.23 577.7,-78.03"/>
<polygon fill="black" stroke="black" points="580.69,-79.9 581.65,-69.35 574.32,-77 580.69,-79.9"/>
</g>
</g>
</svg>
