<?xml version="1.0" encoding="UTF-8" standalone="no"?>
<!DOCTYPE svg PUBLIC "-//W3C//DTD SVG 1.1//EN"
 "http://www.w3.org/Graphics/SVG/1.1/DTD/svg11.dtd">
<!-- Generated by graphviz version 8.0.1 (20230327.1645)
 -->
<!-- Title: dependency&#45;cruiser output Pages: 1 -->
<svg width="733pt" height="379pt"
 viewBox="0.00 0.00 733.00 379.00" xmlns="http://www.w3.org/2000/svg" xmlns:xlink="http://www.w3.org/1999/xlink">
<g id="graph0" class="graph" transform="scale(1 1) rotate(0) translate(4 375)">
<title>dependency&#45;cruiser output</title>
<polygon fill="white" stroke="none" points="-4,4 -4,-375 729,-375 729,4 -4,4"/>
<g id="clust1" class="cluster">
<title>cluster_src</title>
<polygon fill="none" stroke="black" points="8,-8 8,-363 717,-363 717,-8 8,-8"/>
<text text-anchor="middle" x="362.5" y="-347.8" font-family="Times,serif" font-size="14.00">src</text>
</g>
<g id="clust2" class="cluster">
<title>cluster_src/main</title>
<polygon fill="none" stroke="black" points="16,-16 16,-332 709,-332 709,-16 16,-16"/>
<text text-anchor="middle" x="362.5" y="-316.8" font-family="Times,serif" font-size="14.00">main</text>
</g>
<g id="clust4" class="cluster">
<title>cluster_src/main/options</title>
<polygon fill="none" stroke="black" points="234,-24 234,-174 471,-174 471,-24 234,-24"/>
<text text-anchor="middle" x="352.5" y="-158.8" font-family="Times,serif" font-size="14.00">options</text>
</g>
<g id="clust5" class="cluster">
<title>cluster_src/main/resolve&#45;options</title>
<polygon fill="none" stroke="black" points="330,-182 330,-257 456,-257 456,-182 330,-182"/>
<text text-anchor="middle" x="393" y="-241.8" font-family="Times,serif" font-size="14.00">resolve&#45;options</text>
</g>
<g id="clust6" class="cluster">
<title>cluster_src/main/rule&#45;set</title>
<polygon fill="none" stroke="black" points="464,-182 464,-257 701,-257 701,-182 464,-182"/>
<text text-anchor="middle" x="582.5" y="-241.8" font-family="Times,serif" font-size="14.00">rule&#45;set</text>
</g>
<g id="clust7" class="cluster">
<title>cluster_src/main/utl</title>
<polygon fill="none" stroke="black" points="479,-24 479,-99 701,-99 701,-24 479,-24"/>
<text text-anchor="middle" x="590" y="-83.8" font-family="Times,serif" font-size="14.00">utl</text>
</g>
<g id="clust3" class="cluster">
<title>cluster_src/main/files&#45;and&#45;dirs</title>
<polygon fill="none" stroke="black" points="24,-182 24,-257 150,-257 150,-182 24,-182"/>
<text text-anchor="middle" x="87" y="-241.8" font-family="Times,serif" font-size="14.00">files&#45;and&#45;dirs</text>
</g>
<!-- src/main/files&#45;and&#45;dirs/normalize.js -->
<g id="node1" class="node">
<title>src/main/files&#45;and&#45;dirs/normalize.js</title>
<g id="a_node1"><a xlink:href="src/main/files-and-dirs/normalize.js" xlink:title="normalize.js">
<ellipse fill="none" stroke="black" cx="87" cy="-208" rx="54.69" ry="18"/>
<text text-anchor="start" x="53" y="-204.3" font-family="Times,serif" font-size="14.00">normalize.js</text>
</a>
</g>
</g>
<!-- src/main/index.d.ts -->
<g id="node2" class="node">
<title>src/main/index.d.ts</title>
<g id="a_node2"><a xlink:href="src/main/index.d.ts" xlink:title="index.d.ts">
<ellipse fill="none" stroke="black" cx="538" cy="-283" rx="45.49" ry="18"/>
<text text-anchor="start" x="511" y="-279.3" font-family="Times,serif" font-size="14.00">index.d.ts</text>
</a>
</g>
</g>
<!-- src/main/index.js -->
<g id="node3" class="node">
<title>src/main/index.js</title>
<g id="a_node3"><a xlink:href="src/main/index.js" xlink:title="index.js">
<ellipse fill="none" stroke="black" cx="319" cy="-283" rx="38.19" ry="18"/>
<text text-anchor="start" x="297.5" y="-279.3" font-family="Times,serif" font-size="14.00">index.js</text>
</a>
</g>
</g>
<!-- src/main/index.js&#45;&gt;src/main/files&#45;and&#45;dirs/normalize.js -->
<g id="edge1" class="edge">
<title>src/main/index.js&#45;&gt;src/main/files&#45;and&#45;dirs/normalize.js</title>
<path fill="none" stroke="black" d="M280.62,-282.25C244.46,-281.17 189.49,-276.07 146,-257 132.96,-251.28 120.44,-241.87 110.31,-232.88"/>
<polygon fill="black" stroke="black" points="113.12,-230.78 103.41,-226.53 108.35,-235.9 113.12,-230.78"/>
</g>
<!-- src/main/options/normalize.js -->
<g id="node4" class="node">
<title>src/main/options/normalize.js</title>
<g id="a_node4"><a xlink:href="src/main/options/normalize.js" xlink:title="normalize.js">
<ellipse fill="none" stroke="black" cx="297" cy="-125" rx="54.69" ry="18"/>
<text text-anchor="start" x="263" y="-121.3" font-family="Times,serif" font-size="14.00">normalize.js</text>
</a>
</g>
</g>
<!-- src/main/index.js&#45;&gt;src/main/options/normalize.js -->
<g id="edge2" class="edge">
<title>src/main/index.js&#45;&gt;src/main/options/normalize.js</title>
<path fill="none" stroke="black" d="M315.4,-264.81C314.9,-262.2 314.42,-259.53 314,-257 308.19,-221.72 303.15,-180.81 300.1,-154.23"/>
<polygon fill="black" stroke="black" points="303.48,-153.98 298.88,-144.43 296.52,-154.76 303.48,-153.98"/>
</g>
<!-- src/main/options/validate.js -->
<g id="node5" class="node">
<title>src/main/options/validate.js</title>
<g id="a_node5"><a xlink:href="src/main/options/validate.js" xlink:title="validate.js">
<ellipse fill="none" stroke="black" cx="416" cy="-125" rx="46.59" ry="18"/>
<text text-anchor="start" x="388" y="-121.3" font-family="Times,serif" font-size="14.00">validate.js</text>
</a>
</g>
</g>
<!-- src/main/index.js&#45;&gt;src/main/options/validate.js -->
<g id="edge3" class="edge">
<title>src/main/index.js&#45;&gt;src/main/options/validate.js</title>
<path fill="none" stroke="black" d="M317.83,-264.78C316.51,-239.5 315.7,-194.03 326,-182 336.38,-169.88 346.78,-181.24 361,-174 373.05,-167.86 384.62,-158.5 394,-149.66"/>
<polygon fill="black" stroke="black" points="395.98,-152.64 400.65,-143.13 391.07,-147.66 395.98,-152.64"/>
</g>
<!-- src/main/report&#45;wrap.js -->
<g id="node6" class="node">
<title>src/main/report&#45;wrap.js</title>
<g id="a_node6"><a xlink:href="src/main/report-wrap.js" xlink:title="report&#45;wrap.js">
<ellipse fill="none" stroke="black" cx="220" cy="-208" rx="60.39" ry="18"/>
<text text-anchor="start" x="181.5" y="-204.3" font-family="Times,serif" font-size="14.00">report&#45;wrap.js</text>
</a>
</g>
</g>
<!-- src/main/index.js&#45;&gt;src/main/report&#45;wrap.js -->
<g id="edge4" class="edge">
<title>src/main/index.js&#45;&gt;src/main/report&#45;wrap.js</title>
<path fill="none" stroke="black" d="M298.97,-267.23C284.95,-256.89 265.98,-242.9 250.15,-231.23"/>
<polygon fill="black" stroke="black" points="252.85,-228.14 242.72,-225.02 248.69,-233.77 252.85,-228.14"/>
</g>
<!-- src/main/resolve&#45;options/normalize.js -->
<g id="node7" class="node">
<title>src/main/resolve&#45;options/normalize.js</title>
<g id="a_node7"><a xlink:href="src/main/resolve-options/normalize.js" xlink:title="normalize.js">
<ellipse fill="none" stroke="black" cx="393" cy="-208" rx="54.69" ry="18"/>
<text text-anchor="start" x="359" y="-204.3" font-family="Times,serif" font-size="14.00">normalize.js</text>
</a>
</g>
</g>
<!-- src/main/index.js&#45;&gt;src/main/resolve&#45;options/normalize.js -->
<g id="edge5" class="edge">
<title>src/main/index.js&#45;&gt;src/main/resolve&#45;options/normalize.js</title>
<path fill="none" stroke="black" d="M334.69,-266.52C344.53,-256.82 357.4,-244.12 368.55,-233.12"/>
<polygon fill="black" stroke="black" points="370.64,-235.99 375.3,-226.47 365.72,-231 370.64,-235.99"/>
</g>
<!-- src/main/rule&#45;set/normalize.js -->
<g id="node8" class="node">
<title>src/main/rule&#45;set/normalize.js</title>
<g id="a_node8"><a xlink:href="src/main/rule-set/normalize.js" xlink:title="normalize.js">
<ellipse fill="none" stroke="black" cx="638" cy="-208" rx="54.69" ry="18"/>
<text text-anchor="start" x="604" y="-204.3" font-family="Times,serif" font-size="14.00">normalize.js</text>
</a>
</g>
</g>
<!-- src/main/index.js&#45;&gt;src/main/rule&#45;set/normalize.js -->
<g id="edge6" class="edge">
<title>src/main/index.js&#45;&gt;src/main/rule&#45;set/normalize.js</title>
<path fill="none" stroke="black" d="M356.01,-278.03C389.44,-274.48 440,-269.2 484,-265 504.21,-263.07 556.07,-264.33 575,-257 589.06,-251.56 602.64,-241.96 613.57,-232.78"/>
<polygon fill="black" stroke="black" points="615.54,-235.83 620.72,-226.59 610.9,-230.58 615.54,-235.83"/>
</g>
<!-- src/main/rule&#45;set/validate.js -->
<g id="node9" class="node">
<title>src/main/rule&#45;set/validate.js</title>
<g id="a_node9"><a xlink:href="src/main/rule-set/validate.js" xlink:title="validate.js">
<ellipse fill="none" stroke="black" cx="519" cy="-208" rx="46.59" ry="18"/>
<text text-anchor="start" x="491" y="-204.3" font-family="Times,serif" font-size="14.00">validate.js</text>
</a>
</g>
</g>
<!-- src/main/index.js&#45;&gt;src/main/rule&#45;set/validate.js -->
<g id="edge7" class="edge">
<title>src/main/index.js&#45;&gt;src/main/rule&#45;set/validate.js</title>
<path fill="none" stroke="black" d="M357.05,-280.44C386.34,-278.03 427.22,-272 460,-257 472.94,-251.08 485.45,-241.63 495.59,-232.68"/>
<polygon fill="black" stroke="black" points="497.54,-235.72 502.51,-226.36 492.79,-230.57 497.54,-235.72"/>
</g>
<!-- src/main/options/defaults.js -->
<g id="node10" class="node">
<title>src/main/options/defaults.js</title>
<g id="a_node10"><a xlink:href="src/main/options/defaults.js" xlink:title="defaults.js">
<ellipse fill="none" stroke="black" cx="297" cy="-50" rx="46.59" ry="18"/>
<text text-anchor="start" x="269" y="-46.3" font-family="Times,serif" font-size="14.00">defaults.js</text>
</a>
</g>
</g>
<!-- src/main/options/normalize.js&#45;&gt;src/main/options/defaults.js -->
<g id="edge9" class="edge">
<title>src/main/options/normalize.js&#45;&gt;src/main/options/defaults.js</title>
<path fill="none" stroke="black" d="M297,-106.7C297,-98.49 297,-88.46 297,-79.19"/>
<polygon fill="black" stroke="black" points="300.5,-79.43 297,-69.43 293.5,-79.43 300.5,-79.43"/>
</g>
<!-- src/main/utl/normalize&#45;re&#45;properties.js -->
<g id="node11" class="node">
<title>src/main/utl/normalize&#45;re&#45;properties.js</title>
<g id="a_node11"><a xlink:href="src/main/utl/normalize-re-properties.js" xlink:title="normalize&#45;re&#45;properties.js">
<ellipse fill="none" stroke="black" cx="590" cy="-50" rx="102.88" ry="18"/>
<text text-anchor="start" x="519" y="-46.3" font-family="Times,serif" font-size="14.00">normalize&#45;re&#45;properties.js</text>
</a>
</g>
</g>
<!-- src/main/options/normalize.js&#45;&gt;src/main/utl/normalize&#45;re&#45;properties.js -->
<g id="edge8" class="edge">
<title>src/main/options/normalize.js&#45;&gt;src/main/utl/normalize&#45;re&#45;properties.js</title>
<path fill="none" stroke="black" d="M336.4,-112.11C344.16,-110.13 352.29,-108.3 360,-107 410.53,-98.51 425.14,-110.8 475,-99 500.26,-93.02 527.11,-82.1 548.5,-72.18"/>
<polygon fill="black" stroke="black" points="549.69,-75.02 557.23,-67.57 546.7,-68.69 549.69,-75.02"/>
</g>
<!-- src/main/rule&#45;set/normalize.js&#45;&gt;src/main/utl/normalize&#45;re&#45;properties.js -->
<g id="edge10" class="edge">
<title>src/main/rule&#45;set/normalize.js&#45;&gt;src/main/utl/normalize&#45;re&#45;properties.js</title>
<path fill="none" stroke="black" d="M632.68,-189.71C624.43,-162.89 608.46,-110.99 598.57,-78.84"/>
<polygon fill="black" stroke="black" points="601.63,-77.9 595.34,-69.37 594.94,-79.96 601.63,-77.9"/>
</g>
<!-- src/main/rule&#45;set/validate.js&#45;&gt;src/main/options/validate.js -->
<g id="edge11" class="edge">
<title>src/main/rule&#45;set/validate.js&#45;&gt;src/main/options/validate.js</title>
<path fill="none" stroke="black" d="M499.14,-191.38C483.61,-179.17 461.81,-162.02 444.43,-148.36"/>
<polygon fill="black" stroke="black" points="446.82,-145 436.8,-141.57 442.5,-150.5 446.82,-145"/>
</g>
<!-- src/main/rule&#45;set/validate.js&#45;&gt;src/main/utl/normalize&#45;re&#45;properties.js -->
<g id="edge12" class="edge">
<title>src/main/rule&#45;set/validate.js&#45;&gt;src/main/utl/normalize&#45;re&#45;properties.js</title>
<path fill="none" stroke="black" d="M526.73,-190.01C539.06,-162.93 563.25,-109.77 577.89,-77.61"/>
<polygon fill="black" stroke="black" points="581.32,-79.52 582.28,-68.97 574.95,-76.62 581.32,-79.52"/>
</g>
</g>
</svg>
