<?xml version="1.0" encoding="UTF-8" standalone="no"?>
<!DOCTYPE svg PUBLIC "-//W3C//DTD SVG 1.1//EN"
 "http://www.w3.org/Graphics/SVG/1.1/DTD/svg11.dtd">
<!-- Generated by graphviz version 8.0.5 (20230430.1635)
 -->
<!-- Title: dependency&#45;cruiser output Pages: 1 -->
<svg width="456pt" height="358pt"
 viewBox="0.00 0.00 456.38 358.00" xmlns="http://www.w3.org/2000/svg" xmlns:xlink="http://www.w3.org/1999/xlink">
<g id="graph0" class="graph" transform="scale(1 1) rotate(0) translate(4 354)">
<title>dependency&#45;cruiser output</title>
<polygon fill="white" stroke="none" points="-4,4 -4,-354 452.38,-354 452.38,4 -4,4"/>
<g id="clust1" class="cluster">
<title>cluster_src</title>
<path fill="#ffffff" stroke="black" stroke-width="2" d="M20,-8C20,-8 428.38,-8 428.38,-8 434.38,-8 440.38,-14 440.38,-20 440.38,-20 440.38,-330 440.38,-330 440.38,-336 434.38,-342 428.38,-342 428.38,-342 20,-342 20,-342 14,-342 8,-336 8,-330 8,-330 8,-20 8,-20 8,-14 14,-8 20,-8"/>
<text text-anchor="middle" x="224.19" y="-329.45" font-family="Helvetica,sans-Serif" font-weight="bold" font-size="9.00">src</text>
</g>
<g id="clust2" class="cluster">
<title>cluster_src/main</title>
<path fill="#ffffff" stroke="black" stroke-width="2" d="M28,-16C28,-16 420.38,-16 420.38,-16 426.38,-16 432.38,-22 432.38,-28 432.38,-28 432.38,-304 432.38,-304 432.38,-310 426.38,-316 420.38,-316 420.38,-316 28,-316 28,-316 22,-316 16,-310 16,-304 16,-304 16,-28 16,-28 16,-22 22,-16 28,-16"/>
<text text-anchor="middle" x="224.19" y="-303.45" font-family="Helvetica,sans-Serif" font-weight="bold" font-size="9.00">main</text>
</g>
<g id="clust3" class="cluster">
<title>cluster_src/main/files&#45;and&#45;dirs</title>
<path fill="#ffffff" stroke="black" stroke-width="2" d="M169.25,-114C169.25,-114 234.25,-114 234.25,-114 240.25,-114 246.25,-120 246.25,-126 246.25,-126 246.25,-154 246.25,-154 246.25,-160 240.25,-166 234.25,-166 234.25,-166 169.25,-166 169.25,-166 163.25,-166 157.25,-160 157.25,-154 157.25,-154 157.25,-126 157.25,-126 157.25,-120 163.25,-114 169.25,-114"/>
<text text-anchor="middle" x="201.75" y="-153.45" font-family="Helvetica,sans-Serif" font-weight="bold" font-size="9.00">files&#45;and&#45;dirs</text>
</g>
<g id="clust4" class="cluster">
<title>cluster_src/main/options</title>
<path fill="#ffffff" stroke="black" stroke-width="2" d="M266.25,-150C266.25,-150 412.38,-150 412.38,-150 418.38,-150 424.38,-156 424.38,-162 424.38,-162 424.38,-220 424.38,-220 424.38,-226 418.38,-232 412.38,-232 412.38,-232 266.25,-232 266.25,-232 260.25,-232 254.25,-226 254.25,-220 254.25,-220 254.25,-162 254.25,-162 254.25,-156 260.25,-150 266.25,-150"/>
<text text-anchor="middle" x="339.31" y="-219.45" font-family="Helvetica,sans-Serif" font-weight="bold" font-size="9.00">options</text>
</g>
<g id="clust5" class="cluster">
<title>cluster_src/main/resolve&#45;options</title>
<path fill="#ffffff" stroke="black" stroke-width="2" d="M169.25,-198C169.25,-198 234.25,-198 234.25,-198 240.25,-198 246.25,-204 246.25,-210 246.25,-210 246.25,-238 246.25,-238 246.25,-244 240.25,-250 234.25,-250 234.25,-250 169.25,-250 169.25,-250 163.25,-250 157.25,-244 157.25,-238 157.25,-238 157.25,-210 157.25,-210 157.25,-204 163.25,-198 169.25,-198"/>
<text text-anchor="middle" x="201.75" y="-237.45" font-family="Helvetica,sans-Serif" font-weight="bold" font-size="9.00">resolve&#45;options</text>
</g>
<g id="clust6" class="cluster">
<title>cluster_src/main/rule&#45;set</title>
<path fill="#ffffff" stroke="black" stroke-width="2" d="M169.25,-24C169.25,-24 234.25,-24 234.25,-24 240.25,-24 246.25,-30 246.25,-36 246.25,-36 246.25,-94 246.25,-94 246.25,-100 240.25,-106 234.25,-106 234.25,-106 169.25,-106 169.25,-106 163.25,-106 157.25,-100 157.25,-94 157.25,-94 157.25,-36 157.25,-36 157.25,-30 163.25,-24 169.25,-24"/>
<text text-anchor="middle" x="201.75" y="-93.45" font-family="Helvetica,sans-Serif" font-weight="bold" font-size="9.00">rule&#45;set</text>
</g>
<!-- src/main/cruise.mjs -->
<g id="node1" class="node">
<title>src/main/cruise.mjs</title>
<g id="a_node1"><a xlink:href="src/main/cruise.mjs" xlink:title="cruise.mjs">
<path fill="#ffffcc" stroke="black" d="M143.33,-190.88C143.33,-190.88 97.92,-190.88 97.92,-190.88 94.96,-190.88 92,-187.92 92,-184.96 92,-184.96 92,-179.04 92,-179.04 92,-176.08 94.96,-173.12 97.92,-173.12 97.92,-173.12 143.33,-173.12 143.33,-173.12 146.29,-173.12 149.25,-176.08 149.25,-179.04 149.25,-179.04 149.25,-184.96 149.25,-184.96 149.25,-187.92 146.29,-190.88 143.33,-190.88"/>
<text text-anchor="start" x="100" y="-178.32" font-family="Helvetica,sans-Serif" font-size="9.00">cruise.mjs</text>
</a>
</g>
</g>
<!-- src/main/files&#45;and&#45;dirs/normalize.mjs -->
<g id="node2" class="node">
<title>src/main/files&#45;and&#45;dirs/normalize.mjs</title>
<g id="a_node2"><a xlink:href="src/main/files-and-dirs/normalize.mjs" xlink:title="normalize.mjs">
<path fill="#ffffcc" stroke="black" d="M232.33,-139.88C232.33,-139.88 171.17,-139.88 171.17,-139.88 168.21,-139.88 165.25,-136.92 165.25,-133.96 165.25,-133.96 165.25,-128.04 165.25,-128.04 165.25,-125.08 168.21,-122.12 171.17,-122.12 171.17,-122.12 232.33,-122.12 232.33,-122.12 235.29,-122.12 238.25,-125.08 238.25,-128.04 238.25,-128.04 238.25,-133.96 238.25,-133.96 238.25,-136.92 235.29,-139.88 232.33,-139.88"/>
<text text-anchor="start" x="173.25" y="-127.33" font-family="Helvetica,sans-Serif" font-size="9.00">normalize.mjs</text>
</a>
</g>
</g>
<!-- src/main/cruise.mjs&#45;&gt;src/main/files&#45;and&#45;dirs/normalize.mjs -->
<g id="edge1" class="edge">
<title>src/main/cruise.mjs&#45;&gt;src/main/files&#45;and&#45;dirs/normalize.mjs</title>
<path fill="none" stroke="#000000" stroke-width="2" stroke-dasharray="5,2" stroke-opacity="0.200000" d="M127.95,-172.86C133.52,-165.38 142.33,-154.82 157.5,-144.64"/>
<polygon fill="#000000" fill-opacity="0.200000" stroke="#000000" stroke-width="2" stroke-opacity="0.200000" points="158.96,-145.95 162.94,-140.99 156.73,-142.39 158.96,-145.95"/>
</g>
<!-- src/main/options/normalize.mjs -->
<g id="node3" class="node">
<title>src/main/options/normalize.mjs</title>
<g id="a_node3"><a xlink:href="src/main/options/normalize.mjs" xlink:title="normalize.mjs">
<path fill="#ffffcc" stroke="black" d="M329.33,-205.88C329.33,-205.88 268.17,-205.88 268.17,-205.88 265.21,-205.88 262.25,-202.92 262.25,-199.96 262.25,-199.96 262.25,-194.04 262.25,-194.04 262.25,-191.08 265.21,-188.12 268.17,-188.12 268.17,-188.12 329.33,-188.12 329.33,-188.12 332.29,-188.12 335.25,-191.08 335.25,-194.04 335.25,-194.04 335.25,-199.96 335.25,-199.96 335.25,-202.92 332.29,-205.88 329.33,-205.88"/>
<text text-anchor="start" x="270.25" y="-193.32" font-family="Helvetica,sans-Serif" font-size="9.00">normalize.mjs</text>
</a>
</g>
</g>
<!-- src/main/cruise.mjs&#45;&gt;src/main/options/normalize.mjs -->
<g id="edge2" class="edge">
<title>src/main/cruise.mjs&#45;&gt;src/main/options/normalize.mjs</title>
<path fill="none" stroke="#000000" stroke-width="2" stroke-opacity="0.200000" d="M149.53,-184.38C177.37,-186.75 220.58,-190.43 253.17,-193.2"/>
<polygon fill="#000000" fill-opacity="0.200000" stroke="#000000" stroke-width="2" stroke-opacity="0.200000" points="252.9,-195.54 259.06,-193.96 253.26,-191.36 252.9,-195.54"/>
</g>
<!-- src/main/options/validate.mjs -->
<g id="node4" class="node">
<title>src/main/options/validate.mjs</title>
<g id="a_node4"><a xlink:href="src/main/options/validate.mjs" xlink:title="validate.mjs">
<path fill="#ffffcc" stroke="black" d="M325.21,-175.88C325.21,-175.88 272.29,-175.88 272.29,-175.88 269.33,-175.88 266.38,-172.92 266.38,-169.96 266.38,-169.96 266.38,-164.04 266.38,-164.04 266.38,-161.08 269.33,-158.12 272.29,-158.12 272.29,-158.12 325.21,-158.12 325.21,-158.12 328.17,-158.12 331.12,-161.08 331.12,-164.04 331.12,-164.04 331.12,-169.96 331.12,-169.96 331.12,-172.92 328.17,-175.88 325.21,-175.88"/>
<text text-anchor="start" x="274.38" y="-163.32" font-family="Helvetica,sans-Serif" font-size="9.00">validate.mjs</text>
</a>
</g>
</g>
<!-- src/main/cruise.mjs&#45;&gt;src/main/options/validate.mjs -->
<g id="edge3" class="edge">
<title>src/main/cruise.mjs&#45;&gt;src/main/options/validate.mjs</title>
<path fill="none" stroke="#000000" stroke-width="2" stroke-opacity="0.200000" d="M149.53,-179.62C178.52,-177.15 224.18,-173.27 257.16,-170.46"/>
<polygon fill="#000000" fill-opacity="0.200000" stroke="#000000" stroke-width="2" stroke-opacity="0.200000" points="257.3,-172.3 263.1,-169.7 256.95,-168.11 257.3,-172.3"/>
</g>
<!-- src/main/report&#45;wrap.mjs -->
<g id="node5" class="node">
<title>src/main/report&#45;wrap.mjs</title>
<g id="a_node5"><a xlink:href="src/main/report-wrap.mjs" xlink:title="report&#45;wrap.mjs">
<path fill="#ffffcc" stroke="black" d="M332.71,-282.88C332.71,-282.88 264.79,-282.88 264.79,-282.88 261.83,-282.88 258.88,-279.92 258.88,-276.96 258.88,-276.96 258.88,-271.04 258.88,-271.04 258.88,-268.08 261.83,-265.12 264.79,-265.12 264.79,-265.12 332.71,-265.12 332.71,-265.12 335.67,-265.12 338.62,-268.08 338.62,-271.04 338.62,-271.04 338.62,-276.96 338.62,-276.96 338.62,-279.92 335.67,-282.88 332.71,-282.88"/>
<text text-anchor="start" x="266.88" y="-270.32" font-family="Helvetica,sans-Serif" font-size="9.00">report&#45;wrap.mjs</text>
</a>
</g>
</g>
<!-- src/main/cruise.mjs&#45;&gt;src/main/report&#45;wrap.mjs -->
<g id="edge4" class="edge">
<title>src/main/cruise.mjs&#45;&gt;src/main/report&#45;wrap.mjs</title>
<path fill="none" stroke="#000000" stroke-width="2" stroke-opacity="0.200000" d="M121.67,-191.21C122.33,-211.67 127.13,-260.76 157.25,-282 189.19,-304.53 236.07,-295.78 266.75,-286.04"/>
<polygon fill="#000000" fill-opacity="0.200000" stroke="#000000" stroke-width="2" stroke-opacity="0.200000" points="267.93,-287.19 272.95,-283.3 266.59,-283.21 267.93,-287.19"/>
</g>
<!-- src/main/resolve&#45;options/normalize.mjs -->
<g id="node6" class="node">
<title>src/main/resolve&#45;options/normalize.mjs</title>
<g id="a_node6"><a xlink:href="src/main/resolve-options/normalize.mjs" xlink:title="normalize.mjs">
<path fill="#ffffcc" stroke="black" d="M232.33,-223.88C232.33,-223.88 171.17,-223.88 171.17,-223.88 168.21,-223.88 165.25,-220.92 165.25,-217.96 165.25,-217.96 165.25,-212.04 165.25,-212.04 165.25,-209.08 168.21,-206.12 171.17,-206.12 171.17,-206.12 232.33,-206.12 232.33,-206.12 235.29,-206.12 238.25,-209.08 238.25,-212.04 238.25,-212.04 238.25,-217.96 238.25,-217.96 238.25,-220.92 235.29,-223.88 232.33,-223.88"/>
<text text-anchor="start" x="173.25" y="-211.32" font-family="Helvetica,sans-Serif" font-size="9.00">normalize.mjs</text>
</a>
</g>
</g>
<!-- src/main/cruise.mjs&#45;&gt;src/main/resolve&#45;options/normalize.mjs -->
<g id="edge5" class="edge">
<title>src/main/cruise.mjs&#45;&gt;src/main/resolve&#45;options/normalize.mjs</title>
<path fill="none" stroke="#000000" stroke-width="2" stroke-dasharray="5,2" stroke-opacity="0.200000" d="M136.51,-191.33C142.75,-194.98 150.2,-199.01 157.25,-202 157.63,-202.16 158.01,-202.32 158.4,-202.48"/>
<polygon fill="#000000" fill-opacity="0.200000" stroke="#000000" stroke-width="2" stroke-opacity="0.200000" points="158.41,-204.49 164.77,-204.64 159.9,-200.56 158.41,-204.49"/>
</g>
<!-- src/main/rule&#45;set/normalize.mjs -->
<g id="node7" class="node">
<title>src/main/rule&#45;set/normalize.mjs</title>
<g id="a_node7"><a xlink:href="src/main/rule-set/normalize.mjs" xlink:title="normalize.mjs">
<path fill="#ffffcc" stroke="black" d="M232.33,-49.88C232.33,-49.88 171.17,-49.88 171.17,-49.88 168.21,-49.88 165.25,-46.92 165.25,-43.96 165.25,-43.96 165.25,-38.04 165.25,-38.04 165.25,-35.08 168.21,-32.12 171.17,-32.12 171.17,-32.12 232.33,-32.12 232.33,-32.12 235.29,-32.12 238.25,-35.08 238.25,-38.04 238.25,-38.04 238.25,-43.96 238.25,-43.96 238.25,-46.92 235.29,-49.88 232.33,-49.88"/>
<text text-anchor="start" x="173.25" y="-37.33" font-family="Helvetica,sans-Serif" font-size="9.00">normalize.mjs</text>
</a>
</g>
</g>
<!-- src/main/cruise.mjs&#45;&gt;src/main/rule&#45;set/normalize.mjs -->
<g id="edge6" class="edge">
<title>src/main/cruise.mjs&#45;&gt;src/main/rule&#45;set/normalize.mjs</title>
<path fill="none" stroke="#000000" stroke-width="2" stroke-dasharray="5,2" stroke-opacity="0.200000" d="M121.49,-172.69C121.69,-149.7 125.4,-89.71 157.25,-56 157.52,-55.71 157.8,-55.43 158.09,-55.15"/>
<polygon fill="#000000" fill-opacity="0.200000" stroke="#000000" stroke-width="2" stroke-opacity="0.200000" points="159.28,-56.36 162.79,-51.06 156.74,-53.01 159.28,-56.36"/>
</g>
<!-- src/main/rule&#45;set/validate.mjs -->
<g id="node8" class="node">
<title>src/main/rule&#45;set/validate.mjs</title>
<g id="a_node8"><a xlink:href="src/main/rule-set/validate.mjs" xlink:title="validate.mjs">
<path fill="#ffffcc" stroke="black" d="M228.21,-79.88C228.21,-79.88 175.29,-79.88 175.29,-79.88 172.33,-79.88 169.38,-76.92 169.38,-73.96 169.38,-73.96 169.38,-68.04 169.38,-68.04 169.38,-65.08 172.33,-62.12 175.29,-62.12 175.29,-62.12 228.21,-62.12 228.21,-62.12 231.17,-62.12 234.12,-65.08 234.12,-68.04 234.12,-68.04 234.12,-73.96 234.12,-73.96 234.12,-76.92 231.17,-79.88 228.21,-79.88"/>
<text text-anchor="start" x="177.38" y="-67.33" font-family="Helvetica,sans-Serif" font-size="9.00">validate.mjs</text>
</a>
</g>
</g>
<!-- src/main/cruise.mjs&#45;&gt;src/main/rule&#45;set/validate.mjs -->
<g id="edge7" class="edge">
<title>src/main/cruise.mjs&#45;&gt;src/main/rule&#45;set/validate.mjs</title>
<path fill="none" stroke="#000000" stroke-width="2" stroke-dasharray="5,2" stroke-opacity="0.200000" d="M125.05,-172.66C130.51,-158.47 142.14,-131.04 157.25,-111 164.3,-101.66 173.7,-92.7 181.96,-85.64"/>
<polygon fill="#000000" fill-opacity="0.200000" stroke="#000000" stroke-width="2" stroke-opacity="0.200000" points="183.27,-86.63 186.55,-81.18 180.59,-83.39 183.27,-86.63"/>
</g>
<!-- src/main/helpers.mjs -->
<g id="node10" class="node">
<title>src/main/helpers.mjs</title>
<g id="a_node10"><a xlink:href="src/main/helpers.mjs" xlink:title="helpers.mjs">
<path fill="#ffffcc" stroke="black" d="M409.71,-79.88C409.71,-79.88 358.29,-79.88 358.29,-79.88 355.33,-79.88 352.38,-76.92 352.38,-73.96 352.38,-73.96 352.38,-68.04 352.38,-68.04 352.38,-65.08 355.33,-62.12 358.29,-62.12 358.29,-62.12 409.71,-62.12 409.71,-62.12 412.67,-62.12 415.62,-65.08 415.62,-68.04 415.62,-68.04 415.62,-73.96 415.62,-73.96 415.62,-76.92 412.67,-79.88 409.71,-79.88"/>
<text text-anchor="start" x="360.38" y="-67.33" font-family="Helvetica,sans-Serif" font-size="9.00">helpers.mjs</text>
</a>
</g>
</g>
<!-- src/main/options/normalize.mjs&#45;&gt;src/main/helpers.mjs -->
<g id="edge13" class="edge">
<title>src/main/options/normalize.mjs&#45;&gt;src/main/helpers.mjs</title>
<path fill="none" stroke="#000000" stroke-width="2" stroke-opacity="0.200000" d="M330.97,-187.84C333.77,-186.19 336.39,-184.26 338.62,-182 350.28,-170.19 345.57,-162.45 351.62,-147 359.55,-126.78 369.14,-103.75 375.61,-88.39"/>
<polygon fill="#000000" fill-opacity="0.200000" stroke="#000000" stroke-width="2" stroke-opacity="0.200000" points="377.62,-88.66 378.03,-82.32 373.76,-87.02 377.62,-88.66"/>
</g>
<!-- src/main/options/defaults.mjs -->
<g id="node13" class="node">
<title>src/main/options/defaults.mjs</title>
<g id="a_node13"><a xlink:href="src/main/options/defaults.mjs" xlink:title="defaults.mjs">
<path fill="#ffffcc" stroke="black" d="M410.46,-205.88C410.46,-205.88 357.54,-205.88 357.54,-205.88 354.58,-205.88 351.62,-202.92 351.62,-199.96 351.62,-199.96 351.62,-194.04 351.62,-194.04 351.62,-191.08 354.58,-188.12 357.54,-188.12 357.54,-188.12 410.46,-188.12 410.46,-188.12 413.42,-188.12 416.38,-191.08 416.38,-194.04 416.38,-194.04 416.38,-199.96 416.38,-199.96 416.38,-202.92 413.42,-205.88 410.46,-205.88"/>
<text text-anchor="start" x="359.62" y="-193.32" font-family="Helvetica,sans-Serif" font-size="9.00">defaults.mjs</text>
</a>
</g>
</g>
<!-- src/main/options/normalize.mjs&#45;&gt;src/main/options/defaults.mjs -->
<g id="edge14" class="edge">
<title>src/main/options/normalize.mjs&#45;&gt;src/main/options/defaults.mjs</title>
<path fill="none" stroke="#000000" stroke-width="2" stroke-opacity="0.200000" d="M335.54,-197C337.81,-197 340.11,-197 342.41,-197"/>
<polygon fill="#000000" fill-opacity="0.200000" stroke="#000000" stroke-width="2" stroke-opacity="0.200000" points="342.18,-199.1 348.18,-197 342.18,-194.9 342.18,-199.1"/>
</g>
<!-- src/main/rule&#45;set/normalize.mjs&#45;&gt;src/main/helpers.mjs -->
<g id="edge15" class="edge">
<title>src/main/rule&#45;set/normalize.mjs&#45;&gt;src/main/helpers.mjs</title>
<path fill="none" stroke="#000000" stroke-width="2" stroke-opacity="0.200000" d="M238.36,-46.93C268.65,-51.97 312.1,-59.2 343.47,-64.42"/>
<polygon fill="#000000" fill-opacity="0.200000" stroke="#000000" stroke-width="2" stroke-opacity="0.200000" points="343.71,-66.92 349.97,-65.84 344.4,-62.78 343.71,-66.92"/>
</g>
<!-- src/main/rule&#45;set/validate.mjs&#45;&gt;src/main/options/validate.mjs -->
<g id="edge17" class="edge">
<title>src/main/rule&#45;set/validate.mjs&#45;&gt;src/main/options/validate.mjs</title>
<path fill="none" stroke="#000000" stroke-width="2" stroke-opacity="0.200000" d="M216.75,-80.15C226.58,-87.34 239.19,-98.25 246.25,-111 255.67,-128.01 241.26,-139.54 254.25,-154 255.58,-155.48 257.06,-156.79 258.67,-157.95"/>
<polygon fill="#000000" fill-opacity="0.200000" stroke="#000000" stroke-width="2" stroke-opacity="0.200000" points="258.03,-160.11 264.3,-161.18 260.07,-156.44 258.03,-160.11"/>
</g>
<!-- src/main/rule&#45;set/validate.mjs&#45;&gt;src/main/helpers.mjs -->
<g id="edge16" class="edge">
<title>src/main/rule&#45;set/validate.mjs&#45;&gt;src/main/helpers.mjs</title>
<path fill="none" stroke="#000000" stroke-width="2" stroke-opacity="0.200000" d="M234.56,-71C264.86,-71 310.57,-71 343.26,-71"/>
<polygon fill="#000000" fill-opacity="0.200000" stroke="#000000" stroke-width="2" stroke-opacity="0.200000" points="343.11,-73.1 349.11,-71 343.11,-68.9 343.11,-73.1"/>
</g>
<!-- src/main/format.mjs -->
<g id="node9" class="node">
<title>src/main/format.mjs</title>
<g id="a_node9"><a xlink:href="src/main/format.mjs" xlink:title="format.mjs">
<path fill="#ffffcc" stroke="black" d="M224.83,-275.88C224.83,-275.88 178.67,-275.88 178.67,-275.88 175.71,-275.88 172.75,-272.92 172.75,-269.96 172.75,-269.96 172.75,-264.04 172.75,-264.04 172.75,-261.08 175.71,-258.12 178.67,-258.12 178.67,-258.12 224.83,-258.12 224.83,-258.12 227.79,-258.12 230.75,-261.08 230.75,-264.04 230.75,-264.04 230.75,-269.96 230.75,-269.96 230.75,-272.92 227.79,-275.88 224.83,-275.88"/>
<text text-anchor="start" x="180.75" y="-263.32" font-family="Helvetica,sans-Serif" font-size="9.00">format.mjs</text>
</a>
</g>
</g>
<!-- src/main/format.mjs&#45;&gt;src/main/options/normalize.mjs -->
<g id="edge8" class="edge">
<title>src/main/format.mjs&#45;&gt;src/main/options/normalize.mjs</title>
<path fill="none" stroke="#000000" stroke-width="2" stroke-opacity="0.200000" d="M231.12,-262.68C236.81,-260.6 242.27,-257.53 246.25,-253 259.09,-238.41 241.26,-224.46 254.25,-210 254.53,-209.69 254.81,-209.39 255.1,-209.1"/>
<polygon fill="#000000" fill-opacity="0.200000" stroke="#000000" stroke-width="2" stroke-opacity="0.200000" points="256.48,-210.19 260.02,-204.9 253.96,-206.83 256.48,-210.19"/>
</g>
<!-- src/main/format.mjs&#45;&gt;src/main/options/validate.mjs -->
<g id="edge9" class="edge">
<title>src/main/format.mjs&#45;&gt;src/main/options/validate.mjs</title>
<path fill="none" stroke="#000000" stroke-width="2" stroke-opacity="0.200000" d="M230.91,-263.05C236.76,-260.96 242.33,-257.79 246.25,-253 266.36,-228.42 234.39,-206.78 254.25,-182 255.51,-180.43 256.94,-179.02 258.5,-177.76"/>
<polygon fill="#000000" fill-opacity="0.200000" stroke="#000000" stroke-width="2" stroke-opacity="0.200000" points="260,-179.07 264,-174.13 257.8,-175.49 260,-179.07"/>
</g>
<!-- src/main/format.mjs&#45;&gt;src/main/report&#45;wrap.mjs -->
<g id="edge10" class="edge">
<title>src/main/format.mjs&#45;&gt;src/main/report&#45;wrap.mjs</title>
<path fill="none" stroke="#000000" stroke-width="2" stroke-opacity="0.200000" d="M231,-269.08C236.94,-269.52 243.36,-269.99 249.8,-270.47"/>
<polygon fill="#000000" fill-opacity="0.200000" stroke="#000000" stroke-width="2" stroke-opacity="0.200000" points="249.4,-272.76 255.54,-271.11 249.71,-268.58 249.4,-272.76"/>
</g>
<!-- src/main/index.d.ts -->
<g id="node11" class="node">
<title>src/main/index.d.ts</title>
<g id="a_node11"><a xlink:href="src/main/index.d.ts" xlink:title="index.d.ts">
<path fill="#ccffcc" stroke="black" d="M73.08,-277.88C73.08,-277.88 29.92,-277.88 29.92,-277.88 26.96,-277.88 24,-274.92 24,-271.96 24,-271.96 24,-266.04 24,-266.04 24,-263.08 26.96,-260.12 29.92,-260.12 29.92,-260.12 73.08,-260.12 73.08,-260.12 76.04,-260.12 79,-263.08 79,-266.04 79,-266.04 79,-271.96 79,-271.96 79,-274.92 76.04,-277.88 73.08,-277.88"/>
<text text-anchor="start" x="32" y="-265.32" font-family="Helvetica,sans-Serif" font-size="9.00">index.d.ts</text>
</a>
</g>
</g>
<!-- src/main/index.mjs -->
<g id="node12" class="node">
<title>src/main/index.mjs</title>
<g id="a_node12"><a xlink:href="src/main/index.mjs" xlink:title="index.mjs">
<path fill="#ffffcc" stroke="black" d="M73.08,-209.88C73.08,-209.88 29.92,-209.88 29.92,-209.88 26.96,-209.88 24,-206.92 24,-203.96 24,-203.96 24,-198.04 24,-198.04 24,-195.08 26.96,-192.12 29.92,-192.12 29.92,-192.12 73.08,-192.12 73.08,-192.12 76.04,-192.12 79,-195.08 79,-198.04 79,-198.04 79,-203.96 79,-203.96 79,-206.92 76.04,-209.88 73.08,-209.88"/>
<text text-anchor="start" x="32" y="-197.32" font-family="Helvetica,sans-Serif" font-size="9.00">index.mjs</text>
</a>
</g>
</g>
<!-- src/main/index.mjs&#45;&gt;src/main/cruise.mjs -->
<g id="edge11" class="edge">
<title>src/main/index.mjs&#45;&gt;src/main/cruise.mjs</title>
<path fill="none" stroke="#000000" stroke-width="2" stroke-opacity="0.200000" d="M79.42,-193.38C80.69,-193.02 81.98,-192.65 83.28,-192.29"/>
<polygon fill="#000000" fill-opacity="0.200000" stroke="#000000" stroke-width="2" stroke-opacity="0.200000" points="84.62,-193.52 89.83,-189.87 83.48,-189.48 84.62,-193.52"/>
</g>
<!-- src/main/index.mjs&#45;&gt;src/main/format.mjs -->
<g id="edge12" class="edge">
<title>src/main/index.mjs&#45;&gt;src/main/format.mjs</title>
<path fill="none" stroke="#000000" stroke-width="2" stroke-opacity="0.200000" d="M69.2,-210.26C89.57,-221.34 125.27,-240 157.25,-253 159.52,-253.92 161.88,-254.83 164.27,-255.71"/>
<polygon fill="#000000" fill-opacity="0.200000" stroke="#000000" stroke-width="2" stroke-opacity="0.200000" points="164.09,-257.57 170.45,-257.57 165.48,-253.6 164.09,-257.57"/>
</g>
</g>
</svg>
