<?xml version="1.0" encoding="UTF-8" standalone="no"?>
<!DOCTYPE svg PUBLIC "-//W3C//DTD SVG 1.1//EN"
 "http://www.w3.org/Graphics/SVG/1.1/DTD/svg11.dtd">
<!-- Generated by graphviz version 6.0.1 (20220911.1526)
 -->
<!-- Title: dependency&#45;cruiser output Pages: 1 -->
<svg width="462pt" height="348pt"
 viewBox="0.00 0.00 461.50 348.00" xmlns="http://www.w3.org/2000/svg" xmlns:xlink="http://www.w3.org/1999/xlink">
<g id="graph0" class="graph" transform="scale(1 1) rotate(0) translate(4 344)">
<title>dependency&#45;cruiser output</title>
<polygon fill="white" stroke="none" points="-4,4 -4,-344 457.5,-344 457.5,4 -4,4"/>
<g id="clust1" class="cluster">
<title>cluster_src</title>
<path fill="#ffffff" stroke="black" stroke-width="2" d="M20,-8C20,-8 433.5,-8 433.5,-8 439.5,-8 445.5,-14 445.5,-20 445.5,-20 445.5,-320 445.5,-320 445.5,-326 439.5,-332 433.5,-332 433.5,-332 20,-332 20,-332 14,-332 8,-326 8,-320 8,-320 8,-20 8,-20 8,-14 14,-8 20,-8"/>
<text text-anchor="middle" x="226.75" y="-320.8" font-family="Helvetica,sans-Serif" font-weight="bold" font-size="9.00">src</text>
</g>
<g id="clust2" class="cluster">
<title>cluster_src/main</title>
<path fill="#ffffff" stroke="black" stroke-width="2" d="M28,-16C28,-16 425.5,-16 425.5,-16 431.5,-16 437.5,-22 437.5,-28 437.5,-28 437.5,-294 437.5,-294 437.5,-300 431.5,-306 425.5,-306 425.5,-306 28,-306 28,-306 22,-306 16,-300 16,-294 16,-294 16,-28 16,-28 16,-22 22,-16 28,-16"/>
<text text-anchor="middle" x="226.75" y="-294.8" font-family="Helvetica,sans-Serif" font-weight="bold" font-size="9.00">main</text>
</g>
<g id="clust3" class="cluster">
<title>cluster_src/main/files&#45;and&#45;dirs</title>
<path fill="#ffffff" stroke="black" stroke-width="2" d="M114.5,-24C114.5,-24 172.5,-24 172.5,-24 178.5,-24 184.5,-30 184.5,-36 184.5,-36 184.5,-64 184.5,-64 184.5,-70 178.5,-76 172.5,-76 172.5,-76 114.5,-76 114.5,-76 108.5,-76 102.5,-70 102.5,-64 102.5,-64 102.5,-36 102.5,-36 102.5,-30 108.5,-24 114.5,-24"/>
<text text-anchor="middle" x="143.5" y="-64.8" font-family="Helvetica,sans-Serif" font-weight="bold" font-size="9.00">files&#45;and&#45;dirs</text>
</g>
<g id="clust4" class="cluster">
<title>cluster_src/main/options</title>
<path fill="#ffffff" stroke="black" stroke-width="2" d="M221.5,-103C221.5,-103 385.5,-103 385.5,-103 391.5,-103 397.5,-109 397.5,-115 397.5,-115 397.5,-173 397.5,-173 397.5,-179 391.5,-185 385.5,-185 385.5,-185 221.5,-185 221.5,-185 215.5,-185 209.5,-179 209.5,-173 209.5,-173 209.5,-115 209.5,-115 209.5,-109 215.5,-103 221.5,-103"/>
<text text-anchor="middle" x="303.5" y="-173.8" font-family="Helvetica,sans-Serif" font-weight="bold" font-size="9.00">options</text>
</g>
<g id="clust5" class="cluster">
<title>cluster_src/main/resolve&#45;options</title>
<path fill="#ffffff" stroke="black" stroke-width="2" d="M114.5,-138C114.5,-138 173.5,-138 173.5,-138 179.5,-138 185.5,-144 185.5,-150 185.5,-150 185.5,-178 185.5,-178 185.5,-184 179.5,-190 173.5,-190 173.5,-190 114.5,-190 114.5,-190 108.5,-190 102.5,-184 102.5,-178 102.5,-178 102.5,-150 102.5,-150 102.5,-144 108.5,-138 114.5,-138"/>
<text text-anchor="middle" x="144" y="-178.8" font-family="Helvetica,sans-Serif" font-weight="bold" font-size="9.00">resolve&#45;options</text>
</g>
<g id="clust6" class="cluster">
<title>cluster_src/main/rule&#45;set</title>
<path fill="#ffffff" stroke="black" stroke-width="2" d="M114.5,-198C114.5,-198 172.5,-198 172.5,-198 178.5,-198 184.5,-204 184.5,-210 184.5,-210 184.5,-268 184.5,-268 184.5,-274 178.5,-280 172.5,-280 172.5,-280 114.5,-280 114.5,-280 108.5,-280 102.5,-274 102.5,-268 102.5,-268 102.5,-210 102.5,-210 102.5,-204 108.5,-198 114.5,-198"/>
<text text-anchor="middle" x="143.5" y="-268.8" font-family="Helvetica,sans-Serif" font-weight="bold" font-size="9.00">rule&#45;set</text>
</g>
<g id="clust7" class="cluster">
<title>cluster_src/main/utl</title>
<path fill="#ffffff" stroke="black" stroke-width="2" d="M303.5,-198C303.5,-198 417.5,-198 417.5,-198 423.5,-198 429.5,-204 429.5,-210 429.5,-210 429.5,-238 429.5,-238 429.5,-244 423.5,-250 417.5,-250 417.5,-250 303.5,-250 303.5,-250 297.5,-250 291.5,-244 291.5,-238 291.5,-238 291.5,-210 291.5,-210 291.5,-204 297.5,-198 303.5,-198"/>
<text text-anchor="middle" x="360.5" y="-238.8" font-family="Helvetica,sans-Serif" font-weight="bold" font-size="9.00">utl</text>
</g>
<!-- src/main/files&#45;and&#45;dirs/normalize.js -->
<g id="node1" class="node">
<title>src/main/files&#45;and&#45;dirs/normalize.js</title>
<g id="a_node1"><a xlink:href="src/main/files-and-dirs/normalize.js" xlink:title="normalize.js">
<path fill="#ffffcc" stroke="black" d="M170.5,-50C170.5,-50 116.5,-50 116.5,-50 113.5,-50 110.5,-47 110.5,-44 110.5,-44 110.5,-38 110.5,-38 110.5,-35 113.5,-32 116.5,-32 116.5,-32 170.5,-32 170.5,-32 173.5,-32 176.5,-35 176.5,-38 176.5,-38 176.5,-44 176.5,-44 176.5,-47 173.5,-50 170.5,-50"/>
<text text-anchor="start" x="118.5" y="-38.8" font-family="Helvetica,sans-Serif" font-size="9.00">normalize.js</text>
</a>
</g>
</g>
<!-- src/main/index.js -->
<g id="node2" class="node">
<title>src/main/index.js</title>
<g id="a_node2"><a xlink:href="src/main/index.js" xlink:title="index.js">
<path fill="#ffffcc" stroke="black" d="M72,-138C72,-138 30,-138 30,-138 27,-138 24,-135 24,-132 24,-132 24,-126 24,-126 24,-123 27,-120 30,-120 30,-120 72,-120 72,-120 75,-120 78,-123 78,-126 78,-126 78,-132 78,-132 78,-135 75,-138 72,-138"/>
<text text-anchor="start" x="35" y="-126.8" font-family="Helvetica,sans-Serif" font-size="9.00">index.js</text>
</a>
</g>
</g>
<!-- src/main/index.js&#45;&gt;src/main/files&#45;and&#45;dirs/normalize.js -->
<g id="edge1" class="edge">
<title>src/main/index.js&#45;&gt;src/main/files&#45;and&#45;dirs/normalize.js</title>
<path fill="none" stroke="#000000" stroke-width="2" stroke-opacity="0.200000" d="M55.81,-119.7C62.75,-103.89 78.94,-71.77 102.5,-54 103.23,-53.45 103.98,-52.92 104.75,-52.42"/>
<polygon fill="#000000" fill-opacity="0.200000" stroke="#000000" stroke-width="2" stroke-opacity="0.200000" points="105.92,-54.17 110.1,-49.39 103.85,-50.52 105.92,-54.17"/>
</g>
<!-- src/main/options/normalize.js -->
<g id="node3" class="node">
<title>src/main/options/normalize.js</title>
<g id="a_node3"><a xlink:href="src/main/options/normalize.js" xlink:title="normalize.js">
<path fill="#ffffcc" stroke="black" d="M277.5,-129C277.5,-129 223.5,-129 223.5,-129 220.5,-129 217.5,-126 217.5,-123 217.5,-123 217.5,-117 217.5,-117 217.5,-114 220.5,-111 223.5,-111 223.5,-111 277.5,-111 277.5,-111 280.5,-111 283.5,-114 283.5,-117 283.5,-117 283.5,-123 283.5,-123 283.5,-126 280.5,-129 277.5,-129"/>
<text text-anchor="start" x="225.5" y="-117.8" font-family="Helvetica,sans-Serif" font-size="9.00">normalize.js</text>
</a>
</g>
</g>
<!-- src/main/index.js&#45;&gt;src/main/options/normalize.js -->
<g id="edge2" class="edge">
<title>src/main/index.js&#45;&gt;src/main/options/normalize.js</title>
<path fill="none" stroke="#000000" stroke-width="2" stroke-opacity="0.200000" d="M78.2,-126.7C86.01,-126.07 94.6,-125.45 102.5,-125 139.39,-122.91 181.55,-121.59 211.23,-120.83"/>
<polygon fill="#000000" fill-opacity="0.200000" stroke="#000000" stroke-width="2" stroke-opacity="0.200000" points="211.42,-122.93 217.36,-120.68 211.31,-118.73 211.42,-122.93"/>
</g>
<!-- src/main/options/validate.js -->
<g id="node4" class="node">
<title>src/main/options/validate.js</title>
<g id="a_node4"><a xlink:href="src/main/options/validate.js" xlink:title="validate.js">
<path fill="#ffffcc" stroke="black" d="M273.5,-159C273.5,-159 227.5,-159 227.5,-159 224.5,-159 221.5,-156 221.5,-153 221.5,-153 221.5,-147 221.5,-147 221.5,-144 224.5,-141 227.5,-141 227.5,-141 273.5,-141 273.5,-141 276.5,-141 279.5,-144 279.5,-147 279.5,-147 279.5,-153 279.5,-153 279.5,-156 276.5,-159 273.5,-159"/>
<text text-anchor="start" x="229.5" y="-147.8" font-family="Helvetica,sans-Serif" font-size="9.00">validate.js</text>
</a>
</g>
</g>
<!-- src/main/index.js&#45;&gt;src/main/options/validate.js -->
<g id="edge3" class="edge">
<title>src/main/index.js&#45;&gt;src/main/options/validate.js</title>
<path fill="none" stroke="#000000" stroke-width="2" stroke-opacity="0.200000" d="M78.22,-128.75C105.24,-128.83 148.5,-129.88 185.5,-135 195.33,-136.36 205.87,-138.53 215.49,-140.8"/>
<polygon fill="#000000" fill-opacity="0.200000" stroke="#000000" stroke-width="2" stroke-opacity="0.200000" points="215.03,-142.84 221.36,-142.22 216.02,-138.76 215.03,-142.84"/>
</g>
<!-- src/main/report&#45;wrap.js -->
<g id="node5" class="node">
<title>src/main/report&#45;wrap.js</title>
<g id="a_node5"><a xlink:href="src/main/report-wrap.js" xlink:title="report&#45;wrap.js">
<path fill="#ffffcc" stroke="black" d="M174,-102C174,-102 113,-102 113,-102 110,-102 107,-99 107,-96 107,-96 107,-90 107,-90 107,-87 110,-84 113,-84 113,-84 174,-84 174,-84 177,-84 180,-87 180,-90 180,-90 180,-96 180,-96 180,-99 177,-102 174,-102"/>
<text text-anchor="start" x="115" y="-90.8" font-family="Helvetica,sans-Serif" font-size="9.00">report&#45;wrap.js</text>
</a>
</g>
</g>
<!-- src/main/index.js&#45;&gt;src/main/report&#45;wrap.js -->
<g id="edge4" class="edge">
<title>src/main/index.js&#45;&gt;src/main/report&#45;wrap.js</title>
<path fill="none" stroke="#000000" stroke-width="2" stroke-opacity="0.200000" d="M74.84,-119.92C86.73,-115.18 101.4,-109.35 114.03,-104.33"/>
<polygon fill="#000000" fill-opacity="0.200000" stroke="#000000" stroke-width="2" stroke-opacity="0.200000" points="114.87,-106.25 119.67,-102.08 113.32,-102.35 114.87,-106.25"/>
</g>
<!-- src/main/resolve&#45;options/normalize.js -->
<g id="node6" class="node">
<title>src/main/resolve&#45;options/normalize.js</title>
<g id="a_node6"><a xlink:href="src/main/resolve-options/normalize.js" xlink:title="normalize.js">
<path fill="#ffffcc" stroke="black" d="M170.5,-164C170.5,-164 116.5,-164 116.5,-164 113.5,-164 110.5,-161 110.5,-158 110.5,-158 110.5,-152 110.5,-152 110.5,-149 113.5,-146 116.5,-146 116.5,-146 170.5,-146 170.5,-146 173.5,-146 176.5,-149 176.5,-152 176.5,-152 176.5,-158 176.5,-158 176.5,-161 173.5,-164 170.5,-164"/>
<text text-anchor="start" x="118.5" y="-152.8" font-family="Helvetica,sans-Serif" font-size="9.00">normalize.js</text>
</a>
</g>
</g>
<!-- src/main/index.js&#45;&gt;src/main/resolve&#45;options/normalize.js -->
<g id="edge5" class="edge">
<title>src/main/index.js&#45;&gt;src/main/resolve&#45;options/normalize.js</title>
<path fill="none" stroke="#000000" stroke-width="2" stroke-opacity="0.200000" d="M78.18,-136.52C86.57,-138.93 96.03,-141.65 105.07,-144.25"/>
<polygon fill="#000000" fill-opacity="0.200000" stroke="#000000" stroke-width="2" stroke-opacity="0.200000" points="104.58,-146.29 110.93,-145.93 105.74,-142.26 104.58,-146.29"/>
</g>
<!-- src/main/rule&#45;set/normalize.js -->
<g id="node7" class="node">
<title>src/main/rule&#45;set/normalize.js</title>
<g id="a_node7"><a xlink:href="src/main/rule-set/normalize.js" xlink:title="normalize.js">
<path fill="#ffffcc" stroke="black" d="M170.5,-254C170.5,-254 116.5,-254 116.5,-254 113.5,-254 110.5,-251 110.5,-248 110.5,-248 110.5,-242 110.5,-242 110.5,-239 113.5,-236 116.5,-236 116.5,-236 170.5,-236 170.5,-236 173.5,-236 176.5,-239 176.5,-242 176.5,-242 176.5,-248 176.5,-248 176.5,-251 173.5,-254 170.5,-254"/>
<text text-anchor="start" x="118.5" y="-242.8" font-family="Helvetica,sans-Serif" font-size="9.00">normalize.js</text>
</a>
</g>
</g>
<!-- src/main/index.js&#45;&gt;src/main/rule&#45;set/normalize.js -->
<g id="edge6" class="edge">
<title>src/main/index.js&#45;&gt;src/main/rule&#45;set/normalize.js</title>
<path fill="none" stroke="#000000" stroke-width="2" stroke-opacity="0.200000" d="M54.16,-138.2C59.22,-157.81 73.65,-204.03 102.5,-230 103.53,-230.93 104.62,-231.8 105.76,-232.62"/>
<polygon fill="#000000" fill-opacity="0.200000" stroke="#000000" stroke-width="2" stroke-opacity="0.200000" points="104.82,-234.51 111.03,-235.89 107.04,-230.94 104.82,-234.51"/>
</g>
<!-- src/main/rule&#45;set/validate.js -->
<g id="node8" class="node">
<title>src/main/rule&#45;set/validate.js</title>
<g id="a_node8"><a xlink:href="src/main/rule-set/validate.js" xlink:title="validate.js">
<path fill="#ffffcc" stroke="black" d="M166.5,-224C166.5,-224 120.5,-224 120.5,-224 117.5,-224 114.5,-221 114.5,-218 114.5,-218 114.5,-212 114.5,-212 114.5,-209 117.5,-206 120.5,-206 120.5,-206 166.5,-206 166.5,-206 169.5,-206 172.5,-209 172.5,-212 172.5,-212 172.5,-218 172.5,-218 172.5,-221 169.5,-224 166.5,-224"/>
<text text-anchor="start" x="122.5" y="-212.8" font-family="Helvetica,sans-Serif" font-size="9.00">validate.js</text>
</a>
</g>
</g>
<!-- src/main/index.js&#45;&gt;src/main/rule&#45;set/validate.js -->
<g id="edge7" class="edge">
<title>src/main/index.js&#45;&gt;src/main/rule&#45;set/validate.js</title>
<path fill="none" stroke="#000000" stroke-width="2" stroke-opacity="0.200000" d="M57.57,-138.22C65.99,-151.58 83.06,-176.53 102.5,-193 106.85,-196.69 111.92,-200.04 116.95,-202.95"/>
<polygon fill="#000000" fill-opacity="0.200000" stroke="#000000" stroke-width="2" stroke-opacity="0.200000" points="116.1,-204.88 122.37,-205.94 118.13,-201.2 116.1,-204.88"/>
</g>
<!-- src/main/options/defaults.js -->
<g id="node9" class="node">
<title>src/main/options/defaults.js</title>
<g id="a_node9"><a xlink:href="src/main/options/defaults.js" xlink:title="defaults.js">
<path fill="#ffffcc" stroke="black" d="M383.5,-129C383.5,-129 337.5,-129 337.5,-129 334.5,-129 331.5,-126 331.5,-123 331.5,-123 331.5,-117 331.5,-117 331.5,-114 334.5,-111 337.5,-111 337.5,-111 383.5,-111 383.5,-111 386.5,-111 389.5,-114 389.5,-117 389.5,-117 389.5,-123 389.5,-123 389.5,-126 386.5,-129 383.5,-129"/>
<text text-anchor="start" x="339.5" y="-117.8" font-family="Helvetica,sans-Serif" font-size="9.00">defaults.js</text>
</a>
</g>
</g>
<!-- src/main/options/normalize.js&#45;&gt;src/main/options/defaults.js -->
<g id="edge9" class="edge">
<title>src/main/options/normalize.js&#45;&gt;src/main/options/defaults.js</title>
<path fill="none" stroke="#000000" stroke-width="2" stroke-opacity="0.200000" d="M283.61,-120C296.65,-120 311.74,-120 325.01,-120"/>
<polygon fill="#000000" fill-opacity="0.200000" stroke="#000000" stroke-width="2" stroke-opacity="0.200000" points="325.36,-122.1 331.36,-120 325.36,-117.9 325.36,-122.1"/>
</g>
<!-- src/main/utl/normalize&#45;re&#45;properties.js -->
<g id="node10" class="node">
<title>src/main/utl/normalize&#45;re&#45;properties.js</title>
<g id="a_node10"><a xlink:href="src/main/utl/normalize-re-properties.js" xlink:title="normalize&#45;re&#45;properties.js">
<path fill="#ffffcc" stroke="black" d="M415.5,-224C415.5,-224 305.5,-224 305.5,-224 302.5,-224 299.5,-221 299.5,-218 299.5,-218 299.5,-212 299.5,-212 299.5,-209 302.5,-206 305.5,-206 305.5,-206 415.5,-206 415.5,-206 418.5,-206 421.5,-209 421.5,-212 421.5,-212 421.5,-218 421.5,-218 421.5,-221 418.5,-224 415.5,-224"/>
<text text-anchor="start" x="307.5" y="-212.8" font-family="Helvetica,sans-Serif" font-size="9.00">normalize&#45;re&#45;properties.js</text>
</a>
</g>
</g>
<!-- src/main/options/normalize.js&#45;&gt;src/main/utl/normalize&#45;re&#45;properties.js -->
<g id="edge8" class="edge">
<title>src/main/options/normalize.js&#45;&gt;src/main/utl/normalize&#45;re&#45;properties.js</title>
<path fill="none" stroke="#000000" stroke-width="2" stroke-opacity="0.200000" d="M277.36,-129.15C279.7,-130.8 281.81,-132.74 283.5,-135 297.75,-154.09 276.68,-169.35 291.5,-188 296.73,-194.58 303.79,-199.56 311.39,-203.33"/>
<polygon fill="#000000" fill-opacity="0.200000" stroke="#000000" stroke-width="2" stroke-opacity="0.200000" points="310.96,-205.44 317.29,-205.98 312.68,-201.61 310.96,-205.44"/>
</g>
<!-- src/main/rule&#45;set/normalize.js&#45;&gt;src/main/utl/normalize&#45;re&#45;properties.js -->
<g id="edge10" class="edge">
<title>src/main/rule&#45;set/normalize.js&#45;&gt;src/main/utl/normalize&#45;re&#45;properties.js</title>
<path fill="none" stroke="#000000" stroke-width="2" stroke-opacity="0.200000" d="M176.69,-240.51C207.38,-236.23 254.52,-229.65 293.25,-224.24"/>
<polygon fill="#000000" fill-opacity="0.200000" stroke="#000000" stroke-width="2" stroke-opacity="0.200000" points="293.74,-226.3 299.39,-223.39 293.16,-222.14 293.74,-226.3"/>
</g>
<!-- src/main/rule&#45;set/validate.js&#45;&gt;src/main/options/validate.js -->
<g id="edge11" class="edge">
<title>src/main/rule&#45;set/validate.js&#45;&gt;src/main/options/validate.js</title>
<path fill="none" stroke="#000000" stroke-width="2" stroke-opacity="0.200000" d="M162.27,-205.96C169.56,-202.12 178.03,-197.5 185.5,-193 201.35,-183.45 218.75,-171.68 231.4,-162.86"/>
<polygon fill="#000000" fill-opacity="0.200000" stroke="#000000" stroke-width="2" stroke-opacity="0.200000" points="232.8,-164.45 236.51,-159.28 230.39,-161.01 232.8,-164.45"/>
</g>
<!-- src/main/rule&#45;set/validate.js&#45;&gt;src/main/utl/normalize&#45;re&#45;properties.js -->
<g id="edge12" class="edge">
<title>src/main/rule&#45;set/validate.js&#45;&gt;src/main/utl/normalize&#45;re&#45;properties.js</title>
<path fill="none" stroke="#000000" stroke-width="2" stroke-opacity="0.200000" d="M172.61,-215C202.97,-215 252.42,-215 292.83,-215"/>
<polygon fill="#000000" fill-opacity="0.200000" stroke="#000000" stroke-width="2" stroke-opacity="0.200000" points="293.23,-217.1 299.23,-215 293.23,-212.9 293.23,-217.1"/>
</g>
</g>
</svg>
