<?xml version="1.0" encoding="UTF-8" standalone="no"?>
<!DOCTYPE svg PUBLIC "-//W3C//DTD SVG 1.1//EN"
 "http://www.w3.org/Graphics/SVG/1.1/DTD/svg11.dtd">
<!-- Generated by graphviz version 2.49.0 (20210828.1703)
 -->
<!-- Title: dependency&#45;cruiser output Pages: 1 -->
<svg width="459pt" height="348pt"
 viewBox="0.00 0.00 458.50 348.00" xmlns="http://www.w3.org/2000/svg" xmlns:xlink="http://www.w3.org/1999/xlink">
<g id="graph0" class="graph" transform="scale(1 1) rotate(0) translate(4 344)">
<title>dependency&#45;cruiser output</title>
<polygon fill="white" stroke="transparent" points="-4,4 -4,-344 454.5,-344 454.5,4 -4,4"/>
<g id="clust1" class="cluster">
<title>cluster_src</title>
<path fill="#ffffff" stroke="black" stroke-width="2" d="M20,-8C20,-8 430.5,-8 430.5,-8 436.5,-8 442.5,-14 442.5,-20 442.5,-20 442.5,-320 442.5,-320 442.5,-326 436.5,-332 430.5,-332 430.5,-332 20,-332 20,-332 14,-332 8,-326 8,-320 8,-320 8,-20 8,-20 8,-14 14,-8 20,-8"/>
<text text-anchor="middle" x="225.25" y="-320.8" font-family="Helvetica,sans-Serif" font-weight="bold" font-size="9.00">src</text>
</g>
<g id="clust2" class="cluster">
<title>cluster_src/main</title>
<path fill="#ffffff" stroke="black" stroke-width="2" d="M28,-16C28,-16 422.5,-16 422.5,-16 428.5,-16 434.5,-22 434.5,-28 434.5,-28 434.5,-294 434.5,-294 434.5,-300 428.5,-306 422.5,-306 422.5,-306 28,-306 28,-306 22,-306 16,-300 16,-294 16,-294 16,-28 16,-28 16,-22 22,-16 28,-16"/>
<text text-anchor="middle" x="225.25" y="-294.8" font-family="Helvetica,sans-Serif" font-weight="bold" font-size="9.00">main</text>
</g>
<g id="clust7" class="cluster">
<title>cluster_src/main/utl</title>
<path fill="#ffffff" stroke="black" stroke-width="2" d="M303.5,-202C303.5,-202 414.5,-202 414.5,-202 420.5,-202 426.5,-208 426.5,-214 426.5,-214 426.5,-242 426.5,-242 426.5,-248 420.5,-254 414.5,-254 414.5,-254 303.5,-254 303.5,-254 297.5,-254 291.5,-248 291.5,-242 291.5,-242 291.5,-214 291.5,-214 291.5,-208 297.5,-202 303.5,-202"/>
<text text-anchor="middle" x="359" y="-242.8" font-family="Helvetica,sans-Serif" font-weight="bold" font-size="9.00">utl</text>
</g>
<g id="clust3" class="cluster">
<title>cluster_src/main/files&#45;and&#45;dirs</title>
<path fill="#ffffff" stroke="black" stroke-width="2" d="M115.5,-24C115.5,-24 172.5,-24 172.5,-24 178.5,-24 184.5,-30 184.5,-36 184.5,-36 184.5,-64 184.5,-64 184.5,-70 178.5,-76 172.5,-76 172.5,-76 115.5,-76 115.5,-76 109.5,-76 103.5,-70 103.5,-64 103.5,-64 103.5,-36 103.5,-36 103.5,-30 109.5,-24 115.5,-24"/>
<text text-anchor="middle" x="144" y="-64.8" font-family="Helvetica,sans-Serif" font-weight="bold" font-size="9.00">files&#45;and&#45;dirs</text>
</g>
<g id="clust4" class="cluster">
<title>cluster_src/main/options</title>
<path fill="#ffffff" stroke="black" stroke-width="2" d="M222.5,-77C222.5,-77 383.5,-77 383.5,-77 389.5,-77 395.5,-83 395.5,-89 395.5,-89 395.5,-147 395.5,-147 395.5,-153 389.5,-159 383.5,-159 383.5,-159 222.5,-159 222.5,-159 216.5,-159 210.5,-153 210.5,-147 210.5,-147 210.5,-89 210.5,-89 210.5,-83 216.5,-77 222.5,-77"/>
<text text-anchor="middle" x="303" y="-147.8" font-family="Helvetica,sans-Serif" font-weight="bold" font-size="9.00">options</text>
</g>
<g id="clust5" class="cluster">
<title>cluster_src/main/resolve&#45;options</title>
<path fill="#ffffff" stroke="black" stroke-width="2" d="M114.5,-138C114.5,-138 174.5,-138 174.5,-138 180.5,-138 186.5,-144 186.5,-150 186.5,-150 186.5,-178 186.5,-178 186.5,-184 180.5,-190 174.5,-190 174.5,-190 114.5,-190 114.5,-190 108.5,-190 102.5,-184 102.5,-178 102.5,-178 102.5,-150 102.5,-150 102.5,-144 108.5,-138 114.5,-138"/>
<text text-anchor="middle" x="144.5" y="-178.8" font-family="Helvetica,sans-Serif" font-weight="bold" font-size="9.00">resolve&#45;options</text>
</g>
<g id="clust6" class="cluster">
<title>cluster_src/main/rule&#45;set</title>
<path fill="#ffffff" stroke="black" stroke-width="2" d="M115.5,-198C115.5,-198 172.5,-198 172.5,-198 178.5,-198 184.5,-204 184.5,-210 184.5,-210 184.5,-268 184.5,-268 184.5,-274 178.5,-280 172.5,-280 172.5,-280 115.5,-280 115.5,-280 109.5,-280 103.5,-274 103.5,-268 103.5,-268 103.5,-210 103.5,-210 103.5,-204 109.5,-198 115.5,-198"/>
<text text-anchor="middle" x="144" y="-268.8" font-family="Helvetica,sans-Serif" font-weight="bold" font-size="9.00">rule&#45;set</text>
</g>
<!-- src/main/files&#45;and&#45;dirs/normalize.js -->
<g id="node1" class="node">
<title>src/main/files&#45;and&#45;dirs/normalize.js</title>
<g id="a_node1"><a xlink:href="src/main/files-and-dirs/normalize.js" xlink:title="normalize.js">
<path fill="#ffffcc" stroke="black" d="M170.5,-50C170.5,-50 117.5,-50 117.5,-50 114.5,-50 111.5,-47 111.5,-44 111.5,-44 111.5,-38 111.5,-38 111.5,-35 114.5,-32 117.5,-32 117.5,-32 170.5,-32 170.5,-32 173.5,-32 176.5,-35 176.5,-38 176.5,-38 176.5,-44 176.5,-44 176.5,-47 173.5,-50 170.5,-50"/>
<text text-anchor="middle" x="144" y="-38.8" font-family="Helvetica,sans-Serif" font-size="9.00">normalize.js</text>
</a>
</g>
</g>
<!-- src/main/index.js -->
<g id="node2" class="node">
<title>src/main/index.js</title>
<g id="a_node2"><a xlink:href="src/main/index.js" xlink:title="index.js">
<path fill="#ffffcc" stroke="black" d="M72,-130C72,-130 30,-130 30,-130 27,-130 24,-127 24,-124 24,-124 24,-118 24,-118 24,-115 27,-112 30,-112 30,-112 72,-112 72,-112 75,-112 78,-115 78,-118 78,-118 78,-124 78,-124 78,-127 75,-130 72,-130"/>
<text text-anchor="middle" x="51" y="-118.8" font-family="Helvetica,sans-Serif" font-size="9.00">index.js</text>
</a>
</g>
</g>
<!-- src/main/index.js&#45;&gt;src/main/files&#45;and&#45;dirs/normalize.js -->
<g id="edge1" class="edge">
<title>src/main/index.js&#45;&gt;src/main/files&#45;and&#45;dirs/normalize.js</title>
<path fill="none" stroke="#000000" stroke-width="2" stroke-opacity="0.200000" d="M56.55,-111.77C64.12,-97.34 80.65,-69.52 102.5,-54 103.49,-53.29 104.53,-52.63 105.59,-51.99"/>
<polygon fill="#000000" fill-opacity="0.200000" stroke="#000000" stroke-width="2" stroke-opacity="0.200000" points="106.78,-53.74 111.13,-49.11 104.84,-50.02 106.78,-53.74"/>
</g>
<!-- src/main/options/normalize.js -->
<g id="node3" class="node">
<title>src/main/options/normalize.js</title>
<g id="a_node3"><a xlink:href="src/main/options/normalize.js" xlink:title="normalize.js">
<path fill="#ffffcc" stroke="black" d="M277.5,-103C277.5,-103 224.5,-103 224.5,-103 221.5,-103 218.5,-100 218.5,-97 218.5,-97 218.5,-91 218.5,-91 218.5,-88 221.5,-85 224.5,-85 224.5,-85 277.5,-85 277.5,-85 280.5,-85 283.5,-88 283.5,-91 283.5,-91 283.5,-97 283.5,-97 283.5,-100 280.5,-103 277.5,-103"/>
<text text-anchor="middle" x="251" y="-91.8" font-family="Helvetica,sans-Serif" font-size="9.00">normalize.js</text>
</a>
</g>
</g>
<!-- src/main/index.js&#45;&gt;src/main/options/normalize.js -->
<g id="edge2" class="edge">
<title>src/main/index.js&#45;&gt;src/main/options/normalize.js</title>
<path fill="none" stroke="#000000" stroke-width="2" stroke-opacity="0.200000" d="M68.75,-111.8C78.33,-107.03 90.75,-101.66 102.5,-99 139.13,-90.72 182.17,-90.28 212.27,-91.42"/>
<polygon fill="#000000" fill-opacity="0.200000" stroke="#000000" stroke-width="2" stroke-opacity="0.200000" points="212.4,-93.53 218.49,-91.68 212.58,-89.33 212.4,-93.53"/>
</g>
<!-- src/main/options/validate.js -->
<g id="node4" class="node">
<title>src/main/options/validate.js</title>
<g id="a_node4"><a xlink:href="src/main/options/validate.js" xlink:title="validate.js">
<path fill="#ffffcc" stroke="black" d="M273.5,-133C273.5,-133 228.5,-133 228.5,-133 225.5,-133 222.5,-130 222.5,-127 222.5,-127 222.5,-121 222.5,-121 222.5,-118 225.5,-115 228.5,-115 228.5,-115 273.5,-115 273.5,-115 276.5,-115 279.5,-118 279.5,-121 279.5,-121 279.5,-127 279.5,-127 279.5,-130 276.5,-133 273.5,-133"/>
<text text-anchor="middle" x="251" y="-121.8" font-family="Helvetica,sans-Serif" font-size="9.00">validate.js</text>
</a>
</g>
</g>
<!-- src/main/index.js&#45;&gt;src/main/options/validate.js -->
<g id="edge3" class="edge">
<title>src/main/index.js&#45;&gt;src/main/options/validate.js</title>
<path fill="none" stroke="#000000" stroke-width="2" stroke-opacity="0.200000" d="M77.11,-111.99C85.12,-109.54 94.08,-107.22 102.5,-106 139.44,-100.63 149.52,-100.86 186.5,-106 197.13,-107.48 208.47,-110.28 218.59,-113.24"/>
<polygon fill="#000000" fill-opacity="0.200000" stroke="#000000" stroke-width="2" stroke-opacity="0.200000" points="218.04,-115.27 224.39,-115 219.26,-111.25 218.04,-115.27"/>
</g>
<!-- src/main/report&#45;wrap.js -->
<g id="node5" class="node">
<title>src/main/report&#45;wrap.js</title>
<g id="a_node5"><a xlink:href="src/main/report-wrap.js" xlink:title="report&#45;wrap.js">
<path fill="#ffffcc" stroke="black" d="M174,-130C174,-130 114,-130 114,-130 111,-130 108,-127 108,-124 108,-124 108,-118 108,-118 108,-115 111,-112 114,-112 114,-112 174,-112 174,-112 177,-112 180,-115 180,-118 180,-118 180,-124 180,-124 180,-127 177,-130 174,-130"/>
<text text-anchor="middle" x="144" y="-118.8" font-family="Helvetica,sans-Serif" font-size="9.00">report&#45;wrap.js</text>
</a>
</g>
</g>
<!-- src/main/index.js&#45;&gt;src/main/report&#45;wrap.js -->
<g id="edge4" class="edge">
<title>src/main/index.js&#45;&gt;src/main/report&#45;wrap.js</title>
<path fill="none" stroke="#000000" stroke-width="2" stroke-opacity="0.200000" d="M78.32,-121C85.68,-121 93.86,-121 101.87,-121"/>
<polygon fill="#000000" fill-opacity="0.200000" stroke="#000000" stroke-width="2" stroke-opacity="0.200000" points="101.93,-123.1 107.93,-121 101.93,-118.9 101.93,-123.1"/>
</g>
<!-- src/main/resolve&#45;options/normalize.js -->
<g id="node6" class="node">
<title>src/main/resolve&#45;options/normalize.js</title>
<g id="a_node6"><a xlink:href="src/main/resolve-options/normalize.js" xlink:title="normalize.js">
<path fill="#ffffcc" stroke="black" d="M170.5,-164C170.5,-164 117.5,-164 117.5,-164 114.5,-164 111.5,-161 111.5,-158 111.5,-158 111.5,-152 111.5,-152 111.5,-149 114.5,-146 117.5,-146 117.5,-146 170.5,-146 170.5,-146 173.5,-146 176.5,-149 176.5,-152 176.5,-152 176.5,-158 176.5,-158 176.5,-161 173.5,-164 170.5,-164"/>
<text text-anchor="middle" x="144" y="-152.8" font-family="Helvetica,sans-Serif" font-size="9.00">normalize.js</text>
</a>
</g>
</g>
<!-- src/main/index.js&#45;&gt;src/main/resolve&#45;options/normalize.js -->
<g id="edge5" class="edge">
<title>src/main/index.js&#45;&gt;src/main/resolve&#45;options/normalize.js</title>
<path fill="none" stroke="#000000" stroke-width="2" stroke-opacity="0.200000" d="M72.98,-130.18C81.99,-134.01 92.7,-138.4 102.5,-142 104.19,-142.62 105.92,-143.24 107.68,-143.86"/>
<polygon fill="#000000" fill-opacity="0.200000" stroke="#000000" stroke-width="2" stroke-opacity="0.200000" points="107.34,-145.96 113.7,-145.92 108.7,-141.99 107.34,-145.96"/>
</g>
<!-- src/main/rule&#45;set/normalize.js -->
<g id="node7" class="node">
<title>src/main/rule&#45;set/normalize.js</title>
<g id="a_node7"><a xlink:href="src/main/rule-set/normalize.js" xlink:title="normalize.js">
<path fill="#ffffcc" stroke="black" d="M170.5,-254C170.5,-254 117.5,-254 117.5,-254 114.5,-254 111.5,-251 111.5,-248 111.5,-248 111.5,-242 111.5,-242 111.5,-239 114.5,-236 117.5,-236 117.5,-236 170.5,-236 170.5,-236 173.5,-236 176.5,-239 176.5,-242 176.5,-242 176.5,-248 176.5,-248 176.5,-251 173.5,-254 170.5,-254"/>
<text text-anchor="middle" x="144" y="-242.8" font-family="Helvetica,sans-Serif" font-size="9.00">normalize.js</text>
</a>
</g>
</g>
<!-- src/main/index.js&#45;&gt;src/main/rule&#45;set/normalize.js -->
<g id="edge6" class="edge">
<title>src/main/index.js&#45;&gt;src/main/rule&#45;set/normalize.js</title>
<path fill="none" stroke="#000000" stroke-width="2" stroke-opacity="0.200000" d="M53.79,-130.3C58.27,-151.09 71.86,-201.7 102.5,-230 103.66,-231.07 104.9,-232.06 106.2,-232.99"/>
<polygon fill="#000000" fill-opacity="0.200000" stroke="#000000" stroke-width="2" stroke-opacity="0.200000" points="105.26,-234.88 111.47,-236.22 107.45,-231.3 105.26,-234.88"/>
</g>
<!-- src/main/rule&#45;set/validate.js -->
<g id="node8" class="node">
<title>src/main/rule&#45;set/validate.js</title>
<g id="a_node8"><a xlink:href="src/main/rule-set/validate.js" xlink:title="validate.js">
<path fill="#ffffcc" stroke="black" d="M166.5,-224C166.5,-224 121.5,-224 121.5,-224 118.5,-224 115.5,-221 115.5,-218 115.5,-218 115.5,-212 115.5,-212 115.5,-209 118.5,-206 121.5,-206 121.5,-206 166.5,-206 166.5,-206 169.5,-206 172.5,-209 172.5,-212 172.5,-212 172.5,-218 172.5,-218 172.5,-221 169.5,-224 166.5,-224"/>
<text text-anchor="middle" x="144" y="-212.8" font-family="Helvetica,sans-Serif" font-size="9.00">validate.js</text>
</a>
</g>
</g>
<!-- src/main/index.js&#45;&gt;src/main/rule&#45;set/validate.js -->
<g id="edge7" class="edge">
<title>src/main/index.js&#45;&gt;src/main/rule&#45;set/validate.js</title>
<path fill="none" stroke="#000000" stroke-width="2" stroke-opacity="0.200000" d="M56.76,-130.44C64.62,-145.29 81.54,-174.3 102.5,-193 106.71,-196.76 111.67,-200.11 116.65,-203"/>
<polygon fill="#000000" fill-opacity="0.200000" stroke="#000000" stroke-width="2" stroke-opacity="0.200000" points="115.76,-204.91 122.03,-205.95 117.78,-201.23 115.76,-204.91"/>
</g>
<!-- src/main/options/defaults.js -->
<g id="node9" class="node">
<title>src/main/options/defaults.js</title>
<g id="a_node9"><a xlink:href="src/main/options/defaults.js" xlink:title="defaults.js">
<path fill="#ffffcc" stroke="black" d="M381.5,-103C381.5,-103 336.5,-103 336.5,-103 333.5,-103 330.5,-100 330.5,-97 330.5,-97 330.5,-91 330.5,-91 330.5,-88 333.5,-85 336.5,-85 336.5,-85 381.5,-85 381.5,-85 384.5,-85 387.5,-88 387.5,-91 387.5,-91 387.5,-97 387.5,-97 387.5,-100 384.5,-103 381.5,-103"/>
<text text-anchor="middle" x="359" y="-91.8" font-family="Helvetica,sans-Serif" font-size="9.00">defaults.js</text>
</a>
</g>
</g>
<!-- src/main/options/normalize.js&#45;&gt;src/main/options/defaults.js -->
<g id="edge9" class="edge">
<title>src/main/options/normalize.js&#45;&gt;src/main/options/defaults.js</title>
<path fill="none" stroke="#000000" stroke-width="2" stroke-opacity="0.200000" d="M283.52,-94C296.31,-94 311.12,-94 324.15,-94"/>
<polygon fill="#000000" fill-opacity="0.200000" stroke="#000000" stroke-width="2" stroke-opacity="0.200000" points="324.38,-96.1 330.38,-94 324.38,-91.9 324.38,-96.1"/>
</g>
<!-- src/main/utl/normalize&#45;re&#45;properties.js -->
<g id="node10" class="node">
<title>src/main/utl/normalize&#45;re&#45;properties.js</title>
<g id="a_node10"><a xlink:href="src/main/utl/normalize-re-properties.js" xlink:title="normalize&#45;re&#45;properties.js">
<path fill="#ffffcc" stroke="black" d="M412.5,-228C412.5,-228 305.5,-228 305.5,-228 302.5,-228 299.5,-225 299.5,-222 299.5,-222 299.5,-216 299.5,-216 299.5,-213 302.5,-210 305.5,-210 305.5,-210 412.5,-210 412.5,-210 415.5,-210 418.5,-213 418.5,-216 418.5,-216 418.5,-222 418.5,-222 418.5,-225 415.5,-228 412.5,-228"/>
<text text-anchor="middle" x="359" y="-216.8" font-family="Helvetica,sans-Serif" font-size="9.00">normalize&#45;re&#45;properties.js</text>
</a>
</g>
</g>
<!-- src/main/options/normalize.js&#45;&gt;src/main/utl/normalize&#45;re&#45;properties.js -->
<g id="edge8" class="edge">
<title>src/main/options/normalize.js&#45;&gt;src/main/utl/normalize&#45;re&#45;properties.js</title>
<path fill="none" stroke="#000000" stroke-width="2" stroke-opacity="0.200000" d="M277.46,-103.2C279.76,-104.84 281.84,-106.76 283.5,-109 297.69,-128.13 279.95,-141.16 291.5,-162 302,-180.95 321.42,-196.47 336.57,-206.5"/>
<polygon fill="#000000" fill-opacity="0.200000" stroke="#000000" stroke-width="2" stroke-opacity="0.200000" points="335.75,-208.47 341.93,-209.94 338.02,-204.93 335.75,-208.47"/>
</g>
<!-- src/main/rule&#45;set/normalize.js&#45;&gt;src/main/utl/normalize&#45;re&#45;properties.js -->
<g id="edge10" class="edge">
<title>src/main/rule&#45;set/normalize.js&#45;&gt;src/main/utl/normalize&#45;re&#45;properties.js</title>
<path fill="none" stroke="#000000" stroke-width="2" stroke-opacity="0.200000" d="M176.89,-241.11C207.51,-237.37 254.68,-231.61 293.2,-226.91"/>
<polygon fill="#000000" fill-opacity="0.200000" stroke="#000000" stroke-width="2" stroke-opacity="0.200000" points="293.6,-228.98 299.31,-226.16 293.1,-224.81 293.6,-228.98"/>
</g>
<!-- src/main/rule&#45;set/validate.js&#45;&gt;src/main/options/validate.js -->
<g id="edge11" class="edge">
<title>src/main/rule&#45;set/validate.js&#45;&gt;src/main/options/validate.js</title>
<path fill="none" stroke="#000000" stroke-width="2" stroke-opacity="0.200000" d="M165.26,-206C172.3,-202.43 180.04,-197.98 186.5,-193 207.39,-176.88 227.29,-153.51 239.07,-138.53"/>
<polygon fill="#000000" fill-opacity="0.200000" stroke="#000000" stroke-width="2" stroke-opacity="0.200000" points="241.01,-139.45 243.03,-133.43 237.69,-136.88 241.01,-139.45"/>
</g>
</g>
</svg>
