<?xml version="1.0" encoding="UTF-8" standalone="no"?>
<!DOCTYPE svg PUBLIC "-//W3C//DTD SVG 1.1//EN"
 "http://www.w3.org/Graphics/SVG/1.1/DTD/svg11.dtd">
<!-- Generated by graphviz version 7.1.0 (20230121.1956)
 -->
<!-- Title: dependency&#45;cruiser output Pages: 1 -->
<svg width="464pt" height="348pt"
 viewBox="0.00 0.00 463.50 348.00" xmlns="http://www.w3.org/2000/svg" xmlns:xlink="http://www.w3.org/1999/xlink">
<g id="graph0" class="graph" transform="scale(1 1) rotate(0) translate(4 344)">
<title>dependency&#45;cruiser output</title>
<polygon fill="white" stroke="none" points="-4,4 -4,-344 459.5,-344 459.5,4 -4,4"/>
<g id="clust1" class="cluster">
<title>cluster_src</title>
<path fill="#ffffff" stroke="black" stroke-width="2" d="M20,-8C20,-8 435.5,-8 435.5,-8 441.5,-8 447.5,-14 447.5,-20 447.5,-20 447.5,-320 447.5,-320 447.5,-326 441.5,-332 435.5,-332 435.5,-332 20,-332 20,-332 14,-332 8,-326 8,-320 8,-320 8,-20 8,-20 8,-14 14,-8 20,-8"/>
<text text-anchor="middle" x="227.75" y="-320.8" font-family="Helvetica,sans-Serif" font-weight="bold" font-size="9.00">src</text>
</g>
<g id="clust2" class="cluster">
<title>cluster_src/main</title>
<path fill="#ffffff" stroke="black" stroke-width="2" d="M28,-16C28,-16 427.5,-16 427.5,-16 433.5,-16 439.5,-22 439.5,-28 439.5,-28 439.5,-294 439.5,-294 439.5,-300 433.5,-306 427.5,-306 427.5,-306 28,-306 28,-306 22,-306 16,-300 16,-294 16,-294 16,-28 16,-28 16,-22 22,-16 28,-16"/>
<text text-anchor="middle" x="227.75" y="-294.8" font-family="Helvetica,sans-Serif" font-weight="bold" font-size="9.00">main</text>
</g>
<g id="clust3" class="cluster">
<title>cluster_src/main/files&#45;and&#45;dirs</title>
<path fill="#ffffff" stroke="black" stroke-width="2" d="M116.5,-24C116.5,-24 174.5,-24 174.5,-24 180.5,-24 186.5,-30 186.5,-36 186.5,-36 186.5,-64 186.5,-64 186.5,-70 180.5,-76 174.5,-76 174.5,-76 116.5,-76 116.5,-76 110.5,-76 104.5,-70 104.5,-64 104.5,-64 104.5,-36 104.5,-36 104.5,-30 110.5,-24 116.5,-24"/>
<text text-anchor="middle" x="145.5" y="-64.8" font-family="Helvetica,sans-Serif" font-weight="bold" font-size="9.00">files&#45;and&#45;dirs</text>
</g>
<g id="clust4" class="cluster">
<title>cluster_src/main/options</title>
<path fill="#ffffff" stroke="black" stroke-width="2" d="M223.5,-103C223.5,-103 387.5,-103 387.5,-103 393.5,-103 399.5,-109 399.5,-115 399.5,-115 399.5,-173 399.5,-173 399.5,-179 393.5,-185 387.5,-185 387.5,-185 223.5,-185 223.5,-185 217.5,-185 211.5,-179 211.5,-173 211.5,-173 211.5,-115 211.5,-115 211.5,-109 217.5,-103 223.5,-103"/>
<text text-anchor="middle" x="305.5" y="-173.8" font-family="Helvetica,sans-Serif" font-weight="bold" font-size="9.00">options</text>
</g>
<g id="clust5" class="cluster">
<title>cluster_src/main/resolve&#45;options</title>
<path fill="#ffffff" stroke="black" stroke-width="2" d="M116.5,-138C116.5,-138 175.5,-138 175.5,-138 181.5,-138 187.5,-144 187.5,-150 187.5,-150 187.5,-178 187.5,-178 187.5,-184 181.5,-190 175.5,-190 175.5,-190 116.5,-190 116.5,-190 110.5,-190 104.5,-184 104.5,-178 104.5,-178 104.5,-150 104.5,-150 104.5,-144 110.5,-138 116.5,-138"/>
<text text-anchor="middle" x="146" y="-178.8" font-family="Helvetica,sans-Serif" font-weight="bold" font-size="9.00">resolve&#45;options</text>
</g>
<g id="clust6" class="cluster">
<title>cluster_src/main/rule&#45;set</title>
<path fill="#ffffff" stroke="black" stroke-width="2" d="M116.5,-198C116.5,-198 174.5,-198 174.5,-198 180.5,-198 186.5,-204 186.5,-210 186.5,-210 186.5,-268 186.5,-268 186.5,-274 180.5,-280 174.5,-280 174.5,-280 116.5,-280 116.5,-280 110.5,-280 104.5,-274 104.5,-268 104.5,-268 104.5,-210 104.5,-210 104.5,-204 110.5,-198 116.5,-198"/>
<text text-anchor="middle" x="145.5" y="-268.8" font-family="Helvetica,sans-Serif" font-weight="bold" font-size="9.00">rule&#45;set</text>
</g>
<g id="clust7" class="cluster">
<title>cluster_src/main/utl</title>
<path fill="#ffffff" stroke="black" stroke-width="2" d="M305.5,-198C305.5,-198 419.5,-198 419.5,-198 425.5,-198 431.5,-204 431.5,-210 431.5,-210 431.5,-238 431.5,-238 431.5,-244 425.5,-250 419.5,-250 419.5,-250 305.5,-250 305.5,-250 299.5,-250 293.5,-244 293.5,-238 293.5,-238 293.5,-210 293.5,-210 293.5,-204 299.5,-198 305.5,-198"/>
<text text-anchor="middle" x="362.5" y="-238.8" font-family="Helvetica,sans-Serif" font-weight="bold" font-size="9.00">utl</text>
</g>
<!-- src/main/files&#45;and&#45;dirs/normalize.js -->
<g id="node1" class="node">
<title>src/main/files&#45;and&#45;dirs/normalize.js</title>
<g id="a_node1"><a xlink:href="src/main/files-and-dirs/normalize.js" xlink:title="normalize.js">
<path fill="#ffffcc" stroke="black" d="M172.5,-50C172.5,-50 118.5,-50 118.5,-50 115.5,-50 112.5,-47 112.5,-44 112.5,-44 112.5,-38 112.5,-38 112.5,-35 115.5,-32 118.5,-32 118.5,-32 172.5,-32 172.5,-32 175.5,-32 178.5,-35 178.5,-38 178.5,-38 178.5,-44 178.5,-44 178.5,-47 175.5,-50 172.5,-50"/>
<text text-anchor="start" x="120.5" y="-38.8" font-family="Helvetica,sans-Serif" font-size="9.00">normalize.js</text>
</a>
</g>
</g>
<!-- src/main/index.d.ts -->
<g id="node2" class="node">
<title>src/main/index.d.ts</title>
<g id="a_node2"><a xlink:href="src/main/index.d.ts" xlink:title="index.d.ts">
<path fill="#ccffcc" stroke="black" d="M74,-224C74,-224 30,-224 30,-224 27,-224 24,-221 24,-218 24,-218 24,-212 24,-212 24,-209 27,-206 30,-206 30,-206 74,-206 74,-206 77,-206 80,-209 80,-212 80,-212 80,-218 80,-218 80,-221 77,-224 74,-224"/>
<text text-anchor="start" x="32" y="-212.8" font-family="Helvetica,sans-Serif" font-size="9.00">index.d.ts</text>
</a>
</g>
</g>
<!-- src/main/index.js -->
<g id="node3" class="node">
<title>src/main/index.js</title>
<g id="a_node3"><a xlink:href="src/main/index.js" xlink:title="index.js">
<path fill="#ffffcc" stroke="black" d="M73,-138C73,-138 31,-138 31,-138 28,-138 25,-135 25,-132 25,-132 25,-126 25,-126 25,-123 28,-120 31,-120 31,-120 73,-120 73,-120 76,-120 79,-123 79,-126 79,-126 79,-132 79,-132 79,-135 76,-138 73,-138"/>
<text text-anchor="start" x="36" y="-126.8" font-family="Helvetica,sans-Serif" font-size="9.00">index.js</text>
</a>
</g>
</g>
<!-- src/main/index.js&#45;&gt;src/main/files&#45;and&#45;dirs/normalize.js -->
<g id="edge1" class="edge">
<title>src/main/index.js&#45;&gt;src/main/files&#45;and&#45;dirs/normalize.js</title>
<path fill="none" stroke="#000000" stroke-width="2" stroke-opacity="0.200000" d="M56.94,-119.7C63.53,-105.12 78.17,-76.69 105.03,-54.82"/>
<polygon fill="#000000" fill-opacity="0.200000" stroke="#000000" stroke-width="2" stroke-opacity="0.200000" points="106.22,-56.56 109.71,-51.25 103.67,-53.22 106.22,-56.56"/>
</g>
<!-- src/main/options/normalize.js -->
<g id="node4" class="node">
<title>src/main/options/normalize.js</title>
<g id="a_node4"><a xlink:href="src/main/options/normalize.js" xlink:title="normalize.js">
<path fill="#ffffcc" stroke="black" d="M279.5,-129C279.5,-129 225.5,-129 225.5,-129 222.5,-129 219.5,-126 219.5,-123 219.5,-123 219.5,-117 219.5,-117 219.5,-114 222.5,-111 225.5,-111 225.5,-111 279.5,-111 279.5,-111 282.5,-111 285.5,-114 285.5,-117 285.5,-117 285.5,-123 285.5,-123 285.5,-126 282.5,-129 279.5,-129"/>
<text text-anchor="start" x="227.5" y="-117.8" font-family="Helvetica,sans-Serif" font-size="9.00">normalize.js</text>
</a>
</g>
</g>
<!-- src/main/index.js&#45;&gt;src/main/options/normalize.js -->
<g id="edge2" class="edge">
<title>src/main/index.js&#45;&gt;src/main/options/normalize.js</title>
<path fill="none" stroke="#000000" stroke-width="2" stroke-opacity="0.200000" d="M79.45,-126.72C87.49,-126.09 96.35,-125.45 104.5,-125 140.2,-123.01 180.82,-121.7 210.3,-120.92"/>
<polygon fill="#000000" fill-opacity="0.200000" stroke="#000000" stroke-width="2" stroke-opacity="0.200000" points="210.11,-123.03 216.05,-120.78 210,-118.83 210.11,-123.03"/>
</g>
<!-- src/main/options/validate.js -->
<g id="node5" class="node">
<title>src/main/options/validate.js</title>
<g id="a_node5"><a xlink:href="src/main/options/validate.js" xlink:title="validate.js">
<path fill="#ffffcc" stroke="black" d="M275.5,-159C275.5,-159 229.5,-159 229.5,-159 226.5,-159 223.5,-156 223.5,-153 223.5,-153 223.5,-147 223.5,-147 223.5,-144 226.5,-141 229.5,-141 229.5,-141 275.5,-141 275.5,-141 278.5,-141 281.5,-144 281.5,-147 281.5,-147 281.5,-153 281.5,-153 281.5,-156 278.5,-159 275.5,-159"/>
<text text-anchor="start" x="231.5" y="-147.8" font-family="Helvetica,sans-Serif" font-size="9.00">validate.js</text>
</a>
</g>
</g>
<!-- src/main/index.js&#45;&gt;src/main/options/validate.js -->
<g id="edge3" class="edge">
<title>src/main/index.js&#45;&gt;src/main/options/validate.js</title>
<path fill="none" stroke="#000000" stroke-width="2" stroke-opacity="0.200000" d="M79.42,-128.74C106.64,-128.8 150.22,-129.85 187.5,-135 196.32,-136.22 205.7,-138.09 214.49,-140.1"/>
<polygon fill="#000000" fill-opacity="0.200000" stroke="#000000" stroke-width="2" stroke-opacity="0.200000" points="213.77,-142.08 220.1,-141.43 214.75,-138 213.77,-142.08"/>
</g>
<!-- src/main/report&#45;wrap.js -->
<g id="node6" class="node">
<title>src/main/report&#45;wrap.js</title>
<g id="a_node6"><a xlink:href="src/main/report-wrap.js" xlink:title="report&#45;wrap.js">
<path fill="#ffffcc" stroke="black" d="M176,-102C176,-102 115,-102 115,-102 112,-102 109,-99 109,-96 109,-96 109,-90 109,-90 109,-87 112,-84 115,-84 115,-84 176,-84 176,-84 179,-84 182,-87 182,-90 182,-90 182,-96 182,-96 182,-99 179,-102 176,-102"/>
<text text-anchor="start" x="117" y="-90.8" font-family="Helvetica,sans-Serif" font-size="9.00">report&#45;wrap.js</text>
</a>
</g>
</g>
<!-- src/main/index.js&#45;&gt;src/main/report&#45;wrap.js -->
<g id="edge4" class="edge">
<title>src/main/index.js&#45;&gt;src/main/report&#45;wrap.js</title>
<path fill="none" stroke="#000000" stroke-width="2" stroke-opacity="0.200000" d="M77.04,-119.54C87.86,-115.28 100.79,-110.2 112.43,-105.62"/>
<polygon fill="#000000" fill-opacity="0.200000" stroke="#000000" stroke-width="2" stroke-opacity="0.200000" points="112.99,-107.65 117.8,-103.5 111.45,-103.75 112.99,-107.65"/>
</g>
<!-- src/main/resolve&#45;options/normalize.js -->
<g id="node7" class="node">
<title>src/main/resolve&#45;options/normalize.js</title>
<g id="a_node7"><a xlink:href="src/main/resolve-options/normalize.js" xlink:title="normalize.js">
<path fill="#ffffcc" stroke="black" d="M172.5,-164C172.5,-164 118.5,-164 118.5,-164 115.5,-164 112.5,-161 112.5,-158 112.5,-158 112.5,-152 112.5,-152 112.5,-149 115.5,-146 118.5,-146 118.5,-146 172.5,-146 172.5,-146 175.5,-146 178.5,-149 178.5,-152 178.5,-152 178.5,-158 178.5,-158 178.5,-161 175.5,-164 172.5,-164"/>
<text text-anchor="start" x="120.5" y="-152.8" font-family="Helvetica,sans-Serif" font-size="9.00">normalize.js</text>
</a>
</g>
</g>
<!-- src/main/index.js&#45;&gt;src/main/resolve&#45;options/normalize.js -->
<g id="edge5" class="edge">
<title>src/main/index.js&#45;&gt;src/main/resolve&#45;options/normalize.js</title>
<path fill="none" stroke="#000000" stroke-width="2" stroke-opacity="0.200000" d="M79.47,-136.52C87.07,-138.68 95.53,-141.09 103.78,-143.43"/>
<polygon fill="#000000" fill-opacity="0.200000" stroke="#000000" stroke-width="2" stroke-opacity="0.200000" points="102.99,-145.39 109.34,-145.01 104.14,-141.35 102.99,-145.39"/>
</g>
<!-- src/main/rule&#45;set/normalize.js -->
<g id="node8" class="node">
<title>src/main/rule&#45;set/normalize.js</title>
<g id="a_node8"><a xlink:href="src/main/rule-set/normalize.js" xlink:title="normalize.js">
<path fill="#ffffcc" stroke="black" d="M172.5,-254C172.5,-254 118.5,-254 118.5,-254 115.5,-254 112.5,-251 112.5,-248 112.5,-248 112.5,-242 112.5,-242 112.5,-239 115.5,-236 118.5,-236 118.5,-236 172.5,-236 172.5,-236 175.5,-236 178.5,-239 178.5,-242 178.5,-242 178.5,-248 178.5,-248 178.5,-251 175.5,-254 172.5,-254"/>
<text text-anchor="start" x="120.5" y="-242.8" font-family="Helvetica,sans-Serif" font-size="9.00">normalize.js</text>
</a>
</g>
</g>
<!-- src/main/index.js&#45;&gt;src/main/rule&#45;set/normalize.js -->
<g id="edge6" class="edge">
<title>src/main/index.js&#45;&gt;src/main/rule&#45;set/normalize.js</title>
<path fill="none" stroke="#000000" stroke-width="2" stroke-opacity="0.200000" d="M55.26,-138.21C60.52,-157.82 75.43,-204.04 104.5,-230 104.8,-230.27 105.11,-230.54 105.43,-230.8"/>
<polygon fill="#000000" fill-opacity="0.200000" stroke="#000000" stroke-width="2" stroke-opacity="0.200000" points="103.98,-232.36 110.13,-233.96 106.32,-228.87 103.98,-232.36"/>
</g>
<!-- src/main/rule&#45;set/validate.js -->
<g id="node9" class="node">
<title>src/main/rule&#45;set/validate.js</title>
<g id="a_node9"><a xlink:href="src/main/rule-set/validate.js" xlink:title="validate.js">
<path fill="#ffffcc" stroke="black" d="M168.5,-224C168.5,-224 122.5,-224 122.5,-224 119.5,-224 116.5,-221 116.5,-218 116.5,-218 116.5,-212 116.5,-212 116.5,-209 119.5,-206 122.5,-206 122.5,-206 168.5,-206 168.5,-206 171.5,-206 174.5,-209 174.5,-212 174.5,-212 174.5,-218 174.5,-218 174.5,-221 171.5,-224 168.5,-224"/>
<text text-anchor="start" x="124.5" y="-212.8" font-family="Helvetica,sans-Serif" font-size="9.00">validate.js</text>
</a>
</g>
</g>
<!-- src/main/index.js&#45;&gt;src/main/rule&#45;set/validate.js -->
<g id="edge7" class="edge">
<title>src/main/index.js&#45;&gt;src/main/rule&#45;set/validate.js</title>
<path fill="none" stroke="#000000" stroke-width="2" stroke-opacity="0.200000" d="M58.72,-138.21C67.36,-151.56 84.83,-176.5 104.5,-193 108.05,-195.98 112.07,-198.75 116.15,-201.24"/>
<polygon fill="#000000" fill-opacity="0.200000" stroke="#000000" stroke-width="2" stroke-opacity="0.200000" points="115.1,-203.06 121.35,-204.2 117.18,-199.41 115.1,-203.06"/>
</g>
<!-- src/main/options/defaults.js -->
<g id="node10" class="node">
<title>src/main/options/defaults.js</title>
<g id="a_node10"><a xlink:href="src/main/options/defaults.js" xlink:title="defaults.js">
<path fill="#ffffcc" stroke="black" d="M385.5,-129C385.5,-129 339.5,-129 339.5,-129 336.5,-129 333.5,-126 333.5,-123 333.5,-123 333.5,-117 333.5,-117 333.5,-114 336.5,-111 339.5,-111 339.5,-111 385.5,-111 385.5,-111 388.5,-111 391.5,-114 391.5,-117 391.5,-117 391.5,-123 391.5,-123 391.5,-126 388.5,-129 385.5,-129"/>
<text text-anchor="start" x="341.5" y="-117.8" font-family="Helvetica,sans-Serif" font-size="9.00">defaults.js</text>
</a>
</g>
</g>
<!-- src/main/options/normalize.js&#45;&gt;src/main/options/defaults.js -->
<g id="edge9" class="edge">
<title>src/main/options/normalize.js&#45;&gt;src/main/options/defaults.js</title>
<path fill="none" stroke="#000000" stroke-width="2" stroke-opacity="0.200000" d="M285.9,-120C298,-120 311.83,-120 324.33,-120"/>
<polygon fill="#000000" fill-opacity="0.200000" stroke="#000000" stroke-width="2" stroke-opacity="0.200000" points="324.12,-122.1 330.12,-120 324.12,-117.9 324.12,-122.1"/>
</g>
<!-- src/main/utl/normalize&#45;re&#45;properties.js -->
<g id="node11" class="node">
<title>src/main/utl/normalize&#45;re&#45;properties.js</title>
<g id="a_node11"><a xlink:href="src/main/utl/normalize-re-properties.js" xlink:title="normalize&#45;re&#45;properties.js">
<path fill="#ffffcc" stroke="black" d="M417.5,-224C417.5,-224 307.5,-224 307.5,-224 304.5,-224 301.5,-221 301.5,-218 301.5,-218 301.5,-212 301.5,-212 301.5,-209 304.5,-206 307.5,-206 307.5,-206 417.5,-206 417.5,-206 420.5,-206 423.5,-209 423.5,-212 423.5,-212 423.5,-218 423.5,-218 423.5,-221 420.5,-224 417.5,-224"/>
<text text-anchor="start" x="309.5" y="-212.8" font-family="Helvetica,sans-Serif" font-size="9.00">normalize&#45;re&#45;properties.js</text>
</a>
</g>
</g>
<!-- src/main/options/normalize.js&#45;&gt;src/main/utl/normalize&#45;re&#45;properties.js -->
<g id="edge8" class="edge">
<title>src/main/options/normalize.js&#45;&gt;src/main/utl/normalize&#45;re&#45;properties.js</title>
<path fill="none" stroke="#000000" stroke-width="2" stroke-opacity="0.200000" d="M279.67,-129.37C281.88,-130.97 283.89,-132.84 285.5,-135 299.75,-154.09 278.68,-169.35 293.5,-188 298.04,-193.72 303.98,-198.23 310.44,-201.79"/>
<polygon fill="#000000" fill-opacity="0.200000" stroke="#000000" stroke-width="2" stroke-opacity="0.200000" points="309.19,-203.52 315.51,-204.23 311.01,-199.73 309.19,-203.52"/>
</g>
<!-- src/main/rule&#45;set/normalize.js&#45;&gt;src/main/utl/normalize&#45;re&#45;properties.js -->
<g id="edge10" class="edge">
<title>src/main/rule&#45;set/normalize.js&#45;&gt;src/main/utl/normalize&#45;re&#45;properties.js</title>
<path fill="none" stroke="#000000" stroke-width="2" stroke-opacity="0.200000" d="M178.69,-240.51C208.75,-236.31 254.59,-229.92 292.85,-224.58"/>
<polygon fill="#000000" fill-opacity="0.200000" stroke="#000000" stroke-width="2" stroke-opacity="0.200000" points="292.74,-226.71 298.39,-223.81 292.16,-222.55 292.74,-226.71"/>
</g>
<!-- src/main/rule&#45;set/validate.js&#45;&gt;src/main/options/validate.js -->
<g id="edge11" class="edge">
<title>src/main/rule&#45;set/validate.js&#45;&gt;src/main/options/validate.js</title>
<path fill="none" stroke="#000000" stroke-width="2" stroke-opacity="0.200000" d="M165.09,-205.53C172.19,-201.78 180.3,-197.33 187.5,-193 202.5,-183.96 218.89,-172.93 231.32,-164.3"/>
<polygon fill="#000000" fill-opacity="0.200000" stroke="#000000" stroke-width="2" stroke-opacity="0.200000" points="232.31,-166.18 236.03,-161.02 229.91,-162.73 232.31,-166.18"/>
</g>
<!-- src/main/rule&#45;set/validate.js&#45;&gt;src/main/utl/normalize&#45;re&#45;properties.js -->
<g id="edge12" class="edge">
<title>src/main/rule&#45;set/validate.js&#45;&gt;src/main/utl/normalize&#45;re&#45;properties.js</title>
<path fill="none" stroke="#000000" stroke-width="2" stroke-opacity="0.200000" d="M174.61,-215C204.34,-215 252.39,-215 292.32,-215"/>
<polygon fill="#000000" fill-opacity="0.200000" stroke="#000000" stroke-width="2" stroke-opacity="0.200000" points="292.2,-217.1 298.2,-215 292.2,-212.9 292.2,-217.1"/>
</g>
</g>
</svg>
