<?xml version="1.0" encoding="UTF-8" standalone="no"?>
<!DOCTYPE svg PUBLIC "-//W3C//DTD SVG 1.1//EN"
 "http://www.w3.org/Graphics/SVG/1.1/DTD/svg11.dtd">
<!-- Generated by graphviz version 8.0.1 (20230327.1645)
 -->
<!-- Title: dependency&#45;cruiser output Pages: 1 -->
<svg width="386pt" height="348pt"
 viewBox="0.00 0.00 386.00 348.00" xmlns="http://www.w3.org/2000/svg" xmlns:xlink="http://www.w3.org/1999/xlink">
<g id="graph0" class="graph" transform="scale(1 1) rotate(0) translate(4 344)">
<title>dependency&#45;cruiser output</title>
<polygon fill="white" stroke="none" points="-4,4 -4,-344 382,-344 382,4 -4,4"/>
<g id="clust1" class="cluster">
<title>cluster_src</title>
<path fill="#ffffff" stroke="black" stroke-width="2" d="M20,-8C20,-8 358,-8 358,-8 364,-8 370,-14 370,-20 370,-20 370,-320 370,-320 370,-326 364,-332 358,-332 358,-332 20,-332 20,-332 14,-332 8,-326 8,-320 8,-320 8,-20 8,-20 8,-14 14,-8 20,-8"/>
<text text-anchor="middle" x="189" y="-320.8" font-family="Helvetica,sans-Serif" font-weight="bold" font-size="9.00">src</text>
</g>
<g id="clust2" class="cluster">
<title>cluster_src/main</title>
<path fill="#ffffff" stroke="black" stroke-width="2" d="M28,-16C28,-16 350,-16 350,-16 356,-16 362,-22 362,-28 362,-28 362,-294 362,-294 362,-300 356,-306 350,-306 350,-306 28,-306 28,-306 22,-306 16,-300 16,-294 16,-294 16,-28 16,-28 16,-22 22,-16 28,-16"/>
<text text-anchor="middle" x="189" y="-294.8" font-family="Helvetica,sans-Serif" font-weight="bold" font-size="9.00">main</text>
</g>
<g id="clust3" class="cluster">
<title>cluster_src/main/files&#45;and&#45;dirs</title>
<path fill="#ffffff" stroke="black" stroke-width="2" d="M100,-24C100,-24 166,-24 166,-24 172,-24 178,-30 178,-36 178,-36 178,-64 178,-64 178,-70 172,-76 166,-76 166,-76 100,-76 100,-76 94,-76 88,-70 88,-64 88,-64 88,-36 88,-36 88,-30 94,-24 100,-24"/>
<text text-anchor="middle" x="133" y="-64.8" font-family="Helvetica,sans-Serif" font-weight="bold" font-size="9.00">files&#45;and&#45;dirs</text>
</g>
<g id="clust4" class="cluster">
<title>cluster_src/main/options</title>
<path fill="#ffffff" stroke="black" stroke-width="2" d="M198,-107C198,-107 342,-107 342,-107 348,-107 354,-113 354,-119 354,-119 354,-177 354,-177 354,-183 348,-189 342,-189 342,-189 198,-189 198,-189 192,-189 186,-183 186,-177 186,-177 186,-119 186,-119 186,-113 192,-107 198,-107"/>
<text text-anchor="middle" x="270" y="-177.8" font-family="Helvetica,sans-Serif" font-weight="bold" font-size="9.00">options</text>
</g>
<g id="clust5" class="cluster">
<title>cluster_src/main/resolve&#45;options</title>
<path fill="#ffffff" stroke="black" stroke-width="2" d="M100,-138C100,-138 166,-138 166,-138 172,-138 178,-144 178,-150 178,-150 178,-178 178,-178 178,-184 172,-190 166,-190 166,-190 100,-190 100,-190 94,-190 88,-184 88,-178 88,-178 88,-150 88,-150 88,-144 94,-138 100,-138"/>
<text text-anchor="middle" x="133" y="-178.8" font-family="Helvetica,sans-Serif" font-weight="bold" font-size="9.00">resolve&#45;options</text>
</g>
<g id="clust6" class="cluster">
<title>cluster_src/main/rule&#45;set</title>
<path fill="#ffffff" stroke="black" stroke-width="2" d="M100,-198C100,-198 166,-198 166,-198 172,-198 178,-204 178,-210 178,-210 178,-268 178,-268 178,-274 172,-280 166,-280 166,-280 100,-280 100,-280 94,-280 88,-274 88,-268 88,-268 88,-210 88,-210 88,-204 94,-198 100,-198"/>
<text text-anchor="middle" x="133" y="-268.8" font-family="Helvetica,sans-Serif" font-weight="bold" font-size="9.00">rule&#45;set</text>
</g>
<!-- src/main/files&#45;and&#45;dirs/normalize.mjs -->
<g id="node1" class="node">
<title>src/main/files&#45;and&#45;dirs/normalize.mjs</title>
<g id="a_node1"><a xlink:href="src/main/files-and-dirs/normalize.mjs" xlink:title="normalize.mjs">
<path fill="#ffffcc" stroke="black" d="M164,-50C164,-50 102,-50 102,-50 99,-50 96,-47 96,-44 96,-44 96,-38 96,-38 96,-35 99,-32 102,-32 102,-32 164,-32 164,-32 167,-32 170,-35 170,-38 170,-38 170,-44 170,-44 170,-47 167,-50 164,-50"/>
<text text-anchor="start" x="104" y="-38.8" font-family="Helvetica,sans-Serif" font-size="9.00">normalize.mjs</text>
</a>
</g>
</g>
<!-- src/main/helpers.mjs -->
<g id="node2" class="node">
<title>src/main/helpers.mjs</title>
<g id="a_node2"><a xlink:href="src/main/helpers.mjs" xlink:title="helpers.mjs">
<path fill="#ffffcc" stroke="black" d="M339.5,-224C339.5,-224 287.5,-224 287.5,-224 284.5,-224 281.5,-221 281.5,-218 281.5,-218 281.5,-212 281.5,-212 281.5,-209 284.5,-206 287.5,-206 287.5,-206 339.5,-206 339.5,-206 342.5,-206 345.5,-209 345.5,-212 345.5,-212 345.5,-218 345.5,-218 345.5,-221 342.5,-224 339.5,-224"/>
<text text-anchor="start" x="289.5" y="-212.8" font-family="Helvetica,sans-Serif" font-size="9.00">helpers.mjs</text>
</a>
</g>
</g>
<!-- src/main/index.d.ts -->
<g id="node3" class="node">
<title>src/main/index.d.ts</title>
<g id="a_node3"><a xlink:href="src/main/index.d.ts" xlink:title="index.d.ts">
<path fill="#ccffcc" stroke="black" d="M74,-224C74,-224 30,-224 30,-224 27,-224 24,-221 24,-218 24,-218 24,-212 24,-212 24,-209 27,-206 30,-206 30,-206 74,-206 74,-206 77,-206 80,-209 80,-212 80,-212 80,-218 80,-218 80,-221 77,-224 74,-224"/>
<text text-anchor="start" x="32" y="-212.8" font-family="Helvetica,sans-Serif" font-size="9.00">index.d.ts</text>
</a>
</g>
</g>
<!-- src/main/index.mjs -->
<g id="node4" class="node">
<title>src/main/index.mjs</title>
<g id="a_node4"><a xlink:href="src/main/index.mjs" xlink:title="index.mjs">
<path fill="#ffffcc" stroke="black" d="M74,-138C74,-138 30,-138 30,-138 27,-138 24,-135 24,-132 24,-132 24,-126 24,-126 24,-123 27,-120 30,-120 30,-120 74,-120 74,-120 77,-120 80,-123 80,-126 80,-126 80,-132 80,-132 80,-135 77,-138 74,-138"/>
<text text-anchor="start" x="32" y="-126.8" font-family="Helvetica,sans-Serif" font-size="9.00">index.mjs</text>
</a>
</g>
</g>
<!-- src/main/index.mjs&#45;&gt;src/main/files&#45;and&#45;dirs/normalize.mjs -->
<g id="edge1" class="edge">
<title>src/main/index.mjs&#45;&gt;src/main/files&#45;and&#45;dirs/normalize.mjs</title>
<path fill="none" stroke="#000000" stroke-width="2" stroke-opacity="0.200000" d="M54.76,-119.67C58.25,-103.81 67.53,-71.62 88,-54 88.14,-53.88 88.29,-53.75 88.43,-53.63"/>
<polygon fill="#000000" fill-opacity="0.200000" stroke="#000000" stroke-width="2" stroke-opacity="0.200000" points="89.74,-54.97 93.61,-49.93 87.44,-51.46 89.74,-54.97"/>
</g>
<!-- src/main/options/normalize.mjs -->
<g id="node5" class="node">
<title>src/main/options/normalize.mjs</title>
<g id="a_node5"><a xlink:href="src/main/options/normalize.mjs" xlink:title="normalize.mjs">
<path fill="#ffffcc" stroke="black" d="M262,-133C262,-133 200,-133 200,-133 197,-133 194,-130 194,-127 194,-127 194,-121 194,-121 194,-118 197,-115 200,-115 200,-115 262,-115 262,-115 265,-115 268,-118 268,-121 268,-121 268,-127 268,-127 268,-130 265,-133 262,-133"/>
<text text-anchor="start" x="202" y="-121.8" font-family="Helvetica,sans-Serif" font-size="9.00">normalize.mjs</text>
</a>
</g>
</g>
<!-- src/main/index.mjs&#45;&gt;src/main/options/normalize.mjs -->
<g id="edge2" class="edge">
<title>src/main/index.mjs&#45;&gt;src/main/options/normalize.mjs</title>
<path fill="none" stroke="#000000" stroke-width="2" stroke-opacity="0.200000" d="M80.49,-125.58C83.02,-125.35 85.56,-125.15 88,-125 120.42,-123.04 157.08,-122.83 185.03,-123.09"/>
<polygon fill="#000000" fill-opacity="0.200000" stroke="#000000" stroke-width="2" stroke-opacity="0.200000" points="184.75,-125.22 190.78,-123.19 184.8,-121.02 184.75,-125.22"/>
</g>
<!-- src/main/options/validate.mjs -->
<g id="node6" class="node">
<title>src/main/options/validate.mjs</title>
<g id="a_node6"><a xlink:href="src/main/options/validate.mjs" xlink:title="validate.mjs">
<path fill="#ffffcc" stroke="black" d="M257.5,-163C257.5,-163 204.5,-163 204.5,-163 201.5,-163 198.5,-160 198.5,-157 198.5,-157 198.5,-151 198.5,-151 198.5,-148 201.5,-145 204.5,-145 204.5,-145 257.5,-145 257.5,-145 260.5,-145 263.5,-148 263.5,-151 263.5,-151 263.5,-157 263.5,-157 263.5,-160 260.5,-163 257.5,-163"/>
<text text-anchor="start" x="206.5" y="-151.8" font-family="Helvetica,sans-Serif" font-size="9.00">validate.mjs</text>
</a>
</g>
</g>
<!-- src/main/index.mjs&#45;&gt;src/main/options/validate.mjs -->
<g id="edge3" class="edge">
<title>src/main/index.mjs&#45;&gt;src/main/options/validate.mjs</title>
<path fill="none" stroke="#000000" stroke-width="2" stroke-opacity="0.200000" d="M80.31,-127.11C105.97,-126.07 145.21,-126.42 178,-135 181.85,-136.01 182.33,-137.47 186,-139 188.02,-139.84 190.11,-140.68 192.22,-141.49"/>
<polygon fill="#000000" fill-opacity="0.200000" stroke="#000000" stroke-width="2" stroke-opacity="0.200000" points="192.09,-143.43 198.45,-143.54 193.55,-139.49 192.09,-143.43"/>
</g>
<!-- src/main/report&#45;wrap.mjs -->
<g id="node7" class="node">
<title>src/main/report&#45;wrap.mjs</title>
<g id="a_node7"><a xlink:href="src/main/report-wrap.mjs" xlink:title="report&#45;wrap.mjs">
<path fill="#ffffcc" stroke="black" d="M167,-102C167,-102 99,-102 99,-102 96,-102 93,-99 93,-96 93,-96 93,-90 93,-90 93,-87 96,-84 99,-84 99,-84 167,-84 167,-84 170,-84 173,-87 173,-90 173,-90 173,-96 173,-96 173,-99 170,-102 167,-102"/>
<text text-anchor="start" x="101" y="-90.8" font-family="Helvetica,sans-Serif" font-size="9.00">report&#45;wrap.mjs</text>
</a>
</g>
</g>
<!-- src/main/index.mjs&#45;&gt;src/main/report&#45;wrap.mjs -->
<g id="edge4" class="edge">
<title>src/main/index.mjs&#45;&gt;src/main/report&#45;wrap.mjs</title>
<path fill="none" stroke="#000000" stroke-width="2" stroke-opacity="0.200000" d="M70.66,-119.54C76.16,-116.69 82.29,-113.63 88,-111 91.83,-109.24 95.88,-107.46 99.91,-105.75"/>
<polygon fill="#000000" fill-opacity="0.200000" stroke="#000000" stroke-width="2" stroke-opacity="0.200000" points="101.36,-107.59 106.09,-103.34 99.74,-103.71 101.36,-107.59"/>
</g>
<!-- src/main/resolve&#45;options/normalize.mjs -->
<g id="node8" class="node">
<title>src/main/resolve&#45;options/normalize.mjs</title>
<g id="a_node8"><a xlink:href="src/main/resolve-options/normalize.mjs" xlink:title="normalize.mjs">
<path fill="#ffffcc" stroke="black" d="M164,-164C164,-164 102,-164 102,-164 99,-164 96,-161 96,-158 96,-158 96,-152 96,-152 96,-149 99,-146 102,-146 102,-146 164,-146 164,-146 167,-146 170,-149 170,-152 170,-152 170,-158 170,-158 170,-161 167,-164 164,-164"/>
<text text-anchor="start" x="104" y="-152.8" font-family="Helvetica,sans-Serif" font-size="9.00">normalize.mjs</text>
</a>
</g>
</g>
<!-- src/main/index.mjs&#45;&gt;src/main/resolve&#45;options/normalize.mjs -->
<g id="edge5" class="edge">
<title>src/main/index.mjs&#45;&gt;src/main/resolve&#45;options/normalize.mjs</title>
<path fill="none" stroke="#000000" stroke-width="2" stroke-opacity="0.200000" d="M77.78,-138.44C81.2,-139.68 84.68,-140.89 88,-142 88.91,-142.3 89.83,-142.6 90.75,-142.91"/>
<polygon fill="#000000" fill-opacity="0.200000" stroke="#000000" stroke-width="2" stroke-opacity="0.200000" points="90.89,-145.78 97.24,-145.59 92.16,-141.78 90.89,-145.78"/>
</g>
<!-- src/main/rule&#45;set/normalize.mjs -->
<g id="node9" class="node">
<title>src/main/rule&#45;set/normalize.mjs</title>
<g id="a_node9"><a xlink:href="src/main/rule-set/normalize.mjs" xlink:title="normalize.mjs">
<path fill="#ffffcc" stroke="black" d="M164,-254C164,-254 102,-254 102,-254 99,-254 96,-251 96,-248 96,-248 96,-242 96,-242 96,-239 99,-236 102,-236 102,-236 164,-236 164,-236 167,-236 170,-239 170,-242 170,-242 170,-248 170,-248 170,-251 167,-254 164,-254"/>
<text text-anchor="start" x="104" y="-242.8" font-family="Helvetica,sans-Serif" font-size="9.00">normalize.mjs</text>
</a>
</g>
</g>
<!-- src/main/index.mjs&#45;&gt;src/main/rule&#45;set/normalize.mjs -->
<g id="edge6" class="edge">
<title>src/main/index.mjs&#45;&gt;src/main/rule&#45;set/normalize.mjs</title>
<path fill="none" stroke="#000000" stroke-width="2" stroke-opacity="0.200000" d="M56.8,-138.08C62.33,-151.48 72.71,-177.41 80,-200 84.24,-213.13 78.58,-219.92 88,-230 88.28,-230.29 88.56,-230.58 88.84,-230.87"/>
<polygon fill="#000000" fill-opacity="0.200000" stroke="#000000" stroke-width="2" stroke-opacity="0.200000" points="87.55,-233.05 93.59,-235.02 90.1,-229.71 87.55,-233.05"/>
</g>
<!-- src/main/rule&#45;set/validate.mjs -->
<g id="node10" class="node">
<title>src/main/rule&#45;set/validate.mjs</title>
<g id="a_node10"><a xlink:href="src/main/rule-set/validate.mjs" xlink:title="validate.mjs">
<path fill="#ffffcc" stroke="black" d="M159.5,-224C159.5,-224 106.5,-224 106.5,-224 103.5,-224 100.5,-221 100.5,-218 100.5,-218 100.5,-212 100.5,-212 100.5,-209 103.5,-206 106.5,-206 106.5,-206 159.5,-206 159.5,-206 162.5,-206 165.5,-209 165.5,-212 165.5,-212 165.5,-218 165.5,-218 165.5,-221 162.5,-224 159.5,-224"/>
<text text-anchor="start" x="108.5" y="-212.8" font-family="Helvetica,sans-Serif" font-size="9.00">validate.mjs</text>
</a>
</g>
</g>
<!-- src/main/index.mjs&#45;&gt;src/main/rule&#45;set/validate.mjs -->
<g id="edge7" class="edge">
<title>src/main/index.mjs&#45;&gt;src/main/rule&#45;set/validate.mjs</title>
<path fill="none" stroke="#000000" stroke-width="2" stroke-opacity="0.200000" d="M56.08,-138.39C60.95,-151.97 71.59,-177.18 88,-193 91.22,-196.11 94.97,-198.86 98.89,-201.28"/>
<polygon fill="#000000" fill-opacity="0.200000" stroke="#000000" stroke-width="2" stroke-opacity="0.200000" points="98.29,-203.46 104.56,-204.52 100.32,-199.78 98.29,-203.46"/>
</g>
<!-- src/main/options/normalize.mjs&#45;&gt;src/main/helpers.mjs -->
<g id="edge8" class="edge">
<title>src/main/options/normalize.mjs&#45;&gt;src/main/helpers.mjs</title>
<path fill="none" stroke="#000000" stroke-width="2" stroke-opacity="0.200000" d="M261.53,-133.39C263.94,-134.99 266.15,-136.84 268,-139 283.78,-157.42 267.5,-171.85 281,-192 283.04,-195.04 285.61,-197.82 288.42,-200.31"/>
<polygon fill="#000000" fill-opacity="0.200000" stroke="#000000" stroke-width="2" stroke-opacity="0.200000" points="287.18,-202.57 293.21,-204.61 289.77,-199.26 287.18,-202.57"/>
</g>
<!-- src/main/options/defaults.mjs -->
<g id="node11" class="node">
<title>src/main/options/defaults.mjs</title>
<g id="a_node11"><a xlink:href="src/main/options/defaults.mjs" xlink:title="defaults.mjs">
<path fill="#ffffcc" stroke="black" d="M340,-133C340,-133 287,-133 287,-133 284,-133 281,-130 281,-127 281,-127 281,-121 281,-121 281,-118 284,-115 287,-115 287,-115 340,-115 340,-115 343,-115 346,-118 346,-121 346,-121 346,-127 346,-127 346,-130 343,-133 340,-133"/>
<text text-anchor="start" x="289" y="-121.8" font-family="Helvetica,sans-Serif" font-size="9.00">defaults.mjs</text>
</a>
</g>
</g>
<!-- src/main/options/normalize.mjs&#45;&gt;src/main/options/defaults.mjs -->
<g id="edge9" class="edge">
<title>src/main/options/normalize.mjs&#45;&gt;src/main/options/defaults.mjs</title>
<path fill="none" stroke="#000000" stroke-width="2" stroke-opacity="0.200000" d="M268.48,-124C269.65,-124 270.83,-124 272,-124"/>
<polygon fill="#000000" fill-opacity="0.200000" stroke="#000000" stroke-width="2" stroke-opacity="0.200000" points="271.94,-126.1 277.94,-124 271.94,-121.9 271.94,-126.1"/>
</g>
<!-- src/main/rule&#45;set/normalize.mjs&#45;&gt;src/main/helpers.mjs -->
<g id="edge10" class="edge">
<title>src/main/rule&#45;set/normalize.mjs&#45;&gt;src/main/helpers.mjs</title>
<path fill="none" stroke="#000000" stroke-width="2" stroke-opacity="0.200000" d="M170.12,-238.93C199.79,-233.94 241.78,-226.89 272.47,-221.73"/>
<polygon fill="#000000" fill-opacity="0.200000" stroke="#000000" stroke-width="2" stroke-opacity="0.200000" points="273.63,-223.33 279.2,-220.26 272.94,-219.18 273.63,-223.33"/>
</g>
<!-- src/main/rule&#45;set/validate.mjs&#45;&gt;src/main/helpers.mjs -->
<g id="edge11" class="edge">
<title>src/main/rule&#45;set/validate.mjs&#45;&gt;src/main/helpers.mjs</title>
<path fill="none" stroke="#000000" stroke-width="2" stroke-opacity="0.200000" d="M165.91,-215C195.7,-215 240.27,-215 272.44,-215"/>
<polygon fill="#000000" fill-opacity="0.200000" stroke="#000000" stroke-width="2" stroke-opacity="0.200000" points="272.16,-217.1 278.16,-215 272.16,-212.9 272.16,-217.1"/>
</g>
<!-- src/main/rule&#45;set/validate.mjs&#45;&gt;src/main/options/validate.mjs -->
<g id="edge12" class="edge">
<title>src/main/rule&#45;set/validate.mjs&#45;&gt;src/main/options/validate.mjs</title>
<path fill="none" stroke="#000000" stroke-width="2" stroke-opacity="0.200000" d="M161.08,-205.73C167.33,-202.52 173.47,-198.34 178,-193 185.81,-183.77 177.4,-175.5 186,-167 187.38,-165.63 188.9,-164.41 190.51,-163.32"/>
<polygon fill="#000000" fill-opacity="0.200000" stroke="#000000" stroke-width="2" stroke-opacity="0.200000" points="191.78,-164.95 196.09,-160.28 189.81,-161.25 191.78,-164.95"/>
</g>
</g>
</svg>
