<?xml version="1.0" encoding="UTF-8" standalone="no"?>
<!DOCTYPE svg PUBLIC "-//W3C//DTD SVG 1.1//EN"
 "http://www.w3.org/Graphics/SVG/1.1/DTD/svg11.dtd">
<!-- Generated by graphviz version 5.0.0 (20220707.1540)
 -->
<!-- Title: dependency&#45;cruiser output Pages: 1 -->
<svg width="462pt" height="348pt"
 viewBox="0.00 0.00 461.50 348.00" xmlns="http://www.w3.org/2000/svg" xmlns:xlink="http://www.w3.org/1999/xlink">
<g id="graph0" class="graph" transform="scale(1 1) rotate(0) translate(4 344)">
<title>dependency&#45;cruiser output</title>
<polygon fill="white" stroke="transparent" points="-4,4 -4,-344 457.5,-344 457.5,4 -4,4"/>
<g id="clust1" class="cluster">
<title>cluster_src</title>
<path fill="#ffffff" stroke="black" stroke-width="2" d="M20,-8C20,-8 433.5,-8 433.5,-8 439.5,-8 445.5,-14 445.5,-20 445.5,-20 445.5,-320 445.5,-320 445.5,-326 439.5,-332 433.5,-332 433.5,-332 20,-332 20,-332 14,-332 8,-326 8,-320 8,-320 8,-20 8,-20 8,-14 14,-8 20,-8"/>
<text text-anchor="middle" x="226.75" y="-320.8" font-family="Helvetica,sans-Serif" font-weight="bold" font-size="9.00">src</text>
</g>
<g id="clust2" class="cluster">
<title>cluster_src/main</title>
<path fill="#ffffff" stroke="black" stroke-width="2" d="M28,-16C28,-16 425.5,-16 425.5,-16 431.5,-16 437.5,-22 437.5,-28 437.5,-28 437.5,-294 437.5,-294 437.5,-300 431.5,-306 425.5,-306 425.5,-306 28,-306 28,-306 22,-306 16,-300 16,-294 16,-294 16,-28 16,-28 16,-22 22,-16 28,-16"/>
<text text-anchor="middle" x="226.75" y="-294.8" font-family="Helvetica,sans-Serif" font-weight="bold" font-size="9.00">main</text>
</g>
<g id="clust3" class="cluster">
<title>cluster_src/main/files&#45;and&#45;dirs</title>
<path fill="#ffffff" stroke="black" stroke-width="2" d="M114.5,-24C114.5,-24 172.5,-24 172.5,-24 178.5,-24 184.5,-30 184.5,-36 184.5,-36 184.5,-64 184.5,-64 184.5,-70 178.5,-76 172.5,-76 172.5,-76 114.5,-76 114.5,-76 108.5,-76 102.5,-70 102.5,-64 102.5,-64 102.5,-36 102.5,-36 102.5,-30 108.5,-24 114.5,-24"/>
<text text-anchor="middle" x="143.5" y="-64.8" font-family="Helvetica,sans-Serif" font-weight="bold" font-size="9.00">files&#45;and&#45;dirs</text>
</g>
<g id="clust4" class="cluster">
<title>cluster_src/main/options</title>
<path fill="#ffffff" stroke="black" stroke-width="2" d="M221.5,-77C221.5,-77 385.5,-77 385.5,-77 391.5,-77 397.5,-83 397.5,-89 397.5,-89 397.5,-147 397.5,-147 397.5,-153 391.5,-159 385.5,-159 385.5,-159 221.5,-159 221.5,-159 215.5,-159 209.5,-153 209.5,-147 209.5,-147 209.5,-89 209.5,-89 209.5,-83 215.5,-77 221.5,-77"/>
<text text-anchor="middle" x="303.5" y="-147.8" font-family="Helvetica,sans-Serif" font-weight="bold" font-size="9.00">options</text>
</g>
<g id="clust5" class="cluster">
<title>cluster_src/main/resolve&#45;options</title>
<path fill="#ffffff" stroke="black" stroke-width="2" d="M114.5,-138C114.5,-138 173.5,-138 173.5,-138 179.5,-138 185.5,-144 185.5,-150 185.5,-150 185.5,-178 185.5,-178 185.5,-184 179.5,-190 173.5,-190 173.5,-190 114.5,-190 114.5,-190 108.5,-190 102.5,-184 102.5,-178 102.5,-178 102.5,-150 102.5,-150 102.5,-144 108.5,-138 114.5,-138"/>
<text text-anchor="middle" x="144" y="-178.8" font-family="Helvetica,sans-Serif" font-weight="bold" font-size="9.00">resolve&#45;options</text>
</g>
<g id="clust6" class="cluster">
<title>cluster_src/main/rule&#45;set</title>
<path fill="#ffffff" stroke="black" stroke-width="2" d="M114.5,-198C114.5,-198 172.5,-198 172.5,-198 178.5,-198 184.5,-204 184.5,-210 184.5,-210 184.5,-268 184.5,-268 184.5,-274 178.5,-280 172.5,-280 172.5,-280 114.5,-280 114.5,-280 108.5,-280 102.5,-274 102.5,-268 102.5,-268 102.5,-210 102.5,-210 102.5,-204 108.5,-198 114.5,-198"/>
<text text-anchor="middle" x="143.5" y="-268.8" font-family="Helvetica,sans-Serif" font-weight="bold" font-size="9.00">rule&#45;set</text>
</g>
<g id="clust7" class="cluster">
<title>cluster_src/main/utl</title>
<path fill="#ffffff" stroke="black" stroke-width="2" d="M303.5,-202C303.5,-202 417.5,-202 417.5,-202 423.5,-202 429.5,-208 429.5,-214 429.5,-214 429.5,-242 429.5,-242 429.5,-248 423.5,-254 417.5,-254 417.5,-254 303.5,-254 303.5,-254 297.5,-254 291.5,-248 291.5,-242 291.5,-242 291.5,-214 291.5,-214 291.5,-208 297.5,-202 303.5,-202"/>
<text text-anchor="middle" x="360.5" y="-242.8" font-family="Helvetica,sans-Serif" font-weight="bold" font-size="9.00">utl</text>
</g>
<!-- src/main/files&#45;and&#45;dirs/normalize.js -->
<g id="node1" class="node">
<title>src/main/files&#45;and&#45;dirs/normalize.js</title>
<g id="a_node1"><a xlink:href="src/main/files-and-dirs/normalize.js" xlink:title="normalize.js">
<path fill="#ffffcc" stroke="black" d="M170.5,-50C170.5,-50 116.5,-50 116.5,-50 113.5,-50 110.5,-47 110.5,-44 110.5,-44 110.5,-38 110.5,-38 110.5,-35 113.5,-32 116.5,-32 116.5,-32 170.5,-32 170.5,-32 173.5,-32 176.5,-35 176.5,-38 176.5,-38 176.5,-44 176.5,-44 176.5,-47 173.5,-50 170.5,-50"/>
<text text-anchor="start" x="118.5" y="-38.8" font-family="Helvetica,sans-Serif" font-size="9.00">normalize.js</text>
</a>
</g>
</g>
<!-- src/main/index.js -->
<g id="node2" class="node">
<title>src/main/index.js</title>
<g id="a_node2"><a xlink:href="src/main/index.js" xlink:title="index.js">
<path fill="#ffffcc" stroke="black" d="M72,-130C72,-130 30,-130 30,-130 27,-130 24,-127 24,-124 24,-124 24,-118 24,-118 24,-115 27,-112 30,-112 30,-112 72,-112 72,-112 75,-112 78,-115 78,-118 78,-118 78,-124 78,-124 78,-127 75,-130 72,-130"/>
<text text-anchor="start" x="35" y="-118.8" font-family="Helvetica,sans-Serif" font-size="9.00">index.js</text>
</a>
</g>
</g>
<!-- src/main/index.js&#45;&gt;src/main/files&#45;and&#45;dirs/normalize.js -->
<g id="edge1" class="edge">
<title>src/main/index.js&#45;&gt;src/main/files&#45;and&#45;dirs/normalize.js</title>
<path fill="none" stroke="#000000" stroke-width="2" stroke-opacity="0.200000" d="M56.56,-111.77C64.14,-97.37 80.68,-69.56 102.5,-54 103.24,-53.47 104.01,-52.96 104.79,-52.47"/>
<polygon fill="#000000" fill-opacity="0.200000" stroke="#000000" stroke-width="2" stroke-opacity="0.200000" points="105.94,-54.24 110.2,-49.52 103.93,-50.55 105.94,-54.24"/>
</g>
<!-- src/main/options/normalize.js -->
<g id="node3" class="node">
<title>src/main/options/normalize.js</title>
<g id="a_node3"><a xlink:href="src/main/options/normalize.js" xlink:title="normalize.js">
<path fill="#ffffcc" stroke="black" d="M277.5,-103C277.5,-103 223.5,-103 223.5,-103 220.5,-103 217.5,-100 217.5,-97 217.5,-97 217.5,-91 217.5,-91 217.5,-88 220.5,-85 223.5,-85 223.5,-85 277.5,-85 277.5,-85 280.5,-85 283.5,-88 283.5,-91 283.5,-91 283.5,-97 283.5,-97 283.5,-100 280.5,-103 277.5,-103"/>
<text text-anchor="start" x="225.5" y="-91.8" font-family="Helvetica,sans-Serif" font-size="9.00">normalize.js</text>
</a>
</g>
</g>
<!-- src/main/index.js&#45;&gt;src/main/options/normalize.js -->
<g id="edge2" class="edge">
<title>src/main/index.js&#45;&gt;src/main/options/normalize.js</title>
<path fill="none" stroke="#000000" stroke-width="2" stroke-opacity="0.200000" d="M68.75,-111.8C78.33,-107.03 90.75,-101.66 102.5,-99 138.66,-90.82 181.08,-90.31 211.03,-91.4"/>
<polygon fill="#000000" fill-opacity="0.200000" stroke="#000000" stroke-width="2" stroke-opacity="0.200000" points="211.15,-93.51 217.23,-91.66 211.32,-89.31 211.15,-93.51"/>
</g>
<!-- src/main/options/validate.js -->
<g id="node4" class="node">
<title>src/main/options/validate.js</title>
<g id="a_node4"><a xlink:href="src/main/options/validate.js" xlink:title="validate.js">
<path fill="#ffffcc" stroke="black" d="M273.5,-133C273.5,-133 227.5,-133 227.5,-133 224.5,-133 221.5,-130 221.5,-127 221.5,-127 221.5,-121 221.5,-121 221.5,-118 224.5,-115 227.5,-115 227.5,-115 273.5,-115 273.5,-115 276.5,-115 279.5,-118 279.5,-121 279.5,-121 279.5,-127 279.5,-127 279.5,-130 276.5,-133 273.5,-133"/>
<text text-anchor="start" x="229.5" y="-121.8" font-family="Helvetica,sans-Serif" font-size="9.00">validate.js</text>
</a>
</g>
</g>
<!-- src/main/index.js&#45;&gt;src/main/options/validate.js -->
<g id="edge3" class="edge">
<title>src/main/index.js&#45;&gt;src/main/options/validate.js</title>
<path fill="none" stroke="#000000" stroke-width="2" stroke-opacity="0.200000" d="M77.11,-111.99C85.12,-109.54 94.08,-107.22 102.5,-106 139.01,-100.69 148.96,-100.96 185.5,-106 196.21,-107.48 207.64,-110.28 217.84,-113.24"/>
<polygon fill="#000000" fill-opacity="0.200000" stroke="#000000" stroke-width="2" stroke-opacity="0.200000" points="217.34,-115.29 223.69,-115 218.54,-111.26 217.34,-115.29"/>
</g>
<!-- src/main/report&#45;wrap.js -->
<g id="node5" class="node">
<title>src/main/report&#45;wrap.js</title>
<g id="a_node5"><a xlink:href="src/main/report-wrap.js" xlink:title="report&#45;wrap.js">
<path fill="#ffffcc" stroke="black" d="M174,-130C174,-130 113,-130 113,-130 110,-130 107,-127 107,-124 107,-124 107,-118 107,-118 107,-115 110,-112 113,-112 113,-112 174,-112 174,-112 177,-112 180,-115 180,-118 180,-118 180,-124 180,-124 180,-127 177,-130 174,-130"/>
<text text-anchor="start" x="115" y="-118.8" font-family="Helvetica,sans-Serif" font-size="9.00">report&#45;wrap.js</text>
</a>
</g>
</g>
<!-- src/main/index.js&#45;&gt;src/main/report&#45;wrap.js -->
<g id="edge4" class="edge">
<title>src/main/index.js&#45;&gt;src/main/report&#45;wrap.js</title>
<path fill="none" stroke="#000000" stroke-width="2" stroke-opacity="0.200000" d="M78.18,-121C85.19,-121 92.95,-121 100.59,-121"/>
<polygon fill="#000000" fill-opacity="0.200000" stroke="#000000" stroke-width="2" stroke-opacity="0.200000" points="100.96,-123.1 106.96,-121 100.96,-118.9 100.96,-123.1"/>
</g>
<!-- src/main/resolve&#45;options/normalize.js -->
<g id="node6" class="node">
<title>src/main/resolve&#45;options/normalize.js</title>
<g id="a_node6"><a xlink:href="src/main/resolve-options/normalize.js" xlink:title="normalize.js">
<path fill="#ffffcc" stroke="black" d="M170.5,-164C170.5,-164 116.5,-164 116.5,-164 113.5,-164 110.5,-161 110.5,-158 110.5,-158 110.5,-152 110.5,-152 110.5,-149 113.5,-146 116.5,-146 116.5,-146 170.5,-146 170.5,-146 173.5,-146 176.5,-149 176.5,-152 176.5,-152 176.5,-158 176.5,-158 176.5,-161 173.5,-164 170.5,-164"/>
<text text-anchor="start" x="118.5" y="-152.8" font-family="Helvetica,sans-Serif" font-size="9.00">normalize.js</text>
</a>
</g>
</g>
<!-- src/main/index.js&#45;&gt;src/main/resolve&#45;options/normalize.js -->
<g id="edge5" class="edge">
<title>src/main/index.js&#45;&gt;src/main/resolve&#45;options/normalize.js</title>
<path fill="none" stroke="#000000" stroke-width="2" stroke-opacity="0.200000" d="M72.98,-130.17C82,-133.99 92.7,-138.38 102.5,-142 104.17,-142.62 105.88,-143.23 107.62,-143.85"/>
<polygon fill="#000000" fill-opacity="0.200000" stroke="#000000" stroke-width="2" stroke-opacity="0.200000" points="107.21,-145.93 113.57,-145.9 108.58,-141.96 107.21,-145.93"/>
</g>
<!-- src/main/rule&#45;set/normalize.js -->
<g id="node7" class="node">
<title>src/main/rule&#45;set/normalize.js</title>
<g id="a_node7"><a xlink:href="src/main/rule-set/normalize.js" xlink:title="normalize.js">
<path fill="#ffffcc" stroke="black" d="M170.5,-254C170.5,-254 116.5,-254 116.5,-254 113.5,-254 110.5,-251 110.5,-248 110.5,-248 110.5,-242 110.5,-242 110.5,-239 113.5,-236 116.5,-236 116.5,-236 170.5,-236 170.5,-236 173.5,-236 176.5,-239 176.5,-242 176.5,-242 176.5,-248 176.5,-248 176.5,-251 173.5,-254 170.5,-254"/>
<text text-anchor="start" x="118.5" y="-242.8" font-family="Helvetica,sans-Serif" font-size="9.00">normalize.js</text>
</a>
</g>
</g>
<!-- src/main/index.js&#45;&gt;src/main/rule&#45;set/normalize.js -->
<g id="edge6" class="edge">
<title>src/main/index.js&#45;&gt;src/main/rule&#45;set/normalize.js</title>
<path fill="none" stroke="#000000" stroke-width="2" stroke-opacity="0.200000" d="M53.8,-130.29C58.3,-151.06 71.92,-201.63 102.5,-230 103.52,-230.94 104.6,-231.83 105.73,-232.66"/>
<polygon fill="#000000" fill-opacity="0.200000" stroke="#000000" stroke-width="2" stroke-opacity="0.200000" points="104.77,-234.53 110.96,-235.96 107.01,-230.98 104.77,-234.53"/>
</g>
<!-- src/main/rule&#45;set/validate.js -->
<g id="node8" class="node">
<title>src/main/rule&#45;set/validate.js</title>
<g id="a_node8"><a xlink:href="src/main/rule-set/validate.js" xlink:title="validate.js">
<path fill="#ffffcc" stroke="black" d="M166.5,-224C166.5,-224 120.5,-224 120.5,-224 117.5,-224 114.5,-221 114.5,-218 114.5,-218 114.5,-212 114.5,-212 114.5,-209 117.5,-206 120.5,-206 120.5,-206 166.5,-206 166.5,-206 169.5,-206 172.5,-209 172.5,-212 172.5,-212 172.5,-218 172.5,-218 172.5,-221 169.5,-224 166.5,-224"/>
<text text-anchor="start" x="122.5" y="-212.8" font-family="Helvetica,sans-Serif" font-size="9.00">validate.js</text>
</a>
</g>
</g>
<!-- src/main/index.js&#45;&gt;src/main/rule&#45;set/validate.js -->
<g id="edge7" class="edge">
<title>src/main/index.js&#45;&gt;src/main/rule&#45;set/validate.js</title>
<path fill="none" stroke="#000000" stroke-width="2" stroke-opacity="0.200000" d="M56.77,-130.43C64.65,-145.25 81.58,-174.24 102.5,-193 106.66,-196.73 111.56,-200.07 116.48,-202.96"/>
<polygon fill="#000000" fill-opacity="0.200000" stroke="#000000" stroke-width="2" stroke-opacity="0.200000" points="115.53,-204.84 121.79,-205.91 117.57,-201.16 115.53,-204.84"/>
</g>
<!-- src/main/options/defaults.js -->
<g id="node9" class="node">
<title>src/main/options/defaults.js</title>
<g id="a_node9"><a xlink:href="src/main/options/defaults.js" xlink:title="defaults.js">
<path fill="#ffffcc" stroke="black" d="M383.5,-103C383.5,-103 337.5,-103 337.5,-103 334.5,-103 331.5,-100 331.5,-97 331.5,-97 331.5,-91 331.5,-91 331.5,-88 334.5,-85 337.5,-85 337.5,-85 383.5,-85 383.5,-85 386.5,-85 389.5,-88 389.5,-91 389.5,-91 389.5,-97 389.5,-97 389.5,-100 386.5,-103 383.5,-103"/>
<text text-anchor="start" x="339.5" y="-91.8" font-family="Helvetica,sans-Serif" font-size="9.00">defaults.js</text>
</a>
</g>
</g>
<!-- src/main/options/normalize.js&#45;&gt;src/main/options/defaults.js -->
<g id="edge9" class="edge">
<title>src/main/options/normalize.js&#45;&gt;src/main/options/defaults.js</title>
<path fill="none" stroke="#000000" stroke-width="2" stroke-opacity="0.200000" d="M283.61,-94C296.65,-94 311.74,-94 325.01,-94"/>
<polygon fill="#000000" fill-opacity="0.200000" stroke="#000000" stroke-width="2" stroke-opacity="0.200000" points="325.36,-96.1 331.36,-94 325.36,-91.9 325.36,-96.1"/>
</g>
<!-- src/main/utl/normalize&#45;re&#45;properties.js -->
<g id="node10" class="node">
<title>src/main/utl/normalize&#45;re&#45;properties.js</title>
<g id="a_node10"><a xlink:href="src/main/utl/normalize-re-properties.js" xlink:title="normalize&#45;re&#45;properties.js">
<path fill="#ffffcc" stroke="black" d="M415.5,-228C415.5,-228 305.5,-228 305.5,-228 302.5,-228 299.5,-225 299.5,-222 299.5,-222 299.5,-216 299.5,-216 299.5,-213 302.5,-210 305.5,-210 305.5,-210 415.5,-210 415.5,-210 418.5,-210 421.5,-213 421.5,-216 421.5,-216 421.5,-222 421.5,-222 421.5,-225 418.5,-228 415.5,-228"/>
<text text-anchor="start" x="307.5" y="-216.8" font-family="Helvetica,sans-Serif" font-size="9.00">normalize&#45;re&#45;properties.js</text>
</a>
</g>
</g>
<!-- src/main/options/normalize.js&#45;&gt;src/main/utl/normalize&#45;re&#45;properties.js -->
<g id="edge8" class="edge">
<title>src/main/options/normalize.js&#45;&gt;src/main/utl/normalize&#45;re&#45;properties.js</title>
<path fill="none" stroke="#000000" stroke-width="2" stroke-opacity="0.200000" d="M277.36,-103.15C279.7,-104.8 281.81,-106.74 283.5,-109 297.75,-128.09 279.84,-141.23 291.5,-162 302.18,-181.02 321.85,-196.44 337.3,-206.42"/>
<polygon fill="#000000" fill-opacity="0.200000" stroke="#000000" stroke-width="2" stroke-opacity="0.200000" points="336.57,-208.45 342.77,-209.85 338.8,-204.89 336.57,-208.45"/>
</g>
<!-- src/main/rule&#45;set/normalize.js&#45;&gt;src/main/utl/normalize&#45;re&#45;properties.js -->
<g id="edge10" class="edge">
<title>src/main/rule&#45;set/normalize.js&#45;&gt;src/main/utl/normalize&#45;re&#45;properties.js</title>
<path fill="none" stroke="#000000" stroke-width="2" stroke-opacity="0.200000" d="M176.69,-241.11C207.38,-237.4 254.52,-231.69 293.25,-227.01"/>
<polygon fill="#000000" fill-opacity="0.200000" stroke="#000000" stroke-width="2" stroke-opacity="0.200000" points="293.69,-229.07 299.39,-226.27 293.18,-224.9 293.69,-229.07"/>
</g>
<!-- src/main/rule&#45;set/validate.js&#45;&gt;src/main/options/validate.js -->
<g id="edge11" class="edge">
<title>src/main/rule&#45;set/validate.js&#45;&gt;src/main/options/validate.js</title>
<path fill="none" stroke="#000000" stroke-width="2" stroke-opacity="0.200000" d="M164.5,-205.95C171.45,-202.38 179.11,-197.94 185.5,-193 206.46,-176.81 226.54,-153.46 238.44,-138.51"/>
<polygon fill="#000000" fill-opacity="0.200000" stroke="#000000" stroke-width="2" stroke-opacity="0.200000" points="240.39,-139.42 242.45,-133.41 237.09,-136.83 240.39,-139.42"/>
</g>
</g>
</svg>
