<?xml version="1.0" encoding="UTF-8" standalone="no"?>
<!DOCTYPE svg PUBLIC "-//W3C//DTD SVG 1.1//EN"
 "http://www.w3.org/Graphics/SVG/1.1/DTD/svg11.dtd">
<!-- Generated by graphviz version 8.0.5 (20230430.1635)
 -->
<!-- Title: dependency&#45;cruiser output Pages: 1 -->
<svg width="460pt" height="348pt"
 viewBox="0.00 0.00 460.38 348.00" xmlns="http://www.w3.org/2000/svg" xmlns:xlink="http://www.w3.org/1999/xlink">
<g id="graph0" class="graph" transform="scale(1 1) rotate(0) translate(4 344)">
<title>dependency&#45;cruiser output</title>
<polygon fill="white" stroke="none" points="-4,4 -4,-344 456.38,-344 456.38,4 -4,4"/>
<g id="clust1" class="cluster">
<title>cluster_src</title>
<path fill="#ffffff" stroke="black" stroke-width="2" d="M20,-8C20,-8 432.38,-8 432.38,-8 438.38,-8 444.38,-14 444.38,-20 444.38,-20 444.38,-320 444.38,-320 444.38,-326 438.38,-332 432.38,-332 432.38,-332 20,-332 20,-332 14,-332 8,-326 8,-320 8,-320 8,-20 8,-20 8,-14 14,-8 20,-8"/>
<text text-anchor="middle" x="226.19" y="-319.45" font-family="Helvetica,sans-Serif" font-weight="bold" font-size="9.00">src</text>
</g>
<g id="clust2" class="cluster">
<title>cluster_src/main</title>
<path fill="#ffffff" stroke="black" stroke-width="2" d="M28,-16C28,-16 424.38,-16 424.38,-16 430.38,-16 436.38,-22 436.38,-28 436.38,-28 436.38,-294 436.38,-294 436.38,-300 430.38,-306 424.38,-306 424.38,-306 28,-306 28,-306 22,-306 16,-300 16,-294 16,-294 16,-28 16,-28 16,-22 22,-16 28,-16"/>
<text text-anchor="middle" x="226.19" y="-293.45" font-family="Helvetica,sans-Serif" font-weight="bold" font-size="9.00">main</text>
</g>
<g id="clust3" class="cluster">
<title>cluster_src/main/files&#45;and&#45;dirs</title>
<path fill="#ffffff" stroke="black" stroke-width="2" d="M115.38,-24C115.38,-24 172.88,-24 172.88,-24 178.88,-24 184.88,-30 184.88,-36 184.88,-36 184.88,-64 184.88,-64 184.88,-70 178.88,-76 172.88,-76 172.88,-76 115.38,-76 115.38,-76 109.38,-76 103.38,-70 103.38,-64 103.38,-64 103.38,-36 103.38,-36 103.38,-30 109.38,-24 115.38,-24"/>
<text text-anchor="middle" x="144.12" y="-63.45" font-family="Helvetica,sans-Serif" font-weight="bold" font-size="9.00">files&#45;and&#45;dirs</text>
</g>
<g id="clust4" class="cluster">
<title>cluster_src/main/options</title>
<path fill="#ffffff" stroke="black" stroke-width="2" d="M221.88,-103C221.88,-103 384.5,-103 384.5,-103 390.5,-103 396.5,-109 396.5,-115 396.5,-115 396.5,-173 396.5,-173 396.5,-179 390.5,-185 384.5,-185 384.5,-185 221.88,-185 221.88,-185 215.88,-185 209.88,-179 209.88,-173 209.88,-173 209.88,-115 209.88,-115 209.88,-109 215.88,-103 221.88,-103"/>
<text text-anchor="middle" x="303.19" y="-172.45" font-family="Helvetica,sans-Serif" font-weight="bold" font-size="9.00">options</text>
</g>
<g id="clust5" class="cluster">
<title>cluster_src/main/resolve&#45;options</title>
<path fill="#ffffff" stroke="black" stroke-width="2" d="M115.38,-138C115.38,-138 173.88,-138 173.88,-138 179.88,-138 185.88,-144 185.88,-150 185.88,-150 185.88,-178 185.88,-178 185.88,-184 179.88,-190 173.88,-190 173.88,-190 115.38,-190 115.38,-190 109.38,-190 103.38,-184 103.38,-178 103.38,-178 103.38,-150 103.38,-150 103.38,-144 109.38,-138 115.38,-138"/>
<text text-anchor="middle" x="144.62" y="-177.45" font-family="Helvetica,sans-Serif" font-weight="bold" font-size="9.00">resolve&#45;options</text>
</g>
<g id="clust6" class="cluster">
<title>cluster_src/main/rule&#45;set</title>
<path fill="#ffffff" stroke="black" stroke-width="2" d="M115.38,-198C115.38,-198 172.88,-198 172.88,-198 178.88,-198 184.88,-204 184.88,-210 184.88,-210 184.88,-268 184.88,-268 184.88,-274 178.88,-280 172.88,-280 172.88,-280 115.38,-280 115.38,-280 109.38,-280 103.38,-274 103.38,-268 103.38,-268 103.38,-210 103.38,-210 103.38,-204 109.38,-198 115.38,-198"/>
<text text-anchor="middle" x="144.12" y="-267.45" font-family="Helvetica,sans-Serif" font-weight="bold" font-size="9.00">rule&#45;set</text>
</g>
<g id="clust7" class="cluster">
<title>cluster_src/main/utl</title>
<path fill="#ffffff" stroke="black" stroke-width="2" d="M303.38,-198C303.38,-198 416.38,-198 416.38,-198 422.38,-198 428.38,-204 428.38,-210 428.38,-210 428.38,-238 428.38,-238 428.38,-244 422.38,-250 416.38,-250 416.38,-250 303.38,-250 303.38,-250 297.38,-250 291.38,-244 291.38,-238 291.38,-238 291.38,-210 291.38,-210 291.38,-204 297.38,-198 303.38,-198"/>
<text text-anchor="middle" x="359.88" y="-237.45" font-family="Helvetica,sans-Serif" font-weight="bold" font-size="9.00">utl</text>
</g>
<!-- src/main/files&#45;and&#45;dirs/normalize.js -->
<g id="node1" class="node">
<title>src/main/files&#45;and&#45;dirs/normalize.js</title>
<g id="a_node1"><a xlink:href="src/main/files-and-dirs/normalize.js" xlink:title="normalize.js">
<path fill="#ffffcc" stroke="black" d="M170.96,-49.88C170.96,-49.88 117.29,-49.88 117.29,-49.88 114.33,-49.88 111.38,-46.92 111.38,-43.96 111.38,-43.96 111.38,-38.04 111.38,-38.04 111.38,-35.08 114.33,-32.12 117.29,-32.12 117.29,-32.12 170.96,-32.12 170.96,-32.12 173.92,-32.12 176.88,-35.08 176.88,-38.04 176.88,-38.04 176.88,-43.96 176.88,-43.96 176.88,-46.92 173.92,-49.88 170.96,-49.88"/>
<text text-anchor="start" x="119.38" y="-37.33" font-family="Helvetica,sans-Serif" font-size="9.00">normalize.js</text>
</a>
</g>
</g>
<!-- src/main/index.d.ts -->
<g id="node2" class="node">
<title>src/main/index.d.ts</title>
<g id="a_node2"><a xlink:href="src/main/index.d.ts" xlink:title="index.d.ts">
<path fill="#ccffcc" stroke="black" d="M73.08,-223.88C73.08,-223.88 29.92,-223.88 29.92,-223.88 26.96,-223.88 24,-220.92 24,-217.96 24,-217.96 24,-212.04 24,-212.04 24,-209.08 26.96,-206.12 29.92,-206.12 29.92,-206.12 73.08,-206.12 73.08,-206.12 76.04,-206.12 79,-209.08 79,-212.04 79,-212.04 79,-217.96 79,-217.96 79,-220.92 76.04,-223.88 73.08,-223.88"/>
<text text-anchor="start" x="32" y="-211.32" font-family="Helvetica,sans-Serif" font-size="9.00">index.d.ts</text>
</a>
</g>
</g>
<!-- src/main/index.js -->
<g id="node3" class="node">
<title>src/main/index.js</title>
<g id="a_node3"><a xlink:href="src/main/index.js" xlink:title="index.js">
<path fill="#ffffcc" stroke="black" d="M72.58,-137.88C72.58,-137.88 30.42,-137.88 30.42,-137.88 27.46,-137.88 24.5,-134.92 24.5,-131.96 24.5,-131.96 24.5,-126.04 24.5,-126.04 24.5,-123.08 27.46,-120.12 30.42,-120.12 30.42,-120.12 72.58,-120.12 72.58,-120.12 75.54,-120.12 78.5,-123.08 78.5,-126.04 78.5,-126.04 78.5,-131.96 78.5,-131.96 78.5,-134.92 75.54,-137.88 72.58,-137.88"/>
<text text-anchor="start" x="35.75" y="-125.33" font-family="Helvetica,sans-Serif" font-size="9.00">index.js</text>
</a>
</g>
</g>
<!-- src/main/index.js&#45;&gt;src/main/files&#45;and&#45;dirs/normalize.js -->
<g id="edge1" class="edge">
<title>src/main/index.js&#45;&gt;src/main/files&#45;and&#45;dirs/normalize.js</title>
<path fill="none" stroke="#000000" stroke-width="2" stroke-opacity="0.200000" d="M56.36,-119.7C62.84,-105.14 77.25,-76.71 103.9,-54.83"/>
<polygon fill="#000000" fill-opacity="0.200000" stroke="#000000" stroke-width="2" stroke-opacity="0.200000" points="105.46,-55.74 108.94,-50.42 102.9,-52.41 105.46,-55.74"/>
</g>
<!-- src/main/options/normalize.js -->
<g id="node4" class="node">
<title>src/main/options/normalize.js</title>
<g id="a_node4"><a xlink:href="src/main/options/normalize.js" xlink:title="normalize.js">
<path fill="#ffffcc" stroke="black" d="M277.46,-128.88C277.46,-128.88 223.79,-128.88 223.79,-128.88 220.83,-128.88 217.88,-125.92 217.88,-122.96 217.88,-122.96 217.88,-117.04 217.88,-117.04 217.88,-114.08 220.83,-111.12 223.79,-111.12 223.79,-111.12 277.46,-111.12 277.46,-111.12 280.42,-111.12 283.38,-114.08 283.38,-117.04 283.38,-117.04 283.38,-122.96 283.38,-122.96 283.38,-125.92 280.42,-128.88 277.46,-128.88"/>
<text text-anchor="start" x="225.88" y="-116.33" font-family="Helvetica,sans-Serif" font-size="9.00">normalize.js</text>
</a>
</g>
</g>
<!-- src/main/index.js&#45;&gt;src/main/options/normalize.js -->
<g id="edge2" class="edge">
<title>src/main/index.js&#45;&gt;src/main/options/normalize.js</title>
<path fill="none" stroke="#000000" stroke-width="2" stroke-opacity="0.200000" d="M78.89,-126.7C86.76,-126.08 95.41,-125.45 103.38,-125 139.01,-122.99 179.57,-121.68 208.92,-120.91"/>
<polygon fill="#000000" fill-opacity="0.200000" stroke="#000000" stroke-width="2" stroke-opacity="0.200000" points="208.71,-122.94 214.65,-120.69 208.6,-118.74 208.71,-122.94"/>
</g>
<!-- src/main/options/validate.js -->
<g id="node5" class="node">
<title>src/main/options/validate.js</title>
<g id="a_node5"><a xlink:href="src/main/options/validate.js" xlink:title="validate.js">
<path fill="#ffffcc" stroke="black" d="M273.33,-158.88C273.33,-158.88 227.92,-158.88 227.92,-158.88 224.96,-158.88 222,-155.92 222,-152.96 222,-152.96 222,-147.04 222,-147.04 222,-144.08 224.96,-141.12 227.92,-141.12 227.92,-141.12 273.33,-141.12 273.33,-141.12 276.29,-141.12 279.25,-144.08 279.25,-147.04 279.25,-147.04 279.25,-152.96 279.25,-152.96 279.25,-155.92 276.29,-158.88 273.33,-158.88"/>
<text text-anchor="start" x="230" y="-146.32" font-family="Helvetica,sans-Serif" font-size="9.00">validate.js</text>
</a>
</g>
</g>
<!-- src/main/index.js&#45;&gt;src/main/options/validate.js -->
<g id="edge3" class="edge">
<title>src/main/index.js&#45;&gt;src/main/options/validate.js</title>
<path fill="none" stroke="#000000" stroke-width="2" stroke-opacity="0.200000" d="M78.95,-128.75C105.96,-128.82 149.03,-129.88 185.88,-135 194.74,-136.23 204.19,-138.13 213.02,-140.16"/>
<polygon fill="#000000" fill-opacity="0.200000" stroke="#000000" stroke-width="2" stroke-opacity="0.200000" points="213.27,-142.86 219.59,-142.21 214.25,-138.77 213.27,-142.86"/>
</g>
<!-- src/main/report&#45;wrap.js -->
<g id="node6" class="node">
<title>src/main/report&#45;wrap.js</title>
<g id="a_node6"><a xlink:href="src/main/report-wrap.js" xlink:title="report&#45;wrap.js">
<path fill="#ffffcc" stroke="black" d="M174.33,-101.88C174.33,-101.88 113.92,-101.88 113.92,-101.88 110.96,-101.88 108,-98.92 108,-95.96 108,-95.96 108,-90.04 108,-90.04 108,-87.08 110.96,-84.12 113.92,-84.12 113.92,-84.12 174.33,-84.12 174.33,-84.12 177.29,-84.12 180.25,-87.08 180.25,-90.04 180.25,-90.04 180.25,-95.96 180.25,-95.96 180.25,-98.92 177.29,-101.88 174.33,-101.88"/>
<text text-anchor="start" x="116" y="-89.33" font-family="Helvetica,sans-Serif" font-size="9.00">report&#45;wrap.js</text>
</a>
</g>
</g>
<!-- src/main/index.js&#45;&gt;src/main/report&#45;wrap.js -->
<g id="edge4" class="edge">
<title>src/main/index.js&#45;&gt;src/main/report&#45;wrap.js</title>
<path fill="none" stroke="#000000" stroke-width="2" stroke-opacity="0.200000" d="M75.84,-119.73C86.64,-115.44 99.64,-110.27 111.33,-105.63"/>
<polygon fill="#000000" fill-opacity="0.200000" stroke="#000000" stroke-width="2" stroke-opacity="0.200000" points="112.75,-107.53 117.55,-103.36 111.2,-103.63 112.75,-107.53"/>
</g>
<!-- src/main/resolve&#45;options/normalize.js -->
<g id="node7" class="node">
<title>src/main/resolve&#45;options/normalize.js</title>
<g id="a_node7"><a xlink:href="src/main/resolve-options/normalize.js" xlink:title="normalize.js">
<path fill="#ffffcc" stroke="black" d="M170.96,-163.88C170.96,-163.88 117.29,-163.88 117.29,-163.88 114.33,-163.88 111.38,-160.92 111.38,-157.96 111.38,-157.96 111.38,-152.04 111.38,-152.04 111.38,-149.08 114.33,-146.12 117.29,-146.12 117.29,-146.12 170.96,-146.12 170.96,-146.12 173.92,-146.12 176.88,-149.08 176.88,-152.04 176.88,-152.04 176.88,-157.96 176.88,-157.96 176.88,-160.92 173.92,-163.88 170.96,-163.88"/>
<text text-anchor="start" x="119.38" y="-151.32" font-family="Helvetica,sans-Serif" font-size="9.00">normalize.js</text>
</a>
</g>
</g>
<!-- src/main/index.js&#45;&gt;src/main/resolve&#45;options/normalize.js -->
<g id="edge5" class="edge">
<title>src/main/index.js&#45;&gt;src/main/resolve&#45;options/normalize.js</title>
<path fill="none" stroke="#000000" stroke-width="2" stroke-opacity="0.200000" d="M78.71,-136.52C86.16,-138.66 94.45,-141.04 102.54,-143.36"/>
<polygon fill="#000000" fill-opacity="0.200000" stroke="#000000" stroke-width="2" stroke-opacity="0.200000" points="102.84,-146.2 109.18,-145.84 104,-142.16 102.84,-146.2"/>
</g>
<!-- src/main/rule&#45;set/normalize.js -->
<g id="node8" class="node">
<title>src/main/rule&#45;set/normalize.js</title>
<g id="a_node8"><a xlink:href="src/main/rule-set/normalize.js" xlink:title="normalize.js">
<path fill="#ffffcc" stroke="black" d="M170.96,-253.88C170.96,-253.88 117.29,-253.88 117.29,-253.88 114.33,-253.88 111.38,-250.92 111.38,-247.96 111.38,-247.96 111.38,-242.04 111.38,-242.04 111.38,-239.08 114.33,-236.12 117.29,-236.12 117.29,-236.12 170.96,-236.12 170.96,-236.12 173.92,-236.12 176.88,-239.08 176.88,-242.04 176.88,-242.04 176.88,-247.96 176.88,-247.96 176.88,-250.92 173.92,-253.88 170.96,-253.88"/>
<text text-anchor="start" x="119.38" y="-241.32" font-family="Helvetica,sans-Serif" font-size="9.00">normalize.js</text>
</a>
</g>
</g>
<!-- src/main/index.js&#45;&gt;src/main/rule&#45;set/normalize.js -->
<g id="edge6" class="edge">
<title>src/main/index.js&#45;&gt;src/main/rule&#45;set/normalize.js</title>
<path fill="none" stroke="#000000" stroke-width="2" stroke-opacity="0.200000" d="M54.7,-138.2C59.84,-157.8 74.47,-204 103.38,-230 103.68,-230.27 103.98,-230.54 104.3,-230.8"/>
<polygon fill="#000000" fill-opacity="0.200000" stroke="#000000" stroke-width="2" stroke-opacity="0.200000" points="103.31,-233.02 109.46,-234.64 105.66,-229.54 103.31,-233.02"/>
</g>
<!-- src/main/rule&#45;set/validate.js -->
<g id="node9" class="node">
<title>src/main/rule&#45;set/validate.js</title>
<g id="a_node9"><a xlink:href="src/main/rule-set/validate.js" xlink:title="validate.js">
<path fill="#ffffcc" stroke="black" d="M166.83,-223.88C166.83,-223.88 121.42,-223.88 121.42,-223.88 118.46,-223.88 115.5,-220.92 115.5,-217.96 115.5,-217.96 115.5,-212.04 115.5,-212.04 115.5,-209.08 118.46,-206.12 121.42,-206.12 121.42,-206.12 166.83,-206.12 166.83,-206.12 169.79,-206.12 172.75,-209.08 172.75,-212.04 172.75,-212.04 172.75,-217.96 172.75,-217.96 172.75,-220.92 169.79,-223.88 166.83,-223.88"/>
<text text-anchor="start" x="123.5" y="-211.32" font-family="Helvetica,sans-Serif" font-size="9.00">validate.js</text>
</a>
</g>
</g>
<!-- src/main/index.js&#45;&gt;src/main/rule&#45;set/validate.js -->
<g id="edge7" class="edge">
<title>src/main/index.js&#45;&gt;src/main/rule&#45;set/validate.js</title>
<path fill="none" stroke="#000000" stroke-width="2" stroke-opacity="0.200000" d="M58.13,-138.21C66.64,-151.56 83.87,-176.5 103.38,-193 106.9,-195.98 110.89,-198.75 114.94,-201.24"/>
<polygon fill="#000000" fill-opacity="0.200000" stroke="#000000" stroke-width="2" stroke-opacity="0.200000" points="114.47,-203.54 120.73,-204.69 116.56,-199.89 114.47,-203.54"/>
</g>
<!-- src/main/options/defaults.js -->
<g id="node10" class="node">
<title>src/main/options/defaults.js</title>
<g id="a_node10"><a xlink:href="src/main/options/defaults.js" xlink:title="defaults.js">
<path fill="#ffffcc" stroke="black" d="M382.58,-128.88C382.58,-128.88 337.17,-128.88 337.17,-128.88 334.21,-128.88 331.25,-125.92 331.25,-122.96 331.25,-122.96 331.25,-117.04 331.25,-117.04 331.25,-114.08 334.21,-111.12 337.17,-111.12 337.17,-111.12 382.58,-111.12 382.58,-111.12 385.54,-111.12 388.5,-114.08 388.5,-117.04 388.5,-117.04 388.5,-122.96 388.5,-122.96 388.5,-125.92 385.54,-128.88 382.58,-128.88"/>
<text text-anchor="start" x="339.25" y="-116.33" font-family="Helvetica,sans-Serif" font-size="9.00">defaults.js</text>
</a>
</g>
</g>
<!-- src/main/options/normalize.js&#45;&gt;src/main/options/defaults.js -->
<g id="edge9" class="edge">
<title>src/main/options/normalize.js&#45;&gt;src/main/options/defaults.js</title>
<path fill="none" stroke="#000000" stroke-width="2" stroke-opacity="0.200000" d="M283.8,-120C295.92,-120 309.78,-120 322.27,-120"/>
<polygon fill="#000000" fill-opacity="0.200000" stroke="#000000" stroke-width="2" stroke-opacity="0.200000" points="322.08,-122.1 328.08,-120 322.08,-117.9 322.08,-122.1"/>
</g>
<!-- src/main/utl/normalize&#45;re&#45;properties.js -->
<g id="node11" class="node">
<title>src/main/utl/normalize&#45;re&#45;properties.js</title>
<g id="a_node11"><a xlink:href="src/main/utl/normalize-re-properties.js" xlink:title="normalize&#45;re&#45;properties.js">
<path fill="#ffffcc" stroke="black" d="M414.46,-223.88C414.46,-223.88 305.29,-223.88 305.29,-223.88 302.33,-223.88 299.38,-220.92 299.38,-217.96 299.38,-217.96 299.38,-212.04 299.38,-212.04 299.38,-209.08 302.33,-206.12 305.29,-206.12 305.29,-206.12 414.46,-206.12 414.46,-206.12 417.42,-206.12 420.38,-209.08 420.38,-212.04 420.38,-212.04 420.38,-217.96 420.38,-217.96 420.38,-220.92 417.42,-223.88 414.46,-223.88"/>
<text text-anchor="start" x="307.38" y="-211.32" font-family="Helvetica,sans-Serif" font-size="9.00">normalize&#45;re&#45;properties.js</text>
</a>
</g>
</g>
<!-- src/main/options/normalize.js&#45;&gt;src/main/utl/normalize&#45;re&#45;properties.js -->
<g id="edge8" class="edge">
<title>src/main/options/normalize.js&#45;&gt;src/main/utl/normalize&#45;re&#45;properties.js</title>
<path fill="none" stroke="#000000" stroke-width="2" stroke-opacity="0.200000" d="M277.29,-129.18C279.6,-130.82 281.7,-132.75 283.38,-135 297.59,-154.11 276.58,-169.33 291.38,-188 295.94,-193.76 301.92,-198.3 308.43,-201.87"/>
<polygon fill="#000000" fill-opacity="0.200000" stroke="#000000" stroke-width="2" stroke-opacity="0.200000" points="307.95,-203.93 314.27,-204.63 309.77,-200.14 307.95,-203.93"/>
</g>
<!-- src/main/rule&#45;set/normalize.js&#45;&gt;src/main/utl/normalize&#45;re&#45;properties.js -->
<g id="edge10" class="edge">
<title>src/main/rule&#45;set/normalize.js&#45;&gt;src/main/utl/normalize&#45;re&#45;properties.js</title>
<path fill="none" stroke="#000000" stroke-width="2" stroke-opacity="0.200000" d="M177.13,-240.51C207.01,-236.31 252.59,-229.92 290.63,-224.58"/>
<polygon fill="#000000" fill-opacity="0.200000" stroke="#000000" stroke-width="2" stroke-opacity="0.200000" points="291.47,-226.3 297.12,-223.39 290.88,-222.14 291.47,-226.3"/>
</g>
<!-- src/main/rule&#45;set/validate.js&#45;&gt;src/main/options/validate.js -->
<g id="edge11" class="edge">
<title>src/main/rule&#45;set/validate.js&#45;&gt;src/main/options/validate.js</title>
<path fill="none" stroke="#000000" stroke-width="2" stroke-opacity="0.200000" d="M163.19,-205.74C170.34,-201.94 178.58,-197.41 185.88,-193 200.82,-183.96 217.14,-172.92 229.53,-164.3"/>
<polygon fill="#000000" fill-opacity="0.200000" stroke="#000000" stroke-width="2" stroke-opacity="0.200000" points="230.98,-165.44 234.68,-160.28 228.57,-162 230.98,-165.44"/>
</g>
<!-- src/main/rule&#45;set/validate.js&#45;&gt;src/main/utl/normalize&#45;re&#45;properties.js -->
<g id="edge12" class="edge">
<title>src/main/rule&#45;set/validate.js&#45;&gt;src/main/utl/normalize&#45;re&#45;properties.js</title>
<path fill="none" stroke="#000000" stroke-width="2" stroke-opacity="0.200000" d="M173.07,-215C202.63,-215 250.4,-215 290.1,-215"/>
<polygon fill="#000000" fill-opacity="0.200000" stroke="#000000" stroke-width="2" stroke-opacity="0.200000" points="289.96,-217.1 295.96,-215 289.96,-212.9 289.96,-217.1"/>
</g>
</g>
</svg>
