<?xml version="1.0" encoding="UTF-8" standalone="no"?>
<!DOCTYPE svg PUBLIC "-//W3C//DTD SVG 1.1//EN"
 "http://www.w3.org/Graphics/SVG/1.1/DTD/svg11.dtd">
<!-- Generated by graphviz version 9.0.0 (20230911.1827)
 -->
<!-- Title: dependency&#45;cruiser output Pages: 1 -->
<svg width="485pt" height="358pt"
 viewBox="0.00 0.00 484.50 358.00" xmlns="http://www.w3.org/2000/svg" xmlns:xlink="http://www.w3.org/1999/xlink">
<g id="graph0" class="graph" transform="scale(1 1) rotate(0) translate(4 354)">
<title>dependency&#45;cruiser output</title>
<polygon fill="white" stroke="none" points="-4,4 -4,-354 480.5,-354 480.5,4 -4,4"/>
<g id="clust1" class="cluster">
<title>cluster_src</title>
<path fill="#ffffff" stroke="black" stroke-width="2" d="M20,-8C20,-8 456.5,-8 456.5,-8 462.5,-8 468.5,-14 468.5,-20 468.5,-20 468.5,-330 468.5,-330 468.5,-336 462.5,-342 456.5,-342 456.5,-342 20,-342 20,-342 14,-342 8,-336 8,-330 8,-330 8,-20 8,-20 8,-14 14,-8 20,-8"/>
<text text-anchor="middle" x="238.25" y="-329.45" font-family="Helvetica,sans-Serif" font-weight="bold" font-size="9.00">src</text>
</g>
<g id="clust2" class="cluster">
<title>cluster_src/main</title>
<path fill="#ffffff" stroke="black" stroke-width="2" d="M28,-16C28,-16 448.5,-16 448.5,-16 454.5,-16 460.5,-22 460.5,-28 460.5,-28 460.5,-304 460.5,-304 460.5,-310 454.5,-316 448.5,-316 448.5,-316 28,-316 28,-316 22,-316 16,-310 16,-304 16,-304 16,-28 16,-28 16,-22 22,-16 28,-16"/>
<text text-anchor="middle" x="238.25" y="-303.45" font-family="Helvetica,sans-Serif" font-weight="bold" font-size="9.00">main</text>
</g>
<g id="clust3" class="cluster">
<title>cluster_src/main/files&#45;and&#45;dirs</title>
<path fill="#ffffff" stroke="black" stroke-width="2" d="M177.12,-114C177.12,-114 242.12,-114 242.12,-114 248.12,-114 254.12,-120 254.12,-126 254.12,-126 254.12,-154 254.12,-154 254.12,-160 248.12,-166 242.12,-166 242.12,-166 177.12,-166 177.12,-166 171.12,-166 165.12,-160 165.12,-154 165.12,-154 165.12,-126 165.12,-126 165.12,-120 171.12,-114 177.12,-114"/>
<text text-anchor="middle" x="209.62" y="-153.45" font-family="Helvetica,sans-Serif" font-weight="bold" font-size="9.00">files&#45;and&#45;dirs</text>
</g>
<g id="clust4" class="cluster">
<title>cluster_src/main/options</title>
<path fill="#ffffff" stroke="black" stroke-width="2" d="M282,-150C282,-150 440.5,-150 440.5,-150 446.5,-150 452.5,-156 452.5,-162 452.5,-162 452.5,-220 452.5,-220 452.5,-226 446.5,-232 440.5,-232 440.5,-232 282,-232 282,-232 276,-232 270,-226 270,-220 270,-220 270,-162 270,-162 270,-156 276,-150 282,-150"/>
<text text-anchor="middle" x="361.25" y="-219.45" font-family="Helvetica,sans-Serif" font-weight="bold" font-size="9.00">options</text>
</g>
<g id="clust5" class="cluster">
<title>cluster_src/main/resolve&#45;options</title>
<path fill="#ffffff" stroke="black" stroke-width="2" d="M177.12,-198C177.12,-198 242.12,-198 242.12,-198 248.12,-198 254.12,-204 254.12,-210 254.12,-210 254.12,-238 254.12,-238 254.12,-244 248.12,-250 242.12,-250 242.12,-250 177.12,-250 177.12,-250 171.12,-250 165.12,-244 165.12,-238 165.12,-238 165.12,-210 165.12,-210 165.12,-204 171.12,-198 177.12,-198"/>
<text text-anchor="middle" x="209.62" y="-237.45" font-family="Helvetica,sans-Serif" font-weight="bold" font-size="9.00">resolve&#45;options</text>
</g>
<g id="clust6" class="cluster">
<title>cluster_src/main/rule&#45;set</title>
<path fill="#ffffff" stroke="black" stroke-width="2" d="M169.25,-24C169.25,-24 250,-24 250,-24 256,-24 262,-30 262,-36 262,-36 262,-94 262,-94 262,-100 256,-106 250,-106 250,-106 169.25,-106 169.25,-106 163.25,-106 157.25,-100 157.25,-94 157.25,-94 157.25,-36 157.25,-36 157.25,-30 163.25,-24 169.25,-24"/>
<text text-anchor="middle" x="209.62" y="-93.45" font-family="Helvetica,sans-Serif" font-weight="bold" font-size="9.00">rule&#45;set</text>
</g>
<!-- src/main/cruise.mjs -->
<g id="node1" class="node">
<title>src/main/cruise.mjs</title>
<g id="a_node1"><a xlink:href="src/main/cruise.mjs" xlink:title="cruise.mjs">
<path fill="#ffffcc" stroke="black" d="M143.33,-190.88C143.33,-190.88 97.92,-190.88 97.92,-190.88 94.96,-190.88 92,-187.92 92,-184.96 92,-184.96 92,-179.04 92,-179.04 92,-176.08 94.96,-173.12 97.92,-173.12 97.92,-173.12 143.33,-173.12 143.33,-173.12 146.29,-173.12 149.25,-176.08 149.25,-179.04 149.25,-179.04 149.25,-184.96 149.25,-184.96 149.25,-187.92 146.29,-190.88 143.33,-190.88"/>
<text text-anchor="start" x="100" y="-178.32" font-family="Helvetica,sans-Serif" font-size="9.00">cruise.mjs</text>
</a>
</g>
</g>
<!-- src/main/files&#45;and&#45;dirs/normalize.mjs -->
<g id="node2" class="node">
<title>src/main/files&#45;and&#45;dirs/normalize.mjs</title>
<g id="a_node2"><a xlink:href="src/main/files-and-dirs/normalize.mjs" xlink:title="normalize.mjs">
<path fill="#ffffcc" stroke="black" d="M240.21,-139.88C240.21,-139.88 179.04,-139.88 179.04,-139.88 176.08,-139.88 173.12,-136.92 173.12,-133.96 173.12,-133.96 173.12,-128.04 173.12,-128.04 173.12,-125.08 176.08,-122.12 179.04,-122.12 179.04,-122.12 240.21,-122.12 240.21,-122.12 243.17,-122.12 246.12,-125.08 246.12,-128.04 246.12,-128.04 246.12,-133.96 246.12,-133.96 246.12,-136.92 243.17,-139.88 240.21,-139.88"/>
<text text-anchor="start" x="181.12" y="-127.33" font-family="Helvetica,sans-Serif" font-size="9.00">normalize.mjs</text>
</a>
</g>
</g>
<!-- src/main/cruise.mjs&#45;&gt;src/main/files&#45;and&#45;dirs/normalize.mjs -->
<g id="edge1" class="edge">
<title>src/main/cruise.mjs&#45;&gt;src/main/files&#45;and&#45;dirs/normalize.mjs</title>
<path fill="none" stroke="#000000" stroke-width="2" stroke-dasharray="5,2" stroke-opacity="0.200000" d="M127.88,-172.75C134.26,-164.03 144.94,-151.26 157.25,-144 159.63,-142.6 162.15,-141.35 164.76,-140.23"/>
<polygon fill="#000000" fill-opacity="0.200000" stroke="#000000" stroke-width="2" stroke-opacity="0.200000" points="165.02,-142.37 169.92,-138.31 163.56,-138.43 165.02,-142.37"/>
</g>
<!-- src/main/options/assert&#45;validity.mjs -->
<g id="node3" class="node">
<title>src/main/options/assert&#45;validity.mjs</title>
<g id="a_node3"><a xlink:href="src/main/options/assert-validity.mjs" xlink:title="assert&#45;validity.mjs">
<path fill="#ffffcc" stroke="black" d="M360.83,-175.88C360.83,-175.88 283.92,-175.88 283.92,-175.88 280.96,-175.88 278,-172.92 278,-169.96 278,-169.96 278,-164.04 278,-164.04 278,-161.08 280.96,-158.12 283.92,-158.12 283.92,-158.12 360.83,-158.12 360.83,-158.12 363.79,-158.12 366.75,-161.08 366.75,-164.04 366.75,-164.04 366.75,-169.96 366.75,-169.96 366.75,-172.92 363.79,-175.88 360.83,-175.88"/>
<text text-anchor="start" x="286" y="-163.32" font-family="Helvetica,sans-Serif" font-size="9.00">assert&#45;validity.mjs</text>
</a>
</g>
</g>
<!-- src/main/cruise.mjs&#45;&gt;src/main/options/assert&#45;validity.mjs -->
<g id="edge2" class="edge">
<title>src/main/cruise.mjs&#45;&gt;src/main/options/assert&#45;validity.mjs</title>
<path fill="none" stroke="#000000" stroke-width="2" stroke-opacity="0.200000" d="M149.4,-179.91C180.16,-177.6 230.47,-173.83 268.75,-170.95"/>
<polygon fill="#000000" fill-opacity="0.200000" stroke="#000000" stroke-width="2" stroke-opacity="0.200000" points="268.86,-173.05 274.69,-170.51 268.55,-168.86 268.86,-173.05"/>
</g>
<!-- src/main/options/normalize.mjs -->
<g id="node4" class="node">
<title>src/main/options/normalize.mjs</title>
<g id="a_node4"><a xlink:href="src/main/options/normalize.mjs" xlink:title="normalize.mjs">
<path fill="#ffffcc" stroke="black" d="M352.96,-205.88C352.96,-205.88 291.79,-205.88 291.79,-205.88 288.83,-205.88 285.88,-202.92 285.88,-199.96 285.88,-199.96 285.88,-194.04 285.88,-194.04 285.88,-191.08 288.83,-188.12 291.79,-188.12 291.79,-188.12 352.96,-188.12 352.96,-188.12 355.92,-188.12 358.88,-191.08 358.88,-194.04 358.88,-194.04 358.88,-199.96 358.88,-199.96 358.88,-202.92 355.92,-205.88 352.96,-205.88"/>
<text text-anchor="start" x="293.88" y="-193.32" font-family="Helvetica,sans-Serif" font-size="9.00">normalize.mjs</text>
</a>
</g>
</g>
<!-- src/main/cruise.mjs&#45;&gt;src/main/options/normalize.mjs -->
<g id="edge3" class="edge">
<title>src/main/cruise.mjs&#45;&gt;src/main/options/normalize.mjs</title>
<path fill="none" stroke="#000000" stroke-width="2" stroke-opacity="0.200000" d="M149.4,-184.09C182.39,-186.56 237.85,-190.73 276.85,-193.66"/>
<polygon fill="#000000" fill-opacity="0.200000" stroke="#000000" stroke-width="2" stroke-opacity="0.200000" points="276.24,-195.72 282.38,-194.07 276.55,-191.53 276.24,-195.72"/>
</g>
<!-- src/main/report&#45;wrap.mjs -->
<g id="node5" class="node">
<title>src/main/report&#45;wrap.mjs</title>
<g id="a_node5"><a xlink:href="src/main/report-wrap.mjs" xlink:title="report&#45;wrap.mjs">
<path fill="#ffffcc" stroke="black" d="M356.33,-282.88C356.33,-282.88 288.42,-282.88 288.42,-282.88 285.46,-282.88 282.5,-279.92 282.5,-276.96 282.5,-276.96 282.5,-271.04 282.5,-271.04 282.5,-268.08 285.46,-265.12 288.42,-265.12 288.42,-265.12 356.33,-265.12 356.33,-265.12 359.29,-265.12 362.25,-268.08 362.25,-271.04 362.25,-271.04 362.25,-276.96 362.25,-276.96 362.25,-279.92 359.29,-282.88 356.33,-282.88"/>
<text text-anchor="start" x="290.5" y="-270.32" font-family="Helvetica,sans-Serif" font-size="9.00">report&#45;wrap.mjs</text>
</a>
</g>
</g>
<!-- src/main/cruise.mjs&#45;&gt;src/main/report&#45;wrap.mjs -->
<g id="edge4" class="edge">
<title>src/main/cruise.mjs&#45;&gt;src/main/report&#45;wrap.mjs</title>
<path fill="none" stroke="#000000" stroke-width="2" stroke-opacity="0.200000" d="M121.67,-191.21C122.33,-211.67 127.13,-260.76 157.25,-282 196.15,-309.44 254.07,-297.71 289.68,-286.21"/>
<polygon fill="#000000" fill-opacity="0.200000" stroke="#000000" stroke-width="2" stroke-opacity="0.200000" points="290.36,-288.2 295.37,-284.29 289.01,-284.23 290.36,-288.2"/>
</g>
<!-- src/main/resolve&#45;options/normalize.mjs -->
<g id="node6" class="node">
<title>src/main/resolve&#45;options/normalize.mjs</title>
<g id="a_node6"><a xlink:href="src/main/resolve-options/normalize.mjs" xlink:title="normalize.mjs">
<path fill="#ffffcc" stroke="black" d="M240.21,-223.88C240.21,-223.88 179.04,-223.88 179.04,-223.88 176.08,-223.88 173.12,-220.92 173.12,-217.96 173.12,-217.96 173.12,-212.04 173.12,-212.04 173.12,-209.08 176.08,-206.12 179.04,-206.12 179.04,-206.12 240.21,-206.12 240.21,-206.12 243.17,-206.12 246.12,-209.08 246.12,-212.04 246.12,-212.04 246.12,-217.96 246.12,-217.96 246.12,-220.92 243.17,-223.88 240.21,-223.88"/>
<text text-anchor="start" x="181.12" y="-211.32" font-family="Helvetica,sans-Serif" font-size="9.00">normalize.mjs</text>
</a>
</g>
</g>
<!-- src/main/cruise.mjs&#45;&gt;src/main/resolve&#45;options/normalize.mjs -->
<g id="edge5" class="edge">
<title>src/main/cruise.mjs&#45;&gt;src/main/resolve&#45;options/normalize.mjs</title>
<path fill="none" stroke="#000000" stroke-width="2" stroke-dasharray="5,2" stroke-opacity="0.200000" d="M136.1,-191.27C142.41,-195.01 150,-199.11 157.25,-202 159.57,-202.93 161.98,-203.8 164.43,-204.63"/>
<polygon fill="#000000" fill-opacity="0.200000" stroke="#000000" stroke-width="2" stroke-opacity="0.200000" points="163.62,-206.58 169.97,-206.35 164.86,-202.57 163.62,-206.58"/>
</g>
<!-- src/main/rule&#45;set/assert&#45;validity.mjs -->
<g id="node7" class="node">
<title>src/main/rule&#45;set/assert&#45;validity.mjs</title>
<g id="a_node7"><a xlink:href="src/main/rule-set/assert-validity.mjs" xlink:title="assert&#45;validity.mjs">
<path fill="#ffffcc" stroke="black" d="M248.08,-79.88C248.08,-79.88 171.17,-79.88 171.17,-79.88 168.21,-79.88 165.25,-76.92 165.25,-73.96 165.25,-73.96 165.25,-68.04 165.25,-68.04 165.25,-65.08 168.21,-62.12 171.17,-62.12 171.17,-62.12 248.08,-62.12 248.08,-62.12 251.04,-62.12 254,-65.08 254,-68.04 254,-68.04 254,-73.96 254,-73.96 254,-76.92 251.04,-79.88 248.08,-79.88"/>
<text text-anchor="start" x="173.25" y="-67.33" font-family="Helvetica,sans-Serif" font-size="9.00">assert&#45;validity.mjs</text>
</a>
</g>
</g>
<!-- src/main/cruise.mjs&#45;&gt;src/main/rule&#45;set/assert&#45;validity.mjs -->
<g id="edge6" class="edge">
<title>src/main/cruise.mjs&#45;&gt;src/main/rule&#45;set/assert&#45;validity.mjs</title>
<path fill="none" stroke="#000000" stroke-width="2" stroke-dasharray="5,2" stroke-opacity="0.200000" d="M124.67,-172.97C129.79,-158.71 141.15,-130.62 157.25,-111 165.28,-101.21 176.13,-92.33 185.78,-85.43"/>
<polygon fill="#000000" fill-opacity="0.200000" stroke="#000000" stroke-width="2" stroke-opacity="0.200000" points="186.94,-87.19 190.7,-82.06 184.56,-83.72 186.94,-87.19"/>
</g>
<!-- src/main/rule&#45;set/normalize.mjs -->
<g id="node8" class="node">
<title>src/main/rule&#45;set/normalize.mjs</title>
<g id="a_node8"><a xlink:href="src/main/rule-set/normalize.mjs" xlink:title="normalize.mjs">
<path fill="#ffffcc" stroke="black" d="M240.21,-49.88C240.21,-49.88 179.04,-49.88 179.04,-49.88 176.08,-49.88 173.12,-46.92 173.12,-43.96 173.12,-43.96 173.12,-38.04 173.12,-38.04 173.12,-35.08 176.08,-32.12 179.04,-32.12 179.04,-32.12 240.21,-32.12 240.21,-32.12 243.17,-32.12 246.12,-35.08 246.12,-38.04 246.12,-38.04 246.12,-43.96 246.12,-43.96 246.12,-46.92 243.17,-49.88 240.21,-49.88"/>
<text text-anchor="start" x="181.12" y="-37.33" font-family="Helvetica,sans-Serif" font-size="9.00">normalize.mjs</text>
</a>
</g>
</g>
<!-- src/main/cruise.mjs&#45;&gt;src/main/rule&#45;set/normalize.mjs -->
<g id="edge7" class="edge">
<title>src/main/cruise.mjs&#45;&gt;src/main/rule&#45;set/normalize.mjs</title>
<path fill="none" stroke="#000000" stroke-width="2" stroke-dasharray="5,2" stroke-opacity="0.200000" d="M121.4,-172.93C121.33,-149.98 124.44,-89.09 157.25,-56 159.48,-53.75 162.02,-51.84 164.75,-50.21"/>
<polygon fill="#000000" fill-opacity="0.200000" stroke="#000000" stroke-width="2" stroke-opacity="0.200000" points="165.63,-52.12 170.14,-47.63 163.82,-48.33 165.63,-52.12"/>
</g>
<!-- src/main/helpers.mjs -->
<g id="node10" class="node">
<title>src/main/helpers.mjs</title>
<g id="a_node10"><a xlink:href="src/main/helpers.mjs" xlink:title="helpers.mjs">
<path fill="#ffffcc" stroke="black" d="M437.83,-79.88C437.83,-79.88 386.42,-79.88 386.42,-79.88 383.46,-79.88 380.5,-76.92 380.5,-73.96 380.5,-73.96 380.5,-68.04 380.5,-68.04 380.5,-65.08 383.46,-62.12 386.42,-62.12 386.42,-62.12 437.83,-62.12 437.83,-62.12 440.79,-62.12 443.75,-65.08 443.75,-68.04 443.75,-68.04 443.75,-73.96 443.75,-73.96 443.75,-76.92 440.79,-79.88 437.83,-79.88"/>
<text text-anchor="start" x="388.5" y="-67.33" font-family="Helvetica,sans-Serif" font-size="9.00">helpers.mjs</text>
</a>
</g>
</g>
<!-- src/main/options/normalize.mjs&#45;&gt;src/main/helpers.mjs -->
<g id="edge13" class="edge">
<title>src/main/options/normalize.mjs&#45;&gt;src/main/helpers.mjs</title>
<path fill="none" stroke="#000000" stroke-width="2" stroke-opacity="0.200000" d="M359.04,-187.74C361.85,-186.13 364.47,-184.23 366.75,-182 378.62,-170.4 373.69,-162.45 379.75,-147 387.68,-126.78 397.26,-103.75 403.74,-88.39"/>
<polygon fill="#000000" fill-opacity="0.200000" stroke="#000000" stroke-width="2" stroke-opacity="0.200000" points="405.57,-89.45 405.97,-83.1 401.7,-87.81 405.57,-89.45"/>
</g>
<!-- src/main/options/defaults.mjs -->
<g id="node13" class="node">
<title>src/main/options/defaults.mjs</title>
<g id="a_node13"><a xlink:href="src/main/options/defaults.mjs" xlink:title="defaults.mjs">
<path fill="#ffffcc" stroke="black" d="M438.58,-205.88C438.58,-205.88 385.67,-205.88 385.67,-205.88 382.71,-205.88 379.75,-202.92 379.75,-199.96 379.75,-199.96 379.75,-194.04 379.75,-194.04 379.75,-191.08 382.71,-188.12 385.67,-188.12 385.67,-188.12 438.58,-188.12 438.58,-188.12 441.54,-188.12 444.5,-191.08 444.5,-194.04 444.5,-194.04 444.5,-199.96 444.5,-199.96 444.5,-202.92 441.54,-205.88 438.58,-205.88"/>
<text text-anchor="start" x="387.75" y="-193.32" font-family="Helvetica,sans-Serif" font-size="9.00">defaults.mjs</text>
</a>
</g>
</g>
<!-- src/main/options/normalize.mjs&#45;&gt;src/main/options/defaults.mjs -->
<g id="edge14" class="edge">
<title>src/main/options/normalize.mjs&#45;&gt;src/main/options/defaults.mjs</title>
<path fill="none" stroke="#000000" stroke-width="2" stroke-opacity="0.200000" d="M359.32,-197C362.94,-197 366.64,-197 370.31,-197"/>
<polygon fill="#000000" fill-opacity="0.200000" stroke="#000000" stroke-width="2" stroke-opacity="0.200000" points="370.29,-199.1 376.29,-197 370.29,-194.9 370.29,-199.1"/>
</g>
<!-- src/main/rule&#45;set/assert&#45;validity.mjs&#45;&gt;src/main/options/assert&#45;validity.mjs -->
<g id="edge16" class="edge">
<title>src/main/rule&#45;set/assert&#45;validity.mjs&#45;&gt;src/main/options/assert&#45;validity.mjs</title>
<path fill="none" stroke="#000000" stroke-width="2" stroke-opacity="0.200000" d="M228.14,-80.17C239.6,-87.09 253.89,-97.67 262,-111 272.1,-127.61 256.7,-139.82 270,-154 270.28,-154.3 270.57,-154.6 270.87,-154.89"/>
<polygon fill="#000000" fill-opacity="0.200000" stroke="#000000" stroke-width="2" stroke-opacity="0.200000" points="269.29,-156.33 275.36,-158.24 271.81,-152.97 269.29,-156.33"/>
</g>
<!-- src/main/rule&#45;set/assert&#45;validity.mjs&#45;&gt;src/main/helpers.mjs -->
<g id="edge15" class="edge">
<title>src/main/rule&#45;set/assert&#45;validity.mjs&#45;&gt;src/main/helpers.mjs</title>
<path fill="none" stroke="#000000" stroke-width="2" stroke-opacity="0.200000" d="M254.13,-71C289.02,-71 337.58,-71 371.42,-71"/>
<polygon fill="#000000" fill-opacity="0.200000" stroke="#000000" stroke-width="2" stroke-opacity="0.200000" points="371.1,-73.1 377.1,-71 371.1,-68.9 371.1,-73.1"/>
</g>
<!-- src/main/rule&#45;set/normalize.mjs&#45;&gt;src/main/helpers.mjs -->
<g id="edge17" class="edge">
<title>src/main/rule&#45;set/normalize.mjs&#45;&gt;src/main/helpers.mjs</title>
<path fill="none" stroke="#000000" stroke-width="2" stroke-opacity="0.200000" d="M246.47,-46.36C281.57,-51.61 334.93,-59.6 371.33,-65.04"/>
<polygon fill="#000000" fill-opacity="0.200000" stroke="#000000" stroke-width="2" stroke-opacity="0.200000" points="370.95,-67.11 377.2,-65.92 371.57,-62.96 370.95,-67.11"/>
</g>
<!-- src/main/format.mjs -->
<g id="node9" class="node">
<title>src/main/format.mjs</title>
<g id="a_node9"><a xlink:href="src/main/format.mjs" xlink:title="format.mjs">
<path fill="#ffffcc" stroke="black" d="M232.71,-275.88C232.71,-275.88 186.54,-275.88 186.54,-275.88 183.58,-275.88 180.62,-272.92 180.62,-269.96 180.62,-269.96 180.62,-264.04 180.62,-264.04 180.62,-261.08 183.58,-258.12 186.54,-258.12 186.54,-258.12 232.71,-258.12 232.71,-258.12 235.67,-258.12 238.62,-261.08 238.62,-264.04 238.62,-264.04 238.62,-269.96 238.62,-269.96 238.62,-272.92 235.67,-275.88 232.71,-275.88"/>
<text text-anchor="start" x="188.62" y="-263.32" font-family="Helvetica,sans-Serif" font-size="9.00">format.mjs</text>
</a>
</g>
</g>
<!-- src/main/format.mjs&#45;&gt;src/main/options/assert&#45;validity.mjs -->
<g id="edge8" class="edge">
<title>src/main/format.mjs&#45;&gt;src/main/options/assert&#45;validity.mjs</title>
<path fill="none" stroke="#000000" stroke-width="2" stroke-opacity="0.200000" d="M238.98,-265.33C247.56,-263.39 256.23,-259.74 262,-253 282.66,-228.89 249.56,-206.3 270,-182 270.27,-181.68 270.54,-181.37 270.83,-181.06"/>
<polygon fill="#000000" fill-opacity="0.200000" stroke="#000000" stroke-width="2" stroke-opacity="0.200000" points="271.91,-182.89 275.2,-177.45 269.24,-179.65 271.91,-182.89"/>
</g>
<!-- src/main/format.mjs&#45;&gt;src/main/options/normalize.mjs -->
<g id="edge9" class="edge">
<title>src/main/format.mjs&#45;&gt;src/main/options/normalize.mjs</title>
<path fill="none" stroke="#000000" stroke-width="2" stroke-opacity="0.200000" d="M238.97,-265.02C247.44,-263.05 256.05,-259.46 262,-253 275.17,-238.7 256.7,-224.18 270,-210 272.17,-207.68 274.7,-205.75 277.44,-204.15"/>
<polygon fill="#000000" fill-opacity="0.200000" stroke="#000000" stroke-width="2" stroke-opacity="0.200000" points="278.26,-206.08 282.85,-201.69 276.52,-202.26 278.26,-206.08"/>
</g>
<!-- src/main/format.mjs&#45;&gt;src/main/report&#45;wrap.mjs -->
<g id="edge10" class="edge">
<title>src/main/format.mjs&#45;&gt;src/main/report&#45;wrap.mjs</title>
<path fill="none" stroke="#000000" stroke-width="2" stroke-opacity="0.200000" d="M238.86,-268.78C249.38,-269.45 261.64,-270.22 273.43,-270.97"/>
<polygon fill="#000000" fill-opacity="0.200000" stroke="#000000" stroke-width="2" stroke-opacity="0.200000" points="273.19,-273.06 279.31,-271.34 273.45,-268.87 273.19,-273.06"/>
</g>
<!-- src/main/index.d.ts -->
<g id="node11" class="node">
<title>src/main/index.d.ts</title>
<g id="a_node11"><a xlink:href="src/main/index.d.ts" xlink:title="index.d.ts">
<path fill="#ccffcc" stroke="black" d="M73.08,-277.88C73.08,-277.88 29.92,-277.88 29.92,-277.88 26.96,-277.88 24,-274.92 24,-271.96 24,-271.96 24,-266.04 24,-266.04 24,-263.08 26.96,-260.12 29.92,-260.12 29.92,-260.12 73.08,-260.12 73.08,-260.12 76.04,-260.12 79,-263.08 79,-266.04 79,-266.04 79,-271.96 79,-271.96 79,-274.92 76.04,-277.88 73.08,-277.88"/>
<text text-anchor="start" x="32" y="-265.32" font-family="Helvetica,sans-Serif" font-size="9.00">index.d.ts</text>
</a>
</g>
</g>
<!-- src/main/index.mjs -->
<g id="node12" class="node">
<title>src/main/index.mjs</title>
<g id="a_node12"><a xlink:href="src/main/index.mjs" xlink:title="index.mjs">
<path fill="#ffffcc" stroke="black" d="M73.08,-209.88C73.08,-209.88 29.92,-209.88 29.92,-209.88 26.96,-209.88 24,-206.92 24,-203.96 24,-203.96 24,-198.04 24,-198.04 24,-195.08 26.96,-192.12 29.92,-192.12 29.92,-192.12 73.08,-192.12 73.08,-192.12 76.04,-192.12 79,-195.08 79,-198.04 79,-198.04 79,-203.96 79,-203.96 79,-206.92 76.04,-209.88 73.08,-209.88"/>
<text text-anchor="start" x="32" y="-197.32" font-family="Helvetica,sans-Serif" font-size="9.00">index.mjs</text>
</a>
</g>
</g>
<!-- src/main/index.mjs&#45;&gt;src/main/cruise.mjs -->
<g id="edge11" class="edge">
<title>src/main/index.mjs&#45;&gt;src/main/cruise.mjs</title>
<path fill="none" stroke="#000000" stroke-width="2" stroke-opacity="0.200000" d="M79.42,-193.38C80.69,-193.02 81.98,-192.65 83.28,-192.29"/>
<polygon fill="#000000" fill-opacity="0.200000" stroke="#000000" stroke-width="2" stroke-opacity="0.200000" points="83.71,-194.35 88.91,-190.69 82.57,-190.31 83.71,-194.35"/>
</g>
<!-- src/main/index.mjs&#45;&gt;src/main/format.mjs -->
<g id="edge12" class="edge">
<title>src/main/index.mjs&#45;&gt;src/main/format.mjs</title>
<path fill="none" stroke="#000000" stroke-width="2" stroke-opacity="0.200000" d="M68.74,-210.31C88.96,-221.6 124.8,-240.66 157.25,-253 161.96,-254.79 166.98,-256.45 171.98,-257.96"/>
<polygon fill="#000000" fill-opacity="0.200000" stroke="#000000" stroke-width="2" stroke-opacity="0.200000" points="171.06,-259.88 177.4,-259.51 172.21,-255.84 171.06,-259.88"/>
</g>
</g>
</svg>
