<?xml version="1.0" encoding="UTF-8" standalone="no"?>
<!DOCTYPE svg PUBLIC "-//W3C//DTD SVG 1.1//EN"
 "http://www.w3.org/Graphics/SVG/1.1/DTD/svg11.dtd">
<!-- Generated by graphviz version 2.44.0 (20200408.0750)
 -->
<!-- Title: dependency&#45;cruiser output Pages: 1 -->
<svg width="404pt" height="318pt"
 viewBox="0.00 0.00 404.00 318.00" xmlns="http://www.w3.org/2000/svg" xmlns:xlink="http://www.w3.org/1999/xlink">
<g id="graph0" class="graph" transform="scale(1 1) rotate(0) translate(4 314)">
<title>dependency&#45;cruiser output</title>
<polygon fill="white" stroke="transparent" points="-4,4 -4,-314 400,-314 400,4 -4,4"/>
<g id="clust1" class="cluster">
<title>cluster_src</title>
<path fill="#ffffff" stroke="black" stroke-width="2" d="M20,-8C20,-8 376,-8 376,-8 382,-8 388,-14 388,-20 388,-20 388,-290 388,-290 388,-296 382,-302 376,-302 376,-302 20,-302 20,-302 14,-302 8,-296 8,-290 8,-290 8,-20 8,-20 8,-14 14,-8 20,-8"/>
<text text-anchor="middle" x="198" y="-290.8" font-family="Helvetica,sans-Serif" font-weight="bold" font-size="9.00">src</text>
</g>
<g id="clust2" class="cluster">
<title>cluster_src/main</title>
<path fill="#ffffff" stroke="black" stroke-width="2" d="M28,-16C28,-16 368,-16 368,-16 374,-16 380,-22 380,-28 380,-28 380,-264 380,-264 380,-270 374,-276 368,-276 368,-276 28,-276 28,-276 22,-276 16,-270 16,-264 16,-264 16,-28 16,-28 16,-22 22,-16 28,-16"/>
<text text-anchor="middle" x="198" y="-264.8" font-family="Helvetica,sans-Serif" font-weight="bold" font-size="9.00">main</text>
</g>
<g id="clust3" class="cluster">
<title>cluster_src/main/files&#45;and&#45;dirs</title>
<path fill="#ffffff" stroke="black" stroke-width="2" d="M114,-24C114,-24 172,-24 172,-24 178,-24 184,-30 184,-36 184,-36 184,-64 184,-64 184,-70 178,-76 172,-76 172,-76 114,-76 114,-76 108,-76 102,-70 102,-64 102,-64 102,-36 102,-36 102,-30 108,-24 114,-24"/>
<text text-anchor="middle" x="143" y="-64.8" font-family="Helvetica,sans-Serif" font-weight="bold" font-size="9.00">files&#45;and&#45;dirs</text>
</g>
<g id="clust4" class="cluster">
<title>cluster_src/main/options</title>
<path fill="#ffffff" stroke="black" stroke-width="2" d="M221,-68C221,-68 360,-68 360,-68 366,-68 372,-74 372,-80 372,-80 372,-138 372,-138 372,-144 366,-150 360,-150 360,-150 221,-150 221,-150 215,-150 209,-144 209,-138 209,-138 209,-80 209,-80 209,-74 215,-68 221,-68"/>
<text text-anchor="middle" x="290.5" y="-138.8" font-family="Helvetica,sans-Serif" font-weight="bold" font-size="9.00">options</text>
</g>
<g id="clust5" class="cluster">
<title>cluster_src/main/resolve&#45;options</title>
<path fill="#ffffff" stroke="black" stroke-width="2" d="M114,-108C114,-108 173,-108 173,-108 179,-108 185,-114 185,-120 185,-120 185,-148 185,-148 185,-154 179,-160 173,-160 173,-160 114,-160 114,-160 108,-160 102,-154 102,-148 102,-148 102,-120 102,-120 102,-114 108,-108 114,-108"/>
<text text-anchor="middle" x="143.5" y="-148.8" font-family="Helvetica,sans-Serif" font-weight="bold" font-size="9.00">resolve&#45;options</text>
</g>
<g id="clust6" class="cluster">
<title>cluster_src/main/rule&#45;set</title>
<path fill="#ffffff" stroke="black" stroke-width="2" d="M114,-168C114,-168 172,-168 172,-168 178,-168 184,-174 184,-180 184,-180 184,-238 184,-238 184,-244 178,-250 172,-250 172,-250 114,-250 114,-250 108,-250 102,-244 102,-238 102,-238 102,-180 102,-180 102,-174 108,-168 114,-168"/>
<text text-anchor="middle" x="143" y="-238.8" font-family="Helvetica,sans-Serif" font-weight="bold" font-size="9.00">rule&#45;set</text>
</g>
<!-- src/main/files&#45;and&#45;dirs/normalize.js -->
<g id="node1" class="node">
<title>src/main/files&#45;and&#45;dirs/normalize.js</title>
<g id="a_node1"><a xlink:href="src/main/files-and-dirs/normalize.js" xlink:title="normalize.js">
<path fill="#ffffcc" stroke="black" d="M170,-50C170,-50 116,-50 116,-50 113,-50 110,-47 110,-44 110,-44 110,-38 110,-38 110,-35 113,-32 116,-32 116,-32 170,-32 170,-32 173,-32 176,-35 176,-38 176,-38 176,-44 176,-44 176,-47 173,-50 170,-50"/>
<text text-anchor="middle" x="143" y="-38.8" font-family="Helvetica,sans-Serif" font-size="9.00">normalize.js</text>
</a>
</g>
</g>
<!-- src/main/index.js -->
<g id="node2" class="node">
<title>src/main/index.js</title>
<g id="a_node2"><a xlink:href="src/main/index.js" xlink:title="index.js">
<path fill="#ffffcc" stroke="black" d="M72,-121C72,-121 30,-121 30,-121 27,-121 24,-118 24,-115 24,-115 24,-109 24,-109 24,-106 27,-103 30,-103 30,-103 72,-103 72,-103 75,-103 78,-106 78,-109 78,-109 78,-115 78,-115 78,-118 75,-121 72,-121"/>
<text text-anchor="middle" x="51" y="-109.8" font-family="Helvetica,sans-Serif" font-size="9.00">index.js</text>
</a>
</g>
</g>
<!-- src/main/index.js&#45;&gt;src/main/files&#45;and&#45;dirs/normalize.js -->
<g id="edge1" class="edge">
<title>src/main/index.js&#45;&gt;src/main/files&#45;and&#45;dirs/normalize.js</title>
<path fill="none" stroke="#000000" stroke-width="2" stroke-opacity="0.200000" d="M57.61,-102.78C65.82,-90.03 82.29,-67.1 102,-54 102.76,-53.49 103.54,-53.01 104.34,-52.54"/>
<polygon fill="#000000" fill-opacity="0.200000" stroke="#000000" stroke-width="2" stroke-opacity="0.200000" points="105.46,-54.32 109.82,-49.69 103.53,-50.59 105.46,-54.32"/>
</g>
<!-- src/main/options/normalize.js -->
<g id="node3" class="node">
<title>src/main/options/normalize.js</title>
<g id="a_node3"><a xlink:href="src/main/options/normalize.js" xlink:title="normalize.js">
<path fill="#ffffcc" stroke="black" d="M277,-94C277,-94 223,-94 223,-94 220,-94 217,-91 217,-88 217,-88 217,-82 217,-82 217,-79 220,-76 223,-76 223,-76 277,-76 277,-76 280,-76 283,-79 283,-82 283,-82 283,-88 283,-88 283,-91 280,-94 277,-94"/>
<text text-anchor="middle" x="250" y="-82.8" font-family="Helvetica,sans-Serif" font-size="9.00">normalize.js</text>
</a>
</g>
</g>
<!-- src/main/index.js&#45;&gt;src/main/options/normalize.js -->
<g id="edge2" class="edge">
<title>src/main/index.js&#45;&gt;src/main/options/normalize.js</title>
<path fill="none" stroke="#000000" stroke-width="2" stroke-opacity="0.200000" d="M78.04,-104.39C85.7,-102.38 94.14,-100.39 102,-99 138.65,-92.53 181.01,-88.9 210.81,-86.96"/>
<polygon fill="#000000" fill-opacity="0.200000" stroke="#000000" stroke-width="2" stroke-opacity="0.200000" points="211.12,-89.05 216.97,-86.58 210.85,-84.86 211.12,-89.05"/>
</g>
<!-- src/main/options/validate.js -->
<g id="node4" class="node">
<title>src/main/options/validate.js</title>
<g id="a_node4"><a xlink:href="src/main/options/validate.js" xlink:title="validate.js">
<path fill="#ffffcc" stroke="black" d="M273,-124C273,-124 227,-124 227,-124 224,-124 221,-121 221,-118 221,-118 221,-112 221,-112 221,-109 224,-106 227,-106 227,-106 273,-106 273,-106 276,-106 279,-109 279,-112 279,-112 279,-118 279,-118 279,-121 276,-124 273,-124"/>
<text text-anchor="middle" x="250" y="-112.8" font-family="Helvetica,sans-Serif" font-size="9.00">validate.js</text>
</a>
</g>
</g>
<!-- src/main/index.js&#45;&gt;src/main/options/validate.js -->
<g id="edge3" class="edge">
<title>src/main/index.js&#45;&gt;src/main/options/validate.js</title>
<path fill="none" stroke="#000000" stroke-width="2" stroke-opacity="0.200000" d="M78.14,-107.64C85.8,-106.55 94.22,-105.54 102,-105 138.8,-102.44 148.22,-102.14 185,-105 194.66,-105.75 205.06,-107.13 214.62,-108.62"/>
<polygon fill="#000000" fill-opacity="0.200000" stroke="#000000" stroke-width="2" stroke-opacity="0.200000" points="214.5,-110.73 220.76,-109.62 215.17,-106.59 214.5,-110.73"/>
</g>
<!-- src/main/resolve&#45;options/normalize.js -->
<g id="node5" class="node">
<title>src/main/resolve&#45;options/normalize.js</title>
<g id="a_node5"><a xlink:href="src/main/resolve-options/normalize.js" xlink:title="normalize.js">
<path fill="#ffffcc" stroke="black" d="M170,-134C170,-134 116,-134 116,-134 113,-134 110,-131 110,-128 110,-128 110,-122 110,-122 110,-119 113,-116 116,-116 116,-116 170,-116 170,-116 173,-116 176,-119 176,-122 176,-122 176,-128 176,-128 176,-131 173,-134 170,-134"/>
<text text-anchor="middle" x="143" y="-122.8" font-family="Helvetica,sans-Serif" font-size="9.00">normalize.js</text>
</a>
</g>
</g>
<!-- src/main/index.js&#45;&gt;src/main/resolve&#45;options/normalize.js -->
<g id="edge4" class="edge">
<title>src/main/index.js&#45;&gt;src/main/resolve&#45;options/normalize.js</title>
<path fill="none" stroke="#000000" stroke-width="2" stroke-opacity="0.200000" d="M78.03,-115.76C86.13,-116.93 95.23,-118.24 103.97,-119.51"/>
<polygon fill="#000000" fill-opacity="0.200000" stroke="#000000" stroke-width="2" stroke-opacity="0.200000" points="103.71,-121.59 109.95,-120.37 104.31,-117.43 103.71,-121.59"/>
</g>
<!-- src/main/rule&#45;set/normalize.js -->
<g id="node6" class="node">
<title>src/main/rule&#45;set/normalize.js</title>
<g id="a_node6"><a xlink:href="src/main/rule-set/normalize.js" xlink:title="normalize.js">
<path fill="#ffffcc" stroke="black" d="M170,-224C170,-224 116,-224 116,-224 113,-224 110,-221 110,-218 110,-218 110,-212 110,-212 110,-209 113,-206 116,-206 116,-206 170,-206 170,-206 173,-206 176,-209 176,-212 176,-212 176,-218 176,-218 176,-221 173,-224 170,-224"/>
<text text-anchor="middle" x="143" y="-212.8" font-family="Helvetica,sans-Serif" font-size="9.00">normalize.js</text>
</a>
</g>
</g>
<!-- src/main/index.js&#45;&gt;src/main/rule&#45;set/normalize.js -->
<g id="edge5" class="edge">
<title>src/main/index.js&#45;&gt;src/main/rule&#45;set/normalize.js</title>
<path fill="none" stroke="#000000" stroke-width="2" stroke-opacity="0.200000" d="M54.81,-121.09C60.73,-138.75 76.07,-177.87 102,-200 103.18,-201.01 104.44,-201.96 105.76,-202.84"/>
<polygon fill="#000000" fill-opacity="0.200000" stroke="#000000" stroke-width="2" stroke-opacity="0.200000" points="104.82,-204.73 111.05,-205.96 106.95,-201.11 104.82,-204.73"/>
</g>
<!-- src/main/rule&#45;set/validate.js -->
<g id="node7" class="node">
<title>src/main/rule&#45;set/validate.js</title>
<g id="a_node7"><a xlink:href="src/main/rule-set/validate.js" xlink:title="validate.js">
<path fill="#ffffcc" stroke="black" d="M166,-194C166,-194 120,-194 120,-194 117,-194 114,-191 114,-188 114,-188 114,-182 114,-182 114,-179 117,-176 120,-176 120,-176 166,-176 166,-176 169,-176 172,-179 172,-182 172,-182 172,-188 172,-188 172,-191 169,-194 166,-194"/>
<text text-anchor="middle" x="143" y="-182.8" font-family="Helvetica,sans-Serif" font-size="9.00">validate.js</text>
</a>
</g>
</g>
<!-- src/main/index.js&#45;&gt;src/main/rule&#45;set/validate.js -->
<g id="edge6" class="edge">
<title>src/main/index.js&#45;&gt;src/main/rule&#45;set/validate.js</title>
<path fill="none" stroke="#000000" stroke-width="2" stroke-opacity="0.200000" d="M59.45,-121.09C68.67,-131.95 85.21,-150.26 102,-163 106.83,-166.66 112.35,-170.1 117.7,-173.12"/>
<polygon fill="#000000" fill-opacity="0.200000" stroke="#000000" stroke-width="2" stroke-opacity="0.200000" points="116.71,-174.97 122.98,-176 118.72,-171.28 116.71,-174.97"/>
</g>
<!-- src/main/options/defaults.json -->
<g id="node8" class="node">
<title>src/main/options/defaults.json</title>
<g id="a_node8"><a xlink:href="src/main/options/defaults.json" xlink:title="defaults.json">
<path fill="#ffee44" stroke="black" d="M358,-94C358,-94 302,-94 302,-94 299,-94 296,-91 296,-88 296,-88 296,-82 296,-82 296,-79 299,-76 302,-76 302,-76 358,-76 358,-76 361,-76 364,-79 364,-82 364,-82 364,-88 364,-88 364,-91 361,-94 358,-94"/>
<text text-anchor="middle" x="330" y="-82.8" font-family="Helvetica,sans-Serif" font-size="9.00">defaults.json</text>
</a>
</g>
</g>
<!-- src/main/options/normalize.js&#45;&gt;src/main/options/defaults.json -->
<g id="edge7" class="edge">
<title>src/main/options/normalize.js&#45;&gt;src/main/options/defaults.json</title>
<path fill="none" stroke="#000000" stroke-width="2" stroke-opacity="0.200000" d="M283.18,-85C285.27,-85 287.4,-85 289.53,-85"/>
<polygon fill="#000000" fill-opacity="0.200000" stroke="#000000" stroke-width="2" stroke-opacity="0.200000" points="289.89,-87.1 295.89,-85 289.89,-82.9 289.89,-87.1"/>
</g>
<!-- src/main/rule&#45;set/validate.js&#45;&gt;src/main/options/validate.js -->
<g id="edge8" class="edge">
<title>src/main/rule&#45;set/validate.js&#45;&gt;src/main/options/validate.js</title>
<path fill="none" stroke="#000000" stroke-width="2" stroke-opacity="0.200000" d="M162.3,-175.94C169.51,-172.17 177.78,-167.61 185,-163 202.16,-152.05 220.64,-137.91 233.32,-127.82"/>
<polygon fill="#000000" fill-opacity="0.200000" stroke="#000000" stroke-width="2" stroke-opacity="0.200000" points="234.67,-129.42 238.04,-124.03 232.04,-126.14 234.67,-129.42"/>
</g>
</g>
</svg>
