<?xml version="1.0" encoding="UTF-8" standalone="no"?>
<!DOCTYPE svg PUBLIC "-//W3C//DTD SVG 1.1//EN"
 "http://www.w3.org/Graphics/SVG/1.1/DTD/svg11.dtd">
<!-- Generated by graphviz version 2.44.0 (20200408.0750)
 -->
<!-- Title: dependency&#45;cruiser output Pages: 1 -->
<svg width="461pt" height="318pt"
 viewBox="0.00 0.00 461.00 318.00" xmlns="http://www.w3.org/2000/svg" xmlns:xlink="http://www.w3.org/1999/xlink">
<g id="graph0" class="graph" transform="scale(1 1) rotate(0) translate(4 314)">
<title>dependency&#45;cruiser output</title>
<polygon fill="white" stroke="transparent" points="-4,4 -4,-314 457,-314 457,4 -4,4"/>
<g id="clust1" class="cluster">
<title>cluster_src</title>
<path fill="#ffffff" stroke="black" stroke-width="2" d="M20,-8C20,-8 433,-8 433,-8 439,-8 445,-14 445,-20 445,-20 445,-290 445,-290 445,-296 439,-302 433,-302 433,-302 20,-302 20,-302 14,-302 8,-296 8,-290 8,-290 8,-20 8,-20 8,-14 14,-8 20,-8"/>
<text text-anchor="middle" x="226.5" y="-290.8" font-family="Helvetica,sans-Serif" font-weight="bold" font-size="9.00">src</text>
</g>
<g id="clust2" class="cluster">
<title>cluster_src/main</title>
<path fill="#ffffff" stroke="black" stroke-width="2" d="M28,-16C28,-16 425,-16 425,-16 431,-16 437,-22 437,-28 437,-28 437,-264 437,-264 437,-270 431,-276 425,-276 425,-276 28,-276 28,-276 22,-276 16,-270 16,-264 16,-264 16,-28 16,-28 16,-22 22,-16 28,-16"/>
<text text-anchor="middle" x="226.5" y="-264.8" font-family="Helvetica,sans-Serif" font-weight="bold" font-size="9.00">main</text>
</g>
<g id="clust3" class="cluster">
<title>cluster_src/main/files&#45;and&#45;dirs</title>
<path fill="#ffffff" stroke="black" stroke-width="2" d="M114,-24C114,-24 172,-24 172,-24 178,-24 184,-30 184,-36 184,-36 184,-64 184,-64 184,-70 178,-76 172,-76 172,-76 114,-76 114,-76 108,-76 102,-70 102,-64 102,-64 102,-36 102,-36 102,-30 108,-24 114,-24"/>
<text text-anchor="middle" x="143" y="-64.8" font-family="Helvetica,sans-Serif" font-weight="bold" font-size="9.00">files&#45;and&#45;dirs</text>
</g>
<g id="clust4" class="cluster">
<title>cluster_src/main/options</title>
<path fill="#ffffff" stroke="black" stroke-width="2" d="M221,-73C221,-73 390,-73 390,-73 396,-73 402,-79 402,-85 402,-85 402,-143 402,-143 402,-149 396,-155 390,-155 390,-155 221,-155 221,-155 215,-155 209,-149 209,-143 209,-143 209,-85 209,-85 209,-79 215,-73 221,-73"/>
<text text-anchor="middle" x="305.5" y="-143.8" font-family="Helvetica,sans-Serif" font-weight="bold" font-size="9.00">options</text>
</g>
<g id="clust5" class="cluster">
<title>cluster_src/main/resolve&#45;options</title>
<path fill="#ffffff" stroke="black" stroke-width="2" d="M114,-108C114,-108 173,-108 173,-108 179,-108 185,-114 185,-120 185,-120 185,-148 185,-148 185,-154 179,-160 173,-160 173,-160 114,-160 114,-160 108,-160 102,-154 102,-148 102,-148 102,-120 102,-120 102,-114 108,-108 114,-108"/>
<text text-anchor="middle" x="143.5" y="-148.8" font-family="Helvetica,sans-Serif" font-weight="bold" font-size="9.00">resolve&#45;options</text>
</g>
<g id="clust6" class="cluster">
<title>cluster_src/main/rule&#45;set</title>
<path fill="#ffffff" stroke="black" stroke-width="2" d="M114,-168C114,-168 172,-168 172,-168 178,-168 184,-174 184,-180 184,-180 184,-238 184,-238 184,-244 178,-250 172,-250 172,-250 114,-250 114,-250 108,-250 102,-244 102,-238 102,-238 102,-180 102,-180 102,-174 108,-168 114,-168"/>
<text text-anchor="middle" x="143" y="-238.8" font-family="Helvetica,sans-Serif" font-weight="bold" font-size="9.00">rule&#45;set</text>
</g>
<g id="clust7" class="cluster">
<title>cluster_src/main/utl</title>
<path fill="#ffffff" stroke="black" stroke-width="2" d="M303,-183C303,-183 417,-183 417,-183 423,-183 429,-189 429,-195 429,-195 429,-223 429,-223 429,-229 423,-235 417,-235 417,-235 303,-235 303,-235 297,-235 291,-229 291,-223 291,-223 291,-195 291,-195 291,-189 297,-183 303,-183"/>
<text text-anchor="middle" x="360" y="-223.8" font-family="Helvetica,sans-Serif" font-weight="bold" font-size="9.00">utl</text>
</g>
<!-- src/main/files&#45;and&#45;dirs/normalize.js -->
<g id="node1" class="node">
<title>src/main/files&#45;and&#45;dirs/normalize.js</title>
<g id="a_node1"><a xlink:href="src/main/files-and-dirs/normalize.js" xlink:title="normalize.js">
<path fill="#ffffcc" stroke="black" d="M170,-50C170,-50 116,-50 116,-50 113,-50 110,-47 110,-44 110,-44 110,-38 110,-38 110,-35 113,-32 116,-32 116,-32 170,-32 170,-32 173,-32 176,-35 176,-38 176,-38 176,-44 176,-44 176,-47 173,-50 170,-50"/>
<text text-anchor="middle" x="143" y="-38.8" font-family="Helvetica,sans-Serif" font-size="9.00">normalize.js</text>
</a>
</g>
</g>
<!-- src/main/index.js -->
<g id="node2" class="node">
<title>src/main/index.js</title>
<g id="a_node2"><a xlink:href="src/main/index.js" xlink:title="index.js">
<path fill="#ffffcc" stroke="black" d="M72,-121C72,-121 30,-121 30,-121 27,-121 24,-118 24,-115 24,-115 24,-109 24,-109 24,-106 27,-103 30,-103 30,-103 72,-103 72,-103 75,-103 78,-106 78,-109 78,-109 78,-115 78,-115 78,-118 75,-121 72,-121"/>
<text text-anchor="middle" x="51" y="-109.8" font-family="Helvetica,sans-Serif" font-size="9.00">index.js</text>
</a>
</g>
</g>
<!-- src/main/index.js&#45;&gt;src/main/files&#45;and&#45;dirs/normalize.js -->
<g id="edge1" class="edge">
<title>src/main/index.js&#45;&gt;src/main/files&#45;and&#45;dirs/normalize.js</title>
<path fill="none" stroke="#000000" stroke-width="2" stroke-opacity="0.200000" d="M57.61,-102.78C65.82,-90.03 82.29,-67.1 102,-54 102.76,-53.49 103.54,-53.01 104.34,-52.54"/>
<polygon fill="#000000" fill-opacity="0.200000" stroke="#000000" stroke-width="2" stroke-opacity="0.200000" points="105.46,-54.32 109.82,-49.69 103.53,-50.59 105.46,-54.32"/>
</g>
<!-- src/main/options/normalize.js -->
<g id="node3" class="node">
<title>src/main/options/normalize.js</title>
<g id="a_node3"><a xlink:href="src/main/options/normalize.js" xlink:title="normalize.js">
<path fill="#ffffcc" stroke="black" d="M277,-99C277,-99 223,-99 223,-99 220,-99 217,-96 217,-93 217,-93 217,-87 217,-87 217,-84 220,-81 223,-81 223,-81 277,-81 277,-81 280,-81 283,-84 283,-87 283,-87 283,-93 283,-93 283,-96 280,-99 277,-99"/>
<text text-anchor="middle" x="250" y="-87.8" font-family="Helvetica,sans-Serif" font-size="9.00">normalize.js</text>
</a>
</g>
</g>
<!-- src/main/index.js&#45;&gt;src/main/options/normalize.js -->
<g id="edge2" class="edge">
<title>src/main/index.js&#45;&gt;src/main/options/normalize.js</title>
<path fill="none" stroke="#000000" stroke-width="2" stroke-opacity="0.200000" d="M78.01,-104.22C85.67,-102.21 94.12,-100.25 102,-99 138.66,-93.17 181.01,-91.06 210.81,-90.32"/>
<polygon fill="#000000" fill-opacity="0.200000" stroke="#000000" stroke-width="2" stroke-opacity="0.200000" points="211.02,-92.42 216.98,-90.18 210.93,-88.22 211.02,-92.42"/>
</g>
<!-- src/main/options/validate.js -->
<g id="node4" class="node">
<title>src/main/options/validate.js</title>
<g id="a_node4"><a xlink:href="src/main/options/validate.js" xlink:title="validate.js">
<path fill="#ffffcc" stroke="black" d="M273,-129C273,-129 227,-129 227,-129 224,-129 221,-126 221,-123 221,-123 221,-117 221,-117 221,-114 224,-111 227,-111 227,-111 273,-111 273,-111 276,-111 279,-114 279,-117 279,-117 279,-123 279,-123 279,-126 276,-129 273,-129"/>
<text text-anchor="middle" x="250" y="-117.8" font-family="Helvetica,sans-Serif" font-size="9.00">validate.js</text>
</a>
</g>
</g>
<!-- src/main/index.js&#45;&gt;src/main/options/validate.js -->
<g id="edge3" class="edge">
<title>src/main/index.js&#45;&gt;src/main/options/validate.js</title>
<path fill="none" stroke="#000000" stroke-width="2" stroke-opacity="0.200000" d="M78.14,-107.64C85.8,-106.55 94.22,-105.54 102,-105 138.8,-102.44 148.36,-100.76 185,-105 194.86,-106.14 205.4,-108.24 215.03,-110.51"/>
<polygon fill="#000000" fill-opacity="0.200000" stroke="#000000" stroke-width="2" stroke-opacity="0.200000" points="214.57,-112.56 220.89,-111.94 215.56,-108.47 214.57,-112.56"/>
</g>
<!-- src/main/resolve&#45;options/normalize.js -->
<g id="node5" class="node">
<title>src/main/resolve&#45;options/normalize.js</title>
<g id="a_node5"><a xlink:href="src/main/resolve-options/normalize.js" xlink:title="normalize.js">
<path fill="#ffffcc" stroke="black" d="M170,-134C170,-134 116,-134 116,-134 113,-134 110,-131 110,-128 110,-128 110,-122 110,-122 110,-119 113,-116 116,-116 116,-116 170,-116 170,-116 173,-116 176,-119 176,-122 176,-122 176,-128 176,-128 176,-131 173,-134 170,-134"/>
<text text-anchor="middle" x="143" y="-122.8" font-family="Helvetica,sans-Serif" font-size="9.00">normalize.js</text>
</a>
</g>
</g>
<!-- src/main/index.js&#45;&gt;src/main/resolve&#45;options/normalize.js -->
<g id="edge4" class="edge">
<title>src/main/index.js&#45;&gt;src/main/resolve&#45;options/normalize.js</title>
<path fill="none" stroke="#000000" stroke-width="2" stroke-opacity="0.200000" d="M78.03,-115.76C86.13,-116.93 95.23,-118.24 103.97,-119.51"/>
<polygon fill="#000000" fill-opacity="0.200000" stroke="#000000" stroke-width="2" stroke-opacity="0.200000" points="103.71,-121.59 109.95,-120.37 104.31,-117.43 103.71,-121.59"/>
</g>
<!-- src/main/rule&#45;set/normalize.js -->
<g id="node6" class="node">
<title>src/main/rule&#45;set/normalize.js</title>
<g id="a_node6"><a xlink:href="src/main/rule-set/normalize.js" xlink:title="normalize.js">
<path fill="#ffffcc" stroke="black" d="M170,-224C170,-224 116,-224 116,-224 113,-224 110,-221 110,-218 110,-218 110,-212 110,-212 110,-209 113,-206 116,-206 116,-206 170,-206 170,-206 173,-206 176,-209 176,-212 176,-212 176,-218 176,-218 176,-221 173,-224 170,-224"/>
<text text-anchor="middle" x="143" y="-212.8" font-family="Helvetica,sans-Serif" font-size="9.00">normalize.js</text>
</a>
</g>
</g>
<!-- src/main/index.js&#45;&gt;src/main/rule&#45;set/normalize.js -->
<g id="edge5" class="edge">
<title>src/main/index.js&#45;&gt;src/main/rule&#45;set/normalize.js</title>
<path fill="none" stroke="#000000" stroke-width="2" stroke-opacity="0.200000" d="M54.81,-121.09C60.73,-138.75 76.07,-177.87 102,-200 103.18,-201.01 104.44,-201.96 105.76,-202.84"/>
<polygon fill="#000000" fill-opacity="0.200000" stroke="#000000" stroke-width="2" stroke-opacity="0.200000" points="104.82,-204.73 111.05,-205.96 106.95,-201.11 104.82,-204.73"/>
</g>
<!-- src/main/rule&#45;set/validate.js -->
<g id="node7" class="node">
<title>src/main/rule&#45;set/validate.js</title>
<g id="a_node7"><a xlink:href="src/main/rule-set/validate.js" xlink:title="validate.js">
<path fill="#ffffcc" stroke="black" d="M166,-194C166,-194 120,-194 120,-194 117,-194 114,-191 114,-188 114,-188 114,-182 114,-182 114,-179 117,-176 120,-176 120,-176 166,-176 166,-176 169,-176 172,-179 172,-182 172,-182 172,-188 172,-188 172,-191 169,-194 166,-194"/>
<text text-anchor="middle" x="143" y="-182.8" font-family="Helvetica,sans-Serif" font-size="9.00">validate.js</text>
</a>
</g>
</g>
<!-- src/main/index.js&#45;&gt;src/main/rule&#45;set/validate.js -->
<g id="edge6" class="edge">
<title>src/main/index.js&#45;&gt;src/main/rule&#45;set/validate.js</title>
<path fill="none" stroke="#000000" stroke-width="2" stroke-opacity="0.200000" d="M59.45,-121.09C68.67,-131.95 85.21,-150.26 102,-163 106.83,-166.66 112.35,-170.1 117.7,-173.12"/>
<polygon fill="#000000" fill-opacity="0.200000" stroke="#000000" stroke-width="2" stroke-opacity="0.200000" points="116.71,-174.97 122.98,-176 118.72,-171.28 116.71,-174.97"/>
</g>
<!-- src/main/options/defaults.json -->
<g id="node8" class="node">
<title>src/main/options/defaults.json</title>
<g id="a_node8"><a xlink:href="src/main/options/defaults.json" xlink:title="defaults.json">
<path fill="#ffee44" stroke="black" d="M388,-99C388,-99 332,-99 332,-99 329,-99 326,-96 326,-93 326,-93 326,-87 326,-87 326,-84 329,-81 332,-81 332,-81 388,-81 388,-81 391,-81 394,-84 394,-87 394,-87 394,-93 394,-93 394,-96 391,-99 388,-99"/>
<text text-anchor="middle" x="360" y="-87.8" font-family="Helvetica,sans-Serif" font-size="9.00">defaults.json</text>
</a>
</g>
</g>
<!-- src/main/options/normalize.js&#45;&gt;src/main/options/defaults.json -->
<g id="edge8" class="edge">
<title>src/main/options/normalize.js&#45;&gt;src/main/options/defaults.json</title>
<path fill="none" stroke="#000000" stroke-width="2" stroke-opacity="0.200000" d="M283.11,-90C294.55,-90 307.56,-90 319.54,-90"/>
<polygon fill="#000000" fill-opacity="0.200000" stroke="#000000" stroke-width="2" stroke-opacity="0.200000" points="319.7,-92.1 325.7,-90 319.7,-87.9 319.7,-92.1"/>
</g>
<!-- src/main/utl/normalize&#45;re&#45;properties.js -->
<g id="node9" class="node">
<title>src/main/utl/normalize&#45;re&#45;properties.js</title>
<g id="a_node9"><a xlink:href="src/main/utl/normalize-re-properties.js" xlink:title="normalize&#45;re&#45;properties.js">
<path fill="#ffffcc" stroke="black" d="M415,-209C415,-209 305,-209 305,-209 302,-209 299,-206 299,-203 299,-203 299,-197 299,-197 299,-194 302,-191 305,-191 305,-191 415,-191 415,-191 418,-191 421,-194 421,-197 421,-197 421,-203 421,-203 421,-206 418,-209 415,-209"/>
<text text-anchor="middle" x="360" y="-197.8" font-family="Helvetica,sans-Serif" font-size="9.00">normalize&#45;re&#45;properties.js</text>
</a>
</g>
</g>
<!-- src/main/options/normalize.js&#45;&gt;src/main/utl/normalize&#45;re&#45;properties.js -->
<g id="edge7" class="edge">
<title>src/main/options/normalize.js&#45;&gt;src/main/utl/normalize&#45;re&#45;properties.js</title>
<path fill="none" stroke="#000000" stroke-width="2" stroke-opacity="0.200000" d="M276.86,-99.15C279.2,-100.8 281.31,-102.74 283,-105 297.25,-124.09 277.87,-138.12 291,-158 299.9,-171.47 314.76,-181.38 328.32,-188.17"/>
<polygon fill="#000000" fill-opacity="0.200000" stroke="#000000" stroke-width="2" stroke-opacity="0.200000" points="327.71,-190.21 334.03,-190.89 329.52,-186.42 327.71,-190.21"/>
</g>
<!-- src/main/rule&#45;set/normalize.js&#45;&gt;src/main/utl/normalize&#45;re&#45;properties.js -->
<g id="edge9" class="edge">
<title>src/main/rule&#45;set/normalize.js&#45;&gt;src/main/utl/normalize&#45;re&#45;properties.js</title>
<path fill="none" stroke="#000000" stroke-width="2" stroke-opacity="0.200000" d="M176.19,-212.75C206.88,-210.61 254.02,-207.32 292.75,-204.62"/>
<polygon fill="#000000" fill-opacity="0.200000" stroke="#000000" stroke-width="2" stroke-opacity="0.200000" points="293.05,-206.71 298.89,-204.19 292.76,-202.52 293.05,-206.71"/>
</g>
<!-- src/main/rule&#45;set/validate.js&#45;&gt;src/main/options/validate.js -->
<g id="edge10" class="edge">
<title>src/main/rule&#45;set/validate.js&#45;&gt;src/main/options/validate.js</title>
<path fill="none" stroke="#000000" stroke-width="2" stroke-opacity="0.200000" d="M161.77,-175.96C169.06,-172.12 177.53,-167.5 185,-163 200.85,-153.45 218.25,-141.68 230.9,-132.86"/>
<polygon fill="#000000" fill-opacity="0.200000" stroke="#000000" stroke-width="2" stroke-opacity="0.200000" points="232.3,-134.45 236.01,-129.28 229.89,-131.01 232.3,-134.45"/>
</g>
</g>
</svg>
