<?xml version="1.0" encoding="UTF-8" standalone="no"?>
<!DOCTYPE svg PUBLIC "-//W3C//DTD SVG 1.1//EN"
 "http://www.w3.org/Graphics/SVG/1.1/DTD/svg11.dtd">
<!-- Generated by graphviz version 8.0.1 (20230327.1645)
 -->
<!-- Title: dependency&#45;cruiser output Pages: 1 -->
<svg width="460pt" height="358pt"
 viewBox="0.00 0.00 460.00 358.00" xmlns="http://www.w3.org/2000/svg" xmlns:xlink="http://www.w3.org/1999/xlink">
<g id="graph0" class="graph" transform="scale(1 1) rotate(0) translate(4 354)">
<title>dependency&#45;cruiser output</title>
<polygon fill="white" stroke="none" points="-4,4 -4,-354 456,-354 456,4 -4,4"/>
<g id="clust1" class="cluster">
<title>cluster_src</title>
<path fill="#ffffff" stroke="black" stroke-width="2" d="M20,-8C20,-8 432,-8 432,-8 438,-8 444,-14 444,-20 444,-20 444,-330 444,-330 444,-336 438,-342 432,-342 432,-342 20,-342 20,-342 14,-342 8,-336 8,-330 8,-330 8,-20 8,-20 8,-14 14,-8 20,-8"/>
<text text-anchor="middle" x="226" y="-330.8" font-family="Helvetica,sans-Serif" font-weight="bold" font-size="9.00">src</text>
</g>
<g id="clust2" class="cluster">
<title>cluster_src/main</title>
<path fill="#ffffff" stroke="black" stroke-width="2" d="M28,-16C28,-16 424,-16 424,-16 430,-16 436,-22 436,-28 436,-28 436,-304 436,-304 436,-310 430,-316 424,-316 424,-316 28,-316 28,-316 22,-316 16,-310 16,-304 16,-304 16,-28 16,-28 16,-22 22,-16 28,-16"/>
<text text-anchor="middle" x="226" y="-304.8" font-family="Helvetica,sans-Serif" font-weight="bold" font-size="9.00">main</text>
</g>
<g id="clust3" class="cluster">
<title>cluster_src/main/files&#45;and&#45;dirs</title>
<path fill="#ffffff" stroke="black" stroke-width="2" d="M171,-114C171,-114 237,-114 237,-114 243,-114 249,-120 249,-126 249,-126 249,-154 249,-154 249,-160 243,-166 237,-166 237,-166 171,-166 171,-166 165,-166 159,-160 159,-154 159,-154 159,-126 159,-126 159,-120 165,-114 171,-114"/>
<text text-anchor="middle" x="204" y="-154.8" font-family="Helvetica,sans-Serif" font-weight="bold" font-size="9.00">files&#45;and&#45;dirs</text>
</g>
<g id="clust4" class="cluster">
<title>cluster_src/main/options</title>
<path fill="#ffffff" stroke="black" stroke-width="2" d="M269,-150C269,-150 416,-150 416,-150 422,-150 428,-156 428,-162 428,-162 428,-220 428,-220 428,-226 422,-232 416,-232 416,-232 269,-232 269,-232 263,-232 257,-226 257,-220 257,-220 257,-162 257,-162 257,-156 263,-150 269,-150"/>
<text text-anchor="middle" x="342.5" y="-220.8" font-family="Helvetica,sans-Serif" font-weight="bold" font-size="9.00">options</text>
</g>
<g id="clust5" class="cluster">
<title>cluster_src/main/resolve&#45;options</title>
<path fill="#ffffff" stroke="black" stroke-width="2" d="M171,-198C171,-198 237,-198 237,-198 243,-198 249,-204 249,-210 249,-210 249,-238 249,-238 249,-244 243,-250 237,-250 237,-250 171,-250 171,-250 165,-250 159,-244 159,-238 159,-238 159,-210 159,-210 159,-204 165,-198 171,-198"/>
<text text-anchor="middle" x="204" y="-238.8" font-family="Helvetica,sans-Serif" font-weight="bold" font-size="9.00">resolve&#45;options</text>
</g>
<g id="clust6" class="cluster">
<title>cluster_src/main/rule&#45;set</title>
<path fill="#ffffff" stroke="black" stroke-width="2" d="M171,-24C171,-24 237,-24 237,-24 243,-24 249,-30 249,-36 249,-36 249,-94 249,-94 249,-100 243,-106 237,-106 237,-106 171,-106 171,-106 165,-106 159,-100 159,-94 159,-94 159,-36 159,-36 159,-30 165,-24 171,-24"/>
<text text-anchor="middle" x="204" y="-94.8" font-family="Helvetica,sans-Serif" font-weight="bold" font-size="9.00">rule&#45;set</text>
</g>
<!-- src/main/cruise.mjs -->
<g id="node1" class="node">
<title>src/main/cruise.mjs</title>
<g id="a_node1"><a xlink:href="src/main/cruise.mjs" xlink:title="cruise.mjs">
<path fill="#ffffcc" stroke="black" d="M145,-191C145,-191 99,-191 99,-191 96,-191 93,-188 93,-185 93,-185 93,-179 93,-179 93,-176 96,-173 99,-173 99,-173 145,-173 145,-173 148,-173 151,-176 151,-179 151,-179 151,-185 151,-185 151,-188 148,-191 145,-191"/>
<text text-anchor="start" x="101" y="-179.8" font-family="Helvetica,sans-Serif" font-size="9.00">cruise.mjs</text>
</a>
</g>
</g>
<!-- src/main/files&#45;and&#45;dirs/normalize.mjs -->
<g id="node2" class="node">
<title>src/main/files&#45;and&#45;dirs/normalize.mjs</title>
<g id="a_node2"><a xlink:href="src/main/files-and-dirs/normalize.mjs" xlink:title="normalize.mjs">
<path fill="#ffffcc" stroke="black" d="M235,-140C235,-140 173,-140 173,-140 170,-140 167,-137 167,-134 167,-134 167,-128 167,-128 167,-125 170,-122 173,-122 173,-122 235,-122 235,-122 238,-122 241,-125 241,-128 241,-128 241,-134 241,-134 241,-137 238,-140 235,-140"/>
<text text-anchor="start" x="175" y="-128.8" font-family="Helvetica,sans-Serif" font-size="9.00">normalize.mjs</text>
</a>
</g>
</g>
<!-- src/main/cruise.mjs&#45;&gt;src/main/files&#45;and&#45;dirs/normalize.mjs -->
<g id="edge1" class="edge">
<title>src/main/cruise.mjs&#45;&gt;src/main/files&#45;and&#45;dirs/normalize.mjs</title>
<path fill="none" stroke="#000000" stroke-width="2" stroke-dasharray="5,2" stroke-opacity="0.200000" d="M129.65,-172.53C135.32,-165.04 144.14,-154.66 159.34,-144.58"/>
<polygon fill="#000000" fill-opacity="0.200000" stroke="#000000" stroke-width="2" stroke-opacity="0.200000" points="160.78,-145.92 164.78,-140.98 158.57,-142.35 160.78,-145.92"/>
</g>
<!-- src/main/options/normalize.mjs -->
<g id="node3" class="node">
<title>src/main/options/normalize.mjs</title>
<g id="a_node3"><a xlink:href="src/main/options/normalize.mjs" xlink:title="normalize.mjs">
<path fill="#ffffcc" stroke="black" d="M333,-206C333,-206 271,-206 271,-206 268,-206 265,-203 265,-200 265,-200 265,-194 265,-194 265,-191 268,-188 271,-188 271,-188 333,-188 333,-188 336,-188 339,-191 339,-194 339,-194 339,-200 339,-200 339,-203 336,-206 333,-206"/>
<text text-anchor="start" x="273" y="-194.8" font-family="Helvetica,sans-Serif" font-size="9.00">normalize.mjs</text>
</a>
</g>
</g>
<!-- src/main/cruise.mjs&#45;&gt;src/main/options/normalize.mjs -->
<g id="edge2" class="edge">
<title>src/main/cruise.mjs&#45;&gt;src/main/options/normalize.mjs</title>
<path fill="none" stroke="#000000" stroke-width="2" stroke-opacity="0.200000" d="M151.2,-184.38C179.37,-186.75 223.1,-190.44 256.05,-193.21"/>
<polygon fill="#000000" fill-opacity="0.200000" stroke="#000000" stroke-width="2" stroke-opacity="0.200000" points="255.45,-195.52 261.61,-193.93 255.81,-191.34 255.45,-195.52"/>
</g>
<!-- src/main/options/validate.mjs -->
<g id="node4" class="node">
<title>src/main/options/validate.mjs</title>
<g id="a_node4"><a xlink:href="src/main/options/validate.mjs" xlink:title="validate.mjs">
<path fill="#ffffcc" stroke="black" d="M328.5,-176C328.5,-176 275.5,-176 275.5,-176 272.5,-176 269.5,-173 269.5,-170 269.5,-170 269.5,-164 269.5,-164 269.5,-161 272.5,-158 275.5,-158 275.5,-158 328.5,-158 328.5,-158 331.5,-158 334.5,-161 334.5,-164 334.5,-164 334.5,-170 334.5,-170 334.5,-173 331.5,-176 328.5,-176"/>
<text text-anchor="start" x="277.5" y="-164.8" font-family="Helvetica,sans-Serif" font-size="9.00">validate.mjs</text>
</a>
</g>
</g>
<!-- src/main/cruise.mjs&#45;&gt;src/main/options/validate.mjs -->
<g id="edge3" class="edge">
<title>src/main/cruise.mjs&#45;&gt;src/main/options/validate.mjs</title>
<path fill="none" stroke="#000000" stroke-width="2" stroke-opacity="0.200000" d="M151.2,-179.62C180.63,-177.14 227.04,-173.23 260.41,-170.42"/>
<polygon fill="#000000" fill-opacity="0.200000" stroke="#000000" stroke-width="2" stroke-opacity="0.200000" points="260.21,-172.29 266.02,-169.7 259.86,-168.11 260.21,-172.29"/>
</g>
<!-- src/main/report&#45;wrap.mjs -->
<g id="node5" class="node">
<title>src/main/report&#45;wrap.mjs</title>
<g id="a_node5"><a xlink:href="src/main/report-wrap.mjs" xlink:title="report&#45;wrap.mjs">
<path fill="#ffffcc" stroke="black" d="M336,-283C336,-283 268,-283 268,-283 265,-283 262,-280 262,-277 262,-277 262,-271 262,-271 262,-268 265,-265 268,-265 268,-265 336,-265 336,-265 339,-265 342,-268 342,-271 342,-271 342,-277 342,-277 342,-280 339,-283 336,-283"/>
<text text-anchor="start" x="270" y="-271.8" font-family="Helvetica,sans-Serif" font-size="9.00">report&#45;wrap.mjs</text>
</a>
</g>
</g>
<!-- src/main/cruise.mjs&#45;&gt;src/main/report&#45;wrap.mjs -->
<g id="edge4" class="edge">
<title>src/main/cruise.mjs&#45;&gt;src/main/report&#45;wrap.mjs</title>
<path fill="none" stroke="#000000" stroke-width="2" stroke-opacity="0.200000" d="M123.08,-191.22C123.82,-211.68 128.81,-260.78 159,-282 191.22,-304.65 238.42,-295.97 269.42,-286.21"/>
<polygon fill="#000000" fill-opacity="0.200000" stroke="#000000" stroke-width="2" stroke-opacity="0.200000" points="270.68,-287.34 275.71,-283.45 269.35,-283.35 270.68,-287.34"/>
</g>
<!-- src/main/resolve&#45;options/normalize.mjs -->
<g id="node6" class="node">
<title>src/main/resolve&#45;options/normalize.mjs</title>
<g id="a_node6"><a xlink:href="src/main/resolve-options/normalize.mjs" xlink:title="normalize.mjs">
<path fill="#ffffcc" stroke="black" d="M235,-224C235,-224 173,-224 173,-224 170,-224 167,-221 167,-218 167,-218 167,-212 167,-212 167,-209 170,-206 173,-206 173,-206 235,-206 235,-206 238,-206 241,-209 241,-212 241,-212 241,-218 241,-218 241,-221 238,-224 235,-224"/>
<text text-anchor="start" x="175" y="-212.8" font-family="Helvetica,sans-Serif" font-size="9.00">normalize.mjs</text>
</a>
</g>
</g>
<!-- src/main/cruise.mjs&#45;&gt;src/main/resolve&#45;options/normalize.mjs -->
<g id="edge5" class="edge">
<title>src/main/cruise.mjs&#45;&gt;src/main/resolve&#45;options/normalize.mjs</title>
<path fill="none" stroke="#000000" stroke-width="2" stroke-dasharray="5,2" stroke-opacity="0.200000" d="M138.04,-191.33C144.36,-194.99 151.88,-199.01 159,-202 159.48,-202.2 159.97,-202.4 160.46,-202.6"/>
<polygon fill="#000000" fill-opacity="0.200000" stroke="#000000" stroke-width="2" stroke-opacity="0.200000" points="160.28,-204.52 166.63,-204.65 161.74,-200.58 160.28,-204.52"/>
</g>
<!-- src/main/rule&#45;set/normalize.mjs -->
<g id="node7" class="node">
<title>src/main/rule&#45;set/normalize.mjs</title>
<g id="a_node7"><a xlink:href="src/main/rule-set/normalize.mjs" xlink:title="normalize.mjs">
<path fill="#ffffcc" stroke="black" d="M235,-50C235,-50 173,-50 173,-50 170,-50 167,-47 167,-44 167,-44 167,-38 167,-38 167,-35 170,-32 173,-32 173,-32 235,-32 235,-32 238,-32 241,-35 241,-38 241,-38 241,-44 241,-44 241,-47 238,-50 235,-50"/>
<text text-anchor="start" x="175" y="-38.8" font-family="Helvetica,sans-Serif" font-size="9.00">normalize.mjs</text>
</a>
</g>
</g>
<!-- src/main/cruise.mjs&#45;&gt;src/main/rule&#45;set/normalize.mjs -->
<g id="edge6" class="edge">
<title>src/main/cruise.mjs&#45;&gt;src/main/rule&#45;set/normalize.mjs</title>
<path fill="none" stroke="#000000" stroke-width="2" stroke-dasharray="5,2" stroke-opacity="0.200000" d="M122.89,-172.68C123.15,-149.67 127.02,-89.63 159,-56 159.28,-55.71 159.56,-55.42 159.85,-55.14"/>
<polygon fill="#000000" fill-opacity="0.200000" stroke="#000000" stroke-width="2" stroke-opacity="0.200000" points="161.11,-56.31 164.64,-51.02 158.58,-52.96 161.11,-56.31"/>
</g>
<!-- src/main/rule&#45;set/validate.mjs -->
<g id="node8" class="node">
<title>src/main/rule&#45;set/validate.mjs</title>
<g id="a_node8"><a xlink:href="src/main/rule-set/validate.mjs" xlink:title="validate.mjs">
<path fill="#ffffcc" stroke="black" d="M230.5,-80C230.5,-80 177.5,-80 177.5,-80 174.5,-80 171.5,-77 171.5,-74 171.5,-74 171.5,-68 171.5,-68 171.5,-65 174.5,-62 177.5,-62 177.5,-62 230.5,-62 230.5,-62 233.5,-62 236.5,-65 236.5,-68 236.5,-68 236.5,-74 236.5,-74 236.5,-77 233.5,-80 230.5,-80"/>
<text text-anchor="start" x="179.5" y="-68.8" font-family="Helvetica,sans-Serif" font-size="9.00">validate.mjs</text>
</a>
</g>
</g>
<!-- src/main/cruise.mjs&#45;&gt;src/main/rule&#45;set/validate.mjs -->
<g id="edge7" class="edge">
<title>src/main/cruise.mjs&#45;&gt;src/main/rule&#45;set/validate.mjs</title>
<path fill="none" stroke="#000000" stroke-width="2" stroke-dasharray="5,2" stroke-opacity="0.200000" d="M126.46,-172.65C131.99,-158.45 143.76,-131.01 159,-111 166.04,-101.76 175.39,-92.92 183.66,-85.91"/>
<polygon fill="#000000" fill-opacity="0.200000" stroke="#000000" stroke-width="2" stroke-opacity="0.200000" points="184.97,-86.91 188.28,-81.48 182.31,-83.66 184.97,-86.91"/>
</g>
<!-- src/main/helpers.mjs -->
<g id="node10" class="node">
<title>src/main/helpers.mjs</title>
<g id="a_node10"><a xlink:href="src/main/helpers.mjs" xlink:title="helpers.mjs">
<path fill="#ffffcc" stroke="black" d="M413.5,-80C413.5,-80 361.5,-80 361.5,-80 358.5,-80 355.5,-77 355.5,-74 355.5,-74 355.5,-68 355.5,-68 355.5,-65 358.5,-62 361.5,-62 361.5,-62 413.5,-62 413.5,-62 416.5,-62 419.5,-65 419.5,-68 419.5,-68 419.5,-74 419.5,-74 419.5,-77 416.5,-80 413.5,-80"/>
<text text-anchor="start" x="363.5" y="-68.8" font-family="Helvetica,sans-Serif" font-size="9.00">helpers.mjs</text>
</a>
</g>
</g>
<!-- src/main/options/normalize.mjs&#45;&gt;src/main/helpers.mjs -->
<g id="edge13" class="edge">
<title>src/main/options/normalize.mjs&#45;&gt;src/main/helpers.mjs</title>
<path fill="none" stroke="#000000" stroke-width="2" stroke-opacity="0.200000" d="M334.7,-187.62C337.37,-186.03 339.86,-184.17 342,-182 353.67,-170.2 348.93,-162.45 355,-147 362.94,-126.77 372.57,-103.75 379.08,-88.39"/>
<polygon fill="#000000" fill-opacity="0.200000" stroke="#000000" stroke-width="2" stroke-opacity="0.200000" points="381.09,-88.66 381.51,-82.31 377.23,-87.02 381.09,-88.66"/>
</g>
<!-- src/main/options/defaults.mjs -->
<g id="node13" class="node">
<title>src/main/options/defaults.mjs</title>
<g id="a_node13"><a xlink:href="src/main/options/defaults.mjs" xlink:title="defaults.mjs">
<path fill="#ffffcc" stroke="black" d="M414,-206C414,-206 361,-206 361,-206 358,-206 355,-203 355,-200 355,-200 355,-194 355,-194 355,-191 358,-188 361,-188 361,-188 414,-188 414,-188 417,-188 420,-191 420,-194 420,-194 420,-200 420,-200 420,-203 417,-206 414,-206"/>
<text text-anchor="start" x="363" y="-194.8" font-family="Helvetica,sans-Serif" font-size="9.00">defaults.mjs</text>
</a>
</g>
</g>
<!-- src/main/options/normalize.mjs&#45;&gt;src/main/options/defaults.mjs -->
<g id="edge14" class="edge">
<title>src/main/options/normalize.mjs&#45;&gt;src/main/options/defaults.mjs</title>
<path fill="none" stroke="#000000" stroke-width="2" stroke-opacity="0.200000" d="M339.38,-197C341.61,-197 343.86,-197 346.11,-197"/>
<polygon fill="#000000" fill-opacity="0.200000" stroke="#000000" stroke-width="2" stroke-opacity="0.200000" points="345.69,-199.1 351.69,-197 345.69,-194.9 345.69,-199.1"/>
</g>
<!-- src/main/rule&#45;set/normalize.mjs&#45;&gt;src/main/helpers.mjs -->
<g id="edge15" class="edge">
<title>src/main/rule&#45;set/normalize.mjs&#45;&gt;src/main/helpers.mjs</title>
<path fill="none" stroke="#000000" stroke-width="2" stroke-opacity="0.200000" d="M241.29,-47C271.74,-52.03 315.17,-59.21 346.59,-64.4"/>
<polygon fill="#000000" fill-opacity="0.200000" stroke="#000000" stroke-width="2" stroke-opacity="0.200000" points="346.85,-66.91 353.11,-65.81 347.54,-62.76 346.85,-66.91"/>
</g>
<!-- src/main/rule&#45;set/validate.mjs&#45;&gt;src/main/options/validate.mjs -->
<g id="edge17" class="edge">
<title>src/main/rule&#45;set/validate.mjs&#45;&gt;src/main/options/validate.mjs</title>
<path fill="none" stroke="#000000" stroke-width="2" stroke-opacity="0.200000" d="M219.58,-80.42C229.46,-87.6 241.96,-98.38 249,-111 258.46,-127.98 243.98,-139.56 257,-154 258.34,-155.49 259.85,-156.81 261.47,-157.99"/>
<polygon fill="#000000" fill-opacity="0.200000" stroke="#000000" stroke-width="2" stroke-opacity="0.200000" points="260.92,-160.18 267.19,-161.24 262.95,-156.5 260.92,-160.18"/>
</g>
<!-- src/main/rule&#45;set/validate.mjs&#45;&gt;src/main/helpers.mjs -->
<g id="edge16" class="edge">
<title>src/main/rule&#45;set/validate.mjs&#45;&gt;src/main/helpers.mjs</title>
<path fill="none" stroke="#000000" stroke-width="2" stroke-opacity="0.200000" d="M236.61,-71C267.07,-71 313.25,-71 346.3,-71"/>
<polygon fill="#000000" fill-opacity="0.200000" stroke="#000000" stroke-width="2" stroke-opacity="0.200000" points="346.25,-73.1 352.25,-71 346.25,-68.9 346.25,-73.1"/>
</g>
<!-- src/main/format.mjs -->
<g id="node9" class="node">
<title>src/main/format.mjs</title>
<g id="a_node9"><a xlink:href="src/main/format.mjs" xlink:title="format.mjs">
<path fill="#ffffcc" stroke="black" d="M227.5,-276C227.5,-276 180.5,-276 180.5,-276 177.5,-276 174.5,-273 174.5,-270 174.5,-270 174.5,-264 174.5,-264 174.5,-261 177.5,-258 180.5,-258 180.5,-258 227.5,-258 227.5,-258 230.5,-258 233.5,-261 233.5,-264 233.5,-264 233.5,-270 233.5,-270 233.5,-273 230.5,-276 227.5,-276"/>
<text text-anchor="start" x="182.5" y="-264.8" font-family="Helvetica,sans-Serif" font-size="9.00">format.mjs</text>
</a>
</g>
</g>
<!-- src/main/format.mjs&#45;&gt;src/main/options/normalize.mjs -->
<g id="edge8" class="edge">
<title>src/main/format.mjs&#45;&gt;src/main/options/normalize.mjs</title>
<path fill="none" stroke="#000000" stroke-width="2" stroke-opacity="0.200000" d="M233.69,-262.74C239.45,-260.66 244.97,-257.57 249,-253 261.87,-238.43 243.98,-224.44 257,-210 257.28,-209.69 257.57,-209.39 257.86,-209.09"/>
<polygon fill="#000000" fill-opacity="0.200000" stroke="#000000" stroke-width="2" stroke-opacity="0.200000" points="259.31,-210.13 262.86,-204.86 256.8,-206.77 259.31,-210.13"/>
</g>
<!-- src/main/format.mjs&#45;&gt;src/main/options/validate.mjs -->
<g id="edge9" class="edge">
<title>src/main/format.mjs&#45;&gt;src/main/options/validate.mjs</title>
<path fill="none" stroke="#000000" stroke-width="2" stroke-opacity="0.200000" d="M233.93,-262.95C239.69,-260.86 245.13,-257.71 249,-253 269.15,-228.46 237.1,-206.75 257,-182 258.42,-180.24 260.05,-178.68 261.83,-177.31"/>
<polygon fill="#000000" fill-opacity="0.200000" stroke="#000000" stroke-width="2" stroke-opacity="0.200000" points="263.25,-178.73 267.34,-173.86 261.1,-175.12 263.25,-178.73"/>
</g>
<!-- src/main/format.mjs&#45;&gt;src/main/report&#45;wrap.mjs -->
<g id="edge10" class="edge">
<title>src/main/format.mjs&#45;&gt;src/main/report&#45;wrap.mjs</title>
<path fill="none" stroke="#000000" stroke-width="2" stroke-opacity="0.200000" d="M233.8,-269.1C239.8,-269.54 246.28,-270.01 252.76,-270.48"/>
<polygon fill="#000000" fill-opacity="0.200000" stroke="#000000" stroke-width="2" stroke-opacity="0.200000" points="252.43,-272.78 258.57,-271.12 252.73,-268.59 252.43,-272.78"/>
</g>
<!-- src/main/index.d.ts -->
<g id="node11" class="node">
<title>src/main/index.d.ts</title>
<g id="a_node11"><a xlink:href="src/main/index.d.ts" xlink:title="index.d.ts">
<path fill="#ccffcc" stroke="black" d="M74,-278C74,-278 30,-278 30,-278 27,-278 24,-275 24,-272 24,-272 24,-266 24,-266 24,-263 27,-260 30,-260 30,-260 74,-260 74,-260 77,-260 80,-263 80,-266 80,-266 80,-272 80,-272 80,-275 77,-278 74,-278"/>
<text text-anchor="start" x="32" y="-266.8" font-family="Helvetica,sans-Serif" font-size="9.00">index.d.ts</text>
</a>
</g>
</g>
<!-- src/main/index.mjs -->
<g id="node12" class="node">
<title>src/main/index.mjs</title>
<g id="a_node12"><a xlink:href="src/main/index.mjs" xlink:title="index.mjs">
<path fill="#ffffcc" stroke="black" d="M74,-210C74,-210 30,-210 30,-210 27,-210 24,-207 24,-204 24,-204 24,-198 24,-198 24,-195 27,-192 30,-192 30,-192 74,-192 74,-192 77,-192 80,-195 80,-198 80,-198 80,-204 80,-204 80,-207 77,-210 74,-210"/>
<text text-anchor="start" x="32" y="-198.8" font-family="Helvetica,sans-Serif" font-size="9.00">index.mjs</text>
</a>
</g>
</g>
<!-- src/main/index.mjs&#45;&gt;src/main/cruise.mjs -->
<g id="edge11" class="edge">
<title>src/main/index.mjs&#45;&gt;src/main/cruise.mjs</title>
<path fill="none" stroke="#000000" stroke-width="2" stroke-opacity="0.200000" d="M80.27,-193.38C81.56,-193.02 82.87,-192.65 84.18,-192.29"/>
<polygon fill="#000000" fill-opacity="0.200000" stroke="#000000" stroke-width="2" stroke-opacity="0.200000" points="85.63,-193.51 90.84,-189.87 84.49,-189.46 85.63,-193.51"/>
</g>
<!-- src/main/index.mjs&#45;&gt;src/main/format.mjs -->
<g id="edge12" class="edge">
<title>src/main/index.mjs&#45;&gt;src/main/format.mjs</title>
<path fill="none" stroke="#000000" stroke-width="2" stroke-opacity="0.200000" d="M70.27,-210.46C90.96,-221.56 126.86,-240.08 159,-253 161.3,-253.92 163.69,-254.83 166.11,-255.71"/>
<polygon fill="#000000" fill-opacity="0.200000" stroke="#000000" stroke-width="2" stroke-opacity="0.200000" points="166.02,-258.59 172.38,-258.57 167.4,-254.62 166.02,-258.59"/>
</g>
</g>
</svg>
