<svg xmlns="http://www.w3.org/2000/svg" xmlns:xlink="http://www.w3.org/1999/xlink" width="485pt" height="358pt" viewBox="0 0 485 358"><g class="graph" transform="translate(4 354)"><path fill="#fff" d="M-4 4v-358h484.5V4z"/><g class="cluster"><path fill="#fff" stroke="#000" stroke-width="2" d="M20-8h436.5c6 0 12-6 12-12v-310c0-6-6-12-12-12H20c-6 0-12 6-12 12v310c0 6 6 12 12 12"/><text xml:space="preserve" x="238.25" y="-329.45" font-family="Helvetica,sans-Serif" font-size="9" font-weight="bold" text-anchor="middle">src</text></g><g class="cluster"><path fill="#fff" stroke="#000" stroke-width="2" d="M28-16h420.5c6 0 12-6 12-12v-276c0-6-6-12-12-12H28c-6 0-12 6-12 12v276c0 6 6 12 12 12"/><text xml:space="preserve" x="238.25" y="-303.45" font-family="Helvetica,sans-Serif" font-size="9" font-weight="bold" text-anchor="middle">main</text></g><g class="cluster"><path fill="#fff" stroke="#000" stroke-width="2" d="M177.12-114h65c6 0 12-6 12-12v-28c0-6-6-12-12-12h-65c-6 0-12 6-12 12v28c0 6 6 12 12 12"/><text xml:space="preserve" x="209.62" y="-153.45" font-family="Helvetica,sans-Serif" font-size="9" font-weight="bold" text-anchor="middle">files-and-dirs</text></g><g class="cluster"><path fill="#fff" stroke="#000" stroke-width="2" d="M282-150h158.5c6 0 12-6 12-12v-58c0-6-6-12-12-12H282c-6 0-12 6-12 12v58c0 6 6 12 12 12"/><text xml:space="preserve" x="361.25" y="-219.45" font-family="Helvetica,sans-Serif" font-size="9" font-weight="bold" text-anchor="middle">options</text></g><g class="cluster"><path fill="#fff" stroke="#000" stroke-width="2" d="M177.12-198h65c6 0 12-6 12-12v-28c0-6-6-12-12-12h-65c-6 0-12 6-12 12v28c0 6 6 12 12 12"/><text xml:space="preserve" x="209.62" y="-237.45" font-family="Helvetica,sans-Serif" font-size="9" font-weight="bold" text-anchor="middle">resolve-options</text></g><g class="cluster"><path fill="#fff" stroke="#000" stroke-width="2" d="M169.25-24H250c6 0 12-6 12-12v-58c0-6-6-12-12-12h-80.75c-6 0-12 6-12 12v58c0 6 6 12 12 12"/><text xml:space="preserve" x="209.62" y="-93.45" font-family="Helvetica,sans-Serif" font-size="9" font-weight="bold" text-anchor="middle">rule-set</text></g><g class="node"><a xlink:href="src/main/cruise.mjs" xlink:title="cruise.mjs"><path fill="#ffc" stroke="#000" d="M143.33-190.88H97.92c-2.96 0-5.92 2.96-5.92 5.92v5.92c0 2.96 2.96 5.92 5.92 5.92h45.41c2.96 0 5.92-2.96 5.92-5.92v-5.92c0-2.96-2.96-5.92-5.92-5.92"/><text xml:space="preserve" x="100" y="-178.32" font-family="Helvetica,sans-Serif" font-size="9">cruise.mjs</text></a></g><g class="node"><a xlink:href="src/main/files-and-dirs/normalize.mjs" xlink:title="normalize.mjs"><path fill="#ffc" stroke="#000" d="M240.21-139.88h-61.17c-2.96 0-5.92 2.96-5.92 5.92v5.92c0 2.96 2.96 5.92 5.92 5.92h61.17c2.96 0 5.91-2.96 5.91-5.92v-5.92c0-2.96-2.95-5.92-5.91-5.92"/><text xml:space="preserve" x="181.12" y="-127.33" font-family="Helvetica,sans-Serif" font-size="9">normalize.mjs</text></a></g><g class="edge"><path fill="none" stroke="#000" stroke-dasharray="5,2" stroke-opacity=".2" stroke-width="2" d="M127.88-172.75c6.38 8.72 17.06 21.49 29.37 28.75 2.38 1.4 4.9 2.65 7.51 3.77"/><path fill-opacity=".2" stroke="#000" stroke-opacity=".2" stroke-width="2" d="m165.02-142.37 4.9 4.06-6.36-.12z"/></g><g class="node"><a xlink:href="src/main/options/assert-validity.mjs" xlink:title="assert-validity.mjs"><path fill="#ffc" stroke="#000" d="M360.83-175.88h-76.91c-2.96 0-5.92 2.96-5.92 5.92v5.92c0 2.96 2.96 5.92 5.92 5.92h76.91c2.96 0 5.92-2.96 5.92-5.92v-5.92c0-2.96-2.96-5.92-5.92-5.92"/><text xml:space="preserve" x="286" y="-163.32" font-family="Helvetica,sans-Serif" font-size="9">assert-validity.mjs</text></a></g><g class="edge"><path fill="none" stroke="#000" stroke-opacity=".2" stroke-width="2" d="M149.4-179.91c30.76 2.31 81.07 6.08 119.35 8.96"/><path fill-opacity=".2" stroke="#000" stroke-opacity=".2" stroke-width="2" d="m268.86-173.05 5.83 2.54-6.14 1.65z"/></g><g class="node"><a xlink:href="src/main/options/normalize.mjs" xlink:title="normalize.mjs"><path fill="#ffc" stroke="#000" d="M352.96-205.88h-61.17c-2.96 0-5.91 2.96-5.91 5.92v5.92c0 2.96 2.95 5.92 5.91 5.92h61.17c2.96 0 5.92-2.96 5.92-5.92v-5.92c0-2.96-2.96-5.92-5.92-5.92"/><text xml:space="preserve" x="293.88" y="-193.32" font-family="Helvetica,sans-Serif" font-size="9">normalize.mjs</text></a></g><g class="edge"><path fill="none" stroke="#000" stroke-opacity=".2" stroke-width="2" d="M149.4-184.09c32.99-2.47 88.45-6.64 127.45-9.57"/><path fill-opacity=".2" stroke="#000" stroke-opacity=".2" stroke-width="2" d="m276.24-195.72 6.14 1.65-5.83 2.54z"/></g><g class="node"><a xlink:href="src/main/report-wrap.mjs" xlink:title="report-wrap.mjs"><path fill="#ffc" stroke="#000" d="M356.33-282.88h-67.91c-2.96 0-5.92 2.96-5.92 5.92v5.92c0 2.96 2.96 5.92 5.92 5.92h67.91c2.96 0 5.92-2.96 5.92-5.92v-5.92c0-2.96-2.96-5.92-5.92-5.92"/><text xml:space="preserve" x="290.5" y="-270.32" font-family="Helvetica,sans-Serif" font-size="9">report-wrap.mjs</text></a></g><g class="edge"><path fill="none" stroke="#000" stroke-opacity=".2" stroke-width="2" d="M121.67-191.21c.66-20.46 5.46-69.55 35.58-90.79 38.9-27.44 96.82-15.71 132.43-4.21"/><path fill-opacity=".2" stroke="#000" stroke-opacity=".2" stroke-width="2" d="m290.36-288.2 5.01 3.91-6.36.06z"/></g><g class="node"><a xlink:href="src/main/resolve-options/normalize.mjs" xlink:title="normalize.mjs"><path fill="#ffc" stroke="#000" d="M240.21-223.88h-61.17c-2.96 0-5.92 2.96-5.92 5.92v5.92c0 2.96 2.96 5.92 5.92 5.92h61.17c2.96 0 5.91-2.96 5.91-5.92v-5.92c0-2.96-2.95-5.92-5.91-5.92"/><text xml:space="preserve" x="181.12" y="-211.32" font-family="Helvetica,sans-Serif" font-size="9">normalize.mjs</text></a></g><g class="edge"><path fill="none" stroke="#000" stroke-dasharray="5,2" stroke-opacity=".2" stroke-width="2" d="M136.1-191.27c6.31-3.74 13.9-7.84 21.15-10.73 2.32-.93 4.73-1.8 7.18-2.63"/><path fill-opacity=".2" stroke="#000" stroke-opacity=".2" stroke-width="2" d="m163.62-206.58 6.35.23-5.11 3.78z"/></g><g class="node"><a xlink:href="src/main/rule-set/assert-validity.mjs" xlink:title="assert-validity.mjs"><path fill="#ffc" stroke="#000" d="M248.08-79.88h-76.91c-2.96 0-5.92 2.96-5.92 5.92v5.92c0 2.96 2.96 5.92 5.92 5.92h76.91c2.96 0 5.92-2.96 5.92-5.92v-5.92c0-2.96-2.96-5.92-5.92-5.92"/><text xml:space="preserve" x="173.25" y="-67.33" font-family="Helvetica,sans-Serif" font-size="9">assert-validity.mjs</text></a></g><g class="edge"><path fill="none" stroke="#000" stroke-dasharray="5,2" stroke-opacity=".2" stroke-width="2" d="M124.67-172.97c5.12 14.26 16.48 42.35 32.58 61.97 8.03 9.79 18.88 18.67 28.53 25.57"/><path fill-opacity=".2" stroke="#000" stroke-opacity=".2" stroke-width="2" d="m186.94-87.19 3.76 5.13-6.14-1.66z"/></g><g class="node"><a xlink:href="src/main/rule-set/normalize.mjs" xlink:title="normalize.mjs"><path fill="#ffc" stroke="#000" d="M240.21-49.88h-61.17c-2.96 0-5.92 2.96-5.92 5.92v5.92c0 2.96 2.96 5.92 5.92 5.92h61.17c2.96 0 5.91-2.96 5.91-5.92v-5.92c0-2.96-2.95-5.92-5.91-5.92"/><text xml:space="preserve" x="181.12" y="-37.33" font-family="Helvetica,sans-Serif" font-size="9">normalize.mjs</text></a></g><g class="edge"><path fill="none" stroke="#000" stroke-dasharray="5,2" stroke-opacity=".2" stroke-width="2" d="M121.4-172.93c-.07 22.95 3.04 83.84 35.85 116.93 2.23 2.25 4.77 4.16 7.5 5.79"/><path fill-opacity=".2" stroke="#000" stroke-opacity=".2" stroke-width="2" d="m165.63-52.12 4.51 4.49-6.32-.7z"/></g><g class="node"><a xlink:href="src/main/helpers.mjs" xlink:title="helpers.mjs"><path fill="#ffc" stroke="#000" d="M437.83-79.88h-51.41c-2.96 0-5.92 2.96-5.92 5.92v5.92c0 2.96 2.96 5.92 5.92 5.92h51.41c2.96 0 5.92-2.96 5.92-5.92v-5.92c0-2.96-2.96-5.92-5.92-5.92"/><text xml:space="preserve" x="388.5" y="-67.33" font-family="Helvetica,sans-Serif" font-size="9">helpers.mjs</text></a></g><g class="edge"><path fill="none" stroke="#000" stroke-opacity=".2" stroke-width="2" d="M359.04-187.74c2.81 1.61 5.43 3.51 7.71 5.74 11.87 11.6 6.94 19.55 13 35 7.93 20.22 17.51 43.25 23.99 58.61"/><path fill-opacity=".2" stroke="#000" stroke-opacity=".2" stroke-width="2" d="m405.57-89.45.4 6.35-4.27-4.71z"/></g><g class="node"><a xlink:href="src/main/options/defaults.mjs" xlink:title="defaults.mjs"><path fill="#ffc" stroke="#000" d="M438.58-205.88h-52.91c-2.96 0-5.92 2.96-5.92 5.92v5.92c0 2.96 2.96 5.92 5.92 5.92h52.91c2.96 0 5.92-2.96 5.92-5.92v-5.92c0-2.96-2.96-5.92-5.92-5.92"/><text xml:space="preserve" x="387.75" y="-193.32" font-family="Helvetica,sans-Serif" font-size="9">defaults.mjs</text></a></g><g class="edge"><path fill="none" stroke="#000" stroke-opacity=".2" stroke-width="2" d="M359.32-197h10.99"/><path fill-opacity=".2" stroke="#000" stroke-opacity=".2" stroke-width="2" d="m370.29-199.1 6 2.1-6 2.1z"/></g><g class="edge"><path fill="none" stroke="#000" stroke-opacity=".2" stroke-width="2" d="M228.14-80.17C239.6-87.09 253.89-97.67 262-111c10.1-16.61-5.3-28.82 8-43 .28-.3.57-.6.87-.89"/><path fill-opacity=".2" stroke="#000" stroke-opacity=".2" stroke-width="2" d="m269.29-156.33 6.07-1.91-3.55 5.27z"/></g><g class="edge"><path fill="none" stroke="#000" stroke-opacity=".2" stroke-width="2" d="M254.13-71h117.29"/><path fill-opacity=".2" stroke="#000" stroke-opacity=".2" stroke-width="2" d="m371.1-73.1 6 2.1-6 2.1z"/></g><g class="edge"><path fill="none" stroke="#000" stroke-opacity=".2" stroke-width="2" d="M246.47-46.36c35.1-5.25 88.46-13.24 124.86-18.68"/><path fill-opacity=".2" stroke="#000" stroke-opacity=".2" stroke-width="2" d="m370.95-67.11 6.25 1.19-5.63 2.96z"/></g><g class="node"><a xlink:href="src/main/format.mjs" xlink:title="format.mjs"><path fill="#ffc" stroke="#000" d="M232.71-275.88h-46.17c-2.96 0-5.92 2.96-5.92 5.92v5.92c0 2.96 2.96 5.92 5.92 5.92h46.17c2.96 0 5.91-2.96 5.91-5.92v-5.92c0-2.96-2.95-5.92-5.91-5.92"/><text xml:space="preserve" x="188.62" y="-263.32" font-family="Helvetica,sans-Serif" font-size="9">format.mjs</text></a></g><g class="edge"><path fill="none" stroke="#000" stroke-opacity=".2" stroke-width="2" d="M238.98-265.33c8.58 1.94 17.25 5.59 23.02 12.33 20.66 24.11-12.44 46.7 8 71 .27.32.54.63.83.94"/><path fill-opacity=".2" stroke="#000" stroke-opacity=".2" stroke-width="2" d="m271.91-182.89 3.29 5.44-5.96-2.2z"/></g><g class="edge"><path fill="none" stroke="#000" stroke-opacity=".2" stroke-width="2" d="M238.97-265.02c8.47 1.97 17.08 5.56 23.03 12.02 13.17 14.3-5.3 28.82 8 43 2.17 2.32 4.7 4.25 7.44 5.85"/><path fill-opacity=".2" stroke="#000" stroke-opacity=".2" stroke-width="2" d="m278.26-206.08 4.59 4.39-6.33-.57z"/></g><g class="edge"><path fill="none" stroke="#000" stroke-opacity=".2" stroke-width="2" d="M238.86-268.78c10.52-.67 22.78-1.44 34.57-2.19"/><path fill-opacity=".2" stroke="#000" stroke-opacity=".2" stroke-width="2" d="m273.19-273.06 6.12 1.72-5.86 2.47z"/></g><g class="node"><a xlink:href="src/main/index.d.ts" xlink:title="index.d.ts"><path fill="#cfc" stroke="#000" d="M73.08-122.88H29.92c-2.96 0-5.92 2.96-5.92 5.92v5.92c0 2.96 2.96 5.92 5.92 5.92h43.16c2.96 0 5.92-2.96 5.92-5.92v-5.92c0-2.96-2.96-5.92-5.92-5.92"/><text xml:space="preserve" x="32" y="-110.33" font-family="Helvetica,sans-Serif" font-size="9">index.d.ts</text></a></g><g class="node"><a xlink:href="src/main/index.mjs" xlink:title="index.mjs"><path fill="#ffc" stroke="#000" d="M73.08-219.88H29.92c-2.96 0-5.92 2.96-5.92 5.92v5.92c0 2.96 2.96 5.92 5.92 5.92h43.16c2.96 0 5.92-2.96 5.92-5.92v-5.92c0-2.96-2.96-5.92-5.92-5.92"/><text xml:space="preserve" x="32" y="-207.32" font-family="Helvetica,sans-Serif" font-size="9">index.mjs</text></a></g><g class="edge"><path fill="none" stroke="#000" stroke-opacity=".2" stroke-width="2" d="M74.11-201.66c5.03 2.17 10.47 4.52 15.78 6.82"/><path fill-opacity=".2" stroke="#000" stroke-opacity=".2" stroke-width="2" d="m90.6-196.83 4.68 4.31-6.34-.45z"/></g><g class="edge"><path fill="none" stroke="#000" stroke-opacity=".2" stroke-width="2" d="M73.5-220.25c20.96-9.04 54.21-22.84 83.75-32.75 4.6-1.54 9.48-3.04 14.32-4.45"/><path fill-opacity=".2" stroke="#000" stroke-opacity=".2" stroke-width="2" d="m170.93-259.45 6.34.39-5.21 3.65z"/></g></g></svg>