<?xml version="1.0" encoding="UTF-8" standalone="no"?>
<!DOCTYPE svg PUBLIC "-//W3C//DTD SVG 1.1//EN"
 "http://www.w3.org/Graphics/SVG/1.1/DTD/svg11.dtd">
<!-- Generated by graphviz version 2.44.0 (20200408.0750)
 -->
<!-- Title: dependency&#45;cruiser output Pages: 1 -->
<svg width="461pt" height="344pt"
 viewBox="0.00 0.00 461.00 344.00" xmlns="http://www.w3.org/2000/svg" xmlns:xlink="http://www.w3.org/1999/xlink">
<g id="graph0" class="graph" transform="scale(1 1) rotate(0) translate(4 340)">
<title>dependency&#45;cruiser output</title>
<polygon fill="white" stroke="transparent" points="-4,4 -4,-340 457,-340 457,4 -4,4"/>
<g id="clust1" class="cluster">
<title>cluster_src</title>
<path fill="#ffffff" stroke="black" stroke-width="2" d="M20,-8C20,-8 433,-8 433,-8 439,-8 445,-14 445,-20 445,-20 445,-316 445,-316 445,-322 439,-328 433,-328 433,-328 20,-328 20,-328 14,-328 8,-322 8,-316 8,-316 8,-20 8,-20 8,-14 14,-8 20,-8"/>
<text text-anchor="middle" x="226.5" y="-316.8" font-family="Helvetica,sans-Serif" font-weight="bold" font-size="9.00">src</text>
</g>
<g id="clust2" class="cluster">
<title>cluster_src/main</title>
<path fill="#ffffff" stroke="black" stroke-width="2" d="M28,-16C28,-16 425,-16 425,-16 431,-16 437,-22 437,-28 437,-28 437,-290 437,-290 437,-296 431,-302 425,-302 425,-302 28,-302 28,-302 22,-302 16,-296 16,-290 16,-290 16,-28 16,-28 16,-22 22,-16 28,-16"/>
<text text-anchor="middle" x="226.5" y="-290.8" font-family="Helvetica,sans-Serif" font-weight="bold" font-size="9.00">main</text>
</g>
<g id="clust3" class="cluster">
<title>cluster_src/main/files&#45;and&#45;dirs</title>
<path fill="#ffffff" stroke="black" stroke-width="2" d="M114,-50C114,-50 172,-50 172,-50 178,-50 184,-56 184,-62 184,-62 184,-90 184,-90 184,-96 178,-102 172,-102 172,-102 114,-102 114,-102 108,-102 102,-96 102,-90 102,-90 102,-62 102,-62 102,-56 108,-50 114,-50"/>
<text text-anchor="middle" x="143" y="-90.8" font-family="Helvetica,sans-Serif" font-weight="bold" font-size="9.00">files&#45;and&#45;dirs</text>
</g>
<g id="clust4" class="cluster">
<title>cluster_src/main/options</title>
<path fill="#ffffff" stroke="black" stroke-width="2" d="M221,-99C221,-99 390,-99 390,-99 396,-99 402,-105 402,-111 402,-111 402,-169 402,-169 402,-175 396,-181 390,-181 390,-181 221,-181 221,-181 215,-181 209,-175 209,-169 209,-169 209,-111 209,-111 209,-105 215,-99 221,-99"/>
<text text-anchor="middle" x="305.5" y="-169.8" font-family="Helvetica,sans-Serif" font-weight="bold" font-size="9.00">options</text>
</g>
<g id="clust5" class="cluster">
<title>cluster_src/main/resolve&#45;options</title>
<path fill="#ffffff" stroke="black" stroke-width="2" d="M114,-134C114,-134 173,-134 173,-134 179,-134 185,-140 185,-146 185,-146 185,-174 185,-174 185,-180 179,-186 173,-186 173,-186 114,-186 114,-186 108,-186 102,-180 102,-174 102,-174 102,-146 102,-146 102,-140 108,-134 114,-134"/>
<text text-anchor="middle" x="143.5" y="-174.8" font-family="Helvetica,sans-Serif" font-weight="bold" font-size="9.00">resolve&#45;options</text>
</g>
<g id="clust6" class="cluster">
<title>cluster_src/main/rule&#45;set</title>
<path fill="#ffffff" stroke="black" stroke-width="2" d="M114,-194C114,-194 172,-194 172,-194 178,-194 184,-200 184,-206 184,-206 184,-264 184,-264 184,-270 178,-276 172,-276 172,-276 114,-276 114,-276 108,-276 102,-270 102,-264 102,-264 102,-206 102,-206 102,-200 108,-194 114,-194"/>
<text text-anchor="middle" x="143" y="-264.8" font-family="Helvetica,sans-Serif" font-weight="bold" font-size="9.00">rule&#45;set</text>
</g>
<g id="clust7" class="cluster">
<title>cluster_src/main/utl</title>
<path fill="#ffffff" stroke="black" stroke-width="2" d="M303,-209C303,-209 417,-209 417,-209 423,-209 429,-215 429,-221 429,-221 429,-249 429,-249 429,-255 423,-261 417,-261 417,-261 303,-261 303,-261 297,-261 291,-255 291,-249 291,-249 291,-221 291,-221 291,-215 297,-209 303,-209"/>
<text text-anchor="middle" x="360" y="-249.8" font-family="Helvetica,sans-Serif" font-weight="bold" font-size="9.00">utl</text>
</g>
<!-- src/main/bus.js -->
<g id="node1" class="node">
<title>src/main/bus.js</title>
<g id="a_node1"><a xlink:href="src/main/bus.js" xlink:title="bus.js">
<path fill="#ffffcc" stroke="black" d="M164,-42C164,-42 122,-42 122,-42 119,-42 116,-39 116,-36 116,-36 116,-30 116,-30 116,-27 119,-24 122,-24 122,-24 164,-24 164,-24 167,-24 170,-27 170,-30 170,-30 170,-36 170,-36 170,-39 167,-42 164,-42"/>
<text text-anchor="middle" x="143" y="-30.8" font-family="Helvetica,sans-Serif" font-size="9.00">bus.js</text>
</a>
</g>
</g>
<!-- src/main/files&#45;and&#45;dirs/normalize.js -->
<g id="node2" class="node">
<title>src/main/files&#45;and&#45;dirs/normalize.js</title>
<g id="a_node2"><a xlink:href="src/main/files-and-dirs/normalize.js" xlink:title="normalize.js">
<path fill="#ffffcc" stroke="black" d="M170,-76C170,-76 116,-76 116,-76 113,-76 110,-73 110,-70 110,-70 110,-64 110,-64 110,-61 113,-58 116,-58 116,-58 170,-58 170,-58 173,-58 176,-61 176,-64 176,-64 176,-70 176,-70 176,-73 173,-76 170,-76"/>
<text text-anchor="middle" x="143" y="-64.8" font-family="Helvetica,sans-Serif" font-size="9.00">normalize.js</text>
</a>
</g>
</g>
<!-- src/main/index.js -->
<g id="node3" class="node">
<title>src/main/index.js</title>
<g id="a_node3"><a xlink:href="src/main/index.js" xlink:title="index.js">
<path fill="#ffffcc" stroke="black" d="M72,-134C72,-134 30,-134 30,-134 27,-134 24,-131 24,-128 24,-128 24,-122 24,-122 24,-119 27,-116 30,-116 30,-116 72,-116 72,-116 75,-116 78,-119 78,-122 78,-122 78,-128 78,-128 78,-131 75,-134 72,-134"/>
<text text-anchor="middle" x="51" y="-122.8" font-family="Helvetica,sans-Serif" font-size="9.00">index.js</text>
</a>
</g>
</g>
<!-- src/main/index.js&#45;&gt;src/main/bus.js -->
<g id="edge1" class="edge">
<title>src/main/index.js&#45;&gt;src/main/bus.js</title>
<path fill="none" stroke="#000000" stroke-width="2" stroke-opacity="0.200000" d="M55.47,-115.9C62.09,-99.74 78.02,-65.95 102,-47 104.4,-45.1 107.07,-43.45 109.87,-42.02"/>
<polygon fill="#000000" fill-opacity="0.200000" stroke="#000000" stroke-width="2" stroke-opacity="0.200000" points="111.13,-43.76 115.74,-39.38 109.4,-39.93 111.13,-43.76"/>
</g>
<!-- src/main/index.js&#45;&gt;src/main/files&#45;and&#45;dirs/normalize.js -->
<g id="edge2" class="edge">
<title>src/main/index.js&#45;&gt;src/main/files&#45;and&#45;dirs/normalize.js</title>
<path fill="none" stroke="#000000" stroke-width="2" stroke-opacity="0.200000" d="M59.97,-115.82C69.17,-105.74 85.21,-89.69 102,-80 102.79,-79.54 103.6,-79.1 104.42,-78.67"/>
<polygon fill="#000000" fill-opacity="0.200000" stroke="#000000" stroke-width="2" stroke-opacity="0.200000" points="105.5,-80.49 110.03,-76.03 103.7,-76.69 105.5,-80.49"/>
</g>
<!-- src/main/options/normalize.js -->
<g id="node4" class="node">
<title>src/main/options/normalize.js</title>
<g id="a_node4"><a xlink:href="src/main/options/normalize.js" xlink:title="normalize.js">
<path fill="#ffffcc" stroke="black" d="M277,-125C277,-125 223,-125 223,-125 220,-125 217,-122 217,-119 217,-119 217,-113 217,-113 217,-110 220,-107 223,-107 223,-107 277,-107 277,-107 280,-107 283,-110 283,-113 283,-113 283,-119 283,-119 283,-122 280,-125 277,-125"/>
<text text-anchor="middle" x="250" y="-113.8" font-family="Helvetica,sans-Serif" font-size="9.00">normalize.js</text>
</a>
</g>
</g>
<!-- src/main/index.js&#45;&gt;src/main/options/normalize.js -->
<g id="edge3" class="edge">
<title>src/main/index.js&#45;&gt;src/main/options/normalize.js</title>
<path fill="none" stroke="#000000" stroke-width="2" stroke-opacity="0.200000" d="M78.19,-122.68C85.86,-122.06 94.26,-121.44 102,-121 138.89,-118.9 181.05,-117.57 210.73,-116.82"/>
<polygon fill="#000000" fill-opacity="0.200000" stroke="#000000" stroke-width="2" stroke-opacity="0.200000" points="210.92,-118.92 216.86,-116.67 210.81,-114.72 210.92,-118.92"/>
</g>
<!-- src/main/options/validate.js -->
<g id="node5" class="node">
<title>src/main/options/validate.js</title>
<g id="a_node5"><a xlink:href="src/main/options/validate.js" xlink:title="validate.js">
<path fill="#ffffcc" stroke="black" d="M273,-155C273,-155 227,-155 227,-155 224,-155 221,-152 221,-149 221,-149 221,-143 221,-143 221,-140 224,-137 227,-137 227,-137 273,-137 273,-137 276,-137 279,-140 279,-143 279,-143 279,-149 279,-149 279,-152 276,-155 273,-155"/>
<text text-anchor="middle" x="250" y="-143.8" font-family="Helvetica,sans-Serif" font-size="9.00">validate.js</text>
</a>
</g>
</g>
<!-- src/main/index.js&#45;&gt;src/main/options/validate.js -->
<g id="edge4" class="edge">
<title>src/main/index.js&#45;&gt;src/main/options/validate.js</title>
<path fill="none" stroke="#000000" stroke-width="2" stroke-opacity="0.200000" d="M78.12,-124.76C105.04,-124.84 148.14,-125.89 185,-131 194.83,-132.36 205.37,-134.53 214.99,-136.8"/>
<polygon fill="#000000" fill-opacity="0.200000" stroke="#000000" stroke-width="2" stroke-opacity="0.200000" points="214.53,-138.85 220.86,-138.22 215.52,-134.76 214.53,-138.85"/>
</g>
<!-- src/main/resolve&#45;options/normalize.js -->
<g id="node6" class="node">
<title>src/main/resolve&#45;options/normalize.js</title>
<g id="a_node6"><a xlink:href="src/main/resolve-options/normalize.js" xlink:title="normalize.js">
<path fill="#ffffcc" stroke="black" d="M170,-160C170,-160 116,-160 116,-160 113,-160 110,-157 110,-154 110,-154 110,-148 110,-148 110,-145 113,-142 116,-142 116,-142 170,-142 170,-142 173,-142 176,-145 176,-148 176,-148 176,-154 176,-154 176,-157 173,-160 170,-160"/>
<text text-anchor="middle" x="143" y="-148.8" font-family="Helvetica,sans-Serif" font-size="9.00">normalize.js</text>
</a>
</g>
</g>
<!-- src/main/index.js&#45;&gt;src/main/resolve&#45;options/normalize.js -->
<g id="edge5" class="edge">
<title>src/main/index.js&#45;&gt;src/main/resolve&#45;options/normalize.js</title>
<path fill="none" stroke="#000000" stroke-width="2" stroke-opacity="0.200000" d="M78.03,-132.52C86.38,-134.93 95.79,-137.65 104.78,-140.25"/>
<polygon fill="#000000" fill-opacity="0.200000" stroke="#000000" stroke-width="2" stroke-opacity="0.200000" points="104.26,-142.28 110.61,-141.93 105.42,-138.25 104.26,-142.28"/>
</g>
<!-- src/main/rule&#45;set/normalize.js -->
<g id="node7" class="node">
<title>src/main/rule&#45;set/normalize.js</title>
<g id="a_node7"><a xlink:href="src/main/rule-set/normalize.js" xlink:title="normalize.js">
<path fill="#ffffcc" stroke="black" d="M170,-250C170,-250 116,-250 116,-250 113,-250 110,-247 110,-244 110,-244 110,-238 110,-238 110,-235 113,-232 116,-232 116,-232 170,-232 170,-232 173,-232 176,-235 176,-238 176,-238 176,-244 176,-244 176,-247 173,-250 170,-250"/>
<text text-anchor="middle" x="143" y="-238.8" font-family="Helvetica,sans-Serif" font-size="9.00">normalize.js</text>
</a>
</g>
</g>
<!-- src/main/index.js&#45;&gt;src/main/rule&#45;set/normalize.js -->
<g id="edge6" class="edge">
<title>src/main/index.js&#45;&gt;src/main/rule&#45;set/normalize.js</title>
<path fill="none" stroke="#000000" stroke-width="2" stroke-opacity="0.200000" d="M54.11,-134.2C59.07,-153.81 73.26,-200.02 102,-226 103.03,-226.93 104.12,-227.8 105.26,-228.62"/>
<polygon fill="#000000" fill-opacity="0.200000" stroke="#000000" stroke-width="2" stroke-opacity="0.200000" points="104.32,-230.51 110.52,-231.9 106.53,-226.94 104.32,-230.51"/>
</g>
<!-- src/main/rule&#45;set/validate.js -->
<g id="node8" class="node">
<title>src/main/rule&#45;set/validate.js</title>
<g id="a_node8"><a xlink:href="src/main/rule-set/validate.js" xlink:title="validate.js">
<path fill="#ffffcc" stroke="black" d="M166,-220C166,-220 120,-220 120,-220 117,-220 114,-217 114,-214 114,-214 114,-208 114,-208 114,-205 117,-202 120,-202 120,-202 166,-202 166,-202 169,-202 172,-205 172,-208 172,-208 172,-214 172,-214 172,-217 169,-220 166,-220"/>
<text text-anchor="middle" x="143" y="-208.8" font-family="Helvetica,sans-Serif" font-size="9.00">validate.js</text>
</a>
</g>
</g>
<!-- src/main/index.js&#45;&gt;src/main/rule&#45;set/validate.js -->
<g id="edge7" class="edge">
<title>src/main/index.js&#45;&gt;src/main/rule&#45;set/validate.js</title>
<path fill="none" stroke="#000000" stroke-width="2" stroke-opacity="0.200000" d="M57.49,-134.22C65.81,-147.59 82.67,-172.55 102,-189 106.34,-192.7 111.41,-196.05 116.44,-198.97"/>
<polygon fill="#000000" fill-opacity="0.200000" stroke="#000000" stroke-width="2" stroke-opacity="0.200000" points="115.59,-200.9 121.86,-201.96 117.62,-197.22 115.59,-200.9"/>
</g>
<!-- src/main/options/defaults.json -->
<g id="node9" class="node">
<title>src/main/options/defaults.json</title>
<g id="a_node9"><a xlink:href="src/main/options/defaults.json" xlink:title="defaults.json">
<path fill="#ffee44" stroke="black" d="M388,-125C388,-125 332,-125 332,-125 329,-125 326,-122 326,-119 326,-119 326,-113 326,-113 326,-110 329,-107 332,-107 332,-107 388,-107 388,-107 391,-107 394,-110 394,-113 394,-113 394,-119 394,-119 394,-122 391,-125 388,-125"/>
<text text-anchor="middle" x="360" y="-113.8" font-family="Helvetica,sans-Serif" font-size="9.00">defaults.json</text>
</a>
</g>
</g>
<!-- src/main/options/normalize.js&#45;&gt;src/main/options/defaults.json -->
<g id="edge9" class="edge">
<title>src/main/options/normalize.js&#45;&gt;src/main/options/defaults.json</title>
<path fill="none" stroke="#000000" stroke-width="2" stroke-opacity="0.200000" d="M283.11,-116C294.55,-116 307.56,-116 319.54,-116"/>
<polygon fill="#000000" fill-opacity="0.200000" stroke="#000000" stroke-width="2" stroke-opacity="0.200000" points="319.7,-118.1 325.7,-116 319.7,-113.9 319.7,-118.1"/>
</g>
<!-- src/main/utl/normalize&#45;re&#45;properties.js -->
<g id="node10" class="node">
<title>src/main/utl/normalize&#45;re&#45;properties.js</title>
<g id="a_node10"><a xlink:href="src/main/utl/normalize-re-properties.js" xlink:title="normalize&#45;re&#45;properties.js">
<path fill="#ffffcc" stroke="black" d="M415,-235C415,-235 305,-235 305,-235 302,-235 299,-232 299,-229 299,-229 299,-223 299,-223 299,-220 302,-217 305,-217 305,-217 415,-217 415,-217 418,-217 421,-220 421,-223 421,-223 421,-229 421,-229 421,-232 418,-235 415,-235"/>
<text text-anchor="middle" x="360" y="-223.8" font-family="Helvetica,sans-Serif" font-size="9.00">normalize&#45;re&#45;properties.js</text>
</a>
</g>
</g>
<!-- src/main/options/normalize.js&#45;&gt;src/main/utl/normalize&#45;re&#45;properties.js -->
<g id="edge8" class="edge">
<title>src/main/options/normalize.js&#45;&gt;src/main/utl/normalize&#45;re&#45;properties.js</title>
<path fill="none" stroke="#000000" stroke-width="2" stroke-opacity="0.200000" d="M276.86,-125.15C279.2,-126.8 281.31,-128.74 283,-131 297.25,-150.09 277.87,-164.12 291,-184 299.9,-197.47 314.76,-207.38 328.32,-214.17"/>
<polygon fill="#000000" fill-opacity="0.200000" stroke="#000000" stroke-width="2" stroke-opacity="0.200000" points="327.71,-216.21 334.03,-216.89 329.52,-212.42 327.71,-216.21"/>
</g>
<!-- src/main/rule&#45;set/normalize.js&#45;&gt;src/main/utl/normalize&#45;re&#45;properties.js -->
<g id="edge10" class="edge">
<title>src/main/rule&#45;set/normalize.js&#45;&gt;src/main/utl/normalize&#45;re&#45;properties.js</title>
<path fill="none" stroke="#000000" stroke-width="2" stroke-opacity="0.200000" d="M176.19,-238.75C206.88,-236.61 254.02,-233.32 292.75,-230.62"/>
<polygon fill="#000000" fill-opacity="0.200000" stroke="#000000" stroke-width="2" stroke-opacity="0.200000" points="293.05,-232.71 298.89,-230.19 292.76,-228.52 293.05,-232.71"/>
</g>
<!-- src/main/rule&#45;set/validate.js&#45;&gt;src/main/options/validate.js -->
<g id="edge11" class="edge">
<title>src/main/rule&#45;set/validate.js&#45;&gt;src/main/options/validate.js</title>
<path fill="none" stroke="#000000" stroke-width="2" stroke-opacity="0.200000" d="M161.77,-201.96C169.06,-198.12 177.53,-193.5 185,-189 200.85,-179.45 218.25,-167.68 230.9,-158.86"/>
<polygon fill="#000000" fill-opacity="0.200000" stroke="#000000" stroke-width="2" stroke-opacity="0.200000" points="232.3,-160.45 236.01,-155.28 229.89,-157.01 232.3,-160.45"/>
</g>
</g>
</svg>
