<svg xmlns="http://www.w3.org/2000/svg" xmlns:xlink="http://www.w3.org/1999/xlink" width="485pt" height="358pt" viewBox="0 0 484.5 358"><g class="graph" transform="translate(4 354)"><path fill="#1e90ff" d="M-4 4v-358h484.5V4z"/><g class="cluster"><path fill="none" stroke="#fff" stroke-width="2" d="M20-8h436.5c6 0 12-6 12-12v-310c0-6-6-12-12-12H20c-6 0-12 6-12 12v310c0 6 6 12 12 12"/><text x="238.25" y="-329.45" fill="#fff" font-family="Helvetica,sans-Serif" font-size="9" font-weight="bold" text-anchor="middle">src</text></g><g class="cluster"><path fill="none" stroke="#fff" stroke-width="2" d="M28-16h420.5c6 0 12-6 12-12v-276c0-6-6-12-12-12H28c-6 0-12 6-12 12v276c0 6 6 12 12 12"/><text x="238.25" y="-303.45" fill="#fff" font-family="Helvetica,sans-Serif" font-size="9" font-weight="bold" text-anchor="middle">main</text></g><g class="cluster"><path fill="none" stroke="#fff" stroke-width="2" d="M177.12-114h65c6 0 12-6 12-12v-28c0-6-6-12-12-12h-65c-6 0-12 6-12 12v28c0 6 6 12 12 12"/><text x="209.62" y="-153.45" fill="#fff" font-family="Helvetica,sans-Serif" font-size="9" font-weight="bold" text-anchor="middle">files-and-dirs</text></g><g class="cluster"><path fill="none" stroke="#fff" stroke-width="2" d="M282-150h158.5c6 0 12-6 12-12v-58c0-6-6-12-12-12H282c-6 0-12 6-12 12v58c0 6 6 12 12 12"/><text x="361.25" y="-219.45" fill="#fff" font-family="Helvetica,sans-Serif" font-size="9" font-weight="bold" text-anchor="middle">options</text></g><g class="cluster"><path fill="none" stroke="#fff" stroke-width="2" d="M177.12-198h65c6 0 12-6 12-12v-28c0-6-6-12-12-12h-65c-6 0-12 6-12 12v28c0 6 6 12 12 12"/><text x="209.62" y="-237.45" fill="#fff" font-family="Helvetica,sans-Serif" font-size="9" font-weight="bold" text-anchor="middle">resolve-options</text></g><g class="cluster"><path fill="none" stroke="#fff" stroke-width="2" d="M169.25-24H250c6 0 12-6 12-12v-58c0-6-6-12-12-12h-80.75c-6 0-12 6-12 12v58c0 6 6 12 12 12"/><text x="209.62" y="-93.45" fill="#fff" font-family="Helvetica,sans-Serif" font-size="9" font-weight="bold" text-anchor="middle">rule-set</text></g><g class="node"><a xlink:href="src/main/cruise.mjs" xlink:title="cruise.mjs"><path fill="#fff" fill-opacity=".2" stroke="#fff" d="M143.33-190.88H97.92c-2.96 0-5.92 2.96-5.92 5.92v5.92c0 2.96 2.96 5.92 5.92 5.92h45.41c2.96 0 5.92-2.96 5.92-5.92v-5.92c0-2.96-2.96-5.92-5.92-5.92"/><text x="100" y="-178.32" fill="#fff" font-family="Helvetica,sans-Serif" font-size="9">cruise.mjs</text></a></g><g class="node"><a xlink:href="src/main/files-and-dirs/normalize.mjs" xlink:title="normalize.mjs"><path fill="#fff" fill-opacity=".2" stroke="#fff" d="M240.21-139.88h-61.17c-2.96 0-5.92 2.96-5.92 5.92v5.92c0 2.96 2.96 5.92 5.92 5.92h61.17c2.96 0 5.91-2.96 5.91-5.92v-5.92c0-2.96-2.95-5.92-5.91-5.92"/><text x="181.12" y="-127.33" fill="#fff" font-family="Helvetica,sans-Serif" font-size="9">normalize.mjs</text></a></g><g class="edge"><path fill="none" stroke="#fff" stroke-dasharray="5,2" d="M134.5-172.71v41.33h32.22"/><path fill="#fff" stroke="#fff" d="m171.72-131.38-5-2.25 3.72 2.25h-3.72 3.72l-3.72 2.25z"/></g><g class="node"><a xlink:href="src/main/options/assert-validity.mjs" xlink:title="assert-validity.mjs"><path fill="#fff" fill-opacity=".2" stroke="#fff" d="M360.83-175.88h-76.91c-2.96 0-5.92 2.96-5.92 5.92v5.92c0 2.96 2.96 5.92 5.92 5.92h76.91c2.96 0 5.92-2.96 5.92-5.92v-5.92c0-2.96-2.96-5.92-5.92-5.92"/><text x="286" y="-163.32" fill="#fff" font-family="Helvetica,sans-Serif" font-size="9">assert-validity.mjs</text></a></g><g class="edge"><path fill="none" stroke="#fff" d="M106.5-172.66v7.04h164.93"/><path fill="#fff" stroke="#fff" d="m276.43-165.63-5-2.25 3.72 2.25h-3.72 3.72l-3.72 2.25z"/></g><g class="node"><a xlink:href="src/main/options/normalize.mjs" xlink:title="normalize.mjs"><path fill="#fff" fill-opacity=".2" stroke="#fff" d="M352.96-205.88h-61.17c-2.96 0-5.91 2.96-5.91 5.92v5.92c0 2.96 2.95 5.92 5.91 5.92h61.17c2.96 0 5.92-2.96 5.92-5.92v-5.92c0-2.96-2.96-5.92-5.92-5.92"/><text x="293.88" y="-193.32" fill="#fff" font-family="Helvetica,sans-Serif" font-size="9">normalize.mjs</text></a></g><g class="edge"><path fill="none" stroke="#fff" d="M120.5-191.27v-5.23h159.1"/><path fill="#fff" stroke="#fff" d="m284.6-196.5-5-2.25 3.72 2.25h-3.72 3.72l-3.72 2.25z"/></g><g class="node"><a xlink:href="src/main/report-wrap.mjs" xlink:title="report-wrap.mjs"><path fill="#fff" fill-opacity=".2" stroke="#fff" d="M356.33-282.88h-67.91c-2.96 0-5.92 2.96-5.92 5.92v5.92c0 2.96 2.96 5.92 5.92 5.92h67.91c2.96 0 5.92-2.96 5.92-5.92v-5.92c0-2.96-2.96-5.92-5.92-5.92"/><text x="290.5" y="-270.32" fill="#fff" font-family="Helvetica,sans-Serif" font-size="9">report-wrap.mjs</text></a></g><g class="edge"><path fill="none" stroke="#fff" d="M106.5-191.34v-88.04h169.31"/><path fill="#fff" stroke="#fff" d="m280.81-279.38-5-2.25 3.71 2.25h-3.71 3.71l-3.71 2.25z"/></g><g class="node"><a xlink:href="src/main/resolve-options/normalize.mjs" xlink:title="normalize.mjs"><path fill="#fff" fill-opacity=".2" stroke="#fff" d="M240.21-223.88h-61.17c-2.96 0-5.92 2.96-5.92 5.92v5.92c0 2.96 2.96 5.92 5.92 5.92h61.17c2.96 0 5.91-2.96 5.91-5.92v-5.92c0-2.96-2.95-5.92-5.91-5.92"/><text x="181.12" y="-211.32" fill="#fff" font-family="Helvetica,sans-Serif" font-size="9">normalize.mjs</text></a></g><g class="edge"><path fill="none" stroke="#fff" stroke-dasharray="5,2" d="M134.5-191.13V-213h32.22"/><path fill="#fff" stroke="#fff" d="m171.72-213-5-2.25 3.72 2.25h-3.72 3.72l-3.72 2.25z"/></g><g class="node"><a xlink:href="src/main/rule-set/assert-validity.mjs" xlink:title="assert-validity.mjs"><path fill="#fff" fill-opacity=".2" stroke="#fff" d="M248.08-79.88h-76.91c-2.96 0-5.92 2.96-5.92 5.92v5.92c0 2.96 2.96 5.92 5.92 5.92h76.91c2.96 0 5.92-2.96 5.92-5.92v-5.92c0-2.96-2.96-5.92-5.92-5.92"/><text x="173.25" y="-67.33" fill="#fff" font-family="Helvetica,sans-Serif" font-size="9">assert-validity.mjs</text></a></g><g class="edge"><path fill="none" stroke="#fff" stroke-dasharray="5,2" d="M149.62-182h19.88v95.7"/><path fill="#fff" stroke="#fff" d="m169.5-81.3 2.25-5-2.25 3.72v-3.72 3.72l-2.25-3.72z"/></g><g class="node"><a xlink:href="src/main/rule-set/normalize.mjs" xlink:title="normalize.mjs"><path fill="#fff" fill-opacity=".2" stroke="#fff" d="M240.21-49.88h-61.17c-2.96 0-5.92 2.96-5.92 5.92v5.92c0 2.96 2.96 5.92 5.92 5.92h61.17c2.96 0 5.91-2.96 5.91-5.92v-5.92c0-2.96-2.95-5.92-5.91-5.92"/><text x="181.12" y="-37.33" fill="#fff" font-family="Helvetica,sans-Serif" font-size="9">normalize.mjs</text></a></g><g class="edge"><path fill="none" stroke="#fff" stroke-dasharray="5,2" d="M120.5-172.75V-41h46.14"/><path fill="#fff" stroke="#fff" d="m171.64-41-5-2.25 3.72 2.25h-3.72 3.72l-3.72 2.25z"/></g><g class="node"><a xlink:href="src/main/helpers.mjs" xlink:title="helpers.mjs"><path fill="#fff" fill-opacity=".2" stroke="#fff" d="M437.83-79.88h-51.41c-2.96 0-5.92 2.96-5.92 5.92v5.92c0 2.96 2.96 5.92 5.92 5.92h51.41c2.96 0 5.92-2.96 5.92-5.92v-5.92c0-2.96-2.96-5.92-5.92-5.92"/><text x="388.5" y="-67.33" fill="#fff" font-family="Helvetica,sans-Serif" font-size="9">helpers.mjs</text></a></g><g class="edge"><path fill="none" stroke="#fff" d="M359.26-194.04h14.24v120.08h.67"/><path fill="#fff" stroke="#fff" d="m379.01-73.96-5-2.25 3.72 2.25h-3.72 3.72l-3.72 2.25z"/></g><g class="node"><a xlink:href="src/main/options/defaults.mjs" xlink:title="defaults.mjs"><path fill="#fff" fill-opacity=".2" stroke="#fff" d="M438.58-205.88h-52.91c-2.96 0-5.92 2.96-5.92 5.92v5.92c0 2.96 2.96 5.92 5.92 5.92h52.91c2.96 0 5.92-2.96 5.92-5.92v-5.92c0-2.96-2.96-5.92-5.92-5.92"/><text x="387.75" y="-193.32" fill="#fff" font-family="Helvetica,sans-Serif" font-size="9">defaults.mjs</text></a></g><g class="edge"><path fill="none" stroke="#fff" d="M359.14-199.96h13.95"/><path fill="#fff" stroke="#fff" d="m378.09-199.96-5-2.25 3.72 2.25h-3.72 3.72l-3.72 2.25z"/></g><g class="edge"><path fill="none" stroke="#fff" d="M250.5-80.05v-81.83h20.95"/><path fill="#fff" stroke="#fff" d="m276.45-161.88-5-2.25 3.72 2.25h-3.72 3.72l-3.72 2.25z"/></g><g class="edge"><path fill="none" stroke="#fff" d="M254.32-68.04H373.9"/><path fill="#fff" stroke="#fff" d="m378.9-68.04-5-2.25 3.72 2.25h-3.72 3.72l-3.72 2.25z"/></g><g class="edge"><path fill="none" stroke="#fff" d="M246.36-41H412.5v-14.62"/><path fill="#fff" stroke="#fff" d="m412.5-60.62-2.25 5 2.25-3.72v3.72-3.72l2.25 3.72z"/></g><g class="node"><a xlink:href="src/main/format.mjs" xlink:title="format.mjs"><path fill="#fff" fill-opacity=".2" stroke="#fff" d="M232.71-275.88h-46.17c-2.96 0-5.92 2.96-5.92 5.92v5.92c0 2.96 2.96 5.92 5.92 5.92h46.17c2.96 0 5.91-2.96 5.91-5.92v-5.92c0-2.96-2.95-5.92-5.91-5.92"/><text x="188.62" y="-263.32" fill="#fff" font-family="Helvetica,sans-Serif" font-size="9">format.mjs</text></a></g><g class="edge"><path fill="none" stroke="#fff" d="M238.87-260.46h26.63v91.08h5.84"/><path fill="#fff" stroke="#fff" d="m276.34-169.38-5-2.25 3.72 2.25h-3.72 3.72l-3.72 2.25z"/></g><g class="edge"><path fill="none" stroke="#fff" d="M238.99-262.79h83.51v50.42"/><path fill="#fff" stroke="#fff" d="m322.5-207.37 2.25-5-2.25 3.72v-3.72 3.72l-2.25-3.72z"/></g><g class="edge"><path fill="none" stroke="#fff" d="M238.95-270.5h36.99"/><path fill="#fff" stroke="#fff" d="m280.94-270.5-5-2.25 3.72 2.25h-3.72 3.72l-3.72 2.25z"/></g><g class="node"><a xlink:href="src/main/index.d.ts" xlink:title="index.d.ts"><path fill="#cfc" stroke="#fff" d="M73.08-122.88H29.92c-2.96 0-5.92 2.96-5.92 5.92v5.92c0 2.96 2.96 5.92 5.92 5.92h43.16c2.96 0 5.92-2.96 5.92-5.92v-5.92c0-2.96-2.96-5.92-5.92-5.92"/><text x="32" y="-110.33" fill="#fff" font-family="Helvetica,sans-Serif" font-size="9">index.d.ts</text></a></g><g class="node"><a xlink:href="src/main/index.mjs" xlink:title="index.mjs"><path fill="#fff" fill-opacity=".2" stroke="#fff" d="M73.08-219.88H29.92c-2.96 0-5.92 2.96-5.92 5.92v5.92c0 2.96 2.96 5.92 5.92 5.92h43.16c2.96 0 5.92-2.96 5.92-5.92v-5.92c0-2.96-2.96-5.92-5.92-5.92"/><text x="32" y="-207.32" fill="#fff" font-family="Helvetica,sans-Serif" font-size="9">index.mjs</text></a></g><g class="edge"><path fill="none" stroke="#fff" d="M51.5-201.82V-182h33.99"/><path fill="#fff" stroke="#fff" d="m90.49-182-5-2.25 3.72 2.25h-3.72 3.72l-3.72 2.25z"/></g><g class="edge"><path fill="none" stroke="#fff" d="M51.5-220.25V-267h122.54"/><path fill="#fff" stroke="#fff" d="m179.04-267-5-2.25 3.71 2.25h-3.71 3.71l-3.71 2.25z"/></g></g></svg>