<?xml version="1.0" encoding="UTF-8" standalone="no"?>
<!DOCTYPE svg PUBLIC "-//W3C//DTD SVG 1.1//EN"
 "http://www.w3.org/Graphics/SVG/1.1/DTD/svg11.dtd">
<!-- Generated by graphviz version 2.43.0 (0)
 -->
<!-- Title: dependency&#45;cruiser output Pages: 1 -->
<svg width="399pt" height="253pt"
 viewBox="0.00 0.00 398.56 253.00" xmlns="http://www.w3.org/2000/svg" xmlns:xlink="http://www.w3.org/1999/xlink">
<g id="graph0" class="graph" transform="scale(1 1) rotate(0) translate(4 249)">
<title>dependency&#45;cruiser output</title>
<polygon fill="dodgerblue" stroke="transparent" points="-4,4 -4,-249 394.56,-249 394.56,4 -4,4"/>
<g id="clust1" class="cluster">
<title>cluster_src</title>
<path fill="transparent" stroke="white" stroke-width="2" d="M20,-8C20,-8 370.56,-8 370.56,-8 376.56,-8 382.56,-14 382.56,-20 382.56,-20 382.56,-225 382.56,-225 382.56,-231 376.56,-237 370.56,-237 370.56,-237 20,-237 20,-237 14,-237 8,-231 8,-225 8,-225 8,-20 8,-20 8,-14 14,-8 20,-8"/>
<text text-anchor="middle" x="195.28" y="-225.8" font-family="Helvetica,sans-Serif" font-weight="bold" font-size="9.00" fill="white">src</text>
</g>
<g id="clust2" class="cluster">
<title>cluster_src/main</title>
<path fill="transparent" stroke="white" stroke-width="2" d="M28,-16C28,-16 362.56,-16 362.56,-16 368.56,-16 374.56,-22 374.56,-28 374.56,-28 374.56,-200 374.56,-200 374.56,-206 368.56,-212 362.56,-212 362.56,-212 28,-212 28,-212 22,-212 16,-206 16,-200 16,-200 16,-28 16,-28 16,-22 22,-16 28,-16"/>
<text text-anchor="middle" x="195.28" y="-200.8" font-family="Helvetica,sans-Serif" font-weight="bold" font-size="9.00" fill="white">main</text>
</g>
<g id="clust3" class="cluster">
<title>cluster_src/main/options</title>
<path fill="transparent" stroke="white" stroke-width="2" d="M219.01,-24C219.01,-24 354.56,-24 354.56,-24 360.56,-24 366.56,-30 366.56,-36 366.56,-36 366.56,-92 366.56,-92 366.56,-98 360.56,-104 354.56,-104 354.56,-104 219.01,-104 219.01,-104 213.01,-104 207.01,-98 207.01,-92 207.01,-92 207.01,-36 207.01,-36 207.01,-30 213.01,-24 219.01,-24"/>
<text text-anchor="middle" x="286.79" y="-92.8" font-family="Helvetica,sans-Serif" font-weight="bold" font-size="9.00" fill="white">options</text>
</g>
<g id="clust4" class="cluster">
<title>cluster_src/main/resolveOptions</title>
<path fill="transparent" stroke="white" stroke-width="2" d="M114,-48C114,-48 171.01,-48 171.01,-48 177.01,-48 183.01,-54 183.01,-60 183.01,-60 183.01,-87 183.01,-87 183.01,-93 177.01,-99 171.01,-99 171.01,-99 114,-99 114,-99 108,-99 102,-93 102,-87 102,-87 102,-60 102,-60 102,-54 108,-48 114,-48"/>
<text text-anchor="middle" x="142.51" y="-87.8" font-family="Helvetica,sans-Serif" font-weight="bold" font-size="9.00" fill="white">resolveOptions</text>
</g>
<g id="clust5" class="cluster">
<title>cluster_src/main/ruleSet</title>
<path fill="transparent" stroke="white" stroke-width="2" d="M114,-107C114,-107 170.01,-107 170.01,-107 176.01,-107 182.01,-113 182.01,-119 182.01,-119 182.01,-175 182.01,-175 182.01,-181 176.01,-187 170.01,-187 170.01,-187 114,-187 114,-187 108,-187 102,-181 102,-175 102,-175 102,-119 102,-119 102,-113 108,-107 114,-107"/>
<text text-anchor="middle" x="142.01" y="-175.8" font-family="Helvetica,sans-Serif" font-weight="bold" font-size="9.00" fill="white">ruleSet</text>
</g>
<!-- src/main/index.js -->
<g id="node1" class="node">
<title>src/main/index.js</title>
<g id="a_node1"><a xlink:href="src/main/index.js" xlink:title="index.js">
<path fill="#ffffff" fill-opacity="0.200000" stroke="white" d="M72.33,-73.5C72.33,-73.5 29.67,-73.5 29.67,-73.5 26.83,-73.5 24,-70.67 24,-67.83 24,-67.83 24,-62.17 24,-62.17 24,-59.33 26.83,-56.5 29.67,-56.5 29.67,-56.5 72.33,-56.5 72.33,-56.5 75.17,-56.5 78,-59.33 78,-62.17 78,-62.17 78,-67.83 78,-67.83 78,-70.67 75.17,-73.5 72.33,-73.5"/>
<text text-anchor="middle" x="51" y="-62.3" font-family="Helvetica,sans-Serif" font-size="9.00" fill="white">index.js</text>
</a>
</g>
</g>
<!-- src/main/options/normalize.js -->
<g id="node2" class="node">
<title>src/main/options/normalize.js</title>
<g id="a_node2"><a xlink:href="src/main/options/normalize.js" xlink:title="normalize.js">
<path fill="#ffffff" fill-opacity="0.200000" stroke="white" d="M273.37,-49.5C273.37,-49.5 220.67,-49.5 220.67,-49.5 217.84,-49.5 215.01,-46.67 215.01,-43.83 215.01,-43.83 215.01,-38.17 215.01,-38.17 215.01,-35.33 217.84,-32.5 220.67,-32.5 220.67,-32.5 273.37,-32.5 273.37,-32.5 276.2,-32.5 279.04,-35.33 279.04,-38.17 279.04,-38.17 279.04,-43.83 279.04,-43.83 279.04,-46.67 276.2,-49.5 273.37,-49.5"/>
<text text-anchor="middle" x="247.02" y="-38.3" font-family="Helvetica,sans-Serif" font-size="9.00" fill="white">normalize.js</text>
</a>
</g>
</g>
<!-- src/main/index.js&#45;&gt;src/main/options/normalize.js -->
<g id="edge1" class="edge">
<title>src/main/index.js&#45;&gt;src/main/options/normalize.js</title>
<path fill="none" stroke="white" d="M51.56,-56.34C51.56,-49.46 51.56,-41 51.56,-41 51.56,-41 209.75,-41 209.75,-41"/>
<polygon fill="white" stroke="white" points="214.75,-41 209.75,-43.25 212.25,-41 209.75,-41 209.75,-41 209.75,-41 212.25,-41 209.75,-38.75 214.75,-41 214.75,-41"/>
</g>
<!-- src/main/options/validate.js -->
<g id="node3" class="node">
<title>src/main/options/validate.js</title>
<g id="a_node3"><a xlink:href="src/main/options/validate.js" xlink:title="validate.js">
<path fill="#ffffff" fill-opacity="0.200000" stroke="white" d="M269.38,-78.5C269.38,-78.5 224.67,-78.5 224.67,-78.5 221.83,-78.5 219,-75.67 219,-72.83 219,-72.83 219,-67.17 219,-67.17 219,-64.33 221.83,-61.5 224.67,-61.5 224.67,-61.5 269.38,-61.5 269.38,-61.5 272.21,-61.5 275.04,-64.33 275.04,-67.17 275.04,-67.17 275.04,-72.83 275.04,-72.83 275.04,-75.67 272.21,-78.5 269.38,-78.5"/>
<text text-anchor="middle" x="247.02" y="-67.3" font-family="Helvetica,sans-Serif" font-size="9.00" fill="white">validate.js</text>
</a>
</g>
</g>
<!-- src/main/index.js&#45;&gt;src/main/options/validate.js -->
<g id="edge2" class="edge">
<title>src/main/index.js&#45;&gt;src/main/options/validate.js</title>
<path fill="none" stroke="white" d="M64.56,-73.74C64.56,-83.22 64.56,-97 64.56,-97 64.56,-97 238.56,-97 238.56,-97 238.56,-97 238.56,-83.54 238.56,-83.54"/>
<polygon fill="white" stroke="white" points="238.56,-78.54 240.81,-83.54 238.56,-81.04 238.56,-83.54 238.56,-83.54 238.56,-83.54 238.56,-81.04 236.31,-83.54 238.56,-78.54 238.56,-78.54"/>
</g>
<!-- src/main/resolveOptions/normalize.js -->
<g id="node4" class="node">
<title>src/main/resolveOptions/normalize.js</title>
<g id="a_node4"><a xlink:href="src/main/resolveOptions/normalize.js" xlink:title="normalize.js">
<path fill="#ffffff" fill-opacity="0.200000" stroke="white" d="M168.36,-73.5C168.36,-73.5 115.66,-73.5 115.66,-73.5 112.83,-73.5 109.99,-70.67 109.99,-67.83 109.99,-67.83 109.99,-62.17 109.99,-62.17 109.99,-59.33 112.83,-56.5 115.66,-56.5 115.66,-56.5 168.36,-56.5 168.36,-56.5 171.19,-56.5 174.02,-59.33 174.02,-62.17 174.02,-62.17 174.02,-67.83 174.02,-67.83 174.02,-70.67 171.19,-73.5 168.36,-73.5"/>
<text text-anchor="middle" x="142.01" y="-62.3" font-family="Helvetica,sans-Serif" font-size="9.00" fill="white">normalize.js</text>
</a>
</g>
</g>
<!-- src/main/index.js&#45;&gt;src/main/resolveOptions/normalize.js -->
<g id="edge3" class="edge">
<title>src/main/index.js&#45;&gt;src/main/resolveOptions/normalize.js</title>
<path fill="none" stroke="white" d="M78.31,-65C78.31,-65 104.92,-65 104.92,-65"/>
<polygon fill="white" stroke="white" points="109.92,-65 104.92,-67.25 107.42,-65 104.92,-65 104.92,-65 104.92,-65 107.42,-65 104.92,-62.75 109.92,-65 109.92,-65"/>
</g>
<!-- src/main/ruleSet/normalize.js -->
<g id="node5" class="node">
<title>src/main/ruleSet/normalize.js</title>
<g id="a_node5"><a xlink:href="src/main/ruleSet/normalize.js" xlink:title="normalize.js">
<path fill="#ffffff" fill-opacity="0.200000" stroke="white" d="M168.36,-161.5C168.36,-161.5 115.66,-161.5 115.66,-161.5 112.83,-161.5 109.99,-158.67 109.99,-155.83 109.99,-155.83 109.99,-150.17 109.99,-150.17 109.99,-147.33 112.83,-144.5 115.66,-144.5 115.66,-144.5 168.36,-144.5 168.36,-144.5 171.19,-144.5 174.02,-147.33 174.02,-150.17 174.02,-150.17 174.02,-155.83 174.02,-155.83 174.02,-158.67 171.19,-161.5 168.36,-161.5"/>
<text text-anchor="middle" x="142.01" y="-150.3" font-family="Helvetica,sans-Serif" font-size="9.00" fill="white">normalize.js</text>
</a>
</g>
</g>
<!-- src/main/index.js&#45;&gt;src/main/ruleSet/normalize.js -->
<g id="edge4" class="edge">
<title>src/main/index.js&#45;&gt;src/main/ruleSet/normalize.js</title>
<path fill="none" stroke="white" d="M37.56,-73.76C37.56,-96.02 37.56,-153 37.56,-153 37.56,-153 104.82,-153 104.82,-153"/>
<polygon fill="white" stroke="white" points="109.82,-153 104.82,-155.25 107.32,-153 104.82,-153 104.82,-153 104.82,-153 107.32,-153 104.82,-150.75 109.82,-153 109.82,-153"/>
</g>
<!-- src/main/ruleSet/validate.js -->
<g id="node6" class="node">
<title>src/main/ruleSet/validate.js</title>
<g id="a_node6"><a xlink:href="src/main/ruleSet/validate.js" xlink:title="validate.js">
<path fill="#ffffff" fill-opacity="0.200000" stroke="white" d="M164.36,-132.5C164.36,-132.5 119.65,-132.5 119.65,-132.5 116.82,-132.5 113.99,-129.67 113.99,-126.83 113.99,-126.83 113.99,-121.17 113.99,-121.17 113.99,-118.33 116.82,-115.5 119.65,-115.5 119.65,-115.5 164.36,-115.5 164.36,-115.5 167.19,-115.5 170.03,-118.33 170.03,-121.17 170.03,-121.17 170.03,-126.83 170.03,-126.83 170.03,-129.67 167.19,-132.5 164.36,-132.5"/>
<text text-anchor="middle" x="142.01" y="-121.3" font-family="Helvetica,sans-Serif" font-size="9.00" fill="white">validate.js</text>
</a>
</g>
</g>
<!-- src/main/index.js&#45;&gt;src/main/ruleSet/validate.js -->
<g id="edge5" class="edge">
<title>src/main/index.js&#45;&gt;src/main/ruleSet/validate.js</title>
<path fill="none" stroke="white" d="M51.56,-73.71C51.56,-90.12 51.56,-124 51.56,-124 51.56,-124 108.89,-124 108.89,-124"/>
<polygon fill="white" stroke="white" points="113.89,-124 108.89,-126.25 111.39,-124 108.89,-124 108.89,-124 108.89,-124 111.39,-124 108.89,-121.75 113.89,-124 113.89,-124"/>
</g>
<!-- src/main/options/defaults.json -->
<g id="node7" class="node">
<title>src/main/options/defaults.json</title>
<g id="a_node7"><a xlink:href="src/main/options/defaults.json" xlink:title="defaults.json">
<defs>
<linearGradient id="l_0" gradientUnits="userSpaceOnUse" x1="292.26" y1="-44" x2="358.33" y2="-44" >
<stop offset="0" style="stop-color:#ffffff;stop-opacity:0.200000;"/>
<stop offset="1" style="stop-color:#ffffff;stop-opacity:0.533333;"/>
</linearGradient>
</defs>
<path fill="url(#l_0)" stroke="white" d="M358.33,-53.72C358.33,-54.91 343.52,-55.88 325.3,-55.88 307.07,-55.88 292.26,-54.91 292.26,-53.72 292.26,-53.72 292.26,-34.28 292.26,-34.28 292.26,-33.09 307.07,-32.12 325.3,-32.12 343.52,-32.12 358.33,-33.09 358.33,-34.28 358.33,-34.28 358.33,-53.72 358.33,-53.72"/>
<path fill="none" stroke="white" d="M358.33,-53.72C358.33,-52.53 343.52,-51.56 325.3,-51.56 307.07,-51.56 292.26,-52.53 292.26,-53.72"/>
<text text-anchor="middle" x="325.3" y="-41.3" font-family="Helvetica,sans-Serif" font-size="9.00" fill="white">defaults.json</text>
</a>
</g>
</g>
<!-- src/main/options/normalize.js&#45;&gt;src/main/options/defaults.json -->
<g id="edge6" class="edge">
<title>src/main/options/normalize.js&#45;&gt;src/main/options/defaults.json</title>
<path fill="none" stroke="white" d="M279.31,-41C279.31,-41 287.07,-41 287.07,-41"/>
<polygon fill="none" stroke="white" points="292.07,-39 292.07,-43 288.07,-43 288.07,-39 292.07,-39"/>
<polyline fill="none" stroke="white" points="288.07,-41 287.07,-41 "/>
</g>
<!-- src/main/ruleSet/validate.js&#45;&gt;src/main/options/validate.js -->
<g id="edge7" class="edge">
<title>src/main/ruleSet/validate.js&#45;&gt;src/main/options/validate.js</title>
<path fill="none" stroke="white" d="M170.03,-124C203.94,-124 256.56,-124 256.56,-124 256.56,-124 256.56,-83.92 256.56,-83.92"/>
<polygon fill="white" stroke="white" points="256.56,-78.92 258.81,-83.92 256.56,-81.42 256.56,-83.92 256.56,-83.92 256.56,-83.92 256.56,-81.42 254.31,-83.92 256.56,-78.92 256.56,-78.92"/>
</g>
</g>
</svg>
