<?xml version="1.0" encoding="UTF-8" standalone="no"?>
<!DOCTYPE svg PUBLIC "-//W3C//DTD SVG 1.1//EN"
 "http://www.w3.org/Graphics/SVG/1.1/DTD/svg11.dtd">
<!-- Generated by graphviz version 2.44.0 (20200408.0750)
 -->
<!-- Title: dependency&#45;cruiser output Pages: 1 -->
<svg width="463pt" height="318pt"
 viewBox="0.00 0.00 463.00 318.00" xmlns="http://www.w3.org/2000/svg" xmlns:xlink="http://www.w3.org/1999/xlink">
<g id="graph0" class="graph" transform="scale(1 1) rotate(0) translate(4 314)">
<title>dependency&#45;cruiser output</title>
<polygon fill="dodgerblue" stroke="transparent" points="-4,4 -4,-314 459,-314 459,4 -4,4"/>
<g id="clust1" class="cluster">
<title>cluster_src</title>
<path fill="transparent" stroke="white" stroke-width="2" d="M20,-8C20,-8 435,-8 435,-8 441,-8 447,-14 447,-20 447,-20 447,-290 447,-290 447,-296 441,-302 435,-302 435,-302 20,-302 20,-302 14,-302 8,-296 8,-290 8,-290 8,-20 8,-20 8,-14 14,-8 20,-8"/>
<text text-anchor="middle" x="227.5" y="-290.8" font-family="Helvetica,sans-Serif" font-weight="bold" font-size="9.00" fill="white">src</text>
</g>
<g id="clust2" class="cluster">
<title>cluster_src/main</title>
<path fill="transparent" stroke="white" stroke-width="2" d="M28,-16C28,-16 427,-16 427,-16 433,-16 439,-22 439,-28 439,-28 439,-264 439,-264 439,-270 433,-276 427,-276 427,-276 28,-276 28,-276 22,-276 16,-270 16,-264 16,-264 16,-28 16,-28 16,-22 22,-16 28,-16"/>
<text text-anchor="middle" x="227.5" y="-264.8" font-family="Helvetica,sans-Serif" font-weight="bold" font-size="9.00" fill="white">main</text>
</g>
<g id="clust3" class="cluster">
<title>cluster_src/main/files&#45;and&#45;dirs</title>
<path fill="transparent" stroke="white" stroke-width="2" d="M114,-24C114,-24 172,-24 172,-24 178,-24 184,-30 184,-36 184,-36 184,-64 184,-64 184,-70 178,-76 172,-76 172,-76 114,-76 114,-76 108,-76 102,-70 102,-64 102,-64 102,-36 102,-36 102,-30 108,-24 114,-24"/>
<text text-anchor="middle" x="143" y="-64.8" font-family="Helvetica,sans-Serif" font-weight="bold" font-size="9.00" fill="white">files&#45;and&#45;dirs</text>
</g>
<g id="clust4" class="cluster">
<title>cluster_src/main/options</title>
<path fill="transparent" stroke="white" stroke-width="2" d="M249,-68C249,-68 419,-68 419,-68 425,-68 431,-74 431,-80 431,-80 431,-138 431,-138 431,-144 425,-150 419,-150 419,-150 249,-150 249,-150 243,-150 237,-144 237,-138 237,-138 237,-80 237,-80 237,-74 243,-68 249,-68"/>
<text text-anchor="middle" x="334" y="-138.8" font-family="Helvetica,sans-Serif" font-weight="bold" font-size="9.00" fill="white">options</text>
</g>
<g id="clust5" class="cluster">
<title>cluster_src/main/resolve&#45;options</title>
<path fill="transparent" stroke="white" stroke-width="2" d="M114,-108C114,-108 173,-108 173,-108 179,-108 185,-114 185,-120 185,-120 185,-148 185,-148 185,-154 179,-160 173,-160 173,-160 114,-160 114,-160 108,-160 102,-154 102,-148 102,-148 102,-120 102,-120 102,-114 108,-108 114,-108"/>
<text text-anchor="middle" x="143.5" y="-148.8" font-family="Helvetica,sans-Serif" font-weight="bold" font-size="9.00" fill="white">resolve&#45;options</text>
</g>
<g id="clust6" class="cluster">
<title>cluster_src/main/rule&#45;set</title>
<path fill="transparent" stroke="white" stroke-width="2" d="M114,-168C114,-168 172,-168 172,-168 178,-168 184,-174 184,-180 184,-180 184,-238 184,-238 184,-244 178,-250 172,-250 172,-250 114,-250 114,-250 108,-250 102,-244 102,-238 102,-238 102,-180 102,-180 102,-174 108,-168 114,-168"/>
<text text-anchor="middle" x="143" y="-238.8" font-family="Helvetica,sans-Serif" font-weight="bold" font-size="9.00" fill="white">rule&#45;set</text>
</g>
<g id="clust7" class="cluster">
<title>cluster_src/main/utl</title>
<path fill="transparent" stroke="white" stroke-width="2" d="M221,-198C221,-198 335,-198 335,-198 341,-198 347,-204 347,-210 347,-210 347,-238 347,-238 347,-244 341,-250 335,-250 335,-250 221,-250 221,-250 215,-250 209,-244 209,-238 209,-238 209,-210 209,-210 209,-204 215,-198 221,-198"/>
<text text-anchor="middle" x="278" y="-238.8" font-family="Helvetica,sans-Serif" font-weight="bold" font-size="9.00" fill="white">utl</text>
</g>
<!-- src/main/files&#45;and&#45;dirs/normalize.js -->
<g id="node1" class="node">
<title>src/main/files&#45;and&#45;dirs/normalize.js</title>
<g id="a_node1"><a xlink:href="src/main/files-and-dirs/normalize.js" xlink:title="normalize.js">
<path fill="#ffffff" fill-opacity="0.200000" stroke="white" d="M170,-50C170,-50 116,-50 116,-50 113,-50 110,-47 110,-44 110,-44 110,-38 110,-38 110,-35 113,-32 116,-32 116,-32 170,-32 170,-32 173,-32 176,-35 176,-38 176,-38 176,-44 176,-44 176,-47 173,-50 170,-50"/>
<text text-anchor="middle" x="143" y="-38.8" font-family="Helvetica,sans-Serif" font-size="9.00" fill="white">normalize.js</text>
</a>
</g>
</g>
<!-- src/main/index.js -->
<g id="node2" class="node">
<title>src/main/index.js</title>
<g id="a_node2"><a xlink:href="src/main/index.js" xlink:title="index.js">
<path fill="#ffffff" fill-opacity="0.200000" stroke="white" d="M72,-121C72,-121 30,-121 30,-121 27,-121 24,-118 24,-115 24,-115 24,-109 24,-109 24,-106 27,-103 30,-103 30,-103 72,-103 72,-103 75,-103 78,-106 78,-109 78,-109 78,-115 78,-115 78,-118 75,-121 72,-121"/>
<text text-anchor="middle" x="51" y="-109.8" font-family="Helvetica,sans-Serif" font-size="9.00" fill="white">index.js</text>
</a>
</g>
</g>
<!-- src/main/index.js&#45;&gt;src/main/files&#45;and&#45;dirs/normalize.js -->
<g id="edge1" class="edge">
<title>src/main/index.js&#45;&gt;src/main/files&#45;and&#45;dirs/normalize.js</title>
<path fill="none" stroke="white" d="M42,-102.72C42,-83.47 42,-41 42,-41 42,-41 104.93,-41 104.93,-41"/>
<polygon fill="white" stroke="white" points="109.93,-41 104.93,-43.25 107.43,-41 104.93,-41 104.93,-41 104.93,-41 107.43,-41 104.93,-38.75 109.93,-41 109.93,-41"/>
</g>
<!-- src/main/options/normalize.js -->
<g id="node3" class="node">
<title>src/main/options/normalize.js</title>
<g id="a_node3"><a xlink:href="src/main/options/normalize.js" xlink:title="normalize.js">
<path fill="#ffffff" fill-opacity="0.200000" stroke="white" d="M305,-94C305,-94 251,-94 251,-94 248,-94 245,-91 245,-88 245,-88 245,-82 245,-82 245,-79 248,-76 251,-76 251,-76 305,-76 305,-76 308,-76 311,-79 311,-82 311,-82 311,-88 311,-88 311,-91 308,-94 305,-94"/>
<text text-anchor="middle" x="278" y="-82.8" font-family="Helvetica,sans-Serif" font-size="9.00" fill="white">normalize.js</text>
</a>
</g>
</g>
<!-- src/main/index.js&#45;&gt;src/main/options/normalize.js -->
<g id="edge2" class="edge">
<title>src/main/index.js&#45;&gt;src/main/options/normalize.js</title>
<path fill="none" stroke="white" d="M60,-102.86C60,-95.03 60,-85 60,-85 60,-85 239.89,-85 239.89,-85"/>
<polygon fill="white" stroke="white" points="244.89,-85 239.89,-87.25 242.39,-85 239.89,-85 239.89,-85 239.89,-85 242.39,-85 239.89,-82.75 244.89,-85 244.89,-85"/>
</g>
<!-- src/main/options/validate.js -->
<g id="node4" class="node">
<title>src/main/options/validate.js</title>
<g id="a_node4"><a xlink:href="src/main/options/validate.js" xlink:title="validate.js">
<path fill="#ffffff" fill-opacity="0.200000" stroke="white" d="M301,-124C301,-124 255,-124 255,-124 252,-124 249,-121 249,-118 249,-118 249,-112 249,-112 249,-109 252,-106 255,-106 255,-106 301,-106 301,-106 304,-106 307,-109 307,-112 307,-112 307,-118 307,-118 307,-121 304,-124 301,-124"/>
<text text-anchor="middle" x="278" y="-112.8" font-family="Helvetica,sans-Serif" font-size="9.00" fill="white">validate.js</text>
</a>
</g>
</g>
<!-- src/main/index.js&#45;&gt;src/main/options/validate.js -->
<g id="edge3" class="edge">
<title>src/main/index.js&#45;&gt;src/main/options/validate.js</title>
<path fill="none" stroke="white" d="M78.38,-111C78.38,-111 243.73,-111 243.73,-111"/>
<polygon fill="white" stroke="white" points="248.73,-111 243.73,-113.25 246.23,-111 243.73,-111 243.73,-111 243.73,-111 246.23,-111 243.73,-108.75 248.73,-111 248.73,-111"/>
</g>
<!-- src/main/resolve&#45;options/normalize.js -->
<g id="node5" class="node">
<title>src/main/resolve&#45;options/normalize.js</title>
<g id="a_node5"><a xlink:href="src/main/resolve-options/normalize.js" xlink:title="normalize.js">
<path fill="#ffffff" fill-opacity="0.200000" stroke="white" d="M170,-134C170,-134 116,-134 116,-134 113,-134 110,-131 110,-128 110,-128 110,-122 110,-122 110,-119 113,-116 116,-116 116,-116 170,-116 170,-116 173,-116 176,-119 176,-122 176,-122 176,-128 176,-128 176,-131 173,-134 170,-134"/>
<text text-anchor="middle" x="143" y="-122.8" font-family="Helvetica,sans-Serif" font-size="9.00" fill="white">normalize.js</text>
</a>
</g>
</g>
<!-- src/main/index.js&#45;&gt;src/main/resolve&#45;options/normalize.js -->
<g id="edge4" class="edge">
<title>src/main/index.js&#45;&gt;src/main/resolve&#45;options/normalize.js</title>
<path fill="none" stroke="white" d="M65,-121.2C65,-124.53 65,-127.5 65,-127.5 65,-127.5 104.92,-127.5 104.92,-127.5"/>
<polygon fill="white" stroke="white" points="109.92,-127.5 104.92,-129.75 107.42,-127.5 104.92,-127.5 104.92,-127.5 104.92,-127.5 107.42,-127.5 104.92,-125.25 109.92,-127.5 109.92,-127.5"/>
</g>
<!-- src/main/rule&#45;set/normalize.js -->
<g id="node6" class="node">
<title>src/main/rule&#45;set/normalize.js</title>
<g id="a_node6"><a xlink:href="src/main/rule-set/normalize.js" xlink:title="normalize.js">
<path fill="#ffffff" fill-opacity="0.200000" stroke="white" d="M170,-224C170,-224 116,-224 116,-224 113,-224 110,-221 110,-218 110,-218 110,-212 110,-212 110,-209 113,-206 116,-206 116,-206 170,-206 170,-206 173,-206 176,-209 176,-212 176,-212 176,-218 176,-218 176,-221 173,-224 170,-224"/>
<text text-anchor="middle" x="143" y="-212.8" font-family="Helvetica,sans-Serif" font-size="9.00" fill="white">normalize.js</text>
</a>
</g>
</g>
<!-- src/main/index.js&#45;&gt;src/main/rule&#45;set/normalize.js -->
<g id="edge5" class="edge">
<title>src/main/index.js&#45;&gt;src/main/rule&#45;set/normalize.js</title>
<path fill="none" stroke="white" d="M38,-121.14C38,-146.35 38,-215 38,-215 38,-215 104.78,-215 104.78,-215"/>
<polygon fill="white" stroke="white" points="109.78,-215 104.78,-217.25 107.28,-215 104.78,-215 104.78,-215 104.78,-215 107.28,-215 104.78,-212.75 109.78,-215 109.78,-215"/>
</g>
<!-- src/main/rule&#45;set/validate.js -->
<g id="node7" class="node">
<title>src/main/rule&#45;set/validate.js</title>
<g id="a_node7"><a xlink:href="src/main/rule-set/validate.js" xlink:title="validate.js">
<path fill="#ffffff" fill-opacity="0.200000" stroke="white" d="M166,-194C166,-194 120,-194 120,-194 117,-194 114,-191 114,-188 114,-188 114,-182 114,-182 114,-179 117,-176 120,-176 120,-176 166,-176 166,-176 169,-176 172,-179 172,-182 172,-182 172,-188 172,-188 172,-191 169,-194 166,-194"/>
<text text-anchor="middle" x="143" y="-182.8" font-family="Helvetica,sans-Serif" font-size="9.00" fill="white">validate.js</text>
</a>
</g>
</g>
<!-- src/main/index.js&#45;&gt;src/main/rule&#45;set/validate.js -->
<g id="edge6" class="edge">
<title>src/main/index.js&#45;&gt;src/main/rule&#45;set/validate.js</title>
<path fill="none" stroke="white" d="M51,-121.25C51,-140.89 51,-185 51,-185 51,-185 108.89,-185 108.89,-185"/>
<polygon fill="white" stroke="white" points="113.89,-185 108.89,-187.25 111.39,-185 108.89,-185 108.89,-185 108.89,-185 111.39,-185 108.89,-182.75 113.89,-185 113.89,-185"/>
</g>
<!-- src/main/options/defaults.json -->
<g id="node8" class="node">
<title>src/main/options/defaults.json</title>
<g id="a_node8"><a xlink:href="src/main/options/defaults.json" xlink:title="defaults.json">
<defs>
<linearGradient id="l_0" gradientUnits="userSpaceOnUse" x1="355" y1="-88" x2="423" y2="-88" >
<stop offset="0" style="stop-color:#ffffff;stop-opacity:0.200000;"/>
<stop offset="1" style="stop-color:#ffffff;stop-opacity:0.533333;"/>
</linearGradient>
</defs>
<path fill="url(#l_0)" stroke="white" d="M423,-98.02C423,-99.25 407.76,-100.25 389,-100.25 370.24,-100.25 355,-99.25 355,-98.02 355,-98.02 355,-77.98 355,-77.98 355,-76.75 370.24,-75.75 389,-75.75 407.76,-75.75 423,-76.75 423,-77.98 423,-77.98 423,-98.02 423,-98.02"/>
<path fill="none" stroke="white" d="M423,-98.02C423,-96.79 407.76,-95.8 389,-95.8 370.24,-95.8 355,-96.79 355,-98.02"/>
<text text-anchor="middle" x="389" y="-85.8" font-family="Helvetica,sans-Serif" font-size="9.00" fill="white">defaults.json</text>
</a>
</g>
</g>
<!-- src/main/options/normalize.js&#45;&gt;src/main/options/defaults.json -->
<g id="edge7" class="edge">
<title>src/main/options/normalize.js&#45;&gt;src/main/options/defaults.json</title>
<path fill="none" stroke="white" d="M311,-85C311,-85 349.78,-85 349.78,-85"/>
<polygon fill="none" stroke="white" points="354.78,-83 354.78,-87 350.78,-87 350.78,-83 354.78,-83"/>
<polyline fill="none" stroke="white" points="350.78,-85 349.78,-85 "/>
</g>
<!-- src/main/utl/normalize&#45;re&#45;properties.js -->
<g id="node9" class="node">
<title>src/main/utl/normalize&#45;re&#45;properties.js</title>
<g id="a_node9"><a xlink:href="src/main/utl/normalize-re-properties.js" xlink:title="normalize&#45;re&#45;properties.js">
<path fill="#ffffff" fill-opacity="0.200000" stroke="white" d="M333,-224C333,-224 223,-224 223,-224 220,-224 217,-221 217,-218 217,-218 217,-212 217,-212 217,-209 220,-206 223,-206 223,-206 333,-206 333,-206 336,-206 339,-209 339,-212 339,-212 339,-218 339,-218 339,-221 336,-224 333,-224"/>
<text text-anchor="middle" x="278" y="-212.8" font-family="Helvetica,sans-Serif" font-size="9.00" fill="white">normalize&#45;re&#45;properties.js</text>
</a>
</g>
</g>
<!-- src/main/rule&#45;set/normalize.js&#45;&gt;src/main/utl/normalize&#45;re&#45;properties.js -->
<g id="edge8" class="edge">
<title>src/main/rule&#45;set/normalize.js&#45;&gt;src/main/utl/normalize&#45;re&#45;properties.js</title>
<path fill="none" stroke="white" d="M176.02,-215C176.02,-215 211.85,-215 211.85,-215"/>
<polygon fill="white" stroke="white" points="216.85,-215 211.85,-217.25 214.35,-215 211.85,-215 211.85,-215 211.85,-215 214.35,-215 211.85,-212.75 216.85,-215 216.85,-215"/>
</g>
<!-- src/main/rule&#45;set/validate.js&#45;&gt;src/main/options/validate.js -->
<g id="edge9" class="edge">
<title>src/main/rule&#45;set/validate.js&#45;&gt;src/main/options/validate.js</title>
<path fill="none" stroke="white" d="M172.29,-185C212,-185 278,-185 278,-185 278,-185 278,-129.15 278,-129.15"/>
<polygon fill="white" stroke="white" points="278,-124.15 280.25,-129.15 278,-126.65 278,-129.15 278,-129.15 278,-129.15 278,-126.65 275.75,-129.15 278,-124.15 278,-124.15"/>
</g>
</g>
</svg>
