<?xml version="1.0" encoding="UTF-8" standalone="no"?>
<!DOCTYPE svg PUBLIC "-//W3C//DTD SVG 1.1//EN"
 "http://www.w3.org/Graphics/SVG/1.1/DTD/svg11.dtd">
<!-- Generated by graphviz version 2.48.0 (20210717.1556)
 -->
<!-- Title: dependency&#45;cruiser output Pages: 1 -->
<svg width="459pt" height="348pt"
 viewBox="0.00 0.00 458.50 348.00" xmlns="http://www.w3.org/2000/svg" xmlns:xlink="http://www.w3.org/1999/xlink">
<g id="graph0" class="graph" transform="scale(1 1) rotate(0) translate(4 344)">
<title>dependency&#45;cruiser output</title>
<polygon fill="dodgerblue" stroke="transparent" points="-4,4 -4,-344 454.5,-344 454.5,4 -4,4"/>
<g id="clust1" class="cluster">
<title>cluster_src</title>
<path fill="transparent" stroke="white" stroke-width="2" d="M20,-8C20,-8 430.5,-8 430.5,-8 436.5,-8 442.5,-14 442.5,-20 442.5,-20 442.5,-320 442.5,-320 442.5,-326 436.5,-332 430.5,-332 430.5,-332 20,-332 20,-332 14,-332 8,-326 8,-320 8,-320 8,-20 8,-20 8,-14 14,-8 20,-8"/>
<text text-anchor="middle" x="225.25" y="-320.8" font-family="Helvetica,sans-Serif" font-weight="bold" font-size="9.00" fill="white">src</text>
</g>
<g id="clust2" class="cluster">
<title>cluster_src/main</title>
<path fill="transparent" stroke="white" stroke-width="2" d="M28,-16C28,-16 422.5,-16 422.5,-16 428.5,-16 434.5,-22 434.5,-28 434.5,-28 434.5,-294 434.5,-294 434.5,-300 428.5,-306 422.5,-306 422.5,-306 28,-306 28,-306 22,-306 16,-300 16,-294 16,-294 16,-28 16,-28 16,-22 22,-16 28,-16"/>
<text text-anchor="middle" x="225.25" y="-294.8" font-family="Helvetica,sans-Serif" font-weight="bold" font-size="9.00" fill="white">main</text>
</g>
<g id="clust3" class="cluster">
<title>cluster_src/main/files&#45;and&#45;dirs</title>
<path fill="transparent" stroke="white" stroke-width="2" d="M115.5,-24C115.5,-24 172.5,-24 172.5,-24 178.5,-24 184.5,-30 184.5,-36 184.5,-36 184.5,-64 184.5,-64 184.5,-70 178.5,-76 172.5,-76 172.5,-76 115.5,-76 115.5,-76 109.5,-76 103.5,-70 103.5,-64 103.5,-64 103.5,-36 103.5,-36 103.5,-30 109.5,-24 115.5,-24"/>
<text text-anchor="middle" x="144" y="-64.8" font-family="Helvetica,sans-Serif" font-weight="bold" font-size="9.00" fill="white">files&#45;and&#45;dirs</text>
</g>
<g id="clust4" class="cluster">
<title>cluster_src/main/options</title>
<path fill="transparent" stroke="white" stroke-width="2" d="M222.5,-77C222.5,-77 383.5,-77 383.5,-77 389.5,-77 395.5,-83 395.5,-89 395.5,-89 395.5,-147 395.5,-147 395.5,-153 389.5,-159 383.5,-159 383.5,-159 222.5,-159 222.5,-159 216.5,-159 210.5,-153 210.5,-147 210.5,-147 210.5,-89 210.5,-89 210.5,-83 216.5,-77 222.5,-77"/>
<text text-anchor="middle" x="303" y="-147.8" font-family="Helvetica,sans-Serif" font-weight="bold" font-size="9.00" fill="white">options</text>
</g>
<g id="clust5" class="cluster">
<title>cluster_src/main/resolve&#45;options</title>
<path fill="transparent" stroke="white" stroke-width="2" d="M114.5,-138C114.5,-138 174.5,-138 174.5,-138 180.5,-138 186.5,-144 186.5,-150 186.5,-150 186.5,-178 186.5,-178 186.5,-184 180.5,-190 174.5,-190 174.5,-190 114.5,-190 114.5,-190 108.5,-190 102.5,-184 102.5,-178 102.5,-178 102.5,-150 102.5,-150 102.5,-144 108.5,-138 114.5,-138"/>
<text text-anchor="middle" x="144.5" y="-178.8" font-family="Helvetica,sans-Serif" font-weight="bold" font-size="9.00" fill="white">resolve&#45;options</text>
</g>
<g id="clust6" class="cluster">
<title>cluster_src/main/rule&#45;set</title>
<path fill="transparent" stroke="white" stroke-width="2" d="M115.5,-198C115.5,-198 172.5,-198 172.5,-198 178.5,-198 184.5,-204 184.5,-210 184.5,-210 184.5,-268 184.5,-268 184.5,-274 178.5,-280 172.5,-280 172.5,-280 115.5,-280 115.5,-280 109.5,-280 103.5,-274 103.5,-268 103.5,-268 103.5,-210 103.5,-210 103.5,-204 109.5,-198 115.5,-198"/>
<text text-anchor="middle" x="144" y="-268.8" font-family="Helvetica,sans-Serif" font-weight="bold" font-size="9.00" fill="white">rule&#45;set</text>
</g>
<g id="clust7" class="cluster">
<title>cluster_src/main/utl</title>
<path fill="transparent" stroke="white" stroke-width="2" d="M303.5,-202C303.5,-202 414.5,-202 414.5,-202 420.5,-202 426.5,-208 426.5,-214 426.5,-214 426.5,-242 426.5,-242 426.5,-248 420.5,-254 414.5,-254 414.5,-254 303.5,-254 303.5,-254 297.5,-254 291.5,-248 291.5,-242 291.5,-242 291.5,-214 291.5,-214 291.5,-208 297.5,-202 303.5,-202"/>
<text text-anchor="middle" x="359" y="-242.8" font-family="Helvetica,sans-Serif" font-weight="bold" font-size="9.00" fill="white">utl</text>
</g>
<!-- src/main/files&#45;and&#45;dirs/normalize.js -->
<g id="node1" class="node">
<title>src/main/files&#45;and&#45;dirs/normalize.js</title>
<g id="a_node1"><a xlink:href="src/main/files-and-dirs/normalize.js" xlink:title="normalize.js">
<path fill="#ffffff" fill-opacity="0.200000" stroke="white" d="M170.5,-50C170.5,-50 117.5,-50 117.5,-50 114.5,-50 111.5,-47 111.5,-44 111.5,-44 111.5,-38 111.5,-38 111.5,-35 114.5,-32 117.5,-32 117.5,-32 170.5,-32 170.5,-32 173.5,-32 176.5,-35 176.5,-38 176.5,-38 176.5,-44 176.5,-44 176.5,-47 173.5,-50 170.5,-50"/>
<text text-anchor="middle" x="144" y="-38.8" font-family="Helvetica,sans-Serif" font-size="9.00" fill="white">normalize.js</text>
</a>
</g>
</g>
<!-- src/main/index.js -->
<g id="node2" class="node">
<title>src/main/index.js</title>
<g id="a_node2"><a xlink:href="src/main/index.js" xlink:title="index.js">
<path fill="#ffffff" fill-opacity="0.200000" stroke="white" d="M72,-130C72,-130 30,-130 30,-130 27,-130 24,-127 24,-124 24,-124 24,-118 24,-118 24,-115 27,-112 30,-112 30,-112 72,-112 72,-112 75,-112 78,-115 78,-118 78,-118 78,-124 78,-124 78,-127 75,-130 72,-130"/>
<text text-anchor="middle" x="51" y="-118.8" font-family="Helvetica,sans-Serif" font-size="9.00" fill="white">index.js</text>
</a>
</g>
</g>
<!-- src/main/index.js&#45;&gt;src/main/files&#45;and&#45;dirs/normalize.js -->
<g id="edge1" class="edge">
<title>src/main/index.js&#45;&gt;src/main/files&#45;and&#45;dirs/normalize.js</title>
<path fill="none" stroke="white" d="M37.5,-111.82C37.5,-90.81 37.5,-41 37.5,-41 37.5,-41 106.47,-41 106.47,-41"/>
<polygon fill="white" stroke="white" points="111.47,-41 106.47,-43.25 108.97,-41 106.47,-41 106.47,-41 106.47,-41 108.97,-41 106.47,-38.75 111.47,-41 111.47,-41"/>
</g>
<!-- src/main/options/normalize.js -->
<g id="node3" class="node">
<title>src/main/options/normalize.js</title>
<g id="a_node3"><a xlink:href="src/main/options/normalize.js" xlink:title="normalize.js">
<path fill="#ffffff" fill-opacity="0.200000" stroke="white" d="M277.5,-103C277.5,-103 224.5,-103 224.5,-103 221.5,-103 218.5,-100 218.5,-97 218.5,-97 218.5,-91 218.5,-91 218.5,-88 221.5,-85 224.5,-85 224.5,-85 277.5,-85 277.5,-85 280.5,-85 283.5,-88 283.5,-91 283.5,-91 283.5,-97 283.5,-97 283.5,-100 280.5,-103 277.5,-103"/>
<text text-anchor="middle" x="251" y="-91.8" font-family="Helvetica,sans-Serif" font-size="9.00" fill="white">normalize.js</text>
</a>
</g>
</g>
<!-- src/main/index.js&#45;&gt;src/main/options/normalize.js -->
<g id="edge2" class="edge">
<title>src/main/index.js&#45;&gt;src/main/options/normalize.js</title>
<path fill="none" stroke="white" d="M51.5,-111.86C51.5,-104.03 51.5,-94 51.5,-94 51.5,-94 213.06,-94 213.06,-94"/>
<polygon fill="white" stroke="white" points="218.06,-94 213.06,-96.25 215.56,-94 213.06,-94 213.06,-94 213.06,-94 215.56,-94 213.06,-91.75 218.06,-94 218.06,-94"/>
</g>
<!-- src/main/options/validate.js -->
<g id="node4" class="node">
<title>src/main/options/validate.js</title>
<g id="a_node4"><a xlink:href="src/main/options/validate.js" xlink:title="validate.js">
<path fill="#ffffff" fill-opacity="0.200000" stroke="white" d="M273.5,-133C273.5,-133 228.5,-133 228.5,-133 225.5,-133 222.5,-130 222.5,-127 222.5,-127 222.5,-121 222.5,-121 222.5,-118 225.5,-115 228.5,-115 228.5,-115 273.5,-115 273.5,-115 276.5,-115 279.5,-118 279.5,-121 279.5,-121 279.5,-127 279.5,-127 279.5,-130 276.5,-133 273.5,-133"/>
<text text-anchor="middle" x="251" y="-121.8" font-family="Helvetica,sans-Serif" font-size="9.00" fill="white">validate.js</text>
</a>
</g>
</g>
<!-- src/main/index.js&#45;&gt;src/main/options/validate.js -->
<g id="edge3" class="edge">
<title>src/main/index.js&#45;&gt;src/main/options/validate.js</title>
<path fill="none" stroke="white" d="M64.5,-111.77C64.5,-109.4 64.5,-107.5 64.5,-107.5 64.5,-107.5 251.5,-107.5 251.5,-107.5 251.5,-107.5 251.5,-109.98 251.5,-109.98"/>
<polygon fill="white" stroke="white" points="251.5,-114.98 249.25,-109.98 251.5,-112.48 251.5,-109.98 251.5,-109.98 251.5,-109.98 251.5,-112.48 253.75,-109.98 251.5,-114.98 251.5,-114.98"/>
</g>
<!-- src/main/report&#45;wrap.js -->
<g id="node5" class="node">
<title>src/main/report&#45;wrap.js</title>
<g id="a_node5"><a xlink:href="src/main/report-wrap.js" xlink:title="report&#45;wrap.js">
<path fill="#ffffff" fill-opacity="0.200000" stroke="white" d="M174,-130C174,-130 114,-130 114,-130 111,-130 108,-127 108,-124 108,-124 108,-118 108,-118 108,-115 111,-112 114,-112 114,-112 174,-112 174,-112 177,-112 180,-115 180,-118 180,-118 180,-124 180,-124 180,-127 177,-130 174,-130"/>
<text text-anchor="middle" x="144" y="-118.8" font-family="Helvetica,sans-Serif" font-size="9.00" fill="white">report&#45;wrap.js</text>
</a>
</g>
</g>
<!-- src/main/index.js&#45;&gt;src/main/report&#45;wrap.js -->
<g id="edge4" class="edge">
<title>src/main/index.js&#45;&gt;src/main/report&#45;wrap.js</title>
<path fill="none" stroke="white" d="M78.4,-121C78.4,-121 102.83,-121 102.83,-121"/>
<polygon fill="white" stroke="white" points="107.83,-121 102.83,-123.25 105.33,-121 102.83,-121 102.83,-121 102.83,-121 105.33,-121 102.83,-118.75 107.83,-121 107.83,-121"/>
</g>
<!-- src/main/resolve&#45;options/normalize.js -->
<g id="node6" class="node">
<title>src/main/resolve&#45;options/normalize.js</title>
<g id="a_node6"><a xlink:href="src/main/resolve-options/normalize.js" xlink:title="normalize.js">
<path fill="#ffffff" fill-opacity="0.200000" stroke="white" d="M170.5,-164C170.5,-164 117.5,-164 117.5,-164 114.5,-164 111.5,-161 111.5,-158 111.5,-158 111.5,-152 111.5,-152 111.5,-149 114.5,-146 117.5,-146 117.5,-146 170.5,-146 170.5,-146 173.5,-146 176.5,-149 176.5,-152 176.5,-152 176.5,-158 176.5,-158 176.5,-161 173.5,-164 170.5,-164"/>
<text text-anchor="middle" x="144" y="-152.8" font-family="Helvetica,sans-Serif" font-size="9.00" fill="white">normalize.js</text>
</a>
</g>
</g>
<!-- src/main/index.js&#45;&gt;src/main/resolve&#45;options/normalize.js -->
<g id="edge5" class="edge">
<title>src/main/index.js&#45;&gt;src/main/resolve&#45;options/normalize.js</title>
<path fill="none" stroke="white" d="M64.5,-130.29C64.5,-140.36 64.5,-155 64.5,-155 64.5,-155 106.21,-155 106.21,-155"/>
<polygon fill="white" stroke="white" points="111.21,-155 106.21,-157.25 108.71,-155 106.21,-155 106.21,-155 106.21,-155 108.71,-155 106.21,-152.75 111.21,-155 111.21,-155"/>
</g>
<!-- src/main/rule&#45;set/normalize.js -->
<g id="node7" class="node">
<title>src/main/rule&#45;set/normalize.js</title>
<g id="a_node7"><a xlink:href="src/main/rule-set/normalize.js" xlink:title="normalize.js">
<path fill="#ffffff" fill-opacity="0.200000" stroke="white" d="M170.5,-254C170.5,-254 117.5,-254 117.5,-254 114.5,-254 111.5,-251 111.5,-248 111.5,-248 111.5,-242 111.5,-242 111.5,-239 114.5,-236 117.5,-236 117.5,-236 170.5,-236 170.5,-236 173.5,-236 176.5,-239 176.5,-242 176.5,-242 176.5,-248 176.5,-248 176.5,-251 173.5,-254 170.5,-254"/>
<text text-anchor="middle" x="144" y="-242.8" font-family="Helvetica,sans-Serif" font-size="9.00" fill="white">normalize.js</text>
</a>
</g>
</g>
<!-- src/main/index.js&#45;&gt;src/main/rule&#45;set/normalize.js -->
<g id="edge6" class="edge">
<title>src/main/index.js&#45;&gt;src/main/rule&#45;set/normalize.js</title>
<path fill="none" stroke="white" d="M37.5,-130.32C37.5,-159.16 37.5,-245 37.5,-245 37.5,-245 106.47,-245 106.47,-245"/>
<polygon fill="white" stroke="white" points="111.47,-245 106.47,-247.25 108.97,-245 106.47,-245 106.47,-245 106.47,-245 108.97,-245 106.47,-242.75 111.47,-245 111.47,-245"/>
</g>
<!-- src/main/rule&#45;set/validate.js -->
<g id="node8" class="node">
<title>src/main/rule&#45;set/validate.js</title>
<g id="a_node8"><a xlink:href="src/main/rule-set/validate.js" xlink:title="validate.js">
<path fill="#ffffff" fill-opacity="0.200000" stroke="white" d="M166.5,-224C166.5,-224 121.5,-224 121.5,-224 118.5,-224 115.5,-221 115.5,-218 115.5,-218 115.5,-212 115.5,-212 115.5,-209 118.5,-206 121.5,-206 121.5,-206 166.5,-206 166.5,-206 169.5,-206 172.5,-209 172.5,-212 172.5,-212 172.5,-218 172.5,-218 172.5,-221 169.5,-224 166.5,-224"/>
<text text-anchor="middle" x="144" y="-212.8" font-family="Helvetica,sans-Serif" font-size="9.00" fill="white">validate.js</text>
</a>
</g>
</g>
<!-- src/main/index.js&#45;&gt;src/main/rule&#45;set/validate.js -->
<g id="edge7" class="edge">
<title>src/main/index.js&#45;&gt;src/main/rule&#45;set/validate.js</title>
<path fill="none" stroke="white" d="M51.5,-130.01C51.5,-153.54 51.5,-215 51.5,-215 51.5,-215 110.49,-215 110.49,-215"/>
<polygon fill="white" stroke="white" points="115.49,-215 110.49,-217.25 112.99,-215 110.49,-215 110.49,-215 110.49,-215 112.99,-215 110.49,-212.75 115.49,-215 115.49,-215"/>
</g>
<!-- src/main/options/defaults.js -->
<g id="node9" class="node">
<title>src/main/options/defaults.js</title>
<g id="a_node9"><a xlink:href="src/main/options/defaults.js" xlink:title="defaults.js">
<path fill="#ffffff" fill-opacity="0.200000" stroke="white" d="M381.5,-103C381.5,-103 336.5,-103 336.5,-103 333.5,-103 330.5,-100 330.5,-97 330.5,-97 330.5,-91 330.5,-91 330.5,-88 333.5,-85 336.5,-85 336.5,-85 381.5,-85 381.5,-85 384.5,-85 387.5,-88 387.5,-91 387.5,-91 387.5,-97 387.5,-97 387.5,-100 384.5,-103 381.5,-103"/>
<text text-anchor="middle" x="359" y="-91.8" font-family="Helvetica,sans-Serif" font-size="9.00" fill="white">defaults.js</text>
</a>
</g>
</g>
<!-- src/main/options/normalize.js&#45;&gt;src/main/options/defaults.js -->
<g id="edge9" class="edge">
<title>src/main/options/normalize.js&#45;&gt;src/main/options/defaults.js</title>
<path fill="none" stroke="white" d="M283.7,-91C283.7,-91 325.44,-91 325.44,-91"/>
<polygon fill="white" stroke="white" points="330.44,-91 325.44,-93.25 327.94,-91 325.44,-91 325.44,-91 325.44,-91 327.94,-91 325.44,-88.75 330.44,-91 330.44,-91"/>
</g>
<!-- src/main/utl/normalize&#45;re&#45;properties.js -->
<g id="node10" class="node">
<title>src/main/utl/normalize&#45;re&#45;properties.js</title>
<g id="a_node10"><a xlink:href="src/main/utl/normalize-re-properties.js" xlink:title="normalize&#45;re&#45;properties.js">
<path fill="#ffffff" fill-opacity="0.200000" stroke="white" d="M412.5,-228C412.5,-228 305.5,-228 305.5,-228 302.5,-228 299.5,-225 299.5,-222 299.5,-222 299.5,-216 299.5,-216 299.5,-213 302.5,-210 305.5,-210 305.5,-210 412.5,-210 412.5,-210 415.5,-210 418.5,-213 418.5,-216 418.5,-216 418.5,-222 418.5,-222 418.5,-225 415.5,-228 412.5,-228"/>
<text text-anchor="middle" x="359" y="-216.8" font-family="Helvetica,sans-Serif" font-size="9.00" fill="white">normalize&#45;re&#45;properties.js</text>
</a>
</g>
</g>
<!-- src/main/options/normalize.js&#45;&gt;src/main/utl/normalize&#45;re&#45;properties.js -->
<g id="edge8" class="edge">
<title>src/main/options/normalize.js&#45;&gt;src/main/utl/normalize&#45;re&#45;properties.js</title>
<path fill="none" stroke="white" d="M283.63,-97C299.63,-97 315.5,-97 315.5,-97 315.5,-97 315.5,-204.83 315.5,-204.83"/>
<polygon fill="white" stroke="white" points="315.5,-209.83 313.25,-204.83 315.5,-207.33 315.5,-204.83 315.5,-204.83 315.5,-204.83 315.5,-207.33 317.75,-204.83 315.5,-209.83 315.5,-209.83"/>
</g>
<!-- src/main/rule&#45;set/normalize.js&#45;&gt;src/main/utl/normalize&#45;re&#45;properties.js -->
<g id="edge10" class="edge">
<title>src/main/rule&#45;set/normalize.js&#45;&gt;src/main/utl/normalize&#45;re&#45;properties.js</title>
<path fill="none" stroke="white" d="M176.73,-245C237.02,-245 359.5,-245 359.5,-245 359.5,-245 359.5,-233.09 359.5,-233.09"/>
<polygon fill="white" stroke="white" points="359.5,-228.09 361.75,-233.09 359.5,-230.59 359.5,-233.09 359.5,-233.09 359.5,-233.09 359.5,-230.59 357.25,-233.09 359.5,-228.09 359.5,-228.09"/>
</g>
<!-- src/main/rule&#45;set/validate.js&#45;&gt;src/main/options/validate.js -->
<g id="edge11" class="edge">
<title>src/main/rule&#45;set/validate.js&#45;&gt;src/main/options/validate.js</title>
<path fill="none" stroke="white" d="M172.53,-217C204.37,-217 251.5,-217 251.5,-217 251.5,-217 251.5,-138.26 251.5,-138.26"/>
<polygon fill="white" stroke="white" points="251.5,-133.26 253.75,-138.26 251.5,-135.76 251.5,-138.26 251.5,-138.26 251.5,-138.26 251.5,-135.76 249.25,-138.26 251.5,-133.26 251.5,-133.26"/>
</g>
</g>
</svg>
