<?xml version="1.0" encoding="UTF-8" standalone="no"?>
<!DOCTYPE svg PUBLIC "-//W3C//DTD SVG 1.1//EN"
 "http://www.w3.org/Graphics/SVG/1.1/DTD/svg11.dtd">
<!-- Generated by graphviz version 9.0.0 (20230911.1827)
 -->
<!-- Title: dependency&#45;cruiser output Pages: 1 -->
<svg width="485pt" height="358pt"
 viewBox="0.00 0.00 484.50 358.00" xmlns="http://www.w3.org/2000/svg" xmlns:xlink="http://www.w3.org/1999/xlink">
<g id="graph0" class="graph" transform="scale(1 1) rotate(0) translate(4 354)">
<title>dependency&#45;cruiser output</title>
<polygon fill="dodgerblue" stroke="none" points="-4,4 -4,-354 480.5,-354 480.5,4 -4,4"/>
<g id="clust1" class="cluster">
<title>cluster_src</title>
<path fill="none" stroke="white" stroke-width="2" d="M20,-8C20,-8 456.5,-8 456.5,-8 462.5,-8 468.5,-14 468.5,-20 468.5,-20 468.5,-330 468.5,-330 468.5,-336 462.5,-342 456.5,-342 456.5,-342 20,-342 20,-342 14,-342 8,-336 8,-330 8,-330 8,-20 8,-20 8,-14 14,-8 20,-8"/>
<text text-anchor="middle" x="238.25" y="-329.45" font-family="Helvetica,sans-Serif" font-weight="bold" font-size="9.00" fill="white">src</text>
</g>
<g id="clust2" class="cluster">
<title>cluster_src/main</title>
<path fill="none" stroke="white" stroke-width="2" d="M28,-16C28,-16 448.5,-16 448.5,-16 454.5,-16 460.5,-22 460.5,-28 460.5,-28 460.5,-304 460.5,-304 460.5,-310 454.5,-316 448.5,-316 448.5,-316 28,-316 28,-316 22,-316 16,-310 16,-304 16,-304 16,-28 16,-28 16,-22 22,-16 28,-16"/>
<text text-anchor="middle" x="238.25" y="-303.45" font-family="Helvetica,sans-Serif" font-weight="bold" font-size="9.00" fill="white">main</text>
</g>
<g id="clust3" class="cluster">
<title>cluster_src/main/files&#45;and&#45;dirs</title>
<path fill="none" stroke="white" stroke-width="2" d="M177.12,-114C177.12,-114 242.12,-114 242.12,-114 248.12,-114 254.12,-120 254.12,-126 254.12,-126 254.12,-154 254.12,-154 254.12,-160 248.12,-166 242.12,-166 242.12,-166 177.12,-166 177.12,-166 171.12,-166 165.12,-160 165.12,-154 165.12,-154 165.12,-126 165.12,-126 165.12,-120 171.12,-114 177.12,-114"/>
<text text-anchor="middle" x="209.62" y="-153.45" font-family="Helvetica,sans-Serif" font-weight="bold" font-size="9.00" fill="white">files&#45;and&#45;dirs</text>
</g>
<g id="clust4" class="cluster">
<title>cluster_src/main/options</title>
<path fill="none" stroke="white" stroke-width="2" d="M282,-150C282,-150 440.5,-150 440.5,-150 446.5,-150 452.5,-156 452.5,-162 452.5,-162 452.5,-220 452.5,-220 452.5,-226 446.5,-232 440.5,-232 440.5,-232 282,-232 282,-232 276,-232 270,-226 270,-220 270,-220 270,-162 270,-162 270,-156 276,-150 282,-150"/>
<text text-anchor="middle" x="361.25" y="-219.45" font-family="Helvetica,sans-Serif" font-weight="bold" font-size="9.00" fill="white">options</text>
</g>
<g id="clust5" class="cluster">
<title>cluster_src/main/resolve&#45;options</title>
<path fill="none" stroke="white" stroke-width="2" d="M177.12,-198C177.12,-198 242.12,-198 242.12,-198 248.12,-198 254.12,-204 254.12,-210 254.12,-210 254.12,-238 254.12,-238 254.12,-244 248.12,-250 242.12,-250 242.12,-250 177.12,-250 177.12,-250 171.12,-250 165.12,-244 165.12,-238 165.12,-238 165.12,-210 165.12,-210 165.12,-204 171.12,-198 177.12,-198"/>
<text text-anchor="middle" x="209.62" y="-237.45" font-family="Helvetica,sans-Serif" font-weight="bold" font-size="9.00" fill="white">resolve&#45;options</text>
</g>
<g id="clust6" class="cluster">
<title>cluster_src/main/rule&#45;set</title>
<path fill="none" stroke="white" stroke-width="2" d="M169.25,-24C169.25,-24 250,-24 250,-24 256,-24 262,-30 262,-36 262,-36 262,-94 262,-94 262,-100 256,-106 250,-106 250,-106 169.25,-106 169.25,-106 163.25,-106 157.25,-100 157.25,-94 157.25,-94 157.25,-36 157.25,-36 157.25,-30 163.25,-24 169.25,-24"/>
<text text-anchor="middle" x="209.62" y="-93.45" font-family="Helvetica,sans-Serif" font-weight="bold" font-size="9.00" fill="white">rule&#45;set</text>
</g>
<!-- src/main/cruise.mjs -->
<g id="node1" class="node">
<title>src/main/cruise.mjs</title>
<g id="a_node1"><a xlink:href="src/main/cruise.mjs" xlink:title="cruise.mjs">
<path fill="#ffffff" fill-opacity="0.200000" stroke="white" d="M143.33,-190.88C143.33,-190.88 97.92,-190.88 97.92,-190.88 94.96,-190.88 92,-187.92 92,-184.96 92,-184.96 92,-179.04 92,-179.04 92,-176.08 94.96,-173.12 97.92,-173.12 97.92,-173.12 143.33,-173.12 143.33,-173.12 146.29,-173.12 149.25,-176.08 149.25,-179.04 149.25,-179.04 149.25,-184.96 149.25,-184.96 149.25,-187.92 146.29,-190.88 143.33,-190.88"/>
<text text-anchor="start" x="100" y="-178.32" font-family="Helvetica,sans-Serif" font-size="9.00" fill="white">cruise.mjs</text>
</a>
</g>
</g>
<!-- src/main/files&#45;and&#45;dirs/normalize.mjs -->
<g id="node2" class="node">
<title>src/main/files&#45;and&#45;dirs/normalize.mjs</title>
<g id="a_node2"><a xlink:href="src/main/files-and-dirs/normalize.mjs" xlink:title="normalize.mjs">
<path fill="#ffffff" fill-opacity="0.200000" stroke="white" d="M240.21,-139.88C240.21,-139.88 179.04,-139.88 179.04,-139.88 176.08,-139.88 173.12,-136.92 173.12,-133.96 173.12,-133.96 173.12,-128.04 173.12,-128.04 173.12,-125.08 176.08,-122.12 179.04,-122.12 179.04,-122.12 240.21,-122.12 240.21,-122.12 243.17,-122.12 246.12,-125.08 246.12,-128.04 246.12,-128.04 246.12,-133.96 246.12,-133.96 246.12,-136.92 243.17,-139.88 240.21,-139.88"/>
<text text-anchor="start" x="181.12" y="-127.33" font-family="Helvetica,sans-Serif" font-size="9.00" fill="white">normalize.mjs</text>
</a>
</g>
</g>
<!-- src/main/cruise.mjs&#45;&gt;src/main/files&#45;and&#45;dirs/normalize.mjs -->
<g id="edge1" class="edge">
<title>src/main/cruise.mjs&#45;&gt;src/main/files&#45;and&#45;dirs/normalize.mjs</title>
<path fill="none" stroke="white" stroke-dasharray="5,2" d="M135.5,-172.65C135.5,-157.92 135.5,-131 135.5,-131 135.5,-131 166.78,-131 166.78,-131"/>
<polygon fill="white" stroke="white" points="171.78,-131 166.78,-133.25 170.5,-131 166.78,-131 166.78,-131 166.78,-131 170.5,-131 166.78,-128.75 171.78,-131"/>
</g>
<!-- src/main/options/assert&#45;validity.mjs -->
<g id="node3" class="node">
<title>src/main/options/assert&#45;validity.mjs</title>
<g id="a_node3"><a xlink:href="src/main/options/assert-validity.mjs" xlink:title="assert&#45;validity.mjs">
<path fill="#ffffff" fill-opacity="0.200000" stroke="white" d="M360.83,-175.88C360.83,-175.88 283.92,-175.88 283.92,-175.88 280.96,-175.88 278,-172.92 278,-169.96 278,-169.96 278,-164.04 278,-164.04 278,-161.08 280.96,-158.12 283.92,-158.12 283.92,-158.12 360.83,-158.12 360.83,-158.12 363.79,-158.12 366.75,-161.08 366.75,-164.04 366.75,-164.04 366.75,-169.96 366.75,-169.96 366.75,-172.92 363.79,-175.88 360.83,-175.88"/>
<text text-anchor="start" x="286" y="-163.32" font-family="Helvetica,sans-Serif" font-size="9.00" fill="white">assert&#45;validity.mjs</text>
</a>
</g>
</g>
<!-- src/main/cruise.mjs&#45;&gt;src/main/options/assert&#45;validity.mjs -->
<g id="edge2" class="edge">
<title>src/main/cruise.mjs&#45;&gt;src/main/options/assert&#45;validity.mjs</title>
<path fill="none" stroke="white" d="M106.5,-172.66C106.5,-168.99 106.5,-165.62 106.5,-165.62 106.5,-165.62 271.43,-165.62 271.43,-165.62"/>
<polygon fill="white" stroke="white" points="276.43,-165.63 271.43,-167.88 275.15,-165.63 271.43,-165.63 271.43,-165.63 271.43,-165.63 275.15,-165.63 271.43,-163.38 276.43,-165.63"/>
</g>
<!-- src/main/options/normalize.mjs -->
<g id="node4" class="node">
<title>src/main/options/normalize.mjs</title>
<g id="a_node4"><a xlink:href="src/main/options/normalize.mjs" xlink:title="normalize.mjs">
<path fill="#ffffff" fill-opacity="0.200000" stroke="white" d="M352.96,-205.88C352.96,-205.88 291.79,-205.88 291.79,-205.88 288.83,-205.88 285.88,-202.92 285.88,-199.96 285.88,-199.96 285.88,-194.04 285.88,-194.04 285.88,-191.08 288.83,-188.12 291.79,-188.12 291.79,-188.12 352.96,-188.12 352.96,-188.12 355.92,-188.12 358.88,-191.08 358.88,-194.04 358.88,-194.04 358.88,-199.96 358.88,-199.96 358.88,-202.92 355.92,-205.88 352.96,-205.88"/>
<text text-anchor="start" x="293.88" y="-193.32" font-family="Helvetica,sans-Serif" font-size="9.00" fill="white">normalize.mjs</text>
</a>
</g>
</g>
<!-- src/main/cruise.mjs&#45;&gt;src/main/options/normalize.mjs -->
<g id="edge3" class="edge">
<title>src/main/cruise.mjs&#45;&gt;src/main/options/normalize.mjs</title>
<path fill="none" stroke="white" d="M135.5,-191.27C135.5,-193.66 135.5,-195.56 135.5,-195.56 135.5,-195.56 279.24,-195.56 279.24,-195.56"/>
<polygon fill="white" stroke="white" points="284.24,-195.56 279.24,-197.81 282.95,-195.56 279.24,-195.56 279.24,-195.56 279.24,-195.56 282.95,-195.56 279.24,-193.31 284.24,-195.56"/>
</g>
<!-- src/main/report&#45;wrap.mjs -->
<g id="node5" class="node">
<title>src/main/report&#45;wrap.mjs</title>
<g id="a_node5"><a xlink:href="src/main/report-wrap.mjs" xlink:title="report&#45;wrap.mjs">
<path fill="#ffffff" fill-opacity="0.200000" stroke="white" d="M356.33,-282.88C356.33,-282.88 288.42,-282.88 288.42,-282.88 285.46,-282.88 282.5,-279.92 282.5,-276.96 282.5,-276.96 282.5,-271.04 282.5,-271.04 282.5,-268.08 285.46,-265.12 288.42,-265.12 288.42,-265.12 356.33,-265.12 356.33,-265.12 359.29,-265.12 362.25,-268.08 362.25,-271.04 362.25,-271.04 362.25,-276.96 362.25,-276.96 362.25,-279.92 359.29,-282.88 356.33,-282.88"/>
<text text-anchor="start" x="290.5" y="-270.32" font-family="Helvetica,sans-Serif" font-size="9.00" fill="white">report&#45;wrap.mjs</text>
</a>
</g>
</g>
<!-- src/main/cruise.mjs&#45;&gt;src/main/report&#45;wrap.mjs -->
<g id="edge4" class="edge">
<title>src/main/cruise.mjs&#45;&gt;src/main/report&#45;wrap.mjs</title>
<path fill="none" stroke="white" d="M149.68,-184.04C191.19,-184.04 262.5,-184.04 262.5,-184.04 262.5,-184.04 262.5,-268.71 262.5,-268.71 262.5,-268.71 275.89,-268.71 275.89,-268.71"/>
<polygon fill="white" stroke="white" points="280.89,-268.71 275.89,-270.96 279.61,-268.71 275.89,-268.71 275.89,-268.71 275.89,-268.71 279.61,-268.71 275.89,-266.46 280.89,-268.71"/>
</g>
<!-- src/main/resolve&#45;options/normalize.mjs -->
<g id="node6" class="node">
<title>src/main/resolve&#45;options/normalize.mjs</title>
<g id="a_node6"><a xlink:href="src/main/resolve-options/normalize.mjs" xlink:title="normalize.mjs">
<path fill="#ffffff" fill-opacity="0.200000" stroke="white" d="M240.21,-223.88C240.21,-223.88 179.04,-223.88 179.04,-223.88 176.08,-223.88 173.12,-220.92 173.12,-217.96 173.12,-217.96 173.12,-212.04 173.12,-212.04 173.12,-209.08 176.08,-206.12 179.04,-206.12 179.04,-206.12 240.21,-206.12 240.21,-206.12 243.17,-206.12 246.12,-209.08 246.12,-212.04 246.12,-212.04 246.12,-217.96 246.12,-217.96 246.12,-220.92 243.17,-223.88 240.21,-223.88"/>
<text text-anchor="start" x="181.12" y="-211.32" font-family="Helvetica,sans-Serif" font-size="9.00" fill="white">normalize.mjs</text>
</a>
</g>
</g>
<!-- src/main/cruise.mjs&#45;&gt;src/main/resolve&#45;options/normalize.mjs -->
<g id="edge5" class="edge">
<title>src/main/cruise.mjs&#45;&gt;src/main/resolve&#45;options/normalize.mjs</title>
<path fill="none" stroke="white" stroke-dasharray="5,2" d="M121.5,-191.16C121.5,-201.5 121.5,-216.88 121.5,-216.88 121.5,-216.88 166.54,-216.88 166.54,-216.88"/>
<polygon fill="white" stroke="white" points="171.54,-216.88 166.54,-219.13 170.26,-216.88 166.54,-216.88 166.54,-216.88 166.54,-216.88 170.26,-216.88 166.54,-214.63 171.54,-216.88"/>
</g>
<!-- src/main/rule&#45;set/assert&#45;validity.mjs -->
<g id="node7" class="node">
<title>src/main/rule&#45;set/assert&#45;validity.mjs</title>
<g id="a_node7"><a xlink:href="src/main/rule-set/assert-validity.mjs" xlink:title="assert&#45;validity.mjs">
<path fill="#ffffff" fill-opacity="0.200000" stroke="white" d="M248.08,-79.88C248.08,-79.88 171.17,-79.88 171.17,-79.88 168.21,-79.88 165.25,-76.92 165.25,-73.96 165.25,-73.96 165.25,-68.04 165.25,-68.04 165.25,-65.08 168.21,-62.12 171.17,-62.12 171.17,-62.12 248.08,-62.12 248.08,-62.12 251.04,-62.12 254,-65.08 254,-68.04 254,-68.04 254,-73.96 254,-73.96 254,-76.92 251.04,-79.88 248.08,-79.88"/>
<text text-anchor="start" x="173.25" y="-67.33" font-family="Helvetica,sans-Serif" font-size="9.00" fill="white">assert&#45;validity.mjs</text>
</a>
</g>
</g>
<!-- src/main/cruise.mjs&#45;&gt;src/main/rule&#45;set/assert&#45;validity.mjs -->
<g id="edge6" class="edge">
<title>src/main/cruise.mjs&#45;&gt;src/main/rule&#45;set/assert&#45;validity.mjs</title>
<path fill="none" stroke="white" stroke-dasharray="5,2" d="M149.62,-179.96C160.15,-179.96 169.5,-179.96 169.5,-179.96 169.5,-179.96 169.5,-86.51 169.5,-86.51"/>
<polygon fill="white" stroke="white" points="169.5,-81.51 171.75,-86.51 169.5,-82.79 169.5,-86.51 169.5,-86.51 169.5,-86.51 169.5,-82.79 167.25,-86.51 169.5,-81.51"/>
</g>
<!-- src/main/rule&#45;set/normalize.mjs -->
<g id="node8" class="node">
<title>src/main/rule&#45;set/normalize.mjs</title>
<g id="a_node8"><a xlink:href="src/main/rule-set/normalize.mjs" xlink:title="normalize.mjs">
<path fill="#ffffff" fill-opacity="0.200000" stroke="white" d="M240.21,-49.88C240.21,-49.88 179.04,-49.88 179.04,-49.88 176.08,-49.88 173.12,-46.92 173.12,-43.96 173.12,-43.96 173.12,-38.04 173.12,-38.04 173.12,-35.08 176.08,-32.12 179.04,-32.12 179.04,-32.12 240.21,-32.12 240.21,-32.12 243.17,-32.12 246.12,-35.08 246.12,-38.04 246.12,-38.04 246.12,-43.96 246.12,-43.96 246.12,-46.92 243.17,-49.88 240.21,-49.88"/>
<text text-anchor="start" x="181.12" y="-37.33" font-family="Helvetica,sans-Serif" font-size="9.00" fill="white">normalize.mjs</text>
</a>
</g>
</g>
<!-- src/main/cruise.mjs&#45;&gt;src/main/rule&#45;set/normalize.mjs -->
<g id="edge7" class="edge">
<title>src/main/cruise.mjs&#45;&gt;src/main/rule&#45;set/normalize.mjs</title>
<path fill="none" stroke="white" stroke-dasharray="5,2" d="M121.5,-172.75C121.5,-141.38 121.5,-41 121.5,-41 121.5,-41 166.54,-41 166.54,-41"/>
<polygon fill="white" stroke="white" points="171.54,-41 166.54,-43.25 170.26,-41 166.54,-41 166.54,-41 166.54,-41 170.26,-41 166.54,-38.75 171.54,-41"/>
</g>
<!-- src/main/helpers.mjs -->
<g id="node10" class="node">
<title>src/main/helpers.mjs</title>
<g id="a_node10"><a xlink:href="src/main/helpers.mjs" xlink:title="helpers.mjs">
<path fill="#ffffff" fill-opacity="0.200000" stroke="white" d="M437.83,-79.88C437.83,-79.88 386.42,-79.88 386.42,-79.88 383.46,-79.88 380.5,-76.92 380.5,-73.96 380.5,-73.96 380.5,-68.04 380.5,-68.04 380.5,-65.08 383.46,-62.12 386.42,-62.12 386.42,-62.12 437.83,-62.12 437.83,-62.12 440.79,-62.12 443.75,-65.08 443.75,-68.04 443.75,-68.04 443.75,-73.96 443.75,-73.96 443.75,-76.92 440.79,-79.88 437.83,-79.88"/>
<text text-anchor="start" x="388.5" y="-67.33" font-family="Helvetica,sans-Serif" font-size="9.00" fill="white">helpers.mjs</text>
</a>
</g>
</g>
<!-- src/main/options/normalize.mjs&#45;&gt;src/main/helpers.mjs -->
<g id="edge13" class="edge">
<title>src/main/options/normalize.mjs&#45;&gt;src/main/helpers.mjs</title>
<path fill="none" stroke="white" d="M359.26,-194.04C367.32,-194.04 373.5,-194.04 373.5,-194.04 373.5,-194.04 373.5,-73.96 373.5,-73.96 373.5,-73.96 374.17,-73.96 374.17,-73.96"/>
<polygon fill="white" stroke="white" points="379.01,-73.96 374.01,-76.21 377.73,-73.96 374.01,-73.96 374.01,-73.96 374.01,-73.96 377.73,-73.96 374.01,-71.71 379.01,-73.96"/>
</g>
<!-- src/main/options/defaults.mjs -->
<g id="node13" class="node">
<title>src/main/options/defaults.mjs</title>
<g id="a_node13"><a xlink:href="src/main/options/defaults.mjs" xlink:title="defaults.mjs">
<path fill="#ffffff" fill-opacity="0.200000" stroke="white" d="M438.58,-205.88C438.58,-205.88 385.67,-205.88 385.67,-205.88 382.71,-205.88 379.75,-202.92 379.75,-199.96 379.75,-199.96 379.75,-194.04 379.75,-194.04 379.75,-191.08 382.71,-188.12 385.67,-188.12 385.67,-188.12 438.58,-188.12 438.58,-188.12 441.54,-188.12 444.5,-191.08 444.5,-194.04 444.5,-194.04 444.5,-199.96 444.5,-199.96 444.5,-202.92 441.54,-205.88 438.58,-205.88"/>
<text text-anchor="start" x="387.75" y="-193.32" font-family="Helvetica,sans-Serif" font-size="9.00" fill="white">defaults.mjs</text>
</a>
</g>
</g>
<!-- src/main/options/normalize.mjs&#45;&gt;src/main/options/defaults.mjs -->
<g id="edge14" class="edge">
<title>src/main/options/normalize.mjs&#45;&gt;src/main/options/defaults.mjs</title>
<path fill="none" stroke="white" d="M359.14,-199.96C359.14,-199.96 373.09,-199.96 373.09,-199.96"/>
<polygon fill="white" stroke="white" points="378.09,-199.96 373.09,-202.21 376.81,-199.96 373.09,-199.96 373.09,-199.96 373.09,-199.96 376.81,-199.96 373.09,-197.71 378.09,-199.96"/>
</g>
<!-- src/main/rule&#45;set/assert&#45;validity.mjs&#45;&gt;src/main/options/assert&#45;validity.mjs -->
<g id="edge16" class="edge">
<title>src/main/rule&#45;set/assert&#45;validity.mjs&#45;&gt;src/main/options/assert&#45;validity.mjs</title>
<path fill="none" stroke="white" d="M250.5,-80.05C250.5,-103.03 250.5,-161.88 250.5,-161.88 250.5,-161.88 271.45,-161.88 271.45,-161.88"/>
<polygon fill="white" stroke="white" points="276.45,-161.88 271.45,-164.13 275.17,-161.88 271.45,-161.88 271.45,-161.88 271.45,-161.88 275.17,-161.88 271.45,-159.63 276.45,-161.88"/>
</g>
<!-- src/main/rule&#45;set/assert&#45;validity.mjs&#45;&gt;src/main/helpers.mjs -->
<g id="edge15" class="edge">
<title>src/main/rule&#45;set/assert&#45;validity.mjs&#45;&gt;src/main/helpers.mjs</title>
<path fill="none" stroke="white" d="M254.32,-68.04C254.32,-68.04 373.9,-68.04 373.9,-68.04"/>
<polygon fill="white" stroke="white" points="378.9,-68.04 373.9,-70.29 377.62,-68.04 373.9,-68.04 373.9,-68.04 373.9,-68.04 377.62,-68.04 373.9,-65.79 378.9,-68.04"/>
</g>
<!-- src/main/rule&#45;set/normalize.mjs&#45;&gt;src/main/helpers.mjs -->
<g id="edge17" class="edge">
<title>src/main/rule&#45;set/normalize.mjs&#45;&gt;src/main/helpers.mjs</title>
<path fill="none" stroke="white" d="M246.36,-41C304.83,-41 412.5,-41 412.5,-41 412.5,-41 412.5,-55.62 412.5,-55.62"/>
<polygon fill="white" stroke="white" points="412.5,-60.62 410.25,-55.62 412.5,-59.34 412.5,-55.62 412.5,-55.62 412.5,-55.62 412.5,-59.34 414.75,-55.62 412.5,-60.62"/>
</g>
<!-- src/main/format.mjs -->
<g id="node9" class="node">
<title>src/main/format.mjs</title>
<g id="a_node9"><a xlink:href="src/main/format.mjs" xlink:title="format.mjs">
<path fill="#ffffff" fill-opacity="0.200000" stroke="white" d="M232.71,-275.88C232.71,-275.88 186.54,-275.88 186.54,-275.88 183.58,-275.88 180.62,-272.92 180.62,-269.96 180.62,-269.96 180.62,-264.04 180.62,-264.04 180.62,-261.08 183.58,-258.12 186.54,-258.12 186.54,-258.12 232.71,-258.12 232.71,-258.12 235.67,-258.12 238.62,-261.08 238.62,-264.04 238.62,-264.04 238.62,-269.96 238.62,-269.96 238.62,-272.92 235.67,-275.88 232.71,-275.88"/>
<text text-anchor="start" x="188.62" y="-263.32" font-family="Helvetica,sans-Serif" font-size="9.00" fill="white">format.mjs</text>
</a>
</g>
</g>
<!-- src/main/format.mjs&#45;&gt;src/main/options/assert&#45;validity.mjs -->
<g id="edge8" class="edge">
<title>src/main/format.mjs&#45;&gt;src/main/options/assert&#45;validity.mjs</title>
<path fill="none" stroke="white" d="M238.99,-260.46C254.56,-260.46 270.5,-260.46 270.5,-260.46 270.5,-260.46 270.5,-169.38 270.5,-169.38 270.5,-169.38 271.49,-169.38 271.49,-169.38"/>
<polygon fill="white" stroke="white" points="276.49,-169.38 271.49,-171.63 275.21,-169.38 271.49,-169.38 271.49,-169.38 271.49,-169.38 275.21,-169.38 271.49,-167.13 276.49,-169.38"/>
</g>
<!-- src/main/format.mjs&#45;&gt;src/main/options/normalize.mjs -->
<g id="edge9" class="edge">
<title>src/main/format.mjs&#45;&gt;src/main/options/normalize.mjs</title>
<path fill="none" stroke="white" d="M238.99,-262.79C272.43,-262.79 322.5,-262.79 322.5,-262.79 322.5,-262.79 322.5,-212.37 322.5,-212.37"/>
<polygon fill="white" stroke="white" points="322.5,-207.37 324.75,-212.37 322.5,-208.65 322.5,-212.37 322.5,-212.37 322.5,-212.37 322.5,-208.65 320.25,-212.37 322.5,-207.37"/>
</g>
<!-- src/main/format.mjs&#45;&gt;src/main/report&#45;wrap.mjs -->
<g id="edge10" class="edge">
<title>src/main/format.mjs&#45;&gt;src/main/report&#45;wrap.mjs</title>
<path fill="none" stroke="white" d="M238.95,-272.29C238.95,-272.29 275.94,-272.29 275.94,-272.29"/>
<polygon fill="white" stroke="white" points="280.94,-272.29 275.94,-274.54 279.66,-272.29 275.94,-272.29 275.94,-272.29 275.94,-272.29 279.66,-272.29 275.94,-270.04 280.94,-272.29"/>
</g>
<!-- src/main/index.d.ts -->
<g id="node11" class="node">
<title>src/main/index.d.ts</title>
<g id="a_node11"><a xlink:href="src/main/index.d.ts" xlink:title="index.d.ts">
<path fill="#ccffcc" stroke="white" d="M73.08,-277.88C73.08,-277.88 29.92,-277.88 29.92,-277.88 26.96,-277.88 24,-274.92 24,-271.96 24,-271.96 24,-266.04 24,-266.04 24,-263.08 26.96,-260.12 29.92,-260.12 29.92,-260.12 73.08,-260.12 73.08,-260.12 76.04,-260.12 79,-263.08 79,-266.04 79,-266.04 79,-271.96 79,-271.96 79,-274.92 76.04,-277.88 73.08,-277.88"/>
<text text-anchor="start" x="32" y="-265.32" font-family="Helvetica,sans-Serif" font-size="9.00" fill="white">index.d.ts</text>
</a>
</g>
</g>
<!-- src/main/index.mjs -->
<g id="node12" class="node">
<title>src/main/index.mjs</title>
<g id="a_node12"><a xlink:href="src/main/index.mjs" xlink:title="index.mjs">
<path fill="#ffffff" fill-opacity="0.200000" stroke="white" d="M73.08,-209.88C73.08,-209.88 29.92,-209.88 29.92,-209.88 26.96,-209.88 24,-206.92 24,-203.96 24,-203.96 24,-198.04 24,-198.04 24,-195.08 26.96,-192.12 29.92,-192.12 29.92,-192.12 73.08,-192.12 73.08,-192.12 76.04,-192.12 79,-195.08 79,-198.04 79,-198.04 79,-203.96 79,-203.96 79,-206.92 76.04,-209.88 73.08,-209.88"/>
<text text-anchor="start" x="32" y="-197.32" font-family="Helvetica,sans-Serif" font-size="9.00" fill="white">index.mjs</text>
</a>
</g>
</g>
<!-- src/main/index.mjs&#45;&gt;src/main/cruise.mjs -->
<g id="edge11" class="edge">
<title>src/main/index.mjs&#45;&gt;src/main/cruise.mjs</title>
<path fill="none" stroke="white" d="M79.32,-199C92.96,-199 106.5,-199 106.5,-199 106.5,-199 106.5,-197.51 106.5,-197.51"/>
<polygon fill="white" stroke="white" points="106.5,-192.51 108.75,-197.51 106.5,-193.8 106.5,-197.51 106.5,-197.51 106.5,-197.51 106.5,-193.8 104.25,-197.51 106.5,-192.51"/>
</g>
<!-- src/main/index.mjs&#45;&gt;src/main/format.mjs -->
<g id="edge12" class="edge">
<title>src/main/index.mjs&#45;&gt;src/main/format.mjs</title>
<path fill="none" stroke="white" d="M79.35,-202.44C110.76,-202.44 157.5,-202.44 157.5,-202.44 157.5,-202.44 157.5,-268 157.5,-268 157.5,-268 173.99,-268 173.99,-268"/>
<polygon fill="white" stroke="white" points="178.99,-268 173.99,-270.25 177.71,-268 173.99,-268 173.99,-268 173.99,-268 177.71,-268 173.99,-265.75 178.99,-268"/>
</g>
</g>
</svg>
