<?xml version="1.0" encoding="UTF-8" standalone="no"?>
<!DOCTYPE svg PUBLIC "-//W3C//DTD SVG 1.1//EN"
 "http://www.w3.org/Graphics/SVG/1.1/DTD/svg11.dtd">
<!-- Generated by graphviz version 8.1.0 (20230707.0739)
 -->
<!-- Title: dependency&#45;cruiser output Pages: 1 -->
<svg width="456pt" height="358pt"
 viewBox="0.00 0.00 456.38 358.00" xmlns="http://www.w3.org/2000/svg" xmlns:xlink="http://www.w3.org/1999/xlink">
<g id="graph0" class="graph" transform="scale(1 1) rotate(0) translate(4 354)">
<title>dependency&#45;cruiser output</title>
<polygon fill="dodgerblue" stroke="none" points="-4,4 -4,-354 452.38,-354 452.38,4 -4,4"/>
<g id="clust1" class="cluster">
<title>cluster_src</title>
<path fill="none" stroke="white" stroke-width="2" d="M20,-8C20,-8 428.38,-8 428.38,-8 434.38,-8 440.38,-14 440.38,-20 440.38,-20 440.38,-330 440.38,-330 440.38,-336 434.38,-342 428.38,-342 428.38,-342 20,-342 20,-342 14,-342 8,-336 8,-330 8,-330 8,-20 8,-20 8,-14 14,-8 20,-8"/>
<text text-anchor="middle" x="224.19" y="-329.45" font-family="Helvetica,sans-Serif" font-weight="bold" font-size="9.00" fill="white">src</text>
</g>
<g id="clust2" class="cluster">
<title>cluster_src/main</title>
<path fill="none" stroke="white" stroke-width="2" d="M28,-16C28,-16 420.38,-16 420.38,-16 426.38,-16 432.38,-22 432.38,-28 432.38,-28 432.38,-304 432.38,-304 432.38,-310 426.38,-316 420.38,-316 420.38,-316 28,-316 28,-316 22,-316 16,-310 16,-304 16,-304 16,-28 16,-28 16,-22 22,-16 28,-16"/>
<text text-anchor="middle" x="224.19" y="-303.45" font-family="Helvetica,sans-Serif" font-weight="bold" font-size="9.00" fill="white">main</text>
</g>
<g id="clust4" class="cluster">
<title>cluster_src/main/options</title>
<path fill="none" stroke="white" stroke-width="2" d="M266.25,-150C266.25,-150 412.38,-150 412.38,-150 418.38,-150 424.38,-156 424.38,-162 424.38,-162 424.38,-220 424.38,-220 424.38,-226 418.38,-232 412.38,-232 412.38,-232 266.25,-232 266.25,-232 260.25,-232 254.25,-226 254.25,-220 254.25,-220 254.25,-162 254.25,-162 254.25,-156 260.25,-150 266.25,-150"/>
<text text-anchor="middle" x="339.31" y="-219.45" font-family="Helvetica,sans-Serif" font-weight="bold" font-size="9.00" fill="white">options</text>
</g>
<g id="clust5" class="cluster">
<title>cluster_src/main/resolve&#45;options</title>
<path fill="none" stroke="white" stroke-width="2" d="M169.25,-198C169.25,-198 234.25,-198 234.25,-198 240.25,-198 246.25,-204 246.25,-210 246.25,-210 246.25,-238 246.25,-238 246.25,-244 240.25,-250 234.25,-250 234.25,-250 169.25,-250 169.25,-250 163.25,-250 157.25,-244 157.25,-238 157.25,-238 157.25,-210 157.25,-210 157.25,-204 163.25,-198 169.25,-198"/>
<text text-anchor="middle" x="201.75" y="-237.45" font-family="Helvetica,sans-Serif" font-weight="bold" font-size="9.00" fill="white">resolve&#45;options</text>
</g>
<g id="clust6" class="cluster">
<title>cluster_src/main/rule&#45;set</title>
<path fill="none" stroke="white" stroke-width="2" d="M169.25,-24C169.25,-24 234.25,-24 234.25,-24 240.25,-24 246.25,-30 246.25,-36 246.25,-36 246.25,-94 246.25,-94 246.25,-100 240.25,-106 234.25,-106 234.25,-106 169.25,-106 169.25,-106 163.25,-106 157.25,-100 157.25,-94 157.25,-94 157.25,-36 157.25,-36 157.25,-30 163.25,-24 169.25,-24"/>
<text text-anchor="middle" x="201.75" y="-93.45" font-family="Helvetica,sans-Serif" font-weight="bold" font-size="9.00" fill="white">rule&#45;set</text>
</g>
<g id="clust3" class="cluster">
<title>cluster_src/main/files&#45;and&#45;dirs</title>
<path fill="none" stroke="white" stroke-width="2" d="M169.25,-114C169.25,-114 234.25,-114 234.25,-114 240.25,-114 246.25,-120 246.25,-126 246.25,-126 246.25,-154 246.25,-154 246.25,-160 240.25,-166 234.25,-166 234.25,-166 169.25,-166 169.25,-166 163.25,-166 157.25,-160 157.25,-154 157.25,-154 157.25,-126 157.25,-126 157.25,-120 163.25,-114 169.25,-114"/>
<text text-anchor="middle" x="201.75" y="-153.45" font-family="Helvetica,sans-Serif" font-weight="bold" font-size="9.00" fill="white">files&#45;and&#45;dirs</text>
</g>
<!-- src/main/cruise.mjs -->
<g id="node1" class="node">
<title>src/main/cruise.mjs</title>
<g id="a_node1"><a xlink:href="src/main/cruise.mjs" xlink:title="cruise.mjs">
<path fill="#ffffff" fill-opacity="0.200000" stroke="white" d="M143.33,-190.88C143.33,-190.88 97.92,-190.88 97.92,-190.88 94.96,-190.88 92,-187.92 92,-184.96 92,-184.96 92,-179.04 92,-179.04 92,-176.08 94.96,-173.12 97.92,-173.12 97.92,-173.12 143.33,-173.12 143.33,-173.12 146.29,-173.12 149.25,-176.08 149.25,-179.04 149.25,-179.04 149.25,-184.96 149.25,-184.96 149.25,-187.92 146.29,-190.88 143.33,-190.88"/>
<text text-anchor="start" x="100" y="-178.32" font-family="Helvetica,sans-Serif" font-size="9.00" fill="white">cruise.mjs</text>
</a>
</g>
</g>
<!-- src/main/files&#45;and&#45;dirs/normalize.mjs -->
<g id="node2" class="node">
<title>src/main/files&#45;and&#45;dirs/normalize.mjs</title>
<g id="a_node2"><a xlink:href="src/main/files-and-dirs/normalize.mjs" xlink:title="normalize.mjs">
<path fill="#ffffff" fill-opacity="0.200000" stroke="white" d="M232.33,-139.88C232.33,-139.88 171.17,-139.88 171.17,-139.88 168.21,-139.88 165.25,-136.92 165.25,-133.96 165.25,-133.96 165.25,-128.04 165.25,-128.04 165.25,-125.08 168.21,-122.12 171.17,-122.12 171.17,-122.12 232.33,-122.12 232.33,-122.12 235.29,-122.12 238.25,-125.08 238.25,-128.04 238.25,-128.04 238.25,-133.96 238.25,-133.96 238.25,-136.92 235.29,-139.88 232.33,-139.88"/>
<text text-anchor="start" x="173.25" y="-127.33" font-family="Helvetica,sans-Serif" font-size="9.00" fill="white">normalize.mjs</text>
</a>
</g>
</g>
<!-- src/main/cruise.mjs&#45;&gt;src/main/files&#45;and&#45;dirs/normalize.mjs -->
<g id="edge1" class="edge">
<title>src/main/cruise.mjs&#45;&gt;src/main/files&#45;and&#45;dirs/normalize.mjs</title>
<path fill="none" stroke="white" stroke-dasharray="5,2" d="M138.38,-172.65C138.38,-157.92 138.38,-131 138.38,-131 138.38,-131 159.88,-131 159.88,-131"/>
<polygon fill="white" stroke="white" points="164.88,-131 159.88,-133.25 162.38,-131 159.88,-131 159.88,-131 159.88,-131 162.38,-131 159.88,-128.75 164.88,-131 164.88,-131"/>
</g>
<!-- src/main/options/normalize.mjs -->
<g id="node3" class="node">
<title>src/main/options/normalize.mjs</title>
<g id="a_node3"><a xlink:href="src/main/options/normalize.mjs" xlink:title="normalize.mjs">
<path fill="#ffffff" fill-opacity="0.200000" stroke="white" d="M329.33,-205.88C329.33,-205.88 268.17,-205.88 268.17,-205.88 265.21,-205.88 262.25,-202.92 262.25,-199.96 262.25,-199.96 262.25,-194.04 262.25,-194.04 262.25,-191.08 265.21,-188.12 268.17,-188.12 268.17,-188.12 329.33,-188.12 329.33,-188.12 332.29,-188.12 335.25,-191.08 335.25,-194.04 335.25,-194.04 335.25,-199.96 335.25,-199.96 335.25,-202.92 332.29,-205.88 329.33,-205.88"/>
<text text-anchor="start" x="270.25" y="-193.32" font-family="Helvetica,sans-Serif" font-size="9.00" fill="white">normalize.mjs</text>
</a>
</g>
</g>
<!-- src/main/cruise.mjs&#45;&gt;src/main/options/normalize.mjs -->
<g id="edge2" class="edge">
<title>src/main/cruise.mjs&#45;&gt;src/main/options/normalize.mjs</title>
<path fill="none" stroke="white" d="M135.38,-191.27C135.38,-193.66 135.38,-195.56 135.38,-195.56 135.38,-195.56 257.09,-195.56 257.09,-195.56"/>
<polygon fill="white" stroke="white" points="262.09,-195.56 257.09,-197.81 259.59,-195.56 257.09,-195.56 257.09,-195.56 257.09,-195.56 259.59,-195.56 257.09,-193.31 262.09,-195.56 262.09,-195.56"/>
</g>
<!-- src/main/options/validate.mjs -->
<g id="node4" class="node">
<title>src/main/options/validate.mjs</title>
<g id="a_node4"><a xlink:href="src/main/options/validate.mjs" xlink:title="validate.mjs">
<path fill="#ffffff" fill-opacity="0.200000" stroke="white" d="M325.21,-175.88C325.21,-175.88 272.29,-175.88 272.29,-175.88 269.33,-175.88 266.38,-172.92 266.38,-169.96 266.38,-169.96 266.38,-164.04 266.38,-164.04 266.38,-161.08 269.33,-158.12 272.29,-158.12 272.29,-158.12 325.21,-158.12 325.21,-158.12 328.17,-158.12 331.12,-161.08 331.12,-164.04 331.12,-164.04 331.12,-169.96 331.12,-169.96 331.12,-172.92 328.17,-175.88 325.21,-175.88"/>
<text text-anchor="start" x="274.38" y="-163.32" font-family="Helvetica,sans-Serif" font-size="9.00" fill="white">validate.mjs</text>
</a>
</g>
</g>
<!-- src/main/cruise.mjs&#45;&gt;src/main/options/validate.mjs -->
<g id="edge3" class="edge">
<title>src/main/cruise.mjs&#45;&gt;src/main/options/validate.mjs</title>
<path fill="none" stroke="white" d="M104.38,-173C104.38,-168.14 104.38,-163.12 104.38,-163.12 104.38,-163.12 261.22,-163.12 261.22,-163.12"/>
<polygon fill="white" stroke="white" points="266.22,-163.12 261.22,-165.38 263.72,-163.13 261.22,-163.13 261.22,-163.13 261.22,-163.13 263.72,-163.13 261.22,-160.88 266.22,-163.12 266.22,-163.12"/>
</g>
<!-- src/main/report&#45;wrap.mjs -->
<g id="node5" class="node">
<title>src/main/report&#45;wrap.mjs</title>
<g id="a_node5"><a xlink:href="src/main/report-wrap.mjs" xlink:title="report&#45;wrap.mjs">
<path fill="#ffffff" fill-opacity="0.200000" stroke="white" d="M332.71,-282.88C332.71,-282.88 264.79,-282.88 264.79,-282.88 261.83,-282.88 258.88,-279.92 258.88,-276.96 258.88,-276.96 258.88,-271.04 258.88,-271.04 258.88,-268.08 261.83,-265.12 264.79,-265.12 264.79,-265.12 332.71,-265.12 332.71,-265.12 335.67,-265.12 338.62,-268.08 338.62,-271.04 338.62,-271.04 338.62,-276.96 338.62,-276.96 338.62,-279.92 335.67,-282.88 332.71,-282.88"/>
<text text-anchor="start" x="266.88" y="-270.32" font-family="Helvetica,sans-Serif" font-size="9.00" fill="white">report&#45;wrap.mjs</text>
</a>
</g>
</g>
<!-- src/main/cruise.mjs&#45;&gt;src/main/report&#45;wrap.mjs -->
<g id="edge4" class="edge">
<title>src/main/cruise.mjs&#45;&gt;src/main/report&#45;wrap.mjs</title>
<path fill="none" stroke="white" d="M149.56,-182C186.41,-182 245.38,-182 245.38,-182 245.38,-182 245.38,-268.71 245.38,-268.71 245.38,-268.71 253.57,-268.71 253.57,-268.71"/>
<polygon fill="white" stroke="white" points="258.57,-268.71 253.57,-270.96 256.07,-268.71 253.57,-268.71 253.57,-268.71 253.57,-268.71 256.07,-268.71 253.57,-266.46 258.57,-268.71 258.57,-268.71"/>
</g>
<!-- src/main/resolve&#45;options/normalize.mjs -->
<g id="node6" class="node">
<title>src/main/resolve&#45;options/normalize.mjs</title>
<g id="a_node6"><a xlink:href="src/main/resolve-options/normalize.mjs" xlink:title="normalize.mjs">
<path fill="#ffffff" fill-opacity="0.200000" stroke="white" d="M232.33,-223.88C232.33,-223.88 171.17,-223.88 171.17,-223.88 168.21,-223.88 165.25,-220.92 165.25,-217.96 165.25,-217.96 165.25,-212.04 165.25,-212.04 165.25,-209.08 168.21,-206.12 171.17,-206.12 171.17,-206.12 232.33,-206.12 232.33,-206.12 235.29,-206.12 238.25,-209.08 238.25,-212.04 238.25,-212.04 238.25,-217.96 238.25,-217.96 238.25,-220.92 235.29,-223.88 232.33,-223.88"/>
<text text-anchor="start" x="173.25" y="-211.32" font-family="Helvetica,sans-Serif" font-size="9.00" fill="white">normalize.mjs</text>
</a>
</g>
</g>
<!-- src/main/cruise.mjs&#45;&gt;src/main/resolve&#45;options/normalize.mjs -->
<g id="edge5" class="edge">
<title>src/main/cruise.mjs&#45;&gt;src/main/resolve&#45;options/normalize.mjs</title>
<path fill="none" stroke="white" stroke-dasharray="5,2" d="M121.38,-191.16C121.38,-201.5 121.38,-216.88 121.38,-216.88 121.38,-216.88 159.86,-216.88 159.86,-216.88"/>
<polygon fill="white" stroke="white" points="164.86,-216.88 159.86,-219.13 162.36,-216.88 159.86,-216.88 159.86,-216.88 159.86,-216.88 162.36,-216.88 159.86,-214.63 164.86,-216.88 164.86,-216.88"/>
</g>
<!-- src/main/rule&#45;set/normalize.mjs -->
<g id="node7" class="node">
<title>src/main/rule&#45;set/normalize.mjs</title>
<g id="a_node7"><a xlink:href="src/main/rule-set/normalize.mjs" xlink:title="normalize.mjs">
<path fill="#ffffff" fill-opacity="0.200000" stroke="white" d="M232.33,-49.88C232.33,-49.88 171.17,-49.88 171.17,-49.88 168.21,-49.88 165.25,-46.92 165.25,-43.96 165.25,-43.96 165.25,-38.04 165.25,-38.04 165.25,-35.08 168.21,-32.12 171.17,-32.12 171.17,-32.12 232.33,-32.12 232.33,-32.12 235.29,-32.12 238.25,-35.08 238.25,-38.04 238.25,-38.04 238.25,-43.96 238.25,-43.96 238.25,-46.92 235.29,-49.88 232.33,-49.88"/>
<text text-anchor="start" x="173.25" y="-37.33" font-family="Helvetica,sans-Serif" font-size="9.00" fill="white">normalize.mjs</text>
</a>
</g>
</g>
<!-- src/main/cruise.mjs&#45;&gt;src/main/rule&#45;set/normalize.mjs -->
<g id="edge6" class="edge">
<title>src/main/cruise.mjs&#45;&gt;src/main/rule&#45;set/normalize.mjs</title>
<path fill="none" stroke="white" stroke-dasharray="5,2" d="M115.38,-172.75C115.38,-141.38 115.38,-41 115.38,-41 115.38,-41 159.87,-41 159.87,-41"/>
<polygon fill="white" stroke="white" points="164.87,-41 159.87,-43.25 162.37,-41 159.87,-41 159.87,-41 159.87,-41 162.37,-41 159.87,-38.75 164.87,-41 164.87,-41"/>
</g>
<!-- src/main/rule&#45;set/validate.mjs -->
<g id="node8" class="node">
<title>src/main/rule&#45;set/validate.mjs</title>
<g id="a_node8"><a xlink:href="src/main/rule-set/validate.mjs" xlink:title="validate.mjs">
<path fill="#ffffff" fill-opacity="0.200000" stroke="white" d="M228.21,-79.88C228.21,-79.88 175.29,-79.88 175.29,-79.88 172.33,-79.88 169.38,-76.92 169.38,-73.96 169.38,-73.96 169.38,-68.04 169.38,-68.04 169.38,-65.08 172.33,-62.12 175.29,-62.12 175.29,-62.12 228.21,-62.12 228.21,-62.12 231.17,-62.12 234.12,-65.08 234.12,-68.04 234.12,-68.04 234.12,-73.96 234.12,-73.96 234.12,-76.92 231.17,-79.88 228.21,-79.88"/>
<text text-anchor="start" x="177.38" y="-67.33" font-family="Helvetica,sans-Serif" font-size="9.00" fill="white">validate.mjs</text>
</a>
</g>
</g>
<!-- src/main/cruise.mjs&#45;&gt;src/main/rule&#45;set/validate.mjs -->
<g id="edge7" class="edge">
<title>src/main/cruise.mjs&#45;&gt;src/main/rule&#45;set/validate.mjs</title>
<path fill="none" stroke="white" stroke-dasharray="5,2" d="M126.38,-172.92C126.38,-146.41 126.38,-71 126.38,-71 126.38,-71 163.91,-71 163.91,-71"/>
<polygon fill="white" stroke="white" points="168.91,-71 163.91,-73.25 166.41,-71 163.91,-71 163.91,-71 163.91,-71 166.41,-71 163.91,-68.75 168.91,-71 168.91,-71"/>
</g>
<!-- src/main/helpers.mjs -->
<g id="node10" class="node">
<title>src/main/helpers.mjs</title>
<g id="a_node10"><a xlink:href="src/main/helpers.mjs" xlink:title="helpers.mjs">
<path fill="#ffffff" fill-opacity="0.200000" stroke="white" d="M409.71,-79.88C409.71,-79.88 358.29,-79.88 358.29,-79.88 355.33,-79.88 352.38,-76.92 352.38,-73.96 352.38,-73.96 352.38,-68.04 352.38,-68.04 352.38,-65.08 355.33,-62.12 358.29,-62.12 358.29,-62.12 409.71,-62.12 409.71,-62.12 412.67,-62.12 415.62,-65.08 415.62,-68.04 415.62,-68.04 415.62,-73.96 415.62,-73.96 415.62,-76.92 412.67,-79.88 409.71,-79.88"/>
<text text-anchor="start" x="360.38" y="-67.33" font-family="Helvetica,sans-Serif" font-size="9.00" fill="white">helpers.mjs</text>
</a>
</g>
</g>
<!-- src/main/options/normalize.mjs&#45;&gt;src/main/helpers.mjs -->
<g id="edge13" class="edge">
<title>src/main/options/normalize.mjs&#45;&gt;src/main/helpers.mjs</title>
<path fill="none" stroke="white" d="M335.49,-194.04C341.27,-194.04 345.38,-194.04 345.38,-194.04 345.38,-194.04 345.38,-71 345.38,-71 345.38,-71 347.1,-71 347.1,-71"/>
<polygon fill="white" stroke="white" points="352.1,-71 347.1,-73.25 349.6,-71 347.1,-71 347.1,-71 347.1,-71 349.6,-71 347.1,-68.75 352.1,-71 352.1,-71"/>
</g>
<!-- src/main/options/defaults.mjs -->
<g id="node13" class="node">
<title>src/main/options/defaults.mjs</title>
<g id="a_node13"><a xlink:href="src/main/options/defaults.mjs" xlink:title="defaults.mjs">
<path fill="#ffffff" fill-opacity="0.200000" stroke="white" d="M410.46,-205.88C410.46,-205.88 357.54,-205.88 357.54,-205.88 354.58,-205.88 351.62,-202.92 351.62,-199.96 351.62,-199.96 351.62,-194.04 351.62,-194.04 351.62,-191.08 354.58,-188.12 357.54,-188.12 357.54,-188.12 410.46,-188.12 410.46,-188.12 413.42,-188.12 416.38,-191.08 416.38,-194.04 416.38,-194.04 416.38,-199.96 416.38,-199.96 416.38,-202.92 413.42,-205.88 410.46,-205.88"/>
<text text-anchor="start" x="359.62" y="-193.32" font-family="Helvetica,sans-Serif" font-size="9.00" fill="white">defaults.mjs</text>
</a>
</g>
</g>
<!-- src/main/options/normalize.mjs&#45;&gt;src/main/options/defaults.mjs -->
<g id="edge14" class="edge">
<title>src/main/options/normalize.mjs&#45;&gt;src/main/options/defaults.mjs</title>
<path fill="none" stroke="white" d="M335.4,-199.96C335.4,-199.96 346.15,-199.96 346.15,-199.96"/>
<polygon fill="white" stroke="white" points="351.15,-199.96 346.15,-202.21 348.65,-199.96 346.15,-199.96 346.15,-199.96 346.15,-199.96 348.65,-199.96 346.15,-197.71 351.15,-199.96 351.15,-199.96"/>
</g>
<!-- src/main/rule&#45;set/normalize.mjs&#45;&gt;src/main/helpers.mjs -->
<g id="edge15" class="edge">
<title>src/main/rule&#45;set/normalize.mjs&#45;&gt;src/main/helpers.mjs</title>
<path fill="none" stroke="white" d="M238.71,-41C292.07,-41 384.38,-41 384.38,-41 384.38,-41 384.38,-56.84 384.38,-56.84"/>
<polygon fill="white" stroke="white" points="384.38,-61.84 382.13,-56.84 384.38,-59.34 384.38,-56.84 384.38,-56.84 384.38,-56.84 384.38,-59.34 386.63,-56.84 384.38,-61.84 384.38,-61.84"/>
</g>
<!-- src/main/rule&#45;set/validate.mjs&#45;&gt;src/main/options/validate.mjs -->
<g id="edge17" class="edge">
<title>src/main/rule&#45;set/validate.mjs&#45;&gt;src/main/options/validate.mjs</title>
<path fill="none" stroke="white" d="M234.53,-75.44C262.89,-75.44 299.38,-75.44 299.38,-75.44 299.38,-75.44 299.38,-152.89 299.38,-152.89"/>
<polygon fill="white" stroke="white" points="299.38,-157.89 297.13,-152.89 299.38,-155.39 299.38,-152.89 299.38,-152.89 299.38,-152.89 299.38,-155.39 301.63,-152.89 299.38,-157.89 299.38,-157.89"/>
</g>
<!-- src/main/rule&#45;set/validate.mjs&#45;&gt;src/main/helpers.mjs -->
<g id="edge16" class="edge">
<title>src/main/rule&#45;set/validate.mjs&#45;&gt;src/main/helpers.mjs</title>
<path fill="none" stroke="white" d="M234.33,-66.56C234.33,-66.56 347.01,-66.56 347.01,-66.56"/>
<polygon fill="white" stroke="white" points="352.01,-66.56 347.01,-68.81 349.51,-66.56 347.01,-66.56 347.01,-66.56 347.01,-66.56 349.51,-66.56 347.01,-64.31 352.01,-66.56 352.01,-66.56"/>
</g>
<!-- src/main/format.mjs -->
<g id="node9" class="node">
<title>src/main/format.mjs</title>
<g id="a_node9"><a xlink:href="src/main/format.mjs" xlink:title="format.mjs">
<path fill="#ffffff" fill-opacity="0.200000" stroke="white" d="M224.83,-275.88C224.83,-275.88 178.67,-275.88 178.67,-275.88 175.71,-275.88 172.75,-272.92 172.75,-269.96 172.75,-269.96 172.75,-264.04 172.75,-264.04 172.75,-261.08 175.71,-258.12 178.67,-258.12 178.67,-258.12 224.83,-258.12 224.83,-258.12 227.79,-258.12 230.75,-261.08 230.75,-264.04 230.75,-264.04 230.75,-269.96 230.75,-269.96 230.75,-272.92 227.79,-275.88 224.83,-275.88"/>
<text text-anchor="start" x="180.75" y="-263.32" font-family="Helvetica,sans-Serif" font-size="9.00" fill="white">format.mjs</text>
</a>
</g>
</g>
<!-- src/main/format.mjs&#45;&gt;src/main/options/normalize.mjs -->
<g id="edge8" class="edge">
<title>src/main/format.mjs&#45;&gt;src/main/options/normalize.mjs</title>
<path fill="none" stroke="white" d="M231.04,-262.79C259.8,-262.79 299.38,-262.79 299.38,-262.79 299.38,-262.79 299.38,-211.15 299.38,-211.15"/>
<polygon fill="white" stroke="white" points="299.38,-206.15 301.63,-211.15 299.38,-208.65 299.38,-211.15 299.38,-211.15 299.38,-211.15 299.38,-208.65 297.13,-211.15 299.38,-206.15 299.38,-206.15"/>
</g>
<!-- src/main/format.mjs&#45;&gt;src/main/options/validate.mjs -->
<g id="edge9" class="edge">
<title>src/main/format.mjs&#45;&gt;src/main/options/validate.mjs</title>
<path fill="none" stroke="white" d="M231.2,-260.46C242.34,-260.46 252.38,-260.46 252.38,-260.46 252.38,-260.46 252.38,-168.12 252.38,-168.12 252.38,-168.12 261.04,-168.12 261.04,-168.12"/>
<polygon fill="white" stroke="white" points="266.04,-168.12 261.04,-170.38 263.54,-168.13 261.04,-168.13 261.04,-168.13 261.04,-168.13 263.54,-168.13 261.04,-165.88 266.04,-168.12 266.04,-168.12"/>
</g>
<!-- src/main/format.mjs&#45;&gt;src/main/report&#45;wrap.mjs -->
<g id="edge10" class="edge">
<title>src/main/format.mjs&#45;&gt;src/main/report&#45;wrap.mjs</title>
<path fill="none" stroke="white" d="M231.12,-272.29C231.12,-272.29 253.39,-272.29 253.39,-272.29"/>
<polygon fill="white" stroke="white" points="258.39,-272.29 253.39,-274.54 255.89,-272.29 253.39,-272.29 253.39,-272.29 253.39,-272.29 255.89,-272.29 253.39,-270.04 258.39,-272.29 258.39,-272.29"/>
</g>
<!-- src/main/index.d.ts -->
<g id="node11" class="node">
<title>src/main/index.d.ts</title>
<g id="a_node11"><a xlink:href="src/main/index.d.ts" xlink:title="index.d.ts">
<path fill="#ccffcc" stroke="white" d="M73.08,-277.88C73.08,-277.88 29.92,-277.88 29.92,-277.88 26.96,-277.88 24,-274.92 24,-271.96 24,-271.96 24,-266.04 24,-266.04 24,-263.08 26.96,-260.12 29.92,-260.12 29.92,-260.12 73.08,-260.12 73.08,-260.12 76.04,-260.12 79,-263.08 79,-266.04 79,-266.04 79,-271.96 79,-271.96 79,-274.92 76.04,-277.88 73.08,-277.88"/>
<text text-anchor="start" x="32" y="-265.32" font-family="Helvetica,sans-Serif" font-size="9.00" fill="white">index.d.ts</text>
</a>
</g>
</g>
<!-- src/main/index.mjs -->
<g id="node12" class="node">
<title>src/main/index.mjs</title>
<g id="a_node12"><a xlink:href="src/main/index.mjs" xlink:title="index.mjs">
<path fill="#ffffff" fill-opacity="0.200000" stroke="white" d="M73.08,-209.88C73.08,-209.88 29.92,-209.88 29.92,-209.88 26.96,-209.88 24,-206.92 24,-203.96 24,-203.96 24,-198.04 24,-198.04 24,-195.08 26.96,-192.12 29.92,-192.12 29.92,-192.12 73.08,-192.12 73.08,-192.12 76.04,-192.12 79,-195.08 79,-198.04 79,-198.04 79,-203.96 79,-203.96 79,-206.92 76.04,-209.88 73.08,-209.88"/>
<text text-anchor="start" x="32" y="-197.32" font-family="Helvetica,sans-Serif" font-size="9.00" fill="white">index.mjs</text>
</a>
</g>
</g>
<!-- src/main/index.mjs&#45;&gt;src/main/cruise.mjs -->
<g id="edge11" class="edge">
<title>src/main/index.mjs&#45;&gt;src/main/cruise.mjs</title>
<path fill="none" stroke="white" d="M79.26,-199C92.87,-199 106.38,-199 106.38,-199 106.38,-199 106.38,-196.3 106.38,-196.3"/>
<polygon fill="white" stroke="white" points="106.38,-191.3 108.63,-196.3 106.38,-193.8 106.38,-196.3 106.38,-196.3 106.38,-196.3 106.38,-193.8 104.13,-196.3 106.38,-191.3 106.38,-191.3"/>
</g>
<!-- src/main/index.mjs&#45;&gt;src/main/format.mjs -->
<g id="edge12" class="edge">
<title>src/main/index.mjs&#45;&gt;src/main/format.mjs</title>
<path fill="none" stroke="white" d="M79.32,-202.44C110.69,-202.44 157.38,-202.44 157.38,-202.44 157.38,-202.44 157.38,-268 157.38,-268 157.38,-268 167.4,-268 167.4,-268"/>
<polygon fill="white" stroke="white" points="172.4,-268 167.4,-270.25 169.9,-268 167.4,-268 167.4,-268 167.4,-268 169.9,-268 167.4,-265.75 172.4,-268 172.4,-268"/>
</g>
</g>
</svg>
