<?xml version="1.0" encoding="UTF-8" standalone="no"?>
<!DOCTYPE svg PUBLIC "-//W3C//DTD SVG 1.1//EN"
 "http://www.w3.org/Graphics/SVG/1.1/DTD/svg11.dtd">
<!-- Generated by graphviz version 8.0.1 (20230327.1645)
 -->
<!-- Title: dependency&#45;cruiser output Pages: 1 -->
<svg width="386pt" height="348pt"
 viewBox="0.00 0.00 386.00 348.00" xmlns="http://www.w3.org/2000/svg" xmlns:xlink="http://www.w3.org/1999/xlink">
<g id="graph0" class="graph" transform="scale(1 1) rotate(0) translate(4 344)">
<title>dependency&#45;cruiser output</title>
<polygon fill="dodgerblue" stroke="none" points="-4,4 -4,-344 382,-344 382,4 -4,4"/>
<g id="clust1" class="cluster">
<title>cluster_src</title>
<path fill="none" stroke="white" stroke-width="2" d="M20,-8C20,-8 358,-8 358,-8 364,-8 370,-14 370,-20 370,-20 370,-320 370,-320 370,-326 364,-332 358,-332 358,-332 20,-332 20,-332 14,-332 8,-326 8,-320 8,-320 8,-20 8,-20 8,-14 14,-8 20,-8"/>
<text text-anchor="middle" x="189" y="-320.8" font-family="Helvetica,sans-Serif" font-weight="bold" font-size="9.00" fill="white">src</text>
</g>
<g id="clust2" class="cluster">
<title>cluster_src/main</title>
<path fill="none" stroke="white" stroke-width="2" d="M28,-16C28,-16 350,-16 350,-16 356,-16 362,-22 362,-28 362,-28 362,-294 362,-294 362,-300 356,-306 350,-306 350,-306 28,-306 28,-306 22,-306 16,-300 16,-294 16,-294 16,-28 16,-28 16,-22 22,-16 28,-16"/>
<text text-anchor="middle" x="189" y="-294.8" font-family="Helvetica,sans-Serif" font-weight="bold" font-size="9.00" fill="white">main</text>
</g>
<g id="clust3" class="cluster">
<title>cluster_src/main/files&#45;and&#45;dirs</title>
<path fill="none" stroke="white" stroke-width="2" d="M100,-24C100,-24 166,-24 166,-24 172,-24 178,-30 178,-36 178,-36 178,-64 178,-64 178,-70 172,-76 166,-76 166,-76 100,-76 100,-76 94,-76 88,-70 88,-64 88,-64 88,-36 88,-36 88,-30 94,-24 100,-24"/>
<text text-anchor="middle" x="133" y="-64.8" font-family="Helvetica,sans-Serif" font-weight="bold" font-size="9.00" fill="white">files&#45;and&#45;dirs</text>
</g>
<g id="clust4" class="cluster">
<title>cluster_src/main/options</title>
<path fill="none" stroke="white" stroke-width="2" d="M198,-107C198,-107 342,-107 342,-107 348,-107 354,-113 354,-119 354,-119 354,-177 354,-177 354,-183 348,-189 342,-189 342,-189 198,-189 198,-189 192,-189 186,-183 186,-177 186,-177 186,-119 186,-119 186,-113 192,-107 198,-107"/>
<text text-anchor="middle" x="270" y="-177.8" font-family="Helvetica,sans-Serif" font-weight="bold" font-size="9.00" fill="white">options</text>
</g>
<g id="clust5" class="cluster">
<title>cluster_src/main/resolve&#45;options</title>
<path fill="none" stroke="white" stroke-width="2" d="M100,-138C100,-138 166,-138 166,-138 172,-138 178,-144 178,-150 178,-150 178,-178 178,-178 178,-184 172,-190 166,-190 166,-190 100,-190 100,-190 94,-190 88,-184 88,-178 88,-178 88,-150 88,-150 88,-144 94,-138 100,-138"/>
<text text-anchor="middle" x="133" y="-178.8" font-family="Helvetica,sans-Serif" font-weight="bold" font-size="9.00" fill="white">resolve&#45;options</text>
</g>
<g id="clust6" class="cluster">
<title>cluster_src/main/rule&#45;set</title>
<path fill="none" stroke="white" stroke-width="2" d="M100,-198C100,-198 166,-198 166,-198 172,-198 178,-204 178,-210 178,-210 178,-268 178,-268 178,-274 172,-280 166,-280 166,-280 100,-280 100,-280 94,-280 88,-274 88,-268 88,-268 88,-210 88,-210 88,-204 94,-198 100,-198"/>
<text text-anchor="middle" x="133" y="-268.8" font-family="Helvetica,sans-Serif" font-weight="bold" font-size="9.00" fill="white">rule&#45;set</text>
</g>
<!-- src/main/files&#45;and&#45;dirs/normalize.mjs -->
<g id="node1" class="node">
<title>src/main/files&#45;and&#45;dirs/normalize.mjs</title>
<g id="a_node1"><a xlink:href="src/main/files-and-dirs/normalize.mjs" xlink:title="normalize.mjs">
<path fill="#ffffff" fill-opacity="0.200000" stroke="white" d="M164,-50C164,-50 102,-50 102,-50 99,-50 96,-47 96,-44 96,-44 96,-38 96,-38 96,-35 99,-32 102,-32 102,-32 164,-32 164,-32 167,-32 170,-35 170,-38 170,-38 170,-44 170,-44 170,-47 167,-50 164,-50"/>
<text text-anchor="start" x="104" y="-38.8" font-family="Helvetica,sans-Serif" font-size="9.00" fill="white">normalize.mjs</text>
</a>
</g>
</g>
<!-- src/main/helpers.mjs -->
<g id="node2" class="node">
<title>src/main/helpers.mjs</title>
<g id="a_node2"><a xlink:href="src/main/helpers.mjs" xlink:title="helpers.mjs">
<path fill="#ffffff" fill-opacity="0.200000" stroke="white" d="M339.5,-224C339.5,-224 287.5,-224 287.5,-224 284.5,-224 281.5,-221 281.5,-218 281.5,-218 281.5,-212 281.5,-212 281.5,-209 284.5,-206 287.5,-206 287.5,-206 339.5,-206 339.5,-206 342.5,-206 345.5,-209 345.5,-212 345.5,-212 345.5,-218 345.5,-218 345.5,-221 342.5,-224 339.5,-224"/>
<text text-anchor="start" x="289.5" y="-212.8" font-family="Helvetica,sans-Serif" font-size="9.00" fill="white">helpers.mjs</text>
</a>
</g>
</g>
<!-- src/main/index.d.ts -->
<g id="node3" class="node">
<title>src/main/index.d.ts</title>
<g id="a_node3"><a xlink:href="src/main/index.d.ts" xlink:title="index.d.ts">
<path fill="#ccffcc" stroke="white" d="M74,-224C74,-224 30,-224 30,-224 27,-224 24,-221 24,-218 24,-218 24,-212 24,-212 24,-209 27,-206 30,-206 30,-206 74,-206 74,-206 77,-206 80,-209 80,-212 80,-212 80,-218 80,-218 80,-221 77,-224 74,-224"/>
<text text-anchor="start" x="32" y="-212.8" font-family="Helvetica,sans-Serif" font-size="9.00" fill="white">index.d.ts</text>
</a>
</g>
</g>
<!-- src/main/index.mjs -->
<g id="node4" class="node">
<title>src/main/index.mjs</title>
<g id="a_node4"><a xlink:href="src/main/index.mjs" xlink:title="index.mjs">
<path fill="#ffffff" fill-opacity="0.200000" stroke="white" d="M74,-138C74,-138 30,-138 30,-138 27,-138 24,-135 24,-132 24,-132 24,-126 24,-126 24,-123 27,-120 30,-120 30,-120 74,-120 74,-120 77,-120 80,-123 80,-126 80,-126 80,-132 80,-132 80,-135 77,-138 74,-138"/>
<text text-anchor="start" x="32" y="-126.8" font-family="Helvetica,sans-Serif" font-size="9.00" fill="white">index.mjs</text>
</a>
</g>
</g>
<!-- src/main/index.mjs&#45;&gt;src/main/files&#45;and&#45;dirs/normalize.mjs -->
<g id="edge1" class="edge">
<title>src/main/index.mjs&#45;&gt;src/main/files&#45;and&#45;dirs/normalize.mjs</title>
<path fill="none" stroke="white" d="M43,-119.58C43,-96.88 43,-41 43,-41 43,-41 90.61,-41 90.61,-41"/>
<polygon fill="white" stroke="white" points="95.61,-41 90.61,-43.25 93.11,-41 90.61,-41 90.61,-41 90.61,-41 93.11,-41 90.61,-38.75 95.61,-41 95.61,-41"/>
</g>
<!-- src/main/options/normalize.mjs -->
<g id="node5" class="node">
<title>src/main/options/normalize.mjs</title>
<g id="a_node5"><a xlink:href="src/main/options/normalize.mjs" xlink:title="normalize.mjs">
<path fill="#ffffff" fill-opacity="0.200000" stroke="white" d="M262,-133C262,-133 200,-133 200,-133 197,-133 194,-130 194,-127 194,-127 194,-121 194,-121 194,-118 197,-115 200,-115 200,-115 262,-115 262,-115 265,-115 268,-118 268,-121 268,-121 268,-127 268,-127 268,-130 265,-133 262,-133"/>
<text text-anchor="start" x="202" y="-121.8" font-family="Helvetica,sans-Serif" font-size="9.00" fill="white">normalize.mjs</text>
</a>
</g>
</g>
<!-- src/main/index.mjs&#45;&gt;src/main/options/normalize.mjs -->
<g id="edge2" class="edge">
<title>src/main/index.mjs&#45;&gt;src/main/options/normalize.mjs</title>
<path fill="none" stroke="white" d="M80.36,-122.6C80.36,-122.6 188.76,-122.6 188.76,-122.6"/>
<polygon fill="white" stroke="white" points="193.76,-122.6 188.76,-124.85 191.26,-122.6 188.76,-122.6 188.76,-122.6 188.76,-122.6 191.26,-122.6 188.76,-120.35 193.76,-122.6 193.76,-122.6"/>
</g>
<!-- src/main/options/validate.mjs -->
<g id="node6" class="node">
<title>src/main/options/validate.mjs</title>
<g id="a_node6"><a xlink:href="src/main/options/validate.mjs" xlink:title="validate.mjs">
<path fill="#ffffff" fill-opacity="0.200000" stroke="white" d="M257.5,-163C257.5,-163 204.5,-163 204.5,-163 201.5,-163 198.5,-160 198.5,-157 198.5,-157 198.5,-151 198.5,-151 198.5,-148 201.5,-145 204.5,-145 204.5,-145 257.5,-145 257.5,-145 260.5,-145 263.5,-148 263.5,-151 263.5,-151 263.5,-157 263.5,-157 263.5,-160 260.5,-163 257.5,-163"/>
<text text-anchor="start" x="206.5" y="-151.8" font-family="Helvetica,sans-Serif" font-size="9.00" fill="white">validate.mjs</text>
</a>
</g>
</g>
<!-- src/main/index.mjs&#45;&gt;src/main/options/validate.mjs -->
<g id="edge3" class="edge">
<title>src/main/index.mjs&#45;&gt;src/main/options/validate.mjs</title>
<path fill="none" stroke="white" d="M80.32,-125.2C119.1,-125.2 184,-125.2 184,-125.2 184,-125.2 184,-154.5 184,-154.5 184,-154.5 193.1,-154.5 193.1,-154.5"/>
<polygon fill="white" stroke="white" points="198.1,-154.5 193.1,-156.75 195.6,-154.5 193.1,-154.5 193.1,-154.5 193.1,-154.5 195.6,-154.5 193.1,-152.25 198.1,-154.5 198.1,-154.5"/>
</g>
<!-- src/main/report&#45;wrap.mjs -->
<g id="node7" class="node">
<title>src/main/report&#45;wrap.mjs</title>
<g id="a_node7"><a xlink:href="src/main/report-wrap.mjs" xlink:title="report&#45;wrap.mjs">
<path fill="#ffffff" fill-opacity="0.200000" stroke="white" d="M167,-102C167,-102 99,-102 99,-102 96,-102 93,-99 93,-96 93,-96 93,-90 93,-90 93,-87 96,-84 99,-84 99,-84 167,-84 167,-84 170,-84 173,-87 173,-90 173,-90 173,-96 173,-96 173,-99 170,-102 167,-102"/>
<text text-anchor="start" x="101" y="-90.8" font-family="Helvetica,sans-Serif" font-size="9.00" fill="white">report&#45;wrap.mjs</text>
</a>
</g>
</g>
<!-- src/main/index.mjs&#45;&gt;src/main/report&#45;wrap.mjs -->
<g id="edge4" class="edge">
<title>src/main/index.mjs&#45;&gt;src/main/report&#45;wrap.mjs</title>
<path fill="none" stroke="white" d="M62,-119.54C62,-108.88 62,-93 62,-93 62,-93 87.52,-93 87.52,-93"/>
<polygon fill="white" stroke="white" points="92.52,-93 87.52,-95.25 90.02,-93 87.52,-93 87.52,-93 87.52,-93 90.02,-93 87.52,-90.75 92.52,-93 92.52,-93"/>
</g>
<!-- src/main/resolve&#45;options/normalize.mjs -->
<g id="node8" class="node">
<title>src/main/resolve&#45;options/normalize.mjs</title>
<g id="a_node8"><a xlink:href="src/main/resolve-options/normalize.mjs" xlink:title="normalize.mjs">
<path fill="#ffffff" fill-opacity="0.200000" stroke="white" d="M164,-164C164,-164 102,-164 102,-164 99,-164 96,-161 96,-158 96,-158 96,-152 96,-152 96,-149 99,-146 102,-146 102,-146 164,-146 164,-146 167,-146 170,-149 170,-152 170,-152 170,-158 170,-158 170,-161 167,-164 164,-164"/>
<text text-anchor="start" x="104" y="-152.8" font-family="Helvetica,sans-Serif" font-size="9.00" fill="white">normalize.mjs</text>
</a>
</g>
</g>
<!-- src/main/index.mjs&#45;&gt;src/main/resolve&#45;options/normalize.mjs -->
<g id="edge5" class="edge">
<title>src/main/index.mjs&#45;&gt;src/main/resolve&#45;options/normalize.mjs</title>
<path fill="none" stroke="white" d="M52,-138.39C52,-145.83 52,-155 52,-155 52,-155 90.82,-155 90.82,-155"/>
<polygon fill="white" stroke="white" points="95.82,-155 90.82,-157.25 93.32,-155 90.82,-155 90.82,-155 90.82,-155 93.32,-155 90.82,-152.75 95.82,-155 95.82,-155"/>
</g>
<!-- src/main/rule&#45;set/normalize.mjs -->
<g id="node9" class="node">
<title>src/main/rule&#45;set/normalize.mjs</title>
<g id="a_node9"><a xlink:href="src/main/rule-set/normalize.mjs" xlink:title="normalize.mjs">
<path fill="#ffffff" fill-opacity="0.200000" stroke="white" d="M164,-254C164,-254 102,-254 102,-254 99,-254 96,-251 96,-248 96,-248 96,-242 96,-242 96,-239 99,-236 102,-236 102,-236 164,-236 164,-236 167,-236 170,-239 170,-242 170,-242 170,-248 170,-248 170,-251 167,-254 164,-254"/>
<text text-anchor="start" x="104" y="-242.8" font-family="Helvetica,sans-Serif" font-size="9.00" fill="white">normalize.mjs</text>
</a>
</g>
</g>
<!-- src/main/index.mjs&#45;&gt;src/main/rule&#45;set/normalize.mjs -->
<g id="edge6" class="edge">
<title>src/main/index.mjs&#45;&gt;src/main/rule&#45;set/normalize.mjs</title>
<path fill="none" stroke="white" d="M80.41,-130.4C83.19,-130.4 85,-130.4 85,-130.4 85,-130.4 85,-245 85,-245 85,-245 90.65,-245 90.65,-245"/>
<polygon fill="white" stroke="white" points="95.65,-245 90.65,-247.25 93.15,-245 90.65,-245 90.65,-245 90.65,-245 93.15,-245 90.65,-242.75 95.65,-245 95.65,-245"/>
</g>
<!-- src/main/rule&#45;set/validate.mjs -->
<g id="node10" class="node">
<title>src/main/rule&#45;set/validate.mjs</title>
<g id="a_node10"><a xlink:href="src/main/rule-set/validate.mjs" xlink:title="validate.mjs">
<path fill="#ffffff" fill-opacity="0.200000" stroke="white" d="M159.5,-224C159.5,-224 106.5,-224 106.5,-224 103.5,-224 100.5,-221 100.5,-218 100.5,-218 100.5,-212 100.5,-212 100.5,-209 103.5,-206 106.5,-206 106.5,-206 159.5,-206 159.5,-206 162.5,-206 165.5,-209 165.5,-212 165.5,-212 165.5,-218 165.5,-218 165.5,-221 162.5,-224 159.5,-224"/>
<text text-anchor="start" x="108.5" y="-212.8" font-family="Helvetica,sans-Serif" font-size="9.00" fill="white">validate.mjs</text>
</a>
</g>
</g>
<!-- src/main/index.mjs&#45;&gt;src/main/rule&#45;set/validate.mjs -->
<g id="edge7" class="edge">
<title>src/main/index.mjs&#45;&gt;src/main/rule&#45;set/validate.mjs</title>
<path fill="none" stroke="white" d="M80.42,-127.8C85.39,-127.8 89,-127.8 89,-127.8 89,-127.8 89,-215 89,-215 89,-215 95.1,-215 95.1,-215"/>
<polygon fill="white" stroke="white" points="100.1,-215 95.1,-217.25 97.6,-215 95.1,-215 95.1,-215 95.1,-215 97.6,-215 95.1,-212.75 100.1,-215 100.1,-215"/>
</g>
<!-- src/main/options/normalize.mjs&#45;&gt;src/main/helpers.mjs -->
<g id="edge8" class="edge">
<title>src/main/options/normalize.mjs&#45;&gt;src/main/helpers.mjs</title>
<path fill="none" stroke="white" d="M268.12,-127C272.25,-127 275,-127 275,-127 275,-127 275,-210.5 275,-210.5 275,-210.5 276.02,-210.5 276.02,-210.5"/>
<polygon fill="white" stroke="white" points="281.02,-210.5 276.02,-212.75 278.52,-210.5 276.02,-210.5 276.02,-210.5 276.02,-210.5 278.52,-210.5 276.02,-208.25 281.02,-210.5 281.02,-210.5"/>
</g>
<!-- src/main/options/defaults.mjs -->
<g id="node11" class="node">
<title>src/main/options/defaults.mjs</title>
<g id="a_node11"><a xlink:href="src/main/options/defaults.mjs" xlink:title="defaults.mjs">
<path fill="#ffffff" fill-opacity="0.200000" stroke="white" d="M340,-133C340,-133 287,-133 287,-133 284,-133 281,-130 281,-127 281,-127 281,-121 281,-121 281,-118 284,-115 287,-115 287,-115 340,-115 340,-115 343,-115 346,-118 346,-121 346,-121 346,-127 346,-127 346,-130 343,-133 340,-133"/>
<text text-anchor="start" x="289" y="-121.8" font-family="Helvetica,sans-Serif" font-size="9.00" fill="white">defaults.mjs</text>
</a>
</g>
</g>
<!-- src/main/options/normalize.mjs&#45;&gt;src/main/options/defaults.mjs -->
<g id="edge9" class="edge">
<title>src/main/options/normalize.mjs&#45;&gt;src/main/options/defaults.mjs</title>
<path fill="none" stroke="white" d="M268.39,-121C268.39,-121 275.66,-121 275.66,-121"/>
<polygon fill="white" stroke="white" points="280.66,-121 275.66,-123.25 278.16,-121 275.66,-121 275.66,-121 275.66,-121 278.16,-121 275.66,-118.75 280.66,-121 280.66,-121"/>
</g>
<!-- src/main/rule&#45;set/normalize.mjs&#45;&gt;src/main/helpers.mjs -->
<g id="edge10" class="edge">
<title>src/main/rule&#45;set/normalize.mjs&#45;&gt;src/main/helpers.mjs</title>
<path fill="none" stroke="white" d="M170.06,-245C223.02,-245 314,-245 314,-245 314,-245 314,-229.49 314,-229.49"/>
<polygon fill="white" stroke="white" points="314,-224.49 316.25,-229.49 314,-226.99 314,-229.49 314,-229.49 314,-229.49 314,-226.99 311.75,-229.49 314,-224.49 314,-224.49"/>
</g>
<!-- src/main/rule&#45;set/validate.mjs&#45;&gt;src/main/helpers.mjs -->
<g id="edge11" class="edge">
<title>src/main/rule&#45;set/validate.mjs&#45;&gt;src/main/helpers.mjs</title>
<path fill="none" stroke="white" d="M165.69,-219.5C165.69,-219.5 276.06,-219.5 276.06,-219.5"/>
<polygon fill="white" stroke="white" points="281.06,-219.5 276.06,-221.75 278.56,-219.5 276.06,-219.5 276.06,-219.5 276.06,-219.5 278.56,-219.5 276.06,-217.25 281.06,-219.5 281.06,-219.5"/>
</g>
<!-- src/main/rule&#45;set/validate.mjs&#45;&gt;src/main/options/validate.mjs -->
<g id="edge12" class="edge">
<title>src/main/rule&#45;set/validate.mjs&#45;&gt;src/main/options/validate.mjs</title>
<path fill="none" stroke="white" d="M165.91,-215C194.38,-215 231,-215 231,-215 231,-215 231,-168.26 231,-168.26"/>
<polygon fill="white" stroke="white" points="231,-163.26 233.25,-168.26 231,-165.76 231,-168.26 231,-168.26 231,-168.26 231,-165.76 228.75,-168.26 231,-163.26 231,-163.26"/>
</g>
</g>
</svg>
