<?xml version="1.0" encoding="UTF-8" standalone="no"?>
<!DOCTYPE svg PUBLIC "-//W3C//DTD SVG 1.1//EN"
 "http://www.w3.org/Graphics/SVG/1.1/DTD/svg11.dtd">
<!-- Generated by graphviz version 8.0.1 (20230327.1645)
 -->
<!-- Title: dependency&#45;cruiser output Pages: 1 -->
<svg width="460pt" height="358pt"
 viewBox="0.00 0.00 460.00 358.00" xmlns="http://www.w3.org/2000/svg" xmlns:xlink="http://www.w3.org/1999/xlink">
<g id="graph0" class="graph" transform="scale(1 1) rotate(0) translate(4 354)">
<title>dependency&#45;cruiser output</title>
<polygon fill="dodgerblue" stroke="none" points="-4,4 -4,-354 456,-354 456,4 -4,4"/>
<g id="clust1" class="cluster">
<title>cluster_src</title>
<path fill="none" stroke="white" stroke-width="2" d="M20,-8C20,-8 432,-8 432,-8 438,-8 444,-14 444,-20 444,-20 444,-330 444,-330 444,-336 438,-342 432,-342 432,-342 20,-342 20,-342 14,-342 8,-336 8,-330 8,-330 8,-20 8,-20 8,-14 14,-8 20,-8"/>
<text text-anchor="middle" x="226" y="-330.8" font-family="Helvetica,sans-Serif" font-weight="bold" font-size="9.00" fill="white">src</text>
</g>
<g id="clust2" class="cluster">
<title>cluster_src/main</title>
<path fill="none" stroke="white" stroke-width="2" d="M28,-16C28,-16 424,-16 424,-16 430,-16 436,-22 436,-28 436,-28 436,-304 436,-304 436,-310 430,-316 424,-316 424,-316 28,-316 28,-316 22,-316 16,-310 16,-304 16,-304 16,-28 16,-28 16,-22 22,-16 28,-16"/>
<text text-anchor="middle" x="226" y="-304.8" font-family="Helvetica,sans-Serif" font-weight="bold" font-size="9.00" fill="white">main</text>
</g>
<g id="clust3" class="cluster">
<title>cluster_src/main/files&#45;and&#45;dirs</title>
<path fill="none" stroke="white" stroke-width="2" d="M171,-114C171,-114 237,-114 237,-114 243,-114 249,-120 249,-126 249,-126 249,-154 249,-154 249,-160 243,-166 237,-166 237,-166 171,-166 171,-166 165,-166 159,-160 159,-154 159,-154 159,-126 159,-126 159,-120 165,-114 171,-114"/>
<text text-anchor="middle" x="204" y="-154.8" font-family="Helvetica,sans-Serif" font-weight="bold" font-size="9.00" fill="white">files&#45;and&#45;dirs</text>
</g>
<g id="clust4" class="cluster">
<title>cluster_src/main/options</title>
<path fill="none" stroke="white" stroke-width="2" d="M269,-150C269,-150 416,-150 416,-150 422,-150 428,-156 428,-162 428,-162 428,-220 428,-220 428,-226 422,-232 416,-232 416,-232 269,-232 269,-232 263,-232 257,-226 257,-220 257,-220 257,-162 257,-162 257,-156 263,-150 269,-150"/>
<text text-anchor="middle" x="342.5" y="-220.8" font-family="Helvetica,sans-Serif" font-weight="bold" font-size="9.00" fill="white">options</text>
</g>
<g id="clust5" class="cluster">
<title>cluster_src/main/resolve&#45;options</title>
<path fill="none" stroke="white" stroke-width="2" d="M171,-198C171,-198 237,-198 237,-198 243,-198 249,-204 249,-210 249,-210 249,-238 249,-238 249,-244 243,-250 237,-250 237,-250 171,-250 171,-250 165,-250 159,-244 159,-238 159,-238 159,-210 159,-210 159,-204 165,-198 171,-198"/>
<text text-anchor="middle" x="204" y="-238.8" font-family="Helvetica,sans-Serif" font-weight="bold" font-size="9.00" fill="white">resolve&#45;options</text>
</g>
<g id="clust6" class="cluster">
<title>cluster_src/main/rule&#45;set</title>
<path fill="none" stroke="white" stroke-width="2" d="M171,-24C171,-24 237,-24 237,-24 243,-24 249,-30 249,-36 249,-36 249,-94 249,-94 249,-100 243,-106 237,-106 237,-106 171,-106 171,-106 165,-106 159,-100 159,-94 159,-94 159,-36 159,-36 159,-30 165,-24 171,-24"/>
<text text-anchor="middle" x="204" y="-94.8" font-family="Helvetica,sans-Serif" font-weight="bold" font-size="9.00" fill="white">rule&#45;set</text>
</g>
<!-- src/main/cruise.mjs -->
<g id="node1" class="node">
<title>src/main/cruise.mjs</title>
<g id="a_node1"><a xlink:href="src/main/cruise.mjs" xlink:title="cruise.mjs">
<path fill="#ffffff" fill-opacity="0.200000" stroke="white" d="M145,-191C145,-191 99,-191 99,-191 96,-191 93,-188 93,-185 93,-185 93,-179 93,-179 93,-176 96,-173 99,-173 99,-173 145,-173 145,-173 148,-173 151,-176 151,-179 151,-179 151,-185 151,-185 151,-188 148,-191 145,-191"/>
<text text-anchor="start" x="101" y="-179.8" font-family="Helvetica,sans-Serif" font-size="9.00" fill="white">cruise.mjs</text>
</a>
</g>
</g>
<!-- src/main/files&#45;and&#45;dirs/normalize.mjs -->
<g id="node2" class="node">
<title>src/main/files&#45;and&#45;dirs/normalize.mjs</title>
<g id="a_node2"><a xlink:href="src/main/files-and-dirs/normalize.mjs" xlink:title="normalize.mjs">
<path fill="#ffffff" fill-opacity="0.200000" stroke="white" d="M235,-140C235,-140 173,-140 173,-140 170,-140 167,-137 167,-134 167,-134 167,-128 167,-128 167,-125 170,-122 173,-122 173,-122 235,-122 235,-122 238,-122 241,-125 241,-128 241,-128 241,-134 241,-134 241,-137 238,-140 235,-140"/>
<text text-anchor="start" x="175" y="-128.8" font-family="Helvetica,sans-Serif" font-size="9.00" fill="white">normalize.mjs</text>
</a>
</g>
</g>
<!-- src/main/cruise.mjs&#45;&gt;src/main/files&#45;and&#45;dirs/normalize.mjs -->
<g id="edge1" class="edge">
<title>src/main/cruise.mjs&#45;&gt;src/main/files&#45;and&#45;dirs/normalize.mjs</title>
<path fill="none" stroke="white" stroke-dasharray="5,2" d="M140,-172.65C140,-157.92 140,-131 140,-131 140,-131 161.77,-131 161.77,-131"/>
<polygon fill="white" stroke="white" points="166.77,-131 161.77,-133.25 164.27,-131 161.77,-131 161.77,-131 161.77,-131 164.27,-131 161.77,-128.75 166.77,-131 166.77,-131"/>
</g>
<!-- src/main/options/normalize.mjs -->
<g id="node3" class="node">
<title>src/main/options/normalize.mjs</title>
<g id="a_node3"><a xlink:href="src/main/options/normalize.mjs" xlink:title="normalize.mjs">
<path fill="#ffffff" fill-opacity="0.200000" stroke="white" d="M333,-206C333,-206 271,-206 271,-206 268,-206 265,-203 265,-200 265,-200 265,-194 265,-194 265,-191 268,-188 271,-188 271,-188 333,-188 333,-188 336,-188 339,-191 339,-194 339,-194 339,-200 339,-200 339,-203 336,-206 333,-206"/>
<text text-anchor="start" x="273" y="-194.8" font-family="Helvetica,sans-Serif" font-size="9.00" fill="white">normalize.mjs</text>
</a>
</g>
</g>
<!-- src/main/cruise.mjs&#45;&gt;src/main/options/normalize.mjs -->
<g id="edge2" class="edge">
<title>src/main/cruise.mjs&#45;&gt;src/main/options/normalize.mjs</title>
<path fill="none" stroke="white" d="M137,-191.23C137,-193.6 137,-195.5 137,-195.5 137,-195.5 259.56,-195.5 259.56,-195.5"/>
<polygon fill="white" stroke="white" points="264.56,-195.5 259.56,-197.75 262.06,-195.5 259.56,-195.5 259.56,-195.5 259.56,-195.5 262.06,-195.5 259.56,-193.25 264.56,-195.5 264.56,-195.5"/>
</g>
<!-- src/main/options/validate.mjs -->
<g id="node4" class="node">
<title>src/main/options/validate.mjs</title>
<g id="a_node4"><a xlink:href="src/main/options/validate.mjs" xlink:title="validate.mjs">
<path fill="#ffffff" fill-opacity="0.200000" stroke="white" d="M328.5,-176C328.5,-176 275.5,-176 275.5,-176 272.5,-176 269.5,-173 269.5,-170 269.5,-170 269.5,-164 269.5,-164 269.5,-161 272.5,-158 275.5,-158 275.5,-158 328.5,-158 328.5,-158 331.5,-158 334.5,-161 334.5,-164 334.5,-164 334.5,-170 334.5,-170 334.5,-173 331.5,-176 328.5,-176"/>
<text text-anchor="start" x="277.5" y="-164.8" font-family="Helvetica,sans-Serif" font-size="9.00" fill="white">validate.mjs</text>
</a>
</g>
</g>
<!-- src/main/cruise.mjs&#45;&gt;src/main/options/validate.mjs -->
<g id="edge3" class="edge">
<title>src/main/cruise.mjs&#45;&gt;src/main/options/validate.mjs</title>
<path fill="none" stroke="white" d="M105,-172.5C105,-167.75 105,-163 105,-163 105,-163 264.03,-163 264.03,-163"/>
<polygon fill="white" stroke="white" points="269.03,-163 264.03,-165.25 266.53,-163 264.03,-163 264.03,-163 264.03,-163 266.53,-163 264.03,-160.75 269.03,-163 269.03,-163"/>
</g>
<!-- src/main/report&#45;wrap.mjs -->
<g id="node5" class="node">
<title>src/main/report&#45;wrap.mjs</title>
<g id="a_node5"><a xlink:href="src/main/report-wrap.mjs" xlink:title="report&#45;wrap.mjs">
<path fill="#ffffff" fill-opacity="0.200000" stroke="white" d="M336,-283C336,-283 268,-283 268,-283 265,-283 262,-280 262,-277 262,-277 262,-271 262,-271 262,-268 265,-265 268,-265 268,-265 336,-265 336,-265 339,-265 342,-268 342,-271 342,-271 342,-277 342,-277 342,-280 339,-283 336,-283"/>
<text text-anchor="start" x="270" y="-271.8" font-family="Helvetica,sans-Serif" font-size="9.00" fill="white">report&#45;wrap.mjs</text>
</a>
</g>
</g>
<!-- src/main/cruise.mjs&#45;&gt;src/main/report&#45;wrap.mjs -->
<g id="edge4" class="edge">
<title>src/main/cruise.mjs&#45;&gt;src/main/report&#45;wrap.mjs</title>
<path fill="none" stroke="white" d="M151.22,-182C188.45,-182 248,-182 248,-182 248,-182 248,-268.67 248,-268.67 248,-268.67 256.63,-268.67 256.63,-268.67"/>
<polygon fill="white" stroke="white" points="261.63,-268.67 256.63,-270.92 259.13,-268.67 256.63,-268.67 256.63,-268.67 256.63,-268.67 259.13,-268.67 256.63,-266.42 261.63,-268.67 261.63,-268.67"/>
</g>
<!-- src/main/resolve&#45;options/normalize.mjs -->
<g id="node6" class="node">
<title>src/main/resolve&#45;options/normalize.mjs</title>
<g id="a_node6"><a xlink:href="src/main/resolve-options/normalize.mjs" xlink:title="normalize.mjs">
<path fill="#ffffff" fill-opacity="0.200000" stroke="white" d="M235,-224C235,-224 173,-224 173,-224 170,-224 167,-221 167,-218 167,-218 167,-212 167,-212 167,-209 170,-206 173,-206 173,-206 235,-206 235,-206 238,-206 241,-209 241,-212 241,-212 241,-218 241,-218 241,-221 238,-224 235,-224"/>
<text text-anchor="start" x="175" y="-212.8" font-family="Helvetica,sans-Serif" font-size="9.00" fill="white">normalize.mjs</text>
</a>
</g>
</g>
<!-- src/main/cruise.mjs&#45;&gt;src/main/resolve&#45;options/normalize.mjs -->
<g id="edge5" class="edge">
<title>src/main/cruise.mjs&#45;&gt;src/main/resolve&#45;options/normalize.mjs</title>
<path fill="none" stroke="white" stroke-dasharray="5,2" d="M122,-191.2C122,-201.57 122,-217 122,-217 122,-217 161.84,-217 161.84,-217"/>
<polygon fill="white" stroke="white" points="166.84,-217 161.84,-219.25 164.34,-217 161.84,-217 161.84,-217 161.84,-217 164.34,-217 161.84,-214.75 166.84,-217 166.84,-217"/>
</g>
<!-- src/main/rule&#45;set/normalize.mjs -->
<g id="node7" class="node">
<title>src/main/rule&#45;set/normalize.mjs</title>
<g id="a_node7"><a xlink:href="src/main/rule-set/normalize.mjs" xlink:title="normalize.mjs">
<path fill="#ffffff" fill-opacity="0.200000" stroke="white" d="M235,-50C235,-50 173,-50 173,-50 170,-50 167,-47 167,-44 167,-44 167,-38 167,-38 167,-35 170,-32 173,-32 173,-32 235,-32 235,-32 238,-32 241,-35 241,-38 241,-38 241,-44 241,-44 241,-47 238,-50 235,-50"/>
<text text-anchor="start" x="175" y="-38.8" font-family="Helvetica,sans-Serif" font-size="9.00" fill="white">normalize.mjs</text>
</a>
</g>
</g>
<!-- src/main/cruise.mjs&#45;&gt;src/main/rule&#45;set/normalize.mjs -->
<g id="edge6" class="edge">
<title>src/main/cruise.mjs&#45;&gt;src/main/rule&#45;set/normalize.mjs</title>
<path fill="none" stroke="white" stroke-dasharray="5,2" d="M117,-172.75C117,-141.38 117,-41 117,-41 117,-41 161.6,-41 161.6,-41"/>
<polygon fill="white" stroke="white" points="166.6,-41 161.6,-43.25 164.1,-41 161.6,-41 161.6,-41 161.6,-41 164.1,-41 161.6,-38.75 166.6,-41 166.6,-41"/>
</g>
<!-- src/main/rule&#45;set/validate.mjs -->
<g id="node8" class="node">
<title>src/main/rule&#45;set/validate.mjs</title>
<g id="a_node8"><a xlink:href="src/main/rule-set/validate.mjs" xlink:title="validate.mjs">
<path fill="#ffffff" fill-opacity="0.200000" stroke="white" d="M230.5,-80C230.5,-80 177.5,-80 177.5,-80 174.5,-80 171.5,-77 171.5,-74 171.5,-74 171.5,-68 171.5,-68 171.5,-65 174.5,-62 177.5,-62 177.5,-62 230.5,-62 230.5,-62 233.5,-62 236.5,-65 236.5,-68 236.5,-68 236.5,-74 236.5,-74 236.5,-77 233.5,-80 230.5,-80"/>
<text text-anchor="start" x="179.5" y="-68.8" font-family="Helvetica,sans-Serif" font-size="9.00" fill="white">validate.mjs</text>
</a>
</g>
</g>
<!-- src/main/cruise.mjs&#45;&gt;src/main/rule&#45;set/validate.mjs -->
<g id="edge7" class="edge">
<title>src/main/cruise.mjs&#45;&gt;src/main/rule&#45;set/validate.mjs</title>
<path fill="none" stroke="white" stroke-dasharray="5,2" d="M128,-172.54C128,-145.69 128,-71 128,-71 128,-71 166.33,-71 166.33,-71"/>
<polygon fill="white" stroke="white" points="171.33,-71 166.33,-73.25 168.83,-71 166.33,-71 166.33,-71 166.33,-71 168.83,-71 166.33,-68.75 171.33,-71 171.33,-71"/>
</g>
<!-- src/main/helpers.mjs -->
<g id="node10" class="node">
<title>src/main/helpers.mjs</title>
<g id="a_node10"><a xlink:href="src/main/helpers.mjs" xlink:title="helpers.mjs">
<path fill="#ffffff" fill-opacity="0.200000" stroke="white" d="M413.5,-80C413.5,-80 361.5,-80 361.5,-80 358.5,-80 355.5,-77 355.5,-74 355.5,-74 355.5,-68 355.5,-68 355.5,-65 358.5,-62 361.5,-62 361.5,-62 413.5,-62 413.5,-62 416.5,-62 419.5,-65 419.5,-68 419.5,-68 419.5,-74 419.5,-74 419.5,-77 416.5,-80 413.5,-80"/>
<text text-anchor="start" x="363.5" y="-68.8" font-family="Helvetica,sans-Serif" font-size="9.00" fill="white">helpers.mjs</text>
</a>
</g>
</g>
<!-- src/main/options/normalize.mjs&#45;&gt;src/main/helpers.mjs -->
<g id="edge13" class="edge">
<title>src/main/options/normalize.mjs&#45;&gt;src/main/helpers.mjs</title>
<path fill="none" stroke="white" d="M339.49,-194C345.07,-194 349,-194 349,-194 349,-194 349,-71 349,-71 349,-71 350.02,-71 350.02,-71"/>
<polygon fill="white" stroke="white" points="355.02,-71 350.02,-73.25 352.52,-71 350.02,-71 350.02,-71 350.02,-71 352.52,-71 350.02,-68.75 355.02,-71 355.02,-71"/>
</g>
<!-- src/main/options/defaults.mjs -->
<g id="node13" class="node">
<title>src/main/options/defaults.mjs</title>
<g id="a_node13"><a xlink:href="src/main/options/defaults.mjs" xlink:title="defaults.mjs">
<path fill="#ffffff" fill-opacity="0.200000" stroke="white" d="M414,-206C414,-206 361,-206 361,-206 358,-206 355,-203 355,-200 355,-200 355,-194 355,-194 355,-191 358,-188 361,-188 361,-188 414,-188 414,-188 417,-188 420,-191 420,-194 420,-194 420,-200 420,-200 420,-203 417,-206 414,-206"/>
<text text-anchor="start" x="363" y="-194.8" font-family="Helvetica,sans-Serif" font-size="9.00" fill="white">defaults.mjs</text>
</a>
</g>
</g>
<!-- src/main/options/normalize.mjs&#45;&gt;src/main/options/defaults.mjs -->
<g id="edge14" class="edge">
<title>src/main/options/normalize.mjs&#45;&gt;src/main/options/defaults.mjs</title>
<path fill="none" stroke="white" d="M339.25,-200C339.25,-200 349.66,-200 349.66,-200"/>
<polygon fill="white" stroke="white" points="354.66,-200 349.66,-202.25 352.16,-200 349.66,-200 349.66,-200 349.66,-200 352.16,-200 349.66,-197.75 354.66,-200 354.66,-200"/>
</g>
<!-- src/main/rule&#45;set/normalize.mjs&#45;&gt;src/main/helpers.mjs -->
<g id="edge15" class="edge">
<title>src/main/rule&#45;set/normalize.mjs&#45;&gt;src/main/helpers.mjs</title>
<path fill="none" stroke="white" d="M241.24,-41C295,-41 388,-41 388,-41 388,-41 388,-56.51 388,-56.51"/>
<polygon fill="white" stroke="white" points="388,-61.51 385.75,-56.51 388,-59.01 388,-56.51 388,-56.51 388,-56.51 388,-59.01 390.25,-56.51 388,-61.51 388,-61.51"/>
</g>
<!-- src/main/rule&#45;set/validate.mjs&#45;&gt;src/main/options/validate.mjs -->
<g id="edge17" class="edge">
<title>src/main/rule&#45;set/validate.mjs&#45;&gt;src/main/options/validate.mjs</title>
<path fill="none" stroke="white" d="M236.91,-75.5C265.38,-75.5 302,-75.5 302,-75.5 302,-75.5 302,-152.55 302,-152.55"/>
<polygon fill="white" stroke="white" points="302,-157.55 299.75,-152.55 302,-155.05 302,-152.55 302,-152.55 302,-152.55 302,-155.05 304.25,-152.55 302,-157.55 302,-157.55"/>
</g>
<!-- src/main/rule&#45;set/validate.mjs&#45;&gt;src/main/helpers.mjs -->
<g id="edge16" class="edge">
<title>src/main/rule&#45;set/validate.mjs&#45;&gt;src/main/helpers.mjs</title>
<path fill="none" stroke="white" d="M236.81,-66.5C236.81,-66.5 350.29,-66.5 350.29,-66.5"/>
<polygon fill="white" stroke="white" points="355.29,-66.5 350.29,-68.75 352.79,-66.5 350.29,-66.5 350.29,-66.5 350.29,-66.5 352.79,-66.5 350.29,-64.25 355.29,-66.5 355.29,-66.5"/>
</g>
<!-- src/main/format.mjs -->
<g id="node9" class="node">
<title>src/main/format.mjs</title>
<g id="a_node9"><a xlink:href="src/main/format.mjs" xlink:title="format.mjs">
<path fill="#ffffff" fill-opacity="0.200000" stroke="white" d="M227.5,-276C227.5,-276 180.5,-276 180.5,-276 177.5,-276 174.5,-273 174.5,-270 174.5,-270 174.5,-264 174.5,-264 174.5,-261 177.5,-258 180.5,-258 180.5,-258 227.5,-258 227.5,-258 230.5,-258 233.5,-261 233.5,-264 233.5,-264 233.5,-270 233.5,-270 233.5,-273 230.5,-276 227.5,-276"/>
<text text-anchor="start" x="182.5" y="-264.8" font-family="Helvetica,sans-Serif" font-size="9.00" fill="white">format.mjs</text>
</a>
</g>
</g>
<!-- src/main/format.mjs&#45;&gt;src/main/options/normalize.mjs -->
<g id="edge8" class="edge">
<title>src/main/format.mjs&#45;&gt;src/main/options/normalize.mjs</title>
<path fill="none" stroke="white" d="M233.94,-262.67C262.76,-262.67 302,-262.67 302,-262.67 302,-262.67 302,-211.41 302,-211.41"/>
<polygon fill="white" stroke="white" points="302,-206.41 304.25,-211.41 302,-208.91 302,-211.41 302,-211.41 302,-211.41 302,-208.91 299.75,-211.41 302,-206.41 302,-206.41"/>
</g>
<!-- src/main/format.mjs&#45;&gt;src/main/options/validate.mjs -->
<g id="edge9" class="edge">
<title>src/main/format.mjs&#45;&gt;src/main/options/validate.mjs</title>
<path fill="none" stroke="white" d="M233.96,-260.33C245.06,-260.33 255,-260.33 255,-260.33 255,-260.33 255,-168 255,-168 255,-168 264.1,-168 264.1,-168"/>
<polygon fill="white" stroke="white" points="269.1,-168 264.1,-170.25 266.6,-168 264.1,-168 264.1,-168 264.1,-168 266.6,-168 264.1,-165.75 269.1,-168 269.1,-168"/>
</g>
<!-- src/main/format.mjs&#45;&gt;src/main/report&#45;wrap.mjs -->
<g id="edge10" class="edge">
<title>src/main/format.mjs&#45;&gt;src/main/report&#45;wrap.mjs</title>
<path fill="none" stroke="white" d="M233.94,-272.33C233.94,-272.33 256.78,-272.33 256.78,-272.33"/>
<polygon fill="white" stroke="white" points="261.78,-272.33 256.78,-274.58 259.28,-272.33 256.78,-272.33 256.78,-272.33 256.78,-272.33 259.28,-272.33 256.78,-270.08 261.78,-272.33 261.78,-272.33"/>
</g>
<!-- src/main/index.d.ts -->
<g id="node11" class="node">
<title>src/main/index.d.ts</title>
<g id="a_node11"><a xlink:href="src/main/index.d.ts" xlink:title="index.d.ts">
<path fill="#ccffcc" stroke="white" d="M74,-278C74,-278 30,-278 30,-278 27,-278 24,-275 24,-272 24,-272 24,-266 24,-266 24,-263 27,-260 30,-260 30,-260 74,-260 74,-260 77,-260 80,-263 80,-266 80,-266 80,-272 80,-272 80,-275 77,-278 74,-278"/>
<text text-anchor="start" x="32" y="-266.8" font-family="Helvetica,sans-Serif" font-size="9.00" fill="white">index.d.ts</text>
</a>
</g>
</g>
<!-- src/main/index.mjs -->
<g id="node12" class="node">
<title>src/main/index.mjs</title>
<g id="a_node12"><a xlink:href="src/main/index.mjs" xlink:title="index.mjs">
<path fill="#ffffff" fill-opacity="0.200000" stroke="white" d="M74,-210C74,-210 30,-210 30,-210 27,-210 24,-207 24,-204 24,-204 24,-198 24,-198 24,-195 27,-192 30,-192 30,-192 74,-192 74,-192 77,-192 80,-195 80,-198 80,-198 80,-204 80,-204 80,-207 77,-210 74,-210"/>
<text text-anchor="start" x="32" y="-198.8" font-family="Helvetica,sans-Serif" font-size="9.00" fill="white">index.mjs</text>
</a>
</g>
</g>
<!-- src/main/index.mjs&#45;&gt;src/main/cruise.mjs -->
<g id="edge11" class="edge">
<title>src/main/index.mjs&#45;&gt;src/main/cruise.mjs</title>
<path fill="none" stroke="white" d="M80.33,-202.5C94.22,-202.5 108,-202.5 108,-202.5 108,-202.5 108,-196.29 108,-196.29"/>
<polygon fill="white" stroke="white" points="108,-191.29 110.25,-196.29 108,-193.79 108,-196.29 108,-196.29 108,-196.29 108,-193.79 105.75,-196.29 108,-191.29 108,-191.29"/>
</g>
<!-- src/main/index.mjs&#45;&gt;src/main/format.mjs -->
<g id="edge12" class="edge">
<title>src/main/index.mjs&#45;&gt;src/main/format.mjs</title>
<path fill="none" stroke="white" d="M80.25,-199C84.23,-199 87,-199 87,-199 87,-199 87,-268 87,-268 87,-268 169.17,-268 169.17,-268"/>
<polygon fill="white" stroke="white" points="174.17,-268 169.17,-270.25 171.67,-268 169.17,-268 169.17,-268 169.17,-268 171.67,-268 169.17,-265.75 174.17,-268 174.17,-268"/>
</g>
</g>
</svg>
