<?xml version="1.0" encoding="UTF-8" standalone="no"?>
<!DOCTYPE svg PUBLIC "-//W3C//DTD SVG 1.1//EN"
 "http://www.w3.org/Graphics/SVG/1.1/DTD/svg11.dtd">
<!-- Generated by graphviz version 8.0.1 (20230327.1645)
 -->
<!-- Title: dependency&#45;cruiser output Pages: 1 -->
<svg width="464pt" height="348pt"
 viewBox="0.00 0.00 463.50 348.00" xmlns="http://www.w3.org/2000/svg" xmlns:xlink="http://www.w3.org/1999/xlink">
<g id="graph0" class="graph" transform="scale(1 1) rotate(0) translate(4 344)">
<title>dependency&#45;cruiser output</title>
<polygon fill="dodgerblue" stroke="none" points="-4,4 -4,-344 459.5,-344 459.5,4 -4,4"/>
<g id="clust1" class="cluster">
<title>cluster_src</title>
<path fill="none" stroke="white" stroke-width="2" d="M20,-8C20,-8 435.5,-8 435.5,-8 441.5,-8 447.5,-14 447.5,-20 447.5,-20 447.5,-320 447.5,-320 447.5,-326 441.5,-332 435.5,-332 435.5,-332 20,-332 20,-332 14,-332 8,-326 8,-320 8,-320 8,-20 8,-20 8,-14 14,-8 20,-8"/>
<text text-anchor="middle" x="227.75" y="-320.8" font-family="Helvetica,sans-Serif" font-weight="bold" font-size="9.00" fill="white">src</text>
</g>
<g id="clust2" class="cluster">
<title>cluster_src/main</title>
<path fill="none" stroke="white" stroke-width="2" d="M28,-16C28,-16 427.5,-16 427.5,-16 433.5,-16 439.5,-22 439.5,-28 439.5,-28 439.5,-294 439.5,-294 439.5,-300 433.5,-306 427.5,-306 427.5,-306 28,-306 28,-306 22,-306 16,-300 16,-294 16,-294 16,-28 16,-28 16,-22 22,-16 28,-16"/>
<text text-anchor="middle" x="227.75" y="-294.8" font-family="Helvetica,sans-Serif" font-weight="bold" font-size="9.00" fill="white">main</text>
</g>
<g id="clust3" class="cluster">
<title>cluster_src/main/files&#45;and&#45;dirs</title>
<path fill="none" stroke="white" stroke-width="2" d="M116.5,-24C116.5,-24 174.5,-24 174.5,-24 180.5,-24 186.5,-30 186.5,-36 186.5,-36 186.5,-64 186.5,-64 186.5,-70 180.5,-76 174.5,-76 174.5,-76 116.5,-76 116.5,-76 110.5,-76 104.5,-70 104.5,-64 104.5,-64 104.5,-36 104.5,-36 104.5,-30 110.5,-24 116.5,-24"/>
<text text-anchor="middle" x="145.5" y="-64.8" font-family="Helvetica,sans-Serif" font-weight="bold" font-size="9.00" fill="white">files&#45;and&#45;dirs</text>
</g>
<g id="clust4" class="cluster">
<title>cluster_src/main/options</title>
<path fill="none" stroke="white" stroke-width="2" d="M223.5,-103C223.5,-103 387.5,-103 387.5,-103 393.5,-103 399.5,-109 399.5,-115 399.5,-115 399.5,-173 399.5,-173 399.5,-179 393.5,-185 387.5,-185 387.5,-185 223.5,-185 223.5,-185 217.5,-185 211.5,-179 211.5,-173 211.5,-173 211.5,-115 211.5,-115 211.5,-109 217.5,-103 223.5,-103"/>
<text text-anchor="middle" x="305.5" y="-173.8" font-family="Helvetica,sans-Serif" font-weight="bold" font-size="9.00" fill="white">options</text>
</g>
<g id="clust5" class="cluster">
<title>cluster_src/main/resolve&#45;options</title>
<path fill="none" stroke="white" stroke-width="2" d="M116.5,-138C116.5,-138 175.5,-138 175.5,-138 181.5,-138 187.5,-144 187.5,-150 187.5,-150 187.5,-178 187.5,-178 187.5,-184 181.5,-190 175.5,-190 175.5,-190 116.5,-190 116.5,-190 110.5,-190 104.5,-184 104.5,-178 104.5,-178 104.5,-150 104.5,-150 104.5,-144 110.5,-138 116.5,-138"/>
<text text-anchor="middle" x="146" y="-178.8" font-family="Helvetica,sans-Serif" font-weight="bold" font-size="9.00" fill="white">resolve&#45;options</text>
</g>
<g id="clust6" class="cluster">
<title>cluster_src/main/rule&#45;set</title>
<path fill="none" stroke="white" stroke-width="2" d="M116.5,-198C116.5,-198 174.5,-198 174.5,-198 180.5,-198 186.5,-204 186.5,-210 186.5,-210 186.5,-268 186.5,-268 186.5,-274 180.5,-280 174.5,-280 174.5,-280 116.5,-280 116.5,-280 110.5,-280 104.5,-274 104.5,-268 104.5,-268 104.5,-210 104.5,-210 104.5,-204 110.5,-198 116.5,-198"/>
<text text-anchor="middle" x="145.5" y="-268.8" font-family="Helvetica,sans-Serif" font-weight="bold" font-size="9.00" fill="white">rule&#45;set</text>
</g>
<g id="clust7" class="cluster">
<title>cluster_src/main/utl</title>
<path fill="none" stroke="white" stroke-width="2" d="M305.5,-198C305.5,-198 419.5,-198 419.5,-198 425.5,-198 431.5,-204 431.5,-210 431.5,-210 431.5,-238 431.5,-238 431.5,-244 425.5,-250 419.5,-250 419.5,-250 305.5,-250 305.5,-250 299.5,-250 293.5,-244 293.5,-238 293.5,-238 293.5,-210 293.5,-210 293.5,-204 299.5,-198 305.5,-198"/>
<text text-anchor="middle" x="362.5" y="-238.8" font-family="Helvetica,sans-Serif" font-weight="bold" font-size="9.00" fill="white">utl</text>
</g>
<!-- src/main/files&#45;and&#45;dirs/normalize.js -->
<g id="node1" class="node">
<title>src/main/files&#45;and&#45;dirs/normalize.js</title>
<g id="a_node1"><a xlink:href="src/main/files-and-dirs/normalize.js" xlink:title="normalize.js">
<path fill="#ffffff" fill-opacity="0.200000" stroke="white" d="M172.5,-50C172.5,-50 118.5,-50 118.5,-50 115.5,-50 112.5,-47 112.5,-44 112.5,-44 112.5,-38 112.5,-38 112.5,-35 115.5,-32 118.5,-32 118.5,-32 172.5,-32 172.5,-32 175.5,-32 178.5,-35 178.5,-38 178.5,-38 178.5,-44 178.5,-44 178.5,-47 175.5,-50 172.5,-50"/>
<text text-anchor="start" x="120.5" y="-38.8" font-family="Helvetica,sans-Serif" font-size="9.00" fill="white">normalize.js</text>
</a>
</g>
</g>
<!-- src/main/index.d.ts -->
<g id="node2" class="node">
<title>src/main/index.d.ts</title>
<g id="a_node2"><a xlink:href="src/main/index.d.ts" xlink:title="index.d.ts">
<path fill="#ccffcc" stroke="white" d="M74,-224C74,-224 30,-224 30,-224 27,-224 24,-221 24,-218 24,-218 24,-212 24,-212 24,-209 27,-206 30,-206 30,-206 74,-206 74,-206 77,-206 80,-209 80,-212 80,-212 80,-218 80,-218 80,-221 77,-224 74,-224"/>
<text text-anchor="start" x="32" y="-212.8" font-family="Helvetica,sans-Serif" font-size="9.00" fill="white">index.d.ts</text>
</a>
</g>
</g>
<!-- src/main/index.js -->
<g id="node3" class="node">
<title>src/main/index.js</title>
<g id="a_node3"><a xlink:href="src/main/index.js" xlink:title="index.js">
<path fill="#ffffff" fill-opacity="0.200000" stroke="white" d="M73,-138C73,-138 31,-138 31,-138 28,-138 25,-135 25,-132 25,-132 25,-126 25,-126 25,-123 28,-120 31,-120 31,-120 73,-120 73,-120 76,-120 79,-123 79,-126 79,-126 79,-132 79,-132 79,-135 76,-138 73,-138"/>
<text text-anchor="start" x="36" y="-126.8" font-family="Helvetica,sans-Serif" font-size="9.00" fill="white">index.js</text>
</a>
</g>
</g>
<!-- src/main/index.js&#45;&gt;src/main/files&#45;and&#45;dirs/normalize.js -->
<g id="edge1" class="edge">
<title>src/main/index.js&#45;&gt;src/main/files&#45;and&#45;dirs/normalize.js</title>
<path fill="none" stroke="white" d="M43.5,-119.58C43.5,-96.88 43.5,-41 43.5,-41 43.5,-41 107.1,-41 107.1,-41"/>
<polygon fill="white" stroke="white" points="112.1,-41 107.1,-43.25 109.6,-41 107.1,-41 107.1,-41 107.1,-41 109.6,-41 107.1,-38.75 112.1,-41 112.1,-41"/>
</g>
<!-- src/main/options/normalize.js -->
<g id="node4" class="node">
<title>src/main/options/normalize.js</title>
<g id="a_node4"><a xlink:href="src/main/options/normalize.js" xlink:title="normalize.js">
<path fill="#ffffff" fill-opacity="0.200000" stroke="white" d="M279.5,-129C279.5,-129 225.5,-129 225.5,-129 222.5,-129 219.5,-126 219.5,-123 219.5,-123 219.5,-117 219.5,-117 219.5,-114 222.5,-111 225.5,-111 225.5,-111 279.5,-111 279.5,-111 282.5,-111 285.5,-114 285.5,-117 285.5,-117 285.5,-123 285.5,-123 285.5,-126 282.5,-129 279.5,-129"/>
<text text-anchor="start" x="227.5" y="-117.8" font-family="Helvetica,sans-Serif" font-size="9.00" fill="white">normalize.js</text>
</a>
</g>
</g>
<!-- src/main/index.js&#45;&gt;src/main/options/normalize.js -->
<g id="edge2" class="edge">
<title>src/main/index.js&#45;&gt;src/main/options/normalize.js</title>
<path fill="none" stroke="white" d="M79.46,-124.5C79.46,-124.5 214.04,-124.5 214.04,-124.5"/>
<polygon fill="white" stroke="white" points="219.04,-124.5 214.04,-126.75 216.54,-124.5 214.04,-124.5 214.04,-124.5 214.04,-124.5 216.54,-124.5 214.04,-122.25 219.04,-124.5 219.04,-124.5"/>
</g>
<!-- src/main/options/validate.js -->
<g id="node5" class="node">
<title>src/main/options/validate.js</title>
<g id="a_node5"><a xlink:href="src/main/options/validate.js" xlink:title="validate.js">
<path fill="#ffffff" fill-opacity="0.200000" stroke="white" d="M275.5,-159C275.5,-159 229.5,-159 229.5,-159 226.5,-159 223.5,-156 223.5,-153 223.5,-153 223.5,-147 223.5,-147 223.5,-144 226.5,-141 229.5,-141 229.5,-141 275.5,-141 275.5,-141 278.5,-141 281.5,-144 281.5,-147 281.5,-147 281.5,-153 281.5,-153 281.5,-156 278.5,-159 275.5,-159"/>
<text text-anchor="start" x="231.5" y="-147.8" font-family="Helvetica,sans-Serif" font-size="9.00" fill="white">validate.js</text>
</a>
</g>
</g>
<!-- src/main/index.js&#45;&gt;src/main/options/validate.js -->
<g id="edge3" class="edge">
<title>src/main/index.js&#45;&gt;src/main/options/validate.js</title>
<path fill="none" stroke="white" d="M79.46,-131.25C134.37,-131.25 252.5,-131.25 252.5,-131.25 252.5,-131.25 252.5,-135.62 252.5,-135.62"/>
<polygon fill="white" stroke="white" points="252.5,-140.62 250.25,-135.62 252.5,-138.12 252.5,-135.62 252.5,-135.62 252.5,-135.62 252.5,-138.12 254.75,-135.63 252.5,-140.62 252.5,-140.62"/>
</g>
<!-- src/main/report&#45;wrap.js -->
<g id="node6" class="node">
<title>src/main/report&#45;wrap.js</title>
<g id="a_node6"><a xlink:href="src/main/report-wrap.js" xlink:title="report&#45;wrap.js">
<path fill="#ffffff" fill-opacity="0.200000" stroke="white" d="M176,-102C176,-102 115,-102 115,-102 112,-102 109,-99 109,-96 109,-96 109,-90 109,-90 109,-87 112,-84 115,-84 115,-84 176,-84 176,-84 179,-84 182,-87 182,-90 182,-90 182,-96 182,-96 182,-99 179,-102 176,-102"/>
<text text-anchor="start" x="117" y="-90.8" font-family="Helvetica,sans-Serif" font-size="9.00" fill="white">report&#45;wrap.js</text>
</a>
</g>
</g>
<!-- src/main/index.js&#45;&gt;src/main/report&#45;wrap.js -->
<g id="edge4" class="edge">
<title>src/main/index.js&#45;&gt;src/main/report&#45;wrap.js</title>
<path fill="none" stroke="white" d="M61.5,-119.54C61.5,-108.88 61.5,-93 61.5,-93 61.5,-93 103.9,-93 103.9,-93"/>
<polygon fill="white" stroke="white" points="108.9,-93 103.9,-95.25 106.4,-93 103.9,-93 103.9,-93 103.9,-93 106.4,-93 103.9,-90.75 108.9,-93 108.9,-93"/>
</g>
<!-- src/main/resolve&#45;options/normalize.js -->
<g id="node7" class="node">
<title>src/main/resolve&#45;options/normalize.js</title>
<g id="a_node7"><a xlink:href="src/main/resolve-options/normalize.js" xlink:title="normalize.js">
<path fill="#ffffff" fill-opacity="0.200000" stroke="white" d="M172.5,-164C172.5,-164 118.5,-164 118.5,-164 115.5,-164 112.5,-161 112.5,-158 112.5,-158 112.5,-152 112.5,-152 112.5,-149 115.5,-146 118.5,-146 118.5,-146 172.5,-146 172.5,-146 175.5,-146 178.5,-149 178.5,-152 178.5,-152 178.5,-158 178.5,-158 178.5,-161 175.5,-164 172.5,-164"/>
<text text-anchor="start" x="120.5" y="-152.8" font-family="Helvetica,sans-Serif" font-size="9.00" fill="white">normalize.js</text>
</a>
</g>
</g>
<!-- src/main/index.js&#45;&gt;src/main/resolve&#45;options/normalize.js -->
<g id="edge5" class="edge">
<title>src/main/index.js&#45;&gt;src/main/resolve&#45;options/normalize.js</title>
<path fill="none" stroke="white" d="M52.5,-138.39C52.5,-145.83 52.5,-155 52.5,-155 52.5,-155 107.19,-155 107.19,-155"/>
<polygon fill="white" stroke="white" points="112.19,-155 107.19,-157.25 109.69,-155 107.19,-155 107.19,-155 107.19,-155 109.69,-155 107.19,-152.75 112.19,-155 112.19,-155"/>
</g>
<!-- src/main/rule&#45;set/normalize.js -->
<g id="node8" class="node">
<title>src/main/rule&#45;set/normalize.js</title>
<g id="a_node8"><a xlink:href="src/main/rule-set/normalize.js" xlink:title="normalize.js">
<path fill="#ffffff" fill-opacity="0.200000" stroke="white" d="M172.5,-254C172.5,-254 118.5,-254 118.5,-254 115.5,-254 112.5,-251 112.5,-248 112.5,-248 112.5,-242 112.5,-242 112.5,-239 115.5,-236 118.5,-236 118.5,-236 172.5,-236 172.5,-236 175.5,-236 178.5,-239 178.5,-242 178.5,-242 178.5,-248 178.5,-248 178.5,-251 175.5,-254 172.5,-254"/>
<text text-anchor="start" x="120.5" y="-242.8" font-family="Helvetica,sans-Serif" font-size="9.00" fill="white">normalize.js</text>
</a>
</g>
</g>
<!-- src/main/index.js&#45;&gt;src/main/rule&#45;set/normalize.js -->
<g id="edge6" class="edge">
<title>src/main/index.js&#45;&gt;src/main/rule&#45;set/normalize.js</title>
<path fill="none" stroke="white" d="M79.16,-135.75C85.53,-135.75 90.5,-135.75 90.5,-135.75 90.5,-135.75 90.5,-245 90.5,-245 90.5,-245 107.24,-245 107.24,-245"/>
<polygon fill="white" stroke="white" points="112.24,-245 107.24,-247.25 109.74,-245 107.24,-245 107.24,-245 107.24,-245 109.74,-245 107.24,-242.75 112.24,-245 112.24,-245"/>
</g>
<!-- src/main/rule&#45;set/validate.js -->
<g id="node9" class="node">
<title>src/main/rule&#45;set/validate.js</title>
<g id="a_node9"><a xlink:href="src/main/rule-set/validate.js" xlink:title="validate.js">
<path fill="#ffffff" fill-opacity="0.200000" stroke="white" d="M168.5,-224C168.5,-224 122.5,-224 122.5,-224 119.5,-224 116.5,-221 116.5,-218 116.5,-218 116.5,-212 116.5,-212 116.5,-209 119.5,-206 122.5,-206 122.5,-206 168.5,-206 168.5,-206 171.5,-206 174.5,-209 174.5,-212 174.5,-212 174.5,-218 174.5,-218 174.5,-221 171.5,-224 168.5,-224"/>
<text text-anchor="start" x="124.5" y="-212.8" font-family="Helvetica,sans-Serif" font-size="9.00" fill="white">validate.js</text>
</a>
</g>
</g>
<!-- src/main/index.js&#45;&gt;src/main/rule&#45;set/validate.js -->
<g id="edge7" class="edge">
<title>src/main/index.js&#45;&gt;src/main/rule&#45;set/validate.js</title>
<path fill="none" stroke="white" d="M79.36,-133.5C89.91,-133.5 99.5,-133.5 99.5,-133.5 99.5,-133.5 99.5,-215 99.5,-215 99.5,-215 111.11,-215 111.11,-215"/>
<polygon fill="white" stroke="white" points="116.11,-215 111.11,-217.25 113.61,-215 111.11,-215 111.11,-215 111.11,-215 113.61,-215 111.11,-212.75 116.11,-215 116.11,-215"/>
</g>
<!-- src/main/options/defaults.js -->
<g id="node10" class="node">
<title>src/main/options/defaults.js</title>
<g id="a_node10"><a xlink:href="src/main/options/defaults.js" xlink:title="defaults.js">
<path fill="#ffffff" fill-opacity="0.200000" stroke="white" d="M385.5,-129C385.5,-129 339.5,-129 339.5,-129 336.5,-129 333.5,-126 333.5,-123 333.5,-123 333.5,-117 333.5,-117 333.5,-114 336.5,-111 339.5,-111 339.5,-111 385.5,-111 385.5,-111 388.5,-111 391.5,-114 391.5,-117 391.5,-117 391.5,-123 391.5,-123 391.5,-126 388.5,-129 385.5,-129"/>
<text text-anchor="start" x="341.5" y="-117.8" font-family="Helvetica,sans-Serif" font-size="9.00" fill="white">defaults.js</text>
</a>
</g>
</g>
<!-- src/main/options/normalize.js&#45;&gt;src/main/options/defaults.js -->
<g id="edge9" class="edge">
<title>src/main/options/normalize.js&#45;&gt;src/main/options/defaults.js</title>
<path fill="none" stroke="white" d="M285.8,-117C285.8,-117 328.04,-117 328.04,-117"/>
<polygon fill="white" stroke="white" points="333.04,-117 328.04,-119.25 330.54,-117 328.04,-117 328.04,-117 328.04,-117 330.54,-117 328.04,-114.75 333.04,-117 333.04,-117"/>
</g>
<!-- src/main/utl/normalize&#45;re&#45;properties.js -->
<g id="node11" class="node">
<title>src/main/utl/normalize&#45;re&#45;properties.js</title>
<g id="a_node11"><a xlink:href="src/main/utl/normalize-re-properties.js" xlink:title="normalize&#45;re&#45;properties.js">
<path fill="#ffffff" fill-opacity="0.200000" stroke="white" d="M417.5,-224C417.5,-224 307.5,-224 307.5,-224 304.5,-224 301.5,-221 301.5,-218 301.5,-218 301.5,-212 301.5,-212 301.5,-209 304.5,-206 307.5,-206 307.5,-206 417.5,-206 417.5,-206 420.5,-206 423.5,-209 423.5,-212 423.5,-212 423.5,-218 423.5,-218 423.5,-221 420.5,-224 417.5,-224"/>
<text text-anchor="start" x="309.5" y="-212.8" font-family="Helvetica,sans-Serif" font-size="9.00" fill="white">normalize&#45;re&#45;properties.js</text>
</a>
</g>
</g>
<!-- src/main/options/normalize.js&#45;&gt;src/main/utl/normalize&#45;re&#45;properties.js -->
<g id="edge8" class="edge">
<title>src/main/options/normalize.js&#45;&gt;src/main/utl/normalize&#45;re&#45;properties.js</title>
<path fill="none" stroke="white" d="M285.76,-123C301.75,-123 317.5,-123 317.5,-123 317.5,-123 317.5,-200.5 317.5,-200.5"/>
<polygon fill="white" stroke="white" points="317.5,-205.5 315.25,-200.5 317.5,-203 317.5,-200.5 317.5,-200.5 317.5,-200.5 317.5,-203 319.75,-200.5 317.5,-205.5 317.5,-205.5"/>
</g>
<!-- src/main/rule&#45;set/normalize.js&#45;&gt;src/main/utl/normalize&#45;re&#45;properties.js -->
<g id="edge10" class="edge">
<title>src/main/rule&#45;set/normalize.js&#45;&gt;src/main/utl/normalize&#45;re&#45;properties.js</title>
<path fill="none" stroke="white" d="M178.93,-245C239.8,-245 362.5,-245 362.5,-245 362.5,-245 362.5,-229.49 362.5,-229.49"/>
<polygon fill="white" stroke="white" points="362.5,-224.49 364.75,-229.49 362.5,-226.99 362.5,-229.49 362.5,-229.49 362.5,-229.49 362.5,-226.99 360.25,-229.49 362.5,-224.49 362.5,-224.49"/>
</g>
<!-- src/main/rule&#45;set/validate.js&#45;&gt;src/main/options/validate.js -->
<g id="edge11" class="edge">
<title>src/main/rule&#45;set/validate.js&#45;&gt;src/main/options/validate.js</title>
<path fill="none" stroke="white" d="M174.74,-212C206.42,-212 252.5,-212 252.5,-212 252.5,-212 252.5,-164.42 252.5,-164.42"/>
<polygon fill="white" stroke="white" points="252.5,-159.42 254.75,-164.42 252.5,-161.92 252.5,-164.42 252.5,-164.42 252.5,-164.42 252.5,-161.92 250.25,-164.42 252.5,-159.42 252.5,-159.42"/>
</g>
<!-- src/main/rule&#45;set/validate.js&#45;&gt;src/main/utl/normalize&#45;re&#45;properties.js -->
<g id="edge12" class="edge">
<title>src/main/rule&#45;set/validate.js&#45;&gt;src/main/utl/normalize&#45;re&#45;properties.js</title>
<path fill="none" stroke="white" d="M174.77,-218C174.77,-218 296.3,-218 296.3,-218"/>
<polygon fill="white" stroke="white" points="301.3,-218 296.3,-220.25 298.8,-218 296.3,-218 296.3,-218 296.3,-218 298.8,-218 296.3,-215.75 301.3,-218 301.3,-218"/>
</g>
</g>
</svg>
