<?xml version="1.0" encoding="UTF-8" standalone="no"?>
<!DOCTYPE svg PUBLIC "-//W3C//DTD SVG 1.1//EN"
 "http://www.w3.org/Graphics/SVG/1.1/DTD/svg11.dtd">
<!-- Generated by graphviz version 2.44.0 (20200408.0750)
 -->
<!-- Title: dependency&#45;cruiser output Pages: 1 -->
<svg width="404pt" height="318pt"
 viewBox="0.00 0.00 404.00 318.00" xmlns="http://www.w3.org/2000/svg" xmlns:xlink="http://www.w3.org/1999/xlink">
<g id="graph0" class="graph" transform="scale(1 1) rotate(0) translate(4 314)">
<title>dependency&#45;cruiser output</title>
<polygon fill="dodgerblue" stroke="transparent" points="-4,4 -4,-314 400,-314 400,4 -4,4"/>
<g id="clust1" class="cluster">
<title>cluster_src</title>
<path fill="transparent" stroke="white" stroke-width="2" d="M20,-8C20,-8 376,-8 376,-8 382,-8 388,-14 388,-20 388,-20 388,-290 388,-290 388,-296 382,-302 376,-302 376,-302 20,-302 20,-302 14,-302 8,-296 8,-290 8,-290 8,-20 8,-20 8,-14 14,-8 20,-8"/>
<text text-anchor="middle" x="198" y="-290.8" font-family="Helvetica,sans-Serif" font-weight="bold" font-size="9.00" fill="white">src</text>
</g>
<g id="clust2" class="cluster">
<title>cluster_src/main</title>
<path fill="transparent" stroke="white" stroke-width="2" d="M28,-16C28,-16 368,-16 368,-16 374,-16 380,-22 380,-28 380,-28 380,-264 380,-264 380,-270 374,-276 368,-276 368,-276 28,-276 28,-276 22,-276 16,-270 16,-264 16,-264 16,-28 16,-28 16,-22 22,-16 28,-16"/>
<text text-anchor="middle" x="198" y="-264.8" font-family="Helvetica,sans-Serif" font-weight="bold" font-size="9.00" fill="white">main</text>
</g>
<g id="clust3" class="cluster">
<title>cluster_src/main/files&#45;and&#45;dirs</title>
<path fill="transparent" stroke="white" stroke-width="2" d="M114,-24C114,-24 172,-24 172,-24 178,-24 184,-30 184,-36 184,-36 184,-64 184,-64 184,-70 178,-76 172,-76 172,-76 114,-76 114,-76 108,-76 102,-70 102,-64 102,-64 102,-36 102,-36 102,-30 108,-24 114,-24"/>
<text text-anchor="middle" x="143" y="-64.8" font-family="Helvetica,sans-Serif" font-weight="bold" font-size="9.00" fill="white">files&#45;and&#45;dirs</text>
</g>
<g id="clust4" class="cluster">
<title>cluster_src/main/options</title>
<path fill="transparent" stroke="white" stroke-width="2" d="M221,-68C221,-68 360,-68 360,-68 366,-68 372,-74 372,-80 372,-80 372,-138 372,-138 372,-144 366,-150 360,-150 360,-150 221,-150 221,-150 215,-150 209,-144 209,-138 209,-138 209,-80 209,-80 209,-74 215,-68 221,-68"/>
<text text-anchor="middle" x="290.5" y="-138.8" font-family="Helvetica,sans-Serif" font-weight="bold" font-size="9.00" fill="white">options</text>
</g>
<g id="clust5" class="cluster">
<title>cluster_src/main/resolve&#45;options</title>
<path fill="transparent" stroke="white" stroke-width="2" d="M114,-108C114,-108 173,-108 173,-108 179,-108 185,-114 185,-120 185,-120 185,-148 185,-148 185,-154 179,-160 173,-160 173,-160 114,-160 114,-160 108,-160 102,-154 102,-148 102,-148 102,-120 102,-120 102,-114 108,-108 114,-108"/>
<text text-anchor="middle" x="143.5" y="-148.8" font-family="Helvetica,sans-Serif" font-weight="bold" font-size="9.00" fill="white">resolve&#45;options</text>
</g>
<g id="clust6" class="cluster">
<title>cluster_src/main/rule&#45;set</title>
<path fill="transparent" stroke="white" stroke-width="2" d="M114,-168C114,-168 172,-168 172,-168 178,-168 184,-174 184,-180 184,-180 184,-238 184,-238 184,-244 178,-250 172,-250 172,-250 114,-250 114,-250 108,-250 102,-244 102,-238 102,-238 102,-180 102,-180 102,-174 108,-168 114,-168"/>
<text text-anchor="middle" x="143" y="-238.8" font-family="Helvetica,sans-Serif" font-weight="bold" font-size="9.00" fill="white">rule&#45;set</text>
</g>
<!-- src/main/files&#45;and&#45;dirs/normalize.js -->
<g id="node1" class="node">
<title>src/main/files&#45;and&#45;dirs/normalize.js</title>
<g id="a_node1"><a xlink:href="src/main/files-and-dirs/normalize.js" xlink:title="normalize.js">
<path fill="#ffffff" fill-opacity="0.200000" stroke="white" d="M170,-50C170,-50 116,-50 116,-50 113,-50 110,-47 110,-44 110,-44 110,-38 110,-38 110,-35 113,-32 116,-32 116,-32 170,-32 170,-32 173,-32 176,-35 176,-38 176,-38 176,-44 176,-44 176,-47 173,-50 170,-50"/>
<text text-anchor="middle" x="143" y="-38.8" font-family="Helvetica,sans-Serif" font-size="9.00" fill="white">normalize.js</text>
</a>
</g>
</g>
<!-- src/main/index.js -->
<g id="node2" class="node">
<title>src/main/index.js</title>
<g id="a_node2"><a xlink:href="src/main/index.js" xlink:title="index.js">
<path fill="#ffffff" fill-opacity="0.200000" stroke="white" d="M72,-121C72,-121 30,-121 30,-121 27,-121 24,-118 24,-115 24,-115 24,-109 24,-109 24,-106 27,-103 30,-103 30,-103 72,-103 72,-103 75,-103 78,-106 78,-109 78,-109 78,-115 78,-115 78,-118 75,-121 72,-121"/>
<text text-anchor="middle" x="51" y="-109.8" font-family="Helvetica,sans-Serif" font-size="9.00" fill="white">index.js</text>
</a>
</g>
</g>
<!-- src/main/index.js&#45;&gt;src/main/files&#45;and&#45;dirs/normalize.js -->
<g id="edge1" class="edge">
<title>src/main/index.js&#45;&gt;src/main/files&#45;and&#45;dirs/normalize.js</title>
<path fill="none" stroke="white" d="M42,-102.72C42,-83.47 42,-41 42,-41 42,-41 104.93,-41 104.93,-41"/>
<polygon fill="white" stroke="white" points="109.93,-41 104.93,-43.25 107.43,-41 104.93,-41 104.93,-41 104.93,-41 107.43,-41 104.93,-38.75 109.93,-41 109.93,-41"/>
</g>
<!-- src/main/options/normalize.js -->
<g id="node3" class="node">
<title>src/main/options/normalize.js</title>
<g id="a_node3"><a xlink:href="src/main/options/normalize.js" xlink:title="normalize.js">
<path fill="#ffffff" fill-opacity="0.200000" stroke="white" d="M277,-94C277,-94 223,-94 223,-94 220,-94 217,-91 217,-88 217,-88 217,-82 217,-82 217,-79 220,-76 223,-76 223,-76 277,-76 277,-76 280,-76 283,-79 283,-82 283,-82 283,-88 283,-88 283,-91 280,-94 277,-94"/>
<text text-anchor="middle" x="250" y="-82.8" font-family="Helvetica,sans-Serif" font-size="9.00" fill="white">normalize.js</text>
</a>
</g>
</g>
<!-- src/main/index.js&#45;&gt;src/main/options/normalize.js -->
<g id="edge2" class="edge">
<title>src/main/index.js&#45;&gt;src/main/options/normalize.js</title>
<path fill="none" stroke="white" d="M60,-102.86C60,-95.03 60,-85 60,-85 60,-85 211.9,-85 211.9,-85"/>
<polygon fill="white" stroke="white" points="216.9,-85 211.9,-87.25 214.4,-85 211.9,-85 211.9,-85 211.9,-85 214.4,-85 211.9,-82.75 216.9,-85 216.9,-85"/>
</g>
<!-- src/main/options/validate.js -->
<g id="node4" class="node">
<title>src/main/options/validate.js</title>
<g id="a_node4"><a xlink:href="src/main/options/validate.js" xlink:title="validate.js">
<path fill="#ffffff" fill-opacity="0.200000" stroke="white" d="M273,-124C273,-124 227,-124 227,-124 224,-124 221,-121 221,-118 221,-118 221,-112 221,-112 221,-109 224,-106 227,-106 227,-106 273,-106 273,-106 276,-106 279,-109 279,-112 279,-112 279,-118 279,-118 279,-121 276,-124 273,-124"/>
<text text-anchor="middle" x="250" y="-112.8" font-family="Helvetica,sans-Serif" font-size="9.00" fill="white">validate.js</text>
</a>
</g>
</g>
<!-- src/main/index.js&#45;&gt;src/main/options/validate.js -->
<g id="edge3" class="edge">
<title>src/main/index.js&#45;&gt;src/main/options/validate.js</title>
<path fill="none" stroke="white" d="M78.25,-111C78.25,-111 215.82,-111 215.82,-111"/>
<polygon fill="white" stroke="white" points="220.82,-111 215.82,-113.25 218.32,-111 215.82,-111 215.82,-111 215.82,-111 218.32,-111 215.82,-108.75 220.82,-111 220.82,-111"/>
</g>
<!-- src/main/resolve&#45;options/normalize.js -->
<g id="node5" class="node">
<title>src/main/resolve&#45;options/normalize.js</title>
<g id="a_node5"><a xlink:href="src/main/resolve-options/normalize.js" xlink:title="normalize.js">
<path fill="#ffffff" fill-opacity="0.200000" stroke="white" d="M170,-134C170,-134 116,-134 116,-134 113,-134 110,-131 110,-128 110,-128 110,-122 110,-122 110,-119 113,-116 116,-116 116,-116 170,-116 170,-116 173,-116 176,-119 176,-122 176,-122 176,-128 176,-128 176,-131 173,-134 170,-134"/>
<text text-anchor="middle" x="143" y="-122.8" font-family="Helvetica,sans-Serif" font-size="9.00" fill="white">normalize.js</text>
</a>
</g>
</g>
<!-- src/main/index.js&#45;&gt;src/main/resolve&#45;options/normalize.js -->
<g id="edge4" class="edge">
<title>src/main/index.js&#45;&gt;src/main/resolve&#45;options/normalize.js</title>
<path fill="none" stroke="white" d="M65,-121.2C65,-124.53 65,-127.5 65,-127.5 65,-127.5 104.92,-127.5 104.92,-127.5"/>
<polygon fill="white" stroke="white" points="109.92,-127.5 104.92,-129.75 107.42,-127.5 104.92,-127.5 104.92,-127.5 104.92,-127.5 107.42,-127.5 104.92,-125.25 109.92,-127.5 109.92,-127.5"/>
</g>
<!-- src/main/rule&#45;set/normalize.js -->
<g id="node6" class="node">
<title>src/main/rule&#45;set/normalize.js</title>
<g id="a_node6"><a xlink:href="src/main/rule-set/normalize.js" xlink:title="normalize.js">
<path fill="#ffffff" fill-opacity="0.200000" stroke="white" d="M170,-224C170,-224 116,-224 116,-224 113,-224 110,-221 110,-218 110,-218 110,-212 110,-212 110,-209 113,-206 116,-206 116,-206 170,-206 170,-206 173,-206 176,-209 176,-212 176,-212 176,-218 176,-218 176,-221 173,-224 170,-224"/>
<text text-anchor="middle" x="143" y="-212.8" font-family="Helvetica,sans-Serif" font-size="9.00" fill="white">normalize.js</text>
</a>
</g>
</g>
<!-- src/main/index.js&#45;&gt;src/main/rule&#45;set/normalize.js -->
<g id="edge5" class="edge">
<title>src/main/index.js&#45;&gt;src/main/rule&#45;set/normalize.js</title>
<path fill="none" stroke="white" d="M38,-121.14C38,-146.35 38,-215 38,-215 38,-215 104.78,-215 104.78,-215"/>
<polygon fill="white" stroke="white" points="109.78,-215 104.78,-217.25 107.28,-215 104.78,-215 104.78,-215 104.78,-215 107.28,-215 104.78,-212.75 109.78,-215 109.78,-215"/>
</g>
<!-- src/main/rule&#45;set/validate.js -->
<g id="node7" class="node">
<title>src/main/rule&#45;set/validate.js</title>
<g id="a_node7"><a xlink:href="src/main/rule-set/validate.js" xlink:title="validate.js">
<path fill="#ffffff" fill-opacity="0.200000" stroke="white" d="M166,-194C166,-194 120,-194 120,-194 117,-194 114,-191 114,-188 114,-188 114,-182 114,-182 114,-179 117,-176 120,-176 120,-176 166,-176 166,-176 169,-176 172,-179 172,-182 172,-182 172,-188 172,-188 172,-191 169,-194 166,-194"/>
<text text-anchor="middle" x="143" y="-182.8" font-family="Helvetica,sans-Serif" font-size="9.00" fill="white">validate.js</text>
</a>
</g>
</g>
<!-- src/main/index.js&#45;&gt;src/main/rule&#45;set/validate.js -->
<g id="edge6" class="edge">
<title>src/main/index.js&#45;&gt;src/main/rule&#45;set/validate.js</title>
<path fill="none" stroke="white" d="M51,-121.25C51,-140.89 51,-185 51,-185 51,-185 108.89,-185 108.89,-185"/>
<polygon fill="white" stroke="white" points="113.89,-185 108.89,-187.25 111.39,-185 108.89,-185 108.89,-185 108.89,-185 111.39,-185 108.89,-182.75 113.89,-185 113.89,-185"/>
</g>
<!-- src/main/options/defaults.json -->
<g id="node8" class="node">
<title>src/main/options/defaults.json</title>
<g id="a_node8"><a xlink:href="src/main/options/defaults.json" xlink:title="defaults.json">
<defs>
<linearGradient id="l_0" gradientUnits="userSpaceOnUse" x1="296" y1="-88" x2="364" y2="-88" >
<stop offset="0" style="stop-color:#ffffff;stop-opacity:0.200000;"/>
<stop offset="1" style="stop-color:#ffffff;stop-opacity:0.533333;"/>
</linearGradient>
</defs>
<path fill="url(#l_0)" stroke="white" d="M364,-98.02C364,-99.25 348.76,-100.25 330,-100.25 311.24,-100.25 296,-99.25 296,-98.02 296,-98.02 296,-77.98 296,-77.98 296,-76.75 311.24,-75.75 330,-75.75 348.76,-75.75 364,-76.75 364,-77.98 364,-77.98 364,-98.02 364,-98.02"/>
<path fill="none" stroke="white" d="M364,-98.02C364,-96.79 348.76,-95.8 330,-95.8 311.24,-95.8 296,-96.79 296,-98.02"/>
<text text-anchor="middle" x="330" y="-85.8" font-family="Helvetica,sans-Serif" font-size="9.00" fill="white">defaults.json</text>
</a>
</g>
</g>
<!-- src/main/options/normalize.js&#45;&gt;src/main/options/defaults.json -->
<g id="edge7" class="edge">
<title>src/main/options/normalize.js&#45;&gt;src/main/options/defaults.json</title>
<path fill="none" stroke="white" d="M283,-85C283,-85 290.78,-85 290.78,-85"/>
<polygon fill="none" stroke="white" points="295.78,-83 295.78,-87 291.78,-87 291.78,-83 295.78,-83"/>
<polyline fill="none" stroke="white" points="291.78,-85 290.78,-85 "/>
</g>
<!-- src/main/rule&#45;set/validate.js&#45;&gt;src/main/options/validate.js -->
<g id="edge8" class="edge">
<title>src/main/rule&#45;set/validate.js&#45;&gt;src/main/options/validate.js</title>
<path fill="none" stroke="white" d="M172.24,-185C203.92,-185 250,-185 250,-185 250,-185 250,-129.15 250,-129.15"/>
<polygon fill="white" stroke="white" points="250,-124.15 252.25,-129.15 250,-126.65 250,-129.15 250,-129.15 250,-129.15 250,-126.65 247.75,-129.15 250,-124.15 250,-124.15"/>
</g>
</g>
</svg>
