<?xml version="1.0" encoding="UTF-8" standalone="no"?>
<!DOCTYPE svg PUBLIC "-//W3C//DTD SVG 1.1//EN"
 "http://www.w3.org/Graphics/SVG/1.1/DTD/svg11.dtd">
<!-- Generated by graphviz version 2.44.0 (20200408.0750)
 -->
<!-- Title: dependency&#45;cruiser output Pages: 1 -->
<svg width="461pt" height="344pt"
 viewBox="0.00 0.00 461.00 344.00" xmlns="http://www.w3.org/2000/svg" xmlns:xlink="http://www.w3.org/1999/xlink">
<g id="graph0" class="graph" transform="scale(1 1) rotate(0) translate(4 340)">
<title>dependency&#45;cruiser output</title>
<polygon fill="dodgerblue" stroke="transparent" points="-4,4 -4,-340 457,-340 457,4 -4,4"/>
<g id="clust1" class="cluster">
<title>cluster_src</title>
<path fill="transparent" stroke="white" stroke-width="2" d="M20,-8C20,-8 433,-8 433,-8 439,-8 445,-14 445,-20 445,-20 445,-316 445,-316 445,-322 439,-328 433,-328 433,-328 20,-328 20,-328 14,-328 8,-322 8,-316 8,-316 8,-20 8,-20 8,-14 14,-8 20,-8"/>
<text text-anchor="middle" x="226.5" y="-316.8" font-family="Helvetica,sans-Serif" font-weight="bold" font-size="9.00" fill="white">src</text>
</g>
<g id="clust2" class="cluster">
<title>cluster_src/main</title>
<path fill="transparent" stroke="white" stroke-width="2" d="M28,-16C28,-16 425,-16 425,-16 431,-16 437,-22 437,-28 437,-28 437,-290 437,-290 437,-296 431,-302 425,-302 425,-302 28,-302 28,-302 22,-302 16,-296 16,-290 16,-290 16,-28 16,-28 16,-22 22,-16 28,-16"/>
<text text-anchor="middle" x="226.5" y="-290.8" font-family="Helvetica,sans-Serif" font-weight="bold" font-size="9.00" fill="white">main</text>
</g>
<g id="clust3" class="cluster">
<title>cluster_src/main/files&#45;and&#45;dirs</title>
<path fill="transparent" stroke="white" stroke-width="2" d="M114,-50C114,-50 172,-50 172,-50 178,-50 184,-56 184,-62 184,-62 184,-90 184,-90 184,-96 178,-102 172,-102 172,-102 114,-102 114,-102 108,-102 102,-96 102,-90 102,-90 102,-62 102,-62 102,-56 108,-50 114,-50"/>
<text text-anchor="middle" x="143" y="-90.8" font-family="Helvetica,sans-Serif" font-weight="bold" font-size="9.00" fill="white">files&#45;and&#45;dirs</text>
</g>
<g id="clust4" class="cluster">
<title>cluster_src/main/options</title>
<path fill="transparent" stroke="white" stroke-width="2" d="M221,-99C221,-99 390,-99 390,-99 396,-99 402,-105 402,-111 402,-111 402,-169 402,-169 402,-175 396,-181 390,-181 390,-181 221,-181 221,-181 215,-181 209,-175 209,-169 209,-169 209,-111 209,-111 209,-105 215,-99 221,-99"/>
<text text-anchor="middle" x="305.5" y="-169.8" font-family="Helvetica,sans-Serif" font-weight="bold" font-size="9.00" fill="white">options</text>
</g>
<g id="clust5" class="cluster">
<title>cluster_src/main/resolve&#45;options</title>
<path fill="transparent" stroke="white" stroke-width="2" d="M114,-134C114,-134 173,-134 173,-134 179,-134 185,-140 185,-146 185,-146 185,-174 185,-174 185,-180 179,-186 173,-186 173,-186 114,-186 114,-186 108,-186 102,-180 102,-174 102,-174 102,-146 102,-146 102,-140 108,-134 114,-134"/>
<text text-anchor="middle" x="143.5" y="-174.8" font-family="Helvetica,sans-Serif" font-weight="bold" font-size="9.00" fill="white">resolve&#45;options</text>
</g>
<g id="clust6" class="cluster">
<title>cluster_src/main/rule&#45;set</title>
<path fill="transparent" stroke="white" stroke-width="2" d="M114,-194C114,-194 172,-194 172,-194 178,-194 184,-200 184,-206 184,-206 184,-264 184,-264 184,-270 178,-276 172,-276 172,-276 114,-276 114,-276 108,-276 102,-270 102,-264 102,-264 102,-206 102,-206 102,-200 108,-194 114,-194"/>
<text text-anchor="middle" x="143" y="-264.8" font-family="Helvetica,sans-Serif" font-weight="bold" font-size="9.00" fill="white">rule&#45;set</text>
</g>
<g id="clust7" class="cluster">
<title>cluster_src/main/utl</title>
<path fill="transparent" stroke="white" stroke-width="2" d="M303,-209C303,-209 417,-209 417,-209 423,-209 429,-215 429,-221 429,-221 429,-249 429,-249 429,-255 423,-261 417,-261 417,-261 303,-261 303,-261 297,-261 291,-255 291,-249 291,-249 291,-221 291,-221 291,-215 297,-209 303,-209"/>
<text text-anchor="middle" x="360" y="-249.8" font-family="Helvetica,sans-Serif" font-weight="bold" font-size="9.00" fill="white">utl</text>
</g>
<!-- src/main/bus.js -->
<g id="node1" class="node">
<title>src/main/bus.js</title>
<g id="a_node1"><a xlink:href="src/main/bus.js" xlink:title="bus.js">
<path fill="#ffffff" fill-opacity="0.200000" stroke="white" d="M164,-42C164,-42 122,-42 122,-42 119,-42 116,-39 116,-36 116,-36 116,-30 116,-30 116,-27 119,-24 122,-24 122,-24 164,-24 164,-24 167,-24 170,-27 170,-30 170,-30 170,-36 170,-36 170,-39 167,-42 164,-42"/>
<text text-anchor="middle" x="143" y="-30.8" font-family="Helvetica,sans-Serif" font-size="9.00" fill="white">bus.js</text>
</a>
</g>
</g>
<!-- src/main/files&#45;and&#45;dirs/normalize.js -->
<g id="node2" class="node">
<title>src/main/files&#45;and&#45;dirs/normalize.js</title>
<g id="a_node2"><a xlink:href="src/main/files-and-dirs/normalize.js" xlink:title="normalize.js">
<path fill="#ffffff" fill-opacity="0.200000" stroke="white" d="M170,-76C170,-76 116,-76 116,-76 113,-76 110,-73 110,-70 110,-70 110,-64 110,-64 110,-61 113,-58 116,-58 116,-58 170,-58 170,-58 173,-58 176,-61 176,-64 176,-64 176,-70 176,-70 176,-73 173,-76 170,-76"/>
<text text-anchor="middle" x="143" y="-64.8" font-family="Helvetica,sans-Serif" font-size="9.00" fill="white">normalize.js</text>
</a>
</g>
</g>
<!-- src/main/index.js -->
<g id="node3" class="node">
<title>src/main/index.js</title>
<g id="a_node3"><a xlink:href="src/main/index.js" xlink:title="index.js">
<path fill="#ffffff" fill-opacity="0.200000" stroke="white" d="M72,-134C72,-134 30,-134 30,-134 27,-134 24,-131 24,-128 24,-128 24,-122 24,-122 24,-119 27,-116 30,-116 30,-116 72,-116 72,-116 75,-116 78,-119 78,-122 78,-122 78,-128 78,-128 78,-131 75,-134 72,-134"/>
<text text-anchor="middle" x="51" y="-122.8" font-family="Helvetica,sans-Serif" font-size="9.00" fill="white">index.js</text>
</a>
</g>
</g>
<!-- src/main/index.js&#45;&gt;src/main/bus.js -->
<g id="edge1" class="edge">
<title>src/main/index.js&#45;&gt;src/main/bus.js</title>
<path fill="none" stroke="white" d="M42,-115.84C42,-92.57 42,-33 42,-33 42,-33 110.93,-33 110.93,-33"/>
<polygon fill="white" stroke="white" points="115.93,-33 110.93,-35.25 113.43,-33 110.93,-33 110.93,-33 110.93,-33 113.43,-33 110.93,-30.75 115.93,-33 115.93,-33"/>
</g>
<!-- src/main/index.js&#45;&gt;src/main/files&#45;and&#45;dirs/normalize.js -->
<g id="edge2" class="edge">
<title>src/main/index.js&#45;&gt;src/main/files&#45;and&#45;dirs/normalize.js</title>
<path fill="none" stroke="white" d="M60,-115.94C60,-99.62 60,-67 60,-67 60,-67 104.72,-67 104.72,-67"/>
<polygon fill="white" stroke="white" points="109.72,-67 104.72,-69.25 107.22,-67 104.72,-67 104.72,-67 104.72,-67 107.22,-67 104.72,-64.75 109.72,-67 109.72,-67"/>
</g>
<!-- src/main/options/normalize.js -->
<g id="node4" class="node">
<title>src/main/options/normalize.js</title>
<g id="a_node4"><a xlink:href="src/main/options/normalize.js" xlink:title="normalize.js">
<path fill="#ffffff" fill-opacity="0.200000" stroke="white" d="M277,-125C277,-125 223,-125 223,-125 220,-125 217,-122 217,-119 217,-119 217,-113 217,-113 217,-110 220,-107 223,-107 223,-107 277,-107 277,-107 280,-107 283,-110 283,-113 283,-113 283,-119 283,-119 283,-122 280,-125 277,-125"/>
<text text-anchor="middle" x="250" y="-113.8" font-family="Helvetica,sans-Serif" font-size="9.00" fill="white">normalize.js</text>
</a>
</g>
</g>
<!-- src/main/index.js&#45;&gt;src/main/options/normalize.js -->
<g id="edge3" class="edge">
<title>src/main/index.js&#45;&gt;src/main/options/normalize.js</title>
<path fill="none" stroke="white" d="M78.25,-119C78.25,-119 211.79,-119 211.79,-119"/>
<polygon fill="white" stroke="white" points="216.79,-119 211.79,-121.25 214.29,-119 211.79,-119 211.79,-119 211.79,-119 214.29,-119 211.79,-116.75 216.79,-119 216.79,-119"/>
</g>
<!-- src/main/options/validate.js -->
<g id="node5" class="node">
<title>src/main/options/validate.js</title>
<g id="a_node5"><a xlink:href="src/main/options/validate.js" xlink:title="validate.js">
<path fill="#ffffff" fill-opacity="0.200000" stroke="white" d="M273,-155C273,-155 227,-155 227,-155 224,-155 221,-152 221,-149 221,-149 221,-143 221,-143 221,-140 224,-137 227,-137 227,-137 273,-137 273,-137 276,-137 279,-140 279,-143 279,-143 279,-149 279,-149 279,-152 276,-155 273,-155"/>
<text text-anchor="middle" x="250" y="-143.8" font-family="Helvetica,sans-Serif" font-size="9.00" fill="white">validate.js</text>
</a>
</g>
</g>
<!-- src/main/index.js&#45;&gt;src/main/options/validate.js -->
<g id="edge4" class="edge">
<title>src/main/index.js&#45;&gt;src/main/options/validate.js</title>
<path fill="none" stroke="white" d="M78.12,-122C120.34,-122 197,-122 197,-122 197,-122 197,-148.5 197,-148.5 197,-148.5 215.71,-148.5 215.71,-148.5"/>
<polygon fill="white" stroke="white" points="220.71,-148.5 215.71,-150.75 218.21,-148.5 215.71,-148.5 215.71,-148.5 215.71,-148.5 218.21,-148.5 215.71,-146.25 220.71,-148.5 220.71,-148.5"/>
</g>
<!-- src/main/resolve&#45;options/normalize.js -->
<g id="node6" class="node">
<title>src/main/resolve&#45;options/normalize.js</title>
<g id="a_node6"><a xlink:href="src/main/resolve-options/normalize.js" xlink:title="normalize.js">
<path fill="#ffffff" fill-opacity="0.200000" stroke="white" d="M170,-160C170,-160 116,-160 116,-160 113,-160 110,-157 110,-154 110,-154 110,-148 110,-148 110,-145 113,-142 116,-142 116,-142 170,-142 170,-142 173,-142 176,-145 176,-148 176,-148 176,-154 176,-154 176,-157 173,-160 170,-160"/>
<text text-anchor="middle" x="143" y="-148.8" font-family="Helvetica,sans-Serif" font-size="9.00" fill="white">normalize.js</text>
</a>
</g>
</g>
<!-- src/main/index.js&#45;&gt;src/main/resolve&#45;options/normalize.js -->
<g id="edge5" class="edge">
<title>src/main/index.js&#45;&gt;src/main/resolve&#45;options/normalize.js</title>
<path fill="none" stroke="white" d="M65,-134.09C65,-141.59 65,-151 65,-151 65,-151 104.92,-151 104.92,-151"/>
<polygon fill="white" stroke="white" points="109.92,-151 104.92,-153.25 107.42,-151 104.92,-151 104.92,-151 104.92,-151 107.42,-151 104.92,-148.75 109.92,-151 109.92,-151"/>
</g>
<!-- src/main/rule&#45;set/normalize.js -->
<g id="node7" class="node">
<title>src/main/rule&#45;set/normalize.js</title>
<g id="a_node7"><a xlink:href="src/main/rule-set/normalize.js" xlink:title="normalize.js">
<path fill="#ffffff" fill-opacity="0.200000" stroke="white" d="M170,-250C170,-250 116,-250 116,-250 113,-250 110,-247 110,-244 110,-244 110,-238 110,-238 110,-235 113,-232 116,-232 116,-232 170,-232 170,-232 173,-232 176,-235 176,-238 176,-238 176,-244 176,-244 176,-247 173,-250 170,-250"/>
<text text-anchor="middle" x="143" y="-238.8" font-family="Helvetica,sans-Serif" font-size="9.00" fill="white">normalize.js</text>
</a>
</g>
</g>
<!-- src/main/index.js&#45;&gt;src/main/rule&#45;set/normalize.js -->
<g id="edge6" class="edge">
<title>src/main/index.js&#45;&gt;src/main/rule&#45;set/normalize.js</title>
<path fill="none" stroke="white" d="M38,-134.1C38,-161.45 38,-241 38,-241 38,-241 104.78,-241 104.78,-241"/>
<polygon fill="white" stroke="white" points="109.78,-241 104.78,-243.25 107.28,-241 104.78,-241 104.78,-241 104.78,-241 107.28,-241 104.78,-238.75 109.78,-241 109.78,-241"/>
</g>
<!-- src/main/rule&#45;set/validate.js -->
<g id="node8" class="node">
<title>src/main/rule&#45;set/validate.js</title>
<g id="a_node8"><a xlink:href="src/main/rule-set/validate.js" xlink:title="validate.js">
<path fill="#ffffff" fill-opacity="0.200000" stroke="white" d="M166,-220C166,-220 120,-220 120,-220 117,-220 114,-217 114,-214 114,-214 114,-208 114,-208 114,-205 117,-202 120,-202 120,-202 166,-202 166,-202 169,-202 172,-205 172,-208 172,-208 172,-214 172,-214 172,-217 169,-220 166,-220"/>
<text text-anchor="middle" x="143" y="-208.8" font-family="Helvetica,sans-Serif" font-size="9.00" fill="white">validate.js</text>
</a>
</g>
</g>
<!-- src/main/index.js&#45;&gt;src/main/rule&#45;set/validate.js -->
<g id="edge7" class="edge">
<title>src/main/index.js&#45;&gt;src/main/rule&#45;set/validate.js</title>
<path fill="none" stroke="white" d="M51,-134.2C51,-156.39 51,-211 51,-211 51,-211 108.89,-211 108.89,-211"/>
<polygon fill="white" stroke="white" points="113.89,-211 108.89,-213.25 111.39,-211 108.89,-211 108.89,-211 108.89,-211 111.39,-211 108.89,-208.75 113.89,-211 113.89,-211"/>
</g>
<!-- src/main/options/defaults.json -->
<g id="node9" class="node">
<title>src/main/options/defaults.json</title>
<g id="a_node9"><a xlink:href="src/main/options/defaults.json" xlink:title="defaults.json">
<defs>
<linearGradient id="l_0" gradientUnits="userSpaceOnUse" x1="326" y1="-119" x2="394" y2="-119" >
<stop offset="0" style="stop-color:#ffffff;stop-opacity:0.200000;"/>
<stop offset="1" style="stop-color:#ffffff;stop-opacity:0.533333;"/>
</linearGradient>
</defs>
<path fill="url(#l_0)" stroke="white" d="M394,-129.02C394,-130.25 378.76,-131.25 360,-131.25 341.24,-131.25 326,-130.25 326,-129.02 326,-129.02 326,-108.98 326,-108.98 326,-107.75 341.24,-106.75 360,-106.75 378.76,-106.75 394,-107.75 394,-108.98 394,-108.98 394,-129.02 394,-129.02"/>
<path fill="none" stroke="white" d="M394,-129.02C394,-127.79 378.76,-126.8 360,-126.8 341.24,-126.8 326,-127.79 326,-129.02"/>
<text text-anchor="middle" x="360" y="-116.8" font-family="Helvetica,sans-Serif" font-size="9.00" fill="white">defaults.json</text>
</a>
</g>
</g>
<!-- src/main/options/normalize.js&#45;&gt;src/main/options/defaults.json -->
<g id="edge9" class="edge">
<title>src/main/options/normalize.js&#45;&gt;src/main/options/defaults.json</title>
<path fill="none" stroke="white" d="M283,-113C283,-113 320.88,-113 320.88,-113"/>
<polygon fill="none" stroke="white" points="325.88,-111 325.88,-115 321.88,-115 321.88,-111 325.88,-111"/>
<polyline fill="none" stroke="white" points="321.88,-113 320.88,-113 "/>
</g>
<!-- src/main/utl/normalize&#45;re&#45;properties.js -->
<g id="node10" class="node">
<title>src/main/utl/normalize&#45;re&#45;properties.js</title>
<g id="a_node10"><a xlink:href="src/main/utl/normalize-re-properties.js" xlink:title="normalize&#45;re&#45;properties.js">
<path fill="#ffffff" fill-opacity="0.200000" stroke="white" d="M415,-235C415,-235 305,-235 305,-235 302,-235 299,-232 299,-229 299,-229 299,-223 299,-223 299,-220 302,-217 305,-217 305,-217 415,-217 415,-217 418,-217 421,-220 421,-223 421,-223 421,-229 421,-229 421,-232 418,-235 415,-235"/>
<text text-anchor="middle" x="360" y="-223.8" font-family="Helvetica,sans-Serif" font-size="9.00" fill="white">normalize&#45;re&#45;properties.js</text>
</a>
</g>
</g>
<!-- src/main/options/normalize.js&#45;&gt;src/main/utl/normalize&#45;re&#45;properties.js -->
<g id="edge8" class="edge">
<title>src/main/options/normalize.js&#45;&gt;src/main/utl/normalize&#45;re&#45;properties.js</title>
<path fill="none" stroke="white" d="M283.34,-119C298.46,-119 313,-119 313,-119 313,-119 313,-211.88 313,-211.88"/>
<polygon fill="white" stroke="white" points="313,-216.88 310.75,-211.88 313,-214.38 313,-211.88 313,-211.88 313,-211.88 313,-214.38 315.25,-211.88 313,-216.88 313,-216.88"/>
</g>
<!-- src/main/rule&#45;set/normalize.js&#45;&gt;src/main/utl/normalize&#45;re&#45;properties.js -->
<g id="edge10" class="edge">
<title>src/main/rule&#45;set/normalize.js&#45;&gt;src/main/utl/normalize&#45;re&#45;properties.js</title>
<path fill="none" stroke="white" d="M143,-231.76C143,-228.67 143,-226 143,-226 143,-226 293.98,-226 293.98,-226"/>
<polygon fill="white" stroke="white" points="298.98,-226 293.98,-228.25 296.48,-226 293.98,-226 293.98,-226 293.98,-226 296.48,-226 293.98,-223.75 298.98,-226 298.98,-226"/>
</g>
<!-- src/main/rule&#45;set/validate.js&#45;&gt;src/main/options/validate.js -->
<g id="edge11" class="edge">
<title>src/main/rule&#45;set/validate.js&#45;&gt;src/main/options/validate.js</title>
<path fill="none" stroke="white" d="M172.24,-209.5C203.92,-209.5 250,-209.5 250,-209.5 250,-209.5 250,-160.1 250,-160.1"/>
<polygon fill="white" stroke="white" points="250,-155.1 252.25,-160.1 250,-157.6 250,-160.1 250,-160.1 250,-160.1 250,-157.6 247.75,-160.1 250,-155.1 250,-155.1"/>
</g>
</g>
</svg>
