<?xml version="1.0" encoding="UTF-8" standalone="no"?>
<!DOCTYPE svg PUBLIC "-//W3C//DTD SVG 1.1//EN"
 "http://www.w3.org/Graphics/SVG/1.1/DTD/svg11.dtd">
<!-- Generated by graphviz version 3.0.0 (20220226.1711)
 -->
<!-- Title: dependency&#45;cruiser output Pages: 1 -->
<svg width="462pt" height="348pt"
 viewBox="0.00 0.00 461.50 348.00" xmlns="http://www.w3.org/2000/svg" xmlns:xlink="http://www.w3.org/1999/xlink">
<g id="graph0" class="graph" transform="scale(1 1) rotate(0) translate(4 344)">
<title>dependency&#45;cruiser output</title>
<polygon fill="dodgerblue" stroke="transparent" points="-4,4 -4,-344 457.5,-344 457.5,4 -4,4"/>
<g id="clust1" class="cluster">
<title>cluster_src</title>
<path fill="transparent" stroke="white" stroke-width="2" d="M20,-8C20,-8 433.5,-8 433.5,-8 439.5,-8 445.5,-14 445.5,-20 445.5,-20 445.5,-320 445.5,-320 445.5,-326 439.5,-332 433.5,-332 433.5,-332 20,-332 20,-332 14,-332 8,-326 8,-320 8,-320 8,-20 8,-20 8,-14 14,-8 20,-8"/>
<text text-anchor="middle" x="226.75" y="-320.8" font-family="Helvetica,sans-Serif" font-weight="bold" font-size="9.00" fill="white">src</text>
</g>
<g id="clust2" class="cluster">
<title>cluster_src/main</title>
<path fill="transparent" stroke="white" stroke-width="2" d="M28,-16C28,-16 425.5,-16 425.5,-16 431.5,-16 437.5,-22 437.5,-28 437.5,-28 437.5,-294 437.5,-294 437.5,-300 431.5,-306 425.5,-306 425.5,-306 28,-306 28,-306 22,-306 16,-300 16,-294 16,-294 16,-28 16,-28 16,-22 22,-16 28,-16"/>
<text text-anchor="middle" x="226.75" y="-294.8" font-family="Helvetica,sans-Serif" font-weight="bold" font-size="9.00" fill="white">main</text>
</g>
<g id="clust3" class="cluster">
<title>cluster_src/main/files&#45;and&#45;dirs</title>
<path fill="transparent" stroke="white" stroke-width="2" d="M114.5,-24C114.5,-24 172.5,-24 172.5,-24 178.5,-24 184.5,-30 184.5,-36 184.5,-36 184.5,-64 184.5,-64 184.5,-70 178.5,-76 172.5,-76 172.5,-76 114.5,-76 114.5,-76 108.5,-76 102.5,-70 102.5,-64 102.5,-64 102.5,-36 102.5,-36 102.5,-30 108.5,-24 114.5,-24"/>
<text text-anchor="middle" x="143.5" y="-64.8" font-family="Helvetica,sans-Serif" font-weight="bold" font-size="9.00" fill="white">files&#45;and&#45;dirs</text>
</g>
<g id="clust4" class="cluster">
<title>cluster_src/main/options</title>
<path fill="transparent" stroke="white" stroke-width="2" d="M221.5,-77C221.5,-77 385.5,-77 385.5,-77 391.5,-77 397.5,-83 397.5,-89 397.5,-89 397.5,-147 397.5,-147 397.5,-153 391.5,-159 385.5,-159 385.5,-159 221.5,-159 221.5,-159 215.5,-159 209.5,-153 209.5,-147 209.5,-147 209.5,-89 209.5,-89 209.5,-83 215.5,-77 221.5,-77"/>
<text text-anchor="middle" x="303.5" y="-147.8" font-family="Helvetica,sans-Serif" font-weight="bold" font-size="9.00" fill="white">options</text>
</g>
<g id="clust6" class="cluster">
<title>cluster_src/main/rule&#45;set</title>
<path fill="transparent" stroke="white" stroke-width="2" d="M114.5,-198C114.5,-198 172.5,-198 172.5,-198 178.5,-198 184.5,-204 184.5,-210 184.5,-210 184.5,-268 184.5,-268 184.5,-274 178.5,-280 172.5,-280 172.5,-280 114.5,-280 114.5,-280 108.5,-280 102.5,-274 102.5,-268 102.5,-268 102.5,-210 102.5,-210 102.5,-204 108.5,-198 114.5,-198"/>
<text text-anchor="middle" x="143.5" y="-268.8" font-family="Helvetica,sans-Serif" font-weight="bold" font-size="9.00" fill="white">rule&#45;set</text>
</g>
<g id="clust5" class="cluster">
<title>cluster_src/main/resolve&#45;options</title>
<path fill="transparent" stroke="white" stroke-width="2" d="M114.5,-138C114.5,-138 173.5,-138 173.5,-138 179.5,-138 185.5,-144 185.5,-150 185.5,-150 185.5,-178 185.5,-178 185.5,-184 179.5,-190 173.5,-190 173.5,-190 114.5,-190 114.5,-190 108.5,-190 102.5,-184 102.5,-178 102.5,-178 102.5,-150 102.5,-150 102.5,-144 108.5,-138 114.5,-138"/>
<text text-anchor="middle" x="144" y="-178.8" font-family="Helvetica,sans-Serif" font-weight="bold" font-size="9.00" fill="white">resolve&#45;options</text>
</g>
<g id="clust7" class="cluster">
<title>cluster_src/main/utl</title>
<path fill="transparent" stroke="white" stroke-width="2" d="M303.5,-202C303.5,-202 417.5,-202 417.5,-202 423.5,-202 429.5,-208 429.5,-214 429.5,-214 429.5,-242 429.5,-242 429.5,-248 423.5,-254 417.5,-254 417.5,-254 303.5,-254 303.5,-254 297.5,-254 291.5,-248 291.5,-242 291.5,-242 291.5,-214 291.5,-214 291.5,-208 297.5,-202 303.5,-202"/>
<text text-anchor="middle" x="360.5" y="-242.8" font-family="Helvetica,sans-Serif" font-weight="bold" font-size="9.00" fill="white">utl</text>
</g>
<!-- src/main/files&#45;and&#45;dirs/normalize.js -->
<g id="node1" class="node">
<title>src/main/files&#45;and&#45;dirs/normalize.js</title>
<g id="a_node1"><a xlink:href="src/main/files-and-dirs/normalize.js" xlink:title="normalize.js">
<path fill="#ffffff" fill-opacity="0.200000" stroke="white" d="M170.5,-50C170.5,-50 116.5,-50 116.5,-50 113.5,-50 110.5,-47 110.5,-44 110.5,-44 110.5,-38 110.5,-38 110.5,-35 113.5,-32 116.5,-32 116.5,-32 170.5,-32 170.5,-32 173.5,-32 176.5,-35 176.5,-38 176.5,-38 176.5,-44 176.5,-44 176.5,-47 173.5,-50 170.5,-50"/>
<text text-anchor="start" x="118.5" y="-38.8" font-family="Helvetica,sans-Serif" font-size="9.00" fill="white">normalize.js</text>
</a>
</g>
</g>
<!-- src/main/index.js -->
<g id="node2" class="node">
<title>src/main/index.js</title>
<g id="a_node2"><a xlink:href="src/main/index.js" xlink:title="index.js">
<path fill="#ffffff" fill-opacity="0.200000" stroke="white" d="M72,-130C72,-130 30,-130 30,-130 27,-130 24,-127 24,-124 24,-124 24,-118 24,-118 24,-115 27,-112 30,-112 30,-112 72,-112 72,-112 75,-112 78,-115 78,-118 78,-118 78,-124 78,-124 78,-127 75,-130 72,-130"/>
<text text-anchor="start" x="35" y="-118.8" font-family="Helvetica,sans-Serif" font-size="9.00" fill="white">index.js</text>
</a>
</g>
</g>
<!-- src/main/index.js&#45;&gt;src/main/files&#45;and&#45;dirs/normalize.js -->
<g id="edge1" class="edge">
<title>src/main/index.js&#45;&gt;src/main/files&#45;and&#45;dirs/normalize.js</title>
<path fill="none" stroke="white" d="M37.5,-111.82C37.5,-90.81 37.5,-41 37.5,-41 37.5,-41 105.25,-41 105.25,-41"/>
<polygon fill="white" stroke="white" points="110.25,-41 105.25,-43.25 107.75,-41 105.25,-41 105.25,-41 105.25,-41 107.75,-41 105.25,-38.75 110.25,-41 110.25,-41"/>
</g>
<!-- src/main/options/normalize.js -->
<g id="node3" class="node">
<title>src/main/options/normalize.js</title>
<g id="a_node3"><a xlink:href="src/main/options/normalize.js" xlink:title="normalize.js">
<path fill="#ffffff" fill-opacity="0.200000" stroke="white" d="M277.5,-103C277.5,-103 223.5,-103 223.5,-103 220.5,-103 217.5,-100 217.5,-97 217.5,-97 217.5,-91 217.5,-91 217.5,-88 220.5,-85 223.5,-85 223.5,-85 277.5,-85 277.5,-85 280.5,-85 283.5,-88 283.5,-91 283.5,-91 283.5,-97 283.5,-97 283.5,-100 280.5,-103 277.5,-103"/>
<text text-anchor="start" x="225.5" y="-91.8" font-family="Helvetica,sans-Serif" font-size="9.00" fill="white">normalize.js</text>
</a>
</g>
</g>
<!-- src/main/index.js&#45;&gt;src/main/options/normalize.js -->
<g id="edge2" class="edge">
<title>src/main/index.js&#45;&gt;src/main/options/normalize.js</title>
<path fill="none" stroke="white" d="M51.5,-111.86C51.5,-104.03 51.5,-94 51.5,-94 51.5,-94 212.19,-94 212.19,-94"/>
<polygon fill="white" stroke="white" points="217.19,-94 212.19,-96.25 214.69,-94 212.19,-94 212.19,-94 212.19,-94 214.69,-94 212.19,-91.75 217.19,-94 217.19,-94"/>
</g>
<!-- src/main/options/validate.js -->
<g id="node4" class="node">
<title>src/main/options/validate.js</title>
<g id="a_node4"><a xlink:href="src/main/options/validate.js" xlink:title="validate.js">
<path fill="#ffffff" fill-opacity="0.200000" stroke="white" d="M273.5,-133C273.5,-133 227.5,-133 227.5,-133 224.5,-133 221.5,-130 221.5,-127 221.5,-127 221.5,-121 221.5,-121 221.5,-118 224.5,-115 227.5,-115 227.5,-115 273.5,-115 273.5,-115 276.5,-115 279.5,-118 279.5,-121 279.5,-121 279.5,-127 279.5,-127 279.5,-130 276.5,-133 273.5,-133"/>
<text text-anchor="start" x="229.5" y="-121.8" font-family="Helvetica,sans-Serif" font-size="9.00" fill="white">validate.js</text>
</a>
</g>
</g>
<!-- src/main/index.js&#45;&gt;src/main/options/validate.js -->
<g id="edge3" class="edge">
<title>src/main/index.js&#45;&gt;src/main/options/validate.js</title>
<path fill="none" stroke="white" d="M64.5,-111.77C64.5,-109.4 64.5,-107.5 64.5,-107.5 64.5,-107.5 250.5,-107.5 250.5,-107.5 250.5,-107.5 250.5,-109.98 250.5,-109.98"/>
<polygon fill="white" stroke="white" points="250.5,-114.98 248.25,-109.98 250.5,-112.48 250.5,-109.98 250.5,-109.98 250.5,-109.98 250.5,-112.48 252.75,-109.98 250.5,-114.98 250.5,-114.98"/>
</g>
<!-- src/main/report&#45;wrap.js -->
<g id="node5" class="node">
<title>src/main/report&#45;wrap.js</title>
<g id="a_node5"><a xlink:href="src/main/report-wrap.js" xlink:title="report&#45;wrap.js">
<path fill="#ffffff" fill-opacity="0.200000" stroke="white" d="M174,-130C174,-130 113,-130 113,-130 110,-130 107,-127 107,-124 107,-124 107,-118 107,-118 107,-115 110,-112 113,-112 113,-112 174,-112 174,-112 177,-112 180,-115 180,-118 180,-118 180,-124 180,-124 180,-127 177,-130 174,-130"/>
<text text-anchor="start" x="115" y="-118.8" font-family="Helvetica,sans-Serif" font-size="9.00" fill="white">report&#45;wrap.js</text>
</a>
</g>
</g>
<!-- src/main/index.js&#45;&gt;src/main/report&#45;wrap.js -->
<g id="edge4" class="edge">
<title>src/main/index.js&#45;&gt;src/main/report&#45;wrap.js</title>
<path fill="none" stroke="white" d="M78.25,-121C78.25,-121 101.84,-121 101.84,-121"/>
<polygon fill="white" stroke="white" points="106.84,-121 101.84,-123.25 104.34,-121 101.84,-121 101.84,-121 101.84,-121 104.34,-121 101.84,-118.75 106.84,-121 106.84,-121"/>
</g>
<!-- src/main/resolve&#45;options/normalize.js -->
<g id="node6" class="node">
<title>src/main/resolve&#45;options/normalize.js</title>
<g id="a_node6"><a xlink:href="src/main/resolve-options/normalize.js" xlink:title="normalize.js">
<path fill="#ffffff" fill-opacity="0.200000" stroke="white" d="M170.5,-164C170.5,-164 116.5,-164 116.5,-164 113.5,-164 110.5,-161 110.5,-158 110.5,-158 110.5,-152 110.5,-152 110.5,-149 113.5,-146 116.5,-146 116.5,-146 170.5,-146 170.5,-146 173.5,-146 176.5,-149 176.5,-152 176.5,-152 176.5,-158 176.5,-158 176.5,-161 173.5,-164 170.5,-164"/>
<text text-anchor="start" x="118.5" y="-152.8" font-family="Helvetica,sans-Serif" font-size="9.00" fill="white">normalize.js</text>
</a>
</g>
</g>
<!-- src/main/index.js&#45;&gt;src/main/resolve&#45;options/normalize.js -->
<g id="edge5" class="edge">
<title>src/main/index.js&#45;&gt;src/main/resolve&#45;options/normalize.js</title>
<path fill="none" stroke="white" d="M64.5,-130.29C64.5,-140.36 64.5,-155 64.5,-155 64.5,-155 105.45,-155 105.45,-155"/>
<polygon fill="white" stroke="white" points="110.45,-155 105.45,-157.25 107.95,-155 105.45,-155 105.45,-155 105.45,-155 107.95,-155 105.45,-152.75 110.45,-155 110.45,-155"/>
</g>
<!-- src/main/rule&#45;set/normalize.js -->
<g id="node7" class="node">
<title>src/main/rule&#45;set/normalize.js</title>
<g id="a_node7"><a xlink:href="src/main/rule-set/normalize.js" xlink:title="normalize.js">
<path fill="#ffffff" fill-opacity="0.200000" stroke="white" d="M170.5,-254C170.5,-254 116.5,-254 116.5,-254 113.5,-254 110.5,-251 110.5,-248 110.5,-248 110.5,-242 110.5,-242 110.5,-239 113.5,-236 116.5,-236 116.5,-236 170.5,-236 170.5,-236 173.5,-236 176.5,-239 176.5,-242 176.5,-242 176.5,-248 176.5,-248 176.5,-251 173.5,-254 170.5,-254"/>
<text text-anchor="start" x="118.5" y="-242.8" font-family="Helvetica,sans-Serif" font-size="9.00" fill="white">normalize.js</text>
</a>
</g>
</g>
<!-- src/main/index.js&#45;&gt;src/main/rule&#45;set/normalize.js -->
<g id="edge6" class="edge">
<title>src/main/index.js&#45;&gt;src/main/rule&#45;set/normalize.js</title>
<path fill="none" stroke="white" d="M37.5,-130.32C37.5,-159.16 37.5,-245 37.5,-245 37.5,-245 105.25,-245 105.25,-245"/>
<polygon fill="white" stroke="white" points="110.25,-245 105.25,-247.25 107.75,-245 105.25,-245 105.25,-245 105.25,-245 107.75,-245 105.25,-242.75 110.25,-245 110.25,-245"/>
</g>
<!-- src/main/rule&#45;set/validate.js -->
<g id="node8" class="node">
<title>src/main/rule&#45;set/validate.js</title>
<g id="a_node8"><a xlink:href="src/main/rule-set/validate.js" xlink:title="validate.js">
<path fill="#ffffff" fill-opacity="0.200000" stroke="white" d="M166.5,-224C166.5,-224 120.5,-224 120.5,-224 117.5,-224 114.5,-221 114.5,-218 114.5,-218 114.5,-212 114.5,-212 114.5,-209 117.5,-206 120.5,-206 120.5,-206 166.5,-206 166.5,-206 169.5,-206 172.5,-209 172.5,-212 172.5,-212 172.5,-218 172.5,-218 172.5,-221 169.5,-224 166.5,-224"/>
<text text-anchor="start" x="122.5" y="-212.8" font-family="Helvetica,sans-Serif" font-size="9.00" fill="white">validate.js</text>
</a>
</g>
</g>
<!-- src/main/index.js&#45;&gt;src/main/rule&#45;set/validate.js -->
<g id="edge7" class="edge">
<title>src/main/index.js&#45;&gt;src/main/rule&#45;set/validate.js</title>
<path fill="none" stroke="white" d="M51.5,-130.01C51.5,-153.54 51.5,-215 51.5,-215 51.5,-215 109.39,-215 109.39,-215"/>
<polygon fill="white" stroke="white" points="114.39,-215 109.39,-217.25 111.89,-215 109.39,-215 109.39,-215 109.39,-215 111.89,-215 109.39,-212.75 114.39,-215 114.39,-215"/>
</g>
<!-- src/main/options/defaults.js -->
<g id="node9" class="node">
<title>src/main/options/defaults.js</title>
<g id="a_node9"><a xlink:href="src/main/options/defaults.js" xlink:title="defaults.js">
<path fill="#ffffff" fill-opacity="0.200000" stroke="white" d="M383.5,-103C383.5,-103 337.5,-103 337.5,-103 334.5,-103 331.5,-100 331.5,-97 331.5,-97 331.5,-91 331.5,-91 331.5,-88 334.5,-85 337.5,-85 337.5,-85 383.5,-85 383.5,-85 386.5,-85 389.5,-88 389.5,-91 389.5,-91 389.5,-97 389.5,-97 389.5,-100 386.5,-103 383.5,-103"/>
<text text-anchor="start" x="339.5" y="-91.8" font-family="Helvetica,sans-Serif" font-size="9.00" fill="white">defaults.js</text>
</a>
</g>
</g>
<!-- src/main/options/normalize.js&#45;&gt;src/main/options/defaults.js -->
<g id="edge9" class="edge">
<title>src/main/options/normalize.js&#45;&gt;src/main/options/defaults.js</title>
<path fill="none" stroke="white" d="M283.5,-91C283.5,-91 326.26,-91 326.26,-91"/>
<polygon fill="white" stroke="white" points="331.26,-91 326.26,-93.25 328.76,-91 326.26,-91 326.26,-91 326.26,-91 328.76,-91 326.26,-88.75 331.26,-91 331.26,-91"/>
</g>
<!-- src/main/utl/normalize&#45;re&#45;properties.js -->
<g id="node10" class="node">
<title>src/main/utl/normalize&#45;re&#45;properties.js</title>
<g id="a_node10"><a xlink:href="src/main/utl/normalize-re-properties.js" xlink:title="normalize&#45;re&#45;properties.js">
<path fill="#ffffff" fill-opacity="0.200000" stroke="white" d="M415.5,-228C415.5,-228 305.5,-228 305.5,-228 302.5,-228 299.5,-225 299.5,-222 299.5,-222 299.5,-216 299.5,-216 299.5,-213 302.5,-210 305.5,-210 305.5,-210 415.5,-210 415.5,-210 418.5,-210 421.5,-213 421.5,-216 421.5,-216 421.5,-222 421.5,-222 421.5,-225 418.5,-228 415.5,-228"/>
<text text-anchor="start" x="307.5" y="-216.8" font-family="Helvetica,sans-Serif" font-size="9.00" fill="white">normalize&#45;re&#45;properties.js</text>
</a>
</g>
</g>
<!-- src/main/options/normalize.js&#45;&gt;src/main/utl/normalize&#45;re&#45;properties.js -->
<g id="edge8" class="edge">
<title>src/main/options/normalize.js&#45;&gt;src/main/utl/normalize&#45;re&#45;properties.js</title>
<path fill="none" stroke="white" d="M283.76,-97C299.75,-97 315.5,-97 315.5,-97 315.5,-97 315.5,-204.83 315.5,-204.83"/>
<polygon fill="white" stroke="white" points="315.5,-209.83 313.25,-204.83 315.5,-207.33 315.5,-204.83 315.5,-204.83 315.5,-204.83 315.5,-207.33 317.75,-204.83 315.5,-209.83 315.5,-209.83"/>
</g>
<!-- src/main/rule&#45;set/normalize.js&#45;&gt;src/main/utl/normalize&#45;re&#45;properties.js -->
<g id="edge10" class="edge">
<title>src/main/rule&#45;set/normalize.js&#45;&gt;src/main/utl/normalize&#45;re&#45;properties.js</title>
<path fill="none" stroke="white" d="M176.93,-245C237.8,-245 360.5,-245 360.5,-245 360.5,-245 360.5,-233.09 360.5,-233.09"/>
<polygon fill="white" stroke="white" points="360.5,-228.09 362.75,-233.09 360.5,-230.59 360.5,-233.09 360.5,-233.09 360.5,-233.09 360.5,-230.59 358.25,-233.09 360.5,-228.09 360.5,-228.09"/>
</g>
<!-- src/main/rule&#45;set/validate.js&#45;&gt;src/main/options/validate.js -->
<g id="edge11" class="edge">
<title>src/main/rule&#45;set/validate.js&#45;&gt;src/main/options/validate.js</title>
<path fill="none" stroke="white" d="M172.74,-217C204.42,-217 250.5,-217 250.5,-217 250.5,-217 250.5,-138.26 250.5,-138.26"/>
<polygon fill="white" stroke="white" points="250.5,-133.26 252.75,-138.26 250.5,-135.76 250.5,-138.26 250.5,-138.26 250.5,-138.26 250.5,-135.76 248.25,-138.26 250.5,-133.26 250.5,-133.26"/>
</g>
</g>
</svg>
