<?xml version="1.0" encoding="UTF-8" standalone="no"?>
<!DOCTYPE svg PUBLIC "-//W3C//DTD SVG 1.1//EN"
 "http://www.w3.org/Graphics/SVG/1.1/DTD/svg11.dtd">
<!-- Generated by graphviz version 2.42.3 (20191010.1750)
 -->
<!-- Title: dependency&#45;cruiser output Pages: 1 -->
<svg width="400pt" height="312pt"
 viewBox="0.00 0.00 399.56 312.00" xmlns="http://www.w3.org/2000/svg" xmlns:xlink="http://www.w3.org/1999/xlink">
<g id="graph0" class="graph" transform="scale(1 1) rotate(0) translate(4 308)">
<title>dependency&#45;cruiser output</title>
<polygon fill="dodgerblue" stroke="transparent" points="-4,4 -4,-308 395.56,-308 395.56,4 -4,4"/>
<g id="clust1" class="cluster">
<title>cluster_src</title>
<path fill="transparent" stroke="white" stroke-width="2" d="M20,-8C20,-8 371.56,-8 371.56,-8 377.56,-8 383.56,-14 383.56,-20 383.56,-20 383.56,-284 383.56,-284 383.56,-290 377.56,-296 371.56,-296 371.56,-296 20,-296 20,-296 14,-296 8,-290 8,-284 8,-284 8,-20 8,-20 8,-14 14,-8 20,-8"/>
<text text-anchor="middle" x="195.78" y="-284.8" font-family="Helvetica,sans-Serif" font-weight="bold" font-size="9.00" fill="white">src</text>
</g>
<g id="clust2" class="cluster">
<title>cluster_src/main</title>
<path fill="transparent" stroke="white" stroke-width="2" d="M28,-16C28,-16 363.56,-16 363.56,-16 369.56,-16 375.56,-22 375.56,-28 375.56,-28 375.56,-259 375.56,-259 375.56,-265 369.56,-271 363.56,-271 363.56,-271 28,-271 28,-271 22,-271 16,-265 16,-259 16,-259 16,-28 16,-28 16,-22 22,-16 28,-16"/>
<text text-anchor="middle" x="195.78" y="-259.8" font-family="Helvetica,sans-Serif" font-weight="bold" font-size="9.00" fill="white">main</text>
</g>
<g id="clust3" class="cluster">
<title>cluster_src/main/files&#45;and&#45;dirs</title>
<path fill="transparent" stroke="white" stroke-width="2" d="M115,-24C115,-24 171.01,-24 171.01,-24 177.01,-24 183.01,-30 183.01,-36 183.01,-36 183.01,-63 183.01,-63 183.01,-69 177.01,-75 171.01,-75 171.01,-75 115,-75 115,-75 109,-75 103,-69 103,-63 103,-63 103,-36 103,-36 103,-30 109,-24 115,-24"/>
<text text-anchor="middle" x="143.01" y="-63.8" font-family="Helvetica,sans-Serif" font-weight="bold" font-size="9.00" fill="white">files&#45;and&#45;dirs</text>
</g>
<g id="clust4" class="cluster">
<title>cluster_src/main/options</title>
<path fill="transparent" stroke="white" stroke-width="2" d="M220.01,-67C220.01,-67 355.56,-67 355.56,-67 361.56,-67 367.56,-73 367.56,-79 367.56,-79 367.56,-135 367.56,-135 367.56,-141 361.56,-147 355.56,-147 355.56,-147 220.01,-147 220.01,-147 214.01,-147 208.01,-141 208.01,-135 208.01,-135 208.01,-79 208.01,-79 208.01,-73 214.01,-67 220.01,-67"/>
<text text-anchor="middle" x="287.79" y="-135.8" font-family="Helvetica,sans-Serif" font-weight="bold" font-size="9.00" fill="white">options</text>
</g>
<g id="clust5" class="cluster">
<title>cluster_src/main/resolve&#45;options</title>
<path fill="transparent" stroke="white" stroke-width="2" d="M114,-107C114,-107 172.01,-107 172.01,-107 178.01,-107 184.01,-113 184.01,-119 184.01,-119 184.01,-146 184.01,-146 184.01,-152 178.01,-158 172.01,-158 172.01,-158 114,-158 114,-158 108,-158 102,-152 102,-146 102,-146 102,-119 102,-119 102,-113 108,-107 114,-107"/>
<text text-anchor="middle" x="143.01" y="-146.8" font-family="Helvetica,sans-Serif" font-weight="bold" font-size="9.00" fill="white">resolve&#45;options</text>
</g>
<g id="clust6" class="cluster">
<title>cluster_src/main/rule&#45;set</title>
<path fill="transparent" stroke="white" stroke-width="2" d="M115,-166C115,-166 171.01,-166 171.01,-166 177.01,-166 183.01,-172 183.01,-178 183.01,-178 183.01,-234 183.01,-234 183.01,-240 177.01,-246 171.01,-246 171.01,-246 115,-246 115,-246 109,-246 103,-240 103,-234 103,-234 103,-178 103,-178 103,-172 109,-166 115,-166"/>
<text text-anchor="middle" x="143.01" y="-234.8" font-family="Helvetica,sans-Serif" font-weight="bold" font-size="9.00" fill="white">rule&#45;set</text>
</g>
<!-- src/main/files&#45;and&#45;dirs/normalize.js -->
<g id="node1" class="node">
<title>src/main/files&#45;and&#45;dirs/normalize.js</title>
<g id="a_node1"><a xlink:href="src/main/files-and-dirs/normalize.js" xlink:title="normalize.js">
<path fill="#ffffff" fill-opacity="0.200000" stroke="white" d="M169.36,-49.5C169.36,-49.5 116.66,-49.5 116.66,-49.5 113.83,-49.5 110.99,-46.67 110.99,-43.83 110.99,-43.83 110.99,-38.17 110.99,-38.17 110.99,-35.33 113.83,-32.5 116.66,-32.5 116.66,-32.5 169.36,-32.5 169.36,-32.5 172.19,-32.5 175.02,-35.33 175.02,-38.17 175.02,-38.17 175.02,-43.83 175.02,-43.83 175.02,-46.67 172.19,-49.5 169.36,-49.5"/>
<text text-anchor="middle" x="143.01" y="-38.3" font-family="Helvetica,sans-Serif" font-size="9.00" fill="white">normalize.js</text>
</a>
</g>
</g>
<!-- src/main/index.js -->
<g id="node2" class="node">
<title>src/main/index.js</title>
<g id="a_node2"><a xlink:href="src/main/index.js" xlink:title="index.js">
<path fill="#ffffff" fill-opacity="0.200000" stroke="white" d="M72.33,-119.5C72.33,-119.5 29.67,-119.5 29.67,-119.5 26.83,-119.5 24,-116.67 24,-113.83 24,-113.83 24,-108.17 24,-108.17 24,-105.33 26.83,-102.5 29.67,-102.5 29.67,-102.5 72.33,-102.5 72.33,-102.5 75.17,-102.5 78,-105.33 78,-108.17 78,-108.17 78,-113.83 78,-113.83 78,-116.67 75.17,-119.5 72.33,-119.5"/>
<text text-anchor="middle" x="51" y="-108.3" font-family="Helvetica,sans-Serif" font-size="9.00" fill="white">index.js</text>
</a>
</g>
</g>
<!-- src/main/index.js&#45;&gt;src/main/files&#45;and&#45;dirs/normalize.js -->
<g id="edge1" class="edge">
<title>src/main/index.js&#45;&gt;src/main/files&#45;and&#45;dirs/normalize.js</title>
<path fill="none" stroke="white" d="M42.56,-102.42C42.56,-83.72 42.56,-41 42.56,-41 42.56,-41 105.95,-41 105.95,-41"/>
<polygon fill="white" stroke="white" points="110.95,-41 105.95,-43.25 108.45,-41 105.95,-41 105.95,-41 105.95,-41 108.45,-41 105.95,-38.75 110.95,-41 110.95,-41"/>
</g>
<!-- src/main/options/normalize.js -->
<g id="node3" class="node">
<title>src/main/options/normalize.js</title>
<g id="a_node3"><a xlink:href="src/main/options/normalize.js" xlink:title="normalize.js">
<path fill="#ffffff" fill-opacity="0.200000" stroke="white" d="M274.37,-92.5C274.37,-92.5 221.67,-92.5 221.67,-92.5 218.84,-92.5 216.01,-89.67 216.01,-86.83 216.01,-86.83 216.01,-81.17 216.01,-81.17 216.01,-78.33 218.84,-75.5 221.67,-75.5 221.67,-75.5 274.37,-75.5 274.37,-75.5 277.2,-75.5 280.04,-78.33 280.04,-81.17 280.04,-81.17 280.04,-86.83 280.04,-86.83 280.04,-89.67 277.2,-92.5 274.37,-92.5"/>
<text text-anchor="middle" x="248.02" y="-81.3" font-family="Helvetica,sans-Serif" font-size="9.00" fill="white">normalize.js</text>
</a>
</g>
</g>
<!-- src/main/index.js&#45;&gt;src/main/options/normalize.js -->
<g id="edge2" class="edge">
<title>src/main/index.js&#45;&gt;src/main/options/normalize.js</title>
<path fill="none" stroke="white" d="M60.56,-102.46C60.56,-94.55 60.56,-84 60.56,-84 60.56,-84 210.8,-84 210.8,-84"/>
<polygon fill="white" stroke="white" points="215.8,-84 210.8,-86.25 213.3,-84 210.8,-84 210.8,-84 210.8,-84 213.3,-84 210.8,-81.75 215.8,-84 215.8,-84"/>
</g>
<!-- src/main/options/validate.js -->
<g id="node4" class="node">
<title>src/main/options/validate.js</title>
<g id="a_node4"><a xlink:href="src/main/options/validate.js" xlink:title="validate.js">
<path fill="#ffffff" fill-opacity="0.200000" stroke="white" d="M270.38,-121.5C270.38,-121.5 225.67,-121.5 225.67,-121.5 222.83,-121.5 220,-118.67 220,-115.83 220,-115.83 220,-110.17 220,-110.17 220,-107.33 222.83,-104.5 225.67,-104.5 225.67,-104.5 270.38,-104.5 270.38,-104.5 273.21,-104.5 276.04,-107.33 276.04,-110.17 276.04,-110.17 276.04,-115.83 276.04,-115.83 276.04,-118.67 273.21,-121.5 270.38,-121.5"/>
<text text-anchor="middle" x="248.02" y="-110.3" font-family="Helvetica,sans-Serif" font-size="9.00" fill="white">validate.js</text>
</a>
</g>
</g>
<!-- src/main/index.js&#45;&gt;src/main/options/validate.js -->
<g id="edge3" class="edge">
<title>src/main/index.js&#45;&gt;src/main/options/validate.js</title>
<path fill="none" stroke="white" d="M78.4,-110C78.4,-110 214.9,-110 214.9,-110"/>
<polygon fill="white" stroke="white" points="219.9,-110 214.9,-112.25 217.4,-110 214.9,-110 214.9,-110 214.9,-110 217.4,-110 214.9,-107.75 219.9,-110 219.9,-110"/>
</g>
<!-- src/main/resolve&#45;options/normalize.js -->
<g id="node5" class="node">
<title>src/main/resolve&#45;options/normalize.js</title>
<g id="a_node5"><a xlink:href="src/main/resolve-options/normalize.js" xlink:title="normalize.js">
<path fill="#ffffff" fill-opacity="0.200000" stroke="white" d="M169.36,-132.5C169.36,-132.5 116.66,-132.5 116.66,-132.5 113.83,-132.5 110.99,-129.67 110.99,-126.83 110.99,-126.83 110.99,-121.17 110.99,-121.17 110.99,-118.33 113.83,-115.5 116.66,-115.5 116.66,-115.5 169.36,-115.5 169.36,-115.5 172.19,-115.5 175.02,-118.33 175.02,-121.17 175.02,-121.17 175.02,-126.83 175.02,-126.83 175.02,-129.67 172.19,-132.5 169.36,-132.5"/>
<text text-anchor="middle" x="143.01" y="-121.3" font-family="Helvetica,sans-Serif" font-size="9.00" fill="white">normalize.js</text>
</a>
</g>
</g>
<!-- src/main/index.js&#45;&gt;src/main/resolve&#45;options/normalize.js -->
<g id="edge4" class="edge">
<title>src/main/index.js&#45;&gt;src/main/resolve&#45;options/normalize.js</title>
<path fill="none" stroke="white" d="M64.56,-119.55C64.56,-122.92 64.56,-126 64.56,-126 64.56,-126 105.65,-126 105.65,-126"/>
<polygon fill="white" stroke="white" points="110.65,-126 105.65,-128.25 108.15,-126 105.65,-126 105.65,-126 105.65,-126 108.15,-126 105.65,-123.75 110.65,-126 110.65,-126"/>
</g>
<!-- src/main/rule&#45;set/normalize.js -->
<g id="node6" class="node">
<title>src/main/rule&#45;set/normalize.js</title>
<g id="a_node6"><a xlink:href="src/main/rule-set/normalize.js" xlink:title="normalize.js">
<path fill="#ffffff" fill-opacity="0.200000" stroke="white" d="M169.36,-220.5C169.36,-220.5 116.66,-220.5 116.66,-220.5 113.83,-220.5 110.99,-217.67 110.99,-214.83 110.99,-214.83 110.99,-209.17 110.99,-209.17 110.99,-206.33 113.83,-203.5 116.66,-203.5 116.66,-203.5 169.36,-203.5 169.36,-203.5 172.19,-203.5 175.02,-206.33 175.02,-209.17 175.02,-209.17 175.02,-214.83 175.02,-214.83 175.02,-217.67 172.19,-220.5 169.36,-220.5"/>
<text text-anchor="middle" x="143.01" y="-209.3" font-family="Helvetica,sans-Serif" font-size="9.00" fill="white">normalize.js</text>
</a>
</g>
</g>
<!-- src/main/index.js&#45;&gt;src/main/rule&#45;set/normalize.js -->
<g id="edge5" class="edge">
<title>src/main/index.js&#45;&gt;src/main/rule&#45;set/normalize.js</title>
<path fill="none" stroke="white" d="M37.56,-119.61C37.56,-144.04 37.56,-212 37.56,-212 37.56,-212 105.8,-212 105.8,-212"/>
<polygon fill="white" stroke="white" points="110.8,-212 105.8,-214.25 108.3,-212 105.8,-212 105.8,-212 105.8,-212 108.3,-212 105.8,-209.75 110.8,-212 110.8,-212"/>
</g>
<!-- src/main/rule&#45;set/validate.js -->
<g id="node7" class="node">
<title>src/main/rule&#45;set/validate.js</title>
<g id="a_node7"><a xlink:href="src/main/rule-set/validate.js" xlink:title="validate.js">
<path fill="#ffffff" fill-opacity="0.200000" stroke="white" d="M165.36,-191.5C165.36,-191.5 120.65,-191.5 120.65,-191.5 117.82,-191.5 114.99,-188.67 114.99,-185.83 114.99,-185.83 114.99,-180.17 114.99,-180.17 114.99,-177.33 117.82,-174.5 120.65,-174.5 120.65,-174.5 165.36,-174.5 165.36,-174.5 168.19,-174.5 171.03,-177.33 171.03,-180.17 171.03,-180.17 171.03,-185.83 171.03,-185.83 171.03,-188.67 168.19,-191.5 165.36,-191.5"/>
<text text-anchor="middle" x="143.01" y="-180.3" font-family="Helvetica,sans-Serif" font-size="9.00" fill="white">validate.js</text>
</a>
</g>
</g>
<!-- src/main/index.js&#45;&gt;src/main/rule&#45;set/validate.js -->
<g id="edge6" class="edge">
<title>src/main/index.js&#45;&gt;src/main/rule&#45;set/validate.js</title>
<path fill="none" stroke="white" d="M51.56,-119.54C51.56,-138.61 51.56,-183 51.56,-183 51.56,-183 109.57,-183 109.57,-183"/>
<polygon fill="white" stroke="white" points="114.57,-183 109.57,-185.25 112.07,-183 109.57,-183 109.57,-183 109.57,-183 112.07,-183 109.57,-180.75 114.57,-183 114.57,-183"/>
</g>
<!-- src/main/options/defaults.json -->
<g id="node8" class="node">
<title>src/main/options/defaults.json</title>
<g id="a_node8"><a xlink:href="src/main/options/defaults.json" xlink:title="defaults.json">
<defs>
<linearGradient id="l_0" gradientUnits="userSpaceOnUse" x1="293.26" y1="-87" x2="359.33" y2="-87" >
<stop offset="0" style="stop-color:#ffffff;stop-opacity:0.200000;"/>
<stop offset="1" style="stop-color:#ffffff;stop-opacity:0.533333;"/>
</linearGradient>
</defs>
<path fill="url(#l_0)" stroke="white" d="M359.33,-96.72C359.33,-97.91 344.52,-98.88 326.3,-98.88 308.07,-98.88 293.26,-97.91 293.26,-96.72 293.26,-96.72 293.26,-77.28 293.26,-77.28 293.26,-76.09 308.07,-75.12 326.3,-75.12 344.52,-75.12 359.33,-76.09 359.33,-77.28 359.33,-77.28 359.33,-96.72 359.33,-96.72"/>
<path fill="none" stroke="white" d="M359.33,-96.72C359.33,-95.53 344.52,-94.56 326.3,-94.56 308.07,-94.56 293.26,-95.53 293.26,-96.72"/>
<text text-anchor="middle" x="326.3" y="-84.3" font-family="Helvetica,sans-Serif" font-size="9.00" fill="white">defaults.json</text>
</a>
</g>
</g>
<!-- src/main/options/normalize.js&#45;&gt;src/main/options/defaults.json -->
<g id="edge7" class="edge">
<title>src/main/options/normalize.js&#45;&gt;src/main/options/defaults.json</title>
<path fill="none" stroke="white" d="M280.31,-84C280.31,-84 288.07,-84 288.07,-84"/>
<polygon fill="none" stroke="white" points="293.07,-82 293.07,-86 289.07,-86 289.07,-82 293.07,-82"/>
<polyline fill="none" stroke="white" points="289.07,-84 288.07,-84 "/>
</g>
<!-- src/main/rule&#45;set/validate.js&#45;&gt;src/main/options/validate.js -->
<g id="edge8" class="edge">
<title>src/main/rule&#45;set/validate.js&#45;&gt;src/main/options/validate.js</title>
<path fill="none" stroke="white" d="M171.29,-183C202.56,-183 248.56,-183 248.56,-183 248.56,-183 248.56,-126.58 248.56,-126.58"/>
<polygon fill="white" stroke="white" points="248.56,-121.58 250.81,-126.58 248.56,-124.08 248.56,-126.58 248.56,-126.58 248.56,-126.58 248.56,-124.08 246.31,-126.58 248.56,-121.58 248.56,-121.58"/>
</g>
</g>
</svg>
