<?xml version="1.0" encoding="UTF-8" standalone="no"?>
<!DOCTYPE svg PUBLIC "-//W3C//DTD SVG 1.1//EN"
 "http://www.w3.org/Graphics/SVG/1.1/DTD/svg11.dtd">
<!-- Generated by graphviz version 2.44.1 (20200629.0846)
 -->
<!-- Title: dependency&#45;cruiser output Pages: 1 -->
<svg width="461pt" height="318pt"
 viewBox="0.00 0.00 461.00 318.00" xmlns="http://www.w3.org/2000/svg" xmlns:xlink="http://www.w3.org/1999/xlink">
<g id="graph0" class="graph" transform="scale(1 1) rotate(0) translate(4 314)">
<title>dependency&#45;cruiser output</title>
<polygon fill="dodgerblue" stroke="transparent" points="-4,4 -4,-314 457,-314 457,4 -4,4"/>
<g id="clust1" class="cluster">
<title>cluster_src</title>
<path fill="transparent" stroke="white" stroke-width="2" d="M20,-8C20,-8 433,-8 433,-8 439,-8 445,-14 445,-20 445,-20 445,-290 445,-290 445,-296 439,-302 433,-302 433,-302 20,-302 20,-302 14,-302 8,-296 8,-290 8,-290 8,-20 8,-20 8,-14 14,-8 20,-8"/>
<text text-anchor="middle" x="226.5" y="-290.8" font-family="Helvetica,sans-Serif" font-weight="bold" font-size="9.00" fill="white">src</text>
</g>
<g id="clust2" class="cluster">
<title>cluster_src/main</title>
<path fill="transparent" stroke="white" stroke-width="2" d="M28,-16C28,-16 425,-16 425,-16 431,-16 437,-22 437,-28 437,-28 437,-264 437,-264 437,-270 431,-276 425,-276 425,-276 28,-276 28,-276 22,-276 16,-270 16,-264 16,-264 16,-28 16,-28 16,-22 22,-16 28,-16"/>
<text text-anchor="middle" x="226.5" y="-264.8" font-family="Helvetica,sans-Serif" font-weight="bold" font-size="9.00" fill="white">main</text>
</g>
<g id="clust3" class="cluster">
<title>cluster_src/main/files&#45;and&#45;dirs</title>
<path fill="transparent" stroke="white" stroke-width="2" d="M114,-24C114,-24 172,-24 172,-24 178,-24 184,-30 184,-36 184,-36 184,-64 184,-64 184,-70 178,-76 172,-76 172,-76 114,-76 114,-76 108,-76 102,-70 102,-64 102,-64 102,-36 102,-36 102,-30 108,-24 114,-24"/>
<text text-anchor="middle" x="143" y="-64.8" font-family="Helvetica,sans-Serif" font-weight="bold" font-size="9.00" fill="white">files&#45;and&#45;dirs</text>
</g>
<g id="clust4" class="cluster">
<title>cluster_src/main/options</title>
<path fill="transparent" stroke="white" stroke-width="2" d="M221,-73C221,-73 390,-73 390,-73 396,-73 402,-79 402,-85 402,-85 402,-143 402,-143 402,-149 396,-155 390,-155 390,-155 221,-155 221,-155 215,-155 209,-149 209,-143 209,-143 209,-85 209,-85 209,-79 215,-73 221,-73"/>
<text text-anchor="middle" x="305.5" y="-143.8" font-family="Helvetica,sans-Serif" font-weight="bold" font-size="9.00" fill="white">options</text>
</g>
<g id="clust5" class="cluster">
<title>cluster_src/main/resolve&#45;options</title>
<path fill="transparent" stroke="white" stroke-width="2" d="M114,-108C114,-108 173,-108 173,-108 179,-108 185,-114 185,-120 185,-120 185,-148 185,-148 185,-154 179,-160 173,-160 173,-160 114,-160 114,-160 108,-160 102,-154 102,-148 102,-148 102,-120 102,-120 102,-114 108,-108 114,-108"/>
<text text-anchor="middle" x="143.5" y="-148.8" font-family="Helvetica,sans-Serif" font-weight="bold" font-size="9.00" fill="white">resolve&#45;options</text>
</g>
<g id="clust6" class="cluster">
<title>cluster_src/main/rule&#45;set</title>
<path fill="transparent" stroke="white" stroke-width="2" d="M114,-168C114,-168 172,-168 172,-168 178,-168 184,-174 184,-180 184,-180 184,-238 184,-238 184,-244 178,-250 172,-250 172,-250 114,-250 114,-250 108,-250 102,-244 102,-238 102,-238 102,-180 102,-180 102,-174 108,-168 114,-168"/>
<text text-anchor="middle" x="143" y="-238.8" font-family="Helvetica,sans-Serif" font-weight="bold" font-size="9.00" fill="white">rule&#45;set</text>
</g>
<g id="clust7" class="cluster">
<title>cluster_src/main/utl</title>
<path fill="transparent" stroke="white" stroke-width="2" d="M303,-183C303,-183 417,-183 417,-183 423,-183 429,-189 429,-195 429,-195 429,-223 429,-223 429,-229 423,-235 417,-235 417,-235 303,-235 303,-235 297,-235 291,-229 291,-223 291,-223 291,-195 291,-195 291,-189 297,-183 303,-183"/>
<text text-anchor="middle" x="360" y="-223.8" font-family="Helvetica,sans-Serif" font-weight="bold" font-size="9.00" fill="white">utl</text>
</g>
<!-- src/main/files&#45;and&#45;dirs/normalize.js -->
<g id="node1" class="node">
<title>src/main/files&#45;and&#45;dirs/normalize.js</title>
<g id="a_node1"><a xlink:href="src/main/files-and-dirs/normalize.js" xlink:title="normalize.js">
<path fill="#ffffff" fill-opacity="0.200000" stroke="white" d="M170,-50C170,-50 116,-50 116,-50 113,-50 110,-47 110,-44 110,-44 110,-38 110,-38 110,-35 113,-32 116,-32 116,-32 170,-32 170,-32 173,-32 176,-35 176,-38 176,-38 176,-44 176,-44 176,-47 173,-50 170,-50"/>
<text text-anchor="middle" x="143" y="-38.8" font-family="Helvetica,sans-Serif" font-size="9.00" fill="white">normalize.js</text>
</a>
</g>
</g>
<!-- src/main/index.js -->
<g id="node2" class="node">
<title>src/main/index.js</title>
<g id="a_node2"><a xlink:href="src/main/index.js" xlink:title="index.js">
<path fill="#ffffff" fill-opacity="0.200000" stroke="white" d="M72,-121C72,-121 30,-121 30,-121 27,-121 24,-118 24,-115 24,-115 24,-109 24,-109 24,-106 27,-103 30,-103 30,-103 72,-103 72,-103 75,-103 78,-106 78,-109 78,-109 78,-115 78,-115 78,-118 75,-121 72,-121"/>
<text text-anchor="middle" x="51" y="-109.8" font-family="Helvetica,sans-Serif" font-size="9.00" fill="white">index.js</text>
</a>
</g>
</g>
<!-- src/main/index.js&#45;&gt;src/main/files&#45;and&#45;dirs/normalize.js -->
<g id="edge1" class="edge">
<title>src/main/index.js&#45;&gt;src/main/files&#45;and&#45;dirs/normalize.js</title>
<path fill="none" stroke="white" d="M42,-102.72C42,-83.47 42,-41 42,-41 42,-41 104.93,-41 104.93,-41"/>
<polygon fill="white" stroke="white" points="109.93,-41 104.93,-43.25 107.43,-41 104.93,-41 104.93,-41 104.93,-41 107.43,-41 104.93,-38.75 109.93,-41 109.93,-41"/>
</g>
<!-- src/main/options/normalize.js -->
<g id="node3" class="node">
<title>src/main/options/normalize.js</title>
<g id="a_node3"><a xlink:href="src/main/options/normalize.js" xlink:title="normalize.js">
<path fill="#ffffff" fill-opacity="0.200000" stroke="white" d="M277,-99C277,-99 223,-99 223,-99 220,-99 217,-96 217,-93 217,-93 217,-87 217,-87 217,-84 220,-81 223,-81 223,-81 277,-81 277,-81 280,-81 283,-84 283,-87 283,-87 283,-93 283,-93 283,-96 280,-99 277,-99"/>
<text text-anchor="middle" x="250" y="-87.8" font-family="Helvetica,sans-Serif" font-size="9.00" fill="white">normalize.js</text>
</a>
</g>
</g>
<!-- src/main/index.js&#45;&gt;src/main/options/normalize.js -->
<g id="edge2" class="edge">
<title>src/main/index.js&#45;&gt;src/main/options/normalize.js</title>
<path fill="none" stroke="white" d="M60,-102.8C60,-96.77 60,-90 60,-90 60,-90 211.9,-90 211.9,-90"/>
<polygon fill="white" stroke="white" points="216.9,-90 211.9,-92.25 214.4,-90 211.9,-90 211.9,-90 211.9,-90 214.4,-90 211.9,-87.75 216.9,-90 216.9,-90"/>
</g>
<!-- src/main/options/validate.js -->
<g id="node4" class="node">
<title>src/main/options/validate.js</title>
<g id="a_node4"><a xlink:href="src/main/options/validate.js" xlink:title="validate.js">
<path fill="#ffffff" fill-opacity="0.200000" stroke="white" d="M273,-129C273,-129 227,-129 227,-129 224,-129 221,-126 221,-123 221,-123 221,-117 221,-117 221,-114 224,-111 227,-111 227,-111 273,-111 273,-111 276,-111 279,-114 279,-117 279,-117 279,-123 279,-123 279,-126 276,-129 273,-129"/>
<text text-anchor="middle" x="250" y="-117.8" font-family="Helvetica,sans-Serif" font-size="9.00" fill="white">validate.js</text>
</a>
</g>
</g>
<!-- src/main/index.js&#45;&gt;src/main/options/validate.js -->
<g id="edge3" class="edge">
<title>src/main/index.js&#45;&gt;src/main/options/validate.js</title>
<path fill="none" stroke="white" d="M57,-121.12C57,-133.74 57,-155 57,-155 57,-155 241,-155 241,-155 241,-155 241,-134.2 241,-134.2"/>
<polygon fill="white" stroke="white" points="241,-129.2 243.25,-134.2 241,-131.7 241,-134.2 241,-134.2 241,-134.2 241,-131.7 238.75,-134.2 241,-129.2 241,-129.2"/>
</g>
<!-- src/main/resolve&#45;options/normalize.js -->
<g id="node5" class="node">
<title>src/main/resolve&#45;options/normalize.js</title>
<g id="a_node5"><a xlink:href="src/main/resolve-options/normalize.js" xlink:title="normalize.js">
<path fill="#ffffff" fill-opacity="0.200000" stroke="white" d="M170,-134C170,-134 116,-134 116,-134 113,-134 110,-131 110,-128 110,-128 110,-122 110,-122 110,-119 113,-116 116,-116 116,-116 170,-116 170,-116 173,-116 176,-119 176,-122 176,-122 176,-128 176,-128 176,-131 173,-134 170,-134"/>
<text text-anchor="middle" x="143" y="-122.8" font-family="Helvetica,sans-Serif" font-size="9.00" fill="white">normalize.js</text>
</a>
</g>
</g>
<!-- src/main/index.js&#45;&gt;src/main/resolve&#45;options/normalize.js -->
<g id="edge4" class="edge">
<title>src/main/index.js&#45;&gt;src/main/resolve&#45;options/normalize.js</title>
<path fill="none" stroke="white" d="M68,-121.2C68,-124.53 68,-127.5 68,-127.5 68,-127.5 104.89,-127.5 104.89,-127.5"/>
<polygon fill="white" stroke="white" points="109.89,-127.5 104.89,-129.75 107.39,-127.5 104.89,-127.5 104.89,-127.5 104.89,-127.5 107.39,-127.5 104.89,-125.25 109.89,-127.5 109.89,-127.5"/>
</g>
<!-- src/main/rule&#45;set/normalize.js -->
<g id="node6" class="node">
<title>src/main/rule&#45;set/normalize.js</title>
<g id="a_node6"><a xlink:href="src/main/rule-set/normalize.js" xlink:title="normalize.js">
<path fill="#ffffff" fill-opacity="0.200000" stroke="white" d="M170,-224C170,-224 116,-224 116,-224 113,-224 110,-221 110,-218 110,-218 110,-212 110,-212 110,-209 113,-206 116,-206 116,-206 170,-206 170,-206 173,-206 176,-209 176,-212 176,-212 176,-218 176,-218 176,-221 173,-224 170,-224"/>
<text text-anchor="middle" x="143" y="-212.8" font-family="Helvetica,sans-Serif" font-size="9.00" fill="white">normalize.js</text>
</a>
</g>
</g>
<!-- src/main/index.js&#45;&gt;src/main/rule&#45;set/normalize.js -->
<g id="edge5" class="edge">
<title>src/main/index.js&#45;&gt;src/main/rule&#45;set/normalize.js</title>
<path fill="none" stroke="white" d="M35,-121.14C35,-146.35 35,-215 35,-215 35,-215 104.72,-215 104.72,-215"/>
<polygon fill="white" stroke="white" points="109.72,-215 104.72,-217.25 107.22,-215 104.72,-215 104.72,-215 104.72,-215 107.22,-215 104.72,-212.75 109.72,-215 109.72,-215"/>
</g>
<!-- src/main/rule&#45;set/validate.js -->
<g id="node7" class="node">
<title>src/main/rule&#45;set/validate.js</title>
<g id="a_node7"><a xlink:href="src/main/rule-set/validate.js" xlink:title="validate.js">
<path fill="#ffffff" fill-opacity="0.200000" stroke="white" d="M166,-194C166,-194 120,-194 120,-194 117,-194 114,-191 114,-188 114,-188 114,-182 114,-182 114,-179 117,-176 120,-176 120,-176 166,-176 166,-176 169,-176 172,-179 172,-182 172,-182 172,-188 172,-188 172,-191 169,-194 166,-194"/>
<text text-anchor="middle" x="143" y="-182.8" font-family="Helvetica,sans-Serif" font-size="9.00" fill="white">validate.js</text>
</a>
</g>
</g>
<!-- src/main/index.js&#45;&gt;src/main/rule&#45;set/validate.js -->
<g id="edge6" class="edge">
<title>src/main/index.js&#45;&gt;src/main/rule&#45;set/validate.js</title>
<path fill="none" stroke="white" d="M46,-121.25C46,-140.89 46,-185 46,-185 46,-185 108.9,-185 108.9,-185"/>
<polygon fill="white" stroke="white" points="113.9,-185 108.9,-187.25 111.4,-185 108.9,-185 108.9,-185 108.9,-185 111.4,-185 108.9,-182.75 113.9,-185 113.9,-185"/>
</g>
<!-- src/main/options/defaults.json -->
<g id="node8" class="node">
<title>src/main/options/defaults.json</title>
<g id="a_node8"><a xlink:href="src/main/options/defaults.json" xlink:title="defaults.json">
<defs>
<linearGradient id="l_0" gradientUnits="userSpaceOnUse" x1="326" y1="-93" x2="394" y2="-93" >
<stop offset="0" style="stop-color:#ffffff;stop-opacity:0.200000;"/>
<stop offset="1" style="stop-color:#ffffff;stop-opacity:0.533333;"/>
</linearGradient>
</defs>
<path fill="url(#l_0)" stroke="white" d="M394,-103.02C394,-104.25 378.76,-105.25 360,-105.25 341.24,-105.25 326,-104.25 326,-103.02 326,-103.02 326,-82.98 326,-82.98 326,-81.75 341.24,-80.75 360,-80.75 378.76,-80.75 394,-81.75 394,-82.98 394,-82.98 394,-103.02 394,-103.02"/>
<path fill="none" stroke="white" d="M394,-103.02C394,-101.79 378.76,-100.8 360,-100.8 341.24,-100.8 326,-101.79 326,-103.02"/>
<text text-anchor="middle" x="360" y="-90.8" font-family="Helvetica,sans-Serif" font-size="9.00" fill="white">defaults.json</text>
</a>
</g>
</g>
<!-- src/main/options/normalize.js&#45;&gt;src/main/options/defaults.json -->
<g id="edge8" class="edge">
<title>src/main/options/normalize.js&#45;&gt;src/main/options/defaults.json</title>
<path fill="none" stroke="white" d="M283,-87C283,-87 320.88,-87 320.88,-87"/>
<polygon fill="none" stroke="white" points="325.88,-85 325.88,-89 321.88,-89 321.88,-85 325.88,-85"/>
<polyline fill="none" stroke="white" points="321.88,-87 320.88,-87 "/>
</g>
<!-- src/main/utl/normalize&#45;re&#45;properties.js -->
<g id="node9" class="node">
<title>src/main/utl/normalize&#45;re&#45;properties.js</title>
<g id="a_node9"><a xlink:href="src/main/utl/normalize-re-properties.js" xlink:title="normalize&#45;re&#45;properties.js">
<path fill="#ffffff" fill-opacity="0.200000" stroke="white" d="M415,-209C415,-209 305,-209 305,-209 302,-209 299,-206 299,-203 299,-203 299,-197 299,-197 299,-194 302,-191 305,-191 305,-191 415,-191 415,-191 418,-191 421,-194 421,-197 421,-197 421,-203 421,-203 421,-206 418,-209 415,-209"/>
<text text-anchor="middle" x="360" y="-197.8" font-family="Helvetica,sans-Serif" font-size="9.00" fill="white">normalize&#45;re&#45;properties.js</text>
</a>
</g>
</g>
<!-- src/main/options/normalize.js&#45;&gt;src/main/utl/normalize&#45;re&#45;properties.js -->
<g id="edge7" class="edge">
<title>src/main/options/normalize.js&#45;&gt;src/main/utl/normalize&#45;re&#45;properties.js</title>
<path fill="none" stroke="white" d="M283.34,-93C298.46,-93 313,-93 313,-93 313,-93 313,-185.88 313,-185.88"/>
<polygon fill="white" stroke="white" points="313,-190.88 310.75,-185.88 313,-188.38 313,-185.88 313,-185.88 313,-185.88 313,-188.38 315.25,-185.88 313,-190.88 313,-190.88"/>
</g>
<!-- src/main/rule&#45;set/normalize.js&#45;&gt;src/main/utl/normalize&#45;re&#45;properties.js -->
<g id="edge9" class="edge">
<title>src/main/rule&#45;set/normalize.js&#45;&gt;src/main/utl/normalize&#45;re&#45;properties.js</title>
<path fill="none" stroke="white" d="M143,-205.76C143,-202.67 143,-200 143,-200 143,-200 293.98,-200 293.98,-200"/>
<polygon fill="white" stroke="white" points="298.98,-200 293.98,-202.25 296.48,-200 293.98,-200 293.98,-200 293.98,-200 296.48,-200 293.98,-197.75 298.98,-200 298.98,-200"/>
</g>
<!-- src/main/rule&#45;set/validate.js&#45;&gt;src/main/options/validate.js -->
<g id="edge10" class="edge">
<title>src/main/rule&#45;set/validate.js&#45;&gt;src/main/options/validate.js</title>
<path fill="none" stroke="white" d="M172.22,-183.5C206.88,-183.5 260,-183.5 260,-183.5 260,-183.5 260,-134.1 260,-134.1"/>
<polygon fill="white" stroke="white" points="260,-129.1 262.25,-134.1 260,-131.6 260,-134.1 260,-134.1 260,-134.1 260,-131.6 257.75,-134.1 260,-129.1 260,-129.1"/>
</g>
</g>
</svg>
