<?xml version="1.0" encoding="UTF-8" standalone="no"?>
<!DOCTYPE svg PUBLIC "-//W3C//DTD SVG 1.1//EN"
 "http://www.w3.org/Graphics/SVG/1.1/DTD/svg11.dtd">
<!-- Generated by graphviz version 2.49.0 (20210828.1703)
 -->
<!-- Title: dependency&#45;cruiser output Pages: 1 -->
<svg width="497pt" height="282pt"
 viewBox="0.00 0.00 497.00 282.00" xmlns="http://www.w3.org/2000/svg" xmlns:xlink="http://www.w3.org/1999/xlink">
<g id="graph0" class="graph" transform="scale(1 1) rotate(0) translate(4 278)">
<title>dependency&#45;cruiser output</title>
<polygon fill="white" stroke="transparent" points="-4,4 -4,-278 493,-278 493,4 -4,4"/>
<g id="clust1" class="cluster">
<title>cluster_src</title>
<path fill="#ffffff" stroke="black" stroke-width="2" d="M20,-8C20,-8 469,-8 469,-8 475,-8 481,-14 481,-20 481,-20 481,-254 481,-254 481,-260 475,-266 469,-266 469,-266 20,-266 20,-266 14,-266 8,-260 8,-254 8,-254 8,-20 8,-20 8,-14 14,-8 20,-8"/>
<text text-anchor="middle" x="244.5" y="-254.8" font-family="Helvetica,sans-Serif" font-weight="bold" font-size="9.00">src</text>
</g>
<g id="clust2" class="cluster">
<title>cluster_src/main</title>
<path fill="#ffffff" stroke="black" stroke-width="2" d="M28,-16C28,-16 461,-16 461,-16 467,-16 473,-22 473,-28 473,-28 473,-228 473,-228 473,-234 467,-240 461,-240 461,-240 28,-240 28,-240 22,-240 16,-234 16,-228 16,-228 16,-28 16,-28 16,-22 22,-16 28,-16"/>
<text text-anchor="middle" x="244.5" y="-228.8" font-family="Helvetica,sans-Serif" font-weight="bold" font-size="9.00">main</text>
</g>
<g id="clust5" class="cluster">
<title>cluster_src/main/resolve&#45;options</title>
<path fill="#ffffff" stroke="black" stroke-width="2" d="M234,-136C234,-136 294,-136 294,-136 300,-136 306,-142 306,-148 306,-148 306,-176 306,-176 306,-182 300,-188 294,-188 294,-188 234,-188 234,-188 228,-188 222,-182 222,-176 222,-176 222,-148 222,-148 222,-142 228,-136 234,-136"/>
<text text-anchor="middle" x="264" y="-176.8" font-family="Helvetica,sans-Serif" font-weight="bold" font-size="9.00">resolve&#45;options</text>
</g>
<g id="clust6" class="cluster">
<title>cluster_src/main/rule&#45;set</title>
<path fill="#ffffff" stroke="black" stroke-width="2" d="M326,-136C326,-136 453,-136 453,-136 459,-136 465,-142 465,-148 465,-148 465,-176 465,-176 465,-182 459,-188 453,-188 453,-188 326,-188 326,-188 320,-188 314,-182 314,-176 314,-176 314,-148 314,-148 314,-142 320,-136 326,-136"/>
<text text-anchor="middle" x="389.5" y="-176.8" font-family="Helvetica,sans-Serif" font-weight="bold" font-size="9.00">rule&#45;set</text>
</g>
<g id="clust7" class="cluster">
<title>cluster_src/main/utl</title>
<path fill="#ffffff" stroke="black" stroke-width="2" d="M312,-24C312,-24 424,-24 424,-24 430,-24 436,-30 436,-36 436,-36 436,-64 436,-64 436,-70 430,-76 424,-76 424,-76 312,-76 312,-76 306,-76 300,-70 300,-64 300,-64 300,-36 300,-36 300,-30 306,-24 312,-24"/>
<text text-anchor="middle" x="368" y="-64.8" font-family="Helvetica,sans-Serif" font-weight="bold" font-size="9.00">utl</text>
</g>
<g id="clust3" class="cluster">
<title>cluster_src/main/files&#45;and&#45;dirs</title>
<path fill="#ffffff" stroke="black" stroke-width="2" d="M36,-136C36,-136 94,-136 94,-136 100,-136 106,-142 106,-148 106,-148 106,-176 106,-176 106,-182 100,-188 94,-188 94,-188 36,-188 36,-188 30,-188 24,-182 24,-176 24,-176 24,-148 24,-148 24,-142 30,-136 36,-136"/>
<text text-anchor="middle" x="65" y="-176.8" font-family="Helvetica,sans-Serif" font-weight="bold" font-size="9.00">files&#45;and&#45;dirs</text>
</g>
<g id="clust4" class="cluster">
<title>cluster_src/main/options</title>
<path fill="#ffffff" stroke="black" stroke-width="2" d="M105,-24C105,-24 232,-24 232,-24 238,-24 244,-30 244,-36 244,-36 244,-116 244,-116 244,-122 238,-128 232,-128 232,-128 105,-128 105,-128 99,-128 93,-122 93,-116 93,-116 93,-36 93,-36 93,-30 99,-24 105,-24"/>
<text text-anchor="middle" x="168.5" y="-116.8" font-family="Helvetica,sans-Serif" font-weight="bold" font-size="9.00">options</text>
</g>
<!-- src/main/files&#45;and&#45;dirs/normalize.js -->
<g id="node1" class="node">
<title>src/main/files&#45;and&#45;dirs/normalize.js</title>
<g id="a_node1"><a xlink:href="src/main/files-and-dirs/normalize.js" xlink:title="normalize.js">
<path fill="#ffffcc" stroke="black" d="M91.5,-162C91.5,-162 38.5,-162 38.5,-162 35.5,-162 32.5,-159 32.5,-156 32.5,-156 32.5,-150 32.5,-150 32.5,-147 35.5,-144 38.5,-144 38.5,-144 91.5,-144 91.5,-144 94.5,-144 97.5,-147 97.5,-150 97.5,-150 97.5,-156 97.5,-156 97.5,-159 94.5,-162 91.5,-162"/>
<text text-anchor="middle" x="65" y="-150.8" font-family="Helvetica,sans-Serif" font-size="9.00">normalize.js</text>
</a>
</g>
</g>
<!-- src/main/index.js -->
<g id="node2" class="node">
<title>src/main/index.js</title>
<g id="a_node2"><a xlink:href="src/main/index.js" xlink:title="index.js">
<path fill="#ffffcc" stroke="black" d="M199,-214C199,-214 157,-214 157,-214 154,-214 151,-211 151,-208 151,-208 151,-202 151,-202 151,-199 154,-196 157,-196 157,-196 199,-196 199,-196 202,-196 205,-199 205,-202 205,-202 205,-208 205,-208 205,-211 202,-214 199,-214"/>
<text text-anchor="middle" x="178" y="-202.8" font-family="Helvetica,sans-Serif" font-size="9.00">index.js</text>
</a>
</g>
</g>
<!-- src/main/index.js&#45;&gt;src/main/files&#45;and&#45;dirs/normalize.js -->
<g id="edge1" class="edge">
<title>src/main/index.js&#45;&gt;src/main/files&#45;and&#45;dirs/normalize.js</title>
<path fill="none" stroke="#000000" stroke-width="2" stroke-opacity="0.200000" d="M150.8,-201.83C135.75,-199.77 117.11,-195.77 102,-188 91.92,-182.81 82.53,-174.12 75.74,-166.83"/>
<polygon fill="#000000" fill-opacity="0.200000" stroke="#000000" stroke-width="2" stroke-opacity="0.200000" points="77.04,-165.13 71.47,-162.06 73.91,-167.93 77.04,-165.13"/>
</g>
<!-- src/main/options/normalize.js -->
<g id="node3" class="node">
<title>src/main/options/normalize.js</title>
<g id="a_node3"><a xlink:href="src/main/options/normalize.js" xlink:title="normalize.js">
<path fill="#ffffcc" stroke="black" d="M160.5,-102C160.5,-102 107.5,-102 107.5,-102 104.5,-102 101.5,-99 101.5,-96 101.5,-96 101.5,-90 101.5,-90 101.5,-87 104.5,-84 107.5,-84 107.5,-84 160.5,-84 160.5,-84 163.5,-84 166.5,-87 166.5,-90 166.5,-90 166.5,-96 166.5,-96 166.5,-99 163.5,-102 160.5,-102"/>
<text text-anchor="middle" x="134" y="-90.8" font-family="Helvetica,sans-Serif" font-size="9.00">normalize.js</text>
</a>
</g>
</g>
<!-- src/main/index.js&#45;&gt;src/main/options/normalize.js -->
<g id="edge2" class="edge">
<title>src/main/index.js&#45;&gt;src/main/options/normalize.js</title>
<path fill="none" stroke="#000000" stroke-width="2" stroke-opacity="0.200000" d="M150.96,-203.04C140.18,-201.16 128.76,-196.96 122,-188 104.13,-164.31 117.39,-127.35 126.79,-107.57"/>
<polygon fill="#000000" fill-opacity="0.200000" stroke="#000000" stroke-width="2" stroke-opacity="0.200000" points="128.76,-108.33 129.55,-102.02 125,-106.46 128.76,-108.33"/>
</g>
<!-- src/main/options/validate.js -->
<g id="node4" class="node">
<title>src/main/options/validate.js</title>
<g id="a_node4"><a xlink:href="src/main/options/validate.js" xlink:title="validate.js">
<path fill="#ffffcc" stroke="black" d="M229.5,-102C229.5,-102 184.5,-102 184.5,-102 181.5,-102 178.5,-99 178.5,-96 178.5,-96 178.5,-90 178.5,-90 178.5,-87 181.5,-84 184.5,-84 184.5,-84 229.5,-84 229.5,-84 232.5,-84 235.5,-87 235.5,-90 235.5,-90 235.5,-96 235.5,-96 235.5,-99 232.5,-102 229.5,-102"/>
<text text-anchor="middle" x="207" y="-90.8" font-family="Helvetica,sans-Serif" font-size="9.00">validate.js</text>
</a>
</g>
</g>
<!-- src/main/index.js&#45;&gt;src/main/options/validate.js -->
<g id="edge3" class="edge">
<title>src/main/index.js&#45;&gt;src/main/options/validate.js</title>
<path fill="none" stroke="#000000" stroke-width="2" stroke-opacity="0.200000" d="M150.76,-199C144.97,-196.63 139.54,-193.14 136,-188 122.89,-168.97 121.49,-153.99 136,-136 146.57,-122.91 158.23,-136.05 173,-128 182.53,-122.81 191.15,-114.12 197.32,-106.83"/>
<polygon fill="#000000" fill-opacity="0.200000" stroke="#000000" stroke-width="2" stroke-opacity="0.200000" points="199.04,-108.04 201.19,-102.06 195.78,-105.4 199.04,-108.04"/>
</g>
<!-- src/main/report&#45;wrap.js -->
<g id="node5" class="node">
<title>src/main/report&#45;wrap.js</title>
<g id="a_node5"><a xlink:href="src/main/report-wrap.js" xlink:title="report&#45;wrap.js">
<path fill="#ffffcc" stroke="black" d="M208,-162C208,-162 148,-162 148,-162 145,-162 142,-159 142,-156 142,-156 142,-150 142,-150 142,-147 145,-144 148,-144 148,-144 208,-144 208,-144 211,-144 214,-147 214,-150 214,-150 214,-156 214,-156 214,-159 211,-162 208,-162"/>
<text text-anchor="middle" x="178" y="-150.8" font-family="Helvetica,sans-Serif" font-size="9.00">report&#45;wrap.js</text>
</a>
</g>
</g>
<!-- src/main/index.js&#45;&gt;src/main/report&#45;wrap.js -->
<g id="edge4" class="edge">
<title>src/main/index.js&#45;&gt;src/main/report&#45;wrap.js</title>
<path fill="none" stroke="#000000" stroke-width="2" stroke-opacity="0.200000" d="M178,-195.74C178,-188.24 178,-177.02 178,-168.1"/>
<polygon fill="#000000" fill-opacity="0.200000" stroke="#000000" stroke-width="2" stroke-opacity="0.200000" points="180.1,-168.1 178,-162.1 175.9,-168.1 180.1,-168.1"/>
</g>
<!-- src/main/resolve&#45;options/normalize.js -->
<g id="node6" class="node">
<title>src/main/resolve&#45;options/normalize.js</title>
<g id="a_node6"><a xlink:href="src/main/resolve-options/normalize.js" xlink:title="normalize.js">
<path fill="#ffffcc" stroke="black" d="M289.5,-162C289.5,-162 236.5,-162 236.5,-162 233.5,-162 230.5,-159 230.5,-156 230.5,-156 230.5,-150 230.5,-150 230.5,-147 233.5,-144 236.5,-144 236.5,-144 289.5,-144 289.5,-144 292.5,-144 295.5,-147 295.5,-150 295.5,-150 295.5,-156 295.5,-156 295.5,-159 292.5,-162 289.5,-162"/>
<text text-anchor="middle" x="263" y="-150.8" font-family="Helvetica,sans-Serif" font-size="9.00">normalize.js</text>
</a>
</g>
</g>
<!-- src/main/index.js&#45;&gt;src/main/resolve&#45;options/normalize.js -->
<g id="edge5" class="edge">
<title>src/main/index.js&#45;&gt;src/main/resolve&#45;options/normalize.js</title>
<path fill="none" stroke="#000000" stroke-width="2" stroke-opacity="0.200000" d="M205.12,-197.49C212.5,-195.1 220.31,-191.98 227,-188 236.49,-182.36 245.51,-173.83 252.15,-166.72"/>
<polygon fill="#000000" fill-opacity="0.200000" stroke="#000000" stroke-width="2" stroke-opacity="0.200000" points="253.88,-167.94 256.35,-162.08 250.76,-165.13 253.88,-167.94"/>
</g>
<!-- src/main/rule&#45;set/normalize.js -->
<g id="node7" class="node">
<title>src/main/rule&#45;set/normalize.js</title>
<g id="a_node7"><a xlink:href="src/main/rule-set/normalize.js" xlink:title="normalize.js">
<path fill="#ffffcc" stroke="black" d="M450.5,-162C450.5,-162 397.5,-162 397.5,-162 394.5,-162 391.5,-159 391.5,-156 391.5,-156 391.5,-150 391.5,-150 391.5,-147 394.5,-144 397.5,-144 397.5,-144 450.5,-144 450.5,-144 453.5,-144 456.5,-147 456.5,-150 456.5,-150 456.5,-156 456.5,-156 456.5,-159 453.5,-162 450.5,-162"/>
<text text-anchor="middle" x="424" y="-150.8" font-family="Helvetica,sans-Serif" font-size="9.00">normalize.js</text>
</a>
</g>
</g>
<!-- src/main/index.js&#45;&gt;src/main/rule&#45;set/normalize.js -->
<g id="edge6" class="edge">
<title>src/main/index.js&#45;&gt;src/main/rule&#45;set/normalize.js</title>
<path fill="none" stroke="#000000" stroke-width="2" stroke-opacity="0.200000" d="M205.27,-204.05C254.06,-203.8 354.19,-201.58 386,-188 396.72,-183.43 406.46,-174.57 413.4,-167.04"/>
<polygon fill="#000000" fill-opacity="0.200000" stroke="#000000" stroke-width="2" stroke-opacity="0.200000" points="415.35,-168 417.73,-162.11 412.19,-165.23 415.35,-168"/>
</g>
<!-- src/main/rule&#45;set/validate.js -->
<g id="node8" class="node">
<title>src/main/rule&#45;set/validate.js</title>
<g id="a_node8"><a xlink:href="src/main/rule-set/validate.js" xlink:title="validate.js">
<path fill="#ffffcc" stroke="black" d="M373.5,-162C373.5,-162 328.5,-162 328.5,-162 325.5,-162 322.5,-159 322.5,-156 322.5,-156 322.5,-150 322.5,-150 322.5,-147 325.5,-144 328.5,-144 328.5,-144 373.5,-144 373.5,-144 376.5,-144 379.5,-147 379.5,-150 379.5,-150 379.5,-156 379.5,-156 379.5,-159 376.5,-162 373.5,-162"/>
<text text-anchor="middle" x="351" y="-150.8" font-family="Helvetica,sans-Serif" font-size="9.00">validate.js</text>
</a>
</g>
</g>
<!-- src/main/index.js&#45;&gt;src/main/rule&#45;set/validate.js -->
<g id="edge7" class="edge">
<title>src/main/index.js&#45;&gt;src/main/rule&#45;set/validate.js</title>
<path fill="none" stroke="#000000" stroke-width="2" stroke-opacity="0.200000" d="M205.21,-204.97C232.52,-204.98 275.25,-202.31 309,-188 320.44,-183.15 331.29,-174.21 339.1,-166.72"/>
<polygon fill="#000000" fill-opacity="0.200000" stroke="#000000" stroke-width="2" stroke-opacity="0.200000" points="340.77,-168.01 343.54,-162.29 337.81,-165.03 340.77,-168.01"/>
</g>
<!-- src/main/options/defaults.js -->
<g id="node9" class="node">
<title>src/main/options/defaults.js</title>
<g id="a_node9"><a xlink:href="src/main/options/defaults.js" xlink:title="defaults.js">
<path fill="#ffffcc" stroke="black" d="M156.5,-50C156.5,-50 111.5,-50 111.5,-50 108.5,-50 105.5,-47 105.5,-44 105.5,-44 105.5,-38 105.5,-38 105.5,-35 108.5,-32 111.5,-32 111.5,-32 156.5,-32 156.5,-32 159.5,-32 162.5,-35 162.5,-38 162.5,-38 162.5,-44 162.5,-44 162.5,-47 159.5,-50 156.5,-50"/>
<text text-anchor="middle" x="134" y="-38.8" font-family="Helvetica,sans-Serif" font-size="9.00">defaults.js</text>
</a>
</g>
</g>
<!-- src/main/options/normalize.js&#45;&gt;src/main/options/defaults.js -->
<g id="edge9" class="edge">
<title>src/main/options/normalize.js&#45;&gt;src/main/options/defaults.js</title>
<path fill="none" stroke="#000000" stroke-width="2" stroke-opacity="0.200000" d="M134,-83.74C134,-76.24 134,-65.02 134,-56.1"/>
<polygon fill="#000000" fill-opacity="0.200000" stroke="#000000" stroke-width="2" stroke-opacity="0.200000" points="136.1,-56.1 134,-50.1 131.9,-56.1 136.1,-56.1"/>
</g>
<!-- src/main/utl/normalize&#45;re&#45;properties.js -->
<g id="node10" class="node">
<title>src/main/utl/normalize&#45;re&#45;properties.js</title>
<g id="a_node10"><a xlink:href="src/main/utl/normalize-re-properties.js" xlink:title="normalize&#45;re&#45;properties.js">
<path fill="#ffffcc" stroke="black" d="M421.5,-50C421.5,-50 314.5,-50 314.5,-50 311.5,-50 308.5,-47 308.5,-44 308.5,-44 308.5,-38 308.5,-38 308.5,-35 311.5,-32 314.5,-32 314.5,-32 421.5,-32 421.5,-32 424.5,-32 427.5,-35 427.5,-38 427.5,-38 427.5,-44 427.5,-44 427.5,-47 424.5,-50 421.5,-50"/>
<text text-anchor="middle" x="368" y="-38.8" font-family="Helvetica,sans-Serif" font-size="9.00">normalize&#45;re&#45;properties.js</text>
</a>
</g>
</g>
<!-- src/main/options/normalize.js&#45;&gt;src/main/utl/normalize&#45;re&#45;properties.js -->
<g id="edge8" class="edge">
<title>src/main/options/normalize.js&#45;&gt;src/main/utl/normalize&#45;re&#45;properties.js</title>
<path fill="none" stroke="#000000" stroke-width="2" stroke-opacity="0.200000" d="M166.73,-85.05C168.85,-84.68 170.95,-84.32 173,-84 205.68,-78.89 214.52,-82.27 247,-76 278.4,-69.93 313.51,-59.67 337.79,-52"/>
<polygon fill="#000000" fill-opacity="0.200000" stroke="#000000" stroke-width="2" stroke-opacity="0.200000" points="338.64,-53.93 343.72,-50.11 337.37,-49.93 338.64,-53.93"/>
</g>
<!-- src/main/rule&#45;set/normalize.js&#45;&gt;src/main/utl/normalize&#45;re&#45;properties.js -->
<g id="edge10" class="edge">
<title>src/main/rule&#45;set/normalize.js&#45;&gt;src/main/utl/normalize&#45;re&#45;properties.js</title>
<path fill="none" stroke="#000000" stroke-width="2" stroke-opacity="0.200000" d="M419.79,-143.73C410.22,-124.93 386.73,-78.8 374.96,-55.68"/>
<polygon fill="#000000" fill-opacity="0.200000" stroke="#000000" stroke-width="2" stroke-opacity="0.200000" points="376.7,-54.46 372.11,-50.06 372.96,-56.36 376.7,-54.46"/>
</g>
<!-- src/main/rule&#45;set/validate.js&#45;&gt;src/main/options/validate.js -->
<g id="edge11" class="edge">
<title>src/main/rule&#45;set/validate.js&#45;&gt;src/main/options/validate.js</title>
<path fill="none" stroke="#000000" stroke-width="2" stroke-opacity="0.200000" d="M330.98,-143.94C305.44,-133.65 261.21,-115.84 233.07,-104.5"/>
<polygon fill="#000000" fill-opacity="0.200000" stroke="#000000" stroke-width="2" stroke-opacity="0.200000" points="233.67,-102.48 227.32,-102.18 232.1,-106.37 233.67,-102.48"/>
</g>
</g>
</svg>
