<?xml version="1.0" encoding="UTF-8" standalone="no"?>
<!DOCTYPE svg PUBLIC "-//W3C//DTD SVG 1.1//EN"
 "http://www.w3.org/Graphics/SVG/1.1/DTD/svg11.dtd">
<!-- Generated by graphviz version 6.0.1 (20220911.1526)
 -->
<!-- Title: dependency&#45;cruiser output Pages: 1 -->
<svg width="499pt" height="282pt"
 viewBox="0.00 0.00 499.00 282.00" xmlns="http://www.w3.org/2000/svg" xmlns:xlink="http://www.w3.org/1999/xlink">
<g id="graph0" class="graph" transform="scale(1 1) rotate(0) translate(4 278)">
<title>dependency&#45;cruiser output</title>
<polygon fill="white" stroke="none" points="-4,4 -4,-278 495,-278 495,4 -4,4"/>
<g id="clust1" class="cluster">
<title>cluster_src</title>
<path fill="#ffffff" stroke="black" stroke-width="2" d="M20,-8C20,-8 471,-8 471,-8 477,-8 483,-14 483,-20 483,-20 483,-254 483,-254 483,-260 477,-266 471,-266 471,-266 20,-266 20,-266 14,-266 8,-260 8,-254 8,-254 8,-20 8,-20 8,-14 14,-8 20,-8"/>
<text text-anchor="middle" x="245.5" y="-254.8" font-family="Helvetica,sans-Serif" font-weight="bold" font-size="9.00">src</text>
</g>
<g id="clust2" class="cluster">
<title>cluster_src/main</title>
<path fill="#ffffff" stroke="black" stroke-width="2" d="M28,-16C28,-16 463,-16 463,-16 469,-16 475,-22 475,-28 475,-28 475,-228 475,-228 475,-234 469,-240 463,-240 463,-240 28,-240 28,-240 22,-240 16,-234 16,-228 16,-228 16,-28 16,-28 16,-22 22,-16 28,-16"/>
<text text-anchor="middle" x="245.5" y="-228.8" font-family="Helvetica,sans-Serif" font-weight="bold" font-size="9.00">main</text>
</g>
<g id="clust3" class="cluster">
<title>cluster_src/main/files&#45;and&#45;dirs</title>
<path fill="#ffffff" stroke="black" stroke-width="2" d="M36,-136C36,-136 94,-136 94,-136 100,-136 106,-142 106,-148 106,-148 106,-176 106,-176 106,-182 100,-188 94,-188 94,-188 36,-188 36,-188 30,-188 24,-182 24,-176 24,-176 24,-148 24,-148 24,-142 30,-136 36,-136"/>
<text text-anchor="middle" x="65" y="-176.8" font-family="Helvetica,sans-Serif" font-weight="bold" font-size="9.00">files&#45;and&#45;dirs</text>
</g>
<g id="clust4" class="cluster">
<title>cluster_src/main/options</title>
<path fill="#ffffff" stroke="black" stroke-width="2" d="M172,-24C172,-24 300,-24 300,-24 306,-24 312,-30 312,-36 312,-36 312,-116 312,-116 312,-122 306,-128 300,-128 300,-128 172,-128 172,-128 166,-128 160,-122 160,-116 160,-116 160,-36 160,-36 160,-30 166,-24 172,-24"/>
<text text-anchor="middle" x="236" y="-116.8" font-family="Helvetica,sans-Serif" font-weight="bold" font-size="9.00">options</text>
</g>
<g id="clust5" class="cluster">
<title>cluster_src/main/resolve&#45;options</title>
<path fill="#ffffff" stroke="black" stroke-width="2" d="M236,-136C236,-136 295,-136 295,-136 301,-136 307,-142 307,-148 307,-148 307,-176 307,-176 307,-182 301,-188 295,-188 295,-188 236,-188 236,-188 230,-188 224,-182 224,-176 224,-176 224,-148 224,-148 224,-142 230,-136 236,-136"/>
<text text-anchor="middle" x="265.5" y="-176.8" font-family="Helvetica,sans-Serif" font-weight="bold" font-size="9.00">resolve&#45;options</text>
</g>
<g id="clust6" class="cluster">
<title>cluster_src/main/rule&#45;set</title>
<path fill="#ffffff" stroke="black" stroke-width="2" d="M327,-136C327,-136 455,-136 455,-136 461,-136 467,-142 467,-148 467,-148 467,-176 467,-176 467,-182 461,-188 455,-188 455,-188 327,-188 327,-188 321,-188 315,-182 315,-176 315,-176 315,-148 315,-148 315,-142 321,-136 327,-136"/>
<text text-anchor="middle" x="391" y="-176.8" font-family="Helvetica,sans-Serif" font-weight="bold" font-size="9.00">rule&#45;set</text>
</g>
<g id="clust7" class="cluster">
<title>cluster_src/main/utl</title>
<path fill="#ffffff" stroke="black" stroke-width="2" d="M332,-24C332,-24 446,-24 446,-24 452,-24 458,-30 458,-36 458,-36 458,-64 458,-64 458,-70 452,-76 446,-76 446,-76 332,-76 332,-76 326,-76 320,-70 320,-64 320,-64 320,-36 320,-36 320,-30 326,-24 332,-24"/>
<text text-anchor="middle" x="389" y="-64.8" font-family="Helvetica,sans-Serif" font-weight="bold" font-size="9.00">utl</text>
</g>
<!-- src/main/files&#45;and&#45;dirs/normalize.js -->
<g id="node1" class="node">
<title>src/main/files&#45;and&#45;dirs/normalize.js</title>
<g id="a_node1"><a xlink:href="src/main/files-and-dirs/normalize.js" xlink:title="normalize.js">
<path fill="#ffffcc" stroke="black" d="M92,-162C92,-162 38,-162 38,-162 35,-162 32,-159 32,-156 32,-156 32,-150 32,-150 32,-147 35,-144 38,-144 38,-144 92,-144 92,-144 95,-144 98,-147 98,-150 98,-150 98,-156 98,-156 98,-159 95,-162 92,-162"/>
<text text-anchor="start" x="40" y="-150.8" font-family="Helvetica,sans-Serif" font-size="9.00">normalize.js</text>
</a>
</g>
</g>
<!-- src/main/index.js -->
<g id="node2" class="node">
<title>src/main/index.js</title>
<g id="a_node2"><a xlink:href="src/main/index.js" xlink:title="index.js">
<path fill="#ffffcc" stroke="black" d="M236,-214C236,-214 194,-214 194,-214 191,-214 188,-211 188,-208 188,-208 188,-202 188,-202 188,-199 191,-196 194,-196 194,-196 236,-196 236,-196 239,-196 242,-199 242,-202 242,-202 242,-208 242,-208 242,-211 239,-214 236,-214"/>
<text text-anchor="start" x="199" y="-202.8" font-family="Helvetica,sans-Serif" font-size="9.00">index.js</text>
</a>
</g>
</g>
<!-- src/main/index.js&#45;&gt;src/main/files&#45;and&#45;dirs/normalize.js -->
<g id="edge1" class="edge">
<title>src/main/index.js&#45;&gt;src/main/files&#45;and&#45;dirs/normalize.js</title>
<path fill="none" stroke="#000000" stroke-width="2" stroke-opacity="0.200000" d="M187.68,-204.6C163.96,-204.11 129.22,-200.88 102,-188 91.75,-183.15 82.37,-174.46 75.62,-167.08"/>
<polygon fill="#000000" fill-opacity="0.200000" stroke="#000000" stroke-width="2" stroke-opacity="0.200000" points="76.92,-165.37 71.38,-162.24 73.75,-168.14 76.92,-165.37"/>
</g>
<!-- src/main/options/normalize.js -->
<g id="node3" class="node">
<title>src/main/options/normalize.js</title>
<g id="a_node3"><a xlink:href="src/main/options/normalize.js" xlink:title="normalize.js">
<path fill="#ffffcc" stroke="black" d="M228,-102C228,-102 174,-102 174,-102 171,-102 168,-99 168,-96 168,-96 168,-90 168,-90 168,-87 171,-84 174,-84 174,-84 228,-84 228,-84 231,-84 234,-87 234,-90 234,-90 234,-96 234,-96 234,-99 231,-102 228,-102"/>
<text text-anchor="start" x="176" y="-90.8" font-family="Helvetica,sans-Serif" font-size="9.00">normalize.js</text>
</a>
</g>
</g>
<!-- src/main/index.js&#45;&gt;src/main/options/normalize.js -->
<g id="edge2" class="edge">
<title>src/main/index.js&#45;&gt;src/main/options/normalize.js</title>
<path fill="none" stroke="#000000" stroke-width="2" stroke-opacity="0.200000" d="M212.74,-195.91C212.11,-193.39 211.46,-190.59 211,-188 206.02,-159.94 203.2,-126.69 201.89,-108.2"/>
<polygon fill="#000000" fill-opacity="0.200000" stroke="#000000" stroke-width="2" stroke-opacity="0.200000" points="203.98,-107.95 201.48,-102.1 199.79,-108.23 203.98,-107.95"/>
</g>
<!-- src/main/options/validate.js -->
<g id="node4" class="node">
<title>src/main/options/validate.js</title>
<g id="a_node4"><a xlink:href="src/main/options/validate.js" xlink:title="validate.js">
<path fill="#ffffcc" stroke="black" d="M298,-102C298,-102 252,-102 252,-102 249,-102 246,-99 246,-96 246,-96 246,-90 246,-90 246,-87 249,-84 252,-84 252,-84 298,-84 298,-84 301,-84 304,-87 304,-90 304,-90 304,-96 304,-96 304,-99 301,-102 298,-102"/>
<text text-anchor="start" x="254" y="-90.8" font-family="Helvetica,sans-Serif" font-size="9.00">validate.js</text>
</a>
</g>
</g>
<!-- src/main/index.js&#45;&gt;src/main/options/validate.js -->
<g id="edge3" class="edge">
<title>src/main/index.js&#45;&gt;src/main/options/validate.js</title>
<path fill="none" stroke="#000000" stroke-width="2" stroke-opacity="0.200000" d="M213.27,-195.97C210.79,-182.24 207.87,-154 221,-136 226.4,-128.6 232.36,-133.06 240,-128 248.95,-122.07 257.62,-113.68 264.09,-106.72"/>
<polygon fill="#000000" fill-opacity="0.200000" stroke="#000000" stroke-width="2" stroke-opacity="0.200000" points="265.73,-108.03 268.2,-102.17 262.62,-105.22 265.73,-108.03"/>
</g>
<!-- src/main/report&#45;wrap.js -->
<g id="node5" class="node">
<title>src/main/report&#45;wrap.js</title>
<g id="a_node5"><a xlink:href="src/main/report-wrap.js" xlink:title="report&#45;wrap.js">
<path fill="#ffffcc" stroke="black" d="M181.5,-162C181.5,-162 120.5,-162 120.5,-162 117.5,-162 114.5,-159 114.5,-156 114.5,-156 114.5,-150 114.5,-150 114.5,-147 117.5,-144 120.5,-144 120.5,-144 181.5,-144 181.5,-144 184.5,-144 187.5,-147 187.5,-150 187.5,-150 187.5,-156 187.5,-156 187.5,-159 184.5,-162 181.5,-162"/>
<text text-anchor="start" x="122.5" y="-150.8" font-family="Helvetica,sans-Serif" font-size="9.00">report&#45;wrap.js</text>
</a>
</g>
</g>
<!-- src/main/index.js&#45;&gt;src/main/report&#45;wrap.js -->
<g id="edge4" class="edge">
<title>src/main/index.js&#45;&gt;src/main/report&#45;wrap.js</title>
<path fill="none" stroke="#000000" stroke-width="2" stroke-opacity="0.200000" d="M204.72,-195.97C194.33,-187.85 178.16,-175.22 166.27,-165.93"/>
<polygon fill="#000000" fill-opacity="0.200000" stroke="#000000" stroke-width="2" stroke-opacity="0.200000" points="167.49,-164.22 161.47,-162.18 164.91,-167.53 167.49,-164.22"/>
</g>
<!-- src/main/resolve&#45;options/normalize.js -->
<g id="node6" class="node">
<title>src/main/resolve&#45;options/normalize.js</title>
<g id="a_node6"><a xlink:href="src/main/resolve-options/normalize.js" xlink:title="normalize.js">
<path fill="#ffffcc" stroke="black" d="M292,-162C292,-162 238,-162 238,-162 235,-162 232,-159 232,-156 232,-156 232,-150 232,-150 232,-147 235,-144 238,-144 238,-144 292,-144 292,-144 295,-144 298,-147 298,-150 298,-150 298,-156 298,-156 298,-159 295,-162 292,-162"/>
<text text-anchor="start" x="240" y="-150.8" font-family="Helvetica,sans-Serif" font-size="9.00">normalize.js</text>
</a>
</g>
</g>
<!-- src/main/index.js&#45;&gt;src/main/resolve&#45;options/normalize.js -->
<g id="edge5" class="edge">
<title>src/main/index.js&#45;&gt;src/main/resolve&#45;options/normalize.js</title>
<path fill="none" stroke="#000000" stroke-width="2" stroke-opacity="0.200000" d="M223.26,-195.74C231.19,-187.81 243.3,-175.7 252.43,-166.57"/>
<polygon fill="#000000" fill-opacity="0.200000" stroke="#000000" stroke-width="2" stroke-opacity="0.200000" points="254.14,-167.83 256.9,-162.1 251.17,-164.86 254.14,-167.83"/>
</g>
<!-- src/main/rule&#45;set/normalize.js -->
<g id="node7" class="node">
<title>src/main/rule&#45;set/normalize.js</title>
<g id="a_node7"><a xlink:href="src/main/rule-set/normalize.js" xlink:title="normalize.js">
<path fill="#ffffcc" stroke="black" d="M453,-162C453,-162 399,-162 399,-162 396,-162 393,-159 393,-156 393,-156 393,-150 393,-150 393,-147 396,-144 399,-144 399,-144 453,-144 453,-144 456,-144 459,-147 459,-150 459,-150 459,-156 459,-156 459,-159 456,-162 453,-162"/>
<text text-anchor="start" x="401" y="-150.8" font-family="Helvetica,sans-Serif" font-size="9.00">normalize.js</text>
</a>
</g>
</g>
<!-- src/main/index.js&#45;&gt;src/main/rule&#45;set/normalize.js -->
<g id="edge6" class="edge">
<title>src/main/index.js&#45;&gt;src/main/rule&#45;set/normalize.js</title>
<path fill="none" stroke="#000000" stroke-width="2" stroke-opacity="0.200000" d="M242.15,-203.49C283.88,-202.38 361.64,-198.87 387,-188 398.08,-183.25 408.25,-174.14 415.43,-166.55"/>
<polygon fill="#000000" fill-opacity="0.200000" stroke="#000000" stroke-width="2" stroke-opacity="0.200000" points="417.02,-167.92 419.5,-162.07 413.91,-165.1 417.02,-167.92"/>
</g>
<!-- src/main/rule&#45;set/validate.js -->
<g id="node8" class="node">
<title>src/main/rule&#45;set/validate.js</title>
<g id="a_node8"><a xlink:href="src/main/rule-set/validate.js" xlink:title="validate.js">
<path fill="#ffffcc" stroke="black" d="M375,-162C375,-162 329,-162 329,-162 326,-162 323,-159 323,-156 323,-156 323,-150 323,-150 323,-147 326,-144 329,-144 329,-144 375,-144 375,-144 378,-144 381,-147 381,-150 381,-150 381,-156 381,-156 381,-159 378,-162 375,-162"/>
<text text-anchor="start" x="331" y="-150.8" font-family="Helvetica,sans-Serif" font-size="9.00">validate.js</text>
</a>
</g>
</g>
<!-- src/main/index.js&#45;&gt;src/main/rule&#45;set/validate.js -->
<g id="edge7" class="edge">
<title>src/main/index.js&#45;&gt;src/main/rule&#45;set/validate.js</title>
<path fill="none" stroke="#000000" stroke-width="2" stroke-opacity="0.200000" d="M242.27,-203.08C261.87,-201.56 288.5,-197.7 310,-188 321.33,-182.89 332.18,-173.96 340.02,-166.54"/>
<polygon fill="#000000" fill-opacity="0.200000" stroke="#000000" stroke-width="2" stroke-opacity="0.200000" points="341.67,-167.86 344.48,-162.15 338.73,-164.86 341.67,-167.86"/>
</g>
<!-- src/main/options/defaults.js -->
<g id="node9" class="node">
<title>src/main/options/defaults.js</title>
<g id="a_node9"><a xlink:href="src/main/options/defaults.js" xlink:title="defaults.js">
<path fill="#ffffcc" stroke="black" d="M224,-50C224,-50 178,-50 178,-50 175,-50 172,-47 172,-44 172,-44 172,-38 172,-38 172,-35 175,-32 178,-32 178,-32 224,-32 224,-32 227,-32 230,-35 230,-38 230,-38 230,-44 230,-44 230,-47 227,-50 224,-50"/>
<text text-anchor="start" x="180" y="-38.8" font-family="Helvetica,sans-Serif" font-size="9.00">defaults.js</text>
</a>
</g>
</g>
<!-- src/main/options/normalize.js&#45;&gt;src/main/options/defaults.js -->
<g id="edge9" class="edge">
<title>src/main/options/normalize.js&#45;&gt;src/main/options/defaults.js</title>
<path fill="none" stroke="#000000" stroke-width="2" stroke-opacity="0.200000" d="M201,-83.74C201,-76.24 201,-65.02 201,-56.1"/>
<polygon fill="#000000" fill-opacity="0.200000" stroke="#000000" stroke-width="2" stroke-opacity="0.200000" points="203.1,-56.1 201,-50.1 198.9,-56.1 203.1,-56.1"/>
</g>
<!-- src/main/utl/normalize&#45;re&#45;properties.js -->
<g id="node10" class="node">
<title>src/main/utl/normalize&#45;re&#45;properties.js</title>
<g id="a_node10"><a xlink:href="src/main/utl/normalize-re-properties.js" xlink:title="normalize&#45;re&#45;properties.js">
<path fill="#ffffcc" stroke="black" d="M444,-50C444,-50 334,-50 334,-50 331,-50 328,-47 328,-44 328,-44 328,-38 328,-38 328,-35 331,-32 334,-32 334,-32 444,-32 444,-32 447,-32 450,-35 450,-38 450,-38 450,-44 450,-44 450,-47 447,-50 444,-50"/>
<text text-anchor="start" x="336" y="-38.8" font-family="Helvetica,sans-Serif" font-size="9.00">normalize&#45;re&#45;properties.js</text>
</a>
</g>
</g>
<!-- src/main/options/normalize.js&#45;&gt;src/main/utl/normalize&#45;re&#45;properties.js -->
<g id="edge8" class="edge">
<title>src/main/options/normalize.js&#45;&gt;src/main/utl/normalize&#45;re&#45;properties.js</title>
<path fill="none" stroke="#000000" stroke-width="2" stroke-opacity="0.200000" d="M234.15,-84.97C236.13,-84.63 238.09,-84.3 240,-84 273.12,-78.85 282.68,-84.89 315,-76 334.38,-70.67 355.05,-60.78 369.6,-53.03"/>
<polygon fill="#000000" fill-opacity="0.200000" stroke="#000000" stroke-width="2" stroke-opacity="0.200000" points="370.78,-54.78 375.06,-50.08 368.78,-51.09 370.78,-54.78"/>
</g>
<!-- src/main/rule&#45;set/normalize.js&#45;&gt;src/main/utl/normalize&#45;re&#45;properties.js -->
<g id="edge10" class="edge">
<title>src/main/rule&#45;set/normalize.js&#45;&gt;src/main/utl/normalize&#45;re&#45;properties.js</title>
<path fill="none" stroke="#000000" stroke-width="2" stroke-opacity="0.200000" d="M423.22,-143.73C416.92,-125.01 401.51,-79.19 393.7,-55.97"/>
<polygon fill="#000000" fill-opacity="0.200000" stroke="#000000" stroke-width="2" stroke-opacity="0.200000" points="395.62,-55.08 391.71,-50.06 391.64,-56.42 395.62,-55.08"/>
</g>
<!-- src/main/rule&#45;set/validate.js&#45;&gt;src/main/options/validate.js -->
<g id="edge11" class="edge">
<title>src/main/rule&#45;set/validate.js&#45;&gt;src/main/options/validate.js</title>
<path fill="none" stroke="#000000" stroke-width="2" stroke-opacity="0.200000" d="M341.29,-143.94C328.23,-134.09 306.01,-117.36 290.93,-106"/>
<polygon fill="#000000" fill-opacity="0.200000" stroke="#000000" stroke-width="2" stroke-opacity="0.200000" points="292.17,-104.3 286.11,-102.37 289.64,-107.66 292.17,-104.3"/>
</g>
<!-- src/main/rule&#45;set/validate.js&#45;&gt;src/main/utl/normalize&#45;re&#45;properties.js -->
<g id="edge12" class="edge">
<title>src/main/rule&#45;set/validate.js&#45;&gt;src/main/utl/normalize&#45;re&#45;properties.js</title>
<path fill="none" stroke="#000000" stroke-width="2" stroke-opacity="0.200000" d="M354.78,-143.73C361.08,-125.01 376.49,-79.19 384.3,-55.97"/>
<polygon fill="#000000" fill-opacity="0.200000" stroke="#000000" stroke-width="2" stroke-opacity="0.200000" points="386.36,-56.42 386.29,-50.06 382.38,-55.08 386.36,-56.42"/>
</g>
</g>
</svg>
