<?xml version="1.0" encoding="UTF-8" standalone="no"?>
<!DOCTYPE svg PUBLIC "-//W3C//DTD SVG 1.1//EN"
 "http://www.w3.org/Graphics/SVG/1.1/DTD/svg11.dtd">
<!-- Generated by graphviz version 8.0.5 (20230430.1635)
 -->
<!-- Title: dependency&#45;cruiser output Pages: 1 -->
<svg width="495pt" height="280pt"
 viewBox="0.00 0.00 495.00 279.75" xmlns="http://www.w3.org/2000/svg" xmlns:xlink="http://www.w3.org/1999/xlink">
<g id="graph0" class="graph" transform="scale(1 1) rotate(0) translate(4 275.75)">
<title>dependency&#45;cruiser output</title>
<polygon fill="white" stroke="none" points="-4,4 -4,-275.75 491,-275.75 491,4 -4,4"/>
<g id="clust1" class="cluster">
<title>cluster_src</title>
<path fill="#ffffff" stroke="black" stroke-width="2" d="M20,-8C20,-8 467,-8 467,-8 473,-8 479,-14 479,-20 479,-20 479,-251.75 479,-251.75 479,-257.75 473,-263.75 467,-263.75 467,-263.75 20,-263.75 20,-263.75 14,-263.75 8,-257.75 8,-251.75 8,-251.75 8,-20 8,-20 8,-14 14,-8 20,-8"/>
<text text-anchor="middle" x="243.5" y="-251.2" font-family="Helvetica,sans-Serif" font-weight="bold" font-size="9.00">src</text>
</g>
<g id="clust2" class="cluster">
<title>cluster_src/main</title>
<path fill="#ffffff" stroke="black" stroke-width="2" d="M28,-16C28,-16 459,-16 459,-16 465,-16 471,-22 471,-28 471,-28 471,-226 471,-226 471,-232 465,-238 459,-238 459,-238 28,-238 28,-238 22,-238 16,-232 16,-226 16,-226 16,-28 16,-28 16,-22 22,-16 28,-16"/>
<text text-anchor="middle" x="243.5" y="-225.45" font-family="Helvetica,sans-Serif" font-weight="bold" font-size="9.00">main</text>
</g>
<g id="clust3" class="cluster">
<title>cluster_src/main/files&#45;and&#45;dirs</title>
<path fill="#ffffff" stroke="black" stroke-width="2" d="M36,-135C36,-135 94,-135 94,-135 100,-135 106,-141 106,-147 106,-147 106,-174.5 106,-174.5 106,-180.5 100,-186.5 94,-186.5 94,-186.5 36,-186.5 36,-186.5 30,-186.5 24,-180.5 24,-174.5 24,-174.5 24,-147 24,-147 24,-141 30,-135 36,-135"/>
<text text-anchor="middle" x="65" y="-173.95" font-family="Helvetica,sans-Serif" font-weight="bold" font-size="9.00">files&#45;and&#45;dirs</text>
</g>
<g id="clust4" class="cluster">
<title>cluster_src/main/options</title>
<path fill="#ffffff" stroke="black" stroke-width="2" d="M170,-24C170,-24 297,-24 297,-24 303,-24 309,-30 309,-36 309,-36 309,-115 309,-115 309,-121 303,-127 297,-127 297,-127 170,-127 170,-127 164,-127 158,-121 158,-115 158,-115 158,-36 158,-36 158,-30 164,-24 170,-24"/>
<text text-anchor="middle" x="233.5" y="-114.45" font-family="Helvetica,sans-Serif" font-weight="bold" font-size="9.00">options</text>
</g>
<g id="clust5" class="cluster">
<title>cluster_src/main/resolve&#45;options</title>
<path fill="#ffffff" stroke="black" stroke-width="2" d="M234,-135C234,-135 292,-135 292,-135 298,-135 304,-141 304,-147 304,-147 304,-174.5 304,-174.5 304,-180.5 298,-186.5 292,-186.5 292,-186.5 234,-186.5 234,-186.5 228,-186.5 222,-180.5 222,-174.5 222,-174.5 222,-147 222,-147 222,-141 228,-135 234,-135"/>
<text text-anchor="middle" x="263" y="-173.95" font-family="Helvetica,sans-Serif" font-weight="bold" font-size="9.00">resolve&#45;options</text>
</g>
<g id="clust6" class="cluster">
<title>cluster_src/main/rule&#45;set</title>
<path fill="#ffffff" stroke="black" stroke-width="2" d="M324,-135C324,-135 451,-135 451,-135 457,-135 463,-141 463,-147 463,-147 463,-174.5 463,-174.5 463,-180.5 457,-186.5 451,-186.5 451,-186.5 324,-186.5 324,-186.5 318,-186.5 312,-180.5 312,-174.5 312,-174.5 312,-147 312,-147 312,-141 318,-135 324,-135"/>
<text text-anchor="middle" x="387.5" y="-173.95" font-family="Helvetica,sans-Serif" font-weight="bold" font-size="9.00">rule&#45;set</text>
</g>
<g id="clust7" class="cluster">
<title>cluster_src/main/utl</title>
<path fill="#ffffff" stroke="black" stroke-width="2" d="M329,-24C329,-24 443,-24 443,-24 449,-24 455,-30 455,-36 455,-36 455,-63.5 455,-63.5 455,-69.5 449,-75.5 443,-75.5 443,-75.5 329,-75.5 329,-75.5 323,-75.5 317,-69.5 317,-63.5 317,-63.5 317,-36 317,-36 317,-30 323,-24 329,-24"/>
<text text-anchor="middle" x="386" y="-62.95" font-family="Helvetica,sans-Serif" font-weight="bold" font-size="9.00">utl</text>
</g>
<!-- src/main/files&#45;and&#45;dirs/normalize.js -->
<g id="node1" class="node">
<title>src/main/files&#45;and&#45;dirs/normalize.js</title>
<g id="a_node1"><a xlink:href="src/main/files-and-dirs/normalize.js" xlink:title="normalize.js">
<path fill="#ffffcc" stroke="black" d="M91.83,-160.75C91.83,-160.75 38.17,-160.75 38.17,-160.75 35.21,-160.75 32.25,-157.79 32.25,-154.83 32.25,-154.83 32.25,-148.92 32.25,-148.92 32.25,-145.96 35.21,-143 38.17,-143 38.17,-143 91.83,-143 91.83,-143 94.79,-143 97.75,-145.96 97.75,-148.92 97.75,-148.92 97.75,-154.83 97.75,-154.83 97.75,-157.79 94.79,-160.75 91.83,-160.75"/>
<text text-anchor="start" x="40.25" y="-148.2" font-family="Helvetica,sans-Serif" font-size="9.00">normalize.js</text>
</a>
</g>
</g>
<!-- src/main/index.d.ts -->
<g id="node2" class="node">
<title>src/main/index.d.ts</title>
<g id="a_node2"><a xlink:href="src/main/index.d.ts" xlink:title="index.d.ts">
<path fill="#ccffcc" stroke="black" d="M378.58,-212.25C378.58,-212.25 335.42,-212.25 335.42,-212.25 332.46,-212.25 329.5,-209.29 329.5,-206.33 329.5,-206.33 329.5,-200.42 329.5,-200.42 329.5,-197.46 332.46,-194.5 335.42,-194.5 335.42,-194.5 378.58,-194.5 378.58,-194.5 381.54,-194.5 384.5,-197.46 384.5,-200.42 384.5,-200.42 384.5,-206.33 384.5,-206.33 384.5,-209.29 381.54,-212.25 378.58,-212.25"/>
<text text-anchor="start" x="337.5" y="-199.7" font-family="Helvetica,sans-Serif" font-size="9.00">index.d.ts</text>
</a>
</g>
</g>
<!-- src/main/index.js -->
<g id="node3" class="node">
<title>src/main/index.js</title>
<g id="a_node3"><a xlink:href="src/main/index.js" xlink:title="index.js">
<path fill="#ffffcc" stroke="black" d="M234.08,-212.25C234.08,-212.25 191.92,-212.25 191.92,-212.25 188.96,-212.25 186,-209.29 186,-206.33 186,-206.33 186,-200.42 186,-200.42 186,-197.46 188.96,-194.5 191.92,-194.5 191.92,-194.5 234.08,-194.5 234.08,-194.5 237.04,-194.5 240,-197.46 240,-200.42 240,-200.42 240,-206.33 240,-206.33 240,-209.29 237.04,-212.25 234.08,-212.25"/>
<text text-anchor="start" x="197.25" y="-199.7" font-family="Helvetica,sans-Serif" font-size="9.00">index.js</text>
</a>
</g>
</g>
<!-- src/main/index.js&#45;&gt;src/main/files&#45;and&#45;dirs/normalize.js -->
<g id="edge1" class="edge">
<title>src/main/index.js&#45;&gt;src/main/files&#45;and&#45;dirs/normalize.js</title>
<path fill="none" stroke="#000000" stroke-width="2" stroke-opacity="0.200000" d="M185.72,-202.87C162.44,-202.29 128.6,-199.02 102,-186.5 92.58,-182.06 83.86,-174.4 77.25,-167.51"/>
<polygon fill="#000000" fill-opacity="0.200000" stroke="#000000" stroke-width="2" stroke-opacity="0.200000" points="78.98,-166.07 73.41,-163.02 75.86,-168.88 78.98,-166.07"/>
</g>
<!-- src/main/options/normalize.js -->
<g id="node4" class="node">
<title>src/main/options/normalize.js</title>
<g id="a_node4"><a xlink:href="src/main/options/normalize.js" xlink:title="normalize.js">
<path fill="#ffffcc" stroke="black" d="M225.83,-101.25C225.83,-101.25 172.17,-101.25 172.17,-101.25 169.21,-101.25 166.25,-98.29 166.25,-95.33 166.25,-95.33 166.25,-89.42 166.25,-89.42 166.25,-86.46 169.21,-83.5 172.17,-83.5 172.17,-83.5 225.83,-83.5 225.83,-83.5 228.79,-83.5 231.75,-86.46 231.75,-89.42 231.75,-89.42 231.75,-95.33 231.75,-95.33 231.75,-98.29 228.79,-101.25 225.83,-101.25"/>
<text text-anchor="start" x="174.25" y="-88.7" font-family="Helvetica,sans-Serif" font-size="9.00">normalize.js</text>
</a>
</g>
</g>
<!-- src/main/index.js&#45;&gt;src/main/options/normalize.js -->
<g id="edge2" class="edge">
<title>src/main/index.js&#45;&gt;src/main/options/normalize.js</title>
<path fill="none" stroke="#000000" stroke-width="2" stroke-opacity="0.200000" d="M210.66,-194.02C210.05,-191.61 209.44,-188.96 209,-186.5 204.29,-160.18 201.51,-129.25 200.12,-110.49"/>
<polygon fill="#000000" fill-opacity="0.200000" stroke="#000000" stroke-width="2" stroke-opacity="0.200000" points="202.01,-110.49 199.5,-104.65 197.82,-110.78 202.01,-110.49"/>
</g>
<!-- src/main/options/validate.js -->
<g id="node5" class="node">
<title>src/main/options/validate.js</title>
<g id="a_node5"><a xlink:href="src/main/options/validate.js" xlink:title="validate.js">
<path fill="#ffffcc" stroke="black" d="M294.71,-101.25C294.71,-101.25 249.29,-101.25 249.29,-101.25 246.33,-101.25 243.38,-98.29 243.38,-95.33 243.38,-95.33 243.38,-89.42 243.38,-89.42 243.38,-86.46 246.33,-83.5 249.29,-83.5 249.29,-83.5 294.71,-83.5 294.71,-83.5 297.67,-83.5 300.62,-86.46 300.62,-89.42 300.62,-89.42 300.62,-95.33 300.62,-95.33 300.62,-98.29 297.67,-101.25 294.71,-101.25"/>
<text text-anchor="start" x="251.38" y="-88.7" font-family="Helvetica,sans-Serif" font-size="9.00">validate.js</text>
</a>
</g>
</g>
<!-- src/main/index.js&#45;&gt;src/main/options/validate.js -->
<g id="edge3" class="edge">
<title>src/main/index.js&#45;&gt;src/main/options/validate.js</title>
<path fill="none" stroke="#000000" stroke-width="2" stroke-opacity="0.200000" d="M211.29,-194.41C208.85,-180.81 205.98,-152.83 219,-135 224.4,-127.6 230.38,-132.09 238,-127 245.91,-121.71 253.55,-114.43 259.57,-107.99"/>
<polygon fill="#000000" fill-opacity="0.200000" stroke="#000000" stroke-width="2" stroke-opacity="0.200000" points="260.98,-109.33 263.42,-103.46 257.85,-106.53 260.98,-109.33"/>
</g>
<!-- src/main/report&#45;wrap.js -->
<g id="node6" class="node">
<title>src/main/report&#45;wrap.js</title>
<g id="a_node6"><a xlink:href="src/main/report-wrap.js" xlink:title="report&#45;wrap.js">
<path fill="#ffffcc" stroke="black" d="M180.21,-160.75C180.21,-160.75 119.79,-160.75 119.79,-160.75 116.83,-160.75 113.88,-157.79 113.88,-154.83 113.88,-154.83 113.88,-148.92 113.88,-148.92 113.88,-145.96 116.83,-143 119.79,-143 119.79,-143 180.21,-143 180.21,-143 183.17,-143 186.12,-145.96 186.12,-148.92 186.12,-148.92 186.12,-154.83 186.12,-154.83 186.12,-157.79 183.17,-160.75 180.21,-160.75"/>
<text text-anchor="start" x="121.88" y="-148.2" font-family="Helvetica,sans-Serif" font-size="9.00">report&#45;wrap.js</text>
</a>
</g>
</g>
<!-- src/main/index.js&#45;&gt;src/main/report&#45;wrap.js -->
<g id="edge4" class="edge">
<title>src/main/index.js&#45;&gt;src/main/report&#45;wrap.js</title>
<path fill="none" stroke="#000000" stroke-width="2" stroke-opacity="0.200000" d="M202.6,-194.2C193.08,-186.72 178.8,-175.51 167.53,-166.65"/>
<polygon fill="#000000" fill-opacity="0.200000" stroke="#000000" stroke-width="2" stroke-opacity="0.200000" points="168.64,-164.28 162.63,-162.23 166.05,-167.58 168.64,-164.28"/>
</g>
<!-- src/main/resolve&#45;options/normalize.js -->
<g id="node7" class="node">
<title>src/main/resolve&#45;options/normalize.js</title>
<g id="a_node7"><a xlink:href="src/main/resolve-options/normalize.js" xlink:title="normalize.js">
<path fill="#ffffcc" stroke="black" d="M289.83,-160.75C289.83,-160.75 236.17,-160.75 236.17,-160.75 233.21,-160.75 230.25,-157.79 230.25,-154.83 230.25,-154.83 230.25,-148.92 230.25,-148.92 230.25,-145.96 233.21,-143 236.17,-143 236.17,-143 289.83,-143 289.83,-143 292.79,-143 295.75,-145.96 295.75,-148.92 295.75,-148.92 295.75,-154.83 295.75,-154.83 295.75,-157.79 292.79,-160.75 289.83,-160.75"/>
<text text-anchor="start" x="238.25" y="-148.2" font-family="Helvetica,sans-Serif" font-size="9.00">normalize.js</text>
</a>
</g>
</g>
<!-- src/main/index.js&#45;&gt;src/main/resolve&#45;options/normalize.js -->
<g id="edge5" class="edge">
<title>src/main/index.js&#45;&gt;src/main/resolve&#45;options/normalize.js</title>
<path fill="none" stroke="#000000" stroke-width="2" stroke-opacity="0.200000" d="M221.26,-194.2C228.59,-186.94 239.49,-176.15 248.32,-167.41"/>
<polygon fill="#000000" fill-opacity="0.200000" stroke="#000000" stroke-width="2" stroke-opacity="0.200000" points="249.78,-168.94 252.56,-163.23 246.82,-165.96 249.78,-168.94"/>
</g>
<!-- src/main/rule&#45;set/normalize.js -->
<g id="node8" class="node">
<title>src/main/rule&#45;set/normalize.js</title>
<g id="a_node8"><a xlink:href="src/main/rule-set/normalize.js" xlink:title="normalize.js">
<path fill="#ffffcc" stroke="black" d="M448.83,-160.75C448.83,-160.75 395.17,-160.75 395.17,-160.75 392.21,-160.75 389.25,-157.79 389.25,-154.83 389.25,-154.83 389.25,-148.92 389.25,-148.92 389.25,-145.96 392.21,-143 395.17,-143 395.17,-143 448.83,-143 448.83,-143 451.79,-143 454.75,-145.96 454.75,-148.92 454.75,-148.92 454.75,-154.83 454.75,-154.83 454.75,-157.79 451.79,-160.75 448.83,-160.75"/>
<text text-anchor="start" x="397.25" y="-148.2" font-family="Helvetica,sans-Serif" font-size="9.00">normalize.js</text>
</a>
</g>
</g>
<!-- src/main/index.js&#45;&gt;src/main/rule&#45;set/normalize.js -->
<g id="edge6" class="edge">
<title>src/main/index.js&#45;&gt;src/main/rule&#45;set/normalize.js</title>
<path fill="none" stroke="#000000" stroke-width="2" stroke-opacity="0.200000" d="M240.31,-200.29C286.93,-196.66 377.52,-189.31 384,-186.5 393.7,-182.3 402.66,-174.65 409.43,-167.71"/>
<polygon fill="#000000" fill-opacity="0.200000" stroke="#000000" stroke-width="2" stroke-opacity="0.200000" points="410.93,-169 413.43,-163.15 407.83,-166.16 410.93,-169"/>
</g>
<!-- src/main/rule&#45;set/validate.js -->
<g id="node9" class="node">
<title>src/main/rule&#45;set/validate.js</title>
<g id="a_node9"><a xlink:href="src/main/rule-set/validate.js" xlink:title="validate.js">
<path fill="#ffffcc" stroke="black" d="M371.71,-160.75C371.71,-160.75 326.29,-160.75 326.29,-160.75 323.33,-160.75 320.38,-157.79 320.38,-154.83 320.38,-154.83 320.38,-148.92 320.38,-148.92 320.38,-145.96 323.33,-143 326.29,-143 326.29,-143 371.71,-143 371.71,-143 374.67,-143 377.62,-145.96 377.62,-148.92 377.62,-148.92 377.62,-154.83 377.62,-154.83 377.62,-157.79 374.67,-160.75 371.71,-160.75"/>
<text text-anchor="start" x="328.38" y="-148.2" font-family="Helvetica,sans-Serif" font-size="9.00">validate.js</text>
</a>
</g>
</g>
<!-- src/main/index.js&#45;&gt;src/main/rule&#45;set/validate.js -->
<g id="edge7" class="edge">
<title>src/main/index.js&#45;&gt;src/main/rule&#45;set/validate.js</title>
<path fill="none" stroke="#000000" stroke-width="2" stroke-opacity="0.200000" d="M240.39,-201.39C259.72,-199.83 285.85,-195.97 307,-186.5 317.31,-181.88 327.26,-174.12 334.88,-167.22"/>
<polygon fill="#000000" fill-opacity="0.200000" stroke="#000000" stroke-width="2" stroke-opacity="0.200000" points="336.27,-168.89 339.17,-163.23 333.37,-165.85 336.27,-168.89"/>
</g>
<!-- src/main/options/defaults.js -->
<g id="node10" class="node">
<title>src/main/options/defaults.js</title>
<g id="a_node10"><a xlink:href="src/main/options/defaults.js" xlink:title="defaults.js">
<path fill="#ffffcc" stroke="black" d="M221.71,-49.75C221.71,-49.75 176.29,-49.75 176.29,-49.75 173.33,-49.75 170.38,-46.79 170.38,-43.83 170.38,-43.83 170.38,-37.92 170.38,-37.92 170.38,-34.96 173.33,-32 176.29,-32 176.29,-32 221.71,-32 221.71,-32 224.67,-32 227.62,-34.96 227.62,-37.92 227.62,-37.92 227.62,-43.83 227.62,-43.83 227.62,-46.79 224.67,-49.75 221.71,-49.75"/>
<text text-anchor="start" x="178.38" y="-37.2" font-family="Helvetica,sans-Serif" font-size="9.00">defaults.js</text>
</a>
</g>
</g>
<!-- src/main/options/normalize.js&#45;&gt;src/main/options/defaults.js -->
<g id="edge9" class="edge">
<title>src/main/options/normalize.js&#45;&gt;src/main/options/defaults.js</title>
<path fill="none" stroke="#000000" stroke-width="2" stroke-opacity="0.200000" d="M199,-83.2C199,-76.65 199,-67.23 199,-59.03"/>
<polygon fill="#000000" fill-opacity="0.200000" stroke="#000000" stroke-width="2" stroke-opacity="0.200000" points="201.1,-59.23 199,-53.23 196.9,-59.23 201.1,-59.23"/>
</g>
<!-- src/main/utl/normalize&#45;re&#45;properties.js -->
<g id="node11" class="node">
<title>src/main/utl/normalize&#45;re&#45;properties.js</title>
<g id="a_node11"><a xlink:href="src/main/utl/normalize-re-properties.js" xlink:title="normalize&#45;re&#45;properties.js">
<path fill="#ffffcc" stroke="black" d="M440.58,-49.75C440.58,-49.75 331.42,-49.75 331.42,-49.75 328.46,-49.75 325.5,-46.79 325.5,-43.83 325.5,-43.83 325.5,-37.92 325.5,-37.92 325.5,-34.96 328.46,-32 331.42,-32 331.42,-32 440.58,-32 440.58,-32 443.54,-32 446.5,-34.96 446.5,-37.92 446.5,-37.92 446.5,-43.83 446.5,-43.83 446.5,-46.79 443.54,-49.75 440.58,-49.75"/>
<text text-anchor="start" x="333.5" y="-37.2" font-family="Helvetica,sans-Serif" font-size="9.00">normalize&#45;re&#45;properties.js</text>
</a>
</g>
</g>
<!-- src/main/options/normalize.js&#45;&gt;src/main/utl/normalize&#45;re&#45;properties.js -->
<g id="edge8" class="edge">
<title>src/main/options/normalize.js&#45;&gt;src/main/utl/normalize&#45;re&#45;properties.js</title>
<path fill="none" stroke="#000000" stroke-width="2" stroke-opacity="0.200000" d="M232.12,-84.31C233.77,-84.02 235.4,-83.75 237,-83.5 270.12,-78.31 279.66,-84.32 312,-75.5 330.09,-70.56 349.35,-61.69 363.68,-54.3"/>
<polygon fill="#000000" fill-opacity="0.200000" stroke="#000000" stroke-width="2" stroke-opacity="0.200000" points="365.18,-55.82 369.5,-51.16 363.22,-52.11 365.18,-55.82"/>
</g>
<!-- src/main/rule&#45;set/normalize.js&#45;&gt;src/main/utl/normalize&#45;re&#45;properties.js -->
<g id="edge10" class="edge">
<title>src/main/rule&#45;set/normalize.js&#45;&gt;src/main/utl/normalize&#45;re&#45;properties.js</title>
<path fill="none" stroke="#000000" stroke-width="2" stroke-opacity="0.200000" d="M419.29,-142.68C413.4,-124.85 399.32,-82.22 391.49,-58.5"/>
<polygon fill="#000000" fill-opacity="0.200000" stroke="#000000" stroke-width="2" stroke-opacity="0.200000" points="392.61,-57.2 388.74,-52.16 388.62,-58.52 392.61,-57.2"/>
</g>
<!-- src/main/rule&#45;set/validate.js&#45;&gt;src/main/options/validate.js -->
<g id="edge11" class="edge">
<title>src/main/rule&#45;set/validate.js&#45;&gt;src/main/options/validate.js</title>
<path fill="none" stroke="#000000" stroke-width="2" stroke-opacity="0.200000" d="M337.97,-142.64C325.5,-133.33 305.02,-118.03 290.18,-106.95"/>
<polygon fill="#000000" fill-opacity="0.200000" stroke="#000000" stroke-width="2" stroke-opacity="0.200000" points="291.08,-104.51 285.01,-102.6 288.56,-107.87 291.08,-104.51"/>
</g>
<!-- src/main/rule&#45;set/validate.js&#45;&gt;src/main/utl/normalize&#45;re&#45;properties.js -->
<g id="edge12" class="edge">
<title>src/main/rule&#45;set/validate.js&#45;&gt;src/main/utl/normalize&#45;re&#45;properties.js</title>
<path fill="none" stroke="#000000" stroke-width="2" stroke-opacity="0.200000" d="M351.78,-142.68C357.83,-124.85 372.31,-82.22 380.36,-58.5"/>
<polygon fill="#000000" fill-opacity="0.200000" stroke="#000000" stroke-width="2" stroke-opacity="0.200000" points="383.25,-58.52 383.19,-52.16 379.27,-57.17 383.25,-58.52"/>
</g>
</g>
</svg>
