<?xml version="1.0" encoding="UTF-8" standalone="no"?>
<!DOCTYPE svg PUBLIC "-//W3C//DTD SVG 1.1//EN"
 "http://www.w3.org/Graphics/SVG/1.1/DTD/svg11.dtd">
<!-- Generated by graphviz version 8.0.1 (20230327.1645)
 -->
<!-- Title: dependency&#45;cruiser output Pages: 1 -->
<svg width="536pt" height="261pt"
 viewBox="0.00 0.00 536.00 261.00" xmlns="http://www.w3.org/2000/svg" xmlns:xlink="http://www.w3.org/1999/xlink">
<g id="graph0" class="graph" transform="scale(1 1) rotate(0) translate(4 257)">
<title>dependency&#45;cruiser output</title>
<polygon fill="white" stroke="none" points="-4,4 -4,-257 532,-257 532,4 -4,4"/>
<g id="clust1" class="cluster">
<title>cluster_src</title>
<path fill="#ffffff" stroke="black" stroke-width="2" d="M20,-8C20,-8 508,-8 508,-8 514,-8 520,-14 520,-20 520,-20 520,-233 520,-233 520,-239 514,-245 508,-245 508,-245 20,-245 20,-245 14,-245 8,-239 8,-233 8,-233 8,-20 8,-20 8,-14 14,-8 20,-8"/>
<text text-anchor="middle" x="264" y="-233.8" font-family="Helvetica,sans-Serif" font-weight="bold" font-size="9.00">src</text>
</g>
<g id="clust2" class="cluster">
<title>cluster_src/main</title>
<path fill="#ffffff" stroke="black" stroke-width="2" d="M28,-16C28,-16 500,-16 500,-16 506,-16 512,-22 512,-28 512,-28 512,-207 512,-207 512,-213 506,-219 500,-219 500,-219 28,-219 28,-219 22,-219 16,-213 16,-207 16,-207 16,-28 16,-28 16,-22 22,-16 28,-16"/>
<text text-anchor="middle" x="264" y="-207.8" font-family="Helvetica,sans-Serif" font-weight="bold" font-size="9.00">main</text>
</g>
<g id="clust3" class="cluster">
<title>cluster_src/main/files&#45;and&#45;dirs</title>
<path fill="#ffffff" stroke="black" stroke-width="2" d="M36,-115C36,-115 102,-115 102,-115 108,-115 114,-121 114,-127 114,-127 114,-155 114,-155 114,-161 108,-167 102,-167 102,-167 36,-167 36,-167 30,-167 24,-161 24,-155 24,-155 24,-127 24,-127 24,-121 30,-115 36,-115"/>
<text text-anchor="middle" x="69" y="-155.8" font-family="Helvetica,sans-Serif" font-weight="bold" font-size="9.00">files&#45;and&#45;dirs</text>
</g>
<g id="clust4" class="cluster">
<title>cluster_src/main/options</title>
<path fill="#ffffff" stroke="black" stroke-width="2" d="M182,-24C182,-24 326,-24 326,-24 332,-24 338,-30 338,-36 338,-36 338,-95 338,-95 338,-101 332,-107 326,-107 326,-107 182,-107 182,-107 176,-107 170,-101 170,-95 170,-95 170,-36 170,-36 170,-30 176,-24 182,-24"/>
<text text-anchor="middle" x="254" y="-95.8" font-family="Helvetica,sans-Serif" font-weight="bold" font-size="9.00">options</text>
</g>
<g id="clust5" class="cluster">
<title>cluster_src/main/resolve&#45;options</title>
<path fill="#ffffff" stroke="black" stroke-width="2" d="M250,-115C250,-115 316,-115 316,-115 322,-115 328,-121 328,-127 328,-127 328,-155 328,-155 328,-161 322,-167 316,-167 316,-167 250,-167 250,-167 244,-167 238,-161 238,-155 238,-155 238,-127 238,-127 238,-121 244,-115 250,-115"/>
<text text-anchor="middle" x="283" y="-155.8" font-family="Helvetica,sans-Serif" font-weight="bold" font-size="9.00">resolve&#45;options</text>
</g>
<g id="clust6" class="cluster">
<title>cluster_src/main/rule&#45;set</title>
<path fill="#ffffff" stroke="black" stroke-width="2" d="M348,-115C348,-115 492,-115 492,-115 498,-115 504,-121 504,-127 504,-127 504,-155 504,-155 504,-161 498,-167 492,-167 492,-167 348,-167 348,-167 342,-167 336,-161 336,-155 336,-155 336,-127 336,-127 336,-121 342,-115 348,-115"/>
<text text-anchor="middle" x="420" y="-155.8" font-family="Helvetica,sans-Serif" font-weight="bold" font-size="9.00">rule&#45;set</text>
</g>
<!-- src/main/files&#45;and&#45;dirs/normalize.mjs -->
<g id="node1" class="node">
<title>src/main/files&#45;and&#45;dirs/normalize.mjs</title>
<g id="a_node1"><a xlink:href="src/main/files-and-dirs/normalize.mjs" xlink:title="normalize.mjs">
<path fill="#ffffcc" stroke="black" d="M100,-141C100,-141 38,-141 38,-141 35,-141 32,-138 32,-135 32,-135 32,-129 32,-129 32,-126 35,-123 38,-123 38,-123 100,-123 100,-123 103,-123 106,-126 106,-129 106,-129 106,-135 106,-135 106,-138 103,-141 100,-141"/>
<text text-anchor="start" x="40" y="-129.8" font-family="Helvetica,sans-Serif" font-size="9.00">normalize.mjs</text>
</a>
</g>
</g>
<!-- src/main/helpers.mjs -->
<g id="node2" class="node">
<title>src/main/helpers.mjs</title>
<g id="a_node2"><a xlink:href="src/main/helpers.mjs" xlink:title="helpers.mjs">
<path fill="#ffffcc" stroke="black" d="M404,-50C404,-50 352,-50 352,-50 349,-50 346,-47 346,-44 346,-44 346,-38 346,-38 346,-35 349,-32 352,-32 352,-32 404,-32 404,-32 407,-32 410,-35 410,-38 410,-38 410,-44 410,-44 410,-47 407,-50 404,-50"/>
<text text-anchor="start" x="354" y="-38.8" font-family="Helvetica,sans-Serif" font-size="9.00">helpers.mjs</text>
</a>
</g>
</g>
<!-- src/main/index.d.ts -->
<g id="node3" class="node">
<title>src/main/index.d.ts</title>
<g id="a_node3"><a xlink:href="src/main/index.d.ts" xlink:title="index.d.ts">
<path fill="#ccffcc" stroke="black" d="M408,-193C408,-193 364,-193 364,-193 361,-193 358,-190 358,-187 358,-187 358,-181 358,-181 358,-178 361,-175 364,-175 364,-175 408,-175 408,-175 411,-175 414,-178 414,-181 414,-181 414,-187 414,-187 414,-190 411,-193 408,-193"/>
<text text-anchor="start" x="366" y="-181.8" font-family="Helvetica,sans-Serif" font-size="9.00">index.d.ts</text>
</a>
</g>
</g>
<!-- src/main/index.mjs -->
<g id="node4" class="node">
<title>src/main/index.mjs</title>
<g id="a_node4"><a xlink:href="src/main/index.mjs" xlink:title="index.mjs">
<path fill="#ffffcc" stroke="black" d="M251,-193C251,-193 207,-193 207,-193 204,-193 201,-190 201,-187 201,-187 201,-181 201,-181 201,-178 204,-175 207,-175 207,-175 251,-175 251,-175 254,-175 257,-178 257,-181 257,-181 257,-187 257,-187 257,-190 254,-193 251,-193"/>
<text text-anchor="start" x="209" y="-181.8" font-family="Helvetica,sans-Serif" font-size="9.00">index.mjs</text>
</a>
</g>
</g>
<!-- src/main/index.mjs&#45;&gt;src/main/files&#45;and&#45;dirs/normalize.mjs -->
<g id="edge1" class="edge">
<title>src/main/index.mjs&#45;&gt;src/main/files&#45;and&#45;dirs/normalize.mjs</title>
<path fill="none" stroke="#000000" stroke-width="2" stroke-opacity="0.200000" d="M200.9,-183.53C176.01,-183.02 139.21,-179.8 110,-167 99.62,-162.45 89.79,-154.47 82.36,-147.39"/>
<polygon fill="#000000" fill-opacity="0.200000" stroke="#000000" stroke-width="2" stroke-opacity="0.200000" points="83.98,-146.03 78.26,-143.25 81,-148.99 83.98,-146.03"/>
</g>
<!-- src/main/options/normalize.mjs -->
<g id="node5" class="node">
<title>src/main/options/normalize.mjs</title>
<g id="a_node5"><a xlink:href="src/main/options/normalize.mjs" xlink:title="normalize.mjs">
<path fill="#ffffcc" stroke="black" d="M246,-81C246,-81 184,-81 184,-81 181,-81 178,-78 178,-75 178,-75 178,-69 178,-69 178,-66 181,-63 184,-63 184,-63 246,-63 246,-63 249,-63 252,-66 252,-69 252,-69 252,-75 252,-75 252,-78 249,-81 246,-81"/>
<text text-anchor="start" x="186" y="-69.8" font-family="Helvetica,sans-Serif" font-size="9.00">normalize.mjs</text>
</a>
</g>
</g>
<!-- src/main/index.mjs&#45;&gt;src/main/options/normalize.mjs -->
<g id="edge2" class="edge">
<title>src/main/index.mjs&#45;&gt;src/main/options/normalize.mjs</title>
<path fill="none" stroke="#000000" stroke-width="2" stroke-opacity="0.200000" d="M226.66,-174.58C226.05,-172.15 225.44,-169.48 225,-167 220.29,-140.43 217.5,-109.21 216.11,-90.27"/>
<polygon fill="#000000" fill-opacity="0.200000" stroke="#000000" stroke-width="2" stroke-opacity="0.200000" points="218.01,-90.19 215.5,-84.35 213.82,-90.48 218.01,-90.19"/>
</g>
<!-- src/main/options/validate.mjs -->
<g id="node6" class="node">
<title>src/main/options/validate.mjs</title>
<g id="a_node6"><a xlink:href="src/main/options/validate.mjs" xlink:title="validate.mjs">
<path fill="#ffffcc" stroke="black" d="M323.5,-81C323.5,-81 270.5,-81 270.5,-81 267.5,-81 264.5,-78 264.5,-75 264.5,-75 264.5,-69 264.5,-69 264.5,-66 267.5,-63 270.5,-63 270.5,-63 323.5,-63 323.5,-63 326.5,-63 329.5,-66 329.5,-69 329.5,-69 329.5,-75 329.5,-75 329.5,-78 326.5,-81 323.5,-81"/>
<text text-anchor="start" x="272.5" y="-69.8" font-family="Helvetica,sans-Serif" font-size="9.00">validate.mjs</text>
</a>
</g>
</g>
<!-- src/main/index.mjs&#45;&gt;src/main/options/validate.mjs -->
<g id="edge3" class="edge">
<title>src/main/index.mjs&#45;&gt;src/main/options/validate.mjs</title>
<path fill="none" stroke="#000000" stroke-width="2" stroke-opacity="0.200000" d="M227.15,-174.88C224.49,-161.01 221.3,-132.57 235,-115 241.65,-106.46 248.64,-112.43 258,-107 267.09,-101.72 276.02,-94.17 283.03,-87.52"/>
<polygon fill="#000000" fill-opacity="0.200000" stroke="#000000" stroke-width="2" stroke-opacity="0.200000" points="284.55,-89 287.34,-83.29 281.6,-86.01 284.55,-89"/>
</g>
<!-- src/main/report&#45;wrap.mjs -->
<g id="node7" class="node">
<title>src/main/report&#45;wrap.mjs</title>
<g id="a_node7"><a xlink:href="src/main/report-wrap.mjs" xlink:title="report&#45;wrap.mjs">
<path fill="#ffffcc" stroke="black" d="M196,-141C196,-141 128,-141 128,-141 125,-141 122,-138 122,-135 122,-135 122,-129 122,-129 122,-126 125,-123 128,-123 128,-123 196,-123 196,-123 199,-123 202,-126 202,-129 202,-129 202,-135 202,-135 202,-138 199,-141 196,-141"/>
<text text-anchor="start" x="130" y="-129.8" font-family="Helvetica,sans-Serif" font-size="9.00">report&#45;wrap.mjs</text>
</a>
</g>
</g>
<!-- src/main/index.mjs&#45;&gt;src/main/report&#45;wrap.mjs -->
<g id="edge4" class="edge">
<title>src/main/index.mjs&#45;&gt;src/main/report&#45;wrap.mjs</title>
<path fill="none" stroke="#000000" stroke-width="2" stroke-opacity="0.200000" d="M217.63,-174.52C207.37,-166.86 192.09,-155.45 180.13,-146.53"/>
<polygon fill="#000000" fill-opacity="0.200000" stroke="#000000" stroke-width="2" stroke-opacity="0.200000" points="181.26,-144.26 175.2,-142.36 178.75,-147.63 181.26,-144.26"/>
</g>
<!-- src/main/resolve&#45;options/normalize.mjs -->
<g id="node8" class="node">
<title>src/main/resolve&#45;options/normalize.mjs</title>
<g id="a_node8"><a xlink:href="src/main/resolve-options/normalize.mjs" xlink:title="normalize.mjs">
<path fill="#ffffcc" stroke="black" d="M314,-141C314,-141 252,-141 252,-141 249,-141 246,-138 246,-135 246,-135 246,-129 246,-129 246,-126 249,-123 252,-123 252,-123 314,-123 314,-123 317,-123 320,-126 320,-129 320,-129 320,-135 320,-135 320,-138 317,-141 314,-141"/>
<text text-anchor="start" x="254" y="-129.8" font-family="Helvetica,sans-Serif" font-size="9.00">normalize.mjs</text>
</a>
</g>
</g>
<!-- src/main/index.mjs&#45;&gt;src/main/resolve&#45;options/normalize.mjs -->
<g id="edge5" class="edge">
<title>src/main/index.mjs&#45;&gt;src/main/resolve&#45;options/normalize.mjs</title>
<path fill="none" stroke="#000000" stroke-width="2" stroke-opacity="0.200000" d="M237.92,-174.74C245.92,-167.33 257.85,-156.29 267.42,-147.42"/>
<polygon fill="#000000" fill-opacity="0.200000" stroke="#000000" stroke-width="2" stroke-opacity="0.200000" points="268.91,-149.05 271.89,-143.44 266.06,-145.97 268.91,-149.05"/>
</g>
<!-- src/main/rule&#45;set/normalize.mjs -->
<g id="node9" class="node">
<title>src/main/rule&#45;set/normalize.mjs</title>
<g id="a_node9"><a xlink:href="src/main/rule-set/normalize.mjs" xlink:title="normalize.mjs">
<path fill="#ffffcc" stroke="black" d="M490,-141C490,-141 428,-141 428,-141 425,-141 422,-138 422,-135 422,-135 422,-129 422,-129 422,-126 425,-123 428,-123 428,-123 490,-123 490,-123 493,-123 496,-126 496,-129 496,-129 496,-135 496,-135 496,-138 493,-141 490,-141"/>
<text text-anchor="start" x="430" y="-129.8" font-family="Helvetica,sans-Serif" font-size="9.00">normalize.mjs</text>
</a>
</g>
</g>
<!-- src/main/index.mjs&#45;&gt;src/main/rule&#45;set/normalize.mjs -->
<g id="edge6" class="edge">
<title>src/main/index.mjs&#45;&gt;src/main/rule&#45;set/normalize.mjs</title>
<path fill="none" stroke="#000000" stroke-width="2" stroke-opacity="0.200000" d="M257.25,-181.01C307.71,-177.4 408.75,-169.87 416,-167 426.84,-162.71 437.15,-154.74 444.96,-147.59"/>
<polygon fill="#000000" fill-opacity="0.200000" stroke="#000000" stroke-width="2" stroke-opacity="0.200000" points="446.51,-149.07 449.37,-143.39 443.59,-146.05 446.51,-149.07"/>
</g>
<!-- src/main/rule&#45;set/validate.mjs -->
<g id="node10" class="node">
<title>src/main/rule&#45;set/validate.mjs</title>
<g id="a_node10"><a xlink:href="src/main/rule-set/validate.mjs" xlink:title="validate.mjs">
<path fill="#ffffcc" stroke="black" d="M403.5,-141C403.5,-141 350.5,-141 350.5,-141 347.5,-141 344.5,-138 344.5,-135 344.5,-135 344.5,-129 344.5,-129 344.5,-126 347.5,-123 350.5,-123 350.5,-123 403.5,-123 403.5,-123 406.5,-123 409.5,-126 409.5,-129 409.5,-129 409.5,-135 409.5,-135 409.5,-138 406.5,-141 403.5,-141"/>
<text text-anchor="start" x="352.5" y="-129.8" font-family="Helvetica,sans-Serif" font-size="9.00">validate.mjs</text>
</a>
</g>
</g>
<!-- src/main/index.mjs&#45;&gt;src/main/rule&#45;set/validate.mjs -->
<g id="edge7" class="edge">
<title>src/main/index.mjs&#45;&gt;src/main/rule&#45;set/validate.mjs</title>
<path fill="none" stroke="#000000" stroke-width="2" stroke-opacity="0.200000" d="M257.25,-182.18C278.3,-180.72 307.35,-176.89 331,-167 342.2,-162.32 353.19,-154.36 361.61,-147.32"/>
<polygon fill="#000000" fill-opacity="0.200000" stroke="#000000" stroke-width="2" stroke-opacity="0.200000" points="363.17,-148 366.3,-142.47 360.4,-144.84 363.17,-148"/>
</g>
<!-- src/main/options/normalize.mjs&#45;&gt;src/main/helpers.mjs -->
<g id="edge8" class="edge">
<title>src/main/options/normalize.mjs&#45;&gt;src/main/helpers.mjs</title>
<path fill="none" stroke="#000000" stroke-width="2" stroke-opacity="0.200000" d="M252.44,-64.13C254.66,-63.75 256.86,-63.36 259,-63 292.68,-57.27 303.19,-56.83 337.1,-50.68"/>
<polygon fill="#000000" fill-opacity="0.200000" stroke="#000000" stroke-width="2" stroke-opacity="0.200000" points="338.22,-52.24 343.73,-49.09 337.45,-48.11 338.22,-52.24"/>
</g>
<!-- src/main/options/defaults.mjs -->
<g id="node11" class="node">
<title>src/main/options/defaults.mjs</title>
<g id="a_node11"><a xlink:href="src/main/options/defaults.mjs" xlink:title="defaults.mjs">
<path fill="#ffffcc" stroke="black" d="M241.5,-50C241.5,-50 188.5,-50 188.5,-50 185.5,-50 182.5,-47 182.5,-44 182.5,-44 182.5,-38 182.5,-38 182.5,-35 185.5,-32 188.5,-32 188.5,-32 241.5,-32 241.5,-32 244.5,-32 247.5,-35 247.5,-38 247.5,-38 247.5,-44 247.5,-44 247.5,-47 244.5,-50 241.5,-50"/>
<text text-anchor="start" x="190.5" y="-38.8" font-family="Helvetica,sans-Serif" font-size="9.00">defaults.mjs</text>
</a>
</g>
</g>
<!-- src/main/options/normalize.mjs&#45;&gt;src/main/options/defaults.mjs -->
<g id="edge9" class="edge">
<title>src/main/options/normalize.mjs&#45;&gt;src/main/options/defaults.mjs</title>
<path fill="none" stroke="#000000" stroke-width="2" stroke-opacity="0.200000" d="M215,-62.77C215,-61.67 215,-60.52 215,-59.35"/>
<polygon fill="#000000" fill-opacity="0.200000" stroke="#000000" stroke-width="2" stroke-opacity="0.200000" points="217.1,-59.35 215,-53.35 212.9,-59.35 217.1,-59.35"/>
</g>
<!-- src/main/rule&#45;set/normalize.mjs&#45;&gt;src/main/helpers.mjs -->
<g id="edge10" class="edge">
<title>src/main/rule&#45;set/normalize.mjs&#45;&gt;src/main/helpers.mjs</title>
<path fill="none" stroke="#000000" stroke-width="2" stroke-opacity="0.200000" d="M451.52,-122.79C437.91,-107.83 408.89,-75.95 391.66,-57.01"/>
<polygon fill="#000000" fill-opacity="0.200000" stroke="#000000" stroke-width="2" stroke-opacity="0.200000" points="393.28,-55.48 387.69,-52.45 390.18,-58.3 393.28,-55.48"/>
</g>
<!-- src/main/rule&#45;set/validate.mjs&#45;&gt;src/main/helpers.mjs -->
<g id="edge11" class="edge">
<title>src/main/rule&#45;set/validate.mjs&#45;&gt;src/main/helpers.mjs</title>
<path fill="none" stroke="#000000" stroke-width="2" stroke-opacity="0.200000" d="M377.09,-122.79C377.25,-108.42 377.59,-78.45 377.81,-59.32"/>
<polygon fill="#000000" fill-opacity="0.200000" stroke="#000000" stroke-width="2" stroke-opacity="0.200000" points="379.94,-59.48 377.91,-53.45 375.74,-59.43 379.94,-59.48"/>
</g>
<!-- src/main/rule&#45;set/validate.mjs&#45;&gt;src/main/options/validate.mjs -->
<g id="edge12" class="edge">
<title>src/main/rule&#45;set/validate.mjs&#45;&gt;src/main/options/validate.mjs</title>
<path fill="none" stroke="#000000" stroke-width="2" stroke-opacity="0.200000" d="M359.7,-122.53C351.62,-118.28 342.04,-112.81 334,-107 325.94,-101.17 317.72,-93.79 311.08,-87.4"/>
<polygon fill="#000000" fill-opacity="0.200000" stroke="#000000" stroke-width="2" stroke-opacity="0.200000" points="312.78,-86.15 307.04,-83.43 309.83,-89.14 312.78,-86.15"/>
</g>
</g>
</svg>
