<?xml version="1.0" encoding="UTF-8" standalone="no"?>
<!DOCTYPE svg PUBLIC "-//W3C//DTD SVG 1.1//EN"
 "http://www.w3.org/Graphics/SVG/1.1/DTD/svg11.dtd">
<!-- Generated by graphviz version 8.0.5 (20230430.1635)
 -->
<!-- Title: dependency&#45;cruiser output Pages: 1 -->
<svg width="522pt" height="290pt"
 viewBox="0.00 0.00 522.00 289.75" xmlns="http://www.w3.org/2000/svg" xmlns:xlink="http://www.w3.org/1999/xlink">
<g id="graph0" class="graph" transform="scale(1 1) rotate(0) translate(4 285.75)">
<title>dependency&#45;cruiser output</title>
<polygon fill="white" stroke="none" points="-4,4 -4,-285.75 518,-285.75 518,4 -4,4"/>
<g id="clust1" class="cluster">
<title>cluster_src</title>
<path fill="#ffffff" stroke="black" stroke-width="2" d="M20,-8C20,-8 494,-8 494,-8 500,-8 506,-14 506,-20 506,-20 506,-261.75 506,-261.75 506,-267.75 500,-273.75 494,-273.75 494,-273.75 20,-273.75 20,-273.75 14,-273.75 8,-267.75 8,-261.75 8,-261.75 8,-20 8,-20 8,-14 14,-8 20,-8"/>
<text text-anchor="middle" x="257" y="-261.2" font-family="Helvetica,sans-Serif" font-weight="bold" font-size="9.00">src</text>
</g>
<g id="clust2" class="cluster">
<title>cluster_src/main</title>
<path fill="#ffffff" stroke="black" stroke-width="2" d="M28,-16C28,-16 486,-16 486,-16 492,-16 498,-22 498,-28 498,-28 498,-236 498,-236 498,-242 492,-248 486,-248 486,-248 28,-248 28,-248 22,-248 16,-242 16,-236 16,-236 16,-28 16,-28 16,-22 22,-16 28,-16"/>
<text text-anchor="middle" x="257" y="-235.45" font-family="Helvetica,sans-Serif" font-weight="bold" font-size="9.00">main</text>
</g>
<g id="clust3" class="cluster">
<title>cluster_src/main/files&#45;and&#45;dirs</title>
<path fill="#ffffff" stroke="black" stroke-width="2" d="M210,-114.25C210,-114.25 276,-114.25 276,-114.25 282,-114.25 288,-120.25 288,-126.25 288,-126.25 288,-153.75 288,-153.75 288,-159.75 282,-165.75 276,-165.75 276,-165.75 210,-165.75 210,-165.75 204,-165.75 198,-159.75 198,-153.75 198,-153.75 198,-126.25 198,-126.25 198,-120.25 204,-114.25 210,-114.25"/>
<text text-anchor="middle" x="243" y="-153.2" font-family="Helvetica,sans-Serif" font-weight="bold" font-size="9.00">files&#45;and&#45;dirs</text>
</g>
<g id="clust4" class="cluster">
<title>cluster_src/main/options</title>
<path fill="#ffffff" stroke="black" stroke-width="2" d="M224,-24C224,-24 366,-24 366,-24 372,-24 378,-30 378,-36 378,-36 378,-94.25 378,-94.25 378,-100.25 372,-106.25 366,-106.25 366,-106.25 224,-106.25 224,-106.25 218,-106.25 212,-100.25 212,-94.25 212,-94.25 212,-36 212,-36 212,-30 218,-24 224,-24"/>
<text text-anchor="middle" x="295" y="-93.7" font-family="Helvetica,sans-Serif" font-weight="bold" font-size="9.00">options</text>
</g>
<g id="clust5" class="cluster">
<title>cluster_src/main/resolve&#45;options</title>
<path fill="#ffffff" stroke="black" stroke-width="2" d="M332,-114.25C332,-114.25 398,-114.25 398,-114.25 404,-114.25 410,-120.25 410,-126.25 410,-126.25 410,-153.75 410,-153.75 410,-159.75 404,-165.75 398,-165.75 398,-165.75 332,-165.75 332,-165.75 326,-165.75 320,-159.75 320,-153.75 320,-153.75 320,-126.25 320,-126.25 320,-120.25 326,-114.25 332,-114.25"/>
<text text-anchor="middle" x="365" y="-153.2" font-family="Helvetica,sans-Serif" font-weight="bold" font-size="9.00">resolve&#45;options</text>
</g>
<g id="clust6" class="cluster">
<title>cluster_src/main/rule&#45;set</title>
<path fill="#ffffff" stroke="black" stroke-width="2" d="M36,-114.25C36,-114.25 178,-114.25 178,-114.25 184,-114.25 190,-120.25 190,-126.25 190,-126.25 190,-153.75 190,-153.75 190,-159.75 184,-165.75 178,-165.75 178,-165.75 36,-165.75 36,-165.75 30,-165.75 24,-159.75 24,-153.75 24,-153.75 24,-126.25 24,-126.25 24,-120.25 30,-114.25 36,-114.25"/>
<text text-anchor="middle" x="107" y="-153.2" font-family="Helvetica,sans-Serif" font-weight="bold" font-size="9.00">rule&#45;set</text>
</g>
<!-- src/main/cruise.mjs -->
<g id="node1" class="node">
<title>src/main/cruise.mjs</title>
<g id="a_node1"><a xlink:href="src/main/cruise.mjs" xlink:title="cruise.mjs">
<path fill="#ffffcc" stroke="black" d="M326.71,-191.5C326.71,-191.5 281.29,-191.5 281.29,-191.5 278.33,-191.5 275.38,-188.54 275.38,-185.58 275.38,-185.58 275.38,-179.67 275.38,-179.67 275.38,-176.71 278.33,-173.75 281.29,-173.75 281.29,-173.75 326.71,-173.75 326.71,-173.75 329.67,-173.75 332.62,-176.71 332.62,-179.67 332.62,-179.67 332.62,-185.58 332.62,-185.58 332.62,-188.54 329.67,-191.5 326.71,-191.5"/>
<text text-anchor="start" x="283.38" y="-178.95" font-family="Helvetica,sans-Serif" font-size="9.00">cruise.mjs</text>
</a>
</g>
</g>
<!-- src/main/files&#45;and&#45;dirs/normalize.mjs -->
<g id="node2" class="node">
<title>src/main/files&#45;and&#45;dirs/normalize.mjs</title>
<g id="a_node2"><a xlink:href="src/main/files-and-dirs/normalize.mjs" xlink:title="normalize.mjs">
<path fill="#ffffcc" stroke="black" d="M273.58,-140C273.58,-140 212.42,-140 212.42,-140 209.46,-140 206.5,-137.04 206.5,-134.08 206.5,-134.08 206.5,-128.17 206.5,-128.17 206.5,-125.21 209.46,-122.25 212.42,-122.25 212.42,-122.25 273.58,-122.25 273.58,-122.25 276.54,-122.25 279.5,-125.21 279.5,-128.17 279.5,-128.17 279.5,-134.08 279.5,-134.08 279.5,-137.04 276.54,-140 273.58,-140"/>
<text text-anchor="start" x="214.5" y="-127.45" font-family="Helvetica,sans-Serif" font-size="9.00">normalize.mjs</text>
</a>
</g>
</g>
<!-- src/main/cruise.mjs&#45;&gt;src/main/files&#45;and&#45;dirs/normalize.mjs -->
<g id="edge1" class="edge">
<title>src/main/cruise.mjs&#45;&gt;src/main/files&#45;and&#45;dirs/normalize.mjs</title>
<path fill="none" stroke="#000000" stroke-width="2" stroke-dasharray="5,2" stroke-opacity="0.200000" d="M293.39,-173.25C290.35,-170.84 287.04,-168.2 284,-165.75 276.05,-159.33 267.28,-152.16 259.91,-146.09"/>
<polygon fill="#000000" fill-opacity="0.200000" stroke="#000000" stroke-width="2" stroke-opacity="0.200000" points="261.04,-143.66 255.07,-141.46 258.37,-146.9 261.04,-143.66"/>
</g>
<!-- src/main/options/normalize.mjs -->
<g id="node3" class="node">
<title>src/main/options/normalize.mjs</title>
<g id="a_node3"><a xlink:href="src/main/options/normalize.mjs" xlink:title="normalize.mjs">
<path fill="#ffffcc" stroke="black" d="M363.58,-80.5C363.58,-80.5 302.42,-80.5 302.42,-80.5 299.46,-80.5 296.5,-77.54 296.5,-74.58 296.5,-74.58 296.5,-68.67 296.5,-68.67 296.5,-65.71 299.46,-62.75 302.42,-62.75 302.42,-62.75 363.58,-62.75 363.58,-62.75 366.54,-62.75 369.5,-65.71 369.5,-68.67 369.5,-68.67 369.5,-74.58 369.5,-74.58 369.5,-77.54 366.54,-80.5 363.58,-80.5"/>
<text text-anchor="start" x="304.5" y="-67.95" font-family="Helvetica,sans-Serif" font-size="9.00">normalize.mjs</text>
</a>
</g>
</g>
<!-- src/main/cruise.mjs&#45;&gt;src/main/options/normalize.mjs -->
<g id="edge2" class="edge">
<title>src/main/cruise.mjs&#45;&gt;src/main/options/normalize.mjs</title>
<path fill="none" stroke="#000000" stroke-width="2" stroke-opacity="0.200000" d="M305.08,-173.64C306.89,-160.91 310.97,-135.32 317,-114.25 319.45,-105.69 322.93,-96.42 326.02,-88.81"/>
<polygon fill="#000000" fill-opacity="0.200000" stroke="#000000" stroke-width="2" stroke-opacity="0.200000" points="328,-89.12 328.38,-82.77 324.12,-87.5 328,-89.12"/>
</g>
<!-- src/main/options/validate.mjs -->
<g id="node4" class="node">
<title>src/main/options/validate.mjs</title>
<g id="a_node4"><a xlink:href="src/main/options/validate.mjs" xlink:title="validate.mjs">
<path fill="#ffffcc" stroke="black" d="M278.46,-80.5C278.46,-80.5 225.54,-80.5 225.54,-80.5 222.58,-80.5 219.62,-77.54 219.62,-74.58 219.62,-74.58 219.62,-68.67 219.62,-68.67 219.62,-65.71 222.58,-62.75 225.54,-62.75 225.54,-62.75 278.46,-62.75 278.46,-62.75 281.42,-62.75 284.38,-65.71 284.38,-68.67 284.38,-68.67 284.38,-74.58 284.38,-74.58 284.38,-77.54 281.42,-80.5 278.46,-80.5"/>
<text text-anchor="start" x="227.62" y="-67.95" font-family="Helvetica,sans-Serif" font-size="9.00">validate.mjs</text>
</a>
</g>
</g>
<!-- src/main/cruise.mjs&#45;&gt;src/main/options/validate.mjs -->
<g id="edge3" class="edge">
<title>src/main/cruise.mjs&#45;&gt;src/main/options/validate.mjs</title>
<path fill="none" stroke="#000000" stroke-width="2" stroke-opacity="0.200000" d="M303.01,-173.49C301.01,-157.93 296.25,-124.54 291,-114.25 285.59,-103.64 276.65,-93.81 268.69,-86.37"/>
<polygon fill="#000000" fill-opacity="0.200000" stroke="#000000" stroke-width="2" stroke-opacity="0.200000" points="270.22,-85.13 264.34,-82.71 267.43,-88.27 270.22,-85.13"/>
</g>
<!-- src/main/report&#45;wrap.mjs -->
<g id="node5" class="node">
<title>src/main/report&#45;wrap.mjs</title>
<g id="a_node5"><a xlink:href="src/main/report-wrap.mjs" xlink:title="report&#45;wrap.mjs">
<path fill="#ffffcc" stroke="black" d="M481.96,-80.5C481.96,-80.5 414.04,-80.5 414.04,-80.5 411.08,-80.5 408.12,-77.54 408.12,-74.58 408.12,-74.58 408.12,-68.67 408.12,-68.67 408.12,-65.71 411.08,-62.75 414.04,-62.75 414.04,-62.75 481.96,-62.75 481.96,-62.75 484.92,-62.75 487.88,-65.71 487.88,-68.67 487.88,-68.67 487.88,-74.58 487.88,-74.58 487.88,-77.54 484.92,-80.5 481.96,-80.5"/>
<text text-anchor="start" x="416.12" y="-67.95" font-family="Helvetica,sans-Serif" font-size="9.00">report&#45;wrap.mjs</text>
</a>
</g>
</g>
<!-- src/main/cruise.mjs&#45;&gt;src/main/report&#45;wrap.mjs -->
<g id="edge4" class="edge">
<title>src/main/cruise.mjs&#45;&gt;src/main/report&#45;wrap.mjs</title>
<path fill="none" stroke="#000000" stroke-width="2" stroke-opacity="0.200000" d="M332.92,-181.14C380.77,-180.03 472.16,-176.51 482,-165.75 497.45,-148.86 489.69,-135.81 482,-114.25 478.31,-103.89 470.8,-94.24 463.78,-86.85"/>
<polygon fill="#000000" fill-opacity="0.200000" stroke="#000000" stroke-width="2" stroke-opacity="0.200000" points="465.34,-85.46 459.59,-82.74 462.39,-88.45 465.34,-85.46"/>
</g>
<!-- src/main/resolve&#45;options/normalize.mjs -->
<g id="node6" class="node">
<title>src/main/resolve&#45;options/normalize.mjs</title>
<g id="a_node6"><a xlink:href="src/main/resolve-options/normalize.mjs" xlink:title="normalize.mjs">
<path fill="#ffffcc" stroke="black" d="M395.58,-140C395.58,-140 334.42,-140 334.42,-140 331.46,-140 328.5,-137.04 328.5,-134.08 328.5,-134.08 328.5,-128.17 328.5,-128.17 328.5,-125.21 331.46,-122.25 334.42,-122.25 334.42,-122.25 395.58,-122.25 395.58,-122.25 398.54,-122.25 401.5,-125.21 401.5,-128.17 401.5,-128.17 401.5,-134.08 401.5,-134.08 401.5,-137.04 398.54,-140 395.58,-140"/>
<text text-anchor="start" x="336.5" y="-127.45" font-family="Helvetica,sans-Serif" font-size="9.00">normalize.mjs</text>
</a>
</g>
</g>
<!-- src/main/cruise.mjs&#45;&gt;src/main/resolve&#45;options/normalize.mjs -->
<g id="edge5" class="edge">
<title>src/main/cruise.mjs&#45;&gt;src/main/resolve&#45;options/normalize.mjs</title>
<path fill="none" stroke="#000000" stroke-width="2" stroke-dasharray="5,2" stroke-opacity="0.200000" d="M315.2,-173.33C318.39,-170.92 321.86,-168.26 325,-165.75 332.98,-159.39 341.67,-152.12 348.91,-145.98"/>
<polygon fill="#000000" fill-opacity="0.200000" stroke="#000000" stroke-width="2" stroke-opacity="0.200000" points="350.38,-146.78 353.58,-141.28 347.65,-143.58 350.38,-146.78"/>
</g>
<!-- src/main/rule&#45;set/normalize.mjs -->
<g id="node7" class="node">
<title>src/main/rule&#45;set/normalize.mjs</title>
<g id="a_node7"><a xlink:href="src/main/rule-set/normalize.mjs" xlink:title="normalize.mjs">
<path fill="#ffffcc" stroke="black" d="M99.58,-140C99.58,-140 38.42,-140 38.42,-140 35.46,-140 32.5,-137.04 32.5,-134.08 32.5,-134.08 32.5,-128.17 32.5,-128.17 32.5,-125.21 35.46,-122.25 38.42,-122.25 38.42,-122.25 99.58,-122.25 99.58,-122.25 102.54,-122.25 105.5,-125.21 105.5,-128.17 105.5,-128.17 105.5,-134.08 105.5,-134.08 105.5,-137.04 102.54,-140 99.58,-140"/>
<text text-anchor="start" x="40.5" y="-127.45" font-family="Helvetica,sans-Serif" font-size="9.00">normalize.mjs</text>
</a>
</g>
</g>
<!-- src/main/cruise.mjs&#45;&gt;src/main/rule&#45;set/normalize.mjs -->
<g id="edge6" class="edge">
<title>src/main/cruise.mjs&#45;&gt;src/main/rule&#45;set/normalize.mjs</title>
<path fill="none" stroke="#000000" stroke-width="2" stroke-dasharray="5,2" stroke-opacity="0.200000" d="M274.91,-181.25C228.72,-180.31 140.89,-177.06 112,-165.75 101.19,-161.52 90.88,-153.64 83.07,-146.57"/>
<polygon fill="#000000" fill-opacity="0.200000" stroke="#000000" stroke-width="2" stroke-opacity="0.200000" points="84.44,-145.06 78.65,-142.43 81.53,-148.1 84.44,-145.06"/>
</g>
<!-- src/main/rule&#45;set/validate.mjs -->
<g id="node8" class="node">
<title>src/main/rule&#45;set/validate.mjs</title>
<g id="a_node8"><a xlink:href="src/main/rule-set/validate.mjs" xlink:title="validate.mjs">
<path fill="#ffffcc" stroke="black" d="M176.46,-140C176.46,-140 123.54,-140 123.54,-140 120.58,-140 117.62,-137.04 117.62,-134.08 117.62,-134.08 117.62,-128.17 117.62,-128.17 117.62,-125.21 120.58,-122.25 123.54,-122.25 123.54,-122.25 176.46,-122.25 176.46,-122.25 179.42,-122.25 182.38,-125.21 182.38,-128.17 182.38,-128.17 182.38,-134.08 182.38,-134.08 182.38,-137.04 179.42,-140 176.46,-140"/>
<text text-anchor="start" x="125.62" y="-127.45" font-family="Helvetica,sans-Serif" font-size="9.00">validate.mjs</text>
</a>
</g>
</g>
<!-- src/main/cruise.mjs&#45;&gt;src/main/rule&#45;set/validate.mjs -->
<g id="edge7" class="edge">
<title>src/main/cruise.mjs&#45;&gt;src/main/rule&#45;set/validate.mjs</title>
<path fill="none" stroke="#000000" stroke-width="2" stroke-dasharray="5,2" stroke-opacity="0.200000" d="M275.21,-181.28C252.62,-180.11 220.79,-176.45 195,-165.75 183.85,-161.13 172.97,-153.12 164.69,-146.07"/>
<polygon fill="#000000" fill-opacity="0.200000" stroke="#000000" stroke-width="2" stroke-opacity="0.200000" points="166.03,-144.67 160.16,-142.24 163.24,-147.8 166.03,-144.67"/>
</g>
<!-- src/main/helpers.mjs -->
<g id="node10" class="node">
<title>src/main/helpers.mjs</title>
<g id="a_node10"><a xlink:href="src/main/helpers.mjs" xlink:title="helpers.mjs">
<path fill="#ffffcc" stroke="black" d="M175.71,-49.75C175.71,-49.75 124.29,-49.75 124.29,-49.75 121.33,-49.75 118.38,-46.79 118.38,-43.83 118.38,-43.83 118.38,-37.92 118.38,-37.92 118.38,-34.96 121.33,-32 124.29,-32 124.29,-32 175.71,-32 175.71,-32 178.67,-32 181.62,-34.96 181.62,-37.92 181.62,-37.92 181.62,-43.83 181.62,-43.83 181.62,-46.79 178.67,-49.75 175.71,-49.75"/>
<text text-anchor="start" x="126.38" y="-37.2" font-family="Helvetica,sans-Serif" font-size="9.00">helpers.mjs</text>
</a>
</g>
</g>
<!-- src/main/options/normalize.mjs&#45;&gt;src/main/helpers.mjs -->
<g id="edge13" class="edge">
<title>src/main/options/normalize.mjs&#45;&gt;src/main/helpers.mjs</title>
<path fill="none" stroke="#000000" stroke-width="2" stroke-opacity="0.200000" d="M296.42,-63.84C294.25,-63.46 292.1,-63.1 290,-62.75 256.64,-57.21 218.69,-51.59 190.73,-47.58"/>
<polygon fill="#000000" fill-opacity="0.200000" stroke="#000000" stroke-width="2" stroke-opacity="0.200000" points="190.26,-45.11 184.02,-46.34 189.66,-49.27 190.26,-45.11"/>
</g>
<!-- src/main/options/defaults.mjs -->
<g id="node13" class="node">
<title>src/main/options/defaults.mjs</title>
<g id="a_node13"><a xlink:href="src/main/options/defaults.mjs" xlink:title="defaults.mjs">
<path fill="#ffffcc" stroke="black" d="M359.46,-49.75C359.46,-49.75 306.54,-49.75 306.54,-49.75 303.58,-49.75 300.62,-46.79 300.62,-43.83 300.62,-43.83 300.62,-37.92 300.62,-37.92 300.62,-34.96 303.58,-32 306.54,-32 306.54,-32 359.46,-32 359.46,-32 362.42,-32 365.38,-34.96 365.38,-37.92 365.38,-37.92 365.38,-43.83 365.38,-43.83 365.38,-46.79 362.42,-49.75 359.46,-49.75"/>
<text text-anchor="start" x="308.62" y="-37.2" font-family="Helvetica,sans-Serif" font-size="9.00">defaults.mjs</text>
</a>
</g>
</g>
<!-- src/main/options/normalize.mjs&#45;&gt;src/main/options/defaults.mjs -->
<g id="edge14" class="edge">
<title>src/main/options/normalize.mjs&#45;&gt;src/main/options/defaults.mjs</title>
<path fill="none" stroke="#000000" stroke-width="2" stroke-opacity="0.200000" d="M333,-62.46C333,-61.38 333,-60.24 333,-59.07"/>
<polygon fill="#000000" fill-opacity="0.200000" stroke="#000000" stroke-width="2" stroke-opacity="0.200000" points="335.1,-59.16 333,-53.16 330.9,-59.16 335.1,-59.16"/>
</g>
<!-- src/main/rule&#45;set/normalize.mjs&#45;&gt;src/main/helpers.mjs -->
<g id="edge15" class="edge">
<title>src/main/rule&#45;set/normalize.mjs&#45;&gt;src/main/helpers.mjs</title>
<path fill="none" stroke="#000000" stroke-width="2" stroke-opacity="0.200000" d="M76.48,-121.98C90.22,-107.01 119.66,-74.93 136.83,-56.23"/>
<polygon fill="#000000" fill-opacity="0.200000" stroke="#000000" stroke-width="2" stroke-opacity="0.200000" points="138.03,-57.84 140.54,-52 134.94,-55 138.03,-57.84"/>
</g>
<!-- src/main/rule&#45;set/validate.mjs&#45;&gt;src/main/options/validate.mjs -->
<g id="edge17" class="edge">
<title>src/main/rule&#45;set/validate.mjs&#45;&gt;src/main/options/validate.mjs</title>
<path fill="none" stroke="#000000" stroke-width="2" stroke-opacity="0.200000" d="M173.57,-121.85C191.73,-115.43 214.05,-107.44 216,-106.25 224.53,-101.03 232.79,-93.55 239.23,-86.98"/>
<polygon fill="#000000" fill-opacity="0.200000" stroke="#000000" stroke-width="2" stroke-opacity="0.200000" points="240.44,-88.63 243.02,-82.82 237.38,-85.76 240.44,-88.63"/>
</g>
<!-- src/main/rule&#45;set/validate.mjs&#45;&gt;src/main/helpers.mjs -->
<g id="edge16" class="edge">
<title>src/main/rule&#45;set/validate.mjs&#45;&gt;src/main/helpers.mjs</title>
<path fill="none" stroke="#000000" stroke-width="2" stroke-opacity="0.200000" d="M150,-121.98C150,-107.66 150,-77.71 150,-58.76"/>
<polygon fill="#000000" fill-opacity="0.200000" stroke="#000000" stroke-width="2" stroke-opacity="0.200000" points="152.1,-59 150,-53 147.9,-59 152.1,-59"/>
</g>
<!-- src/main/format.mjs -->
<g id="node9" class="node">
<title>src/main/format.mjs</title>
<g id="a_node9"><a xlink:href="src/main/format.mjs" xlink:title="format.mjs">
<path fill="#ffffcc" stroke="black" d="M470.08,-140C470.08,-140 423.92,-140 423.92,-140 420.96,-140 418,-137.04 418,-134.08 418,-134.08 418,-128.17 418,-128.17 418,-125.21 420.96,-122.25 423.92,-122.25 423.92,-122.25 470.08,-122.25 470.08,-122.25 473.04,-122.25 476,-125.21 476,-128.17 476,-128.17 476,-134.08 476,-134.08 476,-137.04 473.04,-140 470.08,-140"/>
<text text-anchor="start" x="426" y="-127.45" font-family="Helvetica,sans-Serif" font-size="9.00">format.mjs</text>
</a>
</g>
</g>
<!-- src/main/format.mjs&#45;&gt;src/main/options/normalize.mjs -->
<g id="edge8" class="edge">
<title>src/main/format.mjs&#45;&gt;src/main/options/normalize.mjs</title>
<path fill="none" stroke="#000000" stroke-width="2" stroke-opacity="0.200000" d="M431.4,-121.9C425.73,-119.17 419.18,-116.3 413,-114.25 396.2,-108.69 389.97,-113.86 374,-106.25 363.95,-101.46 354.24,-93.69 346.8,-86.82"/>
<polygon fill="#000000" fill-opacity="0.200000" stroke="#000000" stroke-width="2" stroke-opacity="0.200000" points="348.43,-85.54 342.65,-82.88 345.51,-88.56 348.43,-85.54"/>
</g>
<!-- src/main/format.mjs&#45;&gt;src/main/options/validate.mjs -->
<g id="edge9" class="edge">
<title>src/main/format.mjs&#45;&gt;src/main/options/validate.mjs</title>
<path fill="none" stroke="#000000" stroke-width="2" stroke-opacity="0.200000" d="M432.22,-121.76C426.4,-118.87 419.56,-115.93 413,-114.25 386.68,-107.5 316.14,-116.54 291,-106.25 280.86,-102.1 271.5,-94.22 264.49,-87.14"/>
<polygon fill="#000000" fill-opacity="0.200000" stroke="#000000" stroke-width="2" stroke-opacity="0.200000" points="266.38,-85.94 260.76,-82.98 263.31,-88.8 266.38,-85.94"/>
</g>
<!-- src/main/format.mjs&#45;&gt;src/main/report&#45;wrap.mjs -->
<g id="edge10" class="edge">
<title>src/main/format.mjs&#45;&gt;src/main/report&#45;wrap.mjs</title>
<path fill="none" stroke="#000000" stroke-width="2" stroke-opacity="0.200000" d="M447.14,-122.13C447.28,-113.81 447.51,-100.54 447.7,-89.82"/>
<polygon fill="#000000" fill-opacity="0.200000" stroke="#000000" stroke-width="2" stroke-opacity="0.200000" points="449.85,-89.96 447.86,-83.92 445.65,-89.89 449.85,-89.96"/>
</g>
<!-- src/main/index.d.ts -->
<g id="node11" class="node">
<title>src/main/index.d.ts</title>
<g id="a_node11"><a xlink:href="src/main/index.d.ts" xlink:title="index.d.ts">
<path fill="#ccffcc" stroke="black" d="M465.58,-222.25C465.58,-222.25 422.42,-222.25 422.42,-222.25 419.46,-222.25 416.5,-219.29 416.5,-216.33 416.5,-216.33 416.5,-210.42 416.5,-210.42 416.5,-207.46 419.46,-204.5 422.42,-204.5 422.42,-204.5 465.58,-204.5 465.58,-204.5 468.54,-204.5 471.5,-207.46 471.5,-210.42 471.5,-210.42 471.5,-216.33 471.5,-216.33 471.5,-219.29 468.54,-222.25 465.58,-222.25"/>
<text text-anchor="start" x="424.5" y="-209.7" font-family="Helvetica,sans-Serif" font-size="9.00">index.d.ts</text>
</a>
</g>
</g>
<!-- src/main/index.mjs -->
<g id="node12" class="node">
<title>src/main/index.mjs</title>
<g id="a_node12"><a xlink:href="src/main/index.mjs" xlink:title="index.mjs">
<path fill="#ffffcc" stroke="black" d="M349.58,-222.25C349.58,-222.25 306.42,-222.25 306.42,-222.25 303.46,-222.25 300.5,-219.29 300.5,-216.33 300.5,-216.33 300.5,-210.42 300.5,-210.42 300.5,-207.46 303.46,-204.5 306.42,-204.5 306.42,-204.5 349.58,-204.5 349.58,-204.5 352.54,-204.5 355.5,-207.46 355.5,-210.42 355.5,-210.42 355.5,-216.33 355.5,-216.33 355.5,-219.29 352.54,-222.25 349.58,-222.25"/>
<text text-anchor="start" x="308.5" y="-209.7" font-family="Helvetica,sans-Serif" font-size="9.00">index.mjs</text>
</a>
</g>
</g>
<!-- src/main/index.mjs&#45;&gt;src/main/cruise.mjs -->
<g id="edge11" class="edge">
<title>src/main/index.mjs&#45;&gt;src/main/cruise.mjs</title>
<path fill="none" stroke="#000000" stroke-width="2" stroke-opacity="0.200000" d="M321.19,-204.21C319.68,-202.41 318.04,-200.44 316.39,-198.46"/>
<polygon fill="#000000" fill-opacity="0.200000" stroke="#000000" stroke-width="2" stroke-opacity="0.200000" points="317.37,-197.17 311.91,-193.91 314.15,-199.86 317.37,-197.17"/>
</g>
<!-- src/main/index.mjs&#45;&gt;src/main/format.mjs -->
<g id="edge12" class="edge">
<title>src/main/index.mjs&#45;&gt;src/main/format.mjs</title>
<path fill="none" stroke="#000000" stroke-width="2" stroke-opacity="0.200000" d="M346.46,-204.1C364.3,-195.68 391.68,-181.65 413,-165.75 420.53,-160.14 428.04,-152.92 434.08,-146.61"/>
<polygon fill="#000000" fill-opacity="0.200000" stroke="#000000" stroke-width="2" stroke-opacity="0.200000" points="435.45,-148.07 437.99,-142.25 432.37,-145.22 435.45,-148.07"/>
</g>
</g>
</svg>
