<?xml version="1.0" encoding="UTF-8" standalone="no"?>
<!DOCTYPE svg PUBLIC "-//W3C//DTD SVG 1.1//EN"
 "http://www.w3.org/Graphics/SVG/1.1/DTD/svg11.dtd">
<!-- Generated by graphviz version 2.47.0 (20210316.0004)
 -->
<!-- Title: dependency&#45;cruiser output Pages: 1 -->
<svg width="499pt" height="282pt"
 viewBox="0.00 0.00 499.00 282.00" xmlns="http://www.w3.org/2000/svg" xmlns:xlink="http://www.w3.org/1999/xlink">
<g id="graph0" class="graph" transform="scale(1 1) rotate(0) translate(4 278)">
<title>dependency&#45;cruiser output</title>
<polygon fill="white" stroke="transparent" points="-4,4 -4,-278 495,-278 495,4 -4,4"/>
<g id="clust1" class="cluster">
<title>cluster_src</title>
<path fill="#ffffff" stroke="black" stroke-width="2" d="M20,-8C20,-8 471,-8 471,-8 477,-8 483,-14 483,-20 483,-20 483,-254 483,-254 483,-260 477,-266 471,-266 471,-266 20,-266 20,-266 14,-266 8,-260 8,-254 8,-254 8,-20 8,-20 8,-14 14,-8 20,-8"/>
<text text-anchor="middle" x="245.5" y="-254.8" font-family="Helvetica,sans-Serif" font-weight="bold" font-size="9.00">src</text>
</g>
<g id="clust2" class="cluster">
<title>cluster_src/main</title>
<path fill="#ffffff" stroke="black" stroke-width="2" d="M28,-16C28,-16 463,-16 463,-16 469,-16 475,-22 475,-28 475,-28 475,-228 475,-228 475,-234 469,-240 463,-240 463,-240 28,-240 28,-240 22,-240 16,-234 16,-228 16,-228 16,-28 16,-28 16,-22 22,-16 28,-16"/>
<text text-anchor="middle" x="245.5" y="-228.8" font-family="Helvetica,sans-Serif" font-weight="bold" font-size="9.00">main</text>
</g>
<g id="clust3" class="cluster">
<title>cluster_src/main/files&#45;and&#45;dirs</title>
<path fill="#ffffff" stroke="black" stroke-width="2" d="M36,-136C36,-136 94,-136 94,-136 100,-136 106,-142 106,-148 106,-148 106,-176 106,-176 106,-182 100,-188 94,-188 94,-188 36,-188 36,-188 30,-188 24,-182 24,-176 24,-176 24,-148 24,-148 24,-142 30,-136 36,-136"/>
<text text-anchor="middle" x="65" y="-176.8" font-family="Helvetica,sans-Serif" font-weight="bold" font-size="9.00">files&#45;and&#45;dirs</text>
</g>
<g id="clust4" class="cluster">
<title>cluster_src/main/options</title>
<path fill="#ffffff" stroke="black" stroke-width="2" d="M105,-24C105,-24 233,-24 233,-24 239,-24 245,-30 245,-36 245,-36 245,-116 245,-116 245,-122 239,-128 233,-128 233,-128 105,-128 105,-128 99,-128 93,-122 93,-116 93,-116 93,-36 93,-36 93,-30 99,-24 105,-24"/>
<text text-anchor="middle" x="169" y="-116.8" font-family="Helvetica,sans-Serif" font-weight="bold" font-size="9.00">options</text>
</g>
<g id="clust5" class="cluster">
<title>cluster_src/main/resolve&#45;options</title>
<path fill="#ffffff" stroke="black" stroke-width="2" d="M236,-136C236,-136 295,-136 295,-136 301,-136 307,-142 307,-148 307,-148 307,-176 307,-176 307,-182 301,-188 295,-188 295,-188 236,-188 236,-188 230,-188 224,-182 224,-176 224,-176 224,-148 224,-148 224,-142 230,-136 236,-136"/>
<text text-anchor="middle" x="265.5" y="-176.8" font-family="Helvetica,sans-Serif" font-weight="bold" font-size="9.00">resolve&#45;options</text>
</g>
<g id="clust6" class="cluster">
<title>cluster_src/main/rule&#45;set</title>
<path fill="#ffffff" stroke="black" stroke-width="2" d="M327,-136C327,-136 455,-136 455,-136 461,-136 467,-142 467,-148 467,-148 467,-176 467,-176 467,-182 461,-188 455,-188 455,-188 327,-188 327,-188 321,-188 315,-182 315,-176 315,-176 315,-148 315,-148 315,-142 321,-136 327,-136"/>
<text text-anchor="middle" x="391" y="-176.8" font-family="Helvetica,sans-Serif" font-weight="bold" font-size="9.00">rule&#45;set</text>
</g>
<g id="clust7" class="cluster">
<title>cluster_src/main/utl</title>
<path fill="#ffffff" stroke="black" stroke-width="2" d="M312,-24C312,-24 426,-24 426,-24 432,-24 438,-30 438,-36 438,-36 438,-64 438,-64 438,-70 432,-76 426,-76 426,-76 312,-76 312,-76 306,-76 300,-70 300,-64 300,-64 300,-36 300,-36 300,-30 306,-24 312,-24"/>
<text text-anchor="middle" x="369" y="-64.8" font-family="Helvetica,sans-Serif" font-weight="bold" font-size="9.00">utl</text>
</g>
<!-- src/main/files&#45;and&#45;dirs/normalize.js -->
<g id="node1" class="node">
<title>src/main/files&#45;and&#45;dirs/normalize.js</title>
<g id="a_node1"><a xlink:href="src/main/files-and-dirs/normalize.js" xlink:title="normalize.js">
<path fill="#ffffcc" stroke="black" d="M92,-162C92,-162 38,-162 38,-162 35,-162 32,-159 32,-156 32,-156 32,-150 32,-150 32,-147 35,-144 38,-144 38,-144 92,-144 92,-144 95,-144 98,-147 98,-150 98,-150 98,-156 98,-156 98,-159 95,-162 92,-162"/>
<text text-anchor="middle" x="65" y="-150.8" font-family="Helvetica,sans-Serif" font-size="9.00">normalize.js</text>
</a>
</g>
</g>
<!-- src/main/index.js -->
<g id="node2" class="node">
<title>src/main/index.js</title>
<g id="a_node2"><a xlink:href="src/main/index.js" xlink:title="index.js">
<path fill="#ffffcc" stroke="black" d="M200,-214C200,-214 158,-214 158,-214 155,-214 152,-211 152,-208 152,-208 152,-202 152,-202 152,-199 155,-196 158,-196 158,-196 200,-196 200,-196 203,-196 206,-199 206,-202 206,-202 206,-208 206,-208 206,-211 203,-214 200,-214"/>
<text text-anchor="middle" x="179" y="-202.8" font-family="Helvetica,sans-Serif" font-size="9.00">index.js</text>
</a>
</g>
</g>
<!-- src/main/index.js&#45;&gt;src/main/files&#45;and&#45;dirs/normalize.js -->
<g id="edge1" class="edge">
<title>src/main/index.js&#45;&gt;src/main/files&#45;and&#45;dirs/normalize.js</title>
<path fill="none" stroke="#000000" stroke-width="2" stroke-opacity="0.200000" d="M151.8,-201.94C136.5,-199.91 117.43,-195.92 102,-188 91.91,-182.82 82.53,-174.14 75.73,-166.84"/>
<polygon fill="#000000" fill-opacity="0.200000" stroke="#000000" stroke-width="2" stroke-opacity="0.200000" points="77.03,-165.14 71.47,-162.07 73.9,-167.94 77.03,-165.14"/>
</g>
<!-- src/main/options/normalize.js -->
<g id="node3" class="node">
<title>src/main/options/normalize.js</title>
<g id="a_node3"><a xlink:href="src/main/options/normalize.js" xlink:title="normalize.js">
<path fill="#ffffcc" stroke="black" d="M161,-102C161,-102 107,-102 107,-102 104,-102 101,-99 101,-96 101,-96 101,-90 101,-90 101,-87 104,-84 107,-84 107,-84 161,-84 161,-84 164,-84 167,-87 167,-90 167,-90 167,-96 167,-96 167,-99 164,-102 161,-102"/>
<text text-anchor="middle" x="134" y="-90.8" font-family="Helvetica,sans-Serif" font-size="9.00">normalize.js</text>
</a>
</g>
</g>
<!-- src/main/index.js&#45;&gt;src/main/options/normalize.js -->
<g id="edge2" class="edge">
<title>src/main/index.js&#45;&gt;src/main/options/normalize.js</title>
<path fill="none" stroke="#000000" stroke-width="2" stroke-opacity="0.200000" d="M151.96,-203.04C141.18,-201.16 129.76,-196.96 123,-188 105.16,-164.34 117.91,-127.37 127.01,-107.58"/>
<polygon fill="#000000" fill-opacity="0.200000" stroke="#000000" stroke-width="2" stroke-opacity="0.200000" points="128.97,-108.34 129.68,-102.02 125.19,-106.52 128.97,-108.34"/>
</g>
<!-- src/main/options/validate.js -->
<g id="node4" class="node">
<title>src/main/options/validate.js</title>
<g id="a_node4"><a xlink:href="src/main/options/validate.js" xlink:title="validate.js">
<path fill="#ffffcc" stroke="black" d="M231,-102C231,-102 185,-102 185,-102 182,-102 179,-99 179,-96 179,-96 179,-90 179,-90 179,-87 182,-84 185,-84 185,-84 231,-84 231,-84 234,-84 237,-87 237,-90 237,-90 237,-96 237,-96 237,-99 234,-102 231,-102"/>
<text text-anchor="middle" x="208" y="-90.8" font-family="Helvetica,sans-Serif" font-size="9.00">validate.js</text>
</a>
</g>
</g>
<!-- src/main/index.js&#45;&gt;src/main/options/validate.js -->
<g id="edge3" class="edge">
<title>src/main/index.js&#45;&gt;src/main/options/validate.js</title>
<path fill="none" stroke="#000000" stroke-width="2" stroke-opacity="0.200000" d="M151.76,-199C145.97,-196.63 140.54,-193.14 137,-188 123.89,-168.97 122.54,-154.03 137,-136 147.26,-123.21 158.58,-135.78 173,-128 182.69,-122.77 191.57,-114.08 197.95,-106.8"/>
<polygon fill="#000000" fill-opacity="0.200000" stroke="#000000" stroke-width="2" stroke-opacity="0.200000" points="199.7,-107.99 201.96,-102.04 196.49,-105.28 199.7,-107.99"/>
</g>
<!-- src/main/report&#45;wrap.js -->
<g id="node5" class="node">
<title>src/main/report&#45;wrap.js</title>
<g id="a_node5"><a xlink:href="src/main/report-wrap.js" xlink:title="report&#45;wrap.js">
<path fill="#ffffcc" stroke="black" d="M209.5,-162C209.5,-162 148.5,-162 148.5,-162 145.5,-162 142.5,-159 142.5,-156 142.5,-156 142.5,-150 142.5,-150 142.5,-147 145.5,-144 148.5,-144 148.5,-144 209.5,-144 209.5,-144 212.5,-144 215.5,-147 215.5,-150 215.5,-150 215.5,-156 215.5,-156 215.5,-159 212.5,-162 209.5,-162"/>
<text text-anchor="middle" x="179" y="-150.8" font-family="Helvetica,sans-Serif" font-size="9.00">report&#45;wrap.js</text>
</a>
</g>
</g>
<!-- src/main/index.js&#45;&gt;src/main/report&#45;wrap.js -->
<g id="edge4" class="edge">
<title>src/main/index.js&#45;&gt;src/main/report&#45;wrap.js</title>
<path fill="none" stroke="#000000" stroke-width="2" stroke-opacity="0.200000" d="M179,-195.74C179,-188.24 179,-177.02 179,-168.1"/>
<polygon fill="#000000" fill-opacity="0.200000" stroke="#000000" stroke-width="2" stroke-opacity="0.200000" points="181.1,-168.1 179,-162.1 176.9,-168.1 181.1,-168.1"/>
</g>
<!-- src/main/resolve&#45;options/normalize.js -->
<g id="node6" class="node">
<title>src/main/resolve&#45;options/normalize.js</title>
<g id="a_node6"><a xlink:href="src/main/resolve-options/normalize.js" xlink:title="normalize.js">
<path fill="#ffffcc" stroke="black" d="M292,-162C292,-162 238,-162 238,-162 235,-162 232,-159 232,-156 232,-156 232,-150 232,-150 232,-147 235,-144 238,-144 238,-144 292,-144 292,-144 295,-144 298,-147 298,-150 298,-150 298,-156 298,-156 298,-159 295,-162 292,-162"/>
<text text-anchor="middle" x="265" y="-150.8" font-family="Helvetica,sans-Serif" font-size="9.00">normalize.js</text>
</a>
</g>
</g>
<!-- src/main/index.js&#45;&gt;src/main/resolve&#45;options/normalize.js -->
<g id="edge5" class="edge">
<title>src/main/index.js&#45;&gt;src/main/resolve&#45;options/normalize.js</title>
<path fill="none" stroke="#000000" stroke-width="2" stroke-opacity="0.200000" d="M206.08,-197.43C213.47,-195.04 221.28,-191.93 228,-188 237.67,-182.34 246.94,-173.81 253.79,-166.71"/>
<polygon fill="#000000" fill-opacity="0.200000" stroke="#000000" stroke-width="2" stroke-opacity="0.200000" points="255.56,-167.89 258.12,-162.07 252.49,-165.03 255.56,-167.89"/>
</g>
<!-- src/main/rule&#45;set/normalize.js -->
<g id="node7" class="node">
<title>src/main/rule&#45;set/normalize.js</title>
<g id="a_node7"><a xlink:href="src/main/rule-set/normalize.js" xlink:title="normalize.js">
<path fill="#ffffcc" stroke="black" d="M453,-162C453,-162 399,-162 399,-162 396,-162 393,-159 393,-156 393,-156 393,-150 393,-150 393,-147 396,-144 399,-144 399,-144 453,-144 453,-144 456,-144 459,-147 459,-150 459,-150 459,-156 459,-156 459,-159 456,-162 453,-162"/>
<text text-anchor="middle" x="426" y="-150.8" font-family="Helvetica,sans-Serif" font-size="9.00">normalize.js</text>
</a>
</g>
</g>
<!-- src/main/index.js&#45;&gt;src/main/rule&#45;set/normalize.js -->
<g id="edge6" class="edge">
<title>src/main/index.js&#45;&gt;src/main/rule&#45;set/normalize.js</title>
<path fill="none" stroke="#000000" stroke-width="2" stroke-opacity="0.200000" d="M206.25,-204.02C255.02,-203.7 355.1,-201.37 387,-188 398.11,-183.34 408.29,-174.23 415.46,-166.61"/>
<polygon fill="#000000" fill-opacity="0.200000" stroke="#000000" stroke-width="2" stroke-opacity="0.200000" points="417.06,-167.97 419.52,-162.11 413.94,-165.16 417.06,-167.97"/>
</g>
<!-- src/main/rule&#45;set/validate.js -->
<g id="node8" class="node">
<title>src/main/rule&#45;set/validate.js</title>
<g id="a_node8"><a xlink:href="src/main/rule-set/validate.js" xlink:title="validate.js">
<path fill="#ffffcc" stroke="black" d="M375,-162C375,-162 329,-162 329,-162 326,-162 323,-159 323,-156 323,-156 323,-150 323,-150 323,-147 326,-144 329,-144 329,-144 375,-144 375,-144 378,-144 381,-147 381,-150 381,-150 381,-156 381,-156 381,-159 378,-162 375,-162"/>
<text text-anchor="middle" x="352" y="-150.8" font-family="Helvetica,sans-Serif" font-size="9.00">validate.js</text>
</a>
</g>
</g>
<!-- src/main/index.js&#45;&gt;src/main/rule&#45;set/validate.js -->
<g id="edge7" class="edge">
<title>src/main/index.js&#45;&gt;src/main/rule&#45;set/validate.js</title>
<path fill="none" stroke="#000000" stroke-width="2" stroke-opacity="0.200000" d="M206.21,-204.97C233.52,-204.98 276.25,-202.31 310,-188 321.44,-183.15 332.29,-174.21 340.1,-166.72"/>
<polygon fill="#000000" fill-opacity="0.200000" stroke="#000000" stroke-width="2" stroke-opacity="0.200000" points="341.77,-168.01 344.54,-162.29 338.81,-165.03 341.77,-168.01"/>
</g>
<!-- src/main/options/defaults.json -->
<g id="node9" class="node">
<title>src/main/options/defaults.json</title>
<g id="a_node9"><a xlink:href="src/main/options/defaults.json" xlink:title="defaults.json">
<path fill="#ffee44" stroke="black" d="M163,-50C163,-50 107,-50 107,-50 104,-50 101,-47 101,-44 101,-44 101,-38 101,-38 101,-35 104,-32 107,-32 107,-32 163,-32 163,-32 166,-32 169,-35 169,-38 169,-38 169,-44 169,-44 169,-47 166,-50 163,-50"/>
<text text-anchor="middle" x="135" y="-38.8" font-family="Helvetica,sans-Serif" font-size="9.00">defaults.json</text>
</a>
</g>
</g>
<!-- src/main/options/normalize.js&#45;&gt;src/main/options/defaults.json -->
<g id="edge9" class="edge">
<title>src/main/options/normalize.js&#45;&gt;src/main/options/defaults.json</title>
<path fill="none" stroke="#000000" stroke-width="2" stroke-opacity="0.200000" d="M134.17,-83.74C134.32,-76.24 134.54,-65.02 134.72,-56.1"/>
<polygon fill="#000000" fill-opacity="0.200000" stroke="#000000" stroke-width="2" stroke-opacity="0.200000" points="136.82,-56.14 134.84,-50.1 132.62,-56.06 136.82,-56.14"/>
</g>
<!-- src/main/utl/normalize&#45;re&#45;properties.js -->
<g id="node10" class="node">
<title>src/main/utl/normalize&#45;re&#45;properties.js</title>
<g id="a_node10"><a xlink:href="src/main/utl/normalize-re-properties.js" xlink:title="normalize&#45;re&#45;properties.js">
<path fill="#ffffcc" stroke="black" d="M424,-50C424,-50 314,-50 314,-50 311,-50 308,-47 308,-44 308,-44 308,-38 308,-38 308,-35 311,-32 314,-32 314,-32 424,-32 424,-32 427,-32 430,-35 430,-38 430,-38 430,-44 430,-44 430,-47 427,-50 424,-50"/>
<text text-anchor="middle" x="369" y="-38.8" font-family="Helvetica,sans-Serif" font-size="9.00">normalize&#45;re&#45;properties.js</text>
</a>
</g>
</g>
<!-- src/main/options/normalize.js&#45;&gt;src/main/utl/normalize&#45;re&#45;properties.js -->
<g id="edge8" class="edge">
<title>src/main/options/normalize.js&#45;&gt;src/main/utl/normalize&#45;re&#45;properties.js</title>
<path fill="none" stroke="#000000" stroke-width="2" stroke-opacity="0.200000" d="M167.15,-84.97C169.13,-84.63 171.09,-84.3 173,-84 206.12,-78.85 215.08,-82.33 248,-76 279.41,-69.96 314.52,-59.69 338.79,-52.01"/>
<polygon fill="#000000" fill-opacity="0.200000" stroke="#000000" stroke-width="2" stroke-opacity="0.200000" points="339.64,-53.95 344.72,-50.12 338.37,-49.94 339.64,-53.95"/>
</g>
<!-- src/main/rule&#45;set/normalize.js&#45;&gt;src/main/utl/normalize&#45;re&#45;properties.js -->
<g id="edge10" class="edge">
<title>src/main/rule&#45;set/normalize.js&#45;&gt;src/main/utl/normalize&#45;re&#45;properties.js</title>
<path fill="none" stroke="#000000" stroke-width="2" stroke-opacity="0.200000" d="M421.72,-143.73C411.97,-124.93 388.07,-78.8 376.09,-55.68"/>
<polygon fill="#000000" fill-opacity="0.200000" stroke="#000000" stroke-width="2" stroke-opacity="0.200000" points="377.8,-54.43 373.18,-50.06 374.08,-56.36 377.8,-54.43"/>
</g>
<!-- src/main/rule&#45;set/validate.js&#45;&gt;src/main/options/validate.js -->
<g id="edge11" class="edge">
<title>src/main/rule&#45;set/validate.js&#45;&gt;src/main/options/validate.js</title>
<path fill="none" stroke="#000000" stroke-width="2" stroke-opacity="0.200000" d="M331.98,-143.94C306.44,-133.65 262.21,-115.84 234.07,-104.5"/>
<polygon fill="#000000" fill-opacity="0.200000" stroke="#000000" stroke-width="2" stroke-opacity="0.200000" points="234.67,-102.48 228.32,-102.18 233.1,-106.37 234.67,-102.48"/>
</g>
</g>
</svg>
