<?xml version="1.0" encoding="UTF-8" standalone="no"?>
<!DOCTYPE svg PUBLIC "-//W3C//DTD SVG 1.1//EN"
 "http://www.w3.org/Graphics/SVG/1.1/DTD/svg11.dtd">
<!-- Generated by graphviz version 9.0.0 (20230911.1827)
 -->
<!-- Title: dependency&#45;cruiser output Pages: 1 -->
<svg width="546pt" height="290pt"
 viewBox="0.00 0.00 546.00 289.75" xmlns="http://www.w3.org/2000/svg" xmlns:xlink="http://www.w3.org/1999/xlink">
<g id="graph0" class="graph" transform="scale(1 1) rotate(0) translate(4 285.75)">
<title>dependency&#45;cruiser output</title>
<polygon fill="white" stroke="none" points="-4,4 -4,-285.75 542,-285.75 542,4 -4,4"/>
<g id="clust1" class="cluster">
<title>cluster_src</title>
<path fill="#ffffff" stroke="black" stroke-width="2" d="M20,-8C20,-8 518,-8 518,-8 524,-8 530,-14 530,-20 530,-20 530,-261.75 530,-261.75 530,-267.75 524,-273.75 518,-273.75 518,-273.75 20,-273.75 20,-273.75 14,-273.75 8,-267.75 8,-261.75 8,-261.75 8,-20 8,-20 8,-14 14,-8 20,-8"/>
<text text-anchor="middle" x="269" y="-261.2" font-family="Helvetica,sans-Serif" font-weight="bold" font-size="9.00">src</text>
</g>
<g id="clust2" class="cluster">
<title>cluster_src/main</title>
<path fill="#ffffff" stroke="black" stroke-width="2" d="M28,-16C28,-16 510,-16 510,-16 516,-16 522,-22 522,-28 522,-28 522,-236 522,-236 522,-242 516,-248 510,-248 510,-248 28,-248 28,-248 22,-248 16,-242 16,-236 16,-236 16,-28 16,-28 16,-22 22,-16 28,-16"/>
<text text-anchor="middle" x="269" y="-235.45" font-family="Helvetica,sans-Serif" font-weight="bold" font-size="9.00">main</text>
</g>
<g id="clust3" class="cluster">
<title>cluster_src/main/files&#45;and&#45;dirs</title>
<path fill="#ffffff" stroke="black" stroke-width="2" d="M234,-114.25C234,-114.25 300,-114.25 300,-114.25 306,-114.25 312,-120.25 312,-126.25 312,-126.25 312,-153.75 312,-153.75 312,-159.75 306,-165.75 300,-165.75 300,-165.75 234,-165.75 234,-165.75 228,-165.75 222,-159.75 222,-153.75 222,-153.75 222,-126.25 222,-126.25 222,-120.25 228,-114.25 234,-114.25"/>
<text text-anchor="middle" x="267" y="-153.2" font-family="Helvetica,sans-Serif" font-weight="bold" font-size="9.00">files&#45;and&#45;dirs</text>
</g>
<g id="clust4" class="cluster">
<title>cluster_src/main/options</title>
<path fill="#ffffff" stroke="black" stroke-width="2" d="M229,-24C229,-24 395,-24 395,-24 401,-24 407,-30 407,-36 407,-36 407,-94.25 407,-94.25 407,-100.25 401,-106.25 395,-106.25 395,-106.25 229,-106.25 229,-106.25 223,-106.25 217,-100.25 217,-94.25 217,-94.25 217,-36 217,-36 217,-30 223,-24 229,-24"/>
<text text-anchor="middle" x="312" y="-93.7" font-family="Helvetica,sans-Serif" font-weight="bold" font-size="9.00">options</text>
</g>
<g id="clust5" class="cluster">
<title>cluster_src/main/resolve&#45;options</title>
<path fill="#ffffff" stroke="black" stroke-width="2" d="M356,-114.25C356,-114.25 422,-114.25 422,-114.25 428,-114.25 434,-120.25 434,-126.25 434,-126.25 434,-153.75 434,-153.75 434,-159.75 428,-165.75 422,-165.75 422,-165.75 356,-165.75 356,-165.75 350,-165.75 344,-159.75 344,-153.75 344,-153.75 344,-126.25 344,-126.25 344,-120.25 350,-114.25 356,-114.25"/>
<text text-anchor="middle" x="389" y="-153.2" font-family="Helvetica,sans-Serif" font-weight="bold" font-size="9.00">resolve&#45;options</text>
</g>
<g id="clust6" class="cluster">
<title>cluster_src/main/rule&#45;set</title>
<path fill="#ffffff" stroke="black" stroke-width="2" d="M36,-114.25C36,-114.25 202,-114.25 202,-114.25 208,-114.25 214,-120.25 214,-126.25 214,-126.25 214,-153.75 214,-153.75 214,-159.75 208,-165.75 202,-165.75 202,-165.75 36,-165.75 36,-165.75 30,-165.75 24,-159.75 24,-153.75 24,-153.75 24,-126.25 24,-126.25 24,-120.25 30,-114.25 36,-114.25"/>
<text text-anchor="middle" x="119" y="-153.2" font-family="Helvetica,sans-Serif" font-weight="bold" font-size="9.00">rule&#45;set</text>
</g>
<!-- src/main/cruise.mjs -->
<g id="node1" class="node">
<title>src/main/cruise.mjs</title>
<g id="a_node1"><a xlink:href="src/main/cruise.mjs" xlink:title="cruise.mjs">
<path fill="#ffffcc" stroke="black" d="M350.71,-191.5C350.71,-191.5 305.29,-191.5 305.29,-191.5 302.33,-191.5 299.38,-188.54 299.38,-185.58 299.38,-185.58 299.38,-179.67 299.38,-179.67 299.38,-176.71 302.33,-173.75 305.29,-173.75 305.29,-173.75 350.71,-173.75 350.71,-173.75 353.67,-173.75 356.62,-176.71 356.62,-179.67 356.62,-179.67 356.62,-185.58 356.62,-185.58 356.62,-188.54 353.67,-191.5 350.71,-191.5"/>
<text text-anchor="start" x="307.38" y="-178.95" font-family="Helvetica,sans-Serif" font-size="9.00">cruise.mjs</text>
</a>
</g>
</g>
<!-- src/main/files&#45;and&#45;dirs/normalize.mjs -->
<g id="node2" class="node">
<title>src/main/files&#45;and&#45;dirs/normalize.mjs</title>
<g id="a_node2"><a xlink:href="src/main/files-and-dirs/normalize.mjs" xlink:title="normalize.mjs">
<path fill="#ffffcc" stroke="black" d="M297.58,-140C297.58,-140 236.42,-140 236.42,-140 233.46,-140 230.5,-137.04 230.5,-134.08 230.5,-134.08 230.5,-128.17 230.5,-128.17 230.5,-125.21 233.46,-122.25 236.42,-122.25 236.42,-122.25 297.58,-122.25 297.58,-122.25 300.54,-122.25 303.5,-125.21 303.5,-128.17 303.5,-128.17 303.5,-134.08 303.5,-134.08 303.5,-137.04 300.54,-140 297.58,-140"/>
<text text-anchor="start" x="238.5" y="-127.45" font-family="Helvetica,sans-Serif" font-size="9.00">normalize.mjs</text>
</a>
</g>
</g>
<!-- src/main/cruise.mjs&#45;&gt;src/main/files&#45;and&#45;dirs/normalize.mjs -->
<g id="edge1" class="edge">
<title>src/main/cruise.mjs&#45;&gt;src/main/files&#45;and&#45;dirs/normalize.mjs</title>
<path fill="none" stroke="#000000" stroke-width="2" stroke-dasharray="5,2" stroke-opacity="0.200000" d="M317.39,-173.25C314.35,-170.84 311.04,-168.2 308,-165.75 300.05,-159.33 291.28,-152.16 283.91,-146.09"/>
<polygon fill="#000000" fill-opacity="0.200000" stroke="#000000" stroke-width="2" stroke-opacity="0.200000" points="285.38,-144.58 279.41,-142.39 282.7,-147.82 285.38,-144.58"/>
</g>
<!-- src/main/options/assert&#45;validity.mjs -->
<g id="node3" class="node">
<title>src/main/options/assert&#45;validity.mjs</title>
<g id="a_node3"><a xlink:href="src/main/options/assert-validity.mjs" xlink:title="assert&#45;validity.mjs">
<path fill="#ffffcc" stroke="black" d="M307.46,-80.5C307.46,-80.5 230.54,-80.5 230.54,-80.5 227.58,-80.5 224.62,-77.54 224.62,-74.58 224.62,-74.58 224.62,-68.67 224.62,-68.67 224.62,-65.71 227.58,-62.75 230.54,-62.75 230.54,-62.75 307.46,-62.75 307.46,-62.75 310.42,-62.75 313.38,-65.71 313.38,-68.67 313.38,-68.67 313.38,-74.58 313.38,-74.58 313.38,-77.54 310.42,-80.5 307.46,-80.5"/>
<text text-anchor="start" x="232.62" y="-67.95" font-family="Helvetica,sans-Serif" font-size="9.00">assert&#45;validity.mjs</text>
</a>
</g>
</g>
<!-- src/main/cruise.mjs&#45;&gt;src/main/options/assert&#45;validity.mjs -->
<g id="edge2" class="edge">
<title>src/main/cruise.mjs&#45;&gt;src/main/options/assert&#45;validity.mjs</title>
<path fill="none" stroke="#000000" stroke-width="2" stroke-opacity="0.200000" d="M326.71,-173.35C324.03,-156.5 317.88,-119.36 315,-114.25 308.74,-103.14 298.44,-93.41 289.17,-86.15"/>
<polygon fill="#000000" fill-opacity="0.200000" stroke="#000000" stroke-width="2" stroke-opacity="0.200000" points="290.56,-84.57 284.48,-82.69 288.06,-87.94 290.56,-84.57"/>
</g>
<!-- src/main/options/normalize.mjs -->
<g id="node4" class="node">
<title>src/main/options/normalize.mjs</title>
<g id="a_node4"><a xlink:href="src/main/options/normalize.mjs" xlink:title="normalize.mjs">
<path fill="#ffffcc" stroke="black" d="M392.58,-80.5C392.58,-80.5 331.42,-80.5 331.42,-80.5 328.46,-80.5 325.5,-77.54 325.5,-74.58 325.5,-74.58 325.5,-68.67 325.5,-68.67 325.5,-65.71 328.46,-62.75 331.42,-62.75 331.42,-62.75 392.58,-62.75 392.58,-62.75 395.54,-62.75 398.5,-65.71 398.5,-68.67 398.5,-68.67 398.5,-74.58 398.5,-74.58 398.5,-77.54 395.54,-80.5 392.58,-80.5"/>
<text text-anchor="start" x="333.5" y="-67.95" font-family="Helvetica,sans-Serif" font-size="9.00">normalize.mjs</text>
</a>
</g>
</g>
<!-- src/main/cruise.mjs&#45;&gt;src/main/options/normalize.mjs -->
<g id="edge3" class="edge">
<title>src/main/cruise.mjs&#45;&gt;src/main/options/normalize.mjs</title>
<path fill="none" stroke="#000000" stroke-width="2" stroke-opacity="0.200000" d="M328.83,-173.56C330.3,-160.72 333.92,-134.99 341,-114.25 344.03,-105.36 348.63,-95.98 352.75,-88.38"/>
<polygon fill="#000000" fill-opacity="0.200000" stroke="#000000" stroke-width="2" stroke-opacity="0.200000" points="354.34,-89.83 355.46,-83.57 350.68,-87.77 354.34,-89.83"/>
</g>
<!-- src/main/report&#45;wrap.mjs -->
<g id="node5" class="node">
<title>src/main/report&#45;wrap.mjs</title>
<g id="a_node5"><a xlink:href="src/main/report-wrap.mjs" xlink:title="report&#45;wrap.mjs">
<path fill="#ffffcc" stroke="black" d="M505.96,-80.5C505.96,-80.5 438.04,-80.5 438.04,-80.5 435.08,-80.5 432.12,-77.54 432.12,-74.58 432.12,-74.58 432.12,-68.67 432.12,-68.67 432.12,-65.71 435.08,-62.75 438.04,-62.75 438.04,-62.75 505.96,-62.75 505.96,-62.75 508.92,-62.75 511.88,-65.71 511.88,-68.67 511.88,-68.67 511.88,-74.58 511.88,-74.58 511.88,-77.54 508.92,-80.5 505.96,-80.5"/>
<text text-anchor="start" x="440.12" y="-67.95" font-family="Helvetica,sans-Serif" font-size="9.00">report&#45;wrap.mjs</text>
</a>
</g>
</g>
<!-- src/main/cruise.mjs&#45;&gt;src/main/report&#45;wrap.mjs -->
<g id="edge4" class="edge">
<title>src/main/cruise.mjs&#45;&gt;src/main/report&#45;wrap.mjs</title>
<path fill="none" stroke="#000000" stroke-width="2" stroke-opacity="0.200000" d="M356.92,-181.14C404.77,-180.03 496.16,-176.51 506,-165.75 521.45,-148.86 513.69,-135.81 506,-114.25 502.31,-103.89 494.8,-94.24 487.78,-86.85"/>
<polygon fill="#000000" fill-opacity="0.200000" stroke="#000000" stroke-width="2" stroke-opacity="0.200000" points="489.49,-85.59 483.75,-82.86 486.54,-88.57 489.49,-85.59"/>
</g>
<!-- src/main/resolve&#45;options/normalize.mjs -->
<g id="node6" class="node">
<title>src/main/resolve&#45;options/normalize.mjs</title>
<g id="a_node6"><a xlink:href="src/main/resolve-options/normalize.mjs" xlink:title="normalize.mjs">
<path fill="#ffffcc" stroke="black" d="M419.58,-140C419.58,-140 358.42,-140 358.42,-140 355.46,-140 352.5,-137.04 352.5,-134.08 352.5,-134.08 352.5,-128.17 352.5,-128.17 352.5,-125.21 355.46,-122.25 358.42,-122.25 358.42,-122.25 419.58,-122.25 419.58,-122.25 422.54,-122.25 425.5,-125.21 425.5,-128.17 425.5,-128.17 425.5,-134.08 425.5,-134.08 425.5,-137.04 422.54,-140 419.58,-140"/>
<text text-anchor="start" x="360.5" y="-127.45" font-family="Helvetica,sans-Serif" font-size="9.00">normalize.mjs</text>
</a>
</g>
</g>
<!-- src/main/cruise.mjs&#45;&gt;src/main/resolve&#45;options/normalize.mjs -->
<g id="edge5" class="edge">
<title>src/main/cruise.mjs&#45;&gt;src/main/resolve&#45;options/normalize.mjs</title>
<path fill="none" stroke="#000000" stroke-width="2" stroke-dasharray="5,2" stroke-opacity="0.200000" d="M339.2,-173.33C342.39,-170.92 345.86,-168.26 349,-165.75 356.98,-159.39 365.67,-152.12 372.91,-145.98"/>
<polygon fill="#000000" fill-opacity="0.200000" stroke="#000000" stroke-width="2" stroke-opacity="0.200000" points="374.08,-147.74 377.28,-142.25 371.35,-144.55 374.08,-147.74"/>
</g>
<!-- src/main/rule&#45;set/assert&#45;validity.mjs -->
<g id="node7" class="node">
<title>src/main/rule&#45;set/assert&#45;validity.mjs</title>
<g id="a_node7"><a xlink:href="src/main/rule-set/assert-validity.mjs" xlink:title="assert&#45;validity.mjs">
<path fill="#ffffcc" stroke="black" d="M200.46,-140C200.46,-140 123.54,-140 123.54,-140 120.58,-140 117.62,-137.04 117.62,-134.08 117.62,-134.08 117.62,-128.17 117.62,-128.17 117.62,-125.21 120.58,-122.25 123.54,-122.25 123.54,-122.25 200.46,-122.25 200.46,-122.25 203.42,-122.25 206.38,-125.21 206.38,-128.17 206.38,-128.17 206.38,-134.08 206.38,-134.08 206.38,-137.04 203.42,-140 200.46,-140"/>
<text text-anchor="start" x="125.62" y="-127.45" font-family="Helvetica,sans-Serif" font-size="9.00">assert&#45;validity.mjs</text>
</a>
</g>
</g>
<!-- src/main/cruise.mjs&#45;&gt;src/main/rule&#45;set/assert&#45;validity.mjs -->
<g id="edge6" class="edge">
<title>src/main/cruise.mjs&#45;&gt;src/main/rule&#45;set/assert&#45;validity.mjs</title>
<path fill="none" stroke="#000000" stroke-width="2" stroke-dasharray="5,2" stroke-opacity="0.200000" d="M299.04,-180.46C276.65,-178.83 245.15,-174.97 219,-165.75 205.22,-160.9 191.07,-152.57 180.31,-145.42"/>
<polygon fill="#000000" fill-opacity="0.200000" stroke="#000000" stroke-width="2" stroke-opacity="0.200000" points="181.77,-143.87 175.63,-142.2 179.39,-147.33 181.77,-143.87"/>
</g>
<!-- src/main/rule&#45;set/normalize.mjs -->
<g id="node8" class="node">
<title>src/main/rule&#45;set/normalize.mjs</title>
<g id="a_node8"><a xlink:href="src/main/rule-set/normalize.mjs" xlink:title="normalize.mjs">
<path fill="#ffffcc" stroke="black" d="M99.58,-140C99.58,-140 38.42,-140 38.42,-140 35.46,-140 32.5,-137.04 32.5,-134.08 32.5,-134.08 32.5,-128.17 32.5,-128.17 32.5,-125.21 35.46,-122.25 38.42,-122.25 38.42,-122.25 99.58,-122.25 99.58,-122.25 102.54,-122.25 105.5,-125.21 105.5,-128.17 105.5,-128.17 105.5,-134.08 105.5,-134.08 105.5,-137.04 102.54,-140 99.58,-140"/>
<text text-anchor="start" x="40.5" y="-127.45" font-family="Helvetica,sans-Serif" font-size="9.00">normalize.mjs</text>
</a>
</g>
</g>
<!-- src/main/cruise.mjs&#45;&gt;src/main/rule&#45;set/normalize.mjs -->
<g id="edge7" class="edge">
<title>src/main/cruise.mjs&#45;&gt;src/main/rule&#45;set/normalize.mjs</title>
<path fill="none" stroke="#000000" stroke-width="2" stroke-dasharray="5,2" stroke-opacity="0.200000" d="M298.98,-181.57C248.16,-181.13 145.32,-178.62 112,-165.75 101.17,-161.57 90.86,-153.69 83.05,-146.61"/>
<polygon fill="#000000" fill-opacity="0.200000" stroke="#000000" stroke-width="2" stroke-opacity="0.200000" points="84.61,-145.19 78.82,-142.56 81.7,-148.22 84.61,-145.19"/>
</g>
<!-- src/main/helpers.mjs -->
<g id="node10" class="node">
<title>src/main/helpers.mjs</title>
<g id="a_node10"><a xlink:href="src/main/helpers.mjs" xlink:title="helpers.mjs">
<path fill="#ffffcc" stroke="black" d="M187.71,-49.75C187.71,-49.75 136.29,-49.75 136.29,-49.75 133.33,-49.75 130.38,-46.79 130.38,-43.83 130.38,-43.83 130.38,-37.92 130.38,-37.92 130.38,-34.96 133.33,-32 136.29,-32 136.29,-32 187.71,-32 187.71,-32 190.67,-32 193.62,-34.96 193.62,-37.92 193.62,-37.92 193.62,-43.83 193.62,-43.83 193.62,-46.79 190.67,-49.75 187.71,-49.75"/>
<text text-anchor="start" x="138.38" y="-37.2" font-family="Helvetica,sans-Serif" font-size="9.00">helpers.mjs</text>
</a>
</g>
</g>
<!-- src/main/options/normalize.mjs&#45;&gt;src/main/helpers.mjs -->
<g id="edge13" class="edge">
<title>src/main/options/normalize.mjs&#45;&gt;src/main/helpers.mjs</title>
<path fill="none" stroke="#000000" stroke-width="2" stroke-opacity="0.200000" d="M325.43,-63.78C323.26,-63.42 321.1,-63.07 319,-62.75 272.52,-55.62 260.58,-56.16 214,-49.75 210.34,-49.25 206.53,-48.7 202.72,-48.15"/>
<polygon fill="#000000" fill-opacity="0.200000" stroke="#000000" stroke-width="2" stroke-opacity="0.200000" points="203.12,-46.09 196.87,-47.29 202.5,-50.24 203.12,-46.09"/>
</g>
<!-- src/main/options/defaults.mjs -->
<g id="node13" class="node">
<title>src/main/options/defaults.mjs</title>
<g id="a_node13"><a xlink:href="src/main/options/defaults.mjs" xlink:title="defaults.mjs">
<path fill="#ffffcc" stroke="black" d="M388.46,-49.75C388.46,-49.75 335.54,-49.75 335.54,-49.75 332.58,-49.75 329.62,-46.79 329.62,-43.83 329.62,-43.83 329.62,-37.92 329.62,-37.92 329.62,-34.96 332.58,-32 335.54,-32 335.54,-32 388.46,-32 388.46,-32 391.42,-32 394.38,-34.96 394.38,-37.92 394.38,-37.92 394.38,-43.83 394.38,-43.83 394.38,-46.79 391.42,-49.75 388.46,-49.75"/>
<text text-anchor="start" x="337.62" y="-37.2" font-family="Helvetica,sans-Serif" font-size="9.00">defaults.mjs</text>
</a>
</g>
</g>
<!-- src/main/options/normalize.mjs&#45;&gt;src/main/options/defaults.mjs -->
<g id="edge14" class="edge">
<title>src/main/options/normalize.mjs&#45;&gt;src/main/options/defaults.mjs</title>
<path fill="none" stroke="#000000" stroke-width="2" stroke-opacity="0.200000" d="M362,-62.46C362,-61.38 362,-60.24 362,-59.07"/>
<polygon fill="#000000" fill-opacity="0.200000" stroke="#000000" stroke-width="2" stroke-opacity="0.200000" points="364.1,-59.18 362,-53.18 359.9,-59.18 364.1,-59.18"/>
</g>
<!-- src/main/rule&#45;set/assert&#45;validity.mjs&#45;&gt;src/main/options/assert&#45;validity.mjs -->
<g id="edge16" class="edge">
<title>src/main/rule&#45;set/assert&#45;validity.mjs&#45;&gt;src/main/options/assert&#45;validity.mjs</title>
<path fill="none" stroke="#000000" stroke-width="2" stroke-opacity="0.200000" d="M186.1,-121.79C197.02,-117.66 209.93,-112.26 221,-106.25 231.65,-100.46 242.78,-92.78 251.64,-86.22"/>
<polygon fill="#000000" fill-opacity="0.200000" stroke="#000000" stroke-width="2" stroke-opacity="0.200000" points="252.84,-87.95 256.36,-82.65 250.3,-84.6 252.84,-87.95"/>
</g>
<!-- src/main/rule&#45;set/assert&#45;validity.mjs&#45;&gt;src/main/helpers.mjs -->
<g id="edge15" class="edge">
<title>src/main/rule&#45;set/assert&#45;validity.mjs&#45;&gt;src/main/helpers.mjs</title>
<path fill="none" stroke="#000000" stroke-width="2" stroke-opacity="0.200000" d="M162,-121.98C162,-107.73 162,-77.99 162,-59.03"/>
<polygon fill="#000000" fill-opacity="0.200000" stroke="#000000" stroke-width="2" stroke-opacity="0.200000" points="164.1,-59.03 162,-53.03 159.9,-59.03 164.1,-59.03"/>
</g>
<!-- src/main/rule&#45;set/normalize.mjs&#45;&gt;src/main/helpers.mjs -->
<g id="edge17" class="edge">
<title>src/main/rule&#45;set/normalize.mjs&#45;&gt;src/main/helpers.mjs</title>
<path fill="none" stroke="#000000" stroke-width="2" stroke-opacity="0.200000" d="M77.58,-121.98C93.43,-106.94 127.46,-74.65 147.13,-55.98"/>
<polygon fill="#000000" fill-opacity="0.200000" stroke="#000000" stroke-width="2" stroke-opacity="0.200000" points="148.34,-57.74 151.24,-52.08 145.44,-54.69 148.34,-57.74"/>
</g>
<!-- src/main/format.mjs -->
<g id="node9" class="node">
<title>src/main/format.mjs</title>
<g id="a_node9"><a xlink:href="src/main/format.mjs" xlink:title="format.mjs">
<path fill="#ffffcc" stroke="black" d="M494.08,-140C494.08,-140 447.92,-140 447.92,-140 444.96,-140 442,-137.04 442,-134.08 442,-134.08 442,-128.17 442,-128.17 442,-125.21 444.96,-122.25 447.92,-122.25 447.92,-122.25 494.08,-122.25 494.08,-122.25 497.04,-122.25 500,-125.21 500,-128.17 500,-128.17 500,-134.08 500,-134.08 500,-137.04 497.04,-140 494.08,-140"/>
<text text-anchor="start" x="450" y="-127.45" font-family="Helvetica,sans-Serif" font-size="9.00">format.mjs</text>
</a>
</g>
</g>
<!-- src/main/format.mjs&#45;&gt;src/main/options/assert&#45;validity.mjs -->
<g id="edge8" class="edge">
<title>src/main/format.mjs&#45;&gt;src/main/options/assert&#45;validity.mjs</title>
<path fill="none" stroke="#000000" stroke-width="2" stroke-opacity="0.200000" d="M456.21,-121.77C450.4,-118.88 443.56,-115.94 437,-114.25 386.53,-101.23 369.38,-122.92 320,-106.25 307.31,-101.97 294.74,-93.73 285.25,-86.48"/>
<polygon fill="#000000" fill-opacity="0.200000" stroke="#000000" stroke-width="2" stroke-opacity="0.200000" points="286.72,-84.97 280.72,-82.86 284.1,-88.25 286.72,-84.97"/>
</g>
<!-- src/main/format.mjs&#45;&gt;src/main/options/normalize.mjs -->
<g id="edge9" class="edge">
<title>src/main/format.mjs&#45;&gt;src/main/options/normalize.mjs</title>
<path fill="none" stroke="#000000" stroke-width="2" stroke-opacity="0.200000" d="M455.03,-121.84C449.43,-119.16 443.03,-116.34 437,-114.25 422.33,-109.16 416.92,-113.13 403,-106.25 393.02,-101.32 383.31,-93.54 375.85,-86.7"/>
<polygon fill="#000000" fill-opacity="0.200000" stroke="#000000" stroke-width="2" stroke-opacity="0.200000" points="377.66,-85.53 371.88,-82.9 374.76,-88.56 377.66,-85.53"/>
</g>
<!-- src/main/format.mjs&#45;&gt;src/main/report&#45;wrap.mjs -->
<g id="edge10" class="edge">
<title>src/main/format.mjs&#45;&gt;src/main/report&#45;wrap.mjs</title>
<path fill="none" stroke="#000000" stroke-width="2" stroke-opacity="0.200000" d="M471.14,-122.13C471.28,-113.81 471.51,-100.54 471.7,-89.82"/>
<polygon fill="#000000" fill-opacity="0.200000" stroke="#000000" stroke-width="2" stroke-opacity="0.200000" points="473.8,-89.99 471.8,-83.95 469.6,-89.91 473.8,-89.99"/>
</g>
<!-- src/main/index.d.ts -->
<g id="node11" class="node">
<title>src/main/index.d.ts</title>
<g id="a_node11"><a xlink:href="src/main/index.d.ts" xlink:title="index.d.ts">
<path fill="#ccffcc" stroke="black" d="M489.58,-222.25C489.58,-222.25 446.42,-222.25 446.42,-222.25 443.46,-222.25 440.5,-219.29 440.5,-216.33 440.5,-216.33 440.5,-210.42 440.5,-210.42 440.5,-207.46 443.46,-204.5 446.42,-204.5 446.42,-204.5 489.58,-204.5 489.58,-204.5 492.54,-204.5 495.5,-207.46 495.5,-210.42 495.5,-210.42 495.5,-216.33 495.5,-216.33 495.5,-219.29 492.54,-222.25 489.58,-222.25"/>
<text text-anchor="start" x="448.5" y="-209.7" font-family="Helvetica,sans-Serif" font-size="9.00">index.d.ts</text>
</a>
</g>
</g>
<!-- src/main/index.mjs -->
<g id="node12" class="node">
<title>src/main/index.mjs</title>
<g id="a_node12"><a xlink:href="src/main/index.mjs" xlink:title="index.mjs">
<path fill="#ffffcc" stroke="black" d="M373.58,-222.25C373.58,-222.25 330.42,-222.25 330.42,-222.25 327.46,-222.25 324.5,-219.29 324.5,-216.33 324.5,-216.33 324.5,-210.42 324.5,-210.42 324.5,-207.46 327.46,-204.5 330.42,-204.5 330.42,-204.5 373.58,-204.5 373.58,-204.5 376.54,-204.5 379.5,-207.46 379.5,-210.42 379.5,-210.42 379.5,-216.33 379.5,-216.33 379.5,-219.29 376.54,-222.25 373.58,-222.25"/>
<text text-anchor="start" x="332.5" y="-209.7" font-family="Helvetica,sans-Serif" font-size="9.00">index.mjs</text>
</a>
</g>
</g>
<!-- src/main/index.mjs&#45;&gt;src/main/cruise.mjs -->
<g id="edge11" class="edge">
<title>src/main/index.mjs&#45;&gt;src/main/cruise.mjs</title>
<path fill="none" stroke="#000000" stroke-width="2" stroke-opacity="0.200000" d="M345.19,-204.21C343.68,-202.41 342.04,-200.44 340.39,-198.46"/>
<polygon fill="#000000" fill-opacity="0.200000" stroke="#000000" stroke-width="2" stroke-opacity="0.200000" points="342.31,-197.49 336.85,-194.23 339.09,-200.18 342.31,-197.49"/>
</g>
<!-- src/main/index.mjs&#45;&gt;src/main/format.mjs -->
<g id="edge12" class="edge">
<title>src/main/index.mjs&#45;&gt;src/main/format.mjs</title>
<path fill="none" stroke="#000000" stroke-width="2" stroke-opacity="0.200000" d="M370.46,-204.1C388.3,-195.68 415.68,-181.65 437,-165.75 444.53,-160.14 452.04,-152.92 458.08,-146.61"/>
<polygon fill="#000000" fill-opacity="0.200000" stroke="#000000" stroke-width="2" stroke-opacity="0.200000" points="459.39,-148.29 461.93,-142.46 456.31,-145.43 459.39,-148.29"/>
</g>
</g>
</svg>
