<?xml version="1.0" encoding="UTF-8" standalone="no"?>
<!DOCTYPE svg PUBLIC "-//W3C//DTD SVG 1.1//EN"
 "http://www.w3.org/Graphics/SVG/1.1/DTD/svg11.dtd">
<!-- Generated by graphviz version 2.44.1 (20200629.0846)
 -->
<!-- Title: dependency&#45;cruiser output Pages: 1 -->
<svg width="413pt" height="282pt"
 viewBox="0.00 0.00 413.00 282.00" xmlns="http://www.w3.org/2000/svg" xmlns:xlink="http://www.w3.org/1999/xlink">
<g id="graph0" class="graph" transform="scale(1 1) rotate(0) translate(4 278)">
<title>dependency&#45;cruiser output</title>
<polygon fill="white" stroke="transparent" points="-4,4 -4,-278 409,-278 409,4 -4,4"/>
<g id="clust1" class="cluster">
<title>cluster_src</title>
<path fill="#ffffff" stroke="black" stroke-width="2" d="M20,-8C20,-8 385,-8 385,-8 391,-8 397,-14 397,-20 397,-20 397,-254 397,-254 397,-260 391,-266 385,-266 385,-266 20,-266 20,-266 14,-266 8,-260 8,-254 8,-254 8,-20 8,-20 8,-14 14,-8 20,-8"/>
<text text-anchor="middle" x="202.5" y="-254.8" font-family="Helvetica,sans-Serif" font-weight="bold" font-size="9.00">src</text>
</g>
<g id="clust2" class="cluster">
<title>cluster_src/main</title>
<path fill="#ffffff" stroke="black" stroke-width="2" d="M28,-16C28,-16 377,-16 377,-16 383,-16 389,-22 389,-28 389,-28 389,-228 389,-228 389,-234 383,-240 377,-240 377,-240 28,-240 28,-240 22,-240 16,-234 16,-228 16,-228 16,-28 16,-28 16,-22 22,-16 28,-16"/>
<text text-anchor="middle" x="202.5" y="-228.8" font-family="Helvetica,sans-Serif" font-weight="bold" font-size="9.00">main</text>
</g>
<g id="clust4" class="cluster">
<title>cluster_src/main/options</title>
<path fill="#ffffff" stroke="black" stroke-width="2" d="M88,-24C88,-24 216,-24 216,-24 222,-24 228,-30 228,-36 228,-36 228,-116 228,-116 228,-122 222,-128 216,-128 216,-128 88,-128 88,-128 82,-128 76,-122 76,-116 76,-116 76,-36 76,-36 76,-30 82,-24 88,-24"/>
<text text-anchor="middle" x="152" y="-116.8" font-family="Helvetica,sans-Serif" font-weight="bold" font-size="9.00">options</text>
</g>
<g id="clust5" class="cluster">
<title>cluster_src/main/resolve&#45;options</title>
<path fill="#ffffff" stroke="black" stroke-width="2" d="M150,-136C150,-136 209,-136 209,-136 215,-136 221,-142 221,-148 221,-148 221,-176 221,-176 221,-182 215,-188 209,-188 209,-188 150,-188 150,-188 144,-188 138,-182 138,-176 138,-176 138,-148 138,-148 138,-142 144,-136 150,-136"/>
<text text-anchor="middle" x="179.5" y="-176.8" font-family="Helvetica,sans-Serif" font-weight="bold" font-size="9.00">resolve&#45;options</text>
</g>
<g id="clust6" class="cluster">
<title>cluster_src/main/rule&#45;set</title>
<path fill="#ffffff" stroke="black" stroke-width="2" d="M241,-136C241,-136 369,-136 369,-136 375,-136 381,-142 381,-148 381,-148 381,-176 381,-176 381,-182 375,-188 369,-188 369,-188 241,-188 241,-188 235,-188 229,-182 229,-176 229,-176 229,-148 229,-148 229,-142 235,-136 241,-136"/>
<text text-anchor="middle" x="305" y="-176.8" font-family="Helvetica,sans-Serif" font-weight="bold" font-size="9.00">rule&#45;set</text>
</g>
<g id="clust7" class="cluster">
<title>cluster_src/main/utl</title>
<path fill="#ffffff" stroke="black" stroke-width="2" d="M252,-24C252,-24 366,-24 366,-24 372,-24 378,-30 378,-36 378,-36 378,-64 378,-64 378,-70 372,-76 366,-76 366,-76 252,-76 252,-76 246,-76 240,-70 240,-64 240,-64 240,-36 240,-36 240,-30 246,-24 252,-24"/>
<text text-anchor="middle" x="309" y="-64.8" font-family="Helvetica,sans-Serif" font-weight="bold" font-size="9.00">utl</text>
</g>
<g id="clust3" class="cluster">
<title>cluster_src/main/files&#45;and&#45;dirs</title>
<path fill="#ffffff" stroke="black" stroke-width="2" d="M36,-136C36,-136 94,-136 94,-136 100,-136 106,-142 106,-148 106,-148 106,-176 106,-176 106,-182 100,-188 94,-188 94,-188 36,-188 36,-188 30,-188 24,-182 24,-176 24,-176 24,-148 24,-148 24,-142 30,-136 36,-136"/>
<text text-anchor="middle" x="65" y="-176.8" font-family="Helvetica,sans-Serif" font-weight="bold" font-size="9.00">files&#45;and&#45;dirs</text>
</g>
<!-- src/main/files&#45;and&#45;dirs/normalize.js -->
<g id="node1" class="node">
<title>src/main/files&#45;and&#45;dirs/normalize.js</title>
<g id="a_node1"><a xlink:href="src/main/files-and-dirs/normalize.js" xlink:title="normalize.js">
<path fill="#ffffcc" stroke="black" d="M92,-162C92,-162 38,-162 38,-162 35,-162 32,-159 32,-156 32,-156 32,-150 32,-150 32,-147 35,-144 38,-144 38,-144 92,-144 92,-144 95,-144 98,-147 98,-150 98,-150 98,-156 98,-156 98,-159 95,-162 92,-162"/>
<text text-anchor="middle" x="65" y="-150.8" font-family="Helvetica,sans-Serif" font-size="9.00">normalize.js</text>
</a>
</g>
</g>
<!-- src/main/index.js -->
<g id="node2" class="node">
<title>src/main/index.js</title>
<g id="a_node2"><a xlink:href="src/main/index.js" xlink:title="index.js">
<path fill="#ffffcc" stroke="black" d="M175,-214C175,-214 133,-214 133,-214 130,-214 127,-211 127,-208 127,-208 127,-202 127,-202 127,-199 130,-196 133,-196 133,-196 175,-196 175,-196 178,-196 181,-199 181,-202 181,-202 181,-208 181,-208 181,-211 178,-214 175,-214"/>
<text text-anchor="middle" x="154" y="-202.8" font-family="Helvetica,sans-Serif" font-size="9.00">index.js</text>
</a>
</g>
</g>
<!-- src/main/index.js&#45;&gt;src/main/files&#45;and&#45;dirs/normalize.js -->
<g id="edge1" class="edge">
<title>src/main/index.js&#45;&gt;src/main/files&#45;and&#45;dirs/normalize.js</title>
<path fill="none" stroke="#000000" stroke-width="2" stroke-opacity="0.200000" d="M126.87,-198.12C118.57,-195.68 109.62,-192.37 102,-188 92.29,-182.43 83.01,-173.89 76.18,-166.77"/>
<polygon fill="#000000" fill-opacity="0.200000" stroke="#000000" stroke-width="2" stroke-opacity="0.200000" points="77.48,-165.09 71.86,-162.12 74.4,-167.94 77.48,-165.09"/>
</g>
<!-- src/main/options/normalize.js -->
<g id="node3" class="node">
<title>src/main/options/normalize.js</title>
<g id="a_node3"><a xlink:href="src/main/options/normalize.js" xlink:title="normalize.js">
<path fill="#ffffcc" stroke="black" d="M144,-102C144,-102 90,-102 90,-102 87,-102 84,-99 84,-96 84,-96 84,-90 84,-90 84,-87 87,-84 90,-84 90,-84 144,-84 144,-84 147,-84 150,-87 150,-90 150,-90 150,-96 150,-96 150,-99 147,-102 144,-102"/>
<text text-anchor="middle" x="117" y="-90.8" font-family="Helvetica,sans-Serif" font-size="9.00">normalize.js</text>
</a>
</g>
</g>
<!-- src/main/index.js&#45;&gt;src/main/options/normalize.js -->
<g id="edge2" class="edge">
<title>src/main/index.js&#45;&gt;src/main/options/normalize.js</title>
<path fill="none" stroke="#000000" stroke-width="2" stroke-opacity="0.200000" d="M133.2,-195.9C129.99,-193.79 127.07,-191.18 125,-188 109.14,-163.56 111.46,-127.7 114.35,-108.09"/>
<polygon fill="#000000" fill-opacity="0.200000" stroke="#000000" stroke-width="2" stroke-opacity="0.200000" points="116.43,-108.36 115.33,-102.1 112.29,-107.68 116.43,-108.36"/>
</g>
<!-- src/main/options/validate.js -->
<g id="node4" class="node">
<title>src/main/options/validate.js</title>
<g id="a_node4"><a xlink:href="src/main/options/validate.js" xlink:title="validate.js">
<path fill="#ffffcc" stroke="black" d="M214,-102C214,-102 168,-102 168,-102 165,-102 162,-99 162,-96 162,-96 162,-90 162,-90 162,-87 165,-84 168,-84 168,-84 214,-84 214,-84 217,-84 220,-87 220,-90 220,-90 220,-96 220,-96 220,-99 217,-102 214,-102"/>
<text text-anchor="middle" x="191" y="-90.8" font-family="Helvetica,sans-Serif" font-size="9.00">validate.js</text>
</a>
</g>
</g>
<!-- src/main/index.js&#45;&gt;src/main/options/validate.js -->
<g id="edge3" class="edge">
<title>src/main/index.js&#45;&gt;src/main/options/validate.js</title>
<path fill="none" stroke="#000000" stroke-width="2" stroke-opacity="0.200000" d="M141.08,-195.8C138.62,-193.59 136.38,-190.97 135,-188 125.25,-167.05 121.89,-155.03 135,-136 140.67,-127.78 147.58,-133.37 156,-128 165.05,-122.23 173.72,-113.84 180.17,-106.84"/>
<polygon fill="#000000" fill-opacity="0.200000" stroke="#000000" stroke-width="2" stroke-opacity="0.200000" points="181.82,-108.13 184.25,-102.26 178.69,-105.34 181.82,-108.13"/>
</g>
<!-- src/main/resolve&#45;options/normalize.js -->
<g id="node5" class="node">
<title>src/main/resolve&#45;options/normalize.js</title>
<g id="a_node5"><a xlink:href="src/main/resolve-options/normalize.js" xlink:title="normalize.js">
<path fill="#ffffcc" stroke="black" d="M206,-162C206,-162 152,-162 152,-162 149,-162 146,-159 146,-156 146,-156 146,-150 146,-150 146,-147 149,-144 152,-144 152,-144 206,-144 206,-144 209,-144 212,-147 212,-150 212,-150 212,-156 212,-156 212,-159 209,-162 206,-162"/>
<text text-anchor="middle" x="179" y="-150.8" font-family="Helvetica,sans-Serif" font-size="9.00">normalize.js</text>
</a>
</g>
</g>
<!-- src/main/index.js&#45;&gt;src/main/resolve&#45;options/normalize.js -->
<g id="edge4" class="edge">
<title>src/main/index.js&#45;&gt;src/main/resolve&#45;options/normalize.js</title>
<path fill="none" stroke="#000000" stroke-width="2" stroke-opacity="0.200000" d="M158.13,-195.74C161.95,-188.1 167.71,-176.59 172.21,-167.59"/>
<polygon fill="#000000" fill-opacity="0.200000" stroke="#000000" stroke-width="2" stroke-opacity="0.200000" points="174.14,-168.41 174.95,-162.1 170.39,-166.53 174.14,-168.41"/>
</g>
<!-- src/main/rule&#45;set/normalize.js -->
<g id="node6" class="node">
<title>src/main/rule&#45;set/normalize.js</title>
<g id="a_node6"><a xlink:href="src/main/rule-set/normalize.js" xlink:title="normalize.js">
<path fill="#ffffcc" stroke="black" d="M367,-162C367,-162 313,-162 313,-162 310,-162 307,-159 307,-156 307,-156 307,-150 307,-150 307,-147 310,-144 313,-144 313,-144 367,-144 367,-144 370,-144 373,-147 373,-150 373,-150 373,-156 373,-156 373,-159 370,-162 367,-162"/>
<text text-anchor="middle" x="340" y="-150.8" font-family="Helvetica,sans-Serif" font-size="9.00">normalize.js</text>
</a>
</g>
</g>
<!-- src/main/index.js&#45;&gt;src/main/rule&#45;set/normalize.js -->
<g id="edge5" class="edge">
<title>src/main/index.js&#45;&gt;src/main/rule&#45;set/normalize.js</title>
<path fill="none" stroke="#000000" stroke-width="2" stroke-opacity="0.200000" d="M181.1,-202.99C217.53,-201.3 280.13,-197.14 301,-188 312.04,-183.17 322.22,-174.06 329.41,-166.49"/>
<polygon fill="#000000" fill-opacity="0.200000" stroke="#000000" stroke-width="2" stroke-opacity="0.200000" points="330.99,-167.87 333.48,-162.03 327.88,-165.04 330.99,-167.87"/>
</g>
<!-- src/main/rule&#45;set/validate.js -->
<g id="node7" class="node">
<title>src/main/rule&#45;set/validate.js</title>
<g id="a_node7"><a xlink:href="src/main/rule-set/validate.js" xlink:title="validate.js">
<path fill="#ffffcc" stroke="black" d="M289,-162C289,-162 243,-162 243,-162 240,-162 237,-159 237,-156 237,-156 237,-150 237,-150 237,-147 240,-144 243,-144 243,-144 289,-144 289,-144 292,-144 295,-147 295,-150 295,-150 295,-156 295,-156 295,-159 292,-162 289,-162"/>
<text text-anchor="middle" x="266" y="-150.8" font-family="Helvetica,sans-Serif" font-size="9.00">validate.js</text>
</a>
</g>
</g>
<!-- src/main/index.js&#45;&gt;src/main/rule&#45;set/validate.js -->
<g id="edge6" class="edge">
<title>src/main/index.js&#45;&gt;src/main/rule&#45;set/validate.js</title>
<path fill="none" stroke="#000000" stroke-width="2" stroke-opacity="0.200000" d="M181.22,-200.73C194.6,-198.4 210.66,-194.49 224,-188 235.04,-182.63 245.77,-173.87 253.62,-166.58"/>
<polygon fill="#000000" fill-opacity="0.200000" stroke="#000000" stroke-width="2" stroke-opacity="0.200000" points="255.23,-167.95 258.11,-162.28 252.32,-164.92 255.23,-167.95"/>
</g>
<!-- src/main/options/defaults.json -->
<g id="node8" class="node">
<title>src/main/options/defaults.json</title>
<g id="a_node8"><a xlink:href="src/main/options/defaults.json" xlink:title="defaults.json">
<path fill="#ffee44" stroke="black" d="M146,-50C146,-50 90,-50 90,-50 87,-50 84,-47 84,-44 84,-44 84,-38 84,-38 84,-35 87,-32 90,-32 90,-32 146,-32 146,-32 149,-32 152,-35 152,-38 152,-38 152,-44 152,-44 152,-47 149,-50 146,-50"/>
<text text-anchor="middle" x="118" y="-38.8" font-family="Helvetica,sans-Serif" font-size="9.00">defaults.json</text>
</a>
</g>
</g>
<!-- src/main/options/normalize.js&#45;&gt;src/main/options/defaults.json -->
<g id="edge8" class="edge">
<title>src/main/options/normalize.js&#45;&gt;src/main/options/defaults.json</title>
<path fill="none" stroke="#000000" stroke-width="2" stroke-opacity="0.200000" d="M117.17,-83.74C117.32,-76.24 117.54,-65.02 117.72,-56.1"/>
<polygon fill="#000000" fill-opacity="0.200000" stroke="#000000" stroke-width="2" stroke-opacity="0.200000" points="119.82,-56.14 117.84,-50.1 115.62,-56.06 119.82,-56.14"/>
</g>
<!-- src/main/utl/normalize&#45;re&#45;properties.js -->
<g id="node9" class="node">
<title>src/main/utl/normalize&#45;re&#45;properties.js</title>
<g id="a_node9"><a xlink:href="src/main/utl/normalize-re-properties.js" xlink:title="normalize&#45;re&#45;properties.js">
<path fill="#ffffcc" stroke="black" d="M364,-50C364,-50 254,-50 254,-50 251,-50 248,-47 248,-44 248,-44 248,-38 248,-38 248,-35 251,-32 254,-32 254,-32 364,-32 364,-32 367,-32 370,-35 370,-38 370,-38 370,-44 370,-44 370,-47 367,-50 364,-50"/>
<text text-anchor="middle" x="309" y="-38.8" font-family="Helvetica,sans-Serif" font-size="9.00">normalize&#45;re&#45;properties.js</text>
</a>
</g>
</g>
<!-- src/main/options/normalize.js&#45;&gt;src/main/utl/normalize&#45;re&#45;properties.js -->
<g id="edge7" class="edge">
<title>src/main/options/normalize.js&#45;&gt;src/main/utl/normalize&#45;re&#45;properties.js</title>
<path fill="none" stroke="#000000" stroke-width="2" stroke-opacity="0.200000" d="M150.15,-84.97C152.13,-84.63 154.09,-84.3 156,-84 189.12,-78.85 198.59,-84.57 231,-76 251.48,-70.58 273.49,-60.57 288.89,-52.8"/>
<polygon fill="#000000" fill-opacity="0.200000" stroke="#000000" stroke-width="2" stroke-opacity="0.200000" points="289.86,-54.66 294.25,-50.06 287.95,-50.92 289.86,-54.66"/>
</g>
<!-- src/main/rule&#45;set/normalize.js&#45;&gt;src/main/utl/normalize&#45;re&#45;properties.js -->
<g id="edge9" class="edge">
<title>src/main/rule&#45;set/normalize.js&#45;&gt;src/main/utl/normalize&#45;re&#45;properties.js</title>
<path fill="none" stroke="#000000" stroke-width="2" stroke-opacity="0.200000" d="M337.67,-143.73C332.39,-125.01 319.48,-79.19 312.94,-55.97"/>
<polygon fill="#000000" fill-opacity="0.200000" stroke="#000000" stroke-width="2" stroke-opacity="0.200000" points="314.92,-55.27 311.27,-50.06 310.88,-56.41 314.92,-55.27"/>
</g>
<!-- src/main/rule&#45;set/validate.js&#45;&gt;src/main/options/validate.js -->
<g id="edge10" class="edge">
<title>src/main/rule&#45;set/validate.js&#45;&gt;src/main/options/validate.js</title>
<path fill="none" stroke="#000000" stroke-width="2" stroke-opacity="0.200000" d="M255.57,-143.94C242.95,-134.18 221.58,-117.65 206.9,-106.3"/>
<polygon fill="#000000" fill-opacity="0.200000" stroke="#000000" stroke-width="2" stroke-opacity="0.200000" points="207.86,-104.38 201.83,-102.37 205.29,-107.7 207.86,-104.38"/>
</g>
</g>
</svg>
