<svg xmlns="http://www.w3.org/2000/svg" xmlns:xlink="http://www.w3.org/1999/xlink" width="728" height="290pt" viewBox="0 0 546 289.75"><g class="graph" transform="translate(4 285.75)"><path fill="#fff" d="M-4 4v-289.75h546V4H-4z"/><g class="cluster"><path fill="#fff" stroke="#000" stroke-width="2" d="M20-8h498c6 0 12-6 12-12v-241.75c0-6-6-12-12-12H20c-6 0-12 6-12 12V-20c0 6 6 12 12 12"/><text x="269" y="-261.2" font-family="Helvetica,sans-Serif" font-size="9" font-weight="bold" text-anchor="middle">src</text></g><g class="cluster"><path fill="#fff" stroke="#000" stroke-width="2" d="M28-16h482c6 0 12-6 12-12v-208c0-6-6-12-12-12H28c-6 0-12 6-12 12v208c0 6 6 12 12 12"/><text x="269" y="-235.45" font-family="Helvetica,sans-Serif" font-size="9" font-weight="bold" text-anchor="middle">main</text></g><g class="cluster"><path fill="#fff" stroke="#000" stroke-width="2" d="M234-114.25h66c6 0 12-6 12-12v-27.5c0-6-6-12-12-12h-66c-6 0-12 6-12 12v27.5c0 6 6 12 12 12"/><text x="267" y="-153.2" font-family="Helvetica,sans-Serif" font-size="9" font-weight="bold" text-anchor="middle">files-and-dirs</text></g><g class="cluster"><path fill="#fff" stroke="#000" stroke-width="2" d="M229-24h166c6 0 12-6 12-12v-58.25c0-6-6-12-12-12H229c-6 0-12 6-12 12V-36c0 6 6 12 12 12"/><text x="312" y="-93.7" font-family="Helvetica,sans-Serif" font-size="9" font-weight="bold" text-anchor="middle">options</text></g><g class="cluster"><path fill="#fff" stroke="#000" stroke-width="2" d="M356-114.25h66c6 0 12-6 12-12v-27.5c0-6-6-12-12-12h-66c-6 0-12 6-12 12v27.5c0 6 6 12 12 12"/><text x="389" y="-153.2" font-family="Helvetica,sans-Serif" font-size="9" font-weight="bold" text-anchor="middle">resolve-options</text></g><g class="cluster"><path fill="#fff" stroke="#000" stroke-width="2" d="M36-114.25h166c6 0 12-6 12-12v-27.5c0-6-6-12-12-12H36c-6 0-12 6-12 12v27.5c0 6 6 12 12 12"/><text x="119" y="-153.2" font-family="Helvetica,sans-Serif" font-size="9" font-weight="bold" text-anchor="middle">rule-set</text></g><g class="node"><a xlink:href="src/main/cruise.mjs" xlink:title="cruise.mjs"><path fill="#ffc" stroke="#000" d="M350.71-191.5h-45.42c-2.96 0-5.91 2.96-5.91 5.92v5.91c0 2.96 2.95 5.92 5.91 5.92h45.42c2.96 0 5.91-2.96 5.91-5.92v-5.91c0-2.96-2.95-5.92-5.91-5.92"/><text x="307.38" y="-178.95" font-family="Helvetica,sans-Serif" font-size="9">cruise.mjs</text></a></g><g class="node"><a xlink:href="src/main/files-and-dirs/normalize.mjs" xlink:title="normalize.mjs"><path fill="#ffc" stroke="#000" d="M297.58-140h-61.16c-2.96 0-5.92 2.96-5.92 5.92v5.91c0 2.96 2.96 5.92 5.92 5.92h61.16c2.96 0 5.92-2.96 5.92-5.92v-5.91c0-2.96-2.96-5.92-5.92-5.92"/><text x="238.5" y="-127.45" font-family="Helvetica,sans-Serif" font-size="9">normalize.mjs</text></a></g><g class="edge"><path fill="none" stroke="#000" stroke-dasharray="5,2" stroke-opacity=".2" stroke-width="2" d="M317.39-173.25c-3.04 2.41-6.35 5.05-9.39 7.5a3371.75 3371.75 0 0 0-24.09 19.66"/><path fill-opacity=".2" stroke="#000" stroke-opacity=".2" stroke-width="2" d="m285.38-144.58-5.97 2.19 3.29-5.43 2.68 3.24z"/></g><g class="node"><a xlink:href="src/main/options/assert-validity.mjs" xlink:title="assert-validity.mjs"><path fill="#ffc" stroke="#000" d="M307.46-80.5h-76.92c-2.96 0-5.92 2.96-5.92 5.92v5.91c0 2.96 2.96 5.92 5.92 5.92h76.92c2.96 0 5.92-2.96 5.92-5.92v-5.91c0-2.96-2.96-5.92-5.92-5.92"/><text x="232.62" y="-67.95" font-family="Helvetica,sans-Serif" font-size="9">assert-validity.mjs</text></a></g><g class="edge"><path fill="none" stroke="#000" stroke-opacity=".2" stroke-width="2" d="M326.71-173.35c-2.68 16.85-8.83 53.99-11.71 59.1-6.26 11.11-16.56 20.84-25.83 28.1"/><path fill-opacity=".2" stroke="#000" stroke-opacity=".2" stroke-width="2" d="m290.56-84.57-6.08 1.88 3.58-5.25 2.5 3.37z"/></g><g class="node"><a xlink:href="src/main/options/normalize.mjs" xlink:title="normalize.mjs"><path fill="#ffc" stroke="#000" d="M392.58-80.5h-61.16c-2.96 0-5.92 2.96-5.92 5.92v5.91c0 2.96 2.96 5.92 5.92 5.92h61.16c2.96 0 5.92-2.96 5.92-5.92v-5.91c0-2.96-2.96-5.92-5.92-5.92"/><text x="333.5" y="-67.95" font-family="Helvetica,sans-Serif" font-size="9">normalize.mjs</text></a></g><g class="edge"><path fill="none" stroke="#000" stroke-opacity=".2" stroke-width="2" d="M328.83-173.56c1.47 12.84 5.09 38.57 12.17 59.31 3.03 8.89 7.63 18.27 11.75 25.87"/><path fill-opacity=".2" stroke="#000" stroke-opacity=".2" stroke-width="2" d="m354.34-89.83 1.12 6.26-4.78-4.2 3.66-2.06z"/></g><g class="node"><a xlink:href="src/main/report-wrap.mjs" xlink:title="report-wrap.mjs"><path fill="#ffc" stroke="#000" d="M505.96-80.5h-67.92c-2.96 0-5.92 2.96-5.92 5.92v5.91c0 2.96 2.96 5.92 5.92 5.92h67.92c2.96 0 5.92-2.96 5.92-5.92v-5.91c0-2.96-2.96-5.92-5.92-5.92"/><text x="440.12" y="-67.95" font-family="Helvetica,sans-Serif" font-size="9">report-wrap.mjs</text></a></g><g class="edge"><path fill="none" stroke="#000" stroke-opacity=".2" stroke-width="2" d="M356.92-181.14c47.85 1.11 139.24 4.63 149.08 15.39 15.45 16.89 7.69 29.94 0 51.5-3.69 10.36-11.2 20.01-18.22 27.4"/><path fill-opacity=".2" stroke="#000" stroke-opacity=".2" stroke-width="2" d="m489.49-85.59-5.74 2.73 2.79-5.71 2.95 2.98z"/></g><g class="node"><a xlink:href="src/main/resolve-options/normalize.mjs" xlink:title="normalize.mjs"><path fill="#ffc" stroke="#000" d="M419.58-140h-61.16c-2.96 0-5.92 2.96-5.92 5.92v5.91c0 2.96 2.96 5.92 5.92 5.92h61.16c2.96 0 5.92-2.96 5.92-5.92v-5.91c0-2.96-2.96-5.92-5.92-5.92"/><text x="360.5" y="-127.45" font-family="Helvetica,sans-Serif" font-size="9">normalize.mjs</text></a></g><g class="edge"><path fill="none" stroke="#000" stroke-dasharray="5,2" stroke-opacity=".2" stroke-width="2" d="M339.2-173.33c3.19 2.41 6.66 5.07 9.8 7.58 7.98 6.36 16.67 13.63 23.91 19.77"/><path fill-opacity=".2" stroke="#000" stroke-opacity=".2" stroke-width="2" d="m374.08-147.74 3.2 5.49-5.93-2.3 2.73-3.19z"/></g><g class="node"><a xlink:href="src/main/rule-set/assert-validity.mjs" xlink:title="assert-validity.mjs"><path fill="#ffc" stroke="#000" d="M200.46-140h-76.92c-2.96 0-5.92 2.96-5.92 5.92v5.91c0 2.96 2.96 5.92 5.92 5.92h76.92c2.96 0 5.92-2.96 5.92-5.92v-5.91c0-2.96-2.96-5.92-5.92-5.92"/><text x="125.62" y="-127.45" font-family="Helvetica,sans-Serif" font-size="9">assert-validity.mjs</text></a></g><g class="edge"><path fill="none" stroke="#000" stroke-dasharray="5,2" stroke-opacity=".2" stroke-width="2" d="M299.04-180.46c-22.39 1.63-53.89 5.49-80.04 14.71-13.78 4.85-27.93 13.18-38.69 20.33"/><path fill-opacity=".2" stroke="#000" stroke-opacity=".2" stroke-width="2" d="m181.77-143.87-6.14 1.67 3.76-5.13 2.38 3.46z"/></g><g class="node"><a xlink:href="src/main/rule-set/normalize.mjs" xlink:title="normalize.mjs"><path fill="#ffc" stroke="#000" d="M99.58-140H38.42c-2.96 0-5.92 2.96-5.92 5.92v5.91c0 2.96 2.96 5.92 5.92 5.92h61.16c2.96 0 5.92-2.96 5.92-5.92v-5.91c0-2.96-2.96-5.92-5.92-5.92"/><text x="40.5" y="-127.45" font-family="Helvetica,sans-Serif" font-size="9">normalize.mjs</text></a></g><g class="edge"><path fill="none" stroke="#000" stroke-dasharray="5,2" stroke-opacity=".2" stroke-width="2" d="M298.98-181.57c-50.82.44-153.66 2.95-186.98 15.82-10.83 4.18-21.14 12.06-28.95 19.14"/><path fill-opacity=".2" stroke="#000" stroke-opacity=".2" stroke-width="2" d="m84.61-145.19-5.79 2.63 2.88-5.66 2.91 3.03z"/></g><g class="node"><a xlink:href="src/main/helpers.mjs" xlink:title="helpers.mjs"><path fill="#ffc" stroke="#000" d="M187.71-49.75h-51.42c-2.96 0-5.91 2.96-5.91 5.92v5.91c0 2.96 2.95 5.92 5.91 5.92h51.42c2.96 0 5.91-2.96 5.91-5.92v-5.91c0-2.96-2.95-5.92-5.91-5.92"/><text x="138.38" y="-37.2" font-family="Helvetica,sans-Serif" font-size="9">helpers.mjs</text></a></g><g class="edge"><path fill="none" stroke="#000" stroke-opacity=".2" stroke-width="2" d="M325.43-63.78c-2.17.36-4.33.71-6.43 1.03-46.48 7.13-58.42 6.59-105 13-3.66.5-7.47 1.05-11.28 1.6"/><path fill-opacity=".2" stroke="#000" stroke-opacity=".2" stroke-width="2" d="m203.12-46.09-6.25-1.2 5.63-2.95.62 4.15z"/></g><g class="node"><a xlink:href="src/main/options/defaults.mjs" xlink:title="defaults.mjs"><path fill="#ffc" stroke="#000" d="M388.46-49.75h-52.92c-2.96 0-5.92 2.96-5.92 5.92v5.91c0 2.96 2.96 5.92 5.92 5.92h52.92c2.96 0 5.92-2.96 5.92-5.92v-5.91c0-2.96-2.96-5.92-5.92-5.92"/><text x="337.62" y="-37.2" font-family="Helvetica,sans-Serif" font-size="9">defaults.mjs</text></a></g><g class="edge"><path fill="none" stroke="#000" stroke-opacity=".2" stroke-width="2" d="M362-62.46v3.39"/><path fill-opacity=".2" stroke="#000" stroke-opacity=".2" stroke-width="2" d="m364.1-59.18-2.1 6-2.1-6h4.2z"/></g><g class="edge"><path fill="none" stroke="#000" stroke-opacity=".2" stroke-width="2" d="M186.1-121.79c10.92 4.13 23.83 9.53 34.9 15.54 10.65 5.79 21.78 13.47 30.64 20.03"/><path fill-opacity=".2" stroke="#000" stroke-opacity=".2" stroke-width="2" d="m252.84-87.95 3.52 5.3-6.06-1.95 2.54-3.35z"/></g><g class="edge"><path fill="none" stroke="#000" stroke-opacity=".2" stroke-width="2" d="M162-121.98v62.95"/><path fill-opacity=".2" stroke="#000" stroke-opacity=".2" stroke-width="2" d="m164.1-59.03-2.1 6-2.1-6h4.2z"/></g><g class="edge"><path fill="none" stroke="#000" stroke-opacity=".2" stroke-width="2" d="M77.58-121.98c15.85 15.04 49.88 47.33 69.55 66"/><path fill-opacity=".2" stroke="#000" stroke-opacity=".2" stroke-width="2" d="m148.34-57.74 2.9 5.66-5.8-2.61 2.9-3.05z"/></g><g class="node"><a xlink:href="src/main/format.mjs" xlink:title="format.mjs"><path fill="#ffc" stroke="#000" d="M494.08-140h-46.16c-2.96 0-5.92 2.96-5.92 5.92v5.91c0 2.96 2.96 5.92 5.92 5.92h46.16c2.96 0 5.92-2.96 5.92-5.92v-5.91c0-2.96-2.96-5.92-5.92-5.92"/><text x="450" y="-127.45" font-family="Helvetica,sans-Serif" font-size="9">format.mjs</text></a></g><g class="edge"><path fill="none" stroke="#000" stroke-opacity=".2" stroke-width="2" d="M456.21-121.77c-5.81 2.89-12.65 5.83-19.21 7.52-50.47 13.02-67.62-8.67-117 8-12.69 4.28-25.26 12.52-34.75 19.77"/><path fill-opacity=".2" stroke="#000" stroke-opacity=".2" stroke-width="2" d="m286.72-84.97-6 2.11 3.38-5.39 2.62 3.28z"/></g><g class="edge"><path fill="none" stroke="#000" stroke-opacity=".2" stroke-width="2" d="M455.03-121.84c-5.6 2.68-12 5.5-18.03 7.59-14.67 5.09-20.08 1.12-34 8-9.98 4.93-19.69 12.71-27.15 19.55"/><path fill-opacity=".2" stroke="#000" stroke-opacity=".2" stroke-width="2" d="m377.66-85.53-5.78 2.63 2.88-5.66 2.9 3.03z"/></g><g class="edge"><path fill="none" stroke="#000" stroke-opacity=".2" stroke-width="2" d="M471.14-122.13c.14 8.32.37 21.59.56 32.31"/><path fill-opacity=".2" stroke="#000" stroke-opacity=".2" stroke-width="2" d="m473.8-89.99-2 6.04-2.2-5.96 4.2-.08z"/></g><g class="node"><a xlink:href="src/main/index.d.ts" xlink:title="index.d.ts"><path fill="#cfc" stroke="#000" d="M489.58-222.25h-43.16c-2.96 0-5.92 2.96-5.92 5.92v5.91c0 2.96 2.96 5.92 5.92 5.92h43.16c2.96 0 5.92-2.96 5.92-5.92v-5.91c0-2.96-2.96-5.92-5.92-5.92"/><text x="448.5" y="-209.7" font-family="Helvetica,sans-Serif" font-size="9">index.d.ts</text></a></g><g class="node"><a xlink:href="src/main/index.mjs" xlink:title="index.mjs"><path fill="#ffc" stroke="#000" d="M373.58-222.25h-43.16c-2.96 0-5.92 2.96-5.92 5.92v5.91c0 2.96 2.96 5.92 5.92 5.92h43.16c2.96 0 5.92-2.96 5.92-5.92v-5.91c0-2.96-2.96-5.92-5.92-5.92"/><text x="332.5" y="-209.7" font-family="Helvetica,sans-Serif" font-size="9">index.mjs</text></a></g><g class="edge"><path fill="none" stroke="#000" stroke-opacity=".2" stroke-width="2" d="M345.19-204.21c-1.51 1.8-3.15 3.77-4.8 5.75"/><path fill-opacity=".2" stroke="#000" stroke-opacity=".2" stroke-width="2" d="m342.31-197.49-5.46 3.26 2.24-5.95 3.22 2.69z"/></g><g class="edge"><path fill="none" stroke="#000" stroke-opacity=".2" stroke-width="2" d="M370.46-204.1c17.84 8.42 45.22 22.45 66.54 38.35 7.53 5.61 15.04 12.83 21.08 19.14"/><path fill-opacity=".2" stroke="#000" stroke-opacity=".2" stroke-width="2" d="m459.39-148.29 2.54 5.83-5.62-2.97 3.08-2.86z"/></g></g></svg>