<?xml version="1.0" encoding="UTF-8" standalone="no"?>
<!DOCTYPE svg PUBLIC "-//W3C//DTD SVG 1.1//EN"
 "http://www.w3.org/Graphics/SVG/1.1/DTD/svg11.dtd">
<!-- Generated by graphviz version 2.44.0 (20200408.0750)
 -->
<!-- Title: dependency&#45;cruiser output Pages: 1 -->
<svg width="413pt" height="264pt"
 viewBox="0.00 0.00 413.00 264.00" xmlns="http://www.w3.org/2000/svg" xmlns:xlink="http://www.w3.org/1999/xlink">
<g id="graph0" class="graph" transform="scale(1 1) rotate(0) translate(4 260)">
<title>dependency&#45;cruiser output</title>
<polygon fill="white" stroke="transparent" points="-4,4 -4,-260 409,-260 409,4 -4,4"/>
<g id="clust1" class="cluster">
<title>cluster_src</title>
<path fill="#ffffff" stroke="black" stroke-width="2" d="M20,-8C20,-8 385,-8 385,-8 391,-8 397,-14 397,-20 397,-20 397,-236 397,-236 397,-242 391,-248 385,-248 385,-248 20,-248 20,-248 14,-248 8,-242 8,-236 8,-236 8,-20 8,-20 8,-14 14,-8 20,-8"/>
<text text-anchor="middle" x="202.5" y="-236.8" font-family="Helvetica,sans-Serif" font-weight="bold" font-size="9.00">src</text>
</g>
<g id="clust2" class="cluster">
<title>cluster_src/main</title>
<path fill="#ffffff" stroke="black" stroke-width="2" d="M28,-16C28,-16 377,-16 377,-16 383,-16 389,-22 389,-28 389,-28 389,-210 389,-210 389,-216 383,-222 377,-222 377,-222 28,-222 28,-222 22,-222 16,-216 16,-210 16,-210 16,-28 16,-28 16,-22 22,-16 28,-16"/>
<text text-anchor="middle" x="202.5" y="-210.8" font-family="Helvetica,sans-Serif" font-weight="bold" font-size="9.00">main</text>
</g>
<g id="clust3" class="cluster">
<title>cluster_src/main/files&#45;and&#45;dirs</title>
<path fill="#ffffff" stroke="black" stroke-width="2" d="M36,-118C36,-118 94,-118 94,-118 100,-118 106,-124 106,-130 106,-130 106,-158 106,-158 106,-164 100,-170 94,-170 94,-170 36,-170 36,-170 30,-170 24,-164 24,-158 24,-158 24,-130 24,-130 24,-124 30,-118 36,-118"/>
<text text-anchor="middle" x="65" y="-158.8" font-family="Helvetica,sans-Serif" font-weight="bold" font-size="9.00">files&#45;and&#45;dirs</text>
</g>
<g id="clust4" class="cluster">
<title>cluster_src/main/options</title>
<path fill="#ffffff" stroke="black" stroke-width="2" d="M86,-24C86,-24 214,-24 214,-24 220,-24 226,-30 226,-36 226,-36 226,-98 226,-98 226,-104 220,-110 214,-110 214,-110 86,-110 86,-110 80,-110 74,-104 74,-98 74,-98 74,-36 74,-36 74,-30 80,-24 86,-24"/>
<text text-anchor="middle" x="150" y="-98.8" font-family="Helvetica,sans-Serif" font-weight="bold" font-size="9.00">options</text>
</g>
<g id="clust5" class="cluster">
<title>cluster_src/main/resolve&#45;options</title>
<path fill="#ffffff" stroke="black" stroke-width="2" d="M150,-118C150,-118 209,-118 209,-118 215,-118 221,-124 221,-130 221,-130 221,-158 221,-158 221,-164 215,-170 209,-170 209,-170 150,-170 150,-170 144,-170 138,-164 138,-158 138,-158 138,-130 138,-130 138,-124 144,-118 150,-118"/>
<text text-anchor="middle" x="179.5" y="-158.8" font-family="Helvetica,sans-Serif" font-weight="bold" font-size="9.00">resolve&#45;options</text>
</g>
<g id="clust6" class="cluster">
<title>cluster_src/main/rule&#45;set</title>
<path fill="#ffffff" stroke="black" stroke-width="2" d="M241,-118C241,-118 369,-118 369,-118 375,-118 381,-124 381,-130 381,-130 381,-158 381,-158 381,-164 375,-170 369,-170 369,-170 241,-170 241,-170 235,-170 229,-164 229,-158 229,-158 229,-130 229,-130 229,-124 235,-118 241,-118"/>
<text text-anchor="middle" x="305" y="-158.8" font-family="Helvetica,sans-Serif" font-weight="bold" font-size="9.00">rule&#45;set</text>
</g>
<g id="clust7" class="cluster">
<title>cluster_src/main/utl</title>
<path fill="#ffffff" stroke="black" stroke-width="2" d="M255,-58C255,-58 369,-58 369,-58 375,-58 381,-64 381,-70 381,-70 381,-98 381,-98 381,-104 375,-110 369,-110 369,-110 255,-110 255,-110 249,-110 243,-104 243,-98 243,-98 243,-70 243,-70 243,-64 249,-58 255,-58"/>
<text text-anchor="middle" x="312" y="-98.8" font-family="Helvetica,sans-Serif" font-weight="bold" font-size="9.00">utl</text>
</g>
<!-- src/main/files&#45;and&#45;dirs/normalize.js -->
<g id="node1" class="node">
<title>src/main/files&#45;and&#45;dirs/normalize.js</title>
<g id="a_node1"><a xlink:href="src/main/files-and-dirs/normalize.js" xlink:title="normalize.js">
<path fill="#ffffcc" stroke="black" d="M92,-144C92,-144 38,-144 38,-144 35,-144 32,-141 32,-138 32,-138 32,-132 32,-132 32,-129 35,-126 38,-126 38,-126 92,-126 92,-126 95,-126 98,-129 98,-132 98,-132 98,-138 98,-138 98,-141 95,-144 92,-144"/>
<text text-anchor="middle" x="65" y="-132.8" font-family="Helvetica,sans-Serif" font-size="9.00">normalize.js</text>
</a>
</g>
</g>
<!-- src/main/index.js -->
<g id="node2" class="node">
<title>src/main/index.js</title>
<g id="a_node2"><a xlink:href="src/main/index.js" xlink:title="index.js">
<path fill="#ffffcc" stroke="black" d="M175,-196C175,-196 133,-196 133,-196 130,-196 127,-193 127,-190 127,-190 127,-184 127,-184 127,-181 130,-178 133,-178 133,-178 175,-178 175,-178 178,-178 181,-181 181,-184 181,-184 181,-190 181,-190 181,-193 178,-196 175,-196"/>
<text text-anchor="middle" x="154" y="-184.8" font-family="Helvetica,sans-Serif" font-size="9.00">index.js</text>
</a>
</g>
</g>
<!-- src/main/index.js&#45;&gt;src/main/files&#45;and&#45;dirs/normalize.js -->
<g id="edge1" class="edge">
<title>src/main/index.js&#45;&gt;src/main/files&#45;and&#45;dirs/normalize.js</title>
<path fill="none" stroke="#000000" stroke-width="2" stroke-opacity="0.200000" d="M126.87,-180.12C118.57,-177.68 109.62,-174.37 102,-170 92.29,-164.43 83.01,-155.89 76.18,-148.77"/>
<polygon fill="#000000" fill-opacity="0.200000" stroke="#000000" stroke-width="2" stroke-opacity="0.200000" points="77.48,-147.09 71.86,-144.12 74.4,-149.94 77.48,-147.09"/>
</g>
<!-- src/main/options/normalize.js -->
<g id="node3" class="node">
<title>src/main/options/normalize.js</title>
<g id="a_node3"><a xlink:href="src/main/options/normalize.js" xlink:title="normalize.js">
<path fill="#ffffcc" stroke="black" d="M142,-84C142,-84 88,-84 88,-84 85,-84 82,-81 82,-78 82,-78 82,-72 82,-72 82,-69 85,-66 88,-66 88,-66 142,-66 142,-66 145,-66 148,-69 148,-72 148,-72 148,-78 148,-78 148,-81 145,-84 142,-84"/>
<text text-anchor="middle" x="115" y="-72.8" font-family="Helvetica,sans-Serif" font-size="9.00">normalize.js</text>
</a>
</g>
</g>
<!-- src/main/index.js&#45;&gt;src/main/options/normalize.js -->
<g id="edge2" class="edge">
<title>src/main/index.js&#45;&gt;src/main/options/normalize.js</title>
<path fill="none" stroke="#000000" stroke-width="2" stroke-opacity="0.200000" d="M131.48,-177.94C128.17,-175.83 125.16,-173.22 123,-170 106.8,-145.78 109.25,-109.83 112.26,-90.15"/>
<polygon fill="#000000" fill-opacity="0.200000" stroke="#000000" stroke-width="2" stroke-opacity="0.200000" points="114.34,-90.4 113.27,-84.14 110.2,-89.71 114.34,-90.4"/>
</g>
<!-- src/main/options/validate.js -->
<g id="node4" class="node">
<title>src/main/options/validate.js</title>
<g id="a_node4"><a xlink:href="src/main/options/validate.js" xlink:title="validate.js">
<path fill="#ffffcc" stroke="black" d="M212,-84C212,-84 166,-84 166,-84 163,-84 160,-81 160,-78 160,-78 160,-72 160,-72 160,-69 163,-66 166,-66 166,-66 212,-66 212,-66 215,-66 218,-69 218,-72 218,-72 218,-78 218,-78 218,-81 215,-84 212,-84"/>
<text text-anchor="middle" x="189" y="-72.8" font-family="Helvetica,sans-Serif" font-size="9.00">validate.js</text>
</a>
</g>
</g>
<!-- src/main/index.js&#45;&gt;src/main/options/validate.js -->
<g id="edge3" class="edge">
<title>src/main/index.js&#45;&gt;src/main/options/validate.js</title>
<path fill="none" stroke="#000000" stroke-width="2" stroke-opacity="0.200000" d="M141.08,-177.8C138.62,-175.59 136.38,-172.97 135,-170 125.25,-149.05 122.22,-137.25 135,-118 140.07,-110.37 146.36,-115.06 154,-110 162.95,-104.07 171.62,-95.68 178.09,-88.72"/>
<polygon fill="#000000" fill-opacity="0.200000" stroke="#000000" stroke-width="2" stroke-opacity="0.200000" points="179.73,-90.03 182.2,-84.17 176.62,-87.22 179.73,-90.03"/>
</g>
<!-- src/main/resolve&#45;options/normalize.js -->
<g id="node5" class="node">
<title>src/main/resolve&#45;options/normalize.js</title>
<g id="a_node5"><a xlink:href="src/main/resolve-options/normalize.js" xlink:title="normalize.js">
<path fill="#ffffcc" stroke="black" d="M206,-144C206,-144 152,-144 152,-144 149,-144 146,-141 146,-138 146,-138 146,-132 146,-132 146,-129 149,-126 152,-126 152,-126 206,-126 206,-126 209,-126 212,-129 212,-132 212,-132 212,-138 212,-138 212,-141 209,-144 206,-144"/>
<text text-anchor="middle" x="179" y="-132.8" font-family="Helvetica,sans-Serif" font-size="9.00">normalize.js</text>
</a>
</g>
</g>
<!-- src/main/index.js&#45;&gt;src/main/resolve&#45;options/normalize.js -->
<g id="edge4" class="edge">
<title>src/main/index.js&#45;&gt;src/main/resolve&#45;options/normalize.js</title>
<path fill="none" stroke="#000000" stroke-width="2" stroke-opacity="0.200000" d="M158.13,-177.74C161.95,-170.1 167.71,-158.59 172.21,-149.59"/>
<polygon fill="#000000" fill-opacity="0.200000" stroke="#000000" stroke-width="2" stroke-opacity="0.200000" points="174.14,-150.41 174.95,-144.1 170.39,-148.53 174.14,-150.41"/>
</g>
<!-- src/main/rule&#45;set/normalize.js -->
<g id="node6" class="node">
<title>src/main/rule&#45;set/normalize.js</title>
<g id="a_node6"><a xlink:href="src/main/rule-set/normalize.js" xlink:title="normalize.js">
<path fill="#ffffcc" stroke="black" d="M367,-144C367,-144 313,-144 313,-144 310,-144 307,-141 307,-138 307,-138 307,-132 307,-132 307,-129 310,-126 313,-126 313,-126 367,-126 367,-126 370,-126 373,-129 373,-132 373,-132 373,-138 373,-138 373,-141 370,-144 367,-144"/>
<text text-anchor="middle" x="340" y="-132.8" font-family="Helvetica,sans-Serif" font-size="9.00">normalize.js</text>
</a>
</g>
</g>
<!-- src/main/index.js&#45;&gt;src/main/rule&#45;set/normalize.js -->
<g id="edge5" class="edge">
<title>src/main/index.js&#45;&gt;src/main/rule&#45;set/normalize.js</title>
<path fill="none" stroke="#000000" stroke-width="2" stroke-opacity="0.200000" d="M181.1,-184.99C217.53,-183.3 280.13,-179.14 301,-170 312.04,-165.17 322.22,-156.06 329.41,-148.49"/>
<polygon fill="#000000" fill-opacity="0.200000" stroke="#000000" stroke-width="2" stroke-opacity="0.200000" points="330.99,-149.87 333.48,-144.03 327.88,-147.04 330.99,-149.87"/>
</g>
<!-- src/main/rule&#45;set/validate.js -->
<g id="node7" class="node">
<title>src/main/rule&#45;set/validate.js</title>
<g id="a_node7"><a xlink:href="src/main/rule-set/validate.js" xlink:title="validate.js">
<path fill="#ffffcc" stroke="black" d="M289,-144C289,-144 243,-144 243,-144 240,-144 237,-141 237,-138 237,-138 237,-132 237,-132 237,-129 240,-126 243,-126 243,-126 289,-126 289,-126 292,-126 295,-129 295,-132 295,-132 295,-138 295,-138 295,-141 292,-144 289,-144"/>
<text text-anchor="middle" x="266" y="-132.8" font-family="Helvetica,sans-Serif" font-size="9.00">validate.js</text>
</a>
</g>
</g>
<!-- src/main/index.js&#45;&gt;src/main/rule&#45;set/validate.js -->
<g id="edge6" class="edge">
<title>src/main/index.js&#45;&gt;src/main/rule&#45;set/validate.js</title>
<path fill="none" stroke="#000000" stroke-width="2" stroke-opacity="0.200000" d="M181.22,-182.73C194.6,-180.4 210.66,-176.49 224,-170 235.04,-164.63 245.77,-155.87 253.62,-148.58"/>
<polygon fill="#000000" fill-opacity="0.200000" stroke="#000000" stroke-width="2" stroke-opacity="0.200000" points="255.23,-149.95 258.11,-144.28 252.32,-146.92 255.23,-149.95"/>
</g>
<!-- src/main/options/defaults.json -->
<g id="node8" class="node">
<title>src/main/options/defaults.json</title>
<g id="a_node8"><a xlink:href="src/main/options/defaults.json" xlink:title="defaults.json">
<path fill="#ffee44" stroke="black" d="M144,-50C144,-50 88,-50 88,-50 85,-50 82,-47 82,-44 82,-44 82,-38 82,-38 82,-35 85,-32 88,-32 88,-32 144,-32 144,-32 147,-32 150,-35 150,-38 150,-38 150,-44 150,-44 150,-47 147,-50 144,-50"/>
<text text-anchor="middle" x="116" y="-38.8" font-family="Helvetica,sans-Serif" font-size="9.00">defaults.json</text>
</a>
</g>
</g>
<!-- src/main/options/normalize.js&#45;&gt;src/main/options/defaults.json -->
<g id="edge7" class="edge">
<title>src/main/options/normalize.js&#45;&gt;src/main/options/defaults.json</title>
<path fill="none" stroke="#000000" stroke-width="2" stroke-opacity="0.200000" d="M115.25,-65.93C115.34,-63.04 115.45,-59.69 115.55,-56.43"/>
<polygon fill="#000000" fill-opacity="0.200000" stroke="#000000" stroke-width="2" stroke-opacity="0.200000" points="117.65,-56.47 115.74,-50.41 113.45,-56.34 117.65,-56.47"/>
</g>
<!-- src/main/utl/normalize&#45;re&#45;properties.js -->
<g id="node9" class="node">
<title>src/main/utl/normalize&#45;re&#45;properties.js</title>
<g id="a_node9"><a xlink:href="src/main/utl/normalize-re-properties.js" xlink:title="normalize&#45;re&#45;properties.js">
<path fill="#ffffcc" stroke="black" d="M367,-84C367,-84 257,-84 257,-84 254,-84 251,-81 251,-78 251,-78 251,-72 251,-72 251,-69 254,-66 257,-66 257,-66 367,-66 367,-66 370,-66 373,-69 373,-72 373,-72 373,-78 373,-78 373,-81 370,-84 367,-84"/>
<text text-anchor="middle" x="312" y="-72.8" font-family="Helvetica,sans-Serif" font-size="9.00">normalize&#45;re&#45;properties.js</text>
</a>
</g>
</g>
<!-- src/main/rule&#45;set/normalize.js&#45;&gt;src/main/utl/normalize&#45;re&#45;properties.js -->
<g id="edge8" class="edge">
<title>src/main/rule&#45;set/normalize.js&#45;&gt;src/main/utl/normalize&#45;re&#45;properties.js</title>
<path fill="none" stroke="#000000" stroke-width="2" stroke-opacity="0.200000" d="M336.11,-125.94C331.6,-116.61 324.11,-101.08 318.67,-89.82"/>
<polygon fill="#000000" fill-opacity="0.200000" stroke="#000000" stroke-width="2" stroke-opacity="0.200000" points="320.54,-88.86 316.04,-84.37 316.76,-90.69 320.54,-88.86"/>
</g>
<!-- src/main/rule&#45;set/validate.js&#45;&gt;src/main/options/validate.js -->
<g id="edge9" class="edge">
<title>src/main/rule&#45;set/validate.js&#45;&gt;src/main/options/validate.js</title>
<path fill="none" stroke="#000000" stroke-width="2" stroke-opacity="0.200000" d="M255.29,-125.94C242.23,-116.09 220.01,-99.36 204.93,-88"/>
<polygon fill="#000000" fill-opacity="0.200000" stroke="#000000" stroke-width="2" stroke-opacity="0.200000" points="206.17,-86.3 200.11,-84.37 203.64,-89.66 206.17,-86.3"/>
</g>
</g>
</svg>
