<?xml version="1.0" encoding="UTF-8" standalone="no"?>
<!DOCTYPE svg PUBLIC "-//W3C//DTD SVG 1.1//EN"
 "http://www.w3.org/Graphics/SVG/1.1/DTD/svg11.dtd">
<!-- Generated by graphviz version 2.44.0 (20200408.0750)
 -->
<!-- Title: dependency&#45;cruiser output Pages: 1 -->
<svg width="475pt" height="282pt"
 viewBox="0.00 0.00 475.00 282.00" xmlns="http://www.w3.org/2000/svg" xmlns:xlink="http://www.w3.org/1999/xlink">
<g id="graph0" class="graph" transform="scale(1 1) rotate(0) translate(4 278)">
<title>dependency&#45;cruiser output</title>
<polygon fill="white" stroke="transparent" points="-4,4 -4,-278 471,-278 471,4 -4,4"/>
<g id="clust1" class="cluster">
<title>cluster_src</title>
<path fill="#ffffff" stroke="black" stroke-width="2" d="M20,-8C20,-8 447,-8 447,-8 453,-8 459,-14 459,-20 459,-20 459,-254 459,-254 459,-260 453,-266 447,-266 447,-266 20,-266 20,-266 14,-266 8,-260 8,-254 8,-254 8,-20 8,-20 8,-14 14,-8 20,-8"/>
<text text-anchor="middle" x="233.5" y="-254.8" font-family="Helvetica,sans-Serif" font-weight="bold" font-size="9.00">src</text>
</g>
<g id="clust2" class="cluster">
<title>cluster_src/main</title>
<path fill="#ffffff" stroke="black" stroke-width="2" d="M28,-16C28,-16 439,-16 439,-16 445,-16 451,-22 451,-28 451,-28 451,-228 451,-228 451,-234 445,-240 439,-240 439,-240 28,-240 28,-240 22,-240 16,-234 16,-228 16,-228 16,-28 16,-28 16,-22 22,-16 28,-16"/>
<text text-anchor="middle" x="233.5" y="-228.8" font-family="Helvetica,sans-Serif" font-weight="bold" font-size="9.00">main</text>
</g>
<g id="clust3" class="cluster">
<title>cluster_src/main/files&#45;and&#45;dirs</title>
<path fill="#ffffff" stroke="black" stroke-width="2" d="M98,-136C98,-136 156,-136 156,-136 162,-136 168,-142 168,-148 168,-148 168,-176 168,-176 168,-182 162,-188 156,-188 156,-188 98,-188 98,-188 92,-188 86,-182 86,-176 86,-176 86,-148 86,-148 86,-142 92,-136 98,-136"/>
<text text-anchor="middle" x="127" y="-176.8" font-family="Helvetica,sans-Serif" font-weight="bold" font-size="9.00">files&#45;and&#45;dirs</text>
</g>
<g id="clust4" class="cluster">
<title>cluster_src/main/options</title>
<path fill="#ffffff" stroke="black" stroke-width="2" d="M150,-24C150,-24 278,-24 278,-24 284,-24 290,-30 290,-36 290,-36 290,-116 290,-116 290,-122 284,-128 278,-128 278,-128 150,-128 150,-128 144,-128 138,-122 138,-116 138,-116 138,-36 138,-36 138,-30 144,-24 150,-24"/>
<text text-anchor="middle" x="214" y="-116.8" font-family="Helvetica,sans-Serif" font-weight="bold" font-size="9.00">options</text>
</g>
<g id="clust5" class="cluster">
<title>cluster_src/main/resolve&#45;options</title>
<path fill="#ffffff" stroke="black" stroke-width="2" d="M212,-136C212,-136 271,-136 271,-136 277,-136 283,-142 283,-148 283,-148 283,-176 283,-176 283,-182 277,-188 271,-188 271,-188 212,-188 212,-188 206,-188 200,-182 200,-176 200,-176 200,-148 200,-148 200,-142 206,-136 212,-136"/>
<text text-anchor="middle" x="241.5" y="-176.8" font-family="Helvetica,sans-Serif" font-weight="bold" font-size="9.00">resolve&#45;options</text>
</g>
<g id="clust6" class="cluster">
<title>cluster_src/main/rule&#45;set</title>
<path fill="#ffffff" stroke="black" stroke-width="2" d="M303,-136C303,-136 431,-136 431,-136 437,-136 443,-142 443,-148 443,-148 443,-176 443,-176 443,-182 437,-188 431,-188 431,-188 303,-188 303,-188 297,-188 291,-182 291,-176 291,-176 291,-148 291,-148 291,-142 297,-136 303,-136"/>
<text text-anchor="middle" x="367" y="-176.8" font-family="Helvetica,sans-Serif" font-weight="bold" font-size="9.00">rule&#45;set</text>
</g>
<g id="clust7" class="cluster">
<title>cluster_src/main/utl</title>
<path fill="#ffffff" stroke="black" stroke-width="2" d="M314,-24C314,-24 428,-24 428,-24 434,-24 440,-30 440,-36 440,-36 440,-64 440,-64 440,-70 434,-76 428,-76 428,-76 314,-76 314,-76 308,-76 302,-70 302,-64 302,-64 302,-36 302,-36 302,-30 308,-24 314,-24"/>
<text text-anchor="middle" x="371" y="-64.8" font-family="Helvetica,sans-Serif" font-weight="bold" font-size="9.00">utl</text>
</g>
<!-- src/main/bus.js -->
<g id="node1" class="node">
<title>src/main/bus.js</title>
<g id="a_node1"><a xlink:href="src/main/bus.js" xlink:title="bus.js">
<path fill="#ffffcc" stroke="black" d="M72,-162C72,-162 30,-162 30,-162 27,-162 24,-159 24,-156 24,-156 24,-150 24,-150 24,-147 27,-144 30,-144 30,-144 72,-144 72,-144 75,-144 78,-147 78,-150 78,-150 78,-156 78,-156 78,-159 75,-162 72,-162"/>
<text text-anchor="middle" x="51" y="-150.8" font-family="Helvetica,sans-Serif" font-size="9.00">bus.js</text>
</a>
</g>
</g>
<!-- src/main/files&#45;and&#45;dirs/normalize.js -->
<g id="node2" class="node">
<title>src/main/files&#45;and&#45;dirs/normalize.js</title>
<g id="a_node2"><a xlink:href="src/main/files-and-dirs/normalize.js" xlink:title="normalize.js">
<path fill="#ffffcc" stroke="black" d="M154,-162C154,-162 100,-162 100,-162 97,-162 94,-159 94,-156 94,-156 94,-150 94,-150 94,-147 97,-144 100,-144 100,-144 154,-144 154,-144 157,-144 160,-147 160,-150 160,-150 160,-156 160,-156 160,-159 157,-162 154,-162"/>
<text text-anchor="middle" x="127" y="-150.8" font-family="Helvetica,sans-Serif" font-size="9.00">normalize.js</text>
</a>
</g>
</g>
<!-- src/main/index.js -->
<g id="node3" class="node">
<title>src/main/index.js</title>
<g id="a_node3"><a xlink:href="src/main/index.js" xlink:title="index.js">
<path fill="#ffffcc" stroke="black" d="M212,-214C212,-214 170,-214 170,-214 167,-214 164,-211 164,-208 164,-208 164,-202 164,-202 164,-199 167,-196 170,-196 170,-196 212,-196 212,-196 215,-196 218,-199 218,-202 218,-202 218,-208 218,-208 218,-211 215,-214 212,-214"/>
<text text-anchor="middle" x="191" y="-202.8" font-family="Helvetica,sans-Serif" font-size="9.00">index.js</text>
</a>
</g>
</g>
<!-- src/main/index.js&#45;&gt;src/main/bus.js -->
<g id="edge1" class="edge">
<title>src/main/index.js&#45;&gt;src/main/bus.js</title>
<path fill="none" stroke="#000000" stroke-width="2" stroke-opacity="0.200000" d="M163.75,-204.81C140.95,-204.39 108.2,-201.16 83,-188 73.66,-183.12 65.55,-174.43 59.84,-167.06"/>
<polygon fill="#000000" fill-opacity="0.200000" stroke="#000000" stroke-width="2" stroke-opacity="0.200000" points="61.53,-165.81 56.28,-162.22 58.15,-168.3 61.53,-165.81"/>
</g>
<!-- src/main/index.js&#45;&gt;src/main/files&#45;and&#45;dirs/normalize.js -->
<g id="edge2" class="edge">
<title>src/main/index.js&#45;&gt;src/main/files&#45;and&#45;dirs/normalize.js</title>
<path fill="none" stroke="#000000" stroke-width="2" stroke-opacity="0.200000" d="M176.07,-195.9C172.04,-193.52 167.76,-190.79 164,-188 155.24,-181.49 146.2,-173.22 139.25,-166.47"/>
<polygon fill="#000000" fill-opacity="0.200000" stroke="#000000" stroke-width="2" stroke-opacity="0.200000" points="140.55,-164.8 134.81,-162.08 137.6,-167.79 140.55,-164.8"/>
</g>
<!-- src/main/options/normalize.js -->
<g id="node4" class="node">
<title>src/main/options/normalize.js</title>
<g id="a_node4"><a xlink:href="src/main/options/normalize.js" xlink:title="normalize.js">
<path fill="#ffffcc" stroke="black" d="M206,-102C206,-102 152,-102 152,-102 149,-102 146,-99 146,-96 146,-96 146,-90 146,-90 146,-87 149,-84 152,-84 152,-84 206,-84 206,-84 209,-84 212,-87 212,-90 212,-90 212,-96 212,-96 212,-99 209,-102 206,-102"/>
<text text-anchor="middle" x="179" y="-90.8" font-family="Helvetica,sans-Serif" font-size="9.00">normalize.js</text>
</a>
</g>
</g>
<!-- src/main/index.js&#45;&gt;src/main/options/normalize.js -->
<g id="edge3" class="edge">
<title>src/main/index.js&#45;&gt;src/main/options/normalize.js</title>
<path fill="none" stroke="#000000" stroke-width="2" stroke-opacity="0.200000" d="M188.71,-195.91C188.07,-193.4 187.43,-190.6 187,-188 182.33,-159.94 180.31,-126.69 179.5,-108.21"/>
<polygon fill="#000000" fill-opacity="0.200000" stroke="#000000" stroke-width="2" stroke-opacity="0.200000" points="181.59,-108.01 179.25,-102.1 177.4,-108.18 181.59,-108.01"/>
</g>
<!-- src/main/options/validate.js -->
<g id="node5" class="node">
<title>src/main/options/validate.js</title>
<g id="a_node5"><a xlink:href="src/main/options/validate.js" xlink:title="validate.js">
<path fill="#ffffcc" stroke="black" d="M276,-102C276,-102 230,-102 230,-102 227,-102 224,-99 224,-96 224,-96 224,-90 224,-90 224,-87 227,-84 230,-84 230,-84 276,-84 276,-84 279,-84 282,-87 282,-90 282,-90 282,-96 282,-96 282,-99 279,-102 276,-102"/>
<text text-anchor="middle" x="253" y="-90.8" font-family="Helvetica,sans-Serif" font-size="9.00">validate.js</text>
</a>
</g>
</g>
<!-- src/main/index.js&#45;&gt;src/main/options/validate.js -->
<g id="edge4" class="edge">
<title>src/main/index.js&#45;&gt;src/main/options/validate.js</title>
<path fill="none" stroke="#000000" stroke-width="2" stroke-opacity="0.200000" d="M189.2,-195.92C186.63,-182.11 183.56,-153.77 197,-136 203.02,-128.03 209.58,-133.37 218,-128 227.05,-122.23 235.72,-113.84 242.17,-106.84"/>
<polygon fill="#000000" fill-opacity="0.200000" stroke="#000000" stroke-width="2" stroke-opacity="0.200000" points="243.82,-108.13 246.25,-102.26 240.69,-105.34 243.82,-108.13"/>
</g>
<!-- src/main/resolve&#45;options/normalize.js -->
<g id="node6" class="node">
<title>src/main/resolve&#45;options/normalize.js</title>
<g id="a_node6"><a xlink:href="src/main/resolve-options/normalize.js" xlink:title="normalize.js">
<path fill="#ffffcc" stroke="black" d="M268,-162C268,-162 214,-162 214,-162 211,-162 208,-159 208,-156 208,-156 208,-150 208,-150 208,-147 211,-144 214,-144 214,-144 268,-144 268,-144 271,-144 274,-147 274,-150 274,-150 274,-156 274,-156 274,-159 271,-162 268,-162"/>
<text text-anchor="middle" x="241" y="-150.8" font-family="Helvetica,sans-Serif" font-size="9.00">normalize.js</text>
</a>
</g>
</g>
<!-- src/main/index.js&#45;&gt;src/main/resolve&#45;options/normalize.js -->
<g id="edge5" class="edge">
<title>src/main/index.js&#45;&gt;src/main/resolve&#45;options/normalize.js</title>
<path fill="none" stroke="#000000" stroke-width="2" stroke-opacity="0.200000" d="M199.26,-195.74C207.19,-187.81 219.3,-175.7 228.43,-166.57"/>
<polygon fill="#000000" fill-opacity="0.200000" stroke="#000000" stroke-width="2" stroke-opacity="0.200000" points="230.14,-167.83 232.9,-162.1 227.17,-164.86 230.14,-167.83"/>
</g>
<!-- src/main/rule&#45;set/normalize.js -->
<g id="node7" class="node">
<title>src/main/rule&#45;set/normalize.js</title>
<g id="a_node7"><a xlink:href="src/main/rule-set/normalize.js" xlink:title="normalize.js">
<path fill="#ffffcc" stroke="black" d="M429,-162C429,-162 375,-162 375,-162 372,-162 369,-159 369,-156 369,-156 369,-150 369,-150 369,-147 372,-144 375,-144 375,-144 429,-144 429,-144 432,-144 435,-147 435,-150 435,-150 435,-156 435,-156 435,-159 432,-162 429,-162"/>
<text text-anchor="middle" x="402" y="-150.8" font-family="Helvetica,sans-Serif" font-size="9.00">normalize.js</text>
</a>
</g>
</g>
<!-- src/main/index.js&#45;&gt;src/main/rule&#45;set/normalize.js -->
<g id="edge6" class="edge">
<title>src/main/index.js&#45;&gt;src/main/rule&#45;set/normalize.js</title>
<path fill="none" stroke="#000000" stroke-width="2" stroke-opacity="0.200000" d="M218.15,-203.49C259.88,-202.38 337.64,-198.87 363,-188 374.08,-183.25 384.25,-174.14 391.43,-166.55"/>
<polygon fill="#000000" fill-opacity="0.200000" stroke="#000000" stroke-width="2" stroke-opacity="0.200000" points="393.02,-167.92 395.5,-162.07 389.91,-165.1 393.02,-167.92"/>
</g>
<!-- src/main/rule&#45;set/validate.js -->
<g id="node8" class="node">
<title>src/main/rule&#45;set/validate.js</title>
<g id="a_node8"><a xlink:href="src/main/rule-set/validate.js" xlink:title="validate.js">
<path fill="#ffffcc" stroke="black" d="M351,-162C351,-162 305,-162 305,-162 302,-162 299,-159 299,-156 299,-156 299,-150 299,-150 299,-147 302,-144 305,-144 305,-144 351,-144 351,-144 354,-144 357,-147 357,-150 357,-150 357,-156 357,-156 357,-159 354,-162 351,-162"/>
<text text-anchor="middle" x="328" y="-150.8" font-family="Helvetica,sans-Serif" font-size="9.00">validate.js</text>
</a>
</g>
</g>
<!-- src/main/index.js&#45;&gt;src/main/rule&#45;set/validate.js -->
<g id="edge7" class="edge">
<title>src/main/index.js&#45;&gt;src/main/rule&#45;set/validate.js</title>
<path fill="none" stroke="#000000" stroke-width="2" stroke-opacity="0.200000" d="M218.27,-203.08C237.87,-201.56 264.5,-197.7 286,-188 297.33,-182.89 308.18,-173.96 316.02,-166.54"/>
<polygon fill="#000000" fill-opacity="0.200000" stroke="#000000" stroke-width="2" stroke-opacity="0.200000" points="317.67,-167.86 320.48,-162.15 314.73,-164.86 317.67,-167.86"/>
</g>
<!-- src/main/options/defaults.json -->
<g id="node9" class="node">
<title>src/main/options/defaults.json</title>
<g id="a_node9"><a xlink:href="src/main/options/defaults.json" xlink:title="defaults.json">
<path fill="#ffee44" stroke="black" d="M208,-50C208,-50 152,-50 152,-50 149,-50 146,-47 146,-44 146,-44 146,-38 146,-38 146,-35 149,-32 152,-32 152,-32 208,-32 208,-32 211,-32 214,-35 214,-38 214,-38 214,-44 214,-44 214,-47 211,-50 208,-50"/>
<text text-anchor="middle" x="180" y="-38.8" font-family="Helvetica,sans-Serif" font-size="9.00">defaults.json</text>
</a>
</g>
</g>
<!-- src/main/options/normalize.js&#45;&gt;src/main/options/defaults.json -->
<g id="edge9" class="edge">
<title>src/main/options/normalize.js&#45;&gt;src/main/options/defaults.json</title>
<path fill="none" stroke="#000000" stroke-width="2" stroke-opacity="0.200000" d="M179.17,-83.74C179.32,-76.24 179.54,-65.02 179.72,-56.1"/>
<polygon fill="#000000" fill-opacity="0.200000" stroke="#000000" stroke-width="2" stroke-opacity="0.200000" points="181.82,-56.14 179.84,-50.1 177.62,-56.06 181.82,-56.14"/>
</g>
<!-- src/main/utl/normalize&#45;re&#45;properties.js -->
<g id="node10" class="node">
<title>src/main/utl/normalize&#45;re&#45;properties.js</title>
<g id="a_node10"><a xlink:href="src/main/utl/normalize-re-properties.js" xlink:title="normalize&#45;re&#45;properties.js">
<path fill="#ffffcc" stroke="black" d="M426,-50C426,-50 316,-50 316,-50 313,-50 310,-47 310,-44 310,-44 310,-38 310,-38 310,-35 313,-32 316,-32 316,-32 426,-32 426,-32 429,-32 432,-35 432,-38 432,-38 432,-44 432,-44 432,-47 429,-50 426,-50"/>
<text text-anchor="middle" x="371" y="-38.8" font-family="Helvetica,sans-Serif" font-size="9.00">normalize&#45;re&#45;properties.js</text>
</a>
</g>
</g>
<!-- src/main/options/normalize.js&#45;&gt;src/main/utl/normalize&#45;re&#45;properties.js -->
<g id="edge8" class="edge">
<title>src/main/options/normalize.js&#45;&gt;src/main/utl/normalize&#45;re&#45;properties.js</title>
<path fill="none" stroke="#000000" stroke-width="2" stroke-opacity="0.200000" d="M212.15,-84.97C214.13,-84.63 216.09,-84.3 218,-84 251.12,-78.85 260.59,-84.57 293,-76 313.48,-70.58 335.49,-60.57 350.89,-52.8"/>
<polygon fill="#000000" fill-opacity="0.200000" stroke="#000000" stroke-width="2" stroke-opacity="0.200000" points="351.86,-54.66 356.25,-50.06 349.95,-50.92 351.86,-54.66"/>
</g>
<!-- src/main/rule&#45;set/normalize.js&#45;&gt;src/main/utl/normalize&#45;re&#45;properties.js -->
<g id="edge10" class="edge">
<title>src/main/rule&#45;set/normalize.js&#45;&gt;src/main/utl/normalize&#45;re&#45;properties.js</title>
<path fill="none" stroke="#000000" stroke-width="2" stroke-opacity="0.200000" d="M399.67,-143.73C394.39,-125.01 381.48,-79.19 374.94,-55.97"/>
<polygon fill="#000000" fill-opacity="0.200000" stroke="#000000" stroke-width="2" stroke-opacity="0.200000" points="376.92,-55.27 373.27,-50.06 372.88,-56.41 376.92,-55.27"/>
</g>
<!-- src/main/rule&#45;set/validate.js&#45;&gt;src/main/options/validate.js -->
<g id="edge11" class="edge">
<title>src/main/rule&#45;set/validate.js&#45;&gt;src/main/options/validate.js</title>
<path fill="none" stroke="#000000" stroke-width="2" stroke-opacity="0.200000" d="M317.57,-143.94C304.95,-134.18 283.58,-117.65 268.9,-106.3"/>
<polygon fill="#000000" fill-opacity="0.200000" stroke="#000000" stroke-width="2" stroke-opacity="0.200000" points="269.86,-104.38 263.83,-102.37 267.29,-107.7 269.86,-104.38"/>
</g>
</g>
</svg>
