<?xml version="1.0" encoding="UTF-8" standalone="no"?>
<!DOCTYPE svg PUBLIC "-//W3C//DTD SVG 1.1//EN"
 "http://www.w3.org/Graphics/SVG/1.1/DTD/svg11.dtd">
<!-- Generated by graphviz version 2.43.0 (0)
 -->
<!-- Title: dependency&#45;cruiser output Pages: 1 -->
<svg width="317pt" height="253pt"
 viewBox="0.00 0.00 317.00 253.00" xmlns="http://www.w3.org/2000/svg" xmlns:xlink="http://www.w3.org/1999/xlink">
<g id="graph0" class="graph" transform="scale(1 1) rotate(0) translate(4 249)">
<title>dependency&#45;cruiser output</title>
<polygon fill="white" stroke="transparent" points="-4,4 -4,-249 313,-249 313,4 -4,4"/>
<g id="clust1" class="cluster">
<title>cluster_src</title>
<path fill="#ffffff" stroke="black" stroke-width="2" d="M20,-8C20,-8 289,-8 289,-8 295,-8 301,-14 301,-20 301,-20 301,-225 301,-225 301,-231 295,-237 289,-237 289,-237 20,-237 20,-237 14,-237 8,-231 8,-225 8,-225 8,-20 8,-20 8,-14 14,-8 20,-8"/>
<text text-anchor="middle" x="154.5" y="-225.8" font-family="Helvetica,sans-Serif" font-weight="bold" font-size="9.00">src</text>
</g>
<g id="clust2" class="cluster">
<title>cluster_src/main</title>
<path fill="#ffffff" stroke="black" stroke-width="2" d="M28,-16C28,-16 281,-16 281,-16 287,-16 293,-22 293,-28 293,-28 293,-200 293,-200 293,-206 287,-212 281,-212 281,-212 28,-212 28,-212 22,-212 16,-206 16,-200 16,-200 16,-28 16,-28 16,-22 22,-16 28,-16"/>
<text text-anchor="middle" x="154.5" y="-200.8" font-family="Helvetica,sans-Serif" font-weight="bold" font-size="9.00">main</text>
</g>
<g id="clust3" class="cluster">
<title>cluster_src/main/options</title>
<path fill="#ffffff" stroke="black" stroke-width="2" d="M36,-24C36,-24 160,-24 160,-24 166,-24 172,-30 172,-36 172,-36 172,-92 172,-92 172,-98 166,-104 160,-104 160,-104 36,-104 36,-104 30,-104 24,-98 24,-92 24,-92 24,-36 24,-36 24,-30 30,-24 36,-24"/>
<text text-anchor="middle" x="98" y="-92.8" font-family="Helvetica,sans-Serif" font-weight="bold" font-size="9.00">options</text>
</g>
<g id="clust4" class="cluster">
<title>cluster_src/main/resolveOptions</title>
<path fill="#ffffff" stroke="black" stroke-width="2" d="M60,-112C60,-112 117,-112 117,-112 123,-112 129,-118 129,-124 129,-124 129,-150 129,-150 129,-156 123,-162 117,-162 117,-162 60,-162 60,-162 54,-162 48,-156 48,-150 48,-150 48,-124 48,-124 48,-118 54,-112 60,-112"/>
<text text-anchor="middle" x="88.5" y="-150.8" font-family="Helvetica,sans-Serif" font-weight="bold" font-size="9.00">resolveOptions</text>
</g>
<g id="clust5" class="cluster">
<title>cluster_src/main/ruleSet</title>
<path fill="#ffffff" stroke="black" stroke-width="2" d="M149,-112C149,-112 273,-112 273,-112 279,-112 285,-118 285,-124 285,-124 285,-150 285,-150 285,-156 279,-162 273,-162 273,-162 149,-162 149,-162 143,-162 137,-156 137,-150 137,-150 137,-124 137,-124 137,-118 143,-112 149,-112"/>
<text text-anchor="middle" x="211" y="-150.8" font-family="Helvetica,sans-Serif" font-weight="bold" font-size="9.00">ruleSet</text>
</g>
<!-- src/main/index.js -->
<g id="node1" class="node">
<title>src/main/index.js</title>
<g id="a_node1"><a xlink:href="src/main/index.js" xlink:title="index.js">
<path fill="#ffffcc" stroke="black" d="M109.33,-187C109.33,-187 66.67,-187 66.67,-187 63.83,-187 61,-184.17 61,-181.33 61,-181.33 61,-175.67 61,-175.67 61,-172.83 63.83,-170 66.67,-170 66.67,-170 109.33,-170 109.33,-170 112.17,-170 115,-172.83 115,-175.67 115,-175.67 115,-181.33 115,-181.33 115,-184.17 112.17,-187 109.33,-187"/>
<text text-anchor="middle" x="88" y="-175.8" font-family="Helvetica,sans-Serif" font-size="9.00">index.js</text>
</a>
</g>
</g>
<!-- src/main/options/normalize.js -->
<g id="node2" class="node">
<title>src/main/options/normalize.js</title>
<g id="a_node2"><a xlink:href="src/main/options/normalize.js" xlink:title="normalize.js">
<path fill="#ffffcc" stroke="black" d="M90.35,-79C90.35,-79 37.65,-79 37.65,-79 34.82,-79 31.99,-76.17 31.99,-73.33 31.99,-73.33 31.99,-67.67 31.99,-67.67 31.99,-64.83 34.82,-62 37.65,-62 37.65,-62 90.35,-62 90.35,-62 93.18,-62 96.01,-64.83 96.01,-67.67 96.01,-67.67 96.01,-73.33 96.01,-73.33 96.01,-76.17 93.18,-79 90.35,-79"/>
<text text-anchor="middle" x="64" y="-67.8" font-family="Helvetica,sans-Serif" font-size="9.00">normalize.js</text>
</a>
</g>
</g>
<!-- src/main/index.js&#45;&gt;src/main/options/normalize.js -->
<g id="edge1" class="edge">
<title>src/main/index.js&#45;&gt;src/main/options/normalize.js</title>
<path fill="none" stroke="#000000" stroke-width="2" stroke-opacity="0.200000" d="M60.74,-176.09C51.04,-174.11 41.04,-170.06 35,-162 21.67,-144.22 28.21,-133.16 35,-112 38.39,-101.43 45.68,-91.28 52.09,-83.78"/>
<polygon fill="#000000" fill-opacity="0.200000" stroke="#000000" stroke-width="2" stroke-opacity="0.200000" points="53.9,-84.91 56.34,-79.04 50.77,-82.11 53.9,-84.91"/>
</g>
<!-- src/main/options/validate.js -->
<g id="node3" class="node">
<title>src/main/options/validate.js</title>
<g id="a_node3"><a xlink:href="src/main/options/validate.js" xlink:title="validate.js">
<path fill="#ffffcc" stroke="black" d="M158.35,-79C158.35,-79 113.65,-79 113.65,-79 110.81,-79 107.98,-76.17 107.98,-73.33 107.98,-73.33 107.98,-67.67 107.98,-67.67 107.98,-64.83 110.81,-62 113.65,-62 113.65,-62 158.35,-62 158.35,-62 161.19,-62 164.02,-64.83 164.02,-67.67 164.02,-67.67 164.02,-73.33 164.02,-73.33 164.02,-76.17 161.19,-79 158.35,-79"/>
<text text-anchor="middle" x="136" y="-67.8" font-family="Helvetica,sans-Serif" font-size="9.00">validate.js</text>
</a>
</g>
</g>
<!-- src/main/index.js&#45;&gt;src/main/options/validate.js -->
<g id="edge2" class="edge">
<title>src/main/index.js&#45;&gt;src/main/options/validate.js</title>
<path fill="none" stroke="#000000" stroke-width="2" stroke-opacity="0.200000" d="M60.59,-173.13C54.5,-170.83 48.74,-167.32 45,-162 32.23,-143.82 30.42,-128.77 45,-112 53.39,-102.35 90.49,-109.58 102,-104 111.67,-99.31 120.39,-90.85 126.57,-83.74"/>
<polygon fill="#000000" fill-opacity="0.200000" stroke="#000000" stroke-width="2" stroke-opacity="0.200000" points="128.21,-85.05 130.43,-79.09 124.98,-82.37 128.21,-85.05"/>
</g>
<!-- src/main/resolveOptions/normalize.js -->
<g id="node4" class="node">
<title>src/main/resolveOptions/normalize.js</title>
<g id="a_node4"><a xlink:href="src/main/resolveOptions/normalize.js" xlink:title="normalize.js">
<path fill="#ffffcc" stroke="black" d="M114.35,-137C114.35,-137 61.65,-137 61.65,-137 58.82,-137 55.99,-134.17 55.99,-131.33 55.99,-131.33 55.99,-125.67 55.99,-125.67 55.99,-122.83 58.82,-120 61.65,-120 61.65,-120 114.35,-120 114.35,-120 117.18,-120 120.01,-122.83 120.01,-125.67 120.01,-125.67 120.01,-131.33 120.01,-131.33 120.01,-134.17 117.18,-137 114.35,-137"/>
<text text-anchor="middle" x="88" y="-125.8" font-family="Helvetica,sans-Serif" font-size="9.00">normalize.js</text>
</a>
</g>
</g>
<!-- src/main/index.js&#45;&gt;src/main/resolveOptions/normalize.js -->
<g id="edge3" class="edge">
<title>src/main/index.js&#45;&gt;src/main/resolveOptions/normalize.js</title>
<path fill="none" stroke="#000000" stroke-width="2" stroke-opacity="0.200000" d="M88,-169.57C88,-162.44 88,-151.81 88,-143.29"/>
<polygon fill="#000000" fill-opacity="0.200000" stroke="#000000" stroke-width="2" stroke-opacity="0.200000" points="90.1,-143.28 88,-137.28 85.9,-143.28 90.1,-143.28"/>
</g>
<!-- src/main/ruleSet/normalize.js -->
<g id="node5" class="node">
<title>src/main/ruleSet/normalize.js</title>
<g id="a_node5"><a xlink:href="src/main/ruleSet/normalize.js" xlink:title="normalize.js">
<path fill="#ffffcc" stroke="black" d="M271.35,-137C271.35,-137 218.65,-137 218.65,-137 215.82,-137 212.99,-134.17 212.99,-131.33 212.99,-131.33 212.99,-125.67 212.99,-125.67 212.99,-122.83 215.82,-120 218.65,-120 218.65,-120 271.35,-120 271.35,-120 274.18,-120 277.01,-122.83 277.01,-125.67 277.01,-125.67 277.01,-131.33 277.01,-131.33 277.01,-134.17 274.18,-137 271.35,-137"/>
<text text-anchor="middle" x="245" y="-125.8" font-family="Helvetica,sans-Serif" font-size="9.00">normalize.js</text>
</a>
</g>
</g>
<!-- src/main/index.js&#45;&gt;src/main/ruleSet/normalize.js -->
<g id="edge4" class="edge">
<title>src/main/index.js&#45;&gt;src/main/ruleSet/normalize.js</title>
<path fill="none" stroke="#000000" stroke-width="2" stroke-opacity="0.200000" d="M115.17,-178.29C140.09,-178.04 177.49,-175.12 207,-162 217.44,-157.36 227.19,-148.9 234.2,-141.77"/>
<polygon fill="#000000" fill-opacity="0.200000" stroke="#000000" stroke-width="2" stroke-opacity="0.200000" points="236,-142.92 238.59,-137.12 232.95,-140.04 236,-142.92"/>
</g>
<!-- src/main/ruleSet/validate.js -->
<g id="node6" class="node">
<title>src/main/ruleSet/validate.js</title>
<g id="a_node6"><a xlink:href="src/main/ruleSet/validate.js" xlink:title="validate.js">
<path fill="#ffffcc" stroke="black" d="M195.35,-137C195.35,-137 150.65,-137 150.65,-137 147.81,-137 144.98,-134.17 144.98,-131.33 144.98,-131.33 144.98,-125.67 144.98,-125.67 144.98,-122.83 147.81,-120 150.65,-120 150.65,-120 195.35,-120 195.35,-120 198.19,-120 201.02,-122.83 201.02,-125.67 201.02,-125.67 201.02,-131.33 201.02,-131.33 201.02,-134.17 198.19,-137 195.35,-137"/>
<text text-anchor="middle" x="173" y="-125.8" font-family="Helvetica,sans-Serif" font-size="9.00">validate.js</text>
</a>
</g>
</g>
<!-- src/main/index.js&#45;&gt;src/main/ruleSet/validate.js -->
<g id="edge5" class="edge">
<title>src/main/index.js&#45;&gt;src/main/ruleSet/validate.js</title>
<path fill="none" stroke="#000000" stroke-width="2" stroke-opacity="0.200000" d="M114.21,-169.87C120.22,-167.69 126.47,-165.05 132,-162 142.21,-156.36 152.49,-148.21 160.2,-141.48"/>
<polygon fill="#000000" fill-opacity="0.200000" stroke="#000000" stroke-width="2" stroke-opacity="0.200000" points="162.03,-142.66 165.1,-137.09 159.23,-139.53 162.03,-142.66"/>
</g>
<!-- src/main/options/defaults.json -->
<g id="node7" class="node">
<title>src/main/options/defaults.json</title>
<g id="a_node7"><a xlink:href="src/main/options/defaults.json" xlink:title="defaults.json">
<path fill="#ffee44" stroke="black" d="M92.37,-49C92.37,-49 37.63,-49 37.63,-49 34.8,-49 31.97,-46.17 31.97,-43.33 31.97,-43.33 31.97,-37.67 31.97,-37.67 31.97,-34.83 34.8,-32 37.63,-32 37.63,-32 92.37,-32 92.37,-32 95.2,-32 98.03,-34.83 98.03,-37.67 98.03,-37.67 98.03,-43.33 98.03,-43.33 98.03,-46.17 95.2,-49 92.37,-49"/>
<text text-anchor="middle" x="65" y="-37.8" font-family="Helvetica,sans-Serif" font-size="9.00">defaults.json</text>
</a>
</g>
</g>
<!-- src/main/options/normalize.js&#45;&gt;src/main/options/defaults.json -->
<g id="edge6" class="edge">
<title>src/main/options/normalize.js&#45;&gt;src/main/options/defaults.json</title>
<path fill="none" stroke="#000000" stroke-width="2" stroke-opacity="0.200000" d="M64.27,-61.85C64.34,-59.91 64.42,-57.76 64.5,-55.6"/>
<polygon fill="#000000" fill-opacity="0.200000" stroke="#000000" stroke-width="2" stroke-opacity="0.200000" points="66.6,-55.41 64.72,-49.34 62.41,-55.26 66.6,-55.41"/>
</g>
<!-- src/main/ruleSet/validate.js&#45;&gt;src/main/options/validate.js -->
<g id="edge7" class="edge">
<title>src/main/ruleSet/validate.js&#45;&gt;src/main/options/validate.js</title>
<path fill="none" stroke="#000000" stroke-width="2" stroke-opacity="0.200000" d="M167.86,-119.71C161.84,-110.6 151.78,-95.38 144.57,-84.47"/>
<polygon fill="#000000" fill-opacity="0.200000" stroke="#000000" stroke-width="2" stroke-opacity="0.200000" points="146.16,-83.07 141.1,-79.22 142.66,-85.38 146.16,-83.07"/>
</g>
</g>
</svg>
