<?xml version="1.0" encoding="UTF-8" standalone="no"?>
<!DOCTYPE svg PUBLIC "-//W3C//DTD SVG 1.1//EN"
 "http://www.w3.org/Graphics/SVG/1.1/DTD/svg11.dtd">
<!-- Generated by graphviz version 2.44.0 (20200408.0750)
 -->
<!-- Title: dependency&#45;cruiser output Pages: 1 -->
<svg width="413pt" height="261pt"
 viewBox="0.00 0.00 413.00 261.00" xmlns="http://www.w3.org/2000/svg" xmlns:xlink="http://www.w3.org/1999/xlink">
<g id="graph0" class="graph" transform="scale(1 1) rotate(0) translate(4 257)">
<title>dependency&#45;cruiser output</title>
<polygon fill="white" stroke="transparent" points="-4,4 -4,-257 409,-257 409,4 -4,4"/>
<g id="clust1" class="cluster">
<title>cluster_src</title>
<path fill="#ffffff" stroke="black" stroke-width="2" d="M20,-8C20,-8 385,-8 385,-8 391,-8 397,-14 397,-20 397,-20 397,-233 397,-233 397,-239 391,-245 385,-245 385,-245 20,-245 20,-245 14,-245 8,-239 8,-233 8,-233 8,-20 8,-20 8,-14 14,-8 20,-8"/>
<text text-anchor="middle" x="202.5" y="-233.8" font-family="Helvetica,sans-Serif" font-weight="bold" font-size="9.00">src</text>
</g>
<g id="clust2" class="cluster">
<title>cluster_src/main</title>
<path fill="#ffffff" stroke="black" stroke-width="2" d="M28,-16C28,-16 377,-16 377,-16 383,-16 389,-22 389,-28 389,-28 389,-207 389,-207 389,-213 383,-219 377,-219 377,-219 28,-219 28,-219 22,-219 16,-213 16,-207 16,-207 16,-28 16,-28 16,-22 22,-16 28,-16"/>
<text text-anchor="middle" x="202.5" y="-207.8" font-family="Helvetica,sans-Serif" font-weight="bold" font-size="9.00">main</text>
</g>
<g id="clust3" class="cluster">
<title>cluster_src/main/files&#45;and&#45;dirs</title>
<path fill="#ffffff" stroke="black" stroke-width="2" d="M36,-115C36,-115 94,-115 94,-115 100,-115 106,-121 106,-127 106,-127 106,-155 106,-155 106,-161 100,-167 94,-167 94,-167 36,-167 36,-167 30,-167 24,-161 24,-155 24,-155 24,-127 24,-127 24,-121 30,-115 36,-115"/>
<text text-anchor="middle" x="65" y="-155.8" font-family="Helvetica,sans-Serif" font-weight="bold" font-size="9.00">files&#45;and&#45;dirs</text>
</g>
<g id="clust4" class="cluster">
<title>cluster_src/main/options</title>
<path fill="#ffffff" stroke="black" stroke-width="2" d="M86,-24C86,-24 214,-24 214,-24 220,-24 226,-30 226,-36 226,-36 226,-95 226,-95 226,-101 220,-107 214,-107 214,-107 86,-107 86,-107 80,-107 74,-101 74,-95 74,-95 74,-36 74,-36 74,-30 80,-24 86,-24"/>
<text text-anchor="middle" x="150" y="-95.8" font-family="Helvetica,sans-Serif" font-weight="bold" font-size="9.00">options</text>
</g>
<g id="clust5" class="cluster">
<title>cluster_src/main/resolve&#45;options</title>
<path fill="#ffffff" stroke="black" stroke-width="2" d="M150,-115C150,-115 209,-115 209,-115 215,-115 221,-121 221,-127 221,-127 221,-155 221,-155 221,-161 215,-167 209,-167 209,-167 150,-167 150,-167 144,-167 138,-161 138,-155 138,-155 138,-127 138,-127 138,-121 144,-115 150,-115"/>
<text text-anchor="middle" x="179.5" y="-155.8" font-family="Helvetica,sans-Serif" font-weight="bold" font-size="9.00">resolve&#45;options</text>
</g>
<g id="clust6" class="cluster">
<title>cluster_src/main/rule&#45;set</title>
<path fill="#ffffff" stroke="black" stroke-width="2" d="M241,-115C241,-115 369,-115 369,-115 375,-115 381,-121 381,-127 381,-127 381,-155 381,-155 381,-161 375,-167 369,-167 369,-167 241,-167 241,-167 235,-167 229,-161 229,-155 229,-155 229,-127 229,-127 229,-121 235,-115 241,-115"/>
<text text-anchor="middle" x="305" y="-155.8" font-family="Helvetica,sans-Serif" font-weight="bold" font-size="9.00">rule&#45;set</text>
</g>
<!-- src/main/files&#45;and&#45;dirs/normalize.js -->
<g id="node1" class="node">
<title>src/main/files&#45;and&#45;dirs/normalize.js</title>
<g id="a_node1"><a xlink:href="src/main/files-and-dirs/normalize.js" xlink:title="normalize.js">
<path fill="#ffffcc" stroke="black" d="M92,-141C92,-141 38,-141 38,-141 35,-141 32,-138 32,-135 32,-135 32,-129 32,-129 32,-126 35,-123 38,-123 38,-123 92,-123 92,-123 95,-123 98,-126 98,-129 98,-129 98,-135 98,-135 98,-138 95,-141 92,-141"/>
<text text-anchor="middle" x="65" y="-129.8" font-family="Helvetica,sans-Serif" font-size="9.00">normalize.js</text>
</a>
</g>
</g>
<!-- src/main/index.js -->
<g id="node2" class="node">
<title>src/main/index.js</title>
<g id="a_node2"><a xlink:href="src/main/index.js" xlink:title="index.js">
<path fill="#ffffcc" stroke="black" d="M175,-193C175,-193 133,-193 133,-193 130,-193 127,-190 127,-187 127,-187 127,-181 127,-181 127,-178 130,-175 133,-175 133,-175 175,-175 175,-175 178,-175 181,-178 181,-181 181,-181 181,-187 181,-187 181,-190 178,-193 175,-193"/>
<text text-anchor="middle" x="154" y="-181.8" font-family="Helvetica,sans-Serif" font-size="9.00">index.js</text>
</a>
</g>
</g>
<!-- src/main/index.js&#45;&gt;src/main/files&#45;and&#45;dirs/normalize.js -->
<g id="edge1" class="edge">
<title>src/main/index.js&#45;&gt;src/main/files&#45;and&#45;dirs/normalize.js</title>
<path fill="none" stroke="#000000" stroke-width="2" stroke-opacity="0.200000" d="M126.87,-177.12C118.57,-174.68 109.62,-171.37 102,-167 92.29,-161.43 83.01,-152.89 76.18,-145.77"/>
<polygon fill="#000000" fill-opacity="0.200000" stroke="#000000" stroke-width="2" stroke-opacity="0.200000" points="77.48,-144.09 71.86,-141.12 74.4,-146.94 77.48,-144.09"/>
</g>
<!-- src/main/options/normalize.js -->
<g id="node3" class="node">
<title>src/main/options/normalize.js</title>
<g id="a_node3"><a xlink:href="src/main/options/normalize.js" xlink:title="normalize.js">
<path fill="#ffffcc" stroke="black" d="M142,-81C142,-81 88,-81 88,-81 85,-81 82,-78 82,-75 82,-75 82,-69 82,-69 82,-66 85,-63 88,-63 88,-63 142,-63 142,-63 145,-63 148,-66 148,-69 148,-69 148,-75 148,-75 148,-78 145,-81 142,-81"/>
<text text-anchor="middle" x="115" y="-69.8" font-family="Helvetica,sans-Serif" font-size="9.00">normalize.js</text>
</a>
</g>
</g>
<!-- src/main/index.js&#45;&gt;src/main/options/normalize.js -->
<g id="edge2" class="edge">
<title>src/main/index.js&#45;&gt;src/main/options/normalize.js</title>
<path fill="none" stroke="#000000" stroke-width="2" stroke-opacity="0.200000" d="M131.48,-174.94C128.17,-172.83 125.16,-170.22 123,-167 106.8,-142.78 109.25,-106.83 112.26,-87.15"/>
<polygon fill="#000000" fill-opacity="0.200000" stroke="#000000" stroke-width="2" stroke-opacity="0.200000" points="114.34,-87.4 113.27,-81.14 110.2,-86.71 114.34,-87.4"/>
</g>
<!-- src/main/options/validate.js -->
<g id="node4" class="node">
<title>src/main/options/validate.js</title>
<g id="a_node4"><a xlink:href="src/main/options/validate.js" xlink:title="validate.js">
<path fill="#ffffcc" stroke="black" d="M212,-81C212,-81 166,-81 166,-81 163,-81 160,-78 160,-75 160,-75 160,-69 160,-69 160,-66 163,-63 166,-63 166,-63 212,-63 212,-63 215,-63 218,-66 218,-69 218,-69 218,-75 218,-75 218,-78 215,-81 212,-81"/>
<text text-anchor="middle" x="189" y="-69.8" font-family="Helvetica,sans-Serif" font-size="9.00">validate.js</text>
</a>
</g>
</g>
<!-- src/main/index.js&#45;&gt;src/main/options/validate.js -->
<g id="edge3" class="edge">
<title>src/main/index.js&#45;&gt;src/main/options/validate.js</title>
<path fill="none" stroke="#000000" stroke-width="2" stroke-opacity="0.200000" d="M141.08,-174.8C138.62,-172.59 136.38,-169.97 135,-167 125.25,-146.05 122.22,-134.25 135,-115 140.07,-107.37 146.36,-112.06 154,-107 162.95,-101.07 171.62,-92.68 178.09,-85.72"/>
<polygon fill="#000000" fill-opacity="0.200000" stroke="#000000" stroke-width="2" stroke-opacity="0.200000" points="179.73,-87.03 182.2,-81.17 176.62,-84.22 179.73,-87.03"/>
</g>
<!-- src/main/resolve&#45;options/normalize.js -->
<g id="node5" class="node">
<title>src/main/resolve&#45;options/normalize.js</title>
<g id="a_node5"><a xlink:href="src/main/resolve-options/normalize.js" xlink:title="normalize.js">
<path fill="#ffffcc" stroke="black" d="M206,-141C206,-141 152,-141 152,-141 149,-141 146,-138 146,-135 146,-135 146,-129 146,-129 146,-126 149,-123 152,-123 152,-123 206,-123 206,-123 209,-123 212,-126 212,-129 212,-129 212,-135 212,-135 212,-138 209,-141 206,-141"/>
<text text-anchor="middle" x="179" y="-129.8" font-family="Helvetica,sans-Serif" font-size="9.00">normalize.js</text>
</a>
</g>
</g>
<!-- src/main/index.js&#45;&gt;src/main/resolve&#45;options/normalize.js -->
<g id="edge4" class="edge">
<title>src/main/index.js&#45;&gt;src/main/resolve&#45;options/normalize.js</title>
<path fill="none" stroke="#000000" stroke-width="2" stroke-opacity="0.200000" d="M158.13,-174.74C161.95,-167.1 167.71,-155.59 172.21,-146.59"/>
<polygon fill="#000000" fill-opacity="0.200000" stroke="#000000" stroke-width="2" stroke-opacity="0.200000" points="174.14,-147.41 174.95,-141.1 170.39,-145.53 174.14,-147.41"/>
</g>
<!-- src/main/rule&#45;set/normalize.js -->
<g id="node6" class="node">
<title>src/main/rule&#45;set/normalize.js</title>
<g id="a_node6"><a xlink:href="src/main/rule-set/normalize.js" xlink:title="normalize.js">
<path fill="#ffffcc" stroke="black" d="M367,-141C367,-141 313,-141 313,-141 310,-141 307,-138 307,-135 307,-135 307,-129 307,-129 307,-126 310,-123 313,-123 313,-123 367,-123 367,-123 370,-123 373,-126 373,-129 373,-129 373,-135 373,-135 373,-138 370,-141 367,-141"/>
<text text-anchor="middle" x="340" y="-129.8" font-family="Helvetica,sans-Serif" font-size="9.00">normalize.js</text>
</a>
</g>
</g>
<!-- src/main/index.js&#45;&gt;src/main/rule&#45;set/normalize.js -->
<g id="edge5" class="edge">
<title>src/main/index.js&#45;&gt;src/main/rule&#45;set/normalize.js</title>
<path fill="none" stroke="#000000" stroke-width="2" stroke-opacity="0.200000" d="M181.1,-181.99C217.53,-180.3 280.13,-176.14 301,-167 312.04,-162.17 322.22,-153.06 329.41,-145.49"/>
<polygon fill="#000000" fill-opacity="0.200000" stroke="#000000" stroke-width="2" stroke-opacity="0.200000" points="330.99,-146.87 333.48,-141.03 327.88,-144.04 330.99,-146.87"/>
</g>
<!-- src/main/rule&#45;set/validate.js -->
<g id="node7" class="node">
<title>src/main/rule&#45;set/validate.js</title>
<g id="a_node7"><a xlink:href="src/main/rule-set/validate.js" xlink:title="validate.js">
<path fill="#ffffcc" stroke="black" d="M289,-141C289,-141 243,-141 243,-141 240,-141 237,-138 237,-135 237,-135 237,-129 237,-129 237,-126 240,-123 243,-123 243,-123 289,-123 289,-123 292,-123 295,-126 295,-129 295,-129 295,-135 295,-135 295,-138 292,-141 289,-141"/>
<text text-anchor="middle" x="266" y="-129.8" font-family="Helvetica,sans-Serif" font-size="9.00">validate.js</text>
</a>
</g>
</g>
<!-- src/main/index.js&#45;&gt;src/main/rule&#45;set/validate.js -->
<g id="edge6" class="edge">
<title>src/main/index.js&#45;&gt;src/main/rule&#45;set/validate.js</title>
<path fill="none" stroke="#000000" stroke-width="2" stroke-opacity="0.200000" d="M181.22,-179.73C194.6,-177.4 210.66,-173.49 224,-167 235.04,-161.63 245.77,-152.87 253.62,-145.58"/>
<polygon fill="#000000" fill-opacity="0.200000" stroke="#000000" stroke-width="2" stroke-opacity="0.200000" points="255.23,-146.95 258.11,-141.28 252.32,-143.92 255.23,-146.95"/>
</g>
<!-- src/main/options/defaults.json -->
<g id="node8" class="node">
<title>src/main/options/defaults.json</title>
<g id="a_node8"><a xlink:href="src/main/options/defaults.json" xlink:title="defaults.json">
<path fill="#ffee44" stroke="black" d="M144,-50C144,-50 88,-50 88,-50 85,-50 82,-47 82,-44 82,-44 82,-38 82,-38 82,-35 85,-32 88,-32 88,-32 144,-32 144,-32 147,-32 150,-35 150,-38 150,-38 150,-44 150,-44 150,-47 147,-50 144,-50"/>
<text text-anchor="middle" x="116" y="-38.8" font-family="Helvetica,sans-Serif" font-size="9.00">defaults.json</text>
</a>
</g>
</g>
<!-- src/main/options/normalize.js&#45;&gt;src/main/options/defaults.json -->
<g id="edge7" class="edge">
<title>src/main/options/normalize.js&#45;&gt;src/main/options/defaults.json</title>
<path fill="none" stroke="#000000" stroke-width="2" stroke-opacity="0.200000" d="M115.28,-62.77C115.35,-60.82 115.42,-58.7 115.5,-56.57"/>
<polygon fill="#000000" fill-opacity="0.200000" stroke="#000000" stroke-width="2" stroke-opacity="0.200000" points="117.6,-56.42 115.71,-50.35 113.41,-56.28 117.6,-56.42"/>
</g>
<!-- src/main/rule&#45;set/validate.js&#45;&gt;src/main/options/validate.js -->
<g id="edge8" class="edge">
<title>src/main/rule&#45;set/validate.js&#45;&gt;src/main/options/validate.js</title>
<path fill="none" stroke="#000000" stroke-width="2" stroke-opacity="0.200000" d="M255.29,-122.94C242.23,-113.09 220.01,-96.36 204.93,-85"/>
<polygon fill="#000000" fill-opacity="0.200000" stroke="#000000" stroke-width="2" stroke-opacity="0.200000" points="206.17,-83.3 200.11,-81.37 203.64,-86.66 206.17,-83.3"/>
</g>
</g>
</svg>
