<?xml version="1.0" encoding="UTF-8" standalone="no"?>
<!DOCTYPE svg PUBLIC "-//W3C//DTD SVG 1.1//EN"
 "http://www.w3.org/Graphics/SVG/1.1/DTD/svg11.dtd">
<!-- Generated by graphviz version 8.0.1 (20230327.1645)
 -->
<!-- Title: dependency&#45;cruiser output Pages: 1 -->
<svg width="526pt" height="292pt"
 viewBox="0.00 0.00 526.00 292.00" xmlns="http://www.w3.org/2000/svg" xmlns:xlink="http://www.w3.org/1999/xlink">
<g id="graph0" class="graph" transform="scale(1 1) rotate(0) translate(4 288)">
<title>dependency&#45;cruiser output</title>
<polygon fill="white" stroke="none" points="-4,4 -4,-288 522,-288 522,4 -4,4"/>
<g id="clust1" class="cluster">
<title>cluster_src</title>
<path fill="#ffffff" stroke="black" stroke-width="2" d="M20,-8C20,-8 498,-8 498,-8 504,-8 510,-14 510,-20 510,-20 510,-264 510,-264 510,-270 504,-276 498,-276 498,-276 20,-276 20,-276 14,-276 8,-270 8,-264 8,-264 8,-20 8,-20 8,-14 14,-8 20,-8"/>
<text text-anchor="middle" x="259" y="-264.8" font-family="Helvetica,sans-Serif" font-weight="bold" font-size="9.00">src</text>
</g>
<g id="clust2" class="cluster">
<title>cluster_src/main</title>
<path fill="#ffffff" stroke="black" stroke-width="2" d="M28,-16C28,-16 490,-16 490,-16 496,-16 502,-22 502,-28 502,-28 502,-238 502,-238 502,-244 496,-250 490,-250 490,-250 28,-250 28,-250 22,-250 16,-244 16,-238 16,-238 16,-28 16,-28 16,-22 22,-16 28,-16"/>
<text text-anchor="middle" x="259" y="-238.8" font-family="Helvetica,sans-Serif" font-weight="bold" font-size="9.00">main</text>
</g>
<g id="clust3" class="cluster">
<title>cluster_src/main/files&#45;and&#45;dirs</title>
<path fill="#ffffff" stroke="black" stroke-width="2" d="M212,-115C212,-115 278,-115 278,-115 284,-115 290,-121 290,-127 290,-127 290,-155 290,-155 290,-161 284,-167 278,-167 278,-167 212,-167 212,-167 206,-167 200,-161 200,-155 200,-155 200,-127 200,-127 200,-121 206,-115 212,-115"/>
<text text-anchor="middle" x="245" y="-155.8" font-family="Helvetica,sans-Serif" font-weight="bold" font-size="9.00">files&#45;and&#45;dirs</text>
</g>
<g id="clust4" class="cluster">
<title>cluster_src/main/options</title>
<path fill="#ffffff" stroke="black" stroke-width="2" d="M224,-24C224,-24 368,-24 368,-24 374,-24 380,-30 380,-36 380,-36 380,-95 380,-95 380,-101 374,-107 368,-107 368,-107 224,-107 224,-107 218,-107 212,-101 212,-95 212,-95 212,-36 212,-36 212,-30 218,-24 224,-24"/>
<text text-anchor="middle" x="296" y="-95.8" font-family="Helvetica,sans-Serif" font-weight="bold" font-size="9.00">options</text>
</g>
<g id="clust5" class="cluster">
<title>cluster_src/main/resolve&#45;options</title>
<path fill="#ffffff" stroke="black" stroke-width="2" d="M334,-115C334,-115 400,-115 400,-115 406,-115 412,-121 412,-127 412,-127 412,-155 412,-155 412,-161 406,-167 400,-167 400,-167 334,-167 334,-167 328,-167 322,-161 322,-155 322,-155 322,-127 322,-127 322,-121 328,-115 334,-115"/>
<text text-anchor="middle" x="367" y="-155.8" font-family="Helvetica,sans-Serif" font-weight="bold" font-size="9.00">resolve&#45;options</text>
</g>
<g id="clust6" class="cluster">
<title>cluster_src/main/rule&#45;set</title>
<path fill="#ffffff" stroke="black" stroke-width="2" d="M36,-115C36,-115 180,-115 180,-115 186,-115 192,-121 192,-127 192,-127 192,-155 192,-155 192,-161 186,-167 180,-167 180,-167 36,-167 36,-167 30,-167 24,-161 24,-155 24,-155 24,-127 24,-127 24,-121 30,-115 36,-115"/>
<text text-anchor="middle" x="108" y="-155.8" font-family="Helvetica,sans-Serif" font-weight="bold" font-size="9.00">rule&#45;set</text>
</g>
<!-- src/main/cruise.mjs -->
<g id="node1" class="node">
<title>src/main/cruise.mjs</title>
<g id="a_node1"><a xlink:href="src/main/cruise.mjs" xlink:title="cruise.mjs">
<path fill="#ffffcc" stroke="black" d="M329,-193C329,-193 283,-193 283,-193 280,-193 277,-190 277,-187 277,-187 277,-181 277,-181 277,-178 280,-175 283,-175 283,-175 329,-175 329,-175 332,-175 335,-178 335,-181 335,-181 335,-187 335,-187 335,-190 332,-193 329,-193"/>
<text text-anchor="start" x="285" y="-181.8" font-family="Helvetica,sans-Serif" font-size="9.00">cruise.mjs</text>
</a>
</g>
</g>
<!-- src/main/files&#45;and&#45;dirs/normalize.mjs -->
<g id="node2" class="node">
<title>src/main/files&#45;and&#45;dirs/normalize.mjs</title>
<g id="a_node2"><a xlink:href="src/main/files-and-dirs/normalize.mjs" xlink:title="normalize.mjs">
<path fill="#ffffcc" stroke="black" d="M276,-141C276,-141 214,-141 214,-141 211,-141 208,-138 208,-135 208,-135 208,-129 208,-129 208,-126 211,-123 214,-123 214,-123 276,-123 276,-123 279,-123 282,-126 282,-129 282,-129 282,-135 282,-135 282,-138 279,-141 276,-141"/>
<text text-anchor="start" x="216" y="-129.8" font-family="Helvetica,sans-Serif" font-size="9.00">normalize.mjs</text>
</a>
</g>
</g>
<!-- src/main/cruise.mjs&#45;&gt;src/main/files&#45;and&#45;dirs/normalize.mjs -->
<g id="edge1" class="edge">
<title>src/main/cruise.mjs&#45;&gt;src/main/files&#45;and&#45;dirs/normalize.mjs</title>
<path fill="none" stroke="#000000" stroke-width="2" stroke-dasharray="5,2" stroke-opacity="0.200000" d="M295.38,-174.56C292.35,-172.13 289.03,-169.47 286,-167 278.04,-160.52 269.28,-153.26 261.9,-147.13"/>
<polygon fill="#000000" fill-opacity="0.200000" stroke="#000000" stroke-width="2" stroke-opacity="0.200000" points="263.02,-144.66 257.07,-142.43 260.33,-147.89 263.02,-144.66"/>
</g>
<!-- src/main/options/normalize.mjs -->
<g id="node3" class="node">
<title>src/main/options/normalize.mjs</title>
<g id="a_node3"><a xlink:href="src/main/options/normalize.mjs" xlink:title="normalize.mjs">
<path fill="#ffffcc" stroke="black" d="M366,-81C366,-81 304,-81 304,-81 301,-81 298,-78 298,-75 298,-75 298,-69 298,-69 298,-66 301,-63 304,-63 304,-63 366,-63 366,-63 369,-63 372,-66 372,-69 372,-69 372,-75 372,-75 372,-78 369,-81 366,-81"/>
<text text-anchor="start" x="306" y="-69.8" font-family="Helvetica,sans-Serif" font-size="9.00">normalize.mjs</text>
</a>
</g>
</g>
<!-- src/main/cruise.mjs&#45;&gt;src/main/options/normalize.mjs -->
<g id="edge2" class="edge">
<title>src/main/cruise.mjs&#45;&gt;src/main/options/normalize.mjs</title>
<path fill="none" stroke="#000000" stroke-width="2" stroke-opacity="0.200000" d="M307.13,-174.51C308.98,-161.54 313.03,-136.04 319,-115 321.45,-106.37 324.93,-97.02 328.01,-89.33"/>
<polygon fill="#000000" fill-opacity="0.200000" stroke="#000000" stroke-width="2" stroke-opacity="0.200000" points="330.02,-89.57 330.38,-83.22 326.14,-87.96 330.02,-89.57"/>
</g>
<!-- src/main/options/validate.mjs -->
<g id="node4" class="node">
<title>src/main/options/validate.mjs</title>
<g id="a_node4"><a xlink:href="src/main/options/validate.mjs" xlink:title="validate.mjs">
<path fill="#ffffcc" stroke="black" d="M279.5,-81C279.5,-81 226.5,-81 226.5,-81 223.5,-81 220.5,-78 220.5,-75 220.5,-75 220.5,-69 220.5,-69 220.5,-66 223.5,-63 226.5,-63 226.5,-63 279.5,-63 279.5,-63 282.5,-63 285.5,-66 285.5,-69 285.5,-69 285.5,-75 285.5,-75 285.5,-78 282.5,-81 279.5,-81"/>
<text text-anchor="start" x="228.5" y="-69.8" font-family="Helvetica,sans-Serif" font-size="9.00">validate.mjs</text>
</a>
</g>
</g>
<!-- src/main/cruise.mjs&#45;&gt;src/main/options/validate.mjs -->
<g id="edge3" class="edge">
<title>src/main/cruise.mjs&#45;&gt;src/main/options/validate.mjs</title>
<path fill="none" stroke="#000000" stroke-width="2" stroke-opacity="0.200000" d="M305.02,-174.79C303.05,-159.07 298.33,-125.37 293,-115 287.53,-104.37 278.53,-94.56 270.45,-87.1"/>
<polygon fill="#000000" fill-opacity="0.200000" stroke="#000000" stroke-width="2" stroke-opacity="0.200000" points="271.87,-84.8 265.98,-82.42 269.1,-87.96 271.87,-84.8"/>
</g>
<!-- src/main/report&#45;wrap.mjs -->
<g id="node5" class="node">
<title>src/main/report&#45;wrap.mjs</title>
<g id="a_node5"><a xlink:href="src/main/report-wrap.mjs" xlink:title="report&#45;wrap.mjs">
<path fill="#ffffcc" stroke="black" d="M486,-81C486,-81 418,-81 418,-81 415,-81 412,-78 412,-75 412,-75 412,-69 412,-69 412,-66 415,-63 418,-63 418,-63 486,-63 486,-63 489,-63 492,-66 492,-69 492,-69 492,-75 492,-75 492,-78 489,-81 486,-81"/>
<text text-anchor="start" x="420" y="-69.8" font-family="Helvetica,sans-Serif" font-size="9.00">report&#45;wrap.mjs</text>
</a>
</g>
</g>
<!-- src/main/cruise.mjs&#45;&gt;src/main/report&#45;wrap.mjs -->
<g id="edge4" class="edge">
<title>src/main/cruise.mjs&#45;&gt;src/main/report&#45;wrap.mjs</title>
<path fill="none" stroke="#000000" stroke-width="2" stroke-opacity="0.200000" d="M335.25,-182.52C383.64,-181.41 476.05,-177.88 486,-167 501.6,-149.95 493.71,-136.79 486,-115 482.31,-104.57 474.81,-94.84 467.78,-87.38"/>
<polygon fill="#000000" fill-opacity="0.200000" stroke="#000000" stroke-width="2" stroke-opacity="0.200000" points="469.33,-85.95 463.6,-83.2 466.36,-88.93 469.33,-85.95"/>
</g>
<!-- src/main/resolve&#45;options/normalize.mjs -->
<g id="node6" class="node">
<title>src/main/resolve&#45;options/normalize.mjs</title>
<g id="a_node6"><a xlink:href="src/main/resolve-options/normalize.mjs" xlink:title="normalize.mjs">
<path fill="#ffffcc" stroke="black" d="M398,-141C398,-141 336,-141 336,-141 333,-141 330,-138 330,-135 330,-135 330,-129 330,-129 330,-126 333,-123 336,-123 336,-123 398,-123 398,-123 401,-123 404,-126 404,-129 404,-129 404,-135 404,-135 404,-138 401,-141 398,-141"/>
<text text-anchor="start" x="338" y="-129.8" font-family="Helvetica,sans-Serif" font-size="9.00">normalize.mjs</text>
</a>
</g>
</g>
<!-- src/main/cruise.mjs&#45;&gt;src/main/resolve&#45;options/normalize.mjs -->
<g id="edge5" class="edge">
<title>src/main/cruise.mjs&#45;&gt;src/main/resolve&#45;options/normalize.mjs</title>
<path fill="none" stroke="#000000" stroke-width="2" stroke-dasharray="5,2" stroke-opacity="0.200000" d="M316.62,-174.56C319.65,-172.13 322.97,-169.47 326,-167 333.96,-160.52 342.72,-153.26 350.1,-147.13"/>
<polygon fill="#000000" fill-opacity="0.200000" stroke="#000000" stroke-width="2" stroke-opacity="0.200000" points="351.67,-147.89 354.93,-142.43 348.98,-144.66 351.67,-147.89"/>
</g>
<!-- src/main/rule&#45;set/normalize.mjs -->
<g id="node7" class="node">
<title>src/main/rule&#45;set/normalize.mjs</title>
<g id="a_node7"><a xlink:href="src/main/rule-set/normalize.mjs" xlink:title="normalize.mjs">
<path fill="#ffffcc" stroke="black" d="M100,-141C100,-141 38,-141 38,-141 35,-141 32,-138 32,-135 32,-135 32,-129 32,-129 32,-126 35,-123 38,-123 38,-123 100,-123 100,-123 103,-123 106,-126 106,-129 106,-129 106,-135 106,-135 106,-138 103,-141 100,-141"/>
<text text-anchor="start" x="40" y="-129.8" font-family="Helvetica,sans-Serif" font-size="9.00">normalize.mjs</text>
</a>
</g>
</g>
<!-- src/main/cruise.mjs&#45;&gt;src/main/rule&#45;set/normalize.mjs -->
<g id="edge6" class="edge">
<title>src/main/cruise.mjs&#45;&gt;src/main/rule&#45;set/normalize.mjs</title>
<path fill="none" stroke="#000000" stroke-width="2" stroke-dasharray="5,2" stroke-opacity="0.200000" d="M276.76,-182.6C230.35,-181.62 142.07,-178.29 113,-167 101.75,-162.63 91,-154.42 82.94,-147.17"/>
<polygon fill="#000000" fill-opacity="0.200000" stroke="#000000" stroke-width="2" stroke-opacity="0.200000" points="84.65,-146 78.85,-143.4 81.76,-149.05 84.65,-146"/>
</g>
<!-- src/main/rule&#45;set/validate.mjs -->
<g id="node8" class="node">
<title>src/main/rule&#45;set/validate.mjs</title>
<g id="a_node8"><a xlink:href="src/main/rule-set/validate.mjs" xlink:title="validate.mjs">
<path fill="#ffffcc" stroke="black" d="M177.5,-141C177.5,-141 124.5,-141 124.5,-141 121.5,-141 118.5,-138 118.5,-135 118.5,-135 118.5,-129 118.5,-129 118.5,-126 121.5,-123 124.5,-123 124.5,-123 177.5,-123 177.5,-123 180.5,-123 183.5,-126 183.5,-129 183.5,-129 183.5,-135 183.5,-135 183.5,-138 180.5,-141 177.5,-141"/>
<text text-anchor="start" x="126.5" y="-129.8" font-family="Helvetica,sans-Serif" font-size="9.00">validate.mjs</text>
</a>
</g>
</g>
<!-- src/main/cruise.mjs&#45;&gt;src/main/rule&#45;set/validate.mjs -->
<g id="edge7" class="edge">
<title>src/main/cruise.mjs&#45;&gt;src/main/rule&#45;set/validate.mjs</title>
<path fill="none" stroke="#000000" stroke-width="2" stroke-dasharray="5,2" stroke-opacity="0.200000" d="M276.75,-182.55C254.2,-181.3 222.64,-177.57 197,-167 185.64,-162.31 174.51,-154.21 166.05,-147.1"/>
<polygon fill="#000000" fill-opacity="0.200000" stroke="#000000" stroke-width="2" stroke-opacity="0.200000" points="167.25,-145.59 161.36,-143.2 164.47,-148.74 167.25,-145.59"/>
</g>
<!-- src/main/helpers.mjs -->
<g id="node10" class="node">
<title>src/main/helpers.mjs</title>
<g id="a_node10"><a xlink:href="src/main/helpers.mjs" xlink:title="helpers.mjs">
<path fill="#ffffcc" stroke="black" d="M177,-50C177,-50 125,-50 125,-50 122,-50 119,-47 119,-44 119,-44 119,-38 119,-38 119,-35 122,-32 125,-32 125,-32 177,-32 177,-32 180,-32 183,-35 183,-38 183,-38 183,-44 183,-44 183,-47 180,-50 177,-50"/>
<text text-anchor="start" x="127" y="-38.8" font-family="Helvetica,sans-Serif" font-size="9.00">helpers.mjs</text>
</a>
</g>
</g>
<!-- src/main/options/normalize.mjs&#45;&gt;src/main/helpers.mjs -->
<g id="edge13" class="edge">
<title>src/main/options/normalize.mjs&#45;&gt;src/main/helpers.mjs</title>
<path fill="none" stroke="#000000" stroke-width="2" stroke-opacity="0.200000" d="M297.96,-64.02C295.94,-63.67 293.95,-63.33 292,-63 258.41,-57.38 220.19,-51.73 192.03,-47.71"/>
<polygon fill="#000000" fill-opacity="0.200000" stroke="#000000" stroke-width="2" stroke-opacity="0.200000" points="191.49,-45.23 185.25,-46.47 190.9,-49.39 191.49,-45.23"/>
</g>
<!-- src/main/options/defaults.mjs -->
<g id="node13" class="node">
<title>src/main/options/defaults.mjs</title>
<g id="a_node13"><a xlink:href="src/main/options/defaults.mjs" xlink:title="defaults.mjs">
<path fill="#ffffcc" stroke="black" d="M361.5,-50C361.5,-50 308.5,-50 308.5,-50 305.5,-50 302.5,-47 302.5,-44 302.5,-44 302.5,-38 302.5,-38 302.5,-35 305.5,-32 308.5,-32 308.5,-32 361.5,-32 361.5,-32 364.5,-32 367.5,-35 367.5,-38 367.5,-38 367.5,-44 367.5,-44 367.5,-47 364.5,-50 361.5,-50"/>
<text text-anchor="start" x="310.5" y="-38.8" font-family="Helvetica,sans-Serif" font-size="9.00">defaults.mjs</text>
</a>
</g>
</g>
<!-- src/main/options/normalize.mjs&#45;&gt;src/main/options/defaults.mjs -->
<g id="edge14" class="edge">
<title>src/main/options/normalize.mjs&#45;&gt;src/main/options/defaults.mjs</title>
<path fill="none" stroke="#000000" stroke-width="2" stroke-opacity="0.200000" d="M335,-62.77C335,-61.67 335,-60.52 335,-59.35"/>
<polygon fill="#000000" fill-opacity="0.200000" stroke="#000000" stroke-width="2" stroke-opacity="0.200000" points="337.1,-59.35 335,-53.35 332.9,-59.35 337.1,-59.35"/>
</g>
<!-- src/main/rule&#45;set/normalize.mjs&#45;&gt;src/main/helpers.mjs -->
<g id="edge15" class="edge">
<title>src/main/rule&#45;set/normalize.mjs&#45;&gt;src/main/helpers.mjs</title>
<path fill="none" stroke="#000000" stroke-width="2" stroke-opacity="0.200000" d="M76.57,-122.79C90.35,-107.83 119.72,-75.95 137.17,-57.01"/>
<polygon fill="#000000" fill-opacity="0.200000" stroke="#000000" stroke-width="2" stroke-opacity="0.200000" points="138.69,-58.29 141.21,-52.45 135.6,-55.44 138.69,-58.29"/>
</g>
<!-- src/main/rule&#45;set/validate.mjs&#45;&gt;src/main/options/validate.mjs -->
<g id="edge17" class="edge">
<title>src/main/rule&#45;set/validate.mjs&#45;&gt;src/main/options/validate.mjs</title>
<path fill="none" stroke="#000000" stroke-width="2" stroke-opacity="0.200000" d="M174.94,-122.55C193.03,-116.13 215.07,-108.19 217,-107 225.56,-101.72 233.82,-94.16 240.26,-87.51"/>
<polygon fill="#000000" fill-opacity="0.200000" stroke="#000000" stroke-width="2" stroke-opacity="0.200000" points="241.49,-89.11 244.04,-83.29 238.42,-86.26 241.49,-89.11"/>
</g>
<!-- src/main/rule&#45;set/validate.mjs&#45;&gt;src/main/helpers.mjs -->
<g id="edge16" class="edge">
<title>src/main/rule&#45;set/validate.mjs&#45;&gt;src/main/helpers.mjs</title>
<path fill="none" stroke="#000000" stroke-width="2" stroke-opacity="0.200000" d="M151,-122.79C151,-108.42 151,-78.45 151,-59.32"/>
<polygon fill="#000000" fill-opacity="0.200000" stroke="#000000" stroke-width="2" stroke-opacity="0.200000" points="153.1,-59.45 151,-53.45 148.9,-59.45 153.1,-59.45"/>
</g>
<!-- src/main/format.mjs -->
<g id="node9" class="node">
<title>src/main/format.mjs</title>
<g id="a_node9"><a xlink:href="src/main/format.mjs" xlink:title="format.mjs">
<path fill="#ffffcc" stroke="black" d="M473.5,-141C473.5,-141 426.5,-141 426.5,-141 423.5,-141 420.5,-138 420.5,-135 420.5,-135 420.5,-129 420.5,-129 420.5,-126 423.5,-123 426.5,-123 426.5,-123 473.5,-123 473.5,-123 476.5,-123 479.5,-126 479.5,-129 479.5,-129 479.5,-135 479.5,-135 479.5,-138 476.5,-141 473.5,-141"/>
<text text-anchor="start" x="428.5" y="-129.8" font-family="Helvetica,sans-Serif" font-size="9.00">format.mjs</text>
</a>
</g>
</g>
<!-- src/main/format.mjs&#45;&gt;src/main/options/normalize.mjs -->
<g id="edge8" class="edge">
<title>src/main/format.mjs&#45;&gt;src/main/options/normalize.mjs</title>
<path fill="none" stroke="#000000" stroke-width="2" stroke-opacity="0.200000" d="M433.57,-122.56C427.81,-119.85 421.22,-117.03 415,-115 398.18,-109.51 391.95,-114.65 376,-107 365.91,-102.16 356.21,-94.3 348.77,-87.36"/>
<polygon fill="#000000" fill-opacity="0.200000" stroke="#000000" stroke-width="2" stroke-opacity="0.200000" points="350.39,-86.05 344.63,-83.35 347.45,-89.05 350.39,-86.05"/>
</g>
<!-- src/main/format.mjs&#45;&gt;src/main/options/validate.mjs -->
<g id="edge9" class="edge">
<title>src/main/format.mjs&#45;&gt;src/main/options/validate.mjs</title>
<path fill="none" stroke="#000000" stroke-width="2" stroke-opacity="0.200000" d="M434.76,-122.57C428.78,-119.66 421.74,-116.7 415,-115 388.44,-108.31 317.32,-117.44 292,-107 281.83,-102.81 272.46,-94.84 265.46,-87.67"/>
<polygon fill="#000000" fill-opacity="0.200000" stroke="#000000" stroke-width="2" stroke-opacity="0.200000" points="267.34,-86.44 261.73,-83.45 264.25,-89.29 267.34,-86.44"/>
</g>
<!-- src/main/format.mjs&#45;&gt;src/main/report&#45;wrap.mjs -->
<g id="edge10" class="edge">
<title>src/main/format.mjs&#45;&gt;src/main/report&#45;wrap.mjs</title>
<path fill="none" stroke="#000000" stroke-width="2" stroke-opacity="0.200000" d="M450.28,-122.94C450.57,-114.55 451.03,-101.15 451.4,-90.35"/>
<polygon fill="#000000" fill-opacity="0.200000" stroke="#000000" stroke-width="2" stroke-opacity="0.200000" points="453.6,-90.44 451.71,-84.37 449.41,-90.3 453.6,-90.44"/>
</g>
<!-- src/main/index.d.ts -->
<g id="node11" class="node">
<title>src/main/index.d.ts</title>
<g id="a_node11"><a xlink:href="src/main/index.d.ts" xlink:title="index.d.ts">
<path fill="#ccffcc" stroke="black" d="M470,-224C470,-224 426,-224 426,-224 423,-224 420,-221 420,-218 420,-218 420,-212 420,-212 420,-209 423,-206 426,-206 426,-206 470,-206 470,-206 473,-206 476,-209 476,-212 476,-212 476,-218 476,-218 476,-221 473,-224 470,-224"/>
<text text-anchor="start" x="428" y="-212.8" font-family="Helvetica,sans-Serif" font-size="9.00">index.d.ts</text>
</a>
</g>
</g>
<!-- src/main/index.mjs -->
<g id="node12" class="node">
<title>src/main/index.mjs</title>
<g id="a_node12"><a xlink:href="src/main/index.mjs" xlink:title="index.mjs">
<path fill="#ffffcc" stroke="black" d="M353,-224C353,-224 309,-224 309,-224 306,-224 303,-221 303,-218 303,-218 303,-212 303,-212 303,-209 306,-206 309,-206 309,-206 353,-206 353,-206 356,-206 359,-209 359,-212 359,-212 359,-218 359,-218 359,-221 356,-224 353,-224"/>
<text text-anchor="start" x="311" y="-212.8" font-family="Helvetica,sans-Serif" font-size="9.00">index.mjs</text>
</a>
</g>
</g>
<!-- src/main/index.mjs&#45;&gt;src/main/cruise.mjs -->
<g id="edge11" class="edge">
<title>src/main/index.mjs&#45;&gt;src/main/cruise.mjs</title>
<path fill="none" stroke="#000000" stroke-width="2" stroke-opacity="0.200000" d="M323.9,-205.77C322.33,-203.95 320.62,-201.96 318.9,-199.97"/>
<polygon fill="#000000" fill-opacity="0.200000" stroke="#000000" stroke-width="2" stroke-opacity="0.200000" points="319.71,-198.53 314.2,-195.35 316.53,-201.27 319.71,-198.53"/>
</g>
<!-- src/main/index.mjs&#45;&gt;src/main/format.mjs -->
<g id="edge12" class="edge">
<title>src/main/index.mjs&#45;&gt;src/main/format.mjs</title>
<path fill="none" stroke="#000000" stroke-width="2" stroke-opacity="0.200000" d="M349.2,-205.55C366.79,-196.98 393.83,-182.78 415,-167 422.58,-161.35 430.21,-154.16 436.39,-147.85"/>
<polygon fill="#000000" fill-opacity="0.200000" stroke="#000000" stroke-width="2" stroke-opacity="0.200000" points="437.86,-149.26 440.48,-143.46 434.82,-146.36 437.86,-149.26"/>
</g>
</g>
</svg>
