<?xml version="1.0" encoding="UTF-8" standalone="no"?>
<!DOCTYPE svg PUBLIC "-//W3C//DTD SVG 1.1//EN"
 "http://www.w3.org/Graphics/SVG/1.1/DTD/svg11.dtd">
<!-- Generated by graphviz version 2.42.3 (20191010.1750)
 -->
<!-- Title: dependency&#45;cruiser output Pages: 1 -->
<svg width="407pt" height="253pt"
 viewBox="0.00 0.00 407.00 253.00" xmlns="http://www.w3.org/2000/svg" xmlns:xlink="http://www.w3.org/1999/xlink">
<g id="graph0" class="graph" transform="scale(1 1) rotate(0) translate(4 249)">
<title>dependency&#45;cruiser output</title>
<polygon fill="white" stroke="transparent" points="-4,4 -4,-249 403,-249 403,4 -4,4"/>
<g id="clust1" class="cluster">
<title>cluster_src</title>
<path fill="#ffffff" stroke="black" stroke-width="2" d="M20,-8C20,-8 379,-8 379,-8 385,-8 391,-14 391,-20 391,-20 391,-225 391,-225 391,-231 385,-237 379,-237 379,-237 20,-237 20,-237 14,-237 8,-231 8,-225 8,-225 8,-20 8,-20 8,-14 14,-8 20,-8"/>
<text text-anchor="middle" x="199.5" y="-225.8" font-family="Helvetica,sans-Serif" font-weight="bold" font-size="9.00">src</text>
</g>
<g id="clust2" class="cluster">
<title>cluster_src/main</title>
<path fill="#ffffff" stroke="black" stroke-width="2" d="M28,-16C28,-16 371,-16 371,-16 377,-16 383,-22 383,-28 383,-28 383,-200 383,-200 383,-206 377,-212 371,-212 371,-212 28,-212 28,-212 22,-212 16,-206 16,-200 16,-200 16,-28 16,-28 16,-22 22,-16 28,-16"/>
<text text-anchor="middle" x="199.5" y="-200.8" font-family="Helvetica,sans-Serif" font-weight="bold" font-size="9.00">main</text>
</g>
<g id="clust4" class="cluster">
<title>cluster_src/main/options</title>
<path fill="#ffffff" stroke="black" stroke-width="2" d="M85,-24C85,-24 209,-24 209,-24 215,-24 221,-30 221,-36 221,-36 221,-92 221,-92 221,-98 215,-104 209,-104 209,-104 85,-104 85,-104 79,-104 73,-98 73,-92 73,-92 73,-36 73,-36 73,-30 79,-24 85,-24"/>
<text text-anchor="middle" x="147" y="-92.8" font-family="Helvetica,sans-Serif" font-weight="bold" font-size="9.00">options</text>
</g>
<g id="clust3" class="cluster">
<title>cluster_src/main/files&#45;and&#45;dirs</title>
<path fill="#ffffff" stroke="black" stroke-width="2" d="M36,-112C36,-112 92,-112 92,-112 98,-112 104,-118 104,-124 104,-124 104,-150 104,-150 104,-156 98,-162 92,-162 92,-162 36,-162 36,-162 30,-162 24,-156 24,-150 24,-150 24,-124 24,-124 24,-118 30,-112 36,-112"/>
<text text-anchor="middle" x="64" y="-150.8" font-family="Helvetica,sans-Serif" font-weight="bold" font-size="9.00">files&#45;and&#45;dirs</text>
</g>
<g id="clust5" class="cluster">
<title>cluster_src/main/resolve&#45;options</title>
<path fill="#ffffff" stroke="black" stroke-width="2" d="M148,-112C148,-112 207,-112 207,-112 213,-112 219,-118 219,-124 219,-124 219,-150 219,-150 219,-156 213,-162 207,-162 207,-162 148,-162 148,-162 142,-162 136,-156 136,-150 136,-150 136,-124 136,-124 136,-118 142,-112 148,-112"/>
<text text-anchor="middle" x="177.5" y="-150.8" font-family="Helvetica,sans-Serif" font-weight="bold" font-size="9.00">resolve&#45;options</text>
</g>
<g id="clust6" class="cluster">
<title>cluster_src/main/rule&#45;set</title>
<path fill="#ffffff" stroke="black" stroke-width="2" d="M239,-112C239,-112 363,-112 363,-112 369,-112 375,-118 375,-124 375,-124 375,-150 375,-150 375,-156 369,-162 363,-162 363,-162 239,-162 239,-162 233,-162 227,-156 227,-150 227,-150 227,-124 227,-124 227,-118 233,-112 239,-112"/>
<text text-anchor="middle" x="301" y="-150.8" font-family="Helvetica,sans-Serif" font-weight="bold" font-size="9.00">rule&#45;set</text>
</g>
<!-- src/main/files&#45;and&#45;dirs/normalize.js -->
<g id="node1" class="node">
<title>src/main/files&#45;and&#45;dirs/normalize.js</title>
<g id="a_node1"><a xlink:href="src/main/files-and-dirs/normalize.js" xlink:title="normalize.js">
<path fill="#ffffcc" stroke="black" d="M90.35,-137C90.35,-137 37.65,-137 37.65,-137 34.82,-137 31.99,-134.17 31.99,-131.33 31.99,-131.33 31.99,-125.67 31.99,-125.67 31.99,-122.83 34.82,-120 37.65,-120 37.65,-120 90.35,-120 90.35,-120 93.18,-120 96.01,-122.83 96.01,-125.67 96.01,-125.67 96.01,-131.33 96.01,-131.33 96.01,-134.17 93.18,-137 90.35,-137"/>
<text text-anchor="middle" x="64" y="-125.8" font-family="Helvetica,sans-Serif" font-size="9.00">normalize.js</text>
</a>
</g>
</g>
<!-- src/main/index.js -->
<g id="node2" class="node">
<title>src/main/index.js</title>
<g id="a_node2"><a xlink:href="src/main/index.js" xlink:title="index.js">
<path fill="#ffffcc" stroke="black" d="M172.33,-187C172.33,-187 129.67,-187 129.67,-187 126.83,-187 124,-184.17 124,-181.33 124,-181.33 124,-175.67 124,-175.67 124,-172.83 126.83,-170 129.67,-170 129.67,-170 172.33,-170 172.33,-170 175.17,-170 178,-172.83 178,-175.67 178,-175.67 178,-181.33 178,-181.33 178,-184.17 175.17,-187 172.33,-187"/>
<text text-anchor="middle" x="151" y="-175.8" font-family="Helvetica,sans-Serif" font-size="9.00">index.js</text>
</a>
</g>
</g>
<!-- src/main/index.js&#45;&gt;src/main/files&#45;and&#45;dirs/normalize.js -->
<g id="edge1" class="edge">
<title>src/main/index.js&#45;&gt;src/main/files&#45;and&#45;dirs/normalize.js</title>
<path fill="none" stroke="#000000" stroke-width="2" stroke-opacity="0.200000" d="M123.89,-171.65C115.89,-169.3 107.33,-166.15 100,-162 90.59,-156.68 81.57,-148.52 74.91,-141.71"/>
<polygon fill="#000000" fill-opacity="0.200000" stroke="#000000" stroke-width="2" stroke-opacity="0.200000" points="76.35,-140.18 70.7,-137.26 73.29,-143.06 76.35,-140.18"/>
</g>
<!-- src/main/options/normalize.js -->
<g id="node3" class="node">
<title>src/main/options/normalize.js</title>
<g id="a_node3"><a xlink:href="src/main/options/normalize.js" xlink:title="normalize.js">
<path fill="#ffffcc" stroke="black" d="M139.35,-79C139.35,-79 86.65,-79 86.65,-79 83.82,-79 80.99,-76.17 80.99,-73.33 80.99,-73.33 80.99,-67.67 80.99,-67.67 80.99,-64.83 83.82,-62 86.65,-62 86.65,-62 139.35,-62 139.35,-62 142.18,-62 145.01,-64.83 145.01,-67.67 145.01,-67.67 145.01,-73.33 145.01,-73.33 145.01,-76.17 142.18,-79 139.35,-79"/>
<text text-anchor="middle" x="113" y="-67.8" font-family="Helvetica,sans-Serif" font-size="9.00">normalize.js</text>
</a>
</g>
</g>
<!-- src/main/index.js&#45;&gt;src/main/options/normalize.js -->
<g id="edge2" class="edge">
<title>src/main/index.js&#45;&gt;src/main/options/normalize.js</title>
<path fill="none" stroke="#000000" stroke-width="2" stroke-opacity="0.200000" d="M129.52,-169.87C126.19,-167.8 123.16,-165.21 121,-162 105.42,-138.79 107.58,-104.34 110.38,-85.34"/>
<polygon fill="#000000" fill-opacity="0.200000" stroke="#000000" stroke-width="2" stroke-opacity="0.200000" points="112.51,-85.35 111.41,-79.09 108.36,-84.66 112.51,-85.35"/>
</g>
<!-- src/main/options/validate.js -->
<g id="node4" class="node">
<title>src/main/options/validate.js</title>
<g id="a_node4"><a xlink:href="src/main/options/validate.js" xlink:title="validate.js">
<path fill="#ffffcc" stroke="black" d="M207.35,-79C207.35,-79 162.65,-79 162.65,-79 159.81,-79 156.98,-76.17 156.98,-73.33 156.98,-73.33 156.98,-67.67 156.98,-67.67 156.98,-64.83 159.81,-62 162.65,-62 162.65,-62 207.35,-62 207.35,-62 210.19,-62 213.02,-64.83 213.02,-67.67 213.02,-67.67 213.02,-73.33 213.02,-73.33 213.02,-76.17 210.19,-79 207.35,-79"/>
<text text-anchor="middle" x="185" y="-67.8" font-family="Helvetica,sans-Serif" font-size="9.00">validate.js</text>
</a>
</g>
</g>
<!-- src/main/index.js&#45;&gt;src/main/options/validate.js -->
<g id="edge3" class="edge">
<title>src/main/index.js&#45;&gt;src/main/options/validate.js</title>
<path fill="none" stroke="#000000" stroke-width="2" stroke-opacity="0.200000" d="M139.12,-169.85C136.65,-167.64 134.38,-165 133,-162 123.74,-141.8 120.89,-130.63 133,-112 137.77,-104.66 143.73,-108.87 151,-104 159.43,-98.35 167.69,-90.52 173.96,-83.97"/>
<polygon fill="#000000" fill-opacity="0.200000" stroke="#000000" stroke-width="2" stroke-opacity="0.200000" points="175.79,-85.08 178.33,-79.26 172.71,-82.22 175.79,-85.08"/>
</g>
<!-- src/main/resolve&#45;options/normalize.js -->
<g id="node5" class="node">
<title>src/main/resolve&#45;options/normalize.js</title>
<g id="a_node5"><a xlink:href="src/main/resolve-options/normalize.js" xlink:title="normalize.js">
<path fill="#ffffcc" stroke="black" d="M202.35,-137C202.35,-137 149.65,-137 149.65,-137 146.82,-137 143.99,-134.17 143.99,-131.33 143.99,-131.33 143.99,-125.67 143.99,-125.67 143.99,-122.83 146.82,-120 149.65,-120 149.65,-120 202.35,-120 202.35,-120 205.18,-120 208.01,-122.83 208.01,-125.67 208.01,-125.67 208.01,-131.33 208.01,-131.33 208.01,-134.17 205.18,-137 202.35,-137"/>
<text text-anchor="middle" x="176" y="-125.8" font-family="Helvetica,sans-Serif" font-size="9.00">normalize.js</text>
</a>
</g>
</g>
<!-- src/main/index.js&#45;&gt;src/main/resolve&#45;options/normalize.js -->
<g id="edge4" class="edge">
<title>src/main/index.js&#45;&gt;src/main/resolve&#45;options/normalize.js</title>
<path fill="none" stroke="#000000" stroke-width="2" stroke-opacity="0.200000" d="M155.13,-169.57C158.91,-162.3 164.6,-151.39 169.08,-142.79"/>
<polygon fill="#000000" fill-opacity="0.200000" stroke="#000000" stroke-width="2" stroke-opacity="0.200000" points="171.04,-143.57 171.95,-137.28 167.31,-141.63 171.04,-143.57"/>
</g>
<!-- src/main/rule&#45;set/normalize.js -->
<g id="node6" class="node">
<title>src/main/rule&#45;set/normalize.js</title>
<g id="a_node6"><a xlink:href="src/main/rule-set/normalize.js" xlink:title="normalize.js">
<path fill="#ffffcc" stroke="black" d="M361.35,-137C361.35,-137 308.65,-137 308.65,-137 305.82,-137 302.99,-134.17 302.99,-131.33 302.99,-131.33 302.99,-125.67 302.99,-125.67 302.99,-122.83 305.82,-120 308.65,-120 308.65,-120 361.35,-120 361.35,-120 364.18,-120 367.01,-122.83 367.01,-125.67 367.01,-125.67 367.01,-131.33 367.01,-131.33 367.01,-134.17 364.18,-137 361.35,-137"/>
<text text-anchor="middle" x="335" y="-125.8" font-family="Helvetica,sans-Serif" font-size="9.00">normalize.js</text>
</a>
</g>
</g>
<!-- src/main/index.js&#45;&gt;src/main/rule&#45;set/normalize.js -->
<g id="edge5" class="edge">
<title>src/main/index.js&#45;&gt;src/main/rule&#45;set/normalize.js</title>
<path fill="none" stroke="#000000" stroke-width="2" stroke-opacity="0.200000" d="M178.21,-176.53C214.42,-174.92 276.28,-170.92 297,-162 307.49,-157.48 317.24,-149.02 324.24,-141.86"/>
<polygon fill="#000000" fill-opacity="0.200000" stroke="#000000" stroke-width="2" stroke-opacity="0.200000" points="326.05,-142.99 328.62,-137.18 322.98,-140.13 326.05,-142.99"/>
</g>
<!-- src/main/rule&#45;set/validate.js -->
<g id="node7" class="node">
<title>src/main/rule&#45;set/validate.js</title>
<g id="a_node7"><a xlink:href="src/main/rule-set/validate.js" xlink:title="validate.js">
<path fill="#ffffcc" stroke="black" d="M285.35,-137C285.35,-137 240.65,-137 240.65,-137 237.81,-137 234.98,-134.17 234.98,-131.33 234.98,-131.33 234.98,-125.67 234.98,-125.67 234.98,-122.83 237.81,-120 240.65,-120 240.65,-120 285.35,-120 285.35,-120 288.19,-120 291.02,-122.83 291.02,-125.67 291.02,-125.67 291.02,-131.33 291.02,-131.33 291.02,-134.17 288.19,-137 285.35,-137"/>
<text text-anchor="middle" x="263" y="-125.8" font-family="Helvetica,sans-Serif" font-size="9.00">validate.js</text>
</a>
</g>
</g>
<!-- src/main/index.js&#45;&gt;src/main/rule&#45;set/validate.js -->
<g id="edge6" class="edge">
<title>src/main/index.js&#45;&gt;src/main/rule&#45;set/validate.js</title>
<path fill="none" stroke="#000000" stroke-width="2" stroke-opacity="0.200000" d="M178.24,-174.51C191.86,-172.3 208.32,-168.48 222,-162 232.88,-156.85 243.48,-148.32 251.17,-141.29"/>
<polygon fill="#000000" fill-opacity="0.200000" stroke="#000000" stroke-width="2" stroke-opacity="0.200000" points="252.64,-142.8 255.57,-137.16 249.76,-139.74 252.64,-142.8"/>
</g>
<!-- src/main/options/defaults.json -->
<g id="node8" class="node">
<title>src/main/options/defaults.json</title>
<g id="a_node8"><a xlink:href="src/main/options/defaults.json" xlink:title="defaults.json">
<path fill="#ffee44" stroke="black" d="M141.37,-49C141.37,-49 86.63,-49 86.63,-49 83.8,-49 80.97,-46.17 80.97,-43.33 80.97,-43.33 80.97,-37.67 80.97,-37.67 80.97,-34.83 83.8,-32 86.63,-32 86.63,-32 141.37,-32 141.37,-32 144.2,-32 147.03,-34.83 147.03,-37.67 147.03,-37.67 147.03,-43.33 147.03,-43.33 147.03,-46.17 144.2,-49 141.37,-49"/>
<text text-anchor="middle" x="114" y="-37.8" font-family="Helvetica,sans-Serif" font-size="9.00">defaults.json</text>
</a>
</g>
</g>
<!-- src/main/options/normalize.js&#45;&gt;src/main/options/defaults.json -->
<g id="edge7" class="edge">
<title>src/main/options/normalize.js&#45;&gt;src/main/options/defaults.json</title>
<path fill="none" stroke="#000000" stroke-width="2" stroke-opacity="0.200000" d="M113.27,-61.85C113.34,-59.91 113.42,-57.76 113.5,-55.6"/>
<polygon fill="#000000" fill-opacity="0.200000" stroke="#000000" stroke-width="2" stroke-opacity="0.200000" points="115.6,-55.41 113.72,-49.34 111.41,-55.26 115.6,-55.41"/>
</g>
<!-- src/main/rule&#45;set/validate.js&#45;&gt;src/main/options/validate.js -->
<g id="edge8" class="edge">
<title>src/main/rule&#45;set/validate.js&#45;&gt;src/main/options/validate.js</title>
<path fill="none" stroke="#000000" stroke-width="2" stroke-opacity="0.200000" d="M252.48,-119.95C239.11,-110.35 215.9,-93.69 200.5,-82.63"/>
<polygon fill="#000000" fill-opacity="0.200000" stroke="#000000" stroke-width="2" stroke-opacity="0.200000" points="201.7,-80.9 195.6,-79.11 199.25,-84.32 201.7,-80.9"/>
</g>
</g>
</svg>
