<?xml version="1.0" encoding="UTF-8" standalone="no"?>
<!DOCTYPE svg PUBLIC "-//W3C//DTD SVG 1.1//EN"
 "http://www.w3.org/Graphics/SVG/1.1/DTD/svg11.dtd">
<!-- Generated by graphviz version 7.0.6 (20230106.0513)
 -->
<!-- Title: dependency&#45;cruiser output Pages: 1 -->
<svg width="450pt" height="146pt"
 viewBox="0.00 0.00 450.00 146.00" xmlns="http://www.w3.org/2000/svg" xmlns:xlink="http://www.w3.org/1999/xlink">
<g id="graph0" class="graph" transform="scale(1 1) rotate(0) translate(4 142)">
<title>dependency&#45;cruiser output</title>
<polygon fill="white" stroke="none" points="-4,4 -4,-142 446,-142 446,4 -4,4"/>
<g id="clust1" class="cluster">
<title>cluster_do&#45;things</title>
<path fill="#ffffff" stroke="black" stroke-width="2" d="M20,-8C20,-8 272,-8 272,-8 278,-8 284,-14 284,-20 284,-20 284,-100 284,-100 284,-106 278,-112 272,-112 272,-112 20,-112 20,-112 14,-112 8,-106 8,-100 8,-100 8,-20 8,-20 8,-14 14,-8 20,-8"/>
<text text-anchor="middle" x="146" y="-100.8" font-family="Helvetica,sans-Serif" font-weight="bold" font-size="9.00">do&#45;things</text>
</g>
<g id="clust2" class="cluster">
<title>cluster_node_modules</title>
<path fill="#ffffff" stroke="black" stroke-width="2" d="M366,-8C366,-8 422,-8 422,-8 428,-8 434,-14 434,-20 434,-20 434,-48 434,-48 434,-54 428,-60 422,-60 422,-60 366,-60 366,-60 360,-60 354,-54 354,-48 354,-48 354,-20 354,-20 354,-14 360,-8 366,-8"/>
<text text-anchor="middle" x="394" y="-48.8" font-family="Helvetica,sans-Serif" font-weight="bold" font-size="9.00">node_modules</text>
</g>
<!-- do&#45;things/analyze.ts -->
<g id="node1" class="node">
<title>do&#45;things/analyze.ts</title>
<g id="a_node1"><a xlink:href="do-things/analyze.ts" xlink:title="analyze.ts">
<path fill="#ddfeff" stroke="black" d="M68,-34C68,-34 22,-34 22,-34 19,-34 16,-31 16,-28 16,-28 16,-22 16,-22 16,-19 19,-16 22,-16 22,-16 68,-16 68,-16 71,-16 74,-19 74,-22 74,-22 74,-28 74,-28 74,-31 71,-34 68,-34"/>
<text text-anchor="start" x="24" y="-22.8" font-family="Helvetica,sans-Serif" font-size="9.00">analyze.ts</text>
</a>
</g>
</g>
<!-- do&#45;things/ingest.ts -->
<g id="node2" class="node">
<title>do&#45;things/ingest.ts</title>
<g id="a_node2"><a xlink:href="do-things/ingest.ts" xlink:title="ingest.ts">
<path fill="#ddfeff" stroke="black" d="M134,-34C134,-34 92,-34 92,-34 89,-34 86,-31 86,-28 86,-28 86,-22 86,-22 86,-19 89,-16 92,-16 92,-16 134,-16 134,-16 137,-16 140,-19 140,-22 140,-22 140,-28 140,-28 140,-31 137,-34 134,-34"/>
<text text-anchor="start" x="96" y="-22.8" font-family="Helvetica,sans-Serif" font-size="9.00">ingest.ts</text>
</a>
</g>
</g>
<!-- do&#45;things/main.ts -->
<g id="node3" class="node">
<title>do&#45;things/main.ts</title>
<g id="a_node3"><a xlink:href="do-things/main.ts" xlink:title="main.ts">
<path fill="#ddfeff" stroke="black" d="M68,-86C68,-86 26,-86 26,-86 23,-86 20,-83 20,-80 20,-80 20,-74 20,-74 20,-71 23,-68 26,-68 26,-68 68,-68 68,-68 71,-68 74,-71 74,-74 74,-74 74,-80 74,-80 74,-83 71,-86 68,-86"/>
<text text-anchor="start" x="32" y="-74.8" font-family="Helvetica,sans-Serif" font-size="9.00">main.ts</text>
</a>
</g>
</g>
<!-- do&#45;things/main.ts&#45;&gt;do&#45;things/analyze.ts -->
<g id="edge1" class="edge">
<title>do&#45;things/main.ts&#45;&gt;do&#45;things/analyze.ts</title>
<path fill="none" stroke="#000000" stroke-width="2" stroke-opacity="0.200000" d="M33.5,-67.94C33.5,-67.94 33.5,-43.33 33.5,-43.33"/>
<polygon fill="#000000" fill-opacity="0.200000" stroke="#000000" stroke-width="2" stroke-opacity="0.200000" points="35.6,-43.33 33.5,-37.33 31.4,-43.33 35.6,-43.33"/>
</g>
<!-- do&#45;things/main.ts&#45;&gt;do&#45;things/ingest.ts -->
<g id="edge2" class="edge">
<title>do&#45;things/main.ts&#45;&gt;do&#45;things/ingest.ts</title>
<path fill="none" stroke="#000000" stroke-width="2" stroke-opacity="0.200000" d="M74.25,-77C77.67,-77 80,-77 80,-77 80,-77 80,-25 80,-25 80,-25 80.57,-25 80.57,-25"/>
<polygon fill="#000000" fill-opacity="0.200000" stroke="#000000" stroke-width="2" stroke-opacity="0.200000" points="76.72,-27.1 82.72,-25 76.72,-22.9 76.72,-27.1"/>
</g>
<!-- do&#45;things/parse.ts -->
<g id="node4" class="node">
<title>do&#45;things/parse.ts</title>
<g id="a_node4"><a xlink:href="do-things/parse.ts" xlink:title="parse.ts">
<path fill="#ddfeff" stroke="black" d="M200,-34C200,-34 158,-34 158,-34 155,-34 152,-31 152,-28 152,-28 152,-22 152,-22 152,-19 155,-16 158,-16 158,-16 200,-16 200,-16 203,-16 206,-19 206,-22 206,-22 206,-28 206,-28 206,-31 203,-34 200,-34"/>
<text text-anchor="start" x="162.5" y="-22.8" font-family="Helvetica,sans-Serif" font-size="9.00">parse.ts</text>
</a>
</g>
</g>
<!-- do&#45;things/main.ts&#45;&gt;do&#45;things/parse.ts -->
<g id="edge3" class="edge">
<title>do&#45;things/main.ts&#45;&gt;do&#45;things/parse.ts</title>
<path fill="none" stroke="#000000" stroke-width="2" stroke-opacity="0.200000" d="M47,-67.8C47,-57.43 47,-42 47,-42 47,-42 170,-42 170,-42 170,-42 170,-41.23 170,-41.23"/>
<polygon fill="#000000" fill-opacity="0.200000" stroke="#000000" stroke-width="2" stroke-opacity="0.200000" points="172.1,-43.32 170,-37.32 167.9,-43.32 172.1,-43.32"/>
</g>
<!-- do&#45;things/validate.ts -->
<g id="node5" class="node">
<title>do&#45;things/validate.ts</title>
<g id="a_node5"><a xlink:href="do-things/validate.ts" xlink:title="validate.ts">
<path fill="#ddfeff" stroke="black" d="M270,-34C270,-34 224,-34 224,-34 221,-34 218,-31 218,-28 218,-28 218,-22 218,-22 218,-19 221,-16 224,-16 224,-16 270,-16 270,-16 273,-16 276,-19 276,-22 276,-22 276,-28 276,-28 276,-31 273,-34 270,-34"/>
<text text-anchor="start" x="226" y="-22.8" font-family="Helvetica,sans-Serif" font-size="9.00">validate.ts</text>
</a>
</g>
</g>
<!-- do&#45;things/main.ts&#45;&gt;do&#45;things/validate.ts -->
<g id="edge4" class="edge">
<title>do&#45;things/main.ts&#45;&gt;do&#45;things/validate.ts</title>
<path fill="none" stroke="#000000" stroke-width="2" stroke-opacity="0.200000" d="M60.5,-67.61C60.5,-60.17 60.5,-51 60.5,-51 60.5,-51 249,-51 249,-51 249,-51 249,-43.41 249,-43.41"/>
<polygon fill="#000000" fill-opacity="0.200000" stroke="#000000" stroke-width="2" stroke-opacity="0.200000" points="251.1,-43.41 249,-37.41 246.9,-43.41 251.1,-43.41"/>
</g>
<!-- do&#45;things/not&#45;used&#45;but&#45;using&#45;path.ts -->
<g id="node6" class="node">
<title>do&#45;things/not&#45;used&#45;but&#45;using&#45;path.ts</title>
<g id="a_node6"><a xlink:href="do-things/not-used-but-using-path.ts" xlink:title="not&#45;used&#45;but&#45;using&#45;path.ts">
<path fill="#ddfeff" stroke="black" d="M204,-86C204,-86 92,-86 92,-86 89,-86 86,-83 86,-80 86,-80 86,-74 86,-74 86,-71 89,-68 92,-68 92,-68 204,-68 204,-68 207,-68 210,-71 210,-74 210,-74 210,-80 210,-80 210,-83 207,-86 204,-86"/>
<text text-anchor="start" x="94" y="-74.8" font-family="Helvetica,sans-Serif" font-size="9.00">not&#45;used&#45;but&#45;using&#45;path.ts</text>
</a>
</g>
</g>
<!-- path -->
<g id="node7" class="node">
<title>path</title>
<g id="a_node7"><a xlink:title="path">
<path fill="#ffffcc" stroke="grey" d="M340,-34C340,-34 298,-34 298,-34 295,-34 292,-31 292,-28 292,-28 292,-22 292,-22 292,-19 295,-16 298,-16 298,-16 340,-16 340,-16 343,-16 346,-19 346,-22 346,-22 346,-28 346,-28 346,-31 343,-34 340,-34"/>
<text text-anchor="middle" x="319" y="-22.8" font-family="Helvetica,sans-Serif" font-size="9.00" fill="grey">path</text>
</a>
</g>
</g>
<!-- do&#45;things/not&#45;used&#45;but&#45;using&#45;path.ts&#45;&gt;path -->
<g id="edge5" class="edge">
<title>do&#45;things/not&#45;used&#45;but&#45;using&#45;path.ts&#45;&gt;path</title>
<path fill="none" stroke="#000000" stroke-dasharray="5,2" stroke-opacity="0.200000" d="M188,-67.58C188,-63.22 188,-59 188,-59 188,-59 319,-59 319,-59 319,-59 319,-41.8 319,-41.8"/>
<polygon fill="#000000" fill-opacity="0.200000" stroke="#000000" stroke-opacity="0.200000" points="321.1,-41.8 319,-35.8 316.9,-41.8 321.1,-41.8"/>
</g>
<!-- do&#45;things/report.ts -->
<g id="node8" class="node">
<title>do&#45;things/report.ts</title>
<g id="a_node8"><a xlink:href="do-things/report.ts" xlink:title="report.ts">
<path fill="#ddfeff" stroke="black" d="M270,-86C270,-86 228,-86 228,-86 225,-86 222,-83 222,-80 222,-80 222,-74 222,-74 222,-71 225,-68 228,-68 228,-68 270,-68 270,-68 273,-68 276,-71 276,-74 276,-74 276,-80 276,-80 276,-83 273,-86 270,-86"/>
<text text-anchor="start" x="232" y="-74.8" font-family="Helvetica,sans-Serif" font-size="9.00">report.ts</text>
</a>
</g>
</g>
<!-- node_modules/snodash -->
<g id="node9" class="node">
<title>node_modules/snodash</title>
<g id="a_node9"><a xlink:href="node_modules/snodash" xlink:title="snodash">
<polygon fill="#c40b0a" fill-opacity="0.101961" stroke="black" points="416,-34 364,-34 362,-32 362,-16 414,-16 416,-18 416,-34"/>
<polyline fill="none" stroke="black" points="414,-32 362,-32"/>
<polyline fill="none" stroke="black" points="414,-32 414,-16"/>
<polyline fill="none" stroke="black" points="414,-32 416,-34"/>
<text text-anchor="start" x="371" y="-22.8" font-family="Helvetica,sans-Serif" font-size="9.00" fill="#c40b0a">snodash</text>
</a>
</g>
</g>
<!-- do&#45;things/report.ts&#45;&gt;node_modules/snodash -->
<g id="edge6" class="edge">
<title>do&#45;things/report.ts&#45;&gt;node_modules/snodash</title>
<path fill="none" stroke="#000000" stroke-opacity="0.200000" d="M276.33,-77C317.07,-77 389,-77 389,-77 389,-77 389,-41.57 389,-41.57"/>
<polygon fill="#000000" fill-opacity="0.200000" stroke="#000000" stroke-opacity="0.200000" points="391.1,-41.57 389,-35.57 386.9,-41.57 391.1,-41.57"/>
</g>
<!-- index.ts -->
<g id="node10" class="node">
<title>index.ts</title>
<g id="a_node10"><a xlink:href="index.ts" xlink:title="index.ts">
<path fill="#ddfeff" stroke="black" d="M68,-138C68,-138 26,-138 26,-138 23,-138 20,-135 20,-132 20,-132 20,-126 20,-126 20,-123 23,-120 26,-120 26,-120 68,-120 68,-120 71,-120 74,-123 74,-126 74,-126 74,-132 74,-132 74,-135 71,-138 68,-138"/>
<text text-anchor="middle" x="47" y="-126.8" font-family="Helvetica,sans-Serif" font-size="9.00">index.ts</text>
</a>
</g>
</g>
<!-- index.ts&#45;&gt;do&#45;things/main.ts -->
<g id="edge7" class="edge">
<title>index.ts&#45;&gt;do&#45;things/main.ts</title>
<path fill="none" stroke="#000000" stroke-width="2" stroke-opacity="0.200000" d="M47,-119.94C47,-119.94 47,-95.33 47,-95.33"/>
<polygon fill="#000000" fill-opacity="0.200000" stroke="#000000" stroke-width="2" stroke-opacity="0.200000" points="49.1,-95.33 47,-89.33 44.9,-95.33 49.1,-95.33"/>
</g>
</g>
</svg>
