<?xml version="1.0" encoding="UTF-8" standalone="no"?>
<!DOCTYPE svg PUBLIC "-//W3C//DTD SVG 1.1//EN"
 "http://www.w3.org/Graphics/SVG/1.1/DTD/svg11.dtd">
<!-- Generated by graphviz version 3.0.0 (20220226.1711)
 -->
<!-- Title: dependency&#45;cruiser output Pages: 1 -->
<svg width="756pt" height="344pt"
 viewBox="0.00 0.00 756.00 344.00" xmlns="http://www.w3.org/2000/svg" xmlns:xlink="http://www.w3.org/1999/xlink">
<g id="graph0" class="graph" transform="scale(1 1) rotate(0) translate(4 340)">
<title>dependency&#45;cruiser output</title>
<polygon fill="white" stroke="transparent" points="-4,4 -4,-340 752,-340 752,4 -4,4"/>
<g id="clust1" class="cluster">
<title>cluster_node_modules</title>
<path fill="#ffffff" stroke="black" stroke-width="2" d="M244,-276C244,-276 327,-276 327,-276 333,-276 339,-282 339,-288 339,-288 339,-316 339,-316 339,-322 333,-328 327,-328 327,-328 244,-328 244,-328 238,-328 232,-322 232,-316 232,-316 232,-288 232,-288 232,-282 238,-276 244,-276"/>
<text text-anchor="middle" x="285.5" y="-316.8" font-family="Helvetica,sans-Serif" font-weight="bold" font-size="9.00">node_modules</text>
</g>
<!-- baseline&#45;violations.d.ts -->
<g id="node1" class="node">
<title>baseline&#45;violations.d.ts</title>
<g id="a_node1"><a xlink:href="https://github.com/sverweij/dependency-cruiser/blob/develop/baseline-violations.d.ts" xlink:title="baseline&#45;violations.d.ts">
<path fill="#ddfeff" stroke="black" d="M451,-190C451,-190 353,-190 353,-190 350,-190 347,-187 347,-184 347,-184 347,-178 347,-178 347,-175 350,-172 353,-172 353,-172 451,-172 451,-172 454,-172 457,-175 457,-178 457,-178 457,-184 457,-184 457,-187 454,-190 451,-190"/>
<text text-anchor="middle" x="402" y="-178.8" font-family="Helvetica,sans-Serif" font-size="9.00">baseline&#45;violations.d.ts</text>
</a>
</g>
</g>
<!-- violations.d.ts -->
<g id="node2" class="node">
<title>violations.d.ts</title>
<g id="a_node2"><a xlink:href="https://github.com/sverweij/dependency-cruiser/blob/develop/violations.d.ts" xlink:title="violations.d.ts">
<path fill="#ddfeff" stroke="black" d="M538.5,-190C538.5,-190 478.5,-190 478.5,-190 475.5,-190 472.5,-187 472.5,-184 472.5,-184 472.5,-178 472.5,-178 472.5,-175 475.5,-172 478.5,-172 478.5,-172 538.5,-172 538.5,-172 541.5,-172 544.5,-175 544.5,-178 544.5,-178 544.5,-184 544.5,-184 544.5,-187 541.5,-190 538.5,-190"/>
<text text-anchor="middle" x="508.5" y="-178.8" font-family="Helvetica,sans-Serif" font-size="9.00">violations.d.ts</text>
</a>
</g>
</g>
<!-- baseline&#45;violations.d.ts&#45;&gt;violations.d.ts -->
<g id="edge1" class="edge">
<title>baseline&#45;violations.d.ts&#45;&gt;violations.d.ts</title>
<path fill="none" stroke="#000000" stroke-width="2" stroke-opacity="0.200000" d="M457.12,-181C457.12,-181 466.39,-181 466.39,-181"/>
<polygon fill="#000000" fill-opacity="0.200000" stroke="#000000" stroke-width="2" stroke-opacity="0.200000" points="466.39,-183.1 472.39,-181 466.39,-178.9 466.39,-183.1"/>
</g>
<!-- rule&#45;summary.d.ts -->
<g id="node7" class="node">
<title>rule&#45;summary.d.ts</title>
<g id="a_node7"><a xlink:href="https://github.com/sverweij/dependency-cruiser/blob/develop/rule-summary.d.ts" xlink:title="rule&#45;summary.d.ts">
<path fill="#ddfeff" stroke="black" d="M643,-190C643,-190 566,-190 566,-190 563,-190 560,-187 560,-184 560,-184 560,-178 560,-178 560,-175 563,-172 566,-172 566,-172 643,-172 643,-172 646,-172 649,-175 649,-178 649,-178 649,-184 649,-184 649,-187 646,-190 643,-190"/>
<text text-anchor="middle" x="604.5" y="-178.8" font-family="Helvetica,sans-Serif" font-size="9.00">rule&#45;summary.d.ts</text>
</a>
</g>
</g>
<!-- violations.d.ts&#45;&gt;rule&#45;summary.d.ts -->
<g id="edge37" class="edge">
<title>violations.d.ts&#45;&gt;rule&#45;summary.d.ts</title>
<path fill="none" stroke="#000000" stroke-width="2" stroke-opacity="0.200000" d="M544.52,-184C544.52,-184 553.84,-184 553.84,-184"/>
<polygon fill="#000000" fill-opacity="0.200000" stroke="#000000" stroke-width="2" stroke-opacity="0.200000" points="553.84,-186.1 559.84,-184 553.84,-181.9 553.84,-186.1"/>
</g>
<!-- shared&#45;types.d.ts -->
<g id="node8" class="node">
<title>shared&#45;types.d.ts</title>
<g id="a_node8"><a xlink:href="https://github.com/sverweij/dependency-cruiser/blob/develop/shared-types.d.ts" xlink:title="shared&#45;types.d.ts">
<path fill="#ddfeff" stroke="black" d="M742,-106C742,-106 668,-106 668,-106 665,-106 662,-103 662,-100 662,-100 662,-94 662,-94 662,-91 665,-88 668,-88 668,-88 742,-88 742,-88 745,-88 748,-91 748,-94 748,-94 748,-100 748,-100 748,-103 745,-106 742,-106"/>
<text text-anchor="middle" x="705" y="-94.8" font-family="Helvetica,sans-Serif" font-size="9.00">shared&#45;types.d.ts</text>
</a>
</g>
</g>
<!-- violations.d.ts&#45;&gt;shared&#45;types.d.ts -->
<g id="edge38" class="edge">
<title>violations.d.ts&#45;&gt;shared&#45;types.d.ts</title>
<path fill="none" stroke="#000000" stroke-width="2" stroke-opacity="0.200000" d="M544.79,-178C550.2,-178 554,-178 554,-178 554,-178 554,-103.75 554,-103.75 554,-103.75 655.73,-103.75 655.73,-103.75"/>
<polygon fill="#000000" fill-opacity="0.200000" stroke="#000000" stroke-width="2" stroke-opacity="0.200000" points="655.73,-105.85 661.73,-103.75 655.73,-101.65 655.73,-105.85"/>
</g>
<!-- configuration.d.ts -->
<g id="node3" class="node">
<title>configuration.d.ts</title>
<g id="a_node3"><a xlink:href="https://github.com/sverweij/dependency-cruiser/blob/develop/configuration.d.ts" xlink:title="configuration.d.ts">
<path fill="#ddfeff" stroke="black" d="M213,-218C213,-218 139,-218 139,-218 136,-218 133,-215 133,-212 133,-212 133,-206 133,-206 133,-203 136,-200 139,-200 139,-200 213,-200 213,-200 216,-200 219,-203 219,-206 219,-206 219,-212 219,-212 219,-215 216,-218 213,-218"/>
<text text-anchor="middle" x="176" y="-206.8" font-family="Helvetica,sans-Serif" font-size="9.00">configuration.d.ts</text>
</a>
</g>
</g>
<!-- options.d.ts -->
<g id="node4" class="node">
<title>options.d.ts</title>
<g id="a_node4"><a xlink:href="https://github.com/sverweij/dependency-cruiser/blob/develop/options.d.ts" xlink:title="options.d.ts">
<path fill="#ddfeff" stroke="black" d="M311,-160C311,-160 260,-160 260,-160 257,-160 254,-157 254,-154 254,-154 254,-148 254,-148 254,-145 257,-142 260,-142 260,-142 311,-142 311,-142 314,-142 317,-145 317,-148 317,-148 317,-154 317,-154 317,-157 314,-160 311,-160"/>
<text text-anchor="middle" x="285.5" y="-148.8" font-family="Helvetica,sans-Serif" font-size="9.00">options.d.ts</text>
</a>
</g>
</g>
<!-- configuration.d.ts&#45;&gt;options.d.ts -->
<g id="edge2" class="edge">
<title>configuration.d.ts&#45;&gt;options.d.ts</title>
<path fill="none" stroke="#000000" stroke-width="2" stroke-opacity="0.200000" d="M219.19,-212C252.17,-212 292,-212 292,-212 292,-212 292,-166 292,-166"/>
<polygon fill="#000000" fill-opacity="0.200000" stroke="#000000" stroke-width="2" stroke-opacity="0.200000" points="294.1,-166 292,-160 289.9,-166 294.1,-166"/>
</g>
<!-- rule&#45;set.d.ts -->
<g id="node5" class="node">
<title>rule&#45;set.d.ts</title>
<g id="a_node5"><a xlink:href="https://github.com/sverweij/dependency-cruiser/blob/develop/rule-set.d.ts" xlink:title="rule&#45;set.d.ts">
<path fill="#ddfeff" stroke="black" d="M428,-48C428,-48 376,-48 376,-48 373,-48 370,-45 370,-42 370,-42 370,-36 370,-36 370,-33 373,-30 376,-30 376,-30 428,-30 428,-30 431,-30 434,-33 434,-36 434,-36 434,-42 434,-42 434,-45 431,-48 428,-48"/>
<text text-anchor="middle" x="402" y="-36.8" font-family="Helvetica,sans-Serif" font-size="9.00">rule&#45;set.d.ts</text>
</a>
</g>
</g>
<!-- configuration.d.ts&#45;&gt;rule&#45;set.d.ts -->
<g id="edge3" class="edge">
<title>configuration.d.ts&#45;&gt;rule&#45;set.d.ts</title>
<path fill="none" stroke="#000000" stroke-width="2" stroke-opacity="0.200000" d="M219.05,-206C235.33,-206 250,-206 250,-206 250,-206 250,-42 250,-42 250,-42 363.76,-42 363.76,-42"/>
<polygon fill="#000000" fill-opacity="0.200000" stroke="#000000" stroke-width="2" stroke-opacity="0.200000" points="363.76,-44.1 369.76,-42 363.76,-39.9 363.76,-44.1"/>
</g>
<!-- options.d.ts&#45;&gt;baseline&#45;violations.d.ts -->
<g id="edge16" class="edge">
<title>options.d.ts&#45;&gt;baseline&#45;violations.d.ts</title>
<path fill="none" stroke="#000000" stroke-width="2" stroke-opacity="0.200000" d="M305,-160.18C305,-168.67 305,-180 305,-180 305,-180 340.98,-180 340.98,-180"/>
<polygon fill="#000000" fill-opacity="0.200000" stroke="#000000" stroke-width="2" stroke-opacity="0.200000" points="340.98,-182.1 346.98,-180 340.98,-177.9 340.98,-182.1"/>
</g>
<!-- options.d.ts&#45;&gt;rule&#45;set.d.ts -->
<g id="edge19" class="edge">
<title>options.d.ts&#45;&gt;rule&#45;set.d.ts</title>
<path fill="none" stroke="#000000" stroke-width="2" stroke-opacity="0.200000" d="M280,-141.96C280,-116.33 280,-45 280,-45 280,-45 363.95,-45 363.95,-45"/>
<polygon fill="#000000" fill-opacity="0.200000" stroke="#000000" stroke-width="2" stroke-opacity="0.200000" points="363.95,-47.1 369.95,-45 363.95,-42.9 363.95,-47.1"/>
</g>
<!-- options.d.ts&#45;&gt;shared&#45;types.d.ts -->
<g id="edge20" class="edge">
<title>options.d.ts&#45;&gt;shared&#45;types.d.ts</title>
<path fill="none" stroke="#000000" stroke-width="2" stroke-opacity="0.200000" d="M292,-141.99C292,-127.16 292,-99.25 292,-99.25 292,-99.25 655.97,-99.25 655.97,-99.25"/>
<polygon fill="#000000" fill-opacity="0.200000" stroke="#000000" stroke-width="2" stroke-opacity="0.200000" points="655.97,-101.35 661.97,-99.25 655.97,-97.15 655.97,-101.35"/>
</g>
<!-- filter&#45;types.d.ts -->
<g id="node11" class="node">
<title>filter&#45;types.d.ts</title>
<g id="a_node11"><a xlink:href="https://github.com/sverweij/dependency-cruiser/blob/develop/filter-types.d.ts" xlink:title="filter&#45;types.d.ts">
<path fill="#ddfeff" stroke="black" d="M540,-134C540,-134 477,-134 477,-134 474,-134 471,-131 471,-128 471,-128 471,-122 471,-122 471,-119 474,-116 477,-116 477,-116 540,-116 540,-116 543,-116 546,-119 546,-122 546,-122 546,-128 546,-128 546,-131 543,-134 540,-134"/>
<text text-anchor="middle" x="508.5" y="-122.8" font-family="Helvetica,sans-Serif" font-size="9.00">filter&#45;types.d.ts</text>
</a>
</g>
</g>
<!-- options.d.ts&#45;&gt;filter&#45;types.d.ts -->
<g id="edge17" class="edge">
<title>options.d.ts&#45;&gt;filter&#45;types.d.ts</title>
<path fill="none" stroke="#000000" stroke-width="2" stroke-opacity="0.200000" d="M317.26,-151C381.54,-151 521,-151 521,-151 521,-151 521,-140.09 521,-140.09"/>
<polygon fill="#000000" fill-opacity="0.200000" stroke="#000000" stroke-width="2" stroke-opacity="0.200000" points="523.1,-140.09 521,-134.09 518.9,-140.09 523.1,-140.09"/>
</g>
<!-- reporter&#45;options.d.ts -->
<g id="node14" class="node">
<title>reporter&#45;options.d.ts</title>
<g id="a_node14"><a xlink:href="https://github.com/sverweij/dependency-cruiser/blob/develop/reporter-options.d.ts" xlink:title="reporter&#45;options.d.ts">
<path fill="#ddfeff" stroke="black" d="M445,-134C445,-134 359,-134 359,-134 356,-134 353,-131 353,-128 353,-128 353,-122 353,-122 353,-119 356,-116 359,-116 359,-116 445,-116 445,-116 448,-116 451,-119 451,-122 451,-122 451,-128 451,-128 451,-131 448,-134 445,-134"/>
<text text-anchor="middle" x="402" y="-122.8" font-family="Helvetica,sans-Serif" font-size="9.00">reporter&#45;options.d.ts</text>
</a>
</g>
</g>
<!-- options.d.ts&#45;&gt;reporter&#45;options.d.ts -->
<g id="edge18" class="edge">
<title>options.d.ts&#45;&gt;reporter&#45;options.d.ts</title>
<path fill="none" stroke="#000000" stroke-width="2" stroke-opacity="0.200000" d="M305,-141.91C305,-134.41 305,-125 305,-125 305,-125 346.93,-125 346.93,-125"/>
<polygon fill="#000000" fill-opacity="0.200000" stroke="#000000" stroke-width="2" stroke-opacity="0.200000" points="346.93,-127.1 352.93,-125 346.93,-122.9 346.93,-127.1"/>
</g>
<!-- rule&#45;set.d.ts&#45;&gt;shared&#45;types.d.ts -->
<g id="edge25" class="edge">
<title>rule&#45;set.d.ts&#45;&gt;shared&#45;types.d.ts</title>
<path fill="none" stroke="#000000" stroke-width="2" stroke-opacity="0.200000" d="M434.24,-39C515.09,-39 720,-39 720,-39 720,-39 720,-81.94 720,-81.94"/>
<polygon fill="#000000" fill-opacity="0.200000" stroke="#000000" stroke-width="2" stroke-opacity="0.200000" points="717.9,-81.94 720,-87.94 722.1,-81.94 717.9,-81.94"/>
</g>
<!-- restrictions.d.ts -->
<g id="node15" class="node">
<title>restrictions.d.ts</title>
<g id="a_node15"><a xlink:href="https://github.com/sverweij/dependency-cruiser/blob/develop/restrictions.d.ts" xlink:title="restrictions.d.ts">
<path fill="#ddfeff" stroke="black" d="M541,-26C541,-26 476,-26 476,-26 473,-26 470,-23 470,-20 470,-20 470,-14 470,-14 470,-11 473,-8 476,-8 476,-8 541,-8 541,-8 544,-8 547,-11 547,-14 547,-14 547,-20 547,-20 547,-23 544,-26 541,-26"/>
<text text-anchor="middle" x="508.5" y="-14.8" font-family="Helvetica,sans-Serif" font-size="9.00">restrictions.d.ts</text>
</a>
</g>
</g>
<!-- rule&#45;set.d.ts&#45;&gt;restrictions.d.ts -->
<g id="edge24" class="edge">
<title>rule&#45;set.d.ts&#45;&gt;restrictions.d.ts</title>
<path fill="none" stroke="#000000" stroke-width="2" stroke-opacity="0.200000" d="M402,-29.98C402,-26.13 402,-22.5 402,-22.5 402,-22.5 463.75,-22.5 463.75,-22.5"/>
<polygon fill="#000000" fill-opacity="0.200000" stroke="#000000" stroke-width="2" stroke-opacity="0.200000" points="463.75,-24.6 469.75,-22.5 463.75,-20.4 463.75,-24.6"/>
</g>
<!-- cruise&#45;result.d.ts -->
<g id="node6" class="node">
<title>cruise&#45;result.d.ts</title>
<g id="a_node6"><a xlink:href="https://github.com/sverweij/dependency-cruiser/blob/develop/cruise-result.d.ts" xlink:title="cruise&#45;result.d.ts">
<path fill="#ddfeff" stroke="black" d="M211.5,-188C211.5,-188 140.5,-188 140.5,-188 137.5,-188 134.5,-185 134.5,-182 134.5,-182 134.5,-176 134.5,-176 134.5,-173 137.5,-170 140.5,-170 140.5,-170 211.5,-170 211.5,-170 214.5,-170 217.5,-173 217.5,-176 217.5,-176 217.5,-182 217.5,-182 217.5,-185 214.5,-188 211.5,-188"/>
<text text-anchor="middle" x="176" y="-176.8" font-family="Helvetica,sans-Serif" font-size="9.00">cruise&#45;result.d.ts</text>
</a>
</g>
</g>
<!-- cruise&#45;result.d.ts&#45;&gt;violations.d.ts -->
<g id="edge8" class="edge">
<title>cruise&#45;result.d.ts&#45;&gt;violations.d.ts</title>
<path fill="none" stroke="#000000" stroke-width="2" stroke-opacity="0.200000" d="M201,-169.78C201,-167.99 201,-166.67 201,-166.67 201,-166.67 497,-166.67 497,-166.67 497,-166.67 497,-167.18 497,-167.18"/>
<polygon fill="#000000" fill-opacity="0.200000" stroke="#000000" stroke-width="2" stroke-opacity="0.200000" points="494.9,-165.84 497,-171.84 499.1,-165.84 494.9,-165.84"/>
</g>
<!-- cruise&#45;result.d.ts&#45;&gt;options.d.ts -->
<g id="edge4" class="edge">
<title>cruise&#45;result.d.ts&#45;&gt;options.d.ts</title>
<path fill="none" stroke="#000000" stroke-width="2" stroke-opacity="0.200000" d="M217.51,-184C241.51,-184 267,-184 267,-184 267,-184 267,-166.02 267,-166.02"/>
<polygon fill="#000000" fill-opacity="0.200000" stroke="#000000" stroke-width="2" stroke-opacity="0.200000" points="269.1,-166.02 267,-160.02 264.9,-166.02 269.1,-166.02"/>
</g>
<!-- cruise&#45;result.d.ts&#45;&gt;rule&#45;set.d.ts -->
<g id="edge5" class="edge">
<title>cruise&#45;result.d.ts&#45;&gt;rule&#45;set.d.ts</title>
<path fill="none" stroke="#000000" stroke-width="2" stroke-opacity="0.200000" d="M217.88,-176C233.72,-176 248,-176 248,-176 248,-176 248,-39 248,-39 248,-39 363.72,-39 363.72,-39"/>
<polygon fill="#000000" fill-opacity="0.200000" stroke="#000000" stroke-width="2" stroke-opacity="0.200000" points="363.72,-41.1 369.72,-39 363.72,-36.9 363.72,-41.1"/>
</g>
<!-- cruise&#45;result.d.ts&#45;&gt;rule&#45;summary.d.ts -->
<g id="edge6" class="edge">
<title>cruise&#45;result.d.ts&#45;&gt;rule&#45;summary.d.ts</title>
<path fill="none" stroke="#000000" stroke-width="2" stroke-opacity="0.200000" d="M185,-169.71C185,-166.33 185,-163.33 185,-163.33 185,-163.33 605,-163.33 605,-163.33 605,-163.33 605,-165.75 605,-165.75"/>
<polygon fill="#000000" fill-opacity="0.200000" stroke="#000000" stroke-width="2" stroke-opacity="0.200000" points="602.9,-165.75 605,-171.75 607.1,-165.75 602.9,-165.75"/>
</g>
<!-- cruise&#45;result.d.ts&#45;&gt;shared&#45;types.d.ts -->
<g id="edge7" class="edge">
<title>cruise&#45;result.d.ts&#45;&gt;shared&#45;types.d.ts</title>
<path fill="none" stroke="#000000" stroke-width="2" stroke-opacity="0.200000" d="M152,-169.91C152,-148.56 152,-97 152,-97 152,-97 655.61,-97 655.61,-97"/>
<polygon fill="#000000" fill-opacity="0.200000" stroke="#000000" stroke-width="2" stroke-opacity="0.200000" points="655.61,-99.1 661.61,-97 655.61,-94.9 655.61,-99.1"/>
</g>
<!-- rule&#45;summary.d.ts&#45;&gt;shared&#45;types.d.ts -->
<g id="edge26" class="edge">
<title>rule&#45;summary.d.ts&#45;&gt;shared&#45;types.d.ts</title>
<path fill="none" stroke="#000000" stroke-width="2" stroke-opacity="0.200000" d="M649.02,-181C670.21,-181 691,-181 691,-181 691,-181 691,-112.31 691,-112.31"/>
<polygon fill="#000000" fill-opacity="0.200000" stroke="#000000" stroke-width="2" stroke-opacity="0.200000" points="693.1,-112.31 691,-106.31 688.9,-112.31 693.1,-112.31"/>
</g>
<!-- dependency&#45;cruiser.d.ts -->
<g id="node9" class="node">
<title>dependency&#45;cruiser.d.ts</title>
<g id="a_node9"><a xlink:href="https://github.com/sverweij/dependency-cruiser/blob/develop/dependency-cruiser.d.ts" xlink:title="dependency&#45;cruiser.d.ts">
<path fill="#ddfeff" stroke="black" d="M109,-203C109,-203 6,-203 6,-203 3,-203 0,-200 0,-197 0,-197 0,-191 0,-191 0,-188 3,-185 6,-185 6,-185 109,-185 109,-185 112,-185 115,-188 115,-191 115,-191 115,-197 115,-197 115,-200 112,-203 109,-203"/>
<text text-anchor="middle" x="57.5" y="-191.8" font-family="Helvetica,sans-Serif" font-size="9.00">dependency&#45;cruiser.d.ts</text>
</a>
</g>
</g>
<!-- dependency&#45;cruiser.d.ts&#45;&gt;configuration.d.ts -->
<g id="edge9" class="edge">
<title>dependency&#45;cruiser.d.ts&#45;&gt;configuration.d.ts</title>
<path fill="none" stroke="#000000" stroke-width="2" stroke-opacity="0.200000" d="M108,-203.24C108,-206.33 108,-209 108,-209 108,-209 126.93,-209 126.93,-209"/>
<polygon fill="#000000" fill-opacity="0.200000" stroke="#000000" stroke-width="2" stroke-opacity="0.200000" points="126.93,-211.1 132.93,-209 126.93,-206.9 126.93,-211.1"/>
</g>
<!-- dependency&#45;cruiser.d.ts&#45;&gt;options.d.ts -->
<g id="edge11" class="edge">
<title>dependency&#45;cruiser.d.ts&#45;&gt;options.d.ts</title>
<path fill="none" stroke="#000000" stroke-width="2" stroke-opacity="0.200000" d="M115.09,-195C181.01,-195 280,-195 280,-195 280,-195 280,-166.33 280,-166.33"/>
<polygon fill="#000000" fill-opacity="0.200000" stroke="#000000" stroke-width="2" stroke-opacity="0.200000" points="282.1,-166.33 280,-160.33 277.9,-166.33 282.1,-166.33"/>
</g>
<!-- dependency&#45;cruiser.d.ts&#45;&gt;rule&#45;set.d.ts -->
<g id="edge13" class="edge">
<title>dependency&#45;cruiser.d.ts&#45;&gt;rule&#45;set.d.ts</title>
<path fill="none" stroke="#000000" stroke-width="2" stroke-opacity="0.200000" d="M58,-184.59C58,-150.58 58,-36 58,-36 58,-36 363.95,-36 363.95,-36"/>
<polygon fill="#000000" fill-opacity="0.200000" stroke="#000000" stroke-width="2" stroke-opacity="0.200000" points="363.95,-38.1 369.95,-36 363.95,-33.9 363.95,-38.1"/>
</g>
<!-- dependency&#45;cruiser.d.ts&#45;&gt;cruise&#45;result.d.ts -->
<g id="edge10" class="edge">
<title>dependency&#45;cruiser.d.ts&#45;&gt;cruise&#45;result.d.ts</title>
<path fill="none" stroke="#000000" stroke-width="2" stroke-opacity="0.200000" d="M115.01,-192.5C145.21,-192.5 176,-192.5 176,-192.5 176,-192.5 176,-192.07 176,-192.07"/>
<polygon fill="#000000" fill-opacity="0.200000" stroke="#000000" stroke-width="2" stroke-opacity="0.200000" points="178.1,-194.23 176,-188.23 173.9,-194.23 178.1,-194.23"/>
</g>
<!-- dependency&#45;cruiser.d.ts&#45;&gt;shared&#45;types.d.ts -->
<g id="edge14" class="edge">
<title>dependency&#45;cruiser.d.ts&#45;&gt;shared&#45;types.d.ts</title>
<path fill="none" stroke="#000000" stroke-width="2" stroke-opacity="0.200000" d="M115.13,-197.5C276.32,-197.5 720,-197.5 720,-197.5 720,-197.5 720,-112.27 720,-112.27"/>
<polygon fill="#000000" fill-opacity="0.200000" stroke="#000000" stroke-width="2" stroke-opacity="0.200000" points="722.1,-112.27 720,-106.27 717.9,-112.27 722.1,-112.27"/>
</g>
<!-- resolve&#45;options.d.ts -->
<g id="node10" class="node">
<title>resolve&#45;options.d.ts</title>
<g id="a_node10"><a xlink:href="https://github.com/sverweij/dependency-cruiser/blob/develop/resolve-options.d.ts" xlink:title="resolve&#45;options.d.ts">
<path fill="#ddfeff" stroke="black" d="M218,-275C218,-275 134,-275 134,-275 131,-275 128,-272 128,-269 128,-269 128,-263 128,-263 128,-260 131,-257 134,-257 134,-257 218,-257 218,-257 221,-257 224,-260 224,-263 224,-263 224,-269 224,-269 224,-272 221,-275 218,-275"/>
<text text-anchor="middle" x="176" y="-263.8" font-family="Helvetica,sans-Serif" font-size="9.00">resolve&#45;options.d.ts</text>
</a>
</g>
</g>
<!-- dependency&#45;cruiser.d.ts&#45;&gt;resolve&#45;options.d.ts -->
<g id="edge12" class="edge">
<title>dependency&#45;cruiser.d.ts&#45;&gt;resolve&#45;options.d.ts</title>
<path fill="none" stroke="#000000" stroke-width="2" stroke-opacity="0.200000" d="M101,-203.12C101,-222.49 101,-266 101,-266 101,-266 121.65,-266 121.65,-266"/>
<polygon fill="#000000" fill-opacity="0.200000" stroke="#000000" stroke-width="2" stroke-opacity="0.200000" points="121.65,-268.1 127.65,-266 121.65,-263.9 121.65,-268.1"/>
</g>
<!-- node_modules/enhanced&#45;resolve -->
<g id="node13" class="node">
<title>node_modules/enhanced&#45;resolve</title>
<g id="a_node13"><a xlink:href="https://github.com/sverweij/dependency-cruiser/blob/develop/node_modules/enhanced-resolve" xlink:title="enhanced&#45;resolve">
<polygon fill="#c40b0a" fill-opacity="0.101961" stroke="black" points="331,-302 242,-302 240,-300 240,-284 329,-284 331,-286 331,-302"/>
<polyline fill="none" stroke="black" points="329,-300 240,-300 "/>
<polyline fill="none" stroke="black" points="329,-300 329,-284 "/>
<polyline fill="none" stroke="black" points="329,-300 331,-302 "/>
<text text-anchor="start" x="248" y="-290.8" font-family="Helvetica,sans-Serif" font-size="9.00" fill="#c40b0a">enhanced&#45;resolve</text>
</a>
</g>
</g>
<!-- resolve&#45;options.d.ts&#45;&gt;node_modules/enhanced&#45;resolve -->
<g id="edge22" class="edge">
<title>resolve&#45;options.d.ts&#45;&gt;node_modules/enhanced&#45;resolve</title>
<path fill="none" stroke="#000000" stroke-opacity="0.200000" d="M224.13,-266C239.21,-266 252,-266 252,-266 252,-266 252,-277.86 252,-277.86"/>
<polygon fill="#000000" fill-opacity="0.200000" stroke="#000000" stroke-opacity="0.200000" points="249.9,-277.86 252,-283.86 254.1,-277.86 249.9,-277.86"/>
</g>
<!-- filter&#45;types.d.ts&#45;&gt;shared&#45;types.d.ts -->
<g id="edge15" class="edge">
<title>filter&#45;types.d.ts&#45;&gt;shared&#45;types.d.ts</title>
<path fill="none" stroke="#000000" stroke-width="2" stroke-opacity="0.200000" d="M528,-115.98C528,-109.35 528,-101.5 528,-101.5 528,-101.5 655.7,-101.5 655.7,-101.5"/>
<polygon fill="#000000" fill-opacity="0.200000" stroke="#000000" stroke-width="2" stroke-opacity="0.200000" points="655.7,-103.6 661.7,-101.5 655.7,-99.4 655.7,-103.6"/>
</g>
<!-- init&#45;config.d.ts -->
<g id="node12" class="node">
<title>init&#45;config.d.ts</title>
<g id="a_node12"><a xlink:href="https://github.com/sverweij/dependency-cruiser/blob/develop/init-config.d.ts" xlink:title="init&#45;config.d.ts">
<path fill="#ccffcc" stroke="black" d="M88,-233C88,-233 27,-233 27,-233 24,-233 21,-230 21,-227 21,-227 21,-221 21,-221 21,-218 24,-215 27,-215 27,-215 88,-215 88,-215 91,-215 94,-218 94,-221 94,-221 94,-227 94,-227 94,-230 91,-233 88,-233"/>
<text text-anchor="middle" x="57.5" y="-221.8" font-family="Helvetica,sans-Serif" font-size="9.00">init&#45;config.d.ts</text>
</a>
</g>
</g>
<!-- reporter&#45;options.d.ts&#45;&gt;filter&#45;types.d.ts -->
<g id="edge21" class="edge">
<title>reporter&#45;options.d.ts&#45;&gt;filter&#45;types.d.ts</title>
<path fill="none" stroke="#000000" stroke-width="2" stroke-opacity="0.200000" d="M451.2,-125C451.2,-125 464.98,-125 464.98,-125"/>
<polygon fill="#000000" fill-opacity="0.200000" stroke="#000000" stroke-width="2" stroke-opacity="0.200000" points="464.98,-127.1 470.98,-125 464.98,-122.9 464.98,-127.1"/>
</g>
<!-- restrictions.d.ts&#45;&gt;shared&#45;types.d.ts -->
<g id="edge23" class="edge">
<title>restrictions.d.ts&#45;&gt;shared&#45;types.d.ts</title>
<path fill="none" stroke="#000000" stroke-width="2" stroke-opacity="0.200000" d="M509,-26.28C509,-45.99 509,-90.25 509,-90.25 509,-90.25 655.99,-90.25 655.99,-90.25"/>
<polygon fill="#000000" fill-opacity="0.200000" stroke="#000000" stroke-width="2" stroke-opacity="0.200000" points="655.99,-92.35 661.99,-90.25 655.99,-88.15 655.99,-92.35"/>
</g>
<!-- strict&#45;filter&#45;types.d.ts -->
<g id="node16" class="node">
<title>strict&#45;filter&#45;types.d.ts</title>
<g id="a_node16"><a xlink:href="https://github.com/sverweij/dependency-cruiser/blob/develop/strict-filter-types.d.ts" xlink:title="strict&#45;filter&#45;types.d.ts">
<path fill="#ddfeff" stroke="black" d="M444.5,-78C444.5,-78 359.5,-78 359.5,-78 356.5,-78 353.5,-75 353.5,-72 353.5,-72 353.5,-66 353.5,-66 353.5,-63 356.5,-60 359.5,-60 359.5,-60 444.5,-60 444.5,-60 447.5,-60 450.5,-63 450.5,-66 450.5,-66 450.5,-72 450.5,-72 450.5,-75 447.5,-78 444.5,-78"/>
<text text-anchor="middle" x="402" y="-66.8" font-family="Helvetica,sans-Serif" font-size="9.00">strict&#45;filter&#45;types.d.ts</text>
</a>
</g>
</g>
<!-- strict&#45;filter&#45;types.d.ts&#45;&gt;shared&#45;types.d.ts -->
<g id="edge28" class="edge">
<title>strict&#45;filter&#45;types.d.ts&#45;&gt;shared&#45;types.d.ts</title>
<path fill="none" stroke="#000000" stroke-width="2" stroke-opacity="0.200000" d="M450.7,-66C533.06,-66 691,-66 691,-66 691,-66 691,-81.87 691,-81.87"/>
<polygon fill="#000000" fill-opacity="0.200000" stroke="#000000" stroke-width="2" stroke-opacity="0.200000" points="688.9,-81.87 691,-87.87 693.1,-81.87 688.9,-81.87"/>
</g>
<!-- strict&#45;filter&#45;types.d.ts&#45;&gt;filter&#45;types.d.ts -->
<g id="edge27" class="edge">
<title>strict&#45;filter&#45;types.d.ts&#45;&gt;filter&#45;types.d.ts</title>
<path fill="none" stroke="#000000" stroke-width="2" stroke-opacity="0.200000" d="M450.63,-72C470.98,-72 490,-72 490,-72 490,-72 490,-109.77 490,-109.77"/>
<polygon fill="#000000" fill-opacity="0.200000" stroke="#000000" stroke-width="2" stroke-opacity="0.200000" points="487.9,-109.77 490,-115.77 492.1,-109.77 487.9,-109.77"/>
</g>
<!-- strict&#45;options.d.ts -->
<g id="node17" class="node">
<title>strict&#45;options.d.ts</title>
<g id="a_node17"><a xlink:href="https://github.com/sverweij/dependency-cruiser/blob/develop/strict-options.d.ts" xlink:title="strict&#45;options.d.ts">
<path fill="#ddfeff" stroke="black" d="M212.5,-77C212.5,-77 139.5,-77 139.5,-77 136.5,-77 133.5,-74 133.5,-71 133.5,-71 133.5,-65 133.5,-65 133.5,-62 136.5,-59 139.5,-59 139.5,-59 212.5,-59 212.5,-59 215.5,-59 218.5,-62 218.5,-65 218.5,-65 218.5,-71 218.5,-71 218.5,-74 215.5,-77 212.5,-77"/>
<text text-anchor="middle" x="176" y="-65.8" font-family="Helvetica,sans-Serif" font-size="9.00">strict&#45;options.d.ts</text>
</a>
</g>
</g>
<!-- strict&#45;options.d.ts&#45;&gt;options.d.ts -->
<g id="edge29" class="edge">
<title>strict&#45;options.d.ts&#45;&gt;options.d.ts</title>
<path fill="none" stroke="#000000" stroke-width="2" stroke-opacity="0.200000" d="M218.57,-72.75C242.25,-72.75 267,-72.75 267,-72.75 267,-72.75 267,-135.72 267,-135.72"/>
<polygon fill="#000000" fill-opacity="0.200000" stroke="#000000" stroke-width="2" stroke-opacity="0.200000" points="264.9,-135.72 267,-141.72 269.1,-135.72 264.9,-135.72"/>
</g>
<!-- strict&#45;options.d.ts&#45;&gt;shared&#45;types.d.ts -->
<g id="edge30" class="edge">
<title>strict&#45;options.d.ts&#45;&gt;shared&#45;types.d.ts</title>
<path fill="none" stroke="#000000" stroke-width="2" stroke-opacity="0.200000" d="M168,-77.06C168,-84.82 168,-94.75 168,-94.75 168,-94.75 655.96,-94.75 655.96,-94.75"/>
<polygon fill="#000000" fill-opacity="0.200000" stroke="#000000" stroke-width="2" stroke-opacity="0.200000" points="655.96,-96.85 661.96,-94.75 655.96,-92.65 655.96,-96.85"/>
</g>
<!-- strict&#45;options.d.ts&#45;&gt;strict&#45;filter&#45;types.d.ts -->
<g id="edge31" class="edge">
<title>strict&#45;options.d.ts&#45;&gt;strict&#45;filter&#45;types.d.ts</title>
<path fill="none" stroke="#000000" stroke-width="2" stroke-opacity="0.200000" d="M218.51,-68.5C218.51,-68.5 347.4,-68.5 347.4,-68.5"/>
<polygon fill="#000000" fill-opacity="0.200000" stroke="#000000" stroke-width="2" stroke-opacity="0.200000" points="347.4,-70.6 353.4,-68.5 347.4,-66.4 347.4,-70.6"/>
</g>
<!-- strict&#45;rule&#45;set.d.ts -->
<g id="node18" class="node">
<title>strict&#45;rule&#45;set.d.ts</title>
<g id="a_node18"><a xlink:href="https://github.com/sverweij/dependency-cruiser/blob/develop/strict-rule-set.d.ts" xlink:title="strict&#45;rule&#45;set.d.ts">
<path fill="#ddfeff" stroke="black" d="M322.5,-19C322.5,-19 248.5,-19 248.5,-19 245.5,-19 242.5,-16 242.5,-13 242.5,-13 242.5,-7 242.5,-7 242.5,-4 245.5,-1 248.5,-1 248.5,-1 322.5,-1 322.5,-1 325.5,-1 328.5,-4 328.5,-7 328.5,-7 328.5,-13 328.5,-13 328.5,-16 325.5,-19 322.5,-19"/>
<text text-anchor="middle" x="285.5" y="-7.8" font-family="Helvetica,sans-Serif" font-size="9.00">strict&#45;rule&#45;set.d.ts</text>
</a>
</g>
</g>
<!-- strict&#45;options.d.ts&#45;&gt;strict&#45;rule&#45;set.d.ts -->
<g id="edge32" class="edge">
<title>strict&#45;options.d.ts&#45;&gt;strict&#45;rule&#45;set.d.ts</title>
<path fill="none" stroke="#000000" stroke-width="2" stroke-opacity="0.200000" d="M218.52,-64.25C232.72,-64.25 245,-64.25 245,-64.25 245,-64.25 245,-25.45 245,-25.45"/>
<polygon fill="#000000" fill-opacity="0.200000" stroke="#000000" stroke-width="2" stroke-opacity="0.200000" points="247.1,-25.45 245,-19.45 242.9,-25.45 247.1,-25.45"/>
</g>
<!-- strict&#45;rule&#45;set.d.ts&#45;&gt;rule&#45;set.d.ts -->
<g id="edge34" class="edge">
<title>strict&#45;rule&#45;set.d.ts&#45;&gt;rule&#45;set.d.ts</title>
<path fill="none" stroke="#000000" stroke-width="2" stroke-opacity="0.200000" d="M325,-19.09C325,-25.52 325,-33 325,-33 325,-33 363.79,-33 363.79,-33"/>
<polygon fill="#000000" fill-opacity="0.200000" stroke="#000000" stroke-width="2" stroke-opacity="0.200000" points="363.79,-35.1 369.79,-33 363.79,-30.9 363.79,-35.1"/>
</g>
<!-- strict&#45;rule&#45;set.d.ts&#45;&gt;shared&#45;types.d.ts -->
<g id="edge35" class="edge">
<title>strict&#45;rule&#45;set.d.ts&#45;&gt;shared&#45;types.d.ts</title>
<path fill="none" stroke="#000000" stroke-width="2" stroke-opacity="0.200000" d="M321,-19.14C321,-40.62 321,-92.5 321,-92.5 321,-92.5 655.7,-92.5 655.7,-92.5"/>
<polygon fill="#000000" fill-opacity="0.200000" stroke="#000000" stroke-width="2" stroke-opacity="0.200000" points="655.7,-94.6 661.7,-92.5 655.7,-90.4 655.7,-94.6"/>
</g>
<!-- strict&#45;restrictions.d.ts -->
<g id="node19" class="node">
<title>strict&#45;restrictions.d.ts</title>
<g id="a_node19"><a xlink:href="https://github.com/sverweij/dependency-cruiser/blob/develop/strict-restrictions.d.ts" xlink:title="strict&#45;restrictions.d.ts">
<path fill="#ddfeff" stroke="black" d="M445.5,-18C445.5,-18 358.5,-18 358.5,-18 355.5,-18 352.5,-15 352.5,-12 352.5,-12 352.5,-6 352.5,-6 352.5,-3 355.5,0 358.5,0 358.5,0 445.5,0 445.5,0 448.5,0 451.5,-3 451.5,-6 451.5,-6 451.5,-12 451.5,-12 451.5,-15 448.5,-18 445.5,-18"/>
<text text-anchor="middle" x="402" y="-6.8" font-family="Helvetica,sans-Serif" font-size="9.00">strict&#45;restrictions.d.ts</text>
</a>
</g>
</g>
<!-- strict&#45;rule&#45;set.d.ts&#45;&gt;strict&#45;restrictions.d.ts -->
<g id="edge36" class="edge">
<title>strict&#45;rule&#45;set.d.ts&#45;&gt;strict&#45;restrictions.d.ts</title>
<path fill="none" stroke="#000000" stroke-width="2" stroke-opacity="0.200000" d="M328.55,-9.5C328.55,-9.5 346.44,-9.5 346.44,-9.5"/>
<polygon fill="#000000" fill-opacity="0.200000" stroke="#000000" stroke-width="2" stroke-opacity="0.200000" points="346.44,-11.6 352.44,-9.5 346.44,-7.4 346.44,-11.6"/>
</g>
<!-- strict&#45;restrictions.d.ts&#45;&gt;restrictions.d.ts -->
<g id="edge33" class="edge">
<title>strict&#45;restrictions.d.ts&#45;&gt;restrictions.d.ts</title>
<path fill="none" stroke="#000000" stroke-width="2" stroke-opacity="0.200000" d="M451.51,-13C451.51,-13 463.95,-13 463.95,-13"/>
<polygon fill="#000000" fill-opacity="0.200000" stroke="#000000" stroke-width="2" stroke-opacity="0.200000" points="463.95,-15.1 469.95,-13 463.95,-10.9 463.95,-15.1"/>
</g>
</g>
</svg>
