<?xml version="1.0" encoding="UTF-8" standalone="no"?>
<!DOCTYPE svg PUBLIC "-//W3C//DTD SVG 1.1//EN"
 "http://www.w3.org/Graphics/SVG/1.1/DTD/svg11.dtd">
<!-- Generated by graphviz version 9.0.0 (20230911.1827)
 -->
<!-- Title: dependency&#45;cruiser output Pages: 1 -->
<svg width="1045pt" height="338pt"
 viewBox="0.00 0.00 1045.25 337.75" xmlns="http://www.w3.org/2000/svg" xmlns:xlink="http://www.w3.org/1999/xlink">
<g id="graph0" class="graph" transform="scale(1 1) rotate(0) translate(4 333.75)">
<title>dependency&#45;cruiser output</title>
<polygon fill="white" stroke="none" points="-4,4 -4,-333.75 1041.25,-333.75 1041.25,4 -4,4"/>
<g id="clust1" class="cluster">
<title>cluster_config&#45;utl</title>
<path fill="#ffffff" stroke="black" stroke-width="2" d="M313.5,-55.88C313.5,-55.88 473,-55.88 473,-55.88 479,-55.88 485,-61.88 485,-67.88 485,-67.88 485,-185.88 485,-185.88 485,-191.88 479,-197.88 473,-197.88 473,-197.88 313.5,-197.88 313.5,-197.88 307.5,-197.88 301.5,-191.88 301.5,-185.88 301.5,-185.88 301.5,-67.88 301.5,-67.88 301.5,-61.88 307.5,-55.88 313.5,-55.88"/>
<text text-anchor="middle" x="393.25" y="-185.32" font-family="Helvetica,sans-Serif" font-weight="bold" font-size="9.00">config&#45;utl</text>
</g>
<g id="clust2" class="cluster">
<title>cluster_node_modules</title>
<path fill="#ffffff" stroke="black" stroke-width="2" d="M505,-28.88C505,-28.88 587.25,-28.88 587.25,-28.88 593.25,-28.88 599.25,-34.88 599.25,-40.88 599.25,-40.88 599.25,-128.88 599.25,-128.88 599.25,-134.88 593.25,-140.88 587.25,-140.88 587.25,-140.88 505,-140.88 505,-140.88 499,-140.88 493,-134.88 493,-128.88 493,-128.88 493,-40.88 493,-40.88 493,-34.88 499,-28.88 505,-28.88"/>
<text text-anchor="middle" x="546.12" y="-128.32" font-family="Helvetica,sans-Serif" font-weight="bold" font-size="9.00">node_modules</text>
</g>
<g id="clust3" class="cluster">
<title>cluster_plugins</title>
<path fill="#ffffff" stroke="black" stroke-width="2" d="M20,-179.88C20,-179.88 151.75,-179.88 151.75,-179.88 157.75,-179.88 163.75,-185.88 163.75,-191.88 163.75,-191.88 163.75,-279.88 163.75,-279.88 163.75,-285.88 157.75,-291.88 151.75,-291.88 151.75,-291.88 20,-291.88 20,-291.88 14,-291.88 8,-285.88 8,-279.88 8,-279.88 8,-191.88 8,-191.88 8,-185.88 14,-179.88 20,-179.88"/>
<text text-anchor="middle" x="85.88" y="-279.32" font-family="Helvetica,sans-Serif" font-weight="bold" font-size="9.00">plugins</text>
</g>
<!-- baseline&#45;violations.d.mts -->
<g id="node1" class="node">
<title>baseline&#45;violations.d.mts</title>
<g id="a_node1"><a xlink:href="https://github.com/sverweij/dependency-cruiser/blob/main/baseline-violations.d.mts" xlink:title="baseline&#45;violations.d.mts">
<path fill="#ddfeff" stroke="black" d="M718.58,-86.75C718.58,-86.75 613.17,-86.75 613.17,-86.75 610.21,-86.75 607.25,-83.79 607.25,-80.83 607.25,-80.83 607.25,-74.92 607.25,-74.92 607.25,-71.96 610.21,-69 613.17,-69 613.17,-69 718.58,-69 718.58,-69 721.54,-69 724.5,-71.96 724.5,-74.92 724.5,-74.92 724.5,-80.83 724.5,-80.83 724.5,-83.79 721.54,-86.75 718.58,-86.75"/>
<text text-anchor="middle" x="665.88" y="-74.2" font-family="Helvetica,sans-Serif" font-size="9.00">baseline&#45;violations.d.mts</text>
</a>
</g>
</g>
<!-- violations.d.mts -->
<g id="node2" class="node">
<title>violations.d.mts</title>
<g id="a_node2"><a xlink:href="https://github.com/sverweij/dependency-cruiser/blob/main/violations.d.mts" xlink:title="violations.d.mts">
<path fill="#ddfeff" stroke="black" d="M813.21,-80.75C813.21,-80.75 746.04,-80.75 746.04,-80.75 743.08,-80.75 740.12,-77.79 740.12,-74.83 740.12,-74.83 740.12,-68.92 740.12,-68.92 740.12,-65.96 743.08,-63 746.04,-63 746.04,-63 813.21,-63 813.21,-63 816.17,-63 819.12,-65.96 819.12,-68.92 819.12,-68.92 819.12,-74.83 819.12,-74.83 819.12,-77.79 816.17,-80.75 813.21,-80.75"/>
<text text-anchor="middle" x="779.62" y="-68.2" font-family="Helvetica,sans-Serif" font-size="9.00">violations.d.mts</text>
</a>
</g>
</g>
<!-- baseline&#45;violations.d.mts&#45;&gt;violations.d.mts -->
<g id="edge1" class="edge">
<title>baseline&#45;violations.d.mts&#45;&gt;violations.d.mts</title>
<path fill="none" stroke="#000000" stroke-opacity="0.200000" d="M724.75,-74.88C724.75,-74.88 732.29,-74.88 732.29,-74.88"/>
<polygon fill="none" stroke="#000000" stroke-opacity="0.200000" points="732.29,-76.98 738.29,-74.88 732.29,-72.78 732.29,-76.98"/>
</g>
<!-- rule&#45;summary.d.mts -->
<g id="node14" class="node">
<title>rule&#45;summary.d.mts</title>
<g id="a_node14"><a xlink:href="https://github.com/sverweij/dependency-cruiser/blob/main/rule-summary.d.mts" xlink:title="rule&#45;summary.d.mts">
<path fill="#ddfeff" stroke="black" d="M925.08,-73.75C925.08,-73.75 840.67,-73.75 840.67,-73.75 837.71,-73.75 834.75,-70.79 834.75,-67.83 834.75,-67.83 834.75,-61.92 834.75,-61.92 834.75,-58.96 837.71,-56 840.67,-56 840.67,-56 925.08,-56 925.08,-56 928.04,-56 931,-58.96 931,-61.92 931,-61.92 931,-67.83 931,-67.83 931,-70.79 928.04,-73.75 925.08,-73.75"/>
<text text-anchor="middle" x="882.88" y="-61.2" font-family="Helvetica,sans-Serif" font-size="9.00">rule&#45;summary.d.mts</text>
</a>
</g>
</g>
<!-- violations.d.mts&#45;&gt;rule&#45;summary.d.mts -->
<g id="edge47" class="edge">
<title>violations.d.mts&#45;&gt;rule&#45;summary.d.mts</title>
<path fill="none" stroke="#000000" stroke-opacity="0.200000" d="M819.54,-68.38C819.54,-68.38 826.93,-68.38 826.93,-68.38"/>
<polygon fill="none" stroke="#000000" stroke-opacity="0.200000" points="826.93,-70.48 832.93,-68.38 826.93,-66.28 826.93,-70.48"/>
</g>
<!-- shared&#45;types.d.mts -->
<g id="node15" class="node">
<title>shared&#45;types.d.mts</title>
<g id="a_node15"><a xlink:href="https://github.com/sverweij/dependency-cruiser/blob/main/shared-types.d.mts" xlink:title="shared&#45;types.d.mts">
<path fill="#ddfeff" stroke="black" d="M1031.33,-232.75C1031.33,-232.75 949.92,-232.75 949.92,-232.75 946.96,-232.75 944,-229.79 944,-226.83 944,-226.83 944,-220.92 944,-220.92 944,-217.96 946.96,-215 949.92,-215 949.92,-215 1031.33,-215 1031.33,-215 1034.29,-215 1037.25,-217.96 1037.25,-220.92 1037.25,-220.92 1037.25,-226.83 1037.25,-226.83 1037.25,-229.79 1034.29,-232.75 1031.33,-232.75"/>
<text text-anchor="middle" x="990.62" y="-220.2" font-family="Helvetica,sans-Serif" font-size="9.00">shared&#45;types.d.mts</text>
</a>
</g>
</g>
<!-- violations.d.mts&#45;&gt;shared&#45;types.d.mts -->
<g id="edge48" class="edge">
<title>violations.d.mts&#45;&gt;shared&#45;types.d.mts</title>
<path fill="none" stroke="#000000" stroke-opacity="0.200000" d="M819.43,-77.25C880.73,-77.25 991.25,-77.25 991.25,-77.25 991.25,-77.25 991.25,-207.19 991.25,-207.19"/>
<polygon fill="none" stroke="#000000" stroke-opacity="0.200000" points="989.15,-207.19 991.25,-213.19 993.35,-207.19 989.15,-207.19"/>
</g>
<!-- cache&#45;options.d.mts -->
<g id="node3" class="node">
<title>cache&#45;options.d.mts</title>
<g id="a_node3"><a xlink:href="https://github.com/sverweij/dependency-cruiser/blob/main/cache-options.d.mts" xlink:title="cache&#45;options.d.mts">
<path fill="#ddfeff" stroke="black" d="M708.83,-211.75C708.83,-211.75 622.92,-211.75 622.92,-211.75 619.96,-211.75 617,-208.79 617,-205.83 617,-205.83 617,-199.92 617,-199.92 617,-196.96 619.96,-194 622.92,-194 622.92,-194 708.83,-194 708.83,-194 711.79,-194 714.75,-196.96 714.75,-199.92 714.75,-199.92 714.75,-205.83 714.75,-205.83 714.75,-208.79 711.79,-211.75 708.83,-211.75"/>
<text text-anchor="middle" x="665.88" y="-199.2" font-family="Helvetica,sans-Serif" font-size="9.00">cache&#45;options.d.mts</text>
</a>
</g>
</g>
<!-- config&#45;utl/extract&#45;babel&#45;config.d.mts -->
<g id="node4" class="node">
<title>config&#45;utl/extract&#45;babel&#45;config.d.mts</title>
<g id="a_node4"><a xlink:href="https://github.com/sverweij/dependency-cruiser/blob/main/config-utl/extract-babel-config.d.mts" xlink:title="extract&#45;babel&#45;config.d.mts">
<path fill="#ccffcc" stroke="black" d="M447.83,-171.75C447.83,-171.75 338.67,-171.75 338.67,-171.75 335.71,-171.75 332.75,-168.79 332.75,-165.83 332.75,-165.83 332.75,-159.92 332.75,-159.92 332.75,-156.96 335.71,-154 338.67,-154 338.67,-154 447.83,-154 447.83,-154 450.79,-154 453.75,-156.96 453.75,-159.92 453.75,-159.92 453.75,-165.83 453.75,-165.83 453.75,-168.79 450.79,-171.75 447.83,-171.75"/>
<text text-anchor="start" x="340.75" y="-159.2" font-family="Helvetica,sans-Serif" font-size="9.00">extract&#45;babel&#45;config.d.mts</text>
</a>
</g>
</g>
<!-- config&#45;utl/extract&#45;depcruise&#45;config.d.mts -->
<g id="node5" class="node">
<title>config&#45;utl/extract&#45;depcruise&#45;config.d.mts</title>
<g id="a_node5"><a xlink:href="https://github.com/sverweij/dependency-cruiser/blob/main/config-utl/extract-depcruise-config.d.mts" xlink:title="extract&#45;depcruise&#45;config.d.mts">
<path fill="#ddfeff" stroke="black" d="M456.46,-141.75C456.46,-141.75 330.04,-141.75 330.04,-141.75 327.08,-141.75 324.12,-138.79 324.12,-135.83 324.12,-135.83 324.12,-129.92 324.12,-129.92 324.12,-126.96 327.08,-124 330.04,-124 330.04,-124 456.46,-124 456.46,-124 459.42,-124 462.38,-126.96 462.38,-129.92 462.38,-129.92 462.38,-135.83 462.38,-135.83 462.38,-138.79 459.42,-141.75 456.46,-141.75"/>
<text text-anchor="start" x="332.12" y="-129.2" font-family="Helvetica,sans-Serif" font-size="9.00">extract&#45;depcruise&#45;config.d.mts</text>
</a>
</g>
</g>
<!-- options.d.mts -->
<g id="node6" class="node">
<title>options.d.mts</title>
<g id="a_node6"><a xlink:href="https://github.com/sverweij/dependency-cruiser/blob/main/options.d.mts" xlink:title="options.d.mts">
<path fill="#ddfeff" stroke="black" d="M575.21,-169.75C575.21,-169.75 517.04,-169.75 517.04,-169.75 514.08,-169.75 511.12,-166.79 511.12,-163.83 511.12,-163.83 511.12,-157.92 511.12,-157.92 511.12,-154.96 514.08,-152 517.04,-152 517.04,-152 575.21,-152 575.21,-152 578.17,-152 581.12,-154.96 581.12,-157.92 581.12,-157.92 581.12,-163.83 581.12,-163.83 581.12,-166.79 578.17,-169.75 575.21,-169.75"/>
<text text-anchor="middle" x="546.12" y="-157.2" font-family="Helvetica,sans-Serif" font-size="9.00">options.d.mts</text>
</a>
</g>
</g>
<!-- config&#45;utl/extract&#45;depcruise&#45;config.d.mts&#45;&gt;options.d.mts -->
<g id="edge2" class="edge">
<title>config&#45;utl/extract&#45;depcruise&#45;config.d.mts&#45;&gt;options.d.mts</title>
<path fill="none" stroke="#000000" stroke-opacity="0.200000" d="M462.8,-132.88C490.2,-132.88 515.25,-132.88 515.25,-132.88 515.25,-132.88 515.25,-144.19 515.25,-144.19"/>
<polygon fill="none" stroke="#000000" stroke-opacity="0.200000" points="513.15,-144.19 515.25,-150.19 517.35,-144.19 513.15,-144.19"/>
</g>
<!-- options.d.mts&#45;&gt;baseline&#45;violations.d.mts -->
<g id="edge20" class="edge">
<title>options.d.mts&#45;&gt;baseline&#45;violations.d.mts</title>
<path fill="none" stroke="#000000" stroke-opacity="0.200000" d="M581.52,-155C616.95,-155 666.25,-155 666.25,-155 666.25,-155 666.25,-94.54 666.25,-94.54"/>
<polygon fill="none" stroke="#000000" stroke-opacity="0.200000" points="668.35,-94.54 666.25,-88.54 664.15,-94.54 668.35,-94.54"/>
</g>
<!-- options.d.mts&#45;&gt;cache&#45;options.d.mts -->
<g id="edge21" class="edge">
<title>options.d.mts&#45;&gt;cache&#45;options.d.mts</title>
<path fill="none" stroke="#000000" stroke-opacity="0.200000" d="M558.25,-169.92C558.25,-181.44 558.25,-199.88 558.25,-199.88 558.25,-199.88 609.27,-199.88 609.27,-199.88"/>
<polygon fill="none" stroke="#000000" stroke-opacity="0.200000" points="609.27,-201.98 615.27,-199.88 609.27,-197.78 609.27,-201.98"/>
</g>
<!-- rule&#45;set.d.mts -->
<g id="node12" class="node">
<title>rule&#45;set.d.mts</title>
<g id="a_node12"><a xlink:href="https://github.com/sverweij/dependency-cruiser/blob/main/rule-set.d.mts" xlink:title="rule&#45;set.d.mts">
<path fill="#ddfeff" stroke="black" d="M695.33,-271.75C695.33,-271.75 636.42,-271.75 636.42,-271.75 633.46,-271.75 630.5,-268.79 630.5,-265.83 630.5,-265.83 630.5,-259.92 630.5,-259.92 630.5,-256.96 633.46,-254 636.42,-254 636.42,-254 695.33,-254 695.33,-254 698.29,-254 701.25,-256.96 701.25,-259.92 701.25,-259.92 701.25,-265.83 701.25,-265.83 701.25,-268.79 698.29,-271.75 695.33,-271.75"/>
<text text-anchor="middle" x="665.88" y="-259.2" font-family="Helvetica,sans-Serif" font-size="9.00">rule&#45;set.d.mts</text>
</a>
</g>
</g>
<!-- options.d.mts&#45;&gt;rule&#45;set.d.mts -->
<g id="edge24" class="edge">
<title>options.d.mts&#45;&gt;rule&#45;set.d.mts</title>
<path fill="none" stroke="#000000" stroke-opacity="0.200000" d="M546.25,-169.96C546.25,-193.67 546.25,-255.6 546.25,-255.6 546.25,-255.6 622.79,-255.6 622.79,-255.6"/>
<polygon fill="none" stroke="#000000" stroke-opacity="0.200000" points="622.79,-257.7 628.79,-255.6 622.79,-253.5 622.79,-257.7"/>
</g>
<!-- options.d.mts&#45;&gt;shared&#45;types.d.mts -->
<g id="edge25" class="edge">
<title>options.d.mts&#45;&gt;shared&#45;types.d.mts</title>
<path fill="none" stroke="#000000" stroke-opacity="0.200000" d="M581.43,-158C681.58,-158 960.25,-158 960.25,-158 960.25,-158 960.25,-207.2 960.25,-207.2"/>
<polygon fill="none" stroke="#000000" stroke-opacity="0.200000" points="958.15,-207.2 960.25,-213.2 962.35,-207.2 958.15,-207.2"/>
</g>
<!-- filter&#45;types.d.mts -->
<g id="node19" class="node">
<title>filter&#45;types.d.mts</title>
<g id="a_node19"><a xlink:href="https://github.com/sverweij/dependency-cruiser/blob/main/filter-types.d.mts" xlink:title="filter&#45;types.d.mts">
<path fill="#ddfeff" stroke="black" d="M814.71,-184.75C814.71,-184.75 744.54,-184.75 744.54,-184.75 741.58,-184.75 738.62,-181.79 738.62,-178.83 738.62,-178.83 738.62,-172.92 738.62,-172.92 738.62,-169.96 741.58,-167 744.54,-167 744.54,-167 814.71,-167 814.71,-167 817.67,-167 820.62,-169.96 820.62,-172.92 820.62,-172.92 820.62,-178.83 820.62,-178.83 820.62,-181.79 817.67,-184.75 814.71,-184.75"/>
<text text-anchor="middle" x="779.62" y="-172.2" font-family="Helvetica,sans-Serif" font-size="9.00">filter&#45;types.d.mts</text>
</a>
</g>
</g>
<!-- options.d.mts&#45;&gt;filter&#45;types.d.mts -->
<g id="edge22" class="edge">
<title>options.d.mts&#45;&gt;filter&#45;types.d.mts</title>
<path fill="none" stroke="#000000" stroke-opacity="0.200000" d="M581.43,-161C646.83,-161 780.25,-161 780.25,-161 780.25,-161 780.25,-161.57 780.25,-161.57"/>
<polygon fill="none" stroke="#000000" stroke-opacity="0.200000" points="778.15,-159.19 780.25,-165.19 782.35,-159.2 778.15,-159.19"/>
</g>
<!-- reporter&#45;options.d.mts -->
<g id="node20" class="node">
<title>reporter&#45;options.d.mts</title>
<g id="a_node20"><a xlink:href="https://github.com/sverweij/dependency-cruiser/blob/main/reporter-options.d.mts" xlink:title="reporter&#45;options.d.mts">
<path fill="#ddfeff" stroke="black" d="M712.58,-181.75C712.58,-181.75 619.17,-181.75 619.17,-181.75 616.21,-181.75 613.25,-178.79 613.25,-175.83 613.25,-175.83 613.25,-169.92 613.25,-169.92 613.25,-166.96 616.21,-164 619.17,-164 619.17,-164 712.58,-164 712.58,-164 715.54,-164 718.5,-166.96 718.5,-169.92 718.5,-169.92 718.5,-175.83 718.5,-175.83 718.5,-178.79 715.54,-181.75 712.58,-181.75"/>
<text text-anchor="middle" x="665.88" y="-169.2" font-family="Helvetica,sans-Serif" font-size="9.00">reporter&#45;options.d.mts</text>
</a>
</g>
</g>
<!-- options.d.mts&#45;&gt;reporter&#45;options.d.mts -->
<g id="edge23" class="edge">
<title>options.d.mts&#45;&gt;reporter&#45;options.d.mts</title>
<path fill="none" stroke="#000000" stroke-opacity="0.200000" d="M570.25,-169.93C570.25,-173.49 570.25,-176.75 570.25,-176.75 570.25,-176.75 605.51,-176.75 605.51,-176.75"/>
<polygon fill="none" stroke="#000000" stroke-opacity="0.200000" points="605.51,-178.85 611.51,-176.75 605.51,-174.65 605.51,-178.85"/>
</g>
<!-- config&#45;utl/extract&#45;ts&#45;config.d.mts -->
<g id="node7" class="node">
<title>config&#45;utl/extract&#45;ts&#45;config.d.mts</title>
<g id="a_node7"><a xlink:href="https://github.com/sverweij/dependency-cruiser/blob/main/config-utl/extract-ts-config.d.mts" xlink:title="extract&#45;ts&#45;config.d.mts">
<path fill="#ddfeff" stroke="black" d="M439.58,-111.75C439.58,-111.75 346.92,-111.75 346.92,-111.75 343.96,-111.75 341,-108.79 341,-105.83 341,-105.83 341,-99.92 341,-99.92 341,-96.96 343.96,-94 346.92,-94 346.92,-94 439.58,-94 439.58,-94 442.54,-94 445.5,-96.96 445.5,-99.92 445.5,-99.92 445.5,-105.83 445.5,-105.83 445.5,-108.79 442.54,-111.75 439.58,-111.75"/>
<text text-anchor="start" x="349" y="-99.2" font-family="Helvetica,sans-Serif" font-size="9.00">extract&#45;ts&#45;config.d.mts</text>
</a>
</g>
</g>
<!-- node_modules/typescript -->
<g id="node8" class="node">
<title>node_modules/typescript</title>
<g id="a_node8"><a xlink:href="https://www.npmjs.com/package/typescript" xlink:title="typescript">
<polygon fill="#c40b0a" fill-opacity="0.101961" stroke="black" points="573.62,-114.75 520.6,-114.75 518.62,-112.78 518.62,-97 571.65,-97 573.62,-98.97 573.62,-114.75"/>
<polyline fill="none" stroke="black" points="571.65,-112.78 518.62,-112.78"/>
<polyline fill="none" stroke="black" points="571.65,-112.78 571.65,-97"/>
<polyline fill="none" stroke="black" points="571.65,-112.78 573.62,-114.75"/>
<text text-anchor="start" x="526.62" y="-102.2" font-family="Helvetica,sans-Serif" font-size="9.00" fill="#c40b0a">typescript</text>
</a>
</g>
</g>
<!-- config&#45;utl/extract&#45;ts&#45;config.d.mts&#45;&gt;node_modules/typescript -->
<g id="edge3" class="edge">
<title>config&#45;utl/extract&#45;ts&#45;config.d.mts&#45;&gt;node_modules/typescript</title>
<path fill="none" stroke="#000000" stroke-opacity="0.200000" d="M445.86,-104.38C445.86,-104.38 510.84,-104.38 510.84,-104.38"/>
<polygon fill="none" stroke="#000000" stroke-opacity="0.200000" points="510.84,-106.48 516.84,-104.38 510.84,-102.28 510.84,-106.48"/>
</g>
<!-- config&#45;utl/extract&#45;webpack&#45;resolve&#45;config.d.mts -->
<g id="node9" class="node">
<title>config&#45;utl/extract&#45;webpack&#45;resolve&#45;config.d.mts</title>
<g id="a_node9"><a xlink:href="https://github.com/sverweij/dependency-cruiser/blob/main/config-utl/extract-webpack-resolve-config.d.mts" xlink:title="extract&#45;webpack&#45;resolve&#45;config.d.mts">
<path fill="#ddfeff" stroke="black" d="M471.08,-81.75C471.08,-81.75 315.42,-81.75 315.42,-81.75 312.46,-81.75 309.5,-78.79 309.5,-75.83 309.5,-75.83 309.5,-69.92 309.5,-69.92 309.5,-66.96 312.46,-64 315.42,-64 315.42,-64 471.08,-64 471.08,-64 474.04,-64 477,-66.96 477,-69.92 477,-69.92 477,-75.83 477,-75.83 477,-78.79 474.04,-81.75 471.08,-81.75"/>
<text text-anchor="start" x="317.5" y="-69.2" font-family="Helvetica,sans-Serif" font-size="9.00">extract&#45;webpack&#45;resolve&#45;config.d.mts</text>
</a>
</g>
</g>
<!-- node_modules/enhanced&#45;resolve -->
<g id="node10" class="node">
<title>node_modules/enhanced&#45;resolve</title>
<g id="a_node10"><a xlink:href="https://www.npmjs.com/package/enhanced-resolve" xlink:title="enhanced&#45;resolve">
<polygon fill="#c40b0a" fill-opacity="0.101961" stroke="black" points="591.25,-84.75 502.97,-84.75 501,-82.78 501,-67 589.28,-67 591.25,-68.97 591.25,-84.75"/>
<polyline fill="none" stroke="black" points="589.28,-82.78 501,-82.78"/>
<polyline fill="none" stroke="black" points="589.28,-82.78 589.28,-67"/>
<polyline fill="none" stroke="black" points="589.28,-82.78 591.25,-84.75"/>
<text text-anchor="start" x="509" y="-72.2" font-family="Helvetica,sans-Serif" font-size="9.00" fill="#c40b0a">enhanced&#45;resolve</text>
</a>
</g>
</g>
<!-- config&#45;utl/extract&#45;webpack&#45;resolve&#45;config.d.mts&#45;&gt;node_modules/enhanced&#45;resolve -->
<g id="edge4" class="edge">
<title>config&#45;utl/extract&#45;webpack&#45;resolve&#45;config.d.mts&#45;&gt;node_modules/enhanced&#45;resolve</title>
<path fill="none" stroke="#000000" stroke-opacity="0.200000" d="M477.29,-74.38C477.29,-74.38 493.22,-74.38 493.22,-74.38"/>
<polygon fill="none" stroke="#000000" stroke-opacity="0.200000" points="493.22,-76.48 499.22,-74.38 493.22,-72.28 493.22,-76.48"/>
</g>
<!-- configuration.d.mts -->
<g id="node11" class="node">
<title>configuration.d.mts</title>
<g id="a_node11"><a xlink:href="https://github.com/sverweij/dependency-cruiser/blob/main/configuration.d.mts" xlink:title="configuration.d.mts">
<path fill="#ddfeff" stroke="black" d="M433.96,-249.75C433.96,-249.75 352.54,-249.75 352.54,-249.75 349.58,-249.75 346.62,-246.79 346.62,-243.83 346.62,-243.83 346.62,-237.92 346.62,-237.92 346.62,-234.96 349.58,-232 352.54,-232 352.54,-232 433.96,-232 433.96,-232 436.92,-232 439.88,-234.96 439.88,-237.92 439.88,-237.92 439.88,-243.83 439.88,-243.83 439.88,-246.79 436.92,-249.75 433.96,-249.75"/>
<text text-anchor="middle" x="393.25" y="-237.2" font-family="Helvetica,sans-Serif" font-size="9.00">configuration.d.mts</text>
</a>
</g>
</g>
<!-- configuration.d.mts&#45;&gt;options.d.mts -->
<g id="edge5" class="edge">
<title>configuration.d.mts&#45;&gt;options.d.mts</title>
<path fill="none" stroke="#000000" stroke-opacity="0.200000" d="M440.18,-236.88C477.42,-236.88 523.25,-236.88 523.25,-236.88 523.25,-236.88 523.25,-177.71 523.25,-177.71"/>
<polygon fill="none" stroke="#000000" stroke-opacity="0.200000" points="525.35,-177.71 523.25,-171.71 521.15,-177.71 525.35,-177.71"/>
</g>
<!-- configuration.d.mts&#45;&gt;rule&#45;set.d.mts -->
<g id="edge6" class="edge">
<title>configuration.d.mts&#45;&gt;rule&#45;set.d.mts</title>
<path fill="none" stroke="#000000" stroke-opacity="0.200000" d="M440.18,-245.75C518.24,-245.75 666.25,-245.75 666.25,-245.75 666.25,-245.75 666.25,-246.53 666.25,-246.53"/>
<polygon fill="none" stroke="#000000" stroke-opacity="0.200000" points="664.15,-246 666.25,-252 668.35,-246 664.15,-246"/>
</g>
<!-- rule&#45;set.d.mts&#45;&gt;shared&#45;types.d.mts -->
<g id="edge33" class="edge">
<title>rule&#45;set.d.mts&#45;&gt;shared&#45;types.d.mts</title>
<path fill="none" stroke="#000000" stroke-opacity="0.200000" d="M701.62,-259.94C716.89,-259.94 731.25,-259.94 731.25,-259.94 731.25,-259.94 731.25,-229.83 731.25,-229.83 731.25,-229.83 936.14,-229.83 936.14,-229.83"/>
<polygon fill="none" stroke="#000000" stroke-opacity="0.200000" points="936.14,-231.93 942.14,-229.83 936.14,-227.73 936.14,-231.93"/>
</g>
<!-- restrictions.d.mts -->
<g id="node24" class="node">
<title>restrictions.d.mts</title>
<g id="a_node24"><a xlink:href="https://github.com/sverweij/dependency-cruiser/blob/main/restrictions.d.mts" xlink:title="restrictions.d.mts">
<path fill="#ddfeff" stroke="black" d="M815.83,-273.75C815.83,-273.75 743.42,-273.75 743.42,-273.75 740.46,-273.75 737.5,-270.79 737.5,-267.83 737.5,-267.83 737.5,-261.92 737.5,-261.92 737.5,-258.96 740.46,-256 743.42,-256 743.42,-256 815.83,-256 815.83,-256 818.79,-256 821.75,-258.96 821.75,-261.92 821.75,-261.92 821.75,-267.83 821.75,-267.83 821.75,-270.79 818.79,-273.75 815.83,-273.75"/>
<text text-anchor="middle" x="779.62" y="-261.2" font-family="Helvetica,sans-Serif" font-size="9.00">restrictions.d.mts</text>
</a>
</g>
</g>
<!-- rule&#45;set.d.mts&#45;&gt;restrictions.d.mts -->
<g id="edge32" class="edge">
<title>rule&#45;set.d.mts&#45;&gt;restrictions.d.mts</title>
<path fill="none" stroke="#000000" stroke-opacity="0.200000" d="M701.55,-263.88C701.55,-263.88 729.78,-263.88 729.78,-263.88"/>
<polygon fill="none" stroke="#000000" stroke-opacity="0.200000" points="729.78,-265.98 735.78,-263.88 729.78,-261.78 729.78,-265.98"/>
</g>
<!-- cruise&#45;result.d.mts -->
<g id="node13" class="node">
<title>cruise&#45;result.d.mts</title>
<g id="a_node13"><a xlink:href="https://github.com/sverweij/dependency-cruiser/blob/main/cruise-result.d.mts" xlink:title="cruise&#45;result.d.mts">
<path fill="#ddfeff" stroke="black" d="M432.46,-17.75C432.46,-17.75 354.04,-17.75 354.04,-17.75 351.08,-17.75 348.12,-14.79 348.12,-11.83 348.12,-11.83 348.12,-5.92 348.12,-5.92 348.12,-2.96 351.08,0 354.04,0 354.04,0 432.46,0 432.46,0 435.42,0 438.38,-2.96 438.38,-5.92 438.38,-5.92 438.38,-11.83 438.38,-11.83 438.38,-14.79 435.42,-17.75 432.46,-17.75"/>
<text text-anchor="middle" x="393.25" y="-5.2" font-family="Helvetica,sans-Serif" font-size="9.00">cruise&#45;result.d.mts</text>
</a>
</g>
</g>
<!-- cruise&#45;result.d.mts&#45;&gt;violations.d.mts -->
<g id="edge11" class="edge">
<title>cruise&#45;result.d.mts&#45;&gt;violations.d.mts</title>
<path fill="none" stroke="#000000" stroke-opacity="0.200000" d="M438.78,-7.61C541.08,-7.61 780.25,-7.61 780.25,-7.61 780.25,-7.61 780.25,-55.15 780.25,-55.15"/>
<polygon fill="none" stroke="#000000" stroke-opacity="0.200000" points="778.15,-55.15 780.25,-61.15 782.35,-55.15 778.15,-55.15"/>
</g>
<!-- cruise&#45;result.d.mts&#45;&gt;options.d.mts -->
<g id="edge7" class="edge">
<title>cruise&#45;result.d.mts&#45;&gt;options.d.mts</title>
<path fill="none" stroke="#000000" stroke-opacity="0.200000" d="M438.69,-12.68C464.72,-12.68 492.25,-12.68 492.25,-12.68 492.25,-12.68 492.25,-159.25 492.25,-159.25 492.25,-159.25 503.28,-159.25 503.28,-159.25"/>
<polygon fill="none" stroke="#000000" stroke-opacity="0.200000" points="503.28,-161.35 509.28,-159.25 503.28,-157.15 503.28,-161.35"/>
</g>
<!-- cruise&#45;result.d.mts&#45;&gt;rule&#45;set.d.mts -->
<g id="edge8" class="edge">
<title>cruise&#45;result.d.mts&#45;&gt;rule&#45;set.d.mts</title>
<path fill="none" stroke="#000000" stroke-opacity="0.200000" d="M438.71,-15.21C461.89,-15.21 485.25,-15.21 485.25,-15.21 485.25,-15.21 485.25,-257.2 485.25,-257.2 485.25,-257.2 622.68,-257.2 622.68,-257.2"/>
<polygon fill="none" stroke="#000000" stroke-opacity="0.200000" points="622.68,-259.3 628.68,-257.2 622.68,-255.1 622.68,-259.3"/>
</g>
<!-- cruise&#45;result.d.mts&#45;&gt;rule&#45;summary.d.mts -->
<g id="edge9" class="edge">
<title>cruise&#45;result.d.mts&#45;&gt;rule&#45;summary.d.mts</title>
<path fill="none" stroke="#000000" stroke-opacity="0.200000" d="M438.47,-5.07C559.77,-5.07 883.25,-5.07 883.25,-5.07 883.25,-5.07 883.25,-48.02 883.25,-48.02"/>
<polygon fill="none" stroke="#000000" stroke-opacity="0.200000" points="881.15,-48.02 883.25,-54.02 885.35,-48.02 881.15,-48.02"/>
</g>
<!-- cruise&#45;result.d.mts&#45;&gt;shared&#45;types.d.mts -->
<g id="edge10" class="edge">
<title>cruise&#45;result.d.mts&#45;&gt;shared&#45;types.d.mts</title>
<path fill="none" stroke="#000000" stroke-opacity="0.200000" d="M438.74,-2.54C583.22,-2.54 1022.25,-2.54 1022.25,-2.54 1022.25,-2.54 1022.25,-207.13 1022.25,-207.13"/>
<polygon fill="none" stroke="#000000" stroke-opacity="0.200000" points="1020.15,-207.13 1022.25,-213.13 1024.35,-207.13 1020.15,-207.13"/>
</g>
<!-- node_modules/watskeburt -->
<g id="node16" class="node">
<title>node_modules/watskeburt</title>
<g id="a_node16"><a xlink:href="https://www.npmjs.com/package/watskeburt" xlink:title="watskeburt">
<polygon fill="#c40b0a" fill-opacity="0.101961" stroke="black" points="576.25,-54.75 517.97,-54.75 516,-52.78 516,-37 574.28,-37 576.25,-38.97 576.25,-54.75"/>
<polyline fill="none" stroke="black" points="574.28,-52.78 516,-52.78"/>
<polyline fill="none" stroke="black" points="574.28,-52.78 574.28,-37"/>
<polyline fill="none" stroke="black" points="574.28,-52.78 576.25,-54.75"/>
<text text-anchor="start" x="524" y="-42.2" font-family="Helvetica,sans-Serif" font-size="9.00" fill="#c40b0a">watskeburt</text>
</a>
</g>
</g>
<!-- cruise&#45;result.d.mts&#45;&gt;node_modules/watskeburt -->
<g id="edge12" class="edge">
<title>cruise&#45;result.d.mts&#45;&gt;node_modules/watskeburt</title>
<path fill="none" stroke="#000000" stroke-opacity="0.200000" d="M438.74,-10.14C483.84,-10.14 546.25,-10.14 546.25,-10.14 546.25,-10.14 546.25,-29.34 546.25,-29.34"/>
<polygon fill="none" stroke="#000000" stroke-opacity="0.200000" points="544.15,-29.34 546.25,-35.34 548.35,-29.34 544.15,-29.34"/>
</g>
<!-- rule&#45;summary.d.mts&#45;&gt;shared&#45;types.d.mts -->
<g id="edge34" class="edge">
<title>rule&#45;summary.d.mts&#45;&gt;shared&#45;types.d.mts</title>
<path fill="none" stroke="#000000" stroke-opacity="0.200000" d="M931.28,-64.88C965.85,-64.88 1006.25,-64.88 1006.25,-64.88 1006.25,-64.88 1006.25,-207.36 1006.25,-207.36"/>
<polygon fill="none" stroke="#000000" stroke-opacity="0.200000" points="1004.15,-207.36 1006.25,-213.36 1008.35,-207.36 1004.15,-207.36"/>
</g>
<!-- dependency&#45;cruiser.d.mts -->
<g id="node17" class="node">
<title>dependency&#45;cruiser.d.mts</title>
<g id="a_node17"><a xlink:href="https://github.com/sverweij/dependency-cruiser/blob/main/dependency-cruiser.d.mts" xlink:title="dependency&#45;cruiser.d.mts">
<path fill="#ddfeff" stroke="black" d="M287.58,-235.75C287.58,-235.75 177.67,-235.75 177.67,-235.75 174.71,-235.75 171.75,-232.79 171.75,-229.83 171.75,-229.83 171.75,-223.92 171.75,-223.92 171.75,-220.96 174.71,-218 177.67,-218 177.67,-218 287.58,-218 287.58,-218 290.54,-218 293.5,-220.96 293.5,-223.92 293.5,-223.92 293.5,-229.83 293.5,-229.83 293.5,-232.79 290.54,-235.75 287.58,-235.75"/>
<text text-anchor="middle" x="232.62" y="-223.2" font-family="Helvetica,sans-Serif" font-size="9.00">dependency&#45;cruiser.d.mts</text>
</a>
</g>
</g>
<!-- dependency&#45;cruiser.d.mts&#45;&gt;options.d.mts -->
<g id="edge15" class="edge">
<title>dependency&#45;cruiser.d.mts&#45;&gt;options.d.mts</title>
<path fill="none" stroke="#000000" stroke-opacity="0.200000" d="M293.92,-226.67C374.03,-226.67 504.25,-226.67 504.25,-226.67 504.25,-226.67 504.25,-164.5 504.25,-164.5 504.25,-164.5 504.9,-164.5 504.9,-164.5"/>
<polygon fill="none" stroke="#000000" stroke-opacity="0.200000" points="503.28,-166.6 509.28,-164.5 503.28,-162.4 503.28,-166.6"/>
</g>
<!-- dependency&#45;cruiser.d.mts&#45;&gt;configuration.d.mts -->
<g id="edge13" class="edge">
<title>dependency&#45;cruiser.d.mts&#45;&gt;configuration.d.mts</title>
<path fill="none" stroke="#000000" stroke-opacity="0.200000" d="M293.81,-229.33C339.2,-229.33 393.25,-229.33 393.25,-229.33 393.25,-229.33 393.25,-229.56 393.25,-229.56"/>
<polygon fill="none" stroke="#000000" stroke-opacity="0.200000" points="391.15,-224.05 393.25,-230.05 395.35,-224.05 391.15,-224.05"/>
</g>
<!-- dependency&#45;cruiser.d.mts&#45;&gt;rule&#45;set.d.mts -->
<g id="edge17" class="edge">
<title>dependency&#45;cruiser.d.mts&#45;&gt;rule&#45;set.d.mts</title>
<path fill="none" stroke="#000000" stroke-opacity="0.200000" d="M253.25,-235.94C253.25,-245.38 253.25,-258.8 253.25,-258.8 253.25,-258.8 622.82,-258.8 622.82,-258.8"/>
<polygon fill="none" stroke="#000000" stroke-opacity="0.200000" points="622.82,-260.9 628.82,-258.8 622.82,-256.7 622.82,-260.9"/>
</g>
<!-- dependency&#45;cruiser.d.mts&#45;&gt;cruise&#45;result.d.mts -->
<g id="edge14" class="edge">
<title>dependency&#45;cruiser.d.mts&#45;&gt;cruise&#45;result.d.mts</title>
<path fill="none" stroke="#000000" stroke-opacity="0.200000" d="M221.25,-217.51C221.25,-175.78 221.25,-8.88 221.25,-8.88 221.25,-8.88 340.55,-8.88 340.55,-8.88"/>
<polygon fill="none" stroke="#000000" stroke-opacity="0.200000" points="340.55,-10.98 346.55,-8.88 340.55,-6.78 340.55,-10.98"/>
</g>
<!-- dependency&#45;cruiser.d.mts&#45;&gt;shared&#45;types.d.mts -->
<g id="edge18" class="edge">
<title>dependency&#45;cruiser.d.mts&#45;&gt;shared&#45;types.d.mts</title>
<path fill="none" stroke="#000000" stroke-opacity="0.200000" d="M269.25,-217.7C269.25,-196.68 269.25,-146.88 269.25,-146.88 269.25,-146.88 975.25,-146.88 975.25,-146.88 975.25,-146.88 975.25,-207.23 975.25,-207.23"/>
<polygon fill="none" stroke="#000000" stroke-opacity="0.200000" points="973.15,-207.23 975.25,-213.23 977.35,-207.23 973.15,-207.23"/>
</g>
<!-- resolve&#45;options.d.mts -->
<g id="node18" class="node">
<title>resolve&#45;options.d.mts</title>
<g id="a_node18"><a xlink:href="https://github.com/sverweij/dependency-cruiser/blob/main/resolve-options.d.mts" xlink:title="resolve&#45;options.d.mts">
<path fill="#ddfeff" stroke="black" d="M438.83,-47.75C438.83,-47.75 347.67,-47.75 347.67,-47.75 344.71,-47.75 341.75,-44.79 341.75,-41.83 341.75,-41.83 341.75,-35.92 341.75,-35.92 341.75,-32.96 344.71,-30 347.67,-30 347.67,-30 438.83,-30 438.83,-30 441.79,-30 444.75,-32.96 444.75,-35.92 444.75,-35.92 444.75,-41.83 444.75,-41.83 444.75,-44.79 441.79,-47.75 438.83,-47.75"/>
<text text-anchor="middle" x="393.25" y="-35.2" font-family="Helvetica,sans-Serif" font-size="9.00">resolve&#45;options.d.mts</text>
</a>
</g>
</g>
<!-- dependency&#45;cruiser.d.mts&#45;&gt;resolve&#45;options.d.mts -->
<g id="edge16" class="edge">
<title>dependency&#45;cruiser.d.mts&#45;&gt;resolve&#45;options.d.mts</title>
<path fill="none" stroke="#000000" stroke-opacity="0.200000" d="M245.25,-217.55C245.25,-179.62 245.25,-38.88 245.25,-38.88 245.25,-38.88 333.97,-38.88 333.97,-38.88"/>
<polygon fill="none" stroke="#000000" stroke-opacity="0.200000" points="333.97,-40.98 339.97,-38.88 333.97,-36.78 333.97,-40.98"/>
</g>
<!-- resolve&#45;options.d.mts&#45;&gt;node_modules/enhanced&#45;resolve -->
<g id="edge30" class="edge">
<title>resolve&#45;options.d.mts&#45;&gt;node_modules/enhanced&#45;resolve</title>
<path fill="none" stroke="#000000" stroke-opacity="0.200000" d="M445.14,-42.38C476.03,-42.38 509.25,-42.38 509.25,-42.38 509.25,-42.38 509.25,-59.21 509.25,-59.21"/>
<polygon fill="none" stroke="#000000" stroke-opacity="0.200000" points="507.15,-59.21 509.25,-65.21 511.35,-59.21 507.15,-59.21"/>
</g>
<!-- filter&#45;types.d.mts&#45;&gt;shared&#45;types.d.mts -->
<g id="edge19" class="edge">
<title>filter&#45;types.d.mts&#45;&gt;shared&#45;types.d.mts</title>
<path fill="none" stroke="#000000" stroke-opacity="0.200000" d="M780.25,-184.97C780.25,-199.28 780.25,-225.46 780.25,-225.46 780.25,-225.46 936.16,-225.46 936.16,-225.46"/>
<polygon fill="none" stroke="#000000" stroke-opacity="0.200000" points="936.16,-227.56 942.16,-225.46 936.16,-223.36 936.16,-227.56"/>
</g>
<!-- reporter&#45;options.d.mts&#45;&gt;filter&#45;types.d.mts -->
<g id="edge29" class="edge">
<title>reporter&#45;options.d.mts&#45;&gt;filter&#45;types.d.mts</title>
<path fill="none" stroke="#000000" stroke-opacity="0.200000" d="M718.75,-174.38C718.75,-174.38 730.94,-174.38 730.94,-174.38"/>
<polygon fill="none" stroke="#000000" stroke-opacity="0.200000" points="730.94,-176.48 736.94,-174.38 730.94,-172.28 730.94,-176.48"/>
</g>
<!-- plugins/3d&#45;reporter&#45;plugin.d.mts -->
<g id="node21" class="node">
<title>plugins/3d&#45;reporter&#45;plugin.d.mts</title>
<g id="a_node21"><a xlink:href="https://github.com/sverweij/dependency-cruiser/blob/main/plugins/3d-reporter-plugin.d.mts" xlink:title="3d&#45;reporter&#45;plugin.d.mts">
<path fill="#ddfeff" stroke="black" d="M137.08,-265.75C137.08,-265.75 34.67,-265.75 34.67,-265.75 31.71,-265.75 28.75,-262.79 28.75,-259.83 28.75,-259.83 28.75,-253.92 28.75,-253.92 28.75,-250.96 31.71,-248 34.67,-248 34.67,-248 137.08,-248 137.08,-248 140.04,-248 143,-250.96 143,-253.92 143,-253.92 143,-259.83 143,-259.83 143,-262.79 140.04,-265.75 137.08,-265.75"/>
<text text-anchor="start" x="36.75" y="-253.2" font-family="Helvetica,sans-Serif" font-size="9.00">3d&#45;reporter&#45;plugin.d.mts</text>
</a>
</g>
</g>
<!-- plugins/3d&#45;reporter&#45;plugin.d.mts&#45;&gt;dependency&#45;cruiser.d.mts -->
<g id="edge26" class="edge">
<title>plugins/3d&#45;reporter&#45;plugin.d.mts&#45;&gt;dependency&#45;cruiser.d.mts</title>
<path fill="none" stroke="#000000" stroke-opacity="0.200000" d="M143.23,-260.4C177.04,-260.4 213.25,-260.4 213.25,-260.4 213.25,-260.4 213.25,-243.55 213.25,-243.55"/>
<polygon fill="none" stroke="#000000" stroke-opacity="0.200000" points="215.35,-243.55 213.25,-237.55 211.15,-243.55 215.35,-243.55"/>
</g>
<!-- plugins/mermaid&#45;reporter&#45;plugin.d.mts -->
<g id="node22" class="node">
<title>plugins/mermaid&#45;reporter&#45;plugin.d.mts</title>
<g id="a_node22"><a xlink:href="https://github.com/sverweij/dependency-cruiser/blob/main/plugins/mermaid-reporter-plugin.d.mts" xlink:title="mermaid&#45;reporter&#45;plugin.d.mts">
<path fill="#ddfeff" stroke="black" d="M149.83,-235.75C149.83,-235.75 21.92,-235.75 21.92,-235.75 18.96,-235.75 16,-232.79 16,-229.83 16,-229.83 16,-223.92 16,-223.92 16,-220.96 18.96,-218 21.92,-218 21.92,-218 149.83,-218 149.83,-218 152.79,-218 155.75,-220.96 155.75,-223.92 155.75,-223.92 155.75,-229.83 155.75,-229.83 155.75,-232.79 152.79,-235.75 149.83,-235.75"/>
<text text-anchor="start" x="24" y="-223.2" font-family="Helvetica,sans-Serif" font-size="9.00">mermaid&#45;reporter&#45;plugin.d.mts</text>
</a>
</g>
</g>
<!-- plugins/mermaid&#45;reporter&#45;plugin.d.mts&#45;&gt;dependency&#45;cruiser.d.mts -->
<g id="edge27" class="edge">
<title>plugins/mermaid&#45;reporter&#45;plugin.d.mts&#45;&gt;dependency&#45;cruiser.d.mts</title>
<path fill="none" stroke="#000000" stroke-opacity="0.200000" d="M156.24,-226.88C156.24,-226.88 164.13,-226.88 164.13,-226.88"/>
<polygon fill="none" stroke="#000000" stroke-opacity="0.200000" points="164.13,-228.98 170.13,-226.88 164.13,-224.78 164.13,-228.98"/>
</g>
<!-- plugins/stats&#45;reporter&#45;plugin.d.mts -->
<g id="node23" class="node">
<title>plugins/stats&#45;reporter&#45;plugin.d.mts</title>
<g id="a_node23"><a xlink:href="https://github.com/sverweij/dependency-cruiser/blob/main/plugins/stats-reporter-plugin.d.mts" xlink:title="stats&#45;reporter&#45;plugin.d.mts">
<path fill="#ddfeff" stroke="black" d="M141.21,-205.75C141.21,-205.75 30.54,-205.75 30.54,-205.75 27.58,-205.75 24.62,-202.79 24.62,-199.83 24.62,-199.83 24.62,-193.92 24.62,-193.92 24.62,-190.96 27.58,-188 30.54,-188 30.54,-188 141.21,-188 141.21,-188 144.17,-188 147.12,-190.96 147.12,-193.92 147.12,-193.92 147.12,-199.83 147.12,-199.83 147.12,-202.79 144.17,-205.75 141.21,-205.75"/>
<text text-anchor="start" x="32.62" y="-193.2" font-family="Helvetica,sans-Serif" font-size="9.00">stats&#45;reporter&#45;plugin.d.mts</text>
</a>
</g>
</g>
<!-- plugins/stats&#45;reporter&#45;plugin.d.mts&#45;&gt;dependency&#45;cruiser.d.mts -->
<g id="edge28" class="edge">
<title>plugins/stats&#45;reporter&#45;plugin.d.mts&#45;&gt;dependency&#45;cruiser.d.mts</title>
<path fill="none" stroke="#000000" stroke-opacity="0.200000" d="M147.52,-196.94C172.8,-196.94 196.25,-196.94 196.25,-196.94 196.25,-196.94 196.25,-210.22 196.25,-210.22"/>
<polygon fill="none" stroke="#000000" stroke-opacity="0.200000" points="194.15,-210.22 196.25,-216.22 198.35,-210.22 194.15,-210.22"/>
</g>
<!-- restrictions.d.mts&#45;&gt;shared&#45;types.d.mts -->
<g id="edge31" class="edge">
<title>restrictions.d.mts&#45;&gt;shared&#45;types.d.mts</title>
<path fill="none" stroke="#000000" stroke-opacity="0.200000" d="M800.25,-255.7C800.25,-245.75 800.25,-231.29 800.25,-231.29 800.25,-231.29 936.05,-231.29 936.05,-231.29"/>
<polygon fill="none" stroke="#000000" stroke-opacity="0.200000" points="936.05,-233.39 942.05,-231.29 936.05,-229.19 936.05,-233.39"/>
</g>
<!-- strict&#45;filter&#45;types.d.mts -->
<g id="node25" class="node">
<title>strict&#45;filter&#45;types.d.mts</title>
<g id="a_node25"><a xlink:href="https://github.com/sverweij/dependency-cruiser/blob/main/strict-filter-types.d.mts" xlink:title="strict&#45;filter&#45;types.d.mts">
<path fill="#ddfeff" stroke="black" d="M711.83,-241.75C711.83,-241.75 619.92,-241.75 619.92,-241.75 616.96,-241.75 614,-238.79 614,-235.83 614,-235.83 614,-229.92 614,-229.92 614,-226.96 616.96,-224 619.92,-224 619.92,-224 711.83,-224 711.83,-224 714.79,-224 717.75,-226.96 717.75,-229.92 717.75,-229.92 717.75,-235.83 717.75,-235.83 717.75,-238.79 714.79,-241.75 711.83,-241.75"/>
<text text-anchor="middle" x="665.88" y="-229.2" font-family="Helvetica,sans-Serif" font-size="9.00">strict&#45;filter&#45;types.d.mts</text>
</a>
</g>
</g>
<!-- strict&#45;filter&#45;types.d.mts&#45;&gt;shared&#45;types.d.mts -->
<g id="edge36" class="edge">
<title>strict&#45;filter&#45;types.d.mts&#45;&gt;shared&#45;types.d.mts</title>
<path fill="none" stroke="#000000" stroke-opacity="0.200000" d="M718.05,-228.38C718.05,-228.38 936.08,-228.38 936.08,-228.38"/>
<polygon fill="none" stroke="#000000" stroke-opacity="0.200000" points="936.08,-230.48 942.08,-228.38 936.08,-226.28 936.08,-230.48"/>
</g>
<!-- strict&#45;filter&#45;types.d.mts&#45;&gt;filter&#45;types.d.mts -->
<g id="edge35" class="edge">
<title>strict&#45;filter&#45;types.d.mts&#45;&gt;filter&#45;types.d.mts</title>
<path fill="none" stroke="#000000" stroke-opacity="0.200000" d="M718.02,-226.92C739.41,-226.92 759.25,-226.92 759.25,-226.92 759.25,-226.92 759.25,-192.75 759.25,-192.75"/>
<polygon fill="none" stroke="#000000" stroke-opacity="0.200000" points="761.35,-192.75 759.25,-186.75 757.15,-192.75 761.35,-192.75"/>
</g>
<!-- strict&#45;options.d.mts -->
<g id="node26" class="node">
<title>strict&#45;options.d.mts</title>
<g id="a_node26"><a xlink:href="https://github.com/sverweij/dependency-cruiser/blob/main/strict-options.d.mts" xlink:title="strict&#45;options.d.mts">
<path fill="#ddfeff" stroke="black" d="M433.21,-279.75C433.21,-279.75 353.29,-279.75 353.29,-279.75 350.33,-279.75 347.38,-276.79 347.38,-273.83 347.38,-273.83 347.38,-267.92 347.38,-267.92 347.38,-264.96 350.33,-262 353.29,-262 353.29,-262 433.21,-262 433.21,-262 436.17,-262 439.12,-264.96 439.12,-267.92 439.12,-267.92 439.12,-273.83 439.12,-273.83 439.12,-276.79 436.17,-279.75 433.21,-279.75"/>
<text text-anchor="middle" x="393.25" y="-267.2" font-family="Helvetica,sans-Serif" font-size="9.00">strict&#45;options.d.mts</text>
</a>
</g>
</g>
<!-- strict&#45;options.d.mts&#45;&gt;cache&#45;options.d.mts -->
<g id="edge37" class="edge">
<title>strict&#45;options.d.mts&#45;&gt;cache&#45;options.d.mts</title>
<path fill="none" stroke="#000000" stroke-opacity="0.200000" d="M439.54,-263.62C470.74,-263.62 506.25,-263.62 506.25,-263.62 506.25,-263.62 506.25,-202.81 506.25,-202.81 506.25,-202.81 609.17,-202.81 609.17,-202.81"/>
<polygon fill="none" stroke="#000000" stroke-opacity="0.200000" points="609.17,-204.91 615.17,-202.81 609.17,-200.71 609.17,-204.91"/>
</g>
<!-- strict&#45;options.d.mts&#45;&gt;options.d.mts -->
<g id="edge38" class="edge">
<title>strict&#45;options.d.mts&#45;&gt;options.d.mts</title>
<path fill="none" stroke="#000000" stroke-opacity="0.200000" d="M439.35,-265.25C480.82,-265.25 535.25,-265.25 535.25,-265.25 535.25,-265.25 535.25,-177.65 535.25,-177.65"/>
<polygon fill="none" stroke="#000000" stroke-opacity="0.200000" points="537.35,-177.65 535.25,-171.65 533.15,-177.65 537.35,-177.65"/>
</g>
<!-- strict&#45;options.d.mts&#45;&gt;shared&#45;types.d.mts -->
<g id="edge39" class="edge">
<title>strict&#45;options.d.mts&#45;&gt;shared&#45;types.d.mts</title>
<path fill="none" stroke="#000000" stroke-opacity="0.200000" d="M393.25,-279.96C393.25,-290.62 393.25,-306.88 393.25,-306.88 393.25,-306.88 991.25,-306.88 991.25,-306.88 991.25,-306.88 991.25,-240.59 991.25,-240.59"/>
<polygon fill="none" stroke="#000000" stroke-opacity="0.200000" points="993.35,-240.59 991.25,-234.59 989.15,-240.59 993.35,-240.59"/>
</g>
<!-- strict&#45;options.d.mts&#45;&gt;strict&#45;filter&#45;types.d.mts -->
<g id="edge40" class="edge">
<title>strict&#45;options.d.mts&#45;&gt;strict&#45;filter&#45;types.d.mts</title>
<path fill="none" stroke="#000000" stroke-opacity="0.200000" d="M439.59,-266.88C506.51,-266.88 622.25,-266.88 622.25,-266.88 622.25,-266.88 622.25,-249.68 622.25,-249.68"/>
<polygon fill="none" stroke="#000000" stroke-opacity="0.200000" points="624.35,-249.68 622.25,-243.68 620.15,-249.68 624.35,-249.68"/>
</g>
<!-- strict&#45;rule&#45;set.d.mts -->
<g id="node27" class="node">
<title>strict&#45;rule&#45;set.d.mts</title>
<g id="a_node27"><a xlink:href="https://github.com/sverweij/dependency-cruiser/blob/main/strict-rule-set.d.mts" xlink:title="strict&#45;rule&#45;set.d.mts">
<path fill="#ddfeff" stroke="black" d="M586.46,-329.75C586.46,-329.75 505.79,-329.75 505.79,-329.75 502.83,-329.75 499.88,-326.79 499.88,-323.83 499.88,-323.83 499.88,-317.92 499.88,-317.92 499.88,-314.96 502.83,-312 505.79,-312 505.79,-312 586.46,-312 586.46,-312 589.42,-312 592.38,-314.96 592.38,-317.92 592.38,-317.92 592.38,-323.83 592.38,-323.83 592.38,-326.79 589.42,-329.75 586.46,-329.75"/>
<text text-anchor="middle" x="546.12" y="-317.2" font-family="Helvetica,sans-Serif" font-size="9.00">strict&#45;rule&#45;set.d.mts</text>
</a>
</g>
</g>
<!-- strict&#45;options.d.mts&#45;&gt;strict&#45;rule&#45;set.d.mts -->
<g id="edge41" class="edge">
<title>strict&#45;options.d.mts&#45;&gt;strict&#45;rule&#45;set.d.mts</title>
<path fill="none" stroke="#000000" stroke-opacity="0.200000" d="M439.43,-268.5C471.78,-268.5 509.25,-268.5 509.25,-268.5 509.25,-268.5 509.25,-304.24 509.25,-304.24"/>
<polygon fill="none" stroke="#000000" stroke-opacity="0.200000" points="507.15,-304.24 509.25,-310.24 511.35,-304.24 507.15,-304.24"/>
</g>
<!-- strict&#45;rule&#45;set.d.mts&#45;&gt;rule&#45;set.d.mts -->
<g id="edge44" class="edge">
<title>strict&#45;rule&#45;set.d.mts&#45;&gt;rule&#45;set.d.mts</title>
<path fill="none" stroke="#000000" stroke-opacity="0.200000" d="M585.25,-311.57C585.25,-296.92 585.25,-270.12 585.25,-270.12 585.25,-270.12 622.76,-270.12 622.76,-270.12"/>
<polygon fill="none" stroke="#000000" stroke-opacity="0.200000" points="622.76,-272.23 628.76,-270.13 622.76,-268.03 622.76,-272.23"/>
</g>
<!-- strict&#45;rule&#45;set.d.mts&#45;&gt;shared&#45;types.d.mts -->
<g id="edge45" class="edge">
<title>strict&#45;rule&#45;set.d.mts&#45;&gt;shared&#45;types.d.mts</title>
<path fill="none" stroke="#000000" stroke-opacity="0.200000" d="M592.72,-320.88C711.13,-320.88 1014.25,-320.88 1014.25,-320.88 1014.25,-320.88 1014.25,-240.69 1014.25,-240.69"/>
<polygon fill="none" stroke="#000000" stroke-opacity="0.200000" points="1016.35,-240.69 1014.25,-234.69 1012.15,-240.69 1016.35,-240.69"/>
</g>
<!-- strict&#45;restrictions.d.mts -->
<g id="node28" class="node">
<title>strict&#45;restrictions.d.mts</title>
<g id="a_node28"><a xlink:href="https://github.com/sverweij/dependency-cruiser/blob/main/strict-restrictions.d.mts" xlink:title="strict&#45;restrictions.d.mts">
<path fill="#ddfeff" stroke="black" d="M712.96,-301.75C712.96,-301.75 618.79,-301.75 618.79,-301.75 615.83,-301.75 612.88,-298.79 612.88,-295.83 612.88,-295.83 612.88,-289.92 612.88,-289.92 612.88,-286.96 615.83,-284 618.79,-284 618.79,-284 712.96,-284 712.96,-284 715.92,-284 718.88,-286.96 718.88,-289.92 718.88,-289.92 718.88,-295.83 718.88,-295.83 718.88,-298.79 715.92,-301.75 712.96,-301.75"/>
<text text-anchor="middle" x="665.88" y="-289.2" font-family="Helvetica,sans-Serif" font-size="9.00">strict&#45;restrictions.d.mts</text>
</a>
</g>
</g>
<!-- strict&#45;rule&#45;set.d.mts&#45;&gt;strict&#45;restrictions.d.mts -->
<g id="edge46" class="edge">
<title>strict&#45;rule&#45;set.d.mts&#45;&gt;strict&#45;restrictions.d.mts</title>
<path fill="none" stroke="#000000" stroke-opacity="0.200000" d="M588.25,-311.71C588.25,-303.54 588.25,-292.88 588.25,-292.88 588.25,-292.88 604.87,-292.88 604.87,-292.88"/>
<polygon fill="none" stroke="#000000" stroke-opacity="0.200000" points="604.87,-294.98 610.87,-292.88 604.87,-290.78 604.87,-294.98"/>
</g>
<!-- strict&#45;restrictions.d.mts&#45;&gt;shared&#45;types.d.mts -->
<g id="edge43" class="edge">
<title>strict&#45;restrictions.d.mts&#45;&gt;shared&#45;types.d.mts</title>
<path fill="none" stroke="#000000" stroke-opacity="0.200000" d="M719.24,-292.88C806.04,-292.88 968.25,-292.88 968.25,-292.88 968.25,-292.88 968.25,-240.69 968.25,-240.69"/>
<polygon fill="none" stroke="#000000" stroke-opacity="0.200000" points="970.35,-240.69 968.25,-234.69 966.15,-240.69 970.35,-240.69"/>
</g>
<!-- strict&#45;restrictions.d.mts&#45;&gt;restrictions.d.mts -->
<g id="edge42" class="edge">
<title>strict&#45;restrictions.d.mts&#45;&gt;restrictions.d.mts</title>
<path fill="none" stroke="#000000" stroke-opacity="0.200000" d="M710.25,-283.54C710.25,-276.42 710.25,-267.81 710.25,-267.81 710.25,-267.81 729.76,-267.81 729.76,-267.81"/>
<polygon fill="none" stroke="#000000" stroke-opacity="0.200000" points="729.76,-269.91 735.76,-267.81 729.76,-265.71 729.76,-269.91"/>
</g>
</g>
</svg>
