<?xml version="1.0" encoding="UTF-8" standalone="no"?>
<!DOCTYPE svg PUBLIC "-//W3C//DTD SVG 1.1//EN"
 "http://www.w3.org/Graphics/SVG/1.1/DTD/svg11.dtd">
<!-- Generated by graphviz version 7.0.4 (20221203.1631)
 -->
<!-- Title: dependency&#45;cruiser output Pages: 1 -->
<svg width="756pt" height="374pt"
 viewBox="0.00 0.00 756.00 374.00" xmlns="http://www.w3.org/2000/svg" xmlns:xlink="http://www.w3.org/1999/xlink">
<g id="graph0" class="graph" transform="scale(1 1) rotate(0) translate(4 370)">
<title>dependency&#45;cruiser output</title>
<polygon fill="white" stroke="none" points="-4,4 -4,-370 752,-370 752,4 -4,4"/>
<g id="clust1" class="cluster">
<title>cluster_node_modules</title>
<path fill="#ffffff" stroke="black" stroke-width="2" d="M244,-8C244,-8 327,-8 327,-8 333,-8 339,-14 339,-20 339,-20 339,-78 339,-78 339,-84 333,-90 327,-90 327,-90 244,-90 244,-90 238,-90 232,-84 232,-78 232,-78 232,-20 232,-20 232,-14 238,-8 244,-8"/>
<text text-anchor="middle" x="285.5" y="-78.8" font-family="Helvetica,sans-Serif" font-weight="bold" font-size="9.00">node_modules</text>
</g>
<!-- baseline&#45;violations.d.ts -->
<g id="node1" class="node">
<title>baseline&#45;violations.d.ts</title>
<g id="a_node1"><a xlink:href="https://github.com/sverweij/dependency-cruiser/blob/develop/baseline-violations.d.ts" xlink:title="baseline&#45;violations.d.ts">
<path fill="#ddfeff" stroke="black" d="M451,-194C451,-194 353,-194 353,-194 350,-194 347,-191 347,-188 347,-188 347,-182 347,-182 347,-179 350,-176 353,-176 353,-176 451,-176 451,-176 454,-176 457,-179 457,-182 457,-182 457,-188 457,-188 457,-191 454,-194 451,-194"/>
<text text-anchor="middle" x="402" y="-182.8" font-family="Helvetica,sans-Serif" font-size="9.00">baseline&#45;violations.d.ts</text>
</a>
</g>
</g>
<!-- violations.d.ts -->
<g id="node2" class="node">
<title>violations.d.ts</title>
<g id="a_node2"><a xlink:href="https://github.com/sverweij/dependency-cruiser/blob/develop/violations.d.ts" xlink:title="violations.d.ts">
<path fill="#ddfeff" stroke="black" d="M538.5,-181C538.5,-181 478.5,-181 478.5,-181 475.5,-181 472.5,-178 472.5,-175 472.5,-175 472.5,-169 472.5,-169 472.5,-166 475.5,-163 478.5,-163 478.5,-163 538.5,-163 538.5,-163 541.5,-163 544.5,-166 544.5,-169 544.5,-169 544.5,-175 544.5,-175 544.5,-178 541.5,-181 538.5,-181"/>
<text text-anchor="middle" x="508.5" y="-169.8" font-family="Helvetica,sans-Serif" font-size="9.00">violations.d.ts</text>
</a>
</g>
</g>
<!-- baseline&#45;violations.d.ts&#45;&gt;violations.d.ts -->
<g id="edge1" class="edge">
<title>baseline&#45;violations.d.ts&#45;&gt;violations.d.ts</title>
<path fill="none" stroke="#000000" stroke-width="2" stroke-opacity="0.200000" d="M457.38,-187.5C483.49,-187.5 509,-187.5 509,-187.5 509,-187.5 509,-186.87 509,-186.87"/>
<polygon fill="#000000" fill-opacity="0.200000" stroke="#000000" stroke-width="2" stroke-opacity="0.200000" points="511.1,-190.22 509,-184.22 506.9,-190.22 511.1,-190.22"/>
</g>
<!-- rule&#45;summary.d.ts -->
<g id="node7" class="node">
<title>rule&#45;summary.d.ts</title>
<g id="a_node7"><a xlink:href="https://github.com/sverweij/dependency-cruiser/blob/develop/rule-summary.d.ts" xlink:title="rule&#45;summary.d.ts">
<path fill="#ddfeff" stroke="black" d="M643,-168C643,-168 566,-168 566,-168 563,-168 560,-165 560,-162 560,-162 560,-156 560,-156 560,-153 563,-150 566,-150 566,-150 643,-150 643,-150 646,-150 649,-153 649,-156 649,-156 649,-162 649,-162 649,-165 646,-168 643,-168"/>
<text text-anchor="middle" x="604.5" y="-156.8" font-family="Helvetica,sans-Serif" font-size="9.00">rule&#45;summary.d.ts</text>
</a>
</g>
</g>
<!-- violations.d.ts&#45;&gt;rule&#45;summary.d.ts -->
<g id="edge38" class="edge">
<title>violations.d.ts&#45;&gt;rule&#45;summary.d.ts</title>
<path fill="none" stroke="#000000" stroke-width="2" stroke-opacity="0.200000" d="M521,-162.68C521,-161.88 521,-161.38 521,-161.38 521,-161.38 550.79,-161.38 550.79,-161.38"/>
<polygon fill="#000000" fill-opacity="0.200000" stroke="#000000" stroke-width="2" stroke-opacity="0.200000" points="550.79,-163.48 556.79,-161.38 550.79,-159.28 550.79,-163.48"/>
</g>
<!-- shared&#45;types.d.ts -->
<g id="node8" class="node">
<title>shared&#45;types.d.ts</title>
<g id="a_node8"><a xlink:href="https://github.com/sverweij/dependency-cruiser/blob/develop/shared-types.d.ts" xlink:title="shared&#45;types.d.ts">
<path fill="#ddfeff" stroke="black" d="M742,-306C742,-306 668,-306 668,-306 665,-306 662,-303 662,-300 662,-300 662,-294 662,-294 662,-291 665,-288 668,-288 668,-288 742,-288 742,-288 745,-288 748,-291 748,-294 748,-294 748,-300 748,-300 748,-303 745,-306 742,-306"/>
<text text-anchor="middle" x="705" y="-294.8" font-family="Helvetica,sans-Serif" font-size="9.00">shared&#45;types.d.ts</text>
</a>
</g>
</g>
<!-- violations.d.ts&#45;&gt;shared&#45;types.d.ts -->
<g id="edge39" class="edge">
<title>violations.d.ts&#45;&gt;shared&#45;types.d.ts</title>
<path fill="none" stroke="#000000" stroke-width="2" stroke-opacity="0.200000" d="M544.77,-174.5C603.76,-174.5 714,-174.5 714,-174.5 714,-174.5 714,-278.77 714,-278.77"/>
<polygon fill="#000000" fill-opacity="0.200000" stroke="#000000" stroke-width="2" stroke-opacity="0.200000" points="711.9,-278.77 714,-284.77 716.1,-278.77 711.9,-278.77"/>
</g>
<!-- configuration.d.ts -->
<g id="node3" class="node">
<title>configuration.d.ts</title>
<g id="a_node3"><a xlink:href="https://github.com/sverweij/dependency-cruiser/blob/develop/configuration.d.ts" xlink:title="configuration.d.ts">
<path fill="#ddfeff" stroke="black" d="M213,-255C213,-255 139,-255 139,-255 136,-255 133,-252 133,-249 133,-249 133,-243 133,-243 133,-240 136,-237 139,-237 139,-237 213,-237 213,-237 216,-237 219,-240 219,-243 219,-243 219,-249 219,-249 219,-252 216,-255 213,-255"/>
<text text-anchor="middle" x="176" y="-243.8" font-family="Helvetica,sans-Serif" font-size="9.00">configuration.d.ts</text>
</a>
</g>
</g>
<!-- options.d.ts -->
<g id="node4" class="node">
<title>options.d.ts</title>
<g id="a_node4"><a xlink:href="https://github.com/sverweij/dependency-cruiser/blob/develop/options.d.ts" xlink:title="options.d.ts">
<path fill="#ddfeff" stroke="black" d="M311,-227C311,-227 260,-227 260,-227 257,-227 254,-224 254,-221 254,-221 254,-215 254,-215 254,-212 257,-209 260,-209 260,-209 311,-209 311,-209 314,-209 317,-212 317,-215 317,-215 317,-221 317,-221 317,-224 314,-227 311,-227"/>
<text text-anchor="middle" x="285.5" y="-215.8" font-family="Helvetica,sans-Serif" font-size="9.00">options.d.ts</text>
</a>
</g>
</g>
<!-- configuration.d.ts&#45;&gt;options.d.ts -->
<g id="edge2" class="edge">
<title>configuration.d.ts&#45;&gt;options.d.ts</title>
<path fill="none" stroke="#000000" stroke-width="2" stroke-opacity="0.200000" d="M219.46,-245.67C242.05,-245.67 265,-245.67 265,-245.67 265,-245.67 265,-236.39 265,-236.39"/>
<polygon fill="#000000" fill-opacity="0.200000" stroke="#000000" stroke-width="2" stroke-opacity="0.200000" points="267.1,-236.39 265,-230.39 262.9,-236.39 267.1,-236.39"/>
</g>
<!-- rule&#45;set.d.ts -->
<g id="node5" class="node">
<title>rule&#45;set.d.ts</title>
<g id="a_node5"><a xlink:href="https://github.com/sverweij/dependency-cruiser/blob/develop/rule-set.d.ts" xlink:title="rule&#45;set.d.ts">
<path fill="#ddfeff" stroke="black" d="M428,-306C428,-306 376,-306 376,-306 373,-306 370,-303 370,-300 370,-300 370,-294 370,-294 370,-291 373,-288 376,-288 376,-288 428,-288 428,-288 431,-288 434,-291 434,-294 434,-294 434,-300 434,-300 434,-303 431,-306 428,-306"/>
<text text-anchor="middle" x="402" y="-294.8" font-family="Helvetica,sans-Serif" font-size="9.00">rule&#45;set.d.ts</text>
</a>
</g>
</g>
<!-- configuration.d.ts&#45;&gt;rule&#45;set.d.ts -->
<g id="edge3" class="edge">
<title>configuration.d.ts&#45;&gt;rule&#45;set.d.ts</title>
<path fill="none" stroke="#000000" stroke-width="2" stroke-opacity="0.200000" d="M151,-255.35C151,-270.08 151,-297 151,-297 151,-297 360.67,-297 360.67,-297"/>
<polygon fill="#000000" fill-opacity="0.200000" stroke="#000000" stroke-width="2" stroke-opacity="0.200000" points="360.67,-299.1 366.67,-297 360.67,-294.9 360.67,-299.1"/>
</g>
<!-- options.d.ts&#45;&gt;baseline&#45;violations.d.ts -->
<g id="edge17" class="edge">
<title>options.d.ts&#45;&gt;baseline&#45;violations.d.ts</title>
<path fill="none" stroke="#000000" stroke-width="2" stroke-opacity="0.200000" d="M301,-208.63C301,-198.88 301,-185 301,-185 301,-185 337.74,-185 337.74,-185"/>
<polygon fill="#000000" fill-opacity="0.200000" stroke="#000000" stroke-width="2" stroke-opacity="0.200000" points="337.74,-187.1 343.74,-185 337.74,-182.9 337.74,-187.1"/>
</g>
<!-- options.d.ts&#45;&gt;rule&#45;set.d.ts -->
<g id="edge20" class="edge">
<title>options.d.ts&#45;&gt;rule&#45;set.d.ts</title>
<path fill="none" stroke="#000000" stroke-width="2" stroke-opacity="0.200000" d="M286,-227.25C286,-246.89 286,-291 286,-291 286,-291 360.66,-291 360.66,-291"/>
<polygon fill="#000000" fill-opacity="0.200000" stroke="#000000" stroke-width="2" stroke-opacity="0.200000" points="360.66,-293.1 366.66,-291 360.66,-288.9 360.66,-293.1"/>
</g>
<!-- options.d.ts&#45;&gt;shared&#45;types.d.ts -->
<g id="edge21" class="edge">
<title>options.d.ts&#45;&gt;shared&#45;types.d.ts</title>
<path fill="none" stroke="#000000" stroke-width="2" stroke-opacity="0.200000" d="M317.45,-218C414.13,-218 697,-218 697,-218 697,-218 697,-278.6 697,-278.6"/>
<polygon fill="#000000" fill-opacity="0.200000" stroke="#000000" stroke-width="2" stroke-opacity="0.200000" points="694.9,-278.6 697,-284.6 699.1,-278.6 694.9,-278.6"/>
</g>
<!-- filter&#45;types.d.ts -->
<g id="node12" class="node">
<title>filter&#45;types.d.ts</title>
<g id="a_node12"><a xlink:href="https://github.com/sverweij/dependency-cruiser/blob/develop/filter-types.d.ts" xlink:title="filter&#45;types.d.ts">
<path fill="#ddfeff" stroke="black" d="M540,-278C540,-278 477,-278 477,-278 474,-278 471,-275 471,-272 471,-272 471,-266 471,-266 471,-263 474,-260 477,-260 477,-260 540,-260 540,-260 543,-260 546,-263 546,-266 546,-266 546,-272 546,-272 546,-275 543,-278 540,-278"/>
<text text-anchor="middle" x="508.5" y="-266.8" font-family="Helvetica,sans-Serif" font-size="9.00">filter&#45;types.d.ts</text>
</a>
</g>
</g>
<!-- options.d.ts&#45;&gt;filter&#45;types.d.ts -->
<g id="edge18" class="edge">
<title>options.d.ts&#45;&gt;filter&#45;types.d.ts</title>
<path fill="none" stroke="#000000" stroke-width="2" stroke-opacity="0.200000" d="M296,-227.05C296,-241.29 296,-267.33 296,-267.33 296,-267.33 461.48,-267.33 461.48,-267.33"/>
<polygon fill="#000000" fill-opacity="0.200000" stroke="#000000" stroke-width="2" stroke-opacity="0.200000" points="461.48,-269.43 467.48,-267.33 461.48,-265.23 461.48,-269.43"/>
</g>
<!-- reporter&#45;options.d.ts -->
<g id="node15" class="node">
<title>reporter&#45;options.d.ts</title>
<g id="a_node15"><a xlink:href="https://github.com/sverweij/dependency-cruiser/blob/develop/reporter-options.d.ts" xlink:title="reporter&#45;options.d.ts">
<path fill="#ddfeff" stroke="black" d="M445,-250C445,-250 359,-250 359,-250 356,-250 353,-247 353,-244 353,-244 353,-238 353,-238 353,-235 356,-232 359,-232 359,-232 445,-232 445,-232 448,-232 451,-235 451,-238 451,-238 451,-244 451,-244 451,-247 448,-250 445,-250"/>
<text text-anchor="middle" x="402" y="-238.8" font-family="Helvetica,sans-Serif" font-size="9.00">reporter&#45;options.d.ts</text>
</a>
</g>
</g>
<!-- options.d.ts&#45;&gt;reporter&#45;options.d.ts -->
<g id="edge19" class="edge">
<title>options.d.ts&#45;&gt;reporter&#45;options.d.ts</title>
<path fill="none" stroke="#000000" stroke-width="2" stroke-opacity="0.200000" d="M307,-227.49C307,-233.95 307,-241.33 307,-241.33 307,-241.33 343.53,-241.33 343.53,-241.33"/>
<polygon fill="#000000" fill-opacity="0.200000" stroke="#000000" stroke-width="2" stroke-opacity="0.200000" points="343.53,-243.43 349.53,-241.33 343.53,-239.23 343.53,-243.43"/>
</g>
<!-- rule&#45;set.d.ts&#45;&gt;shared&#45;types.d.ts -->
<g id="edge26" class="edge">
<title>rule&#45;set.d.ts&#45;&gt;shared&#45;types.d.ts</title>
<path fill="none" stroke="#000000" stroke-width="2" stroke-opacity="0.200000" d="M434.43,-295.71C434.43,-295.71 652.61,-295.71 652.61,-295.71"/>
<polygon fill="#000000" fill-opacity="0.200000" stroke="#000000" stroke-width="2" stroke-opacity="0.200000" points="652.61,-297.81 658.61,-295.71 652.61,-293.61 652.61,-297.81"/>
</g>
<!-- restrictions.d.ts -->
<g id="node16" class="node">
<title>restrictions.d.ts</title>
<g id="a_node16"><a xlink:href="https://github.com/sverweij/dependency-cruiser/blob/develop/restrictions.d.ts" xlink:title="restrictions.d.ts">
<path fill="#ddfeff" stroke="black" d="M541,-360C541,-360 476,-360 476,-360 473,-360 470,-357 470,-354 470,-354 470,-348 470,-348 470,-345 473,-342 476,-342 476,-342 541,-342 541,-342 544,-342 547,-345 547,-348 547,-348 547,-354 547,-354 547,-357 544,-360 541,-360"/>
<text text-anchor="middle" x="508.5" y="-348.8" font-family="Helvetica,sans-Serif" font-size="9.00">restrictions.d.ts</text>
</a>
</g>
</g>
<!-- rule&#45;set.d.ts&#45;&gt;restrictions.d.ts -->
<g id="edge25" class="edge">
<title>rule&#45;set.d.ts&#45;&gt;restrictions.d.ts</title>
<path fill="none" stroke="#000000" stroke-width="2" stroke-opacity="0.200000" d="M434.27,-303.43C459.38,-303.43 490,-303.43 490,-303.43 490,-303.43 490,-332.8 490,-332.8"/>
<polygon fill="#000000" fill-opacity="0.200000" stroke="#000000" stroke-width="2" stroke-opacity="0.200000" points="487.9,-332.8 490,-338.8 492.1,-332.8 487.9,-332.8"/>
</g>
<!-- cruise&#45;result.d.ts -->
<g id="node6" class="node">
<title>cruise&#45;result.d.ts</title>
<g id="a_node6"><a xlink:href="https://github.com/sverweij/dependency-cruiser/blob/develop/cruise-result.d.ts" xlink:title="cruise&#45;result.d.ts">
<path fill="#ddfeff" stroke="black" d="M211.5,-166C211.5,-166 140.5,-166 140.5,-166 137.5,-166 134.5,-163 134.5,-160 134.5,-160 134.5,-154 134.5,-154 134.5,-151 137.5,-148 140.5,-148 140.5,-148 211.5,-148 211.5,-148 214.5,-148 217.5,-151 217.5,-154 217.5,-154 217.5,-160 217.5,-160 217.5,-163 214.5,-166 211.5,-166"/>
<text text-anchor="middle" x="176" y="-154.8" font-family="Helvetica,sans-Serif" font-size="9.00">cruise&#45;result.d.ts</text>
</a>
</g>
</g>
<!-- cruise&#45;result.d.ts&#45;&gt;violations.d.ts -->
<g id="edge8" class="edge">
<title>cruise&#45;result.d.ts&#45;&gt;violations.d.ts</title>
<path fill="none" stroke="#000000" stroke-width="2" stroke-opacity="0.200000" d="M217.97,-156.5C304.98,-156.5 497,-156.5 497,-156.5 497,-156.5 497,-157.13 497,-157.13"/>
<polygon fill="#000000" fill-opacity="0.200000" stroke="#000000" stroke-width="2" stroke-opacity="0.200000" points="494.9,-153.78 497,-159.78 499.1,-153.78 494.9,-153.78"/>
</g>
<!-- cruise&#45;result.d.ts&#45;&gt;options.d.ts -->
<g id="edge4" class="edge">
<title>cruise&#45;result.d.ts&#45;&gt;options.d.ts</title>
<path fill="none" stroke="#000000" stroke-width="2" stroke-opacity="0.200000" d="M217.9,-158.12C248.99,-158.12 286,-158.12 286,-158.12 286,-158.12 286,-199.62 286,-199.62"/>
<polygon fill="#000000" fill-opacity="0.200000" stroke="#000000" stroke-width="2" stroke-opacity="0.200000" points="283.9,-199.62 286,-205.62 288.1,-199.62 283.9,-199.62"/>
</g>
<!-- cruise&#45;result.d.ts&#45;&gt;rule&#45;set.d.ts -->
<g id="edge5" class="edge">
<title>cruise&#45;result.d.ts&#45;&gt;rule&#45;set.d.ts</title>
<path fill="none" stroke="#000000" stroke-width="2" stroke-opacity="0.200000" d="M217.87,-159.75C225.97,-159.75 232,-159.75 232,-159.75 232,-159.75 232,-294 232,-294 232,-294 360.6,-294 360.6,-294"/>
<polygon fill="#000000" fill-opacity="0.200000" stroke="#000000" stroke-width="2" stroke-opacity="0.200000" points="360.6,-296.1 366.6,-294 360.6,-291.9 360.6,-296.1"/>
</g>
<!-- cruise&#45;result.d.ts&#45;&gt;rule&#45;summary.d.ts -->
<g id="edge6" class="edge">
<title>cruise&#45;result.d.ts&#45;&gt;rule&#45;summary.d.ts</title>
<path fill="none" stroke="#000000" stroke-width="2" stroke-opacity="0.200000" d="M217.87,-153.25C217.87,-153.25 550.55,-153.25 550.55,-153.25"/>
<polygon fill="#000000" fill-opacity="0.200000" stroke="#000000" stroke-width="2" stroke-opacity="0.200000" points="550.55,-155.35 556.55,-153.25 550.55,-151.15 550.55,-155.35"/>
</g>
<!-- cruise&#45;result.d.ts&#45;&gt;shared&#45;types.d.ts -->
<g id="edge7" class="edge">
<title>cruise&#45;result.d.ts&#45;&gt;shared&#45;types.d.ts</title>
<path fill="none" stroke="#000000" stroke-width="2" stroke-opacity="0.200000" d="M217.9,-154.88C316.31,-154.88 554,-154.88 554,-154.88 554,-154.88 554,-290.57 554,-290.57 554,-290.57 652.7,-290.57 652.7,-290.57"/>
<polygon fill="#000000" fill-opacity="0.200000" stroke="#000000" stroke-width="2" stroke-opacity="0.200000" points="652.7,-292.67 658.7,-290.57 652.7,-288.47 652.7,-292.67"/>
</g>
<!-- node_modules/watskeburt -->
<g id="node9" class="node">
<title>node_modules/watskeburt</title>
<g id="a_node9"><a xlink:href="https://github.com/sverweij/dependency-cruiser/blob/develop/node_modules/watskeburt" xlink:title="watskeburt">
<polygon fill="#c40b0a" fill-opacity="0.101961" stroke="black" points="316,-64 257,-64 255,-62 255,-46 314,-46 316,-48 316,-64"/>
<polyline fill="none" stroke="black" points="314,-62 255,-62"/>
<polyline fill="none" stroke="black" points="314,-62 314,-46"/>
<polyline fill="none" stroke="black" points="314,-62 316,-64"/>
<text text-anchor="start" x="263" y="-52.8" font-family="Helvetica,sans-Serif" font-size="9.00" fill="#c40b0a">watskeburt</text>
</a>
</g>
</g>
<!-- cruise&#45;result.d.ts&#45;&gt;node_modules/watskeburt -->
<g id="edge9" class="edge">
<title>cruise&#45;result.d.ts&#45;&gt;node_modules/watskeburt</title>
<path fill="none" stroke="#000000" stroke-opacity="0.200000" d="M217.94,-151.62C243.39,-151.62 271,-151.62 271,-151.62 271,-151.62 271,-71.78 271,-71.78"/>
<polygon fill="#000000" fill-opacity="0.200000" stroke="#000000" stroke-opacity="0.200000" points="273.1,-71.78 271,-65.78 268.9,-71.78 273.1,-71.78"/>
</g>
<!-- rule&#45;summary.d.ts&#45;&gt;shared&#45;types.d.ts -->
<g id="edge27" class="edge">
<title>rule&#45;summary.d.ts&#45;&gt;shared&#45;types.d.ts</title>
<path fill="none" stroke="#000000" stroke-width="2" stroke-opacity="0.200000" d="M649.46,-159C685.82,-159 731,-159 731,-159 731,-159 731,-278.49 731,-278.49"/>
<polygon fill="#000000" fill-opacity="0.200000" stroke="#000000" stroke-width="2" stroke-opacity="0.200000" points="728.9,-278.49 731,-284.49 733.1,-278.49 728.9,-278.49"/>
</g>
<!-- dependency&#45;cruiser.d.ts -->
<g id="node10" class="node">
<title>dependency&#45;cruiser.d.ts</title>
<g id="a_node10"><a xlink:href="https://github.com/sverweij/dependency-cruiser/blob/develop/dependency-cruiser.d.ts" xlink:title="dependency&#45;cruiser.d.ts">
<path fill="#ddfeff" stroke="black" d="M109,-241C109,-241 6,-241 6,-241 3,-241 0,-238 0,-235 0,-235 0,-229 0,-229 0,-226 3,-223 6,-223 6,-223 109,-223 109,-223 112,-223 115,-226 115,-229 115,-229 115,-235 115,-235 115,-238 112,-241 109,-241"/>
<text text-anchor="middle" x="57.5" y="-229.8" font-family="Helvetica,sans-Serif" font-size="9.00">dependency&#45;cruiser.d.ts</text>
</a>
</g>
</g>
<!-- dependency&#45;cruiser.d.ts&#45;&gt;configuration.d.ts -->
<g id="edge10" class="edge">
<title>dependency&#45;cruiser.d.ts&#45;&gt;configuration.d.ts</title>
<path fill="none" stroke="#000000" stroke-width="2" stroke-opacity="0.200000" d="M110,-241.24C110,-244.33 110,-247 110,-247 110,-247 123.69,-247 123.69,-247"/>
<polygon fill="#000000" fill-opacity="0.200000" stroke="#000000" stroke-width="2" stroke-opacity="0.200000" points="123.69,-249.1 129.69,-247 123.69,-244.9 123.69,-249.1"/>
</g>
<!-- dependency&#45;cruiser.d.ts&#45;&gt;options.d.ts -->
<g id="edge12" class="edge">
<title>dependency&#45;cruiser.d.ts&#45;&gt;options.d.ts</title>
<path fill="none" stroke="#000000" stroke-width="2" stroke-opacity="0.200000" d="M29,-222.51C29,-219.06 29,-216 29,-216 29,-216 244.51,-216 244.51,-216"/>
<polygon fill="#000000" fill-opacity="0.200000" stroke="#000000" stroke-width="2" stroke-opacity="0.200000" points="244.51,-218.1 250.51,-216 244.51,-213.9 244.51,-218.1"/>
</g>
<!-- dependency&#45;cruiser.d.ts&#45;&gt;rule&#45;set.d.ts -->
<g id="edge14" class="edge">
<title>dependency&#45;cruiser.d.ts&#45;&gt;rule&#45;set.d.ts</title>
<path fill="none" stroke="#000000" stroke-width="2" stroke-opacity="0.200000" d="M100,-241.46C100,-260.14 100,-300 100,-300 100,-300 360.65,-300 360.65,-300"/>
<polygon fill="#000000" fill-opacity="0.200000" stroke="#000000" stroke-width="2" stroke-opacity="0.200000" points="360.65,-302.1 366.65,-300 360.65,-297.9 360.65,-302.1"/>
</g>
<!-- dependency&#45;cruiser.d.ts&#45;&gt;cruise&#45;result.d.ts -->
<g id="edge11" class="edge">
<title>dependency&#45;cruiser.d.ts&#45;&gt;cruise&#45;result.d.ts</title>
<path fill="none" stroke="#000000" stroke-width="2" stroke-opacity="0.200000" d="M87,-222.5C87,-202.32 87,-157 87,-157 87,-157 125.08,-157 125.08,-157"/>
<polygon fill="#000000" fill-opacity="0.200000" stroke="#000000" stroke-width="2" stroke-opacity="0.200000" points="125.08,-159.1 131.08,-157 125.08,-154.9 125.08,-159.1"/>
</g>
<!-- dependency&#45;cruiser.d.ts&#45;&gt;shared&#45;types.d.ts -->
<g id="edge15" class="edge">
<title>dependency&#45;cruiser.d.ts&#45;&gt;shared&#45;types.d.ts</title>
<path fill="none" stroke="#000000" stroke-width="2" stroke-opacity="0.200000" d="M105,-241.35C105,-256.08 105,-283 105,-283 105,-283 680,-283 680,-283 680,-283 680,-283.47 680,-283.47"/>
<polygon fill="#000000" fill-opacity="0.200000" stroke="#000000" stroke-width="2" stroke-opacity="0.200000" points="677.9,-278.71 680,-284.71 682.1,-278.71 677.9,-278.71"/>
</g>
<!-- resolve&#45;options.d.ts -->
<g id="node11" class="node">
<title>resolve&#45;options.d.ts</title>
<g id="a_node11"><a xlink:href="https://github.com/sverweij/dependency-cruiser/blob/develop/resolve-options.d.ts" xlink:title="resolve&#45;options.d.ts">
<path fill="#ddfeff" stroke="black" d="M218,-85C218,-85 134,-85 134,-85 131,-85 128,-82 128,-79 128,-79 128,-73 128,-73 128,-70 131,-67 134,-67 134,-67 218,-67 218,-67 221,-67 224,-70 224,-73 224,-73 224,-79 224,-79 224,-82 221,-85 218,-85"/>
<text text-anchor="middle" x="176" y="-73.8" font-family="Helvetica,sans-Serif" font-size="9.00">resolve&#45;options.d.ts</text>
</a>
</g>
</g>
<!-- dependency&#45;cruiser.d.ts&#45;&gt;resolve&#45;options.d.ts -->
<g id="edge13" class="edge">
<title>dependency&#45;cruiser.d.ts&#45;&gt;resolve&#45;options.d.ts</title>
<path fill="none" stroke="#000000" stroke-width="2" stroke-opacity="0.200000" d="M58,-222.71C58,-189.12 58,-76 58,-76 58,-76 118.64,-76 118.64,-76"/>
<polygon fill="#000000" fill-opacity="0.200000" stroke="#000000" stroke-width="2" stroke-opacity="0.200000" points="118.64,-78.1 124.64,-76 118.64,-73.9 118.64,-78.1"/>
</g>
<!-- node_modules/enhanced&#45;resolve -->
<g id="node14" class="node">
<title>node_modules/enhanced&#45;resolve</title>
<g id="a_node14"><a xlink:href="https://github.com/sverweij/dependency-cruiser/blob/develop/node_modules/enhanced-resolve" xlink:title="enhanced&#45;resolve">
<polygon fill="#c40b0a" fill-opacity="0.101961" stroke="black" points="331,-34 242,-34 240,-32 240,-16 329,-16 331,-18 331,-34"/>
<polyline fill="none" stroke="black" points="329,-32 240,-32"/>
<polyline fill="none" stroke="black" points="329,-32 329,-16"/>
<polyline fill="none" stroke="black" points="329,-32 331,-34"/>
<text text-anchor="start" x="248" y="-22.8" font-family="Helvetica,sans-Serif" font-size="9.00" fill="#c40b0a">enhanced&#45;resolve</text>
</a>
</g>
</g>
<!-- resolve&#45;options.d.ts&#45;&gt;node_modules/enhanced&#45;resolve -->
<g id="edge23" class="edge">
<title>resolve&#45;options.d.ts&#45;&gt;node_modules/enhanced&#45;resolve</title>
<path fill="none" stroke="#000000" stroke-opacity="0.200000" d="M224.29,-76C237.86,-76 249,-76 249,-76 249,-76 249,-41.87 249,-41.87"/>
<polygon fill="#000000" fill-opacity="0.200000" stroke="#000000" stroke-opacity="0.200000" points="251.1,-41.87 249,-35.87 246.9,-41.87 251.1,-41.87"/>
</g>
<!-- filter&#45;types.d.ts&#45;&gt;shared&#45;types.d.ts -->
<g id="edge16" class="edge">
<title>filter&#45;types.d.ts&#45;&gt;shared&#45;types.d.ts</title>
<path fill="none" stroke="#000000" stroke-width="2" stroke-opacity="0.200000" d="M528,-278.27C528,-285.07 528,-293.14 528,-293.14 528,-293.14 652.67,-293.14 652.67,-293.14"/>
<polygon fill="#000000" fill-opacity="0.200000" stroke="#000000" stroke-width="2" stroke-opacity="0.200000" points="652.67,-295.24 658.67,-293.14 652.67,-291.04 652.67,-295.24"/>
</g>
<!-- init&#45;config.d.ts -->
<g id="node13" class="node">
<title>init&#45;config.d.ts</title>
<g id="a_node13"><a xlink:href="https://github.com/sverweij/dependency-cruiser/blob/develop/init-config.d.ts" xlink:title="init&#45;config.d.ts">
<path fill="#ccffcc" stroke="black" d="M88,-271C88,-271 27,-271 27,-271 24,-271 21,-268 21,-265 21,-265 21,-259 21,-259 21,-256 24,-253 27,-253 27,-253 88,-253 88,-253 91,-253 94,-256 94,-259 94,-259 94,-265 94,-265 94,-268 91,-271 88,-271"/>
<text text-anchor="middle" x="57.5" y="-259.8" font-family="Helvetica,sans-Serif" font-size="9.00">init&#45;config.d.ts</text>
</a>
</g>
</g>
<!-- reporter&#45;options.d.ts&#45;&gt;filter&#45;types.d.ts -->
<g id="edge22" class="edge">
<title>reporter&#45;options.d.ts&#45;&gt;filter&#45;types.d.ts</title>
<path fill="none" stroke="#000000" stroke-width="2" stroke-opacity="0.200000" d="M447,-250.48C447,-256.69 447,-263.67 447,-263.67 447,-263.67 461.57,-263.67 461.57,-263.67"/>
<polygon fill="#000000" fill-opacity="0.200000" stroke="#000000" stroke-width="2" stroke-opacity="0.200000" points="461.57,-265.77 467.57,-263.67 461.57,-261.57 461.57,-265.77"/>
</g>
<!-- restrictions.d.ts&#45;&gt;shared&#45;types.d.ts -->
<g id="edge24" class="edge">
<title>restrictions.d.ts&#45;&gt;shared&#45;types.d.ts</title>
<path fill="none" stroke="#000000" stroke-width="2" stroke-opacity="0.200000" d="M509,-341.8C509,-327.33 509,-300.86 509,-300.86 509,-300.86 652.47,-300.86 652.47,-300.86"/>
<polygon fill="#000000" fill-opacity="0.200000" stroke="#000000" stroke-width="2" stroke-opacity="0.200000" points="652.47,-302.96 658.47,-300.86 652.47,-298.76 652.47,-302.96"/>
</g>
<!-- strict&#45;filter&#45;types.d.ts -->
<g id="node17" class="node">
<title>strict&#45;filter&#45;types.d.ts</title>
<g id="a_node17"><a xlink:href="https://github.com/sverweij/dependency-cruiser/blob/develop/strict-filter-types.d.ts" xlink:title="strict&#45;filter&#45;types.d.ts">
<path fill="#ddfeff" stroke="black" d="M444.5,-336C444.5,-336 359.5,-336 359.5,-336 356.5,-336 353.5,-333 353.5,-330 353.5,-330 353.5,-324 353.5,-324 353.5,-321 356.5,-318 359.5,-318 359.5,-318 444.5,-318 444.5,-318 447.5,-318 450.5,-321 450.5,-324 450.5,-324 450.5,-330 450.5,-330 450.5,-333 447.5,-336 444.5,-336"/>
<text text-anchor="middle" x="402" y="-324.8" font-family="Helvetica,sans-Serif" font-size="9.00">strict&#45;filter&#45;types.d.ts</text>
</a>
</g>
</g>
<!-- strict&#45;filter&#45;types.d.ts&#45;&gt;shared&#45;types.d.ts -->
<g id="edge29" class="edge">
<title>strict&#45;filter&#45;types.d.ts&#45;&gt;shared&#45;types.d.ts</title>
<path fill="none" stroke="#000000" stroke-width="2" stroke-opacity="0.200000" d="M443,-317.6C443,-309.22 443,-298.29 443,-298.29 443,-298.29 652.71,-298.29 652.71,-298.29"/>
<polygon fill="#000000" fill-opacity="0.200000" stroke="#000000" stroke-width="2" stroke-opacity="0.200000" points="652.71,-300.39 658.71,-298.29 652.71,-296.19 652.71,-300.39"/>
</g>
<!-- strict&#45;filter&#45;types.d.ts&#45;&gt;filter&#45;types.d.ts -->
<g id="edge28" class="edge">
<title>strict&#45;filter&#45;types.d.ts&#45;&gt;filter&#45;types.d.ts</title>
<path fill="none" stroke="#000000" stroke-width="2" stroke-opacity="0.200000" d="M439,-317.86C439,-302.81 439,-274.5 439,-274.5 439,-274.5 461.88,-274.5 461.88,-274.5"/>
<polygon fill="#000000" fill-opacity="0.200000" stroke="#000000" stroke-width="2" stroke-opacity="0.200000" points="461.88,-276.6 467.88,-274.5 461.88,-272.4 461.88,-276.6"/>
</g>
<!-- strict&#45;options.d.ts -->
<g id="node18" class="node">
<title>strict&#45;options.d.ts</title>
<g id="a_node18"><a xlink:href="https://github.com/sverweij/dependency-cruiser/blob/develop/strict-options.d.ts" xlink:title="strict&#45;options.d.ts">
<path fill="#ddfeff" stroke="black" d="M212.5,-351C212.5,-351 139.5,-351 139.5,-351 136.5,-351 133.5,-348 133.5,-345 133.5,-345 133.5,-339 133.5,-339 133.5,-336 136.5,-333 139.5,-333 139.5,-333 212.5,-333 212.5,-333 215.5,-333 218.5,-336 218.5,-339 218.5,-339 218.5,-345 218.5,-345 218.5,-348 215.5,-351 212.5,-351"/>
<text text-anchor="middle" x="176" y="-339.8" font-family="Helvetica,sans-Serif" font-size="9.00">strict&#45;options.d.ts</text>
</a>
</g>
</g>
<!-- strict&#45;options.d.ts&#45;&gt;options.d.ts -->
<g id="edge30" class="edge">
<title>strict&#45;options.d.ts&#45;&gt;options.d.ts</title>
<path fill="none" stroke="#000000" stroke-width="2" stroke-opacity="0.200000" d="M168,-332.63C168,-322.88 168,-309 168,-309 168,-309 275,-309 275,-309 275,-309 275,-236.42 275,-236.42"/>
<polygon fill="#000000" fill-opacity="0.200000" stroke="#000000" stroke-width="2" stroke-opacity="0.200000" points="277.1,-236.42 275,-230.42 272.9,-236.42 277.1,-236.42"/>
</g>
<!-- strict&#45;options.d.ts&#45;&gt;shared&#45;types.d.ts -->
<g id="edge31" class="edge">
<title>strict&#45;options.d.ts&#45;&gt;shared&#45;types.d.ts</title>
<path fill="none" stroke="#000000" stroke-width="2" stroke-opacity="0.200000" d="M185,-332.51C185,-323.72 185,-312 185,-312 185,-312 691,-312 691,-312 691,-312 691,-311.42 691,-311.42"/>
<polygon fill="#000000" fill-opacity="0.200000" stroke="#000000" stroke-width="2" stroke-opacity="0.200000" points="693.1,-315.27 691,-309.27 688.9,-315.27 693.1,-315.27"/>
</g>
<!-- strict&#45;options.d.ts&#45;&gt;strict&#45;filter&#45;types.d.ts -->
<g id="edge32" class="edge">
<title>strict&#45;options.d.ts&#45;&gt;strict&#45;filter&#45;types.d.ts</title>
<path fill="none" stroke="#000000" stroke-width="2" stroke-opacity="0.200000" d="M202,-332.59C202,-328.89 202,-325.5 202,-325.5 202,-325.5 344.05,-325.5 344.05,-325.5"/>
<polygon fill="#000000" fill-opacity="0.200000" stroke="#000000" stroke-width="2" stroke-opacity="0.200000" points="344.05,-327.6 350.05,-325.5 344.05,-323.4 344.05,-327.6"/>
</g>
<!-- strict&#45;rule&#45;set.d.ts -->
<g id="node19" class="node">
<title>strict&#45;rule&#45;set.d.ts</title>
<g id="a_node19"><a xlink:href="https://github.com/sverweij/dependency-cruiser/blob/develop/strict-rule-set.d.ts" xlink:title="strict&#45;rule&#45;set.d.ts">
<path fill="#ddfeff" stroke="black" d="M322.5,-366C322.5,-366 248.5,-366 248.5,-366 245.5,-366 242.5,-363 242.5,-360 242.5,-360 242.5,-354 242.5,-354 242.5,-351 245.5,-348 248.5,-348 248.5,-348 322.5,-348 322.5,-348 325.5,-348 328.5,-351 328.5,-354 328.5,-354 328.5,-360 328.5,-360 328.5,-363 325.5,-366 322.5,-366"/>
<text text-anchor="middle" x="285.5" y="-354.8" font-family="Helvetica,sans-Serif" font-size="9.00">strict&#45;rule&#45;set.d.ts</text>
</a>
</g>
</g>
<!-- strict&#45;options.d.ts&#45;&gt;strict&#45;rule&#45;set.d.ts -->
<g id="edge33" class="edge">
<title>strict&#45;options.d.ts&#45;&gt;strict&#45;rule&#45;set.d.ts</title>
<path fill="none" stroke="#000000" stroke-width="2" stroke-opacity="0.200000" d="M176,-351.41C176,-355.11 176,-358.5 176,-358.5 176,-358.5 233.2,-358.5 233.2,-358.5"/>
<polygon fill="#000000" fill-opacity="0.200000" stroke="#000000" stroke-width="2" stroke-opacity="0.200000" points="233.2,-360.6 239.2,-358.5 233.2,-356.4 233.2,-360.6"/>
</g>
<!-- strict&#45;rule&#45;set.d.ts&#45;&gt;rule&#45;set.d.ts -->
<g id="edge35" class="edge">
<title>strict&#45;rule&#45;set.d.ts&#45;&gt;rule&#45;set.d.ts</title>
<path fill="none" stroke="#000000" stroke-width="2" stroke-opacity="0.200000" d="M321,-347.59C321,-332.12 321,-303 321,-303 321,-303 360.49,-303 360.49,-303"/>
<polygon fill="#000000" fill-opacity="0.200000" stroke="#000000" stroke-width="2" stroke-opacity="0.200000" points="360.49,-305.1 366.49,-303 360.49,-300.9 360.49,-305.1"/>
</g>
<!-- strict&#45;rule&#45;set.d.ts&#45;&gt;shared&#45;types.d.ts -->
<g id="edge36" class="edge">
<title>strict&#45;rule&#45;set.d.ts&#45;&gt;shared&#45;types.d.ts</title>
<path fill="none" stroke="#000000" stroke-width="2" stroke-opacity="0.200000" d="M325,-347.68C325,-335.31 325,-315 325,-315 325,-315 720,-315 720,-315 720,-315 720,-314.14 720,-314.14"/>
<polygon fill="#000000" fill-opacity="0.200000" stroke="#000000" stroke-width="2" stroke-opacity="0.200000" points="722.1,-315.45 720,-309.45 717.9,-315.45 722.1,-315.45"/>
</g>
<!-- strict&#45;restrictions.d.ts -->
<g id="node20" class="node">
<title>strict&#45;restrictions.d.ts</title>
<g id="a_node20"><a xlink:href="https://github.com/sverweij/dependency-cruiser/blob/develop/strict-restrictions.d.ts" xlink:title="strict&#45;restrictions.d.ts">
<path fill="#ddfeff" stroke="black" d="M445.5,-366C445.5,-366 358.5,-366 358.5,-366 355.5,-366 352.5,-363 352.5,-360 352.5,-360 352.5,-354 352.5,-354 352.5,-351 355.5,-348 358.5,-348 358.5,-348 445.5,-348 445.5,-348 448.5,-348 451.5,-351 451.5,-354 451.5,-354 451.5,-360 451.5,-360 451.5,-363 448.5,-366 445.5,-366"/>
<text text-anchor="middle" x="402" y="-354.8" font-family="Helvetica,sans-Serif" font-size="9.00">strict&#45;restrictions.d.ts</text>
</a>
</g>
</g>
<!-- strict&#45;rule&#45;set.d.ts&#45;&gt;strict&#45;restrictions.d.ts -->
<g id="edge37" class="edge">
<title>strict&#45;rule&#45;set.d.ts&#45;&gt;strict&#45;restrictions.d.ts</title>
<path fill="none" stroke="#000000" stroke-width="2" stroke-opacity="0.200000" d="M328.88,-357C328.88,-357 343.28,-357 343.28,-357"/>
<polygon fill="#000000" fill-opacity="0.200000" stroke="#000000" stroke-width="2" stroke-opacity="0.200000" points="343.28,-359.1 349.28,-357 343.28,-354.9 343.28,-359.1"/>
</g>
<!-- strict&#45;restrictions.d.ts&#45;&gt;restrictions.d.ts -->
<g id="edge34" class="edge">
<title>strict&#45;restrictions.d.ts&#45;&gt;restrictions.d.ts</title>
<path fill="none" stroke="#000000" stroke-width="2" stroke-opacity="0.200000" d="M451.82,-354C451.82,-354 460.53,-354 460.53,-354"/>
<polygon fill="#000000" fill-opacity="0.200000" stroke="#000000" stroke-width="2" stroke-opacity="0.200000" points="460.53,-356.1 466.53,-354 460.53,-351.9 460.53,-356.1"/>
</g>
</g>
</svg>
