<?xml version="1.0" encoding="UTF-8" standalone="no"?>
<!DOCTYPE svg PUBLIC "-//W3C//DTD SVG 1.1//EN"
 "http://www.w3.org/Graphics/SVG/1.1/DTD/svg11.dtd">
<!-- Generated by graphviz version 2.48.0 (20210717.1556)
 -->
<!-- Title: dependency&#45;cruiser output Pages: 1 -->
<svg width="628pt" height="385pt"
 viewBox="0.00 0.00 628.00 385.00" xmlns="http://www.w3.org/2000/svg" xmlns:xlink="http://www.w3.org/1999/xlink">
<g id="graph0" class="graph" transform="scale(1 1) rotate(0) translate(4 381)">
<title>dependency&#45;cruiser output</title>
<polygon fill="white" stroke="transparent" points="-4,4 -4,-381 624,-381 624,4 -4,4"/>
<g id="clust1" class="cluster">
<title>cluster_..</title>
<path fill="#ffffff" stroke="black" stroke-width="2" d="M137,-8C137,-8 238,-8 238,-8 244,-8 250,-14 250,-20 250,-20 250,-150 250,-150 250,-156 244,-162 238,-162 238,-162 137,-162 137,-162 131,-162 125,-156 125,-150 125,-150 125,-20 125,-20 125,-14 131,-8 137,-8"/>
<text text-anchor="middle" x="187.5" y="-150.8" font-family="Helvetica,sans-Serif" font-weight="bold" font-size="9.00">..</text>
</g>
<g id="clust2" class="cluster">
<title>cluster_../node_modules</title>
<path fill="#ffffff" stroke="black" stroke-width="2" d="M145,-16C145,-16 230,-16 230,-16 236,-16 242,-22 242,-28 242,-28 242,-124 242,-124 242,-130 236,-136 230,-136 230,-136 145,-136 145,-136 139,-136 133,-130 133,-124 133,-124 133,-28 133,-28 133,-22 139,-16 145,-16"/>
<text text-anchor="middle" x="187.5" y="-124.8" font-family="Helvetica,sans-Serif" font-weight="bold" font-size="9.00">node_modules</text>
</g>
<g id="clust3" class="cluster">
<title>cluster_../node_modules/enhanced&#45;resolve</title>
<path fill="#ffffff" stroke="black" stroke-width="2" d="M153,-24C153,-24 222,-24 222,-24 228,-24 234,-30 234,-36 234,-36 234,-98 234,-98 234,-104 228,-110 222,-110 222,-110 153,-110 153,-110 147,-110 141,-104 141,-98 141,-98 141,-36 141,-36 141,-30 147,-24 153,-24"/>
<text text-anchor="middle" x="187.5" y="-98.8" font-family="Helvetica,sans-Serif" font-weight="bold" font-size="9.00">enhanced&#45;resolve</text>
</g>
<g id="clust4" class="cluster">
<title>cluster_../node_modules/enhanced&#45;resolve/lib</title>
<path fill="#ffffff" stroke="black" stroke-width="2" d="M164,-32C164,-32 210,-32 210,-32 216,-32 222,-38 222,-44 222,-44 222,-72 222,-72 222,-78 216,-84 210,-84 210,-84 164,-84 164,-84 158,-84 152,-78 152,-72 152,-72 152,-44 152,-44 152,-38 158,-32 164,-32"/>
<text text-anchor="middle" x="187" y="-72.8" font-family="Helvetica,sans-Serif" font-weight="bold" font-size="9.00">lib</text>
</g>
<!-- ../node_modules/enhanced&#45;resolve/lib/index.js -->
<g id="node1" class="node">
<title>../node_modules/enhanced&#45;resolve/lib/index.js</title>
<g id="a_node1"><a xlink:href="https://github.com/sverweij/dependency-cruiser/blob/develop/../node_modules/enhanced-resolve/lib/index.js" xlink:title="index.js">
<polygon fill="#c40b0a" fill-opacity="0.101961" stroke="black" points="214,-58 212.5,-60 202,-60 200.5,-58 160,-58 160,-40 214,-40 214,-58"/>
<text text-anchor="middle" x="187" y="-46.8" font-family="Helvetica,sans-Serif" font-size="9.00" fill="#c40b0a">index.js</text>
</a>
</g>
</g>
<!-- .dependency&#45;cruiser.json -->
<g id="node2" class="node">
<title>.dependency&#45;cruiser.json</title>
<g id="a_node2"><a xlink:href="https://github.com/sverweij/dependency-cruiser/blob/develop/.dependency-cruiser.json" xlink:title=".dependency&#45;cruiser.json">
<path fill="#ccffcc" stroke="black" d="M111,-116C111,-116 6,-116 6,-116 3,-116 0,-113 0,-110 0,-110 0,-104 0,-104 0,-101 3,-98 6,-98 6,-98 111,-98 111,-98 114,-98 117,-101 117,-104 117,-104 117,-110 117,-110 117,-113 114,-116 111,-116"/>
<text text-anchor="middle" x="58.5" y="-104.8" font-family="Helvetica,sans-Serif" font-size="9.00">.dependency&#45;cruiser.json</text>
</a>
</g>
</g>
<!-- .eslintrc.json -->
<g id="node3" class="node">
<title>.eslintrc.json</title>
<g id="a_node3"><a xlink:href="https://github.com/sverweij/dependency-cruiser/blob/develop/.eslintrc.json" xlink:title=".eslintrc.json">
<path fill="#ccffcc" stroke="black" d="M86,-202C86,-202 31,-202 31,-202 28,-202 25,-199 25,-196 25,-196 25,-190 25,-190 25,-187 28,-184 31,-184 31,-184 86,-184 86,-184 89,-184 92,-187 92,-190 92,-190 92,-196 92,-196 92,-199 89,-202 86,-202"/>
<text text-anchor="middle" x="58.5" y="-190.8" font-family="Helvetica,sans-Serif" font-size="9.00">.eslintrc.json</text>
</a>
</g>
</g>
<!-- baseline&#45;violations.d.ts -->
<g id="node4" class="node">
<title>baseline&#45;violations.d.ts</title>
<g id="a_node4"><a xlink:href="https://github.com/sverweij/dependency-cruiser/blob/develop/baseline-violations.d.ts" xlink:title="baseline&#45;violations.d.ts">
<path fill="#ddfeff" stroke="black" d="M106.5,-317C106.5,-317 10.5,-317 10.5,-317 7.5,-317 4.5,-314 4.5,-311 4.5,-311 4.5,-305 4.5,-305 4.5,-302 7.5,-299 10.5,-299 10.5,-299 106.5,-299 106.5,-299 109.5,-299 112.5,-302 112.5,-305 112.5,-305 112.5,-311 112.5,-311 112.5,-314 109.5,-317 106.5,-317"/>
<text text-anchor="middle" x="58.5" y="-305.8" font-family="Helvetica,sans-Serif" font-size="9.00">baseline&#45;violations.d.ts</text>
</a>
</g>
</g>
<!-- cruise&#45;result.d.ts -->
<g id="node5" class="node">
<title>cruise&#45;result.d.ts</title>
<g id="a_node5"><a xlink:href="https://github.com/sverweij/dependency-cruiser/blob/develop/cruise-result.d.ts" xlink:title="cruise&#45;result.d.ts">
<path fill="#ddfeff" stroke="black" d="M222.5,-260C222.5,-260 151.5,-260 151.5,-260 148.5,-260 145.5,-257 145.5,-254 145.5,-254 145.5,-248 145.5,-248 145.5,-245 148.5,-242 151.5,-242 151.5,-242 222.5,-242 222.5,-242 225.5,-242 228.5,-245 228.5,-248 228.5,-248 228.5,-254 228.5,-254 228.5,-257 225.5,-260 222.5,-260"/>
<text text-anchor="middle" x="187" y="-248.8" font-family="Helvetica,sans-Serif" font-size="9.00">cruise&#45;result.d.ts</text>
</a>
</g>
</g>
<!-- baseline&#45;violations.d.ts&#45;&gt;cruise&#45;result.d.ts -->
<g id="edge1" class="edge">
<title>baseline&#45;violations.d.ts&#45;&gt;cruise&#45;result.d.ts</title>
<path fill="none" stroke="#000000" stroke-width="2" stroke-opacity="0.200000" d="M112.75,-308.5C125.77,-308.5 136,-308.5 136,-308.5 136,-308.5 136,-255.5 136,-255.5 136,-255.5 139.35,-255.5 139.35,-255.5"/>
<polygon fill="#000000" fill-opacity="0.200000" stroke="#000000" stroke-width="2" stroke-opacity="0.200000" points="139.35,-257.6 145.35,-255.5 139.35,-253.4 139.35,-257.6"/>
</g>
<!-- options.d.ts -->
<g id="node7" class="node">
<title>options.d.ts</title>
<g id="a_node7"><a xlink:href="https://github.com/sverweij/dependency-cruiser/blob/develop/options.d.ts" xlink:title="options.d.ts">
<path fill="#ddfeff" stroke="black" d="M315,-318C315,-318 264,-318 264,-318 261,-318 258,-315 258,-312 258,-312 258,-306 258,-306 258,-303 261,-300 264,-300 264,-300 315,-300 315,-300 318,-300 321,-303 321,-306 321,-306 321,-312 321,-312 321,-315 318,-318 315,-318"/>
<text text-anchor="middle" x="289.5" y="-306.8" font-family="Helvetica,sans-Serif" font-size="9.00">options.d.ts</text>
</a>
</g>
</g>
<!-- cruise&#45;result.d.ts&#45;&gt;options.d.ts -->
<g id="edge4" class="edge">
<title>cruise&#45;result.d.ts&#45;&gt;options.d.ts</title>
<path fill="none" stroke="#000000" stroke-width="2" stroke-opacity="0.200000" d="M228.76,-253.8C260.95,-253.8 300,-253.8 300,-253.8 300,-253.8 300,-293.88 300,-293.88"/>
<polygon fill="#000000" fill-opacity="0.200000" stroke="#000000" stroke-width="2" stroke-opacity="0.200000" points="297.9,-293.88 300,-299.88 302.1,-293.88 297.9,-293.88"/>
</g>
<!-- rule&#45;set.d.ts -->
<g id="node8" class="node">
<title>rule&#45;set.d.ts</title>
<g id="a_node8"><a xlink:href="https://github.com/sverweij/dependency-cruiser/blob/develop/rule-set.d.ts" xlink:title="rule&#45;set.d.ts">
<path fill="#ddfeff" stroke="black" d="M408.5,-277C408.5,-277 356.5,-277 356.5,-277 353.5,-277 350.5,-274 350.5,-271 350.5,-271 350.5,-265 350.5,-265 350.5,-262 353.5,-259 356.5,-259 356.5,-259 408.5,-259 408.5,-259 411.5,-259 414.5,-262 414.5,-265 414.5,-265 414.5,-271 414.5,-271 414.5,-274 411.5,-277 408.5,-277"/>
<text text-anchor="middle" x="382.5" y="-265.8" font-family="Helvetica,sans-Serif" font-size="9.00">rule&#45;set.d.ts</text>
</a>
</g>
</g>
<!-- cruise&#45;result.d.ts&#45;&gt;rule&#45;set.d.ts -->
<g id="edge5" class="edge">
<title>cruise&#45;result.d.ts&#45;&gt;rule&#45;set.d.ts</title>
<path fill="none" stroke="#000000" stroke-width="2" stroke-opacity="0.200000" d="M228.52,-251.2C283.06,-251.2 372,-251.2 372,-251.2 372,-251.2 372,-252.81 372,-252.81"/>
<polygon fill="#000000" fill-opacity="0.200000" stroke="#000000" stroke-width="2" stroke-opacity="0.200000" points="369.9,-252.81 372,-258.81 374.1,-252.81 369.9,-252.81"/>
</g>
<!-- shared&#45;types.d.ts -->
<g id="node9" class="node">
<title>shared&#45;types.d.ts</title>
<g id="a_node9"><a xlink:href="https://github.com/sverweij/dependency-cruiser/blob/develop/shared-types.d.ts" xlink:title="shared&#45;types.d.ts">
<path fill="#ddfeff" stroke="black" d="M614,-278C614,-278 540,-278 540,-278 537,-278 534,-275 534,-272 534,-272 534,-266 534,-266 534,-263 537,-260 540,-260 540,-260 614,-260 614,-260 617,-260 620,-263 620,-266 620,-266 620,-272 620,-272 620,-275 617,-278 614,-278"/>
<text text-anchor="middle" x="577" y="-266.8" font-family="Helvetica,sans-Serif" font-size="9.00">shared&#45;types.d.ts</text>
</a>
</g>
</g>
<!-- cruise&#45;result.d.ts&#45;&gt;shared&#45;types.d.ts -->
<g id="edge6" class="edge">
<title>cruise&#45;result.d.ts&#45;&gt;shared&#45;types.d.ts</title>
<path fill="none" stroke="#000000" stroke-width="2" stroke-opacity="0.200000" d="M228.65,-248.6C296.4,-248.6 423,-248.6 423,-248.6 423,-248.6 423,-269.2 423,-269.2 423,-269.2 527.69,-269.2 527.69,-269.2"/>
<polygon fill="#000000" fill-opacity="0.200000" stroke="#000000" stroke-width="2" stroke-opacity="0.200000" points="527.69,-271.3 533.69,-269.2 527.69,-267.1 527.69,-271.3"/>
</g>
<!-- configuration.d.ts -->
<g id="node6" class="node">
<title>configuration.d.ts</title>
<g id="a_node6"><a xlink:href="https://github.com/sverweij/dependency-cruiser/blob/develop/configuration.d.ts" xlink:title="configuration.d.ts">
<path fill="#ddfeff" stroke="black" d="M223.5,-290C223.5,-290 150.5,-290 150.5,-290 147.5,-290 144.5,-287 144.5,-284 144.5,-284 144.5,-278 144.5,-278 144.5,-275 147.5,-272 150.5,-272 150.5,-272 223.5,-272 223.5,-272 226.5,-272 229.5,-275 229.5,-278 229.5,-278 229.5,-284 229.5,-284 229.5,-287 226.5,-290 223.5,-290"/>
<text text-anchor="middle" x="187" y="-278.8" font-family="Helvetica,sans-Serif" font-size="9.00">configuration.d.ts</text>
</a>
</g>
</g>
<!-- configuration.d.ts&#45;&gt;options.d.ts -->
<g id="edge2" class="edge">
<title>configuration.d.ts&#45;&gt;options.d.ts</title>
<path fill="none" stroke="#000000" stroke-width="2" stroke-opacity="0.200000" d="M229.77,-286C253.79,-286 279,-286 279,-286 279,-286 279,-293.91 279,-293.91"/>
<polygon fill="#000000" fill-opacity="0.200000" stroke="#000000" stroke-width="2" stroke-opacity="0.200000" points="276.9,-293.91 279,-299.91 281.1,-293.91 276.9,-293.91"/>
</g>
<!-- configuration.d.ts&#45;&gt;rule&#45;set.d.ts -->
<g id="edge3" class="edge">
<title>configuration.d.ts&#45;&gt;rule&#45;set.d.ts</title>
<path fill="none" stroke="#000000" stroke-width="2" stroke-opacity="0.200000" d="M229.91,-282C284.56,-282 372,-282 372,-282 372,-282 372,-281.53 372,-281.53"/>
<polygon fill="#000000" fill-opacity="0.200000" stroke="#000000" stroke-width="2" stroke-opacity="0.200000" points="374.1,-283.26 372,-277.26 369.9,-283.26 374.1,-283.26"/>
</g>
<!-- options.d.ts&#45;&gt;baseline&#45;violations.d.ts -->
<g id="edge13" class="edge">
<title>options.d.ts&#45;&gt;baseline&#45;violations.d.ts</title>
<path fill="none" stroke="#000000" stroke-width="2" stroke-opacity="0.200000" d="M257.86,-312.75C257.86,-312.75 118.77,-312.75 118.77,-312.75"/>
<polygon fill="#000000" fill-opacity="0.200000" stroke="#000000" stroke-width="2" stroke-opacity="0.200000" points="118.77,-310.65 112.77,-312.75 118.77,-314.85 118.77,-310.65"/>
</g>
<!-- options.d.ts&#45;&gt;rule&#45;set.d.ts -->
<g id="edge16" class="edge">
<title>options.d.ts&#45;&gt;rule&#45;set.d.ts</title>
<path fill="none" stroke="#000000" stroke-width="2" stroke-opacity="0.200000" d="M321.14,-303.6C351.89,-303.6 394,-303.6 394,-303.6 394,-303.6 394,-283.35 394,-283.35"/>
<polygon fill="#000000" fill-opacity="0.200000" stroke="#000000" stroke-width="2" stroke-opacity="0.200000" points="396.1,-283.35 394,-277.35 391.9,-283.35 396.1,-283.35"/>
</g>
<!-- options.d.ts&#45;&gt;shared&#45;types.d.ts -->
<g id="edge17" class="edge">
<title>options.d.ts&#45;&gt;shared&#45;types.d.ts</title>
<path fill="none" stroke="#000000" stroke-width="2" stroke-opacity="0.200000" d="M321.09,-307.2C395.77,-307.2 577,-307.2 577,-307.2 577,-307.2 577,-284.25 577,-284.25"/>
<polygon fill="#000000" fill-opacity="0.200000" stroke="#000000" stroke-width="2" stroke-opacity="0.200000" points="579.1,-284.25 577,-278.25 574.9,-284.25 579.1,-284.25"/>
</g>
<!-- filter&#45;types.d.ts -->
<g id="node11" class="node">
<title>filter&#45;types.d.ts</title>
<g id="a_node11"><a xlink:href="https://github.com/sverweij/dependency-cruiser/blob/develop/filter-types.d.ts" xlink:title="filter&#45;types.d.ts">
<path fill="#ddfeff" stroke="black" d="M514,-346C514,-346 451,-346 451,-346 448,-346 445,-343 445,-340 445,-340 445,-334 445,-334 445,-331 448,-328 451,-328 451,-328 514,-328 514,-328 517,-328 520,-331 520,-334 520,-334 520,-340 520,-340 520,-343 517,-346 514,-346"/>
<text text-anchor="middle" x="482.5" y="-334.8" font-family="Helvetica,sans-Serif" font-size="9.00">filter&#45;types.d.ts</text>
</a>
</g>
</g>
<!-- options.d.ts&#45;&gt;filter&#45;types.d.ts -->
<g id="edge14" class="edge">
<title>options.d.ts&#45;&gt;filter&#45;types.d.ts</title>
<path fill="none" stroke="#000000" stroke-width="2" stroke-opacity="0.200000" d="M321.1,-310.8C371.39,-310.8 464,-310.8 464,-310.8 464,-310.8 464,-321.84 464,-321.84"/>
<polygon fill="#000000" fill-opacity="0.200000" stroke="#000000" stroke-width="2" stroke-opacity="0.200000" points="461.9,-321.84 464,-327.84 466.1,-321.84 461.9,-321.84"/>
</g>
<!-- reporter&#45;options.d.ts -->
<g id="node13" class="node">
<title>reporter&#45;options.d.ts</title>
<g id="a_node13"><a xlink:href="https://github.com/sverweij/dependency-cruiser/blob/develop/reporter-options.d.ts" xlink:title="reporter&#45;options.d.ts">
<path fill="#ddfeff" stroke="black" d="M425,-346C425,-346 340,-346 340,-346 337,-346 334,-343 334,-340 334,-340 334,-334 334,-334 334,-331 337,-328 340,-328 340,-328 425,-328 425,-328 428,-328 431,-331 431,-334 431,-334 431,-340 431,-340 431,-343 428,-346 425,-346"/>
<text text-anchor="middle" x="382.5" y="-334.8" font-family="Helvetica,sans-Serif" font-size="9.00">reporter&#45;options.d.ts</text>
</a>
</g>
</g>
<!-- options.d.ts&#45;&gt;reporter&#45;options.d.ts -->
<g id="edge15" class="edge">
<title>options.d.ts&#45;&gt;reporter&#45;options.d.ts</title>
<path fill="none" stroke="#000000" stroke-width="2" stroke-opacity="0.200000" d="M321.24,-314.4C332.76,-314.4 343,-314.4 343,-314.4 343,-314.4 343,-321.81 343,-321.81"/>
<polygon fill="#000000" fill-opacity="0.200000" stroke="#000000" stroke-width="2" stroke-opacity="0.200000" points="340.9,-321.81 343,-327.81 345.1,-321.81 340.9,-321.81"/>
</g>
<!-- rule&#45;set.d.ts&#45;&gt;shared&#45;types.d.ts -->
<g id="edge22" class="edge">
<title>rule&#45;set.d.ts&#45;&gt;shared&#45;types.d.ts</title>
<path fill="none" stroke="#000000" stroke-width="2" stroke-opacity="0.200000" d="M414.62,-271.8C414.62,-271.8 527.9,-271.8 527.9,-271.8"/>
<polygon fill="#000000" fill-opacity="0.200000" stroke="#000000" stroke-width="2" stroke-opacity="0.200000" points="527.9,-273.9 533.9,-271.8 527.9,-269.7 527.9,-273.9"/>
</g>
<!-- restrictions.d.ts -->
<g id="node15" class="node">
<title>restrictions.d.ts</title>
<g id="a_node15"><a xlink:href="https://github.com/sverweij/dependency-cruiser/blob/develop/restrictions.d.ts" xlink:title="restrictions.d.ts">
<path fill="#ddfeff" stroke="black" d="M515,-264C515,-264 450,-264 450,-264 447,-264 444,-261 444,-258 444,-258 444,-252 444,-252 444,-249 447,-246 450,-246 450,-246 515,-246 515,-246 518,-246 521,-249 521,-252 521,-252 521,-258 521,-258 521,-261 518,-264 515,-264"/>
<text text-anchor="middle" x="482.5" y="-252.8" font-family="Helvetica,sans-Serif" font-size="9.00">restrictions.d.ts</text>
</a>
</g>
</g>
<!-- rule&#45;set.d.ts&#45;&gt;restrictions.d.ts -->
<g id="edge21" class="edge">
<title>rule&#45;set.d.ts&#45;&gt;restrictions.d.ts</title>
<path fill="none" stroke="#000000" stroke-width="2" stroke-opacity="0.200000" d="M394,-258.64C394,-257.32 394,-256.4 394,-256.4 394,-256.4 437.94,-256.4 437.94,-256.4"/>
<polygon fill="#000000" fill-opacity="0.200000" stroke="#000000" stroke-width="2" stroke-opacity="0.200000" points="437.94,-258.5 443.94,-256.4 437.94,-254.3 437.94,-258.5"/>
</g>
<!-- dependency&#45;cruiser.d.ts -->
<g id="node10" class="node">
<title>dependency&#45;cruiser.d.ts</title>
<g id="a_node10"><a xlink:href="https://github.com/sverweij/dependency-cruiser/blob/develop/dependency-cruiser.d.ts" xlink:title="dependency&#45;cruiser.d.ts">
<path fill="#ddfeff" stroke="black" d="M108.5,-260C108.5,-260 8.5,-260 8.5,-260 5.5,-260 2.5,-257 2.5,-254 2.5,-254 2.5,-248 2.5,-248 2.5,-245 5.5,-242 8.5,-242 8.5,-242 108.5,-242 108.5,-242 111.5,-242 114.5,-245 114.5,-248 114.5,-248 114.5,-254 114.5,-254 114.5,-257 111.5,-260 108.5,-260"/>
<text text-anchor="middle" x="58.5" y="-248.8" font-family="Helvetica,sans-Serif" font-size="9.00">dependency&#45;cruiser.d.ts</text>
</a>
</g>
</g>
<!-- dependency&#45;cruiser.d.ts&#45;&gt;cruise&#45;result.d.ts -->
<g id="edge8" class="edge">
<title>dependency&#45;cruiser.d.ts&#45;&gt;cruise&#45;result.d.ts</title>
<path fill="none" stroke="#000000" stroke-width="2" stroke-opacity="0.200000" d="M114.86,-246.5C114.86,-246.5 139.36,-246.5 139.36,-246.5"/>
<polygon fill="#000000" fill-opacity="0.200000" stroke="#000000" stroke-width="2" stroke-opacity="0.200000" points="139.36,-248.6 145.36,-246.5 139.36,-244.4 139.36,-248.6"/>
</g>
<!-- dependency&#45;cruiser.d.ts&#45;&gt;configuration.d.ts -->
<g id="edge7" class="edge">
<title>dependency&#45;cruiser.d.ts&#45;&gt;configuration.d.ts</title>
<path fill="none" stroke="#000000" stroke-width="2" stroke-opacity="0.200000" d="M77,-260.16C77,-268.99 77,-281 77,-281 77,-281 138.47,-281 138.47,-281"/>
<polygon fill="#000000" fill-opacity="0.200000" stroke="#000000" stroke-width="2" stroke-opacity="0.200000" points="138.47,-283.1 144.47,-281 138.47,-278.9 138.47,-283.1"/>
</g>
<!-- dependency&#45;cruiser.d.ts&#45;&gt;options.d.ts -->
<g id="edge9" class="edge">
<title>dependency&#45;cruiser.d.ts&#45;&gt;options.d.ts</title>
<path fill="none" stroke="#000000" stroke-width="2" stroke-opacity="0.200000" d="M114.75,-251C122.02,-251 127,-251 127,-251 127,-251 127,-304.25 127,-304.25 127,-304.25 251.78,-304.25 251.78,-304.25"/>
<polygon fill="#000000" fill-opacity="0.200000" stroke="#000000" stroke-width="2" stroke-opacity="0.200000" points="251.78,-306.35 257.78,-304.25 251.78,-302.15 251.78,-306.35"/>
</g>
<!-- dependency&#45;cruiser.d.ts&#45;&gt;rule&#45;set.d.ts -->
<g id="edge10" class="edge">
<title>dependency&#45;cruiser.d.ts&#45;&gt;rule&#45;set.d.ts</title>
<path fill="none" stroke="#000000" stroke-width="2" stroke-opacity="0.200000" d="M41,-260.24C41,-263.33 41,-266 41,-266 41,-266 344.37,-266 344.37,-266"/>
<polygon fill="#000000" fill-opacity="0.200000" stroke="#000000" stroke-width="2" stroke-opacity="0.200000" points="344.37,-268.1 350.37,-266 344.37,-263.9 344.37,-268.1"/>
</g>
<!-- dependency&#45;cruiser.d.ts&#45;&gt;shared&#45;types.d.ts -->
<g id="edge11" class="edge">
<title>dependency&#45;cruiser.d.ts&#45;&gt;shared&#45;types.d.ts</title>
<path fill="none" stroke="#000000" stroke-width="2" stroke-opacity="0.200000" d="M104,-241.82C104,-233.33 104,-222 104,-222 104,-222 577,-222 577,-222 577,-222 577,-253.94 577,-253.94"/>
<polygon fill="#000000" fill-opacity="0.200000" stroke="#000000" stroke-width="2" stroke-opacity="0.200000" points="574.9,-253.94 577,-259.94 579.1,-253.94 574.9,-253.94"/>
</g>
<!-- filter&#45;types.d.ts&#45;&gt;shared&#45;types.d.ts -->
<g id="edge12" class="edge">
<title>filter&#45;types.d.ts&#45;&gt;shared&#45;types.d.ts</title>
<path fill="none" stroke="#000000" stroke-width="2" stroke-opacity="0.200000" d="M502,-327.76C502,-310.35 502,-274.4 502,-274.4 502,-274.4 527.81,-274.4 527.81,-274.4"/>
<polygon fill="#000000" fill-opacity="0.200000" stroke="#000000" stroke-width="2" stroke-opacity="0.200000" points="527.81,-276.5 533.81,-274.4 527.81,-272.3 527.81,-276.5"/>
</g>
<!-- init&#45;config.d.ts -->
<g id="node12" class="node">
<title>init&#45;config.d.ts</title>
<g id="a_node12"><a xlink:href="https://github.com/sverweij/dependency-cruiser/blob/develop/init-config.d.ts" xlink:title="init&#45;config.d.ts">
<path fill="#ccffcc" stroke="black" d="M88.5,-347C88.5,-347 28.5,-347 28.5,-347 25.5,-347 22.5,-344 22.5,-341 22.5,-341 22.5,-335 22.5,-335 22.5,-332 25.5,-329 28.5,-329 28.5,-329 88.5,-329 88.5,-329 91.5,-329 94.5,-332 94.5,-335 94.5,-335 94.5,-341 94.5,-341 94.5,-344 91.5,-347 88.5,-347"/>
<text text-anchor="middle" x="58.5" y="-335.8" font-family="Helvetica,sans-Serif" font-size="9.00">init&#45;config.d.ts</text>
</a>
</g>
</g>
<!-- reporter&#45;options.d.ts&#45;&gt;filter&#45;types.d.ts -->
<g id="edge18" class="edge">
<title>reporter&#45;options.d.ts&#45;&gt;filter&#45;types.d.ts</title>
<path fill="none" stroke="#000000" stroke-width="2" stroke-opacity="0.200000" d="M431.04,-337C431.04,-337 438.96,-337 438.96,-337"/>
<polygon fill="#000000" fill-opacity="0.200000" stroke="#000000" stroke-width="2" stroke-opacity="0.200000" points="438.96,-339.1 444.96,-337 438.96,-334.9 438.96,-339.1"/>
</g>
<!-- resolve&#45;options.d.ts -->
<g id="node14" class="node">
<title>resolve&#45;options.d.ts</title>
<g id="a_node14"><a xlink:href="https://github.com/sverweij/dependency-cruiser/blob/develop/resolve-options.d.ts" xlink:title="resolve&#45;options.d.ts">
<path fill="#ddfeff" stroke="black" d="M100,-58C100,-58 17,-58 17,-58 14,-58 11,-55 11,-52 11,-52 11,-46 11,-46 11,-43 14,-40 17,-40 17,-40 100,-40 100,-40 103,-40 106,-43 106,-46 106,-46 106,-52 106,-52 106,-55 103,-58 100,-58"/>
<text text-anchor="middle" x="58.5" y="-46.8" font-family="Helvetica,sans-Serif" font-size="9.00">resolve&#45;options.d.ts</text>
</a>
</g>
</g>
<!-- resolve&#45;options.d.ts&#45;&gt;../node_modules/enhanced&#45;resolve/lib/index.js -->
<g id="edge19" class="edge">
<title>resolve&#45;options.d.ts&#45;&gt;../node_modules/enhanced&#45;resolve/lib/index.js</title>
<path fill="none" stroke="#000000" stroke-opacity="0.200000" d="M106.35,-49C106.35,-49 153.64,-49 153.64,-49"/>
<polygon fill="#000000" fill-opacity="0.200000" stroke="#000000" stroke-opacity="0.200000" points="153.64,-51.1 159.64,-49 153.64,-46.9 153.64,-51.1"/>
</g>
<!-- restrictions.d.ts&#45;&gt;shared&#45;types.d.ts -->
<g id="edge20" class="edge">
<title>restrictions.d.ts&#45;&gt;shared&#45;types.d.ts</title>
<path fill="none" stroke="#000000" stroke-width="2" stroke-opacity="0.200000" d="M483,-264.36C483,-265.68 483,-266.6 483,-266.6 483,-266.6 527.85,-266.6 527.85,-266.6"/>
<polygon fill="#000000" fill-opacity="0.200000" stroke="#000000" stroke-width="2" stroke-opacity="0.200000" points="527.85,-268.7 533.85,-266.6 527.85,-264.5 527.85,-268.7"/>
</g>
<!-- tsconfig.json -->
<g id="node16" class="node">
<title>tsconfig.json</title>
<g id="a_node16"><a xlink:href="https://github.com/sverweij/dependency-cruiser/blob/develop/tsconfig.json" xlink:title="tsconfig.json">
<path fill="#ccffcc" stroke="black" d="M86,-377C86,-377 31,-377 31,-377 28,-377 25,-374 25,-371 25,-371 25,-365 25,-365 25,-362 28,-359 31,-359 31,-359 86,-359 86,-359 89,-359 92,-362 92,-365 92,-365 92,-371 92,-371 92,-374 89,-377 86,-377"/>
<text text-anchor="middle" x="58.5" y="-365.8" font-family="Helvetica,sans-Serif" font-size="9.00">tsconfig.json</text>
</a>
</g>
</g>
</g>
</svg>
