<?xml version="1.0" encoding="UTF-8" standalone="no"?>
<!DOCTYPE svg PUBLIC "-//W3C//DTD SVG 1.1//EN"
 "http://www.w3.org/Graphics/SVG/1.1/DTD/svg11.dtd">
<!-- Generated by graphviz version 2.43.0 (0)
 -->
<!-- Title: dependency&#45;cruiser output Pages: 1 -->
<svg width="261pt" height="145pt"
 viewBox="0.00 0.00 261.05 145.00" xmlns="http://www.w3.org/2000/svg" xmlns:xlink="http://www.w3.org/1999/xlink">
<g id="graph0" class="graph" transform="scale(1 1) rotate(0) translate(4 141)">
<title>dependency&#45;cruiser output</title>
<polygon fill="white" stroke="transparent" points="-4,4 -4,-141 257.05,-141 257.05,4 -4,4"/>
<!-- configuration.d.ts -->
<g id="node1" class="node">
<title>configuration.d.ts</title>
<g id="a_node1"><a xlink:href="https://github.com/sverweij/dependency-cruiser/blob/develop/configuration.d.ts" xlink:title="configuration.d.ts">
<path fill="#ddfeff" stroke="black" d="M78.65,-107C78.65,-107 5.89,-107 5.89,-107 3.06,-107 0.23,-104.17 0.23,-101.33 0.23,-101.33 0.23,-95.67 0.23,-95.67 0.23,-92.83 3.06,-90 5.89,-90 5.89,-90 78.65,-90 78.65,-90 81.48,-90 84.31,-92.83 84.31,-95.67 84.31,-95.67 84.31,-101.33 84.31,-101.33 84.31,-104.17 81.48,-107 78.65,-107"/>
<text text-anchor="middle" x="42.27" y="-95.8" font-family="Helvetica,sans-Serif" font-size="9.00">configuration.d.ts</text>
</a>
</g>
</g>
<!-- options.d.ts -->
<g id="node4" class="node">
<title>options.d.ts</title>
<g id="a_node4"><a xlink:href="https://github.com/sverweij/dependency-cruiser/blob/develop/options.d.ts" xlink:title="options.d.ts">
<path fill="#ddfeff" stroke="black" d="M91.63,-77C91.63,-77 40.91,-77 40.91,-77 38.08,-77 35.24,-74.17 35.24,-71.33 35.24,-71.33 35.24,-65.67 35.24,-65.67 35.24,-62.83 38.08,-60 40.91,-60 40.91,-60 91.63,-60 91.63,-60 94.47,-60 97.3,-62.83 97.3,-65.67 97.3,-65.67 97.3,-71.33 97.3,-71.33 97.3,-74.17 94.47,-77 91.63,-77"/>
<text text-anchor="middle" x="66.27" y="-65.8" font-family="Helvetica,sans-Serif" font-size="9.00">options.d.ts</text>
</a>
</g>
</g>
<!-- configuration.d.ts&#45;&gt;options.d.ts -->
<g id="edge1" class="edge">
<title>configuration.d.ts&#45;&gt;options.d.ts</title>
<path fill="none" stroke="#000000" stroke-width="2" stroke-opacity="0.200000" d="M59.9,-89.98C59.9,-89.98 59.9,-87.14 59.9,-87.14"/>
<polygon fill="#000000" fill-opacity="0.200000" stroke="#000000" stroke-width="2" stroke-opacity="0.200000" points="63.4,-87.14 59.9,-77.14 56.4,-87.14 63.4,-87.14"/>
</g>
<!-- rule&#45;set.d.ts -->
<g id="node5" class="node">
<title>rule&#45;set.d.ts</title>
<g id="a_node5"><a xlink:href="https://github.com/sverweij/dependency-cruiser/blob/develop/rule-set.d.ts" xlink:title="rule&#45;set.d.ts">
<path fill="#ddfeff" stroke="black" d="M142.12,-47C142.12,-47 90.42,-47 90.42,-47 87.59,-47 84.75,-44.17 84.75,-41.33 84.75,-41.33 84.75,-35.67 84.75,-35.67 84.75,-32.83 87.59,-30 90.42,-30 90.42,-30 142.12,-30 142.12,-30 144.95,-30 147.79,-32.83 147.79,-35.67 147.79,-35.67 147.79,-41.33 147.79,-41.33 147.79,-44.17 144.95,-47 142.12,-47"/>
<text text-anchor="middle" x="116.27" y="-35.8" font-family="Helvetica,sans-Serif" font-size="9.00">rule&#45;set.d.ts</text>
</a>
</g>
</g>
<!-- configuration.d.ts&#45;&gt;rule&#45;set.d.ts -->
<g id="edge2" class="edge">
<title>configuration.d.ts&#45;&gt;rule&#45;set.d.ts</title>
<path fill="none" stroke="#000000" stroke-width="2" stroke-opacity="0.200000" d="M17.63,-89.83C17.63,-73.1 17.63,-38 17.63,-38 17.63,-38 74.52,-38 74.52,-38"/>
<polygon fill="#000000" fill-opacity="0.200000" stroke="#000000" stroke-width="2" stroke-opacity="0.200000" points="74.52,-41.5 84.52,-38 74.52,-34.5 74.52,-41.5"/>
</g>
<!-- cruise&#45;result.d.ts -->
<g id="node2" class="node">
<title>cruise&#45;result.d.ts</title>
<g id="a_node2"><a xlink:href="https://github.com/sverweij/dependency-cruiser/blob/develop/cruise-result.d.ts" xlink:title="cruise&#45;result.d.ts">
<path fill="#ddfeff" stroke="black" d="M172.62,-107C172.62,-107 101.92,-107 101.92,-107 99.09,-107 96.25,-104.17 96.25,-101.33 96.25,-101.33 96.25,-95.67 96.25,-95.67 96.25,-92.83 99.09,-90 101.92,-90 101.92,-90 172.62,-90 172.62,-90 175.46,-90 178.29,-92.83 178.29,-95.67 178.29,-95.67 178.29,-101.33 178.29,-101.33 178.29,-104.17 175.46,-107 172.62,-107"/>
<text text-anchor="middle" x="137.27" y="-95.8" font-family="Helvetica,sans-Serif" font-size="9.00">cruise&#45;result.d.ts</text>
</a>
</g>
</g>
<!-- cruise&#45;result.d.ts&#45;&gt;options.d.ts -->
<g id="edge3" class="edge">
<title>cruise&#45;result.d.ts&#45;&gt;options.d.ts</title>
<path fill="none" stroke="#000000" stroke-width="2" stroke-opacity="0.200000" d="M96.18,-98C93.8,-98 92.35,-98 92.35,-98 92.35,-98 92.35,-87.19 92.35,-87.19"/>
<polygon fill="#000000" fill-opacity="0.200000" stroke="#000000" stroke-width="2" stroke-opacity="0.200000" points="95.85,-87.19 92.35,-77.19 88.85,-87.19 95.85,-87.19"/>
</g>
<!-- cruise&#45;result.d.ts&#45;&gt;rule&#45;set.d.ts -->
<g id="edge4" class="edge">
<title>cruise&#45;result.d.ts&#45;&gt;rule&#45;set.d.ts</title>
<path fill="none" stroke="#000000" stroke-width="2" stroke-opacity="0.200000" d="M122.53,-89.9C122.53,-89.9 122.53,-57.08 122.53,-57.08"/>
<polygon fill="#000000" fill-opacity="0.200000" stroke="#000000" stroke-width="2" stroke-opacity="0.200000" points="126.03,-57.08 122.53,-47.08 119.03,-57.08 126.03,-57.08"/>
</g>
<!-- shared&#45;types.d.ts -->
<g id="node6" class="node">
<title>shared&#45;types.d.ts</title>
<g id="a_node6"><a xlink:href="https://github.com/sverweij/dependency-cruiser/blob/develop/shared-types.d.ts" xlink:title="shared&#45;types.d.ts">
<path fill="#ddfeff" stroke="black" d="M217.14,-17C217.14,-17 143.4,-17 143.4,-17 140.57,-17 137.74,-14.17 137.74,-11.33 137.74,-11.33 137.74,-5.67 137.74,-5.67 137.74,-2.83 140.57,0 143.4,0 143.4,0 217.14,0 217.14,0 219.97,0 222.8,-2.83 222.8,-5.67 222.8,-5.67 222.8,-11.33 222.8,-11.33 222.8,-14.17 219.97,-17 217.14,-17"/>
<text text-anchor="middle" x="180.27" y="-5.8" font-family="Helvetica,sans-Serif" font-size="9.00">shared&#45;types.d.ts</text>
</a>
</g>
</g>
<!-- cruise&#45;result.d.ts&#45;&gt;shared&#45;types.d.ts -->
<g id="edge5" class="edge">
<title>cruise&#45;result.d.ts&#45;&gt;shared&#45;types.d.ts</title>
<path fill="none" stroke="#000000" stroke-width="2" stroke-opacity="0.200000" d="M168.11,-89.87C168.11,-89.87 168.11,-27.24 168.11,-27.24"/>
<polygon fill="#000000" fill-opacity="0.200000" stroke="#000000" stroke-width="2" stroke-opacity="0.200000" points="171.61,-27.24 168.11,-17.24 164.61,-27.24 171.61,-27.24"/>
</g>
<!-- dependency&#45;cruiser.d.ts -->
<g id="node3" class="node">
<title>dependency&#45;cruiser.d.ts</title>
<g id="a_node3"><a xlink:href="https://github.com/sverweij/dependency-cruiser/blob/develop/dependency-cruiser.d.ts" xlink:title="dependency&#45;cruiser.d.ts">
<path fill="#ddfeff" stroke="black" d="M247.16,-137C247.16,-137 147.38,-137 147.38,-137 144.54,-137 141.71,-134.17 141.71,-131.33 141.71,-131.33 141.71,-125.67 141.71,-125.67 141.71,-122.83 144.54,-120 147.38,-120 147.38,-120 247.16,-120 247.16,-120 250,-120 252.83,-122.83 252.83,-125.67 252.83,-125.67 252.83,-131.33 252.83,-131.33 252.83,-134.17 250,-137 247.16,-137"/>
<text text-anchor="middle" x="197.27" y="-125.8" font-family="Helvetica,sans-Serif" font-size="9.00">dependency&#45;cruiser.d.ts</text>
</a>
</g>
</g>
<!-- dependency&#45;cruiser.d.ts&#45;&gt;configuration.d.ts -->
<g id="edge6" class="edge">
<title>dependency&#45;cruiser.d.ts&#45;&gt;configuration.d.ts</title>
<path fill="none" stroke="#000000" stroke-width="2" stroke-opacity="0.200000" d="M141.31,-131C96.91,-131 42.27,-131 42.27,-131 42.27,-131 42.27,-117.04 42.27,-117.04"/>
<polygon fill="#000000" fill-opacity="0.200000" stroke="#000000" stroke-width="2" stroke-opacity="0.200000" points="45.77,-117.04 42.27,-107.04 38.77,-117.04 45.77,-117.04"/>
</g>
<!-- dependency&#45;cruiser.d.ts&#45;&gt;cruise&#45;result.d.ts -->
<g id="edge7" class="edge">
<title>dependency&#45;cruiser.d.ts&#45;&gt;cruise&#45;result.d.ts</title>
<path fill="none" stroke="#000000" stroke-width="2" stroke-opacity="0.200000" d="M159.89,-119.98C159.89,-119.98 159.89,-117.14 159.89,-117.14"/>
<polygon fill="#000000" fill-opacity="0.200000" stroke="#000000" stroke-width="2" stroke-opacity="0.200000" points="163.39,-117.14 159.89,-107.14 156.39,-117.14 163.39,-117.14"/>
</g>
<!-- dependency&#45;cruiser.d.ts&#45;&gt;options.d.ts -->
<g id="edge8" class="edge">
<title>dependency&#45;cruiser.d.ts&#45;&gt;options.d.ts</title>
<path fill="none" stroke="#000000" stroke-width="2" stroke-opacity="0.200000" d="M141.58,-125C114.81,-125 88.45,-125 88.45,-125 88.45,-125 88.45,-87.33 88.45,-87.33"/>
<polygon fill="#000000" fill-opacity="0.200000" stroke="#000000" stroke-width="2" stroke-opacity="0.200000" points="91.95,-87.33 88.45,-77.33 84.95,-87.33 91.95,-87.33"/>
</g>
<!-- dependency&#45;cruiser.d.ts&#45;&gt;rule&#45;set.d.ts -->
<g id="edge9" class="edge">
<title>dependency&#45;cruiser.d.ts&#45;&gt;rule&#45;set.d.ts</title>
<path fill="none" stroke="#000000" stroke-width="2" stroke-opacity="0.200000" d="M193.12,-119.82C193.12,-97.17 193.12,-38 193.12,-38 193.12,-38 157.97,-38 157.97,-38"/>
<polygon fill="#000000" fill-opacity="0.200000" stroke="#000000" stroke-width="2" stroke-opacity="0.200000" points="157.97,-34.5 147.97,-38 157.97,-41.5 157.97,-34.5"/>
</g>
<!-- dependency&#45;cruiser.d.ts&#45;&gt;shared&#45;types.d.ts -->
<g id="edge10" class="edge">
<title>dependency&#45;cruiser.d.ts&#45;&gt;shared&#45;types.d.ts</title>
<path fill="none" stroke="#000000" stroke-width="2" stroke-opacity="0.200000" d="M207.95,-119.87C207.95,-119.87 207.95,-27.05 207.95,-27.05"/>
<polygon fill="#000000" fill-opacity="0.200000" stroke="#000000" stroke-width="2" stroke-opacity="0.200000" points="211.45,-27.05 207.95,-17.05 204.45,-27.05 211.45,-27.05"/>
</g>
<!-- options.d.ts&#45;&gt;rule&#45;set.d.ts -->
<g id="edge11" class="edge">
<title>options.d.ts&#45;&gt;rule&#45;set.d.ts</title>
<path fill="none" stroke="#000000" stroke-width="2" stroke-opacity="0.200000" d="M91.02,-59.98C91.02,-59.98 91.02,-57.14 91.02,-57.14"/>
<polygon fill="#000000" fill-opacity="0.200000" stroke="#000000" stroke-width="2" stroke-opacity="0.200000" points="94.52,-57.14 91.02,-47.14 87.52,-57.14 94.52,-57.14"/>
</g>
<!-- options.d.ts&#45;&gt;shared&#45;types.d.ts -->
<g id="edge12" class="edge">
<title>options.d.ts&#45;&gt;shared&#45;types.d.ts</title>
<path fill="none" stroke="#000000" stroke-width="2" stroke-opacity="0.200000" d="M97.31,-68C123.9,-68 157.95,-68 157.95,-68 157.95,-68 157.95,-27.02 157.95,-27.02"/>
<polygon fill="#000000" fill-opacity="0.200000" stroke="#000000" stroke-width="2" stroke-opacity="0.200000" points="161.45,-27.02 157.95,-17.02 154.45,-27.02 161.45,-27.02"/>
</g>
<!-- rule&#45;set.d.ts&#45;&gt;shared&#45;types.d.ts -->
<g id="edge13" class="edge">
<title>rule&#45;set.d.ts&#45;&gt;shared&#45;types.d.ts</title>
<path fill="none" stroke="#000000" stroke-width="2" stroke-opacity="0.200000" d="M142.77,-29.98C142.77,-29.98 142.77,-27.14 142.77,-27.14"/>
<polygon fill="#000000" fill-opacity="0.200000" stroke="#000000" stroke-width="2" stroke-opacity="0.200000" points="146.27,-27.14 142.77,-17.14 139.27,-27.14 146.27,-27.14"/>
</g>
</g>
</svg>
