<?xml version="1.0" encoding="UTF-8" standalone="no"?>
<!DOCTYPE svg PUBLIC "-//W3C//DTD SVG 1.1//EN"
 "http://www.w3.org/Graphics/SVG/1.1/DTD/svg11.dtd">
<!-- Generated by graphviz version 11.0.0 (20240428.1522)
 -->
<!-- Title: dependency&#45;cruiser output Pages: 1 -->
<svg width="1027pt" height="350pt"
 viewBox="0.00 0.00 1026.50 349.88" xmlns="http://www.w3.org/2000/svg" xmlns:xlink="http://www.w3.org/1999/xlink">
<g id="graph0" class="graph" transform="scale(1 1) rotate(0) translate(4 345.88)">
<title>dependency&#45;cruiser output</title>
<polygon fill="white" stroke="none" points="-4,4 -4,-345.88 1022.5,-345.88 1022.5,4 -4,4"/>
<g id="clust1" class="cluster">
<title>cluster_config&#45;utl</title>
<path fill="#ffffff" stroke="black" stroke-width="2" d="M183.75,-76C183.75,-76 343.25,-76 343.25,-76 349.25,-76 355.25,-82 355.25,-88 355.25,-88 355.25,-236 355.25,-236 355.25,-242 349.25,-248 343.25,-248 343.25,-248 183.75,-248 183.75,-248 177.75,-248 171.75,-242 171.75,-236 171.75,-236 171.75,-88 171.75,-88 171.75,-82 177.75,-76 183.75,-76"/>
<text text-anchor="middle" x="263.5" y="-235.45" font-family="Helvetica,sans-Serif" font-weight="bold" font-size="9.00">config&#45;utl</text>
</g>
<g id="clust2" class="cluster">
<title>cluster_node_modules</title>
<path fill="#ffffff" stroke="black" stroke-width="2" d="M486.25,-66C486.25,-66 568.5,-66 568.5,-66 574.5,-66 580.5,-72 580.5,-78 580.5,-78 580.5,-166 580.5,-166 580.5,-172 574.5,-178 568.5,-178 568.5,-178 486.25,-178 486.25,-178 480.25,-178 474.25,-172 474.25,-166 474.25,-166 474.25,-78 474.25,-78 474.25,-72 480.25,-66 486.25,-66"/>
<text text-anchor="middle" x="527.38" y="-165.45" font-family="Helvetica,sans-Serif" font-weight="bold" font-size="9.00">node_modules</text>
</g>
<g id="clust3" class="cluster">
<title>cluster_plugins</title>
<path fill="#ffffff" stroke="black" stroke-width="2" d="M20,-8C20,-8 151.75,-8 151.75,-8 157.75,-8 163.75,-14 163.75,-20 163.75,-20 163.75,-108 163.75,-108 163.75,-114 157.75,-120 151.75,-120 151.75,-120 20,-120 20,-120 14,-120 8,-114 8,-108 8,-108 8,-20 8,-20 8,-14 14,-8 20,-8"/>
<text text-anchor="middle" x="85.88" y="-107.45" font-family="Helvetica,sans-Serif" font-weight="bold" font-size="9.00">plugins</text>
</g>
<!-- baseline&#45;violations.d.mts -->
<g id="node1" class="node">
<title>baseline&#45;violations.d.mts</title>
<g id="a_node1"><a xlink:href="https://github.com/sverweij/dependency-cruiser/blob/main/baseline-violations.d.mts" xlink:title="baseline&#45;violations.d.mts">
<path fill="#ddfeff" stroke="black" d="M699.83,-117.88C699.83,-117.88 594.42,-117.88 594.42,-117.88 591.46,-117.88 588.5,-114.92 588.5,-111.96 588.5,-111.96 588.5,-106.04 588.5,-106.04 588.5,-103.08 591.46,-100.12 594.42,-100.12 594.42,-100.12 699.83,-100.12 699.83,-100.12 702.79,-100.12 705.75,-103.08 705.75,-106.04 705.75,-106.04 705.75,-111.96 705.75,-111.96 705.75,-114.92 702.79,-117.88 699.83,-117.88"/>
<text text-anchor="middle" x="647.12" y="-105.33" font-family="Helvetica,sans-Serif" font-size="9.00">baseline&#45;violations.d.mts</text>
</a>
</g>
</g>
<!-- violations.d.mts -->
<g id="node2" class="node">
<title>violations.d.mts</title>
<g id="a_node2"><a xlink:href="https://github.com/sverweij/dependency-cruiser/blob/main/violations.d.mts" xlink:title="violations.d.mts">
<path fill="#ddfeff" stroke="black" d="M794.46,-78.88C794.46,-78.88 727.29,-78.88 727.29,-78.88 724.33,-78.88 721.38,-75.92 721.38,-72.96 721.38,-72.96 721.38,-67.04 721.38,-67.04 721.38,-64.08 724.33,-61.12 727.29,-61.12 727.29,-61.12 794.46,-61.12 794.46,-61.12 797.42,-61.12 800.38,-64.08 800.38,-67.04 800.38,-67.04 800.38,-72.96 800.38,-72.96 800.38,-75.92 797.42,-78.88 794.46,-78.88"/>
<text text-anchor="middle" x="760.88" y="-66.33" font-family="Helvetica,sans-Serif" font-size="9.00">violations.d.mts</text>
</a>
</g>
</g>
<!-- baseline&#45;violations.d.mts&#45;&gt;violations.d.mts -->
<g id="edge1" class="edge">
<title>baseline&#45;violations.d.mts&#45;&gt;violations.d.mts</title>
<path fill="none" stroke="#000000" stroke-opacity="0.200000" d="M694.5,-99.94C694.5,-89.71 694.5,-74.5 694.5,-74.5 694.5,-74.5 713.6,-74.5 713.6,-74.5"/>
<polygon fill="none" stroke="#000000" stroke-opacity="0.200000" points="713.6,-76.6 719.6,-74.5 713.6,-72.4 713.6,-76.6"/>
</g>
<!-- rule&#45;summary.d.mts -->
<g id="node15" class="node">
<title>rule&#45;summary.d.mts</title>
<g id="a_node15"><a xlink:href="https://github.com/sverweij/dependency-cruiser/blob/main/rule-summary.d.mts" xlink:title="rule&#45;summary.d.mts">
<path fill="#ddfeff" stroke="black" d="M906.33,-65.88C906.33,-65.88 821.92,-65.88 821.92,-65.88 818.96,-65.88 816,-62.92 816,-59.96 816,-59.96 816,-54.04 816,-54.04 816,-51.08 818.96,-48.12 821.92,-48.12 821.92,-48.12 906.33,-48.12 906.33,-48.12 909.29,-48.12 912.25,-51.08 912.25,-54.04 912.25,-54.04 912.25,-59.96 912.25,-59.96 912.25,-62.92 909.29,-65.88 906.33,-65.88"/>
<text text-anchor="middle" x="864.12" y="-53.33" font-family="Helvetica,sans-Serif" font-size="9.00">rule&#45;summary.d.mts</text>
</a>
</g>
</g>
<!-- violations.d.mts&#45;&gt;rule&#45;summary.d.mts -->
<g id="edge48" class="edge">
<title>violations.d.mts&#45;&gt;rule&#45;summary.d.mts</title>
<path fill="none" stroke="#000000" stroke-opacity="0.200000" d="M774.5,-60.63C774.5,-60.04 774.5,-59.68 774.5,-59.68 774.5,-59.68 808.13,-59.68 808.13,-59.68"/>
<polygon fill="none" stroke="#000000" stroke-opacity="0.200000" points="808.13,-61.78 814.13,-59.68 808.13,-57.58 808.13,-61.78"/>
</g>
<!-- shared&#45;types.d.mts -->
<g id="node16" class="node">
<title>shared&#45;types.d.mts</title>
<g id="a_node16"><a xlink:href="https://github.com/sverweij/dependency-cruiser/blob/main/shared-types.d.mts" xlink:title="shared&#45;types.d.mts">
<path fill="#ddfeff" stroke="black" d="M1012.58,-159.88C1012.58,-159.88 931.17,-159.88 931.17,-159.88 928.21,-159.88 925.25,-156.92 925.25,-153.96 925.25,-153.96 925.25,-148.04 925.25,-148.04 925.25,-145.08 928.21,-142.12 931.17,-142.12 931.17,-142.12 1012.58,-142.12 1012.58,-142.12 1015.54,-142.12 1018.5,-145.08 1018.5,-148.04 1018.5,-148.04 1018.5,-153.96 1018.5,-153.96 1018.5,-156.92 1015.54,-159.88 1012.58,-159.88"/>
<text text-anchor="middle" x="971.88" y="-147.32" font-family="Helvetica,sans-Serif" font-size="9.00">shared&#45;types.d.mts</text>
</a>
</g>
</g>
<!-- violations.d.mts&#45;&gt;shared&#45;types.d.mts -->
<g id="edge49" class="edge">
<title>violations.d.mts&#45;&gt;shared&#45;types.d.mts</title>
<path fill="none" stroke="#000000" stroke-opacity="0.200000" d="M741.5,-79.19C741.5,-99.19 741.5,-144.91 741.5,-144.91 741.5,-144.91 917.46,-144.91 917.46,-144.91"/>
<polygon fill="none" stroke="#000000" stroke-opacity="0.200000" points="917.46,-147.01 923.46,-144.91 917.46,-142.81 917.46,-147.01"/>
</g>
<!-- cache&#45;options.d.mts -->
<g id="node3" class="node">
<title>cache&#45;options.d.mts</title>
<g id="a_node3"><a xlink:href="https://github.com/sverweij/dependency-cruiser/blob/main/cache-options.d.mts" xlink:title="cache&#45;options.d.mts">
<path fill="#ddfeff" stroke="black" d="M690.08,-229.88C690.08,-229.88 604.17,-229.88 604.17,-229.88 601.21,-229.88 598.25,-226.92 598.25,-223.96 598.25,-223.96 598.25,-218.04 598.25,-218.04 598.25,-215.08 601.21,-212.12 604.17,-212.12 604.17,-212.12 690.08,-212.12 690.08,-212.12 693.04,-212.12 696,-215.08 696,-218.04 696,-218.04 696,-223.96 696,-223.96 696,-226.92 693.04,-229.88 690.08,-229.88"/>
<text text-anchor="middle" x="647.12" y="-217.32" font-family="Helvetica,sans-Serif" font-size="9.00">cache&#45;options.d.mts</text>
</a>
</g>
</g>
<!-- config&#45;utl/extract&#45;babel&#45;config.d.mts -->
<g id="node4" class="node">
<title>config&#45;utl/extract&#45;babel&#45;config.d.mts</title>
<g id="a_node4"><a xlink:href="https://github.com/sverweij/dependency-cruiser/blob/main/config-utl/extract-babel-config.d.mts" xlink:title="extract&#45;babel&#45;config.d.mts">
<path fill="#ccffcc" stroke="black" d="M318.08,-101.88C318.08,-101.88 208.92,-101.88 208.92,-101.88 205.96,-101.88 203,-98.92 203,-95.96 203,-95.96 203,-90.04 203,-90.04 203,-87.08 205.96,-84.12 208.92,-84.12 208.92,-84.12 318.08,-84.12 318.08,-84.12 321.04,-84.12 324,-87.08 324,-90.04 324,-90.04 324,-95.96 324,-95.96 324,-98.92 321.04,-101.88 318.08,-101.88"/>
<text text-anchor="start" x="211" y="-89.33" font-family="Helvetica,sans-Serif" font-size="9.00">extract&#45;babel&#45;config.d.mts</text>
</a>
</g>
</g>
<!-- config&#45;utl/extract&#45;depcruise&#45;config.d.mts -->
<g id="node5" class="node">
<title>config&#45;utl/extract&#45;depcruise&#45;config.d.mts</title>
<g id="a_node5"><a xlink:href="https://github.com/sverweij/dependency-cruiser/blob/main/config-utl/extract-depcruise-config.d.mts" xlink:title="extract&#45;depcruise&#45;config.d.mts">
<path fill="#ddfeff" stroke="black" d="M326.71,-191.88C326.71,-191.88 200.29,-191.88 200.29,-191.88 197.33,-191.88 194.38,-188.92 194.38,-185.96 194.38,-185.96 194.38,-180.04 194.38,-180.04 194.38,-177.08 197.33,-174.12 200.29,-174.12 200.29,-174.12 326.71,-174.12 326.71,-174.12 329.67,-174.12 332.62,-177.08 332.62,-180.04 332.62,-180.04 332.62,-185.96 332.62,-185.96 332.62,-188.92 329.67,-191.88 326.71,-191.88"/>
<text text-anchor="start" x="202.38" y="-179.32" font-family="Helvetica,sans-Serif" font-size="9.00">extract&#45;depcruise&#45;config.d.mts</text>
</a>
</g>
</g>
<!-- configuration.d.mts -->
<g id="node6" class="node">
<title>configuration.d.mts</title>
<g id="a_node6"><a xlink:href="https://github.com/sverweij/dependency-cruiser/blob/main/configuration.d.mts" xlink:title="configuration.d.mts">
<path fill="#ddfeff" stroke="black" d="M455.46,-201.88C455.46,-201.88 374.04,-201.88 374.04,-201.88 371.08,-201.88 368.12,-198.92 368.12,-195.96 368.12,-195.96 368.12,-190.04 368.12,-190.04 368.12,-187.08 371.08,-184.12 374.04,-184.12 374.04,-184.12 455.46,-184.12 455.46,-184.12 458.42,-184.12 461.38,-187.08 461.38,-190.04 461.38,-190.04 461.38,-195.96 461.38,-195.96 461.38,-198.92 458.42,-201.88 455.46,-201.88"/>
<text text-anchor="middle" x="414.75" y="-189.32" font-family="Helvetica,sans-Serif" font-size="9.00">configuration.d.mts</text>
</a>
</g>
</g>
<!-- config&#45;utl/extract&#45;depcruise&#45;config.d.mts&#45;&gt;configuration.d.mts -->
<g id="edge2" class="edge">
<title>config&#45;utl/extract&#45;depcruise&#45;config.d.mts&#45;&gt;configuration.d.mts</title>
<path fill="none" stroke="#000000" stroke-opacity="0.200000" d="M332.93,-189.29C332.93,-189.29 360.27,-189.29 360.27,-189.29"/>
<polygon fill="none" stroke="#000000" stroke-opacity="0.200000" points="360.27,-191.39 366.27,-189.29 360.27,-187.19 360.27,-191.39"/>
</g>
<!-- options.d.mts -->
<g id="node8" class="node">
<title>options.d.mts</title>
<g id="a_node8"><a xlink:href="https://github.com/sverweij/dependency-cruiser/blob/main/options.d.mts" xlink:title="options.d.mts">
<path fill="#ddfeff" stroke="black" d="M556.46,-229.88C556.46,-229.88 498.29,-229.88 498.29,-229.88 495.33,-229.88 492.38,-226.92 492.38,-223.96 492.38,-223.96 492.38,-218.04 492.38,-218.04 492.38,-215.08 495.33,-212.12 498.29,-212.12 498.29,-212.12 556.46,-212.12 556.46,-212.12 559.42,-212.12 562.38,-215.08 562.38,-218.04 562.38,-218.04 562.38,-223.96 562.38,-223.96 562.38,-226.92 559.42,-229.88 556.46,-229.88"/>
<text text-anchor="middle" x="527.38" y="-217.32" font-family="Helvetica,sans-Serif" font-size="9.00">options.d.mts</text>
</a>
</g>
</g>
<!-- configuration.d.mts&#45;&gt;options.d.mts -->
<g id="edge6" class="edge">
<title>configuration.d.mts&#45;&gt;options.d.mts</title>
<path fill="none" stroke="#000000" stroke-opacity="0.200000" d="M461.83,-195.94C480,-195.94 496.5,-195.94 496.5,-195.94 496.5,-195.94 496.5,-204.15 496.5,-204.15"/>
<polygon fill="none" stroke="#000000" stroke-opacity="0.200000" points="494.4,-204.15 496.5,-210.15 498.6,-204.15 494.4,-204.15"/>
</g>
<!-- rule&#45;set.d.mts -->
<g id="node13" class="node">
<title>rule&#45;set.d.mts</title>
<g id="a_node13"><a xlink:href="https://github.com/sverweij/dependency-cruiser/blob/main/rule-set.d.mts" xlink:title="rule&#45;set.d.mts">
<path fill="#ddfeff" stroke="black" d="M676.58,-87.88C676.58,-87.88 617.67,-87.88 617.67,-87.88 614.71,-87.88 611.75,-84.92 611.75,-81.96 611.75,-81.96 611.75,-76.04 611.75,-76.04 611.75,-73.08 614.71,-70.12 617.67,-70.12 617.67,-70.12 676.58,-70.12 676.58,-70.12 679.54,-70.12 682.5,-73.08 682.5,-76.04 682.5,-76.04 682.5,-81.96 682.5,-81.96 682.5,-84.92 679.54,-87.88 676.58,-87.88"/>
<text text-anchor="middle" x="647.12" y="-75.33" font-family="Helvetica,sans-Serif" font-size="9.00">rule&#45;set.d.mts</text>
</a>
</g>
</g>
<!-- configuration.d.mts&#45;&gt;rule&#45;set.d.mts -->
<g id="edge7" class="edge">
<title>configuration.d.mts&#45;&gt;rule&#45;set.d.mts</title>
<path fill="none" stroke="#000000" stroke-opacity="0.200000" d="M461.82,-188.06C509.89,-188.06 577.5,-188.06 577.5,-188.06 577.5,-188.06 577.5,-77.56 577.5,-77.56 577.5,-77.56 603.98,-77.56 603.98,-77.56"/>
<polygon fill="none" stroke="#000000" stroke-opacity="0.200000" points="603.98,-79.66 609.98,-77.56 603.98,-75.46 603.98,-79.66"/>
</g>
<!-- config&#45;utl/extract&#45;depcruise&#45;options.d.mts -->
<g id="node7" class="node">
<title>config&#45;utl/extract&#45;depcruise&#45;options.d.mts</title>
<g id="a_node7"><a xlink:href="https://github.com/sverweij/dependency-cruiser/blob/main/config-utl/extract-depcruise-options.d.mts" xlink:title="extract&#45;depcruise&#45;options.d.mts">
<path fill="#ddfeff" stroke="black" d="M329.33,-221.88C329.33,-221.88 197.67,-221.88 197.67,-221.88 194.71,-221.88 191.75,-218.92 191.75,-215.96 191.75,-215.96 191.75,-210.04 191.75,-210.04 191.75,-207.08 194.71,-204.12 197.67,-204.12 197.67,-204.12 329.33,-204.12 329.33,-204.12 332.29,-204.12 335.25,-207.08 335.25,-210.04 335.25,-210.04 335.25,-215.96 335.25,-215.96 335.25,-218.92 332.29,-221.88 329.33,-221.88"/>
<text text-anchor="start" x="199.75" y="-209.32" font-family="Helvetica,sans-Serif" font-size="9.00">extract&#45;depcruise&#45;options.d.mts</text>
</a>
</g>
</g>
<!-- config&#45;utl/extract&#45;depcruise&#45;options.d.mts&#45;&gt;options.d.mts -->
<g id="edge3" class="edge">
<title>config&#45;utl/extract&#45;depcruise&#45;options.d.mts&#45;&gt;options.d.mts</title>
<path fill="none" stroke="#000000" stroke-opacity="0.200000" d="M335.61,-219.44C335.61,-219.44 484.56,-219.44 484.56,-219.44"/>
<polygon fill="none" stroke="#000000" stroke-opacity="0.200000" points="484.57,-221.54 490.56,-219.44 484.56,-217.34 484.57,-221.54"/>
</g>
<!-- options.d.mts&#45;&gt;baseline&#45;violations.d.mts -->
<g id="edge21" class="edge">
<title>options.d.mts&#45;&gt;baseline&#45;violations.d.mts</title>
<path fill="none" stroke="#000000" stroke-opacity="0.200000" d="M562.79,-221C575.38,-221 586.5,-221 586.5,-221 586.5,-221 586.5,-111 586.5,-111 586.5,-111 586.67,-111 586.67,-111"/>
<polygon fill="none" stroke="#000000" stroke-opacity="0.200000" points="580.74,-113.1 586.74,-111 580.74,-108.9 580.74,-113.1"/>
</g>
<!-- options.d.mts&#45;&gt;cache&#45;options.d.mts -->
<g id="edge22" class="edge">
<title>options.d.mts&#45;&gt;cache&#45;options.d.mts</title>
<path fill="none" stroke="#000000" stroke-opacity="0.200000" d="M562.66,-225.44C562.66,-225.44 590.39,-225.44 590.39,-225.44"/>
<polygon fill="none" stroke="#000000" stroke-opacity="0.200000" points="590.39,-227.54 596.39,-225.44 590.39,-223.34 590.39,-227.54"/>
</g>
<!-- options.d.mts&#45;&gt;rule&#45;set.d.mts -->
<g id="edge25" class="edge">
<title>options.d.mts&#45;&gt;rule&#45;set.d.mts</title>
<path fill="none" stroke="#000000" stroke-opacity="0.200000" d="M562.81,-216.56C572.56,-216.56 580.5,-216.56 580.5,-216.56 580.5,-216.56 580.5,-81 580.5,-81 580.5,-81 603.96,-81 603.96,-81"/>
<polygon fill="none" stroke="#000000" stroke-opacity="0.200000" points="603.96,-83.1 609.96,-81 603.96,-78.9 603.96,-83.1"/>
</g>
<!-- options.d.mts&#45;&gt;shared&#45;types.d.mts -->
<g id="edge26" class="edge">
<title>options.d.mts&#45;&gt;shared&#45;types.d.mts</title>
<path fill="none" stroke="#000000" stroke-opacity="0.200000" d="M557.5,-211.72C557.5,-191.99 557.5,-147.7 557.5,-147.7 557.5,-147.7 917.63,-147.7 917.63,-147.7"/>
<polygon fill="none" stroke="#000000" stroke-opacity="0.200000" points="917.63,-149.8 923.63,-147.7 917.63,-145.6 917.63,-149.8"/>
</g>
<!-- filter&#45;types.d.mts -->
<g id="node20" class="node">
<title>filter&#45;types.d.mts</title>
<g id="a_node20"><a xlink:href="https://github.com/sverweij/dependency-cruiser/blob/main/filter-types.d.mts" xlink:title="filter&#45;types.d.mts">
<path fill="#ddfeff" stroke="black" d="M795.96,-203.88C795.96,-203.88 725.79,-203.88 725.79,-203.88 722.83,-203.88 719.88,-200.92 719.88,-197.96 719.88,-197.96 719.88,-192.04 719.88,-192.04 719.88,-189.08 722.83,-186.12 725.79,-186.12 725.79,-186.12 795.96,-186.12 795.96,-186.12 798.92,-186.12 801.88,-189.08 801.88,-192.04 801.88,-192.04 801.88,-197.96 801.88,-197.96 801.88,-200.92 798.92,-203.88 795.96,-203.88"/>
<text text-anchor="middle" x="760.88" y="-191.32" font-family="Helvetica,sans-Serif" font-size="9.00">filter&#45;types.d.mts</text>
</a>
</g>
</g>
<!-- options.d.mts&#45;&gt;filter&#45;types.d.mts -->
<g id="edge23" class="edge">
<title>options.d.mts&#45;&gt;filter&#45;types.d.mts</title>
<path fill="none" stroke="#000000" stroke-opacity="0.200000" d="M559.5,-211.68C559.5,-210.37 559.5,-209.46 559.5,-209.46 559.5,-209.46 747.5,-209.46 747.5,-209.46 747.5,-209.46 747.5,-208.94 747.5,-208.94"/>
<polygon fill="none" stroke="#000000" stroke-opacity="0.200000" points="749.6,-211.75 747.5,-205.75 745.4,-211.75 749.6,-211.75"/>
</g>
<!-- reporter&#45;options.d.mts -->
<g id="node21" class="node">
<title>reporter&#45;options.d.mts</title>
<g id="a_node21"><a xlink:href="https://github.com/sverweij/dependency-cruiser/blob/main/reporter-options.d.mts" xlink:title="reporter&#45;options.d.mts">
<path fill="#ddfeff" stroke="black" d="M693.83,-199.88C693.83,-199.88 600.42,-199.88 600.42,-199.88 597.46,-199.88 594.5,-196.92 594.5,-193.96 594.5,-193.96 594.5,-188.04 594.5,-188.04 594.5,-185.08 597.46,-182.12 600.42,-182.12 600.42,-182.12 693.83,-182.12 693.83,-182.12 696.79,-182.12 699.75,-185.08 699.75,-188.04 699.75,-188.04 699.75,-193.96 699.75,-193.96 699.75,-196.92 696.79,-199.88 693.83,-199.88"/>
<text text-anchor="middle" x="647.12" y="-187.32" font-family="Helvetica,sans-Serif" font-size="9.00">reporter&#45;options.d.mts</text>
</a>
</g>
</g>
<!-- options.d.mts&#45;&gt;reporter&#45;options.d.mts -->
<g id="edge24" class="edge">
<title>options.d.mts&#45;&gt;reporter&#45;options.d.mts</title>
<path fill="none" stroke="#000000" stroke-opacity="0.200000" d="M560.5,-211.82C560.5,-203.33 560.5,-192 560.5,-192 560.5,-192 586.73,-192 586.73,-192"/>
<polygon fill="none" stroke="#000000" stroke-opacity="0.200000" points="586.73,-194.1 592.73,-192 586.73,-189.9 586.73,-194.1"/>
</g>
<!-- config&#45;utl/extract&#45;ts&#45;config.d.mts -->
<g id="node9" class="node">
<title>config&#45;utl/extract&#45;ts&#45;config.d.mts</title>
<g id="a_node9"><a xlink:href="https://github.com/sverweij/dependency-cruiser/blob/main/config-utl/extract-ts-config.d.mts" xlink:title="extract&#45;ts&#45;config.d.mts">
<path fill="#ddfeff" stroke="black" d="M309.83,-161.88C309.83,-161.88 217.17,-161.88 217.17,-161.88 214.21,-161.88 211.25,-158.92 211.25,-155.96 211.25,-155.96 211.25,-150.04 211.25,-150.04 211.25,-147.08 214.21,-144.12 217.17,-144.12 217.17,-144.12 309.83,-144.12 309.83,-144.12 312.79,-144.12 315.75,-147.08 315.75,-150.04 315.75,-150.04 315.75,-155.96 315.75,-155.96 315.75,-158.92 312.79,-161.88 309.83,-161.88"/>
<text text-anchor="start" x="219.25" y="-149.32" font-family="Helvetica,sans-Serif" font-size="9.00">extract&#45;ts&#45;config.d.mts</text>
</a>
</g>
</g>
<!-- node_modules/typescript -->
<g id="node10" class="node">
<title>node_modules/typescript</title>
<g id="a_node10"><a xlink:href="https://www.npmjs.com/package/typescript" xlink:title="typescript">
<polygon fill="#c40b0a" fill-opacity="0.101961" stroke="black" points="554.88,-151.88 501.85,-151.88 499.88,-149.9 499.88,-134.12 552.9,-134.12 554.88,-136.1 554.88,-151.88"/>
<polyline fill="none" stroke="black" points="552.9,-149.9 499.88,-149.9"/>
<polyline fill="none" stroke="black" points="552.9,-149.9 552.9,-134.12"/>
<polyline fill="none" stroke="black" points="552.9,-149.9 554.88,-151.88"/>
<text text-anchor="start" x="507.88" y="-139.32" font-family="Helvetica,sans-Serif" font-size="9.00" fill="#c40b0a">typescript</text>
</a>
</g>
</g>
<!-- config&#45;utl/extract&#45;ts&#45;config.d.mts&#45;&gt;node_modules/typescript -->
<g id="edge4" class="edge">
<title>config&#45;utl/extract&#45;ts&#45;config.d.mts&#45;&gt;node_modules/typescript</title>
<path fill="none" stroke="#000000" stroke-opacity="0.200000" d="M315.95,-148C315.95,-148 491.87,-148 491.87,-148"/>
<polygon fill="none" stroke="#000000" stroke-opacity="0.200000" points="491.87,-150.1 497.87,-148 491.87,-145.9 491.87,-150.1"/>
</g>
<!-- config&#45;utl/extract&#45;webpack&#45;resolve&#45;config.d.mts -->
<g id="node11" class="node">
<title>config&#45;utl/extract&#45;webpack&#45;resolve&#45;config.d.mts</title>
<g id="a_node11"><a xlink:href="https://github.com/sverweij/dependency-cruiser/blob/main/config-utl/extract-webpack-resolve-config.d.mts" xlink:title="extract&#45;webpack&#45;resolve&#45;config.d.mts">
<path fill="#ddfeff" stroke="black" d="M341.33,-131.88C341.33,-131.88 185.67,-131.88 185.67,-131.88 182.71,-131.88 179.75,-128.92 179.75,-125.96 179.75,-125.96 179.75,-120.04 179.75,-120.04 179.75,-117.08 182.71,-114.12 185.67,-114.12 185.67,-114.12 341.33,-114.12 341.33,-114.12 344.29,-114.12 347.25,-117.08 347.25,-120.04 347.25,-120.04 347.25,-125.96 347.25,-125.96 347.25,-128.92 344.29,-131.88 341.33,-131.88"/>
<text text-anchor="start" x="187.75" y="-119.33" font-family="Helvetica,sans-Serif" font-size="9.00">extract&#45;webpack&#45;resolve&#45;config.d.mts</text>
</a>
</g>
</g>
<!-- node_modules/enhanced&#45;resolve -->
<g id="node12" class="node">
<title>node_modules/enhanced&#45;resolve</title>
<g id="a_node12"><a xlink:href="https://www.npmjs.com/package/enhanced-resolve" xlink:title="enhanced&#45;resolve">
<polygon fill="#c40b0a" fill-opacity="0.101961" stroke="black" points="572.5,-121.88 484.22,-121.88 482.25,-119.9 482.25,-104.12 570.53,-104.12 572.5,-106.1 572.5,-121.88"/>
<polyline fill="none" stroke="black" points="570.53,-119.9 482.25,-119.9"/>
<polyline fill="none" stroke="black" points="570.53,-119.9 570.53,-104.12"/>
<polyline fill="none" stroke="black" points="570.53,-119.9 572.5,-121.88"/>
<text text-anchor="start" x="490.25" y="-109.33" font-family="Helvetica,sans-Serif" font-size="9.00" fill="#c40b0a">enhanced&#45;resolve</text>
</a>
</g>
</g>
<!-- config&#45;utl/extract&#45;webpack&#45;resolve&#45;config.d.mts&#45;&gt;node_modules/enhanced&#45;resolve -->
<g id="edge5" class="edge">
<title>config&#45;utl/extract&#45;webpack&#45;resolve&#45;config.d.mts&#45;&gt;node_modules/enhanced&#45;resolve</title>
<path fill="none" stroke="#000000" stroke-opacity="0.200000" d="M347.72,-118C347.72,-118 474.38,-118 474.38,-118"/>
<polygon fill="none" stroke="#000000" stroke-opacity="0.200000" points="474.38,-120.1 480.38,-118 474.38,-115.9 474.38,-120.1"/>
</g>
<!-- rule&#45;set.d.mts&#45;&gt;shared&#45;types.d.mts -->
<g id="edge34" class="edge">
<title>rule&#45;set.d.mts&#45;&gt;shared&#45;types.d.mts</title>
<path fill="none" stroke="#000000" stroke-opacity="0.200000" d="M682.92,-81.88C764.35,-81.88 956.5,-81.88 956.5,-81.88 956.5,-81.88 956.5,-134.16 956.5,-134.16"/>
<polygon fill="none" stroke="#000000" stroke-opacity="0.200000" points="954.4,-134.16 956.5,-140.16 958.6,-134.16 954.4,-134.16"/>
</g>
<!-- restrictions.d.mts -->
<g id="node25" class="node">
<title>restrictions.d.mts</title>
<g id="a_node25"><a xlink:href="https://github.com/sverweij/dependency-cruiser/blob/main/restrictions.d.mts" xlink:title="restrictions.d.mts">
<path fill="#ddfeff" stroke="black" d="M797.08,-173.88C797.08,-173.88 724.67,-173.88 724.67,-173.88 721.71,-173.88 718.75,-170.92 718.75,-167.96 718.75,-167.96 718.75,-162.04 718.75,-162.04 718.75,-159.08 721.71,-156.12 724.67,-156.12 724.67,-156.12 797.08,-156.12 797.08,-156.12 800.04,-156.12 803,-159.08 803,-162.04 803,-162.04 803,-167.96 803,-167.96 803,-170.92 800.04,-173.88 797.08,-173.88"/>
<text text-anchor="middle" x="760.88" y="-161.32" font-family="Helvetica,sans-Serif" font-size="9.00">restrictions.d.mts</text>
</a>
</g>
</g>
<!-- rule&#45;set.d.mts&#45;&gt;restrictions.d.mts -->
<g id="edge33" class="edge">
<title>rule&#45;set.d.mts&#45;&gt;restrictions.d.mts</title>
<path fill="none" stroke="#000000" stroke-opacity="0.200000" d="M682.69,-84.88C716.26,-84.88 761.5,-84.88 761.5,-84.88 761.5,-84.88 761.5,-148.3 761.5,-148.3"/>
<polygon fill="none" stroke="#000000" stroke-opacity="0.200000" points="759.4,-148.3 761.5,-154.3 763.6,-148.3 759.4,-148.3"/>
</g>
<!-- cruise&#45;result.d.mts -->
<g id="node14" class="node">
<title>cruise&#45;result.d.mts</title>
<g id="a_node14"><a xlink:href="https://github.com/sverweij/dependency-cruiser/blob/main/cruise-result.d.mts" xlink:title="cruise&#45;result.d.mts">
<path fill="#ddfeff" stroke="black" d="M453.96,-31.88C453.96,-31.88 375.54,-31.88 375.54,-31.88 372.58,-31.88 369.62,-28.92 369.62,-25.96 369.62,-25.96 369.62,-20.04 369.62,-20.04 369.62,-17.08 372.58,-14.12 375.54,-14.12 375.54,-14.12 453.96,-14.12 453.96,-14.12 456.92,-14.12 459.88,-17.08 459.88,-20.04 459.88,-20.04 459.88,-25.96 459.88,-25.96 459.88,-28.92 456.92,-31.88 453.96,-31.88"/>
<text text-anchor="middle" x="414.75" y="-19.32" font-family="Helvetica,sans-Serif" font-size="9.00">cruise&#45;result.d.mts</text>
</a>
</g>
</g>
<!-- cruise&#45;result.d.mts&#45;&gt;violations.d.mts -->
<g id="edge12" class="edge">
<title>cruise&#45;result.d.mts&#45;&gt;violations.d.mts</title>
<path fill="none" stroke="#000000" stroke-opacity="0.200000" d="M460.11,-20.04C551.36,-20.04 748.5,-20.04 748.5,-20.04 748.5,-20.04 748.5,-53.32 748.5,-53.32"/>
<polygon fill="none" stroke="#000000" stroke-opacity="0.200000" points="746.4,-53.32 748.5,-59.32 750.6,-53.32 746.4,-53.32"/>
</g>
<!-- cruise&#45;result.d.mts&#45;&gt;options.d.mts -->
<g id="edge8" class="edge">
<title>cruise&#45;result.d.mts&#45;&gt;options.d.mts</title>
<path fill="none" stroke="#000000" stroke-opacity="0.200000" d="M460.34,-28.92C468.52,-28.92 474.5,-28.92 474.5,-28.92 474.5,-28.92 474.5,-214.56 474.5,-214.56 474.5,-214.56 484.59,-214.56 484.59,-214.56"/>
<polygon fill="none" stroke="#000000" stroke-opacity="0.200000" points="484.59,-216.66 490.59,-214.56 484.59,-212.46 484.59,-216.66"/>
</g>
<!-- cruise&#45;result.d.mts&#45;&gt;rule&#45;set.d.mts -->
<g id="edge9" class="edge">
<title>cruise&#45;result.d.mts&#45;&gt;rule&#45;set.d.mts</title>
<path fill="none" stroke="#000000" stroke-opacity="0.200000" d="M460.21,-23C530.99,-23 659.5,-23 659.5,-23 659.5,-23 659.5,-62.24 659.5,-62.24"/>
<polygon fill="none" stroke="#000000" stroke-opacity="0.200000" points="657.4,-62.24 659.5,-68.24 661.6,-62.24 657.4,-62.24"/>
</g>
<!-- cruise&#45;result.d.mts&#45;&gt;rule&#45;summary.d.mts -->
<g id="edge10" class="edge">
<title>cruise&#45;result.d.mts&#45;&gt;rule&#45;summary.d.mts</title>
<path fill="none" stroke="#000000" stroke-opacity="0.200000" d="M437.5,-32.29C437.5,-39.95 437.5,-49.57 437.5,-49.57 437.5,-49.57 808.09,-49.57 808.09,-49.57"/>
<polygon fill="none" stroke="#000000" stroke-opacity="0.200000" points="808.09,-51.67 814.09,-49.57 808.09,-47.47 808.09,-51.67"/>
</g>
<!-- cruise&#45;result.d.mts&#45;&gt;shared&#45;types.d.mts -->
<g id="edge11" class="edge">
<title>cruise&#45;result.d.mts&#45;&gt;shared&#45;types.d.mts</title>
<path fill="none" stroke="#000000" stroke-opacity="0.200000" d="M460.17,-17.08C595.64,-17.08 987.5,-17.08 987.5,-17.08 987.5,-17.08 987.5,-134.28 987.5,-134.28"/>
<polygon fill="none" stroke="#000000" stroke-opacity="0.200000" points="985.4,-134.28 987.5,-140.28 989.6,-134.28 985.4,-134.28"/>
</g>
<!-- node_modules/watskeburt -->
<g id="node17" class="node">
<title>node_modules/watskeburt</title>
<g id="a_node17"><a xlink:href="https://www.npmjs.com/package/watskeburt" xlink:title="watskeburt">
<polygon fill="#c40b0a" fill-opacity="0.101961" stroke="black" points="557.5,-91.88 499.22,-91.88 497.25,-89.9 497.25,-74.12 555.53,-74.12 557.5,-76.1 557.5,-91.88"/>
<polyline fill="none" stroke="black" points="555.53,-89.9 497.25,-89.9"/>
<polyline fill="none" stroke="black" points="555.53,-89.9 555.53,-74.12"/>
<polyline fill="none" stroke="black" points="555.53,-89.9 557.5,-91.88"/>
<text text-anchor="start" x="505.25" y="-79.33" font-family="Helvetica,sans-Serif" font-size="9.00" fill="#c40b0a">watskeburt</text>
</a>
</g>
</g>
<!-- cruise&#45;result.d.mts&#45;&gt;node_modules/watskeburt -->
<g id="edge13" class="edge">
<title>cruise&#45;result.d.mts&#45;&gt;node_modules/watskeburt</title>
<path fill="none" stroke="#000000" stroke-opacity="0.200000" d="M460.28,-25.96C491.58,-25.96 527.5,-25.96 527.5,-25.96 527.5,-25.96 527.5,-66.32 527.5,-66.32"/>
<polygon fill="none" stroke="#000000" stroke-opacity="0.200000" points="525.4,-66.32 527.5,-72.32 529.6,-66.32 525.4,-66.32"/>
</g>
<!-- rule&#45;summary.d.mts&#45;&gt;shared&#45;types.d.mts -->
<g id="edge35" class="edge">
<title>rule&#45;summary.d.mts&#45;&gt;shared&#45;types.d.mts</title>
<path fill="none" stroke="#000000" stroke-opacity="0.200000" d="M864.5,-66.26C864.5,-88.58 864.5,-143.52 864.5,-143.52 864.5,-143.52 917.27,-143.52 917.27,-143.52"/>
<polygon fill="none" stroke="#000000" stroke-opacity="0.200000" points="917.27,-145.62 923.27,-143.52 917.27,-141.42 917.27,-145.62"/>
</g>
<!-- dependency&#45;cruiser.d.mts -->
<g id="node18" class="node">
<title>dependency&#45;cruiser.d.mts</title>
<g id="a_node18"><a xlink:href="https://github.com/sverweij/dependency-cruiser/blob/main/dependency-cruiser.d.mts" xlink:title="dependency&#45;cruiser.d.mts">
<path fill="#ddfeff" stroke="black" d="M318.46,-63.88C318.46,-63.88 208.54,-63.88 208.54,-63.88 205.58,-63.88 202.62,-60.92 202.62,-57.96 202.62,-57.96 202.62,-52.04 202.62,-52.04 202.62,-49.08 205.58,-46.12 208.54,-46.12 208.54,-46.12 318.46,-46.12 318.46,-46.12 321.42,-46.12 324.38,-49.08 324.38,-52.04 324.38,-52.04 324.38,-57.96 324.38,-57.96 324.38,-60.92 321.42,-63.88 318.46,-63.88"/>
<text text-anchor="middle" x="263.5" y="-51.33" font-family="Helvetica,sans-Serif" font-size="9.00">dependency&#45;cruiser.d.mts</text>
</a>
</g>
</g>
<!-- dependency&#45;cruiser.d.mts&#45;&gt;configuration.d.mts -->
<g id="edge14" class="edge">
<title>dependency&#45;cruiser.d.mts&#45;&gt;configuration.d.mts</title>
<path fill="none" stroke="#000000" stroke-opacity="0.200000" d="M324.74,-56.79C343.12,-56.79 358.5,-56.79 358.5,-56.79 358.5,-56.79 358.5,-186.71 358.5,-186.71 358.5,-186.71 360.27,-186.71 360.27,-186.71"/>
<polygon fill="none" stroke="#000000" stroke-opacity="0.200000" points="360.28,-188.81 366.27,-186.71 360.27,-184.61 360.28,-188.81"/>
</g>
<!-- dependency&#45;cruiser.d.mts&#45;&gt;options.d.mts -->
<g id="edge16" class="edge">
<title>dependency&#45;cruiser.d.mts&#45;&gt;options.d.mts</title>
<path fill="none" stroke="#000000" stroke-opacity="0.200000" d="M324.53,-58.24C340.58,-58.24 353.5,-58.24 353.5,-58.24 353.5,-58.24 353.5,-217 353.5,-217 353.5,-217 484.68,-217 484.68,-217"/>
<polygon fill="none" stroke="#000000" stroke-opacity="0.200000" points="484.68,-219.1 490.68,-217 484.68,-214.9 484.68,-219.1"/>
</g>
<!-- dependency&#45;cruiser.d.mts&#45;&gt;rule&#45;set.d.mts -->
<g id="edge18" class="edge">
<title>dependency&#45;cruiser.d.mts&#45;&gt;rule&#45;set.d.mts</title>
<path fill="none" stroke="#000000" stroke-opacity="0.200000" d="M324.51,-53.9C430.05,-53.9 635.5,-53.9 635.5,-53.9 635.5,-53.9 635.5,-62.14 635.5,-62.14"/>
<polygon fill="none" stroke="#000000" stroke-opacity="0.200000" points="633.4,-62.14 635.5,-68.14 637.6,-62.14 633.4,-62.14"/>
</g>
<!-- dependency&#45;cruiser.d.mts&#45;&gt;cruise&#45;result.d.mts -->
<g id="edge15" class="edge">
<title>dependency&#45;cruiser.d.mts&#45;&gt;cruise&#45;result.d.mts</title>
<path fill="none" stroke="#000000" stroke-opacity="0.200000" d="M324.6,-51.01C357.94,-51.01 392.5,-51.01 392.5,-51.01 392.5,-51.01 392.5,-39.69 392.5,-39.69"/>
<polygon fill="none" stroke="#000000" stroke-opacity="0.200000" points="394.6,-39.69 392.5,-33.69 390.4,-39.69 394.6,-39.69"/>
</g>
<!-- dependency&#45;cruiser.d.mts&#45;&gt;shared&#45;types.d.mts -->
<g id="edge19" class="edge">
<title>dependency&#45;cruiser.d.mts&#45;&gt;shared&#45;types.d.mts</title>
<path fill="none" stroke="#000000" stroke-opacity="0.200000" d="M324.72,-52.46C447.14,-52.46 710.5,-52.46 710.5,-52.46 710.5,-52.46 710.5,-146.3 710.5,-146.3 710.5,-146.3 917.33,-146.3 917.33,-146.3"/>
<polygon fill="none" stroke="#000000" stroke-opacity="0.200000" points="917.33,-148.4 923.33,-146.3 917.33,-144.2 917.33,-148.4"/>
</g>
<!-- resolve&#45;options.d.mts -->
<g id="node19" class="node">
<title>resolve&#45;options.d.mts</title>
<g id="a_node19"><a xlink:href="https://github.com/sverweij/dependency-cruiser/blob/main/resolve-options.d.mts" xlink:title="resolve&#45;options.d.mts">
<path fill="#ddfeff" stroke="black" d="M460.33,-90.88C460.33,-90.88 369.17,-90.88 369.17,-90.88 366.21,-90.88 363.25,-87.92 363.25,-84.96 363.25,-84.96 363.25,-79.04 363.25,-79.04 363.25,-76.08 366.21,-73.12 369.17,-73.12 369.17,-73.12 460.33,-73.12 460.33,-73.12 463.29,-73.12 466.25,-76.08 466.25,-79.04 466.25,-79.04 466.25,-84.96 466.25,-84.96 466.25,-87.92 463.29,-90.88 460.33,-90.88"/>
<text text-anchor="middle" x="414.75" y="-78.33" font-family="Helvetica,sans-Serif" font-size="9.00">resolve&#45;options.d.mts</text>
</a>
</g>
</g>
<!-- dependency&#45;cruiser.d.mts&#45;&gt;resolve&#45;options.d.mts -->
<g id="edge17" class="edge">
<title>dependency&#45;cruiser.d.mts&#45;&gt;resolve&#45;options.d.mts</title>
<path fill="none" stroke="#000000" stroke-opacity="0.200000" d="M324.45,-55.35C366.74,-55.35 415.5,-55.35 415.5,-55.35 415.5,-55.35 415.5,-65.16 415.5,-65.16"/>
<polygon fill="none" stroke="#000000" stroke-opacity="0.200000" points="413.4,-65.16 415.5,-71.16 417.6,-65.16 413.4,-65.16"/>
</g>
<!-- resolve&#45;options.d.mts&#45;&gt;node_modules/enhanced&#45;resolve -->
<g id="edge31" class="edge">
<title>resolve&#45;options.d.mts&#45;&gt;node_modules/enhanced&#45;resolve</title>
<path fill="none" stroke="#000000" stroke-opacity="0.200000" d="M466.53,-82.5C479.85,-82.5 490.5,-82.5 490.5,-82.5 490.5,-82.5 490.5,-96.17 490.5,-96.17"/>
<polygon fill="none" stroke="#000000" stroke-opacity="0.200000" points="488.4,-96.17 490.5,-102.17 492.6,-96.17 488.4,-96.17"/>
</g>
<!-- filter&#45;types.d.mts&#45;&gt;shared&#45;types.d.mts -->
<g id="edge20" class="edge">
<title>filter&#45;types.d.mts&#45;&gt;shared&#45;types.d.mts</title>
<path fill="none" stroke="#000000" stroke-opacity="0.200000" d="M802.08,-195C856.22,-195 944.5,-195 944.5,-195 944.5,-195 944.5,-167.84 944.5,-167.84"/>
<polygon fill="none" stroke="#000000" stroke-opacity="0.200000" points="946.6,-167.84 944.5,-161.84 942.4,-167.84 946.6,-167.84"/>
</g>
<!-- reporter&#45;options.d.mts&#45;&gt;filter&#45;types.d.mts -->
<g id="edge30" class="edge">
<title>reporter&#45;options.d.mts&#45;&gt;filter&#45;types.d.mts</title>
<path fill="none" stroke="#000000" stroke-opacity="0.200000" d="M700,-193C700,-193 712.19,-193 712.19,-193"/>
<polygon fill="none" stroke="#000000" stroke-opacity="0.200000" points="712.19,-195.1 718.19,-193 712.19,-190.9 712.19,-195.1"/>
</g>
<!-- plugins/3d&#45;reporter&#45;plugin.d.mts -->
<g id="node22" class="node">
<title>plugins/3d&#45;reporter&#45;plugin.d.mts</title>
<g id="a_node22"><a xlink:href="https://github.com/sverweij/dependency-cruiser/blob/main/plugins/3d-reporter-plugin.d.mts" xlink:title="3d&#45;reporter&#45;plugin.d.mts">
<path fill="#ddfeff" stroke="black" d="M137.08,-33.88C137.08,-33.88 34.67,-33.88 34.67,-33.88 31.71,-33.88 28.75,-30.92 28.75,-27.96 28.75,-27.96 28.75,-22.04 28.75,-22.04 28.75,-19.08 31.71,-16.12 34.67,-16.12 34.67,-16.12 137.08,-16.12 137.08,-16.12 140.04,-16.12 143,-19.08 143,-22.04 143,-22.04 143,-27.96 143,-27.96 143,-30.92 140.04,-33.88 137.08,-33.88"/>
<text text-anchor="start" x="36.75" y="-21.32" font-family="Helvetica,sans-Serif" font-size="9.00">3d&#45;reporter&#45;plugin.d.mts</text>
</a>
</g>
</g>
<!-- plugins/3d&#45;reporter&#45;plugin.d.mts&#45;&gt;dependency&#45;cruiser.d.mts -->
<g id="edge27" class="edge">
<title>plugins/3d&#45;reporter&#45;plugin.d.mts&#45;&gt;dependency&#45;cruiser.d.mts</title>
<path fill="none" stroke="#000000" stroke-opacity="0.200000" d="M143.05,-24C194.98,-24 263.5,-24 263.5,-24 263.5,-24 263.5,-38.35 263.5,-38.35"/>
<polygon fill="none" stroke="#000000" stroke-opacity="0.200000" points="261.4,-38.35 263.5,-44.35 265.6,-38.35 261.4,-38.35"/>
</g>
<!-- plugins/mermaid&#45;reporter&#45;plugin.d.mts -->
<g id="node23" class="node">
<title>plugins/mermaid&#45;reporter&#45;plugin.d.mts</title>
<g id="a_node23"><a xlink:href="https://github.com/sverweij/dependency-cruiser/blob/main/plugins/mermaid-reporter-plugin.d.mts" xlink:title="mermaid&#45;reporter&#45;plugin.d.mts">
<path fill="#ddfeff" stroke="black" d="M149.83,-63.88C149.83,-63.88 21.92,-63.88 21.92,-63.88 18.96,-63.88 16,-60.92 16,-57.96 16,-57.96 16,-52.04 16,-52.04 16,-49.08 18.96,-46.12 21.92,-46.12 21.92,-46.12 149.83,-46.12 149.83,-46.12 152.79,-46.12 155.75,-49.08 155.75,-52.04 155.75,-52.04 155.75,-57.96 155.75,-57.96 155.75,-60.92 152.79,-63.88 149.83,-63.88"/>
<text text-anchor="start" x="24" y="-51.33" font-family="Helvetica,sans-Serif" font-size="9.00">mermaid&#45;reporter&#45;plugin.d.mts</text>
</a>
</g>
</g>
<!-- plugins/mermaid&#45;reporter&#45;plugin.d.mts&#45;&gt;dependency&#45;cruiser.d.mts -->
<g id="edge28" class="edge">
<title>plugins/mermaid&#45;reporter&#45;plugin.d.mts&#45;&gt;dependency&#45;cruiser.d.mts</title>
<path fill="none" stroke="#000000" stroke-opacity="0.200000" d="M156.08,-55C156.08,-55 194.63,-55 194.63,-55"/>
<polygon fill="none" stroke="#000000" stroke-opacity="0.200000" points="194.63,-57.1 200.63,-55 194.63,-52.9 194.63,-57.1"/>
</g>
<!-- plugins/stats&#45;reporter&#45;plugin.d.mts -->
<g id="node24" class="node">
<title>plugins/stats&#45;reporter&#45;plugin.d.mts</title>
<g id="a_node24"><a xlink:href="https://github.com/sverweij/dependency-cruiser/blob/main/plugins/stats-reporter-plugin.d.mts" xlink:title="stats&#45;reporter&#45;plugin.d.mts">
<path fill="#ddfeff" stroke="black" d="M141.21,-93.88C141.21,-93.88 30.54,-93.88 30.54,-93.88 27.58,-93.88 24.62,-90.92 24.62,-87.96 24.62,-87.96 24.62,-82.04 24.62,-82.04 24.62,-79.08 27.58,-76.12 30.54,-76.12 30.54,-76.12 141.21,-76.12 141.21,-76.12 144.17,-76.12 147.12,-79.08 147.12,-82.04 147.12,-82.04 147.12,-87.96 147.12,-87.96 147.12,-90.92 144.17,-93.88 141.21,-93.88"/>
<text text-anchor="start" x="32.62" y="-81.33" font-family="Helvetica,sans-Serif" font-size="9.00">stats&#45;reporter&#45;plugin.d.mts</text>
</a>
</g>
</g>
<!-- plugins/stats&#45;reporter&#45;plugin.d.mts&#45;&gt;dependency&#45;cruiser.d.mts -->
<g id="edge29" class="edge">
<title>plugins/stats&#45;reporter&#45;plugin.d.mts&#45;&gt;dependency&#45;cruiser.d.mts</title>
<path fill="none" stroke="#000000" stroke-opacity="0.200000" d="M147.5,-80.12C198.8,-80.12 263.5,-80.12 263.5,-80.12 263.5,-80.12 263.5,-71.87 263.5,-71.87"/>
<polygon fill="none" stroke="#000000" stroke-opacity="0.200000" points="265.6,-71.87 263.5,-65.87 261.4,-71.87 265.6,-71.87"/>
</g>
<!-- restrictions.d.mts&#45;&gt;shared&#45;types.d.mts -->
<g id="edge32" class="edge">
<title>restrictions.d.mts&#45;&gt;shared&#45;types.d.mts</title>
<path fill="none" stroke="#000000" stroke-opacity="0.200000" d="M781.5,-155.72C781.5,-152.88 781.5,-150.48 781.5,-150.48 781.5,-150.48 917.3,-150.48 917.3,-150.48"/>
<polygon fill="none" stroke="#000000" stroke-opacity="0.200000" points="917.3,-152.58 923.3,-150.48 917.3,-148.38 917.3,-152.58"/>
</g>
<!-- strict&#45;filter&#45;types.d.mts -->
<g id="node26" class="node">
<title>strict&#45;filter&#45;types.d.mts</title>
<g id="a_node26"><a xlink:href="https://github.com/sverweij/dependency-cruiser/blob/main/strict-filter-types.d.mts" xlink:title="strict&#45;filter&#45;types.d.mts">
<path fill="#ddfeff" stroke="black" d="M693.08,-341.88C693.08,-341.88 601.17,-341.88 601.17,-341.88 598.21,-341.88 595.25,-338.92 595.25,-335.96 595.25,-335.96 595.25,-330.04 595.25,-330.04 595.25,-327.08 598.21,-324.12 601.17,-324.12 601.17,-324.12 693.08,-324.12 693.08,-324.12 696.04,-324.12 699,-327.08 699,-330.04 699,-330.04 699,-335.96 699,-335.96 699,-338.92 696.04,-341.88 693.08,-341.88"/>
<text text-anchor="middle" x="647.12" y="-329.32" font-family="Helvetica,sans-Serif" font-size="9.00">strict&#45;filter&#45;types.d.mts</text>
</a>
</g>
</g>
<!-- strict&#45;filter&#45;types.d.mts&#45;&gt;shared&#45;types.d.mts -->
<g id="edge37" class="edge">
<title>strict&#45;filter&#45;types.d.mts&#45;&gt;shared&#45;types.d.mts</title>
<path fill="none" stroke="#000000" stroke-opacity="0.200000" d="M699.27,-335.96C797.56,-335.96 1000.5,-335.96 1000.5,-335.96 1000.5,-335.96 1000.5,-167.69 1000.5,-167.69"/>
<polygon fill="none" stroke="#000000" stroke-opacity="0.200000" points="1002.6,-167.69 1000.5,-161.69 998.4,-167.69 1002.6,-167.69"/>
</g>
<!-- strict&#45;filter&#45;types.d.mts&#45;&gt;filter&#45;types.d.mts -->
<g id="edge36" class="edge">
<title>strict&#45;filter&#45;types.d.mts&#45;&gt;filter&#45;types.d.mts</title>
<path fill="none" stroke="#000000" stroke-opacity="0.200000" d="M699.34,-330.04C734.88,-330.04 775.5,-330.04 775.5,-330.04 775.5,-330.04 775.5,-211.8 775.5,-211.8"/>
<polygon fill="none" stroke="#000000" stroke-opacity="0.200000" points="777.6,-211.8 775.5,-205.8 773.4,-211.8 777.6,-211.8"/>
</g>
<!-- strict&#45;options.d.mts -->
<g id="node27" class="node">
<title>strict&#45;options.d.mts</title>
<g id="a_node27"><a xlink:href="https://github.com/sverweij/dependency-cruiser/blob/main/strict-options.d.mts" xlink:title="strict&#45;options.d.mts">
<path fill="#ddfeff" stroke="black" d="M454.71,-285.88C454.71,-285.88 374.79,-285.88 374.79,-285.88 371.83,-285.88 368.88,-282.92 368.88,-279.96 368.88,-279.96 368.88,-274.04 368.88,-274.04 368.88,-271.08 371.83,-268.12 374.79,-268.12 374.79,-268.12 454.71,-268.12 454.71,-268.12 457.67,-268.12 460.62,-271.08 460.62,-274.04 460.62,-274.04 460.62,-279.96 460.62,-279.96 460.62,-282.92 457.67,-285.88 454.71,-285.88"/>
<text text-anchor="middle" x="414.75" y="-273.32" font-family="Helvetica,sans-Serif" font-size="9.00">strict&#45;options.d.mts</text>
</a>
</g>
</g>
<!-- strict&#45;options.d.mts&#45;&gt;cache&#45;options.d.mts -->
<g id="edge38" class="edge">
<title>strict&#45;options.d.mts&#45;&gt;cache&#45;options.d.mts</title>
<path fill="none" stroke="#000000" stroke-opacity="0.200000" d="M438.5,-267.9C438.5,-255.82 438.5,-236 438.5,-236 438.5,-236 647.5,-236 647.5,-236 647.5,-236 647.5,-235.42 647.5,-235.42"/>
<polygon fill="none" stroke="#000000" stroke-opacity="0.200000" points="649.6,-237.76 647.5,-231.76 645.4,-237.76 649.6,-237.76"/>
</g>
<!-- strict&#45;options.d.mts&#45;&gt;options.d.mts -->
<g id="edge39" class="edge">
<title>strict&#45;options.d.mts&#45;&gt;options.d.mts</title>
<path fill="none" stroke="#000000" stroke-opacity="0.200000" d="M415.5,-268.09C415.5,-253.45 415.5,-225.88 415.5,-225.88 415.5,-225.88 484.46,-225.88 484.46,-225.88"/>
<polygon fill="none" stroke="#000000" stroke-opacity="0.200000" points="484.46,-227.98 490.46,-225.88 484.46,-223.78 484.46,-227.98"/>
</g>
<!-- strict&#45;options.d.mts&#45;&gt;shared&#45;types.d.mts -->
<g id="edge40" class="edge">
<title>strict&#45;options.d.mts&#45;&gt;shared&#45;types.d.mts</title>
<path fill="none" stroke="#000000" stroke-opacity="0.200000" d="M392.5,-267.82C392.5,-248.79 392.5,-206.79 392.5,-206.79 392.5,-206.79 963.5,-206.79 963.5,-206.79 963.5,-206.79 963.5,-167.73 963.5,-167.73"/>
<polygon fill="none" stroke="#000000" stroke-opacity="0.200000" points="965.6,-167.73 963.5,-161.73 961.4,-167.73 965.6,-167.73"/>
</g>
<!-- strict&#45;options.d.mts&#45;&gt;strict&#45;filter&#45;types.d.mts -->
<g id="edge41" class="edge">
<title>strict&#45;options.d.mts&#45;&gt;strict&#45;filter&#45;types.d.mts</title>
<path fill="none" stroke="#000000" stroke-opacity="0.200000" d="M415.5,-286.25C415.5,-302.15 415.5,-333 415.5,-333 415.5,-333 587.34,-333 587.34,-333"/>
<polygon fill="none" stroke="#000000" stroke-opacity="0.200000" points="587.34,-335.1 593.34,-333 587.34,-330.9 587.34,-335.1"/>
</g>
<!-- strict&#45;rule&#45;set.d.mts -->
<g id="node28" class="node">
<title>strict&#45;rule&#45;set.d.mts</title>
<g id="a_node28"><a xlink:href="https://github.com/sverweij/dependency-cruiser/blob/main/strict-rule-set.d.mts" xlink:title="strict&#45;rule&#45;set.d.mts">
<path fill="#ddfeff" stroke="black" d="M567.71,-285.88C567.71,-285.88 487.04,-285.88 487.04,-285.88 484.08,-285.88 481.12,-282.92 481.12,-279.96 481.12,-279.96 481.12,-274.04 481.12,-274.04 481.12,-271.08 484.08,-268.12 487.04,-268.12 487.04,-268.12 567.71,-268.12 567.71,-268.12 570.67,-268.12 573.62,-271.08 573.62,-274.04 573.62,-274.04 573.62,-279.96 573.62,-279.96 573.62,-282.92 570.67,-285.88 567.71,-285.88"/>
<text text-anchor="middle" x="527.38" y="-273.32" font-family="Helvetica,sans-Serif" font-size="9.00">strict&#45;rule&#45;set.d.mts</text>
</a>
</g>
</g>
<!-- strict&#45;options.d.mts&#45;&gt;strict&#45;rule&#45;set.d.mts -->
<g id="edge42" class="edge">
<title>strict&#45;options.d.mts&#45;&gt;strict&#45;rule&#45;set.d.mts</title>
<path fill="none" stroke="#000000" stroke-opacity="0.200000" d="M460.88,-277C460.88,-277 473.25,-277 473.25,-277"/>
<polygon fill="none" stroke="#000000" stroke-opacity="0.200000" points="473.25,-279.1 479.25,-277 473.25,-274.9 473.25,-279.1"/>
</g>
<!-- strict&#45;rule&#45;set.d.mts&#45;&gt;rule&#45;set.d.mts -->
<g id="edge45" class="edge">
<title>strict&#45;rule&#45;set.d.mts&#45;&gt;rule&#45;set.d.mts</title>
<path fill="none" stroke="#000000" stroke-opacity="0.200000" d="M573.98,-277C579.66,-277 583.5,-277 583.5,-277 583.5,-277 583.5,-84.44 583.5,-84.44 583.5,-84.44 604.08,-84.44 604.08,-84.44"/>
<polygon fill="none" stroke="#000000" stroke-opacity="0.200000" points="604.08,-86.54 610.08,-84.44 604.08,-82.34 604.08,-86.54"/>
</g>
<!-- strict&#45;rule&#45;set.d.mts&#45;&gt;shared&#45;types.d.mts -->
<g id="edge46" class="edge">
<title>strict&#45;rule&#45;set.d.mts&#45;&gt;shared&#45;types.d.mts</title>
<path fill="none" stroke="#000000" stroke-opacity="0.200000" d="M566.5,-267.8C566.5,-238.47 566.5,-149.09 566.5,-149.09 566.5,-149.09 917.46,-149.09 917.46,-149.09"/>
<polygon fill="none" stroke="#000000" stroke-opacity="0.200000" points="917.46,-151.19 923.46,-149.09 917.46,-146.99 917.46,-151.19"/>
</g>
<!-- strict&#45;restrictions.d.mts -->
<g id="node29" class="node">
<title>strict&#45;restrictions.d.mts</title>
<g id="a_node29"><a xlink:href="https://github.com/sverweij/dependency-cruiser/blob/main/strict-restrictions.d.mts" xlink:title="strict&#45;restrictions.d.mts">
<path fill="#ddfeff" stroke="black" d="M694.21,-259.88C694.21,-259.88 600.04,-259.88 600.04,-259.88 597.08,-259.88 594.12,-256.92 594.12,-253.96 594.12,-253.96 594.12,-248.04 594.12,-248.04 594.12,-245.08 597.08,-242.12 600.04,-242.12 600.04,-242.12 694.21,-242.12 694.21,-242.12 697.17,-242.12 700.12,-245.08 700.12,-248.04 700.12,-248.04 700.12,-253.96 700.12,-253.96 700.12,-256.92 697.17,-259.88 694.21,-259.88"/>
<text text-anchor="middle" x="647.12" y="-247.32" font-family="Helvetica,sans-Serif" font-size="9.00">strict&#45;restrictions.d.mts</text>
</a>
</g>
</g>
<!-- strict&#45;rule&#45;set.d.mts&#45;&gt;strict&#45;restrictions.d.mts -->
<g id="edge47" class="edge">
<title>strict&#45;rule&#45;set.d.mts&#45;&gt;strict&#45;restrictions.d.mts</title>
<path fill="none" stroke="#000000" stroke-opacity="0.200000" d="M569.5,-267.91C569.5,-260.41 569.5,-251 569.5,-251 569.5,-251 586.12,-251 586.12,-251"/>
<polygon fill="none" stroke="#000000" stroke-opacity="0.200000" points="586.12,-253.1 592.12,-251 586.12,-248.9 586.12,-253.1"/>
</g>
<!-- strict&#45;restrictions.d.mts&#45;&gt;shared&#45;types.d.mts -->
<g id="edge44" class="edge">
<title>strict&#45;restrictions.d.mts&#45;&gt;shared&#45;types.d.mts</title>
<path fill="none" stroke="#000000" stroke-opacity="0.200000" d="M700.48,-253.96C794.88,-253.96 981.5,-253.96 981.5,-253.96 981.5,-253.96 981.5,-167.65 981.5,-167.65"/>
<polygon fill="none" stroke="#000000" stroke-opacity="0.200000" points="983.6,-167.65 981.5,-161.65 979.4,-167.65 983.6,-167.65"/>
</g>
<!-- strict&#45;restrictions.d.mts&#45;&gt;restrictions.d.mts -->
<g id="edge43" class="edge">
<title>strict&#45;restrictions.d.mts&#45;&gt;restrictions.d.mts</title>
<path fill="none" stroke="#000000" stroke-opacity="0.200000" d="M700.54,-248.04C708.72,-248.04 714.5,-248.04 714.5,-248.04 714.5,-248.04 714.5,-167.88 714.5,-167.88 714.5,-167.88 714.9,-167.88 714.9,-167.88"/>
<polygon fill="none" stroke="#000000" stroke-opacity="0.200000" points="710.94,-169.98 716.94,-167.88 710.94,-165.78 710.94,-169.98"/>
</g>
</g>
</svg>
