<?xml version="1.0" encoding="UTF-8" standalone="no"?>
<!DOCTYPE svg PUBLIC "-//W3C//DTD SVG 1.1//EN"
 "http://www.w3.org/Graphics/SVG/1.1/DTD/svg11.dtd">
<!-- Generated by graphviz version 2.49.3 (20211023.0002)
 -->
<!-- Title: dependency&#45;cruiser output Pages: 1 -->
<svg width="714pt" height="198pt"
 viewBox="0.00 0.00 714.00 198.00" xmlns="http://www.w3.org/2000/svg" xmlns:xlink="http://www.w3.org/1999/xlink">
<g id="graph0" class="graph" transform="scale(1 1) rotate(0) translate(4 194)">
<title>dependency&#45;cruiser output</title>
<polygon fill="white" stroke="transparent" points="-4,4 -4,-194 710,-194 710,4 -4,4"/>
<g id="clust1" class="cluster">
<title>cluster_node_modules</title>
<path fill="#ffffff" stroke="black" stroke-width="2" d="M132,-130C132,-130 212,-130 212,-130 218,-130 224,-136 224,-142 224,-142 224,-170 224,-170 224,-176 218,-182 212,-182 212,-182 132,-182 132,-182 126,-182 120,-176 120,-170 120,-170 120,-142 120,-142 120,-136 126,-130 132,-130"/>
<text text-anchor="middle" x="172" y="-170.8" font-family="Helvetica,sans-Serif" font-weight="bold" font-size="9.00">node_modules</text>
</g>
<!-- baseline&#45;violations.d.ts -->
<g id="node1" class="node">
<title>baseline&#45;violations.d.ts</title>
<g id="a_node1"><a xlink:href="https://github.com/sverweij/dependency-cruiser/blob/develop/baseline-violations.d.ts" xlink:title="baseline&#45;violations.d.ts">
<path fill="#ddfeff" stroke="black" d="M410,-78C410,-78 314,-78 314,-78 311,-78 308,-75 308,-72 308,-72 308,-66 308,-66 308,-63 311,-60 314,-60 314,-60 410,-60 410,-60 413,-60 416,-63 416,-66 416,-66 416,-72 416,-72 416,-75 413,-78 410,-78"/>
<text text-anchor="middle" x="362" y="-66.8" font-family="Helvetica,sans-Serif" font-size="9.00">baseline&#45;violations.d.ts</text>
</a>
</g>
</g>
<!-- violations.d.ts -->
<g id="node2" class="node">
<title>violations.d.ts</title>
<g id="a_node2"><a xlink:href="https://github.com/sverweij/dependency-cruiser/blob/develop/violations.d.ts" xlink:title="violations.d.ts">
<path fill="#ddfeff" stroke="black" d="M497,-18C497,-18 438,-18 438,-18 435,-18 432,-15 432,-12 432,-12 432,-6 432,-6 432,-3 435,0 438,0 438,0 497,0 497,0 500,0 503,-3 503,-6 503,-6 503,-12 503,-12 503,-15 500,-18 497,-18"/>
<text text-anchor="middle" x="467.5" y="-6.8" font-family="Helvetica,sans-Serif" font-size="9.00">violations.d.ts</text>
</a>
</g>
</g>
<!-- baseline&#45;violations.d.ts&#45;&gt;violations.d.ts -->
<g id="edge1" class="edge">
<title>baseline&#45;violations.d.ts&#45;&gt;violations.d.ts</title>
<path fill="none" stroke="#000000" stroke-width="2" stroke-opacity="0.200000" d="M405,-59.65C405,-44.28 405,-15.33 405,-15.33 405,-15.33 425.87,-15.33 425.87,-15.33"/>
<polygon fill="#000000" fill-opacity="0.200000" stroke="#000000" stroke-width="2" stroke-opacity="0.200000" points="425.87,-17.43 431.87,-15.33 425.87,-13.23 425.87,-17.43"/>
</g>
<!-- rule&#45;summary.d.ts -->
<g id="node7" class="node">
<title>rule&#45;summary.d.ts</title>
<g id="a_node7"><a xlink:href="https://github.com/sverweij/dependency-cruiser/blob/develop/rule-summary.d.ts" xlink:title="rule&#45;summary.d.ts">
<path fill="#ddfeff" stroke="black" d="M601,-18C601,-18 525,-18 525,-18 522,-18 519,-15 519,-12 519,-12 519,-6 519,-6 519,-3 522,0 525,0 525,0 601,0 601,0 604,0 607,-3 607,-6 607,-6 607,-12 607,-12 607,-15 604,-18 601,-18"/>
<text text-anchor="middle" x="563" y="-6.8" font-family="Helvetica,sans-Serif" font-size="9.00">rule&#45;summary.d.ts</text>
</a>
</g>
</g>
<!-- violations.d.ts&#45;&gt;rule&#45;summary.d.ts -->
<g id="edge26" class="edge">
<title>violations.d.ts&#45;&gt;rule&#45;summary.d.ts</title>
<path fill="none" stroke="#000000" stroke-width="2" stroke-opacity="0.200000" d="M503.06,-9C503.06,-9 512.67,-9 512.67,-9"/>
<polygon fill="#000000" fill-opacity="0.200000" stroke="#000000" stroke-width="2" stroke-opacity="0.200000" points="512.67,-11.1 518.67,-9 512.67,-6.9 512.67,-11.1"/>
</g>
<!-- configuration.d.ts -->
<g id="node3" class="node">
<title>configuration.d.ts</title>
<g id="a_node3"><a xlink:href="https://github.com/sverweij/dependency-cruiser/blob/develop/configuration.d.ts" xlink:title="configuration.d.ts">
<path fill="#ddfeff" stroke="black" d="M208.5,-96C208.5,-96 135.5,-96 135.5,-96 132.5,-96 129.5,-93 129.5,-90 129.5,-90 129.5,-84 129.5,-84 129.5,-81 132.5,-78 135.5,-78 135.5,-78 208.5,-78 208.5,-78 211.5,-78 214.5,-81 214.5,-84 214.5,-84 214.5,-90 214.5,-90 214.5,-93 211.5,-96 208.5,-96"/>
<text text-anchor="middle" x="172" y="-84.8" font-family="Helvetica,sans-Serif" font-size="9.00">configuration.d.ts</text>
</a>
</g>
</g>
<!-- options.d.ts -->
<g id="node4" class="node">
<title>options.d.ts</title>
<g id="a_node4"><a xlink:href="https://github.com/sverweij/dependency-cruiser/blob/develop/options.d.ts" xlink:title="options.d.ts">
<path fill="#ddfeff" stroke="black" d="M289,-122C289,-122 238,-122 238,-122 235,-122 232,-119 232,-116 232,-116 232,-110 232,-110 232,-107 235,-104 238,-104 238,-104 289,-104 289,-104 292,-104 295,-107 295,-110 295,-110 295,-116 295,-116 295,-119 292,-122 289,-122"/>
<text text-anchor="middle" x="263.5" y="-110.8" font-family="Helvetica,sans-Serif" font-size="9.00">options.d.ts</text>
</a>
</g>
</g>
<!-- configuration.d.ts&#45;&gt;options.d.ts -->
<g id="edge2" class="edge">
<title>configuration.d.ts&#45;&gt;options.d.ts</title>
<path fill="none" stroke="#000000" stroke-width="2" stroke-opacity="0.200000" d="M214.89,-87C230.78,-87 245,-87 245,-87 245,-87 245,-97.91 245,-97.91"/>
<polygon fill="#000000" fill-opacity="0.200000" stroke="#000000" stroke-width="2" stroke-opacity="0.200000" points="242.9,-97.91 245,-103.91 247.1,-97.91 242.9,-97.91"/>
</g>
<!-- rule&#45;set.d.ts -->
<g id="node5" class="node">
<title>rule&#45;set.d.ts</title>
<g id="a_node5"><a xlink:href="https://github.com/sverweij/dependency-cruiser/blob/develop/rule-set.d.ts" xlink:title="rule&#45;set.d.ts">
<path fill="#ddfeff" stroke="black" d="M388,-48C388,-48 336,-48 336,-48 333,-48 330,-45 330,-42 330,-42 330,-36 330,-36 330,-33 333,-30 336,-30 336,-30 388,-30 388,-30 391,-30 394,-33 394,-36 394,-36 394,-42 394,-42 394,-45 391,-48 388,-48"/>
<text text-anchor="middle" x="362" y="-36.8" font-family="Helvetica,sans-Serif" font-size="9.00">rule&#45;set.d.ts</text>
</a>
</g>
</g>
<!-- configuration.d.ts&#45;&gt;rule&#45;set.d.ts -->
<g id="edge3" class="edge">
<title>configuration.d.ts&#45;&gt;rule&#45;set.d.ts</title>
<path fill="none" stroke="#000000" stroke-width="2" stroke-opacity="0.200000" d="M186,-77.65C186,-62.92 186,-36 186,-36 186,-36 323.72,-36 323.72,-36"/>
<polygon fill="#000000" fill-opacity="0.200000" stroke="#000000" stroke-width="2" stroke-opacity="0.200000" points="323.72,-38.1 329.72,-36 323.72,-33.9 323.72,-38.1"/>
</g>
<!-- options.d.ts&#45;&gt;baseline&#45;violations.d.ts -->
<g id="edge15" class="edge">
<title>options.d.ts&#45;&gt;baseline&#45;violations.d.ts</title>
<path fill="none" stroke="#000000" stroke-width="2" stroke-opacity="0.200000" d="M283,-103.72C283,-91.91 283,-73 283,-73 283,-73 302,-73 302,-73"/>
<polygon fill="#000000" fill-opacity="0.200000" stroke="#000000" stroke-width="2" stroke-opacity="0.200000" points="302,-75.1 308,-73 302,-70.9 302,-75.1"/>
</g>
<!-- options.d.ts&#45;&gt;rule&#45;set.d.ts -->
<g id="edge18" class="edge">
<title>options.d.ts&#45;&gt;rule&#45;set.d.ts</title>
<path fill="none" stroke="#000000" stroke-width="2" stroke-opacity="0.200000" d="M270,-103.72C270,-84.47 270,-42 270,-42 270,-42 323.82,-42 323.82,-42"/>
<polygon fill="#000000" fill-opacity="0.200000" stroke="#000000" stroke-width="2" stroke-opacity="0.200000" points="323.82,-44.1 329.82,-42 323.82,-39.9 323.82,-44.1"/>
</g>
<!-- shared&#45;types.d.ts -->
<g id="node8" class="node">
<title>shared&#45;types.d.ts</title>
<g id="a_node8"><a xlink:href="https://github.com/sverweij/dependency-cruiser/blob/develop/shared-types.d.ts" xlink:title="shared&#45;types.d.ts">
<path fill="#ddfeff" stroke="black" d="M700,-48C700,-48 626,-48 626,-48 623,-48 620,-45 620,-42 620,-42 620,-36 620,-36 620,-33 623,-30 626,-30 626,-30 700,-30 700,-30 703,-30 706,-33 706,-36 706,-36 706,-42 706,-42 706,-45 703,-48 700,-48"/>
<text text-anchor="middle" x="663" y="-36.8" font-family="Helvetica,sans-Serif" font-size="9.00">shared&#45;types.d.ts</text>
</a>
</g>
</g>
<!-- options.d.ts&#45;&gt;shared&#45;types.d.ts -->
<g id="edge19" class="edge">
<title>options.d.ts&#45;&gt;shared&#45;types.d.ts</title>
<path fill="none" stroke="#000000" stroke-width="2" stroke-opacity="0.200000" d="M295.18,-108C389.67,-108 663,-108 663,-108 663,-108 663,-54.02 663,-54.02"/>
<polygon fill="#000000" fill-opacity="0.200000" stroke="#000000" stroke-width="2" stroke-opacity="0.200000" points="665.1,-54.02 663,-48.02 660.9,-54.02 665.1,-54.02"/>
</g>
<!-- filter&#45;types.d.ts -->
<g id="node10" class="node">
<title>filter&#45;types.d.ts</title>
<g id="a_node10"><a xlink:href="https://github.com/sverweij/dependency-cruiser/blob/develop/filter-types.d.ts" xlink:title="filter&#45;types.d.ts">
<path fill="#ddfeff" stroke="black" d="M499,-134C499,-134 436,-134 436,-134 433,-134 430,-131 430,-128 430,-128 430,-122 430,-122 430,-119 433,-116 436,-116 436,-116 499,-116 499,-116 502,-116 505,-119 505,-122 505,-122 505,-128 505,-128 505,-131 502,-134 499,-134"/>
<text text-anchor="middle" x="467.5" y="-122.8" font-family="Helvetica,sans-Serif" font-size="9.00">filter&#45;types.d.ts</text>
</a>
</g>
</g>
<!-- options.d.ts&#45;&gt;filter&#45;types.d.ts -->
<g id="edge16" class="edge">
<title>options.d.ts&#45;&gt;filter&#45;types.d.ts</title>
<path fill="none" stroke="#000000" stroke-width="2" stroke-opacity="0.200000" d="M295,-112C352.37,-112 468,-112 468,-112 468,-112 468,-112.38 468,-112.38"/>
<polygon fill="#000000" fill-opacity="0.200000" stroke="#000000" stroke-width="2" stroke-opacity="0.200000" points="465.9,-109.83 468,-115.83 470.1,-109.83 465.9,-109.83"/>
</g>
<!-- reporter&#45;options.d.ts -->
<g id="node13" class="node">
<title>reporter&#45;options.d.ts</title>
<g id="a_node13"><a xlink:href="https://github.com/sverweij/dependency-cruiser/blob/develop/reporter-options.d.ts" xlink:title="reporter&#45;options.d.ts">
<path fill="#ddfeff" stroke="black" d="M404.5,-134C404.5,-134 319.5,-134 319.5,-134 316.5,-134 313.5,-131 313.5,-128 313.5,-128 313.5,-122 313.5,-122 313.5,-119 316.5,-116 319.5,-116 319.5,-116 404.5,-116 404.5,-116 407.5,-116 410.5,-119 410.5,-122 410.5,-122 410.5,-128 410.5,-128 410.5,-131 407.5,-134 404.5,-134"/>
<text text-anchor="middle" x="362" y="-122.8" font-family="Helvetica,sans-Serif" font-size="9.00">reporter&#45;options.d.ts</text>
</a>
</g>
</g>
<!-- options.d.ts&#45;&gt;reporter&#45;options.d.ts -->
<g id="edge17" class="edge">
<title>options.d.ts&#45;&gt;reporter&#45;options.d.ts</title>
<path fill="none" stroke="#000000" stroke-width="2" stroke-opacity="0.200000" d="M264,-122.24C264,-125.33 264,-128 264,-128 264,-128 307.29,-128 307.29,-128"/>
<polygon fill="#000000" fill-opacity="0.200000" stroke="#000000" stroke-width="2" stroke-opacity="0.200000" points="307.29,-130.1 313.29,-128 307.29,-125.9 307.29,-130.1"/>
</g>
<!-- rule&#45;set.d.ts&#45;&gt;shared&#45;types.d.ts -->
<g id="edge24" class="edge">
<title>rule&#45;set.d.ts&#45;&gt;shared&#45;types.d.ts</title>
<path fill="none" stroke="#000000" stroke-width="2" stroke-opacity="0.200000" d="M373,-29.88C373,-26.29 373,-23 373,-23 373,-23 642,-23 642,-23 642,-23 642,-23.88 642,-23.88"/>
<polygon fill="#000000" fill-opacity="0.200000" stroke="#000000" stroke-width="2" stroke-opacity="0.200000" points="639.9,-23.88 642,-29.88 644.1,-23.88 639.9,-23.88"/>
</g>
<!-- restrictions.d.ts -->
<g id="node15" class="node">
<title>restrictions.d.ts</title>
<g id="a_node15"><a xlink:href="https://github.com/sverweij/dependency-cruiser/blob/develop/restrictions.d.ts" xlink:title="restrictions.d.ts">
<path fill="#ddfeff" stroke="black" d="M500,-48C500,-48 435,-48 435,-48 432,-48 429,-45 429,-42 429,-42 429,-36 429,-36 429,-33 432,-30 435,-30 435,-30 500,-30 500,-30 503,-30 506,-33 506,-36 506,-36 506,-42 506,-42 506,-45 503,-48 500,-48"/>
<text text-anchor="middle" x="467.5" y="-36.8" font-family="Helvetica,sans-Serif" font-size="9.00">restrictions.d.ts</text>
</a>
</g>
</g>
<!-- rule&#45;set.d.ts&#45;&gt;restrictions.d.ts -->
<g id="edge23" class="edge">
<title>rule&#45;set.d.ts&#45;&gt;restrictions.d.ts</title>
<path fill="none" stroke="#000000" stroke-width="2" stroke-opacity="0.200000" d="M394.23,-39C394.23,-39 422.79,-39 422.79,-39"/>
<polygon fill="#000000" fill-opacity="0.200000" stroke="#000000" stroke-width="2" stroke-opacity="0.200000" points="422.79,-41.1 428.79,-39 422.79,-36.9 422.79,-41.1"/>
</g>
<!-- cruise&#45;result.d.ts -->
<g id="node6" class="node">
<title>cruise&#45;result.d.ts</title>
<g id="a_node6"><a xlink:href="https://github.com/sverweij/dependency-cruiser/blob/develop/cruise-result.d.ts" xlink:title="cruise&#45;result.d.ts">
<path fill="#ddfeff" stroke="black" d="M207.5,-28C207.5,-28 136.5,-28 136.5,-28 133.5,-28 130.5,-25 130.5,-22 130.5,-22 130.5,-16 130.5,-16 130.5,-13 133.5,-10 136.5,-10 136.5,-10 207.5,-10 207.5,-10 210.5,-10 213.5,-13 213.5,-16 213.5,-16 213.5,-22 213.5,-22 213.5,-25 210.5,-28 207.5,-28"/>
<text text-anchor="middle" x="172" y="-16.8" font-family="Helvetica,sans-Serif" font-size="9.00">cruise&#45;result.d.ts</text>
</a>
</g>
</g>
<!-- cruise&#45;result.d.ts&#45;&gt;violations.d.ts -->
<g id="edge8" class="edge">
<title>cruise&#45;result.d.ts&#45;&gt;violations.d.ts</title>
<path fill="none" stroke="#000000" stroke-width="2" stroke-opacity="0.200000" d="M213.71,-12.67C213.71,-12.67 425.56,-12.67 425.56,-12.67"/>
<polygon fill="#000000" fill-opacity="0.200000" stroke="#000000" stroke-width="2" stroke-opacity="0.200000" points="425.56,-14.77 431.56,-12.67 425.56,-10.57 425.56,-14.77"/>
</g>
<!-- cruise&#45;result.d.ts&#45;&gt;options.d.ts -->
<g id="edge4" class="edge">
<title>cruise&#45;result.d.ts&#45;&gt;options.d.ts</title>
<path fill="none" stroke="#000000" stroke-width="2" stroke-opacity="0.200000" d="M213.74,-26.33C235.65,-26.33 258,-26.33 258,-26.33 258,-26.33 258,-97.73 258,-97.73"/>
<polygon fill="#000000" fill-opacity="0.200000" stroke="#000000" stroke-width="2" stroke-opacity="0.200000" points="255.9,-97.73 258,-103.73 260.1,-97.73 255.9,-97.73"/>
</g>
<!-- cruise&#45;result.d.ts&#45;&gt;rule&#45;set.d.ts -->
<g id="edge5" class="edge">
<title>cruise&#45;result.d.ts&#45;&gt;rule&#45;set.d.ts</title>
<path fill="none" stroke="#000000" stroke-width="2" stroke-opacity="0.200000" d="M213.75,-24.67C266.92,-24.67 352,-24.67 352,-24.67 352,-24.67 352,-25.18 352,-25.18"/>
<polygon fill="#000000" fill-opacity="0.200000" stroke="#000000" stroke-width="2" stroke-opacity="0.200000" points="349.9,-23.84 352,-29.84 354.1,-23.84 349.9,-23.84"/>
</g>
<!-- cruise&#45;result.d.ts&#45;&gt;rule&#45;summary.d.ts -->
<g id="edge6" class="edge">
<title>cruise&#45;result.d.ts&#45;&gt;rule&#45;summary.d.ts</title>
<path fill="none" stroke="#000000" stroke-width="2" stroke-opacity="0.200000" d="M213.84,-19.67C314.71,-19.67 563,-19.67 563,-19.67 563,-19.67 563,-19.5 563,-19.5"/>
<polygon fill="#000000" fill-opacity="0.200000" stroke="#000000" stroke-width="2" stroke-opacity="0.200000" points="565.1,-24 563,-18 560.9,-24 565.1,-24"/>
</g>
<!-- cruise&#45;result.d.ts&#45;&gt;shared&#45;types.d.ts -->
<g id="edge7" class="edge">
<title>cruise&#45;result.d.ts&#45;&gt;shared&#45;types.d.ts</title>
<path fill="none" stroke="#000000" stroke-width="2" stroke-opacity="0.200000" d="M213.86,-21.33C332.6,-21.33 663,-21.33 663,-21.33 663,-21.33 663,-23.75 663,-23.75"/>
<polygon fill="#000000" fill-opacity="0.200000" stroke="#000000" stroke-width="2" stroke-opacity="0.200000" points="660.9,-23.75 663,-29.75 665.1,-23.75 660.9,-23.75"/>
</g>
<!-- rule&#45;summary.d.ts&#45;&gt;shared&#45;types.d.ts -->
<g id="edge25" class="edge">
<title>rule&#45;summary.d.ts&#45;&gt;shared&#45;types.d.ts</title>
<path fill="none" stroke="#000000" stroke-width="2" stroke-opacity="0.200000" d="M607.04,-9C641.99,-9 685,-9 685,-9 685,-9 685,-23.84 685,-23.84"/>
<polygon fill="#000000" fill-opacity="0.200000" stroke="#000000" stroke-width="2" stroke-opacity="0.200000" points="682.9,-23.84 685,-29.84 687.1,-23.84 682.9,-23.84"/>
</g>
<!-- dependency&#45;cruiser.d.ts -->
<g id="node9" class="node">
<title>dependency&#45;cruiser.d.ts</title>
<g id="a_node9"><a xlink:href="https://github.com/sverweij/dependency-cruiser/blob/develop/dependency-cruiser.d.ts" xlink:title="dependency&#45;cruiser.d.ts">
<path fill="#ddfeff" stroke="black" d="M106,-68C106,-68 6,-68 6,-68 3,-68 0,-65 0,-62 0,-62 0,-56 0,-56 0,-53 3,-50 6,-50 6,-50 106,-50 106,-50 109,-50 112,-53 112,-56 112,-56 112,-62 112,-62 112,-65 109,-68 106,-68"/>
<text text-anchor="middle" x="56" y="-56.8" font-family="Helvetica,sans-Serif" font-size="9.00">dependency&#45;cruiser.d.ts</text>
</a>
</g>
</g>
<!-- dependency&#45;cruiser.d.ts&#45;&gt;configuration.d.ts -->
<g id="edge9" class="edge">
<title>dependency&#45;cruiser.d.ts&#45;&gt;configuration.d.ts</title>
<path fill="none" stroke="#000000" stroke-width="2" stroke-opacity="0.200000" d="M110,-68.14C110,-75.97 110,-86 110,-86 110,-86 123.28,-86 123.28,-86"/>
<polygon fill="#000000" fill-opacity="0.200000" stroke="#000000" stroke-width="2" stroke-opacity="0.200000" points="123.28,-88.1 129.28,-86 123.28,-83.9 123.28,-88.1"/>
</g>
<!-- dependency&#45;cruiser.d.ts&#45;&gt;options.d.ts -->
<g id="edge11" class="edge">
<title>dependency&#45;cruiser.d.ts&#45;&gt;options.d.ts</title>
<path fill="none" stroke="#000000" stroke-width="2" stroke-opacity="0.200000" d="M107,-68.45C107,-82.69 107,-108 107,-108 107,-108 225.83,-108 225.83,-108"/>
<polygon fill="#000000" fill-opacity="0.200000" stroke="#000000" stroke-width="2" stroke-opacity="0.200000" points="225.83,-110.1 231.83,-108 225.83,-105.9 225.83,-110.1"/>
</g>
<!-- dependency&#45;cruiser.d.ts&#45;&gt;rule&#45;set.d.ts -->
<g id="edge12" class="edge">
<title>dependency&#45;cruiser.d.ts&#45;&gt;rule&#45;set.d.ts</title>
<path fill="none" stroke="#000000" stroke-width="2" stroke-opacity="0.200000" d="M112.13,-55C200.46,-55 362,-55 362,-55 362,-55 362,-54.12 362,-54.12"/>
<polygon fill="#000000" fill-opacity="0.200000" stroke="#000000" stroke-width="2" stroke-opacity="0.200000" points="364.1,-54.12 362,-48.12 359.9,-54.12 364.1,-54.12"/>
</g>
<!-- dependency&#45;cruiser.d.ts&#45;&gt;cruise&#45;result.d.ts -->
<g id="edge10" class="edge">
<title>dependency&#45;cruiser.d.ts&#45;&gt;cruise&#45;result.d.ts</title>
<path fill="none" stroke="#000000" stroke-width="2" stroke-opacity="0.200000" d="M112.02,-52.5C136.18,-52.5 159,-52.5 159,-52.5 159,-52.5 159,-34.15 159,-34.15"/>
<polygon fill="#000000" fill-opacity="0.200000" stroke="#000000" stroke-width="2" stroke-opacity="0.200000" points="161.1,-34.15 159,-28.15 156.9,-34.15 161.1,-34.15"/>
</g>
<!-- dependency&#45;cruiser.d.ts&#45;&gt;shared&#45;types.d.ts -->
<g id="edge13" class="edge">
<title>dependency&#45;cruiser.d.ts&#45;&gt;shared&#45;types.d.ts</title>
<path fill="none" stroke="#000000" stroke-width="2" stroke-opacity="0.200000" d="M112.19,-57.5C258.86,-57.5 642,-57.5 642,-57.5 642,-57.5 642,-54.25 642,-54.25"/>
<polygon fill="#000000" fill-opacity="0.200000" stroke="#000000" stroke-width="2" stroke-opacity="0.200000" points="644.1,-54.25 642,-48.25 639.9,-54.25 644.1,-54.25"/>
</g>
<!-- filter&#45;types.d.ts&#45;&gt;shared&#45;types.d.ts -->
<g id="edge14" class="edge">
<title>filter&#45;types.d.ts&#45;&gt;shared&#45;types.d.ts</title>
<path fill="none" stroke="#000000" stroke-width="2" stroke-opacity="0.200000" d="M505.39,-125C567.7,-125 685,-125 685,-125 685,-125 685,-54.2 685,-54.2"/>
<polygon fill="#000000" fill-opacity="0.200000" stroke="#000000" stroke-width="2" stroke-opacity="0.200000" points="687.1,-54.2 685,-48.2 682.9,-54.2 687.1,-54.2"/>
</g>
<!-- init&#45;config.d.ts -->
<g id="node11" class="node">
<title>init&#45;config.d.ts</title>
<g id="a_node11"><a xlink:href="https://github.com/sverweij/dependency-cruiser/blob/develop/init-config.d.ts" xlink:title="init&#45;config.d.ts">
<path fill="#ccffcc" stroke="black" d="M86,-112C86,-112 26,-112 26,-112 23,-112 20,-109 20,-106 20,-106 20,-100 20,-100 20,-97 23,-94 26,-94 26,-94 86,-94 86,-94 89,-94 92,-97 92,-100 92,-100 92,-106 92,-106 92,-109 89,-112 86,-112"/>
<text text-anchor="middle" x="56" y="-100.8" font-family="Helvetica,sans-Serif" font-size="9.00">init&#45;config.d.ts</text>
</a>
</g>
</g>
<!-- node_modules/enhanced&#45;resolve -->
<g id="node12" class="node">
<title>node_modules/enhanced&#45;resolve</title>
<g id="a_node12"><a xlink:href="https://github.com/sverweij/dependency-cruiser/blob/develop/node_modules/enhanced-resolve" xlink:title="enhanced&#45;resolve">
<polygon fill="#c40b0a" fill-opacity="0.101961" stroke="black" points="216,-156 130,-156 128,-154 128,-138 214,-138 216,-140 216,-156"/>
<polyline fill="none" stroke="black" points="214,-154 128,-154 "/>
<polyline fill="none" stroke="black" points="214,-154 214,-138 "/>
<polyline fill="none" stroke="black" points="214,-154 216,-156 "/>
<text text-anchor="middle" x="172" y="-144.8" font-family="Helvetica,sans-Serif" font-size="9.00" fill="#c40b0a">enhanced&#45;resolve</text>
</a>
</g>
</g>
<!-- reporter&#45;options.d.ts&#45;&gt;filter&#45;types.d.ts -->
<g id="edge20" class="edge">
<title>reporter&#45;options.d.ts&#45;&gt;filter&#45;types.d.ts</title>
<path fill="none" stroke="#000000" stroke-width="2" stroke-opacity="0.200000" d="M410.74,-125C410.74,-125 423.71,-125 423.71,-125"/>
<polygon fill="#000000" fill-opacity="0.200000" stroke="#000000" stroke-width="2" stroke-opacity="0.200000" points="423.71,-127.1 429.71,-125 423.71,-122.9 423.71,-127.1"/>
</g>
<!-- resolve&#45;options.d.ts -->
<g id="node14" class="node">
<title>resolve&#45;options.d.ts</title>
<g id="a_node14"><a xlink:href="https://github.com/sverweij/dependency-cruiser/blob/develop/resolve-options.d.ts" xlink:title="resolve&#45;options.d.ts">
<path fill="#ddfeff" stroke="black" d="M97.5,-156C97.5,-156 14.5,-156 14.5,-156 11.5,-156 8.5,-153 8.5,-150 8.5,-150 8.5,-144 8.5,-144 8.5,-141 11.5,-138 14.5,-138 14.5,-138 97.5,-138 97.5,-138 100.5,-138 103.5,-141 103.5,-144 103.5,-144 103.5,-150 103.5,-150 103.5,-153 100.5,-156 97.5,-156"/>
<text text-anchor="middle" x="56" y="-144.8" font-family="Helvetica,sans-Serif" font-size="9.00">resolve&#45;options.d.ts</text>
</a>
</g>
</g>
<!-- resolve&#45;options.d.ts&#45;&gt;node_modules/enhanced&#45;resolve -->
<g id="edge21" class="edge">
<title>resolve&#45;options.d.ts&#45;&gt;node_modules/enhanced&#45;resolve</title>
<path fill="none" stroke="#000000" stroke-opacity="0.200000" d="M103.52,-147C103.52,-147 121.73,-147 121.73,-147"/>
<polygon fill="#000000" fill-opacity="0.200000" stroke="#000000" stroke-opacity="0.200000" points="121.73,-149.1 127.73,-147 121.73,-144.9 121.73,-149.1"/>
</g>
<!-- restrictions.d.ts&#45;&gt;shared&#45;types.d.ts -->
<g id="edge22" class="edge">
<title>restrictions.d.ts&#45;&gt;shared&#45;types.d.ts</title>
<path fill="none" stroke="#000000" stroke-width="2" stroke-opacity="0.200000" d="M506.12,-39C506.12,-39 613.69,-39 613.69,-39"/>
<polygon fill="#000000" fill-opacity="0.200000" stroke="#000000" stroke-width="2" stroke-opacity="0.200000" points="613.69,-41.1 619.69,-39 613.69,-36.9 613.69,-41.1"/>
</g>
</g>
</svg>
