<?xml version="1.0" encoding="UTF-8" standalone="no"?>
<!DOCTYPE svg PUBLIC "-//W3C//DTD SVG 1.1//EN"
 "http://www.w3.org/Graphics/SVG/1.1/DTD/svg11.dtd">
<!-- Generated by graphviz version 10.0.1 (20240210.2158)
 -->
<!-- Title: dependency&#45;cruiser output Pages: 1 -->
<svg width="1045pt" height="344pt"
 viewBox="0.00 0.00 1045.25 343.75" xmlns="http://www.w3.org/2000/svg" xmlns:xlink="http://www.w3.org/1999/xlink">
<g id="graph0" class="graph" transform="scale(1 1) rotate(0) translate(4 339.75)">
<title>dependency&#45;cruiser output</title>
<polygon fill="white" stroke="none" points="-4,4 -4,-339.75 1041.25,-339.75 1041.25,4 -4,4"/>
<g id="clust1" class="cluster">
<title>cluster_config&#45;utl</title>
<path fill="#ffffff" stroke="black" stroke-width="2" d="M313.5,-55.88C313.5,-55.88 473,-55.88 473,-55.88 479,-55.88 485,-61.88 485,-67.88 485,-67.88 485,-185.88 485,-185.88 485,-191.88 479,-197.88 473,-197.88 473,-197.88 313.5,-197.88 313.5,-197.88 307.5,-197.88 301.5,-191.88 301.5,-185.88 301.5,-185.88 301.5,-67.88 301.5,-67.88 301.5,-61.88 307.5,-55.88 313.5,-55.88"/>
<text text-anchor="middle" x="393.25" y="-185.32" font-family="Helvetica,sans-Serif" font-weight="bold" font-size="9.00">config&#45;utl</text>
</g>
<g id="clust2" class="cluster">
<title>cluster_node_modules</title>
<path fill="#ffffff" stroke="black" stroke-width="2" d="M505,-37.88C505,-37.88 587.25,-37.88 587.25,-37.88 593.25,-37.88 599.25,-43.88 599.25,-49.88 599.25,-49.88 599.25,-137.88 599.25,-137.88 599.25,-143.88 593.25,-149.88 587.25,-149.88 587.25,-149.88 505,-149.88 505,-149.88 499,-149.88 493,-143.88 493,-137.88 493,-137.88 493,-49.88 493,-49.88 493,-43.88 499,-37.88 505,-37.88"/>
<text text-anchor="middle" x="546.12" y="-137.32" font-family="Helvetica,sans-Serif" font-weight="bold" font-size="9.00">node_modules</text>
</g>
<g id="clust3" class="cluster">
<title>cluster_plugins</title>
<path fill="#ffffff" stroke="black" stroke-width="2" d="M20,-179.88C20,-179.88 151.75,-179.88 151.75,-179.88 157.75,-179.88 163.75,-185.88 163.75,-191.88 163.75,-191.88 163.75,-279.88 163.75,-279.88 163.75,-285.88 157.75,-291.88 151.75,-291.88 151.75,-291.88 20,-291.88 20,-291.88 14,-291.88 8,-285.88 8,-279.88 8,-279.88 8,-191.88 8,-191.88 8,-185.88 14,-179.88 20,-179.88"/>
<text text-anchor="middle" x="85.88" y="-279.32" font-family="Helvetica,sans-Serif" font-weight="bold" font-size="9.00">plugins</text>
</g>
<!-- baseline&#45;violations.d.mts -->
<g id="node1" class="node">
<title>baseline&#45;violations.d.mts</title>
<g id="a_node1"><a xlink:href="https://github.com/sverweij/dependency-cruiser/blob/main/baseline-violations.d.mts" xlink:title="baseline&#45;violations.d.mts">
<path fill="#ddfeff" stroke="black" d="M718.58,-92.75C718.58,-92.75 613.17,-92.75 613.17,-92.75 610.21,-92.75 607.25,-89.79 607.25,-86.83 607.25,-86.83 607.25,-80.92 607.25,-80.92 607.25,-77.96 610.21,-75 613.17,-75 613.17,-75 718.58,-75 718.58,-75 721.54,-75 724.5,-77.96 724.5,-80.92 724.5,-80.92 724.5,-86.83 724.5,-86.83 724.5,-89.79 721.54,-92.75 718.58,-92.75"/>
<text text-anchor="middle" x="665.88" y="-80.2" font-family="Helvetica,sans-Serif" font-size="9.00">baseline&#45;violations.d.mts</text>
</a>
</g>
</g>
<!-- violations.d.mts -->
<g id="node2" class="node">
<title>violations.d.mts</title>
<g id="a_node2"><a xlink:href="https://github.com/sverweij/dependency-cruiser/blob/main/violations.d.mts" xlink:title="violations.d.mts">
<path fill="#ddfeff" stroke="black" d="M813.21,-86.75C813.21,-86.75 746.04,-86.75 746.04,-86.75 743.08,-86.75 740.12,-83.79 740.12,-80.83 740.12,-80.83 740.12,-74.92 740.12,-74.92 740.12,-71.96 743.08,-69 746.04,-69 746.04,-69 813.21,-69 813.21,-69 816.17,-69 819.12,-71.96 819.12,-74.92 819.12,-74.92 819.12,-80.83 819.12,-80.83 819.12,-83.79 816.17,-86.75 813.21,-86.75"/>
<text text-anchor="middle" x="779.62" y="-74.2" font-family="Helvetica,sans-Serif" font-size="9.00">violations.d.mts</text>
</a>
</g>
</g>
<!-- baseline&#45;violations.d.mts&#45;&gt;violations.d.mts -->
<g id="edge1" class="edge">
<title>baseline&#45;violations.d.mts&#45;&gt;violations.d.mts</title>
<path fill="none" stroke="#000000" stroke-opacity="0.200000" d="M724.75,-80.88C724.75,-80.88 732.29,-80.88 732.29,-80.88"/>
<polygon fill="none" stroke="#000000" stroke-opacity="0.200000" points="732.29,-82.98 738.29,-80.88 732.29,-78.78 732.29,-82.98"/>
</g>
<!-- rule&#45;summary.d.mts -->
<g id="node14" class="node">
<title>rule&#45;summary.d.mts</title>
<g id="a_node14"><a xlink:href="https://github.com/sverweij/dependency-cruiser/blob/main/rule-summary.d.mts" xlink:title="rule&#45;summary.d.mts">
<path fill="#ddfeff" stroke="black" d="M925.08,-79.75C925.08,-79.75 840.67,-79.75 840.67,-79.75 837.71,-79.75 834.75,-76.79 834.75,-73.83 834.75,-73.83 834.75,-67.92 834.75,-67.92 834.75,-64.96 837.71,-62 840.67,-62 840.67,-62 925.08,-62 925.08,-62 928.04,-62 931,-64.96 931,-67.92 931,-67.92 931,-73.83 931,-73.83 931,-76.79 928.04,-79.75 925.08,-79.75"/>
<text text-anchor="middle" x="882.88" y="-67.2" font-family="Helvetica,sans-Serif" font-size="9.00">rule&#45;summary.d.mts</text>
</a>
</g>
</g>
<!-- violations.d.mts&#45;&gt;rule&#45;summary.d.mts -->
<g id="edge47" class="edge">
<title>violations.d.mts&#45;&gt;rule&#45;summary.d.mts</title>
<path fill="none" stroke="#000000" stroke-opacity="0.200000" d="M819.54,-74.38C819.54,-74.38 826.93,-74.38 826.93,-74.38"/>
<polygon fill="none" stroke="#000000" stroke-opacity="0.200000" points="826.93,-76.48 832.93,-74.38 826.93,-72.28 826.93,-76.48"/>
</g>
<!-- shared&#45;types.d.mts -->
<g id="node15" class="node">
<title>shared&#45;types.d.mts</title>
<g id="a_node15"><a xlink:href="https://github.com/sverweij/dependency-cruiser/blob/main/shared-types.d.mts" xlink:title="shared&#45;types.d.mts">
<path fill="#ddfeff" stroke="black" d="M1031.33,-238.75C1031.33,-238.75 949.92,-238.75 949.92,-238.75 946.96,-238.75 944,-235.79 944,-232.83 944,-232.83 944,-226.92 944,-226.92 944,-223.96 946.96,-221 949.92,-221 949.92,-221 1031.33,-221 1031.33,-221 1034.29,-221 1037.25,-223.96 1037.25,-226.92 1037.25,-226.92 1037.25,-232.83 1037.25,-232.83 1037.25,-235.79 1034.29,-238.75 1031.33,-238.75"/>
<text text-anchor="middle" x="990.62" y="-226.2" font-family="Helvetica,sans-Serif" font-size="9.00">shared&#45;types.d.mts</text>
</a>
</g>
</g>
<!-- violations.d.mts&#45;&gt;shared&#45;types.d.mts -->
<g id="edge48" class="edge">
<title>violations.d.mts&#45;&gt;shared&#45;types.d.mts</title>
<path fill="none" stroke="#000000" stroke-opacity="0.200000" d="M819.43,-83.25C880.73,-83.25 991.25,-83.25 991.25,-83.25 991.25,-83.25 991.25,-213.19 991.25,-213.19"/>
<polygon fill="none" stroke="#000000" stroke-opacity="0.200000" points="989.15,-213.19 991.25,-219.19 993.35,-213.19 989.15,-213.19"/>
</g>
<!-- cache&#45;options.d.mts -->
<g id="node3" class="node">
<title>cache&#45;options.d.mts</title>
<g id="a_node3"><a xlink:href="https://github.com/sverweij/dependency-cruiser/blob/main/cache-options.d.mts" xlink:title="cache&#45;options.d.mts">
<path fill="#ddfeff" stroke="black" d="M708.83,-217.75C708.83,-217.75 622.92,-217.75 622.92,-217.75 619.96,-217.75 617,-214.79 617,-211.83 617,-211.83 617,-205.92 617,-205.92 617,-202.96 619.96,-200 622.92,-200 622.92,-200 708.83,-200 708.83,-200 711.79,-200 714.75,-202.96 714.75,-205.92 714.75,-205.92 714.75,-211.83 714.75,-211.83 714.75,-214.79 711.79,-217.75 708.83,-217.75"/>
<text text-anchor="middle" x="665.88" y="-205.2" font-family="Helvetica,sans-Serif" font-size="9.00">cache&#45;options.d.mts</text>
</a>
</g>
</g>
<!-- config&#45;utl/extract&#45;babel&#45;config.d.mts -->
<g id="node4" class="node">
<title>config&#45;utl/extract&#45;babel&#45;config.d.mts</title>
<g id="a_node4"><a xlink:href="https://github.com/sverweij/dependency-cruiser/blob/main/config-utl/extract-babel-config.d.mts" xlink:title="extract&#45;babel&#45;config.d.mts">
<path fill="#ccffcc" stroke="black" d="M447.83,-81.75C447.83,-81.75 338.67,-81.75 338.67,-81.75 335.71,-81.75 332.75,-78.79 332.75,-75.83 332.75,-75.83 332.75,-69.92 332.75,-69.92 332.75,-66.96 335.71,-64 338.67,-64 338.67,-64 447.83,-64 447.83,-64 450.79,-64 453.75,-66.96 453.75,-69.92 453.75,-69.92 453.75,-75.83 453.75,-75.83 453.75,-78.79 450.79,-81.75 447.83,-81.75"/>
<text text-anchor="start" x="340.75" y="-69.2" font-family="Helvetica,sans-Serif" font-size="9.00">extract&#45;babel&#45;config.d.mts</text>
</a>
</g>
</g>
<!-- config&#45;utl/extract&#45;depcruise&#45;config.d.mts -->
<g id="node5" class="node">
<title>config&#45;utl/extract&#45;depcruise&#45;config.d.mts</title>
<g id="a_node5"><a xlink:href="https://github.com/sverweij/dependency-cruiser/blob/main/config-utl/extract-depcruise-config.d.mts" xlink:title="extract&#45;depcruise&#45;config.d.mts">
<path fill="#ddfeff" stroke="black" d="M456.46,-171.75C456.46,-171.75 330.04,-171.75 330.04,-171.75 327.08,-171.75 324.12,-168.79 324.12,-165.83 324.12,-165.83 324.12,-159.92 324.12,-159.92 324.12,-156.96 327.08,-154 330.04,-154 330.04,-154 456.46,-154 456.46,-154 459.42,-154 462.38,-156.96 462.38,-159.92 462.38,-159.92 462.38,-165.83 462.38,-165.83 462.38,-168.79 459.42,-171.75 456.46,-171.75"/>
<text text-anchor="start" x="332.12" y="-159.2" font-family="Helvetica,sans-Serif" font-size="9.00">extract&#45;depcruise&#45;config.d.mts</text>
</a>
</g>
</g>
<!-- options.d.mts -->
<g id="node6" class="node">
<title>options.d.mts</title>
<g id="a_node6"><a xlink:href="https://github.com/sverweij/dependency-cruiser/blob/main/options.d.mts" xlink:title="options.d.mts">
<path fill="#ddfeff" stroke="black" d="M575.21,-175.75C575.21,-175.75 517.04,-175.75 517.04,-175.75 514.08,-175.75 511.12,-172.79 511.12,-169.83 511.12,-169.83 511.12,-163.92 511.12,-163.92 511.12,-160.96 514.08,-158 517.04,-158 517.04,-158 575.21,-158 575.21,-158 578.17,-158 581.12,-160.96 581.12,-163.92 581.12,-163.92 581.12,-169.83 581.12,-169.83 581.12,-172.79 578.17,-175.75 575.21,-175.75"/>
<text text-anchor="middle" x="546.12" y="-163.2" font-family="Helvetica,sans-Serif" font-size="9.00">options.d.mts</text>
</a>
</g>
</g>
<!-- config&#45;utl/extract&#45;depcruise&#45;config.d.mts&#45;&gt;options.d.mts -->
<g id="edge2" class="edge">
<title>config&#45;utl/extract&#45;depcruise&#45;config.d.mts&#45;&gt;options.d.mts</title>
<path fill="none" stroke="#000000" stroke-opacity="0.200000" d="M462.53,-164.88C462.53,-164.88 503.39,-164.88 503.39,-164.88"/>
<polygon fill="none" stroke="#000000" stroke-opacity="0.200000" points="503.39,-166.98 509.39,-164.88 503.39,-162.78 503.39,-166.98"/>
</g>
<!-- options.d.mts&#45;&gt;baseline&#45;violations.d.mts -->
<g id="edge20" class="edge">
<title>options.d.mts&#45;&gt;baseline&#45;violations.d.mts</title>
<path fill="none" stroke="#000000" stroke-opacity="0.200000" d="M581.52,-161C616.95,-161 666.25,-161 666.25,-161 666.25,-161 666.25,-100.54 666.25,-100.54"/>
<polygon fill="none" stroke="#000000" stroke-opacity="0.200000" points="668.35,-100.54 666.25,-94.54 664.15,-100.54 668.35,-100.54"/>
</g>
<!-- options.d.mts&#45;&gt;cache&#45;options.d.mts -->
<g id="edge21" class="edge">
<title>options.d.mts&#45;&gt;cache&#45;options.d.mts</title>
<path fill="none" stroke="#000000" stroke-opacity="0.200000" d="M561.25,-175.97C561.25,-188.55 561.25,-209.75 561.25,-209.75 561.25,-209.75 609.11,-209.75 609.11,-209.75"/>
<polygon fill="none" stroke="#000000" stroke-opacity="0.200000" points="609.11,-211.85 615.11,-209.75 609.11,-207.65 609.11,-211.85"/>
</g>
<!-- rule&#45;set.d.mts -->
<g id="node12" class="node">
<title>rule&#45;set.d.mts</title>
<g id="a_node12"><a xlink:href="https://github.com/sverweij/dependency-cruiser/blob/main/rule-set.d.mts" xlink:title="rule&#45;set.d.mts">
<path fill="#ddfeff" stroke="black" d="M695.33,-277.75C695.33,-277.75 636.42,-277.75 636.42,-277.75 633.46,-277.75 630.5,-274.79 630.5,-271.83 630.5,-271.83 630.5,-265.92 630.5,-265.92 630.5,-262.96 633.46,-260 636.42,-260 636.42,-260 695.33,-260 695.33,-260 698.29,-260 701.25,-262.96 701.25,-265.92 701.25,-265.92 701.25,-271.83 701.25,-271.83 701.25,-274.79 698.29,-277.75 695.33,-277.75"/>
<text text-anchor="middle" x="665.88" y="-265.2" font-family="Helvetica,sans-Serif" font-size="9.00">rule&#45;set.d.mts</text>
</a>
</g>
</g>
<!-- options.d.mts&#45;&gt;rule&#45;set.d.mts -->
<g id="edge24" class="edge">
<title>options.d.mts&#45;&gt;rule&#45;set.d.mts</title>
<path fill="none" stroke="#000000" stroke-opacity="0.200000" d="M551.25,-175.95C551.25,-200.98 551.25,-269.16 551.25,-269.16 551.25,-269.16 622.72,-269.16 622.72,-269.16"/>
<polygon fill="none" stroke="#000000" stroke-opacity="0.200000" points="622.72,-271.26 628.72,-269.16 622.72,-267.06 622.72,-271.26"/>
</g>
<!-- options.d.mts&#45;&gt;shared&#45;types.d.mts -->
<g id="edge25" class="edge">
<title>options.d.mts&#45;&gt;shared&#45;types.d.mts</title>
<path fill="none" stroke="#000000" stroke-opacity="0.200000" d="M581.39,-164C682.84,-164 968.25,-164 968.25,-164 968.25,-164 968.25,-213.2 968.25,-213.2"/>
<polygon fill="none" stroke="#000000" stroke-opacity="0.200000" points="966.15,-213.2 968.25,-219.2 970.35,-213.2 966.15,-213.2"/>
</g>
<!-- filter&#45;types.d.mts -->
<g id="node19" class="node">
<title>filter&#45;types.d.mts</title>
<g id="a_node19"><a xlink:href="https://github.com/sverweij/dependency-cruiser/blob/main/filter-types.d.mts" xlink:title="filter&#45;types.d.mts">
<path fill="#ddfeff" stroke="black" d="M814.71,-190.75C814.71,-190.75 744.54,-190.75 744.54,-190.75 741.58,-190.75 738.62,-187.79 738.62,-184.83 738.62,-184.83 738.62,-178.92 738.62,-178.92 738.62,-175.96 741.58,-173 744.54,-173 744.54,-173 814.71,-173 814.71,-173 817.67,-173 820.62,-175.96 820.62,-178.92 820.62,-178.92 820.62,-184.83 820.62,-184.83 820.62,-187.79 817.67,-190.75 814.71,-190.75"/>
<text text-anchor="middle" x="779.62" y="-178.2" font-family="Helvetica,sans-Serif" font-size="9.00">filter&#45;types.d.mts</text>
</a>
</g>
</g>
<!-- options.d.mts&#45;&gt;filter&#45;types.d.mts -->
<g id="edge22" class="edge">
<title>options.d.mts&#45;&gt;filter&#45;types.d.mts</title>
<path fill="none" stroke="#000000" stroke-opacity="0.200000" d="M581.43,-167C646.83,-167 780.25,-167 780.25,-167 780.25,-167 780.25,-167.57 780.25,-167.57"/>
<polygon fill="none" stroke="#000000" stroke-opacity="0.200000" points="778.15,-165.19 780.25,-171.19 782.35,-165.2 778.15,-165.19"/>
</g>
<!-- reporter&#45;options.d.mts -->
<g id="node20" class="node">
<title>reporter&#45;options.d.mts</title>
<g id="a_node20"><a xlink:href="https://github.com/sverweij/dependency-cruiser/blob/main/reporter-options.d.mts" xlink:title="reporter&#45;options.d.mts">
<path fill="#ddfeff" stroke="black" d="M712.58,-187.75C712.58,-187.75 619.17,-187.75 619.17,-187.75 616.21,-187.75 613.25,-184.79 613.25,-181.83 613.25,-181.83 613.25,-175.92 613.25,-175.92 613.25,-172.96 616.21,-170 619.17,-170 619.17,-170 712.58,-170 712.58,-170 715.54,-170 718.5,-172.96 718.5,-175.92 718.5,-175.92 718.5,-181.83 718.5,-181.83 718.5,-184.79 715.54,-187.75 712.58,-187.75"/>
<text text-anchor="middle" x="665.88" y="-175.2" font-family="Helvetica,sans-Serif" font-size="9.00">reporter&#45;options.d.mts</text>
</a>
</g>
</g>
<!-- options.d.mts&#45;&gt;reporter&#45;options.d.mts -->
<g id="edge23" class="edge">
<title>options.d.mts&#45;&gt;reporter&#45;options.d.mts</title>
<path fill="none" stroke="#000000" stroke-opacity="0.200000" d="M571.25,-176.04C571.25,-179.1 571.25,-181.75 571.25,-181.75 571.25,-181.75 605.24,-181.75 605.24,-181.75"/>
<polygon fill="none" stroke="#000000" stroke-opacity="0.200000" points="605.24,-183.85 611.24,-181.75 605.24,-179.65 605.24,-183.85"/>
</g>
<!-- config&#45;utl/extract&#45;ts&#45;config.d.mts -->
<g id="node7" class="node">
<title>config&#45;utl/extract&#45;ts&#45;config.d.mts</title>
<g id="a_node7"><a xlink:href="https://github.com/sverweij/dependency-cruiser/blob/main/config-utl/extract-ts-config.d.mts" xlink:title="extract&#45;ts&#45;config.d.mts">
<path fill="#ddfeff" stroke="black" d="M439.58,-141.75C439.58,-141.75 346.92,-141.75 346.92,-141.75 343.96,-141.75 341,-138.79 341,-135.83 341,-135.83 341,-129.92 341,-129.92 341,-126.96 343.96,-124 346.92,-124 346.92,-124 439.58,-124 439.58,-124 442.54,-124 445.5,-126.96 445.5,-129.92 445.5,-129.92 445.5,-135.83 445.5,-135.83 445.5,-138.79 442.54,-141.75 439.58,-141.75"/>
<text text-anchor="start" x="349" y="-129.2" font-family="Helvetica,sans-Serif" font-size="9.00">extract&#45;ts&#45;config.d.mts</text>
</a>
</g>
</g>
<!-- node_modules/typescript -->
<g id="node8" class="node">
<title>node_modules/typescript</title>
<g id="a_node8"><a xlink:href="https://www.npmjs.com/package/typescript" xlink:title="typescript">
<polygon fill="#c40b0a" fill-opacity="0.101961" stroke="black" points="573.62,-123.75 520.6,-123.75 518.62,-121.78 518.62,-106 571.65,-106 573.62,-107.97 573.62,-123.75"/>
<polyline fill="none" stroke="black" points="571.65,-121.78 518.62,-121.78"/>
<polyline fill="none" stroke="black" points="571.65,-121.78 571.65,-106"/>
<polyline fill="none" stroke="black" points="571.65,-121.78 573.62,-123.75"/>
<text text-anchor="start" x="526.62" y="-111.2" font-family="Helvetica,sans-Serif" font-size="9.00" fill="#c40b0a">typescript</text>
</a>
</g>
</g>
<!-- config&#45;utl/extract&#45;ts&#45;config.d.mts&#45;&gt;node_modules/typescript -->
<g id="edge3" class="edge">
<title>config&#45;utl/extract&#45;ts&#45;config.d.mts&#45;&gt;node_modules/typescript</title>
<path fill="none" stroke="#000000" stroke-opacity="0.200000" d="M445.9,-132.88C490.16,-132.88 546.25,-132.88 546.25,-132.88 546.25,-132.88 546.25,-131.39 546.25,-131.39"/>
<polygon fill="none" stroke="#000000" stroke-opacity="0.200000" points="548.35,-131.39 546.25,-125.39 544.15,-131.39 548.35,-131.39"/>
</g>
<!-- config&#45;utl/extract&#45;webpack&#45;resolve&#45;config.d.mts -->
<g id="node9" class="node">
<title>config&#45;utl/extract&#45;webpack&#45;resolve&#45;config.d.mts</title>
<g id="a_node9"><a xlink:href="https://github.com/sverweij/dependency-cruiser/blob/main/config-utl/extract-webpack-resolve-config.d.mts" xlink:title="extract&#45;webpack&#45;resolve&#45;config.d.mts">
<path fill="#ddfeff" stroke="black" d="M471.08,-111.75C471.08,-111.75 315.42,-111.75 315.42,-111.75 312.46,-111.75 309.5,-108.79 309.5,-105.83 309.5,-105.83 309.5,-99.92 309.5,-99.92 309.5,-96.96 312.46,-94 315.42,-94 315.42,-94 471.08,-94 471.08,-94 474.04,-94 477,-96.96 477,-99.92 477,-99.92 477,-105.83 477,-105.83 477,-108.79 474.04,-111.75 471.08,-111.75"/>
<text text-anchor="start" x="317.5" y="-99.2" font-family="Helvetica,sans-Serif" font-size="9.00">extract&#45;webpack&#45;resolve&#45;config.d.mts</text>
</a>
</g>
</g>
<!-- node_modules/enhanced&#45;resolve -->
<g id="node10" class="node">
<title>node_modules/enhanced&#45;resolve</title>
<g id="a_node10"><a xlink:href="https://www.npmjs.com/package/enhanced-resolve" xlink:title="enhanced&#45;resolve">
<polygon fill="#c40b0a" fill-opacity="0.101961" stroke="black" points="591.25,-93.75 502.97,-93.75 501,-91.78 501,-76 589.28,-76 591.25,-77.97 591.25,-93.75"/>
<polyline fill="none" stroke="black" points="589.28,-91.78 501,-91.78"/>
<polyline fill="none" stroke="black" points="589.28,-91.78 589.28,-76"/>
<polyline fill="none" stroke="black" points="589.28,-91.78 591.25,-93.75"/>
<text text-anchor="start" x="509" y="-81.2" font-family="Helvetica,sans-Serif" font-size="9.00" fill="#c40b0a">enhanced&#45;resolve</text>
</a>
</g>
</g>
<!-- config&#45;utl/extract&#45;webpack&#45;resolve&#45;config.d.mts&#45;&gt;node_modules/enhanced&#45;resolve -->
<g id="edge4" class="edge">
<title>config&#45;utl/extract&#45;webpack&#45;resolve&#45;config.d.mts&#45;&gt;node_modules/enhanced&#45;resolve</title>
<path fill="none" stroke="#000000" stroke-opacity="0.200000" d="M477.25,-100C495.39,-100 509.25,-100 509.25,-100 509.25,-100 509.25,-99.42 509.25,-99.42"/>
<polygon fill="none" stroke="#000000" stroke-opacity="0.200000" points="511.35,-101.71 509.25,-95.71 507.15,-101.71 511.35,-101.71"/>
</g>
<!-- configuration.d.mts -->
<g id="node11" class="node">
<title>configuration.d.mts</title>
<g id="a_node11"><a xlink:href="https://github.com/sverweij/dependency-cruiser/blob/main/configuration.d.mts" xlink:title="configuration.d.mts">
<path fill="#ddfeff" stroke="black" d="M433.96,-249.75C433.96,-249.75 352.54,-249.75 352.54,-249.75 349.58,-249.75 346.62,-246.79 346.62,-243.83 346.62,-243.83 346.62,-237.92 346.62,-237.92 346.62,-234.96 349.58,-232 352.54,-232 352.54,-232 433.96,-232 433.96,-232 436.92,-232 439.88,-234.96 439.88,-237.92 439.88,-237.92 439.88,-243.83 439.88,-243.83 439.88,-246.79 436.92,-249.75 433.96,-249.75"/>
<text text-anchor="middle" x="393.25" y="-237.2" font-family="Helvetica,sans-Serif" font-size="9.00">configuration.d.mts</text>
</a>
</g>
</g>
<!-- configuration.d.mts&#45;&gt;options.d.mts -->
<g id="edge5" class="edge">
<title>configuration.d.mts&#45;&gt;options.d.mts</title>
<path fill="none" stroke="#000000" stroke-opacity="0.200000" d="M440.19,-237.25C476.72,-237.25 521.25,-237.25 521.25,-237.25 521.25,-237.25 521.25,-183.59 521.25,-183.59"/>
<polygon fill="none" stroke="#000000" stroke-opacity="0.200000" points="523.35,-183.59 521.25,-177.59 519.15,-183.59 523.35,-183.59"/>
</g>
<!-- configuration.d.mts&#45;&gt;rule&#45;set.d.mts -->
<g id="edge6" class="edge">
<title>configuration.d.mts&#45;&gt;rule&#45;set.d.mts</title>
<path fill="none" stroke="#000000" stroke-opacity="0.200000" d="M440.28,-242.5C471.68,-242.5 507.25,-242.5 507.25,-242.5 507.25,-242.5 507.25,-270.59 507.25,-270.59 507.25,-270.59 622.76,-270.59 622.76,-270.59"/>
<polygon fill="none" stroke="#000000" stroke-opacity="0.200000" points="622.76,-272.69 628.76,-270.59 622.76,-268.49 622.76,-272.69"/>
</g>
<!-- rule&#45;set.d.mts&#45;&gt;shared&#45;types.d.mts -->
<g id="edge33" class="edge">
<title>rule&#45;set.d.mts&#45;&gt;shared&#45;types.d.mts</title>
<path fill="none" stroke="#000000" stroke-opacity="0.200000" d="M701.62,-265.94C716.89,-265.94 731.25,-265.94 731.25,-265.94 731.25,-265.94 731.25,-235.25 731.25,-235.25 731.25,-235.25 936.14,-235.25 936.14,-235.25"/>
<polygon fill="none" stroke="#000000" stroke-opacity="0.200000" points="936.14,-237.35 942.14,-235.25 936.14,-233.15 936.14,-237.35"/>
</g>
<!-- restrictions.d.mts -->
<g id="node24" class="node">
<title>restrictions.d.mts</title>
<g id="a_node24"><a xlink:href="https://github.com/sverweij/dependency-cruiser/blob/main/restrictions.d.mts" xlink:title="restrictions.d.mts">
<path fill="#ddfeff" stroke="black" d="M815.83,-279.75C815.83,-279.75 743.42,-279.75 743.42,-279.75 740.46,-279.75 737.5,-276.79 737.5,-273.83 737.5,-273.83 737.5,-267.92 737.5,-267.92 737.5,-264.96 740.46,-262 743.42,-262 743.42,-262 815.83,-262 815.83,-262 818.79,-262 821.75,-264.96 821.75,-267.92 821.75,-267.92 821.75,-273.83 821.75,-273.83 821.75,-276.79 818.79,-279.75 815.83,-279.75"/>
<text text-anchor="middle" x="779.62" y="-267.2" font-family="Helvetica,sans-Serif" font-size="9.00">restrictions.d.mts</text>
</a>
</g>
</g>
<!-- rule&#45;set.d.mts&#45;&gt;restrictions.d.mts -->
<g id="edge32" class="edge">
<title>rule&#45;set.d.mts&#45;&gt;restrictions.d.mts</title>
<path fill="none" stroke="#000000" stroke-opacity="0.200000" d="M701.55,-269.88C701.55,-269.88 729.78,-269.88 729.78,-269.88"/>
<polygon fill="none" stroke="#000000" stroke-opacity="0.200000" points="729.78,-271.98 735.78,-269.88 729.78,-267.78 729.78,-271.98"/>
</g>
<!-- cruise&#45;result.d.mts -->
<g id="node13" class="node">
<title>cruise&#45;result.d.mts</title>
<g id="a_node13"><a xlink:href="https://github.com/sverweij/dependency-cruiser/blob/main/cruise-result.d.mts" xlink:title="cruise&#45;result.d.mts">
<path fill="#ddfeff" stroke="black" d="M432.46,-17.75C432.46,-17.75 354.04,-17.75 354.04,-17.75 351.08,-17.75 348.12,-14.79 348.12,-11.83 348.12,-11.83 348.12,-5.92 348.12,-5.92 348.12,-2.96 351.08,0 354.04,0 354.04,0 432.46,0 432.46,0 435.42,0 438.38,-2.96 438.38,-5.92 438.38,-5.92 438.38,-11.83 438.38,-11.83 438.38,-14.79 435.42,-17.75 432.46,-17.75"/>
<text text-anchor="middle" x="393.25" y="-5.2" font-family="Helvetica,sans-Serif" font-size="9.00">cruise&#45;result.d.mts</text>
</a>
</g>
</g>
<!-- cruise&#45;result.d.mts&#45;&gt;violations.d.mts -->
<g id="edge11" class="edge">
<title>cruise&#45;result.d.mts&#45;&gt;violations.d.mts</title>
<path fill="none" stroke="#000000" stroke-opacity="0.200000" d="M438.78,-7.61C541.08,-7.61 780.25,-7.61 780.25,-7.61 780.25,-7.61 780.25,-61.18 780.25,-61.18"/>
<polygon fill="none" stroke="#000000" stroke-opacity="0.200000" points="778.15,-61.18 780.25,-67.18 782.35,-61.18 778.15,-61.18"/>
</g>
<!-- cruise&#45;result.d.mts&#45;&gt;options.d.mts -->
<g id="edge7" class="edge">
<title>cruise&#45;result.d.mts&#45;&gt;options.d.mts</title>
<path fill="none" stroke="#000000" stroke-opacity="0.200000" d="M438.69,-12.68C464.72,-12.68 492.25,-12.68 492.25,-12.68 492.25,-12.68 492.25,-161.44 492.25,-161.44 492.25,-161.44 503.28,-161.44 503.28,-161.44"/>
<polygon fill="none" stroke="#000000" stroke-opacity="0.200000" points="503.28,-163.54 509.28,-161.44 503.28,-159.34 503.28,-163.54"/>
</g>
<!-- cruise&#45;result.d.mts&#45;&gt;rule&#45;set.d.mts -->
<g id="edge8" class="edge">
<title>cruise&#45;result.d.mts&#45;&gt;rule&#45;set.d.mts</title>
<path fill="none" stroke="#000000" stroke-opacity="0.200000" d="M438.71,-15.21C461.89,-15.21 485.25,-15.21 485.25,-15.21 485.25,-15.21 485.25,-272.02 485.25,-272.02 485.25,-272.02 622.68,-272.02 622.68,-272.02"/>
<polygon fill="none" stroke="#000000" stroke-opacity="0.200000" points="622.68,-274.12 628.68,-272.02 622.68,-269.92 622.68,-274.12"/>
</g>
<!-- cruise&#45;result.d.mts&#45;&gt;rule&#45;summary.d.mts -->
<g id="edge9" class="edge">
<title>cruise&#45;result.d.mts&#45;&gt;rule&#45;summary.d.mts</title>
<path fill="none" stroke="#000000" stroke-opacity="0.200000" d="M438.47,-5.07C559.77,-5.07 883.25,-5.07 883.25,-5.07 883.25,-5.07 883.25,-54.21 883.25,-54.21"/>
<polygon fill="none" stroke="#000000" stroke-opacity="0.200000" points="881.15,-54.21 883.25,-60.21 885.35,-54.21 881.15,-54.21"/>
</g>
<!-- cruise&#45;result.d.mts&#45;&gt;shared&#45;types.d.mts -->
<g id="edge10" class="edge">
<title>cruise&#45;result.d.mts&#45;&gt;shared&#45;types.d.mts</title>
<path fill="none" stroke="#000000" stroke-opacity="0.200000" d="M438.66,-2.54C581.82,-2.54 1014.25,-2.54 1014.25,-2.54 1014.25,-2.54 1014.25,-213.17 1014.25,-213.17"/>
<polygon fill="none" stroke="#000000" stroke-opacity="0.200000" points="1012.15,-213.17 1014.25,-219.17 1016.35,-213.17 1012.15,-213.17"/>
</g>
<!-- node_modules/watskeburt -->
<g id="node16" class="node">
<title>node_modules/watskeburt</title>
<g id="a_node16"><a xlink:href="https://www.npmjs.com/package/watskeburt" xlink:title="watskeburt">
<polygon fill="#c40b0a" fill-opacity="0.101961" stroke="black" points="576.25,-63.75 517.97,-63.75 516,-61.78 516,-46 574.28,-46 576.25,-47.97 576.25,-63.75"/>
<polyline fill="none" stroke="black" points="574.28,-61.78 516,-61.78"/>
<polyline fill="none" stroke="black" points="574.28,-61.78 574.28,-46"/>
<polyline fill="none" stroke="black" points="574.28,-61.78 576.25,-63.75"/>
<text text-anchor="start" x="524" y="-51.2" font-family="Helvetica,sans-Serif" font-size="9.00" fill="#c40b0a">watskeburt</text>
</a>
</g>
</g>
<!-- cruise&#45;result.d.mts&#45;&gt;node_modules/watskeburt -->
<g id="edge12" class="edge">
<title>cruise&#45;result.d.mts&#45;&gt;node_modules/watskeburt</title>
<path fill="none" stroke="#000000" stroke-opacity="0.200000" d="M438.74,-10.14C483.84,-10.14 546.25,-10.14 546.25,-10.14 546.25,-10.14 546.25,-38.31 546.25,-38.31"/>
<polygon fill="none" stroke="#000000" stroke-opacity="0.200000" points="544.15,-38.31 546.25,-44.31 548.35,-38.31 544.15,-38.31"/>
</g>
<!-- rule&#45;summary.d.mts&#45;&gt;shared&#45;types.d.mts -->
<g id="edge34" class="edge">
<title>rule&#45;summary.d.mts&#45;&gt;shared&#45;types.d.mts</title>
<path fill="none" stroke="#000000" stroke-opacity="0.200000" d="M883.25,-79.94C883.25,-112.69 883.25,-223 883.25,-223 883.25,-223 936.02,-223 936.02,-223"/>
<polygon fill="none" stroke="#000000" stroke-opacity="0.200000" points="936.02,-225.1 942.02,-223 936.02,-220.9 936.02,-225.1"/>
</g>
<!-- dependency&#45;cruiser.d.mts -->
<g id="node17" class="node">
<title>dependency&#45;cruiser.d.mts</title>
<g id="a_node17"><a xlink:href="https://github.com/sverweij/dependency-cruiser/blob/main/dependency-cruiser.d.mts" xlink:title="dependency&#45;cruiser.d.mts">
<path fill="#ddfeff" stroke="black" d="M287.58,-235.75C287.58,-235.75 177.67,-235.75 177.67,-235.75 174.71,-235.75 171.75,-232.79 171.75,-229.83 171.75,-229.83 171.75,-223.92 171.75,-223.92 171.75,-220.96 174.71,-218 177.67,-218 177.67,-218 287.58,-218 287.58,-218 290.54,-218 293.5,-220.96 293.5,-223.92 293.5,-223.92 293.5,-229.83 293.5,-229.83 293.5,-232.79 290.54,-235.75 287.58,-235.75"/>
<text text-anchor="middle" x="232.62" y="-223.2" font-family="Helvetica,sans-Serif" font-size="9.00">dependency&#45;cruiser.d.mts</text>
</a>
</g>
</g>
<!-- dependency&#45;cruiser.d.mts&#45;&gt;options.d.mts -->
<g id="edge15" class="edge">
<title>dependency&#45;cruiser.d.mts&#45;&gt;options.d.mts</title>
<path fill="none" stroke="#000000" stroke-opacity="0.200000" d="M293.7,-222C373.51,-222 503.25,-222 503.25,-222 503.25,-222 503.25,-168.31 503.25,-168.31 503.25,-168.31 504,-168.31 504,-168.31"/>
<polygon fill="none" stroke="#000000" stroke-opacity="0.200000" points="503.2,-170.41 509.2,-168.31 503.2,-166.21 503.2,-170.41"/>
</g>
<!-- dependency&#45;cruiser.d.mts&#45;&gt;configuration.d.mts -->
<g id="edge13" class="edge">
<title>dependency&#45;cruiser.d.mts&#45;&gt;configuration.d.mts</title>
<path fill="none" stroke="#000000" stroke-opacity="0.200000" d="M293.81,-229C339.2,-229 393.25,-229 393.25,-229 393.25,-229 393.25,-229.28 393.25,-229.28"/>
<polygon fill="none" stroke="#000000" stroke-opacity="0.200000" points="391.15,-224.24 393.25,-230.24 395.35,-224.24 391.15,-224.24"/>
</g>
<!-- dependency&#45;cruiser.d.mts&#45;&gt;rule&#45;set.d.mts -->
<g id="edge17" class="edge">
<title>dependency&#45;cruiser.d.mts&#45;&gt;rule&#45;set.d.mts</title>
<path fill="none" stroke="#000000" stroke-opacity="0.200000" d="M293.75,-226C359.66,-226 455.25,-226 455.25,-226 455.25,-226 455.25,-273.45 455.25,-273.45 455.25,-273.45 622.63,-273.45 622.63,-273.45"/>
<polygon fill="none" stroke="#000000" stroke-opacity="0.200000" points="622.63,-275.55 628.63,-273.45 622.63,-271.35 622.63,-275.55"/>
</g>
<!-- dependency&#45;cruiser.d.mts&#45;&gt;cruise&#45;result.d.mts -->
<g id="edge14" class="edge">
<title>dependency&#45;cruiser.d.mts&#45;&gt;cruise&#45;result.d.mts</title>
<path fill="none" stroke="#000000" stroke-opacity="0.200000" d="M233.25,-217.51C233.25,-175.78 233.25,-8.88 233.25,-8.88 233.25,-8.88 340.31,-8.88 340.31,-8.88"/>
<polygon fill="none" stroke="#000000" stroke-opacity="0.200000" points="340.31,-10.98 346.31,-8.88 340.31,-6.78 340.31,-10.98"/>
</g>
<!-- dependency&#45;cruiser.d.mts&#45;&gt;shared&#45;types.d.mts -->
<g id="edge18" class="edge">
<title>dependency&#45;cruiser.d.mts&#45;&gt;shared&#45;types.d.mts</title>
<path fill="none" stroke="#000000" stroke-opacity="0.200000" d="M293.69,-225C293.69,-225 936.14,-225 936.14,-225"/>
<polygon fill="none" stroke="#000000" stroke-opacity="0.200000" points="936.14,-227.1 942.14,-225 936.14,-222.9 936.14,-227.1"/>
</g>
<!-- resolve&#45;options.d.mts -->
<g id="node18" class="node">
<title>resolve&#45;options.d.mts</title>
<g id="a_node18"><a xlink:href="https://github.com/sverweij/dependency-cruiser/blob/main/resolve-options.d.mts" xlink:title="resolve&#45;options.d.mts">
<path fill="#ddfeff" stroke="black" d="M438.83,-47.75C438.83,-47.75 347.67,-47.75 347.67,-47.75 344.71,-47.75 341.75,-44.79 341.75,-41.83 341.75,-41.83 341.75,-35.92 341.75,-35.92 341.75,-32.96 344.71,-30 347.67,-30 347.67,-30 438.83,-30 438.83,-30 441.79,-30 444.75,-32.96 444.75,-35.92 444.75,-35.92 444.75,-41.83 444.75,-41.83 444.75,-44.79 441.79,-47.75 438.83,-47.75"/>
<text text-anchor="middle" x="393.25" y="-35.2" font-family="Helvetica,sans-Serif" font-size="9.00">resolve&#45;options.d.mts</text>
</a>
</g>
</g>
<!-- dependency&#45;cruiser.d.mts&#45;&gt;resolve&#45;options.d.mts -->
<g id="edge16" class="edge">
<title>dependency&#45;cruiser.d.mts&#45;&gt;resolve&#45;options.d.mts</title>
<path fill="none" stroke="#000000" stroke-opacity="0.200000" d="M263.25,-217.55C263.25,-179.62 263.25,-38.88 263.25,-38.88 263.25,-38.88 333.98,-38.88 333.98,-38.88"/>
<polygon fill="none" stroke="#000000" stroke-opacity="0.200000" points="333.98,-40.98 339.98,-38.88 333.98,-36.78 333.98,-40.98"/>
</g>
<!-- resolve&#45;options.d.mts&#45;&gt;node_modules/enhanced&#45;resolve -->
<g id="edge30" class="edge">
<title>resolve&#45;options.d.mts&#45;&gt;node_modules/enhanced&#45;resolve</title>
<path fill="none" stroke="#000000" stroke-opacity="0.200000" d="M445.14,-38C476.03,-38 509.25,-38 509.25,-38 509.25,-38 509.25,-68.32 509.25,-68.32"/>
<polygon fill="none" stroke="#000000" stroke-opacity="0.200000" points="507.15,-68.32 509.25,-74.32 511.35,-68.32 507.15,-68.32"/>
</g>
<!-- filter&#45;types.d.mts&#45;&gt;shared&#45;types.d.mts -->
<g id="edge19" class="edge">
<title>filter&#45;types.d.mts&#45;&gt;shared&#45;types.d.mts</title>
<path fill="none" stroke="#000000" stroke-opacity="0.200000" d="M780.25,-191.22C780.25,-203.63 780.25,-224 780.25,-224 780.25,-224 936.16,-224 936.16,-224"/>
<polygon fill="none" stroke="#000000" stroke-opacity="0.200000" points="936.16,-226.1 942.16,-224 936.16,-221.9 936.16,-226.1"/>
</g>
<!-- reporter&#45;options.d.mts&#45;&gt;filter&#45;types.d.mts -->
<g id="edge29" class="edge">
<title>reporter&#45;options.d.mts&#45;&gt;filter&#45;types.d.mts</title>
<path fill="none" stroke="#000000" stroke-opacity="0.200000" d="M718.75,-180.38C718.75,-180.38 730.94,-180.38 730.94,-180.38"/>
<polygon fill="none" stroke="#000000" stroke-opacity="0.200000" points="730.94,-182.48 736.94,-180.38 730.94,-178.28 730.94,-182.48"/>
</g>
<!-- plugins/3d&#45;reporter&#45;plugin.d.mts -->
<g id="node21" class="node">
<title>plugins/3d&#45;reporter&#45;plugin.d.mts</title>
<g id="a_node21"><a xlink:href="https://github.com/sverweij/dependency-cruiser/blob/main/plugins/3d-reporter-plugin.d.mts" xlink:title="3d&#45;reporter&#45;plugin.d.mts">
<path fill="#ddfeff" stroke="black" d="M137.08,-205.75C137.08,-205.75 34.67,-205.75 34.67,-205.75 31.71,-205.75 28.75,-202.79 28.75,-199.83 28.75,-199.83 28.75,-193.92 28.75,-193.92 28.75,-190.96 31.71,-188 34.67,-188 34.67,-188 137.08,-188 137.08,-188 140.04,-188 143,-190.96 143,-193.92 143,-193.92 143,-199.83 143,-199.83 143,-202.79 140.04,-205.75 137.08,-205.75"/>
<text text-anchor="start" x="36.75" y="-193.2" font-family="Helvetica,sans-Serif" font-size="9.00">3d&#45;reporter&#45;plugin.d.mts</text>
</a>
</g>
</g>
<!-- plugins/3d&#45;reporter&#45;plugin.d.mts&#45;&gt;dependency&#45;cruiser.d.mts -->
<g id="edge26" class="edge">
<title>plugins/3d&#45;reporter&#45;plugin.d.mts&#45;&gt;dependency&#45;cruiser.d.mts</title>
<path fill="none" stroke="#000000" stroke-opacity="0.200000" d="M143.38,-195.38C172.7,-195.38 202.25,-195.38 202.25,-195.38 202.25,-195.38 202.25,-210.08 202.25,-210.08"/>
<polygon fill="none" stroke="#000000" stroke-opacity="0.200000" points="200.15,-210.08 202.25,-216.08 204.35,-210.08 200.15,-210.08"/>
</g>
<!-- plugins/mermaid&#45;reporter&#45;plugin.d.mts -->
<g id="node22" class="node">
<title>plugins/mermaid&#45;reporter&#45;plugin.d.mts</title>
<g id="a_node22"><a xlink:href="https://github.com/sverweij/dependency-cruiser/blob/main/plugins/mermaid-reporter-plugin.d.mts" xlink:title="mermaid&#45;reporter&#45;plugin.d.mts">
<path fill="#ddfeff" stroke="black" d="M149.83,-235.75C149.83,-235.75 21.92,-235.75 21.92,-235.75 18.96,-235.75 16,-232.79 16,-229.83 16,-229.83 16,-223.92 16,-223.92 16,-220.96 18.96,-218 21.92,-218 21.92,-218 149.83,-218 149.83,-218 152.79,-218 155.75,-220.96 155.75,-223.92 155.75,-223.92 155.75,-229.83 155.75,-229.83 155.75,-232.79 152.79,-235.75 149.83,-235.75"/>
<text text-anchor="start" x="24" y="-223.2" font-family="Helvetica,sans-Serif" font-size="9.00">mermaid&#45;reporter&#45;plugin.d.mts</text>
</a>
</g>
</g>
<!-- plugins/mermaid&#45;reporter&#45;plugin.d.mts&#45;&gt;dependency&#45;cruiser.d.mts -->
<g id="edge27" class="edge">
<title>plugins/mermaid&#45;reporter&#45;plugin.d.mts&#45;&gt;dependency&#45;cruiser.d.mts</title>
<path fill="none" stroke="#000000" stroke-opacity="0.200000" d="M156.24,-226.88C156.24,-226.88 164.13,-226.88 164.13,-226.88"/>
<polygon fill="none" stroke="#000000" stroke-opacity="0.200000" points="164.13,-228.98 170.13,-226.88 164.13,-224.78 164.13,-228.98"/>
</g>
<!-- plugins/stats&#45;reporter&#45;plugin.d.mts -->
<g id="node23" class="node">
<title>plugins/stats&#45;reporter&#45;plugin.d.mts</title>
<g id="a_node23"><a xlink:href="https://github.com/sverweij/dependency-cruiser/blob/main/plugins/stats-reporter-plugin.d.mts" xlink:title="stats&#45;reporter&#45;plugin.d.mts">
<path fill="#ddfeff" stroke="black" d="M141.21,-265.75C141.21,-265.75 30.54,-265.75 30.54,-265.75 27.58,-265.75 24.62,-262.79 24.62,-259.83 24.62,-259.83 24.62,-253.92 24.62,-253.92 24.62,-250.96 27.58,-248 30.54,-248 30.54,-248 141.21,-248 141.21,-248 144.17,-248 147.12,-250.96 147.12,-253.92 147.12,-253.92 147.12,-259.83 147.12,-259.83 147.12,-262.79 144.17,-265.75 141.21,-265.75"/>
<text text-anchor="start" x="32.62" y="-253.2" font-family="Helvetica,sans-Serif" font-size="9.00">stats&#45;reporter&#45;plugin.d.mts</text>
</a>
</g>
</g>
<!-- plugins/stats&#45;reporter&#45;plugin.d.mts&#45;&gt;dependency&#45;cruiser.d.mts -->
<g id="edge28" class="edge">
<title>plugins/stats&#45;reporter&#45;plugin.d.mts&#45;&gt;dependency&#45;cruiser.d.mts</title>
<path fill="none" stroke="#000000" stroke-opacity="0.200000" d="M147.52,-254.88C187.91,-254.88 233.25,-254.88 233.25,-254.88 233.25,-254.88 233.25,-243.56 233.25,-243.56"/>
<polygon fill="none" stroke="#000000" stroke-opacity="0.200000" points="235.35,-243.56 233.25,-237.56 231.15,-243.56 235.35,-243.56"/>
</g>
<!-- restrictions.d.mts&#45;&gt;shared&#45;types.d.mts -->
<g id="edge31" class="edge">
<title>restrictions.d.mts&#45;&gt;shared&#45;types.d.mts</title>
<path fill="none" stroke="#000000" stroke-opacity="0.200000" d="M800.25,-261.62C800.25,-251.59 800.25,-237 800.25,-237 800.25,-237 936.05,-237 936.05,-237"/>
<polygon fill="none" stroke="#000000" stroke-opacity="0.200000" points="936.05,-239.1 942.05,-237 936.05,-234.9 936.05,-239.1"/>
</g>
<!-- strict&#45;filter&#45;types.d.mts -->
<g id="node25" class="node">
<title>strict&#45;filter&#45;types.d.mts</title>
<g id="a_node25"><a xlink:href="https://github.com/sverweij/dependency-cruiser/blob/main/strict-filter-types.d.mts" xlink:title="strict&#45;filter&#45;types.d.mts">
<path fill="#ddfeff" stroke="black" d="M711.83,-247.75C711.83,-247.75 619.92,-247.75 619.92,-247.75 616.96,-247.75 614,-244.79 614,-241.83 614,-241.83 614,-235.92 614,-235.92 614,-232.96 616.96,-230 619.92,-230 619.92,-230 711.83,-230 711.83,-230 714.79,-230 717.75,-232.96 717.75,-235.92 717.75,-235.92 717.75,-241.83 717.75,-241.83 717.75,-244.79 714.79,-247.75 711.83,-247.75"/>
<text text-anchor="middle" x="665.88" y="-235.2" font-family="Helvetica,sans-Serif" font-size="9.00">strict&#45;filter&#45;types.d.mts</text>
</a>
</g>
</g>
<!-- strict&#45;filter&#45;types.d.mts&#45;&gt;shared&#45;types.d.mts -->
<g id="edge36" class="edge">
<title>strict&#45;filter&#45;types.d.mts&#45;&gt;shared&#45;types.d.mts</title>
<path fill="none" stroke="#000000" stroke-opacity="0.200000" d="M718.05,-233.5C718.05,-233.5 936.08,-233.5 936.08,-233.5"/>
<polygon fill="none" stroke="#000000" stroke-opacity="0.200000" points="936.08,-235.6 942.08,-233.5 936.08,-231.4 936.08,-235.6"/>
</g>
<!-- strict&#45;filter&#45;types.d.mts&#45;&gt;filter&#45;types.d.mts -->
<g id="edge35" class="edge">
<title>strict&#45;filter&#45;types.d.mts&#45;&gt;filter&#45;types.d.mts</title>
<path fill="none" stroke="#000000" stroke-opacity="0.200000" d="M718.02,-231.75C739.41,-231.75 759.25,-231.75 759.25,-231.75 759.25,-231.75 759.25,-198.54 759.25,-198.54"/>
<polygon fill="none" stroke="#000000" stroke-opacity="0.200000" points="761.35,-198.54 759.25,-192.54 757.15,-198.54 761.35,-198.54"/>
</g>
<!-- strict&#45;options.d.mts -->
<g id="node26" class="node">
<title>strict&#45;options.d.mts</title>
<g id="a_node26"><a xlink:href="https://github.com/sverweij/dependency-cruiser/blob/main/strict-options.d.mts" xlink:title="strict&#45;options.d.mts">
<path fill="#ddfeff" stroke="black" d="M433.21,-279.75C433.21,-279.75 353.29,-279.75 353.29,-279.75 350.33,-279.75 347.38,-276.79 347.38,-273.83 347.38,-273.83 347.38,-267.92 347.38,-267.92 347.38,-264.96 350.33,-262 353.29,-262 353.29,-262 433.21,-262 433.21,-262 436.17,-262 439.12,-264.96 439.12,-267.92 439.12,-267.92 439.12,-273.83 439.12,-273.83 439.12,-276.79 436.17,-279.75 433.21,-279.75"/>
<text text-anchor="middle" x="393.25" y="-267.2" font-family="Helvetica,sans-Serif" font-size="9.00">strict&#45;options.d.mts</text>
</a>
</g>
</g>
<!-- strict&#45;options.d.mts&#45;&gt;cache&#45;options.d.mts -->
<g id="edge37" class="edge">
<title>strict&#45;options.d.mts&#45;&gt;cache&#45;options.d.mts</title>
<path fill="none" stroke="#000000" stroke-opacity="0.200000" d="M439.27,-266.3C482.71,-266.3 541.25,-266.3 541.25,-266.3 541.25,-266.3 541.25,-213.75 541.25,-213.75 541.25,-213.75 609.11,-213.75 609.11,-213.75"/>
<polygon fill="none" stroke="#000000" stroke-opacity="0.200000" points="609.11,-215.85 615.11,-213.75 609.11,-211.65 609.11,-215.85"/>
</g>
<!-- strict&#45;options.d.mts&#45;&gt;options.d.mts -->
<g id="edge38" class="edge">
<title>strict&#45;options.d.mts&#45;&gt;options.d.mts</title>
<path fill="none" stroke="#000000" stroke-opacity="0.200000" d="M439.59,-264.86C479.68,-264.86 531.25,-264.86 531.25,-264.86 531.25,-264.86 531.25,-183.43 531.25,-183.43"/>
<polygon fill="none" stroke="#000000" stroke-opacity="0.200000" points="533.35,-183.43 531.25,-177.43 529.15,-183.43 533.35,-183.43"/>
</g>
<!-- strict&#45;options.d.mts&#45;&gt;shared&#45;types.d.mts -->
<g id="edge39" class="edge">
<title>strict&#45;options.d.mts&#45;&gt;shared&#45;types.d.mts</title>
<path fill="none" stroke="#000000" stroke-opacity="0.200000" d="M439.17,-263.43C444.59,-263.43 448.25,-263.43 448.25,-263.43 448.25,-263.43 448.25,-227 448.25,-227 448.25,-227 936.4,-227 936.4,-227"/>
<polygon fill="none" stroke="#000000" stroke-opacity="0.200000" points="936.4,-229.1 942.4,-227 936.4,-224.9 936.4,-229.1"/>
</g>
<!-- strict&#45;options.d.mts&#45;&gt;strict&#45;filter&#45;types.d.mts -->
<g id="edge40" class="edge">
<title>strict&#45;options.d.mts&#45;&gt;strict&#45;filter&#45;types.d.mts</title>
<path fill="none" stroke="#000000" stroke-opacity="0.200000" d="M439.59,-267.73C506.51,-267.73 622.25,-267.73 622.25,-267.73 622.25,-267.73 622.25,-255.52 622.25,-255.52"/>
<polygon fill="none" stroke="#000000" stroke-opacity="0.200000" points="624.35,-255.52 622.25,-249.52 620.15,-255.52 624.35,-255.52"/>
</g>
<!-- strict&#45;rule&#45;set.d.mts -->
<g id="node27" class="node">
<title>strict&#45;rule&#45;set.d.mts</title>
<g id="a_node27"><a xlink:href="https://github.com/sverweij/dependency-cruiser/blob/main/strict-rule-set.d.mts" xlink:title="strict&#45;rule&#45;set.d.mts">
<path fill="#ddfeff" stroke="black" d="M586.46,-335.75C586.46,-335.75 505.79,-335.75 505.79,-335.75 502.83,-335.75 499.88,-332.79 499.88,-329.83 499.88,-329.83 499.88,-323.92 499.88,-323.92 499.88,-320.96 502.83,-318 505.79,-318 505.79,-318 586.46,-318 586.46,-318 589.42,-318 592.38,-320.96 592.38,-323.92 592.38,-323.92 592.38,-329.83 592.38,-329.83 592.38,-332.79 589.42,-335.75 586.46,-335.75"/>
<text text-anchor="middle" x="546.12" y="-323.2" font-family="Helvetica,sans-Serif" font-size="9.00">strict&#45;rule&#45;set.d.mts</text>
</a>
</g>
</g>
<!-- strict&#45;options.d.mts&#45;&gt;strict&#45;rule&#45;set.d.mts -->
<g id="edge41" class="edge">
<title>strict&#45;options.d.mts&#45;&gt;strict&#45;rule&#45;set.d.mts</title>
<path fill="none" stroke="#000000" stroke-opacity="0.200000" d="M439.45,-274.89C470.3,-274.89 505.25,-274.89 505.25,-274.89 505.25,-274.89 505.25,-310.31 505.25,-310.31"/>
<polygon fill="none" stroke="#000000" stroke-opacity="0.200000" points="503.15,-310.31 505.25,-316.31 507.35,-310.31 503.15,-310.31"/>
</g>
<!-- strict&#45;rule&#45;set.d.mts&#45;&gt;rule&#45;set.d.mts -->
<g id="edge44" class="edge">
<title>strict&#45;rule&#45;set.d.mts&#45;&gt;rule&#45;set.d.mts</title>
<path fill="none" stroke="#000000" stroke-opacity="0.200000" d="M586.25,-317.6C586.25,-303.01 586.25,-276.32 586.25,-276.32 586.25,-276.32 622.74,-276.32 622.74,-276.32"/>
<polygon fill="none" stroke="#000000" stroke-opacity="0.200000" points="622.74,-278.42 628.74,-276.32 622.74,-274.22 622.74,-278.42"/>
</g>
<!-- strict&#45;rule&#45;set.d.mts&#45;&gt;shared&#45;types.d.mts -->
<g id="edge45" class="edge">
<title>strict&#45;rule&#45;set.d.mts&#45;&gt;shared&#45;types.d.mts</title>
<path fill="none" stroke="#000000" stroke-opacity="0.200000" d="M584.25,-317.75C584.25,-293.27 584.25,-228 584.25,-228 584.25,-228 936.1,-228 936.1,-228"/>
<polygon fill="none" stroke="#000000" stroke-opacity="0.200000" points="936.1,-230.1 942.1,-228 936.1,-225.9 936.1,-230.1"/>
</g>
<!-- strict&#45;restrictions.d.mts -->
<g id="node28" class="node">
<title>strict&#45;restrictions.d.mts</title>
<g id="a_node28"><a xlink:href="https://github.com/sverweij/dependency-cruiser/blob/main/strict-restrictions.d.mts" xlink:title="strict&#45;restrictions.d.mts">
<path fill="#ddfeff" stroke="black" d="M712.96,-307.75C712.96,-307.75 618.79,-307.75 618.79,-307.75 615.83,-307.75 612.88,-304.79 612.88,-301.83 612.88,-301.83 612.88,-295.92 612.88,-295.92 612.88,-292.96 615.83,-290 618.79,-290 618.79,-290 712.96,-290 712.96,-290 715.92,-290 718.88,-292.96 718.88,-295.92 718.88,-295.92 718.88,-301.83 718.88,-301.83 718.88,-304.79 715.92,-307.75 712.96,-307.75"/>
<text text-anchor="middle" x="665.88" y="-295.2" font-family="Helvetica,sans-Serif" font-size="9.00">strict&#45;restrictions.d.mts</text>
</a>
</g>
</g>
<!-- strict&#45;rule&#45;set.d.mts&#45;&gt;strict&#45;restrictions.d.mts -->
<g id="edge46" class="edge">
<title>strict&#45;rule&#45;set.d.mts&#45;&gt;strict&#45;restrictions.d.mts</title>
<path fill="none" stroke="#000000" stroke-opacity="0.200000" d="M589.25,-317.71C589.25,-309.54 589.25,-298.88 589.25,-298.88 589.25,-298.88 605.14,-298.88 605.14,-298.88"/>
<polygon fill="none" stroke="#000000" stroke-opacity="0.200000" points="605.14,-300.98 611.14,-298.88 605.14,-296.78 605.14,-300.98"/>
</g>
<!-- strict&#45;restrictions.d.mts&#45;&gt;shared&#45;types.d.mts -->
<g id="edge43" class="edge">
<title>strict&#45;restrictions.d.mts&#45;&gt;shared&#45;types.d.mts</title>
<path fill="none" stroke="#000000" stroke-opacity="0.200000" d="M719.24,-298.88C811.55,-298.88 991.25,-298.88 991.25,-298.88 991.25,-298.88 991.25,-246.69 991.25,-246.69"/>
<polygon fill="none" stroke="#000000" stroke-opacity="0.200000" points="993.35,-246.69 991.25,-240.69 989.15,-246.69 993.35,-246.69"/>
</g>
<!-- strict&#45;restrictions.d.mts&#45;&gt;restrictions.d.mts -->
<g id="edge42" class="edge">
<title>strict&#45;restrictions.d.mts&#45;&gt;restrictions.d.mts</title>
<path fill="none" stroke="#000000" stroke-opacity="0.200000" d="M710.25,-289.54C710.25,-282.42 710.25,-273.81 710.25,-273.81 710.25,-273.81 729.76,-273.81 729.76,-273.81"/>
<polygon fill="none" stroke="#000000" stroke-opacity="0.200000" points="729.76,-275.91 735.76,-273.81 729.76,-271.71 729.76,-275.91"/>
</g>
</g>
</svg>
