<?xml version="1.0" encoding="UTF-8" standalone="no"?>
<!DOCTYPE svg PUBLIC "-//W3C//DTD SVG 1.1//EN"
 "http://www.w3.org/Graphics/SVG/1.1/DTD/svg11.dtd">
<!-- Generated by graphviz version 2.49.3 (20211023.0002)
 -->
<!-- Title: dependency&#45;cruiser output Pages: 1 -->
<svg width="602pt" height="208pt"
 viewBox="0.00 0.00 602.00 208.00" xmlns="http://www.w3.org/2000/svg" xmlns:xlink="http://www.w3.org/1999/xlink">
<g id="graph0" class="graph" transform="scale(1 1) rotate(0) translate(4 204)">
<title>dependency&#45;cruiser output</title>
<polygon fill="white" stroke="transparent" points="-4,4 -4,-204 598,-204 598,4 -4,4"/>
<g id="clust1" class="cluster">
<title>cluster_node_modules</title>
<path fill="#ffffff" stroke="black" stroke-width="2" d="M132,-140C132,-140 212,-140 212,-140 218,-140 224,-146 224,-152 224,-152 224,-180 224,-180 224,-186 218,-192 212,-192 212,-192 132,-192 132,-192 126,-192 120,-186 120,-180 120,-180 120,-152 120,-152 120,-146 126,-140 132,-140"/>
<text text-anchor="middle" x="172" y="-180.8" font-family="Helvetica,sans-Serif" font-weight="bold" font-size="9.00">node_modules</text>
</g>
<!-- baseline&#45;violations.d.ts -->
<g id="node1" class="node">
<title>baseline&#45;violations.d.ts</title>
<g id="a_node1"><a xlink:href="https://github.com/sverweij/dependency-cruiser/blob/develop/baseline-violations.d.ts" xlink:title="baseline&#45;violations.d.ts">
<path fill="#ddfeff" stroke="black" d="M104,-76C104,-76 8,-76 8,-76 5,-76 2,-73 2,-70 2,-70 2,-64 2,-64 2,-61 5,-58 8,-58 8,-58 104,-58 104,-58 107,-58 110,-61 110,-64 110,-64 110,-70 110,-70 110,-73 107,-76 104,-76"/>
<text text-anchor="middle" x="56" y="-64.8" font-family="Helvetica,sans-Serif" font-size="9.00">baseline&#45;violations.d.ts</text>
</a>
</g>
</g>
<!-- cruise&#45;result.d.ts -->
<g id="node2" class="node">
<title>cruise&#45;result.d.ts</title>
<g id="a_node2"><a xlink:href="https://github.com/sverweij/dependency-cruiser/blob/develop/cruise-result.d.ts" xlink:title="cruise&#45;result.d.ts">
<path fill="#ddfeff" stroke="black" d="M207.5,-36C207.5,-36 136.5,-36 136.5,-36 133.5,-36 130.5,-33 130.5,-30 130.5,-30 130.5,-24 130.5,-24 130.5,-21 133.5,-18 136.5,-18 136.5,-18 207.5,-18 207.5,-18 210.5,-18 213.5,-21 213.5,-24 213.5,-24 213.5,-30 213.5,-30 213.5,-33 210.5,-36 207.5,-36"/>
<text text-anchor="middle" x="172" y="-24.8" font-family="Helvetica,sans-Serif" font-size="9.00">cruise&#45;result.d.ts</text>
</a>
</g>
</g>
<!-- baseline&#45;violations.d.ts&#45;&gt;cruise&#45;result.d.ts -->
<g id="edge1" class="edge">
<title>baseline&#45;violations.d.ts&#45;&gt;cruise&#45;result.d.ts</title>
<g id="a_edge1"><a xlink:title="no&#45;circular">
<path fill="none" stroke="red" stroke-width="2" d="M110.08,-62C117.7,-62 123,-62 123,-62 123,-62 123,-31.5 123,-31.5 123,-31.5 123.72,-31.5 123.72,-31.5"/>
<polygon fill="red" stroke="red" stroke-width="2" points="124.23,-33.6 130.23,-31.5 124.23,-29.4 124.23,-33.6"/>
<polyline fill="none" stroke="red" stroke-width="2" points="124.23,-31.5 121.23,-31.5 "/>
<ellipse fill="none" stroke="red" stroke-width="2" cx="118.83" cy="-31.5" rx="2.4" ry="2.4"/>
</a>
</g>
<text text-anchor="middle" x="101.5" y="-45.65" font-family="Helvetica,sans-Serif" font-size="9.00" fill="red">no&#45;circular</text>
</g>
<!-- options.d.ts -->
<g id="node4" class="node">
<title>options.d.ts</title>
<g id="a_node4"><a xlink:href="https://github.com/sverweij/dependency-cruiser/blob/develop/options.d.ts" xlink:title="options.d.ts">
<path fill="#ddfeff" stroke="black" d="M289,-94C289,-94 238,-94 238,-94 235,-94 232,-91 232,-88 232,-88 232,-82 232,-82 232,-79 235,-76 238,-76 238,-76 289,-76 289,-76 292,-76 295,-79 295,-82 295,-82 295,-88 295,-88 295,-91 292,-94 289,-94"/>
<text text-anchor="middle" x="263.5" y="-82.8" font-family="Helvetica,sans-Serif" font-size="9.00">options.d.ts</text>
</a>
</g>
</g>
<!-- cruise&#45;result.d.ts&#45;&gt;options.d.ts -->
<g id="edge4" class="edge">
<title>cruise&#45;result.d.ts&#45;&gt;options.d.ts</title>
<g id="a_edge4"><a xlink:title="no&#45;circular">
<path fill="none" stroke="red" stroke-width="2" d="M213.78,-29.8C241.95,-29.8 274,-29.8 274,-29.8 274,-29.8 274,-62.08 274,-62.08"/>
<polygon fill="red" stroke="red" stroke-width="2" points="271.9,-69.88 274,-75.88 276.1,-69.88 271.9,-69.88"/>
<polyline fill="none" stroke="red" stroke-width="2" points="274,-69.88 274,-66.88 "/>
<ellipse fill="none" stroke="red" stroke-width="2" cx="274" cy="-64.48" rx="2.4" ry="2.4"/>
</a>
</g>
<text text-anchor="middle" x="238.53" y="-22.6" font-family="Helvetica,sans-Serif" font-size="9.00" fill="red">no&#45;circular</text>
</g>
<!-- rule&#45;set.d.ts -->
<g id="node5" class="node">
<title>rule&#45;set.d.ts</title>
<g id="a_node5"><a xlink:href="https://github.com/sverweij/dependency-cruiser/blob/develop/rule-set.d.ts" xlink:title="rule&#45;set.d.ts">
<path fill="#ddfeff" stroke="black" d="M382.5,-53C382.5,-53 330.5,-53 330.5,-53 327.5,-53 324.5,-50 324.5,-47 324.5,-47 324.5,-41 324.5,-41 324.5,-38 327.5,-35 330.5,-35 330.5,-35 382.5,-35 382.5,-35 385.5,-35 388.5,-38 388.5,-41 388.5,-41 388.5,-47 388.5,-47 388.5,-50 385.5,-53 382.5,-53"/>
<text text-anchor="middle" x="356.5" y="-41.8" font-family="Helvetica,sans-Serif" font-size="9.00">rule&#45;set.d.ts</text>
</a>
</g>
</g>
<!-- cruise&#45;result.d.ts&#45;&gt;rule&#45;set.d.ts -->
<g id="edge5" class="edge">
<title>cruise&#45;result.d.ts&#45;&gt;rule&#45;set.d.ts</title>
<path fill="none" stroke="#000000" stroke-width="2" stroke-opacity="0.200000" d="M213.68,-27.2C265.15,-27.2 346,-27.2 346,-27.2 346,-27.2 346,-28.81 346,-28.81"/>
<polygon fill="#000000" fill-opacity="0.200000" stroke="#000000" stroke-width="2" stroke-opacity="0.200000" points="343.9,-28.81 346,-34.81 348.1,-28.81 343.9,-28.81"/>
</g>
<!-- shared&#45;types.d.ts -->
<g id="node6" class="node">
<title>shared&#45;types.d.ts</title>
<g id="a_node6"><a xlink:href="https://github.com/sverweij/dependency-cruiser/blob/develop/shared-types.d.ts" xlink:title="shared&#45;types.d.ts">
<path fill="#ddfeff" stroke="black" d="M588,-54C588,-54 514,-54 514,-54 511,-54 508,-51 508,-48 508,-48 508,-42 508,-42 508,-39 511,-36 514,-36 514,-36 588,-36 588,-36 591,-36 594,-39 594,-42 594,-42 594,-48 594,-48 594,-51 591,-54 588,-54"/>
<text text-anchor="middle" x="551" y="-42.8" font-family="Helvetica,sans-Serif" font-size="9.00">shared&#45;types.d.ts</text>
</a>
</g>
</g>
<!-- cruise&#45;result.d.ts&#45;&gt;shared&#45;types.d.ts -->
<g id="edge6" class="edge">
<title>cruise&#45;result.d.ts&#45;&gt;shared&#45;types.d.ts</title>
<path fill="none" stroke="#000000" stroke-width="2" stroke-opacity="0.200000" d="M213.53,-24.6C278.54,-24.6 397,-24.6 397,-24.6 397,-24.6 397,-45.2 397,-45.2 397,-45.2 501.69,-45.2 501.69,-45.2"/>
<polygon fill="#000000" fill-opacity="0.200000" stroke="#000000" stroke-width="2" stroke-opacity="0.200000" points="501.69,-47.3 507.69,-45.2 501.69,-43.1 501.69,-47.3"/>
</g>
<!-- configuration.d.ts -->
<g id="node3" class="node">
<title>configuration.d.ts</title>
<g id="a_node3"><a xlink:href="https://github.com/sverweij/dependency-cruiser/blob/develop/configuration.d.ts" xlink:title="configuration.d.ts">
<path fill="#ddfeff" stroke="black" d="M208.5,-66C208.5,-66 135.5,-66 135.5,-66 132.5,-66 129.5,-63 129.5,-60 129.5,-60 129.5,-54 129.5,-54 129.5,-51 132.5,-48 135.5,-48 135.5,-48 208.5,-48 208.5,-48 211.5,-48 214.5,-51 214.5,-54 214.5,-54 214.5,-60 214.5,-60 214.5,-63 211.5,-66 208.5,-66"/>
<text text-anchor="middle" x="172" y="-54.8" font-family="Helvetica,sans-Serif" font-size="9.00">configuration.d.ts</text>
</a>
</g>
</g>
<!-- configuration.d.ts&#45;&gt;options.d.ts -->
<g id="edge2" class="edge">
<title>configuration.d.ts&#45;&gt;options.d.ts</title>
<path fill="none" stroke="#000000" stroke-width="2" stroke-opacity="0.200000" d="M214.87,-62C234.3,-62 253,-62 253,-62 253,-62 253,-69.91 253,-69.91"/>
<polygon fill="#000000" fill-opacity="0.200000" stroke="#000000" stroke-width="2" stroke-opacity="0.200000" points="250.9,-69.91 253,-75.91 255.1,-69.91 250.9,-69.91"/>
</g>
<!-- configuration.d.ts&#45;&gt;rule&#45;set.d.ts -->
<g id="edge3" class="edge">
<title>configuration.d.ts&#45;&gt;rule&#45;set.d.ts</title>
<path fill="none" stroke="#000000" stroke-width="2" stroke-opacity="0.200000" d="M214.57,-58C266.08,-58 346,-58 346,-58 346,-58 346,-57.53 346,-57.53"/>
<polygon fill="#000000" fill-opacity="0.200000" stroke="#000000" stroke-width="2" stroke-opacity="0.200000" points="348.1,-59.26 346,-53.26 343.9,-59.26 348.1,-59.26"/>
</g>
<!-- options.d.ts&#45;&gt;baseline&#45;violations.d.ts -->
<g id="edge13" class="edge">
<title>options.d.ts&#45;&gt;baseline&#45;violations.d.ts</title>
<g id="a_edge13"><a xlink:title="no&#45;circular">
<path fill="none" stroke="red" stroke-width="2" d="M231.98,-88C183.96,-88 98,-88 98,-88 98,-88 98,-86.8 98,-86.8"/>
<polygon fill="red" stroke="red" stroke-width="2" points="100.1,-82.03 98,-76.03 95.9,-82.03 100.1,-82.03"/>
<polyline fill="none" stroke="red" stroke-width="2" points="98,-82.03 98,-85.03 "/>
<ellipse fill="none" stroke="red" stroke-width="2" cx="98" cy="-87.43" rx="2.4" ry="2.4"/>
</a>
</g>
<text text-anchor="middle" x="142.89" y="-80.8" font-family="Helvetica,sans-Serif" font-size="9.00" fill="red">no&#45;circular</text>
</g>
<!-- options.d.ts&#45;&gt;rule&#45;set.d.ts -->
<g id="edge16" class="edge">
<title>options.d.ts&#45;&gt;rule&#45;set.d.ts</title>
<path fill="none" stroke="#000000" stroke-width="2" stroke-opacity="0.200000" d="M295.14,-79.6C325.89,-79.6 368,-79.6 368,-79.6 368,-79.6 368,-59.35 368,-59.35"/>
<polygon fill="#000000" fill-opacity="0.200000" stroke="#000000" stroke-width="2" stroke-opacity="0.200000" points="370.1,-59.35 368,-53.35 365.9,-59.35 370.1,-59.35"/>
</g>
<!-- options.d.ts&#45;&gt;shared&#45;types.d.ts -->
<g id="edge17" class="edge">
<title>options.d.ts&#45;&gt;shared&#45;types.d.ts</title>
<path fill="none" stroke="#000000" stroke-width="2" stroke-opacity="0.200000" d="M295.09,-83.2C369.77,-83.2 551,-83.2 551,-83.2 551,-83.2 551,-60.25 551,-60.25"/>
<polygon fill="#000000" fill-opacity="0.200000" stroke="#000000" stroke-width="2" stroke-opacity="0.200000" points="553.1,-60.25 551,-54.25 548.9,-60.25 553.1,-60.25"/>
</g>
<!-- filter&#45;types.d.ts -->
<g id="node8" class="node">
<title>filter&#45;types.d.ts</title>
<g id="a_node8"><a xlink:href="https://github.com/sverweij/dependency-cruiser/blob/develop/filter-types.d.ts" xlink:title="filter&#45;types.d.ts">
<path fill="#ddfeff" stroke="black" d="M488,-122C488,-122 425,-122 425,-122 422,-122 419,-119 419,-116 419,-116 419,-110 419,-110 419,-107 422,-104 425,-104 425,-104 488,-104 488,-104 491,-104 494,-107 494,-110 494,-110 494,-116 494,-116 494,-119 491,-122 488,-122"/>
<text text-anchor="middle" x="456.5" y="-110.8" font-family="Helvetica,sans-Serif" font-size="9.00">filter&#45;types.d.ts</text>
</a>
</g>
</g>
<!-- options.d.ts&#45;&gt;filter&#45;types.d.ts -->
<g id="edge14" class="edge">
<title>options.d.ts&#45;&gt;filter&#45;types.d.ts</title>
<path fill="none" stroke="#000000" stroke-width="2" stroke-opacity="0.200000" d="M295.1,-86.8C345.39,-86.8 438,-86.8 438,-86.8 438,-86.8 438,-97.84 438,-97.84"/>
<polygon fill="#000000" fill-opacity="0.200000" stroke="#000000" stroke-width="2" stroke-opacity="0.200000" points="435.9,-97.84 438,-103.84 440.1,-97.84 435.9,-97.84"/>
</g>
<!-- reporter&#45;options.d.ts -->
<g id="node11" class="node">
<title>reporter&#45;options.d.ts</title>
<g id="a_node11"><a xlink:href="https://github.com/sverweij/dependency-cruiser/blob/develop/reporter-options.d.ts" xlink:title="reporter&#45;options.d.ts">
<path fill="#ddfeff" stroke="black" d="M399,-122C399,-122 314,-122 314,-122 311,-122 308,-119 308,-116 308,-116 308,-110 308,-110 308,-107 311,-104 314,-104 314,-104 399,-104 399,-104 402,-104 405,-107 405,-110 405,-110 405,-116 405,-116 405,-119 402,-122 399,-122"/>
<text text-anchor="middle" x="356.5" y="-110.8" font-family="Helvetica,sans-Serif" font-size="9.00">reporter&#45;options.d.ts</text>
</a>
</g>
</g>
<!-- options.d.ts&#45;&gt;reporter&#45;options.d.ts -->
<g id="edge15" class="edge">
<title>options.d.ts&#45;&gt;reporter&#45;options.d.ts</title>
<path fill="none" stroke="#000000" stroke-width="2" stroke-opacity="0.200000" d="M295.24,-90.4C306.76,-90.4 317,-90.4 317,-90.4 317,-90.4 317,-97.81 317,-97.81"/>
<polygon fill="#000000" fill-opacity="0.200000" stroke="#000000" stroke-width="2" stroke-opacity="0.200000" points="314.9,-97.81 317,-103.81 319.1,-97.81 314.9,-97.81"/>
</g>
<!-- rule&#45;set.d.ts&#45;&gt;shared&#45;types.d.ts -->
<g id="edge22" class="edge">
<title>rule&#45;set.d.ts&#45;&gt;shared&#45;types.d.ts</title>
<path fill="none" stroke="#000000" stroke-width="2" stroke-opacity="0.200000" d="M388.62,-47.8C388.62,-47.8 501.9,-47.8 501.9,-47.8"/>
<polygon fill="#000000" fill-opacity="0.200000" stroke="#000000" stroke-width="2" stroke-opacity="0.200000" points="501.9,-49.9 507.9,-47.8 501.9,-45.7 501.9,-49.9"/>
</g>
<!-- restrictions.d.ts -->
<g id="node13" class="node">
<title>restrictions.d.ts</title>
<g id="a_node13"><a xlink:href="https://github.com/sverweij/dependency-cruiser/blob/develop/restrictions.d.ts" xlink:title="restrictions.d.ts">
<path fill="#ddfeff" stroke="black" d="M489,-40C489,-40 424,-40 424,-40 421,-40 418,-37 418,-34 418,-34 418,-28 418,-28 418,-25 421,-22 424,-22 424,-22 489,-22 489,-22 492,-22 495,-25 495,-28 495,-28 495,-34 495,-34 495,-37 492,-40 489,-40"/>
<text text-anchor="middle" x="456.5" y="-28.8" font-family="Helvetica,sans-Serif" font-size="9.00">restrictions.d.ts</text>
</a>
</g>
</g>
<!-- rule&#45;set.d.ts&#45;&gt;restrictions.d.ts -->
<g id="edge21" class="edge">
<title>rule&#45;set.d.ts&#45;&gt;restrictions.d.ts</title>
<path fill="none" stroke="#000000" stroke-width="2" stroke-opacity="0.200000" d="M368,-34.64C368,-33.32 368,-32.4 368,-32.4 368,-32.4 411.94,-32.4 411.94,-32.4"/>
<polygon fill="#000000" fill-opacity="0.200000" stroke="#000000" stroke-width="2" stroke-opacity="0.200000" points="411.94,-34.5 417.94,-32.4 411.94,-30.3 411.94,-34.5"/>
</g>
<!-- dependency&#45;cruiser.d.ts -->
<g id="node7" class="node">
<title>dependency&#45;cruiser.d.ts</title>
<g id="a_node7"><a xlink:href="https://github.com/sverweij/dependency-cruiser/blob/develop/dependency-cruiser.d.ts" xlink:title="dependency&#45;cruiser.d.ts">
<path fill="#ddfeff" stroke="black" d="M106,-36C106,-36 6,-36 6,-36 3,-36 0,-33 0,-30 0,-30 0,-24 0,-24 0,-21 3,-18 6,-18 6,-18 106,-18 106,-18 109,-18 112,-21 112,-24 112,-24 112,-30 112,-30 112,-33 109,-36 106,-36"/>
<text text-anchor="middle" x="56" y="-24.8" font-family="Helvetica,sans-Serif" font-size="9.00">dependency&#45;cruiser.d.ts</text>
</a>
</g>
</g>
<!-- dependency&#45;cruiser.d.ts&#45;&gt;cruise&#45;result.d.ts -->
<g id="edge8" class="edge">
<title>dependency&#45;cruiser.d.ts&#45;&gt;cruise&#45;result.d.ts</title>
<path fill="none" stroke="#000000" stroke-width="2" stroke-opacity="0.200000" d="M112.3,-27C112.3,-27 124.46,-27 124.46,-27"/>
<polygon fill="#000000" fill-opacity="0.200000" stroke="#000000" stroke-width="2" stroke-opacity="0.200000" points="124.46,-29.1 130.46,-27 124.46,-24.9 124.46,-29.1"/>
</g>
<!-- dependency&#45;cruiser.d.ts&#45;&gt;configuration.d.ts -->
<g id="edge7" class="edge">
<title>dependency&#45;cruiser.d.ts&#45;&gt;configuration.d.ts</title>
<path fill="none" stroke="#000000" stroke-width="2" stroke-opacity="0.200000" d="M74,-36.09C74,-43.59 74,-53 74,-53 74,-53 123.3,-53 123.3,-53"/>
<polygon fill="#000000" fill-opacity="0.200000" stroke="#000000" stroke-width="2" stroke-opacity="0.200000" points="123.3,-55.1 129.3,-53 123.3,-50.9 123.3,-55.1"/>
</g>
<!-- dependency&#45;cruiser.d.ts&#45;&gt;options.d.ts -->
<g id="edge9" class="edge">
<title>dependency&#45;cruiser.d.ts&#45;&gt;options.d.ts</title>
<path fill="none" stroke="#000000" stroke-width="2" stroke-opacity="0.200000" d="M112.28,-22.5C115.82,-22.5 118,-22.5 118,-22.5 118,-22.5 118,-82 118,-82 118,-82 225.93,-82 225.93,-82"/>
<polygon fill="#000000" fill-opacity="0.200000" stroke="#000000" stroke-width="2" stroke-opacity="0.200000" points="225.93,-84.1 231.93,-82 225.93,-79.9 225.93,-84.1"/>
</g>
<!-- dependency&#45;cruiser.d.ts&#45;&gt;rule&#45;set.d.ts -->
<g id="edge10" class="edge">
<title>dependency&#45;cruiser.d.ts&#45;&gt;rule&#45;set.d.ts</title>
<path fill="none" stroke="#000000" stroke-width="2" stroke-opacity="0.200000" d="M38,-36.24C38,-39.33 38,-42 38,-42 38,-42 318.21,-42 318.21,-42"/>
<polygon fill="#000000" fill-opacity="0.200000" stroke="#000000" stroke-width="2" stroke-opacity="0.200000" points="318.21,-44.1 324.21,-42 318.21,-39.9 318.21,-44.1"/>
</g>
<!-- dependency&#45;cruiser.d.ts&#45;&gt;shared&#45;types.d.ts -->
<g id="edge11" class="edge">
<title>dependency&#45;cruiser.d.ts&#45;&gt;shared&#45;types.d.ts</title>
<path fill="none" stroke="#000000" stroke-width="2" stroke-opacity="0.200000" d="M56,-17.86C56,-10.03 56,0 56,0 56,0 551,0 551,0 551,0 551,-29.89 551,-29.89"/>
<polygon fill="#000000" fill-opacity="0.200000" stroke="#000000" stroke-width="2" stroke-opacity="0.200000" points="548.9,-29.89 551,-35.89 553.1,-29.89 548.9,-29.89"/>
</g>
<!-- filter&#45;types.d.ts&#45;&gt;shared&#45;types.d.ts -->
<g id="edge12" class="edge">
<title>filter&#45;types.d.ts&#45;&gt;shared&#45;types.d.ts</title>
<path fill="none" stroke="#000000" stroke-width="2" stroke-opacity="0.200000" d="M476,-103.76C476,-86.35 476,-50.4 476,-50.4 476,-50.4 501.81,-50.4 501.81,-50.4"/>
<polygon fill="#000000" fill-opacity="0.200000" stroke="#000000" stroke-width="2" stroke-opacity="0.200000" points="501.81,-52.5 507.81,-50.4 501.81,-48.3 501.81,-52.5"/>
</g>
<!-- init&#45;config.d.ts -->
<g id="node9" class="node">
<title>init&#45;config.d.ts</title>
<g id="a_node9"><a xlink:href="https://github.com/sverweij/dependency-cruiser/blob/develop/init-config.d.ts" xlink:title="init&#45;config.d.ts">
<path fill="#ccffcc" stroke="black" d="M86,-126C86,-126 26,-126 26,-126 23,-126 20,-123 20,-120 20,-120 20,-114 20,-114 20,-111 23,-108 26,-108 26,-108 86,-108 86,-108 89,-108 92,-111 92,-114 92,-114 92,-120 92,-120 92,-123 89,-126 86,-126"/>
<text text-anchor="middle" x="56" y="-114.8" font-family="Helvetica,sans-Serif" font-size="9.00">init&#45;config.d.ts</text>
</a>
</g>
</g>
<!-- node_modules/enhanced&#45;resolve -->
<g id="node10" class="node">
<title>node_modules/enhanced&#45;resolve</title>
<g id="a_node10"><a xlink:href="https://github.com/sverweij/dependency-cruiser/blob/develop/node_modules/enhanced-resolve" xlink:title="enhanced&#45;resolve">
<polygon fill="#c40b0a" fill-opacity="0.101961" stroke="black" points="216,-166 130,-166 128,-164 128,-148 214,-148 216,-150 216,-166"/>
<polyline fill="none" stroke="black" points="214,-164 128,-164 "/>
<polyline fill="none" stroke="black" points="214,-164 214,-148 "/>
<polyline fill="none" stroke="black" points="214,-164 216,-166 "/>
<text text-anchor="middle" x="172" y="-154.8" font-family="Helvetica,sans-Serif" font-size="9.00" fill="#c40b0a">enhanced&#45;resolve</text>
</a>
</g>
</g>
<!-- reporter&#45;options.d.ts&#45;&gt;filter&#45;types.d.ts -->
<g id="edge18" class="edge">
<title>reporter&#45;options.d.ts&#45;&gt;filter&#45;types.d.ts</title>
<path fill="none" stroke="#000000" stroke-width="2" stroke-opacity="0.200000" d="M405.04,-113C405.04,-113 412.96,-113 412.96,-113"/>
<polygon fill="#000000" fill-opacity="0.200000" stroke="#000000" stroke-width="2" stroke-opacity="0.200000" points="412.96,-115.1 418.96,-113 412.96,-110.9 412.96,-115.1"/>
</g>
<!-- resolve&#45;options.d.ts -->
<g id="node12" class="node">
<title>resolve&#45;options.d.ts</title>
<g id="a_node12"><a xlink:href="https://github.com/sverweij/dependency-cruiser/blob/develop/resolve-options.d.ts" xlink:title="resolve&#45;options.d.ts">
<path fill="#ddfeff" stroke="black" d="M97.5,-166C97.5,-166 14.5,-166 14.5,-166 11.5,-166 8.5,-163 8.5,-160 8.5,-160 8.5,-154 8.5,-154 8.5,-151 11.5,-148 14.5,-148 14.5,-148 97.5,-148 97.5,-148 100.5,-148 103.5,-151 103.5,-154 103.5,-154 103.5,-160 103.5,-160 103.5,-163 100.5,-166 97.5,-166"/>
<text text-anchor="middle" x="56" y="-154.8" font-family="Helvetica,sans-Serif" font-size="9.00">resolve&#45;options.d.ts</text>
</a>
</g>
</g>
<!-- resolve&#45;options.d.ts&#45;&gt;node_modules/enhanced&#45;resolve -->
<g id="edge19" class="edge">
<title>resolve&#45;options.d.ts&#45;&gt;node_modules/enhanced&#45;resolve</title>
<path fill="none" stroke="#000000" stroke-opacity="0.200000" d="M103.52,-157C103.52,-157 121.73,-157 121.73,-157"/>
<polygon fill="#000000" fill-opacity="0.200000" stroke="#000000" stroke-opacity="0.200000" points="121.73,-159.1 127.73,-157 121.73,-154.9 121.73,-159.1"/>
</g>
<!-- restrictions.d.ts&#45;&gt;shared&#45;types.d.ts -->
<g id="edge20" class="edge">
<title>restrictions.d.ts&#45;&gt;shared&#45;types.d.ts</title>
<path fill="none" stroke="#000000" stroke-width="2" stroke-opacity="0.200000" d="M457,-40.36C457,-41.68 457,-42.6 457,-42.6 457,-42.6 501.85,-42.6 501.85,-42.6"/>
<polygon fill="#000000" fill-opacity="0.200000" stroke="#000000" stroke-width="2" stroke-opacity="0.200000" points="501.85,-44.7 507.85,-42.6 501.85,-40.5 501.85,-44.7"/>
</g>
</g>
</svg>
