<?xml version="1.0" encoding="UTF-8" standalone="no"?>
<!DOCTYPE svg PUBLIC "-//W3C//DTD SVG 1.1//EN"
 "http://www.w3.org/Graphics/SVG/1.1/DTD/svg11.dtd">
<!-- Generated by graphviz version 8.0.1 (20230327.1645)
 -->
<!-- Title: dependency&#45;cruiser output Pages: 1 -->
<svg width="756pt" height="404pt"
 viewBox="0.00 0.00 756.00 404.00" xmlns="http://www.w3.org/2000/svg" xmlns:xlink="http://www.w3.org/1999/xlink">
<g id="graph0" class="graph" transform="scale(1 1) rotate(0) translate(4 400)">
<title>dependency&#45;cruiser output</title>
<polygon fill="white" stroke="none" points="-4,4 -4,-400 752,-400 752,4 -4,4"/>
<g id="clust1" class="cluster">
<title>cluster_node_modules</title>
<path fill="#ffffff" stroke="black" stroke-width="2" d="M244,-306C244,-306 327,-306 327,-306 333,-306 339,-312 339,-318 339,-318 339,-376 339,-376 339,-382 333,-388 327,-388 327,-388 244,-388 244,-388 238,-388 232,-382 232,-376 232,-376 232,-318 232,-318 232,-312 238,-306 244,-306"/>
<text text-anchor="middle" x="285.5" y="-376.8" font-family="Helvetica,sans-Serif" font-weight="bold" font-size="9.00">node_modules</text>
</g>
<!-- baseline&#45;violations.d.ts -->
<g id="node1" class="node">
<title>baseline&#45;violations.d.ts</title>
<g id="a_node1"><a xlink:href="https://github.com/sverweij/dependency-cruiser/blob/develop/baseline-violations.d.ts" xlink:title="baseline&#45;violations.d.ts">
<path fill="#ddfeff" stroke="black" d="M451,-220C451,-220 353,-220 353,-220 350,-220 347,-217 347,-214 347,-214 347,-208 347,-208 347,-205 350,-202 353,-202 353,-202 451,-202 451,-202 454,-202 457,-205 457,-208 457,-208 457,-214 457,-214 457,-217 454,-220 451,-220"/>
<text text-anchor="middle" x="402" y="-208.8" font-family="Helvetica,sans-Serif" font-size="9.00">baseline&#45;violations.d.ts</text>
</a>
</g>
</g>
<!-- violations.d.ts -->
<g id="node2" class="node">
<title>violations.d.ts</title>
<g id="a_node2"><a xlink:href="https://github.com/sverweij/dependency-cruiser/blob/develop/violations.d.ts" xlink:title="violations.d.ts">
<path fill="#ddfeff" stroke="black" d="M538.5,-233C538.5,-233 478.5,-233 478.5,-233 475.5,-233 472.5,-230 472.5,-227 472.5,-227 472.5,-221 472.5,-221 472.5,-218 475.5,-215 478.5,-215 478.5,-215 538.5,-215 538.5,-215 541.5,-215 544.5,-218 544.5,-221 544.5,-221 544.5,-227 544.5,-227 544.5,-230 541.5,-233 538.5,-233"/>
<text text-anchor="middle" x="508.5" y="-221.8" font-family="Helvetica,sans-Serif" font-size="9.00">violations.d.ts</text>
</a>
</g>
</g>
<!-- baseline&#45;violations.d.ts&#45;&gt;violations.d.ts -->
<g id="edge1" class="edge">
<title>baseline&#45;violations.d.ts&#45;&gt;violations.d.ts</title>
<path fill="none" stroke="#000000" stroke-width="2" stroke-opacity="0.200000" d="M457.32,-208.5C488.4,-208.5 521,-208.5 521,-208.5 521,-208.5 521,-209.13 521,-209.13"/>
<polygon fill="#000000" fill-opacity="0.200000" stroke="#000000" stroke-width="2" stroke-opacity="0.200000" points="518.9,-205.8 521,-211.8 523.1,-205.8 518.9,-205.8"/>
</g>
<!-- rule&#45;summary.d.ts -->
<g id="node8" class="node">
<title>rule&#45;summary.d.ts</title>
<g id="a_node8"><a xlink:href="https://github.com/sverweij/dependency-cruiser/blob/develop/rule-summary.d.ts" xlink:title="rule&#45;summary.d.ts">
<path fill="#ddfeff" stroke="black" d="M643,-246C643,-246 566,-246 566,-246 563,-246 560,-243 560,-240 560,-240 560,-234 560,-234 560,-231 563,-228 566,-228 566,-228 643,-228 643,-228 646,-228 649,-231 649,-234 649,-234 649,-240 649,-240 649,-243 646,-246 643,-246"/>
<text text-anchor="middle" x="604.5" y="-234.8" font-family="Helvetica,sans-Serif" font-size="9.00">rule&#45;summary.d.ts</text>
</a>
</g>
</g>
<!-- violations.d.ts&#45;&gt;rule&#45;summary.d.ts -->
<g id="edge40" class="edge">
<title>violations.d.ts&#45;&gt;rule&#45;summary.d.ts</title>
<path fill="none" stroke="#000000" stroke-width="2" stroke-opacity="0.200000" d="M521,-233.36C521,-237.36 521,-241.12 521,-241.12 521,-241.12 550.82,-241.12 550.82,-241.12"/>
<polygon fill="#000000" fill-opacity="0.200000" stroke="#000000" stroke-width="2" stroke-opacity="0.200000" points="550.82,-243.23 556.82,-241.12 550.82,-239.03 550.82,-243.23"/>
</g>
<!-- shared&#45;types.d.ts -->
<g id="node9" class="node">
<title>shared&#45;types.d.ts</title>
<g id="a_node9"><a xlink:href="https://github.com/sverweij/dependency-cruiser/blob/develop/shared-types.d.ts" xlink:title="shared&#45;types.d.ts">
<path fill="#ddfeff" stroke="black" d="M742,-138C742,-138 668,-138 668,-138 665,-138 662,-135 662,-132 662,-132 662,-126 662,-126 662,-123 665,-120 668,-120 668,-120 742,-120 742,-120 745,-120 748,-123 748,-126 748,-126 748,-132 748,-132 748,-135 745,-138 742,-138"/>
<text text-anchor="middle" x="705" y="-126.8" font-family="Helvetica,sans-Serif" font-size="9.00">shared&#45;types.d.ts</text>
</a>
</g>
</g>
<!-- violations.d.ts&#45;&gt;shared&#45;types.d.ts -->
<g id="edge41" class="edge">
<title>violations.d.ts&#45;&gt;shared&#45;types.d.ts</title>
<path fill="none" stroke="#000000" stroke-width="2" stroke-opacity="0.200000" d="M544.77,-221.5C603.76,-221.5 714,-221.5 714,-221.5 714,-221.5 714,-147.21 714,-147.21"/>
<polygon fill="#000000" fill-opacity="0.200000" stroke="#000000" stroke-width="2" stroke-opacity="0.200000" points="716.1,-147.21 714,-141.21 711.9,-147.21 716.1,-147.21"/>
</g>
<!-- cache&#45;options.d.ts -->
<g id="node3" class="node">
<title>cache&#45;options.d.ts</title>
<g id="a_node3"><a xlink:href="https://github.com/sverweij/dependency-cruiser/blob/develop/cache-options.d.ts" xlink:title="cache&#45;options.d.ts">
<path fill="#ddfeff" stroke="black" d="M441.5,-108C441.5,-108 362.5,-108 362.5,-108 359.5,-108 356.5,-105 356.5,-102 356.5,-102 356.5,-96 356.5,-96 356.5,-93 359.5,-90 362.5,-90 362.5,-90 441.5,-90 441.5,-90 444.5,-90 447.5,-93 447.5,-96 447.5,-96 447.5,-102 447.5,-102 447.5,-105 444.5,-108 441.5,-108"/>
<text text-anchor="middle" x="402" y="-96.8" font-family="Helvetica,sans-Serif" font-size="9.00">cache&#45;options.d.ts</text>
</a>
</g>
</g>
<!-- configuration.d.ts -->
<g id="node4" class="node">
<title>configuration.d.ts</title>
<g id="a_node4"><a xlink:href="https://github.com/sverweij/dependency-cruiser/blob/develop/configuration.d.ts" xlink:title="configuration.d.ts">
<path fill="#ddfeff" stroke="black" d="M213,-183C213,-183 139,-183 139,-183 136,-183 133,-180 133,-177 133,-177 133,-171 133,-171 133,-168 136,-165 139,-165 139,-165 213,-165 213,-165 216,-165 219,-168 219,-171 219,-171 219,-177 219,-177 219,-180 216,-183 213,-183"/>
<text text-anchor="middle" x="176" y="-171.8" font-family="Helvetica,sans-Serif" font-size="9.00">configuration.d.ts</text>
</a>
</g>
</g>
<!-- options.d.ts -->
<g id="node5" class="node">
<title>options.d.ts</title>
<g id="a_node5"><a xlink:href="https://github.com/sverweij/dependency-cruiser/blob/develop/options.d.ts" xlink:title="options.d.ts">
<path fill="#ddfeff" stroke="black" d="M311,-183C311,-183 260,-183 260,-183 257,-183 254,-180 254,-177 254,-177 254,-171 254,-171 254,-168 257,-165 260,-165 260,-165 311,-165 311,-165 314,-165 317,-168 317,-171 317,-171 317,-177 317,-177 317,-180 314,-183 311,-183"/>
<text text-anchor="middle" x="285.5" y="-171.8" font-family="Helvetica,sans-Serif" font-size="9.00">options.d.ts</text>
</a>
</g>
</g>
<!-- configuration.d.ts&#45;&gt;options.d.ts -->
<g id="edge2" class="edge">
<title>configuration.d.ts&#45;&gt;options.d.ts</title>
<path fill="none" stroke="#000000" stroke-width="2" stroke-opacity="0.200000" d="M219.28,-177C219.28,-177 244.68,-177 244.68,-177"/>
<polygon fill="#000000" fill-opacity="0.200000" stroke="#000000" stroke-width="2" stroke-opacity="0.200000" points="244.68,-179.1 250.68,-177 244.68,-174.9 244.68,-179.1"/>
</g>
<!-- rule&#45;set.d.ts -->
<g id="node6" class="node">
<title>rule&#45;set.d.ts</title>
<g id="a_node6"><a xlink:href="https://github.com/sverweij/dependency-cruiser/blob/develop/rule-set.d.ts" xlink:title="rule&#45;set.d.ts">
<path fill="#ddfeff" stroke="black" d="M428,-48C428,-48 376,-48 376,-48 373,-48 370,-45 370,-42 370,-42 370,-36 370,-36 370,-33 373,-30 376,-30 376,-30 428,-30 428,-30 431,-30 434,-33 434,-36 434,-36 434,-42 434,-42 434,-45 431,-48 428,-48"/>
<text text-anchor="middle" x="402" y="-36.8" font-family="Helvetica,sans-Serif" font-size="9.00">rule&#45;set.d.ts</text>
</a>
</g>
</g>
<!-- configuration.d.ts&#45;&gt;rule&#45;set.d.ts -->
<g id="edge3" class="edge">
<title>configuration.d.ts&#45;&gt;rule&#45;set.d.ts</title>
<path fill="none" stroke="#000000" stroke-width="2" stroke-opacity="0.200000" d="M219.31,-171C235.03,-171 249,-171 249,-171 249,-171 249,-42 249,-42 249,-42 360.55,-42 360.55,-42"/>
<polygon fill="#000000" fill-opacity="0.200000" stroke="#000000" stroke-width="2" stroke-opacity="0.200000" points="360.55,-44.1 366.55,-42 360.55,-39.9 360.55,-44.1"/>
</g>
<!-- options.d.ts&#45;&gt;baseline&#45;violations.d.ts -->
<g id="edge17" class="edge">
<title>options.d.ts&#45;&gt;baseline&#45;violations.d.ts</title>
<path fill="none" stroke="#000000" stroke-width="2" stroke-opacity="0.200000" d="M304,-183.43C304,-193.64 304,-208.5 304,-208.5 304,-208.5 337.7,-208.5 337.7,-208.5"/>
<polygon fill="#000000" fill-opacity="0.200000" stroke="#000000" stroke-width="2" stroke-opacity="0.200000" points="337.7,-210.6 343.7,-208.5 337.7,-206.4 337.7,-210.6"/>
</g>
<!-- options.d.ts&#45;&gt;cache&#45;options.d.ts -->
<g id="edge18" class="edge">
<title>options.d.ts&#45;&gt;cache&#45;options.d.ts</title>
<path fill="none" stroke="#000000" stroke-width="2" stroke-opacity="0.200000" d="M292,-164.59C292,-145.07 292,-102 292,-102 292,-102 347.31,-102 347.31,-102"/>
<polygon fill="#000000" fill-opacity="0.200000" stroke="#000000" stroke-width="2" stroke-opacity="0.200000" points="347.31,-104.1 353.31,-102 347.31,-99.9 347.31,-104.1"/>
</g>
<!-- options.d.ts&#45;&gt;rule&#45;set.d.ts -->
<g id="edge21" class="edge">
<title>options.d.ts&#45;&gt;rule&#45;set.d.ts</title>
<path fill="none" stroke="#000000" stroke-width="2" stroke-opacity="0.200000" d="M280,-164.72C280,-135.14 280,-45 280,-45 280,-45 360.63,-45 360.63,-45"/>
<polygon fill="#000000" fill-opacity="0.200000" stroke="#000000" stroke-width="2" stroke-opacity="0.200000" points="360.63,-47.1 366.63,-45 360.63,-42.9 360.63,-47.1"/>
</g>
<!-- options.d.ts&#45;&gt;shared&#45;types.d.ts -->
<g id="edge22" class="edge">
<title>options.d.ts&#45;&gt;shared&#45;types.d.ts</title>
<path fill="none" stroke="#000000" stroke-width="2" stroke-opacity="0.200000" d="M317.45,-177C411.37,-177 680,-177 680,-177 680,-177 680,-147.25 680,-147.25"/>
<polygon fill="#000000" fill-opacity="0.200000" stroke="#000000" stroke-width="2" stroke-opacity="0.200000" points="682.1,-147.25 680,-141.25 677.9,-147.25 682.1,-147.25"/>
</g>
<!-- filter&#45;types.d.ts -->
<g id="node13" class="node">
<title>filter&#45;types.d.ts</title>
<g id="a_node13"><a xlink:href="https://github.com/sverweij/dependency-cruiser/blob/develop/filter-types.d.ts" xlink:title="filter&#45;types.d.ts">
<path fill="#ddfeff" stroke="black" d="M540,-138C540,-138 477,-138 477,-138 474,-138 471,-135 471,-132 471,-132 471,-126 471,-126 471,-123 474,-120 477,-120 477,-120 540,-120 540,-120 543,-120 546,-123 546,-126 546,-126 546,-132 546,-132 546,-135 543,-138 540,-138"/>
<text text-anchor="middle" x="508.5" y="-126.8" font-family="Helvetica,sans-Serif" font-size="9.00">filter&#45;types.d.ts</text>
</a>
</g>
</g>
<!-- options.d.ts&#45;&gt;filter&#45;types.d.ts -->
<g id="edge19" class="edge">
<title>options.d.ts&#45;&gt;filter&#45;types.d.ts</title>
<path fill="none" stroke="#000000" stroke-width="2" stroke-opacity="0.200000" d="M317.16,-171C376.17,-171 497,-171 497,-171 497,-171 497,-147.32 497,-147.32"/>
<polygon fill="#000000" fill-opacity="0.200000" stroke="#000000" stroke-width="2" stroke-opacity="0.200000" points="499.1,-147.32 497,-141.32 494.9,-147.32 499.1,-147.32"/>
</g>
<!-- reporter&#45;options.d.ts -->
<g id="node15" class="node">
<title>reporter&#45;options.d.ts</title>
<g id="a_node15"><a xlink:href="https://github.com/sverweij/dependency-cruiser/blob/develop/reporter-options.d.ts" xlink:title="reporter&#45;options.d.ts">
<path fill="#ddfeff" stroke="black" d="M445,-138C445,-138 359,-138 359,-138 356,-138 353,-135 353,-132 353,-132 353,-126 353,-126 353,-123 356,-120 359,-120 359,-120 445,-120 445,-120 448,-120 451,-123 451,-126 451,-126 451,-132 451,-132 451,-135 448,-138 445,-138"/>
<text text-anchor="middle" x="402" y="-126.8" font-family="Helvetica,sans-Serif" font-size="9.00">reporter&#45;options.d.ts</text>
</a>
</g>
</g>
<!-- options.d.ts&#45;&gt;reporter&#45;options.d.ts -->
<g id="edge20" class="edge">
<title>options.d.ts&#45;&gt;reporter&#45;options.d.ts</title>
<path fill="none" stroke="#000000" stroke-width="2" stroke-opacity="0.200000" d="M305,-164.89C305,-151.74 305,-129 305,-129 305,-129 343.65,-129 343.65,-129"/>
<polygon fill="#000000" fill-opacity="0.200000" stroke="#000000" stroke-width="2" stroke-opacity="0.200000" points="343.65,-131.1 349.65,-129 343.65,-126.9 343.65,-131.1"/>
</g>
<!-- rule&#45;set.d.ts&#45;&gt;shared&#45;types.d.ts -->
<g id="edge27" class="edge">
<title>rule&#45;set.d.ts&#45;&gt;shared&#45;types.d.ts</title>
<path fill="none" stroke="#000000" stroke-width="2" stroke-opacity="0.200000" d="M402,-48.27C402,-51.11 402,-53.5 402,-53.5 402,-53.5 705,-53.5 705,-53.5 705,-53.5 705,-110.74 705,-110.74"/>
<polygon fill="#000000" fill-opacity="0.200000" stroke="#000000" stroke-width="2" stroke-opacity="0.200000" points="702.9,-110.74 705,-116.74 707.1,-110.74 702.9,-110.74"/>
</g>
<!-- restrictions.d.ts -->
<g id="node16" class="node">
<title>restrictions.d.ts</title>
<g id="a_node16"><a xlink:href="https://github.com/sverweij/dependency-cruiser/blob/develop/restrictions.d.ts" xlink:title="restrictions.d.ts">
<path fill="#ddfeff" stroke="black" d="M541,-48C541,-48 476,-48 476,-48 473,-48 470,-45 470,-42 470,-42 470,-36 470,-36 470,-33 473,-30 476,-30 476,-30 541,-30 541,-30 544,-30 547,-33 547,-36 547,-36 547,-42 547,-42 547,-45 544,-48 541,-48"/>
<text text-anchor="middle" x="508.5" y="-36.8" font-family="Helvetica,sans-Serif" font-size="9.00">restrictions.d.ts</text>
</a>
</g>
</g>
<!-- rule&#45;set.d.ts&#45;&gt;restrictions.d.ts -->
<g id="edge26" class="edge">
<title>rule&#45;set.d.ts&#45;&gt;restrictions.d.ts</title>
<path fill="none" stroke="#000000" stroke-width="2" stroke-opacity="0.200000" d="M434.24,-42C434.24,-42 460.61,-42 460.61,-42"/>
<polygon fill="#000000" fill-opacity="0.200000" stroke="#000000" stroke-width="2" stroke-opacity="0.200000" points="460.61,-44.1 466.61,-42 460.61,-39.9 460.61,-44.1"/>
</g>
<!-- cruise&#45;result.d.ts -->
<g id="node7" class="node">
<title>cruise&#45;result.d.ts</title>
<g id="a_node7"><a xlink:href="https://github.com/sverweij/dependency-cruiser/blob/develop/cruise-result.d.ts" xlink:title="cruise&#45;result.d.ts">
<path fill="#ddfeff" stroke="black" d="M211.5,-248C211.5,-248 140.5,-248 140.5,-248 137.5,-248 134.5,-245 134.5,-242 134.5,-242 134.5,-236 134.5,-236 134.5,-233 137.5,-230 140.5,-230 140.5,-230 211.5,-230 211.5,-230 214.5,-230 217.5,-233 217.5,-236 217.5,-236 217.5,-242 217.5,-242 217.5,-245 214.5,-248 211.5,-248"/>
<text text-anchor="middle" x="176" y="-236.8" font-family="Helvetica,sans-Serif" font-size="9.00">cruise&#45;result.d.ts</text>
</a>
</g>
</g>
<!-- cruise&#45;result.d.ts&#45;&gt;violations.d.ts -->
<g id="edge8" class="edge">
<title>cruise&#45;result.d.ts&#45;&gt;violations.d.ts</title>
<path fill="none" stroke="#000000" stroke-width="2" stroke-opacity="0.200000" d="M217.97,-237.88C304.98,-237.88 497,-237.88 497,-237.88 497,-237.88 497,-237.44 497,-237.44"/>
<polygon fill="#000000" fill-opacity="0.200000" stroke="#000000" stroke-width="2" stroke-opacity="0.200000" points="499.1,-242.48 497,-236.48 494.9,-242.48 499.1,-242.48"/>
</g>
<!-- cruise&#45;result.d.ts&#45;&gt;options.d.ts -->
<g id="edge4" class="edge">
<title>cruise&#45;result.d.ts&#45;&gt;options.d.ts</title>
<path fill="none" stroke="#000000" stroke-width="2" stroke-opacity="0.200000" d="M217.88,-236.25C251.11,-236.25 292,-236.25 292,-236.25 292,-236.25 292,-192.45 292,-192.45"/>
<polygon fill="#000000" fill-opacity="0.200000" stroke="#000000" stroke-width="2" stroke-opacity="0.200000" points="294.1,-192.45 292,-186.45 289.9,-192.45 294.1,-192.45"/>
</g>
<!-- cruise&#45;result.d.ts&#45;&gt;rule&#45;set.d.ts -->
<g id="edge5" class="edge">
<title>cruise&#45;result.d.ts&#45;&gt;rule&#45;set.d.ts</title>
<path fill="none" stroke="#000000" stroke-width="2" stroke-opacity="0.200000" d="M217.87,-234.62C225.97,-234.62 232,-234.62 232,-234.62 232,-234.62 232,-39 232,-39 232,-39 360.62,-39 360.62,-39"/>
<polygon fill="#000000" fill-opacity="0.200000" stroke="#000000" stroke-width="2" stroke-opacity="0.200000" points="360.62,-41.1 366.62,-39 360.62,-36.9 360.62,-41.1"/>
</g>
<!-- cruise&#45;result.d.ts&#45;&gt;rule&#45;summary.d.ts -->
<g id="edge6" class="edge">
<title>cruise&#45;result.d.ts&#45;&gt;rule&#45;summary.d.ts</title>
<path fill="none" stroke="#000000" stroke-width="2" stroke-opacity="0.200000" d="M217.87,-242.75C217.87,-242.75 550.58,-242.75 550.58,-242.75"/>
<polygon fill="#000000" fill-opacity="0.200000" stroke="#000000" stroke-width="2" stroke-opacity="0.200000" points="550.58,-244.85 556.58,-242.75 550.58,-240.65 550.58,-244.85"/>
</g>
<!-- cruise&#45;result.d.ts&#45;&gt;shared&#45;types.d.ts -->
<g id="edge7" class="edge">
<title>cruise&#45;result.d.ts&#45;&gt;shared&#45;types.d.ts</title>
<path fill="none" stroke="#000000" stroke-width="2" stroke-opacity="0.200000" d="M217.9,-239.5C316.31,-239.5 554,-239.5 554,-239.5 554,-239.5 554,-132 554,-132 554,-132 652.73,-132 652.73,-132"/>
<polygon fill="#000000" fill-opacity="0.200000" stroke="#000000" stroke-width="2" stroke-opacity="0.200000" points="652.73,-134.1 658.73,-132 652.73,-129.9 652.73,-134.1"/>
</g>
<!-- node_modules/watskeburt -->
<g id="node10" class="node">
<title>node_modules/watskeburt</title>
<g id="a_node10"><a xlink:href="https://github.com/sverweij/dependency-cruiser/blob/develop/node_modules/watskeburt" xlink:title="watskeburt">
<polygon fill="#c40b0a" fill-opacity="0.101961" stroke="black" points="316,-332 257,-332 255,-330 255,-314 314,-314 316,-316 316,-332"/>
<polyline fill="none" stroke="black" points="314,-330 255,-330"/>
<polyline fill="none" stroke="black" points="314,-330 314,-314"/>
<polyline fill="none" stroke="black" points="314,-330 316,-332"/>
<text text-anchor="start" x="263" y="-320.8" font-family="Helvetica,sans-Serif" font-size="9.00" fill="#c40b0a">watskeburt</text>
</a>
</g>
</g>
<!-- cruise&#45;result.d.ts&#45;&gt;node_modules/watskeburt -->
<g id="edge9" class="edge">
<title>cruise&#45;result.d.ts&#45;&gt;node_modules/watskeburt</title>
<path fill="none" stroke="#000000" stroke-opacity="0.200000" d="M217.7,-244.38C246.64,-244.38 280,-244.38 280,-244.38 280,-244.38 280,-306.67 280,-306.67"/>
<polygon fill="#000000" fill-opacity="0.200000" stroke="#000000" stroke-opacity="0.200000" points="277.9,-306.67 280,-312.67 282.1,-306.67 277.9,-306.67"/>
</g>
<!-- rule&#45;summary.d.ts&#45;&gt;shared&#45;types.d.ts -->
<g id="edge28" class="edge">
<title>rule&#45;summary.d.ts&#45;&gt;shared&#45;types.d.ts</title>
<path fill="none" stroke="#000000" stroke-width="2" stroke-opacity="0.200000" d="M649.46,-237C685.82,-237 731,-237 731,-237 731,-237 731,-147.21 731,-147.21"/>
<polygon fill="#000000" fill-opacity="0.200000" stroke="#000000" stroke-width="2" stroke-opacity="0.200000" points="733.1,-147.21 731,-141.21 728.9,-147.21 733.1,-147.21"/>
</g>
<!-- dependency&#45;cruiser.d.ts -->
<g id="node11" class="node">
<title>dependency&#45;cruiser.d.ts</title>
<g id="a_node11"><a xlink:href="https://github.com/sverweij/dependency-cruiser/blob/develop/dependency-cruiser.d.ts" xlink:title="dependency&#45;cruiser.d.ts">
<path fill="#ddfeff" stroke="black" d="M109,-233C109,-233 6,-233 6,-233 3,-233 0,-230 0,-227 0,-227 0,-221 0,-221 0,-218 3,-215 6,-215 6,-215 109,-215 109,-215 112,-215 115,-218 115,-221 115,-221 115,-227 115,-227 115,-230 112,-233 109,-233"/>
<text text-anchor="middle" x="57.5" y="-221.8" font-family="Helvetica,sans-Serif" font-size="9.00">dependency&#45;cruiser.d.ts</text>
</a>
</g>
</g>
<!-- dependency&#45;cruiser.d.ts&#45;&gt;configuration.d.ts -->
<g id="edge10" class="edge">
<title>dependency&#45;cruiser.d.ts&#45;&gt;configuration.d.ts</title>
<path fill="none" stroke="#000000" stroke-width="2" stroke-opacity="0.200000" d="M115.5,-222.5C140.01,-222.5 163,-222.5 163,-222.5 163,-222.5 163,-192.35 163,-192.35"/>
<polygon fill="#000000" fill-opacity="0.200000" stroke="#000000" stroke-width="2" stroke-opacity="0.200000" points="165.1,-192.35 163,-186.35 160.9,-192.35 165.1,-192.35"/>
</g>
<!-- dependency&#45;cruiser.d.ts&#45;&gt;options.d.ts -->
<g id="edge12" class="edge">
<title>dependency&#45;cruiser.d.ts&#45;&gt;options.d.ts</title>
<path fill="none" stroke="#000000" stroke-width="2" stroke-opacity="0.200000" d="M115.3,-225C177.61,-225 268,-225 268,-225 268,-225 268,-192.35 268,-192.35"/>
<polygon fill="#000000" fill-opacity="0.200000" stroke="#000000" stroke-width="2" stroke-opacity="0.200000" points="270.1,-192.35 268,-186.35 265.9,-192.35 270.1,-192.35"/>
</g>
<!-- dependency&#45;cruiser.d.ts&#45;&gt;rule&#45;set.d.ts -->
<g id="edge14" class="edge">
<title>dependency&#45;cruiser.d.ts&#45;&gt;rule&#45;set.d.ts</title>
<path fill="none" stroke="#000000" stroke-width="2" stroke-opacity="0.200000" d="M39,-214.68C39,-176.74 39,-36 39,-36 39,-36 360.79,-36 360.79,-36"/>
<polygon fill="#000000" fill-opacity="0.200000" stroke="#000000" stroke-width="2" stroke-opacity="0.200000" points="360.79,-38.1 366.79,-36 360.79,-33.9 360.79,-38.1"/>
</g>
<!-- dependency&#45;cruiser.d.ts&#45;&gt;cruise&#45;result.d.ts -->
<g id="edge11" class="edge">
<title>dependency&#45;cruiser.d.ts&#45;&gt;cruise&#45;result.d.ts</title>
<path fill="none" stroke="#000000" stroke-width="2" stroke-opacity="0.200000" d="M115.23,-227.5C150.94,-227.5 190,-227.5 190,-227.5 190,-227.5 190,-227.72 190,-227.72"/>
<polygon fill="#000000" fill-opacity="0.200000" stroke="#000000" stroke-width="2" stroke-opacity="0.200000" points="187.9,-220.72 190,-226.72 192.1,-220.72 187.9,-220.72"/>
</g>
<!-- dependency&#45;cruiser.d.ts&#45;&gt;shared&#45;types.d.ts -->
<g id="edge15" class="edge">
<title>dependency&#45;cruiser.d.ts&#45;&gt;shared&#45;types.d.ts</title>
<path fill="none" stroke="#000000" stroke-width="2" stroke-opacity="0.200000" d="M77,-214.72C77,-205.43 77,-192.5 77,-192.5 77,-192.5 697,-192.5 697,-192.5 697,-192.5 697,-147.37 697,-147.37"/>
<polygon fill="#000000" fill-opacity="0.200000" stroke="#000000" stroke-width="2" stroke-opacity="0.200000" points="699.1,-147.37 697,-141.37 694.9,-147.37 699.1,-147.37"/>
</g>
<!-- resolve&#45;options.d.ts -->
<g id="node12" class="node">
<title>resolve&#45;options.d.ts</title>
<g id="a_node12"><a xlink:href="https://github.com/sverweij/dependency-cruiser/blob/develop/resolve-options.d.ts" xlink:title="resolve&#45;options.d.ts">
<path fill="#ddfeff" stroke="black" d="M218,-320C218,-320 134,-320 134,-320 131,-320 128,-317 128,-314 128,-314 128,-308 128,-308 128,-305 131,-302 134,-302 134,-302 218,-302 218,-302 221,-302 224,-305 224,-308 224,-308 224,-314 224,-314 224,-317 221,-320 218,-320"/>
<text text-anchor="middle" x="176" y="-308.8" font-family="Helvetica,sans-Serif" font-size="9.00">resolve&#45;options.d.ts</text>
</a>
</g>
</g>
<!-- dependency&#45;cruiser.d.ts&#45;&gt;resolve&#45;options.d.ts -->
<g id="edge13" class="edge">
<title>dependency&#45;cruiser.d.ts&#45;&gt;resolve&#45;options.d.ts</title>
<path fill="none" stroke="#000000" stroke-width="2" stroke-opacity="0.200000" d="M58,-233.31C58,-255.75 58,-311 58,-311 58,-311 118.66,-311 118.66,-311"/>
<polygon fill="#000000" fill-opacity="0.200000" stroke="#000000" stroke-width="2" stroke-opacity="0.200000" points="118.66,-313.1 124.66,-311 118.66,-308.9 118.66,-313.1"/>
</g>
<!-- node_modules/enhanced&#45;resolve -->
<g id="node14" class="node">
<title>node_modules/enhanced&#45;resolve</title>
<g id="a_node14"><a xlink:href="https://github.com/sverweij/dependency-cruiser/blob/develop/node_modules/enhanced-resolve" xlink:title="enhanced&#45;resolve">
<polygon fill="#c40b0a" fill-opacity="0.101961" stroke="black" points="331,-362 242,-362 240,-360 240,-344 329,-344 331,-346 331,-362"/>
<polyline fill="none" stroke="black" points="329,-360 240,-360"/>
<polyline fill="none" stroke="black" points="329,-360 329,-344"/>
<polyline fill="none" stroke="black" points="329,-360 331,-362"/>
<text text-anchor="start" x="248" y="-350.8" font-family="Helvetica,sans-Serif" font-size="9.00" fill="#c40b0a">enhanced&#45;resolve</text>
</a>
</g>
</g>
<!-- resolve&#45;options.d.ts&#45;&gt;node_modules/enhanced&#45;resolve -->
<g id="edge24" class="edge">
<title>resolve&#45;options.d.ts&#45;&gt;node_modules/enhanced&#45;resolve</title>
<path fill="none" stroke="#000000" stroke-opacity="0.200000" d="M224.13,-308C239.21,-308 252,-308 252,-308 252,-308 252,-336.89 252,-336.89"/>
<polygon fill="#000000" fill-opacity="0.200000" stroke="#000000" stroke-opacity="0.200000" points="249.9,-336.89 252,-342.89 254.1,-336.89 249.9,-336.89"/>
</g>
<!-- filter&#45;types.d.ts&#45;&gt;shared&#45;types.d.ts -->
<g id="edge16" class="edge">
<title>filter&#45;types.d.ts&#45;&gt;shared&#45;types.d.ts</title>
<path fill="none" stroke="#000000" stroke-width="2" stroke-opacity="0.200000" d="M546.39,-126C546.39,-126 652.76,-126 652.76,-126"/>
<polygon fill="#000000" fill-opacity="0.200000" stroke="#000000" stroke-width="2" stroke-opacity="0.200000" points="652.76,-128.1 658.76,-126 652.76,-123.9 652.76,-128.1"/>
</g>
<!-- reporter&#45;options.d.ts&#45;&gt;filter&#45;types.d.ts -->
<g id="edge23" class="edge">
<title>reporter&#45;options.d.ts&#45;&gt;filter&#45;types.d.ts</title>
<path fill="none" stroke="#000000" stroke-width="2" stroke-opacity="0.200000" d="M451.2,-129C451.2,-129 461.67,-129 461.67,-129"/>
<polygon fill="#000000" fill-opacity="0.200000" stroke="#000000" stroke-width="2" stroke-opacity="0.200000" points="461.67,-131.1 467.67,-129 461.67,-126.9 461.67,-131.1"/>
</g>
<!-- restrictions.d.ts&#45;&gt;shared&#45;types.d.ts -->
<g id="edge25" class="edge">
<title>restrictions.d.ts&#45;&gt;shared&#45;types.d.ts</title>
<path fill="none" stroke="#000000" stroke-width="2" stroke-opacity="0.200000" d="M547.29,-39C608.35,-39 720,-39 720,-39 720,-39 720,-110.71 720,-110.71"/>
<polygon fill="#000000" fill-opacity="0.200000" stroke="#000000" stroke-width="2" stroke-opacity="0.200000" points="717.9,-110.71 720,-116.71 722.1,-110.71 717.9,-110.71"/>
</g>
<!-- strict&#45;filter&#45;types.d.ts -->
<g id="node17" class="node">
<title>strict&#45;filter&#45;types.d.ts</title>
<g id="a_node17"><a xlink:href="https://github.com/sverweij/dependency-cruiser/blob/develop/strict-filter-types.d.ts" xlink:title="strict&#45;filter&#45;types.d.ts">
<path fill="#ddfeff" stroke="black" d="M444.5,-78C444.5,-78 359.5,-78 359.5,-78 356.5,-78 353.5,-75 353.5,-72 353.5,-72 353.5,-66 353.5,-66 353.5,-63 356.5,-60 359.5,-60 359.5,-60 444.5,-60 444.5,-60 447.5,-60 450.5,-63 450.5,-66 450.5,-66 450.5,-72 450.5,-72 450.5,-75 447.5,-78 444.5,-78"/>
<text text-anchor="middle" x="402" y="-66.8" font-family="Helvetica,sans-Serif" font-size="9.00">strict&#45;filter&#45;types.d.ts</text>
</a>
</g>
</g>
<!-- strict&#45;filter&#45;types.d.ts&#45;&gt;shared&#45;types.d.ts -->
<g id="edge30" class="edge">
<title>strict&#45;filter&#45;types.d.ts&#45;&gt;shared&#45;types.d.ts</title>
<path fill="none" stroke="#000000" stroke-width="2" stroke-opacity="0.200000" d="M450.7,-66C533.06,-66 691,-66 691,-66 691,-66 691,-110.7 691,-110.7"/>
<polygon fill="#000000" fill-opacity="0.200000" stroke="#000000" stroke-width="2" stroke-opacity="0.200000" points="688.9,-110.7 691,-116.7 693.1,-110.7 688.9,-110.7"/>
</g>
<!-- strict&#45;filter&#45;types.d.ts&#45;&gt;filter&#45;types.d.ts -->
<g id="edge29" class="edge">
<title>strict&#45;filter&#45;types.d.ts&#45;&gt;filter&#45;types.d.ts</title>
<path fill="none" stroke="#000000" stroke-width="2" stroke-opacity="0.200000" d="M450.8,-72C479.02,-72 509,-72 509,-72 509,-72 509,-110.59 509,-110.59"/>
<polygon fill="#000000" fill-opacity="0.200000" stroke="#000000" stroke-width="2" stroke-opacity="0.200000" points="506.9,-110.59 509,-116.59 511.1,-110.59 506.9,-110.59"/>
</g>
<!-- strict&#45;options.d.ts -->
<g id="node18" class="node">
<title>strict&#45;options.d.ts</title>
<g id="a_node18"><a xlink:href="https://github.com/sverweij/dependency-cruiser/blob/develop/strict-options.d.ts" xlink:title="strict&#45;options.d.ts">
<path fill="#ddfeff" stroke="black" d="M212.5,-77C212.5,-77 139.5,-77 139.5,-77 136.5,-77 133.5,-74 133.5,-71 133.5,-71 133.5,-65 133.5,-65 133.5,-62 136.5,-59 139.5,-59 139.5,-59 212.5,-59 212.5,-59 215.5,-59 218.5,-62 218.5,-65 218.5,-65 218.5,-71 218.5,-71 218.5,-74 215.5,-77 212.5,-77"/>
<text text-anchor="middle" x="176" y="-65.8" font-family="Helvetica,sans-Serif" font-size="9.00">strict&#45;options.d.ts</text>
</a>
</g>
</g>
<!-- strict&#45;options.d.ts&#45;&gt;cache&#45;options.d.ts -->
<g id="edge31" class="edge">
<title>strict&#45;options.d.ts&#45;&gt;cache&#45;options.d.ts</title>
<path fill="none" stroke="#000000" stroke-width="2" stroke-opacity="0.200000" d="M162,-77.48C162,-85.6 162,-96 162,-96 162,-96 347.01,-96 347.01,-96"/>
<polygon fill="#000000" fill-opacity="0.200000" stroke="#000000" stroke-width="2" stroke-opacity="0.200000" points="347.01,-98.1 353.01,-96 347.01,-93.9 347.01,-98.1"/>
</g>
<!-- strict&#45;options.d.ts&#45;&gt;options.d.ts -->
<g id="edge32" class="edge">
<title>strict&#45;options.d.ts&#45;&gt;options.d.ts</title>
<path fill="none" stroke="#000000" stroke-width="2" stroke-opacity="0.200000" d="M218.84,-72.75C242.44,-72.75 267,-72.75 267,-72.75 267,-72.75 267,-155.66 267,-155.66"/>
<polygon fill="#000000" fill-opacity="0.200000" stroke="#000000" stroke-width="2" stroke-opacity="0.200000" points="264.9,-155.66 267,-161.66 269.1,-155.66 264.9,-155.66"/>
</g>
<!-- strict&#45;options.d.ts&#45;&gt;shared&#45;types.d.ts -->
<g id="edge33" class="edge">
<title>strict&#45;options.d.ts&#45;&gt;shared&#45;types.d.ts</title>
<path fill="none" stroke="#000000" stroke-width="2" stroke-opacity="0.200000" d="M191,-77.49C191,-80.94 191,-84 191,-84 191,-84 677,-84 677,-84 677,-84 677,-110.89 677,-110.89"/>
<polygon fill="#000000" fill-opacity="0.200000" stroke="#000000" stroke-width="2" stroke-opacity="0.200000" points="674.9,-110.89 677,-116.89 679.1,-110.89 674.9,-110.89"/>
</g>
<!-- strict&#45;options.d.ts&#45;&gt;strict&#45;filter&#45;types.d.ts -->
<g id="edge34" class="edge">
<title>strict&#45;options.d.ts&#45;&gt;strict&#45;filter&#45;types.d.ts</title>
<path fill="none" stroke="#000000" stroke-width="2" stroke-opacity="0.200000" d="M218.77,-68.5C218.77,-68.5 344.12,-68.5 344.12,-68.5"/>
<polygon fill="#000000" fill-opacity="0.200000" stroke="#000000" stroke-width="2" stroke-opacity="0.200000" points="344.12,-70.6 350.12,-68.5 344.12,-66.4 344.12,-70.6"/>
</g>
<!-- strict&#45;rule&#45;set.d.ts -->
<g id="node19" class="node">
<title>strict&#45;rule&#45;set.d.ts</title>
<g id="a_node19"><a xlink:href="https://github.com/sverweij/dependency-cruiser/blob/develop/strict-rule-set.d.ts" xlink:title="strict&#45;rule&#45;set.d.ts">
<path fill="#ddfeff" stroke="black" d="M322.5,-19C322.5,-19 248.5,-19 248.5,-19 245.5,-19 242.5,-16 242.5,-13 242.5,-13 242.5,-7 242.5,-7 242.5,-4 245.5,-1 248.5,-1 248.5,-1 322.5,-1 322.5,-1 325.5,-1 328.5,-4 328.5,-7 328.5,-7 328.5,-13 328.5,-13 328.5,-16 325.5,-19 322.5,-19"/>
<text text-anchor="middle" x="285.5" y="-7.8" font-family="Helvetica,sans-Serif" font-size="9.00">strict&#45;rule&#45;set.d.ts</text>
</a>
</g>
</g>
<!-- strict&#45;options.d.ts&#45;&gt;strict&#45;rule&#45;set.d.ts -->
<g id="edge35" class="edge">
<title>strict&#45;options.d.ts&#45;&gt;strict&#45;rule&#45;set.d.ts</title>
<path fill="none" stroke="#000000" stroke-width="2" stroke-opacity="0.200000" d="M218.74,-64.25C233.31,-64.25 246,-64.25 246,-64.25 246,-64.25 246,-28.45 246,-28.45"/>
<polygon fill="#000000" fill-opacity="0.200000" stroke="#000000" stroke-width="2" stroke-opacity="0.200000" points="248.1,-28.45 246,-22.45 243.9,-28.45 248.1,-28.45"/>
</g>
<!-- strict&#45;rule&#45;set.d.ts&#45;&gt;rule&#45;set.d.ts -->
<g id="edge37" class="edge">
<title>strict&#45;rule&#45;set.d.ts&#45;&gt;rule&#45;set.d.ts</title>
<path fill="none" stroke="#000000" stroke-width="2" stroke-opacity="0.200000" d="M325,-19.35C325,-25.72 325,-33 325,-33 325,-33 360.79,-33 360.79,-33"/>
<polygon fill="#000000" fill-opacity="0.200000" stroke="#000000" stroke-width="2" stroke-opacity="0.200000" points="360.79,-35.1 366.79,-33 360.79,-30.9 360.79,-35.1"/>
</g>
<!-- strict&#45;rule&#45;set.d.ts&#45;&gt;shared&#45;types.d.ts -->
<g id="edge38" class="edge">
<title>strict&#45;rule&#45;set.d.ts&#45;&gt;shared&#45;types.d.ts</title>
<path fill="none" stroke="#000000" stroke-width="2" stroke-opacity="0.200000" d="M321,-19.27C321,-22.11 321,-24.5 321,-24.5 321,-24.5 734,-24.5 734,-24.5 734,-24.5 734,-110.73 734,-110.73"/>
<polygon fill="#000000" fill-opacity="0.200000" stroke="#000000" stroke-width="2" stroke-opacity="0.200000" points="731.9,-110.73 734,-116.73 736.1,-110.73 731.9,-110.73"/>
</g>
<!-- strict&#45;restrictions.d.ts -->
<g id="node20" class="node">
<title>strict&#45;restrictions.d.ts</title>
<g id="a_node20"><a xlink:href="https://github.com/sverweij/dependency-cruiser/blob/develop/strict-restrictions.d.ts" xlink:title="strict&#45;restrictions.d.ts">
<path fill="#ddfeff" stroke="black" d="M445.5,-18C445.5,-18 358.5,-18 358.5,-18 355.5,-18 352.5,-15 352.5,-12 352.5,-12 352.5,-6 352.5,-6 352.5,-3 355.5,0 358.5,0 358.5,0 445.5,0 445.5,0 448.5,0 451.5,-3 451.5,-6 451.5,-6 451.5,-12 451.5,-12 451.5,-15 448.5,-18 445.5,-18"/>
<text text-anchor="middle" x="402" y="-6.8" font-family="Helvetica,sans-Serif" font-size="9.00">strict&#45;restrictions.d.ts</text>
</a>
</g>
</g>
<!-- strict&#45;rule&#45;set.d.ts&#45;&gt;strict&#45;restrictions.d.ts -->
<g id="edge39" class="edge">
<title>strict&#45;rule&#45;set.d.ts&#45;&gt;strict&#45;restrictions.d.ts</title>
<path fill="none" stroke="#000000" stroke-width="2" stroke-opacity="0.200000" d="M328.88,-9.5C328.88,-9.5 343.3,-9.5 343.3,-9.5"/>
<polygon fill="#000000" fill-opacity="0.200000" stroke="#000000" stroke-width="2" stroke-opacity="0.200000" points="343.3,-11.6 349.3,-9.5 343.3,-7.4 343.3,-11.6"/>
</g>
<!-- strict&#45;restrictions.d.ts&#45;&gt;restrictions.d.ts -->
<g id="edge36" class="edge">
<title>strict&#45;restrictions.d.ts&#45;&gt;restrictions.d.ts</title>
<path fill="none" stroke="#000000" stroke-width="2" stroke-opacity="0.200000" d="M443,-18.44C443,-26.23 443,-36 443,-36 443,-36 460.64,-36 460.64,-36"/>
<polygon fill="#000000" fill-opacity="0.200000" stroke="#000000" stroke-width="2" stroke-opacity="0.200000" points="460.64,-38.1 466.64,-36 460.64,-33.9 460.64,-38.1"/>
</g>
</g>
</svg>
