<?xml version="1.0" encoding="UTF-8" standalone="no"?>
<!DOCTYPE svg PUBLIC "-//W3C//DTD SVG 1.1//EN"
 "http://www.w3.org/Graphics/SVG/1.1/DTD/svg11.dtd">
<!-- Generated by graphviz version 8.0.5 (20230430.1635)
 -->
<!-- Title: dependency&#45;cruiser output Pages: 1 -->
<svg width="753pt" height="404pt" viewBox="0.00 0.00 753.00 403.88"
    xmlns="http://www.w3.org/2000/svg"
    xmlns:xlink="http://www.w3.org/1999/xlink">
    <g id="graph0" class="graph" transform="scale(1 1) rotate(0) translate(4 399.88)">
        <title>dependency&#45;cruiser output</title>
        <polygon fill="white" stroke="none" points="-4,4 -4,-399.88 749,-399.88 749,4 -4,4"/>
        <g id="clust1" class="cluster">
            <title>cluster_node_modules</title>
            <path fill="#ffffff" stroke="black" stroke-width="2" d="M242.75,-305.88C242.75,-305.88 325,-305.88 325,-305.88 331,-305.88 337,-311.88 337,-317.88 337,-317.88 337,-375.88 337,-375.88 337,-381.88 331,-387.88 325,-387.88 325,-387.88 242.75,-387.88 242.75,-387.88 236.75,-387.88 230.75,-381.88 230.75,-375.88 230.75,-375.88 230.75,-317.88 230.75,-317.88 230.75,-311.88 236.75,-305.88 242.75,-305.88"/>
            <text text-anchor="middle" x="283.88" y="-375.32" font-family="Helvetica,sans-Serif" font-weight="bold" font-size="9.00">node_modules</text>
        </g>
        <!-- baseline&#45;violations.d.ts -->
        <g id="node1" class="node">
            <title>baseline&#45;violations.d.ts</title>
            <g id="a_node1">
                <a xlink:href="https://github.com/sverweij/dependency-cruiser/blob/v12/baseline-violations.d.ts" xlink:title="baseline&#45;violations.d.ts">
                    <path fill="#ddfeff" stroke="black" d="M448.83,-219.75C448.83,-219.75 350.92,-219.75 350.92,-219.75 347.96,-219.75 345,-216.79 345,-213.83 345,-213.83 345,-207.92 345,-207.92 345,-204.96 347.96,-202 350.92,-202 350.92,-202 448.83,-202 448.83,-202 451.79,-202 454.75,-204.96 454.75,-207.92 454.75,-207.92 454.75,-213.83 454.75,-213.83 454.75,-216.79 451.79,-219.75 448.83,-219.75"/>
                    <text text-anchor="middle" x="399.88" y="-207.2" font-family="Helvetica,sans-Serif" font-size="9.00">baseline&#45;violations.d.ts</text>
                </a>
            </g>
        </g>
        <!-- violations.d.ts -->
        <g id="node2" class="node">
            <title>violations.d.ts</title>
            <g id="a_node2">
                <a xlink:href="https://github.com/sverweij/dependency-cruiser/blob/v12/violations.d.ts" xlink:title="violations.d.ts">
                    <path fill="#ddfeff" stroke="black" d="M535.96,-232.75C535.96,-232.75 476.29,-232.75 476.29,-232.75 473.33,-232.75 470.38,-229.79 470.38,-226.83 470.38,-226.83 470.38,-220.92 470.38,-220.92 470.38,-217.96 473.33,-215 476.29,-215 476.29,-215 535.96,-215 535.96,-215 538.92,-215 541.88,-217.96 541.88,-220.92 541.88,-220.92 541.88,-226.83 541.88,-226.83 541.88,-229.79 538.92,-232.75 535.96,-232.75"/>
                    <text text-anchor="middle" x="506.12" y="-220.2" font-family="Helvetica,sans-Serif" font-size="9.00">violations.d.ts</text>
                </a>
            </g>
        </g>
        <!-- baseline&#45;violations.d.ts&#45;&gt;violations.d.ts -->
        <g id="edge1" class="edge">
            <title>baseline&#45;violations.d.ts&#45;&gt;violations.d.ts</title>
            <path fill="none" stroke="#000000" stroke-width="2" stroke-opacity="0.200000" d="M454.9,-208.5C486.12,-208.5 519,-208.5 519,-208.5 519,-208.5 519,-209.13 519,-209.13"/>
            <polygon fill="#000000" fill-opacity="0.200000" stroke="#000000" stroke-width="2" stroke-opacity="0.200000" points="516.9,-205.75 519,-211.75 521.1,-205.75 516.9,-205.75"/>
        </g>
        <!-- rule&#45;summary.d.ts -->
        <g id="node8" class="node">
            <title>rule&#45;summary.d.ts</title>
            <g id="a_node8">
                <a xlink:href="https://github.com/sverweij/dependency-cruiser/blob/v12/rule-summary.d.ts" xlink:title="rule&#45;summary.d.ts">
                    <path fill="#ddfeff" stroke="black" d="M640.33,-245.75C640.33,-245.75 563.42,-245.75 563.42,-245.75 560.46,-245.75 557.5,-242.79 557.5,-239.83 557.5,-239.83 557.5,-233.92 557.5,-233.92 557.5,-230.96 560.46,-228 563.42,-228 563.42,-228 640.33,-228 640.33,-228 643.29,-228 646.25,-230.96 646.25,-233.92 646.25,-233.92 646.25,-239.83 646.25,-239.83 646.25,-242.79 643.29,-245.75 640.33,-245.75"/>
                    <text text-anchor="middle" x="601.88" y="-233.2" font-family="Helvetica,sans-Serif" font-size="9.00">rule&#45;summary.d.ts</text>
                </a>
            </g>
        </g>
        <!-- violations.d.ts&#45;&gt;rule&#45;summary.d.ts -->
        <g id="edge40" class="edge">
            <title>violations.d.ts&#45;&gt;rule&#45;summary.d.ts</title>
            <path fill="none" stroke="#000000" stroke-width="2" stroke-opacity="0.200000" d="M519,-233.17C519,-237.14 519,-240.88 519,-240.88 519,-240.88 548.04,-240.88 548.04,-240.88"/>
            <polygon fill="#000000" fill-opacity="0.200000" stroke="#000000" stroke-width="2" stroke-opacity="0.200000" points="548.04,-242.98 554.04,-240.88 548.04,-238.78 548.04,-242.98"/>
        </g>
        <!-- shared&#45;types.d.ts -->
        <g id="node9" class="node">
            <title>shared&#45;types.d.ts</title>
            <g id="a_node9">
                <a xlink:href="https://github.com/sverweij/dependency-cruiser/blob/v12/shared-types.d.ts" xlink:title="shared&#45;types.d.ts">
                    <path fill="#ddfeff" stroke="black" d="M739.08,-137.75C739.08,-137.75 665.17,-137.75 665.17,-137.75 662.21,-137.75 659.25,-134.79 659.25,-131.83 659.25,-131.83 659.25,-125.92 659.25,-125.92 659.25,-122.96 662.21,-120 665.17,-120 665.17,-120 739.08,-120 739.08,-120 742.04,-120 745,-122.96 745,-125.92 745,-125.92 745,-131.83 745,-131.83 745,-134.79 742.04,-137.75 739.08,-137.75"/>
                    <text text-anchor="middle" x="702.12" y="-125.2" font-family="Helvetica,sans-Serif" font-size="9.00">shared&#45;types.d.ts</text>
                </a>
            </g>
        </g>
        <!-- violations.d.ts&#45;&gt;shared&#45;types.d.ts -->
        <g id="edge41" class="edge">
            <title>violations.d.ts&#45;&gt;shared&#45;types.d.ts</title>
            <path fill="none" stroke="#000000" stroke-width="2" stroke-opacity="0.200000" d="M542.28,-221.5C601.1,-221.5 711,-221.5 711,-221.5 711,-221.5 711,-147.09 711,-147.09"/>
            <polygon fill="#000000" fill-opacity="0.200000" stroke="#000000" stroke-width="2" stroke-opacity="0.200000" points="713.1,-147.09 711,-141.09 708.9,-147.09 713.1,-147.09"/>
        </g>
        <!-- cache&#45;options.d.ts -->
        <g id="node3" class="node">
            <title>cache&#45;options.d.ts</title>
            <g id="a_node3">
                <a xlink:href="https://github.com/sverweij/dependency-cruiser/blob/v12/cache-options.d.ts" xlink:title="cache&#45;options.d.ts">
                    <path fill="#ddfeff" stroke="black" d="M439.08,-107.75C439.08,-107.75 360.67,-107.75 360.67,-107.75 357.71,-107.75 354.75,-104.79 354.75,-101.83 354.75,-101.83 354.75,-95.92 354.75,-95.92 354.75,-92.96 357.71,-90 360.67,-90 360.67,-90 439.08,-90 439.08,-90 442.04,-90 445,-92.96 445,-95.92 445,-95.92 445,-101.83 445,-101.83 445,-104.79 442.04,-107.75 439.08,-107.75"/>
                    <text text-anchor="middle" x="399.88" y="-95.2" font-family="Helvetica,sans-Serif" font-size="9.00">cache&#45;options.d.ts</text>
                </a>
            </g>
        </g>
        <!-- configuration.d.ts -->
        <g id="node4" class="node">
            <title>configuration.d.ts</title>
            <g id="a_node4">
                <a xlink:href="https://github.com/sverweij/dependency-cruiser/blob/v12/configuration.d.ts" xlink:title="configuration.d.ts">
                    <path fill="#ddfeff" stroke="black" d="M211.96,-182.75C211.96,-182.75 138.04,-182.75 138.04,-182.75 135.08,-182.75 132.12,-179.79 132.12,-176.83 132.12,-176.83 132.12,-170.92 132.12,-170.92 132.12,-167.96 135.08,-165 138.04,-165 138.04,-165 211.96,-165 211.96,-165 214.92,-165 217.88,-167.96 217.88,-170.92 217.88,-170.92 217.88,-176.83 217.88,-176.83 217.88,-179.79 214.92,-182.75 211.96,-182.75"/>
                    <text text-anchor="middle" x="175" y="-170.2" font-family="Helvetica,sans-Serif" font-size="9.00">configuration.d.ts</text>
                </a>
            </g>
        </g>
        <!-- options.d.ts -->
        <g id="node5" class="node">
            <title>options.d.ts</title>
            <g id="a_node5">
                <a xlink:href="https://github.com/sverweij/dependency-cruiser/blob/v12/options.d.ts" xlink:title="options.d.ts">
                    <path fill="#ddfeff" stroke="black" d="M309.21,-182.75C309.21,-182.75 258.54,-182.75 258.54,-182.75 255.58,-182.75 252.62,-179.79 252.62,-176.83 252.62,-176.83 252.62,-170.92 252.62,-170.92 252.62,-167.96 255.58,-165 258.54,-165 258.54,-165 309.21,-165 309.21,-165 312.17,-165 315.12,-167.96 315.12,-170.92 315.12,-170.92 315.12,-176.83 315.12,-176.83 315.12,-179.79 312.17,-182.75 309.21,-182.75"/>
                    <text text-anchor="middle" x="283.88" y="-170.2" font-family="Helvetica,sans-Serif" font-size="9.00">options.d.ts</text>
                </a>
            </g>
        </g>
        <!-- configuration.d.ts&#45;&gt;options.d.ts -->
        <g id="edge2" class="edge">
            <title>configuration.d.ts&#45;&gt;options.d.ts</title>
            <path fill="none" stroke="#000000" stroke-width="2" stroke-opacity="0.200000" d="M218.34,-176.83C218.34,-176.83 243.42,-176.83 243.42,-176.83"/>
            <polygon fill="#000000" fill-opacity="0.200000" stroke="#000000" stroke-width="2" stroke-opacity="0.200000" points="243.42,-178.93 249.42,-176.83 243.42,-174.73 243.42,-178.93"/>
        </g>
        <!-- rule&#45;set.d.ts -->
        <g id="node6" class="node">
            <title>rule&#45;set.d.ts</title>
            <g id="a_node6">
                <a xlink:href="https://github.com/sverweij/dependency-cruiser/blob/v12/rule-set.d.ts" xlink:title="rule&#45;set.d.ts">
                    <path fill="#ddfeff" stroke="black" d="M425.58,-47.75C425.58,-47.75 374.17,-47.75 374.17,-47.75 371.21,-47.75 368.25,-44.79 368.25,-41.83 368.25,-41.83 368.25,-35.92 368.25,-35.92 368.25,-32.96 371.21,-30 374.17,-30 374.17,-30 425.58,-30 425.58,-30 428.54,-30 431.5,-32.96 431.5,-35.92 431.5,-35.92 431.5,-41.83 431.5,-41.83 431.5,-44.79 428.54,-47.75 425.58,-47.75"/>
                    <text text-anchor="middle" x="399.88" y="-35.2" font-family="Helvetica,sans-Serif" font-size="9.00">rule&#45;set.d.ts</text>
                </a>
            </g>
        </g>
        <!-- configuration.d.ts&#45;&gt;rule&#45;set.d.ts -->
        <g id="edge3" class="edge">
            <title>configuration.d.ts&#45;&gt;rule&#45;set.d.ts</title>
            <path fill="none" stroke="#000000" stroke-width="2" stroke-opacity="0.200000" d="M218.33,-170.92C224.61,-170.92 229,-170.92 229,-170.92 229,-170.92 229,-38.88 229,-38.88 229,-38.88 359.14,-38.88 359.14,-38.88"/>
            <polygon fill="#000000" fill-opacity="0.200000" stroke="#000000" stroke-width="2" stroke-opacity="0.200000" points="359.14,-40.98 365.14,-38.88 359.14,-36.78 359.14,-40.98"/>
        </g>
        <!-- options.d.ts&#45;&gt;baseline&#45;violations.d.ts -->
        <g id="edge17" class="edge">
            <title>options.d.ts&#45;&gt;baseline&#45;violations.d.ts</title>
            <path fill="none" stroke="#000000" stroke-width="2" stroke-opacity="0.200000" d="M302,-182.97C302,-193.23 302,-208.5 302,-208.5 302,-208.5 335.64,-208.5 335.64,-208.5"/>
            <polygon fill="#000000" fill-opacity="0.200000" stroke="#000000" stroke-width="2" stroke-opacity="0.200000" points="335.64,-210.6 341.64,-208.5 335.64,-206.4 335.64,-210.6"/>
        </g>
        <!-- options.d.ts&#45;&gt;cache&#45;options.d.ts -->
        <g id="edge18" class="edge">
            <title>options.d.ts&#45;&gt;cache&#45;options.d.ts</title>
            <path fill="none" stroke="#000000" stroke-width="2" stroke-opacity="0.200000" d="M291,-164.75C291,-145.37 291,-101.83 291,-101.83 291,-101.83 345.33,-101.83 345.33,-101.83"/>
            <polygon fill="#000000" fill-opacity="0.200000" stroke="#000000" stroke-width="2" stroke-opacity="0.200000" points="345.33,-103.93 351.33,-101.83 345.33,-99.73 345.33,-103.93"/>
        </g>
        <!-- options.d.ts&#45;&gt;rule&#45;set.d.ts -->
        <g id="edge21" class="edge">
            <title>options.d.ts&#45;&gt;rule&#45;set.d.ts</title>
            <path fill="none" stroke="#000000" stroke-width="2" stroke-opacity="0.200000" d="M278,-164.59C278,-134.99 278,-44.79 278,-44.79 278,-44.79 358.85,-44.79 358.85,-44.79"/>
            <polygon fill="#000000" fill-opacity="0.200000" stroke="#000000" stroke-width="2" stroke-opacity="0.200000" points="358.85,-46.89 364.85,-44.79 358.85,-42.69 358.85,-46.89"/>
        </g>
        <!-- options.d.ts&#45;&gt;shared&#45;types.d.ts -->
        <g id="edge22" class="edge">
            <title>options.d.ts&#45;&gt;shared&#45;types.d.ts</title>
            <path fill="none" stroke="#000000" stroke-width="2" stroke-opacity="0.200000" d="M315.38,-176.83C408.67,-176.83 677,-176.83 677,-176.83 677,-176.83 677,-147.12 677,-147.12"/>
            <polygon fill="#000000" fill-opacity="0.200000" stroke="#000000" stroke-width="2" stroke-opacity="0.200000" points="679.1,-147.12 677,-141.12 674.9,-147.12 679.1,-147.12"/>
        </g>
        <!-- filter&#45;types.d.ts -->
        <g id="node13" class="node">
            <title>filter&#45;types.d.ts</title>
            <g id="a_node13">
                <a xlink:href="https://github.com/sverweij/dependency-cruiser/blob/v12/filter-types.d.ts" xlink:title="filter&#45;types.d.ts">
                    <path fill="#ddfeff" stroke="black" d="M537.46,-137.75C537.46,-137.75 474.79,-137.75 474.79,-137.75 471.83,-137.75 468.88,-134.79 468.88,-131.83 468.88,-131.83 468.88,-125.92 468.88,-125.92 468.88,-122.96 471.83,-120 474.79,-120 474.79,-120 537.46,-120 537.46,-120 540.42,-120 543.38,-122.96 543.38,-125.92 543.38,-125.92 543.38,-131.83 543.38,-131.83 543.38,-134.79 540.42,-137.75 537.46,-137.75"/>
                    <text text-anchor="middle" x="506.12" y="-125.2" font-family="Helvetica,sans-Serif" font-size="9.00">filter&#45;types.d.ts</text>
                </a>
            </g>
        </g>
        <!-- options.d.ts&#45;&gt;filter&#45;types.d.ts -->
        <g id="edge19" class="edge">
            <title>options.d.ts&#45;&gt;filter&#45;types.d.ts</title>
            <path fill="none" stroke="#000000" stroke-width="2" stroke-opacity="0.200000" d="M315.48,-170.92C374.38,-170.92 495,-170.92 495,-170.92 495,-170.92 495,-147.21 495,-147.21"/>
            <polygon fill="#000000" fill-opacity="0.200000" stroke="#000000" stroke-width="2" stroke-opacity="0.200000" points="497.1,-147.21 495,-141.21 492.9,-147.21 497.1,-147.21"/>
        </g>
        <!-- reporter&#45;options.d.ts -->
        <g id="node15" class="node">
            <title>reporter&#45;options.d.ts</title>
            <g id="a_node15">
                <a xlink:href="https://github.com/sverweij/dependency-cruiser/blob/v12/reporter-options.d.ts" xlink:title="reporter&#45;options.d.ts">
                    <path fill="#ddfeff" stroke="black" d="M442.83,-137.75C442.83,-137.75 356.92,-137.75 356.92,-137.75 353.96,-137.75 351,-134.79 351,-131.83 351,-131.83 351,-125.92 351,-125.92 351,-122.96 353.96,-120 356.92,-120 356.92,-120 442.83,-120 442.83,-120 445.79,-120 448.75,-122.96 448.75,-125.92 448.75,-125.92 448.75,-131.83 448.75,-131.83 448.75,-134.79 445.79,-137.75 442.83,-137.75"/>
                    <text text-anchor="middle" x="399.88" y="-125.2" font-family="Helvetica,sans-Serif" font-size="9.00">reporter&#45;options.d.ts</text>
                </a>
            </g>
        </g>
        <!-- options.d.ts&#45;&gt;reporter&#45;options.d.ts -->
        <g id="edge20" class="edge">
            <title>options.d.ts&#45;&gt;reporter&#45;options.d.ts</title>
            <path fill="none" stroke="#000000" stroke-width="2" stroke-opacity="0.200000" d="M303,-164.77C303,-151.62 303,-128.88 303,-128.88 303,-128.88 341.59,-128.88 341.59,-128.88"/>
            <polygon fill="#000000" fill-opacity="0.200000" stroke="#000000" stroke-width="2" stroke-opacity="0.200000" points="341.59,-130.98 347.59,-128.88 341.59,-126.78 341.59,-130.98"/>
        </g>
        <!-- rule&#45;set.d.ts&#45;&gt;shared&#45;types.d.ts -->
        <g id="edge27" class="edge">
            <title>rule&#45;set.d.ts&#45;&gt;shared&#45;types.d.ts</title>
            <path fill="none" stroke="#000000" stroke-width="2" stroke-opacity="0.200000" d="M400,-48.14C400,-50.98 400,-53.38 400,-53.38 400,-53.38 703,-53.38 703,-53.38 703,-53.38 703,-110.62 703,-110.62"/>
            <polygon fill="#000000" fill-opacity="0.200000" stroke="#000000" stroke-width="2" stroke-opacity="0.200000" points="700.9,-110.62 703,-116.62 705.1,-110.62 700.9,-110.62"/>
        </g>
        <!-- restrictions.d.ts -->
        <g id="node16" class="node">
            <title>restrictions.d.ts</title>
            <g id="a_node16">
                <a xlink:href="https://github.com/sverweij/dependency-cruiser/blob/v12/restrictions.d.ts" xlink:title="restrictions.d.ts">
                    <path fill="#ddfeff" stroke="black" d="M538.58,-47.75C538.58,-47.75 473.67,-47.75 473.67,-47.75 470.71,-47.75 467.75,-44.79 467.75,-41.83 467.75,-41.83 467.75,-35.92 467.75,-35.92 467.75,-32.96 470.71,-30 473.67,-30 473.67,-30 538.58,-30 538.58,-30 541.54,-30 544.5,-32.96 544.5,-35.92 544.5,-35.92 544.5,-41.83 544.5,-41.83 544.5,-44.79 541.54,-47.75 538.58,-47.75"/>
                    <text text-anchor="middle" x="506.12" y="-35.2" font-family="Helvetica,sans-Serif" font-size="9.00">restrictions.d.ts</text>
                </a>
            </g>
        </g>
        <!-- rule&#45;set.d.ts&#45;&gt;restrictions.d.ts -->
        <g id="edge26" class="edge">
            <title>rule&#45;set.d.ts&#45;&gt;restrictions.d.ts</title>
            <path fill="none" stroke="#000000" stroke-width="2" stroke-opacity="0.200000" d="M431.75,-41.83C431.75,-41.83 458.51,-41.83 458.51,-41.83"/>
            <polygon fill="#000000" fill-opacity="0.200000" stroke="#000000" stroke-width="2" stroke-opacity="0.200000" points="458.51,-43.93 464.51,-41.83 458.51,-39.73 458.51,-43.93"/>
        </g>
        <!-- cruise&#45;result.d.ts -->
        <g id="node7" class="node">
            <title>cruise&#45;result.d.ts</title>
            <g id="a_node7">
                <a xlink:href="https://github.com/sverweij/dependency-cruiser/blob/v12/cruise-result.d.ts" xlink:title="cruise&#45;result.d.ts">
                    <path fill="#ddfeff" stroke="black" d="M210.46,-247.75C210.46,-247.75 139.54,-247.75 139.54,-247.75 136.58,-247.75 133.62,-244.79 133.62,-241.83 133.62,-241.83 133.62,-235.92 133.62,-235.92 133.62,-232.96 136.58,-230 139.54,-230 139.54,-230 210.46,-230 210.46,-230 213.42,-230 216.38,-232.96 216.38,-235.92 216.38,-235.92 216.38,-241.83 216.38,-241.83 216.38,-244.79 213.42,-247.75 210.46,-247.75"/>
                    <text text-anchor="middle" x="175" y="-235.2" font-family="Helvetica,sans-Serif" font-size="9.00">cruise&#45;result.d.ts</text>
                </a>
            </g>
        </g>
        <!-- cruise&#45;result.d.ts&#45;&gt;violations.d.ts -->
        <g id="edge8" class="edge">
            <title>cruise&#45;result.d.ts&#45;&gt;violations.d.ts</title>
            <path fill="none" stroke="#000000" stroke-width="2" stroke-opacity="0.200000" d="M216.83,-237.62C303.57,-237.62 495,-237.62 495,-237.62 495,-237.62 495,-237.16 495,-237.16"/>
            <polygon fill="#000000" fill-opacity="0.200000" stroke="#000000" stroke-width="2" stroke-opacity="0.200000" points="497.1,-241.97 495,-235.97 492.9,-241.97 497.1,-241.97"/>
        </g>
        <!-- cruise&#45;result.d.ts&#45;&gt;options.d.ts -->
        <g id="edge4" class="edge">
            <title>cruise&#45;result.d.ts&#45;&gt;options.d.ts</title>
            <path fill="none" stroke="#000000" stroke-width="2" stroke-opacity="0.200000" d="M216.84,-236C249.72,-236 290,-236 290,-236 290,-236 290,-192.04 290,-192.04"/>
            <polygon fill="#000000" fill-opacity="0.200000" stroke="#000000" stroke-width="2" stroke-opacity="0.200000" points="292.1,-192.04 290,-186.04 287.9,-192.04 292.1,-192.04"/>
        </g>
        <!-- cruise&#45;result.d.ts&#45;&gt;rule&#45;set.d.ts -->
        <g id="edge5" class="edge">
            <title>cruise&#45;result.d.ts&#45;&gt;rule&#45;set.d.ts</title>
            <path fill="none" stroke="#000000" stroke-width="2" stroke-opacity="0.200000" d="M216.62,-234.38C226.38,-234.38 234,-234.38 234,-234.38 234,-234.38 234,-41.83 234,-41.83 234,-41.83 358.89,-41.83 358.89,-41.83"/>
            <polygon fill="#000000" fill-opacity="0.200000" stroke="#000000" stroke-width="2" stroke-opacity="0.200000" points="358.89,-43.93 364.89,-41.83 358.89,-39.73 358.89,-43.93"/>
        </g>
        <!-- cruise&#45;result.d.ts&#45;&gt;rule&#45;summary.d.ts -->
        <g id="edge6" class="edge">
            <title>cruise&#45;result.d.ts&#45;&gt;rule&#45;summary.d.ts</title>
            <path fill="none" stroke="#000000" stroke-width="2" stroke-opacity="0.200000" d="M216.71,-242.5C216.71,-242.5 548.12,-242.5 548.12,-242.5"/>
            <polygon fill="#000000" fill-opacity="0.200000" stroke="#000000" stroke-width="2" stroke-opacity="0.200000" points="548.12,-244.6 554.12,-242.5 548.12,-240.4 548.12,-244.6"/>
        </g>
        <!-- cruise&#45;result.d.ts&#45;&gt;shared&#45;types.d.ts -->
        <g id="edge7" class="edge">
            <title>cruise&#45;result.d.ts&#45;&gt;shared&#45;types.d.ts</title>
            <path fill="none" stroke="#000000" stroke-width="2" stroke-opacity="0.200000" d="M216.68,-239.25C314.57,-239.25 551,-239.25 551,-239.25 551,-239.25 551,-131.83 551,-131.83 551,-131.83 649.82,-131.83 649.82,-131.83"/>
            <polygon fill="#000000" fill-opacity="0.200000" stroke="#000000" stroke-width="2" stroke-opacity="0.200000" points="649.82,-133.93 655.82,-131.83 649.82,-129.73 649.82,-133.93"/>
        </g>
        <!-- node_modules/watskeburt -->
        <g id="node10" class="node">
            <title>node_modules/watskeburt</title>
            <g id="a_node10">
                <a xlink:href="https://github.com/sverweij/dependency-cruiser/blob/v12/node_modules/watskeburt" xlink:title="watskeburt">
                    <polygon fill="#c40b0a" fill-opacity="0.101961" stroke="black" points="314,-331.75 255.72,-331.75 253.75,-329.78 253.75,-314 312.03,-314 314,-315.97 314,-331.75"/>
                    <polyline fill="none" stroke="black" points="312.03,-329.78 253.75,-329.78"/>
                    <polyline fill="none" stroke="black" points="312.03,-329.78 312.03,-314"/>
                    <polyline fill="none" stroke="black" points="312.03,-329.78 314,-331.75"/>
                    <text text-anchor="start" x="261.75" y="-319.2" font-family="Helvetica,sans-Serif" font-size="9.00" fill="#c40b0a">watskeburt</text>
                </a>
            </g>
        </g>
        <!-- cruise&#45;result.d.ts&#45;&gt;node_modules/watskeburt -->
        <g id="edge9" class="edge">
            <title>cruise&#45;result.d.ts&#45;&gt;node_modules/watskeburt</title>
            <path fill="none" stroke="#000000" stroke-opacity="0.200000" d="M216.6,-244.12C245.18,-244.12 278,-244.12 278,-244.12 278,-244.12 278,-306.53 278,-306.53"/>
            <polygon fill="#000000" fill-opacity="0.200000" stroke="#000000" stroke-opacity="0.200000" points="275.9,-306.53 278,-312.53 280.1,-306.53 275.9,-306.53"/>
        </g>
        <!-- rule&#45;summary.d.ts&#45;&gt;shared&#45;types.d.ts -->
        <g id="edge28" class="edge">
            <title>rule&#45;summary.d.ts&#45;&gt;shared&#45;types.d.ts</title>
            <path fill="none" stroke="#000000" stroke-width="2" stroke-opacity="0.200000" d="M646.7,-236.88C682.95,-236.88 728,-236.88 728,-236.88 728,-236.88 728,-147.08 728,-147.08"/>
            <polygon fill="#000000" fill-opacity="0.200000" stroke="#000000" stroke-width="2" stroke-opacity="0.200000" points="730.1,-147.08 728,-141.08 725.9,-147.08 730.1,-147.08"/>
        </g>
        <!-- dependency&#45;cruiser.d.ts -->
        <g id="node11" class="node">
            <title>dependency&#45;cruiser.d.ts</title>
            <g id="a_node11">
                <a xlink:href="https://github.com/sverweij/dependency-cruiser/blob/v12/dependency-cruiser.d.ts" xlink:title="dependency&#45;cruiser.d.ts">
                    <path fill="#ddfeff" stroke="black" d="M108.33,-232.75C108.33,-232.75 5.92,-232.75 5.92,-232.75 2.96,-232.75 0,-229.79 0,-226.83 0,-226.83 0,-220.92 0,-220.92 0,-217.96 2.96,-215 5.92,-215 5.92,-215 108.33,-215 108.33,-215 111.29,-215 114.25,-217.96 114.25,-220.92 114.25,-220.92 114.25,-226.83 114.25,-226.83 114.25,-229.79 111.29,-232.75 108.33,-232.75"/>
                    <text text-anchor="middle" x="57.12" y="-220.2" font-family="Helvetica,sans-Serif" font-size="9.00">dependency&#45;cruiser.d.ts</text>
                </a>
            </g>
        </g>
        <!-- dependency&#45;cruiser.d.ts&#45;&gt;configuration.d.ts -->
        <g id="edge10" class="edge">
            <title>dependency&#45;cruiser.d.ts&#45;&gt;configuration.d.ts</title>
            <path fill="none" stroke="#000000" stroke-width="2" stroke-opacity="0.200000" d="M114.47,-222.31C138.96,-222.31 162,-222.31 162,-222.31 162,-222.31 162,-192.21 162,-192.21"/>
            <polygon fill="#000000" fill-opacity="0.200000" stroke="#000000" stroke-width="2" stroke-opacity="0.200000" points="164.1,-192.21 162,-186.21 159.9,-192.21 164.1,-192.21"/>
        </g>
        <!-- dependency&#45;cruiser.d.ts&#45;&gt;options.d.ts -->
        <g id="edge12" class="edge">
            <title>dependency&#45;cruiser.d.ts&#45;&gt;options.d.ts</title>
            <path fill="none" stroke="#000000" stroke-width="2" stroke-opacity="0.200000" d="M114.48,-224.88C176.31,-224.88 266,-224.88 266,-224.88 266,-224.88 266,-192.23 266,-192.23"/>
            <polygon fill="#000000" fill-opacity="0.200000" stroke="#000000" stroke-width="2" stroke-opacity="0.200000" points="268.1,-192.23 266,-186.23 263.9,-192.23 268.1,-192.23"/>
        </g>
        <!-- dependency&#45;cruiser.d.ts&#45;&gt;rule&#45;set.d.ts -->
        <g id="edge14" class="edge">
            <title>dependency&#45;cruiser.d.ts&#45;&gt;rule&#45;set.d.ts</title>
            <path fill="none" stroke="#000000" stroke-width="2" stroke-opacity="0.200000" d="M39,-214.55C39,-176.63 39,-35.92 39,-35.92 39,-35.92 358.85,-35.92 358.85,-35.92"/>
            <polygon fill="#000000" fill-opacity="0.200000" stroke="#000000" stroke-width="2" stroke-opacity="0.200000" points="358.85,-38.02 364.85,-35.92 358.85,-33.82 358.85,-38.02"/>
        </g>
        <!-- dependency&#45;cruiser.d.ts&#45;&gt;cruise&#45;result.d.ts -->
        <g id="edge11" class="edge">
            <title>dependency&#45;cruiser.d.ts&#45;&gt;cruise&#45;result.d.ts</title>
            <path fill="none" stroke="#000000" stroke-width="2" stroke-opacity="0.200000" d="M114.58,-227.44C150.12,-227.44 189,-227.44 189,-227.44 189,-227.44 189,-227.66 189,-227.66"/>
            <polygon fill="#000000" fill-opacity="0.200000" stroke="#000000" stroke-width="2" stroke-opacity="0.200000" points="186.9,-220.64 189,-226.64 191.1,-220.64 186.9,-220.64"/>
        </g>
        <!-- dependency&#45;cruiser.d.ts&#45;&gt;shared&#45;types.d.ts -->
        <g id="edge15" class="edge">
            <title>dependency&#45;cruiser.d.ts&#45;&gt;shared&#45;types.d.ts</title>
            <path fill="none" stroke="#000000" stroke-width="2" stroke-opacity="0.200000" d="M77,-214.59C77,-205.3 77,-192.38 77,-192.38 77,-192.38 694,-192.38 694,-192.38 694,-192.38 694,-147.24 694,-147.24"/>
            <polygon fill="#000000" fill-opacity="0.200000" stroke="#000000" stroke-width="2" stroke-opacity="0.200000" points="696.1,-147.24 694,-141.24 691.9,-147.24 696.1,-147.24"/>
        </g>
        <!-- resolve&#45;options.d.ts -->
        <g id="node12" class="node">
            <title>resolve&#45;options.d.ts</title>
            <g id="a_node12">
                <a xlink:href="https://github.com/sverweij/dependency-cruiser/blob/v12/resolve-options.d.ts" xlink:title="resolve&#45;options.d.ts">
                    <path fill="#ddfeff" stroke="black" d="M216.83,-319.75C216.83,-319.75 133.17,-319.75 133.17,-319.75 130.21,-319.75 127.25,-316.79 127.25,-313.83 127.25,-313.83 127.25,-307.92 127.25,-307.92 127.25,-304.96 130.21,-302 133.17,-302 133.17,-302 216.83,-302 216.83,-302 219.79,-302 222.75,-304.96 222.75,-307.92 222.75,-307.92 222.75,-313.83 222.75,-313.83 222.75,-316.79 219.79,-319.75 216.83,-319.75"/>
                    <text text-anchor="middle" x="175" y="-307.2" font-family="Helvetica,sans-Serif" font-size="9.00">resolve&#45;options.d.ts</text>
                </a>
            </g>
        </g>
        <!-- dependency&#45;cruiser.d.ts&#45;&gt;resolve&#45;options.d.ts -->
        <g id="edge13" class="edge">
            <title>dependency&#45;cruiser.d.ts&#45;&gt;resolve&#45;options.d.ts</title>
            <path fill="none" stroke="#000000" stroke-width="2" stroke-opacity="0.200000" d="M58,-233.19C58,-255.63 58,-310.88 58,-310.88 58,-310.88 118.07,-310.88 118.07,-310.88"/>
            <polygon fill="#000000" fill-opacity="0.200000" stroke="#000000" stroke-width="2" stroke-opacity="0.200000" points="118.07,-312.98 124.07,-310.88 118.07,-308.78 118.07,-312.98"/>
        </g>
        <!-- node_modules/enhanced&#45;resolve -->
        <g id="node14" class="node">
            <title>node_modules/enhanced&#45;resolve</title>
            <g id="a_node14">
                <a xlink:href="https://github.com/sverweij/dependency-cruiser/blob/v12/node_modules/enhanced-resolve" xlink:title="enhanced&#45;resolve">
                    <polygon fill="#c40b0a" fill-opacity="0.101961" stroke="black" points="329,-361.75 240.72,-361.75 238.75,-359.78 238.75,-344 327.03,-344 329,-345.97 329,-361.75"/>
                    <polyline fill="none" stroke="black" points="327.03,-359.78 238.75,-359.78"/>
                    <polyline fill="none" stroke="black" points="327.03,-359.78 327.03,-344"/>
                    <polyline fill="none" stroke="black" points="327.03,-359.78 329,-361.75"/>
                    <text text-anchor="start" x="246.75" y="-349.2" font-family="Helvetica,sans-Serif" font-size="9.00" fill="#c40b0a">enhanced&#45;resolve</text>
                </a>
            </g>
        </g>
        <!-- resolve&#45;options.d.ts&#45;&gt;node_modules/enhanced&#45;resolve -->
        <g id="edge24" class="edge">
            <title>resolve&#45;options.d.ts&#45;&gt;node_modules/enhanced&#45;resolve</title>
            <path fill="none" stroke="#000000" stroke-opacity="0.200000" d="M223.12,-308C237.25,-308 249,-308 249,-308 249,-308 249,-336.79 249,-336.79"/>
            <polygon fill="#000000" fill-opacity="0.200000" stroke="#000000" stroke-opacity="0.200000" points="246.9,-336.79 249,-342.79 251.1,-336.79 246.9,-336.79"/>
        </g>
        <!-- filter&#45;types.d.ts&#45;&gt;shared&#45;types.d.ts -->
        <g id="edge16" class="edge">
            <title>filter&#45;types.d.ts&#45;&gt;shared&#45;types.d.ts</title>
            <path fill="none" stroke="#000000" stroke-width="2" stroke-opacity="0.200000" d="M543.45,-125.92C543.45,-125.92 649.79,-125.92 649.79,-125.92"/>
            <polygon fill="#000000" fill-opacity="0.200000" stroke="#000000" stroke-width="2" stroke-opacity="0.200000" points="649.79,-128.02 655.79,-125.92 649.79,-123.82 649.79,-128.02"/>
        </g>
        <!-- reporter&#45;options.d.ts&#45;&gt;filter&#45;types.d.ts -->
        <g id="edge23" class="edge">
            <title>reporter&#45;options.d.ts&#45;&gt;filter&#45;types.d.ts</title>
            <path fill="none" stroke="#000000" stroke-width="2" stroke-opacity="0.200000" d="M448.96,-128.88C448.96,-128.88 459.38,-128.88 459.38,-128.88"/>
            <polygon fill="#000000" fill-opacity="0.200000" stroke="#000000" stroke-width="2" stroke-opacity="0.200000" points="459.38,-130.98 465.38,-128.88 459.38,-126.78 459.38,-130.98"/>
        </g>
        <!-- restrictions.d.ts&#45;&gt;shared&#45;types.d.ts -->
        <g id="edge25" class="edge">
            <title>restrictions.d.ts&#45;&gt;shared&#45;types.d.ts</title>
            <path fill="none" stroke="#000000" stroke-width="2" stroke-opacity="0.200000" d="M544.8,-38.88C605.68,-38.88 717,-38.88 717,-38.88 717,-38.88 717,-110.58 717,-110.58"/>
            <polygon fill="#000000" fill-opacity="0.200000" stroke="#000000" stroke-width="2" stroke-opacity="0.200000" points="714.9,-110.58 717,-116.58 719.1,-110.58 714.9,-110.58"/>
        </g>
        <!-- strict&#45;filter&#45;types.d.ts -->
        <g id="node17" class="node">
            <title>strict&#45;filter&#45;types.d.ts</title>
            <g id="a_node17">
                <a xlink:href="https://github.com/sverweij/dependency-cruiser/blob/v12/strict-filter-types.d.ts" xlink:title="strict&#45;filter&#45;types.d.ts">
                    <path fill="#ddfeff" stroke="black" d="M442.08,-77.75C442.08,-77.75 357.67,-77.75 357.67,-77.75 354.71,-77.75 351.75,-74.79 351.75,-71.83 351.75,-71.83 351.75,-65.92 351.75,-65.92 351.75,-62.96 354.71,-60 357.67,-60 357.67,-60 442.08,-60 442.08,-60 445.04,-60 448,-62.96 448,-65.92 448,-65.92 448,-71.83 448,-71.83 448,-74.79 445.04,-77.75 442.08,-77.75"/>
                    <text text-anchor="middle" x="399.88" y="-65.2" font-family="Helvetica,sans-Serif" font-size="9.00">strict&#45;filter&#45;types.d.ts</text>
                </a>
            </g>
        </g>
        <!-- strict&#45;filter&#45;types.d.ts&#45;&gt;shared&#45;types.d.ts -->
        <g id="edge30" class="edge">
            <title>strict&#45;filter&#45;types.d.ts&#45;&gt;shared&#45;types.d.ts</title>
            <path fill="none" stroke="#000000" stroke-width="2" stroke-opacity="0.200000" d="M448.43,-65.92C530.54,-65.92 688,-65.92 688,-65.92 688,-65.92 688,-110.59 688,-110.59"/>
            <polygon fill="#000000" fill-opacity="0.200000" stroke="#000000" stroke-width="2" stroke-opacity="0.200000" points="685.9,-110.59 688,-116.59 690.1,-110.59 685.9,-110.59"/>
        </g>
        <!-- strict&#45;filter&#45;types.d.ts&#45;&gt;filter&#45;types.d.ts -->
        <g id="edge29" class="edge">
            <title>strict&#45;filter&#45;types.d.ts&#45;&gt;filter&#45;types.d.ts</title>
            <path fill="none" stroke="#000000" stroke-width="2" stroke-opacity="0.200000" d="M448.42,-71.83C476.77,-71.83 507,-71.83 507,-71.83 507,-71.83 507,-110.71 507,-110.71"/>
            <polygon fill="#000000" fill-opacity="0.200000" stroke="#000000" stroke-width="2" stroke-opacity="0.200000" points="504.9,-110.71 507,-116.71 509.1,-110.71 504.9,-110.71"/>
        </g>
        <!-- strict&#45;options.d.ts -->
        <g id="node18" class="node">
            <title>strict&#45;options.d.ts</title>
            <g id="a_node18">
                <a xlink:href="https://github.com/sverweij/dependency-cruiser/blob/v12/strict-options.d.ts" xlink:title="strict&#45;options.d.ts">
                    <path fill="#ddfeff" stroke="black" d="M211.21,-76.75C211.21,-76.75 138.79,-76.75 138.79,-76.75 135.83,-76.75 132.88,-73.79 132.88,-70.83 132.88,-70.83 132.88,-64.92 132.88,-64.92 132.88,-61.96 135.83,-59 138.79,-59 138.79,-59 211.21,-59 211.21,-59 214.17,-59 217.12,-61.96 217.12,-64.92 217.12,-64.92 217.12,-70.83 217.12,-70.83 217.12,-73.79 214.17,-76.75 211.21,-76.75"/>
                    <text text-anchor="middle" x="175" y="-64.2" font-family="Helvetica,sans-Serif" font-size="9.00">strict&#45;options.d.ts</text>
                </a>
            </g>
        </g>
        <!-- strict&#45;options.d.ts&#45;&gt;cache&#45;options.d.ts -->
        <g id="edge31" class="edge">
            <title>strict&#45;options.d.ts&#45;&gt;cache&#45;options.d.ts</title>
            <path fill="none" stroke="#000000" stroke-width="2" stroke-opacity="0.200000" d="M161,-77.06C161,-85.24 161,-95.92 161,-95.92 161,-95.92 345.38,-95.92 345.38,-95.92"/>
            <polygon fill="#000000" fill-opacity="0.200000" stroke="#000000" stroke-width="2" stroke-opacity="0.200000" points="345.38,-98.02 351.38,-95.92 345.38,-93.82 345.38,-98.02"/>
        </g>
        <!-- strict&#45;options.d.ts&#45;&gt;options.d.ts -->
        <g id="edge32" class="edge">
            <title>strict&#45;options.d.ts&#45;&gt;options.d.ts</title>
            <path fill="none" stroke="#000000" stroke-width="2" stroke-opacity="0.200000" d="M217.57,-72.56C241.25,-72.56 266,-72.56 266,-72.56 266,-72.56 266,-155.53 266,-155.53"/>
            <polygon fill="#000000" fill-opacity="0.200000" stroke="#000000" stroke-width="2" stroke-opacity="0.200000" points="263.9,-155.53 266,-161.53 268.1,-155.53 263.9,-155.53"/>
        </g>
        <!-- strict&#45;options.d.ts&#45;&gt;shared&#45;types.d.ts -->
        <g id="edge33" class="edge">
            <title>strict&#45;options.d.ts&#45;&gt;shared&#45;types.d.ts</title>
            <path fill="none" stroke="#000000" stroke-width="2" stroke-opacity="0.200000" d="M190,-77C190,-80.59 190,-83.88 190,-83.88 190,-83.88 674,-83.88 674,-83.88 674,-83.88 674,-110.77 674,-110.77"/>
            <polygon fill="#000000" fill-opacity="0.200000" stroke="#000000" stroke-width="2" stroke-opacity="0.200000" points="671.9,-110.77 674,-116.77 676.1,-110.77 671.9,-110.77"/>
        </g>
        <!-- strict&#45;options.d.ts&#45;&gt;strict&#45;filter&#45;types.d.ts -->
        <g id="edge34" class="edge">
            <title>strict&#45;options.d.ts&#45;&gt;strict&#45;filter&#45;types.d.ts</title>
            <path fill="none" stroke="#000000" stroke-width="2" stroke-opacity="0.200000" d="M217.56,-68.38C217.56,-68.38 342.64,-68.38 342.64,-68.38"/>
            <polygon fill="#000000" fill-opacity="0.200000" stroke="#000000" stroke-width="2" stroke-opacity="0.200000" points="342.64,-70.48 348.64,-68.38 342.64,-66.28 342.64,-70.48"/>
        </g>
        <!-- strict&#45;rule&#45;set.d.ts -->
        <g id="node19" class="node">
            <title>strict&#45;rule&#45;set.d.ts</title>
            <g id="a_node19">
                <a xlink:href="https://github.com/sverweij/dependency-cruiser/blob/v12/strict-rule-set.d.ts" xlink:title="strict&#45;rule&#45;set.d.ts">
                    <path fill="#ddfeff" stroke="black" d="M320.46,-18.75C320.46,-18.75 247.29,-18.75 247.29,-18.75 244.33,-18.75 241.38,-15.79 241.38,-12.83 241.38,-12.83 241.38,-6.92 241.38,-6.92 241.38,-3.96 244.33,-1 247.29,-1 247.29,-1 320.46,-1 320.46,-1 323.42,-1 326.38,-3.96 326.38,-6.92 326.38,-6.92 326.38,-12.83 326.38,-12.83 326.38,-15.79 323.42,-18.75 320.46,-18.75"/>
                    <text text-anchor="middle" x="283.88" y="-6.2" font-family="Helvetica,sans-Serif" font-size="9.00">strict&#45;rule&#45;set.d.ts</text>
                </a>
            </g>
        </g>
        <!-- strict&#45;options.d.ts&#45;&gt;strict&#45;rule&#45;set.d.ts -->
        <g id="edge35" class="edge">
            <title>strict&#45;options.d.ts&#45;&gt;strict&#45;rule&#45;set.d.ts</title>
            <path fill="none" stroke="#000000" stroke-width="2" stroke-opacity="0.200000" d="M217.53,-64.19C232.65,-64.19 246,-64.19 246,-64.19 246,-64.19 246,-27.84 246,-27.84"/>
            <polygon fill="#000000" fill-opacity="0.200000" stroke="#000000" stroke-width="2" stroke-opacity="0.200000" points="248.1,-27.84 246,-21.84 243.9,-27.84 248.1,-27.84"/>
        </g>
        <!-- strict&#45;rule&#45;set.d.ts&#45;&gt;rule&#45;set.d.ts -->
        <g id="edge37" class="edge">
            <title>strict&#45;rule&#45;set.d.ts&#45;&gt;rule&#45;set.d.ts</title>
            <path fill="none" stroke="#000000" stroke-width="2" stroke-opacity="0.200000" d="M323,-19C323,-25.45 323,-32.96 323,-32.96 323,-32.96 359.16,-32.96 359.16,-32.96"/>
            <polygon fill="#000000" fill-opacity="0.200000" stroke="#000000" stroke-width="2" stroke-opacity="0.200000" points="359.16,-35.06 365.16,-32.96 359.16,-30.86 359.16,-35.06"/>
        </g>
        <!-- strict&#45;rule&#45;set.d.ts&#45;&gt;shared&#45;types.d.ts -->
        <g id="edge38" class="edge">
            <title>strict&#45;rule&#45;set.d.ts&#45;&gt;shared&#45;types.d.ts</title>
            <path fill="none" stroke="#000000" stroke-width="2" stroke-opacity="0.200000" d="M319,-19.14C319,-21.98 319,-24.38 319,-24.38 319,-24.38 731,-24.38 731,-24.38 731,-24.38 731,-110.6 731,-110.6"/>
            <polygon fill="#000000" fill-opacity="0.200000" stroke="#000000" stroke-width="2" stroke-opacity="0.200000" points="728.9,-110.6 731,-116.6 733.1,-110.6 728.9,-110.6"/>
        </g>
        <!-- strict&#45;restrictions.d.ts -->
        <g id="node20" class="node">
            <title>strict&#45;restrictions.d.ts</title>
            <g id="a_node20">
                <a xlink:href="https://github.com/sverweij/dependency-cruiser/blob/v12/strict-restrictions.d.ts" xlink:title="strict&#45;restrictions.d.ts">
                    <path fill="#ddfeff" stroke="black" d="M443.21,-17.75C443.21,-17.75 356.54,-17.75 356.54,-17.75 353.58,-17.75 350.62,-14.79 350.62,-11.83 350.62,-11.83 350.62,-5.92 350.62,-5.92 350.62,-2.96 353.58,0 356.54,0 356.54,0 443.21,0 443.21,0 446.17,0 449.12,-2.96 449.12,-5.92 449.12,-5.92 449.12,-11.83 449.12,-11.83 449.12,-14.79 446.17,-17.75 443.21,-17.75"/>
                    <text text-anchor="middle" x="399.88" y="-5.2" font-family="Helvetica,sans-Serif" font-size="9.00">strict&#45;restrictions.d.ts</text>
                </a>
            </g>
        </g>
        <!-- strict&#45;rule&#45;set.d.ts&#45;&gt;strict&#45;restrictions.d.ts -->
        <g id="edge39" class="edge">
            <title>strict&#45;rule&#45;set.d.ts&#45;&gt;strict&#45;restrictions.d.ts</title>
            <path fill="none" stroke="#000000" stroke-width="2" stroke-opacity="0.200000" d="M326.74,-9.38C326.74,-9.38 341.13,-9.38 341.13,-9.38"/>
            <polygon fill="#000000" fill-opacity="0.200000" stroke="#000000" stroke-width="2" stroke-opacity="0.200000" points="341.13,-11.48 347.13,-9.38 341.13,-7.28 341.13,-11.48"/>
        </g>
        <!-- strict&#45;restrictions.d.ts&#45;&gt;restrictions.d.ts -->
        <g id="edge36" class="edge">
            <title>strict&#45;restrictions.d.ts&#45;&gt;restrictions.d.ts</title>
            <path fill="none" stroke="#000000" stroke-width="2" stroke-opacity="0.200000" d="M440,-18.03C440,-25.88 440,-35.92 440,-35.92 440,-35.92 458.28,-35.92 458.28,-35.92"/>
            <polygon fill="#000000" fill-opacity="0.200000" stroke="#000000" stroke-width="2" stroke-opacity="0.200000" points="458.28,-38.02 464.28,-35.92 458.28,-33.82 458.28,-38.02"/>
        </g>
    </g>
</svg>
