<?xml version="1.0" encoding="UTF-8" standalone="no"?>
<!DOCTYPE svg PUBLIC "-//W3C//DTD SVG 1.1//EN"
 "http://www.w3.org/Graphics/SVG/1.1/DTD/svg11.dtd">
<!-- Generated by graphviz version 2.48.0 (20210717.1556)
 -->
<!-- Title: dependency&#45;cruiser output Pages: 1 -->
<svg width="623pt" height="355pt"
 viewBox="0.00 0.00 623.00 355.00" xmlns="http://www.w3.org/2000/svg" xmlns:xlink="http://www.w3.org/1999/xlink">
<g id="graph0" class="graph" transform="scale(1 1) rotate(0) translate(4 351)">
<title>dependency&#45;cruiser output</title>
<polygon fill="white" stroke="transparent" points="-4,4 -4,-351 619,-351 619,4 -4,4"/>
<g id="clust1" class="cluster">
<title>cluster_..</title>
<path fill="#ffffff" stroke="black" stroke-width="2" d="M132,-8C132,-8 233,-8 233,-8 239,-8 245,-14 245,-20 245,-20 245,-150 245,-150 245,-156 239,-162 233,-162 233,-162 132,-162 132,-162 126,-162 120,-156 120,-150 120,-150 120,-20 120,-20 120,-14 126,-8 132,-8"/>
<text text-anchor="middle" x="182.5" y="-150.8" font-family="Helvetica,sans-Serif" font-weight="bold" font-size="9.00">..</text>
</g>
<g id="clust2" class="cluster">
<title>cluster_../node_modules</title>
<path fill="#ffffff" stroke="black" stroke-width="2" d="M140,-16C140,-16 225,-16 225,-16 231,-16 237,-22 237,-28 237,-28 237,-124 237,-124 237,-130 231,-136 225,-136 225,-136 140,-136 140,-136 134,-136 128,-130 128,-124 128,-124 128,-28 128,-28 128,-22 134,-16 140,-16"/>
<text text-anchor="middle" x="182.5" y="-124.8" font-family="Helvetica,sans-Serif" font-weight="bold" font-size="9.00">node_modules</text>
</g>
<g id="clust3" class="cluster">
<title>cluster_../node_modules/enhanced&#45;resolve</title>
<path fill="#ffffff" stroke="black" stroke-width="2" d="M148,-24C148,-24 217,-24 217,-24 223,-24 229,-30 229,-36 229,-36 229,-98 229,-98 229,-104 223,-110 217,-110 217,-110 148,-110 148,-110 142,-110 136,-104 136,-98 136,-98 136,-36 136,-36 136,-30 142,-24 148,-24"/>
<text text-anchor="middle" x="182.5" y="-98.8" font-family="Helvetica,sans-Serif" font-weight="bold" font-size="9.00">enhanced&#45;resolve</text>
</g>
<g id="clust4" class="cluster">
<title>cluster_../node_modules/enhanced&#45;resolve/lib</title>
<path fill="#ffffff" stroke="black" stroke-width="2" d="M159,-32C159,-32 205,-32 205,-32 211,-32 217,-38 217,-44 217,-44 217,-72 217,-72 217,-78 211,-84 205,-84 205,-84 159,-84 159,-84 153,-84 147,-78 147,-72 147,-72 147,-44 147,-44 147,-38 153,-32 159,-32"/>
<text text-anchor="middle" x="182" y="-72.8" font-family="Helvetica,sans-Serif" font-weight="bold" font-size="9.00">lib</text>
</g>
<!-- ../node_modules/enhanced&#45;resolve/lib/index.js -->
<g id="node1" class="node">
<title>../node_modules/enhanced&#45;resolve/lib/index.js</title>
<g id="a_node1"><a xlink:href="https://github.com/sverweij/dependency-cruiser/blob/develop/../node_modules/enhanced-resolve/lib/index.js" xlink:title="index.js">
<polygon fill="#c40b0a" fill-opacity="0.101961" stroke="black" points="209,-58 207.5,-60 197,-60 195.5,-58 155,-58 155,-40 209,-40 209,-58"/>
<text text-anchor="middle" x="182" y="-46.8" font-family="Helvetica,sans-Serif" font-size="9.00" fill="#c40b0a">index.js</text>
</a>
</g>
</g>
<!-- baseline&#45;violations.d.ts -->
<g id="node2" class="node">
<title>baseline&#45;violations.d.ts</title>
<g id="a_node2"><a xlink:href="https://github.com/sverweij/dependency-cruiser/blob/develop/baseline-violations.d.ts" xlink:title="baseline&#45;violations.d.ts">
<path fill="#ddfeff" stroke="black" d="M104,-317C104,-317 8,-317 8,-317 5,-317 2,-314 2,-311 2,-311 2,-305 2,-305 2,-302 5,-299 8,-299 8,-299 104,-299 104,-299 107,-299 110,-302 110,-305 110,-305 110,-311 110,-311 110,-314 107,-317 104,-317"/>
<text text-anchor="middle" x="56" y="-305.8" font-family="Helvetica,sans-Serif" font-size="9.00">baseline&#45;violations.d.ts</text>
</a>
</g>
</g>
<!-- cruise&#45;result.d.ts -->
<g id="node3" class="node">
<title>cruise&#45;result.d.ts</title>
<g id="a_node3"><a xlink:href="https://github.com/sverweij/dependency-cruiser/blob/develop/cruise-result.d.ts" xlink:title="cruise&#45;result.d.ts">
<path fill="#ddfeff" stroke="black" d="M217.5,-260C217.5,-260 146.5,-260 146.5,-260 143.5,-260 140.5,-257 140.5,-254 140.5,-254 140.5,-248 140.5,-248 140.5,-245 143.5,-242 146.5,-242 146.5,-242 217.5,-242 217.5,-242 220.5,-242 223.5,-245 223.5,-248 223.5,-248 223.5,-254 223.5,-254 223.5,-257 220.5,-260 217.5,-260"/>
<text text-anchor="middle" x="182" y="-248.8" font-family="Helvetica,sans-Serif" font-size="9.00">cruise&#45;result.d.ts</text>
</a>
</g>
</g>
<!-- baseline&#45;violations.d.ts&#45;&gt;cruise&#45;result.d.ts -->
<g id="edge1" class="edge">
<title>baseline&#45;violations.d.ts&#45;&gt;cruise&#45;result.d.ts</title>
<path fill="none" stroke="#000000" stroke-width="2" stroke-opacity="0.200000" d="M110.11,-308.5C121.94,-308.5 131,-308.5 131,-308.5 131,-308.5 131,-255.5 131,-255.5 131,-255.5 134.35,-255.5 134.35,-255.5"/>
<polygon fill="#000000" fill-opacity="0.200000" stroke="#000000" stroke-width="2" stroke-opacity="0.200000" points="134.35,-257.6 140.35,-255.5 134.35,-253.4 134.35,-257.6"/>
</g>
<!-- options.d.ts -->
<g id="node5" class="node">
<title>options.d.ts</title>
<g id="a_node5"><a xlink:href="https://github.com/sverweij/dependency-cruiser/blob/develop/options.d.ts" xlink:title="options.d.ts">
<path fill="#ddfeff" stroke="black" d="M310,-318C310,-318 259,-318 259,-318 256,-318 253,-315 253,-312 253,-312 253,-306 253,-306 253,-303 256,-300 259,-300 259,-300 310,-300 310,-300 313,-300 316,-303 316,-306 316,-306 316,-312 316,-312 316,-315 313,-318 310,-318"/>
<text text-anchor="middle" x="284.5" y="-306.8" font-family="Helvetica,sans-Serif" font-size="9.00">options.d.ts</text>
</a>
</g>
</g>
<!-- cruise&#45;result.d.ts&#45;&gt;options.d.ts -->
<g id="edge4" class="edge">
<title>cruise&#45;result.d.ts&#45;&gt;options.d.ts</title>
<path fill="none" stroke="#000000" stroke-width="2" stroke-opacity="0.200000" d="M223.76,-253.8C255.95,-253.8 295,-253.8 295,-253.8 295,-253.8 295,-293.88 295,-293.88"/>
<polygon fill="#000000" fill-opacity="0.200000" stroke="#000000" stroke-width="2" stroke-opacity="0.200000" points="292.9,-293.88 295,-299.88 297.1,-293.88 292.9,-293.88"/>
</g>
<!-- rule&#45;set.d.ts -->
<g id="node6" class="node">
<title>rule&#45;set.d.ts</title>
<g id="a_node6"><a xlink:href="https://github.com/sverweij/dependency-cruiser/blob/develop/rule-set.d.ts" xlink:title="rule&#45;set.d.ts">
<path fill="#ddfeff" stroke="black" d="M403.5,-277C403.5,-277 351.5,-277 351.5,-277 348.5,-277 345.5,-274 345.5,-271 345.5,-271 345.5,-265 345.5,-265 345.5,-262 348.5,-259 351.5,-259 351.5,-259 403.5,-259 403.5,-259 406.5,-259 409.5,-262 409.5,-265 409.5,-265 409.5,-271 409.5,-271 409.5,-274 406.5,-277 403.5,-277"/>
<text text-anchor="middle" x="377.5" y="-265.8" font-family="Helvetica,sans-Serif" font-size="9.00">rule&#45;set.d.ts</text>
</a>
</g>
</g>
<!-- cruise&#45;result.d.ts&#45;&gt;rule&#45;set.d.ts -->
<g id="edge5" class="edge">
<title>cruise&#45;result.d.ts&#45;&gt;rule&#45;set.d.ts</title>
<path fill="none" stroke="#000000" stroke-width="2" stroke-opacity="0.200000" d="M223.52,-251.2C278.06,-251.2 367,-251.2 367,-251.2 367,-251.2 367,-252.81 367,-252.81"/>
<polygon fill="#000000" fill-opacity="0.200000" stroke="#000000" stroke-width="2" stroke-opacity="0.200000" points="364.9,-252.81 367,-258.81 369.1,-252.81 364.9,-252.81"/>
</g>
<!-- shared&#45;types.d.ts -->
<g id="node7" class="node">
<title>shared&#45;types.d.ts</title>
<g id="a_node7"><a xlink:href="https://github.com/sverweij/dependency-cruiser/blob/develop/shared-types.d.ts" xlink:title="shared&#45;types.d.ts">
<path fill="#ddfeff" stroke="black" d="M609,-278C609,-278 535,-278 535,-278 532,-278 529,-275 529,-272 529,-272 529,-266 529,-266 529,-263 532,-260 535,-260 535,-260 609,-260 609,-260 612,-260 615,-263 615,-266 615,-266 615,-272 615,-272 615,-275 612,-278 609,-278"/>
<text text-anchor="middle" x="572" y="-266.8" font-family="Helvetica,sans-Serif" font-size="9.00">shared&#45;types.d.ts</text>
</a>
</g>
</g>
<!-- cruise&#45;result.d.ts&#45;&gt;shared&#45;types.d.ts -->
<g id="edge6" class="edge">
<title>cruise&#45;result.d.ts&#45;&gt;shared&#45;types.d.ts</title>
<path fill="none" stroke="#000000" stroke-width="2" stroke-opacity="0.200000" d="M223.65,-248.6C291.4,-248.6 418,-248.6 418,-248.6 418,-248.6 418,-269.2 418,-269.2 418,-269.2 522.69,-269.2 522.69,-269.2"/>
<polygon fill="#000000" fill-opacity="0.200000" stroke="#000000" stroke-width="2" stroke-opacity="0.200000" points="522.69,-271.3 528.69,-269.2 522.69,-267.1 522.69,-271.3"/>
</g>
<!-- configuration.d.ts -->
<g id="node4" class="node">
<title>configuration.d.ts</title>
<g id="a_node4"><a xlink:href="https://github.com/sverweij/dependency-cruiser/blob/develop/configuration.d.ts" xlink:title="configuration.d.ts">
<path fill="#ddfeff" stroke="black" d="M218.5,-290C218.5,-290 145.5,-290 145.5,-290 142.5,-290 139.5,-287 139.5,-284 139.5,-284 139.5,-278 139.5,-278 139.5,-275 142.5,-272 145.5,-272 145.5,-272 218.5,-272 218.5,-272 221.5,-272 224.5,-275 224.5,-278 224.5,-278 224.5,-284 224.5,-284 224.5,-287 221.5,-290 218.5,-290"/>
<text text-anchor="middle" x="182" y="-278.8" font-family="Helvetica,sans-Serif" font-size="9.00">configuration.d.ts</text>
</a>
</g>
</g>
<!-- configuration.d.ts&#45;&gt;options.d.ts -->
<g id="edge2" class="edge">
<title>configuration.d.ts&#45;&gt;options.d.ts</title>
<path fill="none" stroke="#000000" stroke-width="2" stroke-opacity="0.200000" d="M224.77,-286C248.79,-286 274,-286 274,-286 274,-286 274,-293.91 274,-293.91"/>
<polygon fill="#000000" fill-opacity="0.200000" stroke="#000000" stroke-width="2" stroke-opacity="0.200000" points="271.9,-293.91 274,-299.91 276.1,-293.91 271.9,-293.91"/>
</g>
<!-- configuration.d.ts&#45;&gt;rule&#45;set.d.ts -->
<g id="edge3" class="edge">
<title>configuration.d.ts&#45;&gt;rule&#45;set.d.ts</title>
<path fill="none" stroke="#000000" stroke-width="2" stroke-opacity="0.200000" d="M224.91,-282C279.56,-282 367,-282 367,-282 367,-282 367,-281.53 367,-281.53"/>
<polygon fill="#000000" fill-opacity="0.200000" stroke="#000000" stroke-width="2" stroke-opacity="0.200000" points="369.1,-283.26 367,-277.26 364.9,-283.26 369.1,-283.26"/>
</g>
<!-- options.d.ts&#45;&gt;baseline&#45;violations.d.ts -->
<g id="edge13" class="edge">
<title>options.d.ts&#45;&gt;baseline&#45;violations.d.ts</title>
<path fill="none" stroke="#000000" stroke-width="2" stroke-opacity="0.200000" d="M252.73,-312.75C252.73,-312.75 116.33,-312.75 116.33,-312.75"/>
<polygon fill="#000000" fill-opacity="0.200000" stroke="#000000" stroke-width="2" stroke-opacity="0.200000" points="116.33,-310.65 110.33,-312.75 116.33,-314.85 116.33,-310.65"/>
</g>
<!-- options.d.ts&#45;&gt;rule&#45;set.d.ts -->
<g id="edge16" class="edge">
<title>options.d.ts&#45;&gt;rule&#45;set.d.ts</title>
<path fill="none" stroke="#000000" stroke-width="2" stroke-opacity="0.200000" d="M316.14,-303.6C346.89,-303.6 389,-303.6 389,-303.6 389,-303.6 389,-283.35 389,-283.35"/>
<polygon fill="#000000" fill-opacity="0.200000" stroke="#000000" stroke-width="2" stroke-opacity="0.200000" points="391.1,-283.35 389,-277.35 386.9,-283.35 391.1,-283.35"/>
</g>
<!-- options.d.ts&#45;&gt;shared&#45;types.d.ts -->
<g id="edge17" class="edge">
<title>options.d.ts&#45;&gt;shared&#45;types.d.ts</title>
<path fill="none" stroke="#000000" stroke-width="2" stroke-opacity="0.200000" d="M316.02,-307.2C393.49,-307.2 587,-307.2 587,-307.2 587,-307.2 587,-284.25 587,-284.25"/>
<polygon fill="#000000" fill-opacity="0.200000" stroke="#000000" stroke-width="2" stroke-opacity="0.200000" points="589.1,-284.25 587,-278.25 584.9,-284.25 589.1,-284.25"/>
</g>
<!-- filter&#45;types.d.ts -->
<g id="node9" class="node">
<title>filter&#45;types.d.ts</title>
<g id="a_node9"><a xlink:href="https://github.com/sverweij/dependency-cruiser/blob/develop/filter-types.d.ts" xlink:title="filter&#45;types.d.ts">
<path fill="#ddfeff" stroke="black" d="M509,-346C509,-346 446,-346 446,-346 443,-346 440,-343 440,-340 440,-340 440,-334 440,-334 440,-331 443,-328 446,-328 446,-328 509,-328 509,-328 512,-328 515,-331 515,-334 515,-334 515,-340 515,-340 515,-343 512,-346 509,-346"/>
<text text-anchor="middle" x="477.5" y="-334.8" font-family="Helvetica,sans-Serif" font-size="9.00">filter&#45;types.d.ts</text>
</a>
</g>
</g>
<!-- options.d.ts&#45;&gt;filter&#45;types.d.ts -->
<g id="edge14" class="edge">
<title>options.d.ts&#45;&gt;filter&#45;types.d.ts</title>
<path fill="none" stroke="#000000" stroke-width="2" stroke-opacity="0.200000" d="M316.1,-310.8C366.39,-310.8 459,-310.8 459,-310.8 459,-310.8 459,-321.84 459,-321.84"/>
<polygon fill="#000000" fill-opacity="0.200000" stroke="#000000" stroke-width="2" stroke-opacity="0.200000" points="456.9,-321.84 459,-327.84 461.1,-321.84 456.9,-321.84"/>
</g>
<!-- reporter&#45;options.d.ts -->
<g id="node11" class="node">
<title>reporter&#45;options.d.ts</title>
<g id="a_node11"><a xlink:href="https://github.com/sverweij/dependency-cruiser/blob/develop/reporter-options.d.ts" xlink:title="reporter&#45;options.d.ts">
<path fill="#ddfeff" stroke="black" d="M420,-346C420,-346 335,-346 335,-346 332,-346 329,-343 329,-340 329,-340 329,-334 329,-334 329,-331 332,-328 335,-328 335,-328 420,-328 420,-328 423,-328 426,-331 426,-334 426,-334 426,-340 426,-340 426,-343 423,-346 420,-346"/>
<text text-anchor="middle" x="377.5" y="-334.8" font-family="Helvetica,sans-Serif" font-size="9.00">reporter&#45;options.d.ts</text>
</a>
</g>
</g>
<!-- options.d.ts&#45;&gt;reporter&#45;options.d.ts -->
<g id="edge15" class="edge">
<title>options.d.ts&#45;&gt;reporter&#45;options.d.ts</title>
<path fill="none" stroke="#000000" stroke-width="2" stroke-opacity="0.200000" d="M316.24,-314.4C327.76,-314.4 338,-314.4 338,-314.4 338,-314.4 338,-321.81 338,-321.81"/>
<polygon fill="#000000" fill-opacity="0.200000" stroke="#000000" stroke-width="2" stroke-opacity="0.200000" points="335.9,-321.81 338,-327.81 340.1,-321.81 335.9,-321.81"/>
</g>
<!-- rule&#45;set.d.ts&#45;&gt;shared&#45;types.d.ts -->
<g id="edge22" class="edge">
<title>rule&#45;set.d.ts&#45;&gt;shared&#45;types.d.ts</title>
<path fill="none" stroke="#000000" stroke-width="2" stroke-opacity="0.200000" d="M409.62,-271.8C409.62,-271.8 522.9,-271.8 522.9,-271.8"/>
<polygon fill="#000000" fill-opacity="0.200000" stroke="#000000" stroke-width="2" stroke-opacity="0.200000" points="522.9,-273.9 528.9,-271.8 522.9,-269.7 522.9,-273.9"/>
</g>
<!-- restrictions.d.ts -->
<g id="node13" class="node">
<title>restrictions.d.ts</title>
<g id="a_node13"><a xlink:href="https://github.com/sverweij/dependency-cruiser/blob/develop/restrictions.d.ts" xlink:title="restrictions.d.ts">
<path fill="#ddfeff" stroke="black" d="M510,-264C510,-264 445,-264 445,-264 442,-264 439,-261 439,-258 439,-258 439,-252 439,-252 439,-249 442,-246 445,-246 445,-246 510,-246 510,-246 513,-246 516,-249 516,-252 516,-252 516,-258 516,-258 516,-261 513,-264 510,-264"/>
<text text-anchor="middle" x="477.5" y="-252.8" font-family="Helvetica,sans-Serif" font-size="9.00">restrictions.d.ts</text>
</a>
</g>
</g>
<!-- rule&#45;set.d.ts&#45;&gt;restrictions.d.ts -->
<g id="edge21" class="edge">
<title>rule&#45;set.d.ts&#45;&gt;restrictions.d.ts</title>
<path fill="none" stroke="#000000" stroke-width="2" stroke-opacity="0.200000" d="M389,-258.64C389,-257.32 389,-256.4 389,-256.4 389,-256.4 432.94,-256.4 432.94,-256.4"/>
<polygon fill="#000000" fill-opacity="0.200000" stroke="#000000" stroke-width="2" stroke-opacity="0.200000" points="432.94,-258.5 438.94,-256.4 432.94,-254.3 432.94,-258.5"/>
</g>
<!-- dependency&#45;cruiser.d.ts -->
<g id="node8" class="node">
<title>dependency&#45;cruiser.d.ts</title>
<g id="a_node8"><a xlink:href="https://github.com/sverweij/dependency-cruiser/blob/develop/dependency-cruiser.d.ts" xlink:title="dependency&#45;cruiser.d.ts">
<path fill="#ddfeff" stroke="black" d="M106,-260C106,-260 6,-260 6,-260 3,-260 0,-257 0,-254 0,-254 0,-248 0,-248 0,-245 3,-242 6,-242 6,-242 106,-242 106,-242 109,-242 112,-245 112,-248 112,-248 112,-254 112,-254 112,-257 109,-260 106,-260"/>
<text text-anchor="middle" x="56" y="-248.8" font-family="Helvetica,sans-Serif" font-size="9.00">dependency&#45;cruiser.d.ts</text>
</a>
</g>
</g>
<!-- dependency&#45;cruiser.d.ts&#45;&gt;cruise&#45;result.d.ts -->
<g id="edge8" class="edge">
<title>dependency&#45;cruiser.d.ts&#45;&gt;cruise&#45;result.d.ts</title>
<path fill="none" stroke="#000000" stroke-width="2" stroke-opacity="0.200000" d="M112.37,-251C112.37,-251 134.42,-251 134.42,-251"/>
<polygon fill="#000000" fill-opacity="0.200000" stroke="#000000" stroke-width="2" stroke-opacity="0.200000" points="134.42,-253.1 140.42,-251 134.42,-248.9 134.42,-253.1"/>
</g>
<!-- dependency&#45;cruiser.d.ts&#45;&gt;configuration.d.ts -->
<g id="edge7" class="edge">
<title>dependency&#45;cruiser.d.ts&#45;&gt;configuration.d.ts</title>
<path fill="none" stroke="#000000" stroke-width="2" stroke-opacity="0.200000" d="M83,-260.16C83,-268.99 83,-281 83,-281 83,-281 133.44,-281 133.44,-281"/>
<polygon fill="#000000" fill-opacity="0.200000" stroke="#000000" stroke-width="2" stroke-opacity="0.200000" points="133.44,-283.1 139.44,-281 133.44,-278.9 133.44,-283.1"/>
</g>
<!-- dependency&#45;cruiser.d.ts&#45;&gt;options.d.ts -->
<g id="edge9" class="edge">
<title>dependency&#45;cruiser.d.ts&#45;&gt;options.d.ts</title>
<path fill="none" stroke="#000000" stroke-width="2" stroke-opacity="0.200000" d="M112.26,-246.5C118.13,-246.5 122,-246.5 122,-246.5 122,-246.5 122,-304.25 122,-304.25 122,-304.25 246.78,-304.25 246.78,-304.25"/>
<polygon fill="#000000" fill-opacity="0.200000" stroke="#000000" stroke-width="2" stroke-opacity="0.200000" points="246.78,-306.35 252.78,-304.25 246.78,-302.15 246.78,-306.35"/>
</g>
<!-- dependency&#45;cruiser.d.ts&#45;&gt;rule&#45;set.d.ts -->
<g id="edge10" class="edge">
<title>dependency&#45;cruiser.d.ts&#45;&gt;rule&#45;set.d.ts</title>
<path fill="none" stroke="#000000" stroke-width="2" stroke-opacity="0.200000" d="M56,-260.24C56,-263.33 56,-266 56,-266 56,-266 339.5,-266 339.5,-266"/>
<polygon fill="#000000" fill-opacity="0.200000" stroke="#000000" stroke-width="2" stroke-opacity="0.200000" points="339.5,-268.1 345.5,-266 339.5,-263.9 339.5,-268.1"/>
</g>
<!-- dependency&#45;cruiser.d.ts&#45;&gt;shared&#45;types.d.ts -->
<g id="edge11" class="edge">
<title>dependency&#45;cruiser.d.ts&#45;&gt;shared&#45;types.d.ts</title>
<path fill="none" stroke="#000000" stroke-width="2" stroke-opacity="0.200000" d="M29,-260.23C29,-272.99 29,-294.5 29,-294.5 29,-294.5 558,-294.5 558,-294.5 558,-294.5 558,-284.21 558,-284.21"/>
<polygon fill="#000000" fill-opacity="0.200000" stroke="#000000" stroke-width="2" stroke-opacity="0.200000" points="560.1,-284.21 558,-278.21 555.9,-284.21 560.1,-284.21"/>
</g>
<!-- filter&#45;types.d.ts&#45;&gt;shared&#45;types.d.ts -->
<g id="edge12" class="edge">
<title>filter&#45;types.d.ts&#45;&gt;shared&#45;types.d.ts</title>
<path fill="none" stroke="#000000" stroke-width="2" stroke-opacity="0.200000" d="M497,-327.76C497,-310.35 497,-274.4 497,-274.4 497,-274.4 522.81,-274.4 522.81,-274.4"/>
<polygon fill="#000000" fill-opacity="0.200000" stroke="#000000" stroke-width="2" stroke-opacity="0.200000" points="522.81,-276.5 528.81,-274.4 522.81,-272.3 522.81,-276.5"/>
</g>
<!-- init&#45;config.d.ts -->
<g id="node10" class="node">
<title>init&#45;config.d.ts</title>
<g id="a_node10"><a xlink:href="https://github.com/sverweij/dependency-cruiser/blob/develop/init-config.d.ts" xlink:title="init&#45;config.d.ts">
<path fill="#ccffcc" stroke="black" d="M86,-347C86,-347 26,-347 26,-347 23,-347 20,-344 20,-341 20,-341 20,-335 20,-335 20,-332 23,-329 26,-329 26,-329 86,-329 86,-329 89,-329 92,-332 92,-335 92,-335 92,-341 92,-341 92,-344 89,-347 86,-347"/>
<text text-anchor="middle" x="56" y="-335.8" font-family="Helvetica,sans-Serif" font-size="9.00">init&#45;config.d.ts</text>
</a>
</g>
</g>
<!-- reporter&#45;options.d.ts&#45;&gt;filter&#45;types.d.ts -->
<g id="edge18" class="edge">
<title>reporter&#45;options.d.ts&#45;&gt;filter&#45;types.d.ts</title>
<path fill="none" stroke="#000000" stroke-width="2" stroke-opacity="0.200000" d="M426.04,-337C426.04,-337 433.96,-337 433.96,-337"/>
<polygon fill="#000000" fill-opacity="0.200000" stroke="#000000" stroke-width="2" stroke-opacity="0.200000" points="433.96,-339.1 439.96,-337 433.96,-334.9 433.96,-339.1"/>
</g>
<!-- resolve&#45;options.d.ts -->
<g id="node12" class="node">
<title>resolve&#45;options.d.ts</title>
<g id="a_node12"><a xlink:href="https://github.com/sverweij/dependency-cruiser/blob/develop/resolve-options.d.ts" xlink:title="resolve&#45;options.d.ts">
<path fill="#ddfeff" stroke="black" d="M97.5,-58C97.5,-58 14.5,-58 14.5,-58 11.5,-58 8.5,-55 8.5,-52 8.5,-52 8.5,-46 8.5,-46 8.5,-43 11.5,-40 14.5,-40 14.5,-40 97.5,-40 97.5,-40 100.5,-40 103.5,-43 103.5,-46 103.5,-46 103.5,-52 103.5,-52 103.5,-55 100.5,-58 97.5,-58"/>
<text text-anchor="middle" x="56" y="-46.8" font-family="Helvetica,sans-Serif" font-size="9.00">resolve&#45;options.d.ts</text>
</a>
</g>
</g>
<!-- resolve&#45;options.d.ts&#45;&gt;../node_modules/enhanced&#45;resolve/lib/index.js -->
<g id="edge19" class="edge">
<title>resolve&#45;options.d.ts&#45;&gt;../node_modules/enhanced&#45;resolve/lib/index.js</title>
<path fill="none" stroke="#000000" stroke-opacity="0.200000" d="M103.64,-49C103.64,-49 148.77,-49 148.77,-49"/>
<polygon fill="#000000" fill-opacity="0.200000" stroke="#000000" stroke-opacity="0.200000" points="148.77,-51.1 154.77,-49 148.77,-46.9 148.77,-51.1"/>
</g>
<!-- restrictions.d.ts&#45;&gt;shared&#45;types.d.ts -->
<g id="edge20" class="edge">
<title>restrictions.d.ts&#45;&gt;shared&#45;types.d.ts</title>
<path fill="none" stroke="#000000" stroke-width="2" stroke-opacity="0.200000" d="M478,-264.36C478,-265.68 478,-266.6 478,-266.6 478,-266.6 522.85,-266.6 522.85,-266.6"/>
<polygon fill="#000000" fill-opacity="0.200000" stroke="#000000" stroke-width="2" stroke-opacity="0.200000" points="522.85,-268.7 528.85,-266.6 522.85,-264.5 522.85,-268.7"/>
</g>
</g>
</svg>
