<?xml version="1.0" encoding="UTF-8" standalone="no"?>
<!DOCTYPE svg PUBLIC "-//W3C//DTD SVG 1.1//EN"
 "http://www.w3.org/Graphics/SVG/1.1/DTD/svg11.dtd">
<!-- Generated by graphviz version 5.0.0 (20220707.1540)
 -->
<!-- Title: dependency&#45;cruiser output Pages: 1 -->
<svg width="756pt" height="260pt"
 viewBox="0.00 0.00 756.00 260.00" xmlns="http://www.w3.org/2000/svg" xmlns:xlink="http://www.w3.org/1999/xlink">
<g id="graph0" class="graph" transform="scale(1 1) rotate(0) translate(4 256)">
<title>dependency&#45;cruiser output</title>
<polygon fill="white" stroke="transparent" points="-4,4 -4,-256 752,-256 752,4 -4,4"/>
<g id="clust1" class="cluster">
<title>cluster_node_modules</title>
<path fill="#ffffff" stroke="black" stroke-width="2" d="M244,-66C244,-66 327,-66 327,-66 333,-66 339,-72 339,-78 339,-78 339,-136 339,-136 339,-142 333,-148 327,-148 327,-148 244,-148 244,-148 238,-148 232,-142 232,-136 232,-136 232,-78 232,-78 232,-72 238,-66 244,-66"/>
<text text-anchor="middle" x="285.5" y="-136.8" font-family="Helvetica,sans-Serif" font-weight="bold" font-size="9.00">node_modules</text>
</g>
<!-- baseline&#45;violations.d.ts -->
<g id="node1" class="node">
<title>baseline&#45;violations.d.ts</title>
<g id="a_node1"><a xlink:href="https://github.com/sverweij/dependency-cruiser/blob/develop/baseline-violations.d.ts" xlink:title="baseline&#45;violations.d.ts">
<path fill="#ddfeff" stroke="black" d="M451,-226C451,-226 353,-226 353,-226 350,-226 347,-223 347,-220 347,-220 347,-214 347,-214 347,-211 350,-208 353,-208 353,-208 451,-208 451,-208 454,-208 457,-211 457,-214 457,-214 457,-220 457,-220 457,-223 454,-226 451,-226"/>
<text text-anchor="middle" x="402" y="-214.8" font-family="Helvetica,sans-Serif" font-size="9.00">baseline&#45;violations.d.ts</text>
</a>
</g>
</g>
<!-- violations.d.ts -->
<g id="node2" class="node">
<title>violations.d.ts</title>
<g id="a_node2"><a xlink:href="https://github.com/sverweij/dependency-cruiser/blob/develop/violations.d.ts" xlink:title="violations.d.ts">
<path fill="#ddfeff" stroke="black" d="M538.5,-239C538.5,-239 478.5,-239 478.5,-239 475.5,-239 472.5,-236 472.5,-233 472.5,-233 472.5,-227 472.5,-227 472.5,-224 475.5,-221 478.5,-221 478.5,-221 538.5,-221 538.5,-221 541.5,-221 544.5,-224 544.5,-227 544.5,-227 544.5,-233 544.5,-233 544.5,-236 541.5,-239 538.5,-239"/>
<text text-anchor="middle" x="508.5" y="-227.8" font-family="Helvetica,sans-Serif" font-size="9.00">violations.d.ts</text>
</a>
</g>
</g>
<!-- baseline&#45;violations.d.ts&#45;&gt;violations.d.ts -->
<g id="edge1" class="edge">
<title>baseline&#45;violations.d.ts&#45;&gt;violations.d.ts</title>
<path fill="none" stroke="#000000" stroke-width="2" stroke-opacity="0.200000" d="M457.32,-214.5C488.4,-214.5 521,-214.5 521,-214.5 521,-214.5 521,-215.13 521,-215.13"/>
<polygon fill="#000000" fill-opacity="0.200000" stroke="#000000" stroke-width="2" stroke-opacity="0.200000" points="518.9,-214.8 521,-220.8 523.1,-214.8 518.9,-214.8"/>
</g>
<!-- rule&#45;summary.d.ts -->
<g id="node7" class="node">
<title>rule&#45;summary.d.ts</title>
<g id="a_node7"><a xlink:href="https://github.com/sverweij/dependency-cruiser/blob/develop/rule-summary.d.ts" xlink:title="rule&#45;summary.d.ts">
<path fill="#ddfeff" stroke="black" d="M643,-252C643,-252 566,-252 566,-252 563,-252 560,-249 560,-246 560,-246 560,-240 560,-240 560,-237 563,-234 566,-234 566,-234 643,-234 643,-234 646,-234 649,-237 649,-240 649,-240 649,-246 649,-246 649,-249 646,-252 643,-252"/>
<text text-anchor="middle" x="604.5" y="-240.8" font-family="Helvetica,sans-Serif" font-size="9.00">rule&#45;summary.d.ts</text>
</a>
</g>
</g>
<!-- violations.d.ts&#45;&gt;rule&#45;summary.d.ts -->
<g id="edge38" class="edge">
<title>violations.d.ts&#45;&gt;rule&#45;summary.d.ts</title>
<path fill="none" stroke="#000000" stroke-width="2" stroke-opacity="0.200000" d="M509,-239.02C509,-242.87 509,-246.5 509,-246.5 509,-246.5 553.83,-246.5 553.83,-246.5"/>
<polygon fill="#000000" fill-opacity="0.200000" stroke="#000000" stroke-width="2" stroke-opacity="0.200000" points="553.83,-248.6 559.83,-246.5 553.83,-244.4 553.83,-248.6"/>
</g>
<!-- shared&#45;types.d.ts -->
<g id="node8" class="node">
<title>shared&#45;types.d.ts</title>
<g id="a_node8"><a xlink:href="https://github.com/sverweij/dependency-cruiser/blob/develop/shared-types.d.ts" xlink:title="shared&#45;types.d.ts">
<path fill="#ddfeff" stroke="black" d="M742,-156C742,-156 668,-156 668,-156 665,-156 662,-153 662,-150 662,-150 662,-144 662,-144 662,-141 665,-138 668,-138 668,-138 742,-138 742,-138 745,-138 748,-141 748,-144 748,-144 748,-150 748,-150 748,-153 745,-156 742,-156"/>
<text text-anchor="middle" x="705" y="-144.8" font-family="Helvetica,sans-Serif" font-size="9.00">shared&#45;types.d.ts</text>
</a>
</g>
</g>
<!-- violations.d.ts&#45;&gt;shared&#45;types.d.ts -->
<g id="edge39" class="edge">
<title>violations.d.ts&#45;&gt;shared&#45;types.d.ts</title>
<path fill="none" stroke="#000000" stroke-width="2" stroke-opacity="0.200000" d="M544.86,-227.5C605.33,-227.5 720,-227.5 720,-227.5 720,-227.5 720,-162.23 720,-162.23"/>
<polygon fill="#000000" fill-opacity="0.200000" stroke="#000000" stroke-width="2" stroke-opacity="0.200000" points="722.1,-162.23 720,-156.23 717.9,-162.23 722.1,-162.23"/>
</g>
<!-- configuration.d.ts -->
<g id="node3" class="node">
<title>configuration.d.ts</title>
<g id="a_node3"><a xlink:href="https://github.com/sverweij/dependency-cruiser/blob/develop/configuration.d.ts" xlink:title="configuration.d.ts">
<path fill="#ddfeff" stroke="black" d="M213,-241C213,-241 139,-241 139,-241 136,-241 133,-238 133,-235 133,-235 133,-229 133,-229 133,-226 136,-223 139,-223 139,-223 213,-223 213,-223 216,-223 219,-226 219,-229 219,-229 219,-235 219,-235 219,-238 216,-241 213,-241"/>
<text text-anchor="middle" x="176" y="-229.8" font-family="Helvetica,sans-Serif" font-size="9.00">configuration.d.ts</text>
</a>
</g>
</g>
<!-- options.d.ts -->
<g id="node4" class="node">
<title>options.d.ts</title>
<g id="a_node4"><a xlink:href="https://github.com/sverweij/dependency-cruiser/blob/develop/options.d.ts" xlink:title="options.d.ts">
<path fill="#ddfeff" stroke="black" d="M311,-226C311,-226 260,-226 260,-226 257,-226 254,-223 254,-220 254,-220 254,-214 254,-214 254,-211 257,-208 260,-208 260,-208 311,-208 311,-208 314,-208 317,-211 317,-214 317,-214 317,-220 317,-220 317,-223 314,-226 311,-226"/>
<text text-anchor="middle" x="285.5" y="-214.8" font-family="Helvetica,sans-Serif" font-size="9.00">options.d.ts</text>
</a>
</g>
</g>
<!-- configuration.d.ts&#45;&gt;options.d.ts -->
<g id="edge2" class="edge">
<title>configuration.d.ts&#45;&gt;options.d.ts</title>
<path fill="none" stroke="#000000" stroke-width="2" stroke-opacity="0.200000" d="M219.16,-230.33C249.98,-230.33 286,-230.33 286,-230.33 286,-230.33 286,-229.91 286,-229.91"/>
<polygon fill="#000000" fill-opacity="0.200000" stroke="#000000" stroke-width="2" stroke-opacity="0.200000" points="288.1,-232.11 286,-226.11 283.9,-232.11 288.1,-232.11"/>
</g>
<!-- rule&#45;set.d.ts -->
<g id="node5" class="node">
<title>rule&#45;set.d.ts</title>
<g id="a_node5"><a xlink:href="https://github.com/sverweij/dependency-cruiser/blob/develop/rule-set.d.ts" xlink:title="rule&#45;set.d.ts">
<path fill="#ddfeff" stroke="black" d="M428,-114C428,-114 376,-114 376,-114 373,-114 370,-111 370,-108 370,-108 370,-102 370,-102 370,-99 373,-96 376,-96 376,-96 428,-96 428,-96 431,-96 434,-99 434,-102 434,-102 434,-108 434,-108 434,-111 431,-114 428,-114"/>
<text text-anchor="middle" x="402" y="-102.8" font-family="Helvetica,sans-Serif" font-size="9.00">rule&#45;set.d.ts</text>
</a>
</g>
</g>
<!-- configuration.d.ts&#45;&gt;rule&#45;set.d.ts -->
<g id="edge3" class="edge">
<title>configuration.d.ts&#45;&gt;rule&#45;set.d.ts</title>
<path fill="none" stroke="#000000" stroke-width="2" stroke-opacity="0.200000" d="M219.15,-234.67C264.09,-234.67 328,-234.67 328,-234.67 328,-234.67 328,-111.5 328,-111.5 328,-111.5 363.76,-111.5 363.76,-111.5"/>
<polygon fill="#000000" fill-opacity="0.200000" stroke="#000000" stroke-width="2" stroke-opacity="0.200000" points="363.76,-113.6 369.76,-111.5 363.76,-109.4 363.76,-113.6"/>
</g>
<!-- options.d.ts&#45;&gt;baseline&#45;violations.d.ts -->
<g id="edge17" class="edge">
<title>options.d.ts&#45;&gt;baseline&#45;violations.d.ts</title>
<path fill="none" stroke="#000000" stroke-width="2" stroke-opacity="0.200000" d="M317.03,-220C317.03,-220 340.66,-220 340.66,-220"/>
<polygon fill="#000000" fill-opacity="0.200000" stroke="#000000" stroke-width="2" stroke-opacity="0.200000" points="340.66,-222.1 346.66,-220 340.66,-217.9 340.66,-222.1"/>
</g>
<!-- options.d.ts&#45;&gt;rule&#45;set.d.ts -->
<g id="edge20" class="edge">
<title>options.d.ts&#45;&gt;rule&#45;set.d.ts</title>
<path fill="none" stroke="#000000" stroke-width="2" stroke-opacity="0.200000" d="M317.29,-214C321.28,-214 324,-214 324,-214 324,-214 324,-109 324,-109 324,-109 363.82,-109 363.82,-109"/>
<polygon fill="#000000" fill-opacity="0.200000" stroke="#000000" stroke-width="2" stroke-opacity="0.200000" points="363.82,-111.1 369.82,-109 363.82,-106.9 363.82,-111.1"/>
</g>
<!-- options.d.ts&#45;&gt;shared&#45;types.d.ts -->
<g id="edge21" class="edge">
<title>options.d.ts&#45;&gt;shared&#45;types.d.ts</title>
<path fill="none" stroke="#000000" stroke-width="2" stroke-opacity="0.200000" d="M286,-207.99C286,-204.98 286,-202.38 286,-202.38 286,-202.38 705,-202.38 705,-202.38 705,-202.38 705,-162.14 705,-162.14"/>
<polygon fill="#000000" fill-opacity="0.200000" stroke="#000000" stroke-width="2" stroke-opacity="0.200000" points="707.1,-162.14 705,-156.14 702.9,-162.14 707.1,-162.14"/>
</g>
<!-- filter&#45;types.d.ts -->
<g id="node12" class="node">
<title>filter&#45;types.d.ts</title>
<g id="a_node12"><a xlink:href="https://github.com/sverweij/dependency-cruiser/blob/develop/filter-types.d.ts" xlink:title="filter&#45;types.d.ts">
<path fill="#ddfeff" stroke="black" d="M540,-156C540,-156 477,-156 477,-156 474,-156 471,-153 471,-150 471,-150 471,-144 471,-144 471,-141 474,-138 477,-138 477,-138 540,-138 540,-138 543,-138 546,-141 546,-144 546,-144 546,-150 546,-150 546,-153 543,-156 540,-156"/>
<text text-anchor="middle" x="508.5" y="-144.8" font-family="Helvetica,sans-Serif" font-size="9.00">filter&#45;types.d.ts</text>
</a>
</g>
</g>
<!-- options.d.ts&#45;&gt;filter&#45;types.d.ts -->
<g id="edge18" class="edge">
<title>options.d.ts&#45;&gt;filter&#45;types.d.ts</title>
<path fill="none" stroke="#000000" stroke-width="2" stroke-opacity="0.200000" d="M296,-207.88C296,-188.51 296,-145 296,-145 296,-145 465,-145 465,-145"/>
<polygon fill="#000000" fill-opacity="0.200000" stroke="#000000" stroke-width="2" stroke-opacity="0.200000" points="465,-147.1 471,-145 465,-142.9 465,-147.1"/>
</g>
<!-- reporter&#45;options.d.ts -->
<g id="node15" class="node">
<title>reporter&#45;options.d.ts</title>
<g id="a_node15"><a xlink:href="https://github.com/sverweij/dependency-cruiser/blob/develop/reporter-options.d.ts" xlink:title="reporter&#45;options.d.ts">
<path fill="#ddfeff" stroke="black" d="M445,-170C445,-170 359,-170 359,-170 356,-170 353,-167 353,-164 353,-164 353,-158 353,-158 353,-155 356,-152 359,-152 359,-152 445,-152 445,-152 448,-152 451,-155 451,-158 451,-158 451,-164 451,-164 451,-167 448,-170 445,-170"/>
<text text-anchor="middle" x="402" y="-158.8" font-family="Helvetica,sans-Serif" font-size="9.00">reporter&#45;options.d.ts</text>
</a>
</g>
</g>
<!-- options.d.ts&#45;&gt;reporter&#45;options.d.ts -->
<g id="edge19" class="edge">
<title>options.d.ts&#45;&gt;reporter&#45;options.d.ts</title>
<path fill="none" stroke="#000000" stroke-width="2" stroke-opacity="0.200000" d="M306,-207.75C306,-191.85 306,-161 306,-161 306,-161 346.88,-161 346.88,-161"/>
<polygon fill="#000000" fill-opacity="0.200000" stroke="#000000" stroke-width="2" stroke-opacity="0.200000" points="346.88,-163.1 352.88,-161 346.88,-158.9 346.88,-163.1"/>
</g>
<!-- rule&#45;set.d.ts&#45;&gt;shared&#45;types.d.ts -->
<g id="edge26" class="edge">
<title>rule&#45;set.d.ts&#45;&gt;shared&#45;types.d.ts</title>
<path fill="none" stroke="#000000" stroke-width="2" stroke-opacity="0.200000" d="M434.08,-107C506.63,-107 677,-107 677,-107 677,-107 677,-131.72 677,-131.72"/>
<polygon fill="#000000" fill-opacity="0.200000" stroke="#000000" stroke-width="2" stroke-opacity="0.200000" points="674.9,-131.72 677,-137.72 679.1,-131.72 674.9,-131.72"/>
</g>
<!-- restrictions.d.ts -->
<g id="node16" class="node">
<title>restrictions.d.ts</title>
<g id="a_node16"><a xlink:href="https://github.com/sverweij/dependency-cruiser/blob/develop/restrictions.d.ts" xlink:title="restrictions.d.ts">
<path fill="#ddfeff" stroke="black" d="M541,-100C541,-100 476,-100 476,-100 473,-100 470,-97 470,-94 470,-94 470,-88 470,-88 470,-85 473,-82 476,-82 476,-82 541,-82 541,-82 544,-82 547,-85 547,-88 547,-88 547,-94 547,-94 547,-97 544,-100 541,-100"/>
<text text-anchor="middle" x="508.5" y="-88.8" font-family="Helvetica,sans-Serif" font-size="9.00">restrictions.d.ts</text>
</a>
</g>
</g>
<!-- rule&#45;set.d.ts&#45;&gt;restrictions.d.ts -->
<g id="edge25" class="edge">
<title>rule&#45;set.d.ts&#45;&gt;restrictions.d.ts</title>
<path fill="none" stroke="#000000" stroke-width="2" stroke-opacity="0.200000" d="M402,-95.71C402,-92.33 402,-89.33 402,-89.33 402,-89.33 463.75,-89.33 463.75,-89.33"/>
<polygon fill="#000000" fill-opacity="0.200000" stroke="#000000" stroke-width="2" stroke-opacity="0.200000" points="463.75,-91.43 469.75,-89.33 463.75,-87.23 463.75,-91.43"/>
</g>
<!-- cruise&#45;result.d.ts -->
<g id="node6" class="node">
<title>cruise&#45;result.d.ts</title>
<g id="a_node6"><a xlink:href="https://github.com/sverweij/dependency-cruiser/blob/develop/cruise-result.d.ts" xlink:title="cruise&#45;result.d.ts">
<path fill="#ddfeff" stroke="black" d="M211.5,-211C211.5,-211 140.5,-211 140.5,-211 137.5,-211 134.5,-208 134.5,-205 134.5,-205 134.5,-199 134.5,-199 134.5,-196 137.5,-193 140.5,-193 140.5,-193 211.5,-193 211.5,-193 214.5,-193 217.5,-196 217.5,-199 217.5,-199 217.5,-205 217.5,-205 217.5,-208 214.5,-211 211.5,-211"/>
<text text-anchor="middle" x="176" y="-199.8" font-family="Helvetica,sans-Serif" font-size="9.00">cruise&#45;result.d.ts</text>
</a>
</g>
</g>
<!-- cruise&#45;result.d.ts&#45;&gt;violations.d.ts -->
<g id="edge8" class="edge">
<title>cruise&#45;result.d.ts&#45;&gt;violations.d.ts</title>
<path fill="none" stroke="#000000" stroke-width="2" stroke-opacity="0.200000" d="M217.64,-204.25C304.49,-204.25 497,-204.25 497,-204.25 497,-204.25 497,-214.99 497,-214.99"/>
<polygon fill="#000000" fill-opacity="0.200000" stroke="#000000" stroke-width="2" stroke-opacity="0.200000" points="494.9,-214.99 497,-220.99 499.1,-214.99 494.9,-214.99"/>
</g>
<!-- cruise&#45;result.d.ts&#45;&gt;options.d.ts -->
<g id="edge4" class="edge">
<title>cruise&#45;result.d.ts&#45;&gt;options.d.ts</title>
<path fill="none" stroke="#000000" stroke-width="2" stroke-opacity="0.200000" d="M217.54,-206.12C245.02,-206.12 276,-206.12 276,-206.12 276,-206.12 276,-206.29 276,-206.29"/>
<polygon fill="#000000" fill-opacity="0.200000" stroke="#000000" stroke-width="2" stroke-opacity="0.200000" points="273.9,-201.82 276,-207.82 278.1,-201.82 273.9,-201.82"/>
</g>
<!-- cruise&#45;result.d.ts&#45;&gt;rule&#45;set.d.ts -->
<g id="edge5" class="edge">
<title>cruise&#45;result.d.ts&#45;&gt;rule&#45;set.d.ts</title>
<path fill="none" stroke="#000000" stroke-width="2" stroke-opacity="0.200000" d="M217.55,-196.75C260.4,-196.75 321,-196.75 321,-196.75 321,-196.75 321,-106.5 321,-106.5 321,-106.5 363.99,-106.5 363.99,-106.5"/>
<polygon fill="#000000" fill-opacity="0.200000" stroke="#000000" stroke-width="2" stroke-opacity="0.200000" points="363.99,-108.6 369.99,-106.5 363.99,-104.4 363.99,-108.6"/>
</g>
<!-- cruise&#45;result.d.ts&#45;&gt;rule&#45;summary.d.ts -->
<g id="edge6" class="edge">
<title>cruise&#45;result.d.ts&#45;&gt;rule&#45;summary.d.ts</title>
<path fill="none" stroke="#000000" stroke-width="2" stroke-opacity="0.200000" d="M217.52,-200.5C325.19,-200.5 605,-200.5 605,-200.5 605,-200.5 605,-227.99 605,-227.99"/>
<polygon fill="#000000" fill-opacity="0.200000" stroke="#000000" stroke-width="2" stroke-opacity="0.200000" points="602.9,-227.99 605,-233.99 607.1,-227.99 602.9,-227.99"/>
</g>
<!-- cruise&#45;result.d.ts&#45;&gt;shared&#45;types.d.ts -->
<g id="edge7" class="edge">
<title>cruise&#45;result.d.ts&#45;&gt;shared&#45;types.d.ts</title>
<path fill="none" stroke="#000000" stroke-width="2" stroke-opacity="0.200000" d="M217.71,-198.62C340.31,-198.62 691,-198.62 691,-198.62 691,-198.62 691,-162.47 691,-162.47"/>
<polygon fill="#000000" fill-opacity="0.200000" stroke="#000000" stroke-width="2" stroke-opacity="0.200000" points="693.1,-162.47 691,-156.47 688.9,-162.47 693.1,-162.47"/>
</g>
<!-- node_modules/watskeburt -->
<g id="node9" class="node">
<title>node_modules/watskeburt</title>
<g id="a_node9"><a xlink:href="https://github.com/sverweij/dependency-cruiser/blob/develop/node_modules/watskeburt" xlink:title="watskeburt">
<polygon fill="#c40b0a" fill-opacity="0.101961" stroke="black" points="316,-122 257,-122 255,-120 255,-104 314,-104 316,-106 316,-122"/>
<polyline fill="none" stroke="black" points="314,-120 255,-120 "/>
<polyline fill="none" stroke="black" points="314,-120 314,-104 "/>
<polyline fill="none" stroke="black" points="314,-120 316,-122 "/>
<text text-anchor="start" x="263" y="-110.8" font-family="Helvetica,sans-Serif" font-size="9.00" fill="#c40b0a">watskeburt</text>
</a>
</g>
</g>
<!-- cruise&#45;result.d.ts&#45;&gt;node_modules/watskeburt -->
<g id="edge9" class="edge">
<title>cruise&#45;result.d.ts&#45;&gt;node_modules/watskeburt</title>
<path fill="none" stroke="#000000" stroke-opacity="0.200000" d="M217.58,-194.88C241.16,-194.88 266,-194.88 266,-194.88 266,-194.88 266,-128.07 266,-128.07"/>
<polygon fill="#000000" fill-opacity="0.200000" stroke="#000000" stroke-opacity="0.200000" points="268.1,-128.07 266,-122.07 263.9,-128.07 268.1,-128.07"/>
</g>
<!-- rule&#45;summary.d.ts&#45;&gt;shared&#45;types.d.ts -->
<g id="edge27" class="edge">
<title>rule&#45;summary.d.ts&#45;&gt;shared&#45;types.d.ts</title>
<path fill="none" stroke="#000000" stroke-width="2" stroke-opacity="0.200000" d="M649.07,-243C686.53,-243 734,-243 734,-243 734,-243 734,-162.2 734,-162.2"/>
<polygon fill="#000000" fill-opacity="0.200000" stroke="#000000" stroke-width="2" stroke-opacity="0.200000" points="736.1,-162.2 734,-156.2 731.9,-162.2 736.1,-162.2"/>
</g>
<!-- dependency&#45;cruiser.d.ts -->
<g id="node10" class="node">
<title>dependency&#45;cruiser.d.ts</title>
<g id="a_node10"><a xlink:href="https://github.com/sverweij/dependency-cruiser/blob/develop/dependency-cruiser.d.ts" xlink:title="dependency&#45;cruiser.d.ts">
<path fill="#ddfeff" stroke="black" d="M109,-197C109,-197 6,-197 6,-197 3,-197 0,-194 0,-191 0,-191 0,-185 0,-185 0,-182 3,-179 6,-179 6,-179 109,-179 109,-179 112,-179 115,-182 115,-185 115,-185 115,-191 115,-191 115,-194 112,-197 109,-197"/>
<text text-anchor="middle" x="57.5" y="-185.8" font-family="Helvetica,sans-Serif" font-size="9.00">dependency&#45;cruiser.d.ts</text>
</a>
</g>
</g>
<!-- dependency&#45;cruiser.d.ts&#45;&gt;configuration.d.ts -->
<g id="edge10" class="edge">
<title>dependency&#45;cruiser.d.ts&#45;&gt;configuration.d.ts</title>
<path fill="none" stroke="#000000" stroke-width="2" stroke-opacity="0.200000" d="M100,-197.31C100,-210.75 100,-234 100,-234 100,-234 126.67,-234 126.67,-234"/>
<polygon fill="#000000" fill-opacity="0.200000" stroke="#000000" stroke-width="2" stroke-opacity="0.200000" points="126.67,-236.1 132.67,-234 126.67,-231.9 126.67,-236.1"/>
</g>
<!-- dependency&#45;cruiser.d.ts&#45;&gt;options.d.ts -->
<g id="edge12" class="edge">
<title>dependency&#45;cruiser.d.ts&#45;&gt;options.d.ts</title>
<path fill="none" stroke="#000000" stroke-width="2" stroke-opacity="0.200000" d="M105,-197.13C105,-206.28 105,-219 105,-219 105,-219 247.65,-219 247.65,-219"/>
<polygon fill="#000000" fill-opacity="0.200000" stroke="#000000" stroke-width="2" stroke-opacity="0.200000" points="247.65,-221.1 253.65,-219 247.65,-216.9 247.65,-221.1"/>
</g>
<!-- dependency&#45;cruiser.d.ts&#45;&gt;rule&#45;set.d.ts -->
<g id="edge14" class="edge">
<title>dependency&#45;cruiser.d.ts&#45;&gt;rule&#45;set.d.ts</title>
<path fill="none" stroke="#000000" stroke-width="2" stroke-opacity="0.200000" d="M58,-178.73C58,-156.37 58,-101.33 58,-101.33 58,-101.33 363.95,-101.33 363.95,-101.33"/>
<polygon fill="#000000" fill-opacity="0.200000" stroke="#000000" stroke-width="2" stroke-opacity="0.200000" points="363.95,-103.43 369.95,-101.33 363.95,-99.23 363.95,-103.43"/>
</g>
<!-- dependency&#45;cruiser.d.ts&#45;&gt;cruise&#45;result.d.ts -->
<g id="edge11" class="edge">
<title>dependency&#45;cruiser.d.ts&#45;&gt;cruise&#45;result.d.ts</title>
<path fill="none" stroke="#000000" stroke-width="2" stroke-opacity="0.200000" d="M110,-197.24C110,-200.33 110,-203 110,-203 110,-203 128.2,-203 128.2,-203"/>
<polygon fill="#000000" fill-opacity="0.200000" stroke="#000000" stroke-width="2" stroke-opacity="0.200000" points="128.2,-205.1 134.2,-203 128.2,-200.9 128.2,-205.1"/>
</g>
<!-- dependency&#45;cruiser.d.ts&#45;&gt;shared&#45;types.d.ts -->
<g id="edge15" class="edge">
<title>dependency&#45;cruiser.d.ts&#45;&gt;shared&#45;types.d.ts</title>
<path fill="none" stroke="#000000" stroke-width="2" stroke-opacity="0.200000" d="M115.22,-188.33C269.02,-188.33 677,-188.33 677,-188.33 677,-188.33 677,-162.17 677,-162.17"/>
<polygon fill="#000000" fill-opacity="0.200000" stroke="#000000" stroke-width="2" stroke-opacity="0.200000" points="679.1,-162.17 677,-156.17 674.9,-162.17 679.1,-162.17"/>
</g>
<!-- resolve&#45;options.d.ts -->
<g id="node11" class="node">
<title>resolve&#45;options.d.ts</title>
<g id="a_node11"><a xlink:href="https://github.com/sverweij/dependency-cruiser/blob/develop/resolve-options.d.ts" xlink:title="resolve&#45;options.d.ts">
<path fill="#ddfeff" stroke="black" d="M218,-123C218,-123 134,-123 134,-123 131,-123 128,-120 128,-117 128,-117 128,-111 128,-111 128,-108 131,-105 134,-105 134,-105 218,-105 218,-105 221,-105 224,-108 224,-111 224,-111 224,-117 224,-117 224,-120 221,-123 218,-123"/>
<text text-anchor="middle" x="176" y="-111.8" font-family="Helvetica,sans-Serif" font-size="9.00">resolve&#45;options.d.ts</text>
</a>
</g>
</g>
<!-- dependency&#45;cruiser.d.ts&#45;&gt;resolve&#45;options.d.ts -->
<g id="edge13" class="edge">
<title>dependency&#45;cruiser.d.ts&#45;&gt;resolve&#45;options.d.ts</title>
<path fill="none" stroke="#000000" stroke-width="2" stroke-opacity="0.200000" d="M115.01,-183.67C145.21,-183.67 176,-183.67 176,-183.67 176,-183.67 176,-129.11 176,-129.11"/>
<polygon fill="#000000" fill-opacity="0.200000" stroke="#000000" stroke-width="2" stroke-opacity="0.200000" points="178.1,-129.11 176,-123.11 173.9,-129.11 178.1,-129.11"/>
</g>
<!-- node_modules/enhanced&#45;resolve -->
<g id="node14" class="node">
<title>node_modules/enhanced&#45;resolve</title>
<g id="a_node14"><a xlink:href="https://github.com/sverweij/dependency-cruiser/blob/develop/node_modules/enhanced-resolve" xlink:title="enhanced&#45;resolve">
<polygon fill="#c40b0a" fill-opacity="0.101961" stroke="black" points="331,-92 242,-92 240,-90 240,-74 329,-74 331,-76 331,-92"/>
<polyline fill="none" stroke="black" points="329,-90 240,-90 "/>
<polyline fill="none" stroke="black" points="329,-90 329,-74 "/>
<polyline fill="none" stroke="black" points="329,-90 331,-92 "/>
<text text-anchor="start" x="248" y="-80.8" font-family="Helvetica,sans-Serif" font-size="9.00" fill="#c40b0a">enhanced&#45;resolve</text>
</a>
</g>
</g>
<!-- resolve&#45;options.d.ts&#45;&gt;node_modules/enhanced&#45;resolve -->
<g id="edge23" class="edge">
<title>resolve&#45;options.d.ts&#45;&gt;node_modules/enhanced&#45;resolve</title>
<path fill="none" stroke="#000000" stroke-opacity="0.200000" d="M224.14,-113.5C236.81,-113.5 247,-113.5 247,-113.5 247,-113.5 247,-98.32 247,-98.32"/>
<polygon fill="#000000" fill-opacity="0.200000" stroke="#000000" stroke-opacity="0.200000" points="249.1,-98.32 247,-92.32 244.9,-98.32 249.1,-98.32"/>
</g>
<!-- filter&#45;types.d.ts&#45;&gt;shared&#45;types.d.ts -->
<g id="edge16" class="edge">
<title>filter&#45;types.d.ts&#45;&gt;shared&#45;types.d.ts</title>
<path fill="none" stroke="#000000" stroke-width="2" stroke-opacity="0.200000" d="M546.39,-147C546.39,-147 655.76,-147 655.76,-147"/>
<polygon fill="#000000" fill-opacity="0.200000" stroke="#000000" stroke-width="2" stroke-opacity="0.200000" points="655.76,-149.1 661.76,-147 655.76,-144.9 655.76,-149.1"/>
</g>
<!-- init&#45;config.d.ts -->
<g id="node13" class="node">
<title>init&#45;config.d.ts</title>
<g id="a_node13"><a xlink:href="https://github.com/sverweij/dependency-cruiser/blob/develop/init-config.d.ts" xlink:title="init&#45;config.d.ts">
<path fill="#ccffcc" stroke="black" d="M88,-227C88,-227 27,-227 27,-227 24,-227 21,-224 21,-221 21,-221 21,-215 21,-215 21,-212 24,-209 27,-209 27,-209 88,-209 88,-209 91,-209 94,-212 94,-215 94,-215 94,-221 94,-221 94,-224 91,-227 88,-227"/>
<text text-anchor="middle" x="57.5" y="-215.8" font-family="Helvetica,sans-Serif" font-size="9.00">init&#45;config.d.ts</text>
</a>
</g>
</g>
<!-- reporter&#45;options.d.ts&#45;&gt;filter&#45;types.d.ts -->
<g id="edge22" class="edge">
<title>reporter&#45;options.d.ts&#45;&gt;filter&#45;types.d.ts</title>
<path fill="none" stroke="#000000" stroke-width="2" stroke-opacity="0.200000" d="M446,-151.92C446,-149.98 446,-148.5 446,-148.5 446,-148.5 464.7,-148.5 464.7,-148.5"/>
<polygon fill="#000000" fill-opacity="0.200000" stroke="#000000" stroke-width="2" stroke-opacity="0.200000" points="464.7,-150.6 470.7,-148.5 464.7,-146.4 464.7,-150.6"/>
</g>
<!-- restrictions.d.ts&#45;&gt;shared&#45;types.d.ts -->
<g id="edge24" class="edge">
<title>restrictions.d.ts&#45;&gt;shared&#45;types.d.ts</title>
<path fill="none" stroke="#000000" stroke-width="2" stroke-opacity="0.200000" d="M547.2,-91C600.77,-91 691,-91 691,-91 691,-91 691,-131.75 691,-131.75"/>
<polygon fill="#000000" fill-opacity="0.200000" stroke="#000000" stroke-width="2" stroke-opacity="0.200000" points="688.9,-131.75 691,-137.75 693.1,-131.75 688.9,-131.75"/>
</g>
<!-- strict&#45;filter&#45;types.d.ts -->
<g id="node17" class="node">
<title>strict&#45;filter&#45;types.d.ts</title>
<g id="a_node17"><a xlink:href="https://github.com/sverweij/dependency-cruiser/blob/develop/strict-filter-types.d.ts" xlink:title="strict&#45;filter&#45;types.d.ts">
<path fill="#ddfeff" stroke="black" d="M444.5,-28C444.5,-28 359.5,-28 359.5,-28 356.5,-28 353.5,-25 353.5,-22 353.5,-22 353.5,-16 353.5,-16 353.5,-13 356.5,-10 359.5,-10 359.5,-10 444.5,-10 444.5,-10 447.5,-10 450.5,-13 450.5,-16 450.5,-16 450.5,-22 450.5,-22 450.5,-25 447.5,-28 444.5,-28"/>
<text text-anchor="middle" x="402" y="-16.8" font-family="Helvetica,sans-Serif" font-size="9.00">strict&#45;filter&#45;types.d.ts</text>
</a>
</g>
</g>
<!-- strict&#45;filter&#45;types.d.ts&#45;&gt;shared&#45;types.d.ts -->
<g id="edge29" class="edge">
<title>strict&#45;filter&#45;types.d.ts&#45;&gt;shared&#45;types.d.ts</title>
<path fill="none" stroke="#000000" stroke-width="2" stroke-opacity="0.200000" d="M450.64,-16C539.72,-16 720,-16 720,-16 720,-16 720,-132 720,-132"/>
<polygon fill="#000000" fill-opacity="0.200000" stroke="#000000" stroke-width="2" stroke-opacity="0.200000" points="717.9,-132 720,-138 722.1,-132 717.9,-132"/>
</g>
<!-- strict&#45;filter&#45;types.d.ts&#45;&gt;filter&#45;types.d.ts -->
<g id="edge28" class="edge">
<title>strict&#45;filter&#45;types.d.ts&#45;&gt;filter&#45;types.d.ts</title>
<path fill="none" stroke="#000000" stroke-width="2" stroke-opacity="0.200000" d="M450.55,-22C458.39,-22 464,-22 464,-22 464,-22 464,-141.5 464,-141.5 464,-141.5 464.95,-141.5 464.95,-141.5"/>
<polygon fill="#000000" fill-opacity="0.200000" stroke="#000000" stroke-width="2" stroke-opacity="0.200000" points="464.95,-143.6 470.95,-141.5 464.95,-139.4 464.95,-143.6"/>
</g>
<!-- strict&#45;options.d.ts -->
<g id="node18" class="node">
<title>strict&#45;options.d.ts</title>
<g id="a_node18"><a xlink:href="https://github.com/sverweij/dependency-cruiser/blob/develop/strict-options.d.ts" xlink:title="strict&#45;options.d.ts">
<path fill="#ddfeff" stroke="black" d="M212.5,-18C212.5,-18 139.5,-18 139.5,-18 136.5,-18 133.5,-15 133.5,-12 133.5,-12 133.5,-6 133.5,-6 133.5,-3 136.5,0 139.5,0 139.5,0 212.5,0 212.5,0 215.5,0 218.5,-3 218.5,-6 218.5,-6 218.5,-12 218.5,-12 218.5,-15 215.5,-18 212.5,-18"/>
<text text-anchor="middle" x="176" y="-6.8" font-family="Helvetica,sans-Serif" font-size="9.00">strict&#45;options.d.ts</text>
</a>
</g>
</g>
<!-- strict&#45;options.d.ts&#45;&gt;options.d.ts -->
<g id="edge30" class="edge">
<title>strict&#45;options.d.ts&#45;&gt;options.d.ts</title>
<path fill="none" stroke="#000000" stroke-width="2" stroke-opacity="0.200000" d="M218.73,-7.5C226.39,-7.5 232,-7.5 232,-7.5 232,-7.5 232,-215 232,-215 232,-215 247.76,-215 247.76,-215"/>
<polygon fill="#000000" fill-opacity="0.200000" stroke="#000000" stroke-width="2" stroke-opacity="0.200000" points="247.76,-217.1 253.76,-215 247.76,-212.9 247.76,-217.1"/>
</g>
<!-- strict&#45;options.d.ts&#45;&gt;shared&#45;types.d.ts -->
<g id="edge31" class="edge">
<title>strict&#45;options.d.ts&#45;&gt;shared&#45;types.d.ts</title>
<path fill="none" stroke="#000000" stroke-width="2" stroke-opacity="0.200000" d="M218.86,-2.5C349.52,-2.5 734,-2.5 734,-2.5 734,-2.5 734,-131.96 734,-131.96"/>
<polygon fill="#000000" fill-opacity="0.200000" stroke="#000000" stroke-width="2" stroke-opacity="0.200000" points="731.9,-131.96 734,-137.96 736.1,-131.96 731.9,-131.96"/>
</g>
<!-- strict&#45;options.d.ts&#45;&gt;strict&#45;filter&#45;types.d.ts -->
<g id="edge32" class="edge">
<title>strict&#45;options.d.ts&#45;&gt;strict&#45;filter&#45;types.d.ts</title>
<path fill="none" stroke="#000000" stroke-width="2" stroke-opacity="0.200000" d="M218.51,-5C283.98,-5 402,-5 402,-5 402,-5 402,-5.47 402,-5.47"/>
<polygon fill="#000000" fill-opacity="0.200000" stroke="#000000" stroke-width="2" stroke-opacity="0.200000" points="399.9,-3.74 402,-9.74 404.1,-3.74 399.9,-3.74"/>
</g>
<!-- strict&#45;rule&#45;set.d.ts -->
<g id="node19" class="node">
<title>strict&#45;rule&#45;set.d.ts</title>
<g id="a_node19"><a xlink:href="https://github.com/sverweij/dependency-cruiser/blob/develop/strict-rule-set.d.ts" xlink:title="strict&#45;rule&#45;set.d.ts">
<path fill="#ddfeff" stroke="black" d="M322.5,-32C322.5,-32 248.5,-32 248.5,-32 245.5,-32 242.5,-29 242.5,-26 242.5,-26 242.5,-20 242.5,-20 242.5,-17 245.5,-14 248.5,-14 248.5,-14 322.5,-14 322.5,-14 325.5,-14 328.5,-17 328.5,-20 328.5,-20 328.5,-26 328.5,-26 328.5,-29 325.5,-32 322.5,-32"/>
<text text-anchor="middle" x="285.5" y="-20.8" font-family="Helvetica,sans-Serif" font-size="9.00">strict&#45;rule&#45;set.d.ts</text>
</a>
</g>
</g>
<!-- strict&#45;options.d.ts&#45;&gt;strict&#45;rule&#45;set.d.ts -->
<g id="edge33" class="edge">
<title>strict&#45;options.d.ts&#45;&gt;strict&#45;rule&#45;set.d.ts</title>
<path fill="none" stroke="#000000" stroke-width="2" stroke-opacity="0.200000" d="M176,-18.12C176,-21.71 176,-25 176,-25 176,-25 236.22,-25 236.22,-25"/>
<polygon fill="#000000" fill-opacity="0.200000" stroke="#000000" stroke-width="2" stroke-opacity="0.200000" points="236.22,-27.1 242.22,-25 236.22,-22.9 236.22,-27.1"/>
</g>
<!-- strict&#45;rule&#45;set.d.ts&#45;&gt;rule&#45;set.d.ts -->
<g id="edge35" class="edge">
<title>strict&#45;rule&#45;set.d.ts&#45;&gt;rule&#45;set.d.ts</title>
<path fill="none" stroke="#000000" stroke-width="2" stroke-opacity="0.200000" d="M328.68,-21C334.77,-21 339,-21 339,-21 339,-21 339,-98.67 339,-98.67 339,-98.67 363.76,-98.67 363.76,-98.67"/>
<polygon fill="#000000" fill-opacity="0.200000" stroke="#000000" stroke-width="2" stroke-opacity="0.200000" points="363.76,-100.77 369.76,-98.67 363.76,-96.57 363.76,-100.77"/>
</g>
<!-- strict&#45;rule&#45;set.d.ts&#45;&gt;shared&#45;types.d.ts -->
<g id="edge36" class="edge">
<title>strict&#45;rule&#45;set.d.ts&#45;&gt;shared&#45;types.d.ts</title>
<path fill="none" stroke="#000000" stroke-width="2" stroke-opacity="0.200000" d="M272,-32.09C272,-39.59 272,-49 272,-49 272,-49 705,-49 705,-49 705,-49 705,-131.96 705,-131.96"/>
<polygon fill="#000000" fill-opacity="0.200000" stroke="#000000" stroke-width="2" stroke-opacity="0.200000" points="702.9,-131.96 705,-137.96 707.1,-131.96 702.9,-131.96"/>
</g>
<!-- strict&#45;restrictions.d.ts -->
<g id="node20" class="node">
<title>strict&#45;restrictions.d.ts</title>
<g id="a_node20"><a xlink:href="https://github.com/sverweij/dependency-cruiser/blob/develop/strict-restrictions.d.ts" xlink:title="strict&#45;restrictions.d.ts">
<path fill="#ddfeff" stroke="black" d="M445.5,-84C445.5,-84 358.5,-84 358.5,-84 355.5,-84 352.5,-81 352.5,-78 352.5,-78 352.5,-72 352.5,-72 352.5,-69 355.5,-66 358.5,-66 358.5,-66 445.5,-66 445.5,-66 448.5,-66 451.5,-69 451.5,-72 451.5,-72 451.5,-78 451.5,-78 451.5,-81 448.5,-84 445.5,-84"/>
<text text-anchor="middle" x="402" y="-72.8" font-family="Helvetica,sans-Serif" font-size="9.00">strict&#45;restrictions.d.ts</text>
</a>
</g>
</g>
<!-- strict&#45;rule&#45;set.d.ts&#45;&gt;strict&#45;restrictions.d.ts -->
<g id="edge37" class="edge">
<title>strict&#45;rule&#45;set.d.ts&#45;&gt;strict&#45;restrictions.d.ts</title>
<path fill="none" stroke="#000000" stroke-width="2" stroke-opacity="0.200000" d="M300,-32.06C300,-45.72 300,-70 300,-70 300,-70 346.49,-70 346.49,-70"/>
<polygon fill="#000000" fill-opacity="0.200000" stroke="#000000" stroke-width="2" stroke-opacity="0.200000" points="346.49,-72.1 352.49,-70 346.49,-67.9 346.49,-72.1"/>
</g>
<!-- strict&#45;restrictions.d.ts&#45;&gt;restrictions.d.ts -->
<g id="edge34" class="edge">
<title>strict&#45;restrictions.d.ts&#45;&gt;restrictions.d.ts</title>
<path fill="none" stroke="#000000" stroke-width="2" stroke-opacity="0.200000" d="M440,-84.42C440,-85.74 440,-86.67 440,-86.67 440,-86.67 463.85,-86.67 463.85,-86.67"/>
<polygon fill="#000000" fill-opacity="0.200000" stroke="#000000" stroke-width="2" stroke-opacity="0.200000" points="463.85,-88.77 469.85,-86.67 463.85,-84.57 463.85,-88.77"/>
</g>
</g>
</svg>
