<?xml version="1.0" encoding="UTF-8" standalone="no"?>
<!DOCTYPE svg PUBLIC "-//W3C//DTD SVG 1.1//EN"
 "http://www.w3.org/Graphics/SVG/1.1/DTD/svg11.dtd">
<!-- Generated by graphviz version 8.0.5 (20230430.1635)
 -->
<!-- Title: dependency&#45;cruiser output Pages: 1 -->
<svg width="755pt" height="308pt"
 viewBox="0.00 0.00 754.50 307.75" xmlns="http://www.w3.org/2000/svg" xmlns:xlink="http://www.w3.org/1999/xlink">
<g id="graph0" class="graph" transform="scale(1 1) rotate(0) translate(4 303.75)">
<title>dependency&#45;cruiser output</title>
<polygon fill="white" stroke="none" points="-4,4 -4,-303.75 750.5,-303.75 750.5,4 -4,4"/>
<g id="clust1" class="cluster">
<title>cluster_node_modules</title>
<path fill="#ffffff" stroke="black" stroke-width="2" d="M244.25,-51.88C244.25,-51.88 326.5,-51.88 326.5,-51.88 332.5,-51.88 338.5,-57.88 338.5,-63.88 338.5,-63.88 338.5,-151.88 338.5,-151.88 338.5,-157.88 332.5,-163.88 326.5,-163.88 326.5,-163.88 244.25,-163.88 244.25,-163.88 238.25,-163.88 232.25,-157.88 232.25,-151.88 232.25,-151.88 232.25,-63.88 232.25,-63.88 232.25,-57.88 238.25,-51.88 244.25,-51.88"/>
<text text-anchor="middle" x="285.38" y="-151.32" font-family="Helvetica,sans-Serif" font-weight="bold" font-size="9.00">node_modules</text>
</g>
<!-- baseline&#45;violations.d.ts -->
<g id="node1" class="node">
<title>baseline&#45;violations.d.ts</title>
<g id="a_node1"><a xlink:href="https://github.com/sverweij/dependency-cruiser/blob/main/baseline-violations.d.ts" xlink:title="baseline&#45;violations.d.ts">
<path fill="#ddfeff" stroke="black" d="M450.33,-127.75C450.33,-127.75 352.42,-127.75 352.42,-127.75 349.46,-127.75 346.5,-124.79 346.5,-121.83 346.5,-121.83 346.5,-115.92 346.5,-115.92 346.5,-112.96 349.46,-110 352.42,-110 352.42,-110 450.33,-110 450.33,-110 453.29,-110 456.25,-112.96 456.25,-115.92 456.25,-115.92 456.25,-121.83 456.25,-121.83 456.25,-124.79 453.29,-127.75 450.33,-127.75"/>
<text text-anchor="middle" x="401.38" y="-115.2" font-family="Helvetica,sans-Serif" font-size="9.00">baseline&#45;violations.d.ts</text>
</a>
</g>
</g>
<!-- violations.d.ts -->
<g id="node2" class="node">
<title>violations.d.ts</title>
<g id="a_node2"><a xlink:href="https://github.com/sverweij/dependency-cruiser/blob/main/violations.d.ts" xlink:title="violations.d.ts">
<path fill="#ddfeff" stroke="black" d="M537.46,-88.75C537.46,-88.75 477.79,-88.75 477.79,-88.75 474.83,-88.75 471.88,-85.79 471.88,-82.83 471.88,-82.83 471.88,-76.92 471.88,-76.92 471.88,-73.96 474.83,-71 477.79,-71 477.79,-71 537.46,-71 537.46,-71 540.42,-71 543.38,-73.96 543.38,-76.92 543.38,-76.92 543.38,-82.83 543.38,-82.83 543.38,-85.79 540.42,-88.75 537.46,-88.75"/>
<text text-anchor="middle" x="507.62" y="-76.2" font-family="Helvetica,sans-Serif" font-size="9.00">violations.d.ts</text>
</a>
</g>
</g>
<!-- baseline&#45;violations.d.ts&#45;&gt;violations.d.ts -->
<g id="edge1" class="edge">
<title>baseline&#45;violations.d.ts&#45;&gt;violations.d.ts</title>
<path fill="none" stroke="#000000" stroke-width="2" stroke-opacity="0.200000" d="M445.5,-109.81C445.5,-99.59 445.5,-84.38 445.5,-84.38 445.5,-84.38 462.49,-84.38 462.49,-84.38"/>
<polygon fill="#000000" fill-opacity="0.200000" stroke="#000000" stroke-width="2" stroke-opacity="0.200000" points="462.49,-86.48 468.49,-84.38 462.49,-82.28 462.49,-86.48"/>
</g>
<!-- rule&#45;summary.d.ts -->
<g id="node8" class="node">
<title>rule&#45;summary.d.ts</title>
<g id="a_node8"><a xlink:href="https://github.com/sverweij/dependency-cruiser/blob/main/rule-summary.d.ts" xlink:title="rule&#45;summary.d.ts">
<path fill="#ddfeff" stroke="black" d="M641.83,-75.75C641.83,-75.75 564.92,-75.75 564.92,-75.75 561.96,-75.75 559,-72.79 559,-69.83 559,-69.83 559,-63.92 559,-63.92 559,-60.96 561.96,-58 564.92,-58 564.92,-58 641.83,-58 641.83,-58 644.79,-58 647.75,-60.96 647.75,-63.92 647.75,-63.92 647.75,-69.83 647.75,-69.83 647.75,-72.79 644.79,-75.75 641.83,-75.75"/>
<text text-anchor="middle" x="603.38" y="-63.2" font-family="Helvetica,sans-Serif" font-size="9.00">rule&#45;summary.d.ts</text>
</a>
</g>
</g>
<!-- violations.d.ts&#45;&gt;rule&#45;summary.d.ts -->
<g id="edge41" class="edge">
<title>violations.d.ts&#45;&gt;rule&#45;summary.d.ts</title>
<path fill="none" stroke="#000000" stroke-width="2" stroke-opacity="0.200000" d="M520.5,-70.69C520.5,-67.87 520.5,-65.5 520.5,-65.5 520.5,-65.5 549.54,-65.5 549.54,-65.5"/>
<polygon fill="#000000" fill-opacity="0.200000" stroke="#000000" stroke-width="2" stroke-opacity="0.200000" points="549.54,-67.6 555.54,-65.5 549.54,-63.4 549.54,-67.6"/>
</g>
<!-- shared&#45;types.d.ts -->
<g id="node9" class="node">
<title>shared&#45;types.d.ts</title>
<g id="a_node9"><a xlink:href="https://github.com/sverweij/dependency-cruiser/blob/main/shared-types.d.ts" xlink:title="shared&#45;types.d.ts">
<path fill="#ddfeff" stroke="black" d="M740.58,-183.75C740.58,-183.75 666.67,-183.75 666.67,-183.75 663.71,-183.75 660.75,-180.79 660.75,-177.83 660.75,-177.83 660.75,-171.92 660.75,-171.92 660.75,-168.96 663.71,-166 666.67,-166 666.67,-166 740.58,-166 740.58,-166 743.54,-166 746.5,-168.96 746.5,-171.92 746.5,-171.92 746.5,-177.83 746.5,-177.83 746.5,-180.79 743.54,-183.75 740.58,-183.75"/>
<text text-anchor="middle" x="703.62" y="-171.2" font-family="Helvetica,sans-Serif" font-size="9.00">shared&#45;types.d.ts</text>
</a>
</g>
</g>
<!-- violations.d.ts&#45;&gt;shared&#45;types.d.ts -->
<g id="edge42" class="edge">
<title>violations.d.ts&#45;&gt;shared&#45;types.d.ts</title>
<path fill="none" stroke="#000000" stroke-width="2" stroke-opacity="0.200000" d="M543.73,-82.25C600.57,-82.25 704.5,-82.25 704.5,-82.25 704.5,-82.25 704.5,-156.66 704.5,-156.66"/>
<polygon fill="#000000" fill-opacity="0.200000" stroke="#000000" stroke-width="2" stroke-opacity="0.200000" points="702.4,-156.66 704.5,-162.66 706.6,-156.66 702.4,-156.66"/>
</g>
<!-- cache&#45;options.d.ts -->
<g id="node3" class="node">
<title>cache&#45;options.d.ts</title>
<g id="a_node3"><a xlink:href="https://github.com/sverweij/dependency-cruiser/blob/main/cache-options.d.ts" xlink:title="cache&#45;options.d.ts">
<path fill="#ddfeff" stroke="black" d="M440.58,-239.75C440.58,-239.75 362.17,-239.75 362.17,-239.75 359.21,-239.75 356.25,-236.79 356.25,-233.83 356.25,-233.83 356.25,-227.92 356.25,-227.92 356.25,-224.96 359.21,-222 362.17,-222 362.17,-222 440.58,-222 440.58,-222 443.54,-222 446.5,-224.96 446.5,-227.92 446.5,-227.92 446.5,-233.83 446.5,-233.83 446.5,-236.79 443.54,-239.75 440.58,-239.75"/>
<text text-anchor="middle" x="401.38" y="-227.2" font-family="Helvetica,sans-Serif" font-size="9.00">cache&#45;options.d.ts</text>
</a>
</g>
</g>
<!-- configuration.d.ts -->
<g id="node4" class="node">
<title>configuration.d.ts</title>
<g id="a_node4"><a xlink:href="https://github.com/sverweij/dependency-cruiser/blob/main/configuration.d.ts" xlink:title="configuration.d.ts">
<path fill="#ddfeff" stroke="black" d="M212.71,-187.75C212.71,-187.75 138.79,-187.75 138.79,-187.75 135.83,-187.75 132.88,-184.79 132.88,-181.83 132.88,-181.83 132.88,-175.92 132.88,-175.92 132.88,-172.96 135.83,-170 138.79,-170 138.79,-170 212.71,-170 212.71,-170 215.67,-170 218.62,-172.96 218.62,-175.92 218.62,-175.92 218.62,-181.83 218.62,-181.83 218.62,-184.79 215.67,-187.75 212.71,-187.75"/>
<text text-anchor="middle" x="175.75" y="-175.2" font-family="Helvetica,sans-Serif" font-size="9.00">configuration.d.ts</text>
</a>
</g>
</g>
<!-- options.d.ts -->
<g id="node5" class="node">
<title>options.d.ts</title>
<g id="a_node5"><a xlink:href="https://github.com/sverweij/dependency-cruiser/blob/main/options.d.ts" xlink:title="options.d.ts">
<path fill="#ddfeff" stroke="black" d="M310.71,-215.75C310.71,-215.75 260.04,-215.75 260.04,-215.75 257.08,-215.75 254.12,-212.79 254.12,-209.83 254.12,-209.83 254.12,-203.92 254.12,-203.92 254.12,-200.96 257.08,-198 260.04,-198 260.04,-198 310.71,-198 310.71,-198 313.67,-198 316.62,-200.96 316.62,-203.92 316.62,-203.92 316.62,-209.83 316.62,-209.83 316.62,-212.79 313.67,-215.75 310.71,-215.75"/>
<text text-anchor="middle" x="285.38" y="-203.2" font-family="Helvetica,sans-Serif" font-size="9.00">options.d.ts</text>
</a>
</g>
</g>
<!-- configuration.d.ts&#45;&gt;options.d.ts -->
<g id="edge2" class="edge">
<title>configuration.d.ts&#45;&gt;options.d.ts</title>
<path fill="none" stroke="#000000" stroke-width="2" stroke-opacity="0.200000" d="M218.94,-180.31C242.74,-180.31 267.5,-180.31 267.5,-180.31 267.5,-180.31 267.5,-188.58 267.5,-188.58"/>
<polygon fill="#000000" fill-opacity="0.200000" stroke="#000000" stroke-width="2" stroke-opacity="0.200000" points="265.4,-188.58 267.5,-194.58 269.6,-188.58 265.4,-188.58"/>
</g>
<!-- rule&#45;set.d.ts -->
<g id="node6" class="node">
<title>rule&#45;set.d.ts</title>
<g id="a_node6"><a xlink:href="https://github.com/sverweij/dependency-cruiser/blob/main/rule-set.d.ts" xlink:title="rule&#45;set.d.ts">
<path fill="#ddfeff" stroke="black" d="M427.08,-97.75C427.08,-97.75 375.67,-97.75 375.67,-97.75 372.71,-97.75 369.75,-94.79 369.75,-91.83 369.75,-91.83 369.75,-85.92 369.75,-85.92 369.75,-82.96 372.71,-80 375.67,-80 375.67,-80 427.08,-80 427.08,-80 430.04,-80 433,-82.96 433,-85.92 433,-85.92 433,-91.83 433,-91.83 433,-94.79 430.04,-97.75 427.08,-97.75"/>
<text text-anchor="middle" x="401.38" y="-85.2" font-family="Helvetica,sans-Serif" font-size="9.00">rule&#45;set.d.ts</text>
</a>
</g>
</g>
<!-- configuration.d.ts&#45;&gt;rule&#45;set.d.ts -->
<g id="edge3" class="edge">
<title>configuration.d.ts&#45;&gt;rule&#45;set.d.ts</title>
<path fill="none" stroke="#000000" stroke-width="2" stroke-opacity="0.200000" d="M218.71,-173.44C265.72,-173.44 334.5,-173.44 334.5,-173.44 334.5,-173.44 334.5,-91.94 334.5,-91.94 334.5,-91.94 360.5,-91.94 360.5,-91.94"/>
<polygon fill="#000000" fill-opacity="0.200000" stroke="#000000" stroke-width="2" stroke-opacity="0.200000" points="360.5,-94.04 366.5,-91.94 360.5,-89.84 360.5,-94.04"/>
</g>
<!-- options.d.ts&#45;&gt;baseline&#45;violations.d.ts -->
<g id="edge18" class="edge">
<title>options.d.ts&#45;&gt;baseline&#45;violations.d.ts</title>
<path fill="none" stroke="#000000" stroke-width="2" stroke-opacity="0.200000" d="M316.82,-204.3C330.51,-204.3 343.5,-204.3 343.5,-204.3 343.5,-204.3 343.5,-123.88 343.5,-123.88 343.5,-123.88 343.78,-123.88 343.78,-123.88"/>
<polygon fill="#000000" fill-opacity="0.200000" stroke="#000000" stroke-width="2" stroke-opacity="0.200000" points="337.29,-125.98 343.29,-123.88 337.29,-121.78 337.29,-125.98"/>
</g>
<!-- options.d.ts&#45;&gt;cache&#45;options.d.ts -->
<g id="edge19" class="edge">
<title>options.d.ts&#45;&gt;cache&#45;options.d.ts</title>
<path fill="none" stroke="#000000" stroke-width="2" stroke-opacity="0.200000" d="M285.5,-215.92C285.5,-221.62 285.5,-227.92 285.5,-227.92 285.5,-227.92 346.91,-227.92 346.91,-227.92"/>
<polygon fill="#000000" fill-opacity="0.200000" stroke="#000000" stroke-width="2" stroke-opacity="0.200000" points="346.91,-230.02 352.91,-227.92 346.91,-225.82 346.91,-230.02"/>
</g>
<!-- options.d.ts&#45;&gt;rule&#45;set.d.ts -->
<g id="edge22" class="edge">
<title>options.d.ts&#45;&gt;rule&#45;set.d.ts</title>
<path fill="none" stroke="#000000" stroke-width="2" stroke-opacity="0.200000" d="M316.9,-201.15C327.88,-201.15 337.5,-201.15 337.5,-201.15 337.5,-201.15 337.5,-93.88 337.5,-93.88 337.5,-93.88 360.44,-93.88 360.44,-93.88"/>
<polygon fill="#000000" fill-opacity="0.200000" stroke="#000000" stroke-width="2" stroke-opacity="0.200000" points="360.44,-95.98 366.44,-93.88 360.44,-91.78 360.44,-95.98"/>
</g>
<!-- options.d.ts&#45;&gt;shared&#45;types.d.ts -->
<g id="edge23" class="edge">
<title>options.d.ts&#45;&gt;shared&#45;types.d.ts</title>
<path fill="none" stroke="#000000" stroke-width="2" stroke-opacity="0.200000" d="M292.5,-197.7C292.5,-183.25 292.5,-156.83 292.5,-156.83 292.5,-156.83 675.5,-156.83 675.5,-156.83 675.5,-156.83 675.5,-157.74 675.5,-157.74"/>
<polygon fill="#000000" fill-opacity="0.200000" stroke="#000000" stroke-width="2" stroke-opacity="0.200000" points="673.4,-156.85 675.5,-162.85 677.6,-156.85 673.4,-156.85"/>
</g>
<!-- filter&#45;types.d.ts -->
<g id="node15" class="node">
<title>filter&#45;types.d.ts</title>
<g id="a_node15"><a xlink:href="https://github.com/sverweij/dependency-cruiser/blob/main/filter-types.d.ts" xlink:title="filter&#45;types.d.ts">
<path fill="#ddfeff" stroke="black" d="M538.96,-213.75C538.96,-213.75 476.29,-213.75 476.29,-213.75 473.33,-213.75 470.38,-210.79 470.38,-207.83 470.38,-207.83 470.38,-201.92 470.38,-201.92 470.38,-198.96 473.33,-196 476.29,-196 476.29,-196 538.96,-196 538.96,-196 541.92,-196 544.88,-198.96 544.88,-201.92 544.88,-201.92 544.88,-207.83 544.88,-207.83 544.88,-210.79 541.92,-213.75 538.96,-213.75"/>
<text text-anchor="middle" x="507.62" y="-201.2" font-family="Helvetica,sans-Serif" font-size="9.00">filter&#45;types.d.ts</text>
</a>
</g>
</g>
<!-- options.d.ts&#45;&gt;filter&#45;types.d.ts -->
<g id="edge20" class="edge">
<title>options.d.ts&#45;&gt;filter&#45;types.d.ts</title>
<path fill="none" stroke="#000000" stroke-width="2" stroke-opacity="0.200000" d="M316.75,-210.6C316.75,-210.6 461.1,-210.6 461.1,-210.6"/>
<polygon fill="#000000" fill-opacity="0.200000" stroke="#000000" stroke-width="2" stroke-opacity="0.200000" points="461.1,-212.7 467.1,-210.6 461.1,-208.5 461.1,-212.7"/>
</g>
<!-- reporter&#45;options.d.ts -->
<g id="node17" class="node">
<title>reporter&#45;options.d.ts</title>
<g id="a_node17"><a xlink:href="https://github.com/sverweij/dependency-cruiser/blob/main/reporter-options.d.ts" xlink:title="reporter&#45;options.d.ts">
<path fill="#ddfeff" stroke="black" d="M444.33,-183.75C444.33,-183.75 358.42,-183.75 358.42,-183.75 355.46,-183.75 352.5,-180.79 352.5,-177.83 352.5,-177.83 352.5,-171.92 352.5,-171.92 352.5,-168.96 355.46,-166 358.42,-166 358.42,-166 444.33,-166 444.33,-166 447.29,-166 450.25,-168.96 450.25,-171.92 450.25,-171.92 450.25,-177.83 450.25,-177.83 450.25,-180.79 447.29,-183.75 444.33,-183.75"/>
<text text-anchor="middle" x="401.38" y="-171.2" font-family="Helvetica,sans-Serif" font-size="9.00">reporter&#45;options.d.ts</text>
</a>
</g>
</g>
<!-- options.d.ts&#45;&gt;reporter&#45;options.d.ts -->
<g id="edge21" class="edge">
<title>options.d.ts&#45;&gt;reporter&#45;options.d.ts</title>
<path fill="none" stroke="#000000" stroke-width="2" stroke-opacity="0.200000" d="M304.5,-197.71C304.5,-188.89 304.5,-176.88 304.5,-176.88 304.5,-176.88 343.09,-176.88 343.09,-176.88"/>
<polygon fill="#000000" fill-opacity="0.200000" stroke="#000000" stroke-width="2" stroke-opacity="0.200000" points="343.09,-178.98 349.09,-176.88 343.09,-174.78 343.09,-178.98"/>
</g>
<!-- rule&#45;set.d.ts&#45;&gt;shared&#45;types.d.ts -->
<g id="edge28" class="edge">
<title>rule&#45;set.d.ts&#45;&gt;shared&#45;types.d.ts</title>
<path fill="none" stroke="#000000" stroke-width="2" stroke-opacity="0.200000" d="M433.31,-91.75C508.33,-91.75 689.5,-91.75 689.5,-91.75 689.5,-91.75 689.5,-156.66 689.5,-156.66"/>
<polygon fill="#000000" fill-opacity="0.200000" stroke="#000000" stroke-width="2" stroke-opacity="0.200000" points="687.4,-156.66 689.5,-162.66 691.6,-156.66 687.4,-156.66"/>
</g>
<!-- restrictions.d.ts -->
<g id="node18" class="node">
<title>restrictions.d.ts</title>
<g id="a_node18"><a xlink:href="https://github.com/sverweij/dependency-cruiser/blob/main/restrictions.d.ts" xlink:title="restrictions.d.ts">
<path fill="#ddfeff" stroke="black" d="M540.08,-183.75C540.08,-183.75 475.17,-183.75 475.17,-183.75 472.21,-183.75 469.25,-180.79 469.25,-177.83 469.25,-177.83 469.25,-171.92 469.25,-171.92 469.25,-168.96 472.21,-166 475.17,-166 475.17,-166 540.08,-166 540.08,-166 543.04,-166 546,-168.96 546,-171.92 546,-171.92 546,-177.83 546,-177.83 546,-180.79 543.04,-183.75 540.08,-183.75"/>
<text text-anchor="middle" x="507.62" y="-171.2" font-family="Helvetica,sans-Serif" font-size="9.00">restrictions.d.ts</text>
</a>
</g>
</g>
<!-- rule&#45;set.d.ts&#45;&gt;restrictions.d.ts -->
<g id="edge27" class="edge">
<title>rule&#45;set.d.ts&#45;&gt;restrictions.d.ts</title>
<path fill="none" stroke="#000000" stroke-width="2" stroke-opacity="0.200000" d="M433.23,-94.75C464.8,-94.75 508.5,-94.75 508.5,-94.75 508.5,-94.75 508.5,-156.68 508.5,-156.68"/>
<polygon fill="#000000" fill-opacity="0.200000" stroke="#000000" stroke-width="2" stroke-opacity="0.200000" points="506.4,-156.68 508.5,-162.68 510.6,-156.68 506.4,-156.68"/>
</g>
<!-- cruise&#45;result.d.ts -->
<g id="node7" class="node">
<title>cruise&#45;result.d.ts</title>
<g id="a_node7"><a xlink:href="https://github.com/sverweij/dependency-cruiser/blob/main/cruise-result.d.ts" xlink:title="cruise&#45;result.d.ts">
<path fill="#ddfeff" stroke="black" d="M211.21,-17.75C211.21,-17.75 140.29,-17.75 140.29,-17.75 137.33,-17.75 134.38,-14.79 134.38,-11.83 134.38,-11.83 134.38,-5.92 134.38,-5.92 134.38,-2.96 137.33,0 140.29,0 140.29,0 211.21,0 211.21,0 214.17,0 217.12,-2.96 217.12,-5.92 217.12,-5.92 217.12,-11.83 217.12,-11.83 217.12,-14.79 214.17,-17.75 211.21,-17.75"/>
<text text-anchor="middle" x="175.75" y="-5.2" font-family="Helvetica,sans-Serif" font-size="9.00">cruise&#45;result.d.ts</text>
</a>
</g>
</g>
<!-- cruise&#45;result.d.ts&#45;&gt;violations.d.ts -->
<g id="edge8" class="edge">
<title>cruise&#45;result.d.ts&#45;&gt;violations.d.ts</title>
<path fill="none" stroke="#000000" stroke-width="2" stroke-opacity="0.200000" d="M217.35,-7.61C304.14,-7.61 496.5,-7.61 496.5,-7.61 496.5,-7.61 496.5,-61.72 496.5,-61.72"/>
<polygon fill="#000000" fill-opacity="0.200000" stroke="#000000" stroke-width="2" stroke-opacity="0.200000" points="494.4,-61.72 496.5,-67.72 498.6,-61.72 494.4,-61.72"/>
</g>
<!-- cruise&#45;result.d.ts&#45;&gt;options.d.ts -->
<g id="edge4" class="edge">
<title>cruise&#45;result.d.ts&#45;&gt;options.d.ts</title>
<path fill="none" stroke="#000000" stroke-width="2" stroke-opacity="0.200000" d="M217.59,-15.21C226.1,-15.21 232.5,-15.21 232.5,-15.21 232.5,-15.21 232.5,-203.92 232.5,-203.92 232.5,-203.92 244.7,-203.92 244.7,-203.92"/>
<polygon fill="#000000" fill-opacity="0.200000" stroke="#000000" stroke-width="2" stroke-opacity="0.200000" points="244.7,-206.02 250.7,-203.92 244.7,-201.82 244.7,-206.02"/>
</g>
<!-- cruise&#45;result.d.ts&#45;&gt;rule&#45;set.d.ts -->
<g id="edge5" class="edge">
<title>cruise&#45;result.d.ts&#45;&gt;rule&#45;set.d.ts</title>
<path fill="none" stroke="#000000" stroke-width="2" stroke-opacity="0.200000" d="M217.42,-10.14C282.65,-10.14 401.5,-10.14 401.5,-10.14 401.5,-10.14 401.5,-70.53 401.5,-70.53"/>
<polygon fill="#000000" fill-opacity="0.200000" stroke="#000000" stroke-width="2" stroke-opacity="0.200000" points="399.4,-70.53 401.5,-76.53 403.6,-70.53 399.4,-70.53"/>
</g>
<!-- cruise&#45;result.d.ts&#45;&gt;rule&#45;summary.d.ts -->
<g id="edge6" class="edge">
<title>cruise&#45;result.d.ts&#45;&gt;rule&#45;summary.d.ts</title>
<path fill="none" stroke="#000000" stroke-width="2" stroke-opacity="0.200000" d="M217.54,-5.07C325.18,-5.07 603.5,-5.07 603.5,-5.07 603.5,-5.07 603.5,-48.76 603.5,-48.76"/>
<polygon fill="#000000" fill-opacity="0.200000" stroke="#000000" stroke-width="2" stroke-opacity="0.200000" points="601.4,-48.76 603.5,-54.76 605.6,-48.76 601.4,-48.76"/>
</g>
<!-- cruise&#45;result.d.ts&#45;&gt;shared&#45;types.d.ts -->
<g id="edge7" class="edge">
<title>cruise&#45;result.d.ts&#45;&gt;shared&#45;types.d.ts</title>
<path fill="none" stroke="#000000" stroke-width="2" stroke-opacity="0.200000" d="M217.6,-2.54C347.08,-2.54 732.5,-2.54 732.5,-2.54 732.5,-2.54 732.5,-156.61 732.5,-156.61"/>
<polygon fill="#000000" fill-opacity="0.200000" stroke="#000000" stroke-width="2" stroke-opacity="0.200000" points="730.4,-156.61 732.5,-162.61 734.6,-156.61 730.4,-156.61"/>
</g>
<!-- node_modules/watskeburt -->
<g id="node10" class="node">
<title>node_modules/watskeburt</title>
<g id="a_node10"><a xlink:href="https://github.com/sverweij/dependency-cruiser/blob/main/node_modules/watskeburt" xlink:title="watskeburt">
<polygon fill="#c40b0a" fill-opacity="0.101961" stroke="black" points="315.5,-77.75 257.22,-77.75 255.25,-75.78 255.25,-60 313.53,-60 315.5,-61.97 315.5,-77.75"/>
<polyline fill="none" stroke="black" points="313.53,-75.78 255.25,-75.78"/>
<polyline fill="none" stroke="black" points="313.53,-75.78 313.53,-60"/>
<polyline fill="none" stroke="black" points="313.53,-75.78 315.5,-77.75"/>
<text text-anchor="start" x="263.25" y="-65.2" font-family="Helvetica,sans-Serif" font-size="9.00" fill="#c40b0a">watskeburt</text>
</a>
</g>
</g>
<!-- cruise&#45;result.d.ts&#45;&gt;node_modules/watskeburt -->
<g id="edge9" class="edge">
<title>cruise&#45;result.d.ts&#45;&gt;node_modules/watskeburt</title>
<path fill="none" stroke="#000000" stroke-opacity="0.200000" d="M217.55,-12.68C248.57,-12.68 285.5,-12.68 285.5,-12.68 285.5,-12.68 285.5,-52.6 285.5,-52.6"/>
<polygon fill="#000000" fill-opacity="0.200000" stroke="#000000" stroke-opacity="0.200000" points="283.4,-52.6 285.5,-58.6 287.6,-52.6 283.4,-52.6"/>
</g>
<!-- rule&#45;summary.d.ts&#45;&gt;shared&#45;types.d.ts -->
<g id="edge29" class="edge">
<title>rule&#45;summary.d.ts&#45;&gt;shared&#45;types.d.ts</title>
<path fill="none" stroke="#000000" stroke-width="2" stroke-opacity="0.200000" d="M648.21,-66.88C680.54,-66.88 718.5,-66.88 718.5,-66.88 718.5,-66.88 718.5,-156.67 718.5,-156.67"/>
<polygon fill="#000000" fill-opacity="0.200000" stroke="#000000" stroke-width="2" stroke-opacity="0.200000" points="716.4,-156.67 718.5,-162.67 720.6,-156.67 716.4,-156.67"/>
</g>
<!-- dependency&#45;cruiser.d.ts -->
<g id="node11" class="node">
<title>dependency&#45;cruiser.d.ts</title>
<g id="a_node11"><a xlink:href="https://github.com/sverweij/dependency-cruiser/blob/main/dependency-cruiser.d.ts" xlink:title="dependency&#45;cruiser.d.ts">
<path fill="#ddfeff" stroke="black" d="M108.33,-172.75C108.33,-172.75 5.92,-172.75 5.92,-172.75 2.96,-172.75 0,-169.79 0,-166.83 0,-166.83 0,-160.92 0,-160.92 0,-157.96 2.96,-155 5.92,-155 5.92,-155 108.33,-155 108.33,-155 111.29,-155 114.25,-157.96 114.25,-160.92 114.25,-160.92 114.25,-166.83 114.25,-166.83 114.25,-169.79 111.29,-172.75 108.33,-172.75"/>
<text text-anchor="middle" x="57.12" y="-160.2" font-family="Helvetica,sans-Serif" font-size="9.00">dependency&#45;cruiser.d.ts</text>
</a>
</g>
</g>
<!-- dependency&#45;cruiser.d.ts&#45;&gt;configuration.d.ts -->
<g id="edge10" class="edge">
<title>dependency&#45;cruiser.d.ts&#45;&gt;configuration.d.ts</title>
<path fill="none" stroke="#000000" stroke-width="2" stroke-opacity="0.200000" d="M114.46,-164.17C150.61,-164.17 190.5,-164.17 190.5,-164.17 190.5,-164.17 190.5,-164.73 190.5,-164.73"/>
<polygon fill="#000000" fill-opacity="0.200000" stroke="#000000" stroke-width="2" stroke-opacity="0.200000" points="188.4,-160.81 190.5,-166.81 192.6,-160.81 188.4,-160.81"/>
</g>
<!-- dependency&#45;cruiser.d.ts&#45;&gt;options.d.ts -->
<g id="edge12" class="edge">
<title>dependency&#45;cruiser.d.ts&#45;&gt;options.d.ts</title>
<path fill="none" stroke="#000000" stroke-width="2" stroke-opacity="0.200000" d="M114.68,-162.33C180.57,-162.33 279.5,-162.33 279.5,-162.33 279.5,-162.33 279.5,-188.86 279.5,-188.86"/>
<polygon fill="#000000" fill-opacity="0.200000" stroke="#000000" stroke-width="2" stroke-opacity="0.200000" points="277.4,-188.86 279.5,-194.86 281.6,-188.86 277.4,-188.86"/>
</g>
<!-- dependency&#45;cruiser.d.ts&#45;&gt;rule&#45;set.d.ts -->
<g id="edge14" class="edge">
<title>dependency&#45;cruiser.d.ts&#45;&gt;rule&#45;set.d.ts</title>
<path fill="none" stroke="#000000" stroke-width="2" stroke-opacity="0.200000" d="M76.5,-154.52C76.5,-133.62 76.5,-85 76.5,-85 76.5,-85 360.34,-85 360.34,-85"/>
<polygon fill="#000000" fill-opacity="0.200000" stroke="#000000" stroke-width="2" stroke-opacity="0.200000" points="360.34,-87.1 366.34,-85 360.34,-82.9 360.34,-87.1"/>
</g>
<!-- dependency&#45;cruiser.d.ts&#45;&gt;cruise&#45;result.d.ts -->
<g id="edge11" class="edge">
<title>dependency&#45;cruiser.d.ts&#45;&gt;cruise&#45;result.d.ts</title>
<path fill="none" stroke="#000000" stroke-width="2" stroke-opacity="0.200000" d="M38.5,-154.64C38.5,-121.27 38.5,-8.88 38.5,-8.88 38.5,-8.88 125.2,-8.88 125.2,-8.88"/>
<polygon fill="#000000" fill-opacity="0.200000" stroke="#000000" stroke-width="2" stroke-opacity="0.200000" points="125.2,-10.98 131.2,-8.88 125.2,-6.78 125.2,-10.98"/>
</g>
<!-- dependency&#45;cruiser.d.ts&#45;&gt;shared&#45;types.d.ts -->
<g id="edge15" class="edge">
<title>dependency&#45;cruiser.d.ts&#45;&gt;shared&#45;types.d.ts</title>
<path fill="none" stroke="#000000" stroke-width="2" stroke-opacity="0.200000" d="M114.43,-160.5C244.83,-160.5 552.5,-160.5 552.5,-160.5 552.5,-160.5 552.5,-171.92 552.5,-171.92 552.5,-171.92 651.32,-171.92 651.32,-171.92"/>
<polygon fill="#000000" fill-opacity="0.200000" stroke="#000000" stroke-width="2" stroke-opacity="0.200000" points="651.32,-174.02 657.32,-171.92 651.32,-169.82 651.32,-174.02"/>
</g>
<!-- resolve&#45;options.d.ts -->
<g id="node12" class="node">
<title>resolve&#45;options.d.ts</title>
<g id="a_node12"><a xlink:href="https://github.com/sverweij/dependency-cruiser/blob/main/resolve-options.d.ts" xlink:title="resolve&#45;options.d.ts">
<path fill="#ddfeff" stroke="black" d="M217.58,-147.75C217.58,-147.75 133.92,-147.75 133.92,-147.75 130.96,-147.75 128,-144.79 128,-141.83 128,-141.83 128,-135.92 128,-135.92 128,-132.96 130.96,-130 133.92,-130 133.92,-130 217.58,-130 217.58,-130 220.54,-130 223.5,-132.96 223.5,-135.92 223.5,-135.92 223.5,-141.83 223.5,-141.83 223.5,-144.79 220.54,-147.75 217.58,-147.75"/>
<text text-anchor="middle" x="175.75" y="-135.2" font-family="Helvetica,sans-Serif" font-size="9.00">resolve&#45;options.d.ts</text>
</a>
</g>
</g>
<!-- dependency&#45;cruiser.d.ts&#45;&gt;resolve&#45;options.d.ts -->
<g id="edge13" class="edge">
<title>dependency&#45;cruiser.d.ts&#45;&gt;resolve&#45;options.d.ts</title>
<path fill="none" stroke="#000000" stroke-width="2" stroke-opacity="0.200000" d="M114.5,-158.67C138.76,-158.67 161.5,-158.67 161.5,-158.67 161.5,-158.67 161.5,-156.84 161.5,-156.84"/>
<polygon fill="#000000" fill-opacity="0.200000" stroke="#000000" stroke-width="2" stroke-opacity="0.200000" points="163.6,-156.84 161.5,-150.84 159.4,-156.84 163.6,-156.84"/>
</g>
<!-- node_modules/enhanced&#45;resolve -->
<g id="node16" class="node">
<title>node_modules/enhanced&#45;resolve</title>
<g id="a_node16"><a xlink:href="https://github.com/sverweij/dependency-cruiser/blob/main/node_modules/enhanced-resolve" xlink:title="enhanced&#45;resolve">
<polygon fill="#c40b0a" fill-opacity="0.101961" stroke="black" points="330.5,-137.75 242.22,-137.75 240.25,-135.78 240.25,-120 328.53,-120 330.5,-121.97 330.5,-137.75"/>
<polyline fill="none" stroke="black" points="328.53,-135.78 240.25,-135.78"/>
<polyline fill="none" stroke="black" points="328.53,-135.78 328.53,-120"/>
<polyline fill="none" stroke="black" points="328.53,-135.78 330.5,-137.75"/>
<text text-anchor="start" x="248.25" y="-125.2" font-family="Helvetica,sans-Serif" font-size="9.00" fill="#c40b0a">enhanced&#45;resolve</text>
</a>
</g>
</g>
<!-- resolve&#45;options.d.ts&#45;&gt;node_modules/enhanced&#45;resolve -->
<g id="edge25" class="edge">
<title>resolve&#45;options.d.ts&#45;&gt;node_modules/enhanced&#45;resolve</title>
<path fill="none" stroke="#000000" stroke-opacity="0.200000" d="M223.83,-133.88C223.83,-133.88 232.76,-133.88 232.76,-133.88"/>
<polygon fill="#000000" fill-opacity="0.200000" stroke="#000000" stroke-opacity="0.200000" points="232.76,-135.98 238.76,-133.88 232.76,-131.78 232.76,-135.98"/>
</g>
<!-- extract&#45;ts&#45;config.d.ts -->
<g id="node13" class="node">
<title>extract&#45;ts&#45;config.d.ts</title>
<g id="a_node13"><a xlink:href="https://github.com/sverweij/dependency-cruiser/blob/main/extract-ts-config.d.ts" xlink:title="extract&#45;ts&#45;config.d.ts">
<path fill="#ddfeff" stroke="black" d="M218.33,-107.75C218.33,-107.75 133.17,-107.75 133.17,-107.75 130.21,-107.75 127.25,-104.79 127.25,-101.83 127.25,-101.83 127.25,-95.92 127.25,-95.92 127.25,-92.96 130.21,-90 133.17,-90 133.17,-90 218.33,-90 218.33,-90 221.29,-90 224.25,-92.96 224.25,-95.92 224.25,-95.92 224.25,-101.83 224.25,-101.83 224.25,-104.79 221.29,-107.75 218.33,-107.75"/>
<text text-anchor="middle" x="175.75" y="-95.2" font-family="Helvetica,sans-Serif" font-size="9.00">extract&#45;ts&#45;config.d.ts</text>
</a>
</g>
</g>
<!-- node_modules/typescript -->
<g id="node14" class="node">
<title>node_modules/typescript</title>
<g id="a_node14"><a xlink:href="https://github.com/sverweij/dependency-cruiser/blob/main/node_modules/typescript" xlink:title="typescript">
<polygon fill="#c40b0a" fill-opacity="0.101961" stroke="black" points="312.88,-107.75 259.85,-107.75 257.88,-105.78 257.88,-90 310.9,-90 312.88,-91.97 312.88,-107.75"/>
<polyline fill="none" stroke="black" points="310.9,-105.78 257.88,-105.78"/>
<polyline fill="none" stroke="black" points="310.9,-105.78 310.9,-90"/>
<polyline fill="none" stroke="black" points="310.9,-105.78 312.88,-107.75"/>
<text text-anchor="start" x="265.88" y="-95.2" font-family="Helvetica,sans-Serif" font-size="9.00" fill="#c40b0a">typescript</text>
</a>
</g>
</g>
<!-- extract&#45;ts&#45;config.d.ts&#45;&gt;node_modules/typescript -->
<g id="edge16" class="edge">
<title>extract&#45;ts&#45;config.d.ts&#45;&gt;node_modules/typescript</title>
<path fill="none" stroke="#000000" stroke-opacity="0.200000" d="M224.47,-98.88C224.47,-98.88 250.53,-98.88 250.53,-98.88"/>
<polygon fill="#000000" fill-opacity="0.200000" stroke="#000000" stroke-opacity="0.200000" points="250.53,-100.98 256.53,-98.88 250.53,-96.78 250.53,-100.98"/>
</g>
<!-- filter&#45;types.d.ts&#45;&gt;shared&#45;types.d.ts -->
<g id="edge17" class="edge">
<title>filter&#45;types.d.ts&#45;&gt;shared&#45;types.d.ts</title>
<path fill="none" stroke="#000000" stroke-width="2" stroke-opacity="0.200000" d="M545.12,-204.88C595.42,-204.88 678.5,-204.88 678.5,-204.88 678.5,-204.88 678.5,-193.04 678.5,-193.04"/>
<polygon fill="#000000" fill-opacity="0.200000" stroke="#000000" stroke-width="2" stroke-opacity="0.200000" points="680.6,-193.04 678.5,-187.04 676.4,-193.04 680.6,-193.04"/>
</g>
<!-- reporter&#45;options.d.ts&#45;&gt;filter&#45;types.d.ts -->
<g id="edge24" class="edge">
<title>reporter&#45;options.d.ts&#45;&gt;filter&#45;types.d.ts</title>
<path fill="none" stroke="#000000" stroke-width="2" stroke-opacity="0.200000" d="M401.5,-184.12C401.5,-193.75 401.5,-207.45 401.5,-207.45 401.5,-207.45 460.91,-207.45 460.91,-207.45"/>
<polygon fill="#000000" fill-opacity="0.200000" stroke="#000000" stroke-width="2" stroke-opacity="0.200000" points="460.91,-209.55 466.91,-207.45 460.91,-205.35 460.91,-209.55"/>
</g>
<!-- restrictions.d.ts&#45;&gt;shared&#45;types.d.ts -->
<g id="edge26" class="edge">
<title>restrictions.d.ts&#45;&gt;shared&#45;types.d.ts</title>
<path fill="none" stroke="#000000" stroke-width="2" stroke-opacity="0.200000" d="M546.35,-177.83C546.35,-177.83 651.55,-177.83 651.55,-177.83"/>
<polygon fill="#000000" fill-opacity="0.200000" stroke="#000000" stroke-width="2" stroke-opacity="0.200000" points="651.55,-179.93 657.55,-177.83 651.55,-175.73 651.55,-179.93"/>
</g>
<!-- strict&#45;filter&#45;types.d.ts -->
<g id="node19" class="node">
<title>strict&#45;filter&#45;types.d.ts</title>
<g id="a_node19"><a xlink:href="https://github.com/sverweij/dependency-cruiser/blob/main/strict-filter-types.d.ts" xlink:title="strict&#45;filter&#45;types.d.ts">
<path fill="#ddfeff" stroke="black" d="M443.58,-299.75C443.58,-299.75 359.17,-299.75 359.17,-299.75 356.21,-299.75 353.25,-296.79 353.25,-293.83 353.25,-293.83 353.25,-287.92 353.25,-287.92 353.25,-284.96 356.21,-282 359.17,-282 359.17,-282 443.58,-282 443.58,-282 446.54,-282 449.5,-284.96 449.5,-287.92 449.5,-287.92 449.5,-293.83 449.5,-293.83 449.5,-296.79 446.54,-299.75 443.58,-299.75"/>
<text text-anchor="middle" x="401.38" y="-287.2" font-family="Helvetica,sans-Serif" font-size="9.00">strict&#45;filter&#45;types.d.ts</text>
</a>
</g>
</g>
<!-- strict&#45;filter&#45;types.d.ts&#45;&gt;shared&#45;types.d.ts -->
<g id="edge31" class="edge">
<title>strict&#45;filter&#45;types.d.ts&#45;&gt;shared&#45;types.d.ts</title>
<path fill="none" stroke="#000000" stroke-width="2" stroke-opacity="0.200000" d="M449.79,-293.83C541.06,-293.83 729.5,-293.83 729.5,-293.83 729.5,-293.83 729.5,-193.21 729.5,-193.21"/>
<polygon fill="#000000" fill-opacity="0.200000" stroke="#000000" stroke-width="2" stroke-opacity="0.200000" points="731.6,-193.21 729.5,-187.21 727.4,-193.21 731.6,-193.21"/>
</g>
<!-- strict&#45;filter&#45;types.d.ts&#45;&gt;filter&#45;types.d.ts -->
<g id="edge30" class="edge">
<title>strict&#45;filter&#45;types.d.ts&#45;&gt;filter&#45;types.d.ts</title>
<path fill="none" stroke="#000000" stroke-width="2" stroke-opacity="0.200000" d="M449.92,-287.92C478.27,-287.92 508.5,-287.92 508.5,-287.92 508.5,-287.92 508.5,-223.08 508.5,-223.08"/>
<polygon fill="#000000" fill-opacity="0.200000" stroke="#000000" stroke-width="2" stroke-opacity="0.200000" points="510.6,-223.08 508.5,-217.08 506.4,-223.08 510.6,-223.08"/>
</g>
<!-- strict&#45;options.d.ts -->
<g id="node20" class="node">
<title>strict&#45;options.d.ts</title>
<g id="a_node20"><a xlink:href="https://github.com/sverweij/dependency-cruiser/blob/main/strict-options.d.ts" xlink:title="strict&#45;options.d.ts">
<path fill="#ddfeff" stroke="black" d="M211.96,-271.75C211.96,-271.75 139.54,-271.75 139.54,-271.75 136.58,-271.75 133.62,-268.79 133.62,-265.83 133.62,-265.83 133.62,-259.92 133.62,-259.92 133.62,-256.96 136.58,-254 139.54,-254 139.54,-254 211.96,-254 211.96,-254 214.92,-254 217.88,-256.96 217.88,-259.92 217.88,-259.92 217.88,-265.83 217.88,-265.83 217.88,-268.79 214.92,-271.75 211.96,-271.75"/>
<text text-anchor="middle" x="175.75" y="-259.2" font-family="Helvetica,sans-Serif" font-size="9.00">strict&#45;options.d.ts</text>
</a>
</g>
</g>
<!-- strict&#45;options.d.ts&#45;&gt;cache&#45;options.d.ts -->
<g id="edge32" class="edge">
<title>strict&#45;options.d.ts&#45;&gt;cache&#45;options.d.ts</title>
<path fill="none" stroke="#000000" stroke-width="2" stroke-opacity="0.200000" d="M176.5,-253.69C176.5,-245.18 176.5,-233.83 176.5,-233.83 176.5,-233.83 346.87,-233.83 346.87,-233.83"/>
<polygon fill="#000000" fill-opacity="0.200000" stroke="#000000" stroke-width="2" stroke-opacity="0.200000" points="346.87,-235.93 352.87,-233.83 346.87,-231.73 346.87,-235.93"/>
</g>
<!-- strict&#45;options.d.ts&#45;&gt;options.d.ts -->
<g id="edge33" class="edge">
<title>strict&#45;options.d.ts&#45;&gt;options.d.ts</title>
<path fill="none" stroke="#000000" stroke-width="2" stroke-opacity="0.200000" d="M155.5,-253.64C155.5,-238.44 155.5,-209.83 155.5,-209.83 155.5,-209.83 244.94,-209.83 244.94,-209.83"/>
<polygon fill="#000000" fill-opacity="0.200000" stroke="#000000" stroke-width="2" stroke-opacity="0.200000" points="244.94,-211.93 250.94,-209.83 244.94,-207.73 244.94,-211.93"/>
</g>
<!-- strict&#45;options.d.ts&#45;&gt;shared&#45;types.d.ts -->
<g id="edge34" class="edge">
<title>strict&#45;options.d.ts&#45;&gt;shared&#45;types.d.ts</title>
<path fill="none" stroke="#000000" stroke-width="2" stroke-opacity="0.200000" d="M197.5,-253.8C197.5,-248.9 197.5,-243.83 197.5,-243.83 197.5,-243.83 695.5,-243.83 695.5,-243.83 695.5,-243.83 695.5,-193.18 695.5,-193.18"/>
<polygon fill="#000000" fill-opacity="0.200000" stroke="#000000" stroke-width="2" stroke-opacity="0.200000" points="697.6,-193.18 695.5,-187.18 693.4,-193.18 697.6,-193.18"/>
</g>
<!-- strict&#45;options.d.ts&#45;&gt;strict&#45;filter&#45;types.d.ts -->
<g id="edge35" class="edge">
<title>strict&#45;options.d.ts&#45;&gt;strict&#45;filter&#45;types.d.ts</title>
<path fill="none" stroke="#000000" stroke-width="2" stroke-opacity="0.200000" d="M176.5,-272.04C176.5,-280.21 176.5,-290.88 176.5,-290.88 176.5,-290.88 343.86,-290.88 343.86,-290.88"/>
<polygon fill="#000000" fill-opacity="0.200000" stroke="#000000" stroke-width="2" stroke-opacity="0.200000" points="343.86,-292.98 349.86,-290.88 343.86,-288.78 343.86,-292.98"/>
</g>
<!-- strict&#45;rule&#45;set.d.ts -->
<g id="node21" class="node">
<title>strict&#45;rule&#45;set.d.ts</title>
<g id="a_node21"><a xlink:href="https://github.com/sverweij/dependency-cruiser/blob/main/strict-rule-set.d.ts" xlink:title="strict&#45;rule&#45;set.d.ts">
<path fill="#ddfeff" stroke="black" d="M321.96,-271.75C321.96,-271.75 248.79,-271.75 248.79,-271.75 245.83,-271.75 242.88,-268.79 242.88,-265.83 242.88,-265.83 242.88,-259.92 242.88,-259.92 242.88,-256.96 245.83,-254 248.79,-254 248.79,-254 321.96,-254 321.96,-254 324.92,-254 327.88,-256.96 327.88,-259.92 327.88,-259.92 327.88,-265.83 327.88,-265.83 327.88,-268.79 324.92,-271.75 321.96,-271.75"/>
<text text-anchor="middle" x="285.38" y="-259.2" font-family="Helvetica,sans-Serif" font-size="9.00">strict&#45;rule&#45;set.d.ts</text>
</a>
</g>
</g>
<!-- strict&#45;options.d.ts&#45;&gt;strict&#45;rule&#45;set.d.ts -->
<g id="edge36" class="edge">
<title>strict&#45;options.d.ts&#45;&gt;strict&#45;rule&#45;set.d.ts</title>
<path fill="none" stroke="#000000" stroke-width="2" stroke-opacity="0.200000" d="M218.13,-262.88C218.13,-262.88 233.38,-262.88 233.38,-262.88"/>
<polygon fill="#000000" fill-opacity="0.200000" stroke="#000000" stroke-width="2" stroke-opacity="0.200000" points="233.38,-264.98 239.38,-262.88 233.38,-260.78 233.38,-264.98"/>
</g>
<!-- strict&#45;rule&#45;set.d.ts&#45;&gt;rule&#45;set.d.ts -->
<g id="edge38" class="edge">
<title>strict&#45;rule&#45;set.d.ts&#45;&gt;rule&#45;set.d.ts</title>
<path fill="none" stroke="#000000" stroke-width="2" stroke-opacity="0.200000" d="M328.27,-259.25C335.38,-259.25 340.5,-259.25 340.5,-259.25 340.5,-259.25 340.5,-95.81 340.5,-95.81 340.5,-95.81 360.51,-95.81 360.51,-95.81"/>
<polygon fill="#000000" fill-opacity="0.200000" stroke="#000000" stroke-width="2" stroke-opacity="0.200000" points="360.51,-97.91 366.51,-95.81 360.51,-93.71 360.51,-97.91"/>
</g>
<!-- strict&#45;rule&#45;set.d.ts&#45;&gt;shared&#45;types.d.ts -->
<g id="edge39" class="edge">
<title>strict&#45;rule&#45;set.d.ts&#45;&gt;shared&#45;types.d.ts</title>
<path fill="none" stroke="#000000" stroke-width="2" stroke-opacity="0.200000" d="M322.5,-253.66C322.5,-250.58 322.5,-247.92 322.5,-247.92 322.5,-247.92 712.5,-247.92 712.5,-247.92 712.5,-247.92 712.5,-193.13 712.5,-193.13"/>
<polygon fill="#000000" fill-opacity="0.200000" stroke="#000000" stroke-width="2" stroke-opacity="0.200000" points="714.6,-193.13 712.5,-187.13 710.4,-193.13 714.6,-193.13"/>
</g>
<!-- strict&#45;restrictions.d.ts -->
<g id="node22" class="node">
<title>strict&#45;restrictions.d.ts</title>
<g id="a_node22"><a xlink:href="https://github.com/sverweij/dependency-cruiser/blob/main/strict-restrictions.d.ts" xlink:title="strict&#45;restrictions.d.ts">
<path fill="#ddfeff" stroke="black" d="M444.71,-269.75C444.71,-269.75 358.04,-269.75 358.04,-269.75 355.08,-269.75 352.12,-266.79 352.12,-263.83 352.12,-263.83 352.12,-257.92 352.12,-257.92 352.12,-254.96 355.08,-252 358.04,-252 358.04,-252 444.71,-252 444.71,-252 447.67,-252 450.62,-254.96 450.62,-257.92 450.62,-257.92 450.62,-263.83 450.62,-263.83 450.62,-266.79 447.67,-269.75 444.71,-269.75"/>
<text text-anchor="middle" x="401.38" y="-257.2" font-family="Helvetica,sans-Serif" font-size="9.00">strict&#45;restrictions.d.ts</text>
</a>
</g>
</g>
<!-- strict&#45;rule&#45;set.d.ts&#45;&gt;strict&#45;restrictions.d.ts -->
<g id="edge40" class="edge">
<title>strict&#45;rule&#45;set.d.ts&#45;&gt;strict&#45;restrictions.d.ts</title>
<path fill="none" stroke="#000000" stroke-width="2" stroke-opacity="0.200000" d="M328.24,-264.5C328.24,-264.5 342.63,-264.5 342.63,-264.5"/>
<polygon fill="#000000" fill-opacity="0.200000" stroke="#000000" stroke-width="2" stroke-opacity="0.200000" points="342.63,-266.6 348.63,-264.5 342.63,-262.4 342.63,-266.6"/>
</g>
<!-- strict&#45;restrictions.d.ts&#45;&gt;restrictions.d.ts -->
<g id="edge37" class="edge">
<title>strict&#45;restrictions.d.ts&#45;&gt;restrictions.d.ts</title>
<path fill="none" stroke="#000000" stroke-width="2" stroke-opacity="0.200000" d="M450.93,-260.88C458.31,-260.88 463.5,-260.88 463.5,-260.88 463.5,-260.88 463.5,-174.88 463.5,-174.88 463.5,-174.88 464.04,-174.88 464.04,-174.88"/>
<polygon fill="#000000" fill-opacity="0.200000" stroke="#000000" stroke-width="2" stroke-opacity="0.200000" points="459.91,-176.98 465.91,-174.88 459.91,-172.78 459.91,-176.98"/>
</g>
</g>
</svg>
