<?xml version="1.0" encoding="UTF-8" standalone="no"?>
<!DOCTYPE svg PUBLIC "-//W3C//DTD SVG 1.1//EN"
 "http://www.w3.org/Graphics/SVG/1.1/DTD/svg11.dtd">
<!-- Generated by graphviz version 2.44.0 (20200408.0750)
 -->
<!-- Title: dependency&#45;cruiser output Pages: 1 -->
<svg width="508pt" height="110pt"
 viewBox="0.00 0.00 508.00 110.00" xmlns="http://www.w3.org/2000/svg" xmlns:xlink="http://www.w3.org/1999/xlink">
<g id="graph0" class="graph" transform="scale(1 1) rotate(0) translate(4 106)">
<title>dependency&#45;cruiser output</title>
<polygon fill="white" stroke="transparent" points="-4,4 -4,-106 504,-106 504,4 -4,4"/>
<!-- configuration.d.ts -->
<g id="node1" class="node">
<title>configuration.d.ts</title>
<g id="a_node1"><a xlink:href="https://github.com/sverweij/dependency-cruiser/blob/develop/configuration.d.ts" xlink:title="configuration.d.ts">
<path fill="#ddfeff" stroke="black" d="M208,-76C208,-76 134,-76 134,-76 131,-76 128,-73 128,-70 128,-70 128,-64 128,-64 128,-61 131,-58 134,-58 134,-58 208,-58 208,-58 211,-58 214,-61 214,-64 214,-64 214,-70 214,-70 214,-73 211,-76 208,-76"/>
<text text-anchor="middle" x="171" y="-64.8" font-family="Helvetica,sans-Serif" font-size="9.00">configuration.d.ts</text>
</a>
</g>
</g>
<!-- options.d.ts -->
<g id="node2" class="node">
<title>options.d.ts</title>
<g id="a_node2"><a xlink:href="https://github.com/sverweij/dependency-cruiser/blob/develop/options.d.ts" xlink:title="options.d.ts">
<path fill="#ddfeff" stroke="black" d="M284,-99C284,-99 233,-99 233,-99 230,-99 227,-96 227,-93 227,-93 227,-87 227,-87 227,-84 230,-81 233,-81 233,-81 284,-81 284,-81 287,-81 290,-84 290,-87 290,-87 290,-93 290,-93 290,-96 287,-99 284,-99"/>
<text text-anchor="middle" x="258.5" y="-87.8" font-family="Helvetica,sans-Serif" font-size="9.00">options.d.ts</text>
</a>
</g>
</g>
<!-- configuration.d.ts&#45;&gt;options.d.ts -->
<g id="edge1" class="edge">
<title>configuration.d.ts&#45;&gt;options.d.ts</title>
<path fill="none" stroke="#000000" stroke-width="2" stroke-opacity="0.200000" d="M214.19,-68.5C227.15,-68.5 238,-68.5 238,-68.5 238,-68.5 238,-74.76 238,-74.76"/>
<polygon fill="#000000" fill-opacity="0.200000" stroke="#000000" stroke-width="2" stroke-opacity="0.200000" points="235.9,-74.76 238,-80.76 240.1,-74.76 235.9,-74.76"/>
</g>
<!-- rule&#45;set.d.ts -->
<g id="node3" class="node">
<title>rule&#45;set.d.ts</title>
<g id="a_node3"><a xlink:href="https://github.com/sverweij/dependency-cruiser/blob/develop/rule-set.d.ts" xlink:title="rule&#45;set.d.ts">
<path fill="#ddfeff" stroke="black" d="M378,-72C378,-72 326,-72 326,-72 323,-72 320,-69 320,-66 320,-66 320,-60 320,-60 320,-57 323,-54 326,-54 326,-54 378,-54 378,-54 381,-54 384,-57 384,-60 384,-60 384,-66 384,-66 384,-69 381,-72 378,-72"/>
<text text-anchor="middle" x="352" y="-60.8" font-family="Helvetica,sans-Serif" font-size="9.00">rule&#45;set.d.ts</text>
</a>
</g>
</g>
<!-- configuration.d.ts&#45;&gt;rule&#45;set.d.ts -->
<g id="edge2" class="edge">
<title>configuration.d.ts&#45;&gt;rule&#45;set.d.ts</title>
<path fill="none" stroke="#000000" stroke-width="2" stroke-opacity="0.200000" d="M214.35,-61.5C214.35,-61.5 313.77,-61.5 313.77,-61.5"/>
<polygon fill="#000000" fill-opacity="0.200000" stroke="#000000" stroke-width="2" stroke-opacity="0.200000" points="313.77,-63.6 319.77,-61.5 313.77,-59.4 313.77,-63.6"/>
</g>
<!-- options.d.ts&#45;&gt;rule&#45;set.d.ts -->
<g id="edge12" class="edge">
<title>options.d.ts&#45;&gt;rule&#45;set.d.ts</title>
<path fill="none" stroke="#000000" stroke-width="2" stroke-opacity="0.200000" d="M280,-80.97C280,-73.81 280,-65 280,-65 280,-65 313.79,-65 313.79,-65"/>
<polygon fill="#000000" fill-opacity="0.200000" stroke="#000000" stroke-width="2" stroke-opacity="0.200000" points="313.79,-67.1 319.79,-65 313.79,-62.9 313.79,-67.1"/>
</g>
<!-- shared&#45;types.d.ts -->
<g id="node5" class="node">
<title>shared&#45;types.d.ts</title>
<g id="a_node5"><a xlink:href="https://github.com/sverweij/dependency-cruiser/blob/develop/shared-types.d.ts" xlink:title="shared&#45;types.d.ts">
<path fill="#ddfeff" stroke="black" d="M494,-31C494,-31 420,-31 420,-31 417,-31 414,-28 414,-25 414,-25 414,-19 414,-19 414,-16 417,-13 420,-13 420,-13 494,-13 494,-13 497,-13 500,-16 500,-19 500,-19 500,-25 500,-25 500,-28 497,-31 494,-31"/>
<text text-anchor="middle" x="457" y="-19.8" font-family="Helvetica,sans-Serif" font-size="9.00">shared&#45;types.d.ts</text>
</a>
</g>
</g>
<!-- options.d.ts&#45;&gt;shared&#45;types.d.ts -->
<g id="edge13" class="edge">
<title>options.d.ts&#45;&gt;shared&#45;types.d.ts</title>
<path fill="none" stroke="#000000" stroke-width="2" stroke-opacity="0.200000" d="M269,-80.96C269,-62.68 269,-23 269,-23 269,-23 407.87,-23 407.87,-23"/>
<polygon fill="#000000" fill-opacity="0.200000" stroke="#000000" stroke-width="2" stroke-opacity="0.200000" points="407.87,-25.1 413.87,-23 407.87,-20.9 407.87,-25.1"/>
</g>
<!-- reporter&#45;options.d.ts -->
<g id="node7" class="node">
<title>reporter&#45;options.d.ts</title>
<g id="a_node7"><a xlink:href="https://github.com/sverweij/dependency-cruiser/blob/develop/reporter-options.d.ts" xlink:title="reporter&#45;options.d.ts">
<path fill="#ddfeff" stroke="black" d="M395,-102C395,-102 309,-102 309,-102 306,-102 303,-99 303,-96 303,-96 303,-90 303,-90 303,-87 306,-84 309,-84 309,-84 395,-84 395,-84 398,-84 401,-87 401,-90 401,-90 401,-96 401,-96 401,-99 398,-102 395,-102"/>
<text text-anchor="middle" x="352" y="-90.8" font-family="Helvetica,sans-Serif" font-size="9.00">reporter&#45;options.d.ts</text>
</a>
</g>
</g>
<!-- options.d.ts&#45;&gt;reporter&#45;options.d.ts -->
<g id="edge11" class="edge">
<title>options.d.ts&#45;&gt;reporter&#45;options.d.ts</title>
<path fill="none" stroke="#000000" stroke-width="2" stroke-opacity="0.200000" d="M290.15,-91.5C290.15,-91.5 296.93,-91.5 296.93,-91.5"/>
<polygon fill="#000000" fill-opacity="0.200000" stroke="#000000" stroke-width="2" stroke-opacity="0.200000" points="296.93,-93.6 302.93,-91.5 296.93,-89.4 296.93,-93.6"/>
</g>
<!-- rule&#45;set.d.ts&#45;&gt;shared&#45;types.d.ts -->
<g id="edge14" class="edge">
<title>rule&#45;set.d.ts&#45;&gt;shared&#45;types.d.ts</title>
<path fill="none" stroke="#000000" stroke-width="2" stroke-opacity="0.200000" d="M368,-53.92C368,-42.82 368,-25.5 368,-25.5 368,-25.5 407.8,-25.5 407.8,-25.5"/>
<polygon fill="#000000" fill-opacity="0.200000" stroke="#000000" stroke-width="2" stroke-opacity="0.200000" points="407.8,-27.6 413.8,-25.5 407.8,-23.4 407.8,-27.6"/>
</g>
<!-- cruise&#45;result.d.ts -->
<g id="node4" class="node">
<title>cruise&#45;result.d.ts</title>
<g id="a_node4"><a xlink:href="https://github.com/sverweij/dependency-cruiser/blob/develop/cruise-result.d.ts" xlink:title="cruise&#45;result.d.ts">
<path fill="#ddfeff" stroke="black" d="M206.5,-46C206.5,-46 135.5,-46 135.5,-46 132.5,-46 129.5,-43 129.5,-40 129.5,-40 129.5,-34 129.5,-34 129.5,-31 132.5,-28 135.5,-28 135.5,-28 206.5,-28 206.5,-28 209.5,-28 212.5,-31 212.5,-34 212.5,-34 212.5,-40 212.5,-40 212.5,-43 209.5,-46 206.5,-46"/>
<text text-anchor="middle" x="171" y="-34.8" font-family="Helvetica,sans-Serif" font-size="9.00">cruise&#45;result.d.ts</text>
</a>
</g>
</g>
<!-- cruise&#45;result.d.ts&#45;&gt;options.d.ts -->
<g id="edge3" class="edge">
<title>cruise&#45;result.d.ts&#45;&gt;options.d.ts</title>
<path fill="none" stroke="#000000" stroke-width="2" stroke-opacity="0.200000" d="M212.66,-41C230.8,-41 248,-41 248,-41 248,-41 248,-74.55 248,-74.55"/>
<polygon fill="#000000" fill-opacity="0.200000" stroke="#000000" stroke-width="2" stroke-opacity="0.200000" points="245.9,-74.55 248,-80.55 250.1,-74.55 245.9,-74.55"/>
</g>
<!-- cruise&#45;result.d.ts&#45;&gt;rule&#45;set.d.ts -->
<g id="edge4" class="edge">
<title>cruise&#45;result.d.ts&#45;&gt;rule&#45;set.d.ts</title>
<path fill="none" stroke="#000000" stroke-width="2" stroke-opacity="0.200000" d="M212.64,-36C261.52,-36 336,-36 336,-36 336,-36 336,-47.86 336,-47.86"/>
<polygon fill="#000000" fill-opacity="0.200000" stroke="#000000" stroke-width="2" stroke-opacity="0.200000" points="333.9,-47.86 336,-53.86 338.1,-47.86 333.9,-47.86"/>
</g>
<!-- cruise&#45;result.d.ts&#45;&gt;shared&#45;types.d.ts -->
<g id="edge5" class="edge">
<title>cruise&#45;result.d.ts&#45;&gt;shared&#45;types.d.ts</title>
<path fill="none" stroke="#000000" stroke-width="2" stroke-opacity="0.200000" d="M158,-27.98C158,-24.13 158,-20.5 158,-20.5 158,-20.5 407.84,-20.5 407.84,-20.5"/>
<polygon fill="#000000" fill-opacity="0.200000" stroke="#000000" stroke-width="2" stroke-opacity="0.200000" points="407.84,-22.6 413.84,-20.5 407.84,-18.4 407.84,-22.6"/>
</g>
<!-- dependency&#45;cruiser.d.ts -->
<g id="node6" class="node">
<title>dependency&#45;cruiser.d.ts</title>
<g id="a_node6"><a xlink:href="https://github.com/sverweij/dependency-cruiser/blob/develop/dependency-cruiser.d.ts" xlink:title="dependency&#45;cruiser.d.ts">
<path fill="#ddfeff" stroke="black" d="M109,-18C109,-18 6,-18 6,-18 3,-18 0,-15 0,-12 0,-12 0,-6 0,-6 0,-3 3,0 6,0 6,0 109,0 109,0 112,0 115,-3 115,-6 115,-6 115,-12 115,-12 115,-15 112,-18 109,-18"/>
<text text-anchor="middle" x="57.5" y="-6.8" font-family="Helvetica,sans-Serif" font-size="9.00">dependency&#45;cruiser.d.ts</text>
</a>
</g>
</g>
<!-- dependency&#45;cruiser.d.ts&#45;&gt;configuration.d.ts -->
<g id="edge6" class="edge">
<title>dependency&#45;cruiser.d.ts&#45;&gt;configuration.d.ts</title>
<path fill="none" stroke="#000000" stroke-width="2" stroke-opacity="0.200000" d="M58,-18.06C58,-34.38 58,-67 58,-67 58,-67 121.96,-67 121.96,-67"/>
<polygon fill="#000000" fill-opacity="0.200000" stroke="#000000" stroke-width="2" stroke-opacity="0.200000" points="121.96,-69.1 127.96,-67 121.96,-64.9 121.96,-69.1"/>
</g>
<!-- dependency&#45;cruiser.d.ts&#45;&gt;options.d.ts -->
<g id="edge8" class="edge">
<title>dependency&#45;cruiser.d.ts&#45;&gt;options.d.ts</title>
<path fill="none" stroke="#000000" stroke-width="2" stroke-opacity="0.200000" d="M115.24,-7.8C174.78,-7.8 259,-7.8 259,-7.8 259,-7.8 259,-74.89 259,-74.89"/>
<polygon fill="#000000" fill-opacity="0.200000" stroke="#000000" stroke-width="2" stroke-opacity="0.200000" points="256.9,-74.89 259,-80.89 261.1,-74.89 256.9,-74.89"/>
</g>
<!-- dependency&#45;cruiser.d.ts&#45;&gt;rule&#45;set.d.ts -->
<g id="edge9" class="edge">
<title>dependency&#45;cruiser.d.ts&#45;&gt;rule&#45;set.d.ts</title>
<path fill="none" stroke="#000000" stroke-width="2" stroke-opacity="0.200000" d="M115.33,-5.2C201.1,-5.2 352,-5.2 352,-5.2 352,-5.2 352,-47.97 352,-47.97"/>
<polygon fill="#000000" fill-opacity="0.200000" stroke="#000000" stroke-width="2" stroke-opacity="0.200000" points="349.9,-47.97 352,-53.97 354.1,-47.97 349.9,-47.97"/>
</g>
<!-- dependency&#45;cruiser.d.ts&#45;&gt;cruise&#45;result.d.ts -->
<g id="edge7" class="edge">
<title>dependency&#45;cruiser.d.ts&#45;&gt;cruise&#45;result.d.ts</title>
<path fill="none" stroke="#000000" stroke-width="2" stroke-opacity="0.200000" d="M115.28,-10.4C149.02,-10.4 185,-10.4 185,-10.4 185,-10.4 185,-21.99 185,-21.99"/>
<polygon fill="#000000" fill-opacity="0.200000" stroke="#000000" stroke-width="2" stroke-opacity="0.200000" points="182.9,-21.99 185,-27.99 187.1,-21.99 182.9,-21.99"/>
</g>
<!-- dependency&#45;cruiser.d.ts&#45;&gt;shared&#45;types.d.ts -->
<g id="edge10" class="edge">
<title>dependency&#45;cruiser.d.ts&#45;&gt;shared&#45;types.d.ts</title>
<path fill="none" stroke="#000000" stroke-width="2" stroke-opacity="0.200000" d="M115.16,-2.6C225.8,-2.6 457,-2.6 457,-2.6 457,-2.6 457,-6.75 457,-6.75"/>
<polygon fill="#000000" fill-opacity="0.200000" stroke="#000000" stroke-width="2" stroke-opacity="0.200000" points="454.9,-6.75 457,-12.75 459.1,-6.75 454.9,-6.75"/>
</g>
</g>
</svg>
