<?xml version="1.0" encoding="UTF-8" standalone="no"?>
<!DOCTYPE svg PUBLIC "-//W3C//DTD SVG 1.1//EN"
 "http://www.w3.org/Graphics/SVG/1.1/DTD/svg11.dtd">
<!-- Generated by graphviz version 2.50.0 (20211204.2007)
 -->
<!-- Title: dependency&#45;cruiser output Pages: 1 -->
<svg width="723pt" height="198pt"
 viewBox="0.00 0.00 723.00 198.00" xmlns="http://www.w3.org/2000/svg" xmlns:xlink="http://www.w3.org/1999/xlink">
<g id="graph0" class="graph" transform="scale(1 1) rotate(0) translate(4 194)">
<title>dependency&#45;cruiser output</title>
<polygon fill="white" stroke="transparent" points="-4,4 -4,-194 719,-194 719,4 -4,4"/>
<g id="clust1" class="cluster">
<title>cluster_node_modules</title>
<path fill="#ffffff" stroke="black" stroke-width="2" d="M135,-130C135,-130 218,-130 218,-130 224,-130 230,-136 230,-142 230,-142 230,-170 230,-170 230,-176 224,-182 218,-182 218,-182 135,-182 135,-182 129,-182 123,-176 123,-170 123,-170 123,-142 123,-142 123,-136 129,-130 135,-130"/>
<text text-anchor="middle" x="176.5" y="-170.8" font-family="Helvetica,sans-Serif" font-weight="bold" font-size="9.00">node_modules</text>
</g>
<!-- baseline&#45;violations.d.ts -->
<g id="node1" class="node">
<title>baseline&#45;violations.d.ts</title>
<g id="a_node1"><a xlink:href="https://github.com/sverweij/dependency-cruiser/blob/develop/baseline-violations.d.ts" xlink:title="baseline&#45;violations.d.ts">
<path fill="#ddfeff" stroke="black" d="M418,-78C418,-78 320,-78 320,-78 317,-78 314,-75 314,-72 314,-72 314,-66 314,-66 314,-63 317,-60 320,-60 320,-60 418,-60 418,-60 421,-60 424,-63 424,-66 424,-66 424,-72 424,-72 424,-75 421,-78 418,-78"/>
<text text-anchor="middle" x="369" y="-66.8" font-family="Helvetica,sans-Serif" font-size="9.00">baseline&#45;violations.d.ts</text>
</a>
</g>
</g>
<!-- violations.d.ts -->
<g id="node2" class="node">
<title>violations.d.ts</title>
<g id="a_node2"><a xlink:href="https://github.com/sverweij/dependency-cruiser/blob/develop/violations.d.ts" xlink:title="violations.d.ts">
<path fill="#ddfeff" stroke="black" d="M505.5,-18C505.5,-18 445.5,-18 445.5,-18 442.5,-18 439.5,-15 439.5,-12 439.5,-12 439.5,-6 439.5,-6 439.5,-3 442.5,0 445.5,0 445.5,0 505.5,0 505.5,0 508.5,0 511.5,-3 511.5,-6 511.5,-6 511.5,-12 511.5,-12 511.5,-15 508.5,-18 505.5,-18"/>
<text text-anchor="middle" x="475.5" y="-6.8" font-family="Helvetica,sans-Serif" font-size="9.00">violations.d.ts</text>
</a>
</g>
</g>
<!-- baseline&#45;violations.d.ts&#45;&gt;violations.d.ts -->
<g id="edge1" class="edge">
<title>baseline&#45;violations.d.ts&#45;&gt;violations.d.ts</title>
<path fill="none" stroke="#000000" stroke-width="2" stroke-opacity="0.200000" d="M413,-59.65C413,-44.28 413,-15.33 413,-15.33 413,-15.33 433.14,-15.33 433.14,-15.33"/>
<polygon fill="#000000" fill-opacity="0.200000" stroke="#000000" stroke-width="2" stroke-opacity="0.200000" points="433.14,-17.43 439.14,-15.33 433.14,-13.23 433.14,-17.43"/>
</g>
<!-- rule&#45;summary.d.ts -->
<g id="node7" class="node">
<title>rule&#45;summary.d.ts</title>
<g id="a_node7"><a xlink:href="https://github.com/sverweij/dependency-cruiser/blob/develop/rule-summary.d.ts" xlink:title="rule&#45;summary.d.ts">
<path fill="#ddfeff" stroke="black" d="M610,-18C610,-18 533,-18 533,-18 530,-18 527,-15 527,-12 527,-12 527,-6 527,-6 527,-3 530,0 533,0 533,0 610,0 610,0 613,0 616,-3 616,-6 616,-6 616,-12 616,-12 616,-15 613,-18 610,-18"/>
<text text-anchor="middle" x="571.5" y="-6.8" font-family="Helvetica,sans-Serif" font-size="9.00">rule&#45;summary.d.ts</text>
</a>
</g>
</g>
<!-- violations.d.ts&#45;&gt;rule&#45;summary.d.ts -->
<g id="edge26" class="edge">
<title>violations.d.ts&#45;&gt;rule&#45;summary.d.ts</title>
<path fill="none" stroke="#000000" stroke-width="2" stroke-opacity="0.200000" d="M511.52,-9C511.52,-9 520.84,-9 520.84,-9"/>
<polygon fill="#000000" fill-opacity="0.200000" stroke="#000000" stroke-width="2" stroke-opacity="0.200000" points="520.84,-11.1 526.84,-9 520.84,-6.9 520.84,-11.1"/>
</g>
<!-- configuration.d.ts -->
<g id="node3" class="node">
<title>configuration.d.ts</title>
<g id="a_node3"><a xlink:href="https://github.com/sverweij/dependency-cruiser/blob/develop/configuration.d.ts" xlink:title="configuration.d.ts">
<path fill="#ddfeff" stroke="black" d="M213.5,-96C213.5,-96 139.5,-96 139.5,-96 136.5,-96 133.5,-93 133.5,-90 133.5,-90 133.5,-84 133.5,-84 133.5,-81 136.5,-78 139.5,-78 139.5,-78 213.5,-78 213.5,-78 216.5,-78 219.5,-81 219.5,-84 219.5,-84 219.5,-90 219.5,-90 219.5,-93 216.5,-96 213.5,-96"/>
<text text-anchor="middle" x="176.5" y="-84.8" font-family="Helvetica,sans-Serif" font-size="9.00">configuration.d.ts</text>
</a>
</g>
</g>
<!-- options.d.ts -->
<g id="node4" class="node">
<title>options.d.ts</title>
<g id="a_node4"><a xlink:href="https://github.com/sverweij/dependency-cruiser/blob/develop/options.d.ts" xlink:title="options.d.ts">
<path fill="#ddfeff" stroke="black" d="M295,-122C295,-122 244,-122 244,-122 241,-122 238,-119 238,-116 238,-116 238,-110 238,-110 238,-107 241,-104 244,-104 244,-104 295,-104 295,-104 298,-104 301,-107 301,-110 301,-110 301,-116 301,-116 301,-119 298,-122 295,-122"/>
<text text-anchor="middle" x="269.5" y="-110.8" font-family="Helvetica,sans-Serif" font-size="9.00">options.d.ts</text>
</a>
</g>
</g>
<!-- configuration.d.ts&#45;&gt;options.d.ts -->
<g id="edge2" class="edge">
<title>configuration.d.ts&#45;&gt;options.d.ts</title>
<path fill="none" stroke="#000000" stroke-width="2" stroke-opacity="0.200000" d="M219.84,-87C236.23,-87 251,-87 251,-87 251,-87 251,-97.91 251,-97.91"/>
<polygon fill="#000000" fill-opacity="0.200000" stroke="#000000" stroke-width="2" stroke-opacity="0.200000" points="248.9,-97.91 251,-103.91 253.1,-97.91 248.9,-97.91"/>
</g>
<!-- rule&#45;set.d.ts -->
<g id="node5" class="node">
<title>rule&#45;set.d.ts</title>
<g id="a_node5"><a xlink:href="https://github.com/sverweij/dependency-cruiser/blob/develop/rule-set.d.ts" xlink:title="rule&#45;set.d.ts">
<path fill="#ddfeff" stroke="black" d="M395,-48C395,-48 343,-48 343,-48 340,-48 337,-45 337,-42 337,-42 337,-36 337,-36 337,-33 340,-30 343,-30 343,-30 395,-30 395,-30 398,-30 401,-33 401,-36 401,-36 401,-42 401,-42 401,-45 398,-48 395,-48"/>
<text text-anchor="middle" x="369" y="-36.8" font-family="Helvetica,sans-Serif" font-size="9.00">rule&#45;set.d.ts</text>
</a>
</g>
</g>
<!-- configuration.d.ts&#45;&gt;rule&#45;set.d.ts -->
<g id="edge3" class="edge">
<title>configuration.d.ts&#45;&gt;rule&#45;set.d.ts</title>
<path fill="none" stroke="#000000" stroke-width="2" stroke-opacity="0.200000" d="M191,-77.65C191,-62.92 191,-36 191,-36 191,-36 330.77,-36 330.77,-36"/>
<polygon fill="#000000" fill-opacity="0.200000" stroke="#000000" stroke-width="2" stroke-opacity="0.200000" points="330.77,-38.1 336.77,-36 330.77,-33.9 330.77,-38.1"/>
</g>
<!-- options.d.ts&#45;&gt;baseline&#45;violations.d.ts -->
<g id="edge15" class="edge">
<title>options.d.ts&#45;&gt;baseline&#45;violations.d.ts</title>
<path fill="none" stroke="#000000" stroke-width="2" stroke-opacity="0.200000" d="M289,-103.72C289,-91.91 289,-73 289,-73 289,-73 307.87,-73 307.87,-73"/>
<polygon fill="#000000" fill-opacity="0.200000" stroke="#000000" stroke-width="2" stroke-opacity="0.200000" points="307.87,-75.1 313.87,-73 307.87,-70.9 307.87,-75.1"/>
</g>
<!-- options.d.ts&#45;&gt;rule&#45;set.d.ts -->
<g id="edge18" class="edge">
<title>options.d.ts&#45;&gt;rule&#45;set.d.ts</title>
<path fill="none" stroke="#000000" stroke-width="2" stroke-opacity="0.200000" d="M276,-103.72C276,-84.47 276,-42 276,-42 276,-42 330.99,-42 330.99,-42"/>
<polygon fill="#000000" fill-opacity="0.200000" stroke="#000000" stroke-width="2" stroke-opacity="0.200000" points="330.99,-44.1 336.99,-42 330.99,-39.9 330.99,-44.1"/>
</g>
<!-- shared&#45;types.d.ts -->
<g id="node8" class="node">
<title>shared&#45;types.d.ts</title>
<g id="a_node8"><a xlink:href="https://github.com/sverweij/dependency-cruiser/blob/develop/shared-types.d.ts" xlink:title="shared&#45;types.d.ts">
<path fill="#ddfeff" stroke="black" d="M709,-48C709,-48 635,-48 635,-48 632,-48 629,-45 629,-42 629,-42 629,-36 629,-36 629,-33 632,-30 635,-30 635,-30 709,-30 709,-30 712,-30 715,-33 715,-36 715,-36 715,-42 715,-42 715,-45 712,-48 709,-48"/>
<text text-anchor="middle" x="672" y="-36.8" font-family="Helvetica,sans-Serif" font-size="9.00">shared&#45;types.d.ts</text>
</a>
</g>
</g>
<!-- options.d.ts&#45;&gt;shared&#45;types.d.ts -->
<g id="edge19" class="edge">
<title>options.d.ts&#45;&gt;shared&#45;types.d.ts</title>
<path fill="none" stroke="#000000" stroke-width="2" stroke-opacity="0.200000" d="M301.08,-108C395.97,-108 672,-108 672,-108 672,-108 672,-54.02 672,-54.02"/>
<polygon fill="#000000" fill-opacity="0.200000" stroke="#000000" stroke-width="2" stroke-opacity="0.200000" points="674.1,-54.02 672,-48.02 669.9,-54.02 674.1,-54.02"/>
</g>
<!-- filter&#45;types.d.ts -->
<g id="node10" class="node">
<title>filter&#45;types.d.ts</title>
<g id="a_node10"><a xlink:href="https://github.com/sverweij/dependency-cruiser/blob/develop/filter-types.d.ts" xlink:title="filter&#45;types.d.ts">
<path fill="#ddfeff" stroke="black" d="M507,-134C507,-134 444,-134 444,-134 441,-134 438,-131 438,-128 438,-128 438,-122 438,-122 438,-119 441,-116 444,-116 444,-116 507,-116 507,-116 510,-116 513,-119 513,-122 513,-122 513,-128 513,-128 513,-131 510,-134 507,-134"/>
<text text-anchor="middle" x="475.5" y="-122.8" font-family="Helvetica,sans-Serif" font-size="9.00">filter&#45;types.d.ts</text>
</a>
</g>
</g>
<!-- options.d.ts&#45;&gt;filter&#45;types.d.ts -->
<g id="edge16" class="edge">
<title>options.d.ts&#45;&gt;filter&#45;types.d.ts</title>
<path fill="none" stroke="#000000" stroke-width="2" stroke-opacity="0.200000" d="M301.31,-112C359.24,-112 476,-112 476,-112 476,-112 476,-112.38 476,-112.38"/>
<polygon fill="#000000" fill-opacity="0.200000" stroke="#000000" stroke-width="2" stroke-opacity="0.200000" points="473.9,-109.83 476,-115.83 478.1,-109.83 473.9,-109.83"/>
</g>
<!-- reporter&#45;options.d.ts -->
<g id="node13" class="node">
<title>reporter&#45;options.d.ts</title>
<g id="a_node13"><a xlink:href="https://github.com/sverweij/dependency-cruiser/blob/develop/reporter-options.d.ts" xlink:title="reporter&#45;options.d.ts">
<path fill="#ddfeff" stroke="black" d="M412,-134C412,-134 326,-134 326,-134 323,-134 320,-131 320,-128 320,-128 320,-122 320,-122 320,-119 323,-116 326,-116 326,-116 412,-116 412,-116 415,-116 418,-119 418,-122 418,-122 418,-128 418,-128 418,-131 415,-134 412,-134"/>
<text text-anchor="middle" x="369" y="-122.8" font-family="Helvetica,sans-Serif" font-size="9.00">reporter&#45;options.d.ts</text>
</a>
</g>
</g>
<!-- options.d.ts&#45;&gt;reporter&#45;options.d.ts -->
<g id="edge17" class="edge">
<title>options.d.ts&#45;&gt;reporter&#45;options.d.ts</title>
<path fill="none" stroke="#000000" stroke-width="2" stroke-opacity="0.200000" d="M270,-122.24C270,-125.33 270,-128 270,-128 270,-128 313.79,-128 313.79,-128"/>
<polygon fill="#000000" fill-opacity="0.200000" stroke="#000000" stroke-width="2" stroke-opacity="0.200000" points="313.79,-130.1 319.79,-128 313.79,-125.9 313.79,-130.1"/>
</g>
<!-- rule&#45;set.d.ts&#45;&gt;shared&#45;types.d.ts -->
<g id="edge24" class="edge">
<title>rule&#45;set.d.ts&#45;&gt;shared&#45;types.d.ts</title>
<path fill="none" stroke="#000000" stroke-width="2" stroke-opacity="0.200000" d="M380,-29.88C380,-26.29 380,-23 380,-23 380,-23 651,-23 651,-23 651,-23 651,-23.88 651,-23.88"/>
<polygon fill="#000000" fill-opacity="0.200000" stroke="#000000" stroke-width="2" stroke-opacity="0.200000" points="648.9,-23.88 651,-29.88 653.1,-23.88 648.9,-23.88"/>
</g>
<!-- restrictions.d.ts -->
<g id="node15" class="node">
<title>restrictions.d.ts</title>
<g id="a_node15"><a xlink:href="https://github.com/sverweij/dependency-cruiser/blob/develop/restrictions.d.ts" xlink:title="restrictions.d.ts">
<path fill="#ddfeff" stroke="black" d="M508,-48C508,-48 443,-48 443,-48 440,-48 437,-45 437,-42 437,-42 437,-36 437,-36 437,-33 440,-30 443,-30 443,-30 508,-30 508,-30 511,-30 514,-33 514,-36 514,-36 514,-42 514,-42 514,-45 511,-48 508,-48"/>
<text text-anchor="middle" x="475.5" y="-36.8" font-family="Helvetica,sans-Serif" font-size="9.00">restrictions.d.ts</text>
</a>
</g>
</g>
<!-- rule&#45;set.d.ts&#45;&gt;restrictions.d.ts -->
<g id="edge23" class="edge">
<title>rule&#45;set.d.ts&#45;&gt;restrictions.d.ts</title>
<path fill="none" stroke="#000000" stroke-width="2" stroke-opacity="0.200000" d="M401.24,-39C401.24,-39 430.99,-39 430.99,-39"/>
<polygon fill="#000000" fill-opacity="0.200000" stroke="#000000" stroke-width="2" stroke-opacity="0.200000" points="430.99,-41.1 436.99,-39 430.99,-36.9 430.99,-41.1"/>
</g>
<!-- cruise&#45;result.d.ts -->
<g id="node6" class="node">
<title>cruise&#45;result.d.ts</title>
<g id="a_node6"><a xlink:href="https://github.com/sverweij/dependency-cruiser/blob/develop/cruise-result.d.ts" xlink:title="cruise&#45;result.d.ts">
<path fill="#ddfeff" stroke="black" d="M212,-28C212,-28 141,-28 141,-28 138,-28 135,-25 135,-22 135,-22 135,-16 135,-16 135,-13 138,-10 141,-10 141,-10 212,-10 212,-10 215,-10 218,-13 218,-16 218,-16 218,-22 218,-22 218,-25 215,-28 212,-28"/>
<text text-anchor="middle" x="176.5" y="-16.8" font-family="Helvetica,sans-Serif" font-size="9.00">cruise&#45;result.d.ts</text>
</a>
</g>
</g>
<!-- cruise&#45;result.d.ts&#45;&gt;violations.d.ts -->
<g id="edge8" class="edge">
<title>cruise&#45;result.d.ts&#45;&gt;violations.d.ts</title>
<path fill="none" stroke="#000000" stroke-width="2" stroke-opacity="0.200000" d="M218.07,-12.67C218.07,-12.67 433.42,-12.67 433.42,-12.67"/>
<polygon fill="#000000" fill-opacity="0.200000" stroke="#000000" stroke-width="2" stroke-opacity="0.200000" points="433.42,-14.77 439.42,-12.67 433.42,-10.57 433.42,-14.77"/>
</g>
<!-- cruise&#45;result.d.ts&#45;&gt;options.d.ts -->
<g id="edge4" class="edge">
<title>cruise&#45;result.d.ts&#45;&gt;options.d.ts</title>
<path fill="none" stroke="#000000" stroke-width="2" stroke-opacity="0.200000" d="M218.2,-26.33C240.74,-26.33 264,-26.33 264,-26.33 264,-26.33 264,-97.73 264,-97.73"/>
<polygon fill="#000000" fill-opacity="0.200000" stroke="#000000" stroke-width="2" stroke-opacity="0.200000" points="261.9,-97.73 264,-103.73 266.1,-97.73 261.9,-97.73"/>
</g>
<!-- cruise&#45;result.d.ts&#45;&gt;rule&#45;set.d.ts -->
<g id="edge5" class="edge">
<title>cruise&#45;result.d.ts&#45;&gt;rule&#45;set.d.ts</title>
<path fill="none" stroke="#000000" stroke-width="2" stroke-opacity="0.200000" d="M218.37,-24.67C272.25,-24.67 359,-24.67 359,-24.67 359,-24.67 359,-25.18 359,-25.18"/>
<polygon fill="#000000" fill-opacity="0.200000" stroke="#000000" stroke-width="2" stroke-opacity="0.200000" points="356.9,-23.84 359,-29.84 361.1,-23.84 356.9,-23.84"/>
</g>
<!-- cruise&#45;result.d.ts&#45;&gt;rule&#45;summary.d.ts -->
<g id="edge6" class="edge">
<title>cruise&#45;result.d.ts&#45;&gt;rule&#45;summary.d.ts</title>
<path fill="none" stroke="#000000" stroke-width="2" stroke-opacity="0.200000" d="M218.08,-19.67C319.62,-19.67 572,-19.67 572,-19.67 572,-19.67 572,-19.5 572,-19.5"/>
<polygon fill="#000000" fill-opacity="0.200000" stroke="#000000" stroke-width="2" stroke-opacity="0.200000" points="574.1,-24 572,-18 569.9,-24 574.1,-24"/>
</g>
<!-- cruise&#45;result.d.ts&#45;&gt;shared&#45;types.d.ts -->
<g id="edge7" class="edge">
<title>cruise&#45;result.d.ts&#45;&gt;shared&#45;types.d.ts</title>
<path fill="none" stroke="#000000" stroke-width="2" stroke-opacity="0.200000" d="M218.32,-21.33C337.78,-21.33 672,-21.33 672,-21.33 672,-21.33 672,-23.75 672,-23.75"/>
<polygon fill="#000000" fill-opacity="0.200000" stroke="#000000" stroke-width="2" stroke-opacity="0.200000" points="669.9,-23.75 672,-29.75 674.1,-23.75 669.9,-23.75"/>
</g>
<!-- rule&#45;summary.d.ts&#45;&gt;shared&#45;types.d.ts -->
<g id="edge25" class="edge">
<title>rule&#45;summary.d.ts&#45;&gt;shared&#45;types.d.ts</title>
<path fill="none" stroke="#000000" stroke-width="2" stroke-opacity="0.200000" d="M616.07,-9C651.1,-9 694,-9 694,-9 694,-9 694,-23.84 694,-23.84"/>
<polygon fill="#000000" fill-opacity="0.200000" stroke="#000000" stroke-width="2" stroke-opacity="0.200000" points="691.9,-23.84 694,-29.84 696.1,-23.84 691.9,-23.84"/>
</g>
<!-- dependency&#45;cruiser.d.ts -->
<g id="node9" class="node">
<title>dependency&#45;cruiser.d.ts</title>
<g id="a_node9"><a xlink:href="https://github.com/sverweij/dependency-cruiser/blob/develop/dependency-cruiser.d.ts" xlink:title="dependency&#45;cruiser.d.ts">
<path fill="#ddfeff" stroke="black" d="M109,-68C109,-68 6,-68 6,-68 3,-68 0,-65 0,-62 0,-62 0,-56 0,-56 0,-53 3,-50 6,-50 6,-50 109,-50 109,-50 112,-50 115,-53 115,-56 115,-56 115,-62 115,-62 115,-65 112,-68 109,-68"/>
<text text-anchor="middle" x="57.5" y="-56.8" font-family="Helvetica,sans-Serif" font-size="9.00">dependency&#45;cruiser.d.ts</text>
</a>
</g>
</g>
<!-- dependency&#45;cruiser.d.ts&#45;&gt;configuration.d.ts -->
<g id="edge9" class="edge">
<title>dependency&#45;cruiser.d.ts&#45;&gt;configuration.d.ts</title>
<path fill="none" stroke="#000000" stroke-width="2" stroke-opacity="0.200000" d="M112,-68.14C112,-75.97 112,-86 112,-86 112,-86 127.48,-86 127.48,-86"/>
<polygon fill="#000000" fill-opacity="0.200000" stroke="#000000" stroke-width="2" stroke-opacity="0.200000" points="127.48,-88.1 133.48,-86 127.48,-83.9 127.48,-88.1"/>
</g>
<!-- dependency&#45;cruiser.d.ts&#45;&gt;options.d.ts -->
<g id="edge11" class="edge">
<title>dependency&#45;cruiser.d.ts&#45;&gt;options.d.ts</title>
<path fill="none" stroke="#000000" stroke-width="2" stroke-opacity="0.200000" d="M109,-68.45C109,-82.69 109,-108 109,-108 109,-108 231.79,-108 231.79,-108"/>
<polygon fill="#000000" fill-opacity="0.200000" stroke="#000000" stroke-width="2" stroke-opacity="0.200000" points="231.79,-110.1 237.79,-108 231.79,-105.9 231.79,-110.1"/>
</g>
<!-- dependency&#45;cruiser.d.ts&#45;&gt;rule&#45;set.d.ts -->
<g id="edge12" class="edge">
<title>dependency&#45;cruiser.d.ts&#45;&gt;rule&#45;set.d.ts</title>
<path fill="none" stroke="#000000" stroke-width="2" stroke-opacity="0.200000" d="M115.36,-55C205.44,-55 369,-55 369,-55 369,-55 369,-54.12 369,-54.12"/>
<polygon fill="#000000" fill-opacity="0.200000" stroke="#000000" stroke-width="2" stroke-opacity="0.200000" points="371.1,-54.12 369,-48.12 366.9,-54.12 371.1,-54.12"/>
</g>
<!-- dependency&#45;cruiser.d.ts&#45;&gt;cruise&#45;result.d.ts -->
<g id="edge10" class="edge">
<title>dependency&#45;cruiser.d.ts&#45;&gt;cruise&#45;result.d.ts</title>
<path fill="none" stroke="#000000" stroke-width="2" stroke-opacity="0.200000" d="M115.19,-52.5C139.82,-52.5 163,-52.5 163,-52.5 163,-52.5 163,-34.15 163,-34.15"/>
<polygon fill="#000000" fill-opacity="0.200000" stroke="#000000" stroke-width="2" stroke-opacity="0.200000" points="165.1,-34.15 163,-28.15 160.9,-34.15 165.1,-34.15"/>
</g>
<!-- dependency&#45;cruiser.d.ts&#45;&gt;shared&#45;types.d.ts -->
<g id="edge13" class="edge">
<title>dependency&#45;cruiser.d.ts&#45;&gt;shared&#45;types.d.ts</title>
<path fill="none" stroke="#000000" stroke-width="2" stroke-opacity="0.200000" d="M115.22,-57.5C264.36,-57.5 651,-57.5 651,-57.5 651,-57.5 651,-54.25 651,-54.25"/>
<polygon fill="#000000" fill-opacity="0.200000" stroke="#000000" stroke-width="2" stroke-opacity="0.200000" points="653.1,-54.25 651,-48.25 648.9,-54.25 653.1,-54.25"/>
</g>
<!-- filter&#45;types.d.ts&#45;&gt;shared&#45;types.d.ts -->
<g id="edge14" class="edge">
<title>filter&#45;types.d.ts&#45;&gt;shared&#45;types.d.ts</title>
<path fill="none" stroke="#000000" stroke-width="2" stroke-opacity="0.200000" d="M513.06,-125C575.53,-125 694,-125 694,-125 694,-125 694,-54.2 694,-54.2"/>
<polygon fill="#000000" fill-opacity="0.200000" stroke="#000000" stroke-width="2" stroke-opacity="0.200000" points="696.1,-54.2 694,-48.2 691.9,-54.2 696.1,-54.2"/>
</g>
<!-- init&#45;config.d.ts -->
<g id="node11" class="node">
<title>init&#45;config.d.ts</title>
<g id="a_node11"><a xlink:href="https://github.com/sverweij/dependency-cruiser/blob/develop/init-config.d.ts" xlink:title="init&#45;config.d.ts">
<path fill="#ccffcc" stroke="black" d="M88,-112C88,-112 27,-112 27,-112 24,-112 21,-109 21,-106 21,-106 21,-100 21,-100 21,-97 24,-94 27,-94 27,-94 88,-94 88,-94 91,-94 94,-97 94,-100 94,-100 94,-106 94,-106 94,-109 91,-112 88,-112"/>
<text text-anchor="middle" x="57.5" y="-100.8" font-family="Helvetica,sans-Serif" font-size="9.00">init&#45;config.d.ts</text>
</a>
</g>
</g>
<!-- node_modules/enhanced&#45;resolve -->
<g id="node12" class="node">
<title>node_modules/enhanced&#45;resolve</title>
<g id="a_node12"><a xlink:href="https://github.com/sverweij/dependency-cruiser/blob/develop/node_modules/enhanced-resolve" xlink:title="enhanced&#45;resolve">
<polygon fill="#c40b0a" fill-opacity="0.101961" stroke="black" points="222,-156 133,-156 131,-154 131,-138 220,-138 222,-140 222,-156"/>
<polyline fill="none" stroke="black" points="220,-154 131,-154 "/>
<polyline fill="none" stroke="black" points="220,-154 220,-138 "/>
<polyline fill="none" stroke="black" points="220,-154 222,-156 "/>
<text text-anchor="start" x="139" y="-144.8" font-family="Helvetica,sans-Serif" font-size="9.00" fill="#c40b0a">enhanced&#45;resolve</text>
</a>
</g>
</g>
<!-- reporter&#45;options.d.ts&#45;&gt;filter&#45;types.d.ts -->
<g id="edge20" class="edge">
<title>reporter&#45;options.d.ts&#45;&gt;filter&#45;types.d.ts</title>
<path fill="none" stroke="#000000" stroke-width="2" stroke-opacity="0.200000" d="M418.2,-125C418.2,-125 431.98,-125 431.98,-125"/>
<polygon fill="#000000" fill-opacity="0.200000" stroke="#000000" stroke-width="2" stroke-opacity="0.200000" points="431.98,-127.1 437.98,-125 431.98,-122.9 431.98,-127.1"/>
</g>
<!-- resolve&#45;options.d.ts -->
<g id="node14" class="node">
<title>resolve&#45;options.d.ts</title>
<g id="a_node14"><a xlink:href="https://github.com/sverweij/dependency-cruiser/blob/develop/resolve-options.d.ts" xlink:title="resolve&#45;options.d.ts">
<path fill="#ddfeff" stroke="black" d="M99.5,-156C99.5,-156 15.5,-156 15.5,-156 12.5,-156 9.5,-153 9.5,-150 9.5,-150 9.5,-144 9.5,-144 9.5,-141 12.5,-138 15.5,-138 15.5,-138 99.5,-138 99.5,-138 102.5,-138 105.5,-141 105.5,-144 105.5,-144 105.5,-150 105.5,-150 105.5,-153 102.5,-156 99.5,-156"/>
<text text-anchor="middle" x="57.5" y="-144.8" font-family="Helvetica,sans-Serif" font-size="9.00">resolve&#45;options.d.ts</text>
</a>
</g>
</g>
<!-- resolve&#45;options.d.ts&#45;&gt;node_modules/enhanced&#45;resolve -->
<g id="edge21" class="edge">
<title>resolve&#45;options.d.ts&#45;&gt;node_modules/enhanced&#45;resolve</title>
<path fill="none" stroke="#000000" stroke-opacity="0.200000" d="M105.56,-147C105.56,-147 124.96,-147 124.96,-147"/>
<polygon fill="#000000" fill-opacity="0.200000" stroke="#000000" stroke-opacity="0.200000" points="124.96,-149.1 130.96,-147 124.96,-144.9 124.96,-149.1"/>
</g>
<!-- restrictions.d.ts&#45;&gt;shared&#45;types.d.ts -->
<g id="edge22" class="edge">
<title>restrictions.d.ts&#45;&gt;shared&#45;types.d.ts</title>
<path fill="none" stroke="#000000" stroke-width="2" stroke-opacity="0.200000" d="M514.32,-39C514.32,-39 622.82,-39 622.82,-39"/>
<polygon fill="#000000" fill-opacity="0.200000" stroke="#000000" stroke-width="2" stroke-opacity="0.200000" points="622.82,-41.1 628.82,-39 622.82,-36.9 622.82,-41.1"/>
</g>
</g>
</svg>
