<?xml version="1.0" encoding="UTF-8" standalone="no"?>
<!DOCTYPE svg PUBLIC "-//W3C//DTD SVG 1.1//EN"
 "http://www.w3.org/Graphics/SVG/1.1/DTD/svg11.dtd">
<!-- Generated by graphviz version 2.43.0 (0)
 -->
<!-- Title: dependency&#45;cruiser output Pages: 1 -->
<svg width="466pt" height="105pt"
 viewBox="0.00 0.00 466.18 105.00" xmlns="http://www.w3.org/2000/svg" xmlns:xlink="http://www.w3.org/1999/xlink">
<g id="graph0" class="graph" transform="scale(1 1) rotate(0) translate(4 101)">
<title>dependency&#45;cruiser output</title>
<polygon fill="white" stroke="transparent" points="-4,4 -4,-101 462.18,-101 462.18,4 -4,4"/>
<!-- configuration.d.ts -->
<g id="node1" class="node">
<title>configuration.d.ts</title>
<g id="a_node1"><a xlink:href="https://github.com/sverweij/dependency-cruiser/blob/develop/configuration.d.ts" xlink:title="configuration.d.ts">
<path fill="#ddfeff" stroke="black" d="M203.21,-74C203.21,-74 130.45,-74 130.45,-74 127.62,-74 124.79,-71.17 124.79,-68.33 124.79,-68.33 124.79,-62.67 124.79,-62.67 124.79,-59.83 127.62,-57 130.45,-57 130.45,-57 203.21,-57 203.21,-57 206.04,-57 208.87,-59.83 208.87,-62.67 208.87,-62.67 208.87,-68.33 208.87,-68.33 208.87,-71.17 206.04,-74 203.21,-74"/>
<text text-anchor="middle" x="166.83" y="-62.8" font-family="Helvetica,sans-Serif" font-size="9.00">configuration.d.ts</text>
</a>
</g>
</g>
<!-- options.d.ts -->
<g id="node4" class="node">
<title>options.d.ts</title>
<g id="a_node4"><a xlink:href="https://github.com/sverweij/dependency-cruiser/blob/develop/options.d.ts" xlink:title="options.d.ts">
<path fill="#ddfeff" stroke="black" d="M278.48,-97C278.48,-97 227.75,-97 227.75,-97 224.92,-97 222.09,-94.17 222.09,-91.33 222.09,-91.33 222.09,-85.67 222.09,-85.67 222.09,-82.83 224.92,-80 227.75,-80 227.75,-80 278.48,-80 278.48,-80 281.31,-80 284.14,-82.83 284.14,-85.67 284.14,-85.67 284.14,-91.33 284.14,-91.33 284.14,-94.17 281.31,-97 278.48,-97"/>
<text text-anchor="middle" x="253.11" y="-85.8" font-family="Helvetica,sans-Serif" font-size="9.00">options.d.ts</text>
</a>
</g>
</g>
<!-- configuration.d.ts&#45;&gt;options.d.ts -->
<g id="edge1" class="edge">
<title>configuration.d.ts&#45;&gt;options.d.ts</title>
<path fill="none" stroke="#000000" stroke-width="2" stroke-opacity="0.200000" d="M209.23,-64C222.23,-64 233.18,-64 233.18,-64 233.18,-64 233.18,-69.93 233.18,-69.93"/>
<polygon fill="#000000" fill-opacity="0.200000" stroke="#000000" stroke-width="2" stroke-opacity="0.200000" points="229.68,-69.93 233.18,-79.93 236.68,-69.93 229.68,-69.93"/>
</g>
<!-- rule&#45;set.d.ts -->
<g id="node5" class="node">
<title>rule&#45;set.d.ts</title>
<g id="a_node5"><a xlink:href="https://github.com/sverweij/dependency-cruiser/blob/develop/rule-set.d.ts" xlink:title="rule&#45;set.d.ts">
<path fill="#ddfeff" stroke="black" d="M354.49,-71C354.49,-71 302.79,-71 302.79,-71 299.95,-71 297.12,-68.17 297.12,-65.33 297.12,-65.33 297.12,-59.67 297.12,-59.67 297.12,-56.83 299.95,-54 302.79,-54 302.79,-54 354.49,-54 354.49,-54 357.32,-54 360.15,-56.83 360.15,-59.67 360.15,-59.67 360.15,-65.33 360.15,-65.33 360.15,-68.17 357.32,-71 354.49,-71"/>
<text text-anchor="middle" x="328.64" y="-59.8" font-family="Helvetica,sans-Serif" font-size="9.00">rule&#45;set.d.ts</text>
</a>
</g>
</g>
<!-- configuration.d.ts&#45;&gt;rule&#45;set.d.ts -->
<g id="edge2" class="edge">
<title>configuration.d.ts&#45;&gt;rule&#45;set.d.ts</title>
<path fill="none" stroke="#000000" stroke-width="2" stroke-opacity="0.200000" d="M208.92,-60.5C208.92,-60.5 286.98,-60.5 286.98,-60.5"/>
<polygon fill="#000000" fill-opacity="0.200000" stroke="#000000" stroke-width="2" stroke-opacity="0.200000" points="286.98,-64 296.98,-60.5 286.98,-57 286.98,-64"/>
</g>
<!-- cruise&#45;result.d.ts -->
<g id="node2" class="node">
<title>cruise&#45;result.d.ts</title>
<g id="a_node2"><a xlink:href="https://github.com/sverweij/dependency-cruiser/blob/develop/cruise-result.d.ts" xlink:title="cruise&#45;result.d.ts">
<path fill="#ddfeff" stroke="black" d="M202.18,-45C202.18,-45 131.48,-45 131.48,-45 128.64,-45 125.81,-42.17 125.81,-39.33 125.81,-39.33 125.81,-33.67 125.81,-33.67 125.81,-30.83 128.64,-28 131.48,-28 131.48,-28 202.18,-28 202.18,-28 205.02,-28 207.85,-30.83 207.85,-33.67 207.85,-33.67 207.85,-39.33 207.85,-39.33 207.85,-42.17 205.02,-45 202.18,-45"/>
<text text-anchor="middle" x="166.83" y="-33.8" font-family="Helvetica,sans-Serif" font-size="9.00">cruise&#45;result.d.ts</text>
</a>
</g>
</g>
<!-- cruise&#45;result.d.ts&#45;&gt;options.d.ts -->
<g id="edge3" class="edge">
<title>cruise&#45;result.d.ts&#45;&gt;options.d.ts</title>
<path fill="none" stroke="#000000" stroke-width="2" stroke-opacity="0.200000" d="M208.13,-40C226.12,-40 243.18,-40 243.18,-40 243.18,-40 243.18,-69.6 243.18,-69.6"/>
<polygon fill="#000000" fill-opacity="0.200000" stroke="#000000" stroke-width="2" stroke-opacity="0.200000" points="239.68,-69.6 243.18,-79.6 246.68,-69.6 239.68,-69.6"/>
</g>
<!-- cruise&#45;result.d.ts&#45;&gt;rule&#45;set.d.ts -->
<g id="edge4" class="edge">
<title>cruise&#45;result.d.ts&#45;&gt;rule&#45;set.d.ts</title>
<path fill="none" stroke="#000000" stroke-width="2" stroke-opacity="0.200000" d="M207.99,-35C251.27,-35 313.18,-35 313.18,-35 313.18,-35 313.18,-43.8 313.18,-43.8"/>
<polygon fill="#000000" fill-opacity="0.200000" stroke="#000000" stroke-width="2" stroke-opacity="0.200000" points="309.68,-43.8 313.18,-53.8 316.68,-43.8 309.68,-43.8"/>
</g>
<!-- shared&#45;types.d.ts -->
<g id="node6" class="node">
<title>shared&#45;types.d.ts</title>
<g id="a_node6"><a xlink:href="https://github.com/sverweij/dependency-cruiser/blob/develop/shared-types.d.ts" xlink:title="shared&#45;types.d.ts">
<path fill="#ddfeff" stroke="black" d="M452.53,-30C452.53,-30 378.8,-30 378.8,-30 375.96,-30 373.13,-27.17 373.13,-24.33 373.13,-24.33 373.13,-18.67 373.13,-18.67 373.13,-15.83 375.96,-13 378.8,-13 378.8,-13 452.53,-13 452.53,-13 455.36,-13 458.2,-15.83 458.2,-18.67 458.2,-18.67 458.2,-24.33 458.2,-24.33 458.2,-27.17 455.36,-30 452.53,-30"/>
<text text-anchor="middle" x="415.66" y="-18.8" font-family="Helvetica,sans-Serif" font-size="9.00">shared&#45;types.d.ts</text>
</a>
</g>
</g>
<!-- cruise&#45;result.d.ts&#45;&gt;shared&#45;types.d.ts -->
<g id="edge5" class="edge">
<title>cruise&#45;result.d.ts&#45;&gt;shared&#45;types.d.ts</title>
<path fill="none" stroke="#000000" stroke-width="2" stroke-opacity="0.200000" d="M153.18,-27.73C153.18,-23.68 153.18,-19.75 153.18,-19.75 153.18,-19.75 362.91,-19.75 362.91,-19.75"/>
<polygon fill="#000000" fill-opacity="0.200000" stroke="#000000" stroke-width="2" stroke-opacity="0.200000" points="362.91,-23.25 372.91,-19.75 362.91,-16.25 362.91,-23.25"/>
</g>
<!-- dependency&#45;cruiser.d.ts -->
<g id="node3" class="node">
<title>dependency&#45;cruiser.d.ts</title>
<g id="a_node3"><a xlink:href="https://github.com/sverweij/dependency-cruiser/blob/develop/dependency-cruiser.d.ts" xlink:title="dependency&#45;cruiser.d.ts">
<path fill="#ddfeff" stroke="black" d="M105.67,-17C105.67,-17 5.89,-17 5.89,-17 3.05,-17 0.22,-14.17 0.22,-11.33 0.22,-11.33 0.22,-5.67 0.22,-5.67 0.22,-2.83 3.05,0 5.89,0 5.89,0 105.67,0 105.67,0 108.51,0 111.34,-2.83 111.34,-5.67 111.34,-5.67 111.34,-11.33 111.34,-11.33 111.34,-14.17 108.51,-17 105.67,-17"/>
<text text-anchor="middle" x="55.78" y="-5.8" font-family="Helvetica,sans-Serif" font-size="9.00">dependency&#45;cruiser.d.ts</text>
</a>
</g>
</g>
<!-- dependency&#45;cruiser.d.ts&#45;&gt;configuration.d.ts -->
<g id="edge6" class="edge">
<title>dependency&#45;cruiser.d.ts&#45;&gt;configuration.d.ts</title>
<path fill="none" stroke="#000000" stroke-width="2" stroke-opacity="0.200000" d="M56.18,-17.41C56.18,-33.44 56.18,-65.5 56.18,-65.5 56.18,-65.5 114.68,-65.5 114.68,-65.5"/>
<polygon fill="#000000" fill-opacity="0.200000" stroke="#000000" stroke-width="2" stroke-opacity="0.200000" points="114.68,-69 124.68,-65.5 114.68,-62 114.68,-69"/>
</g>
<!-- dependency&#45;cruiser.d.ts&#45;&gt;cruise&#45;result.d.ts -->
<g id="edge7" class="edge">
<title>dependency&#45;cruiser.d.ts&#45;&gt;cruise&#45;result.d.ts</title>
<path fill="none" stroke="#000000" stroke-width="2" stroke-opacity="0.200000" d="M111.51,-10.4C145,-10.4 181.18,-10.4 181.18,-10.4 181.18,-10.4 181.18,-17.95 181.18,-17.95"/>
<polygon fill="#000000" fill-opacity="0.200000" stroke="#000000" stroke-width="2" stroke-opacity="0.200000" points="177.68,-17.95 181.18,-27.95 184.68,-17.95 177.68,-17.95"/>
</g>
<!-- dependency&#45;cruiser.d.ts&#45;&gt;options.d.ts -->
<g id="edge8" class="edge">
<title>dependency&#45;cruiser.d.ts&#45;&gt;options.d.ts</title>
<path fill="none" stroke="#000000" stroke-width="2" stroke-opacity="0.200000" d="M111.55,-7.8C169.93,-7.8 253.18,-7.8 253.18,-7.8 253.18,-7.8 253.18,-69.86 253.18,-69.86"/>
<polygon fill="#000000" fill-opacity="0.200000" stroke="#000000" stroke-width="2" stroke-opacity="0.200000" points="249.68,-69.86 253.18,-79.86 256.68,-69.86 249.68,-69.86"/>
</g>
<!-- dependency&#45;cruiser.d.ts&#45;&gt;rule&#45;set.d.ts -->
<g id="edge9" class="edge">
<title>dependency&#45;cruiser.d.ts&#45;&gt;rule&#45;set.d.ts</title>
<path fill="none" stroke="#000000" stroke-width="2" stroke-opacity="0.200000" d="M111.44,-5.2C191.37,-5.2 329.18,-5.2 329.18,-5.2 329.18,-5.2 329.18,-43.55 329.18,-43.55"/>
<polygon fill="#000000" fill-opacity="0.200000" stroke="#000000" stroke-width="2" stroke-opacity="0.200000" points="325.68,-43.55 329.18,-53.55 332.68,-43.55 325.68,-43.55"/>
</g>
<!-- dependency&#45;cruiser.d.ts&#45;&gt;shared&#45;types.d.ts -->
<g id="edge10" class="edge">
<title>dependency&#45;cruiser.d.ts&#45;&gt;shared&#45;types.d.ts</title>
<path fill="none" stroke="#000000" stroke-width="2" stroke-opacity="0.200000" d="M111.7,-2.6C212.93,-2.6 416.18,-2.6 416.18,-2.6 416.18,-2.6 416.18,-3.63 416.18,-3.63"/>
<polygon fill="#000000" fill-opacity="0.200000" stroke="#000000" stroke-width="2" stroke-opacity="0.200000" points="412.68,-2.93 416.18,-12.93 419.68,-2.93 412.68,-2.93"/>
</g>
<!-- options.d.ts&#45;&gt;rule&#45;set.d.ts -->
<g id="edge11" class="edge">
<title>options.d.ts&#45;&gt;rule&#45;set.d.ts</title>
<path fill="none" stroke="#000000" stroke-width="2" stroke-opacity="0.200000" d="M274.18,-79.96C274.18,-74.14 274.18,-67.5 274.18,-67.5 274.18,-67.5 286.96,-67.5 286.96,-67.5"/>
<polygon fill="#000000" fill-opacity="0.200000" stroke="#000000" stroke-width="2" stroke-opacity="0.200000" points="286.96,-71 296.96,-67.5 286.96,-64 286.96,-71"/>
</g>
<!-- options.d.ts&#45;&gt;shared&#45;types.d.ts -->
<g id="edge12" class="edge">
<title>options.d.ts&#45;&gt;shared&#45;types.d.ts</title>
<path fill="none" stroke="#000000" stroke-width="2" stroke-opacity="0.200000" d="M264.18,-79.87C264.18,-61.98 264.18,-22.5 264.18,-22.5 264.18,-22.5 363.06,-22.5 363.06,-22.5"/>
<polygon fill="#000000" fill-opacity="0.200000" stroke="#000000" stroke-width="2" stroke-opacity="0.200000" points="363.06,-26 373.06,-22.5 363.06,-19 363.06,-26"/>
</g>
<!-- rule&#45;set.d.ts&#45;&gt;shared&#45;types.d.ts -->
<g id="edge13" class="edge">
<title>rule&#45;set.d.ts&#45;&gt;shared&#45;types.d.ts</title>
<path fill="none" stroke="#000000" stroke-width="2" stroke-opacity="0.200000" d="M345.18,-53.86C345.18,-42.86 345.18,-25.25 345.18,-25.25 345.18,-25.25 363.04,-25.25 363.04,-25.25"/>
<polygon fill="#000000" fill-opacity="0.200000" stroke="#000000" stroke-width="2" stroke-opacity="0.200000" points="363.04,-28.75 373.04,-25.25 363.04,-21.75 363.04,-28.75"/>
</g>
</g>
</svg>
