<?xml version="1.0" encoding="UTF-8" standalone="no"?>
<!DOCTYPE svg PUBLIC "-//W3C//DTD SVG 1.1//EN"
 "http://www.w3.org/Graphics/SVG/1.1/DTD/svg11.dtd">
<!-- Generated by graphviz version 9.0.0 (20230911.1827)
 -->
<!-- Title: dependency&#45;cruiser output Pages: 1 -->
<svg width="852pt" height="306pt"
 viewBox="0.00 0.00 852.00 305.75" xmlns="http://www.w3.org/2000/svg" xmlns:xlink="http://www.w3.org/1999/xlink">
<g id="graph0" class="graph" transform="scale(1 1) rotate(0) translate(4 301.75)">
<title>dependency&#45;cruiser output</title>
<polygon fill="white" stroke="none" points="-4,4 -4,-301.75 848,-301.75 848,4 -4,4"/>
<g id="clust1" class="cluster">
<title>cluster_node_modules</title>
<path fill="#ffffff" stroke="black" stroke-width="2" d="M341.75,-161.88C341.75,-161.88 424,-161.88 424,-161.88 430,-161.88 436,-167.88 436,-173.88 436,-173.88 436,-261.88 436,-261.88 436,-267.88 430,-273.88 424,-273.88 424,-273.88 341.75,-273.88 341.75,-273.88 335.75,-273.88 329.75,-267.88 329.75,-261.88 329.75,-261.88 329.75,-173.88 329.75,-173.88 329.75,-167.88 335.75,-161.88 341.75,-161.88"/>
<text text-anchor="middle" x="382.88" y="-261.32" font-family="Helvetica,sans-Serif" font-weight="bold" font-size="9.00">node_modules</text>
</g>
<!-- baseline&#45;violations.d.ts -->
<g id="node1" class="node">
<title>baseline&#45;violations.d.ts</title>
<g id="a_node1"><a xlink:href="https://github.com/sverweij/dependency-cruiser/blob/main/baseline-violations.d.ts" xlink:title="baseline&#45;violations.d.ts">
<path fill="#ddfeff" stroke="black" d="M547.83,-252.75C547.83,-252.75 449.92,-252.75 449.92,-252.75 446.96,-252.75 444,-249.79 444,-246.83 444,-246.83 444,-240.92 444,-240.92 444,-237.96 446.96,-235 449.92,-235 449.92,-235 547.83,-235 547.83,-235 550.79,-235 553.75,-237.96 553.75,-240.92 553.75,-240.92 553.75,-246.83 553.75,-246.83 553.75,-249.79 550.79,-252.75 547.83,-252.75"/>
<text text-anchor="middle" x="498.88" y="-240.2" font-family="Helvetica,sans-Serif" font-size="9.00">baseline&#45;violations.d.ts</text>
</a>
</g>
</g>
<!-- violations.d.ts -->
<g id="node2" class="node">
<title>violations.d.ts</title>
<g id="a_node2"><a xlink:href="https://github.com/sverweij/dependency-cruiser/blob/main/violations.d.ts" xlink:title="violations.d.ts">
<path fill="#ddfeff" stroke="black" d="M634.96,-258.75C634.96,-258.75 575.29,-258.75 575.29,-258.75 572.33,-258.75 569.38,-255.79 569.38,-252.83 569.38,-252.83 569.38,-246.92 569.38,-246.92 569.38,-243.96 572.33,-241 575.29,-241 575.29,-241 634.96,-241 634.96,-241 637.92,-241 640.88,-243.96 640.88,-246.92 640.88,-246.92 640.88,-252.83 640.88,-252.83 640.88,-255.79 637.92,-258.75 634.96,-258.75"/>
<text text-anchor="middle" x="605.12" y="-246.2" font-family="Helvetica,sans-Serif" font-size="9.00">violations.d.ts</text>
</a>
</g>
</g>
<!-- baseline&#45;violations.d.ts&#45;&gt;violations.d.ts -->
<g id="edge1" class="edge">
<title>baseline&#45;violations.d.ts&#45;&gt;violations.d.ts</title>
<path fill="none" stroke="#000000" stroke-width="2" stroke-opacity="0.200000" d="M554.18,-246.88C554.18,-246.88 560.02,-246.88 560.02,-246.88"/>
<polygon fill="#000000" fill-opacity="0.200000" stroke="#000000" stroke-width="2" stroke-opacity="0.200000" points="560.02,-248.98 566.02,-246.88 560.02,-244.78 560.02,-248.98"/>
</g>
<!-- rule&#45;summary.d.ts -->
<g id="node8" class="node">
<title>rule&#45;summary.d.ts</title>
<g id="a_node8"><a xlink:href="https://github.com/sverweij/dependency-cruiser/blob/main/rule-summary.d.ts" xlink:title="rule&#45;summary.d.ts">
<path fill="#ddfeff" stroke="black" d="M739.33,-271.75C739.33,-271.75 662.42,-271.75 662.42,-271.75 659.46,-271.75 656.5,-268.79 656.5,-265.83 656.5,-265.83 656.5,-259.92 656.5,-259.92 656.5,-256.96 659.46,-254 662.42,-254 662.42,-254 739.33,-254 739.33,-254 742.29,-254 745.25,-256.96 745.25,-259.92 745.25,-259.92 745.25,-265.83 745.25,-265.83 745.25,-268.79 742.29,-271.75 739.33,-271.75"/>
<text text-anchor="middle" x="700.88" y="-259.2" font-family="Helvetica,sans-Serif" font-size="9.00">rule&#45;summary.d.ts</text>
</a>
</g>
</g>
<!-- violations.d.ts&#45;&gt;rule&#45;summary.d.ts -->
<g id="edge42" class="edge">
<title>violations.d.ts&#45;&gt;rule&#45;summary.d.ts</title>
<path fill="none" stroke="#000000" stroke-width="2" stroke-opacity="0.200000" d="M618,-259.05C618,-261.63 618,-263.75 618,-263.75 618,-263.75 647.01,-263.75 647.01,-263.75"/>
<polygon fill="#000000" fill-opacity="0.200000" stroke="#000000" stroke-width="2" stroke-opacity="0.200000" points="647.01,-265.85 653.01,-263.75 647.01,-261.65 647.01,-265.85"/>
</g>
<!-- shared&#45;types.d.ts -->
<g id="node9" class="node">
<title>shared&#45;types.d.ts</title>
<g id="a_node9"><a xlink:href="https://github.com/sverweij/dependency-cruiser/blob/main/shared-types.d.ts" xlink:title="shared&#45;types.d.ts">
<path fill="#ddfeff" stroke="black" d="M838.08,-175.75C838.08,-175.75 764.17,-175.75 764.17,-175.75 761.21,-175.75 758.25,-172.79 758.25,-169.83 758.25,-169.83 758.25,-163.92 758.25,-163.92 758.25,-160.96 761.21,-158 764.17,-158 764.17,-158 838.08,-158 838.08,-158 841.04,-158 844,-160.96 844,-163.92 844,-163.92 844,-169.83 844,-169.83 844,-172.79 841.04,-175.75 838.08,-175.75"/>
<text text-anchor="middle" x="801.12" y="-163.2" font-family="Helvetica,sans-Serif" font-size="9.00">shared&#45;types.d.ts</text>
</a>
</g>
</g>
<!-- violations.d.ts&#45;&gt;shared&#45;types.d.ts -->
<g id="edge43" class="edge">
<title>violations.d.ts&#45;&gt;shared&#45;types.d.ts</title>
<path fill="none" stroke="#000000" stroke-width="2" stroke-opacity="0.200000" d="M641.36,-247.5C692.58,-247.5 780,-247.5 780,-247.5 780,-247.5 780,-185.15 780,-185.15"/>
<polygon fill="#000000" fill-opacity="0.200000" stroke="#000000" stroke-width="2" stroke-opacity="0.200000" points="782.1,-185.15 780,-179.15 777.9,-185.15 782.1,-185.15"/>
</g>
<!-- cache&#45;options.d.ts -->
<g id="node3" class="node">
<title>cache&#45;options.d.ts</title>
<g id="a_node3"><a xlink:href="https://github.com/sverweij/dependency-cruiser/blob/main/cache-options.d.ts" xlink:title="cache&#45;options.d.ts">
<path fill="#ddfeff" stroke="black" d="M538.08,-103.75C538.08,-103.75 459.67,-103.75 459.67,-103.75 456.71,-103.75 453.75,-100.79 453.75,-97.83 453.75,-97.83 453.75,-91.92 453.75,-91.92 453.75,-88.96 456.71,-86 459.67,-86 459.67,-86 538.08,-86 538.08,-86 541.04,-86 544,-88.96 544,-91.92 544,-91.92 544,-97.83 544,-97.83 544,-100.79 541.04,-103.75 538.08,-103.75"/>
<text text-anchor="middle" x="498.88" y="-91.2" font-family="Helvetica,sans-Serif" font-size="9.00">cache&#45;options.d.ts</text>
</a>
</g>
</g>
<!-- configuration.d.ts -->
<g id="node4" class="node">
<title>configuration.d.ts</title>
<g id="a_node4"><a xlink:href="https://github.com/sverweij/dependency-cruiser/blob/main/configuration.d.ts" xlink:title="configuration.d.ts">
<path fill="#ddfeff" stroke="black" d="M293.33,-127.75C293.33,-127.75 219.42,-127.75 219.42,-127.75 216.46,-127.75 213.5,-124.79 213.5,-121.83 213.5,-121.83 213.5,-115.92 213.5,-115.92 213.5,-112.96 216.46,-110 219.42,-110 219.42,-110 293.33,-110 293.33,-110 296.29,-110 299.25,-112.96 299.25,-115.92 299.25,-115.92 299.25,-121.83 299.25,-121.83 299.25,-124.79 296.29,-127.75 293.33,-127.75"/>
<text text-anchor="middle" x="256.38" y="-115.2" font-family="Helvetica,sans-Serif" font-size="9.00">configuration.d.ts</text>
</a>
</g>
</g>
<!-- options.d.ts -->
<g id="node5" class="node">
<title>options.d.ts</title>
<g id="a_node5"><a xlink:href="https://github.com/sverweij/dependency-cruiser/blob/main/options.d.ts" xlink:title="options.d.ts">
<path fill="#ddfeff" stroke="black" d="M408.21,-153.75C408.21,-153.75 357.54,-153.75 357.54,-153.75 354.58,-153.75 351.62,-150.79 351.62,-147.83 351.62,-147.83 351.62,-141.92 351.62,-141.92 351.62,-138.96 354.58,-136 357.54,-136 357.54,-136 408.21,-136 408.21,-136 411.17,-136 414.12,-138.96 414.12,-141.92 414.12,-141.92 414.12,-147.83 414.12,-147.83 414.12,-150.79 411.17,-153.75 408.21,-153.75"/>
<text text-anchor="middle" x="382.88" y="-141.2" font-family="Helvetica,sans-Serif" font-size="9.00">options.d.ts</text>
</a>
</g>
</g>
<!-- configuration.d.ts&#45;&gt;options.d.ts -->
<g id="edge2" class="edge">
<title>configuration.d.ts&#45;&gt;options.d.ts</title>
<path fill="none" stroke="#000000" stroke-width="2" stroke-opacity="0.200000" d="M299.6,-125.4C336.28,-125.4 383,-125.4 383,-125.4 383,-125.4 383,-126.57 383,-126.57"/>
<polygon fill="#000000" fill-opacity="0.200000" stroke="#000000" stroke-width="2" stroke-opacity="0.200000" points="380.9,-126.57 383,-132.57 385.1,-126.57 380.9,-126.57"/>
</g>
<!-- rule&#45;set.d.ts -->
<g id="node6" class="node">
<title>rule&#45;set.d.ts</title>
<g id="a_node6"><a xlink:href="https://github.com/sverweij/dependency-cruiser/blob/main/rule-set.d.ts" xlink:title="rule&#45;set.d.ts">
<path fill="#ddfeff" stroke="black" d="M524.58,-133.75C524.58,-133.75 473.17,-133.75 473.17,-133.75 470.21,-133.75 467.25,-130.79 467.25,-127.83 467.25,-127.83 467.25,-121.92 467.25,-121.92 467.25,-118.96 470.21,-116 473.17,-116 473.17,-116 524.58,-116 524.58,-116 527.54,-116 530.5,-118.96 530.5,-121.92 530.5,-121.92 530.5,-127.83 530.5,-127.83 530.5,-130.79 527.54,-133.75 524.58,-133.75"/>
<text text-anchor="middle" x="498.88" y="-121.2" font-family="Helvetica,sans-Serif" font-size="9.00">rule&#45;set.d.ts</text>
</a>
</g>
</g>
<!-- configuration.d.ts&#45;&gt;rule&#45;set.d.ts -->
<g id="edge3" class="edge">
<title>configuration.d.ts&#45;&gt;rule&#45;set.d.ts</title>
<path fill="none" stroke="#000000" stroke-width="2" stroke-opacity="0.200000" d="M299.73,-120.7C299.73,-120.7 458.07,-120.7 458.07,-120.7"/>
<polygon fill="#000000" fill-opacity="0.200000" stroke="#000000" stroke-width="2" stroke-opacity="0.200000" points="458.07,-122.8 464.07,-120.7 458.07,-118.6 458.07,-122.8"/>
</g>
<!-- options.d.ts&#45;&gt;baseline&#45;violations.d.ts -->
<g id="edge19" class="edge">
<title>options.d.ts&#45;&gt;baseline&#45;violations.d.ts</title>
<path fill="none" stroke="#000000" stroke-width="2" stroke-opacity="0.200000" d="M414.39,-150.79C425.83,-150.79 436,-150.79 436,-150.79 436,-150.79 436,-241.38 436,-241.38 436,-241.38 436.77,-241.38 436.77,-241.38"/>
<polygon fill="#000000" fill-opacity="0.200000" stroke="#000000" stroke-width="2" stroke-opacity="0.200000" points="434.68,-243.48 440.68,-241.38 434.68,-239.28 434.68,-243.48"/>
</g>
<!-- options.d.ts&#45;&gt;cache&#45;options.d.ts -->
<g id="edge20" class="edge">
<title>options.d.ts&#45;&gt;cache&#45;options.d.ts</title>
<path fill="none" stroke="#000000" stroke-width="2" stroke-opacity="0.200000" d="M414.28,-138.96C435.25,-138.96 459,-138.96 459,-138.96 459,-138.96 459,-113.25 459,-113.25"/>
<polygon fill="#000000" fill-opacity="0.200000" stroke="#000000" stroke-width="2" stroke-opacity="0.200000" points="461.1,-113.25 459,-107.25 456.9,-113.25 461.1,-113.25"/>
</g>
<!-- options.d.ts&#45;&gt;rule&#45;set.d.ts -->
<g id="edge23" class="edge">
<title>options.d.ts&#45;&gt;rule&#45;set.d.ts</title>
<path fill="none" stroke="#000000" stroke-width="2" stroke-opacity="0.200000" d="M414.43,-141.92C445.71,-141.92 489,-141.92 489,-141.92 489,-141.92 489,-141.14 489,-141.14"/>
<polygon fill="#000000" fill-opacity="0.200000" stroke="#000000" stroke-width="2" stroke-opacity="0.200000" points="491.1,-143.22 489,-137.22 486.9,-143.22 491.1,-143.22"/>
</g>
<!-- options.d.ts&#45;&gt;shared&#45;types.d.ts -->
<g id="edge24" class="edge">
<title>options.d.ts&#45;&gt;shared&#45;types.d.ts</title>
<path fill="none" stroke="#000000" stroke-width="2" stroke-opacity="0.200000" d="M414.47,-144.88C506.69,-144.88 769,-144.88 769,-144.88 769,-144.88 769,-148.65 769,-148.65"/>
<polygon fill="#000000" fill-opacity="0.200000" stroke="#000000" stroke-width="2" stroke-opacity="0.200000" points="766.9,-148.65 769,-154.65 771.1,-148.65 766.9,-148.65"/>
</g>
<!-- filter&#45;types.d.ts -->
<g id="node18" class="node">
<title>filter&#45;types.d.ts</title>
<g id="a_node18"><a xlink:href="https://github.com/sverweij/dependency-cruiser/blob/main/filter-types.d.ts" xlink:title="filter&#45;types.d.ts">
<path fill="#ddfeff" stroke="black" d="M636.46,-175.75C636.46,-175.75 573.79,-175.75 573.79,-175.75 570.83,-175.75 567.88,-172.79 567.88,-169.83 567.88,-169.83 567.88,-163.92 567.88,-163.92 567.88,-160.96 570.83,-158 573.79,-158 573.79,-158 636.46,-158 636.46,-158 639.42,-158 642.38,-160.96 642.38,-163.92 642.38,-163.92 642.38,-169.83 642.38,-169.83 642.38,-172.79 639.42,-175.75 636.46,-175.75"/>
<text text-anchor="middle" x="605.12" y="-163.2" font-family="Helvetica,sans-Serif" font-size="9.00">filter&#45;types.d.ts</text>
</a>
</g>
</g>
<!-- options.d.ts&#45;&gt;filter&#45;types.d.ts -->
<g id="edge21" class="edge">
<title>options.d.ts&#45;&gt;filter&#45;types.d.ts</title>
<path fill="none" stroke="#000000" stroke-width="2" stroke-opacity="0.200000" d="M383,-153.84C383,-158.32 383,-162.8 383,-162.8 383,-162.8 558.42,-162.8 558.42,-162.8"/>
<polygon fill="#000000" fill-opacity="0.200000" stroke="#000000" stroke-width="2" stroke-opacity="0.200000" points="558.42,-164.9 564.42,-162.8 558.42,-160.7 558.42,-164.9"/>
</g>
<!-- reporter&#45;options.d.ts -->
<g id="node20" class="node">
<title>reporter&#45;options.d.ts</title>
<g id="a_node20"><a xlink:href="https://github.com/sverweij/dependency-cruiser/blob/main/reporter-options.d.ts" xlink:title="reporter&#45;options.d.ts">
<path fill="#ddfeff" stroke="black" d="M541.83,-189.75C541.83,-189.75 455.92,-189.75 455.92,-189.75 452.96,-189.75 450,-186.79 450,-183.83 450,-183.83 450,-177.92 450,-177.92 450,-174.96 452.96,-172 455.92,-172 455.92,-172 541.83,-172 541.83,-172 544.79,-172 547.75,-174.96 547.75,-177.92 547.75,-177.92 547.75,-183.83 547.75,-183.83 547.75,-186.79 544.79,-189.75 541.83,-189.75"/>
<text text-anchor="middle" x="498.88" y="-177.2" font-family="Helvetica,sans-Serif" font-size="9.00">reporter&#45;options.d.ts</text>
</a>
</g>
</g>
<!-- options.d.ts&#45;&gt;reporter&#45;options.d.ts -->
<g id="edge22" class="edge">
<title>options.d.ts&#45;&gt;reporter&#45;options.d.ts</title>
<path fill="none" stroke="#000000" stroke-width="2" stroke-opacity="0.200000" d="M414.54,-147.83C436.94,-147.83 463,-147.83 463,-147.83 463,-147.83 463,-162.82 463,-162.82"/>
<polygon fill="#000000" fill-opacity="0.200000" stroke="#000000" stroke-width="2" stroke-opacity="0.200000" points="460.9,-162.82 463,-168.82 465.1,-162.82 460.9,-162.82"/>
</g>
<!-- rule&#45;set.d.ts&#45;&gt;shared&#45;types.d.ts -->
<g id="edge29" class="edge">
<title>rule&#45;set.d.ts&#45;&gt;shared&#45;types.d.ts</title>
<path fill="none" stroke="#000000" stroke-width="2" stroke-opacity="0.200000" d="M530.85,-129.08C604.53,-129.08 780,-129.08 780,-129.08 780,-129.08 780,-148.7 780,-148.7"/>
<polygon fill="#000000" fill-opacity="0.200000" stroke="#000000" stroke-width="2" stroke-opacity="0.200000" points="777.9,-148.7 780,-154.7 782.1,-148.7 777.9,-148.7"/>
</g>
<!-- restrictions.d.ts -->
<g id="node21" class="node">
<title>restrictions.d.ts</title>
<g id="a_node21"><a xlink:href="https://github.com/sverweij/dependency-cruiser/blob/main/restrictions.d.ts" xlink:title="restrictions.d.ts">
<path fill="#ddfeff" stroke="black" d="M637.58,-119.75C637.58,-119.75 572.67,-119.75 572.67,-119.75 569.71,-119.75 566.75,-116.79 566.75,-113.83 566.75,-113.83 566.75,-107.92 566.75,-107.92 566.75,-104.96 569.71,-102 572.67,-102 572.67,-102 637.58,-102 637.58,-102 640.54,-102 643.5,-104.96 643.5,-107.92 643.5,-107.92 643.5,-113.83 643.5,-113.83 643.5,-116.79 640.54,-119.75 637.58,-119.75"/>
<text text-anchor="middle" x="605.12" y="-107.2" font-family="Helvetica,sans-Serif" font-size="9.00">restrictions.d.ts</text>
</a>
</g>
</g>
<!-- rule&#45;set.d.ts&#45;&gt;restrictions.d.ts -->
<g id="edge28" class="edge">
<title>rule&#45;set.d.ts&#45;&gt;restrictions.d.ts</title>
<path fill="none" stroke="#000000" stroke-width="2" stroke-opacity="0.200000" d="M530.73,-124.42C562.3,-124.42 606,-124.42 606,-124.42 606,-124.42 606,-123.99 606,-123.99"/>
<polygon fill="#000000" fill-opacity="0.200000" stroke="#000000" stroke-width="2" stroke-opacity="0.200000" points="608.1,-129.16 606,-123.16 603.9,-129.16 608.1,-129.16"/>
</g>
<!-- cruise&#45;result.d.ts -->
<g id="node7" class="node">
<title>cruise&#45;result.d.ts</title>
<g id="a_node7"><a xlink:href="https://github.com/sverweij/dependency-cruiser/blob/main/cruise-result.d.ts" xlink:title="cruise&#45;result.d.ts">
<path fill="#ddfeff" stroke="black" d="M291.83,-297.75C291.83,-297.75 220.92,-297.75 220.92,-297.75 217.96,-297.75 215,-294.79 215,-291.83 215,-291.83 215,-285.92 215,-285.92 215,-282.96 217.96,-280 220.92,-280 220.92,-280 291.83,-280 291.83,-280 294.79,-280 297.75,-282.96 297.75,-285.92 297.75,-285.92 297.75,-291.83 297.75,-291.83 297.75,-294.79 294.79,-297.75 291.83,-297.75"/>
<text text-anchor="middle" x="256.38" y="-285.2" font-family="Helvetica,sans-Serif" font-size="9.00">cruise&#45;result.d.ts</text>
</a>
</g>
</g>
<!-- cruise&#45;result.d.ts&#45;&gt;violations.d.ts -->
<g id="edge8" class="edge">
<title>cruise&#45;result.d.ts&#45;&gt;violations.d.ts</title>
<path fill="none" stroke="#000000" stroke-width="2" stroke-opacity="0.200000" d="M298.11,-291.83C388.44,-291.83 594,-291.83 594,-291.83 594,-291.83 594,-268.21 594,-268.21"/>
<polygon fill="#000000" fill-opacity="0.200000" stroke="#000000" stroke-width="2" stroke-opacity="0.200000" points="596.1,-268.21 594,-262.21 591.9,-268.21 596.1,-268.21"/>
</g>
<!-- cruise&#45;result.d.ts&#45;&gt;options.d.ts -->
<g id="edge4" class="edge">
<title>cruise&#45;result.d.ts&#45;&gt;options.d.ts</title>
<path fill="none" stroke="#000000" stroke-width="2" stroke-opacity="0.200000" d="M298.2,-285.92C314.34,-285.92 329,-285.92 329,-285.92 329,-285.92 329,-150.2 329,-150.2 329,-150.2 342.2,-150.2 342.2,-150.2"/>
<polygon fill="#000000" fill-opacity="0.200000" stroke="#000000" stroke-width="2" stroke-opacity="0.200000" points="342.2,-152.3 348.2,-150.2 342.2,-148.1 342.2,-152.3"/>
</g>
<!-- cruise&#45;result.d.ts&#45;&gt;rule&#45;set.d.ts -->
<g id="edge5" class="edge">
<title>cruise&#45;result.d.ts&#45;&gt;rule&#45;set.d.ts</title>
<path fill="none" stroke="#000000" stroke-width="2" stroke-opacity="0.200000" d="M297.88,-282.96C312.33,-282.96 325,-282.96 325,-282.96 325,-282.96 325,-123.05 325,-123.05 325,-123.05 457.96,-123.05 457.96,-123.05"/>
<polygon fill="#000000" fill-opacity="0.200000" stroke="#000000" stroke-width="2" stroke-opacity="0.200000" points="457.96,-125.15 463.96,-123.05 457.96,-120.95 457.96,-125.15"/>
</g>
<!-- cruise&#45;result.d.ts&#45;&gt;rule&#45;summary.d.ts -->
<g id="edge6" class="edge">
<title>cruise&#45;result.d.ts&#45;&gt;rule&#45;summary.d.ts</title>
<path fill="none" stroke="#000000" stroke-width="2" stroke-opacity="0.200000" d="M257,-279.79C257,-274.07 257,-267.75 257,-267.75 257,-267.75 647.26,-267.75 647.26,-267.75"/>
<polygon fill="#000000" fill-opacity="0.200000" stroke="#000000" stroke-width="2" stroke-opacity="0.200000" points="647.26,-269.85 653.26,-267.75 647.26,-265.65 647.26,-269.85"/>
</g>
<!-- cruise&#45;result.d.ts&#45;&gt;shared&#45;types.d.ts -->
<g id="edge7" class="edge">
<title>cruise&#45;result.d.ts&#45;&gt;shared&#45;types.d.ts</title>
<path fill="none" stroke="#000000" stroke-width="2" stroke-opacity="0.200000" d="M298.04,-294.79C428.9,-294.79 823,-294.79 823,-294.79 823,-294.79 823,-185.1 823,-185.1"/>
<polygon fill="#000000" fill-opacity="0.200000" stroke="#000000" stroke-width="2" stroke-opacity="0.200000" points="825.1,-185.1 823,-179.1 820.9,-185.1 825.1,-185.1"/>
</g>
<!-- node_modules/watskeburt -->
<g id="node10" class="node">
<title>node_modules/watskeburt</title>
<g id="a_node10"><a xlink:href="https://www.npmjs.com/package/watskeburt" xlink:title="watskeburt">
<polygon fill="#c40b0a" fill-opacity="0.101961" stroke="black" points="413,-247.75 354.72,-247.75 352.75,-245.78 352.75,-230 411.03,-230 413,-231.97 413,-247.75"/>
<polyline fill="none" stroke="black" points="411.03,-245.78 352.75,-245.78"/>
<polyline fill="none" stroke="black" points="411.03,-245.78 411.03,-230"/>
<polyline fill="none" stroke="black" points="411.03,-245.78 413,-247.75"/>
<text text-anchor="start" x="360.75" y="-235.2" font-family="Helvetica,sans-Serif" font-size="9.00" fill="#c40b0a">watskeburt</text>
</a>
</g>
</g>
<!-- cruise&#45;result.d.ts&#45;&gt;node_modules/watskeburt -->
<g id="edge9" class="edge">
<title>cruise&#45;result.d.ts&#45;&gt;node_modules/watskeburt</title>
<path fill="none" stroke="#000000" stroke-opacity="0.200000" d="M298.19,-288.88C335.07,-288.88 383,-288.88 383,-288.88 383,-288.88 383,-255.56 383,-255.56"/>
<polygon fill="#000000" fill-opacity="0.200000" stroke="#000000" stroke-opacity="0.200000" points="385.1,-255.56 383,-249.56 380.9,-255.56 385.1,-255.56"/>
</g>
<!-- rule&#45;summary.d.ts&#45;&gt;shared&#45;types.d.ts -->
<g id="edge30" class="edge">
<title>rule&#45;summary.d.ts&#45;&gt;shared&#45;types.d.ts</title>
<path fill="none" stroke="#000000" stroke-width="2" stroke-opacity="0.200000" d="M745.52,-262.88C772.61,-262.88 802,-262.88 802,-262.88 802,-262.88 802,-185.11 802,-185.11"/>
<polygon fill="#000000" fill-opacity="0.200000" stroke="#000000" stroke-width="2" stroke-opacity="0.200000" points="804.1,-185.11 802,-179.11 799.9,-185.11 804.1,-185.11"/>
</g>
<!-- dependency&#45;cruiser.d.ts -->
<g id="node11" class="node">
<title>dependency&#45;cruiser.d.ts</title>
<g id="a_node11"><a xlink:href="https://github.com/sverweij/dependency-cruiser/blob/main/dependency-cruiser.d.ts" xlink:title="dependency&#45;cruiser.d.ts">
<path fill="#ddfeff" stroke="black" d="M149.21,-199.75C149.21,-199.75 46.79,-199.75 46.79,-199.75 43.83,-199.75 40.87,-196.79 40.87,-193.83 40.87,-193.83 40.87,-187.92 40.87,-187.92 40.87,-184.96 43.83,-182 46.79,-182 46.79,-182 149.21,-182 149.21,-182 152.17,-182 155.12,-184.96 155.12,-187.92 155.12,-187.92 155.12,-193.83 155.12,-193.83 155.12,-196.79 152.17,-199.75 149.21,-199.75"/>
<text text-anchor="middle" x="98" y="-187.2" font-family="Helvetica,sans-Serif" font-size="9.00">dependency&#45;cruiser.d.ts</text>
</a>
</g>
</g>
<!-- dependency&#45;cruiser.d.ts&#45;&gt;configuration.d.ts -->
<g id="edge10" class="edge">
<title>dependency&#45;cruiser.d.ts&#45;&gt;configuration.d.ts</title>
<path fill="none" stroke="#000000" stroke-width="2" stroke-opacity="0.200000" d="M87,-181.76C87,-162.38 87,-118.88 87,-118.88 87,-118.88 204.17,-118.88 204.17,-118.88"/>
<polygon fill="#000000" fill-opacity="0.200000" stroke="#000000" stroke-width="2" stroke-opacity="0.200000" points="204.17,-120.98 210.17,-118.88 204.17,-116.78 204.17,-120.98"/>
</g>
<!-- dependency&#45;cruiser.d.ts&#45;&gt;options.d.ts -->
<g id="edge12" class="edge">
<title>dependency&#45;cruiser.d.ts&#45;&gt;options.d.ts</title>
<path fill="none" stroke="#000000" stroke-width="2" stroke-opacity="0.200000" d="M110,-181.66C110,-167.78 110,-143.1 110,-143.1 110,-143.1 342.28,-143.1 342.28,-143.1"/>
<polygon fill="#000000" fill-opacity="0.200000" stroke="#000000" stroke-width="2" stroke-opacity="0.200000" points="342.28,-145.2 348.28,-143.1 342.28,-141 342.28,-145.2"/>
</g>
<!-- dependency&#45;cruiser.d.ts&#45;&gt;rule&#45;set.d.ts -->
<g id="edge14" class="edge">
<title>dependency&#45;cruiser.d.ts&#45;&gt;rule&#45;set.d.ts</title>
<path fill="none" stroke="#000000" stroke-width="2" stroke-opacity="0.200000" d="M133,-181.66C133,-172.44 133,-159.6 133,-159.6 133,-159.6 510,-159.6 510,-159.6 510,-159.6 510,-143.03 510,-143.03"/>
<polygon fill="#000000" fill-opacity="0.200000" stroke="#000000" stroke-width="2" stroke-opacity="0.200000" points="512.1,-143.03 510,-137.03 507.9,-143.03 512.1,-143.03"/>
</g>
<!-- dependency&#45;cruiser.d.ts&#45;&gt;cruise&#45;result.d.ts -->
<g id="edge11" class="edge">
<title>dependency&#45;cruiser.d.ts&#45;&gt;cruise&#45;result.d.ts</title>
<path fill="none" stroke="#000000" stroke-width="2" stroke-opacity="0.200000" d="M40.43,-187.92C19.09,-187.92 0,-187.92 0,-187.92 0,-187.92 0,-288.88 0,-288.88 0,-288.88 205.59,-288.88 205.59,-288.88"/>
<polygon fill="#000000" fill-opacity="0.200000" stroke="#000000" stroke-width="2" stroke-opacity="0.200000" points="205.59,-290.98 211.59,-288.88 205.59,-286.78 205.59,-290.98"/>
</g>
<!-- dependency&#45;cruiser.d.ts&#45;&gt;shared&#45;types.d.ts -->
<g id="edge15" class="edge">
<title>dependency&#45;cruiser.d.ts&#45;&gt;shared&#45;types.d.ts</title>
<path fill="none" stroke="#000000" stroke-width="2" stroke-opacity="0.200000" d="M64,-181.59C64,-155.24 64,-81.92 64,-81.92 64,-81.92 802,-81.92 802,-81.92 802,-81.92 802,-148.76 802,-148.76"/>
<polygon fill="#000000" fill-opacity="0.200000" stroke="#000000" stroke-width="2" stroke-opacity="0.200000" points="799.9,-148.76 802,-154.76 804.1,-148.76 799.9,-148.76"/>
</g>
<!-- resolve&#45;options.d.ts -->
<g id="node12" class="node">
<title>resolve&#45;options.d.ts</title>
<g id="a_node12"><a xlink:href="https://github.com/sverweij/dependency-cruiser/blob/main/resolve-options.d.ts" xlink:title="resolve&#45;options.d.ts">
<path fill="#ddfeff" stroke="black" d="M298.21,-243.75C298.21,-243.75 214.54,-243.75 214.54,-243.75 211.58,-243.75 208.62,-240.79 208.62,-237.83 208.62,-237.83 208.62,-231.92 208.62,-231.92 208.62,-228.96 211.58,-226 214.54,-226 214.54,-226 298.21,-226 298.21,-226 301.17,-226 304.12,-228.96 304.12,-231.92 304.12,-231.92 304.12,-237.83 304.12,-237.83 304.12,-240.79 301.17,-243.75 298.21,-243.75"/>
<text text-anchor="middle" x="256.38" y="-231.2" font-family="Helvetica,sans-Serif" font-size="9.00">resolve&#45;options.d.ts</text>
</a>
</g>
</g>
<!-- dependency&#45;cruiser.d.ts&#45;&gt;resolve&#45;options.d.ts -->
<g id="edge13" class="edge">
<title>dependency&#45;cruiser.d.ts&#45;&gt;resolve&#45;options.d.ts</title>
<path fill="none" stroke="#000000" stroke-width="2" stroke-opacity="0.200000" d="M40.62,-193.83C34.25,-193.83 30,-193.83 30,-193.83 30,-193.83 30,-235.88 30,-235.88 30,-235.88 199.34,-235.88 199.34,-235.88"/>
<polygon fill="#000000" fill-opacity="0.200000" stroke="#000000" stroke-width="2" stroke-opacity="0.200000" points="199.34,-237.98 205.34,-235.88 199.34,-233.78 199.34,-237.98"/>
</g>
<!-- node_modules/enhanced&#45;resolve -->
<g id="node19" class="node">
<title>node_modules/enhanced&#45;resolve</title>
<g id="a_node19"><a xlink:href="https://www.npmjs.com/package/enhanced-resolve" xlink:title="enhanced&#45;resolve">
<polygon fill="#c40b0a" fill-opacity="0.101961" stroke="black" points="428,-217.75 339.72,-217.75 337.75,-215.78 337.75,-200 426.03,-200 428,-201.97 428,-217.75"/>
<polyline fill="none" stroke="black" points="426.03,-215.78 337.75,-215.78"/>
<polyline fill="none" stroke="black" points="426.03,-215.78 426.03,-200"/>
<polyline fill="none" stroke="black" points="426.03,-215.78 428,-217.75"/>
<text text-anchor="start" x="345.75" y="-205.2" font-family="Helvetica,sans-Serif" font-size="9.00" fill="#c40b0a">enhanced&#45;resolve</text>
</a>
</g>
</g>
<!-- resolve&#45;options.d.ts&#45;&gt;node_modules/enhanced&#45;resolve -->
<g id="edge26" class="edge">
<title>resolve&#45;options.d.ts&#45;&gt;node_modules/enhanced&#45;resolve</title>
<path fill="none" stroke="#000000" stroke-opacity="0.200000" d="M304.6,-236.88C325.81,-236.88 346,-236.88 346,-236.88 346,-236.88 346,-225.56 346,-225.56"/>
<polygon fill="#000000" fill-opacity="0.200000" stroke="#000000" stroke-opacity="0.200000" points="348.1,-225.56 346,-219.56 343.9,-225.56 348.1,-225.56"/>
</g>
<!-- extract&#45;babel&#45;config.d.ts -->
<g id="node13" class="node">
<title>extract&#45;babel&#45;config.d.ts</title>
<g id="a_node13"><a xlink:href="https://github.com/sverweij/dependency-cruiser/blob/main/extract-babel-config.d.ts" xlink:title="extract&#45;babel&#45;config.d.ts">
<path fill="#ccffcc" stroke="black" d="M148.83,-229.75C148.83,-229.75 47.17,-229.75 47.17,-229.75 44.21,-229.75 41.25,-226.79 41.25,-223.83 41.25,-223.83 41.25,-217.92 41.25,-217.92 41.25,-214.96 44.21,-212 47.17,-212 47.17,-212 148.83,-212 148.83,-212 151.79,-212 154.75,-214.96 154.75,-217.92 154.75,-217.92 154.75,-223.83 154.75,-223.83 154.75,-226.79 151.79,-229.75 148.83,-229.75"/>
<text text-anchor="middle" x="98" y="-217.2" font-family="Helvetica,sans-Serif" font-size="9.00">extract&#45;babel&#45;config.d.ts</text>
</a>
</g>
</g>
<!-- extract&#45;depcruise&#45;config.d.ts -->
<g id="node14" class="node">
<title>extract&#45;depcruise&#45;config.d.ts</title>
<g id="a_node14"><a xlink:href="https://github.com/sverweij/dependency-cruiser/blob/main/extract-depcruise-config.d.ts" xlink:title="extract&#45;depcruise&#45;config.d.ts">
<path fill="#ddfeff" stroke="black" d="M315.83,-183.75C315.83,-183.75 196.92,-183.75 196.92,-183.75 193.96,-183.75 191,-180.79 191,-177.83 191,-177.83 191,-171.92 191,-171.92 191,-168.96 193.96,-166 196.92,-166 196.92,-166 315.83,-166 315.83,-166 318.79,-166 321.75,-168.96 321.75,-171.92 321.75,-171.92 321.75,-177.83 321.75,-177.83 321.75,-180.79 318.79,-183.75 315.83,-183.75"/>
<text text-anchor="middle" x="256.38" y="-171.2" font-family="Helvetica,sans-Serif" font-size="9.00">extract&#45;depcruise&#45;config.d.ts</text>
</a>
</g>
</g>
<!-- extract&#45;depcruise&#45;config.d.ts&#45;&gt;options.d.ts -->
<g id="edge16" class="edge">
<title>extract&#45;depcruise&#45;config.d.ts&#45;&gt;options.d.ts</title>
<path fill="none" stroke="#000000" stroke-width="2" stroke-opacity="0.200000" d="M311,-165.63C311,-157.4 311,-146.65 311,-146.65 311,-146.65 342.11,-146.65 342.11,-146.65"/>
<polygon fill="#000000" fill-opacity="0.200000" stroke="#000000" stroke-width="2" stroke-opacity="0.200000" points="342.11,-148.75 348.11,-146.65 342.11,-144.55 342.11,-148.75"/>
</g>
<!-- extract&#45;ts&#45;config.d.ts -->
<g id="node15" class="node">
<title>extract&#45;ts&#45;config.d.ts</title>
<g id="a_node15"><a xlink:href="https://github.com/sverweij/dependency-cruiser/blob/main/extract-ts-config.d.ts" xlink:title="extract&#45;ts&#45;config.d.ts">
<path fill="#ddfeff" stroke="black" d="M298.96,-213.75C298.96,-213.75 213.79,-213.75 213.79,-213.75 210.83,-213.75 207.88,-210.79 207.88,-207.83 207.88,-207.83 207.88,-201.92 207.88,-201.92 207.88,-198.96 210.83,-196 213.79,-196 213.79,-196 298.96,-196 298.96,-196 301.92,-196 304.88,-198.96 304.88,-201.92 304.88,-201.92 304.88,-207.83 304.88,-207.83 304.88,-210.79 301.92,-213.75 298.96,-213.75"/>
<text text-anchor="middle" x="256.38" y="-201.2" font-family="Helvetica,sans-Serif" font-size="9.00">extract&#45;ts&#45;config.d.ts</text>
</a>
</g>
</g>
<!-- node_modules/typescript -->
<g id="node16" class="node">
<title>node_modules/typescript</title>
<g id="a_node16"><a xlink:href="https://www.npmjs.com/package/typescript" xlink:title="typescript">
<polygon fill="#c40b0a" fill-opacity="0.101961" stroke="black" points="410.38,-187.75 357.35,-187.75 355.38,-185.78 355.38,-170 408.4,-170 410.38,-171.97 410.38,-187.75"/>
<polyline fill="none" stroke="black" points="408.4,-185.78 355.38,-185.78"/>
<polyline fill="none" stroke="black" points="408.4,-185.78 408.4,-170"/>
<polyline fill="none" stroke="black" points="408.4,-185.78 410.38,-187.75"/>
<text text-anchor="start" x="363.38" y="-175.2" font-family="Helvetica,sans-Serif" font-size="9.00" fill="#c40b0a">typescript</text>
</a>
</g>
</g>
<!-- extract&#45;ts&#45;config.d.ts&#45;&gt;node_modules/typescript -->
<g id="edge17" class="edge">
<title>extract&#45;ts&#45;config.d.ts&#45;&gt;node_modules/typescript</title>
<path fill="none" stroke="#000000" stroke-opacity="0.200000" d="M305.28,-206.88C321.26,-206.88 335,-206.88 335,-206.88 335,-206.88 335,-176.88 335,-176.88 335,-176.88 347.51,-176.88 347.51,-176.88"/>
<polygon fill="#000000" fill-opacity="0.200000" stroke="#000000" stroke-opacity="0.200000" points="347.51,-178.98 353.51,-176.88 347.51,-174.78 347.51,-178.98"/>
</g>
<!-- extract&#45;webpack&#45;resolve&#45;config.d.ts -->
<g id="node17" class="node">
<title>extract&#45;webpack&#45;resolve&#45;config.d.ts</title>
<g id="a_node17"><a xlink:href="https://github.com/sverweij/dependency-cruiser/blob/main/extract-webpack-resolve-config.d.ts" xlink:title="extract&#45;webpack&#45;resolve&#45;config.d.ts">
<path fill="#ccffcc" stroke="black" d="M172.08,-259.75C172.08,-259.75 23.92,-259.75 23.92,-259.75 20.96,-259.75 18,-256.79 18,-253.83 18,-253.83 18,-247.92 18,-247.92 18,-244.96 20.96,-242 23.92,-242 23.92,-242 172.08,-242 172.08,-242 175.04,-242 178,-244.96 178,-247.92 178,-247.92 178,-253.83 178,-253.83 178,-256.79 175.04,-259.75 172.08,-259.75"/>
<text text-anchor="middle" x="98" y="-247.2" font-family="Helvetica,sans-Serif" font-size="9.00">extract&#45;webpack&#45;resolve&#45;config.d.ts</text>
</a>
</g>
</g>
<!-- filter&#45;types.d.ts&#45;&gt;shared&#45;types.d.ts -->
<g id="edge18" class="edge">
<title>filter&#45;types.d.ts&#45;&gt;shared&#45;types.d.ts</title>
<path fill="none" stroke="#000000" stroke-width="2" stroke-opacity="0.200000" d="M642.45,-166.88C642.45,-166.88 748.76,-166.88 748.76,-166.88"/>
<polygon fill="#000000" fill-opacity="0.200000" stroke="#000000" stroke-width="2" stroke-opacity="0.200000" points="748.76,-168.98 754.76,-166.88 748.76,-164.78 748.76,-168.98"/>
</g>
<!-- reporter&#45;options.d.ts&#45;&gt;filter&#45;types.d.ts -->
<g id="edge25" class="edge">
<title>reporter&#45;options.d.ts&#45;&gt;filter&#45;types.d.ts</title>
<path fill="none" stroke="#000000" stroke-width="2" stroke-opacity="0.200000" d="M538,-171.87C538,-168.02 538,-164.4 538,-164.4 538,-164.4 558.61,-164.4 558.61,-164.4"/>
<polygon fill="#000000" fill-opacity="0.200000" stroke="#000000" stroke-width="2" stroke-opacity="0.200000" points="558.61,-166.5 564.61,-164.4 558.61,-162.3 558.61,-166.5"/>
</g>
<!-- restrictions.d.ts&#45;&gt;shared&#45;types.d.ts -->
<g id="edge27" class="edge">
<title>restrictions.d.ts&#45;&gt;shared&#45;types.d.ts</title>
<path fill="none" stroke="#000000" stroke-width="2" stroke-opacity="0.200000" d="M643.64,-110.88C698.08,-110.88 791,-110.88 791,-110.88 791,-110.88 791,-148.6 791,-148.6"/>
<polygon fill="#000000" fill-opacity="0.200000" stroke="#000000" stroke-width="2" stroke-opacity="0.200000" points="788.9,-148.6 791,-154.6 793.1,-148.6 788.9,-148.6"/>
</g>
<!-- strict&#45;filter&#45;types.d.ts -->
<g id="node22" class="node">
<title>strict&#45;filter&#45;types.d.ts</title>
<g id="a_node22"><a xlink:href="https://github.com/sverweij/dependency-cruiser/blob/main/strict-filter-types.d.ts" xlink:title="strict&#45;filter&#45;types.d.ts">
<path fill="#ddfeff" stroke="black" d="M541.08,-17.75C541.08,-17.75 456.67,-17.75 456.67,-17.75 453.71,-17.75 450.75,-14.79 450.75,-11.83 450.75,-11.83 450.75,-5.92 450.75,-5.92 450.75,-2.96 453.71,0 456.67,0 456.67,0 541.08,0 541.08,0 544.04,0 547,-2.96 547,-5.92 547,-5.92 547,-11.83 547,-11.83 547,-14.79 544.04,-17.75 541.08,-17.75"/>
<text text-anchor="middle" x="498.88" y="-5.2" font-family="Helvetica,sans-Serif" font-size="9.00">strict&#45;filter&#45;types.d.ts</text>
</a>
</g>
</g>
<!-- strict&#45;filter&#45;types.d.ts&#45;&gt;shared&#45;types.d.ts -->
<g id="edge32" class="edge">
<title>strict&#45;filter&#45;types.d.ts&#45;&gt;shared&#45;types.d.ts</title>
<path fill="none" stroke="#000000" stroke-width="2" stroke-opacity="0.200000" d="M547.25,-5.92C640.05,-5.92 834,-5.92 834,-5.92 834,-5.92 834,-148.73 834,-148.73"/>
<polygon fill="#000000" fill-opacity="0.200000" stroke="#000000" stroke-width="2" stroke-opacity="0.200000" points="831.9,-148.73 834,-154.73 836.1,-148.73 831.9,-148.73"/>
</g>
<!-- strict&#45;filter&#45;types.d.ts&#45;&gt;filter&#45;types.d.ts -->
<g id="edge31" class="edge">
<title>strict&#45;filter&#45;types.d.ts&#45;&gt;filter&#45;types.d.ts</title>
<path fill="none" stroke="#000000" stroke-width="2" stroke-opacity="0.200000" d="M547.21,-11.83C555.23,-11.83 561,-11.83 561,-11.83 561,-11.83 561,-161.2 561,-161.2 561,-161.2 561.65,-161.2 561.65,-161.2"/>
<polygon fill="#000000" fill-opacity="0.200000" stroke="#000000" stroke-width="2" stroke-opacity="0.200000" points="558.48,-163.3 564.48,-161.2 558.48,-159.1 558.48,-163.3"/>
</g>
<!-- strict&#45;options.d.ts -->
<g id="node23" class="node">
<title>strict&#45;options.d.ts</title>
<g id="a_node23"><a xlink:href="https://github.com/sverweij/dependency-cruiser/blob/main/strict-options.d.ts" xlink:title="strict&#45;options.d.ts">
<path fill="#ddfeff" stroke="black" d="M292.58,-45.75C292.58,-45.75 220.17,-45.75 220.17,-45.75 217.21,-45.75 214.25,-42.79 214.25,-39.83 214.25,-39.83 214.25,-33.92 214.25,-33.92 214.25,-30.96 217.21,-28 220.17,-28 220.17,-28 292.58,-28 292.58,-28 295.54,-28 298.5,-30.96 298.5,-33.92 298.5,-33.92 298.5,-39.83 298.5,-39.83 298.5,-42.79 295.54,-45.75 292.58,-45.75"/>
<text text-anchor="middle" x="256.38" y="-33.2" font-family="Helvetica,sans-Serif" font-size="9.00">strict&#45;options.d.ts</text>
</a>
</g>
</g>
<!-- strict&#45;options.d.ts&#45;&gt;cache&#45;options.d.ts -->
<g id="edge33" class="edge">
<title>strict&#45;options.d.ts&#45;&gt;cache&#45;options.d.ts</title>
<path fill="none" stroke="#000000" stroke-width="2" stroke-opacity="0.200000" d="M243,-46.19C243,-62.59 243,-94.88 243,-94.88 243,-94.88 444.4,-94.88 444.4,-94.88"/>
<polygon fill="#000000" fill-opacity="0.200000" stroke="#000000" stroke-width="2" stroke-opacity="0.200000" points="444.4,-96.98 450.4,-94.88 444.4,-92.78 444.4,-96.98"/>
</g>
<!-- strict&#45;options.d.ts&#45;&gt;options.d.ts -->
<g id="edge34" class="edge">
<title>strict&#45;options.d.ts&#45;&gt;options.d.ts</title>
<path fill="none" stroke="#000000" stroke-width="2" stroke-opacity="0.200000" d="M298.61,-39.83C315.93,-39.83 332,-39.83 332,-39.83 332,-39.83 332,-139.55 332,-139.55 332,-139.55 342.21,-139.55 342.21,-139.55"/>
<polygon fill="#000000" fill-opacity="0.200000" stroke="#000000" stroke-width="2" stroke-opacity="0.200000" points="342.21,-141.65 348.21,-139.55 342.21,-137.45 342.21,-141.65"/>
</g>
<!-- strict&#45;options.d.ts&#45;&gt;shared&#45;types.d.ts -->
<g id="edge35" class="edge">
<title>strict&#45;options.d.ts&#45;&gt;shared&#45;types.d.ts</title>
<path fill="none" stroke="#000000" stroke-width="2" stroke-opacity="0.200000" d="M271,-45.96C271,-58.03 271,-77.83 271,-77.83 271,-77.83 812,-77.83 812,-77.83 812,-77.83 812,-148.65 812,-148.65"/>
<polygon fill="#000000" fill-opacity="0.200000" stroke="#000000" stroke-width="2" stroke-opacity="0.200000" points="809.9,-148.65 812,-154.65 814.1,-148.65 809.9,-148.65"/>
</g>
<!-- strict&#45;options.d.ts&#45;&gt;strict&#45;filter&#45;types.d.ts -->
<g id="edge36" class="edge">
<title>strict&#45;options.d.ts&#45;&gt;strict&#45;filter&#45;types.d.ts</title>
<path fill="none" stroke="#000000" stroke-width="2" stroke-opacity="0.200000" d="M257,-27.71C257,-19.54 257,-8.88 257,-8.88 257,-8.88 441.48,-8.88 441.48,-8.88"/>
<polygon fill="#000000" fill-opacity="0.200000" stroke="#000000" stroke-width="2" stroke-opacity="0.200000" points="441.48,-10.98 447.48,-8.88 441.48,-6.78 441.48,-10.98"/>
</g>
<!-- strict&#45;rule&#45;set.d.ts -->
<g id="node24" class="node">
<title>strict&#45;rule&#45;set.d.ts</title>
<g id="a_node24"><a xlink:href="https://github.com/sverweij/dependency-cruiser/blob/main/strict-rule-set.d.ts" xlink:title="strict&#45;rule&#45;set.d.ts">
<path fill="#ddfeff" stroke="black" d="M419.46,-45.75C419.46,-45.75 346.29,-45.75 346.29,-45.75 343.33,-45.75 340.38,-42.79 340.38,-39.83 340.38,-39.83 340.38,-33.92 340.38,-33.92 340.38,-30.96 343.33,-28 346.29,-28 346.29,-28 419.46,-28 419.46,-28 422.42,-28 425.38,-30.96 425.38,-33.92 425.38,-33.92 425.38,-39.83 425.38,-39.83 425.38,-42.79 422.42,-45.75 419.46,-45.75"/>
<text text-anchor="middle" x="382.88" y="-33.2" font-family="Helvetica,sans-Serif" font-size="9.00">strict&#45;rule&#45;set.d.ts</text>
</a>
</g>
</g>
<!-- strict&#45;options.d.ts&#45;&gt;strict&#45;rule&#45;set.d.ts -->
<g id="edge37" class="edge">
<title>strict&#45;options.d.ts&#45;&gt;strict&#45;rule&#45;set.d.ts</title>
<path fill="none" stroke="#000000" stroke-width="2" stroke-opacity="0.200000" d="M298.85,-33.92C298.85,-33.92 331.27,-33.92 331.27,-33.92"/>
<polygon fill="#000000" fill-opacity="0.200000" stroke="#000000" stroke-width="2" stroke-opacity="0.200000" points="331.27,-36.02 337.27,-33.92 331.27,-31.82 331.27,-36.02"/>
</g>
<!-- strict&#45;rule&#45;set.d.ts&#45;&gt;rule&#45;set.d.ts -->
<g id="edge39" class="edge">
<title>strict&#45;rule&#45;set.d.ts&#45;&gt;rule&#45;set.d.ts</title>
<path fill="none" stroke="#000000" stroke-width="2" stroke-opacity="0.200000" d="M418,-46.22C418,-67.62 418,-118.35 418,-118.35 418,-118.35 457.88,-118.35 457.88,-118.35"/>
<polygon fill="#000000" fill-opacity="0.200000" stroke="#000000" stroke-width="2" stroke-opacity="0.200000" points="457.88,-120.45 463.88,-118.35 457.88,-116.25 457.88,-120.45"/>
</g>
<!-- strict&#45;rule&#45;set.d.ts&#45;&gt;shared&#45;types.d.ts -->
<g id="edge40" class="edge">
<title>strict&#45;rule&#45;set.d.ts&#45;&gt;shared&#45;types.d.ts</title>
<path fill="none" stroke="#000000" stroke-width="2" stroke-opacity="0.200000" d="M425.48,-36.88C535.93,-36.88 823,-36.88 823,-36.88 823,-36.88 823,-148.5 823,-148.5"/>
<polygon fill="#000000" fill-opacity="0.200000" stroke="#000000" stroke-width="2" stroke-opacity="0.200000" points="820.9,-148.5 823,-154.5 825.1,-148.5 820.9,-148.5"/>
</g>
<!-- strict&#45;restrictions.d.ts -->
<g id="node25" class="node">
<title>strict&#45;restrictions.d.ts</title>
<g id="a_node25"><a xlink:href="https://github.com/sverweij/dependency-cruiser/blob/main/strict-restrictions.d.ts" xlink:title="strict&#45;restrictions.d.ts">
<path fill="#ddfeff" stroke="black" d="M542.21,-73.75C542.21,-73.75 455.54,-73.75 455.54,-73.75 452.58,-73.75 449.62,-70.79 449.62,-67.83 449.62,-67.83 449.62,-61.92 449.62,-61.92 449.62,-58.96 452.58,-56 455.54,-56 455.54,-56 542.21,-56 542.21,-56 545.17,-56 548.12,-58.96 548.12,-61.92 548.12,-61.92 548.12,-67.83 548.12,-67.83 548.12,-70.79 545.17,-73.75 542.21,-73.75"/>
<text text-anchor="middle" x="498.88" y="-61.2" font-family="Helvetica,sans-Serif" font-size="9.00">strict&#45;restrictions.d.ts</text>
</a>
</g>
</g>
<!-- strict&#45;rule&#45;set.d.ts&#45;&gt;strict&#45;restrictions.d.ts -->
<g id="edge41" class="edge">
<title>strict&#45;rule&#45;set.d.ts&#45;&gt;strict&#45;restrictions.d.ts</title>
<path fill="none" stroke="#000000" stroke-width="2" stroke-opacity="0.200000" d="M422,-46.04C422,-54.21 422,-64.88 422,-64.88 422,-64.88 440.29,-64.88 440.29,-64.88"/>
<polygon fill="#000000" fill-opacity="0.200000" stroke="#000000" stroke-width="2" stroke-opacity="0.200000" points="440.29,-66.98 446.29,-64.88 440.29,-62.78 440.29,-66.98"/>
</g>
<!-- strict&#45;restrictions.d.ts&#45;&gt;restrictions.d.ts -->
<g id="edge38" class="edge">
<title>strict&#45;restrictions.d.ts&#45;&gt;restrictions.d.ts</title>
<path fill="none" stroke="#000000" stroke-width="2" stroke-opacity="0.200000" d="M548.36,-64.88C576.43,-64.88 606,-64.88 606,-64.88 606,-64.88 606,-92.54 606,-92.54"/>
<polygon fill="#000000" fill-opacity="0.200000" stroke="#000000" stroke-width="2" stroke-opacity="0.200000" points="603.9,-92.54 606,-98.54 608.1,-92.54 603.9,-92.54"/>
</g>
</g>
</svg>
