<?xml version="1.0" encoding="UTF-8" standalone="no"?>
<!DOCTYPE svg PUBLIC "-//W3C//DTD SVG 1.1//EN"
 "http://www.w3.org/Graphics/SVG/1.1/DTD/svg11.dtd">
<!-- Generated by graphviz version 3.0.0 (20220226.1711)
 -->
<!-- Title: dependency&#45;cruiser output Pages: 1 -->
<svg width="723pt" height="224pt"
 viewBox="0.00 0.00 723.00 224.00" xmlns="http://www.w3.org/2000/svg" xmlns:xlink="http://www.w3.org/1999/xlink">
<g id="graph0" class="graph" transform="scale(1 1) rotate(0) translate(4 220)">
<title>dependency&#45;cruiser output</title>
<polygon fill="white" stroke="transparent" points="-4,4 -4,-220 719,-220 719,4 -4,4"/>
<g id="clust1" class="cluster">
<title>cluster_node_modules</title>
<path fill="#ffffff" stroke="black" stroke-width="2" d="M135,-156C135,-156 218,-156 218,-156 224,-156 230,-162 230,-168 230,-168 230,-196 230,-196 230,-202 224,-208 218,-208 218,-208 135,-208 135,-208 129,-208 123,-202 123,-196 123,-196 123,-168 123,-168 123,-162 129,-156 135,-156"/>
<text text-anchor="middle" x="176.5" y="-196.8" font-family="Helvetica,sans-Serif" font-weight="bold" font-size="9.00">node_modules</text>
</g>
<!-- baseline&#45;violations.d.ts -->
<g id="node1" class="node">
<title>baseline&#45;violations.d.ts</title>
<g id="a_node1"><a xlink:href="https://github.com/sverweij/dependency-cruiser/blob/develop/baseline-violations.d.ts" xlink:title="baseline&#45;violations.d.ts">
<path fill="#ddfeff" stroke="black" d="M418,-102C418,-102 320,-102 320,-102 317,-102 314,-99 314,-96 314,-96 314,-90 314,-90 314,-87 317,-84 320,-84 320,-84 418,-84 418,-84 421,-84 424,-87 424,-90 424,-90 424,-96 424,-96 424,-99 421,-102 418,-102"/>
<text text-anchor="middle" x="369" y="-90.8" font-family="Helvetica,sans-Serif" font-size="9.00">baseline&#45;violations.d.ts</text>
</a>
</g>
</g>
<!-- violations.d.ts -->
<g id="node2" class="node">
<title>violations.d.ts</title>
<g id="a_node2"><a xlink:href="https://github.com/sverweij/dependency-cruiser/blob/develop/violations.d.ts" xlink:title="violations.d.ts">
<path fill="#ddfeff" stroke="black" d="M505.5,-44C505.5,-44 445.5,-44 445.5,-44 442.5,-44 439.5,-41 439.5,-38 439.5,-38 439.5,-32 439.5,-32 439.5,-29 442.5,-26 445.5,-26 445.5,-26 505.5,-26 505.5,-26 508.5,-26 511.5,-29 511.5,-32 511.5,-32 511.5,-38 511.5,-38 511.5,-41 508.5,-44 505.5,-44"/>
<text text-anchor="middle" x="475.5" y="-32.8" font-family="Helvetica,sans-Serif" font-size="9.00">violations.d.ts</text>
</a>
</g>
</g>
<!-- baseline&#45;violations.d.ts&#45;&gt;violations.d.ts -->
<g id="edge1" class="edge">
<title>baseline&#45;violations.d.ts&#45;&gt;violations.d.ts</title>
<path fill="none" stroke="#000000" stroke-width="2" stroke-opacity="0.200000" d="M413,-83.52C413,-68.61 413,-41.33 413,-41.33 413,-41.33 433.14,-41.33 433.14,-41.33"/>
<polygon fill="#000000" fill-opacity="0.200000" stroke="#000000" stroke-width="2" stroke-opacity="0.200000" points="433.14,-43.43 439.14,-41.33 433.14,-39.23 433.14,-43.43"/>
</g>
<!-- rule&#45;summary.d.ts -->
<g id="node7" class="node">
<title>rule&#45;summary.d.ts</title>
<g id="a_node7"><a xlink:href="https://github.com/sverweij/dependency-cruiser/blob/develop/rule-summary.d.ts" xlink:title="rule&#45;summary.d.ts">
<path fill="#ddfeff" stroke="black" d="M610,-18C610,-18 533,-18 533,-18 530,-18 527,-15 527,-12 527,-12 527,-6 527,-6 527,-3 530,0 533,0 533,0 610,0 610,0 613,0 616,-3 616,-6 616,-6 616,-12 616,-12 616,-15 613,-18 610,-18"/>
<text text-anchor="middle" x="571.5" y="-6.8" font-family="Helvetica,sans-Serif" font-size="9.00">rule&#45;summary.d.ts</text>
</a>
</g>
</g>
<!-- violations.d.ts&#45;&gt;rule&#45;summary.d.ts -->
<g id="edge26" class="edge">
<title>violations.d.ts&#45;&gt;rule&#45;summary.d.ts</title>
<path fill="none" stroke="#000000" stroke-width="2" stroke-opacity="0.200000" d="M476,-25.91C476,-19.48 476,-12 476,-12 476,-12 520.83,-12 520.83,-12"/>
<polygon fill="#000000" fill-opacity="0.200000" stroke="#000000" stroke-width="2" stroke-opacity="0.200000" points="520.83,-14.1 526.83,-12 520.83,-9.9 520.83,-14.1"/>
</g>
<!-- shared&#45;types.d.ts -->
<g id="node8" class="node">
<title>shared&#45;types.d.ts</title>
<g id="a_node8"><a xlink:href="https://github.com/sverweij/dependency-cruiser/blob/develop/shared-types.d.ts" xlink:title="shared&#45;types.d.ts">
<path fill="#ddfeff" stroke="black" d="M709,-59C709,-59 635,-59 635,-59 632,-59 629,-56 629,-53 629,-53 629,-47 629,-47 629,-44 632,-41 635,-41 635,-41 709,-41 709,-41 712,-41 715,-44 715,-47 715,-47 715,-53 715,-53 715,-56 712,-59 709,-59"/>
<text text-anchor="middle" x="672" y="-47.8" font-family="Helvetica,sans-Serif" font-size="9.00">shared&#45;types.d.ts</text>
</a>
</g>
</g>
<!-- violations.d.ts&#45;&gt;shared&#45;types.d.ts -->
<g id="edge27" class="edge">
<title>violations.d.ts&#45;&gt;shared&#45;types.d.ts</title>
<path fill="none" stroke="#000000" stroke-width="2" stroke-opacity="0.200000" d="M458,-44.18C458,-44.76 458,-45.11 458,-45.11 458,-45.11 622.95,-45.11 622.95,-45.11"/>
<polygon fill="#000000" fill-opacity="0.200000" stroke="#000000" stroke-width="2" stroke-opacity="0.200000" points="622.95,-47.21 628.95,-45.11 622.95,-43.01 622.95,-47.21"/>
</g>
<!-- configuration.d.ts -->
<g id="node3" class="node">
<title>configuration.d.ts</title>
<g id="a_node3"><a xlink:href="https://github.com/sverweij/dependency-cruiser/blob/develop/configuration.d.ts" xlink:title="configuration.d.ts">
<path fill="#ddfeff" stroke="black" d="M213.5,-122C213.5,-122 139.5,-122 139.5,-122 136.5,-122 133.5,-119 133.5,-116 133.5,-116 133.5,-110 133.5,-110 133.5,-107 136.5,-104 139.5,-104 139.5,-104 213.5,-104 213.5,-104 216.5,-104 219.5,-107 219.5,-110 219.5,-110 219.5,-116 219.5,-116 219.5,-119 216.5,-122 213.5,-122"/>
<text text-anchor="middle" x="176.5" y="-110.8" font-family="Helvetica,sans-Serif" font-size="9.00">configuration.d.ts</text>
</a>
</g>
</g>
<!-- options.d.ts -->
<g id="node4" class="node">
<title>options.d.ts</title>
<g id="a_node4"><a xlink:href="https://github.com/sverweij/dependency-cruiser/blob/develop/options.d.ts" xlink:title="options.d.ts">
<path fill="#ddfeff" stroke="black" d="M295,-148C295,-148 244,-148 244,-148 241,-148 238,-145 238,-142 238,-142 238,-136 238,-136 238,-133 241,-130 244,-130 244,-130 295,-130 295,-130 298,-130 301,-133 301,-136 301,-136 301,-142 301,-142 301,-145 298,-148 295,-148"/>
<text text-anchor="middle" x="269.5" y="-136.8" font-family="Helvetica,sans-Serif" font-size="9.00">options.d.ts</text>
</a>
</g>
</g>
<!-- configuration.d.ts&#45;&gt;options.d.ts -->
<g id="edge2" class="edge">
<title>configuration.d.ts&#45;&gt;options.d.ts</title>
<path fill="none" stroke="#000000" stroke-width="2" stroke-opacity="0.200000" d="M219.54,-118C234.22,-118 247,-118 247,-118 247,-118 247,-123.97 247,-123.97"/>
<polygon fill="#000000" fill-opacity="0.200000" stroke="#000000" stroke-width="2" stroke-opacity="0.200000" points="244.9,-123.97 247,-129.97 249.1,-123.97 244.9,-123.97"/>
</g>
<!-- rule&#45;set.d.ts -->
<g id="node5" class="node">
<title>rule&#45;set.d.ts</title>
<g id="a_node5"><a xlink:href="https://github.com/sverweij/dependency-cruiser/blob/develop/rule-set.d.ts" xlink:title="rule&#45;set.d.ts">
<path fill="#ddfeff" stroke="black" d="M395,-72C395,-72 343,-72 343,-72 340,-72 337,-69 337,-66 337,-66 337,-60 337,-60 337,-57 340,-54 343,-54 343,-54 395,-54 395,-54 398,-54 401,-57 401,-60 401,-60 401,-66 401,-66 401,-69 398,-72 395,-72"/>
<text text-anchor="middle" x="369" y="-60.8" font-family="Helvetica,sans-Serif" font-size="9.00">rule&#45;set.d.ts</text>
</a>
</g>
</g>
<!-- configuration.d.ts&#45;&gt;rule&#45;set.d.ts -->
<g id="edge3" class="edge">
<title>configuration.d.ts&#45;&gt;rule&#45;set.d.ts</title>
<path fill="none" stroke="#000000" stroke-width="2" stroke-opacity="0.200000" d="M191,-103.83C191,-89.39 191,-63 191,-63 191,-63 330.77,-63 330.77,-63"/>
<polygon fill="#000000" fill-opacity="0.200000" stroke="#000000" stroke-width="2" stroke-opacity="0.200000" points="330.77,-65.1 336.77,-63 330.77,-60.9 330.77,-65.1"/>
</g>
<!-- options.d.ts&#45;&gt;baseline&#45;violations.d.ts -->
<g id="edge15" class="edge">
<title>options.d.ts&#45;&gt;baseline&#45;violations.d.ts</title>
<path fill="none" stroke="#000000" stroke-width="2" stroke-opacity="0.200000" d="M283,-129.9C283,-117.82 283,-98 283,-98 283,-98 307.56,-98 307.56,-98"/>
<polygon fill="#000000" fill-opacity="0.200000" stroke="#000000" stroke-width="2" stroke-opacity="0.200000" points="307.56,-100.1 313.56,-98 307.56,-95.9 307.56,-100.1"/>
</g>
<!-- options.d.ts&#45;&gt;rule&#45;set.d.ts -->
<g id="edge18" class="edge">
<title>options.d.ts&#45;&gt;rule&#45;set.d.ts</title>
<path fill="none" stroke="#000000" stroke-width="2" stroke-opacity="0.200000" d="M274,-129.94C274,-110.7 274,-67.5 274,-67.5 274,-67.5 330.84,-67.5 330.84,-67.5"/>
<polygon fill="#000000" fill-opacity="0.200000" stroke="#000000" stroke-width="2" stroke-opacity="0.200000" points="330.84,-69.6 336.84,-67.5 330.84,-65.4 330.84,-69.6"/>
</g>
<!-- options.d.ts&#45;&gt;shared&#45;types.d.ts -->
<g id="edge19" class="edge">
<title>options.d.ts&#45;&gt;shared&#45;types.d.ts</title>
<path fill="none" stroke="#000000" stroke-width="2" stroke-opacity="0.200000" d="M265,-129.88C265,-106.69 265,-47.33 265,-47.33 265,-47.33 622.83,-47.33 622.83,-47.33"/>
<polygon fill="#000000" fill-opacity="0.200000" stroke="#000000" stroke-width="2" stroke-opacity="0.200000" points="622.83,-49.43 628.83,-47.33 622.83,-45.23 622.83,-49.43"/>
</g>
<!-- filter&#45;types.d.ts -->
<g id="node10" class="node">
<title>filter&#45;types.d.ts</title>
<g id="a_node10"><a xlink:href="https://github.com/sverweij/dependency-cruiser/blob/develop/filter-types.d.ts" xlink:title="filter&#45;types.d.ts">
<path fill="#ddfeff" stroke="black" d="M507,-132C507,-132 444,-132 444,-132 441,-132 438,-129 438,-126 438,-126 438,-120 438,-120 438,-117 441,-114 444,-114 444,-114 507,-114 507,-114 510,-114 513,-117 513,-120 513,-120 513,-126 513,-126 513,-129 510,-132 507,-132"/>
<text text-anchor="middle" x="475.5" y="-120.8" font-family="Helvetica,sans-Serif" font-size="9.00">filter&#45;types.d.ts</text>
</a>
</g>
</g>
<!-- options.d.ts&#45;&gt;filter&#45;types.d.ts -->
<g id="edge16" class="edge">
<title>options.d.ts&#45;&gt;filter&#45;types.d.ts</title>
<path fill="none" stroke="#000000" stroke-width="2" stroke-opacity="0.200000" d="M301.31,-140C359.24,-140 476,-140 476,-140 476,-140 476,-138.3 476,-138.3"/>
<polygon fill="#000000" fill-opacity="0.200000" stroke="#000000" stroke-width="2" stroke-opacity="0.200000" points="478.1,-138.3 476,-132.3 473.9,-138.3 478.1,-138.3"/>
</g>
<!-- reporter&#45;options.d.ts -->
<g id="node13" class="node">
<title>reporter&#45;options.d.ts</title>
<g id="a_node13"><a xlink:href="https://github.com/sverweij/dependency-cruiser/blob/develop/reporter-options.d.ts" xlink:title="reporter&#45;options.d.ts">
<path fill="#ddfeff" stroke="black" d="M412,-132C412,-132 326,-132 326,-132 323,-132 320,-129 320,-126 320,-126 320,-120 320,-120 320,-117 323,-114 326,-114 326,-114 412,-114 412,-114 415,-114 418,-117 418,-120 418,-120 418,-126 418,-126 418,-129 415,-132 412,-132"/>
<text text-anchor="middle" x="369" y="-120.8" font-family="Helvetica,sans-Serif" font-size="9.00">reporter&#45;options.d.ts</text>
</a>
</g>
</g>
<!-- options.d.ts&#45;&gt;reporter&#45;options.d.ts -->
<g id="edge17" class="edge">
<title>options.d.ts&#45;&gt;reporter&#45;options.d.ts</title>
<path fill="none" stroke="#000000" stroke-width="2" stroke-opacity="0.200000" d="M292,-129.83C292,-127.68 292,-126 292,-126 292,-126 313.8,-126 313.8,-126"/>
<polygon fill="#000000" fill-opacity="0.200000" stroke="#000000" stroke-width="2" stroke-opacity="0.200000" points="313.8,-128.1 319.8,-126 313.8,-123.9 313.8,-128.1"/>
</g>
<!-- rule&#45;set.d.ts&#45;&gt;shared&#45;types.d.ts -->
<g id="edge24" class="edge">
<title>rule&#45;set.d.ts&#45;&gt;shared&#45;types.d.ts</title>
<path fill="none" stroke="#000000" stroke-width="2" stroke-opacity="0.200000" d="M380,-53.81C380,-51.45 380,-49.56 380,-49.56 380,-49.56 622.91,-49.56 622.91,-49.56"/>
<polygon fill="#000000" fill-opacity="0.200000" stroke="#000000" stroke-width="2" stroke-opacity="0.200000" points="622.91,-51.66 628.91,-49.56 622.91,-47.46 622.91,-51.66"/>
</g>
<!-- restrictions.d.ts -->
<g id="node15" class="node">
<title>restrictions.d.ts</title>
<g id="a_node15"><a xlink:href="https://github.com/sverweij/dependency-cruiser/blob/develop/restrictions.d.ts" xlink:title="restrictions.d.ts">
<path fill="#ddfeff" stroke="black" d="M508,-100C508,-100 443,-100 443,-100 440,-100 437,-97 437,-94 437,-94 437,-88 437,-88 437,-85 440,-82 443,-82 443,-82 508,-82 508,-82 511,-82 514,-85 514,-88 514,-88 514,-94 514,-94 514,-97 511,-100 508,-100"/>
<text text-anchor="middle" x="475.5" y="-88.8" font-family="Helvetica,sans-Serif" font-size="9.00">restrictions.d.ts</text>
</a>
</g>
</g>
<!-- rule&#45;set.d.ts&#45;&gt;restrictions.d.ts -->
<g id="edge23" class="edge">
<title>rule&#45;set.d.ts&#45;&gt;restrictions.d.ts</title>
<path fill="none" stroke="#000000" stroke-width="2" stroke-opacity="0.200000" d="M401.1,-65.5C432.62,-65.5 476,-65.5 476,-65.5 476,-65.5 476,-75.79 476,-75.79"/>
<polygon fill="#000000" fill-opacity="0.200000" stroke="#000000" stroke-width="2" stroke-opacity="0.200000" points="473.9,-75.79 476,-81.79 478.1,-75.79 473.9,-75.79"/>
</g>
<!-- cruise&#45;result.d.ts -->
<g id="node6" class="node">
<title>cruise&#45;result.d.ts</title>
<g id="a_node6"><a xlink:href="https://github.com/sverweij/dependency-cruiser/blob/develop/cruise-result.d.ts" xlink:title="cruise&#45;result.d.ts">
<path fill="#ddfeff" stroke="black" d="M212,-54C212,-54 141,-54 141,-54 138,-54 135,-51 135,-48 135,-48 135,-42 135,-42 135,-39 138,-36 141,-36 141,-36 212,-36 212,-36 215,-36 218,-39 218,-42 218,-42 218,-48 218,-48 218,-51 215,-54 212,-54"/>
<text text-anchor="middle" x="176.5" y="-42.8" font-family="Helvetica,sans-Serif" font-size="9.00">cruise&#45;result.d.ts</text>
</a>
</g>
</g>
<!-- cruise&#45;result.d.ts&#45;&gt;violations.d.ts -->
<g id="edge8" class="edge">
<title>cruise&#45;result.d.ts&#45;&gt;violations.d.ts</title>
<path fill="none" stroke="#000000" stroke-width="2" stroke-opacity="0.200000" d="M218.07,-38.67C218.07,-38.67 433.42,-38.67 433.42,-38.67"/>
<polygon fill="#000000" fill-opacity="0.200000" stroke="#000000" stroke-width="2" stroke-opacity="0.200000" points="433.42,-40.77 439.42,-38.67 433.42,-36.57 433.42,-40.77"/>
</g>
<!-- cruise&#45;result.d.ts&#45;&gt;options.d.ts -->
<g id="edge4" class="edge">
<title>cruise&#45;result.d.ts&#45;&gt;options.d.ts</title>
<path fill="none" stroke="#000000" stroke-width="2" stroke-opacity="0.200000" d="M218.11,-52.89C237.35,-52.89 256,-52.89 256,-52.89 256,-52.89 256,-123.78 256,-123.78"/>
<polygon fill="#000000" fill-opacity="0.200000" stroke="#000000" stroke-width="2" stroke-opacity="0.200000" points="253.9,-123.78 256,-129.78 258.1,-123.78 253.9,-123.78"/>
</g>
<!-- cruise&#45;result.d.ts&#45;&gt;rule&#45;set.d.ts -->
<g id="edge5" class="edge">
<title>cruise&#45;result.d.ts&#45;&gt;rule&#45;set.d.ts</title>
<path fill="none" stroke="#000000" stroke-width="2" stroke-opacity="0.200000" d="M218.37,-51.78C272.25,-51.78 359,-51.78 359,-51.78 359,-51.78 359,-51.99 359,-51.99"/>
<polygon fill="#000000" fill-opacity="0.200000" stroke="#000000" stroke-width="2" stroke-opacity="0.200000" points="356.9,-47.94 359,-53.94 361.1,-47.94 356.9,-47.94"/>
</g>
<!-- cruise&#45;result.d.ts&#45;&gt;rule&#45;summary.d.ts -->
<g id="edge6" class="edge">
<title>cruise&#45;result.d.ts&#45;&gt;rule&#45;summary.d.ts</title>
<path fill="none" stroke="#000000" stroke-width="2" stroke-opacity="0.200000" d="M177,-35.95C177,-24.43 177,-6 177,-6 177,-6 520.63,-6 520.63,-6"/>
<polygon fill="#000000" fill-opacity="0.200000" stroke="#000000" stroke-width="2" stroke-opacity="0.200000" points="520.63,-8.1 526.63,-6 520.63,-3.9 520.63,-8.1"/>
</g>
<!-- cruise&#45;result.d.ts&#45;&gt;shared&#45;types.d.ts -->
<g id="edge7" class="edge">
<title>cruise&#45;result.d.ts&#45;&gt;shared&#45;types.d.ts</title>
<path fill="none" stroke="#000000" stroke-width="2" stroke-opacity="0.200000" d="M218.32,-46.22C218.32,-46.22 622.71,-46.22 622.71,-46.22"/>
<polygon fill="#000000" fill-opacity="0.200000" stroke="#000000" stroke-width="2" stroke-opacity="0.200000" points="622.71,-48.32 628.71,-46.22 622.71,-44.12 622.71,-48.32"/>
</g>
<!-- rule&#45;summary.d.ts&#45;&gt;shared&#45;types.d.ts -->
<g id="edge25" class="edge">
<title>rule&#45;summary.d.ts&#45;&gt;shared&#45;types.d.ts</title>
<path fill="none" stroke="#000000" stroke-width="2" stroke-opacity="0.200000" d="M616.17,-9C643.01,-9 672,-9 672,-9 672,-9 672,-34.9 672,-34.9"/>
<polygon fill="#000000" fill-opacity="0.200000" stroke="#000000" stroke-width="2" stroke-opacity="0.200000" points="669.9,-34.9 672,-40.9 674.1,-34.9 669.9,-34.9"/>
</g>
<!-- dependency&#45;cruiser.d.ts -->
<g id="node9" class="node">
<title>dependency&#45;cruiser.d.ts</title>
<g id="a_node9"><a xlink:href="https://github.com/sverweij/dependency-cruiser/blob/develop/dependency-cruiser.d.ts" xlink:title="dependency&#45;cruiser.d.ts">
<path fill="#ddfeff" stroke="black" d="M109,-94C109,-94 6,-94 6,-94 3,-94 0,-91 0,-88 0,-88 0,-82 0,-82 0,-79 3,-76 6,-76 6,-76 109,-76 109,-76 112,-76 115,-79 115,-82 115,-82 115,-88 115,-88 115,-91 112,-94 109,-94"/>
<text text-anchor="middle" x="57.5" y="-82.8" font-family="Helvetica,sans-Serif" font-size="9.00">dependency&#45;cruiser.d.ts</text>
</a>
</g>
</g>
<!-- dependency&#45;cruiser.d.ts&#45;&gt;configuration.d.ts -->
<g id="edge9" class="edge">
<title>dependency&#45;cruiser.d.ts&#45;&gt;configuration.d.ts</title>
<path fill="none" stroke="#000000" stroke-width="2" stroke-opacity="0.200000" d="M112,-94.14C112,-101.97 112,-112 112,-112 112,-112 127.48,-112 127.48,-112"/>
<polygon fill="#000000" fill-opacity="0.200000" stroke="#000000" stroke-width="2" stroke-opacity="0.200000" points="127.48,-114.1 133.48,-112 127.48,-109.9 127.48,-114.1"/>
</g>
<!-- dependency&#45;cruiser.d.ts&#45;&gt;options.d.ts -->
<g id="edge11" class="edge">
<title>dependency&#45;cruiser.d.ts&#45;&gt;options.d.ts</title>
<path fill="none" stroke="#000000" stroke-width="2" stroke-opacity="0.200000" d="M109,-94.45C109,-108.69 109,-134 109,-134 109,-134 231.79,-134 231.79,-134"/>
<polygon fill="#000000" fill-opacity="0.200000" stroke="#000000" stroke-width="2" stroke-opacity="0.200000" points="231.79,-136.1 237.79,-134 231.79,-131.9 231.79,-136.1"/>
</g>
<!-- dependency&#45;cruiser.d.ts&#45;&gt;rule&#45;set.d.ts -->
<g id="edge12" class="edge">
<title>dependency&#45;cruiser.d.ts&#45;&gt;rule&#45;set.d.ts</title>
<path fill="none" stroke="#000000" stroke-width="2" stroke-opacity="0.200000" d="M58,-75.73C58,-68.09 58,-58.5 58,-58.5 58,-58.5 330.89,-58.5 330.89,-58.5"/>
<polygon fill="#000000" fill-opacity="0.200000" stroke="#000000" stroke-width="2" stroke-opacity="0.200000" points="330.89,-60.6 336.89,-58.5 330.89,-56.4 330.89,-60.6"/>
</g>
<!-- dependency&#45;cruiser.d.ts&#45;&gt;cruise&#45;result.d.ts -->
<g id="edge10" class="edge">
<title>dependency&#45;cruiser.d.ts&#45;&gt;cruise&#45;result.d.ts</title>
<path fill="none" stroke="#000000" stroke-width="2" stroke-opacity="0.200000" d="M115.19,-87.33C139.82,-87.33 163,-87.33 163,-87.33 163,-87.33 163,-60.4 163,-60.4"/>
<polygon fill="#000000" fill-opacity="0.200000" stroke="#000000" stroke-width="2" stroke-opacity="0.200000" points="165.1,-60.4 163,-54.4 160.9,-60.4 165.1,-60.4"/>
</g>
<!-- dependency&#45;cruiser.d.ts&#45;&gt;shared&#45;types.d.ts -->
<g id="edge13" class="edge">
<title>dependency&#45;cruiser.d.ts&#45;&gt;shared&#45;types.d.ts</title>
<path fill="none" stroke="#000000" stroke-width="2" stroke-opacity="0.200000" d="M115.28,-90.67C189.26,-90.67 308,-90.67 308,-90.67 308,-90.67 308,-48.44 308,-48.44 308,-48.44 622.82,-48.44 622.82,-48.44"/>
<polygon fill="#000000" fill-opacity="0.200000" stroke="#000000" stroke-width="2" stroke-opacity="0.200000" points="622.82,-50.54 628.82,-48.44 622.81,-46.34 622.82,-50.54"/>
</g>
<!-- filter&#45;types.d.ts&#45;&gt;shared&#45;types.d.ts -->
<g id="edge14" class="edge">
<title>filter&#45;types.d.ts&#45;&gt;shared&#45;types.d.ts</title>
<path fill="none" stroke="#000000" stroke-width="2" stroke-opacity="0.200000" d="M513.39,-123C570.49,-123 672,-123 672,-123 672,-123 672,-65.25 672,-65.25"/>
<polygon fill="#000000" fill-opacity="0.200000" stroke="#000000" stroke-width="2" stroke-opacity="0.200000" points="674.1,-65.25 672,-59.25 669.9,-65.25 674.1,-65.25"/>
</g>
<!-- init&#45;config.d.ts -->
<g id="node11" class="node">
<title>init&#45;config.d.ts</title>
<g id="a_node11"><a xlink:href="https://github.com/sverweij/dependency-cruiser/blob/develop/init-config.d.ts" xlink:title="init&#45;config.d.ts">
<path fill="#ccffcc" stroke="black" d="M88,-138C88,-138 27,-138 27,-138 24,-138 21,-135 21,-132 21,-132 21,-126 21,-126 21,-123 24,-120 27,-120 27,-120 88,-120 88,-120 91,-120 94,-123 94,-126 94,-126 94,-132 94,-132 94,-135 91,-138 88,-138"/>
<text text-anchor="middle" x="57.5" y="-126.8" font-family="Helvetica,sans-Serif" font-size="9.00">init&#45;config.d.ts</text>
</a>
</g>
</g>
<!-- node_modules/enhanced&#45;resolve -->
<g id="node12" class="node">
<title>node_modules/enhanced&#45;resolve</title>
<g id="a_node12"><a xlink:href="https://github.com/sverweij/dependency-cruiser/blob/develop/node_modules/enhanced-resolve" xlink:title="enhanced&#45;resolve">
<polygon fill="#c40b0a" fill-opacity="0.101961" stroke="black" points="222,-182 133,-182 131,-180 131,-164 220,-164 222,-166 222,-182"/>
<polyline fill="none" stroke="black" points="220,-180 131,-180 "/>
<polyline fill="none" stroke="black" points="220,-180 220,-164 "/>
<polyline fill="none" stroke="black" points="220,-180 222,-182 "/>
<text text-anchor="start" x="139" y="-170.8" font-family="Helvetica,sans-Serif" font-size="9.00" fill="#c40b0a">enhanced&#45;resolve</text>
</a>
</g>
</g>
<!-- reporter&#45;options.d.ts&#45;&gt;filter&#45;types.d.ts -->
<g id="edge20" class="edge">
<title>reporter&#45;options.d.ts&#45;&gt;filter&#45;types.d.ts</title>
<path fill="none" stroke="#000000" stroke-width="2" stroke-opacity="0.200000" d="M418.2,-123C418.2,-123 431.98,-123 431.98,-123"/>
<polygon fill="#000000" fill-opacity="0.200000" stroke="#000000" stroke-width="2" stroke-opacity="0.200000" points="431.98,-125.1 437.98,-123 431.98,-120.9 431.98,-125.1"/>
</g>
<!-- resolve&#45;options.d.ts -->
<g id="node14" class="node">
<title>resolve&#45;options.d.ts</title>
<g id="a_node14"><a xlink:href="https://github.com/sverweij/dependency-cruiser/blob/develop/resolve-options.d.ts" xlink:title="resolve&#45;options.d.ts">
<path fill="#ddfeff" stroke="black" d="M99.5,-182C99.5,-182 15.5,-182 15.5,-182 12.5,-182 9.5,-179 9.5,-176 9.5,-176 9.5,-170 9.5,-170 9.5,-167 12.5,-164 15.5,-164 15.5,-164 99.5,-164 99.5,-164 102.5,-164 105.5,-167 105.5,-170 105.5,-170 105.5,-176 105.5,-176 105.5,-179 102.5,-182 99.5,-182"/>
<text text-anchor="middle" x="57.5" y="-170.8" font-family="Helvetica,sans-Serif" font-size="9.00">resolve&#45;options.d.ts</text>
</a>
</g>
</g>
<!-- resolve&#45;options.d.ts&#45;&gt;node_modules/enhanced&#45;resolve -->
<g id="edge21" class="edge">
<title>resolve&#45;options.d.ts&#45;&gt;node_modules/enhanced&#45;resolve</title>
<path fill="none" stroke="#000000" stroke-opacity="0.200000" d="M105.56,-173C105.56,-173 124.96,-173 124.96,-173"/>
<polygon fill="#000000" fill-opacity="0.200000" stroke="#000000" stroke-opacity="0.200000" points="124.96,-175.1 130.96,-173 124.96,-170.9 124.96,-175.1"/>
</g>
<!-- restrictions.d.ts&#45;&gt;shared&#45;types.d.ts -->
<g id="edge22" class="edge">
<title>restrictions.d.ts&#45;&gt;shared&#45;types.d.ts</title>
<path fill="none" stroke="#000000" stroke-width="2" stroke-opacity="0.200000" d="M494,-81.65C494,-69.73 494,-50.67 494,-50.67 494,-50.67 622.91,-50.67 622.91,-50.67"/>
<polygon fill="#000000" fill-opacity="0.200000" stroke="#000000" stroke-width="2" stroke-opacity="0.200000" points="622.91,-52.77 628.91,-50.67 622.91,-48.57 622.91,-52.77"/>
</g>
</g>
</svg>
