<?xml version="1.0" encoding="UTF-8" standalone="no"?>
<!DOCTYPE svg PUBLIC "-//W3C//DTD SVG 1.1//EN"
 "http://www.w3.org/Graphics/SVG/1.1/DTD/svg11.dtd">
<!-- Generated by graphviz version 3.0.0 (20220226.1711)
 -->
<!-- Title: dependency&#45;cruiser output Pages: 1 -->
<svg width="756pt" height="262pt"
 viewBox="0.00 0.00 756.00 262.00" xmlns="http://www.w3.org/2000/svg" xmlns:xlink="http://www.w3.org/1999/xlink">
<g id="graph0" class="graph" transform="scale(1 1) rotate(0) translate(4 258)">
<title>dependency&#45;cruiser output</title>
<polygon fill="white" stroke="transparent" points="-4,4 -4,-258 752,-258 752,4 -4,4"/>
<g id="clust1" class="cluster">
<title>cluster_node_modules</title>
<path fill="#ffffff" stroke="black" stroke-width="2" d="M244,-8C244,-8 327,-8 327,-8 333,-8 339,-14 339,-20 339,-20 339,-48 339,-48 339,-54 333,-60 327,-60 327,-60 244,-60 244,-60 238,-60 232,-54 232,-48 232,-48 232,-20 232,-20 232,-14 238,-8 244,-8"/>
<text text-anchor="middle" x="285.5" y="-48.8" font-family="Helvetica,sans-Serif" font-weight="bold" font-size="9.00">node_modules</text>
</g>
<!-- baseline&#45;violations.d.ts -->
<g id="node1" class="node">
<title>baseline&#45;violations.d.ts</title>
<g id="a_node1"><a xlink:href="https://github.com/sverweij/dependency-cruiser/blob/develop/baseline-violations.d.ts" xlink:title="baseline&#45;violations.d.ts">
<path fill="#ddfeff" stroke="black" d="M451,-198C451,-198 353,-198 353,-198 350,-198 347,-195 347,-192 347,-192 347,-186 347,-186 347,-183 350,-180 353,-180 353,-180 451,-180 451,-180 454,-180 457,-183 457,-186 457,-186 457,-192 457,-192 457,-195 454,-198 451,-198"/>
<text text-anchor="middle" x="402" y="-186.8" font-family="Helvetica,sans-Serif" font-size="9.00">baseline&#45;violations.d.ts</text>
</a>
</g>
</g>
<!-- violations.d.ts -->
<g id="node2" class="node">
<title>violations.d.ts</title>
<g id="a_node2"><a xlink:href="https://github.com/sverweij/dependency-cruiser/blob/develop/violations.d.ts" xlink:title="violations.d.ts">
<path fill="#ddfeff" stroke="black" d="M538.5,-138C538.5,-138 478.5,-138 478.5,-138 475.5,-138 472.5,-135 472.5,-132 472.5,-132 472.5,-126 472.5,-126 472.5,-123 475.5,-120 478.5,-120 478.5,-120 538.5,-120 538.5,-120 541.5,-120 544.5,-123 544.5,-126 544.5,-126 544.5,-132 544.5,-132 544.5,-135 541.5,-138 538.5,-138"/>
<text text-anchor="middle" x="508.5" y="-126.8" font-family="Helvetica,sans-Serif" font-size="9.00">violations.d.ts</text>
</a>
</g>
</g>
<!-- baseline&#45;violations.d.ts&#45;&gt;violations.d.ts -->
<g id="edge1" class="edge">
<title>baseline&#45;violations.d.ts&#45;&gt;violations.d.ts</title>
<path fill="none" stroke="#000000" stroke-width="2" stroke-opacity="0.200000" d="M446,-179.59C446,-164.12 446,-135 446,-135 446,-135 466.14,-135 466.14,-135"/>
<polygon fill="#000000" fill-opacity="0.200000" stroke="#000000" stroke-width="2" stroke-opacity="0.200000" points="466.14,-137.1 472.14,-135 466.14,-132.9 466.14,-137.1"/>
</g>
<!-- rule&#45;summary.d.ts -->
<g id="node7" class="node">
<title>rule&#45;summary.d.ts</title>
<g id="a_node7"><a xlink:href="https://github.com/sverweij/dependency-cruiser/blob/develop/rule-summary.d.ts" xlink:title="rule&#45;summary.d.ts">
<path fill="#ddfeff" stroke="black" d="M643,-114C643,-114 566,-114 566,-114 563,-114 560,-111 560,-108 560,-108 560,-102 560,-102 560,-99 563,-96 566,-96 566,-96 643,-96 643,-96 646,-96 649,-99 649,-102 649,-102 649,-108 649,-108 649,-111 646,-114 643,-114"/>
<text text-anchor="middle" x="604.5" y="-102.8" font-family="Helvetica,sans-Serif" font-size="9.00">rule&#45;summary.d.ts</text>
</a>
</g>
</g>
<!-- violations.d.ts&#45;&gt;rule&#45;summary.d.ts -->
<g id="edge27" class="edge">
<title>violations.d.ts&#45;&gt;rule&#45;summary.d.ts</title>
<path fill="none" stroke="#000000" stroke-width="2" stroke-opacity="0.200000" d="M509,-119.97C509,-114.28 509,-108 509,-108 509,-108 553.83,-108 553.83,-108"/>
<polygon fill="#000000" fill-opacity="0.200000" stroke="#000000" stroke-width="2" stroke-opacity="0.200000" points="553.83,-110.1 559.83,-108 553.83,-105.9 553.83,-110.1"/>
</g>
<!-- shared&#45;types.d.ts -->
<g id="node8" class="node">
<title>shared&#45;types.d.ts</title>
<g id="a_node8"><a xlink:href="https://github.com/sverweij/dependency-cruiser/blob/develop/shared-types.d.ts" xlink:title="shared&#45;types.d.ts">
<path fill="#ddfeff" stroke="black" d="M742,-155C742,-155 668,-155 668,-155 665,-155 662,-152 662,-149 662,-149 662,-143 662,-143 662,-140 665,-137 668,-137 668,-137 742,-137 742,-137 745,-137 748,-140 748,-143 748,-143 748,-149 748,-149 748,-152 745,-155 742,-155"/>
<text text-anchor="middle" x="705" y="-143.8" font-family="Helvetica,sans-Serif" font-size="9.00">shared&#45;types.d.ts</text>
</a>
</g>
</g>
<!-- violations.d.ts&#45;&gt;shared&#45;types.d.ts -->
<g id="edge28" class="edge">
<title>violations.d.ts&#45;&gt;shared&#45;types.d.ts</title>
<path fill="none" stroke="#000000" stroke-width="2" stroke-opacity="0.200000" d="M521,-138.11C521,-139.12 521,-139.8 521,-139.8 521,-139.8 655.86,-139.8 655.86,-139.8"/>
<polygon fill="#000000" fill-opacity="0.200000" stroke="#000000" stroke-width="2" stroke-opacity="0.200000" points="655.86,-141.9 661.86,-139.8 655.86,-137.7 655.86,-141.9"/>
</g>
<!-- configuration.d.ts -->
<g id="node3" class="node">
<title>configuration.d.ts</title>
<g id="a_node3"><a xlink:href="https://github.com/sverweij/dependency-cruiser/blob/develop/configuration.d.ts" xlink:title="configuration.d.ts">
<path fill="#ddfeff" stroke="black" d="M213,-215C213,-215 139,-215 139,-215 136,-215 133,-212 133,-209 133,-209 133,-203 133,-203 133,-200 136,-197 139,-197 139,-197 213,-197 213,-197 216,-197 219,-200 219,-203 219,-203 219,-209 219,-209 219,-212 216,-215 213,-215"/>
<text text-anchor="middle" x="176" y="-203.8" font-family="Helvetica,sans-Serif" font-size="9.00">configuration.d.ts</text>
</a>
</g>
</g>
<!-- options.d.ts -->
<g id="node4" class="node">
<title>options.d.ts</title>
<g id="a_node4"><a xlink:href="https://github.com/sverweij/dependency-cruiser/blob/develop/options.d.ts" xlink:title="options.d.ts">
<path fill="#ddfeff" stroke="black" d="M311,-242C311,-242 260,-242 260,-242 257,-242 254,-239 254,-236 254,-236 254,-230 254,-230 254,-227 257,-224 260,-224 260,-224 311,-224 311,-224 314,-224 317,-227 317,-230 317,-230 317,-236 317,-236 317,-239 314,-242 311,-242"/>
<text text-anchor="middle" x="285.5" y="-230.8" font-family="Helvetica,sans-Serif" font-size="9.00">options.d.ts</text>
</a>
</g>
</g>
<!-- configuration.d.ts&#45;&gt;options.d.ts -->
<g id="edge2" class="edge">
<title>configuration.d.ts&#45;&gt;options.d.ts</title>
<path fill="none" stroke="#000000" stroke-width="2" stroke-opacity="0.200000" d="M219.2,-206.5C241.87,-206.5 265,-206.5 265,-206.5 265,-206.5 265,-217.73 265,-217.73"/>
<polygon fill="#000000" fill-opacity="0.200000" stroke="#000000" stroke-width="2" stroke-opacity="0.200000" points="262.9,-217.73 265,-223.73 267.1,-217.73 262.9,-217.73"/>
</g>
<!-- rule&#45;set.d.ts -->
<g id="node5" class="node">
<title>rule&#45;set.d.ts</title>
<g id="a_node5"><a xlink:href="https://github.com/sverweij/dependency-cruiser/blob/develop/rule-set.d.ts" xlink:title="rule&#45;set.d.ts">
<path fill="#ddfeff" stroke="black" d="M428,-168C428,-168 376,-168 376,-168 373,-168 370,-165 370,-162 370,-162 370,-156 370,-156 370,-153 373,-150 376,-150 376,-150 428,-150 428,-150 431,-150 434,-153 434,-156 434,-156 434,-162 434,-162 434,-165 431,-168 428,-168"/>
<text text-anchor="middle" x="402" y="-156.8" font-family="Helvetica,sans-Serif" font-size="9.00">rule&#45;set.d.ts</text>
</a>
</g>
</g>
<!-- configuration.d.ts&#45;&gt;rule&#45;set.d.ts -->
<g id="edge3" class="edge">
<title>configuration.d.ts&#45;&gt;rule&#45;set.d.ts</title>
<path fill="none" stroke="#000000" stroke-width="2" stroke-opacity="0.200000" d="M190,-196.95C190,-184.43 190,-163.33 190,-163.33 190,-163.33 363.8,-163.33 363.8,-163.33"/>
<polygon fill="#000000" fill-opacity="0.200000" stroke="#000000" stroke-width="2" stroke-opacity="0.200000" points="363.8,-165.43 369.8,-163.33 363.8,-161.23 363.8,-165.43"/>
</g>
<!-- options.d.ts&#45;&gt;baseline&#45;violations.d.ts -->
<g id="edge16" class="edge">
<title>options.d.ts&#45;&gt;baseline&#45;violations.d.ts</title>
<path fill="none" stroke="#000000" stroke-width="2" stroke-opacity="0.200000" d="M307,-223.99C307,-211.51 307,-190.5 307,-190.5 307,-190.5 340.74,-190.5 340.74,-190.5"/>
<polygon fill="#000000" fill-opacity="0.200000" stroke="#000000" stroke-width="2" stroke-opacity="0.200000" points="340.74,-192.6 346.74,-190.5 340.74,-188.4 340.74,-192.6"/>
</g>
<!-- options.d.ts&#45;&gt;rule&#45;set.d.ts -->
<g id="edge19" class="edge">
<title>options.d.ts&#45;&gt;rule&#45;set.d.ts</title>
<path fill="none" stroke="#000000" stroke-width="2" stroke-opacity="0.200000" d="M296,-223.92C296,-205.54 296,-165.67 296,-165.67 296,-165.67 363.91,-165.67 363.91,-165.67"/>
<polygon fill="#000000" fill-opacity="0.200000" stroke="#000000" stroke-width="2" stroke-opacity="0.200000" points="363.91,-167.77 369.91,-165.67 363.91,-163.57 363.91,-167.77"/>
</g>
<!-- options.d.ts&#45;&gt;shared&#45;types.d.ts -->
<g id="edge20" class="edge">
<title>options.d.ts&#45;&gt;shared&#45;types.d.ts</title>
<path fill="none" stroke="#000000" stroke-width="2" stroke-opacity="0.200000" d="M286,-223.84C286,-201.18 286,-144.3 286,-144.3 286,-144.3 655.74,-144.3 655.74,-144.3"/>
<polygon fill="#000000" fill-opacity="0.200000" stroke="#000000" stroke-width="2" stroke-opacity="0.200000" points="655.74,-146.4 661.74,-144.3 655.74,-142.2 655.74,-146.4"/>
</g>
<!-- filter&#45;types.d.ts -->
<g id="node11" class="node">
<title>filter&#45;types.d.ts</title>
<g id="a_node11"><a xlink:href="https://github.com/sverweij/dependency-cruiser/blob/develop/filter-types.d.ts" xlink:title="filter&#45;types.d.ts">
<path fill="#ddfeff" stroke="black" d="M540,-254C540,-254 477,-254 477,-254 474,-254 471,-251 471,-248 471,-248 471,-242 471,-242 471,-239 474,-236 477,-236 477,-236 540,-236 540,-236 543,-236 546,-239 546,-242 546,-242 546,-248 546,-248 546,-251 543,-254 540,-254"/>
<text text-anchor="middle" x="508.5" y="-242.8" font-family="Helvetica,sans-Serif" font-size="9.00">filter&#45;types.d.ts</text>
</a>
</g>
</g>
<!-- options.d.ts&#45;&gt;filter&#45;types.d.ts -->
<g id="edge17" class="edge">
<title>options.d.ts&#45;&gt;filter&#45;types.d.ts</title>
<path fill="none" stroke="#000000" stroke-width="2" stroke-opacity="0.200000" d="M317.05,-230C378.66,-230 509,-230 509,-230 509,-230 509,-230.58 509,-230.58"/>
<polygon fill="#000000" fill-opacity="0.200000" stroke="#000000" stroke-width="2" stroke-opacity="0.200000" points="506.9,-229.76 509,-235.76 511.1,-229.76 506.9,-229.76"/>
</g>
<!-- reporter&#45;options.d.ts -->
<g id="node14" class="node">
<title>reporter&#45;options.d.ts</title>
<g id="a_node14"><a xlink:href="https://github.com/sverweij/dependency-cruiser/blob/develop/reporter-options.d.ts" xlink:title="reporter&#45;options.d.ts">
<path fill="#ddfeff" stroke="black" d="M445,-254C445,-254 359,-254 359,-254 356,-254 353,-251 353,-248 353,-248 353,-242 353,-242 353,-239 356,-236 359,-236 359,-236 445,-236 445,-236 448,-236 451,-239 451,-242 451,-242 451,-248 451,-248 451,-251 448,-254 445,-254"/>
<text text-anchor="middle" x="402" y="-242.8" font-family="Helvetica,sans-Serif" font-size="9.00">reporter&#45;options.d.ts</text>
</a>
</g>
</g>
<!-- options.d.ts&#45;&gt;reporter&#45;options.d.ts -->
<g id="edge18" class="edge">
<title>options.d.ts&#45;&gt;reporter&#45;options.d.ts</title>
<path fill="none" stroke="#000000" stroke-width="2" stroke-opacity="0.200000" d="M286,-242.24C286,-245.33 286,-248 286,-248 286,-248 346.81,-248 346.81,-248"/>
<polygon fill="#000000" fill-opacity="0.200000" stroke="#000000" stroke-width="2" stroke-opacity="0.200000" points="346.81,-250.1 352.81,-248 346.81,-245.9 346.81,-250.1"/>
</g>
<!-- rule&#45;set.d.ts&#45;&gt;shared&#45;types.d.ts -->
<g id="edge25" class="edge">
<title>rule&#45;set.d.ts&#45;&gt;shared&#45;types.d.ts</title>
<path fill="none" stroke="#000000" stroke-width="2" stroke-opacity="0.200000" d="M413,-149.87C413,-147.31 413,-145.2 413,-145.2 413,-145.2 655.91,-145.2 655.91,-145.2"/>
<polygon fill="#000000" fill-opacity="0.200000" stroke="#000000" stroke-width="2" stroke-opacity="0.200000" points="655.91,-147.3 661.91,-145.2 655.91,-143.1 655.91,-147.3"/>
</g>
<!-- restrictions.d.ts -->
<g id="node15" class="node">
<title>restrictions.d.ts</title>
<g id="a_node15"><a xlink:href="https://github.com/sverweij/dependency-cruiser/blob/develop/restrictions.d.ts" xlink:title="restrictions.d.ts">
<path fill="#ddfeff" stroke="black" d="M541,-168C541,-168 476,-168 476,-168 473,-168 470,-165 470,-162 470,-162 470,-156 470,-156 470,-153 473,-150 476,-150 476,-150 541,-150 541,-150 544,-150 547,-153 547,-156 547,-156 547,-162 547,-162 547,-165 544,-168 541,-168"/>
<text text-anchor="middle" x="508.5" y="-156.8" font-family="Helvetica,sans-Serif" font-size="9.00">restrictions.d.ts</text>
</a>
</g>
</g>
<!-- rule&#45;set.d.ts&#45;&gt;restrictions.d.ts -->
<g id="edge24" class="edge">
<title>rule&#45;set.d.ts&#45;&gt;restrictions.d.ts</title>
<path fill="none" stroke="#000000" stroke-width="2" stroke-opacity="0.200000" d="M434.24,-159C434.24,-159 463.99,-159 463.99,-159"/>
<polygon fill="#000000" fill-opacity="0.200000" stroke="#000000" stroke-width="2" stroke-opacity="0.200000" points="463.99,-161.1 469.99,-159 463.99,-156.9 463.99,-161.1"/>
</g>
<!-- cruise&#45;result.d.ts -->
<g id="node6" class="node">
<title>cruise&#45;result.d.ts</title>
<g id="a_node6"><a xlink:href="https://github.com/sverweij/dependency-cruiser/blob/develop/cruise-result.d.ts" xlink:title="cruise&#45;result.d.ts">
<path fill="#ddfeff" stroke="black" d="M211.5,-147C211.5,-147 140.5,-147 140.5,-147 137.5,-147 134.5,-144 134.5,-141 134.5,-141 134.5,-135 134.5,-135 134.5,-132 137.5,-129 140.5,-129 140.5,-129 211.5,-129 211.5,-129 214.5,-129 217.5,-132 217.5,-135 217.5,-135 217.5,-141 217.5,-141 217.5,-144 214.5,-147 211.5,-147"/>
<text text-anchor="middle" x="176" y="-135.8" font-family="Helvetica,sans-Serif" font-size="9.00">cruise&#45;result.d.ts</text>
</a>
</g>
</g>
<!-- cruise&#45;result.d.ts&#45;&gt;violations.d.ts -->
<g id="edge8" class="edge">
<title>cruise&#45;result.d.ts&#45;&gt;violations.d.ts</title>
<path fill="none" stroke="#000000" stroke-width="2" stroke-opacity="0.200000" d="M217.77,-132C217.77,-132 466.24,-132 466.24,-132"/>
<polygon fill="#000000" fill-opacity="0.200000" stroke="#000000" stroke-width="2" stroke-opacity="0.200000" points="466.24,-134.1 472.24,-132 466.24,-129.9 466.24,-134.1"/>
</g>
<!-- cruise&#45;result.d.ts&#45;&gt;options.d.ts -->
<g id="edge4" class="edge">
<title>cruise&#45;result.d.ts&#45;&gt;options.d.ts</title>
<path fill="none" stroke="#000000" stroke-width="2" stroke-opacity="0.200000" d="M217.7,-143.4C244.75,-143.4 275,-143.4 275,-143.4 275,-143.4 275,-217.75 275,-217.75"/>
<polygon fill="#000000" fill-opacity="0.200000" stroke="#000000" stroke-width="2" stroke-opacity="0.200000" points="272.9,-217.75 275,-223.75 277.1,-217.75 272.9,-217.75"/>
</g>
<!-- cruise&#45;result.d.ts&#45;&gt;rule&#45;set.d.ts -->
<g id="edge5" class="edge">
<title>cruise&#45;result.d.ts&#45;&gt;rule&#45;set.d.ts</title>
<path fill="none" stroke="#000000" stroke-width="2" stroke-opacity="0.200000" d="M217.65,-142.5C280.41,-142.5 392,-142.5 392,-142.5 392,-142.5 392,-143.98 392,-143.98"/>
<polygon fill="#000000" fill-opacity="0.200000" stroke="#000000" stroke-width="2" stroke-opacity="0.200000" points="389.9,-143.98 392,-149.98 394.1,-143.98 389.9,-143.98"/>
</g>
<!-- cruise&#45;result.d.ts&#45;&gt;rule&#45;summary.d.ts -->
<g id="edge6" class="edge">
<title>cruise&#45;result.d.ts&#45;&gt;rule&#45;summary.d.ts</title>
<path fill="none" stroke="#000000" stroke-width="2" stroke-opacity="0.200000" d="M176,-128.92C176,-118.25 176,-102 176,-102 176,-102 553.86,-102 553.86,-102"/>
<polygon fill="#000000" fill-opacity="0.200000" stroke="#000000" stroke-width="2" stroke-opacity="0.200000" points="553.86,-104.1 559.86,-102 553.86,-99.9 553.86,-104.1"/>
</g>
<!-- cruise&#45;result.d.ts&#45;&gt;shared&#45;types.d.ts -->
<g id="edge7" class="edge">
<title>cruise&#45;result.d.ts&#45;&gt;shared&#45;types.d.ts</title>
<path fill="none" stroke="#000000" stroke-width="2" stroke-opacity="0.200000" d="M217.51,-140.7C217.51,-140.7 655.84,-140.7 655.84,-140.7"/>
<polygon fill="#000000" fill-opacity="0.200000" stroke="#000000" stroke-width="2" stroke-opacity="0.200000" points="655.84,-142.8 661.84,-140.7 655.84,-138.6 655.84,-142.8"/>
</g>
<!-- rule&#45;summary.d.ts&#45;&gt;shared&#45;types.d.ts -->
<g id="edge26" class="edge">
<title>rule&#45;summary.d.ts&#45;&gt;shared&#45;types.d.ts</title>
<path fill="none" stroke="#000000" stroke-width="2" stroke-opacity="0.200000" d="M605,-114.26C605,-124.3 605,-138.9 605,-138.9 605,-138.9 655.72,-138.9 655.72,-138.9"/>
<polygon fill="#000000" fill-opacity="0.200000" stroke="#000000" stroke-width="2" stroke-opacity="0.200000" points="655.72,-141 661.72,-138.9 655.72,-136.8 655.72,-141"/>
</g>
<!-- dependency&#45;cruiser.d.ts -->
<g id="node9" class="node">
<title>dependency&#45;cruiser.d.ts</title>
<g id="a_node9"><a xlink:href="https://github.com/sverweij/dependency-cruiser/blob/develop/dependency-cruiser.d.ts" xlink:title="dependency&#45;cruiser.d.ts">
<path fill="#ddfeff" stroke="black" d="M109,-172C109,-172 6,-172 6,-172 3,-172 0,-169 0,-166 0,-166 0,-160 0,-160 0,-157 3,-154 6,-154 6,-154 109,-154 109,-154 112,-154 115,-157 115,-160 115,-160 115,-166 115,-166 115,-169 112,-172 109,-172"/>
<text text-anchor="middle" x="57.5" y="-160.8" font-family="Helvetica,sans-Serif" font-size="9.00">dependency&#45;cruiser.d.ts</text>
</a>
</g>
</g>
<!-- dependency&#45;cruiser.d.ts&#45;&gt;configuration.d.ts -->
<g id="edge9" class="edge">
<title>dependency&#45;cruiser.d.ts&#45;&gt;configuration.d.ts</title>
<path fill="none" stroke="#000000" stroke-width="2" stroke-opacity="0.200000" d="M108,-172.21C108,-185.5 108,-208.5 108,-208.5 108,-208.5 126.93,-208.5 126.93,-208.5"/>
<polygon fill="#000000" fill-opacity="0.200000" stroke="#000000" stroke-width="2" stroke-opacity="0.200000" points="126.93,-210.6 132.93,-208.5 126.93,-206.4 126.93,-210.6"/>
</g>
<!-- dependency&#45;cruiser.d.ts&#45;&gt;options.d.ts -->
<g id="edge11" class="edge">
<title>dependency&#45;cruiser.d.ts&#45;&gt;options.d.ts</title>
<path fill="none" stroke="#000000" stroke-width="2" stroke-opacity="0.200000" d="M101,-172.15C101,-191.13 101,-233 101,-233 101,-233 247.78,-233 247.78,-233"/>
<polygon fill="#000000" fill-opacity="0.200000" stroke="#000000" stroke-width="2" stroke-opacity="0.200000" points="247.78,-235.1 253.78,-233 247.78,-230.9 247.78,-235.1"/>
</g>
<!-- dependency&#45;cruiser.d.ts&#45;&gt;rule&#45;set.d.ts -->
<g id="edge13" class="edge">
<title>dependency&#45;cruiser.d.ts&#45;&gt;rule&#45;set.d.ts</title>
<path fill="none" stroke="#000000" stroke-width="2" stroke-opacity="0.200000" d="M115.16,-161C115.16,-161 363.61,-161 363.61,-161"/>
<polygon fill="#000000" fill-opacity="0.200000" stroke="#000000" stroke-width="2" stroke-opacity="0.200000" points="363.61,-163.1 369.61,-161 363.61,-158.9 363.61,-163.1"/>
</g>
<!-- dependency&#45;cruiser.d.ts&#45;&gt;cruise&#45;result.d.ts -->
<g id="edge10" class="edge">
<title>dependency&#45;cruiser.d.ts&#45;&gt;cruise&#45;result.d.ts</title>
<path fill="none" stroke="#000000" stroke-width="2" stroke-opacity="0.200000" d="M115.19,-156.33C139.82,-156.33 163,-156.33 163,-156.33 163,-156.33 163,-153.17 163,-153.17"/>
<polygon fill="#000000" fill-opacity="0.200000" stroke="#000000" stroke-width="2" stroke-opacity="0.200000" points="165.1,-153.17 163,-147.17 160.9,-153.17 165.1,-153.17"/>
</g>
<!-- dependency&#45;cruiser.d.ts&#45;&gt;shared&#45;types.d.ts -->
<g id="edge14" class="edge">
<title>dependency&#45;cruiser.d.ts&#45;&gt;shared&#45;types.d.ts</title>
<path fill="none" stroke="#000000" stroke-width="2" stroke-opacity="0.200000" d="M115.12,-158.67C165.95,-158.67 232,-158.67 232,-158.67 232,-158.67 232,-141.6 232,-141.6 232,-141.6 655.77,-141.6 655.77,-141.6"/>
<polygon fill="#000000" fill-opacity="0.200000" stroke="#000000" stroke-width="2" stroke-opacity="0.200000" points="655.77,-143.7 661.77,-141.6 655.77,-139.5 655.77,-143.7"/>
</g>
<!-- resolve&#45;options.d.ts -->
<g id="node10" class="node">
<title>resolve&#45;options.d.ts</title>
<g id="a_node10"><a xlink:href="https://github.com/sverweij/dependency-cruiser/blob/develop/resolve-options.d.ts" xlink:title="resolve&#45;options.d.ts">
<path fill="#ddfeff" stroke="black" d="M218,-75C218,-75 134,-75 134,-75 131,-75 128,-72 128,-69 128,-69 128,-63 128,-63 128,-60 131,-57 134,-57 134,-57 218,-57 218,-57 221,-57 224,-60 224,-63 224,-63 224,-69 224,-69 224,-72 221,-75 218,-75"/>
<text text-anchor="middle" x="176" y="-63.8" font-family="Helvetica,sans-Serif" font-size="9.00">resolve&#45;options.d.ts</text>
</a>
</g>
</g>
<!-- dependency&#45;cruiser.d.ts&#45;&gt;resolve&#45;options.d.ts -->
<g id="edge12" class="edge">
<title>dependency&#45;cruiser.d.ts&#45;&gt;resolve&#45;options.d.ts</title>
<path fill="none" stroke="#000000" stroke-width="2" stroke-opacity="0.200000" d="M58,-153.7C58,-129.42 58,-66 58,-66 58,-66 121.66,-66 121.66,-66"/>
<polygon fill="#000000" fill-opacity="0.200000" stroke="#000000" stroke-width="2" stroke-opacity="0.200000" points="121.66,-68.1 127.66,-66 121.66,-63.9 121.66,-68.1"/>
</g>
<!-- node_modules/enhanced&#45;resolve -->
<g id="node13" class="node">
<title>node_modules/enhanced&#45;resolve</title>
<g id="a_node13"><a xlink:href="https://github.com/sverweij/dependency-cruiser/blob/develop/node_modules/enhanced-resolve" xlink:title="enhanced&#45;resolve">
<polygon fill="#c40b0a" fill-opacity="0.101961" stroke="black" points="331,-34 242,-34 240,-32 240,-16 329,-16 331,-18 331,-34"/>
<polyline fill="none" stroke="black" points="329,-32 240,-32 "/>
<polyline fill="none" stroke="black" points="329,-32 329,-16 "/>
<polyline fill="none" stroke="black" points="329,-32 331,-34 "/>
<text text-anchor="start" x="248" y="-22.8" font-family="Helvetica,sans-Serif" font-size="9.00" fill="#c40b0a">enhanced&#45;resolve</text>
</a>
</g>
</g>
<!-- resolve&#45;options.d.ts&#45;&gt;node_modules/enhanced&#45;resolve -->
<g id="edge22" class="edge">
<title>resolve&#45;options.d.ts&#45;&gt;node_modules/enhanced&#45;resolve</title>
<path fill="none" stroke="#000000" stroke-opacity="0.200000" d="M224.14,-66C236.81,-66 247,-66 247,-66 247,-66 247,-40.1 247,-40.1"/>
<polygon fill="#000000" fill-opacity="0.200000" stroke="#000000" stroke-opacity="0.200000" points="249.1,-40.1 247,-34.1 244.9,-40.1 249.1,-40.1"/>
</g>
<!-- filter&#45;types.d.ts&#45;&gt;shared&#45;types.d.ts -->
<g id="edge15" class="edge">
<title>filter&#45;types.d.ts&#45;&gt;shared&#45;types.d.ts</title>
<path fill="none" stroke="#000000" stroke-width="2" stroke-opacity="0.200000" d="M546.39,-245C603.49,-245 705,-245 705,-245 705,-245 705,-161.14 705,-161.14"/>
<polygon fill="#000000" fill-opacity="0.200000" stroke="#000000" stroke-width="2" stroke-opacity="0.200000" points="707.1,-161.14 705,-155.14 702.9,-161.14 707.1,-161.14"/>
</g>
<!-- init&#45;config.d.ts -->
<g id="node12" class="node">
<title>init&#45;config.d.ts</title>
<g id="a_node12"><a xlink:href="https://github.com/sverweij/dependency-cruiser/blob/develop/init-config.d.ts" xlink:title="init&#45;config.d.ts">
<path fill="#ccffcc" stroke="black" d="M88,-202C88,-202 27,-202 27,-202 24,-202 21,-199 21,-196 21,-196 21,-190 21,-190 21,-187 24,-184 27,-184 27,-184 88,-184 88,-184 91,-184 94,-187 94,-190 94,-190 94,-196 94,-196 94,-199 91,-202 88,-202"/>
<text text-anchor="middle" x="57.5" y="-190.8" font-family="Helvetica,sans-Serif" font-size="9.00">init&#45;config.d.ts</text>
</a>
</g>
</g>
<!-- reporter&#45;options.d.ts&#45;&gt;filter&#45;types.d.ts -->
<g id="edge21" class="edge">
<title>reporter&#45;options.d.ts&#45;&gt;filter&#45;types.d.ts</title>
<path fill="none" stroke="#000000" stroke-width="2" stroke-opacity="0.200000" d="M451.2,-245C451.2,-245 464.98,-245 464.98,-245"/>
<polygon fill="#000000" fill-opacity="0.200000" stroke="#000000" stroke-width="2" stroke-opacity="0.200000" points="464.98,-247.1 470.98,-245 464.98,-242.9 464.98,-247.1"/>
</g>
<!-- restrictions.d.ts&#45;&gt;shared&#45;types.d.ts -->
<g id="edge23" class="edge">
<title>restrictions.d.ts&#45;&gt;shared&#45;types.d.ts</title>
<path fill="none" stroke="#000000" stroke-width="2" stroke-opacity="0.200000" d="M497,-149.9C497,-147.77 497,-146.1 497,-146.1 497,-146.1 655.9,-146.1 655.9,-146.1"/>
<polygon fill="#000000" fill-opacity="0.200000" stroke="#000000" stroke-width="2" stroke-opacity="0.200000" points="655.9,-148.2 661.9,-146.1 655.9,-144 655.9,-148.2"/>
</g>
</g>
</svg>
