<?xml version="1.0" encoding="UTF-8" standalone="no"?>
<!DOCTYPE svg PUBLIC "-//W3C//DTD SVG 1.1//EN"
 "http://www.w3.org/Graphics/SVG/1.1/DTD/svg11.dtd">
<!-- Generated by graphviz version 2.48.0 (20210717.1556)
 -->
<!-- Title: dependency&#45;cruiser output Pages: 1 -->
<svg width="623pt" height="306pt"
 viewBox="0.00 0.00 623.00 306.00" xmlns="http://www.w3.org/2000/svg" xmlns:xlink="http://www.w3.org/1999/xlink">
<g id="graph0" class="graph" transform="scale(1 1) rotate(0) translate(4 302)">
<title>dependency&#45;cruiser output</title>
<polygon fill="white" stroke="transparent" points="-4,4 -4,-302 619,-302 619,4 -4,4"/>
<g id="clust1" class="cluster">
<title>cluster_..</title>
<path fill="#ffffff" stroke="black" stroke-width="2" d="M132,-8C132,-8 233,-8 233,-8 239,-8 245,-14 245,-20 245,-20 245,-150 245,-150 245,-156 239,-162 233,-162 233,-162 132,-162 132,-162 126,-162 120,-156 120,-150 120,-150 120,-20 120,-20 120,-14 126,-8 132,-8"/>
<text text-anchor="middle" x="182.5" y="-150.8" font-family="Helvetica,sans-Serif" font-weight="bold" font-size="9.00">..</text>
</g>
<g id="clust2" class="cluster">
<title>cluster_../node_modules</title>
<path fill="#ffffff" stroke="black" stroke-width="2" d="M140,-16C140,-16 225,-16 225,-16 231,-16 237,-22 237,-28 237,-28 237,-124 237,-124 237,-130 231,-136 225,-136 225,-136 140,-136 140,-136 134,-136 128,-130 128,-124 128,-124 128,-28 128,-28 128,-22 134,-16 140,-16"/>
<text text-anchor="middle" x="182.5" y="-124.8" font-family="Helvetica,sans-Serif" font-weight="bold" font-size="9.00">node_modules</text>
</g>
<g id="clust3" class="cluster">
<title>cluster_../node_modules/enhanced&#45;resolve</title>
<path fill="#ffffff" stroke="black" stroke-width="2" d="M148,-24C148,-24 217,-24 217,-24 223,-24 229,-30 229,-36 229,-36 229,-98 229,-98 229,-104 223,-110 217,-110 217,-110 148,-110 148,-110 142,-110 136,-104 136,-98 136,-98 136,-36 136,-36 136,-30 142,-24 148,-24"/>
<text text-anchor="middle" x="182.5" y="-98.8" font-family="Helvetica,sans-Serif" font-weight="bold" font-size="9.00">enhanced&#45;resolve</text>
</g>
<g id="clust4" class="cluster">
<title>cluster_../node_modules/enhanced&#45;resolve/lib</title>
<path fill="#ffffff" stroke="black" stroke-width="2" d="M159,-32C159,-32 205,-32 205,-32 211,-32 217,-38 217,-44 217,-44 217,-72 217,-72 217,-78 211,-84 205,-84 205,-84 159,-84 159,-84 153,-84 147,-78 147,-72 147,-72 147,-44 147,-44 147,-38 153,-32 159,-32"/>
<text text-anchor="middle" x="182" y="-72.8" font-family="Helvetica,sans-Serif" font-weight="bold" font-size="9.00">lib</text>
</g>
<!-- ../node_modules/enhanced&#45;resolve/lib/index.js -->
<g id="node1" class="node">
<title>../node_modules/enhanced&#45;resolve/lib/index.js</title>
<g id="a_node1"><a xlink:href="https://github.com/sverweij/dependency-cruiser/blob/develop/../node_modules/enhanced-resolve/lib/index.js" xlink:title="index.js">
<polygon fill="#c40b0a" fill-opacity="0.101961" stroke="black" points="209,-58 207.5,-60 197,-60 195.5,-58 155,-58 155,-40 209,-40 209,-58"/>
<text text-anchor="middle" x="182" y="-46.8" font-family="Helvetica,sans-Serif" font-size="9.00" fill="#c40b0a">index.js</text>
</a>
</g>
</g>
<!-- configuration.d.ts -->
<g id="node2" class="node">
<title>configuration.d.ts</title>
<g id="a_node2"><a xlink:href="https://github.com/sverweij/dependency-cruiser/blob/develop/configuration.d.ts" xlink:title="configuration.d.ts">
<path fill="#ddfeff" stroke="black" d="M218.5,-244C218.5,-244 145.5,-244 145.5,-244 142.5,-244 139.5,-241 139.5,-238 139.5,-238 139.5,-232 139.5,-232 139.5,-229 142.5,-226 145.5,-226 145.5,-226 218.5,-226 218.5,-226 221.5,-226 224.5,-229 224.5,-232 224.5,-232 224.5,-238 224.5,-238 224.5,-241 221.5,-244 218.5,-244"/>
<text text-anchor="middle" x="182" y="-232.8" font-family="Helvetica,sans-Serif" font-size="9.00">configuration.d.ts</text>
</a>
</g>
</g>
<!-- options.d.ts -->
<g id="node3" class="node">
<title>options.d.ts</title>
<g id="a_node3"><a xlink:href="https://github.com/sverweij/dependency-cruiser/blob/develop/options.d.ts" xlink:title="options.d.ts">
<path fill="#ddfeff" stroke="black" d="M310,-270C310,-270 259,-270 259,-270 256,-270 253,-267 253,-264 253,-264 253,-258 253,-258 253,-255 256,-252 259,-252 259,-252 310,-252 310,-252 313,-252 316,-255 316,-258 316,-258 316,-264 316,-264 316,-267 313,-270 310,-270"/>
<text text-anchor="middle" x="284.5" y="-258.8" font-family="Helvetica,sans-Serif" font-size="9.00">options.d.ts</text>
</a>
</g>
</g>
<!-- configuration.d.ts&#45;&gt;options.d.ts -->
<g id="edge1" class="edge">
<title>configuration.d.ts&#45;&gt;options.d.ts</title>
<path fill="none" stroke="#000000" stroke-width="2" stroke-opacity="0.200000" d="M224.98,-239.67C245.65,-239.67 266,-239.67 266,-239.67 266,-239.67 266,-245.83 266,-245.83"/>
<polygon fill="#000000" fill-opacity="0.200000" stroke="#000000" stroke-width="2" stroke-opacity="0.200000" points="263.9,-245.83 266,-251.83 268.1,-245.83 263.9,-245.83"/>
</g>
<!-- rule&#45;set.d.ts -->
<g id="node4" class="node">
<title>rule&#45;set.d.ts</title>
<g id="a_node4"><a xlink:href="https://github.com/sverweij/dependency-cruiser/blob/develop/rule-set.d.ts" xlink:title="rule&#45;set.d.ts">
<path fill="#ddfeff" stroke="black" d="M403.5,-216C403.5,-216 351.5,-216 351.5,-216 348.5,-216 345.5,-213 345.5,-210 345.5,-210 345.5,-204 345.5,-204 345.5,-201 348.5,-198 351.5,-198 351.5,-198 403.5,-198 403.5,-198 406.5,-198 409.5,-201 409.5,-204 409.5,-204 409.5,-210 409.5,-210 409.5,-213 406.5,-216 403.5,-216"/>
<text text-anchor="middle" x="377.5" y="-204.8" font-family="Helvetica,sans-Serif" font-size="9.00">rule&#45;set.d.ts</text>
</a>
</g>
</g>
<!-- configuration.d.ts&#45;&gt;rule&#45;set.d.ts -->
<g id="edge2" class="edge">
<title>configuration.d.ts&#45;&gt;rule&#45;set.d.ts</title>
<path fill="none" stroke="#000000" stroke-width="2" stroke-opacity="0.200000" d="M224.91,-235.33C279.56,-235.33 367,-235.33 367,-235.33 367,-235.33 367,-222.28 367,-222.28"/>
<polygon fill="#000000" fill-opacity="0.200000" stroke="#000000" stroke-width="2" stroke-opacity="0.200000" points="369.1,-222.28 367,-216.28 364.9,-222.28 369.1,-222.28"/>
</g>
<!-- options.d.ts&#45;&gt;rule&#45;set.d.ts -->
<g id="edge14" class="edge">
<title>options.d.ts&#45;&gt;rule&#45;set.d.ts</title>
<path fill="none" stroke="#000000" stroke-width="2" stroke-opacity="0.200000" d="M291,-251.65C291,-236.92 291,-210 291,-210 291,-210 339.29,-210 339.29,-210"/>
<polygon fill="#000000" fill-opacity="0.200000" stroke="#000000" stroke-width="2" stroke-opacity="0.200000" points="339.29,-212.1 345.29,-210 339.29,-207.9 339.29,-212.1"/>
</g>
<!-- shared&#45;types.d.ts -->
<g id="node6" class="node">
<title>shared&#45;types.d.ts</title>
<g id="a_node6"><a xlink:href="https://github.com/sverweij/dependency-cruiser/blob/develop/shared-types.d.ts" xlink:title="shared&#45;types.d.ts">
<path fill="#ddfeff" stroke="black" d="M609,-231C609,-231 535,-231 535,-231 532,-231 529,-228 529,-225 529,-225 529,-219 529,-219 529,-216 532,-213 535,-213 535,-213 609,-213 609,-213 612,-213 615,-216 615,-219 615,-219 615,-225 615,-225 615,-228 612,-231 609,-231"/>
<text text-anchor="middle" x="572" y="-219.8" font-family="Helvetica,sans-Serif" font-size="9.00">shared&#45;types.d.ts</text>
</a>
</g>
</g>
<!-- options.d.ts&#45;&gt;shared&#45;types.d.ts -->
<g id="edge15" class="edge">
<title>options.d.ts&#45;&gt;shared&#45;types.d.ts</title>
<path fill="none" stroke="#000000" stroke-width="2" stroke-opacity="0.200000" d="M304,-251.84C304,-240.63 304,-223.14 304,-223.14 304,-223.14 522.94,-223.14 522.94,-223.14"/>
<polygon fill="#000000" fill-opacity="0.200000" stroke="#000000" stroke-width="2" stroke-opacity="0.200000" points="522.94,-225.24 528.94,-223.14 522.94,-221.04 522.94,-225.24"/>
</g>
<!-- filter&#45;types.d.ts -->
<g id="node8" class="node">
<title>filter&#45;types.d.ts</title>
<g id="a_node8"><a xlink:href="https://github.com/sverweij/dependency-cruiser/blob/develop/filter-types.d.ts" xlink:title="filter&#45;types.d.ts">
<path fill="#ddfeff" stroke="black" d="M509,-272C509,-272 446,-272 446,-272 443,-272 440,-269 440,-266 440,-266 440,-260 440,-260 440,-257 443,-254 446,-254 446,-254 509,-254 509,-254 512,-254 515,-257 515,-260 515,-260 515,-266 515,-266 515,-269 512,-272 509,-272"/>
<text text-anchor="middle" x="477.5" y="-260.8" font-family="Helvetica,sans-Serif" font-size="9.00">filter&#45;types.d.ts</text>
</a>
</g>
</g>
<!-- options.d.ts&#45;&gt;filter&#45;types.d.ts -->
<g id="edge12" class="edge">
<title>options.d.ts&#45;&gt;filter&#45;types.d.ts</title>
<path fill="none" stroke="#000000" stroke-width="2" stroke-opacity="0.200000" d="M316.37,-258C316.37,-258 433.95,-258 433.95,-258"/>
<polygon fill="#000000" fill-opacity="0.200000" stroke="#000000" stroke-width="2" stroke-opacity="0.200000" points="433.95,-260.1 439.95,-258 433.95,-255.9 433.95,-260.1"/>
</g>
<!-- reporter&#45;options.d.ts -->
<g id="node10" class="node">
<title>reporter&#45;options.d.ts</title>
<g id="a_node10"><a xlink:href="https://github.com/sverweij/dependency-cruiser/blob/develop/reporter-options.d.ts" xlink:title="reporter&#45;options.d.ts">
<path fill="#ddfeff" stroke="black" d="M420,-298C420,-298 335,-298 335,-298 332,-298 329,-295 329,-292 329,-292 329,-286 329,-286 329,-283 332,-280 335,-280 335,-280 420,-280 420,-280 423,-280 426,-283 426,-286 426,-286 426,-292 426,-292 426,-295 423,-298 420,-298"/>
<text text-anchor="middle" x="377.5" y="-286.8" font-family="Helvetica,sans-Serif" font-size="9.00">reporter&#45;options.d.ts</text>
</a>
</g>
</g>
<!-- options.d.ts&#45;&gt;reporter&#45;options.d.ts -->
<g id="edge13" class="edge">
<title>options.d.ts&#45;&gt;reporter&#45;options.d.ts</title>
<path fill="none" stroke="#000000" stroke-width="2" stroke-opacity="0.200000" d="M316.24,-266C327.76,-266 338,-266 338,-266 338,-266 338,-273.91 338,-273.91"/>
<polygon fill="#000000" fill-opacity="0.200000" stroke="#000000" stroke-width="2" stroke-opacity="0.200000" points="335.9,-273.91 338,-279.91 340.1,-273.91 335.9,-273.91"/>
</g>
<!-- rule&#45;set.d.ts&#45;&gt;shared&#45;types.d.ts -->
<g id="edge20" class="edge">
<title>rule&#45;set.d.ts&#45;&gt;shared&#45;types.d.ts</title>
<path fill="none" stroke="#000000" stroke-width="2" stroke-opacity="0.200000" d="M389,-216.11C389,-217.7 389,-218.86 389,-218.86 389,-218.86 522.63,-218.86 522.63,-218.86"/>
<polygon fill="#000000" fill-opacity="0.200000" stroke="#000000" stroke-width="2" stroke-opacity="0.200000" points="522.63,-220.96 528.63,-218.86 522.63,-216.76 522.63,-220.96"/>
</g>
<!-- restrictions.d.ts -->
<g id="node12" class="node">
<title>restrictions.d.ts</title>
<g id="a_node12"><a xlink:href="https://github.com/sverweij/dependency-cruiser/blob/develop/restrictions.d.ts" xlink:title="restrictions.d.ts">
<path fill="#ddfeff" stroke="black" d="M510,-190C510,-190 445,-190 445,-190 442,-190 439,-187 439,-184 439,-184 439,-178 439,-178 439,-175 442,-172 445,-172 445,-172 510,-172 510,-172 513,-172 516,-175 516,-178 516,-178 516,-184 516,-184 516,-187 513,-190 510,-190"/>
<text text-anchor="middle" x="477.5" y="-178.8" font-family="Helvetica,sans-Serif" font-size="9.00">restrictions.d.ts</text>
</a>
</g>
</g>
<!-- rule&#45;set.d.ts&#45;&gt;restrictions.d.ts -->
<g id="edge19" class="edge">
<title>rule&#45;set.d.ts&#45;&gt;restrictions.d.ts</title>
<path fill="none" stroke="#000000" stroke-width="2" stroke-opacity="0.200000" d="M389,-197.91C389,-191.48 389,-184 389,-184 389,-184 432.94,-184 432.94,-184"/>
<polygon fill="#000000" fill-opacity="0.200000" stroke="#000000" stroke-width="2" stroke-opacity="0.200000" points="432.94,-186.1 438.94,-184 432.94,-181.9 432.94,-186.1"/>
</g>
<!-- cruise&#45;result.d.ts -->
<g id="node5" class="node">
<title>cruise&#45;result.d.ts</title>
<g id="a_node5"><a xlink:href="https://github.com/sverweij/dependency-cruiser/blob/develop/cruise-result.d.ts" xlink:title="cruise&#45;result.d.ts">
<path fill="#ddfeff" stroke="black" d="M217.5,-188C217.5,-188 146.5,-188 146.5,-188 143.5,-188 140.5,-185 140.5,-182 140.5,-182 140.5,-176 140.5,-176 140.5,-173 143.5,-170 146.5,-170 146.5,-170 217.5,-170 217.5,-170 220.5,-170 223.5,-173 223.5,-176 223.5,-176 223.5,-182 223.5,-182 223.5,-185 220.5,-188 217.5,-188"/>
<text text-anchor="middle" x="182" y="-176.8" font-family="Helvetica,sans-Serif" font-size="9.00">cruise&#45;result.d.ts</text>
</a>
</g>
</g>
<!-- cruise&#45;result.d.ts&#45;&gt;options.d.ts -->
<g id="edge3" class="edge">
<title>cruise&#45;result.d.ts&#45;&gt;options.d.ts</title>
<path fill="none" stroke="#000000" stroke-width="2" stroke-opacity="0.200000" d="M223.7,-180C249.99,-180 279,-180 279,-180 279,-180 279,-245.71 279,-245.71"/>
<polygon fill="#000000" fill-opacity="0.200000" stroke="#000000" stroke-width="2" stroke-opacity="0.200000" points="276.9,-245.71 279,-251.71 281.1,-245.71 276.9,-245.71"/>
</g>
<!-- cruise&#45;result.d.ts&#45;&gt;rule&#45;set.d.ts -->
<g id="edge4" class="edge">
<title>cruise&#45;result.d.ts&#45;&gt;rule&#45;set.d.ts</title>
<path fill="none" stroke="#000000" stroke-width="2" stroke-opacity="0.200000" d="M223.52,-176C278.06,-176 367,-176 367,-176 367,-176 367,-191.87 367,-191.87"/>
<polygon fill="#000000" fill-opacity="0.200000" stroke="#000000" stroke-width="2" stroke-opacity="0.200000" points="364.9,-191.87 367,-197.87 369.1,-191.87 364.9,-191.87"/>
</g>
<!-- cruise&#45;result.d.ts&#45;&gt;shared&#45;types.d.ts -->
<g id="edge5" class="edge">
<title>cruise&#45;result.d.ts&#45;&gt;shared&#45;types.d.ts</title>
<path fill="none" stroke="#000000" stroke-width="2" stroke-opacity="0.200000" d="M182,-188.16C182,-200.33 182,-220.29 182,-220.29 182,-220.29 522.77,-220.29 522.77,-220.29"/>
<polygon fill="#000000" fill-opacity="0.200000" stroke="#000000" stroke-width="2" stroke-opacity="0.200000" points="522.77,-222.39 528.77,-220.29 522.77,-218.19 522.77,-222.39"/>
</g>
<!-- dependency&#45;cruiser.d.ts -->
<g id="node7" class="node">
<title>dependency&#45;cruiser.d.ts</title>
<g id="a_node7"><a xlink:href="https://github.com/sverweij/dependency-cruiser/blob/develop/dependency-cruiser.d.ts" xlink:title="dependency&#45;cruiser.d.ts">
<path fill="#ddfeff" stroke="black" d="M106,-244C106,-244 6,-244 6,-244 3,-244 0,-241 0,-238 0,-238 0,-232 0,-232 0,-229 3,-226 6,-226 6,-226 106,-226 106,-226 109,-226 112,-229 112,-232 112,-232 112,-238 112,-238 112,-241 109,-244 106,-244"/>
<text text-anchor="middle" x="56" y="-232.8" font-family="Helvetica,sans-Serif" font-size="9.00">dependency&#45;cruiser.d.ts</text>
</a>
</g>
</g>
<!-- dependency&#45;cruiser.d.ts&#45;&gt;configuration.d.ts -->
<g id="edge6" class="edge">
<title>dependency&#45;cruiser.d.ts&#45;&gt;configuration.d.ts</title>
<path fill="none" stroke="#000000" stroke-width="2" stroke-opacity="0.200000" d="M112.37,-235C112.37,-235 133.29,-235 133.29,-235"/>
<polygon fill="#000000" fill-opacity="0.200000" stroke="#000000" stroke-width="2" stroke-opacity="0.200000" points="133.29,-237.1 139.29,-235 133.29,-232.9 133.29,-237.1"/>
</g>
<!-- dependency&#45;cruiser.d.ts&#45;&gt;options.d.ts -->
<g id="edge8" class="edge">
<title>dependency&#45;cruiser.d.ts&#45;&gt;options.d.ts</title>
<path fill="none" stroke="#000000" stroke-width="2" stroke-opacity="0.200000" d="M102,-244.17C102,-252.33 102,-263 102,-263 102,-263 246.71,-263 246.71,-263"/>
<polygon fill="#000000" fill-opacity="0.200000" stroke="#000000" stroke-width="2" stroke-opacity="0.200000" points="246.71,-265.1 252.71,-263 246.71,-260.9 246.71,-265.1"/>
</g>
<!-- dependency&#45;cruiser.d.ts&#45;&gt;rule&#45;set.d.ts -->
<g id="edge9" class="edge">
<title>dependency&#45;cruiser.d.ts&#45;&gt;rule&#45;set.d.ts</title>
<path fill="none" stroke="#000000" stroke-width="2" stroke-opacity="0.200000" d="M110,-225.87C110,-216.72 110,-204 110,-204 110,-204 339.5,-204 339.5,-204"/>
<polygon fill="#000000" fill-opacity="0.200000" stroke="#000000" stroke-width="2" stroke-opacity="0.200000" points="339.5,-206.1 345.5,-204 339.5,-201.9 339.5,-206.1"/>
</g>
<!-- dependency&#45;cruiser.d.ts&#45;&gt;cruise&#45;result.d.ts -->
<g id="edge7" class="edge">
<title>dependency&#45;cruiser.d.ts&#45;&gt;cruise&#45;result.d.ts</title>
<path fill="none" stroke="#000000" stroke-width="2" stroke-opacity="0.200000" d="M108,-225.75C108,-209.85 108,-179 108,-179 108,-179 134.24,-179 134.24,-179"/>
<polygon fill="#000000" fill-opacity="0.200000" stroke="#000000" stroke-width="2" stroke-opacity="0.200000" points="134.24,-181.1 140.24,-179 134.24,-176.9 134.24,-181.1"/>
</g>
<!-- dependency&#45;cruiser.d.ts&#45;&gt;shared&#45;types.d.ts -->
<g id="edge10" class="edge">
<title>dependency&#45;cruiser.d.ts&#45;&gt;shared&#45;types.d.ts</title>
<path fill="none" stroke="#000000" stroke-width="2" stroke-opacity="0.200000" d="M106,-225.92C106,-223.58 106,-221.71 106,-221.71 106,-221.71 523,-221.71 523,-221.71"/>
<polygon fill="#000000" fill-opacity="0.200000" stroke="#000000" stroke-width="2" stroke-opacity="0.200000" points="523,-223.81 529,-221.71 523,-219.61 523,-223.81"/>
</g>
<!-- filter&#45;types.d.ts&#45;&gt;shared&#45;types.d.ts -->
<g id="edge11" class="edge">
<title>filter&#45;types.d.ts&#45;&gt;shared&#45;types.d.ts</title>
<path fill="none" stroke="#000000" stroke-width="2" stroke-opacity="0.200000" d="M465,-253.7C465,-242.32 465,-224.57 465,-224.57 465,-224.57 522.79,-224.57 522.79,-224.57"/>
<polygon fill="#000000" fill-opacity="0.200000" stroke="#000000" stroke-width="2" stroke-opacity="0.200000" points="522.79,-226.67 528.79,-224.57 522.79,-222.47 522.79,-226.67"/>
</g>
<!-- init&#45;config.d.ts -->
<g id="node9" class="node">
<title>init&#45;config.d.ts</title>
<g id="a_node9"><a xlink:href="https://github.com/sverweij/dependency-cruiser/blob/develop/init-config.d.ts" xlink:title="init&#45;config.d.ts">
<path fill="#ccffcc" stroke="black" d="M86,-274C86,-274 26,-274 26,-274 23,-274 20,-271 20,-268 20,-268 20,-262 20,-262 20,-259 23,-256 26,-256 26,-256 86,-256 86,-256 89,-256 92,-259 92,-262 92,-262 92,-268 92,-268 92,-271 89,-274 86,-274"/>
<text text-anchor="middle" x="56" y="-262.8" font-family="Helvetica,sans-Serif" font-size="9.00">init&#45;config.d.ts</text>
</a>
</g>
</g>
<!-- reporter&#45;options.d.ts&#45;&gt;filter&#45;types.d.ts -->
<g id="edge16" class="edge">
<title>reporter&#45;options.d.ts&#45;&gt;filter&#45;types.d.ts</title>
<path fill="none" stroke="#000000" stroke-width="2" stroke-opacity="0.200000" d="M418,-279.86C418,-272.03 418,-262 418,-262 418,-262 433.82,-262 433.82,-262"/>
<polygon fill="#000000" fill-opacity="0.200000" stroke="#000000" stroke-width="2" stroke-opacity="0.200000" points="433.82,-264.1 439.82,-262 433.82,-259.9 433.82,-264.1"/>
</g>
<!-- resolve&#45;options.d.ts -->
<g id="node11" class="node">
<title>resolve&#45;options.d.ts</title>
<g id="a_node11"><a xlink:href="https://github.com/sverweij/dependency-cruiser/blob/develop/resolve-options.d.ts" xlink:title="resolve&#45;options.d.ts">
<path fill="#ddfeff" stroke="black" d="M97.5,-58C97.5,-58 14.5,-58 14.5,-58 11.5,-58 8.5,-55 8.5,-52 8.5,-52 8.5,-46 8.5,-46 8.5,-43 11.5,-40 14.5,-40 14.5,-40 97.5,-40 97.5,-40 100.5,-40 103.5,-43 103.5,-46 103.5,-46 103.5,-52 103.5,-52 103.5,-55 100.5,-58 97.5,-58"/>
<text text-anchor="middle" x="56" y="-46.8" font-family="Helvetica,sans-Serif" font-size="9.00">resolve&#45;options.d.ts</text>
</a>
</g>
</g>
<!-- resolve&#45;options.d.ts&#45;&gt;../node_modules/enhanced&#45;resolve/lib/index.js -->
<g id="edge17" class="edge">
<title>resolve&#45;options.d.ts&#45;&gt;../node_modules/enhanced&#45;resolve/lib/index.js</title>
<path fill="none" stroke="#000000" stroke-opacity="0.200000" d="M103.64,-49C103.64,-49 148.77,-49 148.77,-49"/>
<polygon fill="#000000" fill-opacity="0.200000" stroke="#000000" stroke-opacity="0.200000" points="148.77,-51.1 154.77,-49 148.77,-46.9 148.77,-51.1"/>
</g>
<!-- restrictions.d.ts&#45;&gt;shared&#45;types.d.ts -->
<g id="edge18" class="edge">
<title>restrictions.d.ts&#45;&gt;shared&#45;types.d.ts</title>
<path fill="none" stroke="#000000" stroke-width="2" stroke-opacity="0.200000" d="M490,-190.19C490,-200.98 490,-217.43 490,-217.43 490,-217.43 522.6,-217.43 522.6,-217.43"/>
<polygon fill="#000000" fill-opacity="0.200000" stroke="#000000" stroke-width="2" stroke-opacity="0.200000" points="522.6,-219.53 528.6,-217.43 522.6,-215.33 522.6,-219.53"/>
</g>
</g>
</svg>
