<?xml version="1.0" encoding="UTF-8" standalone="no"?>
<!DOCTYPE svg PUBLIC "-//W3C//DTD SVG 1.1//EN"
 "http://www.w3.org/Graphics/SVG/1.1/DTD/svg11.dtd">
<!-- Generated by graphviz version 2.47.3 (20210619.1520)
 -->
<!-- Title: dependency&#45;cruiser output Pages: 1 -->
<svg width="598pt" height="136pt"
 viewBox="0.00 0.00 598.00 136.00" xmlns="http://www.w3.org/2000/svg" xmlns:xlink="http://www.w3.org/1999/xlink">
<g id="graph0" class="graph" transform="scale(1 1) rotate(0) translate(4 132)">
<title>dependency&#45;cruiser output</title>
<polygon fill="white" stroke="transparent" points="-4,4 -4,-132 594,-132 594,4 -4,4"/>
<!-- configuration.d.ts -->
<g id="node1" class="node">
<title>configuration.d.ts</title>
<g id="a_node1"><a xlink:href="https://github.com/sverweij/dependency-cruiser/blob/develop/configuration.d.ts" xlink:title="configuration.d.ts">
<path fill="#ddfeff" stroke="black" d="M208,-76C208,-76 134,-76 134,-76 131,-76 128,-73 128,-70 128,-70 128,-64 128,-64 128,-61 131,-58 134,-58 134,-58 208,-58 208,-58 211,-58 214,-61 214,-64 214,-64 214,-70 214,-70 214,-73 211,-76 208,-76"/>
<text text-anchor="middle" x="171" y="-64.8" font-family="Helvetica,sans-Serif" font-size="9.00">configuration.d.ts</text>
</a>
</g>
</g>
<!-- options.d.ts -->
<g id="node2" class="node">
<title>options.d.ts</title>
<g id="a_node2"><a xlink:href="https://github.com/sverweij/dependency-cruiser/blob/develop/options.d.ts" xlink:title="options.d.ts">
<path fill="#ddfeff" stroke="black" d="M284,-100C284,-100 233,-100 233,-100 230,-100 227,-97 227,-94 227,-94 227,-88 227,-88 227,-85 230,-82 233,-82 233,-82 284,-82 284,-82 287,-82 290,-85 290,-88 290,-88 290,-94 290,-94 290,-97 287,-100 284,-100"/>
<text text-anchor="middle" x="258.5" y="-88.8" font-family="Helvetica,sans-Serif" font-size="9.00">options.d.ts</text>
</a>
</g>
</g>
<!-- configuration.d.ts&#45;&gt;options.d.ts -->
<g id="edge1" class="edge">
<title>configuration.d.ts&#45;&gt;options.d.ts</title>
<path fill="none" stroke="#000000" stroke-width="2" stroke-opacity="0.200000" d="M214.31,-68.5C228.17,-68.5 240,-68.5 240,-68.5 240,-68.5 240,-75.85 240,-75.85"/>
<polygon fill="#000000" fill-opacity="0.200000" stroke="#000000" stroke-width="2" stroke-opacity="0.200000" points="237.9,-75.85 240,-81.85 242.1,-75.85 237.9,-75.85"/>
</g>
<!-- rule&#45;set.d.ts -->
<g id="node3" class="node">
<title>rule&#45;set.d.ts</title>
<g id="a_node3"><a xlink:href="https://github.com/sverweij/dependency-cruiser/blob/develop/rule-set.d.ts" xlink:title="rule&#45;set.d.ts">
<path fill="#ddfeff" stroke="black" d="M378,-72C378,-72 326,-72 326,-72 323,-72 320,-69 320,-66 320,-66 320,-60 320,-60 320,-57 323,-54 326,-54 326,-54 378,-54 378,-54 381,-54 384,-57 384,-60 384,-60 384,-66 384,-66 384,-69 381,-72 378,-72"/>
<text text-anchor="middle" x="352" y="-60.8" font-family="Helvetica,sans-Serif" font-size="9.00">rule&#45;set.d.ts</text>
</a>
</g>
</g>
<!-- configuration.d.ts&#45;&gt;rule&#45;set.d.ts -->
<g id="edge2" class="edge">
<title>configuration.d.ts&#45;&gt;rule&#45;set.d.ts</title>
<path fill="none" stroke="#000000" stroke-width="2" stroke-opacity="0.200000" d="M214.35,-61.5C214.35,-61.5 313.77,-61.5 313.77,-61.5"/>
<polygon fill="#000000" fill-opacity="0.200000" stroke="#000000" stroke-width="2" stroke-opacity="0.200000" points="313.77,-63.6 319.77,-61.5 313.77,-59.4 313.77,-63.6"/>
</g>
<!-- options.d.ts&#45;&gt;rule&#45;set.d.ts -->
<g id="edge14" class="edge">
<title>options.d.ts&#45;&gt;rule&#45;set.d.ts</title>
<path fill="none" stroke="#000000" stroke-width="2" stroke-opacity="0.200000" d="M278,-81.91C278,-74.41 278,-65 278,-65 278,-65 313.76,-65 313.76,-65"/>
<polygon fill="#000000" fill-opacity="0.200000" stroke="#000000" stroke-width="2" stroke-opacity="0.200000" points="313.76,-67.1 319.76,-65 313.76,-62.9 313.76,-67.1"/>
</g>
<!-- shared&#45;types.d.ts -->
<g id="node5" class="node">
<title>shared&#45;types.d.ts</title>
<g id="a_node5"><a xlink:href="https://github.com/sverweij/dependency-cruiser/blob/develop/shared-types.d.ts" xlink:title="shared&#45;types.d.ts">
<path fill="#ddfeff" stroke="black" d="M584,-57C584,-57 510,-57 510,-57 507,-57 504,-54 504,-51 504,-51 504,-45 504,-45 504,-42 507,-39 510,-39 510,-39 584,-39 584,-39 587,-39 590,-42 590,-45 590,-45 590,-51 590,-51 590,-54 587,-57 584,-57"/>
<text text-anchor="middle" x="547" y="-45.8" font-family="Helvetica,sans-Serif" font-size="9.00">shared&#45;types.d.ts</text>
</a>
</g>
</g>
<!-- options.d.ts&#45;&gt;shared&#45;types.d.ts -->
<g id="edge15" class="edge">
<title>options.d.ts&#45;&gt;shared&#45;types.d.ts</title>
<path fill="none" stroke="#000000" stroke-width="2" stroke-opacity="0.200000" d="M265,-81.89C265,-67.55 265,-41.33 265,-41.33 265,-41.33 497.86,-41.33 497.86,-41.33"/>
<polygon fill="#000000" fill-opacity="0.200000" stroke="#000000" stroke-width="2" stroke-opacity="0.200000" points="497.86,-43.43 503.86,-41.33 497.86,-39.23 497.86,-43.43"/>
</g>
<!-- filter&#45;types.d.ts -->
<g id="node7" class="node">
<title>filter&#45;types.d.ts</title>
<g id="a_node7"><a xlink:href="https://github.com/sverweij/dependency-cruiser/blob/develop/filter-types.d.ts" xlink:title="filter&#45;types.d.ts">
<path fill="#ddfeff" stroke="black" d="M484,-128C484,-128 421,-128 421,-128 418,-128 415,-125 415,-122 415,-122 415,-116 415,-116 415,-113 418,-110 421,-110 421,-110 484,-110 484,-110 487,-110 490,-113 490,-116 490,-116 490,-122 490,-122 490,-125 487,-128 484,-128"/>
<text text-anchor="middle" x="452.5" y="-116.8" font-family="Helvetica,sans-Serif" font-size="9.00">filter&#45;types.d.ts</text>
</a>
</g>
</g>
<!-- options.d.ts&#45;&gt;filter&#45;types.d.ts -->
<g id="edge12" class="edge">
<title>options.d.ts&#45;&gt;filter&#45;types.d.ts</title>
<path fill="none" stroke="#000000" stroke-width="2" stroke-opacity="0.200000" d="M259,-100.13C259,-109.28 259,-122 259,-122 259,-122 408.73,-122 408.73,-122"/>
<polygon fill="#000000" fill-opacity="0.200000" stroke="#000000" stroke-width="2" stroke-opacity="0.200000" points="408.73,-124.1 414.73,-122 408.73,-119.9 408.73,-124.1"/>
</g>
<!-- reporter&#45;options.d.ts -->
<g id="node9" class="node">
<title>reporter&#45;options.d.ts</title>
<g id="a_node9"><a xlink:href="https://github.com/sverweij/dependency-cruiser/blob/develop/reporter-options.d.ts" xlink:title="reporter&#45;options.d.ts">
<path fill="#ddfeff" stroke="black" d="M395,-102C395,-102 309,-102 309,-102 306,-102 303,-99 303,-96 303,-96 303,-90 303,-90 303,-87 306,-84 309,-84 309,-84 395,-84 395,-84 398,-84 401,-87 401,-90 401,-90 401,-96 401,-96 401,-99 398,-102 395,-102"/>
<text text-anchor="middle" x="352" y="-90.8" font-family="Helvetica,sans-Serif" font-size="9.00">reporter&#45;options.d.ts</text>
</a>
</g>
</g>
<!-- options.d.ts&#45;&gt;reporter&#45;options.d.ts -->
<g id="edge13" class="edge">
<title>options.d.ts&#45;&gt;reporter&#45;options.d.ts</title>
<path fill="none" stroke="#000000" stroke-width="2" stroke-opacity="0.200000" d="M290.15,-92C290.15,-92 296.93,-92 296.93,-92"/>
<polygon fill="#000000" fill-opacity="0.200000" stroke="#000000" stroke-width="2" stroke-opacity="0.200000" points="296.93,-94.1 302.93,-92 296.93,-89.9 296.93,-94.1"/>
</g>
<!-- rule&#45;set.d.ts&#45;&gt;shared&#45;types.d.ts -->
<g id="edge19" class="edge">
<title>rule&#45;set.d.ts&#45;&gt;shared&#45;types.d.ts</title>
<path fill="none" stroke="#000000" stroke-width="2" stroke-opacity="0.200000" d="M368,-53.71C368,-48.29 368,-42.5 368,-42.5 368,-42.5 497.67,-42.5 497.67,-42.5"/>
<polygon fill="#000000" fill-opacity="0.200000" stroke="#000000" stroke-width="2" stroke-opacity="0.200000" points="497.67,-44.6 503.67,-42.5 497.67,-40.4 497.67,-44.6"/>
</g>
<!-- restrictions.d.ts -->
<g id="node10" class="node">
<title>restrictions.d.ts</title>
<g id="a_node10"><a xlink:href="https://github.com/sverweij/dependency-cruiser/blob/develop/restrictions.d.ts" xlink:title="restrictions.d.ts">
<path fill="#ddfeff" stroke="black" d="M485,-98C485,-98 420,-98 420,-98 417,-98 414,-95 414,-92 414,-92 414,-86 414,-86 414,-83 417,-80 420,-80 420,-80 485,-80 485,-80 488,-80 491,-83 491,-86 491,-86 491,-92 491,-92 491,-95 488,-98 485,-98"/>
<text text-anchor="middle" x="452.5" y="-86.8" font-family="Helvetica,sans-Serif" font-size="9.00">restrictions.d.ts</text>
</a>
</g>
</g>
<!-- rule&#45;set.d.ts&#45;&gt;restrictions.d.ts -->
<g id="edge18" class="edge">
<title>rule&#45;set.d.ts&#45;&gt;restrictions.d.ts</title>
<path fill="none" stroke="#000000" stroke-width="2" stroke-opacity="0.200000" d="M384.23,-64.5C413.79,-64.5 453,-64.5 453,-64.5 453,-64.5 453,-73.88 453,-73.88"/>
<polygon fill="#000000" fill-opacity="0.200000" stroke="#000000" stroke-width="2" stroke-opacity="0.200000" points="450.9,-73.88 453,-79.88 455.1,-73.88 450.9,-73.88"/>
</g>
<!-- cruise&#45;result.d.ts -->
<g id="node4" class="node">
<title>cruise&#45;result.d.ts</title>
<g id="a_node4"><a xlink:href="https://github.com/sverweij/dependency-cruiser/blob/develop/cruise-result.d.ts" xlink:title="cruise&#45;result.d.ts">
<path fill="#ddfeff" stroke="black" d="M206.5,-46C206.5,-46 135.5,-46 135.5,-46 132.5,-46 129.5,-43 129.5,-40 129.5,-40 129.5,-34 129.5,-34 129.5,-31 132.5,-28 135.5,-28 135.5,-28 206.5,-28 206.5,-28 209.5,-28 212.5,-31 212.5,-34 212.5,-34 212.5,-40 212.5,-40 212.5,-43 209.5,-46 206.5,-46"/>
<text text-anchor="middle" x="171" y="-34.8" font-family="Helvetica,sans-Serif" font-size="9.00">cruise&#45;result.d.ts</text>
</a>
</g>
</g>
<!-- cruise&#45;result.d.ts&#45;&gt;options.d.ts -->
<g id="edge3" class="edge">
<title>cruise&#45;result.d.ts&#45;&gt;options.d.ts</title>
<path fill="none" stroke="#000000" stroke-width="2" stroke-opacity="0.200000" d="M212.96,-44.83C233.14,-44.83 253,-44.83 253,-44.83 253,-44.83 253,-75.66 253,-75.66"/>
<polygon fill="#000000" fill-opacity="0.200000" stroke="#000000" stroke-width="2" stroke-opacity="0.200000" points="250.9,-75.66 253,-81.66 255.1,-75.66 250.9,-75.66"/>
</g>
<!-- cruise&#45;result.d.ts&#45;&gt;rule&#45;set.d.ts -->
<g id="edge4" class="edge">
<title>cruise&#45;result.d.ts&#45;&gt;rule&#45;set.d.ts</title>
<path fill="none" stroke="#000000" stroke-width="2" stroke-opacity="0.200000" d="M212.64,-43.67C261.52,-43.67 336,-43.67 336,-43.67 336,-43.67 336,-47.79 336,-47.79"/>
<polygon fill="#000000" fill-opacity="0.200000" stroke="#000000" stroke-width="2" stroke-opacity="0.200000" points="333.9,-47.79 336,-53.79 338.1,-47.79 333.9,-47.79"/>
</g>
<!-- cruise&#45;result.d.ts&#45;&gt;shared&#45;types.d.ts -->
<g id="edge5" class="edge">
<title>cruise&#45;result.d.ts&#45;&gt;shared&#45;types.d.ts</title>
<path fill="none" stroke="#000000" stroke-width="2" stroke-opacity="0.200000" d="M212.68,-40.17C212.68,-40.17 497.98,-40.17 497.98,-40.17"/>
<polygon fill="#000000" fill-opacity="0.200000" stroke="#000000" stroke-width="2" stroke-opacity="0.200000" points="497.98,-42.27 503.98,-40.17 497.98,-38.07 497.98,-42.27"/>
</g>
<!-- dependency&#45;cruiser.d.ts -->
<g id="node6" class="node">
<title>dependency&#45;cruiser.d.ts</title>
<g id="a_node6"><a xlink:href="https://github.com/sverweij/dependency-cruiser/blob/develop/dependency-cruiser.d.ts" xlink:title="dependency&#45;cruiser.d.ts">
<path fill="#ddfeff" stroke="black" d="M109,-18C109,-18 6,-18 6,-18 3,-18 0,-15 0,-12 0,-12 0,-6 0,-6 0,-3 3,0 6,0 6,0 109,0 109,0 112,0 115,-3 115,-6 115,-6 115,-12 115,-12 115,-15 112,-18 109,-18"/>
<text text-anchor="middle" x="57.5" y="-6.8" font-family="Helvetica,sans-Serif" font-size="9.00">dependency&#45;cruiser.d.ts</text>
</a>
</g>
</g>
<!-- dependency&#45;cruiser.d.ts&#45;&gt;configuration.d.ts -->
<g id="edge6" class="edge">
<title>dependency&#45;cruiser.d.ts&#45;&gt;configuration.d.ts</title>
<path fill="none" stroke="#000000" stroke-width="2" stroke-opacity="0.200000" d="M105,-18.06C105,-34.38 105,-67 105,-67 105,-67 121.71,-67 121.71,-67"/>
<polygon fill="#000000" fill-opacity="0.200000" stroke="#000000" stroke-width="2" stroke-opacity="0.200000" points="121.71,-69.1 127.71,-67 121.71,-64.9 121.71,-69.1"/>
</g>
<!-- dependency&#45;cruiser.d.ts&#45;&gt;options.d.ts -->
<g id="edge8" class="edge">
<title>dependency&#45;cruiser.d.ts&#45;&gt;options.d.ts</title>
<path fill="none" stroke="#000000" stroke-width="2" stroke-opacity="0.200000" d="M100,-18.09C100,-39.44 100,-91 100,-91 100,-91 220.81,-91 220.81,-91"/>
<polygon fill="#000000" fill-opacity="0.200000" stroke="#000000" stroke-width="2" stroke-opacity="0.200000" points="220.81,-93.1 226.81,-91 220.81,-88.9 220.81,-93.1"/>
</g>
<!-- dependency&#45;cruiser.d.ts&#45;&gt;rule&#45;set.d.ts -->
<g id="edge9" class="edge">
<title>dependency&#45;cruiser.d.ts&#45;&gt;rule&#45;set.d.ts</title>
<path fill="none" stroke="#000000" stroke-width="2" stroke-opacity="0.200000" d="M115.33,-12C201.1,-12 352,-12 352,-12 352,-12 352,-47.65 352,-47.65"/>
<polygon fill="#000000" fill-opacity="0.200000" stroke="#000000" stroke-width="2" stroke-opacity="0.200000" points="349.9,-47.65 352,-53.65 354.1,-47.65 349.9,-47.65"/>
</g>
<!-- dependency&#45;cruiser.d.ts&#45;&gt;cruise&#45;result.d.ts -->
<g id="edge7" class="edge">
<title>dependency&#45;cruiser.d.ts&#45;&gt;cruise&#45;result.d.ts</title>
<path fill="none" stroke="#000000" stroke-width="2" stroke-opacity="0.200000" d="M110,-18.18C110,-26.67 110,-38 110,-38 110,-38 123.3,-38 123.3,-38"/>
<polygon fill="#000000" fill-opacity="0.200000" stroke="#000000" stroke-width="2" stroke-opacity="0.200000" points="123.3,-40.1 129.3,-38 123.3,-35.9 123.3,-40.1"/>
</g>
<!-- dependency&#45;cruiser.d.ts&#45;&gt;shared&#45;types.d.ts -->
<g id="edge10" class="edge">
<title>dependency&#45;cruiser.d.ts&#45;&gt;shared&#45;types.d.ts</title>
<path fill="none" stroke="#000000" stroke-width="2" stroke-opacity="0.200000" d="M115.09,-6C244.49,-6 547,-6 547,-6 547,-6 547,-32.68 547,-32.68"/>
<polygon fill="#000000" fill-opacity="0.200000" stroke="#000000" stroke-width="2" stroke-opacity="0.200000" points="544.9,-32.68 547,-38.68 549.1,-32.68 544.9,-32.68"/>
</g>
<!-- filter&#45;types.d.ts&#45;&gt;shared&#45;types.d.ts -->
<g id="edge11" class="edge">
<title>filter&#45;types.d.ts&#45;&gt;shared&#45;types.d.ts</title>
<path fill="none" stroke="#000000" stroke-width="2" stroke-opacity="0.200000" d="M490.18,-119C521.86,-119 562,-119 562,-119 562,-119 562,-63.28 562,-63.28"/>
<polygon fill="#000000" fill-opacity="0.200000" stroke="#000000" stroke-width="2" stroke-opacity="0.200000" points="564.1,-63.28 562,-57.28 559.9,-63.28 564.1,-63.28"/>
</g>
<!-- init&#45;config.d.ts -->
<g id="node8" class="node">
<title>init&#45;config.d.ts</title>
<g id="a_node8"><a xlink:href="https://github.com/sverweij/dependency-cruiser/blob/develop/init-config.d.ts" xlink:title="init&#45;config.d.ts">
<path fill="#ccffcc" stroke="black" d="M88,-48C88,-48 27,-48 27,-48 24,-48 21,-45 21,-42 21,-42 21,-36 21,-36 21,-33 24,-30 27,-30 27,-30 88,-30 88,-30 91,-30 94,-33 94,-36 94,-36 94,-42 94,-42 94,-45 91,-48 88,-48"/>
<text text-anchor="middle" x="57.5" y="-36.8" font-family="Helvetica,sans-Serif" font-size="9.00">init&#45;config.d.ts</text>
</a>
</g>
</g>
<!-- reporter&#45;options.d.ts&#45;&gt;filter&#45;types.d.ts -->
<g id="edge16" class="edge">
<title>reporter&#45;options.d.ts&#45;&gt;filter&#45;types.d.ts</title>
<path fill="none" stroke="#000000" stroke-width="2" stroke-opacity="0.200000" d="M352,-102.09C352,-108.52 352,-116 352,-116 352,-116 408.79,-116 408.79,-116"/>
<polygon fill="#000000" fill-opacity="0.200000" stroke="#000000" stroke-width="2" stroke-opacity="0.200000" points="408.79,-118.1 414.79,-116 408.79,-113.9 408.79,-118.1"/>
</g>
<!-- restrictions.d.ts&#45;&gt;shared&#45;types.d.ts -->
<g id="edge17" class="edge">
<title>restrictions.d.ts&#45;&gt;shared&#45;types.d.ts</title>
<path fill="none" stroke="#000000" stroke-width="2" stroke-opacity="0.200000" d="M491.34,-89C511.92,-89 533,-89 533,-89 533,-89 533,-63.1 533,-63.1"/>
<polygon fill="#000000" fill-opacity="0.200000" stroke="#000000" stroke-width="2" stroke-opacity="0.200000" points="535.1,-63.1 533,-57.1 530.9,-63.1 535.1,-63.1"/>
</g>
</g>
</svg>
