<?xml version="1.0" encoding="UTF-8" standalone="no"?>
<!DOCTYPE svg PUBLIC "-//W3C//DTD SVG 1.1//EN"
 "http://www.w3.org/Graphics/SVG/1.1/DTD/svg11.dtd">
<!-- Generated by graphviz version 8.0.5 (20230430.1635)
 -->
<!-- Title: dependency&#45;cruiser output Pages: 1 -->
<svg width="689pt" height="650pt"
 viewBox="0.00 0.00 689.00 650.00" xmlns="http://www.w3.org/2000/svg" xmlns:xlink="http://www.w3.org/1999/xlink">
<g id="graph0" class="graph" transform="scale(1 1) rotate(0) translate(4 646)">
<title>dependency&#45;cruiser output</title>
<polygon fill="white" stroke="none" points="-4,4 -4,-646 685,-646 685,4 -4,4"/>
<g id="clust1" class="cluster">
<title>cluster_src</title>
<path fill="#ffffff" stroke="black" stroke-width="2" d="M20,-8C20,-8 661,-8 661,-8 667,-8 673,-14 673,-20 673,-20 673,-622 673,-622 673,-628 667,-634 661,-634 661,-634 20,-634 20,-634 14,-634 8,-628 8,-622 8,-622 8,-20 8,-20 8,-14 14,-8 20,-8"/>
<text text-anchor="middle" x="340.5" y="-621.45" font-family="Helvetica,sans-Serif" font-weight="bold" font-size="9.00">src</text>
</g>
<g id="clust2" class="cluster">
<title>cluster_src/graph&#45;utl</title>
<path fill="#ffffff" stroke="black" stroke-width="2" d="M212,-376C212,-376 653,-376 653,-376 659,-376 665,-382 665,-388 665,-388 665,-536 665,-536 665,-542 659,-548 653,-548 653,-548 212,-548 212,-548 206,-548 200,-542 200,-536 200,-536 200,-388 200,-388 200,-382 206,-376 212,-376"/>
<text text-anchor="middle" x="432.5" y="-535.45" font-family="Helvetica,sans-Serif" font-weight="bold" font-size="9.00">graph&#45;utl</text>
</g>
<g id="clust3" class="cluster">
<title>cluster_src/report</title>
<path fill="#ffffff" stroke="black" stroke-width="2" d="M28,-16C28,-16 291.88,-16 291.88,-16 297.88,-16 303.88,-22 303.88,-28 303.88,-28 303.88,-356 303.88,-356 303.88,-362 297.88,-368 291.88,-368 291.88,-368 28,-368 28,-368 22,-368 16,-362 16,-356 16,-356 16,-28 16,-28 16,-22 22,-16 28,-16"/>
<text text-anchor="middle" x="159.94" y="-355.45" font-family="Helvetica,sans-Serif" font-weight="bold" font-size="9.00">report</text>
</g>
<g id="clust4" class="cluster">
<title>cluster_src/utl</title>
<path fill="#ffffff" stroke="black" stroke-width="2" d="M222.88,-556C222.88,-556 314.88,-556 314.88,-556 320.88,-556 326.88,-562 326.88,-568 326.88,-568 326.88,-596 326.88,-596 326.88,-602 320.88,-608 314.88,-608 314.88,-608 222.88,-608 222.88,-608 216.88,-608 210.88,-602 210.88,-596 210.88,-596 210.88,-568 210.88,-568 210.88,-562 216.88,-556 222.88,-556"/>
<text text-anchor="start" x="263.62" y="-595.45" font-family="Helvetica,sans-Serif" font-weight="bold" font-size="9.00">utl</text>
</g>
<!-- src/graph&#45;utl/add&#45;focus.mjs -->
<g id="node1" class="node">
<title>src/graph&#45;utl/add&#45;focus.mjs</title>
<g id="a_node1"><a xlink:href="https://github.com/sverweij/dependency-cruiser/blob/main/src/graph-utl/add-focus.mjs" xlink:title="add&#45;focus.mjs">
<path fill="#ffcccc" stroke="black" d="M460.83,-491.88C460.83,-491.88 399.67,-491.88 399.67,-491.88 396.71,-491.88 393.75,-488.92 393.75,-485.96 393.75,-485.96 393.75,-480.04 393.75,-480.04 393.75,-477.08 396.71,-474.12 399.67,-474.12 399.67,-474.12 460.83,-474.12 460.83,-474.12 463.79,-474.12 466.75,-477.08 466.75,-480.04 466.75,-480.04 466.75,-485.96 466.75,-485.96 466.75,-488.92 463.79,-491.88 460.83,-491.88"/>
<text text-anchor="start" x="401.75" y="-479.32" font-family="Helvetica,sans-Serif" font-size="9.00">add&#45;focus.mjs</text>
</a>
</g>
</g>
<!-- src/graph&#45;utl/indexed&#45;module&#45;graph.mjs -->
<g id="node2" class="node">
<title>src/graph&#45;utl/indexed&#45;module&#45;graph.mjs</title>
<g id="a_node2"><a xlink:href="https://github.com/sverweij/dependency-cruiser/blob/main/src/graph-utl/indexed-module-graph.mjs" xlink:title="indexed&#45;module&#45;graph.mjs">
<path fill="#ffcccc" stroke="black" d="M651.08,-509.88C651.08,-509.88 536.67,-509.88 536.67,-509.88 533.71,-509.88 530.75,-506.92 530.75,-503.96 530.75,-503.96 530.75,-498.04 530.75,-498.04 530.75,-495.08 533.71,-492.12 536.67,-492.12 536.67,-492.12 651.08,-492.12 651.08,-492.12 654.04,-492.12 657,-495.08 657,-498.04 657,-498.04 657,-503.96 657,-503.96 657,-506.92 654.04,-509.88 651.08,-509.88"/>
<text text-anchor="start" x="538.75" y="-497.32" font-family="Helvetica,sans-Serif" font-size="9.00">indexed&#45;module&#45;graph.mjs</text>
</a>
</g>
</g>
<!-- src/graph&#45;utl/add&#45;focus.mjs&#45;&gt;src/graph&#45;utl/indexed&#45;module&#45;graph.mjs -->
<g id="edge1" class="edge">
<title>src/graph&#45;utl/add&#45;focus.mjs&#45;&gt;src/graph&#45;utl/indexed&#45;module&#45;graph.mjs</title>
<path fill="none" stroke="#770000" stroke-width="2" stroke-opacity="0.466667" d="M467.13,-483C499.35,-483 541,-483 541,-483 541,-483 541,-483.9 541,-483.9"/>
<polygon fill="#770000" fill-opacity="0.466667" stroke="#770000" stroke-width="2" stroke-opacity="0.466667" points="538.9,-483 541,-489 543.1,-483 538.9,-483"/>
</g>
<!-- src/graph&#45;utl/match&#45;facade.mjs -->
<g id="node3" class="node">
<title>src/graph&#45;utl/match&#45;facade.mjs</title>
<g id="a_node3"><a xlink:href="https://github.com/sverweij/dependency-cruiser/blob/main/src/graph-utl/match-facade.mjs" xlink:title="match&#45;facade.mjs">
<path fill="#ffcccc" stroke="black" d="M631.96,-472.88C631.96,-472.88 555.79,-472.88 555.79,-472.88 552.83,-472.88 549.88,-469.92 549.88,-466.96 549.88,-466.96 549.88,-461.04 549.88,-461.04 549.88,-458.08 552.83,-455.12 555.79,-455.12 555.79,-455.12 631.96,-455.12 631.96,-455.12 634.92,-455.12 637.88,-458.08 637.88,-461.04 637.88,-461.04 637.88,-466.96 637.88,-466.96 637.88,-469.92 634.92,-472.88 631.96,-472.88"/>
<text text-anchor="start" x="557.88" y="-460.32" font-family="Helvetica,sans-Serif" font-size="9.00">match&#45;facade.mjs</text>
</a>
</g>
</g>
<!-- src/graph&#45;utl/add&#45;focus.mjs&#45;&gt;src/graph&#45;utl/match&#45;facade.mjs -->
<g id="edge2" class="edge">
<title>src/graph&#45;utl/add&#45;focus.mjs&#45;&gt;src/graph&#45;utl/match&#45;facade.mjs</title>
<path fill="none" stroke="#770000" stroke-width="2" stroke-opacity="0.466667" d="M431,-473.88C431,-471.31 431,-469.21 431,-469.21 431,-469.21 540.8,-469.21 540.8,-469.21"/>
<polygon fill="#770000" fill-opacity="0.466667" stroke="#770000" stroke-width="2" stroke-opacity="0.466667" points="540.8,-471.31 546.8,-469.21 540.8,-467.11 540.8,-471.31"/>
</g>
<!-- src/graph&#45;utl/compare.mjs -->
<g id="node4" class="node">
<title>src/graph&#45;utl/compare.mjs</title>
<g id="a_node4"><a xlink:href="https://github.com/sverweij/dependency-cruiser/blob/main/src/graph-utl/compare.mjs" xlink:title="compare.mjs">
<path fill="#ffcccc" stroke="black" d="M622.21,-401.88C622.21,-401.88 565.54,-401.88 565.54,-401.88 562.58,-401.88 559.62,-398.92 559.62,-395.96 559.62,-395.96 559.62,-390.04 559.62,-390.04 559.62,-387.08 562.58,-384.12 565.54,-384.12 565.54,-384.12 622.21,-384.12 622.21,-384.12 625.17,-384.12 628.12,-387.08 628.12,-390.04 628.12,-390.04 628.12,-395.96 628.12,-395.96 628.12,-398.92 625.17,-401.88 622.21,-401.88"/>
<text text-anchor="start" x="567.62" y="-389.32" font-family="Helvetica,sans-Serif" font-size="9.00">compare.mjs</text>
</a>
</g>
</g>
<!-- src/graph&#45;utl/consolidate&#45;module&#45;dependencies.mjs -->
<g id="node5" class="node">
<title>src/graph&#45;utl/consolidate&#45;module&#45;dependencies.mjs</title>
<g id="a_node5"><a xlink:href="https://github.com/sverweij/dependency-cruiser/blob/main/src/graph-utl/consolidate-module-dependencies.mjs" xlink:title="consolidate&#45;module&#45;dependencies.mjs">
<path fill="#ffcccc" stroke="black" d="M511.83,-401.88C511.83,-401.88 348.67,-401.88 348.67,-401.88 345.71,-401.88 342.75,-398.92 342.75,-395.96 342.75,-395.96 342.75,-390.04 342.75,-390.04 342.75,-387.08 345.71,-384.12 348.67,-384.12 348.67,-384.12 511.83,-384.12 511.83,-384.12 514.79,-384.12 517.75,-387.08 517.75,-390.04 517.75,-390.04 517.75,-395.96 517.75,-395.96 517.75,-398.92 514.79,-401.88 511.83,-401.88"/>
<text text-anchor="start" x="350.75" y="-389.32" font-family="Helvetica,sans-Serif" font-size="9.00">consolidate&#45;module&#45;dependencies.mjs</text>
</a>
</g>
</g>
<!-- src/graph&#45;utl/consolidate&#45;module&#45;dependencies.mjs&#45;&gt;src/graph&#45;utl/compare.mjs -->
<g id="edge3" class="edge">
<title>src/graph&#45;utl/consolidate&#45;module&#45;dependencies.mjs&#45;&gt;src/graph&#45;utl/compare.mjs</title>
<path fill="none" stroke="#770000" stroke-width="2" stroke-opacity="0.466667" d="M517.81,-393C517.81,-393 550.36,-393 550.36,-393"/>
<polygon fill="#770000" fill-opacity="0.466667" stroke="#770000" stroke-width="2" stroke-opacity="0.466667" points="550.36,-395.1 556.36,-393 550.36,-390.9 550.36,-395.1"/>
</g>
<!-- src/graph&#45;utl/consolidate&#45;modules.mjs -->
<g id="node6" class="node">
<title>src/graph&#45;utl/consolidate&#45;modules.mjs</title>
<g id="a_node6"><a xlink:href="https://github.com/sverweij/dependency-cruiser/blob/main/src/graph-utl/consolidate-modules.mjs" xlink:title="consolidate&#45;modules.mjs">
<path fill="#ffcccc" stroke="black" d="M483.33,-431.88C483.33,-431.88 377.17,-431.88 377.17,-431.88 374.21,-431.88 371.25,-428.92 371.25,-425.96 371.25,-425.96 371.25,-420.04 371.25,-420.04 371.25,-417.08 374.21,-414.12 377.17,-414.12 377.17,-414.12 483.33,-414.12 483.33,-414.12 486.29,-414.12 489.25,-417.08 489.25,-420.04 489.25,-420.04 489.25,-425.96 489.25,-425.96 489.25,-428.92 486.29,-431.88 483.33,-431.88"/>
<text text-anchor="start" x="379.25" y="-419.32" font-family="Helvetica,sans-Serif" font-size="9.00">consolidate&#45;modules.mjs</text>
</a>
</g>
</g>
<!-- src/graph&#45;utl/consolidate&#45;modules.mjs&#45;&gt;src/graph&#45;utl/compare.mjs -->
<g id="edge4" class="edge">
<title>src/graph&#45;utl/consolidate&#45;modules.mjs&#45;&gt;src/graph&#45;utl/compare.mjs</title>
<path fill="none" stroke="#770000" stroke-width="2" stroke-opacity="0.466667" d="M489.37,-423C536.27,-423 594,-423 594,-423 594,-423 594,-411.16 594,-411.16"/>
<polygon fill="#770000" fill-opacity="0.466667" stroke="#770000" stroke-width="2" stroke-opacity="0.466667" points="596.1,-411.16 594,-405.16 591.9,-411.16 596.1,-411.16"/>
</g>
<!-- src/graph&#45;utl/consolidate&#45;to&#45;folder.mjs -->
<g id="node7" class="node">
<title>src/graph&#45;utl/consolidate&#45;to&#45;folder.mjs</title>
<g id="a_node7"><a xlink:href="https://github.com/sverweij/dependency-cruiser/blob/main/src/graph-utl/consolidate-to-folder.mjs" xlink:title="consolidate&#45;to&#45;folder.mjs">
<path fill="#ffcccc" stroke="black" d="M321.21,-401.88C321.21,-401.88 216.54,-401.88 216.54,-401.88 213.58,-401.88 210.62,-398.92 210.62,-395.96 210.62,-395.96 210.62,-390.04 210.62,-390.04 210.62,-387.08 213.58,-384.12 216.54,-384.12 216.54,-384.12 321.21,-384.12 321.21,-384.12 324.17,-384.12 327.12,-387.08 327.12,-390.04 327.12,-390.04 327.12,-395.96 327.12,-395.96 327.12,-398.92 324.17,-401.88 321.21,-401.88"/>
<text text-anchor="start" x="218.62" y="-389.32" font-family="Helvetica,sans-Serif" font-size="9.00">consolidate&#45;to&#45;folder.mjs</text>
</a>
</g>
</g>
<!-- src/graph&#45;utl/consolidate&#45;to&#45;folder.mjs&#45;&gt;src/graph&#45;utl/consolidate&#45;module&#45;dependencies.mjs -->
<g id="edge5" class="edge">
<title>src/graph&#45;utl/consolidate&#45;to&#45;folder.mjs&#45;&gt;src/graph&#45;utl/consolidate&#45;module&#45;dependencies.mjs</title>
<path fill="none" stroke="#770000" stroke-width="2" stroke-opacity="0.466667" d="M327.59,-390.04C327.59,-390.04 333.46,-390.04 333.46,-390.04"/>
<polygon fill="#770000" fill-opacity="0.466667" stroke="#770000" stroke-width="2" stroke-opacity="0.466667" points="333.46,-392.14 339.46,-390.04 333.46,-387.94 333.46,-392.14"/>
</g>
<!-- src/graph&#45;utl/consolidate&#45;to&#45;folder.mjs&#45;&gt;src/graph&#45;utl/consolidate&#45;modules.mjs -->
<g id="edge6" class="edge">
<title>src/graph&#45;utl/consolidate&#45;to&#45;folder.mjs&#45;&gt;src/graph&#45;utl/consolidate&#45;modules.mjs</title>
<path fill="none" stroke="#770000" stroke-width="2" stroke-opacity="0.466667" d="M327.53,-395.96C333.26,-395.96 337,-395.96 337,-395.96 337,-395.96 337,-423 337,-423 337,-423 361.93,-423 361.93,-423"/>
<polygon fill="#770000" fill-opacity="0.466667" stroke="#770000" stroke-width="2" stroke-opacity="0.466667" points="361.93,-425.1 367.93,-423 361.93,-420.9 361.93,-425.1"/>
</g>
<!-- src/graph&#45;utl/consolidate&#45;to&#45;pattern.mjs -->
<g id="node8" class="node">
<title>src/graph&#45;utl/consolidate&#45;to&#45;pattern.mjs</title>
<g id="a_node8"><a xlink:href="https://github.com/sverweij/dependency-cruiser/blob/main/src/graph-utl/consolidate-to-pattern.mjs" xlink:title="consolidate&#45;to&#45;pattern.mjs">
<path fill="#ffcccc" stroke="black" d="M323.83,-461.88C323.83,-461.88 213.92,-461.88 213.92,-461.88 210.96,-461.88 208,-458.92 208,-455.96 208,-455.96 208,-450.04 208,-450.04 208,-447.08 210.96,-444.12 213.92,-444.12 213.92,-444.12 323.83,-444.12 323.83,-444.12 326.79,-444.12 329.75,-447.08 329.75,-450.04 329.75,-450.04 329.75,-455.96 329.75,-455.96 329.75,-458.92 326.79,-461.88 323.83,-461.88"/>
<text text-anchor="start" x="216" y="-449.32" font-family="Helvetica,sans-Serif" font-size="9.00">consolidate&#45;to&#45;pattern.mjs</text>
</a>
</g>
</g>
<!-- src/graph&#45;utl/consolidate&#45;to&#45;pattern.mjs&#45;&gt;src/graph&#45;utl/consolidate&#45;module&#45;dependencies.mjs -->
<g id="edge7" class="edge">
<title>src/graph&#45;utl/consolidate&#45;to&#45;pattern.mjs&#45;&gt;src/graph&#45;utl/consolidate&#45;module&#45;dependencies.mjs</title>
<path fill="none" stroke="#770000" stroke-width="2" stroke-opacity="0.466667" d="M330.08,-447.79C345.12,-447.79 357,-447.79 357,-447.79 357,-447.79 357,-411.05 357,-411.05"/>
<polygon fill="#770000" fill-opacity="0.466667" stroke="#770000" stroke-width="2" stroke-opacity="0.466667" points="359.1,-411.05 357,-405.05 354.9,-411.05 359.1,-411.05"/>
</g>
<!-- src/graph&#45;utl/consolidate&#45;to&#45;pattern.mjs&#45;&gt;src/graph&#45;utl/consolidate&#45;modules.mjs -->
<g id="edge8" class="edge">
<title>src/graph&#45;utl/consolidate&#45;to&#45;pattern.mjs&#45;&gt;src/graph&#45;utl/consolidate&#45;modules.mjs</title>
<path fill="none" stroke="#770000" stroke-width="2" stroke-opacity="0.466667" d="M329.95,-451.46C357.08,-451.46 383,-451.46 383,-451.46 383,-451.46 383,-441.32 383,-441.32"/>
<polygon fill="#770000" fill-opacity="0.466667" stroke="#770000" stroke-width="2" stroke-opacity="0.466667" points="385.1,-441.32 383,-435.32 380.9,-441.32 385.1,-441.32"/>
</g>
<!-- src/graph&#45;utl/filter&#45;bank.mjs -->
<g id="node9" class="node">
<title>src/graph&#45;utl/filter&#45;bank.mjs</title>
<g id="a_node9"><a xlink:href="https://github.com/sverweij/dependency-cruiser/blob/main/src/graph-utl/filter-bank.mjs" xlink:title="filter&#45;bank.mjs">
<path fill="#ffcccc" stroke="black" d="M299.46,-491.88C299.46,-491.88 238.29,-491.88 238.29,-491.88 235.33,-491.88 232.38,-488.92 232.38,-485.96 232.38,-485.96 232.38,-480.04 232.38,-480.04 232.38,-477.08 235.33,-474.12 238.29,-474.12 238.29,-474.12 299.46,-474.12 299.46,-474.12 302.42,-474.12 305.38,-477.08 305.38,-480.04 305.38,-480.04 305.38,-485.96 305.38,-485.96 305.38,-488.92 302.42,-491.88 299.46,-491.88"/>
<text text-anchor="start" x="240.38" y="-479.32" font-family="Helvetica,sans-Serif" font-size="9.00">filter&#45;bank.mjs</text>
</a>
</g>
</g>
<!-- src/graph&#45;utl/filter&#45;bank.mjs&#45;&gt;src/graph&#45;utl/add&#45;focus.mjs -->
<g id="edge9" class="edge">
<title>src/graph&#45;utl/filter&#45;bank.mjs&#45;&gt;src/graph&#45;utl/add&#45;focus.mjs</title>
<path fill="none" stroke="#770000" stroke-width="2" stroke-opacity="0.466667" d="M305.49,-483C305.49,-483 384.5,-483 384.5,-483"/>
<polygon fill="#770000" fill-opacity="0.466667" stroke="#770000" stroke-width="2" stroke-opacity="0.466667" points="384.5,-485.1 390.5,-483 384.5,-480.9 384.5,-485.1"/>
</g>
<!-- src/graph&#45;utl/filter&#45;bank.mjs&#45;&gt;src/graph&#45;utl/indexed&#45;module&#45;graph.mjs -->
<g id="edge10" class="edge">
<title>src/graph&#45;utl/filter&#45;bank.mjs&#45;&gt;src/graph&#45;utl/indexed&#45;module&#45;graph.mjs</title>
<path fill="none" stroke="#770000" stroke-width="2" stroke-opacity="0.466667" d="M269,-492.32C269,-495.43 269,-498.12 269,-498.12 269,-498.12 521.46,-498.12 521.46,-498.12"/>
<polygon fill="#770000" fill-opacity="0.466667" stroke="#770000" stroke-width="2" stroke-opacity="0.466667" points="521.46,-500.23 527.46,-498.12 521.46,-496.03 521.46,-500.23"/>
</g>
<!-- src/graph&#45;utl/filter&#45;bank.mjs&#45;&gt;src/graph&#45;utl/match&#45;facade.mjs -->
<g id="edge11" class="edge">
<title>src/graph&#45;utl/filter&#45;bank.mjs&#45;&gt;src/graph&#45;utl/match&#45;facade.mjs</title>
<path fill="none" stroke="#770000" stroke-width="2" stroke-opacity="0.466667" d="M269,-473.86C269,-469.64 269,-465.54 269,-465.54 269,-465.54 540.38,-465.54 540.38,-465.54"/>
<polygon fill="#770000" fill-opacity="0.466667" stroke="#770000" stroke-width="2" stroke-opacity="0.466667" points="540.38,-467.64 546.38,-465.54 540.38,-463.44 540.38,-467.64"/>
</g>
<!-- src/graph&#45;utl/rule&#45;set.mjs -->
<g id="node10" class="node">
<title>src/graph&#45;utl/rule&#45;set.mjs</title>
<g id="a_node10"><a xlink:href="https://github.com/sverweij/dependency-cruiser/blob/main/src/graph-utl/rule-set.mjs" xlink:title="rule&#45;set.mjs">
<path fill="#ffcccc" stroke="black" d="M294.58,-521.88C294.58,-521.88 243.17,-521.88 243.17,-521.88 240.21,-521.88 237.25,-518.92 237.25,-515.96 237.25,-515.96 237.25,-510.04 237.25,-510.04 237.25,-507.08 240.21,-504.12 243.17,-504.12 243.17,-504.12 294.58,-504.12 294.58,-504.12 297.54,-504.12 300.5,-507.08 300.5,-510.04 300.5,-510.04 300.5,-515.96 300.5,-515.96 300.5,-518.92 297.54,-521.88 294.58,-521.88"/>
<text text-anchor="start" x="245.25" y="-509.32" font-family="Helvetica,sans-Serif" font-size="9.00">rule&#45;set.mjs</text>
</a>
</g>
</g>
<!-- src/graph&#45;utl/strip&#45;self&#45;transitions.mjs -->
<g id="node11" class="node">
<title>src/graph&#45;utl/strip&#45;self&#45;transitions.mjs</title>
<g id="a_node11"><a xlink:href="https://github.com/sverweij/dependency-cruiser/blob/main/src/graph-utl/strip-self-transitions.mjs" xlink:title="strip&#45;self&#45;transitions.mjs">
<path fill="#ffcccc" stroke="black" d="M318.96,-431.88C318.96,-431.88 218.79,-431.88 218.79,-431.88 215.83,-431.88 212.88,-428.92 212.88,-425.96 212.88,-425.96 212.88,-420.04 212.88,-420.04 212.88,-417.08 215.83,-414.12 218.79,-414.12 218.79,-414.12 318.96,-414.12 318.96,-414.12 321.92,-414.12 324.88,-417.08 324.88,-420.04 324.88,-420.04 324.88,-425.96 324.88,-425.96 324.88,-428.92 321.92,-431.88 318.96,-431.88"/>
<text text-anchor="start" x="220.88" y="-419.32" font-family="Helvetica,sans-Serif" font-size="9.00">strip&#45;self&#45;transitions.mjs</text>
</a>
</g>
</g>
<!-- src/report/anon -->
<g id="node12" class="node">
<title>src/report/anon</title>
<g id="a_node12"><a xlink:href="https://github.com/sverweij/dependency-cruiser/blob/main/src/report/anon" xlink:title="anon">
<polygon fill="#ffccff" stroke="black" points="95.38,-341.88 43.35,-341.88 41.38,-339.9 41.38,-324.12 93.4,-324.12 95.38,-326.1 95.38,-341.88"/>
<polyline fill="none" stroke="black" points="93.4,-339.9 41.38,-339.9"/>
<polyline fill="none" stroke="black" points="93.4,-339.9 93.4,-324.12"/>
<polyline fill="none" stroke="black" points="93.4,-339.9 95.38,-341.88"/>
<text text-anchor="start" x="57.88" y="-329.32" font-family="Helvetica,sans-Serif" font-size="9.00">anon</text>
</a>
</g>
</g>
<!-- src/report/azure&#45;devops.mjs -->
<g id="node13" class="node">
<title>src/report/azure&#45;devops.mjs</title>
<g id="a_node13"><a xlink:href="https://github.com/sverweij/dependency-cruiser/blob/main/src/report/azure-devops.mjs" xlink:title="no&#45;orphans">
<path fill="#ffccff" stroke="red" d="M106.83,-311.88C106.83,-311.88 29.92,-311.88 29.92,-311.88 26.96,-311.88 24,-308.92 24,-305.96 24,-305.96 24,-300.04 24,-300.04 24,-297.08 26.96,-294.12 29.92,-294.12 29.92,-294.12 106.83,-294.12 106.83,-294.12 109.79,-294.12 112.75,-297.08 112.75,-300.04 112.75,-300.04 112.75,-305.96 112.75,-305.96 112.75,-308.92 109.79,-311.88 106.83,-311.88"/>
<text text-anchor="start" x="32" y="-299.32" font-family="Helvetica,sans-Serif" font-size="9.00" fill="red">azure&#45;devops.mjs</text>
</a>
</g>
</g>
<!-- src/report/baseline.mjs -->
<g id="node14" class="node">
<title>src/report/baseline.mjs</title>
<g id="a_node14"><a xlink:href="https://github.com/sverweij/dependency-cruiser/blob/main/src/report/baseline.mjs" xlink:title="no&#45;orphans">
<path fill="#ffccff" stroke="red" d="M96.33,-281.88C96.33,-281.88 40.42,-281.88 40.42,-281.88 37.46,-281.88 34.5,-278.92 34.5,-275.96 34.5,-275.96 34.5,-270.04 34.5,-270.04 34.5,-267.08 37.46,-264.12 40.42,-264.12 40.42,-264.12 96.33,-264.12 96.33,-264.12 99.29,-264.12 102.25,-267.08 102.25,-270.04 102.25,-270.04 102.25,-275.96 102.25,-275.96 102.25,-278.92 99.29,-281.88 96.33,-281.88"/>
<text text-anchor="start" x="42.5" y="-269.32" font-family="Helvetica,sans-Serif" font-size="9.00" fill="red">baseline.mjs</text>
</a>
</g>
</g>
<!-- src/report/csv.mjs -->
<g id="node15" class="node">
<title>src/report/csv.mjs</title>
<g id="a_node15"><a xlink:href="https://github.com/sverweij/dependency-cruiser/blob/main/src/report/csv.mjs" xlink:title="csv.mjs">
<path fill="#ffccff" stroke="black" d="M179.96,-251.88C179.96,-251.88 137.79,-251.88 137.79,-251.88 134.83,-251.88 131.88,-248.92 131.88,-245.96 131.88,-245.96 131.88,-240.04 131.88,-240.04 131.88,-237.08 134.83,-234.12 137.79,-234.12 137.79,-234.12 179.96,-234.12 179.96,-234.12 182.92,-234.12 185.88,-237.08 185.88,-240.04 185.88,-240.04 185.88,-245.96 185.88,-245.96 185.88,-248.92 182.92,-251.88 179.96,-251.88"/>
<text text-anchor="start" x="143.88" y="-239.32" font-family="Helvetica,sans-Serif" font-size="9.00">csv.mjs</text>
</a>
</g>
</g>
<!-- src/report/utl -->
<g id="node16" class="node">
<title>src/report/utl</title>
<g id="a_node16"><a xlink:href="https://github.com/sverweij/dependency-cruiser/blob/main/src/report/utl" xlink:title="utl">
<polygon fill="#ffccff" stroke="black" points="295.88,-251.88 243.85,-251.88 241.88,-249.9 241.88,-234.12 293.9,-234.12 295.88,-236.1 295.88,-251.88"/>
<polyline fill="none" stroke="black" points="293.9,-249.9 241.88,-249.9"/>
<polyline fill="none" stroke="black" points="293.9,-249.9 293.9,-234.12"/>
<polyline fill="none" stroke="black" points="293.9,-249.9 295.88,-251.88"/>
<text text-anchor="start" x="264" y="-239.32" font-family="Helvetica,sans-Serif" font-size="9.00">utl</text>
</a>
</g>
</g>
<!-- src/report/csv.mjs&#45;&gt;src/report/utl -->
<g id="edge12" class="edge">
<title>src/report/csv.mjs&#45;&gt;src/report/utl</title>
<path fill="none" stroke="#ff00ff" stroke-width="2" stroke-opacity="0.466667" d="M186.35,-243C186.35,-243 232.75,-243 232.75,-243"/>
<polygon fill="#ff00ff" fill-opacity="0.466667" stroke="#ff00ff" stroke-width="2" stroke-opacity="0.466667" points="232.75,-245.1 238.75,-243 232.75,-240.9 232.75,-245.1"/>
</g>
<!-- src/report/dot -->
<g id="node17" class="node">
<title>src/report/dot</title>
<g id="a_node17"><a xlink:href="https://github.com/sverweij/dependency-cruiser/blob/main/src/report/dot" xlink:title="dot">
<polygon fill="#ffccff" stroke="black" points="185.88,-311.88 133.85,-311.88 131.88,-309.9 131.88,-294.12 183.9,-294.12 185.88,-296.1 185.88,-311.88"/>
<polyline fill="none" stroke="black" points="183.9,-309.9 131.88,-309.9"/>
<polyline fill="none" stroke="black" points="183.9,-309.9 183.9,-294.12"/>
<polyline fill="none" stroke="black" points="183.9,-309.9 185.88,-311.88"/>
<text text-anchor="start" x="152.5" y="-299.32" font-family="Helvetica,sans-Serif" font-size="9.00">dot</text>
</a>
</g>
</g>
<!-- src/report/dot&#45;&gt;src/graph&#45;utl/compare.mjs -->
<g id="edge15" class="edge">
<title>src/report/dot&#45;&gt;src/graph&#45;utl/compare.mjs</title>
<path fill="none" stroke="#770000" stroke-width="2" stroke-opacity="0.466667" d="M186.09,-299.2C281.35,-299.2 594,-299.2 594,-299.2 594,-299.2 594,-374.66 594,-374.66"/>
<polygon fill="#770000" fill-opacity="0.466667" stroke="#770000" stroke-width="2" stroke-opacity="0.466667" points="591.9,-374.66 594,-380.66 596.1,-374.66 591.9,-374.66"/>
</g>
<!-- src/report/dot&#45;&gt;src/graph&#45;utl/consolidate&#45;to&#45;folder.mjs -->
<g id="edge18" class="edge">
<title>src/report/dot&#45;&gt;src/graph&#45;utl/consolidate&#45;to&#45;folder.mjs</title>
<path fill="none" stroke="#770000" stroke-width="2" stroke-opacity="0.466667" d="M186.19,-301.73C205.14,-301.73 227,-301.73 227,-301.73 227,-301.73 227,-374.92 227,-374.92"/>
<polygon fill="#770000" fill-opacity="0.466667" stroke="#770000" stroke-width="2" stroke-opacity="0.466667" points="224.9,-374.92 227,-380.92 229.1,-374.92 224.9,-374.92"/>
</g>
<!-- src/report/dot&#45;&gt;src/graph&#45;utl/consolidate&#45;to&#45;pattern.mjs -->
<g id="edge16" class="edge">
<title>src/report/dot&#45;&gt;src/graph&#45;utl/consolidate&#45;to&#45;pattern.mjs</title>
<path fill="none" stroke="#770000" stroke-width="2" stroke-opacity="0.466667" d="M186.08,-306.8C193.72,-306.8 200,-306.8 200,-306.8 200,-306.8 200,-453 200,-453 200,-453 200.76,-453 200.76,-453"/>
<polygon fill="#770000" fill-opacity="0.466667" stroke="#770000" stroke-width="2" stroke-opacity="0.466667" points="198.63,-455.1 204.63,-453 198.63,-450.9 198.63,-455.1"/>
</g>
<!-- src/report/dot&#45;&gt;src/graph&#45;utl/filter&#45;bank.mjs -->
<g id="edge13" class="edge">
<title>src/report/dot&#45;&gt;src/graph&#45;utl/filter&#45;bank.mjs</title>
<path fill="none" stroke="#770000" stroke-width="2" stroke-opacity="0.466667" d="M186.25,-309.34C191.81,-309.34 196,-309.34 196,-309.34 196,-309.34 196,-483 196,-483 196,-483 223.01,-483 223.01,-483"/>
<polygon fill="#770000" fill-opacity="0.466667" stroke="#770000" stroke-width="2" stroke-opacity="0.466667" points="223.01,-485.1 229.01,-483 223.01,-480.9 223.01,-485.1"/>
</g>
<!-- src/report/dot&#45;&gt;src/graph&#45;utl/strip&#45;self&#45;transitions.mjs -->
<g id="edge17" class="edge">
<title>src/report/dot&#45;&gt;src/graph&#45;utl/strip&#45;self&#45;transitions.mjs</title>
<path fill="none" stroke="#770000" stroke-width="2" stroke-opacity="0.466667" d="M186.17,-304.27C195.67,-304.27 204,-304.27 204,-304.27 204,-304.27 204,-423 204,-423 204,-423 204.85,-423 204.85,-423"/>
<polygon fill="#770000" fill-opacity="0.466667" stroke="#770000" stroke-width="2" stroke-opacity="0.466667" points="203.48,-425.1 209.48,-423 203.48,-420.9 203.48,-425.1"/>
</g>
<!-- src/report/dot&#45;&gt;src/report/utl -->
<g id="edge14" class="edge">
<title>src/report/dot&#45;&gt;src/report/utl</title>
<path fill="none" stroke="#ff00ff" stroke-width="2" stroke-opacity="0.466667" d="M186.1,-296.66C218.71,-296.66 269,-296.66 269,-296.66 269,-296.66 269,-261.35 269,-261.35"/>
<polygon fill="#ff00ff" fill-opacity="0.466667" stroke="#ff00ff" stroke-width="2" stroke-opacity="0.466667" points="271.1,-261.35 269,-255.35 266.9,-261.35 271.1,-261.35"/>
</g>
<!-- src/report/error&#45;html -->
<g id="node18" class="node">
<title>src/report/error&#45;html</title>
<g id="a_node18"><a xlink:href="https://github.com/sverweij/dependency-cruiser/blob/main/src/report/error-html" xlink:title="error&#45;html">
<polygon fill="#ffccff" stroke="black" points="186.75,-131.88 132.97,-131.88 131,-129.9 131,-114.12 184.78,-114.12 186.75,-116.1 186.75,-131.88"/>
<polyline fill="none" stroke="black" points="184.78,-129.9 131,-129.9"/>
<polyline fill="none" stroke="black" points="184.78,-129.9 184.78,-114.12"/>
<polyline fill="none" stroke="black" points="184.78,-129.9 186.75,-131.88"/>
<text text-anchor="start" x="139" y="-119.33" font-family="Helvetica,sans-Serif" font-size="9.00">error&#45;html</text>
</a>
</g>
</g>
<!-- src/report/error&#45;html&#45;&gt;src/report/utl -->
<g id="edge19" class="edge">
<title>src/report/error&#45;html&#45;&gt;src/report/utl</title>
<path fill="none" stroke="#ff00ff" stroke-width="2" stroke-opacity="0.466667" d="M187.04,-123C223.66,-123 283,-123 283,-123 283,-123 283,-224.98 283,-224.98"/>
<polygon fill="#ff00ff" fill-opacity="0.466667" stroke="#ff00ff" stroke-width="2" stroke-opacity="0.466667" points="280.9,-224.98 283,-230.98 285.1,-224.98 280.9,-224.98"/>
</g>
<!-- src/report/error&#45;long.mjs -->
<g id="node19" class="node">
<title>src/report/error&#45;long.mjs</title>
<g id="a_node19"><a xlink:href="https://github.com/sverweij/dependency-cruiser/blob/main/src/report/error-long.mjs" xlink:title="error&#45;long.mjs">
<path fill="#ffccff" stroke="black" d="M98.96,-251.88C98.96,-251.88 37.79,-251.88 37.79,-251.88 34.83,-251.88 31.88,-248.92 31.88,-245.96 31.88,-245.96 31.88,-240.04 31.88,-240.04 31.88,-237.08 34.83,-234.12 37.79,-234.12 37.79,-234.12 98.96,-234.12 98.96,-234.12 101.92,-234.12 104.88,-237.08 104.88,-240.04 104.88,-240.04 104.88,-245.96 104.88,-245.96 104.88,-248.92 101.92,-251.88 98.96,-251.88"/>
<text text-anchor="start" x="39.88" y="-239.32" font-family="Helvetica,sans-Serif" font-size="9.00">error&#45;long.mjs</text>
</a>
</g>
</g>
<!-- src/report/error.mjs -->
<g id="node20" class="node">
<title>src/report/error.mjs</title>
<g id="a_node20"><a xlink:href="https://github.com/sverweij/dependency-cruiser/blob/main/src/report/error.mjs" xlink:title="error.mjs">
<path fill="#ffccff" stroke="black" d="M179.96,-341.88C179.96,-341.88 137.79,-341.88 137.79,-341.88 134.83,-341.88 131.88,-338.92 131.88,-335.96 131.88,-335.96 131.88,-330.04 131.88,-330.04 131.88,-327.08 134.83,-324.12 137.79,-324.12 137.79,-324.12 179.96,-324.12 179.96,-324.12 182.92,-324.12 185.88,-327.08 185.88,-330.04 185.88,-330.04 185.88,-335.96 185.88,-335.96 185.88,-338.92 182.92,-341.88 179.96,-341.88"/>
<text text-anchor="start" x="140.88" y="-329.32" font-family="Helvetica,sans-Serif" font-size="9.00">error.mjs</text>
</a>
</g>
</g>
<!-- src/report/error&#45;long.mjs&#45;&gt;src/report/error.mjs -->
<g id="edge20" class="edge">
<title>src/report/error&#45;long.mjs&#45;&gt;src/report/error.mjs</title>
<path fill="none" stroke="#ff00ff" stroke-width="2" stroke-opacity="0.466667" d="M105.22,-243C112.53,-243 118,-243 118,-243 118,-243 118,-333 118,-333 118,-333 122.38,-333 122.38,-333"/>
<polygon fill="#ff00ff" fill-opacity="0.466667" stroke="#ff00ff" stroke-width="2" stroke-opacity="0.466667" points="122.38,-335.1 128.38,-333 122.38,-330.9 122.38,-335.1"/>
</g>
<!-- src/report/error.mjs&#45;&gt;src/graph&#45;utl/rule&#45;set.mjs -->
<g id="edge21" class="edge">
<title>src/report/error.mjs&#45;&gt;src/graph&#45;utl/rule&#45;set.mjs</title>
<path fill="none" stroke="#770000" stroke-width="2" stroke-opacity="0.466667" d="M168,-342.17C168,-378.85 168,-513 168,-513 168,-513 227.96,-513 227.96,-513"/>
<polygon fill="#770000" fill-opacity="0.466667" stroke="#770000" stroke-width="2" stroke-opacity="0.466667" points="227.96,-515.1 233.96,-513 227.96,-510.9 227.96,-515.1"/>
</g>
<!-- src/report/error.mjs&#45;&gt;src/report/utl -->
<g id="edge23" class="edge">
<title>src/report/error.mjs&#45;&gt;src/report/utl</title>
<path fill="none" stroke="#ff00ff" stroke-width="2" stroke-opacity="0.466667" d="M186.11,-333C222.65,-333 283,-333 283,-333 283,-333 283,-261.29 283,-261.29"/>
<polygon fill="#ff00ff" fill-opacity="0.466667" stroke="#ff00ff" stroke-width="2" stroke-opacity="0.466667" points="285.1,-261.29 283,-255.29 280.9,-261.29 285.1,-261.29"/>
</g>
<!-- src/utl/wrap&#45;and&#45;indent.mjs -->
<g id="node21" class="node">
<title>src/utl/wrap&#45;and&#45;indent.mjs</title>
<g id="a_node21"><a xlink:href="https://github.com/sverweij/dependency-cruiser/blob/main/src/utl/wrap-and-indent.mjs" xlink:title="utl&#45;module&#45;not&#45;shared&#45;enough">
<path fill="#cccccc" stroke="blue" d="M312.96,-581.88C312.96,-581.88 224.79,-581.88 224.79,-581.88 221.83,-581.88 218.88,-578.92 218.88,-575.96 218.88,-575.96 218.88,-570.04 218.88,-570.04 218.88,-567.08 221.83,-564.12 224.79,-564.12 224.79,-564.12 312.96,-564.12 312.96,-564.12 315.92,-564.12 318.88,-567.08 318.88,-570.04 318.88,-570.04 318.88,-575.96 318.88,-575.96 318.88,-578.92 315.92,-581.88 312.96,-581.88"/>
<text text-anchor="start" x="226.88" y="-569.33" font-family="Helvetica,sans-Serif" font-size="9.00" fill="blue">wrap&#45;and&#45;indent.mjs</text>
</a>
</g>
</g>
<!-- src/report/error.mjs&#45;&gt;src/utl/wrap&#45;and&#45;indent.mjs -->
<g id="edge22" class="edge">
<title>src/report/error.mjs&#45;&gt;src/utl/wrap&#45;and&#45;indent.mjs</title>
<path fill="none" stroke="#aaaaaa" stroke-width="2" stroke-opacity="0.466667" d="M150,-342.12C150,-385.95 150,-573 150,-573 150,-573 209.46,-573 209.46,-573"/>
<polygon fill="#aaaaaa" fill-opacity="0.466667" stroke="#aaaaaa" stroke-width="2" stroke-opacity="0.466667" points="209.46,-575.1 215.46,-573 209.46,-570.9 209.46,-575.1"/>
</g>
<!-- src/report/html -->
<g id="node22" class="node">
<title>src/report/html</title>
<g id="a_node22"><a xlink:href="https://github.com/sverweij/dependency-cruiser/blob/main/src/report/html" xlink:title="html">
<polygon fill="#ffccff" stroke="black" points="185.88,-161.88 133.85,-161.88 131.88,-159.9 131.88,-144.12 183.9,-144.12 185.88,-146.1 185.88,-161.88"/>
<polyline fill="none" stroke="black" points="183.9,-159.9 131.88,-159.9"/>
<polyline fill="none" stroke="black" points="183.9,-159.9 183.9,-144.12"/>
<polyline fill="none" stroke="black" points="183.9,-159.9 185.88,-161.88"/>
<text text-anchor="start" x="150.25" y="-149.32" font-family="Helvetica,sans-Serif" font-size="9.00">html</text>
</a>
</g>
</g>
<!-- src/report/html&#45;&gt;src/report/utl -->
<g id="edge24" class="edge">
<title>src/report/html&#45;&gt;src/report/utl</title>
<path fill="none" stroke="#ff00ff" stroke-width="2" stroke-opacity="0.466667" d="M186.1,-153C218.71,-153 269,-153 269,-153 269,-153 269,-224.71 269,-224.71"/>
<polygon fill="#ff00ff" fill-opacity="0.466667" stroke="#ff00ff" stroke-width="2" stroke-opacity="0.466667" points="266.9,-224.71 269,-230.71 271.1,-224.71 266.9,-224.71"/>
</g>
<!-- src/report/identity.mjs -->
<g id="node23" class="node">
<title>src/report/identity.mjs</title>
<g id="a_node23"><a xlink:href="https://github.com/sverweij/dependency-cruiser/blob/main/src/report/identity.mjs" xlink:title="identity.mjs">
<path fill="#ffccff" stroke="black" d="M93.33,-221.88C93.33,-221.88 43.42,-221.88 43.42,-221.88 40.46,-221.88 37.5,-218.92 37.5,-215.96 37.5,-215.96 37.5,-210.04 37.5,-210.04 37.5,-207.08 40.46,-204.12 43.42,-204.12 43.42,-204.12 93.33,-204.12 93.33,-204.12 96.29,-204.12 99.25,-207.08 99.25,-210.04 99.25,-210.04 99.25,-215.96 99.25,-215.96 99.25,-218.92 96.29,-221.88 93.33,-221.88"/>
<text text-anchor="start" x="45.5" y="-209.32" font-family="Helvetica,sans-Serif" font-size="9.00">identity.mjs</text>
</a>
</g>
</g>
<!-- src/report/index.mjs -->
<g id="node24" class="node">
<title>src/report/index.mjs</title>
<g id="a_node24"><a xlink:href="https://github.com/sverweij/dependency-cruiser/blob/main/src/report/index.mjs" xlink:title="index.mjs">
<path fill="#ffccff" stroke="black" d="M89.96,-191.88C89.96,-191.88 46.79,-191.88 46.79,-191.88 43.83,-191.88 40.88,-188.92 40.88,-185.96 40.88,-185.96 40.88,-180.04 40.88,-180.04 40.88,-177.08 43.83,-174.12 46.79,-174.12 46.79,-174.12 89.96,-174.12 89.96,-174.12 92.92,-174.12 95.88,-177.08 95.88,-180.04 95.88,-180.04 95.88,-185.96 95.88,-185.96 95.88,-188.92 92.92,-191.88 89.96,-191.88"/>
<text text-anchor="start" x="48.88" y="-179.32" font-family="Helvetica,sans-Serif" font-size="9.00">index.mjs</text>
</a>
</g>
</g>
<!-- src/report/plugins.mjs -->
<g id="node25" class="node">
<title>src/report/plugins.mjs</title>
<g id="a_node25"><a xlink:href="https://github.com/sverweij/dependency-cruiser/blob/main/src/report/plugins.mjs" xlink:title="plugins.mjs">
<path fill="#ffccff" stroke="black" d="M184.21,-221.88C184.21,-221.88 133.54,-221.88 133.54,-221.88 130.58,-221.88 127.62,-218.92 127.62,-215.96 127.62,-215.96 127.62,-210.04 127.62,-210.04 127.62,-207.08 130.58,-204.12 133.54,-204.12 133.54,-204.12 184.21,-204.12 184.21,-204.12 187.17,-204.12 190.12,-207.08 190.12,-210.04 190.12,-210.04 190.12,-215.96 190.12,-215.96 190.12,-218.92 187.17,-221.88 184.21,-221.88"/>
<text text-anchor="start" x="135.62" y="-209.32" font-family="Helvetica,sans-Serif" font-size="9.00">plugins.mjs</text>
</a>
</g>
</g>
<!-- src/report/index.mjs&#45;&gt;src/report/plugins.mjs -->
<g id="edge25" class="edge">
<title>src/report/index.mjs&#45;&gt;src/report/plugins.mjs</title>
<path fill="none" stroke="#ff00ff" stroke-width="2" stroke-opacity="0.466667" d="M96.13,-183C109.21,-183 122,-183 122,-183 122,-183 122,-213 122,-213 122,-213 122.51,-213 122.51,-213"/>
<polygon fill="#ff00ff" fill-opacity="0.466667" stroke="#ff00ff" stroke-width="2" stroke-opacity="0.466667" points="118.13,-215.1 124.13,-213 118.13,-210.9 118.13,-215.1"/>
</g>
<!-- src/report/json.mjs -->
<g id="node26" class="node">
<title>src/report/json.mjs</title>
<g id="a_node26"><a xlink:href="https://github.com/sverweij/dependency-cruiser/blob/main/src/report/json.mjs" xlink:title="json.mjs">
<path fill="#ffccff" stroke="black" d="M89.46,-161.88C89.46,-161.88 47.29,-161.88 47.29,-161.88 44.33,-161.88 41.38,-158.92 41.38,-155.96 41.38,-155.96 41.38,-150.04 41.38,-150.04 41.38,-147.08 44.33,-144.12 47.29,-144.12 47.29,-144.12 89.46,-144.12 89.46,-144.12 92.42,-144.12 95.38,-147.08 95.38,-150.04 95.38,-150.04 95.38,-155.96 95.38,-155.96 95.38,-158.92 92.42,-161.88 89.46,-161.88"/>
<text text-anchor="start" x="51.5" y="-149.32" font-family="Helvetica,sans-Serif" font-size="9.00">json.mjs</text>
</a>
</g>
</g>
<!-- src/report/markdown.mjs -->
<g id="node27" class="node">
<title>src/report/markdown.mjs</title>
<g id="a_node27"><a xlink:href="https://github.com/sverweij/dependency-cruiser/blob/main/src/report/markdown.mjs" xlink:title="markdown.mjs">
<path fill="#ffccff" stroke="black" d="M100.08,-131.88C100.08,-131.88 36.67,-131.88 36.67,-131.88 33.71,-131.88 30.75,-128.92 30.75,-125.96 30.75,-125.96 30.75,-120.04 30.75,-120.04 30.75,-117.08 33.71,-114.12 36.67,-114.12 36.67,-114.12 100.08,-114.12 100.08,-114.12 103.04,-114.12 106,-117.08 106,-120.04 106,-120.04 106,-125.96 106,-125.96 106,-128.92 103.04,-131.88 100.08,-131.88"/>
<text text-anchor="start" x="38.75" y="-119.33" font-family="Helvetica,sans-Serif" font-size="9.00">markdown.mjs</text>
</a>
</g>
</g>
<!-- src/report/markdown.mjs&#45;&gt;src/report/error&#45;html -->
<g id="edge26" class="edge">
<title>src/report/markdown.mjs&#45;&gt;src/report/error&#45;html</title>
<path fill="none" stroke="#ff00ff" stroke-width="2" stroke-opacity="0.466667" d="M106.49,-123C106.49,-123 121.7,-123 121.7,-123"/>
<polygon fill="#ff00ff" fill-opacity="0.466667" stroke="#ff00ff" stroke-width="2" stroke-opacity="0.466667" points="121.7,-125.1 127.7,-123 121.7,-120.9 121.7,-125.1"/>
</g>
<!-- src/report/mermaid.mjs -->
<g id="node28" class="node">
<title>src/report/mermaid.mjs</title>
<g id="a_node28"><a xlink:href="https://github.com/sverweij/dependency-cruiser/blob/main/src/report/mermaid.mjs" xlink:title="no&#45;orphans">
<path fill="#ffccff" stroke="red" d="M96.71,-101.88C96.71,-101.88 40.04,-101.88 40.04,-101.88 37.08,-101.88 34.12,-98.92 34.12,-95.96 34.12,-95.96 34.12,-90.04 34.12,-90.04 34.12,-87.08 37.08,-84.12 40.04,-84.12 40.04,-84.12 96.71,-84.12 96.71,-84.12 99.67,-84.12 102.62,-87.08 102.62,-90.04 102.62,-90.04 102.62,-95.96 102.62,-95.96 102.62,-98.92 99.67,-101.88 96.71,-101.88"/>
<text text-anchor="start" x="42.12" y="-89.33" font-family="Helvetica,sans-Serif" font-size="9.00" fill="red">mermaid.mjs</text>
</a>
</g>
</g>
<!-- src/report/metrics.mjs -->
<g id="node29" class="node">
<title>src/report/metrics.mjs</title>
<g id="a_node29"><a xlink:href="https://github.com/sverweij/dependency-cruiser/blob/main/src/report/metrics.mjs" xlink:title="metrics.mjs">
<path fill="#ffccff" stroke="black" d="M183.83,-191.88C183.83,-191.88 133.92,-191.88 133.92,-191.88 130.96,-191.88 128,-188.92 128,-185.96 128,-185.96 128,-180.04 128,-180.04 128,-177.08 130.96,-174.12 133.92,-174.12 133.92,-174.12 183.83,-174.12 183.83,-174.12 186.79,-174.12 189.75,-177.08 189.75,-180.04 189.75,-180.04 189.75,-185.96 189.75,-185.96 189.75,-188.92 186.79,-191.88 183.83,-191.88"/>
<text text-anchor="start" x="136" y="-179.32" font-family="Helvetica,sans-Serif" font-size="9.00">metrics.mjs</text>
</a>
</g>
</g>
<!-- src/report/metrics.mjs&#45;&gt;src/report/utl -->
<g id="edge27" class="edge">
<title>src/report/metrics.mjs&#45;&gt;src/report/utl</title>
<path fill="none" stroke="#ff00ff" stroke-width="2" stroke-opacity="0.466667" d="M190.14,-183C218.53,-183 256,-183 256,-183 256,-183 256,-224.62 256,-224.62"/>
<polygon fill="#ff00ff" fill-opacity="0.466667" stroke="#ff00ff" stroke-width="2" stroke-opacity="0.466667" points="253.9,-224.62 256,-230.62 258.1,-224.63 253.9,-224.62"/>
</g>
<!-- src/report/null.mjs -->
<g id="node30" class="node">
<title>src/report/null.mjs</title>
<g id="a_node30"><a xlink:href="https://github.com/sverweij/dependency-cruiser/blob/main/src/report/null.mjs" xlink:title="null.mjs">
<path fill="#ffccff" stroke="black" d="M89.46,-71.88C89.46,-71.88 47.29,-71.88 47.29,-71.88 44.33,-71.88 41.38,-68.92 41.38,-65.96 41.38,-65.96 41.38,-60.04 41.38,-60.04 41.38,-57.08 44.33,-54.12 47.29,-54.12 47.29,-54.12 89.46,-54.12 89.46,-54.12 92.42,-54.12 95.38,-57.08 95.38,-60.04 95.38,-60.04 95.38,-65.96 95.38,-65.96 95.38,-68.92 92.42,-71.88 89.46,-71.88"/>
<text text-anchor="start" x="52.62" y="-59.33" font-family="Helvetica,sans-Serif" font-size="9.00">null.mjs</text>
</a>
</g>
</g>
<!-- src/report/teamcity.mjs -->
<g id="node31" class="node">
<title>src/report/teamcity.mjs</title>
<g id="a_node31"><a xlink:href="https://github.com/sverweij/dependency-cruiser/blob/main/src/report/teamcity.mjs" xlink:title="teamcity.mjs">
<path fill="#ffccff" stroke="black" d="M186.08,-281.88C186.08,-281.88 131.67,-281.88 131.67,-281.88 128.71,-281.88 125.75,-278.92 125.75,-275.96 125.75,-275.96 125.75,-270.04 125.75,-270.04 125.75,-267.08 128.71,-264.12 131.67,-264.12 131.67,-264.12 186.08,-264.12 186.08,-264.12 189.04,-264.12 192,-267.08 192,-270.04 192,-270.04 192,-275.96 192,-275.96 192,-278.92 189.04,-281.88 186.08,-281.88"/>
<text text-anchor="start" x="133.75" y="-269.32" font-family="Helvetica,sans-Serif" font-size="9.00">teamcity.mjs</text>
</a>
</g>
</g>
<!-- src/report/teamcity.mjs&#45;&gt;src/report/utl -->
<g id="edge28" class="edge">
<title>src/report/teamcity.mjs&#45;&gt;src/report/utl</title>
<path fill="none" stroke="#ff00ff" stroke-width="2" stroke-opacity="0.466667" d="M192.3,-273C220.39,-273 256,-273 256,-273 256,-273 256,-261.16 256,-261.16"/>
<polygon fill="#ff00ff" fill-opacity="0.466667" stroke="#ff00ff" stroke-width="2" stroke-opacity="0.466667" points="258.1,-261.16 256,-255.16 253.9,-261.16 258.1,-261.16"/>
</g>
<!-- src/report/text.mjs -->
<g id="node32" class="node">
<title>src/report/text.mjs</title>
<g id="a_node32"><a xlink:href="https://github.com/sverweij/dependency-cruiser/blob/main/src/report/text.mjs" xlink:title="no&#45;orphans">
<path fill="#ffccff" stroke="red" d="M89.46,-41.88C89.46,-41.88 47.29,-41.88 47.29,-41.88 44.33,-41.88 41.38,-38.92 41.38,-35.96 41.38,-35.96 41.38,-30.04 41.38,-30.04 41.38,-27.08 44.33,-24.12 47.29,-24.12 47.29,-24.12 89.46,-24.12 89.46,-24.12 92.42,-24.12 95.38,-27.08 95.38,-30.04 95.38,-30.04 95.38,-35.96 95.38,-35.96 95.38,-38.92 92.42,-41.88 89.46,-41.88"/>
<text text-anchor="start" x="53" y="-29.32" font-family="Helvetica,sans-Serif" font-size="9.00" fill="red">text.mjs</text>
</a>
</g>
</g>
</g>
</svg>
