<svg xmlns="http://www.w3.org/2000/svg" xmlns:xlink="http://www.w3.org/1999/xlink" width="1224" height="661pt" viewBox="0 0 918.03 661.42"><g class="graph" transform="translate(4 657.42)"><path fill="#fff" d="M-4 4v-661.42h918.03V4z"/><g class="node"><a xlink:href="https://github.com/sverweij/dependency-cruiser/blob/main/src/graph-utl/add-focus.mjs" xlink:title="add-focus.mjs"><path fill="#fcc" stroke="#000" d="M560.6-118.01h-59.41c-4.34 0-8.67 4.33-8.67 8.67v8.66c0 4.34 4.33 8.67 8.67 8.67h59.41c4.34 0 8.67-4.33 8.67-8.67v-8.66c0-4.34-4.33-8.67-8.67-8.67"/><text x="504.27" y="-106.46" font-family="Helvetica,sans-Serif" font-size="9">src/graph-utl/</text><text x="500.52" y="-97.46" font-family="Helvetica,sans-Serif" font-size="9" font-weight="bold">add-focus.mjs</text></a></g><g class="node"><a xlink:href="https://github.com/sverweij/dependency-cruiser/blob/main/src/graph-utl/indexed-module-graph.mjs" xlink:title="indexed-module-graph.mjs"><path fill="#fcc" stroke="#000" d="M639.51-157.11H526.84c-4.33 0-8.66 4.34-8.66 8.67v8.67c0 4.33 4.33 8.66 8.66 8.66h112.67c4.33 0 8.67-4.33 8.67-8.66v-8.67c0-4.33-4.34-8.67-8.67-8.67"/><text x="556.55" y="-145.56" font-family="Helvetica,sans-Serif" font-size="9">src/graph-utl/</text><text x="526.18" y="-136.56" font-family="Helvetica,sans-Serif" font-size="9" font-weight="bold">indexed-module-graph.mjs</text></a></g><g class="edge"><path fill="none" stroke="#700" stroke-opacity=".467" stroke-width="2" d="M543.72-118.25v-3.34"/><path fill="#700" fill-opacity=".467" stroke="#700" stroke-opacity=".467" stroke-width="2" d="m541.62-121.59 2.1-6 2.1 6z"/></g><g class="node"><a xlink:href="https://github.com/sverweij/dependency-cruiser/blob/main/src/graph-utl/match-facade.mjs" xlink:title="match-facade.mjs"><path fill="#fcc" stroke="#000" d="M473.35-95.4h-75.92c-4.33 0-8.67 4.33-8.67 8.67v8.66c0 4.34 4.34 8.67 8.67 8.67h75.92c4.33 0 8.66-4.33 8.66-8.67v-8.66c0-4.34-4.33-8.67-8.66-8.67"/><text x="408.76" y="-83.85" font-family="Helvetica,sans-Serif" font-size="9">src/graph-utl/</text><text x="396.76" y="-74.85" font-family="Helvetica,sans-Serif" font-size="9" font-weight="bold">match-facade.mjs</text></a></g><g class="edge"><path fill="none" stroke="#700" stroke-opacity=".467" stroke-width="2" d="M492.13-100h-26.58v.44"/><path fill="#700" fill-opacity=".467" stroke="#700" stroke-opacity=".467" stroke-width="2" d="m467.65-104.59-2.1 6-2.1-6z"/></g><g class="node"><a xlink:href="https://github.com/sverweij/dependency-cruiser/blob/main/src/graph-utl/compare.mjs" xlink:title="compare.mjs"><path fill="#fcc" stroke="#000" d="M297.43-361.86h-54.92c-4.33 0-8.66 4.34-8.66 8.67v8.67c0 4.33 4.33 8.66 8.66 8.66h54.92c4.33 0 8.67-4.33 8.67-8.66v-8.67c0-4.33-4.34-8.67-8.67-8.67"/><text x="243.35" y="-350.31" font-family="Helvetica,sans-Serif" font-size="9">src/graph-utl/</text><text x="241.85" y="-341.31" font-family="Helvetica,sans-Serif" font-size="9" font-weight="bold">compare.mjs</text></a></g><g class="node"><a xlink:href="https://github.com/sverweij/dependency-cruiser/blob/main/src/graph-utl/consolidate-module-dependencies.mjs" xlink:title="consolidate-module-dependencies.mjs"><path fill="#fcc" stroke="#000" d="M172.33-378.75H8.67c-4.34 0-8.67 4.33-8.67 8.66v8.67c0 4.33 4.33 8.67 8.67 8.67h163.66c4.34 0 8.67-4.34 8.67-8.67v-8.67c0-4.33-4.33-8.66-8.67-8.66"/><text x="63.88" y="-367.2" font-family="Helvetica,sans-Serif" font-size="9">src/graph-utl/</text><text x="8" y="-358.2" font-family="Helvetica,sans-Serif" font-size="9" font-weight="bold">consolidate-module-dependencies.mjs</text></a></g><g class="edge"><path fill="none" stroke="#700" stroke-opacity=".467" stroke-width="2" d="M181.29-356h43.41"/><path fill="#700" fill-opacity=".467" stroke="#700" stroke-opacity=".467" stroke-width="2" d="m224.7-358.1 6 2.1-6 2.1z"/></g><g class="node"><a xlink:href="https://github.com/sverweij/dependency-cruiser/blob/main/src/utl/array-util.mjs" xlink:title="utl-module-not-shared-enough"><path fill="#ccc" stroke="#00f" d="M109.78-305.8H54.12c-4.34 0-8.67 4.34-8.67 8.67v8.67c0 4.33 4.33 8.66 8.67 8.66h55.66c4.34 0 8.67-4.33 8.67-8.66v-8.67c0-4.33-4.33-8.67-8.67-8.67"/><text x="68.82" y="-294.25" fill="#00f" font-family="Helvetica,sans-Serif" font-size="9">src/utl/</text><text x="53.45" y="-285.25" fill="#00f" font-family="Helvetica,sans-Serif" font-size="9" font-weight="bold">array-util.mjs</text></a></g><g class="edge"><path fill="none" stroke="#aaa" stroke-opacity=".467" stroke-width="2" d="M69.78-352.37v37.25"/><path fill="#aaa" fill-opacity=".467" stroke="#aaa" stroke-opacity=".467" stroke-width="2" d="m71.88-315.12-2.1 6-2.1-6z"/></g><g class="node"><a xlink:href="https://github.com/sverweij/dependency-cruiser/blob/main/src/graph-utl/consolidate-modules.mjs" xlink:title="consolidate-modules.mjs"><path fill="#fcc" stroke="#000" d="M241.12-327.83H135.2c-4.33 0-8.67 4.33-8.67 8.66v8.67c0 4.33 4.34 8.67 8.67 8.67h105.92c4.33 0 8.66-4.34 8.66-8.67v-8.67c0-4.33-4.33-8.66-8.66-8.66"/><text x="161.53" y="-316.28" font-family="Helvetica,sans-Serif" font-size="9">src/graph-utl/</text><text x="134.53" y="-307.28" font-family="Helvetica,sans-Serif" font-size="9" font-weight="bold">consolidate-modules.mjs</text></a></g><g class="edge"><path fill="none" stroke="#700" stroke-opacity=".467" stroke-width="2" d="M241.82-328.28v-.72"/><path fill="#700" fill-opacity=".467" stroke="#700" stroke-opacity=".467" stroke-width="2" d="m239.72-326.48 2.1-6 2.1 6z"/></g><g class="edge"><path fill="none" stroke="#aaa" stroke-opacity=".467" stroke-width="2" d="M126.22-317h-32.1v1.94"/><path fill="#aaa" fill-opacity=".467" stroke="#aaa" stroke-opacity=".467" stroke-width="2" d="m96.22-315.06-2.1 6-2.1-6z"/></g><g class="node"><a xlink:href="https://github.com/sverweij/dependency-cruiser/blob/main/src/graph-utl/consolidate-to-folder.mjs" xlink:title="consolidate-to-folder.mjs"><path fill="#fcc" stroke="#000" d="M240.56-288.41H136.14c-4.33 0-8.67 4.33-8.67 8.67v8.66c0 4.34 4.34 8.67 8.67 8.67h104.42c4.33 0 8.66-4.33 8.66-8.67v-8.66c0-4.34-4.33-8.67-8.66-8.67"/><text x="161.72" y="-276.86" font-family="Helvetica,sans-Serif" font-size="9">src/graph-utl/</text><text x="135.47" y="-267.86" font-family="Helvetica,sans-Serif" font-size="9" font-weight="bold">consolidate-to-folder.mjs</text></a></g><g class="edge"><path fill="none" stroke="#700" stroke-opacity=".467" stroke-width="2" d="M127.23-284h-4.74v-59.23"/><path fill="#700" fill-opacity=".467" stroke="#700" stroke-opacity=".467" stroke-width="2" d="m120.39-343.23 2.1-6 2.1 6z"/></g><g class="edge"><path fill="none" stroke="#700" stroke-opacity=".467" stroke-width="2" d="M188.35-288.76v-3.71"/><path fill="#700" fill-opacity=".467" stroke="#700" stroke-opacity=".467" stroke-width="2" d="m186.25-292.47 2.1-6 2.1 6z"/></g><g class="node"><a xlink:href="https://github.com/sverweij/dependency-cruiser/blob/main/src/graph-utl/consolidate-to-pattern.mjs" xlink:title="consolidate-to-pattern.mjs"><path fill="#fcc" stroke="#000" d="M308.96-408.22H197.79c-4.33 0-8.66 4.33-8.66 8.66v8.67c0 4.33 4.33 8.67 8.66 8.67h111.17c4.33 0 8.67-4.34 8.67-8.67v-8.67c0-4.33-4.34-8.66-8.67-8.66"/><text x="226.75" y="-396.67" font-family="Helvetica,sans-Serif" font-size="9">src/graph-utl/</text><text x="197.13" y="-387.67" font-family="Helvetica,sans-Serif" font-size="9" font-weight="bold">consolidate-to-pattern.mjs</text></a></g><g class="edge"><path fill="none" stroke="#700" stroke-opacity=".467" stroke-width="2" d="M204.03-381.72V-370h-13.67"/><path fill="#700" fill-opacity=".467" stroke="#700" stroke-opacity=".467" stroke-width="2" d="m190.36-367.9-6-2.1 6-2.1z"/></g><g class="edge"><path fill="none" stroke="#700" stroke-opacity=".467" stroke-width="2" d="M218.94-381.95v44.79"/><path fill="#700" fill-opacity=".467" stroke="#700" stroke-opacity=".467" stroke-width="2" d="m221.04-337.16-2.1 6-2.1-6z"/></g><g class="node"><a xlink:href="https://github.com/sverweij/dependency-cruiser/blob/main/src/graph-utl/filter-bank.mjs" xlink:title="filter-bank.mjs"><path fill="#fcc" stroke="#000" d="M501.46-159.73H441.3c-4.34 0-8.67 4.34-8.67 8.67v8.67c0 4.33 4.33 8.66 8.67 8.66h60.16c4.34 0 8.67-4.33 8.67-8.66v-8.67c0-4.33-4.33-8.67-8.67-8.67"/><text x="444.76" y="-148.18" font-family="Helvetica,sans-Serif" font-size="9">src/graph-utl/</text><text x="440.63" y="-139.18" font-family="Helvetica,sans-Serif" font-size="9" font-weight="bold">filter-bank.mjs</text></a></g><g class="edge"><path fill="none" stroke="#700" stroke-opacity=".467" stroke-width="2" d="M501.33-133.53v6.24"/><path fill="#700" fill-opacity=".467" stroke="#700" stroke-opacity=".467" stroke-width="2" d="m503.43-127.29-2.1 6-2.1-6z"/></g><g class="edge"><path fill="none" stroke="#700" stroke-opacity=".467" stroke-width="2" d="M510.48-145h.73"/><path fill="#700" fill-opacity=".467" stroke="#700" stroke-opacity=".467" stroke-width="2" d="m508.75-147.1 6 2.1-6 2.1z"/></g><g class="edge"><path fill="none" stroke="#700" stroke-opacity=".467" stroke-width="2" d="M449.09-133.4v28.66"/><path fill="#700" fill-opacity=".467" stroke="#700" stroke-opacity=".467" stroke-width="2" d="m451.19-104.74-2.1 6-2.1-6z"/></g><g class="node"><a xlink:href="https://github.com/sverweij/dependency-cruiser/blob/main/src/graph-utl/rule-set.mjs" xlink:title="rule-set.mjs"><path fill="#fcc" stroke="#000" d="M415.89-130.1h-51.92c-4.33 0-8.67 4.34-8.67 8.67v8.67c0 4.33 4.34 8.66 8.67 8.66h51.92c4.33 0 8.66-4.33 8.66-8.66v-8.67c0-4.33-4.33-8.67-8.66-8.67"/><text x="363.3" y="-118.55" font-family="Helvetica,sans-Serif" font-size="9">src/graph-utl/</text><text x="364.43" y="-109.55" font-family="Helvetica,sans-Serif" font-size="9" font-weight="bold">rule-set.mjs</text></a></g><g class="node"><a xlink:href="https://github.com/sverweij/dependency-cruiser/blob/main/src/graph-utl/strip-self-transitions.mjs" xlink:title="strip-self-transitions.mjs"><path fill="#fcc" stroke="#000" d="M438.06-435.75H334.39c-4.33 0-8.67 4.34-8.67 8.67v8.67c0 4.33 4.34 8.66 8.67 8.66h103.67c4.33 0 8.66-4.33 8.66-8.66v-8.67c0-4.33-4.33-8.67-8.66-8.67"/><text x="359.6" y="-424.2" font-family="Helvetica,sans-Serif" font-size="9">src/graph-utl/</text><text x="333.72" y="-415.2" font-family="Helvetica,sans-Serif" font-size="9" font-weight="bold">strip-self-transitions.mjs</text></a></g><g class="node"><a xlink:href="https://github.com/sverweij/dependency-cruiser/blob/main/src/report/anon/anonymize-path-element.mjs" xlink:title="anonymize-path-element.mjs"><path fill="#fcf" stroke="#000" d="M729.1-475.6H606.69c-4.34 0-8.67 4.34-8.67 8.67v8.67c0 4.33 4.33 8.66 8.67 8.66H729.1c4.34 0 8.67-4.33 8.67-8.66v-8.67c0-4.33-4.33-8.67-8.67-8.67"/><text x="636.02" y="-464.05" font-family="Helvetica,sans-Serif" font-size="9">src/report/anon/</text><text x="606.02" y="-455.05" font-family="Helvetica,sans-Serif" font-size="9" font-weight="bold">anonymize-path-element.mjs</text></a></g><g class="node"><a xlink:href="https://github.com/sverweij/dependency-cruiser/blob/main/src/report/anon/random-string.mjs" xlink:title="random-string.mjs"><path fill="#fcf" stroke="#000" d="M887.93-509.6h-77.42c-4.33 0-8.66 4.34-8.66 8.67v8.67c0 4.33 4.33 8.66 8.66 8.66h77.42c4.33 0 8.67-4.33 8.67-8.66v-8.67c0-4.33-4.34-8.67-8.67-8.67"/><text x="817.35" y="-498.05" font-family="Helvetica,sans-Serif" font-size="9">src/report/anon/</text><text x="809.85" y="-489.05" font-family="Helvetica,sans-Serif" font-size="9" font-weight="bold">random-string.mjs</text></a></g><g class="edge"><path fill="none" stroke="#f0f" stroke-opacity=".467" stroke-width="2" d="M738.21-463h80.93v-11.29"/><path fill="#f0f" fill-opacity=".467" stroke="#f0f" stroke-opacity=".467" stroke-width="2" d="m817.04-474.29 2.1-6 2.1 6z"/></g><g class="node"><a xlink:href="https://github.com/sverweij/dependency-cruiser/blob/main/src/report/anon/anonymize-path.mjs" xlink:title="anonymize-path.mjs"><path fill="#fcf" stroke="#000" d="M789.81-417.18H704.9c-4.34 0-8.67 4.34-8.67 8.67v8.67c0 4.33 4.33 8.66 8.67 8.66h84.91c4.34 0 8.67-4.33 8.67-8.66v-8.67c0-4.33-4.33-8.67-8.67-8.67"/><text x="715.48" y="-405.63" font-family="Helvetica,sans-Serif" font-size="9">src/report/anon/</text><text x="704.23" y="-396.63" font-family="Helvetica,sans-Serif" font-size="9" font-weight="bold">anonymize-path.mjs</text></a></g><g class="edge"><path fill="none" stroke="#f0f" stroke-opacity=".467" stroke-width="2" d="M717-417.43v-22.94"/><path fill="#f0f" fill-opacity=".467" stroke="#f0f" stroke-opacity=".467" stroke-width="2" d="m714.9-440.37 2.1-6 2.1 6z"/></g><g class="node"><a xlink:href="https://github.com/sverweij/dependency-cruiser/blob/main/src/report/anon/index.mjs" xlink:title="index.mjs"><path fill="#fcf" stroke="#000" d="M755.94-600.62h-62.41c-4.34 0-8.67 4.33-8.67 8.66v8.67c0 4.33 4.33 8.67 8.67 8.67h62.41c4.34 0 8.67-4.34 8.67-8.67v-8.67c0-4.33-4.33-8.66-8.67-8.66"/><text x="692.86" y="-589.07" font-family="Helvetica,sans-Serif" font-size="9">src/report/anon/</text><text x="704.11" y="-580.07" font-family="Helvetica,sans-Serif" font-size="9" font-weight="bold">index.mjs</text></a></g><g class="edge"><path fill="none" stroke="#f0f" stroke-opacity=".467" stroke-width="2" d="M751.19-574.13v147.91"/><path fill="#f0f" fill-opacity=".467" stroke="#f0f" stroke-opacity=".467" stroke-width="2" d="m753.29-426.22-2.1 6-2.1-6z"/></g><g class="node"><a xlink:href="https://github.com/sverweij/dependency-cruiser/blob/main/src/report/azure-devops.mjs" xlink:title="azure-devops.mjs"><path fill="#fcf" stroke="#000" d="M711.65-332.5h-75.17c-4.33 0-8.67 4.33-8.67 8.66v8.67c0 4.33 4.34 8.67 8.67 8.67h75.17c4.33 0 8.66-4.34 8.66-8.67v-8.67c0-4.33-4.33-8.66-8.66-8.66"/><text x="653.81" y="-320.95" font-family="Helvetica,sans-Serif" font-size="9">src/report/</text><text x="635.81" y="-311.95" font-family="Helvetica,sans-Serif" font-size="9" font-weight="bold">azure-devops.mjs</text></a></g><g class="node"><a xlink:href="https://github.com/sverweij/dependency-cruiser/blob/main/src/report/utl/index.mjs" xlink:title="index.mjs"><path fill="#fcf" stroke="#000" d="M611.13-305.77h-51.17c-4.33 0-8.66 4.34-8.66 8.67v8.67c0 4.33 4.33 8.66 8.66 8.66h51.17c4.33 0 8.67-4.33 8.67-8.66v-8.67c0-4.33-4.34-8.67-8.67-8.67"/><text x="559.3" y="-294.22" font-family="Helvetica,sans-Serif" font-size="9">src/report/utl/</text><text x="564.92" y="-285.22" font-family="Helvetica,sans-Serif" font-size="9" font-weight="bold">index.mjs</text></a></g><g class="edge"><path fill="none" stroke="#f0f" stroke-opacity=".467" stroke-width="2" d="M636.78-306.06v5.06h-7.46"/><path fill="#f0f" fill-opacity=".467" stroke="#f0f" stroke-opacity=".467" stroke-width="2" d="m629.32-298.9-6-2.1 6-2.1z"/></g><g class="node"><a xlink:href="https://github.com/sverweij/dependency-cruiser/blob/main/src/report/baseline.mjs" xlink:title="no-orphans"><path fill="#fcf" stroke="red" d="M705.75-49h-52.67c-4.33 0-8.67 4.33-8.67 8.67v8.66c0 4.34 4.34 8.67 8.67 8.67h52.67c4.33 0 8.66-4.33 8.66-8.67v-8.66c0-4.34-4.33-8.67-8.66-8.67"/><text x="659.16" y="-37.45" fill="red" font-family="Helvetica,sans-Serif" font-size="9">src/report/</text><text x="652.41" y="-28.45" fill="red" font-family="Helvetica,sans-Serif" font-size="9" font-weight="bold">baseline.mjs</text></a></g><g class="node"><a xlink:href="https://github.com/sverweij/dependency-cruiser/blob/main/src/report/csv.mjs" xlink:title="csv.mjs"><path fill="#fcf" stroke="#000" d="M415.82-560.78h-39.16c-4.34 0-8.67 4.33-8.67 8.67v8.66c0 4.34 4.33 8.67 8.67 8.67h39.16c4.34 0 8.67-4.33 8.67-8.67v-8.66c0-4.34-4.33-8.67-8.67-8.67"/><text x="375.99" y="-549.23" font-family="Helvetica,sans-Serif" font-size="9">src/report/</text><text x="379.74" y="-540.23" font-family="Helvetica,sans-Serif" font-size="9" font-weight="bold">csv.mjs</text></a></g><g class="node"><a xlink:href="https://github.com/sverweij/dependency-cruiser/blob/main/src/report/utl/dependency-to-incidence-transformer.mjs" xlink:title="dependency-to-incidence-transformer.mjs"><path fill="#fcf" stroke="#000" d="M624.09-619.42H445.42c-4.33 0-8.67 4.34-8.67 8.67v8.67c0 4.33 4.34 8.66 8.67 8.66h178.67c4.33 0 8.66-4.33 8.66-8.66v-8.67c0-4.33-4.33-8.67-8.66-8.67"/><text x="508.5" y="-607.87" font-family="Helvetica,sans-Serif" font-size="9">src/report/utl/</text><text x="444.75" y="-598.87" font-family="Helvetica,sans-Serif" font-size="9" font-weight="bold">dependency-to-incidence-transformer.mjs</text></a></g><g class="edge"><path fill="none" stroke="#f0f" stroke-opacity=".467" stroke-width="2" d="M424.99-543h24.97v-40.94"/><path fill="#f0f" fill-opacity=".467" stroke="#f0f" stroke-opacity=".467" stroke-width="2" d="m447.86-583.94 2.1-6 2.1 6z"/></g><g class="node"><a xlink:href="https://github.com/sverweij/dependency-cruiser/blob/main/src/report/d2.mjs" xlink:title="d2.mjs"><path fill="#fcf" stroke="#000" d="M618.89-421.05h-39.17c-4.33 0-8.66 4.33-8.66 8.66v8.67c0 4.33 4.33 8.67 8.66 8.67h39.17c4.33 0 8.67-4.34 8.67-8.67v-8.67c0-4.33-4.34-8.66-8.67-8.66"/><text x="579.06" y="-409.5" font-family="Helvetica,sans-Serif" font-size="9">src/report/</text><text x="585.06" y="-400.5" font-family="Helvetica,sans-Serif" font-size="9" font-weight="bold">d2.mjs</text></a></g><g class="edge"><path fill="none" stroke="#f0f" stroke-opacity=".467" stroke-width="2" d="M594.82-394.83v79.61"/><path fill="#f0f" fill-opacity=".467" stroke="#f0f" stroke-opacity=".467" stroke-width="2" d="m596.92-315.22-2.1 6-2.1-6z"/></g><g class="node"><a xlink:href="https://github.com/sverweij/dependency-cruiser/blob/main/src/report/dot-webpage/dot-module.mjs" xlink:title="dot-module.mjs"><path fill="#fcf" stroke="#000" d="M749.83-261.58h-95.41c-4.34 0-8.67 4.33-8.67 8.67v8.66c0 4.34 4.33 8.67 8.67 8.67h95.41c4.34 0 8.67-4.33 8.67-8.67v-8.66c0-4.34-4.33-8.67-8.67-8.67"/><text x="653.75" y="-250.03" font-family="Helvetica,sans-Serif" font-size="9">src/report/dot-webpage/</text><text x="669.13" y="-241.03" font-family="Helvetica,sans-Serif" font-size="9" font-weight="bold">dot-module.mjs</text></a></g><g class="node"><a xlink:href="https://github.com/sverweij/dependency-cruiser/blob/main/src/report/dot/dot-module.mjs" xlink:title="dot-module.mjs"><path fill="#fcf" stroke="#000" d="M596.13-233.16h-64.67c-4.33 0-8.67 4.34-8.67 8.67v8.67c0 4.33 4.34 8.66 8.67 8.66h64.67c4.33 0 8.66-4.33 8.66-8.66v-8.67c0-4.33-4.33-8.67-8.66-8.67"/><text x="536.04" y="-221.61" font-family="Helvetica,sans-Serif" font-size="9">src/report/dot/</text><text x="530.79" y="-212.61" font-family="Helvetica,sans-Serif" font-size="9" font-weight="bold">dot-module.mjs</text></a></g><g class="edge"><path fill="none" stroke="#f0f" stroke-opacity=".467" stroke-width="2" d="M655.23-235.19V-223h-40.97"/><path fill="#f0f" fill-opacity=".467" stroke="#f0f" stroke-opacity=".467" stroke-width="2" d="m614.26-220.9-6-2.1 6-2.1z"/></g><g class="node"><a xlink:href="https://github.com/sverweij/dependency-cruiser/blob/main/src/report/dot-webpage/wrap-in-html.mjs" xlink:title="wrap-in-html.mjs"><path fill="#fcf" stroke="#000" d="M827.78-295.6h-95.42c-4.33 0-8.67 4.33-8.67 8.67v8.66c0 4.34 4.34 8.67 8.67 8.67h95.42c4.33 0 8.66-4.33 8.66-8.67v-8.66c0-4.34-4.33-8.67-8.66-8.67"/><text x="731.69" y="-284.05" font-family="Helvetica,sans-Serif" font-size="9">src/report/dot-webpage/</text><text x="744.44" y="-275.05" font-family="Helvetica,sans-Serif" font-size="9" font-weight="bold">wrap-in-html.mjs</text></a></g><g class="edge"><path fill="none" stroke="#f0f" stroke-opacity=".467" stroke-width="2" d="M741.1-262.03v-.72"/><path fill="#f0f" fill-opacity=".467" stroke="#f0f" stroke-opacity=".467" stroke-width="2" d="m739-260.23 2.1-6 2.1 6z"/></g><g class="node"><a xlink:href="https://github.com/sverweij/dependency-cruiser/blob/main/src/report/dot/index.mjs" xlink:title="index.mjs"><path fill="#fcf" stroke="#000" d="M449.12-277.54h-54.17c-4.33 0-8.66 4.33-8.66 8.67v8.66c0 4.34 4.33 8.67 8.66 8.67h54.17c4.33 0 8.67-4.33 8.67-8.67v-8.66c0-4.34-4.34-8.67-8.67-8.67"/><text x="394.29" y="-265.99" font-family="Helvetica,sans-Serif" font-size="9">src/report/dot/</text><text x="401.41" y="-256.99" font-family="Helvetica,sans-Serif" font-size="9" font-weight="bold">index.mjs</text></a></g><g class="edge"><path fill="none" stroke="#f0f" stroke-opacity=".467" stroke-width="2" d="M522.4-219h-72.38v-23.1"/><path fill="#f0f" fill-opacity=".467" stroke="#f0f" stroke-opacity=".467" stroke-width="2" d="m447.93-242.1 2.1-6 2.1 6z"/></g><g class="node"><a xlink:href="https://github.com/sverweij/dependency-cruiser/blob/main/src/report/dot/default-theme.mjs" xlink:title="default-theme.mjs"><path fill="#fcf" stroke="#000" d="M539.39-441.36h-75.92c-4.33 0-8.66 4.34-8.66 8.67v8.67c0 4.33 4.33 8.66 8.66 8.66h75.92c4.33 0 8.67-4.33 8.67-8.66v-8.67c0-4.33-4.34-8.67-8.67-8.67"/><text x="473.68" y="-429.81" font-family="Helvetica,sans-Serif" font-size="9">src/report/dot/</text><text x="462.81" y="-420.81" font-family="Helvetica,sans-Serif" font-size="9" font-weight="bold">default-theme.mjs</text></a></g><g class="node"><a xlink:href="https://github.com/sverweij/dependency-cruiser/blob/main/src/report/dot/dot-custom.mjs" xlink:title="dot-custom.mjs"><path fill="#fcf" stroke="#000" d="M322.79-254.4h-65.42c-4.33 0-8.67 4.33-8.67 8.66v8.67c0 4.33 4.34 8.67 8.67 8.67h65.42c4.33 0 8.66-4.34 8.66-8.67v-8.67c0-4.33-4.33-8.66-8.66-8.66"/><text x="262.33" y="-242.85" font-family="Helvetica,sans-Serif" font-size="9">src/report/dot/</text><text x="256.7" y="-233.85" font-family="Helvetica,sans-Serif" font-size="9" font-weight="bold">dot-custom.mjs</text></a></g><g class="edge"><path fill="none" stroke="#f0f" stroke-opacity=".467" stroke-width="2" d="M331.67-241h65.99v-1.09"/><path fill="#f0f" fill-opacity=".467" stroke="#f0f" stroke-opacity=".467" stroke-width="2" d="m395.56-242.09 2.1-6 2.1 6z"/></g><g class="edge"><path fill="none" stroke="#700" stroke-opacity=".467" stroke-width="2" d="M429.94-251.07V-151h.22"/><path fill="#700" fill-opacity=".467" stroke="#700" stroke-opacity=".467" stroke-width="2" d="m423.14-153.1 6 2.1-6 2.1z"/></g><g class="node"><a xlink:href="https://github.com/sverweij/dependency-cruiser/blob/main/src/report/dot/module-utl.mjs" xlink:title="module-utl.mjs"><path fill="#fcf" stroke="#000" d="M534.59-325.3h-61.66c-4.34 0-8.67 4.33-8.67 8.66v8.67c0 4.33 4.33 8.67 8.67 8.67h61.66c4.34 0 8.67-4.34 8.67-8.67v-8.67c0-4.33-4.33-8.66-8.67-8.66"/><text x="476.01" y="-313.75" font-family="Helvetica,sans-Serif" font-size="9">src/report/dot/</text><text x="472.26" y="-304.75" font-family="Helvetica,sans-Serif" font-size="9" font-weight="bold">module-utl.mjs</text></a></g><g class="edge"><path fill="none" stroke="#f0f" stroke-opacity=".467" stroke-width="2" d="M432.92-277.84V-284h83.01v-5.79"/><path fill="#f0f" fill-opacity=".467" stroke="#f0f" stroke-opacity=".467" stroke-width="2" d="m513.83-289.79 2.1-6 2.1 6z"/></g><g class="node"><a xlink:href="https://github.com/sverweij/dependency-cruiser/blob/main/src/report/dot/prepare-custom-level.mjs" xlink:title="prepare-custom-level.mjs"><path fill="#fcf" stroke="#000" d="M437.65-374.2H328.73c-4.33 0-8.67 4.33-8.67 8.67v8.66c0 4.34 4.34 8.67 8.67 8.67h108.92c4.33 0 8.66-4.33 8.66-8.67v-8.66c0-4.34-4.33-8.67-8.66-8.67"/><text x="355.44" y="-362.65" font-family="Helvetica,sans-Serif" font-size="9">src/report/dot/</text><text x="328.06" y="-353.65" font-family="Helvetica,sans-Serif" font-size="9" font-weight="bold">prepare-custom-level.mjs</text></a></g><g class="edge"><path fill="none" stroke="#f0f" stroke-opacity=".467" stroke-width="2" d="M386.11-270h-5.41v-68.72"/><path fill="#f0f" fill-opacity=".467" stroke="#f0f" stroke-opacity=".467" stroke-width="2" d="m378.6-338.72 2.1-6 2.1 6z"/></g><g class="node"><a xlink:href="https://github.com/sverweij/dependency-cruiser/blob/main/src/report/dot/prepare-flat-level.mjs" xlink:title="prepare-flat-level.mjs"><path fill="#fcf" stroke="#000" d="M554.29-407.05h-90.17c-4.33 0-8.66 4.33-8.66 8.67v8.66c0 4.34 4.33 8.67 8.66 8.67h90.17c4.33 0 8.67-4.33 8.67-8.67v-8.66c0-4.34-4.34-8.67-8.67-8.67"/><text x="481.46" y="-395.5" font-family="Helvetica,sans-Serif" font-size="9">src/report/dot/</text><text x="463.46" y="-386.5" font-family="Helvetica,sans-Serif" font-size="9" font-weight="bold">prepare-flat-level.mjs</text></a></g><g class="edge"><path fill="none" stroke="#f0f" stroke-opacity=".467" stroke-width="2" d="M385.84-258h-7.16v-84h99.52v-29.62"/><path fill="#f0f" fill-opacity=".467" stroke="#f0f" stroke-opacity=".467" stroke-width="2" d="m476.1-371.62 2.1-6 2.1 6z"/></g><g class="node"><a xlink:href="https://github.com/sverweij/dependency-cruiser/blob/main/src/report/dot/prepare-folder-level.mjs" xlink:title="prepare-folder-level.mjs"><path fill="#fcf" stroke="#000" d="M368-300.37H266.58c-4.33 0-8.67 4.34-8.67 8.67v8.67c0 4.33 4.34 8.66 8.67 8.66H368c4.33 0 8.66-4.33 8.66-8.66v-8.67c0-4.33-4.33-8.67-8.66-8.67"/><text x="289.54" y="-288.82" font-family="Helvetica,sans-Serif" font-size="9">src/report/dot/</text><text x="265.91" y="-279.82" font-family="Helvetica,sans-Serif" font-size="9" font-weight="bold">prepare-folder-level.mjs</text></a></g><g class="edge"><path fill="none" stroke="#f0f" stroke-opacity=".467" stroke-width="2" d="M385.9-266h-25.37v-.82"/><path fill="#f0f" fill-opacity=".467" stroke="#f0f" stroke-opacity=".467" stroke-width="2" d="m358.43-265.17 2.1-6 2.1 6z"/></g><g class="node"><a xlink:href="https://github.com/sverweij/dependency-cruiser/blob/main/src/report/dot/theming.mjs" xlink:title="theming.mjs"><path fill="#fcf" stroke="#000" d="M447.58-319.65h-54.17c-4.33 0-8.67 4.33-8.67 8.66v8.67c0 4.33 4.34 8.67 8.67 8.67h54.17c4.33 0 8.66-4.34 8.66-8.67v-8.67c0-4.33-4.33-8.66-8.66-8.66"/><text x="392.74" y="-308.1" font-family="Helvetica,sans-Serif" font-size="9">src/report/dot/</text><text x="394.24" y="-299.1" font-family="Helvetica,sans-Serif" font-size="9" font-weight="bold">theming.mjs</text></a></g><g class="edge"><path fill="none" stroke="#f0f" stroke-opacity=".467" stroke-width="2" d="M409.6-277.86v-6.38"/><path fill="#f0f" fill-opacity=".467" stroke="#f0f" stroke-opacity=".467" stroke-width="2" d="m407.5-284.24 2.1-6 2.1 6z"/></g><g class="node"><a xlink:href="https://github.com/sverweij/dependency-cruiser/blob/main/src/utl/object-util.mjs" xlink:title="utl-module-not-shared-enough"><path fill="#ccc" stroke="#00f" d="M411.73-228.38h-58.67c-4.33 0-8.67 4.33-8.67 8.66v8.67c0 4.33 4.34 8.67 8.67 8.67h58.67c4.33 0 8.66-4.34 8.66-8.67v-8.67c0-4.33-4.33-8.66-8.66-8.66"/><text x="369.27" y="-216.83" fill="#00f" font-family="Helvetica,sans-Serif" font-size="9">src/utl/</text><text x="352.39" y="-207.83" fill="#00f" font-family="Helvetica,sans-Serif" font-size="9" font-weight="bold">object-util.mjs</text></a></g><g class="edge"><path fill="none" stroke="#aaa" stroke-opacity=".467" stroke-width="2" d="M409.02-251.11v13.28"/><path fill="#aaa" fill-opacity=".467" stroke="#aaa" stroke-opacity=".467" stroke-width="2" d="m411.12-237.83-2.1 6-2.1-6z"/></g><g class="node"><a xlink:href="https://github.com/sverweij/dependency-cruiser/blob/main/src/report/dot/dot-flat.mjs" xlink:title="dot-flat.mjs"><path fill="#fcf" stroke="#000" d="M497.34-210.59h-54.17c-4.33 0-8.67 4.34-8.67 8.67v8.67c0 4.33 4.34 8.66 8.67 8.66h54.17c4.33 0 8.66-4.33 8.66-8.66v-8.67c0-4.33-4.33-8.67-8.66-8.67"/><text x="442.5" y="-199.04" font-family="Helvetica,sans-Serif" font-size="9">src/report/dot/</text><text x="446.25" y="-190.04" font-family="Helvetica,sans-Serif" font-size="9" font-weight="bold">dot-flat.mjs</text></a></g><g class="edge"><path fill="none" stroke="#f0f" stroke-opacity=".467" stroke-width="2" d="M442.26-210.81v-31.5"/><path fill="#f0f" fill-opacity=".467" stroke="#f0f" stroke-opacity=".467" stroke-width="2" d="m440.16-242.31 2.1-6 2.1 6z"/></g><g class="node"><a xlink:href="https://github.com/sverweij/dependency-cruiser/blob/main/src/report/dot/dot-folder.mjs" xlink:title="dot-folder.mjs"><path fill="#fcf" stroke="#000" d="M532.1-279.89h-57.17c-4.33 0-8.66 4.34-8.66 8.67v8.67c0 4.33 4.33 8.66 8.66 8.66h57.17c4.33 0 8.67-4.33 8.67-8.66v-8.67c0-4.33-4.34-8.67-8.67-8.67"/><text x="475.77" y="-268.34" font-family="Helvetica,sans-Serif" font-size="9">src/report/dot/</text><text x="474.27" y="-259.34" font-family="Helvetica,sans-Serif" font-size="9" font-weight="bold">dot-folder.mjs</text></a></g><g class="edge"><path fill="none" stroke="#f0f" stroke-opacity=".467" stroke-width="2" d="M466.11-266h-.8"/><path fill="#f0f" fill-opacity=".467" stroke="#f0f" stroke-opacity=".467" stroke-width="2" d="m467.1-263.9-6-2.1 6-2.1z"/></g><g class="edge"><path fill="none" stroke="#f0f" stroke-opacity=".467" stroke-width="2" d="M543.57-316h20.89v1"/><path fill="#f0f" fill-opacity=".467" stroke="#f0f" stroke-opacity=".467" stroke-width="2" d="m566.56-315.04-2.1 6-2.1-6z"/></g><g class="edge"><path fill="none" stroke="#700" stroke-opacity=".467" stroke-width="2" d="M319.63-355h-4.28"/><path fill="#700" fill-opacity=".467" stroke="#700" stroke-opacity=".467" stroke-width="2" d="m315.35-352.9-6-2.1 6-2.1z"/></g><g class="edge"><path fill="none" stroke="#700" stroke-opacity=".467" stroke-width="2" d="M319.77-366h-7.91v-6.95"/><path fill="#700" fill-opacity=".467" stroke="#700" stroke-opacity=".467" stroke-width="2" d="m309.76-372.95 2.1-6 2.1 6z"/></g><g class="edge"><path fill="none" stroke="#700" stroke-opacity=".467" stroke-width="2" d="M386.02-374.56v-25.83"/><path fill="#700" fill-opacity=".467" stroke="#700" stroke-opacity=".467" stroke-width="2" d="m383.92-400.39 2.1-6 2.1 6z"/></g><g class="edge"><path fill="none" stroke="#f0f" stroke-opacity=".467" stroke-width="2" d="M446.57-357h45.58v22.5"/><path fill="#f0f" fill-opacity=".467" stroke="#f0f" stroke-opacity=".467" stroke-width="2" d="m494.25-334.5-2.1 6-2.1-6z"/></g><g class="edge"><path fill="none" stroke="#f0f" stroke-opacity=".467" stroke-width="2" d="M415.53-347.72v18.71"/><path fill="#f0f" fill-opacity=".467" stroke="#f0f" stroke-opacity=".467" stroke-width="2" d="m417.63-329.01-2.1 6-2.1-6z"/></g><g class="edge"><path fill="none" stroke="#700" stroke-opacity=".467" stroke-width="2" d="M553.43-407.44V-445H185.06v86h39.38"/><path fill="#700" fill-opacity=".467" stroke="#700" stroke-opacity=".467" stroke-width="2" d="m224.44-361.1 6 2.1-6 2.1z"/></g><g class="edge"><path fill="none" stroke="#f0f" stroke-opacity=".467" stroke-width="2" d="M506.09-380.55v45.97"/><path fill="#f0f" fill-opacity=".467" stroke="#f0f" stroke-opacity=".467" stroke-width="2" d="m508.19-334.58-2.1 6-2.1-6z"/></g><g class="edge"><path fill="none" stroke="#f0f" stroke-opacity=".467" stroke-width="2" d="M455.05-395h-1.86v65.9"/><path fill="#f0f" fill-opacity=".467" stroke="#f0f" stroke-opacity=".467" stroke-width="2" d="m455.29-329.1-2.1 6-2.1-6z"/></g><g class="edge"><path fill="none" stroke="#700" stroke-opacity=".467" stroke-width="2" d="M282.01-300.71v-25.8"/><path fill="#700" fill-opacity=".467" stroke="#700" stroke-opacity=".467" stroke-width="2" d="m279.91-326.51 2.1-6 2.1 6z"/></g><g class="edge"><path fill="none" stroke="#700" stroke-opacity=".467" stroke-width="2" d="M257.72-281h-.83"/><path fill="#700" fill-opacity=".467" stroke="#700" stroke-opacity=".467" stroke-width="2" d="m258.42-278.9-6-2.1 6-2.1z"/></g><g class="edge"><path fill="none" stroke="#700" stroke-opacity=".467" stroke-width="2" d="M338.93-300.73V-345h109.41v-84h-.15"/><path fill="#700" fill-opacity=".467" stroke="#700" stroke-opacity=".467" stroke-width="2" d="m455.83-426.9-6-2.1 6-2.1z"/></g><g class="edge"><path fill="none" stroke="#f0f" stroke-opacity=".467" stroke-width="2" d="M377.1-289h114v-1"/><path fill="#f0f" fill-opacity=".467" stroke="#f0f" stroke-opacity=".467" stroke-width="2" d="m489-289.99 2.1-6 2.1 6z"/></g><g class="edge"><path fill="none" stroke="#f0f" stroke-opacity=".467" stroke-width="2" d="M357.8-300.68V-314h17.56"/><path fill="#f0f" fill-opacity=".467" stroke="#f0f" stroke-opacity=".467" stroke-width="2" d="m375.36-316.1 6 2.1-6 2.1z"/></g><g class="edge"><path fill="none" stroke="#f0f" stroke-opacity=".467" stroke-width="2" d="M451.57-319.88V-422h.3"/><path fill="#f0f" fill-opacity=".467" stroke="#f0f" stroke-opacity=".467" stroke-width="2" d="m445.52-424.1 6 2.1-6 2.1z"/></g><g class="edge"><path fill="none" stroke="#f0f" stroke-opacity=".467" stroke-width="2" d="M456.29-309h.77"/><path fill="#f0f" fill-opacity=".467" stroke="#f0f" stroke-opacity=".467" stroke-width="2" d="m454.98-311.1 6 2.1-6 2.1z"/></g><g class="edge"><path fill="none" stroke="#aaa" stroke-opacity=".467" stroke-width="2" d="M384.35-308h-1.63v70.32"/><path fill="#aaa" fill-opacity=".467" stroke="#aaa" stroke-opacity=".467" stroke-width="2" d="m384.82-237.68-2.1 6-2.1-6z"/></g><g class="node"><a xlink:href="https://github.com/sverweij/dependency-cruiser/blob/main/src/report/error-html/error-html-template.mjs" xlink:title="error-html-template.mjs"><path fill="#fcf" stroke="#000" d="M901.36-211.93H800.7c-4.34 0-8.67 4.33-8.67 8.66v8.67c0 4.33 4.33 8.67 8.67 8.67h100.66c4.34 0 8.67-4.34 8.67-8.67v-8.67c0-4.33-4.33-8.66-8.67-8.66"/><text x="809.78" y="-200.38" font-family="Helvetica,sans-Serif" font-size="9">src/report/error-html/</text><text x="800.03" y="-191.38" font-family="Helvetica,sans-Serif" font-size="9" font-weight="bold">error-html-template.mjs</text></a></g><g class="node"><a xlink:href="https://github.com/sverweij/dependency-cruiser/blob/main/src/report/error-html/index.mjs" xlink:title="index.mjs"><path fill="#fcf" stroke="#000" d="M775.25-202.07h-81.16c-4.34 0-8.67 4.33-8.67 8.66v8.67c0 4.33 4.33 8.67 8.67 8.67h81.16c4.34 0 8.67-4.34 8.67-8.67v-8.67c0-4.33-4.33-8.66-8.67-8.66"/><text x="693.42" y="-190.52" font-family="Helvetica,sans-Serif" font-size="9">src/report/error-html/</text><text x="714.04" y="-181.52" font-family="Helvetica,sans-Serif" font-size="9" font-weight="bold">index.mjs</text></a></g><g class="edge"><path fill="none" stroke="#f0f" stroke-opacity=".467" stroke-width="2" d="M784.35-194h.75"/><path fill="#f0f" fill-opacity=".467" stroke="#f0f" stroke-opacity=".467" stroke-width="2" d="m782.78-196.1 6 2.1-6 2.1z"/></g><g class="node"><a xlink:href="https://github.com/sverweij/dependency-cruiser/blob/main/src/report/error-html/utl.mjs" xlink:title="utl.mjs"><path fill="#fcf" stroke="#000" d="M656.04-199.13h-81.17c-4.33 0-8.67 4.33-8.67 8.66v8.67c0 4.33 4.34 8.67 8.67 8.67h81.17c4.33 0 8.66-4.34 8.66-8.67v-8.67c0-4.33-4.33-8.66-8.66-8.66"/><text x="574.2" y="-187.58" font-family="Helvetica,sans-Serif" font-size="9">src/report/error-html/</text><text x="601.2" y="-178.58" font-family="Helvetica,sans-Serif" font-size="9" font-weight="bold">utl.mjs</text></a></g><g class="edge"><path fill="none" stroke="#f0f" stroke-opacity=".467" stroke-width="2" d="M685.15-188h-11.11"/><path fill="#f0f" fill-opacity=".467" stroke="#f0f" stroke-opacity=".467" stroke-width="2" d="m674.04-185.9-6-2.1 6-2.1z"/></g><g class="edge"><path fill="none" stroke="#f0f" stroke-opacity=".467" stroke-width="2" d="M612.3-199.21v-71.35"/><path fill="#f0f" fill-opacity=".467" stroke="#f0f" stroke-opacity=".467" stroke-width="2" d="m610.2-270.56 2.1-6 2.1 6z"/></g><g class="node"><a xlink:href="https://github.com/sverweij/dependency-cruiser/blob/main/src/report/error-long.mjs" xlink:title="error-long.mjs"><path fill="#fcf" stroke="#000" d="M338.56-110.6h-59.42c-4.33 0-8.66 4.33-8.66 8.67v8.66c0 4.34 4.33 8.67 8.66 8.67h59.42c4.33 0 8.67-4.33 8.67-8.67v-8.66c0-4.34-4.34-8.67-8.67-8.67"/><text x="288.6" y="-99.05" font-family="Helvetica,sans-Serif" font-size="9">src/report/</text><text x="278.48" y="-90.05" font-family="Helvetica,sans-Serif" font-size="9" font-weight="bold">error-long.mjs</text></a></g><g class="node"><a xlink:href="https://github.com/sverweij/dependency-cruiser/blob/main/src/report/error.mjs" xlink:title="error.mjs"><path fill="#fcf" stroke="#000" d="M415.89-189.17h-39.17c-4.33 0-8.66 4.33-8.66 8.66v8.67c0 4.33 4.33 8.67 8.66 8.67h39.17c4.33 0 8.67-4.34 8.67-8.67v-8.67c0-4.33-4.34-8.66-8.67-8.66"/><text x="376.06" y="-177.62" font-family="Helvetica,sans-Serif" font-size="9">src/report/</text><text x="376.81" y="-168.62" font-family="Helvetica,sans-Serif" font-size="9" font-weight="bold">error.mjs</text></a></g><g class="edge"><path fill="none" stroke="#f0f" stroke-opacity=".467" stroke-width="2" d="M308.85-110.68V-142h78.04v-12.03"/><path fill="#f0f" fill-opacity=".467" stroke="#f0f" stroke-opacity=".467" stroke-width="2" d="m384.79-154.03 2.1-6 2.1 6z"/></g><g class="edge"><path fill="none" stroke="#700" stroke-opacity=".467" stroke-width="2" d="M405.72-162.77v23.29"/><path fill="#700" fill-opacity=".467" stroke="#700" stroke-opacity=".467" stroke-width="2" d="m407.82-139.48-2.1 6-2.1-6z"/></g><g class="edge"><path fill="none" stroke="#f0f" stroke-opacity=".467" stroke-width="2" d="M424.82-179h2.43v-67h150.8v-24.46"/><path fill="#f0f" fill-opacity=".467" stroke="#f0f" stroke-opacity=".467" stroke-width="2" d="m575.95-270.46 2.1-6 2.1 6z"/></g><g class="node"><a xlink:href="https://github.com/sverweij/dependency-cruiser/blob/main/src/utl/wrap-and-indent.mjs" xlink:title="utl-module-not-shared-enough"><path fill="#ccc" stroke="#00f" d="M350.81-185.63h-85.67c-4.33 0-8.66 4.33-8.66 8.66v8.67c0 4.33 4.33 8.67 8.66 8.67h85.67c4.33 0 8.67-4.34 8.67-8.67v-8.67c0-4.33-4.34-8.66-8.67-8.66"/><text x="294.85" y="-174.08" fill="#00f" font-family="Helvetica,sans-Serif" font-size="9">src/utl/</text><text x="264.48" y="-165.08" fill="#00f" font-family="Helvetica,sans-Serif" font-size="9" font-weight="bold">wrap-and-indent.mjs</text></a></g><g class="edge"><path fill="none" stroke="#aaa" stroke-opacity=".467" stroke-width="2" d="M367.87-174h-.8"/><path fill="#aaa" fill-opacity=".467" stroke="#aaa" stroke-opacity=".467" stroke-width="2" d="m368.82-171.9-6-2.1 6-2.1z"/></g><g class="node"><a xlink:href="https://github.com/sverweij/dependency-cruiser/blob/main/src/report/html/html-template.mjs" xlink:title="html-template.mjs"><path fill="#fcf" stroke="#000" d="M550.13-509.77h-75.92c-4.33 0-8.67 4.33-8.67 8.66v8.67c0 4.33 4.34 8.67 8.67 8.67h75.92c4.33 0 8.66-4.34 8.66-8.67v-8.67c0-4.33-4.33-8.66-8.66-8.66"/><text x="482.17" y="-498.22" font-family="Helvetica,sans-Serif" font-size="9">src/report/html/</text><text x="473.54" y="-489.22" font-family="Helvetica,sans-Serif" font-size="9" font-weight="bold">html-template.mjs</text></a></g><g class="node"><a xlink:href="https://github.com/sverweij/dependency-cruiser/blob/main/src/report/html/index.mjs" xlink:title="index.mjs"><path fill="#fcf" stroke="#000" d="M490.51-653.42h-58.67c-4.33 0-8.66 4.33-8.66 8.67v8.66c0 4.34 4.33 8.67 8.66 8.67h58.67c4.33 0 8.67-4.33 8.67-8.67v-8.66c0-4.34-4.34-8.67-8.67-8.67"/><text x="431.18" y="-641.87" font-family="Helvetica,sans-Serif" font-size="9">src/report/html/</text><text x="440.55" y="-632.87" font-family="Helvetica,sans-Serif" font-size="9" font-weight="bold">index.mjs</text></a></g><g class="edge"><path fill="none" stroke="#f0f" stroke-opacity=".467" stroke-width="2" d="M467.97-626.98v.72"/><path fill="#f0f" fill-opacity=".467" stroke="#f0f" stroke-opacity=".467" stroke-width="2" d="m470.07-628.78-2.1 6-2.1-6z"/></g><g class="edge"><path fill="none" stroke="#f0f" stroke-opacity=".467" stroke-width="2" d="M430.62-626.99V-552h81.55v32.83"/><path fill="#f0f" fill-opacity=".467" stroke="#f0f" stroke-opacity=".467" stroke-width="2" d="m514.27-519.17-2.1 6-2.1-6z"/></g><g class="node"><a xlink:href="https://github.com/sverweij/dependency-cruiser/blob/main/src/report/identity.mjs" xlink:title="identity.mjs"><path fill="#fcf" stroke="#000" d="M585.12-49h-47.41c-4.34 0-8.67 4.33-8.67 8.67v8.66c0 4.34 4.33 8.67 8.67 8.67h47.41c4.34 0 8.67-4.33 8.67-8.67v-8.66c0-4.34-4.33-8.67-8.67-8.67"/><text x="541.16" y="-37.45" font-family="Helvetica,sans-Serif" font-size="9">src/report/</text><text x="537.04" y="-28.45" font-family="Helvetica,sans-Serif" font-size="9" font-weight="bold">identity.mjs</text></a></g><g class="node"><a xlink:href="https://github.com/sverweij/dependency-cruiser/blob/main/src/report/index.mjs" xlink:title="index.mjs"><path fill="#fcf" stroke="#000" d="M670.25-89.83h-39.92c-4.33 0-8.66 4.34-8.66 8.67v8.67c0 4.33 4.33 8.66 8.66 8.66h39.92c4.33 0 8.67-4.33 8.67-8.66v-8.67c0-4.33-4.34-8.67-8.67-8.67"/><text x="630.04" y="-78.28" font-family="Helvetica,sans-Serif" font-size="9">src/report/</text><text x="629.67" y="-69.28" font-family="Helvetica,sans-Serif" font-size="9" font-weight="bold">index.mjs</text></a></g><g class="node"><a xlink:href="https://github.com/sverweij/dependency-cruiser/blob/main/src/report/plugins.mjs" xlink:title="plugins.mjs"><path fill="#fcf" stroke="#000" d="M789.1-72.63h-47.41c-4.34 0-8.67 4.33-8.67 8.67v8.66c0 4.34 4.33 8.67 8.67 8.67h47.41c4.34 0 8.67-4.33 8.67-8.67v-8.66c0-4.34-4.33-8.67-8.67-8.67"/><text x="745.15" y="-61.08" font-family="Helvetica,sans-Serif" font-size="9">src/report/</text><text x="741.02" y="-52.08" font-family="Helvetica,sans-Serif" font-size="9" font-weight="bold">plugins.mjs</text></a></g><g class="edge"><path fill="none" stroke="#f0f" stroke-opacity=".467" stroke-width="2" d="M679.34-68h44.33"/><path fill="#f0f" fill-opacity=".467" stroke="#f0f" stroke-opacity=".467" stroke-width="2" d="m723.67-70.1 6 2.1-6 2.1z"/></g><g class="node"><a xlink:href="https://github.com/sverweij/dependency-cruiser/blob/main/src/report/json.mjs" xlink:title="json.mjs"><path fill="#fcf" stroke="#000" d="M301-509h-39.17c-4.33 0-8.67 4.33-8.67 8.67v8.66c0 4.34 4.34 8.67 8.67 8.67H301c4.33 0 8.66-4.33 8.66-8.67v-8.66c0-4.34-4.33-8.67-8.66-8.67"/><text x="261.16" y="-497.45" font-family="Helvetica,sans-Serif" font-size="9">src/report/</text><text x="263.41" y="-488.45" font-family="Helvetica,sans-Serif" font-size="9" font-weight="bold">json.mjs</text></a></g><g class="node"><a xlink:href="https://github.com/sverweij/dependency-cruiser/blob/main/src/report/markdown.mjs" xlink:title="markdown.mjs"><path fill="#fcf" stroke="#000" d="M730.11-151.86h-61.66c-4.34 0-8.67 4.33-8.67 8.67v8.66c0 4.34 4.33 8.67 8.67 8.67h61.66c4.34 0 8.67-4.33 8.67-8.67v-8.66c0-4.34-4.33-8.67-8.67-8.67"/><text x="679.03" y="-140.31" font-family="Helvetica,sans-Serif" font-size="9">src/report/</text><text x="667.78" y="-131.31" font-family="Helvetica,sans-Serif" font-size="9" font-weight="bold">markdown.mjs</text></a></g><g class="edge"><path fill="none" stroke="#f0f" stroke-opacity=".467" stroke-width="2" d="M659.53-141h-5.55v-22.81"/><path fill="#f0f" fill-opacity=".467" stroke="#f0f" stroke-opacity=".467" stroke-width="2" d="m651.88-163.81 2.1-6 2.1 6z"/></g><g class="node"><a xlink:href="https://github.com/sverweij/dependency-cruiser/blob/main/src/report/mermaid.mjs" xlink:title="no-orphans"><path fill="#fcf" stroke="red" d="M431.87-509h-54.91c-4.34 0-8.67 4.33-8.67 8.67v8.66c0 4.34 4.33 8.67 8.67 8.67h54.91c4.34 0 8.67-4.33 8.67-8.67v-8.66c0-4.34-4.33-8.67-8.67-8.67"/><text x="384.16" y="-497.45" fill="red" font-family="Helvetica,sans-Serif" font-size="9">src/report/</text><text x="376.29" y="-488.45" fill="red" font-family="Helvetica,sans-Serif" font-size="9" font-weight="bold">mermaid.mjs</text></a></g><g class="node"><a xlink:href="https://github.com/sverweij/dependency-cruiser/blob/main/src/report/metrics.mjs" xlink:title="metrics.mjs"><path fill="#fcf" stroke="#000" d="M657.19-366.53h-49.67c-4.33 0-8.67 4.33-8.67 8.67v8.66c0 4.34 4.34 8.67 8.67 8.67h49.67c4.33 0 8.66-4.33 8.66-8.67v-8.66c0-4.34-4.33-8.67-8.66-8.67"/><text x="612.1" y="-354.98" font-family="Helvetica,sans-Serif" font-size="9">src/report/</text><text x="606.85" y="-345.98" font-family="Helvetica,sans-Serif" font-size="9" font-weight="bold">metrics.mjs</text></a></g><g class="edge"><path fill="none" stroke="#f0f" stroke-opacity=".467" stroke-width="2" d="M609.33-340.04v24.8"/><path fill="#f0f" fill-opacity=".467" stroke="#f0f" stroke-opacity=".467" stroke-width="2" d="m611.43-315.24-2.1 6-2.1-6z"/></g><g class="node"><a xlink:href="https://github.com/sverweij/dependency-cruiser/blob/main/src/report/null.mjs" xlink:title="null.mjs"><path fill="#fcf" stroke="#000" d="M278-49h-39.17c-4.33 0-8.67 4.33-8.67 8.67v8.66c0 4.34 4.34 8.67 8.67 8.67H278c4.33 0 8.66-4.33 8.66-8.67v-8.66c0-4.34-4.33-8.67-8.66-8.67"/><text x="238.16" y="-37.45" font-family="Helvetica,sans-Serif" font-size="9">src/report/</text><text x="241.91" y="-28.45" font-family="Helvetica,sans-Serif" font-size="9" font-weight="bold">null.mjs</text></a></g><g class="node"><a xlink:href="https://github.com/sverweij/dependency-cruiser/blob/main/src/report/teamcity.mjs" xlink:title="teamcity.mjs"><path fill="#fcf" stroke="#000" d="M582.11-365.5H528.7c-4.34 0-8.67 4.33-8.67 8.67v8.66c0 4.34 4.33 8.67 8.67 8.67h53.41c4.34 0 8.67-4.33 8.67-8.67v-8.66c0-4.34-4.33-8.67-8.67-8.67"/><text x="535.16" y="-353.95" font-family="Helvetica,sans-Serif" font-size="9">src/report/</text><text x="528.03" y="-344.95" font-family="Helvetica,sans-Serif" font-size="9" font-weight="bold">teamcity.mjs</text></a></g><g class="edge"><path fill="none" stroke="#f0f" stroke-opacity=".467" stroke-width="2" d="M577.62-339.24v24.23"/><path fill="#f0f" fill-opacity=".467" stroke="#f0f" stroke-opacity=".467" stroke-width="2" d="m579.72-315.01-2.1 6-2.1-6z"/></g><g class="node"><a xlink:href="https://github.com/sverweij/dependency-cruiser/blob/main/src/report/text.mjs" xlink:title="no-orphans"><path fill="#fcf" stroke="red" d="M393-26h-39.17c-4.33 0-8.67 4.33-8.67 8.67v8.66c0 4.34 4.34 8.67 8.67 8.67H393c4.33 0 8.66-4.33 8.66-8.67v-8.66c0-4.34-4.33-8.67-8.66-8.67"/><text x="353.16" y="-14.45" fill="red" font-family="Helvetica,sans-Serif" font-size="9">src/report/</text><text x="356.16" y="-5.45" fill="red" font-family="Helvetica,sans-Serif" font-size="9" font-weight="bold">text.mjs</text></a></g></g></svg>