<svg xmlns="http://www.w3.org/2000/svg" xmlns:xlink="http://www.w3.org/1999/xlink" width="688pt" height="636" viewBox="0 0 688 477"><g class="graph" transform="translate(4 473.26)"><title>dependency-cruiser output</title><path fill="#fff" d="M-4 4v-477.26h688.23V4z"/><g class="node"><title>src/graph-utl/add-focus.mjs</title><a xlink:href="https://github.com/sverweij/dependency-cruiser/blob/main/src/graph-utl/add-focus.mjs" xlink:title="add-focus.mjs">
<path fill="#fcc" stroke="#000" d="M103.64-144.66H44.22c-4.33 0-8.67 4.34-8.67 8.67v8.67c0 4.33 4.34 8.66 8.67 8.66h59.42c4.33 0 8.66-4.33 8.66-8.66v-8.67c0-4.33-4.33-8.67-8.66-8.67"/>
<text xml:space="preserve" x="47.3" y="-133.11" font-family="Helvetica,sans-Serif" font-size="9">src/graph-utl/</text>
<text xml:space="preserve" x="43.55" y="-124.11" font-family="Helvetica,sans-Serif" font-size="9" font-weight="bold">add-focus.mjs</text>
</a></g><g class="node"><title>src/graph-utl/indexed-module-graph.mjs</title><a xlink:href="https://github.com/sverweij/dependency-cruiser/blob/main/src/graph-utl/indexed-module-graph.mjs" xlink:title="indexed-module-graph.mjs">
<path fill="#fcc" stroke="#000" d="M121.33-230.66H8.67c-4.34 0-8.67 4.34-8.67 8.67v8.67c0 4.33 4.33 8.66 8.67 8.66h112.66c4.34 0 8.67-4.33 8.67-8.66v-8.67c0-4.33-4.33-8.67-8.67-8.67"/>
<text xml:space="preserve" x="38.37" y="-219.11" font-family="Helvetica,sans-Serif" font-size="9">src/graph-utl/</text>
<text xml:space="preserve" x="8" y="-210.11" font-family="Helvetica,sans-Serif" font-size="9" font-weight="bold">indexed-module-graph.mjs</text>
</a></g><g class="edge"><title>src/graph-utl/add-focus.mjs-&gt;src/graph-utl/indexed-module-graph.mjs</title><path fill="none" stroke="#700" stroke-opacity=".467" stroke-width="2" d="M73.93-145.09v-50.2"/><path fill="#700" fill-opacity=".467" stroke="#700" stroke-opacity=".467" stroke-width="2" d="m71.83-195.29 2.1-6 2.1 6z"/></g><g class="node"><title>src/graph-utl/match-facade.mjs</title><a xlink:href="https://github.com/sverweij/dependency-cruiser/blob/main/src/graph-utl/match-facade.mjs" xlink:title="match-facade.mjs">
<path fill="#fcc" stroke="#000" d="M190.47-110.6h-75.92c-4.33 0-8.67 4.34-8.67 8.67v8.67c0 4.33 4.34 8.66 8.67 8.66h75.92c4.33 0 8.66-4.33 8.66-8.66v-8.67c0-4.33-4.33-8.67-8.66-8.67"/>
<text xml:space="preserve" x="125.88" y="-99.05" font-family="Helvetica,sans-Serif" font-size="9">src/graph-utl/</text>
<text xml:space="preserve" x="113.88" y="-90.05" font-family="Helvetica,sans-Serif" font-size="9" font-weight="bold">match-facade.mjs</text>
</a></g><g class="edge"><title>src/graph-utl/add-focus.mjs-&gt;src/graph-utl/match-facade.mjs</title><path fill="none" stroke="#700" stroke-opacity=".467" stroke-width="2" d="M112.49-124h8.66v4.17"/><path fill="#700" fill-opacity=".467" stroke="#700" stroke-opacity=".467" stroke-width="2" d="m123.25-119.83-2.1 6-2.1-6z"/></g><g class="node"><title>src/utl/regex-util.mjs</title><a xlink:href="https://github.com/sverweij/dependency-cruiser/blob/main/src/utl/regex-util.mjs" xlink:title="regex-util.mjs">
<path fill="#ccc" stroke="#000" d="M273.26-163.12H216.1c-4.34 0-8.67 4.33-8.67 8.66v8.67c0 4.33 4.33 8.67 8.67 8.67h57.16c4.34 0 8.67-4.34 8.67-8.67v-8.67c0-4.33-4.33-8.66-8.67-8.66"/>
<text xml:space="preserve" x="231.56" y="-151.57" font-family="Helvetica,sans-Serif" font-size="9">src/utl/</text>
<text xml:space="preserve" x="215.43" y="-142.57" font-family="Helvetica,sans-Serif" font-size="9" font-weight="bold">regex-util.mjs</text>
</a></g><g class="edge"><title>src/graph-utl/match-facade.mjs-&gt;src/utl/regex-util.mjs</title><path fill="none" stroke="#aaa" stroke-opacity=".467" stroke-width="2" d="M183.85-111.01V-140h14.32"/><path fill="#aaa" fill-opacity=".467" stroke="#aaa" stroke-opacity=".467" stroke-width="2" d="m198.17-142.1 6 2.1-6 2.1z"/></g><g class="node"><title>src/graph-utl/compare.mjs</title><a xlink:href="https://github.com/sverweij/dependency-cruiser/blob/main/src/graph-utl/compare.mjs" xlink:title="compare.mjs">
<path fill="#fcc" stroke="#000" d="M353.6-164.33h-54.92c-4.33 0-8.67 4.34-8.67 8.67v8.67c0 4.33 4.34 8.66 8.67 8.66h54.92c4.33 0 8.66-4.33 8.66-8.66v-8.67c0-4.33-4.33-8.67-8.66-8.67"/>
<text xml:space="preserve" x="299.51" y="-152.78" font-family="Helvetica,sans-Serif" font-size="9">src/graph-utl/</text>
<text xml:space="preserve" x="298.01" y="-143.78" font-family="Helvetica,sans-Serif" font-size="9" font-weight="bold">compare.mjs</text>
</a></g><g class="node"><title>src/graph-utl/consolidate-module-dependencies.mjs</title><a xlink:href="https://github.com/sverweij/dependency-cruiser/blob/main/src/graph-utl/consolidate-module-dependencies.mjs" xlink:title="consolidate-module-dependencies.mjs">
<path fill="#fcc" stroke="#000" d="M516.34-115.08H352.67c-4.33 0-8.67 4.34-8.67 8.67v8.67c0 4.33 4.34 8.66 8.67 8.66h163.67c4.33 0 8.66-4.33 8.66-8.66v-8.67c0-4.33-4.33-8.67-8.66-8.67"/>
<text xml:space="preserve" x="407.88" y="-103.53" font-family="Helvetica,sans-Serif" font-size="9">src/graph-utl/</text>
<text xml:space="preserve" x="352" y="-94.53" font-family="Helvetica,sans-Serif" font-size="9" font-weight="bold">consolidate-module-dependencies.mjs</text>
</a></g><g class="edge"><title>src/graph-utl/consolidate-module-dependencies.mjs-&gt;src/graph-utl/compare.mjs</title><path fill="none" stroke="#700" stroke-opacity=".467" stroke-width="2" d="M353.13-115.53v-13.33"/><path fill="#700" fill-opacity=".467" stroke="#700" stroke-opacity=".467" stroke-width="2" d="m351.03-128.86 2.1-6 2.1 6z"/></g><g class="node"><title>src/utl/array-util.mjs</title><a xlink:href="https://github.com/sverweij/dependency-cruiser/blob/main/src/utl/array-util.mjs" xlink:title="utl-module-not-shared-enough">
<path fill="#ccc" stroke="#00f" d="M442.53-62.71h-55.67c-4.33 0-8.67 4.34-8.67 8.67v8.67c0 4.33 4.34 8.66 8.67 8.66h55.67c4.33 0 8.66-4.33 8.66-8.66v-8.67c0-4.33-4.33-8.67-8.66-8.67"/>
<text xml:space="preserve" x="401.57" y="-51.16" fill="#00f" font-family="Helvetica,sans-Serif" font-size="9">src/utl/</text>
<text xml:space="preserve" x="386.19" y="-42.16" fill="#00f" font-family="Helvetica,sans-Serif" font-size="9" font-weight="bold">array-util.mjs</text>
</a></g><g class="edge"><title>src/graph-utl/consolidate-module-dependencies.mjs-&gt;src/utl/array-util.mjs</title><path fill="none" stroke="#aaa" stroke-opacity=".467" stroke-width="2" d="M414.69-88.59v16.6"/><path fill="#aaa" fill-opacity=".467" stroke="#aaa" stroke-opacity=".467" stroke-width="2" d="m416.79-71.99-2.1 6-2.1-6z"/></g><g class="node"><title>src/graph-utl/consolidate-modules.mjs</title><a xlink:href="https://github.com/sverweij/dependency-cruiser/blob/main/src/graph-utl/consolidate-modules.mjs" xlink:title="consolidate-modules.mjs">
<path fill="#fcc" stroke="#000" d="M361.45-81.04H255.53c-4.33 0-8.66 4.33-8.66 8.66v8.67c0 4.33 4.33 8.67 8.66 8.67h105.92c4.33 0 8.67-4.34 8.67-8.67v-8.67c0-4.33-4.34-8.66-8.67-8.66"/>
<text xml:space="preserve" x="281.87" y="-69.49" font-family="Helvetica,sans-Serif" font-size="9">src/graph-utl/</text>
<text xml:space="preserve" x="254.87" y="-60.49" font-family="Helvetica,sans-Serif" font-size="9" font-weight="bold">consolidate-modules.mjs</text>
</a></g><g class="edge"><title>src/graph-utl/consolidate-modules.mjs-&gt;src/graph-utl/compare.mjs</title><path fill="none" stroke="#700" stroke-opacity=".467" stroke-width="2" d="M338.5-81.42v-47.53"/><path fill="#700" fill-opacity=".467" stroke="#700" stroke-opacity=".467" stroke-width="2" d="m336.4-128.95 2.1-6 2.1 6z"/></g><g class="edge"><title>src/graph-utl/consolidate-modules.mjs-&gt;src/utl/array-util.mjs</title><path fill="none" stroke="#aaa" stroke-opacity=".467" stroke-width="2" d="M370.58-59h.72"/><path fill="#aaa" fill-opacity=".467" stroke="#aaa" stroke-opacity=".467" stroke-width="2" d="m368.8-61.1 6 2.1-6 2.1z"/></g><g class="node"><title>src/graph-utl/consolidate-to-folder.mjs</title><a xlink:href="https://github.com/sverweij/dependency-cruiser/blob/main/src/graph-utl/consolidate-to-folder.mjs" xlink:title="consolidate-to-folder.mjs">
<path fill="#fcc" stroke="#000" d="M476.36-198.36H371.94c-4.33 0-8.67 4.33-8.67 8.67v8.66c0 4.34 4.34 8.67 8.67 8.67h104.42c4.33 0 8.66-4.33 8.66-8.67v-8.66c0-4.34-4.33-8.67-8.66-8.67"/>
<text xml:space="preserve" x="397.52" y="-186.81" font-family="Helvetica,sans-Serif" font-size="9">src/graph-utl/</text>
<text xml:space="preserve" x="371.27" y="-177.81" font-family="Helvetica,sans-Serif" font-size="9" font-weight="bold">consolidate-to-folder.mjs</text>
</a></g><g class="edge"><title>src/graph-utl/consolidate-to-folder.mjs-&gt;src/graph-utl/consolidate-module-dependencies.mjs</title><path fill="none" stroke="#700" stroke-opacity=".467" stroke-width="2" d="M444.44-171.98v47.53"/><path fill="#700" fill-opacity=".467" stroke="#700" stroke-opacity=".467" stroke-width="2" d="m446.54-124.45-2.1 6-2.1-6z"/></g><g class="edge"><title>src/graph-utl/consolidate-to-folder.mjs-&gt;src/graph-utl/consolidate-modules.mjs</title><path fill="none" stroke="#700" stroke-opacity=".467" stroke-width="2" d="M403.86-171.88V-133h-62.61v42.47"/><path fill="#700" fill-opacity=".467" stroke="#700" stroke-opacity=".467" stroke-width="2" d="m343.35-90.53-2.1 6-2.1-6z"/></g><g class="node"><title>src/graph-utl/consolidate-to-pattern.mjs</title><a xlink:href="https://github.com/sverweij/dependency-cruiser/blob/main/src/graph-utl/consolidate-to-pattern.mjs" xlink:title="consolidate-to-pattern.mjs">
<path fill="#fcc" stroke="#000" d="M327.08-129.12H215.91c-4.33 0-8.66 4.33-8.66 8.67v8.66c0 4.34 4.33 8.67 8.66 8.67h111.17c4.33 0 8.67-4.33 8.67-8.67v-8.66c0-4.34-4.34-8.67-8.67-8.67"/>
<text xml:space="preserve" x="244.87" y="-117.57" font-family="Helvetica,sans-Serif" font-size="9">src/graph-utl/</text>
<text xml:space="preserve" x="215.25" y="-108.57" font-family="Helvetica,sans-Serif" font-size="9" font-weight="bold">consolidate-to-pattern.mjs</text>
</a></g><g class="edge"><title>src/graph-utl/consolidate-to-pattern.mjs-&gt;src/graph-utl/consolidate-module-dependencies.mjs</title><path fill="none" stroke="#700" stroke-opacity=".467" stroke-width="2" d="M335.92-109h.78"/><path fill="#700" fill-opacity=".467" stroke="#700" stroke-opacity=".467" stroke-width="2" d="m334.7-111.1 6 2.1-6 2.1z"/></g><g class="edge"><title>src/graph-utl/consolidate-to-pattern.mjs-&gt;src/graph-utl/consolidate-modules.mjs</title><path fill="none" stroke="#700" stroke-opacity=".467" stroke-width="2" d="M291.31-102.73v12.34"/><path fill="#700" fill-opacity=".467" stroke="#700" stroke-opacity=".467" stroke-width="2" d="m293.41-90.39-2.1 6-2.1-6z"/></g><g class="edge"><title>src/graph-utl/consolidate-to-pattern.mjs-&gt;src/utl/regex-util.mjs</title><path fill="none" stroke="#aaa" stroke-opacity=".467" stroke-width="2" d="M244.68-129.56v-.72"/><path fill="#aaa" fill-opacity=".467" stroke="#aaa" stroke-opacity=".467" stroke-width="2" d="m242.58-127.75 2.1-6 2.1 6z"/></g><g class="node"><title>src/graph-utl/filter-bank.mjs</title><a xlink:href="https://github.com/sverweij/dependency-cruiser/blob/main/src/graph-utl/filter-bank.mjs" xlink:title="filter-bank.mjs">
<path fill="#fcc" stroke="#000" d="M206.84-197.15h-60.16c-4.34 0-8.67 4.33-8.67 8.66v8.67c0 4.33 4.33 8.67 8.67 8.67h60.16c4.34 0 8.67-4.34 8.67-8.67v-8.67c0-4.33-4.33-8.66-8.67-8.66"/>
<text xml:space="preserve" x="150.13" y="-185.6" font-family="Helvetica,sans-Serif" font-size="9">src/graph-utl/</text>
<text xml:space="preserve" x="146.01" y="-176.6" font-family="Helvetica,sans-Serif" font-size="9" font-weight="bold">filter-bank.mjs</text>
</a></g><g class="edge"><title>src/graph-utl/filter-bank.mjs-&gt;src/graph-utl/add-focus.mjs</title><path fill="none" stroke="#700" stroke-opacity=".467" stroke-width="2" d="M153.29-170.82V-142h-31.58"/><path fill="#700" fill-opacity=".467" stroke="#700" stroke-opacity=".467" stroke-width="2" d="m121.71-139.9-6-2.1 6-2.1z"/></g><g class="edge"><title>src/graph-utl/filter-bank.mjs-&gt;src/graph-utl/indexed-module-graph.mjs</title><path fill="none" stroke="#700" stroke-opacity=".467" stroke-width="2" d="M140.71-197.58V-211h-1.5"/><path fill="#700" fill-opacity=".467" stroke="#700" stroke-opacity=".467" stroke-width="2" d="m139.21-208.9-6-2.1 6-2.1z"/></g><g class="edge"><title>src/graph-utl/filter-bank.mjs-&gt;src/graph-utl/match-facade.mjs</title><path fill="none" stroke="#700" stroke-opacity=".467" stroke-width="2" d="M168.57-171.01v51.12"/><path fill="#700" fill-opacity=".467" stroke="#700" stroke-opacity=".467" stroke-width="2" d="m170.67-119.89-2.1 6-2.1-6z"/></g><g class="node"><title>src/graph-utl/rule-set.mjs</title><a xlink:href="https://github.com/sverweij/dependency-cruiser/blob/main/src/graph-utl/rule-set.mjs" xlink:title="rule-set.mjs">
<path fill="#fcc" stroke="#000" d="M254.35-449.84h-51.91c-4.34 0-8.67 4.33-8.67 8.66v8.67c0 4.33 4.33 8.67 8.67 8.67h51.91c4.34 0 8.67-4.34 8.67-8.67v-8.67c0-4.33-4.33-8.66-8.67-8.66"/>
<text xml:space="preserve" x="201.77" y="-438.29" font-family="Helvetica,sans-Serif" font-size="9">src/graph-utl/</text>
<text xml:space="preserve" x="202.89" y="-429.29" font-family="Helvetica,sans-Serif" font-size="9" font-weight="bold">rule-set.mjs</text>
</a></g><g class="node"><title>src/graph-utl/strip-self-transitions.mjs</title><a xlink:href="https://github.com/sverweij/dependency-cruiser/blob/main/src/graph-utl/strip-self-transitions.mjs" xlink:title="strip-self-transitions.mjs">
<path fill="#fcc" stroke="#000" d="M375.37-248.14H271.7c-4.33 0-8.67 4.33-8.67 8.66v8.67c0 4.33 4.34 8.67 8.67 8.67h103.67c4.33 0 8.66-4.34 8.66-8.67v-8.67c0-4.33-4.33-8.66-8.66-8.66"/>
<text xml:space="preserve" x="296.91" y="-236.59" font-family="Helvetica,sans-Serif" font-size="9">src/graph-utl/</text>
<text xml:space="preserve" x="271.03" y="-227.59" font-family="Helvetica,sans-Serif" font-size="9" font-weight="bold">strip-self-transitions.mjs</text>
</a></g><g class="node"><title>src/report/anon</title><a xlink:href="https://github.com/sverweij/dependency-cruiser/blob/main/src/report/anon" xlink:title="anon">
<path fill="#fcf" stroke="#000" d="M146.12-314H92.51l-2.89 2.89V-288h53.62l2.88-2.89z"/>
<path fill="none" stroke="#000" d="M143.24-311.11H89.62"/>
<path fill="none" stroke="#000" d="M143.24-311.11V-288"/>
<path fill="none" stroke="#000" d="m143.24-311.11 2.88-2.89"/>
<text xml:space="preserve" x="97.62" y="-302.45" font-family="Helvetica,sans-Serif" font-size="9">src/report/</text>
<text xml:space="preserve" x="107.37" y="-293.45" font-family="Helvetica,sans-Serif" font-size="9" font-weight="bold">anon</text>
</a></g><g class="edge"><title>src/report/anon-&gt;src/report/anon</title><path fill="none" stroke="#f0f" stroke-opacity=".467" stroke-width="2" d="M126.81-314.4V-325h25.73v50h-9.12v-3.67"/><path fill="#f0f" fill-opacity=".467" stroke="#f0f" stroke-opacity=".467" stroke-width="2" d="m141.32-278.67 2.1-6 2.1 6z"/></g><g class="node"><title>src/report/azure-devops.mjs</title><a xlink:href="https://github.com/sverweij/dependency-cruiser/blob/main/src/report/azure-devops.mjs" xlink:title="azure-devops.mjs">
<path fill="#fcf" stroke="#000" d="M502.65-356.93h-75.17c-4.33 0-8.67 4.33-8.67 8.66v8.67c0 4.33 4.34 8.67 8.67 8.67h75.17c4.33 0 8.66-4.34 8.66-8.67v-8.67c0-4.33-4.33-8.66-8.66-8.66"/>
<text xml:space="preserve" x="444.81" y="-345.38" font-family="Helvetica,sans-Serif" font-size="9">src/report/</text>
<text xml:space="preserve" x="426.81" y="-336.38" font-family="Helvetica,sans-Serif" font-size="9" font-weight="bold">azure-devops.mjs</text>
</a></g><g class="node"><title>src/report/utl</title><a xlink:href="https://github.com/sverweij/dependency-cruiser/blob/main/src/report/utl" xlink:title="utl">
<path fill="#fcf" stroke="#000" d="M410.78-324.9h-53.61l-2.89 2.89v23.11h53.62l2.88-2.89z"/>
<path fill="none" stroke="#000" d="M407.9-322.01h-53.62"/>
<path fill="none" stroke="#000" d="M407.9-322.01v23.11"/>
<path fill="none" stroke="#000" d="m407.9-322.01 2.88-2.89"/>
<text xml:space="preserve" x="362.28" y="-313.35" font-family="Helvetica,sans-Serif" font-size="9">src/report/</text>
<text xml:space="preserve" x="377.28" y="-304.35" font-family="Helvetica,sans-Serif" font-size="9" font-weight="bold">utl</text>
</a></g><g class="edge"><title>src/report/azure-devops.mjs-&gt;src/report/utl</title><path fill="none" stroke="#f0f" stroke-opacity=".467" stroke-width="2" d="M433.95-330.48V-315h-13.68"/><path fill="#f0f" fill-opacity=".467" stroke="#f0f" stroke-opacity=".467" stroke-width="2" d="m420.27-312.9-6-2.1 6-2.1z"/></g><g class="node"><title>src/report/baseline.mjs</title><a xlink:href="https://github.com/sverweij/dependency-cruiser/blob/main/src/report/baseline.mjs" xlink:title="no-orphans">
<path fill="#fcf" stroke="red" d="M169.21-458h-52.67c-4.33 0-8.67 4.33-8.67 8.67v8.66c0 4.34 4.34 8.67 8.67 8.67h52.67c4.33 0 8.66-4.33 8.66-8.67v-8.66c0-4.34-4.33-8.67-8.66-8.67"/>
<text xml:space="preserve" x="122.62" y="-446.45" fill="red" font-family="Helvetica,sans-Serif" font-size="9">src/report/</text>
<text xml:space="preserve" x="115.87" y="-437.45" fill="red" font-family="Helvetica,sans-Serif" font-size="9" font-weight="bold">baseline.mjs</text>
</a></g><g class="node"><title>src/report/csv.mjs</title><a xlink:href="https://github.com/sverweij/dependency-cruiser/blob/main/src/report/csv.mjs" xlink:title="csv.mjs">
<path fill="#fcf" stroke="#000" d="M440.41-279.03h-39.17c-4.33 0-8.66 4.33-8.66 8.67v8.66c0 4.34 4.33 8.67 8.66 8.67h39.17c4.33 0 8.67-4.33 8.67-8.67v-8.66c0-4.34-4.34-8.67-8.67-8.67"/>
<text xml:space="preserve" x="400.58" y="-267.48" font-family="Helvetica,sans-Serif" font-size="9">src/report/</text>
<text xml:space="preserve" x="404.33" y="-258.48" font-family="Helvetica,sans-Serif" font-size="9" font-weight="bold">csv.mjs</text>
</a></g><g class="edge"><title>src/report/csv.mjs-&gt;src/report/utl</title><path fill="none" stroke="#f0f" stroke-opacity=".467" stroke-width="2" d="M401.68-279.05v-10.61"/><path fill="#f0f" fill-opacity=".467" stroke="#f0f" stroke-opacity=".467" stroke-width="2" d="m399.58-289.66 2.1-6 2.1 6z"/></g><g class="node"><title>src/report/d2.mjs</title><a xlink:href="https://github.com/sverweij/dependency-cruiser/blob/main/src/report/d2.mjs" xlink:title="d2.mjs">
<path fill="#fcf" stroke="#000" d="M504.96-310.04H465.8c-4.34 0-8.67 4.33-8.67 8.66v8.67c0 4.33 4.33 8.67 8.67 8.67h39.16c4.34 0 8.67-4.34 8.67-8.67v-8.67c0-4.33-4.33-8.66-8.67-8.66"/>
<text xml:space="preserve" x="465.13" y="-298.49" font-family="Helvetica,sans-Serif" font-size="9">src/report/</text>
<text xml:space="preserve" x="471.13" y="-289.49" font-family="Helvetica,sans-Serif" font-size="9" font-weight="bold">d2.mjs</text>
</a></g><g class="edge"><title>src/report/d2.mjs-&gt;src/report/utl</title><path fill="none" stroke="#f0f" stroke-opacity=".467" stroke-width="2" d="M456.73-304h-36.67"/><path fill="#f0f" fill-opacity=".467" stroke="#f0f" stroke-opacity=".467" stroke-width="2" d="m420.06-301.9-6-2.1 6-2.1z"/></g><g class="node"><title>src/report/dot</title><a xlink:href="https://github.com/sverweij/dependency-cruiser/blob/main/src/report/dot" xlink:title="dot">
<path fill="#fcf" stroke="#000" d="M306.64-214.12h-53.61l-2.89 2.89v23.11h53.61l2.89-2.89z"/>
<path fill="none" stroke="#000" d="M303.75-211.23h-53.61"/>
<path fill="none" stroke="#000" d="M303.75-211.23v23.11"/>
<path fill="none" stroke="#000" d="m303.75-211.23 2.89-2.89"/>
<text xml:space="preserve" x="258.14" y="-202.57" font-family="Helvetica,sans-Serif" font-size="9">src/report/</text>
<text xml:space="preserve" x="271.64" y="-193.57" font-family="Helvetica,sans-Serif" font-size="9" font-weight="bold">dot</text>
</a></g><g class="edge"><title>src/report/dot-&gt;src/graph-utl/compare.mjs</title><path fill="none" stroke="#700" stroke-opacity=".467" stroke-width="2" d="M298.32-187.78v14.04"/><path fill="#700" fill-opacity=".467" stroke="#700" stroke-opacity=".467" stroke-width="2" d="m300.42-173.74-2.1 6-2.1-6z"/></g><g class="edge"><title>src/report/dot-&gt;src/graph-utl/consolidate-to-folder.mjs</title><path fill="none" stroke="#700" stroke-opacity=".467" stroke-width="2" d="M306.84-193h47.03"/><path fill="#700" fill-opacity=".467" stroke="#700" stroke-opacity=".467" stroke-width="2" d="m353.87-195.1 6 2.1-6 2.1z"/></g><g class="edge"><title>src/report/dot-&gt;src/graph-utl/consolidate-to-pattern.mjs</title><path fill="none" stroke="#700" stroke-opacity=".467" stroke-width="2" d="M285.97-187.84v49.23"/><path fill="#700" fill-opacity=".467" stroke="#700" stroke-opacity=".467" stroke-width="2" d="m288.07-138.61-2.1 6-2.1-6z"/></g><g class="edge"><title>src/report/dot-&gt;src/utl/regex-util.mjs</title><path fill="none" stroke="#aaa" stroke-opacity=".467" stroke-width="2" d="M260.73-187.72v15.08"/><path fill="#aaa" fill-opacity=".467" stroke="#aaa" stroke-opacity=".467" stroke-width="2" d="m262.83-172.64-2.1 6-2.1-6z"/></g><g class="edge"><title>src/report/dot-&gt;src/graph-utl/filter-bank.mjs</title><path fill="none" stroke="#700" stroke-opacity=".467" stroke-width="2" d="M249.81-193h-25.04"/><path fill="#700" fill-opacity=".467" stroke="#700" stroke-opacity=".467" stroke-width="2" d="m224.77-190.9-6-2.1 6-2.1z"/></g><g class="edge"><title>src/report/dot-&gt;src/graph-utl/strip-self-transitions.mjs</title><path fill="none" stroke="#700" stroke-opacity=".467" stroke-width="2" d="M284.84-214.57v-.72"/><path fill="#700" fill-opacity=".467" stroke="#700" stroke-opacity=".467" stroke-width="2" d="m282.74-212.77 2.1-6 2.1 6z"/></g><g class="edge"><title>src/report/dot-&gt;src/report/utl</title><path fill="none" stroke="#f0f" stroke-opacity=".467" stroke-width="2" d="M306.89-208h79.99v-81.71"/><path fill="#f0f" fill-opacity=".467" stroke="#f0f" stroke-opacity=".467" stroke-width="2" d="m384.78-289.71 2.1-6 2.1 6z"/></g><g class="edge"><title>src/report/dot-&gt;src/report/dot</title><path fill="none" stroke="#f0f" stroke-opacity=".467" stroke-width="2" d="M254.44-214.42V-218h-10.49v38h27.38v-.76"/><path fill="#f0f" fill-opacity=".467" stroke="#f0f" stroke-opacity=".467" stroke-width="2" d="m269.23-178.6 2.1-6 2.1 6z"/></g><g class="node"><title>src/utl/object-util.mjs</title><a xlink:href="https://github.com/sverweij/dependency-cruiser/blob/main/src/utl/object-util.mjs" xlink:title="utl-module-not-shared-enough">
<path fill="#ccc" stroke="#00f" d="M305.1-285.65h-58.67c-4.33 0-8.66 4.33-8.66 8.67v8.66c0 4.34 4.33 8.67 8.66 8.67h58.67c4.33 0 8.67-4.33 8.67-8.67v-8.66c0-4.34-4.34-8.67-8.67-8.67"/>
<text xml:space="preserve" x="262.64" y="-274.1" fill="#00f" font-family="Helvetica,sans-Serif" font-size="9">src/utl/</text>
<text xml:space="preserve" x="245.77" y="-265.1" fill="#00f" font-family="Helvetica,sans-Serif" font-size="9" font-weight="bold">object-util.mjs</text>
</a></g><g class="edge"><title>src/report/dot-&gt;src/utl/object-util.mjs</title><path fill="none" stroke="#aaa" stroke-opacity=".467" stroke-width="2" d="M258.73-214.58v-35.65"/><path fill="#aaa" fill-opacity=".467" stroke="#aaa" stroke-opacity=".467" stroke-width="2" d="m256.63-250.23 2.1-6 2.1 6z"/></g><g class="node"><title>src/report/dot-webpage</title><a xlink:href="https://github.com/sverweij/dependency-cruiser/blob/main/src/report/dot-webpage" xlink:title="dot-webpage">
<path fill="#fcf" stroke="#000" d="M229.71-269.25h-67.86l-2.89 2.89v23.11h67.86l2.89-2.89z"/>
<path fill="none" stroke="#000" d="M226.82-266.36h-67.86"/>
<path fill="none" stroke="#000" d="M226.82-266.36v23.11"/>
<path fill="none" stroke="#000" d="m226.82-266.36 2.89-2.89"/>
<text xml:space="preserve" x="174.09" y="-257.7" font-family="Helvetica,sans-Serif" font-size="9">src/report/</text>
<text xml:space="preserve" x="166.96" y="-248.7" font-family="Helvetica,sans-Serif" font-size="9" font-weight="bold">dot-webpage</text>
</a></g><g class="edge"><title>src/report/dot-webpage-&gt;src/report/dot</title><path fill="none" stroke="#f0f" stroke-opacity=".467" stroke-width="2" d="M220.24-242.81V-208h20.39"/><path fill="#f0f" fill-opacity=".467" stroke="#f0f" stroke-opacity=".467" stroke-width="2" d="m240.63-210.1 6 2.1-6 2.1z"/></g><g class="edge"><title>src/report/dot-webpage-&gt;src/report/dot-webpage</title><path fill="none" stroke="#f0f" stroke-opacity=".467" stroke-width="2" d="M216.7-269.51V-280h17.04v43h-8.76v-.61"/><path fill="#f0f" fill-opacity=".467" stroke="#f0f" stroke-opacity=".467" stroke-width="2" d="m222.88-234.06 2.1-6 2.1 6z"/></g><g class="node"><title>src/report/error-html</title><a xlink:href="https://github.com/sverweij/dependency-cruiser/blob/main/src/report/error-html" xlink:title="error-html">
<path fill="#fcf" stroke="#000" d="M482.11-238.07H425.5l-2.89 2.88v23.12h56.61l2.89-2.89z"/>
<path fill="none" stroke="#000" d="M479.22-235.19h-56.61"/>
<path fill="none" stroke="#000" d="M479.22-235.19v23.12"/>
<path fill="none" stroke="#000" d="m479.22-235.19 2.89-2.88"/>
<text xml:space="preserve" x="432.11" y="-226.52" font-family="Helvetica,sans-Serif" font-size="9">src/report/</text>
<text xml:space="preserve" x="430.61" y="-217.52" font-family="Helvetica,sans-Serif" font-size="9" font-weight="bold">error-html</text>
</a></g><g class="edge"><title>src/report/error-html-&gt;src/report/utl</title><path fill="none" stroke="#f0f" stroke-opacity=".467" stroke-width="2" d="M422.14-230h-32.41v-59.71"/><path fill="#f0f" fill-opacity=".467" stroke="#f0f" stroke-opacity=".467" stroke-width="2" d="m387.63-289.71 2.1-6 2.1 6z"/></g><g class="edge"><title>src/report/error-html-&gt;src/report/error-html</title><path fill="none" stroke="#f0f" stroke-opacity=".467" stroke-width="2" d="M469.62-238.48V-243h19.4v40h-36.66v-.87"/><path fill="#f0f" fill-opacity=".467" stroke="#f0f" stroke-opacity=".467" stroke-width="2" d="m450.26-202.7 2.1-6 2.1 6z"/></g><g class="node"><title>src/report/error-long.mjs</title><a xlink:href="https://github.com/sverweij/dependency-cruiser/blob/main/src/report/error-long.mjs" xlink:title="error-long.mjs">
<path fill="#fcf" stroke="#000" d="M271.77-336.83h-59.42c-4.33 0-8.67 4.33-8.67 8.67v8.66c0 4.34 4.34 8.67 8.67 8.67h59.42c4.33 0 8.66-4.33 8.66-8.67v-8.66c0-4.34-4.33-8.67-8.66-8.67"/>
<text xml:space="preserve" x="221.81" y="-325.28" font-family="Helvetica,sans-Serif" font-size="9">src/report/</text>
<text xml:space="preserve" x="211.68" y="-316.28" font-family="Helvetica,sans-Serif" font-size="9" font-weight="bold">error-long.mjs</text>
</a></g><g class="node"><title>src/report/error.mjs</title><a xlink:href="https://github.com/sverweij/dependency-cruiser/blob/main/src/report/error.mjs" xlink:title="error.mjs">
<path fill="#fcf" stroke="#000" d="M313.62-387.23h-39.16c-4.34 0-8.67 4.33-8.67 8.67v8.66c0 4.34 4.33 8.67 8.67 8.67h39.16c4.34 0 8.67-4.33 8.67-8.67v-8.66c0-4.34-4.33-8.67-8.67-8.67"/>
<text xml:space="preserve" x="273.79" y="-375.68" font-family="Helvetica,sans-Serif" font-size="9">src/report/</text>
<text xml:space="preserve" x="274.54" y="-366.68" font-family="Helvetica,sans-Serif" font-size="9" font-weight="bold">error.mjs</text>
</a></g><g class="edge"><title>src/report/error-long.mjs-&gt;src/report/error.mjs</title><path fill="none" stroke="#f0f" stroke-opacity=".467" stroke-width="2" d="M273.11-337.07v-14.8"/><path fill="#f0f" fill-opacity=".467" stroke="#f0f" stroke-opacity=".467" stroke-width="2" d="m271.01-351.87 2.1-6 2.1 6z"/></g><g class="edge"><title>src/report/error.mjs-&gt;src/graph-utl/rule-set.mjs</title><path fill="none" stroke="#700" stroke-opacity=".467" stroke-width="2" d="M288.21-387.57V-433h-15.99"/><path fill="#700" fill-opacity=".467" stroke="#700" stroke-opacity=".467" stroke-width="2" d="m272.22-430.9-6-2.1 6-2.1z"/></g><g class="edge"><title>src/report/error.mjs-&gt;src/report/utl</title><path fill="none" stroke="#f0f" stroke-opacity=".467" stroke-width="2" d="M306.01-360.98V-350h66.83v15.75"/><path fill="#f0f" fill-opacity=".467" stroke="#f0f" stroke-opacity=".467" stroke-width="2" d="m374.94-334.25-2.1 6-2.1-6z"/></g><g class="node"><title>src/utl/wrap-and-indent.mjs</title><a xlink:href="https://github.com/sverweij/dependency-cruiser/blob/main/src/utl/wrap-and-indent.mjs" xlink:title="utl-module-not-shared-enough">
<path fill="#ccc" stroke="#00f" d="M365.51-469.26h-85.67c-4.33 0-8.67 4.33-8.67 8.66v8.67c0 4.33 4.34 8.67 8.67 8.67h85.67c4.33 0 8.66-4.34 8.66-8.67v-8.67c0-4.33-4.33-8.66-8.66-8.66"/>
<text xml:space="preserve" x="309.55" y="-457.71" fill="#00f" font-family="Helvetica,sans-Serif" font-size="9">src/utl/</text>
<text xml:space="preserve" x="279.17" y="-448.71" fill="#00f" font-family="Helvetica,sans-Serif" font-size="9" font-weight="bold">wrap-and-indent.mjs</text>
</a></g><g class="edge"><title>src/report/error.mjs-&gt;src/utl/wrap-and-indent.mjs</title><path fill="none" stroke="#aaa" stroke-opacity=".467" stroke-width="2" d="M305.25-387.41v-46.41"/><path fill="#aaa" fill-opacity=".467" stroke="#aaa" stroke-opacity=".467" stroke-width="2" d="m303.15-433.82 2.1-6 2.1 6z"/></g><g class="node"><title>src/report/html</title><a xlink:href="https://github.com/sverweij/dependency-cruiser/blob/main/src/report/html" xlink:title="html">
<path fill="#fcf" stroke="#000" d="M346.22-323.1h-53.61l-2.89 2.89v23.11h53.61l2.89-2.89z"/>
<path fill="none" stroke="#000" d="M343.33-320.21h-53.61"/>
<path fill="none" stroke="#000" d="M343.33-320.21v23.11"/>
<path fill="none" stroke="#000" d="m343.33-320.21 2.89-2.89"/>
<text xml:space="preserve" x="297.72" y="-311.55" font-family="Helvetica,sans-Serif" font-size="9">src/report/</text>
<text xml:space="preserve" x="308.6" y="-302.55" font-family="Helvetica,sans-Serif" font-size="9" font-weight="bold">html</text>
</a></g><g class="edge"><title>src/report/html-&gt;src/report/utl</title><path fill="none" stroke="#f0f" stroke-opacity=".467" stroke-width="2" d="M346.48-311h.73"/><path fill="#f0f" fill-opacity=".467" stroke="#f0f" stroke-opacity=".467" stroke-width="2" d="m344.78-313.1 6 2.1-6 2.1z"/></g><g class="edge"><title>src/report/html-&gt;src/report/html</title><path fill="none" stroke="#f0f" stroke-opacity=".467" stroke-width="2" d="M332.63-323.5V-344h17.62v51h-20.26v-.36"/><path fill="#f0f" fill-opacity=".467" stroke="#f0f" stroke-opacity=".467" stroke-width="2" d="m327.89-287.6 2.1-6 2.1 6z"/></g><g class="node"><title>src/report/identity.mjs</title><a xlink:href="https://github.com/sverweij/dependency-cruiser/blob/main/src/report/identity.mjs" xlink:title="identity.mjs">
<path fill="#fcf" stroke="#000" d="M163.58-386h-47.41c-4.34 0-8.67 4.33-8.67 8.67v8.66c0 4.34 4.33 8.67 8.67 8.67h47.41c4.34 0 8.67-4.33 8.67-8.67v-8.66c0-4.34-4.33-8.67-8.67-8.67"/>
<text xml:space="preserve" x="119.62" y="-374.45" font-family="Helvetica,sans-Serif" font-size="9">src/report/</text>
<text xml:space="preserve" x="115.5" y="-365.45" font-family="Helvetica,sans-Serif" font-size="9" font-weight="bold">identity.mjs</text>
</a></g><g class="node"><title>src/report/index.mjs</title><a xlink:href="https://github.com/sverweij/dependency-cruiser/blob/main/src/report/index.mjs" xlink:title="index.mjs">
<path fill="#fcf" stroke="#000" d="M552.71-403.83h-39.92c-4.33 0-8.66 4.34-8.66 8.67v8.67c0 4.33 4.33 8.66 8.66 8.66h39.92c4.33 0 8.67-4.33 8.67-8.66v-8.67c0-4.33-4.34-8.67-8.67-8.67"/>
<text xml:space="preserve" x="512.5" y="-392.28" font-family="Helvetica,sans-Serif" font-size="9">src/report/</text>
<text xml:space="preserve" x="512.13" y="-383.28" font-family="Helvetica,sans-Serif" font-size="9" font-weight="bold">index.mjs</text>
</a></g><g class="node"><title>src/report/plugins.mjs</title><a xlink:href="https://github.com/sverweij/dependency-cruiser/blob/main/src/report/plugins.mjs" xlink:title="plugins.mjs">
<path fill="#fcf" stroke="#000" d="M671.56-386.63h-47.41c-4.34 0-8.67 4.33-8.67 8.67v8.66c0 4.34 4.33 8.67 8.67 8.67h47.41c4.34 0 8.67-4.33 8.67-8.67v-8.66c0-4.34-4.33-8.67-8.67-8.67"/>
<text xml:space="preserve" x="627.61" y="-375.08" font-family="Helvetica,sans-Serif" font-size="9">src/report/</text>
<text xml:space="preserve" x="623.48" y="-366.08" font-family="Helvetica,sans-Serif" font-size="9" font-weight="bold">plugins.mjs</text>
</a></g><g class="edge"><title>src/report/index.mjs-&gt;src/report/plugins.mjs</title><path fill="none" stroke="#f0f" stroke-opacity=".467" stroke-width="2" d="M561.8-382h44.33"/><path fill="#f0f" fill-opacity=".467" stroke="#f0f" stroke-opacity=".467" stroke-width="2" d="m606.13-384.1 6 2.1-6 2.1z"/></g><g class="node"><title>src/report/json.mjs</title><a xlink:href="https://github.com/sverweij/dependency-cruiser/blob/main/src/report/json.mjs" xlink:title="json.mjs">
<path fill="#fcf" stroke="#000" d="M101.46-44H62.29c-4.33 0-8.67 4.33-8.67 8.67v8.66c0 4.34 4.34 8.67 8.67 8.67h39.17c4.33 0 8.66-4.33 8.66-8.67v-8.66c0-4.34-4.33-8.67-8.66-8.67"/>
<text xml:space="preserve" x="61.62" y="-32.45" font-family="Helvetica,sans-Serif" font-size="9">src/report/</text>
<text xml:space="preserve" x="63.87" y="-23.45" font-family="Helvetica,sans-Serif" font-size="9" font-weight="bold">json.mjs</text>
</a></g><g class="node"><title>src/report/markdown.mjs</title><a xlink:href="https://github.com/sverweij/dependency-cruiser/blob/main/src/report/markdown.mjs" xlink:title="markdown.mjs">
<path fill="#fcf" stroke="#000" d="M563.36-217.24h-61.67c-4.33 0-8.66 4.34-8.66 8.67v8.67c0 4.33 4.33 8.66 8.66 8.66h61.67c4.33 0 8.67-4.33 8.67-8.66v-8.67c0-4.33-4.34-8.67-8.67-8.67"/>
<text xml:space="preserve" x="512.28" y="-205.69" font-family="Helvetica,sans-Serif" font-size="9">src/report/</text>
<text xml:space="preserve" x="501.03" y="-196.69" font-family="Helvetica,sans-Serif" font-size="9" font-weight="bold">markdown.mjs</text>
</a></g><g class="edge"><title>src/report/markdown.mjs-&gt;src/report/error-html</title><path fill="none" stroke="#f0f" stroke-opacity=".467" stroke-width="2" d="M503.33-217.51V-228h-11.71"/><path fill="#f0f" fill-opacity=".467" stroke="#f0f" stroke-opacity=".467" stroke-width="2" d="m491.62-225.9-6-2.1 6-2.1z"/></g><g class="node"><title>src/report/mermaid.mjs</title><a xlink:href="https://github.com/sverweij/dependency-cruiser/blob/main/src/report/mermaid.mjs" xlink:title="no-orphans">
<path fill="#fcf" stroke="red" d="M549.33-62h-54.91c-4.34 0-8.67 4.33-8.67 8.67v8.66c0 4.34 4.33 8.67 8.67 8.67h54.91c4.34 0 8.67-4.33 8.67-8.67v-8.66c0-4.34-4.33-8.67-8.67-8.67"/>
<text xml:space="preserve" x="501.62" y="-50.45" fill="red" font-family="Helvetica,sans-Serif" font-size="9">src/report/</text>
<text xml:space="preserve" x="493.75" y="-41.45" fill="red" font-family="Helvetica,sans-Serif" font-size="9" font-weight="bold">mermaid.mjs</text>
</a></g><g class="node"><title>src/report/metrics.mjs</title><a xlink:href="https://github.com/sverweij/dependency-cruiser/blob/main/src/report/metrics.mjs" xlink:title="metrics.mjs">
<path fill="#fcf" stroke="#000" d="M401.3-387.56h-49.67c-4.33 0-8.67 4.33-8.67 8.67v8.66c0 4.34 4.34 8.67 8.67 8.67h49.67c4.33 0 8.66-4.33 8.66-8.67v-8.66c0-4.34-4.33-8.67-8.66-8.67"/>
<text xml:space="preserve" x="356.21" y="-376.01" font-family="Helvetica,sans-Serif" font-size="9">src/report/</text>
<text xml:space="preserve" x="350.96" y="-367.01" font-family="Helvetica,sans-Serif" font-size="9" font-weight="bold">metrics.mjs</text>
</a></g><g class="edge"><title>src/report/metrics.mjs-&gt;src/report/utl</title><path fill="none" stroke="#f0f" stroke-opacity=".467" stroke-width="2" d="M391.4-361.27v27.07"/><path fill="#f0f" fill-opacity=".467" stroke="#f0f" stroke-opacity=".467" stroke-width="2" d="m393.5-334.2-2.1 6-2.1-6z"/></g><g class="node"><title>src/report/null.mjs</title><a xlink:href="https://github.com/sverweij/dependency-cruiser/blob/main/src/report/null.mjs" xlink:title="null.mjs">
<path fill="#fcf" stroke="#000" d="M191.46-44h-39.17c-4.33 0-8.67 4.33-8.67 8.67v8.66c0 4.34 4.34 8.67 8.67 8.67h39.17c4.33 0 8.66-4.33 8.66-8.67v-8.66c0-4.34-4.33-8.67-8.66-8.67"/>
<text xml:space="preserve" x="151.62" y="-32.45" font-family="Helvetica,sans-Serif" font-size="9">src/report/</text>
<text xml:space="preserve" x="155.37" y="-23.45" font-family="Helvetica,sans-Serif" font-size="9" font-weight="bold">null.mjs</text>
</a></g><g class="node"><title>src/report/teamcity.mjs</title><a xlink:href="https://github.com/sverweij/dependency-cruiser/blob/main/src/report/teamcity.mjs" xlink:title="teamcity.mjs">
<path fill="#fcf" stroke="#000" d="M450.85-421.56h-53.42c-4.33 0-8.66 4.33-8.66 8.66v8.67c0 4.33 4.33 8.67 8.66 8.67h53.42c4.33 0 8.67-4.34 8.67-8.67v-8.67c0-4.33-4.34-8.66-8.67-8.66"/>
<text xml:space="preserve" x="403.89" y="-410.01" font-family="Helvetica,sans-Serif" font-size="9">src/report/</text>
<text xml:space="preserve" x="396.77" y="-401.01" font-family="Helvetica,sans-Serif" font-size="9" font-weight="bold">teamcity.mjs</text>
</a></g><g class="edge"><title>src/report/teamcity.mjs-&gt;src/report/utl</title><path fill="none" stroke="#f0f" stroke-opacity=".467" stroke-width="2" d="M414.8-395.11V-320h-.37"/><path fill="#f0f" fill-opacity=".467" stroke="#f0f" stroke-opacity=".467" stroke-width="2" d="m420.13-317.9-6-2.1 6-2.1z"/></g><g class="node"><title>src/report/teamcity.types.ts</title><a xlink:href="https://github.com/sverweij/dependency-cruiser/blob/main/src/report/teamcity.types.ts" xlink:title="teamcity.types.ts">
<path fill="#fcf" stroke="#000" d="M526.92-468.19h-72.17c-4.33 0-8.67 4.34-8.67 8.67v8.67c0 4.33 4.34 8.66 8.67 8.66h72.17c4.33 0 8.66-4.33 8.66-8.66v-8.67c0-4.33-4.33-8.67-8.66-8.67"/>
<text xml:space="preserve" x="470.58" y="-456.64" font-family="Helvetica,sans-Serif" font-size="9">src/report/</text>
<text xml:space="preserve" x="454.08" y="-447.64" font-family="Helvetica,sans-Serif" font-size="9" font-weight="bold">teamcity.types.ts</text>
</a></g><g class="edge"><title>src/report/teamcity.mjs-&gt;src/report/teamcity.types.ts</title><path fill="none" stroke="#f0f" stroke-opacity=".467" d="M452.8-422.05v-12.33M450.7-434.38l2.1-6 2.1 6z"/></g><g class="node"><title>src/report/text.mjs</title><a xlink:href="https://github.com/sverweij/dependency-cruiser/blob/main/src/report/text.mjs" xlink:title="no-orphans">
<path fill="#fcf" stroke="red" d="M335.46-26h-39.17c-4.33 0-8.67 4.33-8.67 8.67v8.66c0 4.34 4.34 8.67 8.67 8.67h39.17c4.33 0 8.66-4.33 8.66-8.67v-8.66c0-4.34-4.33-8.67-8.66-8.67"/>
<text xml:space="preserve" x="295.62" y="-14.45" fill="red" font-family="Helvetica,sans-Serif" font-size="9">src/report/</text>
<text xml:space="preserve" x="298.62" y="-5.45" fill="red" font-family="Helvetica,sans-Serif" font-size="9" font-weight="bold">text.mjs</text>
</a></g></g></svg>