<?xml version="1.0" encoding="UTF-8" standalone="no"?>
<!DOCTYPE svg PUBLIC "-//W3C//DTD SVG 1.1//EN"
 "http://www.w3.org/Graphics/SVG/1.1/DTD/svg11.dtd">
<!-- Generated by graphviz version 8.0.1 (20230327.1645)
 -->
<!-- Title: dependency&#45;cruiser output Pages: 1 -->
<svg width="707pt" height="688pt"
 viewBox="0.00 0.00 707.00 688.00" xmlns="http://www.w3.org/2000/svg" xmlns:xlink="http://www.w3.org/1999/xlink">
<g id="graph0" class="graph" transform="scale(1 1) rotate(0) translate(4 684)">
<title>dependency&#45;cruiser output</title>
<polygon fill="white" stroke="none" points="-4,4 -4,-684 703,-684 703,4 -4,4"/>
<g id="clust1" class="cluster">
<title>cluster_src</title>
<path fill="#ffffff" stroke="black" stroke-width="2" d="M20,-8C20,-8 679,-8 679,-8 685,-8 691,-14 691,-20 691,-20 691,-660 691,-660 691,-666 685,-672 679,-672 679,-672 20,-672 20,-672 14,-672 8,-666 8,-660 8,-660 8,-20 8,-20 8,-14 14,-8 20,-8"/>
<text text-anchor="middle" x="349.5" y="-660.8" font-family="Helvetica,sans-Serif" font-weight="bold" font-size="9.00">src</text>
</g>
<g id="clust2" class="cluster">
<title>cluster_src/graph&#45;utl</title>
<path fill="#ffffff" stroke="black" stroke-width="2" d="M251,-414C251,-414 671,-414 671,-414 677,-414 683,-420 683,-426 683,-426 683,-574 683,-574 683,-580 677,-586 671,-586 671,-586 251,-586 251,-586 245,-586 239,-580 239,-574 239,-574 239,-426 239,-426 239,-420 245,-414 251,-414"/>
<text text-anchor="middle" x="461" y="-574.8" font-family="Helvetica,sans-Serif" font-weight="bold" font-size="9.00">graph&#45;utl</text>
</g>
<g id="clust3" class="cluster">
<title>cluster_src/report</title>
<path fill="#ffffff" stroke="black" stroke-width="2" d="M28,-16C28,-16 327.5,-16 327.5,-16 333.5,-16 339.5,-22 339.5,-28 339.5,-28 339.5,-394 339.5,-394 339.5,-400 333.5,-406 327.5,-406 327.5,-406 28,-406 28,-406 22,-406 16,-400 16,-394 16,-394 16,-28 16,-28 16,-22 22,-16 28,-16"/>
<text text-anchor="middle" x="177.75" y="-394.8" font-family="Helvetica,sans-Serif" font-weight="bold" font-size="9.00">report</text>
</g>
<g id="clust4" class="cluster">
<title>cluster_src/utl</title>
<path fill="#ffffff" stroke="black" stroke-width="2" d="M262,-594C262,-594 347,-594 347,-594 353,-594 359,-600 359,-606 359,-606 359,-634 359,-634 359,-640 353,-646 347,-646 347,-646 262,-646 262,-646 256,-646 250,-640 250,-634 250,-634 250,-606 250,-606 250,-600 256,-594 262,-594"/>
<text text-anchor="start" x="299" y="-634.8" font-family="Helvetica,sans-Serif" font-weight="bold" font-size="9.00">utl</text>
</g>
<!-- src/graph&#45;utl/add&#45;focus.js -->
<g id="node1" class="node">
<title>src/graph&#45;utl/add&#45;focus.js</title>
<g id="a_node1"><a xlink:href="https://github.com/sverweij/dependency-cruiser/blob/develop/src/graph-utl/add-focus.js" xlink:title="add&#45;focus.js">
<path fill="#ffcccc" stroke="black" d="M486,-530C486,-530 432,-530 432,-530 429,-530 426,-527 426,-524 426,-524 426,-518 426,-518 426,-515 429,-512 432,-512 432,-512 486,-512 486,-512 489,-512 492,-515 492,-518 492,-518 492,-524 492,-524 492,-527 489,-530 486,-530"/>
<text text-anchor="start" x="434" y="-518.8" font-family="Helvetica,sans-Serif" font-size="9.00">add&#45;focus.js</text>
</a>
</g>
</g>
<!-- src/graph&#45;utl/indexed&#45;module&#45;graph.js -->
<g id="node2" class="node">
<title>src/graph&#45;utl/indexed&#45;module&#45;graph.js</title>
<g id="a_node2"><a xlink:href="https://github.com/sverweij/dependency-cruiser/blob/develop/src/graph-utl/indexed-module-graph.js" xlink:title="indexed&#45;module&#45;graph.js">
<path fill="#ffcccc" stroke="black" d="M669,-548C669,-548 562,-548 562,-548 559,-548 556,-545 556,-542 556,-542 556,-536 556,-536 556,-533 559,-530 562,-530 562,-530 669,-530 669,-530 672,-530 675,-533 675,-536 675,-536 675,-542 675,-542 675,-545 672,-548 669,-548"/>
<text text-anchor="start" x="564" y="-536.8" font-family="Helvetica,sans-Serif" font-size="9.00">indexed&#45;module&#45;graph.js</text>
</a>
</g>
</g>
<!-- src/graph&#45;utl/add&#45;focus.js&#45;&gt;src/graph&#45;utl/indexed&#45;module&#45;graph.js -->
<g id="edge1" class="edge">
<title>src/graph&#45;utl/add&#45;focus.js&#45;&gt;src/graph&#45;utl/indexed&#45;module&#45;graph.js</title>
<path fill="none" stroke="#770000" stroke-width="2" stroke-opacity="0.466667" d="M492.27,-521C523.68,-521 566,-521 566,-521 566,-521 566,-521.86 566,-521.86"/>
<polygon fill="#770000" fill-opacity="0.466667" stroke="#770000" stroke-width="2" stroke-opacity="0.466667" points="563.9,-520.58 566,-526.58 568.1,-520.58 563.9,-520.58"/>
</g>
<!-- src/graph&#45;utl/match&#45;facade.js -->
<g id="node3" class="node">
<title>src/graph&#45;utl/match&#45;facade.js</title>
<g id="a_node3"><a xlink:href="https://github.com/sverweij/dependency-cruiser/blob/develop/src/graph-utl/match-facade.js" xlink:title="match&#45;facade.js">
<path fill="#ffcccc" stroke="black" d="M650,-511C650,-511 581,-511 581,-511 578,-511 575,-508 575,-505 575,-505 575,-499 575,-499 575,-496 578,-493 581,-493 581,-493 650,-493 650,-493 653,-493 656,-496 656,-499 656,-499 656,-505 656,-505 656,-508 653,-511 650,-511"/>
<text text-anchor="start" x="583" y="-499.8" font-family="Helvetica,sans-Serif" font-size="9.00">match&#45;facade.js</text>
</a>
</g>
</g>
<!-- src/graph&#45;utl/add&#45;focus.js&#45;&gt;src/graph&#45;utl/match&#45;facade.js -->
<g id="edge2" class="edge">
<title>src/graph&#45;utl/add&#45;focus.js&#45;&gt;src/graph&#45;utl/match&#45;facade.js</title>
<path fill="none" stroke="#770000" stroke-width="2" stroke-opacity="0.466667" d="M459,-511.66C459,-509.26 459,-507.33 459,-507.33 459,-507.33 565.79,-507.33 565.79,-507.33"/>
<polygon fill="#770000" fill-opacity="0.466667" stroke="#770000" stroke-width="2" stroke-opacity="0.466667" points="565.79,-509.43 571.79,-507.33 565.79,-505.23 565.79,-509.43"/>
</g>
<!-- src/graph&#45;utl/compare.js -->
<g id="node4" class="node">
<title>src/graph&#45;utl/compare.js</title>
<g id="a_node4"><a xlink:href="https://github.com/sverweij/dependency-cruiser/blob/develop/src/graph-utl/compare.js" xlink:title="compare.js">
<path fill="#ffcccc" stroke="black" d="M640.5,-440C640.5,-440 590.5,-440 590.5,-440 587.5,-440 584.5,-437 584.5,-434 584.5,-434 584.5,-428 584.5,-428 584.5,-425 587.5,-422 590.5,-422 590.5,-422 640.5,-422 640.5,-422 643.5,-422 646.5,-425 646.5,-428 646.5,-428 646.5,-434 646.5,-434 646.5,-437 643.5,-440 640.5,-440"/>
<text text-anchor="start" x="592.5" y="-428.8" font-family="Helvetica,sans-Serif" font-size="9.00">compare.js</text>
</a>
</g>
</g>
<!-- src/graph&#45;utl/consolidate&#45;module&#45;dependencies.js -->
<g id="node5" class="node">
<title>src/graph&#45;utl/consolidate&#45;module&#45;dependencies.js</title>
<g id="a_node5"><a xlink:href="https://github.com/sverweij/dependency-cruiser/blob/develop/src/graph-utl/consolidate-module-dependencies.js" xlink:title="consolidate&#45;module&#45;dependencies.js">
<path fill="#ffcccc" stroke="black" d="M537,-440C537,-440 381,-440 381,-440 378,-440 375,-437 375,-434 375,-434 375,-428 375,-428 375,-425 378,-422 381,-422 381,-422 537,-422 537,-422 540,-422 543,-425 543,-428 543,-428 543,-434 543,-434 543,-437 540,-440 537,-440"/>
<text text-anchor="start" x="383" y="-428.8" font-family="Helvetica,sans-Serif" font-size="9.00">consolidate&#45;module&#45;dependencies.js</text>
</a>
</g>
</g>
<!-- src/graph&#45;utl/consolidate&#45;module&#45;dependencies.js&#45;&gt;src/graph&#45;utl/compare.js -->
<g id="edge3" class="edge">
<title>src/graph&#45;utl/consolidate&#45;module&#45;dependencies.js&#45;&gt;src/graph&#45;utl/compare.js</title>
<path fill="none" stroke="#770000" stroke-width="2" stroke-opacity="0.466667" d="M543.21,-431C543.21,-431 575.16,-431 575.16,-431"/>
<polygon fill="#770000" fill-opacity="0.466667" stroke="#770000" stroke-width="2" stroke-opacity="0.466667" points="575.16,-433.1 581.16,-431 575.16,-428.9 575.16,-433.1"/>
</g>
<!-- src/graph&#45;utl/consolidate&#45;modules.js -->
<g id="node6" class="node">
<title>src/graph&#45;utl/consolidate&#45;modules.js</title>
<g id="a_node6"><a xlink:href="https://github.com/sverweij/dependency-cruiser/blob/develop/src/graph-utl/consolidate-modules.js" xlink:title="consolidate&#45;modules.js">
<path fill="#ffcccc" stroke="black" d="M508.5,-470C508.5,-470 409.5,-470 409.5,-470 406.5,-470 403.5,-467 403.5,-464 403.5,-464 403.5,-458 403.5,-458 403.5,-455 406.5,-452 409.5,-452 409.5,-452 508.5,-452 508.5,-452 511.5,-452 514.5,-455 514.5,-458 514.5,-458 514.5,-464 514.5,-464 514.5,-467 511.5,-470 508.5,-470"/>
<text text-anchor="start" x="411.5" y="-458.8" font-family="Helvetica,sans-Serif" font-size="9.00">consolidate&#45;modules.js</text>
</a>
</g>
</g>
<!-- src/graph&#45;utl/consolidate&#45;modules.js&#45;&gt;src/graph&#45;utl/compare.js -->
<g id="edge4" class="edge">
<title>src/graph&#45;utl/consolidate&#45;modules.js&#45;&gt;src/graph&#45;utl/compare.js</title>
<path fill="none" stroke="#770000" stroke-width="2" stroke-opacity="0.466667" d="M514.79,-461C559.92,-461 616,-461 616,-461 616,-461 616,-449.49 616,-449.49"/>
<polygon fill="#770000" fill-opacity="0.466667" stroke="#770000" stroke-width="2" stroke-opacity="0.466667" points="618.1,-449.49 616,-443.49 613.9,-449.49 618.1,-449.49"/>
</g>
<!-- src/graph&#45;utl/consolidate&#45;to&#45;folder.js -->
<g id="node7" class="node">
<title>src/graph&#45;utl/consolidate&#45;to&#45;folder.js</title>
<g id="a_node7"><a xlink:href="https://github.com/sverweij/dependency-cruiser/blob/develop/src/graph-utl/consolidate-to-folder.js" xlink:title="consolidate&#45;to&#45;folder.js">
<path fill="#ffcccc" stroke="black" d="M353.5,-440C353.5,-440 255.5,-440 255.5,-440 252.5,-440 249.5,-437 249.5,-434 249.5,-434 249.5,-428 249.5,-428 249.5,-425 252.5,-422 255.5,-422 255.5,-422 353.5,-422 353.5,-422 356.5,-422 359.5,-425 359.5,-428 359.5,-428 359.5,-434 359.5,-434 359.5,-437 356.5,-440 353.5,-440"/>
<text text-anchor="start" x="257.5" y="-428.8" font-family="Helvetica,sans-Serif" font-size="9.00">consolidate&#45;to&#45;folder.js</text>
</a>
</g>
</g>
<!-- src/graph&#45;utl/consolidate&#45;to&#45;folder.js&#45;&gt;src/graph&#45;utl/consolidate&#45;module&#45;dependencies.js -->
<g id="edge5" class="edge">
<title>src/graph&#45;utl/consolidate&#45;to&#45;folder.js&#45;&gt;src/graph&#45;utl/consolidate&#45;module&#45;dependencies.js</title>
<path fill="none" stroke="#770000" stroke-width="2" stroke-opacity="0.466667" d="M359.84,-428C359.84,-428 365.68,-428 365.68,-428"/>
<polygon fill="#770000" fill-opacity="0.466667" stroke="#770000" stroke-width="2" stroke-opacity="0.466667" points="365.68,-430.1 371.68,-428 365.68,-425.9 365.68,-430.1"/>
</g>
<!-- src/graph&#45;utl/consolidate&#45;to&#45;folder.js&#45;&gt;src/graph&#45;utl/consolidate&#45;modules.js -->
<g id="edge6" class="edge">
<title>src/graph&#45;utl/consolidate&#45;to&#45;folder.js&#45;&gt;src/graph&#45;utl/consolidate&#45;modules.js</title>
<path fill="none" stroke="#770000" stroke-width="2" stroke-opacity="0.466667" d="M359.76,-434C365.34,-434 369,-434 369,-434 369,-434 369,-461 369,-461 369,-461 394.03,-461 394.03,-461"/>
<polygon fill="#770000" fill-opacity="0.466667" stroke="#770000" stroke-width="2" stroke-opacity="0.466667" points="394.03,-463.1 400.03,-461 394.03,-458.9 394.03,-463.1"/>
</g>
<!-- src/graph&#45;utl/consolidate&#45;to&#45;pattern.js -->
<g id="node8" class="node">
<title>src/graph&#45;utl/consolidate&#45;to&#45;pattern.js</title>
<g id="a_node8"><a xlink:href="https://github.com/sverweij/dependency-cruiser/blob/develop/src/graph-utl/consolidate-to-pattern.js" xlink:title="consolidate&#45;to&#45;pattern.js">
<path fill="#ffcccc" stroke="black" d="M356,-500C356,-500 253,-500 253,-500 250,-500 247,-497 247,-494 247,-494 247,-488 247,-488 247,-485 250,-482 253,-482 253,-482 356,-482 356,-482 359,-482 362,-485 362,-488 362,-488 362,-494 362,-494 362,-497 359,-500 356,-500"/>
<text text-anchor="start" x="255" y="-488.8" font-family="Helvetica,sans-Serif" font-size="9.00">consolidate&#45;to&#45;pattern.js</text>
</a>
</g>
</g>
<!-- src/graph&#45;utl/consolidate&#45;to&#45;pattern.js&#45;&gt;src/graph&#45;utl/consolidate&#45;module&#45;dependencies.js -->
<g id="edge7" class="edge">
<title>src/graph&#45;utl/consolidate&#45;to&#45;pattern.js&#45;&gt;src/graph&#45;utl/consolidate&#45;module&#45;dependencies.js</title>
<path fill="none" stroke="#770000" stroke-width="2" stroke-opacity="0.466667" d="M362.48,-485.67C377.72,-485.67 390,-485.67 390,-485.67 390,-485.67 390,-449.03 390,-449.03"/>
<polygon fill="#770000" fill-opacity="0.466667" stroke="#770000" stroke-width="2" stroke-opacity="0.466667" points="392.1,-449.03 390,-443.03 387.9,-449.03 392.1,-449.03"/>
</g>
<!-- src/graph&#45;utl/consolidate&#45;to&#45;pattern.js&#45;&gt;src/graph&#45;utl/consolidate&#45;modules.js -->
<g id="edge8" class="edge">
<title>src/graph&#45;utl/consolidate&#45;to&#45;pattern.js&#45;&gt;src/graph&#45;utl/consolidate&#45;modules.js</title>
<path fill="none" stroke="#770000" stroke-width="2" stroke-opacity="0.466667" d="M362.34,-489.33C389.07,-489.33 415,-489.33 415,-489.33 415,-489.33 415,-479.28 415,-479.28"/>
<polygon fill="#770000" fill-opacity="0.466667" stroke="#770000" stroke-width="2" stroke-opacity="0.466667" points="417.1,-479.28 415,-473.28 412.9,-479.28 417.1,-479.28"/>
</g>
<!-- src/graph&#45;utl/filter&#45;bank.js -->
<g id="node9" class="node">
<title>src/graph&#45;utl/filter&#45;bank.js</title>
<g id="a_node9"><a xlink:href="https://github.com/sverweij/dependency-cruiser/blob/develop/src/graph-utl/filter-bank.js" xlink:title="filter&#45;bank.js">
<path fill="#ffcccc" stroke="black" d="M331.5,-530C331.5,-530 277.5,-530 277.5,-530 274.5,-530 271.5,-527 271.5,-524 271.5,-524 271.5,-518 271.5,-518 271.5,-515 274.5,-512 277.5,-512 277.5,-512 331.5,-512 331.5,-512 334.5,-512 337.5,-515 337.5,-518 337.5,-518 337.5,-524 337.5,-524 337.5,-527 334.5,-530 331.5,-530"/>
<text text-anchor="start" x="279.5" y="-518.8" font-family="Helvetica,sans-Serif" font-size="9.00">filter&#45;bank.js</text>
</a>
</g>
</g>
<!-- src/graph&#45;utl/filter&#45;bank.js&#45;&gt;src/graph&#45;utl/add&#45;focus.js -->
<g id="edge9" class="edge">
<title>src/graph&#45;utl/filter&#45;bank.js&#45;&gt;src/graph&#45;utl/add&#45;focus.js</title>
<path fill="none" stroke="#770000" stroke-width="2" stroke-opacity="0.466667" d="M337.64,-521C337.64,-521 416.64,-521 416.64,-521"/>
<polygon fill="#770000" fill-opacity="0.466667" stroke="#770000" stroke-width="2" stroke-opacity="0.466667" points="416.64,-523.1 422.64,-521 416.64,-518.9 416.64,-523.1"/>
</g>
<!-- src/graph&#45;utl/filter&#45;bank.js&#45;&gt;src/graph&#45;utl/indexed&#45;module&#45;graph.js -->
<g id="edge10" class="edge">
<title>src/graph&#45;utl/filter&#45;bank.js&#45;&gt;src/graph&#45;utl/indexed&#45;module&#45;graph.js</title>
<path fill="none" stroke="#770000" stroke-width="2" stroke-opacity="0.466667" d="M305,-530.24C305,-533.33 305,-536 305,-536 305,-536 546.63,-536 546.63,-536"/>
<polygon fill="#770000" fill-opacity="0.466667" stroke="#770000" stroke-width="2" stroke-opacity="0.466667" points="546.63,-538.1 552.63,-536 546.63,-533.9 546.63,-538.1"/>
</g>
<!-- src/graph&#45;utl/filter&#45;bank.js&#45;&gt;src/graph&#45;utl/match&#45;facade.js -->
<g id="edge11" class="edge">
<title>src/graph&#45;utl/filter&#45;bank.js&#45;&gt;src/graph&#45;utl/match&#45;facade.js</title>
<path fill="none" stroke="#770000" stroke-width="2" stroke-opacity="0.466667" d="M305,-511.52C305,-507.48 305,-503.67 305,-503.67 305,-503.67 565.59,-503.67 565.59,-503.67"/>
<polygon fill="#770000" fill-opacity="0.466667" stroke="#770000" stroke-width="2" stroke-opacity="0.466667" points="565.59,-505.77 571.59,-503.67 565.59,-501.57 565.59,-505.77"/>
</g>
<!-- src/graph&#45;utl/rule&#45;set.js -->
<g id="node10" class="node">
<title>src/graph&#45;utl/rule&#45;set.js</title>
<g id="a_node10"><a xlink:href="https://github.com/sverweij/dependency-cruiser/blob/develop/src/graph-utl/rule-set.js" xlink:title="rule&#45;set.js">
<path fill="#ffcccc" stroke="black" d="M326.5,-560C326.5,-560 282.5,-560 282.5,-560 279.5,-560 276.5,-557 276.5,-554 276.5,-554 276.5,-548 276.5,-548 276.5,-545 279.5,-542 282.5,-542 282.5,-542 326.5,-542 326.5,-542 329.5,-542 332.5,-545 332.5,-548 332.5,-548 332.5,-554 332.5,-554 332.5,-557 329.5,-560 326.5,-560"/>
<text text-anchor="start" x="284.5" y="-548.8" font-family="Helvetica,sans-Serif" font-size="9.00">rule&#45;set.js</text>
</a>
</g>
</g>
<!-- src/graph&#45;utl/strip&#45;self&#45;transitions.js -->
<g id="node11" class="node">
<title>src/graph&#45;utl/strip&#45;self&#45;transitions.js</title>
<g id="a_node11"><a xlink:href="https://github.com/sverweij/dependency-cruiser/blob/develop/src/graph-utl/strip-self-transitions.js" xlink:title="strip&#45;self&#45;transitions.js">
<path fill="#ffcccc" stroke="black" d="M351,-470C351,-470 258,-470 258,-470 255,-470 252,-467 252,-464 252,-464 252,-458 252,-458 252,-455 255,-452 258,-452 258,-452 351,-452 351,-452 354,-452 357,-455 357,-458 357,-458 357,-464 357,-464 357,-467 354,-470 351,-470"/>
<text text-anchor="start" x="260" y="-458.8" font-family="Helvetica,sans-Serif" font-size="9.00">strip&#45;self&#45;transitions.js</text>
</a>
</g>
</g>
<!-- src/report/anon -->
<g id="node12" class="node">
<title>src/report/anon</title>
<g id="a_node12"><a xlink:href="https://github.com/sverweij/dependency-cruiser/blob/develop/src/report/anon" xlink:title="anon">
<polygon fill="#ffccff" stroke="black" points="152,-42 100,-42 98,-40 98,-24 150,-24 152,-26 152,-42"/>
<polyline fill="none" stroke="black" points="150,-40 98,-40"/>
<polyline fill="none" stroke="black" points="150,-40 150,-24"/>
<polyline fill="none" stroke="black" points="150,-40 152,-42"/>
<text text-anchor="start" x="114" y="-30.8" font-family="Helvetica,sans-Serif" font-size="9.00">anon</text>
</a>
</g>
</g>
<!-- src/report/baseline.js -->
<g id="node13" class="node">
<title>src/report/baseline.js</title>
<g id="a_node13"><a xlink:href="https://github.com/sverweij/dependency-cruiser/blob/develop/src/report/baseline.js" xlink:title="baseline.js">
<path fill="#ffccff" stroke="black" d="M149.5,-72C149.5,-72 100.5,-72 100.5,-72 97.5,-72 94.5,-69 94.5,-66 94.5,-66 94.5,-60 94.5,-60 94.5,-57 97.5,-54 100.5,-54 100.5,-54 149.5,-54 149.5,-54 152.5,-54 155.5,-57 155.5,-60 155.5,-60 155.5,-66 155.5,-66 155.5,-69 152.5,-72 149.5,-72"/>
<text text-anchor="start" x="102.5" y="-60.8" font-family="Helvetica,sans-Serif" font-size="9.00">baseline.js</text>
</a>
</g>
</g>
<!-- src/report/csv.js -->
<g id="node14" class="node">
<title>src/report/csv.js</title>
<g id="a_node14"><a xlink:href="https://github.com/sverweij/dependency-cruiser/blob/develop/src/report/csv.js" xlink:title="csv.js">
<path fill="#ffccff" stroke="black" d="M222.5,-85C222.5,-85 180.5,-85 180.5,-85 177.5,-85 174.5,-82 174.5,-79 174.5,-79 174.5,-73 174.5,-73 174.5,-70 177.5,-67 180.5,-67 180.5,-67 222.5,-67 222.5,-67 225.5,-67 228.5,-70 228.5,-73 228.5,-73 228.5,-79 228.5,-79 228.5,-82 225.5,-85 222.5,-85"/>
<text text-anchor="start" x="190" y="-73.8" font-family="Helvetica,sans-Serif" font-size="9.00">csv.js</text>
</a>
</g>
</g>
<!-- src/report/utl -->
<g id="node15" class="node">
<title>src/report/utl</title>
<g id="a_node15"><a xlink:href="https://github.com/sverweij/dependency-cruiser/blob/develop/src/report/utl" xlink:title="utl">
<polygon fill="#ffccff" stroke="black" points="331.5,-175 279.5,-175 277.5,-173 277.5,-157 329.5,-157 331.5,-159 331.5,-175"/>
<polyline fill="none" stroke="black" points="329.5,-173 277.5,-173"/>
<polyline fill="none" stroke="black" points="329.5,-173 329.5,-157"/>
<polyline fill="none" stroke="black" points="329.5,-173 331.5,-175"/>
<text text-anchor="start" x="299.5" y="-163.8" font-family="Helvetica,sans-Serif" font-size="9.00">utl</text>
</a>
</g>
</g>
<!-- src/report/csv.js&#45;&gt;src/report/utl -->
<g id="edge12" class="edge">
<title>src/report/csv.js&#45;&gt;src/report/utl</title>
<path fill="none" stroke="#ff00ff" stroke-width="2" stroke-opacity="0.466667" d="M228.81,-76C263.25,-76 318,-76 318,-76 318,-76 318,-147.71 318,-147.71"/>
<polygon fill="#ff00ff" fill-opacity="0.466667" stroke="#ff00ff" stroke-width="2" stroke-opacity="0.466667" points="315.9,-147.71 318,-153.71 320.1,-147.71 315.9,-147.71"/>
</g>
<!-- src/report/dot -->
<g id="node16" class="node">
<title>src/report/dot</title>
<g id="a_node16"><a xlink:href="https://github.com/sverweij/dependency-cruiser/blob/develop/src/report/dot" xlink:title="dot">
<polygon fill="#ffccff" stroke="black" points="228.5,-350 176.5,-350 174.5,-348 174.5,-332 226.5,-332 228.5,-334 228.5,-350"/>
<polyline fill="none" stroke="black" points="226.5,-348 174.5,-348"/>
<polyline fill="none" stroke="black" points="226.5,-348 226.5,-332"/>
<polyline fill="none" stroke="black" points="226.5,-348 228.5,-350"/>
<text text-anchor="start" x="195" y="-338.8" font-family="Helvetica,sans-Serif" font-size="9.00">dot</text>
</a>
</g>
</g>
<!-- src/report/dot&#45;&gt;src/graph&#45;utl/compare.js -->
<g id="edge15" class="edge">
<title>src/report/dot&#45;&gt;src/graph&#45;utl/compare.js</title>
<path fill="none" stroke="#770000" stroke-width="2" stroke-opacity="0.466667" d="M228.7,-337.14C320.91,-337.14 616,-337.14 616,-337.14 616,-337.14 616,-412.66 616,-412.66"/>
<polygon fill="#770000" fill-opacity="0.466667" stroke="#770000" stroke-width="2" stroke-opacity="0.466667" points="613.9,-412.66 616,-418.66 618.1,-412.66 613.9,-412.66"/>
</g>
<!-- src/report/dot&#45;&gt;src/graph&#45;utl/consolidate&#45;to&#45;folder.js -->
<g id="edge18" class="edge">
<title>src/report/dot&#45;&gt;src/graph&#45;utl/consolidate&#45;to&#45;folder.js</title>
<path fill="none" stroke="#770000" stroke-width="2" stroke-opacity="0.466667" d="M228.73,-339.71C245.57,-339.71 264,-339.71 264,-339.71 264,-339.71 264,-412.57 264,-412.57"/>
<polygon fill="#770000" fill-opacity="0.466667" stroke="#770000" stroke-width="2" stroke-opacity="0.466667" points="261.9,-412.57 264,-418.57 266.1,-412.57 261.9,-412.57"/>
</g>
<!-- src/report/dot&#45;&gt;src/graph&#45;utl/consolidate&#45;to&#45;pattern.js -->
<g id="edge16" class="edge">
<title>src/report/dot&#45;&gt;src/graph&#45;utl/consolidate&#45;to&#45;pattern.js</title>
<path fill="none" stroke="#770000" stroke-width="2" stroke-opacity="0.466667" d="M228.75,-344.86C234.57,-344.86 239,-344.86 239,-344.86 239,-344.86 239,-491 239,-491 239,-491 239.75,-491 239.75,-491"/>
<polygon fill="#770000" fill-opacity="0.466667" stroke="#770000" stroke-width="2" stroke-opacity="0.466667" points="237.51,-493.1 243.51,-491 237.51,-488.9 237.51,-493.1"/>
</g>
<!-- src/report/dot&#45;&gt;src/graph&#45;utl/filter&#45;bank.js -->
<g id="edge13" class="edge">
<title>src/report/dot&#45;&gt;src/graph&#45;utl/filter&#45;bank.js</title>
<path fill="none" stroke="#770000" stroke-width="2" stroke-opacity="0.466667" d="M228.86,-347.43C232.5,-347.43 235,-347.43 235,-347.43 235,-347.43 235,-521 235,-521 235,-521 262.38,-521 262.38,-521"/>
<polygon fill="#770000" fill-opacity="0.466667" stroke="#770000" stroke-width="2" stroke-opacity="0.466667" points="262.38,-523.1 268.38,-521 262.38,-518.9 262.38,-523.1"/>
</g>
<!-- src/report/dot&#45;&gt;src/graph&#45;utl/strip&#45;self&#45;transitions.js -->
<g id="edge17" class="edge">
<title>src/report/dot&#45;&gt;src/graph&#45;utl/strip&#45;self&#45;transitions.js</title>
<path fill="none" stroke="#770000" stroke-width="2" stroke-opacity="0.466667" d="M228.95,-342.29C236.67,-342.29 243,-342.29 243,-342.29 243,-342.29 243,-461 243,-461 243,-461 243.86,-461 243.86,-461"/>
<polygon fill="#770000" fill-opacity="0.466667" stroke="#770000" stroke-width="2" stroke-opacity="0.466667" points="242.55,-463.1 248.55,-461 242.55,-458.9 242.55,-463.1"/>
</g>
<!-- src/report/dot&#45;&gt;src/report/utl -->
<g id="edge14" class="edge">
<title>src/report/dot&#45;&gt;src/report/utl</title>
<path fill="none" stroke="#ff00ff" stroke-width="2" stroke-opacity="0.466667" d="M228.96,-334.57C259.63,-334.57 305,-334.57 305,-334.57 305,-334.57 305,-184.06 305,-184.06"/>
<polygon fill="#ff00ff" fill-opacity="0.466667" stroke="#ff00ff" stroke-width="2" stroke-opacity="0.466667" points="307.1,-184.06 305,-178.06 302.9,-184.06 307.1,-184.06"/>
</g>
<!-- src/report/error&#45;html -->
<g id="node17" class="node">
<title>src/report/error&#45;html</title>
<g id="a_node17"><a xlink:href="https://github.com/sverweij/dependency-cruiser/blob/develop/src/report/error-html" xlink:title="error&#45;html">
<polygon fill="#ffccff" stroke="black" points="229.5,-145 175.5,-145 173.5,-143 173.5,-127 227.5,-127 229.5,-129 229.5,-145"/>
<polyline fill="none" stroke="black" points="227.5,-143 173.5,-143"/>
<polyline fill="none" stroke="black" points="227.5,-143 227.5,-127"/>
<polyline fill="none" stroke="black" points="227.5,-143 229.5,-145"/>
<text text-anchor="start" x="181.5" y="-133.8" font-family="Helvetica,sans-Serif" font-size="9.00">error&#45;html</text>
</a>
</g>
</g>
<!-- src/report/error&#45;html&#45;&gt;src/report/utl -->
<g id="edge19" class="edge">
<title>src/report/error&#45;html&#45;&gt;src/report/utl</title>
<path fill="none" stroke="#ff00ff" stroke-width="2" stroke-opacity="0.466667" d="M229.82,-136C256.04,-136 291,-136 291,-136 291,-136 291,-147.51 291,-147.51"/>
<polygon fill="#ff00ff" fill-opacity="0.466667" stroke="#ff00ff" stroke-width="2" stroke-opacity="0.466667" points="288.9,-147.51 291,-153.51 293.1,-147.51 288.9,-147.51"/>
</g>
<!-- src/report/error&#45;long.js -->
<g id="node18" class="node">
<title>src/report/error&#45;long.js</title>
<g id="a_node18"><a xlink:href="https://github.com/sverweij/dependency-cruiser/blob/develop/src/report/error-long.js" xlink:title="error&#45;long.js">
<path fill="#ffccff" stroke="black" d="M152,-306C152,-306 98,-306 98,-306 95,-306 92,-303 92,-300 92,-300 92,-294 92,-294 92,-291 95,-288 98,-288 98,-288 152,-288 152,-288 155,-288 158,-291 158,-294 158,-294 158,-300 158,-300 158,-303 155,-306 152,-306"/>
<text text-anchor="start" x="100" y="-294.8" font-family="Helvetica,sans-Serif" font-size="9.00">error&#45;long.js</text>
</a>
</g>
</g>
<!-- src/report/error.js -->
<g id="node19" class="node">
<title>src/report/error.js</title>
<g id="a_node19"><a xlink:href="https://github.com/sverweij/dependency-cruiser/blob/develop/src/report/error.js" xlink:title="error.js">
<path fill="#ffccff" stroke="black" d="M222.5,-380C222.5,-380 180.5,-380 180.5,-380 177.5,-380 174.5,-377 174.5,-374 174.5,-374 174.5,-368 174.5,-368 174.5,-365 177.5,-362 180.5,-362 180.5,-362 222.5,-362 222.5,-362 225.5,-362 228.5,-365 228.5,-368 228.5,-368 228.5,-374 228.5,-374 228.5,-377 225.5,-380 222.5,-380"/>
<text text-anchor="start" x="187" y="-368.8" font-family="Helvetica,sans-Serif" font-size="9.00">error.js</text>
</a>
</g>
</g>
<!-- src/report/error&#45;long.js&#45;&gt;src/report/error.js -->
<g id="edge20" class="edge">
<title>src/report/error&#45;long.js&#45;&gt;src/report/error.js</title>
<path fill="none" stroke="#ff00ff" stroke-width="2" stroke-opacity="0.466667" d="M158.25,-297C161.71,-297 164,-297 164,-297 164,-297 164,-374 164,-374 164,-374 165.25,-374 165.25,-374"/>
<polygon fill="#ff00ff" fill-opacity="0.466667" stroke="#ff00ff" stroke-width="2" stroke-opacity="0.466667" points="165.25,-376.1 171.25,-374 165.25,-371.9 165.25,-376.1"/>
</g>
<!-- src/report/error.js&#45;&gt;src/graph&#45;utl/rule&#45;set.js -->
<g id="edge21" class="edge">
<title>src/report/error.js&#45;&gt;src/graph&#45;utl/rule&#45;set.js</title>
<path fill="none" stroke="#770000" stroke-width="2" stroke-opacity="0.466667" d="M211,-380.17C211,-416.85 211,-551 211,-551 211,-551 267.19,-551 267.19,-551"/>
<polygon fill="#770000" fill-opacity="0.466667" stroke="#770000" stroke-width="2" stroke-opacity="0.466667" points="267.19,-553.1 273.19,-551 267.19,-548.9 267.19,-553.1"/>
</g>
<!-- src/report/error.js&#45;&gt;src/report/utl -->
<g id="edge23" class="edge">
<title>src/report/error.js&#45;&gt;src/report/utl</title>
<path fill="none" stroke="#ff00ff" stroke-width="2" stroke-opacity="0.466667" d="M228.81,-371C263.25,-371 318,-371 318,-371 318,-371 318,-184.34 318,-184.34"/>
<polygon fill="#ff00ff" fill-opacity="0.466667" stroke="#ff00ff" stroke-width="2" stroke-opacity="0.466667" points="320.1,-184.34 318,-178.34 315.9,-184.34 320.1,-184.34"/>
</g>
<!-- src/utl/wrap&#45;and&#45;indent.js -->
<g id="node20" class="node">
<title>src/utl/wrap&#45;and&#45;indent.js</title>
<g id="a_node20"><a xlink:href="https://github.com/sverweij/dependency-cruiser/blob/develop/src/utl/wrap-and-indent.js" xlink:title="utl&#45;module&#45;not&#45;shared&#45;enough">
<path fill="#cccccc" stroke="blue" d="M345,-620C345,-620 264,-620 264,-620 261,-620 258,-617 258,-614 258,-614 258,-608 258,-608 258,-605 261,-602 264,-602 264,-602 345,-602 345,-602 348,-602 351,-605 351,-608 351,-608 351,-614 351,-614 351,-617 348,-620 345,-620"/>
<text text-anchor="start" x="266" y="-608.8" font-family="Helvetica,sans-Serif" font-size="9.00" fill="blue">wrap&#45;and&#45;indent.js</text>
</a>
</g>
</g>
<!-- src/report/error.js&#45;&gt;src/utl/wrap&#45;and&#45;indent.js -->
<g id="edge22" class="edge">
<title>src/report/error.js&#45;&gt;src/utl/wrap&#45;and&#45;indent.js</title>
<path fill="none" stroke="#aaaaaa" stroke-width="2" stroke-opacity="0.466667" d="M193,-380.41C193,-424.78 193,-611 193,-611 193,-611 248.54,-611 248.54,-611"/>
<polygon fill="#aaaaaa" fill-opacity="0.466667" stroke="#aaaaaa" stroke-width="2" stroke-opacity="0.466667" points="248.54,-613.1 254.54,-611 248.54,-608.9 248.54,-613.1"/>
</g>
<!-- src/report/html -->
<g id="node21" class="node">
<title>src/report/html</title>
<g id="a_node21"><a xlink:href="https://github.com/sverweij/dependency-cruiser/blob/develop/src/report/html" xlink:title="html">
<polygon fill="#ffccff" stroke="black" points="228.5,-115 176.5,-115 174.5,-113 174.5,-97 226.5,-97 228.5,-99 228.5,-115"/>
<polyline fill="none" stroke="black" points="226.5,-113 174.5,-113"/>
<polyline fill="none" stroke="black" points="226.5,-113 226.5,-97"/>
<polyline fill="none" stroke="black" points="226.5,-113 228.5,-115"/>
<text text-anchor="start" x="192.5" y="-103.8" font-family="Helvetica,sans-Serif" font-size="9.00">html</text>
</a>
</g>
</g>
<!-- src/report/html&#45;&gt;src/report/utl -->
<g id="edge24" class="edge">
<title>src/report/html&#45;&gt;src/report/utl</title>
<path fill="none" stroke="#ff00ff" stroke-width="2" stroke-opacity="0.466667" d="M228.96,-106C259.63,-106 305,-106 305,-106 305,-106 305,-147.62 305,-147.62"/>
<polygon fill="#ff00ff" fill-opacity="0.466667" stroke="#ff00ff" stroke-width="2" stroke-opacity="0.466667" points="302.9,-147.62 305,-153.62 307.1,-147.63 302.9,-147.62"/>
</g>
<!-- src/report/identity.js -->
<g id="node22" class="node">
<title>src/report/identity.js</title>
<g id="a_node22"><a xlink:href="https://github.com/sverweij/dependency-cruiser/blob/develop/src/report/identity.js" xlink:title="identity.js">
<path fill="#ffccff" stroke="black" d="M146.5,-202C146.5,-202 103.5,-202 103.5,-202 100.5,-202 97.5,-199 97.5,-196 97.5,-196 97.5,-190 97.5,-190 97.5,-187 100.5,-184 103.5,-184 103.5,-184 146.5,-184 146.5,-184 149.5,-184 152.5,-187 152.5,-190 152.5,-190 152.5,-196 152.5,-196 152.5,-199 149.5,-202 146.5,-202"/>
<text text-anchor="start" x="105.5" y="-190.8" font-family="Helvetica,sans-Serif" font-size="9.00">identity.js</text>
</a>
</g>
</g>
<!-- src/report/index.js -->
<g id="node23" class="node">
<title>src/report/index.js</title>
<g id="a_node23"><a xlink:href="https://github.com/sverweij/dependency-cruiser/blob/develop/src/report/index.js" xlink:title="index.js">
<path fill="#ffccff" stroke="black" d="M72,-191C72,-191 30,-191 30,-191 27,-191 24,-188 24,-185 24,-185 24,-179 24,-179 24,-176 27,-173 30,-173 30,-173 72,-173 72,-173 75,-173 78,-176 78,-179 78,-179 78,-185 78,-185 78,-188 75,-191 72,-191"/>
<text text-anchor="start" x="35" y="-179.8" font-family="Helvetica,sans-Serif" font-size="9.00">index.js</text>
</a>
</g>
</g>
<!-- src/report/index.js&#45;&gt;src/report/anon -->
<g id="edge25" class="edge">
<title>src/report/index.js&#45;&gt;src/report/anon</title>
<path fill="none" stroke="#ff00ff" stroke-width="2" stroke-opacity="0.466667" d="M32,-172.68C32,-140.06 32,-33 32,-33 32,-33 88.6,-33 88.6,-33"/>
<polygon fill="#ff00ff" fill-opacity="0.466667" stroke="#ff00ff" stroke-width="2" stroke-opacity="0.466667" points="88.6,-35.1 94.6,-33 88.6,-30.9 88.6,-35.1"/>
</g>
<!-- src/report/index.js&#45;&gt;src/report/baseline.js -->
<g id="edge26" class="edge">
<title>src/report/index.js&#45;&gt;src/report/baseline.js</title>
<path fill="none" stroke="#ff00ff" stroke-width="2" stroke-opacity="0.466667" d="M40,-172.66C40,-144.61 40,-63 40,-63 40,-63 85.31,-63 85.31,-63"/>
<polygon fill="#ff00ff" fill-opacity="0.466667" stroke="#ff00ff" stroke-width="2" stroke-opacity="0.466667" points="85.31,-65.1 91.31,-63 85.31,-60.9 85.31,-65.1"/>
</g>
<!-- src/report/index.js&#45;&gt;src/report/csv.js -->
<g id="edge27" class="edge">
<title>src/report/index.js&#45;&gt;src/report/csv.js</title>
<path fill="none" stroke="#ff00ff" stroke-width="2" stroke-opacity="0.466667" d="M48,-172.82C48,-147.48 48,-78.5 48,-78.5 48,-78.5 165.06,-78.5 165.06,-78.5"/>
<polygon fill="#ff00ff" fill-opacity="0.466667" stroke="#ff00ff" stroke-width="2" stroke-opacity="0.466667" points="165.06,-80.6 171.06,-78.5 165.06,-76.4 165.06,-80.6"/>
</g>
<!-- src/report/index.js&#45;&gt;src/report/dot -->
<g id="edge28" class="edge">
<title>src/report/index.js&#45;&gt;src/report/dot</title>
<path fill="none" stroke="#ff00ff" stroke-width="2" stroke-opacity="0.466667" d="M40,-191.12C40,-225.18 40,-343 40,-343 40,-343 165.1,-343 165.1,-343"/>
<polygon fill="#ff00ff" fill-opacity="0.466667" stroke="#ff00ff" stroke-width="2" stroke-opacity="0.466667" points="165.1,-345.1 171.1,-343 165.1,-340.9 165.1,-345.1"/>
</g>
<!-- src/report/index.js&#45;&gt;src/report/error&#45;html -->
<g id="edge30" class="edge">
<title>src/report/index.js&#45;&gt;src/report/error&#45;html</title>
<path fill="none" stroke="#ff00ff" stroke-width="2" stroke-opacity="0.466667" d="M71,-172.56C71,-159.5 71,-137.5 71,-137.5 71,-137.5 164.18,-137.5 164.18,-137.5"/>
<polygon fill="#ff00ff" fill-opacity="0.466667" stroke="#ff00ff" stroke-width="2" stroke-opacity="0.466667" points="164.18,-139.6 170.18,-137.5 164.18,-135.4 164.18,-139.6"/>
</g>
<!-- src/report/index.js&#45;&gt;src/report/error&#45;long.js -->
<g id="edge31" class="edge">
<title>src/report/index.js&#45;&gt;src/report/error&#45;long.js</title>
<path fill="none" stroke="#ff00ff" stroke-width="2" stroke-opacity="0.466667" d="M55,-191.41C55,-218.88 55,-297 55,-297 55,-297 82.64,-297 82.64,-297"/>
<polygon fill="#ff00ff" fill-opacity="0.466667" stroke="#ff00ff" stroke-width="2" stroke-opacity="0.466667" points="82.64,-299.1 88.64,-297 82.64,-294.9 82.64,-299.1"/>
</g>
<!-- src/report/index.js&#45;&gt;src/report/error.js -->
<g id="edge29" class="edge">
<title>src/report/index.js&#45;&gt;src/report/error.js</title>
<path fill="none" stroke="#ff00ff" stroke-width="2" stroke-opacity="0.466667" d="M78.43,-181.75C113.01,-181.75 168,-181.75 168,-181.75 168,-181.75 168,-368 168,-368 168,-368 168.61,-368 168.61,-368"/>
<polygon fill="#ff00ff" fill-opacity="0.466667" stroke="#ff00ff" stroke-width="2" stroke-opacity="0.466667" points="165.14,-370.1 171.14,-368 165.14,-365.9 165.14,-370.1"/>
</g>
<!-- src/report/index.js&#45;&gt;src/report/html -->
<g id="edge32" class="edge">
<title>src/report/index.js&#45;&gt;src/report/html</title>
<path fill="none" stroke="#ff00ff" stroke-width="2" stroke-opacity="0.466667" d="M55,-172.81C55,-152.28 55,-104.5 55,-104.5 55,-104.5 165.29,-104.5 165.29,-104.5"/>
<polygon fill="#ff00ff" fill-opacity="0.466667" stroke="#ff00ff" stroke-width="2" stroke-opacity="0.466667" points="165.29,-106.6 171.29,-104.5 165.29,-102.4 165.29,-106.6"/>
</g>
<!-- src/report/index.js&#45;&gt;src/report/identity.js -->
<g id="edge33" class="edge">
<title>src/report/index.js&#45;&gt;src/report/identity.js</title>
<path fill="none" stroke="#ff00ff" stroke-width="2" stroke-opacity="0.466667" d="M78.13,-187.5C78.13,-187.5 88.37,-187.5 88.37,-187.5"/>
<polygon fill="#ff00ff" fill-opacity="0.466667" stroke="#ff00ff" stroke-width="2" stroke-opacity="0.466667" points="88.37,-189.6 94.37,-187.5 88.37,-185.4 88.37,-189.6"/>
</g>
<!-- src/report/json.js -->
<g id="node24" class="node">
<title>src/report/json.js</title>
<g id="a_node24"><a xlink:href="https://github.com/sverweij/dependency-cruiser/blob/develop/src/report/json.js" xlink:title="json.js">
<path fill="#ffccff" stroke="black" d="M146,-232C146,-232 104,-232 104,-232 101,-232 98,-229 98,-226 98,-226 98,-220 98,-220 98,-217 101,-214 104,-214 104,-214 146,-214 146,-214 149,-214 152,-217 152,-220 152,-220 152,-226 152,-226 152,-229 149,-232 146,-232"/>
<text text-anchor="start" x="111.5" y="-220.8" font-family="Helvetica,sans-Serif" font-size="9.00">json.js</text>
</a>
</g>
</g>
<!-- src/report/index.js&#45;&gt;src/report/json.js -->
<g id="edge34" class="edge">
<title>src/report/index.js&#45;&gt;src/report/json.js</title>
<path fill="none" stroke="#ff00ff" stroke-width="2" stroke-opacity="0.466667" d="M71,-191.1C71,-203.18 71,-223 71,-223 71,-223 88.68,-223 88.68,-223"/>
<polygon fill="#ff00ff" fill-opacity="0.466667" stroke="#ff00ff" stroke-width="2" stroke-opacity="0.466667" points="88.68,-225.1 94.68,-223 88.68,-220.9 88.68,-225.1"/>
</g>
<!-- src/report/markdown.js -->
<g id="node25" class="node">
<title>src/report/markdown.js</title>
<g id="a_node25"><a xlink:href="https://github.com/sverweij/dependency-cruiser/blob/develop/src/report/markdown.js" xlink:title="markdown.js">
<path fill="#ffccff" stroke="black" d="M153,-130C153,-130 97,-130 97,-130 94,-130 91,-127 91,-124 91,-124 91,-118 91,-118 91,-115 94,-112 97,-112 97,-112 153,-112 153,-112 156,-112 159,-115 159,-118 159,-118 159,-124 159,-124 159,-127 156,-130 153,-130"/>
<text text-anchor="start" x="99" y="-118.8" font-family="Helvetica,sans-Serif" font-size="9.00">markdown.js</text>
</a>
</g>
</g>
<!-- src/report/index.js&#45;&gt;src/report/markdown.js -->
<g id="edge35" class="edge">
<title>src/report/index.js&#45;&gt;src/report/markdown.js</title>
<path fill="none" stroke="#ff00ff" stroke-width="2" stroke-opacity="0.466667" d="M63,-172.74C63,-155.67 63,-121 63,-121 63,-121 81.74,-121 81.74,-121"/>
<polygon fill="#ff00ff" fill-opacity="0.466667" stroke="#ff00ff" stroke-width="2" stroke-opacity="0.466667" points="81.74,-123.1 87.74,-121 81.74,-118.9 81.74,-123.1"/>
</g>
<!-- src/report/mermaid.js -->
<g id="node26" class="node">
<title>src/report/mermaid.js</title>
<g id="a_node26"><a xlink:href="https://github.com/sverweij/dependency-cruiser/blob/develop/src/report/mermaid.js" xlink:title="mermaid.js">
<path fill="#ffccff" stroke="black" d="M150,-276C150,-276 100,-276 100,-276 97,-276 94,-273 94,-270 94,-270 94,-264 94,-264 94,-261 97,-258 100,-258 100,-258 150,-258 150,-258 153,-258 156,-261 156,-264 156,-264 156,-270 156,-270 156,-273 153,-276 150,-276"/>
<text text-anchor="start" x="102" y="-264.8" font-family="Helvetica,sans-Serif" font-size="9.00">mermaid.js</text>
</a>
</g>
</g>
<!-- src/report/index.js&#45;&gt;src/report/mermaid.js -->
<g id="edge36" class="edge">
<title>src/report/index.js&#45;&gt;src/report/mermaid.js</title>
<path fill="none" stroke="#ff00ff" stroke-width="2" stroke-opacity="0.466667" d="M63,-191.42C63,-213.55 63,-267 63,-267 63,-267 84.64,-267 84.64,-267"/>
<polygon fill="#ff00ff" fill-opacity="0.466667" stroke="#ff00ff" stroke-width="2" stroke-opacity="0.466667" points="84.64,-269.1 90.64,-267 84.64,-264.9 84.64,-269.1"/>
</g>
<!-- src/report/metrics.js -->
<g id="node27" class="node">
<title>src/report/metrics.js</title>
<g id="a_node27"><a xlink:href="https://github.com/sverweij/dependency-cruiser/blob/develop/src/report/metrics.js" xlink:title="metrics.js">
<path fill="#ffccff" stroke="black" d="M223,-175C223,-175 180,-175 180,-175 177,-175 174,-172 174,-169 174,-169 174,-163 174,-163 174,-160 177,-157 180,-157 180,-157 223,-157 223,-157 226,-157 229,-160 229,-163 229,-163 229,-169 229,-169 229,-172 226,-175 223,-175"/>
<text text-anchor="start" x="182" y="-163.8" font-family="Helvetica,sans-Serif" font-size="9.00">metrics.js</text>
</a>
</g>
</g>
<!-- src/report/index.js&#45;&gt;src/report/metrics.js -->
<g id="edge37" class="edge">
<title>src/report/index.js&#45;&gt;src/report/metrics.js</title>
<path fill="none" stroke="#ff00ff" stroke-width="2" stroke-opacity="0.466667" d="M78.38,-177.25C119.64,-177.25 193,-177.25 193,-177.25 193,-177.25 193,-177.07 193,-177.07"/>
<polygon fill="#ff00ff" fill-opacity="0.466667" stroke="#ff00ff" stroke-width="2" stroke-opacity="0.466667" points="195.1,-184.49 193,-178.49 190.9,-184.49 195.1,-184.49"/>
</g>
<!-- src/report/plugins.js -->
<g id="node28" class="node">
<title>src/report/plugins.js</title>
<g id="a_node28"><a xlink:href="https://github.com/sverweij/dependency-cruiser/blob/develop/src/report/plugins.js" xlink:title="plugins.js">
<path fill="#ffccff" stroke="black" d="M147,-336C147,-336 103,-336 103,-336 100,-336 97,-333 97,-330 97,-330 97,-324 97,-324 97,-321 100,-318 103,-318 103,-318 147,-318 147,-318 150,-318 153,-321 153,-324 153,-324 153,-330 153,-330 153,-333 150,-336 147,-336"/>
<text text-anchor="start" x="105" y="-324.8" font-family="Helvetica,sans-Serif" font-size="9.00">plugins.js</text>
</a>
</g>
</g>
<!-- src/report/index.js&#45;&gt;src/report/plugins.js -->
<g id="edge38" class="edge">
<title>src/report/index.js&#45;&gt;src/report/plugins.js</title>
<path fill="none" stroke="#ff00ff" stroke-width="2" stroke-opacity="0.466667" d="M48,-191.07C48,-222.81 48,-327 48,-327 48,-327 87.77,-327 87.77,-327"/>
<polygon fill="#ff00ff" fill-opacity="0.466667" stroke="#ff00ff" stroke-width="2" stroke-opacity="0.466667" points="87.77,-329.1 93.77,-327 87.77,-324.9 87.77,-329.1"/>
</g>
<!-- src/report/teamcity.js -->
<g id="node29" class="node">
<title>src/report/teamcity.js</title>
<g id="a_node29"><a xlink:href="https://github.com/sverweij/dependency-cruiser/blob/develop/src/report/teamcity.js" xlink:title="teamcity.js">
<path fill="#ffccff" stroke="black" d="M225,-205C225,-205 178,-205 178,-205 175,-205 172,-202 172,-199 172,-199 172,-193 172,-193 172,-190 175,-187 178,-187 178,-187 225,-187 225,-187 228,-187 231,-190 231,-193 231,-193 231,-199 231,-199 231,-202 228,-205 225,-205"/>
<text text-anchor="start" x="180" y="-193.8" font-family="Helvetica,sans-Serif" font-size="9.00">teamcity.js</text>
</a>
</g>
</g>
<!-- src/report/index.js&#45;&gt;src/report/teamcity.js -->
<g id="edge39" class="edge">
<title>src/report/index.js&#45;&gt;src/report/teamcity.js</title>
<path fill="none" stroke="#ff00ff" stroke-width="2" stroke-opacity="0.466667" d="M78.14,-179.5C123.79,-179.5 211,-179.5 211,-179.5 211,-179.5 211,-180.21 211,-180.21"/>
<polygon fill="#ff00ff" fill-opacity="0.466667" stroke="#ff00ff" stroke-width="2" stroke-opacity="0.466667" points="208.9,-177.59 211,-183.59 213.1,-177.59 208.9,-177.59"/>
</g>
<!-- src/report/text.js -->
<g id="node30" class="node">
<title>src/report/text.js</title>
<g id="a_node30"><a xlink:href="https://github.com/sverweij/dependency-cruiser/blob/develop/src/report/text.js" xlink:title="text.js">
<path fill="#ffccff" stroke="black" d="M146,-380C146,-380 104,-380 104,-380 101,-380 98,-377 98,-374 98,-374 98,-368 98,-368 98,-365 101,-362 104,-362 104,-362 146,-362 146,-362 149,-362 152,-365 152,-368 152,-368 152,-374 152,-374 152,-377 149,-380 146,-380"/>
<text text-anchor="start" x="113" y="-368.8" font-family="Helvetica,sans-Serif" font-size="9.00">text.js</text>
</a>
</g>
</g>
<!-- src/report/index.js&#45;&gt;src/report/text.js -->
<g id="edge40" class="edge">
<title>src/report/index.js&#45;&gt;src/report/text.js</title>
<path fill="none" stroke="#ff00ff" stroke-width="2" stroke-opacity="0.466667" d="M32,-191.37C32,-229.51 32,-371 32,-371 32,-371 88.6,-371 88.6,-371"/>
<polygon fill="#ff00ff" fill-opacity="0.466667" stroke="#ff00ff" stroke-width="2" stroke-opacity="0.466667" points="88.6,-373.1 94.6,-371 88.6,-368.9 88.6,-373.1"/>
</g>
<!-- src/report/markdown.js&#45;&gt;src/report/error&#45;html -->
<g id="edge41" class="edge">
<title>src/report/markdown.js&#45;&gt;src/report/error&#45;html</title>
<path fill="none" stroke="#ff00ff" stroke-width="2" stroke-opacity="0.466667" d="M159.45,-121C179.95,-121 202,-121 202,-121 202,-121 202,-121.58 202,-121.58"/>
<polygon fill="#ff00ff" fill-opacity="0.466667" stroke="#ff00ff" stroke-width="2" stroke-opacity="0.466667" points="199.9,-117.76 202,-123.76 204.1,-117.76 199.9,-117.76"/>
</g>
<!-- src/report/metrics.js&#45;&gt;src/report/utl -->
<g id="edge42" class="edge">
<title>src/report/metrics.js&#45;&gt;src/report/utl</title>
<path fill="none" stroke="#ff00ff" stroke-width="2" stroke-opacity="0.466667" d="M229.37,-166C229.37,-166 268.32,-166 268.32,-166"/>
<polygon fill="#ff00ff" fill-opacity="0.466667" stroke="#ff00ff" stroke-width="2" stroke-opacity="0.466667" points="268.32,-168.1 274.32,-166 268.32,-163.9 268.32,-168.1"/>
</g>
<!-- src/report/teamcity.js&#45;&gt;src/report/utl -->
<g id="edge43" class="edge">
<title>src/report/teamcity.js&#45;&gt;src/report/utl</title>
<path fill="none" stroke="#ff00ff" stroke-width="2" stroke-opacity="0.466667" d="M231.3,-196C257.34,-196 291,-196 291,-196 291,-196 291,-184.49 291,-184.49"/>
<polygon fill="#ff00ff" fill-opacity="0.466667" stroke="#ff00ff" stroke-width="2" stroke-opacity="0.466667" points="293.1,-184.49 291,-178.49 288.9,-184.49 293.1,-184.49"/>
</g>
</g>
</svg>
