<?xml version="1.0" encoding="UTF-8" standalone="no"?>
<!DOCTYPE svg PUBLIC "-//W3C//DTD SVG 1.1//EN"
 "http://www.w3.org/Graphics/SVG/1.1/DTD/svg11.dtd">
<!-- Generated by graphviz version 8.0.1 (20230327.1645)
 -->
<!-- Title: dependency&#45;cruiser output Pages: 1 -->
<svg width="679pt" height="590pt"
 viewBox="0.00 0.00 679.00 590.00" xmlns="http://www.w3.org/2000/svg" xmlns:xlink="http://www.w3.org/1999/xlink">
<g id="graph0" class="graph" transform="scale(1 1) rotate(0) translate(4 586)">
<title>dependency&#45;cruiser output</title>
<polygon fill="white" stroke="none" points="-4,4 -4,-586 675,-586 675,4 -4,4"/>
<g id="clust1" class="cluster">
<title>cluster_src</title>
<path fill="#ffffff" stroke="black" stroke-width="2" d="M20,-8C20,-8 651,-8 651,-8 657,-8 663,-14 663,-20 663,-20 663,-562 663,-562 663,-568 657,-574 651,-574 651,-574 20,-574 20,-574 14,-574 8,-568 8,-562 8,-562 8,-20 8,-20 8,-14 14,-8 20,-8"/>
<text text-anchor="middle" x="335.5" y="-562.8" font-family="Helvetica,sans-Serif" font-weight="bold" font-size="9.00">src</text>
</g>
<g id="clust2" class="cluster">
<title>cluster_src/graph&#45;utl</title>
<path fill="#ffffff" stroke="black" stroke-width="2" d="M200,-316C200,-316 643,-316 643,-316 649,-316 655,-322 655,-328 655,-328 655,-476 655,-476 655,-482 649,-488 643,-488 643,-488 200,-488 200,-488 194,-488 188,-482 188,-476 188,-476 188,-328 188,-328 188,-322 194,-316 200,-316"/>
<text text-anchor="middle" x="421.5" y="-476.8" font-family="Helvetica,sans-Serif" font-weight="bold" font-size="9.00">graph&#45;utl</text>
</g>
<g id="clust3" class="cluster">
<title>cluster_src/report</title>
<path fill="#ffffff" stroke="black" stroke-width="2" d="M28,-16C28,-16 280,-16 280,-16 286,-16 292,-22 292,-28 292,-28 292,-296 292,-296 292,-302 286,-308 280,-308 280,-308 28,-308 28,-308 22,-308 16,-302 16,-296 16,-296 16,-28 16,-28 16,-22 22,-16 28,-16"/>
<text text-anchor="middle" x="154" y="-296.8" font-family="Helvetica,sans-Serif" font-weight="bold" font-size="9.00">report</text>
</g>
<g id="clust4" class="cluster">
<title>cluster_src/utl</title>
<path fill="#ffffff" stroke="black" stroke-width="2" d="M210.5,-496C210.5,-496 303.5,-496 303.5,-496 309.5,-496 315.5,-502 315.5,-508 315.5,-508 315.5,-536 315.5,-536 315.5,-542 309.5,-548 303.5,-548 303.5,-548 210.5,-548 210.5,-548 204.5,-548 198.5,-542 198.5,-536 198.5,-536 198.5,-508 198.5,-508 198.5,-502 204.5,-496 210.5,-496"/>
<text text-anchor="start" x="251.5" y="-536.8" font-family="Helvetica,sans-Serif" font-weight="bold" font-size="9.00">utl</text>
</g>
<!-- src/graph&#45;utl/add&#45;focus.mjs -->
<g id="node1" class="node">
<title>src/graph&#45;utl/add&#45;focus.mjs</title>
<g id="a_node1"><a xlink:href="https://github.com/sverweij/dependency-cruiser/blob/develop/src/graph-utl/add-focus.mjs" xlink:title="add&#45;focus.mjs">
<path fill="#ffcccc" stroke="black" d="M450,-432C450,-432 388,-432 388,-432 385,-432 382,-429 382,-426 382,-426 382,-420 382,-420 382,-417 385,-414 388,-414 388,-414 450,-414 450,-414 453,-414 456,-417 456,-420 456,-420 456,-426 456,-426 456,-429 453,-432 450,-432"/>
<text text-anchor="start" x="390" y="-420.8" font-family="Helvetica,sans-Serif" font-size="9.00">add&#45;focus.mjs</text>
</a>
</g>
</g>
<!-- src/graph&#45;utl/indexed&#45;module&#45;graph.mjs -->
<g id="node2" class="node">
<title>src/graph&#45;utl/indexed&#45;module&#45;graph.mjs</title>
<g id="a_node2"><a xlink:href="https://github.com/sverweij/dependency-cruiser/blob/develop/src/graph-utl/indexed-module-graph.mjs" xlink:title="indexed&#45;module&#45;graph.mjs">
<path fill="#ffcccc" stroke="black" d="M641,-450C641,-450 526,-450 526,-450 523,-450 520,-447 520,-444 520,-444 520,-438 520,-438 520,-435 523,-432 526,-432 526,-432 641,-432 641,-432 644,-432 647,-435 647,-438 647,-438 647,-444 647,-444 647,-447 644,-450 641,-450"/>
<text text-anchor="start" x="528" y="-438.8" font-family="Helvetica,sans-Serif" font-size="9.00">indexed&#45;module&#45;graph.mjs</text>
</a>
</g>
</g>
<!-- src/graph&#45;utl/add&#45;focus.mjs&#45;&gt;src/graph&#45;utl/indexed&#45;module&#45;graph.mjs -->
<g id="edge1" class="edge">
<title>src/graph&#45;utl/add&#45;focus.mjs&#45;&gt;src/graph&#45;utl/indexed&#45;module&#45;graph.mjs</title>
<path fill="none" stroke="#770000" stroke-width="2" stroke-opacity="0.466667" d="M456.27,-423C488.52,-423 530,-423 530,-423 530,-423 530,-423.86 530,-423.86"/>
<polygon fill="#770000" fill-opacity="0.466667" stroke="#770000" stroke-width="2" stroke-opacity="0.466667" points="527.9,-422.58 530,-428.58 532.1,-422.58 527.9,-422.58"/>
</g>
<!-- src/graph&#45;utl/match&#45;facade.mjs -->
<g id="node3" class="node">
<title>src/graph&#45;utl/match&#45;facade.mjs</title>
<g id="a_node3"><a xlink:href="https://github.com/sverweij/dependency-cruiser/blob/develop/src/graph-utl/match-facade.mjs" xlink:title="match&#45;facade.mjs">
<path fill="#ffcccc" stroke="black" d="M622,-413C622,-413 545,-413 545,-413 542,-413 539,-410 539,-407 539,-407 539,-401 539,-401 539,-398 542,-395 545,-395 545,-395 622,-395 622,-395 625,-395 628,-398 628,-401 628,-401 628,-407 628,-407 628,-410 625,-413 622,-413"/>
<text text-anchor="start" x="547" y="-401.8" font-family="Helvetica,sans-Serif" font-size="9.00">match&#45;facade.mjs</text>
</a>
</g>
</g>
<!-- src/graph&#45;utl/add&#45;focus.mjs&#45;&gt;src/graph&#45;utl/match&#45;facade.mjs -->
<g id="edge2" class="edge">
<title>src/graph&#45;utl/add&#45;focus.mjs&#45;&gt;src/graph&#45;utl/match&#45;facade.mjs</title>
<path fill="none" stroke="#770000" stroke-width="2" stroke-opacity="0.466667" d="M419,-413.66C419,-411.26 419,-409.33 419,-409.33 419,-409.33 529.55,-409.33 529.55,-409.33"/>
<polygon fill="#770000" fill-opacity="0.466667" stroke="#770000" stroke-width="2" stroke-opacity="0.466667" points="529.55,-411.43 535.55,-409.33 529.55,-407.23 529.55,-411.43"/>
</g>
<!-- src/graph&#45;utl/compare.mjs -->
<g id="node4" class="node">
<title>src/graph&#45;utl/compare.mjs</title>
<g id="a_node4"><a xlink:href="https://github.com/sverweij/dependency-cruiser/blob/develop/src/graph-utl/compare.mjs" xlink:title="compare.mjs">
<path fill="#ffcccc" stroke="black" d="M612,-342C612,-342 555,-342 555,-342 552,-342 549,-339 549,-336 549,-336 549,-330 549,-330 549,-327 552,-324 555,-324 555,-324 612,-324 612,-324 615,-324 618,-327 618,-330 618,-330 618,-336 618,-336 618,-339 615,-342 612,-342"/>
<text text-anchor="start" x="557" y="-330.8" font-family="Helvetica,sans-Serif" font-size="9.00">compare.mjs</text>
</a>
</g>
</g>
<!-- src/graph&#45;utl/consolidate&#45;module&#45;dependencies.mjs -->
<g id="node5" class="node">
<title>src/graph&#45;utl/consolidate&#45;module&#45;dependencies.mjs</title>
<g id="a_node5"><a xlink:href="https://github.com/sverweij/dependency-cruiser/blob/develop/src/graph-utl/consolidate-module-dependencies.mjs" xlink:title="consolidate&#45;module&#45;dependencies.mjs">
<path fill="#ffcccc" stroke="black" d="M501,-342C501,-342 337,-342 337,-342 334,-342 331,-339 331,-336 331,-336 331,-330 331,-330 331,-327 334,-324 337,-324 337,-324 501,-324 501,-324 504,-324 507,-327 507,-330 507,-330 507,-336 507,-336 507,-339 504,-342 501,-342"/>
<text text-anchor="start" x="339" y="-330.8" font-family="Helvetica,sans-Serif" font-size="9.00">consolidate&#45;module&#45;dependencies.mjs</text>
</a>
</g>
</g>
<!-- src/graph&#45;utl/consolidate&#45;module&#45;dependencies.mjs&#45;&gt;src/graph&#45;utl/compare.mjs -->
<g id="edge3" class="edge">
<title>src/graph&#45;utl/consolidate&#45;module&#45;dependencies.mjs&#45;&gt;src/graph&#45;utl/compare.mjs</title>
<path fill="none" stroke="#770000" stroke-width="2" stroke-opacity="0.466667" d="M507.03,-333C507.03,-333 539.8,-333 539.8,-333"/>
<polygon fill="#770000" fill-opacity="0.466667" stroke="#770000" stroke-width="2" stroke-opacity="0.466667" points="539.8,-335.1 545.8,-333 539.8,-330.9 539.8,-335.1"/>
</g>
<!-- src/graph&#45;utl/consolidate&#45;modules.mjs -->
<g id="node6" class="node">
<title>src/graph&#45;utl/consolidate&#45;modules.mjs</title>
<g id="a_node6"><a xlink:href="https://github.com/sverweij/dependency-cruiser/blob/develop/src/graph-utl/consolidate-modules.mjs" xlink:title="consolidate&#45;modules.mjs">
<path fill="#ffcccc" stroke="black" d="M472.5,-372C472.5,-372 365.5,-372 365.5,-372 362.5,-372 359.5,-369 359.5,-366 359.5,-366 359.5,-360 359.5,-360 359.5,-357 362.5,-354 365.5,-354 365.5,-354 472.5,-354 472.5,-354 475.5,-354 478.5,-357 478.5,-360 478.5,-360 478.5,-366 478.5,-366 478.5,-369 475.5,-372 472.5,-372"/>
<text text-anchor="start" x="367.5" y="-360.8" font-family="Helvetica,sans-Serif" font-size="9.00">consolidate&#45;modules.mjs</text>
</a>
</g>
</g>
<!-- src/graph&#45;utl/consolidate&#45;modules.mjs&#45;&gt;src/graph&#45;utl/compare.mjs -->
<g id="edge4" class="edge">
<title>src/graph&#45;utl/consolidate&#45;modules.mjs&#45;&gt;src/graph&#45;utl/compare.mjs</title>
<path fill="none" stroke="#770000" stroke-width="2" stroke-opacity="0.466667" d="M478.57,-363C525.83,-363 584,-363 584,-363 584,-363 584,-351.49 584,-351.49"/>
<polygon fill="#770000" fill-opacity="0.466667" stroke="#770000" stroke-width="2" stroke-opacity="0.466667" points="586.1,-351.49 584,-345.49 581.9,-351.49 586.1,-351.49"/>
</g>
<!-- src/graph&#45;utl/consolidate&#45;to&#45;folder.mjs -->
<g id="node7" class="node">
<title>src/graph&#45;utl/consolidate&#45;to&#45;folder.mjs</title>
<g id="a_node7"><a xlink:href="https://github.com/sverweij/dependency-cruiser/blob/develop/src/graph-utl/consolidate-to-folder.mjs" xlink:title="consolidate&#45;to&#45;folder.mjs">
<path fill="#ffcccc" stroke="black" d="M309.5,-342C309.5,-342 204.5,-342 204.5,-342 201.5,-342 198.5,-339 198.5,-336 198.5,-336 198.5,-330 198.5,-330 198.5,-327 201.5,-324 204.5,-324 204.5,-324 309.5,-324 309.5,-324 312.5,-324 315.5,-327 315.5,-330 315.5,-330 315.5,-336 315.5,-336 315.5,-339 312.5,-342 309.5,-342"/>
<text text-anchor="start" x="206.5" y="-330.8" font-family="Helvetica,sans-Serif" font-size="9.00">consolidate&#45;to&#45;folder.mjs</text>
</a>
</g>
</g>
<!-- src/graph&#45;utl/consolidate&#45;to&#45;folder.mjs&#45;&gt;src/graph&#45;utl/consolidate&#45;module&#45;dependencies.mjs -->
<g id="edge5" class="edge">
<title>src/graph&#45;utl/consolidate&#45;to&#45;folder.mjs&#45;&gt;src/graph&#45;utl/consolidate&#45;module&#45;dependencies.mjs</title>
<path fill="none" stroke="#770000" stroke-width="2" stroke-opacity="0.466667" d="M315.94,-330C315.94,-330 321.59,-330 321.59,-330"/>
<polygon fill="#770000" fill-opacity="0.466667" stroke="#770000" stroke-width="2" stroke-opacity="0.466667" points="321.59,-332.1 327.59,-330 321.59,-327.9 321.59,-332.1"/>
</g>
<!-- src/graph&#45;utl/consolidate&#45;to&#45;folder.mjs&#45;&gt;src/graph&#45;utl/consolidate&#45;modules.mjs -->
<g id="edge6" class="edge">
<title>src/graph&#45;utl/consolidate&#45;to&#45;folder.mjs&#45;&gt;src/graph&#45;utl/consolidate&#45;modules.mjs</title>
<path fill="none" stroke="#770000" stroke-width="2" stroke-opacity="0.466667" d="M315.83,-336C321.39,-336 325,-336 325,-336 325,-336 325,-363 325,-363 325,-363 350.2,-363 350.2,-363"/>
<polygon fill="#770000" fill-opacity="0.466667" stroke="#770000" stroke-width="2" stroke-opacity="0.466667" points="350.2,-365.1 356.2,-363 350.2,-360.9 350.2,-365.1"/>
</g>
<!-- src/graph&#45;utl/consolidate&#45;to&#45;pattern.mjs -->
<g id="node8" class="node">
<title>src/graph&#45;utl/consolidate&#45;to&#45;pattern.mjs</title>
<g id="a_node8"><a xlink:href="https://github.com/sverweij/dependency-cruiser/blob/develop/src/graph-utl/consolidate-to-pattern.mjs" xlink:title="consolidate&#45;to&#45;pattern.mjs">
<path fill="#ffcccc" stroke="black" d="M312,-402C312,-402 202,-402 202,-402 199,-402 196,-399 196,-396 196,-396 196,-390 196,-390 196,-387 199,-384 202,-384 202,-384 312,-384 312,-384 315,-384 318,-387 318,-390 318,-390 318,-396 318,-396 318,-399 315,-402 312,-402"/>
<text text-anchor="start" x="204" y="-390.8" font-family="Helvetica,sans-Serif" font-size="9.00">consolidate&#45;to&#45;pattern.mjs</text>
</a>
</g>
</g>
<!-- src/graph&#45;utl/consolidate&#45;to&#45;pattern.mjs&#45;&gt;src/graph&#45;utl/consolidate&#45;module&#45;dependencies.mjs -->
<g id="edge7" class="edge">
<title>src/graph&#45;utl/consolidate&#45;to&#45;pattern.mjs&#45;&gt;src/graph&#45;utl/consolidate&#45;module&#45;dependencies.mjs</title>
<path fill="none" stroke="#770000" stroke-width="2" stroke-opacity="0.466667" d="M318.33,-387.67C333.74,-387.67 346,-387.67 346,-387.67 346,-387.67 346,-351.03 346,-351.03"/>
<polygon fill="#770000" fill-opacity="0.466667" stroke="#770000" stroke-width="2" stroke-opacity="0.466667" points="348.1,-351.03 346,-345.03 343.9,-351.03 348.1,-351.03"/>
</g>
<!-- src/graph&#45;utl/consolidate&#45;to&#45;pattern.mjs&#45;&gt;src/graph&#45;utl/consolidate&#45;modules.mjs -->
<g id="edge8" class="edge">
<title>src/graph&#45;utl/consolidate&#45;to&#45;pattern.mjs&#45;&gt;src/graph&#45;utl/consolidate&#45;modules.mjs</title>
<path fill="none" stroke="#770000" stroke-width="2" stroke-opacity="0.466667" d="M318.34,-391.33C345.32,-391.33 371,-391.33 371,-391.33 371,-391.33 371,-381.28 371,-381.28"/>
<polygon fill="#770000" fill-opacity="0.466667" stroke="#770000" stroke-width="2" stroke-opacity="0.466667" points="373.1,-381.28 371,-375.28 368.9,-381.28 373.1,-381.28"/>
</g>
<!-- src/graph&#45;utl/filter&#45;bank.mjs -->
<g id="node9" class="node">
<title>src/graph&#45;utl/filter&#45;bank.mjs</title>
<g id="a_node9"><a xlink:href="https://github.com/sverweij/dependency-cruiser/blob/develop/src/graph-utl/filter-bank.mjs" xlink:title="filter&#45;bank.mjs">
<path fill="#ffcccc" stroke="black" d="M288,-432C288,-432 226,-432 226,-432 223,-432 220,-429 220,-426 220,-426 220,-420 220,-420 220,-417 223,-414 226,-414 226,-414 288,-414 288,-414 291,-414 294,-417 294,-420 294,-420 294,-426 294,-426 294,-429 291,-432 288,-432"/>
<text text-anchor="start" x="228" y="-420.8" font-family="Helvetica,sans-Serif" font-size="9.00">filter&#45;bank.mjs</text>
</a>
</g>
</g>
<!-- src/graph&#45;utl/filter&#45;bank.mjs&#45;&gt;src/graph&#45;utl/add&#45;focus.mjs -->
<g id="edge9" class="edge">
<title>src/graph&#45;utl/filter&#45;bank.mjs&#45;&gt;src/graph&#45;utl/add&#45;focus.mjs</title>
<path fill="none" stroke="#770000" stroke-width="2" stroke-opacity="0.466667" d="M294.17,-423C294.17,-423 372.73,-423 372.73,-423"/>
<polygon fill="#770000" fill-opacity="0.466667" stroke="#770000" stroke-width="2" stroke-opacity="0.466667" points="372.73,-425.1 378.73,-423 372.73,-420.9 372.73,-425.1"/>
</g>
<!-- src/graph&#45;utl/filter&#45;bank.mjs&#45;&gt;src/graph&#45;utl/indexed&#45;module&#45;graph.mjs -->
<g id="edge10" class="edge">
<title>src/graph&#45;utl/filter&#45;bank.mjs&#45;&gt;src/graph&#45;utl/indexed&#45;module&#45;graph.mjs</title>
<path fill="none" stroke="#770000" stroke-width="2" stroke-opacity="0.466667" d="M257,-432.24C257,-435.33 257,-438 257,-438 257,-438 510.77,-438 510.77,-438"/>
<polygon fill="#770000" fill-opacity="0.466667" stroke="#770000" stroke-width="2" stroke-opacity="0.466667" points="510.77,-440.1 516.77,-438 510.77,-435.9 510.77,-440.1"/>
</g>
<!-- src/graph&#45;utl/filter&#45;bank.mjs&#45;&gt;src/graph&#45;utl/match&#45;facade.mjs -->
<g id="edge11" class="edge">
<title>src/graph&#45;utl/filter&#45;bank.mjs&#45;&gt;src/graph&#45;utl/match&#45;facade.mjs</title>
<path fill="none" stroke="#770000" stroke-width="2" stroke-opacity="0.466667" d="M257,-413.52C257,-409.48 257,-405.67 257,-405.67 257,-405.67 529.79,-405.67 529.79,-405.67"/>
<polygon fill="#770000" fill-opacity="0.466667" stroke="#770000" stroke-width="2" stroke-opacity="0.466667" points="529.79,-407.77 535.79,-405.67 529.79,-403.57 529.79,-407.77"/>
</g>
<!-- src/graph&#45;utl/rule&#45;set.mjs -->
<g id="node10" class="node">
<title>src/graph&#45;utl/rule&#45;set.mjs</title>
<g id="a_node10"><a xlink:href="https://github.com/sverweij/dependency-cruiser/blob/develop/src/graph-utl/rule-set.mjs" xlink:title="rule&#45;set.mjs">
<path fill="#ffcccc" stroke="black" d="M283,-462C283,-462 231,-462 231,-462 228,-462 225,-459 225,-456 225,-456 225,-450 225,-450 225,-447 228,-444 231,-444 231,-444 283,-444 283,-444 286,-444 289,-447 289,-450 289,-450 289,-456 289,-456 289,-459 286,-462 283,-462"/>
<text text-anchor="start" x="233" y="-450.8" font-family="Helvetica,sans-Serif" font-size="9.00">rule&#45;set.mjs</text>
</a>
</g>
</g>
<!-- src/graph&#45;utl/strip&#45;self&#45;transitions.mjs -->
<g id="node11" class="node">
<title>src/graph&#45;utl/strip&#45;self&#45;transitions.mjs</title>
<g id="a_node11"><a xlink:href="https://github.com/sverweij/dependency-cruiser/blob/develop/src/graph-utl/strip-self-transitions.mjs" xlink:title="strip&#45;self&#45;transitions.mjs">
<path fill="#ffcccc" stroke="black" d="M307.5,-372C307.5,-372 206.5,-372 206.5,-372 203.5,-372 200.5,-369 200.5,-366 200.5,-366 200.5,-360 200.5,-360 200.5,-357 203.5,-354 206.5,-354 206.5,-354 307.5,-354 307.5,-354 310.5,-354 313.5,-357 313.5,-360 313.5,-360 313.5,-366 313.5,-366 313.5,-369 310.5,-372 307.5,-372"/>
<text text-anchor="start" x="208.5" y="-360.8" font-family="Helvetica,sans-Serif" font-size="9.00">strip&#45;self&#45;transitions.mjs</text>
</a>
</g>
</g>
<!-- src/report/anon -->
<g id="node12" class="node">
<title>src/report/anon</title>
<g id="a_node12"><a xlink:href="https://github.com/sverweij/dependency-cruiser/blob/develop/src/report/anon" xlink:title="anon">
<polygon fill="#ffccff" stroke="black" points="89,-282 37,-282 35,-280 35,-264 87,-264 89,-266 89,-282"/>
<polyline fill="none" stroke="black" points="87,-280 35,-280"/>
<polyline fill="none" stroke="black" points="87,-280 87,-264"/>
<polyline fill="none" stroke="black" points="87,-280 89,-282"/>
<text text-anchor="start" x="51" y="-270.8" font-family="Helvetica,sans-Serif" font-size="9.00">anon</text>
</a>
</g>
</g>
<!-- src/report/baseline.mjs -->
<g id="node13" class="node">
<title>src/report/baseline.mjs</title>
<g id="a_node13"><a xlink:href="https://github.com/sverweij/dependency-cruiser/blob/develop/src/report/baseline.mjs" xlink:title="no&#45;orphans">
<path fill="#ffccff" stroke="red" d="M90,-252C90,-252 34,-252 34,-252 31,-252 28,-249 28,-246 28,-246 28,-240 28,-240 28,-237 31,-234 34,-234 34,-234 90,-234 90,-234 93,-234 96,-237 96,-240 96,-240 96,-246 96,-246 96,-249 93,-252 90,-252"/>
<text text-anchor="start" x="36" y="-240.8" font-family="Helvetica,sans-Serif" font-size="9.00" fill="red">baseline.mjs</text>
</a>
</g>
</g>
<!-- src/report/csv.mjs -->
<g id="node14" class="node">
<title>src/report/csv.mjs</title>
<g id="a_node14"><a xlink:href="https://github.com/sverweij/dependency-cruiser/blob/develop/src/report/csv.mjs" xlink:title="csv.mjs">
<path fill="#ffccff" stroke="black" d="M167.5,-192C167.5,-192 125.5,-192 125.5,-192 122.5,-192 119.5,-189 119.5,-186 119.5,-186 119.5,-180 119.5,-180 119.5,-177 122.5,-174 125.5,-174 125.5,-174 167.5,-174 167.5,-174 170.5,-174 173.5,-177 173.5,-180 173.5,-180 173.5,-186 173.5,-186 173.5,-189 170.5,-192 167.5,-192"/>
<text text-anchor="start" x="131" y="-180.8" font-family="Helvetica,sans-Serif" font-size="9.00">csv.mjs</text>
</a>
</g>
</g>
<!-- src/report/utl -->
<g id="node15" class="node">
<title>src/report/utl</title>
<g id="a_node15"><a xlink:href="https://github.com/sverweij/dependency-cruiser/blob/develop/src/report/utl" xlink:title="utl">
<polygon fill="#ffccff" stroke="black" points="284,-192 232,-192 230,-190 230,-174 282,-174 284,-176 284,-192"/>
<polyline fill="none" stroke="black" points="282,-190 230,-190"/>
<polyline fill="none" stroke="black" points="282,-190 282,-174"/>
<polyline fill="none" stroke="black" points="282,-190 284,-192"/>
<text text-anchor="start" x="252" y="-180.8" font-family="Helvetica,sans-Serif" font-size="9.00">utl</text>
</a>
</g>
</g>
<!-- src/report/csv.mjs&#45;&gt;src/report/utl -->
<g id="edge12" class="edge">
<title>src/report/csv.mjs&#45;&gt;src/report/utl</title>
<path fill="none" stroke="#ff00ff" stroke-width="2" stroke-opacity="0.466667" d="M173.81,-183C173.81,-183 220.62,-183 220.62,-183"/>
<polygon fill="#ff00ff" fill-opacity="0.466667" stroke="#ff00ff" stroke-width="2" stroke-opacity="0.466667" points="220.62,-185.1 226.62,-183 220.62,-180.9 220.62,-185.1"/>
</g>
<!-- src/report/dot -->
<g id="node16" class="node">
<title>src/report/dot</title>
<g id="a_node16"><a xlink:href="https://github.com/sverweij/dependency-cruiser/blob/develop/src/report/dot" xlink:title="dot">
<polygon fill="#ffccff" stroke="black" points="173.5,-252 121.5,-252 119.5,-250 119.5,-234 171.5,-234 173.5,-236 173.5,-252"/>
<polyline fill="none" stroke="black" points="171.5,-250 119.5,-250"/>
<polyline fill="none" stroke="black" points="171.5,-250 171.5,-234"/>
<polyline fill="none" stroke="black" points="171.5,-250 173.5,-252"/>
<text text-anchor="start" x="140" y="-240.8" font-family="Helvetica,sans-Serif" font-size="9.00">dot</text>
</a>
</g>
</g>
<!-- src/report/dot&#45;&gt;src/graph&#45;utl/compare.mjs -->
<g id="edge15" class="edge">
<title>src/report/dot&#45;&gt;src/graph&#45;utl/compare.mjs</title>
<path fill="none" stroke="#770000" stroke-width="2" stroke-opacity="0.466667" d="M173.87,-239.14C269.65,-239.14 584,-239.14 584,-239.14 584,-239.14 584,-314.66 584,-314.66"/>
<polygon fill="#770000" fill-opacity="0.466667" stroke="#770000" stroke-width="2" stroke-opacity="0.466667" points="581.9,-314.66 584,-320.66 586.1,-314.66 581.9,-314.66"/>
</g>
<!-- src/report/dot&#45;&gt;src/graph&#45;utl/consolidate&#45;to&#45;folder.mjs -->
<g id="edge18" class="edge">
<title>src/report/dot&#45;&gt;src/graph&#45;utl/consolidate&#45;to&#45;folder.mjs</title>
<path fill="none" stroke="#770000" stroke-width="2" stroke-opacity="0.466667" d="M173.97,-241.71C193.02,-241.71 215,-241.71 215,-241.71 215,-241.71 215,-314.57 215,-314.57"/>
<polygon fill="#770000" fill-opacity="0.466667" stroke="#770000" stroke-width="2" stroke-opacity="0.466667" points="212.9,-314.57 215,-320.57 217.1,-314.57 212.9,-314.57"/>
</g>
<!-- src/report/dot&#45;&gt;src/graph&#45;utl/consolidate&#45;to&#45;pattern.mjs -->
<g id="edge16" class="edge">
<title>src/report/dot&#45;&gt;src/graph&#45;utl/consolidate&#45;to&#45;pattern.mjs</title>
<path fill="none" stroke="#770000" stroke-width="2" stroke-opacity="0.466667" d="M173.95,-246.86C181.67,-246.86 188,-246.86 188,-246.86 188,-246.86 188,-393 188,-393 188,-393 188.76,-393 188.76,-393"/>
<polygon fill="#770000" fill-opacity="0.466667" stroke="#770000" stroke-width="2" stroke-opacity="0.466667" points="186.65,-395.1 192.65,-393 186.65,-390.9 186.65,-395.1"/>
</g>
<!-- src/report/dot&#45;&gt;src/graph&#45;utl/filter&#45;bank.mjs -->
<g id="edge13" class="edge">
<title>src/report/dot&#45;&gt;src/graph&#45;utl/filter&#45;bank.mjs</title>
<path fill="none" stroke="#770000" stroke-width="2" stroke-opacity="0.466667" d="M173.75,-249.43C179.57,-249.43 184,-249.43 184,-249.43 184,-249.43 184,-423 184,-423 184,-423 210.64,-423 210.64,-423"/>
<polygon fill="#770000" fill-opacity="0.466667" stroke="#770000" stroke-width="2" stroke-opacity="0.466667" points="210.64,-425.1 216.64,-423 210.64,-420.9 210.64,-425.1"/>
</g>
<!-- src/report/dot&#45;&gt;src/graph&#45;utl/strip&#45;self&#45;transitions.mjs -->
<g id="edge17" class="edge">
<title>src/report/dot&#45;&gt;src/graph&#45;utl/strip&#45;self&#45;transitions.mjs</title>
<path fill="none" stroke="#770000" stroke-width="2" stroke-opacity="0.466667" d="M173.76,-244.29C183.45,-244.29 192,-244.29 192,-244.29 192,-244.29 192,-363 192,-363 192,-363 192.82,-363 192.82,-363"/>
<polygon fill="#770000" fill-opacity="0.466667" stroke="#770000" stroke-width="2" stroke-opacity="0.466667" points="191.23,-365.1 197.23,-363 191.23,-360.9 191.23,-365.1"/>
</g>
<!-- src/report/dot&#45;&gt;src/report/utl -->
<g id="edge14" class="edge">
<title>src/report/dot&#45;&gt;src/report/utl</title>
<path fill="none" stroke="#ff00ff" stroke-width="2" stroke-opacity="0.466667" d="M173.81,-236.57C206.54,-236.57 257,-236.57 257,-236.57 257,-236.57 257,-201.33 257,-201.33"/>
<polygon fill="#ff00ff" fill-opacity="0.466667" stroke="#ff00ff" stroke-width="2" stroke-opacity="0.466667" points="259.1,-201.33 257,-195.33 254.9,-201.33 259.1,-201.33"/>
</g>
<!-- src/report/error&#45;html -->
<g id="node17" class="node">
<title>src/report/error&#45;html</title>
<g id="a_node17"><a xlink:href="https://github.com/sverweij/dependency-cruiser/blob/develop/src/report/error-html" xlink:title="error&#45;html">
<polygon fill="#ffccff" stroke="black" points="174.5,-72 120.5,-72 118.5,-70 118.5,-54 172.5,-54 174.5,-56 174.5,-72"/>
<polyline fill="none" stroke="black" points="172.5,-70 118.5,-70"/>
<polyline fill="none" stroke="black" points="172.5,-70 172.5,-54"/>
<polyline fill="none" stroke="black" points="172.5,-70 174.5,-72"/>
<text text-anchor="start" x="126.5" y="-60.8" font-family="Helvetica,sans-Serif" font-size="9.00">error&#45;html</text>
</a>
</g>
</g>
<!-- src/report/error&#45;html&#45;&gt;src/report/utl -->
<g id="edge19" class="edge">
<title>src/report/error&#45;html&#45;&gt;src/report/utl</title>
<path fill="none" stroke="#ff00ff" stroke-width="2" stroke-opacity="0.466667" d="M174.75,-63C211.48,-63 271,-63 271,-63 271,-63 271,-164.58 271,-164.58"/>
<polygon fill="#ff00ff" fill-opacity="0.466667" stroke="#ff00ff" stroke-width="2" stroke-opacity="0.466667" points="268.9,-164.58 271,-170.58 273.1,-164.58 268.9,-164.58"/>
</g>
<!-- src/report/error&#45;long.mjs -->
<g id="node18" class="node">
<title>src/report/error&#45;long.mjs</title>
<g id="a_node18"><a xlink:href="https://github.com/sverweij/dependency-cruiser/blob/develop/src/report/error-long.mjs" xlink:title="error&#45;long.mjs">
<path fill="#ffccff" stroke="black" d="M93,-222C93,-222 31,-222 31,-222 28,-222 25,-219 25,-216 25,-216 25,-210 25,-210 25,-207 28,-204 31,-204 31,-204 93,-204 93,-204 96,-204 99,-207 99,-210 99,-210 99,-216 99,-216 99,-219 96,-222 93,-222"/>
<text text-anchor="start" x="33" y="-210.8" font-family="Helvetica,sans-Serif" font-size="9.00">error&#45;long.mjs</text>
</a>
</g>
</g>
<!-- src/report/error.mjs -->
<g id="node19" class="node">
<title>src/report/error.mjs</title>
<g id="a_node19"><a xlink:href="https://github.com/sverweij/dependency-cruiser/blob/develop/src/report/error.mjs" xlink:title="error.mjs">
<path fill="#ffccff" stroke="black" d="M167.5,-282C167.5,-282 125.5,-282 125.5,-282 122.5,-282 119.5,-279 119.5,-276 119.5,-276 119.5,-270 119.5,-270 119.5,-267 122.5,-264 125.5,-264 125.5,-264 167.5,-264 167.5,-264 170.5,-264 173.5,-267 173.5,-270 173.5,-270 173.5,-276 173.5,-276 173.5,-279 170.5,-282 167.5,-282"/>
<text text-anchor="start" x="128" y="-270.8" font-family="Helvetica,sans-Serif" font-size="9.00">error.mjs</text>
</a>
</g>
</g>
<!-- src/report/error&#45;long.mjs&#45;&gt;src/report/error.mjs -->
<g id="edge20" class="edge">
<title>src/report/error&#45;long.mjs&#45;&gt;src/report/error.mjs</title>
<path fill="none" stroke="#ff00ff" stroke-width="2" stroke-opacity="0.466667" d="M99.38,-213C102.79,-213 105,-213 105,-213 105,-213 105,-273 105,-273 105,-273 110.05,-273 110.05,-273"/>
<polygon fill="#ff00ff" fill-opacity="0.466667" stroke="#ff00ff" stroke-width="2" stroke-opacity="0.466667" points="110.05,-275.1 116.05,-273 110.05,-270.9 110.05,-275.1"/>
</g>
<!-- src/report/error.mjs&#45;&gt;src/graph&#45;utl/rule&#45;set.mjs -->
<g id="edge21" class="edge">
<title>src/report/error.mjs&#45;&gt;src/graph&#45;utl/rule&#45;set.mjs</title>
<path fill="none" stroke="#770000" stroke-width="2" stroke-opacity="0.466667" d="M156,-282.17C156,-318.85 156,-453 156,-453 156,-453 215.77,-453 215.77,-453"/>
<polygon fill="#770000" fill-opacity="0.466667" stroke="#770000" stroke-width="2" stroke-opacity="0.466667" points="215.77,-455.1 221.77,-453 215.77,-450.9 215.77,-455.1"/>
</g>
<!-- src/report/error.mjs&#45;&gt;src/report/utl -->
<g id="edge23" class="edge">
<title>src/report/error.mjs&#45;&gt;src/report/utl</title>
<path fill="none" stroke="#ff00ff" stroke-width="2" stroke-opacity="0.466667" d="M173.82,-273C210.47,-273 271,-273 271,-273 271,-273 271,-201.29 271,-201.29"/>
<polygon fill="#ff00ff" fill-opacity="0.466667" stroke="#ff00ff" stroke-width="2" stroke-opacity="0.466667" points="273.1,-201.29 271,-195.29 268.9,-201.29 273.1,-201.29"/>
</g>
<!-- src/utl/wrap&#45;and&#45;indent.mjs -->
<g id="node20" class="node">
<title>src/utl/wrap&#45;and&#45;indent.mjs</title>
<g id="a_node20"><a xlink:href="https://github.com/sverweij/dependency-cruiser/blob/develop/src/utl/wrap-and-indent.mjs" xlink:title="utl&#45;module&#45;not&#45;shared&#45;enough">
<path fill="#cccccc" stroke="blue" d="M301.5,-522C301.5,-522 212.5,-522 212.5,-522 209.5,-522 206.5,-519 206.5,-516 206.5,-516 206.5,-510 206.5,-510 206.5,-507 209.5,-504 212.5,-504 212.5,-504 301.5,-504 301.5,-504 304.5,-504 307.5,-507 307.5,-510 307.5,-510 307.5,-516 307.5,-516 307.5,-519 304.5,-522 301.5,-522"/>
<text text-anchor="start" x="214.5" y="-510.8" font-family="Helvetica,sans-Serif" font-size="9.00" fill="blue">wrap&#45;and&#45;indent.mjs</text>
</a>
</g>
</g>
<!-- src/report/error.mjs&#45;&gt;src/utl/wrap&#45;and&#45;indent.mjs -->
<g id="edge22" class="edge">
<title>src/report/error.mjs&#45;&gt;src/utl/wrap&#45;and&#45;indent.mjs</title>
<path fill="none" stroke="#aaaaaa" stroke-width="2" stroke-opacity="0.466667" d="M138,-282.41C138,-326.78 138,-513 138,-513 138,-513 197.19,-513 197.19,-513"/>
<polygon fill="#aaaaaa" fill-opacity="0.466667" stroke="#aaaaaa" stroke-width="2" stroke-opacity="0.466667" points="197.19,-515.1 203.19,-513 197.19,-510.9 197.19,-515.1"/>
</g>
<!-- src/report/html -->
<g id="node21" class="node">
<title>src/report/html</title>
<g id="a_node21"><a xlink:href="https://github.com/sverweij/dependency-cruiser/blob/develop/src/report/html" xlink:title="html">
<polygon fill="#ffccff" stroke="black" points="173.5,-102 121.5,-102 119.5,-100 119.5,-84 171.5,-84 173.5,-86 173.5,-102"/>
<polyline fill="none" stroke="black" points="171.5,-100 119.5,-100"/>
<polyline fill="none" stroke="black" points="171.5,-100 171.5,-84"/>
<polyline fill="none" stroke="black" points="171.5,-100 173.5,-102"/>
<text text-anchor="start" x="137.5" y="-90.8" font-family="Helvetica,sans-Serif" font-size="9.00">html</text>
</a>
</g>
</g>
<!-- src/report/html&#45;&gt;src/report/utl -->
<g id="edge24" class="edge">
<title>src/report/html&#45;&gt;src/report/utl</title>
<path fill="none" stroke="#ff00ff" stroke-width="2" stroke-opacity="0.466667" d="M173.81,-93C206.54,-93 257,-93 257,-93 257,-93 257,-164.71 257,-164.71"/>
<polygon fill="#ff00ff" fill-opacity="0.466667" stroke="#ff00ff" stroke-width="2" stroke-opacity="0.466667" points="254.9,-164.71 257,-170.71 259.1,-164.71 254.9,-164.71"/>
</g>
<!-- src/report/identity.mjs -->
<g id="node22" class="node">
<title>src/report/identity.mjs</title>
<g id="a_node22"><a xlink:href="https://github.com/sverweij/dependency-cruiser/blob/develop/src/report/identity.mjs" xlink:title="identity.mjs">
<path fill="#ffccff" stroke="black" d="M87,-192C87,-192 37,-192 37,-192 34,-192 31,-189 31,-186 31,-186 31,-180 31,-180 31,-177 34,-174 37,-174 37,-174 87,-174 87,-174 90,-174 93,-177 93,-180 93,-180 93,-186 93,-186 93,-189 90,-192 87,-192"/>
<text text-anchor="start" x="39" y="-180.8" font-family="Helvetica,sans-Serif" font-size="9.00">identity.mjs</text>
</a>
</g>
</g>
<!-- src/report/index.mjs -->
<g id="node23" class="node">
<title>src/report/index.mjs</title>
<g id="a_node23"><a xlink:href="https://github.com/sverweij/dependency-cruiser/blob/develop/src/report/index.mjs" xlink:title="index.mjs">
<path fill="#ffccff" stroke="black" d="M84,-162C84,-162 40,-162 40,-162 37,-162 34,-159 34,-156 34,-156 34,-150 34,-150 34,-147 37,-144 40,-144 40,-144 84,-144 84,-144 87,-144 90,-147 90,-150 90,-150 90,-156 90,-156 90,-159 87,-162 84,-162"/>
<text text-anchor="start" x="42" y="-150.8" font-family="Helvetica,sans-Serif" font-size="9.00">index.mjs</text>
</a>
</g>
</g>
<!-- src/report/plugins.mjs -->
<g id="node24" class="node">
<title>src/report/plugins.mjs</title>
<g id="a_node24"><a xlink:href="https://github.com/sverweij/dependency-cruiser/blob/develop/src/report/plugins.mjs" xlink:title="plugins.mjs">
<path fill="#ffccff" stroke="black" d="M172,-162C172,-162 121,-162 121,-162 118,-162 115,-159 115,-156 115,-156 115,-150 115,-150 115,-147 118,-144 121,-144 121,-144 172,-144 172,-144 175,-144 178,-147 178,-150 178,-150 178,-156 178,-156 178,-159 175,-162 172,-162"/>
<text text-anchor="start" x="123" y="-150.8" font-family="Helvetica,sans-Serif" font-size="9.00">plugins.mjs</text>
</a>
</g>
</g>
<!-- src/report/index.mjs&#45;&gt;src/report/plugins.mjs -->
<g id="edge25" class="edge">
<title>src/report/index.mjs&#45;&gt;src/report/plugins.mjs</title>
<path fill="none" stroke="#ff00ff" stroke-width="2" stroke-opacity="0.466667" d="M90.14,-153C90.14,-153 105.69,-153 105.69,-153"/>
<polygon fill="#ff00ff" fill-opacity="0.466667" stroke="#ff00ff" stroke-width="2" stroke-opacity="0.466667" points="105.69,-155.1 111.69,-153 105.69,-150.9 105.69,-155.1"/>
</g>
<!-- src/report/json.mjs -->
<g id="node25" class="node">
<title>src/report/json.mjs</title>
<g id="a_node25"><a xlink:href="https://github.com/sverweij/dependency-cruiser/blob/develop/src/report/json.mjs" xlink:title="json.mjs">
<path fill="#ffccff" stroke="black" d="M83,-132C83,-132 41,-132 41,-132 38,-132 35,-129 35,-126 35,-126 35,-120 35,-120 35,-117 38,-114 41,-114 41,-114 83,-114 83,-114 86,-114 89,-117 89,-120 89,-120 89,-126 89,-126 89,-129 86,-132 83,-132"/>
<text text-anchor="start" x="45" y="-120.8" font-family="Helvetica,sans-Serif" font-size="9.00">json.mjs</text>
</a>
</g>
</g>
<!-- src/report/markdown.mjs -->
<g id="node26" class="node">
<title>src/report/markdown.mjs</title>
<g id="a_node26"><a xlink:href="https://github.com/sverweij/dependency-cruiser/blob/develop/src/report/markdown.mjs" xlink:title="markdown.mjs">
<path fill="#ffccff" stroke="black" d="M94,-102C94,-102 30,-102 30,-102 27,-102 24,-99 24,-96 24,-96 24,-90 24,-90 24,-87 27,-84 30,-84 30,-84 94,-84 94,-84 97,-84 100,-87 100,-90 100,-90 100,-96 100,-96 100,-99 97,-102 94,-102"/>
<text text-anchor="start" x="32" y="-90.8" font-family="Helvetica,sans-Serif" font-size="9.00">markdown.mjs</text>
</a>
</g>
</g>
<!-- src/report/markdown.mjs&#45;&gt;src/report/error&#45;html -->
<g id="edge26" class="edge">
<title>src/report/markdown.mjs&#45;&gt;src/report/error&#45;html</title>
<path fill="none" stroke="#ff00ff" stroke-width="2" stroke-opacity="0.466667" d="M100.38,-93C105.49,-93 109,-93 109,-93 109,-93 109,-63 109,-63 109,-63 109.91,-63 109.91,-63"/>
<polygon fill="#ff00ff" fill-opacity="0.466667" stroke="#ff00ff" stroke-width="2" stroke-opacity="0.466667" points="109.08,-65.1 115.08,-63 109.08,-60.9 109.08,-65.1"/>
</g>
<!-- src/report/mermaid.mjs -->
<g id="node27" class="node">
<title>src/report/mermaid.mjs</title>
<g id="a_node27"><a xlink:href="https://github.com/sverweij/dependency-cruiser/blob/develop/src/report/mermaid.mjs" xlink:title="no&#45;orphans">
<path fill="#ffccff" stroke="red" d="M90.5,-72C90.5,-72 33.5,-72 33.5,-72 30.5,-72 27.5,-69 27.5,-66 27.5,-66 27.5,-60 27.5,-60 27.5,-57 30.5,-54 33.5,-54 33.5,-54 90.5,-54 90.5,-54 93.5,-54 96.5,-57 96.5,-60 96.5,-60 96.5,-66 96.5,-66 96.5,-69 93.5,-72 90.5,-72"/>
<text text-anchor="start" x="35.5" y="-60.8" font-family="Helvetica,sans-Serif" font-size="9.00" fill="red">mermaid.mjs</text>
</a>
</g>
</g>
<!-- src/report/metrics.mjs -->
<g id="node28" class="node">
<title>src/report/metrics.mjs</title>
<g id="a_node28"><a xlink:href="https://github.com/sverweij/dependency-cruiser/blob/develop/src/report/metrics.mjs" xlink:title="metrics.mjs">
<path fill="#ffccff" stroke="black" d="M171.5,-132C171.5,-132 121.5,-132 121.5,-132 118.5,-132 115.5,-129 115.5,-126 115.5,-126 115.5,-120 115.5,-120 115.5,-117 118.5,-114 121.5,-114 121.5,-114 171.5,-114 171.5,-114 174.5,-114 177.5,-117 177.5,-120 177.5,-120 177.5,-126 177.5,-126 177.5,-129 174.5,-132 171.5,-132"/>
<text text-anchor="start" x="123.5" y="-120.8" font-family="Helvetica,sans-Serif" font-size="9.00">metrics.mjs</text>
</a>
</g>
</g>
<!-- src/report/metrics.mjs&#45;&gt;src/report/utl -->
<g id="edge27" class="edge">
<title>src/report/metrics.mjs&#45;&gt;src/report/utl</title>
<path fill="none" stroke="#ff00ff" stroke-width="2" stroke-opacity="0.466667" d="M177.89,-123C206.39,-123 244,-123 244,-123 244,-123 244,-164.62 244,-164.62"/>
<polygon fill="#ff00ff" fill-opacity="0.466667" stroke="#ff00ff" stroke-width="2" stroke-opacity="0.466667" points="241.9,-164.62 244,-170.62 246.1,-164.63 241.9,-164.62"/>
</g>
<!-- src/report/teamcity.mjs -->
<g id="node29" class="node">
<title>src/report/teamcity.mjs</title>
<g id="a_node29"><a xlink:href="https://github.com/sverweij/dependency-cruiser/blob/develop/src/report/teamcity.mjs" xlink:title="teamcity.mjs">
<path fill="#ffccff" stroke="black" d="M174,-222C174,-222 119,-222 119,-222 116,-222 113,-219 113,-216 113,-216 113,-210 113,-210 113,-207 116,-204 119,-204 119,-204 174,-204 174,-204 177,-204 180,-207 180,-210 180,-210 180,-216 180,-216 180,-219 177,-222 174,-222"/>
<text text-anchor="start" x="121" y="-210.8" font-family="Helvetica,sans-Serif" font-size="9.00">teamcity.mjs</text>
</a>
</g>
</g>
<!-- src/report/teamcity.mjs&#45;&gt;src/report/utl -->
<g id="edge28" class="edge">
<title>src/report/teamcity.mjs&#45;&gt;src/report/utl</title>
<path fill="none" stroke="#ff00ff" stroke-width="2" stroke-opacity="0.466667" d="M180.33,-213C208.49,-213 244,-213 244,-213 244,-213 244,-201.49 244,-201.49"/>
<polygon fill="#ff00ff" fill-opacity="0.466667" stroke="#ff00ff" stroke-width="2" stroke-opacity="0.466667" points="246.1,-201.49 244,-195.49 241.9,-201.49 246.1,-201.49"/>
</g>
<!-- src/report/text.mjs -->
<g id="node30" class="node">
<title>src/report/text.mjs</title>
<g id="a_node30"><a xlink:href="https://github.com/sverweij/dependency-cruiser/blob/develop/src/report/text.mjs" xlink:title="no&#45;orphans">
<path fill="#ffccff" stroke="red" d="M83,-42C83,-42 41,-42 41,-42 38,-42 35,-39 35,-36 35,-36 35,-30 35,-30 35,-27 38,-24 41,-24 41,-24 83,-24 83,-24 86,-24 89,-27 89,-30 89,-30 89,-36 89,-36 89,-39 86,-42 83,-42"/>
<text text-anchor="start" x="46.5" y="-30.8" font-family="Helvetica,sans-Serif" font-size="9.00" fill="red">text.mjs</text>
</a>
</g>
</g>
</g>
</svg>
