<svg xmlns="http://www.w3.org/2000/svg" xmlns:xlink="http://www.w3.org/1999/xlink" width="823pt" height="622pt" viewBox="0 0 823 622"><g class="graph" transform="translate(4 618)"><path fill="#fff" d="M-4 4v-622h823V4z"/><g class="node"><a xlink:href="https://github.com/sverweij/dependency-cruiser/blob/main/src/graph-utl/add-focus.mjs" xlink:title="add-focus.mjs"><path fill="#fcc" stroke="#000" d="M143.87-113.18H84.45c-4.33 0-8.66 4.33-8.66 8.67v8.66c0 4.34 4.33 8.67 8.66 8.67h59.42c4.33 0 8.67-4.33 8.67-8.67v-8.66c0-4.34-4.34-8.67-8.67-8.67"/><text x="87.54" y="-101.63" font-family="Helvetica,sans-Serif" font-size="9">src/graph-utl/</text><text x="83.79" y="-92.63" font-family="Helvetica,sans-Serif" font-size="9" font-weight="bold">add-focus.mjs</text></a></g><g class="node"><a xlink:href="https://github.com/sverweij/dependency-cruiser/blob/main/src/graph-utl/indexed-module-graph.mjs" xlink:title="indexed-module-graph.mjs"><path fill="#fcc" stroke="#000" d="M224.23-77.99H111.56c-4.33 0-8.67 4.33-8.67 8.67v8.66c0 4.34 4.34 8.67 8.67 8.67h112.67c4.33 0 8.66-4.33 8.66-8.67v-8.66c0-4.34-4.33-8.67-8.66-8.67"/><text x="141.27" y="-66.44" font-family="Helvetica,sans-Serif" font-size="9">src/graph-utl/</text><text x="110.89" y="-57.44" font-family="Helvetica,sans-Serif" font-size="9" font-weight="bold">indexed-module-graph.mjs</text></a></g><g class="edge"><path fill="none" stroke="#700" stroke-opacity=".467" stroke-width="2" d="M127.71-87.08v.87"/><path fill="#700" fill-opacity=".467" stroke="#700" stroke-opacity=".467" stroke-width="2" d="m129.81-87.48-2.1 6-2.1-6z"/></g><g class="node"><a xlink:href="https://github.com/sverweij/dependency-cruiser/blob/main/src/graph-utl/match-facade.mjs" xlink:title="match-facade.mjs"><path fill="#fcc" stroke="#000" d="M85.03-180.93H9.11c-4.33 0-8.67 4.34-8.67 8.67v8.67c0 4.33 4.34 8.66 8.67 8.66h75.92c4.33 0 8.66-4.33 8.66-8.66v-8.67c0-4.33-4.33-8.67-8.66-8.67"/><text x="20.44" y="-169.38" font-family="Helvetica,sans-Serif" font-size="9">src/graph-utl/</text><text x="8.44" y="-160.38" font-family="Helvetica,sans-Serif" font-size="9" font-weight="bold">match-facade.mjs</text></a></g><g class="edge"><path fill="none" stroke="#700" stroke-opacity=".467" stroke-width="2" d="M87.72-113.56v-31.98"/><path fill="#700" fill-opacity=".467" stroke="#700" stroke-opacity=".467" stroke-width="2" d="m85.62-145.54 2.1-6 2.1 6z"/></g><g class="node"><a xlink:href="https://github.com/sverweij/dependency-cruiser/blob/main/src/graph-utl/compare.mjs" xlink:title="compare.mjs"><path fill="#fcc" stroke="#000" d="M512.07-182.83h-54.91c-4.34 0-8.67 4.34-8.67 8.67v8.67c0 4.33 4.33 8.66 8.67 8.66h54.91c4.34 0 8.67-4.33 8.67-8.66v-8.67c0-4.33-4.33-8.67-8.67-8.67"/><text x="457.99" y="-171.28" font-family="Helvetica,sans-Serif" font-size="9">src/graph-utl/</text><text x="456.49" y="-162.28" font-family="Helvetica,sans-Serif" font-size="9" font-weight="bold">compare.mjs</text></a></g><g class="node"><a xlink:href="https://github.com/sverweij/dependency-cruiser/blob/main/src/graph-utl/consolidate-module-dependencies.mjs" xlink:title="consolidate-module-dependencies.mjs"><path fill="#fcc" stroke="#000" d="M554.34-82.34H390.67c-4.33 0-8.66 4.34-8.66 8.67V-65c0 4.33 4.33 8.66 8.66 8.66h163.67c4.33 0 8.67-4.33 8.67-8.66v-8.67c0-4.33-4.34-8.67-8.67-8.67"/><text x="445.88" y="-70.79" font-family="Helvetica,sans-Serif" font-size="9">src/graph-utl/</text><text x="390.01" y="-61.79" font-family="Helvetica,sans-Serif" font-size="9" font-weight="bold">consolidate-module-dependencies.mjs</text></a></g><g class="edge"><path fill="none" stroke="#700" stroke-opacity=".467" stroke-width="2" d="M475.74-82.47v-64.87"/><path fill="#700" fill-opacity=".467" stroke="#700" stroke-opacity=".467" stroke-width="2" d="m473.64-147.34 2.1-6 2.1 6z"/></g><g class="node"><a xlink:href="https://github.com/sverweij/dependency-cruiser/blob/main/src/graph-utl/consolidate-modules.mjs" xlink:title="consolidate-modules.mjs"><path fill="#fcc" stroke="#000" d="M434.33-47.53H328.41c-4.33 0-8.67 4.34-8.67 8.67v8.67c0 4.33 4.34 8.66 8.67 8.66h105.92c4.33 0 8.66-4.33 8.66-8.66v-8.67c0-4.33-4.33-8.67-8.66-8.67"/><text x="354.74" y="-35.98" font-family="Helvetica,sans-Serif" font-size="9">src/graph-utl/</text><text x="327.74" y="-26.98" font-family="Helvetica,sans-Serif" font-size="9" font-weight="bold">consolidate-modules.mjs</text></a></g><g class="edge"><path fill="none" stroke="#700" stroke-opacity=".467" stroke-width="2" d="M443.26-40H568.8v-71h-70.56v-36.45"/><path fill="#700" fill-opacity=".467" stroke="#700" stroke-opacity=".467" stroke-width="2" d="m496.14-147.45 2.1-6 2.1 6z"/></g><g class="node"><a xlink:href="https://github.com/sverweij/dependency-cruiser/blob/main/src/graph-utl/consolidate-to-folder.mjs" xlink:title="consolidate-to-folder.mjs"><path fill="#fcc" stroke="#000" d="M362.5-81.63H258.09c-4.34 0-8.67 4.33-8.67 8.66v8.67c0 4.33 4.33 8.67 8.67 8.67H362.5c4.34 0 8.67-4.34 8.67-8.67v-8.67c0-4.33-4.33-8.66-8.67-8.66"/><text x="283.67" y="-70.08" font-family="Helvetica,sans-Serif" font-size="9">src/graph-utl/</text><text x="257.42" y="-61.08" font-family="Helvetica,sans-Serif" font-size="9" font-weight="bold">consolidate-to-folder.mjs</text></a></g><g class="edge"><path fill="none" stroke="#700" stroke-opacity=".467" stroke-width="2" d="M371.62-68h1.05"/><path fill="#700" fill-opacity=".467" stroke="#700" stroke-opacity=".467" stroke-width="2" d="m372.67-70.1 6 2.1-6 2.1z"/></g><g class="edge"><path fill="none" stroke="#700" stroke-opacity=".467" stroke-width="2" d="M345.46-55.15v.72"/><path fill="#700" fill-opacity=".467" stroke="#700" stroke-opacity=".467" stroke-width="2" d="m347.56-56.94-2.1 6-2.1-6z"/></g><g class="node"><a xlink:href="https://github.com/sverweij/dependency-cruiser/blob/main/src/graph-utl/consolidate-to-pattern.mjs" xlink:title="consolidate-to-pattern.mjs"><path fill="#fcc" stroke="#000" d="M444.57-116.4H333.4c-4.33 0-8.66 4.33-8.66 8.67v8.66c0 4.34 4.33 8.67 8.66 8.67h111.17c4.33 0 8.67-4.33 8.67-8.67v-8.66c0-4.34-4.34-8.67-8.67-8.67"/><text x="362.36" y="-104.85" font-family="Helvetica,sans-Serif" font-size="9">src/graph-utl/</text><text x="332.74" y="-95.85" font-family="Helvetica,sans-Serif" font-size="9" font-weight="bold">consolidate-to-pattern.mjs</text></a></g><g class="edge"><path fill="none" stroke="#700" stroke-opacity=".467" stroke-width="2" d="M417.62-89.94v.73"/><path fill="#700" fill-opacity=".467" stroke="#700" stroke-opacity=".467" stroke-width="2" d="m419.72-91.73-2.1 6-2.1-6z"/></g><g class="edge"><path fill="none" stroke="#700" stroke-opacity=".467" stroke-width="2" d="M376.59-90.12v33.33"/><path fill="#700" fill-opacity=".467" stroke="#700" stroke-opacity=".467" stroke-width="2" d="m378.69-56.79-2.1 6-2.1-6z"/></g><g class="node"><a xlink:href="https://github.com/sverweij/dependency-cruiser/blob/main/src/graph-utl/filter-bank.mjs" xlink:title="filter-bank.mjs"><path fill="#fcc" stroke="#000" d="M170.61-160.59h-60.16c-4.34 0-8.67 4.33-8.67 8.66v8.67c0 4.33 4.33 8.67 8.67 8.67h60.16c4.34 0 8.67-4.34 8.67-8.67v-8.67c0-4.33-4.33-8.66-8.67-8.66"/><text x="113.91" y="-149.04" font-family="Helvetica,sans-Serif" font-size="9">src/graph-utl/</text><text x="109.78" y="-140.04" font-family="Helvetica,sans-Serif" font-size="9" font-weight="bold">filter-bank.mjs</text></a></g><g class="edge"><path fill="none" stroke="#700" stroke-opacity=".467" stroke-width="2" d="M127.16-134.13v11.59"/><path fill="#700" fill-opacity=".467" stroke="#700" stroke-opacity=".467" stroke-width="2" d="m129.26-122.54-2.1 6-2.1-6z"/></g><g class="edge"><path fill="none" stroke="#700" stroke-opacity=".467" stroke-width="2" d="M165.91-134.32v47.06"/><path fill="#700" fill-opacity=".467" stroke="#700" stroke-opacity=".467" stroke-width="2" d="m168.01-87.26-2.1 6-2.1-6z"/></g><g class="edge"><path fill="none" stroke="#700" stroke-opacity=".467" stroke-width="2" d="M101.33-144H81.75v-1.54"/><path fill="#700" fill-opacity=".467" stroke="#700" stroke-opacity=".467" stroke-width="2" d="m79.65-145.54 2.1-6 2.1 6z"/></g><g class="node"><a xlink:href="https://github.com/sverweij/dependency-cruiser/blob/main/src/graph-utl/rule-set.mjs" xlink:title="rule-set.mjs"><path fill="#fcc" stroke="#000" d="M635.18-132.93h-51.92c-4.33 0-8.66 4.33-8.66 8.66v8.67c0 4.33 4.33 8.67 8.66 8.67h51.92c4.33 0 8.67-4.34 8.67-8.67v-8.67c0-4.33-4.34-8.66-8.67-8.66"/><text x="582.6" y="-121.38" font-family="Helvetica,sans-Serif" font-size="9">src/graph-utl/</text><text x="583.72" y="-112.38" font-family="Helvetica,sans-Serif" font-size="9" font-weight="bold">rule-set.mjs</text></a></g><g class="node"><a xlink:href="https://github.com/sverweij/dependency-cruiser/blob/main/src/graph-utl/strip-self-transitions.mjs" xlink:title="strip-self-transitions.mjs"><path fill="#fcc" stroke="#000" d="M299.72-135.82H196.05c-4.33 0-8.66 4.33-8.66 8.67v8.66c0 4.34 4.33 8.67 8.66 8.67h103.67c4.33 0 8.67-4.33 8.67-8.67v-8.66c0-4.34-4.34-8.67-8.67-8.67"/><text x="221.26" y="-124.27" font-family="Helvetica,sans-Serif" font-size="9">src/graph-utl/</text><text x="195.39" y="-115.27" font-family="Helvetica,sans-Serif" font-size="9" font-weight="bold">strip-self-transitions.mjs</text></a></g><g class="node"><a xlink:href="https://github.com/sverweij/dependency-cruiser/blob/main/src/report/anon/anonymize-path-element.mjs" xlink:title="anonymize-path-element.mjs"><path fill="#fcf" stroke="#000" d="M460.64-528.08H338.23c-4.34 0-8.67 4.34-8.67 8.67v8.67c0 4.33 4.33 8.66 8.67 8.66h122.41c4.34 0 8.67-4.33 8.67-8.66v-8.67c0-4.33-4.33-8.67-8.67-8.67"/><text x="367.56" y="-516.53" font-family="Helvetica,sans-Serif" font-size="9">src/report/anon/</text><text x="337.56" y="-507.53" font-family="Helvetica,sans-Serif" font-size="9" font-weight="bold">anonymize-path-element.mjs</text></a></g><g class="node"><a xlink:href="https://github.com/sverweij/dependency-cruiser/blob/main/src/report/anon/random-string.mjs" xlink:title="random-string.mjs"><path fill="#fcf" stroke="#000" d="M563.41-551.57h-77.42c-4.33 0-8.67 4.34-8.67 8.67v8.67c0 4.33 4.34 8.66 8.67 8.66h77.42c4.33 0 8.66-4.33 8.66-8.66v-8.67c0-4.33-4.33-8.67-8.66-8.67"/><text x="492.82" y="-540.02" font-family="Helvetica,sans-Serif" font-size="9">src/report/anon/</text><text x="485.32" y="-531.02" font-family="Helvetica,sans-Serif" font-size="9" font-weight="bold">random-string.mjs</text></a></g><g class="edge"><path fill="none" stroke="#f0f" stroke-opacity=".467" stroke-width="2" d="M469.6-515h21.79v-1.1"/><path fill="#f0f" fill-opacity=".467" stroke="#f0f" stroke-opacity=".467" stroke-width="2" d="m489.29-516.1 2.1-6 2.1 6z"/></g><g class="node"><a xlink:href="https://github.com/sverweij/dependency-cruiser/blob/main/src/report/anon/anonymize-path.mjs" xlink:title="anonymize-path.mjs"><path fill="#fcf" stroke="#000" d="M496.79-487.72h-84.92c-4.33 0-8.67 4.33-8.67 8.67v8.66c0 4.34 4.34 8.67 8.67 8.67h84.92c4.33 0 8.66-4.33 8.66-8.67v-8.66c0-4.34-4.33-8.67-8.66-8.67"/><text x="422.45" y="-476.17" font-family="Helvetica,sans-Serif" font-size="9">src/report/anon/</text><text x="411.2" y="-467.17" font-family="Helvetica,sans-Serif" font-size="9" font-weight="bold">anonymize-path.mjs</text></a></g><g class="edge"><path fill="none" stroke="#f0f" stroke-opacity=".467" stroke-width="2" d="M436.26-487.93v-4.74"/><path fill="#f0f" fill-opacity=".467" stroke="#f0f" stroke-opacity=".467" stroke-width="2" d="m434.16-492.67 2.1-6 2.1 6z"/></g><g class="node"><a xlink:href="https://github.com/sverweij/dependency-cruiser/blob/main/src/report/anon/index.mjs" xlink:title="index.mjs"><path fill="#fcf" stroke="#000" d="M469.91-614.45h-62.42c-4.33 0-8.66 4.34-8.66 8.67v8.67c0 4.33 4.33 8.66 8.66 8.66h62.42c4.33 0 8.67-4.33 8.67-8.66v-8.67c0-4.33-4.34-8.67-8.67-8.67"/><text x="406.83" y="-602.9" font-family="Helvetica,sans-Serif" font-size="9">src/report/anon/</text><text x="418.08" y="-593.9" font-family="Helvetica,sans-Serif" font-size="9" font-weight="bold">index.mjs</text></a></g><g class="edge"><path fill="none" stroke="#f0f" stroke-opacity=".467" stroke-width="2" d="M473.32-588.36v91.41"/><path fill="#f0f" fill-opacity=".467" stroke="#f0f" stroke-opacity=".467" stroke-width="2" d="m475.42-496.95-2.1 6-2.1-6z"/></g><g class="node"><a xlink:href="https://github.com/sverweij/dependency-cruiser/blob/main/src/report/azure-devops.mjs" xlink:title="azure-devops.mjs"><path fill="#fcf" stroke="#000" d="M461.59-422.26h-75.17c-4.33 0-8.66 4.33-8.66 8.66v8.67c0 4.33 4.33 8.67 8.66 8.67h75.17c4.33 0 8.67-4.34 8.67-8.67v-8.67c0-4.33-4.34-8.66-8.67-8.66"/><text x="403.76" y="-410.71" font-family="Helvetica,sans-Serif" font-size="9">src/report/</text><text x="385.76" y="-401.71" font-family="Helvetica,sans-Serif" font-size="9" font-weight="bold">azure-devops.mjs</text></a></g><g class="node"><a xlink:href="https://github.com/sverweij/dependency-cruiser/blob/main/src/report/utl/index.mjs" xlink:title="index.mjs"><path fill="#fcf" stroke="#000" d="M521.79-364.84h-51.16c-4.34 0-8.67 4.33-8.67 8.67v8.66c0 4.34 4.33 8.67 8.67 8.67h51.16c4.34 0 8.67-4.33 8.67-8.67v-8.66c0-4.34-4.33-8.67-8.67-8.67"/><text x="469.96" y="-353.29" font-family="Helvetica,sans-Serif" font-size="9">src/report/utl/</text><text x="475.58" y="-344.29" font-family="Helvetica,sans-Serif" font-size="9" font-weight="bold">index.mjs</text></a></g><g class="edge"><path fill="none" stroke="#f0f" stroke-opacity=".467" stroke-width="2" d="M466.11-395.94v21.83"/><path fill="#f0f" fill-opacity=".467" stroke="#f0f" stroke-opacity=".467" stroke-width="2" d="m468.21-374.11-2.1 6-2.1-6z"/></g><g class="node"><a xlink:href="https://github.com/sverweij/dependency-cruiser/blob/main/src/report/baseline.mjs" xlink:title="no-orphans"><path fill="#fcf" stroke="red" d="M545.57-25.64H492.9c-4.33 0-8.66 4.33-8.66 8.67v8.66c0 4.34 4.33 8.67 8.66 8.67h52.67c4.33 0 8.67-4.33 8.67-8.67v-8.66c0-4.34-4.34-8.67-8.67-8.67"/><text x="498.99" y="-14.09" fill="red" font-family="Helvetica,sans-Serif" font-size="9">src/report/</text><text x="492.24" y="-5.09" fill="red" font-family="Helvetica,sans-Serif" font-size="9" font-weight="bold">baseline.mjs</text></a></g><g class="node"><a xlink:href="https://github.com/sverweij/dependency-cruiser/blob/main/src/report/csv.mjs" xlink:title="csv.mjs"><path fill="#fcf" stroke="#000" d="M597.65-473.42h-39.17c-4.33 0-8.67 4.33-8.67 8.66v8.67c0 4.33 4.34 8.67 8.67 8.67h39.17c4.33 0 8.66-4.34 8.66-8.67v-8.67c0-4.33-4.33-8.66-8.66-8.66"/><text x="557.81" y="-461.87" font-family="Helvetica,sans-Serif" font-size="9">src/report/</text><text x="561.56" y="-452.87" font-family="Helvetica,sans-Serif" font-size="9" font-weight="bold">csv.mjs</text></a></g><g class="node"><a xlink:href="https://github.com/sverweij/dependency-cruiser/blob/main/src/report/utl/dependency-to-incidence-transformer.mjs" xlink:title="dependency-to-incidence-transformer.mjs"><path fill="#fcf" stroke="#000" d="M805.91-532.06H627.24c-4.33 0-8.66 4.34-8.66 8.67v8.67c0 4.33 4.33 8.66 8.66 8.66h178.67c4.33 0 8.67-4.33 8.67-8.66v-8.67c0-4.33-4.34-8.67-8.67-8.67"/><text x="690.33" y="-520.51" font-family="Helvetica,sans-Serif" font-size="9">src/report/utl/</text><text x="626.58" y="-511.51" font-family="Helvetica,sans-Serif" font-size="9" font-weight="bold">dependency-to-incidence-transformer.mjs</text></a></g><g class="edge"><path fill="none" stroke="#f0f" stroke-opacity=".467" stroke-width="2" d="M606.57-460h23.63v-36.63"/><path fill="#f0f" fill-opacity=".467" stroke="#f0f" stroke-opacity=".467" stroke-width="2" d="m628.1-496.63 2.1-6 2.1 6z"/></g><g class="node"><a xlink:href="https://github.com/sverweij/dependency-cruiser/blob/main/src/report/d2.mjs" xlink:title="d2.mjs"><path fill="#fcf" stroke="#000" d="M555.43-330.07h-39.16c-4.34 0-8.67 4.34-8.67 8.67v8.67c0 4.33 4.33 8.66 8.67 8.66h39.16c4.34 0 8.67-4.33 8.67-8.66v-8.67c0-4.33-4.33-8.67-8.67-8.67"/><text x="515.6" y="-318.52" font-family="Helvetica,sans-Serif" font-size="9">src/report/</text><text x="521.6" y="-309.52" font-family="Helvetica,sans-Serif" font-size="9" font-weight="bold">d2.mjs</text></a></g><g class="edge"><path fill="none" stroke="#f0f" stroke-opacity=".467" stroke-width="2" d="M519.03-330.41v-.8"/><path fill="#f0f" fill-opacity=".467" stroke="#f0f" stroke-opacity=".467" stroke-width="2" d="m516.93-329.33 2.1-6 2.1 6z"/></g><g class="node"><a xlink:href="https://github.com/sverweij/dependency-cruiser/blob/main/src/report/dot-webpage/dot-module.mjs" xlink:title="dot-module.mjs"><path fill="#fcf" stroke="#000" d="M640.43-228.02h-95.41c-4.34 0-8.67 4.33-8.67 8.67v8.66c0 4.34 4.33 8.67 8.67 8.67h95.41c4.34 0 8.67-4.33 8.67-8.67v-8.66c0-4.34-4.33-8.67-8.67-8.67"/><text x="544.35" y="-216.47" font-family="Helvetica,sans-Serif" font-size="9">src/report/dot-webpage/</text><text x="559.73" y="-207.47" font-family="Helvetica,sans-Serif" font-size="9" font-weight="bold">dot-module.mjs</text></a></g><g class="node"><a xlink:href="https://github.com/sverweij/dependency-cruiser/blob/main/src/report/dot/dot-module.mjs" xlink:title="dot-module.mjs"><path fill="#fcf" stroke="#000" d="M513.47-224.79H448.8c-4.33 0-8.66 4.34-8.66 8.67v8.67c0 4.33 4.33 8.66 8.66 8.66h64.67c4.33 0 8.67-4.33 8.67-8.66v-8.67c0-4.33-4.34-8.67-8.67-8.67"/><text x="453.39" y="-213.24" font-family="Helvetica,sans-Serif" font-size="9">src/report/dot/</text><text x="448.14" y="-204.24" font-family="Helvetica,sans-Serif" font-size="9" font-weight="bold">dot-module.mjs</text></a></g><g class="edge"><path fill="none" stroke="#f0f" stroke-opacity=".467" stroke-width="2" d="M535.95-213h-4.4"/><path fill="#f0f" fill-opacity=".467" stroke="#f0f" stroke-opacity=".467" stroke-width="2" d="m531.55-210.9-6-2.1 6-2.1z"/></g><g class="node"><a xlink:href="https://github.com/sverweij/dependency-cruiser/blob/main/src/report/dot-webpage/wrap-in-html.mjs" xlink:title="wrap-in-html.mjs"><path fill="#fcf" stroke="#000" d="M744.7-193.99h-95.42c-4.33 0-8.67 4.33-8.67 8.67v8.66c0 4.34 4.34 8.67 8.67 8.67h95.42c4.33 0 8.66-4.33 8.66-8.67v-8.66c0-4.34-4.33-8.67-8.66-8.67"/><text x="648.61" y="-182.44" font-family="Helvetica,sans-Serif" font-size="9">src/report/dot-webpage/</text><text x="661.36" y="-173.44" font-family="Helvetica,sans-Serif" font-size="9" font-weight="bold">wrap-in-html.mjs</text></a></g><g class="edge"><path fill="none" stroke="#f0f" stroke-opacity=".467" stroke-width="2" d="M644.86-201.57v.72"/><path fill="#f0f" fill-opacity=".467" stroke="#f0f" stroke-opacity=".467" stroke-width="2" d="m646.96-203.37-2.1 6-2.1-6z"/></g><g class="node"><a xlink:href="https://github.com/sverweij/dependency-cruiser/blob/main/src/report/dot/index.mjs" xlink:title="index.mjs"><path fill="#fcf" stroke="#000" d="M302.79-256.06h-54.16c-4.34 0-8.67 4.34-8.67 8.67v8.67c0 4.33 4.33 8.66 8.67 8.66h54.16c4.34 0 8.67-4.33 8.67-8.66v-8.67c0-4.33-4.33-8.67-8.67-8.67"/><text x="247.96" y="-244.51" font-family="Helvetica,sans-Serif" font-size="9">src/report/dot/</text><text x="255.09" y="-235.51" font-family="Helvetica,sans-Serif" font-size="9" font-weight="bold">index.mjs</text></a></g><g class="edge"><path fill="none" stroke="#f0f" stroke-opacity=".467" stroke-width="2" d="M471.83-224.92V-246H320.71"/><path fill="#f0f" fill-opacity=".467" stroke="#f0f" stroke-opacity=".467" stroke-width="2" d="m320.71-243.9-6-2.1 6-2.1z"/></g><g class="node"><a xlink:href="https://github.com/sverweij/dependency-cruiser/blob/main/src/report/dot/default-theme.mjs" xlink:title="default-theme.mjs"><path fill="#fcf" stroke="#000" d="M361.03-444.61h-75.92c-4.33 0-8.67 4.34-8.67 8.67v8.67c0 4.33 4.34 8.66 8.67 8.66h75.92c4.33 0 8.66-4.33 8.66-8.66v-8.67c0-4.33-4.33-8.67-8.66-8.67"/><text x="295.32" y="-433.06" font-family="Helvetica,sans-Serif" font-size="9">src/report/dot/</text><text x="284.44" y="-424.06" font-family="Helvetica,sans-Serif" font-size="9" font-weight="bold">default-theme.mjs</text></a></g><g class="node"><a xlink:href="https://github.com/sverweij/dependency-cruiser/blob/main/src/report/dot/dot-custom.mjs" xlink:title="dot-custom.mjs"><path fill="#fcf" stroke="#000" d="M222.63-222.86h-65.41c-4.34 0-8.67 4.33-8.67 8.67v8.66c0 4.34 4.33 8.67 8.67 8.67h65.41c4.34 0 8.67-4.33 8.67-8.67v-8.66c0-4.34-4.33-8.67-8.67-8.67"/><text x="162.17" y="-211.31" font-family="Helvetica,sans-Serif" font-size="9">src/report/dot/</text><text x="156.55" y="-202.31" font-family="Helvetica,sans-Serif" font-size="9" font-weight="bold">dot-custom.mjs</text></a></g><g class="edge"><path fill="none" stroke="#f0f" stroke-opacity=".467" stroke-width="2" d="M231.45-209h30.57v-11.57"/><path fill="#f0f" fill-opacity=".467" stroke="#f0f" stroke-opacity=".467" stroke-width="2" d="m259.92-220.57 2.1-6 2.1 6z"/></g><g class="edge"><path fill="none" stroke="#700" stroke-opacity=".467" stroke-width="2" d="M239.79-238h-99.46v68.04"/><path fill="#700" fill-opacity=".467" stroke="#700" stroke-opacity=".467" stroke-width="2" d="m142.43-169.96-2.1 6-2.1-6z"/></g><g class="node"><a xlink:href="https://github.com/sverweij/dependency-cruiser/blob/main/src/report/dot/module-utl.mjs" xlink:title="module-utl.mjs"><path fill="#fcf" stroke="#000" d="M408.83-289.45h-61.67c-4.33 0-8.66 4.33-8.66 8.66v8.67c0 4.33 4.33 8.67 8.66 8.67h61.67c4.33 0 8.67-4.34 8.67-8.67v-8.67c0-4.33-4.34-8.66-8.67-8.66"/><text x="350.25" y="-277.9" font-family="Helvetica,sans-Serif" font-size="9">src/report/dot/</text><text x="346.5" y="-268.9" font-family="Helvetica,sans-Serif" font-size="9" font-weight="bold">module-utl.mjs</text></a></g><g class="edge"><path fill="none" stroke="#f0f" stroke-opacity=".467" stroke-width="2" d="M311.86-249h52.1v-5.02"/><path fill="#f0f" fill-opacity=".467" stroke="#f0f" stroke-opacity=".467" stroke-width="2" d="m361.86-254.02 2.1-6 2.1 6z"/></g><g class="node"><a xlink:href="https://github.com/sverweij/dependency-cruiser/blob/main/src/report/dot/prepare-custom-level.mjs" xlink:title="prepare-custom-level.mjs"><path fill="#fcf" stroke="#000" d="M431.8-169.87H322.88c-4.33 0-8.66 4.33-8.66 8.66v8.67c0 4.33 4.33 8.67 8.66 8.67H431.8c4.33 0 8.67-4.34 8.67-8.67v-8.67c0-4.33-4.34-8.66-8.67-8.66"/><text x="349.59" y="-158.32" font-family="Helvetica,sans-Serif" font-size="9">src/report/dot/</text><text x="322.22" y="-149.32" font-family="Helvetica,sans-Serif" font-size="9" font-weight="bold">prepare-custom-level.mjs</text></a></g><g class="edge"><path fill="none" stroke="#f0f" stroke-opacity=".467" stroke-width="2" d="M311.79-242h108.38v62.8"/><path fill="#f0f" fill-opacity=".467" stroke="#f0f" stroke-opacity=".467" stroke-width="2" d="m422.27-179.2-2.1 6-2.1-6z"/></g><g class="node"><a xlink:href="https://github.com/sverweij/dependency-cruiser/blob/main/src/report/dot/prepare-flat-level.mjs" xlink:title="prepare-flat-level.mjs"><path fill="#fcf" stroke="#000" d="M406.23-222.02h-90.17c-4.33 0-8.67 4.33-8.67 8.66v8.67c0 4.33 4.34 8.67 8.67 8.67h90.17c4.33 0 8.66-4.34 8.66-8.67v-8.67c0-4.33-4.33-8.66-8.66-8.66"/><text x="333.39" y="-210.47" font-family="Helvetica,sans-Serif" font-size="9">src/report/dot/</text><text x="315.39" y="-201.47" font-family="Helvetica,sans-Serif" font-size="9" font-weight="bold">prepare-flat-level.mjs</text></a></g><g class="edge"><path fill="none" stroke="#f0f" stroke-opacity=".467" stroke-width="2" d="M311.91-239h10.33v7.71"/><path fill="#f0f" fill-opacity=".467" stroke="#f0f" stroke-opacity=".467" stroke-width="2" d="m324.34-231.29-2.1 6-2.1-6z"/></g><g class="node"><a xlink:href="https://github.com/sverweij/dependency-cruiser/blob/main/src/report/dot/prepare-folder-level.mjs" xlink:title="prepare-folder-level.mjs"><path fill="#fcf" stroke="#000" d="M297.47-188.01H196.06c-4.34 0-8.67 4.33-8.67 8.66v8.67c0 4.33 4.33 8.67 8.67 8.67h101.41c4.34 0 8.67-4.34 8.67-8.67v-8.67c0-4.33-4.33-8.66-8.67-8.66"/><text x="219.02" y="-176.46" font-family="Helvetica,sans-Serif" font-size="9">src/report/dot/</text><text x="195.39" y="-167.46" font-family="Helvetica,sans-Serif" font-size="9" font-weight="bold">prepare-folder-level.mjs</text></a></g><g class="edge"><path fill="none" stroke="#f0f" stroke-opacity=".467" stroke-width="2" d="M284.08-229.61v32.15"/><path fill="#f0f" fill-opacity=".467" stroke="#f0f" stroke-opacity=".467" stroke-width="2" d="m286.18-197.46-2.1 6-2.1-6z"/></g><g class="node"><a xlink:href="https://github.com/sverweij/dependency-cruiser/blob/main/src/report/dot/theming.mjs" xlink:title="theming.mjs"><path fill="#fcf" stroke="#000" d="M338.72-324.09h-54.16c-4.34 0-8.67 4.34-8.67 8.67v8.67c0 4.33 4.33 8.66 8.67 8.66h54.16c4.34 0 8.67-4.33 8.67-8.66v-8.67c0-4.33-4.33-8.67-8.67-8.67"/><text x="283.89" y="-312.54" font-family="Helvetica,sans-Serif" font-size="9">src/report/dot/</text><text x="285.39" y="-303.54" font-family="Helvetica,sans-Serif" font-size="9" font-weight="bold">theming.mjs</text></a></g><g class="edge"><path fill="none" stroke="#f0f" stroke-opacity=".467" stroke-width="2" d="M311.86-252h18.51v-36.65"/><path fill="#f0f" fill-opacity=".467" stroke="#f0f" stroke-opacity=".467" stroke-width="2" d="m328.27-288.65 2.1-6 2.1 6z"/></g><g class="node"><a xlink:href="https://github.com/sverweij/dependency-cruiser/blob/main/src/report/dot/dot-flat.mjs" xlink:title="dot-flat.mjs"><path fill="#fcf" stroke="#000" d="M305.45-290.07h-54.17c-4.33 0-8.67 4.33-8.67 8.66v8.67c0 4.33 4.34 8.67 8.67 8.67h54.17c4.33 0 8.66-4.34 8.66-8.67v-8.67c0-4.33-4.33-8.66-8.66-8.66"/><text x="250.61" y="-278.52" font-family="Helvetica,sans-Serif" font-size="9">src/report/dot/</text><text x="254.36" y="-269.52" font-family="Helvetica,sans-Serif" font-size="9" font-weight="bold">dot-flat.mjs</text></a></g><g class="edge"><path fill="none" stroke="#f0f" stroke-opacity=".467" stroke-width="2" d="M277.04-263.63v.72"/><path fill="#f0f" fill-opacity=".467" stroke="#f0f" stroke-opacity=".467" stroke-width="2" d="m279.14-265.43-2.1 6-2.1-6z"/></g><g class="node"><a xlink:href="https://github.com/sverweij/dependency-cruiser/blob/main/src/report/dot/dot-folder.mjs" xlink:title="dot-folder.mjs"><path fill="#fcf" stroke="#000" d="M223.21-280.35h-57.17c-4.33 0-8.67 4.33-8.67 8.67v8.66c0 4.34 4.34 8.67 8.67 8.67h57.17c4.33 0 8.66-4.33 8.66-8.67v-8.66c0-4.34-4.33-8.67-8.66-8.67"/><text x="166.87" y="-268.8" font-family="Helvetica,sans-Serif" font-size="9">src/report/dot/</text><text x="165.37" y="-259.8" font-family="Helvetica,sans-Serif" font-size="9" font-weight="bold">dot-folder.mjs</text></a></g><g class="edge"><path fill="none" stroke="#f0f" stroke-opacity=".467" stroke-width="2" d="M194.34-254.19v8.19h36.41"/><path fill="#f0f" fill-opacity=".467" stroke="#f0f" stroke-opacity=".467" stroke-width="2" d="m230.75-248.1 6 2.1-6 2.1z"/></g><g class="edge"><path fill="none" stroke="#f0f" stroke-opacity=".467" stroke-width="2" d="M352.76-289.86V-346h99.7"/><path fill="#f0f" fill-opacity=".467" stroke="#f0f" stroke-opacity=".467" stroke-width="2" d="m452.46-348.1 6 2.1-6 2.1z"/></g><g class="edge"><path fill="none" stroke="#f0f" stroke-opacity=".467" stroke-width="2" d="M342.94-289.74v-.79"/><path fill="#f0f" fill-opacity=".467" stroke="#f0f" stroke-opacity=".467" stroke-width="2" d="m340.84-288.63 2.1-6 2.1 6z"/></g><g class="edge"><path fill="none" stroke="#700" stroke-opacity=".467" stroke-width="2" d="M440.67-163h.75"/><path fill="#700" fill-opacity=".467" stroke="#700" stroke-opacity=".467" stroke-width="2" d="m439.15-165.1 6 2.1-6 2.1z"/></g><g class="edge"><path fill="none" stroke="#700" stroke-opacity=".467" stroke-width="2" d="M382.6-143.38v17.65"/><path fill="#700" fill-opacity=".467" stroke="#700" stroke-opacity=".467" stroke-width="2" d="m384.7-125.73-2.1 6-2.1-6z"/></g><g class="edge"><path fill="none" stroke="#700" stroke-opacity=".467" stroke-width="2" d="M319.48-143.5v19.5h-1.85"/><path fill="#700" fill-opacity=".467" stroke="#700" stroke-opacity=".467" stroke-width="2" d="m317.63-121.9-6-2.1 6-2.1z"/></g><g class="edge"><path fill="none" stroke="#f0f" stroke-opacity=".467" stroke-width="2" d="M422.84-169.94V-279h-.52"/><path fill="#f0f" fill-opacity=".467" stroke="#f0f" stroke-opacity=".467" stroke-width="2" d="m426.72-276.9-6-2.1 6-2.1z"/></g><g class="edge"><path fill="none" stroke="#700" stroke-opacity=".467" stroke-width="2" d="M364.55-195.69V-178h74.69"/><path fill="#700" fill-opacity=".467" stroke="#700" stroke-opacity=".467" stroke-width="2" d="m439.24-180.1 6 2.1-6 2.1z"/></g><g class="edge"><path fill="none" stroke="#f0f" stroke-opacity=".467" stroke-width="2" d="M389.43-222.35v-31.78"/><path fill="#f0f" fill-opacity=".467" stroke="#f0f" stroke-opacity=".467" stroke-width="2" d="m387.33-254.13 2.1-6 2.1 6z"/></g><g class="edge"><path fill="none" stroke="#700" stroke-opacity=".467" stroke-width="2" d="M306.48-174h132.73"/><path fill="#700" fill-opacity=".467" stroke="#700" stroke-opacity=".467" stroke-width="2" d="m439.21-176.1 6 2.1-6 2.1z"/></g><g class="edge"><path fill="none" stroke="#700" stroke-opacity=".467" stroke-width="2" d="M187.11-171h-3.78v71h95.57v8.85"/><path fill="#700" fill-opacity=".467" stroke="#700" stroke-opacity=".467" stroke-width="2" d="m281-91.15-2.1 6-2.1-6z"/></g><g class="edge"><path fill="none" stroke="#700" stroke-opacity=".467" stroke-width="2" d="M246.77-161.57v16.51"/><path fill="#700" fill-opacity=".467" stroke="#700" stroke-opacity=".467" stroke-width="2" d="m248.87-145.06-2.1 6-2.1-6z"/></g><g class="edge"><path fill="none" stroke="#f0f" stroke-opacity=".467" stroke-width="2" d="M235.92-188.32V-328h114.16v29.25"/><path fill="#f0f" fill-opacity=".467" stroke="#f0f" stroke-opacity=".467" stroke-width="2" d="m352.18-298.75-2.1 6-2.1-6z"/></g><g class="edge"><path fill="none" stroke="#f0f" stroke-opacity=".467" stroke-width="2" d="M310.17-324.44v-84.72"/><path fill="#f0f" fill-opacity=".467" stroke="#f0f" stroke-opacity=".467" stroke-width="2" d="m308.07-409.16 2.1-6 2.1 6z"/></g><g class="node"><a xlink:href="https://github.com/sverweij/dependency-cruiser/blob/main/src/report/error-html/error-html-template.mjs" xlink:title="error-html-template.mjs"><path fill="#fcf" stroke="#000" d="M297.47-395.51H196.81c-4.34 0-8.67 4.33-8.67 8.67v8.66c0 4.34 4.33 8.67 8.67 8.67h100.66c4.34 0 8.67-4.33 8.67-8.67v-8.66c0-4.34-4.33-8.67-8.67-8.67"/><text x="205.89" y="-383.96" font-family="Helvetica,sans-Serif" font-size="9">src/report/error-html/</text><text x="196.14" y="-374.96" font-family="Helvetica,sans-Serif" font-size="9" font-weight="bold">error-html-template.mjs</text></a></g><g class="node"><a xlink:href="https://github.com/sverweij/dependency-cruiser/blob/main/src/report/error-html/index.mjs" xlink:title="index.mjs"><path fill="#fcf" stroke="#000" d="M404.03-376.15h-81.17c-4.33 0-8.66 4.33-8.66 8.66v8.67c0 4.33 4.33 8.67 8.66 8.67h81.17c4.33 0 8.67-4.34 8.67-8.67v-8.67c0-4.33-4.34-8.66-8.67-8.66"/><text x="322.2" y="-364.6" font-family="Helvetica,sans-Serif" font-size="9">src/report/error-html/</text><text x="342.82" y="-355.6" font-family="Helvetica,sans-Serif" font-size="9" font-weight="bold">index.mjs</text></a></g><g class="edge"><path fill="none" stroke="#f0f" stroke-opacity=".467" stroke-width="2" d="M313.93-359h-22.92v-1.08"/><path fill="#f0f" fill-opacity=".467" stroke="#f0f" stroke-opacity=".467" stroke-width="2" d="m288.91-360.08 2.1-6 2.1 6z"/></g><g class="node"><a xlink:href="https://github.com/sverweij/dependency-cruiser/blob/main/src/report/error-html/utl.mjs" xlink:title="utl.mjs"><path fill="#fcf" stroke="#000" d="M445.28-333.88h-81.17c-4.33 0-8.66 4.33-8.66 8.67v8.66c0 4.34 4.33 8.67 8.66 8.67h81.17c4.33 0 8.67-4.33 8.67-8.67v-8.66c0-4.34-4.34-8.67-8.67-8.67"/><text x="363.45" y="-322.33" font-family="Helvetica,sans-Serif" font-size="9">src/report/error-html/</text><text x="390.45" y="-313.33" font-family="Helvetica,sans-Serif" font-size="9" font-weight="bold">utl.mjs</text></a></g><g class="edge"><path fill="none" stroke="#f0f" stroke-opacity=".467" stroke-width="2" d="M384.07-349.78v6.44"/><path fill="#f0f" fill-opacity=".467" stroke="#f0f" stroke-opacity=".467" stroke-width="2" d="m386.17-343.34-2.1 6-2.1-6z"/></g><g class="edge"><path fill="none" stroke="#f0f" stroke-opacity=".467" stroke-width="2" d="M433.32-334.38V-342h19.47"/><path fill="#f0f" fill-opacity=".467" stroke="#f0f" stroke-opacity=".467" stroke-width="2" d="m452.79-344.1 6 2.1-6 2.1z"/></g><g class="node"><a xlink:href="https://github.com/sverweij/dependency-cruiser/blob/main/src/report/error-long.mjs" xlink:title="error-long.mjs"><path fill="#fcf" stroke="#000" d="M612.95-296.05h-59.42c-4.33 0-8.66 4.34-8.66 8.67v8.67c0 4.33 4.33 8.66 8.66 8.66h59.42c4.33 0 8.67-4.33 8.67-8.66v-8.67c0-4.33-4.34-8.67-8.67-8.67"/><text x="562.99" y="-284.5" font-family="Helvetica,sans-Serif" font-size="9">src/report/</text><text x="552.87" y="-275.5" font-family="Helvetica,sans-Serif" font-size="9" font-weight="bold">error-long.mjs</text></a></g><g class="node"><a xlink:href="https://github.com/sverweij/dependency-cruiser/blob/main/src/report/error.mjs" xlink:title="error.mjs"><path fill="#fcf" stroke="#000" d="M551.35-262.03h-39.17c-4.33 0-8.66 4.33-8.66 8.66v8.67c0 4.33 4.33 8.67 8.66 8.67h39.17c4.33 0 8.67-4.34 8.67-8.67v-8.67c0-4.33-4.34-8.66-8.67-8.66"/><text x="511.52" y="-250.48" font-family="Helvetica,sans-Serif" font-size="9">src/report/</text><text x="512.27" y="-241.48" font-family="Helvetica,sans-Serif" font-size="9" font-weight="bold">error.mjs</text></a></g><g class="edge"><path fill="none" stroke="#f0f" stroke-opacity=".467" stroke-width="2" d="M552.44-269.6v.72"/><path fill="#f0f" fill-opacity=".467" stroke="#f0f" stroke-opacity=".467" stroke-width="2" d="m554.54-271.4-2.1 6-2.1-6z"/></g><g class="edge"><path fill="none" stroke="#700" stroke-opacity=".467" stroke-width="2" d="M533.85-235.8v60.8h102.37v32.71"/><path fill="#700" fill-opacity=".467" stroke="#700" stroke-opacity=".467" stroke-width="2" d="m638.32-142.29-2.1 6-2.1-6z"/></g><g class="edge"><path fill="none" stroke="#f0f" stroke-opacity=".467" stroke-width="2" d="M560.45-249h78.33v-96h-99.03"/><path fill="#f0f" fill-opacity=".467" stroke="#f0f" stroke-opacity=".467" stroke-width="2" d="m539.75-342.9-6-2.1 6-2.1z"/></g><g class="node"><a xlink:href="https://github.com/sverweij/dependency-cruiser/blob/main/src/utl/wrap-and-indent.mjs" xlink:title="utl-module-not-shared-enough"><path fill="#ccc" stroke="#00f" d="M623.17-166.95H537.5c-4.33 0-8.66 4.33-8.66 8.67v8.66c0 4.34 4.33 8.67 8.66 8.67h85.67c4.33 0 8.67-4.33 8.67-8.67v-8.66c0-4.34-4.34-8.67-8.67-8.67"/><text x="567.21" y="-155.4" fill="#00f" font-family="Helvetica,sans-Serif" font-size="9">src/utl/</text><text x="536.84" y="-146.4" fill="#00f" font-family="Helvetica,sans-Serif" font-size="9" font-weight="bold">wrap-and-indent.mjs</text></a></g><g class="edge"><path fill="none" stroke="#aaa" stroke-opacity=".467" stroke-width="2" d="M531.34-235.81v59.42"/><path fill="#aaa" fill-opacity=".467" stroke="#aaa" stroke-opacity=".467" stroke-width="2" d="m533.44-176.39-2.1 6-2.1-6z"/></g><g class="node"><a xlink:href="https://github.com/sverweij/dependency-cruiser/blob/main/src/report/html/html-template.mjs" xlink:title="html-template.mjs"><path fill="#fcf" stroke="#000" d="M731.95-422.41h-75.92c-4.33 0-8.66 4.33-8.66 8.66v8.67c0 4.33 4.33 8.67 8.66 8.67h75.92c4.33 0 8.67-4.34 8.67-8.67v-8.67c0-4.33-4.34-8.66-8.67-8.66"/><text x="663.99" y="-410.86" font-family="Helvetica,sans-Serif" font-size="9">src/report/html/</text><text x="655.37" y="-401.86" font-family="Helvetica,sans-Serif" font-size="9" font-weight="bold">html-template.mjs</text></a></g><g class="node"><a xlink:href="https://github.com/sverweij/dependency-cruiser/blob/main/src/report/html/index.mjs" xlink:title="index.mjs"><path fill="#fcf" stroke="#000" d="M672.33-566.06h-58.66c-4.34 0-8.67 4.33-8.67 8.67v8.66c0 4.34 4.33 8.67 8.67 8.67h58.66c4.34 0 8.67-4.33 8.67-8.67v-8.66c0-4.34-4.33-8.67-8.67-8.67"/><text x="613" y="-554.51" font-family="Helvetica,sans-Serif" font-size="9">src/report/html/</text><text x="622.38" y="-545.51" font-family="Helvetica,sans-Serif" font-size="9" font-weight="bold">index.mjs</text></a></g><g class="edge"><path fill="none" stroke="#f0f" stroke-opacity=".467" stroke-width="2" d="M649.79-539.62v.72"/><path fill="#f0f" fill-opacity=".467" stroke="#f0f" stroke-opacity=".467" stroke-width="2" d="m651.89-541.43-2.1 6-2.1-6z"/></g><g class="edge"><path fill="none" stroke="#f0f" stroke-opacity=".467" stroke-width="2" d="M612.45-539.73V-414H638"/><path fill="#f0f" fill-opacity=".467" stroke="#f0f" stroke-opacity=".467" stroke-width="2" d="m638-416.1 6 2.1-6 2.1z"/></g><g class="node"><a xlink:href="https://github.com/sverweij/dependency-cruiser/blob/main/src/report/identity.mjs" xlink:title="identity.mjs"><path fill="#fcf" stroke="#000" d="M231.95-465.64h-47.42c-4.33 0-8.67 4.33-8.67 8.67v8.66c0 4.34 4.34 8.67 8.67 8.67h47.42c4.33 0 8.66-4.33 8.66-8.67v-8.66c0-4.34-4.33-8.67-8.66-8.67"/><text x="187.99" y="-454.09" font-family="Helvetica,sans-Serif" font-size="9">src/report/</text><text x="183.86" y="-445.09" font-family="Helvetica,sans-Serif" font-size="9" font-weight="bold">identity.mjs</text></a></g><g class="node"><a xlink:href="https://github.com/sverweij/dependency-cruiser/blob/main/src/report/index.mjs" xlink:title="index.mjs"><path fill="#fcf" stroke="#000" d="M642.46-58.68h-39.92c-4.33 0-8.66 4.33-8.66 8.66v8.67c0 4.33 4.33 8.67 8.66 8.67h39.92c4.33 0 8.67-4.34 8.67-8.67v-8.67c0-4.33-4.34-8.66-8.67-8.66"/><text x="602.25" y="-47.13" font-family="Helvetica,sans-Serif" font-size="9">src/report/</text><text x="601.88" y="-38.13" font-family="Helvetica,sans-Serif" font-size="9" font-weight="bold">index.mjs</text></a></g><g class="node"><a xlink:href="https://github.com/sverweij/dependency-cruiser/blob/main/src/report/plugins.mjs" xlink:title="plugins.mjs"><path fill="#fcf" stroke="#000" d="M715.22-48.37H667.8c-4.33 0-8.67 4.33-8.67 8.66v8.67c0 4.33 4.34 8.67 8.67 8.67h47.42c4.33 0 8.66-4.34 8.66-8.67v-8.67c0-4.33-4.33-8.66-8.66-8.66"/><text x="671.26" y="-36.82" font-family="Helvetica,sans-Serif" font-size="9">src/report/</text><text x="667.13" y="-27.82" font-family="Helvetica,sans-Serif" font-size="9" font-weight="bold">plugins.mjs</text></a></g><g class="edge"><path fill="none" stroke="#f0f" stroke-opacity=".467" stroke-width="2" d="M651.37-40h.76"/><path fill="#f0f" fill-opacity=".467" stroke="#f0f" stroke-opacity=".467" stroke-width="2" d="m649.94-42.1 6 2.1-6 2.1z"/></g><g class="node"><a xlink:href="https://github.com/sverweij/dependency-cruiser/blob/main/src/report/json.mjs" xlink:title="json.mjs"><path fill="#fcf" stroke="#000" d="M179.82-25.64h-39.17c-4.33 0-8.66 4.33-8.66 8.67v8.66c0 4.34 4.33 8.67 8.66 8.67h39.17c4.33 0 8.67-4.33 8.67-8.67v-8.66c0-4.34-4.34-8.67-8.67-8.67"/><text x="139.99" y="-14.09" font-family="Helvetica,sans-Serif" font-size="9">src/report/</text><text x="142.24" y="-5.09" font-family="Helvetica,sans-Serif" font-size="9" font-weight="bold">json.mjs</text></a></g><g class="node"><a xlink:href="https://github.com/sverweij/dependency-cruiser/blob/main/src/report/markdown.mjs" xlink:title="markdown.mjs"><path fill="#fcf" stroke="#000" d="M495.84-296.03h-61.67c-4.33 0-8.66 4.33-8.66 8.66v8.67c0 4.33 4.33 8.67 8.66 8.67h61.67c4.33 0 8.67-4.34 8.67-8.67v-8.67c0-4.33-4.34-8.66-8.67-8.66"/><text x="444.76" y="-284.48" font-family="Helvetica,sans-Serif" font-size="9">src/report/</text><text x="433.51" y="-275.48" font-family="Helvetica,sans-Serif" font-size="9" font-weight="bold">markdown.mjs</text></a></g><g class="edge"><path fill="none" stroke="#f0f" stroke-opacity=".467" stroke-width="2" d="M439.73-296.27v-2.29"/><path fill="#f0f" fill-opacity=".467" stroke="#f0f" stroke-opacity=".467" stroke-width="2" d="m437.63-298.56 2.1-6 2.1 6z"/></g><g class="node"><a xlink:href="https://github.com/sverweij/dependency-cruiser/blob/main/src/report/mermaid.mjs" xlink:title="no-orphans"><path fill="#fcf" stroke="red" d="M195.7-333.64h-54.92c-4.33 0-8.67 4.33-8.67 8.67v8.66c0 4.34 4.34 8.67 8.67 8.67h54.92c4.33 0 8.66-4.33 8.66-8.67v-8.66c0-4.34-4.33-8.67-8.66-8.67"/><text x="147.99" y="-322.09" fill="red" font-family="Helvetica,sans-Serif" font-size="9">src/report/</text><text x="140.11" y="-313.09" fill="red" font-family="Helvetica,sans-Serif" font-size="9" font-weight="bold">mermaid.mjs</text></a></g><g class="node"><a xlink:href="https://github.com/sverweij/dependency-cruiser/blob/main/src/report/metrics.mjs" xlink:title="metrics.mjs"><path fill="#fcf" stroke="#000" d="M536.62-431.89h-49.67c-4.33 0-8.67 4.33-8.67 8.66v8.67c0 4.33 4.34 8.67 8.67 8.67h49.67c4.33 0 8.66-4.34 8.66-8.67v-8.67c0-4.33-4.33-8.66-8.66-8.66"/><text x="491.53" y="-420.34" font-family="Helvetica,sans-Serif" font-size="9">src/report/</text><text x="486.28" y="-411.34" font-family="Helvetica,sans-Serif" font-size="9" font-weight="bold">metrics.mjs</text></a></g><g class="edge"><path fill="none" stroke="#f0f" stroke-opacity=".467" stroke-width="2" d="M504.37-405.65v31.56"/><path fill="#f0f" fill-opacity=".467" stroke="#f0f" stroke-opacity=".467" stroke-width="2" d="m506.47-374.09-2.1 6-2.1-6z"/></g><g class="node"><a xlink:href="https://github.com/sverweij/dependency-cruiser/blob/main/src/report/null.mjs" xlink:title="null.mjs"><path fill="#fcf" stroke="#000" d="M267.82-25.64h-39.17c-4.33 0-8.66 4.33-8.66 8.67v8.66c0 4.34 4.33 8.67 8.66 8.67h39.17c4.33 0 8.67-4.33 8.67-8.67v-8.66c0-4.34-4.34-8.67-8.67-8.67"/><text x="227.99" y="-14.09" font-family="Helvetica,sans-Serif" font-size="9">src/report/</text><text x="231.74" y="-5.09" font-family="Helvetica,sans-Serif" font-size="9" font-weight="bold">null.mjs</text></a></g><g class="node"><a xlink:href="https://github.com/sverweij/dependency-cruiser/blob/main/src/report/teamcity.mjs" xlink:title="teamcity.mjs"><path fill="#fcf" stroke="#000" d="M610.01-385.84H556.6c-4.34 0-8.67 4.33-8.67 8.67v8.66c0 4.34 4.33 8.67 8.67 8.67h53.41c4.34 0 8.67-4.33 8.67-8.67v-8.66c0-4.34-4.33-8.67-8.67-8.67"/><text x="563.06" y="-374.29" font-family="Helvetica,sans-Serif" font-size="9">src/report/</text><text x="555.93" y="-365.29" font-family="Helvetica,sans-Serif" font-size="9" font-weight="bold">teamcity.mjs</text></a></g><g class="edge"><path fill="none" stroke="#f0f" stroke-opacity=".467" stroke-width="2" d="M556.01-359.52v7.52h-16.33"/><path fill="#f0f" fill-opacity=".467" stroke="#f0f" stroke-opacity=".467" stroke-width="2" d="m539.68-349.9-6-2.1 6-2.1z"/></g><g class="node"><a xlink:href="https://github.com/sverweij/dependency-cruiser/blob/main/src/report/text.mjs" xlink:title="no-orphans"><path fill="#fcf" stroke="red" d="M289.82-531.64h-39.17c-4.33 0-8.66 4.33-8.66 8.67v8.66c0 4.34 4.33 8.67 8.66 8.67h39.17c4.33 0 8.67-4.33 8.67-8.67v-8.66c0-4.34-4.34-8.67-8.67-8.67"/><text x="249.99" y="-520.09" fill="red" font-family="Helvetica,sans-Serif" font-size="9">src/report/</text><text x="252.99" y="-511.09" fill="red" font-family="Helvetica,sans-Serif" font-size="9" font-weight="bold">text.mjs</text></a></g></g></svg>