<svg xmlns="http://www.w3.org/2000/svg" xmlns:xlink="http://www.w3.org/1999/xlink" width="685pt" height="712" viewBox="0 0 685 534"><g class="graph" transform="translate(4 530)"><title>dependency-cruiser output</title><path fill="#fff" d="M-4 4v-534h685.03V4z"/><g class="node"><title>src/graph-utl/add-focus.mjs</title><a xlink:href="https://github.com/sverweij/dependency-cruiser/blob/main/src/graph-utl/add-focus.mjs" xlink:title="add-focus.mjs">
<path fill="#fcc" stroke="#000" d="M136.42-130.06H77c-4.33 0-8.67 4.33-8.67 8.66v8.67c0 4.33 4.34 8.67 8.67 8.67h59.42c4.33 0 8.66-4.34 8.66-8.67v-8.67c0-4.33-4.33-8.66-8.66-8.66"/>
<text xml:space="preserve" x="80.08" y="-118.51" font-family="Helvetica,sans-Serif" font-size="9">src/graph-utl/</text>
<text xml:space="preserve" x="76.33" y="-109.51" font-family="Helvetica,sans-Serif" font-size="9" font-weight="bold">add-focus.mjs</text>
</a></g><g class="node"><title>src/graph-utl/indexed-module-graph.mjs</title><a xlink:href="https://github.com/sverweij/dependency-cruiser/blob/main/src/graph-utl/indexed-module-graph.mjs" xlink:title="indexed-module-graph.mjs">
<path fill="#fcc" stroke="#000" d="M121.33-208.99H8.67c-4.34 0-8.67 4.34-8.67 8.67v8.67c0 4.33 4.33 8.66 8.67 8.66h112.66c4.34 0 8.67-4.33 8.67-8.66v-8.67c0-4.33-4.33-8.67-8.67-8.67"/>
<text xml:space="preserve" x="38.37" y="-197.44" font-family="Helvetica,sans-Serif" font-size="9">src/graph-utl/</text>
<text xml:space="preserve" x="8" y="-188.44" font-family="Helvetica,sans-Serif" font-size="9" font-weight="bold">indexed-module-graph.mjs</text>
</a></g><g class="edge"><title>src/graph-utl/add-focus.mjs-&gt;src/graph-utl/indexed-module-graph.mjs</title><path fill="none" stroke="#700" stroke-opacity=".467" stroke-width="2" d="M81.49-130.45v-43.05"/><path fill="#700" fill-opacity=".467" stroke="#700" stroke-opacity=".467" stroke-width="2" d="m79.39-173.5 2.1-6 2.1 6z"/></g><g class="node"><title>src/graph-utl/match-facade.mjs</title><a xlink:href="https://github.com/sverweij/dependency-cruiser/blob/main/src/graph-utl/match-facade.mjs" xlink:title="match-facade.mjs">
<path fill="#fcc" stroke="#000" d="M196.6-79.37h-75.92c-4.33 0-8.66 4.34-8.66 8.67v8.67c0 4.33 4.33 8.66 8.66 8.66h75.92c4.33 0 8.67-4.33 8.67-8.66v-8.67c0-4.33-4.34-8.67-8.67-8.67"/>
<text xml:space="preserve" x="132.02" y="-67.82" font-family="Helvetica,sans-Serif" font-size="9">src/graph-utl/</text>
<text xml:space="preserve" x="120.02" y="-58.82" font-family="Helvetica,sans-Serif" font-size="9" font-weight="bold">match-facade.mjs</text>
</a></g><g class="edge"><title>src/graph-utl/add-focus.mjs-&gt;src/graph-utl/match-facade.mjs</title><path fill="none" stroke="#700" stroke-opacity=".467" stroke-width="2" d="M128.55-103.74v14.94"/><path fill="#700" fill-opacity=".467" stroke="#700" stroke-opacity=".467" stroke-width="2" d="m130.65-88.8-2.1 6-2.1-6z"/></g><g class="node"><title>src/utl/regex-util.mjs</title><a xlink:href="https://github.com/sverweij/dependency-cruiser/blob/main/src/utl/regex-util.mjs" xlink:title="regex-util.mjs">
<path fill="#ccc" stroke="#000" d="M279.11-105.34h-57.17c-4.33 0-8.66 4.33-8.66 8.67v8.66c0 4.34 4.33 8.67 8.66 8.67h57.17c4.33 0 8.67-4.33 8.67-8.67v-8.66c0-4.34-4.34-8.67-8.67-8.67"/>
<text xml:space="preserve" x="237.4" y="-93.79" font-family="Helvetica,sans-Serif" font-size="9">src/utl/</text>
<text xml:space="preserve" x="221.28" y="-84.79" font-family="Helvetica,sans-Serif" font-size="9" font-weight="bold">regex-util.mjs</text>
</a></g><g class="edge"><title>src/graph-utl/match-facade.mjs-&gt;src/utl/regex-util.mjs</title><path fill="none" stroke="#aaa" stroke-opacity=".467" stroke-width="2" d="M192.75-79.78V-92h11.18"/><path fill="#aaa" fill-opacity=".467" stroke="#aaa" stroke-opacity=".467" stroke-width="2" d="m203.93-94.1 6 2.1-6 2.1z"/></g><g class="node"><title>src/graph-utl/compare.mjs</title><a xlink:href="https://github.com/sverweij/dependency-cruiser/blob/main/src/graph-utl/compare.mjs" xlink:title="compare.mjs">
<path fill="#fcc" stroke="#000" d="M382.95-211.25h-54.92c-4.33 0-8.66 4.33-8.66 8.67v8.66c0 4.34 4.33 8.67 8.66 8.67h54.92c4.33 0 8.67-4.33 8.67-8.67v-8.66c0-4.34-4.34-8.67-8.67-8.67"/>
<text xml:space="preserve" x="328.87" y="-199.7" font-family="Helvetica,sans-Serif" font-size="9">src/graph-utl/</text>
<text xml:space="preserve" x="327.37" y="-190.7" font-family="Helvetica,sans-Serif" font-size="9" font-weight="bold">compare.mjs</text>
</a></g><g class="node"><title>src/graph-utl/consolidate-module-dependencies.mjs</title><a xlink:href="https://github.com/sverweij/dependency-cruiser/blob/main/src/graph-utl/consolidate-module-dependencies.mjs" xlink:title="consolidate-module-dependencies.mjs">
<path fill="#fcc" stroke="#000" d="M433.62-139.37H269.96c-4.34 0-8.67 4.33-8.67 8.67v8.66c0 4.34 4.33 8.67 8.67 8.67h163.66c4.34 0 8.67-4.33 8.67-8.67v-8.66c0-4.34-4.33-8.67-8.67-8.67"/>
<text xml:space="preserve" x="325.16" y="-127.82" font-family="Helvetica,sans-Serif" font-size="9">src/graph-utl/</text>
<text xml:space="preserve" x="269.29" y="-118.82" font-family="Helvetica,sans-Serif" font-size="9" font-weight="bold">consolidate-module-dependencies.mjs</text>
</a></g><g class="edge"><title>src/graph-utl/consolidate-module-dependencies.mjs-&gt;src/graph-utl/compare.mjs</title><path fill="none" stroke="#700" stroke-opacity=".467" stroke-width="2" d="M355.49-139.55v-36.57"/><path fill="#700" fill-opacity=".467" stroke="#700" stroke-opacity=".467" stroke-width="2" d="m353.39-176.12 2.1-6 2.1 6z"/></g><g class="node"><title>src/utl/array-util.mjs</title><a xlink:href="https://github.com/sverweij/dependency-cruiser/blob/main/src/utl/array-util.mjs" xlink:title="utl-module-not-shared-enough">
<path fill="#ccc" stroke="#00f" d="M244.56-155.43h-55.67c-4.33 0-8.66 4.33-8.66 8.67v8.66c0 4.34 4.33 8.67 8.66 8.67h55.67c4.33 0 8.67-4.33 8.67-8.67v-8.66c0-4.34-4.34-8.67-8.67-8.67"/>
<text xml:space="preserve" x="203.6" y="-143.88" fill="#00f" font-family="Helvetica,sans-Serif" font-size="9">src/utl/</text>
<text xml:space="preserve" x="188.23" y="-134.88" fill="#00f" font-family="Helvetica,sans-Serif" font-size="9" font-weight="bold">array-util.mjs</text>
</a></g><g class="edge"><title>src/graph-utl/consolidate-module-dependencies.mjs-&gt;src/utl/array-util.mjs</title><path fill="none" stroke="#aaa" stroke-opacity=".467" stroke-width="2" d="M260.95-134h-.73"/><path fill="#aaa" fill-opacity=".467" stroke="#aaa" stroke-opacity=".467" stroke-width="2" d="m262.69-131.9-6-2.1 6-2.1z"/></g><g class="node"><title>src/graph-utl/consolidate-modules.mjs</title><a xlink:href="https://github.com/sverweij/dependency-cruiser/blob/main/src/graph-utl/consolidate-modules.mjs" xlink:title="consolidate-modules.mjs">
<path fill="#fcc" stroke="#000" d="M547.25-65.88H441.33c-4.33 0-8.66 4.33-8.66 8.66v8.67c0 4.33 4.33 8.67 8.66 8.67h105.92c4.33 0 8.67-4.34 8.67-8.67v-8.67c0-4.33-4.34-8.66-8.67-8.66"/>
<text xml:space="preserve" x="467.67" y="-54.33" font-family="Helvetica,sans-Serif" font-size="9">src/graph-utl/</text>
<text xml:space="preserve" x="440.67" y="-45.33" font-family="Helvetica,sans-Serif" font-size="9" font-weight="bold">consolidate-modules.mjs</text>
</a></g><g class="edge"><title>src/graph-utl/consolidate-modules.mjs-&gt;src/graph-utl/compare.mjs</title><path fill="none" stroke="#700" stroke-opacity=".467" stroke-width="2" d="M447.24-66.38V-202h-46.2"/><path fill="#700" fill-opacity=".467" stroke="#700" stroke-opacity=".467" stroke-width="2" d="m401.04-199.9-6-2.1 6-2.1z"/></g><g class="edge"><title>src/graph-utl/consolidate-modules.mjs-&gt;src/utl/array-util.mjs</title><path fill="none" stroke="#aaa" stroke-opacity=".467" stroke-width="2" d="M444.76-66.12V-151H262.65"/><path fill="#aaa" fill-opacity=".467" stroke="#aaa" stroke-opacity=".467" stroke-width="2" d="m262.65-148.9-6-2.1 6-2.1z"/></g><g class="node"><title>src/graph-utl/consolidate-to-folder.mjs</title><a xlink:href="https://github.com/sverweij/dependency-cruiser/blob/main/src/graph-utl/consolidate-to-folder.mjs" xlink:title="consolidate-to-folder.mjs">
<path fill="#fcc" stroke="#000" d="M563.48-168.28H459.06c-4.33 0-8.67 4.33-8.67 8.67v8.66c0 4.34 4.34 8.67 8.67 8.67h104.42c4.33 0 8.66-4.33 8.66-8.67v-8.66c0-4.34-4.33-8.67-8.66-8.67"/>
<text xml:space="preserve" x="484.64" y="-156.73" font-family="Helvetica,sans-Serif" font-size="9">src/graph-utl/</text>
<text xml:space="preserve" x="458.39" y="-147.73" font-family="Helvetica,sans-Serif" font-size="9" font-weight="bold">consolidate-to-folder.mjs</text>
</a></g><g class="edge"><title>src/graph-utl/consolidate-to-folder.mjs-&gt;src/graph-utl/consolidate-module-dependencies.mjs</title><path fill="none" stroke="#700" stroke-opacity=".467" stroke-width="2" d="M449.93-147h-32.18v.74"/><path fill="#700" fill-opacity=".467" stroke="#700" stroke-opacity=".467" stroke-width="2" d="m419.85-148.58-2.1 6-2.1-6z"/></g><g class="edge"><title>src/graph-utl/consolidate-to-folder.mjs-&gt;src/graph-utl/consolidate-modules.mjs</title><path fill="none" stroke="#700" stroke-opacity=".467" stroke-width="2" d="M503.15-141.89v66.59"/><path fill="#700" fill-opacity=".467" stroke="#700" stroke-opacity=".467" stroke-width="2" d="m505.25-75.3-2.1 6-2.1-6z"/></g><g class="node"><title>src/graph-utl/consolidate-to-pattern.mjs</title><a xlink:href="https://github.com/sverweij/dependency-cruiser/blob/main/src/graph-utl/consolidate-to-pattern.mjs" xlink:title="consolidate-to-pattern.mjs">
<path fill="#fcc" stroke="#000" d="M415.72-86.56H304.55c-4.33 0-8.66 4.33-8.66 8.66v8.67c0 4.33 4.33 8.67 8.66 8.67h111.17c4.33 0 8.67-4.34 8.67-8.67v-8.67c0-4.33-4.34-8.66-8.67-8.66"/>
<text xml:space="preserve" x="333.51" y="-75.01" font-family="Helvetica,sans-Serif" font-size="9">src/graph-utl/</text>
<text xml:space="preserve" x="303.89" y="-66.01" font-family="Helvetica,sans-Serif" font-size="9" font-weight="bold">consolidate-to-pattern.mjs</text>
</a></g><g class="edge"><title>src/graph-utl/consolidate-to-pattern.mjs-&gt;src/graph-utl/consolidate-module-dependencies.mjs</title><path fill="none" stroke="#700" stroke-opacity=".467" stroke-width="2" d="M381.55-86.89v-17.31"/><path fill="#700" fill-opacity=".467" stroke="#700" stroke-opacity=".467" stroke-width="2" d="m379.45-104.2 2.1-6 2.1 6z"/></g><g class="edge"><title>src/graph-utl/consolidate-to-pattern.mjs-&gt;src/graph-utl/consolidate-modules.mjs</title><path fill="none" stroke="#700" stroke-opacity=".467" stroke-width="2" d="M424.71-76h12.77v.97"/><path fill="#700" fill-opacity=".467" stroke="#700" stroke-opacity=".467" stroke-width="2" d="m439.58-75.36-2.1 6-2.1-6z"/></g><g class="edge"><title>src/graph-utl/consolidate-to-pattern.mjs-&gt;src/utl/regex-util.mjs</title><path fill="none" stroke="#aaa" stroke-opacity=".467" stroke-width="2" d="M295.43-83h-.75"/><path fill="#aaa" fill-opacity=".467" stroke="#aaa" stroke-opacity=".467" stroke-width="2" d="m297.05-80.9-6-2.1 6-2.1z"/></g><g class="node"><title>src/graph-utl/filter-bank.mjs</title><a xlink:href="https://github.com/sverweij/dependency-cruiser/blob/main/src/graph-utl/filter-bank.mjs" xlink:title="filter-bank.mjs">
<path fill="#fcc" stroke="#000" d="M163.49-174.98h-60.17c-4.33 0-8.66 4.34-8.66 8.67v8.67c0 4.33 4.33 8.66 8.66 8.66h60.17c4.33 0 8.67-4.33 8.67-8.66v-8.67c0-4.33-4.34-8.67-8.67-8.67"/>
<text xml:space="preserve" x="106.78" y="-163.43" font-family="Helvetica,sans-Serif" font-size="9">src/graph-utl/</text>
<text xml:space="preserve" x="102.66" y="-154.43" font-family="Helvetica,sans-Serif" font-size="9" font-weight="bold">filter-bank.mjs</text>
</a></g><g class="edge"><title>src/graph-utl/filter-bank.mjs-&gt;src/graph-utl/add-focus.mjs</title><path fill="none" stroke="#700" stroke-opacity=".467" stroke-width="2" d="M119.87-148.74v9.36"/><path fill="#700" fill-opacity=".467" stroke="#700" stroke-opacity=".467" stroke-width="2" d="m121.97-139.38-2.1 6-2.1-6z"/></g><g class="edge"><title>src/graph-utl/filter-bank.mjs-&gt;src/graph-utl/indexed-module-graph.mjs</title><path fill="none" stroke="#700" stroke-opacity=".467" stroke-width="2" d="M112.33-175.42v-.72"/><path fill="#700" fill-opacity=".467" stroke="#700" stroke-opacity=".467" stroke-width="2" d="m110.23-173.61 2.1-6 2.1 6z"/></g><g class="edge"><title>src/graph-utl/filter-bank.mjs-&gt;src/graph-utl/match-facade.mjs</title><path fill="none" stroke="#700" stroke-opacity=".467" stroke-width="2" d="M158.62-148.68v59.8"/><path fill="#700" fill-opacity=".467" stroke="#700" stroke-opacity=".467" stroke-width="2" d="m160.72-88.88-2.1 6-2.1-6z"/></g><g class="node"><title>src/graph-utl/rule-set.mjs</title><a xlink:href="https://github.com/sverweij/dependency-cruiser/blob/main/src/graph-utl/rule-set.mjs" xlink:title="rule-set.mjs">
<path fill="#fcc" stroke="#000" d="M242.54-452.29h-51.91c-4.34 0-8.67 4.33-8.67 8.67v8.66c0 4.34 4.33 8.67 8.67 8.67h51.91c4.34 0 8.67-4.33 8.67-8.67v-8.66c0-4.34-4.33-8.67-8.67-8.67"/>
<text xml:space="preserve" x="189.96" y="-440.74" font-family="Helvetica,sans-Serif" font-size="9">src/graph-utl/</text>
<text xml:space="preserve" x="191.08" y="-431.74" font-family="Helvetica,sans-Serif" font-size="9" font-weight="bold">rule-set.mjs</text>
</a></g><g class="node"><title>src/graph-utl/strip-self-transitions.mjs</title><a xlink:href="https://github.com/sverweij/dependency-cruiser/blob/main/src/graph-utl/strip-self-transitions.mjs" xlink:title="strip-self-transitions.mjs">
<path fill="#fcc" stroke="#000" d="M374.81-276.22H271.14c-4.33 0-8.66 4.33-8.66 8.66v8.67c0 4.33 4.33 8.67 8.66 8.67h103.67c4.33 0 8.67-4.34 8.67-8.67v-8.67c0-4.33-4.34-8.66-8.67-8.66"/>
<text xml:space="preserve" x="296.35" y="-264.67" font-family="Helvetica,sans-Serif" font-size="9">src/graph-utl/</text>
<text xml:space="preserve" x="270.48" y="-255.67" font-family="Helvetica,sans-Serif" font-size="9" font-weight="bold">strip-self-transitions.mjs</text>
</a></g><g class="node"><title>src/report/anon</title><a xlink:href="https://github.com/sverweij/dependency-cruiser/blob/main/src/report/anon" xlink:title="anon">
<path fill="#fcf" stroke="#000" d="M156.92-446h-53.61l-2.89 2.89V-420h53.61l2.89-2.89z"/>
<path fill="none" stroke="#000" d="M154.03-443.11h-53.61"/>
<path fill="none" stroke="#000" d="M154.03-443.11V-420"/>
<path fill="none" stroke="#000" d="m154.03-443.11 2.89-2.89"/>
<text xml:space="preserve" x="108.42" y="-434.45" font-family="Helvetica,sans-Serif" font-size="9">src/report/</text>
<text xml:space="preserve" x="118.17" y="-425.45" font-family="Helvetica,sans-Serif" font-size="9" font-weight="bold">anon</text>
</a></g><g class="edge"><title>src/report/anon-&gt;src/report/anon</title><path fill="none" stroke="#f0f" stroke-opacity=".467" stroke-width="2" d="M128.67-446.2V-472h39.02v62h-39.02v-.96"/><path fill="#f0f" fill-opacity=".467" stroke="#f0f" stroke-opacity=".467" stroke-width="2" d="m126.57-410.59 2.1-6 2.1 6z"/></g><g class="node"><title>src/report/azure-devops.mjs</title><a xlink:href="https://github.com/sverweij/dependency-cruiser/blob/main/src/report/azure-devops.mjs" xlink:title="azure-devops.mjs">
<path fill="#fcf" stroke="#000" d="M515.47-390.86H440.3c-4.33 0-8.67 4.33-8.67 8.66v8.67c0 4.33 4.34 8.67 8.67 8.67h75.17c4.33 0 8.66-4.34 8.66-8.67v-8.67c0-4.33-4.33-8.66-8.66-8.66"/>
<text xml:space="preserve" x="457.63" y="-379.31" font-family="Helvetica,sans-Serif" font-size="9">src/report/</text>
<text xml:space="preserve" x="439.63" y="-370.31" font-family="Helvetica,sans-Serif" font-size="9" font-weight="bold">azure-devops.mjs</text>
</a></g><g class="node"><title>src/report/utl</title><a xlink:href="https://github.com/sverweij/dependency-cruiser/blob/main/src/report/utl" xlink:title="utl">
<path fill="#fcf" stroke="#000" d="M407.82-320.7h-53.61l-2.89 2.89v23.11h53.61l2.89-2.89z"/>
<path fill="none" stroke="#000" d="M404.93-317.81h-53.61"/>
<path fill="none" stroke="#000" d="M404.93-317.81v23.11"/>
<path fill="none" stroke="#000" d="m404.93-317.81 2.89-2.89"/>
<text xml:space="preserve" x="359.32" y="-309.15" font-family="Helvetica,sans-Serif" font-size="9">src/report/</text>
<text xml:space="preserve" x="374.32" y="-300.15" font-family="Helvetica,sans-Serif" font-size="9" font-weight="bold">utl</text>
</a></g><g class="edge"><title>src/report/azure-devops.mjs-&gt;src/report/utl</title><path fill="none" stroke="#f0f" stroke-opacity=".467" stroke-width="2" d="M431.14-370h-50.75v40.06"/><path fill="#f0f" fill-opacity=".467" stroke="#f0f" stroke-opacity=".467" stroke-width="2" d="m382.49-329.94-2.1 6-2.1-6z"/></g><g class="node"><title>src/report/baseline.mjs</title><a xlink:href="https://github.com/sverweij/dependency-cruiser/blob/main/src/report/baseline.mjs" xlink:title="no-orphans">
<path fill="#fcf" stroke="red" d="M642-246h-52.66c-4.34 0-8.67 4.33-8.67 8.67v8.66c0 4.34 4.33 8.67 8.67 8.67H642c4.34 0 8.67-4.33 8.67-8.67v-8.66c0-4.34-4.33-8.67-8.67-8.67"/>
<text xml:space="preserve" x="595.42" y="-234.45" fill="red" font-family="Helvetica,sans-Serif" font-size="9">src/report/</text>
<text xml:space="preserve" x="588.67" y="-225.45" fill="red" font-family="Helvetica,sans-Serif" font-size="9" font-weight="bold">baseline.mjs</text>
</a></g><g class="node"><title>src/report/csv.mjs</title><a xlink:href="https://github.com/sverweij/dependency-cruiser/blob/main/src/report/csv.mjs" xlink:title="csv.mjs">
<path fill="#fcf" stroke="#000" d="M441.05-245.31h-39.17c-4.33 0-8.66 4.34-8.66 8.67v8.67c0 4.33 4.33 8.66 8.66 8.66h39.17c4.33 0 8.67-4.33 8.67-8.66v-8.67c0-4.33-4.34-8.67-8.67-8.67"/>
<text xml:space="preserve" x="401.22" y="-233.76" font-family="Helvetica,sans-Serif" font-size="9">src/report/</text>
<text xml:space="preserve" x="404.97" y="-224.76" font-family="Helvetica,sans-Serif" font-size="9" font-weight="bold">csv.mjs</text>
</a></g><g class="edge"><title>src/report/csv.mjs-&gt;src/report/utl</title><path fill="none" stroke="#f0f" stroke-opacity=".467" stroke-width="2" d="M398.08-245.79v-39.52"/><path fill="#f0f" fill-opacity=".467" stroke="#f0f" stroke-opacity=".467" stroke-width="2" d="m395.98-285.31 2.1-6 2.1 6z"/></g><g class="node"><title>src/report/d2.mjs</title><a xlink:href="https://github.com/sverweij/dependency-cruiser/blob/main/src/report/d2.mjs" xlink:title="d2.mjs">
<path fill="#fcf" stroke="#000" d="M502.31-303.81h-39.16c-4.34 0-8.67 4.34-8.67 8.67v8.67c0 4.33 4.33 8.66 8.67 8.66h39.16c4.34 0 8.67-4.33 8.67-8.66v-8.67c0-4.33-4.33-8.67-8.67-8.67"/>
<text xml:space="preserve" x="462.48" y="-292.26" font-family="Helvetica,sans-Serif" font-size="9">src/report/</text>
<text xml:space="preserve" x="468.48" y="-283.26" font-family="Helvetica,sans-Serif" font-size="9" font-weight="bold">d2.mjs</text>
</a></g><g class="edge"><title>src/report/d2.mjs-&gt;src/report/utl</title><path fill="none" stroke="#f0f" stroke-opacity=".467" stroke-width="2" d="M453.99-299h-36.81"/><path fill="#f0f" fill-opacity=".467" stroke="#f0f" stroke-opacity=".467" stroke-width="2" d="m417.18-296.9-6-2.1 6-2.1z"/></g><g class="node"><title>src/report/dot</title><a xlink:href="https://github.com/sverweij/dependency-cruiser/blob/main/src/report/dot" xlink:title="dot">
<path fill="#fcf" stroke="#000" d="M303.11-203.15H249.5l-2.89 2.89v23.11h53.61l2.89-2.89z"/>
<path fill="none" stroke="#000" d="M300.22-200.26h-53.61"/>
<path fill="none" stroke="#000" d="M300.22-200.26v23.11"/>
<path fill="none" stroke="#000" d="m300.22-200.26 2.89-2.89"/>
<text xml:space="preserve" x="254.61" y="-191.6" font-family="Helvetica,sans-Serif" font-size="9">src/report/</text>
<text xml:space="preserve" x="268.11" y="-182.6" font-family="Helvetica,sans-Serif" font-size="9" font-weight="bold">dot</text>
</a></g><g class="edge"><title>src/report/dot-&gt;src/graph-utl/compare.mjs</title><path fill="none" stroke="#700" stroke-opacity=".467" stroke-width="2" d="M303.51-194h6.35"/><path fill="#700" fill-opacity=".467" stroke="#700" stroke-opacity=".467" stroke-width="2" d="m309.86-196.1 6 2.1-6 2.1z"/></g><g class="edge"><title>src/report/dot-&gt;src/graph-utl/consolidate-to-folder.mjs</title><path fill="none" stroke="#700" stroke-opacity=".467" stroke-width="2" d="M275.23-176.76V-159h165.92"/><path fill="#700" fill-opacity=".467" stroke="#700" stroke-opacity=".467" stroke-width="2" d="m441.15-161.1 6 2.1-6 2.1z"/></g><g class="edge"><title>src/report/dot-&gt;src/graph-utl/consolidate-to-pattern.mjs</title><path fill="none" stroke="#700" stroke-opacity=".467" stroke-width="2" d="M259.27-176.75V-109h79.45v13.21"/><path fill="#700" fill-opacity=".467" stroke="#700" stroke-opacity=".467" stroke-width="2" d="m340.82-95.79-2.1 6-2.1-6z"/></g><g class="edge"><title>src/report/dot-&gt;src/utl/regex-util.mjs</title><path fill="none" stroke="#aaa" stroke-opacity=".467" stroke-width="2" d="M257.26-176.96v62.3"/><path fill="#aaa" fill-opacity=".467" stroke="#aaa" stroke-opacity=".467" stroke-width="2" d="m259.36-114.66-2.1 6-2.1-6z"/></g><g class="edge"><title>src/report/dot-&gt;src/graph-utl/filter-bank.mjs</title><path fill="none" stroke="#700" stroke-opacity=".467" stroke-width="2" d="M255.24-176.69V-165h-73.59"/><path fill="#700" fill-opacity=".467" stroke="#700" stroke-opacity=".467" stroke-width="2" d="m181.65-162.9-6-2.1 6-2.1z"/></g><g class="edge"><title>src/report/dot-&gt;src/graph-utl/strip-self-transitions.mjs</title><path fill="none" stroke="#700" stroke-opacity=".467" stroke-width="2" d="M272.63-203.55v-37.33"/><path fill="#700" fill-opacity=".467" stroke="#700" stroke-opacity=".467" stroke-width="2" d="m270.54-240.88 2.09-6 2.11 6z"/></g><g class="edge"><title>src/report/dot-&gt;src/report/utl</title><path fill="none" stroke="#f0f" stroke-opacity=".467" stroke-width="2" d="M282.79-203.45V-237h104.76v-48.38"/><path fill="#f0f" fill-opacity=".467" stroke="#f0f" stroke-opacity=".467" stroke-width="2" d="m385.45-285.38 2.1-6 2.1 6z"/></g><g class="edge"><title>src/report/dot-&gt;src/report/dot</title><path fill="none" stroke="#f0f" stroke-opacity=".467" stroke-width="2" d="M292.95-203.52V-225h18.29v63h-22.07v-5.71"/><path fill="#f0f" fill-opacity=".467" stroke="#f0f" stroke-opacity=".467" stroke-width="2" d="m287.07-167.71 2.1-6 2.1 6z"/></g><g class="node"><title>src/utl/object-util.mjs</title><a xlink:href="https://github.com/sverweij/dependency-cruiser/blob/main/src/utl/object-util.mjs" xlink:title="utl-module-not-shared-enough">
<path fill="#ccc" stroke="#00f" d="M245.79-304.77h-58.67c-4.33 0-8.67 4.34-8.67 8.67v8.67c0 4.33 4.34 8.66 8.67 8.66h58.67c4.33 0 8.66-4.33 8.66-8.66v-8.67c0-4.33-4.33-8.67-8.66-8.67"/>
<text xml:space="preserve" x="203.33" y="-293.22" fill="#00f" font-family="Helvetica,sans-Serif" font-size="9">src/utl/</text>
<text xml:space="preserve" x="186.45" y="-284.22" fill="#00f" font-family="Helvetica,sans-Serif" font-size="9" font-weight="bold">object-util.mjs</text>
</a></g><g class="edge"><title>src/report/dot-&gt;src/utl/object-util.mjs</title><path fill="none" stroke="#aaa" stroke-opacity=".467" stroke-width="2" d="M251.84-203.43v-66.02"/><path fill="#aaa" fill-opacity=".467" stroke="#aaa" stroke-opacity=".467" stroke-width="2" d="m249.74-269.45 2.1-6 2.1 6z"/></g><g class="node"><title>src/report/dot-webpage</title><a xlink:href="https://github.com/sverweij/dependency-cruiser/blob/main/src/report/dot-webpage" xlink:title="dot-webpage">
<path fill="#fcf" stroke="#000" d="M200.52-243h-67.86l-2.89 2.89V-217h67.86l2.89-2.89z"/>
<path fill="none" stroke="#000" d="M197.63-240.11h-67.86"/>
<path fill="none" stroke="#000" d="M197.63-240.11V-217"/>
<path fill="none" stroke="#000" d="m197.63-240.11 2.89-2.89"/>
<text xml:space="preserve" x="144.9" y="-231.45" font-family="Helvetica,sans-Serif" font-size="9">src/report/</text>
<text xml:space="preserve" x="137.77" y="-222.45" font-family="Helvetica,sans-Serif" font-size="9" font-weight="bold">dot-webpage</text>
</a></g><g class="edge"><title>src/report/dot-webpage-&gt;src/report/dot</title><path fill="none" stroke="#f0f" stroke-opacity=".467" stroke-width="2" d="M200.8-231h48.42v18.45"/><path fill="#f0f" fill-opacity=".467" stroke="#f0f" stroke-opacity=".467" stroke-width="2" d="m251.32-212.55-2.1 6-2.1-6z"/></g><g class="edge"><title>src/report/dot-webpage-&gt;src/report/dot-webpage</title><path fill="none" stroke="#f0f" stroke-opacity=".467" stroke-width="2" d="M189.49-243.42V-263h34.08v70h-33.2v-14.62"/><path fill="#f0f" fill-opacity=".467" stroke="#f0f" stroke-opacity=".467" stroke-width="2" d="m188.27-207.62 2.1-6 2.1 6z"/></g><g class="node"><title>src/report/error-html</title><a xlink:href="https://github.com/sverweij/dependency-cruiser/blob/main/src/report/error-html" xlink:title="error-html">
<path fill="#fcf" stroke="#000" d="M517.36-236.2h-56.61l-2.89 2.88v23.12h56.61l2.89-2.89z"/>
<path fill="none" stroke="#000" d="M514.47-233.32h-56.61"/>
<path fill="none" stroke="#000" d="M514.47-233.32v23.12"/>
<path fill="none" stroke="#000" d="m514.47-233.32 2.89-2.88"/>
<text xml:space="preserve" x="467.36" y="-224.65" font-family="Helvetica,sans-Serif" font-size="9">src/report/</text>
<text xml:space="preserve" x="465.86" y="-215.65" font-family="Helvetica,sans-Serif" font-size="9" font-weight="bold">error-html</text>
</a></g><g class="edge"><title>src/report/error-html-&gt;src/report/utl</title><path fill="none" stroke="#f0f" stroke-opacity=".467" stroke-width="2" d="M475.57-236.68V-263h-72.62v-22.51"/><path fill="#f0f" fill-opacity=".467" stroke="#f0f" stroke-opacity=".467" stroke-width="2" d="m400.85-285.5 2.1-6.01 2.1 6z"/></g><g class="edge"><title>src/report/error-html-&gt;src/report/error-html</title><path fill="none" stroke="#f0f" stroke-opacity=".467" stroke-width="2" d="M493.27-236.51V-241h44.5v47h-50.16v-6.94"/><path fill="#f0f" fill-opacity=".467" stroke="#f0f" stroke-opacity=".467" stroke-width="2" d="m485.51-200.94 2.1-6 2.1 6z"/></g><g class="node"><title>src/report/error-long.mjs</title><a xlink:href="https://github.com/sverweij/dependency-cruiser/blob/main/src/report/error-long.mjs" xlink:title="error-long.mjs">
<path fill="#fcf" stroke="#000" d="M247.62-356.89H188.2c-4.33 0-8.66 4.33-8.66 8.66v8.67c0 4.33 4.33 8.67 8.66 8.67h59.42c4.33 0 8.67-4.34 8.67-8.67v-8.67c0-4.33-4.34-8.66-8.67-8.66"/>
<text xml:space="preserve" x="197.66" y="-345.34" font-family="Helvetica,sans-Serif" font-size="9">src/report/</text>
<text xml:space="preserve" x="187.54" y="-336.34" font-family="Helvetica,sans-Serif" font-size="9" font-weight="bold">error-long.mjs</text>
</a></g><g class="node"><title>src/report/error.mjs</title><a xlink:href="https://github.com/sverweij/dependency-cruiser/blob/main/src/report/error.mjs" xlink:title="error.mjs">
<path fill="#fcf" stroke="#000" d="M320.39-400.11h-39.17c-4.33 0-8.67 4.33-8.67 8.66v8.67c0 4.33 4.34 8.67 8.67 8.67h39.17c4.33 0 8.66-4.34 8.66-8.67v-8.67c0-4.33-4.33-8.66-8.66-8.66"/>
<text xml:space="preserve" x="280.55" y="-388.56" font-family="Helvetica,sans-Serif" font-size="9">src/report/</text>
<text xml:space="preserve" x="281.3" y="-379.56" font-family="Helvetica,sans-Serif" font-size="9" font-weight="bold">error.mjs</text>
</a></g><g class="edge"><title>src/report/error-long.mjs-&gt;src/report/error.mjs</title><path fill="none" stroke="#f0f" stroke-opacity=".467" stroke-width="2" d="M256.52-351h20.77v-13.64"/><path fill="#f0f" fill-opacity=".467" stroke="#f0f" stroke-opacity=".467" stroke-width="2" d="m275.19-364.64 2.1-6 2.1 6z"/></g><g class="edge"><title>src/report/error.mjs-&gt;src/graph-utl/rule-set.mjs</title><path fill="none" stroke="#700" stroke-opacity=".467" stroke-width="2" d="M291.39-400.14V-433h-31.01"/><path fill="#700" fill-opacity=".467" stroke="#700" stroke-opacity=".467" stroke-width="2" d="m260.38-430.9-6-2.1 6-2.1z"/></g><g class="edge"><title>src/report/error.mjs-&gt;src/report/utl</title><path fill="none" stroke="#f0f" stroke-opacity=".467" stroke-width="2" d="M282.02-373.86V-309h59.78"/><path fill="#f0f" fill-opacity=".467" stroke="#f0f" stroke-opacity=".467" stroke-width="2" d="m341.8-311.1 6 2.1-6 2.1z"/></g><g class="node"><title>src/utl/wrap-and-indent.mjs</title><a xlink:href="https://github.com/sverweij/dependency-cruiser/blob/main/src/utl/wrap-and-indent.mjs" xlink:title="utl-module-not-shared-enough">
<path fill="#ccc" stroke="#00f" d="M353.56-484.71H267.9c-4.34 0-8.67 4.33-8.67 8.67v8.66c0 4.34 4.33 8.67 8.67 8.67h85.66c4.34 0 8.67-4.33 8.67-8.67v-8.66c0-4.34-4.33-8.67-8.67-8.67"/>
<text xml:space="preserve" x="297.6" y="-473.16" fill="#00f" font-family="Helvetica,sans-Serif" font-size="9">src/utl/</text>
<text xml:space="preserve" x="267.23" y="-464.16" fill="#00f" font-family="Helvetica,sans-Serif" font-size="9" font-weight="bold">wrap-and-indent.mjs</text>
</a></g><g class="edge"><title>src/report/error.mjs-&gt;src/utl/wrap-and-indent.mjs</title><path fill="none" stroke="#aaa" stroke-opacity=".467" stroke-width="2" d="M310.22-400.33v-48.95"/><path fill="#aaa" fill-opacity=".467" stroke="#aaa" stroke-opacity=".467" stroke-width="2" d="m308.12-449.28 2.1-6 2.1 6z"/></g><g class="node"><title>src/report/html</title><a xlink:href="https://github.com/sverweij/dependency-cruiser/blob/main/src/report/html" xlink:title="html">
<path fill="#fcf" stroke="#000" d="M343.26-344.05h-53.61l-2.89 2.89v23.11h53.61l2.89-2.89z"/>
<path fill="none" stroke="#000" d="M340.37-341.16h-53.61"/>
<path fill="none" stroke="#000" d="M340.37-341.16v23.11"/>
<path fill="none" stroke="#000" d="m340.37-341.16 2.89-2.89"/>
<text xml:space="preserve" x="294.76" y="-332.5" font-family="Helvetica,sans-Serif" font-size="9">src/report/</text>
<text xml:space="preserve" x="305.64" y="-323.5" font-family="Helvetica,sans-Serif" font-size="9" font-weight="bold">html</text>
</a></g><g class="edge"><title>src/report/html-&gt;src/report/utl</title><path fill="none" stroke="#f0f" stroke-opacity=".467" stroke-width="2" d="M343.62-325h17.39v.4"/><path fill="#f0f" fill-opacity=".467" stroke="#f0f" stroke-opacity=".467" stroke-width="2" d="m363.11-330.02-2.1 6-2.1-6z"/></g><g class="edge"><title>src/report/html-&gt;src/report/html</title><path fill="none" stroke="#f0f" stroke-opacity=".467" stroke-width="2" d="M334.66-344.41V-348h12.63v34h-32.28v-.36"/><path fill="#f0f" fill-opacity=".467" stroke="#f0f" stroke-opacity=".467" stroke-width="2" d="m312.91-308.59 2.1-6 2.1 6z"/></g><g class="node"><title>src/report/identity.mjs</title><a xlink:href="https://github.com/sverweij/dependency-cruiser/blob/main/src/report/identity.mjs" xlink:title="identity.mjs">
<path fill="#fcf" stroke="#000" d="M236.38-526h-47.42c-4.33 0-8.66 4.33-8.66 8.67v8.66c0 4.34 4.33 8.67 8.66 8.67h47.42c4.33 0 8.67-4.33 8.67-8.67v-8.66c0-4.34-4.34-8.67-8.67-8.67"/>
<text xml:space="preserve" x="192.42" y="-514.45" font-family="Helvetica,sans-Serif" font-size="9">src/report/</text>
<text xml:space="preserve" x="188.3" y="-505.45" font-family="Helvetica,sans-Serif" font-size="9" font-weight="bold">identity.mjs</text>
</a></g><g class="node"><title>src/report/index.mjs</title><a xlink:href="https://github.com/sverweij/dependency-cruiser/blob/main/src/report/index.mjs" xlink:title="index.mjs">
<path fill="#fcf" stroke="#000" d="M549.51-343.83h-39.92c-4.33 0-8.67 4.34-8.67 8.67v8.67c0 4.33 4.34 8.66 8.67 8.66h39.92c4.33 0 8.66-4.33 8.66-8.66v-8.67c0-4.33-4.33-8.67-8.66-8.67"/>
<text xml:space="preserve" x="509.3" y="-332.28" font-family="Helvetica,sans-Serif" font-size="9">src/report/</text>
<text xml:space="preserve" x="508.92" y="-323.28" font-family="Helvetica,sans-Serif" font-size="9" font-weight="bold">index.mjs</text>
</a></g><g class="node"><title>src/report/plugins.mjs</title><a xlink:href="https://github.com/sverweij/dependency-cruiser/blob/main/src/report/plugins.mjs" xlink:title="plugins.mjs">
<path fill="#fcf" stroke="#000" d="M668.36-326.63h-47.42c-4.33 0-8.66 4.33-8.66 8.67v8.66c0 4.34 4.33 8.67 8.66 8.67h47.42c4.33 0 8.67-4.33 8.67-8.67v-8.66c0-4.34-4.34-8.67-8.67-8.67"/>
<text xml:space="preserve" x="624.4" y="-315.08" font-family="Helvetica,sans-Serif" font-size="9">src/report/</text>
<text xml:space="preserve" x="620.28" y="-306.08" font-family="Helvetica,sans-Serif" font-size="9" font-weight="bold">plugins.mjs</text>
</a></g><g class="edge"><title>src/report/index.mjs-&gt;src/report/plugins.mjs</title><path fill="none" stroke="#f0f" stroke-opacity=".467" stroke-width="2" d="M558.59-322h44.34"/><path fill="#f0f" fill-opacity=".467" stroke="#f0f" stroke-opacity=".467" stroke-width="2" d="m602.93-324.1 6 2.1-6 2.1z"/></g><g class="node"><title>src/report/json.mjs</title><a xlink:href="https://github.com/sverweij/dependency-cruiser/blob/main/src/report/json.mjs" xlink:title="json.mjs">
<path fill="#fcf" stroke="#000" d="M148.25-366h-39.16c-4.34 0-8.67 4.33-8.67 8.67v8.66c0 4.34 4.33 8.67 8.67 8.67h39.16c4.34 0 8.67-4.33 8.67-8.67v-8.66c0-4.34-4.33-8.67-8.67-8.67"/>
<text xml:space="preserve" x="108.42" y="-354.45" font-family="Helvetica,sans-Serif" font-size="9">src/report/</text>
<text xml:space="preserve" x="110.67" y="-345.45" font-family="Helvetica,sans-Serif" font-size="9" font-weight="bold">json.mjs</text>
</a></g><g class="node"><title>src/report/markdown.mjs</title><a xlink:href="https://github.com/sverweij/dependency-cruiser/blob/main/src/report/markdown.mjs" xlink:title="markdown.mjs">
<path fill="#fcf" stroke="#000" d="M650.49-176.38h-61.67c-4.33 0-8.66 4.33-8.66 8.66v8.67c0 4.33 4.33 8.67 8.66 8.67h61.67c4.33 0 8.67-4.34 8.67-8.67v-8.67c0-4.33-4.34-8.66-8.67-8.66"/>
<text xml:space="preserve" x="599.41" y="-164.83" font-family="Helvetica,sans-Serif" font-size="9">src/report/</text>
<text xml:space="preserve" x="588.16" y="-155.83" font-family="Helvetica,sans-Serif" font-size="9" font-weight="bold">markdown.mjs</text>
</a></g><g class="edge"><title>src/report/markdown.mjs-&gt;src/report/error-html</title><path fill="none" stroke="#f0f" stroke-opacity=".467" stroke-width="2" d="M615.67-176.68V-215h-89.01"/><path fill="#f0f" fill-opacity=".467" stroke="#f0f" stroke-opacity=".467" stroke-width="2" d="m526.66-212.9-6-2.1 6-2.1z"/></g><g class="node"><title>src/report/mermaid.mjs</title><a xlink:href="https://github.com/sverweij/dependency-cruiser/blob/main/src/report/mermaid.mjs" xlink:title="no-orphans">
<path fill="#fcf" stroke="red" d="M584.13-466h-54.92c-4.33 0-8.66 4.33-8.66 8.67v8.66c0 4.34 4.33 8.67 8.66 8.67h54.92c4.33 0 8.67-4.33 8.67-8.67v-8.66c0-4.34-4.34-8.67-8.67-8.67"/>
<text xml:space="preserve" x="536.42" y="-454.45" fill="red" font-family="Helvetica,sans-Serif" font-size="9">src/report/</text>
<text xml:space="preserve" x="528.55" y="-445.45" fill="red" font-family="Helvetica,sans-Serif" font-size="9" font-weight="bold">mermaid.mjs</text>
</a></g><g class="node"><title>src/report/metrics.mjs</title><a xlink:href="https://github.com/sverweij/dependency-cruiser/blob/main/src/report/metrics.mjs" xlink:title="metrics.mjs">
<path fill="#fcf" stroke="#000" d="M448.41-354.73h-49.66c-4.34 0-8.67 4.34-8.67 8.67v8.67c0 4.33 4.33 8.66 8.67 8.66h49.66c4.34 0 8.67-4.33 8.67-8.66v-8.67c0-4.33-4.33-8.67-8.67-8.67"/>
<text xml:space="preserve" x="403.33" y="-343.18" font-family="Helvetica,sans-Serif" font-size="9">src/report/</text>
<text xml:space="preserve" x="398.08" y="-334.18" font-family="Helvetica,sans-Serif" font-size="9" font-weight="bold">metrics.mjs</text>
</a></g><g class="edge"><title>src/report/metrics.mjs-&gt;src/report/utl</title><path fill="none" stroke="#f0f" stroke-opacity=".467" stroke-width="2" d="M398.95-328.28v.72"/><path fill="#f0f" fill-opacity=".467" stroke="#f0f" stroke-opacity=".467" stroke-width="2" d="m401.05-330.08-2.1 6-2.1-6z"/></g><g class="node"><title>src/report/null.mjs</title><a xlink:href="https://github.com/sverweij/dependency-cruiser/blob/main/src/report/null.mjs" xlink:title="null.mjs">
<path fill="#fcf" stroke="#000" d="M388.25-26h-39.16c-4.34 0-8.67 4.33-8.67 8.67v8.66c0 4.34 4.33 8.67 8.67 8.67h39.16c4.34 0 8.67-4.33 8.67-8.67v-8.66c0-4.34-4.33-8.67-8.67-8.67"/>
<text xml:space="preserve" x="348.42" y="-14.45" font-family="Helvetica,sans-Serif" font-size="9">src/report/</text>
<text xml:space="preserve" x="352.17" y="-5.45" font-family="Helvetica,sans-Serif" font-size="9" font-weight="bold">null.mjs</text>
</a></g><g class="node"><title>src/report/teamcity.mjs</title><a xlink:href="https://github.com/sverweij/dependency-cruiser/blob/main/src/report/teamcity.mjs" xlink:title="teamcity.mjs">
<path fill="#fcf" stroke="#000" d="M402.36-400.68h-53.42c-4.33 0-8.67 4.33-8.67 8.66v8.67c0 4.33 4.34 8.67 8.67 8.67h53.42c4.33 0 8.66-4.34 8.66-8.67v-8.67c0-4.33-4.33-8.66-8.66-8.66"/>
<text xml:space="preserve" x="355.4" y="-389.13" font-family="Helvetica,sans-Serif" font-size="9">src/report/</text>
<text xml:space="preserve" x="348.27" y="-380.13" font-family="Helvetica,sans-Serif" font-size="9" font-weight="bold">teamcity.mjs</text>
</a></g><g class="edge"><title>src/report/teamcity.mjs-&gt;src/report/utl</title><path fill="none" stroke="#f0f" stroke-opacity=".467" stroke-width="2" d="M370.7-374.48v44.26"/><path fill="#f0f" fill-opacity=".467" stroke="#f0f" stroke-opacity=".467" stroke-width="2" d="m372.8-330.22-2.1 6-2.1-6z"/></g><g class="node"><title>src/report/teamcity.types.ts</title><a xlink:href="https://github.com/sverweij/dependency-cruiser/blob/main/src/report/teamcity.types.ts" xlink:title="teamcity.types.ts">
<path fill="#fcf" stroke="#000" d="M454.9-475.79h-72.17c-4.33 0-8.66 4.33-8.66 8.66v8.67c0 4.33 4.33 8.67 8.66 8.67h72.17c4.33 0 8.67-4.34 8.67-8.67v-8.67c0-4.33-4.34-8.66-8.67-8.66"/>
<text xml:space="preserve" x="398.57" y="-464.24" font-family="Helvetica,sans-Serif" font-size="9">src/report/</text>
<text xml:space="preserve" x="382.07" y="-455.24" font-family="Helvetica,sans-Serif" font-size="9" font-weight="bold">teamcity.types.ts</text>
</a></g><g class="edge"><title>src/report/teamcity.mjs-&gt;src/report/teamcity.types.ts</title><path fill="none" stroke="#f0f" stroke-opacity=".467" d="M392.55-401.11v-40.86M390.45-441.97l2.1-6 2.1 6z"/></g><g class="node"><title>src/report/text.mjs</title><a xlink:href="https://github.com/sverweij/dependency-cruiser/blob/main/src/report/text.mjs" xlink:title="no-orphans">
<path fill="#fcf" stroke="red" d="M648.25-26h-39.16c-4.34 0-8.67 4.33-8.67 8.67v8.66c0 4.34 4.33 8.67 8.67 8.67h39.16c4.34 0 8.67-4.33 8.67-8.67v-8.66c0-4.34-4.33-8.67-8.67-8.67"/>
<text xml:space="preserve" x="608.42" y="-14.45" fill="red" font-family="Helvetica,sans-Serif" font-size="9">src/report/</text>
<text xml:space="preserve" x="611.42" y="-5.45" fill="red" font-family="Helvetica,sans-Serif" font-size="9" font-weight="bold">text.mjs</text>
</a></g></g></svg>