<?xml version="1.0" encoding="UTF-8" standalone="no"?>
<!DOCTYPE svg PUBLIC "-//W3C//DTD SVG 1.1//EN"
 "http://www.w3.org/Graphics/SVG/1.1/DTD/svg11.dtd">
<!-- Generated by graphviz version 3.0.0 (20220226.1711)
 -->
<!-- Title: dependency&#45;cruiser output Pages: 1 -->
<svg width="667pt" height="644pt"
 viewBox="0.00 0.00 667.00 644.00" xmlns="http://www.w3.org/2000/svg" xmlns:xlink="http://www.w3.org/1999/xlink">
<g id="graph0" class="graph" transform="scale(1 1) rotate(0) translate(4 640)">
<title>dependency&#45;cruiser output</title>
<polygon fill="white" stroke="transparent" points="-4,4 -4,-640 663,-640 663,4 -4,4"/>
<g id="clust1" class="cluster">
<title>cluster_src</title>
<path fill="#ffffff" stroke="black" stroke-width="2" d="M20,-8C20,-8 639,-8 639,-8 645,-8 651,-14 651,-20 651,-20 651,-616 651,-616 651,-622 645,-628 639,-628 639,-628 20,-628 20,-628 14,-628 8,-622 8,-616 8,-616 8,-20 8,-20 8,-14 14,-8 20,-8"/>
<text text-anchor="middle" x="329.5" y="-616.8" font-family="Helvetica,sans-Serif" font-weight="bold" font-size="9.00">src</text>
</g>
<g id="clust2" class="cluster">
<title>cluster_src/graph&#45;utl</title>
<path fill="#ffffff" stroke="black" stroke-width="2" d="M249,-370C249,-370 631,-370 631,-370 637,-370 643,-376 643,-382 643,-382 643,-530 643,-530 643,-536 637,-542 631,-542 631,-542 249,-542 249,-542 243,-542 237,-536 237,-530 237,-530 237,-382 237,-382 237,-376 243,-370 249,-370"/>
<text text-anchor="middle" x="440" y="-530.8" font-family="Helvetica,sans-Serif" font-weight="bold" font-size="9.00">graph&#45;utl</text>
</g>
<g id="clust3" class="cluster">
<title>cluster_src/report</title>
<path fill="#ffffff" stroke="black" stroke-width="2" d="M28,-16C28,-16 325.5,-16 325.5,-16 331.5,-16 337.5,-22 337.5,-28 337.5,-28 337.5,-350 337.5,-350 337.5,-356 331.5,-362 325.5,-362 325.5,-362 28,-362 28,-362 22,-362 16,-356 16,-350 16,-350 16,-28 16,-28 16,-22 22,-16 28,-16"/>
<text text-anchor="middle" x="176.75" y="-350.8" font-family="Helvetica,sans-Serif" font-weight="bold" font-size="9.00">report</text>
</g>
<g id="clust4" class="cluster">
<title>cluster_src/utl</title>
<path fill="#ffffff" stroke="black" stroke-width="2" d="M260,-550C260,-550 345,-550 345,-550 351,-550 357,-556 357,-562 357,-562 357,-590 357,-590 357,-596 351,-602 345,-602 345,-602 260,-602 260,-602 254,-602 248,-596 248,-590 248,-590 248,-562 248,-562 248,-556 254,-550 260,-550"/>
<text text-anchor="start" x="297" y="-590.8" font-family="Helvetica,sans-Serif" font-weight="bold" font-size="9.00">utl</text>
</g>
<!-- src/graph&#45;utl/add&#45;focus.js -->
<g id="node1" class="node">
<title>src/graph&#45;utl/add&#45;focus.js</title>
<g id="a_node1"><a xlink:href="https://github.com/sverweij/dependency-cruiser/blob/develop/src/graph-utl/add-focus.js" xlink:title="add&#45;focus.js">
<path fill="#ffcccc" stroke="black" d="M484,-497C484,-497 430,-497 430,-497 427,-497 424,-494 424,-491 424,-491 424,-485 424,-485 424,-482 427,-479 430,-479 430,-479 484,-479 484,-479 487,-479 490,-482 490,-485 490,-485 490,-491 490,-491 490,-494 487,-497 484,-497"/>
<text text-anchor="start" x="432" y="-485.8" font-family="Helvetica,sans-Serif" font-size="9.00">add&#45;focus.js</text>
</a>
</g>
</g>
<!-- src/graph&#45;utl/match&#45;facade.js -->
<g id="node2" class="node">
<title>src/graph&#45;utl/match&#45;facade.js</title>
<g id="a_node2"><a xlink:href="https://github.com/sverweij/dependency-cruiser/blob/develop/src/graph-utl/match-facade.js" xlink:title="match&#45;facade.js">
<path fill="#ffcccc" stroke="black" d="M629,-486C629,-486 560,-486 560,-486 557,-486 554,-483 554,-480 554,-480 554,-474 554,-474 554,-471 557,-468 560,-468 560,-468 629,-468 629,-468 632,-468 635,-471 635,-474 635,-474 635,-480 635,-480 635,-483 632,-486 629,-486"/>
<text text-anchor="start" x="562" y="-474.8" font-family="Helvetica,sans-Serif" font-size="9.00">match&#45;facade.js</text>
</a>
</g>
</g>
<!-- src/graph&#45;utl/add&#45;focus.js&#45;&gt;src/graph&#45;utl/match&#45;facade.js -->
<g id="edge1" class="edge">
<title>src/graph&#45;utl/add&#45;focus.js&#45;&gt;src/graph&#45;utl/match&#45;facade.js</title>
<path fill="none" stroke="#770000" stroke-width="2" stroke-opacity="0.466667" d="M490.28,-482.5C490.28,-482.5 547.92,-482.5 547.92,-482.5"/>
<polygon fill="#770000" fill-opacity="0.466667" stroke="#770000" stroke-width="2" stroke-opacity="0.466667" points="547.92,-484.6 553.92,-482.5 547.92,-480.4 547.92,-484.6"/>
</g>
<!-- src/graph&#45;utl/compare.js -->
<g id="node3" class="node">
<title>src/graph&#45;utl/compare.js</title>
<g id="a_node3"><a xlink:href="https://github.com/sverweij/dependency-cruiser/blob/develop/src/graph-utl/compare.js" xlink:title="compare.js">
<path fill="#ffcccc" stroke="black" d="M619.5,-396C619.5,-396 569.5,-396 569.5,-396 566.5,-396 563.5,-393 563.5,-390 563.5,-390 563.5,-384 563.5,-384 563.5,-381 566.5,-378 569.5,-378 569.5,-378 619.5,-378 619.5,-378 622.5,-378 625.5,-381 625.5,-384 625.5,-384 625.5,-390 625.5,-390 625.5,-393 622.5,-396 619.5,-396"/>
<text text-anchor="start" x="571.5" y="-384.8" font-family="Helvetica,sans-Serif" font-size="9.00">compare.js</text>
</a>
</g>
</g>
<!-- src/graph&#45;utl/consolidate&#45;module&#45;dependencies.js -->
<g id="node4" class="node">
<title>src/graph&#45;utl/consolidate&#45;module&#45;dependencies.js</title>
<g id="a_node4"><a xlink:href="https://github.com/sverweij/dependency-cruiser/blob/develop/src/graph-utl/consolidate-module-dependencies.js" xlink:title="consolidate&#45;module&#45;dependencies.js">
<path fill="#ffcccc" stroke="black" d="M535,-426C535,-426 379,-426 379,-426 376,-426 373,-423 373,-420 373,-420 373,-414 373,-414 373,-411 376,-408 379,-408 379,-408 535,-408 535,-408 538,-408 541,-411 541,-414 541,-414 541,-420 541,-420 541,-423 538,-426 535,-426"/>
<text text-anchor="start" x="381" y="-414.8" font-family="Helvetica,sans-Serif" font-size="9.00">consolidate&#45;module&#45;dependencies.js</text>
</a>
</g>
</g>
<!-- src/graph&#45;utl/consolidate&#45;module&#45;dependencies.js&#45;&gt;src/graph&#45;utl/compare.js -->
<g id="edge2" class="edge">
<title>src/graph&#45;utl/consolidate&#45;module&#45;dependencies.js&#45;&gt;src/graph&#45;utl/compare.js</title>
<path fill="none" stroke="#770000" stroke-width="2" stroke-opacity="0.466667" d="M527,-407.86C527,-400.03 527,-390 527,-390 527,-390 557.12,-390 557.12,-390"/>
<polygon fill="#770000" fill-opacity="0.466667" stroke="#770000" stroke-width="2" stroke-opacity="0.466667" points="557.12,-392.1 563.12,-390 557.12,-387.9 557.12,-392.1"/>
</g>
<!-- src/graph&#45;utl/consolidate&#45;modules.js -->
<g id="node5" class="node">
<title>src/graph&#45;utl/consolidate&#45;modules.js</title>
<g id="a_node5"><a xlink:href="https://github.com/sverweij/dependency-cruiser/blob/develop/src/graph-utl/consolidate-modules.js" xlink:title="consolidate&#45;modules.js">
<path fill="#ffcccc" stroke="black" d="M506.5,-396C506.5,-396 407.5,-396 407.5,-396 404.5,-396 401.5,-393 401.5,-390 401.5,-390 401.5,-384 401.5,-384 401.5,-381 404.5,-378 407.5,-378 407.5,-378 506.5,-378 506.5,-378 509.5,-378 512.5,-381 512.5,-384 512.5,-384 512.5,-390 512.5,-390 512.5,-393 509.5,-396 506.5,-396"/>
<text text-anchor="start" x="409.5" y="-384.8" font-family="Helvetica,sans-Serif" font-size="9.00">consolidate&#45;modules.js</text>
</a>
</g>
</g>
<!-- src/graph&#45;utl/consolidate&#45;modules.js&#45;&gt;src/graph&#45;utl/compare.js -->
<g id="edge3" class="edge">
<title>src/graph&#45;utl/consolidate&#45;modules.js&#45;&gt;src/graph&#45;utl/compare.js</title>
<path fill="none" stroke="#770000" stroke-width="2" stroke-opacity="0.466667" d="M512.53,-384C512.53,-384 557.28,-384 557.28,-384"/>
<polygon fill="#770000" fill-opacity="0.466667" stroke="#770000" stroke-width="2" stroke-opacity="0.466667" points="557.28,-386.1 563.28,-384 557.28,-381.9 557.28,-386.1"/>
</g>
<!-- src/graph&#45;utl/consolidate&#45;to&#45;folder.js -->
<g id="node6" class="node">
<title>src/graph&#45;utl/consolidate&#45;to&#45;folder.js</title>
<g id="a_node6"><a xlink:href="https://github.com/sverweij/dependency-cruiser/blob/develop/src/graph-utl/consolidate-to-folder.js" xlink:title="consolidate&#45;to&#45;folder.js">
<path fill="#ffcccc" stroke="black" d="M351.5,-396C351.5,-396 253.5,-396 253.5,-396 250.5,-396 247.5,-393 247.5,-390 247.5,-390 247.5,-384 247.5,-384 247.5,-381 250.5,-378 253.5,-378 253.5,-378 351.5,-378 351.5,-378 354.5,-378 357.5,-381 357.5,-384 357.5,-384 357.5,-390 357.5,-390 357.5,-393 354.5,-396 351.5,-396"/>
<text text-anchor="start" x="255.5" y="-384.8" font-family="Helvetica,sans-Serif" font-size="9.00">consolidate&#45;to&#45;folder.js</text>
</a>
</g>
</g>
<!-- src/graph&#45;utl/consolidate&#45;to&#45;folder.js&#45;&gt;src/graph&#45;utl/consolidate&#45;module&#45;dependencies.js -->
<g id="edge4" class="edge">
<title>src/graph&#45;utl/consolidate&#45;to&#45;folder.js&#45;&gt;src/graph&#45;utl/consolidate&#45;module&#45;dependencies.js</title>
<path fill="none" stroke="#770000" stroke-width="2" stroke-opacity="0.466667" d="M357.62,-387C374.16,-387 388,-387 388,-387 388,-387 388,-401.84 388,-401.84"/>
<polygon fill="#770000" fill-opacity="0.466667" stroke="#770000" stroke-width="2" stroke-opacity="0.466667" points="385.9,-401.84 388,-407.84 390.1,-401.84 385.9,-401.84"/>
</g>
<!-- src/graph&#45;utl/consolidate&#45;to&#45;folder.js&#45;&gt;src/graph&#45;utl/consolidate&#45;modules.js -->
<g id="edge5" class="edge">
<title>src/graph&#45;utl/consolidate&#45;to&#45;folder.js&#45;&gt;src/graph&#45;utl/consolidate&#45;modules.js</title>
<path fill="none" stroke="#770000" stroke-width="2" stroke-opacity="0.466667" d="M357.84,-382.5C357.84,-382.5 395.27,-382.5 395.27,-382.5"/>
<polygon fill="#770000" fill-opacity="0.466667" stroke="#770000" stroke-width="2" stroke-opacity="0.466667" points="395.27,-384.6 401.27,-382.5 395.27,-380.4 395.27,-384.6"/>
</g>
<!-- src/graph&#45;utl/consolidate&#45;to&#45;pattern.js -->
<g id="node7" class="node">
<title>src/graph&#45;utl/consolidate&#45;to&#45;pattern.js</title>
<g id="a_node7"><a xlink:href="https://github.com/sverweij/dependency-cruiser/blob/develop/src/graph-utl/consolidate-to-pattern.js" xlink:title="consolidate&#45;to&#45;pattern.js">
<path fill="#ffcccc" stroke="black" d="M354,-456C354,-456 251,-456 251,-456 248,-456 245,-453 245,-450 245,-450 245,-444 245,-444 245,-441 248,-438 251,-438 251,-438 354,-438 354,-438 357,-438 360,-441 360,-444 360,-444 360,-450 360,-450 360,-453 357,-456 354,-456"/>
<text text-anchor="start" x="253" y="-444.8" font-family="Helvetica,sans-Serif" font-size="9.00">consolidate&#45;to&#45;pattern.js</text>
</a>
</g>
</g>
<!-- src/graph&#45;utl/consolidate&#45;to&#45;pattern.js&#45;&gt;src/graph&#45;utl/consolidate&#45;module&#45;dependencies.js -->
<g id="edge6" class="edge">
<title>src/graph&#45;utl/consolidate&#45;to&#45;pattern.js&#45;&gt;src/graph&#45;utl/consolidate&#45;module&#45;dependencies.js</title>
<path fill="none" stroke="#770000" stroke-width="2" stroke-opacity="0.466667" d="M360.03,-450C380.69,-450 399,-450 399,-450 399,-450 399,-432.02 399,-432.02"/>
<polygon fill="#770000" fill-opacity="0.466667" stroke="#770000" stroke-width="2" stroke-opacity="0.466667" points="401.1,-432.02 399,-426.02 396.9,-432.02 401.1,-432.02"/>
</g>
<!-- src/graph&#45;utl/consolidate&#45;to&#45;pattern.js&#45;&gt;src/graph&#45;utl/consolidate&#45;modules.js -->
<g id="edge7" class="edge">
<title>src/graph&#45;utl/consolidate&#45;to&#45;pattern.js&#45;&gt;src/graph&#45;utl/consolidate&#45;modules.js</title>
<path fill="none" stroke="#770000" stroke-width="2" stroke-opacity="0.466667" d="M360.1,-444C364.34,-444 367,-444 367,-444 367,-444 367,-391.5 367,-391.5 367,-391.5 395.28,-391.5 395.28,-391.5"/>
<polygon fill="#770000" fill-opacity="0.466667" stroke="#770000" stroke-width="2" stroke-opacity="0.466667" points="395.28,-393.6 401.28,-391.5 395.28,-389.4 395.28,-393.6"/>
</g>
<!-- src/graph&#45;utl/filterbank.js -->
<g id="node8" class="node">
<title>src/graph&#45;utl/filterbank.js</title>
<g id="a_node8"><a xlink:href="https://github.com/sverweij/dependency-cruiser/blob/develop/src/graph-utl/filterbank.js" xlink:title="filterbank.js">
<path fill="#ffcccc" stroke="black" d="M328,-486C328,-486 277,-486 277,-486 274,-486 271,-483 271,-480 271,-480 271,-474 271,-474 271,-471 274,-468 277,-468 277,-468 328,-468 328,-468 331,-468 334,-471 334,-474 334,-474 334,-480 334,-480 334,-483 331,-486 328,-486"/>
<text text-anchor="start" x="279" y="-474.8" font-family="Helvetica,sans-Serif" font-size="9.00">filterbank.js</text>
</a>
</g>
</g>
<!-- src/graph&#45;utl/filterbank.js&#45;&gt;src/graph&#45;utl/add&#45;focus.js -->
<g id="edge8" class="edge">
<title>src/graph&#45;utl/filterbank.js&#45;&gt;src/graph&#45;utl/add&#45;focus.js</title>
<path fill="none" stroke="#770000" stroke-width="2" stroke-opacity="0.466667" d="M334.14,-482.5C334.14,-482.5 417.8,-482.5 417.8,-482.5"/>
<polygon fill="#770000" fill-opacity="0.466667" stroke="#770000" stroke-width="2" stroke-opacity="0.466667" points="417.8,-484.6 423.8,-482.5 417.8,-480.4 417.8,-484.6"/>
</g>
<!-- src/graph&#45;utl/filterbank.js&#45;&gt;src/graph&#45;utl/match&#45;facade.js -->
<g id="edge9" class="edge">
<title>src/graph&#45;utl/filterbank.js&#45;&gt;src/graph&#45;utl/match&#45;facade.js</title>
<path fill="none" stroke="#770000" stroke-width="2" stroke-opacity="0.466667" d="M334.03,-473.5C334.03,-473.5 547.79,-473.5 547.79,-473.5"/>
<polygon fill="#770000" fill-opacity="0.466667" stroke="#770000" stroke-width="2" stroke-opacity="0.466667" points="547.79,-475.6 553.79,-473.5 547.79,-471.4 547.79,-475.6"/>
</g>
<!-- src/graph&#45;utl/rule&#45;set.js -->
<g id="node9" class="node">
<title>src/graph&#45;utl/rule&#45;set.js</title>
<g id="a_node9"><a xlink:href="https://github.com/sverweij/dependency-cruiser/blob/develop/src/graph-utl/rule-set.js" xlink:title="rule&#45;set.js">
<path fill="#ffcccc" stroke="black" d="M324.5,-516C324.5,-516 280.5,-516 280.5,-516 277.5,-516 274.5,-513 274.5,-510 274.5,-510 274.5,-504 274.5,-504 274.5,-501 277.5,-498 280.5,-498 280.5,-498 324.5,-498 324.5,-498 327.5,-498 330.5,-501 330.5,-504 330.5,-504 330.5,-510 330.5,-510 330.5,-513 327.5,-516 324.5,-516"/>
<text text-anchor="start" x="282.5" y="-504.8" font-family="Helvetica,sans-Serif" font-size="9.00">rule&#45;set.js</text>
</a>
</g>
</g>
<!-- src/graph&#45;utl/strip&#45;self&#45;transitions.js -->
<g id="node10" class="node">
<title>src/graph&#45;utl/strip&#45;self&#45;transitions.js</title>
<g id="a_node10"><a xlink:href="https://github.com/sverweij/dependency-cruiser/blob/develop/src/graph-utl/strip-self-transitions.js" xlink:title="strip&#45;self&#45;transitions.js">
<path fill="#ffcccc" stroke="black" d="M349,-426C349,-426 256,-426 256,-426 253,-426 250,-423 250,-420 250,-420 250,-414 250,-414 250,-411 253,-408 256,-408 256,-408 349,-408 349,-408 352,-408 355,-411 355,-414 355,-414 355,-420 355,-420 355,-423 352,-426 349,-426"/>
<text text-anchor="start" x="258" y="-414.8" font-family="Helvetica,sans-Serif" font-size="9.00">strip&#45;self&#45;transitions.js</text>
</a>
</g>
</g>
<!-- src/report/anon -->
<g id="node11" class="node">
<title>src/report/anon</title>
<g id="a_node11"><a xlink:href="https://github.com/sverweij/dependency-cruiser/blob/develop/src/report/anon" xlink:title="anon">
<polygon fill="#ffccff" stroke="black" points="151,-42 99,-42 97,-40 97,-24 149,-24 151,-26 151,-42"/>
<polyline fill="none" stroke="black" points="149,-40 97,-40 "/>
<polyline fill="none" stroke="black" points="149,-40 149,-24 "/>
<polyline fill="none" stroke="black" points="149,-40 151,-42 "/>
<text text-anchor="start" x="113" y="-30.8" font-family="Helvetica,sans-Serif" font-size="9.00">anon</text>
</a>
</g>
</g>
<!-- src/report/baseline.js -->
<g id="node12" class="node">
<title>src/report/baseline.js</title>
<g id="a_node12"><a xlink:href="https://github.com/sverweij/dependency-cruiser/blob/develop/src/report/baseline.js" xlink:title="baseline.js">
<path fill="#ffccff" stroke="black" d="M148.5,-72C148.5,-72 99.5,-72 99.5,-72 96.5,-72 93.5,-69 93.5,-66 93.5,-66 93.5,-60 93.5,-60 93.5,-57 96.5,-54 99.5,-54 99.5,-54 148.5,-54 148.5,-54 151.5,-54 154.5,-57 154.5,-60 154.5,-60 154.5,-66 154.5,-66 154.5,-69 151.5,-72 148.5,-72"/>
<text text-anchor="start" x="101.5" y="-60.8" font-family="Helvetica,sans-Serif" font-size="9.00">baseline.js</text>
</a>
</g>
</g>
<!-- src/report/csv.js -->
<g id="node13" class="node">
<title>src/report/csv.js</title>
<g id="a_node13"><a xlink:href="https://github.com/sverweij/dependency-cruiser/blob/develop/src/report/csv.js" xlink:title="csv.js">
<path fill="#ffccff" stroke="black" d="M220.5,-86C220.5,-86 178.5,-86 178.5,-86 175.5,-86 172.5,-83 172.5,-80 172.5,-80 172.5,-74 172.5,-74 172.5,-71 175.5,-68 178.5,-68 178.5,-68 220.5,-68 220.5,-68 223.5,-68 226.5,-71 226.5,-74 226.5,-74 226.5,-80 226.5,-80 226.5,-83 223.5,-86 220.5,-86"/>
<text text-anchor="start" x="188" y="-74.8" font-family="Helvetica,sans-Serif" font-size="9.00">csv.js</text>
</a>
</g>
</g>
<!-- src/report/utl -->
<g id="node14" class="node">
<title>src/report/utl</title>
<g id="a_node14"><a xlink:href="https://github.com/sverweij/dependency-cruiser/blob/develop/src/report/utl" xlink:title="utl">
<polygon fill="#ffccff" stroke="black" points="329.5,-161 277.5,-161 275.5,-159 275.5,-143 327.5,-143 329.5,-145 329.5,-161"/>
<polyline fill="none" stroke="black" points="327.5,-159 275.5,-159 "/>
<polyline fill="none" stroke="black" points="327.5,-159 327.5,-143 "/>
<polyline fill="none" stroke="black" points="327.5,-159 329.5,-161 "/>
<text text-anchor="start" x="297.5" y="-149.8" font-family="Helvetica,sans-Serif" font-size="9.00">utl</text>
</a>
</g>
</g>
<!-- src/report/csv.js&#45;&gt;src/report/utl -->
<g id="edge10" class="edge">
<title>src/report/csv.js&#45;&gt;src/report/utl</title>
<path fill="none" stroke="#ff00ff" stroke-width="2" stroke-opacity="0.466667" d="M226.73,-77C260.03,-77 312,-77 312,-77 312,-77 312,-136.8 312,-136.8"/>
<polygon fill="#ff00ff" fill-opacity="0.466667" stroke="#ff00ff" stroke-width="2" stroke-opacity="0.466667" points="309.9,-136.8 312,-142.8 314.1,-136.8 309.9,-136.8"/>
</g>
<!-- src/report/dot -->
<g id="node15" class="node">
<title>src/report/dot</title>
<g id="a_node15"><a xlink:href="https://github.com/sverweij/dependency-cruiser/blob/develop/src/report/dot" xlink:title="dot">
<polygon fill="#ffccff" stroke="black" points="226.5,-306 174.5,-306 172.5,-304 172.5,-288 224.5,-288 226.5,-290 226.5,-306"/>
<polyline fill="none" stroke="black" points="224.5,-304 172.5,-304 "/>
<polyline fill="none" stroke="black" points="224.5,-304 224.5,-288 "/>
<polyline fill="none" stroke="black" points="224.5,-304 226.5,-306 "/>
<text text-anchor="start" x="193" y="-294.8" font-family="Helvetica,sans-Serif" font-size="9.00">dot</text>
</a>
</g>
</g>
<!-- src/report/dot&#45;&gt;src/graph&#45;utl/compare.js -->
<g id="edge13" class="edge">
<title>src/report/dot&#45;&gt;src/graph&#45;utl/compare.js</title>
<path fill="none" stroke="#770000" stroke-width="2" stroke-opacity="0.466667" d="M226.68,-293.14C316.04,-293.14 595,-293.14 595,-293.14 595,-293.14 595,-371.66 595,-371.66"/>
<polygon fill="#770000" fill-opacity="0.466667" stroke="#770000" stroke-width="2" stroke-opacity="0.466667" points="592.9,-371.66 595,-377.66 597.1,-371.66 592.9,-371.66"/>
</g>
<!-- src/report/dot&#45;&gt;src/graph&#45;utl/consolidate&#45;to&#45;folder.js -->
<g id="edge16" class="edge">
<title>src/report/dot&#45;&gt;src/graph&#45;utl/consolidate&#45;to&#45;folder.js</title>
<path fill="none" stroke="#770000" stroke-width="2" stroke-opacity="0.466667" d="M226.73,-295.71C243.57,-295.71 262,-295.71 262,-295.71 262,-295.71 262,-371.91 262,-371.91"/>
<polygon fill="#770000" fill-opacity="0.466667" stroke="#770000" stroke-width="2" stroke-opacity="0.466667" points="259.9,-371.91 262,-377.91 264.1,-371.91 259.9,-371.91"/>
</g>
<!-- src/report/dot&#45;&gt;src/graph&#45;utl/consolidate&#45;to&#45;pattern.js -->
<g id="edge14" class="edge">
<title>src/report/dot&#45;&gt;src/graph&#45;utl/consolidate&#45;to&#45;pattern.js</title>
<path fill="none" stroke="#770000" stroke-width="2" stroke-opacity="0.466667" d="M226.75,-300.86C232.57,-300.86 237,-300.86 237,-300.86 237,-300.86 237,-447 237,-447 237,-447 238.77,-447 238.77,-447"/>
<polygon fill="#770000" fill-opacity="0.466667" stroke="#770000" stroke-width="2" stroke-opacity="0.466667" points="238.77,-449.1 244.77,-447 238.77,-444.9 238.77,-449.1"/>
</g>
<!-- src/report/dot&#45;&gt;src/graph&#45;utl/filterbank.js -->
<g id="edge11" class="edge">
<title>src/report/dot&#45;&gt;src/graph&#45;utl/filterbank.js</title>
<path fill="none" stroke="#770000" stroke-width="2" stroke-opacity="0.466667" d="M226.54,-303.43C230.35,-303.43 233,-303.43 233,-303.43 233,-303.43 233,-477 233,-477 233,-477 264.6,-477 264.6,-477"/>
<polygon fill="#770000" fill-opacity="0.466667" stroke="#770000" stroke-width="2" stroke-opacity="0.466667" points="264.6,-479.1 270.6,-477 264.6,-474.9 264.6,-479.1"/>
</g>
<!-- src/report/dot&#45;&gt;src/graph&#45;utl/strip&#45;self&#45;transitions.js -->
<g id="edge15" class="edge">
<title>src/report/dot&#45;&gt;src/graph&#45;utl/strip&#45;self&#45;transitions.js</title>
<path fill="none" stroke="#770000" stroke-width="2" stroke-opacity="0.466667" d="M226.95,-298.29C234.67,-298.29 241,-298.29 241,-298.29 241,-298.29 241,-417 241,-417 241,-417 243.81,-417 243.81,-417"/>
<polygon fill="#770000" fill-opacity="0.466667" stroke="#770000" stroke-width="2" stroke-opacity="0.466667" points="243.81,-419.1 249.81,-417 243.81,-414.9 243.81,-419.1"/>
</g>
<!-- src/report/dot&#45;&gt;src/report/utl -->
<g id="edge12" class="edge">
<title>src/report/dot&#45;&gt;src/report/utl</title>
<path fill="none" stroke="#ff00ff" stroke-width="2" stroke-opacity="0.466667" d="M226.69,-290.57C257.36,-290.57 303,-290.57 303,-290.57 303,-290.57 303,-167.09 303,-167.09"/>
<polygon fill="#ff00ff" fill-opacity="0.466667" stroke="#ff00ff" stroke-width="2" stroke-opacity="0.466667" points="305.1,-167.09 303,-161.09 300.9,-167.09 305.1,-167.09"/>
</g>
<!-- src/report/error&#45;html -->
<g id="node16" class="node">
<title>src/report/error&#45;html</title>
<g id="a_node16"><a xlink:href="https://github.com/sverweij/dependency-cruiser/blob/develop/src/report/error-html" xlink:title="error&#45;html">
<polygon fill="#ffccff" stroke="black" points="227.5,-116 173.5,-116 171.5,-114 171.5,-98 225.5,-98 227.5,-100 227.5,-116"/>
<polyline fill="none" stroke="black" points="225.5,-114 171.5,-114 "/>
<polyline fill="none" stroke="black" points="225.5,-114 225.5,-98 "/>
<polyline fill="none" stroke="black" points="225.5,-114 227.5,-116 "/>
<text text-anchor="start" x="179.5" y="-104.8" font-family="Helvetica,sans-Serif" font-size="9.00">error&#45;html</text>
</a>
</g>
</g>
<!-- src/report/error&#45;html&#45;&gt;src/report/utl -->
<g id="edge17" class="edge">
<title>src/report/error&#45;html&#45;&gt;src/report/utl</title>
<path fill="none" stroke="#ff00ff" stroke-width="2" stroke-opacity="0.466667" d="M227.6,-107C255.45,-107 294,-107 294,-107 294,-107 294,-136.89 294,-136.89"/>
<polygon fill="#ff00ff" fill-opacity="0.466667" stroke="#ff00ff" stroke-width="2" stroke-opacity="0.466667" points="291.9,-136.89 294,-142.89 296.1,-136.89 291.9,-136.89"/>
</g>
<!-- src/report/error&#45;long.js -->
<g id="node17" class="node">
<title>src/report/error&#45;long.js</title>
<g id="a_node17"><a xlink:href="https://github.com/sverweij/dependency-cruiser/blob/develop/src/report/error-long.js" xlink:title="error&#45;long.js">
<path fill="#ffccff" stroke="black" d="M151,-306C151,-306 97,-306 97,-306 94,-306 91,-303 91,-300 91,-300 91,-294 91,-294 91,-291 94,-288 97,-288 97,-288 151,-288 151,-288 154,-288 157,-291 157,-294 157,-294 157,-300 157,-300 157,-303 154,-306 151,-306"/>
<text text-anchor="start" x="99" y="-294.8" font-family="Helvetica,sans-Serif" font-size="9.00">error&#45;long.js</text>
</a>
</g>
</g>
<!-- src/report/error.js -->
<g id="node18" class="node">
<title>src/report/error.js</title>
<g id="a_node18"><a xlink:href="https://github.com/sverweij/dependency-cruiser/blob/develop/src/report/error.js" xlink:title="error.js">
<path fill="#ffccff" stroke="black" d="M220.5,-336C220.5,-336 178.5,-336 178.5,-336 175.5,-336 172.5,-333 172.5,-330 172.5,-330 172.5,-324 172.5,-324 172.5,-321 175.5,-318 178.5,-318 178.5,-318 220.5,-318 220.5,-318 223.5,-318 226.5,-321 226.5,-324 226.5,-324 226.5,-330 226.5,-330 226.5,-333 223.5,-336 220.5,-336"/>
<text text-anchor="start" x="185" y="-324.8" font-family="Helvetica,sans-Serif" font-size="9.00">error.js</text>
</a>
</g>
</g>
<!-- src/report/error&#45;long.js&#45;&gt;src/report/error.js -->
<g id="edge18" class="edge">
<title>src/report/error&#45;long.js&#45;&gt;src/report/error.js</title>
<path fill="none" stroke="#ff00ff" stroke-width="2" stroke-opacity="0.466667" d="M157.04,-300C159.47,-300 161,-300 161,-300 161,-300 161,-330 161,-330 161,-330 166.34,-330 166.34,-330"/>
<polygon fill="#ff00ff" fill-opacity="0.466667" stroke="#ff00ff" stroke-width="2" stroke-opacity="0.466667" points="166.34,-332.1 172.34,-330 166.34,-327.9 166.34,-332.1"/>
</g>
<!-- src/report/error.js&#45;&gt;src/graph&#45;utl/rule&#45;set.js -->
<g id="edge19" class="edge">
<title>src/report/error.js&#45;&gt;src/graph&#45;utl/rule&#45;set.js</title>
<path fill="none" stroke="#770000" stroke-width="2" stroke-opacity="0.466667" d="M209,-336.17C209,-372.85 209,-507 209,-507 209,-507 268.45,-507 268.45,-507"/>
<polygon fill="#770000" fill-opacity="0.466667" stroke="#770000" stroke-width="2" stroke-opacity="0.466667" points="268.45,-509.1 274.45,-507 268.45,-504.9 268.45,-509.1"/>
</g>
<!-- src/report/error.js&#45;&gt;src/report/utl -->
<g id="edge21" class="edge">
<title>src/report/error.js&#45;&gt;src/report/utl</title>
<path fill="none" stroke="#ff00ff" stroke-width="2" stroke-opacity="0.466667" d="M226.52,-327C260.94,-327 316,-327 316,-327 316,-327 316,-167.41 316,-167.41"/>
<polygon fill="#ff00ff" fill-opacity="0.466667" stroke="#ff00ff" stroke-width="2" stroke-opacity="0.466667" points="318.1,-167.41 316,-161.41 313.9,-167.41 318.1,-167.41"/>
</g>
<!-- src/utl/wrap&#45;and&#45;indent.js -->
<g id="node19" class="node">
<title>src/utl/wrap&#45;and&#45;indent.js</title>
<g id="a_node19"><a xlink:href="https://github.com/sverweij/dependency-cruiser/blob/develop/src/utl/wrap-and-indent.js" xlink:title="utl&#45;module&#45;not&#45;shared&#45;enough">
<path fill="#cccccc" stroke="blue" d="M343,-576C343,-576 262,-576 262,-576 259,-576 256,-573 256,-570 256,-570 256,-564 256,-564 256,-561 259,-558 262,-558 262,-558 343,-558 343,-558 346,-558 349,-561 349,-564 349,-564 349,-570 349,-570 349,-573 346,-576 343,-576"/>
<text text-anchor="start" x="264" y="-564.8" font-family="Helvetica,sans-Serif" font-size="9.00" fill="blue">wrap&#45;and&#45;indent.js</text>
</a>
</g>
</g>
<!-- src/report/error.js&#45;&gt;src/utl/wrap&#45;and&#45;indent.js -->
<g id="edge20" class="edge">
<title>src/report/error.js&#45;&gt;src/utl/wrap&#45;and&#45;indent.js</title>
<path fill="none" stroke="#aaaaaa" stroke-width="2" stroke-opacity="0.466667" d="M191,-336.12C191,-379.95 191,-567 191,-567 191,-567 249.86,-567 249.86,-567"/>
<polygon fill="#aaaaaa" fill-opacity="0.466667" stroke="#aaaaaa" stroke-width="2" stroke-opacity="0.466667" points="249.86,-569.1 255.86,-567 249.86,-564.9 249.86,-569.1"/>
</g>
<!-- src/report/html -->
<g id="node20" class="node">
<title>src/report/html</title>
<g id="a_node20"><a xlink:href="https://github.com/sverweij/dependency-cruiser/blob/develop/src/report/html" xlink:title="html">
<polygon fill="#ffccff" stroke="black" points="226.5,-146 174.5,-146 172.5,-144 172.5,-128 224.5,-128 226.5,-130 226.5,-146"/>
<polyline fill="none" stroke="black" points="224.5,-144 172.5,-144 "/>
<polyline fill="none" stroke="black" points="224.5,-144 224.5,-128 "/>
<polyline fill="none" stroke="black" points="224.5,-144 226.5,-146 "/>
<text text-anchor="start" x="190.5" y="-134.8" font-family="Helvetica,sans-Serif" font-size="9.00">html</text>
</a>
</g>
</g>
<!-- src/report/html&#45;&gt;src/report/utl -->
<g id="edge22" class="edge">
<title>src/report/html&#45;&gt;src/report/utl</title>
<path fill="none" stroke="#ff00ff" stroke-width="2" stroke-opacity="0.466667" d="M200,-146.25C200,-149.61 200,-152.6 200,-152.6 200,-152.6 269.3,-152.6 269.3,-152.6"/>
<polygon fill="#ff00ff" fill-opacity="0.466667" stroke="#ff00ff" stroke-width="2" stroke-opacity="0.466667" points="269.3,-154.7 275.3,-152.6 269.3,-150.5 269.3,-154.7"/>
</g>
<!-- src/report/identity.js -->
<g id="node21" class="node">
<title>src/report/identity.js</title>
<g id="a_node21"><a xlink:href="https://github.com/sverweij/dependency-cruiser/blob/develop/src/report/identity.js" xlink:title="identity.js">
<path fill="#ffccff" stroke="black" d="M145.5,-186C145.5,-186 102.5,-186 102.5,-186 99.5,-186 96.5,-183 96.5,-180 96.5,-180 96.5,-174 96.5,-174 96.5,-171 99.5,-168 102.5,-168 102.5,-168 145.5,-168 145.5,-168 148.5,-168 151.5,-171 151.5,-174 151.5,-174 151.5,-180 151.5,-180 151.5,-183 148.5,-186 145.5,-186"/>
<text text-anchor="start" x="104.5" y="-174.8" font-family="Helvetica,sans-Serif" font-size="9.00">identity.js</text>
</a>
</g>
</g>
<!-- src/report/index.js -->
<g id="node22" class="node">
<title>src/report/index.js</title>
<g id="a_node22"><a xlink:href="https://github.com/sverweij/dependency-cruiser/blob/develop/src/report/index.js" xlink:title="index.js">
<path fill="#ffccff" stroke="black" d="M72,-157C72,-157 30,-157 30,-157 27,-157 24,-154 24,-151 24,-151 24,-145 24,-145 24,-142 27,-139 30,-139 30,-139 72,-139 72,-139 75,-139 78,-142 78,-145 78,-145 78,-151 78,-151 78,-154 75,-157 72,-157"/>
<text text-anchor="start" x="35" y="-145.8" font-family="Helvetica,sans-Serif" font-size="9.00">index.js</text>
</a>
</g>
</g>
<!-- src/report/index.js&#45;&gt;src/report/anon -->
<g id="edge23" class="edge">
<title>src/report/index.js&#45;&gt;src/report/anon</title>
<path fill="none" stroke="#ff00ff" stroke-width="2" stroke-opacity="0.466667" d="M38,-138.98C38,-111.87 38,-33 38,-33 38,-33 90.79,-33 90.79,-33"/>
<polygon fill="#ff00ff" fill-opacity="0.466667" stroke="#ff00ff" stroke-width="2" stroke-opacity="0.466667" points="90.79,-35.1 96.79,-33 90.79,-30.9 90.79,-35.1"/>
</g>
<!-- src/report/index.js&#45;&gt;src/report/baseline.js -->
<g id="edge24" class="edge">
<title>src/report/index.js&#45;&gt;src/report/baseline.js</title>
<path fill="none" stroke="#ff00ff" stroke-width="2" stroke-opacity="0.466667" d="M78.14,-141.33C95.58,-141.33 115,-141.33 115,-141.33 115,-141.33 115,-78.29 115,-78.29"/>
<polygon fill="#ff00ff" fill-opacity="0.466667" stroke="#ff00ff" stroke-width="2" stroke-opacity="0.466667" points="117.1,-78.29 115,-72.29 112.9,-78.29 117.1,-78.29"/>
</g>
<!-- src/report/index.js&#45;&gt;src/report/csv.js -->
<g id="edge25" class="edge">
<title>src/report/index.js&#45;&gt;src/report/csv.js</title>
<path fill="none" stroke="#ff00ff" stroke-width="2" stroke-opacity="0.466667" d="M51,-138.98C51,-120.28 51,-79 51,-79 51,-79 166.26,-79 166.26,-79"/>
<polygon fill="#ff00ff" fill-opacity="0.466667" stroke="#ff00ff" stroke-width="2" stroke-opacity="0.466667" points="166.26,-81.1 172.26,-79 166.26,-76.9 166.26,-81.1"/>
</g>
<!-- src/report/index.js&#45;&gt;src/report/dot -->
<g id="edge26" class="edge">
<title>src/report/index.js&#45;&gt;src/report/dot</title>
<path fill="none" stroke="#ff00ff" stroke-width="2" stroke-opacity="0.466667" d="M78.2,-148.2C112.48,-148.2 167,-148.2 167,-148.2 167,-148.2 167,-294 167,-294 167,-294 167.54,-294 167.54,-294"/>
<polygon fill="#ff00ff" fill-opacity="0.466667" stroke="#ff00ff" stroke-width="2" stroke-opacity="0.466667" points="166.37,-296.1 172.37,-294 166.37,-291.9 166.37,-296.1"/>
</g>
<!-- src/report/index.js&#45;&gt;src/report/error&#45;html -->
<g id="edge28" class="edge">
<title>src/report/index.js&#45;&gt;src/report/error&#45;html</title>
<path fill="none" stroke="#ff00ff" stroke-width="2" stroke-opacity="0.466667" d="M65,-138.9C65,-126.82 65,-107 65,-107 65,-107 165.3,-107 165.3,-107"/>
<polygon fill="#ff00ff" fill-opacity="0.466667" stroke="#ff00ff" stroke-width="2" stroke-opacity="0.466667" points="165.3,-109.1 171.3,-107 165.3,-104.9 165.3,-109.1"/>
</g>
<!-- src/report/index.js&#45;&gt;src/report/error&#45;long.js -->
<g id="edge29" class="edge">
<title>src/report/index.js&#45;&gt;src/report/error&#45;long.js</title>
<path fill="none" stroke="#ff00ff" stroke-width="2" stroke-opacity="0.466667" d="M40,-157.32C40,-189.94 40,-297 40,-297 40,-297 84.8,-297 84.8,-297"/>
<polygon fill="#ff00ff" fill-opacity="0.466667" stroke="#ff00ff" stroke-width="2" stroke-opacity="0.466667" points="84.8,-299.1 90.8,-297 84.8,-294.9 84.8,-299.1"/>
</g>
<!-- src/report/index.js&#45;&gt;src/report/error.js -->
<g id="edge27" class="edge">
<title>src/report/index.js&#45;&gt;src/report/error.js</title>
<path fill="none" stroke="#ff00ff" stroke-width="2" stroke-opacity="0.466667" d="M78.07,-150.4C111.5,-150.4 164,-150.4 164,-150.4 164,-150.4 164,-324 164,-324 164,-324 166.23,-324 166.23,-324"/>
<polygon fill="#ff00ff" fill-opacity="0.466667" stroke="#ff00ff" stroke-width="2" stroke-opacity="0.466667" points="166.23,-326.1 172.23,-324 166.23,-321.9 166.23,-326.1"/>
</g>
<!-- src/report/index.js&#45;&gt;src/report/html -->
<g id="edge30" class="edge">
<title>src/report/index.js&#45;&gt;src/report/html</title>
<path fill="none" stroke="#ff00ff" stroke-width="2" stroke-opacity="0.466667" d="M78.24,-143.67C78.24,-143.67 166.44,-143.67 166.44,-143.67"/>
<polygon fill="#ff00ff" fill-opacity="0.466667" stroke="#ff00ff" stroke-width="2" stroke-opacity="0.466667" points="166.44,-145.77 172.44,-143.67 166.44,-141.57 166.44,-145.77"/>
</g>
<!-- src/report/index.js&#45;&gt;src/report/identity.js -->
<g id="edge31" class="edge">
<title>src/report/index.js&#45;&gt;src/report/identity.js</title>
<path fill="none" stroke="#ff00ff" stroke-width="2" stroke-opacity="0.466667" d="M78.18,-154.8C102.38,-154.8 134,-154.8 134,-154.8 134,-154.8 134,-161.97 134,-161.97"/>
<polygon fill="#ff00ff" fill-opacity="0.466667" stroke="#ff00ff" stroke-width="2" stroke-opacity="0.466667" points="131.9,-161.97 134,-167.97 136.1,-161.97 131.9,-161.97"/>
</g>
<!-- src/report/json.js -->
<g id="node23" class="node">
<title>src/report/json.js</title>
<g id="a_node23"><a xlink:href="https://github.com/sverweij/dependency-cruiser/blob/develop/src/report/json.js" xlink:title="json.js">
<path fill="#ffccff" stroke="black" d="M145,-216C145,-216 103,-216 103,-216 100,-216 97,-213 97,-210 97,-210 97,-204 97,-204 97,-201 100,-198 103,-198 103,-198 145,-198 145,-198 148,-198 151,-201 151,-204 151,-204 151,-210 151,-210 151,-213 148,-216 145,-216"/>
<text text-anchor="start" x="110.5" y="-204.8" font-family="Helvetica,sans-Serif" font-size="9.00">json.js</text>
</a>
</g>
</g>
<!-- src/report/index.js&#45;&gt;src/report/json.js -->
<g id="edge32" class="edge">
<title>src/report/index.js&#45;&gt;src/report/json.js</title>
<path fill="none" stroke="#ff00ff" stroke-width="2" stroke-opacity="0.466667" d="M63,-157.22C63,-173.81 63,-207 63,-207 63,-207 90.71,-207 90.71,-207"/>
<polygon fill="#ff00ff" fill-opacity="0.466667" stroke="#ff00ff" stroke-width="2" stroke-opacity="0.466667" points="90.71,-209.1 96.71,-207 90.71,-204.9 90.71,-209.1"/>
</g>
<!-- src/report/metrics.js -->
<g id="node24" class="node">
<title>src/report/metrics.js</title>
<g id="a_node24"><a xlink:href="https://github.com/sverweij/dependency-cruiser/blob/develop/src/report/metrics.js" xlink:title="metrics.js">
<path fill="#ffccff" stroke="black" d="M145.5,-246C145.5,-246 102.5,-246 102.5,-246 99.5,-246 96.5,-243 96.5,-240 96.5,-240 96.5,-234 96.5,-234 96.5,-231 99.5,-228 102.5,-228 102.5,-228 145.5,-228 145.5,-228 148.5,-228 151.5,-231 151.5,-234 151.5,-234 151.5,-240 151.5,-240 151.5,-243 148.5,-246 145.5,-246"/>
<text text-anchor="start" x="104.5" y="-234.8" font-family="Helvetica,sans-Serif" font-size="9.00">metrics.js</text>
</a>
</g>
</g>
<!-- src/report/index.js&#45;&gt;src/report/metrics.js -->
<g id="edge33" class="edge">
<title>src/report/index.js&#45;&gt;src/report/metrics.js</title>
<path fill="none" stroke="#ff00ff" stroke-width="2" stroke-opacity="0.466667" d="M55,-157.19C55,-179.93 55,-237 55,-237 55,-237 90.33,-237 90.33,-237"/>
<polygon fill="#ff00ff" fill-opacity="0.466667" stroke="#ff00ff" stroke-width="2" stroke-opacity="0.466667" points="90.33,-239.1 96.33,-237 90.33,-234.9 90.33,-239.1"/>
</g>
<!-- src/report/plugins -->
<g id="node25" class="node">
<title>src/report/plugins</title>
<g id="a_node25"><a xlink:href="https://github.com/sverweij/dependency-cruiser/blob/develop/src/report/plugins" xlink:title="plugins">
<polygon fill="#ffccff" stroke="black" points="151,-276 99,-276 97,-274 97,-258 149,-258 151,-260 151,-276"/>
<polyline fill="none" stroke="black" points="149,-274 97,-274 "/>
<polyline fill="none" stroke="black" points="149,-274 149,-258 "/>
<polyline fill="none" stroke="black" points="149,-274 151,-276 "/>
<text text-anchor="start" x="108.5" y="-264.8" font-family="Helvetica,sans-Serif" font-size="9.00">plugins</text>
</a>
</g>
</g>
<!-- src/report/index.js&#45;&gt;src/report/plugins -->
<g id="edge34" class="edge">
<title>src/report/index.js&#45;&gt;src/report/plugins</title>
<path fill="none" stroke="#ff00ff" stroke-width="2" stroke-opacity="0.466667" d="M48,-157.34C48,-185.39 48,-267 48,-267 48,-267 90.99,-267 90.99,-267"/>
<polygon fill="#ff00ff" fill-opacity="0.466667" stroke="#ff00ff" stroke-width="2" stroke-opacity="0.466667" points="90.99,-269.1 96.99,-267 90.99,-264.9 90.99,-269.1"/>
</g>
<!-- src/report/teamcity.js -->
<g id="node26" class="node">
<title>src/report/teamcity.js</title>
<g id="a_node26"><a xlink:href="https://github.com/sverweij/dependency-cruiser/blob/develop/src/report/teamcity.js" xlink:title="teamcity.js">
<path fill="#ffccff" stroke="black" d="M223,-176C223,-176 176,-176 176,-176 173,-176 170,-173 170,-170 170,-170 170,-164 170,-164 170,-161 173,-158 176,-158 176,-158 223,-158 223,-158 226,-158 229,-161 229,-164 229,-164 229,-170 229,-170 229,-173 226,-176 223,-176"/>
<text text-anchor="start" x="178" y="-164.8" font-family="Helvetica,sans-Serif" font-size="9.00">teamcity.js</text>
</a>
</g>
</g>
<!-- src/report/index.js&#45;&gt;src/report/teamcity.js -->
<g id="edge35" class="edge">
<title>src/report/index.js&#45;&gt;src/report/teamcity.js</title>
<path fill="none" stroke="#ff00ff" stroke-width="2" stroke-opacity="0.466667" d="M71,-157.24C71,-160.33 71,-163 71,-163 71,-163 163.7,-163 163.7,-163"/>
<polygon fill="#ff00ff" fill-opacity="0.466667" stroke="#ff00ff" stroke-width="2" stroke-opacity="0.466667" points="163.7,-165.1 169.7,-163 163.7,-160.9 163.7,-165.1"/>
</g>
<!-- src/report/text.js -->
<g id="node27" class="node">
<title>src/report/text.js</title>
<g id="a_node27"><a xlink:href="https://github.com/sverweij/dependency-cruiser/blob/develop/src/report/text.js" xlink:title="text.js">
<path fill="#ffccff" stroke="black" d="M145,-336C145,-336 103,-336 103,-336 100,-336 97,-333 97,-330 97,-330 97,-324 97,-324 97,-321 100,-318 103,-318 103,-318 145,-318 145,-318 148,-318 151,-321 151,-324 151,-324 151,-330 151,-330 151,-333 148,-336 145,-336"/>
<text text-anchor="start" x="112" y="-324.8" font-family="Helvetica,sans-Serif" font-size="9.00">text.js</text>
</a>
</g>
</g>
<!-- src/report/index.js&#45;&gt;src/report/text.js -->
<g id="edge36" class="edge">
<title>src/report/index.js&#45;&gt;src/report/text.js</title>
<path fill="none" stroke="#ff00ff" stroke-width="2" stroke-opacity="0.466667" d="M32,-157.12C32,-193.6 32,-327 32,-327 32,-327 90.89,-327 90.89,-327"/>
<polygon fill="#ff00ff" fill-opacity="0.466667" stroke="#ff00ff" stroke-width="2" stroke-opacity="0.466667" points="90.89,-329.1 96.89,-327 90.89,-324.9 90.89,-329.1"/>
</g>
<!-- src/report/teamcity.js&#45;&gt;src/report/utl -->
<g id="edge37" class="edge">
<title>src/report/teamcity.js&#45;&gt;src/report/utl</title>
<path fill="none" stroke="#ff00ff" stroke-width="2" stroke-opacity="0.466667" d="M229.3,-168.5C255.34,-168.5 289,-168.5 289,-168.5 289,-168.5 289,-167.02 289,-167.02"/>
<polygon fill="#ff00ff" fill-opacity="0.466667" stroke="#ff00ff" stroke-width="2" stroke-opacity="0.466667" points="291.1,-167.02 289,-161.02 286.9,-167.02 291.1,-167.02"/>
</g>
</g>
</svg>
