<?xml version="1.0" encoding="UTF-8" standalone="no"?>
<!DOCTYPE svg PUBLIC "-//W3C//DTD SVG 1.1//EN"
 "http://www.w3.org/Graphics/SVG/1.1/DTD/svg11.dtd">
<!-- Generated by graphviz version 2.49.0 (20210828.1703)
 -->
<!-- Title: dependency&#45;cruiser output Pages: 1 -->
<svg width="661pt" height="454pt"
 viewBox="0.00 0.00 661.00 454.00" xmlns="http://www.w3.org/2000/svg" xmlns:xlink="http://www.w3.org/1999/xlink">
<g id="graph0" class="graph" transform="scale(1 1) rotate(0) translate(4 450)">
<title>dependency&#45;cruiser output</title>
<polygon fill="white" stroke="transparent" points="-4,4 -4,-450 657,-450 657,4 -4,4"/>
<g id="clust1" class="cluster">
<title>cluster_src</title>
<path fill="#ffffff" stroke="black" stroke-width="2" d="M20,-8C20,-8 633,-8 633,-8 639,-8 645,-14 645,-20 645,-20 645,-426 645,-426 645,-432 639,-438 633,-438 633,-438 20,-438 20,-438 14,-438 8,-432 8,-426 8,-426 8,-20 8,-20 8,-14 14,-8 20,-8"/>
<text text-anchor="middle" x="326.5" y="-426.8" font-family="Helvetica,sans-Serif" font-weight="bold" font-size="9.00">src</text>
</g>
<g id="clust2" class="cluster">
<title>cluster_src/graph&#45;utl</title>
<path fill="#ffffff" stroke="black" stroke-width="2" d="M251,-166C251,-166 625,-166 625,-166 631,-166 637,-172 637,-178 637,-178 637,-326 637,-326 637,-332 631,-338 625,-338 625,-338 251,-338 251,-338 245,-338 239,-332 239,-326 239,-326 239,-178 239,-178 239,-172 245,-166 251,-166"/>
<text text-anchor="middle" x="438" y="-326.8" font-family="Helvetica,sans-Serif" font-weight="bold" font-size="9.00">graph&#45;utl</text>
</g>
<g id="clust3" class="cluster">
<title>cluster_src/report</title>
<path fill="#ffffff" stroke="black" stroke-width="2" d="M28,-16C28,-16 219,-16 219,-16 225,-16 231,-22 231,-28 231,-28 231,-400 231,-400 231,-406 225,-412 219,-412 219,-412 28,-412 28,-412 22,-412 16,-406 16,-400 16,-400 16,-28 16,-28 16,-22 22,-16 28,-16"/>
<text text-anchor="middle" x="123.5" y="-400.8" font-family="Helvetica,sans-Serif" font-weight="bold" font-size="9.00">report</text>
</g>
<g id="clust4" class="cluster">
<title>cluster_src/utl</title>
<path fill="#ffffff" stroke="black" stroke-width="2" d="M262,-106C262,-106 345,-106 345,-106 351,-106 357,-112 357,-118 357,-118 357,-146 357,-146 357,-152 351,-158 345,-158 345,-158 262,-158 262,-158 256,-158 250,-152 250,-146 250,-146 250,-118 250,-118 250,-112 256,-106 262,-106"/>
<text text-anchor="middle" x="303.5" y="-146.8" font-family="Helvetica,sans-Serif" font-weight="bold" font-size="9.00">utl</text>
</g>
<!-- src/graph&#45;utl/add&#45;focus.js -->
<g id="node1" class="node">
<title>src/graph&#45;utl/add&#45;focus.js</title>
<g id="a_node1"><a xlink:href="https://github.com/sverweij/dependency-cruiser/blob/develop/src/graph-utl/add-focus.js" xlink:title="add&#45;focus.js">
<path fill="#ffcccc" stroke="black" d="M481,-298C481,-298 428,-298 428,-298 425,-298 422,-295 422,-292 422,-292 422,-286 422,-286 422,-283 425,-280 428,-280 428,-280 481,-280 481,-280 484,-280 487,-283 487,-286 487,-286 487,-292 487,-292 487,-295 484,-298 481,-298"/>
<text text-anchor="middle" x="454.5" y="-286.8" font-family="Helvetica,sans-Serif" font-size="9.00">add&#45;focus.js</text>
</a>
</g>
</g>
<!-- src/graph&#45;utl/match&#45;facade.js -->
<g id="node2" class="node">
<title>src/graph&#45;utl/match&#45;facade.js</title>
<g id="a_node2"><a xlink:href="https://github.com/sverweij/dependency-cruiser/blob/develop/src/graph-utl/match-facade.js" xlink:title="match&#45;facade.js">
<path fill="#ffcccc" stroke="black" d="M623,-305C623,-305 555,-305 555,-305 552,-305 549,-302 549,-299 549,-299 549,-293 549,-293 549,-290 552,-287 555,-287 555,-287 623,-287 623,-287 626,-287 629,-290 629,-293 629,-293 629,-299 629,-299 629,-302 626,-305 623,-305"/>
<text text-anchor="middle" x="589" y="-293.8" font-family="Helvetica,sans-Serif" font-size="9.00">match&#45;facade.js</text>
</a>
</g>
</g>
<!-- src/graph&#45;utl/add&#45;focus.js&#45;&gt;src/graph&#45;utl/match&#45;facade.js -->
<g id="edge1" class="edge">
<title>src/graph&#45;utl/add&#45;focus.js&#45;&gt;src/graph&#45;utl/match&#45;facade.js</title>
<path fill="none" stroke="#770000" stroke-width="2" stroke-opacity="0.466667" d="M487.06,-292.5C487.06,-292.5 542.56,-292.5 542.56,-292.5"/>
<polygon fill="#770000" fill-opacity="0.466667" stroke="#770000" stroke-width="2" stroke-opacity="0.466667" points="542.56,-294.6 548.56,-292.5 542.56,-290.4 542.56,-294.6"/>
</g>
<!-- src/graph&#45;utl/compare.js -->
<g id="node3" class="node">
<title>src/graph&#45;utl/compare.js</title>
<g id="a_node3"><a xlink:href="https://github.com/sverweij/dependency-cruiser/blob/develop/src/graph-utl/compare.js" xlink:title="compare.js">
<path fill="#ffcccc" stroke="black" d="M613.5,-238C613.5,-238 564.5,-238 564.5,-238 561.5,-238 558.5,-235 558.5,-232 558.5,-232 558.5,-226 558.5,-226 558.5,-223 561.5,-220 564.5,-220 564.5,-220 613.5,-220 613.5,-220 616.5,-220 619.5,-223 619.5,-226 619.5,-226 619.5,-232 619.5,-232 619.5,-235 616.5,-238 613.5,-238"/>
<text text-anchor="middle" x="589" y="-226.8" font-family="Helvetica,sans-Serif" font-size="9.00">compare.js</text>
</a>
</g>
</g>
<!-- src/graph&#45;utl/consolidate&#45;module&#45;dependencies.js -->
<g id="node4" class="node">
<title>src/graph&#45;utl/consolidate&#45;module&#45;dependencies.js</title>
<g id="a_node4"><a xlink:href="https://github.com/sverweij/dependency-cruiser/blob/develop/src/graph-utl/consolidate-module-dependencies.js" xlink:title="consolidate&#45;module&#45;dependencies.js">
<path fill="#ffcccc" stroke="black" d="M530,-268C530,-268 379,-268 379,-268 376,-268 373,-265 373,-262 373,-262 373,-256 373,-256 373,-253 376,-250 379,-250 379,-250 530,-250 530,-250 533,-250 536,-253 536,-256 536,-256 536,-262 536,-262 536,-265 533,-268 530,-268"/>
<text text-anchor="middle" x="454.5" y="-256.8" font-family="Helvetica,sans-Serif" font-size="9.00">consolidate&#45;module&#45;dependencies.js</text>
</a>
</g>
</g>
<!-- src/graph&#45;utl/consolidate&#45;module&#45;dependencies.js&#45;&gt;src/graph&#45;utl/compare.js -->
<g id="edge2" class="edge">
<title>src/graph&#45;utl/consolidate&#45;module&#45;dependencies.js&#45;&gt;src/graph&#45;utl/compare.js</title>
<path fill="none" stroke="#770000" stroke-width="2" stroke-opacity="0.466667" d="M523,-249.86C523,-242.03 523,-232 523,-232 523,-232 552.32,-232 552.32,-232"/>
<polygon fill="#770000" fill-opacity="0.466667" stroke="#770000" stroke-width="2" stroke-opacity="0.466667" points="552.32,-234.1 558.32,-232 552.32,-229.9 552.32,-234.1"/>
</g>
<!-- src/graph&#45;utl/consolidate&#45;modules.js -->
<g id="node5" class="node">
<title>src/graph&#45;utl/consolidate&#45;modules.js</title>
<g id="a_node5"><a xlink:href="https://github.com/sverweij/dependency-cruiser/blob/develop/src/graph-utl/consolidate-modules.js" xlink:title="consolidate&#45;modules.js">
<path fill="#ffcccc" stroke="black" d="M502.5,-238C502.5,-238 406.5,-238 406.5,-238 403.5,-238 400.5,-235 400.5,-232 400.5,-232 400.5,-226 400.5,-226 400.5,-223 403.5,-220 406.5,-220 406.5,-220 502.5,-220 502.5,-220 505.5,-220 508.5,-223 508.5,-226 508.5,-226 508.5,-232 508.5,-232 508.5,-235 505.5,-238 502.5,-238"/>
<text text-anchor="middle" x="454.5" y="-226.8" font-family="Helvetica,sans-Serif" font-size="9.00">consolidate&#45;modules.js</text>
</a>
</g>
</g>
<!-- src/graph&#45;utl/consolidate&#45;modules.js&#45;&gt;src/graph&#45;utl/compare.js -->
<g id="edge3" class="edge">
<title>src/graph&#45;utl/consolidate&#45;modules.js&#45;&gt;src/graph&#45;utl/compare.js</title>
<path fill="none" stroke="#770000" stroke-width="2" stroke-opacity="0.466667" d="M508.82,-226C508.82,-226 552.46,-226 552.46,-226"/>
<polygon fill="#770000" fill-opacity="0.466667" stroke="#770000" stroke-width="2" stroke-opacity="0.466667" points="552.46,-228.1 558.46,-226 552.46,-223.9 552.46,-228.1"/>
</g>
<!-- src/graph&#45;utl/consolidate&#45;to&#45;folder.js -->
<g id="node6" class="node">
<title>src/graph&#45;utl/consolidate&#45;to&#45;folder.js</title>
<g id="a_node6"><a xlink:href="https://github.com/sverweij/dependency-cruiser/blob/develop/src/graph-utl/consolidate-to-folder.js" xlink:title="consolidate&#45;to&#45;folder.js">
<path fill="#ffcccc" stroke="black" d="M351,-252C351,-252 256,-252 256,-252 253,-252 250,-249 250,-246 250,-246 250,-240 250,-240 250,-237 253,-234 256,-234 256,-234 351,-234 351,-234 354,-234 357,-237 357,-240 357,-240 357,-246 357,-246 357,-249 354,-252 351,-252"/>
<text text-anchor="middle" x="303.5" y="-240.8" font-family="Helvetica,sans-Serif" font-size="9.00">consolidate&#45;to&#45;folder.js</text>
</a>
</g>
</g>
<!-- src/graph&#45;utl/consolidate&#45;to&#45;folder.js&#45;&gt;src/graph&#45;utl/consolidate&#45;module&#45;dependencies.js -->
<g id="edge4" class="edge">
<title>src/graph&#45;utl/consolidate&#45;to&#45;folder.js&#45;&gt;src/graph&#45;utl/consolidate&#45;module&#45;dependencies.js</title>
<path fill="none" stroke="#770000" stroke-width="2" stroke-opacity="0.466667" d="M357.33,-244C373.48,-244 387,-244 387,-244 387,-244 387,-244.58 387,-244.58"/>
<polygon fill="#770000" fill-opacity="0.466667" stroke="#770000" stroke-width="2" stroke-opacity="0.466667" points="384.9,-243.76 387,-249.76 389.1,-243.76 384.9,-243.76"/>
</g>
<!-- src/graph&#45;utl/consolidate&#45;to&#45;folder.js&#45;&gt;src/graph&#45;utl/consolidate&#45;modules.js -->
<g id="edge5" class="edge">
<title>src/graph&#45;utl/consolidate&#45;to&#45;folder.js&#45;&gt;src/graph&#45;utl/consolidate&#45;modules.js</title>
<path fill="none" stroke="#770000" stroke-width="2" stroke-opacity="0.466667" d="M304,-233.87C304,-231.31 304,-229.2 304,-229.2 304,-229.2 394.17,-229.2 394.17,-229.2"/>
<polygon fill="#770000" fill-opacity="0.466667" stroke="#770000" stroke-width="2" stroke-opacity="0.466667" points="394.17,-231.3 400.17,-229.2 394.17,-227.1 394.17,-231.3"/>
</g>
<!-- src/graph&#45;utl/consolidate&#45;to&#45;pattern.js -->
<g id="node7" class="node">
<title>src/graph&#45;utl/consolidate&#45;to&#45;pattern.js</title>
<g id="a_node7"><a xlink:href="https://github.com/sverweij/dependency-cruiser/blob/develop/src/graph-utl/consolidate-to-pattern.js" xlink:title="consolidate&#45;to&#45;pattern.js">
<path fill="#ffcccc" stroke="black" d="M354,-282C354,-282 253,-282 253,-282 250,-282 247,-279 247,-276 247,-276 247,-270 247,-270 247,-267 250,-264 253,-264 253,-264 354,-264 354,-264 357,-264 360,-267 360,-270 360,-270 360,-276 360,-276 360,-279 357,-282 354,-282"/>
<text text-anchor="middle" x="303.5" y="-270.8" font-family="Helvetica,sans-Serif" font-size="9.00">consolidate&#45;to&#45;pattern.js</text>
</a>
</g>
</g>
<!-- src/graph&#45;utl/consolidate&#45;to&#45;pattern.js&#45;&gt;src/graph&#45;utl/consolidate&#45;module&#45;dependencies.js -->
<g id="edge6" class="edge">
<title>src/graph&#45;utl/consolidate&#45;to&#45;pattern.js&#45;&gt;src/graph&#45;utl/consolidate&#45;module&#45;dependencies.js</title>
<path fill="none" stroke="#770000" stroke-width="2" stroke-opacity="0.466667" d="M360.11,-276C380.23,-276 398,-276 398,-276 398,-276 398,-274.3 398,-274.3"/>
<polygon fill="#770000" fill-opacity="0.466667" stroke="#770000" stroke-width="2" stroke-opacity="0.466667" points="400.1,-274.3 398,-268.3 395.9,-274.3 400.1,-274.3"/>
</g>
<!-- src/graph&#45;utl/consolidate&#45;to&#45;pattern.js&#45;&gt;src/graph&#45;utl/consolidate&#45;modules.js -->
<g id="edge7" class="edge">
<title>src/graph&#45;utl/consolidate&#45;to&#45;pattern.js&#45;&gt;src/graph&#45;utl/consolidate&#45;modules.js</title>
<path fill="none" stroke="#770000" stroke-width="2" stroke-opacity="0.466667" d="M360.2,-272C364.38,-272 367,-272 367,-272 367,-272 367,-231.6 367,-231.6 367,-231.6 394.08,-231.6 394.08,-231.6"/>
<polygon fill="#770000" fill-opacity="0.466667" stroke="#770000" stroke-width="2" stroke-opacity="0.466667" points="394.08,-233.7 400.08,-231.6 394.08,-229.5 394.08,-233.7"/>
</g>
<!-- src/graph&#45;utl/filterbank.js -->
<g id="node8" class="node">
<title>src/graph&#45;utl/filterbank.js</title>
<g id="a_node8"><a xlink:href="https://github.com/sverweij/dependency-cruiser/blob/develop/src/graph-utl/filterbank.js" xlink:title="filterbank.js">
<path fill="#ffcccc" stroke="black" d="M328.5,-312C328.5,-312 278.5,-312 278.5,-312 275.5,-312 272.5,-309 272.5,-306 272.5,-306 272.5,-300 272.5,-300 272.5,-297 275.5,-294 278.5,-294 278.5,-294 328.5,-294 328.5,-294 331.5,-294 334.5,-297 334.5,-300 334.5,-300 334.5,-306 334.5,-306 334.5,-309 331.5,-312 328.5,-312"/>
<text text-anchor="middle" x="303.5" y="-300.8" font-family="Helvetica,sans-Serif" font-size="9.00">filterbank.js</text>
</a>
</g>
</g>
<!-- src/graph&#45;utl/filterbank.js&#45;&gt;src/graph&#45;utl/add&#45;focus.js -->
<g id="edge8" class="edge">
<title>src/graph&#45;utl/filterbank.js&#45;&gt;src/graph&#45;utl/add&#45;focus.js</title>
<path fill="none" stroke="#770000" stroke-width="2" stroke-opacity="0.466667" d="M334.52,-300.33C378.85,-300.33 455,-300.33 455,-300.33 455,-300.33 455,-300.11 455,-300.11"/>
<polygon fill="#770000" fill-opacity="0.466667" stroke="#770000" stroke-width="2" stroke-opacity="0.466667" points="457.1,-304.15 455,-298.15 452.9,-304.15 457.1,-304.15"/>
</g>
<!-- src/graph&#45;utl/filterbank.js&#45;&gt;src/graph&#45;utl/match&#45;facade.js -->
<g id="edge9" class="edge">
<title>src/graph&#45;utl/filterbank.js&#45;&gt;src/graph&#45;utl/match&#45;facade.js</title>
<path fill="none" stroke="#770000" stroke-width="2" stroke-opacity="0.466667" d="M334.6,-302.67C334.6,-302.67 542.8,-302.67 542.8,-302.67"/>
<polygon fill="#770000" fill-opacity="0.466667" stroke="#770000" stroke-width="2" stroke-opacity="0.466667" points="542.8,-304.77 548.8,-302.67 542.8,-300.57 542.8,-304.77"/>
</g>
<!-- src/graph&#45;utl/rule&#45;set.js -->
<g id="node9" class="node">
<title>src/graph&#45;utl/rule&#45;set.js</title>
<g id="a_node9"><a xlink:href="https://github.com/sverweij/dependency-cruiser/blob/develop/src/graph-utl/rule-set.js" xlink:title="rule&#45;set.js">
<path fill="#ffcccc" stroke="black" d="M325.5,-192C325.5,-192 281.5,-192 281.5,-192 278.5,-192 275.5,-189 275.5,-186 275.5,-186 275.5,-180 275.5,-180 275.5,-177 278.5,-174 281.5,-174 281.5,-174 325.5,-174 325.5,-174 328.5,-174 331.5,-177 331.5,-180 331.5,-180 331.5,-186 331.5,-186 331.5,-189 328.5,-192 325.5,-192"/>
<text text-anchor="middle" x="303.5" y="-180.8" font-family="Helvetica,sans-Serif" font-size="9.00">rule&#45;set.js</text>
</a>
</g>
</g>
<!-- src/graph&#45;utl/strip&#45;self&#45;transitions.js -->
<g id="node10" class="node">
<title>src/graph&#45;utl/strip&#45;self&#45;transitions.js</title>
<g id="a_node10"><a xlink:href="https://github.com/sverweij/dependency-cruiser/blob/develop/src/graph-utl/strip-self-transitions.js" xlink:title="strip&#45;self&#45;transitions.js">
<path fill="#ffcccc" stroke="black" d="M349.5,-222C349.5,-222 257.5,-222 257.5,-222 254.5,-222 251.5,-219 251.5,-216 251.5,-216 251.5,-210 251.5,-210 251.5,-207 254.5,-204 257.5,-204 257.5,-204 349.5,-204 349.5,-204 352.5,-204 355.5,-207 355.5,-210 355.5,-210 355.5,-216 355.5,-216 355.5,-219 352.5,-222 349.5,-222"/>
<text text-anchor="middle" x="303.5" y="-210.8" font-family="Helvetica,sans-Serif" font-size="9.00">strip&#45;self&#45;transitions.js</text>
</a>
</g>
</g>
<!-- src/report/anon -->
<g id="node11" class="node">
<title>src/report/anon</title>
<g id="a_node11"><a xlink:href="https://github.com/sverweij/dependency-cruiser/blob/develop/src/report/anon" xlink:title="anon">
<polygon fill="#ffccff" stroke="black" points="150.5,-42 98.5,-42 96.5,-40 96.5,-24 148.5,-24 150.5,-26 150.5,-42"/>
<polyline fill="none" stroke="black" points="148.5,-40 96.5,-40 "/>
<polyline fill="none" stroke="black" points="148.5,-40 148.5,-24 "/>
<polyline fill="none" stroke="black" points="148.5,-40 150.5,-42 "/>
<text text-anchor="middle" x="123.5" y="-30.8" font-family="Helvetica,sans-Serif" font-size="9.00">anon</text>
</a>
</g>
</g>
<!-- src/report/baseline.js -->
<g id="node12" class="node">
<title>src/report/baseline.js</title>
<g id="a_node12"><a xlink:href="https://github.com/sverweij/dependency-cruiser/blob/develop/src/report/baseline.js" xlink:title="baseline.js">
<path fill="#ffccff" stroke="black" d="M147,-72C147,-72 100,-72 100,-72 97,-72 94,-69 94,-66 94,-66 94,-60 94,-60 94,-57 97,-54 100,-54 100,-54 147,-54 147,-54 150,-54 153,-57 153,-60 153,-60 153,-66 153,-66 153,-69 150,-72 147,-72"/>
<text text-anchor="middle" x="123.5" y="-60.8" font-family="Helvetica,sans-Serif" font-size="9.00">baseline.js</text>
</a>
</g>
</g>
<!-- src/report/csv.js -->
<g id="node13" class="node">
<title>src/report/csv.js</title>
<g id="a_node13"><a xlink:href="https://github.com/sverweij/dependency-cruiser/blob/develop/src/report/csv.js" xlink:title="csv.js">
<path fill="#ffccff" stroke="black" d="M144.5,-102C144.5,-102 102.5,-102 102.5,-102 99.5,-102 96.5,-99 96.5,-96 96.5,-96 96.5,-90 96.5,-90 96.5,-87 99.5,-84 102.5,-84 102.5,-84 144.5,-84 144.5,-84 147.5,-84 150.5,-87 150.5,-90 150.5,-90 150.5,-96 150.5,-96 150.5,-99 147.5,-102 144.5,-102"/>
<text text-anchor="middle" x="123.5" y="-90.8" font-family="Helvetica,sans-Serif" font-size="9.00">csv.js</text>
</a>
</g>
</g>
<!-- src/report/utl -->
<g id="node14" class="node">
<title>src/report/utl</title>
<g id="a_node14"><a xlink:href="https://github.com/sverweij/dependency-cruiser/blob/develop/src/report/utl" xlink:title="utl">
<polygon fill="#ffccff" stroke="black" points="223,-145 171,-145 169,-143 169,-127 221,-127 223,-129 223,-145"/>
<polyline fill="none" stroke="black" points="221,-143 169,-143 "/>
<polyline fill="none" stroke="black" points="221,-143 221,-127 "/>
<polyline fill="none" stroke="black" points="221,-143 223,-145 "/>
<text text-anchor="middle" x="196" y="-133.8" font-family="Helvetica,sans-Serif" font-size="9.00">utl</text>
</a>
</g>
</g>
<!-- src/report/csv.js&#45;&gt;src/report/utl -->
<g id="edge10" class="edge">
<title>src/report/csv.js&#45;&gt;src/report/utl</title>
<path fill="none" stroke="#ff00ff" stroke-width="2" stroke-opacity="0.466667" d="M150.91,-93C171.44,-93 196,-93 196,-93 196,-93 196,-120.88 196,-120.88"/>
<polygon fill="#ff00ff" fill-opacity="0.466667" stroke="#ff00ff" stroke-width="2" stroke-opacity="0.466667" points="193.9,-120.88 196,-126.88 198.1,-120.88 193.9,-120.88"/>
</g>
<!-- src/report/dot -->
<g id="node15" class="node">
<title>src/report/dot</title>
<g id="a_node15"><a xlink:href="https://github.com/sverweij/dependency-cruiser/blob/develop/src/report/dot" xlink:title="dot">
<polygon fill="#ffccff" stroke="black" points="150.5,-236 98.5,-236 96.5,-234 96.5,-218 148.5,-218 150.5,-220 150.5,-236"/>
<polyline fill="none" stroke="black" points="148.5,-234 96.5,-234 "/>
<polyline fill="none" stroke="black" points="148.5,-234 148.5,-218 "/>
<polyline fill="none" stroke="black" points="148.5,-234 150.5,-236 "/>
<text text-anchor="middle" x="123.5" y="-224.8" font-family="Helvetica,sans-Serif" font-size="9.00">dot</text>
</a>
</g>
</g>
<!-- src/report/dot&#45;&gt;src/graph&#45;utl/compare.js -->
<g id="edge12" class="edge">
<title>src/report/dot&#45;&gt;src/graph&#45;utl/compare.js</title>
<path fill="none" stroke="#770000" stroke-width="2" stroke-opacity="0.466667" d="M124,-217.73C124,-210.38 124,-201.33 124,-201.33 124,-201.33 589,-201.33 589,-201.33 589,-201.33 589,-213.94 589,-213.94"/>
<polygon fill="#770000" fill-opacity="0.466667" stroke="#770000" stroke-width="2" stroke-opacity="0.466667" points="586.9,-213.94 589,-219.94 591.1,-213.94 586.9,-213.94"/>
</g>
<!-- src/report/dot&#45;&gt;src/graph&#45;utl/consolidate&#45;to&#45;folder.js -->
<g id="edge15" class="edge">
<title>src/report/dot&#45;&gt;src/graph&#45;utl/consolidate&#45;to&#45;folder.js</title>
<path fill="none" stroke="#770000" stroke-width="2" stroke-opacity="0.466667" d="M124,-236.24C124,-239.33 124,-242 124,-242 124,-242 243.64,-242 243.64,-242"/>
<polygon fill="#770000" fill-opacity="0.466667" stroke="#770000" stroke-width="2" stroke-opacity="0.466667" points="243.64,-244.1 249.64,-242 243.64,-239.9 243.64,-244.1"/>
</g>
<!-- src/report/dot&#45;&gt;src/graph&#45;utl/consolidate&#45;to&#45;pattern.js -->
<g id="edge13" class="edge">
<title>src/report/dot&#45;&gt;src/graph&#45;utl/consolidate&#45;to&#45;pattern.js</title>
<path fill="none" stroke="#770000" stroke-width="2" stroke-opacity="0.466667" d="M150.95,-224.4C158.67,-224.4 165,-224.4 165,-224.4 165,-224.4 165,-272 165,-272 165,-272 240.77,-272 240.77,-272"/>
<polygon fill="#770000" fill-opacity="0.466667" stroke="#770000" stroke-width="2" stroke-opacity="0.466667" points="240.77,-274.1 246.77,-272 240.77,-269.9 240.77,-274.1"/>
</g>
<!-- src/report/dot&#45;&gt;src/graph&#45;utl/filterbank.js -->
<g id="edge11" class="edge">
<title>src/report/dot&#45;&gt;src/graph&#45;utl/filterbank.js</title>
<path fill="none" stroke="#770000" stroke-width="2" stroke-opacity="0.466667" d="M150.75,-226.8C156.57,-226.8 161,-226.8 161,-226.8 161,-226.8 161,-302 161,-302 161,-302 266.23,-302 266.23,-302"/>
<polygon fill="#770000" fill-opacity="0.466667" stroke="#770000" stroke-width="2" stroke-opacity="0.466667" points="266.23,-304.1 272.23,-302 266.23,-299.9 266.23,-304.1"/>
</g>
<!-- src/report/dot&#45;&gt;src/graph&#45;utl/strip&#45;self&#45;transitions.js -->
<g id="edge14" class="edge">
<title>src/report/dot&#45;&gt;src/graph&#45;utl/strip&#45;self&#45;transitions.js</title>
<path fill="none" stroke="#770000" stroke-width="2" stroke-opacity="0.466667" d="M137,-217.63C137,-212.56 137,-207.33 137,-207.33 137,-207.33 245.28,-207.33 245.28,-207.33"/>
<polygon fill="#770000" fill-opacity="0.466667" stroke="#770000" stroke-width="2" stroke-opacity="0.466667" points="245.28,-209.43 251.28,-207.33 245.28,-205.23 245.28,-209.43"/>
</g>
<!-- src/report/error&#45;html -->
<g id="node16" class="node">
<title>src/report/error&#45;html</title>
<g id="a_node16"><a xlink:href="https://github.com/sverweij/dependency-cruiser/blob/develop/src/report/error-html" xlink:title="error&#45;html">
<polygon fill="#ffccff" stroke="black" points="151.5,-132 97.5,-132 95.5,-130 95.5,-114 149.5,-114 151.5,-116 151.5,-132"/>
<polyline fill="none" stroke="black" points="149.5,-130 95.5,-130 "/>
<polyline fill="none" stroke="black" points="149.5,-130 149.5,-114 "/>
<polyline fill="none" stroke="black" points="149.5,-130 151.5,-132 "/>
<text text-anchor="middle" x="123.5" y="-120.8" font-family="Helvetica,sans-Serif" font-size="9.00">error&#45;html</text>
</a>
</g>
</g>
<!-- src/report/error&#45;long.js -->
<g id="node17" class="node">
<title>src/report/error&#45;long.js</title>
<g id="a_node17"><a xlink:href="https://github.com/sverweij/dependency-cruiser/blob/develop/src/report/error-long.js" xlink:title="error&#45;long.js">
<path fill="#ffccff" stroke="black" d="M150,-192C150,-192 97,-192 97,-192 94,-192 91,-189 91,-186 91,-186 91,-180 91,-180 91,-177 94,-174 97,-174 97,-174 150,-174 150,-174 153,-174 156,-177 156,-180 156,-180 156,-186 156,-186 156,-189 153,-192 150,-192"/>
<text text-anchor="middle" x="123.5" y="-180.8" font-family="Helvetica,sans-Serif" font-size="9.00">error&#45;long.js</text>
</a>
</g>
</g>
<!-- src/report/error.js -->
<g id="node18" class="node">
<title>src/report/error.js</title>
<g id="a_node18"><a xlink:href="https://github.com/sverweij/dependency-cruiser/blob/develop/src/report/error.js" xlink:title="error.js">
<path fill="#ffccff" stroke="black" d="M217,-192C217,-192 175,-192 175,-192 172,-192 169,-189 169,-186 169,-186 169,-180 169,-180 169,-177 172,-174 175,-174 175,-174 217,-174 217,-174 220,-174 223,-177 223,-180 223,-180 223,-186 223,-186 223,-189 220,-192 217,-192"/>
<text text-anchor="middle" x="196" y="-180.8" font-family="Helvetica,sans-Serif" font-size="9.00">error.js</text>
</a>
</g>
</g>
<!-- src/report/error&#45;long.js&#45;&gt;src/report/error.js -->
<g id="edge16" class="edge">
<title>src/report/error&#45;long.js&#45;&gt;src/report/error.js</title>
<path fill="none" stroke="#ff00ff" stroke-width="2" stroke-opacity="0.466667" d="M156.36,-183C156.36,-183 162.9,-183 162.9,-183"/>
<polygon fill="#ff00ff" fill-opacity="0.466667" stroke="#ff00ff" stroke-width="2" stroke-opacity="0.466667" points="162.9,-185.1 168.9,-183 162.9,-180.9 162.9,-185.1"/>
</g>
<!-- src/report/error.js&#45;&gt;src/graph&#45;utl/rule&#45;set.js -->
<g id="edge17" class="edge">
<title>src/report/error.js&#45;&gt;src/graph&#45;utl/rule&#45;set.js</title>
<path fill="none" stroke="#770000" stroke-width="2" stroke-opacity="0.466667" d="M223.13,-186C223.13,-186 269.26,-186 269.26,-186"/>
<polygon fill="#770000" fill-opacity="0.466667" stroke="#770000" stroke-width="2" stroke-opacity="0.466667" points="269.26,-188.1 275.26,-186 269.26,-183.9 269.26,-188.1"/>
</g>
<!-- src/utl/wrap&#45;and&#45;indent.js -->
<g id="node19" class="node">
<title>src/utl/wrap&#45;and&#45;indent.js</title>
<g id="a_node19"><a xlink:href="https://github.com/sverweij/dependency-cruiser/blob/develop/src/utl/wrap-and-indent.js" xlink:title="utl&#45;module&#45;not&#45;shared&#45;enough">
<path fill="#cccccc" stroke="blue" d="M343,-132C343,-132 264,-132 264,-132 261,-132 258,-129 258,-126 258,-126 258,-120 258,-120 258,-117 261,-114 264,-114 264,-114 343,-114 343,-114 346,-114 349,-117 349,-120 349,-120 349,-126 349,-126 349,-129 346,-132 343,-132"/>
<text text-anchor="middle" x="303.5" y="-120.8" font-family="Helvetica,sans-Serif" font-size="9.00" fill="blue">wrap&#45;and&#45;indent.js</text>
</a>
</g>
</g>
<!-- src/report/error.js&#45;&gt;src/utl/wrap&#45;and&#45;indent.js -->
<g id="edge18" class="edge">
<title>src/report/error.js&#45;&gt;src/utl/wrap&#45;and&#45;indent.js</title>
<path fill="none" stroke="#aaaaaa" stroke-width="2" stroke-opacity="0.466667" d="M223.25,-180C243.27,-180 267,-180 267,-180 267,-180 267,-138.16 267,-138.16"/>
<polygon fill="#aaaaaa" fill-opacity="0.466667" stroke="#aaaaaa" stroke-width="2" stroke-opacity="0.466667" points="269.1,-138.16 267,-132.16 264.9,-138.16 269.1,-138.16"/>
</g>
<!-- src/report/html -->
<g id="node20" class="node">
<title>src/report/html</title>
<g id="a_node20"><a xlink:href="https://github.com/sverweij/dependency-cruiser/blob/develop/src/report/html" xlink:title="html">
<polygon fill="#ffccff" stroke="black" points="150.5,-162 98.5,-162 96.5,-160 96.5,-144 148.5,-144 150.5,-146 150.5,-162"/>
<polyline fill="none" stroke="black" points="148.5,-160 96.5,-160 "/>
<polyline fill="none" stroke="black" points="148.5,-160 148.5,-144 "/>
<polyline fill="none" stroke="black" points="148.5,-160 150.5,-162 "/>
<text text-anchor="middle" x="123.5" y="-150.8" font-family="Helvetica,sans-Serif" font-size="9.00">html</text>
</a>
</g>
</g>
<!-- src/report/html&#45;&gt;src/report/utl -->
<g id="edge19" class="edge">
<title>src/report/html&#45;&gt;src/report/utl</title>
<path fill="none" stroke="#ff00ff" stroke-width="2" stroke-opacity="0.466667" d="M124,-143.76C124,-140.67 124,-138 124,-138 124,-138 162.78,-138 162.78,-138"/>
<polygon fill="#ff00ff" fill-opacity="0.466667" stroke="#ff00ff" stroke-width="2" stroke-opacity="0.466667" points="162.78,-140.1 168.78,-138 162.78,-135.9 162.78,-140.1"/>
</g>
<!-- src/report/identity.js -->
<g id="node21" class="node">
<title>src/report/identity.js</title>
<g id="a_node21"><a xlink:href="https://github.com/sverweij/dependency-cruiser/blob/develop/src/report/identity.js" xlink:title="identity.js">
<path fill="#ffccff" stroke="black" d="M144.5,-266C144.5,-266 102.5,-266 102.5,-266 99.5,-266 96.5,-263 96.5,-260 96.5,-260 96.5,-254 96.5,-254 96.5,-251 99.5,-248 102.5,-248 102.5,-248 144.5,-248 144.5,-248 147.5,-248 150.5,-251 150.5,-254 150.5,-254 150.5,-260 150.5,-260 150.5,-263 147.5,-266 144.5,-266"/>
<text text-anchor="middle" x="123.5" y="-254.8" font-family="Helvetica,sans-Serif" font-size="9.00">identity.js</text>
</a>
</g>
</g>
<!-- src/report/index.js -->
<g id="node22" class="node">
<title>src/report/index.js</title>
<g id="a_node22"><a xlink:href="https://github.com/sverweij/dependency-cruiser/blob/develop/src/report/index.js" xlink:title="index.js">
<path fill="#ffccff" stroke="black" d="M72,-214C72,-214 30,-214 30,-214 27,-214 24,-211 24,-208 24,-208 24,-202 24,-202 24,-199 27,-196 30,-196 30,-196 72,-196 72,-196 75,-196 78,-199 78,-202 78,-202 78,-208 78,-208 78,-211 75,-214 72,-214"/>
<text text-anchor="middle" x="51" y="-202.8" font-family="Helvetica,sans-Serif" font-size="9.00">index.js</text>
</a>
</g>
</g>
<!-- src/report/index.js&#45;&gt;src/report/anon -->
<g id="edge20" class="edge">
<title>src/report/index.js&#45;&gt;src/report/anon</title>
<path fill="none" stroke="#ff00ff" stroke-width="2" stroke-opacity="0.466667" d="M32,-195.75C32,-160.03 32,-33 32,-33 32,-33 90.05,-33 90.05,-33"/>
<polygon fill="#ff00ff" fill-opacity="0.466667" stroke="#ff00ff" stroke-width="2" stroke-opacity="0.466667" points="90.05,-35.1 96.05,-33 90.05,-30.9 90.05,-35.1"/>
</g>
<!-- src/report/index.js&#45;&gt;src/report/baseline.js -->
<g id="edge21" class="edge">
<title>src/report/index.js&#45;&gt;src/report/baseline.js</title>
<path fill="none" stroke="#ff00ff" stroke-width="2" stroke-opacity="0.466667" d="M40,-195.68C40,-164.09 40,-63 40,-63 40,-63 87.83,-63 87.83,-63"/>
<polygon fill="#ff00ff" fill-opacity="0.466667" stroke="#ff00ff" stroke-width="2" stroke-opacity="0.466667" points="87.83,-65.1 93.83,-63 87.83,-60.9 87.83,-65.1"/>
</g>
<!-- src/report/index.js&#45;&gt;src/report/csv.js -->
<g id="edge22" class="edge">
<title>src/report/index.js&#45;&gt;src/report/csv.js</title>
<path fill="none" stroke="#ff00ff" stroke-width="2" stroke-opacity="0.466667" d="M48,-195.83C48,-169.09 48,-93 48,-93 48,-93 90.24,-93 90.24,-93"/>
<polygon fill="#ff00ff" fill-opacity="0.466667" stroke="#ff00ff" stroke-width="2" stroke-opacity="0.466667" points="90.24,-95.1 96.24,-93 90.24,-90.9 90.24,-95.1"/>
</g>
<!-- src/report/index.js&#45;&gt;src/report/dot -->
<g id="edge23" class="edge">
<title>src/report/index.js&#45;&gt;src/report/dot</title>
<path fill="none" stroke="#ff00ff" stroke-width="2" stroke-opacity="0.466667" d="M78.08,-210.67C93.59,-210.67 110,-210.67 110,-210.67 110,-210.67 110,-211.69 110,-211.69"/>
<polygon fill="#ff00ff" fill-opacity="0.466667" stroke="#ff00ff" stroke-width="2" stroke-opacity="0.466667" points="107.9,-211.69 110,-217.69 112.1,-211.69 107.9,-211.69"/>
</g>
<!-- src/report/index.js&#45;&gt;src/report/error&#45;html -->
<g id="edge25" class="edge">
<title>src/report/index.js&#45;&gt;src/report/error&#45;html</title>
<path fill="none" stroke="#ff00ff" stroke-width="2" stroke-opacity="0.466667" d="M55,-195.91C55,-174.56 55,-123 55,-123 55,-123 89.24,-123 89.24,-123"/>
<polygon fill="#ff00ff" fill-opacity="0.466667" stroke="#ff00ff" stroke-width="2" stroke-opacity="0.466667" points="89.24,-125.1 95.24,-123 89.24,-120.9 89.24,-125.1"/>
</g>
<!-- src/report/index.js&#45;&gt;src/report/error&#45;long.js -->
<g id="edge26" class="edge">
<title>src/report/index.js&#45;&gt;src/report/error&#45;long.js</title>
<path fill="none" stroke="#ff00ff" stroke-width="2" stroke-opacity="0.466667" d="M71,-195.8C71,-189.77 71,-183 71,-183 71,-183 84.85,-183 84.85,-183"/>
<polygon fill="#ff00ff" fill-opacity="0.466667" stroke="#ff00ff" stroke-width="2" stroke-opacity="0.466667" points="84.85,-185.1 90.85,-183 84.85,-180.9 84.85,-185.1"/>
</g>
<!-- src/report/index.js&#45;&gt;src/report/error.js -->
<g id="edge24" class="edge">
<title>src/report/index.js&#45;&gt;src/report/error.js</title>
<path fill="none" stroke="#ff00ff" stroke-width="2" stroke-opacity="0.466667" d="M78.27,-198.67C120.28,-198.67 196,-198.67 196,-198.67 196,-198.67 196,-198.03 196,-198.03"/>
<polygon fill="#ff00ff" fill-opacity="0.466667" stroke="#ff00ff" stroke-width="2" stroke-opacity="0.466667" points="198.1,-198.29 196,-192.29 193.9,-198.29 198.1,-198.29"/>
</g>
<!-- src/report/index.js&#45;&gt;src/report/html -->
<g id="edge27" class="edge">
<title>src/report/index.js&#45;&gt;src/report/html</title>
<path fill="none" stroke="#ff00ff" stroke-width="2" stroke-opacity="0.466667" d="M63,-195.94C63,-181.04 63,-153 63,-153 63,-153 90.44,-153 90.44,-153"/>
<polygon fill="#ff00ff" fill-opacity="0.466667" stroke="#ff00ff" stroke-width="2" stroke-opacity="0.466667" points="90.44,-155.1 96.44,-153 90.44,-150.9 90.44,-155.1"/>
</g>
<!-- src/report/index.js&#45;&gt;src/report/identity.js -->
<g id="edge28" class="edge">
<title>src/report/index.js&#45;&gt;src/report/identity.js</title>
<path fill="none" stroke="#ff00ff" stroke-width="2" stroke-opacity="0.466667" d="M69,-214.06C69,-228.96 69,-257 69,-257 69,-257 90.25,-257 90.25,-257"/>
<polygon fill="#ff00ff" fill-opacity="0.466667" stroke="#ff00ff" stroke-width="2" stroke-opacity="0.466667" points="90.25,-259.1 96.25,-257 90.25,-254.9 90.25,-259.1"/>
</g>
<!-- src/report/json.js -->
<g id="node23" class="node">
<title>src/report/json.js</title>
<g id="a_node23"><a xlink:href="https://github.com/sverweij/dependency-cruiser/blob/develop/src/report/json.js" xlink:title="json.js">
<path fill="#ffccff" stroke="black" d="M144.5,-296C144.5,-296 102.5,-296 102.5,-296 99.5,-296 96.5,-293 96.5,-290 96.5,-290 96.5,-284 96.5,-284 96.5,-281 99.5,-278 102.5,-278 102.5,-278 144.5,-278 144.5,-278 147.5,-278 150.5,-281 150.5,-284 150.5,-284 150.5,-290 150.5,-290 150.5,-293 147.5,-296 144.5,-296"/>
<text text-anchor="middle" x="123.5" y="-284.8" font-family="Helvetica,sans-Serif" font-size="9.00">json.js</text>
</a>
</g>
</g>
<!-- src/report/index.js&#45;&gt;src/report/json.js -->
<g id="edge29" class="edge">
<title>src/report/index.js&#45;&gt;src/report/json.js</title>
<path fill="none" stroke="#ff00ff" stroke-width="2" stroke-opacity="0.466667" d="M60,-214.09C60,-235.44 60,-287 60,-287 60,-287 90.2,-287 90.2,-287"/>
<polygon fill="#ff00ff" fill-opacity="0.466667" stroke="#ff00ff" stroke-width="2" stroke-opacity="0.466667" points="90.2,-289.1 96.2,-287 90.2,-284.9 90.2,-289.1"/>
</g>
<!-- src/report/plugins -->
<g id="node24" class="node">
<title>src/report/plugins</title>
<g id="a_node24"><a xlink:href="https://github.com/sverweij/dependency-cruiser/blob/develop/src/report/plugins" xlink:title="plugins">
<polygon fill="#ffccff" stroke="black" points="150.5,-326 98.5,-326 96.5,-324 96.5,-308 148.5,-308 150.5,-310 150.5,-326"/>
<polyline fill="none" stroke="black" points="148.5,-324 96.5,-324 "/>
<polyline fill="none" stroke="black" points="148.5,-324 148.5,-308 "/>
<polyline fill="none" stroke="black" points="148.5,-324 150.5,-326 "/>
<text text-anchor="middle" x="123.5" y="-314.8" font-family="Helvetica,sans-Serif" font-size="9.00">plugins</text>
</a>
</g>
</g>
<!-- src/report/index.js&#45;&gt;src/report/plugins -->
<g id="edge30" class="edge">
<title>src/report/index.js&#45;&gt;src/report/plugins</title>
<path fill="none" stroke="#ff00ff" stroke-width="2" stroke-opacity="0.466667" d="M51,-214.17C51,-240.91 51,-317 51,-317 51,-317 90.09,-317 90.09,-317"/>
<polygon fill="#ff00ff" fill-opacity="0.466667" stroke="#ff00ff" stroke-width="2" stroke-opacity="0.466667" points="90.09,-319.1 96.09,-317 90.09,-314.9 90.09,-319.1"/>
</g>
<!-- src/report/teamcity.js -->
<g id="node25" class="node">
<title>src/report/teamcity.js</title>
<g id="a_node25"><a xlink:href="https://github.com/sverweij/dependency-cruiser/blob/develop/src/report/teamcity.js" xlink:title="teamcity.js">
<path fill="#ffccff" stroke="black" d="M146.5,-356C146.5,-356 100.5,-356 100.5,-356 97.5,-356 94.5,-353 94.5,-350 94.5,-350 94.5,-344 94.5,-344 94.5,-341 97.5,-338 100.5,-338 100.5,-338 146.5,-338 146.5,-338 149.5,-338 152.5,-341 152.5,-344 152.5,-344 152.5,-350 152.5,-350 152.5,-353 149.5,-356 146.5,-356"/>
<text text-anchor="middle" x="123.5" y="-344.8" font-family="Helvetica,sans-Serif" font-size="9.00">teamcity.js</text>
</a>
</g>
</g>
<!-- src/report/index.js&#45;&gt;src/report/teamcity.js -->
<g id="edge31" class="edge">
<title>src/report/index.js&#45;&gt;src/report/teamcity.js</title>
<path fill="none" stroke="#ff00ff" stroke-width="2" stroke-opacity="0.466667" d="M42,-214.32C42,-245.91 42,-347 42,-347 42,-347 88.08,-347 88.08,-347"/>
<polygon fill="#ff00ff" fill-opacity="0.466667" stroke="#ff00ff" stroke-width="2" stroke-opacity="0.466667" points="88.08,-349.1 94.08,-347 88.08,-344.9 88.08,-349.1"/>
</g>
<!-- src/report/text.js -->
<g id="node26" class="node">
<title>src/report/text.js</title>
<g id="a_node26"><a xlink:href="https://github.com/sverweij/dependency-cruiser/blob/develop/src/report/text.js" xlink:title="text.js">
<path fill="#ffccff" stroke="black" d="M144.5,-386C144.5,-386 102.5,-386 102.5,-386 99.5,-386 96.5,-383 96.5,-380 96.5,-380 96.5,-374 96.5,-374 96.5,-371 99.5,-368 102.5,-368 102.5,-368 144.5,-368 144.5,-368 147.5,-368 150.5,-371 150.5,-374 150.5,-374 150.5,-380 150.5,-380 150.5,-383 147.5,-386 144.5,-386"/>
<text text-anchor="middle" x="123.5" y="-374.8" font-family="Helvetica,sans-Serif" font-size="9.00">text.js</text>
</a>
</g>
</g>
<!-- src/report/index.js&#45;&gt;src/report/text.js -->
<g id="edge32" class="edge">
<title>src/report/index.js&#45;&gt;src/report/text.js</title>
<path fill="none" stroke="#ff00ff" stroke-width="2" stroke-opacity="0.466667" d="M33,-214.25C33,-249.97 33,-377 33,-377 33,-377 90.35,-377 90.35,-377"/>
<polygon fill="#ff00ff" fill-opacity="0.466667" stroke="#ff00ff" stroke-width="2" stroke-opacity="0.466667" points="90.35,-379.1 96.35,-377 90.35,-374.9 90.35,-379.1"/>
</g>
</g>
</svg>
