<svg xmlns="http://www.w3.org/2000/svg" xmlns:xlink="http://www.w3.org/1999/xlink" width="1096" height="628pt" viewBox="0 0 822 628"><g class="graph" transform="translate(4 624)"><title>dependency-cruiser output</title><path fill="#fff" d="M-4 4v-628h822V4z"/><g class="cluster"><title>cluster_src</title><path fill="#fff" stroke="#000" stroke-width="2" d="M20-8h774c6 0 12-6 12-12v-580c0-6-6-12-12-12H20c-6 0-12 6-12 12v580c0 6 6 12 12 12"/><text xml:space="preserve" x="407" y="-599.45" font-family="Helvetica,sans-Serif" font-size="9" font-weight="bold" text-anchor="middle">src</text></g><g class="cluster"><title>cluster_src/graph-utl</title><path fill="#fff" stroke="#000" stroke-width="2" d="M221-376h441c6 0 12-6 12-12v-148c0-6-6-12-12-12H221c-6 0-12 6-12 12v148c0 6 6 12 12 12"/><text xml:space="preserve" x="441.5" y="-535.45" font-family="Helvetica,sans-Serif" font-size="9" font-weight="bold" text-anchor="middle">graph-utl</text></g><g class="cluster"><title>cluster_src/report</title><path fill="#fff" stroke="#000" stroke-width="2" d="M28-16h272.88c6 0 12-6 12-12v-328c0-6-6-12-12-12H28c-6 0-12 6-12 12v328c0 6 6 12 12 12"/><text xml:space="preserve" x="164.44" y="-355.45" font-family="Helvetica,sans-Serif" font-size="9" font-weight="bold" text-anchor="middle">report</text></g><g class="cluster"><title>cluster_src/utl</title><path fill="#fff" stroke="#000" stroke-width="2" d="M694-444h92c6 0 12-6 12-12v-118c0-6-6-12-12-12h-92c-6 0-12 6-12 12v118c0 6 6 12 12 12"/><text xml:space="preserve" x="740" y="-573.45" font-family="Helvetica,sans-Serif" font-size="9" font-weight="bold" text-anchor="middle">utl</text></g><g class="node"><title>src/graph-utl/add-focus.mjs</title><a xlink:href="https://github.com/sverweij/dependency-cruiser/blob/main/src/graph-utl/add-focus.mjs" xlink:title="add-focus.mjs">
<path fill="#fcc" stroke="#000" d="M469.83-417.88h-61.16c-2.96 0-5.92 2.96-5.92 5.92v5.92c0 2.96 2.96 5.92 5.92 5.92h61.16c2.96 0 5.92-2.96 5.92-5.92v-5.92c0-2.96-2.96-5.92-5.92-5.92"/>
<text xml:space="preserve" x="410.75" y="-405.32" font-family="Helvetica,sans-Serif" font-size="9">add-focus.mjs</text>
</a></g><g class="node"><title>src/graph-utl/indexed-module-graph.mjs</title><a xlink:href="https://github.com/sverweij/dependency-cruiser/blob/main/src/graph-utl/indexed-module-graph.mjs" xlink:title="indexed-module-graph.mjs">
<path fill="#fcc" stroke="#000" d="M660.08-401.88H545.67c-2.96 0-5.92 2.96-5.92 5.92v5.92c0 2.96 2.96 5.92 5.92 5.92h114.41c2.96 0 5.92-2.96 5.92-5.92v-5.92c0-2.96-2.96-5.92-5.92-5.92"/>
<text xml:space="preserve" x="547.75" y="-389.32" font-family="Helvetica,sans-Serif" font-size="9">indexed-module-graph.mjs</text>
</a></g><g class="edge"><title>src/graph-utl/add-focus.mjs-&gt;src/graph-utl/indexed-module-graph.mjs</title><path fill="none" stroke="#700" stroke-opacity=".467" stroke-width="2" d="M475.99-408H546v.58"/><path fill="#700" fill-opacity=".467" stroke="#700" stroke-opacity=".467" stroke-width="2" d="m548.1-411.27-2.1 6-2.1-6z"/></g><g class="node"><title>src/graph-utl/match-facade.mjs</title><a xlink:href="https://github.com/sverweij/dependency-cruiser/blob/main/src/graph-utl/match-facade.mjs" xlink:title="match-facade.mjs">
<path fill="#fcc" stroke="#000" d="M640.96-431.88h-76.17c-2.96 0-5.91 2.96-5.91 5.92v5.92c0 2.96 2.95 5.92 5.91 5.92h76.17c2.96 0 5.92-2.96 5.92-5.92v-5.92c0-2.96-2.96-5.92-5.92-5.92"/>
<text xml:space="preserve" x="566.88" y="-419.32" font-family="Helvetica,sans-Serif" font-size="9">match-facade.mjs</text>
</a></g><g class="edge"><title>src/graph-utl/add-focus.mjs-&gt;src/graph-utl/match-facade.mjs</title><path fill="none" stroke="#700" stroke-opacity=".467" stroke-width="2" d="M439-418.05v-6.83h110.5"/><path fill="#700" fill-opacity=".467" stroke="#700" stroke-opacity=".467" stroke-width="2" d="m549.5-426.98 6 2.1-6 2.1z"/></g><g class="node"><title>src/utl/regex-util.mjs</title><a xlink:href="https://github.com/sverweij/dependency-cruiser/blob/main/src/utl/regex-util.mjs" xlink:title="regex-util.mjs">
<path fill="#ccc" stroke="#000" d="M769.46-499.88h-58.92c-2.96 0-5.92 2.96-5.92 5.92v5.92c0 2.96 2.96 5.92 5.92 5.92h58.92c2.96 0 5.92-2.96 5.92-5.92v-5.92c0-2.96-2.96-5.92-5.92-5.92"/>
<text xml:space="preserve" x="712.62" y="-487.32" font-family="Helvetica,sans-Serif" font-size="9">regex-util.mjs</text>
</a></g><g class="edge"><title>src/graph-utl/match-facade.mjs-&gt;src/utl/regex-util.mjs</title><path fill="none" stroke="#aaa" stroke-opacity=".467" stroke-width="2" d="M642-432.2v-53.18h53.32"/><path fill="#aaa" fill-opacity=".467" stroke="#aaa" stroke-opacity=".467" stroke-width="2" d="m695.32-487.48 6 2.1-6 2.1z"/></g><g class="node"><title>src/graph-utl/compare.mjs</title><a xlink:href="https://github.com/sverweij/dependency-cruiser/blob/main/src/graph-utl/compare.mjs" xlink:title="compare.mjs">
<path fill="#fcc" stroke="#000" d="M631.21-461.88h-56.67c-2.96 0-5.92 2.96-5.92 5.92v5.92c0 2.96 2.96 5.92 5.92 5.92h56.67c2.96 0 5.91-2.96 5.91-5.92v-5.92c0-2.96-2.95-5.92-5.91-5.92"/>
<text xml:space="preserve" x="576.62" y="-449.32" font-family="Helvetica,sans-Serif" font-size="9">compare.mjs</text>
</a></g><g class="node"><title>src/graph-utl/consolidate-module-dependencies.mjs</title><a xlink:href="https://github.com/sverweij/dependency-cruiser/blob/main/src/graph-utl/consolidate-module-dependencies.mjs" xlink:title="consolidate-module-dependencies.mjs">
<path fill="#fcc" stroke="#000" d="M520.83-461.88H357.67c-2.96 0-5.92 2.96-5.92 5.92v5.92c0 2.96 2.96 5.92 5.92 5.92h163.16c2.96 0 5.92-2.96 5.92-5.92v-5.92c0-2.96-2.96-5.92-5.92-5.92"/>
<text xml:space="preserve" x="359.75" y="-449.32" font-family="Helvetica,sans-Serif" font-size="9">consolidate-module-dependencies.mjs</text>
</a></g><g class="edge"><title>src/graph-utl/consolidate-module-dependencies.mjs-&gt;src/graph-utl/compare.mjs</title><path fill="none" stroke="#700" stroke-opacity=".467" stroke-width="2" d="M526.81-455.96h32.52"/><path fill="#700" fill-opacity=".467" stroke="#700" stroke-opacity=".467" stroke-width="2" d="m559.33-458.06 6 2.1-6 2.1z"/></g><g class="node"><title>src/utl/array-util.mjs</title><a xlink:href="https://github.com/sverweij/dependency-cruiser/blob/main/src/utl/array-util.mjs" xlink:title="utl-module-not-shared-enough">
<path fill="#ccc" stroke="#00f" d="M768.33-469.88h-56.66c-2.96 0-5.92 2.96-5.92 5.92v5.92c0 2.96 2.96 5.92 5.92 5.92h56.66c2.96 0 5.92-2.96 5.92-5.92v-5.92c0-2.96-2.96-5.92-5.92-5.92"/>
<text xml:space="preserve" x="713.75" y="-457.32" fill="#00f" font-family="Helvetica,sans-Serif" font-size="9">array-util.mjs</text>
</a></g><g class="edge"><title>src/graph-utl/consolidate-module-dependencies.mjs-&gt;src/utl/array-util.mjs</title><path fill="none" stroke="#aaa" stroke-opacity=".467" stroke-width="2" d="M512-462.36v-3.52h184.34"/><path fill="#aaa" fill-opacity=".467" stroke="#aaa" stroke-opacity=".467" stroke-width="2" d="m696.34-467.98 6 2.1-6 2.1z"/></g><g class="node"><title>src/graph-utl/consolidate-modules.mjs</title><a xlink:href="https://github.com/sverweij/dependency-cruiser/blob/main/src/graph-utl/consolidate-modules.mjs" xlink:title="consolidate-modules.mjs">
<path fill="#fcc" stroke="#000" d="M492.33-491.88H386.17c-2.96 0-5.92 2.96-5.92 5.92v5.92c0 2.96 2.96 5.92 5.92 5.92h106.16c2.96 0 5.92-2.96 5.92-5.92v-5.92c0-2.96-2.96-5.92-5.92-5.92"/>
<text xml:space="preserve" x="388.25" y="-479.32" font-family="Helvetica,sans-Serif" font-size="9">consolidate-modules.mjs</text>
</a></g><g class="edge"><title>src/graph-utl/consolidate-modules.mjs-&gt;src/graph-utl/compare.mjs</title><path fill="none" stroke="#700" stroke-opacity=".467" stroke-width="2" d="M498.37-476.79H603v5.63"/><path fill="#700" fill-opacity=".467" stroke="#700" stroke-opacity=".467" stroke-width="2" d="m605.1-471.16-2.1 6-2.1-6z"/></g><g class="edge"><title>src/graph-utl/consolidate-modules.mjs-&gt;src/utl/array-util.mjs</title><path fill="none" stroke="#aaa" stroke-opacity=".467" stroke-width="2" d="M498.67-479.46H740v.92"/><path fill="#aaa" fill-opacity=".467" stroke="#aaa" stroke-opacity=".467" stroke-width="2" d="m742.1-479.26-2.1 6-2.1-6z"/></g><g class="node"><title>src/graph-utl/consolidate-to-folder.mjs</title><a xlink:href="https://github.com/sverweij/dependency-cruiser/blob/main/src/graph-utl/consolidate-to-folder.mjs" xlink:title="consolidate-to-folder.mjs">
<path fill="#fcc" stroke="#000" d="M330.21-461.88H225.54c-2.96 0-5.92 2.96-5.92 5.92v5.92c0 2.96 2.96 5.92 5.92 5.92h104.67c2.96 0 5.91-2.96 5.91-5.92v-5.92c0-2.96-2.95-5.92-5.91-5.92"/>
<text xml:space="preserve" x="227.62" y="-449.32" font-family="Helvetica,sans-Serif" font-size="9">consolidate-to-folder.mjs</text>
</a></g><g class="edge"><title>src/graph-utl/consolidate-to-folder.mjs-&gt;src/graph-utl/consolidate-module-dependencies.mjs</title><path fill="none" stroke="#700" stroke-opacity=".467" stroke-width="2" d="M336.59-450.04h5.84"/><path fill="#700" fill-opacity=".467" stroke="#700" stroke-opacity=".467" stroke-width="2" d="m342.43-452.14 6 2.1-6 2.1z"/></g><g class="edge"><title>src/graph-utl/consolidate-to-folder.mjs-&gt;src/graph-utl/consolidate-modules.mjs</title><path fill="none" stroke="#700" stroke-opacity=".467" stroke-width="2" d="M336.5-455.96H347V-483h23.76"/><path fill="#700" fill-opacity=".467" stroke="#700" stroke-opacity=".467" stroke-width="2" d="m370.76-485.1 6 2.1-6 2.1z"/></g><g class="node"><title>src/graph-utl/consolidate-to-pattern.mjs</title><a xlink:href="https://github.com/sverweij/dependency-cruiser/blob/main/src/graph-utl/consolidate-to-pattern.mjs" xlink:title="consolidate-to-pattern.mjs">
<path fill="#fcc" stroke="#000" d="M332.83-491.88H222.92c-2.96 0-5.92 2.96-5.92 5.92v5.92c0 2.96 2.96 5.92 5.92 5.92h109.91c2.96 0 5.92-2.96 5.92-5.92v-5.92c0-2.96-2.96-5.92-5.92-5.92"/>
<text xml:space="preserve" x="225" y="-479.32" font-family="Helvetica,sans-Serif" font-size="9">consolidate-to-pattern.mjs</text>
</a></g><g class="edge"><title>src/graph-utl/consolidate-to-pattern.mjs-&gt;src/graph-utl/consolidate-module-dependencies.mjs</title><path fill="none" stroke="#700" stroke-opacity=".467" stroke-width="2" d="M339.08-478.56H366v7.3"/><path fill="#700" fill-opacity=".467" stroke="#700" stroke-opacity=".467" stroke-width="2" d="m368.1-471.26-2.1 6-2.1-6z"/></g><g class="edge"><title>src/graph-utl/consolidate-to-pattern.mjs-&gt;src/graph-utl/consolidate-modules.mjs</title><path fill="none" stroke="#700" stroke-opacity=".467" stroke-width="2" d="M338.88-487.44h31.85"/><path fill="#700" fill-opacity=".467" stroke="#700" stroke-opacity=".467" stroke-width="2" d="m370.73-489.54 6 2.1-6 2.1z"/></g><g class="edge"><title>src/graph-utl/consolidate-to-pattern.mjs-&gt;src/utl/regex-util.mjs</title><path fill="none" stroke="#aaa" stroke-opacity=".467" stroke-width="2" d="M324-492.36v-3.52h371.14"/><path fill="#aaa" fill-opacity=".467" stroke="#aaa" stroke-opacity=".467" stroke-width="2" d="m695.14-497.98 6 2.1-6 2.1z"/></g><g class="node"><title>src/graph-utl/filter-bank.mjs</title><a xlink:href="https://github.com/sverweij/dependency-cruiser/blob/main/src/graph-utl/filter-bank.mjs" xlink:title="filter-bank.mjs">
<path fill="#fcc" stroke="#000" d="M308.46-431.88h-61.17c-2.96 0-5.91 2.96-5.91 5.92v5.92c0 2.96 2.95 5.92 5.91 5.92h61.17c2.96 0 5.92-2.96 5.92-5.92v-5.92c0-2.96-2.96-5.92-5.92-5.92"/>
<text xml:space="preserve" x="249.38" y="-419.32" font-family="Helvetica,sans-Serif" font-size="9">filter-bank.mjs</text>
</a></g><g class="edge"><title>src/graph-utl/filter-bank.mjs-&gt;src/graph-utl/add-focus.mjs</title><path fill="none" stroke="#700" stroke-opacity=".467" stroke-width="2" d="M278-413.76v5.76h115.23"/><path fill="#700" fill-opacity=".467" stroke="#700" stroke-opacity=".467" stroke-width="2" d="m393.23-410.1 6 2.1-6 2.1z"/></g><g class="edge"><title>src/graph-utl/filter-bank.mjs-&gt;src/graph-utl/indexed-module-graph.mjs</title><path fill="none" stroke="#700" stroke-opacity=".467" stroke-width="2" d="M314.84-421.38H552v10.06"/><path fill="#700" fill-opacity=".467" stroke="#700" stroke-opacity=".467" stroke-width="2" d="m554.1-411.32-2.1 6-2.1-6z"/></g><g class="edge"><title>src/graph-utl/filter-bank.mjs-&gt;src/graph-utl/match-facade.mjs</title><path fill="none" stroke="#700" stroke-opacity=".467" stroke-width="2" d="M314.84-428.38h234.57"/><path fill="#700" fill-opacity=".467" stroke="#700" stroke-opacity=".467" stroke-width="2" d="m549.41-430.48 6 2.1-6 2.1z"/></g><g class="node"><title>src/graph-utl/rule-set.mjs</title><a xlink:href="https://github.com/sverweij/dependency-cruiser/blob/main/src/graph-utl/rule-set.mjs" xlink:title="rule-set.mjs">
<path fill="#fcc" stroke="#000" d="M303.58-521.88h-51.41c-2.96 0-5.92 2.96-5.92 5.92v5.92c0 2.96 2.96 5.92 5.92 5.92h51.41c2.96 0 5.92-2.96 5.92-5.92v-5.92c0-2.96-2.96-5.92-5.92-5.92"/>
<text xml:space="preserve" x="254.25" y="-509.32" font-family="Helvetica,sans-Serif" font-size="9">rule-set.mjs</text>
</a></g><g class="node"><title>src/graph-utl/strip-self-transitions.mjs</title><a xlink:href="https://github.com/sverweij/dependency-cruiser/blob/main/src/graph-utl/strip-self-transitions.mjs" xlink:title="strip-self-transitions.mjs">
<path fill="#fcc" stroke="#000" d="M327.96-401.88H227.79c-2.96 0-5.91 2.96-5.91 5.92v5.92c0 2.96 2.95 5.92 5.91 5.92h100.17c2.96 0 5.92-2.96 5.92-5.92v-5.92c0-2.96-2.96-5.92-5.92-5.92"/>
<text xml:space="preserve" x="229.88" y="-389.32" font-family="Helvetica,sans-Serif" font-size="9">strip-self-transitions.mjs</text>
</a></g><g class="node"><title>src/report/anon</title><a xlink:href="https://github.com/sverweij/dependency-cruiser/blob/main/src/report/anon" xlink:title="anon">
<path fill="#fcf" stroke="#000" d="M88.62-41.88H36.6l-1.98 1.98v15.78h52.03l1.97-1.98z"/>
<path fill="none" stroke="#000" d="M86.65-39.9H34.62"/>
<path fill="none" stroke="#000" d="M86.65-39.9v15.78"/>
<path fill="none" stroke="#000" d="m86.65-39.9 1.97-1.98"/>
<text xml:space="preserve" x="51.12" y="-29.32" font-family="Helvetica,sans-Serif" font-size="9">anon</text>
</a></g><g class="node"><title>src/report/azure-devops.mjs</title><a xlink:href="https://github.com/sverweij/dependency-cruiser/blob/main/src/report/azure-devops.mjs" xlink:title="azure-devops.mjs">
<path fill="#fcf" stroke="#000" d="M195.08-116.88h-76.91c-2.96 0-5.92 2.96-5.92 5.92v5.92c0 2.96 2.96 5.92 5.92 5.92h76.91c2.96 0 5.92-2.96 5.92-5.92v-5.92c0-2.96-2.96-5.92-5.92-5.92"/>
<text xml:space="preserve" x="120.25" y="-104.33" font-family="Helvetica,sans-Serif" font-size="9">azure-devops.mjs</text>
</a></g><g class="node"><title>src/report/utl</title><a xlink:href="https://github.com/sverweij/dependency-cruiser/blob/main/src/report/utl" xlink:title="utl">
<path fill="#fcf" stroke="#000" d="M304.88-176.88h-52.03l-1.97 1.98v15.78h52.02l1.98-1.98z"/>
<path fill="none" stroke="#000" d="M302.9-174.9h-52.02"/>
<path fill="none" stroke="#000" d="M302.9-174.9v15.78"/>
<path fill="none" stroke="#000" d="m302.9-174.9 1.98-1.98"/>
<text xml:space="preserve" x="273" y="-164.32" font-family="Helvetica,sans-Serif" font-size="9">utl</text>
</a></g><g class="edge"><title>src/report/azure-devops.mjs-&gt;src/report/utl</title><path fill="none" stroke="#f0f" stroke-opacity=".467" stroke-width="2" d="M195-117.16v-47.88h46.71"/><path fill="#f0f" fill-opacity=".467" stroke="#f0f" stroke-opacity=".467" stroke-width="2" d="m241.71-167.14 6 2.1-6 2.1z"/></g><g class="node"><title>src/report/baseline.mjs</title><a xlink:href="https://github.com/sverweij/dependency-cruiser/blob/main/src/report/baseline.mjs" xlink:title="no-orphans">
<path fill="#fcf" stroke="red" d="M89.58-71.88H33.67c-2.96 0-5.92 2.96-5.92 5.92v5.92c0 2.96 2.96 5.92 5.92 5.92h55.91c2.96 0 5.92-2.96 5.92-5.92v-5.92c0-2.96-2.96-5.92-5.92-5.92"/>
<text xml:space="preserve" x="35.75" y="-59.33" fill="red" font-family="Helvetica,sans-Serif" font-size="9">baseline.mjs</text>
</a></g><g class="node"><title>src/report/csv.mjs</title><a xlink:href="https://github.com/sverweij/dependency-cruiser/blob/main/src/report/csv.mjs" xlink:title="csv.mjs">
<path fill="#fcf" stroke="#000" d="M177.71-146.88h-42.17c-2.96 0-5.92 2.96-5.92 5.92v5.92c0 2.96 2.96 5.92 5.92 5.92h42.17c2.96 0 5.91-2.96 5.91-5.92v-5.92c0-2.96-2.95-5.92-5.91-5.92"/>
<text xml:space="preserve" x="141.62" y="-134.32" font-family="Helvetica,sans-Serif" font-size="9">csv.mjs</text>
</a></g><g class="edge"><title>src/report/csv.mjs-&gt;src/report/utl</title><path fill="none" stroke="#f0f" stroke-opacity=".467" stroke-width="2" d="M184-138h80v-11.81"/><path fill="#f0f" fill-opacity=".467" stroke="#f0f" stroke-opacity=".467" stroke-width="2" d="m261.9-149.81 2.1-6 2.1 6z"/></g><g class="node"><title>src/report/d2.mjs</title><a xlink:href="https://github.com/sverweij/dependency-cruiser/blob/main/src/report/d2.mjs" xlink:title="d2.mjs">
<path fill="#fcf" stroke="#000" d="M177.71-56.88h-42.17c-2.96 0-5.92 2.96-5.92 5.92v5.92c0 2.96 2.96 5.92 5.92 5.92h42.17c2.96 0 5.91-2.96 5.91-5.92v-5.92c0-2.96-2.95-5.92-5.91-5.92"/>
<text xml:space="preserve" x="143.12" y="-44.33" font-family="Helvetica,sans-Serif" font-size="9">d2.mjs</text>
</a></g><g class="edge"><title>src/report/d2.mjs-&gt;src/report/utl</title><path fill="none" stroke="#f0f" stroke-opacity=".467" stroke-width="2" d="M183.82-48H291v-101.95"/><path fill="#f0f" fill-opacity=".467" stroke="#f0f" stroke-opacity=".467" stroke-width="2" d="m288.9-149.95 2.1-6 2.1 6z"/></g><g class="node"><title>src/report/dot</title><a xlink:href="https://github.com/sverweij/dependency-cruiser/blob/main/src/report/dot" xlink:title="dot">
<path fill="#fcf" stroke="#000" d="M183.62-311.88H131.6l-1.98 1.98v15.78h52.03l1.97-1.98z"/>
<path fill="none" stroke="#000" d="M181.65-309.9h-52.03"/>
<path fill="none" stroke="#000" d="M181.65-309.9v15.78"/>
<path fill="none" stroke="#000" d="m181.65-309.9 1.97-1.98"/>
<text xml:space="preserve" x="150.25" y="-299.32" font-family="Helvetica,sans-Serif" font-size="9">dot</text>
</a></g><g class="edge"><title>src/report/dot-&gt;src/graph-utl/compare.mjs</title><path fill="none" stroke="#700" stroke-opacity=".467" stroke-width="2" d="M183.84-298.07H535v-151.97h24.12"/><path fill="#700" fill-opacity=".467" stroke="#700" stroke-opacity=".467" stroke-width="2" d="m559.12-452.14 6 2.1-6 2.1z"/></g><g class="edge"><title>src/report/dot-&gt;src/graph-utl/consolidate-to-folder.mjs</title><path fill="none" stroke="#700" stroke-opacity=".467" stroke-width="2" d="M184.04-307.93H209V-453h1.14"/><path fill="#700" fill-opacity=".467" stroke="#700" stroke-opacity=".467" stroke-width="2" d="m210.14-455.1 6 2.1-6 2.1z"/></g><g class="edge"><title>src/report/dot-&gt;src/graph-utl/consolidate-to-pattern.mjs</title><path fill="none" stroke="#700" stroke-opacity=".467" stroke-width="2" d="M183.92-309.9H205V-483h2.68"/><path fill="#700" fill-opacity=".467" stroke="#700" stroke-opacity=".467" stroke-width="2" d="m207.68-485.1 6 2.1-6 2.1z"/></g><g class="edge"><title>src/report/dot-&gt;src/utl/regex-util.mjs</title><path fill="none" stroke="#aaa" stroke-opacity=".467" stroke-width="2" d="M183.85-300.04H531v-188.58h164.52"/><path fill="#aaa" fill-opacity=".467" stroke="#aaa" stroke-opacity=".467" stroke-width="2" d="m695.52-490.73 6 2.1-6 2.1z"/></g><g class="edge"><title>src/report/dot-&gt;src/graph-utl/filter-bank.mjs</title><path fill="none" stroke="#700" stroke-opacity=".467" stroke-width="2" d="M183.82-305.96H213V-423h18.86"/><path fill="#700" fill-opacity=".467" stroke="#700" stroke-opacity=".467" stroke-width="2" d="m231.86-425.1 6 2.1-6 2.1z"/></g><g class="edge"><title>src/report/dot-&gt;src/graph-utl/strip-self-transitions.mjs</title><path fill="none" stroke="#700" stroke-opacity=".467" stroke-width="2" d="M183.94-303.99H236v-70.79"/><path fill="#700" fill-opacity=".467" stroke="#700" stroke-opacity=".467" stroke-width="2" d="m233.9-374.78 2.1-6 2.1 6z"/></g><g class="edge"><title>src/report/dot-&gt;src/report/utl</title><path fill="none" stroke="#f0f" stroke-opacity=".467" stroke-width="2" d="M184.05-296.1H283v109.86"/><path fill="#f0f" fill-opacity=".467" stroke="#f0f" stroke-opacity=".467" stroke-width="2" d="m285.1-186.24-2.1 6-2.1-6z"/></g><g class="node"><title>src/utl/object-util.mjs</title><a xlink:href="https://github.com/sverweij/dependency-cruiser/blob/main/src/utl/object-util.mjs" xlink:title="utl-module-not-shared-enough">
<path fill="#ccc" stroke="#00f" d="M770.21-529.88h-60.42c-2.96 0-5.91 2.96-5.91 5.92v5.92c0 2.96 2.95 5.92 5.91 5.92h60.42c2.96 0 5.91-2.96 5.91-5.92v-5.92c0-2.96-2.95-5.92-5.91-5.92"/>
<text xml:space="preserve" x="711.88" y="-517.33" fill="#00f" font-family="Helvetica,sans-Serif" font-size="9">object-util.mjs</text>
</a></g><g class="edge"><title>src/report/dot-&gt;src/utl/object-util.mjs</title><path fill="none" stroke="#aaa" stroke-opacity=".467" stroke-width="2" d="M183.73-302.01H343V-517h351.69"/><path fill="#aaa" fill-opacity=".467" stroke="#aaa" stroke-opacity=".467" stroke-width="2" d="m694.69-519.1 6 2.1-6 2.1z"/></g><g class="node"><title>src/report/dot-webpage</title><a xlink:href="https://github.com/sverweij/dependency-cruiser/blob/main/src/report/dot-webpage" xlink:title="dot-webpage">
<path fill="#fcf" stroke="#000" d="M96.62-191.88H28.6l-1.98 1.98v15.78h68.03l1.97-1.98z"/>
<path fill="none" stroke="#000" d="M94.65-189.9H26.62"/>
<path fill="none" stroke="#000" d="M94.65-189.9v15.78"/>
<path fill="none" stroke="#000" d="m94.65-189.9 1.97-1.98"/>
<text xml:space="preserve" x="34.62" y="-179.32" font-family="Helvetica,sans-Serif" font-size="9">dot-webpage</text>
</a></g><g class="edge"><title>src/report/dot-webpage-&gt;src/report/dot</title><path fill="none" stroke="#f0f" stroke-opacity=".467" stroke-width="2" d="M97-183h7v-120h16.36"/><path fill="#f0f" fill-opacity=".467" stroke="#f0f" stroke-opacity=".467" stroke-width="2" d="m120.36-305.1 6 2.1-6 2.1z"/></g><g class="node"><title>src/report/error-html</title><a xlink:href="https://github.com/sverweij/dependency-cruiser/blob/main/src/report/error-html" xlink:title="error-html">
<path fill="#fcf" stroke="#000" d="M184.5-176.88h-53.78l-1.97 1.98v15.78h53.78l1.97-1.98z"/>
<path fill="none" stroke="#000" d="M182.53-174.9h-53.78"/>
<path fill="none" stroke="#000" d="M182.53-174.9v15.78"/>
<path fill="none" stroke="#000" d="m182.53-174.9 1.97-1.98"/>
<text xml:space="preserve" x="136.75" y="-164.32" font-family="Helvetica,sans-Serif" font-size="9">error-html</text>
</a></g><g class="edge"><title>src/report/error-html-&gt;src/report/utl</title><path fill="none" stroke="#f0f" stroke-opacity=".467" stroke-width="2" d="M184.75-170.96h56.96"/><path fill="#f0f" fill-opacity=".467" stroke="#f0f" stroke-opacity=".467" stroke-width="2" d="m241.71-173.06 6 2.1-6 2.1z"/></g><g class="node"><title>src/report/error-long.mjs</title><a xlink:href="https://github.com/sverweij/dependency-cruiser/blob/main/src/report/error-long.mjs" xlink:title="error-long.mjs">
<path fill="#fcf" stroke="#000" d="M92.21-251.88H31.04c-2.96 0-5.92 2.96-5.92 5.92v5.92c0 2.96 2.96 5.92 5.92 5.92h61.17c2.96 0 5.91-2.96 5.91-5.92v-5.92c0-2.96-2.95-5.92-5.91-5.92"/>
<text xml:space="preserve" x="33.12" y="-239.32" font-family="Helvetica,sans-Serif" font-size="9">error-long.mjs</text>
</a></g><g class="node"><title>src/report/error.mjs</title><a xlink:href="https://github.com/sverweij/dependency-cruiser/blob/main/src/report/error.mjs" xlink:title="error.mjs">
<path fill="#fcf" stroke="#000" d="M177.71-341.88h-42.17c-2.96 0-5.92 2.96-5.92 5.92v5.92c0 2.96 2.96 5.92 5.92 5.92h42.17c2.96 0 5.91-2.96 5.91-5.92v-5.92c0-2.96-2.95-5.92-5.91-5.92"/>
<text xml:space="preserve" x="138.62" y="-329.32" font-family="Helvetica,sans-Serif" font-size="9">error.mjs</text>
</a></g><g class="edge"><title>src/report/error-long.mjs-&gt;src/report/error.mjs</title><path fill="none" stroke="#f0f" stroke-opacity=".467" stroke-width="2" d="M98.56-243H102v-90h18.29"/><path fill="#f0f" fill-opacity=".467" stroke="#f0f" stroke-opacity=".467" stroke-width="2" d="m120.29-335.1 6 2.1-6 2.1z"/></g><g class="edge"><title>src/report/error.mjs-&gt;src/graph-utl/rule-set.mjs</title><path fill="none" stroke="#700" stroke-opacity=".467" stroke-width="2" d="M157-342.17V-513h79.77"/><path fill="#700" fill-opacity=".467" stroke="#700" stroke-opacity=".467" stroke-width="2" d="m236.77-515.1 6 2.1-6 2.1z"/></g><g class="edge"><title>src/report/error.mjs-&gt;src/report/utl</title><path fill="none" stroke="#f0f" stroke-opacity=".467" stroke-width="2" d="M184.09-330.04H294v143.84"/><path fill="#f0f" fill-opacity=".467" stroke="#f0f" stroke-opacity=".467" stroke-width="2" d="m296.1-186.2-2.1 6-2.1-6z"/></g><g class="node"><title>src/utl/wrap-and-indent.mjs</title><a xlink:href="https://github.com/sverweij/dependency-cruiser/blob/main/src/utl/wrap-and-indent.mjs" xlink:title="utl-module-not-shared-enough">
<path fill="#ccc" stroke="#00f" d="M784.08-559.88h-88.16c-2.96 0-5.92 2.96-5.92 5.92v5.92c0 2.96 2.96 5.92 5.92 5.92h88.16c2.96 0 5.92-2.96 5.92-5.92v-5.92c0-2.96-2.96-5.92-5.92-5.92"/>
<text xml:space="preserve" x="698" y="-547.33" fill="#00f" font-family="Helvetica,sans-Serif" font-size="9">wrap-and-indent.mjs</text>
</a></g><g class="edge"><title>src/report/error.mjs-&gt;src/utl/wrap-and-indent.mjs</title><path fill="none" stroke="#aaa" stroke-opacity=".467" stroke-width="2" d="M183.79-335.96H697v-196.77"/><path fill="#aaa" fill-opacity=".467" stroke="#aaa" stroke-opacity=".467" stroke-width="2" d="m694.9-532.73 2.1-6 2.1 6z"/></g><g class="node"><title>src/report/html</title><a xlink:href="https://github.com/sverweij/dependency-cruiser/blob/main/src/report/html" xlink:title="html">
<path fill="#fcf" stroke="#000" d="M183.62-86.88H131.6l-1.98 1.98v15.78h52.03l1.97-1.98z"/>
<path fill="none" stroke="#000" d="M181.65-84.9h-52.03"/>
<path fill="none" stroke="#000" d="M181.65-84.9v15.78"/>
<path fill="none" stroke="#000" d="m181.65-84.9 1.97-1.98"/>
<text xml:space="preserve" x="148" y="-74.33" font-family="Helvetica,sans-Serif" font-size="9">html</text>
</a></g><g class="edge"><title>src/report/html-&gt;src/report/utl</title><path fill="none" stroke="#f0f" stroke-opacity=".467" stroke-width="2" d="M183.86-78H278v-71.68"/><path fill="#f0f" fill-opacity=".467" stroke="#f0f" stroke-opacity=".467" stroke-width="2" d="m275.9-149.68 2.1-6 2.1 6z"/></g><g class="node"><title>src/report/identity.mjs</title><a xlink:href="https://github.com/sverweij/dependency-cruiser/blob/main/src/report/identity.mjs" xlink:title="identity.mjs">
<path fill="#fcf" stroke="#000" d="M86.58-161.88H36.67c-2.96 0-5.92 2.96-5.92 5.92v5.92c0 2.96 2.96 5.92 5.92 5.92h49.91c2.96 0 5.92-2.96 5.92-5.92v-5.92c0-2.96-2.96-5.92-5.92-5.92"/>
<text xml:space="preserve" x="38.75" y="-149.32" font-family="Helvetica,sans-Serif" font-size="9">identity.mjs</text>
</a></g><g class="node"><title>src/report/index.mjs</title><a xlink:href="https://github.com/sverweij/dependency-cruiser/blob/main/src/report/index.mjs" xlink:title="index.mjs">
<path fill="#fcf" stroke="#000" d="M83.21-131.88H40.04c-2.96 0-5.92 2.96-5.92 5.92v5.92c0 2.96 2.96 5.92 5.92 5.92h43.17c2.96 0 5.91-2.96 5.91-5.92v-5.92c0-2.96-2.95-5.92-5.91-5.92"/>
<text xml:space="preserve" x="42.12" y="-119.33" font-family="Helvetica,sans-Serif" font-size="9">index.mjs</text>
</a></g><g class="node"><title>src/report/plugins.mjs</title><a xlink:href="https://github.com/sverweij/dependency-cruiser/blob/main/src/report/plugins.mjs" xlink:title="plugins.mjs">
<path fill="#fcf" stroke="#000" d="M181.96-236.88h-50.67c-2.96 0-5.91 2.96-5.91 5.92v5.92c0 2.96 2.95 5.92 5.91 5.92h50.67c2.96 0 5.92-2.96 5.92-5.92v-5.92c0-2.96-2.96-5.92-5.92-5.92"/>
<text xml:space="preserve" x="133.38" y="-224.32" font-family="Helvetica,sans-Serif" font-size="9">plugins.mjs</text>
</a></g><g class="edge"><title>src/report/index.mjs-&gt;src/report/plugins.mjs</title><path fill="none" stroke="#f0f" stroke-opacity=".467" stroke-width="2" d="M89.59-123H107v-105h8.89"/><path fill="#f0f" fill-opacity=".467" stroke="#f0f" stroke-opacity=".467" stroke-width="2" d="m115.89-230.1 6 2.1-6 2.1z"/></g><g class="node"><title>src/report/json.mjs</title><a xlink:href="https://github.com/sverweij/dependency-cruiser/blob/main/src/report/json.mjs" xlink:title="json.mjs">
<path fill="#fcf" stroke="#000" d="M82.71-221.88H40.54c-2.96 0-5.92 2.96-5.92 5.92v5.92c0 2.96 2.96 5.92 5.92 5.92h42.17c2.96 0 5.91-2.96 5.91-5.92v-5.92c0-2.96-2.95-5.92-5.91-5.92"/>
<text xml:space="preserve" x="44.75" y="-209.32" font-family="Helvetica,sans-Serif" font-size="9">json.mjs</text>
</a></g><g class="node"><title>src/report/markdown.mjs</title><a xlink:href="https://github.com/sverweij/dependency-cruiser/blob/main/src/report/markdown.mjs" xlink:title="markdown.mjs">
<path fill="#fcf" stroke="#000" d="M93.33-101.88H29.92c-2.96 0-5.92 2.96-5.92 5.92v5.92c0 2.96 2.96 5.92 5.92 5.92h63.41c2.96 0 5.92-2.96 5.92-5.92v-5.92c0-2.96-2.96-5.92-5.92-5.92"/>
<text xml:space="preserve" x="32" y="-89.33" font-family="Helvetica,sans-Serif" font-size="9">markdown.mjs</text>
</a></g><g class="edge"><title>src/report/markdown.mjs-&gt;src/report/error-html</title><path fill="none" stroke="#f0f" stroke-opacity=".467" stroke-width="2" d="M99.74-93H110v-75h9.4"/><path fill="#f0f" fill-opacity=".467" stroke="#f0f" stroke-opacity=".467" stroke-width="2" d="m119.4-170.1 6 2.1-6 2.1z"/></g><g class="node"><title>src/report/mermaid.mjs</title><a xlink:href="https://github.com/sverweij/dependency-cruiser/blob/main/src/report/mermaid.mjs" xlink:title="no-orphans">
<path fill="#fcf" stroke="red" d="M89.96-281.88H33.29c-2.96 0-5.91 2.96-5.91 5.92v5.92c0 2.96 2.95 5.92 5.91 5.92h56.67c2.96 0 5.92-2.96 5.92-5.92v-5.92c0-2.96-2.96-5.92-5.92-5.92"/>
<text xml:space="preserve" x="35.38" y="-269.32" fill="red" font-family="Helvetica,sans-Serif" font-size="9">mermaid.mjs</text>
</a></g><g class="node"><title>src/report/metrics.mjs</title><a xlink:href="https://github.com/sverweij/dependency-cruiser/blob/main/src/report/metrics.mjs" xlink:title="metrics.mjs">
<path fill="#fcf" stroke="#000" d="M181.58-206.88h-49.91c-2.96 0-5.92 2.96-5.92 5.92v5.92c0 2.96 2.96 5.92 5.92 5.92h49.91c2.96 0 5.92-2.96 5.92-5.92v-5.92c0-2.96-2.96-5.92-5.92-5.92"/>
<text xml:space="preserve" x="133.75" y="-194.32" font-family="Helvetica,sans-Serif" font-size="9">metrics.mjs</text>
</a></g><g class="edge"><title>src/report/metrics.mjs-&gt;src/report/utl</title><path fill="none" stroke="#f0f" stroke-opacity=".467" stroke-width="2" d="M187.96-198H262v11.81"/><path fill="#f0f" fill-opacity=".467" stroke="#f0f" stroke-opacity=".467" stroke-width="2" d="m264.1-186.19-2.1 6-2.1-6z"/></g><g class="node"><title>src/report/null.mjs</title><a xlink:href="https://github.com/sverweij/dependency-cruiser/blob/main/src/report/null.mjs" xlink:title="null.mjs">
<path fill="#fcf" stroke="#000" d="M82.71-311.88H40.54c-2.96 0-5.92 2.96-5.92 5.92v5.92c0 2.96 2.96 5.92 5.92 5.92h42.17c2.96 0 5.91-2.96 5.91-5.92v-5.92c0-2.96-2.95-5.92-5.91-5.92"/>
<text xml:space="preserve" x="45.88" y="-299.32" font-family="Helvetica,sans-Serif" font-size="9">null.mjs</text>
</a></g><g class="node"><title>src/report/teamcity.mjs</title><a xlink:href="https://github.com/sverweij/dependency-cruiser/blob/main/src/report/teamcity.mjs" xlink:title="teamcity.mjs">
<path fill="#fcf" stroke="#000" d="M183.83-266.88h-54.41c-2.96 0-5.92 2.96-5.92 5.92v5.92c0 2.96 2.96 5.92 5.92 5.92h54.41c2.96 0 5.92-2.96 5.92-5.92v-5.92c0-2.96-2.96-5.92-5.92-5.92"/>
<text xml:space="preserve" x="131.5" y="-254.32" font-family="Helvetica,sans-Serif" font-size="9">teamcity.mjs</text>
</a></g><g class="edge"><title>src/report/teamcity.mjs-&gt;src/report/utl</title><path fill="none" stroke="#f0f" stroke-opacity=".467" stroke-width="2" d="M190-258h82v71.68"/><path fill="#f0f" fill-opacity=".467" stroke="#f0f" stroke-opacity=".467" stroke-width="2" d="m274.1-186.32-2.1 6-2.1-6z"/></g><g class="node"><title>src/report/text.mjs</title><a xlink:href="https://github.com/sverweij/dependency-cruiser/blob/main/src/report/text.mjs" xlink:title="no-orphans">
<path fill="#fcf" stroke="red" d="M82.71-341.88H40.54c-2.96 0-5.92 2.96-5.92 5.92v5.92c0 2.96 2.96 5.92 5.92 5.92h42.17c2.96 0 5.91-2.96 5.91-5.92v-5.92c0-2.96-2.95-5.92-5.91-5.92"/>
<text xml:space="preserve" x="46.25" y="-329.32" fill="red" font-family="Helvetica,sans-Serif" font-size="9">text.mjs</text>
</a></g></g></svg>