<?xml version="1.0" encoding="UTF-8" standalone="no"?>
<!DOCTYPE svg PUBLIC "-//W3C//DTD SVG 1.1//EN"
 "http://www.w3.org/Graphics/SVG/1.1/DTD/svg11.dtd">
<!-- Generated by graphviz version 8.0.1 (20230327.1645)
 -->
<!-- Title: dependency&#45;cruiser output Pages: 1 -->
<svg width="707pt" height="718pt"
 viewBox="0.00 0.00 707.00 718.00" xmlns="http://www.w3.org/2000/svg" xmlns:xlink="http://www.w3.org/1999/xlink">
<g id="graph0" class="graph" transform="scale(1 1) rotate(0) translate(4 714)">
<title>dependency&#45;cruiser output</title>
<polygon fill="white" stroke="none" points="-4,4 -4,-714 703,-714 703,4 -4,4"/>
<g id="clust1" class="cluster">
<title>cluster_src</title>
<path fill="#ffffff" stroke="black" stroke-width="2" d="M20,-8C20,-8 679,-8 679,-8 685,-8 691,-14 691,-20 691,-20 691,-690 691,-690 691,-696 685,-702 679,-702 679,-702 20,-702 20,-702 14,-702 8,-696 8,-690 8,-690 8,-20 8,-20 8,-14 14,-8 20,-8"/>
<text text-anchor="middle" x="349.5" y="-690.8" font-family="Helvetica,sans-Serif" font-weight="bold" font-size="9.00">src</text>
</g>
<g id="clust2" class="cluster">
<title>cluster_src/graph&#45;utl</title>
<path fill="#ffffff" stroke="black" stroke-width="2" d="M251,-444C251,-444 671,-444 671,-444 677,-444 683,-450 683,-456 683,-456 683,-604 683,-604 683,-610 677,-616 671,-616 671,-616 251,-616 251,-616 245,-616 239,-610 239,-604 239,-604 239,-456 239,-456 239,-450 245,-444 251,-444"/>
<text text-anchor="middle" x="461" y="-604.8" font-family="Helvetica,sans-Serif" font-weight="bold" font-size="9.00">graph&#45;utl</text>
</g>
<g id="clust3" class="cluster">
<title>cluster_src/report</title>
<path fill="#ffffff" stroke="black" stroke-width="2" d="M28,-16C28,-16 327.5,-16 327.5,-16 333.5,-16 339.5,-22 339.5,-28 339.5,-28 339.5,-424 339.5,-424 339.5,-430 333.5,-436 327.5,-436 327.5,-436 28,-436 28,-436 22,-436 16,-430 16,-424 16,-424 16,-28 16,-28 16,-22 22,-16 28,-16"/>
<text text-anchor="middle" x="177.75" y="-424.8" font-family="Helvetica,sans-Serif" font-weight="bold" font-size="9.00">report</text>
</g>
<g id="clust4" class="cluster">
<title>cluster_src/utl</title>
<path fill="#ffffff" stroke="black" stroke-width="2" d="M262,-624C262,-624 347,-624 347,-624 353,-624 359,-630 359,-636 359,-636 359,-664 359,-664 359,-670 353,-676 347,-676 347,-676 262,-676 262,-676 256,-676 250,-670 250,-664 250,-664 250,-636 250,-636 250,-630 256,-624 262,-624"/>
<text text-anchor="start" x="299" y="-664.8" font-family="Helvetica,sans-Serif" font-weight="bold" font-size="9.00">utl</text>
</g>
<!-- src/graph&#45;utl/add&#45;focus.js -->
<g id="node1" class="node">
<title>src/graph&#45;utl/add&#45;focus.js</title>
<g id="a_node1"><a xlink:href="https://github.com/sverweij/dependency-cruiser/blob/develop/src/graph-utl/add-focus.js" xlink:title="add&#45;focus.js">
<path fill="#ffcccc" stroke="black" d="M486,-560C486,-560 432,-560 432,-560 429,-560 426,-557 426,-554 426,-554 426,-548 426,-548 426,-545 429,-542 432,-542 432,-542 486,-542 486,-542 489,-542 492,-545 492,-548 492,-548 492,-554 492,-554 492,-557 489,-560 486,-560"/>
<text text-anchor="start" x="434" y="-548.8" font-family="Helvetica,sans-Serif" font-size="9.00">add&#45;focus.js</text>
</a>
</g>
</g>
<!-- src/graph&#45;utl/indexed&#45;module&#45;graph.js -->
<g id="node2" class="node">
<title>src/graph&#45;utl/indexed&#45;module&#45;graph.js</title>
<g id="a_node2"><a xlink:href="https://github.com/sverweij/dependency-cruiser/blob/develop/src/graph-utl/indexed-module-graph.js" xlink:title="indexed&#45;module&#45;graph.js">
<path fill="#ffcccc" stroke="black" d="M669,-578C669,-578 562,-578 562,-578 559,-578 556,-575 556,-572 556,-572 556,-566 556,-566 556,-563 559,-560 562,-560 562,-560 669,-560 669,-560 672,-560 675,-563 675,-566 675,-566 675,-572 675,-572 675,-575 672,-578 669,-578"/>
<text text-anchor="start" x="564" y="-566.8" font-family="Helvetica,sans-Serif" font-size="9.00">indexed&#45;module&#45;graph.js</text>
</a>
</g>
</g>
<!-- src/graph&#45;utl/add&#45;focus.js&#45;&gt;src/graph&#45;utl/indexed&#45;module&#45;graph.js -->
<g id="edge1" class="edge">
<title>src/graph&#45;utl/add&#45;focus.js&#45;&gt;src/graph&#45;utl/indexed&#45;module&#45;graph.js</title>
<path fill="none" stroke="#770000" stroke-width="2" stroke-opacity="0.466667" d="M492.27,-551C523.68,-551 566,-551 566,-551 566,-551 566,-551.86 566,-551.86"/>
<polygon fill="#770000" fill-opacity="0.466667" stroke="#770000" stroke-width="2" stroke-opacity="0.466667" points="563.9,-550.58 566,-556.58 568.1,-550.58 563.9,-550.58"/>
</g>
<!-- src/graph&#45;utl/match&#45;facade.js -->
<g id="node3" class="node">
<title>src/graph&#45;utl/match&#45;facade.js</title>
<g id="a_node3"><a xlink:href="https://github.com/sverweij/dependency-cruiser/blob/develop/src/graph-utl/match-facade.js" xlink:title="match&#45;facade.js">
<path fill="#ffcccc" stroke="black" d="M650,-541C650,-541 581,-541 581,-541 578,-541 575,-538 575,-535 575,-535 575,-529 575,-529 575,-526 578,-523 581,-523 581,-523 650,-523 650,-523 653,-523 656,-526 656,-529 656,-529 656,-535 656,-535 656,-538 653,-541 650,-541"/>
<text text-anchor="start" x="583" y="-529.8" font-family="Helvetica,sans-Serif" font-size="9.00">match&#45;facade.js</text>
</a>
</g>
</g>
<!-- src/graph&#45;utl/add&#45;focus.js&#45;&gt;src/graph&#45;utl/match&#45;facade.js -->
<g id="edge2" class="edge">
<title>src/graph&#45;utl/add&#45;focus.js&#45;&gt;src/graph&#45;utl/match&#45;facade.js</title>
<path fill="none" stroke="#770000" stroke-width="2" stroke-opacity="0.466667" d="M459,-541.66C459,-539.26 459,-537.33 459,-537.33 459,-537.33 565.79,-537.33 565.79,-537.33"/>
<polygon fill="#770000" fill-opacity="0.466667" stroke="#770000" stroke-width="2" stroke-opacity="0.466667" points="565.79,-539.43 571.79,-537.33 565.79,-535.23 565.79,-539.43"/>
</g>
<!-- src/graph&#45;utl/compare.js -->
<g id="node4" class="node">
<title>src/graph&#45;utl/compare.js</title>
<g id="a_node4"><a xlink:href="https://github.com/sverweij/dependency-cruiser/blob/develop/src/graph-utl/compare.js" xlink:title="compare.js">
<path fill="#ffcccc" stroke="black" d="M640.5,-470C640.5,-470 590.5,-470 590.5,-470 587.5,-470 584.5,-467 584.5,-464 584.5,-464 584.5,-458 584.5,-458 584.5,-455 587.5,-452 590.5,-452 590.5,-452 640.5,-452 640.5,-452 643.5,-452 646.5,-455 646.5,-458 646.5,-458 646.5,-464 646.5,-464 646.5,-467 643.5,-470 640.5,-470"/>
<text text-anchor="start" x="592.5" y="-458.8" font-family="Helvetica,sans-Serif" font-size="9.00">compare.js</text>
</a>
</g>
</g>
<!-- src/graph&#45;utl/consolidate&#45;module&#45;dependencies.js -->
<g id="node5" class="node">
<title>src/graph&#45;utl/consolidate&#45;module&#45;dependencies.js</title>
<g id="a_node5"><a xlink:href="https://github.com/sverweij/dependency-cruiser/blob/develop/src/graph-utl/consolidate-module-dependencies.js" xlink:title="consolidate&#45;module&#45;dependencies.js">
<path fill="#ffcccc" stroke="black" d="M537,-470C537,-470 381,-470 381,-470 378,-470 375,-467 375,-464 375,-464 375,-458 375,-458 375,-455 378,-452 381,-452 381,-452 537,-452 537,-452 540,-452 543,-455 543,-458 543,-458 543,-464 543,-464 543,-467 540,-470 537,-470"/>
<text text-anchor="start" x="383" y="-458.8" font-family="Helvetica,sans-Serif" font-size="9.00">consolidate&#45;module&#45;dependencies.js</text>
</a>
</g>
</g>
<!-- src/graph&#45;utl/consolidate&#45;module&#45;dependencies.js&#45;&gt;src/graph&#45;utl/compare.js -->
<g id="edge3" class="edge">
<title>src/graph&#45;utl/consolidate&#45;module&#45;dependencies.js&#45;&gt;src/graph&#45;utl/compare.js</title>
<path fill="none" stroke="#770000" stroke-width="2" stroke-opacity="0.466667" d="M543.21,-461C543.21,-461 575.16,-461 575.16,-461"/>
<polygon fill="#770000" fill-opacity="0.466667" stroke="#770000" stroke-width="2" stroke-opacity="0.466667" points="575.16,-463.1 581.16,-461 575.16,-458.9 575.16,-463.1"/>
</g>
<!-- src/graph&#45;utl/consolidate&#45;modules.js -->
<g id="node6" class="node">
<title>src/graph&#45;utl/consolidate&#45;modules.js</title>
<g id="a_node6"><a xlink:href="https://github.com/sverweij/dependency-cruiser/blob/develop/src/graph-utl/consolidate-modules.js" xlink:title="consolidate&#45;modules.js">
<path fill="#ffcccc" stroke="black" d="M508.5,-500C508.5,-500 409.5,-500 409.5,-500 406.5,-500 403.5,-497 403.5,-494 403.5,-494 403.5,-488 403.5,-488 403.5,-485 406.5,-482 409.5,-482 409.5,-482 508.5,-482 508.5,-482 511.5,-482 514.5,-485 514.5,-488 514.5,-488 514.5,-494 514.5,-494 514.5,-497 511.5,-500 508.5,-500"/>
<text text-anchor="start" x="411.5" y="-488.8" font-family="Helvetica,sans-Serif" font-size="9.00">consolidate&#45;modules.js</text>
</a>
</g>
</g>
<!-- src/graph&#45;utl/consolidate&#45;modules.js&#45;&gt;src/graph&#45;utl/compare.js -->
<g id="edge4" class="edge">
<title>src/graph&#45;utl/consolidate&#45;modules.js&#45;&gt;src/graph&#45;utl/compare.js</title>
<path fill="none" stroke="#770000" stroke-width="2" stroke-opacity="0.466667" d="M514.79,-491C559.92,-491 616,-491 616,-491 616,-491 616,-479.49 616,-479.49"/>
<polygon fill="#770000" fill-opacity="0.466667" stroke="#770000" stroke-width="2" stroke-opacity="0.466667" points="618.1,-479.49 616,-473.49 613.9,-479.49 618.1,-479.49"/>
</g>
<!-- src/graph&#45;utl/consolidate&#45;to&#45;folder.js -->
<g id="node7" class="node">
<title>src/graph&#45;utl/consolidate&#45;to&#45;folder.js</title>
<g id="a_node7"><a xlink:href="https://github.com/sverweij/dependency-cruiser/blob/develop/src/graph-utl/consolidate-to-folder.js" xlink:title="consolidate&#45;to&#45;folder.js">
<path fill="#ffcccc" stroke="black" d="M353.5,-470C353.5,-470 255.5,-470 255.5,-470 252.5,-470 249.5,-467 249.5,-464 249.5,-464 249.5,-458 249.5,-458 249.5,-455 252.5,-452 255.5,-452 255.5,-452 353.5,-452 353.5,-452 356.5,-452 359.5,-455 359.5,-458 359.5,-458 359.5,-464 359.5,-464 359.5,-467 356.5,-470 353.5,-470"/>
<text text-anchor="start" x="257.5" y="-458.8" font-family="Helvetica,sans-Serif" font-size="9.00">consolidate&#45;to&#45;folder.js</text>
</a>
</g>
</g>
<!-- src/graph&#45;utl/consolidate&#45;to&#45;folder.js&#45;&gt;src/graph&#45;utl/consolidate&#45;module&#45;dependencies.js -->
<g id="edge5" class="edge">
<title>src/graph&#45;utl/consolidate&#45;to&#45;folder.js&#45;&gt;src/graph&#45;utl/consolidate&#45;module&#45;dependencies.js</title>
<path fill="none" stroke="#770000" stroke-width="2" stroke-opacity="0.466667" d="M359.84,-458C359.84,-458 365.68,-458 365.68,-458"/>
<polygon fill="#770000" fill-opacity="0.466667" stroke="#770000" stroke-width="2" stroke-opacity="0.466667" points="365.68,-460.1 371.68,-458 365.68,-455.9 365.68,-460.1"/>
</g>
<!-- src/graph&#45;utl/consolidate&#45;to&#45;folder.js&#45;&gt;src/graph&#45;utl/consolidate&#45;modules.js -->
<g id="edge6" class="edge">
<title>src/graph&#45;utl/consolidate&#45;to&#45;folder.js&#45;&gt;src/graph&#45;utl/consolidate&#45;modules.js</title>
<path fill="none" stroke="#770000" stroke-width="2" stroke-opacity="0.466667" d="M359.76,-464C365.34,-464 369,-464 369,-464 369,-464 369,-491 369,-491 369,-491 394.03,-491 394.03,-491"/>
<polygon fill="#770000" fill-opacity="0.466667" stroke="#770000" stroke-width="2" stroke-opacity="0.466667" points="394.03,-493.1 400.03,-491 394.03,-488.9 394.03,-493.1"/>
</g>
<!-- src/graph&#45;utl/consolidate&#45;to&#45;pattern.js -->
<g id="node8" class="node">
<title>src/graph&#45;utl/consolidate&#45;to&#45;pattern.js</title>
<g id="a_node8"><a xlink:href="https://github.com/sverweij/dependency-cruiser/blob/develop/src/graph-utl/consolidate-to-pattern.js" xlink:title="consolidate&#45;to&#45;pattern.js">
<path fill="#ffcccc" stroke="black" d="M356,-530C356,-530 253,-530 253,-530 250,-530 247,-527 247,-524 247,-524 247,-518 247,-518 247,-515 250,-512 253,-512 253,-512 356,-512 356,-512 359,-512 362,-515 362,-518 362,-518 362,-524 362,-524 362,-527 359,-530 356,-530"/>
<text text-anchor="start" x="255" y="-518.8" font-family="Helvetica,sans-Serif" font-size="9.00">consolidate&#45;to&#45;pattern.js</text>
</a>
</g>
</g>
<!-- src/graph&#45;utl/consolidate&#45;to&#45;pattern.js&#45;&gt;src/graph&#45;utl/consolidate&#45;module&#45;dependencies.js -->
<g id="edge7" class="edge">
<title>src/graph&#45;utl/consolidate&#45;to&#45;pattern.js&#45;&gt;src/graph&#45;utl/consolidate&#45;module&#45;dependencies.js</title>
<path fill="none" stroke="#770000" stroke-width="2" stroke-opacity="0.466667" d="M362.48,-515.67C377.72,-515.67 390,-515.67 390,-515.67 390,-515.67 390,-479.03 390,-479.03"/>
<polygon fill="#770000" fill-opacity="0.466667" stroke="#770000" stroke-width="2" stroke-opacity="0.466667" points="392.1,-479.03 390,-473.03 387.9,-479.03 392.1,-479.03"/>
</g>
<!-- src/graph&#45;utl/consolidate&#45;to&#45;pattern.js&#45;&gt;src/graph&#45;utl/consolidate&#45;modules.js -->
<g id="edge8" class="edge">
<title>src/graph&#45;utl/consolidate&#45;to&#45;pattern.js&#45;&gt;src/graph&#45;utl/consolidate&#45;modules.js</title>
<path fill="none" stroke="#770000" stroke-width="2" stroke-opacity="0.466667" d="M362.34,-519.33C389.07,-519.33 415,-519.33 415,-519.33 415,-519.33 415,-509.28 415,-509.28"/>
<polygon fill="#770000" fill-opacity="0.466667" stroke="#770000" stroke-width="2" stroke-opacity="0.466667" points="417.1,-509.28 415,-503.28 412.9,-509.28 417.1,-509.28"/>
</g>
<!-- src/graph&#45;utl/filter&#45;bank.js -->
<g id="node9" class="node">
<title>src/graph&#45;utl/filter&#45;bank.js</title>
<g id="a_node9"><a xlink:href="https://github.com/sverweij/dependency-cruiser/blob/develop/src/graph-utl/filter-bank.js" xlink:title="filter&#45;bank.js">
<path fill="#ffcccc" stroke="black" d="M331.5,-560C331.5,-560 277.5,-560 277.5,-560 274.5,-560 271.5,-557 271.5,-554 271.5,-554 271.5,-548 271.5,-548 271.5,-545 274.5,-542 277.5,-542 277.5,-542 331.5,-542 331.5,-542 334.5,-542 337.5,-545 337.5,-548 337.5,-548 337.5,-554 337.5,-554 337.5,-557 334.5,-560 331.5,-560"/>
<text text-anchor="start" x="279.5" y="-548.8" font-family="Helvetica,sans-Serif" font-size="9.00">filter&#45;bank.js</text>
</a>
</g>
</g>
<!-- src/graph&#45;utl/filter&#45;bank.js&#45;&gt;src/graph&#45;utl/add&#45;focus.js -->
<g id="edge9" class="edge">
<title>src/graph&#45;utl/filter&#45;bank.js&#45;&gt;src/graph&#45;utl/add&#45;focus.js</title>
<path fill="none" stroke="#770000" stroke-width="2" stroke-opacity="0.466667" d="M337.64,-551C337.64,-551 416.64,-551 416.64,-551"/>
<polygon fill="#770000" fill-opacity="0.466667" stroke="#770000" stroke-width="2" stroke-opacity="0.466667" points="416.64,-553.1 422.64,-551 416.64,-548.9 416.64,-553.1"/>
</g>
<!-- src/graph&#45;utl/filter&#45;bank.js&#45;&gt;src/graph&#45;utl/indexed&#45;module&#45;graph.js -->
<g id="edge10" class="edge">
<title>src/graph&#45;utl/filter&#45;bank.js&#45;&gt;src/graph&#45;utl/indexed&#45;module&#45;graph.js</title>
<path fill="none" stroke="#770000" stroke-width="2" stroke-opacity="0.466667" d="M305,-560.24C305,-563.33 305,-566 305,-566 305,-566 546.63,-566 546.63,-566"/>
<polygon fill="#770000" fill-opacity="0.466667" stroke="#770000" stroke-width="2" stroke-opacity="0.466667" points="546.63,-568.1 552.63,-566 546.63,-563.9 546.63,-568.1"/>
</g>
<!-- src/graph&#45;utl/filter&#45;bank.js&#45;&gt;src/graph&#45;utl/match&#45;facade.js -->
<g id="edge11" class="edge">
<title>src/graph&#45;utl/filter&#45;bank.js&#45;&gt;src/graph&#45;utl/match&#45;facade.js</title>
<path fill="none" stroke="#770000" stroke-width="2" stroke-opacity="0.466667" d="M305,-541.52C305,-537.48 305,-533.67 305,-533.67 305,-533.67 565.59,-533.67 565.59,-533.67"/>
<polygon fill="#770000" fill-opacity="0.466667" stroke="#770000" stroke-width="2" stroke-opacity="0.466667" points="565.59,-535.77 571.59,-533.67 565.59,-531.57 565.59,-535.77"/>
</g>
<!-- src/graph&#45;utl/rule&#45;set.js -->
<g id="node10" class="node">
<title>src/graph&#45;utl/rule&#45;set.js</title>
<g id="a_node10"><a xlink:href="https://github.com/sverweij/dependency-cruiser/blob/develop/src/graph-utl/rule-set.js" xlink:title="rule&#45;set.js">
<path fill="#ffcccc" stroke="black" d="M326.5,-590C326.5,-590 282.5,-590 282.5,-590 279.5,-590 276.5,-587 276.5,-584 276.5,-584 276.5,-578 276.5,-578 276.5,-575 279.5,-572 282.5,-572 282.5,-572 326.5,-572 326.5,-572 329.5,-572 332.5,-575 332.5,-578 332.5,-578 332.5,-584 332.5,-584 332.5,-587 329.5,-590 326.5,-590"/>
<text text-anchor="start" x="284.5" y="-578.8" font-family="Helvetica,sans-Serif" font-size="9.00">rule&#45;set.js</text>
</a>
</g>
</g>
<!-- src/graph&#45;utl/strip&#45;self&#45;transitions.js -->
<g id="node11" class="node">
<title>src/graph&#45;utl/strip&#45;self&#45;transitions.js</title>
<g id="a_node11"><a xlink:href="https://github.com/sverweij/dependency-cruiser/blob/develop/src/graph-utl/strip-self-transitions.js" xlink:title="strip&#45;self&#45;transitions.js">
<path fill="#ffcccc" stroke="black" d="M351,-500C351,-500 258,-500 258,-500 255,-500 252,-497 252,-494 252,-494 252,-488 252,-488 252,-485 255,-482 258,-482 258,-482 351,-482 351,-482 354,-482 357,-485 357,-488 357,-488 357,-494 357,-494 357,-497 354,-500 351,-500"/>
<text text-anchor="start" x="260" y="-488.8" font-family="Helvetica,sans-Serif" font-size="9.00">strip&#45;self&#45;transitions.js</text>
</a>
</g>
</g>
<!-- src/report/anon -->
<g id="node12" class="node">
<title>src/report/anon</title>
<g id="a_node12"><a xlink:href="https://github.com/sverweij/dependency-cruiser/blob/develop/src/report/anon" xlink:title="anon">
<polygon fill="#ffccff" stroke="black" points="152,-42 100,-42 98,-40 98,-24 150,-24 152,-26 152,-42"/>
<polyline fill="none" stroke="black" points="150,-40 98,-40"/>
<polyline fill="none" stroke="black" points="150,-40 150,-24"/>
<polyline fill="none" stroke="black" points="150,-40 152,-42"/>
<text text-anchor="start" x="114" y="-30.8" font-family="Helvetica,sans-Serif" font-size="9.00">anon</text>
</a>
</g>
</g>
<!-- src/report/baseline.js -->
<g id="node13" class="node">
<title>src/report/baseline.js</title>
<g id="a_node13"><a xlink:href="https://github.com/sverweij/dependency-cruiser/blob/develop/src/report/baseline.js" xlink:title="baseline.js">
<path fill="#ffccff" stroke="black" d="M149.5,-72C149.5,-72 100.5,-72 100.5,-72 97.5,-72 94.5,-69 94.5,-66 94.5,-66 94.5,-60 94.5,-60 94.5,-57 97.5,-54 100.5,-54 100.5,-54 149.5,-54 149.5,-54 152.5,-54 155.5,-57 155.5,-60 155.5,-60 155.5,-66 155.5,-66 155.5,-69 152.5,-72 149.5,-72"/>
<text text-anchor="start" x="102.5" y="-60.8" font-family="Helvetica,sans-Serif" font-size="9.00">baseline.js</text>
</a>
</g>
</g>
<!-- src/report/csv.js -->
<g id="node14" class="node">
<title>src/report/csv.js</title>
<g id="a_node14"><a xlink:href="https://github.com/sverweij/dependency-cruiser/blob/develop/src/report/csv.js" xlink:title="csv.js">
<path fill="#ffccff" stroke="black" d="M222.5,-85C222.5,-85 180.5,-85 180.5,-85 177.5,-85 174.5,-82 174.5,-79 174.5,-79 174.5,-73 174.5,-73 174.5,-70 177.5,-67 180.5,-67 180.5,-67 222.5,-67 222.5,-67 225.5,-67 228.5,-70 228.5,-73 228.5,-73 228.5,-79 228.5,-79 228.5,-82 225.5,-85 222.5,-85"/>
<text text-anchor="start" x="190" y="-73.8" font-family="Helvetica,sans-Serif" font-size="9.00">csv.js</text>
</a>
</g>
</g>
<!-- src/report/utl -->
<g id="node15" class="node">
<title>src/report/utl</title>
<g id="a_node15"><a xlink:href="https://github.com/sverweij/dependency-cruiser/blob/develop/src/report/utl" xlink:title="utl">
<polygon fill="#ffccff" stroke="black" points="331.5,-175 279.5,-175 277.5,-173 277.5,-157 329.5,-157 331.5,-159 331.5,-175"/>
<polyline fill="none" stroke="black" points="329.5,-173 277.5,-173"/>
<polyline fill="none" stroke="black" points="329.5,-173 329.5,-157"/>
<polyline fill="none" stroke="black" points="329.5,-173 331.5,-175"/>
<text text-anchor="start" x="299.5" y="-163.8" font-family="Helvetica,sans-Serif" font-size="9.00">utl</text>
</a>
</g>
</g>
<!-- src/report/csv.js&#45;&gt;src/report/utl -->
<g id="edge12" class="edge">
<title>src/report/csv.js&#45;&gt;src/report/utl</title>
<path fill="none" stroke="#ff00ff" stroke-width="2" stroke-opacity="0.466667" d="M228.81,-76C263.25,-76 318,-76 318,-76 318,-76 318,-147.71 318,-147.71"/>
<polygon fill="#ff00ff" fill-opacity="0.466667" stroke="#ff00ff" stroke-width="2" stroke-opacity="0.466667" points="315.9,-147.71 318,-153.71 320.1,-147.71 315.9,-147.71"/>
</g>
<!-- src/report/dot -->
<g id="node16" class="node">
<title>src/report/dot</title>
<g id="a_node16"><a xlink:href="https://github.com/sverweij/dependency-cruiser/blob/develop/src/report/dot" xlink:title="dot">
<polygon fill="#ffccff" stroke="black" points="228.5,-380 176.5,-380 174.5,-378 174.5,-362 226.5,-362 228.5,-364 228.5,-380"/>
<polyline fill="none" stroke="black" points="226.5,-378 174.5,-378"/>
<polyline fill="none" stroke="black" points="226.5,-378 226.5,-362"/>
<polyline fill="none" stroke="black" points="226.5,-378 228.5,-380"/>
<text text-anchor="start" x="195" y="-368.8" font-family="Helvetica,sans-Serif" font-size="9.00">dot</text>
</a>
</g>
</g>
<!-- src/report/dot&#45;&gt;src/graph&#45;utl/compare.js -->
<g id="edge15" class="edge">
<title>src/report/dot&#45;&gt;src/graph&#45;utl/compare.js</title>
<path fill="none" stroke="#770000" stroke-width="2" stroke-opacity="0.466667" d="M228.7,-367.14C320.91,-367.14 616,-367.14 616,-367.14 616,-367.14 616,-442.66 616,-442.66"/>
<polygon fill="#770000" fill-opacity="0.466667" stroke="#770000" stroke-width="2" stroke-opacity="0.466667" points="613.9,-442.66 616,-448.66 618.1,-442.66 613.9,-442.66"/>
</g>
<!-- src/report/dot&#45;&gt;src/graph&#45;utl/consolidate&#45;to&#45;folder.js -->
<g id="edge18" class="edge">
<title>src/report/dot&#45;&gt;src/graph&#45;utl/consolidate&#45;to&#45;folder.js</title>
<path fill="none" stroke="#770000" stroke-width="2" stroke-opacity="0.466667" d="M228.73,-369.71C245.57,-369.71 264,-369.71 264,-369.71 264,-369.71 264,-442.57 264,-442.57"/>
<polygon fill="#770000" fill-opacity="0.466667" stroke="#770000" stroke-width="2" stroke-opacity="0.466667" points="261.9,-442.57 264,-448.57 266.1,-442.57 261.9,-442.57"/>
</g>
<!-- src/report/dot&#45;&gt;src/graph&#45;utl/consolidate&#45;to&#45;pattern.js -->
<g id="edge16" class="edge">
<title>src/report/dot&#45;&gt;src/graph&#45;utl/consolidate&#45;to&#45;pattern.js</title>
<path fill="none" stroke="#770000" stroke-width="2" stroke-opacity="0.466667" d="M228.75,-374.86C234.57,-374.86 239,-374.86 239,-374.86 239,-374.86 239,-521 239,-521 239,-521 239.75,-521 239.75,-521"/>
<polygon fill="#770000" fill-opacity="0.466667" stroke="#770000" stroke-width="2" stroke-opacity="0.466667" points="237.51,-523.1 243.51,-521 237.51,-518.9 237.51,-523.1"/>
</g>
<!-- src/report/dot&#45;&gt;src/graph&#45;utl/filter&#45;bank.js -->
<g id="edge13" class="edge">
<title>src/report/dot&#45;&gt;src/graph&#45;utl/filter&#45;bank.js</title>
<path fill="none" stroke="#770000" stroke-width="2" stroke-opacity="0.466667" d="M228.86,-377.43C232.5,-377.43 235,-377.43 235,-377.43 235,-377.43 235,-551 235,-551 235,-551 262.38,-551 262.38,-551"/>
<polygon fill="#770000" fill-opacity="0.466667" stroke="#770000" stroke-width="2" stroke-opacity="0.466667" points="262.38,-553.1 268.38,-551 262.38,-548.9 262.38,-553.1"/>
</g>
<!-- src/report/dot&#45;&gt;src/graph&#45;utl/strip&#45;self&#45;transitions.js -->
<g id="edge17" class="edge">
<title>src/report/dot&#45;&gt;src/graph&#45;utl/strip&#45;self&#45;transitions.js</title>
<path fill="none" stroke="#770000" stroke-width="2" stroke-opacity="0.466667" d="M228.95,-372.29C236.67,-372.29 243,-372.29 243,-372.29 243,-372.29 243,-491 243,-491 243,-491 243.86,-491 243.86,-491"/>
<polygon fill="#770000" fill-opacity="0.466667" stroke="#770000" stroke-width="2" stroke-opacity="0.466667" points="242.55,-493.1 248.55,-491 242.55,-488.9 242.55,-493.1"/>
</g>
<!-- src/report/dot&#45;&gt;src/report/utl -->
<g id="edge14" class="edge">
<title>src/report/dot&#45;&gt;src/report/utl</title>
<path fill="none" stroke="#ff00ff" stroke-width="2" stroke-opacity="0.466667" d="M228.96,-364.57C259.63,-364.57 305,-364.57 305,-364.57 305,-364.57 305,-184.31 305,-184.31"/>
<polygon fill="#ff00ff" fill-opacity="0.466667" stroke="#ff00ff" stroke-width="2" stroke-opacity="0.466667" points="307.1,-184.31 305,-178.31 302.9,-184.31 307.1,-184.31"/>
</g>
<!-- src/report/error&#45;html -->
<g id="node17" class="node">
<title>src/report/error&#45;html</title>
<g id="a_node17"><a xlink:href="https://github.com/sverweij/dependency-cruiser/blob/develop/src/report/error-html" xlink:title="error&#45;html">
<polygon fill="#ffccff" stroke="black" points="229.5,-145 175.5,-145 173.5,-143 173.5,-127 227.5,-127 229.5,-129 229.5,-145"/>
<polyline fill="none" stroke="black" points="227.5,-143 173.5,-143"/>
<polyline fill="none" stroke="black" points="227.5,-143 227.5,-127"/>
<polyline fill="none" stroke="black" points="227.5,-143 229.5,-145"/>
<text text-anchor="start" x="181.5" y="-133.8" font-family="Helvetica,sans-Serif" font-size="9.00">error&#45;html</text>
</a>
</g>
</g>
<!-- src/report/error&#45;html&#45;&gt;src/report/utl -->
<g id="edge19" class="edge">
<title>src/report/error&#45;html&#45;&gt;src/report/utl</title>
<path fill="none" stroke="#ff00ff" stroke-width="2" stroke-opacity="0.466667" d="M229.82,-136C256.04,-136 291,-136 291,-136 291,-136 291,-147.51 291,-147.51"/>
<polygon fill="#ff00ff" fill-opacity="0.466667" stroke="#ff00ff" stroke-width="2" stroke-opacity="0.466667" points="288.9,-147.51 291,-153.51 293.1,-147.51 288.9,-147.51"/>
</g>
<!-- src/report/error&#45;long.js -->
<g id="node18" class="node">
<title>src/report/error&#45;long.js</title>
<g id="a_node18"><a xlink:href="https://github.com/sverweij/dependency-cruiser/blob/develop/src/report/error-long.js" xlink:title="error&#45;long.js">
<path fill="#ffccff" stroke="black" d="M152,-306C152,-306 98,-306 98,-306 95,-306 92,-303 92,-300 92,-300 92,-294 92,-294 92,-291 95,-288 98,-288 98,-288 152,-288 152,-288 155,-288 158,-291 158,-294 158,-294 158,-300 158,-300 158,-303 155,-306 152,-306"/>
<text text-anchor="start" x="100" y="-294.8" font-family="Helvetica,sans-Serif" font-size="9.00">error&#45;long.js</text>
</a>
</g>
</g>
<!-- src/report/error.js -->
<g id="node19" class="node">
<title>src/report/error.js</title>
<g id="a_node19"><a xlink:href="https://github.com/sverweij/dependency-cruiser/blob/develop/src/report/error.js" xlink:title="error.js">
<path fill="#ffccff" stroke="black" d="M222.5,-410C222.5,-410 180.5,-410 180.5,-410 177.5,-410 174.5,-407 174.5,-404 174.5,-404 174.5,-398 174.5,-398 174.5,-395 177.5,-392 180.5,-392 180.5,-392 222.5,-392 222.5,-392 225.5,-392 228.5,-395 228.5,-398 228.5,-398 228.5,-404 228.5,-404 228.5,-407 225.5,-410 222.5,-410"/>
<text text-anchor="start" x="187" y="-398.8" font-family="Helvetica,sans-Serif" font-size="9.00">error.js</text>
</a>
</g>
</g>
<!-- src/report/error&#45;long.js&#45;&gt;src/report/error.js -->
<g id="edge20" class="edge">
<title>src/report/error&#45;long.js&#45;&gt;src/report/error.js</title>
<path fill="none" stroke="#ff00ff" stroke-width="2" stroke-opacity="0.466667" d="M158.48,-297C162.93,-297 166,-297 166,-297 166,-297 166,-401 166,-401 166,-401 166.82,-401 166.82,-401"/>
<polygon fill="#ff00ff" fill-opacity="0.466667" stroke="#ff00ff" stroke-width="2" stroke-opacity="0.466667" points="165.23,-403.1 171.23,-401 165.23,-398.9 165.23,-403.1"/>
</g>
<!-- src/report/error.js&#45;&gt;src/graph&#45;utl/rule&#45;set.js -->
<g id="edge21" class="edge">
<title>src/report/error.js&#45;&gt;src/graph&#45;utl/rule&#45;set.js</title>
<path fill="none" stroke="#770000" stroke-width="2" stroke-opacity="0.466667" d="M211,-410.17C211,-446.85 211,-581 211,-581 211,-581 267.19,-581 267.19,-581"/>
<polygon fill="#770000" fill-opacity="0.466667" stroke="#770000" stroke-width="2" stroke-opacity="0.466667" points="267.19,-583.1 273.19,-581 267.19,-578.9 267.19,-583.1"/>
</g>
<!-- src/report/error.js&#45;&gt;src/report/utl -->
<g id="edge23" class="edge">
<title>src/report/error.js&#45;&gt;src/report/utl</title>
<path fill="none" stroke="#ff00ff" stroke-width="2" stroke-opacity="0.466667" d="M228.81,-401C263.25,-401 318,-401 318,-401 318,-401 318,-184.21 318,-184.21"/>
<polygon fill="#ff00ff" fill-opacity="0.466667" stroke="#ff00ff" stroke-width="2" stroke-opacity="0.466667" points="320.1,-184.21 318,-178.21 315.9,-184.21 320.1,-184.21"/>
</g>
<!-- src/utl/wrap&#45;and&#45;indent.js -->
<g id="node20" class="node">
<title>src/utl/wrap&#45;and&#45;indent.js</title>
<g id="a_node20"><a xlink:href="https://github.com/sverweij/dependency-cruiser/blob/develop/src/utl/wrap-and-indent.js" xlink:title="utl&#45;module&#45;not&#45;shared&#45;enough">
<path fill="#cccccc" stroke="blue" d="M345,-650C345,-650 264,-650 264,-650 261,-650 258,-647 258,-644 258,-644 258,-638 258,-638 258,-635 261,-632 264,-632 264,-632 345,-632 345,-632 348,-632 351,-635 351,-638 351,-638 351,-644 351,-644 351,-647 348,-650 345,-650"/>
<text text-anchor="start" x="266" y="-638.8" font-family="Helvetica,sans-Serif" font-size="9.00" fill="blue">wrap&#45;and&#45;indent.js</text>
</a>
</g>
</g>
<!-- src/report/error.js&#45;&gt;src/utl/wrap&#45;and&#45;indent.js -->
<g id="edge22" class="edge">
<title>src/report/error.js&#45;&gt;src/utl/wrap&#45;and&#45;indent.js</title>
<path fill="none" stroke="#aaaaaa" stroke-width="2" stroke-opacity="0.466667" d="M193,-410.41C193,-454.78 193,-641 193,-641 193,-641 248.54,-641 248.54,-641"/>
<polygon fill="#aaaaaa" fill-opacity="0.466667" stroke="#aaaaaa" stroke-width="2" stroke-opacity="0.466667" points="248.54,-643.1 254.54,-641 248.54,-638.9 248.54,-643.1"/>
</g>
<!-- src/report/html -->
<g id="node21" class="node">
<title>src/report/html</title>
<g id="a_node21"><a xlink:href="https://github.com/sverweij/dependency-cruiser/blob/develop/src/report/html" xlink:title="html">
<polygon fill="#ffccff" stroke="black" points="228.5,-115 176.5,-115 174.5,-113 174.5,-97 226.5,-97 228.5,-99 228.5,-115"/>
<polyline fill="none" stroke="black" points="226.5,-113 174.5,-113"/>
<polyline fill="none" stroke="black" points="226.5,-113 226.5,-97"/>
<polyline fill="none" stroke="black" points="226.5,-113 228.5,-115"/>
<text text-anchor="start" x="192.5" y="-103.8" font-family="Helvetica,sans-Serif" font-size="9.00">html</text>
</a>
</g>
</g>
<!-- src/report/html&#45;&gt;src/report/utl -->
<g id="edge24" class="edge">
<title>src/report/html&#45;&gt;src/report/utl</title>
<path fill="none" stroke="#ff00ff" stroke-width="2" stroke-opacity="0.466667" d="M228.96,-106C259.63,-106 305,-106 305,-106 305,-106 305,-147.62 305,-147.62"/>
<polygon fill="#ff00ff" fill-opacity="0.466667" stroke="#ff00ff" stroke-width="2" stroke-opacity="0.466667" points="302.9,-147.62 305,-153.62 307.1,-147.63 302.9,-147.62"/>
</g>
<!-- src/report/identity.js -->
<g id="node22" class="node">
<title>src/report/identity.js</title>
<g id="a_node22"><a xlink:href="https://github.com/sverweij/dependency-cruiser/blob/develop/src/report/identity.js" xlink:title="identity.js">
<path fill="#ffccff" stroke="black" d="M146.5,-202C146.5,-202 103.5,-202 103.5,-202 100.5,-202 97.5,-199 97.5,-196 97.5,-196 97.5,-190 97.5,-190 97.5,-187 100.5,-184 103.5,-184 103.5,-184 146.5,-184 146.5,-184 149.5,-184 152.5,-187 152.5,-190 152.5,-190 152.5,-196 152.5,-196 152.5,-199 149.5,-202 146.5,-202"/>
<text text-anchor="start" x="105.5" y="-190.8" font-family="Helvetica,sans-Serif" font-size="9.00">identity.js</text>
</a>
</g>
</g>
<!-- src/report/index.js -->
<g id="node23" class="node">
<title>src/report/index.js</title>
<g id="a_node23"><a xlink:href="https://github.com/sverweij/dependency-cruiser/blob/develop/src/report/index.js" xlink:title="index.js">
<path fill="#ffccff" stroke="black" d="M72,-202C72,-202 30,-202 30,-202 27,-202 24,-199 24,-196 24,-196 24,-190 24,-190 24,-187 27,-184 30,-184 30,-184 72,-184 72,-184 75,-184 78,-187 78,-190 78,-190 78,-196 78,-196 78,-199 75,-202 72,-202"/>
<text text-anchor="start" x="35" y="-190.8" font-family="Helvetica,sans-Serif" font-size="9.00">index.js</text>
</a>
</g>
</g>
<!-- src/report/index.js&#45;&gt;src/report/anon -->
<g id="edge25" class="edge">
<title>src/report/index.js&#45;&gt;src/report/anon</title>
<path fill="none" stroke="#ff00ff" stroke-width="2" stroke-opacity="0.466667" d="M31,-183.94C31,-150.09 31,-33 31,-33 31,-33 88.56,-33 88.56,-33"/>
<polygon fill="#ff00ff" fill-opacity="0.466667" stroke="#ff00ff" stroke-width="2" stroke-opacity="0.466667" points="88.56,-35.1 94.56,-33 88.56,-30.9 88.56,-35.1"/>
</g>
<!-- src/report/index.js&#45;&gt;src/report/baseline.js -->
<g id="edge26" class="edge">
<title>src/report/index.js&#45;&gt;src/report/baseline.js</title>
<path fill="none" stroke="#ff00ff" stroke-width="2" stroke-opacity="0.466667" d="M38,-183.65C38,-153.84 38,-63 38,-63 38,-63 85.08,-63 85.08,-63"/>
<polygon fill="#ff00ff" fill-opacity="0.466667" stroke="#ff00ff" stroke-width="2" stroke-opacity="0.466667" points="85.08,-65.1 91.08,-63 85.08,-60.9 85.08,-65.1"/>
</g>
<!-- src/report/index.js&#45;&gt;src/report/csv.js -->
<g id="edge27" class="edge">
<title>src/report/index.js&#45;&gt;src/report/csv.js</title>
<path fill="none" stroke="#ff00ff" stroke-width="2" stroke-opacity="0.466667" d="M45,-183.63C45,-156.28 45,-78.5 45,-78.5 45,-78.5 165.24,-78.5 165.24,-78.5"/>
<polygon fill="#ff00ff" fill-opacity="0.466667" stroke="#ff00ff" stroke-width="2" stroke-opacity="0.466667" points="165.24,-80.6 171.24,-78.5 165.24,-76.4 165.24,-80.6"/>
</g>
<!-- src/report/index.js&#45;&gt;src/report/dot -->
<g id="edge28" class="edge">
<title>src/report/index.js&#45;&gt;src/report/dot</title>
<path fill="none" stroke="#ff00ff" stroke-width="2" stroke-opacity="0.466667" d="M41,-202.17C41,-238.85 41,-373 41,-373 41,-373 165.27,-373 165.27,-373"/>
<polygon fill="#ff00ff" fill-opacity="0.466667" stroke="#ff00ff" stroke-width="2" stroke-opacity="0.466667" points="165.27,-375.1 171.27,-373 165.27,-370.9 165.27,-375.1"/>
</g>
<!-- src/report/index.js&#45;&gt;src/report/error&#45;html -->
<g id="edge30" class="edge">
<title>src/report/index.js&#45;&gt;src/report/error&#45;html</title>
<path fill="none" stroke="#ff00ff" stroke-width="2" stroke-opacity="0.466667" d="M65,-183.59C65,-167.75 65,-137.5 65,-137.5 65,-137.5 164.22,-137.5 164.22,-137.5"/>
<polygon fill="#ff00ff" fill-opacity="0.466667" stroke="#ff00ff" stroke-width="2" stroke-opacity="0.466667" points="164.22,-139.6 170.22,-137.5 164.22,-135.4 164.22,-139.6"/>
</g>
<!-- src/report/index.js&#45;&gt;src/report/error&#45;long.js -->
<g id="edge31" class="edge">
<title>src/report/index.js&#45;&gt;src/report/error&#45;long.js</title>
<path fill="none" stroke="#ff00ff" stroke-width="2" stroke-opacity="0.466667" d="M57,-202.23C57,-227.68 57,-297 57,-297 57,-297 82.8,-297 82.8,-297"/>
<polygon fill="#ff00ff" fill-opacity="0.466667" stroke="#ff00ff" stroke-width="2" stroke-opacity="0.466667" points="82.8,-299.1 88.8,-297 82.8,-294.9 82.8,-299.1"/>
</g>
<!-- src/report/index.js&#45;&gt;src/report/error.js -->
<g id="edge29" class="edge">
<title>src/report/index.js&#45;&gt;src/report/error.js</title>
<path fill="none" stroke="#ff00ff" stroke-width="2" stroke-opacity="0.466667" d="M35,-202.31C35,-240.86 35,-386 35,-386 35,-386 202,-386 202,-386 202,-386 202,-386.58 202,-386.58"/>
<polygon fill="#ff00ff" fill-opacity="0.466667" stroke="#ff00ff" stroke-width="2" stroke-opacity="0.466667" points="199.9,-382.76 202,-388.76 204.1,-382.76 199.9,-382.76"/>
</g>
<!-- src/report/index.js&#45;&gt;src/report/html -->
<g id="edge32" class="edge">
<title>src/report/index.js&#45;&gt;src/report/html</title>
<path fill="none" stroke="#ff00ff" stroke-width="2" stroke-opacity="0.466667" d="M51,-183.53C51,-160.7 51,-104.5 51,-104.5 51,-104.5 165.25,-104.5 165.25,-104.5"/>
<polygon fill="#ff00ff" fill-opacity="0.466667" stroke="#ff00ff" stroke-width="2" stroke-opacity="0.466667" points="165.25,-106.6 171.25,-104.5 165.25,-102.4 165.25,-106.6"/>
</g>
<!-- src/report/index.js&#45;&gt;src/report/identity.js -->
<g id="edge33" class="edge">
<title>src/report/index.js&#45;&gt;src/report/identity.js</title>
<path fill="none" stroke="#ff00ff" stroke-width="2" stroke-opacity="0.466667" d="M78.13,-193C78.13,-193 88.37,-193 88.37,-193"/>
<polygon fill="#ff00ff" fill-opacity="0.466667" stroke="#ff00ff" stroke-width="2" stroke-opacity="0.466667" points="88.37,-195.1 94.37,-193 88.37,-190.9 88.37,-195.1"/>
</g>
<!-- src/report/json.js -->
<g id="node24" class="node">
<title>src/report/json.js</title>
<g id="a_node24"><a xlink:href="https://github.com/sverweij/dependency-cruiser/blob/develop/src/report/json.js" xlink:title="json.js">
<path fill="#ffccff" stroke="black" d="M146,-232C146,-232 104,-232 104,-232 101,-232 98,-229 98,-226 98,-226 98,-220 98,-220 98,-217 101,-214 104,-214 104,-214 146,-214 146,-214 149,-214 152,-217 152,-220 152,-220 152,-226 152,-226 152,-229 149,-232 146,-232"/>
<text text-anchor="start" x="111.5" y="-220.8" font-family="Helvetica,sans-Serif" font-size="9.00">json.js</text>
</a>
</g>
</g>
<!-- src/report/index.js&#45;&gt;src/report/json.js -->
<g id="edge34" class="edge">
<title>src/report/index.js&#45;&gt;src/report/json.js</title>
<path fill="none" stroke="#ff00ff" stroke-width="2" stroke-opacity="0.466667" d="M68,-202.49C68,-211.28 68,-223 68,-223 68,-223 88.5,-223 88.5,-223"/>
<polygon fill="#ff00ff" fill-opacity="0.466667" stroke="#ff00ff" stroke-width="2" stroke-opacity="0.466667" points="88.5,-225.1 94.5,-223 88.5,-220.9 88.5,-225.1"/>
</g>
<!-- src/report/markdown.js -->
<g id="node25" class="node">
<title>src/report/markdown.js</title>
<g id="a_node25"><a xlink:href="https://github.com/sverweij/dependency-cruiser/blob/develop/src/report/markdown.js" xlink:title="markdown.js">
<path fill="#ffccff" stroke="black" d="M153,-130C153,-130 97,-130 97,-130 94,-130 91,-127 91,-124 91,-124 91,-118 91,-118 91,-115 94,-112 97,-112 97,-112 153,-112 153,-112 156,-112 159,-115 159,-118 159,-118 159,-124 159,-124 159,-127 156,-130 153,-130"/>
<text text-anchor="start" x="99" y="-118.8" font-family="Helvetica,sans-Serif" font-size="9.00">markdown.js</text>
</a>
</g>
</g>
<!-- src/report/index.js&#45;&gt;src/report/markdown.js -->
<g id="edge35" class="edge">
<title>src/report/index.js&#45;&gt;src/report/markdown.js</title>
<path fill="none" stroke="#ff00ff" stroke-width="2" stroke-opacity="0.466667" d="M58,-183.59C58,-164.07 58,-121 58,-121 58,-121 81.71,-121 81.71,-121"/>
<polygon fill="#ff00ff" fill-opacity="0.466667" stroke="#ff00ff" stroke-width="2" stroke-opacity="0.466667" points="81.71,-123.1 87.71,-121 81.71,-118.9 81.71,-123.1"/>
</g>
<!-- src/report/mermaid.js -->
<g id="node26" class="node">
<title>src/report/mermaid.js</title>
<g id="a_node26"><a xlink:href="https://github.com/sverweij/dependency-cruiser/blob/develop/src/report/mermaid.js" xlink:title="mermaid.js">
<path fill="#ffccff" stroke="black" d="M150,-276C150,-276 100,-276 100,-276 97,-276 94,-273 94,-270 94,-270 94,-264 94,-264 94,-261 97,-258 100,-258 100,-258 150,-258 150,-258 153,-258 156,-261 156,-264 156,-264 156,-270 156,-270 156,-273 153,-276 150,-276"/>
<text text-anchor="start" x="102" y="-264.8" font-family="Helvetica,sans-Serif" font-size="9.00">mermaid.js</text>
</a>
</g>
</g>
<!-- src/report/index.js&#45;&gt;src/report/mermaid.js -->
<g id="edge36" class="edge">
<title>src/report/index.js&#45;&gt;src/report/mermaid.js</title>
<path fill="none" stroke="#ff00ff" stroke-width="2" stroke-opacity="0.466667" d="M62,-202.37C62,-222.28 62,-267 62,-267 62,-267 84.5,-267 84.5,-267"/>
<polygon fill="#ff00ff" fill-opacity="0.466667" stroke="#ff00ff" stroke-width="2" stroke-opacity="0.466667" points="84.5,-269.1 90.5,-267 84.5,-264.9 84.5,-269.1"/>
</g>
<!-- src/report/metrics.js -->
<g id="node27" class="node">
<title>src/report/metrics.js</title>
<g id="a_node27"><a xlink:href="https://github.com/sverweij/dependency-cruiser/blob/develop/src/report/metrics.js" xlink:title="metrics.js">
<path fill="#ffccff" stroke="black" d="M223,-175C223,-175 180,-175 180,-175 177,-175 174,-172 174,-169 174,-169 174,-163 174,-163 174,-160 177,-157 180,-157 180,-157 223,-157 223,-157 226,-157 229,-160 229,-163 229,-163 229,-169 229,-169 229,-172 226,-175 223,-175"/>
<text text-anchor="start" x="182" y="-163.8" font-family="Helvetica,sans-Serif" font-size="9.00">metrics.js</text>
</a>
</g>
</g>
<!-- src/report/index.js&#45;&gt;src/report/metrics.js -->
<g id="edge37" class="edge">
<title>src/report/index.js&#45;&gt;src/report/metrics.js</title>
<path fill="none" stroke="#ff00ff" stroke-width="2" stroke-opacity="0.466667" d="M72,-183.56C72,-175.77 72,-166 72,-166 72,-166 164.72,-166 164.72,-166"/>
<polygon fill="#ff00ff" fill-opacity="0.466667" stroke="#ff00ff" stroke-width="2" stroke-opacity="0.466667" points="164.72,-168.1 170.72,-166 164.72,-163.9 164.72,-168.1"/>
</g>
<!-- src/report/null.js -->
<g id="node28" class="node">
<title>src/report/null.js</title>
<g id="a_node28"><a xlink:href="https://github.com/sverweij/dependency-cruiser/blob/develop/src/report/null.js" xlink:title="null.js">
<path fill="#ffccff" stroke="black" d="M146,-336C146,-336 104,-336 104,-336 101,-336 98,-333 98,-330 98,-330 98,-324 98,-324 98,-321 101,-318 104,-318 104,-318 146,-318 146,-318 149,-318 152,-321 152,-324 152,-324 152,-330 152,-330 152,-333 149,-336 146,-336"/>
<text text-anchor="start" x="112.5" y="-324.8" font-family="Helvetica,sans-Serif" font-size="9.00">null.js</text>
</a>
</g>
</g>
<!-- src/report/index.js&#45;&gt;src/report/null.js -->
<g id="edge38" class="edge">
<title>src/report/index.js&#45;&gt;src/report/null.js</title>
<path fill="none" stroke="#ff00ff" stroke-width="2" stroke-opacity="0.466667" d="M51,-202.21C51,-232.48 51,-327 51,-327 51,-327 88.87,-327 88.87,-327"/>
<polygon fill="#ff00ff" fill-opacity="0.466667" stroke="#ff00ff" stroke-width="2" stroke-opacity="0.466667" points="88.87,-329.1 94.87,-327 88.87,-324.9 88.87,-329.1"/>
</g>
<!-- src/report/plugins.js -->
<g id="node29" class="node">
<title>src/report/plugins.js</title>
<g id="a_node29"><a xlink:href="https://github.com/sverweij/dependency-cruiser/blob/develop/src/report/plugins.js" xlink:title="plugins.js">
<path fill="#ffccff" stroke="black" d="M147,-366C147,-366 103,-366 103,-366 100,-366 97,-363 97,-360 97,-360 97,-354 97,-354 97,-351 100,-348 103,-348 103,-348 147,-348 147,-348 150,-348 153,-351 153,-354 153,-354 153,-360 153,-360 153,-363 150,-366 147,-366"/>
<text text-anchor="start" x="105" y="-354.8" font-family="Helvetica,sans-Serif" font-size="9.00">plugins.js</text>
</a>
</g>
</g>
<!-- src/report/index.js&#45;&gt;src/report/plugins.js -->
<g id="edge39" class="edge">
<title>src/report/index.js&#45;&gt;src/report/plugins.js</title>
<path fill="none" stroke="#ff00ff" stroke-width="2" stroke-opacity="0.466667" d="M46,-202.29C46,-236.98 46,-357 46,-357 46,-357 87.93,-357 87.93,-357"/>
<polygon fill="#ff00ff" fill-opacity="0.466667" stroke="#ff00ff" stroke-width="2" stroke-opacity="0.466667" points="87.93,-359.1 93.93,-357 87.93,-354.9 87.93,-359.1"/>
</g>
<!-- src/report/teamcity.js -->
<g id="node30" class="node">
<title>src/report/teamcity.js</title>
<g id="a_node30"><a xlink:href="https://github.com/sverweij/dependency-cruiser/blob/develop/src/report/teamcity.js" xlink:title="teamcity.js">
<path fill="#ffccff" stroke="black" d="M225,-205C225,-205 178,-205 178,-205 175,-205 172,-202 172,-199 172,-199 172,-193 172,-193 172,-190 175,-187 178,-187 178,-187 225,-187 225,-187 228,-187 231,-190 231,-193 231,-193 231,-199 231,-199 231,-202 228,-205 225,-205"/>
<text text-anchor="start" x="180" y="-193.8" font-family="Helvetica,sans-Serif" font-size="9.00">teamcity.js</text>
</a>
</g>
</g>
<!-- src/report/index.js&#45;&gt;src/report/teamcity.js -->
<g id="edge40" class="edge">
<title>src/report/index.js&#45;&gt;src/report/teamcity.js</title>
<path fill="none" stroke="#ff00ff" stroke-width="2" stroke-opacity="0.466667" d="M73,-202.41C73,-206.11 73,-209.5 73,-209.5 73,-209.5 202,-209.5 202,-209.5 202,-209.5 202,-209.07 202,-209.07"/>
<polygon fill="#ff00ff" fill-opacity="0.466667" stroke="#ff00ff" stroke-width="2" stroke-opacity="0.466667" points="204.1,-214.23 202,-208.23 199.9,-214.23 204.1,-214.23"/>
</g>
<!-- src/report/text.js -->
<g id="node31" class="node">
<title>src/report/text.js</title>
<g id="a_node31"><a xlink:href="https://github.com/sverweij/dependency-cruiser/blob/develop/src/report/text.js" xlink:title="text.js">
<path fill="#ffccff" stroke="black" d="M146,-410C146,-410 104,-410 104,-410 101,-410 98,-407 98,-404 98,-404 98,-398 98,-398 98,-395 101,-392 104,-392 104,-392 146,-392 146,-392 149,-392 152,-395 152,-398 152,-398 152,-404 152,-404 152,-407 149,-410 146,-410"/>
<text text-anchor="start" x="113" y="-398.8" font-family="Helvetica,sans-Serif" font-size="9.00">text.js</text>
</a>
</g>
</g>
<!-- src/report/index.js&#45;&gt;src/report/text.js -->
<g id="edge41" class="edge">
<title>src/report/index.js&#45;&gt;src/report/text.js</title>
<path fill="none" stroke="#ff00ff" stroke-width="2" stroke-opacity="0.466667" d="M30,-202.48C30,-243.17 30,-401 30,-401 30,-401 88.52,-401 88.52,-401"/>
<polygon fill="#ff00ff" fill-opacity="0.466667" stroke="#ff00ff" stroke-width="2" stroke-opacity="0.466667" points="88.52,-403.1 94.52,-401 88.52,-398.9 88.52,-403.1"/>
</g>
<!-- src/report/markdown.js&#45;&gt;src/report/error&#45;html -->
<g id="edge42" class="edge">
<title>src/report/markdown.js&#45;&gt;src/report/error&#45;html</title>
<path fill="none" stroke="#ff00ff" stroke-width="2" stroke-opacity="0.466667" d="M159.45,-121C179.95,-121 202,-121 202,-121 202,-121 202,-121.58 202,-121.58"/>
<polygon fill="#ff00ff" fill-opacity="0.466667" stroke="#ff00ff" stroke-width="2" stroke-opacity="0.466667" points="199.9,-117.76 202,-123.76 204.1,-117.76 199.9,-117.76"/>
</g>
<!-- src/report/metrics.js&#45;&gt;src/report/utl -->
<g id="edge43" class="edge">
<title>src/report/metrics.js&#45;&gt;src/report/utl</title>
<path fill="none" stroke="#ff00ff" stroke-width="2" stroke-opacity="0.466667" d="M229.37,-166C229.37,-166 268.32,-166 268.32,-166"/>
<polygon fill="#ff00ff" fill-opacity="0.466667" stroke="#ff00ff" stroke-width="2" stroke-opacity="0.466667" points="268.32,-168.1 274.32,-166 268.32,-163.9 268.32,-168.1"/>
</g>
<!-- src/report/teamcity.js&#45;&gt;src/report/utl -->
<g id="edge44" class="edge">
<title>src/report/teamcity.js&#45;&gt;src/report/utl</title>
<path fill="none" stroke="#ff00ff" stroke-width="2" stroke-opacity="0.466667" d="M231.3,-196C257.34,-196 291,-196 291,-196 291,-196 291,-184.49 291,-184.49"/>
<polygon fill="#ff00ff" fill-opacity="0.466667" stroke="#ff00ff" stroke-width="2" stroke-opacity="0.466667" points="293.1,-184.49 291,-178.49 288.9,-184.49 293.1,-184.49"/>
</g>
</g>
</svg>
