<?xml version="1.0" encoding="UTF-8" standalone="no"?>
<!DOCTYPE svg PUBLIC "-//W3C//DTD SVG 1.1//EN"
 "http://www.w3.org/Graphics/SVG/1.1/DTD/svg11.dtd">
<!-- Generated by graphviz version 8.0.5 (20230430.1635)
 -->
<!-- Title: dependency&#45;cruiser output Pages: 1 -->
<svg width="676pt" height="620pt"
 viewBox="0.00 0.00 675.50 620.00" xmlns="http://www.w3.org/2000/svg" xmlns:xlink="http://www.w3.org/1999/xlink">
<g id="graph0" class="graph" transform="scale(1 1) rotate(0) translate(4 616)">
<title>dependency&#45;cruiser output</title>
<polygon fill="white" stroke="none" points="-4,4 -4,-616 671.5,-616 671.5,4 -4,4"/>
<g id="clust1" class="cluster">
<title>cluster_src</title>
<path fill="#ffffff" stroke="black" stroke-width="2" d="M20,-8C20,-8 647.5,-8 647.5,-8 653.5,-8 659.5,-14 659.5,-20 659.5,-20 659.5,-592 659.5,-592 659.5,-598 653.5,-604 647.5,-604 647.5,-604 20,-604 20,-604 14,-604 8,-598 8,-592 8,-592 8,-20 8,-20 8,-14 14,-8 20,-8"/>
<text text-anchor="middle" x="333.75" y="-591.45" font-family="Helvetica,sans-Serif" font-weight="bold" font-size="9.00">src</text>
</g>
<g id="clust2" class="cluster">
<title>cluster_src/graph&#45;utl</title>
<path fill="#ffffff" stroke="black" stroke-width="2" d="M198.5,-346C198.5,-346 639.5,-346 639.5,-346 645.5,-346 651.5,-352 651.5,-358 651.5,-358 651.5,-506 651.5,-506 651.5,-512 645.5,-518 639.5,-518 639.5,-518 198.5,-518 198.5,-518 192.5,-518 186.5,-512 186.5,-506 186.5,-506 186.5,-358 186.5,-358 186.5,-352 192.5,-346 198.5,-346"/>
<text text-anchor="middle" x="419" y="-505.45" font-family="Helvetica,sans-Serif" font-weight="bold" font-size="9.00">graph&#45;utl</text>
</g>
<g id="clust3" class="cluster">
<title>cluster_src/report</title>
<path fill="#ffffff" stroke="black" stroke-width="2" d="M28,-16C28,-16 278.38,-16 278.38,-16 284.38,-16 290.38,-22 290.38,-28 290.38,-28 290.38,-326 290.38,-326 290.38,-332 284.38,-338 278.38,-338 278.38,-338 28,-338 28,-338 22,-338 16,-332 16,-326 16,-326 16,-28 16,-28 16,-22 22,-16 28,-16"/>
<text text-anchor="middle" x="153.19" y="-325.45" font-family="Helvetica,sans-Serif" font-weight="bold" font-size="9.00">report</text>
</g>
<g id="clust4" class="cluster">
<title>cluster_src/utl</title>
<path fill="#ffffff" stroke="black" stroke-width="2" d="M209.38,-526C209.38,-526 301.38,-526 301.38,-526 307.38,-526 313.38,-532 313.38,-538 313.38,-538 313.38,-566 313.38,-566 313.38,-572 307.38,-578 301.38,-578 301.38,-578 209.38,-578 209.38,-578 203.38,-578 197.38,-572 197.38,-566 197.38,-566 197.38,-538 197.38,-538 197.38,-532 203.38,-526 209.38,-526"/>
<text text-anchor="start" x="250.12" y="-565.45" font-family="Helvetica,sans-Serif" font-weight="bold" font-size="9.00">utl</text>
</g>
<!-- src/graph&#45;utl/add&#45;focus.mjs -->
<g id="node1" class="node">
<title>src/graph&#45;utl/add&#45;focus.mjs</title>
<g id="a_node1"><a xlink:href="https://github.com/sverweij/dependency-cruiser/blob/main/src/graph-utl/add-focus.mjs" xlink:title="add&#45;focus.mjs">
<path fill="#ffcccc" stroke="black" d="M447.33,-461.88C447.33,-461.88 386.17,-461.88 386.17,-461.88 383.21,-461.88 380.25,-458.92 380.25,-455.96 380.25,-455.96 380.25,-450.04 380.25,-450.04 380.25,-447.08 383.21,-444.12 386.17,-444.12 386.17,-444.12 447.33,-444.12 447.33,-444.12 450.29,-444.12 453.25,-447.08 453.25,-450.04 453.25,-450.04 453.25,-455.96 453.25,-455.96 453.25,-458.92 450.29,-461.88 447.33,-461.88"/>
<text text-anchor="start" x="388.25" y="-449.32" font-family="Helvetica,sans-Serif" font-size="9.00">add&#45;focus.mjs</text>
</a>
</g>
</g>
<!-- src/graph&#45;utl/indexed&#45;module&#45;graph.mjs -->
<g id="node2" class="node">
<title>src/graph&#45;utl/indexed&#45;module&#45;graph.mjs</title>
<g id="a_node2"><a xlink:href="https://github.com/sverweij/dependency-cruiser/blob/main/src/graph-utl/indexed-module-graph.mjs" xlink:title="indexed&#45;module&#45;graph.mjs">
<path fill="#ffcccc" stroke="black" d="M637.58,-479.88C637.58,-479.88 523.17,-479.88 523.17,-479.88 520.21,-479.88 517.25,-476.92 517.25,-473.96 517.25,-473.96 517.25,-468.04 517.25,-468.04 517.25,-465.08 520.21,-462.12 523.17,-462.12 523.17,-462.12 637.58,-462.12 637.58,-462.12 640.54,-462.12 643.5,-465.08 643.5,-468.04 643.5,-468.04 643.5,-473.96 643.5,-473.96 643.5,-476.92 640.54,-479.88 637.58,-479.88"/>
<text text-anchor="start" x="525.25" y="-467.32" font-family="Helvetica,sans-Serif" font-size="9.00">indexed&#45;module&#45;graph.mjs</text>
</a>
</g>
</g>
<!-- src/graph&#45;utl/add&#45;focus.mjs&#45;&gt;src/graph&#45;utl/indexed&#45;module&#45;graph.mjs -->
<g id="edge1" class="edge">
<title>src/graph&#45;utl/add&#45;focus.mjs&#45;&gt;src/graph&#45;utl/indexed&#45;module&#45;graph.mjs</title>
<path fill="none" stroke="#770000" stroke-width="2" stroke-opacity="0.466667" d="M453.63,-453C485.85,-453 527.5,-453 527.5,-453 527.5,-453 527.5,-453.9 527.5,-453.9"/>
<polygon fill="#770000" fill-opacity="0.466667" stroke="#770000" stroke-width="2" stroke-opacity="0.466667" points="525.4,-453 527.5,-459 529.6,-453 525.4,-453"/>
</g>
<!-- src/graph&#45;utl/match&#45;facade.mjs -->
<g id="node3" class="node">
<title>src/graph&#45;utl/match&#45;facade.mjs</title>
<g id="a_node3"><a xlink:href="https://github.com/sverweij/dependency-cruiser/blob/main/src/graph-utl/match-facade.mjs" xlink:title="match&#45;facade.mjs">
<path fill="#ffcccc" stroke="black" d="M618.46,-442.88C618.46,-442.88 542.29,-442.88 542.29,-442.88 539.33,-442.88 536.38,-439.92 536.38,-436.96 536.38,-436.96 536.38,-431.04 536.38,-431.04 536.38,-428.08 539.33,-425.12 542.29,-425.12 542.29,-425.12 618.46,-425.12 618.46,-425.12 621.42,-425.12 624.38,-428.08 624.38,-431.04 624.38,-431.04 624.38,-436.96 624.38,-436.96 624.38,-439.92 621.42,-442.88 618.46,-442.88"/>
<text text-anchor="start" x="544.38" y="-430.32" font-family="Helvetica,sans-Serif" font-size="9.00">match&#45;facade.mjs</text>
</a>
</g>
</g>
<!-- src/graph&#45;utl/add&#45;focus.mjs&#45;&gt;src/graph&#45;utl/match&#45;facade.mjs -->
<g id="edge2" class="edge">
<title>src/graph&#45;utl/add&#45;focus.mjs&#45;&gt;src/graph&#45;utl/match&#45;facade.mjs</title>
<path fill="none" stroke="#770000" stroke-width="2" stroke-opacity="0.466667" d="M417.5,-443.88C417.5,-441.31 417.5,-439.21 417.5,-439.21 417.5,-439.21 527.3,-439.21 527.3,-439.21"/>
<polygon fill="#770000" fill-opacity="0.466667" stroke="#770000" stroke-width="2" stroke-opacity="0.466667" points="527.3,-441.31 533.3,-439.21 527.3,-437.11 527.3,-441.31"/>
</g>
<!-- src/graph&#45;utl/compare.mjs -->
<g id="node4" class="node">
<title>src/graph&#45;utl/compare.mjs</title>
<g id="a_node4"><a xlink:href="https://github.com/sverweij/dependency-cruiser/blob/main/src/graph-utl/compare.mjs" xlink:title="compare.mjs">
<path fill="#ffcccc" stroke="black" d="M608.71,-371.88C608.71,-371.88 552.04,-371.88 552.04,-371.88 549.08,-371.88 546.12,-368.92 546.12,-365.96 546.12,-365.96 546.12,-360.04 546.12,-360.04 546.12,-357.08 549.08,-354.12 552.04,-354.12 552.04,-354.12 608.71,-354.12 608.71,-354.12 611.67,-354.12 614.62,-357.08 614.62,-360.04 614.62,-360.04 614.62,-365.96 614.62,-365.96 614.62,-368.92 611.67,-371.88 608.71,-371.88"/>
<text text-anchor="start" x="554.12" y="-359.32" font-family="Helvetica,sans-Serif" font-size="9.00">compare.mjs</text>
</a>
</g>
</g>
<!-- src/graph&#45;utl/consolidate&#45;module&#45;dependencies.mjs -->
<g id="node5" class="node">
<title>src/graph&#45;utl/consolidate&#45;module&#45;dependencies.mjs</title>
<g id="a_node5"><a xlink:href="https://github.com/sverweij/dependency-cruiser/blob/main/src/graph-utl/consolidate-module-dependencies.mjs" xlink:title="consolidate&#45;module&#45;dependencies.mjs">
<path fill="#ffcccc" stroke="black" d="M498.33,-371.88C498.33,-371.88 335.17,-371.88 335.17,-371.88 332.21,-371.88 329.25,-368.92 329.25,-365.96 329.25,-365.96 329.25,-360.04 329.25,-360.04 329.25,-357.08 332.21,-354.12 335.17,-354.12 335.17,-354.12 498.33,-354.12 498.33,-354.12 501.29,-354.12 504.25,-357.08 504.25,-360.04 504.25,-360.04 504.25,-365.96 504.25,-365.96 504.25,-368.92 501.29,-371.88 498.33,-371.88"/>
<text text-anchor="start" x="337.25" y="-359.32" font-family="Helvetica,sans-Serif" font-size="9.00">consolidate&#45;module&#45;dependencies.mjs</text>
</a>
</g>
</g>
<!-- src/graph&#45;utl/consolidate&#45;module&#45;dependencies.mjs&#45;&gt;src/graph&#45;utl/compare.mjs -->
<g id="edge3" class="edge">
<title>src/graph&#45;utl/consolidate&#45;module&#45;dependencies.mjs&#45;&gt;src/graph&#45;utl/compare.mjs</title>
<path fill="none" stroke="#770000" stroke-width="2" stroke-opacity="0.466667" d="M504.31,-363C504.31,-363 536.86,-363 536.86,-363"/>
<polygon fill="#770000" fill-opacity="0.466667" stroke="#770000" stroke-width="2" stroke-opacity="0.466667" points="536.86,-365.1 542.86,-363 536.86,-360.9 536.86,-365.1"/>
</g>
<!-- src/graph&#45;utl/consolidate&#45;modules.mjs -->
<g id="node6" class="node">
<title>src/graph&#45;utl/consolidate&#45;modules.mjs</title>
<g id="a_node6"><a xlink:href="https://github.com/sverweij/dependency-cruiser/blob/main/src/graph-utl/consolidate-modules.mjs" xlink:title="consolidate&#45;modules.mjs">
<path fill="#ffcccc" stroke="black" d="M469.83,-401.88C469.83,-401.88 363.67,-401.88 363.67,-401.88 360.71,-401.88 357.75,-398.92 357.75,-395.96 357.75,-395.96 357.75,-390.04 357.75,-390.04 357.75,-387.08 360.71,-384.12 363.67,-384.12 363.67,-384.12 469.83,-384.12 469.83,-384.12 472.79,-384.12 475.75,-387.08 475.75,-390.04 475.75,-390.04 475.75,-395.96 475.75,-395.96 475.75,-398.92 472.79,-401.88 469.83,-401.88"/>
<text text-anchor="start" x="365.75" y="-389.32" font-family="Helvetica,sans-Serif" font-size="9.00">consolidate&#45;modules.mjs</text>
</a>
</g>
</g>
<!-- src/graph&#45;utl/consolidate&#45;modules.mjs&#45;&gt;src/graph&#45;utl/compare.mjs -->
<g id="edge4" class="edge">
<title>src/graph&#45;utl/consolidate&#45;modules.mjs&#45;&gt;src/graph&#45;utl/compare.mjs</title>
<path fill="none" stroke="#770000" stroke-width="2" stroke-opacity="0.466667" d="M475.87,-393C522.77,-393 580.5,-393 580.5,-393 580.5,-393 580.5,-381.16 580.5,-381.16"/>
<polygon fill="#770000" fill-opacity="0.466667" stroke="#770000" stroke-width="2" stroke-opacity="0.466667" points="582.6,-381.16 580.5,-375.16 578.4,-381.16 582.6,-381.16"/>
</g>
<!-- src/graph&#45;utl/consolidate&#45;to&#45;folder.mjs -->
<g id="node7" class="node">
<title>src/graph&#45;utl/consolidate&#45;to&#45;folder.mjs</title>
<g id="a_node7"><a xlink:href="https://github.com/sverweij/dependency-cruiser/blob/main/src/graph-utl/consolidate-to-folder.mjs" xlink:title="consolidate&#45;to&#45;folder.mjs">
<path fill="#ffcccc" stroke="black" d="M307.71,-371.88C307.71,-371.88 203.04,-371.88 203.04,-371.88 200.08,-371.88 197.12,-368.92 197.12,-365.96 197.12,-365.96 197.12,-360.04 197.12,-360.04 197.12,-357.08 200.08,-354.12 203.04,-354.12 203.04,-354.12 307.71,-354.12 307.71,-354.12 310.67,-354.12 313.62,-357.08 313.62,-360.04 313.62,-360.04 313.62,-365.96 313.62,-365.96 313.62,-368.92 310.67,-371.88 307.71,-371.88"/>
<text text-anchor="start" x="205.12" y="-359.32" font-family="Helvetica,sans-Serif" font-size="9.00">consolidate&#45;to&#45;folder.mjs</text>
</a>
</g>
</g>
<!-- src/graph&#45;utl/consolidate&#45;to&#45;folder.mjs&#45;&gt;src/graph&#45;utl/consolidate&#45;module&#45;dependencies.mjs -->
<g id="edge5" class="edge">
<title>src/graph&#45;utl/consolidate&#45;to&#45;folder.mjs&#45;&gt;src/graph&#45;utl/consolidate&#45;module&#45;dependencies.mjs</title>
<path fill="none" stroke="#770000" stroke-width="2" stroke-opacity="0.466667" d="M314.09,-360.04C314.09,-360.04 319.96,-360.04 319.96,-360.04"/>
<polygon fill="#770000" fill-opacity="0.466667" stroke="#770000" stroke-width="2" stroke-opacity="0.466667" points="319.96,-362.14 325.96,-360.04 319.96,-357.94 319.96,-362.14"/>
</g>
<!-- src/graph&#45;utl/consolidate&#45;to&#45;folder.mjs&#45;&gt;src/graph&#45;utl/consolidate&#45;modules.mjs -->
<g id="edge6" class="edge">
<title>src/graph&#45;utl/consolidate&#45;to&#45;folder.mjs&#45;&gt;src/graph&#45;utl/consolidate&#45;modules.mjs</title>
<path fill="none" stroke="#770000" stroke-width="2" stroke-opacity="0.466667" d="M314.03,-365.96C319.76,-365.96 323.5,-365.96 323.5,-365.96 323.5,-365.96 323.5,-393 323.5,-393 323.5,-393 348.43,-393 348.43,-393"/>
<polygon fill="#770000" fill-opacity="0.466667" stroke="#770000" stroke-width="2" stroke-opacity="0.466667" points="348.43,-395.1 354.43,-393 348.43,-390.9 348.43,-395.1"/>
</g>
<!-- src/graph&#45;utl/consolidate&#45;to&#45;pattern.mjs -->
<g id="node8" class="node">
<title>src/graph&#45;utl/consolidate&#45;to&#45;pattern.mjs</title>
<g id="a_node8"><a xlink:href="https://github.com/sverweij/dependency-cruiser/blob/main/src/graph-utl/consolidate-to-pattern.mjs" xlink:title="consolidate&#45;to&#45;pattern.mjs">
<path fill="#ffcccc" stroke="black" d="M310.33,-431.88C310.33,-431.88 200.42,-431.88 200.42,-431.88 197.46,-431.88 194.5,-428.92 194.5,-425.96 194.5,-425.96 194.5,-420.04 194.5,-420.04 194.5,-417.08 197.46,-414.12 200.42,-414.12 200.42,-414.12 310.33,-414.12 310.33,-414.12 313.29,-414.12 316.25,-417.08 316.25,-420.04 316.25,-420.04 316.25,-425.96 316.25,-425.96 316.25,-428.92 313.29,-431.88 310.33,-431.88"/>
<text text-anchor="start" x="202.5" y="-419.32" font-family="Helvetica,sans-Serif" font-size="9.00">consolidate&#45;to&#45;pattern.mjs</text>
</a>
</g>
</g>
<!-- src/graph&#45;utl/consolidate&#45;to&#45;pattern.mjs&#45;&gt;src/graph&#45;utl/consolidate&#45;module&#45;dependencies.mjs -->
<g id="edge7" class="edge">
<title>src/graph&#45;utl/consolidate&#45;to&#45;pattern.mjs&#45;&gt;src/graph&#45;utl/consolidate&#45;module&#45;dependencies.mjs</title>
<path fill="none" stroke="#770000" stroke-width="2" stroke-opacity="0.466667" d="M316.58,-417.79C331.62,-417.79 343.5,-417.79 343.5,-417.79 343.5,-417.79 343.5,-381.05 343.5,-381.05"/>
<polygon fill="#770000" fill-opacity="0.466667" stroke="#770000" stroke-width="2" stroke-opacity="0.466667" points="345.6,-381.05 343.5,-375.05 341.4,-381.05 345.6,-381.05"/>
</g>
<!-- src/graph&#45;utl/consolidate&#45;to&#45;pattern.mjs&#45;&gt;src/graph&#45;utl/consolidate&#45;modules.mjs -->
<g id="edge8" class="edge">
<title>src/graph&#45;utl/consolidate&#45;to&#45;pattern.mjs&#45;&gt;src/graph&#45;utl/consolidate&#45;modules.mjs</title>
<path fill="none" stroke="#770000" stroke-width="2" stroke-opacity="0.466667" d="M316.45,-421.46C343.58,-421.46 369.5,-421.46 369.5,-421.46 369.5,-421.46 369.5,-411.32 369.5,-411.32"/>
<polygon fill="#770000" fill-opacity="0.466667" stroke="#770000" stroke-width="2" stroke-opacity="0.466667" points="371.6,-411.32 369.5,-405.32 367.4,-411.32 371.6,-411.32"/>
</g>
<!-- src/graph&#45;utl/filter&#45;bank.mjs -->
<g id="node9" class="node">
<title>src/graph&#45;utl/filter&#45;bank.mjs</title>
<g id="a_node9"><a xlink:href="https://github.com/sverweij/dependency-cruiser/blob/main/src/graph-utl/filter-bank.mjs" xlink:title="filter&#45;bank.mjs">
<path fill="#ffcccc" stroke="black" d="M285.96,-461.88C285.96,-461.88 224.79,-461.88 224.79,-461.88 221.83,-461.88 218.88,-458.92 218.88,-455.96 218.88,-455.96 218.88,-450.04 218.88,-450.04 218.88,-447.08 221.83,-444.12 224.79,-444.12 224.79,-444.12 285.96,-444.12 285.96,-444.12 288.92,-444.12 291.88,-447.08 291.88,-450.04 291.88,-450.04 291.88,-455.96 291.88,-455.96 291.88,-458.92 288.92,-461.88 285.96,-461.88"/>
<text text-anchor="start" x="226.88" y="-449.32" font-family="Helvetica,sans-Serif" font-size="9.00">filter&#45;bank.mjs</text>
</a>
</g>
</g>
<!-- src/graph&#45;utl/filter&#45;bank.mjs&#45;&gt;src/graph&#45;utl/add&#45;focus.mjs -->
<g id="edge9" class="edge">
<title>src/graph&#45;utl/filter&#45;bank.mjs&#45;&gt;src/graph&#45;utl/add&#45;focus.mjs</title>
<path fill="none" stroke="#770000" stroke-width="2" stroke-opacity="0.466667" d="M291.99,-453C291.99,-453 371,-453 371,-453"/>
<polygon fill="#770000" fill-opacity="0.466667" stroke="#770000" stroke-width="2" stroke-opacity="0.466667" points="371,-455.1 377,-453 371,-450.9 371,-455.1"/>
</g>
<!-- src/graph&#45;utl/filter&#45;bank.mjs&#45;&gt;src/graph&#45;utl/indexed&#45;module&#45;graph.mjs -->
<g id="edge10" class="edge">
<title>src/graph&#45;utl/filter&#45;bank.mjs&#45;&gt;src/graph&#45;utl/indexed&#45;module&#45;graph.mjs</title>
<path fill="none" stroke="#770000" stroke-width="2" stroke-opacity="0.466667" d="M255.5,-462.32C255.5,-465.43 255.5,-468.12 255.5,-468.12 255.5,-468.12 507.96,-468.12 507.96,-468.12"/>
<polygon fill="#770000" fill-opacity="0.466667" stroke="#770000" stroke-width="2" stroke-opacity="0.466667" points="507.96,-470.23 513.96,-468.12 507.96,-466.03 507.96,-470.23"/>
</g>
<!-- src/graph&#45;utl/filter&#45;bank.mjs&#45;&gt;src/graph&#45;utl/match&#45;facade.mjs -->
<g id="edge11" class="edge">
<title>src/graph&#45;utl/filter&#45;bank.mjs&#45;&gt;src/graph&#45;utl/match&#45;facade.mjs</title>
<path fill="none" stroke="#770000" stroke-width="2" stroke-opacity="0.466667" d="M255.5,-443.86C255.5,-439.64 255.5,-435.54 255.5,-435.54 255.5,-435.54 526.88,-435.54 526.88,-435.54"/>
<polygon fill="#770000" fill-opacity="0.466667" stroke="#770000" stroke-width="2" stroke-opacity="0.466667" points="526.88,-437.64 532.88,-435.54 526.88,-433.44 526.88,-437.64"/>
</g>
<!-- src/graph&#45;utl/rule&#45;set.mjs -->
<g id="node10" class="node">
<title>src/graph&#45;utl/rule&#45;set.mjs</title>
<g id="a_node10"><a xlink:href="https://github.com/sverweij/dependency-cruiser/blob/main/src/graph-utl/rule-set.mjs" xlink:title="rule&#45;set.mjs">
<path fill="#ffcccc" stroke="black" d="M281.08,-491.88C281.08,-491.88 229.67,-491.88 229.67,-491.88 226.71,-491.88 223.75,-488.92 223.75,-485.96 223.75,-485.96 223.75,-480.04 223.75,-480.04 223.75,-477.08 226.71,-474.12 229.67,-474.12 229.67,-474.12 281.08,-474.12 281.08,-474.12 284.04,-474.12 287,-477.08 287,-480.04 287,-480.04 287,-485.96 287,-485.96 287,-488.92 284.04,-491.88 281.08,-491.88"/>
<text text-anchor="start" x="231.75" y="-479.32" font-family="Helvetica,sans-Serif" font-size="9.00">rule&#45;set.mjs</text>
</a>
</g>
</g>
<!-- src/graph&#45;utl/strip&#45;self&#45;transitions.mjs -->
<g id="node11" class="node">
<title>src/graph&#45;utl/strip&#45;self&#45;transitions.mjs</title>
<g id="a_node11"><a xlink:href="https://github.com/sverweij/dependency-cruiser/blob/main/src/graph-utl/strip-self-transitions.mjs" xlink:title="strip&#45;self&#45;transitions.mjs">
<path fill="#ffcccc" stroke="black" d="M305.46,-401.88C305.46,-401.88 205.29,-401.88 205.29,-401.88 202.33,-401.88 199.38,-398.92 199.38,-395.96 199.38,-395.96 199.38,-390.04 199.38,-390.04 199.38,-387.08 202.33,-384.12 205.29,-384.12 205.29,-384.12 305.46,-384.12 305.46,-384.12 308.42,-384.12 311.38,-387.08 311.38,-390.04 311.38,-390.04 311.38,-395.96 311.38,-395.96 311.38,-398.92 308.42,-401.88 305.46,-401.88"/>
<text text-anchor="start" x="207.38" y="-389.32" font-family="Helvetica,sans-Serif" font-size="9.00">strip&#45;self&#45;transitions.mjs</text>
</a>
</g>
</g>
<!-- src/report/anon -->
<g id="node12" class="node">
<title>src/report/anon</title>
<g id="a_node12"><a xlink:href="https://github.com/sverweij/dependency-cruiser/blob/main/src/report/anon" xlink:title="anon">
<polygon fill="#ffccff" stroke="black" points="88.62,-311.88 36.6,-311.88 34.62,-309.9 34.62,-294.12 86.65,-294.12 88.62,-296.1 88.62,-311.88"/>
<polyline fill="none" stroke="black" points="86.65,-309.9 34.62,-309.9"/>
<polyline fill="none" stroke="black" points="86.65,-309.9 86.65,-294.12"/>
<polyline fill="none" stroke="black" points="86.65,-309.9 88.62,-311.88"/>
<text text-anchor="start" x="51.12" y="-299.32" font-family="Helvetica,sans-Serif" font-size="9.00">anon</text>
</a>
</g>
</g>
<!-- src/report/baseline.mjs -->
<g id="node13" class="node">
<title>src/report/baseline.mjs</title>
<g id="a_node13"><a xlink:href="https://github.com/sverweij/dependency-cruiser/blob/main/src/report/baseline.mjs" xlink:title="no&#45;orphans">
<path fill="#ffccff" stroke="red" d="M89.58,-281.88C89.58,-281.88 33.67,-281.88 33.67,-281.88 30.71,-281.88 27.75,-278.92 27.75,-275.96 27.75,-275.96 27.75,-270.04 27.75,-270.04 27.75,-267.08 30.71,-264.12 33.67,-264.12 33.67,-264.12 89.58,-264.12 89.58,-264.12 92.54,-264.12 95.5,-267.08 95.5,-270.04 95.5,-270.04 95.5,-275.96 95.5,-275.96 95.5,-278.92 92.54,-281.88 89.58,-281.88"/>
<text text-anchor="start" x="35.75" y="-269.32" font-family="Helvetica,sans-Serif" font-size="9.00" fill="red">baseline.mjs</text>
</a>
</g>
</g>
<!-- src/report/csv.mjs -->
<g id="node14" class="node">
<title>src/report/csv.mjs</title>
<g id="a_node14"><a xlink:href="https://github.com/sverweij/dependency-cruiser/blob/main/src/report/csv.mjs" xlink:title="csv.mjs">
<path fill="#ffccff" stroke="black" d="M166.46,-221.88C166.46,-221.88 124.29,-221.88 124.29,-221.88 121.33,-221.88 118.38,-218.92 118.38,-215.96 118.38,-215.96 118.38,-210.04 118.38,-210.04 118.38,-207.08 121.33,-204.12 124.29,-204.12 124.29,-204.12 166.46,-204.12 166.46,-204.12 169.42,-204.12 172.38,-207.08 172.38,-210.04 172.38,-210.04 172.38,-215.96 172.38,-215.96 172.38,-218.92 169.42,-221.88 166.46,-221.88"/>
<text text-anchor="start" x="130.38" y="-209.32" font-family="Helvetica,sans-Serif" font-size="9.00">csv.mjs</text>
</a>
</g>
</g>
<!-- src/report/utl -->
<g id="node15" class="node">
<title>src/report/utl</title>
<g id="a_node15"><a xlink:href="https://github.com/sverweij/dependency-cruiser/blob/main/src/report/utl" xlink:title="utl">
<polygon fill="#ffccff" stroke="black" points="282.38,-221.88 230.35,-221.88 228.38,-219.9 228.38,-204.12 280.4,-204.12 282.38,-206.1 282.38,-221.88"/>
<polyline fill="none" stroke="black" points="280.4,-219.9 228.38,-219.9"/>
<polyline fill="none" stroke="black" points="280.4,-219.9 280.4,-204.12"/>
<polyline fill="none" stroke="black" points="280.4,-219.9 282.38,-221.88"/>
<text text-anchor="start" x="250.5" y="-209.32" font-family="Helvetica,sans-Serif" font-size="9.00">utl</text>
</a>
</g>
</g>
<!-- src/report/csv.mjs&#45;&gt;src/report/utl -->
<g id="edge12" class="edge">
<title>src/report/csv.mjs&#45;&gt;src/report/utl</title>
<path fill="none" stroke="#ff00ff" stroke-width="2" stroke-opacity="0.466667" d="M172.85,-213C172.85,-213 219.25,-213 219.25,-213"/>
<polygon fill="#ff00ff" fill-opacity="0.466667" stroke="#ff00ff" stroke-width="2" stroke-opacity="0.466667" points="219.25,-215.1 225.25,-213 219.25,-210.9 219.25,-215.1"/>
</g>
<!-- src/report/dot -->
<g id="node16" class="node">
<title>src/report/dot</title>
<g id="a_node16"><a xlink:href="https://github.com/sverweij/dependency-cruiser/blob/main/src/report/dot" xlink:title="dot">
<polygon fill="#ffccff" stroke="black" points="172.38,-281.88 120.35,-281.88 118.38,-279.9 118.38,-264.12 170.4,-264.12 172.38,-266.1 172.38,-281.88"/>
<polyline fill="none" stroke="black" points="170.4,-279.9 118.38,-279.9"/>
<polyline fill="none" stroke="black" points="170.4,-279.9 170.4,-264.12"/>
<polyline fill="none" stroke="black" points="170.4,-279.9 172.38,-281.88"/>
<text text-anchor="start" x="139" y="-269.32" font-family="Helvetica,sans-Serif" font-size="9.00">dot</text>
</a>
</g>
</g>
<!-- src/report/dot&#45;&gt;src/graph&#45;utl/compare.mjs -->
<g id="edge15" class="edge">
<title>src/report/dot&#45;&gt;src/graph&#45;utl/compare.mjs</title>
<path fill="none" stroke="#770000" stroke-width="2" stroke-opacity="0.466667" d="M172.59,-269.2C267.85,-269.2 580.5,-269.2 580.5,-269.2 580.5,-269.2 580.5,-344.66 580.5,-344.66"/>
<polygon fill="#770000" fill-opacity="0.466667" stroke="#770000" stroke-width="2" stroke-opacity="0.466667" points="578.4,-344.66 580.5,-350.66 582.6,-344.66 578.4,-344.66"/>
</g>
<!-- src/report/dot&#45;&gt;src/graph&#45;utl/consolidate&#45;to&#45;folder.mjs -->
<g id="edge18" class="edge">
<title>src/report/dot&#45;&gt;src/graph&#45;utl/consolidate&#45;to&#45;folder.mjs</title>
<path fill="none" stroke="#770000" stroke-width="2" stroke-opacity="0.466667" d="M172.69,-271.73C191.64,-271.73 213.5,-271.73 213.5,-271.73 213.5,-271.73 213.5,-344.92 213.5,-344.92"/>
<polygon fill="#770000" fill-opacity="0.466667" stroke="#770000" stroke-width="2" stroke-opacity="0.466667" points="211.4,-344.92 213.5,-350.92 215.6,-344.92 211.4,-344.92"/>
</g>
<!-- src/report/dot&#45;&gt;src/graph&#45;utl/consolidate&#45;to&#45;pattern.mjs -->
<g id="edge16" class="edge">
<title>src/report/dot&#45;&gt;src/graph&#45;utl/consolidate&#45;to&#45;pattern.mjs</title>
<path fill="none" stroke="#770000" stroke-width="2" stroke-opacity="0.466667" d="M172.58,-276.8C180.22,-276.8 186.5,-276.8 186.5,-276.8 186.5,-276.8 186.5,-423 186.5,-423 186.5,-423 187.26,-423 187.26,-423"/>
<polygon fill="#770000" fill-opacity="0.466667" stroke="#770000" stroke-width="2" stroke-opacity="0.466667" points="185.13,-425.1 191.13,-423 185.13,-420.9 185.13,-425.1"/>
</g>
<!-- src/report/dot&#45;&gt;src/graph&#45;utl/filter&#45;bank.mjs -->
<g id="edge13" class="edge">
<title>src/report/dot&#45;&gt;src/graph&#45;utl/filter&#45;bank.mjs</title>
<path fill="none" stroke="#770000" stroke-width="2" stroke-opacity="0.466667" d="M172.75,-279.34C178.31,-279.34 182.5,-279.34 182.5,-279.34 182.5,-279.34 182.5,-453 182.5,-453 182.5,-453 209.51,-453 209.51,-453"/>
<polygon fill="#770000" fill-opacity="0.466667" stroke="#770000" stroke-width="2" stroke-opacity="0.466667" points="209.51,-455.1 215.51,-453 209.51,-450.9 209.51,-455.1"/>
</g>
<!-- src/report/dot&#45;&gt;src/graph&#45;utl/strip&#45;self&#45;transitions.mjs -->
<g id="edge17" class="edge">
<title>src/report/dot&#45;&gt;src/graph&#45;utl/strip&#45;self&#45;transitions.mjs</title>
<path fill="none" stroke="#770000" stroke-width="2" stroke-opacity="0.466667" d="M172.67,-274.27C182.17,-274.27 190.5,-274.27 190.5,-274.27 190.5,-274.27 190.5,-393 190.5,-393 190.5,-393 191.35,-393 191.35,-393"/>
<polygon fill="#770000" fill-opacity="0.466667" stroke="#770000" stroke-width="2" stroke-opacity="0.466667" points="189.98,-395.1 195.98,-393 189.98,-390.9 189.98,-395.1"/>
</g>
<!-- src/report/dot&#45;&gt;src/report/utl -->
<g id="edge14" class="edge">
<title>src/report/dot&#45;&gt;src/report/utl</title>
<path fill="none" stroke="#ff00ff" stroke-width="2" stroke-opacity="0.466667" d="M172.6,-266.66C205.21,-266.66 255.5,-266.66 255.5,-266.66 255.5,-266.66 255.5,-231.35 255.5,-231.35"/>
<polygon fill="#ff00ff" fill-opacity="0.466667" stroke="#ff00ff" stroke-width="2" stroke-opacity="0.466667" points="257.6,-231.35 255.5,-225.35 253.4,-231.35 257.6,-231.35"/>
</g>
<!-- src/report/error&#45;html -->
<g id="node17" class="node">
<title>src/report/error&#45;html</title>
<g id="a_node17"><a xlink:href="https://github.com/sverweij/dependency-cruiser/blob/main/src/report/error-html" xlink:title="error&#45;html">
<polygon fill="#ffccff" stroke="black" points="173.25,-101.88 119.47,-101.88 117.5,-99.9 117.5,-84.12 171.28,-84.12 173.25,-86.1 173.25,-101.88"/>
<polyline fill="none" stroke="black" points="171.28,-99.9 117.5,-99.9"/>
<polyline fill="none" stroke="black" points="171.28,-99.9 171.28,-84.12"/>
<polyline fill="none" stroke="black" points="171.28,-99.9 173.25,-101.88"/>
<text text-anchor="start" x="125.5" y="-89.33" font-family="Helvetica,sans-Serif" font-size="9.00">error&#45;html</text>
</a>
</g>
</g>
<!-- src/report/error&#45;html&#45;&gt;src/report/utl -->
<g id="edge19" class="edge">
<title>src/report/error&#45;html&#45;&gt;src/report/utl</title>
<path fill="none" stroke="#ff00ff" stroke-width="2" stroke-opacity="0.466667" d="M173.54,-93C210.16,-93 269.5,-93 269.5,-93 269.5,-93 269.5,-194.98 269.5,-194.98"/>
<polygon fill="#ff00ff" fill-opacity="0.466667" stroke="#ff00ff" stroke-width="2" stroke-opacity="0.466667" points="267.4,-194.98 269.5,-200.98 271.6,-194.98 267.4,-194.98"/>
</g>
<!-- src/report/error&#45;long.mjs -->
<g id="node18" class="node">
<title>src/report/error&#45;long.mjs</title>
<g id="a_node18"><a xlink:href="https://github.com/sverweij/dependency-cruiser/blob/main/src/report/error-long.mjs" xlink:title="error&#45;long.mjs">
<path fill="#ffccff" stroke="black" d="M92.21,-251.88C92.21,-251.88 31.04,-251.88 31.04,-251.88 28.08,-251.88 25.12,-248.92 25.12,-245.96 25.12,-245.96 25.12,-240.04 25.12,-240.04 25.12,-237.08 28.08,-234.12 31.04,-234.12 31.04,-234.12 92.21,-234.12 92.21,-234.12 95.17,-234.12 98.12,-237.08 98.12,-240.04 98.12,-240.04 98.12,-245.96 98.12,-245.96 98.12,-248.92 95.17,-251.88 92.21,-251.88"/>
<text text-anchor="start" x="33.12" y="-239.32" font-family="Helvetica,sans-Serif" font-size="9.00">error&#45;long.mjs</text>
</a>
</g>
</g>
<!-- src/report/error.mjs -->
<g id="node19" class="node">
<title>src/report/error.mjs</title>
<g id="a_node19"><a xlink:href="https://github.com/sverweij/dependency-cruiser/blob/main/src/report/error.mjs" xlink:title="error.mjs">
<path fill="#ffccff" stroke="black" d="M166.46,-311.88C166.46,-311.88 124.29,-311.88 124.29,-311.88 121.33,-311.88 118.38,-308.92 118.38,-305.96 118.38,-305.96 118.38,-300.04 118.38,-300.04 118.38,-297.08 121.33,-294.12 124.29,-294.12 124.29,-294.12 166.46,-294.12 166.46,-294.12 169.42,-294.12 172.38,-297.08 172.38,-300.04 172.38,-300.04 172.38,-305.96 172.38,-305.96 172.38,-308.92 169.42,-311.88 166.46,-311.88"/>
<text text-anchor="start" x="127.38" y="-299.32" font-family="Helvetica,sans-Serif" font-size="9.00">error.mjs</text>
</a>
</g>
</g>
<!-- src/report/error&#45;long.mjs&#45;&gt;src/report/error.mjs -->
<g id="edge20" class="edge">
<title>src/report/error&#45;long.mjs&#45;&gt;src/report/error.mjs</title>
<path fill="none" stroke="#ff00ff" stroke-width="2" stroke-opacity="0.466667" d="M98.54,-243C102.14,-243 104.5,-243 104.5,-243 104.5,-243 104.5,-303 104.5,-303 104.5,-303 108.88,-303 108.88,-303"/>
<polygon fill="#ff00ff" fill-opacity="0.466667" stroke="#ff00ff" stroke-width="2" stroke-opacity="0.466667" points="108.88,-305.1 114.88,-303 108.88,-300.9 108.88,-305.1"/>
</g>
<!-- src/report/error.mjs&#45;&gt;src/graph&#45;utl/rule&#45;set.mjs -->
<g id="edge21" class="edge">
<title>src/report/error.mjs&#45;&gt;src/graph&#45;utl/rule&#45;set.mjs</title>
<path fill="none" stroke="#770000" stroke-width="2" stroke-opacity="0.466667" d="M154.5,-312.17C154.5,-348.85 154.5,-483 154.5,-483 154.5,-483 214.46,-483 214.46,-483"/>
<polygon fill="#770000" fill-opacity="0.466667" stroke="#770000" stroke-width="2" stroke-opacity="0.466667" points="214.46,-485.1 220.46,-483 214.46,-480.9 214.46,-485.1"/>
</g>
<!-- src/report/error.mjs&#45;&gt;src/report/utl -->
<g id="edge23" class="edge">
<title>src/report/error.mjs&#45;&gt;src/report/utl</title>
<path fill="none" stroke="#ff00ff" stroke-width="2" stroke-opacity="0.466667" d="M172.61,-303C209.15,-303 269.5,-303 269.5,-303 269.5,-303 269.5,-231.29 269.5,-231.29"/>
<polygon fill="#ff00ff" fill-opacity="0.466667" stroke="#ff00ff" stroke-width="2" stroke-opacity="0.466667" points="271.6,-231.29 269.5,-225.29 267.4,-231.29 271.6,-231.29"/>
</g>
<!-- src/utl/wrap&#45;and&#45;indent.mjs -->
<g id="node20" class="node">
<title>src/utl/wrap&#45;and&#45;indent.mjs</title>
<g id="a_node20"><a xlink:href="https://github.com/sverweij/dependency-cruiser/blob/main/src/utl/wrap-and-indent.mjs" xlink:title="utl&#45;module&#45;not&#45;shared&#45;enough">
<path fill="#cccccc" stroke="blue" d="M299.46,-551.88C299.46,-551.88 211.29,-551.88 211.29,-551.88 208.33,-551.88 205.38,-548.92 205.38,-545.96 205.38,-545.96 205.38,-540.04 205.38,-540.04 205.38,-537.08 208.33,-534.12 211.29,-534.12 211.29,-534.12 299.46,-534.12 299.46,-534.12 302.42,-534.12 305.38,-537.08 305.38,-540.04 305.38,-540.04 305.38,-545.96 305.38,-545.96 305.38,-548.92 302.42,-551.88 299.46,-551.88"/>
<text text-anchor="start" x="213.38" y="-539.33" font-family="Helvetica,sans-Serif" font-size="9.00" fill="blue">wrap&#45;and&#45;indent.mjs</text>
</a>
</g>
</g>
<!-- src/report/error.mjs&#45;&gt;src/utl/wrap&#45;and&#45;indent.mjs -->
<g id="edge22" class="edge">
<title>src/report/error.mjs&#45;&gt;src/utl/wrap&#45;and&#45;indent.mjs</title>
<path fill="none" stroke="#aaaaaa" stroke-width="2" stroke-opacity="0.466667" d="M136.5,-312.12C136.5,-355.95 136.5,-543 136.5,-543 136.5,-543 195.96,-543 195.96,-543"/>
<polygon fill="#aaaaaa" fill-opacity="0.466667" stroke="#aaaaaa" stroke-width="2" stroke-opacity="0.466667" points="195.96,-545.1 201.96,-543 195.96,-540.9 195.96,-545.1"/>
</g>
<!-- src/report/html -->
<g id="node21" class="node">
<title>src/report/html</title>
<g id="a_node21"><a xlink:href="https://github.com/sverweij/dependency-cruiser/blob/main/src/report/html" xlink:title="html">
<polygon fill="#ffccff" stroke="black" points="172.38,-131.88 120.35,-131.88 118.38,-129.9 118.38,-114.12 170.4,-114.12 172.38,-116.1 172.38,-131.88"/>
<polyline fill="none" stroke="black" points="170.4,-129.9 118.38,-129.9"/>
<polyline fill="none" stroke="black" points="170.4,-129.9 170.4,-114.12"/>
<polyline fill="none" stroke="black" points="170.4,-129.9 172.38,-131.88"/>
<text text-anchor="start" x="136.75" y="-119.33" font-family="Helvetica,sans-Serif" font-size="9.00">html</text>
</a>
</g>
</g>
<!-- src/report/html&#45;&gt;src/report/utl -->
<g id="edge24" class="edge">
<title>src/report/html&#45;&gt;src/report/utl</title>
<path fill="none" stroke="#ff00ff" stroke-width="2" stroke-opacity="0.466667" d="M172.6,-123C205.21,-123 255.5,-123 255.5,-123 255.5,-123 255.5,-194.71 255.5,-194.71"/>
<polygon fill="#ff00ff" fill-opacity="0.466667" stroke="#ff00ff" stroke-width="2" stroke-opacity="0.466667" points="253.4,-194.71 255.5,-200.71 257.6,-194.71 253.4,-194.71"/>
</g>
<!-- src/report/identity.mjs -->
<g id="node22" class="node">
<title>src/report/identity.mjs</title>
<g id="a_node22"><a xlink:href="https://github.com/sverweij/dependency-cruiser/blob/main/src/report/identity.mjs" xlink:title="identity.mjs">
<path fill="#ffccff" stroke="black" d="M86.58,-221.88C86.58,-221.88 36.67,-221.88 36.67,-221.88 33.71,-221.88 30.75,-218.92 30.75,-215.96 30.75,-215.96 30.75,-210.04 30.75,-210.04 30.75,-207.08 33.71,-204.12 36.67,-204.12 36.67,-204.12 86.58,-204.12 86.58,-204.12 89.54,-204.12 92.5,-207.08 92.5,-210.04 92.5,-210.04 92.5,-215.96 92.5,-215.96 92.5,-218.92 89.54,-221.88 86.58,-221.88"/>
<text text-anchor="start" x="38.75" y="-209.32" font-family="Helvetica,sans-Serif" font-size="9.00">identity.mjs</text>
</a>
</g>
</g>
<!-- src/report/index.mjs -->
<g id="node23" class="node">
<title>src/report/index.mjs</title>
<g id="a_node23"><a xlink:href="https://github.com/sverweij/dependency-cruiser/blob/main/src/report/index.mjs" xlink:title="index.mjs">
<path fill="#ffccff" stroke="black" d="M83.21,-191.88C83.21,-191.88 40.04,-191.88 40.04,-191.88 37.08,-191.88 34.12,-188.92 34.12,-185.96 34.12,-185.96 34.12,-180.04 34.12,-180.04 34.12,-177.08 37.08,-174.12 40.04,-174.12 40.04,-174.12 83.21,-174.12 83.21,-174.12 86.17,-174.12 89.12,-177.08 89.12,-180.04 89.12,-180.04 89.12,-185.96 89.12,-185.96 89.12,-188.92 86.17,-191.88 83.21,-191.88"/>
<text text-anchor="start" x="42.12" y="-179.32" font-family="Helvetica,sans-Serif" font-size="9.00">index.mjs</text>
</a>
</g>
</g>
<!-- src/report/plugins.mjs -->
<g id="node24" class="node">
<title>src/report/plugins.mjs</title>
<g id="a_node24"><a xlink:href="https://github.com/sverweij/dependency-cruiser/blob/main/src/report/plugins.mjs" xlink:title="plugins.mjs">
<path fill="#ffccff" stroke="black" d="M170.71,-191.88C170.71,-191.88 120.04,-191.88 120.04,-191.88 117.08,-191.88 114.12,-188.92 114.12,-185.96 114.12,-185.96 114.12,-180.04 114.12,-180.04 114.12,-177.08 117.08,-174.12 120.04,-174.12 120.04,-174.12 170.71,-174.12 170.71,-174.12 173.67,-174.12 176.62,-177.08 176.62,-180.04 176.62,-180.04 176.62,-185.96 176.62,-185.96 176.62,-188.92 173.67,-191.88 170.71,-191.88"/>
<text text-anchor="start" x="122.12" y="-179.32" font-family="Helvetica,sans-Serif" font-size="9.00">plugins.mjs</text>
</a>
</g>
</g>
<!-- src/report/index.mjs&#45;&gt;src/report/plugins.mjs -->
<g id="edge25" class="edge">
<title>src/report/index.mjs&#45;&gt;src/report/plugins.mjs</title>
<path fill="none" stroke="#ff00ff" stroke-width="2" stroke-opacity="0.466667" d="M89.51,-183C89.51,-183 104.85,-183 104.85,-183"/>
<polygon fill="#ff00ff" fill-opacity="0.466667" stroke="#ff00ff" stroke-width="2" stroke-opacity="0.466667" points="104.85,-185.1 110.85,-183 104.85,-180.9 104.85,-185.1"/>
</g>
<!-- src/report/json.mjs -->
<g id="node25" class="node">
<title>src/report/json.mjs</title>
<g id="a_node25"><a xlink:href="https://github.com/sverweij/dependency-cruiser/blob/main/src/report/json.mjs" xlink:title="json.mjs">
<path fill="#ffccff" stroke="black" d="M82.71,-161.88C82.71,-161.88 40.54,-161.88 40.54,-161.88 37.58,-161.88 34.62,-158.92 34.62,-155.96 34.62,-155.96 34.62,-150.04 34.62,-150.04 34.62,-147.08 37.58,-144.12 40.54,-144.12 40.54,-144.12 82.71,-144.12 82.71,-144.12 85.67,-144.12 88.62,-147.08 88.62,-150.04 88.62,-150.04 88.62,-155.96 88.62,-155.96 88.62,-158.92 85.67,-161.88 82.71,-161.88"/>
<text text-anchor="start" x="44.75" y="-149.32" font-family="Helvetica,sans-Serif" font-size="9.00">json.mjs</text>
</a>
</g>
</g>
<!-- src/report/markdown.mjs -->
<g id="node26" class="node">
<title>src/report/markdown.mjs</title>
<g id="a_node26"><a xlink:href="https://github.com/sverweij/dependency-cruiser/blob/main/src/report/markdown.mjs" xlink:title="markdown.mjs">
<path fill="#ffccff" stroke="black" d="M93.33,-131.88C93.33,-131.88 29.92,-131.88 29.92,-131.88 26.96,-131.88 24,-128.92 24,-125.96 24,-125.96 24,-120.04 24,-120.04 24,-117.08 26.96,-114.12 29.92,-114.12 29.92,-114.12 93.33,-114.12 93.33,-114.12 96.29,-114.12 99.25,-117.08 99.25,-120.04 99.25,-120.04 99.25,-125.96 99.25,-125.96 99.25,-128.92 96.29,-131.88 93.33,-131.88"/>
<text text-anchor="start" x="32" y="-119.33" font-family="Helvetica,sans-Serif" font-size="9.00">markdown.mjs</text>
</a>
</g>
</g>
<!-- src/report/markdown.mjs&#45;&gt;src/report/error&#45;html -->
<g id="edge26" class="edge">
<title>src/report/markdown.mjs&#45;&gt;src/report/error&#45;html</title>
<path fill="none" stroke="#ff00ff" stroke-width="2" stroke-opacity="0.466667" d="M99.46,-123C104.79,-123 108.5,-123 108.5,-123 108.5,-123 108.5,-93 108.5,-93 108.5,-93 109.36,-93 109.36,-93"/>
<polygon fill="#ff00ff" fill-opacity="0.466667" stroke="#ff00ff" stroke-width="2" stroke-opacity="0.466667" points="108.05,-95.1 114.05,-93 108.05,-90.9 108.05,-95.1"/>
</g>
<!-- src/report/mermaid.mjs -->
<g id="node27" class="node">
<title>src/report/mermaid.mjs</title>
<g id="a_node27"><a xlink:href="https://github.com/sverweij/dependency-cruiser/blob/main/src/report/mermaid.mjs" xlink:title="no&#45;orphans">
<path fill="#ffccff" stroke="red" d="M89.96,-101.88C89.96,-101.88 33.29,-101.88 33.29,-101.88 30.33,-101.88 27.38,-98.92 27.38,-95.96 27.38,-95.96 27.38,-90.04 27.38,-90.04 27.38,-87.08 30.33,-84.12 33.29,-84.12 33.29,-84.12 89.96,-84.12 89.96,-84.12 92.92,-84.12 95.88,-87.08 95.88,-90.04 95.88,-90.04 95.88,-95.96 95.88,-95.96 95.88,-98.92 92.92,-101.88 89.96,-101.88"/>
<text text-anchor="start" x="35.38" y="-89.33" font-family="Helvetica,sans-Serif" font-size="9.00" fill="red">mermaid.mjs</text>
</a>
</g>
</g>
<!-- src/report/metrics.mjs -->
<g id="node28" class="node">
<title>src/report/metrics.mjs</title>
<g id="a_node28"><a xlink:href="https://github.com/sverweij/dependency-cruiser/blob/main/src/report/metrics.mjs" xlink:title="metrics.mjs">
<path fill="#ffccff" stroke="black" d="M170.33,-161.88C170.33,-161.88 120.42,-161.88 120.42,-161.88 117.46,-161.88 114.5,-158.92 114.5,-155.96 114.5,-155.96 114.5,-150.04 114.5,-150.04 114.5,-147.08 117.46,-144.12 120.42,-144.12 120.42,-144.12 170.33,-144.12 170.33,-144.12 173.29,-144.12 176.25,-147.08 176.25,-150.04 176.25,-150.04 176.25,-155.96 176.25,-155.96 176.25,-158.92 173.29,-161.88 170.33,-161.88"/>
<text text-anchor="start" x="122.5" y="-149.32" font-family="Helvetica,sans-Serif" font-size="9.00">metrics.mjs</text>
</a>
</g>
</g>
<!-- src/report/metrics.mjs&#45;&gt;src/report/utl -->
<g id="edge27" class="edge">
<title>src/report/metrics.mjs&#45;&gt;src/report/utl</title>
<path fill="none" stroke="#ff00ff" stroke-width="2" stroke-opacity="0.466667" d="M176.64,-153C205.03,-153 242.5,-153 242.5,-153 242.5,-153 242.5,-194.62 242.5,-194.62"/>
<polygon fill="#ff00ff" fill-opacity="0.466667" stroke="#ff00ff" stroke-width="2" stroke-opacity="0.466667" points="240.4,-194.62 242.5,-200.62 244.6,-194.63 240.4,-194.62"/>
</g>
<!-- src/report/null.mjs -->
<g id="node29" class="node">
<title>src/report/null.mjs</title>
<g id="a_node29"><a xlink:href="https://github.com/sverweij/dependency-cruiser/blob/main/src/report/null.mjs" xlink:title="null.mjs">
<path fill="#ffccff" stroke="black" d="M82.71,-71.88C82.71,-71.88 40.54,-71.88 40.54,-71.88 37.58,-71.88 34.62,-68.92 34.62,-65.96 34.62,-65.96 34.62,-60.04 34.62,-60.04 34.62,-57.08 37.58,-54.12 40.54,-54.12 40.54,-54.12 82.71,-54.12 82.71,-54.12 85.67,-54.12 88.62,-57.08 88.62,-60.04 88.62,-60.04 88.62,-65.96 88.62,-65.96 88.62,-68.92 85.67,-71.88 82.71,-71.88"/>
<text text-anchor="start" x="45.88" y="-59.33" font-family="Helvetica,sans-Serif" font-size="9.00">null.mjs</text>
</a>
</g>
</g>
<!-- src/report/teamcity.mjs -->
<g id="node30" class="node">
<title>src/report/teamcity.mjs</title>
<g id="a_node30"><a xlink:href="https://github.com/sverweij/dependency-cruiser/blob/main/src/report/teamcity.mjs" xlink:title="teamcity.mjs">
<path fill="#ffccff" stroke="black" d="M172.58,-251.88C172.58,-251.88 118.17,-251.88 118.17,-251.88 115.21,-251.88 112.25,-248.92 112.25,-245.96 112.25,-245.96 112.25,-240.04 112.25,-240.04 112.25,-237.08 115.21,-234.12 118.17,-234.12 118.17,-234.12 172.58,-234.12 172.58,-234.12 175.54,-234.12 178.5,-237.08 178.5,-240.04 178.5,-240.04 178.5,-245.96 178.5,-245.96 178.5,-248.92 175.54,-251.88 172.58,-251.88"/>
<text text-anchor="start" x="120.25" y="-239.32" font-family="Helvetica,sans-Serif" font-size="9.00">teamcity.mjs</text>
</a>
</g>
</g>
<!-- src/report/teamcity.mjs&#45;&gt;src/report/utl -->
<g id="edge28" class="edge">
<title>src/report/teamcity.mjs&#45;&gt;src/report/utl</title>
<path fill="none" stroke="#ff00ff" stroke-width="2" stroke-opacity="0.466667" d="M178.8,-243C206.89,-243 242.5,-243 242.5,-243 242.5,-243 242.5,-231.16 242.5,-231.16"/>
<polygon fill="#ff00ff" fill-opacity="0.466667" stroke="#ff00ff" stroke-width="2" stroke-opacity="0.466667" points="244.6,-231.16 242.5,-225.16 240.4,-231.16 244.6,-231.16"/>
</g>
<!-- src/report/text.mjs -->
<g id="node31" class="node">
<title>src/report/text.mjs</title>
<g id="a_node31"><a xlink:href="https://github.com/sverweij/dependency-cruiser/blob/main/src/report/text.mjs" xlink:title="no&#45;orphans">
<path fill="#ffccff" stroke="red" d="M82.71,-41.88C82.71,-41.88 40.54,-41.88 40.54,-41.88 37.58,-41.88 34.62,-38.92 34.62,-35.96 34.62,-35.96 34.62,-30.04 34.62,-30.04 34.62,-27.08 37.58,-24.12 40.54,-24.12 40.54,-24.12 82.71,-24.12 82.71,-24.12 85.67,-24.12 88.62,-27.08 88.62,-30.04 88.62,-30.04 88.62,-35.96 88.62,-35.96 88.62,-38.92 85.67,-41.88 82.71,-41.88"/>
<text text-anchor="start" x="46.25" y="-29.32" font-family="Helvetica,sans-Serif" font-size="9.00" fill="red">text.mjs</text>
</a>
</g>
</g>
</g>
</svg>
