<svg xmlns="http://www.w3.org/2000/svg" xmlns:xlink="http://www.w3.org/1999/xlink" width="1176" height="661pt" viewBox="0 0 881.51 661.42"><g class="graph" transform="translate(4 657.42)"><path fill="#fff" d="M-4 4v-661.42h881.51V4z"/><g class="node"><a xlink:href="https://github.com/sverweij/dependency-cruiser/blob/main/src/graph-utl/add-focus.mjs" xlink:title="add-focus.mjs"><path fill="#fcc" stroke="#000" d="M498.62-49.39h-59.41c-4.34 0-8.67 4.34-8.67 8.67v8.67c0 4.33 4.33 8.66 8.67 8.66h59.41c4.34 0 8.67-4.33 8.67-8.66v-8.67c0-4.33-4.33-8.67-8.67-8.67"/><text x="442.29" y="-37.84" font-family="Helvetica,sans-Serif" font-size="9">src/graph-utl/</text><text x="438.54" y="-28.84" font-family="Helvetica,sans-Serif" font-size="9" font-weight="bold">add-focus.mjs</text></a></g><g class="node"><a xlink:href="https://github.com/sverweij/dependency-cruiser/blob/main/src/graph-utl/indexed-module-graph.mjs" xlink:title="indexed-module-graph.mjs"><path fill="#fcc" stroke="#000" d="M569.8-114.4H457.14c-4.34 0-8.67 4.34-8.67 8.67v8.67c0 4.33 4.33 8.66 8.67 8.66H569.8c4.34 0 8.67-4.33 8.67-8.66v-8.67c0-4.33-4.33-8.67-8.67-8.67"/><text x="486.85" y="-102.85" font-family="Helvetica,sans-Serif" font-size="9">src/graph-utl/</text><text x="456.47" y="-93.85" font-family="Helvetica,sans-Serif" font-size="9" font-weight="bold">indexed-module-graph.mjs</text></a></g><g class="edge"><path fill="none" stroke="#700" stroke-opacity=".467" stroke-width="2" d="M477.88-49.86v-29.06"/><path fill="#700" fill-opacity=".467" stroke="#700" stroke-opacity=".467" stroke-width="2" d="m475.78-78.92 2.1-6 2.1 6z"/></g><g class="node"><a xlink:href="https://github.com/sverweij/dependency-cruiser/blob/main/src/graph-utl/match-facade.mjs" xlink:title="match-facade.mjs"><path fill="#fcc" stroke="#000" d="M430.22-83.42H354.3c-4.33 0-8.67 4.33-8.67 8.67v8.66c0 4.34 4.34 8.67 8.67 8.67h75.92c4.33 0 8.66-4.33 8.66-8.67v-8.66c0-4.34-4.33-8.67-8.66-8.67"/><text x="365.63" y="-71.87" font-family="Helvetica,sans-Serif" font-size="9">src/graph-utl/</text><text x="353.63" y="-62.87" font-family="Helvetica,sans-Serif" font-size="9" font-weight="bold">match-facade.mjs</text></a></g><g class="edge"><path fill="none" stroke="#700" stroke-opacity=".467" stroke-width="2" d="M434.71-49.84v-.72"/><path fill="#700" fill-opacity=".467" stroke="#700" stroke-opacity=".467" stroke-width="2" d="m432.61-48.04 2.1-6 2.1 6z"/></g><g class="node"><a xlink:href="https://github.com/sverweij/dependency-cruiser/blob/main/src/graph-utl/compare.mjs" xlink:title="compare.mjs"><path fill="#fcc" stroke="#000" d="M279.36-333.53h-54.92c-4.33 0-8.67 4.33-8.67 8.66v8.67c0 4.33 4.34 8.67 8.67 8.67h54.92c4.33 0 8.66-4.34 8.66-8.67v-8.67c0-4.33-4.33-8.66-8.66-8.66"/><text x="225.27" y="-321.98" font-family="Helvetica,sans-Serif" font-size="9">src/graph-utl/</text><text x="223.77" y="-312.98" font-family="Helvetica,sans-Serif" font-size="9" font-weight="bold">compare.mjs</text></a></g><g class="node"><a xlink:href="https://github.com/sverweij/dependency-cruiser/blob/main/src/graph-utl/consolidate-module-dependencies.mjs" xlink:title="consolidate-module-dependencies.mjs"><path fill="#fcc" stroke="#000" d="M182.04-322.4H18.38c-4.34 0-8.67 4.34-8.67 8.67v8.67c0 4.33 4.33 8.66 8.67 8.66h163.66c4.34 0 8.67-4.33 8.67-8.66v-8.67c0-4.33-4.33-8.67-8.67-8.67"/><text x="73.58" y="-310.85" font-family="Helvetica,sans-Serif" font-size="9">src/graph-utl/</text><text x="17.71" y="-301.85" font-family="Helvetica,sans-Serif" font-size="9" font-weight="bold">consolidate-module-dependencies.mjs</text></a></g><g class="edge"><path fill="none" stroke="#700" stroke-opacity=".467" stroke-width="2" d="M191.07-314.96h15.46"/><path fill="#700" fill-opacity=".467" stroke="#700" stroke-opacity=".467" stroke-width="2" d="m206.53-317.06 6 2.1-6 2.1z"/></g><g class="node"><a xlink:href="https://github.com/sverweij/dependency-cruiser/blob/main/src/utl/array-util.mjs" xlink:title="utl-module-not-shared-enough"><path fill="#ccc" stroke="#00f" d="M64.33-361.91H8.67c-4.34 0-8.67 4.33-8.67 8.66v8.67c0 4.33 4.33 8.67 8.67 8.67h55.66c4.34 0 8.67-4.34 8.67-8.67v-8.67c0-4.33-4.33-8.66-8.67-8.66"/><text x="23.38" y="-350.36" fill="#00f" font-family="Helvetica,sans-Serif" font-size="9">src/utl/</text><text x="8" y="-341.36" fill="#00f" font-family="Helvetica,sans-Serif" font-size="9" font-weight="bold">array-util.mjs</text></a></g><g class="edge"><path fill="none" stroke="#aaa" stroke-opacity=".467" stroke-width="2" d="M41.35-322.77v-3.75"/><path fill="#aaa" fill-opacity=".467" stroke="#aaa" stroke-opacity=".467" stroke-width="2" d="m39.25-326.52 2.1-6 2.1 6z"/></g><g class="node"><a xlink:href="https://github.com/sverweij/dependency-cruiser/blob/main/src/graph-utl/consolidate-modules.mjs" xlink:title="consolidate-modules.mjs"><path fill="#fcc" stroke="#000" d="M195.62-356.4H89.7c-4.33 0-8.66 4.34-8.66 8.67v8.67c0 4.33 4.33 8.66 8.66 8.66h105.92c4.33 0 8.67-4.33 8.67-8.66v-8.67c0-4.33-4.34-8.67-8.67-8.67"/><text x="116.04" y="-344.85" font-family="Helvetica,sans-Serif" font-size="9">src/graph-utl/</text><text x="89.04" y="-335.85" font-family="Helvetica,sans-Serif" font-size="9" font-weight="bold">consolidate-modules.mjs</text></a></g><g class="edge"><path fill="none" stroke="#700" stroke-opacity=".467" stroke-width="2" d="M195.23-330v3.6h11.11"/><path fill="#700" fill-opacity=".467" stroke="#700" stroke-opacity=".467" stroke-width="2" d="m206.34-328.5 6 2.1-6 2.1z"/></g><g class="edge"><path fill="none" stroke="#aaa" stroke-opacity=".467" stroke-width="2" d="M80.6-346.15h-.73"/><path fill="#aaa" fill-opacity=".467" stroke="#aaa" stroke-opacity=".467" stroke-width="2" d="m82.38-344.05-6-2.1 6-2.1z"/></g><g class="node"><a xlink:href="https://github.com/sverweij/dependency-cruiser/blob/main/src/graph-utl/consolidate-to-folder.mjs" xlink:title="consolidate-to-folder.mjs"><path fill="#fcc" stroke="#000" d="M208.53-425.38H104.11c-4.33 0-8.66 4.33-8.66 8.66v8.67c0 4.33 4.33 8.67 8.66 8.67h104.42c4.33 0 8.67-4.34 8.67-8.67v-8.67c0-4.33-4.34-8.66-8.67-8.66"/><text x="129.7" y="-413.83" font-family="Helvetica,sans-Serif" font-size="9">src/graph-utl/</text><text x="103.45" y="-404.83" font-family="Helvetica,sans-Serif" font-size="9" font-weight="bold">consolidate-to-folder.mjs</text></a></g><g class="edge"><path fill="none" stroke="#700" stroke-opacity=".467" stroke-width="2" d="M95.01-412.38H77.02v80.49"/><path fill="#700" fill-opacity=".467" stroke="#700" stroke-opacity=".467" stroke-width="2" d="m79.12-331.89-2.1 6-2.1-6z"/></g><g class="edge"><path fill="none" stroke="#700" stroke-opacity=".467" stroke-width="2" d="M149.87-399.08v33.4"/><path fill="#700" fill-opacity=".467" stroke="#700" stroke-opacity=".467" stroke-width="2" d="m151.97-365.68-2.1 6-2.1-6z"/></g><g class="node"><a xlink:href="https://github.com/sverweij/dependency-cruiser/blob/main/src/graph-utl/consolidate-to-pattern.mjs" xlink:title="consolidate-to-pattern.mjs"><path fill="#fcc" stroke="#000" d="M209.5-264.24H98.33c-4.33 0-8.66 4.33-8.66 8.66v8.67c0 4.33 4.33 8.67 8.66 8.67H209.5c4.33 0 8.67-4.34 8.67-8.67v-8.67c0-4.33-4.34-8.66-8.67-8.66"/><text x="127.29" y="-252.69" font-family="Helvetica,sans-Serif" font-size="9">src/graph-utl/</text><text x="97.67" y="-243.69" font-family="Helvetica,sans-Serif" font-size="9" font-weight="bold">consolidate-to-pattern.mjs</text></a></g><g class="edge"><path fill="none" stroke="#700" stroke-opacity=".467" stroke-width="2" d="M140.19-264.73v-22.22"/><path fill="#700" fill-opacity=".467" stroke="#700" stroke-opacity=".467" stroke-width="2" d="m138.09-286.95 2.1-6 2.1 6z"/></g><g class="edge"><path fill="none" stroke="#700" stroke-opacity=".467" stroke-width="2" d="M199.76-264.45v-56.44"/><path fill="#700" fill-opacity=".467" stroke="#700" stroke-opacity=".467" stroke-width="2" d="m197.66-320.89 2.1-6 2.1 6z"/></g><g class="node"><a xlink:href="https://github.com/sverweij/dependency-cruiser/blob/main/src/graph-utl/filter-bank.mjs" xlink:title="filter-bank.mjs"><path fill="#fcc" stroke="#000" d="M447.02-148.42h-60.17c-4.33 0-8.66 4.33-8.66 8.66v8.67c0 4.33 4.33 8.67 8.66 8.67h60.17c4.33 0 8.67-4.34 8.67-8.67v-8.67c0-4.33-4.34-8.66-8.67-8.66"/><text x="390.31" y="-136.87" font-family="Helvetica,sans-Serif" font-size="9">src/graph-utl/</text><text x="386.19" y="-127.87" font-family="Helvetica,sans-Serif" font-size="9" font-weight="bold">filter-bank.mjs</text></a></g><g class="edge"><path fill="none" stroke="#700" stroke-opacity=".467" stroke-width="2" d="M443.68-122.07v63.19"/><path fill="#700" fill-opacity=".467" stroke="#700" stroke-opacity=".467" stroke-width="2" d="m445.78-58.88-2.1 6-2.1-6z"/></g><g class="edge"><path fill="none" stroke="#700" stroke-opacity=".467" stroke-width="2" d="M452.08-121.98v.73"/><path fill="#700" fill-opacity=".467" stroke="#700" stroke-opacity=".467" stroke-width="2" d="m454.18-123.77-2.1 6-2.1-6z"/></g><g class="edge"><path fill="none" stroke="#700" stroke-opacity=".467" stroke-width="2" d="M408.53-121.95v29.05"/><path fill="#700" fill-opacity=".467" stroke="#700" stroke-opacity=".467" stroke-width="2" d="m410.63-92.9-2.1 6-2.1-6z"/></g><g class="node"><a xlink:href="https://github.com/sverweij/dependency-cruiser/blob/main/src/graph-utl/rule-set.mjs" xlink:title="rule-set.mjs"><path fill="#fcc" stroke="#000" d="M361.41-145.58h-51.92c-4.33 0-8.66 4.33-8.66 8.67v8.66c0 4.34 4.33 8.67 8.66 8.67h51.92c4.33 0 8.67-4.33 8.67-8.67v-8.66c0-4.34-4.34-8.67-8.67-8.67"/><text x="308.83" y="-134.03" font-family="Helvetica,sans-Serif" font-size="9">src/graph-utl/</text><text x="309.95" y="-125.03" font-family="Helvetica,sans-Serif" font-size="9" font-weight="bold">rule-set.mjs</text></a></g><g class="node"><a xlink:href="https://github.com/sverweij/dependency-cruiser/blob/main/src/graph-utl/strip-self-transitions.mjs" xlink:title="strip-self-transitions.mjs"><path fill="#fcc" stroke="#000" d="M337.8-412.31H234.14c-4.34 0-8.67 4.33-8.67 8.67v8.66c0 4.34 4.33 8.67 8.67 8.67H337.8c4.34 0 8.67-4.33 8.67-8.67v-8.66c0-4.34-4.33-8.67-8.67-8.67"/><text x="259.35" y="-400.76" font-family="Helvetica,sans-Serif" font-size="9">src/graph-utl/</text><text x="233.47" y="-391.76" font-family="Helvetica,sans-Serif" font-size="9" font-weight="bold">strip-self-transitions.mjs</text></a></g><g class="node"><a xlink:href="https://github.com/sverweij/dependency-cruiser/blob/main/src/report/anon/anonymize-path-element.mjs" xlink:title="anonymize-path-element.mjs"><path fill="#fcf" stroke="#000" d="M706.01-498.6H583.6c-4.34 0-8.67 4.34-8.67 8.67v8.67c0 4.33 4.33 8.66 8.67 8.66h122.41c4.34 0 8.67-4.33 8.67-8.66v-8.67c0-4.33-4.33-8.67-8.67-8.67"/><text x="612.93" y="-487.05" font-family="Helvetica,sans-Serif" font-size="9">src/report/anon/</text><text x="582.93" y="-478.05" font-family="Helvetica,sans-Serif" font-size="9" font-weight="bold">anonymize-path-element.mjs</text></a></g><g class="node"><a xlink:href="https://github.com/sverweij/dependency-cruiser/blob/main/src/report/anon/random-string.mjs" xlink:title="random-string.mjs"><path fill="#fcf" stroke="#000" d="M864.84-532.6h-77.42c-4.33 0-8.66 4.34-8.66 8.67v8.67c0 4.33 4.33 8.66 8.66 8.66h77.42c4.33 0 8.67-4.33 8.67-8.66v-8.67c0-4.33-4.34-8.67-8.67-8.67"/><text x="794.26" y="-521.05" font-family="Helvetica,sans-Serif" font-size="9">src/report/anon/</text><text x="786.76" y="-512.05" font-family="Helvetica,sans-Serif" font-size="9" font-weight="bold">random-string.mjs</text></a></g><g class="edge"><path fill="none" stroke="#f0f" stroke-opacity=".467" stroke-width="2" d="M714.93-485.6h71.78v-11.53"/><path fill="#f0f" fill-opacity=".467" stroke="#f0f" stroke-opacity=".467" stroke-width="2" d="m784.61-497.13 2.1-6 2.1 6z"/></g><g class="node"><a xlink:href="https://github.com/sverweij/dependency-cruiser/blob/main/src/report/anon/anonymize-path.mjs" xlink:title="anonymize-path.mjs"><path fill="#fcf" stroke="#000" d="M766.72-440.18h-84.91c-4.34 0-8.67 4.34-8.67 8.67v8.67c0 4.33 4.33 8.66 8.67 8.66h84.91c4.34 0 8.67-4.33 8.67-8.66v-8.67c0-4.33-4.33-8.67-8.67-8.67"/><text x="692.39" y="-428.63" font-family="Helvetica,sans-Serif" font-size="9">src/report/anon/</text><text x="681.14" y="-419.63" font-family="Helvetica,sans-Serif" font-size="9" font-weight="bold">anonymize-path.mjs</text></a></g><g class="edge"><path fill="none" stroke="#f0f" stroke-opacity=".467" stroke-width="2" d="M693.91-440.43v-22.94"/><path fill="#f0f" fill-opacity=".467" stroke="#f0f" stroke-opacity=".467" stroke-width="2" d="m691.81-463.37 2.1-6 2.1 6z"/></g><g class="node"><a xlink:href="https://github.com/sverweij/dependency-cruiser/blob/main/src/report/anon/index.mjs" xlink:title="index.mjs"><path fill="#fcf" stroke="#000" d="M732.85-623.62h-62.41c-4.34 0-8.67 4.33-8.67 8.66v8.67c0 4.33 4.33 8.67 8.67 8.67h62.41c4.34 0 8.67-4.34 8.67-8.67v-8.67c0-4.33-4.33-8.66-8.67-8.66"/><text x="669.77" y="-612.07" font-family="Helvetica,sans-Serif" font-size="9">src/report/anon/</text><text x="681.02" y="-603.07" font-family="Helvetica,sans-Serif" font-size="9" font-weight="bold">index.mjs</text></a></g><g class="edge"><path fill="none" stroke="#f0f" stroke-opacity=".467" stroke-width="2" d="M728.1-597.13v147.91"/><path fill="#f0f" fill-opacity=".467" stroke="#f0f" stroke-opacity=".467" stroke-width="2" d="m730.2-449.22-2.1 6-2.1-6z"/></g><g class="node"><a xlink:href="https://github.com/sverweij/dependency-cruiser/blob/main/src/report/azure-devops.mjs" xlink:title="azure-devops.mjs"><path fill="#fcf" stroke="#000" d="M624.6-260.94h-75.17c-4.33 0-8.66 4.33-8.66 8.67v8.66c0 4.34 4.33 8.67 8.66 8.67h75.17c4.33 0 8.67-4.33 8.67-8.67v-8.66c0-4.34-4.34-8.67-8.67-8.67"/><text x="566.77" y="-249.39" font-family="Helvetica,sans-Serif" font-size="9">src/report/</text><text x="548.77" y="-240.39" font-family="Helvetica,sans-Serif" font-size="9" font-weight="bold">azure-devops.mjs</text></a></g><g class="node"><a xlink:href="https://github.com/sverweij/dependency-cruiser/blob/main/src/report/utl/index.mjs" xlink:title="index.mjs"><path fill="#fcf" stroke="#000" d="M566.66-319.33h-51.17c-4.33 0-8.67 4.34-8.67 8.67v8.67c0 4.33 4.34 8.66 8.67 8.66h51.17c4.33 0 8.66-4.33 8.66-8.66v-8.67c0-4.33-4.33-8.67-8.66-8.67"/><text x="514.82" y="-307.78" font-family="Helvetica,sans-Serif" font-size="9">src/report/utl/</text><text x="520.45" y="-298.78" font-family="Helvetica,sans-Serif" font-size="9" font-weight="bold">index.mjs</text></a></g><g class="edge"><path fill="none" stroke="#f0f" stroke-opacity=".467" stroke-width="2" d="M552.28-261.19v-22.91"/><path fill="#f0f" fill-opacity=".467" stroke="#f0f" stroke-opacity=".467" stroke-width="2" d="m550.18-284.1 2.1-6 2.1 6z"/></g><g class="node"><a xlink:href="https://github.com/sverweij/dependency-cruiser/blob/main/src/report/baseline.mjs" xlink:title="no-orphans"><path fill="#fcf" stroke="red" d="M613.66-26h-52.67c-4.33 0-8.67 4.33-8.67 8.67v8.66c0 4.34 4.34 8.67 8.67 8.67h52.67c4.33 0 8.66-4.33 8.66-8.67v-8.66c0-4.34-4.33-8.67-8.66-8.67"/><text x="567.07" y="-14.45" fill="red" font-family="Helvetica,sans-Serif" font-size="9">src/report/</text><text x="560.32" y="-5.45" fill="red" font-family="Helvetica,sans-Serif" font-size="9" font-weight="bold">baseline.mjs</text></a></g><g class="node"><a xlink:href="https://github.com/sverweij/dependency-cruiser/blob/main/src/report/csv.mjs" xlink:title="csv.mjs"><path fill="#fcf" stroke="#000" d="M185.73-560.78h-39.16c-4.34 0-8.67 4.33-8.67 8.67v8.66c0 4.34 4.33 8.67 8.67 8.67h39.16c4.34 0 8.67-4.33 8.67-8.67v-8.66c0-4.34-4.33-8.67-8.67-8.67"/><text x="145.9" y="-549.23" font-family="Helvetica,sans-Serif" font-size="9">src/report/</text><text x="149.65" y="-540.23" font-family="Helvetica,sans-Serif" font-size="9" font-weight="bold">csv.mjs</text></a></g><g class="node"><a xlink:href="https://github.com/sverweij/dependency-cruiser/blob/main/src/report/utl/dependency-to-incidence-transformer.mjs" xlink:title="dependency-to-incidence-transformer.mjs"><path fill="#fcf" stroke="#000" d="M394-619.42H215.33c-4.33 0-8.67 4.34-8.67 8.67v8.67c0 4.33 4.34 8.66 8.67 8.66H394c4.33 0 8.66-4.33 8.66-8.66v-8.67c0-4.33-4.33-8.67-8.66-8.67"/><text x="278.41" y="-607.87" font-family="Helvetica,sans-Serif" font-size="9">src/report/utl/</text><text x="214.66" y="-598.87" font-family="Helvetica,sans-Serif" font-size="9" font-weight="bold">dependency-to-incidence-transformer.mjs</text></a></g><g class="edge"><path fill="none" stroke="#f0f" stroke-opacity=".467" stroke-width="2" d="M194.88-547.78h17.05v-36.3"/><path fill="#f0f" fill-opacity=".467" stroke="#f0f" stroke-opacity=".467" stroke-width="2" d="m209.83-584.08 2.1-6 2.1 6z"/></g><g class="node"><a xlink:href="https://github.com/sverweij/dependency-cruiser/blob/main/src/report/d2.mjs" xlink:title="d2.mjs"><path fill="#fcf" stroke="#000" d="M502.55-381.89h-39.17c-4.33 0-8.66 4.34-8.66 8.67v8.67c0 4.33 4.33 8.66 8.66 8.66h39.17c4.33 0 8.67-4.33 8.67-8.66v-8.67c0-4.33-4.34-8.67-8.67-8.67"/><text x="462.72" y="-370.34" font-family="Helvetica,sans-Serif" font-size="9">src/report/</text><text x="468.72" y="-361.34" font-family="Helvetica,sans-Serif" font-size="9" font-weight="bold">d2.mjs</text></a></g><g class="edge"><path fill="none" stroke="#f0f" stroke-opacity=".467" stroke-width="2" d="M511.46-359.52h2.43v30.74"/><path fill="#f0f" fill-opacity=".467" stroke="#f0f" stroke-opacity=".467" stroke-width="2" d="m515.99-328.78-2.1 6-2.1-6z"/></g><g class="node"><a xlink:href="https://github.com/sverweij/dependency-cruiser/blob/main/src/report/dot-webpage/dot-module.mjs" xlink:title="dot-module.mjs"><path fill="#fcf" stroke="#000" d="M568.25-178.57h-95.42c-4.33 0-8.67 4.34-8.67 8.67v8.67c0 4.33 4.34 8.66 8.67 8.66h95.42c4.33 0 8.66-4.33 8.66-8.66v-8.67c0-4.33-4.33-8.67-8.66-8.67"/><text x="472.16" y="-167.02" font-family="Helvetica,sans-Serif" font-size="9">src/report/dot-webpage/</text><text x="487.54" y="-158.02" font-family="Helvetica,sans-Serif" font-size="9" font-weight="bold">dot-module.mjs</text></a></g><g class="node"><a xlink:href="https://github.com/sverweij/dependency-cruiser/blob/main/src/report/dot/dot-module.mjs" xlink:title="dot-module.mjs"><path fill="#fcf" stroke="#000" d="M523.89-234.03h-64.66c-4.34 0-8.67 4.33-8.67 8.66v8.67c0 4.33 4.33 8.67 8.67 8.67h64.66c4.34 0 8.67-4.34 8.67-8.67v-8.67c0-4.33-4.33-8.66-8.67-8.66"/><text x="463.81" y="-222.48" font-family="Helvetica,sans-Serif" font-size="9">src/report/dot/</text><text x="458.56" y="-213.48" font-family="Helvetica,sans-Serif" font-size="9" font-weight="bold">dot-module.mjs</text></a></g><g class="edge"><path fill="none" stroke="#f0f" stroke-opacity=".467" stroke-width="2" d="M498.36-178.99v-19.71"/><path fill="#f0f" fill-opacity=".467" stroke="#f0f" stroke-opacity=".467" stroke-width="2" d="m496.26-198.7 2.1-6 2.1 6z"/></g><g class="node"><a xlink:href="https://github.com/sverweij/dependency-cruiser/blob/main/src/report/dot-webpage/wrap-in-html.mjs" xlink:title="wrap-in-html.mjs"><path fill="#fcf" stroke="#000" d="M689.11-184.1h-95.42c-4.33 0-8.67 4.33-8.67 8.67v8.66c0 4.34 4.34 8.67 8.67 8.67h95.42c4.33 0 8.66-4.33 8.66-8.67v-8.66c0-4.34-4.33-8.67-8.66-8.67"/><text x="593.02" y="-172.55" font-family="Helvetica,sans-Serif" font-size="9">src/report/dot-webpage/</text><text x="605.77" y="-163.55" font-family="Helvetica,sans-Serif" font-size="9" font-weight="bold">wrap-in-html.mjs</text></a></g><g class="edge"><path fill="none" stroke="#f0f" stroke-opacity=".467" stroke-width="2" d="M577.08-168.33h.77"/><path fill="#f0f" fill-opacity=".467" stroke="#f0f" stroke-opacity=".467" stroke-width="2" d="m575.8-170.43 6 2.1-6 2.1z"/></g><g class="node"><a xlink:href="https://github.com/sverweij/dependency-cruiser/blob/main/src/report/dot/index.mjs" xlink:title="index.mjs"><path fill="#fcf" stroke="#000" d="M428.39-268.32h-54.17c-4.33 0-8.67 4.34-8.67 8.67v8.67c0 4.33 4.34 8.66 8.67 8.66h54.17c4.33 0 8.66-4.33 8.66-8.66v-8.67c0-4.33-4.33-8.67-8.66-8.67"/><text x="373.55" y="-256.77" font-family="Helvetica,sans-Serif" font-size="9">src/report/dot/</text><text x="380.68" y="-247.77" font-family="Helvetica,sans-Serif" font-size="9" font-weight="bold">index.mjs</text></a></g><g class="edge"><path fill="none" stroke="#f0f" stroke-opacity=".467" stroke-width="2" d="M454.49-234.39v-15.38h-8.1"/><path fill="#f0f" fill-opacity=".467" stroke="#f0f" stroke-opacity=".467" stroke-width="2" d="m446.39-247.67-6-2.1 6-2.1z"/></g><g class="node"><a xlink:href="https://github.com/sverweij/dependency-cruiser/blob/main/src/report/dot/default-theme.mjs" xlink:title="default-theme.mjs"><path fill="#fcf" stroke="#000" d="M439.15-445.76h-75.92c-4.33 0-8.67 4.33-8.67 8.67v8.66c0 4.34 4.34 8.67 8.67 8.67h75.92c4.33 0 8.66-4.33 8.66-8.67v-8.66c0-4.34-4.33-8.67-8.66-8.67"/><text x="373.44" y="-434.21" font-family="Helvetica,sans-Serif" font-size="9">src/report/dot/</text><text x="362.56" y="-425.21" font-family="Helvetica,sans-Serif" font-size="9" font-weight="bold">default-theme.mjs</text></a></g><g class="node"><a xlink:href="https://github.com/sverweij/dependency-cruiser/blob/main/src/report/dot/dot-custom.mjs" xlink:title="dot-custom.mjs"><path fill="#fcf" stroke="#000" d="M275.77-213.59h-65.42c-4.33 0-8.67 4.33-8.67 8.66v8.67c0 4.33 4.34 8.67 8.67 8.67h65.42c4.33 0 8.66-4.34 8.66-8.67v-8.67c0-4.33-4.33-8.66-8.66-8.66"/><text x="215.31" y="-202.04" font-family="Helvetica,sans-Serif" font-size="9">src/report/dot/</text><text x="209.68" y="-193.04" font-family="Helvetica,sans-Serif" font-size="9" font-weight="bold">dot-custom.mjs</text></a></g><g class="edge"><path fill="none" stroke="#f0f" stroke-opacity=".467" stroke-width="2" d="M223.77-213.86v-39.29h132.58"/><path fill="#f0f" fill-opacity=".467" stroke="#f0f" stroke-opacity=".467" stroke-width="2" d="m356.35-255.25 6 2.1-6 2.1z"/></g><g class="edge"><path fill="none" stroke="#700" stroke-opacity=".467" stroke-width="2" d="M437.26-246.04h9.12v88.47"/><path fill="#700" fill-opacity=".467" stroke="#700" stroke-opacity=".467" stroke-width="2" d="m448.48-157.57-2.1 6-2.1-6z"/></g><g class="node"><a xlink:href="https://github.com/sverweij/dependency-cruiser/blob/main/src/report/dot/module-utl.mjs" xlink:title="module-utl.mjs"><path fill="#fcf" stroke="#000" d="M490.14-314.05h-61.67c-4.33 0-8.67 4.34-8.67 8.67v8.67c0 4.33 4.34 8.66 8.67 8.66h61.67c4.33 0 8.66-4.33 8.66-8.66v-8.67c0-4.33-4.33-8.67-8.66-8.67"/><text x="431.55" y="-302.5" font-family="Helvetica,sans-Serif" font-size="9">src/report/dot/</text><text x="427.8" y="-293.5" font-family="Helvetica,sans-Serif" font-size="9" font-weight="bold">module-utl.mjs</text></a></g><g class="edge"><path fill="none" stroke="#f0f" stroke-opacity=".467" stroke-width="2" d="M431.3-268.79v-10.01"/><path fill="#f0f" fill-opacity=".467" stroke="#f0f" stroke-opacity=".467" stroke-width="2" d="m429.2-278.8 2.1-6 2.1 6z"/></g><g class="node"><a xlink:href="https://github.com/sverweij/dependency-cruiser/blob/main/src/report/dot/prepare-custom-level.mjs" xlink:title="prepare-custom-level.mjs"><path fill="#fcf" stroke="#000" d="M323.26-298.26H214.35c-4.34 0-8.67 4.33-8.67 8.67v8.66c0 4.34 4.33 8.67 8.67 8.67h108.91c4.34 0 8.67-4.33 8.67-8.67v-8.66c0-4.34-4.33-8.67-8.67-8.67"/><text x="241.05" y="-286.71" font-family="Helvetica,sans-Serif" font-size="9">src/report/dot/</text><text x="213.68" y="-277.71" font-family="Helvetica,sans-Serif" font-size="9" font-weight="bold">prepare-custom-level.mjs</text></a></g><g class="edge"><path fill="none" stroke="#f0f" stroke-opacity=".467" stroke-width="2" d="M365.29-258.7h-46.64v-4.25"/><path fill="#f0f" fill-opacity=".467" stroke="#f0f" stroke-opacity=".467" stroke-width="2" d="m316.55-262.95 2.1-6 2.1 6z"/></g><g class="node"><a xlink:href="https://github.com/sverweij/dependency-cruiser/blob/main/src/report/dot/prepare-flat-level.mjs" xlink:title="prepare-flat-level.mjs"><path fill="#fcf" stroke="#000" d="M438-378.3h-90.17c-4.33 0-8.66 4.33-8.66 8.67v8.66c0 4.34 4.33 8.67 8.66 8.67H438c4.33 0 8.67-4.33 8.67-8.67v-8.66c0-4.34-4.34-8.67-8.67-8.67"/><text x="365.17" y="-366.75" font-family="Helvetica,sans-Serif" font-size="9">src/report/dot/</text><text x="347.17" y="-357.75" font-family="Helvetica,sans-Serif" font-size="9" font-weight="bold">prepare-flat-level.mjs</text></a></g><g class="edge"><path fill="none" stroke="#f0f" stroke-opacity=".467" stroke-width="2" d="M417.05-268.8v-74.22"/><path fill="#f0f" fill-opacity=".467" stroke="#f0f" stroke-opacity=".467" stroke-width="2" d="m414.95-343.02 2.1-6 2.1 6z"/></g><g class="node"><a xlink:href="https://github.com/sverweij/dependency-cruiser/blob/main/src/report/dot/prepare-folder-level.mjs" xlink:title="prepare-folder-level.mjs"><path fill="#fcf" stroke="#000" d="M322.43-368.96H221.02c-4.34 0-8.67 4.33-8.67 8.67v8.66c0 4.34 4.33 8.67 8.67 8.67h101.41c4.34 0 8.67-4.33 8.67-8.67v-8.66c0-4.34-4.33-8.67-8.67-8.67"/><text x="243.98" y="-357.41" font-family="Helvetica,sans-Serif" font-size="9">src/report/dot/</text><text x="220.35" y="-348.41" font-family="Helvetica,sans-Serif" font-size="9" font-weight="bold">prepare-folder-level.mjs</text></a></g><g class="edge"><path fill="none" stroke="#f0f" stroke-opacity=".467" stroke-width="2" d="M414.29-268.71v-77.36h-73.9"/><path fill="#f0f" fill-opacity=".467" stroke="#f0f" stroke-opacity=".467" stroke-width="2" d="m340.39-343.97-6-2.1 6-2.1z"/></g><g class="node"><a xlink:href="https://github.com/sverweij/dependency-cruiser/blob/main/src/report/dot/theming.mjs" xlink:title="theming.mjs"><path fill="#fcf" stroke="#000" d="M402.86-311.26H348.7c-4.34 0-8.67 4.34-8.67 8.67v8.67c0 4.33 4.33 8.66 8.67 8.66h54.16c4.34 0 8.67-4.33 8.67-8.66v-8.67c0-4.33-4.33-8.67-8.67-8.67"/><text x="348.03" y="-299.71" font-family="Helvetica,sans-Serif" font-size="9">src/report/dot/</text><text x="349.53" y="-290.71" font-family="Helvetica,sans-Serif" font-size="9" font-weight="bold">theming.mjs</text></a></g><g class="edge"><path fill="none" stroke="#f0f" stroke-opacity=".467" stroke-width="2" d="M388.54-268.43v-7.47"/><path fill="#f0f" fill-opacity=".467" stroke="#f0f" stroke-opacity=".467" stroke-width="2" d="m386.44-275.9 2.1-6 2.1 6z"/></g><g class="node"><a xlink:href="https://github.com/sverweij/dependency-cruiser/blob/main/src/utl/object-util.mjs" xlink:title="utl-module-not-shared-enough"><path fill="#ccc" stroke="#00f" d="M296.7-247.61h-58.66c-4.34 0-8.67 4.33-8.67 8.67v8.66c0 4.34 4.33 8.67 8.67 8.67h58.66c4.34 0 8.67-4.33 8.67-8.67v-8.66c0-4.34-4.33-8.67-8.67-8.67"/><text x="254.24" y="-236.06" fill="#00f" font-family="Helvetica,sans-Serif" font-size="9">src/utl/</text><text x="237.37" y="-227.06" fill="#00f" font-family="Helvetica,sans-Serif" font-size="9" font-weight="bold">object-util.mjs</text></a></g><g class="edge"><path fill="none" stroke="#aaa" stroke-opacity=".467" stroke-width="2" d="M390.82-241.85v3.22h-76.04"/><path fill="#aaa" fill-opacity=".467" stroke="#aaa" stroke-opacity=".467" stroke-width="2" d="m314.78-236.53-6-2.1 6-2.1z"/></g><g class="node"><a xlink:href="https://github.com/sverweij/dependency-cruiser/blob/main/src/report/dot/dot-flat.mjs" xlink:title="dot-flat.mjs"><path fill="#fcf" stroke="#000" d="M521.25-279.5h-54.17c-4.33 0-8.66 4.34-8.66 8.67v8.67c0 4.33 4.33 8.66 8.66 8.66h54.17c4.33 0 8.67-4.33 8.67-8.66v-8.67c0-4.33-4.34-8.67-8.67-8.67"/><text x="466.42" y="-267.95" font-family="Helvetica,sans-Serif" font-size="9">src/report/dot/</text><text x="470.17" y="-258.95" font-family="Helvetica,sans-Serif" font-size="9" font-weight="bold">dot-flat.mjs</text></a></g><g class="edge"><path fill="none" stroke="#f0f" stroke-opacity=".467" stroke-width="2" d="M458-260.91h-11.45"/><path fill="#f0f" fill-opacity=".467" stroke="#f0f" stroke-opacity=".467" stroke-width="2" d="m446.55-258.81-6-2.1 6-2.1z"/></g><g class="node"><a xlink:href="https://github.com/sverweij/dependency-cruiser/blob/main/src/report/dot/dot-folder.mjs" xlink:title="dot-folder.mjs"><path fill="#fcf" stroke="#000" d="M433.54-206.05h-57.17c-4.33 0-8.66 4.33-8.66 8.67v8.66c0 4.34 4.33 8.67 8.66 8.67h57.17c4.33 0 8.67-4.33 8.67-8.67v-8.66c0-4.34-4.34-8.67-8.67-8.67"/><text x="377.21" y="-194.5" font-family="Helvetica,sans-Serif" font-size="9">src/report/dot/</text><text x="375.71" y="-185.5" font-family="Helvetica,sans-Serif" font-size="9" font-weight="bold">dot-folder.mjs</text></a></g><g class="edge"><path fill="none" stroke="#f0f" stroke-opacity=".467" stroke-width="2" d="M413.94-206.26v-26.84"/><path fill="#f0f" fill-opacity=".467" stroke="#f0f" stroke-opacity=".467" stroke-width="2" d="m411.84-233.1 2.1-6 2.1 6z"/></g><g class="edge"><path fill="none" stroke="#f0f" stroke-opacity=".467" stroke-width="2" d="M499.23-303.69h.73"/><path fill="#f0f" fill-opacity=".467" stroke="#f0f" stroke-opacity=".467" stroke-width="2" d="m497.48-305.79 6 2.1-6 2.1z"/></g><g class="edge"><path fill="none" stroke="#700" stroke-opacity=".467" stroke-width="2" d="M251.9-298.39v-.87"/><path fill="#700" fill-opacity=".467" stroke="#700" stroke-opacity=".467" stroke-width="2" d="m249.8-298.01 2.1-6 2.1 6z"/></g><g class="edge"><path fill="none" stroke="#700" stroke-opacity=".467" stroke-width="2" d="M211.92-271.82v.73"/><path fill="#700" fill-opacity=".467" stroke="#700" stroke-opacity=".467" stroke-width="2" d="m214.02-273.62-2.1 6-2.1-6z"/></g><g class="edge"><path fill="none" stroke="#700" stroke-opacity=".467" stroke-width="2" d="M332.33-289.59h3.22v-87.24"/><path fill="#700" fill-opacity=".467" stroke="#700" stroke-opacity=".467" stroke-width="2" d="m333.45-376.83 2.1-6 2.1 6z"/></g><g class="edge"><path fill="none" stroke="#f0f" stroke-opacity=".467" stroke-width="2" d="M332.11-275.88h93.44v-2.67"/><path fill="#f0f" fill-opacity=".467" stroke="#f0f" stroke-opacity=".467" stroke-width="2" d="m423.45-278.55 2.1-6 2.1 6z"/></g><g class="edge"><path fill="none" stroke="#f0f" stroke-opacity=".467" stroke-width="2" d="M332.27-293.93h.74"/><path fill="#f0f" fill-opacity=".467" stroke="#f0f" stroke-opacity=".467" stroke-width="2" d="m330.68-296.03 6 2.1-6 2.1z"/></g><g class="edge"><path fill="none" stroke="#700" stroke-opacity=".467" stroke-width="2" d="M357.9-352.06v27.21h-60.49"/><path fill="#700" fill-opacity=".467" stroke="#700" stroke-opacity=".467" stroke-width="2" d="m297.41-322.76-6-2.09 6-2.11z"/></g><g class="edge"><path fill="none" stroke="#f0f" stroke-opacity=".467" stroke-width="2" d="M437.71-351.99v28.62"/><path fill="#f0f" fill-opacity=".467" stroke="#f0f" stroke-opacity=".467" stroke-width="2" d="m439.81-323.37-2.1 6-2.1-6z"/></g><g class="edge"><path fill="none" stroke="#f0f" stroke-opacity=".467" stroke-width="2" d="M375.78-352.05v31.55"/><path fill="#f0f" fill-opacity=".467" stroke="#f0f" stroke-opacity=".467" stroke-width="2" d="m377.88-320.5-2.1 6-2.1-6z"/></g><g class="edge"><path fill="none" stroke="#700" stroke-opacity=".467" stroke-width="2" d="M251.9-342.77v.92"/><path fill="#700" fill-opacity=".467" stroke="#700" stroke-opacity=".467" stroke-width="2" d="m254-342.65-2.1 6-2.1-6z"/></g><g class="edge"><path fill="none" stroke="#700" stroke-opacity=".467" stroke-width="2" d="M221.33-369.33v-36.52h-.38"/><path fill="#700" fill-opacity=".467" stroke="#700" stroke-opacity=".467" stroke-width="2" d="m226.49-403.75-6-2.1 6-2.1z"/></g><g class="edge"><path fill="none" stroke="#700" stroke-opacity=".467" stroke-width="2" d="M278.29-369.2v-7.62"/><path fill="#700" fill-opacity=".467" stroke="#700" stroke-opacity=".467" stroke-width="2" d="m276.19-376.82 2.1-6 2.1 6z"/></g><g class="edge"><path fill="none" stroke="#f0f" stroke-opacity=".467" stroke-width="2" d="M331.54-349.19h97.22v25.71"/><path fill="#f0f" fill-opacity=".467" stroke="#f0f" stroke-opacity=".467" stroke-width="2" d="m430.86-323.48-2.1 6-2.1-6z"/></g><g class="edge"><path fill="none" stroke="#f0f" stroke-opacity=".467" stroke-width="2" d="M309.56-342.57v39.67h20.98"/><path fill="#f0f" fill-opacity=".467" stroke="#f0f" stroke-opacity=".467" stroke-width="2" d="m330.54-305 6 2.1-6 2.1z"/></g><g class="edge"><path fill="none" stroke="#f0f" stroke-opacity=".467" stroke-width="2" d="M393.65-311.57v-10.52h196.59v-107.88H456.95"/><path fill="#f0f" fill-opacity=".467" stroke="#f0f" stroke-opacity=".467" stroke-width="2" d="m456.95-427.87-6-2.1 6-2.1z"/></g><g class="edge"><path fill="none" stroke="#f0f" stroke-opacity=".467" stroke-width="2" d="M411.69-299.65h.77"/><path fill="#f0f" fill-opacity=".467" stroke="#f0f" stroke-opacity=".467" stroke-width="2" d="m410.4-301.75 6 2.1-6 2.1z"/></g><g class="edge"><path fill="none" stroke="#aaa" stroke-opacity=".467" stroke-width="2" d="M346.52-284.85v44.38h-31.94"/><path fill="#aaa" fill-opacity=".467" stroke="#aaa" stroke-opacity=".467" stroke-width="2" d="m314.58-238.37-6-2.1 6-2.1z"/></g><g class="node"><a xlink:href="https://github.com/sverweij/dependency-cruiser/blob/main/src/report/error-html/error-html-template.mjs" xlink:title="error-html-template.mjs"><path fill="#fcf" stroke="#000" d="M786.01-329.14H685.34c-4.33 0-8.67 4.34-8.67 8.67v8.67c0 4.33 4.34 8.66 8.67 8.66h100.67c4.33 0 8.66-4.33 8.66-8.66v-8.67c0-4.33-4.33-8.67-8.66-8.67"/><text x="694.42" y="-317.59" font-family="Helvetica,sans-Serif" font-size="9">src/report/error-html/</text><text x="684.67" y="-308.59" font-family="Helvetica,sans-Serif" font-size="9" font-weight="bold">error-html-template.mjs</text></a></g><g class="node"><a xlink:href="https://github.com/sverweij/dependency-cruiser/blob/main/src/report/error-html/index.mjs" xlink:title="index.mjs"><path fill="#fcf" stroke="#000" d="M684.08-363.16h-81.17c-4.33 0-8.67 4.34-8.67 8.67v8.67c0 4.33 4.34 8.66 8.67 8.66h81.17c4.33 0 8.66-4.33 8.66-8.66v-8.67c0-4.33-4.33-8.67-8.66-8.67"/><text x="602.24" y="-351.61" font-family="Helvetica,sans-Serif" font-size="9">src/report/error-html/</text><text x="622.87" y="-342.61" font-family="Helvetica,sans-Serif" font-size="9" font-weight="bold">index.mjs</text></a></g><g class="edge"><path fill="none" stroke="#f0f" stroke-opacity=".467" stroke-width="2" d="M684.71-336.71v.72"/><path fill="#f0f" fill-opacity=".467" stroke="#f0f" stroke-opacity=".467" stroke-width="2" d="m686.81-338.51-2.1 6-2.1-6z"/></g><g class="node"><a xlink:href="https://github.com/sverweij/dependency-cruiser/blob/main/src/report/error-html/utl.mjs" xlink:title="utl.mjs"><path fill="#fcf" stroke="#000" d="M688.83-295.1h-81.17c-4.33 0-8.67 4.33-8.67 8.66v8.67c0 4.33 4.34 8.67 8.67 8.67h81.17c4.33 0 8.66-4.34 8.66-8.67v-8.67c0-4.33-4.33-8.66-8.66-8.66"/><text x="606.99" y="-283.55" font-family="Helvetica,sans-Serif" font-size="9">src/report/error-html/</text><text x="633.99" y="-274.55" font-family="Helvetica,sans-Serif" font-size="9" font-weight="bold">utl.mjs</text></a></g><g class="edge"><path fill="none" stroke="#f0f" stroke-opacity=".467" stroke-width="2" d="M637.83-336.71v32.16"/><path fill="#f0f" fill-opacity=".467" stroke="#f0f" stroke-opacity=".467" stroke-width="2" d="m639.93-304.55-2.1 6-2.1-6z"/></g><g class="edge"><path fill="none" stroke="#f0f" stroke-opacity=".467" stroke-width="2" d="M598.64-274.3H563.8v-9.6"/><path fill="#f0f" fill-opacity=".467" stroke="#f0f" stroke-opacity=".467" stroke-width="2" d="m561.7-283.9 2.1-6 2.1 6z"/></g><g class="node"><a xlink:href="https://github.com/sverweij/dependency-cruiser/blob/main/src/report/error-long.mjs" xlink:title="error-long.mjs"><path fill="#fcf" stroke="#000" d="M315.12-104.21h-59.41c-4.34 0-8.67 4.33-8.67 8.66v8.67c0 4.33 4.33 8.67 8.67 8.67h59.41c4.34 0 8.67-4.34 8.67-8.67v-8.67c0-4.33-4.33-8.66-8.67-8.66"/><text x="265.16" y="-92.66" font-family="Helvetica,sans-Serif" font-size="9">src/report/</text><text x="255.04" y="-83.66" font-family="Helvetica,sans-Serif" font-size="9" font-weight="bold">error-long.mjs</text></a></g><g class="node"><a xlink:href="https://github.com/sverweij/dependency-cruiser/blob/main/src/report/error.mjs" xlink:title="error.mjs"><path fill="#fcf" stroke="#000" d="M350.83-181.51h-39.17c-4.33 0-8.66 4.34-8.66 8.67v8.67c0 4.33 4.33 8.66 8.66 8.66h39.17c4.33 0 8.67-4.33 8.67-8.66v-8.67c0-4.33-4.34-8.67-8.67-8.67"/><text x="311" y="-169.96" font-family="Helvetica,sans-Serif" font-size="9">src/report/</text><text x="311.75" y="-160.96" font-family="Helvetica,sans-Serif" font-size="9" font-weight="bold">error.mjs</text></a></g><g class="edge"><path fill="none" stroke="#f0f" stroke-opacity=".467" stroke-width="2" d="M324.07-96.31h50.06v-70.73h-5.49"/><path fill="#f0f" fill-opacity=".467" stroke="#f0f" stroke-opacity=".467" stroke-width="2" d="m368.64-164.94-6-2.1 6-2.1z"/></g><g class="edge"><path fill="none" stroke="#700" stroke-opacity=".467" stroke-width="2" d="M331.25-155.13v.93"/><path fill="#700" fill-opacity=".467" stroke="#700" stroke-opacity=".467" stroke-width="2" d="m333.35-154.88-2.1 6-2.1-6z"/></g><g class="edge"><path fill="none" stroke="#f0f" stroke-opacity=".467" stroke-width="2" d="M353.01-182v-54.78h183.65v-47.11"/><path fill="#f0f" fill-opacity=".467" stroke="#f0f" stroke-opacity=".467" stroke-width="2" d="m534.56-283.89 2.1-6 2.1 6z"/></g><g class="node"><a xlink:href="https://github.com/sverweij/dependency-cruiser/blob/main/src/utl/wrap-and-indent.mjs" xlink:title="utl-module-not-shared-enough"><path fill="#ccc" stroke="#00f" d="M285.98-179.59h-85.67c-4.33 0-8.66 4.33-8.66 8.67v8.66c0 4.34 4.33 8.67 8.66 8.67h85.67c4.33 0 8.67-4.33 8.67-8.67v-8.66c0-4.34-4.34-8.67-8.67-8.67"/><text x="230.02" y="-168.04" fill="#00f" font-family="Helvetica,sans-Serif" font-size="9">src/utl/</text><text x="199.65" y="-159.04" fill="#00f" font-family="Helvetica,sans-Serif" font-size="9" font-weight="bold">wrap-and-indent.mjs</text></a></g><g class="edge"><path fill="none" stroke="#aaa" stroke-opacity=".467" stroke-width="2" d="M302.89-167.55h-.78"/><path fill="#aaa" fill-opacity=".467" stroke="#aaa" stroke-opacity=".467" stroke-width="2" d="m304.17-165.45-6-2.1 6-2.1z"/></g><g class="node"><a xlink:href="https://github.com/sverweij/dependency-cruiser/blob/main/src/report/html/html-template.mjs" xlink:title="html-template.mjs"><path fill="#fcf" stroke="#000" d="M320.04-509.77h-75.92c-4.33 0-8.67 4.33-8.67 8.66v8.67c0 4.33 4.34 8.67 8.67 8.67h75.92c4.33 0 8.66-4.34 8.66-8.67v-8.67c0-4.33-4.33-8.66-8.66-8.66"/><text x="252.08" y="-498.22" font-family="Helvetica,sans-Serif" font-size="9">src/report/html/</text><text x="243.45" y="-489.22" font-family="Helvetica,sans-Serif" font-size="9" font-weight="bold">html-template.mjs</text></a></g><g class="node"><a xlink:href="https://github.com/sverweij/dependency-cruiser/blob/main/src/report/html/index.mjs" xlink:title="index.mjs"><path fill="#fcf" stroke="#000" d="M260.42-653.42h-58.67c-4.33 0-8.66 4.33-8.66 8.67v8.66c0 4.34 4.33 8.67 8.66 8.67h58.67c4.33 0 8.67-4.33 8.67-8.67v-8.66c0-4.34-4.34-8.67-8.67-8.67"/><text x="201.09" y="-641.87" font-family="Helvetica,sans-Serif" font-size="9">src/report/html/</text><text x="210.46" y="-632.87" font-family="Helvetica,sans-Serif" font-size="9" font-weight="bold">index.mjs</text></a></g><g class="edge"><path fill="none" stroke="#f0f" stroke-opacity=".467" stroke-width="2" d="M237.88-626.98v.72"/><path fill="#f0f" fill-opacity=".467" stroke="#f0f" stroke-opacity=".467" stroke-width="2" d="m239.98-628.78-2.1 6-2.1-6z"/></g><g class="edge"><path fill="none" stroke="#f0f" stroke-opacity=".467" stroke-width="2" d="M200.62-627.13v130.74h25.52"/><path fill="#f0f" fill-opacity=".467" stroke="#f0f" stroke-opacity=".467" stroke-width="2" d="m226.14-498.49 6 2.1-6 2.1z"/></g><g class="node"><a xlink:href="https://github.com/sverweij/dependency-cruiser/blob/main/src/report/identity.mjs" xlink:title="identity.mjs"><path fill="#fcf" stroke="#000" d="M240.03-49h-47.41c-4.34 0-8.67 4.33-8.67 8.67v8.66c0 4.34 4.33 8.67 8.67 8.67h47.41c4.34 0 8.67-4.33 8.67-8.67v-8.66c0-4.34-4.33-8.67-8.67-8.67"/><text x="196.07" y="-37.45" font-family="Helvetica,sans-Serif" font-size="9">src/report/</text><text x="191.95" y="-28.45" font-family="Helvetica,sans-Serif" font-size="9" font-weight="bold">identity.mjs</text></a></g><g class="node"><a xlink:href="https://github.com/sverweij/dependency-cruiser/blob/main/src/report/index.mjs" xlink:title="index.mjs"><path fill="#fcf" stroke="#000" d="M601.16-66.82h-39.92c-4.33 0-8.67 4.33-8.67 8.66v8.67c0 4.33 4.34 8.67 8.67 8.67h39.92c4.33 0 8.66-4.34 8.66-8.67v-8.67c0-4.33-4.33-8.66-8.66-8.66"/><text x="560.95" y="-55.27" font-family="Helvetica,sans-Serif" font-size="9">src/report/</text><text x="560.57" y="-46.27" font-family="Helvetica,sans-Serif" font-size="9" font-weight="bold">index.mjs</text></a></g><g class="node"><a xlink:href="https://github.com/sverweij/dependency-cruiser/blob/main/src/report/plugins.mjs" xlink:title="plugins.mjs"><path fill="#fcf" stroke="#000" d="M720.01-49.63H672.6c-4.34 0-8.67 4.34-8.67 8.67v8.67c0 4.33 4.33 8.66 8.67 8.66h47.41c4.34 0 8.67-4.33 8.67-8.66v-8.67c0-4.33-4.33-8.67-8.67-8.67"/><text x="676.05" y="-38.08" font-family="Helvetica,sans-Serif" font-size="9">src/report/</text><text x="671.93" y="-29.08" font-family="Helvetica,sans-Serif" font-size="9" font-weight="bold">plugins.mjs</text></a></g><g class="edge"><path fill="none" stroke="#f0f" stroke-opacity=".467" stroke-width="2" d="M610.25-45.23h44.33"/><path fill="#f0f" fill-opacity=".467" stroke="#f0f" stroke-opacity=".467" stroke-width="2" d="m654.58-47.33 6 2.1-6 2.1z"/></g><g class="node"><a xlink:href="https://github.com/sverweij/dependency-cruiser/blob/main/src/report/json.mjs" xlink:title="json.mjs"><path fill="#fcf" stroke="#000" d="M208.91-118h-39.17c-4.33 0-8.67 4.33-8.67 8.67v8.66c0 4.34 4.34 8.67 8.67 8.67h39.17c4.33 0 8.66-4.33 8.66-8.67v-8.66c0-4.34-4.33-8.67-8.66-8.67"/><text x="169.07" y="-106.45" font-family="Helvetica,sans-Serif" font-size="9">src/report/</text><text x="171.32" y="-97.45" font-family="Helvetica,sans-Serif" font-size="9" font-weight="bold">json.mjs</text></a></g><g class="node"><a xlink:href="https://github.com/sverweij/dependency-cruiser/blob/main/src/report/markdown.mjs" xlink:title="markdown.mjs"><path fill="#fcf" stroke="#000" d="M742.46-257.81H680.8c-4.34 0-8.67 4.33-8.67 8.66v8.67c0 4.33 4.33 8.67 8.67 8.67h61.66c4.34 0 8.67-4.34 8.67-8.67v-8.67c0-4.33-4.33-8.66-8.67-8.66"/><text x="691.38" y="-246.26" font-family="Helvetica,sans-Serif" font-size="9">src/report/</text><text x="680.13" y="-237.26" font-family="Helvetica,sans-Serif" font-size="9" font-weight="bold">markdown.mjs</text></a></g><g class="edge"><path fill="none" stroke="#f0f" stroke-opacity=".467" stroke-width="2" d="M684.81-258.28v-1.73"/><path fill="#f0f" fill-opacity=".467" stroke="#f0f" stroke-opacity=".467" stroke-width="2" d="m682.71-260.01 2.1-6 2.1 6z"/></g><g class="node"><a xlink:href="https://github.com/sverweij/dependency-cruiser/blob/main/src/report/mermaid.mjs" xlink:title="no-orphans"><path fill="#fcf" stroke="red" d="M684.78-141h-54.91c-4.34 0-8.67 4.33-8.67 8.67v8.66c0 4.34 4.33 8.67 8.67 8.67h54.91c4.34 0 8.67-4.33 8.67-8.67v-8.66c0-4.34-4.33-8.67-8.67-8.67"/><text x="637.07" y="-129.45" fill="red" font-family="Helvetica,sans-Serif" font-size="9">src/report/</text><text x="629.2" y="-120.45" fill="red" font-family="Helvetica,sans-Serif" font-size="9" font-weight="bold">mermaid.mjs</text></a></g><g class="node"><a xlink:href="https://github.com/sverweij/dependency-cruiser/blob/main/src/report/metrics.mjs" xlink:title="metrics.mjs"><path fill="#fcf" stroke="#000" d="M577.57-353.62H527.9c-4.33 0-8.66 4.33-8.66 8.67v8.66c0 4.34 4.33 8.67 8.66 8.67h49.67c4.33 0 8.67-4.33 8.67-8.67v-8.66c0-4.34-4.34-8.67-8.67-8.67"/><text x="532.49" y="-342.07" font-family="Helvetica,sans-Serif" font-size="9">src/report/</text><text x="527.24" y="-333.07" font-family="Helvetica,sans-Serif" font-size="9" font-weight="bold">metrics.mjs</text></a></g><g class="edge"><path fill="none" stroke="#f0f" stroke-opacity=".467" stroke-width="2" d="M547.28-327.46v.78"/><path fill="#f0f" fill-opacity=".467" stroke="#f0f" stroke-opacity=".467" stroke-width="2" d="m549.38-328.65-2.1 6-2.1-6z"/></g><g class="node"><a xlink:href="https://github.com/sverweij/dependency-cruiser/blob/main/src/report/null.mjs" xlink:title="null.mjs"><path fill="#fcf" stroke="#000" d="M346.91-26h-39.17c-4.33 0-8.67 4.33-8.67 8.67v8.66c0 4.34 4.34 8.67 8.67 8.67h39.17c4.33 0 8.66-4.33 8.66-8.67v-8.66c0-4.34-4.33-8.67-8.66-8.67"/><text x="307.07" y="-14.45" font-family="Helvetica,sans-Serif" font-size="9">src/report/</text><text x="310.82" y="-5.45" font-family="Helvetica,sans-Serif" font-size="9" font-weight="bold">null.mjs</text></a></g><g class="node"><a xlink:href="https://github.com/sverweij/dependency-cruiser/blob/main/src/report/teamcity.mjs" xlink:title="teamcity.mjs"><path fill="#fcf" stroke="#000" d="M535.54-418.88h-53.41c-4.34 0-8.67 4.33-8.67 8.66v8.67c0 4.33 4.33 8.67 8.67 8.67h53.41c4.34 0 8.67-4.34 8.67-8.67v-8.67c0-4.33-4.33-8.66-8.67-8.66"/><text x="488.59" y="-407.33" font-family="Helvetica,sans-Serif" font-size="9">src/report/</text><text x="481.46" y="-398.33" font-family="Helvetica,sans-Serif" font-size="9" font-weight="bold">teamcity.mjs</text></a></g><g class="edge"><path fill="none" stroke="#f0f" stroke-opacity=".467" stroke-width="2" d="M516.56-392.46v63.89"/><path fill="#f0f" fill-opacity=".467" stroke="#f0f" stroke-opacity=".467" stroke-width="2" d="m518.66-328.57-2.1 6-2.1-6z"/></g><g class="node"><a xlink:href="https://github.com/sverweij/dependency-cruiser/blob/main/src/report/text.mjs" xlink:title="no-orphans"><path fill="#fcf" stroke="red" d="M185.91-509h-39.17c-4.33 0-8.67 4.33-8.67 8.67v8.66c0 4.34 4.34 8.67 8.67 8.67h39.17c4.33 0 8.66-4.33 8.66-8.67v-8.66c0-4.34-4.33-8.67-8.66-8.67"/><text x="146.07" y="-497.45" fill="red" font-family="Helvetica,sans-Serif" font-size="9">src/report/</text><text x="149.07" y="-488.45" fill="red" font-family="Helvetica,sans-Serif" font-size="9" font-weight="bold">text.mjs</text></a></g></g></svg>