<?xml version="1.0" encoding="UTF-8" standalone="no"?>
<!DOCTYPE svg PUBLIC "-//W3C//DTD SVG 1.1//EN"
 "http://www.w3.org/Graphics/SVG/1.1/DTD/svg11.dtd">
<!-- Generated by graphviz version 3.0.0 (20220226.1711)
 -->
<!-- Title: dependency&#45;cruiser output Pages: 1 -->
<svg width="669pt" height="674pt"
 viewBox="0.00 0.00 669.00 674.00" xmlns="http://www.w3.org/2000/svg" xmlns:xlink="http://www.w3.org/1999/xlink">
<g id="graph0" class="graph" transform="scale(1 1) rotate(0) translate(4 670)">
<title>dependency&#45;cruiser output</title>
<polygon fill="white" stroke="transparent" points="-4,4 -4,-670 665,-670 665,4 -4,4"/>
<g id="clust1" class="cluster">
<title>cluster_src</title>
<path fill="#ffffff" stroke="black" stroke-width="2" d="M20,-8C20,-8 641,-8 641,-8 647,-8 653,-14 653,-20 653,-20 653,-646 653,-646 653,-652 647,-658 641,-658 641,-658 20,-658 20,-658 14,-658 8,-652 8,-646 8,-646 8,-20 8,-20 8,-14 14,-8 20,-8"/>
<text text-anchor="middle" x="330.5" y="-646.8" font-family="Helvetica,sans-Serif" font-weight="bold" font-size="9.00">src</text>
</g>
<g id="clust2" class="cluster">
<title>cluster_src/graph&#45;utl</title>
<path fill="#ffffff" stroke="black" stroke-width="2" d="M251,-400C251,-400 633,-400 633,-400 639,-400 645,-406 645,-412 645,-412 645,-560 645,-560 645,-566 639,-572 633,-572 633,-572 251,-572 251,-572 245,-572 239,-566 239,-560 239,-560 239,-412 239,-412 239,-406 245,-400 251,-400"/>
<text text-anchor="middle" x="442" y="-560.8" font-family="Helvetica,sans-Serif" font-weight="bold" font-size="9.00">graph&#45;utl</text>
</g>
<g id="clust3" class="cluster">
<title>cluster_src/report</title>
<path fill="#ffffff" stroke="black" stroke-width="2" d="M28,-16C28,-16 327.5,-16 327.5,-16 333.5,-16 339.5,-22 339.5,-28 339.5,-28 339.5,-380 339.5,-380 339.5,-386 333.5,-392 327.5,-392 327.5,-392 28,-392 28,-392 22,-392 16,-386 16,-380 16,-380 16,-28 16,-28 16,-22 22,-16 28,-16"/>
<text text-anchor="middle" x="177.75" y="-380.8" font-family="Helvetica,sans-Serif" font-weight="bold" font-size="9.00">report</text>
</g>
<g id="clust4" class="cluster">
<title>cluster_src/utl</title>
<path fill="#ffffff" stroke="black" stroke-width="2" d="M262,-580C262,-580 347,-580 347,-580 353,-580 359,-586 359,-592 359,-592 359,-620 359,-620 359,-626 353,-632 347,-632 347,-632 262,-632 262,-632 256,-632 250,-626 250,-620 250,-620 250,-592 250,-592 250,-586 256,-580 262,-580"/>
<text text-anchor="start" x="299" y="-620.8" font-family="Helvetica,sans-Serif" font-weight="bold" font-size="9.00">utl</text>
</g>
<!-- src/graph&#45;utl/add&#45;focus.js -->
<g id="node1" class="node">
<title>src/graph&#45;utl/add&#45;focus.js</title>
<g id="a_node1"><a xlink:href="https://github.com/sverweij/dependency-cruiser/blob/develop/src/graph-utl/add-focus.js" xlink:title="add&#45;focus.js">
<path fill="#ffcccc" stroke="black" d="M486,-527C486,-527 432,-527 432,-527 429,-527 426,-524 426,-521 426,-521 426,-515 426,-515 426,-512 429,-509 432,-509 432,-509 486,-509 486,-509 489,-509 492,-512 492,-515 492,-515 492,-521 492,-521 492,-524 489,-527 486,-527"/>
<text text-anchor="start" x="434" y="-515.8" font-family="Helvetica,sans-Serif" font-size="9.00">add&#45;focus.js</text>
</a>
</g>
</g>
<!-- src/graph&#45;utl/match&#45;facade.js -->
<g id="node2" class="node">
<title>src/graph&#45;utl/match&#45;facade.js</title>
<g id="a_node2"><a xlink:href="https://github.com/sverweij/dependency-cruiser/blob/develop/src/graph-utl/match-facade.js" xlink:title="match&#45;facade.js">
<path fill="#ffcccc" stroke="black" d="M631,-516C631,-516 562,-516 562,-516 559,-516 556,-513 556,-510 556,-510 556,-504 556,-504 556,-501 559,-498 562,-498 562,-498 631,-498 631,-498 634,-498 637,-501 637,-504 637,-504 637,-510 637,-510 637,-513 634,-516 631,-516"/>
<text text-anchor="start" x="564" y="-504.8" font-family="Helvetica,sans-Serif" font-size="9.00">match&#45;facade.js</text>
</a>
</g>
</g>
<!-- src/graph&#45;utl/add&#45;focus.js&#45;&gt;src/graph&#45;utl/match&#45;facade.js -->
<g id="edge1" class="edge">
<title>src/graph&#45;utl/add&#45;focus.js&#45;&gt;src/graph&#45;utl/match&#45;facade.js</title>
<path fill="none" stroke="#770000" stroke-width="2" stroke-opacity="0.466667" d="M492.28,-512.5C492.28,-512.5 549.92,-512.5 549.92,-512.5"/>
<polygon fill="#770000" fill-opacity="0.466667" stroke="#770000" stroke-width="2" stroke-opacity="0.466667" points="549.92,-514.6 555.92,-512.5 549.92,-510.4 549.92,-514.6"/>
</g>
<!-- src/graph&#45;utl/compare.js -->
<g id="node3" class="node">
<title>src/graph&#45;utl/compare.js</title>
<g id="a_node3"><a xlink:href="https://github.com/sverweij/dependency-cruiser/blob/develop/src/graph-utl/compare.js" xlink:title="compare.js">
<path fill="#ffcccc" stroke="black" d="M621.5,-426C621.5,-426 571.5,-426 571.5,-426 568.5,-426 565.5,-423 565.5,-420 565.5,-420 565.5,-414 565.5,-414 565.5,-411 568.5,-408 571.5,-408 571.5,-408 621.5,-408 621.5,-408 624.5,-408 627.5,-411 627.5,-414 627.5,-414 627.5,-420 627.5,-420 627.5,-423 624.5,-426 621.5,-426"/>
<text text-anchor="start" x="573.5" y="-414.8" font-family="Helvetica,sans-Serif" font-size="9.00">compare.js</text>
</a>
</g>
</g>
<!-- src/graph&#45;utl/consolidate&#45;module&#45;dependencies.js -->
<g id="node4" class="node">
<title>src/graph&#45;utl/consolidate&#45;module&#45;dependencies.js</title>
<g id="a_node4"><a xlink:href="https://github.com/sverweij/dependency-cruiser/blob/develop/src/graph-utl/consolidate-module-dependencies.js" xlink:title="consolidate&#45;module&#45;dependencies.js">
<path fill="#ffcccc" stroke="black" d="M537,-456C537,-456 381,-456 381,-456 378,-456 375,-453 375,-450 375,-450 375,-444 375,-444 375,-441 378,-438 381,-438 381,-438 537,-438 537,-438 540,-438 543,-441 543,-444 543,-444 543,-450 543,-450 543,-453 540,-456 537,-456"/>
<text text-anchor="start" x="383" y="-444.8" font-family="Helvetica,sans-Serif" font-size="9.00">consolidate&#45;module&#45;dependencies.js</text>
</a>
</g>
</g>
<!-- src/graph&#45;utl/consolidate&#45;module&#45;dependencies.js&#45;&gt;src/graph&#45;utl/compare.js -->
<g id="edge2" class="edge">
<title>src/graph&#45;utl/consolidate&#45;module&#45;dependencies.js&#45;&gt;src/graph&#45;utl/compare.js</title>
<path fill="none" stroke="#770000" stroke-width="2" stroke-opacity="0.466667" d="M529,-437.86C529,-430.03 529,-420 529,-420 529,-420 559.12,-420 559.12,-420"/>
<polygon fill="#770000" fill-opacity="0.466667" stroke="#770000" stroke-width="2" stroke-opacity="0.466667" points="559.12,-422.1 565.12,-420 559.12,-417.9 559.12,-422.1"/>
</g>
<!-- src/graph&#45;utl/consolidate&#45;modules.js -->
<g id="node5" class="node">
<title>src/graph&#45;utl/consolidate&#45;modules.js</title>
<g id="a_node5"><a xlink:href="https://github.com/sverweij/dependency-cruiser/blob/develop/src/graph-utl/consolidate-modules.js" xlink:title="consolidate&#45;modules.js">
<path fill="#ffcccc" stroke="black" d="M508.5,-426C508.5,-426 409.5,-426 409.5,-426 406.5,-426 403.5,-423 403.5,-420 403.5,-420 403.5,-414 403.5,-414 403.5,-411 406.5,-408 409.5,-408 409.5,-408 508.5,-408 508.5,-408 511.5,-408 514.5,-411 514.5,-414 514.5,-414 514.5,-420 514.5,-420 514.5,-423 511.5,-426 508.5,-426"/>
<text text-anchor="start" x="411.5" y="-414.8" font-family="Helvetica,sans-Serif" font-size="9.00">consolidate&#45;modules.js</text>
</a>
</g>
</g>
<!-- src/graph&#45;utl/consolidate&#45;modules.js&#45;&gt;src/graph&#45;utl/compare.js -->
<g id="edge3" class="edge">
<title>src/graph&#45;utl/consolidate&#45;modules.js&#45;&gt;src/graph&#45;utl/compare.js</title>
<path fill="none" stroke="#770000" stroke-width="2" stroke-opacity="0.466667" d="M514.53,-414C514.53,-414 559.28,-414 559.28,-414"/>
<polygon fill="#770000" fill-opacity="0.466667" stroke="#770000" stroke-width="2" stroke-opacity="0.466667" points="559.28,-416.1 565.28,-414 559.28,-411.9 559.28,-416.1"/>
</g>
<!-- src/graph&#45;utl/consolidate&#45;to&#45;folder.js -->
<g id="node6" class="node">
<title>src/graph&#45;utl/consolidate&#45;to&#45;folder.js</title>
<g id="a_node6"><a xlink:href="https://github.com/sverweij/dependency-cruiser/blob/develop/src/graph-utl/consolidate-to-folder.js" xlink:title="consolidate&#45;to&#45;folder.js">
<path fill="#ffcccc" stroke="black" d="M353.5,-426C353.5,-426 255.5,-426 255.5,-426 252.5,-426 249.5,-423 249.5,-420 249.5,-420 249.5,-414 249.5,-414 249.5,-411 252.5,-408 255.5,-408 255.5,-408 353.5,-408 353.5,-408 356.5,-408 359.5,-411 359.5,-414 359.5,-414 359.5,-420 359.5,-420 359.5,-423 356.5,-426 353.5,-426"/>
<text text-anchor="start" x="257.5" y="-414.8" font-family="Helvetica,sans-Serif" font-size="9.00">consolidate&#45;to&#45;folder.js</text>
</a>
</g>
</g>
<!-- src/graph&#45;utl/consolidate&#45;to&#45;folder.js&#45;&gt;src/graph&#45;utl/consolidate&#45;module&#45;dependencies.js -->
<g id="edge4" class="edge">
<title>src/graph&#45;utl/consolidate&#45;to&#45;folder.js&#45;&gt;src/graph&#45;utl/consolidate&#45;module&#45;dependencies.js</title>
<path fill="none" stroke="#770000" stroke-width="2" stroke-opacity="0.466667" d="M359.62,-417C376.16,-417 390,-417 390,-417 390,-417 390,-431.84 390,-431.84"/>
<polygon fill="#770000" fill-opacity="0.466667" stroke="#770000" stroke-width="2" stroke-opacity="0.466667" points="387.9,-431.84 390,-437.84 392.1,-431.84 387.9,-431.84"/>
</g>
<!-- src/graph&#45;utl/consolidate&#45;to&#45;folder.js&#45;&gt;src/graph&#45;utl/consolidate&#45;modules.js -->
<g id="edge5" class="edge">
<title>src/graph&#45;utl/consolidate&#45;to&#45;folder.js&#45;&gt;src/graph&#45;utl/consolidate&#45;modules.js</title>
<path fill="none" stroke="#770000" stroke-width="2" stroke-opacity="0.466667" d="M359.84,-412.5C359.84,-412.5 397.27,-412.5 397.27,-412.5"/>
<polygon fill="#770000" fill-opacity="0.466667" stroke="#770000" stroke-width="2" stroke-opacity="0.466667" points="397.27,-414.6 403.27,-412.5 397.27,-410.4 397.27,-414.6"/>
</g>
<!-- src/graph&#45;utl/consolidate&#45;to&#45;pattern.js -->
<g id="node7" class="node">
<title>src/graph&#45;utl/consolidate&#45;to&#45;pattern.js</title>
<g id="a_node7"><a xlink:href="https://github.com/sverweij/dependency-cruiser/blob/develop/src/graph-utl/consolidate-to-pattern.js" xlink:title="consolidate&#45;to&#45;pattern.js">
<path fill="#ffcccc" stroke="black" d="M356,-486C356,-486 253,-486 253,-486 250,-486 247,-483 247,-480 247,-480 247,-474 247,-474 247,-471 250,-468 253,-468 253,-468 356,-468 356,-468 359,-468 362,-471 362,-474 362,-474 362,-480 362,-480 362,-483 359,-486 356,-486"/>
<text text-anchor="start" x="255" y="-474.8" font-family="Helvetica,sans-Serif" font-size="9.00">consolidate&#45;to&#45;pattern.js</text>
</a>
</g>
</g>
<!-- src/graph&#45;utl/consolidate&#45;to&#45;pattern.js&#45;&gt;src/graph&#45;utl/consolidate&#45;module&#45;dependencies.js -->
<g id="edge6" class="edge">
<title>src/graph&#45;utl/consolidate&#45;to&#45;pattern.js&#45;&gt;src/graph&#45;utl/consolidate&#45;module&#45;dependencies.js</title>
<path fill="none" stroke="#770000" stroke-width="2" stroke-opacity="0.466667" d="M362.03,-480C382.69,-480 401,-480 401,-480 401,-480 401,-462.02 401,-462.02"/>
<polygon fill="#770000" fill-opacity="0.466667" stroke="#770000" stroke-width="2" stroke-opacity="0.466667" points="403.1,-462.02 401,-456.02 398.9,-462.02 403.1,-462.02"/>
</g>
<!-- src/graph&#45;utl/consolidate&#45;to&#45;pattern.js&#45;&gt;src/graph&#45;utl/consolidate&#45;modules.js -->
<g id="edge7" class="edge">
<title>src/graph&#45;utl/consolidate&#45;to&#45;pattern.js&#45;&gt;src/graph&#45;utl/consolidate&#45;modules.js</title>
<path fill="none" stroke="#770000" stroke-width="2" stroke-opacity="0.466667" d="M362.1,-474C366.34,-474 369,-474 369,-474 369,-474 369,-421.5 369,-421.5 369,-421.5 397.28,-421.5 397.28,-421.5"/>
<polygon fill="#770000" fill-opacity="0.466667" stroke="#770000" stroke-width="2" stroke-opacity="0.466667" points="397.28,-423.6 403.28,-421.5 397.28,-419.4 397.28,-423.6"/>
</g>
<!-- src/graph&#45;utl/filterbank.js -->
<g id="node8" class="node">
<title>src/graph&#45;utl/filterbank.js</title>
<g id="a_node8"><a xlink:href="https://github.com/sverweij/dependency-cruiser/blob/develop/src/graph-utl/filterbank.js" xlink:title="filterbank.js">
<path fill="#ffcccc" stroke="black" d="M330,-516C330,-516 279,-516 279,-516 276,-516 273,-513 273,-510 273,-510 273,-504 273,-504 273,-501 276,-498 279,-498 279,-498 330,-498 330,-498 333,-498 336,-501 336,-504 336,-504 336,-510 336,-510 336,-513 333,-516 330,-516"/>
<text text-anchor="start" x="281" y="-504.8" font-family="Helvetica,sans-Serif" font-size="9.00">filterbank.js</text>
</a>
</g>
</g>
<!-- src/graph&#45;utl/filterbank.js&#45;&gt;src/graph&#45;utl/add&#45;focus.js -->
<g id="edge8" class="edge">
<title>src/graph&#45;utl/filterbank.js&#45;&gt;src/graph&#45;utl/add&#45;focus.js</title>
<path fill="none" stroke="#770000" stroke-width="2" stroke-opacity="0.466667" d="M336.14,-512.5C336.14,-512.5 419.8,-512.5 419.8,-512.5"/>
<polygon fill="#770000" fill-opacity="0.466667" stroke="#770000" stroke-width="2" stroke-opacity="0.466667" points="419.8,-514.6 425.8,-512.5 419.8,-510.4 419.8,-514.6"/>
</g>
<!-- src/graph&#45;utl/filterbank.js&#45;&gt;src/graph&#45;utl/match&#45;facade.js -->
<g id="edge9" class="edge">
<title>src/graph&#45;utl/filterbank.js&#45;&gt;src/graph&#45;utl/match&#45;facade.js</title>
<path fill="none" stroke="#770000" stroke-width="2" stroke-opacity="0.466667" d="M336.03,-503.5C336.03,-503.5 549.79,-503.5 549.79,-503.5"/>
<polygon fill="#770000" fill-opacity="0.466667" stroke="#770000" stroke-width="2" stroke-opacity="0.466667" points="549.79,-505.6 555.79,-503.5 549.79,-501.4 549.79,-505.6"/>
</g>
<!-- src/graph&#45;utl/rule&#45;set.js -->
<g id="node9" class="node">
<title>src/graph&#45;utl/rule&#45;set.js</title>
<g id="a_node9"><a xlink:href="https://github.com/sverweij/dependency-cruiser/blob/develop/src/graph-utl/rule-set.js" xlink:title="rule&#45;set.js">
<path fill="#ffcccc" stroke="black" d="M326.5,-546C326.5,-546 282.5,-546 282.5,-546 279.5,-546 276.5,-543 276.5,-540 276.5,-540 276.5,-534 276.5,-534 276.5,-531 279.5,-528 282.5,-528 282.5,-528 326.5,-528 326.5,-528 329.5,-528 332.5,-531 332.5,-534 332.5,-534 332.5,-540 332.5,-540 332.5,-543 329.5,-546 326.5,-546"/>
<text text-anchor="start" x="284.5" y="-534.8" font-family="Helvetica,sans-Serif" font-size="9.00">rule&#45;set.js</text>
</a>
</g>
</g>
<!-- src/graph&#45;utl/strip&#45;self&#45;transitions.js -->
<g id="node10" class="node">
<title>src/graph&#45;utl/strip&#45;self&#45;transitions.js</title>
<g id="a_node10"><a xlink:href="https://github.com/sverweij/dependency-cruiser/blob/develop/src/graph-utl/strip-self-transitions.js" xlink:title="strip&#45;self&#45;transitions.js">
<path fill="#ffcccc" stroke="black" d="M351,-456C351,-456 258,-456 258,-456 255,-456 252,-453 252,-450 252,-450 252,-444 252,-444 252,-441 255,-438 258,-438 258,-438 351,-438 351,-438 354,-438 357,-441 357,-444 357,-444 357,-450 357,-450 357,-453 354,-456 351,-456"/>
<text text-anchor="start" x="260" y="-444.8" font-family="Helvetica,sans-Serif" font-size="9.00">strip&#45;self&#45;transitions.js</text>
</a>
</g>
</g>
<!-- src/report/anon -->
<g id="node11" class="node">
<title>src/report/anon</title>
<g id="a_node11"><a xlink:href="https://github.com/sverweij/dependency-cruiser/blob/develop/src/report/anon" xlink:title="anon">
<polygon fill="#ffccff" stroke="black" points="152,-42 100,-42 98,-40 98,-24 150,-24 152,-26 152,-42"/>
<polyline fill="none" stroke="black" points="150,-40 98,-40 "/>
<polyline fill="none" stroke="black" points="150,-40 150,-24 "/>
<polyline fill="none" stroke="black" points="150,-40 152,-42 "/>
<text text-anchor="start" x="114" y="-30.8" font-family="Helvetica,sans-Serif" font-size="9.00">anon</text>
</a>
</g>
</g>
<!-- src/report/baseline.js -->
<g id="node12" class="node">
<title>src/report/baseline.js</title>
<g id="a_node12"><a xlink:href="https://github.com/sverweij/dependency-cruiser/blob/develop/src/report/baseline.js" xlink:title="baseline.js">
<path fill="#ffccff" stroke="black" d="M149.5,-72C149.5,-72 100.5,-72 100.5,-72 97.5,-72 94.5,-69 94.5,-66 94.5,-66 94.5,-60 94.5,-60 94.5,-57 97.5,-54 100.5,-54 100.5,-54 149.5,-54 149.5,-54 152.5,-54 155.5,-57 155.5,-60 155.5,-60 155.5,-66 155.5,-66 155.5,-69 152.5,-72 149.5,-72"/>
<text text-anchor="start" x="102.5" y="-60.8" font-family="Helvetica,sans-Serif" font-size="9.00">baseline.js</text>
</a>
</g>
</g>
<!-- src/report/csv.js -->
<g id="node13" class="node">
<title>src/report/csv.js</title>
<g id="a_node13"><a xlink:href="https://github.com/sverweij/dependency-cruiser/blob/develop/src/report/csv.js" xlink:title="csv.js">
<path fill="#ffccff" stroke="black" d="M222.5,-101C222.5,-101 180.5,-101 180.5,-101 177.5,-101 174.5,-98 174.5,-95 174.5,-95 174.5,-89 174.5,-89 174.5,-86 177.5,-83 180.5,-83 180.5,-83 222.5,-83 222.5,-83 225.5,-83 228.5,-86 228.5,-89 228.5,-89 228.5,-95 228.5,-95 228.5,-98 225.5,-101 222.5,-101"/>
<text text-anchor="start" x="190" y="-89.8" font-family="Helvetica,sans-Serif" font-size="9.00">csv.js</text>
</a>
</g>
</g>
<!-- src/report/utl -->
<g id="node14" class="node">
<title>src/report/utl</title>
<g id="a_node14"><a xlink:href="https://github.com/sverweij/dependency-cruiser/blob/develop/src/report/utl" xlink:title="utl">
<polygon fill="#ffccff" stroke="black" points="331.5,-197 279.5,-197 277.5,-195 277.5,-179 329.5,-179 331.5,-181 331.5,-197"/>
<polyline fill="none" stroke="black" points="329.5,-195 277.5,-195 "/>
<polyline fill="none" stroke="black" points="329.5,-195 329.5,-179 "/>
<polyline fill="none" stroke="black" points="329.5,-195 331.5,-197 "/>
<text text-anchor="start" x="299.5" y="-185.8" font-family="Helvetica,sans-Serif" font-size="9.00">utl</text>
</a>
</g>
</g>
<!-- src/report/csv.js&#45;&gt;src/report/utl -->
<g id="edge10" class="edge">
<title>src/report/csv.js&#45;&gt;src/report/utl</title>
<path fill="none" stroke="#ff00ff" stroke-width="2" stroke-opacity="0.466667" d="M228.69,-92C259.36,-92 305,-92 305,-92 305,-92 305,-172.8 305,-172.8"/>
<polygon fill="#ff00ff" fill-opacity="0.466667" stroke="#ff00ff" stroke-width="2" stroke-opacity="0.466667" points="302.9,-172.8 305,-178.8 307.1,-172.8 302.9,-172.8"/>
</g>
<!-- src/report/dot -->
<g id="node15" class="node">
<title>src/report/dot</title>
<g id="a_node15"><a xlink:href="https://github.com/sverweij/dependency-cruiser/blob/develop/src/report/dot" xlink:title="dot">
<polygon fill="#ffccff" stroke="black" points="228.5,-336 176.5,-336 174.5,-334 174.5,-318 226.5,-318 228.5,-320 228.5,-336"/>
<polyline fill="none" stroke="black" points="226.5,-334 174.5,-334 "/>
<polyline fill="none" stroke="black" points="226.5,-334 226.5,-318 "/>
<polyline fill="none" stroke="black" points="226.5,-334 228.5,-336 "/>
<text text-anchor="start" x="195" y="-324.8" font-family="Helvetica,sans-Serif" font-size="9.00">dot</text>
</a>
</g>
</g>
<!-- src/report/dot&#45;&gt;src/graph&#45;utl/compare.js -->
<g id="edge13" class="edge">
<title>src/report/dot&#45;&gt;src/graph&#45;utl/compare.js</title>
<path fill="none" stroke="#770000" stroke-width="2" stroke-opacity="0.466667" d="M228.68,-323.14C318.04,-323.14 597,-323.14 597,-323.14 597,-323.14 597,-401.66 597,-401.66"/>
<polygon fill="#770000" fill-opacity="0.466667" stroke="#770000" stroke-width="2" stroke-opacity="0.466667" points="594.9,-401.66 597,-407.66 599.1,-401.66 594.9,-401.66"/>
</g>
<!-- src/report/dot&#45;&gt;src/graph&#45;utl/consolidate&#45;to&#45;folder.js -->
<g id="edge16" class="edge">
<title>src/report/dot&#45;&gt;src/graph&#45;utl/consolidate&#45;to&#45;folder.js</title>
<path fill="none" stroke="#770000" stroke-width="2" stroke-opacity="0.466667" d="M228.73,-325.71C245.57,-325.71 264,-325.71 264,-325.71 264,-325.71 264,-401.91 264,-401.91"/>
<polygon fill="#770000" fill-opacity="0.466667" stroke="#770000" stroke-width="2" stroke-opacity="0.466667" points="261.9,-401.91 264,-407.91 266.1,-401.91 261.9,-401.91"/>
</g>
<!-- src/report/dot&#45;&gt;src/graph&#45;utl/consolidate&#45;to&#45;pattern.js -->
<g id="edge14" class="edge">
<title>src/report/dot&#45;&gt;src/graph&#45;utl/consolidate&#45;to&#45;pattern.js</title>
<path fill="none" stroke="#770000" stroke-width="2" stroke-opacity="0.466667" d="M228.75,-330.86C234.57,-330.86 239,-330.86 239,-330.86 239,-330.86 239,-477 239,-477 239,-477 240.77,-477 240.77,-477"/>
<polygon fill="#770000" fill-opacity="0.466667" stroke="#770000" stroke-width="2" stroke-opacity="0.466667" points="240.77,-479.1 246.77,-477 240.77,-474.9 240.77,-479.1"/>
</g>
<!-- src/report/dot&#45;&gt;src/graph&#45;utl/filterbank.js -->
<g id="edge11" class="edge">
<title>src/report/dot&#45;&gt;src/graph&#45;utl/filterbank.js</title>
<path fill="none" stroke="#770000" stroke-width="2" stroke-opacity="0.466667" d="M228.54,-333.43C232.35,-333.43 235,-333.43 235,-333.43 235,-333.43 235,-507 235,-507 235,-507 266.6,-507 266.6,-507"/>
<polygon fill="#770000" fill-opacity="0.466667" stroke="#770000" stroke-width="2" stroke-opacity="0.466667" points="266.6,-509.1 272.6,-507 266.6,-504.9 266.6,-509.1"/>
</g>
<!-- src/report/dot&#45;&gt;src/graph&#45;utl/strip&#45;self&#45;transitions.js -->
<g id="edge15" class="edge">
<title>src/report/dot&#45;&gt;src/graph&#45;utl/strip&#45;self&#45;transitions.js</title>
<path fill="none" stroke="#770000" stroke-width="2" stroke-opacity="0.466667" d="M228.95,-328.29C236.67,-328.29 243,-328.29 243,-328.29 243,-328.29 243,-447 243,-447 243,-447 245.81,-447 245.81,-447"/>
<polygon fill="#770000" fill-opacity="0.466667" stroke="#770000" stroke-width="2" stroke-opacity="0.466667" points="245.81,-449.1 251.81,-447 245.81,-444.9 245.81,-449.1"/>
</g>
<!-- src/report/dot&#45;&gt;src/report/utl -->
<g id="edge12" class="edge">
<title>src/report/dot&#45;&gt;src/report/utl</title>
<path fill="none" stroke="#ff00ff" stroke-width="2" stroke-opacity="0.466667" d="M228.58,-320.57C256.5,-320.57 296,-320.57 296,-320.57 296,-320.57 296,-203.11 296,-203.11"/>
<polygon fill="#ff00ff" fill-opacity="0.466667" stroke="#ff00ff" stroke-width="2" stroke-opacity="0.466667" points="298.1,-203.11 296,-197.11 293.9,-203.11 298.1,-203.11"/>
</g>
<!-- src/report/error&#45;html -->
<g id="node16" class="node">
<title>src/report/error&#45;html</title>
<g id="a_node16"><a xlink:href="https://github.com/sverweij/dependency-cruiser/blob/develop/src/report/error-html" xlink:title="error&#45;html">
<polygon fill="#ffccff" stroke="black" points="229.5,-212 175.5,-212 173.5,-210 173.5,-194 227.5,-194 229.5,-196 229.5,-212"/>
<polyline fill="none" stroke="black" points="227.5,-210 173.5,-210 "/>
<polyline fill="none" stroke="black" points="227.5,-210 227.5,-194 "/>
<polyline fill="none" stroke="black" points="227.5,-210 229.5,-212 "/>
<text text-anchor="start" x="181.5" y="-200.8" font-family="Helvetica,sans-Serif" font-size="9.00">error&#45;html</text>
</a>
</g>
</g>
<!-- src/report/error&#45;html&#45;&gt;src/report/utl -->
<g id="edge17" class="edge">
<title>src/report/error&#45;html&#45;&gt;src/report/utl</title>
<path fill="none" stroke="#ff00ff" stroke-width="2" stroke-opacity="0.466667" d="M202,-193.83C202,-191.68 202,-190 202,-190 202,-190 271.3,-190 271.3,-190"/>
<polygon fill="#ff00ff" fill-opacity="0.466667" stroke="#ff00ff" stroke-width="2" stroke-opacity="0.466667" points="271.3,-192.1 277.3,-190 271.3,-187.9 271.3,-192.1"/>
</g>
<!-- src/report/error&#45;long.js -->
<g id="node17" class="node">
<title>src/report/error&#45;long.js</title>
<g id="a_node17"><a xlink:href="https://github.com/sverweij/dependency-cruiser/blob/develop/src/report/error-long.js" xlink:title="error&#45;long.js">
<path fill="#ffccff" stroke="black" d="M152,-262C152,-262 98,-262 98,-262 95,-262 92,-259 92,-256 92,-256 92,-250 92,-250 92,-247 95,-244 98,-244 98,-244 152,-244 152,-244 155,-244 158,-247 158,-250 158,-250 158,-256 158,-256 158,-259 155,-262 152,-262"/>
<text text-anchor="start" x="100" y="-250.8" font-family="Helvetica,sans-Serif" font-size="9.00">error&#45;long.js</text>
</a>
</g>
</g>
<!-- src/report/error.js -->
<g id="node18" class="node">
<title>src/report/error.js</title>
<g id="a_node18"><a xlink:href="https://github.com/sverweij/dependency-cruiser/blob/develop/src/report/error.js" xlink:title="error.js">
<path fill="#ffccff" stroke="black" d="M222.5,-366C222.5,-366 180.5,-366 180.5,-366 177.5,-366 174.5,-363 174.5,-360 174.5,-360 174.5,-354 174.5,-354 174.5,-351 177.5,-348 180.5,-348 180.5,-348 222.5,-348 222.5,-348 225.5,-348 228.5,-351 228.5,-354 228.5,-354 228.5,-360 228.5,-360 228.5,-363 225.5,-366 222.5,-366"/>
<text text-anchor="start" x="187" y="-354.8" font-family="Helvetica,sans-Serif" font-size="9.00">error.js</text>
</a>
</g>
</g>
<!-- src/report/error&#45;long.js&#45;&gt;src/report/error.js -->
<g id="edge18" class="edge">
<title>src/report/error&#45;long.js&#45;&gt;src/report/error.js</title>
<path fill="none" stroke="#ff00ff" stroke-width="2" stroke-opacity="0.466667" d="M158.09,-253C162.76,-253 166,-253 166,-253 166,-253 166,-357 166,-357 166,-357 168.23,-357 168.23,-357"/>
<polygon fill="#ff00ff" fill-opacity="0.466667" stroke="#ff00ff" stroke-width="2" stroke-opacity="0.466667" points="168.23,-359.1 174.23,-357 168.23,-354.9 168.23,-359.1"/>
</g>
<!-- src/report/error.js&#45;&gt;src/graph&#45;utl/rule&#45;set.js -->
<g id="edge19" class="edge">
<title>src/report/error.js&#45;&gt;src/graph&#45;utl/rule&#45;set.js</title>
<path fill="none" stroke="#770000" stroke-width="2" stroke-opacity="0.466667" d="M211,-366.17C211,-402.85 211,-537 211,-537 211,-537 270.45,-537 270.45,-537"/>
<polygon fill="#770000" fill-opacity="0.466667" stroke="#770000" stroke-width="2" stroke-opacity="0.466667" points="270.45,-539.1 276.45,-537 270.45,-534.9 270.45,-539.1"/>
</g>
<!-- src/report/error.js&#45;&gt;src/report/utl -->
<g id="edge21" class="edge">
<title>src/report/error.js&#45;&gt;src/report/utl</title>
<path fill="none" stroke="#ff00ff" stroke-width="2" stroke-opacity="0.466667" d="M228.73,-357C262.03,-357 314,-357 314,-357 314,-357 314,-203.09 314,-203.09"/>
<polygon fill="#ff00ff" fill-opacity="0.466667" stroke="#ff00ff" stroke-width="2" stroke-opacity="0.466667" points="316.1,-203.09 314,-197.09 311.9,-203.09 316.1,-203.09"/>
</g>
<!-- src/utl/wrap&#45;and&#45;indent.js -->
<g id="node19" class="node">
<title>src/utl/wrap&#45;and&#45;indent.js</title>
<g id="a_node19"><a xlink:href="https://github.com/sverweij/dependency-cruiser/blob/develop/src/utl/wrap-and-indent.js" xlink:title="utl&#45;module&#45;not&#45;shared&#45;enough">
<path fill="#cccccc" stroke="blue" d="M345,-606C345,-606 264,-606 264,-606 261,-606 258,-603 258,-600 258,-600 258,-594 258,-594 258,-591 261,-588 264,-588 264,-588 345,-588 345,-588 348,-588 351,-591 351,-594 351,-594 351,-600 351,-600 351,-603 348,-606 345,-606"/>
<text text-anchor="start" x="266" y="-594.8" font-family="Helvetica,sans-Serif" font-size="9.00" fill="blue">wrap&#45;and&#45;indent.js</text>
</a>
</g>
</g>
<!-- src/report/error.js&#45;&gt;src/utl/wrap&#45;and&#45;indent.js -->
<g id="edge20" class="edge">
<title>src/report/error.js&#45;&gt;src/utl/wrap&#45;and&#45;indent.js</title>
<path fill="none" stroke="#aaaaaa" stroke-width="2" stroke-opacity="0.466667" d="M193,-366.12C193,-409.95 193,-597 193,-597 193,-597 251.86,-597 251.86,-597"/>
<polygon fill="#aaaaaa" fill-opacity="0.466667" stroke="#aaaaaa" stroke-width="2" stroke-opacity="0.466667" points="251.86,-599.1 257.86,-597 251.86,-594.9 251.86,-599.1"/>
</g>
<!-- src/report/html -->
<g id="node20" class="node">
<title>src/report/html</title>
<g id="a_node20"><a xlink:href="https://github.com/sverweij/dependency-cruiser/blob/develop/src/report/html" xlink:title="html">
<polygon fill="#ffccff" stroke="black" points="228.5,-138 176.5,-138 174.5,-136 174.5,-120 226.5,-120 228.5,-122 228.5,-138"/>
<polyline fill="none" stroke="black" points="226.5,-136 174.5,-136 "/>
<polyline fill="none" stroke="black" points="226.5,-136 226.5,-120 "/>
<polyline fill="none" stroke="black" points="226.5,-136 228.5,-138 "/>
<text text-anchor="start" x="192.5" y="-126.8" font-family="Helvetica,sans-Serif" font-size="9.00">html</text>
</a>
</g>
</g>
<!-- src/report/html&#45;&gt;src/report/utl -->
<g id="edge22" class="edge">
<title>src/report/html&#45;&gt;src/report/utl</title>
<path fill="none" stroke="#ff00ff" stroke-width="2" stroke-opacity="0.466667" d="M228.84,-129C255.16,-129 291,-129 291,-129 291,-129 291,-172.78 291,-172.78"/>
<polygon fill="#ff00ff" fill-opacity="0.466667" stroke="#ff00ff" stroke-width="2" stroke-opacity="0.466667" points="288.9,-172.78 291,-178.78 293.1,-172.78 288.9,-172.78"/>
</g>
<!-- src/report/identity.js -->
<g id="node21" class="node">
<title>src/report/identity.js</title>
<g id="a_node21"><a xlink:href="https://github.com/sverweij/dependency-cruiser/blob/develop/src/report/identity.js" xlink:title="identity.js">
<path fill="#ffccff" stroke="black" d="M146.5,-130C146.5,-130 103.5,-130 103.5,-130 100.5,-130 97.5,-127 97.5,-124 97.5,-124 97.5,-118 97.5,-118 97.5,-115 100.5,-112 103.5,-112 103.5,-112 146.5,-112 146.5,-112 149.5,-112 152.5,-115 152.5,-118 152.5,-118 152.5,-124 152.5,-124 152.5,-127 149.5,-130 146.5,-130"/>
<text text-anchor="start" x="105.5" y="-118.8" font-family="Helvetica,sans-Serif" font-size="9.00">identity.js</text>
</a>
</g>
</g>
<!-- src/report/index.js -->
<g id="node22" class="node">
<title>src/report/index.js</title>
<g id="a_node22"><a xlink:href="https://github.com/sverweij/dependency-cruiser/blob/develop/src/report/index.js" xlink:title="index.js">
<path fill="#ffccff" stroke="black" d="M72,-204C72,-204 30,-204 30,-204 27,-204 24,-201 24,-198 24,-198 24,-192 24,-192 24,-189 27,-186 30,-186 30,-186 72,-186 72,-186 75,-186 78,-189 78,-192 78,-192 78,-198 78,-198 78,-201 75,-204 72,-204"/>
<text text-anchor="start" x="35" y="-192.8" font-family="Helvetica,sans-Serif" font-size="9.00">index.js</text>
</a>
</g>
</g>
<!-- src/report/index.js&#45;&gt;src/report/anon -->
<g id="edge23" class="edge">
<title>src/report/index.js&#45;&gt;src/report/anon</title>
<path fill="none" stroke="#ff00ff" stroke-width="2" stroke-opacity="0.466667" d="M31,-185.83C31,-151.56 31,-33 31,-33 31,-33 91.81,-33 91.81,-33"/>
<polygon fill="#ff00ff" fill-opacity="0.466667" stroke="#ff00ff" stroke-width="2" stroke-opacity="0.466667" points="91.81,-35.1 97.81,-33 91.81,-30.9 91.81,-35.1"/>
</g>
<!-- src/report/index.js&#45;&gt;src/report/baseline.js -->
<g id="edge24" class="edge">
<title>src/report/index.js&#45;&gt;src/report/baseline.js</title>
<path fill="none" stroke="#ff00ff" stroke-width="2" stroke-opacity="0.466667" d="M38,-185.93C38,-156.1 38,-63 38,-63 38,-63 88.08,-63 88.08,-63"/>
<polygon fill="#ff00ff" fill-opacity="0.466667" stroke="#ff00ff" stroke-width="2" stroke-opacity="0.466667" points="88.08,-65.1 94.08,-63 88.08,-60.9 88.08,-65.1"/>
</g>
<!-- src/report/index.js&#45;&gt;src/report/csv.js -->
<g id="edge25" class="edge">
<title>src/report/index.js&#45;&gt;src/report/csv.js</title>
<path fill="none" stroke="#ff00ff" stroke-width="2" stroke-opacity="0.466667" d="M45,-185.86C45,-160.65 45,-92 45,-92 45,-92 168.24,-92 168.24,-92"/>
<polygon fill="#ff00ff" fill-opacity="0.466667" stroke="#ff00ff" stroke-width="2" stroke-opacity="0.466667" points="168.24,-94.1 174.24,-92 168.24,-89.9 168.24,-94.1"/>
</g>
<!-- src/report/index.js&#45;&gt;src/report/dot -->
<g id="edge26" class="edge">
<title>src/report/index.js&#45;&gt;src/report/dot</title>
<path fill="none" stroke="#ff00ff" stroke-width="2" stroke-opacity="0.466667" d="M48,-204.21C48,-234.48 48,-329 48,-329 48,-329 168.41,-329 168.41,-329"/>
<polygon fill="#ff00ff" fill-opacity="0.466667" stroke="#ff00ff" stroke-width="2" stroke-opacity="0.466667" points="168.41,-331.1 174.41,-329 168.41,-326.9 168.41,-331.1"/>
</g>
<!-- src/report/index.js&#45;&gt;src/report/error&#45;html -->
<g id="edge28" class="edge">
<title>src/report/index.js&#45;&gt;src/report/error&#45;html</title>
<path fill="none" stroke="#ff00ff" stroke-width="2" stroke-opacity="0.466667" d="M78.12,-198C82.16,-198 85,-198 85,-198 85,-198 85,-208 85,-208 85,-208 167.3,-208 167.3,-208"/>
<polygon fill="#ff00ff" fill-opacity="0.466667" stroke="#ff00ff" stroke-width="2" stroke-opacity="0.466667" points="167.3,-210.1 173.3,-208 167.3,-205.9 167.3,-210.1"/>
</g>
<!-- src/report/index.js&#45;&gt;src/report/error&#45;long.js -->
<g id="edge29" class="edge">
<title>src/report/index.js&#45;&gt;src/report/error&#45;long.js</title>
<path fill="none" stroke="#ff00ff" stroke-width="2" stroke-opacity="0.466667" d="M71,-204.06C71,-220.38 71,-253 71,-253 71,-253 85.72,-253 85.72,-253"/>
<polygon fill="#ff00ff" fill-opacity="0.466667" stroke="#ff00ff" stroke-width="2" stroke-opacity="0.466667" points="85.72,-255.1 91.72,-253 85.72,-250.9 85.72,-255.1"/>
</g>
<!-- src/report/index.js&#45;&gt;src/report/error.js -->
<g id="edge27" class="edge">
<title>src/report/index.js&#45;&gt;src/report/error.js</title>
<path fill="none" stroke="#ff00ff" stroke-width="2" stroke-opacity="0.466667" d="M40,-204.2C40,-236.38 40,-342 40,-342 40,-342 202,-342 202,-342 202,-342 202,-342.58 202,-342.58"/>
<polygon fill="#ff00ff" fill-opacity="0.466667" stroke="#ff00ff" stroke-width="2" stroke-opacity="0.466667" points="199.9,-341.76 202,-347.76 204.1,-341.76 199.9,-341.76"/>
</g>
<!-- src/report/index.js&#45;&gt;src/report/html -->
<g id="edge30" class="edge">
<title>src/report/index.js&#45;&gt;src/report/html</title>
<path fill="none" stroke="#ff00ff" stroke-width="2" stroke-opacity="0.466667" d="M58,-186C58,-169.03 58,-134 58,-134 58,-134 168.17,-134 168.17,-134"/>
<polygon fill="#ff00ff" fill-opacity="0.466667" stroke="#ff00ff" stroke-width="2" stroke-opacity="0.466667" points="168.17,-136.1 174.17,-134 168.17,-131.9 168.17,-136.1"/>
</g>
<!-- src/report/index.js&#45;&gt;src/report/identity.js -->
<g id="edge31" class="edge">
<title>src/report/index.js&#45;&gt;src/report/identity.js</title>
<path fill="none" stroke="#ff00ff" stroke-width="2" stroke-opacity="0.466667" d="M51,-185.93C51,-166.17 51,-121 51,-121 51,-121 91.45,-121 91.45,-121"/>
<polygon fill="#ff00ff" fill-opacity="0.466667" stroke="#ff00ff" stroke-width="2" stroke-opacity="0.466667" points="91.45,-123.1 97.45,-121 91.45,-118.9 91.45,-123.1"/>
</g>
<!-- src/report/json.js -->
<g id="node23" class="node">
<title>src/report/json.js</title>
<g id="a_node23"><a xlink:href="https://github.com/sverweij/dependency-cruiser/blob/develop/src/report/json.js" xlink:title="json.js">
<path fill="#ffccff" stroke="black" d="M146,-160C146,-160 104,-160 104,-160 101,-160 98,-157 98,-154 98,-154 98,-148 98,-148 98,-145 101,-142 104,-142 104,-142 146,-142 146,-142 149,-142 152,-145 152,-148 152,-148 152,-154 152,-154 152,-157 149,-160 146,-160"/>
<text text-anchor="start" x="111.5" y="-148.8" font-family="Helvetica,sans-Serif" font-size="9.00">json.js</text>
</a>
</g>
</g>
<!-- src/report/index.js&#45;&gt;src/report/json.js -->
<g id="edge32" class="edge">
<title>src/report/index.js&#45;&gt;src/report/json.js</title>
<path fill="none" stroke="#ff00ff" stroke-width="2" stroke-opacity="0.466667" d="M65,-185.67C65,-172.75 65,-151 65,-151 65,-151 91.81,-151 91.81,-151"/>
<polygon fill="#ff00ff" fill-opacity="0.466667" stroke="#ff00ff" stroke-width="2" stroke-opacity="0.466667" points="91.81,-153.1 97.81,-151 91.81,-148.9 91.81,-153.1"/>
</g>
<!-- src/report/markdown.js -->
<g id="node24" class="node">
<title>src/report/markdown.js</title>
<g id="a_node24"><a xlink:href="https://github.com/sverweij/dependency-cruiser/blob/develop/src/report/markdown.js" xlink:title="markdown.js">
<path fill="#ffccff" stroke="black" d="M153,-204C153,-204 97,-204 97,-204 94,-204 91,-201 91,-198 91,-198 91,-192 91,-192 91,-189 94,-186 97,-186 97,-186 153,-186 153,-186 156,-186 159,-189 159,-192 159,-192 159,-198 159,-198 159,-201 156,-204 153,-204"/>
<text text-anchor="start" x="99" y="-192.8" font-family="Helvetica,sans-Serif" font-size="9.00">markdown.js</text>
</a>
</g>
</g>
<!-- src/report/index.js&#45;&gt;src/report/markdown.js -->
<g id="edge33" class="edge">
<title>src/report/index.js&#45;&gt;src/report/markdown.js</title>
<path fill="none" stroke="#ff00ff" stroke-width="2" stroke-opacity="0.466667" d="M78.13,-192C78.13,-192 84.81,-192 84.81,-192"/>
<polygon fill="#ff00ff" fill-opacity="0.466667" stroke="#ff00ff" stroke-width="2" stroke-opacity="0.466667" points="84.81,-194.1 90.81,-192 84.81,-189.9 84.81,-194.1"/>
</g>
<!-- src/report/metrics.js -->
<g id="node25" class="node">
<title>src/report/metrics.js</title>
<g id="a_node25"><a xlink:href="https://github.com/sverweij/dependency-cruiser/blob/develop/src/report/metrics.js" xlink:title="metrics.js">
<path fill="#ffccff" stroke="black" d="M146.5,-292C146.5,-292 103.5,-292 103.5,-292 100.5,-292 97.5,-289 97.5,-286 97.5,-286 97.5,-280 97.5,-280 97.5,-277 100.5,-274 103.5,-274 103.5,-274 146.5,-274 146.5,-274 149.5,-274 152.5,-277 152.5,-280 152.5,-280 152.5,-286 152.5,-286 152.5,-289 149.5,-292 146.5,-292"/>
<text text-anchor="start" x="105.5" y="-280.8" font-family="Helvetica,sans-Serif" font-size="9.00">metrics.js</text>
</a>
</g>
</g>
<!-- src/report/index.js&#45;&gt;src/report/metrics.js -->
<g id="edge34" class="edge">
<title>src/report/index.js&#45;&gt;src/report/metrics.js</title>
<path fill="none" stroke="#ff00ff" stroke-width="2" stroke-opacity="0.466667" d="M63,-204.09C63,-226.57 63,-283 63,-283 63,-283 91.26,-283 91.26,-283"/>
<polygon fill="#ff00ff" fill-opacity="0.466667" stroke="#ff00ff" stroke-width="2" stroke-opacity="0.466667" points="91.26,-285.1 97.26,-283 91.26,-280.9 91.26,-285.1"/>
</g>
<!-- src/report/plugins -->
<g id="node26" class="node">
<title>src/report/plugins</title>
<g id="a_node26"><a xlink:href="https://github.com/sverweij/dependency-cruiser/blob/develop/src/report/plugins" xlink:title="plugins">
<polygon fill="#ffccff" stroke="black" points="152,-322 100,-322 98,-320 98,-304 150,-304 152,-306 152,-322"/>
<polyline fill="none" stroke="black" points="150,-320 98,-320 "/>
<polyline fill="none" stroke="black" points="150,-320 150,-304 "/>
<polyline fill="none" stroke="black" points="150,-320 152,-322 "/>
<text text-anchor="start" x="109.5" y="-310.8" font-family="Helvetica,sans-Serif" font-size="9.00">plugins</text>
</a>
</g>
</g>
<!-- src/report/index.js&#45;&gt;src/report/plugins -->
<g id="edge35" class="edge">
<title>src/report/index.js&#45;&gt;src/report/plugins</title>
<path fill="none" stroke="#ff00ff" stroke-width="2" stroke-opacity="0.466667" d="M55,-204.26C55,-232.08 55,-313 55,-313 55,-313 91.74,-313 91.74,-313"/>
<polygon fill="#ff00ff" fill-opacity="0.466667" stroke="#ff00ff" stroke-width="2" stroke-opacity="0.466667" points="91.74,-315.1 97.74,-313 91.74,-310.9 91.74,-315.1"/>
</g>
<!-- src/report/teamcity.js -->
<g id="node27" class="node">
<title>src/report/teamcity.js</title>
<g id="a_node27"><a xlink:href="https://github.com/sverweij/dependency-cruiser/blob/develop/src/report/teamcity.js" xlink:title="teamcity.js">
<path fill="#ffccff" stroke="black" d="M225,-182C225,-182 178,-182 178,-182 175,-182 172,-179 172,-176 172,-176 172,-170 172,-170 172,-167 175,-164 178,-164 178,-164 225,-164 225,-164 228,-164 231,-167 231,-170 231,-170 231,-176 231,-176 231,-179 228,-182 225,-182"/>
<text text-anchor="start" x="180" y="-170.8" font-family="Helvetica,sans-Serif" font-size="9.00">teamcity.js</text>
</a>
</g>
</g>
<!-- src/report/index.js&#45;&gt;src/report/teamcity.js -->
<g id="edge36" class="edge">
<title>src/report/index.js&#45;&gt;src/report/teamcity.js</title>
<path fill="none" stroke="#ff00ff" stroke-width="2" stroke-opacity="0.466667" d="M72,-185.8C72,-179.77 72,-173 72,-173 72,-173 165.79,-173 165.79,-173"/>
<polygon fill="#ff00ff" fill-opacity="0.466667" stroke="#ff00ff" stroke-width="2" stroke-opacity="0.466667" points="165.79,-175.1 171.79,-173 165.79,-170.9 165.79,-175.1"/>
</g>
<!-- src/report/text.js -->
<g id="node28" class="node">
<title>src/report/text.js</title>
<g id="a_node28"><a xlink:href="https://github.com/sverweij/dependency-cruiser/blob/develop/src/report/text.js" xlink:title="text.js">
<path fill="#ffccff" stroke="black" d="M146,-366C146,-366 104,-366 104,-366 101,-366 98,-363 98,-360 98,-360 98,-354 98,-354 98,-351 101,-348 104,-348 104,-348 146,-348 146,-348 149,-348 152,-351 152,-354 152,-354 152,-360 152,-360 152,-363 149,-366 146,-366"/>
<text text-anchor="start" x="113" y="-354.8" font-family="Helvetica,sans-Serif" font-size="9.00">text.js</text>
</a>
</g>
</g>
<!-- src/report/index.js&#45;&gt;src/report/text.js -->
<g id="edge37" class="edge">
<title>src/report/index.js&#45;&gt;src/report/text.js</title>
<path fill="none" stroke="#ff00ff" stroke-width="2" stroke-opacity="0.466667" d="M32,-204.17C32,-238.44 32,-357 32,-357 32,-357 91.6,-357 91.6,-357"/>
<polygon fill="#ff00ff" fill-opacity="0.466667" stroke="#ff00ff" stroke-width="2" stroke-opacity="0.466667" points="91.6,-359.1 97.6,-357 91.6,-354.9 91.6,-359.1"/>
</g>
<!-- src/report/markdown.js&#45;&gt;src/report/error&#45;html -->
<g id="edge38" class="edge">
<title>src/report/markdown.js&#45;&gt;src/report/error&#45;html</title>
<path fill="none" stroke="#ff00ff" stroke-width="2" stroke-opacity="0.466667" d="M159.22,-199C159.22,-199 167.5,-199 167.5,-199"/>
<polygon fill="#ff00ff" fill-opacity="0.466667" stroke="#ff00ff" stroke-width="2" stroke-opacity="0.466667" points="167.5,-201.1 173.5,-199 167.5,-196.9 167.5,-201.1"/>
</g>
<!-- src/report/teamcity.js&#45;&gt;src/report/utl -->
<g id="edge39" class="edge">
<title>src/report/teamcity.js&#45;&gt;src/report/utl</title>
<path fill="none" stroke="#ff00ff" stroke-width="2" stroke-opacity="0.466667" d="M231.2,-171.5C265.72,-171.5 318,-171.5 318,-171.5 318,-171.5 318,-172.98 318,-172.98"/>
<polygon fill="#ff00ff" fill-opacity="0.466667" stroke="#ff00ff" stroke-width="2" stroke-opacity="0.466667" points="315.9,-172.98 318,-178.98 320.1,-172.98 315.9,-172.98"/>
</g>
</g>
</svg>
