<?xml version="1.0" encoding="UTF-8" standalone="no"?>
<!DOCTYPE svg PUBLIC "-//W3C//DTD SVG 1.1//EN"
 "http://www.w3.org/Graphics/SVG/1.1/DTD/svg11.dtd">
<!-- Generated by graphviz version 8.0.1 (20230327.1645)
 -->
<!-- Title: dependency&#45;cruiser output Pages: 1 -->
<svg width="679pt" height="620pt"
 viewBox="0.00 0.00 679.00 620.00" xmlns="http://www.w3.org/2000/svg" xmlns:xlink="http://www.w3.org/1999/xlink">
<g id="graph0" class="graph" transform="scale(1 1) rotate(0) translate(4 616)">
<title>dependency&#45;cruiser output</title>
<polygon fill="white" stroke="none" points="-4,4 -4,-616 675,-616 675,4 -4,4"/>
<g id="clust1" class="cluster">
<title>cluster_src</title>
<path fill="#ffffff" stroke="black" stroke-width="2" d="M20,-8C20,-8 651,-8 651,-8 657,-8 663,-14 663,-20 663,-20 663,-592 663,-592 663,-598 657,-604 651,-604 651,-604 20,-604 20,-604 14,-604 8,-598 8,-592 8,-592 8,-20 8,-20 8,-14 14,-8 20,-8"/>
<text text-anchor="middle" x="335.5" y="-592.8" font-family="Helvetica,sans-Serif" font-weight="bold" font-size="9.00">src</text>
</g>
<g id="clust4" class="cluster">
<title>cluster_src/utl</title>
<path fill="#ffffff" stroke="black" stroke-width="2" d="M210.5,-526C210.5,-526 303.5,-526 303.5,-526 309.5,-526 315.5,-532 315.5,-538 315.5,-538 315.5,-566 315.5,-566 315.5,-572 309.5,-578 303.5,-578 303.5,-578 210.5,-578 210.5,-578 204.5,-578 198.5,-572 198.5,-566 198.5,-566 198.5,-538 198.5,-538 198.5,-532 204.5,-526 210.5,-526"/>
<text text-anchor="start" x="251.5" y="-566.8" font-family="Helvetica,sans-Serif" font-weight="bold" font-size="9.00">utl</text>
</g>
<g id="clust2" class="cluster">
<title>cluster_src/graph&#45;utl</title>
<path fill="#ffffff" stroke="black" stroke-width="2" d="M200,-346C200,-346 643,-346 643,-346 649,-346 655,-352 655,-358 655,-358 655,-506 655,-506 655,-512 649,-518 643,-518 643,-518 200,-518 200,-518 194,-518 188,-512 188,-506 188,-506 188,-358 188,-358 188,-352 194,-346 200,-346"/>
<text text-anchor="middle" x="421.5" y="-506.8" font-family="Helvetica,sans-Serif" font-weight="bold" font-size="9.00">graph&#45;utl</text>
</g>
<g id="clust3" class="cluster">
<title>cluster_src/report</title>
<path fill="#ffffff" stroke="black" stroke-width="2" d="M28,-16C28,-16 280,-16 280,-16 286,-16 292,-22 292,-28 292,-28 292,-326 292,-326 292,-332 286,-338 280,-338 280,-338 28,-338 28,-338 22,-338 16,-332 16,-326 16,-326 16,-28 16,-28 16,-22 22,-16 28,-16"/>
<text text-anchor="middle" x="154" y="-326.8" font-family="Helvetica,sans-Serif" font-weight="bold" font-size="9.00">report</text>
</g>
<!-- src/graph&#45;utl/add&#45;focus.mjs -->
<g id="node1" class="node">
<title>src/graph&#45;utl/add&#45;focus.mjs</title>
<g id="a_node1"><a xlink:href="https://github.com/sverweij/dependency-cruiser/blob/develop/src/graph-utl/add-focus.mjs" xlink:title="add&#45;focus.mjs">
<path fill="#ffcccc" stroke="black" d="M450,-462C450,-462 388,-462 388,-462 385,-462 382,-459 382,-456 382,-456 382,-450 382,-450 382,-447 385,-444 388,-444 388,-444 450,-444 450,-444 453,-444 456,-447 456,-450 456,-450 456,-456 456,-456 456,-459 453,-462 450,-462"/>
<text text-anchor="start" x="390" y="-450.8" font-family="Helvetica,sans-Serif" font-size="9.00">add&#45;focus.mjs</text>
</a>
</g>
</g>
<!-- src/graph&#45;utl/indexed&#45;module&#45;graph.mjs -->
<g id="node2" class="node">
<title>src/graph&#45;utl/indexed&#45;module&#45;graph.mjs</title>
<g id="a_node2"><a xlink:href="https://github.com/sverweij/dependency-cruiser/blob/develop/src/graph-utl/indexed-module-graph.mjs" xlink:title="indexed&#45;module&#45;graph.mjs">
<path fill="#ffcccc" stroke="black" d="M641,-480C641,-480 526,-480 526,-480 523,-480 520,-477 520,-474 520,-474 520,-468 520,-468 520,-465 523,-462 526,-462 526,-462 641,-462 641,-462 644,-462 647,-465 647,-468 647,-468 647,-474 647,-474 647,-477 644,-480 641,-480"/>
<text text-anchor="start" x="528" y="-468.8" font-family="Helvetica,sans-Serif" font-size="9.00">indexed&#45;module&#45;graph.mjs</text>
</a>
</g>
</g>
<!-- src/graph&#45;utl/add&#45;focus.mjs&#45;&gt;src/graph&#45;utl/indexed&#45;module&#45;graph.mjs -->
<g id="edge1" class="edge">
<title>src/graph&#45;utl/add&#45;focus.mjs&#45;&gt;src/graph&#45;utl/indexed&#45;module&#45;graph.mjs</title>
<path fill="none" stroke="#770000" stroke-width="2" stroke-opacity="0.466667" d="M456.27,-453C488.52,-453 530,-453 530,-453 530,-453 530,-453.86 530,-453.86"/>
<polygon fill="#770000" fill-opacity="0.466667" stroke="#770000" stroke-width="2" stroke-opacity="0.466667" points="527.9,-452.58 530,-458.58 532.1,-452.58 527.9,-452.58"/>
</g>
<!-- src/graph&#45;utl/match&#45;facade.mjs -->
<g id="node3" class="node">
<title>src/graph&#45;utl/match&#45;facade.mjs</title>
<g id="a_node3"><a xlink:href="https://github.com/sverweij/dependency-cruiser/blob/develop/src/graph-utl/match-facade.mjs" xlink:title="match&#45;facade.mjs">
<path fill="#ffcccc" stroke="black" d="M622,-443C622,-443 545,-443 545,-443 542,-443 539,-440 539,-437 539,-437 539,-431 539,-431 539,-428 542,-425 545,-425 545,-425 622,-425 622,-425 625,-425 628,-428 628,-431 628,-431 628,-437 628,-437 628,-440 625,-443 622,-443"/>
<text text-anchor="start" x="547" y="-431.8" font-family="Helvetica,sans-Serif" font-size="9.00">match&#45;facade.mjs</text>
</a>
</g>
</g>
<!-- src/graph&#45;utl/add&#45;focus.mjs&#45;&gt;src/graph&#45;utl/match&#45;facade.mjs -->
<g id="edge2" class="edge">
<title>src/graph&#45;utl/add&#45;focus.mjs&#45;&gt;src/graph&#45;utl/match&#45;facade.mjs</title>
<path fill="none" stroke="#770000" stroke-width="2" stroke-opacity="0.466667" d="M419,-443.66C419,-441.26 419,-439.33 419,-439.33 419,-439.33 529.55,-439.33 529.55,-439.33"/>
<polygon fill="#770000" fill-opacity="0.466667" stroke="#770000" stroke-width="2" stroke-opacity="0.466667" points="529.55,-441.43 535.55,-439.33 529.55,-437.23 529.55,-441.43"/>
</g>
<!-- src/graph&#45;utl/compare.mjs -->
<g id="node4" class="node">
<title>src/graph&#45;utl/compare.mjs</title>
<g id="a_node4"><a xlink:href="https://github.com/sverweij/dependency-cruiser/blob/develop/src/graph-utl/compare.mjs" xlink:title="compare.mjs">
<path fill="#ffcccc" stroke="black" d="M612,-372C612,-372 555,-372 555,-372 552,-372 549,-369 549,-366 549,-366 549,-360 549,-360 549,-357 552,-354 555,-354 555,-354 612,-354 612,-354 615,-354 618,-357 618,-360 618,-360 618,-366 618,-366 618,-369 615,-372 612,-372"/>
<text text-anchor="start" x="557" y="-360.8" font-family="Helvetica,sans-Serif" font-size="9.00">compare.mjs</text>
</a>
</g>
</g>
<!-- src/graph&#45;utl/consolidate&#45;module&#45;dependencies.mjs -->
<g id="node5" class="node">
<title>src/graph&#45;utl/consolidate&#45;module&#45;dependencies.mjs</title>
<g id="a_node5"><a xlink:href="https://github.com/sverweij/dependency-cruiser/blob/develop/src/graph-utl/consolidate-module-dependencies.mjs" xlink:title="consolidate&#45;module&#45;dependencies.mjs">
<path fill="#ffcccc" stroke="black" d="M501,-372C501,-372 337,-372 337,-372 334,-372 331,-369 331,-366 331,-366 331,-360 331,-360 331,-357 334,-354 337,-354 337,-354 501,-354 501,-354 504,-354 507,-357 507,-360 507,-360 507,-366 507,-366 507,-369 504,-372 501,-372"/>
<text text-anchor="start" x="339" y="-360.8" font-family="Helvetica,sans-Serif" font-size="9.00">consolidate&#45;module&#45;dependencies.mjs</text>
</a>
</g>
</g>
<!-- src/graph&#45;utl/consolidate&#45;module&#45;dependencies.mjs&#45;&gt;src/graph&#45;utl/compare.mjs -->
<g id="edge3" class="edge">
<title>src/graph&#45;utl/consolidate&#45;module&#45;dependencies.mjs&#45;&gt;src/graph&#45;utl/compare.mjs</title>
<path fill="none" stroke="#770000" stroke-width="2" stroke-opacity="0.466667" d="M507.03,-363C507.03,-363 539.8,-363 539.8,-363"/>
<polygon fill="#770000" fill-opacity="0.466667" stroke="#770000" stroke-width="2" stroke-opacity="0.466667" points="539.8,-365.1 545.8,-363 539.8,-360.9 539.8,-365.1"/>
</g>
<!-- src/graph&#45;utl/consolidate&#45;modules.mjs -->
<g id="node6" class="node">
<title>src/graph&#45;utl/consolidate&#45;modules.mjs</title>
<g id="a_node6"><a xlink:href="https://github.com/sverweij/dependency-cruiser/blob/develop/src/graph-utl/consolidate-modules.mjs" xlink:title="consolidate&#45;modules.mjs">
<path fill="#ffcccc" stroke="black" d="M472.5,-402C472.5,-402 365.5,-402 365.5,-402 362.5,-402 359.5,-399 359.5,-396 359.5,-396 359.5,-390 359.5,-390 359.5,-387 362.5,-384 365.5,-384 365.5,-384 472.5,-384 472.5,-384 475.5,-384 478.5,-387 478.5,-390 478.5,-390 478.5,-396 478.5,-396 478.5,-399 475.5,-402 472.5,-402"/>
<text text-anchor="start" x="367.5" y="-390.8" font-family="Helvetica,sans-Serif" font-size="9.00">consolidate&#45;modules.mjs</text>
</a>
</g>
</g>
<!-- src/graph&#45;utl/consolidate&#45;modules.mjs&#45;&gt;src/graph&#45;utl/compare.mjs -->
<g id="edge4" class="edge">
<title>src/graph&#45;utl/consolidate&#45;modules.mjs&#45;&gt;src/graph&#45;utl/compare.mjs</title>
<path fill="none" stroke="#770000" stroke-width="2" stroke-opacity="0.466667" d="M478.57,-393C525.83,-393 584,-393 584,-393 584,-393 584,-381.49 584,-381.49"/>
<polygon fill="#770000" fill-opacity="0.466667" stroke="#770000" stroke-width="2" stroke-opacity="0.466667" points="586.1,-381.49 584,-375.49 581.9,-381.49 586.1,-381.49"/>
</g>
<!-- src/graph&#45;utl/consolidate&#45;to&#45;folder.mjs -->
<g id="node7" class="node">
<title>src/graph&#45;utl/consolidate&#45;to&#45;folder.mjs</title>
<g id="a_node7"><a xlink:href="https://github.com/sverweij/dependency-cruiser/blob/develop/src/graph-utl/consolidate-to-folder.mjs" xlink:title="consolidate&#45;to&#45;folder.mjs">
<path fill="#ffcccc" stroke="black" d="M309.5,-372C309.5,-372 204.5,-372 204.5,-372 201.5,-372 198.5,-369 198.5,-366 198.5,-366 198.5,-360 198.5,-360 198.5,-357 201.5,-354 204.5,-354 204.5,-354 309.5,-354 309.5,-354 312.5,-354 315.5,-357 315.5,-360 315.5,-360 315.5,-366 315.5,-366 315.5,-369 312.5,-372 309.5,-372"/>
<text text-anchor="start" x="206.5" y="-360.8" font-family="Helvetica,sans-Serif" font-size="9.00">consolidate&#45;to&#45;folder.mjs</text>
</a>
</g>
</g>
<!-- src/graph&#45;utl/consolidate&#45;to&#45;folder.mjs&#45;&gt;src/graph&#45;utl/consolidate&#45;module&#45;dependencies.mjs -->
<g id="edge5" class="edge">
<title>src/graph&#45;utl/consolidate&#45;to&#45;folder.mjs&#45;&gt;src/graph&#45;utl/consolidate&#45;module&#45;dependencies.mjs</title>
<path fill="none" stroke="#770000" stroke-width="2" stroke-opacity="0.466667" d="M315.94,-360C315.94,-360 321.59,-360 321.59,-360"/>
<polygon fill="#770000" fill-opacity="0.466667" stroke="#770000" stroke-width="2" stroke-opacity="0.466667" points="321.59,-362.1 327.59,-360 321.59,-357.9 321.59,-362.1"/>
</g>
<!-- src/graph&#45;utl/consolidate&#45;to&#45;folder.mjs&#45;&gt;src/graph&#45;utl/consolidate&#45;modules.mjs -->
<g id="edge6" class="edge">
<title>src/graph&#45;utl/consolidate&#45;to&#45;folder.mjs&#45;&gt;src/graph&#45;utl/consolidate&#45;modules.mjs</title>
<path fill="none" stroke="#770000" stroke-width="2" stroke-opacity="0.466667" d="M315.83,-366C321.39,-366 325,-366 325,-366 325,-366 325,-393 325,-393 325,-393 350.2,-393 350.2,-393"/>
<polygon fill="#770000" fill-opacity="0.466667" stroke="#770000" stroke-width="2" stroke-opacity="0.466667" points="350.2,-395.1 356.2,-393 350.2,-390.9 350.2,-395.1"/>
</g>
<!-- src/graph&#45;utl/consolidate&#45;to&#45;pattern.mjs -->
<g id="node8" class="node">
<title>src/graph&#45;utl/consolidate&#45;to&#45;pattern.mjs</title>
<g id="a_node8"><a xlink:href="https://github.com/sverweij/dependency-cruiser/blob/develop/src/graph-utl/consolidate-to-pattern.mjs" xlink:title="consolidate&#45;to&#45;pattern.mjs">
<path fill="#ffcccc" stroke="black" d="M312,-432C312,-432 202,-432 202,-432 199,-432 196,-429 196,-426 196,-426 196,-420 196,-420 196,-417 199,-414 202,-414 202,-414 312,-414 312,-414 315,-414 318,-417 318,-420 318,-420 318,-426 318,-426 318,-429 315,-432 312,-432"/>
<text text-anchor="start" x="204" y="-420.8" font-family="Helvetica,sans-Serif" font-size="9.00">consolidate&#45;to&#45;pattern.mjs</text>
</a>
</g>
</g>
<!-- src/graph&#45;utl/consolidate&#45;to&#45;pattern.mjs&#45;&gt;src/graph&#45;utl/consolidate&#45;module&#45;dependencies.mjs -->
<g id="edge7" class="edge">
<title>src/graph&#45;utl/consolidate&#45;to&#45;pattern.mjs&#45;&gt;src/graph&#45;utl/consolidate&#45;module&#45;dependencies.mjs</title>
<path fill="none" stroke="#770000" stroke-width="2" stroke-opacity="0.466667" d="M318.33,-417.67C333.74,-417.67 346,-417.67 346,-417.67 346,-417.67 346,-381.03 346,-381.03"/>
<polygon fill="#770000" fill-opacity="0.466667" stroke="#770000" stroke-width="2" stroke-opacity="0.466667" points="348.1,-381.03 346,-375.03 343.9,-381.03 348.1,-381.03"/>
</g>
<!-- src/graph&#45;utl/consolidate&#45;to&#45;pattern.mjs&#45;&gt;src/graph&#45;utl/consolidate&#45;modules.mjs -->
<g id="edge8" class="edge">
<title>src/graph&#45;utl/consolidate&#45;to&#45;pattern.mjs&#45;&gt;src/graph&#45;utl/consolidate&#45;modules.mjs</title>
<path fill="none" stroke="#770000" stroke-width="2" stroke-opacity="0.466667" d="M318.34,-421.33C345.32,-421.33 371,-421.33 371,-421.33 371,-421.33 371,-411.28 371,-411.28"/>
<polygon fill="#770000" fill-opacity="0.466667" stroke="#770000" stroke-width="2" stroke-opacity="0.466667" points="373.1,-411.28 371,-405.28 368.9,-411.28 373.1,-411.28"/>
</g>
<!-- src/graph&#45;utl/filter&#45;bank.mjs -->
<g id="node9" class="node">
<title>src/graph&#45;utl/filter&#45;bank.mjs</title>
<g id="a_node9"><a xlink:href="https://github.com/sverweij/dependency-cruiser/blob/develop/src/graph-utl/filter-bank.mjs" xlink:title="filter&#45;bank.mjs">
<path fill="#ffcccc" stroke="black" d="M288,-462C288,-462 226,-462 226,-462 223,-462 220,-459 220,-456 220,-456 220,-450 220,-450 220,-447 223,-444 226,-444 226,-444 288,-444 288,-444 291,-444 294,-447 294,-450 294,-450 294,-456 294,-456 294,-459 291,-462 288,-462"/>
<text text-anchor="start" x="228" y="-450.8" font-family="Helvetica,sans-Serif" font-size="9.00">filter&#45;bank.mjs</text>
</a>
</g>
</g>
<!-- src/graph&#45;utl/filter&#45;bank.mjs&#45;&gt;src/graph&#45;utl/add&#45;focus.mjs -->
<g id="edge9" class="edge">
<title>src/graph&#45;utl/filter&#45;bank.mjs&#45;&gt;src/graph&#45;utl/add&#45;focus.mjs</title>
<path fill="none" stroke="#770000" stroke-width="2" stroke-opacity="0.466667" d="M294.17,-453C294.17,-453 372.73,-453 372.73,-453"/>
<polygon fill="#770000" fill-opacity="0.466667" stroke="#770000" stroke-width="2" stroke-opacity="0.466667" points="372.73,-455.1 378.73,-453 372.73,-450.9 372.73,-455.1"/>
</g>
<!-- src/graph&#45;utl/filter&#45;bank.mjs&#45;&gt;src/graph&#45;utl/indexed&#45;module&#45;graph.mjs -->
<g id="edge10" class="edge">
<title>src/graph&#45;utl/filter&#45;bank.mjs&#45;&gt;src/graph&#45;utl/indexed&#45;module&#45;graph.mjs</title>
<path fill="none" stroke="#770000" stroke-width="2" stroke-opacity="0.466667" d="M257,-462.24C257,-465.33 257,-468 257,-468 257,-468 510.77,-468 510.77,-468"/>
<polygon fill="#770000" fill-opacity="0.466667" stroke="#770000" stroke-width="2" stroke-opacity="0.466667" points="510.77,-470.1 516.77,-468 510.77,-465.9 510.77,-470.1"/>
</g>
<!-- src/graph&#45;utl/filter&#45;bank.mjs&#45;&gt;src/graph&#45;utl/match&#45;facade.mjs -->
<g id="edge11" class="edge">
<title>src/graph&#45;utl/filter&#45;bank.mjs&#45;&gt;src/graph&#45;utl/match&#45;facade.mjs</title>
<path fill="none" stroke="#770000" stroke-width="2" stroke-opacity="0.466667" d="M257,-443.52C257,-439.48 257,-435.67 257,-435.67 257,-435.67 529.79,-435.67 529.79,-435.67"/>
<polygon fill="#770000" fill-opacity="0.466667" stroke="#770000" stroke-width="2" stroke-opacity="0.466667" points="529.79,-437.77 535.79,-435.67 529.79,-433.57 529.79,-437.77"/>
</g>
<!-- src/graph&#45;utl/rule&#45;set.mjs -->
<g id="node10" class="node">
<title>src/graph&#45;utl/rule&#45;set.mjs</title>
<g id="a_node10"><a xlink:href="https://github.com/sverweij/dependency-cruiser/blob/develop/src/graph-utl/rule-set.mjs" xlink:title="rule&#45;set.mjs">
<path fill="#ffcccc" stroke="black" d="M283,-492C283,-492 231,-492 231,-492 228,-492 225,-489 225,-486 225,-486 225,-480 225,-480 225,-477 228,-474 231,-474 231,-474 283,-474 283,-474 286,-474 289,-477 289,-480 289,-480 289,-486 289,-486 289,-489 286,-492 283,-492"/>
<text text-anchor="start" x="233" y="-480.8" font-family="Helvetica,sans-Serif" font-size="9.00">rule&#45;set.mjs</text>
</a>
</g>
</g>
<!-- src/graph&#45;utl/strip&#45;self&#45;transitions.mjs -->
<g id="node11" class="node">
<title>src/graph&#45;utl/strip&#45;self&#45;transitions.mjs</title>
<g id="a_node11"><a xlink:href="https://github.com/sverweij/dependency-cruiser/blob/develop/src/graph-utl/strip-self-transitions.mjs" xlink:title="strip&#45;self&#45;transitions.mjs">
<path fill="#ffcccc" stroke="black" d="M307.5,-402C307.5,-402 206.5,-402 206.5,-402 203.5,-402 200.5,-399 200.5,-396 200.5,-396 200.5,-390 200.5,-390 200.5,-387 203.5,-384 206.5,-384 206.5,-384 307.5,-384 307.5,-384 310.5,-384 313.5,-387 313.5,-390 313.5,-390 313.5,-396 313.5,-396 313.5,-399 310.5,-402 307.5,-402"/>
<text text-anchor="start" x="208.5" y="-390.8" font-family="Helvetica,sans-Serif" font-size="9.00">strip&#45;self&#45;transitions.mjs</text>
</a>
</g>
</g>
<!-- src/report/anon -->
<g id="node12" class="node">
<title>src/report/anon</title>
<g id="a_node12"><a xlink:href="https://github.com/sverweij/dependency-cruiser/blob/develop/src/report/anon" xlink:title="anon">
<polygon fill="#ffccff" stroke="black" points="89,-312 37,-312 35,-310 35,-294 87,-294 89,-296 89,-312"/>
<polyline fill="none" stroke="black" points="87,-310 35,-310"/>
<polyline fill="none" stroke="black" points="87,-310 87,-294"/>
<polyline fill="none" stroke="black" points="87,-310 89,-312"/>
<text text-anchor="start" x="51" y="-300.8" font-family="Helvetica,sans-Serif" font-size="9.00">anon</text>
</a>
</g>
</g>
<!-- src/report/baseline.mjs -->
<g id="node13" class="node">
<title>src/report/baseline.mjs</title>
<g id="a_node13"><a xlink:href="https://github.com/sverweij/dependency-cruiser/blob/develop/src/report/baseline.mjs" xlink:title="no&#45;orphans">
<path fill="#ffccff" stroke="red" d="M90,-282C90,-282 34,-282 34,-282 31,-282 28,-279 28,-276 28,-276 28,-270 28,-270 28,-267 31,-264 34,-264 34,-264 90,-264 90,-264 93,-264 96,-267 96,-270 96,-270 96,-276 96,-276 96,-279 93,-282 90,-282"/>
<text text-anchor="start" x="36" y="-270.8" font-family="Helvetica,sans-Serif" font-size="9.00" fill="red">baseline.mjs</text>
</a>
</g>
</g>
<!-- src/report/csv.mjs -->
<g id="node14" class="node">
<title>src/report/csv.mjs</title>
<g id="a_node14"><a xlink:href="https://github.com/sverweij/dependency-cruiser/blob/develop/src/report/csv.mjs" xlink:title="csv.mjs">
<path fill="#ffccff" stroke="black" d="M167.5,-222C167.5,-222 125.5,-222 125.5,-222 122.5,-222 119.5,-219 119.5,-216 119.5,-216 119.5,-210 119.5,-210 119.5,-207 122.5,-204 125.5,-204 125.5,-204 167.5,-204 167.5,-204 170.5,-204 173.5,-207 173.5,-210 173.5,-210 173.5,-216 173.5,-216 173.5,-219 170.5,-222 167.5,-222"/>
<text text-anchor="start" x="131" y="-210.8" font-family="Helvetica,sans-Serif" font-size="9.00">csv.mjs</text>
</a>
</g>
</g>
<!-- src/report/utl -->
<g id="node15" class="node">
<title>src/report/utl</title>
<g id="a_node15"><a xlink:href="https://github.com/sverweij/dependency-cruiser/blob/develop/src/report/utl" xlink:title="utl">
<polygon fill="#ffccff" stroke="black" points="284,-222 232,-222 230,-220 230,-204 282,-204 284,-206 284,-222"/>
<polyline fill="none" stroke="black" points="282,-220 230,-220"/>
<polyline fill="none" stroke="black" points="282,-220 282,-204"/>
<polyline fill="none" stroke="black" points="282,-220 284,-222"/>
<text text-anchor="start" x="252" y="-210.8" font-family="Helvetica,sans-Serif" font-size="9.00">utl</text>
</a>
</g>
</g>
<!-- src/report/csv.mjs&#45;&gt;src/report/utl -->
<g id="edge12" class="edge">
<title>src/report/csv.mjs&#45;&gt;src/report/utl</title>
<path fill="none" stroke="#ff00ff" stroke-width="2" stroke-opacity="0.466667" d="M173.81,-213C173.81,-213 220.62,-213 220.62,-213"/>
<polygon fill="#ff00ff" fill-opacity="0.466667" stroke="#ff00ff" stroke-width="2" stroke-opacity="0.466667" points="220.62,-215.1 226.62,-213 220.62,-210.9 220.62,-215.1"/>
</g>
<!-- src/report/dot -->
<g id="node16" class="node">
<title>src/report/dot</title>
<g id="a_node16"><a xlink:href="https://github.com/sverweij/dependency-cruiser/blob/develop/src/report/dot" xlink:title="dot">
<polygon fill="#ffccff" stroke="black" points="173.5,-282 121.5,-282 119.5,-280 119.5,-264 171.5,-264 173.5,-266 173.5,-282"/>
<polyline fill="none" stroke="black" points="171.5,-280 119.5,-280"/>
<polyline fill="none" stroke="black" points="171.5,-280 171.5,-264"/>
<polyline fill="none" stroke="black" points="171.5,-280 173.5,-282"/>
<text text-anchor="start" x="140" y="-270.8" font-family="Helvetica,sans-Serif" font-size="9.00">dot</text>
</a>
</g>
</g>
<!-- src/report/dot&#45;&gt;src/graph&#45;utl/compare.mjs -->
<g id="edge15" class="edge">
<title>src/report/dot&#45;&gt;src/graph&#45;utl/compare.mjs</title>
<path fill="none" stroke="#770000" stroke-width="2" stroke-opacity="0.466667" d="M173.87,-269.14C269.65,-269.14 584,-269.14 584,-269.14 584,-269.14 584,-344.66 584,-344.66"/>
<polygon fill="#770000" fill-opacity="0.466667" stroke="#770000" stroke-width="2" stroke-opacity="0.466667" points="581.9,-344.66 584,-350.66 586.1,-344.66 581.9,-344.66"/>
</g>
<!-- src/report/dot&#45;&gt;src/graph&#45;utl/consolidate&#45;to&#45;folder.mjs -->
<g id="edge18" class="edge">
<title>src/report/dot&#45;&gt;src/graph&#45;utl/consolidate&#45;to&#45;folder.mjs</title>
<path fill="none" stroke="#770000" stroke-width="2" stroke-opacity="0.466667" d="M173.97,-271.71C193.02,-271.71 215,-271.71 215,-271.71 215,-271.71 215,-344.57 215,-344.57"/>
<polygon fill="#770000" fill-opacity="0.466667" stroke="#770000" stroke-width="2" stroke-opacity="0.466667" points="212.9,-344.57 215,-350.57 217.1,-344.57 212.9,-344.57"/>
</g>
<!-- src/report/dot&#45;&gt;src/graph&#45;utl/consolidate&#45;to&#45;pattern.mjs -->
<g id="edge16" class="edge">
<title>src/report/dot&#45;&gt;src/graph&#45;utl/consolidate&#45;to&#45;pattern.mjs</title>
<path fill="none" stroke="#770000" stroke-width="2" stroke-opacity="0.466667" d="M173.95,-276.86C181.67,-276.86 188,-276.86 188,-276.86 188,-276.86 188,-423 188,-423 188,-423 188.76,-423 188.76,-423"/>
<polygon fill="#770000" fill-opacity="0.466667" stroke="#770000" stroke-width="2" stroke-opacity="0.466667" points="186.65,-425.1 192.65,-423 186.65,-420.9 186.65,-425.1"/>
</g>
<!-- src/report/dot&#45;&gt;src/graph&#45;utl/filter&#45;bank.mjs -->
<g id="edge13" class="edge">
<title>src/report/dot&#45;&gt;src/graph&#45;utl/filter&#45;bank.mjs</title>
<path fill="none" stroke="#770000" stroke-width="2" stroke-opacity="0.466667" d="M173.75,-279.43C179.57,-279.43 184,-279.43 184,-279.43 184,-279.43 184,-453 184,-453 184,-453 210.64,-453 210.64,-453"/>
<polygon fill="#770000" fill-opacity="0.466667" stroke="#770000" stroke-width="2" stroke-opacity="0.466667" points="210.64,-455.1 216.64,-453 210.64,-450.9 210.64,-455.1"/>
</g>
<!-- src/report/dot&#45;&gt;src/graph&#45;utl/strip&#45;self&#45;transitions.mjs -->
<g id="edge17" class="edge">
<title>src/report/dot&#45;&gt;src/graph&#45;utl/strip&#45;self&#45;transitions.mjs</title>
<path fill="none" stroke="#770000" stroke-width="2" stroke-opacity="0.466667" d="M173.76,-274.29C183.45,-274.29 192,-274.29 192,-274.29 192,-274.29 192,-393 192,-393 192,-393 192.82,-393 192.82,-393"/>
<polygon fill="#770000" fill-opacity="0.466667" stroke="#770000" stroke-width="2" stroke-opacity="0.466667" points="191.23,-395.1 197.23,-393 191.23,-390.9 191.23,-395.1"/>
</g>
<!-- src/report/dot&#45;&gt;src/report/utl -->
<g id="edge14" class="edge">
<title>src/report/dot&#45;&gt;src/report/utl</title>
<path fill="none" stroke="#ff00ff" stroke-width="2" stroke-opacity="0.466667" d="M173.81,-266.57C206.54,-266.57 257,-266.57 257,-266.57 257,-266.57 257,-231.33 257,-231.33"/>
<polygon fill="#ff00ff" fill-opacity="0.466667" stroke="#ff00ff" stroke-width="2" stroke-opacity="0.466667" points="259.1,-231.33 257,-225.33 254.9,-231.33 259.1,-231.33"/>
</g>
<!-- src/report/error&#45;html -->
<g id="node17" class="node">
<title>src/report/error&#45;html</title>
<g id="a_node17"><a xlink:href="https://github.com/sverweij/dependency-cruiser/blob/develop/src/report/error-html" xlink:title="error&#45;html">
<polygon fill="#ffccff" stroke="black" points="174.5,-102 120.5,-102 118.5,-100 118.5,-84 172.5,-84 174.5,-86 174.5,-102"/>
<polyline fill="none" stroke="black" points="172.5,-100 118.5,-100"/>
<polyline fill="none" stroke="black" points="172.5,-100 172.5,-84"/>
<polyline fill="none" stroke="black" points="172.5,-100 174.5,-102"/>
<text text-anchor="start" x="126.5" y="-90.8" font-family="Helvetica,sans-Serif" font-size="9.00">error&#45;html</text>
</a>
</g>
</g>
<!-- src/report/error&#45;html&#45;&gt;src/report/utl -->
<g id="edge19" class="edge">
<title>src/report/error&#45;html&#45;&gt;src/report/utl</title>
<path fill="none" stroke="#ff00ff" stroke-width="2" stroke-opacity="0.466667" d="M174.75,-93C211.48,-93 271,-93 271,-93 271,-93 271,-194.58 271,-194.58"/>
<polygon fill="#ff00ff" fill-opacity="0.466667" stroke="#ff00ff" stroke-width="2" stroke-opacity="0.466667" points="268.9,-194.58 271,-200.58 273.1,-194.58 268.9,-194.58"/>
</g>
<!-- src/report/error&#45;long.mjs -->
<g id="node18" class="node">
<title>src/report/error&#45;long.mjs</title>
<g id="a_node18"><a xlink:href="https://github.com/sverweij/dependency-cruiser/blob/develop/src/report/error-long.mjs" xlink:title="error&#45;long.mjs">
<path fill="#ffccff" stroke="black" d="M93,-252C93,-252 31,-252 31,-252 28,-252 25,-249 25,-246 25,-246 25,-240 25,-240 25,-237 28,-234 31,-234 31,-234 93,-234 93,-234 96,-234 99,-237 99,-240 99,-240 99,-246 99,-246 99,-249 96,-252 93,-252"/>
<text text-anchor="start" x="33" y="-240.8" font-family="Helvetica,sans-Serif" font-size="9.00">error&#45;long.mjs</text>
</a>
</g>
</g>
<!-- src/report/error.mjs -->
<g id="node19" class="node">
<title>src/report/error.mjs</title>
<g id="a_node19"><a xlink:href="https://github.com/sverweij/dependency-cruiser/blob/develop/src/report/error.mjs" xlink:title="error.mjs">
<path fill="#ffccff" stroke="black" d="M167.5,-312C167.5,-312 125.5,-312 125.5,-312 122.5,-312 119.5,-309 119.5,-306 119.5,-306 119.5,-300 119.5,-300 119.5,-297 122.5,-294 125.5,-294 125.5,-294 167.5,-294 167.5,-294 170.5,-294 173.5,-297 173.5,-300 173.5,-300 173.5,-306 173.5,-306 173.5,-309 170.5,-312 167.5,-312"/>
<text text-anchor="start" x="128" y="-300.8" font-family="Helvetica,sans-Serif" font-size="9.00">error.mjs</text>
</a>
</g>
</g>
<!-- src/report/error&#45;long.mjs&#45;&gt;src/report/error.mjs -->
<g id="edge20" class="edge">
<title>src/report/error&#45;long.mjs&#45;&gt;src/report/error.mjs</title>
<path fill="none" stroke="#ff00ff" stroke-width="2" stroke-opacity="0.466667" d="M99.38,-243C102.79,-243 105,-243 105,-243 105,-243 105,-303 105,-303 105,-303 110.05,-303 110.05,-303"/>
<polygon fill="#ff00ff" fill-opacity="0.466667" stroke="#ff00ff" stroke-width="2" stroke-opacity="0.466667" points="110.05,-305.1 116.05,-303 110.05,-300.9 110.05,-305.1"/>
</g>
<!-- src/report/error.mjs&#45;&gt;src/graph&#45;utl/rule&#45;set.mjs -->
<g id="edge21" class="edge">
<title>src/report/error.mjs&#45;&gt;src/graph&#45;utl/rule&#45;set.mjs</title>
<path fill="none" stroke="#770000" stroke-width="2" stroke-opacity="0.466667" d="M156,-312.17C156,-348.85 156,-483 156,-483 156,-483 215.77,-483 215.77,-483"/>
<polygon fill="#770000" fill-opacity="0.466667" stroke="#770000" stroke-width="2" stroke-opacity="0.466667" points="215.77,-485.1 221.77,-483 215.77,-480.9 215.77,-485.1"/>
</g>
<!-- src/report/error.mjs&#45;&gt;src/report/utl -->
<g id="edge23" class="edge">
<title>src/report/error.mjs&#45;&gt;src/report/utl</title>
<path fill="none" stroke="#ff00ff" stroke-width="2" stroke-opacity="0.466667" d="M173.82,-303C210.47,-303 271,-303 271,-303 271,-303 271,-231.29 271,-231.29"/>
<polygon fill="#ff00ff" fill-opacity="0.466667" stroke="#ff00ff" stroke-width="2" stroke-opacity="0.466667" points="273.1,-231.29 271,-225.29 268.9,-231.29 273.1,-231.29"/>
</g>
<!-- src/utl/wrap&#45;and&#45;indent.mjs -->
<g id="node20" class="node">
<title>src/utl/wrap&#45;and&#45;indent.mjs</title>
<g id="a_node20"><a xlink:href="https://github.com/sverweij/dependency-cruiser/blob/develop/src/utl/wrap-and-indent.mjs" xlink:title="utl&#45;module&#45;not&#45;shared&#45;enough">
<path fill="#cccccc" stroke="blue" d="M301.5,-552C301.5,-552 212.5,-552 212.5,-552 209.5,-552 206.5,-549 206.5,-546 206.5,-546 206.5,-540 206.5,-540 206.5,-537 209.5,-534 212.5,-534 212.5,-534 301.5,-534 301.5,-534 304.5,-534 307.5,-537 307.5,-540 307.5,-540 307.5,-546 307.5,-546 307.5,-549 304.5,-552 301.5,-552"/>
<text text-anchor="start" x="214.5" y="-540.8" font-family="Helvetica,sans-Serif" font-size="9.00" fill="blue">wrap&#45;and&#45;indent.mjs</text>
</a>
</g>
</g>
<!-- src/report/error.mjs&#45;&gt;src/utl/wrap&#45;and&#45;indent.mjs -->
<g id="edge22" class="edge">
<title>src/report/error.mjs&#45;&gt;src/utl/wrap&#45;and&#45;indent.mjs</title>
<path fill="none" stroke="#aaaaaa" stroke-width="2" stroke-opacity="0.466667" d="M138,-312.41C138,-356.78 138,-543 138,-543 138,-543 197.19,-543 197.19,-543"/>
<polygon fill="#aaaaaa" fill-opacity="0.466667" stroke="#aaaaaa" stroke-width="2" stroke-opacity="0.466667" points="197.19,-545.1 203.19,-543 197.19,-540.9 197.19,-545.1"/>
</g>
<!-- src/report/html -->
<g id="node21" class="node">
<title>src/report/html</title>
<g id="a_node21"><a xlink:href="https://github.com/sverweij/dependency-cruiser/blob/develop/src/report/html" xlink:title="html">
<polygon fill="#ffccff" stroke="black" points="173.5,-132 121.5,-132 119.5,-130 119.5,-114 171.5,-114 173.5,-116 173.5,-132"/>
<polyline fill="none" stroke="black" points="171.5,-130 119.5,-130"/>
<polyline fill="none" stroke="black" points="171.5,-130 171.5,-114"/>
<polyline fill="none" stroke="black" points="171.5,-130 173.5,-132"/>
<text text-anchor="start" x="137.5" y="-120.8" font-family="Helvetica,sans-Serif" font-size="9.00">html</text>
</a>
</g>
</g>
<!-- src/report/html&#45;&gt;src/report/utl -->
<g id="edge24" class="edge">
<title>src/report/html&#45;&gt;src/report/utl</title>
<path fill="none" stroke="#ff00ff" stroke-width="2" stroke-opacity="0.466667" d="M173.81,-123C206.54,-123 257,-123 257,-123 257,-123 257,-194.71 257,-194.71"/>
<polygon fill="#ff00ff" fill-opacity="0.466667" stroke="#ff00ff" stroke-width="2" stroke-opacity="0.466667" points="254.9,-194.71 257,-200.71 259.1,-194.71 254.9,-194.71"/>
</g>
<!-- src/report/identity.mjs -->
<g id="node22" class="node">
<title>src/report/identity.mjs</title>
<g id="a_node22"><a xlink:href="https://github.com/sverweij/dependency-cruiser/blob/develop/src/report/identity.mjs" xlink:title="identity.mjs">
<path fill="#ffccff" stroke="black" d="M87,-222C87,-222 37,-222 37,-222 34,-222 31,-219 31,-216 31,-216 31,-210 31,-210 31,-207 34,-204 37,-204 37,-204 87,-204 87,-204 90,-204 93,-207 93,-210 93,-210 93,-216 93,-216 93,-219 90,-222 87,-222"/>
<text text-anchor="start" x="39" y="-210.8" font-family="Helvetica,sans-Serif" font-size="9.00">identity.mjs</text>
</a>
</g>
</g>
<!-- src/report/index.mjs -->
<g id="node23" class="node">
<title>src/report/index.mjs</title>
<g id="a_node23"><a xlink:href="https://github.com/sverweij/dependency-cruiser/blob/develop/src/report/index.mjs" xlink:title="index.mjs">
<path fill="#ffccff" stroke="black" d="M84,-192C84,-192 40,-192 40,-192 37,-192 34,-189 34,-186 34,-186 34,-180 34,-180 34,-177 37,-174 40,-174 40,-174 84,-174 84,-174 87,-174 90,-177 90,-180 90,-180 90,-186 90,-186 90,-189 87,-192 84,-192"/>
<text text-anchor="start" x="42" y="-180.8" font-family="Helvetica,sans-Serif" font-size="9.00">index.mjs</text>
</a>
</g>
</g>
<!-- src/report/plugins.mjs -->
<g id="node24" class="node">
<title>src/report/plugins.mjs</title>
<g id="a_node24"><a xlink:href="https://github.com/sverweij/dependency-cruiser/blob/develop/src/report/plugins.mjs" xlink:title="plugins.mjs">
<path fill="#ffccff" stroke="black" d="M172,-192C172,-192 121,-192 121,-192 118,-192 115,-189 115,-186 115,-186 115,-180 115,-180 115,-177 118,-174 121,-174 121,-174 172,-174 172,-174 175,-174 178,-177 178,-180 178,-180 178,-186 178,-186 178,-189 175,-192 172,-192"/>
<text text-anchor="start" x="123" y="-180.8" font-family="Helvetica,sans-Serif" font-size="9.00">plugins.mjs</text>
</a>
</g>
</g>
<!-- src/report/index.mjs&#45;&gt;src/report/plugins.mjs -->
<g id="edge25" class="edge">
<title>src/report/index.mjs&#45;&gt;src/report/plugins.mjs</title>
<path fill="none" stroke="#ff00ff" stroke-width="2" stroke-opacity="0.466667" d="M90.14,-183C90.14,-183 105.69,-183 105.69,-183"/>
<polygon fill="#ff00ff" fill-opacity="0.466667" stroke="#ff00ff" stroke-width="2" stroke-opacity="0.466667" points="105.69,-185.1 111.69,-183 105.69,-180.9 105.69,-185.1"/>
</g>
<!-- src/report/json.mjs -->
<g id="node25" class="node">
<title>src/report/json.mjs</title>
<g id="a_node25"><a xlink:href="https://github.com/sverweij/dependency-cruiser/blob/develop/src/report/json.mjs" xlink:title="json.mjs">
<path fill="#ffccff" stroke="black" d="M83,-162C83,-162 41,-162 41,-162 38,-162 35,-159 35,-156 35,-156 35,-150 35,-150 35,-147 38,-144 41,-144 41,-144 83,-144 83,-144 86,-144 89,-147 89,-150 89,-150 89,-156 89,-156 89,-159 86,-162 83,-162"/>
<text text-anchor="start" x="45" y="-150.8" font-family="Helvetica,sans-Serif" font-size="9.00">json.mjs</text>
</a>
</g>
</g>
<!-- src/report/markdown.mjs -->
<g id="node26" class="node">
<title>src/report/markdown.mjs</title>
<g id="a_node26"><a xlink:href="https://github.com/sverweij/dependency-cruiser/blob/develop/src/report/markdown.mjs" xlink:title="markdown.mjs">
<path fill="#ffccff" stroke="black" d="M94,-132C94,-132 30,-132 30,-132 27,-132 24,-129 24,-126 24,-126 24,-120 24,-120 24,-117 27,-114 30,-114 30,-114 94,-114 94,-114 97,-114 100,-117 100,-120 100,-120 100,-126 100,-126 100,-129 97,-132 94,-132"/>
<text text-anchor="start" x="32" y="-120.8" font-family="Helvetica,sans-Serif" font-size="9.00">markdown.mjs</text>
</a>
</g>
</g>
<!-- src/report/markdown.mjs&#45;&gt;src/report/error&#45;html -->
<g id="edge26" class="edge">
<title>src/report/markdown.mjs&#45;&gt;src/report/error&#45;html</title>
<path fill="none" stroke="#ff00ff" stroke-width="2" stroke-opacity="0.466667" d="M100.38,-123C105.49,-123 109,-123 109,-123 109,-123 109,-93 109,-93 109,-93 109.91,-93 109.91,-93"/>
<polygon fill="#ff00ff" fill-opacity="0.466667" stroke="#ff00ff" stroke-width="2" stroke-opacity="0.466667" points="109.08,-95.1 115.08,-93 109.08,-90.9 109.08,-95.1"/>
</g>
<!-- src/report/mermaid.mjs -->
<g id="node27" class="node">
<title>src/report/mermaid.mjs</title>
<g id="a_node27"><a xlink:href="https://github.com/sverweij/dependency-cruiser/blob/develop/src/report/mermaid.mjs" xlink:title="no&#45;orphans">
<path fill="#ffccff" stroke="red" d="M90.5,-102C90.5,-102 33.5,-102 33.5,-102 30.5,-102 27.5,-99 27.5,-96 27.5,-96 27.5,-90 27.5,-90 27.5,-87 30.5,-84 33.5,-84 33.5,-84 90.5,-84 90.5,-84 93.5,-84 96.5,-87 96.5,-90 96.5,-90 96.5,-96 96.5,-96 96.5,-99 93.5,-102 90.5,-102"/>
<text text-anchor="start" x="35.5" y="-90.8" font-family="Helvetica,sans-Serif" font-size="9.00" fill="red">mermaid.mjs</text>
</a>
</g>
</g>
<!-- src/report/metrics.mjs -->
<g id="node28" class="node">
<title>src/report/metrics.mjs</title>
<g id="a_node28"><a xlink:href="https://github.com/sverweij/dependency-cruiser/blob/develop/src/report/metrics.mjs" xlink:title="metrics.mjs">
<path fill="#ffccff" stroke="black" d="M171.5,-162C171.5,-162 121.5,-162 121.5,-162 118.5,-162 115.5,-159 115.5,-156 115.5,-156 115.5,-150 115.5,-150 115.5,-147 118.5,-144 121.5,-144 121.5,-144 171.5,-144 171.5,-144 174.5,-144 177.5,-147 177.5,-150 177.5,-150 177.5,-156 177.5,-156 177.5,-159 174.5,-162 171.5,-162"/>
<text text-anchor="start" x="123.5" y="-150.8" font-family="Helvetica,sans-Serif" font-size="9.00">metrics.mjs</text>
</a>
</g>
</g>
<!-- src/report/metrics.mjs&#45;&gt;src/report/utl -->
<g id="edge27" class="edge">
<title>src/report/metrics.mjs&#45;&gt;src/report/utl</title>
<path fill="none" stroke="#ff00ff" stroke-width="2" stroke-opacity="0.466667" d="M177.89,-153C206.39,-153 244,-153 244,-153 244,-153 244,-194.62 244,-194.62"/>
<polygon fill="#ff00ff" fill-opacity="0.466667" stroke="#ff00ff" stroke-width="2" stroke-opacity="0.466667" points="241.9,-194.62 244,-200.62 246.1,-194.63 241.9,-194.62"/>
</g>
<!-- src/report/null.mjs -->
<g id="node29" class="node">
<title>src/report/null.mjs</title>
<g id="a_node29"><a xlink:href="https://github.com/sverweij/dependency-cruiser/blob/develop/src/report/null.mjs" xlink:title="null.mjs">
<path fill="#ffccff" stroke="black" d="M83,-72C83,-72 41,-72 41,-72 38,-72 35,-69 35,-66 35,-66 35,-60 35,-60 35,-57 38,-54 41,-54 41,-54 83,-54 83,-54 86,-54 89,-57 89,-60 89,-60 89,-66 89,-66 89,-69 86,-72 83,-72"/>
<text text-anchor="start" x="46" y="-60.8" font-family="Helvetica,sans-Serif" font-size="9.00">null.mjs</text>
</a>
</g>
</g>
<!-- src/report/teamcity.mjs -->
<g id="node30" class="node">
<title>src/report/teamcity.mjs</title>
<g id="a_node30"><a xlink:href="https://github.com/sverweij/dependency-cruiser/blob/develop/src/report/teamcity.mjs" xlink:title="teamcity.mjs">
<path fill="#ffccff" stroke="black" d="M174,-252C174,-252 119,-252 119,-252 116,-252 113,-249 113,-246 113,-246 113,-240 113,-240 113,-237 116,-234 119,-234 119,-234 174,-234 174,-234 177,-234 180,-237 180,-240 180,-240 180,-246 180,-246 180,-249 177,-252 174,-252"/>
<text text-anchor="start" x="121" y="-240.8" font-family="Helvetica,sans-Serif" font-size="9.00">teamcity.mjs</text>
</a>
</g>
</g>
<!-- src/report/teamcity.mjs&#45;&gt;src/report/utl -->
<g id="edge28" class="edge">
<title>src/report/teamcity.mjs&#45;&gt;src/report/utl</title>
<path fill="none" stroke="#ff00ff" stroke-width="2" stroke-opacity="0.466667" d="M180.33,-243C208.49,-243 244,-243 244,-243 244,-243 244,-231.49 244,-231.49"/>
<polygon fill="#ff00ff" fill-opacity="0.466667" stroke="#ff00ff" stroke-width="2" stroke-opacity="0.466667" points="246.1,-231.49 244,-225.49 241.9,-231.49 246.1,-231.49"/>
</g>
<!-- src/report/text.mjs -->
<g id="node31" class="node">
<title>src/report/text.mjs</title>
<g id="a_node31"><a xlink:href="https://github.com/sverweij/dependency-cruiser/blob/develop/src/report/text.mjs" xlink:title="no&#45;orphans">
<path fill="#ffccff" stroke="red" d="M83,-42C83,-42 41,-42 41,-42 38,-42 35,-39 35,-36 35,-36 35,-30 35,-30 35,-27 38,-24 41,-24 41,-24 83,-24 83,-24 86,-24 89,-27 89,-30 89,-30 89,-36 89,-36 89,-39 86,-42 83,-42"/>
<text text-anchor="start" x="46.5" y="-30.8" font-family="Helvetica,sans-Serif" font-size="9.00" fill="red">text.mjs</text>
</a>
</g>
</g>
</g>
</svg>
