<?xml version="1.0" encoding="UTF-8" standalone="no"?>
<!DOCTYPE svg PUBLIC "-//W3C//DTD SVG 1.1//EN"
 "http://www.w3.org/Graphics/SVG/1.1/DTD/svg11.dtd">
<!-- Generated by graphviz version 7.0.0 (20221023.0053)
 -->
<!-- Title: dependency&#45;cruiser output Pages: 1 -->
<svg width="707pt" height="704pt"
 viewBox="0.00 0.00 707.00 704.00" xmlns="http://www.w3.org/2000/svg" xmlns:xlink="http://www.w3.org/1999/xlink">
<g id="graph0" class="graph" transform="scale(1 1) rotate(0) translate(4 700)">
<title>dependency&#45;cruiser output</title>
<polygon fill="white" stroke="none" points="-4,4 -4,-700 703,-700 703,4 -4,4"/>
<g id="clust1" class="cluster">
<title>cluster_src</title>
<path fill="#ffffff" stroke="black" stroke-width="2" d="M20,-8C20,-8 679,-8 679,-8 685,-8 691,-14 691,-20 691,-20 691,-676 691,-676 691,-682 685,-688 679,-688 679,-688 20,-688 20,-688 14,-688 8,-682 8,-676 8,-676 8,-20 8,-20 8,-14 14,-8 20,-8"/>
<text text-anchor="middle" x="349.5" y="-676.8" font-family="Helvetica,sans-Serif" font-weight="bold" font-size="9.00">src</text>
</g>
<g id="clust2" class="cluster">
<title>cluster_src/graph&#45;utl</title>
<path fill="#ffffff" stroke="black" stroke-width="2" d="M251,-430C251,-430 671,-430 671,-430 677,-430 683,-436 683,-442 683,-442 683,-590 683,-590 683,-596 677,-602 671,-602 671,-602 251,-602 251,-602 245,-602 239,-596 239,-590 239,-590 239,-442 239,-442 239,-436 245,-430 251,-430"/>
<text text-anchor="middle" x="461" y="-590.8" font-family="Helvetica,sans-Serif" font-weight="bold" font-size="9.00">graph&#45;utl</text>
</g>
<g id="clust3" class="cluster">
<title>cluster_src/report</title>
<path fill="#ffffff" stroke="black" stroke-width="2" d="M28,-16C28,-16 327.5,-16 327.5,-16 333.5,-16 339.5,-22 339.5,-28 339.5,-28 339.5,-410 339.5,-410 339.5,-416 333.5,-422 327.5,-422 327.5,-422 28,-422 28,-422 22,-422 16,-416 16,-410 16,-410 16,-28 16,-28 16,-22 22,-16 28,-16"/>
<text text-anchor="middle" x="177.75" y="-410.8" font-family="Helvetica,sans-Serif" font-weight="bold" font-size="9.00">report</text>
</g>
<g id="clust4" class="cluster">
<title>cluster_src/utl</title>
<path fill="#ffffff" stroke="black" stroke-width="2" d="M262,-610C262,-610 347,-610 347,-610 353,-610 359,-616 359,-622 359,-622 359,-650 359,-650 359,-656 353,-662 347,-662 347,-662 262,-662 262,-662 256,-662 250,-656 250,-650 250,-650 250,-622 250,-622 250,-616 256,-610 262,-610"/>
<text text-anchor="start" x="299" y="-650.8" font-family="Helvetica,sans-Serif" font-weight="bold" font-size="9.00">utl</text>
</g>
<!-- src/graph&#45;utl/add&#45;focus.js -->
<g id="node1" class="node">
<title>src/graph&#45;utl/add&#45;focus.js</title>
<g id="a_node1"><a xlink:href="https://github.com/sverweij/dependency-cruiser/blob/develop/src/graph-utl/add-focus.js" xlink:title="add&#45;focus.js">
<path fill="#ffcccc" stroke="black" d="M486,-546C486,-546 432,-546 432,-546 429,-546 426,-543 426,-540 426,-540 426,-534 426,-534 426,-531 429,-528 432,-528 432,-528 486,-528 486,-528 489,-528 492,-531 492,-534 492,-534 492,-540 492,-540 492,-543 489,-546 486,-546"/>
<text text-anchor="start" x="434" y="-534.8" font-family="Helvetica,sans-Serif" font-size="9.00">add&#45;focus.js</text>
</a>
</g>
</g>
<!-- src/graph&#45;utl/indexed&#45;module&#45;graph.js -->
<g id="node2" class="node">
<title>src/graph&#45;utl/indexed&#45;module&#45;graph.js</title>
<g id="a_node2"><a xlink:href="https://github.com/sverweij/dependency-cruiser/blob/develop/src/graph-utl/indexed-module-graph.js" xlink:title="indexed&#45;module&#45;graph.js">
<path fill="#ffcccc" stroke="black" d="M669,-564C669,-564 562,-564 562,-564 559,-564 556,-561 556,-558 556,-558 556,-552 556,-552 556,-549 559,-546 562,-546 562,-546 669,-546 669,-546 672,-546 675,-549 675,-552 675,-552 675,-558 675,-558 675,-561 672,-564 669,-564"/>
<text text-anchor="start" x="564" y="-552.8" font-family="Helvetica,sans-Serif" font-size="9.00">indexed&#45;module&#45;graph.js</text>
</a>
</g>
</g>
<!-- src/graph&#45;utl/add&#45;focus.js&#45;&gt;src/graph&#45;utl/indexed&#45;module&#45;graph.js -->
<g id="edge1" class="edge">
<title>src/graph&#45;utl/add&#45;focus.js&#45;&gt;src/graph&#45;utl/indexed&#45;module&#45;graph.js</title>
<path fill="none" stroke="#770000" stroke-width="2" stroke-opacity="0.466667" d="M492.27,-537C523.68,-537 566,-537 566,-537 566,-537 566,-537.86 566,-537.86"/>
<polygon fill="#770000" fill-opacity="0.466667" stroke="#770000" stroke-width="2" stroke-opacity="0.466667" points="563.9,-536.55 566,-542.55 568.1,-536.55 563.9,-536.55"/>
</g>
<!-- src/graph&#45;utl/match&#45;facade.js -->
<g id="node3" class="node">
<title>src/graph&#45;utl/match&#45;facade.js</title>
<g id="a_node3"><a xlink:href="https://github.com/sverweij/dependency-cruiser/blob/develop/src/graph-utl/match-facade.js" xlink:title="match&#45;facade.js">
<path fill="#ffcccc" stroke="black" d="M650,-527C650,-527 581,-527 581,-527 578,-527 575,-524 575,-521 575,-521 575,-515 575,-515 575,-512 578,-509 581,-509 581,-509 650,-509 650,-509 653,-509 656,-512 656,-515 656,-515 656,-521 656,-521 656,-524 653,-527 650,-527"/>
<text text-anchor="start" x="583" y="-515.8" font-family="Helvetica,sans-Serif" font-size="9.00">match&#45;facade.js</text>
</a>
</g>
</g>
<!-- src/graph&#45;utl/add&#45;focus.js&#45;&gt;src/graph&#45;utl/match&#45;facade.js -->
<g id="edge2" class="edge">
<title>src/graph&#45;utl/add&#45;focus.js&#45;&gt;src/graph&#45;utl/match&#45;facade.js</title>
<path fill="none" stroke="#770000" stroke-width="2" stroke-opacity="0.466667" d="M459,-527.66C459,-525.26 459,-523.33 459,-523.33 459,-523.33 565.76,-523.33 565.76,-523.33"/>
<polygon fill="#770000" fill-opacity="0.466667" stroke="#770000" stroke-width="2" stroke-opacity="0.466667" points="565.76,-525.43 571.76,-523.33 565.76,-521.23 565.76,-525.43"/>
</g>
<!-- src/graph&#45;utl/compare.js -->
<g id="node4" class="node">
<title>src/graph&#45;utl/compare.js</title>
<g id="a_node4"><a xlink:href="https://github.com/sverweij/dependency-cruiser/blob/develop/src/graph-utl/compare.js" xlink:title="compare.js">
<path fill="#ffcccc" stroke="black" d="M640.5,-456C640.5,-456 590.5,-456 590.5,-456 587.5,-456 584.5,-453 584.5,-450 584.5,-450 584.5,-444 584.5,-444 584.5,-441 587.5,-438 590.5,-438 590.5,-438 640.5,-438 640.5,-438 643.5,-438 646.5,-441 646.5,-444 646.5,-444 646.5,-450 646.5,-450 646.5,-453 643.5,-456 640.5,-456"/>
<text text-anchor="start" x="592.5" y="-444.8" font-family="Helvetica,sans-Serif" font-size="9.00">compare.js</text>
</a>
</g>
</g>
<!-- src/graph&#45;utl/consolidate&#45;module&#45;dependencies.js -->
<g id="node5" class="node">
<title>src/graph&#45;utl/consolidate&#45;module&#45;dependencies.js</title>
<g id="a_node5"><a xlink:href="https://github.com/sverweij/dependency-cruiser/blob/develop/src/graph-utl/consolidate-module-dependencies.js" xlink:title="consolidate&#45;module&#45;dependencies.js">
<path fill="#ffcccc" stroke="black" d="M537,-456C537,-456 381,-456 381,-456 378,-456 375,-453 375,-450 375,-450 375,-444 375,-444 375,-441 378,-438 381,-438 381,-438 537,-438 537,-438 540,-438 543,-441 543,-444 543,-444 543,-450 543,-450 543,-453 540,-456 537,-456"/>
<text text-anchor="start" x="383" y="-444.8" font-family="Helvetica,sans-Serif" font-size="9.00">consolidate&#45;module&#45;dependencies.js</text>
</a>
</g>
</g>
<!-- src/graph&#45;utl/consolidate&#45;module&#45;dependencies.js&#45;&gt;src/graph&#45;utl/compare.js -->
<g id="edge3" class="edge">
<title>src/graph&#45;utl/consolidate&#45;module&#45;dependencies.js&#45;&gt;src/graph&#45;utl/compare.js</title>
<path fill="none" stroke="#770000" stroke-width="2" stroke-opacity="0.466667" d="M543.21,-447C543.21,-447 575.13,-447 575.13,-447"/>
<polygon fill="#770000" fill-opacity="0.466667" stroke="#770000" stroke-width="2" stroke-opacity="0.466667" points="575.13,-449.1 581.13,-447 575.13,-444.9 575.13,-449.1"/>
</g>
<!-- src/graph&#45;utl/consolidate&#45;modules.js -->
<g id="node6" class="node">
<title>src/graph&#45;utl/consolidate&#45;modules.js</title>
<g id="a_node6"><a xlink:href="https://github.com/sverweij/dependency-cruiser/blob/develop/src/graph-utl/consolidate-modules.js" xlink:title="consolidate&#45;modules.js">
<path fill="#ffcccc" stroke="black" d="M508.5,-486C508.5,-486 409.5,-486 409.5,-486 406.5,-486 403.5,-483 403.5,-480 403.5,-480 403.5,-474 403.5,-474 403.5,-471 406.5,-468 409.5,-468 409.5,-468 508.5,-468 508.5,-468 511.5,-468 514.5,-471 514.5,-474 514.5,-474 514.5,-480 514.5,-480 514.5,-483 511.5,-486 508.5,-486"/>
<text text-anchor="start" x="411.5" y="-474.8" font-family="Helvetica,sans-Serif" font-size="9.00">consolidate&#45;modules.js</text>
</a>
</g>
</g>
<!-- src/graph&#45;utl/consolidate&#45;modules.js&#45;&gt;src/graph&#45;utl/compare.js -->
<g id="edge4" class="edge">
<title>src/graph&#45;utl/consolidate&#45;modules.js&#45;&gt;src/graph&#45;utl/compare.js</title>
<path fill="none" stroke="#770000" stroke-width="2" stroke-opacity="0.466667" d="M514.79,-477C559.92,-477 616,-477 616,-477 616,-477 616,-465.52 616,-465.52"/>
<polygon fill="#770000" fill-opacity="0.466667" stroke="#770000" stroke-width="2" stroke-opacity="0.466667" points="618.1,-465.52 616,-459.52 613.9,-465.52 618.1,-465.52"/>
</g>
<!-- src/graph&#45;utl/consolidate&#45;to&#45;folder.js -->
<g id="node7" class="node">
<title>src/graph&#45;utl/consolidate&#45;to&#45;folder.js</title>
<g id="a_node7"><a xlink:href="https://github.com/sverweij/dependency-cruiser/blob/develop/src/graph-utl/consolidate-to-folder.js" xlink:title="consolidate&#45;to&#45;folder.js">
<path fill="#ffcccc" stroke="black" d="M353.5,-456C353.5,-456 255.5,-456 255.5,-456 252.5,-456 249.5,-453 249.5,-450 249.5,-450 249.5,-444 249.5,-444 249.5,-441 252.5,-438 255.5,-438 255.5,-438 353.5,-438 353.5,-438 356.5,-438 359.5,-441 359.5,-444 359.5,-444 359.5,-450 359.5,-450 359.5,-453 356.5,-456 353.5,-456"/>
<text text-anchor="start" x="257.5" y="-444.8" font-family="Helvetica,sans-Serif" font-size="9.00">consolidate&#45;to&#45;folder.js</text>
</a>
</g>
</g>
<!-- src/graph&#45;utl/consolidate&#45;to&#45;folder.js&#45;&gt;src/graph&#45;utl/consolidate&#45;module&#45;dependencies.js -->
<g id="edge5" class="edge">
<title>src/graph&#45;utl/consolidate&#45;to&#45;folder.js&#45;&gt;src/graph&#45;utl/consolidate&#45;module&#45;dependencies.js</title>
<path fill="none" stroke="#770000" stroke-width="2" stroke-opacity="0.466667" d="M359.84,-444C359.84,-444 365.65,-444 365.65,-444"/>
<polygon fill="#770000" fill-opacity="0.466667" stroke="#770000" stroke-width="2" stroke-opacity="0.466667" points="365.65,-446.1 371.65,-444 365.65,-441.9 365.65,-446.1"/>
</g>
<!-- src/graph&#45;utl/consolidate&#45;to&#45;folder.js&#45;&gt;src/graph&#45;utl/consolidate&#45;modules.js -->
<g id="edge6" class="edge">
<title>src/graph&#45;utl/consolidate&#45;to&#45;folder.js&#45;&gt;src/graph&#45;utl/consolidate&#45;modules.js</title>
<path fill="none" stroke="#770000" stroke-width="2" stroke-opacity="0.466667" d="M359.76,-450C365.34,-450 369,-450 369,-450 369,-450 369,-477 369,-477 369,-477 394,-477 394,-477"/>
<polygon fill="#770000" fill-opacity="0.466667" stroke="#770000" stroke-width="2" stroke-opacity="0.466667" points="394,-479.1 400,-477 394,-474.9 394,-479.1"/>
</g>
<!-- src/graph&#45;utl/consolidate&#45;to&#45;pattern.js -->
<g id="node8" class="node">
<title>src/graph&#45;utl/consolidate&#45;to&#45;pattern.js</title>
<g id="a_node8"><a xlink:href="https://github.com/sverweij/dependency-cruiser/blob/develop/src/graph-utl/consolidate-to-pattern.js" xlink:title="consolidate&#45;to&#45;pattern.js">
<path fill="#ffcccc" stroke="black" d="M356,-516C356,-516 253,-516 253,-516 250,-516 247,-513 247,-510 247,-510 247,-504 247,-504 247,-501 250,-498 253,-498 253,-498 356,-498 356,-498 359,-498 362,-501 362,-504 362,-504 362,-510 362,-510 362,-513 359,-516 356,-516"/>
<text text-anchor="start" x="255" y="-504.8" font-family="Helvetica,sans-Serif" font-size="9.00">consolidate&#45;to&#45;pattern.js</text>
</a>
</g>
</g>
<!-- src/graph&#45;utl/consolidate&#45;to&#45;pattern.js&#45;&gt;src/graph&#45;utl/consolidate&#45;module&#45;dependencies.js -->
<g id="edge7" class="edge">
<title>src/graph&#45;utl/consolidate&#45;to&#45;pattern.js&#45;&gt;src/graph&#45;utl/consolidate&#45;module&#45;dependencies.js</title>
<path fill="none" stroke="#770000" stroke-width="2" stroke-opacity="0.466667" d="M362.48,-501.67C377.72,-501.67 390,-501.67 390,-501.67 390,-501.67 390,-465.05 390,-465.05"/>
<polygon fill="#770000" fill-opacity="0.466667" stroke="#770000" stroke-width="2" stroke-opacity="0.466667" points="392.1,-465.05 390,-459.05 387.9,-465.05 392.1,-465.05"/>
</g>
<!-- src/graph&#45;utl/consolidate&#45;to&#45;pattern.js&#45;&gt;src/graph&#45;utl/consolidate&#45;modules.js -->
<g id="edge8" class="edge">
<title>src/graph&#45;utl/consolidate&#45;to&#45;pattern.js&#45;&gt;src/graph&#45;utl/consolidate&#45;modules.js</title>
<path fill="none" stroke="#770000" stroke-width="2" stroke-opacity="0.466667" d="M362.34,-505.33C389.07,-505.33 415,-505.33 415,-505.33 415,-505.33 415,-495.3 415,-495.3"/>
<polygon fill="#770000" fill-opacity="0.466667" stroke="#770000" stroke-width="2" stroke-opacity="0.466667" points="417.1,-495.3 415,-489.3 412.9,-495.3 417.1,-495.3"/>
</g>
<!-- src/graph&#45;utl/filter&#45;bank.js -->
<g id="node9" class="node">
<title>src/graph&#45;utl/filter&#45;bank.js</title>
<g id="a_node9"><a xlink:href="https://github.com/sverweij/dependency-cruiser/blob/develop/src/graph-utl/filter-bank.js" xlink:title="filter&#45;bank.js">
<path fill="#ffcccc" stroke="black" d="M331.5,-546C331.5,-546 277.5,-546 277.5,-546 274.5,-546 271.5,-543 271.5,-540 271.5,-540 271.5,-534 271.5,-534 271.5,-531 274.5,-528 277.5,-528 277.5,-528 331.5,-528 331.5,-528 334.5,-528 337.5,-531 337.5,-534 337.5,-534 337.5,-540 337.5,-540 337.5,-543 334.5,-546 331.5,-546"/>
<text text-anchor="start" x="279.5" y="-534.8" font-family="Helvetica,sans-Serif" font-size="9.00">filter&#45;bank.js</text>
</a>
</g>
</g>
<!-- src/graph&#45;utl/filter&#45;bank.js&#45;&gt;src/graph&#45;utl/add&#45;focus.js -->
<g id="edge9" class="edge">
<title>src/graph&#45;utl/filter&#45;bank.js&#45;&gt;src/graph&#45;utl/add&#45;focus.js</title>
<path fill="none" stroke="#770000" stroke-width="2" stroke-opacity="0.466667" d="M337.64,-537C337.64,-537 416.62,-537 416.62,-537"/>
<polygon fill="#770000" fill-opacity="0.466667" stroke="#770000" stroke-width="2" stroke-opacity="0.466667" points="416.62,-539.1 422.62,-537 416.62,-534.9 416.62,-539.1"/>
</g>
<!-- src/graph&#45;utl/filter&#45;bank.js&#45;&gt;src/graph&#45;utl/indexed&#45;module&#45;graph.js -->
<g id="edge10" class="edge">
<title>src/graph&#45;utl/filter&#45;bank.js&#45;&gt;src/graph&#45;utl/indexed&#45;module&#45;graph.js</title>
<path fill="none" stroke="#770000" stroke-width="2" stroke-opacity="0.466667" d="M305,-546.24C305,-549.33 305,-552 305,-552 305,-552 546.61,-552 546.61,-552"/>
<polygon fill="#770000" fill-opacity="0.466667" stroke="#770000" stroke-width="2" stroke-opacity="0.466667" points="546.61,-554.1 552.61,-552 546.61,-549.9 546.61,-554.1"/>
</g>
<!-- src/graph&#45;utl/filter&#45;bank.js&#45;&gt;src/graph&#45;utl/match&#45;facade.js -->
<g id="edge11" class="edge">
<title>src/graph&#45;utl/filter&#45;bank.js&#45;&gt;src/graph&#45;utl/match&#45;facade.js</title>
<path fill="none" stroke="#770000" stroke-width="2" stroke-opacity="0.466667" d="M305,-527.52C305,-523.48 305,-519.67 305,-519.67 305,-519.67 565.56,-519.67 565.56,-519.67"/>
<polygon fill="#770000" fill-opacity="0.466667" stroke="#770000" stroke-width="2" stroke-opacity="0.466667" points="565.56,-521.77 571.56,-519.67 565.56,-517.57 565.56,-521.77"/>
</g>
<!-- src/graph&#45;utl/rule&#45;set.js -->
<g id="node10" class="node">
<title>src/graph&#45;utl/rule&#45;set.js</title>
<g id="a_node10"><a xlink:href="https://github.com/sverweij/dependency-cruiser/blob/develop/src/graph-utl/rule-set.js" xlink:title="rule&#45;set.js">
<path fill="#ffcccc" stroke="black" d="M326.5,-576C326.5,-576 282.5,-576 282.5,-576 279.5,-576 276.5,-573 276.5,-570 276.5,-570 276.5,-564 276.5,-564 276.5,-561 279.5,-558 282.5,-558 282.5,-558 326.5,-558 326.5,-558 329.5,-558 332.5,-561 332.5,-564 332.5,-564 332.5,-570 332.5,-570 332.5,-573 329.5,-576 326.5,-576"/>
<text text-anchor="start" x="284.5" y="-564.8" font-family="Helvetica,sans-Serif" font-size="9.00">rule&#45;set.js</text>
</a>
</g>
</g>
<!-- src/graph&#45;utl/strip&#45;self&#45;transitions.js -->
<g id="node11" class="node">
<title>src/graph&#45;utl/strip&#45;self&#45;transitions.js</title>
<g id="a_node11"><a xlink:href="https://github.com/sverweij/dependency-cruiser/blob/develop/src/graph-utl/strip-self-transitions.js" xlink:title="strip&#45;self&#45;transitions.js">
<path fill="#ffcccc" stroke="black" d="M351,-486C351,-486 258,-486 258,-486 255,-486 252,-483 252,-480 252,-480 252,-474 252,-474 252,-471 255,-468 258,-468 258,-468 351,-468 351,-468 354,-468 357,-471 357,-474 357,-474 357,-480 357,-480 357,-483 354,-486 351,-486"/>
<text text-anchor="start" x="260" y="-474.8" font-family="Helvetica,sans-Serif" font-size="9.00">strip&#45;self&#45;transitions.js</text>
</a>
</g>
</g>
<!-- src/report/anon -->
<g id="node12" class="node">
<title>src/report/anon</title>
<g id="a_node12"><a xlink:href="https://github.com/sverweij/dependency-cruiser/blob/develop/src/report/anon" xlink:title="anon">
<polygon fill="#ffccff" stroke="black" points="152,-42 100,-42 98,-40 98,-24 150,-24 152,-26 152,-42"/>
<polyline fill="none" stroke="black" points="150,-40 98,-40"/>
<polyline fill="none" stroke="black" points="150,-40 150,-24"/>
<polyline fill="none" stroke="black" points="150,-40 152,-42"/>
<text text-anchor="start" x="114" y="-30.8" font-family="Helvetica,sans-Serif" font-size="9.00">anon</text>
</a>
</g>
</g>
<!-- src/report/baseline.js -->
<g id="node13" class="node">
<title>src/report/baseline.js</title>
<g id="a_node13"><a xlink:href="https://github.com/sverweij/dependency-cruiser/blob/develop/src/report/baseline.js" xlink:title="baseline.js">
<path fill="#ffccff" stroke="black" d="M149.5,-72C149.5,-72 100.5,-72 100.5,-72 97.5,-72 94.5,-69 94.5,-66 94.5,-66 94.5,-60 94.5,-60 94.5,-57 97.5,-54 100.5,-54 100.5,-54 149.5,-54 149.5,-54 152.5,-54 155.5,-57 155.5,-60 155.5,-60 155.5,-66 155.5,-66 155.5,-69 152.5,-72 149.5,-72"/>
<text text-anchor="start" x="102.5" y="-60.8" font-family="Helvetica,sans-Serif" font-size="9.00">baseline.js</text>
</a>
</g>
</g>
<!-- src/report/csv.js -->
<g id="node14" class="node">
<title>src/report/csv.js</title>
<g id="a_node14"><a xlink:href="https://github.com/sverweij/dependency-cruiser/blob/develop/src/report/csv.js" xlink:title="csv.js">
<path fill="#ffccff" stroke="black" d="M222.5,-94C222.5,-94 180.5,-94 180.5,-94 177.5,-94 174.5,-91 174.5,-88 174.5,-88 174.5,-82 174.5,-82 174.5,-79 177.5,-76 180.5,-76 180.5,-76 222.5,-76 222.5,-76 225.5,-76 228.5,-79 228.5,-82 228.5,-82 228.5,-88 228.5,-88 228.5,-91 225.5,-94 222.5,-94"/>
<text text-anchor="start" x="190" y="-82.8" font-family="Helvetica,sans-Serif" font-size="9.00">csv.js</text>
</a>
</g>
</g>
<!-- src/report/utl -->
<g id="node15" class="node">
<title>src/report/utl</title>
<g id="a_node15"><a xlink:href="https://github.com/sverweij/dependency-cruiser/blob/develop/src/report/utl" xlink:title="utl">
<polygon fill="#ffccff" stroke="black" points="331.5,-169 279.5,-169 277.5,-167 277.5,-151 329.5,-151 331.5,-153 331.5,-169"/>
<polyline fill="none" stroke="black" points="329.5,-167 277.5,-167"/>
<polyline fill="none" stroke="black" points="329.5,-167 329.5,-151"/>
<polyline fill="none" stroke="black" points="329.5,-167 331.5,-169"/>
<text text-anchor="start" x="299.5" y="-157.8" font-family="Helvetica,sans-Serif" font-size="9.00">utl</text>
</a>
</g>
</g>
<!-- src/report/csv.js&#45;&gt;src/report/utl -->
<g id="edge12" class="edge">
<title>src/report/csv.js&#45;&gt;src/report/utl</title>
<path fill="none" stroke="#ff00ff" stroke-width="2" stroke-opacity="0.466667" d="M228.73,-85C262.03,-85 314,-85 314,-85 314,-85 314,-141.47 314,-141.47"/>
<polygon fill="#ff00ff" fill-opacity="0.466667" stroke="#ff00ff" stroke-width="2" stroke-opacity="0.466667" points="311.9,-141.47 314,-147.47 316.1,-141.47 311.9,-141.47"/>
</g>
<!-- src/report/dot -->
<g id="node16" class="node">
<title>src/report/dot</title>
<g id="a_node16"><a xlink:href="https://github.com/sverweij/dependency-cruiser/blob/develop/src/report/dot" xlink:title="dot">
<polygon fill="#ffccff" stroke="black" points="228.5,-366 176.5,-366 174.5,-364 174.5,-348 226.5,-348 228.5,-350 228.5,-366"/>
<polyline fill="none" stroke="black" points="226.5,-364 174.5,-364"/>
<polyline fill="none" stroke="black" points="226.5,-364 226.5,-348"/>
<polyline fill="none" stroke="black" points="226.5,-364 228.5,-366"/>
<text text-anchor="start" x="195" y="-354.8" font-family="Helvetica,sans-Serif" font-size="9.00">dot</text>
</a>
</g>
</g>
<!-- src/report/dot&#45;&gt;src/graph&#45;utl/compare.js -->
<g id="edge15" class="edge">
<title>src/report/dot&#45;&gt;src/graph&#45;utl/compare.js</title>
<path fill="none" stroke="#770000" stroke-width="2" stroke-opacity="0.466667" d="M228.7,-353.14C320.91,-353.14 616,-353.14 616,-353.14 616,-353.14 616,-428.63 616,-428.63"/>
<polygon fill="#770000" fill-opacity="0.466667" stroke="#770000" stroke-width="2" stroke-opacity="0.466667" points="613.9,-428.63 616,-434.63 618.1,-428.63 613.9,-428.63"/>
</g>
<!-- src/report/dot&#45;&gt;src/graph&#45;utl/consolidate&#45;to&#45;folder.js -->
<g id="edge18" class="edge">
<title>src/report/dot&#45;&gt;src/graph&#45;utl/consolidate&#45;to&#45;folder.js</title>
<path fill="none" stroke="#770000" stroke-width="2" stroke-opacity="0.466667" d="M228.73,-355.71C245.57,-355.71 264,-355.71 264,-355.71 264,-355.71 264,-428.55 264,-428.55"/>
<polygon fill="#770000" fill-opacity="0.466667" stroke="#770000" stroke-width="2" stroke-opacity="0.466667" points="261.9,-428.55 264,-434.55 266.1,-428.55 261.9,-428.55"/>
</g>
<!-- src/report/dot&#45;&gt;src/graph&#45;utl/consolidate&#45;to&#45;pattern.js -->
<g id="edge16" class="edge">
<title>src/report/dot&#45;&gt;src/graph&#45;utl/consolidate&#45;to&#45;pattern.js</title>
<path fill="none" stroke="#770000" stroke-width="2" stroke-opacity="0.466667" d="M228.75,-360.86C234.57,-360.86 239,-360.86 239,-360.86 239,-360.86 239,-507 239,-507 239,-507 239.75,-507 239.75,-507"/>
<polygon fill="#770000" fill-opacity="0.466667" stroke="#770000" stroke-width="2" stroke-opacity="0.466667" points="237.49,-509.1 243.49,-507 237.49,-504.9 237.49,-509.1"/>
</g>
<!-- src/report/dot&#45;&gt;src/graph&#45;utl/filter&#45;bank.js -->
<g id="edge13" class="edge">
<title>src/report/dot&#45;&gt;src/graph&#45;utl/filter&#45;bank.js</title>
<path fill="none" stroke="#770000" stroke-width="2" stroke-opacity="0.466667" d="M228.86,-363.43C232.5,-363.43 235,-363.43 235,-363.43 235,-363.43 235,-537 235,-537 235,-537 262.35,-537 262.35,-537"/>
<polygon fill="#770000" fill-opacity="0.466667" stroke="#770000" stroke-width="2" stroke-opacity="0.466667" points="262.35,-539.1 268.35,-537 262.35,-534.9 262.35,-539.1"/>
</g>
<!-- src/report/dot&#45;&gt;src/graph&#45;utl/strip&#45;self&#45;transitions.js -->
<g id="edge17" class="edge">
<title>src/report/dot&#45;&gt;src/graph&#45;utl/strip&#45;self&#45;transitions.js</title>
<path fill="none" stroke="#770000" stroke-width="2" stroke-opacity="0.466667" d="M228.95,-358.29C236.67,-358.29 243,-358.29 243,-358.29 243,-358.29 243,-477 243,-477 243,-477 243.86,-477 243.86,-477"/>
<polygon fill="#770000" fill-opacity="0.466667" stroke="#770000" stroke-width="2" stroke-opacity="0.466667" points="242.52,-479.1 248.52,-477 242.52,-474.9 242.52,-479.1"/>
</g>
<!-- src/report/dot&#45;&gt;src/report/utl -->
<g id="edge14" class="edge">
<title>src/report/dot&#45;&gt;src/report/utl</title>
<path fill="none" stroke="#ff00ff" stroke-width="2" stroke-opacity="0.466667" d="M228.96,-350.57C259.63,-350.57 305,-350.57 305,-350.57 305,-350.57 305,-178.48 305,-178.48"/>
<polygon fill="#ff00ff" fill-opacity="0.466667" stroke="#ff00ff" stroke-width="2" stroke-opacity="0.466667" points="307.1,-178.48 305,-172.48 302.9,-178.48 307.1,-178.48"/>
</g>
<!-- src/report/error&#45;html -->
<g id="node17" class="node">
<title>src/report/error&#45;html</title>
<g id="a_node17"><a xlink:href="https://github.com/sverweij/dependency-cruiser/blob/develop/src/report/error-html" xlink:title="error&#45;html">
<polygon fill="#ffccff" stroke="black" points="229.5,-124 175.5,-124 173.5,-122 173.5,-106 227.5,-106 229.5,-108 229.5,-124"/>
<polyline fill="none" stroke="black" points="227.5,-122 173.5,-122"/>
<polyline fill="none" stroke="black" points="227.5,-122 227.5,-106"/>
<polyline fill="none" stroke="black" points="227.5,-122 229.5,-124"/>
<text text-anchor="start" x="181.5" y="-112.8" font-family="Helvetica,sans-Serif" font-size="9.00">error&#45;html</text>
</a>
</g>
</g>
<!-- src/report/error&#45;html&#45;&gt;src/report/utl -->
<g id="edge19" class="edge">
<title>src/report/error&#45;html&#45;&gt;src/report/utl</title>
<path fill="none" stroke="#ff00ff" stroke-width="2" stroke-opacity="0.466667" d="M229.85,-115C257.69,-115 296,-115 296,-115 296,-115 296,-141.87 296,-141.87"/>
<polygon fill="#ff00ff" fill-opacity="0.466667" stroke="#ff00ff" stroke-width="2" stroke-opacity="0.466667" points="293.9,-141.87 296,-147.87 298.1,-141.87 293.9,-141.87"/>
</g>
<!-- src/report/error&#45;long.js -->
<g id="node18" class="node">
<title>src/report/error&#45;long.js</title>
<g id="a_node18"><a xlink:href="https://github.com/sverweij/dependency-cruiser/blob/develop/src/report/error-long.js" xlink:title="error&#45;long.js">
<path fill="#ffccff" stroke="black" d="M152,-262C152,-262 98,-262 98,-262 95,-262 92,-259 92,-256 92,-256 92,-250 92,-250 92,-247 95,-244 98,-244 98,-244 152,-244 152,-244 155,-244 158,-247 158,-250 158,-250 158,-256 158,-256 158,-259 155,-262 152,-262"/>
<text text-anchor="start" x="100" y="-250.8" font-family="Helvetica,sans-Serif" font-size="9.00">error&#45;long.js</text>
</a>
</g>
</g>
<!-- src/report/error.js -->
<g id="node19" class="node">
<title>src/report/error.js</title>
<g id="a_node19"><a xlink:href="https://github.com/sverweij/dependency-cruiser/blob/develop/src/report/error.js" xlink:title="error.js">
<path fill="#ffccff" stroke="black" d="M222.5,-396C222.5,-396 180.5,-396 180.5,-396 177.5,-396 174.5,-393 174.5,-390 174.5,-390 174.5,-384 174.5,-384 174.5,-381 177.5,-378 180.5,-378 180.5,-378 222.5,-378 222.5,-378 225.5,-378 228.5,-381 228.5,-384 228.5,-384 228.5,-390 228.5,-390 228.5,-393 225.5,-396 222.5,-396"/>
<text text-anchor="start" x="187" y="-384.8" font-family="Helvetica,sans-Serif" font-size="9.00">error.js</text>
</a>
</g>
</g>
<!-- src/report/error&#45;long.js&#45;&gt;src/report/error.js -->
<g id="edge20" class="edge">
<title>src/report/error&#45;long.js&#45;&gt;src/report/error.js</title>
<path fill="none" stroke="#ff00ff" stroke-width="2" stroke-opacity="0.466667" d="M158.48,-253C162.93,-253 166,-253 166,-253 166,-253 166,-390 166,-390 166,-390 166.82,-390 166.82,-390"/>
<polygon fill="#ff00ff" fill-opacity="0.466667" stroke="#ff00ff" stroke-width="2" stroke-opacity="0.466667" points="165.21,-392.1 171.21,-390 165.21,-387.9 165.21,-392.1"/>
</g>
<!-- src/report/error.js&#45;&gt;src/graph&#45;utl/rule&#45;set.js -->
<g id="edge21" class="edge">
<title>src/report/error.js&#45;&gt;src/graph&#45;utl/rule&#45;set.js</title>
<path fill="none" stroke="#770000" stroke-width="2" stroke-opacity="0.466667" d="M211,-396.17C211,-432.85 211,-567 211,-567 211,-567 267.17,-567 267.17,-567"/>
<polygon fill="#770000" fill-opacity="0.466667" stroke="#770000" stroke-width="2" stroke-opacity="0.466667" points="267.17,-569.1 273.17,-567 267.17,-564.9 267.17,-569.1"/>
</g>
<!-- src/report/error.js&#45;&gt;src/report/utl -->
<g id="edge23" class="edge">
<title>src/report/error.js&#45;&gt;src/report/utl</title>
<path fill="none" stroke="#ff00ff" stroke-width="2" stroke-opacity="0.466667" d="M228.81,-387C263.25,-387 318,-387 318,-387 318,-387 318,-178.49 318,-178.49"/>
<polygon fill="#ff00ff" fill-opacity="0.466667" stroke="#ff00ff" stroke-width="2" stroke-opacity="0.466667" points="320.1,-178.49 318,-172.49 315.9,-178.49 320.1,-178.49"/>
</g>
<!-- src/utl/wrap&#45;and&#45;indent.js -->
<g id="node20" class="node">
<title>src/utl/wrap&#45;and&#45;indent.js</title>
<g id="a_node20"><a xlink:href="https://github.com/sverweij/dependency-cruiser/blob/develop/src/utl/wrap-and-indent.js" xlink:title="utl&#45;module&#45;not&#45;shared&#45;enough">
<path fill="#cccccc" stroke="blue" d="M345,-636C345,-636 264,-636 264,-636 261,-636 258,-633 258,-630 258,-630 258,-624 258,-624 258,-621 261,-618 264,-618 264,-618 345,-618 345,-618 348,-618 351,-621 351,-624 351,-624 351,-630 351,-630 351,-633 348,-636 345,-636"/>
<text text-anchor="start" x="266" y="-624.8" font-family="Helvetica,sans-Serif" font-size="9.00" fill="blue">wrap&#45;and&#45;indent.js</text>
</a>
</g>
</g>
<!-- src/report/error.js&#45;&gt;src/utl/wrap&#45;and&#45;indent.js -->
<g id="edge22" class="edge">
<title>src/report/error.js&#45;&gt;src/utl/wrap&#45;and&#45;indent.js</title>
<path fill="none" stroke="#aaaaaa" stroke-width="2" stroke-opacity="0.466667" d="M193,-396.41C193,-440.78 193,-627 193,-627 193,-627 248.51,-627 248.51,-627"/>
<polygon fill="#aaaaaa" fill-opacity="0.466667" stroke="#aaaaaa" stroke-width="2" stroke-opacity="0.466667" points="248.51,-629.1 254.51,-627 248.51,-624.9 248.51,-629.1"/>
</g>
<!-- src/report/html -->
<g id="node21" class="node">
<title>src/report/html</title>
<g id="a_node21"><a xlink:href="https://github.com/sverweij/dependency-cruiser/blob/develop/src/report/html" xlink:title="html">
<polygon fill="#ffccff" stroke="black" points="228.5,-154 176.5,-154 174.5,-152 174.5,-136 226.5,-136 228.5,-138 228.5,-154"/>
<polyline fill="none" stroke="black" points="226.5,-152 174.5,-152"/>
<polyline fill="none" stroke="black" points="226.5,-152 226.5,-136"/>
<polyline fill="none" stroke="black" points="226.5,-152 228.5,-154"/>
<text text-anchor="start" x="192.5" y="-142.8" font-family="Helvetica,sans-Serif" font-size="9.00">html</text>
</a>
</g>
</g>
<!-- src/report/html&#45;&gt;src/report/utl -->
<g id="edge24" class="edge">
<title>src/report/html&#45;&gt;src/report/utl</title>
<path fill="none" stroke="#ff00ff" stroke-width="2" stroke-opacity="0.466667" d="M202,-154.24C202,-157.33 202,-160 202,-160 202,-160 268,-160 268,-160"/>
<polygon fill="#ff00ff" fill-opacity="0.466667" stroke="#ff00ff" stroke-width="2" stroke-opacity="0.466667" points="268,-162.1 274,-160 268,-157.9 268,-162.1"/>
</g>
<!-- src/report/identity.js -->
<g id="node22" class="node">
<title>src/report/identity.js</title>
<g id="a_node22"><a xlink:href="https://github.com/sverweij/dependency-cruiser/blob/develop/src/report/identity.js" xlink:title="identity.js">
<path fill="#ffccff" stroke="black" d="M146.5,-202C146.5,-202 103.5,-202 103.5,-202 100.5,-202 97.5,-199 97.5,-196 97.5,-196 97.5,-190 97.5,-190 97.5,-187 100.5,-184 103.5,-184 103.5,-184 146.5,-184 146.5,-184 149.5,-184 152.5,-187 152.5,-190 152.5,-190 152.5,-196 152.5,-196 152.5,-199 149.5,-202 146.5,-202"/>
<text text-anchor="start" x="105.5" y="-190.8" font-family="Helvetica,sans-Serif" font-size="9.00">identity.js</text>
</a>
</g>
</g>
<!-- src/report/index.js -->
<g id="node23" class="node">
<title>src/report/index.js</title>
<g id="a_node23"><a xlink:href="https://github.com/sverweij/dependency-cruiser/blob/develop/src/report/index.js" xlink:title="index.js">
<path fill="#ffccff" stroke="black" d="M72,-191C72,-191 30,-191 30,-191 27,-191 24,-188 24,-185 24,-185 24,-179 24,-179 24,-176 27,-173 30,-173 30,-173 72,-173 72,-173 75,-173 78,-176 78,-179 78,-179 78,-185 78,-185 78,-188 75,-191 72,-191"/>
<text text-anchor="start" x="35" y="-179.8" font-family="Helvetica,sans-Serif" font-size="9.00">index.js</text>
</a>
</g>
</g>
<!-- src/report/index.js&#45;&gt;src/report/anon -->
<g id="edge25" class="edge">
<title>src/report/index.js&#45;&gt;src/report/anon</title>
<path fill="none" stroke="#ff00ff" stroke-width="2" stroke-opacity="0.466667" d="M33,-172.68C33,-140.06 33,-33 33,-33 33,-33 88.87,-33 88.87,-33"/>
<polygon fill="#ff00ff" fill-opacity="0.466667" stroke="#ff00ff" stroke-width="2" stroke-opacity="0.466667" points="88.87,-35.1 94.87,-33 88.87,-30.9 88.87,-35.1"/>
</g>
<!-- src/report/index.js&#45;&gt;src/report/baseline.js -->
<g id="edge26" class="edge">
<title>src/report/index.js&#45;&gt;src/report/baseline.js</title>
<path fill="none" stroke="#ff00ff" stroke-width="2" stroke-opacity="0.466667" d="M42,-172.66C42,-144.61 42,-63 42,-63 42,-63 85.07,-63 85.07,-63"/>
<polygon fill="#ff00ff" fill-opacity="0.466667" stroke="#ff00ff" stroke-width="2" stroke-opacity="0.466667" points="85.07,-65.1 91.07,-63 85.07,-60.9 85.07,-65.1"/>
</g>
<!-- src/report/index.js&#45;&gt;src/report/csv.js -->
<g id="edge27" class="edge">
<title>src/report/index.js&#45;&gt;src/report/csv.js</title>
<path fill="none" stroke="#ff00ff" stroke-width="2" stroke-opacity="0.466667" d="M51,-172.7C51,-148.42 51,-85 51,-85 51,-85 165.22,-85 165.22,-85"/>
<polygon fill="#ff00ff" fill-opacity="0.466667" stroke="#ff00ff" stroke-width="2" stroke-opacity="0.466667" points="165.22,-87.1 171.22,-85 165.22,-82.9 165.22,-87.1"/>
</g>
<!-- src/report/index.js&#45;&gt;src/report/dot -->
<g id="edge28" class="edge">
<title>src/report/index.js&#45;&gt;src/report/dot</title>
<path fill="none" stroke="#ff00ff" stroke-width="2" stroke-opacity="0.466667" d="M38,-191.02C38,-227.09 38,-359 38,-359 38,-359 165.11,-359 165.11,-359"/>
<polygon fill="#ff00ff" fill-opacity="0.466667" stroke="#ff00ff" stroke-width="2" stroke-opacity="0.466667" points="165.11,-361.1 171.11,-359 165.11,-356.9 165.11,-361.1"/>
</g>
<!-- src/report/index.js&#45;&gt;src/report/error&#45;html -->
<g id="edge30" class="edge">
<title>src/report/index.js&#45;&gt;src/report/error&#45;html</title>
<path fill="none" stroke="#ff00ff" stroke-width="2" stroke-opacity="0.466667" d="M78.4,-175.75C111.56,-175.75 163,-175.75 163,-175.75 163,-175.75 163,-120 163,-120 163,-120 164.09,-120 164.09,-120"/>
<polygon fill="#ff00ff" fill-opacity="0.466667" stroke="#ff00ff" stroke-width="2" stroke-opacity="0.466667" points="164.09,-122.1 170.09,-120 164.09,-117.9 164.09,-122.1"/>
</g>
<!-- src/report/index.js&#45;&gt;src/report/error&#45;long.js -->
<g id="edge31" class="edge">
<title>src/report/index.js&#45;&gt;src/report/error&#45;long.js</title>
<path fill="none" stroke="#ff00ff" stroke-width="2" stroke-opacity="0.466667" d="M65,-191.28C65,-210.53 65,-253 65,-253 65,-253 82.81,-253 82.81,-253"/>
<polygon fill="#ff00ff" fill-opacity="0.466667" stroke="#ff00ff" stroke-width="2" stroke-opacity="0.466667" points="82.81,-255.1 88.81,-253 82.81,-250.9 82.81,-255.1"/>
</g>
<!-- src/report/index.js&#45;&gt;src/report/error.js -->
<g id="edge29" class="edge">
<title>src/report/index.js&#45;&gt;src/report/error.js</title>
<path fill="none" stroke="#ff00ff" stroke-width="2" stroke-opacity="0.466667" d="M78.37,-181.25C113.23,-181.25 169,-181.25 169,-181.25 169,-181.25 169,-384 169,-384 169,-384 169.51,-384 169.51,-384"/>
<polygon fill="#ff00ff" fill-opacity="0.466667" stroke="#ff00ff" stroke-width="2" stroke-opacity="0.466667" points="165.05,-386.1 171.05,-384 165.05,-381.9 165.05,-386.1"/>
</g>
<!-- src/report/index.js&#45;&gt;src/report/html -->
<g id="edge32" class="edge">
<title>src/report/index.js&#45;&gt;src/report/html</title>
<path fill="none" stroke="#ff00ff" stroke-width="2" stroke-opacity="0.466667" d="M69,-172.66C69,-161.7 69,-145 69,-145 69,-145 165.02,-145 165.02,-145"/>
<polygon fill="#ff00ff" fill-opacity="0.466667" stroke="#ff00ff" stroke-width="2" stroke-opacity="0.466667" points="165.02,-147.1 171.02,-145 165.02,-142.9 165.02,-147.1"/>
</g>
<!-- src/report/index.js&#45;&gt;src/report/identity.js -->
<g id="edge33" class="edge">
<title>src/report/index.js&#45;&gt;src/report/identity.js</title>
<path fill="none" stroke="#ff00ff" stroke-width="2" stroke-opacity="0.466667" d="M78.13,-187.5C78.13,-187.5 88.35,-187.5 88.35,-187.5"/>
<polygon fill="#ff00ff" fill-opacity="0.466667" stroke="#ff00ff" stroke-width="2" stroke-opacity="0.466667" points="88.35,-189.6 94.35,-187.5 88.35,-185.4 88.35,-189.6"/>
</g>
<!-- src/report/json.js -->
<g id="node24" class="node">
<title>src/report/json.js</title>
<g id="a_node24"><a xlink:href="https://github.com/sverweij/dependency-cruiser/blob/develop/src/report/json.js" xlink:title="json.js">
<path fill="#ffccff" stroke="black" d="M146,-232C146,-232 104,-232 104,-232 101,-232 98,-229 98,-226 98,-226 98,-220 98,-220 98,-217 101,-214 104,-214 104,-214 146,-214 146,-214 149,-214 152,-217 152,-220 152,-220 152,-226 152,-226 152,-229 149,-232 146,-232"/>
<text text-anchor="start" x="111.5" y="-220.8" font-family="Helvetica,sans-Serif" font-size="9.00">json.js</text>
</a>
</g>
</g>
<!-- src/report/index.js&#45;&gt;src/report/json.js -->
<g id="edge34" class="edge">
<title>src/report/index.js&#45;&gt;src/report/json.js</title>
<path fill="none" stroke="#ff00ff" stroke-width="2" stroke-opacity="0.466667" d="M72,-191.1C72,-203.18 72,-223 72,-223 72,-223 88.54,-223 88.54,-223"/>
<polygon fill="#ff00ff" fill-opacity="0.466667" stroke="#ff00ff" stroke-width="2" stroke-opacity="0.466667" points="88.54,-225.1 94.54,-223 88.54,-220.9 88.54,-225.1"/>
</g>
<!-- src/report/markdown.js -->
<g id="node25" class="node">
<title>src/report/markdown.js</title>
<g id="a_node25"><a xlink:href="https://github.com/sverweij/dependency-cruiser/blob/develop/src/report/markdown.js" xlink:title="markdown.js">
<path fill="#ffccff" stroke="black" d="M153,-130C153,-130 97,-130 97,-130 94,-130 91,-127 91,-124 91,-124 91,-118 91,-118 91,-115 94,-112 97,-112 97,-112 153,-112 153,-112 156,-112 159,-115 159,-118 159,-118 159,-124 159,-124 159,-127 156,-130 153,-130"/>
<text text-anchor="start" x="99" y="-118.8" font-family="Helvetica,sans-Serif" font-size="9.00">markdown.js</text>
</a>
</g>
</g>
<!-- src/report/index.js&#45;&gt;src/report/markdown.js -->
<g id="edge35" class="edge">
<title>src/report/index.js&#45;&gt;src/report/markdown.js</title>
<path fill="none" stroke="#ff00ff" stroke-width="2" stroke-opacity="0.466667" d="M60,-172.74C60,-155.67 60,-121 60,-121 60,-121 81.57,-121 81.57,-121"/>
<polygon fill="#ff00ff" fill-opacity="0.466667" stroke="#ff00ff" stroke-width="2" stroke-opacity="0.466667" points="81.57,-123.1 87.57,-121 81.57,-118.9 81.57,-123.1"/>
</g>
<!-- src/report/mermaid.js -->
<g id="node26" class="node">
<title>src/report/mermaid.js</title>
<g id="a_node26"><a xlink:href="https://github.com/sverweij/dependency-cruiser/blob/develop/src/report/mermaid.js" xlink:title="mermaid.js">
<path fill="#ffccff" stroke="black" d="M150,-292C150,-292 100,-292 100,-292 97,-292 94,-289 94,-286 94,-286 94,-280 94,-280 94,-277 97,-274 100,-274 100,-274 150,-274 150,-274 153,-274 156,-277 156,-280 156,-280 156,-286 156,-286 156,-289 153,-292 150,-292"/>
<text text-anchor="start" x="102" y="-280.8" font-family="Helvetica,sans-Serif" font-size="9.00">mermaid.js</text>
</a>
</g>
</g>
<!-- src/report/index.js&#45;&gt;src/report/mermaid.js -->
<g id="edge36" class="edge">
<title>src/report/index.js&#45;&gt;src/report/mermaid.js</title>
<path fill="none" stroke="#ff00ff" stroke-width="2" stroke-opacity="0.466667" d="M58,-191.32C58,-216.32 58,-283 58,-283 58,-283 84.83,-283 84.83,-283"/>
<polygon fill="#ff00ff" fill-opacity="0.466667" stroke="#ff00ff" stroke-width="2" stroke-opacity="0.466667" points="84.83,-285.1 90.83,-283 84.83,-280.9 84.83,-285.1"/>
</g>
<!-- src/report/metrics.js -->
<g id="node27" class="node">
<title>src/report/metrics.js</title>
<g id="a_node27"><a xlink:href="https://github.com/sverweij/dependency-cruiser/blob/develop/src/report/metrics.js" xlink:title="metrics.js">
<path fill="#ffccff" stroke="black" d="M146.5,-322C146.5,-322 103.5,-322 103.5,-322 100.5,-322 97.5,-319 97.5,-316 97.5,-316 97.5,-310 97.5,-310 97.5,-307 100.5,-304 103.5,-304 103.5,-304 146.5,-304 146.5,-304 149.5,-304 152.5,-307 152.5,-310 152.5,-310 152.5,-316 152.5,-316 152.5,-319 149.5,-322 146.5,-322"/>
<text text-anchor="start" x="105.5" y="-310.8" font-family="Helvetica,sans-Serif" font-size="9.00">metrics.js</text>
</a>
</g>
</g>
<!-- src/report/index.js&#45;&gt;src/report/metrics.js -->
<g id="edge37" class="edge">
<title>src/report/index.js&#45;&gt;src/report/metrics.js</title>
<path fill="none" stroke="#ff00ff" stroke-width="2" stroke-opacity="0.466667" d="M51,-191.42C51,-221.46 51,-313 51,-313 51,-313 88,-313 88,-313"/>
<polygon fill="#ff00ff" fill-opacity="0.466667" stroke="#ff00ff" stroke-width="2" stroke-opacity="0.466667" points="88,-315.1 94,-313 88,-310.9 88,-315.1"/>
</g>
<!-- src/report/plugins -->
<g id="node28" class="node">
<title>src/report/plugins</title>
<g id="a_node28"><a xlink:href="https://github.com/sverweij/dependency-cruiser/blob/develop/src/report/plugins" xlink:title="plugins">
<polygon fill="#ffccff" stroke="black" points="152,-352 100,-352 98,-350 98,-334 150,-334 152,-336 152,-352"/>
<polyline fill="none" stroke="black" points="150,-350 98,-350"/>
<polyline fill="none" stroke="black" points="150,-350 150,-334"/>
<polyline fill="none" stroke="black" points="150,-350 152,-352"/>
<text text-anchor="start" x="109.5" y="-340.8" font-family="Helvetica,sans-Serif" font-size="9.00">plugins</text>
</a>
</g>
</g>
<!-- src/report/index.js&#45;&gt;src/report/plugins -->
<g id="edge38" class="edge">
<title>src/report/index.js&#45;&gt;src/report/plugins</title>
<path fill="none" stroke="#ff00ff" stroke-width="2" stroke-opacity="0.466667" d="M45,-191.12C45,-225.18 45,-343 45,-343 45,-343 88.89,-343 88.89,-343"/>
<polygon fill="#ff00ff" fill-opacity="0.466667" stroke="#ff00ff" stroke-width="2" stroke-opacity="0.466667" points="88.89,-345.1 94.89,-343 88.89,-340.9 88.89,-345.1"/>
</g>
<!-- src/report/teamcity.js -->
<g id="node29" class="node">
<title>src/report/teamcity.js</title>
<g id="a_node29"><a xlink:href="https://github.com/sverweij/dependency-cruiser/blob/develop/src/report/teamcity.js" xlink:title="teamcity.js">
<path fill="#ffccff" stroke="black" d="M225,-184C225,-184 178,-184 178,-184 175,-184 172,-181 172,-178 172,-178 172,-172 172,-172 172,-169 175,-166 178,-166 178,-166 225,-166 225,-166 228,-166 231,-169 231,-172 231,-172 231,-178 231,-178 231,-181 228,-184 225,-184"/>
<text text-anchor="start" x="180" y="-172.8" font-family="Helvetica,sans-Serif" font-size="9.00">teamcity.js</text>
</a>
</g>
</g>
<!-- src/report/index.js&#45;&gt;src/report/teamcity.js -->
<g id="edge39" class="edge">
<title>src/report/index.js&#45;&gt;src/report/teamcity.js</title>
<path fill="none" stroke="#ff00ff" stroke-width="2" stroke-opacity="0.466667" d="M78.25,-178.5C78.25,-178.5 162.58,-178.5 162.58,-178.5"/>
<polygon fill="#ff00ff" fill-opacity="0.466667" stroke="#ff00ff" stroke-width="2" stroke-opacity="0.466667" points="162.58,-180.6 168.58,-178.5 162.58,-176.4 162.58,-180.6"/>
</g>
<!-- src/report/text.js -->
<g id="node30" class="node">
<title>src/report/text.js</title>
<g id="a_node30"><a xlink:href="https://github.com/sverweij/dependency-cruiser/blob/develop/src/report/text.js" xlink:title="text.js">
<path fill="#ffccff" stroke="black" d="M146,-396C146,-396 104,-396 104,-396 101,-396 98,-393 98,-390 98,-390 98,-384 98,-384 98,-381 101,-378 104,-378 104,-378 146,-378 146,-378 149,-378 152,-381 152,-384 152,-384 152,-390 152,-390 152,-393 149,-396 146,-396"/>
<text text-anchor="start" x="113" y="-384.8" font-family="Helvetica,sans-Serif" font-size="9.00">text.js</text>
</a>
</g>
</g>
<!-- src/report/index.js&#45;&gt;src/report/text.js -->
<g id="edge40" class="edge">
<title>src/report/index.js&#45;&gt;src/report/text.js</title>
<path fill="none" stroke="#ff00ff" stroke-width="2" stroke-opacity="0.466667" d="M31,-191.34C31,-231.45 31,-387 31,-387 31,-387 88.53,-387 88.53,-387"/>
<polygon fill="#ff00ff" fill-opacity="0.466667" stroke="#ff00ff" stroke-width="2" stroke-opacity="0.466667" points="88.53,-389.1 94.53,-387 88.53,-384.9 88.53,-389.1"/>
</g>
<!-- src/report/markdown.js&#45;&gt;src/report/error&#45;html -->
<g id="edge41" class="edge">
<title>src/report/markdown.js&#45;&gt;src/report/error&#45;html</title>
<path fill="none" stroke="#ff00ff" stroke-width="2" stroke-opacity="0.466667" d="M159.22,-116C159.22,-116 164,-116 164,-116"/>
<polygon fill="#ff00ff" fill-opacity="0.466667" stroke="#ff00ff" stroke-width="2" stroke-opacity="0.466667" points="164,-118.1 170,-116 164,-113.9 164,-118.1"/>
</g>
<!-- src/report/teamcity.js&#45;&gt;src/report/utl -->
<g id="edge42" class="edge">
<title>src/report/teamcity.js&#45;&gt;src/report/utl</title>
<path fill="none" stroke="#ff00ff" stroke-width="2" stroke-opacity="0.466667" d="M231.3,-176.5C257.34,-176.5 291,-176.5 291,-176.5 291,-176.5 291,-175.79 291,-175.79"/>
<polygon fill="#ff00ff" fill-opacity="0.466667" stroke="#ff00ff" stroke-width="2" stroke-opacity="0.466667" points="293.1,-178.43 291,-172.43 288.9,-178.43 293.1,-178.43"/>
</g>
</g>
</svg>
