<svg xmlns="http://www.w3.org/2000/svg" xmlns:xlink="http://www.w3.org/1999/xlink" width="698pt" height="710pt" viewBox="0 0 698 710"><g class="graph" transform="translate(4 706)"><path fill="#fff" d="M-4 4v-710h698V4z"/><g class="cluster"><path fill="#fff" stroke="#000" stroke-width="2" d="M20-8h650c6 0 12-6 12-12v-662c0-6-6-12-12-12H20c-6 0-12 6-12 12v662c0 6 6 12 12 12"/><text x="345" y="-681.45" font-family="Helvetica,sans-Serif" font-size="9" font-weight="bold" text-anchor="middle">src</text></g><g class="cluster"><path fill="#fff" stroke="#000" stroke-width="2" d="M221-376h441c6 0 12-6 12-12v-148c0-6-6-12-12-12H221c-6 0-12 6-12 12v148c0 6 6 12 12 12"/><text x="441.5" y="-535.45" font-family="Helvetica,sans-Serif" font-size="9" font-weight="bold" text-anchor="middle">graph-utl</text></g><g class="cluster"><path fill="#fff" stroke="#000" stroke-width="2" d="M28-16h272.88c6 0 12-6 12-12v-328c0-6-6-12-12-12H28c-6 0-12 6-12 12v328c0 6 6 12 12 12"/><text x="164.44" y="-355.45" font-family="Helvetica,sans-Serif" font-size="9" font-weight="bold" text-anchor="middle">report</text></g><g class="cluster"><path fill="#fff" stroke="#000" stroke-width="2" d="M556.88-556h92c6 0 12-6 12-12v-88c0-6-6-12-12-12h-92c-6 0-12 6-12 12v88c0 6 6 12 12 12"/><text x="597.62" y="-655.45" font-family="Helvetica,sans-Serif" font-size="9" font-weight="bold">utl</text></g><g class="node"><a xlink:href="https://github.com/sverweij/dependency-cruiser/blob/main/src/graph-utl/add-focus.mjs" xlink:title="add-focus.mjs"><path fill="#fcc" stroke="#000" d="M469.83-415.88h-61.16c-2.96 0-5.92 2.96-5.92 5.92v5.92c0 2.96 2.96 5.92 5.92 5.92h61.16c2.96 0 5.92-2.96 5.92-5.92v-5.92c0-2.96-2.96-5.92-5.92-5.92"/><text x="410.75" y="-403.32" font-family="Helvetica,sans-Serif" font-size="9">add-focus.mjs</text></a></g><g class="node"><a xlink:href="https://github.com/sverweij/dependency-cruiser/blob/main/src/graph-utl/indexed-module-graph.mjs" xlink:title="indexed-module-graph.mjs"><path fill="#fcc" stroke="#000" d="M660.08-401.88H545.67c-2.96 0-5.92 2.96-5.92 5.92v5.92c0 2.96 2.96 5.92 5.92 5.92h114.41c2.96 0 5.92-2.96 5.92-5.92v-5.92c0-2.96-2.96-5.92-5.92-5.92"/><text x="547.75" y="-389.32" font-family="Helvetica,sans-Serif" font-size="9">indexed-module-graph.mjs</text></a></g><g class="edge"><path fill="none" stroke="#700" stroke-opacity=".467" stroke-width="2" d="M476.03-408H547v.58"/><path fill="#700" fill-opacity=".467" stroke="#700" stroke-opacity=".467" stroke-width="2" d="m549.1-411.27-2.1 6-2.1-6z"/></g><g class="node"><a xlink:href="https://github.com/sverweij/dependency-cruiser/blob/main/src/graph-utl/match-facade.mjs" xlink:title="match-facade.mjs"><path fill="#fcc" stroke="#000" d="M640.96-431.88h-76.17c-2.96 0-5.91 2.96-5.91 5.92v5.92c0 2.96 2.95 5.92 5.91 5.92h76.17c2.96 0 5.92-2.96 5.92-5.92v-5.92c0-2.96-2.96-5.92-5.92-5.92"/><text x="566.88" y="-419.32" font-family="Helvetica,sans-Serif" font-size="9">match-facade.mjs</text></a></g><g class="edge"><path fill="none" stroke="#700" stroke-opacity=".467" stroke-width="2" d="M440-416.27v-2.8h109.77"/><path fill="#700" fill-opacity=".467" stroke="#700" stroke-opacity=".467" stroke-width="2" d="m549.77-421.18 6 2.1-6 2.1z"/></g><g class="node"><a xlink:href="https://github.com/sverweij/dependency-cruiser/blob/main/src/graph-utl/compare.mjs" xlink:title="compare.mjs"><path fill="#fcc" stroke="#000" d="M631.21-461.88h-56.67c-2.96 0-5.92 2.96-5.92 5.92v5.92c0 2.96 2.96 5.92 5.92 5.92h56.67c2.96 0 5.91-2.96 5.91-5.92v-5.92c0-2.96-2.95-5.92-5.91-5.92"/><text x="576.62" y="-449.32" font-family="Helvetica,sans-Serif" font-size="9">compare.mjs</text></a></g><g class="node"><a xlink:href="https://github.com/sverweij/dependency-cruiser/blob/main/src/graph-utl/consolidate-module-dependencies.mjs" xlink:title="consolidate-module-dependencies.mjs"><path fill="#fcc" stroke="#000" d="M520.83-460.88H357.67c-2.96 0-5.92 2.96-5.92 5.92v5.92c0 2.96 2.96 5.92 5.92 5.92h163.16c2.96 0 5.92-2.96 5.92-5.92v-5.92c0-2.96-2.96-5.92-5.92-5.92"/><text x="359.75" y="-448.32" font-family="Helvetica,sans-Serif" font-size="9">consolidate-module-dependencies.mjs</text></a></g><g class="edge"><path fill="none" stroke="#700" stroke-opacity=".467" stroke-width="2" d="M526.81-455.29h32.52"/><path fill="#700" fill-opacity=".467" stroke="#700" stroke-opacity=".467" stroke-width="2" d="m559.33-457.39 6 2.1-6 2.1z"/></g><g class="node"><a xlink:href="https://github.com/sverweij/dependency-cruiser/blob/main/src/utl/array-util.mjs" xlink:title="utl-module-not-shared-enough"><path fill="#ccc" stroke="#00f" d="M631.21-581.88h-56.67c-2.96 0-5.92 2.96-5.92 5.92v5.92c0 2.96 2.96 5.92 5.92 5.92h56.67c2.96 0 5.91-2.96 5.91-5.92v-5.92c0-2.96-2.95-5.92-5.91-5.92"/><text x="576.62" y="-569.33" fill="#00f" font-family="Helvetica,sans-Serif" font-size="9">array-util.mjs</text></a></g><g class="edge"><path fill="none" stroke="#aaa" stroke-opacity=".467" stroke-width="2" d="M513-461.09V-573h46.1"/><path fill="#aaa" fill-opacity=".467" stroke="#aaa" stroke-opacity=".467" stroke-width="2" d="m559.1-575.1 6 2.1-6 2.1z"/></g><g class="node"><a xlink:href="https://github.com/sverweij/dependency-cruiser/blob/main/src/graph-utl/consolidate-modules.mjs" xlink:title="consolidate-modules.mjs"><path fill="#fcc" stroke="#000" d="M492.33-490.88H386.17c-2.96 0-5.92 2.96-5.92 5.92v5.92c0 2.96 2.96 5.92 5.92 5.92h106.16c2.96 0 5.92-2.96 5.92-5.92v-5.92c0-2.96-2.96-5.92-5.92-5.92"/><text x="388.25" y="-478.32" font-family="Helvetica,sans-Serif" font-size="9">consolidate-modules.mjs</text></a></g><g class="edge"><path fill="none" stroke="#700" stroke-opacity=".467" stroke-width="2" d="M498.26-479.04H615v7.9"/><path fill="#700" fill-opacity=".467" stroke="#700" stroke-opacity=".467" stroke-width="2" d="m617.1-471.14-2.1 6-2.1-6z"/></g><g class="edge"><path fill="none" stroke="#aaa" stroke-opacity=".467" stroke-width="2" d="M498.74-484.96H592v-69.92"/><path fill="#aaa" fill-opacity=".467" stroke="#aaa" stroke-opacity=".467" stroke-width="2" d="m589.9-554.88 2.1-6 2.1 6z"/></g><g class="node"><a xlink:href="https://github.com/sverweij/dependency-cruiser/blob/main/src/graph-utl/consolidate-to-folder.mjs" xlink:title="consolidate-to-folder.mjs"><path fill="#fcc" stroke="#000" d="M330.21-431.88H225.54c-2.96 0-5.92 2.96-5.92 5.92v5.92c0 2.96 2.96 5.92 5.92 5.92h104.67c2.96 0 5.91-2.96 5.91-5.92v-5.92c0-2.96-2.95-5.92-5.91-5.92"/><text x="227.62" y="-419.32" font-family="Helvetica,sans-Serif" font-size="9">consolidate-to-folder.mjs</text></a></g><g class="edge"><path fill="none" stroke="#700" stroke-opacity=".467" stroke-width="2" d="M336.41-425.48H378v-8.22"/><path fill="#700" fill-opacity=".467" stroke="#700" stroke-opacity=".467" stroke-width="2" d="m375.9-433.7 2.1-6 2.1 6z"/></g><g class="edge"><path fill="none" stroke="#700" stroke-opacity=".467" stroke-width="2" d="M336.53-428.68H346v-51.03h24.9"/><path fill="#700" fill-opacity=".467" stroke="#700" stroke-opacity=".467" stroke-width="2" d="m370.9-481.81 6 2.1-6 2.1z"/></g><g class="node"><a xlink:href="https://github.com/sverweij/dependency-cruiser/blob/main/src/graph-utl/consolidate-to-pattern.mjs" xlink:title="consolidate-to-pattern.mjs"><path fill="#fcc" stroke="#000" d="M332.83-461.88H222.92c-2.96 0-5.92 2.96-5.92 5.92v5.92c0 2.96 2.96 5.92 5.92 5.92h109.91c2.96 0 5.92-2.96 5.92-5.92v-5.92c0-2.96-2.96-5.92-5.92-5.92"/><text x="225" y="-449.32" font-family="Helvetica,sans-Serif" font-size="9">consolidate-to-pattern.mjs</text></a></g><g class="edge"><path fill="none" stroke="#700" stroke-opacity=".467" stroke-width="2" d="M338.88-449.71h3.47"/><path fill="#700" fill-opacity=".467" stroke="#700" stroke-opacity=".467" stroke-width="2" d="m342.35-451.81 6 2.1-6 2.1z"/></g><g class="edge"><path fill="none" stroke="#700" stroke-opacity=".467" stroke-width="2" d="M339.24-455.29H342v-30h28.85"/><path fill="#700" fill-opacity=".467" stroke="#700" stroke-opacity=".467" stroke-width="2" d="m370.85-487.39 6 2.1-6 2.1z"/></g><g class="node"><a xlink:href="https://github.com/sverweij/dependency-cruiser/blob/main/src/graph-utl/filter-bank.mjs" xlink:title="filter-bank.mjs"><path fill="#fcc" stroke="#000" d="M308.46-401.88h-61.17c-2.96 0-5.91 2.96-5.91 5.92v5.92c0 2.96 2.95 5.92 5.91 5.92h61.17c2.96 0 5.92-2.96 5.92-5.92v-5.92c0-2.96-2.96-5.92-5.92-5.92"/><text x="249.38" y="-389.32" font-family="Helvetica,sans-Serif" font-size="9">filter-bank.mjs</text></a></g><g class="edge"><path fill="none" stroke="#700" stroke-opacity=".467" stroke-width="2" d="M278-402.24V-408h115.23"/><path fill="#700" fill-opacity=".467" stroke="#700" stroke-opacity=".467" stroke-width="2" d="m393.23-410.1 6 2.1-6 2.1z"/></g><g class="edge"><path fill="none" stroke="#700" stroke-opacity=".467" stroke-width="2" d="M314.84-388.79h215.59"/><path fill="#700" fill-opacity=".467" stroke="#700" stroke-opacity=".467" stroke-width="2" d="m530.43-390.89 6 2.1-6 2.1z"/></g><g class="edge"><path fill="none" stroke="#700" stroke-opacity=".467" stroke-width="2" d="M314.69-393.46H349v-28.81h200.63"/><path fill="#700" fill-opacity=".467" stroke="#700" stroke-opacity=".467" stroke-width="2" d="m549.63-424.38 6 2.1-6 2.1z"/></g><g class="node"><a xlink:href="https://github.com/sverweij/dependency-cruiser/blob/main/src/graph-utl/rule-set.mjs" xlink:title="rule-set.mjs"><path fill="#fcc" stroke="#000" d="M303.58-521.88h-51.41c-2.96 0-5.92 2.96-5.92 5.92v5.92c0 2.96 2.96 5.92 5.92 5.92h51.41c2.96 0 5.92-2.96 5.92-5.92v-5.92c0-2.96-2.96-5.92-5.92-5.92"/><text x="254.25" y="-509.32" font-family="Helvetica,sans-Serif" font-size="9">rule-set.mjs</text></a></g><g class="node"><a xlink:href="https://github.com/sverweij/dependency-cruiser/blob/main/src/graph-utl/strip-self-transitions.mjs" xlink:title="strip-self-transitions.mjs"><path fill="#fcc" stroke="#000" d="M327.96-491.88H227.79c-2.96 0-5.91 2.96-5.91 5.92v5.92c0 2.96 2.95 5.92 5.91 5.92h100.17c2.96 0 5.92-2.96 5.92-5.92v-5.92c0-2.96-2.96-5.92-5.92-5.92"/><text x="229.88" y="-479.32" font-family="Helvetica,sans-Serif" font-size="9">strip-self-transitions.mjs</text></a></g><g class="node"><a xlink:href="https://github.com/sverweij/dependency-cruiser/blob/main/src/report/anon" xlink:title="anon"><path fill="#fcf" stroke="#000" d="M88.62-41.88H36.6l-1.98 1.98v15.78h52.03l1.97-1.98z"/><path fill="none" stroke="#000" d="M86.65-39.9H34.62M86.65-39.9v15.78M86.65-39.9l1.97-1.98"/><text x="51.12" y="-29.32" font-family="Helvetica,sans-Serif" font-size="9">anon</text></a></g><g class="node"><a xlink:href="https://github.com/sverweij/dependency-cruiser/blob/main/src/report/azure-devops.mjs" xlink:title="azure-devops.mjs"><path fill="#fcf" stroke="#000" d="M195.08-191.88h-76.91c-2.96 0-5.92 2.96-5.92 5.92v5.92c0 2.96 2.96 5.92 5.92 5.92h76.91c2.96 0 5.92-2.96 5.92-5.92v-5.92c0-2.96-2.96-5.92-5.92-5.92"/><text x="120.25" y="-179.32" font-family="Helvetica,sans-Serif" font-size="9">azure-devops.mjs</text></a></g><g class="node"><a xlink:href="https://github.com/sverweij/dependency-cruiser/blob/main/src/report/utl" xlink:title="utl"><path fill="#fcf" stroke="#000" d="M304.88-191.88h-52.03l-1.97 1.98v15.78h52.02l1.98-1.98z"/><path fill="none" stroke="#000" d="M302.9-189.9h-52.02M302.9-189.9v15.78M302.9-189.9l1.98-1.98"/><text x="273" y="-179.32" font-family="Helvetica,sans-Serif" font-size="9">utl</text></a></g><g class="edge"><path fill="none" stroke="#f0f" stroke-opacity=".467" stroke-width="2" d="M201.43-183h40.04"/><path fill="#f0f" fill-opacity=".467" stroke="#f0f" stroke-opacity=".467" stroke-width="2" d="m241.47-185.1 6 2.1-6 2.1z"/></g><g class="node"><a xlink:href="https://github.com/sverweij/dependency-cruiser/blob/main/src/report/baseline.mjs" xlink:title="no-orphans"><path fill="#fcf" stroke="red" d="M89.58-71.88H33.67c-2.96 0-5.92 2.96-5.92 5.92v5.92c0 2.96 2.96 5.92 5.92 5.92h55.91c2.96 0 5.92-2.96 5.92-5.92v-5.92c0-2.96-2.96-5.92-5.92-5.92"/><text x="35.75" y="-59.33" fill="red" font-family="Helvetica,sans-Serif" font-size="9">baseline.mjs</text></a></g><g class="node"><a xlink:href="https://github.com/sverweij/dependency-cruiser/blob/main/src/report/csv.mjs" xlink:title="csv.mjs"><path fill="#fcf" stroke="#000" d="M177.71-221.88h-42.17c-2.96 0-5.92 2.96-5.92 5.92v5.92c0 2.96 2.96 5.92 5.92 5.92h42.17c2.96 0 5.91-2.96 5.91-5.92v-5.92c0-2.96-2.95-5.92-5.91-5.92"/><text x="141.62" y="-209.32" font-family="Helvetica,sans-Serif" font-size="9">csv.mjs</text></a></g><g class="edge"><path fill="none" stroke="#f0f" stroke-opacity=".467" stroke-width="2" d="M184.04-213H262v11.81"/><path fill="#f0f" fill-opacity=".467" stroke="#f0f" stroke-opacity=".467" stroke-width="2" d="m264.1-201.19-2.1 6-2.1-6z"/></g><g class="node"><a xlink:href="https://github.com/sverweij/dependency-cruiser/blob/main/src/report/d2.mjs" xlink:title="d2.mjs"><path fill="#fcf" stroke="#000" d="M177.71-131.88h-42.17c-2.96 0-5.92 2.96-5.92 5.92v5.92c0 2.96 2.96 5.92 5.92 5.92h42.17c2.96 0 5.91-2.96 5.91-5.92v-5.92c0-2.96-2.95-5.92-5.91-5.92"/><text x="143.12" y="-119.33" font-family="Helvetica,sans-Serif" font-size="9">d2.mjs</text></a></g><g class="edge"><path fill="none" stroke="#f0f" stroke-opacity=".467" stroke-width="2" d="M183.91-123H273v-41.6"/><path fill="#f0f" fill-opacity=".467" stroke="#f0f" stroke-opacity=".467" stroke-width="2" d="m270.9-164.6 2.1-6 2.1 6z"/></g><g class="node"><a xlink:href="https://github.com/sverweij/dependency-cruiser/blob/main/src/report/dot" xlink:title="dot"><path fill="#fcf" stroke="#000" d="M183.62-311.88H131.6l-1.98 1.98v15.78h52.03l1.97-1.98z"/><path fill="none" stroke="#000" d="M181.65-309.9h-52.03M181.65-309.9v15.78M181.65-309.9l1.97-1.98"/><text x="150.25" y="-299.32" font-family="Helvetica,sans-Serif" font-size="9">dot</text></a></g><g class="edge"><path fill="none" stroke="#700" stroke-opacity=".467" stroke-width="2" d="M184.07-298.56H534v-151.15h25.41"/><path fill="#700" fill-opacity=".467" stroke="#700" stroke-opacity=".467" stroke-width="2" d="m559.41-451.81 6 2.1-6 2.1z"/></g><g class="edge"><path fill="none" stroke="#700" stroke-opacity=".467" stroke-width="2" d="M183.9-303H231v-101.95"/><path fill="#700" fill-opacity=".467" stroke="#700" stroke-opacity=".467" stroke-width="2" d="m228.9-404.95 2.1-6 2.1 6z"/></g><g class="edge"><path fill="none" stroke="#700" stroke-opacity=".467" stroke-width="2" d="M183.82-305.22H213V-453h.39"/><path fill="#700" fill-opacity=".467" stroke="#700" stroke-opacity=".467" stroke-width="2" d="m207.84-455.1 6 2.1-6 2.1z"/></g><g class="edge"><path fill="none" stroke="#700" stroke-opacity=".467" stroke-width="2" d="M183.74-300.78H247v-74.01"/><path fill="#700" fill-opacity=".467" stroke="#700" stroke-opacity=".467" stroke-width="2" d="m244.9-374.79 2.1-6 2.1 6z"/></g><g class="edge"><path fill="none" stroke="#700" stroke-opacity=".467" stroke-width="2" d="M184.04-307.44H209V-483h3.61"/><path fill="#700" fill-opacity=".467" stroke="#700" stroke-opacity=".467" stroke-width="2" d="m212.61-485.1 6 2.1-6 2.1z"/></g><g class="edge"><path fill="none" stroke="#f0f" stroke-opacity=".467" stroke-width="2" d="M183.95-296.34H284v95.04"/><path fill="#f0f" fill-opacity=".467" stroke="#f0f" stroke-opacity=".467" stroke-width="2" d="m286.1-201.3-2.1 6-2.1-6z"/></g><g class="node"><a xlink:href="https://github.com/sverweij/dependency-cruiser/blob/main/src/utl/object-util.mjs" xlink:title="utl-module-not-shared-enough"><path fill="#ccc" stroke="#00f" d="M633.08-611.88h-60.41c-2.96 0-5.92 2.96-5.92 5.92v5.92c0 2.96 2.96 5.92 5.92 5.92h60.41c2.96 0 5.92-2.96 5.92-5.92v-5.92c0-2.96-2.96-5.92-5.92-5.92"/><text x="574.75" y="-599.33" fill="#00f" font-family="Helvetica,sans-Serif" font-size="9">object-util.mjs</text></a></g><g class="edge"><path fill="none" stroke="#aaa" stroke-opacity=".467" stroke-width="2" d="M183.92-309.66H205V-603h352.48"/><path fill="#aaa" fill-opacity=".467" stroke="#aaa" stroke-opacity=".467" stroke-width="2" d="m557.48-605.1 6 2.1-6 2.1z"/></g><g class="node"><a xlink:href="https://github.com/sverweij/dependency-cruiser/blob/main/src/report/dot-webpage" xlink:title="dot-webpage"><path fill="#fcf" stroke="#000" d="M96.62-191.88H28.6l-1.98 1.98v15.78h68.03l1.97-1.98z"/><path fill="none" stroke="#000" d="M94.65-189.9H26.62M94.65-189.9v15.78M94.65-189.9l1.97-1.98"/><text x="34.62" y="-179.32" font-family="Helvetica,sans-Serif" font-size="9">dot-webpage</text></a></g><g class="edge"><path fill="none" stroke="#f0f" stroke-opacity=".467" stroke-width="2" d="M97.04-183H105v-120h15.27"/><path fill="#f0f" fill-opacity=".467" stroke="#f0f" stroke-opacity=".467" stroke-width="2" d="m120.27-305.1 6 2.1-6 2.1z"/></g><g class="node"><a xlink:href="https://github.com/sverweij/dependency-cruiser/blob/main/src/report/error-html" xlink:title="error-html"><path fill="#fcf" stroke="#000" d="M184.5-71.88h-53.78l-1.97 1.98v15.78h53.78l1.97-1.98z"/><path fill="none" stroke="#000" d="M182.53-69.9h-53.78M182.53-69.9v15.78M182.53-69.9l1.97-1.98"/><text x="136.75" y="-59.33" font-family="Helvetica,sans-Serif" font-size="9">error-html</text></a></g><g class="edge"><path fill="none" stroke="#f0f" stroke-opacity=".467" stroke-width="2" d="M184.96-63H295v-101.95"/><path fill="#f0f" fill-opacity=".467" stroke="#f0f" stroke-opacity=".467" stroke-width="2" d="m292.9-164.95 2.1-6 2.1 6z"/></g><g class="node"><a xlink:href="https://github.com/sverweij/dependency-cruiser/blob/main/src/report/error-long.mjs" xlink:title="error-long.mjs"><path fill="#fcf" stroke="#000" d="M92.21-251.88H31.04c-2.96 0-5.92 2.96-5.92 5.92v5.92c0 2.96 2.96 5.92 5.92 5.92h61.17c2.96 0 5.91-2.96 5.91-5.92v-5.92c0-2.96-2.95-5.92-5.91-5.92"/><text x="33.12" y="-239.32" font-family="Helvetica,sans-Serif" font-size="9">error-long.mjs</text></a></g><g class="node"><a xlink:href="https://github.com/sverweij/dependency-cruiser/blob/main/src/report/error.mjs" xlink:title="error.mjs"><path fill="#fcf" stroke="#000" d="M177.71-341.88h-42.17c-2.96 0-5.92 2.96-5.92 5.92v5.92c0 2.96 2.96 5.92 5.92 5.92h42.17c2.96 0 5.91-2.96 5.91-5.92v-5.92c0-2.96-2.95-5.92-5.91-5.92"/><text x="138.62" y="-329.32" font-family="Helvetica,sans-Serif" font-size="9">error.mjs</text></a></g><g class="edge"><path fill="none" stroke="#f0f" stroke-opacity=".467" stroke-width="2" d="M98.56-245.96H102V-333h18.29"/><path fill="#f0f" fill-opacity=".467" stroke="#f0f" stroke-opacity=".467" stroke-width="2" d="m120.29-335.1 6 2.1-6 2.1z"/></g><g class="edge"><path fill="none" stroke="#700" stroke-opacity=".467" stroke-width="2" d="M166-342.17V-513h70.79"/><path fill="#700" fill-opacity=".467" stroke="#700" stroke-opacity=".467" stroke-width="2" d="m236.79-515.1 6 2.1-6 2.1z"/></g><g class="edge"><path fill="none" stroke="#f0f" stroke-opacity=".467" stroke-width="2" d="M183.96-333H295v132.04"/><path fill="#f0f" fill-opacity=".467" stroke="#f0f" stroke-opacity=".467" stroke-width="2" d="m297.1-200.96-2.1 6-2.1-6z"/></g><g class="node"><a xlink:href="https://github.com/sverweij/dependency-cruiser/blob/main/src/utl/wrap-and-indent.mjs" xlink:title="utl-module-not-shared-enough"><path fill="#ccc" stroke="#00f" d="M646.96-641.88h-88.17c-2.96 0-5.91 2.96-5.91 5.92v5.92c0 2.96 2.95 5.92 5.91 5.92h88.17c2.96 0 5.92-2.96 5.92-5.92v-5.92c0-2.96-2.96-5.92-5.92-5.92"/><text x="560.88" y="-629.33" fill="#00f" font-family="Helvetica,sans-Serif" font-size="9">wrap-and-indent.mjs</text></a></g><g class="edge"><path fill="none" stroke="#aaa" stroke-opacity=".467" stroke-width="2" d="M148-342.31V-633h395.43"/><path fill="#aaa" fill-opacity=".467" stroke="#aaa" stroke-opacity=".467" stroke-width="2" d="m543.43-635.1 6 2.1-6 2.1z"/></g><g class="node"><a xlink:href="https://github.com/sverweij/dependency-cruiser/blob/main/src/report/html" xlink:title="html"><path fill="#fcf" stroke="#000" d="M183.62-161.88H131.6l-1.98 1.98v15.78h52.03l1.97-1.98z"/><path fill="none" stroke="#000" d="M181.65-159.9h-52.03M181.65-159.9v15.78M181.65-159.9l1.97-1.98"/><text x="148" y="-149.32" font-family="Helvetica,sans-Serif" font-size="9">html</text></a></g><g class="edge"><path fill="none" stroke="#f0f" stroke-opacity=".467" stroke-width="2" d="M184.04-153H262v-11.81"/><path fill="#f0f" fill-opacity=".467" stroke="#f0f" stroke-opacity=".467" stroke-width="2" d="m259.9-164.81 2.1-6 2.1 6z"/></g><g class="node"><a xlink:href="https://github.com/sverweij/dependency-cruiser/blob/main/src/report/identity.mjs" xlink:title="identity.mjs"><path fill="#fcf" stroke="#000" d="M86.58-161.88H36.67c-2.96 0-5.92 2.96-5.92 5.92v5.92c0 2.96 2.96 5.92 5.92 5.92h49.91c2.96 0 5.92-2.96 5.92-5.92v-5.92c0-2.96-2.96-5.92-5.92-5.92"/><text x="38.75" y="-149.32" font-family="Helvetica,sans-Serif" font-size="9">identity.mjs</text></a></g><g class="node"><a xlink:href="https://github.com/sverweij/dependency-cruiser/blob/main/src/report/index.mjs" xlink:title="index.mjs"><path fill="#fcf" stroke="#000" d="M83.21-131.88H40.04c-2.96 0-5.92 2.96-5.92 5.92v5.92c0 2.96 2.96 5.92 5.92 5.92h43.17c2.96 0 5.91-2.96 5.91-5.92v-5.92c0-2.96-2.95-5.92-5.91-5.92"/><text x="42.12" y="-119.33" font-family="Helvetica,sans-Serif" font-size="9">index.mjs</text></a></g><g class="node"><a xlink:href="https://github.com/sverweij/dependency-cruiser/blob/main/src/report/plugins.mjs" xlink:title="plugins.mjs"><path fill="#fcf" stroke="#000" d="M181.96-251.88h-50.67c-2.96 0-5.91 2.96-5.91 5.92v5.92c0 2.96 2.95 5.92 5.91 5.92h50.67c2.96 0 5.92-2.96 5.92-5.92v-5.92c0-2.96-2.96-5.92-5.92-5.92"/><text x="133.38" y="-239.32" font-family="Helvetica,sans-Serif" font-size="9">plugins.mjs</text></a></g><g class="edge"><path fill="none" stroke="#f0f" stroke-opacity=".467" stroke-width="2" d="M89.4-123H108v-117.04h7.98"/><path fill="#f0f" fill-opacity=".467" stroke="#f0f" stroke-opacity=".467" stroke-width="2" d="m115.98-242.14 6 2.1-6 2.1z"/></g><g class="node"><a xlink:href="https://github.com/sverweij/dependency-cruiser/blob/main/src/report/json.mjs" xlink:title="json.mjs"><path fill="#fcf" stroke="#000" d="M82.71-221.88H40.54c-2.96 0-5.92 2.96-5.92 5.92v5.92c0 2.96 2.96 5.92 5.92 5.92h42.17c2.96 0 5.91-2.96 5.91-5.92v-5.92c0-2.96-2.95-5.92-5.91-5.92"/><text x="44.75" y="-209.32" font-family="Helvetica,sans-Serif" font-size="9">json.mjs</text></a></g><g class="node"><a xlink:href="https://github.com/sverweij/dependency-cruiser/blob/main/src/report/markdown.mjs" xlink:title="markdown.mjs"><path fill="#fcf" stroke="#000" d="M93.33-101.88H29.92c-2.96 0-5.92 2.96-5.92 5.92v5.92c0 2.96 2.96 5.92 5.92 5.92h63.41c2.96 0 5.92-2.96 5.92-5.92v-5.92c0-2.96-2.96-5.92-5.92-5.92"/><text x="32" y="-89.33" font-family="Helvetica,sans-Serif" font-size="9">markdown.mjs</text></a></g><g class="edge"><path fill="none" stroke="#f0f" stroke-opacity=".467" stroke-width="2" d="M99.74-93H110v30h9.4"/><path fill="#f0f" fill-opacity=".467" stroke="#f0f" stroke-opacity=".467" stroke-width="2" d="m119.4-65.1 6 2.1-6 2.1z"/></g><g class="node"><a xlink:href="https://github.com/sverweij/dependency-cruiser/blob/main/src/report/mermaid.mjs" xlink:title="no-orphans"><path fill="#fcf" stroke="red" d="M89.96-281.88H33.29c-2.96 0-5.91 2.96-5.91 5.92v5.92c0 2.96 2.95 5.92 5.91 5.92h56.67c2.96 0 5.92-2.96 5.92-5.92v-5.92c0-2.96-2.96-5.92-5.92-5.92"/><text x="35.38" y="-269.32" fill="red" font-family="Helvetica,sans-Serif" font-size="9">mermaid.mjs</text></a></g><g class="node"><a xlink:href="https://github.com/sverweij/dependency-cruiser/blob/main/src/report/metrics.mjs" xlink:title="metrics.mjs"><path fill="#fcf" stroke="#000" d="M181.58-101.88h-49.91c-2.96 0-5.92 2.96-5.92 5.92v5.92c0 2.96 2.96 5.92 5.92 5.92h49.91c2.96 0 5.92-2.96 5.92-5.92v-5.92c0-2.96-2.96-5.92-5.92-5.92"/><text x="133.75" y="-89.33" font-family="Helvetica,sans-Serif" font-size="9">metrics.mjs</text></a></g><g class="edge"><path fill="none" stroke="#f0f" stroke-opacity=".467" stroke-width="2" d="M187.78-93H284v-71.68"/><path fill="#f0f" fill-opacity=".467" stroke="#f0f" stroke-opacity=".467" stroke-width="2" d="m281.9-164.68 2.1-6 2.1 6z"/></g><g class="node"><a xlink:href="https://github.com/sverweij/dependency-cruiser/blob/main/src/report/null.mjs" xlink:title="null.mjs"><path fill="#fcf" stroke="#000" d="M82.71-311.88H40.54c-2.96 0-5.92 2.96-5.92 5.92v5.92c0 2.96 2.96 5.92 5.92 5.92h42.17c2.96 0 5.91-2.96 5.91-5.92v-5.92c0-2.96-2.95-5.92-5.91-5.92"/><text x="45.88" y="-299.32" font-family="Helvetica,sans-Serif" font-size="9">null.mjs</text></a></g><g class="node"><a xlink:href="https://github.com/sverweij/dependency-cruiser/blob/main/src/report/teamcity.mjs" xlink:title="teamcity.mjs"><path fill="#fcf" stroke="#000" d="M183.83-281.88h-54.41c-2.96 0-5.92 2.96-5.92 5.92v5.92c0 2.96 2.96 5.92 5.92 5.92h54.41c2.96 0 5.92-2.96 5.92-5.92v-5.92c0-2.96-2.96-5.92-5.92-5.92"/><text x="131.5" y="-269.32" font-family="Helvetica,sans-Serif" font-size="9">teamcity.mjs</text></a></g><g class="edge"><path fill="none" stroke="#f0f" stroke-opacity=".467" stroke-width="2" d="M189.97-273H273v71.68"/><path fill="#f0f" fill-opacity=".467" stroke="#f0f" stroke-opacity=".467" stroke-width="2" d="m275.1-201.32-2.1 6-2.1-6z"/></g><g class="node"><a xlink:href="https://github.com/sverweij/dependency-cruiser/blob/main/src/report/text.mjs" xlink:title="no-orphans"><path fill="#fcf" stroke="red" d="M82.71-341.88H40.54c-2.96 0-5.92 2.96-5.92 5.92v5.92c0 2.96 2.96 5.92 5.92 5.92h42.17c2.96 0 5.91-2.96 5.91-5.92v-5.92c0-2.96-2.95-5.92-5.91-5.92"/><text x="46.25" y="-329.32" fill="red" font-family="Helvetica,sans-Serif" font-size="9">text.mjs</text></a></g></g></svg>