<svg xmlns="http://www.w3.org/2000/svg" xmlns:xlink="http://www.w3.org/1999/xlink" width="698pt" height="620pt" viewBox="0 0 698 620"><g class="graph" transform="translate(4 616)"><path fill="#fff" d="M-4 4v-620h698V4z"/><g class="cluster"><path fill="#fff" stroke="#000" stroke-width="2" d="M20-8h650c6 0 12-6 12-12v-572c0-6-6-12-12-12H20c-6 0-12 6-12 12v572c0 6 6 12 12 12"/><text x="345" y="-591.45" font-family="Helvetica,sans-Serif" font-size="9" font-weight="bold" text-anchor="middle">src</text></g><g class="cluster"><path fill="#fff" stroke="#000" stroke-width="2" d="M231.88-526h92c6 0 12-6 12-12v-28c0-6-6-12-12-12h-92c-6 0-12 6-12 12v28c0 6 6 12 12 12"/><text x="272.62" y="-565.45" font-family="Helvetica,sans-Serif" font-size="9" font-weight="bold">utl</text></g><g class="cluster"><path fill="#fff" stroke="#000" stroke-width="2" d="M221-346h441c6 0 12-6 12-12v-148c0-6-6-12-12-12H221c-6 0-12 6-12 12v148c0 6 6 12 12 12"/><text x="441.5" y="-505.45" font-family="Helvetica,sans-Serif" font-size="9" font-weight="bold" text-anchor="middle">graph-utl</text></g><g class="cluster"><path fill="#fff" stroke="#000" stroke-width="2" d="M28-16h272.88c6 0 12-6 12-12v-298c0-6-6-12-12-12H28c-6 0-12 6-12 12v298c0 6 6 12 12 12"/><text x="164.44" y="-325.45" font-family="Helvetica,sans-Serif" font-size="9" font-weight="bold" text-anchor="middle">report</text></g><g class="node"><a xlink:href="https://github.com/sverweij/dependency-cruiser/blob/main/src/graph-utl/add-focus.mjs" xlink:title="add-focus.mjs"><path fill="#fcc" stroke="#000" d="M469.83-461.88h-61.16c-2.96 0-5.92 2.96-5.92 5.92v5.92c0 2.96 2.96 5.92 5.92 5.92h61.16c2.96 0 5.92-2.96 5.92-5.92v-5.92c0-2.96-2.96-5.92-5.92-5.92"/><text x="410.75" y="-449.32" font-family="Helvetica,sans-Serif" font-size="9">add-focus.mjs</text></a></g><g class="node"><a xlink:href="https://github.com/sverweij/dependency-cruiser/blob/main/src/graph-utl/indexed-module-graph.mjs" xlink:title="indexed-module-graph.mjs"><path fill="#fcc" stroke="#000" d="M660.08-479.88H545.67c-2.96 0-5.92 2.96-5.92 5.92v5.92c0 2.96 2.96 5.92 5.92 5.92h114.41c2.96 0 5.92-2.96 5.92-5.92v-5.92c0-2.96-2.96-5.92-5.92-5.92"/><text x="547.75" y="-467.32" font-family="Helvetica,sans-Serif" font-size="9">indexed-module-graph.mjs</text></a></g><g class="edge"><path fill="none" stroke="#700" stroke-opacity=".467" stroke-width="2" d="M476.13-453H550v-.9"/><path fill="#700" fill-opacity=".467" stroke="#700" stroke-opacity=".467" stroke-width="2" d="m547.9-452.97 2.1-6 2.1 6z"/></g><g class="node"><a xlink:href="https://github.com/sverweij/dependency-cruiser/blob/main/src/graph-utl/match-facade.mjs" xlink:title="match-facade.mjs"><path fill="#fcc" stroke="#000" d="M640.96-442.88h-76.17c-2.96 0-5.91 2.96-5.91 5.92v5.92c0 2.96 2.95 5.92 5.91 5.92h76.17c2.96 0 5.92-2.96 5.92-5.92v-5.92c0-2.96-2.96-5.92-5.92-5.92"/><text x="566.88" y="-430.32" font-family="Helvetica,sans-Serif" font-size="9">match-facade.mjs</text></a></g><g class="edge"><path fill="none" stroke="#700" stroke-opacity=".467" stroke-width="2" d="M440-443.88v4.67h109.77"/><path fill="#700" fill-opacity=".467" stroke="#700" stroke-opacity=".467" stroke-width="2" d="m549.77-441.31 6 2.1-6 2.1z"/></g><g class="node"><a xlink:href="https://github.com/sverweij/dependency-cruiser/blob/main/src/graph-utl/compare.mjs" xlink:title="compare.mjs"><path fill="#fcc" stroke="#000" d="M631.21-371.88h-56.67c-2.96 0-5.92 2.96-5.92 5.92v5.92c0 2.96 2.96 5.92 5.92 5.92h56.67c2.96 0 5.91-2.96 5.91-5.92v-5.92c0-2.96-2.95-5.92-5.91-5.92"/><text x="576.62" y="-359.32" font-family="Helvetica,sans-Serif" font-size="9">compare.mjs</text></a></g><g class="node"><a xlink:href="https://github.com/sverweij/dependency-cruiser/blob/main/src/graph-utl/consolidate-module-dependencies.mjs" xlink:title="consolidate-module-dependencies.mjs"><path fill="#fcc" stroke="#000" d="M520.83-371.88H357.67c-2.96 0-5.92 2.96-5.92 5.92v5.92c0 2.96 2.96 5.92 5.92 5.92h163.16c2.96 0 5.92-2.96 5.92-5.92v-5.92c0-2.96-2.96-5.92-5.92-5.92"/><text x="359.75" y="-359.32" font-family="Helvetica,sans-Serif" font-size="9">consolidate-module-dependencies.mjs</text></a></g><g class="edge"><path fill="none" stroke="#700" stroke-opacity=".467" stroke-width="2" d="M526.81-363h32.52"/><path fill="#700" fill-opacity=".467" stroke="#700" stroke-opacity=".467" stroke-width="2" d="m559.33-365.1 6 2.1-6 2.1z"/></g><g class="node"><a xlink:href="https://github.com/sverweij/dependency-cruiser/blob/main/src/graph-utl/consolidate-modules.mjs" xlink:title="consolidate-modules.mjs"><path fill="#fcc" stroke="#000" d="M492.33-401.88H386.17c-2.96 0-5.92 2.96-5.92 5.92v5.92c0 2.96 2.96 5.92 5.92 5.92h106.16c2.96 0 5.92-2.96 5.92-5.92v-5.92c0-2.96-2.96-5.92-5.92-5.92"/><text x="388.25" y="-389.32" font-family="Helvetica,sans-Serif" font-size="9">consolidate-modules.mjs</text></a></g><g class="edge"><path fill="none" stroke="#700" stroke-opacity=".467" stroke-width="2" d="M498.37-393H603v11.81"/><path fill="#700" fill-opacity=".467" stroke="#700" stroke-opacity=".467" stroke-width="2" d="m605.1-381.19-2.1 6-2.1-6z"/></g><g class="node"><a xlink:href="https://github.com/sverweij/dependency-cruiser/blob/main/src/graph-utl/consolidate-to-folder.mjs" xlink:title="consolidate-to-folder.mjs"><path fill="#fcc" stroke="#000" d="M330.21-371.88H225.54c-2.96 0-5.92 2.96-5.92 5.92v5.92c0 2.96 2.96 5.92 5.92 5.92h104.67c2.96 0 5.91-2.96 5.91-5.92v-5.92c0-2.96-2.95-5.92-5.91-5.92"/><text x="227.62" y="-359.32" font-family="Helvetica,sans-Serif" font-size="9">consolidate-to-folder.mjs</text></a></g><g class="edge"><path fill="none" stroke="#700" stroke-opacity=".467" stroke-width="2" d="M336.59-360.04h5.84"/><path fill="#700" fill-opacity=".467" stroke="#700" stroke-opacity=".467" stroke-width="2" d="m342.43-362.14 6 2.1-6 2.1z"/></g><g class="edge"><path fill="none" stroke="#700" stroke-opacity=".467" stroke-width="2" d="M336.53-365.96H346V-393h24.9"/><path fill="#700" fill-opacity=".467" stroke="#700" stroke-opacity=".467" stroke-width="2" d="m370.9-395.1 6 2.1-6 2.1z"/></g><g class="node"><a xlink:href="https://github.com/sverweij/dependency-cruiser/blob/main/src/graph-utl/consolidate-to-pattern.mjs" xlink:title="consolidate-to-pattern.mjs"><path fill="#fcc" stroke="#000" d="M332.83-431.88H222.92c-2.96 0-5.92 2.96-5.92 5.92v5.92c0 2.96 2.96 5.92 5.92 5.92h109.91c2.96 0 5.92-2.96 5.92-5.92v-5.92c0-2.96-2.96-5.92-5.92-5.92"/><text x="225" y="-419.32" font-family="Helvetica,sans-Serif" font-size="9">consolidate-to-pattern.mjs</text></a></g><g class="edge"><path fill="none" stroke="#700" stroke-opacity=".467" stroke-width="2" d="M339.08-417.79H366v36.72"/><path fill="#700" fill-opacity=".467" stroke="#700" stroke-opacity=".467" stroke-width="2" d="m368.1-381.07-2.1 6-2.1-6z"/></g><g class="edge"><path fill="none" stroke="#700" stroke-opacity=".467" stroke-width="2" d="M338.95-421.46H392v10.11"/><path fill="#700" fill-opacity=".467" stroke="#700" stroke-opacity=".467" stroke-width="2" d="m394.1-411.35-2.1 6-2.1-6z"/></g><g class="node"><a xlink:href="https://github.com/sverweij/dependency-cruiser/blob/main/src/graph-utl/filter-bank.mjs" xlink:title="filter-bank.mjs"><path fill="#fcc" stroke="#000" d="M308.46-461.88h-61.17c-2.96 0-5.91 2.96-5.91 5.92v5.92c0 2.96 2.95 5.92 5.91 5.92h61.17c2.96 0 5.92-2.96 5.92-5.92v-5.92c0-2.96-2.96-5.92-5.92-5.92"/><text x="249.38" y="-449.32" font-family="Helvetica,sans-Serif" font-size="9">filter-bank.mjs</text></a></g><g class="edge"><path fill="none" stroke="#700" stroke-opacity=".467" stroke-width="2" d="M314.49-453h78.98"/><path fill="#700" fill-opacity=".467" stroke="#700" stroke-opacity=".467" stroke-width="2" d="m393.47-455.1 6 2.1-6 2.1z"/></g><g class="edge"><path fill="none" stroke="#700" stroke-opacity=".467" stroke-width="2" d="M278-462.32v-5.8h252.44"/><path fill="#700" fill-opacity=".467" stroke="#700" stroke-opacity=".467" stroke-width="2" d="m530.44-470.23 6 2.1-6 2.1z"/></g><g class="edge"><path fill="none" stroke="#700" stroke-opacity=".467" stroke-width="2" d="M278-443.86v8.32h271.36"/><path fill="#700" fill-opacity=".467" stroke="#700" stroke-opacity=".467" stroke-width="2" d="m549.36-437.64 6 2.1-6 2.1z"/></g><g class="node"><a xlink:href="https://github.com/sverweij/dependency-cruiser/blob/main/src/graph-utl/rule-set.mjs" xlink:title="rule-set.mjs"><path fill="#fcc" stroke="#000" d="M303.58-491.88h-51.41c-2.96 0-5.92 2.96-5.92 5.92v5.92c0 2.96 2.96 5.92 5.92 5.92h51.41c2.96 0 5.92-2.96 5.92-5.92v-5.92c0-2.96-2.96-5.92-5.92-5.92"/><text x="254.25" y="-479.32" font-family="Helvetica,sans-Serif" font-size="9">rule-set.mjs</text></a></g><g class="node"><a xlink:href="https://github.com/sverweij/dependency-cruiser/blob/main/src/graph-utl/strip-self-transitions.mjs" xlink:title="strip-self-transitions.mjs"><path fill="#fcc" stroke="#000" d="M327.96-401.88H227.79c-2.96 0-5.91 2.96-5.91 5.92v5.92c0 2.96 2.95 5.92 5.91 5.92h100.17c2.96 0 5.92-2.96 5.92-5.92v-5.92c0-2.96-2.96-5.92-5.92-5.92"/><text x="229.88" y="-389.32" font-family="Helvetica,sans-Serif" font-size="9">strip-self-transitions.mjs</text></a></g><g class="node"><a xlink:href="https://github.com/sverweij/dependency-cruiser/blob/main/src/report/anon" xlink:title="anon"><path fill="#fcf" stroke="#000" d="M88.62-311.88H36.6l-1.98 1.98v15.78h52.03l1.97-1.98z"/><path fill="none" stroke="#000" d="M86.65-309.9H34.62M86.65-309.9v15.78M86.65-309.9l1.97-1.98"/><text x="51.12" y="-299.32" font-family="Helvetica,sans-Serif" font-size="9">anon</text></a></g><g class="node"><a xlink:href="https://github.com/sverweij/dependency-cruiser/blob/main/src/report/azure-devops.mjs" xlink:title="azure-devops.mjs"><path fill="#fcf" stroke="#000" d="M195.08-71.88h-76.91c-2.96 0-5.92 2.96-5.92 5.92v5.92c0 2.96 2.96 5.92 5.92 5.92h76.91c2.96 0 5.92-2.96 5.92-5.92v-5.92c0-2.96-2.96-5.92-5.92-5.92"/><text x="120.25" y="-59.33" font-family="Helvetica,sans-Serif" font-size="9">azure-devops.mjs</text></a></g><g class="node"><a xlink:href="https://github.com/sverweij/dependency-cruiser/blob/main/src/report/utl" xlink:title="utl"><path fill="#fcf" stroke="#000" d="M304.88-191.88h-52.03l-1.97 1.98v15.78h52.02l1.98-1.98z"/><path fill="none" stroke="#000" d="M302.9-189.9h-52.02M302.9-189.9v15.78M302.9-189.9l1.98-1.98"/><text x="273" y="-179.32" font-family="Helvetica,sans-Serif" font-size="9">utl</text></a></g><g class="edge"><path fill="none" stroke="#f0f" stroke-opacity=".467" stroke-width="2" d="M196-72.18v-107.86h45.58"/><path fill="#f0f" fill-opacity=".467" stroke="#f0f" stroke-opacity=".467" stroke-width="2" d="m241.58-182.14 6 2.1-6 2.1z"/></g><g class="node"><a xlink:href="https://github.com/sverweij/dependency-cruiser/blob/main/src/report/baseline.mjs" xlink:title="no-orphans"><path fill="#fcf" stroke="red" d="M89.58-281.88H33.67c-2.96 0-5.92 2.96-5.92 5.92v5.92c0 2.96 2.96 5.92 5.92 5.92h55.91c2.96 0 5.92-2.96 5.92-5.92v-5.92c0-2.96-2.96-5.92-5.92-5.92"/><text x="35.75" y="-269.32" fill="red" font-family="Helvetica,sans-Serif" font-size="9">baseline.mjs</text></a></g><g class="node"><a xlink:href="https://github.com/sverweij/dependency-cruiser/blob/main/src/report/csv.mjs" xlink:title="csv.mjs"><path fill="#fcf" stroke="#000" d="M177.71-251.88h-42.17c-2.96 0-5.92 2.96-5.92 5.92v5.92c0 2.96 2.96 5.92 5.92 5.92h42.17c2.96 0 5.91-2.96 5.91-5.92v-5.92c0-2.96-2.95-5.92-5.91-5.92"/><text x="141.62" y="-239.32" font-family="Helvetica,sans-Serif" font-size="9">csv.mjs</text></a></g><g class="edge"><path fill="none" stroke="#f0f" stroke-opacity=".467" stroke-width="2" d="M183.91-243H273v41.6"/><path fill="#f0f" fill-opacity=".467" stroke="#f0f" stroke-opacity=".467" stroke-width="2" d="m275.1-201.4-2.1 6-2.1-6z"/></g><g class="node"><a xlink:href="https://github.com/sverweij/dependency-cruiser/blob/main/src/report/d2.mjs" xlink:title="d2.mjs"><path fill="#fcf" stroke="#000" d="M177.71-221.88h-42.17c-2.96 0-5.92 2.96-5.92 5.92v5.92c0 2.96 2.96 5.92 5.92 5.92h42.17c2.96 0 5.91-2.96 5.91-5.92v-5.92c0-2.96-2.95-5.92-5.91-5.92"/><text x="143.12" y="-209.32" font-family="Helvetica,sans-Serif" font-size="9">d2.mjs</text></a></g><g class="edge"><path fill="none" stroke="#f0f" stroke-opacity=".467" stroke-width="2" d="M184.04-213H262v11.81"/><path fill="#f0f" fill-opacity=".467" stroke="#f0f" stroke-opacity=".467" stroke-width="2" d="m264.1-201.19-2.1 6-2.1-6z"/></g><g class="node"><a xlink:href="https://github.com/sverweij/dependency-cruiser/blob/main/src/report/dot" xlink:title="dot"><path fill="#fcf" stroke="#000" d="M183.62-281.88H131.6l-1.98 1.98v15.78h52.03l1.97-1.98z"/><path fill="none" stroke="#000" d="M181.65-279.9h-52.03M181.65-279.9v15.78M181.65-279.9l1.97-1.98"/><text x="150.25" y="-269.32" font-family="Helvetica,sans-Serif" font-size="9">dot</text></a></g><g class="edge"><path fill="none" stroke="#700" stroke-opacity=".467" stroke-width="2" d="M183.88-269.2H603v-75.44"/><path fill="#700" fill-opacity=".467" stroke="#700" stroke-opacity=".467" stroke-width="2" d="m600.9-344.64 2.1-6 2.1 6z"/></g><g class="edge"><path fill="none" stroke="#700" stroke-opacity=".467" stroke-width="2" d="M183.94-271.73H236v-73.16"/><path fill="#700" fill-opacity=".467" stroke="#700" stroke-opacity=".467" stroke-width="2" d="m233.9-344.89 2.1-6 2.1 6z"/></g><g class="edge"><path fill="none" stroke="#700" stroke-opacity=".467" stroke-width="2" d="M184.04-276.8H209V-423h.76"/><path fill="#700" fill-opacity=".467" stroke="#700" stroke-opacity=".467" stroke-width="2" d="m207.61-425.1 6 2.1-6 2.1z"/></g><g class="edge"><path fill="none" stroke="#700" stroke-opacity=".467" stroke-width="2" d="M183.92-279.34H205V-453h26.98"/><path fill="#700" fill-opacity=".467" stroke="#700" stroke-opacity=".467" stroke-width="2" d="m231.98-455.1 6 2.1-6 2.1z"/></g><g class="edge"><path fill="none" stroke="#700" stroke-opacity=".467" stroke-width="2" d="M183.82-274.27H213V-393h.85"/><path fill="#700" fill-opacity=".467" stroke="#700" stroke-opacity=".467" stroke-width="2" d="m212.45-395.1 6 2.1-6 2.1z"/></g><g class="edge"><path fill="none" stroke="#f0f" stroke-opacity=".467" stroke-width="2" d="M183.95-266.66H284v65.36"/><path fill="#f0f" fill-opacity=".467" stroke="#f0f" stroke-opacity=".467" stroke-width="2" d="m286.1-201.3-2.1 6-2.1-6z"/></g><g class="node"><a xlink:href="https://github.com/sverweij/dependency-cruiser/blob/main/src/report/error-html" xlink:title="error-html"><path fill="#fcf" stroke="#000" d="M184.5-161.88h-53.78l-1.97 1.98v15.78h53.78l1.97-1.98z"/><path fill="none" stroke="#000" d="M182.53-159.9h-53.78M182.53-159.9v15.78M182.53-159.9l1.97-1.98"/><text x="136.75" y="-149.32" font-family="Helvetica,sans-Serif" font-size="9">error-html</text></a></g><g class="edge"><path fill="none" stroke="#f0f" stroke-opacity=".467" stroke-width="2" d="M184.82-153H265v-11.81"/><path fill="#f0f" fill-opacity=".467" stroke="#f0f" stroke-opacity=".467" stroke-width="2" d="m262.9-164.81 2.1-6 2.1 6z"/></g><g class="node"><a xlink:href="https://github.com/sverweij/dependency-cruiser/blob/main/src/report/error-long.mjs" xlink:title="error-long.mjs"><path fill="#fcf" stroke="#000" d="M92.21-251.88H31.04c-2.96 0-5.92 2.96-5.92 5.92v5.92c0 2.96 2.96 5.92 5.92 5.92h61.17c2.96 0 5.91-2.96 5.91-5.92v-5.92c0-2.96-2.95-5.92-5.91-5.92"/><text x="33.12" y="-239.32" font-family="Helvetica,sans-Serif" font-size="9">error-long.mjs</text></a></g><g class="node"><a xlink:href="https://github.com/sverweij/dependency-cruiser/blob/main/src/report/error.mjs" xlink:title="error.mjs"><path fill="#fcf" stroke="#000" d="M177.71-311.88h-42.17c-2.96 0-5.92 2.96-5.92 5.92v5.92c0 2.96 2.96 5.92 5.92 5.92h42.17c2.96 0 5.91-2.96 5.91-5.92v-5.92c0-2.96-2.95-5.92-5.91-5.92"/><text x="138.62" y="-299.32" font-family="Helvetica,sans-Serif" font-size="9">error.mjs</text></a></g><g class="edge"><path fill="none" stroke="#f0f" stroke-opacity=".467" stroke-width="2" d="M98.46-243H104v-60h16.36"/><path fill="#f0f" fill-opacity=".467" stroke="#f0f" stroke-opacity=".467" stroke-width="2" d="m120.36-305.1 6 2.1-6 2.1z"/></g><g class="edge"><path fill="none" stroke="#700" stroke-opacity=".467" stroke-width="2" d="M166-312.17V-483h70.79"/><path fill="#700" fill-opacity=".467" stroke="#700" stroke-opacity=".467" stroke-width="2" d="m236.79-485.1 6 2.1-6 2.1z"/></g><g class="edge"><path fill="none" stroke="#f0f" stroke-opacity=".467" stroke-width="2" d="M183.96-303H295v101.95"/><path fill="#f0f" fill-opacity=".467" stroke="#f0f" stroke-opacity=".467" stroke-width="2" d="m297.1-201.05-2.1 6-2.1-6z"/></g><g class="node"><a xlink:href="https://github.com/sverweij/dependency-cruiser/blob/main/src/utl/wrap-and-indent.mjs" xlink:title="utl-module-not-shared-enough"><path fill="#ccc" stroke="#00f" d="M321.96-551.88h-88.17c-2.96 0-5.91 2.96-5.91 5.92v5.92c0 2.96 2.95 5.92 5.91 5.92h88.17c2.96 0 5.92-2.96 5.92-5.92v-5.92c0-2.96-2.96-5.92-5.92-5.92"/><text x="235.88" y="-539.33" fill="#00f" font-family="Helvetica,sans-Serif" font-size="9">wrap-and-indent.mjs</text></a></g><g class="edge"><path fill="none" stroke="#aaa" stroke-opacity=".467" stroke-width="2" d="M148-312.12V-543h70.63"/><path fill="#aaa" fill-opacity=".467" stroke="#aaa" stroke-opacity=".467" stroke-width="2" d="m218.63-545.1 6 2.1-6 2.1z"/></g><g class="node"><a xlink:href="https://github.com/sverweij/dependency-cruiser/blob/main/src/report/html" xlink:title="html"><path fill="#fcf" stroke="#000" d="M183.62-191.88H131.6l-1.98 1.98v15.78h52.03l1.97-1.98z"/><path fill="none" stroke="#000" d="M181.65-189.9h-52.03M181.65-189.9v15.78M181.65-189.9l1.97-1.98"/><text x="148" y="-179.32" font-family="Helvetica,sans-Serif" font-size="9">html</text></a></g><g class="edge"><path fill="none" stroke="#f0f" stroke-opacity=".467" stroke-width="2" d="M183.84-185.96h57.89"/><path fill="#f0f" fill-opacity=".467" stroke="#f0f" stroke-opacity=".467" stroke-width="2" d="m241.73-188.06 6 2.1-6 2.1z"/></g><g class="node"><a xlink:href="https://github.com/sverweij/dependency-cruiser/blob/main/src/report/identity.mjs" xlink:title="identity.mjs"><path fill="#fcf" stroke="#000" d="M86.58-221.88H36.67c-2.96 0-5.92 2.96-5.92 5.92v5.92c0 2.96 2.96 5.92 5.92 5.92h49.91c2.96 0 5.92-2.96 5.92-5.92v-5.92c0-2.96-2.96-5.92-5.92-5.92"/><text x="38.75" y="-209.32" font-family="Helvetica,sans-Serif" font-size="9">identity.mjs</text></a></g><g class="node"><a xlink:href="https://github.com/sverweij/dependency-cruiser/blob/main/src/report/index.mjs" xlink:title="index.mjs"><path fill="#fcf" stroke="#000" d="M83.21-131.88H40.04c-2.96 0-5.92 2.96-5.92 5.92v5.92c0 2.96 2.96 5.92 5.92 5.92h43.17c2.96 0 5.91-2.96 5.91-5.92v-5.92c0-2.96-2.95-5.92-5.91-5.92"/><text x="42.12" y="-119.33" font-family="Helvetica,sans-Serif" font-size="9">index.mjs</text></a></g><g class="node"><a xlink:href="https://github.com/sverweij/dependency-cruiser/blob/main/src/report/plugins.mjs" xlink:title="plugins.mjs"><path fill="#fcf" stroke="#000" d="M181.96-131.88h-50.67c-2.96 0-5.91 2.96-5.91 5.92v5.92c0 2.96 2.95 5.92 5.91 5.92h50.67c2.96 0 5.92-2.96 5.92-5.92v-5.92c0-2.96-2.96-5.92-5.92-5.92"/><text x="133.38" y="-119.33" font-family="Helvetica,sans-Serif" font-size="9">plugins.mjs</text></a></g><g class="edge"><path fill="none" stroke="#f0f" stroke-opacity=".467" stroke-width="2" d="M89.61-123h26.54"/><path fill="#f0f" fill-opacity=".467" stroke="#f0f" stroke-opacity=".467" stroke-width="2" d="m116.15-125.1 6 2.1-6 2.1z"/></g><g class="node"><a xlink:href="https://github.com/sverweij/dependency-cruiser/blob/main/src/report/json.mjs" xlink:title="json.mjs"><path fill="#fcf" stroke="#000" d="M82.71-161.88H40.54c-2.96 0-5.92 2.96-5.92 5.92v5.92c0 2.96 2.96 5.92 5.92 5.92h42.17c2.96 0 5.91-2.96 5.91-5.92v-5.92c0-2.96-2.95-5.92-5.91-5.92"/><text x="44.75" y="-149.32" font-family="Helvetica,sans-Serif" font-size="9">json.mjs</text></a></g><g class="node"><a xlink:href="https://github.com/sverweij/dependency-cruiser/blob/main/src/report/markdown.mjs" xlink:title="markdown.mjs"><path fill="#fcf" stroke="#000" d="M93.33-191.88H29.92c-2.96 0-5.92 2.96-5.92 5.92v5.92c0 2.96 2.96 5.92 5.92 5.92h63.41c2.96 0 5.92-2.96 5.92-5.92v-5.92c0-2.96-2.96-5.92-5.92-5.92"/><text x="32" y="-179.32" font-family="Helvetica,sans-Serif" font-size="9">markdown.mjs</text></a></g><g class="edge"><path fill="none" stroke="#f0f" stroke-opacity=".467" stroke-width="2" d="M99.49-183H108v30h11.31"/><path fill="#f0f" fill-opacity=".467" stroke="#f0f" stroke-opacity=".467" stroke-width="2" d="m119.31-155.1 6 2.1-6 2.1z"/></g><g class="node"><a xlink:href="https://github.com/sverweij/dependency-cruiser/blob/main/src/report/mermaid.mjs" xlink:title="no-orphans"><path fill="#fcf" stroke="red" d="M89.96-101.88H33.29c-2.96 0-5.91 2.96-5.91 5.92v5.92c0 2.96 2.95 5.92 5.91 5.92h56.67c2.96 0 5.92-2.96 5.92-5.92v-5.92c0-2.96-2.96-5.92-5.92-5.92"/><text x="35.38" y="-89.33" fill="red" font-family="Helvetica,sans-Serif" font-size="9">mermaid.mjs</text></a></g><g class="node"><a xlink:href="https://github.com/sverweij/dependency-cruiser/blob/main/src/report/metrics.mjs" xlink:title="metrics.mjs"><path fill="#fcf" stroke="#000" d="M181.58-41.88h-49.91c-2.96 0-5.92 2.96-5.92 5.92v5.92c0 2.96 2.96 5.92 5.92 5.92h49.91c2.96 0 5.92-2.96 5.92-5.92v-5.92c0-2.96-2.96-5.92-5.92-5.92"/><text x="133.75" y="-29.32" font-family="Helvetica,sans-Serif" font-size="9">metrics.mjs</text></a></g><g class="edge"><path fill="none" stroke="#f0f" stroke-opacity=".467" stroke-width="2" d="M187.68-33H292v-132.04"/><path fill="#f0f" fill-opacity=".467" stroke="#f0f" stroke-opacity=".467" stroke-width="2" d="m289.9-165.04 2.1-6 2.1 6z"/></g><g class="node"><a xlink:href="https://github.com/sverweij/dependency-cruiser/blob/main/src/report/null.mjs" xlink:title="null.mjs"><path fill="#fcf" stroke="#000" d="M82.71-71.88H40.54c-2.96 0-5.92 2.96-5.92 5.92v5.92c0 2.96 2.96 5.92 5.92 5.92h42.17c2.96 0 5.91-2.96 5.91-5.92v-5.92c0-2.96-2.95-5.92-5.91-5.92"/><text x="45.88" y="-59.33" font-family="Helvetica,sans-Serif" font-size="9">null.mjs</text></a></g><g class="node"><a xlink:href="https://github.com/sverweij/dependency-cruiser/blob/main/src/report/teamcity.mjs" xlink:title="teamcity.mjs"><path fill="#fcf" stroke="#000" d="M183.83-101.88h-54.41c-2.96 0-5.92 2.96-5.92 5.92v5.92c0 2.96 2.96 5.92 5.92 5.92h54.41c2.96 0 5.92-2.96 5.92-5.92v-5.92c0-2.96-2.96-5.92-5.92-5.92"/><text x="131.5" y="-89.33" font-family="Helvetica,sans-Serif" font-size="9">teamcity.mjs</text></a></g><g class="edge"><path fill="none" stroke="#f0f" stroke-opacity=".467" stroke-width="2" d="M190.11-93H278v-71.68"/><path fill="#f0f" fill-opacity=".467" stroke="#f0f" stroke-opacity=".467" stroke-width="2" d="m275.9-164.68 2.1-6 2.1 6z"/></g><g class="node"><a xlink:href="https://github.com/sverweij/dependency-cruiser/blob/main/src/report/text.mjs" xlink:title="no-orphans"><path fill="#fcf" stroke="red" d="M82.71-41.88H40.54c-2.96 0-5.92 2.96-5.92 5.92v5.92c0 2.96 2.96 5.92 5.92 5.92h42.17c2.96 0 5.91-2.96 5.91-5.92v-5.92c0-2.96-2.95-5.92-5.91-5.92"/><text x="46.25" y="-29.32" fill="red" font-family="Helvetica,sans-Serif" font-size="9">text.mjs</text></a></g></g></svg>