<svg xmlns="http://www.w3.org/2000/svg" xmlns:xlink="http://www.w3.org/1999/xlink" width="1092" height="622pt" viewBox="0 0 819 622"><g class="graph" transform="translate(4 618)"><path fill="#fff" d="M-4 4v-622h819V4z"/><g class="node"><a xlink:href="https://github.com/sverweij/dependency-cruiser/blob/main/src/graph-utl/add-focus.mjs" xlink:title="add-focus.mjs"><path fill="#fcc" stroke="#000" d="M67.7-150.42H8.29c-4.34 0-8.67 4.33-8.67 8.67v8.66c0 4.34 4.33 8.67 8.67 8.67H67.7c4.34 0 8.67-4.33 8.67-8.67v-8.66c0-4.34-4.33-8.67-8.67-8.67"/><text x="11.37" y="-138.87" font-family="Helvetica,sans-Serif" font-size="9">src/graph-utl/</text><text x="7.62" y="-129.87" font-family="Helvetica,sans-Serif" font-size="9" font-weight="bold">add-focus.mjs</text></a></g><g class="node"><a xlink:href="https://github.com/sverweij/dependency-cruiser/blob/main/src/graph-utl/indexed-module-graph.mjs" xlink:title="indexed-module-graph.mjs"><path fill="#fcc" stroke="#000" d="M222.7-135.65H110.04c-4.34 0-8.67 4.34-8.67 8.67v8.67c0 4.33 4.33 8.66 8.67 8.66H222.7c4.34 0 8.67-4.33 8.67-8.66v-8.67c0-4.33-4.33-8.67-8.67-8.67"/><text x="139.74" y="-124.1" font-family="Helvetica,sans-Serif" font-size="9">src/graph-utl/</text><text x="109.37" y="-115.1" font-family="Helvetica,sans-Serif" font-size="9" font-weight="bold">indexed-module-graph.mjs</text></a></g><g class="edge"><path fill="none" stroke="#700" stroke-opacity=".467" stroke-width="2" d="M76.86-130h15.17"/><path fill="#700" fill-opacity=".467" stroke="#700" stroke-opacity=".467" stroke-width="2" d="m92.03-132.1 6 2.1-6 2.1z"/></g><g class="node"><a xlink:href="https://github.com/sverweij/dependency-cruiser/blob/main/src/graph-utl/match-facade.mjs" xlink:title="match-facade.mjs"><path fill="#fcc" stroke="#000" d="M97.94-204.07H22.02c-4.33 0-8.66 4.33-8.66 8.66v8.67c0 4.33 4.33 8.67 8.66 8.67h75.92c4.33 0 8.67-4.34 8.67-8.67v-8.67c0-4.33-4.34-8.66-8.67-8.66"/><text x="33.36" y="-192.52" font-family="Helvetica,sans-Serif" font-size="9">src/graph-utl/</text><text x="21.36" y="-183.52" font-family="Helvetica,sans-Serif" font-size="9" font-weight="bold">match-facade.mjs</text></a></g><g class="edge"><path fill="none" stroke="#700" stroke-opacity=".467" stroke-width="2" d="M34.36-150.68v-17.88"/><path fill="#700" fill-opacity=".467" stroke="#700" stroke-opacity=".467" stroke-width="2" d="m32.26-168.56 2.1-6 2.1 6z"/></g><g class="node"><a xlink:href="https://github.com/sverweij/dependency-cruiser/blob/main/src/graph-utl/compare.mjs" xlink:title="compare.mjs"><path fill="#fcc" stroke="#000" d="M263.87-203.02h-54.91c-4.34 0-8.67 4.34-8.67 8.67v8.67c0 4.33 4.33 8.66 8.67 8.66h54.91c4.34 0 8.67-4.33 8.67-8.66v-8.67c0-4.33-4.33-8.67-8.67-8.67"/><text x="209.79" y="-191.47" font-family="Helvetica,sans-Serif" font-size="9">src/graph-utl/</text><text x="208.29" y="-182.47" font-family="Helvetica,sans-Serif" font-size="9" font-weight="bold">compare.mjs</text></a></g><g class="node"><a xlink:href="https://github.com/sverweij/dependency-cruiser/blob/main/src/graph-utl/consolidate-module-dependencies.mjs" xlink:title="consolidate-module-dependencies.mjs"><path fill="#fcc" stroke="#000" d="M359.22-89.02H195.56c-4.34 0-8.67 4.33-8.67 8.66v8.67c0 4.33 4.33 8.67 8.67 8.67h163.66c4.34 0 8.67-4.34 8.67-8.67v-8.67c0-4.33-4.33-8.66-8.67-8.66"/><text x="250.77" y="-77.47" font-family="Helvetica,sans-Serif" font-size="9">src/graph-utl/</text><text x="194.89" y="-68.47" font-family="Helvetica,sans-Serif" font-size="9" font-weight="bold">consolidate-module-dependencies.mjs</text></a></g><g class="edge"><path fill="none" stroke="#700" stroke-opacity=".467" stroke-width="2" d="M235.82-89.1v-78.61"/><path fill="#700" fill-opacity=".467" stroke="#700" stroke-opacity=".467" stroke-width="2" d="m233.72-167.71 2.1-6 2.1 5.99z"/></g><g class="node"><a xlink:href="https://github.com/sverweij/dependency-cruiser/blob/main/src/graph-utl/consolidate-modules.mjs" xlink:title="consolidate-modules.mjs"><path fill="#fcc" stroke="#000" d="M354.84-146.57H248.93c-4.34 0-8.67 4.33-8.67 8.67v8.66c0 4.34 4.33 8.67 8.67 8.67h105.91c4.34 0 8.67-4.33 8.67-8.67v-8.66c0-4.34-4.33-8.67-8.67-8.67"/><text x="275.26" y="-135.02" font-family="Helvetica,sans-Serif" font-size="9">src/graph-utl/</text><text x="248.26" y="-126.02" font-family="Helvetica,sans-Serif" font-size="9" font-weight="bold">consolidate-modules.mjs</text></a></g><g class="edge"><path fill="none" stroke="#700" stroke-opacity=".467" stroke-width="2" d="M256.4-146.95v-20.76"/><path fill="#700" fill-opacity=".467" stroke="#700" stroke-opacity=".467" stroke-width="2" d="m254.3-167.71 2.1-6 2.1 6z"/></g><g class="node"><a xlink:href="https://github.com/sverweij/dependency-cruiser/blob/main/src/graph-utl/consolidate-to-folder.mjs" xlink:title="consolidate-to-folder.mjs"><path fill="#fcc" stroke="#000" d="M484.68-177.28H380.26c-4.33 0-8.67 4.33-8.67 8.67v8.66c0 4.34 4.34 8.67 8.67 8.67h104.42c4.33 0 8.66-4.33 8.66-8.67v-8.66c0-4.34-4.33-8.67-8.66-8.67"/><text x="405.84" y="-165.73" font-family="Helvetica,sans-Serif" font-size="9">src/graph-utl/</text><text x="379.59" y="-156.73" font-family="Helvetica,sans-Serif" font-size="9" font-weight="bold">consolidate-to-folder.mjs</text></a></g><g class="edge"><path fill="none" stroke="#700" stroke-opacity=".467" stroke-width="2" d="M377.35-150.9V-81h-.92"/><path fill="#700" fill-opacity=".467" stroke="#700" stroke-opacity=".467" stroke-width="2" d="m377.16-78.9-6-2.1 6-2.1z"/></g><g class="edge"><path fill="none" stroke="#700" stroke-opacity=".467" stroke-width="2" d="M374.47-151.01V-141h-1.68"/><path fill="#700" fill-opacity=".467" stroke="#700" stroke-opacity=".467" stroke-width="2" d="m372.79-138.9-6-2.1 6-2.1z"/></g><g class="node"><a xlink:href="https://github.com/sverweij/dependency-cruiser/blob/main/src/graph-utl/consolidate-to-pattern.mjs" xlink:title="consolidate-to-pattern.mjs"><path fill="#fcc" stroke="#000" d="M500.07-115.7H388.9c-4.33 0-8.66 4.34-8.66 8.67v8.67c0 4.33 4.33 8.66 8.66 8.66h111.17c4.33 0 8.67-4.33 8.67-8.66v-8.67c0-4.33-4.34-8.67-8.67-8.67"/><text x="417.86" y="-104.15" font-family="Helvetica,sans-Serif" font-size="9">src/graph-utl/</text><text x="388.24" y="-95.15" font-family="Helvetica,sans-Serif" font-size="9" font-weight="bold">consolidate-to-pattern.mjs</text></a></g><g class="edge"><path fill="none" stroke="#700" stroke-opacity=".467" stroke-width="2" d="M389.74-89.36V-74h-12.37"/><path fill="#700" fill-opacity=".467" stroke="#700" stroke-opacity=".467" stroke-width="2" d="m377.37-71.9-6-2.1 6-2.1z"/></g><g class="edge"><path fill="none" stroke="#700" stroke-opacity=".467" stroke-width="2" d="M436.79-116.19V-131h-63.95"/><path fill="#700" fill-opacity=".467" stroke="#700" stroke-opacity=".467" stroke-width="2" d="m372.84-128.9-6-2.1 6-2.1z"/></g><g class="node"><a xlink:href="https://github.com/sverweij/dependency-cruiser/blob/main/src/graph-utl/filter-bank.mjs" xlink:title="filter-bank.mjs"><path fill="#fcc" stroke="#000" d="M183.51-183.99h-60.16c-4.34 0-8.67 4.33-8.67 8.67v8.66c0 4.34 4.33 8.67 8.67 8.67h60.16c4.34 0 8.67-4.33 8.67-8.67v-8.66c0-4.34-4.33-8.67-8.67-8.67"/><text x="126.81" y="-172.44" font-family="Helvetica,sans-Serif" font-size="9">src/graph-utl/</text><text x="122.68" y="-163.44" font-family="Helvetica,sans-Serif" font-size="9" font-weight="bold">filter-bank.mjs</text></a></g><g class="edge"><path fill="none" stroke="#700" stroke-opacity=".467" stroke-width="2" d="M114.39-168H55.36v8.41"/><path fill="#700" fill-opacity=".467" stroke="#700" stroke-opacity=".467" stroke-width="2" d="m57.46-159.59-2.1 6-2.1-6z"/></g><g class="edge"><path fill="none" stroke="#700" stroke-opacity=".467" stroke-width="2" d="M153.43-157.52v12.45"/><path fill="#700" fill-opacity=".467" stroke="#700" stroke-opacity=".467" stroke-width="2" d="m155.53-145.07-2.1 6-2.1-6z"/></g><g class="edge"><path fill="none" stroke="#700" stroke-opacity=".467" stroke-width="2" d="M126.08-184.3v-8.7h-10.09"/><path fill="#700" fill-opacity=".467" stroke="#700" stroke-opacity=".467" stroke-width="2" d="m115.99-190.9-6-2.1 6-2.1z"/></g><g class="node"><a xlink:href="https://github.com/sverweij/dependency-cruiser/blob/main/src/graph-utl/rule-set.mjs" xlink:title="rule-set.mjs"><path fill="#fcc" stroke="#000" d="M689.41-230.91H637.5c-4.34 0-8.67 4.33-8.67 8.66v8.67c0 4.33 4.33 8.67 8.67 8.67h51.91c4.34 0 8.67-4.34 8.67-8.67v-8.67c0-4.33-4.33-8.66-8.67-8.66"/><text x="636.83" y="-219.36" font-family="Helvetica,sans-Serif" font-size="9">src/graph-utl/</text><text x="637.95" y="-210.36" font-family="Helvetica,sans-Serif" font-size="9" font-weight="bold">rule-set.mjs</text></a></g><g class="node"><a xlink:href="https://github.com/sverweij/dependency-cruiser/blob/main/src/graph-utl/strip-self-transitions.mjs" xlink:title="strip-self-transitions.mjs"><path fill="#fcc" stroke="#000" d="M527.31-245.33H423.64c-4.33 0-8.66 4.33-8.66 8.67v8.66c0 4.34 4.33 8.67 8.66 8.67h103.67c4.33 0 8.67-4.33 8.67-8.67v-8.66c0-4.34-4.34-8.67-8.67-8.67"/><text x="448.85" y="-233.78" font-family="Helvetica,sans-Serif" font-size="9">src/graph-utl/</text><text x="422.98" y="-224.78" font-family="Helvetica,sans-Serif" font-size="9" font-weight="bold">strip-self-transitions.mjs</text></a></g><g class="node"><a xlink:href="https://github.com/sverweij/dependency-cruiser/blob/main/src/report/anon/anonymize-path-element.mjs" xlink:title="anonymize-path-element.mjs"><path fill="#fcf" stroke="#000" d="M466.64-528.08H344.23c-4.34 0-8.67 4.34-8.67 8.67v8.67c0 4.33 4.33 8.66 8.67 8.66h122.41c4.34 0 8.67-4.33 8.67-8.66v-8.67c0-4.33-4.33-8.67-8.67-8.67"/><text x="373.56" y="-516.53" font-family="Helvetica,sans-Serif" font-size="9">src/report/anon/</text><text x="343.56" y="-507.53" font-family="Helvetica,sans-Serif" font-size="9" font-weight="bold">anonymize-path-element.mjs</text></a></g><g class="node"><a xlink:href="https://github.com/sverweij/dependency-cruiser/blob/main/src/report/anon/random-string.mjs" xlink:title="random-string.mjs"><path fill="#fcf" stroke="#000" d="M569.41-551.57h-77.42c-4.33 0-8.67 4.34-8.67 8.67v8.67c0 4.33 4.34 8.66 8.67 8.66h77.42c4.33 0 8.66-4.33 8.66-8.66v-8.67c0-4.33-4.33-8.67-8.66-8.67"/><text x="498.82" y="-540.02" font-family="Helvetica,sans-Serif" font-size="9">src/report/anon/</text><text x="491.32" y="-531.02" font-family="Helvetica,sans-Serif" font-size="9" font-weight="bold">random-string.mjs</text></a></g><g class="edge"><path fill="none" stroke="#f0f" stroke-opacity=".467" stroke-width="2" d="M475.6-514h21.79v-2.11"/><path fill="#f0f" fill-opacity=".467" stroke="#f0f" stroke-opacity=".467" stroke-width="2" d="m495.29-516.11 2.1-6 2.1 6z"/></g><g class="node"><a xlink:href="https://github.com/sverweij/dependency-cruiser/blob/main/src/report/anon/anonymize-path.mjs" xlink:title="anonymize-path.mjs"><path fill="#fcf" stroke="#000" d="M502.79-487.72h-84.92c-4.33 0-8.67 4.33-8.67 8.67v8.66c0 4.34 4.34 8.67 8.67 8.67h84.92c4.33 0 8.66-4.33 8.66-8.67v-8.66c0-4.34-4.33-8.67-8.66-8.67"/><text x="428.45" y="-476.17" font-family="Helvetica,sans-Serif" font-size="9">src/report/anon/</text><text x="417.2" y="-467.17" font-family="Helvetica,sans-Serif" font-size="9" font-weight="bold">anonymize-path.mjs</text></a></g><g class="edge"><path fill="none" stroke="#f0f" stroke-opacity=".467" stroke-width="2" d="M442.26-487.93v-4.74"/><path fill="#f0f" fill-opacity=".467" stroke="#f0f" stroke-opacity=".467" stroke-width="2" d="m440.16-492.67 2.1-6 2.1 6z"/></g><g class="node"><a xlink:href="https://github.com/sverweij/dependency-cruiser/blob/main/src/report/anon/index.mjs" xlink:title="index.mjs"><path fill="#fcf" stroke="#000" d="M475.91-614.45h-62.42c-4.33 0-8.66 4.34-8.66 8.67v8.67c0 4.33 4.33 8.66 8.66 8.66h62.42c4.33 0 8.67-4.33 8.67-8.66v-8.67c0-4.33-4.34-8.67-8.67-8.67"/><text x="412.83" y="-602.9" font-family="Helvetica,sans-Serif" font-size="9">src/report/anon/</text><text x="424.08" y="-593.9" font-family="Helvetica,sans-Serif" font-size="9" font-weight="bold">index.mjs</text></a></g><g class="edge"><path fill="none" stroke="#f0f" stroke-opacity=".467" stroke-width="2" d="M479.32-588.36v91.41"/><path fill="#f0f" fill-opacity=".467" stroke="#f0f" stroke-opacity=".467" stroke-width="2" d="m481.42-496.95-2.1 6-2.1-6z"/></g><g class="node"><a xlink:href="https://github.com/sverweij/dependency-cruiser/blob/main/src/report/azure-devops.mjs" xlink:title="azure-devops.mjs"><path fill="#fcf" stroke="#000" d="M440.67-409.34H365.5c-4.33 0-8.67 4.33-8.67 8.67v8.66c0 4.34 4.34 8.67 8.67 8.67h75.17c4.33 0 8.66-4.33 8.66-8.67v-8.66c0-4.34-4.33-8.67-8.66-8.67"/><text x="382.83" y="-397.79" font-family="Helvetica,sans-Serif" font-size="9">src/report/</text><text x="364.83" y="-388.79" font-family="Helvetica,sans-Serif" font-size="9" font-weight="bold">azure-devops.mjs</text></a></g><g class="node"><a xlink:href="https://github.com/sverweij/dependency-cruiser/blob/main/src/report/utl/index.mjs" xlink:title="index.mjs"><path fill="#fcf" stroke="#000" d="M510.06-349.91H458.9c-4.34 0-8.67 4.33-8.67 8.66v8.67c0 4.33 4.33 8.67 8.67 8.67h51.16c4.34 0 8.67-4.34 8.67-8.67v-8.67c0-4.33-4.33-8.66-8.67-8.66"/><text x="458.23" y="-338.36" font-family="Helvetica,sans-Serif" font-size="9">src/report/utl/</text><text x="463.86" y="-329.36" font-family="Helvetica,sans-Serif" font-size="9" font-weight="bold">index.mjs</text></a></g><g class="edge"><path fill="none" stroke="#f0f" stroke-opacity=".467" stroke-width="2" d="M449.8-387h3.98v27.64"/><path fill="#f0f" fill-opacity=".467" stroke="#f0f" stroke-opacity=".467" stroke-width="2" d="m455.88-359.36-2.1 6-2.1-6z"/></g><g class="node"><a xlink:href="https://github.com/sverweij/dependency-cruiser/blob/main/src/report/baseline.mjs" xlink:title="no-orphans"><path fill="#fcf" stroke="red" d="M460.57-67.64H407.9c-4.33 0-8.66 4.33-8.66 8.67v8.66c0 4.34 4.33 8.67 8.66 8.67h52.67c4.33 0 8.67-4.33 8.67-8.67v-8.66c0-4.34-4.34-8.67-8.67-8.67"/><text x="413.99" y="-56.09" fill="red" font-family="Helvetica,sans-Serif" font-size="9">src/report/</text><text x="407.24" y="-47.09" fill="red" font-family="Helvetica,sans-Serif" font-size="9" font-weight="bold">baseline.mjs</text></a></g><g class="node"><a xlink:href="https://github.com/sverweij/dependency-cruiser/blob/main/src/report/csv.mjs" xlink:title="csv.mjs"><path fill="#fcf" stroke="#000" d="M593.65-476.42h-39.17c-4.33 0-8.67 4.33-8.67 8.66v8.67c0 4.33 4.34 8.67 8.67 8.67h39.17c4.33 0 8.66-4.34 8.66-8.67v-8.67c0-4.33-4.33-8.66-8.66-8.66"/><text x="553.81" y="-464.87" font-family="Helvetica,sans-Serif" font-size="9">src/report/</text><text x="557.56" y="-455.87" font-family="Helvetica,sans-Serif" font-size="9" font-weight="bold">csv.mjs</text></a></g><g class="node"><a xlink:href="https://github.com/sverweij/dependency-cruiser/blob/main/src/report/utl/dependency-to-incidence-transformer.mjs" xlink:title="dependency-to-incidence-transformer.mjs"><path fill="#fcf" stroke="#000" d="M801.91-535.06H623.24c-4.33 0-8.66 4.34-8.66 8.67v8.67c0 4.33 4.33 8.66 8.66 8.66h178.67c4.33 0 8.67-4.33 8.67-8.66v-8.67c0-4.33-4.34-8.67-8.67-8.67"/><text x="686.33" y="-523.51" font-family="Helvetica,sans-Serif" font-size="9">src/report/utl/</text><text x="622.58" y="-514.51" font-family="Helvetica,sans-Serif" font-size="9" font-weight="bold">dependency-to-incidence-transformer.mjs</text></a></g><g class="edge"><path fill="none" stroke="#f0f" stroke-opacity=".467" stroke-width="2" d="M589.54-476.83V-520h15.57"/><path fill="#f0f" fill-opacity=".467" stroke="#f0f" stroke-opacity=".467" stroke-width="2" d="m605.11-522.1 6 2.1-6 2.1z"/></g><g class="node"><a xlink:href="https://github.com/sverweij/dependency-cruiser/blob/main/src/report/d2.mjs" xlink:title="d2.mjs"><path fill="#fcf" stroke="#000" d="M505.17-417.96H466c-4.33 0-8.67 4.34-8.67 8.67v8.67c0 4.33 4.34 8.66 8.67 8.66h39.17c4.33 0 8.66-4.33 8.66-8.66v-8.67c0-4.33-4.33-8.67-8.66-8.67"/><text x="465.33" y="-406.41" font-family="Helvetica,sans-Serif" font-size="9">src/report/</text><text x="471.33" y="-397.41" font-family="Helvetica,sans-Serif" font-size="9" font-weight="bold">d2.mjs</text></a></g><g class="edge"><path fill="none" stroke="#f0f" stroke-opacity=".467" stroke-width="2" d="M476.17-391.51v32.16"/><path fill="#f0f" fill-opacity=".467" stroke="#f0f" stroke-opacity=".467" stroke-width="2" d="m478.27-359.35-2.1 6-2.1-6z"/></g><g class="node"><a xlink:href="https://github.com/sverweij/dependency-cruiser/blob/main/src/report/dot/default-theme.mjs" xlink:title="default-theme.mjs"><path fill="#fcf" stroke="#000" d="M340.1-423.78h-75.92c-4.33 0-8.67 4.33-8.67 8.67v8.66c0 4.34 4.34 8.67 8.67 8.67h75.92c4.33 0 8.66-4.33 8.66-8.67v-8.66c0-4.34-4.33-8.67-8.66-8.67"/><text x="274.39" y="-412.23" font-family="Helvetica,sans-Serif" font-size="9">src/report/dot/</text><text x="263.51" y="-403.23" font-family="Helvetica,sans-Serif" font-size="9" font-weight="bold">default-theme.mjs</text></a></g><g class="node"><a xlink:href="https://github.com/sverweij/dependency-cruiser/blob/main/src/report/dot/dot-custom.mjs" xlink:title="dot-custom.mjs"><path fill="#fcf" stroke="#000" d="M305.98-341.32h-65.42c-4.33 0-8.67 4.34-8.67 8.67v8.67c0 4.33 4.34 8.66 8.67 8.66h65.42c4.33 0 8.66-4.33 8.66-8.66v-8.67c0-4.33-4.33-8.67-8.66-8.67"/><text x="245.52" y="-329.77" font-family="Helvetica,sans-Serif" font-size="9">src/report/dot/</text><text x="239.89" y="-320.77" font-family="Helvetica,sans-Serif" font-size="9" font-weight="bold">dot-custom.mjs</text></a></g><g class="node"><a xlink:href="https://github.com/sverweij/dependency-cruiser/blob/main/src/report/dot/index.mjs" xlink:title="index.mjs"><path fill="#fcf" stroke="#000" d="M284.47-307.3h-54.16c-4.34 0-8.67 4.33-8.67 8.67v8.66c0 4.34 4.33 8.67 8.67 8.67h54.16c4.34 0 8.67-4.33 8.67-8.67v-8.66c0-4.34-4.33-8.67-8.67-8.67"/><text x="229.64" y="-295.75" font-family="Helvetica,sans-Serif" font-size="9">src/report/dot/</text><text x="236.77" y="-286.75" font-family="Helvetica,sans-Serif" font-size="9" font-weight="bold">index.mjs</text></a></g><g class="edge"><path fill="none" stroke="#f0f" stroke-opacity=".467" stroke-width="2" d="M262.52-314.87v.72"/><path fill="#f0f" fill-opacity=".467" stroke="#f0f" stroke-opacity=".467" stroke-width="2" d="m264.62-316.67-2.1 6-2.1-6z"/></g><g class="edge"><path fill="none" stroke="#700" stroke-opacity=".467" stroke-width="2" d="M229.2-307.68V-362h-89.72v168.55"/><path fill="#700" fill-opacity=".467" stroke="#700" stroke-opacity=".467" stroke-width="2" d="m141.58-193.45-2.1 6-2.1-6z"/></g><g class="node"><a xlink:href="https://github.com/sverweij/dependency-cruiser/blob/main/src/report/dot/module-utl.mjs" xlink:title="module-utl.mjs"><path fill="#fcf" stroke="#000" d="M422.89-313.56h-61.67c-4.33 0-8.67 4.34-8.67 8.67v8.67c0 4.33 4.34 8.66 8.67 8.66h61.67c4.33 0 8.66-4.33 8.66-8.66v-8.67c0-4.33-4.33-8.67-8.66-8.67"/><text x="364.3" y="-302.01" font-family="Helvetica,sans-Serif" font-size="9">src/report/dot/</text><text x="360.55" y="-293.01" font-family="Helvetica,sans-Serif" font-size="9" font-weight="bold">module-utl.mjs</text></a></g><g class="edge"><path fill="none" stroke="#f0f" stroke-opacity=".467" stroke-width="2" d="M293.48-299h49.56"/><path fill="#f0f" fill-opacity=".467" stroke="#f0f" stroke-opacity=".467" stroke-width="2" d="m343.04-301.1 6 2.1-6 2.1z"/></g><g class="node"><a xlink:href="https://github.com/sverweij/dependency-cruiser/blob/main/src/report/dot/prepare-custom-level.mjs" xlink:title="prepare-custom-level.mjs"><path fill="#fcf" stroke="#000" d="M398.18-211.3H289.26c-4.33 0-8.66 4.33-8.66 8.67v8.66c0 4.34 4.33 8.67 8.66 8.67h108.92c4.33 0 8.67-4.33 8.67-8.67v-8.66c0-4.34-4.34-8.67-8.67-8.67"/><text x="315.97" y="-199.75" font-family="Helvetica,sans-Serif" font-size="9">src/report/dot/</text><text x="288.6" y="-190.75" font-family="Helvetica,sans-Serif" font-size="9" font-weight="bold">prepare-custom-level.mjs</text></a></g><g class="edge"><path fill="none" stroke="#f0f" stroke-opacity=".467" stroke-width="2" d="M221.35-294h-77.87v86h127.86"/><path fill="#f0f" fill-opacity=".467" stroke="#f0f" stroke-opacity=".467" stroke-width="2" d="m271.34-210.1 6 2.1-6 2.1z"/></g><g class="node"><a xlink:href="https://github.com/sverweij/dependency-cruiser/blob/main/src/report/dot/prepare-flat-level.mjs" xlink:title="prepare-flat-level.mjs"><path fill="#fcf" stroke="#000" d="M326.91-245.3h-90.16c-4.34 0-8.67 4.33-8.67 8.66v8.67c0 4.33 4.33 8.67 8.67 8.67h90.16c4.34 0 8.67-4.34 8.67-8.67v-8.67c0-4.33-4.33-8.66-8.67-8.66"/><text x="254.08" y="-233.75" font-family="Helvetica,sans-Serif" font-size="9">src/report/dot/</text><text x="236.08" y="-224.75" font-family="Helvetica,sans-Serif" font-size="9" font-weight="bold">prepare-flat-level.mjs</text></a></g><g class="edge"><path fill="none" stroke="#f0f" stroke-opacity=".467" stroke-width="2" d="M260.61-280.85v26.09"/><path fill="#f0f" fill-opacity=".467" stroke="#f0f" stroke-opacity=".467" stroke-width="2" d="m262.71-254.76-2.1 6-2.1-6z"/></g><g class="node"><a xlink:href="https://github.com/sverweij/dependency-cruiser/blob/main/src/report/dot/prepare-folder-level.mjs" xlink:title="prepare-folder-level.mjs"><path fill="#fcf" stroke="#000" d="M423.21-279.34H321.8c-4.34 0-8.67 4.34-8.67 8.67v8.67c0 4.33 4.33 8.66 8.67 8.66h101.41c4.34 0 8.67-4.33 8.67-8.66v-8.67c0-4.33-4.33-8.67-8.67-8.67"/><text x="344.75" y="-267.79" font-family="Helvetica,sans-Serif" font-size="9">src/report/dot/</text><text x="321.13" y="-258.79" font-family="Helvetica,sans-Serif" font-size="9" font-weight="bold">prepare-folder-level.mjs</text></a></g><g class="edge"><path fill="none" stroke="#f0f" stroke-opacity=".467" stroke-width="2" d="M293.56-291h33.72v2.15"/><path fill="#f0f" fill-opacity=".467" stroke="#f0f" stroke-opacity=".467" stroke-width="2" d="m329.38-288.85-2.1 6-2.1-6z"/></g><g class="node"><a xlink:href="https://github.com/sverweij/dependency-cruiser/blob/main/src/report/dot/theming.mjs" xlink:title="theming.mjs"><path fill="#fcf" stroke="#000" d="M354.78-375.33h-54.17c-4.33 0-8.66 4.33-8.66 8.66v8.67c0 4.33 4.33 8.67 8.66 8.67h54.17c4.33 0 8.67-4.34 8.67-8.67v-8.67c0-4.33-4.34-8.66-8.67-8.66"/><text x="299.95" y="-363.78" font-family="Helvetica,sans-Serif" font-size="9">src/report/dot/</text><text x="301.45" y="-354.78" font-family="Helvetica,sans-Serif" font-size="9" font-weight="bold">theming.mjs</text></a></g><g class="edge"><path fill="none" stroke="#f0f" stroke-opacity=".467" stroke-width="2" d="M293.35-303h46.57v-36.84"/><path fill="#f0f" fill-opacity=".467" stroke="#f0f" stroke-opacity=".467" stroke-width="2" d="m337.82-339.84 2.1-6 2.1 6z"/></g><g class="node"><a xlink:href="https://github.com/sverweij/dependency-cruiser/blob/main/src/report/dot/dot-flat.mjs" xlink:title="dot-flat.mjs"><path fill="#fcf" stroke="#000" d="M215.13-343.55h-54.16c-4.34 0-8.67 4.34-8.67 8.67v8.67c0 4.33 4.33 8.66 8.67 8.66h54.16c4.34 0 8.67-4.33 8.67-8.66v-8.67c0-4.33-4.33-8.67-8.67-8.67"/><text x="160.3" y="-332" font-family="Helvetica,sans-Serif" font-size="9">src/report/dot/</text><text x="164.05" y="-323" font-family="Helvetica,sans-Serif" font-size="9" font-weight="bold">dot-flat.mjs</text></a></g><g class="edge"><path fill="none" stroke="#f0f" stroke-opacity=".467" stroke-width="2" d="M223.98-329h2.52v12.36"/><path fill="#f0f" fill-opacity=".467" stroke="#f0f" stroke-opacity=".467" stroke-width="2" d="m228.6-316.64-2.1 6-2.1-6z"/></g><g class="node"><a xlink:href="https://github.com/sverweij/dependency-cruiser/blob/main/src/report/dot/dot-folder.mjs" xlink:title="dot-folder.mjs"><path fill="#fcf" stroke="#000" d="M211.32-273.27h-57.17c-4.33 0-8.67 4.33-8.67 8.66v8.67c0 4.33 4.34 8.67 8.67 8.67h57.17c4.33 0 8.66-4.34 8.66-8.67v-8.67c0-4.33-4.33-8.66-8.66-8.66"/><text x="154.98" y="-261.72" font-family="Helvetica,sans-Serif" font-size="9">src/report/dot/</text><text x="153.48" y="-252.72" font-family="Helvetica,sans-Serif" font-size="9" font-weight="bold">dot-folder.mjs</text></a></g><g class="edge"><path fill="none" stroke="#f0f" stroke-opacity=".467" stroke-width="2" d="M186.14-273.64V-287h26.18"/><path fill="#f0f" fill-opacity=".467" stroke="#f0f" stroke-opacity=".467" stroke-width="2" d="m212.32-289.1 6 2.1-6 2.1z"/></g><g class="node"><a xlink:href="https://github.com/sverweij/dependency-cruiser/blob/main/src/report/dot/dot-module.mjs" xlink:title="dot-module.mjs"><path fill="#fcf" stroke="#000" d="M128.82-307.33H64.15c-4.33 0-8.67 4.34-8.67 8.67v8.67c0 4.33 4.34 8.66 8.67 8.66h64.67c4.33 0 8.66-4.33 8.66-8.66v-8.67c0-4.33-4.33-8.67-8.66-8.67"/><text x="68.73" y="-295.78" font-family="Helvetica,sans-Serif" font-size="9">src/report/dot/</text><text x="63.48" y="-286.78" font-family="Helvetica,sans-Serif" font-size="9" font-weight="bold">dot-module.mjs</text></a></g><g class="edge"><path fill="none" stroke="#f0f" stroke-opacity=".467" stroke-width="2" d="M137.92-300h74.34"/><path fill="#f0f" fill-opacity=".467" stroke="#f0f" stroke-opacity=".467" stroke-width="2" d="m212.26-302.1 6 2.1-6 2.1z"/></g><g class="edge"><path fill="none" stroke="#f0f" stroke-opacity=".467" stroke-width="2" d="M431.97-301h37.21v-13.51"/><path fill="#f0f" fill-opacity=".467" stroke="#f0f" stroke-opacity=".467" stroke-width="2" d="m467.08-314.51 2.1-6 2.1 6z"/></g><g class="edge"><path fill="none" stroke="#f0f" stroke-opacity=".467" stroke-width="2" d="M358-313.96v-25.97"/><path fill="#f0f" fill-opacity=".467" stroke="#f0f" stroke-opacity=".467" stroke-width="2" d="m355.9-339.93 2.1-6 2.1 6z"/></g><g class="edge"><path fill="none" stroke="#700" stroke-opacity=".467" stroke-width="2" d="M280.37-194h-.75"/><path fill="#700" fill-opacity=".467" stroke="#700" stroke-opacity=".467" stroke-width="2" d="m281.89-191.9-6-2.1 6-2.1z"/></g><g class="edge"><path fill="none" stroke="#700" stroke-opacity=".467" stroke-width="2" d="M407.26-190h93.78v65.02"/><path fill="#700" fill-opacity=".467" stroke="#700" stroke-opacity=".467" stroke-width="2" d="m503.14-124.98-2.1 6-2.1-6z"/></g><g class="edge"><path fill="none" stroke="#700" stroke-opacity=".467" stroke-width="2" d="M407.32-203h46.84v-7.01"/><path fill="#700" fill-opacity=".467" stroke="#700" stroke-opacity=".467" stroke-width="2" d="m452.06-210.01 2.1-6 2.1 6z"/></g><g class="edge"><path fill="none" stroke="#f0f" stroke-opacity=".467" stroke-width="2" d="M280.29-206H141.48v-173h225.98v56.11"/><path fill="#f0f" fill-opacity=".467" stroke="#f0f" stroke-opacity=".467" stroke-width="2" d="m369.56-322.89-2.1 6-2.1-6z"/></g><g class="edge"><path fill="none" stroke="#700" stroke-opacity=".467" stroke-width="2" d="M250.31-218.92v6.44"/><path fill="#700" fill-opacity=".467" stroke="#700" stroke-opacity=".467" stroke-width="2" d="m252.41-212.48-2.1 6-2.1-6z"/></g><g class="edge"><path fill="none" stroke="#f0f" stroke-opacity=".467" stroke-width="2" d="M303.13-245.6V-295h40.12"/><path fill="#f0f" fill-opacity=".467" stroke="#f0f" stroke-opacity=".467" stroke-width="2" d="m343.25-297.1 6 2.1-6 2.1z"/></g><g class="edge"><path fill="none" stroke="#700" stroke-opacity=".467" stroke-width="2" d="M409.56-253v72H281.74"/><path fill="#700" fill-opacity=".467" stroke="#700" stroke-opacity=".467" stroke-width="2" d="m281.74-178.9-6-2.1 6-2.1z"/></g><g class="edge"><path fill="none" stroke="#700" stroke-opacity=".467" stroke-width="2" d="M412.27-252.99v66.34"/><path fill="#700" fill-opacity=".467" stroke="#700" stroke-opacity=".467" stroke-width="2" d="m414.37-186.65-2.1 6-2.1-6z"/></g><g class="edge"><path fill="none" stroke="#700" stroke-opacity=".467" stroke-width="2" d="M423.43-252.9v.73"/><path fill="#700" fill-opacity=".467" stroke="#700" stroke-opacity=".467" stroke-width="2" d="m425.53-254.7-2.1 6-2.1-6z"/></g><g class="edge"><path fill="none" stroke="#f0f" stroke-opacity=".467" stroke-width="2" d="M392.05-279.47v-.78"/><path fill="#f0f" fill-opacity=".467" stroke="#f0f" stroke-opacity=".467" stroke-width="2" d="m389.95-278.26 2.1-6 2.1 6z"/></g><g class="edge"><path fill="none" stroke="#f0f" stroke-opacity=".467" stroke-width="2" d="M320.36-375.83v-12.5"/><path fill="#f0f" fill-opacity=".467" stroke="#f0f" stroke-opacity=".467" stroke-width="2" d="m318.26-388.33 2.1-6 2.1 6z"/></g><g class="node"><a xlink:href="https://github.com/sverweij/dependency-cruiser/blob/main/src/report/error-html/error-html-template.mjs" xlink:title="error-html-template.mjs"><path fill="#fcf" stroke="#000" d="M781.42-265.35H680.75c-4.33 0-8.66 4.33-8.66 8.67v8.66c0 4.34 4.33 8.67 8.66 8.67h100.67c4.33 0 8.67-4.33 8.67-8.67v-8.66c0-4.34-4.34-8.67-8.67-8.67"/><text x="689.84" y="-253.8" font-family="Helvetica,sans-Serif" font-size="9">src/report/error-html/</text><text x="680.09" y="-244.8" font-family="Helvetica,sans-Serif" font-size="9" font-weight="bold">error-html-template.mjs</text></a></g><g class="node"><a xlink:href="https://github.com/sverweij/dependency-cruiser/blob/main/src/report/error-html/index.mjs" xlink:title="index.mjs"><path fill="#fcf" stroke="#000" d="M605.43-315.91h-81.17c-4.33 0-8.66 4.33-8.66 8.67v8.66c0 4.34 4.33 8.67 8.66 8.67h81.17c4.33 0 8.67-4.33 8.67-8.67v-8.66c0-4.34-4.34-8.67-8.67-8.67"/><text x="523.6" y="-304.36" font-family="Helvetica,sans-Serif" font-size="9">src/report/error-html/</text><text x="544.22" y="-295.36" font-family="Helvetica,sans-Serif" font-size="9" font-weight="bold">index.mjs</text></a></g><g class="edge"><path fill="none" stroke="#f0f" stroke-opacity=".467" stroke-width="2" d="M595.97-289.8v29.8h66.83"/><path fill="#f0f" fill-opacity=".467" stroke="#f0f" stroke-opacity=".467" stroke-width="2" d="m662.8-262.1 6 2.1-6 2.1z"/></g><g class="node"><a xlink:href="https://github.com/sverweij/dependency-cruiser/blob/main/src/report/error-html/utl.mjs" xlink:title="utl.mjs"><path fill="#fcf" stroke="#000" d="M603.92-383.92h-81.17c-4.33 0-8.66 4.34-8.66 8.67v8.67c0 4.33 4.33 8.66 8.66 8.66h81.17c4.33 0 8.67-4.33 8.67-8.66v-8.67c0-4.33-4.34-8.67-8.67-8.67"/><text x="522.09" y="-372.37" font-family="Helvetica,sans-Serif" font-size="9">src/report/error-html/</text><text x="549.09" y="-363.37" font-family="Helvetica,sans-Serif" font-size="9" font-weight="bold">utl.mjs</text></a></g><g class="edge"><path fill="none" stroke="#f0f" stroke-opacity=".467" stroke-width="2" d="M565.66-316.35v-32.13"/><path fill="#f0f" fill-opacity=".467" stroke="#f0f" stroke-opacity=".467" stroke-width="2" d="m563.56-348.48 2.1-6 2.1 6z"/></g><g class="edge"><path fill="none" stroke="#f0f" stroke-opacity=".467" stroke-width="2" d="M513.67-366H495v6.88"/><path fill="#f0f" fill-opacity=".467" stroke="#f0f" stroke-opacity=".467" stroke-width="2" d="m497.1-359.12-2.1 6-2.1-6z"/></g><g class="node"><a xlink:href="https://github.com/sverweij/dependency-cruiser/blob/main/src/report/error-long.mjs" xlink:title="error-long.mjs"><path fill="#fcf" stroke="#000" d="M612.14-221.46h-59.42c-4.33 0-8.67 4.33-8.67 8.66v8.67c0 4.33 4.34 8.67 8.67 8.67h59.42c4.33 0 8.66-4.34 8.66-8.67v-8.67c0-4.33-4.33-8.66-8.66-8.66"/><text x="562.18" y="-209.91" font-family="Helvetica,sans-Serif" font-size="9">src/report/</text><text x="552.05" y="-200.91" font-family="Helvetica,sans-Serif" font-size="9" font-weight="bold">error-long.mjs</text></a></g><g class="node"><a xlink:href="https://github.com/sverweij/dependency-cruiser/blob/main/src/report/error.mjs" xlink:title="error.mjs"><path fill="#fcf" stroke="#000" d="M569.18-281.9h-39.16c-4.34 0-8.67 4.34-8.67 8.67v8.67c0 4.33 4.33 8.66 8.67 8.66h39.16c4.34 0 8.67-4.33 8.67-8.66v-8.67c0-4.33-4.33-8.67-8.67-8.67"/><text x="529.35" y="-270.35" font-family="Helvetica,sans-Serif" font-size="9">src/report/</text><text x="530.1" y="-261.35" font-family="Helvetica,sans-Serif" font-size="9" font-weight="bold">error.mjs</text></a></g><g class="edge"><path fill="none" stroke="#f0f" stroke-opacity=".467" stroke-width="2" d="M555.32-221.88v-24.61"/><path fill="#f0f" fill-opacity=".467" stroke="#f0f" stroke-opacity=".467" stroke-width="2" d="m553.22-246.49 2.1-6 2.1 6z"/></g><g class="edge"><path fill="none" stroke="#700" stroke-opacity=".467" stroke-width="2" d="M566.58-255.79V-226h52.87"/><path fill="#700" fill-opacity=".467" stroke="#700" stroke-opacity=".467" stroke-width="2" d="m619.45-228.1 6 2.1-6 2.1z"/></g><g class="edge"><path fill="none" stroke="#f0f" stroke-opacity=".467" stroke-width="2" d="M520.99-270h-9.65v-44.67"/><path fill="#f0f" fill-opacity=".467" stroke="#f0f" stroke-opacity=".467" stroke-width="2" d="m509.24-314.67 2.1-6 2.1 6z"/></g><g class="node"><a xlink:href="https://github.com/sverweij/dependency-cruiser/blob/main/src/utl/wrap-and-indent.mjs" xlink:title="utl-module-not-shared-enough"><path fill="#ccc" stroke="#00f" d="M722.04-348.34h-85.67c-4.33 0-8.66 4.33-8.66 8.66v8.67c0 4.33 4.33 8.67 8.66 8.67h85.67c4.33 0 8.67-4.34 8.67-8.67v-8.67c0-4.33-4.34-8.66-8.67-8.66"/><text x="666.08" y="-336.79" fill="#00f" font-family="Helvetica,sans-Serif" font-size="9">src/utl/</text><text x="635.71" y="-327.79" fill="#00f" font-family="Helvetica,sans-Serif" font-size="9" font-weight="bold">wrap-and-indent.mjs</text></a></g><g class="edge"><path fill="none" stroke="#aaa" stroke-opacity=".467" stroke-width="2" d="M578.23-273h72.23v-40.09"/><path fill="#aaa" fill-opacity=".467" stroke="#aaa" stroke-opacity=".467" stroke-width="2" d="m648.36-313.09 2.1-6 2.1 6z"/></g><g class="node"><a xlink:href="https://github.com/sverweij/dependency-cruiser/blob/main/src/report/html/html-template.mjs" xlink:title="html-template.mjs"><path fill="#fcf" stroke="#000" d="M727.95-425.41h-75.92c-4.33 0-8.66 4.33-8.66 8.66v8.67c0 4.33 4.33 8.67 8.66 8.67h75.92c4.33 0 8.67-4.34 8.67-8.67v-8.67c0-4.33-4.34-8.66-8.67-8.66"/><text x="659.99" y="-413.86" font-family="Helvetica,sans-Serif" font-size="9">src/report/html/</text><text x="651.37" y="-404.86" font-family="Helvetica,sans-Serif" font-size="9" font-weight="bold">html-template.mjs</text></a></g><g class="node"><a xlink:href="https://github.com/sverweij/dependency-cruiser/blob/main/src/report/html/index.mjs" xlink:title="index.mjs"><path fill="#fcf" stroke="#000" d="M668.33-569.06h-58.66c-4.34 0-8.67 4.33-8.67 8.67v8.66c0 4.34 4.33 8.67 8.67 8.67h58.66c4.34 0 8.67-4.33 8.67-8.67v-8.66c0-4.34-4.33-8.67-8.67-8.67"/><text x="609" y="-557.51" font-family="Helvetica,sans-Serif" font-size="9">src/report/html/</text><text x="618.38" y="-548.51" font-family="Helvetica,sans-Serif" font-size="9" font-weight="bold">index.mjs</text></a></g><g class="edge"><path fill="none" stroke="#f0f" stroke-opacity=".467" stroke-width="2" d="M645.79-542.62v.72"/><path fill="#f0f" fill-opacity=".467" stroke="#f0f" stroke-opacity=".467" stroke-width="2" d="m647.89-544.43-2.1 6-2.1-6z"/></g><g class="edge"><path fill="none" stroke="#f0f" stroke-opacity=".467" stroke-width="2" d="M608.16-542.66V-408h25.68"/><path fill="#f0f" fill-opacity=".467" stroke="#f0f" stroke-opacity=".467" stroke-width="2" d="m633.84-410.1 6 2.1-6 2.1z"/></g><g class="node"><a xlink:href="https://github.com/sverweij/dependency-cruiser/blob/main/src/report/identity.mjs" xlink:title="identity.mjs"><path fill="#fcf" stroke="#000" d="M601.95-88.64h-47.42c-4.33 0-8.67 4.33-8.67 8.67v8.66c0 4.34 4.34 8.67 8.67 8.67h47.42c4.33 0 8.66-4.33 8.66-8.67v-8.66c0-4.34-4.33-8.67-8.66-8.67"/><text x="557.99" y="-77.09" font-family="Helvetica,sans-Serif" font-size="9">src/report/</text><text x="553.86" y="-68.09" font-family="Helvetica,sans-Serif" font-size="9" font-weight="bold">identity.mjs</text></a></g><g class="node"><a xlink:href="https://github.com/sverweij/dependency-cruiser/blob/main/src/report/index.mjs" xlink:title="index.mjs"><path fill="#fcf" stroke="#000" d="M573.46-162.68h-39.92c-4.33 0-8.66 4.33-8.66 8.66v8.67c0 4.33 4.33 8.67 8.66 8.67h39.92c4.33 0 8.67-4.34 8.67-8.67v-8.67c0-4.33-4.34-8.66-8.67-8.66"/><text x="533.25" y="-151.13" font-family="Helvetica,sans-Serif" font-size="9">src/report/</text><text x="532.88" y="-142.13" font-family="Helvetica,sans-Serif" font-size="9" font-weight="bold">index.mjs</text></a></g><g class="node"><a xlink:href="https://github.com/sverweij/dependency-cruiser/blob/main/src/report/plugins.mjs" xlink:title="plugins.mjs"><path fill="#fcf" stroke="#000" d="M646.22-152.37H598.8c-4.33 0-8.67 4.33-8.67 8.66v8.67c0 4.33 4.34 8.67 8.67 8.67h47.42c4.33 0 8.66-4.34 8.66-8.67v-8.67c0-4.33-4.33-8.66-8.66-8.66"/><text x="602.26" y="-140.82" font-family="Helvetica,sans-Serif" font-size="9">src/report/</text><text x="598.13" y="-131.82" font-family="Helvetica,sans-Serif" font-size="9" font-weight="bold">plugins.mjs</text></a></g><g class="edge"><path fill="none" stroke="#f0f" stroke-opacity=".467" stroke-width="2" d="M582.37-144h.76"/><path fill="#f0f" fill-opacity=".467" stroke="#f0f" stroke-opacity=".467" stroke-width="2" d="m580.94-146.1 6 2.1-6 2.1z"/></g><g class="node"><a xlink:href="https://github.com/sverweij/dependency-cruiser/blob/main/src/report/json.mjs" xlink:title="json.mjs"><path fill="#fcf" stroke="#000" d="M299.82-487.64h-39.17c-4.33 0-8.66 4.33-8.66 8.67v8.66c0 4.34 4.33 8.67 8.66 8.67h39.17c4.33 0 8.67-4.33 8.67-8.67v-8.66c0-4.34-4.34-8.67-8.67-8.67"/><text x="259.99" y="-476.09" font-family="Helvetica,sans-Serif" font-size="9">src/report/</text><text x="262.24" y="-467.09" font-family="Helvetica,sans-Serif" font-size="9" font-weight="bold">json.mjs</text></a></g><g class="node"><a xlink:href="https://github.com/sverweij/dependency-cruiser/blob/main/src/report/markdown.mjs" xlink:title="markdown.mjs"><path fill="#fcf" stroke="#000" d="M595.08-417.97h-61.67c-4.33 0-8.67 4.33-8.67 8.66v8.67c0 4.33 4.34 8.67 8.67 8.67h61.67c4.33 0 8.66-4.34 8.66-8.67v-8.67c0-4.33-4.33-8.66-8.66-8.66"/><text x="543.99" y="-406.42" font-family="Helvetica,sans-Serif" font-size="9">src/report/</text><text x="532.74" y="-397.42" font-family="Helvetica,sans-Serif" font-size="9" font-weight="bold">markdown.mjs</text></a></g><g class="edge"><path fill="none" stroke="#f0f" stroke-opacity=".467" stroke-width="2" d="M564.24-391.51v.72"/><path fill="#f0f" fill-opacity=".467" stroke="#f0f" stroke-opacity=".467" stroke-width="2" d="m566.34-393.3-2.1 6-2.1-6z"/></g><g class="node"><a xlink:href="https://github.com/sverweij/dependency-cruiser/blob/main/src/report/mermaid.mjs" xlink:title="no-orphans"><path fill="#fcf" stroke="red" d="M231.7-424.64h-54.92c-4.33 0-8.67 4.33-8.67 8.67v8.66c0 4.34 4.34 8.67 8.67 8.67h54.92c4.33 0 8.66-4.33 8.66-8.67v-8.66c0-4.34-4.33-8.67-8.66-8.67"/><text x="183.99" y="-413.09" fill="red" font-family="Helvetica,sans-Serif" font-size="9">src/report/</text><text x="176.11" y="-404.09" fill="red" font-family="Helvetica,sans-Serif" font-size="9" font-weight="bold">mermaid.mjs</text></a></g><g class="node"><a xlink:href="https://github.com/sverweij/dependency-cruiser/blob/main/src/report/metrics.mjs" xlink:title="metrics.mjs"><path fill="#fcf" stroke="#000" d="M498.41-284.12h-49.67c-4.33 0-8.67 4.34-8.67 8.67v8.67c0 4.33 4.34 8.66 8.67 8.66h49.67c4.33 0 8.66-4.33 8.66-8.66v-8.67c0-4.33-4.33-8.67-8.66-8.67"/><text x="453.32" y="-272.57" font-family="Helvetica,sans-Serif" font-size="9">src/report/</text><text x="448.07" y="-263.57" font-family="Helvetica,sans-Serif" font-size="9" font-weight="bold">metrics.mjs</text></a></g><g class="edge"><path fill="none" stroke="#f0f" stroke-opacity=".467" stroke-width="2" d="M488.13-284.43v-30.16"/><path fill="#f0f" fill-opacity=".467" stroke="#f0f" stroke-opacity=".467" stroke-width="2" d="m486.03-314.59 2.1-6 2.1 6z"/></g><g class="node"><a xlink:href="https://github.com/sverweij/dependency-cruiser/blob/main/src/report/null.mjs" xlink:title="null.mjs"><path fill="#fcf" stroke="#000" d="M215.82-508.64h-39.17c-4.33 0-8.66 4.33-8.66 8.67v8.66c0 4.34 4.33 8.67 8.66 8.67h39.17c4.33 0 8.67-4.33 8.67-8.67v-8.66c0-4.34-4.34-8.67-8.67-8.67"/><text x="175.99" y="-497.09" font-family="Helvetica,sans-Serif" font-size="9">src/report/</text><text x="179.74" y="-488.09" font-family="Helvetica,sans-Serif" font-size="9" font-weight="bold">null.mjs</text></a></g><g class="node"><a xlink:href="https://github.com/sverweij/dependency-cruiser/blob/main/src/report/teamcity.mjs" xlink:title="teamcity.mjs"><path fill="#fcf" stroke="#000" d="M433.56-350.3h-53.41c-4.34 0-8.67 4.34-8.67 8.67v8.67c0 4.33 4.33 8.66 8.67 8.66h53.41c4.34 0 8.67-4.33 8.67-8.66v-8.67c0-4.33-4.33-8.67-8.67-8.67"/><text x="386.61" y="-338.75" font-family="Helvetica,sans-Serif" font-size="9">src/report/</text><text x="379.48" y="-329.75" font-family="Helvetica,sans-Serif" font-size="9" font-weight="bold">teamcity.mjs</text></a></g><g class="edge"><path fill="none" stroke="#f0f" stroke-opacity=".467" stroke-width="2" d="M442.49-337h.76"/><path fill="#f0f" fill-opacity=".467" stroke="#f0f" stroke-opacity=".467" stroke-width="2" d="m441.12-339.1 6 2.1-6 2.1z"/></g><g class="node"><a xlink:href="https://github.com/sverweij/dependency-cruiser/blob/main/src/report/text.mjs" xlink:title="no-orphans"><path fill="#fcf" stroke="red" d="M551.82-25.64h-39.17c-4.33 0-8.66 4.33-8.66 8.67v8.66c0 4.34 4.33 8.67 8.66 8.67h39.17c4.33 0 8.67-4.33 8.67-8.67v-8.66c0-4.34-4.34-8.67-8.67-8.67"/><text x="511.99" y="-14.09" fill="red" font-family="Helvetica,sans-Serif" font-size="9">src/report/</text><text x="514.99" y="-5.09" fill="red" font-family="Helvetica,sans-Serif" font-size="9" font-weight="bold">text.mjs</text></a></g></g></svg>