<?xml version="1.0" encoding="UTF-8" standalone="no"?>
<!DOCTYPE svg PUBLIC "-//W3C//DTD SVG 1.1//EN"
 "http://www.w3.org/Graphics/SVG/1.1/DTD/svg11.dtd">
<!-- Generated by graphviz version 2.50.0 (20211204.2007)
 -->
<!-- Title: dependency&#45;cruiser output Pages: 1 -->
<svg width="670pt" height="484pt"
 viewBox="0.00 0.00 670.00 484.00" xmlns="http://www.w3.org/2000/svg" xmlns:xlink="http://www.w3.org/1999/xlink">
<g id="graph0" class="graph" transform="scale(1 1) rotate(0) translate(4 480)">
<title>dependency&#45;cruiser output</title>
<polygon fill="white" stroke="transparent" points="-4,4 -4,-480 666,-480 666,4 -4,4"/>
<g id="clust1" class="cluster">
<title>cluster_src</title>
<path fill="#ffffff" stroke="black" stroke-width="2" d="M20,-8C20,-8 642,-8 642,-8 648,-8 654,-14 654,-20 654,-20 654,-456 654,-456 654,-462 648,-468 642,-468 642,-468 20,-468 20,-468 14,-468 8,-462 8,-456 8,-456 8,-20 8,-20 8,-14 14,-8 20,-8"/>
<text text-anchor="middle" x="331" y="-456.8" font-family="Helvetica,sans-Serif" font-weight="bold" font-size="9.00">src</text>
</g>
<g id="clust2" class="cluster">
<title>cluster_src/graph&#45;utl</title>
<path fill="#ffffff" stroke="black" stroke-width="2" d="M252,-166C252,-166 634,-166 634,-166 640,-166 646,-172 646,-178 646,-178 646,-326 646,-326 646,-332 640,-338 634,-338 634,-338 252,-338 252,-338 246,-338 240,-332 240,-326 240,-326 240,-178 240,-178 240,-172 246,-166 252,-166"/>
<text text-anchor="middle" x="443" y="-326.8" font-family="Helvetica,sans-Serif" font-weight="bold" font-size="9.00">graph&#45;utl</text>
</g>
<g id="clust3" class="cluster">
<title>cluster_src/report</title>
<path fill="#ffffff" stroke="black" stroke-width="2" d="M28,-16C28,-16 220,-16 220,-16 226,-16 232,-22 232,-28 232,-28 232,-430 232,-430 232,-436 226,-442 220,-442 220,-442 28,-442 28,-442 22,-442 16,-436 16,-430 16,-430 16,-28 16,-28 16,-22 22,-16 28,-16"/>
<text text-anchor="middle" x="124" y="-430.8" font-family="Helvetica,sans-Serif" font-weight="bold" font-size="9.00">report</text>
</g>
<g id="clust4" class="cluster">
<title>cluster_src/utl</title>
<path fill="#ffffff" stroke="black" stroke-width="2" d="M263,-106C263,-106 348,-106 348,-106 354,-106 360,-112 360,-118 360,-118 360,-146 360,-146 360,-152 354,-158 348,-158 348,-158 263,-158 263,-158 257,-158 251,-152 251,-146 251,-146 251,-118 251,-118 251,-112 257,-106 263,-106"/>
<text text-anchor="start" x="300" y="-146.8" font-family="Helvetica,sans-Serif" font-weight="bold" font-size="9.00">utl</text>
</g>
<!-- src/graph&#45;utl/add&#45;focus.js -->
<g id="node1" class="node">
<title>src/graph&#45;utl/add&#45;focus.js</title>
<g id="a_node1"><a xlink:href="https://github.com/sverweij/dependency-cruiser/blob/develop/src/graph-utl/add-focus.js" xlink:title="add&#45;focus.js">
<path fill="#ffcccc" stroke="black" d="M487,-298C487,-298 433,-298 433,-298 430,-298 427,-295 427,-292 427,-292 427,-286 427,-286 427,-283 430,-280 433,-280 433,-280 487,-280 487,-280 490,-280 493,-283 493,-286 493,-286 493,-292 493,-292 493,-295 490,-298 487,-298"/>
<text text-anchor="start" x="435" y="-286.8" font-family="Helvetica,sans-Serif" font-size="9.00">add&#45;focus.js</text>
</a>
</g>
</g>
<!-- src/graph&#45;utl/match&#45;facade.js -->
<g id="node2" class="node">
<title>src/graph&#45;utl/match&#45;facade.js</title>
<g id="a_node2"><a xlink:href="https://github.com/sverweij/dependency-cruiser/blob/develop/src/graph-utl/match-facade.js" xlink:title="match&#45;facade.js">
<path fill="#ffcccc" stroke="black" d="M632,-305C632,-305 563,-305 563,-305 560,-305 557,-302 557,-299 557,-299 557,-293 557,-293 557,-290 560,-287 563,-287 563,-287 632,-287 632,-287 635,-287 638,-290 638,-293 638,-293 638,-299 638,-299 638,-302 635,-305 632,-305"/>
<text text-anchor="start" x="565" y="-293.8" font-family="Helvetica,sans-Serif" font-size="9.00">match&#45;facade.js</text>
</a>
</g>
</g>
<!-- src/graph&#45;utl/add&#45;focus.js&#45;&gt;src/graph&#45;utl/match&#45;facade.js -->
<g id="edge1" class="edge">
<title>src/graph&#45;utl/add&#45;focus.js&#45;&gt;src/graph&#45;utl/match&#45;facade.js</title>
<path fill="none" stroke="#770000" stroke-width="2" stroke-opacity="0.466667" d="M493.28,-292.5C493.28,-292.5 550.92,-292.5 550.92,-292.5"/>
<polygon fill="#770000" fill-opacity="0.466667" stroke="#770000" stroke-width="2" stroke-opacity="0.466667" points="550.92,-294.6 556.92,-292.5 550.92,-290.4 550.92,-294.6"/>
</g>
<!-- src/graph&#45;utl/compare.js -->
<g id="node3" class="node">
<title>src/graph&#45;utl/compare.js</title>
<g id="a_node3"><a xlink:href="https://github.com/sverweij/dependency-cruiser/blob/develop/src/graph-utl/compare.js" xlink:title="compare.js">
<path fill="#ffcccc" stroke="black" d="M622.5,-238C622.5,-238 572.5,-238 572.5,-238 569.5,-238 566.5,-235 566.5,-232 566.5,-232 566.5,-226 566.5,-226 566.5,-223 569.5,-220 572.5,-220 572.5,-220 622.5,-220 622.5,-220 625.5,-220 628.5,-223 628.5,-226 628.5,-226 628.5,-232 628.5,-232 628.5,-235 625.5,-238 622.5,-238"/>
<text text-anchor="start" x="574.5" y="-226.8" font-family="Helvetica,sans-Serif" font-size="9.00">compare.js</text>
</a>
</g>
</g>
<!-- src/graph&#45;utl/consolidate&#45;module&#45;dependencies.js -->
<g id="node4" class="node">
<title>src/graph&#45;utl/consolidate&#45;module&#45;dependencies.js</title>
<g id="a_node4"><a xlink:href="https://github.com/sverweij/dependency-cruiser/blob/develop/src/graph-utl/consolidate-module-dependencies.js" xlink:title="consolidate&#45;module&#45;dependencies.js">
<path fill="#ffcccc" stroke="black" d="M538,-268C538,-268 382,-268 382,-268 379,-268 376,-265 376,-262 376,-262 376,-256 376,-256 376,-253 379,-250 382,-250 382,-250 538,-250 538,-250 541,-250 544,-253 544,-256 544,-256 544,-262 544,-262 544,-265 541,-268 538,-268"/>
<text text-anchor="start" x="384" y="-256.8" font-family="Helvetica,sans-Serif" font-size="9.00">consolidate&#45;module&#45;dependencies.js</text>
</a>
</g>
</g>
<!-- src/graph&#45;utl/consolidate&#45;module&#45;dependencies.js&#45;&gt;src/graph&#45;utl/compare.js -->
<g id="edge2" class="edge">
<title>src/graph&#45;utl/consolidate&#45;module&#45;dependencies.js&#45;&gt;src/graph&#45;utl/compare.js</title>
<path fill="none" stroke="#770000" stroke-width="2" stroke-opacity="0.466667" d="M530,-249.86C530,-242.03 530,-232 530,-232 530,-232 560.12,-232 560.12,-232"/>
<polygon fill="#770000" fill-opacity="0.466667" stroke="#770000" stroke-width="2" stroke-opacity="0.466667" points="560.12,-234.1 566.12,-232 560.12,-229.9 560.12,-234.1"/>
</g>
<!-- src/graph&#45;utl/consolidate&#45;modules.js -->
<g id="node5" class="node">
<title>src/graph&#45;utl/consolidate&#45;modules.js</title>
<g id="a_node5"><a xlink:href="https://github.com/sverweij/dependency-cruiser/blob/develop/src/graph-utl/consolidate-modules.js" xlink:title="consolidate&#45;modules.js">
<path fill="#ffcccc" stroke="black" d="M509.5,-238C509.5,-238 410.5,-238 410.5,-238 407.5,-238 404.5,-235 404.5,-232 404.5,-232 404.5,-226 404.5,-226 404.5,-223 407.5,-220 410.5,-220 410.5,-220 509.5,-220 509.5,-220 512.5,-220 515.5,-223 515.5,-226 515.5,-226 515.5,-232 515.5,-232 515.5,-235 512.5,-238 509.5,-238"/>
<text text-anchor="start" x="412.5" y="-226.8" font-family="Helvetica,sans-Serif" font-size="9.00">consolidate&#45;modules.js</text>
</a>
</g>
</g>
<!-- src/graph&#45;utl/consolidate&#45;modules.js&#45;&gt;src/graph&#45;utl/compare.js -->
<g id="edge3" class="edge">
<title>src/graph&#45;utl/consolidate&#45;modules.js&#45;&gt;src/graph&#45;utl/compare.js</title>
<path fill="none" stroke="#770000" stroke-width="2" stroke-opacity="0.466667" d="M515.53,-226C515.53,-226 560.28,-226 560.28,-226"/>
<polygon fill="#770000" fill-opacity="0.466667" stroke="#770000" stroke-width="2" stroke-opacity="0.466667" points="560.28,-228.1 566.28,-226 560.28,-223.9 560.28,-228.1"/>
</g>
<!-- src/graph&#45;utl/consolidate&#45;to&#45;folder.js -->
<g id="node6" class="node">
<title>src/graph&#45;utl/consolidate&#45;to&#45;folder.js</title>
<g id="a_node6"><a xlink:href="https://github.com/sverweij/dependency-cruiser/blob/develop/src/graph-utl/consolidate-to-folder.js" xlink:title="consolidate&#45;to&#45;folder.js">
<path fill="#ffcccc" stroke="black" d="M354.5,-252C354.5,-252 256.5,-252 256.5,-252 253.5,-252 250.5,-249 250.5,-246 250.5,-246 250.5,-240 250.5,-240 250.5,-237 253.5,-234 256.5,-234 256.5,-234 354.5,-234 354.5,-234 357.5,-234 360.5,-237 360.5,-240 360.5,-240 360.5,-246 360.5,-246 360.5,-249 357.5,-252 354.5,-252"/>
<text text-anchor="start" x="258.5" y="-240.8" font-family="Helvetica,sans-Serif" font-size="9.00">consolidate&#45;to&#45;folder.js</text>
</a>
</g>
</g>
<!-- src/graph&#45;utl/consolidate&#45;to&#45;folder.js&#45;&gt;src/graph&#45;utl/consolidate&#45;module&#45;dependencies.js -->
<g id="edge4" class="edge">
<title>src/graph&#45;utl/consolidate&#45;to&#45;folder.js&#45;&gt;src/graph&#45;utl/consolidate&#45;module&#45;dependencies.js</title>
<path fill="none" stroke="#770000" stroke-width="2" stroke-opacity="0.466667" d="M360.62,-244C377.16,-244 391,-244 391,-244 391,-244 391,-244.58 391,-244.58"/>
<polygon fill="#770000" fill-opacity="0.466667" stroke="#770000" stroke-width="2" stroke-opacity="0.466667" points="388.9,-243.76 391,-249.76 393.1,-243.76 388.9,-243.76"/>
</g>
<!-- src/graph&#45;utl/consolidate&#45;to&#45;folder.js&#45;&gt;src/graph&#45;utl/consolidate&#45;modules.js -->
<g id="edge5" class="edge">
<title>src/graph&#45;utl/consolidate&#45;to&#45;folder.js&#45;&gt;src/graph&#45;utl/consolidate&#45;modules.js</title>
<path fill="none" stroke="#770000" stroke-width="2" stroke-opacity="0.466667" d="M306,-233.87C306,-231.31 306,-229.2 306,-229.2 306,-229.2 398.4,-229.2 398.4,-229.2"/>
<polygon fill="#770000" fill-opacity="0.466667" stroke="#770000" stroke-width="2" stroke-opacity="0.466667" points="398.4,-231.3 404.4,-229.2 398.4,-227.1 398.4,-231.3"/>
</g>
<!-- src/graph&#45;utl/consolidate&#45;to&#45;pattern.js -->
<g id="node7" class="node">
<title>src/graph&#45;utl/consolidate&#45;to&#45;pattern.js</title>
<g id="a_node7"><a xlink:href="https://github.com/sverweij/dependency-cruiser/blob/develop/src/graph-utl/consolidate-to-pattern.js" xlink:title="consolidate&#45;to&#45;pattern.js">
<path fill="#ffcccc" stroke="black" d="M357,-282C357,-282 254,-282 254,-282 251,-282 248,-279 248,-276 248,-276 248,-270 248,-270 248,-267 251,-264 254,-264 254,-264 357,-264 357,-264 360,-264 363,-267 363,-270 363,-270 363,-276 363,-276 363,-279 360,-282 357,-282"/>
<text text-anchor="start" x="256" y="-270.8" font-family="Helvetica,sans-Serif" font-size="9.00">consolidate&#45;to&#45;pattern.js</text>
</a>
</g>
</g>
<!-- src/graph&#45;utl/consolidate&#45;to&#45;pattern.js&#45;&gt;src/graph&#45;utl/consolidate&#45;module&#45;dependencies.js -->
<g id="edge6" class="edge">
<title>src/graph&#45;utl/consolidate&#45;to&#45;pattern.js&#45;&gt;src/graph&#45;utl/consolidate&#45;module&#45;dependencies.js</title>
<path fill="none" stroke="#770000" stroke-width="2" stroke-opacity="0.466667" d="M363.03,-276C383.69,-276 402,-276 402,-276 402,-276 402,-274.3 402,-274.3"/>
<polygon fill="#770000" fill-opacity="0.466667" stroke="#770000" stroke-width="2" stroke-opacity="0.466667" points="404.1,-274.3 402,-268.3 399.9,-274.3 404.1,-274.3"/>
</g>
<!-- src/graph&#45;utl/consolidate&#45;to&#45;pattern.js&#45;&gt;src/graph&#45;utl/consolidate&#45;modules.js -->
<g id="edge7" class="edge">
<title>src/graph&#45;utl/consolidate&#45;to&#45;pattern.js&#45;&gt;src/graph&#45;utl/consolidate&#45;modules.js</title>
<path fill="none" stroke="#770000" stroke-width="2" stroke-opacity="0.466667" d="M363.1,-272C367.34,-272 370,-272 370,-272 370,-272 370,-231.6 370,-231.6 370,-231.6 398.28,-231.6 398.28,-231.6"/>
<polygon fill="#770000" fill-opacity="0.466667" stroke="#770000" stroke-width="2" stroke-opacity="0.466667" points="398.28,-233.7 404.28,-231.6 398.28,-229.5 398.28,-233.7"/>
</g>
<!-- src/graph&#45;utl/filterbank.js -->
<g id="node8" class="node">
<title>src/graph&#45;utl/filterbank.js</title>
<g id="a_node8"><a xlink:href="https://github.com/sverweij/dependency-cruiser/blob/develop/src/graph-utl/filterbank.js" xlink:title="filterbank.js">
<path fill="#ffcccc" stroke="black" d="M331,-312C331,-312 280,-312 280,-312 277,-312 274,-309 274,-306 274,-306 274,-300 274,-300 274,-297 277,-294 280,-294 280,-294 331,-294 331,-294 334,-294 337,-297 337,-300 337,-300 337,-306 337,-306 337,-309 334,-312 331,-312"/>
<text text-anchor="start" x="282" y="-300.8" font-family="Helvetica,sans-Serif" font-size="9.00">filterbank.js</text>
</a>
</g>
</g>
<!-- src/graph&#45;utl/filterbank.js&#45;&gt;src/graph&#45;utl/add&#45;focus.js -->
<g id="edge8" class="edge">
<title>src/graph&#45;utl/filterbank.js&#45;&gt;src/graph&#45;utl/add&#45;focus.js</title>
<path fill="none" stroke="#770000" stroke-width="2" stroke-opacity="0.466667" d="M337.14,-300.33C382.34,-300.33 460,-300.33 460,-300.33 460,-300.33 460,-300.11 460,-300.11"/>
<polygon fill="#770000" fill-opacity="0.466667" stroke="#770000" stroke-width="2" stroke-opacity="0.466667" points="462.1,-304.15 460,-298.15 457.9,-304.15 462.1,-304.15"/>
</g>
<!-- src/graph&#45;utl/filterbank.js&#45;&gt;src/graph&#45;utl/match&#45;facade.js -->
<g id="edge9" class="edge">
<title>src/graph&#45;utl/filterbank.js&#45;&gt;src/graph&#45;utl/match&#45;facade.js</title>
<path fill="none" stroke="#770000" stroke-width="2" stroke-opacity="0.466667" d="M337.03,-302.67C337.03,-302.67 550.79,-302.67 550.79,-302.67"/>
<polygon fill="#770000" fill-opacity="0.466667" stroke="#770000" stroke-width="2" stroke-opacity="0.466667" points="550.79,-304.77 556.79,-302.67 550.79,-300.57 550.79,-304.77"/>
</g>
<!-- src/graph&#45;utl/rule&#45;set.js -->
<g id="node9" class="node">
<title>src/graph&#45;utl/rule&#45;set.js</title>
<g id="a_node9"><a xlink:href="https://github.com/sverweij/dependency-cruiser/blob/develop/src/graph-utl/rule-set.js" xlink:title="rule&#45;set.js">
<path fill="#ffcccc" stroke="black" d="M327.5,-192C327.5,-192 283.5,-192 283.5,-192 280.5,-192 277.5,-189 277.5,-186 277.5,-186 277.5,-180 277.5,-180 277.5,-177 280.5,-174 283.5,-174 283.5,-174 327.5,-174 327.5,-174 330.5,-174 333.5,-177 333.5,-180 333.5,-180 333.5,-186 333.5,-186 333.5,-189 330.5,-192 327.5,-192"/>
<text text-anchor="start" x="285.5" y="-180.8" font-family="Helvetica,sans-Serif" font-size="9.00">rule&#45;set.js</text>
</a>
</g>
</g>
<!-- src/graph&#45;utl/strip&#45;self&#45;transitions.js -->
<g id="node10" class="node">
<title>src/graph&#45;utl/strip&#45;self&#45;transitions.js</title>
<g id="a_node10"><a xlink:href="https://github.com/sverweij/dependency-cruiser/blob/develop/src/graph-utl/strip-self-transitions.js" xlink:title="strip&#45;self&#45;transitions.js">
<path fill="#ffcccc" stroke="black" d="M352,-222C352,-222 259,-222 259,-222 256,-222 253,-219 253,-216 253,-216 253,-210 253,-210 253,-207 256,-204 259,-204 259,-204 352,-204 352,-204 355,-204 358,-207 358,-210 358,-210 358,-216 358,-216 358,-219 355,-222 352,-222"/>
<text text-anchor="start" x="261" y="-210.8" font-family="Helvetica,sans-Serif" font-size="9.00">strip&#45;self&#45;transitions.js</text>
</a>
</g>
</g>
<!-- src/report/anon -->
<g id="node11" class="node">
<title>src/report/anon</title>
<g id="a_node11"><a xlink:href="https://github.com/sverweij/dependency-cruiser/blob/develop/src/report/anon" xlink:title="anon">
<polygon fill="#ffccff" stroke="black" points="151,-42 99,-42 97,-40 97,-24 149,-24 151,-26 151,-42"/>
<polyline fill="none" stroke="black" points="149,-40 97,-40 "/>
<polyline fill="none" stroke="black" points="149,-40 149,-24 "/>
<polyline fill="none" stroke="black" points="149,-40 151,-42 "/>
<text text-anchor="start" x="113" y="-30.8" font-family="Helvetica,sans-Serif" font-size="9.00">anon</text>
</a>
</g>
</g>
<!-- src/report/baseline.js -->
<g id="node12" class="node">
<title>src/report/baseline.js</title>
<g id="a_node12"><a xlink:href="https://github.com/sverweij/dependency-cruiser/blob/develop/src/report/baseline.js" xlink:title="baseline.js">
<path fill="#ffccff" stroke="black" d="M148.5,-72C148.5,-72 99.5,-72 99.5,-72 96.5,-72 93.5,-69 93.5,-66 93.5,-66 93.5,-60 93.5,-60 93.5,-57 96.5,-54 99.5,-54 99.5,-54 148.5,-54 148.5,-54 151.5,-54 154.5,-57 154.5,-60 154.5,-60 154.5,-66 154.5,-66 154.5,-69 151.5,-72 148.5,-72"/>
<text text-anchor="start" x="101.5" y="-60.8" font-family="Helvetica,sans-Serif" font-size="9.00">baseline.js</text>
</a>
</g>
</g>
<!-- src/report/csv.js -->
<g id="node13" class="node">
<title>src/report/csv.js</title>
<g id="a_node13"><a xlink:href="https://github.com/sverweij/dependency-cruiser/blob/develop/src/report/csv.js" xlink:title="csv.js">
<path fill="#ffccff" stroke="black" d="M145,-102C145,-102 103,-102 103,-102 100,-102 97,-99 97,-96 97,-96 97,-90 97,-90 97,-87 100,-84 103,-84 103,-84 145,-84 145,-84 148,-84 151,-87 151,-90 151,-90 151,-96 151,-96 151,-99 148,-102 145,-102"/>
<text text-anchor="start" x="112.5" y="-90.8" font-family="Helvetica,sans-Serif" font-size="9.00">csv.js</text>
</a>
</g>
</g>
<!-- src/report/utl -->
<g id="node14" class="node">
<title>src/report/utl</title>
<g id="a_node14"><a xlink:href="https://github.com/sverweij/dependency-cruiser/blob/develop/src/report/utl" xlink:title="utl">
<polygon fill="#ffccff" stroke="black" points="224,-145 172,-145 170,-143 170,-127 222,-127 224,-129 224,-145"/>
<polyline fill="none" stroke="black" points="222,-143 170,-143 "/>
<polyline fill="none" stroke="black" points="222,-143 222,-127 "/>
<polyline fill="none" stroke="black" points="222,-143 224,-145 "/>
<text text-anchor="start" x="192" y="-133.8" font-family="Helvetica,sans-Serif" font-size="9.00">utl</text>
</a>
</g>
</g>
<!-- src/report/csv.js&#45;&gt;src/report/utl -->
<g id="edge10" class="edge">
<title>src/report/csv.js&#45;&gt;src/report/utl</title>
<path fill="none" stroke="#ff00ff" stroke-width="2" stroke-opacity="0.466667" d="M151.18,-93C171.94,-93 197,-93 197,-93 197,-93 197,-120.88 197,-120.88"/>
<polygon fill="#ff00ff" fill-opacity="0.466667" stroke="#ff00ff" stroke-width="2" stroke-opacity="0.466667" points="194.9,-120.88 197,-126.88 199.1,-120.88 194.9,-120.88"/>
</g>
<!-- src/report/dot -->
<g id="node15" class="node">
<title>src/report/dot</title>
<g id="a_node15"><a xlink:href="https://github.com/sverweij/dependency-cruiser/blob/develop/src/report/dot" xlink:title="dot">
<polygon fill="#ffccff" stroke="black" points="151,-236 99,-236 97,-234 97,-218 149,-218 151,-220 151,-236"/>
<polyline fill="none" stroke="black" points="149,-234 97,-234 "/>
<polyline fill="none" stroke="black" points="149,-234 149,-218 "/>
<polyline fill="none" stroke="black" points="149,-234 151,-236 "/>
<text text-anchor="start" x="117.5" y="-224.8" font-family="Helvetica,sans-Serif" font-size="9.00">dot</text>
</a>
</g>
</g>
<!-- src/report/dot&#45;&gt;src/graph&#45;utl/compare.js -->
<g id="edge12" class="edge">
<title>src/report/dot&#45;&gt;src/graph&#45;utl/compare.js</title>
<path fill="none" stroke="#770000" stroke-width="2" stroke-opacity="0.466667" d="M115,-217.82C115,-209.33 115,-198 115,-198 115,-198 598,-198 598,-198 598,-198 598,-213.87 598,-213.87"/>
<polygon fill="#770000" fill-opacity="0.466667" stroke="#770000" stroke-width="2" stroke-opacity="0.466667" points="595.9,-213.87 598,-219.87 600.1,-213.87 595.9,-213.87"/>
</g>
<!-- src/report/dot&#45;&gt;src/graph&#45;utl/consolidate&#45;to&#45;folder.js -->
<g id="edge15" class="edge">
<title>src/report/dot&#45;&gt;src/graph&#45;utl/consolidate&#45;to&#45;folder.js</title>
<path fill="none" stroke="#770000" stroke-width="2" stroke-opacity="0.466667" d="M124,-236.24C124,-239.33 124,-242 124,-242 124,-242 244.06,-242 244.06,-242"/>
<polygon fill="#770000" fill-opacity="0.466667" stroke="#770000" stroke-width="2" stroke-opacity="0.466667" points="244.06,-244.1 250.06,-242 244.06,-239.9 244.06,-244.1"/>
</g>
<!-- src/report/dot&#45;&gt;src/graph&#45;utl/consolidate&#45;to&#45;pattern.js -->
<g id="edge13" class="edge">
<title>src/report/dot&#45;&gt;src/graph&#45;utl/consolidate&#45;to&#45;pattern.js</title>
<path fill="none" stroke="#770000" stroke-width="2" stroke-opacity="0.466667" d="M151.31,-224.4C159.33,-224.4 166,-224.4 166,-224.4 166,-224.4 166,-272 166,-272 166,-272 241.95,-272 241.95,-272"/>
<polygon fill="#770000" fill-opacity="0.466667" stroke="#770000" stroke-width="2" stroke-opacity="0.466667" points="241.95,-274.1 247.95,-272 241.95,-269.9 241.95,-274.1"/>
</g>
<!-- src/report/dot&#45;&gt;src/graph&#45;utl/filterbank.js -->
<g id="edge11" class="edge">
<title>src/report/dot&#45;&gt;src/graph&#45;utl/filterbank.js</title>
<path fill="none" stroke="#770000" stroke-width="2" stroke-opacity="0.466667" d="M151.21,-226.8C157.3,-226.8 162,-226.8 162,-226.8 162,-226.8 162,-302 162,-302 162,-302 267.65,-302 267.65,-302"/>
<polygon fill="#770000" fill-opacity="0.466667" stroke="#770000" stroke-width="2" stroke-opacity="0.466667" points="267.65,-304.1 273.65,-302 267.65,-299.9 267.65,-304.1"/>
</g>
<!-- src/report/dot&#45;&gt;src/graph&#45;utl/strip&#45;self&#45;transitions.js -->
<g id="edge14" class="edge">
<title>src/report/dot&#45;&gt;src/graph&#45;utl/strip&#45;self&#45;transitions.js</title>
<path fill="none" stroke="#770000" stroke-width="2" stroke-opacity="0.466667" d="M133,-217.79C133,-215.83 133,-214.33 133,-214.33 133,-214.33 246.81,-214.33 246.81,-214.33"/>
<polygon fill="#770000" fill-opacity="0.466667" stroke="#770000" stroke-width="2" stroke-opacity="0.466667" points="246.81,-216.43 252.81,-214.33 246.81,-212.23 246.81,-216.43"/>
</g>
<!-- src/report/error&#45;html -->
<g id="node16" class="node">
<title>src/report/error&#45;html</title>
<g id="a_node16"><a xlink:href="https://github.com/sverweij/dependency-cruiser/blob/develop/src/report/error-html" xlink:title="error&#45;html">
<polygon fill="#ffccff" stroke="black" points="152,-132 98,-132 96,-130 96,-114 150,-114 152,-116 152,-132"/>
<polyline fill="none" stroke="black" points="150,-130 96,-130 "/>
<polyline fill="none" stroke="black" points="150,-130 150,-114 "/>
<polyline fill="none" stroke="black" points="150,-130 152,-132 "/>
<text text-anchor="start" x="104" y="-120.8" font-family="Helvetica,sans-Serif" font-size="9.00">error&#45;html</text>
</a>
</g>
</g>
<!-- src/report/error&#45;long.js -->
<g id="node17" class="node">
<title>src/report/error&#45;long.js</title>
<g id="a_node17"><a xlink:href="https://github.com/sverweij/dependency-cruiser/blob/develop/src/report/error-long.js" xlink:title="error&#45;long.js">
<path fill="#ffccff" stroke="black" d="M151,-192C151,-192 97,-192 97,-192 94,-192 91,-189 91,-186 91,-186 91,-180 91,-180 91,-177 94,-174 97,-174 97,-174 151,-174 151,-174 154,-174 157,-177 157,-180 157,-180 157,-186 157,-186 157,-189 154,-192 151,-192"/>
<text text-anchor="start" x="99" y="-180.8" font-family="Helvetica,sans-Serif" font-size="9.00">error&#45;long.js</text>
</a>
</g>
</g>
<!-- src/report/error.js -->
<g id="node18" class="node">
<title>src/report/error.js</title>
<g id="a_node18"><a xlink:href="https://github.com/sverweij/dependency-cruiser/blob/develop/src/report/error.js" xlink:title="error.js">
<path fill="#ffccff" stroke="black" d="M218,-192C218,-192 176,-192 176,-192 173,-192 170,-189 170,-186 170,-186 170,-180 170,-180 170,-177 173,-174 176,-174 176,-174 218,-174 218,-174 221,-174 224,-177 224,-180 224,-180 224,-186 224,-186 224,-189 221,-192 218,-192"/>
<text text-anchor="start" x="182.5" y="-180.8" font-family="Helvetica,sans-Serif" font-size="9.00">error.js</text>
</a>
</g>
</g>
<!-- src/report/error&#45;long.js&#45;&gt;src/report/error.js -->
<g id="edge16" class="edge">
<title>src/report/error&#45;long.js&#45;&gt;src/report/error.js</title>
<path fill="none" stroke="#ff00ff" stroke-width="2" stroke-opacity="0.466667" d="M157.08,-183C157.08,-183 163.71,-183 163.71,-183"/>
<polygon fill="#ff00ff" fill-opacity="0.466667" stroke="#ff00ff" stroke-width="2" stroke-opacity="0.466667" points="163.71,-185.1 169.71,-183 163.71,-180.9 163.71,-185.1"/>
</g>
<!-- src/report/error.js&#45;&gt;src/graph&#45;utl/rule&#45;set.js -->
<g id="edge17" class="edge">
<title>src/report/error.js&#45;&gt;src/graph&#45;utl/rule&#45;set.js</title>
<path fill="none" stroke="#770000" stroke-width="2" stroke-opacity="0.466667" d="M224.1,-186C224.1,-186 271.23,-186 271.23,-186"/>
<polygon fill="#770000" fill-opacity="0.466667" stroke="#770000" stroke-width="2" stroke-opacity="0.466667" points="271.23,-188.1 277.23,-186 271.23,-183.9 271.23,-188.1"/>
</g>
<!-- src/utl/wrap&#45;and&#45;indent.js -->
<g id="node19" class="node">
<title>src/utl/wrap&#45;and&#45;indent.js</title>
<g id="a_node19"><a xlink:href="https://github.com/sverweij/dependency-cruiser/blob/develop/src/utl/wrap-and-indent.js" xlink:title="utl&#45;module&#45;not&#45;shared&#45;enough">
<path fill="#cccccc" stroke="blue" d="M346,-132C346,-132 265,-132 265,-132 262,-132 259,-129 259,-126 259,-126 259,-120 259,-120 259,-117 262,-114 265,-114 265,-114 346,-114 346,-114 349,-114 352,-117 352,-120 352,-120 352,-126 352,-126 352,-129 349,-132 346,-132"/>
<text text-anchor="start" x="267" y="-120.8" font-family="Helvetica,sans-Serif" font-size="9.00" fill="blue">wrap&#45;and&#45;indent.js</text>
</a>
</g>
</g>
<!-- src/report/error.js&#45;&gt;src/utl/wrap&#45;and&#45;indent.js -->
<g id="edge18" class="edge">
<title>src/report/error.js&#45;&gt;src/utl/wrap&#45;and&#45;indent.js</title>
<path fill="none" stroke="#aaaaaa" stroke-width="2" stroke-opacity="0.466667" d="M224.22,-180C244.61,-180 269,-180 269,-180 269,-180 269,-138.16 269,-138.16"/>
<polygon fill="#aaaaaa" fill-opacity="0.466667" stroke="#aaaaaa" stroke-width="2" stroke-opacity="0.466667" points="271.1,-138.16 269,-132.16 266.9,-138.16 271.1,-138.16"/>
</g>
<!-- src/report/html -->
<g id="node20" class="node">
<title>src/report/html</title>
<g id="a_node20"><a xlink:href="https://github.com/sverweij/dependency-cruiser/blob/develop/src/report/html" xlink:title="html">
<polygon fill="#ffccff" stroke="black" points="151,-162 99,-162 97,-160 97,-144 149,-144 151,-146 151,-162"/>
<polyline fill="none" stroke="black" points="149,-160 97,-160 "/>
<polyline fill="none" stroke="black" points="149,-160 149,-144 "/>
<polyline fill="none" stroke="black" points="149,-160 151,-162 "/>
<text text-anchor="start" x="115" y="-150.8" font-family="Helvetica,sans-Serif" font-size="9.00">html</text>
</a>
</g>
</g>
<!-- src/report/html&#45;&gt;src/report/utl -->
<g id="edge19" class="edge">
<title>src/report/html&#45;&gt;src/report/utl</title>
<path fill="none" stroke="#ff00ff" stroke-width="2" stroke-opacity="0.466667" d="M124,-143.76C124,-140.67 124,-138 124,-138 124,-138 163.82,-138 163.82,-138"/>
<polygon fill="#ff00ff" fill-opacity="0.466667" stroke="#ff00ff" stroke-width="2" stroke-opacity="0.466667" points="163.82,-140.1 169.82,-138 163.82,-135.9 163.82,-140.1"/>
</g>
<!-- src/report/identity.js -->
<g id="node21" class="node">
<title>src/report/identity.js</title>
<g id="a_node21"><a xlink:href="https://github.com/sverweij/dependency-cruiser/blob/develop/src/report/identity.js" xlink:title="identity.js">
<path fill="#ffccff" stroke="black" d="M145.5,-266C145.5,-266 102.5,-266 102.5,-266 99.5,-266 96.5,-263 96.5,-260 96.5,-260 96.5,-254 96.5,-254 96.5,-251 99.5,-248 102.5,-248 102.5,-248 145.5,-248 145.5,-248 148.5,-248 151.5,-251 151.5,-254 151.5,-254 151.5,-260 151.5,-260 151.5,-263 148.5,-266 145.5,-266"/>
<text text-anchor="start" x="104.5" y="-254.8" font-family="Helvetica,sans-Serif" font-size="9.00">identity.js</text>
</a>
</g>
</g>
<!-- src/report/index.js -->
<g id="node22" class="node">
<title>src/report/index.js</title>
<g id="a_node22"><a xlink:href="https://github.com/sverweij/dependency-cruiser/blob/develop/src/report/index.js" xlink:title="index.js">
<path fill="#ffccff" stroke="black" d="M72,-225C72,-225 30,-225 30,-225 27,-225 24,-222 24,-219 24,-219 24,-213 24,-213 24,-210 27,-207 30,-207 30,-207 72,-207 72,-207 75,-207 78,-210 78,-213 78,-213 78,-219 78,-219 78,-222 75,-225 72,-225"/>
<text text-anchor="start" x="35" y="-213.8" font-family="Helvetica,sans-Serif" font-size="9.00">index.js</text>
</a>
</g>
</g>
<!-- src/report/index.js&#45;&gt;src/report/anon -->
<g id="edge20" class="edge">
<title>src/report/index.js&#45;&gt;src/report/anon</title>
<path fill="none" stroke="#ff00ff" stroke-width="2" stroke-opacity="0.466667" d="M32,-206.93C32,-170 32,-33 32,-33 32,-33 90.89,-33 90.89,-33"/>
<polygon fill="#ff00ff" fill-opacity="0.466667" stroke="#ff00ff" stroke-width="2" stroke-opacity="0.466667" points="90.89,-35.1 96.89,-33 90.89,-30.9 90.89,-35.1"/>
</g>
<!-- src/report/index.js&#45;&gt;src/report/baseline.js -->
<g id="edge21" class="edge">
<title>src/report/index.js&#45;&gt;src/report/baseline.js</title>
<path fill="none" stroke="#ff00ff" stroke-width="2" stroke-opacity="0.466667" d="M40,-206.89C40,-173.95 40,-63 40,-63 40,-63 87.2,-63 87.2,-63"/>
<polygon fill="#ff00ff" fill-opacity="0.466667" stroke="#ff00ff" stroke-width="2" stroke-opacity="0.466667" points="87.2,-65.1 93.2,-63 87.2,-60.9 87.2,-65.1"/>
</g>
<!-- src/report/index.js&#45;&gt;src/report/csv.js -->
<g id="edge22" class="edge">
<title>src/report/index.js&#45;&gt;src/report/csv.js</title>
<path fill="none" stroke="#ff00ff" stroke-width="2" stroke-opacity="0.466667" d="M48,-206.76C48,-178.15 48,-93 48,-93 48,-93 90.99,-93 90.99,-93"/>
<polygon fill="#ff00ff" fill-opacity="0.466667" stroke="#ff00ff" stroke-width="2" stroke-opacity="0.466667" points="90.99,-95.1 96.99,-93 90.99,-90.9 90.99,-95.1"/>
</g>
<!-- src/report/index.js&#45;&gt;src/report/dot -->
<g id="edge23" class="edge">
<title>src/report/index.js&#45;&gt;src/report/dot</title>
<path fill="none" stroke="#ff00ff" stroke-width="2" stroke-opacity="0.466667" d="M78.18,-221.5C78.18,-221.5 90.55,-221.5 90.55,-221.5"/>
<polygon fill="#ff00ff" fill-opacity="0.466667" stroke="#ff00ff" stroke-width="2" stroke-opacity="0.466667" points="90.55,-223.6 96.55,-221.5 90.55,-219.4 90.55,-223.6"/>
</g>
<!-- src/report/index.js&#45;&gt;src/report/error&#45;html -->
<g id="edge25" class="edge">
<title>src/report/index.js&#45;&gt;src/report/error&#45;html</title>
<path fill="none" stroke="#ff00ff" stroke-width="2" stroke-opacity="0.466667" d="M55,-206.74C55,-183.22 55,-123 55,-123 55,-123 89.94,-123 89.94,-123"/>
<polygon fill="#ff00ff" fill-opacity="0.466667" stroke="#ff00ff" stroke-width="2" stroke-opacity="0.466667" points="89.94,-125.1 95.94,-123 89.94,-120.9 89.94,-125.1"/>
</g>
<!-- src/report/index.js&#45;&gt;src/report/error&#45;long.js -->
<g id="edge26" class="edge">
<title>src/report/index.js&#45;&gt;src/report/error&#45;long.js</title>
<path fill="none" stroke="#ff00ff" stroke-width="2" stroke-opacity="0.466667" d="M71,-206.98C71,-197.21 71,-183 71,-183 71,-183 84.74,-183 84.74,-183"/>
<polygon fill="#ff00ff" fill-opacity="0.466667" stroke="#ff00ff" stroke-width="2" stroke-opacity="0.466667" points="84.74,-185.1 90.74,-183 84.74,-180.9 84.74,-185.1"/>
</g>
<!-- src/report/index.js&#45;&gt;src/report/error.js -->
<g id="edge24" class="edge">
<title>src/report/index.js&#45;&gt;src/report/error.js</title>
<path fill="none" stroke="#ff00ff" stroke-width="2" stroke-opacity="0.466667" d="M78.12,-210.67C120.34,-210.67 197,-210.67 197,-210.67 197,-210.67 197,-198.06 197,-198.06"/>
<polygon fill="#ff00ff" fill-opacity="0.466667" stroke="#ff00ff" stroke-width="2" stroke-opacity="0.466667" points="199.1,-198.06 197,-192.06 194.9,-198.06 199.1,-198.06"/>
</g>
<!-- src/report/index.js&#45;&gt;src/report/html -->
<g id="edge27" class="edge">
<title>src/report/index.js&#45;&gt;src/report/html</title>
<path fill="none" stroke="#ff00ff" stroke-width="2" stroke-opacity="0.466667" d="M63,-206.97C63,-189.55 63,-153 63,-153 63,-153 90.71,-153 90.71,-153"/>
<polygon fill="#ff00ff" fill-opacity="0.466667" stroke="#ff00ff" stroke-width="2" stroke-opacity="0.466667" points="90.71,-155.1 96.71,-153 90.71,-150.9 90.71,-155.1"/>
</g>
<!-- src/report/index.js&#45;&gt;src/report/identity.js -->
<g id="edge28" class="edge">
<title>src/report/index.js&#45;&gt;src/report/identity.js</title>
<path fill="none" stroke="#ff00ff" stroke-width="2" stroke-opacity="0.466667" d="M71,-225.1C71,-237.18 71,-257 71,-257 71,-257 90.26,-257 90.26,-257"/>
<polygon fill="#ff00ff" fill-opacity="0.466667" stroke="#ff00ff" stroke-width="2" stroke-opacity="0.466667" points="90.26,-259.1 96.26,-257 90.26,-254.9 90.26,-259.1"/>
</g>
<!-- src/report/json.js -->
<g id="node23" class="node">
<title>src/report/json.js</title>
<g id="a_node23"><a xlink:href="https://github.com/sverweij/dependency-cruiser/blob/develop/src/report/json.js" xlink:title="json.js">
<path fill="#ffccff" stroke="black" d="M145,-296C145,-296 103,-296 103,-296 100,-296 97,-293 97,-290 97,-290 97,-284 97,-284 97,-281 100,-278 103,-278 103,-278 145,-278 145,-278 148,-278 151,-281 151,-284 151,-284 151,-290 151,-290 151,-293 148,-296 145,-296"/>
<text text-anchor="start" x="110.5" y="-284.8" font-family="Helvetica,sans-Serif" font-size="9.00">json.js</text>
</a>
</g>
</g>
<!-- src/report/index.js&#45;&gt;src/report/json.js -->
<g id="edge29" class="edge">
<title>src/report/index.js&#45;&gt;src/report/json.js</title>
<path fill="none" stroke="#ff00ff" stroke-width="2" stroke-opacity="0.466667" d="M63,-225.28C63,-244.53 63,-287 63,-287 63,-287 90.71,-287 90.71,-287"/>
<polygon fill="#ff00ff" fill-opacity="0.466667" stroke="#ff00ff" stroke-width="2" stroke-opacity="0.466667" points="90.71,-289.1 96.71,-287 90.71,-284.9 90.71,-289.1"/>
</g>
<!-- src/report/metrics.js -->
<g id="node24" class="node">
<title>src/report/metrics.js</title>
<g id="a_node24"><a xlink:href="https://github.com/sverweij/dependency-cruiser/blob/develop/src/report/metrics.js" xlink:title="metrics.js">
<path fill="#ffccff" stroke="black" d="M145.5,-326C145.5,-326 102.5,-326 102.5,-326 99.5,-326 96.5,-323 96.5,-320 96.5,-320 96.5,-314 96.5,-314 96.5,-311 99.5,-308 102.5,-308 102.5,-308 145.5,-308 145.5,-308 148.5,-308 151.5,-311 151.5,-314 151.5,-314 151.5,-320 151.5,-320 151.5,-323 148.5,-326 145.5,-326"/>
<text text-anchor="start" x="104.5" y="-314.8" font-family="Helvetica,sans-Serif" font-size="9.00">metrics.js</text>
</a>
</g>
</g>
<!-- src/report/index.js&#45;&gt;src/report/metrics.js -->
<g id="edge30" class="edge">
<title>src/report/index.js&#45;&gt;src/report/metrics.js</title>
<path fill="none" stroke="#ff00ff" stroke-width="2" stroke-opacity="0.466667" d="M55,-225.32C55,-250.32 55,-317 55,-317 55,-317 90.33,-317 90.33,-317"/>
<polygon fill="#ff00ff" fill-opacity="0.466667" stroke="#ff00ff" stroke-width="2" stroke-opacity="0.466667" points="90.33,-319.1 96.33,-317 90.33,-314.9 90.33,-319.1"/>
</g>
<!-- src/report/plugins -->
<g id="node25" class="node">
<title>src/report/plugins</title>
<g id="a_node25"><a xlink:href="https://github.com/sverweij/dependency-cruiser/blob/develop/src/report/plugins" xlink:title="plugins">
<polygon fill="#ffccff" stroke="black" points="151,-356 99,-356 97,-354 97,-338 149,-338 151,-340 151,-356"/>
<polyline fill="none" stroke="black" points="149,-354 97,-354 "/>
<polyline fill="none" stroke="black" points="149,-354 149,-338 "/>
<polyline fill="none" stroke="black" points="149,-354 151,-356 "/>
<text text-anchor="start" x="108.5" y="-344.8" font-family="Helvetica,sans-Serif" font-size="9.00">plugins</text>
</a>
</g>
</g>
<!-- src/report/index.js&#45;&gt;src/report/plugins -->
<g id="edge31" class="edge">
<title>src/report/index.js&#45;&gt;src/report/plugins</title>
<path fill="none" stroke="#ff00ff" stroke-width="2" stroke-opacity="0.466667" d="M48,-225C48,-254.6 48,-347 48,-347 48,-347 90.99,-347 90.99,-347"/>
<polygon fill="#ff00ff" fill-opacity="0.466667" stroke="#ff00ff" stroke-width="2" stroke-opacity="0.466667" points="90.99,-349.1 96.99,-347 90.99,-344.9 90.99,-349.1"/>
</g>
<!-- src/report/teamcity.js -->
<g id="node26" class="node">
<title>src/report/teamcity.js</title>
<g id="a_node26"><a xlink:href="https://github.com/sverweij/dependency-cruiser/blob/develop/src/report/teamcity.js" xlink:title="teamcity.js">
<path fill="#ffccff" stroke="black" d="M147.5,-386C147.5,-386 100.5,-386 100.5,-386 97.5,-386 94.5,-383 94.5,-380 94.5,-380 94.5,-374 94.5,-374 94.5,-371 97.5,-368 100.5,-368 100.5,-368 147.5,-368 147.5,-368 150.5,-368 153.5,-371 153.5,-374 153.5,-374 153.5,-380 153.5,-380 153.5,-383 150.5,-386 147.5,-386"/>
<text text-anchor="start" x="102.5" y="-374.8" font-family="Helvetica,sans-Serif" font-size="9.00">teamcity.js</text>
</a>
</g>
</g>
<!-- src/report/index.js&#45;&gt;src/report/teamcity.js -->
<g id="edge32" class="edge">
<title>src/report/index.js&#45;&gt;src/report/teamcity.js</title>
<path fill="none" stroke="#ff00ff" stroke-width="2" stroke-opacity="0.466667" d="M40,-225.12C40,-259.18 40,-377 40,-377 40,-377 88.15,-377 88.15,-377"/>
<polygon fill="#ff00ff" fill-opacity="0.466667" stroke="#ff00ff" stroke-width="2" stroke-opacity="0.466667" points="88.15,-379.1 94.15,-377 88.15,-374.9 88.15,-379.1"/>
</g>
<!-- src/report/text.js -->
<g id="node27" class="node">
<title>src/report/text.js</title>
<g id="a_node27"><a xlink:href="https://github.com/sverweij/dependency-cruiser/blob/develop/src/report/text.js" xlink:title="text.js">
<path fill="#ffccff" stroke="black" d="M145,-416C145,-416 103,-416 103,-416 100,-416 97,-413 97,-410 97,-410 97,-404 97,-404 97,-401 100,-398 103,-398 103,-398 145,-398 145,-398 148,-398 151,-401 151,-404 151,-404 151,-410 151,-410 151,-413 148,-416 145,-416"/>
<text text-anchor="start" x="112" y="-404.8" font-family="Helvetica,sans-Serif" font-size="9.00">text.js</text>
</a>
</g>
</g>
<!-- src/report/index.js&#45;&gt;src/report/text.js -->
<g id="edge33" class="edge">
<title>src/report/index.js&#45;&gt;src/report/text.js</title>
<path fill="none" stroke="#ff00ff" stroke-width="2" stroke-opacity="0.466667" d="M32,-225.21C32,-263.37 32,-407 32,-407 32,-407 90.89,-407 90.89,-407"/>
<polygon fill="#ff00ff" fill-opacity="0.466667" stroke="#ff00ff" stroke-width="2" stroke-opacity="0.466667" points="90.89,-409.1 96.89,-407 90.89,-404.9 90.89,-409.1"/>
</g>
</g>
</svg>
