<?xml version="1.0" encoding="UTF-8" standalone="no"?>
<!DOCTYPE svg PUBLIC "-//W3C//DTD SVG 1.1//EN"
 "http://www.w3.org/Graphics/SVG/1.1/DTD/svg11.dtd">
<!-- Generated by graphviz version 8.0.1 (20230327.1645)
 -->
<!-- Title: dependency&#45;cruiser output Pages: 1 -->
<svg width="748pt" height="688pt"
 viewBox="0.00 0.00 748.00 688.00" xmlns="http://www.w3.org/2000/svg" xmlns:xlink="http://www.w3.org/1999/xlink">
<g id="graph0" class="graph" transform="scale(1 1) rotate(0) translate(4 684)">
<title>dependency&#45;cruiser output</title>
<polygon fill="white" stroke="none" points="-4,4 -4,-684 744,-684 744,4 -4,4"/>
<g id="clust1" class="cluster">
<title>cluster_src</title>
<path fill="#ffffff" stroke="black" stroke-width="2" d="M20,-8C20,-8 720,-8 720,-8 726,-8 732,-14 732,-20 732,-20 732,-660 732,-660 732,-666 726,-672 720,-672 720,-672 20,-672 20,-672 14,-672 8,-666 8,-660 8,-660 8,-20 8,-20 8,-14 14,-8 20,-8"/>
<text text-anchor="middle" x="370" y="-660.8" font-family="Helvetica,sans-Serif" font-weight="bold" font-size="9.00">src</text>
</g>
<g id="clust2" class="cluster">
<title>cluster_src/graph&#45;utl</title>
<path fill="#ffffff" stroke="black" stroke-width="2" d="M269,-414C269,-414 712,-414 712,-414 718,-414 724,-420 724,-426 724,-426 724,-574 724,-574 724,-580 718,-586 712,-586 712,-586 269,-586 269,-586 263,-586 257,-580 257,-574 257,-574 257,-426 257,-426 257,-420 263,-414 269,-414"/>
<text text-anchor="middle" x="490.5" y="-574.8" font-family="Helvetica,sans-Serif" font-weight="bold" font-size="9.00">graph&#45;utl</text>
</g>
<g id="clust3" class="cluster">
<title>cluster_src/report</title>
<path fill="#ffffff" stroke="black" stroke-width="2" d="M28,-16C28,-16 349,-16 349,-16 355,-16 361,-22 361,-28 361,-28 361,-394 361,-394 361,-400 355,-406 349,-406 349,-406 28,-406 28,-406 22,-406 16,-400 16,-394 16,-394 16,-28 16,-28 16,-22 22,-16 28,-16"/>
<text text-anchor="middle" x="188.5" y="-394.8" font-family="Helvetica,sans-Serif" font-weight="bold" font-size="9.00">report</text>
</g>
<g id="clust4" class="cluster">
<title>cluster_src/utl</title>
<path fill="#ffffff" stroke="black" stroke-width="2" d="M279.5,-594C279.5,-594 372.5,-594 372.5,-594 378.5,-594 384.5,-600 384.5,-606 384.5,-606 384.5,-634 384.5,-634 384.5,-640 378.5,-646 372.5,-646 372.5,-646 279.5,-646 279.5,-646 273.5,-646 267.5,-640 267.5,-634 267.5,-634 267.5,-606 267.5,-606 267.5,-600 273.5,-594 279.5,-594"/>
<text text-anchor="start" x="320.5" y="-634.8" font-family="Helvetica,sans-Serif" font-weight="bold" font-size="9.00">utl</text>
</g>
<!-- src/graph&#45;utl/add&#45;focus.mjs -->
<g id="node1" class="node">
<title>src/graph&#45;utl/add&#45;focus.mjs</title>
<g id="a_node1"><a xlink:href="https://github.com/sverweij/dependency-cruiser/blob/develop/src/graph-utl/add-focus.mjs" xlink:title="add&#45;focus.mjs">
<path fill="#ffcccc" stroke="black" d="M519,-530C519,-530 457,-530 457,-530 454,-530 451,-527 451,-524 451,-524 451,-518 451,-518 451,-515 454,-512 457,-512 457,-512 519,-512 519,-512 522,-512 525,-515 525,-518 525,-518 525,-524 525,-524 525,-527 522,-530 519,-530"/>
<text text-anchor="start" x="459" y="-518.8" font-family="Helvetica,sans-Serif" font-size="9.00">add&#45;focus.mjs</text>
</a>
</g>
</g>
<!-- src/graph&#45;utl/indexed&#45;module&#45;graph.mjs -->
<g id="node2" class="node">
<title>src/graph&#45;utl/indexed&#45;module&#45;graph.mjs</title>
<g id="a_node2"><a xlink:href="https://github.com/sverweij/dependency-cruiser/blob/develop/src/graph-utl/indexed-module-graph.mjs" xlink:title="indexed&#45;module&#45;graph.mjs">
<path fill="#ffcccc" stroke="black" d="M710,-548C710,-548 595,-548 595,-548 592,-548 589,-545 589,-542 589,-542 589,-536 589,-536 589,-533 592,-530 595,-530 595,-530 710,-530 710,-530 713,-530 716,-533 716,-536 716,-536 716,-542 716,-542 716,-545 713,-548 710,-548"/>
<text text-anchor="start" x="597" y="-536.8" font-family="Helvetica,sans-Serif" font-size="9.00">indexed&#45;module&#45;graph.mjs</text>
</a>
</g>
</g>
<!-- src/graph&#45;utl/add&#45;focus.mjs&#45;&gt;src/graph&#45;utl/indexed&#45;module&#45;graph.mjs -->
<g id="edge1" class="edge">
<title>src/graph&#45;utl/add&#45;focus.mjs&#45;&gt;src/graph&#45;utl/indexed&#45;module&#45;graph.mjs</title>
<path fill="none" stroke="#770000" stroke-width="2" stroke-opacity="0.466667" d="M525.27,-521C557.52,-521 599,-521 599,-521 599,-521 599,-521.86 599,-521.86"/>
<polygon fill="#770000" fill-opacity="0.466667" stroke="#770000" stroke-width="2" stroke-opacity="0.466667" points="596.9,-520.58 599,-526.58 601.1,-520.58 596.9,-520.58"/>
</g>
<!-- src/graph&#45;utl/match&#45;facade.mjs -->
<g id="node3" class="node">
<title>src/graph&#45;utl/match&#45;facade.mjs</title>
<g id="a_node3"><a xlink:href="https://github.com/sverweij/dependency-cruiser/blob/develop/src/graph-utl/match-facade.mjs" xlink:title="match&#45;facade.mjs">
<path fill="#ffcccc" stroke="black" d="M691,-511C691,-511 614,-511 614,-511 611,-511 608,-508 608,-505 608,-505 608,-499 608,-499 608,-496 611,-493 614,-493 614,-493 691,-493 691,-493 694,-493 697,-496 697,-499 697,-499 697,-505 697,-505 697,-508 694,-511 691,-511"/>
<text text-anchor="start" x="616" y="-499.8" font-family="Helvetica,sans-Serif" font-size="9.00">match&#45;facade.mjs</text>
</a>
</g>
</g>
<!-- src/graph&#45;utl/add&#45;focus.mjs&#45;&gt;src/graph&#45;utl/match&#45;facade.mjs -->
<g id="edge2" class="edge">
<title>src/graph&#45;utl/add&#45;focus.mjs&#45;&gt;src/graph&#45;utl/match&#45;facade.mjs</title>
<path fill="none" stroke="#770000" stroke-width="2" stroke-opacity="0.466667" d="M488,-511.66C488,-509.26 488,-507.33 488,-507.33 488,-507.33 598.55,-507.33 598.55,-507.33"/>
<polygon fill="#770000" fill-opacity="0.466667" stroke="#770000" stroke-width="2" stroke-opacity="0.466667" points="598.55,-509.43 604.55,-507.33 598.55,-505.23 598.55,-509.43"/>
</g>
<!-- src/graph&#45;utl/compare.mjs -->
<g id="node4" class="node">
<title>src/graph&#45;utl/compare.mjs</title>
<g id="a_node4"><a xlink:href="https://github.com/sverweij/dependency-cruiser/blob/develop/src/graph-utl/compare.mjs" xlink:title="compare.mjs">
<path fill="#ffcccc" stroke="black" d="M681,-440C681,-440 624,-440 624,-440 621,-440 618,-437 618,-434 618,-434 618,-428 618,-428 618,-425 621,-422 624,-422 624,-422 681,-422 681,-422 684,-422 687,-425 687,-428 687,-428 687,-434 687,-434 687,-437 684,-440 681,-440"/>
<text text-anchor="start" x="626" y="-428.8" font-family="Helvetica,sans-Serif" font-size="9.00">compare.mjs</text>
</a>
</g>
</g>
<!-- src/graph&#45;utl/consolidate&#45;module&#45;dependencies.mjs -->
<g id="node5" class="node">
<title>src/graph&#45;utl/consolidate&#45;module&#45;dependencies.mjs</title>
<g id="a_node5"><a xlink:href="https://github.com/sverweij/dependency-cruiser/blob/develop/src/graph-utl/consolidate-module-dependencies.mjs" xlink:title="consolidate&#45;module&#45;dependencies.mjs">
<path fill="#ffcccc" stroke="black" d="M570,-440C570,-440 406,-440 406,-440 403,-440 400,-437 400,-434 400,-434 400,-428 400,-428 400,-425 403,-422 406,-422 406,-422 570,-422 570,-422 573,-422 576,-425 576,-428 576,-428 576,-434 576,-434 576,-437 573,-440 570,-440"/>
<text text-anchor="start" x="408" y="-428.8" font-family="Helvetica,sans-Serif" font-size="9.00">consolidate&#45;module&#45;dependencies.mjs</text>
</a>
</g>
</g>
<!-- src/graph&#45;utl/consolidate&#45;module&#45;dependencies.mjs&#45;&gt;src/graph&#45;utl/compare.mjs -->
<g id="edge3" class="edge">
<title>src/graph&#45;utl/consolidate&#45;module&#45;dependencies.mjs&#45;&gt;src/graph&#45;utl/compare.mjs</title>
<path fill="none" stroke="#770000" stroke-width="2" stroke-opacity="0.466667" d="M576.03,-431C576.03,-431 608.8,-431 608.8,-431"/>
<polygon fill="#770000" fill-opacity="0.466667" stroke="#770000" stroke-width="2" stroke-opacity="0.466667" points="608.8,-433.1 614.8,-431 608.8,-428.9 608.8,-433.1"/>
</g>
<!-- src/graph&#45;utl/consolidate&#45;modules.mjs -->
<g id="node6" class="node">
<title>src/graph&#45;utl/consolidate&#45;modules.mjs</title>
<g id="a_node6"><a xlink:href="https://github.com/sverweij/dependency-cruiser/blob/develop/src/graph-utl/consolidate-modules.mjs" xlink:title="consolidate&#45;modules.mjs">
<path fill="#ffcccc" stroke="black" d="M541.5,-470C541.5,-470 434.5,-470 434.5,-470 431.5,-470 428.5,-467 428.5,-464 428.5,-464 428.5,-458 428.5,-458 428.5,-455 431.5,-452 434.5,-452 434.5,-452 541.5,-452 541.5,-452 544.5,-452 547.5,-455 547.5,-458 547.5,-458 547.5,-464 547.5,-464 547.5,-467 544.5,-470 541.5,-470"/>
<text text-anchor="start" x="436.5" y="-458.8" font-family="Helvetica,sans-Serif" font-size="9.00">consolidate&#45;modules.mjs</text>
</a>
</g>
</g>
<!-- src/graph&#45;utl/consolidate&#45;modules.mjs&#45;&gt;src/graph&#45;utl/compare.mjs -->
<g id="edge4" class="edge">
<title>src/graph&#45;utl/consolidate&#45;modules.mjs&#45;&gt;src/graph&#45;utl/compare.mjs</title>
<path fill="none" stroke="#770000" stroke-width="2" stroke-opacity="0.466667" d="M547.57,-461C594.83,-461 653,-461 653,-461 653,-461 653,-449.49 653,-449.49"/>
<polygon fill="#770000" fill-opacity="0.466667" stroke="#770000" stroke-width="2" stroke-opacity="0.466667" points="655.1,-449.49 653,-443.49 650.9,-449.49 655.1,-449.49"/>
</g>
<!-- src/graph&#45;utl/consolidate&#45;to&#45;folder.mjs -->
<g id="node7" class="node">
<title>src/graph&#45;utl/consolidate&#45;to&#45;folder.mjs</title>
<g id="a_node7"><a xlink:href="https://github.com/sverweij/dependency-cruiser/blob/develop/src/graph-utl/consolidate-to-folder.mjs" xlink:title="consolidate&#45;to&#45;folder.mjs">
<path fill="#ffcccc" stroke="black" d="M378.5,-440C378.5,-440 273.5,-440 273.5,-440 270.5,-440 267.5,-437 267.5,-434 267.5,-434 267.5,-428 267.5,-428 267.5,-425 270.5,-422 273.5,-422 273.5,-422 378.5,-422 378.5,-422 381.5,-422 384.5,-425 384.5,-428 384.5,-428 384.5,-434 384.5,-434 384.5,-437 381.5,-440 378.5,-440"/>
<text text-anchor="start" x="275.5" y="-428.8" font-family="Helvetica,sans-Serif" font-size="9.00">consolidate&#45;to&#45;folder.mjs</text>
</a>
</g>
</g>
<!-- src/graph&#45;utl/consolidate&#45;to&#45;folder.mjs&#45;&gt;src/graph&#45;utl/consolidate&#45;module&#45;dependencies.mjs -->
<g id="edge5" class="edge">
<title>src/graph&#45;utl/consolidate&#45;to&#45;folder.mjs&#45;&gt;src/graph&#45;utl/consolidate&#45;module&#45;dependencies.mjs</title>
<path fill="none" stroke="#770000" stroke-width="2" stroke-opacity="0.466667" d="M384.94,-428C384.94,-428 390.59,-428 390.59,-428"/>
<polygon fill="#770000" fill-opacity="0.466667" stroke="#770000" stroke-width="2" stroke-opacity="0.466667" points="390.59,-430.1 396.59,-428 390.59,-425.9 390.59,-430.1"/>
</g>
<!-- src/graph&#45;utl/consolidate&#45;to&#45;folder.mjs&#45;&gt;src/graph&#45;utl/consolidate&#45;modules.mjs -->
<g id="edge6" class="edge">
<title>src/graph&#45;utl/consolidate&#45;to&#45;folder.mjs&#45;&gt;src/graph&#45;utl/consolidate&#45;modules.mjs</title>
<path fill="none" stroke="#770000" stroke-width="2" stroke-opacity="0.466667" d="M384.83,-434C390.39,-434 394,-434 394,-434 394,-434 394,-461 394,-461 394,-461 419.2,-461 419.2,-461"/>
<polygon fill="#770000" fill-opacity="0.466667" stroke="#770000" stroke-width="2" stroke-opacity="0.466667" points="419.2,-463.1 425.2,-461 419.2,-458.9 419.2,-463.1"/>
</g>
<!-- src/graph&#45;utl/consolidate&#45;to&#45;pattern.mjs -->
<g id="node8" class="node">
<title>src/graph&#45;utl/consolidate&#45;to&#45;pattern.mjs</title>
<g id="a_node8"><a xlink:href="https://github.com/sverweij/dependency-cruiser/blob/develop/src/graph-utl/consolidate-to-pattern.mjs" xlink:title="consolidate&#45;to&#45;pattern.mjs">
<path fill="#ffcccc" stroke="black" d="M381,-500C381,-500 271,-500 271,-500 268,-500 265,-497 265,-494 265,-494 265,-488 265,-488 265,-485 268,-482 271,-482 271,-482 381,-482 381,-482 384,-482 387,-485 387,-488 387,-488 387,-494 387,-494 387,-497 384,-500 381,-500"/>
<text text-anchor="start" x="273" y="-488.8" font-family="Helvetica,sans-Serif" font-size="9.00">consolidate&#45;to&#45;pattern.mjs</text>
</a>
</g>
</g>
<!-- src/graph&#45;utl/consolidate&#45;to&#45;pattern.mjs&#45;&gt;src/graph&#45;utl/consolidate&#45;module&#45;dependencies.mjs -->
<g id="edge7" class="edge">
<title>src/graph&#45;utl/consolidate&#45;to&#45;pattern.mjs&#45;&gt;src/graph&#45;utl/consolidate&#45;module&#45;dependencies.mjs</title>
<path fill="none" stroke="#770000" stroke-width="2" stroke-opacity="0.466667" d="M387.33,-485.67C402.74,-485.67 415,-485.67 415,-485.67 415,-485.67 415,-449.03 415,-449.03"/>
<polygon fill="#770000" fill-opacity="0.466667" stroke="#770000" stroke-width="2" stroke-opacity="0.466667" points="417.1,-449.03 415,-443.03 412.9,-449.03 417.1,-449.03"/>
</g>
<!-- src/graph&#45;utl/consolidate&#45;to&#45;pattern.mjs&#45;&gt;src/graph&#45;utl/consolidate&#45;modules.mjs -->
<g id="edge8" class="edge">
<title>src/graph&#45;utl/consolidate&#45;to&#45;pattern.mjs&#45;&gt;src/graph&#45;utl/consolidate&#45;modules.mjs</title>
<path fill="none" stroke="#770000" stroke-width="2" stroke-opacity="0.466667" d="M387.34,-489.33C414.32,-489.33 440,-489.33 440,-489.33 440,-489.33 440,-479.28 440,-479.28"/>
<polygon fill="#770000" fill-opacity="0.466667" stroke="#770000" stroke-width="2" stroke-opacity="0.466667" points="442.1,-479.28 440,-473.28 437.9,-479.28 442.1,-479.28"/>
</g>
<!-- src/graph&#45;utl/filter&#45;bank.mjs -->
<g id="node9" class="node">
<title>src/graph&#45;utl/filter&#45;bank.mjs</title>
<g id="a_node9"><a xlink:href="https://github.com/sverweij/dependency-cruiser/blob/develop/src/graph-utl/filter-bank.mjs" xlink:title="filter&#45;bank.mjs">
<path fill="#ffcccc" stroke="black" d="M357,-530C357,-530 295,-530 295,-530 292,-530 289,-527 289,-524 289,-524 289,-518 289,-518 289,-515 292,-512 295,-512 295,-512 357,-512 357,-512 360,-512 363,-515 363,-518 363,-518 363,-524 363,-524 363,-527 360,-530 357,-530"/>
<text text-anchor="start" x="297" y="-518.8" font-family="Helvetica,sans-Serif" font-size="9.00">filter&#45;bank.mjs</text>
</a>
</g>
</g>
<!-- src/graph&#45;utl/filter&#45;bank.mjs&#45;&gt;src/graph&#45;utl/add&#45;focus.mjs -->
<g id="edge9" class="edge">
<title>src/graph&#45;utl/filter&#45;bank.mjs&#45;&gt;src/graph&#45;utl/add&#45;focus.mjs</title>
<path fill="none" stroke="#770000" stroke-width="2" stroke-opacity="0.466667" d="M363.17,-521C363.17,-521 441.73,-521 441.73,-521"/>
<polygon fill="#770000" fill-opacity="0.466667" stroke="#770000" stroke-width="2" stroke-opacity="0.466667" points="441.73,-523.1 447.73,-521 441.73,-518.9 441.73,-523.1"/>
</g>
<!-- src/graph&#45;utl/filter&#45;bank.mjs&#45;&gt;src/graph&#45;utl/indexed&#45;module&#45;graph.mjs -->
<g id="edge10" class="edge">
<title>src/graph&#45;utl/filter&#45;bank.mjs&#45;&gt;src/graph&#45;utl/indexed&#45;module&#45;graph.mjs</title>
<path fill="none" stroke="#770000" stroke-width="2" stroke-opacity="0.466667" d="M326,-530.24C326,-533.33 326,-536 326,-536 326,-536 579.77,-536 579.77,-536"/>
<polygon fill="#770000" fill-opacity="0.466667" stroke="#770000" stroke-width="2" stroke-opacity="0.466667" points="579.77,-538.1 585.77,-536 579.77,-533.9 579.77,-538.1"/>
</g>
<!-- src/graph&#45;utl/filter&#45;bank.mjs&#45;&gt;src/graph&#45;utl/match&#45;facade.mjs -->
<g id="edge11" class="edge">
<title>src/graph&#45;utl/filter&#45;bank.mjs&#45;&gt;src/graph&#45;utl/match&#45;facade.mjs</title>
<path fill="none" stroke="#770000" stroke-width="2" stroke-opacity="0.466667" d="M326,-511.52C326,-507.48 326,-503.67 326,-503.67 326,-503.67 598.79,-503.67 598.79,-503.67"/>
<polygon fill="#770000" fill-opacity="0.466667" stroke="#770000" stroke-width="2" stroke-opacity="0.466667" points="598.79,-505.77 604.79,-503.67 598.79,-501.57 598.79,-505.77"/>
</g>
<!-- src/graph&#45;utl/rule&#45;set.mjs -->
<g id="node10" class="node">
<title>src/graph&#45;utl/rule&#45;set.mjs</title>
<g id="a_node10"><a xlink:href="https://github.com/sverweij/dependency-cruiser/blob/develop/src/graph-utl/rule-set.mjs" xlink:title="rule&#45;set.mjs">
<path fill="#ffcccc" stroke="black" d="M352,-560C352,-560 300,-560 300,-560 297,-560 294,-557 294,-554 294,-554 294,-548 294,-548 294,-545 297,-542 300,-542 300,-542 352,-542 352,-542 355,-542 358,-545 358,-548 358,-548 358,-554 358,-554 358,-557 355,-560 352,-560"/>
<text text-anchor="start" x="302" y="-548.8" font-family="Helvetica,sans-Serif" font-size="9.00">rule&#45;set.mjs</text>
</a>
</g>
</g>
<!-- src/graph&#45;utl/strip&#45;self&#45;transitions.mjs -->
<g id="node11" class="node">
<title>src/graph&#45;utl/strip&#45;self&#45;transitions.mjs</title>
<g id="a_node11"><a xlink:href="https://github.com/sverweij/dependency-cruiser/blob/develop/src/graph-utl/strip-self-transitions.mjs" xlink:title="strip&#45;self&#45;transitions.mjs">
<path fill="#ffcccc" stroke="black" d="M376.5,-470C376.5,-470 275.5,-470 275.5,-470 272.5,-470 269.5,-467 269.5,-464 269.5,-464 269.5,-458 269.5,-458 269.5,-455 272.5,-452 275.5,-452 275.5,-452 376.5,-452 376.5,-452 379.5,-452 382.5,-455 382.5,-458 382.5,-458 382.5,-464 382.5,-464 382.5,-467 379.5,-470 376.5,-470"/>
<text text-anchor="start" x="277.5" y="-458.8" font-family="Helvetica,sans-Serif" font-size="9.00">strip&#45;self&#45;transitions.mjs</text>
</a>
</g>
</g>
<!-- src/report/anon -->
<g id="node12" class="node">
<title>src/report/anon</title>
<g id="a_node12"><a xlink:href="https://github.com/sverweij/dependency-cruiser/blob/develop/src/report/anon" xlink:title="anon">
<polygon fill="#ffccff" stroke="black" points="158,-42 106,-42 104,-40 104,-24 156,-24 158,-26 158,-42"/>
<polyline fill="none" stroke="black" points="156,-40 104,-40"/>
<polyline fill="none" stroke="black" points="156,-40 156,-24"/>
<polyline fill="none" stroke="black" points="156,-40 158,-42"/>
<text text-anchor="start" x="120" y="-30.8" font-family="Helvetica,sans-Serif" font-size="9.00">anon</text>
</a>
</g>
</g>
<!-- src/report/baseline.mjs -->
<g id="node13" class="node">
<title>src/report/baseline.mjs</title>
<g id="a_node13"><a xlink:href="https://github.com/sverweij/dependency-cruiser/blob/develop/src/report/baseline.mjs" xlink:title="baseline.mjs">
<path fill="#ffccff" stroke="black" d="M159,-72C159,-72 103,-72 103,-72 100,-72 97,-69 97,-66 97,-66 97,-60 97,-60 97,-57 100,-54 103,-54 103,-54 159,-54 159,-54 162,-54 165,-57 165,-60 165,-60 165,-66 165,-66 165,-69 162,-72 159,-72"/>
<text text-anchor="start" x="105" y="-60.8" font-family="Helvetica,sans-Serif" font-size="9.00">baseline.mjs</text>
</a>
</g>
</g>
<!-- src/report/csv.mjs -->
<g id="node14" class="node">
<title>src/report/csv.mjs</title>
<g id="a_node14"><a xlink:href="https://github.com/sverweij/dependency-cruiser/blob/develop/src/report/csv.mjs" xlink:title="csv.mjs">
<path fill="#ffccff" stroke="black" d="M236.5,-85C236.5,-85 194.5,-85 194.5,-85 191.5,-85 188.5,-82 188.5,-79 188.5,-79 188.5,-73 188.5,-73 188.5,-70 191.5,-67 194.5,-67 194.5,-67 236.5,-67 236.5,-67 239.5,-67 242.5,-70 242.5,-73 242.5,-73 242.5,-79 242.5,-79 242.5,-82 239.5,-85 236.5,-85"/>
<text text-anchor="start" x="200" y="-73.8" font-family="Helvetica,sans-Serif" font-size="9.00">csv.mjs</text>
</a>
</g>
</g>
<!-- src/report/utl -->
<g id="node15" class="node">
<title>src/report/utl</title>
<g id="a_node15"><a xlink:href="https://github.com/sverweij/dependency-cruiser/blob/develop/src/report/utl" xlink:title="utl">
<polygon fill="#ffccff" stroke="black" points="353,-175 301,-175 299,-173 299,-157 351,-157 353,-159 353,-175"/>
<polyline fill="none" stroke="black" points="351,-173 299,-173"/>
<polyline fill="none" stroke="black" points="351,-173 351,-157"/>
<polyline fill="none" stroke="black" points="351,-173 353,-175"/>
<text text-anchor="start" x="321" y="-163.8" font-family="Helvetica,sans-Serif" font-size="9.00">utl</text>
</a>
</g>
</g>
<!-- src/report/csv.mjs&#45;&gt;src/report/utl -->
<g id="edge12" class="edge">
<title>src/report/csv.mjs&#45;&gt;src/report/utl</title>
<path fill="none" stroke="#ff00ff" stroke-width="2" stroke-opacity="0.466667" d="M242.82,-76C279.47,-76 340,-76 340,-76 340,-76 340,-147.71 340,-147.71"/>
<polygon fill="#ff00ff" fill-opacity="0.466667" stroke="#ff00ff" stroke-width="2" stroke-opacity="0.466667" points="337.9,-147.71 340,-153.71 342.1,-147.71 337.9,-147.71"/>
</g>
<!-- src/report/dot -->
<g id="node16" class="node">
<title>src/report/dot</title>
<g id="a_node16"><a xlink:href="https://github.com/sverweij/dependency-cruiser/blob/develop/src/report/dot" xlink:title="dot">
<polygon fill="#ffccff" stroke="black" points="242.5,-350 190.5,-350 188.5,-348 188.5,-332 240.5,-332 242.5,-334 242.5,-350"/>
<polyline fill="none" stroke="black" points="240.5,-348 188.5,-348"/>
<polyline fill="none" stroke="black" points="240.5,-348 240.5,-332"/>
<polyline fill="none" stroke="black" points="240.5,-348 242.5,-350"/>
<text text-anchor="start" x="209" y="-338.8" font-family="Helvetica,sans-Serif" font-size="9.00">dot</text>
</a>
</g>
</g>
<!-- src/report/dot&#45;&gt;src/graph&#45;utl/compare.mjs -->
<g id="edge15" class="edge">
<title>src/report/dot&#45;&gt;src/graph&#45;utl/compare.mjs</title>
<path fill="none" stroke="#770000" stroke-width="2" stroke-opacity="0.466667" d="M242.87,-337.14C338.65,-337.14 653,-337.14 653,-337.14 653,-337.14 653,-412.66 653,-412.66"/>
<polygon fill="#770000" fill-opacity="0.466667" stroke="#770000" stroke-width="2" stroke-opacity="0.466667" points="650.9,-412.66 653,-418.66 655.1,-412.66 650.9,-412.66"/>
</g>
<!-- src/report/dot&#45;&gt;src/graph&#45;utl/consolidate&#45;to&#45;folder.mjs -->
<g id="edge18" class="edge">
<title>src/report/dot&#45;&gt;src/graph&#45;utl/consolidate&#45;to&#45;folder.mjs</title>
<path fill="none" stroke="#770000" stroke-width="2" stroke-opacity="0.466667" d="M242.97,-339.71C262.02,-339.71 284,-339.71 284,-339.71 284,-339.71 284,-412.57 284,-412.57"/>
<polygon fill="#770000" fill-opacity="0.466667" stroke="#770000" stroke-width="2" stroke-opacity="0.466667" points="281.9,-412.57 284,-418.57 286.1,-412.57 281.9,-412.57"/>
</g>
<!-- src/report/dot&#45;&gt;src/graph&#45;utl/consolidate&#45;to&#45;pattern.mjs -->
<g id="edge16" class="edge">
<title>src/report/dot&#45;&gt;src/graph&#45;utl/consolidate&#45;to&#45;pattern.mjs</title>
<path fill="none" stroke="#770000" stroke-width="2" stroke-opacity="0.466667" d="M242.95,-344.86C250.67,-344.86 257,-344.86 257,-344.86 257,-344.86 257,-491 257,-491 257,-491 257.76,-491 257.76,-491"/>
<polygon fill="#770000" fill-opacity="0.466667" stroke="#770000" stroke-width="2" stroke-opacity="0.466667" points="255.65,-493.1 261.65,-491 255.65,-488.9 255.65,-493.1"/>
</g>
<!-- src/report/dot&#45;&gt;src/graph&#45;utl/filter&#45;bank.mjs -->
<g id="edge13" class="edge">
<title>src/report/dot&#45;&gt;src/graph&#45;utl/filter&#45;bank.mjs</title>
<path fill="none" stroke="#770000" stroke-width="2" stroke-opacity="0.466667" d="M242.75,-347.43C248.57,-347.43 253,-347.43 253,-347.43 253,-347.43 253,-521 253,-521 253,-521 279.64,-521 279.64,-521"/>
<polygon fill="#770000" fill-opacity="0.466667" stroke="#770000" stroke-width="2" stroke-opacity="0.466667" points="279.64,-523.1 285.64,-521 279.64,-518.9 279.64,-523.1"/>
</g>
<!-- src/report/dot&#45;&gt;src/graph&#45;utl/strip&#45;self&#45;transitions.mjs -->
<g id="edge17" class="edge">
<title>src/report/dot&#45;&gt;src/graph&#45;utl/strip&#45;self&#45;transitions.mjs</title>
<path fill="none" stroke="#770000" stroke-width="2" stroke-opacity="0.466667" d="M242.76,-342.29C252.45,-342.29 261,-342.29 261,-342.29 261,-342.29 261,-461 261,-461 261,-461 261.82,-461 261.82,-461"/>
<polygon fill="#770000" fill-opacity="0.466667" stroke="#770000" stroke-width="2" stroke-opacity="0.466667" points="260.23,-463.1 266.23,-461 260.23,-458.9 260.23,-463.1"/>
</g>
<!-- src/report/dot&#45;&gt;src/report/utl -->
<g id="edge14" class="edge">
<title>src/report/dot&#45;&gt;src/report/utl</title>
<path fill="none" stroke="#ff00ff" stroke-width="2" stroke-opacity="0.466667" d="M242.81,-334.57C275.54,-334.57 326,-334.57 326,-334.57 326,-334.57 326,-184.06 326,-184.06"/>
<polygon fill="#ff00ff" fill-opacity="0.466667" stroke="#ff00ff" stroke-width="2" stroke-opacity="0.466667" points="328.1,-184.06 326,-178.06 323.9,-184.06 328.1,-184.06"/>
</g>
<!-- src/report/error&#45;html -->
<g id="node17" class="node">
<title>src/report/error&#45;html</title>
<g id="a_node17"><a xlink:href="https://github.com/sverweij/dependency-cruiser/blob/develop/src/report/error-html" xlink:title="error&#45;html">
<polygon fill="#ffccff" stroke="black" points="243.5,-145 189.5,-145 187.5,-143 187.5,-127 241.5,-127 243.5,-129 243.5,-145"/>
<polyline fill="none" stroke="black" points="241.5,-143 187.5,-143"/>
<polyline fill="none" stroke="black" points="241.5,-143 241.5,-127"/>
<polyline fill="none" stroke="black" points="241.5,-143 243.5,-145"/>
<text text-anchor="start" x="195.5" y="-133.8" font-family="Helvetica,sans-Serif" font-size="9.00">error&#45;html</text>
</a>
</g>
</g>
<!-- src/report/error&#45;html&#45;&gt;src/report/utl -->
<g id="edge19" class="edge">
<title>src/report/error&#45;html&#45;&gt;src/report/utl</title>
<path fill="none" stroke="#ff00ff" stroke-width="2" stroke-opacity="0.466667" d="M243.96,-136C272.74,-136 313,-136 313,-136 313,-136 313,-147.51 313,-147.51"/>
<polygon fill="#ff00ff" fill-opacity="0.466667" stroke="#ff00ff" stroke-width="2" stroke-opacity="0.466667" points="310.9,-147.51 313,-153.51 315.1,-147.51 310.9,-147.51"/>
</g>
<!-- src/report/error&#45;long.mjs -->
<g id="node18" class="node">
<title>src/report/error&#45;long.mjs</title>
<g id="a_node18"><a xlink:href="https://github.com/sverweij/dependency-cruiser/blob/develop/src/report/error-long.mjs" xlink:title="error&#45;long.mjs">
<path fill="#ffccff" stroke="black" d="M162,-306C162,-306 100,-306 100,-306 97,-306 94,-303 94,-300 94,-300 94,-294 94,-294 94,-291 97,-288 100,-288 100,-288 162,-288 162,-288 165,-288 168,-291 168,-294 168,-294 168,-300 168,-300 168,-303 165,-306 162,-306"/>
<text text-anchor="start" x="102" y="-294.8" font-family="Helvetica,sans-Serif" font-size="9.00">error&#45;long.mjs</text>
</a>
</g>
</g>
<!-- src/report/error.mjs -->
<g id="node19" class="node">
<title>src/report/error.mjs</title>
<g id="a_node19"><a xlink:href="https://github.com/sverweij/dependency-cruiser/blob/develop/src/report/error.mjs" xlink:title="error.mjs">
<path fill="#ffccff" stroke="black" d="M236.5,-380C236.5,-380 194.5,-380 194.5,-380 191.5,-380 188.5,-377 188.5,-374 188.5,-374 188.5,-368 188.5,-368 188.5,-365 191.5,-362 194.5,-362 194.5,-362 236.5,-362 236.5,-362 239.5,-362 242.5,-365 242.5,-368 242.5,-368 242.5,-374 242.5,-374 242.5,-377 239.5,-380 236.5,-380"/>
<text text-anchor="start" x="197" y="-368.8" font-family="Helvetica,sans-Serif" font-size="9.00">error.mjs</text>
</a>
</g>
</g>
<!-- src/report/error&#45;long.mjs&#45;&gt;src/report/error.mjs -->
<g id="edge20" class="edge">
<title>src/report/error&#45;long.mjs&#45;&gt;src/report/error.mjs</title>
<path fill="none" stroke="#ff00ff" stroke-width="2" stroke-opacity="0.466667" d="M168.38,-297C171.79,-297 174,-297 174,-297 174,-297 174,-374 174,-374 174,-374 179.05,-374 179.05,-374"/>
<polygon fill="#ff00ff" fill-opacity="0.466667" stroke="#ff00ff" stroke-width="2" stroke-opacity="0.466667" points="179.05,-376.1 185.05,-374 179.05,-371.9 179.05,-376.1"/>
</g>
<!-- src/report/error.mjs&#45;&gt;src/graph&#45;utl/rule&#45;set.mjs -->
<g id="edge21" class="edge">
<title>src/report/error.mjs&#45;&gt;src/graph&#45;utl/rule&#45;set.mjs</title>
<path fill="none" stroke="#770000" stroke-width="2" stroke-opacity="0.466667" d="M225,-380.17C225,-416.85 225,-551 225,-551 225,-551 284.77,-551 284.77,-551"/>
<polygon fill="#770000" fill-opacity="0.466667" stroke="#770000" stroke-width="2" stroke-opacity="0.466667" points="284.77,-553.1 290.77,-551 284.77,-548.9 284.77,-553.1"/>
</g>
<!-- src/report/error.mjs&#45;&gt;src/report/utl -->
<g id="edge23" class="edge">
<title>src/report/error.mjs&#45;&gt;src/report/utl</title>
<path fill="none" stroke="#ff00ff" stroke-width="2" stroke-opacity="0.466667" d="M242.82,-371C279.47,-371 340,-371 340,-371 340,-371 340,-184.34 340,-184.34"/>
<polygon fill="#ff00ff" fill-opacity="0.466667" stroke="#ff00ff" stroke-width="2" stroke-opacity="0.466667" points="342.1,-184.34 340,-178.34 337.9,-184.34 342.1,-184.34"/>
</g>
<!-- src/utl/wrap&#45;and&#45;indent.mjs -->
<g id="node20" class="node">
<title>src/utl/wrap&#45;and&#45;indent.mjs</title>
<g id="a_node20"><a xlink:href="https://github.com/sverweij/dependency-cruiser/blob/develop/src/utl/wrap-and-indent.mjs" xlink:title="utl&#45;module&#45;not&#45;shared&#45;enough">
<path fill="#cccccc" stroke="blue" d="M370.5,-620C370.5,-620 281.5,-620 281.5,-620 278.5,-620 275.5,-617 275.5,-614 275.5,-614 275.5,-608 275.5,-608 275.5,-605 278.5,-602 281.5,-602 281.5,-602 370.5,-602 370.5,-602 373.5,-602 376.5,-605 376.5,-608 376.5,-608 376.5,-614 376.5,-614 376.5,-617 373.5,-620 370.5,-620"/>
<text text-anchor="start" x="283.5" y="-608.8" font-family="Helvetica,sans-Serif" font-size="9.00" fill="blue">wrap&#45;and&#45;indent.mjs</text>
</a>
</g>
</g>
<!-- src/report/error.mjs&#45;&gt;src/utl/wrap&#45;and&#45;indent.mjs -->
<g id="edge22" class="edge">
<title>src/report/error.mjs&#45;&gt;src/utl/wrap&#45;and&#45;indent.mjs</title>
<path fill="none" stroke="#aaaaaa" stroke-width="2" stroke-opacity="0.466667" d="M207,-380.41C207,-424.78 207,-611 207,-611 207,-611 266.19,-611 266.19,-611"/>
<polygon fill="#aaaaaa" fill-opacity="0.466667" stroke="#aaaaaa" stroke-width="2" stroke-opacity="0.466667" points="266.19,-613.1 272.19,-611 266.19,-608.9 266.19,-613.1"/>
</g>
<!-- src/report/html -->
<g id="node21" class="node">
<title>src/report/html</title>
<g id="a_node21"><a xlink:href="https://github.com/sverweij/dependency-cruiser/blob/develop/src/report/html" xlink:title="html">
<polygon fill="#ffccff" stroke="black" points="242.5,-115 190.5,-115 188.5,-113 188.5,-97 240.5,-97 242.5,-99 242.5,-115"/>
<polyline fill="none" stroke="black" points="240.5,-113 188.5,-113"/>
<polyline fill="none" stroke="black" points="240.5,-113 240.5,-97"/>
<polyline fill="none" stroke="black" points="240.5,-113 242.5,-115"/>
<text text-anchor="start" x="206.5" y="-103.8" font-family="Helvetica,sans-Serif" font-size="9.00">html</text>
</a>
</g>
</g>
<!-- src/report/html&#45;&gt;src/report/utl -->
<g id="edge24" class="edge">
<title>src/report/html&#45;&gt;src/report/utl</title>
<path fill="none" stroke="#ff00ff" stroke-width="2" stroke-opacity="0.466667" d="M242.81,-106C275.54,-106 326,-106 326,-106 326,-106 326,-147.62 326,-147.62"/>
<polygon fill="#ff00ff" fill-opacity="0.466667" stroke="#ff00ff" stroke-width="2" stroke-opacity="0.466667" points="323.9,-147.62 326,-153.62 328.1,-147.63 323.9,-147.62"/>
</g>
<!-- src/report/identity.mjs -->
<g id="node22" class="node">
<title>src/report/identity.mjs</title>
<g id="a_node22"><a xlink:href="https://github.com/sverweij/dependency-cruiser/blob/develop/src/report/identity.mjs" xlink:title="identity.mjs">
<path fill="#ffccff" stroke="black" d="M156,-202C156,-202 106,-202 106,-202 103,-202 100,-199 100,-196 100,-196 100,-190 100,-190 100,-187 103,-184 106,-184 106,-184 156,-184 156,-184 159,-184 162,-187 162,-190 162,-190 162,-196 162,-196 162,-199 159,-202 156,-202"/>
<text text-anchor="start" x="108" y="-190.8" font-family="Helvetica,sans-Serif" font-size="9.00">identity.mjs</text>
</a>
</g>
</g>
<!-- src/report/index.mjs -->
<g id="node23" class="node">
<title>src/report/index.mjs</title>
<g id="a_node23"><a xlink:href="https://github.com/sverweij/dependency-cruiser/blob/develop/src/report/index.mjs" xlink:title="index.mjs">
<path fill="#ffccff" stroke="black" d="M74,-191C74,-191 30,-191 30,-191 27,-191 24,-188 24,-185 24,-185 24,-179 24,-179 24,-176 27,-173 30,-173 30,-173 74,-173 74,-173 77,-173 80,-176 80,-179 80,-179 80,-185 80,-185 80,-188 77,-191 74,-191"/>
<text text-anchor="start" x="32" y="-179.8" font-family="Helvetica,sans-Serif" font-size="9.00">index.mjs</text>
</a>
</g>
</g>
<!-- src/report/index.mjs&#45;&gt;src/report/anon -->
<g id="edge25" class="edge">
<title>src/report/index.mjs&#45;&gt;src/report/anon</title>
<path fill="none" stroke="#ff00ff" stroke-width="2" stroke-opacity="0.466667" d="M32,-172.68C32,-140.06 32,-33 32,-33 32,-33 94.69,-33 94.69,-33"/>
<polygon fill="#ff00ff" fill-opacity="0.466667" stroke="#ff00ff" stroke-width="2" stroke-opacity="0.466667" points="94.69,-35.1 100.69,-33 94.69,-30.9 94.69,-35.1"/>
</g>
<!-- src/report/index.mjs&#45;&gt;src/report/baseline.mjs -->
<g id="edge26" class="edge">
<title>src/report/index.mjs&#45;&gt;src/report/baseline.mjs</title>
<path fill="none" stroke="#ff00ff" stroke-width="2" stroke-opacity="0.466667" d="M40,-172.66C40,-144.61 40,-63 40,-63 40,-63 87.6,-63 87.6,-63"/>
<polygon fill="#ff00ff" fill-opacity="0.466667" stroke="#ff00ff" stroke-width="2" stroke-opacity="0.466667" points="87.6,-65.1 93.6,-63 87.6,-60.9 87.6,-65.1"/>
</g>
<!-- src/report/index.mjs&#45;&gt;src/report/csv.mjs -->
<g id="edge27" class="edge">
<title>src/report/index.mjs&#45;&gt;src/report/csv.mjs</title>
<path fill="none" stroke="#ff00ff" stroke-width="2" stroke-opacity="0.466667" d="M48,-172.82C48,-147.48 48,-78.5 48,-78.5 48,-78.5 179.22,-78.5 179.22,-78.5"/>
<polygon fill="#ff00ff" fill-opacity="0.466667" stroke="#ff00ff" stroke-width="2" stroke-opacity="0.466667" points="179.22,-80.6 185.22,-78.5 179.22,-76.4 179.22,-80.6"/>
</g>
<!-- src/report/index.mjs&#45;&gt;src/report/dot -->
<g id="edge28" class="edge">
<title>src/report/index.mjs&#45;&gt;src/report/dot</title>
<path fill="none" stroke="#ff00ff" stroke-width="2" stroke-opacity="0.466667" d="M40,-191.12C40,-225.18 40,-343 40,-343 40,-343 179.08,-343 179.08,-343"/>
<polygon fill="#ff00ff" fill-opacity="0.466667" stroke="#ff00ff" stroke-width="2" stroke-opacity="0.466667" points="179.08,-345.1 185.08,-343 179.08,-340.9 179.08,-345.1"/>
</g>
<!-- src/report/index.mjs&#45;&gt;src/report/error&#45;html -->
<g id="edge29" class="edge">
<title>src/report/index.mjs&#45;&gt;src/report/error&#45;html</title>
<path fill="none" stroke="#ff00ff" stroke-width="2" stroke-opacity="0.466667" d="M72,-172.56C72,-159.5 72,-137.5 72,-137.5 72,-137.5 178.15,-137.5 178.15,-137.5"/>
<polygon fill="#ff00ff" fill-opacity="0.466667" stroke="#ff00ff" stroke-width="2" stroke-opacity="0.466667" points="178.15,-139.6 184.15,-137.5 178.15,-135.4 178.15,-139.6"/>
</g>
<!-- src/report/index.mjs&#45;&gt;src/report/error&#45;long.mjs -->
<g id="edge30" class="edge">
<title>src/report/index.mjs&#45;&gt;src/report/error&#45;long.mjs</title>
<path fill="none" stroke="#ff00ff" stroke-width="2" stroke-opacity="0.466667" d="M56,-191.41C56,-218.88 56,-297 56,-297 56,-297 84.5,-297 84.5,-297"/>
<polygon fill="#ff00ff" fill-opacity="0.466667" stroke="#ff00ff" stroke-width="2" stroke-opacity="0.466667" points="84.5,-299.1 90.5,-297 84.5,-294.9 84.5,-299.1"/>
</g>
<!-- src/report/index.mjs&#45;&gt;src/report/error.mjs -->
<g id="edge31" class="edge">
<title>src/report/index.mjs&#45;&gt;src/report/error.mjs</title>
<path fill="none" stroke="#ff00ff" stroke-width="2" stroke-opacity="0.466667" d="M80.28,-181.75C117.43,-181.75 178,-181.75 178,-181.75 178,-181.75 178,-368 178,-368 178,-368 179.25,-368 179.25,-368"/>
<polygon fill="#ff00ff" fill-opacity="0.466667" stroke="#ff00ff" stroke-width="2" stroke-opacity="0.466667" points="179.25,-370.1 185.25,-368 179.25,-365.9 179.25,-370.1"/>
</g>
<!-- src/report/index.mjs&#45;&gt;src/report/html -->
<g id="edge32" class="edge">
<title>src/report/index.mjs&#45;&gt;src/report/html</title>
<path fill="none" stroke="#ff00ff" stroke-width="2" stroke-opacity="0.466667" d="M56,-172.81C56,-152.28 56,-104.5 56,-104.5 56,-104.5 179.08,-104.5 179.08,-104.5"/>
<polygon fill="#ff00ff" fill-opacity="0.466667" stroke="#ff00ff" stroke-width="2" stroke-opacity="0.466667" points="179.08,-106.6 185.08,-104.5 179.08,-102.4 179.08,-106.6"/>
</g>
<!-- src/report/index.mjs&#45;&gt;src/report/identity.mjs -->
<g id="edge33" class="edge">
<title>src/report/index.mjs&#45;&gt;src/report/identity.mjs</title>
<path fill="none" stroke="#ff00ff" stroke-width="2" stroke-opacity="0.466667" d="M80.07,-187.5C80.07,-187.5 90.52,-187.5 90.52,-187.5"/>
<polygon fill="#ff00ff" fill-opacity="0.466667" stroke="#ff00ff" stroke-width="2" stroke-opacity="0.466667" points="90.52,-189.6 96.52,-187.5 90.52,-185.4 90.52,-189.6"/>
</g>
<!-- src/report/json.mjs -->
<g id="node24" class="node">
<title>src/report/json.mjs</title>
<g id="a_node24"><a xlink:href="https://github.com/sverweij/dependency-cruiser/blob/develop/src/report/json.mjs" xlink:title="json.mjs">
<path fill="#ffccff" stroke="black" d="M152,-232C152,-232 110,-232 110,-232 107,-232 104,-229 104,-226 104,-226 104,-220 104,-220 104,-217 107,-214 110,-214 110,-214 152,-214 152,-214 155,-214 158,-217 158,-220 158,-220 158,-226 158,-226 158,-229 155,-232 152,-232"/>
<text text-anchor="start" x="114" y="-220.8" font-family="Helvetica,sans-Serif" font-size="9.00">json.mjs</text>
</a>
</g>
</g>
<!-- src/report/index.mjs&#45;&gt;src/report/json.mjs -->
<g id="edge34" class="edge">
<title>src/report/index.mjs&#45;&gt;src/report/json.mjs</title>
<path fill="none" stroke="#ff00ff" stroke-width="2" stroke-opacity="0.466667" d="M72,-191.1C72,-203.18 72,-223 72,-223 72,-223 94.57,-223 94.57,-223"/>
<polygon fill="#ff00ff" fill-opacity="0.466667" stroke="#ff00ff" stroke-width="2" stroke-opacity="0.466667" points="94.57,-225.1 100.57,-223 94.57,-220.9 94.57,-225.1"/>
</g>
<!-- src/report/markdown.mjs -->
<g id="node25" class="node">
<title>src/report/markdown.mjs</title>
<g id="a_node25"><a xlink:href="https://github.com/sverweij/dependency-cruiser/blob/develop/src/report/markdown.mjs" xlink:title="markdown.mjs">
<path fill="#ffccff" stroke="black" d="M163,-130C163,-130 99,-130 99,-130 96,-130 93,-127 93,-124 93,-124 93,-118 93,-118 93,-115 96,-112 99,-112 99,-112 163,-112 163,-112 166,-112 169,-115 169,-118 169,-118 169,-124 169,-124 169,-127 166,-130 163,-130"/>
<text text-anchor="start" x="101" y="-118.8" font-family="Helvetica,sans-Serif" font-size="9.00">markdown.mjs</text>
</a>
</g>
</g>
<!-- src/report/index.mjs&#45;&gt;src/report/markdown.mjs -->
<g id="edge35" class="edge">
<title>src/report/index.mjs&#45;&gt;src/report/markdown.mjs</title>
<path fill="none" stroke="#ff00ff" stroke-width="2" stroke-opacity="0.466667" d="M64,-172.74C64,-155.67 64,-121 64,-121 64,-121 83.8,-121 83.8,-121"/>
<polygon fill="#ff00ff" fill-opacity="0.466667" stroke="#ff00ff" stroke-width="2" stroke-opacity="0.466667" points="83.8,-123.1 89.8,-121 83.8,-118.9 83.8,-123.1"/>
</g>
<!-- src/report/mermaid.mjs -->
<g id="node26" class="node">
<title>src/report/mermaid.mjs</title>
<g id="a_node26"><a xlink:href="https://github.com/sverweij/dependency-cruiser/blob/develop/src/report/mermaid.mjs" xlink:title="mermaid.mjs">
<path fill="#ffccff" stroke="black" d="M159.5,-276C159.5,-276 102.5,-276 102.5,-276 99.5,-276 96.5,-273 96.5,-270 96.5,-270 96.5,-264 96.5,-264 96.5,-261 99.5,-258 102.5,-258 102.5,-258 159.5,-258 159.5,-258 162.5,-258 165.5,-261 165.5,-264 165.5,-264 165.5,-270 165.5,-270 165.5,-273 162.5,-276 159.5,-276"/>
<text text-anchor="start" x="104.5" y="-264.8" font-family="Helvetica,sans-Serif" font-size="9.00">mermaid.mjs</text>
</a>
</g>
</g>
<!-- src/report/index.mjs&#45;&gt;src/report/mermaid.mjs -->
<g id="edge36" class="edge">
<title>src/report/index.mjs&#45;&gt;src/report/mermaid.mjs</title>
<path fill="none" stroke="#ff00ff" stroke-width="2" stroke-opacity="0.466667" d="M64,-191.42C64,-213.55 64,-267 64,-267 64,-267 87.32,-267 87.32,-267"/>
<polygon fill="#ff00ff" fill-opacity="0.466667" stroke="#ff00ff" stroke-width="2" stroke-opacity="0.466667" points="87.32,-269.1 93.32,-267 87.32,-264.9 87.32,-269.1"/>
</g>
<!-- src/report/metrics.mjs -->
<g id="node27" class="node">
<title>src/report/metrics.mjs</title>
<g id="a_node27"><a xlink:href="https://github.com/sverweij/dependency-cruiser/blob/develop/src/report/metrics.mjs" xlink:title="metrics.mjs">
<path fill="#ffccff" stroke="black" d="M240.5,-175C240.5,-175 190.5,-175 190.5,-175 187.5,-175 184.5,-172 184.5,-169 184.5,-169 184.5,-163 184.5,-163 184.5,-160 187.5,-157 190.5,-157 190.5,-157 240.5,-157 240.5,-157 243.5,-157 246.5,-160 246.5,-163 246.5,-163 246.5,-169 246.5,-169 246.5,-172 243.5,-175 240.5,-175"/>
<text text-anchor="start" x="192.5" y="-163.8" font-family="Helvetica,sans-Serif" font-size="9.00">metrics.mjs</text>
</a>
</g>
</g>
<!-- src/report/index.mjs&#45;&gt;src/report/metrics.mjs -->
<g id="edge37" class="edge">
<title>src/report/index.mjs&#45;&gt;src/report/metrics.mjs</title>
<path fill="none" stroke="#ff00ff" stroke-width="2" stroke-opacity="0.466667" d="M80.25,-177.25C124.7,-177.25 206,-177.25 206,-177.25 206,-177.25 206,-177.07 206,-177.07"/>
<polygon fill="#ff00ff" fill-opacity="0.466667" stroke="#ff00ff" stroke-width="2" stroke-opacity="0.466667" points="208.1,-184.49 206,-178.49 203.9,-184.49 208.1,-184.49"/>
</g>
<!-- src/report/plugins.mjs -->
<g id="node28" class="node">
<title>src/report/plugins.mjs</title>
<g id="a_node28"><a xlink:href="https://github.com/sverweij/dependency-cruiser/blob/develop/src/report/plugins.mjs" xlink:title="plugins.mjs">
<path fill="#ffccff" stroke="black" d="M156.5,-336C156.5,-336 105.5,-336 105.5,-336 102.5,-336 99.5,-333 99.5,-330 99.5,-330 99.5,-324 99.5,-324 99.5,-321 102.5,-318 105.5,-318 105.5,-318 156.5,-318 156.5,-318 159.5,-318 162.5,-321 162.5,-324 162.5,-324 162.5,-330 162.5,-330 162.5,-333 159.5,-336 156.5,-336"/>
<text text-anchor="start" x="107.5" y="-324.8" font-family="Helvetica,sans-Serif" font-size="9.00">plugins.mjs</text>
</a>
</g>
</g>
<!-- src/report/index.mjs&#45;&gt;src/report/plugins.mjs -->
<g id="edge38" class="edge">
<title>src/report/index.mjs&#45;&gt;src/report/plugins.mjs</title>
<path fill="none" stroke="#ff00ff" stroke-width="2" stroke-opacity="0.466667" d="M48,-191.07C48,-222.81 48,-327 48,-327 48,-327 90.15,-327 90.15,-327"/>
<polygon fill="#ff00ff" fill-opacity="0.466667" stroke="#ff00ff" stroke-width="2" stroke-opacity="0.466667" points="90.15,-329.1 96.15,-327 90.15,-324.9 90.15,-329.1"/>
</g>
<!-- src/report/teamcity.mjs -->
<g id="node29" class="node">
<title>src/report/teamcity.mjs</title>
<g id="a_node29"><a xlink:href="https://github.com/sverweij/dependency-cruiser/blob/develop/src/report/teamcity.mjs" xlink:title="teamcity.mjs">
<path fill="#ffccff" stroke="black" d="M243,-205C243,-205 188,-205 188,-205 185,-205 182,-202 182,-199 182,-199 182,-193 182,-193 182,-190 185,-187 188,-187 188,-187 243,-187 243,-187 246,-187 249,-190 249,-193 249,-193 249,-199 249,-199 249,-202 246,-205 243,-205"/>
<text text-anchor="start" x="190" y="-193.8" font-family="Helvetica,sans-Serif" font-size="9.00">teamcity.mjs</text>
</a>
</g>
</g>
<!-- src/report/index.mjs&#45;&gt;src/report/teamcity.mjs -->
<g id="edge39" class="edge">
<title>src/report/index.mjs&#45;&gt;src/report/teamcity.mjs</title>
<path fill="none" stroke="#ff00ff" stroke-width="2" stroke-opacity="0.466667" d="M80.34,-179.5C129.65,-179.5 226,-179.5 226,-179.5 226,-179.5 226,-180.21 226,-180.21"/>
<polygon fill="#ff00ff" fill-opacity="0.466667" stroke="#ff00ff" stroke-width="2" stroke-opacity="0.466667" points="223.9,-177.59 226,-183.59 228.1,-177.59 223.9,-177.59"/>
</g>
<!-- src/report/text.mjs -->
<g id="node30" class="node">
<title>src/report/text.mjs</title>
<g id="a_node30"><a xlink:href="https://github.com/sverweij/dependency-cruiser/blob/develop/src/report/text.mjs" xlink:title="text.mjs">
<path fill="#ffccff" stroke="black" d="M152,-380C152,-380 110,-380 110,-380 107,-380 104,-377 104,-374 104,-374 104,-368 104,-368 104,-365 107,-362 110,-362 110,-362 152,-362 152,-362 155,-362 158,-365 158,-368 158,-368 158,-374 158,-374 158,-377 155,-380 152,-380"/>
<text text-anchor="start" x="115.5" y="-368.8" font-family="Helvetica,sans-Serif" font-size="9.00">text.mjs</text>
</a>
</g>
</g>
<!-- src/report/index.mjs&#45;&gt;src/report/text.mjs -->
<g id="edge40" class="edge">
<title>src/report/index.mjs&#45;&gt;src/report/text.mjs</title>
<path fill="none" stroke="#ff00ff" stroke-width="2" stroke-opacity="0.466667" d="M32,-191.37C32,-229.51 32,-371 32,-371 32,-371 94.69,-371 94.69,-371"/>
<polygon fill="#ff00ff" fill-opacity="0.466667" stroke="#ff00ff" stroke-width="2" stroke-opacity="0.466667" points="94.69,-373.1 100.69,-371 94.69,-368.9 94.69,-373.1"/>
</g>
<!-- src/report/markdown.mjs&#45;&gt;src/report/error&#45;html -->
<g id="edge41" class="edge">
<title>src/report/markdown.mjs&#45;&gt;src/report/error&#45;html</title>
<path fill="none" stroke="#ff00ff" stroke-width="2" stroke-opacity="0.466667" d="M169.02,-121C191.66,-121 216,-121 216,-121 216,-121 216,-121.58 216,-121.58"/>
<polygon fill="#ff00ff" fill-opacity="0.466667" stroke="#ff00ff" stroke-width="2" stroke-opacity="0.466667" points="213.9,-117.76 216,-123.76 218.1,-117.76 213.9,-117.76"/>
</g>
<!-- src/report/metrics.mjs&#45;&gt;src/report/utl -->
<g id="edge42" class="edge">
<title>src/report/metrics.mjs&#45;&gt;src/report/utl</title>
<path fill="none" stroke="#ff00ff" stroke-width="2" stroke-opacity="0.466667" d="M246.87,-166C246.87,-166 289.69,-166 289.69,-166"/>
<polygon fill="#ff00ff" fill-opacity="0.466667" stroke="#ff00ff" stroke-width="2" stroke-opacity="0.466667" points="289.69,-168.1 295.69,-166 289.69,-163.9 289.69,-168.1"/>
</g>
<!-- src/report/teamcity.mjs&#45;&gt;src/report/utl -->
<g id="edge43" class="edge">
<title>src/report/teamcity.mjs&#45;&gt;src/report/utl</title>
<path fill="none" stroke="#ff00ff" stroke-width="2" stroke-opacity="0.466667" d="M249.33,-196C277.49,-196 313,-196 313,-196 313,-196 313,-184.49 313,-184.49"/>
<polygon fill="#ff00ff" fill-opacity="0.466667" stroke="#ff00ff" stroke-width="2" stroke-opacity="0.466667" points="315.1,-184.49 313,-178.49 310.9,-184.49 315.1,-184.49"/>
</g>
</g>
</svg>
