<svg xmlns="http://www.w3.org/2000/svg" xmlns:xlink="http://www.w3.org/1999/xlink" width="1032" height="620pt" viewBox="0 0 773.7 620"><g class="graph" transform="translate(21.7 616)"><path fill="#fff" d="M-21.7 4v-620H752V4z"/><g class="node"><a xlink:href="https://github.com/sverweij/dependency-cruiser/blob/main/src/graph-utl/add-focus.mjs" xlink:title="add-focus.mjs"><path fill="#fcc" stroke="#000" d="M210.72-49.06H151.3c-4.33 0-8.67 4.33-8.67 8.66v8.67c0 4.33 4.34 8.67 8.67 8.67h59.42c4.33 0 8.66-4.34 8.66-8.67v-8.67c0-4.33-4.33-8.66-8.66-8.66"/><text x="154.38" y="-37.51" font-family="Helvetica,sans-Serif" font-size="9">src/graph-utl/</text><text x="150.63" y="-28.51" font-family="Helvetica,sans-Serif" font-size="9" font-weight="bold">add-focus.mjs</text></a></g><g class="node"><a xlink:href="https://github.com/sverweij/dependency-cruiser/blob/main/src/graph-utl/indexed-module-graph.mjs" xlink:title="indexed-module-graph.mjs"><path fill="#fcc" stroke="#000" d="M314.61-83.56H201.94c-4.33 0-8.67 4.33-8.67 8.66v8.67c0 4.33 4.34 8.67 8.67 8.67h112.67c4.33 0 8.66-4.34 8.66-8.67v-8.67c0-4.33-4.33-8.66-8.66-8.66"/><text x="231.65" y="-72.01" font-family="Helvetica,sans-Serif" font-size="9">src/graph-utl/</text><text x="201.27" y="-63.01" font-family="Helvetica,sans-Serif" font-size="9" font-weight="bold">indexed-module-graph.mjs</text></a></g><g class="edge"><path fill="none" stroke="#700" stroke-opacity=".467" stroke-width="2" d="M206.33-49.3v-.79"/><path fill="#700" fill-opacity=".467" stroke="#700" stroke-opacity=".467" stroke-width="2" d="m204.23-48.16 2.1-6 2.1 6z"/></g><g class="node"><a xlink:href="https://github.com/sverweij/dependency-cruiser/blob/main/src/graph-utl/match-facade.mjs" xlink:title="match-facade.mjs"><path fill="#fcc" stroke="#000" d="M176.57-114.49h-75.92c-4.33 0-8.67 4.33-8.67 8.67v8.66c0 4.34 4.34 8.67 8.67 8.67h75.92c4.33 0 8.66-4.33 8.66-8.67v-8.66c0-4.34-4.33-8.67-8.66-8.67"/><text x="111.98" y="-102.94" font-family="Helvetica,sans-Serif" font-size="9">src/graph-utl/</text><text x="99.98" y="-93.94" font-family="Helvetica,sans-Serif" font-size="9" font-weight="bold">match-facade.mjs</text></a></g><g class="edge"><path fill="none" stroke="#700" stroke-opacity=".467" stroke-width="2" d="M163.93-49.3v-29.94"/><path fill="#700" fill-opacity=".467" stroke="#700" stroke-opacity=".467" stroke-width="2" d="m161.83-79.24 2.1-6 2.1 6z"/></g><g class="node"><a xlink:href="https://github.com/sverweij/dependency-cruiser/blob/main/src/graph-utl/compare.mjs" xlink:title="compare.mjs"><path fill="#fcc" stroke="#000" d="M267.93-372.99h-54.91c-4.34 0-8.67 4.33-8.67 8.66v8.67c0 4.33 4.33 8.67 8.67 8.67h54.91c4.34 0 8.67-4.34 8.67-8.67v-8.67c0-4.33-4.33-8.66-8.67-8.66"/><text x="213.85" y="-361.44" font-family="Helvetica,sans-Serif" font-size="9">src/graph-utl/</text><text x="212.35" y="-352.44" font-family="Helvetica,sans-Serif" font-size="9" font-weight="bold">compare.mjs</text></a></g><g class="node"><a xlink:href="https://github.com/sverweij/dependency-cruiser/blob/main/src/graph-utl/consolidate-module-dependencies.mjs" xlink:title="consolidate-module-dependencies.mjs"><path fill="#fcc" stroke="#000" d="M327.73-469.6H164.06c-4.33 0-8.66 4.33-8.66 8.67v8.66c0 4.34 4.33 8.67 8.66 8.67h163.67c4.33 0 8.67-4.33 8.67-8.67v-8.66c0-4.34-4.34-8.67-8.67-8.67"/><text x="219.27" y="-458.05" font-family="Helvetica,sans-Serif" font-size="9">src/graph-utl/</text><text x="163.4" y="-449.05" font-family="Helvetica,sans-Serif" font-size="9" font-weight="bold">consolidate-module-dependencies.mjs</text></a></g><g class="edge"><path fill="none" stroke="#700" stroke-opacity=".467" stroke-width="2" d="M283.74-443.17V-357h-.67"/><path fill="#700" fill-opacity=".467" stroke="#700" stroke-opacity=".467" stroke-width="2" d="m286.01-354.9-6-2.1 6-2.1z"/></g><g class="node"><a xlink:href="https://github.com/sverweij/dependency-cruiser/blob/main/src/utl/array-util.mjs" xlink:title="utl-module-not-shared-enough"><path fill="#ccc" stroke="#00f" d="M231.83-503.64h-55.66c-4.34 0-8.67 4.33-8.67 8.67v8.66c0 4.34 4.33 8.67 8.67 8.67h55.66c4.34 0 8.67-4.33 8.67-8.67v-8.66c0-4.34-4.33-8.67-8.67-8.67"/><text x="190.88" y="-492.09" fill="#00f" font-family="Helvetica,sans-Serif" font-size="9">src/utl/</text><text x="175.5" y="-483.09" fill="#00f" font-family="Helvetica,sans-Serif" font-size="9" font-weight="bold">array-util.mjs</text></a></g><g class="edge"><path fill="none" stroke="#aaa" stroke-opacity=".467" stroke-width="2" d="M204-470.05v-.73"/><path fill="#aaa" fill-opacity=".467" stroke="#aaa" stroke-opacity=".467" stroke-width="2" d="m201.9-468.26 2.1-6 2.1 6z"/></g><g class="node"><a xlink:href="https://github.com/sverweij/dependency-cruiser/blob/main/src/graph-utl/consolidate-modules.mjs" xlink:title="consolidate-modules.mjs"><path fill="#fcc" stroke="#000" d="M269.7-429.59H163.78c-4.33 0-8.66 4.33-8.66 8.67v8.66c0 4.34 4.33 8.67 8.66 8.67H269.7c4.33 0 8.67-4.33 8.67-8.67v-8.66c0-4.34-4.34-8.67-8.67-8.67"/><text x="190.12" y="-418.04" font-family="Helvetica,sans-Serif" font-size="9">src/graph-utl/</text><text x="163.12" y="-409.04" font-family="Helvetica,sans-Serif" font-size="9" font-weight="bold">consolidate-modules.mjs</text></a></g><g class="edge"><path fill="none" stroke="#700" stroke-opacity=".467" stroke-width="2" d="M240.48-403.18v20.84"/><path fill="#700" fill-opacity=".467" stroke="#700" stroke-opacity=".467" stroke-width="2" d="m242.58-382.34-2.1 6-2.1-6z"/></g><g class="node"><a xlink:href="https://github.com/sverweij/dependency-cruiser/blob/main/src/graph-utl/consolidate-to-folder.mjs" xlink:title="consolidate-to-folder.mjs"><path fill="#fcc" stroke="#000" d="M138.37-454.3H33.96c-4.34 0-8.67 4.33-8.67 8.67v8.66c0 4.34 4.33 8.67 8.67 8.67h104.41c4.34 0 8.67-4.33 8.67-8.67v-8.66c0-4.34-4.33-8.67-8.67-8.67"/><text x="59.54" y="-442.75" font-family="Helvetica,sans-Serif" font-size="9">src/graph-utl/</text><text x="33.29" y="-433.75" font-family="Helvetica,sans-Serif" font-size="9" font-weight="bold">consolidate-to-folder.mjs</text></a></g><g class="edge"><path fill="none" stroke="#700" stroke-opacity=".467" stroke-width="2" d="M147.47-448h.74"/><path fill="#700" fill-opacity=".467" stroke="#700" stroke-opacity=".467" stroke-width="2" d="m145.89-450.1 6 2.1-6 2.1z"/></g><g class="edge"><path fill="none" stroke="#700" stroke-opacity=".467" stroke-width="2" d="M101.96-427.84V-415h43.66"/><path fill="#700" fill-opacity=".467" stroke="#700" stroke-opacity=".467" stroke-width="2" d="m145.62-417.1 6 2.1-6 2.1z"/></g><g class="node"><a xlink:href="https://github.com/sverweij/dependency-cruiser/blob/main/src/graph-utl/consolidate-to-pattern.mjs" xlink:title="consolidate-to-pattern.mjs"><path fill="#fcc" stroke="#000" d="M406.27-399.72H295.1c-4.33 0-8.67 4.34-8.67 8.67v8.67c0 4.33 4.34 8.66 8.67 8.66h111.17c4.33 0 8.66-4.33 8.66-8.66v-8.67c0-4.33-4.33-8.67-8.66-8.67"/><text x="324.06" y="-388.17" font-family="Helvetica,sans-Serif" font-size="9">src/graph-utl/</text><text x="294.43" y="-379.17" font-family="Helvetica,sans-Serif" font-size="9" font-weight="bold">consolidate-to-pattern.mjs</text></a></g><g class="edge"><path fill="none" stroke="#700" stroke-opacity=".467" stroke-width="2" d="M319.74-400.19v-33.95"/><path fill="#700" fill-opacity=".467" stroke="#700" stroke-opacity=".467" stroke-width="2" d="m317.64-434.14 2.1-6 2.1 6z"/></g><g class="edge"><path fill="none" stroke="#700" stroke-opacity=".467" stroke-width="2" d="M303.09-399.83V-408H287.6"/><path fill="#700" fill-opacity=".467" stroke="#700" stroke-opacity=".467" stroke-width="2" d="m287.6-405.9-6-2.1 6-2.1z"/></g><g class="node"><a xlink:href="https://github.com/sverweij/dependency-cruiser/blob/main/src/graph-utl/filter-bank.mjs" xlink:title="filter-bank.mjs"><path fill="#fcc" stroke="#000" d="M264.18-147.4h-60.17c-4.33 0-8.66 4.34-8.66 8.67v8.67c0 4.33 4.33 8.66 8.66 8.66h60.17c4.33 0 8.67-4.33 8.67-8.66v-8.67c0-4.33-4.34-8.67-8.67-8.67"/><text x="207.47" y="-135.85" font-family="Helvetica,sans-Serif" font-size="9">src/graph-utl/</text><text x="203.35" y="-126.85" font-family="Helvetica,sans-Serif" font-size="9" font-weight="bold">filter-bank.mjs</text></a></g><g class="edge"><path fill="none" stroke="#700" stroke-opacity=".467" stroke-width="2" d="M195.12-130h-5.87v71.45"/><path fill="#700" fill-opacity=".467" stroke="#700" stroke-opacity=".467" stroke-width="2" d="m191.35-58.55-2.1 6-2.1-6z"/></g><g class="edge"><path fill="none" stroke="#700" stroke-opacity=".467" stroke-width="2" d="M234.1-121.17v28.37"/><path fill="#700" fill-opacity=".467" stroke="#700" stroke-opacity=".467" stroke-width="2" d="m236.2-92.8-2.1 6-2.1-6z"/></g><g class="edge"><path fill="none" stroke="#700" stroke-opacity=".467" stroke-width="2" d="M195.08-138h-40.89v14.3"/><path fill="#700" fill-opacity=".467" stroke="#700" stroke-opacity=".467" stroke-width="2" d="m156.29-123.7-2.1 6-2.1-6z"/></g><g class="node"><a xlink:href="https://github.com/sverweij/dependency-cruiser/blob/main/src/graph-utl/rule-set.mjs" xlink:title="rule-set.mjs"><path fill="#fcc" stroke="#000" d="M569.53-115.94h-51.92c-4.33 0-8.67 4.33-8.67 8.67v8.66c0 4.34 4.34 8.67 8.67 8.67h51.92c4.33 0 8.66-4.33 8.66-8.67v-8.66c0-4.34-4.33-8.67-8.66-8.67"/><text x="516.94" y="-104.39" font-family="Helvetica,sans-Serif" font-size="9">src/graph-utl/</text><text x="518.07" y="-95.39" font-family="Helvetica,sans-Serif" font-size="9" font-weight="bold">rule-set.mjs</text></a></g><g class="node"><a xlink:href="https://github.com/sverweij/dependency-cruiser/blob/main/src/graph-utl/strip-self-transitions.mjs" xlink:title="strip-self-transitions.mjs"><path fill="#fcc" stroke="#000" d="M169.22-381.1H65.55c-4.33 0-8.66 4.34-8.66 8.67v8.67c0 4.33 4.33 8.66 8.66 8.66h103.67c4.33 0 8.67-4.33 8.67-8.66v-8.67c0-4.33-4.34-8.67-8.67-8.67"/><text x="90.76" y="-369.55" font-family="Helvetica,sans-Serif" font-size="9">src/graph-utl/</text><text x="64.89" y="-360.55" font-family="Helvetica,sans-Serif" font-size="9" font-weight="bold">strip-self-transitions.mjs</text></a></g><g class="node"><a xlink:href="https://github.com/sverweij/dependency-cruiser/blob/main/src/report/anon/anonymize-path-element.mjs" xlink:title="anonymize-path-element.mjs"><path fill="#fcf" stroke="#000" d="M406.64-526.08H284.23c-4.34 0-8.67 4.34-8.67 8.67v8.67c0 4.33 4.33 8.66 8.67 8.66h122.41c4.34 0 8.67-4.33 8.67-8.66v-8.67c0-4.33-4.33-8.67-8.67-8.67"/><text x="313.56" y="-514.53" font-family="Helvetica,sans-Serif" font-size="9">src/report/anon/</text><text x="283.56" y="-505.53" font-family="Helvetica,sans-Serif" font-size="9" font-weight="bold">anonymize-path-element.mjs</text></a></g><g class="node"><a xlink:href="https://github.com/sverweij/dependency-cruiser/blob/main/src/report/anon/random-string.mjs" xlink:title="random-string.mjs"><path fill="#fcf" stroke="#000" d="M509.41-549.57h-77.42c-4.33 0-8.67 4.34-8.67 8.67v8.67c0 4.33 4.34 8.66 8.67 8.66h77.42c4.33 0 8.66-4.33 8.66-8.66v-8.67c0-4.33-4.33-8.67-8.66-8.67"/><text x="438.82" y="-538.02" font-family="Helvetica,sans-Serif" font-size="9">src/report/anon/</text><text x="431.32" y="-529.02" font-family="Helvetica,sans-Serif" font-size="9" font-weight="bold">random-string.mjs</text></a></g><g class="edge"><path fill="none" stroke="#f0f" stroke-opacity=".467" stroke-width="2" d="M415.6-508h21.79v-6.26"/><path fill="#f0f" fill-opacity=".467" stroke="#f0f" stroke-opacity=".467" stroke-width="2" d="m435.29-514.26 2.1-6 2.1 6z"/></g><g class="node"><a xlink:href="https://github.com/sverweij/dependency-cruiser/blob/main/src/report/anon/anonymize-path.mjs" xlink:title="anonymize-path.mjs"><path fill="#fcf" stroke="#000" d="M442.79-485.72h-84.92c-4.33 0-8.67 4.33-8.67 8.67v8.66c0 4.34 4.34 8.67 8.67 8.67h84.92c4.33 0 8.66-4.33 8.66-8.67v-8.66c0-4.34-4.33-8.67-8.66-8.67"/><text x="368.45" y="-474.17" font-family="Helvetica,sans-Serif" font-size="9">src/report/anon/</text><text x="357.2" y="-465.17" font-family="Helvetica,sans-Serif" font-size="9" font-weight="bold">anonymize-path.mjs</text></a></g><g class="edge"><path fill="none" stroke="#f0f" stroke-opacity=".467" stroke-width="2" d="M382.26-485.93v-4.74"/><path fill="#f0f" fill-opacity=".467" stroke="#f0f" stroke-opacity=".467" stroke-width="2" d="m380.16-490.67 2.1-6 2.1 6z"/></g><g class="node"><a xlink:href="https://github.com/sverweij/dependency-cruiser/blob/main/src/report/anon/index.mjs" xlink:title="index.mjs"><path fill="#fcf" stroke="#000" d="M415.91-612.45h-62.42c-4.33 0-8.66 4.34-8.66 8.67v8.67c0 4.33 4.33 8.66 8.66 8.66h62.42c4.33 0 8.67-4.33 8.67-8.66v-8.67c0-4.33-4.34-8.67-8.67-8.67"/><text x="352.83" y="-600.9" font-family="Helvetica,sans-Serif" font-size="9">src/report/anon/</text><text x="364.08" y="-591.9" font-family="Helvetica,sans-Serif" font-size="9" font-weight="bold">index.mjs</text></a></g><g class="edge"><path fill="none" stroke="#f0f" stroke-opacity=".467" stroke-width="2" d="M419.32-586.36v91.41"/><path fill="#f0f" fill-opacity=".467" stroke="#f0f" stroke-opacity=".467" stroke-width="2" d="m421.42-494.95-2.1 6-2.1-6z"/></g><g class="node"><a xlink:href="https://github.com/sverweij/dependency-cruiser/blob/main/src/report/azure-devops.mjs" xlink:title="azure-devops.mjs"><path fill="#fcf" stroke="#000" d="M521.92-368.71h-75.17c-4.33 0-8.67 4.33-8.67 8.66v8.67c0 4.33 4.34 8.67 8.67 8.67h75.17c4.33 0 8.66-4.34 8.66-8.67v-8.67c0-4.33-4.33-8.66-8.66-8.66"/><text x="464.08" y="-357.16" font-family="Helvetica,sans-Serif" font-size="9">src/report/</text><text x="446.08" y="-348.16" font-family="Helvetica,sans-Serif" font-size="9" font-weight="bold">azure-devops.mjs</text></a></g><g class="node"><a xlink:href="https://github.com/sverweij/dependency-cruiser/blob/main/src/report/utl/index.mjs" xlink:title="index.mjs"><path fill="#fcf" stroke="#000" d="M453.06-276.85H401.9c-4.34 0-8.67 4.34-8.67 8.67v8.67c0 4.33 4.33 8.66 8.67 8.66h51.16c4.34 0 8.67-4.33 8.67-8.66v-8.67c0-4.33-4.33-8.67-8.67-8.67"/><text x="401.23" y="-265.3" font-family="Helvetica,sans-Serif" font-size="9">src/report/utl/</text><text x="406.86" y="-256.3" font-family="Helvetica,sans-Serif" font-size="9" font-weight="bold">index.mjs</text></a></g><g class="edge"><path fill="none" stroke="#f0f" stroke-opacity=".467" stroke-width="2" d="M449.91-342.55v56.24"/><path fill="#f0f" fill-opacity=".467" stroke="#f0f" stroke-opacity=".467" stroke-width="2" d="m452.01-286.31-2.1 6-2.1-6z"/></g><g class="node"><a xlink:href="https://github.com/sverweij/dependency-cruiser/blob/main/src/report/baseline.mjs" xlink:title="no-orphans"><path fill="#fcf" stroke="red" d="M636.57-48.64H583.9c-4.33 0-8.66 4.33-8.66 8.67v8.66c0 4.34 4.33 8.67 8.66 8.67h52.67c4.33 0 8.67-4.33 8.67-8.67v-8.66c0-4.34-4.34-8.67-8.67-8.67"/><text x="589.99" y="-37.09" fill="red" font-family="Helvetica,sans-Serif" font-size="9">src/report/</text><text x="583.24" y="-28.09" fill="red" font-family="Helvetica,sans-Serif" font-size="9" font-weight="bold">baseline.mjs</text></a></g><g class="node"><a xlink:href="https://github.com/sverweij/dependency-cruiser/blob/main/src/report/csv.mjs" xlink:title="csv.mjs"><path fill="#fcf" stroke="#000" d="M530.65-468.42h-39.17c-4.33 0-8.67 4.33-8.67 8.66v8.67c0 4.33 4.34 8.67 8.67 8.67h39.17c4.33 0 8.66-4.34 8.66-8.67v-8.67c0-4.33-4.33-8.66-8.66-8.66"/><text x="490.81" y="-456.87" font-family="Helvetica,sans-Serif" font-size="9">src/report/</text><text x="494.56" y="-447.87" font-family="Helvetica,sans-Serif" font-size="9" font-weight="bold">csv.mjs</text></a></g><g class="node"><a xlink:href="https://github.com/sverweij/dependency-cruiser/blob/main/src/report/utl/dependency-to-incidence-transformer.mjs" xlink:title="dependency-to-incidence-transformer.mjs"><path fill="#fcf" stroke="#000" d="M738.91-527.06H560.24c-4.33 0-8.66 4.34-8.66 8.67v8.67c0 4.33 4.33 8.66 8.66 8.66h178.67c4.33 0 8.67-4.33 8.67-8.66v-8.67c0-4.33-4.34-8.67-8.67-8.67"/><text x="623.33" y="-515.51" font-family="Helvetica,sans-Serif" font-size="9">src/report/utl/</text><text x="559.58" y="-506.51" font-family="Helvetica,sans-Serif" font-size="9" font-weight="bold">dependency-to-incidence-transformer.mjs</text></a></g><g class="edge"><path fill="none" stroke="#f0f" stroke-opacity=".467" stroke-width="2" d="M528.04-468.87V-516h14.12"/><path fill="#f0f" fill-opacity=".467" stroke="#f0f" stroke-opacity=".467" stroke-width="2" d="m542.16-518.1 6 2.1-6 2.1z"/></g><g class="node"><a xlink:href="https://github.com/sverweij/dependency-cruiser/blob/main/src/report/d2.mjs" xlink:title="d2.mjs"><path fill="#fcf" stroke="#000" d="M375.84-300.63h-39.17c-4.33 0-8.67 4.33-8.67 8.67v8.66c0 4.34 4.34 8.67 8.67 8.67h39.17c4.33 0 8.66-4.33 8.66-8.67v-8.66c0-4.34-4.33-8.67-8.66-8.67"/><text x="336" y="-289.08" font-family="Helvetica,sans-Serif" font-size="9">src/report/</text><text x="342" y="-280.08" font-family="Helvetica,sans-Serif" font-size="9" font-weight="bold">d2.mjs</text></a></g><g class="edge"><path fill="none" stroke="#f0f" stroke-opacity=".467" stroke-width="2" d="M384.95-283h20.64v.61"/><path fill="#f0f" fill-opacity=".467" stroke="#f0f" stroke-opacity=".467" stroke-width="2" d="m407.69-285.97-2.1 6-2.1-6z"/></g><g class="node"><a xlink:href="https://github.com/sverweij/dependency-cruiser/blob/main/src/report/dot-webpage/dot-module.mjs" xlink:title="dot-module.mjs"><path fill="#fcf" stroke="#000" d="M386.69-150.34h-95.42c-4.33 0-8.67 4.34-8.67 8.67v8.67c0 4.33 4.34 8.66 8.67 8.66h95.42c4.33 0 8.66-4.33 8.66-8.66v-8.67c0-4.33-4.33-8.67-8.66-8.67"/><text x="290.6" y="-138.79" font-family="Helvetica,sans-Serif" font-size="9">src/report/dot-webpage/</text><text x="305.98" y="-129.79" font-family="Helvetica,sans-Serif" font-size="9" font-weight="bold">dot-module.mjs</text></a></g><g class="node"><a xlink:href="https://github.com/sverweij/dependency-cruiser/blob/main/src/report/dot/dot-module.mjs" xlink:title="dot-module.mjs"><path fill="#fcf" stroke="#000" d="M288.7-184.46h-64.67c-4.33 0-8.67 4.33-8.67 8.66v8.67c0 4.33 4.34 8.67 8.67 8.67h64.67c4.33 0 8.66-4.34 8.66-8.67v-8.67c0-4.33-4.33-8.66-8.66-8.66"/><text x="228.61" y="-172.91" font-family="Helvetica,sans-Serif" font-size="9">src/report/dot/</text><text x="223.36" y="-163.91" font-family="Helvetica,sans-Serif" font-size="9" font-weight="bold">dot-module.mjs</text></a></g><g class="edge"><path fill="none" stroke="#f0f" stroke-opacity=".467" stroke-width="2" d="M289.98-150.82v-.73"/><path fill="#f0f" fill-opacity=".467" stroke="#f0f" stroke-opacity=".467" stroke-width="2" d="m287.88-149.05 2.1-6 2.1 6z"/></g><g class="node"><a xlink:href="https://github.com/sverweij/dependency-cruiser/blob/main/src/report/dot-webpage/wrap-in-html.mjs" xlink:title="wrap-in-html.mjs"><path fill="#fcf" stroke="#000" d="M435.69-77.93h-95.41c-4.34 0-8.67 4.33-8.67 8.67v8.66c0 4.34 4.33 8.67 8.67 8.67h95.41c4.34 0 8.67-4.33 8.67-8.67v-8.66c0-4.34-4.33-8.67-8.67-8.67"/><text x="339.61" y="-66.38" font-family="Helvetica,sans-Serif" font-size="9">src/report/dot-webpage/</text><text x="352.36" y="-57.38" font-family="Helvetica,sans-Serif" font-size="9" font-weight="bold">wrap-in-html.mjs</text></a></g><g class="edge"><path fill="none" stroke="#f0f" stroke-opacity=".467" stroke-width="2" d="M363.48-124.06v36.91"/><path fill="#f0f" fill-opacity=".467" stroke="#f0f" stroke-opacity=".467" stroke-width="2" d="m365.58-87.15-2.1 6-2.1-6z"/></g><g class="node"><a xlink:href="https://github.com/sverweij/dependency-cruiser/blob/main/src/report/dot/index.mjs" xlink:title="index.mjs"><path fill="#fcf" stroke="#000" d="M196.83-235.51h-54.17c-4.33 0-8.66 4.33-8.66 8.67v8.66c0 4.34 4.33 8.67 8.66 8.67h54.17c4.33 0 8.67-4.33 8.67-8.67v-8.66c0-4.34-4.34-8.67-8.67-8.67"/><text x="142" y="-223.96" font-family="Helvetica,sans-Serif" font-size="9">src/report/dot/</text><text x="149.12" y="-214.96" font-family="Helvetica,sans-Serif" font-size="9" font-weight="bold">index.mjs</text></a></g><g class="edge"><path fill="none" stroke="#f0f" stroke-opacity=".467" stroke-width="2" d="M224.15-184.73V-223h-9.39"/><path fill="#f0f" fill-opacity=".467" stroke="#f0f" stroke-opacity=".467" stroke-width="2" d="m214.76-220.9-6-2.1 6-2.1z"/></g><g class="node"><a xlink:href="https://github.com/sverweij/dependency-cruiser/blob/main/src/report/dot/default-theme.mjs" xlink:title="default-theme.mjs"><path fill="#fcf" stroke="#000" d="M84.89-301.52H8.97c-4.33 0-8.67 4.34-8.67 8.67v8.67c0 4.33 4.34 8.66 8.67 8.66h75.92c4.33 0 8.66-4.33 8.66-8.66v-8.67c0-4.33-4.33-8.67-8.66-8.67"/><text x="19.18" y="-289.97" font-family="Helvetica,sans-Serif" font-size="9">src/report/dot/</text><text x="8.3" y="-280.97" font-family="Helvetica,sans-Serif" font-size="9" font-weight="bold">default-theme.mjs</text></a></g><g class="node"><a xlink:href="https://github.com/sverweij/dependency-cruiser/blob/main/src/report/dot/dot-custom.mjs" xlink:title="dot-custom.mjs"><path fill="#fcf" stroke="#000" d="M197.22-201.48h-65.41c-4.34 0-8.67 4.33-8.67 8.66v8.67c0 4.33 4.33 8.67 8.67 8.67h65.41c4.34 0 8.67-4.34 8.67-8.67v-8.67c0-4.33-4.33-8.66-8.67-8.66"/><text x="136.77" y="-189.93" font-family="Helvetica,sans-Serif" font-size="9">src/report/dot/</text><text x="131.14" y="-180.93" font-family="Helvetica,sans-Serif" font-size="9" font-weight="bold">dot-custom.mjs</text></a></g><g class="edge"><path fill="none" stroke="#f0f" stroke-opacity=".467" stroke-width="2" d="M169.75-201.93v-.72"/><path fill="#f0f" fill-opacity=".467" stroke="#f0f" stroke-opacity=".467" stroke-width="2" d="m167.65-200.13 2.1-6 2.1 6z"/></g><g class="edge"><path fill="none" stroke="#700" stroke-opacity=".467" stroke-width="2" d="M205.94-216h4.69v59.1"/><path fill="#700" fill-opacity=".467" stroke="#700" stroke-opacity=".467" stroke-width="2" d="m212.73-156.9-2.1 6-2.1-6z"/></g><g class="node"><a xlink:href="https://github.com/sverweij/dependency-cruiser/blob/main/src/report/dot/module-utl.mjs" xlink:title="module-utl.mjs"><path fill="#fcf" stroke="#000" d="M311.3-302.68h-61.67c-4.33 0-8.67 4.33-8.67 8.67v8.66c0 4.34 4.34 8.67 8.67 8.67h61.67c4.33 0 8.66-4.33 8.66-8.67v-8.66c0-4.34-4.33-8.67-8.66-8.67"/><text x="252.71" y="-291.13" font-family="Helvetica,sans-Serif" font-size="9">src/report/dot/</text><text x="248.96" y="-282.13" font-family="Helvetica,sans-Serif" font-size="9" font-weight="bold">module-utl.mjs</text></a></g><g class="edge"><path fill="none" stroke="#f0f" stroke-opacity=".467" stroke-width="2" d="M189.29-235.85V-248h99.02v-19.46"/><path fill="#f0f" fill-opacity=".467" stroke="#f0f" stroke-opacity=".467" stroke-width="2" d="m286.21-267.46 2.1-6 2.1 6z"/></g><g class="node"><a xlink:href="https://github.com/sverweij/dependency-cruiser/blob/main/src/report/dot/prepare-custom-level.mjs" xlink:title="prepare-custom-level.mjs"><path fill="#fcf" stroke="#000" d="M342.89-338.96H233.97c-4.33 0-8.66 4.33-8.66 8.67v8.66c0 4.34 4.33 8.67 8.66 8.67h108.92c4.33 0 8.67-4.33 8.67-8.67v-8.66c0-4.34-4.34-8.67-8.67-8.67"/><text x="260.68" y="-327.41" font-family="Helvetica,sans-Serif" font-size="9">src/report/dot/</text><text x="233.31" y="-318.41" font-family="Helvetica,sans-Serif" font-size="9" font-weight="bold">prepare-custom-level.mjs</text></a></g><g class="edge"><path fill="none" stroke="#f0f" stroke-opacity=".467" stroke-width="2" d="M197.39-235.85V-245h126.64v-58.56"/><path fill="#f0f" fill-opacity=".467" stroke="#f0f" stroke-opacity=".467" stroke-width="2" d="m321.93-303.56 2.1-6 2.1 6z"/></g><g class="node"><a xlink:href="https://github.com/sverweij/dependency-cruiser/blob/main/src/report/dot/prepare-flat-level.mjs" xlink:title="prepare-flat-level.mjs"><path fill="#fcf" stroke="#000" d="M224.28-303.53h-90.17c-4.33 0-8.66 4.33-8.66 8.66v8.67c0 4.33 4.33 8.67 8.66 8.67h90.17c4.33 0 8.67-4.34 8.67-8.67v-8.67c0-4.33-4.34-8.66-8.67-8.66"/><text x="151.45" y="-291.98" font-family="Helvetica,sans-Serif" font-size="9">src/report/dot/</text><text x="133.45" y="-282.98" font-family="Helvetica,sans-Serif" font-size="9" font-weight="bold">prepare-flat-level.mjs</text></a></g><g class="edge"><path fill="none" stroke="#f0f" stroke-opacity=".467" stroke-width="2" d="M181.19-235.95v-32.15"/><path fill="#f0f" fill-opacity=".467" stroke="#f0f" stroke-opacity=".467" stroke-width="2" d="m179.09-268.1 2.1-6 2.1 6z"/></g><g class="node"><a xlink:href="https://github.com/sverweij/dependency-cruiser/blob/main/src/report/dot/prepare-folder-level.mjs" xlink:title="prepare-folder-level.mjs"><path fill="#fcf" stroke="#000" d="M203.37-338.96H101.96c-4.34 0-8.67 4.33-8.67 8.67v8.66c0 4.34 4.33 8.67 8.67 8.67h101.41c4.34 0 8.67-4.33 8.67-8.67v-8.66c0-4.34-4.33-8.67-8.67-8.67"/><text x="124.92" y="-327.41" font-family="Helvetica,sans-Serif" font-size="9">src/report/dot/</text><text x="101.29" y="-318.41" font-family="Helvetica,sans-Serif" font-size="9" font-weight="bold">prepare-folder-level.mjs</text></a></g><g class="edge"><path fill="none" stroke="#f0f" stroke-opacity=".467" stroke-width="2" d="M133.66-228H97.57v-75.72"/><path fill="#f0f" fill-opacity=".467" stroke="#f0f" stroke-opacity=".467" stroke-width="2" d="m95.47-303.72 2.1-6 2.1 6z"/></g><g class="node"><a xlink:href="https://github.com/sverweij/dependency-cruiser/blob/main/src/report/dot/theming.mjs" xlink:title="theming.mjs"><path fill="#fcf" stroke="#000" d="M164.42-269.52h-54.17c-4.33 0-8.66 4.33-8.66 8.67v8.66c0 4.34 4.33 8.67 8.66 8.67h54.17c4.33 0 8.67-4.33 8.67-8.67v-8.66c0-4.34-4.34-8.67-8.67-8.67"/><text x="109.59" y="-257.97" font-family="Helvetica,sans-Serif" font-size="9">src/report/dot/</text><text x="111.09" y="-248.97" font-family="Helvetica,sans-Serif" font-size="9" font-weight="bold">theming.mjs</text></a></g><g class="edge"><path fill="none" stroke="#f0f" stroke-opacity=".467" stroke-width="2" d="M153.54-235.95v-.72"/><path fill="#f0f" fill-opacity=".467" stroke="#f0f" stroke-opacity=".467" stroke-width="2" d="m151.44-234.15 2.1-6 2.1 6z"/></g><g class="node"><a xlink:href="https://github.com/sverweij/dependency-cruiser/blob/main/src/report/dot/dot-flat.mjs" xlink:title="dot-flat.mjs"><path fill="#fcf" stroke="#000" d="M106.4-213.69H52.23c-4.33 0-8.67 4.33-8.67 8.66v8.67c0 4.33 4.34 8.67 8.67 8.67h54.17c4.33 0 8.66-4.34 8.66-8.67v-8.67c0-4.33-4.33-8.66-8.66-8.66"/><text x="51.56" y="-202.14" font-family="Helvetica,sans-Serif" font-size="9">src/report/dot/</text><text x="55.31" y="-193.14" font-family="Helvetica,sans-Serif" font-size="9" font-weight="bold">dot-flat.mjs</text></a></g><g class="edge"><path fill="none" stroke="#f0f" stroke-opacity=".467" stroke-width="2" d="M108.33-213.89V-220h16.31"/><path fill="#f0f" fill-opacity=".467" stroke="#f0f" stroke-opacity=".467" stroke-width="2" d="m124.64-222.1 6 2.1-6 2.1z"/></g><g class="node"><a xlink:href="https://github.com/sverweij/dependency-cruiser/blob/main/src/report/dot/dot-folder.mjs" xlink:title="dot-folder.mjs"><path fill="#fcf" stroke="#000" d="M303.31-236.7h-57.17c-4.33 0-8.66 4.33-8.66 8.66v8.67c0 4.33 4.33 8.67 8.66 8.67h57.17c4.33 0 8.67-4.34 8.67-8.67v-8.67c0-4.33-4.34-8.66-8.67-8.66"/><text x="246.98" y="-225.15" font-family="Helvetica,sans-Serif" font-size="9">src/report/dot/</text><text x="245.48" y="-216.15" font-family="Helvetica,sans-Serif" font-size="9" font-weight="bold">dot-folder.mjs</text></a></g><g class="edge"><path fill="none" stroke="#f0f" stroke-opacity=".467" stroke-width="2" d="M237.12-229h-22.41"/><path fill="#f0f" fill-opacity=".467" stroke="#f0f" stroke-opacity=".467" stroke-width="2" d="m214.71-226.9-6-2.1 6-2.1z"/></g><g class="edge"><path fill="none" stroke="#f0f" stroke-opacity=".467" stroke-width="2" d="M317.3-276.24V-264h66.59"/><path fill="#f0f" fill-opacity=".467" stroke="#f0f" stroke-opacity=".467" stroke-width="2" d="m383.89-266.1 6 2.1-6 2.1z"/></g><g class="edge"><path fill="none" stroke="#f0f" stroke-opacity=".467" stroke-width="2" d="M264.63-276.23V-260H182.5"/><path fill="#f0f" fill-opacity=".467" stroke="#f0f" stroke-opacity=".467" stroke-width="2" d="m182.5-257.9-6-2.1 6-2.1z"/></g><g class="edge"><path fill="none" stroke="#700" stroke-opacity=".467" stroke-width="2" d="M250.95-339.41v-.72"/><path fill="#700" fill-opacity=".467" stroke="#700" stroke-opacity=".467" stroke-width="2" d="m248.85-337.61 2.1-6 2.1 6z"/></g><g class="edge"><path fill="none" stroke="#700" stroke-opacity=".467" stroke-width="2" d="M319-339.44v-24.8"/><path fill="#700" fill-opacity=".467" stroke="#700" stroke-opacity=".467" stroke-width="2" d="m316.9-364.24 2.1-6 2.1 6z"/></g><g class="edge"><path fill="none" stroke="#700" stroke-opacity=".467" stroke-width="2" d="M281.06-339.37V-377h-93.7"/><path fill="#700" fill-opacity=".467" stroke="#700" stroke-opacity=".467" stroke-width="2" d="m187.36-374.9-6-2.1 6-2.1z"/></g><g class="edge"><path fill="none" stroke="#f0f" stroke-opacity=".467" stroke-width="2" d="M280.46-312.86v1"/><path fill="#f0f" fill-opacity=".467" stroke="#f0f" stroke-opacity=".467" stroke-width="2" d="m282.56-311.91-2.1 6-2.1-6z"/></g><g class="edge"><path fill="none" stroke="#700" stroke-opacity=".467" stroke-width="2" d="M218.67-303.93v-33.69"/><path fill="#700" fill-opacity=".467" stroke="#700" stroke-opacity=".467" stroke-width="2" d="m216.57-337.62 2.1-6 2.1 6z"/></g><g class="edge"><path fill="none" stroke="#f0f" stroke-opacity=".467" stroke-width="2" d="M233.39-290h.72"/><path fill="#f0f" fill-opacity=".467" stroke="#f0f" stroke-opacity=".467" stroke-width="2" d="m231.64-292.1 6 2.1-6 2.1z"/></g><g class="edge"><path fill="none" stroke="#700" stroke-opacity=".467" stroke-width="2" d="M208.2-339.41v-.72"/><path fill="#700" fill-opacity=".467" stroke="#700" stroke-opacity=".467" stroke-width="2" d="m206.1-337.61 2.1-6 2.1 6z"/></g><g class="edge"><path fill="none" stroke="#700" stroke-opacity=".467" stroke-width="2" d="M92.96-330H41.09v-89.07"/><path fill="#700" fill-opacity=".467" stroke="#700" stroke-opacity=".467" stroke-width="2" d="m38.99-419.07 2.1-6 2.1 6z"/></g><g class="edge"><path fill="none" stroke="#700" stroke-opacity=".467" stroke-width="2" d="M135.59-339.29v-6.39"/><path fill="#700" fill-opacity=".467" stroke="#700" stroke-opacity=".467" stroke-width="2" d="m133.49-345.68 2.1-6 2.1 6z"/></g><g class="edge"><path fill="none" stroke="#f0f" stroke-opacity=".467" stroke-width="2" d="M93.08-321H-17.7v167h332.34v-113.64"/><path fill="#f0f" fill-opacity=".467" stroke="#f0f" stroke-opacity=".467" stroke-width="2" d="m312.54-267.64 2.1-6 2.1 6z"/></g><g class="edge"><path fill="none" stroke="#f0f" stroke-opacity=".467" stroke-width="2" d="M113.52-269.73V-289h-10.6"/><path fill="#f0f" fill-opacity=".467" stroke="#f0f" stroke-opacity=".467" stroke-width="2" d="m102.92-286.9-6-2.1 6-2.1z"/></g><g class="node"><a xlink:href="https://github.com/sverweij/dependency-cruiser/blob/main/src/report/error-html/error-html-template.mjs" xlink:title="error-html-template.mjs"><path fill="#fcf" stroke="#000" d="M719.78-247.19H619.11c-4.33 0-8.67 4.33-8.67 8.67v8.66c0 4.34 4.34 8.67 8.67 8.67h100.67c4.33 0 8.66-4.33 8.66-8.67v-8.66c0-4.34-4.33-8.67-8.66-8.67"/><text x="628.19" y="-235.64" font-family="Helvetica,sans-Serif" font-size="9">src/report/error-html/</text><text x="618.44" y="-226.64" font-family="Helvetica,sans-Serif" font-size="9" font-weight="bold">error-html-template.mjs</text></a></g><g class="node"><a xlink:href="https://github.com/sverweij/dependency-cruiser/blob/main/src/report/error-html/index.mjs" xlink:title="index.mjs"><path fill="#fcf" stroke="#000" d="M593.67-255.32h-81.16c-4.34 0-8.67 4.34-8.67 8.67v8.67c0 4.33 4.33 8.66 8.67 8.66h81.16c4.34 0 8.67-4.33 8.67-8.66v-8.67c0-4.33-4.33-8.67-8.67-8.67"/><text x="511.84" y="-243.77" font-family="Helvetica,sans-Serif" font-size="9">src/report/error-html/</text><text x="532.47" y="-234.77" font-family="Helvetica,sans-Serif" font-size="9" font-weight="bold">index.mjs</text></a></g><g class="edge"><path fill="none" stroke="#f0f" stroke-opacity=".467" stroke-width="2" d="M602.77-238h.75"/><path fill="#f0f" fill-opacity=".467" stroke="#f0f" stroke-opacity=".467" stroke-width="2" d="m601.2-240.1 6 2.1-6 2.1z"/></g><g class="node"><a xlink:href="https://github.com/sverweij/dependency-cruiser/blob/main/src/report/error-html/utl.mjs" xlink:title="utl.mjs"><path fill="#fcf" stroke="#000" d="M559.68-289.73h-81.17c-4.33 0-8.67 4.33-8.67 8.66v8.67c0 4.33 4.34 8.67 8.67 8.67h81.17c4.33 0 8.66-4.34 8.66-8.67v-8.67c0-4.33-4.33-8.66-8.66-8.66"/><text x="477.84" y="-278.18" font-family="Helvetica,sans-Serif" font-size="9">src/report/error-html/</text><text x="504.84" y="-269.18" font-family="Helvetica,sans-Serif" font-size="9" font-weight="bold">utl.mjs</text></a></g><g class="edge"><path fill="none" stroke="#f0f" stroke-opacity=".467" stroke-width="2" d="M536.09-255.52v-.79"/><path fill="#f0f" fill-opacity=".467" stroke="#f0f" stroke-opacity=".467" stroke-width="2" d="m533.99-254.36 2.1-6 2.1 6z"/></g><g class="edge"><path fill="none" stroke="#f0f" stroke-opacity=".467" stroke-width="2" d="M469.53-270h-.75"/><path fill="#f0f" fill-opacity=".467" stroke="#f0f" stroke-opacity=".467" stroke-width="2" d="m471.05-267.9-6-2.1 6-2.1z"/></g><g class="node"><a xlink:href="https://github.com/sverweij/dependency-cruiser/blob/main/src/report/error-long.mjs" xlink:title="error-long.mjs"><path fill="#fcf" stroke="#000" d="M531.92-210.81h-59.41c-4.34 0-8.67 4.33-8.67 8.67v8.66c0 4.34 4.33 8.67 8.67 8.67h59.41c4.34 0 8.67-4.33 8.67-8.67v-8.66c0-4.34-4.33-8.67-8.67-8.67"/><text x="481.96" y="-199.26" font-family="Helvetica,sans-Serif" font-size="9">src/report/</text><text x="471.84" y="-190.26" font-family="Helvetica,sans-Serif" font-size="9" font-weight="bold">error-long.mjs</text></a></g><g class="node"><a xlink:href="https://github.com/sverweij/dependency-cruiser/blob/main/src/report/error.mjs" xlink:title="error.mjs"><path fill="#fcf" stroke="#000" d="M447.16-222.8h-39.17c-4.33 0-8.67 4.33-8.67 8.67v8.66c0 4.34 4.34 8.67 8.67 8.67h39.17c4.33 0 8.66-4.33 8.66-8.67v-8.66c0-4.34-4.33-8.67-8.66-8.67"/><text x="407.32" y="-211.25" font-family="Helvetica,sans-Serif" font-size="9">src/report/</text><text x="408.07" y="-202.25" font-family="Helvetica,sans-Serif" font-size="9" font-weight="bold">error.mjs</text></a></g><g class="edge"><path fill="none" stroke="#f0f" stroke-opacity=".467" stroke-width="2" d="M463.58-203h-.76"/><path fill="#f0f" fill-opacity=".467" stroke="#f0f" stroke-opacity=".467" stroke-width="2" d="m465-200.9-6-2.1 6-2.1z"/></g><g class="edge"><path fill="none" stroke="#700" stroke-opacity=".467" stroke-width="2" d="M456.14-216h101.59v90.62"/><path fill="#700" fill-opacity=".467" stroke="#700" stroke-opacity=".467" stroke-width="2" d="m559.83-125.38-2.1 6-2.1-6z"/></g><g class="edge"><path fill="none" stroke="#f0f" stroke-opacity=".467" stroke-width="2" d="M427.57-223.16v-18.45"/><path fill="#f0f" fill-opacity=".467" stroke="#f0f" stroke-opacity=".467" stroke-width="2" d="m425.48-241.61 2.1-6 2.1 6z"/></g><g class="node"><a xlink:href="https://github.com/sverweij/dependency-cruiser/blob/main/src/utl/wrap-and-indent.mjs" xlink:title="utl-module-not-shared-enough"><path fill="#ccc" stroke="#00f" d="M497.8-150.55h-85.67c-4.33 0-8.66 4.33-8.66 8.66v8.67c0 4.33 4.33 8.67 8.66 8.67h85.67c4.33 0 8.67-4.34 8.67-8.67v-8.67c0-4.33-4.34-8.66-8.67-8.66"/><text x="441.84" y="-139" fill="#00f" font-family="Helvetica,sans-Serif" font-size="9">src/utl/</text><text x="411.47" y="-130" fill="#00f" font-family="Helvetica,sans-Serif" font-size="9" font-weight="bold">wrap-and-indent.mjs</text></a></g><g class="edge"><path fill="none" stroke="#aaa" stroke-opacity=".467" stroke-width="2" d="M429.65-196.55v36.8"/><path fill="#aaa" fill-opacity=".467" stroke="#aaa" stroke-opacity=".467" stroke-width="2" d="m431.75-159.75-2.1 6-2.1-6z"/></g><g class="node"><a xlink:href="https://github.com/sverweij/dependency-cruiser/blob/main/src/report/html/html-template.mjs" xlink:title="html-template.mjs"><path fill="#fcf" stroke="#000" d="M664.95-417.41h-75.92c-4.33 0-8.66 4.33-8.66 8.66v8.67c0 4.33 4.33 8.67 8.66 8.67h75.92c4.33 0 8.67-4.34 8.67-8.67v-8.67c0-4.33-4.34-8.66-8.67-8.66"/><text x="596.99" y="-405.86" font-family="Helvetica,sans-Serif" font-size="9">src/report/html/</text><text x="588.37" y="-396.86" font-family="Helvetica,sans-Serif" font-size="9" font-weight="bold">html-template.mjs</text></a></g><g class="node"><a xlink:href="https://github.com/sverweij/dependency-cruiser/blob/main/src/report/html/index.mjs" xlink:title="index.mjs"><path fill="#fcf" stroke="#000" d="M605.33-561.06h-58.66c-4.34 0-8.67 4.33-8.67 8.67v8.66c0 4.34 4.33 8.67 8.67 8.67h58.66c4.34 0 8.67-4.33 8.67-8.67v-8.66c0-4.34-4.33-8.67-8.67-8.67"/><text x="546" y="-549.51" font-family="Helvetica,sans-Serif" font-size="9">src/report/html/</text><text x="555.38" y="-540.51" font-family="Helvetica,sans-Serif" font-size="9" font-weight="bold">index.mjs</text></a></g><g class="edge"><path fill="none" stroke="#f0f" stroke-opacity=".467" stroke-width="2" d="M582.79-534.62v.72"/><path fill="#f0f" fill-opacity=".467" stroke="#f0f" stroke-opacity=".467" stroke-width="2" d="m584.89-536.43-2.1 6-2.1-6z"/></g><g class="edge"><path fill="none" stroke="#f0f" stroke-opacity=".467" stroke-width="2" d="M545.45-535.01V-412H571"/><path fill="#f0f" fill-opacity=".467" stroke="#f0f" stroke-opacity=".467" stroke-width="2" d="m571-414.1 6 2.1-6 2.1z"/></g><g class="node"><a xlink:href="https://github.com/sverweij/dependency-cruiser/blob/main/src/report/identity.mjs" xlink:title="identity.mjs"><path fill="#fcf" stroke="#000" d="M538.95-48.64h-47.42c-4.33 0-8.67 4.33-8.67 8.67v8.66c0 4.34 4.34 8.67 8.67 8.67h47.42c4.33 0 8.66-4.33 8.66-8.67v-8.66c0-4.34-4.33-8.67-8.66-8.67"/><text x="494.99" y="-37.09" font-family="Helvetica,sans-Serif" font-size="9">src/report/</text><text x="490.86" y="-28.09" font-family="Helvetica,sans-Serif" font-size="9" font-weight="bold">identity.mjs</text></a></g><g class="node"><a xlink:href="https://github.com/sverweij/dependency-cruiser/blob/main/src/report/index.mjs" xlink:title="index.mjs"><path fill="#fcf" stroke="#000" d="M623.46-174.68h-39.92c-4.33 0-8.66 4.33-8.66 8.66v8.67c0 4.33 4.33 8.67 8.66 8.67h39.92c4.33 0 8.67-4.34 8.67-8.67v-8.67c0-4.33-4.34-8.66-8.67-8.66"/><text x="583.25" y="-163.13" font-family="Helvetica,sans-Serif" font-size="9">src/report/</text><text x="582.88" y="-154.13" font-family="Helvetica,sans-Serif" font-size="9" font-weight="bold">index.mjs</text></a></g><g class="node"><a xlink:href="https://github.com/sverweij/dependency-cruiser/blob/main/src/report/plugins.mjs" xlink:title="plugins.mjs"><path fill="#fcf" stroke="#000" d="M696.22-164.37H648.8c-4.33 0-8.67 4.33-8.67 8.66v8.67c0 4.33 4.34 8.67 8.67 8.67h47.42c4.33 0 8.66-4.34 8.66-8.67v-8.67c0-4.33-4.33-8.66-8.66-8.66"/><text x="652.26" y="-152.82" font-family="Helvetica,sans-Serif" font-size="9">src/report/</text><text x="648.13" y="-143.82" font-family="Helvetica,sans-Serif" font-size="9" font-weight="bold">plugins.mjs</text></a></g><g class="edge"><path fill="none" stroke="#f0f" stroke-opacity=".467" stroke-width="2" d="M632.37-156h.76"/><path fill="#f0f" fill-opacity=".467" stroke="#f0f" stroke-opacity=".467" stroke-width="2" d="m630.94-158.1 6 2.1-6 2.1z"/></g><g class="node"><a xlink:href="https://github.com/sverweij/dependency-cruiser/blob/main/src/report/json.mjs" xlink:title="json.mjs"><path fill="#fcf" stroke="#000" d="M231.82-577.64h-39.17c-4.33 0-8.66 4.33-8.66 8.67v8.66c0 4.34 4.33 8.67 8.66 8.67h39.17c4.33 0 8.67-4.33 8.67-8.67v-8.66c0-4.34-4.34-8.67-8.67-8.67"/><text x="191.99" y="-566.09" font-family="Helvetica,sans-Serif" font-size="9">src/report/</text><text x="194.24" y="-557.09" font-family="Helvetica,sans-Serif" font-size="9" font-weight="bold">json.mjs</text></a></g><g class="node"><a xlink:href="https://github.com/sverweij/dependency-cruiser/blob/main/src/report/markdown.mjs" xlink:title="markdown.mjs"><path fill="#fcf" stroke="#000" d="M608.92-343.22h-61.67c-4.33 0-8.67 4.33-8.67 8.66v8.67c0 4.33 4.34 8.67 8.67 8.67h61.67c4.33 0 8.66-4.34 8.66-8.67v-8.67c0-4.33-4.33-8.66-8.66-8.66"/><text x="557.83" y="-331.67" font-family="Helvetica,sans-Serif" font-size="9">src/report/</text><text x="546.58" y="-322.67" font-family="Helvetica,sans-Serif" font-size="9" font-weight="bold">markdown.mjs</text></a></g><g class="edge"><path fill="none" stroke="#f0f" stroke-opacity=".467" stroke-width="2" d="M553.46-316.73v17.66"/><path fill="#f0f" fill-opacity=".467" stroke="#f0f" stroke-opacity=".467" stroke-width="2" d="m555.56-299.07-2.1 6-2.1-6z"/></g><g class="node"><a xlink:href="https://github.com/sverweij/dependency-cruiser/blob/main/src/report/mermaid.mjs" xlink:title="no-orphans"><path fill="#fcf" stroke="red" d="M431.7-25.64h-54.92c-4.33 0-8.67 4.33-8.67 8.67v8.66c0 4.34 4.34 8.67 8.67 8.67h54.92c4.33 0 8.66-4.33 8.66-8.67v-8.66c0-4.34-4.33-8.67-8.66-8.67"/><text x="383.99" y="-14.09" fill="red" font-family="Helvetica,sans-Serif" font-size="9">src/report/</text><text x="376.11" y="-5.09" fill="red" font-family="Helvetica,sans-Serif" font-size="9" font-weight="bold">mermaid.mjs</text></a></g><g class="node"><a xlink:href="https://github.com/sverweij/dependency-cruiser/blob/main/src/report/metrics.mjs" xlink:title="metrics.mjs"><path fill="#fcf" stroke="#000" d="M378.39-242.84h-49.67c-4.33 0-8.67 4.34-8.67 8.67v8.67c0 4.33 4.34 8.66 8.67 8.66h49.67c4.33 0 8.66-4.33 8.66-8.66v-8.67c0-4.33-4.33-8.67-8.66-8.67"/><text x="333.3" y="-231.29" font-family="Helvetica,sans-Serif" font-size="9">src/report/</text><text x="328.05" y="-222.29" font-family="Helvetica,sans-Serif" font-size="9" font-weight="bold">metrics.mjs</text></a></g><g class="edge"><path fill="none" stroke="#f0f" stroke-opacity=".467" stroke-width="2" d="M356.25-243.3V-255h27.84"/><path fill="#f0f" fill-opacity=".467" stroke="#f0f" stroke-opacity=".467" stroke-width="2" d="m384.09-257.1 6 2.1-6 2.1z"/></g><g class="node"><a xlink:href="https://github.com/sverweij/dependency-cruiser/blob/main/src/report/null.mjs" xlink:title="null.mjs"><path fill="#fcf" stroke="#000" d="M139.82-577.64h-39.17c-4.33 0-8.66 4.33-8.66 8.67v8.66c0 4.34 4.33 8.67 8.66 8.67h39.17c4.33 0 8.67-4.33 8.67-8.67v-8.66c0-4.34-4.34-8.67-8.67-8.67"/><text x="99.99" y="-566.09" font-family="Helvetica,sans-Serif" font-size="9">src/report/</text><text x="103.74" y="-557.09" font-family="Helvetica,sans-Serif" font-size="9" font-weight="bold">null.mjs</text></a></g><g class="node"><a xlink:href="https://github.com/sverweij/dependency-cruiser/blob/main/src/report/teamcity.mjs" xlink:title="teamcity.mjs"><path fill="#fcf" stroke="#000" d="M421.64-334.68h-53.42c-4.33 0-8.66 4.33-8.66 8.67v8.66c0 4.34 4.33 8.67 8.66 8.67h53.42c4.33 0 8.67-4.33 8.67-8.67v-8.66c0-4.34-4.34-8.67-8.67-8.67"/><text x="374.68" y="-323.13" font-family="Helvetica,sans-Serif" font-size="9">src/report/</text><text x="367.56" y="-314.13" font-family="Helvetica,sans-Serif" font-size="9" font-weight="bold">teamcity.mjs</text></a></g><g class="edge"><path fill="none" stroke="#f0f" stroke-opacity=".467" stroke-width="2" d="M417.95-308.27v22.06"/><path fill="#f0f" fill-opacity=".467" stroke="#f0f" stroke-opacity=".467" stroke-width="2" d="m420.05-286.21-2.1 6-2.1-6z"/></g><g class="node"><a xlink:href="https://github.com/sverweij/dependency-cruiser/blob/main/src/report/text.mjs" xlink:title="no-orphans"><path fill="#fcf" stroke="red" d="M300.82-25.64h-39.17c-4.33 0-8.66 4.33-8.66 8.67v8.66c0 4.34 4.33 8.67 8.66 8.67h39.17c4.33 0 8.67-4.33 8.67-8.67v-8.66c0-4.34-4.34-8.67-8.67-8.67"/><text x="260.99" y="-14.09" fill="red" font-family="Helvetica,sans-Serif" font-size="9">src/report/</text><text x="263.99" y="-5.09" fill="red" font-family="Helvetica,sans-Serif" font-size="9" font-weight="bold">text.mjs</text></a></g></g></svg>