<?xml version="1.0" encoding="UTF-8" standalone="no"?>
<!DOCTYPE svg PUBLIC "-//W3C//DTD SVG 1.1//EN"
 "http://www.w3.org/Graphics/SVG/1.1/DTD/svg11.dtd">
<!-- Generated by graphviz version 8.0.5 (20230430.1635)
 -->
<!-- Title: dependency&#45;cruiser output Pages: 1 -->
<svg width="698pt" height="620pt"
 viewBox="0.00 0.00 698.00 620.00" xmlns="http://www.w3.org/2000/svg" xmlns:xlink="http://www.w3.org/1999/xlink">
<g id="graph0" class="graph" transform="scale(1 1) rotate(0) translate(4 616)">
<title>dependency&#45;cruiser output</title>
<polygon fill="white" stroke="none" points="-4,4 -4,-616 694,-616 694,4 -4,4"/>
<g id="clust1" class="cluster">
<title>cluster_src</title>
<path fill="#ffffff" stroke="black" stroke-width="2" d="M20,-8C20,-8 670,-8 670,-8 676,-8 682,-14 682,-20 682,-20 682,-592 682,-592 682,-598 676,-604 670,-604 670,-604 20,-604 20,-604 14,-604 8,-598 8,-592 8,-592 8,-20 8,-20 8,-14 14,-8 20,-8"/>
<text text-anchor="middle" x="345" y="-591.45" font-family="Helvetica,sans-Serif" font-weight="bold" font-size="9.00">src</text>
</g>
<g id="clust2" class="cluster">
<title>cluster_src/graph&#45;utl</title>
<path fill="#ffffff" stroke="black" stroke-width="2" d="M221,-346C221,-346 662,-346 662,-346 668,-346 674,-352 674,-358 674,-358 674,-506 674,-506 674,-512 668,-518 662,-518 662,-518 221,-518 221,-518 215,-518 209,-512 209,-506 209,-506 209,-358 209,-358 209,-352 215,-346 221,-346"/>
<text text-anchor="middle" x="441.5" y="-505.45" font-family="Helvetica,sans-Serif" font-weight="bold" font-size="9.00">graph&#45;utl</text>
</g>
<g id="clust3" class="cluster">
<title>cluster_src/report</title>
<path fill="#ffffff" stroke="black" stroke-width="2" d="M28,-16C28,-16 300.88,-16 300.88,-16 306.88,-16 312.88,-22 312.88,-28 312.88,-28 312.88,-326 312.88,-326 312.88,-332 306.88,-338 300.88,-338 300.88,-338 28,-338 28,-338 22,-338 16,-332 16,-326 16,-326 16,-28 16,-28 16,-22 22,-16 28,-16"/>
<text text-anchor="middle" x="164.44" y="-325.45" font-family="Helvetica,sans-Serif" font-weight="bold" font-size="9.00">report</text>
</g>
<g id="clust4" class="cluster">
<title>cluster_src/utl</title>
<path fill="#ffffff" stroke="black" stroke-width="2" d="M231.88,-526C231.88,-526 323.88,-526 323.88,-526 329.88,-526 335.88,-532 335.88,-538 335.88,-538 335.88,-566 335.88,-566 335.88,-572 329.88,-578 323.88,-578 323.88,-578 231.88,-578 231.88,-578 225.88,-578 219.88,-572 219.88,-566 219.88,-566 219.88,-538 219.88,-538 219.88,-532 225.88,-526 231.88,-526"/>
<text text-anchor="start" x="272.62" y="-565.45" font-family="Helvetica,sans-Serif" font-weight="bold" font-size="9.00">utl</text>
</g>
<!-- src/graph&#45;utl/add&#45;focus.mjs -->
<g id="node1" class="node">
<title>src/graph&#45;utl/add&#45;focus.mjs</title>
<g id="a_node1"><a xlink:href="https://github.com/sverweij/dependency-cruiser/blob/main/src/graph-utl/add-focus.mjs" xlink:title="add&#45;focus.mjs">
<path fill="#ffcccc" stroke="black" d="M469.83,-461.88C469.83,-461.88 408.67,-461.88 408.67,-461.88 405.71,-461.88 402.75,-458.92 402.75,-455.96 402.75,-455.96 402.75,-450.04 402.75,-450.04 402.75,-447.08 405.71,-444.12 408.67,-444.12 408.67,-444.12 469.83,-444.12 469.83,-444.12 472.79,-444.12 475.75,-447.08 475.75,-450.04 475.75,-450.04 475.75,-455.96 475.75,-455.96 475.75,-458.92 472.79,-461.88 469.83,-461.88"/>
<text text-anchor="start" x="410.75" y="-449.32" font-family="Helvetica,sans-Serif" font-size="9.00">add&#45;focus.mjs</text>
</a>
</g>
</g>
<!-- src/graph&#45;utl/indexed&#45;module&#45;graph.mjs -->
<g id="node2" class="node">
<title>src/graph&#45;utl/indexed&#45;module&#45;graph.mjs</title>
<g id="a_node2"><a xlink:href="https://github.com/sverweij/dependency-cruiser/blob/main/src/graph-utl/indexed-module-graph.mjs" xlink:title="indexed&#45;module&#45;graph.mjs">
<path fill="#ffcccc" stroke="black" d="M660.08,-479.88C660.08,-479.88 545.67,-479.88 545.67,-479.88 542.71,-479.88 539.75,-476.92 539.75,-473.96 539.75,-473.96 539.75,-468.04 539.75,-468.04 539.75,-465.08 542.71,-462.12 545.67,-462.12 545.67,-462.12 660.08,-462.12 660.08,-462.12 663.04,-462.12 666,-465.08 666,-468.04 666,-468.04 666,-473.96 666,-473.96 666,-476.92 663.04,-479.88 660.08,-479.88"/>
<text text-anchor="start" x="547.75" y="-467.32" font-family="Helvetica,sans-Serif" font-size="9.00">indexed&#45;module&#45;graph.mjs</text>
</a>
</g>
</g>
<!-- src/graph&#45;utl/add&#45;focus.mjs&#45;&gt;src/graph&#45;utl/indexed&#45;module&#45;graph.mjs -->
<g id="edge1" class="edge">
<title>src/graph&#45;utl/add&#45;focus.mjs&#45;&gt;src/graph&#45;utl/indexed&#45;module&#45;graph.mjs</title>
<path fill="none" stroke="#770000" stroke-width="2" stroke-opacity="0.466667" d="M476.13,-453C508.35,-453 550,-453 550,-453 550,-453 550,-453.9 550,-453.9"/>
<polygon fill="#770000" fill-opacity="0.466667" stroke="#770000" stroke-width="2" stroke-opacity="0.466667" points="547.9,-453 550,-459 552.1,-453 547.9,-453"/>
</g>
<!-- src/graph&#45;utl/match&#45;facade.mjs -->
<g id="node3" class="node">
<title>src/graph&#45;utl/match&#45;facade.mjs</title>
<g id="a_node3"><a xlink:href="https://github.com/sverweij/dependency-cruiser/blob/main/src/graph-utl/match-facade.mjs" xlink:title="match&#45;facade.mjs">
<path fill="#ffcccc" stroke="black" d="M640.96,-442.88C640.96,-442.88 564.79,-442.88 564.79,-442.88 561.83,-442.88 558.88,-439.92 558.88,-436.96 558.88,-436.96 558.88,-431.04 558.88,-431.04 558.88,-428.08 561.83,-425.12 564.79,-425.12 564.79,-425.12 640.96,-425.12 640.96,-425.12 643.92,-425.12 646.88,-428.08 646.88,-431.04 646.88,-431.04 646.88,-436.96 646.88,-436.96 646.88,-439.92 643.92,-442.88 640.96,-442.88"/>
<text text-anchor="start" x="566.88" y="-430.32" font-family="Helvetica,sans-Serif" font-size="9.00">match&#45;facade.mjs</text>
</a>
</g>
</g>
<!-- src/graph&#45;utl/add&#45;focus.mjs&#45;&gt;src/graph&#45;utl/match&#45;facade.mjs -->
<g id="edge2" class="edge">
<title>src/graph&#45;utl/add&#45;focus.mjs&#45;&gt;src/graph&#45;utl/match&#45;facade.mjs</title>
<path fill="none" stroke="#770000" stroke-width="2" stroke-opacity="0.466667" d="M440,-443.88C440,-441.31 440,-439.21 440,-439.21 440,-439.21 549.8,-439.21 549.8,-439.21"/>
<polygon fill="#770000" fill-opacity="0.466667" stroke="#770000" stroke-width="2" stroke-opacity="0.466667" points="549.8,-441.31 555.8,-439.21 549.8,-437.11 549.8,-441.31"/>
</g>
<!-- src/graph&#45;utl/compare.mjs -->
<g id="node4" class="node">
<title>src/graph&#45;utl/compare.mjs</title>
<g id="a_node4"><a xlink:href="https://github.com/sverweij/dependency-cruiser/blob/main/src/graph-utl/compare.mjs" xlink:title="compare.mjs">
<path fill="#ffcccc" stroke="black" d="M631.21,-371.88C631.21,-371.88 574.54,-371.88 574.54,-371.88 571.58,-371.88 568.62,-368.92 568.62,-365.96 568.62,-365.96 568.62,-360.04 568.62,-360.04 568.62,-357.08 571.58,-354.12 574.54,-354.12 574.54,-354.12 631.21,-354.12 631.21,-354.12 634.17,-354.12 637.12,-357.08 637.12,-360.04 637.12,-360.04 637.12,-365.96 637.12,-365.96 637.12,-368.92 634.17,-371.88 631.21,-371.88"/>
<text text-anchor="start" x="576.62" y="-359.32" font-family="Helvetica,sans-Serif" font-size="9.00">compare.mjs</text>
</a>
</g>
</g>
<!-- src/graph&#45;utl/consolidate&#45;module&#45;dependencies.mjs -->
<g id="node5" class="node">
<title>src/graph&#45;utl/consolidate&#45;module&#45;dependencies.mjs</title>
<g id="a_node5"><a xlink:href="https://github.com/sverweij/dependency-cruiser/blob/main/src/graph-utl/consolidate-module-dependencies.mjs" xlink:title="consolidate&#45;module&#45;dependencies.mjs">
<path fill="#ffcccc" stroke="black" d="M520.83,-371.88C520.83,-371.88 357.67,-371.88 357.67,-371.88 354.71,-371.88 351.75,-368.92 351.75,-365.96 351.75,-365.96 351.75,-360.04 351.75,-360.04 351.75,-357.08 354.71,-354.12 357.67,-354.12 357.67,-354.12 520.83,-354.12 520.83,-354.12 523.79,-354.12 526.75,-357.08 526.75,-360.04 526.75,-360.04 526.75,-365.96 526.75,-365.96 526.75,-368.92 523.79,-371.88 520.83,-371.88"/>
<text text-anchor="start" x="359.75" y="-359.32" font-family="Helvetica,sans-Serif" font-size="9.00">consolidate&#45;module&#45;dependencies.mjs</text>
</a>
</g>
</g>
<!-- src/graph&#45;utl/consolidate&#45;module&#45;dependencies.mjs&#45;&gt;src/graph&#45;utl/compare.mjs -->
<g id="edge3" class="edge">
<title>src/graph&#45;utl/consolidate&#45;module&#45;dependencies.mjs&#45;&gt;src/graph&#45;utl/compare.mjs</title>
<path fill="none" stroke="#770000" stroke-width="2" stroke-opacity="0.466667" d="M526.81,-363C526.81,-363 559.36,-363 559.36,-363"/>
<polygon fill="#770000" fill-opacity="0.466667" stroke="#770000" stroke-width="2" stroke-opacity="0.466667" points="559.36,-365.1 565.36,-363 559.36,-360.9 559.36,-365.1"/>
</g>
<!-- src/graph&#45;utl/consolidate&#45;modules.mjs -->
<g id="node6" class="node">
<title>src/graph&#45;utl/consolidate&#45;modules.mjs</title>
<g id="a_node6"><a xlink:href="https://github.com/sverweij/dependency-cruiser/blob/main/src/graph-utl/consolidate-modules.mjs" xlink:title="consolidate&#45;modules.mjs">
<path fill="#ffcccc" stroke="black" d="M492.33,-401.88C492.33,-401.88 386.17,-401.88 386.17,-401.88 383.21,-401.88 380.25,-398.92 380.25,-395.96 380.25,-395.96 380.25,-390.04 380.25,-390.04 380.25,-387.08 383.21,-384.12 386.17,-384.12 386.17,-384.12 492.33,-384.12 492.33,-384.12 495.29,-384.12 498.25,-387.08 498.25,-390.04 498.25,-390.04 498.25,-395.96 498.25,-395.96 498.25,-398.92 495.29,-401.88 492.33,-401.88"/>
<text text-anchor="start" x="388.25" y="-389.32" font-family="Helvetica,sans-Serif" font-size="9.00">consolidate&#45;modules.mjs</text>
</a>
</g>
</g>
<!-- src/graph&#45;utl/consolidate&#45;modules.mjs&#45;&gt;src/graph&#45;utl/compare.mjs -->
<g id="edge4" class="edge">
<title>src/graph&#45;utl/consolidate&#45;modules.mjs&#45;&gt;src/graph&#45;utl/compare.mjs</title>
<path fill="none" stroke="#770000" stroke-width="2" stroke-opacity="0.466667" d="M498.37,-393C545.27,-393 603,-393 603,-393 603,-393 603,-381.16 603,-381.16"/>
<polygon fill="#770000" fill-opacity="0.466667" stroke="#770000" stroke-width="2" stroke-opacity="0.466667" points="605.1,-381.16 603,-375.16 600.9,-381.16 605.1,-381.16"/>
</g>
<!-- src/graph&#45;utl/consolidate&#45;to&#45;folder.mjs -->
<g id="node7" class="node">
<title>src/graph&#45;utl/consolidate&#45;to&#45;folder.mjs</title>
<g id="a_node7"><a xlink:href="https://github.com/sverweij/dependency-cruiser/blob/main/src/graph-utl/consolidate-to-folder.mjs" xlink:title="consolidate&#45;to&#45;folder.mjs">
<path fill="#ffcccc" stroke="black" d="M330.21,-371.88C330.21,-371.88 225.54,-371.88 225.54,-371.88 222.58,-371.88 219.62,-368.92 219.62,-365.96 219.62,-365.96 219.62,-360.04 219.62,-360.04 219.62,-357.08 222.58,-354.12 225.54,-354.12 225.54,-354.12 330.21,-354.12 330.21,-354.12 333.17,-354.12 336.12,-357.08 336.12,-360.04 336.12,-360.04 336.12,-365.96 336.12,-365.96 336.12,-368.92 333.17,-371.88 330.21,-371.88"/>
<text text-anchor="start" x="227.62" y="-359.32" font-family="Helvetica,sans-Serif" font-size="9.00">consolidate&#45;to&#45;folder.mjs</text>
</a>
</g>
</g>
<!-- src/graph&#45;utl/consolidate&#45;to&#45;folder.mjs&#45;&gt;src/graph&#45;utl/consolidate&#45;module&#45;dependencies.mjs -->
<g id="edge5" class="edge">
<title>src/graph&#45;utl/consolidate&#45;to&#45;folder.mjs&#45;&gt;src/graph&#45;utl/consolidate&#45;module&#45;dependencies.mjs</title>
<path fill="none" stroke="#770000" stroke-width="2" stroke-opacity="0.466667" d="M336.59,-360.04C336.59,-360.04 342.46,-360.04 342.46,-360.04"/>
<polygon fill="#770000" fill-opacity="0.466667" stroke="#770000" stroke-width="2" stroke-opacity="0.466667" points="342.46,-362.14 348.46,-360.04 342.46,-357.94 342.46,-362.14"/>
</g>
<!-- src/graph&#45;utl/consolidate&#45;to&#45;folder.mjs&#45;&gt;src/graph&#45;utl/consolidate&#45;modules.mjs -->
<g id="edge6" class="edge">
<title>src/graph&#45;utl/consolidate&#45;to&#45;folder.mjs&#45;&gt;src/graph&#45;utl/consolidate&#45;modules.mjs</title>
<path fill="none" stroke="#770000" stroke-width="2" stroke-opacity="0.466667" d="M336.53,-365.96C342.26,-365.96 346,-365.96 346,-365.96 346,-365.96 346,-393 346,-393 346,-393 370.93,-393 370.93,-393"/>
<polygon fill="#770000" fill-opacity="0.466667" stroke="#770000" stroke-width="2" stroke-opacity="0.466667" points="370.93,-395.1 376.93,-393 370.93,-390.9 370.93,-395.1"/>
</g>
<!-- src/graph&#45;utl/consolidate&#45;to&#45;pattern.mjs -->
<g id="node8" class="node">
<title>src/graph&#45;utl/consolidate&#45;to&#45;pattern.mjs</title>
<g id="a_node8"><a xlink:href="https://github.com/sverweij/dependency-cruiser/blob/main/src/graph-utl/consolidate-to-pattern.mjs" xlink:title="consolidate&#45;to&#45;pattern.mjs">
<path fill="#ffcccc" stroke="black" d="M332.83,-431.88C332.83,-431.88 222.92,-431.88 222.92,-431.88 219.96,-431.88 217,-428.92 217,-425.96 217,-425.96 217,-420.04 217,-420.04 217,-417.08 219.96,-414.12 222.92,-414.12 222.92,-414.12 332.83,-414.12 332.83,-414.12 335.79,-414.12 338.75,-417.08 338.75,-420.04 338.75,-420.04 338.75,-425.96 338.75,-425.96 338.75,-428.92 335.79,-431.88 332.83,-431.88"/>
<text text-anchor="start" x="225" y="-419.32" font-family="Helvetica,sans-Serif" font-size="9.00">consolidate&#45;to&#45;pattern.mjs</text>
</a>
</g>
</g>
<!-- src/graph&#45;utl/consolidate&#45;to&#45;pattern.mjs&#45;&gt;src/graph&#45;utl/consolidate&#45;module&#45;dependencies.mjs -->
<g id="edge7" class="edge">
<title>src/graph&#45;utl/consolidate&#45;to&#45;pattern.mjs&#45;&gt;src/graph&#45;utl/consolidate&#45;module&#45;dependencies.mjs</title>
<path fill="none" stroke="#770000" stroke-width="2" stroke-opacity="0.466667" d="M339.08,-417.79C354.12,-417.79 366,-417.79 366,-417.79 366,-417.79 366,-381.05 366,-381.05"/>
<polygon fill="#770000" fill-opacity="0.466667" stroke="#770000" stroke-width="2" stroke-opacity="0.466667" points="368.1,-381.05 366,-375.05 363.9,-381.05 368.1,-381.05"/>
</g>
<!-- src/graph&#45;utl/consolidate&#45;to&#45;pattern.mjs&#45;&gt;src/graph&#45;utl/consolidate&#45;modules.mjs -->
<g id="edge8" class="edge">
<title>src/graph&#45;utl/consolidate&#45;to&#45;pattern.mjs&#45;&gt;src/graph&#45;utl/consolidate&#45;modules.mjs</title>
<path fill="none" stroke="#770000" stroke-width="2" stroke-opacity="0.466667" d="M338.95,-421.46C366.08,-421.46 392,-421.46 392,-421.46 392,-421.46 392,-411.32 392,-411.32"/>
<polygon fill="#770000" fill-opacity="0.466667" stroke="#770000" stroke-width="2" stroke-opacity="0.466667" points="394.1,-411.32 392,-405.32 389.9,-411.32 394.1,-411.32"/>
</g>
<!-- src/graph&#45;utl/filter&#45;bank.mjs -->
<g id="node9" class="node">
<title>src/graph&#45;utl/filter&#45;bank.mjs</title>
<g id="a_node9"><a xlink:href="https://github.com/sverweij/dependency-cruiser/blob/main/src/graph-utl/filter-bank.mjs" xlink:title="filter&#45;bank.mjs">
<path fill="#ffcccc" stroke="black" d="M308.46,-461.88C308.46,-461.88 247.29,-461.88 247.29,-461.88 244.33,-461.88 241.38,-458.92 241.38,-455.96 241.38,-455.96 241.38,-450.04 241.38,-450.04 241.38,-447.08 244.33,-444.12 247.29,-444.12 247.29,-444.12 308.46,-444.12 308.46,-444.12 311.42,-444.12 314.38,-447.08 314.38,-450.04 314.38,-450.04 314.38,-455.96 314.38,-455.96 314.38,-458.92 311.42,-461.88 308.46,-461.88"/>
<text text-anchor="start" x="249.38" y="-449.32" font-family="Helvetica,sans-Serif" font-size="9.00">filter&#45;bank.mjs</text>
</a>
</g>
</g>
<!-- src/graph&#45;utl/filter&#45;bank.mjs&#45;&gt;src/graph&#45;utl/add&#45;focus.mjs -->
<g id="edge9" class="edge">
<title>src/graph&#45;utl/filter&#45;bank.mjs&#45;&gt;src/graph&#45;utl/add&#45;focus.mjs</title>
<path fill="none" stroke="#770000" stroke-width="2" stroke-opacity="0.466667" d="M314.49,-453C314.49,-453 393.5,-453 393.5,-453"/>
<polygon fill="#770000" fill-opacity="0.466667" stroke="#770000" stroke-width="2" stroke-opacity="0.466667" points="393.5,-455.1 399.5,-453 393.5,-450.9 393.5,-455.1"/>
</g>
<!-- src/graph&#45;utl/filter&#45;bank.mjs&#45;&gt;src/graph&#45;utl/indexed&#45;module&#45;graph.mjs -->
<g id="edge10" class="edge">
<title>src/graph&#45;utl/filter&#45;bank.mjs&#45;&gt;src/graph&#45;utl/indexed&#45;module&#45;graph.mjs</title>
<path fill="none" stroke="#770000" stroke-width="2" stroke-opacity="0.466667" d="M278,-462.32C278,-465.43 278,-468.12 278,-468.12 278,-468.12 530.46,-468.12 530.46,-468.12"/>
<polygon fill="#770000" fill-opacity="0.466667" stroke="#770000" stroke-width="2" stroke-opacity="0.466667" points="530.46,-470.23 536.46,-468.12 530.46,-466.03 530.46,-470.23"/>
</g>
<!-- src/graph&#45;utl/filter&#45;bank.mjs&#45;&gt;src/graph&#45;utl/match&#45;facade.mjs -->
<g id="edge11" class="edge">
<title>src/graph&#45;utl/filter&#45;bank.mjs&#45;&gt;src/graph&#45;utl/match&#45;facade.mjs</title>
<path fill="none" stroke="#770000" stroke-width="2" stroke-opacity="0.466667" d="M278,-443.86C278,-439.64 278,-435.54 278,-435.54 278,-435.54 549.38,-435.54 549.38,-435.54"/>
<polygon fill="#770000" fill-opacity="0.466667" stroke="#770000" stroke-width="2" stroke-opacity="0.466667" points="549.38,-437.64 555.38,-435.54 549.38,-433.44 549.38,-437.64"/>
</g>
<!-- src/graph&#45;utl/rule&#45;set.mjs -->
<g id="node10" class="node">
<title>src/graph&#45;utl/rule&#45;set.mjs</title>
<g id="a_node10"><a xlink:href="https://github.com/sverweij/dependency-cruiser/blob/main/src/graph-utl/rule-set.mjs" xlink:title="rule&#45;set.mjs">
<path fill="#ffcccc" stroke="black" d="M303.58,-491.88C303.58,-491.88 252.17,-491.88 252.17,-491.88 249.21,-491.88 246.25,-488.92 246.25,-485.96 246.25,-485.96 246.25,-480.04 246.25,-480.04 246.25,-477.08 249.21,-474.12 252.17,-474.12 252.17,-474.12 303.58,-474.12 303.58,-474.12 306.54,-474.12 309.5,-477.08 309.5,-480.04 309.5,-480.04 309.5,-485.96 309.5,-485.96 309.5,-488.92 306.54,-491.88 303.58,-491.88"/>
<text text-anchor="start" x="254.25" y="-479.32" font-family="Helvetica,sans-Serif" font-size="9.00">rule&#45;set.mjs</text>
</a>
</g>
</g>
<!-- src/graph&#45;utl/strip&#45;self&#45;transitions.mjs -->
<g id="node11" class="node">
<title>src/graph&#45;utl/strip&#45;self&#45;transitions.mjs</title>
<g id="a_node11"><a xlink:href="https://github.com/sverweij/dependency-cruiser/blob/main/src/graph-utl/strip-self-transitions.mjs" xlink:title="strip&#45;self&#45;transitions.mjs">
<path fill="#ffcccc" stroke="black" d="M327.96,-401.88C327.96,-401.88 227.79,-401.88 227.79,-401.88 224.83,-401.88 221.88,-398.92 221.88,-395.96 221.88,-395.96 221.88,-390.04 221.88,-390.04 221.88,-387.08 224.83,-384.12 227.79,-384.12 227.79,-384.12 327.96,-384.12 327.96,-384.12 330.92,-384.12 333.88,-387.08 333.88,-390.04 333.88,-390.04 333.88,-395.96 333.88,-395.96 333.88,-398.92 330.92,-401.88 327.96,-401.88"/>
<text text-anchor="start" x="229.88" y="-389.32" font-family="Helvetica,sans-Serif" font-size="9.00">strip&#45;self&#45;transitions.mjs</text>
</a>
</g>
</g>
<!-- src/report/anon -->
<g id="node12" class="node">
<title>src/report/anon</title>
<g id="a_node12"><a xlink:href="https://github.com/sverweij/dependency-cruiser/blob/main/src/report/anon" xlink:title="anon">
<polygon fill="#ffccff" stroke="black" points="88.62,-311.88 36.6,-311.88 34.62,-309.9 34.62,-294.12 86.65,-294.12 88.62,-296.1 88.62,-311.88"/>
<polyline fill="none" stroke="black" points="86.65,-309.9 34.62,-309.9"/>
<polyline fill="none" stroke="black" points="86.65,-309.9 86.65,-294.12"/>
<polyline fill="none" stroke="black" points="86.65,-309.9 88.62,-311.88"/>
<text text-anchor="start" x="51.12" y="-299.32" font-family="Helvetica,sans-Serif" font-size="9.00">anon</text>
</a>
</g>
</g>
<!-- src/report/azure&#45;devops.mjs -->
<g id="node13" class="node">
<title>src/report/azure&#45;devops.mjs</title>
<g id="a_node13"><a xlink:href="https://github.com/sverweij/dependency-cruiser/blob/main/src/report/azure-devops.mjs" xlink:title="azure&#45;devops.mjs">
<path fill="#ffccff" stroke="black" d="M195.08,-251.88C195.08,-251.88 118.17,-251.88 118.17,-251.88 115.21,-251.88 112.25,-248.92 112.25,-245.96 112.25,-245.96 112.25,-240.04 112.25,-240.04 112.25,-237.08 115.21,-234.12 118.17,-234.12 118.17,-234.12 195.08,-234.12 195.08,-234.12 198.04,-234.12 201,-237.08 201,-240.04 201,-240.04 201,-245.96 201,-245.96 201,-248.92 198.04,-251.88 195.08,-251.88"/>
<text text-anchor="start" x="120.25" y="-239.32" font-family="Helvetica,sans-Serif" font-size="9.00">azure&#45;devops.mjs</text>
</a>
</g>
</g>
<!-- src/report/utl -->
<g id="node14" class="node">
<title>src/report/utl</title>
<g id="a_node14"><a xlink:href="https://github.com/sverweij/dependency-cruiser/blob/main/src/report/utl" xlink:title="utl">
<polygon fill="#ffccff" stroke="black" points="304.88,-206.88 252.85,-206.88 250.88,-204.9 250.88,-189.12 302.9,-189.12 304.88,-191.1 304.88,-206.88"/>
<polyline fill="none" stroke="black" points="302.9,-204.9 250.88,-204.9"/>
<polyline fill="none" stroke="black" points="302.9,-204.9 302.9,-189.12"/>
<polyline fill="none" stroke="black" points="302.9,-204.9 304.88,-206.88"/>
<text text-anchor="start" x="273" y="-194.32" font-family="Helvetica,sans-Serif" font-size="9.00">utl</text>
</a>
</g>
</g>
<!-- src/report/azure&#45;devops.mjs&#45;&gt;src/report/utl -->
<g id="edge12" class="edge">
<title>src/report/azure&#45;devops.mjs&#45;&gt;src/report/utl</title>
<path fill="none" stroke="#ff00ff" stroke-width="2" stroke-opacity="0.466667" d="M196,-233.69C196,-221.34 196,-201.06 196,-201.06 196,-201.06 241.61,-201.06 241.61,-201.06"/>
<polygon fill="#ff00ff" fill-opacity="0.466667" stroke="#ff00ff" stroke-width="2" stroke-opacity="0.466667" points="241.61,-203.16 247.61,-201.06 241.61,-198.96 241.61,-203.16"/>
</g>
<!-- src/report/baseline.mjs -->
<g id="node15" class="node">
<title>src/report/baseline.mjs</title>
<g id="a_node15"><a xlink:href="https://github.com/sverweij/dependency-cruiser/blob/main/src/report/baseline.mjs" xlink:title="no&#45;orphans">
<path fill="#ffccff" stroke="red" d="M89.58,-281.88C89.58,-281.88 33.67,-281.88 33.67,-281.88 30.71,-281.88 27.75,-278.92 27.75,-275.96 27.75,-275.96 27.75,-270.04 27.75,-270.04 27.75,-267.08 30.71,-264.12 33.67,-264.12 33.67,-264.12 89.58,-264.12 89.58,-264.12 92.54,-264.12 95.5,-267.08 95.5,-270.04 95.5,-270.04 95.5,-275.96 95.5,-275.96 95.5,-278.92 92.54,-281.88 89.58,-281.88"/>
<text text-anchor="start" x="35.75" y="-269.32" font-family="Helvetica,sans-Serif" font-size="9.00" fill="red">baseline.mjs</text>
</a>
</g>
</g>
<!-- src/report/csv.mjs -->
<g id="node16" class="node">
<title>src/report/csv.mjs</title>
<g id="a_node16"><a xlink:href="https://github.com/sverweij/dependency-cruiser/blob/main/src/report/csv.mjs" xlink:title="csv.mjs">
<path fill="#ffccff" stroke="black" d="M177.71,-221.88C177.71,-221.88 135.54,-221.88 135.54,-221.88 132.58,-221.88 129.62,-218.92 129.62,-215.96 129.62,-215.96 129.62,-210.04 129.62,-210.04 129.62,-207.08 132.58,-204.12 135.54,-204.12 135.54,-204.12 177.71,-204.12 177.71,-204.12 180.67,-204.12 183.62,-207.08 183.62,-210.04 183.62,-210.04 183.62,-215.96 183.62,-215.96 183.62,-218.92 180.67,-221.88 177.71,-221.88"/>
<text text-anchor="start" x="141.62" y="-209.32" font-family="Helvetica,sans-Serif" font-size="9.00">csv.mjs</text>
</a>
</g>
</g>
<!-- src/report/csv.mjs&#45;&gt;src/report/utl -->
<g id="edge13" class="edge">
<title>src/report/csv.mjs&#45;&gt;src/report/utl</title>
<path fill="none" stroke="#ff00ff" stroke-width="2" stroke-opacity="0.466667" d="M166,-203.76C166,-200.67 166,-198 166,-198 166,-198 241.51,-198 241.51,-198"/>
<polygon fill="#ff00ff" fill-opacity="0.466667" stroke="#ff00ff" stroke-width="2" stroke-opacity="0.466667" points="241.51,-200.1 247.51,-198 241.51,-195.9 241.51,-200.1"/>
</g>
<!-- src/report/dot -->
<g id="node17" class="node">
<title>src/report/dot</title>
<g id="a_node17"><a xlink:href="https://github.com/sverweij/dependency-cruiser/blob/main/src/report/dot" xlink:title="dot">
<polygon fill="#ffccff" stroke="black" points="183.62,-281.88 131.6,-281.88 129.62,-279.9 129.62,-264.12 181.65,-264.12 183.62,-266.1 183.62,-281.88"/>
<polyline fill="none" stroke="black" points="181.65,-279.9 129.62,-279.9"/>
<polyline fill="none" stroke="black" points="181.65,-279.9 181.65,-264.12"/>
<polyline fill="none" stroke="black" points="181.65,-279.9 183.62,-281.88"/>
<text text-anchor="start" x="150.25" y="-269.32" font-family="Helvetica,sans-Serif" font-size="9.00">dot</text>
</a>
</g>
</g>
<!-- src/report/dot&#45;&gt;src/graph&#45;utl/compare.mjs -->
<g id="edge16" class="edge">
<title>src/report/dot&#45;&gt;src/graph&#45;utl/compare.mjs</title>
<path fill="none" stroke="#770000" stroke-width="2" stroke-opacity="0.466667" d="M183.88,-269.2C280.79,-269.2 603,-269.2 603,-269.2 603,-269.2 603,-344.66 603,-344.66"/>
<polygon fill="#770000" fill-opacity="0.466667" stroke="#770000" stroke-width="2" stroke-opacity="0.466667" points="600.9,-344.66 603,-350.66 605.1,-344.66 600.9,-344.66"/>
</g>
<!-- src/report/dot&#45;&gt;src/graph&#45;utl/consolidate&#45;to&#45;folder.mjs -->
<g id="edge19" class="edge">
<title>src/report/dot&#45;&gt;src/graph&#45;utl/consolidate&#45;to&#45;folder.mjs</title>
<path fill="none" stroke="#770000" stroke-width="2" stroke-opacity="0.466667" d="M183.94,-271.73C206.9,-271.73 236,-271.73 236,-271.73 236,-271.73 236,-344.92 236,-344.92"/>
<polygon fill="#770000" fill-opacity="0.466667" stroke="#770000" stroke-width="2" stroke-opacity="0.466667" points="233.9,-344.92 236,-350.92 238.1,-344.92 233.9,-344.92"/>
</g>
<!-- src/report/dot&#45;&gt;src/graph&#45;utl/consolidate&#45;to&#45;pattern.mjs -->
<g id="edge17" class="edge">
<title>src/report/dot&#45;&gt;src/graph&#45;utl/consolidate&#45;to&#45;pattern.mjs</title>
<path fill="none" stroke="#770000" stroke-width="2" stroke-opacity="0.466667" d="M184.04,-276.8C196.71,-276.8 209,-276.8 209,-276.8 209,-276.8 209,-423 209,-423 209,-423 209.76,-423 209.76,-423"/>
<polygon fill="#770000" fill-opacity="0.466667" stroke="#770000" stroke-width="2" stroke-opacity="0.466667" points="207.63,-425.1 213.63,-423 207.63,-420.9 207.63,-425.1"/>
</g>
<!-- src/report/dot&#45;&gt;src/graph&#45;utl/filter&#45;bank.mjs -->
<g id="edge14" class="edge">
<title>src/report/dot&#45;&gt;src/graph&#45;utl/filter&#45;bank.mjs</title>
<path fill="none" stroke="#770000" stroke-width="2" stroke-opacity="0.466667" d="M183.92,-279.34C194.9,-279.34 205,-279.34 205,-279.34 205,-279.34 205,-453 205,-453 205,-453 232.01,-453 232.01,-453"/>
<polygon fill="#770000" fill-opacity="0.466667" stroke="#770000" stroke-width="2" stroke-opacity="0.466667" points="232.01,-455.1 238.01,-453 232.01,-450.9 232.01,-455.1"/>
</g>
<!-- src/report/dot&#45;&gt;src/graph&#45;utl/strip&#45;self&#45;transitions.mjs -->
<g id="edge18" class="edge">
<title>src/report/dot&#45;&gt;src/graph&#45;utl/strip&#45;self&#45;transitions.mjs</title>
<path fill="none" stroke="#770000" stroke-width="2" stroke-opacity="0.466667" d="M183.82,-274.27C198.24,-274.27 213,-274.27 213,-274.27 213,-274.27 213,-393 213,-393 213,-393 213.85,-393 213.85,-393"/>
<polygon fill="#770000" fill-opacity="0.466667" stroke="#770000" stroke-width="2" stroke-opacity="0.466667" points="212.48,-395.1 218.48,-393 212.48,-390.9 212.48,-395.1"/>
</g>
<!-- src/report/dot&#45;&gt;src/report/utl -->
<g id="edge15" class="edge">
<title>src/report/dot&#45;&gt;src/report/utl</title>
<path fill="none" stroke="#ff00ff" stroke-width="2" stroke-opacity="0.466667" d="M184.12,-266.66C217.38,-266.66 269,-266.66 269,-266.66 269,-266.66 269,-216.26 269,-216.26"/>
<polygon fill="#ff00ff" fill-opacity="0.466667" stroke="#ff00ff" stroke-width="2" stroke-opacity="0.466667" points="271.1,-216.26 269,-210.26 266.9,-216.26 271.1,-216.26"/>
</g>
<!-- src/report/error&#45;html -->
<g id="node18" class="node">
<title>src/report/error&#45;html</title>
<g id="a_node18"><a xlink:href="https://github.com/sverweij/dependency-cruiser/blob/main/src/report/error-html" xlink:title="error&#45;html">
<polygon fill="#ffccff" stroke="black" points="184.5,-131.88 130.72,-131.88 128.75,-129.9 128.75,-114.12 182.53,-114.12 184.5,-116.1 184.5,-131.88"/>
<polyline fill="none" stroke="black" points="182.53,-129.9 128.75,-129.9"/>
<polyline fill="none" stroke="black" points="182.53,-129.9 182.53,-114.12"/>
<polyline fill="none" stroke="black" points="182.53,-129.9 184.5,-131.88"/>
<text text-anchor="start" x="136.75" y="-119.33" font-family="Helvetica,sans-Serif" font-size="9.00">error&#45;html</text>
</a>
</g>
</g>
<!-- src/report/error&#45;html&#45;&gt;src/report/utl -->
<g id="edge20" class="edge">
<title>src/report/error&#45;html&#45;&gt;src/report/utl</title>
<path fill="none" stroke="#ff00ff" stroke-width="2" stroke-opacity="0.466667" d="M184.82,-123C216.93,-123 265,-123 265,-123 265,-123 265,-179.8 265,-179.8"/>
<polygon fill="#ff00ff" fill-opacity="0.466667" stroke="#ff00ff" stroke-width="2" stroke-opacity="0.466667" points="262.9,-179.8 265,-185.8 267.1,-179.8 262.9,-179.8"/>
</g>
<!-- src/report/error&#45;long.mjs -->
<g id="node19" class="node">
<title>src/report/error&#45;long.mjs</title>
<g id="a_node19"><a xlink:href="https://github.com/sverweij/dependency-cruiser/blob/main/src/report/error-long.mjs" xlink:title="error&#45;long.mjs">
<path fill="#ffccff" stroke="black" d="M92.21,-251.88C92.21,-251.88 31.04,-251.88 31.04,-251.88 28.08,-251.88 25.12,-248.92 25.12,-245.96 25.12,-245.96 25.12,-240.04 25.12,-240.04 25.12,-237.08 28.08,-234.12 31.04,-234.12 31.04,-234.12 92.21,-234.12 92.21,-234.12 95.17,-234.12 98.12,-237.08 98.12,-240.04 98.12,-240.04 98.12,-245.96 98.12,-245.96 98.12,-248.92 95.17,-251.88 92.21,-251.88"/>
<text text-anchor="start" x="33.12" y="-239.32" font-family="Helvetica,sans-Serif" font-size="9.00">error&#45;long.mjs</text>
</a>
</g>
</g>
<!-- src/report/error.mjs -->
<g id="node20" class="node">
<title>src/report/error.mjs</title>
<g id="a_node20"><a xlink:href="https://github.com/sverweij/dependency-cruiser/blob/main/src/report/error.mjs" xlink:title="error.mjs">
<path fill="#ffccff" stroke="black" d="M177.71,-311.88C177.71,-311.88 135.54,-311.88 135.54,-311.88 132.58,-311.88 129.62,-308.92 129.62,-305.96 129.62,-305.96 129.62,-300.04 129.62,-300.04 129.62,-297.08 132.58,-294.12 135.54,-294.12 135.54,-294.12 177.71,-294.12 177.71,-294.12 180.67,-294.12 183.62,-297.08 183.62,-300.04 183.62,-300.04 183.62,-305.96 183.62,-305.96 183.62,-308.92 180.67,-311.88 177.71,-311.88"/>
<text text-anchor="start" x="138.62" y="-299.32" font-family="Helvetica,sans-Serif" font-size="9.00">error.mjs</text>
</a>
</g>
</g>
<!-- src/report/error&#45;long.mjs&#45;&gt;src/report/error.mjs -->
<g id="edge21" class="edge">
<title>src/report/error&#45;long.mjs&#45;&gt;src/report/error.mjs</title>
<path fill="none" stroke="#ff00ff" stroke-width="2" stroke-opacity="0.466667" d="M98.46,-243C101.82,-243 104,-243 104,-243 104,-243 104,-303 104,-303 104,-303 120.39,-303 120.39,-303"/>
<polygon fill="#ff00ff" fill-opacity="0.466667" stroke="#ff00ff" stroke-width="2" stroke-opacity="0.466667" points="120.39,-305.1 126.39,-303 120.39,-300.9 120.39,-305.1"/>
</g>
<!-- src/report/error.mjs&#45;&gt;src/graph&#45;utl/rule&#45;set.mjs -->
<g id="edge22" class="edge">
<title>src/report/error.mjs&#45;&gt;src/graph&#45;utl/rule&#45;set.mjs</title>
<path fill="none" stroke="#770000" stroke-width="2" stroke-opacity="0.466667" d="M166,-312.17C166,-348.85 166,-483 166,-483 166,-483 236.82,-483 236.82,-483"/>
<polygon fill="#770000" fill-opacity="0.466667" stroke="#770000" stroke-width="2" stroke-opacity="0.466667" points="236.82,-485.1 242.82,-483 236.82,-480.9 236.82,-485.1"/>
</g>
<!-- src/report/error.mjs&#45;&gt;src/report/utl -->
<g id="edge24" class="edge">
<title>src/report/error.mjs&#45;&gt;src/report/utl</title>
<path fill="none" stroke="#ff00ff" stroke-width="2" stroke-opacity="0.466667" d="M183.96,-303C222.19,-303 287,-303 287,-303 287,-303 287,-216.32 287,-216.32"/>
<polygon fill="#ff00ff" fill-opacity="0.466667" stroke="#ff00ff" stroke-width="2" stroke-opacity="0.466667" points="289.1,-216.32 287,-210.32 284.9,-216.32 289.1,-216.32"/>
</g>
<!-- src/utl/wrap&#45;and&#45;indent.mjs -->
<g id="node21" class="node">
<title>src/utl/wrap&#45;and&#45;indent.mjs</title>
<g id="a_node21"><a xlink:href="https://github.com/sverweij/dependency-cruiser/blob/main/src/utl/wrap-and-indent.mjs" xlink:title="utl&#45;module&#45;not&#45;shared&#45;enough">
<path fill="#cccccc" stroke="blue" d="M321.96,-551.88C321.96,-551.88 233.79,-551.88 233.79,-551.88 230.83,-551.88 227.88,-548.92 227.88,-545.96 227.88,-545.96 227.88,-540.04 227.88,-540.04 227.88,-537.08 230.83,-534.12 233.79,-534.12 233.79,-534.12 321.96,-534.12 321.96,-534.12 324.92,-534.12 327.88,-537.08 327.88,-540.04 327.88,-540.04 327.88,-545.96 327.88,-545.96 327.88,-548.92 324.92,-551.88 321.96,-551.88"/>
<text text-anchor="start" x="235.88" y="-539.33" font-family="Helvetica,sans-Serif" font-size="9.00" fill="blue">wrap&#45;and&#45;indent.mjs</text>
</a>
</g>
</g>
<!-- src/report/error.mjs&#45;&gt;src/utl/wrap&#45;and&#45;indent.mjs -->
<g id="edge23" class="edge">
<title>src/report/error.mjs&#45;&gt;src/utl/wrap&#45;and&#45;indent.mjs</title>
<path fill="none" stroke="#aaaaaa" stroke-width="2" stroke-opacity="0.466667" d="M148,-312.12C148,-355.95 148,-543 148,-543 148,-543 218.66,-543 218.66,-543"/>
<polygon fill="#aaaaaa" fill-opacity="0.466667" stroke="#aaaaaa" stroke-width="2" stroke-opacity="0.466667" points="218.66,-545.1 224.66,-543 218.66,-540.9 218.66,-545.1"/>
</g>
<!-- src/report/html -->
<g id="node22" class="node">
<title>src/report/html</title>
<g id="a_node22"><a xlink:href="https://github.com/sverweij/dependency-cruiser/blob/main/src/report/html" xlink:title="html">
<polygon fill="#ffccff" stroke="black" points="183.62,-191.88 131.6,-191.88 129.62,-189.9 129.62,-174.12 181.65,-174.12 183.62,-176.1 183.62,-191.88"/>
<polyline fill="none" stroke="black" points="181.65,-189.9 129.62,-189.9"/>
<polyline fill="none" stroke="black" points="181.65,-189.9 181.65,-174.12"/>
<polyline fill="none" stroke="black" points="181.65,-189.9 183.62,-191.88"/>
<text text-anchor="start" x="148" y="-179.32" font-family="Helvetica,sans-Serif" font-size="9.00">html</text>
</a>
</g>
</g>
<!-- src/report/html&#45;&gt;src/report/utl -->
<g id="edge25" class="edge">
<title>src/report/html&#45;&gt;src/report/utl</title>
<path fill="none" stroke="#ff00ff" stroke-width="2" stroke-opacity="0.466667" d="M148,-192.17C148,-193.77 148,-194.94 148,-194.94 148,-194.94 241.65,-194.94 241.65,-194.94"/>
<polygon fill="#ff00ff" fill-opacity="0.466667" stroke="#ff00ff" stroke-width="2" stroke-opacity="0.466667" points="241.65,-197.04 247.65,-194.94 241.65,-192.84 241.65,-197.04"/>
</g>
<!-- src/report/identity.mjs -->
<g id="node23" class="node">
<title>src/report/identity.mjs</title>
<g id="a_node23"><a xlink:href="https://github.com/sverweij/dependency-cruiser/blob/main/src/report/identity.mjs" xlink:title="identity.mjs">
<path fill="#ffccff" stroke="black" d="M86.58,-221.88C86.58,-221.88 36.67,-221.88 36.67,-221.88 33.71,-221.88 30.75,-218.92 30.75,-215.96 30.75,-215.96 30.75,-210.04 30.75,-210.04 30.75,-207.08 33.71,-204.12 36.67,-204.12 36.67,-204.12 86.58,-204.12 86.58,-204.12 89.54,-204.12 92.5,-207.08 92.5,-210.04 92.5,-210.04 92.5,-215.96 92.5,-215.96 92.5,-218.92 89.54,-221.88 86.58,-221.88"/>
<text text-anchor="start" x="38.75" y="-209.32" font-family="Helvetica,sans-Serif" font-size="9.00">identity.mjs</text>
</a>
</g>
</g>
<!-- src/report/index.mjs -->
<g id="node24" class="node">
<title>src/report/index.mjs</title>
<g id="a_node24"><a xlink:href="https://github.com/sverweij/dependency-cruiser/blob/main/src/report/index.mjs" xlink:title="index.mjs">
<path fill="#ffccff" stroke="black" d="M83.21,-191.88C83.21,-191.88 40.04,-191.88 40.04,-191.88 37.08,-191.88 34.12,-188.92 34.12,-185.96 34.12,-185.96 34.12,-180.04 34.12,-180.04 34.12,-177.08 37.08,-174.12 40.04,-174.12 40.04,-174.12 83.21,-174.12 83.21,-174.12 86.17,-174.12 89.12,-177.08 89.12,-180.04 89.12,-180.04 89.12,-185.96 89.12,-185.96 89.12,-188.92 86.17,-191.88 83.21,-191.88"/>
<text text-anchor="start" x="42.12" y="-179.32" font-family="Helvetica,sans-Serif" font-size="9.00">index.mjs</text>
</a>
</g>
</g>
<!-- src/report/plugins.mjs -->
<g id="node25" class="node">
<title>src/report/plugins.mjs</title>
<g id="a_node25"><a xlink:href="https://github.com/sverweij/dependency-cruiser/blob/main/src/report/plugins.mjs" xlink:title="plugins.mjs">
<path fill="#ffccff" stroke="black" d="M181.96,-161.88C181.96,-161.88 131.29,-161.88 131.29,-161.88 128.33,-161.88 125.38,-158.92 125.38,-155.96 125.38,-155.96 125.38,-150.04 125.38,-150.04 125.38,-147.08 128.33,-144.12 131.29,-144.12 131.29,-144.12 181.96,-144.12 181.96,-144.12 184.92,-144.12 187.88,-147.08 187.88,-150.04 187.88,-150.04 187.88,-155.96 187.88,-155.96 187.88,-158.92 184.92,-161.88 181.96,-161.88"/>
<text text-anchor="start" x="133.38" y="-149.32" font-family="Helvetica,sans-Serif" font-size="9.00">plugins.mjs</text>
</a>
</g>
</g>
<!-- src/report/index.mjs&#45;&gt;src/report/plugins.mjs -->
<g id="edge26" class="edge">
<title>src/report/index.mjs&#45;&gt;src/report/plugins.mjs</title>
<path fill="none" stroke="#ff00ff" stroke-width="2" stroke-opacity="0.466667" d="M89.4,-183C99.28,-183 108,-183 108,-183 108,-183 108,-153 108,-153 108,-153 116.01,-153 116.01,-153"/>
<polygon fill="#ff00ff" fill-opacity="0.466667" stroke="#ff00ff" stroke-width="2" stroke-opacity="0.466667" points="116.01,-155.1 122.01,-153 116.01,-150.9 116.01,-155.1"/>
</g>
<!-- src/report/json.mjs -->
<g id="node26" class="node">
<title>src/report/json.mjs</title>
<g id="a_node26"><a xlink:href="https://github.com/sverweij/dependency-cruiser/blob/main/src/report/json.mjs" xlink:title="json.mjs">
<path fill="#ffccff" stroke="black" d="M82.71,-161.88C82.71,-161.88 40.54,-161.88 40.54,-161.88 37.58,-161.88 34.62,-158.92 34.62,-155.96 34.62,-155.96 34.62,-150.04 34.62,-150.04 34.62,-147.08 37.58,-144.12 40.54,-144.12 40.54,-144.12 82.71,-144.12 82.71,-144.12 85.67,-144.12 88.62,-147.08 88.62,-150.04 88.62,-150.04 88.62,-155.96 88.62,-155.96 88.62,-158.92 85.67,-161.88 82.71,-161.88"/>
<text text-anchor="start" x="44.75" y="-149.32" font-family="Helvetica,sans-Serif" font-size="9.00">json.mjs</text>
</a>
</g>
</g>
<!-- src/report/markdown.mjs -->
<g id="node27" class="node">
<title>src/report/markdown.mjs</title>
<g id="a_node27"><a xlink:href="https://github.com/sverweij/dependency-cruiser/blob/main/src/report/markdown.mjs" xlink:title="markdown.mjs">
<path fill="#ffccff" stroke="black" d="M93.33,-131.88C93.33,-131.88 29.92,-131.88 29.92,-131.88 26.96,-131.88 24,-128.92 24,-125.96 24,-125.96 24,-120.04 24,-120.04 24,-117.08 26.96,-114.12 29.92,-114.12 29.92,-114.12 93.33,-114.12 93.33,-114.12 96.29,-114.12 99.25,-117.08 99.25,-120.04 99.25,-120.04 99.25,-125.96 99.25,-125.96 99.25,-128.92 96.29,-131.88 93.33,-131.88"/>
<text text-anchor="start" x="32" y="-119.33" font-family="Helvetica,sans-Serif" font-size="9.00">markdown.mjs</text>
</a>
</g>
</g>
<!-- src/report/markdown.mjs&#45;&gt;src/report/error&#45;html -->
<g id="edge27" class="edge">
<title>src/report/markdown.mjs&#45;&gt;src/report/error&#45;html</title>
<path fill="none" stroke="#ff00ff" stroke-width="2" stroke-opacity="0.466667" d="M99.72,-123C99.72,-123 119.47,-123 119.47,-123"/>
<polygon fill="#ff00ff" fill-opacity="0.466667" stroke="#ff00ff" stroke-width="2" stroke-opacity="0.466667" points="119.47,-125.1 125.47,-123 119.47,-120.9 119.47,-125.1"/>
</g>
<!-- src/report/mermaid.mjs -->
<g id="node28" class="node">
<title>src/report/mermaid.mjs</title>
<g id="a_node28"><a xlink:href="https://github.com/sverweij/dependency-cruiser/blob/main/src/report/mermaid.mjs" xlink:title="no&#45;orphans">
<path fill="#ffccff" stroke="red" d="M89.96,-101.88C89.96,-101.88 33.29,-101.88 33.29,-101.88 30.33,-101.88 27.38,-98.92 27.38,-95.96 27.38,-95.96 27.38,-90.04 27.38,-90.04 27.38,-87.08 30.33,-84.12 33.29,-84.12 33.29,-84.12 89.96,-84.12 89.96,-84.12 92.92,-84.12 95.88,-87.08 95.88,-90.04 95.88,-90.04 95.88,-95.96 95.88,-95.96 95.88,-98.92 92.92,-101.88 89.96,-101.88"/>
<text text-anchor="start" x="35.38" y="-89.33" font-family="Helvetica,sans-Serif" font-size="9.00" fill="red">mermaid.mjs</text>
</a>
</g>
</g>
<!-- src/report/metrics.mjs -->
<g id="node29" class="node">
<title>src/report/metrics.mjs</title>
<g id="a_node29"><a xlink:href="https://github.com/sverweij/dependency-cruiser/blob/main/src/report/metrics.mjs" xlink:title="metrics.mjs">
<path fill="#ffccff" stroke="black" d="M181.58,-101.88C181.58,-101.88 131.67,-101.88 131.67,-101.88 128.71,-101.88 125.75,-98.92 125.75,-95.96 125.75,-95.96 125.75,-90.04 125.75,-90.04 125.75,-87.08 128.71,-84.12 131.67,-84.12 131.67,-84.12 181.58,-84.12 181.58,-84.12 184.54,-84.12 187.5,-87.08 187.5,-90.04 187.5,-90.04 187.5,-95.96 187.5,-95.96 187.5,-98.92 184.54,-101.88 181.58,-101.88"/>
<text text-anchor="start" x="133.75" y="-89.33" font-family="Helvetica,sans-Serif" font-size="9.00">metrics.mjs</text>
</a>
</g>
</g>
<!-- src/report/metrics.mjs&#45;&gt;src/report/utl -->
<g id="edge28" class="edge">
<title>src/report/metrics.mjs&#45;&gt;src/report/utl</title>
<path fill="none" stroke="#ff00ff" stroke-width="2" stroke-opacity="0.466667" d="M187.88,-93C223.84,-93 278,-93 278,-93 278,-93 278,-179.68 278,-179.68"/>
<polygon fill="#ff00ff" fill-opacity="0.466667" stroke="#ff00ff" stroke-width="2" stroke-opacity="0.466667" points="275.9,-179.68 278,-185.68 280.1,-179.68 275.9,-179.68"/>
</g>
<!-- src/report/null.mjs -->
<g id="node30" class="node">
<title>src/report/null.mjs</title>
<g id="a_node30"><a xlink:href="https://github.com/sverweij/dependency-cruiser/blob/main/src/report/null.mjs" xlink:title="null.mjs">
<path fill="#ffccff" stroke="black" d="M82.71,-71.88C82.71,-71.88 40.54,-71.88 40.54,-71.88 37.58,-71.88 34.62,-68.92 34.62,-65.96 34.62,-65.96 34.62,-60.04 34.62,-60.04 34.62,-57.08 37.58,-54.12 40.54,-54.12 40.54,-54.12 82.71,-54.12 82.71,-54.12 85.67,-54.12 88.62,-57.08 88.62,-60.04 88.62,-60.04 88.62,-65.96 88.62,-65.96 88.62,-68.92 85.67,-71.88 82.71,-71.88"/>
<text text-anchor="start" x="45.88" y="-59.33" font-family="Helvetica,sans-Serif" font-size="9.00">null.mjs</text>
</a>
</g>
</g>
<!-- src/report/teamcity.mjs -->
<g id="node31" class="node">
<title>src/report/teamcity.mjs</title>
<g id="a_node31"><a xlink:href="https://github.com/sverweij/dependency-cruiser/blob/main/src/report/teamcity.mjs" xlink:title="teamcity.mjs">
<path fill="#ffccff" stroke="black" d="M183.83,-71.88C183.83,-71.88 129.42,-71.88 129.42,-71.88 126.46,-71.88 123.5,-68.92 123.5,-65.96 123.5,-65.96 123.5,-60.04 123.5,-60.04 123.5,-57.08 126.46,-54.12 129.42,-54.12 129.42,-54.12 183.83,-54.12 183.83,-54.12 186.79,-54.12 189.75,-57.08 189.75,-60.04 189.75,-60.04 189.75,-65.96 189.75,-65.96 189.75,-68.92 186.79,-71.88 183.83,-71.88"/>
<text text-anchor="start" x="131.5" y="-59.33" font-family="Helvetica,sans-Serif" font-size="9.00">teamcity.mjs</text>
</a>
</g>
</g>
<!-- src/report/teamcity.mjs&#45;&gt;src/report/utl -->
<g id="edge29" class="edge">
<title>src/report/teamcity.mjs&#45;&gt;src/report/utl</title>
<path fill="none" stroke="#ff00ff" stroke-width="2" stroke-opacity="0.466667" d="M190.09,-63C230.18,-63 292,-63 292,-63 292,-63 292,-179.72 292,-179.72"/>
<polygon fill="#ff00ff" fill-opacity="0.466667" stroke="#ff00ff" stroke-width="2" stroke-opacity="0.466667" points="289.9,-179.72 292,-185.72 294.1,-179.72 289.9,-179.72"/>
</g>
<!-- src/report/text.mjs -->
<g id="node32" class="node">
<title>src/report/text.mjs</title>
<g id="a_node32"><a xlink:href="https://github.com/sverweij/dependency-cruiser/blob/main/src/report/text.mjs" xlink:title="no&#45;orphans">
<path fill="#ffccff" stroke="red" d="M82.71,-41.88C82.71,-41.88 40.54,-41.88 40.54,-41.88 37.58,-41.88 34.62,-38.92 34.62,-35.96 34.62,-35.96 34.62,-30.04 34.62,-30.04 34.62,-27.08 37.58,-24.12 40.54,-24.12 40.54,-24.12 82.71,-24.12 82.71,-24.12 85.67,-24.12 88.62,-27.08 88.62,-30.04 88.62,-30.04 88.62,-35.96 88.62,-35.96 88.62,-38.92 85.67,-41.88 82.71,-41.88"/>
<text text-anchor="start" x="46.25" y="-29.32" font-family="Helvetica,sans-Serif" font-size="9.00" fill="red">text.mjs</text>
</a>
</g>
</g>
</g>
</svg>
