<svg width="386pt" height="320" viewBox="0 0 385.6 240" xmlns="http://www.w3.org/2000/svg" xmlns:xlink="http://www.w3.org/1999/xlink"><g class="graph"><path fill="#fff" d="M0 240V0h386v240H0z"/><g class="cluster"><path fill="#fff" stroke="#000" stroke-width="2" d="M24 228h338c6 0 12-6 12-12V24c0-6-6-12-12-12H24c-6 0-12 6-12 12v192c0 6 6 12 12 12"/><text text-anchor="middle" x="188.8" y="-211.4" font-family="Helvetica,sans-Serif" font-weight="bold" font-size="9" transform="translate(4 236)">src</text></g><g class="cluster"><path fill="#fff" stroke="#000" stroke-width="2" d="M94 220h260c6 0 12-6 12-12V76c0-6-6-12-12-12H94c-6 0-12 6-12 12v132c0 6 6 12 12 12"/><text text-anchor="middle" x="219.8" y="-159.4" font-family="Helvetica,sans-Serif" font-weight="bold" font-size="9" transform="translate(4 236)">sub</text></g><g class="cluster"><path fill="#fff" stroke="#000" stroke-width="2" d="M231 142h46c6 0 12-6 12-12v-28c0-6-6-12-12-12h-46c-6 0-12 6-12 12v28c0 6 6 12 12 12"/><text text-anchor="middle" x="250" y="-133.4" font-family="Helvetica,sans-Serif" font-weight="bold" font-size="9" transform="translate(4 236)">othersubsub</text></g><g class="cluster"><path fill="#fff" stroke="#000" stroke-width="2" d="M231 212h46c6 0 12-6 12-12v-28c0-6-6-12-12-12h-46c-6 0-12 6-12 12v28c0 6 6 12 12 12"/><text text-anchor="middle" x="250" y="-63.5" font-family="Helvetica,sans-Serif" font-weight="bold" font-size="9" transform="translate(4 236)">subsub</text></g><a xlink:href="src/main.mjs" xlink:title="main.mjs" class="node" transform="translate(4 236)"><path fill="#ffc" stroke="#000" d="M64-163H22c-3 0-6 3-6 6v6c0 3 3 6 6 6h42c3 0 6-3 6-6v-6c0-3-3-6-6-6"/><text x="24.6" y="-150.3" font-family="Helvetica,sans-Serif" font-size="9">main.mjs</text></a><a xlink:href="src/sub/bar.mjs" xlink:title="bar.mjs" class="node" transform="translate(4 236)"><path fill="#ffc" stroke="#000" d="M134-133H92c-3 0-6 3-6 6v6c0 3 3 6 6 6h42c3 0 6-3 6-6v-6c0-3-3-6-6-6"/><text x="98" y="-120.3" font-family="Helvetica,sans-Serif" font-size="9">bar.mjs</text></a><g class="edge" stroke="#000" stroke-width="2" stroke-opacity=".2"><path fill="none" d="M47 91v21h34"/><path fill-opacity=".2" d="m81 110 6 2-6 2v-4z"/></g><a xlink:href="src/utensils.mjs" xlink:title="utensils.mjs" class="node" transform="translate(4 236)"><path fill="#ffc" stroke="#000" d="M351-198h-52c-3 0-6 3-6 6v6c0 3 3 6 6 6h52c3 0 6-3 6-6v-6c0-3-3-6-6-6"/><text x="301" y="-185.3" font-family="Helvetica,sans-Serif" font-size="9">utensils.mjs</text></a><g class="edge" stroke="#000" stroke-width="2" stroke-opacity=".2"><path fill="none" d="M47 73V43h241"/><path fill-opacity=".2" d="m288 40 6 3-6 2v-5z"/></g><a xlink:href="src/sub/foo.mjs" xlink:title="foo.mjs" class="node" transform="translate(4 236)"><path fill="#ffc" stroke="#000" d="M201-120h-42c-3 0-6 3-6 6v6c0 3 3 6 6 6h42c3 0 6-3 6-6v-6c0-3-3-6-6-6"/><text x="165.4" y="-107.3" font-family="Helvetica,sans-Serif" font-size="9">foo.mjs</text></a><g class="edge" stroke="#000" stroke-width="2" stroke-opacity=".2"><path fill="none" d="M144 110h31"/><path fill-opacity=".2" d="m177 107-2 6-2-6h4z"/></g><g class="edge" transform="translate(4 236)"><a xlink:title="no-ancestors"><path fill="none" stroke="red" stroke-width="2" d="M189-120v-69h95"/><path fill="red" stroke="red" stroke-width="2" d="m284-191 6 2-6 2v-4z"/></a><text text-anchor="middle" x="175.4" y="-180.4" font-family="Helvetica,sans-Serif" font-size="9" fill="red">no-ancestors</text></g><a xlink:href="src/sub/othersubsub/qux.mjs" xlink:title="qux.mjs" class="node" transform="translate(4 236)"><path fill="#ffc" stroke="#000" d="M271-120h-42c-3 0-6 3-6 6v6c0 3 3 6 6 6h42c3 0 6-3 6-6v-6c0-3-3-6-6-6"/><text x="234.3" y="-107.3" font-family="Helvetica,sans-Serif" font-size="9">qux.mjs</text></a><g class="edge" stroke="#000" stroke-width="2" stroke-opacity=".2"><path fill="none" d="M211 125h7"/><path fill-opacity=".2" d="m218 123 6 2-6 2v-4z"/></g><a xlink:href="src/sub/subsub/baz.mjs" xlink:title="baz.mjs" class="node" transform="translate(4 236)"><path fill="#ffc" stroke="#000" d="M271-50h-42c-3 0-6 3-6 6v6c0 3 3 6 6 6h42c3 0 6-3 6-6v-6c0-3-3-6-6-6"/><text x="234.3" y="-37.3" font-family="Helvetica,sans-Serif" font-size="9">baz.mjs</text></a><g class="edge" stroke="#000" stroke-width="2" stroke-opacity=".2"><path fill="none" d="M175 134v61h43"/><path fill-opacity=".2" d="m218 193 6 2-6 2v-4z"/></g><a xlink:href="src/sub/subutl.mjs" xlink:title="subutl.mjs" class="node" transform="translate(4 236)"><path fill="#ffc" stroke="#000" d="M348-72h-46c-3 0-6 3-6 6v6c0 3 3 6 6 6h46c3 0 6-3 6-6v-6c0-3-3-6-6-6"/><text x="304.4" y="-59.3" font-family="Helvetica,sans-Serif" font-size="9">subutl.mjs</text></a><g class="edge" stroke="#000" stroke-width="2" stroke-opacity=".2"><path fill="none" d="M193 134v36h98"/><path fill-opacity=".2" d="m291 168 6 2-6 2v-4z"/></g><g class="edge" transform="translate(4 236)"><a xlink:title="no-ancestors"><path fill="none" stroke="red" stroke-width="2" d="M250-120v-65h34"/><path fill="red" stroke="red" stroke-width="2" d="m284-187 6 2-6 3v-5z"/></a><text text-anchor="middle" x="276.6" y="-160.8" font-family="Helvetica,sans-Serif" font-size="9" fill="red">no-ancestors</text></g><g class="edge" transform="translate(4 236)"><a xlink:title="no-ancestors"><path fill="none" stroke="red" stroke-width="2" d="M250-50v-10h37"/><path fill="red" stroke="red" stroke-width="2" d="m287-62 6 2-6 2v-4z"/></a><text text-anchor="middle" x="237" y="-51.5" font-family="Helvetica,sans-Serif" font-size="9" fill="red">no-ancestors</text></g></g></svg>