<?xml version="1.0" encoding="UTF-8" standalone="no"?>
<!DOCTYPE svg PUBLIC "-//W3C//DTD SVG 1.1//EN"
 "http://www.w3.org/Graphics/SVG/1.1/DTD/svg11.dtd">
<!-- Generated by graphviz version 2.44.1 (20200629.0846)
 -->
<!-- Title: dependency&#45;cruiser output Pages: 1 -->
<svg width="1006pt" height="204pt"
 viewBox="0.00 0.00 1006.00 204.00" xmlns="http://www.w3.org/2000/svg" xmlns:xlink="http://www.w3.org/1999/xlink">
<g id="graph0" class="graph" transform="scale(1 1) rotate(0) translate(4 200)">
<title>dependency&#45;cruiser output</title>
<polygon fill="white" stroke="transparent" points="-4,4 -4,-200 1002,-200 1002,4 -4,4"/>
<g id="clust1" class="cluster">
<title>cluster_.</title>
<path fill="#ffffff" stroke="black" stroke-width="2" d="M368,-8C368,-8 652,-8 652,-8 658,-8 664,-14 664,-20 664,-20 664,-116 664,-116 664,-122 658,-128 652,-128 652,-128 368,-128 368,-128 362,-128 356,-122 356,-116 356,-116 356,-20 356,-20 356,-14 362,-8 368,-8"/>
<text text-anchor="middle" x="510" y="-116.8" font-family="Helvetica,sans-Serif" font-weight="bold" font-size="9.00">.</text>
</g>
<g id="clust2" class="cluster">
<title>cluster_./language</title>
<path fill="#ffffff" stroke="black" stroke-width="2" d="M376,-16C376,-16 644,-16 644,-16 650,-16 656,-22 656,-28 656,-28 656,-90 656,-90 656,-96 650,-102 644,-102 644,-102 376,-102 376,-102 370,-102 364,-96 364,-90 364,-90 364,-28 364,-28 364,-22 370,-16 376,-16"/>
<text text-anchor="middle" x="510" y="-90.8" font-family="Helvetica,sans-Serif" font-weight="bold" font-size="9.00">language</text>
</g>
<g id="clust3" class="cluster">
<title>cluster_./language/formatter</title>
<path fill="#ffffff" stroke="black" stroke-width="2" d="M590,-24C590,-24 636,-24 636,-24 642,-24 648,-30 648,-36 648,-36 648,-64 648,-64 648,-70 642,-76 636,-76 636,-76 590,-76 590,-76 584,-76 578,-70 578,-64 578,-64 578,-36 578,-36 578,-30 584,-24 590,-24"/>
<text text-anchor="middle" x="613" y="-64.8" font-family="Helvetica,sans-Serif" font-weight="bold" font-size="9.00">formatter</text>
</g>
<g id="clust4" class="cluster">
<title>cluster_./language/rule</title>
<path fill="#ffffff" stroke="black" stroke-width="2" d="M512,-24C512,-24 558,-24 558,-24 564,-24 570,-30 570,-36 570,-36 570,-64 570,-64 570,-70 564,-76 558,-76 558,-76 512,-76 512,-76 506,-76 500,-70 500,-64 500,-64 500,-36 500,-36 500,-30 506,-24 512,-24"/>
<text text-anchor="middle" x="535" y="-64.8" font-family="Helvetica,sans-Serif" font-weight="bold" font-size="9.00">rule</text>
</g>
<g id="clust5" class="cluster">
<title>cluster_src</title>
<path fill="#ffffff" stroke="black" stroke-width="2" d="M512,-136C512,-136 558,-136 558,-136 564,-136 570,-142 570,-148 570,-148 570,-176 570,-176 570,-182 564,-188 558,-188 558,-188 512,-188 512,-188 506,-188 500,-182 500,-176 500,-176 500,-148 500,-148 500,-142 506,-136 512,-136"/>
<text text-anchor="middle" x="535" y="-176.8" font-family="Helvetica,sans-Serif" font-weight="bold" font-size="9.00">src</text>
</g>
<!-- ./configuration -->
<g id="node1" class="node">
<title>./configuration</title>
<path fill="#ffffcc" stroke="red" d="M64,-50C64,-50 6,-50 6,-50 3,-50 0,-47 0,-44 0,-44 0,-38 0,-38 0,-35 3,-32 6,-32 6,-32 64,-32 64,-32 67,-32 70,-35 70,-38 70,-38 70,-44 70,-44 70,-47 67,-50 64,-50"/>
<text text-anchor="middle" x="35" y="-38.8" font-family="Helvetica,sans-Serif" font-size="9.00" fill="red">configuration</text>
</g>
<!-- ./enableDisableRules -->
<g id="node2" class="node">
<title>./enableDisableRules</title>
<path fill="#ffffcc" stroke="red" d="M177.5,-50C177.5,-50 88.5,-50 88.5,-50 85.5,-50 82.5,-47 82.5,-44 82.5,-44 82.5,-38 82.5,-38 82.5,-35 85.5,-32 88.5,-32 88.5,-32 177.5,-32 177.5,-32 180.5,-32 183.5,-35 183.5,-38 183.5,-38 183.5,-44 183.5,-44 183.5,-47 180.5,-50 177.5,-50"/>
<text text-anchor="middle" x="133" y="-38.8" font-family="Helvetica,sans-Serif" font-size="9.00" fill="red">enableDisableRules</text>
</g>
<!-- ./formatterLoader -->
<g id="node3" class="node">
<title>./formatterLoader</title>
<path fill="#ffffcc" stroke="red" d="M272,-50C272,-50 202,-50 202,-50 199,-50 196,-47 196,-44 196,-44 196,-38 196,-38 196,-35 199,-32 202,-32 202,-32 272,-32 272,-32 275,-32 278,-35 278,-38 278,-38 278,-44 278,-44 278,-47 275,-50 272,-50"/>
<text text-anchor="middle" x="237" y="-38.8" font-family="Helvetica,sans-Serif" font-size="9.00" fill="red">formatterLoader</text>
</g>
<!-- ./formatters -->
<g id="node4" class="node">
<title>./formatters</title>
<path fill="#ffffcc" stroke="red" d="M341.5,-50C341.5,-50 296.5,-50 296.5,-50 293.5,-50 290.5,-47 290.5,-44 290.5,-44 290.5,-38 290.5,-38 290.5,-35 293.5,-32 296.5,-32 296.5,-32 341.5,-32 341.5,-32 344.5,-32 347.5,-35 347.5,-38 347.5,-38 347.5,-44 347.5,-44 347.5,-47 344.5,-50 341.5,-50"/>
<text text-anchor="middle" x="319" y="-38.8" font-family="Helvetica,sans-Serif" font-size="9.00" fill="red">formatters</text>
</g>
<!-- ./language/formatter/formatter -->
<g id="node5" class="node">
<title>./language/formatter/formatter</title>
<path fill="#ffffcc" stroke="red" d="M634,-50C634,-50 592,-50 592,-50 589,-50 586,-47 586,-44 586,-44 586,-38 586,-38 586,-35 589,-32 592,-32 592,-32 634,-32 634,-32 637,-32 640,-35 640,-38 640,-38 640,-44 640,-44 640,-47 637,-50 634,-50"/>
<text text-anchor="middle" x="613" y="-38.8" font-family="Helvetica,sans-Serif" font-size="9.00" fill="red">formatter</text>
</g>
<!-- ./language/rule/rule -->
<g id="node6" class="node">
<title>./language/rule/rule</title>
<path fill="#ffffcc" stroke="red" d="M556,-50C556,-50 514,-50 514,-50 511,-50 508,-47 508,-44 508,-44 508,-38 508,-38 508,-35 511,-32 514,-32 514,-32 556,-32 556,-32 559,-32 562,-35 562,-38 562,-38 562,-44 562,-44 562,-47 559,-50 556,-50"/>
<text text-anchor="middle" x="535" y="-38.8" font-family="Helvetica,sans-Serif" font-size="9.00" fill="red">rule</text>
</g>
<!-- ./language/utils -->
<g id="node7" class="node">
<title>./language/utils</title>
<path fill="#ffffcc" stroke="red" d="M486,-50C486,-50 444,-50 444,-50 441,-50 438,-47 438,-44 438,-44 438,-38 438,-38 438,-35 441,-32 444,-32 444,-32 486,-32 486,-32 489,-32 492,-35 492,-38 492,-38 492,-44 492,-44 492,-47 489,-50 486,-50"/>
<text text-anchor="middle" x="465" y="-38.8" font-family="Helvetica,sans-Serif" font-size="9.00" fill="red">utils</text>
</g>
<!-- ./language/walker -->
<g id="node8" class="node">
<title>./language/walker</title>
<path fill="#ffffcc" stroke="red" d="M420,-50C420,-50 378,-50 378,-50 375,-50 372,-47 372,-44 372,-44 372,-38 372,-38 372,-35 375,-32 378,-32 378,-32 420,-32 420,-32 423,-32 426,-35 426,-38 426,-38 426,-44 426,-44 426,-47 423,-50 420,-50"/>
<text text-anchor="middle" x="399" y="-38.8" font-family="Helvetica,sans-Serif" font-size="9.00" fill="red">walker</text>
</g>
<!-- ./linter -->
<g id="node9" class="node">
<title>./linter</title>
<path fill="#ffffcc" stroke="red" d="M720,-50C720,-50 678,-50 678,-50 675,-50 672,-47 672,-44 672,-44 672,-38 672,-38 672,-35 675,-32 678,-32 678,-32 720,-32 720,-32 723,-32 726,-35 726,-38 726,-38 726,-44 726,-44 726,-47 723,-50 720,-50"/>
<text text-anchor="middle" x="699" y="-38.8" font-family="Helvetica,sans-Serif" font-size="9.00" fill="red">linter</text>
</g>
<!-- ./ruleLoader -->
<g id="node10" class="node">
<title>./ruleLoader</title>
<path fill="#ffffcc" stroke="red" d="M794,-50C794,-50 744,-50 744,-50 741,-50 738,-47 738,-44 738,-44 738,-38 738,-38 738,-35 741,-32 744,-32 744,-32 794,-32 794,-32 797,-32 800,-35 800,-38 800,-38 800,-44 800,-44 800,-47 797,-50 794,-50"/>
<text text-anchor="middle" x="769" y="-38.8" font-family="Helvetica,sans-Serif" font-size="9.00" fill="red">ruleLoader</text>
</g>
<!-- ./rules -->
<g id="node11" class="node">
<title>./rules</title>
<path fill="#ffffcc" stroke="red" d="M860,-50C860,-50 818,-50 818,-50 815,-50 812,-47 812,-44 812,-44 812,-38 812,-38 812,-35 815,-32 818,-32 818,-32 860,-32 860,-32 863,-32 866,-35 866,-38 866,-38 866,-44 866,-44 866,-47 863,-50 860,-50"/>
<text text-anchor="middle" x="839" y="-38.8" font-family="Helvetica,sans-Serif" font-size="9.00" fill="red">rules</text>
</g>
<!-- ./test -->
<g id="node12" class="node">
<title>./test</title>
<path fill="#ffffcc" stroke="red" d="M926,-50C926,-50 884,-50 884,-50 881,-50 878,-47 878,-44 878,-44 878,-38 878,-38 878,-35 881,-32 884,-32 884,-32 926,-32 926,-32 929,-32 932,-35 932,-38 932,-38 932,-44 932,-44 932,-47 929,-50 926,-50"/>
<text text-anchor="middle" x="905" y="-38.8" font-family="Helvetica,sans-Serif" font-size="9.00" fill="red">test</text>
</g>
<!-- ./utils -->
<g id="node13" class="node">
<title>./utils</title>
<path fill="#ffffcc" stroke="red" d="M992,-50C992,-50 950,-50 950,-50 947,-50 944,-47 944,-44 944,-44 944,-38 944,-38 944,-35 947,-32 950,-32 950,-32 992,-32 992,-32 995,-32 998,-35 998,-38 998,-38 998,-44 998,-44 998,-47 995,-50 992,-50"/>
<text text-anchor="middle" x="971" y="-38.8" font-family="Helvetica,sans-Serif" font-size="9.00" fill="red">utils</text>
</g>
<!-- src/index.ts -->
<g id="node14" class="node">
<title>src/index.ts</title>
<g id="a_node14"><a xlink:href="src/index.ts" xlink:title="index.ts">
<path fill="#ddfeff" stroke="black" d="M556,-162C556,-162 514,-162 514,-162 511,-162 508,-159 508,-156 508,-156 508,-150 508,-150 508,-147 511,-144 514,-144 514,-144 556,-144 556,-144 559,-144 562,-147 562,-150 562,-150 562,-156 562,-156 562,-159 559,-162 556,-162"/>
<text text-anchor="middle" x="535" y="-150.8" font-family="Helvetica,sans-Serif" font-size="9.00">index.ts</text>
</a>
</g>
</g>
<!-- src/index.ts&#45;&gt;./configuration -->
<g id="edge1" class="edge">
<title>src/index.ts&#45;&gt;./configuration</title>
<path fill="none" stroke="#000000" stroke-width="2" stroke-opacity="0.200000" d="M507.76,-159C403.42,-159 35,-159 35,-159 35,-159 35,-56.26 35,-56.26"/>
<polygon fill="#000000" fill-opacity="0.200000" stroke="#000000" stroke-width="2" stroke-opacity="0.200000" points="37.1,-56.26 35,-50.26 32.9,-56.26 37.1,-56.26"/>
</g>
<!-- src/index.ts&#45;&gt;./enableDisableRules -->
<g id="edge2" class="edge">
<title>src/index.ts&#45;&gt;./enableDisableRules</title>
<path fill="none" stroke="#000000" stroke-width="2" stroke-opacity="0.200000" d="M508,-156C417.87,-156 133,-156 133,-156 133,-156 133,-56.02 133,-56.02"/>
<polygon fill="#000000" fill-opacity="0.200000" stroke="#000000" stroke-width="2" stroke-opacity="0.200000" points="135.1,-56.02 133,-50.02 130.9,-56.02 135.1,-56.02"/>
</g>
<!-- src/index.ts&#45;&gt;./formatterLoader -->
<g id="edge3" class="edge">
<title>src/index.ts&#45;&gt;./formatterLoader</title>
<path fill="none" stroke="#000000" stroke-width="2" stroke-opacity="0.200000" d="M507.76,-154C434.2,-154 237,-154 237,-154 237,-154 237,-56.25 237,-56.25"/>
<polygon fill="#000000" fill-opacity="0.200000" stroke="#000000" stroke-width="2" stroke-opacity="0.200000" points="239.1,-56.25 237,-50.25 234.9,-56.25 239.1,-56.25"/>
</g>
<!-- src/index.ts&#45;&gt;./formatters -->
<g id="edge4" class="edge">
<title>src/index.ts&#45;&gt;./formatters</title>
<path fill="none" stroke="#000000" stroke-width="2" stroke-opacity="0.200000" d="M507.64,-151C449.52,-151 319,-151 319,-151 319,-151 319,-56 319,-56"/>
<polygon fill="#000000" fill-opacity="0.200000" stroke="#000000" stroke-width="2" stroke-opacity="0.200000" points="321.1,-56 319,-50 316.9,-56 321.1,-56"/>
</g>
<!-- src/index.ts&#45;&gt;./language/formatter/formatter -->
<g id="edge5" class="edge">
<title>src/index.ts&#45;&gt;./language/formatter/formatter</title>
<path fill="none" stroke="#000000" stroke-width="2" stroke-opacity="0.200000" d="M562.28,-146C584.77,-146 613,-146 613,-146 613,-146 613,-56.32 613,-56.32"/>
<polygon fill="#000000" fill-opacity="0.200000" stroke="#000000" stroke-width="2" stroke-opacity="0.200000" points="615.1,-56.32 613,-50.32 610.9,-56.32 615.1,-56.32"/>
</g>
<!-- src/index.ts&#45;&gt;./language/rule/rule -->
<g id="edge6" class="edge">
<title>src/index.ts&#45;&gt;./language/rule/rule</title>
<path fill="none" stroke="#000000" stroke-width="2" stroke-opacity="0.200000" d="M535,-143.83C535,-143.83 535,-56.29 535,-56.29"/>
<polygon fill="#000000" fill-opacity="0.200000" stroke="#000000" stroke-width="2" stroke-opacity="0.200000" points="537.1,-56.29 535,-50.29 532.9,-56.29 537.1,-56.29"/>
</g>
<!-- src/index.ts&#45;&gt;./language/utils -->
<g id="edge7" class="edge">
<title>src/index.ts&#45;&gt;./language/utils</title>
<path fill="none" stroke="#000000" stroke-width="2" stroke-opacity="0.200000" d="M507.74,-146C488.08,-146 465,-146 465,-146 465,-146 465,-56.32 465,-56.32"/>
<polygon fill="#000000" fill-opacity="0.200000" stroke="#000000" stroke-width="2" stroke-opacity="0.200000" points="467.1,-56.32 465,-50.32 462.9,-56.32 467.1,-56.32"/>
</g>
<!-- src/index.ts&#45;&gt;./language/walker -->
<g id="edge8" class="edge">
<title>src/index.ts&#45;&gt;./language/walker</title>
<path fill="none" stroke="#000000" stroke-width="2" stroke-opacity="0.200000" d="M507.81,-149C468.12,-149 399,-149 399,-149 399,-149 399,-56.21 399,-56.21"/>
<polygon fill="#000000" fill-opacity="0.200000" stroke="#000000" stroke-width="2" stroke-opacity="0.200000" points="401.1,-56.21 399,-50.21 396.9,-56.21 401.1,-56.21"/>
</g>
<!-- src/index.ts&#45;&gt;./linter -->
<g id="edge9" class="edge">
<title>src/index.ts&#45;&gt;./linter</title>
<path fill="none" stroke="#000000" stroke-width="2" stroke-opacity="0.200000" d="M562.08,-149C608.66,-149 699,-149 699,-149 699,-149 699,-56.21 699,-56.21"/>
<polygon fill="#000000" fill-opacity="0.200000" stroke="#000000" stroke-width="2" stroke-opacity="0.200000" points="701.1,-56.21 699,-50.21 696.9,-56.21 701.1,-56.21"/>
</g>
<!-- src/index.ts&#45;&gt;./ruleLoader -->
<g id="edge10" class="edge">
<title>src/index.ts&#45;&gt;./ruleLoader</title>
<path fill="none" stroke="#000000" stroke-width="2" stroke-opacity="0.200000" d="M562.3,-151C624.03,-151 769,-151 769,-151 769,-151 769,-56 769,-56"/>
<polygon fill="#000000" fill-opacity="0.200000" stroke="#000000" stroke-width="2" stroke-opacity="0.200000" points="771.1,-56 769,-50 766.9,-56 771.1,-56"/>
</g>
<!-- src/index.ts&#45;&gt;./rules -->
<g id="edge11" class="edge">
<title>src/index.ts&#45;&gt;./rules</title>
<path fill="none" stroke="#000000" stroke-width="2" stroke-opacity="0.200000" d="M562.25,-154C636.86,-154 839,-154 839,-154 839,-154 839,-56.25 839,-56.25"/>
<polygon fill="#000000" fill-opacity="0.200000" stroke="#000000" stroke-width="2" stroke-opacity="0.200000" points="841.1,-56.25 839,-50.25 836.9,-56.25 841.1,-56.25"/>
</g>
<!-- src/index.ts&#45;&gt;./test -->
<g id="edge12" class="edge">
<title>src/index.ts&#45;&gt;./test</title>
<path fill="none" stroke="#000000" stroke-width="2" stroke-opacity="0.200000" d="M562.21,-156C647.65,-156 905,-156 905,-156 905,-156 905,-56.02 905,-56.02"/>
<polygon fill="#000000" fill-opacity="0.200000" stroke="#000000" stroke-width="2" stroke-opacity="0.200000" points="907.1,-56.02 905,-50.02 902.9,-56.02 907.1,-56.02"/>
</g>
<!-- src/index.ts&#45;&gt;./utils -->
<g id="edge13" class="edge">
<title>src/index.ts&#45;&gt;./utils</title>
<path fill="none" stroke="#000000" stroke-width="2" stroke-opacity="0.200000" d="M562.27,-159C657.72,-159 971,-159 971,-159 971,-159 971,-56.26 971,-56.26"/>
<polygon fill="#000000" fill-opacity="0.200000" stroke="#000000" stroke-width="2" stroke-opacity="0.200000" points="973.1,-56.26 971,-50.26 968.9,-56.26 973.1,-56.26"/>
</g>
</g>
</svg>
