<?xml version="1.0" encoding="UTF-8" standalone="no"?>
<!DOCTYPE svg PUBLIC "-//W3C//DTD SVG 1.1//EN"
 "http://www.w3.org/Graphics/SVG/1.1/DTD/svg11.dtd">
<!-- Generated by graphviz version 6.0.1 (20220911.1526)
 -->
<!-- Title: dependency&#45;cruiser output Pages: 1 -->
<svg width="412pt" height="106pt"
 viewBox="0.00 0.00 412.00 106.00" xmlns="http://www.w3.org/2000/svg" xmlns:xlink="http://www.w3.org/1999/xlink">
<g id="graph0" class="graph" transform="scale(1 1) rotate(0) translate(4 102)">
<title>dependency&#45;cruiser output</title>
<polygon fill="white" stroke="none" points="-4,4 -4,-102 408,-102 408,4 -4,4"/>
<g id="clust1" class="cluster">
<title>cluster_src</title>
<path fill="#ffffff" stroke="black" stroke-width="2" d="M20,-8C20,-8 384,-8 384,-8 390,-8 396,-14 396,-20 396,-20 396,-78 396,-78 396,-84 390,-90 384,-90 384,-90 20,-90 20,-90 14,-90 8,-84 8,-78 8,-78 8,-20 8,-20 8,-14 14,-8 20,-8"/>
<text text-anchor="middle" x="202" y="-78.8" font-family="Helvetica,sans-Serif" font-weight="bold" font-size="9.00">src</text>
</g>
<!-- src/cli.mjs -->
<g id="node1" class="node">
<title>src/cli.mjs</title>
<g id="a_node1"><a xlink:href="vscode://file/${process.cwd()}/src/cli.mjs" xlink:title="cli.mjs">
<path fill="#ffffcc" stroke="black" d="M64,-64C64,-64 22,-64 22,-64 19,-64 16,-61 16,-58 16,-58 16,-52 16,-52 16,-49 19,-46 22,-46 22,-46 64,-46 64,-46 67,-46 70,-49 70,-52 70,-52 70,-58 70,-58 70,-61 67,-64 64,-64"/>
<text text-anchor="start" x="30" y="-52.8" font-family="Helvetica,sans-Serif" font-size="9.00">cli.mjs</text>
</a>
</g>
</g>
<!-- src/main.mjs -->
<g id="node2" class="node">
<title>src/main.mjs</title>
<g id="a_node2"><a xlink:href="vscode://file/${process.cwd()}/src/main.mjs" xlink:title="main.mjs">
<path fill="#ffffcc" stroke="black" d="M182.5,-64C182.5,-64 140.5,-64 140.5,-64 137.5,-64 134.5,-61 134.5,-58 134.5,-58 134.5,-52 134.5,-52 134.5,-49 137.5,-46 140.5,-46 140.5,-46 182.5,-46 182.5,-46 185.5,-46 188.5,-49 188.5,-52 188.5,-52 188.5,-58 188.5,-58 188.5,-61 185.5,-64 182.5,-64"/>
<text text-anchor="start" x="143" y="-52.8" font-family="Helvetica,sans-Serif" font-size="9.00">main.mjs</text>
</a>
</g>
</g>
<!-- src/cli.mjs&#45;&gt;src/main.mjs -->
<g id="edge1" class="edge">
<title>src/cli.mjs&#45;&gt;src/main.mjs</title>
<path fill="none" stroke="#000000" stroke-width="2" stroke-opacity="0.200000" d="M70.19,-55C70.19,-55 128.44,-55 128.44,-55"/>
<polygon fill="#000000" fill-opacity="0.200000" stroke="#000000" stroke-width="2" stroke-opacity="0.200000" points="128.44,-57.1 134.44,-55 128.44,-52.9 128.44,-57.1"/>
</g>
<!-- src/convert&#45;to&#45;change&#45;object.mjs -->
<g id="node3" class="node">
<title>src/convert&#45;to&#45;change&#45;object.mjs</title>
<g id="a_node3"><a xlink:href="vscode://file/${process.cwd()}/src/convert-to-change-object.mjs" xlink:title="convert&#45;to&#45;change&#45;object.mjs">
<path fill="lime" stroke="black" stroke-width="2" d="M382,-49C382,-49 259,-49 259,-49 256,-49 253,-46 253,-43 253,-43 253,-37 253,-37 253,-34 256,-31 259,-31 259,-31 382,-31 382,-31 385,-31 388,-34 388,-37 388,-37 388,-43 388,-43 388,-46 385,-49 382,-49"/>
<text text-anchor="start" x="261" y="-37.8" font-family="Helvetica,sans-Serif" font-size="9.00">convert&#45;to&#45;change&#45;object.mjs</text>
</a>
</g>
</g>
<!-- src/main.mjs&#45;&gt;src/convert&#45;to&#45;change&#45;object.mjs -->
<g id="edge3" class="edge">
<title>src/main.mjs&#45;&gt;src/convert&#45;to&#45;change&#45;object.mjs</title>
<path fill="none" stroke="#000000" stroke-width="2" stroke-opacity="0.200000" d="M162,-45.83C162,-43.68 162,-42 162,-42 162,-42 246.82,-42 246.82,-42"/>
<polygon fill="#000000" fill-opacity="0.200000" stroke="#000000" stroke-width="2" stroke-opacity="0.200000" points="246.82,-44.1 252.82,-42 246.82,-39.9 246.82,-44.1"/>
</g>
<!-- src/convert&#45;to&#45;change&#45;object.spec.mjs -->
<g id="node4" class="node">
<title>src/convert&#45;to&#45;change&#45;object.spec.mjs</title>
<g id="a_node4"><a xlink:href="vscode://file/${process.cwd()}/src/convert-to-change-object.spec.mjs" xlink:title="convert&#45;to&#45;change&#45;object.spec.mjs">
<path fill="#ccccff" stroke="black" d="M234,-34C234,-34 89,-34 89,-34 86,-34 83,-31 83,-28 83,-28 83,-22 83,-22 83,-19 86,-16 89,-16 89,-16 234,-16 234,-16 237,-16 240,-19 240,-22 240,-22 240,-28 240,-28 240,-31 237,-34 234,-34"/>
<text text-anchor="start" x="91" y="-22.8" font-family="Helvetica,sans-Serif" font-size="9.00">convert&#45;to&#45;change&#45;object.spec.mjs</text>
</a>
</g>
</g>
<!-- src/convert&#45;to&#45;change&#45;object.spec.mjs&#45;&gt;src/convert&#45;to&#45;change&#45;object.mjs -->
<g id="edge2" class="edge">
<title>src/convert&#45;to&#45;change&#45;object.spec.mjs&#45;&gt;src/convert&#45;to&#45;change&#45;object.mjs</title>
<path fill="none" stroke="#000000" stroke-width="2" stroke-opacity="0.200000" d="M215,-34.17C215,-36.32 215,-38 215,-38 215,-38 246.79,-38 246.79,-38"/>
<polygon fill="#000000" fill-opacity="0.200000" stroke="#000000" stroke-width="2" stroke-opacity="0.200000" points="246.79,-40.1 252.79,-38 246.79,-35.9 246.79,-40.1"/>
</g>
</g>
</svg>
