<?xml version="1.0" encoding="UTF-8" standalone="no"?>
<!DOCTYPE svg PUBLIC "-//W3C//DTD SVG 1.1//EN"
 "http://www.w3.org/Graphics/SVG/1.1/DTD/svg11.dtd">
<!-- Generated by graphviz version 6.0.1 (20220911.1526)
 -->
<!-- Title: dependency&#45;cruiser output Pages: 1 -->
<svg width="515pt" height="346pt"
 viewBox="0.00 0.00 515.00 346.00" xmlns="http://www.w3.org/2000/svg" xmlns:xlink="http://www.w3.org/1999/xlink">
<g id="graph0" class="graph" transform="scale(1 1) rotate(0) translate(4 342)">
<title>dependency&#45;cruiser output</title>
<polygon fill="white" stroke="none" points="-4,4 -4,-342 511,-342 511,4 -4,4"/>
<g id="clust1" class="cluster">
<title>cluster_src</title>
<path fill="#ffffff" stroke="black" stroke-width="2" d="M31.5,-8C31.5,-8 487,-8 487,-8 493,-8 499,-14 499,-20 499,-20 499,-258 499,-258 499,-264 493,-270 487,-270 487,-270 31.5,-270 31.5,-270 25.5,-270 19.5,-264 19.5,-258 19.5,-258 19.5,-20 19.5,-20 19.5,-14 25.5,-8 31.5,-8"/>
<text text-anchor="middle" x="259.25" y="-258.8" font-family="Helvetica,sans-Serif" font-weight="bold" font-size="9.00">src</text>
</g>
<g id="clust2" class="cluster">
<title>cluster_src/formatters</title>
<path fill="#ffffff" stroke="black" stroke-width="2" d="M151.5,-132C151.5,-132 479,-132 479,-132 485,-132 491,-138 491,-144 491,-144 491,-232 491,-232 491,-238 485,-244 479,-244 479,-244 151.5,-244 151.5,-244 145.5,-244 139.5,-238 139.5,-232 139.5,-232 139.5,-144 139.5,-144 139.5,-138 145.5,-132 151.5,-132"/>
<text text-anchor="middle" x="315.25" y="-232.8" font-family="Helvetica,sans-Serif" font-weight="bold" font-size="9.00">formatters</text>
</g>
<g id="clust3" class="cluster">
<title>cluster_types</title>
<path fill="#ffffff" stroke="black" stroke-width="2" d="M20,-278C20,-278 89,-278 89,-278 95,-278 101,-284 101,-290 101,-290 101,-318 101,-318 101,-324 95,-330 89,-330 89,-330 20,-330 20,-330 14,-330 8,-324 8,-318 8,-318 8,-290 8,-290 8,-284 14,-278 20,-278"/>
<text text-anchor="middle" x="54.5" y="-318.8" font-family="Helvetica,sans-Serif" font-weight="bold" font-size="9.00">types</text>
</g>
<!-- src/cli.mjs -->
<g id="node1" class="node">
<title>src/cli.mjs</title>
<g id="a_node1"><a xlink:href="vscode://file/${process.cwd()}/src/cli.mjs" xlink:title="cli.mjs">
<path fill="#ffffcc" stroke="black" d="M75.5,-94C75.5,-94 33.5,-94 33.5,-94 30.5,-94 27.5,-91 27.5,-88 27.5,-88 27.5,-82 27.5,-82 27.5,-79 30.5,-76 33.5,-76 33.5,-76 75.5,-76 75.5,-76 78.5,-76 81.5,-79 81.5,-82 81.5,-82 81.5,-88 81.5,-88 81.5,-91 78.5,-94 75.5,-94"/>
<text text-anchor="start" x="41.5" y="-82.8" font-family="Helvetica,sans-Serif" font-size="9.00">cli.mjs</text>
</a>
</g>
</g>
<!-- src/main.mjs -->
<g id="node2" class="node">
<title>src/main.mjs</title>
<g id="a_node2"><a xlink:href="vscode://file/${process.cwd()}/src/main.mjs" xlink:title="main.mjs">
<path fill="#ffffcc" stroke="black" d="M208.5,-124C208.5,-124 166.5,-124 166.5,-124 163.5,-124 160.5,-121 160.5,-118 160.5,-118 160.5,-112 160.5,-112 160.5,-109 163.5,-106 166.5,-106 166.5,-106 208.5,-106 208.5,-106 211.5,-106 214.5,-109 214.5,-112 214.5,-112 214.5,-118 214.5,-118 214.5,-121 211.5,-124 208.5,-124"/>
<text text-anchor="start" x="169" y="-112.8" font-family="Helvetica,sans-Serif" font-size="9.00">main.mjs</text>
</a>
</g>
</g>
<!-- src/cli.mjs&#45;&gt;src/main.mjs -->
<g id="edge1" class="edge">
<title>src/cli.mjs&#45;&gt;src/main.mjs</title>
<path fill="none" stroke="#000000" stroke-width="2" stroke-opacity="0.200000" d="M55,-94.16C55,-102.99 55,-115 55,-115 55,-115 154.37,-115 154.37,-115"/>
<polygon fill="#000000" fill-opacity="0.200000" stroke="#000000" stroke-width="2" stroke-opacity="0.200000" points="154.37,-117.1 160.37,-115 154.37,-112.9 154.37,-117.1"/>
</g>
<!-- src/version.mjs -->
<g id="node3" class="node">
<title>src/version.mjs</title>
<g id="a_node3"><a xlink:href="vscode://file/${process.cwd()}/src/version.mjs" xlink:title="version.mjs">
<path fill="#ffffcc" stroke="black" d="M213,-64C213,-64 162,-64 162,-64 159,-64 156,-61 156,-58 156,-58 156,-52 156,-52 156,-49 159,-46 162,-46 162,-46 213,-46 213,-46 216,-46 219,-49 219,-52 219,-52 219,-58 219,-58 219,-61 216,-64 213,-64"/>
<text text-anchor="start" x="164" y="-52.8" font-family="Helvetica,sans-Serif" font-size="9.00">version.mjs</text>
</a>
</g>
</g>
<!-- src/cli.mjs&#45;&gt;src/version.mjs -->
<g id="edge2" class="edge">
<title>src/cli.mjs&#45;&gt;src/version.mjs</title>
<path fill="none" stroke="#000000" stroke-width="2" stroke-opacity="0.200000" d="M55,-75.84C55,-67.01 55,-55 55,-55 55,-55 149.76,-55 149.76,-55"/>
<polygon fill="#000000" fill-opacity="0.200000" stroke="#000000" stroke-width="2" stroke-opacity="0.200000" points="149.76,-57.1 155.76,-55 149.76,-52.9 149.76,-57.1"/>
</g>
<!-- src/convert&#45;to&#45;change&#45;object.mjs -->
<g id="node4" class="node">
<title>src/convert&#45;to&#45;change&#45;object.mjs</title>
<g id="a_node4"><a xlink:href="vscode://file/${process.cwd()}/src/convert-to-change-object.mjs" xlink:title="convert&#45;to&#45;change&#45;object.mjs">
<path fill="lime" stroke="black" stroke-width="2" d="M408,-109C408,-109 285,-109 285,-109 282,-109 279,-106 279,-103 279,-103 279,-97 279,-97 279,-94 282,-91 285,-91 285,-91 408,-91 408,-91 411,-91 414,-94 414,-97 414,-97 414,-103 414,-103 414,-106 411,-109 408,-109"/>
<text text-anchor="start" x="287" y="-97.8" font-family="Helvetica,sans-Serif" font-size="9.00">convert&#45;to&#45;change&#45;object.mjs</text>
</a>
</g>
</g>
<!-- src/main.mjs&#45;&gt;src/convert&#45;to&#45;change&#45;object.mjs -->
<g id="edge10" class="edge">
<title>src/main.mjs&#45;&gt;src/convert&#45;to&#45;change&#45;object.mjs</title>
<path fill="none" stroke="#000000" stroke-width="2" stroke-opacity="0.200000" d="M214.65,-116.5C246.2,-116.5 294,-116.5 294,-116.5 294,-116.5 294,-115.02 294,-115.02"/>
<polygon fill="#000000" fill-opacity="0.200000" stroke="#000000" stroke-width="2" stroke-opacity="0.200000" points="296.1,-115.02 294,-109.02 291.9,-115.02 296.1,-115.02"/>
</g>
<!-- src/formatters/format.mjs -->
<g id="node6" class="node">
<title>src/formatters/format.mjs</title>
<g id="a_node6"><a xlink:href="vscode://file/${process.cwd()}/src/formatters/format.mjs" xlink:title="format.mjs">
<path fill="#ffffcc" stroke="black" d="M370,-188C370,-188 323,-188 323,-188 320,-188 317,-185 317,-182 317,-182 317,-176 317,-176 317,-173 320,-170 323,-170 323,-170 370,-170 370,-170 373,-170 376,-173 376,-176 376,-176 376,-182 376,-182 376,-185 373,-188 370,-188"/>
<text text-anchor="start" x="325" y="-176.8" font-family="Helvetica,sans-Serif" font-size="9.00">format.mjs</text>
</a>
</g>
</g>
<!-- src/main.mjs&#45;&gt;src/formatters/format.mjs -->
<g id="edge11" class="edge">
<title>src/main.mjs&#45;&gt;src/formatters/format.mjs</title>
<path fill="none" stroke="#000000" stroke-width="2" stroke-opacity="0.200000" d="M214.81,-120.25C230.45,-120.25 247,-120.25 247,-120.25 247,-120.25 247,-176 247,-176 247,-176 310.92,-176 310.92,-176"/>
<polygon fill="#000000" fill-opacity="0.200000" stroke="#000000" stroke-width="2" stroke-opacity="0.200000" points="310.92,-178.1 316.92,-176 310.92,-173.9 310.92,-178.1"/>
</g>
<!-- src/git&#45;primitives.mjs -->
<g id="node12" class="node">
<title>src/git&#45;primitives.mjs</title>
<g id="a_node12"><a xlink:href="vscode://file/${process.cwd()}/src/git-primitives.mjs" xlink:title="git&#45;primitives.mjs">
<path fill="#ffffcc" stroke="black" d="M383,-64C383,-64 310,-64 310,-64 307,-64 304,-61 304,-58 304,-58 304,-52 304,-52 304,-49 307,-46 310,-46 310,-46 383,-46 383,-46 386,-46 389,-49 389,-52 389,-52 389,-58 389,-58 389,-61 386,-64 383,-64"/>
<text text-anchor="start" x="312" y="-52.8" font-family="Helvetica,sans-Serif" font-size="9.00">git&#45;primitives.mjs</text>
</a>
</g>
</g>
<!-- src/main.mjs&#45;&gt;src/git&#45;primitives.mjs -->
<g id="edge12" class="edge">
<title>src/main.mjs&#45;&gt;src/git&#45;primitives.mjs</title>
<path fill="none" stroke="#000000" stroke-width="2" stroke-opacity="0.200000" d="M214.55,-112.75C239.6,-112.75 273,-112.75 273,-112.75 273,-112.75 273,-58 273,-58 273,-58 297.74,-58 297.74,-58"/>
<polygon fill="#000000" fill-opacity="0.200000" stroke="#000000" stroke-width="2" stroke-opacity="0.200000" points="297.74,-60.1 303.74,-58 297.74,-55.9 297.74,-60.1"/>
</g>
<!-- src/convert&#45;to&#45;change&#45;object.spec.mjs -->
<g id="node5" class="node">
<title>src/convert&#45;to&#45;change&#45;object.spec.mjs</title>
<g id="a_node5"><a xlink:href="vscode://file/${process.cwd()}/src/convert-to-change-object.spec.mjs" xlink:title="convert&#45;to&#45;change&#45;object.spec.mjs">
<path fill="#ccccff" stroke="black" d="M260,-94C260,-94 115,-94 115,-94 112,-94 109,-91 109,-88 109,-88 109,-82 109,-82 109,-79 112,-76 115,-76 115,-76 260,-76 260,-76 263,-76 266,-79 266,-82 266,-82 266,-88 266,-88 266,-91 263,-94 260,-94"/>
<text text-anchor="start" x="117" y="-82.8" font-family="Helvetica,sans-Serif" font-size="9.00">convert&#45;to&#45;change&#45;object.spec.mjs</text>
</a>
</g>
</g>
<!-- src/convert&#45;to&#45;change&#45;object.spec.mjs&#45;&gt;src/convert&#45;to&#45;change&#45;object.mjs -->
<g id="edge3" class="edge">
<title>src/convert&#45;to&#45;change&#45;object.spec.mjs&#45;&gt;src/convert&#45;to&#45;change&#45;object.mjs</title>
<path fill="none" stroke="#000000" stroke-width="2" stroke-opacity="0.200000" d="M266.17,-83.5C281.02,-83.5 292,-83.5 292,-83.5 292,-83.5 292,-84.98 292,-84.98"/>
<polygon fill="#000000" fill-opacity="0.200000" stroke="#000000" stroke-width="2" stroke-opacity="0.200000" points="289.9,-84.98 292,-90.98 294.1,-84.98 289.9,-84.98"/>
</g>
<!-- src/formatters/json.mjs -->
<g id="node7" class="node">
<title>src/formatters/json.mjs</title>
<g id="a_node7"><a xlink:href="vscode://file/${process.cwd()}/src/formatters/json.mjs" xlink:title="json.mjs">
<path fill="#ffffcc" stroke="black" d="M476,-210C476,-210 434,-210 434,-210 431,-210 428,-207 428,-204 428,-204 428,-198 428,-198 428,-195 431,-192 434,-192 434,-192 476,-192 476,-192 479,-192 482,-195 482,-198 482,-198 482,-204 482,-204 482,-207 479,-210 476,-210"/>
<text text-anchor="start" x="438" y="-198.8" font-family="Helvetica,sans-Serif" font-size="9.00">json.mjs</text>
</a>
</g>
</g>
<!-- src/formatters/format.mjs&#45;&gt;src/formatters/json.mjs -->
<g id="edge4" class="edge">
<title>src/formatters/format.mjs&#45;&gt;src/formatters/json.mjs</title>
<path fill="none" stroke="#000000" stroke-width="2" stroke-opacity="0.200000" d="M347,-188.3C347,-192.26 347,-196 347,-196 347,-196 421.75,-196 421.75,-196"/>
<polygon fill="#000000" fill-opacity="0.200000" stroke="#000000" stroke-width="2" stroke-opacity="0.200000" points="421.75,-198.1 427.75,-196 421.75,-193.9 421.75,-198.1"/>
</g>
<!-- src/formatters/regex.mjs -->
<g id="node8" class="node">
<title>src/formatters/regex.mjs</title>
<g id="a_node8"><a xlink:href="vscode://file/${process.cwd()}/src/formatters/regex.mjs" xlink:title="regex.mjs">
<path fill="#ffffcc" stroke="black" d="M477,-173C477,-173 433,-173 433,-173 430,-173 427,-170 427,-167 427,-167 427,-161 427,-161 427,-158 430,-155 433,-155 433,-155 477,-155 477,-155 480,-155 483,-158 483,-161 483,-161 483,-167 483,-167 483,-170 480,-173 477,-173"/>
<text text-anchor="start" x="435" y="-161.8" font-family="Helvetica,sans-Serif" font-size="9.00">regex.mjs</text>
</a>
</g>
</g>
<!-- src/formatters/format.mjs&#45;&gt;src/formatters/regex.mjs -->
<g id="edge5" class="edge">
<title>src/formatters/format.mjs&#45;&gt;src/formatters/regex.mjs</title>
<path fill="none" stroke="#000000" stroke-width="2" stroke-opacity="0.200000" d="M347,-169.76C347,-166.67 347,-164 347,-164 347,-164 420.91,-164 420.91,-164"/>
<polygon fill="#000000" fill-opacity="0.200000" stroke="#000000" stroke-width="2" stroke-opacity="0.200000" points="420.91,-166.1 426.91,-164 420.91,-161.9 420.91,-166.1"/>
</g>
<!-- src/formatters/format.spec.mjs -->
<g id="node9" class="node">
<title>src/formatters/format.spec.mjs</title>
<g id="a_node9"><a xlink:href="vscode://file/${process.cwd()}/src/formatters/format.spec.mjs" xlink:title="format.spec.mjs">
<path fill="#ccccff" stroke="black" d="M221.5,-188C221.5,-188 153.5,-188 153.5,-188 150.5,-188 147.5,-185 147.5,-182 147.5,-182 147.5,-176 147.5,-176 147.5,-173 150.5,-170 153.5,-170 153.5,-170 221.5,-170 221.5,-170 224.5,-170 227.5,-173 227.5,-176 227.5,-176 227.5,-182 227.5,-182 227.5,-185 224.5,-188 221.5,-188"/>
<text text-anchor="start" x="155.5" y="-176.8" font-family="Helvetica,sans-Serif" font-size="9.00">format.spec.mjs</text>
</a>
</g>
</g>
<!-- src/formatters/format.spec.mjs&#45;&gt;src/formatters/format.mjs -->
<g id="edge6" class="edge">
<title>src/formatters/format.spec.mjs&#45;&gt;src/formatters/format.mjs</title>
<path fill="none" stroke="#000000" stroke-width="2" stroke-opacity="0.200000" d="M227.62,-182C227.62,-182 310.93,-182 310.93,-182"/>
<polygon fill="#000000" fill-opacity="0.200000" stroke="#000000" stroke-width="2" stroke-opacity="0.200000" points="310.93,-184.1 316.93,-182 310.93,-179.9 310.93,-184.1"/>
</g>
<!-- src/formatters/json.spec.mjs -->
<g id="node10" class="node">
<title>src/formatters/json.spec.mjs</title>
<g id="a_node10"><a xlink:href="vscode://file/${process.cwd()}/src/formatters/json.spec.mjs" xlink:title="json.spec.mjs">
<path fill="#ccccff" stroke="black" d="M376.5,-218C376.5,-218 316.5,-218 316.5,-218 313.5,-218 310.5,-215 310.5,-212 310.5,-212 310.5,-206 310.5,-206 310.5,-203 313.5,-200 316.5,-200 316.5,-200 376.5,-200 376.5,-200 379.5,-200 382.5,-203 382.5,-206 382.5,-206 382.5,-212 382.5,-212 382.5,-215 379.5,-218 376.5,-218"/>
<text text-anchor="start" x="318.5" y="-206.8" font-family="Helvetica,sans-Serif" font-size="9.00">json.spec.mjs</text>
</a>
</g>
</g>
<!-- src/formatters/json.spec.mjs&#45;&gt;src/formatters/json.mjs -->
<g id="edge7" class="edge">
<title>src/formatters/json.spec.mjs&#45;&gt;src/formatters/json.mjs</title>
<path fill="none" stroke="#000000" stroke-width="2" stroke-opacity="0.200000" d="M382.63,-205C382.63,-205 421.95,-205 421.95,-205"/>
<polygon fill="#000000" fill-opacity="0.200000" stroke="#000000" stroke-width="2" stroke-opacity="0.200000" points="421.95,-207.1 427.95,-205 421.95,-202.9 421.95,-207.1"/>
</g>
<!-- src/formatters/regex.spec.mjs -->
<g id="node11" class="node">
<title>src/formatters/regex.spec.mjs</title>
<g id="a_node11"><a xlink:href="vscode://file/${process.cwd()}/src/formatters/regex.spec.mjs" xlink:title="regex.spec.mjs">
<path fill="#ccccff" stroke="black" d="M379.5,-158C379.5,-158 313.5,-158 313.5,-158 310.5,-158 307.5,-155 307.5,-152 307.5,-152 307.5,-146 307.5,-146 307.5,-143 310.5,-140 313.5,-140 313.5,-140 379.5,-140 379.5,-140 382.5,-140 385.5,-143 385.5,-146 385.5,-146 385.5,-152 385.5,-152 385.5,-155 382.5,-158 379.5,-158"/>
<text text-anchor="start" x="315.5" y="-146.8" font-family="Helvetica,sans-Serif" font-size="9.00">regex.spec.mjs</text>
</a>
</g>
</g>
<!-- src/formatters/regex.spec.mjs&#45;&gt;src/formatters/regex.mjs -->
<g id="edge8" class="edge">
<title>src/formatters/regex.spec.mjs&#45;&gt;src/formatters/regex.mjs</title>
<path fill="none" stroke="#000000" stroke-width="2" stroke-opacity="0.200000" d="M385.67,-147.5C416.75,-147.5 455,-147.5 455,-147.5 455,-147.5 455,-148.98 455,-148.98"/>
<polygon fill="#000000" fill-opacity="0.200000" stroke="#000000" stroke-width="2" stroke-opacity="0.200000" points="452.9,-148.98 455,-154.98 457.1,-148.98 452.9,-148.98"/>
</g>
<!-- src/git&#45;primitives.spec.mjs -->
<g id="node13" class="node">
<title>src/git&#45;primitives.spec.mjs</title>
<g id="a_node13"><a xlink:href="vscode://file/${process.cwd()}/src/git-primitives.spec.mjs" xlink:title="git&#45;primitives.spec.mjs">
<path fill="#ccccff" stroke="black" d="M235,-34C235,-34 140,-34 140,-34 137,-34 134,-31 134,-28 134,-28 134,-22 134,-22 134,-19 137,-16 140,-16 140,-16 235,-16 235,-16 238,-16 241,-19 241,-22 241,-22 241,-28 241,-28 241,-31 238,-34 235,-34"/>
<text text-anchor="start" x="142" y="-22.8" font-family="Helvetica,sans-Serif" font-size="9.00">git&#45;primitives.spec.mjs</text>
</a>
</g>
</g>
<!-- src/git&#45;primitives.spec.mjs&#45;&gt;src/git&#45;primitives.mjs -->
<g id="edge9" class="edge">
<title>src/git&#45;primitives.spec.mjs&#45;&gt;src/git&#45;primitives.mjs</title>
<path fill="none" stroke="#000000" stroke-width="2" stroke-opacity="0.200000" d="M230,-34.14C230,-41.97 230,-52 230,-52 230,-52 297.78,-52 297.78,-52"/>
<polygon fill="#000000" fill-opacity="0.200000" stroke="#000000" stroke-width="2" stroke-opacity="0.200000" points="297.78,-54.1 303.78,-52 297.78,-49.9 297.78,-54.1"/>
</g>
<!-- types/watskeburt.d.ts -->
<g id="node14" class="node">
<title>types/watskeburt.d.ts</title>
<g id="a_node14"><a xlink:href="vscode://file/${process.cwd()}/types/watskeburt.d.ts" xlink:title="watskeburt.d.ts">
<path fill="#ccffcc" stroke="black" d="M87,-304C87,-304 22,-304 22,-304 19,-304 16,-301 16,-298 16,-298 16,-292 16,-292 16,-289 19,-286 22,-286 22,-286 87,-286 87,-286 90,-286 93,-289 93,-292 93,-292 93,-298 93,-298 93,-301 90,-304 87,-304"/>
<text text-anchor="start" x="24" y="-292.8" font-family="Helvetica,sans-Serif" font-size="9.00">watskeburt.d.ts</text>
</a>
</g>
</g>
</g>
</svg>
