<?xml version="1.0" standalone="no"?>
<!DOCTYPE svg PUBLIC "-//W3C//DTD SVG 20010904//EN"
 "http://www.w3.org/TR/2001/REC-SVG-20010904/DTD/svg10.dtd">
<svg version="1.0" xmlns="http://www.w3.org/2000/svg"
 width="320.000000pt" height="103.000000pt" viewBox="0 0 320.000000 103.000000"
 preserveAspectRatio="xMidYMid meet">
<metadata>
Created by potrace 1.13, written by Peter Selinger 2001-2015
</metadata>
<g transform="translate(0.000000,103.000000) scale(0.100000,-0.100000)"
fill="#000000" stroke="none">
<path d="M1625 980 c-22 -10 -56 -19 -75 -19 -32 -1 -33 -2 -18 -17 15 -15 15
-19 -3 -48 -41 -67 -14 -157 51 -169 70 -14 191 62 205 128 3 14 7 36 10 49 6
31 -27 61 -66 58 -23 -2 -29 2 -29 18 0 25 -21 25 -75 0z m103 -62 c31 -31 6
-91 -52 -127 -62 -39 -126 -18 -126 40 0 36 43 87 78 92 55 8 88 7 100 -5z"/>
<path d="M40 732 c0 -12 24 -32 68 -57 37 -21 80 -49 95 -62 16 -13 34 -23 41
-23 6 0 53 -27 104 -60 l92 -59 -34 -46 c-36 -47 -54 -114 -41 -156 7 -22 7
-22 -66 -16 -41 4 -86 10 -101 13 -19 4 -29 2 -31 -7 -2 -8 -16 -62 -31 -121
-14 -59 -29 -114 -32 -123 -5 -12 1 -15 27 -15 34 0 34 0 35 48 0 26 8 73 18
105 l17 57 92 1 c51 0 142 4 202 9 127 10 527 35 795 50 102 5 226 14 276 20
50 5 160 12 245 15 85 3 171 10 193 16 21 6 44 8 52 5 7 -3 28 1 46 8 18 8
107 24 198 36 91 12 181 29 200 37 35 15 270 56 278 48 4 -3 -91 -252 -123
-320 -41 -89 -44 -140 -8 -133 18 3 38 56 62 160 6 27 36 105 67 175 31 71 58
137 61 149 7 30 -20 37 -73 19 -55 -18 -64 -19 -64 -2 0 27 37 45 180 90 191
60 185 58 222 59 39 1 58 14 58 38 0 21 -28 34 -44 21 -6 -5 -51 -21 -101 -35
-49 -14 -139 -42 -200 -61 -109 -35 -110 -35 -126 -16 -14 17 -30 20 -105 22
-146 2 -155 -4 -189 -131 -10 -36 -20 -67 -21 -69 -3 -3 -235 -40 -261 -41
-10 0 -13 29 -13 115 0 141 -15 190 -63 201 -18 4 -141 7 -275 6 -168 -1 -248
2 -261 10 -28 17 -46 5 -71 -49 -12 -26 -59 -104 -105 -173 -45 -69 -90 -140
-101 -158 -17 -29 -22 -32 -69 -32 -27 0 -95 -3 -150 -6 l-100 -6 3 56 c4 63
-11 113 -37 120 -21 6 -276 20 -323 18 -25 -2 -55 8 -94 29 -68 36 -170 105
-179 119 -4 6 -36 24 -73 40 -36 17 -80 42 -98 55 -38 29 -64 32 -64 7z m1907
-83 c51 -7 83 -16 91 -27 19 -23 11 -228 -9 -248 -17 -16 -162 -34 -284 -34
-50 0 -129 -5 -175 -11 -151 -19 -300 -25 -300 -13 0 17 187 296 216 322 24
21 33 22 204 22 98 0 214 -5 257 -11z m701 -102 c9 -48 -6 -65 -66 -77 -31 -6
-74 -18 -95 -26 -62 -24 -66 -20 -46 49 18 66 38 78 127 75 65 -3 77 -6 80
-21z m-1917 -118 c57 -5 109 -15 116 -21 16 -13 16 -42 0 -88 l-12 -35 -85 -6
c-47 -4 -137 -10 -201 -14 l-117 -8 -4 42 c-5 56 31 115 82 134 25 9 112 8
221 -4z"/>
<path d="M2502 323 c-7 -3 -19 -20 -27 -39 -18 -44 -33 -43 -38 4 l-4 37 -1
-42 c-1 -23 3 -43 9 -45 8 -3 6 -16 -5 -42 -23 -54 -12 -57 13 -4 12 24 33 62
47 86 27 45 28 52 6 45z"/>
<path d="M2370 301 c0 -4 11 -6 25 -3 14 2 25 6 25 8 0 2 -11 4 -25 4 -14 0
-25 -4 -25 -9z"/>
<path d="M2248 290 c-2 -8 4 -30 15 -48 14 -24 24 -31 38 -27 11 4 19 2 19 -4
0 -6 18 -10 43 -10 32 2 35 3 12 6 -52 7 -59 11 -45 28 11 13 10 14 -3 9 -12
-4 -15 0 -11 18 3 18 2 17 -7 -4 -12 -32 -27 -36 -35 -10 -15 48 -21 57 -26
42z"/>
<path d="M2178 273 c-54 -6 -47 -19 7 -15 25 2 45 8 45 13 0 5 -3 8 -7 7 -5
-1 -25 -3 -45 -5z"/>
<path d="M1901 221 c-7 -29 -10 -55 -7 -58 3 -4 6 3 6 15 0 28 16 37 23 12 3
-11 10 -20 15 -20 10 0 53 79 51 96 0 5 -9 -10 -19 -33 -11 -24 -24 -43 -29
-43 -5 0 -14 19 -18 42 l-8 41 -14 -52z"/>
<path d="M2041 261 c-8 -5 -16 -17 -17 -27 -2 -10 -5 -28 -8 -40 -4 -13 -2
-26 4 -29 6 -3 10 5 10 19 0 13 5 37 10 51 13 34 51 31 61 -5 l7 -25 1 26 c1
35 -35 51 -68 30z"/>
<path d="M2236 238 c-8 -33 -7 -60 2 -54 8 5 15 76 8 76 -2 0 -6 -10 -10 -22z"/>
<path d="M1720 240 c34 -15 35 -18 15 -40 -25 -27 -55 -26 -56 3 0 21 -1 21
-9 2 -5 -11 -9 -33 -9 -50 0 -28 1 -29 11 -8 6 12 22 23 36 25 16 2 32 14 41
30 18 31 16 34 -24 42 -28 6 -29 6 -5 -4z"/>
<path d="M1800 238 c0 -4 14 -7 30 -6 17 1 30 5 30 9 0 4 -13 7 -30 7 -16 -1
-30 -5 -30 -10z"/>
<path d="M1474 230 c-15 -6 -24 -22 -31 -59 -6 -28 -8 -53 -5 -56 13 -13 40
-3 58 23 28 38 33 54 23 80 -9 24 -13 25 -45 12z m36 -34 c0 -25 -35 -76 -52
-76 -7 0 -8 15 -4 42 8 51 12 58 37 58 13 0 19 -7 19 -24z"/>
<path d="M2126 233 c-3 -4 -6 -17 -6 -30 0 -18 5 -23 23 -22 16 1 18 2 5 6
-34 9 -20 33 19 33 20 0 34 2 32 4 -9 7 -67 15 -73 9z"/>
<path d="M1583 223 c9 -2 25 -2 35 0 9 3 1 5 -18 5 -19 0 -27 -2 -17 -5z"/>
<path d="M1781 197 c-17 -44 -14 -47 37 -45 l47 1 -42 4 c-32 3 -41 8 -36 19
3 7 13 14 22 14 9 0 23 5 31 11 12 8 10 9 -9 4 -15 -5 -26 -2 -32 6 -6 10 -11
6 -18 -14z"/>
<path d="M1345 191 c-7 -23 -21 -28 -28 -8 -7 18 -14 6 -20 -35 -3 -21 -2 -38
4 -38 5 0 9 9 9 20 0 11 7 20 16 20 11 0 14 -6 9 -20 -3 -11 -2 -20 3 -20 5 0
12 21 16 47 7 50 2 68 -9 34z"/>
<path d="M1548 174 c-9 -21 -13 -42 -9 -47 4 -4 25 -3 47 2 l39 10 -38 -2
c-33 -3 -37 0 -35 17 2 12 14 23 28 27 14 4 18 7 8 8 -9 1 -18 6 -20 13 -3 7
-11 -6 -20 -28z"/>
<path d="M1197 170 c-4 -14 -7 -36 -7 -50 l0 -25 19 25 19 24 21 -24 c23 -28
26 -23 10 14 -9 20 -9 29 2 43 8 10 3 8 -12 -4 -14 -13 -28 -23 -31 -23 -4 0
-8 10 -10 23 -3 22 -4 21 -11 -3z"/>
<path d="M1113 171 l39 -6 -31 -30 c-18 -16 -44 -35 -59 -42 -25 -12 -24 -12
18 -7 25 4 54 10 65 15 19 7 19 8 -2 8 -30 1 -29 9 4 43 l27 28 -50 -1 c-48
-2 -48 -2 -11 -8z"/>
<path d="M2050 170 c-9 -6 -10 -10 -3 -10 6 0 15 5 18 10 8 12 4 12 -15 0z"/>
</g>
</svg>
