<?xml version="1.0" encoding="UTF-8" standalone="no"?>
<!DOCTYPE svg PUBLIC "-//W3C//DTD SVG 1.1//EN"
 "http://www.w3.org/Graphics/SVG/1.1/DTD/svg11.dtd">
<!-- Generated by graphviz version 2.44.0 (20200408.0750)
 -->
<!-- Title: dependency&#45;cruiser output Pages: 1 -->
<svg width="710pt" height="361pt"
 viewBox="0.00 0.00 710.00 360.82" xmlns="http://www.w3.org/2000/svg" xmlns:xlink="http://www.w3.org/1999/xlink">
<g id="graph0" class="graph" transform="scale(1 1) rotate(0) translate(4 356.82)">
<title>dependency&#45;cruiser output</title>
<polygon fill="white" stroke="transparent" points="-4,4 -4,-356.82 706,-356.82 706,4 -4,4"/>
<!-- compound&#45;donot&#45;follow&#45;type.js -->
<g id="node1" class="node">
<title>compound&#45;donot&#45;follow&#45;type.js</title>
<g id="a_node1"><a xlink:href="https://github.com/sverweij/dependency-cruiser/blob/develop/utl/schema/compound-donot-follow-type.js" xlink:title="compound&#45;donot&#45;follow&#45;type.js">
<polygon fill="white" stroke="transparent" points="581,-352.82 438,-352.82 438,-334.82 581,-334.82 581,-352.82"/>
<polyline fill="none" stroke="darkgrey" points="438,-334.82 581,-334.82 "/>
<text text-anchor="middle" x="509.5" y="-341.62" font-family="Helvetica,sans-Serif" font-size="9.00" fill="darkgrey">compound&#45;donot&#45;follow&#45;type.js</text>
</a>
</g>
</g>
<!-- compound&#45;exclude&#45;type.js -->
<g id="node2" class="node">
<title>compound&#45;exclude&#45;type.js</title>
<g id="a_node2"><a xlink:href="https://github.com/sverweij/dependency-cruiser/blob/develop/utl/schema/compound-exclude-type.js" xlink:title="compound&#45;exclude&#45;type.js">
<polygon fill="white" stroke="transparent" points="572,-320.82 447,-320.82 447,-302.82 572,-302.82 572,-320.82"/>
<polyline fill="none" stroke="darkgrey" points="447,-302.82 572,-302.82 "/>
<text text-anchor="middle" x="509.5" y="-309.62" font-family="Helvetica,sans-Serif" font-size="9.00" fill="darkgrey">compound&#45;exclude&#45;type.js</text>
</a>
</g>
</g>
<!-- compound&#45;focus&#45;type.js -->
<g id="node3" class="node">
<title>compound&#45;focus&#45;type.js</title>
<g id="a_node3"><a xlink:href="https://github.com/sverweij/dependency-cruiser/blob/develop/utl/schema/compound-focus-type.js" xlink:title="compound&#45;focus&#45;type.js">
<polygon fill="white" stroke="transparent" points="566.5,-285.82 452.5,-285.82 452.5,-267.82 566.5,-267.82 566.5,-285.82"/>
<polyline fill="none" stroke="darkgrey" points="452.5,-267.82 566.5,-267.82 "/>
<text text-anchor="middle" x="509.5" y="-274.62" font-family="Helvetica,sans-Serif" font-size="9.00" fill="darkgrey">compound&#45;focus&#45;type.js</text>
</a>
</g>
</g>
<!-- compound&#45;include&#45;only&#45;type.js -->
<g id="node4" class="node">
<title>compound&#45;include&#45;only&#45;type.js</title>
<g id="a_node4"><a xlink:href="https://github.com/sverweij/dependency-cruiser/blob/develop/utl/schema/compound-include-only-type.js" xlink:title="compound&#45;include&#45;only&#45;type.js">
<polygon fill="white" stroke="transparent" points="581,-246.82 438,-246.82 438,-228.82 581,-228.82 581,-246.82"/>
<polyline fill="none" stroke="darkgrey" points="438,-228.82 581,-228.82 "/>
<text text-anchor="middle" x="509.5" y="-235.62" font-family="Helvetica,sans-Serif" font-size="9.00" fill="darkgrey">compound&#45;include&#45;only&#45;type.js</text>
</a>
</g>
</g>
<!-- configuration.schema.js -->
<g id="node5" class="node">
<title>configuration.schema.js</title>
<g id="a_node5"><a xlink:href="https://github.com/sverweij/dependency-cruiser/blob/develop/utl/schema/configuration.schema.js" xlink:title="configuration.schema.js">
<path fill="darkgreen" stroke="darkgreen" d="M230,-182.82C230,-182.82 129,-182.82 129,-182.82 126,-182.82 123,-179.82 123,-176.82 123,-176.82 123,-170.82 123,-170.82 123,-167.82 126,-164.82 129,-164.82 129,-164.82 230,-164.82 230,-164.82 233,-164.82 236,-167.82 236,-170.82 236,-170.82 236,-176.82 236,-176.82 236,-179.82 233,-182.82 230,-182.82"/>
<text text-anchor="middle" x="179.5" y="-171.62" font-family="Helvetica,sans-Serif" font-size="9.00" fill="#ffffcc">configuration.schema.js</text>
</a>
</g>
</g>
<!-- options.js -->
<g id="node6" class="node">
<title>options.js</title>
<g id="a_node6"><a xlink:href="https://github.com/sverweij/dependency-cruiser/blob/develop/utl/schema/options.js" xlink:title="options.js">
<path fill="#ffffcc" stroke="black" d="M405,-197.82C405,-197.82 361,-197.82 361,-197.82 358,-197.82 355,-194.82 355,-191.82 355,-191.82 355,-185.82 355,-185.82 355,-182.82 358,-179.82 361,-179.82 361,-179.82 405,-179.82 405,-179.82 408,-179.82 411,-182.82 411,-185.82 411,-185.82 411,-191.82 411,-191.82 411,-194.82 408,-197.82 405,-197.82"/>
<text text-anchor="middle" x="383" y="-186.62" font-family="Helvetica,sans-Serif" font-size="9.00">options.js</text>
</a>
</g>
</g>
<!-- configuration.schema.js&#45;&gt;options.js -->
<g id="edge1" class="edge">
<title>configuration.schema.js&#45;&gt;options.js</title>
<path fill="none" stroke="#000000" stroke-width="2" stroke-opacity="0.200000" d="M236.09,-177.96C272.2,-180.65 318.06,-184.06 348.64,-186.34"/>
<polygon fill="#000000" fill-opacity="0.200000" stroke="#000000" stroke-width="2" stroke-opacity="0.200000" points="348.78,-188.45 354.92,-186.81 349.09,-184.27 348.78,-188.45"/>
</g>
<!-- rule&#45;set.js -->
<g id="node7" class="node">
<title>rule&#45;set.js</title>
<g id="a_node7"><a xlink:href="https://github.com/sverweij/dependency-cruiser/blob/develop/utl/schema/rule-set.js" xlink:title="rule&#45;set.js">
<path fill="#ffffcc" stroke="black" d="M310.5,-111.82C310.5,-111.82 266.5,-111.82 266.5,-111.82 263.5,-111.82 260.5,-108.82 260.5,-105.82 260.5,-105.82 260.5,-99.82 260.5,-99.82 260.5,-96.82 263.5,-93.82 266.5,-93.82 266.5,-93.82 310.5,-93.82 310.5,-93.82 313.5,-93.82 316.5,-96.82 316.5,-99.82 316.5,-99.82 316.5,-105.82 316.5,-105.82 316.5,-108.82 313.5,-111.82 310.5,-111.82"/>
<text text-anchor="middle" x="288.5" y="-100.62" font-family="Helvetica,sans-Serif" font-size="9.00">rule&#45;set.js</text>
</a>
</g>
</g>
<!-- configuration.schema.js&#45;&gt;rule&#45;set.js -->
<g id="edge2" class="edge">
<title>configuration.schema.js&#45;&gt;rule&#45;set.js</title>
<path fill="none" stroke="#000000" stroke-width="2" stroke-opacity="0.200000" d="M196.79,-164.7C207.99,-158.3 223.11,-149.38 236,-140.82 247.98,-132.87 261.01,-123.24 270.97,-115.67"/>
<polygon fill="#000000" fill-opacity="0.200000" stroke="#000000" stroke-width="2" stroke-opacity="0.200000" points="272.39,-117.23 275.87,-111.92 269.83,-113.89 272.39,-117.23"/>
</g>
<!-- options.js&#45;&gt;compound&#45;donot&#45;follow&#45;type.js -->
<g id="edge21" class="edge">
<title>options.js&#45;&gt;compound&#45;donot&#45;follow&#45;type.js</title>
<path fill="none" stroke="#000000" stroke-width="2" stroke-opacity="0.200000" d="M384.73,-197.85C387.23,-222.53 397.67,-291.65 438,-326.82 440.03,-328.59 442.21,-330.18 444.5,-331.61"/>
<polygon fill="#000000" fill-opacity="0.200000" stroke="#000000" stroke-width="2" stroke-opacity="0.200000" points="443.78,-333.61 450.04,-334.68 445.81,-329.94 443.78,-333.61"/>
</g>
<!-- options.js&#45;&gt;compound&#45;exclude&#45;type.js -->
<g id="edge22" class="edge">
<title>options.js&#45;&gt;compound&#45;exclude&#45;type.js</title>
<path fill="none" stroke="#000000" stroke-width="2" stroke-opacity="0.200000" d="M386.2,-198.1C391.48,-218.3 406.81,-266.49 438,-291.82 442.21,-295.24 446.96,-298.07 451.97,-300.42"/>
<polygon fill="#000000" fill-opacity="0.200000" stroke="#000000" stroke-width="2" stroke-opacity="0.200000" points="451.15,-302.35 457.5,-302.79 452.81,-298.49 451.15,-302.35"/>
</g>
<!-- options.js&#45;&gt;compound&#45;focus&#45;type.js -->
<g id="edge23" class="edge">
<title>options.js&#45;&gt;compound&#45;focus&#45;type.js</title>
<path fill="none" stroke="#000000" stroke-width="2" stroke-opacity="0.200000" d="M389.45,-198.03C398.07,-211.85 416.15,-237.9 438,-252.82 445.8,-258.14 454.88,-262.38 463.88,-265.72"/>
<polygon fill="#000000" fill-opacity="0.200000" stroke="#000000" stroke-width="2" stroke-opacity="0.200000" points="463.41,-267.78 469.77,-267.79 464.81,-263.82 463.41,-267.78"/>
</g>
<!-- options.js&#45;&gt;compound&#45;include&#45;only&#45;type.js -->
<g id="edge24" class="edge">
<title>options.js&#45;&gt;compound&#45;include&#45;only&#45;type.js</title>
<path fill="none" stroke="#000000" stroke-width="2" stroke-opacity="0.200000" d="M407.13,-197.92C427.65,-206 457.73,-217.84 479.79,-226.52"/>
<polygon fill="#000000" fill-opacity="0.200000" stroke="#000000" stroke-width="2" stroke-opacity="0.200000" points="479.15,-228.53 485.5,-228.77 480.68,-224.62 479.15,-228.53"/>
</g>
<!-- dependency&#45;type.js -->
<g id="node12" class="node">
<title>dependency&#45;type.js</title>
<g id="a_node12"><a xlink:href="https://github.com/sverweij/dependency-cruiser/blob/develop/utl/schema/dependency-type.js" xlink:title="dependency&#45;type.js">
<polygon fill="white" stroke="transparent" points="558,-198.82 461,-198.82 461,-180.82 558,-180.82 558,-198.82"/>
<polyline fill="none" stroke="darkgrey" points="461,-180.82 558,-180.82 "/>
<text text-anchor="middle" x="509.5" y="-187.62" font-family="Helvetica,sans-Serif" font-size="9.00" fill="darkgrey">dependency&#45;type.js</text>
</a>
</g>
</g>
<!-- options.js&#45;&gt;dependency&#45;type.js -->
<g id="edge25" class="edge">
<title>options.js&#45;&gt;dependency&#45;type.js</title>
<path fill="none" stroke="#000000" stroke-width="2" stroke-opacity="0.200000" d="M411.01,-189.04C423.78,-189.14 439.49,-189.27 454.55,-189.39"/>
<polygon fill="#000000" fill-opacity="0.200000" stroke="#000000" stroke-width="2" stroke-opacity="0.200000" points="454.93,-191.49 460.95,-189.44 454.97,-187.29 454.93,-191.49"/>
</g>
<!-- module&#45;systems&#45;type.js -->
<g id="node15" class="node">
<title>module&#45;systems&#45;type.js</title>
<g id="a_node15"><a xlink:href="https://github.com/sverweij/dependency-cruiser/blob/develop/utl/schema/module-systems-type.js" xlink:title="module&#45;systems&#45;type.js">
<polygon fill="white" stroke="transparent" points="566,-168.82 453,-168.82 453,-150.82 566,-150.82 566,-168.82"/>
<polyline fill="none" stroke="darkgrey" points="453,-150.82 566,-150.82 "/>
<text text-anchor="middle" x="509.5" y="-157.62" font-family="Helvetica,sans-Serif" font-size="9.00" fill="darkgrey">module&#45;systems&#45;type.js</text>
</a>
</g>
</g>
<!-- options.js&#45;&gt;module&#45;systems&#45;type.js -->
<g id="edge26" class="edge">
<title>options.js&#45;&gt;module&#45;systems&#45;type.js</title>
<path fill="none" stroke="#000000" stroke-width="2" stroke-opacity="0.200000" d="M411.14,-181.54C419.71,-179.3 429.23,-176.89 438,-174.82 444.53,-173.28 451.41,-171.73 458.22,-170.24"/>
<polygon fill="#000000" fill-opacity="0.200000" stroke="#000000" stroke-width="2" stroke-opacity="0.200000" points="459.02,-172.21 464.43,-168.89 458.12,-168.11 459.02,-172.21"/>
</g>
<!-- reporter&#45;options.js -->
<g id="node18" class="node">
<title>reporter&#45;options.js</title>
<g id="a_node18"><a xlink:href="https://github.com/sverweij/dependency-cruiser/blob/develop/utl/schema/reporter-options.js" xlink:title="reporter&#45;options.js">
<path fill="#ffffcc" stroke="black" d="M549,-138.82C549,-138.82 470,-138.82 470,-138.82 467,-138.82 464,-135.82 464,-132.82 464,-132.82 464,-126.82 464,-126.82 464,-123.82 467,-120.82 470,-120.82 470,-120.82 549,-120.82 549,-120.82 552,-120.82 555,-123.82 555,-126.82 555,-126.82 555,-132.82 555,-132.82 555,-135.82 552,-138.82 549,-138.82"/>
<text text-anchor="middle" x="509.5" y="-127.62" font-family="Helvetica,sans-Serif" font-size="9.00">reporter&#45;options.js</text>
</a>
</g>
</g>
<!-- options.js&#45;&gt;reporter&#45;options.js -->
<g id="edge27" class="edge">
<title>options.js&#45;&gt;reporter&#45;options.js</title>
<path fill="none" stroke="#000000" stroke-width="2" stroke-opacity="0.200000" d="M411.33,-182.3C416.29,-180.2 421.12,-177.44 425,-173.82 435.33,-164.19 427.01,-153.7 438,-144.82 443.78,-140.15 450.67,-136.84 457.85,-134.51"/>
<polygon fill="#000000" fill-opacity="0.200000" stroke="#000000" stroke-width="2" stroke-opacity="0.200000" points="458.73,-136.44 463.92,-132.78 457.58,-132.41 458.73,-136.44"/>
</g>
<!-- restrictions.js -->
<g id="node19" class="node">
<title>restrictions.js</title>
<g id="a_node19"><a xlink:href="https://github.com/sverweij/dependency-cruiser/blob/develop/utl/schema/restrictions.js" xlink:title="restrictions.js">
<path fill="#ffffcc" stroke="black" d="M412,-111.82C412,-111.82 354,-111.82 354,-111.82 351,-111.82 348,-108.82 348,-105.82 348,-105.82 348,-99.82 348,-99.82 348,-96.82 351,-93.82 354,-93.82 354,-93.82 412,-93.82 412,-93.82 415,-93.82 418,-96.82 418,-99.82 418,-99.82 418,-105.82 418,-105.82 418,-108.82 415,-111.82 412,-111.82"/>
<text text-anchor="middle" x="383" y="-100.62" font-family="Helvetica,sans-Serif" font-size="9.00">restrictions.js</text>
</a>
</g>
</g>
<!-- rule&#45;set.js&#45;&gt;restrictions.js -->
<g id="edge29" class="edge">
<title>rule&#45;set.js&#45;&gt;restrictions.js</title>
<path fill="none" stroke="#000000" stroke-width="2" stroke-opacity="0.200000" d="M316.75,-102.82C324.48,-102.82 333.07,-102.82 341.4,-102.82"/>
<polygon fill="#000000" fill-opacity="0.200000" stroke="#000000" stroke-width="2" stroke-opacity="0.200000" points="341.71,-104.92 347.71,-102.82 341.71,-100.72 341.71,-104.92"/>
</g>
<!-- severity&#45;type.js -->
<g id="node20" class="node">
<title>severity&#45;type.js</title>
<g id="a_node20"><a xlink:href="https://github.com/sverweij/dependency-cruiser/blob/develop/utl/schema/severity-type.js" xlink:title="severity&#45;type.js">
<polygon fill="white" stroke="transparent" points="686.5,-73.82 609.5,-73.82 609.5,-55.82 686.5,-55.82 686.5,-73.82"/>
<polyline fill="none" stroke="darkgrey" points="609.5,-55.82 686.5,-55.82 "/>
<text text-anchor="middle" x="648" y="-62.62" font-family="Helvetica,sans-Serif" font-size="9.00" fill="darkgrey">severity&#45;type.js</text>
</a>
</g>
</g>
<!-- rule&#45;set.js&#45;&gt;severity&#45;type.js -->
<g id="edge30" class="edge">
<title>rule&#45;set.js&#45;&gt;severity&#45;type.js</title>
<path fill="none" stroke="#000000" stroke-width="2" stroke-opacity="0.200000" d="M296.32,-93.78C305.2,-82.84 321.88,-65 341,-57.82 430.46,-24.24 545.23,-41.29 605.61,-54.41"/>
<polygon fill="#000000" fill-opacity="0.200000" stroke="#000000" stroke-width="2" stroke-opacity="0.200000" points="605.32,-56.5 611.63,-55.75 606.23,-52.4 605.32,-56.5"/>
</g>
<!-- cruise&#45;result.schema.js -->
<g id="node8" class="node">
<title>cruise&#45;result.schema.js</title>
<g id="a_node8"><a xlink:href="https://github.com/sverweij/dependency-cruiser/blob/develop/utl/schema/cruise-result.schema.js" xlink:title="cruise&#45;result.schema.js">
<path fill="darkgreen" stroke="darkgreen" d="M104,-125.82C104,-125.82 6,-125.82 6,-125.82 3,-125.82 0,-122.82 0,-119.82 0,-119.82 0,-113.82 0,-113.82 0,-110.82 3,-107.82 6,-107.82 6,-107.82 104,-107.82 104,-107.82 107,-107.82 110,-110.82 110,-113.82 110,-113.82 110,-119.82 110,-119.82 110,-122.82 107,-125.82 104,-125.82"/>
<text text-anchor="middle" x="55" y="-114.62" font-family="Helvetica,sans-Serif" font-size="9.00" fill="#ffffcc">cruise&#45;result.schema.js</text>
</a>
</g>
</g>
<!-- modules.js -->
<g id="node9" class="node">
<title>modules.js</title>
<g id="a_node9"><a xlink:href="https://github.com/sverweij/dependency-cruiser/blob/develop/utl/schema/modules.js" xlink:title="modules.js">
<path fill="#ffffcc" stroke="black" d="M313,-54.82C313,-54.82 264,-54.82 264,-54.82 261,-54.82 258,-51.82 258,-48.82 258,-48.82 258,-42.82 258,-42.82 258,-39.82 261,-36.82 264,-36.82 264,-36.82 313,-36.82 313,-36.82 316,-36.82 319,-39.82 319,-42.82 319,-42.82 319,-48.82 319,-48.82 319,-51.82 316,-54.82 313,-54.82"/>
<text text-anchor="middle" x="288.5" y="-43.62" font-family="Helvetica,sans-Serif" font-size="9.00">modules.js</text>
</a>
</g>
</g>
<!-- cruise&#45;result.schema.js&#45;&gt;modules.js -->
<g id="edge3" class="edge">
<title>cruise&#45;result.schema.js&#45;&gt;modules.js</title>
<path fill="none" stroke="#000000" stroke-width="2" stroke-opacity="0.200000" d="M84.28,-125.9C122.19,-136.21 190.02,-148.01 236,-117.82 248.15,-109.85 241.09,-100.01 249,-87.82 255.69,-77.51 264.95,-67.32 272.71,-59.56"/>
<polygon fill="#000000" fill-opacity="0.200000" stroke="#000000" stroke-width="2" stroke-opacity="0.200000" points="274.49,-60.75 277.32,-55.06 271.56,-57.75 274.49,-60.75"/>
</g>
<!-- summary.js -->
<g id="node10" class="node">
<title>summary.js</title>
<g id="a_node10"><a xlink:href="https://github.com/sverweij/dependency-cruiser/blob/develop/utl/schema/summary.js" xlink:title="summary.js">
<path fill="#ffffcc" stroke="black" d="M205,-111.82C205,-111.82 154,-111.82 154,-111.82 151,-111.82 148,-108.82 148,-105.82 148,-105.82 148,-99.82 148,-99.82 148,-96.82 151,-93.82 154,-93.82 154,-93.82 205,-93.82 205,-93.82 208,-93.82 211,-96.82 211,-99.82 211,-99.82 211,-105.82 211,-105.82 211,-108.82 208,-111.82 205,-111.82"/>
<text text-anchor="middle" x="179.5" y="-100.62" font-family="Helvetica,sans-Serif" font-size="9.00">summary.js</text>
</a>
</g>
</g>
<!-- cruise&#45;result.schema.js&#45;&gt;summary.js -->
<g id="edge4" class="edge">
<title>cruise&#45;result.schema.js&#45;&gt;summary.js</title>
<path fill="none" stroke="#000000" stroke-width="2" stroke-opacity="0.200000" d="M110.09,-110.64C120.81,-109.41 131.83,-108.16 141.8,-107.02"/>
<polygon fill="#000000" fill-opacity="0.200000" stroke="#000000" stroke-width="2" stroke-opacity="0.200000" points="142.15,-109.09 147.87,-106.32 141.67,-104.92 142.15,-109.09"/>
</g>
<!-- dependencies.js -->
<g id="node11" class="node">
<title>dependencies.js</title>
<g id="a_node11"><a xlink:href="https://github.com/sverweij/dependency-cruiser/blob/develop/utl/schema/dependencies.js" xlink:title="dependencies.js">
<path fill="#ffffcc" stroke="black" d="M419,-81.82C419,-81.82 347,-81.82 347,-81.82 344,-81.82 341,-78.82 341,-75.82 341,-75.82 341,-69.82 341,-69.82 341,-66.82 344,-63.82 347,-63.82 347,-63.82 419,-63.82 419,-63.82 422,-63.82 425,-66.82 425,-69.82 425,-69.82 425,-75.82 425,-75.82 425,-78.82 422,-81.82 419,-81.82"/>
<text text-anchor="middle" x="383" y="-70.62" font-family="Helvetica,sans-Serif" font-size="9.00">dependencies.js</text>
</a>
</g>
</g>
<!-- modules.js&#45;&gt;dependencies.js -->
<g id="edge9" class="edge">
<title>modules.js&#45;&gt;dependencies.js</title>
<path fill="none" stroke="#000000" stroke-width="2" stroke-opacity="0.200000" d="M319.02,-54.44C327.36,-56.87 336.53,-59.55 345.23,-62.09"/>
<polygon fill="#000000" fill-opacity="0.200000" stroke="#000000" stroke-width="2" stroke-opacity="0.200000" points="344.82,-64.16 351.17,-63.82 345.99,-60.12 344.82,-64.16"/>
</g>
<!-- modules.js&#45;&gt;dependency&#45;type.js -->
<g id="edge10" class="edge">
<title>modules.js&#45;&gt;dependency&#45;type.js</title>
<path fill="none" stroke="#000000" stroke-width="2" stroke-opacity="0.200000" d="M319.26,-38.77C350.07,-33.4 397.48,-30.91 425,-57.82 462.41,-94.4 402.88,-136.04 438,-174.82 442.63,-179.93 448.54,-183.54 454.95,-186.05"/>
<polygon fill="#000000" fill-opacity="0.200000" stroke="#000000" stroke-width="2" stroke-opacity="0.200000" points="454.61,-188.15 460.97,-188.06 455.94,-184.17 454.61,-188.15"/>
</g>
<!-- rule&#45;summary.js -->
<g id="node14" class="node">
<title>rule&#45;summary.js</title>
<g id="a_node14"><a xlink:href="https://github.com/sverweij/dependency-cruiser/blob/develop/utl/schema/rule-summary.js" xlink:title="rule&#45;summary.js">
<path fill="#ffffcc" stroke="black" d="M544.5,-81.82C544.5,-81.82 474.5,-81.82 474.5,-81.82 471.5,-81.82 468.5,-78.82 468.5,-75.82 468.5,-75.82 468.5,-69.82 468.5,-69.82 468.5,-66.82 471.5,-63.82 474.5,-63.82 474.5,-63.82 544.5,-63.82 544.5,-63.82 547.5,-63.82 550.5,-66.82 550.5,-69.82 550.5,-69.82 550.5,-75.82 550.5,-75.82 550.5,-78.82 547.5,-81.82 544.5,-81.82"/>
<text text-anchor="middle" x="509.5" y="-70.62" font-family="Helvetica,sans-Serif" font-size="9.00">rule&#45;summary.js</text>
</a>
</g>
</g>
<!-- modules.js&#45;&gt;rule&#45;summary.js -->
<g id="edge11" class="edge">
<title>modules.js&#45;&gt;rule&#45;summary.js</title>
<path fill="none" stroke="#000000" stroke-width="2" stroke-opacity="0.200000" d="M298.36,-36.73C307.91,-27.65 324.02,-14.29 341,-8.82 376.54,2.62 389.64,3.17 425,-8.82 454.16,-18.71 481.12,-43.32 496.14,-58.98"/>
<polygon fill="#000000" fill-opacity="0.200000" stroke="#000000" stroke-width="2" stroke-opacity="0.200000" points="494.76,-60.59 500.4,-63.53 497.83,-57.72 494.76,-60.59"/>
</g>
<!-- summary.js&#45;&gt;rule&#45;set.js -->
<g id="edge33" class="edge">
<title>summary.js&#45;&gt;rule&#45;set.js</title>
<path fill="none" stroke="#000000" stroke-width="2" stroke-opacity="0.200000" d="M211.16,-102.82C224.66,-102.82 240.54,-102.82 254.31,-102.82"/>
<polygon fill="#000000" fill-opacity="0.200000" stroke="#000000" stroke-width="2" stroke-opacity="0.200000" points="254.48,-104.92 260.48,-102.82 254.48,-100.72 254.48,-104.92"/>
</g>
<!-- options&#45;used.js -->
<g id="node16" class="node">
<title>options&#45;used.js</title>
<g id="a_node16"><a xlink:href="https://github.com/sverweij/dependency-cruiser/blob/develop/utl/schema/options-used.js" xlink:title="options&#45;used.js">
<path fill="#ffffcc" stroke="black" d="M322,-238.82C322,-238.82 255,-238.82 255,-238.82 252,-238.82 249,-235.82 249,-232.82 249,-232.82 249,-226.82 249,-226.82 249,-223.82 252,-220.82 255,-220.82 255,-220.82 322,-220.82 322,-220.82 325,-220.82 328,-223.82 328,-226.82 328,-226.82 328,-232.82 328,-232.82 328,-235.82 325,-238.82 322,-238.82"/>
<text text-anchor="middle" x="288.5" y="-227.62" font-family="Helvetica,sans-Serif" font-size="9.00">options&#45;used.js</text>
</a>
</g>
</g>
<!-- summary.js&#45;&gt;options&#45;used.js -->
<g id="edge32" class="edge">
<title>summary.js&#45;&gt;options&#45;used.js</title>
<path fill="none" stroke="#000000" stroke-width="2" stroke-opacity="0.200000" d="M190.39,-111.91C201.86,-122.66 221.11,-141.3 236,-158.82 251.84,-177.47 268.08,-200.68 277.98,-215.38"/>
<polygon fill="#000000" fill-opacity="0.200000" stroke="#000000" stroke-width="2" stroke-opacity="0.200000" points="276.5,-216.93 281.58,-220.75 279.99,-214.59 276.5,-216.93"/>
</g>
<!-- dependencies.js&#45;&gt;dependency&#45;type.js -->
<g id="edge5" class="edge">
<title>dependencies.js&#45;&gt;dependency&#45;type.js</title>
<path fill="none" stroke="#000000" stroke-width="2" stroke-opacity="0.200000" d="M418.6,-82.07C421,-83.69 423.18,-85.59 425,-87.82 449.71,-118.12 411.22,-146.34 438,-174.82 442.66,-179.78 448.52,-183.3 454.86,-185.79"/>
<polygon fill="#000000" fill-opacity="0.200000" stroke="#000000" stroke-width="2" stroke-opacity="0.200000" points="454.44,-187.86 460.8,-187.78 455.78,-183.88 454.44,-187.86"/>
</g>
<!-- module&#45;system&#45;type.js -->
<g id="node13" class="node">
<title>module&#45;system&#45;type.js</title>
<g id="a_node13"><a xlink:href="https://github.com/sverweij/dependency-cruiser/blob/develop/utl/schema/module-system-type.js" xlink:title="module&#45;system&#45;type.js">
<polygon fill="white" stroke="transparent" points="702,-116.82 594,-116.82 594,-98.82 702,-98.82 702,-116.82"/>
<polyline fill="none" stroke="darkgrey" points="594,-98.82 702,-98.82 "/>
<text text-anchor="middle" x="648" y="-105.62" font-family="Helvetica,sans-Serif" font-size="9.00" fill="darkgrey">module&#45;system&#45;type.js</text>
</a>
</g>
</g>
<!-- dependencies.js&#45;&gt;module&#45;system&#45;type.js -->
<g id="edge6" class="edge">
<title>dependencies.js&#45;&gt;module&#45;system&#45;type.js</title>
<path fill="none" stroke="#000000" stroke-width="2" stroke-opacity="0.200000" d="M412.93,-81.86C420.98,-84.1 429.77,-86.3 438,-87.82 488.05,-97.09 545.68,-102.2 587.73,-104.93"/>
<polygon fill="#000000" fill-opacity="0.200000" stroke="#000000" stroke-width="2" stroke-opacity="0.200000" points="587.7,-107.03 593.82,-105.31 587.96,-102.84 587.7,-107.03"/>
</g>
<!-- dependencies.js&#45;&gt;rule&#45;summary.js -->
<g id="edge7" class="edge">
<title>dependencies.js&#45;&gt;rule&#45;summary.js</title>
<path fill="none" stroke="#000000" stroke-width="2" stroke-opacity="0.200000" d="M425.11,-72.82C436.93,-72.82 449.91,-72.82 462.03,-72.82"/>
<polygon fill="#000000" fill-opacity="0.200000" stroke="#000000" stroke-width="2" stroke-opacity="0.200000" points="462.28,-74.92 468.28,-72.82 462.28,-70.72 462.28,-74.92"/>
</g>
<!-- rule&#45;summary.js&#45;&gt;severity&#45;type.js -->
<g id="edge31" class="edge">
<title>rule&#45;summary.js&#45;&gt;severity&#45;type.js</title>
<path fill="none" stroke="#000000" stroke-width="2" stroke-opacity="0.200000" d="M550.72,-70.46C567.25,-69.5 586.43,-68.37 603.3,-67.38"/>
<polygon fill="#000000" fill-opacity="0.200000" stroke="#000000" stroke-width="2" stroke-opacity="0.200000" points="603.54,-69.47 609.41,-67.02 603.29,-65.28 603.54,-69.47"/>
</g>
<!-- module&#45;systems&#45;type.js&#45;&gt;module&#45;system&#45;type.js -->
<g id="edge8" class="edge">
<title>module&#45;systems&#45;type.js&#45;&gt;module&#45;system&#45;type.js</title>
<path fill="none" stroke="#000000" stroke-width="2" stroke-opacity="0.200000" d="M561.86,-150.8C568.39,-149.1 574.91,-147.12 581,-144.82 597.78,-138.5 615.43,-128.4 628.25,-120.35"/>
<polygon fill="#000000" fill-opacity="0.200000" stroke="#000000" stroke-width="2" stroke-opacity="0.200000" points="629.51,-122.04 633.43,-117.04 627.25,-118.5 629.51,-122.04"/>
</g>
<!-- options&#45;used.js&#45;&gt;compound&#45;donot&#45;follow&#45;type.js -->
<g id="edge12" class="edge">
<title>options&#45;used.js&#45;&gt;compound&#45;donot&#45;follow&#45;type.js</title>
<path fill="none" stroke="#000000" stroke-width="2" stroke-opacity="0.200000" d="M293.21,-238.95C300.14,-254.76 316.56,-287.15 341,-303.82 367.63,-321.98 401.54,-331.94 431.87,-337.39"/>
<polygon fill="#000000" fill-opacity="0.200000" stroke="#000000" stroke-width="2" stroke-opacity="0.200000" points="431.62,-339.47 437.88,-338.42 432.33,-335.34 431.62,-339.47"/>
</g>
<!-- options&#45;used.js&#45;&gt;compound&#45;exclude&#45;type.js -->
<g id="edge13" class="edge">
<title>options&#45;used.js&#45;&gt;compound&#45;exclude&#45;type.js</title>
<path fill="none" stroke="#000000" stroke-width="2" stroke-opacity="0.200000" d="M295.64,-238.84C304.29,-250.74 321.2,-271.42 341,-281.82 371.4,-297.79 408.73,-305.45 440.43,-309.04"/>
<polygon fill="#000000" fill-opacity="0.200000" stroke="#000000" stroke-width="2" stroke-opacity="0.200000" points="440.5,-311.16 446.69,-309.71 440.95,-306.98 440.5,-311.16"/>
</g>
<!-- options&#45;used.js&#45;&gt;compound&#45;focus&#45;type.js -->
<g id="edge14" class="edge">
<title>options&#45;used.js&#45;&gt;compound&#45;focus&#45;type.js</title>
<path fill="none" stroke="#000000" stroke-width="2" stroke-opacity="0.200000" d="M299.64,-239.14C309.43,-247.5 325.07,-259.29 341,-264.82 374.44,-276.43 413.83,-279.73 446.01,-279.99"/>
<polygon fill="#000000" fill-opacity="0.200000" stroke="#000000" stroke-width="2" stroke-opacity="0.200000" points="446.34,-282.09 452.35,-280 446.35,-277.89 446.34,-282.09"/>
</g>
<!-- options&#45;used.js&#45;&gt;compound&#45;include&#45;only&#45;type.js -->
<g id="edge15" class="edge">
<title>options&#45;used.js&#45;&gt;compound&#45;include&#45;only&#45;type.js</title>
<path fill="none" stroke="#000000" stroke-width="2" stroke-opacity="0.200000" d="M305.15,-238.89C315.06,-244.1 328.36,-250.13 341,-252.82 383.61,-261.9 433.45,-255.3 467.62,-248.22"/>
<polygon fill="#000000" fill-opacity="0.200000" stroke="#000000" stroke-width="2" stroke-opacity="0.200000" points="468.39,-250.2 473.81,-246.89 467.51,-246.09 468.39,-250.2"/>
</g>
<!-- options&#45;used.js&#45;&gt;options.js -->
<g id="edge18" class="edge">
<title>options&#45;used.js&#45;&gt;options.js</title>
<path fill="none" stroke="#000000" stroke-width="2" stroke-opacity="0.200000" d="M310.04,-220.61C319.46,-216.4 330.79,-211.34 341,-206.82 345.7,-204.74 350.71,-202.53 355.55,-200.4"/>
<polygon fill="#000000" fill-opacity="0.200000" stroke="#000000" stroke-width="2" stroke-opacity="0.200000" points="356.48,-202.29 361.13,-197.95 354.79,-198.44 356.48,-202.29"/>
</g>
<!-- options&#45;used.js&#45;&gt;dependency&#45;type.js -->
<g id="edge16" class="edge">
<title>options&#45;used.js&#45;&gt;dependency&#45;type.js</title>
<path fill="none" stroke="#000000" stroke-width="2" stroke-opacity="0.200000" d="M328.24,-232.97C355.61,-234.22 392.96,-233.97 425,-226.82 436.88,-224.17 464.55,-211.39 484.8,-201.58"/>
<polygon fill="#000000" fill-opacity="0.200000" stroke="#000000" stroke-width="2" stroke-opacity="0.200000" points="485.82,-203.42 490.29,-198.9 483.98,-199.64 485.82,-203.42"/>
</g>
<!-- options&#45;used.js&#45;&gt;module&#45;systems&#45;type.js -->
<g id="edge17" class="edge">
<title>options&#45;used.js&#45;&gt;module&#45;systems&#45;type.js</title>
<path fill="none" stroke="#000000" stroke-width="2" stroke-opacity="0.200000" d="M328,-226.4C362.63,-222.63 410.26,-215.49 425,-203.82 436.08,-195.06 427.01,-183.7 438,-174.82 440.74,-172.61 443.72,-170.7 446.87,-169.06"/>
<polygon fill="#000000" fill-opacity="0.200000" stroke="#000000" stroke-width="2" stroke-opacity="0.200000" points="448.12,-170.8 452.7,-166.38 446.37,-166.98 448.12,-170.8"/>
</g>
<!-- output&#45;type.js -->
<g id="node17" class="node">
<title>output&#45;type.js</title>
<g id="a_node17"><a xlink:href="https://github.com/sverweij/dependency-cruiser/blob/develop/utl/schema/output-type.js" xlink:title="output&#45;type.js">
<polygon fill="white" stroke="transparent" points="418.5,-167.82 347.5,-167.82 347.5,-149.82 418.5,-149.82 418.5,-167.82"/>
<polyline fill="none" stroke="darkgrey" points="347.5,-149.82 418.5,-149.82 "/>
<text text-anchor="middle" x="383" y="-156.62" font-family="Helvetica,sans-Serif" font-size="9.00" fill="darkgrey">output&#45;type.js</text>
</a>
</g>
</g>
<!-- options&#45;used.js&#45;&gt;output&#45;type.js -->
<g id="edge19" class="edge">
<title>options&#45;used.js&#45;&gt;output&#45;type.js</title>
<path fill="none" stroke="#000000" stroke-width="2" stroke-opacity="0.200000" d="M295.78,-220.62C304.58,-208.36 321.67,-186.74 341,-173.82 342.7,-172.68 344.5,-171.62 346.36,-170.63"/>
<polygon fill="#000000" fill-opacity="0.200000" stroke="#000000" stroke-width="2" stroke-opacity="0.200000" points="347.58,-172.37 352.06,-167.85 345.75,-168.59 347.58,-172.37"/>
</g>
<!-- options&#45;used.js&#45;&gt;reporter&#45;options.js -->
<g id="edge20" class="edge">
<title>options&#45;used.js&#45;&gt;reporter&#45;options.js</title>
<path fill="none" stroke="#000000" stroke-width="2" stroke-opacity="0.200000" d="M291.97,-220.56C297.39,-202.27 312.2,-161.77 341,-143.82 375.65,-122.23 422.45,-120.06 457.78,-122.53"/>
<polygon fill="#000000" fill-opacity="0.200000" stroke="#000000" stroke-width="2" stroke-opacity="0.200000" points="457.64,-124.62 463.79,-123 457.97,-120.43 457.64,-124.62"/>
</g>
<!-- restrictions.js&#45;&gt;dependency&#45;type.js -->
<g id="edge28" class="edge">
<title>restrictions.js&#45;&gt;dependency&#45;type.js</title>
<path fill="none" stroke="#000000" stroke-width="2" stroke-opacity="0.200000" d="M395.3,-111.95C404.29,-119.68 416.7,-131.45 425,-143.82 433.33,-156.23 426.49,-165.29 438,-174.82 443.02,-178.98 448.91,-182.06 455.11,-184.34"/>
<polygon fill="#000000" fill-opacity="0.200000" stroke="#000000" stroke-width="2" stroke-opacity="0.200000" points="454.53,-186.36 460.88,-186.22 455.83,-182.36 454.53,-186.36"/>
</g>
</g>
</svg>
