<?xml version="1.0" encoding="UTF-8" standalone="no"?>
<!DOCTYPE svg PUBLIC "-//W3C//DTD SVG 1.1//EN"
 "http://www.w3.org/Graphics/SVG/1.1/DTD/svg11.dtd">
<!-- Generated by graphviz version 2.43.0 (0)
 -->
<!-- Title: dependency&#45;cruiser output Pages: 1 -->
<svg width="694pt" height="258pt"
 viewBox="0.00 0.00 693.75 258.00" xmlns="http://www.w3.org/2000/svg" xmlns:xlink="http://www.w3.org/1999/xlink">
<g id="graph0" class="graph" transform="scale(1 1) rotate(0) translate(4 254)">
<title>dependency&#45;cruiser output</title>
<polygon fill="white" stroke="transparent" points="-4,4 -4,-254 689.75,-254 689.75,4 -4,4"/>
<!-- compound&#45;donot&#45;follow&#45;type.js -->
<g id="node1" class="node">
<title>compound&#45;donot&#45;follow&#45;type.js</title>
<g id="a_node1"><a xlink:href="https://github.com/sverweij/dependency-cruiser/blob/develop/compound-donot-follow-type.js" xlink:title="compound&#45;donot&#45;follow&#45;type.js">
<path fill="#ffffcc" stroke="black" d="M560.84,-250C560.84,-250 434.04,-250 434.04,-250 431.21,-250 428.37,-247.17 428.37,-244.33 428.37,-244.33 428.37,-238.67 428.37,-238.67 428.37,-235.83 431.21,-233 434.04,-233 434.04,-233 560.84,-233 560.84,-233 563.67,-233 566.5,-235.83 566.5,-238.67 566.5,-238.67 566.5,-244.33 566.5,-244.33 566.5,-247.17 563.67,-250 560.84,-250"/>
<text text-anchor="middle" x="497.44" y="-238.8" font-family="Helvetica,sans-Serif" font-size="9.00">compound&#45;donot&#45;follow&#45;type.js</text>
</a>
</g>
</g>
<!-- compound&#45;exclude&#45;type.js -->
<g id="node2" class="node">
<title>compound&#45;exclude&#45;type.js</title>
<g id="a_node2"><a xlink:href="https://github.com/sverweij/dependency-cruiser/blob/develop/compound-exclude-type.js" xlink:title="compound&#45;exclude&#45;type.js">
<path fill="#ffffcc" stroke="black" d="M552.33,-209C552.33,-209 442.55,-209 442.55,-209 439.72,-209 436.88,-206.17 436.88,-203.33 436.88,-203.33 436.88,-197.67 436.88,-197.67 436.88,-194.83 439.72,-192 442.55,-192 442.55,-192 552.33,-192 552.33,-192 555.16,-192 557.99,-194.83 557.99,-197.67 557.99,-197.67 557.99,-203.33 557.99,-203.33 557.99,-206.17 555.16,-209 552.33,-209"/>
<text text-anchor="middle" x="497.44" y="-197.8" font-family="Helvetica,sans-Serif" font-size="9.00">compound&#45;exclude&#45;type.js</text>
</a>
</g>
</g>
<!-- configuration.schema.js -->
<g id="node3" class="node">
<title>configuration.schema.js</title>
<g id="a_node3"><a xlink:href="https://github.com/sverweij/dependency-cruiser/blob/develop/configuration.schema.js" xlink:title="configuration.schema.js">
<path fill="#ffffcc" stroke="black" d="M225.68,-128C225.68,-128 126.92,-128 126.92,-128 124.08,-128 121.25,-125.17 121.25,-122.33 121.25,-122.33 121.25,-116.67 121.25,-116.67 121.25,-113.83 124.08,-111 126.92,-111 126.92,-111 225.68,-111 225.68,-111 228.52,-111 231.35,-113.83 231.35,-116.67 231.35,-116.67 231.35,-122.33 231.35,-122.33 231.35,-125.17 228.52,-128 225.68,-128"/>
<text text-anchor="middle" x="176.3" y="-116.8" font-family="Helvetica,sans-Serif" font-size="9.00">configuration.schema.js</text>
</a>
</g>
</g>
<!-- options.js -->
<g id="node11" class="node">
<title>options.js</title>
<g id="a_node11"><a xlink:href="https://github.com/sverweij/dependency-cruiser/blob/develop/options.js" xlink:title="options.js">
<path fill="#ffffcc" stroke="black" d="M395.99,-157C395.99,-157 353.28,-157 353.28,-157 350.44,-157 347.61,-154.17 347.61,-151.33 347.61,-151.33 347.61,-145.67 347.61,-145.67 347.61,-142.83 350.44,-140 353.28,-140 353.28,-140 395.99,-140 395.99,-140 398.82,-140 401.65,-142.83 401.65,-145.67 401.65,-145.67 401.65,-151.33 401.65,-151.33 401.65,-154.17 398.82,-157 395.99,-157"/>
<text text-anchor="middle" x="374.63" y="-145.8" font-family="Helvetica,sans-Serif" font-size="9.00">options.js</text>
</a>
</g>
</g>
<!-- configuration.schema.js&#45;&gt;options.js -->
<g id="edge1" class="edge">
<title>configuration.schema.js&#45;&gt;options.js</title>
<path fill="none" stroke="#000000" stroke-width="2" stroke-opacity="0.200000" d="M176.75,-128.07C176.75,-135.7 176.75,-145.67 176.75,-145.67 176.75,-145.67 337.53,-145.67 337.53,-145.67"/>
<polygon fill="#000000" fill-opacity="0.200000" stroke="#000000" stroke-width="2" stroke-opacity="0.200000" points="337.53,-149.17 347.53,-145.67 337.53,-142.17 337.53,-149.17"/>
</g>
<!-- rule&#45;set.js -->
<g id="node14" class="node">
<title>rule&#45;set.js</title>
<g id="a_node14"><a xlink:href="https://github.com/sverweij/dependency-cruiser/blob/develop/rule-set.js" xlink:title="rule&#45;set.js">
<path fill="#ffffcc" stroke="black" d="M304.69,-30C304.69,-30 261,-30 261,-30 258.16,-30 255.33,-27.17 255.33,-24.33 255.33,-24.33 255.33,-18.67 255.33,-18.67 255.33,-15.83 258.16,-13 261,-13 261,-13 304.69,-13 304.69,-13 307.52,-13 310.35,-15.83 310.35,-18.67 310.35,-18.67 310.35,-24.33 310.35,-24.33 310.35,-27.17 307.52,-30 304.69,-30"/>
<text text-anchor="middle" x="282.84" y="-18.8" font-family="Helvetica,sans-Serif" font-size="9.00">rule&#45;set.js</text>
</a>
</g>
</g>
<!-- configuration.schema.js&#45;&gt;rule&#45;set.js -->
<g id="edge2" class="edge">
<title>configuration.schema.js&#45;&gt;rule&#45;set.js</title>
<path fill="none" stroke="#000000" stroke-width="2" stroke-opacity="0.200000" d="M219.75,-110.97C219.75,-86.79 219.75,-19.5 219.75,-19.5 219.75,-19.5 244.98,-19.5 244.98,-19.5"/>
<polygon fill="#000000" fill-opacity="0.200000" stroke="#000000" stroke-width="2" stroke-opacity="0.200000" points="244.98,-23 254.98,-19.5 244.98,-16 244.98,-23"/>
</g>
<!-- cruise&#45;result.schema.js -->
<g id="node4" class="node">
<title>cruise&#45;result.schema.js</title>
<g id="a_node4"><a xlink:href="https://github.com/sverweij/dependency-cruiser/blob/develop/cruise-result.schema.js" xlink:title="cruise&#45;result.schema.js">
<path fill="#ffffcc" stroke="black" d="M102.37,-57C102.37,-57 5.65,-57 5.65,-57 2.82,-57 -0.01,-54.17 -0.01,-51.33 -0.01,-51.33 -0.01,-45.67 -0.01,-45.67 -0.01,-42.83 2.82,-40 5.65,-40 5.65,-40 102.37,-40 102.37,-40 105.21,-40 108.04,-42.83 108.04,-45.67 108.04,-45.67 108.04,-51.33 108.04,-51.33 108.04,-54.17 105.21,-57 102.37,-57"/>
<text text-anchor="middle" x="54.01" y="-45.8" font-family="Helvetica,sans-Serif" font-size="9.00">cruise&#45;result.schema.js</text>
</a>
</g>
</g>
<!-- modules.js -->
<g id="node9" class="node">
<title>modules.js</title>
<g id="a_node9"><a xlink:href="https://github.com/sverweij/dependency-cruiser/blob/develop/modules.js" xlink:title="modules.js">
<path fill="#ffffcc" stroke="black" d="M306.69,-71C306.69,-71 258.99,-71 258.99,-71 256.16,-71 253.32,-68.17 253.32,-65.33 253.32,-65.33 253.32,-59.67 253.32,-59.67 253.32,-56.83 256.16,-54 258.99,-54 258.99,-54 306.69,-54 306.69,-54 309.53,-54 312.36,-56.83 312.36,-59.67 312.36,-59.67 312.36,-65.33 312.36,-65.33 312.36,-68.17 309.53,-71 306.69,-71"/>
<text text-anchor="middle" x="282.84" y="-59.8" font-family="Helvetica,sans-Serif" font-size="9.00">modules.js</text>
</a>
</g>
</g>
<!-- cruise&#45;result.schema.js&#45;&gt;modules.js -->
<g id="edge3" class="edge">
<title>cruise&#45;result.schema.js&#45;&gt;modules.js</title>
<path fill="none" stroke="#000000" stroke-width="2" stroke-opacity="0.200000" d="M108.17,-51C172.08,-51 269.75,-51 269.75,-51 269.75,-51 269.75,-51.27 269.75,-51.27"/>
<polygon fill="#000000" fill-opacity="0.200000" stroke="#000000" stroke-width="2" stroke-opacity="0.200000" points="266.25,-43.67 269.75,-53.67 273.25,-43.67 266.25,-43.67"/>
</g>
<!-- summary.js -->
<g id="node17" class="node">
<title>summary.js</title>
<g id="a_node17"><a xlink:href="https://github.com/sverweij/dependency-cruiser/blob/develop/summary.js" xlink:title="summary.js">
<path fill="#ffffcc" stroke="black" d="M201.47,-43C201.47,-43 151.13,-43 151.13,-43 148.29,-43 145.46,-40.17 145.46,-37.33 145.46,-37.33 145.46,-31.67 145.46,-31.67 145.46,-28.83 148.29,-26 151.13,-26 151.13,-26 201.47,-26 201.47,-26 204.31,-26 207.14,-28.83 207.14,-31.67 207.14,-31.67 207.14,-37.33 207.14,-37.33 207.14,-40.17 204.31,-43 201.47,-43"/>
<text text-anchor="middle" x="176.3" y="-31.8" font-family="Helvetica,sans-Serif" font-size="9.00">summary.js</text>
</a>
</g>
</g>
<!-- cruise&#45;result.schema.js&#45;&gt;summary.js -->
<g id="edge4" class="edge">
<title>cruise&#45;result.schema.js&#45;&gt;summary.js</title>
<path fill="none" stroke="#000000" stroke-width="2" stroke-opacity="0.200000" d="M108.2,-48C141.08,-48 176.75,-48 176.75,-48 176.75,-48 176.75,-47.51 176.75,-47.51"/>
<polygon fill="#000000" fill-opacity="0.200000" stroke="#000000" stroke-width="2" stroke-opacity="0.200000" points="180.25,-53.13 176.75,-43.13 173.25,-53.13 180.25,-53.13"/>
</g>
<!-- dependencies.js -->
<g id="node5" class="node">
<title>dependencies.js</title>
<g id="a_node5"><a xlink:href="https://github.com/sverweij/dependency-cruiser/blob/develop/dependencies.js" xlink:title="dependencies.js">
<path fill="#ffffcc" stroke="black" d="M409.51,-99C409.51,-99 339.75,-99 339.75,-99 336.92,-99 334.08,-96.17 334.08,-93.33 334.08,-93.33 334.08,-87.67 334.08,-87.67 334.08,-84.83 336.92,-82 339.75,-82 339.75,-82 409.51,-82 409.51,-82 412.35,-82 415.18,-84.83 415.18,-87.67 415.18,-87.67 415.18,-93.33 415.18,-93.33 415.18,-96.17 412.35,-99 409.51,-99"/>
<text text-anchor="middle" x="374.63" y="-87.8" font-family="Helvetica,sans-Serif" font-size="9.00">dependencies.js</text>
</a>
</g>
</g>
<!-- dependency&#45;type.js -->
<g id="node6" class="node">
<title>dependency&#45;type.js</title>
<g id="a_node6"><a xlink:href="https://github.com/sverweij/dependency-cruiser/blob/develop/dependency-type.js" xlink:title="dependency&#45;type.js">
<path fill="#ffffcc" stroke="black" d="M538.82,-156C538.82,-156 456.05,-156 456.05,-156 453.22,-156 450.39,-153.17 450.39,-150.33 450.39,-150.33 450.39,-144.67 450.39,-144.67 450.39,-141.83 453.22,-139 456.05,-139 456.05,-139 538.82,-139 538.82,-139 541.66,-139 544.49,-141.83 544.49,-144.67 544.49,-144.67 544.49,-150.33 544.49,-150.33 544.49,-153.17 541.66,-156 538.82,-156"/>
<text text-anchor="middle" x="497.44" y="-144.8" font-family="Helvetica,sans-Serif" font-size="9.00">dependency&#45;type.js</text>
</a>
</g>
</g>
<!-- dependencies.js&#45;&gt;dependency&#45;type.js -->
<g id="edge5" class="edge">
<title>dependencies.js&#45;&gt;dependency&#45;type.js</title>
<path fill="none" stroke="#000000" stroke-width="2" stroke-opacity="0.200000" d="M415.29,-92.5C417.44,-92.5 418.75,-92.5 418.75,-92.5 418.75,-92.5 418.75,-146.86 418.75,-146.86 418.75,-146.86 440.3,-146.86 440.3,-146.86"/>
<polygon fill="#000000" fill-opacity="0.200000" stroke="#000000" stroke-width="2" stroke-opacity="0.200000" points="440.3,-150.36 450.3,-146.86 440.3,-143.36 440.3,-150.36"/>
</g>
<!-- module&#45;system&#45;type.js -->
<g id="node7" class="node">
<title>module&#45;system&#45;type.js</title>
<g id="a_node7"><a xlink:href="https://github.com/sverweij/dependency-cruiser/blob/develop/module-system-type.js" xlink:title="module&#45;system&#45;type.js">
<path fill="#ffffcc" stroke="black" d="M680.09,-113C680.09,-113 585.37,-113 585.37,-113 582.54,-113 579.71,-110.17 579.71,-107.33 579.71,-107.33 579.71,-101.67 579.71,-101.67 579.71,-98.83 582.54,-96 585.37,-96 585.37,-96 680.09,-96 680.09,-96 682.93,-96 685.76,-98.83 685.76,-101.67 685.76,-101.67 685.76,-107.33 685.76,-107.33 685.76,-110.17 682.93,-113 680.09,-113"/>
<text text-anchor="middle" x="632.73" y="-101.8" font-family="Helvetica,sans-Serif" font-size="9.00">module&#45;system&#45;type.js</text>
</a>
</g>
</g>
<!-- dependencies.js&#45;&gt;module&#45;system&#45;type.js -->
<g id="edge6" class="edge">
<title>dependencies.js&#45;&gt;module&#45;system&#45;type.js</title>
<path fill="none" stroke="#000000" stroke-width="2" stroke-opacity="0.200000" d="M415.22,-89C477.05,-89 587.75,-89 587.75,-89 587.75,-89 587.75,-89.67 587.75,-89.67"/>
<polygon fill="#000000" fill-opacity="0.200000" stroke="#000000" stroke-width="2" stroke-opacity="0.200000" points="584.25,-85.66 587.75,-95.66 591.25,-85.66 584.25,-85.66"/>
</g>
<!-- rule&#45;summary.js -->
<g id="node15" class="node">
<title>rule&#45;summary.js</title>
<g id="a_node15"><a xlink:href="https://github.com/sverweij/dependency-cruiser/blob/develop/rule-summary.js" xlink:title="rule&#45;summary.js">
<path fill="#ffffcc" stroke="black" d="M531.62,-45C531.62,-45 463.26,-45 463.26,-45 460.43,-45 457.59,-42.17 457.59,-39.33 457.59,-39.33 457.59,-33.67 457.59,-33.67 457.59,-30.83 460.43,-28 463.26,-28 463.26,-28 531.62,-28 531.62,-28 534.45,-28 537.28,-30.83 537.28,-33.67 537.28,-33.67 537.28,-39.33 537.28,-39.33 537.28,-42.17 534.45,-45 531.62,-45"/>
<text text-anchor="middle" x="497.44" y="-33.8" font-family="Helvetica,sans-Serif" font-size="9.00">rule&#45;summary.js</text>
</a>
</g>
</g>
<!-- dependencies.js&#45;&gt;rule&#45;summary.js -->
<g id="edge7" class="edge">
<title>dependencies.js&#45;&gt;rule&#45;summary.js</title>
<path fill="none" stroke="#000000" stroke-width="2" stroke-opacity="0.200000" d="M415.29,-85.5C451.15,-85.5 497.75,-85.5 497.75,-85.5 497.75,-85.5 497.75,-55.04 497.75,-55.04"/>
<polygon fill="#000000" fill-opacity="0.200000" stroke="#000000" stroke-width="2" stroke-opacity="0.200000" points="501.25,-55.04 497.75,-45.04 494.25,-55.04 501.25,-55.04"/>
</g>
<!-- module&#45;systems&#45;type.js -->
<g id="node8" class="node">
<title>module&#45;systems&#45;type.js</title>
<g id="a_node8"><a xlink:href="https://github.com/sverweij/dependency-cruiser/blob/develop/module-systems-type.js" xlink:title="module&#45;systems&#45;type.js">
<path fill="#ffffcc" stroke="black" d="M546.8,-127C546.8,-127 448.08,-127 448.08,-127 445.24,-127 442.41,-124.17 442.41,-121.33 442.41,-121.33 442.41,-115.67 442.41,-115.67 442.41,-112.83 445.24,-110 448.08,-110 448.08,-110 546.8,-110 546.8,-110 549.63,-110 552.47,-112.83 552.47,-115.67 552.47,-115.67 552.47,-121.33 552.47,-121.33 552.47,-124.17 549.63,-127 546.8,-127"/>
<text text-anchor="middle" x="497.44" y="-115.8" font-family="Helvetica,sans-Serif" font-size="9.00">module&#45;systems&#45;type.js</text>
</a>
</g>
</g>
<!-- module&#45;systems&#45;type.js&#45;&gt;module&#45;system&#45;type.js -->
<g id="edge8" class="edge">
<title>module&#45;systems&#45;type.js&#45;&gt;module&#45;system&#45;type.js</title>
<path fill="none" stroke="#000000" stroke-width="2" stroke-opacity="0.200000" d="M545.75,-109.87C545.75,-106.99 545.75,-104.5 545.75,-104.5 545.75,-104.5 569.63,-104.5 569.63,-104.5"/>
<polygon fill="#000000" fill-opacity="0.200000" stroke="#000000" stroke-width="2" stroke-opacity="0.200000" points="569.63,-108 579.63,-104.5 569.63,-101 569.63,-108"/>
</g>
<!-- modules.js&#45;&gt;dependencies.js -->
<g id="edge9" class="edge">
<title>modules.js&#45;&gt;dependencies.js</title>
<path fill="none" stroke="#000000" stroke-width="2" stroke-opacity="0.200000" d="M283.75,-71.05C283.75,-79.29 283.75,-90.5 283.75,-90.5 283.75,-90.5 323.97,-90.5 323.97,-90.5"/>
<polygon fill="#000000" fill-opacity="0.200000" stroke="#000000" stroke-width="2" stroke-opacity="0.200000" points="323.97,-94 333.97,-90.5 323.97,-87 323.97,-94"/>
</g>
<!-- modules.js&#45;&gt;dependency&#45;type.js -->
<g id="edge10" class="edge">
<title>modules.js&#45;&gt;dependency&#45;type.js</title>
<path fill="none" stroke="#000000" stroke-width="2" stroke-opacity="0.200000" d="M312.64,-62.5C353.46,-62.5 421.75,-62.5 421.75,-62.5 421.75,-62.5 421.75,-144.57 421.75,-144.57 421.75,-144.57 440.36,-144.57 440.36,-144.57"/>
<polygon fill="#000000" fill-opacity="0.200000" stroke="#000000" stroke-width="2" stroke-opacity="0.200000" points="440.36,-148.07 450.36,-144.57 440.36,-141.07 440.36,-148.07"/>
</g>
<!-- modules.js&#45;&gt;rule&#45;summary.js -->
<g id="edge11" class="edge">
<title>modules.js&#45;&gt;rule&#45;summary.js</title>
<path fill="none" stroke="#000000" stroke-width="2" stroke-opacity="0.200000" d="M296.75,-53.99C296.75,-46.4 296.75,-36.5 296.75,-36.5 296.75,-36.5 447.31,-36.5 447.31,-36.5"/>
<polygon fill="#000000" fill-opacity="0.200000" stroke="#000000" stroke-width="2" stroke-opacity="0.200000" points="447.31,-40 457.31,-36.5 447.31,-33 447.31,-40"/>
</g>
<!-- options&#45;used.js -->
<g id="node10" class="node">
<title>options&#45;used.js</title>
<g id="a_node10"><a xlink:href="https://github.com/sverweij/dependency-cruiser/blob/develop/options-used.js" xlink:title="options&#45;used.js">
<path fill="#ffffcc" stroke="black" d="M315.21,-185C315.21,-185 250.47,-185 250.47,-185 247.64,-185 244.81,-182.17 244.81,-179.33 244.81,-179.33 244.81,-173.67 244.81,-173.67 244.81,-170.83 247.64,-168 250.47,-168 250.47,-168 315.21,-168 315.21,-168 318.04,-168 320.88,-170.83 320.88,-173.67 320.88,-173.67 320.88,-179.33 320.88,-179.33 320.88,-182.17 318.04,-185 315.21,-185"/>
<text text-anchor="middle" x="282.84" y="-173.8" font-family="Helvetica,sans-Serif" font-size="9.00">options&#45;used.js</text>
</a>
</g>
</g>
<!-- options&#45;used.js&#45;&gt;compound&#45;donot&#45;follow&#45;type.js -->
<g id="edge12" class="edge">
<title>options&#45;used.js&#45;&gt;compound&#45;donot&#45;follow&#45;type.js</title>
<path fill="none" stroke="#000000" stroke-width="2" stroke-opacity="0.200000" d="M283.75,-185.09C283.75,-203.34 283.75,-244.33 283.75,-244.33 283.75,-244.33 418.35,-244.33 418.35,-244.33"/>
<polygon fill="#000000" fill-opacity="0.200000" stroke="#000000" stroke-width="2" stroke-opacity="0.200000" points="418.35,-247.83 428.35,-244.33 418.35,-240.83 418.35,-247.83"/>
</g>
<!-- options&#45;used.js&#45;&gt;compound&#45;exclude&#45;type.js -->
<g id="edge13" class="edge">
<title>options&#45;used.js&#45;&gt;compound&#45;exclude&#45;type.js</title>
<path fill="none" stroke="#000000" stroke-width="2" stroke-opacity="0.200000" d="M321.21,-181.6C369.09,-181.6 444.75,-181.6 444.75,-181.6 444.75,-181.6 444.75,-182.63 444.75,-182.63"/>
<polygon fill="#000000" fill-opacity="0.200000" stroke="#000000" stroke-width="2" stroke-opacity="0.200000" points="441.25,-181.93 444.75,-191.93 448.25,-181.93 441.25,-181.93"/>
</g>
<!-- options&#45;used.js&#45;&gt;dependency&#45;type.js -->
<g id="edge14" class="edge">
<title>options&#45;used.js&#45;&gt;dependency&#45;type.js</title>
<path fill="none" stroke="#000000" stroke-width="2" stroke-opacity="0.200000" d="M321.26,-174.8C383.08,-174.8 497.75,-174.8 497.75,-174.8 497.75,-174.8 497.75,-166.14 497.75,-166.14"/>
<polygon fill="#000000" fill-opacity="0.200000" stroke="#000000" stroke-width="2" stroke-opacity="0.200000" points="501.25,-166.14 497.75,-156.14 494.25,-166.14 501.25,-166.14"/>
</g>
<!-- options&#45;used.js&#45;&gt;module&#45;systems&#45;type.js -->
<g id="edge15" class="edge">
<title>options&#45;used.js&#45;&gt;module&#45;systems&#45;type.js</title>
<path fill="none" stroke="#000000" stroke-width="2" stroke-opacity="0.200000" d="M320.94,-178.2C394.46,-178.2 548.75,-178.2 548.75,-178.2 548.75,-178.2 548.75,-137.05 548.75,-137.05"/>
<polygon fill="#000000" fill-opacity="0.200000" stroke="#000000" stroke-width="2" stroke-opacity="0.200000" points="552.25,-137.05 548.75,-127.05 545.25,-137.05 552.25,-137.05"/>
</g>
<!-- options&#45;used.js&#45;&gt;options.js -->
<g id="edge16" class="edge">
<title>options&#45;used.js&#45;&gt;options.js</title>
<path fill="none" stroke="#000000" stroke-width="2" stroke-opacity="0.200000" d="M316.75,-167.98C316.75,-160.68 316.75,-151.33 316.75,-151.33 316.75,-151.33 337.38,-151.33 337.38,-151.33"/>
<polygon fill="#000000" fill-opacity="0.200000" stroke="#000000" stroke-width="2" stroke-opacity="0.200000" points="337.38,-154.83 347.38,-151.33 337.38,-147.83 337.38,-154.83"/>
</g>
<!-- output&#45;type.js -->
<g id="node12" class="node">
<title>output&#45;type.js</title>
<g id="a_node12"><a xlink:href="https://github.com/sverweij/dependency-cruiser/blob/develop/output-type.js" xlink:title="output&#45;type.js">
<path fill="#ffffcc" stroke="black" d="M404,-128C404,-128 345.27,-128 345.27,-128 342.44,-128 339.6,-125.17 339.6,-122.33 339.6,-122.33 339.6,-116.67 339.6,-116.67 339.6,-113.83 342.44,-111 345.27,-111 345.27,-111 404,-111 404,-111 406.83,-111 409.66,-113.83 409.66,-116.67 409.66,-116.67 409.66,-122.33 409.66,-122.33 409.66,-125.17 406.83,-128 404,-128"/>
<text text-anchor="middle" x="374.63" y="-116.8" font-family="Helvetica,sans-Serif" font-size="9.00">output&#45;type.js</text>
</a>
</g>
</g>
<!-- options&#45;used.js&#45;&gt;output&#45;type.js -->
<g id="edge17" class="edge">
<title>options&#45;used.js&#45;&gt;output&#45;type.js</title>
<path fill="none" stroke="#000000" stroke-width="2" stroke-opacity="0.200000" d="M321.07,-171.4C333.3,-171.4 343.75,-171.4 343.75,-171.4 343.75,-171.4 343.75,-138.07 343.75,-138.07"/>
<polygon fill="#000000" fill-opacity="0.200000" stroke="#000000" stroke-width="2" stroke-opacity="0.200000" points="347.25,-138.07 343.75,-128.07 340.25,-138.07 347.25,-138.07"/>
</g>
<!-- options.js&#45;&gt;compound&#45;donot&#45;follow&#45;type.js -->
<g id="edge18" class="edge">
<title>options.js&#45;&gt;compound&#45;donot&#45;follow&#45;type.js</title>
<path fill="none" stroke="#000000" stroke-width="2" stroke-opacity="0.200000" d="M374.75,-157.15C374.75,-179.71 374.75,-238.67 374.75,-238.67 374.75,-238.67 418.2,-238.67 418.2,-238.67"/>
<polygon fill="#000000" fill-opacity="0.200000" stroke="#000000" stroke-width="2" stroke-opacity="0.200000" points="418.2,-242.17 428.2,-238.67 418.2,-235.17 418.2,-242.17"/>
</g>
<!-- options.js&#45;&gt;compound&#45;exclude&#45;type.js -->
<g id="edge19" class="edge">
<title>options.js&#45;&gt;compound&#45;exclude&#45;type.js</title>
<path fill="none" stroke="#000000" stroke-width="2" stroke-opacity="0.200000" d="M401.9,-153.71C422.32,-153.71 446.75,-153.71 446.75,-153.71 446.75,-153.71 446.75,-181.92 446.75,-181.92"/>
<polygon fill="#000000" fill-opacity="0.200000" stroke="#000000" stroke-width="2" stroke-opacity="0.200000" points="443.25,-181.92 446.75,-191.92 450.25,-181.92 443.25,-181.92"/>
</g>
<!-- options.js&#45;&gt;dependency&#45;type.js -->
<g id="edge20" class="edge">
<title>options.js&#45;&gt;dependency&#45;type.js</title>
<path fill="none" stroke="#000000" stroke-width="2" stroke-opacity="0.200000" d="M401.89,-151.43C401.89,-151.43 439.98,-151.43 439.98,-151.43"/>
<polygon fill="#000000" fill-opacity="0.200000" stroke="#000000" stroke-width="2" stroke-opacity="0.200000" points="439.98,-154.93 449.98,-151.43 439.98,-147.93 439.98,-154.93"/>
</g>
<!-- options.js&#45;&gt;module&#45;systems&#45;type.js -->
<g id="edge21" class="edge">
<title>options.js&#45;&gt;module&#45;systems&#45;type.js</title>
<path fill="none" stroke="#000000" stroke-width="2" stroke-opacity="0.200000" d="M401.81,-149.14C422.96,-149.14 448.75,-149.14 448.75,-149.14 448.75,-149.14 448.75,-137.2 448.75,-137.2"/>
<polygon fill="#000000" fill-opacity="0.200000" stroke="#000000" stroke-width="2" stroke-opacity="0.200000" points="452.25,-137.2 448.75,-127.2 445.25,-137.2 452.25,-137.2"/>
</g>
<!-- restrictions.js -->
<g id="node13" class="node">
<title>restrictions.js</title>
<g id="a_node13"><a xlink:href="https://github.com/sverweij/dependency-cruiser/blob/develop/restrictions.js" xlink:title="restrictions.js">
<path fill="#ffffcc" stroke="black" d="M402.98,-17C402.98,-17 346.29,-17 346.29,-17 343.45,-17 340.62,-14.17 340.62,-11.33 340.62,-11.33 340.62,-5.67 340.62,-5.67 340.62,-2.83 343.45,0 346.29,0 346.29,0 402.98,0 402.98,0 405.81,0 408.64,-2.83 408.64,-5.67 408.64,-5.67 408.64,-11.33 408.64,-11.33 408.64,-14.17 405.81,-17 402.98,-17"/>
<text text-anchor="middle" x="374.63" y="-5.8" font-family="Helvetica,sans-Serif" font-size="9.00">restrictions.js</text>
</a>
</g>
</g>
<!-- restrictions.js&#45;&gt;dependency&#45;type.js -->
<g id="edge22" class="edge">
<title>restrictions.js&#45;&gt;dependency&#45;type.js</title>
<path fill="none" stroke="#000000" stroke-width="2" stroke-opacity="0.200000" d="M408.73,-8.5C418.1,-8.5 425.75,-8.5 425.75,-8.5 425.75,-8.5 425.75,-142.29 425.75,-142.29 425.75,-142.29 440.02,-142.29 440.02,-142.29"/>
<polygon fill="#000000" fill-opacity="0.200000" stroke="#000000" stroke-width="2" stroke-opacity="0.200000" points="440.02,-145.79 450.02,-142.29 440.02,-138.79 440.02,-145.79"/>
</g>
<!-- rule&#45;set.js&#45;&gt;restrictions.js -->
<g id="edge23" class="edge">
<title>rule&#45;set.js&#45;&gt;restrictions.js</title>
<path fill="none" stroke="#000000" stroke-width="2" stroke-opacity="0.200000" d="M283.75,-12.95C283.75,-9.58 283.75,-6.5 283.75,-6.5 283.75,-6.5 330.53,-6.5 330.53,-6.5"/>
<polygon fill="#000000" fill-opacity="0.200000" stroke="#000000" stroke-width="2" stroke-opacity="0.200000" points="330.53,-10 340.53,-6.5 330.53,-3 330.53,-10"/>
</g>
<!-- severity&#45;type.js -->
<g id="node16" class="node">
<title>severity&#45;type.js</title>
<g id="a_node16"><a xlink:href="https://github.com/sverweij/dependency-cruiser/blob/develop/severity-type.js" xlink:title="severity&#45;type.js">
<path fill="#ffffcc" stroke="black" d="M665.08,-17C665.08,-17 600.38,-17 600.38,-17 597.55,-17 594.72,-14.17 594.72,-11.33 594.72,-11.33 594.72,-5.67 594.72,-5.67 594.72,-2.83 597.55,0 600.38,0 600.38,0 665.08,0 665.08,0 667.92,0 670.75,-2.83 670.75,-5.67 670.75,-5.67 670.75,-11.33 670.75,-11.33 670.75,-14.17 667.92,-17 665.08,-17"/>
<text text-anchor="middle" x="632.73" y="-5.8" font-family="Helvetica,sans-Serif" font-size="9.00">severity&#45;type.js</text>
</a>
</g>
</g>
<!-- rule&#45;set.js&#45;&gt;severity&#45;type.js -->
<g id="edge24" class="edge">
<title>rule&#45;set.js&#45;&gt;severity&#45;type.js</title>
<path fill="none" stroke="#000000" stroke-width="2" stroke-opacity="0.200000" d="M310.49,-22.5C391.2,-22.5 620.75,-22.5 620.75,-22.5 620.75,-22.5 620.75,-21.96 620.75,-21.96"/>
<polygon fill="#000000" fill-opacity="0.200000" stroke="#000000" stroke-width="2" stroke-opacity="0.200000" points="624.25,-27.13 620.75,-17.13 617.25,-27.13 624.25,-27.13"/>
</g>
<!-- rule&#45;summary.js&#45;&gt;severity&#45;type.js -->
<g id="edge25" class="edge">
<title>rule&#45;summary.js&#45;&gt;severity&#45;type.js</title>
<path fill="none" stroke="#000000" stroke-width="2" stroke-opacity="0.200000" d="M537.18,-36.5C581.11,-36.5 645.75,-36.5 645.75,-36.5 645.75,-36.5 645.75,-27.05 645.75,-27.05"/>
<polygon fill="#000000" fill-opacity="0.200000" stroke="#000000" stroke-width="2" stroke-opacity="0.200000" points="649.25,-27.05 645.75,-17.05 642.25,-27.05 649.25,-27.05"/>
</g>
<!-- summary.js&#45;&gt;options&#45;used.js -->
<g id="edge26" class="edge">
<title>summary.js&#45;&gt;options&#45;used.js</title>
<path fill="none" stroke="#000000" stroke-width="2" stroke-opacity="0.200000" d="M207.02,-39.75C227.15,-39.75 249.75,-39.75 249.75,-39.75 249.75,-39.75 249.75,-157.95 249.75,-157.95"/>
<polygon fill="#000000" fill-opacity="0.200000" stroke="#000000" stroke-width="2" stroke-opacity="0.200000" points="246.25,-157.95 249.75,-167.95 253.25,-157.95 246.25,-157.95"/>
</g>
<!-- summary.js&#45;&gt;rule&#45;set.js -->
<g id="edge27" class="edge">
<title>summary.js&#45;&gt;rule&#45;set.js</title>
<path fill="none" stroke="#000000" stroke-width="2" stroke-opacity="0.200000" d="M207.09,-33.25C238.84,-33.25 283.75,-33.25 283.75,-33.25 283.75,-33.25 283.75,-32.93 283.75,-32.93"/>
<polygon fill="#000000" fill-opacity="0.200000" stroke="#000000" stroke-width="2" stroke-opacity="0.200000" points="287.25,-40.04 283.75,-30.04 280.25,-40.04 287.25,-40.04"/>
</g>
</g>
</svg>
