<?xml version="1.0" encoding="UTF-8" standalone="no"?>
<!DOCTYPE svg PUBLIC "-//W3C//DTD SVG 1.1//EN"
 "http://www.w3.org/Graphics/SVG/1.1/DTD/svg11.dtd">
<!-- Generated by graphviz version 2.44.0 (20200408.0750)
 -->
<!-- Title: dependency&#45;cruiser output Pages: 1 -->
<svg width="765pt" height="489pt"
 viewBox="0.00 0.00 765.00 489.00" xmlns="http://www.w3.org/2000/svg" xmlns:xlink="http://www.w3.org/1999/xlink">
<g id="graph0" class="graph" transform="scale(1 1) rotate(0) translate(4 485)">
<title>dependency&#45;cruiser output</title>
<polygon fill="white" stroke="transparent" points="-4,4 -4,-485 761,-485 761,4 -4,4"/>
<!-- compound&#45;donot&#45;follow&#45;type.mjs -->
<g id="node1" class="node">
<title>compound&#45;donot&#45;follow&#45;type.mjs</title>
<g id="a_node1"><a xlink:href="https://github.com/sverweij/dependency-cruiser/blob/develop/utl/schema/compound-donot-follow-type.mjs" xlink:title="compound&#45;donot&#45;follow&#45;type.mjs">
<polygon fill="white" stroke="transparent" points="757,-214 607,-214 607,-196 757,-196 757,-214"/>
<polyline fill="none" stroke="black" points="607,-196 757,-196 "/>
<text text-anchor="middle" x="682" y="-202.8" font-family="Helvetica,sans-Serif" font-size="9.00">compound&#45;donot&#45;follow&#45;type.mjs</text>
</a>
</g>
</g>
<!-- compound&#45;exclude&#45;type.mjs -->
<g id="node2" class="node">
<title>compound&#45;exclude&#45;type.mjs</title>
<g id="a_node2"><a xlink:href="https://github.com/sverweij/dependency-cruiser/blob/develop/utl/schema/compound-exclude-type.mjs" xlink:title="compound&#45;exclude&#45;type.mjs">
<polygon fill="white" stroke="transparent" points="748,-168 616,-168 616,-150 748,-150 748,-168"/>
<polyline fill="none" stroke="black" points="616,-150 748,-150 "/>
<text text-anchor="middle" x="682" y="-156.8" font-family="Helvetica,sans-Serif" font-size="9.00">compound&#45;exclude&#45;type.mjs</text>
</a>
</g>
</g>
<!-- compound&#45;focus&#45;type.mjs -->
<g id="node3" class="node">
<title>compound&#45;focus&#45;type.mjs</title>
<g id="a_node3"><a xlink:href="https://github.com/sverweij/dependency-cruiser/blob/develop/utl/schema/compound-focus-type.mjs" xlink:title="compound&#45;focus&#45;type.mjs">
<polygon fill="white" stroke="transparent" points="743,-127 621,-127 621,-109 743,-109 743,-127"/>
<polyline fill="none" stroke="black" points="621,-109 743,-109 "/>
<text text-anchor="middle" x="682" y="-115.8" font-family="Helvetica,sans-Serif" font-size="9.00">compound&#45;focus&#45;type.mjs</text>
</a>
</g>
</g>
<!-- compound&#45;include&#45;only&#45;type.mjs -->
<g id="node4" class="node">
<title>compound&#45;include&#45;only&#45;type.mjs</title>
<g id="a_node4"><a xlink:href="https://github.com/sverweij/dependency-cruiser/blob/develop/utl/schema/compound-include-only-type.mjs" xlink:title="compound&#45;include&#45;only&#45;type.mjs">
<polygon fill="white" stroke="transparent" points="757,-87 607,-87 607,-69 757,-69 757,-87"/>
<polyline fill="none" stroke="black" points="607,-69 757,-69 "/>
<text text-anchor="middle" x="682" y="-75.8" font-family="Helvetica,sans-Serif" font-size="9.00">compound&#45;include&#45;only&#45;type.mjs</text>
</a>
</g>
</g>
<!-- configuration.schema.mjs -->
<g id="node5" class="node">
<title>configuration.schema.mjs</title>
<g id="a_node5"><a xlink:href="https://github.com/sverweij/dependency-cruiser/blob/develop/utl/schema/configuration.schema.mjs" xlink:title="configuration.schema.mjs">
<path fill="darkgreen" stroke="darkgreen" d="M247,-106C247,-106 138,-106 138,-106 135,-106 132,-103 132,-100 132,-100 132,-94 132,-94 132,-91 135,-88 138,-88 138,-88 247,-88 247,-88 250,-88 253,-91 253,-94 253,-94 253,-100 253,-100 253,-103 250,-106 247,-106"/>
<text text-anchor="middle" x="192.5" y="-94.8" font-family="Helvetica,sans-Serif" font-size="9.00" fill="#ffffcc">configuration.schema.mjs</text>
</a>
</g>
</g>
<!-- options.mjs -->
<g id="node6" class="node">
<title>options.mjs</title>
<g id="a_node6"><a xlink:href="https://github.com/sverweij/dependency-cruiser/blob/develop/utl/schema/options.mjs" xlink:title="options.mjs">
<path fill="#ffffcc" stroke="black" d="M438.5,-85C438.5,-85 387.5,-85 387.5,-85 384.5,-85 381.5,-82 381.5,-79 381.5,-79 381.5,-73 381.5,-73 381.5,-70 384.5,-67 387.5,-67 387.5,-67 438.5,-67 438.5,-67 441.5,-67 444.5,-70 444.5,-73 444.5,-73 444.5,-79 444.5,-79 444.5,-82 441.5,-85 438.5,-85"/>
<text text-anchor="middle" x="413" y="-73.8" font-family="Helvetica,sans-Serif" font-size="9.00">options.mjs</text>
</a>
</g>
</g>
<!-- configuration.schema.mjs&#45;&gt;options.mjs -->
<g id="edge1" class="edge">
<title>configuration.schema.mjs&#45;&gt;options.mjs</title>
<path fill="none" stroke="#000000" stroke-width="2" stroke-opacity="0.200000" d="M253.04,-100C318.32,-100 413,-100 413,-100 413,-100 413,-91.21 413,-91.21"/>
<polygon fill="#000000" fill-opacity="0.200000" stroke="#000000" stroke-width="2" stroke-opacity="0.200000" points="415.1,-91.21 413,-85.21 410.9,-91.21 415.1,-91.21"/>
</g>
<!-- rule&#45;set.mjs -->
<g id="node7" class="node">
<title>rule&#45;set.mjs</title>
<g id="a_node7"><a xlink:href="https://github.com/sverweij/dependency-cruiser/blob/develop/utl/schema/rule-set.mjs" xlink:title="rule&#45;set.mjs">
<path fill="#ffffcc" stroke="black" d="M336,-84C336,-84 284,-84 284,-84 281,-84 278,-81 278,-78 278,-78 278,-72 278,-72 278,-69 281,-66 284,-66 284,-66 336,-66 336,-66 339,-66 342,-69 342,-72 342,-72 342,-78 342,-78 342,-81 339,-84 336,-84"/>
<text text-anchor="middle" x="310" y="-72.8" font-family="Helvetica,sans-Serif" font-size="9.00">rule&#45;set.mjs</text>
</a>
</g>
</g>
<!-- configuration.schema.mjs&#45;&gt;rule&#45;set.mjs -->
<g id="edge2" class="edge">
<title>configuration.schema.mjs&#45;&gt;rule&#45;set.mjs</title>
<path fill="none" stroke="#000000" stroke-width="2" stroke-opacity="0.200000" d="M253.36,-94C286.58,-94 321,-94 321,-94 321,-94 321,-90.05 321,-90.05"/>
<polygon fill="#000000" fill-opacity="0.200000" stroke="#000000" stroke-width="2" stroke-opacity="0.200000" points="323.1,-90.05 321,-84.05 318.9,-90.05 323.1,-90.05"/>
</g>
<!-- options.mjs&#45;&gt;compound&#45;donot&#45;follow&#45;type.mjs -->
<g id="edge21" class="edge">
<title>options.mjs&#45;&gt;compound&#45;donot&#45;follow&#45;type.mjs</title>
<path fill="none" stroke="#000000" stroke-width="2" stroke-opacity="0.200000" d="M444.5,-83C457.68,-83 470,-83 470,-83 470,-83 470,-203.5 470,-203.5 470,-203.5 600.96,-203.5 600.96,-203.5"/>
<polygon fill="#000000" fill-opacity="0.200000" stroke="#000000" stroke-width="2" stroke-opacity="0.200000" points="600.96,-205.6 606.96,-203.5 600.96,-201.4 600.96,-205.6"/>
</g>
<!-- options.mjs&#45;&gt;compound&#45;exclude&#45;type.mjs -->
<g id="edge22" class="edge">
<title>options.mjs&#45;&gt;compound&#45;exclude&#45;type.mjs</title>
<path fill="none" stroke="#000000" stroke-width="2" stroke-opacity="0.200000" d="M444.61,-79C462.37,-79 481,-79 481,-79 481,-79 481,-159 481,-159 481,-159 609.91,-159 609.91,-159"/>
<polygon fill="#000000" fill-opacity="0.200000" stroke="#000000" stroke-width="2" stroke-opacity="0.200000" points="609.91,-161.1 615.91,-159 609.91,-156.9 609.91,-161.1"/>
</g>
<!-- options.mjs&#45;&gt;compound&#45;focus&#45;type.mjs -->
<g id="edge23" class="edge">
<title>options.mjs&#45;&gt;compound&#45;focus&#45;type.mjs</title>
<path fill="none" stroke="#000000" stroke-width="2" stroke-opacity="0.200000" d="M444.69,-75C495.12,-75 588,-75 588,-75 588,-75 588,-115.4 588,-115.4 588,-115.4 614.88,-115.4 614.88,-115.4"/>
<polygon fill="#000000" fill-opacity="0.200000" stroke="#000000" stroke-width="2" stroke-opacity="0.200000" points="614.88,-117.5 620.88,-115.4 614.88,-113.3 614.88,-117.5"/>
</g>
<!-- options.mjs&#45;&gt;compound&#45;include&#45;only&#45;type.mjs -->
<g id="edge24" class="edge">
<title>options.mjs&#45;&gt;compound&#45;include&#45;only&#45;type.mjs</title>
<path fill="none" stroke="#000000" stroke-width="2" stroke-opacity="0.200000" d="M444.65,-71C444.65,-71 600.75,-71 600.75,-71"/>
<polygon fill="#000000" fill-opacity="0.200000" stroke="#000000" stroke-width="2" stroke-opacity="0.200000" points="600.75,-73.1 606.75,-71 600.75,-68.9 600.75,-73.1"/>
</g>
<!-- dependency&#45;type.mjs -->
<g id="node12" class="node">
<title>dependency&#45;type.mjs</title>
<g id="a_node12"><a xlink:href="https://github.com/sverweij/dependency-cruiser/blob/develop/utl/schema/dependency-type.mjs" xlink:title="dependency&#45;type.mjs">
<polygon fill="white" stroke="transparent" points="585,-475 481,-475 481,-457 585,-457 585,-475"/>
<polyline fill="none" stroke="black" points="481,-457 585,-457 "/>
<text text-anchor="middle" x="533" y="-463.8" font-family="Helvetica,sans-Serif" font-size="9.00">dependency&#45;type.mjs</text>
</a>
</g>
</g>
<!-- options.mjs&#45;&gt;dependency&#45;type.mjs -->
<g id="edge25" class="edge">
<title>options.mjs&#45;&gt;dependency&#45;type.mjs</title>
<path fill="none" stroke="#000000" stroke-width="2" stroke-opacity="0.200000" d="M444.8,-73C497.7,-73 598,-73 598,-73 598,-73 598,-466 598,-466 598,-466 591.16,-466 591.16,-466"/>
<polygon fill="#000000" fill-opacity="0.200000" stroke="#000000" stroke-width="2" stroke-opacity="0.200000" points="591.16,-463.9 585.16,-466 591.16,-468.1 591.16,-463.9"/>
</g>
<!-- module&#45;systems&#45;type.mjs -->
<g id="node15" class="node">
<title>module&#45;systems&#45;type.mjs</title>
<g id="a_node15"><a xlink:href="https://github.com/sverweij/dependency-cruiser/blob/develop/utl/schema/module-systems-type.mjs" xlink:title="module&#45;systems&#45;type.mjs">
<polygon fill="white" stroke="transparent" points="593,-257 473,-257 473,-239 593,-239 593,-257"/>
<polyline fill="none" stroke="black" points="473,-239 593,-239 "/>
<text text-anchor="middle" x="533" y="-245.8" font-family="Helvetica,sans-Serif" font-size="9.00">module&#45;systems&#45;type.mjs</text>
</a>
</g>
</g>
<!-- options.mjs&#45;&gt;module&#45;systems&#45;type.mjs -->
<g id="edge26" class="edge">
<title>options.mjs&#45;&gt;module&#45;systems&#45;type.mjs</title>
<path fill="none" stroke="#000000" stroke-width="2" stroke-opacity="0.200000" d="M444.63,-81C460.75,-81 477,-81 477,-81 477,-81 477,-232.54 477,-232.54"/>
<polygon fill="#000000" fill-opacity="0.200000" stroke="#000000" stroke-width="2" stroke-opacity="0.200000" points="474.9,-232.54 477,-238.54 479.1,-232.54 474.9,-232.54"/>
</g>
<!-- reporter&#45;options.mjs -->
<g id="node18" class="node">
<title>reporter&#45;options.mjs</title>
<g id="a_node18"><a xlink:href="https://github.com/sverweij/dependency-cruiser/blob/develop/utl/schema/reporter-options.mjs" xlink:title="reporter&#45;options.mjs">
<path fill="#ffffcc" stroke="black" d="M576,-125C576,-125 490,-125 490,-125 487,-125 484,-122 484,-119 484,-119 484,-113 484,-113 484,-110 487,-107 490,-107 490,-107 576,-107 576,-107 579,-107 582,-110 582,-113 582,-113 582,-119 582,-119 582,-122 579,-125 576,-125"/>
<text text-anchor="middle" x="533" y="-113.8" font-family="Helvetica,sans-Serif" font-size="9.00">reporter&#45;options.mjs</text>
</a>
</g>
</g>
<!-- options.mjs&#45;&gt;reporter&#45;options.mjs -->
<g id="edge27" class="edge">
<title>options.mjs&#45;&gt;reporter&#45;options.mjs</title>
<path fill="none" stroke="#000000" stroke-width="2" stroke-opacity="0.200000" d="M444.53,-77C480.08,-77 533,-77 533,-77 533,-77 533,-100.95 533,-100.95"/>
<polygon fill="#000000" fill-opacity="0.200000" stroke="#000000" stroke-width="2" stroke-opacity="0.200000" points="530.9,-100.95 533,-106.95 535.1,-100.95 530.9,-100.95"/>
</g>
<!-- restrictions.mjs -->
<g id="node19" class="node">
<title>restrictions.mjs</title>
<g id="a_node19"><a xlink:href="https://github.com/sverweij/dependency-cruiser/blob/develop/utl/schema/restrictions.mjs" xlink:title="restrictions.mjs">
<path fill="#ffffcc" stroke="black" d="M445.5,-125C445.5,-125 380.5,-125 380.5,-125 377.5,-125 374.5,-122 374.5,-119 374.5,-119 374.5,-113 374.5,-113 374.5,-110 377.5,-107 380.5,-107 380.5,-107 445.5,-107 445.5,-107 448.5,-107 451.5,-110 451.5,-113 451.5,-113 451.5,-119 451.5,-119 451.5,-122 448.5,-125 445.5,-125"/>
<text text-anchor="middle" x="413" y="-113.8" font-family="Helvetica,sans-Serif" font-size="9.00">restrictions.mjs</text>
</a>
</g>
</g>
<!-- rule&#45;set.mjs&#45;&gt;restrictions.mjs -->
<g id="edge33" class="edge">
<title>rule&#45;set.mjs&#45;&gt;restrictions.mjs</title>
<path fill="none" stroke="#000000" stroke-width="2" stroke-opacity="0.200000" d="M342.01,-78.33C359.65,-78.33 378,-78.33 378,-78.33 378,-78.33 378,-100.88 378,-100.88"/>
<polygon fill="#000000" fill-opacity="0.200000" stroke="#000000" stroke-width="2" stroke-opacity="0.200000" points="375.9,-100.88 378,-106.88 380.1,-100.88 375.9,-100.88"/>
</g>
<!-- severity&#45;type.mjs -->
<g id="node20" class="node">
<title>severity&#45;type.mjs</title>
<g id="a_node20"><a xlink:href="https://github.com/sverweij/dependency-cruiser/blob/develop/utl/schema/severity-type.mjs" xlink:title="severity&#45;type.mjs">
<polygon fill="white" stroke="transparent" points="724.5,-18 639.5,-18 639.5,0 724.5,0 724.5,-18"/>
<polyline fill="none" stroke="black" points="639.5,0 724.5,0 "/>
<text text-anchor="middle" x="682" y="-6.8" font-family="Helvetica,sans-Serif" font-size="9.00">severity&#45;type.mjs</text>
</a>
</g>
</g>
<!-- rule&#45;set.mjs&#45;&gt;severity&#45;type.mjs -->
<g id="edge34" class="edge">
<title>rule&#45;set.mjs&#45;&gt;severity&#45;type.mjs</title>
<path fill="none" stroke="#000000" stroke-width="2" stroke-opacity="0.200000" d="M310,-65.98C310,-47.28 310,-6 310,-6 310,-6 633.33,-6 633.33,-6"/>
<polygon fill="#000000" fill-opacity="0.200000" stroke="#000000" stroke-width="2" stroke-opacity="0.200000" points="633.33,-8.1 639.33,-6 633.33,-3.9 633.33,-8.1"/>
</g>
<!-- cruise&#45;result.schema.mjs -->
<g id="node8" class="node">
<title>cruise&#45;result.schema.mjs</title>
<g id="a_node8"><a xlink:href="https://github.com/sverweij/dependency-cruiser/blob/develop/utl/schema/cruise-result.schema.mjs" xlink:title="cruise&#45;result.schema.mjs">
<path fill="darkgreen" stroke="darkgreen" d="M112,-299C112,-299 6,-299 6,-299 3,-299 0,-296 0,-293 0,-293 0,-287 0,-287 0,-284 3,-281 6,-281 6,-281 112,-281 112,-281 115,-281 118,-284 118,-287 118,-287 118,-293 118,-293 118,-296 115,-299 112,-299"/>
<text text-anchor="middle" x="59" y="-287.8" font-family="Helvetica,sans-Serif" font-size="9.00" fill="#ffffcc">cruise&#45;result.schema.mjs</text>
</a>
</g>
</g>
<!-- modules.mjs -->
<g id="node9" class="node">
<title>modules.mjs</title>
<g id="a_node9"><a xlink:href="https://github.com/sverweij/dependency-cruiser/blob/develop/utl/schema/modules.mjs" xlink:title="modules.mjs">
<path fill="#ffffcc" stroke="black" d="M338,-415C338,-415 282,-415 282,-415 279,-415 276,-412 276,-409 276,-409 276,-403 276,-403 276,-400 279,-397 282,-397 282,-397 338,-397 338,-397 341,-397 344,-400 344,-403 344,-403 344,-409 344,-409 344,-412 341,-415 338,-415"/>
<text text-anchor="middle" x="310" y="-403.8" font-family="Helvetica,sans-Serif" font-size="9.00">modules.mjs</text>
</a>
</g>
</g>
<!-- cruise&#45;result.schema.mjs&#45;&gt;modules.mjs -->
<g id="edge3" class="edge">
<title>cruise&#45;result.schema.mjs&#45;&gt;modules.mjs</title>
<path fill="none" stroke="#000000" stroke-width="2" stroke-opacity="0.200000" d="M118.02,-293C189.08,-293 299,-293 299,-293 299,-293 299,-390.75 299,-390.75"/>
<polygon fill="#000000" fill-opacity="0.200000" stroke="#000000" stroke-width="2" stroke-opacity="0.200000" points="296.9,-390.75 299,-396.75 301.1,-390.75 296.9,-390.75"/>
</g>
<!-- summary.mjs -->
<g id="node10" class="node">
<title>summary.mjs</title>
<g id="a_node10"><a xlink:href="https://github.com/sverweij/dependency-cruiser/blob/develop/utl/schema/summary.mjs" xlink:title="summary.mjs">
<path fill="#ffffcc" stroke="black" d="M222,-254C222,-254 163,-254 163,-254 160,-254 157,-251 157,-248 157,-248 157,-242 157,-242 157,-239 160,-236 163,-236 163,-236 222,-236 222,-236 225,-236 228,-239 228,-242 228,-242 228,-248 228,-248 228,-251 225,-254 222,-254"/>
<text text-anchor="middle" x="192.5" y="-242.8" font-family="Helvetica,sans-Serif" font-size="9.00">summary.mjs</text>
</a>
</g>
</g>
<!-- cruise&#45;result.schema.mjs&#45;&gt;summary.mjs -->
<g id="edge4" class="edge">
<title>cruise&#45;result.schema.mjs&#45;&gt;summary.mjs</title>
<path fill="none" stroke="#000000" stroke-width="2" stroke-opacity="0.200000" d="M118.16,-287C154.06,-287 193,-287 193,-287 193,-287 193,-260.32 193,-260.32"/>
<polygon fill="#000000" fill-opacity="0.200000" stroke="#000000" stroke-width="2" stroke-opacity="0.200000" points="195.1,-260.32 193,-254.32 190.9,-260.32 195.1,-260.32"/>
</g>
<!-- dependencies.mjs -->
<g id="node11" class="node">
<title>dependencies.mjs</title>
<g id="a_node11"><a xlink:href="https://github.com/sverweij/dependency-cruiser/blob/develop/utl/schema/dependencies.mjs" xlink:title="dependencies.mjs">
<path fill="#ffffcc" stroke="black" d="M453,-481C453,-481 373,-481 373,-481 370,-481 367,-478 367,-475 367,-475 367,-469 367,-469 367,-466 370,-463 373,-463 373,-463 453,-463 453,-463 456,-463 459,-466 459,-469 459,-469 459,-475 459,-475 459,-478 456,-481 453,-481"/>
<text text-anchor="middle" x="413" y="-469.8" font-family="Helvetica,sans-Serif" font-size="9.00">dependencies.mjs</text>
</a>
</g>
</g>
<!-- modules.mjs&#45;&gt;dependencies.mjs -->
<g id="edge9" class="edge">
<title>modules.mjs&#45;&gt;dependencies.mjs</title>
<path fill="none" stroke="#000000" stroke-width="2" stroke-opacity="0.200000" d="M310,-415.18C310,-433.31 310,-472 310,-472 310,-472 360.92,-472 360.92,-472"/>
<polygon fill="#000000" fill-opacity="0.200000" stroke="#000000" stroke-width="2" stroke-opacity="0.200000" points="360.92,-474.1 366.92,-472 360.92,-469.9 360.92,-474.1"/>
</g>
<!-- modules.mjs&#45;&gt;dependency&#45;type.mjs -->
<g id="edge10" class="edge">
<title>modules.mjs&#45;&gt;dependency&#45;type.mjs</title>
<path fill="none" stroke="#000000" stroke-width="2" stroke-opacity="0.200000" d="M344.38,-406C395.09,-406 484,-406 484,-406 484,-406 484,-450.89 484,-450.89"/>
<polygon fill="#000000" fill-opacity="0.200000" stroke="#000000" stroke-width="2" stroke-opacity="0.200000" points="481.9,-450.89 484,-456.89 486.1,-450.89 481.9,-450.89"/>
</g>
<!-- rule&#45;summary.mjs -->
<g id="node14" class="node">
<title>rule&#45;summary.mjs</title>
<g id="a_node14"><a xlink:href="https://github.com/sverweij/dependency-cruiser/blob/develop/utl/schema/rule-summary.mjs" xlink:title="rule&#45;summary.mjs">
<path fill="#ffffcc" stroke="black" d="M571.5,-389C571.5,-389 494.5,-389 494.5,-389 491.5,-389 488.5,-386 488.5,-383 488.5,-383 488.5,-377 488.5,-377 488.5,-374 491.5,-371 494.5,-371 494.5,-371 571.5,-371 571.5,-371 574.5,-371 577.5,-374 577.5,-377 577.5,-377 577.5,-383 577.5,-383 577.5,-386 574.5,-389 571.5,-389"/>
<text text-anchor="middle" x="533" y="-377.8" font-family="Helvetica,sans-Serif" font-size="9.00">rule&#45;summary.mjs</text>
</a>
</g>
</g>
<!-- modules.mjs&#45;&gt;rule&#45;summary.mjs -->
<g id="edge11" class="edge">
<title>modules.mjs&#45;&gt;rule&#45;summary.mjs</title>
<path fill="none" stroke="#000000" stroke-width="2" stroke-opacity="0.200000" d="M322,-396.82C322,-388.33 322,-377 322,-377 322,-377 482.25,-377 482.25,-377"/>
<polygon fill="#000000" fill-opacity="0.200000" stroke="#000000" stroke-width="2" stroke-opacity="0.200000" points="482.25,-379.1 488.25,-377 482.25,-374.9 482.25,-379.1"/>
</g>
<!-- summary.mjs&#45;&gt;rule&#45;set.mjs -->
<g id="edge37" class="edge">
<title>summary.mjs&#45;&gt;rule&#45;set.mjs</title>
<path fill="none" stroke="#000000" stroke-width="2" stroke-opacity="0.200000" d="M228.23,-242C244.42,-242 260,-242 260,-242 260,-242 260,-75 260,-75 260,-75 271.77,-75 271.77,-75"/>
<polygon fill="#000000" fill-opacity="0.200000" stroke="#000000" stroke-width="2" stroke-opacity="0.200000" points="271.77,-77.1 277.77,-75 271.77,-72.9 271.77,-77.1"/>
</g>
<!-- options&#45;used.mjs -->
<g id="node16" class="node">
<title>options&#45;used.mjs</title>
<g id="a_node16"><a xlink:href="https://github.com/sverweij/dependency-cruiser/blob/develop/utl/schema/options-used.mjs" xlink:title="options&#45;used.mjs">
<path fill="#ffffcc" stroke="black" d="M347,-254C347,-254 273,-254 273,-254 270,-254 267,-251 267,-248 267,-248 267,-242 267,-242 267,-239 270,-236 273,-236 273,-236 347,-236 347,-236 350,-236 353,-239 353,-242 353,-242 353,-248 353,-248 353,-251 350,-254 347,-254"/>
<text text-anchor="middle" x="310" y="-242.8" font-family="Helvetica,sans-Serif" font-size="9.00">options&#45;used.mjs</text>
</a>
</g>
</g>
<!-- summary.mjs&#45;&gt;options&#45;used.mjs -->
<g id="edge36" class="edge">
<title>summary.mjs&#45;&gt;options&#45;used.mjs</title>
<path fill="none" stroke="#000000" stroke-width="2" stroke-opacity="0.200000" d="M228.07,-248C228.07,-248 260.67,-248 260.67,-248"/>
<polygon fill="#000000" fill-opacity="0.200000" stroke="#000000" stroke-width="2" stroke-opacity="0.200000" points="260.67,-250.1 266.67,-248 260.67,-245.9 260.67,-250.1"/>
</g>
<!-- dependencies.mjs&#45;&gt;dependency&#45;type.mjs -->
<g id="edge5" class="edge">
<title>dependencies.mjs&#45;&gt;dependency&#45;type.mjs</title>
<path fill="none" stroke="#000000" stroke-width="2" stroke-opacity="0.200000" d="M459.05,-471C459.05,-471 474.87,-471 474.87,-471"/>
<polygon fill="#000000" fill-opacity="0.200000" stroke="#000000" stroke-width="2" stroke-opacity="0.200000" points="474.87,-473.1 480.87,-471 474.87,-468.9 474.87,-473.1"/>
</g>
<!-- module&#45;system&#45;type.mjs -->
<g id="node13" class="node">
<title>module&#45;system&#45;type.mjs</title>
<g id="a_node13"><a xlink:href="https://github.com/sverweij/dependency-cruiser/blob/develop/utl/schema/module-system-type.mjs" xlink:title="module&#45;system&#45;type.mjs">
<polygon fill="white" stroke="transparent" points="740,-344 624,-344 624,-326 740,-326 740,-344"/>
<polyline fill="none" stroke="black" points="624,-326 740,-326 "/>
<text text-anchor="middle" x="682" y="-332.8" font-family="Helvetica,sans-Serif" font-size="9.00">module&#45;system&#45;type.mjs</text>
</a>
</g>
</g>
<!-- dependencies.mjs&#45;&gt;module&#45;system&#45;type.mjs -->
<g id="edge6" class="edge">
<title>dependencies.mjs&#45;&gt;module&#45;system&#45;type.mjs</title>
<path fill="none" stroke="#000000" stroke-width="2" stroke-opacity="0.200000" d="M400,-462.79C400,-432.52 400,-338 400,-338 400,-338 617.91,-338 617.91,-338"/>
<polygon fill="#000000" fill-opacity="0.200000" stroke="#000000" stroke-width="2" stroke-opacity="0.200000" points="617.91,-340.1 623.91,-338 617.91,-335.9 617.91,-340.1"/>
</g>
<!-- dependencies.mjs&#45;&gt;rule&#45;summary.mjs -->
<g id="edge7" class="edge">
<title>dependencies.mjs&#45;&gt;rule&#45;summary.mjs</title>
<path fill="none" stroke="#000000" stroke-width="2" stroke-opacity="0.200000" d="M427,-462.81C427,-440.07 427,-383 427,-383 427,-383 482.35,-383 482.35,-383"/>
<polygon fill="#000000" fill-opacity="0.200000" stroke="#000000" stroke-width="2" stroke-opacity="0.200000" points="482.35,-385.1 488.35,-383 482.35,-380.9 482.35,-385.1"/>
</g>
<!-- rule&#45;summary.mjs&#45;&gt;severity&#45;type.mjs -->
<g id="edge35" class="edge">
<title>rule&#45;summary.mjs&#45;&gt;severity&#45;type.mjs</title>
<path fill="none" stroke="#000000" stroke-width="2" stroke-opacity="0.200000" d="M577.73,-380C591.45,-380 603,-380 603,-380 603,-380 603,-12 603,-12 603,-12 633.26,-12 633.26,-12"/>
<polygon fill="#000000" fill-opacity="0.200000" stroke="#000000" stroke-width="2" stroke-opacity="0.200000" points="633.26,-14.1 639.26,-12 633.26,-9.9 633.26,-14.1"/>
</g>
<!-- module&#45;systems&#45;type.mjs&#45;&gt;module&#45;system&#45;type.mjs -->
<g id="edge8" class="edge">
<title>module&#45;systems&#45;type.mjs&#45;&gt;module&#45;system&#45;type.mjs</title>
<path fill="none" stroke="#000000" stroke-width="2" stroke-opacity="0.200000" d="M589,-257.31C589,-279.18 589,-332 589,-332 589,-332 617.89,-332 617.89,-332"/>
<polygon fill="#000000" fill-opacity="0.200000" stroke="#000000" stroke-width="2" stroke-opacity="0.200000" points="617.89,-334.1 623.89,-332 617.89,-329.9 617.89,-334.1"/>
</g>
<!-- options&#45;used.mjs&#45;&gt;compound&#45;donot&#45;follow&#45;type.mjs -->
<g id="edge12" class="edge">
<title>options&#45;used.mjs&#45;&gt;compound&#45;donot&#45;follow&#45;type.mjs</title>
<path fill="none" stroke="#000000" stroke-width="2" stroke-opacity="0.200000" d="M350,-235.94C350,-230.64 350,-225 350,-225 350,-225 616,-225 616,-225 616,-225 616,-220.06 616,-220.06"/>
<polygon fill="#000000" fill-opacity="0.200000" stroke="#000000" stroke-width="2" stroke-opacity="0.200000" points="618.1,-220.06 616,-214.06 613.9,-220.06 618.1,-220.06"/>
</g>
<!-- options&#45;used.mjs&#45;&gt;compound&#45;exclude&#45;type.mjs -->
<g id="edge13" class="edge">
<title>options&#45;used.mjs&#45;&gt;compound&#45;exclude&#45;type.mjs</title>
<path fill="none" stroke="#000000" stroke-width="2" stroke-opacity="0.200000" d="M348,-235.97C348,-214.75 348,-163.5 348,-163.5 348,-163.5 609.61,-163.5 609.61,-163.5"/>
<polygon fill="#000000" fill-opacity="0.200000" stroke="#000000" stroke-width="2" stroke-opacity="0.200000" points="609.61,-165.6 615.61,-163.5 609.61,-161.4 609.61,-165.6"/>
</g>
<!-- options&#45;used.mjs&#45;&gt;compound&#45;focus&#45;type.mjs -->
<g id="edge14" class="edge">
<title>options&#45;used.mjs&#45;&gt;compound&#45;focus&#45;type.mjs</title>
<path fill="none" stroke="#000000" stroke-width="2" stroke-opacity="0.200000" d="M346,-235.92C346,-210.17 346,-138.5 346,-138.5 346,-138.5 682,-138.5 682,-138.5 682,-138.5 682,-133.29 682,-133.29"/>
<polygon fill="#000000" fill-opacity="0.200000" stroke="#000000" stroke-width="2" stroke-opacity="0.200000" points="684.1,-133.29 682,-127.29 679.9,-133.29 684.1,-133.29"/>
</g>
<!-- options&#45;used.mjs&#45;&gt;compound&#45;include&#45;only&#45;type.mjs -->
<g id="edge15" class="edge">
<title>options&#45;used.mjs&#45;&gt;compound&#45;include&#45;only&#45;type.mjs</title>
<path fill="none" stroke="#000000" stroke-width="2" stroke-opacity="0.200000" d="M300,-235.76C300,-217.92 300,-180.5 300,-180.5 300,-180.5 614,-180.5 614,-180.5 614,-180.5 614,-93.1 614,-93.1"/>
<polygon fill="#000000" fill-opacity="0.200000" stroke="#000000" stroke-width="2" stroke-opacity="0.200000" points="616.1,-93.1 614,-87.1 611.9,-93.1 616.1,-93.1"/>
</g>
<!-- options&#45;used.mjs&#45;&gt;options.mjs -->
<g id="edge18" class="edge">
<title>options&#45;used.mjs&#45;&gt;options.mjs</title>
<path fill="none" stroke="#000000" stroke-width="2" stroke-opacity="0.200000" d="M344,-235.73C344,-199.94 344,-72.67 344,-72.67 344,-72.67 375.33,-72.67 375.33,-72.67"/>
<polygon fill="#000000" fill-opacity="0.200000" stroke="#000000" stroke-width="2" stroke-opacity="0.200000" points="375.33,-74.77 381.33,-72.67 375.33,-70.57 375.33,-74.77"/>
</g>
<!-- options&#45;used.mjs&#45;&gt;dependency&#45;type.mjs -->
<g id="edge16" class="edge">
<title>options&#45;used.mjs&#45;&gt;dependency&#45;type.mjs</title>
<path fill="none" stroke="#000000" stroke-width="2" stroke-opacity="0.200000" d="M349,-254.21C349,-260.98 349,-269 349,-269 349,-269 486,-269 486,-269 486,-269 486,-450.76 486,-450.76"/>
<polygon fill="#000000" fill-opacity="0.200000" stroke="#000000" stroke-width="2" stroke-opacity="0.200000" points="483.9,-450.76 486,-456.76 488.1,-450.76 483.9,-450.76"/>
</g>
<!-- options&#45;used.mjs&#45;&gt;module&#45;systems&#45;type.mjs -->
<g id="edge17" class="edge">
<title>options&#45;used.mjs&#45;&gt;module&#45;systems&#45;type.mjs</title>
<path fill="none" stroke="#000000" stroke-width="2" stroke-opacity="0.200000" d="M353.26,-249C353.26,-249 466.99,-249 466.99,-249"/>
<polygon fill="#000000" fill-opacity="0.200000" stroke="#000000" stroke-width="2" stroke-opacity="0.200000" points="466.99,-251.1 472.99,-249 466.99,-246.9 466.99,-251.1"/>
</g>
<!-- output&#45;type.mjs -->
<g id="node17" class="node">
<title>output&#45;type.mjs</title>
<g id="a_node17"><a xlink:href="https://github.com/sverweij/dependency-cruiser/blob/develop/utl/schema/output-type.mjs" xlink:title="output&#45;type.mjs">
<polygon fill="white" stroke="transparent" points="452.5,-211 373.5,-211 373.5,-193 452.5,-193 452.5,-211"/>
<polyline fill="none" stroke="black" points="373.5,-193 452.5,-193 "/>
<text text-anchor="middle" x="413" y="-199.8" font-family="Helvetica,sans-Serif" font-size="9.00">output&#45;type.mjs</text>
</a>
</g>
</g>
<!-- options&#45;used.mjs&#45;&gt;output&#45;type.mjs -->
<g id="edge19" class="edge">
<title>options&#45;used.mjs&#45;&gt;output&#45;type.mjs</title>
<path fill="none" stroke="#000000" stroke-width="2" stroke-opacity="0.200000" d="M352,-235.88C352,-223.26 352,-202 352,-202 352,-202 367.33,-202 367.33,-202"/>
<polygon fill="#000000" fill-opacity="0.200000" stroke="#000000" stroke-width="2" stroke-opacity="0.200000" points="367.33,-204.1 373.33,-202 367.33,-199.9 367.33,-204.1"/>
</g>
<!-- options&#45;used.mjs&#45;&gt;reporter&#45;options.mjs -->
<g id="edge20" class="edge">
<title>options&#45;used.mjs&#45;&gt;reporter&#45;options.mjs</title>
<path fill="none" stroke="#000000" stroke-width="2" stroke-opacity="0.200000" d="M353.03,-244C398.28,-244 463,-244 463,-244 463,-244 463,-119 463,-119 463,-119 477.62,-119 477.62,-119"/>
<polygon fill="#000000" fill-opacity="0.200000" stroke="#000000" stroke-width="2" stroke-opacity="0.200000" points="477.62,-121.1 483.62,-119 477.62,-116.9 477.62,-121.1"/>
</g>
<!-- reporter&#45;options.mjs&#45;&gt;compound&#45;donot&#45;follow&#45;type.mjs -->
<g id="edge28" class="edge">
<title>reporter&#45;options.mjs&#45;&gt;compound&#45;donot&#45;follow&#45;type.mjs</title>
<path fill="none" stroke="#000000" stroke-width="2" stroke-opacity="0.200000" d="M582.2,-121.8C597.29,-121.8 610,-121.8 610,-121.8 610,-121.8 610,-189.78 610,-189.78"/>
<polygon fill="#000000" fill-opacity="0.200000" stroke="#000000" stroke-width="2" stroke-opacity="0.200000" points="607.9,-189.78 610,-195.78 612.1,-189.78 607.9,-189.78"/>
</g>
<!-- reporter&#45;options.mjs&#45;&gt;compound&#45;exclude&#45;type.mjs -->
<g id="edge29" class="edge">
<title>reporter&#45;options.mjs&#45;&gt;compound&#45;exclude&#45;type.mjs</title>
<path fill="none" stroke="#000000" stroke-width="2" stroke-opacity="0.200000" d="M533,-125.32C533,-136.71 533,-154.5 533,-154.5 533,-154.5 609.78,-154.5 609.78,-154.5"/>
<polygon fill="#000000" fill-opacity="0.200000" stroke="#000000" stroke-width="2" stroke-opacity="0.200000" points="609.78,-156.6 615.78,-154.5 609.78,-152.4 609.78,-156.6"/>
</g>
<!-- reporter&#45;options.mjs&#45;&gt;compound&#45;focus&#45;type.mjs -->
<g id="edge30" class="edge">
<title>reporter&#45;options.mjs&#45;&gt;compound&#45;focus&#45;type.mjs</title>
<path fill="none" stroke="#000000" stroke-width="2" stroke-opacity="0.200000" d="M582.2,-118.6C582.2,-118.6 614.89,-118.6 614.89,-118.6"/>
<polygon fill="#000000" fill-opacity="0.200000" stroke="#000000" stroke-width="2" stroke-opacity="0.200000" points="614.89,-120.7 620.89,-118.6 614.89,-116.5 614.89,-120.7"/>
</g>
<!-- reporter&#45;options.mjs&#45;&gt;compound&#45;include&#45;only&#45;type.mjs -->
<g id="edge31" class="edge">
<title>reporter&#45;options.mjs&#45;&gt;compound&#45;include&#45;only&#45;type.mjs</title>
<path fill="none" stroke="#000000" stroke-width="2" stroke-opacity="0.200000" d="M582.13,-112.2C598.2,-112.2 612,-112.2 612,-112.2 612,-112.2 612,-93.35 612,-93.35"/>
<polygon fill="#000000" fill-opacity="0.200000" stroke="#000000" stroke-width="2" stroke-opacity="0.200000" points="614.1,-93.35 612,-87.35 609.9,-93.35 614.1,-93.35"/>
</g>
<!-- restrictions.mjs&#45;&gt;dependency&#45;type.mjs -->
<g id="edge32" class="edge">
<title>restrictions.mjs&#45;&gt;dependency&#45;type.mjs</title>
<path fill="none" stroke="#000000" stroke-width="2" stroke-opacity="0.200000" d="M451.52,-113C459.74,-113 466,-113 466,-113 466,-113 466,-467 466,-467 466,-467 474.87,-467 474.87,-467"/>
<polygon fill="#000000" fill-opacity="0.200000" stroke="#000000" stroke-width="2" stroke-opacity="0.200000" points="474.87,-469.1 480.87,-467 474.87,-464.9 474.87,-469.1"/>
</g>
</g>
</svg>
