<?xml version="1.0" encoding="UTF-8" standalone="no"?>
<!DOCTYPE svg PUBLIC "-//W3C//DTD SVG 1.1//EN"
 "http://www.w3.org/Graphics/SVG/1.1/DTD/svg11.dtd">
<!-- Generated by graphviz version 2.43.0 (0)
 -->
<!-- Title: dependency&#45;cruiser output Pages: 1 -->
<svg width="534pt" height="227pt"
 viewBox="0.00 0.00 534.00 227.00" xmlns="http://www.w3.org/2000/svg" xmlns:xlink="http://www.w3.org/1999/xlink">
<g id="graph0" class="graph" transform="scale(1 1) rotate(0) translate(4 223)">
<title>dependency&#45;cruiser output</title>
<polygon fill="white" stroke="transparent" points="-4,4 -4,-223 530,-223 530,4 -4,4"/>
<g id="clust1" class="cluster">
<title>cluster_utl</title>
<path fill="#ffffff" stroke="black" stroke-width="2" d="M20,-8C20,-8 506,-8 506,-8 512,-8 518,-14 518,-20 518,-20 518,-199 518,-199 518,-205 512,-211 506,-211 506,-211 20,-211 20,-211 14,-211 8,-205 8,-199 8,-199 8,-20 8,-20 8,-14 14,-8 20,-8"/>
<text text-anchor="middle" x="263" y="-199.8" font-family="Helvetica,sans-Serif" font-weight="bold" font-size="9.00">utl</text>
</g>
<g id="clust2" class="cluster">
<title>cluster_utl/schema</title>
<path fill="#ffffff" stroke="black" stroke-width="2" d="M28,-16C28,-16 498,-16 498,-16 504,-16 510,-22 510,-28 510,-28 510,-174 510,-174 510,-180 504,-186 498,-186 498,-186 28,-186 28,-186 22,-186 16,-180 16,-174 16,-174 16,-28 16,-28 16,-22 22,-16 28,-16"/>
<text text-anchor="middle" x="263" y="-174.8" font-family="Helvetica,sans-Serif" font-weight="bold" font-size="9.00">schema</text>
</g>
<!-- utl/schema/configuration.schema.js -->
<g id="node1" class="node">
<title>utl/schema/configuration.schema.js</title>
<g id="a_node1"><a xlink:href="https://github.com/sverweij/dependency-cruiser/blob/develop/utl/schema/configuration.schema.js" xlink:title="configuration.schema.js">
<path fill="#ffffcc" stroke="black" d="M291.38,-131C291.38,-131 192.62,-131 192.62,-131 189.78,-131 186.95,-128.17 186.95,-125.33 186.95,-125.33 186.95,-119.67 186.95,-119.67 186.95,-116.83 189.78,-114 192.62,-114 192.62,-114 291.38,-114 291.38,-114 294.22,-114 297.05,-116.83 297.05,-119.67 297.05,-119.67 297.05,-125.33 297.05,-125.33 297.05,-128.17 294.22,-131 291.38,-131"/>
<text text-anchor="middle" x="242" y="-119.8" font-family="Helvetica,sans-Serif" font-size="9.00">configuration.schema.js</text>
</a>
</g>
</g>
<!-- utl/schema/options.schema&#45;snippet.js -->
<g id="node6" class="node">
<title>utl/schema/options.schema&#45;snippet.js</title>
<g id="a_node6"><a xlink:href="https://github.com/sverweij/dependency-cruiser/blob/develop/utl/schema/options.schema-snippet.js" xlink:title="options.schema&#45;snippet.js">
<path fill="#ffffcc" stroke="black" d="M330.39,-71C330.39,-71 221.61,-71 221.61,-71 218.78,-71 215.95,-68.17 215.95,-65.33 215.95,-65.33 215.95,-59.67 215.95,-59.67 215.95,-56.83 218.78,-54 221.61,-54 221.61,-54 330.39,-54 330.39,-54 333.22,-54 336.05,-56.83 336.05,-59.67 336.05,-59.67 336.05,-65.33 336.05,-65.33 336.05,-68.17 333.22,-71 330.39,-71"/>
<text text-anchor="middle" x="276" y="-59.8" font-family="Helvetica,sans-Serif" font-size="9.00">options.schema&#45;snippet.js</text>
</a>
</g>
</g>
<!-- utl/schema/configuration.schema.js&#45;&gt;utl/schema/options.schema&#45;snippet.js -->
<g id="edge1" class="edge">
<title>utl/schema/configuration.schema.js&#45;&gt;utl/schema/options.schema&#45;snippet.js</title>
<path fill="none" stroke="#000000" stroke-width="2" stroke-opacity="0.200000" d="M220.84,-113.9C220.84,-113.9 220.84,-81.08 220.84,-81.08"/>
<polygon fill="#000000" fill-opacity="0.200000" stroke="#000000" stroke-width="2" stroke-opacity="0.200000" points="224.34,-81.08 220.84,-71.08 217.34,-81.08 224.34,-81.08"/>
</g>
<!-- utl/schema/rule&#45;set.schema&#45;snippet.js -->
<g id="node8" class="node">
<title>utl/schema/rule&#45;set.schema&#45;snippet.js</title>
<g id="a_node8"><a xlink:href="https://github.com/sverweij/dependency-cruiser/blob/develop/utl/schema/rule-set.schema-snippet.js" xlink:title="rule&#45;set.schema&#45;snippet.js">
<path fill="#ffffcc" stroke="black" d="M495.88,-101C495.88,-101 386.12,-101 386.12,-101 383.29,-101 380.46,-98.17 380.46,-95.33 380.46,-95.33 380.46,-89.67 380.46,-89.67 380.46,-86.83 383.29,-84 386.12,-84 386.12,-84 495.88,-84 495.88,-84 498.71,-84 501.54,-86.83 501.54,-89.67 501.54,-89.67 501.54,-95.33 501.54,-95.33 501.54,-98.17 498.71,-101 495.88,-101"/>
<text text-anchor="middle" x="441" y="-89.8" font-family="Helvetica,sans-Serif" font-size="9.00">rule&#45;set.schema&#45;snippet.js</text>
</a>
</g>
</g>
<!-- utl/schema/configuration.schema.js&#45;&gt;utl/schema/rule&#45;set.schema&#45;snippet.js -->
<g id="edge2" class="edge">
<title>utl/schema/configuration.schema.js&#45;&gt;utl/schema/rule&#45;set.schema&#45;snippet.js</title>
<path fill="none" stroke="#000000" stroke-width="2" stroke-opacity="0.200000" d="M261.5,-113.96C261.5,-111.76 261.5,-110 261.5,-110 261.5,-110 399.21,-110 399.21,-110 399.21,-110 399.21,-109.12 399.21,-109.12"/>
<polygon fill="#000000" fill-opacity="0.200000" stroke="#000000" stroke-width="2" stroke-opacity="0.200000" points="402.71,-111.25 399.21,-101.25 395.71,-111.25 402.71,-111.25"/>
</g>
<!-- utl/schema/cruise&#45;result.schema.js -->
<g id="node2" class="node">
<title>utl/schema/cruise&#45;result.schema.js</title>
<g id="a_node2"><a xlink:href="https://github.com/sverweij/dependency-cruiser/blob/develop/utl/schema/cruise-result.schema.js" xlink:title="cruise&#45;result.schema.js">
<path fill="#ffffcc" stroke="black" d="M290.36,-161C290.36,-161 193.64,-161 193.64,-161 190.81,-161 187.97,-158.17 187.97,-155.33 187.97,-155.33 187.97,-149.67 187.97,-149.67 187.97,-146.83 190.81,-144 193.64,-144 193.64,-144 290.36,-144 290.36,-144 293.19,-144 296.03,-146.83 296.03,-149.67 296.03,-149.67 296.03,-155.33 296.03,-155.33 296.03,-158.17 293.19,-161 290.36,-161"/>
<text text-anchor="middle" x="242" y="-149.8" font-family="Helvetica,sans-Serif" font-size="9.00">cruise&#45;result.schema.js</text>
</a>
</g>
</g>
<!-- utl/schema/modules.schema&#45;snippet.js -->
<g id="node4" class="node">
<title>utl/schema/modules.schema&#45;snippet.js</title>
<g id="a_node4"><a xlink:href="https://github.com/sverweij/dependency-cruiser/blob/develop/utl/schema/modules.schema-snippet.js" xlink:title="modules.schema&#45;snippet.js">
<path fill="#ffffcc" stroke="black" d="M168.88,-131C168.88,-131 55.12,-131 55.12,-131 52.28,-131 49.45,-128.17 49.45,-125.33 49.45,-125.33 49.45,-119.67 49.45,-119.67 49.45,-116.83 52.28,-114 55.12,-114 55.12,-114 168.88,-114 168.88,-114 171.72,-114 174.55,-116.83 174.55,-119.67 174.55,-119.67 174.55,-125.33 174.55,-125.33 174.55,-128.17 171.72,-131 168.88,-131"/>
<text text-anchor="middle" x="112" y="-119.8" font-family="Helvetica,sans-Serif" font-size="9.00">modules.schema&#45;snippet.js</text>
</a>
</g>
</g>
<!-- utl/schema/cruise&#45;result.schema.js&#45;&gt;utl/schema/modules.schema&#45;snippet.js -->
<g id="edge3" class="edge">
<title>utl/schema/cruise&#45;result.schema.js&#45;&gt;utl/schema/modules.schema&#45;snippet.js</title>
<path fill="none" stroke="#000000" stroke-width="2" stroke-opacity="0.200000" d="M187.62,-152C152,-152 112,-152 112,-152 112,-152 112,-141.19 112,-141.19"/>
<polygon fill="#000000" fill-opacity="0.200000" stroke="#000000" stroke-width="2" stroke-opacity="0.200000" points="115.5,-141.19 112,-131.19 108.5,-141.19 115.5,-141.19"/>
</g>
<!-- utl/schema/summary.schema&#45;snippet.js -->
<g id="node11" class="node">
<title>utl/schema/summary.schema&#45;snippet.js</title>
<g id="a_node11"><a xlink:href="https://github.com/sverweij/dependency-cruiser/blob/develop/utl/schema/summary.schema-snippet.js" xlink:title="summary.schema&#45;snippet.js">
<path fill="#ffffcc" stroke="black" d="M431.2,-131C431.2,-131 314.8,-131 314.8,-131 311.96,-131 309.13,-128.17 309.13,-125.33 309.13,-125.33 309.13,-119.67 309.13,-119.67 309.13,-116.83 311.96,-114 314.8,-114 314.8,-114 431.2,-114 431.2,-114 434.04,-114 436.87,-116.83 436.87,-119.67 436.87,-119.67 436.87,-125.33 436.87,-125.33 436.87,-128.17 434.04,-131 431.2,-131"/>
<text text-anchor="middle" x="373" y="-119.8" font-family="Helvetica,sans-Serif" font-size="9.00">summary.schema&#45;snippet.js</text>
</a>
</g>
</g>
<!-- utl/schema/cruise&#45;result.schema.js&#45;&gt;utl/schema/summary.schema&#45;snippet.js -->
<g id="edge4" class="edge">
<title>utl/schema/cruise&#45;result.schema.js&#45;&gt;utl/schema/summary.schema&#45;snippet.js</title>
<path fill="none" stroke="#000000" stroke-width="2" stroke-opacity="0.200000" d="M296.04,-152C332.12,-152 373,-152 373,-152 373,-152 373,-141.19 373,-141.19"/>
<polygon fill="#000000" fill-opacity="0.200000" stroke="#000000" stroke-width="2" stroke-opacity="0.200000" points="376.5,-141.19 373,-131.19 369.5,-141.19 376.5,-141.19"/>
</g>
<!-- utl/schema/dependencies.schema&#45;snippet.js -->
<g id="node3" class="node">
<title>utl/schema/dependencies.schema&#45;snippet.js</title>
<g id="a_node3"><a xlink:href="https://github.com/sverweij/dependency-cruiser/blob/develop/utl/schema/dependencies.schema-snippet.js" xlink:title="dependencies.schema&#45;snippet.js">
<path fill="#ffffcc" stroke="black" d="M179.91,-101C179.91,-101 44.09,-101 44.09,-101 41.25,-101 38.42,-98.17 38.42,-95.33 38.42,-95.33 38.42,-89.67 38.42,-89.67 38.42,-86.83 41.25,-84 44.09,-84 44.09,-84 179.91,-84 179.91,-84 182.75,-84 185.58,-86.83 185.58,-89.67 185.58,-89.67 185.58,-95.33 185.58,-95.33 185.58,-98.17 182.75,-101 179.91,-101"/>
<text text-anchor="middle" x="112" y="-89.8" font-family="Helvetica,sans-Serif" font-size="9.00">dependencies.schema&#45;snippet.js</text>
</a>
</g>
</g>
<!-- utl/schema/rule&#45;summary.schema&#45;snippet.js -->
<g id="node9" class="node">
<title>utl/schema/rule&#45;summary.schema&#45;snippet.js</title>
<g id="a_node9"><a xlink:href="https://github.com/sverweij/dependency-cruiser/blob/develop/utl/schema/rule-summary.schema-snippet.js" xlink:title="rule&#45;summary.schema&#45;snippet.js">
<path fill="#ffffcc" stroke="black" d="M198.21,-71C198.21,-71 63.79,-71 63.79,-71 60.96,-71 58.12,-68.17 58.12,-65.33 58.12,-65.33 58.12,-59.67 58.12,-59.67 58.12,-56.83 60.96,-54 63.79,-54 63.79,-54 198.21,-54 198.21,-54 201.04,-54 203.88,-56.83 203.88,-59.67 203.88,-59.67 203.88,-65.33 203.88,-65.33 203.88,-68.17 201.04,-71 198.21,-71"/>
<text text-anchor="middle" x="131" y="-59.8" font-family="Helvetica,sans-Serif" font-size="9.00">rule&#45;summary.schema&#45;snippet.js</text>
</a>
</g>
</g>
<!-- utl/schema/dependencies.schema&#45;snippet.js&#45;&gt;utl/schema/rule&#45;summary.schema&#45;snippet.js -->
<g id="edge5" class="edge">
<title>utl/schema/dependencies.schema&#45;snippet.js&#45;&gt;utl/schema/rule&#45;summary.schema&#45;snippet.js</title>
<path fill="none" stroke="#000000" stroke-width="2" stroke-opacity="0.200000" d="M121.93,-83.98C121.93,-83.98 121.93,-81.14 121.93,-81.14"/>
<polygon fill="#000000" fill-opacity="0.200000" stroke="#000000" stroke-width="2" stroke-opacity="0.200000" points="125.43,-81.14 121.93,-71.14 118.43,-81.14 125.43,-81.14"/>
</g>
<!-- utl/schema/shared&#45;types.schema&#45;snippet.js -->
<g id="node10" class="node">
<title>utl/schema/shared&#45;types.schema&#45;snippet.js</title>
<g id="a_node10"><a xlink:href="https://github.com/sverweij/dependency-cruiser/blob/develop/utl/schema/shared-types.schema-snippet.js" xlink:title="shared&#45;types.schema&#45;snippet.js">
<path fill="#ffffcc" stroke="black" d="M268.89,-41C268.89,-41 137.11,-41 137.11,-41 134.27,-41 131.44,-38.17 131.44,-35.33 131.44,-35.33 131.44,-29.67 131.44,-29.67 131.44,-26.83 134.27,-24 137.11,-24 137.11,-24 268.89,-24 268.89,-24 271.73,-24 274.56,-26.83 274.56,-29.67 274.56,-29.67 274.56,-35.33 274.56,-35.33 274.56,-38.17 271.73,-41 268.89,-41"/>
<text text-anchor="middle" x="203" y="-29.8" font-family="Helvetica,sans-Serif" font-size="9.00">shared&#45;types.schema&#45;snippet.js</text>
</a>
</g>
</g>
<!-- utl/schema/dependencies.schema&#45;snippet.js&#45;&gt;utl/schema/shared&#45;types.schema&#45;snippet.js -->
<g id="edge6" class="edge">
<title>utl/schema/dependencies.schema&#45;snippet.js&#45;&gt;utl/schema/shared&#45;types.schema&#45;snippet.js</title>
<path fill="none" stroke="#000000" stroke-width="2" stroke-opacity="0.200000" d="M185.57,-92C198.43,-92 207.78,-92 207.78,-92 207.78,-92 207.78,-51.02 207.78,-51.02"/>
<polygon fill="#000000" fill-opacity="0.200000" stroke="#000000" stroke-width="2" stroke-opacity="0.200000" points="211.28,-51.02 207.78,-41.02 204.28,-51.02 211.28,-51.02"/>
</g>
<!-- utl/schema/modules.schema&#45;snippet.js&#45;&gt;utl/schema/dependencies.schema&#45;snippet.js -->
<g id="edge7" class="edge">
<title>utl/schema/modules.schema&#45;snippet.js&#45;&gt;utl/schema/dependencies.schema&#45;snippet.js</title>
<path fill="none" stroke="#000000" stroke-width="2" stroke-opacity="0.200000" d="M80.74,-113.98C80.74,-113.98 80.74,-111.14 80.74,-111.14"/>
<polygon fill="#000000" fill-opacity="0.200000" stroke="#000000" stroke-width="2" stroke-opacity="0.200000" points="84.24,-111.14 80.74,-101.14 77.24,-111.14 84.24,-111.14"/>
</g>
<!-- utl/schema/modules.schema&#45;snippet.js&#45;&gt;utl/schema/rule&#45;summary.schema&#45;snippet.js -->
<g id="edge8" class="edge">
<title>utl/schema/modules.schema&#45;snippet.js&#45;&gt;utl/schema/rule&#45;summary.schema&#45;snippet.js</title>
<path fill="none" stroke="#000000" stroke-width="2" stroke-opacity="0.200000" d="M112,-113.68C112,-108.92 112,-104 112,-104 112,-104 195.21,-104 195.21,-104 195.21,-104 195.21,-81.3 195.21,-81.3"/>
<polygon fill="#000000" fill-opacity="0.200000" stroke="#000000" stroke-width="2" stroke-opacity="0.200000" points="198.71,-81.3 195.21,-71.3 191.71,-81.3 198.71,-81.3"/>
</g>
<!-- utl/schema/modules.schema&#45;snippet.js&#45;&gt;utl/schema/shared&#45;types.schema&#45;snippet.js -->
<g id="edge9" class="edge">
<title>utl/schema/modules.schema&#45;snippet.js&#45;&gt;utl/schema/shared&#45;types.schema&#45;snippet.js</title>
<path fill="none" stroke="#000000" stroke-width="2" stroke-opacity="0.200000" d="M143.26,-113.66C143.26,-110.18 143.26,-107 143.26,-107 143.26,-107 211.88,-107 211.88,-107 211.88,-107 211.88,-51.05 211.88,-51.05"/>
<polygon fill="#000000" fill-opacity="0.200000" stroke="#000000" stroke-width="2" stroke-opacity="0.200000" points="215.38,-51.05 211.88,-41.05 208.38,-51.05 215.38,-51.05"/>
</g>
<!-- utl/schema/options&#45;used.schema&#45;snippet.js -->
<g id="node5" class="node">
<title>utl/schema/options&#45;used.schema&#45;snippet.js</title>
<g id="a_node5"><a xlink:href="https://github.com/sverweij/dependency-cruiser/blob/develop/utl/schema/options-used.schema-snippet.js" xlink:title="options&#45;used.schema&#45;snippet.js">
<path fill="#ffffcc" stroke="black" d="M362.4,-101C362.4,-101 231.6,-101 231.6,-101 228.77,-101 225.93,-98.17 225.93,-95.33 225.93,-95.33 225.93,-89.67 225.93,-89.67 225.93,-86.83 228.77,-84 231.6,-84 231.6,-84 362.4,-84 362.4,-84 365.23,-84 368.07,-86.83 368.07,-89.67 368.07,-89.67 368.07,-95.33 368.07,-95.33 368.07,-98.17 365.23,-101 362.4,-101"/>
<text text-anchor="middle" x="297" y="-89.8" font-family="Helvetica,sans-Serif" font-size="9.00">options&#45;used.schema&#45;snippet.js</text>
</a>
</g>
</g>
<!-- utl/schema/options&#45;used.schema&#45;snippet.js&#45;&gt;utl/schema/options.schema&#45;snippet.js -->
<g id="edge10" class="edge">
<title>utl/schema/options&#45;used.schema&#45;snippet.js&#45;&gt;utl/schema/options.schema&#45;snippet.js</title>
<path fill="none" stroke="#000000" stroke-width="2" stroke-opacity="0.200000" d="M280.87,-83.98C280.87,-83.98 280.87,-81.14 280.87,-81.14"/>
<polygon fill="#000000" fill-opacity="0.200000" stroke="#000000" stroke-width="2" stroke-opacity="0.200000" points="284.37,-81.14 280.87,-71.14 277.37,-81.14 284.37,-81.14"/>
</g>
<!-- utl/schema/options.schema&#45;snippet.js&#45;&gt;utl/schema/shared&#45;types.schema&#45;snippet.js -->
<g id="edge11" class="edge">
<title>utl/schema/options.schema&#45;snippet.js&#45;&gt;utl/schema/shared&#45;types.schema&#45;snippet.js</title>
<path fill="none" stroke="#000000" stroke-width="2" stroke-opacity="0.200000" d="M245.25,-53.98C245.25,-53.98 245.25,-51.14 245.25,-51.14"/>
<polygon fill="#000000" fill-opacity="0.200000" stroke="#000000" stroke-width="2" stroke-opacity="0.200000" points="248.75,-51.14 245.25,-41.14 241.75,-51.14 248.75,-51.14"/>
</g>
<!-- utl/schema/restrictions.schema&#45;snippet.js -->
<g id="node7" class="node">
<title>utl/schema/restrictions.schema&#45;snippet.js</title>
<g id="a_node7"><a xlink:href="https://github.com/sverweij/dependency-cruiser/blob/develop/utl/schema/restrictions.schema-snippet.js" xlink:title="restrictions.schema&#45;snippet.js">
<path fill="#ffffcc" stroke="black" d="M476.38,-71C476.38,-71 353.62,-71 353.62,-71 350.79,-71 347.96,-68.17 347.96,-65.33 347.96,-65.33 347.96,-59.67 347.96,-59.67 347.96,-56.83 350.79,-54 353.62,-54 353.62,-54 476.38,-54 476.38,-54 479.21,-54 482.04,-56.83 482.04,-59.67 482.04,-59.67 482.04,-65.33 482.04,-65.33 482.04,-68.17 479.21,-71 476.38,-71"/>
<text text-anchor="middle" x="415" y="-59.8" font-family="Helvetica,sans-Serif" font-size="9.00">restrictions.schema&#45;snippet.js</text>
</a>
</g>
</g>
<!-- utl/schema/restrictions.schema&#45;snippet.js&#45;&gt;utl/schema/shared&#45;types.schema&#45;snippet.js -->
<g id="edge12" class="edge">
<title>utl/schema/restrictions.schema&#45;snippet.js&#45;&gt;utl/schema/shared&#45;types.schema&#45;snippet.js</title>
<path fill="none" stroke="#000000" stroke-width="2" stroke-opacity="0.200000" d="M415,-53.8C415,-45.74 415,-35 415,-35 415,-35 284.77,-35 284.77,-35"/>
<polygon fill="#000000" fill-opacity="0.200000" stroke="#000000" stroke-width="2" stroke-opacity="0.200000" points="284.77,-31.5 274.77,-35 284.77,-38.5 284.77,-31.5"/>
</g>
<!-- utl/schema/rule&#45;set.schema&#45;snippet.js&#45;&gt;utl/schema/restrictions.schema&#45;snippet.js -->
<g id="edge13" class="edge">
<title>utl/schema/rule&#45;set.schema&#45;snippet.js&#45;&gt;utl/schema/restrictions.schema&#45;snippet.js</title>
<path fill="none" stroke="#000000" stroke-width="2" stroke-opacity="0.200000" d="M431.38,-83.98C431.38,-83.98 431.38,-81.14 431.38,-81.14"/>
<polygon fill="#000000" fill-opacity="0.200000" stroke="#000000" stroke-width="2" stroke-opacity="0.200000" points="434.88,-81.14 431.38,-71.14 427.88,-81.14 434.88,-81.14"/>
</g>
<!-- utl/schema/rule&#45;set.schema&#45;snippet.js&#45;&gt;utl/schema/shared&#45;types.schema&#45;snippet.js -->
<g id="edge14" class="edge">
<title>utl/schema/rule&#45;set.schema&#45;snippet.js&#45;&gt;utl/schema/shared&#45;types.schema&#45;snippet.js</title>
<path fill="none" stroke="#000000" stroke-width="2" stroke-opacity="0.200000" d="M491.9,-83.94C491.9,-66.6 491.9,-29 491.9,-29 491.9,-29 284.78,-29 284.78,-29"/>
<polygon fill="#000000" fill-opacity="0.200000" stroke="#000000" stroke-width="2" stroke-opacity="0.200000" points="284.78,-25.5 274.78,-29 284.78,-32.5 284.78,-25.5"/>
</g>
<!-- utl/schema/rule&#45;summary.schema&#45;snippet.js&#45;&gt;utl/schema/shared&#45;types.schema&#45;snippet.js -->
<g id="edge15" class="edge">
<title>utl/schema/rule&#45;summary.schema&#45;snippet.js&#45;&gt;utl/schema/shared&#45;types.schema&#45;snippet.js</title>
<path fill="none" stroke="#000000" stroke-width="2" stroke-opacity="0.200000" d="M167.58,-53.98C167.58,-53.98 167.58,-51.14 167.58,-51.14"/>
<polygon fill="#000000" fill-opacity="0.200000" stroke="#000000" stroke-width="2" stroke-opacity="0.200000" points="171.08,-51.14 167.58,-41.14 164.08,-51.14 171.08,-51.14"/>
</g>
<!-- utl/schema/summary.schema&#45;snippet.js&#45;&gt;utl/schema/options&#45;used.schema&#45;snippet.js -->
<g id="edge16" class="edge">
<title>utl/schema/summary.schema&#45;snippet.js&#45;&gt;utl/schema/options&#45;used.schema&#45;snippet.js</title>
<path fill="none" stroke="#000000" stroke-width="2" stroke-opacity="0.200000" d="M338.8,-113.98C338.8,-113.98 338.8,-111.14 338.8,-111.14"/>
<polygon fill="#000000" fill-opacity="0.200000" stroke="#000000" stroke-width="2" stroke-opacity="0.200000" points="342.3,-111.14 338.8,-101.14 335.3,-111.14 342.3,-111.14"/>
</g>
<!-- utl/schema/summary.schema&#45;snippet.js&#45;&gt;utl/schema/rule&#45;set.schema&#45;snippet.js -->
<g id="edge17" class="edge">
<title>utl/schema/summary.schema&#45;snippet.js&#45;&gt;utl/schema/rule&#45;set.schema&#45;snippet.js</title>
<path fill="none" stroke="#000000" stroke-width="2" stroke-opacity="0.200000" d="M417.95,-113.98C417.95,-113.98 417.95,-111.14 417.95,-111.14"/>
<polygon fill="#000000" fill-opacity="0.200000" stroke="#000000" stroke-width="2" stroke-opacity="0.200000" points="421.45,-111.14 417.95,-101.14 414.45,-111.14 421.45,-111.14"/>
</g>
</g>
</svg>
