<?xml version="1.0" encoding="UTF-8" standalone="no"?>
<!DOCTYPE svg PUBLIC "-//W3C//DTD SVG 1.1//EN"
 "http://www.w3.org/Graphics/SVG/1.1/DTD/svg11.dtd">
<!-- Generated by graphviz version 2.43.0 (0)
 -->
<!-- Title: dependency&#45;cruiser output Pages: 1 -->
<svg width="694pt" height="299pt"
 viewBox="0.00 0.00 693.75 298.60" xmlns="http://www.w3.org/2000/svg" xmlns:xlink="http://www.w3.org/1999/xlink">
<g id="graph0" class="graph" transform="scale(1 1) rotate(0) translate(4 294.6)">
<title>dependency&#45;cruiser output</title>
<polygon fill="white" stroke="transparent" points="-4,4 -4,-294.6 689.75,-294.6 689.75,4 -4,4"/>
<!-- compound&#45;donot&#45;follow&#45;type.js -->
<g id="node1" class="node">
<title>compound&#45;donot&#45;follow&#45;type.js</title>
<g id="a_node1"><a xlink:href="https://github.com/sverweij/dependency-cruiser/blob/develop/utl/schema/compound-donot-follow-type.js" xlink:title="compound&#45;donot&#45;follow&#45;type.js">
<polygon fill="white" stroke="transparent" points="566.5,-285.69 428.37,-285.69 428.37,-268.69 566.5,-268.69 566.5,-285.69"/>
<polyline fill="none" stroke="darkgrey" points="428.37,-268.69 566.5,-268.69 "/>
<text text-anchor="middle" x="497.44" y="-274.49" font-family="Helvetica,sans-Serif" font-size="9.00" fill="darkgrey">compound&#45;donot&#45;follow&#45;type.js</text>
</a>
</g>
</g>
<!-- compound&#45;exclude&#45;type.js -->
<g id="node2" class="node">
<title>compound&#45;exclude&#45;type.js</title>
<g id="a_node2"><a xlink:href="https://github.com/sverweij/dependency-cruiser/blob/develop/utl/schema/compound-exclude-type.js" xlink:title="compound&#45;exclude&#45;type.js">
<polygon fill="white" stroke="transparent" points="557.99,-250.69 436.88,-250.69 436.88,-233.69 557.99,-233.69 557.99,-250.69"/>
<polyline fill="none" stroke="darkgrey" points="436.88,-233.69 557.99,-233.69 "/>
<text text-anchor="middle" x="497.44" y="-239.49" font-family="Helvetica,sans-Serif" font-size="9.00" fill="darkgrey">compound&#45;exclude&#45;type.js</text>
</a>
</g>
</g>
<!-- configuration.schema.js -->
<g id="node3" class="node">
<title>configuration.schema.js</title>
<g id="a_node3"><a xlink:href="https://github.com/sverweij/dependency-cruiser/blob/develop/utl/schema/configuration.schema.js" xlink:title="configuration.schema.js">
<path fill="darkgreen" stroke="darkgreen" d="M225.68,-89.69C225.68,-89.69 126.92,-89.69 126.92,-89.69 124.08,-89.69 121.25,-86.86 121.25,-84.02 121.25,-84.02 121.25,-78.36 121.25,-78.36 121.25,-75.52 124.08,-72.69 126.92,-72.69 126.92,-72.69 225.68,-72.69 225.68,-72.69 228.52,-72.69 231.35,-75.52 231.35,-78.36 231.35,-78.36 231.35,-84.02 231.35,-84.02 231.35,-86.86 228.52,-89.69 225.68,-89.69"/>
<text text-anchor="middle" x="176.3" y="-78.49" font-family="Helvetica,sans-Serif" font-size="9.00" fill="#ffffcc">configuration.schema.js</text>
</a>
</g>
</g>
<!-- options.js -->
<g id="node4" class="node">
<title>options.js</title>
<g id="a_node4"><a xlink:href="https://github.com/sverweij/dependency-cruiser/blob/develop/utl/schema/options.js" xlink:title="options.js">
<path fill="#ffffcc" stroke="black" d="M395.99,-103.69C395.99,-103.69 353.28,-103.69 353.28,-103.69 350.44,-103.69 347.61,-100.86 347.61,-98.02 347.61,-98.02 347.61,-92.36 347.61,-92.36 347.61,-89.52 350.44,-86.69 353.28,-86.69 353.28,-86.69 395.99,-86.69 395.99,-86.69 398.82,-86.69 401.65,-89.52 401.65,-92.36 401.65,-92.36 401.65,-98.02 401.65,-98.02 401.65,-100.86 398.82,-103.69 395.99,-103.69"/>
<text text-anchor="middle" x="374.63" y="-92.49" font-family="Helvetica,sans-Serif" font-size="9.00">options.js</text>
</a>
</g>
</g>
<!-- configuration.schema.js&#45;&gt;options.js -->
<g id="edge1" class="edge">
<title>configuration.schema.js&#45;&gt;options.js</title>
<path fill="none" stroke="#000000" stroke-width="2" stroke-opacity="0.200000" d="M231.47,-85.05C266.76,-87.57 311.6,-90.77 341.39,-92.89"/>
<polygon fill="#000000" fill-opacity="0.200000" stroke="#000000" stroke-width="2" stroke-opacity="0.200000" points="341.38,-94.99 347.51,-93.33 341.68,-90.8 341.38,-94.99"/>
</g>
<!-- rule&#45;set.js -->
<g id="node5" class="node">
<title>rule&#45;set.js</title>
<g id="a_node5"><a xlink:href="https://github.com/sverweij/dependency-cruiser/blob/develop/utl/schema/rule-set.js" xlink:title="rule&#45;set.js">
<path fill="#ffffcc" stroke="black" d="M304.69,-53.69C304.69,-53.69 261,-53.69 261,-53.69 258.16,-53.69 255.33,-50.86 255.33,-48.02 255.33,-48.02 255.33,-42.36 255.33,-42.36 255.33,-39.52 258.16,-36.69 261,-36.69 261,-36.69 304.69,-36.69 304.69,-36.69 307.52,-36.69 310.35,-39.52 310.35,-42.36 310.35,-42.36 310.35,-48.02 310.35,-48.02 310.35,-50.86 307.52,-53.69 304.69,-53.69"/>
<text text-anchor="middle" x="282.84" y="-42.49" font-family="Helvetica,sans-Serif" font-size="9.00">rule&#45;set.js</text>
</a>
</g>
</g>
<!-- configuration.schema.js&#45;&gt;rule&#45;set.js -->
<g id="edge2" class="edge">
<title>configuration.schema.js&#45;&gt;rule&#45;set.js</title>
<path fill="none" stroke="#000000" stroke-width="2" stroke-opacity="0.200000" d="M202.07,-72.66C216.68,-67.63 235.29,-61.22 250.86,-55.86"/>
<polygon fill="#000000" fill-opacity="0.200000" stroke="#000000" stroke-width="2" stroke-opacity="0.200000" points="251.89,-57.72 256.88,-53.78 250.53,-53.75 251.89,-57.72"/>
</g>
<!-- options.js&#45;&gt;compound&#45;donot&#45;follow&#45;type.js -->
<g id="edge19" class="edge">
<title>options.js&#45;&gt;compound&#45;donot&#45;follow&#45;type.js</title>
<path fill="none" stroke="#000000" stroke-width="2" stroke-opacity="0.200000" d="M378.56,-103.9C385.19,-123.66 401.81,-173.4 415.16,-215.19 421.1,-233.8 414.23,-243.48 428.16,-257.19 431.76,-260.74 435.96,-263.67 440.47,-266.08"/>
<polygon fill="#000000" fill-opacity="0.200000" stroke="#000000" stroke-width="2" stroke-opacity="0.200000" points="439.58,-267.98 445.9,-268.68 441.4,-264.19 439.58,-267.98"/>
</g>
<!-- options.js&#45;&gt;compound&#45;exclude&#45;type.js -->
<g id="edge20" class="edge">
<title>options.js&#45;&gt;compound&#45;exclude&#45;type.js</title>
<path fill="none" stroke="#000000" stroke-width="2" stroke-opacity="0.200000" d="M377.01,-103.82C380.95,-125.68 394.21,-183.76 428.16,-216.19 435,-222.73 443.66,-227.67 452.5,-231.38"/>
<polygon fill="#000000" fill-opacity="0.200000" stroke="#000000" stroke-width="2" stroke-opacity="0.200000" points="451.96,-233.42 458.31,-233.65 453.48,-229.51 451.96,-233.42"/>
</g>
<!-- dependency&#45;type.js -->
<g id="node10" class="node">
<title>dependency&#45;type.js</title>
<g id="a_node10"><a xlink:href="https://github.com/sverweij/dependency-cruiser/blob/develop/utl/schema/dependency-type.js" xlink:title="dependency&#45;type.js">
<polygon fill="white" stroke="transparent" points="544.49,-209.69 450.39,-209.69 450.39,-192.69 544.49,-192.69 544.49,-209.69"/>
<polyline fill="none" stroke="darkgrey" points="450.39,-192.69 544.49,-192.69 "/>
<text text-anchor="middle" x="497.44" y="-198.49" font-family="Helvetica,sans-Serif" font-size="9.00" fill="darkgrey">dependency&#45;type.js</text>
</a>
</g>
</g>
<!-- options.js&#45;&gt;dependency&#45;type.js -->
<g id="edge21" class="edge">
<title>options.js&#45;&gt;dependency&#45;type.js</title>
<path fill="none" stroke="#000000" stroke-width="2" stroke-opacity="0.200000" d="M381.27,-104C390.09,-117.32 408.23,-142.86 428.16,-160.19 441.67,-171.94 458.98,-182.3 472.79,-189.66"/>
<polygon fill="#000000" fill-opacity="0.200000" stroke="#000000" stroke-width="2" stroke-opacity="0.200000" points="472.19,-191.71 478.48,-192.63 474.13,-187.99 472.19,-191.71"/>
</g>
<!-- module&#45;systems&#45;type.js -->
<g id="node13" class="node">
<title>module&#45;systems&#45;type.js</title>
<g id="a_node13"><a xlink:href="https://github.com/sverweij/dependency-cruiser/blob/develop/utl/schema/module-systems-type.js" xlink:title="module&#45;systems&#45;type.js">
<polygon fill="white" stroke="transparent" points="552.47,-124.69 442.41,-124.69 442.41,-107.69 552.47,-107.69 552.47,-124.69"/>
<polyline fill="none" stroke="darkgrey" points="442.41,-107.69 552.47,-107.69 "/>
<text text-anchor="middle" x="497.44" y="-113.49" font-family="Helvetica,sans-Serif" font-size="9.00" fill="darkgrey">module&#45;systems&#45;type.js</text>
</a>
</g>
</g>
<!-- options.js&#45;&gt;module&#45;systems&#45;type.js -->
<g id="edge22" class="edge">
<title>options.js&#45;&gt;module&#45;systems&#45;type.js</title>
<path fill="none" stroke="#000000" stroke-width="2" stroke-opacity="0.200000" d="M401.85,-99.75C413.4,-101.75 427.44,-104.2 441.13,-106.58"/>
<polygon fill="#000000" fill-opacity="0.200000" stroke="#000000" stroke-width="2" stroke-opacity="0.200000" points="441.12,-108.7 447.39,-107.66 441.84,-104.57 441.12,-108.7"/>
</g>
<!-- reporter&#45;options.js -->
<g id="node16" class="node">
<title>reporter&#45;options.js</title>
<g id="a_node16"><a xlink:href="https://github.com/sverweij/dependency-cruiser/blob/develop/utl/schema/reporter-options.js" xlink:title="reporter&#45;options.js">
<path fill="#ffffcc" stroke="black" d="M535.8,-57.69C535.8,-57.69 459.07,-57.69 459.07,-57.69 456.24,-57.69 453.41,-54.86 453.41,-52.02 453.41,-52.02 453.41,-46.36 453.41,-46.36 453.41,-43.52 456.24,-40.69 459.07,-40.69 459.07,-40.69 535.8,-40.69 535.8,-40.69 538.64,-40.69 541.47,-43.52 541.47,-46.36 541.47,-46.36 541.47,-52.02 541.47,-52.02 541.47,-54.86 538.64,-57.69 535.8,-57.69"/>
<text text-anchor="middle" x="497.44" y="-46.49" font-family="Helvetica,sans-Serif" font-size="9.00">reporter&#45;options.js</text>
</a>
</g>
</g>
<!-- options.js&#45;&gt;reporter&#45;options.js -->
<g id="edge23" class="edge">
<title>options.js&#45;&gt;reporter&#45;options.js</title>
<path fill="none" stroke="#000000" stroke-width="2" stroke-opacity="0.200000" d="M400.35,-86.58C405.27,-84.83 410.38,-82.97 415.16,-81.19 433.38,-74.38 453.74,-66.36 469.53,-60.05"/>
<polygon fill="#000000" fill-opacity="0.200000" stroke="#000000" stroke-width="2" stroke-opacity="0.200000" points="470.33,-61.99 475.12,-57.81 468.77,-58.09 470.33,-61.99"/>
</g>
<!-- restrictions.js -->
<g id="node17" class="node">
<title>restrictions.js</title>
<g id="a_node17"><a xlink:href="https://github.com/sverweij/dependency-cruiser/blob/develop/utl/schema/restrictions.js" xlink:title="restrictions.js">
<path fill="#ffffcc" stroke="black" d="M402.98,-45.69C402.98,-45.69 346.29,-45.69 346.29,-45.69 343.45,-45.69 340.62,-42.86 340.62,-40.02 340.62,-40.02 340.62,-34.36 340.62,-34.36 340.62,-31.52 343.45,-28.69 346.29,-28.69 346.29,-28.69 402.98,-28.69 402.98,-28.69 405.81,-28.69 408.64,-31.52 408.64,-34.36 408.64,-34.36 408.64,-40.02 408.64,-40.02 408.64,-42.86 405.81,-45.69 402.98,-45.69"/>
<text text-anchor="middle" x="374.63" y="-34.49" font-family="Helvetica,sans-Serif" font-size="9.00">restrictions.js</text>
</a>
</g>
</g>
<!-- rule&#45;set.js&#45;&gt;restrictions.js -->
<g id="edge25" class="edge">
<title>rule&#45;set.js&#45;&gt;restrictions.js</title>
<path fill="none" stroke="#000000" stroke-width="2" stroke-opacity="0.200000" d="M310.78,-42.79C318.19,-42.13 326.38,-41.4 334.34,-40.69"/>
<polygon fill="#000000" fill-opacity="0.200000" stroke="#000000" stroke-width="2" stroke-opacity="0.200000" points="334.56,-42.78 340.35,-40.15 334.19,-38.59 334.56,-42.78"/>
</g>
<!-- severity&#45;type.js -->
<g id="node18" class="node">
<title>severity&#45;type.js</title>
<g id="a_node18"><a xlink:href="https://github.com/sverweij/dependency-cruiser/blob/develop/utl/schema/severity-type.js" xlink:title="severity&#45;type.js">
<polygon fill="white" stroke="transparent" points="670.75,-71.69 594.72,-71.69 594.72,-54.69 670.75,-54.69 670.75,-71.69"/>
<polyline fill="none" stroke="darkgrey" points="594.72,-54.69 670.75,-54.69 "/>
<text text-anchor="middle" x="632.73" y="-60.49" font-family="Helvetica,sans-Serif" font-size="9.00" fill="darkgrey">severity&#45;type.js</text>
</a>
</g>
</g>
<!-- rule&#45;set.js&#45;&gt;severity&#45;type.js -->
<g id="edge26" class="edge">
<title>rule&#45;set.js&#45;&gt;severity&#45;type.js</title>
<path fill="none" stroke="#000000" stroke-width="2" stroke-opacity="0.200000" d="M291.35,-36.66C300.39,-27.12 316.55,-12.2 334.11,-6.19 368.19,5.48 379.29,-2.9 415.16,-6.19 483.37,-12.44 501.3,-13.87 566.72,-34.19 581.56,-38.8 597.51,-45.88 609.89,-51.89"/>
<polygon fill="#000000" fill-opacity="0.200000" stroke="#000000" stroke-width="2" stroke-opacity="0.200000" points="609.01,-53.79 615.32,-54.56 610.86,-50.02 609.01,-53.79"/>
</g>
<!-- cruise&#45;result.schema.js -->
<g id="node6" class="node">
<title>cruise&#45;result.schema.js</title>
<g id="a_node6"><a xlink:href="https://github.com/sverweij/dependency-cruiser/blob/develop/utl/schema/cruise-result.schema.js" xlink:title="cruise&#45;result.schema.js">
<path fill="darkgreen" stroke="darkgreen" d="M102.37,-145.69C102.37,-145.69 5.65,-145.69 5.65,-145.69 2.82,-145.69 -0.01,-142.86 -0.01,-140.02 -0.01,-140.02 -0.01,-134.36 -0.01,-134.36 -0.01,-131.52 2.82,-128.69 5.65,-128.69 5.65,-128.69 102.37,-128.69 102.37,-128.69 105.21,-128.69 108.04,-131.52 108.04,-134.36 108.04,-134.36 108.04,-140.02 108.04,-140.02 108.04,-142.86 105.21,-145.69 102.37,-145.69"/>
<text text-anchor="middle" x="54.01" y="-134.49" font-family="Helvetica,sans-Serif" font-size="9.00" fill="#ffffcc">cruise&#45;result.schema.js</text>
</a>
</g>
</g>
<!-- modules.js -->
<g id="node7" class="node">
<title>modules.js</title>
<g id="a_node7"><a xlink:href="https://github.com/sverweij/dependency-cruiser/blob/develop/utl/schema/modules.js" xlink:title="modules.js">
<path fill="#ffffcc" stroke="black" d="M306.69,-184.69C306.69,-184.69 258.99,-184.69 258.99,-184.69 256.16,-184.69 253.32,-181.86 253.32,-179.02 253.32,-179.02 253.32,-173.36 253.32,-173.36 253.32,-170.52 256.16,-167.69 258.99,-167.69 258.99,-167.69 306.69,-167.69 306.69,-167.69 309.53,-167.69 312.36,-170.52 312.36,-173.36 312.36,-173.36 312.36,-179.02 312.36,-179.02 312.36,-181.86 309.53,-184.69 306.69,-184.69"/>
<text text-anchor="middle" x="282.84" y="-173.49" font-family="Helvetica,sans-Serif" font-size="9.00">modules.js</text>
</a>
</g>
</g>
<!-- cruise&#45;result.schema.js&#45;&gt;modules.js -->
<g id="edge3" class="edge">
<title>cruise&#45;result.schema.js&#45;&gt;modules.js</title>
<path fill="none" stroke="#000000" stroke-width="2" stroke-opacity="0.200000" d="M104.51,-145.7C147.52,-153.09 208.73,-163.62 246.83,-170.17"/>
<polygon fill="#000000" fill-opacity="0.200000" stroke="#000000" stroke-width="2" stroke-opacity="0.200000" points="246.93,-172.32 253.2,-171.26 247.64,-168.18 246.93,-172.32"/>
</g>
<!-- summary.js -->
<g id="node8" class="node">
<title>summary.js</title>
<g id="a_node8"><a xlink:href="https://github.com/sverweij/dependency-cruiser/blob/develop/utl/schema/summary.js" xlink:title="summary.js">
<path fill="#ffffcc" stroke="black" d="M201.47,-131.69C201.47,-131.69 151.13,-131.69 151.13,-131.69 148.29,-131.69 145.46,-128.86 145.46,-126.02 145.46,-126.02 145.46,-120.36 145.46,-120.36 145.46,-117.52 148.29,-114.69 151.13,-114.69 151.13,-114.69 201.47,-114.69 201.47,-114.69 204.31,-114.69 207.14,-117.52 207.14,-120.36 207.14,-120.36 207.14,-126.02 207.14,-126.02 207.14,-128.86 204.31,-131.69 201.47,-131.69"/>
<text text-anchor="middle" x="176.3" y="-120.49" font-family="Helvetica,sans-Serif" font-size="9.00">summary.js</text>
</a>
</g>
</g>
<!-- cruise&#45;result.schema.js&#45;&gt;summary.js -->
<g id="edge4" class="edge">
<title>cruise&#45;result.schema.js&#45;&gt;summary.js</title>
<path fill="none" stroke="#000000" stroke-width="2" stroke-opacity="0.200000" d="M108.12,-131.01C118.76,-129.77 129.68,-128.5 139.56,-127.35"/>
<polygon fill="#000000" fill-opacity="0.200000" stroke="#000000" stroke-width="2" stroke-opacity="0.200000" points="139.84,-129.43 145.56,-126.65 139.35,-125.26 139.84,-129.43"/>
</g>
<!-- dependencies.js -->
<g id="node9" class="node">
<title>dependencies.js</title>
<g id="a_node9"><a xlink:href="https://github.com/sverweij/dependency-cruiser/blob/develop/utl/schema/dependencies.js" xlink:title="dependencies.js">
<path fill="#ffffcc" stroke="black" d="M409.51,-237.69C409.51,-237.69 339.75,-237.69 339.75,-237.69 336.92,-237.69 334.08,-234.86 334.08,-232.02 334.08,-232.02 334.08,-226.36 334.08,-226.36 334.08,-223.52 336.92,-220.69 339.75,-220.69 339.75,-220.69 409.51,-220.69 409.51,-220.69 412.35,-220.69 415.18,-223.52 415.18,-226.36 415.18,-226.36 415.18,-232.02 415.18,-232.02 415.18,-234.86 412.35,-237.69 409.51,-237.69"/>
<text text-anchor="middle" x="374.63" y="-226.49" font-family="Helvetica,sans-Serif" font-size="9.00">dependencies.js</text>
</a>
</g>
</g>
<!-- modules.js&#45;&gt;dependencies.js -->
<g id="edge9" class="edge">
<title>modules.js&#45;&gt;dependencies.js</title>
<path fill="none" stroke="#000000" stroke-width="2" stroke-opacity="0.200000" d="M295.04,-184.86C304.98,-192.35 320.06,-203.19 334.11,-211.19 338.25,-213.55 342.77,-215.84 347.21,-217.96"/>
<polygon fill="#000000" fill-opacity="0.200000" stroke="#000000" stroke-width="2" stroke-opacity="0.200000" points="346.44,-219.92 352.77,-220.54 348.21,-216.11 346.44,-219.92"/>
</g>
<!-- modules.js&#45;&gt;dependency&#45;type.js -->
<g id="edge10" class="edge">
<title>modules.js&#45;&gt;dependency&#45;type.js</title>
<path fill="none" stroke="#000000" stroke-width="2" stroke-opacity="0.200000" d="M312.49,-181.72C319.54,-182.97 327.08,-184.22 334.11,-185.19 370.66,-190.25 412.06,-194.31 443.91,-197.07"/>
<polygon fill="#000000" fill-opacity="0.200000" stroke="#000000" stroke-width="2" stroke-opacity="0.200000" points="443.99,-199.18 450.14,-197.6 444.34,-195 443.99,-199.18"/>
</g>
<!-- rule&#45;summary.js -->
<g id="node12" class="node">
<title>rule&#45;summary.js</title>
<g id="a_node12"><a xlink:href="https://github.com/sverweij/dependency-cruiser/blob/develop/utl/schema/rule-summary.js" xlink:title="rule&#45;summary.js">
<path fill="#ffffcc" stroke="black" d="M531.62,-153.69C531.62,-153.69 463.26,-153.69 463.26,-153.69 460.43,-153.69 457.59,-150.86 457.59,-148.02 457.59,-148.02 457.59,-142.36 457.59,-142.36 457.59,-139.52 460.43,-136.69 463.26,-136.69 463.26,-136.69 531.62,-136.69 531.62,-136.69 534.45,-136.69 537.28,-139.52 537.28,-142.36 537.28,-142.36 537.28,-148.02 537.28,-148.02 537.28,-150.86 534.45,-153.69 531.62,-153.69"/>
<text text-anchor="middle" x="497.44" y="-142.49" font-family="Helvetica,sans-Serif" font-size="9.00">rule&#45;summary.js</text>
</a>
</g>
</g>
<!-- modules.js&#45;&gt;rule&#45;summary.js -->
<g id="edge11" class="edge">
<title>modules.js&#45;&gt;rule&#45;summary.js</title>
<path fill="none" stroke="#000000" stroke-width="2" stroke-opacity="0.200000" d="M312.51,-172.01C348.16,-166.81 409.42,-157.88 451.37,-151.76"/>
<polygon fill="#000000" fill-opacity="0.200000" stroke="#000000" stroke-width="2" stroke-opacity="0.200000" points="451.78,-153.82 457.42,-150.88 451.18,-149.67 451.78,-153.82"/>
</g>
<!-- summary.js&#45;&gt;rule&#45;set.js -->
<g id="edge29" class="edge">
<title>summary.js&#45;&gt;rule&#45;set.js</title>
<path fill="none" stroke="#000000" stroke-width="2" stroke-opacity="0.200000" d="M198.58,-114.58C208.99,-109.89 221.43,-103.54 231.57,-96.19 246.59,-85.31 261.17,-69.79 270.73,-58.74"/>
<polygon fill="#000000" fill-opacity="0.200000" stroke="#000000" stroke-width="2" stroke-opacity="0.200000" points="272.47,-59.94 274.75,-54.01 269.26,-57.22 272.47,-59.94"/>
</g>
<!-- options&#45;used.js -->
<g id="node14" class="node">
<title>options&#45;used.js</title>
<g id="a_node14"><a xlink:href="https://github.com/sverweij/dependency-cruiser/blob/develop/utl/schema/options-used.js" xlink:title="options&#45;used.js">
<path fill="#ffffcc" stroke="black" d="M315.21,-131.69C315.21,-131.69 250.47,-131.69 250.47,-131.69 247.64,-131.69 244.81,-128.86 244.81,-126.02 244.81,-126.02 244.81,-120.36 244.81,-120.36 244.81,-117.52 247.64,-114.69 250.47,-114.69 250.47,-114.69 315.21,-114.69 315.21,-114.69 318.04,-114.69 320.88,-117.52 320.88,-120.36 320.88,-120.36 320.88,-126.02 320.88,-126.02 320.88,-128.86 318.04,-131.69 315.21,-131.69"/>
<text text-anchor="middle" x="282.84" y="-120.49" font-family="Helvetica,sans-Serif" font-size="9.00">options&#45;used.js</text>
</a>
</g>
</g>
<!-- summary.js&#45;&gt;options&#45;used.js -->
<g id="edge28" class="edge">
<title>summary.js&#45;&gt;options&#45;used.js</title>
<path fill="none" stroke="#000000" stroke-width="2" stroke-opacity="0.200000" d="M206.98,-123.19C216.77,-123.19 227.87,-123.19 238.46,-123.19"/>
<polygon fill="#000000" fill-opacity="0.200000" stroke="#000000" stroke-width="2" stroke-opacity="0.200000" points="238.63,-125.29 244.63,-123.19 238.63,-121.09 238.63,-125.29"/>
</g>
<!-- dependencies.js&#45;&gt;dependency&#45;type.js -->
<g id="edge5" class="edge">
<title>dependencies.js&#45;&gt;dependency&#45;type.js</title>
<path fill="none" stroke="#000000" stroke-width="2" stroke-opacity="0.200000" d="M412.53,-220.64C425.53,-217.62 440.25,-214.21 453.69,-211.1"/>
<polygon fill="#000000" fill-opacity="0.200000" stroke="#000000" stroke-width="2" stroke-opacity="0.200000" points="454.39,-213.09 459.76,-209.69 453.44,-209 454.39,-213.09"/>
</g>
<!-- module&#45;system&#45;type.js -->
<g id="node11" class="node">
<title>module&#45;system&#45;type.js</title>
<g id="a_node11"><a xlink:href="https://github.com/sverweij/dependency-cruiser/blob/develop/utl/schema/module-system-type.js" xlink:title="module&#45;system&#45;type.js">
<polygon fill="white" stroke="transparent" points="685.76,-152.69 579.71,-152.69 579.71,-135.69 685.76,-135.69 685.76,-152.69"/>
<polyline fill="none" stroke="darkgrey" points="579.71,-135.69 685.76,-135.69 "/>
<text text-anchor="middle" x="632.73" y="-141.49" font-family="Helvetica,sans-Serif" font-size="9.00" fill="darkgrey">module&#45;system&#45;type.js</text>
</a>
</g>
</g>
<!-- dependencies.js&#45;&gt;module&#45;system&#45;type.js -->
<g id="edge6" class="edge">
<title>dependencies.js&#45;&gt;module&#45;system&#45;type.js</title>
<path fill="none" stroke="#000000" stroke-width="2" stroke-opacity="0.200000" d="M383.67,-220.63C393.3,-210.94 410.36,-195.43 428.16,-187.19 485.1,-160.84 505.45,-173.69 566.72,-160.19 574.95,-158.38 583.74,-156.31 592.1,-154.27"/>
<polygon fill="#000000" fill-opacity="0.200000" stroke="#000000" stroke-width="2" stroke-opacity="0.200000" points="593.07,-156.19 598.4,-152.72 592.07,-152.11 593.07,-156.19"/>
</g>
<!-- dependencies.js&#45;&gt;rule&#45;summary.js -->
<g id="edge7" class="edge">
<title>dependencies.js&#45;&gt;rule&#45;summary.js</title>
<path fill="none" stroke="#000000" stroke-width="2" stroke-opacity="0.200000" d="M380.15,-220.42C387.96,-206.17 405.35,-178.07 428.16,-163.19 435.11,-158.65 443.17,-155.25 451.25,-152.71"/>
<polygon fill="#000000" fill-opacity="0.200000" stroke="#000000" stroke-width="2" stroke-opacity="0.200000" points="452.24,-154.61 457.42,-150.93 451.08,-150.58 452.24,-154.61"/>
</g>
<!-- rule&#45;summary.js&#45;&gt;severity&#45;type.js -->
<g id="edge27" class="edge">
<title>rule&#45;summary.js&#45;&gt;severity&#45;type.js</title>
<path fill="none" stroke="#000000" stroke-width="2" stroke-opacity="0.200000" d="M537.44,-141.38C547.41,-139.31 557.82,-136.11 566.72,-131.19 590.86,-117.84 611.45,-92.5 622.66,-76.81"/>
<polygon fill="#000000" fill-opacity="0.200000" stroke="#000000" stroke-width="2" stroke-opacity="0.200000" points="624.39,-78.01 626.1,-71.89 620.94,-75.61 624.39,-78.01"/>
</g>
<!-- module&#45;systems&#45;type.js&#45;&gt;module&#45;system&#45;type.js -->
<g id="edge8" class="edge">
<title>module&#45;systems&#45;type.js&#45;&gt;module&#45;system&#45;type.js</title>
<path fill="none" stroke="#000000" stroke-width="2" stroke-opacity="0.200000" d="M539.16,-124.74C553.75,-127.81 570.32,-131.29 585.36,-134.45"/>
<polygon fill="#000000" fill-opacity="0.200000" stroke="#000000" stroke-width="2" stroke-opacity="0.200000" points="584.96,-136.51 591.27,-135.69 585.83,-132.4 584.96,-136.51"/>
</g>
<!-- options&#45;used.js&#45;&gt;compound&#45;donot&#45;follow&#45;type.js -->
<g id="edge12" class="edge">
<title>options&#45;used.js&#45;&gt;compound&#45;donot&#45;follow&#45;type.js</title>
<path fill="none" stroke="#000000" stroke-width="2" stroke-opacity="0.200000" d="M295.31,-131.77C303.93,-138.9 315.23,-149.85 321.11,-162.19 330.94,-182.82 317.58,-248.41 334.11,-264.19 365.92,-294.54 418.98,-292.82 455.74,-286.78"/>
<polygon fill="#000000" fill-opacity="0.200000" stroke="#000000" stroke-width="2" stroke-opacity="0.200000" points="456.4,-288.8 461.95,-285.7 455.67,-284.66 456.4,-288.8"/>
</g>
<!-- options&#45;used.js&#45;&gt;compound&#45;exclude&#45;type.js -->
<g id="edge13" class="edge">
<title>options&#45;used.js&#45;&gt;compound&#45;exclude&#45;type.js</title>
<path fill="none" stroke="#000000" stroke-width="2" stroke-opacity="0.200000" d="M295.21,-131.82C303.77,-138.97 315.04,-149.94 321.11,-162.19 337.49,-195.25 306.05,-220.23 334.11,-244.19 371.19,-275.85 432.28,-263.81 468,-252.67"/>
<polygon fill="#000000" fill-opacity="0.200000" stroke="#000000" stroke-width="2" stroke-opacity="0.200000" points="468.87,-254.6 473.94,-250.75 467.58,-250.6 468.87,-254.6"/>
</g>
<!-- options&#45;used.js&#45;&gt;options.js -->
<g id="edge16" class="edge">
<title>options&#45;used.js&#45;&gt;options.js</title>
<path fill="none" stroke="#000000" stroke-width="2" stroke-opacity="0.200000" d="M311.27,-114.64C320.93,-111.62 331.86,-108.21 341.85,-105.1"/>
<polygon fill="#000000" fill-opacity="0.200000" stroke="#000000" stroke-width="2" stroke-opacity="0.200000" points="342.5,-107.1 347.6,-103.31 341.25,-103.09 342.5,-107.1"/>
</g>
<!-- options&#45;used.js&#45;&gt;dependency&#45;type.js -->
<g id="edge14" class="edge">
<title>options&#45;used.js&#45;&gt;dependency&#45;type.js</title>
<path fill="none" stroke="#000000" stroke-width="2" stroke-opacity="0.200000" d="M307.41,-131.83C346.54,-146.19 424.82,-174.91 467.34,-190.51"/>
<polygon fill="#000000" fill-opacity="0.200000" stroke="#000000" stroke-width="2" stroke-opacity="0.200000" points="466.74,-192.53 473.09,-192.62 468.18,-188.59 466.74,-192.53"/>
</g>
<!-- options&#45;used.js&#45;&gt;module&#45;systems&#45;type.js -->
<g id="edge15" class="edge">
<title>options&#45;used.js&#45;&gt;module&#45;systems&#45;type.js</title>
<path fill="none" stroke="#000000" stroke-width="2" stroke-opacity="0.200000" d="M321.36,-121.95C353.02,-120.91 398.96,-119.4 435.83,-118.18"/>
<polygon fill="#000000" fill-opacity="0.200000" stroke="#000000" stroke-width="2" stroke-opacity="0.200000" points="436.21,-120.27 442.14,-117.98 436.07,-116.08 436.21,-120.27"/>
</g>
<!-- output&#45;type.js -->
<g id="node15" class="node">
<title>output&#45;type.js</title>
<g id="a_node15"><a xlink:href="https://github.com/sverweij/dependency-cruiser/blob/develop/utl/schema/output-type.js" xlink:title="output&#45;type.js">
<polygon fill="white" stroke="transparent" points="409.66,-74.69 339.6,-74.69 339.6,-57.69 409.66,-57.69 409.66,-74.69"/>
<polyline fill="none" stroke="darkgrey" points="339.6,-57.69 409.66,-57.69 "/>
<text text-anchor="middle" x="374.63" y="-63.49" font-family="Helvetica,sans-Serif" font-size="9.00" fill="darkgrey">output&#45;type.js</text>
</a>
</g>
</g>
<!-- options&#45;used.js&#45;&gt;output&#45;type.js -->
<g id="edge17" class="edge">
<title>options&#45;used.js&#45;&gt;output&#45;type.js</title>
<path fill="none" stroke="#000000" stroke-width="2" stroke-opacity="0.200000" d="M292.41,-114.46C301.91,-105.2 318.01,-90.61 334.11,-81.19 336.39,-79.85 338.81,-78.6 341.29,-77.43"/>
<polygon fill="#000000" fill-opacity="0.200000" stroke="#000000" stroke-width="2" stroke-opacity="0.200000" points="342.49,-79.19 347.13,-74.84 340.79,-75.35 342.49,-79.19"/>
</g>
<!-- options&#45;used.js&#45;&gt;reporter&#45;options.js -->
<g id="edge18" class="edge">
<title>options&#45;used.js&#45;&gt;reporter&#45;options.js</title>
<path fill="none" stroke="#000000" stroke-width="2" stroke-opacity="0.200000" d="M289.71,-114.36C297.56,-102.28 311.62,-79.73 321.11,-59.19 328.42,-43.36 319.89,-32.27 334.11,-22.19 377.74,8.73 444.35,-20 477.01,-37.68"/>
<polygon fill="#000000" fill-opacity="0.200000" stroke="#000000" stroke-width="2" stroke-opacity="0.200000" points="476.06,-39.55 482.32,-40.62 478.09,-35.88 476.06,-39.55"/>
</g>
<!-- restrictions.js&#45;&gt;dependency&#45;type.js -->
<g id="edge24" class="edge">
<title>restrictions.js&#45;&gt;dependency&#45;type.js</title>
<path fill="none" stroke="#000000" stroke-width="2" stroke-opacity="0.200000" d="M408.68,-45.41C411.12,-47.01 413.34,-48.91 415.16,-51.19 445.63,-89.29 401.65,-119.23 428.16,-160.19 436.9,-173.7 451.8,-183.4 465.46,-189.96"/>
<polygon fill="#000000" fill-opacity="0.200000" stroke="#000000" stroke-width="2" stroke-opacity="0.200000" points="464.89,-192.01 471.22,-192.58 466.63,-188.18 464.89,-192.01"/>
</g>
</g>
</svg>
