<?xml version="1.0" encoding="UTF-8" standalone="no"?>
<!DOCTYPE svg PUBLIC "-//W3C//DTD SVG 1.1//EN"
 "http://www.w3.org/Graphics/SVG/1.1/DTD/svg11.dtd">
<!-- Generated by graphviz version 2.43.0 (0)
 -->
<!-- Title: dependency&#45;cruiser output Pages: 1 -->
<svg width="666pt" height="217pt"
 viewBox="0.00 0.00 665.71 217.00" xmlns="http://www.w3.org/2000/svg" xmlns:xlink="http://www.w3.org/1999/xlink">
<g id="graph0" class="graph" transform="scale(1 1) rotate(0) translate(4 213)">
<title>dependency&#45;cruiser output</title>
<polygon fill="white" stroke="transparent" points="-4,4 -4,-213 661.71,-213 661.71,4 -4,4"/>
<!-- configuration.schema.js -->
<g id="node1" class="node">
<title>configuration.schema.js</title>
<g id="a_node1"><a xlink:href="https://github.com/sverweij/dependency-cruiser/blob/develop/configuration.schema.js" xlink:title="configuration.schema.js">
<path fill="#ffffcc" stroke="black" d="M225.68,-39C225.68,-39 126.92,-39 126.92,-39 124.08,-39 121.25,-36.17 121.25,-33.33 121.25,-33.33 121.25,-27.67 121.25,-27.67 121.25,-24.83 124.08,-22 126.92,-22 126.92,-22 225.68,-22 225.68,-22 228.52,-22 231.35,-24.83 231.35,-27.67 231.35,-27.67 231.35,-33.33 231.35,-33.33 231.35,-36.17 228.52,-39 225.68,-39"/>
<text text-anchor="middle" x="176.3" y="-27.8" font-family="Helvetica,sans-Serif" font-size="9.00">configuration.schema.js</text>
</a>
</g>
</g>
<!-- options.js -->
<g id="node9" class="node">
<title>options.js</title>
<g id="a_node9"><a xlink:href="https://github.com/sverweij/dependency-cruiser/blob/develop/options.js" xlink:title="options.js">
<path fill="#ffffcc" stroke="black" d="M395.99,-75C395.99,-75 353.28,-75 353.28,-75 350.44,-75 347.61,-72.17 347.61,-69.33 347.61,-69.33 347.61,-63.67 347.61,-63.67 347.61,-60.83 350.44,-58 353.28,-58 353.28,-58 395.99,-58 395.99,-58 398.82,-58 401.65,-60.83 401.65,-63.67 401.65,-63.67 401.65,-69.33 401.65,-69.33 401.65,-72.17 398.82,-75 395.99,-75"/>
<text text-anchor="middle" x="374.63" y="-63.8" font-family="Helvetica,sans-Serif" font-size="9.00">options.js</text>
</a>
</g>
</g>
<!-- configuration.schema.js&#45;&gt;options.js -->
<g id="edge1" class="edge">
<title>configuration.schema.js&#45;&gt;options.js</title>
<path fill="none" stroke="#000000" stroke-width="2" stroke-opacity="0.200000" d="M231.39,-35.67C274.68,-35.67 327.71,-35.67 327.71,-35.67 327.71,-35.67 327.71,-67.67 327.71,-67.67 327.71,-67.67 337.61,-67.67 337.61,-67.67"/>
<polygon fill="#000000" fill-opacity="0.200000" stroke="#000000" stroke-width="2" stroke-opacity="0.200000" points="337.61,-71.17 347.61,-67.67 337.61,-64.17 337.61,-71.17"/>
</g>
<!-- rule&#45;set.js -->
<g id="node12" class="node">
<title>rule&#45;set.js</title>
<g id="a_node12"><a xlink:href="https://github.com/sverweij/dependency-cruiser/blob/develop/rule-set.js" xlink:title="rule&#45;set.js">
<path fill="#ffffcc" stroke="black" d="M304.69,-24C304.69,-24 261,-24 261,-24 258.16,-24 255.33,-21.17 255.33,-18.33 255.33,-18.33 255.33,-12.67 255.33,-12.67 255.33,-9.83 258.16,-7 261,-7 261,-7 304.69,-7 304.69,-7 307.52,-7 310.35,-9.83 310.35,-12.67 310.35,-12.67 310.35,-18.33 310.35,-18.33 310.35,-21.17 307.52,-24 304.69,-24"/>
<text text-anchor="middle" x="282.84" y="-12.8" font-family="Helvetica,sans-Serif" font-size="9.00">rule&#45;set.js</text>
</a>
</g>
</g>
<!-- configuration.schema.js&#45;&gt;rule&#45;set.js -->
<g id="edge2" class="edge">
<title>configuration.schema.js&#45;&gt;rule&#45;set.js</title>
<path fill="none" stroke="#000000" stroke-width="2" stroke-opacity="0.200000" d="M231.58,-32.33C257.9,-32.33 283.71,-32.33 283.71,-32.33 283.71,-32.33 283.71,-31.53 283.71,-31.53"/>
<polygon fill="#000000" fill-opacity="0.200000" stroke="#000000" stroke-width="2" stroke-opacity="0.200000" points="287.21,-34.31 283.71,-24.31 280.21,-34.31 287.21,-34.31"/>
</g>
<!-- cruise&#45;result.schema.js -->
<g id="node2" class="node">
<title>cruise&#45;result.schema.js</title>
<g id="a_node2"><a xlink:href="https://github.com/sverweij/dependency-cruiser/blob/develop/cruise-result.schema.js" xlink:title="cruise&#45;result.schema.js">
<path fill="#ffffcc" stroke="black" d="M102.37,-95C102.37,-95 5.65,-95 5.65,-95 2.82,-95 -0.01,-92.17 -0.01,-89.33 -0.01,-89.33 -0.01,-83.67 -0.01,-83.67 -0.01,-80.83 2.82,-78 5.65,-78 5.65,-78 102.37,-78 102.37,-78 105.21,-78 108.04,-80.83 108.04,-83.67 108.04,-83.67 108.04,-89.33 108.04,-89.33 108.04,-92.17 105.21,-95 102.37,-95"/>
<text text-anchor="middle" x="54.01" y="-83.8" font-family="Helvetica,sans-Serif" font-size="9.00">cruise&#45;result.schema.js</text>
</a>
</g>
</g>
<!-- modules.js -->
<g id="node7" class="node">
<title>modules.js</title>
<g id="a_node7"><a xlink:href="https://github.com/sverweij/dependency-cruiser/blob/develop/modules.js" xlink:title="modules.js">
<path fill="#ffffcc" stroke="black" d="M306.69,-155C306.69,-155 258.99,-155 258.99,-155 256.16,-155 253.32,-152.17 253.32,-149.33 253.32,-149.33 253.32,-143.67 253.32,-143.67 253.32,-140.83 256.16,-138 258.99,-138 258.99,-138 306.69,-138 306.69,-138 309.53,-138 312.36,-140.83 312.36,-143.67 312.36,-143.67 312.36,-149.33 312.36,-149.33 312.36,-152.17 309.53,-155 306.69,-155"/>
<text text-anchor="middle" x="282.84" y="-143.8" font-family="Helvetica,sans-Serif" font-size="9.00">modules.js</text>
</a>
</g>
</g>
<!-- cruise&#45;result.schema.js&#45;&gt;modules.js -->
<g id="edge3" class="edge">
<title>cruise&#45;result.schema.js&#45;&gt;modules.js</title>
<path fill="none" stroke="#000000" stroke-width="2" stroke-opacity="0.200000" d="M108.04,-86.6C173.09,-86.6 273.71,-86.6 273.71,-86.6 273.71,-86.6 273.71,-127.92 273.71,-127.92"/>
<polygon fill="#000000" fill-opacity="0.200000" stroke="#000000" stroke-width="2" stroke-opacity="0.200000" points="270.21,-127.92 273.71,-137.92 277.21,-127.92 270.21,-127.92"/>
</g>
<!-- summary.js -->
<g id="node15" class="node">
<title>summary.js</title>
<g id="a_node15"><a xlink:href="https://github.com/sverweij/dependency-cruiser/blob/develop/summary.js" xlink:title="summary.js">
<path fill="#ffffcc" stroke="black" d="M201.47,-81C201.47,-81 151.13,-81 151.13,-81 148.29,-81 145.46,-78.17 145.46,-75.33 145.46,-75.33 145.46,-69.67 145.46,-69.67 145.46,-66.83 148.29,-64 151.13,-64 151.13,-64 201.47,-64 201.47,-64 204.31,-64 207.14,-66.83 207.14,-69.67 207.14,-69.67 207.14,-75.33 207.14,-75.33 207.14,-78.17 204.31,-81 201.47,-81"/>
<text text-anchor="middle" x="176.3" y="-69.8" font-family="Helvetica,sans-Serif" font-size="9.00">summary.js</text>
</a>
</g>
</g>
<!-- cruise&#45;result.schema.js&#45;&gt;summary.js -->
<g id="edge4" class="edge">
<title>cruise&#45;result.schema.js&#45;&gt;summary.js</title>
<path fill="none" stroke="#000000" stroke-width="2" stroke-opacity="0.200000" d="M108.19,-83.8C141.06,-83.8 176.71,-83.8 176.71,-83.8 176.71,-83.8 176.71,-83.54 176.71,-83.54"/>
<polygon fill="#000000" fill-opacity="0.200000" stroke="#000000" stroke-width="2" stroke-opacity="0.200000" points="180.21,-91.18 176.71,-81.18 173.21,-91.18 180.21,-91.18"/>
</g>
<!-- dependencies.js -->
<g id="node3" class="node">
<title>dependencies.js</title>
<g id="a_node3"><a xlink:href="https://github.com/sverweij/dependency-cruiser/blob/develop/dependencies.js" xlink:title="dependencies.js">
<path fill="#ffffcc" stroke="black" d="M409.51,-209C409.51,-209 339.75,-209 339.75,-209 336.92,-209 334.08,-206.17 334.08,-203.33 334.08,-203.33 334.08,-197.67 334.08,-197.67 334.08,-194.83 336.92,-192 339.75,-192 339.75,-192 409.51,-192 409.51,-192 412.35,-192 415.18,-194.83 415.18,-197.67 415.18,-197.67 415.18,-203.33 415.18,-203.33 415.18,-206.17 412.35,-209 409.51,-209"/>
<text text-anchor="middle" x="374.63" y="-197.8" font-family="Helvetica,sans-Serif" font-size="9.00">dependencies.js</text>
</a>
</g>
</g>
<!-- dependency&#45;type.js -->
<g id="node4" class="node">
<title>dependency&#45;type.js</title>
<g id="a_node4"><a xlink:href="https://github.com/sverweij/dependency-cruiser/blob/develop/dependency-type.js" xlink:title="dependency&#45;type.js">
<path fill="#ffffcc" stroke="black" d="M524.8,-181C524.8,-181 442.04,-181 442.04,-181 439.2,-181 436.37,-178.17 436.37,-175.33 436.37,-175.33 436.37,-169.67 436.37,-169.67 436.37,-166.83 439.2,-164 442.04,-164 442.04,-164 524.8,-164 524.8,-164 527.64,-164 530.47,-166.83 530.47,-169.67 530.47,-169.67 530.47,-175.33 530.47,-175.33 530.47,-178.17 527.64,-181 524.8,-181"/>
<text text-anchor="middle" x="483.42" y="-169.8" font-family="Helvetica,sans-Serif" font-size="9.00">dependency&#45;type.js</text>
</a>
</g>
</g>
<!-- dependencies.js&#45;&gt;dependency&#45;type.js -->
<g id="edge5" class="edge">
<title>dependencies.js&#45;&gt;dependency&#45;type.js</title>
<path fill="none" stroke="#000000" stroke-width="2" stroke-opacity="0.200000" d="M407.71,-191.97C407.71,-185.46 407.71,-177.6 407.71,-177.6 407.71,-177.6 426.33,-177.6 426.33,-177.6"/>
<polygon fill="#000000" fill-opacity="0.200000" stroke="#000000" stroke-width="2" stroke-opacity="0.200000" points="426.33,-181.1 436.33,-177.6 426.33,-174.1 426.33,-181.1"/>
</g>
<!-- module&#45;system&#45;type.js -->
<g id="node5" class="node">
<title>module&#45;system&#45;type.js</title>
<g id="a_node5"><a xlink:href="https://github.com/sverweij/dependency-cruiser/blob/develop/module-system-type.js" xlink:title="module&#45;system&#45;type.js">
<path fill="#ffffcc" stroke="black" d="M652.06,-124C652.06,-124 557.34,-124 557.34,-124 554.5,-124 551.67,-121.17 551.67,-118.33 551.67,-118.33 551.67,-112.67 551.67,-112.67 551.67,-109.83 554.5,-107 557.34,-107 557.34,-107 652.06,-107 652.06,-107 654.89,-107 657.72,-109.83 657.72,-112.67 657.72,-112.67 657.72,-118.33 657.72,-118.33 657.72,-121.17 654.89,-124 652.06,-124"/>
<text text-anchor="middle" x="604.7" y="-112.8" font-family="Helvetica,sans-Serif" font-size="9.00">module&#45;system&#45;type.js</text>
</a>
</g>
</g>
<!-- dependencies.js&#45;&gt;module&#45;system&#45;type.js -->
<g id="edge6" class="edge">
<title>dependencies.js&#45;&gt;module&#45;system&#45;type.js</title>
<path fill="none" stroke="#000000" stroke-width="2" stroke-opacity="0.200000" d="M415.24,-200.5C481.29,-200.5 604.71,-200.5 604.71,-200.5 604.71,-200.5 604.71,-134.28 604.71,-134.28"/>
<polygon fill="#000000" fill-opacity="0.200000" stroke="#000000" stroke-width="2" stroke-opacity="0.200000" points="608.21,-134.28 604.71,-124.28 601.21,-134.28 608.21,-134.28"/>
</g>
<!-- rule&#45;summary.js -->
<g id="node13" class="node">
<title>rule&#45;summary.js</title>
<g id="a_node13"><a xlink:href="https://github.com/sverweij/dependency-cruiser/blob/develop/rule-summary.js" xlink:title="rule&#45;summary.js">
<path fill="#ffffcc" stroke="black" d="M517.6,-125C517.6,-125 449.24,-125 449.24,-125 446.41,-125 443.58,-122.17 443.58,-119.33 443.58,-119.33 443.58,-113.67 443.58,-113.67 443.58,-110.83 446.41,-108 449.24,-108 449.24,-108 517.6,-108 517.6,-108 520.43,-108 523.26,-110.83 523.26,-113.67 523.26,-113.67 523.26,-119.33 523.26,-119.33 523.26,-122.17 520.43,-125 517.6,-125"/>
<text text-anchor="middle" x="483.42" y="-113.8" font-family="Helvetica,sans-Serif" font-size="9.00">rule&#45;summary.js</text>
</a>
</g>
</g>
<!-- dependencies.js&#45;&gt;rule&#45;summary.js -->
<g id="edge7" class="edge">
<title>dependencies.js&#45;&gt;rule&#45;summary.js</title>
<path fill="none" stroke="#000000" stroke-width="2" stroke-opacity="0.200000" d="M404.71,-191.81C404.71,-170.87 404.71,-119.33 404.71,-119.33 404.71,-119.33 433.6,-119.33 433.6,-119.33"/>
<polygon fill="#000000" fill-opacity="0.200000" stroke="#000000" stroke-width="2" stroke-opacity="0.200000" points="433.6,-122.83 443.6,-119.33 433.6,-115.83 433.6,-122.83"/>
</g>
<!-- module&#45;systems&#45;type.js -->
<g id="node6" class="node">
<title>module&#45;systems&#45;type.js</title>
<g id="a_node6"><a xlink:href="https://github.com/sverweij/dependency-cruiser/blob/develop/module-systems-type.js" xlink:title="module&#45;systems&#45;type.js">
<path fill="#ffffcc" stroke="black" d="M532.78,-96C532.78,-96 434.06,-96 434.06,-96 431.23,-96 428.39,-93.17 428.39,-90.33 428.39,-90.33 428.39,-84.67 428.39,-84.67 428.39,-81.83 431.23,-79 434.06,-79 434.06,-79 532.78,-79 532.78,-79 535.61,-79 538.45,-81.83 538.45,-84.67 538.45,-84.67 538.45,-90.33 538.45,-90.33 538.45,-93.17 535.61,-96 532.78,-96"/>
<text text-anchor="middle" x="483.42" y="-84.8" font-family="Helvetica,sans-Serif" font-size="9.00">module&#45;systems&#45;type.js</text>
</a>
</g>
</g>
<!-- module&#45;systems&#45;type.js&#45;&gt;module&#45;system&#45;type.js -->
<g id="edge8" class="edge">
<title>module&#45;systems&#45;type.js&#45;&gt;module&#45;system&#45;type.js</title>
<path fill="none" stroke="#000000" stroke-width="2" stroke-opacity="0.200000" d="M534.71,-96.25C534.71,-103.74 534.71,-113.33 534.71,-113.33 534.71,-113.33 541.65,-113.33 541.65,-113.33"/>
<polygon fill="#000000" fill-opacity="0.200000" stroke="#000000" stroke-width="2" stroke-opacity="0.200000" points="541.65,-116.83 551.65,-113.33 541.65,-109.83 541.65,-116.83"/>
</g>
<!-- modules.js&#45;&gt;dependencies.js -->
<g id="edge9" class="edge">
<title>modules.js&#45;&gt;dependencies.js</title>
<path fill="none" stroke="#000000" stroke-width="2" stroke-opacity="0.200000" d="M312.56,-149.33C328.01,-149.33 343.71,-149.33 343.71,-149.33 343.71,-149.33 343.71,-181.59 343.71,-181.59"/>
<polygon fill="#000000" fill-opacity="0.200000" stroke="#000000" stroke-width="2" stroke-opacity="0.200000" points="340.21,-181.59 343.71,-191.59 347.21,-181.59 340.21,-181.59"/>
</g>
<!-- modules.js&#45;&gt;dependency&#45;type.js -->
<g id="edge10" class="edge">
<title>modules.js&#45;&gt;dependency&#45;type.js</title>
<path fill="none" stroke="#000000" stroke-width="2" stroke-opacity="0.200000" d="M312.54,-143.67C358.27,-143.67 440.71,-143.67 440.71,-143.67 440.71,-143.67 440.71,-153.69 440.71,-153.69"/>
<polygon fill="#000000" fill-opacity="0.200000" stroke="#000000" stroke-width="2" stroke-opacity="0.200000" points="437.21,-153.69 440.71,-163.69 444.21,-153.69 437.21,-153.69"/>
</g>
<!-- modules.js&#45;&gt;rule&#45;summary.js -->
<g id="edge11" class="edge">
<title>modules.js&#45;&gt;rule&#45;summary.js</title>
<path fill="none" stroke="#000000" stroke-width="2" stroke-opacity="0.200000" d="M292.71,-137.87C292.71,-128.15 292.71,-113.67 292.71,-113.67 292.71,-113.67 433.44,-113.67 433.44,-113.67"/>
<polygon fill="#000000" fill-opacity="0.200000" stroke="#000000" stroke-width="2" stroke-opacity="0.200000" points="433.44,-117.17 443.44,-113.67 433.44,-110.17 433.44,-117.17"/>
</g>
<!-- options&#45;used.js -->
<g id="node8" class="node">
<title>options&#45;used.js</title>
<g id="a_node8"><a xlink:href="https://github.com/sverweij/dependency-cruiser/blob/develop/options-used.js" xlink:title="options&#45;used.js">
<path fill="#ffffcc" stroke="black" d="M315.21,-81C315.21,-81 250.47,-81 250.47,-81 247.64,-81 244.81,-78.17 244.81,-75.33 244.81,-75.33 244.81,-69.67 244.81,-69.67 244.81,-66.83 247.64,-64 250.47,-64 250.47,-64 315.21,-64 315.21,-64 318.04,-64 320.88,-66.83 320.88,-69.67 320.88,-69.67 320.88,-75.33 320.88,-75.33 320.88,-78.17 318.04,-81 315.21,-81"/>
<text text-anchor="middle" x="282.84" y="-69.8" font-family="Helvetica,sans-Serif" font-size="9.00">options&#45;used.js</text>
</a>
</g>
</g>
<!-- options&#45;used.js&#45;&gt;dependency&#45;type.js -->
<g id="edge12" class="edge">
<title>options&#45;used.js&#45;&gt;dependency&#45;type.js</title>
<path fill="none" stroke="#000000" stroke-width="2" stroke-opacity="0.200000" d="M315.71,-81.17C315.71,-105.76 315.71,-174.2 315.71,-174.2 315.71,-174.2 426.26,-174.2 426.26,-174.2"/>
<polygon fill="#000000" fill-opacity="0.200000" stroke="#000000" stroke-width="2" stroke-opacity="0.200000" points="426.26,-177.7 436.26,-174.2 426.26,-170.7 426.26,-177.7"/>
</g>
<!-- options&#45;used.js&#45;&gt;module&#45;systems&#45;type.js -->
<g id="edge13" class="edge">
<title>options&#45;used.js&#45;&gt;module&#45;systems&#45;type.js</title>
<path fill="none" stroke="#000000" stroke-width="2" stroke-opacity="0.200000" d="M318.71,-81.43C318.71,-86.64 318.71,-92.2 318.71,-92.2 318.71,-92.2 418.12,-92.2 418.12,-92.2"/>
<polygon fill="#000000" fill-opacity="0.200000" stroke="#000000" stroke-width="2" stroke-opacity="0.200000" points="418.12,-95.7 428.12,-92.2 418.12,-88.7 418.12,-95.7"/>
</g>
<!-- options&#45;used.js&#45;&gt;options.js -->
<g id="edge14" class="edge">
<title>options&#45;used.js&#45;&gt;options.js</title>
<path fill="none" stroke="#000000" stroke-width="2" stroke-opacity="0.200000" d="M320.97,-71.33C320.97,-71.33 337.39,-71.33 337.39,-71.33"/>
<polygon fill="#000000" fill-opacity="0.200000" stroke="#000000" stroke-width="2" stroke-opacity="0.200000" points="337.39,-74.83 347.39,-71.33 337.39,-67.83 337.39,-74.83"/>
</g>
<!-- output&#45;type.js -->
<g id="node10" class="node">
<title>output&#45;type.js</title>
<g id="a_node10"><a xlink:href="https://github.com/sverweij/dependency-cruiser/blob/develop/output-type.js" xlink:title="output&#45;type.js">
<path fill="#ffffcc" stroke="black" d="M404,-46C404,-46 345.27,-46 345.27,-46 342.44,-46 339.6,-43.17 339.6,-40.33 339.6,-40.33 339.6,-34.67 339.6,-34.67 339.6,-31.83 342.44,-29 345.27,-29 345.27,-29 404,-29 404,-29 406.83,-29 409.66,-31.83 409.66,-34.67 409.66,-34.67 409.66,-40.33 409.66,-40.33 409.66,-43.17 406.83,-46 404,-46"/>
<text text-anchor="middle" x="374.63" y="-34.8" font-family="Helvetica,sans-Serif" font-size="9.00">output&#45;type.js</text>
</a>
</g>
</g>
<!-- options&#45;used.js&#45;&gt;output&#45;type.js -->
<g id="edge15" class="edge">
<title>options&#45;used.js&#45;&gt;output&#45;type.js</title>
<path fill="none" stroke="#000000" stroke-width="2" stroke-opacity="0.200000" d="M316.71,-63.98C316.71,-55.11 316.71,-42.5 316.71,-42.5 316.71,-42.5 329.6,-42.5 329.6,-42.5"/>
<polygon fill="#000000" fill-opacity="0.200000" stroke="#000000" stroke-width="2" stroke-opacity="0.200000" points="329.6,-46 339.6,-42.5 329.6,-39 329.6,-46"/>
</g>
<!-- options.js&#45;&gt;dependency&#45;type.js -->
<g id="edge16" class="edge">
<title>options.js&#45;&gt;dependency&#45;type.js</title>
<path fill="none" stroke="#000000" stroke-width="2" stroke-opacity="0.200000" d="M365.71,-75.04C365.71,-99.95 365.71,-170.8 365.71,-170.8 365.71,-170.8 426.22,-170.8 426.22,-170.8"/>
<polygon fill="#000000" fill-opacity="0.200000" stroke="#000000" stroke-width="2" stroke-opacity="0.200000" points="426.22,-174.3 436.22,-170.8 426.22,-167.3 426.22,-174.3"/>
</g>
<!-- options.js&#45;&gt;module&#45;systems&#45;type.js -->
<g id="edge17" class="edge">
<title>options.js&#45;&gt;module&#45;systems&#45;type.js</title>
<path fill="none" stroke="#000000" stroke-width="2" stroke-opacity="0.200000" d="M383.71,-75.03C383.71,-81.54 383.71,-89.4 383.71,-89.4 383.71,-89.4 418.32,-89.4 418.32,-89.4"/>
<polygon fill="#000000" fill-opacity="0.200000" stroke="#000000" stroke-width="2" stroke-opacity="0.200000" points="418.32,-92.9 428.32,-89.4 418.32,-85.9 418.32,-92.9"/>
</g>
<!-- restrictions.js -->
<g id="node11" class="node">
<title>restrictions.js</title>
<g id="a_node11"><a xlink:href="https://github.com/sverweij/dependency-cruiser/blob/develop/restrictions.js" xlink:title="restrictions.js">
<path fill="#ffffcc" stroke="black" d="M402.98,-17C402.98,-17 346.29,-17 346.29,-17 343.45,-17 340.62,-14.17 340.62,-11.33 340.62,-11.33 340.62,-5.67 340.62,-5.67 340.62,-2.83 343.45,0 346.29,0 346.29,0 402.98,0 402.98,0 405.81,0 408.64,-2.83 408.64,-5.67 408.64,-5.67 408.64,-11.33 408.64,-11.33 408.64,-14.17 405.81,-17 402.98,-17"/>
<text text-anchor="middle" x="374.63" y="-5.8" font-family="Helvetica,sans-Serif" font-size="9.00">restrictions.js</text>
</a>
</g>
</g>
<!-- restrictions.js&#45;&gt;dependency&#45;type.js -->
<g id="edge18" class="edge">
<title>restrictions.js&#45;&gt;dependency&#45;type.js</title>
<path fill="none" stroke="#000000" stroke-width="2" stroke-opacity="0.200000" d="M408.85,-8.5C416.15,-8.5 421.71,-8.5 421.71,-8.5 421.71,-8.5 421.71,-167.4 421.71,-167.4 421.71,-167.4 426.33,-167.4 426.33,-167.4"/>
<polygon fill="#000000" fill-opacity="0.200000" stroke="#000000" stroke-width="2" stroke-opacity="0.200000" points="426.33,-170.9 436.33,-167.4 426.33,-163.9 426.33,-170.9"/>
</g>
<!-- rule&#45;set.js&#45;&gt;restrictions.js -->
<g id="edge19" class="edge">
<title>rule&#45;set.js&#45;&gt;restrictions.js</title>
<path fill="none" stroke="#000000" stroke-width="2" stroke-opacity="0.200000" d="M310.38,-12C310.38,-12 330.61,-12 330.61,-12"/>
<polygon fill="#000000" fill-opacity="0.200000" stroke="#000000" stroke-width="2" stroke-opacity="0.200000" points="330.61,-15.5 340.61,-12 330.61,-8.5 330.61,-15.5"/>
</g>
<!-- severity&#45;type.js -->
<g id="node14" class="node">
<title>severity&#45;type.js</title>
<g id="a_node14"><a xlink:href="https://github.com/sverweij/dependency-cruiser/blob/develop/severity-type.js" xlink:title="severity&#45;type.js">
<path fill="#ffffcc" stroke="black" d="M637.05,-42C637.05,-42 572.35,-42 572.35,-42 569.51,-42 566.68,-39.17 566.68,-36.33 566.68,-36.33 566.68,-30.67 566.68,-30.67 566.68,-27.83 569.51,-25 572.35,-25 572.35,-25 637.05,-25 637.05,-25 639.88,-25 642.71,-27.83 642.71,-30.67 642.71,-30.67 642.71,-36.33 642.71,-36.33 642.71,-39.17 639.88,-42 637.05,-42"/>
<text text-anchor="middle" x="604.7" y="-30.8" font-family="Helvetica,sans-Serif" font-size="9.00">severity&#45;type.js</text>
</a>
</g>
</g>
<!-- rule&#45;set.js&#45;&gt;severity&#45;type.js -->
<g id="edge20" class="edge">
<title>rule&#45;set.js&#45;&gt;severity&#45;type.js</title>
<path fill="none" stroke="#000000" stroke-width="2" stroke-opacity="0.200000" d="M310.56,-20.5C388.64,-20.5 604.71,-20.5 604.71,-20.5 604.71,-20.5 604.71,-20.94 604.71,-20.94"/>
<polygon fill="#000000" fill-opacity="0.200000" stroke="#000000" stroke-width="2" stroke-opacity="0.200000" points="601.21,-14.9 604.71,-24.9 608.21,-14.9 601.21,-14.9"/>
</g>
<!-- rule&#45;summary.js&#45;&gt;severity&#45;type.js -->
<g id="edge21" class="edge">
<title>rule&#45;summary.js&#45;&gt;severity&#45;type.js</title>
<path fill="none" stroke="#000000" stroke-width="2" stroke-opacity="0.200000" d="M523.22,-118.67C535.43,-118.67 545.71,-118.67 545.71,-118.67 545.71,-118.67 545.71,-35.5 545.71,-35.5 545.71,-35.5 556.67,-35.5 556.67,-35.5"/>
<polygon fill="#000000" fill-opacity="0.200000" stroke="#000000" stroke-width="2" stroke-opacity="0.200000" points="556.67,-39 566.67,-35.5 556.67,-32 556.67,-39"/>
</g>
<!-- summary.js&#45;&gt;options&#45;used.js -->
<g id="edge22" class="edge">
<title>summary.js&#45;&gt;options&#45;used.js</title>
<path fill="none" stroke="#000000" stroke-width="2" stroke-opacity="0.200000" d="M207.12,-75.33C207.12,-75.33 234.52,-75.33 234.52,-75.33"/>
<polygon fill="#000000" fill-opacity="0.200000" stroke="#000000" stroke-width="2" stroke-opacity="0.200000" points="234.52,-78.83 244.52,-75.33 234.52,-71.83 234.52,-78.83"/>
</g>
<!-- summary.js&#45;&gt;rule&#45;set.js -->
<g id="edge23" class="edge">
<title>summary.js&#45;&gt;rule&#45;set.js</title>
<path fill="none" stroke="#000000" stroke-width="2" stroke-opacity="0.200000" d="M207.14,-69.67C222.86,-69.67 238.71,-69.67 238.71,-69.67 238.71,-69.67 238.71,-14.5 238.71,-14.5 238.71,-14.5 245.14,-14.5 245.14,-14.5"/>
<polygon fill="#000000" fill-opacity="0.200000" stroke="#000000" stroke-width="2" stroke-opacity="0.200000" points="245.14,-18 255.14,-14.5 245.14,-11 245.14,-18"/>
</g>
</g>
</svg>
