<?xml version="1.0" encoding="UTF-8" standalone="no"?>
<!DOCTYPE svg PUBLIC "-//W3C//DTD SVG 1.1//EN"
 "http://www.w3.org/Graphics/SVG/1.1/DTD/svg11.dtd">
<!-- Generated by graphviz version 7.0.6 (20230106.0513)
 -->
<!-- Title: dependency&#45;cruiser output Pages: 1 -->
<svg width="512pt" height="88pt"
 viewBox="0.00 0.00 511.50 88.00" xmlns="http://www.w3.org/2000/svg" xmlns:xlink="http://www.w3.org/1999/xlink">
<g id="graph0" class="graph" transform="scale(1 1) rotate(0) translate(4 84)">
<title>dependency&#45;cruiser output</title>
<polygon fill="white" stroke="none" points="-4,4 -4,-84 507.5,-84 507.5,4 -4,4"/>
<!-- a&#45;controller&#45;this&#45;is&#45;not.ts -->
<g id="node1" class="node">
<title>a&#45;controller&#45;this&#45;is&#45;not.ts</title>
<g id="a_node1"><a xlink:href="a-controller-this-is-not.ts" xlink:title="a&#45;controller&#45;this&#45;is&#45;not.ts">
<path fill="#ddfeff" stroke="black" d="M109,-49C109,-49 6,-49 6,-49 3,-49 0,-46 0,-43 0,-43 0,-37 0,-37 0,-34 3,-31 6,-31 6,-31 109,-31 109,-31 112,-31 115,-34 115,-37 115,-37 115,-43 115,-43 115,-46 112,-49 109,-49"/>
<text text-anchor="middle" x="57.5" y="-37.8" font-family="Helvetica,sans-Serif" font-size="9.00">a&#45;controller&#45;this&#45;is&#45;not.ts</text>
</a>
</g>
</g>
<!-- base&#45;controller.ts -->
<g id="node2" class="node">
<title>base&#45;controller.ts</title>
<g id="a_node2"><a xlink:href="base-controller.ts" xlink:title="base&#45;controller.ts">
<path fill="#ccffcc" stroke="black" d="M307,-80C307,-80 232,-80 232,-80 229,-80 226,-77 226,-74 226,-74 226,-68 226,-68 226,-65 229,-62 232,-62 232,-62 307,-62 307,-62 310,-62 313,-65 313,-68 313,-68 313,-74 313,-74 313,-77 310,-80 307,-80"/>
<text text-anchor="middle" x="269.5" y="-68.8" font-family="Helvetica,sans-Serif" font-size="9.00">base&#45;controller.ts</text>
</a>
</g>
</g>
<!-- cloud&#45;controller.ts -->
<g id="node3" class="node">
<title>cloud&#45;controller.ts</title>
<g id="a_node3"><a xlink:href="cloud-controller.ts" xlink:title="cloud&#45;controller.ts">
<path fill="#ccffcc" stroke="black" d="M210,-49C210,-49 133,-49 133,-49 130,-49 127,-46 127,-43 127,-43 127,-37 127,-37 127,-34 130,-31 133,-31 133,-31 210,-31 210,-31 213,-31 216,-34 216,-37 216,-37 216,-43 216,-43 216,-46 213,-49 210,-49"/>
<text text-anchor="middle" x="171.5" y="-37.8" font-family="Helvetica,sans-Serif" font-size="9.00">cloud&#45;controller.ts</text>
</a>
</g>
</g>
<!-- cloud&#45;controller.ts&#45;&gt;base&#45;controller.ts -->
<g id="edge1" class="edge">
<title>cloud&#45;controller.ts&#45;&gt;base&#45;controller.ts</title>
<path fill="none" stroke="#000000" stroke-width="2" stroke-opacity="0.200000" d="M171.5,-49.47C171.5,-58.59 171.5,-71 171.5,-71 171.5,-71 216.63,-71 216.63,-71"/>
<polygon fill="#000000" fill-opacity="0.200000" stroke="#000000" stroke-width="2" stroke-opacity="0.200000" points="216.63,-73.1 222.63,-71 216.63,-68.9 216.63,-73.1"/>
</g>
<!-- index.ts -->
<g id="node4" class="node">
<title>index.ts</title>
<g id="a_node4"><a xlink:href="index.ts" xlink:title="index.ts">
<path fill="#ddfeff" stroke="black" d="M290.5,-18C290.5,-18 248.5,-18 248.5,-18 245.5,-18 242.5,-15 242.5,-12 242.5,-12 242.5,-6 242.5,-6 242.5,-3 245.5,0 248.5,0 248.5,0 290.5,0 290.5,0 293.5,0 296.5,-3 296.5,-6 296.5,-6 296.5,-12 296.5,-12 296.5,-15 293.5,-18 290.5,-18"/>
<text text-anchor="middle" x="269.5" y="-6.8" font-family="Helvetica,sans-Serif" font-size="9.00">index.ts</text>
</a>
</g>
</g>
<!-- index.ts&#45;&gt;a&#45;controller&#45;this&#45;is&#45;not.ts -->
<g id="edge2" class="edge">
<title>index.ts&#45;&gt;a&#45;controller&#45;this&#45;is&#45;not.ts</title>
<path fill="none" stroke="#000000" stroke-width="2" stroke-opacity="0.200000" d="M242.22,-6C184.96,-6 57.5,-6 57.5,-6 57.5,-6 57.5,-21.68 57.5,-21.68"/>
<polygon fill="#000000" fill-opacity="0.200000" stroke="#000000" stroke-width="2" stroke-opacity="0.200000" points="55.4,-21.68 57.5,-27.68 59.6,-21.68 55.4,-21.68"/>
</g>
<!-- index.ts&#45;&gt;cloud&#45;controller.ts -->
<g id="edge3" class="edge">
<title>index.ts&#45;&gt;cloud&#45;controller.ts</title>
<path fill="none" stroke="#000000" stroke-width="2" stroke-opacity="0.200000" d="M242.2,-12C213.2,-12 171.5,-12 171.5,-12 171.5,-12 171.5,-21.49 171.5,-21.49"/>
<polygon fill="#000000" fill-opacity="0.200000" stroke="#000000" stroke-width="2" stroke-opacity="0.200000" points="169.4,-21.49 171.5,-27.49 173.6,-21.49 169.4,-21.49"/>
</g>
<!-- rain&#45;controller.ts -->
<g id="node5" class="node">
<title>rain&#45;controller.ts</title>
<g id="a_node5"><a xlink:href="rain-controller.ts" xlink:title="rain&#45;controller.ts">
<path fill="#ccffcc" stroke="black" d="M305,-49C305,-49 234,-49 234,-49 231,-49 228,-46 228,-43 228,-43 228,-37 228,-37 228,-34 231,-31 234,-31 234,-31 305,-31 305,-31 308,-31 311,-34 311,-37 311,-37 311,-43 311,-43 311,-46 308,-49 305,-49"/>
<text text-anchor="middle" x="269.5" y="-37.8" font-family="Helvetica,sans-Serif" font-size="9.00">rain&#45;controller.ts</text>
</a>
</g>
</g>
<!-- index.ts&#45;&gt;rain&#45;controller.ts -->
<g id="edge4" class="edge">
<title>index.ts&#45;&gt;rain&#45;controller.ts</title>
<path fill="none" stroke="#000000" stroke-width="2" stroke-opacity="0.200000" d="M269.5,-18.47C269.5,-18.47 269.5,-21.56 269.5,-21.56"/>
<polygon fill="#000000" fill-opacity="0.200000" stroke="#000000" stroke-width="2" stroke-opacity="0.200000" points="267.4,-21.56 269.5,-27.56 271.6,-21.56 267.4,-21.56"/>
</g>
<!-- sun&#45;controller.ts -->
<g id="node6" class="node">
<title>sun&#45;controller.ts</title>
<g id="a_node6"><a xlink:href="sun-controller.ts" xlink:title="sun&#45;controller.ts">
<path fill="#ccffcc" stroke="black" d="M399.5,-49C399.5,-49 329.5,-49 329.5,-49 326.5,-49 323.5,-46 323.5,-43 323.5,-43 323.5,-37 323.5,-37 323.5,-34 326.5,-31 329.5,-31 329.5,-31 399.5,-31 399.5,-31 402.5,-31 405.5,-34 405.5,-37 405.5,-37 405.5,-43 405.5,-43 405.5,-46 402.5,-49 399.5,-49"/>
<text text-anchor="middle" x="364.5" y="-37.8" font-family="Helvetica,sans-Serif" font-size="9.00">sun&#45;controller.ts</text>
</a>
</g>
</g>
<!-- index.ts&#45;&gt;sun&#45;controller.ts -->
<g id="edge5" class="edge">
<title>index.ts&#45;&gt;sun&#45;controller.ts</title>
<path fill="none" stroke="#000000" stroke-width="2" stroke-opacity="0.200000" d="M296.98,-12C325.04,-12 364.5,-12 364.5,-12 364.5,-12 364.5,-21.49 364.5,-21.49"/>
<polygon fill="#000000" fill-opacity="0.200000" stroke="#000000" stroke-width="2" stroke-opacity="0.200000" points="362.4,-21.49 364.5,-27.49 366.6,-21.49 362.4,-21.49"/>
</g>
<!-- wind&#45;controller.ts -->
<g id="node7" class="node">
<title>wind&#45;controller.ts</title>
<g id="a_node7"><a xlink:href="wind-controller.ts" xlink:title="wind&#45;controller.ts">
<path fill="#ccffcc" stroke="black" d="M497.5,-49C497.5,-49 423.5,-49 423.5,-49 420.5,-49 417.5,-46 417.5,-43 417.5,-43 417.5,-37 417.5,-37 417.5,-34 420.5,-31 423.5,-31 423.5,-31 497.5,-31 497.5,-31 500.5,-31 503.5,-34 503.5,-37 503.5,-37 503.5,-43 503.5,-43 503.5,-46 500.5,-49 497.5,-49"/>
<text text-anchor="middle" x="460.5" y="-37.8" font-family="Helvetica,sans-Serif" font-size="9.00">wind&#45;controller.ts</text>
</a>
</g>
</g>
<!-- index.ts&#45;&gt;wind&#45;controller.ts -->
<g id="edge6" class="edge">
<title>index.ts&#45;&gt;wind&#45;controller.ts</title>
<path fill="none" stroke="#000000" stroke-width="2" stroke-opacity="0.200000" d="M296.87,-6C349.68,-6 460.5,-6 460.5,-6 460.5,-6 460.5,-21.68 460.5,-21.68"/>
<polygon fill="#000000" fill-opacity="0.200000" stroke="#000000" stroke-width="2" stroke-opacity="0.200000" points="458.4,-21.68 460.5,-27.68 462.6,-21.68 458.4,-21.68"/>
</g>
<!-- rain&#45;controller.ts&#45;&gt;base&#45;controller.ts -->
<g id="edge7" class="edge">
<title>rain&#45;controller.ts&#45;&gt;base&#45;controller.ts</title>
<path fill="none" stroke="#000000" stroke-width="2" stroke-opacity="0.200000" d="M269.5,-49.47C269.5,-49.47 269.5,-52.56 269.5,-52.56"/>
<polygon fill="#000000" fill-opacity="0.200000" stroke="#000000" stroke-width="2" stroke-opacity="0.200000" points="267.4,-52.56 269.5,-58.56 271.6,-52.56 267.4,-52.56"/>
</g>
<!-- sun&#45;controller.ts&#45;&gt;base&#45;controller.ts -->
<g id="edge8" class="edge">
<title>sun&#45;controller.ts&#45;&gt;base&#45;controller.ts</title>
<path fill="none" stroke="#000000" stroke-width="2" stroke-opacity="0.200000" d="M364.5,-49.47C364.5,-58.59 364.5,-71 364.5,-71 364.5,-71 322.41,-71 322.41,-71"/>
<polygon fill="#000000" fill-opacity="0.200000" stroke="#000000" stroke-width="2" stroke-opacity="0.200000" points="322.41,-68.9 316.41,-71 322.41,-73.1 322.41,-68.9"/>
</g>
</g>
</svg>
