<?xml version="1.0" encoding="UTF-8" standalone="no"?>
<!DOCTYPE svg PUBLIC "-//W3C//DTD SVG 1.1//EN"
 "http://www.w3.org/Graphics/SVG/1.1/DTD/svg11.dtd">
<!-- Generated by graphviz version 2.44.1 (20200629.0846)
 -->
<!-- Title: dependency&#45;cruiser output Pages: 1 -->
<svg width="533pt" height="350pt"
 viewBox="0.00 0.00 533.00 350.00" xmlns="http://www.w3.org/2000/svg" xmlns:xlink="http://www.w3.org/1999/xlink">
<g id="graph0" class="graph" transform="scale(1 1) rotate(0) translate(4 346)">
<title>dependency&#45;cruiser output</title>
<polygon fill="white" stroke="transparent" points="-4,4 -4,-346 529,-346 529,4 -4,4"/>
<g id="clust1" class="cluster">
<title>cluster_app</title>
<path fill="#ffffff" stroke="black" stroke-width="2" d="M268,-282C268,-282 350,-282 350,-282 356,-282 362,-288 362,-294 362,-294 362,-322 362,-322 362,-328 356,-334 350,-334 350,-334 268,-334 268,-334 262,-334 256,-328 256,-322 256,-322 256,-294 256,-294 256,-288 262,-282 268,-282"/>
<text text-anchor="middle" x="309" y="-322.8" font-family="Helvetica,sans-Serif" font-weight="bold" font-size="9.00">app</text>
</g>
<g id="clust2" class="cluster">
<title>cluster_common</title>
<path fill="#ffffff" stroke="black" stroke-width="2" d="M233,-8C233,-8 283,-8 283,-8 289,-8 295,-14 295,-20 295,-20 295,-48 295,-48 295,-54 289,-60 283,-60 283,-60 233,-60 233,-60 227,-60 221,-54 221,-48 221,-48 221,-20 221,-20 221,-14 227,-8 233,-8"/>
<text text-anchor="middle" x="258" y="-48.8" font-family="Helvetica,sans-Serif" font-weight="bold" font-size="9.00">common</text>
</g>
<g id="clust3" class="cluster">
<title>cluster_features</title>
<path fill="#ffffff" stroke="black" stroke-width="2" d="M20,-68C20,-68 460,-68 460,-68 466,-68 472,-74 472,-80 472,-80 472,-262 472,-262 472,-268 466,-274 460,-274 460,-274 20,-274 20,-274 14,-274 8,-268 8,-262 8,-262 8,-80 8,-80 8,-74 14,-68 20,-68"/>
<text text-anchor="middle" x="240" y="-262.8" font-family="Helvetica,sans-Serif" font-weight="bold" font-size="9.00">features</text>
</g>
<g id="clust4" class="cluster">
<title>cluster_features/buy&#45;ticket</title>
<path fill="#ffffff" stroke="black" stroke-width="2" d="M332,-136C332,-136 452,-136 452,-136 458,-136 464,-142 464,-148 464,-148 464,-176 464,-176 464,-182 458,-188 452,-188 452,-188 332,-188 332,-188 326,-188 320,-182 320,-176 320,-176 320,-148 320,-148 320,-142 326,-136 332,-136"/>
<text text-anchor="middle" x="392" y="-176.8" font-family="Helvetica,sans-Serif" font-weight="bold" font-size="9.00">buy&#45;ticket</text>
</g>
<g id="clust5" class="cluster">
<title>cluster_features/check&#45;in</title>
<path fill="#ffffff" stroke="black" stroke-width="2" d="M184,-136C184,-136 300,-136 300,-136 306,-136 312,-142 312,-148 312,-148 312,-236 312,-236 312,-242 306,-248 300,-248 300,-248 184,-248 184,-248 178,-248 172,-242 172,-236 172,-236 172,-148 172,-148 172,-142 178,-136 184,-136"/>
<text text-anchor="middle" x="242" y="-236.8" font-family="Helvetica,sans-Serif" font-weight="bold" font-size="9.00">check&#45;in</text>
</g>
<g id="clust6" class="cluster">
<title>cluster_features/information</title>
<path fill="#ffffff" stroke="black" stroke-width="2" d="M106,-196C106,-196 152,-196 152,-196 158,-196 164,-202 164,-208 164,-208 164,-236 164,-236 164,-242 158,-248 152,-248 152,-248 106,-248 106,-248 100,-248 94,-242 94,-236 94,-236 94,-208 94,-208 94,-202 100,-196 106,-196"/>
<text text-anchor="middle" x="129" y="-236.8" font-family="Helvetica,sans-Serif" font-weight="bold" font-size="9.00">information</text>
</g>
<g id="clust7" class="cluster">
<title>cluster_features/refund</title>
<path fill="#ffffff" stroke="black" stroke-width="2" d="M28,-196C28,-196 74,-196 74,-196 80,-196 86,-202 86,-208 86,-208 86,-236 86,-236 86,-242 80,-248 74,-248 74,-248 28,-248 28,-248 22,-248 16,-242 16,-236 16,-236 16,-208 16,-208 16,-202 22,-196 28,-196"/>
<text text-anchor="middle" x="51" y="-236.8" font-family="Helvetica,sans-Serif" font-weight="bold" font-size="9.00">refund</text>
</g>
<g id="clust8" class="cluster">
<title>cluster_features/select&#45;icecream</title>
<path fill="#ffffff" stroke="black" stroke-width="2" d="M328,-76C328,-76 390,-76 390,-76 396,-76 402,-82 402,-88 402,-88 402,-116 402,-116 402,-122 396,-128 390,-128 390,-128 328,-128 328,-128 322,-128 316,-122 316,-116 316,-116 316,-88 316,-88 316,-82 322,-76 328,-76"/>
<text text-anchor="middle" x="359" y="-116.8" font-family="Helvetica,sans-Serif" font-weight="bold" font-size="9.00">select&#45;icecream</text>
</g>
<!-- app/touchpoint&#45;web.ts -->
<g id="node1" class="node">
<title>app/touchpoint&#45;web.ts</title>
<g id="a_node1"><a xlink:href="app/touchpoint-web.ts" xlink:title="touchpoint&#45;web.ts">
<path fill="#ddfeff" stroke="black" d="M347.5,-308C347.5,-308 270.5,-308 270.5,-308 267.5,-308 264.5,-305 264.5,-302 264.5,-302 264.5,-296 264.5,-296 264.5,-293 267.5,-290 270.5,-290 270.5,-290 347.5,-290 347.5,-290 350.5,-290 353.5,-293 353.5,-296 353.5,-296 353.5,-302 353.5,-302 353.5,-305 350.5,-308 347.5,-308"/>
<text text-anchor="middle" x="309" y="-296.8" font-family="Helvetica,sans-Serif" font-size="9.00">touchpoint&#45;web.ts</text>
</a>
</g>
</g>
<!-- features/buy&#45;ticket/checkout.ts -->
<g id="node2" class="node">
<title>features/buy&#45;ticket/checkout.ts</title>
<g id="a_node2"><a xlink:href="features/buy-ticket/checkout.ts" xlink:title="checkout.ts">
<path fill="#ddfeff" stroke="black" d="M384,-162C384,-162 334,-162 334,-162 331,-162 328,-159 328,-156 328,-156 328,-150 328,-150 328,-147 331,-144 334,-144 334,-144 384,-144 384,-144 387,-144 390,-147 390,-150 390,-150 390,-156 390,-156 390,-159 387,-162 384,-162"/>
<text text-anchor="middle" x="359" y="-150.8" font-family="Helvetica,sans-Serif" font-size="9.00">checkout.ts</text>
</a>
</g>
</g>
<!-- app/touchpoint&#45;web.ts&#45;&gt;features/buy&#45;ticket/checkout.ts -->
<g id="edge1" class="edge">
<title>app/touchpoint&#45;web.ts&#45;&gt;features/buy&#45;ticket/checkout.ts</title>
<path fill="none" stroke="#000000" stroke-width="2" stroke-opacity="0.200000" d="M340.75,-289.87C340.75,-289.87 340.75,-168.13 340.75,-168.13"/>
<polygon fill="#000000" fill-opacity="0.200000" stroke="#000000" stroke-width="2" stroke-opacity="0.200000" points="342.85,-168.13 340.75,-162.13 338.65,-168.13 342.85,-168.13"/>
</g>
<!-- features/buy&#45;ticket/search.ts -->
<g id="node3" class="node">
<title>features/buy&#45;ticket/search.ts</title>
<g id="a_node3"><a xlink:href="features/buy-ticket/search.ts" xlink:title="search.ts">
<path fill="#ddfeff" stroke="black" d="M450,-162C450,-162 408,-162 408,-162 405,-162 402,-159 402,-156 402,-156 402,-150 402,-150 402,-147 405,-144 408,-144 408,-144 450,-144 450,-144 453,-144 456,-147 456,-150 456,-150 456,-156 456,-156 456,-159 453,-162 450,-162"/>
<text text-anchor="middle" x="429" y="-150.8" font-family="Helvetica,sans-Serif" font-size="9.00">search.ts</text>
</a>
</g>
</g>
<!-- app/touchpoint&#45;web.ts&#45;&gt;features/buy&#45;ticket/search.ts -->
<g id="edge2" class="edge">
<title>app/touchpoint&#45;web.ts&#45;&gt;features/buy&#45;ticket/search.ts</title>
<path fill="none" stroke="#000000" stroke-width="2" stroke-opacity="0.200000" d="M353.68,-299C387.8,-299 429,-299 429,-299 429,-299 429,-168.13 429,-168.13"/>
<polygon fill="#000000" fill-opacity="0.200000" stroke="#000000" stroke-width="2" stroke-opacity="0.200000" points="431.1,-168.13 429,-162.13 426.9,-168.13 431.1,-168.13"/>
</g>
<!-- features/check&#45;in/index.ts -->
<g id="node4" class="node">
<title>features/check&#45;in/index.ts</title>
<g id="a_node4"><a xlink:href="features/check-in/index.ts" xlink:title="index.ts">
<path fill="#ddfeff" stroke="black" d="M297,-222C297,-222 255,-222 255,-222 252,-222 249,-219 249,-216 249,-216 249,-210 249,-210 249,-207 252,-204 255,-204 255,-204 297,-204 297,-204 300,-204 303,-207 303,-210 303,-210 303,-216 303,-216 303,-219 300,-222 297,-222"/>
<text text-anchor="middle" x="276" y="-210.8" font-family="Helvetica,sans-Serif" font-size="9.00">index.ts</text>
</a>
</g>
</g>
<!-- app/touchpoint&#45;web.ts&#45;&gt;features/check&#45;in/index.ts -->
<g id="edge3" class="edge">
<title>app/touchpoint&#45;web.ts&#45;&gt;features/check&#45;in/index.ts</title>
<path fill="none" stroke="#000000" stroke-width="2" stroke-opacity="0.200000" d="M283.75,-289.8C283.75,-289.8 283.75,-228.14 283.75,-228.14"/>
<polygon fill="#000000" fill-opacity="0.200000" stroke="#000000" stroke-width="2" stroke-opacity="0.200000" points="285.85,-228.14 283.75,-222.14 281.65,-228.14 285.85,-228.14"/>
</g>
<!-- features/information/index.ts -->
<g id="node5" class="node">
<title>features/information/index.ts</title>
<g id="a_node5"><a xlink:href="features/information/index.ts" xlink:title="index.ts">
<path fill="#ddfeff" stroke="black" d="M150,-222C150,-222 108,-222 108,-222 105,-222 102,-219 102,-216 102,-216 102,-210 102,-210 102,-207 105,-204 108,-204 108,-204 150,-204 150,-204 153,-204 156,-207 156,-210 156,-210 156,-216 156,-216 156,-219 153,-222 150,-222"/>
<text text-anchor="middle" x="129" y="-210.8" font-family="Helvetica,sans-Serif" font-size="9.00">index.ts</text>
</a>
</g>
</g>
<!-- app/touchpoint&#45;web.ts&#45;&gt;features/information/index.ts -->
<g id="edge4" class="edge">
<title>app/touchpoint&#45;web.ts&#45;&gt;features/information/index.ts</title>
<path fill="none" stroke="#000000" stroke-width="2" stroke-opacity="0.200000" d="M264.04,-296C210.73,-296 129,-296 129,-296 129,-296 129,-228.2 129,-228.2"/>
<polygon fill="#000000" fill-opacity="0.200000" stroke="#000000" stroke-width="2" stroke-opacity="0.200000" points="131.1,-228.2 129,-222.2 126.9,-228.2 131.1,-228.2"/>
</g>
<!-- features/refund/index.ts -->
<g id="node6" class="node">
<title>features/refund/index.ts</title>
<g id="a_node6"><a xlink:href="features/refund/index.ts" xlink:title="index.ts">
<path fill="#ddfeff" stroke="black" d="M72,-222C72,-222 30,-222 30,-222 27,-222 24,-219 24,-216 24,-216 24,-210 24,-210 24,-207 27,-204 30,-204 30,-204 72,-204 72,-204 75,-204 78,-207 78,-210 78,-210 78,-216 78,-216 78,-219 75,-222 72,-222"/>
<text text-anchor="middle" x="51" y="-210.8" font-family="Helvetica,sans-Serif" font-size="9.00">index.ts</text>
</a>
</g>
</g>
<!-- app/touchpoint&#45;web.ts&#45;&gt;features/refund/index.ts -->
<g id="edge5" class="edge">
<title>app/touchpoint&#45;web.ts&#45;&gt;features/refund/index.ts</title>
<path fill="none" stroke="#000000" stroke-width="2" stroke-opacity="0.200000" d="M264.35,-302C190.51,-302 51,-302 51,-302 51,-302 51,-228.19 51,-228.19"/>
<polygon fill="#000000" fill-opacity="0.200000" stroke="#000000" stroke-width="2" stroke-opacity="0.200000" points="53.1,-228.19 51,-222.19 48.9,-228.19 53.1,-228.19"/>
</g>
<!-- features/select&#45;icecream/index.ts -->
<g id="node7" class="node">
<title>features/select&#45;icecream/index.ts</title>
<g id="a_node7"><a xlink:href="features/select-icecream/index.ts" xlink:title="index.ts">
<path fill="#ddfeff" stroke="black" d="M380,-102C380,-102 338,-102 338,-102 335,-102 332,-99 332,-96 332,-96 332,-90 332,-90 332,-87 335,-84 338,-84 338,-84 380,-84 380,-84 383,-84 386,-87 386,-90 386,-90 386,-96 386,-96 386,-99 383,-102 380,-102"/>
<text text-anchor="middle" x="359" y="-90.8" font-family="Helvetica,sans-Serif" font-size="9.00">index.ts</text>
</a>
</g>
</g>
<!-- app/touchpoint&#45;web.ts&#45;&gt;features/select&#45;icecream/index.ts -->
<g id="edge6" class="edge">
<title>app/touchpoint&#45;web.ts&#45;&gt;features/select&#45;icecream/index.ts</title>
<path fill="none" stroke="#000000" stroke-width="2" stroke-opacity="0.200000" d="M315.75,-289.8C315.75,-250.28 315.75,-97 315.75,-97 315.75,-97 325.85,-97 325.85,-97"/>
<polygon fill="#000000" fill-opacity="0.200000" stroke="#000000" stroke-width="2" stroke-opacity="0.200000" points="325.85,-99.1 331.85,-97 325.85,-94.9 325.85,-99.1"/>
</g>
<!-- features/buy&#45;ticket/search.ts&#45;&gt;features/select&#45;icecream/index.ts -->
<g id="edge7" class="edge">
<title>features/buy&#45;ticket/search.ts&#45;&gt;features/select&#45;icecream/index.ts</title>
<g id="a_edge7"><a xlink:title="features&#45;not&#45;to&#45;features">
<path fill="none" stroke="red" stroke-width="2" d="M429,-143.89C429,-127.1 429,-93 429,-93 429,-93 392.26,-93 392.26,-93"/>
<polygon fill="red" stroke="red" stroke-width="2" points="392.26,-90.9 386.26,-93 392.26,-95.1 392.26,-90.9"/>
</a>
</g>
<text text-anchor="middle" x="477" y="-102.88" font-family="Helvetica,sans-Serif" font-size="9.00" fill="red">features&#45;not&#45;to&#45;features</text>
</g>
<!-- features/check&#45;in/confirm.ts -->
<g id="node9" class="node">
<title>features/check&#45;in/confirm.ts</title>
<g id="a_node9"><a xlink:href="features/check-in/confirm.ts" xlink:title="confirm.ts">
<path fill="#ddfeff" stroke="black" d="M230,-162C230,-162 186,-162 186,-162 183,-162 180,-159 180,-156 180,-156 180,-150 180,-150 180,-147 183,-144 186,-144 186,-144 230,-144 230,-144 233,-144 236,-147 236,-150 236,-150 236,-156 236,-156 236,-159 233,-162 230,-162"/>
<text text-anchor="middle" x="208" y="-150.8" font-family="Helvetica,sans-Serif" font-size="9.00">confirm.ts</text>
</a>
</g>
</g>
<!-- features/check&#45;in/index.ts&#45;&gt;features/check&#45;in/confirm.ts -->
<g id="edge9" class="edge">
<title>features/check&#45;in/index.ts&#45;&gt;features/check&#45;in/confirm.ts</title>
<path fill="none" stroke="#000000" stroke-width="2" stroke-opacity="0.200000" d="M248.73,-213C229.82,-213 208,-213 208,-213 208,-213 208,-168.11 208,-168.11"/>
<polygon fill="#000000" fill-opacity="0.200000" stroke="#000000" stroke-width="2" stroke-opacity="0.200000" points="210.1,-168.11 208,-162.11 205.9,-168.11 210.1,-168.11"/>
</g>
<!-- features/check&#45;in/identify.ts -->
<g id="node10" class="node">
<title>features/check&#45;in/identify.ts</title>
<g id="a_node10"><a xlink:href="features/check-in/identify.ts" xlink:title="identify.ts">
<path fill="#ddfeff" stroke="black" d="M297.5,-162C297.5,-162 254.5,-162 254.5,-162 251.5,-162 248.5,-159 248.5,-156 248.5,-156 248.5,-150 248.5,-150 248.5,-147 251.5,-144 254.5,-144 254.5,-144 297.5,-144 297.5,-144 300.5,-144 303.5,-147 303.5,-150 303.5,-150 303.5,-156 303.5,-156 303.5,-159 300.5,-162 297.5,-162"/>
<text text-anchor="middle" x="276" y="-150.8" font-family="Helvetica,sans-Serif" font-size="9.00">identify.ts</text>
</a>
</g>
</g>
<!-- features/check&#45;in/index.ts&#45;&gt;features/check&#45;in/identify.ts -->
<g id="edge10" class="edge">
<title>features/check&#45;in/index.ts&#45;&gt;features/check&#45;in/identify.ts</title>
<path fill="none" stroke="#000000" stroke-width="2" stroke-opacity="0.200000" d="M276,-203.89C276,-203.89 276,-168.2 276,-168.2"/>
<polygon fill="#000000" fill-opacity="0.200000" stroke="#000000" stroke-width="2" stroke-opacity="0.200000" points="278.1,-168.2 276,-162.2 273.9,-168.2 278.1,-168.2"/>
</g>
<!-- common/utensils.ts -->
<g id="node8" class="node">
<title>common/utensils.ts</title>
<g id="a_node8"><a xlink:href="common/utensils.ts" xlink:title="utensils.ts">
<path fill="#ddfeff" stroke="black" d="M280.5,-34C280.5,-34 235.5,-34 235.5,-34 232.5,-34 229.5,-31 229.5,-28 229.5,-28 229.5,-22 229.5,-22 229.5,-19 232.5,-16 235.5,-16 235.5,-16 280.5,-16 280.5,-16 283.5,-16 286.5,-19 286.5,-22 286.5,-22 286.5,-28 286.5,-28 286.5,-31 283.5,-34 280.5,-34"/>
<text text-anchor="middle" x="258" y="-22.8" font-family="Helvetica,sans-Serif" font-size="9.00">utensils.ts</text>
</a>
</g>
</g>
<!-- features/refund/index.ts&#45;&gt;common/utensils.ts -->
<g id="edge11" class="edge">
<title>features/refund/index.ts&#45;&gt;common/utensils.ts</title>
<path fill="none" stroke="#000000" stroke-width="2" stroke-opacity="0.200000" d="M51,-203.93C51,-166.38 51,-25 51,-25 51,-25 223.22,-25 223.22,-25"/>
<polygon fill="#000000" fill-opacity="0.200000" stroke="#000000" stroke-width="2" stroke-opacity="0.200000" points="223.22,-27.1 229.22,-25 223.22,-22.9 223.22,-27.1"/>
</g>
<!-- features/select&#45;icecream/index.ts&#45;&gt;features/buy&#45;ticket/checkout.ts -->
<g id="edge13" class="edge">
<title>features/select&#45;icecream/index.ts&#45;&gt;features/buy&#45;ticket/checkout.ts</title>
<g id="a_edge13"><a xlink:title="features&#45;not&#45;to&#45;features">
<path fill="none" stroke="red" stroke-width="2" d="M359,-102.11C359,-102.11 359,-137.8 359,-137.8"/>
<polygon fill="red" stroke="red" stroke-width="2" points="356.9,-137.8 359,-143.8 361.1,-137.8 356.9,-137.8"/>
</a>
</g>
<text text-anchor="middle" x="311" y="-122.76" font-family="Helvetica,sans-Serif" font-size="9.00" fill="red">features&#45;not&#45;to&#45;features</text>
</g>
<!-- features/select&#45;icecream/index.ts&#45;&gt;common/utensils.ts -->
<g id="edge12" class="edge">
<title>features/select&#45;icecream/index.ts&#45;&gt;common/utensils.ts</title>
<path fill="none" stroke="#000000" stroke-width="2" stroke-opacity="0.200000" d="M331.55,-88C304.6,-88 267.5,-88 267.5,-88 267.5,-88 267.5,-40.03 267.5,-40.03"/>
<polygon fill="#000000" fill-opacity="0.200000" stroke="#000000" stroke-width="2" stroke-opacity="0.200000" points="269.6,-40.03 267.5,-34.03 265.4,-40.03 269.6,-40.03"/>
</g>
<!-- features/check&#45;in/confirm.ts&#45;&gt;features/select&#45;icecream/index.ts -->
<g id="edge8" class="edge">
<title>features/check&#45;in/confirm.ts&#45;&gt;features/select&#45;icecream/index.ts</title>
<g id="a_edge8"><a xlink:title="features&#45;not&#45;to&#45;features">
<path fill="none" stroke="red" stroke-width="2" d="M204.75,-143.89C204.75,-127.1 204.75,-93 204.75,-93 204.75,-93 325.78,-93 325.78,-93"/>
<polygon fill="red" stroke="red" stroke-width="2" points="325.78,-95.1 331.78,-93 325.78,-90.9 325.78,-95.1"/>
</a>
</g>
<text text-anchor="middle" x="191.82" y="-95.8" font-family="Helvetica,sans-Serif" font-size="9.00" fill="red">features&#45;not&#45;to&#45;features</text>
</g>
</g>
</svg>
