<?xml version="1.0" encoding="UTF-8" standalone="no"?>
<!DOCTYPE svg PUBLIC "-//W3C//DTD SVG 1.1//EN"
 "http://www.w3.org/Graphics/SVG/1.1/DTD/svg11.dtd">
<!-- Generated by graphviz version 2.49.0 (20210828.1703)
 -->
<!-- Title: dependency&#45;cruiser output Pages: 1 -->
<svg width="933pt" height="516pt"
 viewBox="0.00 0.00 933.00 516.00" xmlns="http://www.w3.org/2000/svg" xmlns:xlink="http://www.w3.org/1999/xlink">
<g id="graph0" class="graph" transform="scale(1 1) rotate(0) translate(4 512)">
<title>dependency&#45;cruiser output</title>
<polygon fill="white" stroke="transparent" points="-4,4 -4,-512 929,-512 929,4 -4,4"/>
<!-- baseline&#45;violations.schema.mjs -->
<g id="node1" class="node">
<title>baseline&#45;violations.schema.mjs</title>
<g id="a_node1"><a xlink:href="https://github.com/sverweij/dependency-cruiser/blob/develop/tools/schema/baseline-violations.schema.mjs" xlink:title="baseline&#45;violations.schema.mjs">
<path fill="darkgreen" stroke="darkgreen" d="M481,-18C481,-18 352,-18 352,-18 349,-18 346,-15 346,-12 346,-12 346,-6 346,-6 346,-3 349,0 352,0 352,0 481,0 481,0 484,0 487,-3 487,-6 487,-6 487,-12 487,-12 487,-15 484,-18 481,-18"/>
<text text-anchor="middle" x="416.5" y="-6.8" font-family="Helvetica,sans-Serif" font-size="9.00" fill="#ffffcc">baseline&#45;violations.schema.mjs</text>
</a>
</g>
</g>
<!-- violations.mjs -->
<g id="node2" class="node">
<title>violations.mjs</title>
<g id="a_node2"><a xlink:href="https://github.com/sverweij/dependency-cruiser/blob/develop/tools/schema/violations.mjs" xlink:title="violations.mjs">
<path fill="#ffffcc" stroke="black" d="M604,-18C604,-18 545,-18 545,-18 542,-18 539,-15 539,-12 539,-12 539,-6 539,-6 539,-3 542,0 545,0 545,0 604,0 604,0 607,0 610,-3 610,-6 610,-6 610,-12 610,-12 610,-15 607,-18 604,-18"/>
<text text-anchor="middle" x="574.5" y="-6.8" font-family="Helvetica,sans-Serif" font-size="9.00">violations.mjs</text>
</a>
</g>
</g>
<!-- baseline&#45;violations.schema.mjs&#45;&gt;violations.mjs -->
<g id="edge1" class="edge">
<title>baseline&#45;violations.schema.mjs&#45;&gt;violations.mjs</title>
<path fill="none" stroke="#000000" stroke-width="2" stroke-opacity="0.200000" d="M487.18,-4.5C487.18,-4.5 532.91,-4.5 532.91,-4.5"/>
<polygon fill="#000000" fill-opacity="0.200000" stroke="#000000" stroke-width="2" stroke-opacity="0.200000" points="532.91,-6.6 538.91,-4.5 532.91,-2.4 532.91,-6.6"/>
</g>
<!-- rule&#45;summary.mjs -->
<g id="node17" class="node">
<title>rule&#45;summary.mjs</title>
<g id="a_node17"><a xlink:href="https://github.com/sverweij/dependency-cruiser/blob/develop/tools/schema/rule-summary.mjs" xlink:title="rule&#45;summary.mjs">
<path fill="#ffffcc" stroke="black" d="M772.5,-378C772.5,-378 697.5,-378 697.5,-378 694.5,-378 691.5,-375 691.5,-372 691.5,-372 691.5,-366 691.5,-366 691.5,-363 694.5,-360 697.5,-360 697.5,-360 772.5,-360 772.5,-360 775.5,-360 778.5,-363 778.5,-366 778.5,-366 778.5,-372 778.5,-372 778.5,-375 775.5,-378 772.5,-378"/>
<text text-anchor="middle" x="735" y="-366.8" font-family="Helvetica,sans-Serif" font-size="9.00">rule&#45;summary.mjs</text>
</a>
</g>
</g>
<!-- violations.mjs&#45;&gt;rule&#45;summary.mjs -->
<g id="edge47" class="edge">
<title>violations.mjs&#45;&gt;rule&#45;summary.mjs</title>
<path fill="none" stroke="#000000" stroke-width="2" stroke-opacity="0.200000" d="M610.33,-9C624.74,-9 638,-9 638,-9 638,-9 638,-362.67 638,-362.67 638,-362.67 685.32,-362.67 685.32,-362.67"/>
<polygon fill="#000000" fill-opacity="0.200000" stroke="#000000" stroke-width="2" stroke-opacity="0.200000" points="685.32,-364.77 691.32,-362.67 685.32,-360.57 685.32,-364.77"/>
</g>
<!-- compound&#45;donot&#45;follow&#45;type.mjs -->
<g id="node3" class="node">
<title>compound&#45;donot&#45;follow&#45;type.mjs</title>
<g id="a_node3"><a xlink:href="https://github.com/sverweij/dependency-cruiser/blob/develop/tools/schema/compound-donot-follow-type.mjs" xlink:title="compound&#45;donot&#45;follow&#45;type.mjs">
<polygon fill="white" stroke="transparent" points="648,-386 501,-386 501,-368 648,-368 648,-386"/>
<polyline fill="none" stroke="black" points="501,-368 648,-368 "/>
<text text-anchor="middle" x="574.5" y="-374.8" font-family="Helvetica,sans-Serif" font-size="9.00">compound&#45;donot&#45;follow&#45;type.mjs</text>
</a>
</g>
</g>
<!-- re&#45;as&#45;strings&#45;type.mjs -->
<g id="node4" class="node">
<title>re&#45;as&#45;strings&#45;type.mjs</title>
<g id="a_node4"><a xlink:href="https://github.com/sverweij/dependency-cruiser/blob/develop/tools/schema/re-as-strings-type.mjs" xlink:title="re&#45;as&#45;strings&#45;type.mjs">
<polygon fill="white" stroke="transparent" points="925,-205 822,-205 822,-187 925,-187 925,-205"/>
<polyline fill="none" stroke="black" points="822,-187 925,-187 "/>
<text text-anchor="middle" x="873.5" y="-193.8" font-family="Helvetica,sans-Serif" font-size="9.00">re&#45;as&#45;strings&#45;type.mjs</text>
</a>
</g>
</g>
<!-- compound&#45;donot&#45;follow&#45;type.mjs&#45;&gt;re&#45;as&#45;strings&#45;type.mjs -->
<g id="edge2" class="edge">
<title>compound&#45;donot&#45;follow&#45;type.mjs&#45;&gt;re&#45;as&#45;strings&#45;type.mjs</title>
<path fill="none" stroke="#000000" stroke-width="2" stroke-opacity="0.200000" d="M648.06,-382C723.54,-382 830,-382 830,-382 830,-382 830,-211.22 830,-211.22"/>
<polygon fill="#000000" fill-opacity="0.200000" stroke="#000000" stroke-width="2" stroke-opacity="0.200000" points="832.1,-211.22 830,-205.22 827.9,-211.22 832.1,-211.22"/>
</g>
<!-- compound&#45;exclude&#45;type.mjs -->
<g id="node5" class="node">
<title>compound&#45;exclude&#45;type.mjs</title>
<g id="a_node5"><a xlink:href="https://github.com/sverweij/dependency-cruiser/blob/develop/tools/schema/compound-exclude-type.mjs" xlink:title="compound&#45;exclude&#45;type.mjs">
<polygon fill="white" stroke="transparent" points="799.5,-288 670.5,-288 670.5,-270 799.5,-270 799.5,-288"/>
<polyline fill="none" stroke="black" points="670.5,-270 799.5,-270 "/>
<text text-anchor="middle" x="735" y="-276.8" font-family="Helvetica,sans-Serif" font-size="9.00">compound&#45;exclude&#45;type.mjs</text>
</a>
</g>
</g>
<!-- compound&#45;exclude&#45;type.mjs&#45;&gt;re&#45;as&#45;strings&#45;type.mjs -->
<g id="edge3" class="edge">
<title>compound&#45;exclude&#45;type.mjs&#45;&gt;re&#45;as&#45;strings&#45;type.mjs</title>
<path fill="none" stroke="#000000" stroke-width="2" stroke-opacity="0.200000" d="M799.89,-279C815.12,-279 827,-279 827,-279 827,-279 827,-211.2 827,-211.2"/>
<polygon fill="#000000" fill-opacity="0.200000" stroke="#000000" stroke-width="2" stroke-opacity="0.200000" points="829.1,-211.2 827,-205.2 824.9,-211.2 829.1,-211.2"/>
</g>
<!-- compound&#45;focus&#45;type.mjs -->
<g id="node6" class="node">
<title>compound&#45;focus&#45;type.mjs</title>
<g id="a_node6"><a xlink:href="https://github.com/sverweij/dependency-cruiser/blob/develop/tools/schema/compound-focus-type.mjs" xlink:title="compound&#45;focus&#45;type.mjs">
<polygon fill="white" stroke="transparent" points="795,-243 675,-243 675,-225 795,-225 795,-243"/>
<polyline fill="none" stroke="black" points="675,-225 795,-225 "/>
<text text-anchor="middle" x="735" y="-231.8" font-family="Helvetica,sans-Serif" font-size="9.00">compound&#45;focus&#45;type.mjs</text>
</a>
</g>
</g>
<!-- compound&#45;focus&#45;type.mjs&#45;&gt;re&#45;as&#45;strings&#45;type.mjs -->
<g id="edge4" class="edge">
<title>compound&#45;focus&#45;type.mjs&#45;&gt;re&#45;as&#45;strings&#45;type.mjs</title>
<path fill="none" stroke="#000000" stroke-width="2" stroke-opacity="0.200000" d="M795.03,-234C811.54,-234 825,-234 825,-234 825,-234 825,-211.2 825,-211.2"/>
<polygon fill="#000000" fill-opacity="0.200000" stroke="#000000" stroke-width="2" stroke-opacity="0.200000" points="827.1,-211.2 825,-205.2 822.9,-211.2 827.1,-211.2"/>
</g>
<!-- compound&#45;include&#45;only&#45;type.mjs -->
<g id="node7" class="node">
<title>compound&#45;include&#45;only&#45;type.mjs</title>
<g id="a_node7"><a xlink:href="https://github.com/sverweij/dependency-cruiser/blob/develop/tools/schema/compound-include-only-type.mjs" xlink:title="compound&#45;include&#45;only&#45;type.mjs">
<polygon fill="white" stroke="transparent" points="808,-205 662,-205 662,-187 808,-187 808,-205"/>
<polyline fill="none" stroke="black" points="662,-187 808,-187 "/>
<text text-anchor="middle" x="735" y="-193.8" font-family="Helvetica,sans-Serif" font-size="9.00">compound&#45;include&#45;only&#45;type.mjs</text>
</a>
</g>
</g>
<!-- compound&#45;include&#45;only&#45;type.mjs&#45;&gt;re&#45;as&#45;strings&#45;type.mjs -->
<g id="edge5" class="edge">
<title>compound&#45;include&#45;only&#45;type.mjs&#45;&gt;re&#45;as&#45;strings&#45;type.mjs</title>
<path fill="none" stroke="#000000" stroke-width="2" stroke-opacity="0.200000" d="M808.31,-196C808.31,-196 815.78,-196 815.78,-196"/>
<polygon fill="#000000" fill-opacity="0.200000" stroke="#000000" stroke-width="2" stroke-opacity="0.200000" points="815.78,-198.1 821.78,-196 815.78,-193.9 815.78,-198.1"/>
</g>
<!-- configuration.schema.mjs -->
<g id="node8" class="node">
<title>configuration.schema.mjs</title>
<g id="a_node8"><a xlink:href="https://github.com/sverweij/dependency-cruiser/blob/develop/tools/schema/configuration.schema.mjs" xlink:title="configuration.schema.mjs">
<path fill="darkgreen" stroke="darkgreen" d="M326,-166C326,-166 219,-166 219,-166 216,-166 213,-163 213,-160 213,-160 213,-154 213,-154 213,-151 216,-148 219,-148 219,-148 326,-148 326,-148 329,-148 332,-151 332,-154 332,-154 332,-160 332,-160 332,-163 329,-166 326,-166"/>
<text text-anchor="middle" x="272.5" y="-154.8" font-family="Helvetica,sans-Serif" font-size="9.00" fill="#ffffcc">configuration.schema.mjs</text>
</a>
</g>
</g>
<!-- options.mjs -->
<g id="node9" class="node">
<title>options.mjs</title>
<g id="a_node9"><a xlink:href="https://github.com/sverweij/dependency-cruiser/blob/develop/tools/schema/options.mjs" xlink:title="options.mjs">
<path fill="#ffffcc" stroke="black" d="M441.5,-174C441.5,-174 391.5,-174 391.5,-174 388.5,-174 385.5,-171 385.5,-168 385.5,-168 385.5,-162 385.5,-162 385.5,-159 388.5,-156 391.5,-156 391.5,-156 441.5,-156 441.5,-156 444.5,-156 447.5,-159 447.5,-162 447.5,-162 447.5,-168 447.5,-168 447.5,-171 444.5,-174 441.5,-174"/>
<text text-anchor="middle" x="416.5" y="-162.8" font-family="Helvetica,sans-Serif" font-size="9.00">options.mjs</text>
</a>
</g>
</g>
<!-- configuration.schema.mjs&#45;&gt;options.mjs -->
<g id="edge6" class="edge">
<title>configuration.schema.mjs&#45;&gt;options.mjs</title>
<path fill="none" stroke="#000000" stroke-width="2" stroke-opacity="0.200000" d="M332.32,-161C332.32,-161 379.38,-161 379.38,-161"/>
<polygon fill="#000000" fill-opacity="0.200000" stroke="#000000" stroke-width="2" stroke-opacity="0.200000" points="379.38,-163.1 385.38,-161 379.38,-158.9 379.38,-163.1"/>
</g>
<!-- rule&#45;set.mjs -->
<g id="node10" class="node">
<title>rule&#45;set.mjs</title>
<g id="a_node10"><a xlink:href="https://github.com/sverweij/dependency-cruiser/blob/develop/tools/schema/rule-set.mjs" xlink:title="rule&#45;set.mjs">
<path fill="#ffffcc" stroke="black" d="M442,-80C442,-80 391,-80 391,-80 388,-80 385,-77 385,-74 385,-74 385,-68 385,-68 385,-65 388,-62 391,-62 391,-62 442,-62 442,-62 445,-62 448,-65 448,-68 448,-68 448,-74 448,-74 448,-77 445,-80 442,-80"/>
<text text-anchor="middle" x="416.5" y="-68.8" font-family="Helvetica,sans-Serif" font-size="9.00">rule&#45;set.mjs</text>
</a>
</g>
</g>
<!-- configuration.schema.mjs&#45;&gt;rule&#45;set.mjs -->
<g id="edge7" class="edge">
<title>configuration.schema.mjs&#45;&gt;rule&#45;set.mjs</title>
<path fill="none" stroke="#000000" stroke-width="2" stroke-opacity="0.200000" d="M273,-147.8C273,-126.19 273,-74 273,-74 273,-74 378.65,-74 378.65,-74"/>
<polygon fill="#000000" fill-opacity="0.200000" stroke="#000000" stroke-width="2" stroke-opacity="0.200000" points="378.65,-76.1 384.65,-74 378.65,-71.9 378.65,-76.1"/>
</g>
<!-- options.mjs&#45;&gt;violations.mjs -->
<g id="edge34" class="edge">
<title>options.mjs&#45;&gt;violations.mjs</title>
<path fill="none" stroke="#000000" stroke-width="2" stroke-opacity="0.200000" d="M447.64,-161.14C468.44,-161.14 492,-161.14 492,-161.14 492,-161.14 492,-9 492,-9 492,-9 532.55,-9 532.55,-9"/>
<polygon fill="#000000" fill-opacity="0.200000" stroke="#000000" stroke-width="2" stroke-opacity="0.200000" points="532.55,-11.1 538.55,-9 532.55,-6.9 532.55,-11.1"/>
</g>
<!-- options.mjs&#45;&gt;compound&#45;donot&#45;follow&#45;type.mjs -->
<g id="edge26" class="edge">
<title>options.mjs&#45;&gt;compound&#45;donot&#45;follow&#45;type.mjs</title>
<path fill="none" stroke="#000000" stroke-width="2" stroke-opacity="0.200000" d="M447.7,-168.86C475.23,-168.86 511,-168.86 511,-168.86 511,-168.86 511,-361.79 511,-361.79"/>
<polygon fill="#000000" fill-opacity="0.200000" stroke="#000000" stroke-width="2" stroke-opacity="0.200000" points="508.9,-361.79 511,-367.79 513.1,-361.79 508.9,-361.79"/>
</g>
<!-- options.mjs&#45;&gt;re&#45;as&#45;strings&#45;type.mjs -->
<g id="edge32" class="edge">
<title>options.mjs&#45;&gt;re&#45;as&#45;strings&#45;type.mjs</title>
<path fill="none" stroke="#000000" stroke-width="2" stroke-opacity="0.200000" d="M447.53,-166.29C546.47,-166.29 848,-166.29 848,-166.29 848,-166.29 848,-180.92 848,-180.92"/>
<polygon fill="#000000" fill-opacity="0.200000" stroke="#000000" stroke-width="2" stroke-opacity="0.200000" points="845.9,-180.92 848,-186.92 850.1,-180.92 845.9,-180.92"/>
</g>
<!-- options.mjs&#45;&gt;compound&#45;exclude&#45;type.mjs -->
<g id="edge27" class="edge">
<title>options.mjs&#45;&gt;compound&#45;exclude&#45;type.mjs</title>
<path fill="none" stroke="#000000" stroke-width="2" stroke-opacity="0.200000" d="M417,-174.33C417,-201.56 417,-279 417,-279 417,-279 664.26,-279 664.26,-279"/>
<polygon fill="#000000" fill-opacity="0.200000" stroke="#000000" stroke-width="2" stroke-opacity="0.200000" points="664.26,-281.1 670.26,-279 664.26,-276.9 664.26,-281.1"/>
</g>
<!-- options.mjs&#45;&gt;compound&#45;focus&#45;type.mjs -->
<g id="edge28" class="edge">
<title>options.mjs&#45;&gt;compound&#45;focus&#45;type.mjs</title>
<path fill="none" stroke="#000000" stroke-width="2" stroke-opacity="0.200000" d="M427,-174.02C427,-192.72 427,-234 427,-234 427,-234 668.88,-234 668.88,-234"/>
<polygon fill="#000000" fill-opacity="0.200000" stroke="#000000" stroke-width="2" stroke-opacity="0.200000" points="668.88,-236.1 674.88,-234 668.88,-231.9 668.88,-236.1"/>
</g>
<!-- options.mjs&#45;&gt;compound&#45;include&#45;only&#45;type.mjs -->
<g id="edge29" class="edge">
<title>options.mjs&#45;&gt;compound&#45;include&#45;only&#45;type.mjs</title>
<path fill="none" stroke="#000000" stroke-width="2" stroke-opacity="0.200000" d="M438,-174.33C438,-183.67 438,-196.67 438,-196.67 438,-196.67 655.97,-196.67 655.97,-196.67"/>
<polygon fill="#000000" fill-opacity="0.200000" stroke="#000000" stroke-width="2" stroke-opacity="0.200000" points="655.97,-198.77 661.97,-196.67 655.97,-194.57 655.97,-198.77"/>
</g>
<!-- dependency&#45;type.mjs -->
<g id="node15" class="node">
<title>dependency&#45;type.mjs</title>
<g id="a_node15"><a xlink:href="https://github.com/sverweij/dependency-cruiser/blob/develop/tools/schema/dependency-type.mjs" xlink:title="dependency&#45;type.mjs">
<polygon fill="white" stroke="transparent" points="786,-447 684,-447 684,-429 786,-429 786,-447"/>
<polyline fill="none" stroke="black" points="684,-429 786,-429 "/>
<text text-anchor="middle" x="735" y="-435.8" font-family="Helvetica,sans-Serif" font-size="9.00">dependency&#45;type.mjs</text>
</a>
</g>
</g>
<!-- options.mjs&#45;&gt;dependency&#45;type.mjs -->
<g id="edge30" class="edge">
<title>options.mjs&#45;&gt;dependency&#45;type.mjs</title>
<path fill="none" stroke="#000000" stroke-width="2" stroke-opacity="0.200000" d="M447.6,-171.43C455.6,-171.43 462,-171.43 462,-171.43 462,-171.43 462,-435 462,-435 462,-435 677.97,-435 677.97,-435"/>
<polygon fill="#000000" fill-opacity="0.200000" stroke="#000000" stroke-width="2" stroke-opacity="0.200000" points="677.97,-437.1 683.97,-435 677.97,-432.9 677.97,-437.1"/>
</g>
<!-- module&#45;systems&#45;type.mjs -->
<g id="node18" class="node">
<title>module&#45;systems&#45;type.mjs</title>
<g id="a_node18"><a xlink:href="https://github.com/sverweij/dependency-cruiser/blob/develop/tools/schema/module-systems-type.mjs" xlink:title="module&#45;systems&#45;type.mjs">
<polygon fill="white" stroke="transparent" points="634,-144 515,-144 515,-126 634,-126 634,-144"/>
<polyline fill="none" stroke="black" points="515,-126 634,-126 "/>
<text text-anchor="middle" x="574.5" y="-132.8" font-family="Helvetica,sans-Serif" font-size="9.00">module&#45;systems&#45;type.mjs</text>
</a>
</g>
</g>
<!-- options.mjs&#45;&gt;module&#45;systems&#45;type.mjs -->
<g id="edge31" class="edge">
<title>options.mjs&#45;&gt;module&#45;systems&#45;type.mjs</title>
<path fill="none" stroke="#000000" stroke-width="2" stroke-opacity="0.200000" d="M447.58,-163.71C488.42,-163.71 555,-163.71 555,-163.71 555,-163.71 555,-150.09 555,-150.09"/>
<polygon fill="#000000" fill-opacity="0.200000" stroke="#000000" stroke-width="2" stroke-opacity="0.200000" points="557.1,-150.09 555,-144.09 552.9,-150.09 557.1,-150.09"/>
</g>
<!-- reporter&#45;options.mjs -->
<g id="node21" class="node">
<title>reporter&#45;options.mjs</title>
<g id="a_node21"><a xlink:href="https://github.com/sverweij/dependency-cruiser/blob/develop/tools/schema/reporter-options.mjs" xlink:title="reporter&#45;options.mjs">
<path fill="#ffffcc" stroke="black" d="M617,-82C617,-82 532,-82 532,-82 529,-82 526,-79 526,-76 526,-76 526,-70 526,-70 526,-67 529,-64 532,-64 532,-64 617,-64 617,-64 620,-64 623,-67 623,-70 623,-70 623,-76 623,-76 623,-79 620,-82 617,-82"/>
<text text-anchor="middle" x="574.5" y="-70.8" font-family="Helvetica,sans-Serif" font-size="9.00">reporter&#45;options.mjs</text>
</a>
</g>
</g>
<!-- options.mjs&#45;&gt;reporter&#45;options.mjs -->
<g id="edge33" class="edge">
<title>options.mjs&#45;&gt;reporter&#45;options.mjs</title>
<path fill="none" stroke="#000000" stroke-width="2" stroke-opacity="0.200000" d="M447.81,-158.57C461.71,-158.57 475,-158.57 475,-158.57 475,-158.57 475,-72 475,-72 475,-72 519.92,-72 519.92,-72"/>
<polygon fill="#000000" fill-opacity="0.200000" stroke="#000000" stroke-width="2" stroke-opacity="0.200000" points="519.92,-74.1 525.92,-72 519.92,-69.9 519.92,-74.1"/>
</g>
<!-- restrictions.mjs -->
<g id="node22" class="node">
<title>restrictions.mjs</title>
<g id="a_node22"><a xlink:href="https://github.com/sverweij/dependency-cruiser/blob/develop/tools/schema/restrictions.mjs" xlink:title="restrictions.mjs">
<path fill="#ffffcc" stroke="black" d="M607,-50C607,-50 542,-50 542,-50 539,-50 536,-47 536,-44 536,-44 536,-38 536,-38 536,-35 539,-32 542,-32 542,-32 607,-32 607,-32 610,-32 613,-35 613,-38 613,-38 613,-44 613,-44 613,-47 610,-50 607,-50"/>
<text text-anchor="middle" x="574.5" y="-38.8" font-family="Helvetica,sans-Serif" font-size="9.00">restrictions.mjs</text>
</a>
</g>
</g>
<!-- rule&#45;set.mjs&#45;&gt;restrictions.mjs -->
<g id="edge41" class="edge">
<title>rule&#45;set.mjs&#45;&gt;restrictions.mjs</title>
<path fill="none" stroke="#000000" stroke-width="2" stroke-opacity="0.200000" d="M417,-61.84C417,-53.01 417,-41 417,-41 417,-41 529.97,-41 529.97,-41"/>
<polygon fill="#000000" fill-opacity="0.200000" stroke="#000000" stroke-width="2" stroke-opacity="0.200000" points="529.97,-43.1 535.97,-41 529.97,-38.9 529.97,-43.1"/>
</g>
<!-- severity&#45;type.mjs -->
<g id="node23" class="node">
<title>severity&#45;type.mjs</title>
<g id="a_node23"><a xlink:href="https://github.com/sverweij/dependency-cruiser/blob/develop/tools/schema/severity-type.mjs" xlink:title="severity&#45;type.mjs">
<polygon fill="white" stroke="transparent" points="915.5,-310 831.5,-310 831.5,-292 915.5,-292 915.5,-310"/>
<polyline fill="none" stroke="black" points="831.5,-292 915.5,-292 "/>
<text text-anchor="middle" x="873.5" y="-298.8" font-family="Helvetica,sans-Serif" font-size="9.00">severity&#45;type.mjs</text>
</a>
</g>
</g>
<!-- rule&#45;set.mjs&#45;&gt;severity&#45;type.mjs -->
<g id="edge42" class="edge">
<title>rule&#45;set.mjs&#45;&gt;severity&#45;type.mjs</title>
<path fill="none" stroke="#000000" stroke-width="2" stroke-opacity="0.200000" d="M448.25,-68C459.31,-68 469,-68 469,-68 469,-68 469,-301 469,-301 469,-301 825.36,-301 825.36,-301"/>
<polygon fill="#000000" fill-opacity="0.200000" stroke="#000000" stroke-width="2" stroke-opacity="0.200000" points="825.36,-303.1 831.36,-301 825.36,-298.9 825.36,-303.1"/>
</g>
<!-- cruise&#45;result.schema.mjs -->
<g id="node11" class="node">
<title>cruise&#45;result.schema.mjs</title>
<g id="a_node11"><a xlink:href="https://github.com/sverweij/dependency-cruiser/blob/develop/tools/schema/cruise-result.schema.mjs" xlink:title="cruise&#45;result.schema.mjs">
<path fill="darkgreen" stroke="darkgreen" d="M110,-204C110,-204 6,-204 6,-204 3,-204 0,-201 0,-198 0,-198 0,-192 0,-192 0,-189 3,-186 6,-186 6,-186 110,-186 110,-186 113,-186 116,-189 116,-192 116,-192 116,-198 116,-198 116,-201 113,-204 110,-204"/>
<text text-anchor="middle" x="58" y="-192.8" font-family="Helvetica,sans-Serif" font-size="9.00" fill="#ffffcc">cruise&#45;result.schema.mjs</text>
</a>
</g>
</g>
<!-- modules.mjs -->
<g id="node12" class="node">
<title>modules.mjs</title>
<g id="a_node12"><a xlink:href="https://github.com/sverweij/dependency-cruiser/blob/develop/tools/schema/modules.mjs" xlink:title="modules.mjs">
<path fill="#ffffcc" stroke="black" d="M444,-417C444,-417 389,-417 389,-417 386,-417 383,-414 383,-411 383,-411 383,-405 383,-405 383,-402 386,-399 389,-399 389,-399 444,-399 444,-399 447,-399 450,-402 450,-405 450,-405 450,-411 450,-411 450,-414 447,-417 444,-417"/>
<text text-anchor="middle" x="416.5" y="-405.8" font-family="Helvetica,sans-Serif" font-size="9.00">modules.mjs</text>
</a>
</g>
</g>
<!-- cruise&#45;result.schema.mjs&#45;&gt;modules.mjs -->
<g id="edge8" class="edge">
<title>cruise&#45;result.schema.mjs&#45;&gt;modules.mjs</title>
<path fill="none" stroke="#000000" stroke-width="2" stroke-opacity="0.200000" d="M58,-204.15C58,-244.92 58,-408 58,-408 58,-408 376.77,-408 376.77,-408"/>
<polygon fill="#000000" fill-opacity="0.200000" stroke="#000000" stroke-width="2" stroke-opacity="0.200000" points="376.77,-410.1 382.77,-408 376.77,-405.9 376.77,-410.1"/>
</g>
<!-- summary.mjs -->
<g id="node13" class="node">
<title>summary.mjs</title>
<g id="a_node13"><a xlink:href="https://github.com/sverweij/dependency-cruiser/blob/develop/tools/schema/summary.mjs" xlink:title="summary.mjs">
<path fill="#ffffcc" stroke="black" d="M193,-189C193,-189 136,-189 136,-189 133,-189 130,-186 130,-183 130,-183 130,-177 130,-177 130,-174 133,-171 136,-171 136,-171 193,-171 193,-171 196,-171 199,-174 199,-177 199,-177 199,-183 199,-183 199,-186 196,-189 193,-189"/>
<text text-anchor="middle" x="164.5" y="-177.8" font-family="Helvetica,sans-Serif" font-size="9.00">summary.mjs</text>
</a>
</g>
</g>
<!-- cruise&#45;result.schema.mjs&#45;&gt;summary.mjs -->
<g id="edge9" class="edge">
<title>cruise&#45;result.schema.mjs&#45;&gt;summary.mjs</title>
<path fill="none" stroke="#000000" stroke-width="2" stroke-opacity="0.200000" d="M116.27,-201C135.94,-201 153,-201 153,-201 153,-201 153,-195.03 153,-195.03"/>
<polygon fill="#000000" fill-opacity="0.200000" stroke="#000000" stroke-width="2" stroke-opacity="0.200000" points="155.1,-195.03 153,-189.03 150.9,-195.03 155.1,-195.03"/>
</g>
<!-- dependencies.mjs -->
<g id="node14" class="node">
<title>dependencies.mjs</title>
<g id="a_node14"><a xlink:href="https://github.com/sverweij/dependency-cruiser/blob/develop/tools/schema/dependencies.mjs" xlink:title="dependencies.mjs">
<path fill="#ffffcc" stroke="black" d="M613,-508C613,-508 536,-508 536,-508 533,-508 530,-505 530,-502 530,-502 530,-496 530,-496 530,-493 533,-490 536,-490 536,-490 613,-490 613,-490 616,-490 619,-493 619,-496 619,-496 619,-502 619,-502 619,-505 616,-508 613,-508"/>
<text text-anchor="middle" x="574.5" y="-496.8" font-family="Helvetica,sans-Serif" font-size="9.00">dependencies.mjs</text>
</a>
</g>
</g>
<!-- modules.mjs&#45;&gt;dependencies.mjs -->
<g id="edge14" class="edge">
<title>modules.mjs&#45;&gt;dependencies.mjs</title>
<path fill="none" stroke="#000000" stroke-width="2" stroke-opacity="0.200000" d="M406,-417.06C406,-440.08 406,-499 406,-499 406,-499 523.79,-499 523.79,-499"/>
<polygon fill="#000000" fill-opacity="0.200000" stroke="#000000" stroke-width="2" stroke-opacity="0.200000" points="523.79,-501.1 529.79,-499 523.79,-496.9 523.79,-501.1"/>
</g>
<!-- modules.mjs&#45;&gt;dependency&#45;type.mjs -->
<g id="edge15" class="edge">
<title>modules.mjs&#45;&gt;dependency&#45;type.mjs</title>
<path fill="none" stroke="#000000" stroke-width="2" stroke-opacity="0.200000" d="M428,-417.16C428,-425.99 428,-438 428,-438 428,-438 677.96,-438 677.96,-438"/>
<polygon fill="#000000" fill-opacity="0.200000" stroke="#000000" stroke-width="2" stroke-opacity="0.200000" points="677.96,-440.1 683.96,-438 677.96,-435.9 677.96,-440.1"/>
</g>
<!-- modules.mjs&#45;&gt;rule&#45;summary.mjs -->
<g id="edge16" class="edge">
<title>modules.mjs&#45;&gt;rule&#45;summary.mjs</title>
<path fill="none" stroke="#000000" stroke-width="2" stroke-opacity="0.200000" d="M396,-398.95C396,-386.43 396,-365.33 396,-365.33 396,-365.33 685.38,-365.33 685.38,-365.33"/>
<polygon fill="#000000" fill-opacity="0.200000" stroke="#000000" stroke-width="2" stroke-opacity="0.200000" points="685.38,-367.43 691.38,-365.33 685.38,-363.23 685.38,-367.43"/>
</g>
<!-- summary.mjs&#45;&gt;violations.mjs -->
<g id="edge46" class="edge">
<title>summary.mjs&#45;&gt;violations.mjs</title>
<path fill="none" stroke="#000000" stroke-width="2" stroke-opacity="0.200000" d="M199.14,-180.5C284.3,-180.5 497,-180.5 497,-180.5 497,-180.5 497,-13.5 497,-13.5 497,-13.5 532.93,-13.5 532.93,-13.5"/>
<polygon fill="#000000" fill-opacity="0.200000" stroke="#000000" stroke-width="2" stroke-opacity="0.200000" points="532.93,-15.6 538.93,-13.5 532.93,-11.4 532.93,-15.6"/>
</g>
<!-- summary.mjs&#45;&gt;rule&#45;set.mjs -->
<g id="edge45" class="edge">
<title>summary.mjs&#45;&gt;rule&#45;set.mjs</title>
<path fill="none" stroke="#000000" stroke-width="2" stroke-opacity="0.200000" d="M165,-170.83C165,-144.09 165,-68 165,-68 165,-68 378.9,-68 378.9,-68"/>
<polygon fill="#000000" fill-opacity="0.200000" stroke="#000000" stroke-width="2" stroke-opacity="0.200000" points="378.9,-70.1 384.9,-68 378.9,-65.9 378.9,-70.1"/>
</g>
<!-- options&#45;used.mjs -->
<g id="node19" class="node">
<title>options&#45;used.mjs</title>
<g id="a_node19"><a xlink:href="https://github.com/sverweij/dependency-cruiser/blob/develop/tools/schema/options-used.mjs" xlink:title="options&#45;used.mjs">
<path fill="#ffffcc" stroke="black" d="M309,-213C309,-213 236,-213 236,-213 233,-213 230,-210 230,-207 230,-207 230,-201 230,-201 230,-198 233,-195 236,-195 236,-195 309,-195 309,-195 312,-195 315,-198 315,-201 315,-201 315,-207 315,-207 315,-210 312,-213 309,-213"/>
<text text-anchor="middle" x="272.5" y="-201.8" font-family="Helvetica,sans-Serif" font-size="9.00">options&#45;used.mjs</text>
</a>
</g>
</g>
<!-- summary.mjs&#45;&gt;options&#45;used.mjs -->
<g id="edge44" class="edge">
<title>summary.mjs&#45;&gt;options&#45;used.mjs</title>
<path fill="none" stroke="#000000" stroke-width="2" stroke-opacity="0.200000" d="M176,-189.42C176,-193.78 176,-198 176,-198 176,-198 223.89,-198 223.89,-198"/>
<polygon fill="#000000" fill-opacity="0.200000" stroke="#000000" stroke-width="2" stroke-opacity="0.200000" points="223.89,-200.1 229.89,-198 223.89,-195.9 223.89,-200.1"/>
</g>
<!-- dependencies.mjs&#45;&gt;dependency&#45;type.mjs -->
<g id="edge10" class="edge">
<title>dependencies.mjs&#45;&gt;dependency&#45;type.mjs</title>
<path fill="none" stroke="#000000" stroke-width="2" stroke-opacity="0.200000" d="M590,-489.92C590,-474.3 590,-444 590,-444 590,-444 677.88,-444 677.88,-444"/>
<polygon fill="#000000" fill-opacity="0.200000" stroke="#000000" stroke-width="2" stroke-opacity="0.200000" points="677.88,-446.1 683.88,-444 677.88,-441.9 677.88,-446.1"/>
</g>
<!-- module&#45;system&#45;type.mjs -->
<g id="node16" class="node">
<title>module&#45;system&#45;type.mjs</title>
<g id="a_node16"><a xlink:href="https://github.com/sverweij/dependency-cruiser/blob/develop/tools/schema/module-system-type.mjs" xlink:title="module&#45;system&#45;type.mjs">
<polygon fill="white" stroke="transparent" points="792,-413 678,-413 678,-395 792,-395 792,-413"/>
<polyline fill="none" stroke="black" points="678,-395 792,-395 "/>
<text text-anchor="middle" x="735" y="-401.8" font-family="Helvetica,sans-Serif" font-size="9.00">module&#45;system&#45;type.mjs</text>
</a>
</g>
</g>
<!-- dependencies.mjs&#45;&gt;module&#45;system&#45;type.mjs -->
<g id="edge11" class="edge">
<title>dependencies.mjs&#45;&gt;module&#45;system&#45;type.mjs</title>
<path fill="none" stroke="#000000" stroke-width="2" stroke-opacity="0.200000" d="M560,-489.98C560,-467.04 560,-408.33 560,-408.33 560,-408.33 671.7,-408.33 671.7,-408.33"/>
<polygon fill="#000000" fill-opacity="0.200000" stroke="#000000" stroke-width="2" stroke-opacity="0.200000" points="671.7,-410.43 677.7,-408.33 671.7,-406.23 671.7,-410.43"/>
</g>
<!-- dependencies.mjs&#45;&gt;rule&#45;summary.mjs -->
<g id="edge12" class="edge">
<title>dependencies.mjs&#45;&gt;rule&#45;summary.mjs</title>
<path fill="none" stroke="#000000" stroke-width="2" stroke-opacity="0.200000" d="M619.17,-499C646.01,-499 675,-499 675,-499 675,-499 675,-373 675,-373 675,-373 685.4,-373 685.4,-373"/>
<polygon fill="#000000" fill-opacity="0.200000" stroke="#000000" stroke-width="2" stroke-opacity="0.200000" points="685.4,-375.1 691.4,-373 685.4,-370.9 685.4,-375.1"/>
</g>
<!-- rule&#45;summary.mjs&#45;&gt;severity&#45;type.mjs -->
<g id="edge43" class="edge">
<title>rule&#45;summary.mjs&#45;&gt;severity&#45;type.mjs</title>
<path fill="none" stroke="#000000" stroke-width="2" stroke-opacity="0.200000" d="M778.6,-369C819.36,-369 874,-369 874,-369 874,-369 874,-316.17 874,-316.17"/>
<polygon fill="#000000" fill-opacity="0.200000" stroke="#000000" stroke-width="2" stroke-opacity="0.200000" points="876.1,-316.17 874,-310.17 871.9,-316.17 876.1,-316.17"/>
</g>
<!-- module&#45;systems&#45;type.mjs&#45;&gt;module&#45;system&#45;type.mjs -->
<g id="edge13" class="edge">
<title>module&#45;systems&#45;type.mjs&#45;&gt;module&#45;system&#45;type.mjs</title>
<path fill="none" stroke="#000000" stroke-width="2" stroke-opacity="0.200000" d="M634.3,-135C647.68,-135 658,-135 658,-135 658,-135 658,-403.67 658,-403.67 658,-403.67 671.83,-403.67 671.83,-403.67"/>
<polygon fill="#000000" fill-opacity="0.200000" stroke="#000000" stroke-width="2" stroke-opacity="0.200000" points="671.83,-405.77 677.83,-403.67 671.83,-401.57 671.83,-405.77"/>
</g>
<!-- options&#45;used.mjs&#45;&gt;compound&#45;donot&#45;follow&#45;type.mjs -->
<g id="edge17" class="edge">
<title>options&#45;used.mjs&#45;&gt;compound&#45;donot&#45;follow&#45;type.mjs</title>
<path fill="none" stroke="#000000" stroke-width="2" stroke-opacity="0.200000" d="M315.06,-210.33C382.41,-210.33 506,-210.33 506,-210.33 506,-210.33 506,-361.56 506,-361.56"/>
<polygon fill="#000000" fill-opacity="0.200000" stroke="#000000" stroke-width="2" stroke-opacity="0.200000" points="503.9,-361.56 506,-367.56 508.1,-361.56 503.9,-361.56"/>
</g>
<!-- options&#45;used.mjs&#45;&gt;compound&#45;exclude&#45;type.mjs -->
<g id="edge18" class="edge">
<title>options&#45;used.mjs&#45;&gt;compound&#45;exclude&#45;type.mjs</title>
<path fill="none" stroke="#000000" stroke-width="2" stroke-opacity="0.200000" d="M273,-213.12C273,-234 273,-283.5 273,-283.5 273,-283.5 664.27,-283.5 664.27,-283.5"/>
<polygon fill="#000000" fill-opacity="0.200000" stroke="#000000" stroke-width="2" stroke-opacity="0.200000" points="664.27,-285.6 670.27,-283.5 664.27,-281.4 664.27,-285.6"/>
</g>
<!-- options&#45;used.mjs&#45;&gt;compound&#45;focus&#45;type.mjs -->
<g id="edge19" class="edge">
<title>options&#45;used.mjs&#45;&gt;compound&#45;focus&#45;type.mjs</title>
<path fill="none" stroke="#000000" stroke-width="2" stroke-opacity="0.200000" d="M294,-213.06C294,-223.29 294,-238.5 294,-238.5 294,-238.5 668.61,-238.5 668.61,-238.5"/>
<polygon fill="#000000" fill-opacity="0.200000" stroke="#000000" stroke-width="2" stroke-opacity="0.200000" points="668.61,-240.6 674.61,-238.5 668.61,-236.4 668.61,-240.6"/>
</g>
<!-- options&#45;used.mjs&#45;&gt;compound&#45;include&#45;only&#45;type.mjs -->
<g id="edge20" class="edge">
<title>options&#45;used.mjs&#45;&gt;compound&#45;include&#45;only&#45;type.mjs</title>
<path fill="none" stroke="#000000" stroke-width="2" stroke-opacity="0.200000" d="M315.09,-207.67C417.1,-207.67 667,-207.67 667,-207.67 667,-207.67 667,-207.44 667,-207.44"/>
<polygon fill="#000000" fill-opacity="0.200000" stroke="#000000" stroke-width="2" stroke-opacity="0.200000" points="669.1,-211.42 667,-205.42 664.9,-211.42 669.1,-211.42"/>
</g>
<!-- options&#45;used.mjs&#45;&gt;options.mjs -->
<g id="edge23" class="edge">
<title>options&#45;used.mjs&#45;&gt;options.mjs</title>
<path fill="none" stroke="#000000" stroke-width="2" stroke-opacity="0.200000" d="M315.06,-200C354.46,-200 407,-200 407,-200 407,-200 407,-180.2 407,-180.2"/>
<polygon fill="#000000" fill-opacity="0.200000" stroke="#000000" stroke-width="2" stroke-opacity="0.200000" points="409.1,-180.2 407,-174.2 404.9,-180.2 409.1,-180.2"/>
</g>
<!-- options&#45;used.mjs&#45;&gt;dependency&#45;type.mjs -->
<g id="edge21" class="edge">
<title>options&#45;used.mjs&#45;&gt;dependency&#45;type.mjs</title>
<path fill="none" stroke="#000000" stroke-width="2" stroke-opacity="0.200000" d="M252,-213C252,-256.29 252,-441 252,-441 252,-441 677.77,-441 677.77,-441"/>
<polygon fill="#000000" fill-opacity="0.200000" stroke="#000000" stroke-width="2" stroke-opacity="0.200000" points="677.77,-443.1 683.77,-441 677.77,-438.9 677.77,-443.1"/>
</g>
<!-- options&#45;used.mjs&#45;&gt;module&#45;systems&#45;type.mjs -->
<g id="edge22" class="edge">
<title>options&#45;used.mjs&#45;&gt;module&#45;systems&#45;type.mjs</title>
<path fill="none" stroke="#000000" stroke-width="2" stroke-opacity="0.200000" d="M315.33,-203.33C403.05,-203.33 595,-203.33 595,-203.33 595,-203.33 595,-150.22 595,-150.22"/>
<polygon fill="#000000" fill-opacity="0.200000" stroke="#000000" stroke-width="2" stroke-opacity="0.200000" points="597.1,-150.22 595,-144.22 592.9,-150.22 597.1,-150.22"/>
</g>
<!-- output&#45;type.mjs -->
<g id="node20" class="node">
<title>output&#45;type.mjs</title>
<g id="a_node20"><a xlink:href="https://github.com/sverweij/dependency-cruiser/blob/develop/tools/schema/output-type.mjs" xlink:title="output&#45;type.mjs">
<polygon fill="white" stroke="transparent" points="455.5,-142 377.5,-142 377.5,-124 455.5,-124 455.5,-142"/>
<polyline fill="none" stroke="black" points="377.5,-124 455.5,-124 "/>
<text text-anchor="middle" x="416.5" y="-130.8" font-family="Helvetica,sans-Serif" font-size="9.00">output&#45;type.mjs</text>
</a>
</g>
</g>
<!-- options&#45;used.mjs&#45;&gt;output&#45;type.mjs -->
<g id="edge24" class="edge">
<title>options&#45;used.mjs&#45;&gt;output&#45;type.mjs</title>
<path fill="none" stroke="#000000" stroke-width="2" stroke-opacity="0.200000" d="M315.15,-198.33C338.2,-198.33 362,-198.33 362,-198.33 362,-198.33 362,-133 362,-133 362,-133 371.47,-133 371.47,-133"/>
<polygon fill="#000000" fill-opacity="0.200000" stroke="#000000" stroke-width="2" stroke-opacity="0.200000" points="371.47,-135.1 377.47,-133 371.47,-130.9 371.47,-135.1"/>
</g>
<!-- options&#45;used.mjs&#45;&gt;reporter&#45;options.mjs -->
<g id="edge25" class="edge">
<title>options&#45;used.mjs&#45;&gt;reporter&#45;options.mjs</title>
<path fill="none" stroke="#000000" stroke-width="2" stroke-opacity="0.200000" d="M315.2,-201.67C376.2,-201.67 481,-201.67 481,-201.67 481,-201.67 481,-76 481,-76 481,-76 519.83,-76 519.83,-76"/>
<polygon fill="#000000" fill-opacity="0.200000" stroke="#000000" stroke-width="2" stroke-opacity="0.200000" points="519.83,-78.1 525.83,-76 519.83,-73.9 519.83,-78.1"/>
</g>
<!-- reporter&#45;options.mjs&#45;&gt;re&#45;as&#45;strings&#45;type.mjs -->
<g id="edge38" class="edge">
<title>reporter&#45;options.mjs&#45;&gt;re&#45;as&#45;strings&#45;type.mjs</title>
<path fill="none" stroke="#000000" stroke-width="2" stroke-opacity="0.200000" d="M623.29,-67.6C708.15,-67.6 874,-67.6 874,-67.6 874,-67.6 874,-180.77 874,-180.77"/>
<polygon fill="#000000" fill-opacity="0.200000" stroke="#000000" stroke-width="2" stroke-opacity="0.200000" points="871.9,-180.77 874,-186.77 876.1,-180.77 871.9,-180.77"/>
</g>
<!-- reporter&#45;options.mjs&#45;&gt;compound&#45;exclude&#45;type.mjs -->
<g id="edge35" class="edge">
<title>reporter&#45;options.mjs&#45;&gt;compound&#45;exclude&#45;type.mjs</title>
<path fill="none" stroke="#000000" stroke-width="2" stroke-opacity="0.200000" d="M623.18,-78.4C633.32,-78.4 641,-78.4 641,-78.4 641,-78.4 641,-274.5 641,-274.5 641,-274.5 664.48,-274.5 664.48,-274.5"/>
<polygon fill="#000000" fill-opacity="0.200000" stroke="#000000" stroke-width="2" stroke-opacity="0.200000" points="664.48,-276.6 670.48,-274.5 664.48,-272.4 664.48,-276.6"/>
</g>
<!-- reporter&#45;options.mjs&#45;&gt;compound&#45;focus&#45;type.mjs -->
<g id="edge36" class="edge">
<title>reporter&#45;options.mjs&#45;&gt;compound&#45;focus&#45;type.mjs</title>
<path fill="none" stroke="#000000" stroke-width="2" stroke-opacity="0.200000" d="M623.08,-74.8C635.29,-74.8 645,-74.8 645,-74.8 645,-74.8 645,-229.5 645,-229.5 645,-229.5 668.97,-229.5 668.97,-229.5"/>
<polygon fill="#000000" fill-opacity="0.200000" stroke="#000000" stroke-width="2" stroke-opacity="0.200000" points="668.97,-231.6 674.97,-229.5 668.97,-227.4 668.97,-231.6"/>
</g>
<!-- reporter&#45;options.mjs&#45;&gt;compound&#45;include&#45;only&#45;type.mjs -->
<g id="edge37" class="edge">
<title>reporter&#45;options.mjs&#45;&gt;compound&#45;include&#45;only&#45;type.mjs</title>
<path fill="none" stroke="#000000" stroke-width="2" stroke-opacity="0.200000" d="M623.09,-71.2C670.33,-71.2 735,-71.2 735,-71.2 735,-71.2 735,-180.62 735,-180.62"/>
<polygon fill="#000000" fill-opacity="0.200000" stroke="#000000" stroke-width="2" stroke-opacity="0.200000" points="732.9,-180.62 735,-186.62 737.1,-180.62 732.9,-180.62"/>
</g>
<!-- restrictions.mjs&#45;&gt;re&#45;as&#45;strings&#45;type.mjs -->
<g id="edge40" class="edge">
<title>restrictions.mjs&#45;&gt;re&#45;as&#45;strings&#45;type.mjs</title>
<path fill="none" stroke="#000000" stroke-width="2" stroke-opacity="0.200000" d="M613.12,-38C699.34,-38 900,-38 900,-38 900,-38 900,-180.59 900,-180.59"/>
<polygon fill="#000000" fill-opacity="0.200000" stroke="#000000" stroke-width="2" stroke-opacity="0.200000" points="897.9,-180.59 900,-186.59 902.1,-180.59 897.9,-180.59"/>
</g>
<!-- restrictions.mjs&#45;&gt;dependency&#45;type.mjs -->
<g id="edge39" class="edge">
<title>restrictions.mjs&#45;&gt;dependency&#45;type.mjs</title>
<path fill="none" stroke="#000000" stroke-width="2" stroke-opacity="0.200000" d="M613.29,-44C633.07,-44 653,-44 653,-44 653,-44 653,-432 653,-432 653,-432 677.53,-432 677.53,-432"/>
<polygon fill="#000000" fill-opacity="0.200000" stroke="#000000" stroke-width="2" stroke-opacity="0.200000" points="677.53,-434.1 683.53,-432 677.53,-429.9 677.53,-434.1"/>
</g>
</g>
</svg>
