<?xml version="1.0" encoding="UTF-8" standalone="no"?>
<!DOCTYPE svg PUBLIC "-//W3C//DTD SVG 1.1//EN"
 "http://www.w3.org/Graphics/SVG/1.1/DTD/svg11.dtd">
<!-- Generated by graphviz version 5.0.1 (20220820.1526)
 -->
<!-- Title: dependency&#45;cruiser output Pages: 1 -->
<svg width="966pt" height="592pt"
 viewBox="0.00 0.00 966.00 592.00" xmlns="http://www.w3.org/2000/svg" xmlns:xlink="http://www.w3.org/1999/xlink">
<g id="graph0" class="graph" transform="scale(1 1) rotate(0) translate(4 588)">
<title>dependency&#45;cruiser output</title>
<polygon fill="white" stroke="none" points="-4,4 -4,-588 962,-588 962,4 -4,4"/>
<!-- baseline&#45;violations.schema.mjs -->
<g id="node1" class="node">
<title>baseline&#45;violations.schema.mjs</title>
<g id="a_node1"><a xlink:href="https://github.com/sverweij/dependency-cruiser/blob/develop/tools/schema/baseline-violations.schema.mjs" xlink:title="baseline&#45;violations.schema.mjs">
<path fill="darkgreen" stroke="darkgreen" d="M506,-34C506,-34 373,-34 373,-34 370,-34 367,-31 367,-28 367,-28 367,-22 367,-22 367,-19 370,-16 373,-16 373,-16 506,-16 506,-16 509,-16 512,-19 512,-22 512,-22 512,-28 512,-28 512,-31 509,-34 506,-34"/>
<text text-anchor="middle" x="439.5" y="-22.8" font-family="Helvetica,sans-Serif" font-size="9.00" fill="#ffffcc">baseline&#45;violations.schema.mjs</text>
</a>
</g>
</g>
<!-- violations.mjs -->
<g id="node2" class="node">
<title>violations.mjs</title>
<g id="a_node2"><a xlink:href="https://github.com/sverweij/dependency-cruiser/blob/develop/tools/schema/violations.mjs" xlink:title="violations.mjs">
<path fill="#ffffcc" stroke="black" d="M631,-34C631,-34 571,-34 571,-34 568,-34 565,-31 565,-28 565,-28 565,-22 565,-22 565,-19 568,-16 571,-16 571,-16 631,-16 631,-16 634,-16 637,-19 637,-22 637,-22 637,-28 637,-28 637,-31 634,-34 631,-34"/>
<text text-anchor="middle" x="601" y="-22.8" font-family="Helvetica,sans-Serif" font-size="9.00">violations.mjs</text>
</a>
</g>
</g>
<!-- baseline&#45;violations.schema.mjs&#45;&gt;violations.mjs -->
<g id="edge1" class="edge">
<title>baseline&#45;violations.schema.mjs&#45;&gt;violations.mjs</title>
<path fill="none" stroke="#000000" stroke-width="2" stroke-opacity="0.200000" d="M512.22,-20.5C512.22,-20.5 558.85,-20.5 558.85,-20.5"/>
<polygon fill="#000000" fill-opacity="0.200000" stroke="#000000" stroke-width="2" stroke-opacity="0.200000" points="558.85,-22.6 564.85,-20.5 558.85,-18.4 558.85,-22.6"/>
</g>
<!-- rule&#45;summary.mjs -->
<g id="node20" class="node">
<title>rule&#45;summary.mjs</title>
<g id="a_node20"><a xlink:href="https://github.com/sverweij/dependency-cruiser/blob/develop/tools/schema/rule-summary.mjs" xlink:title="rule&#45;summary.mjs">
<path fill="#ffffcc" stroke="black" d="M803.5,-66C803.5,-66 726.5,-66 726.5,-66 723.5,-66 720.5,-63 720.5,-60 720.5,-60 720.5,-54 720.5,-54 720.5,-51 723.5,-48 726.5,-48 726.5,-48 803.5,-48 803.5,-48 806.5,-48 809.5,-51 809.5,-54 809.5,-54 809.5,-60 809.5,-60 809.5,-63 806.5,-66 803.5,-66"/>
<text text-anchor="middle" x="765" y="-54.8" font-family="Helvetica,sans-Serif" font-size="9.00">rule&#45;summary.mjs</text>
</a>
</g>
</g>
<!-- violations.mjs&#45;&gt;rule&#45;summary.mjs -->
<g id="edge53" class="edge">
<title>violations.mjs&#45;&gt;rule&#45;summary.mjs</title>
<path fill="none" stroke="#000000" stroke-width="2" stroke-opacity="0.200000" d="M601,-34.09C601,-41.59 601,-51 601,-51 601,-51 714.19,-51 714.19,-51"/>
<polygon fill="#000000" fill-opacity="0.200000" stroke="#000000" stroke-width="2" stroke-opacity="0.200000" points="714.19,-53.1 720.19,-51 714.19,-48.9 714.19,-53.1"/>
</g>
<!-- violation&#45;type.mjs -->
<g id="node27" class="node">
<title>violation&#45;type.mjs</title>
<g id="a_node27"><a xlink:href="https://github.com/sverweij/dependency-cruiser/blob/develop/tools/schema/violation-type.mjs" xlink:title="violation&#45;type.mjs">
<polygon fill="white" stroke="none" points="809,-34 721,-34 721,-16 809,-16 809,-34"/>
<polyline fill="none" stroke="black" points="721,-16 809,-16"/>
<text text-anchor="middle" x="765" y="-22.8" font-family="Helvetica,sans-Serif" font-size="9.00">violation&#45;type.mjs</text>
</a>
</g>
</g>
<!-- violations.mjs&#45;&gt;violation&#45;type.mjs -->
<g id="edge54" class="edge">
<title>violations.mjs&#45;&gt;violation&#45;type.mjs</title>
<path fill="none" stroke="#000000" stroke-width="2" stroke-opacity="0.200000" d="M637.4,-25C637.4,-25 714.83,-25 714.83,-25"/>
<polygon fill="#000000" fill-opacity="0.200000" stroke="#000000" stroke-width="2" stroke-opacity="0.200000" points="714.83,-27.1 720.83,-25 714.83,-22.9 714.83,-27.1"/>
</g>
<!-- compound&#45;donot&#45;follow&#45;type.mjs -->
<g id="node3" class="node">
<title>compound&#45;donot&#45;follow&#45;type.mjs</title>
<g id="a_node3"><a xlink:href="https://github.com/sverweij/dependency-cruiser/blob/develop/tools/schema/compound-donot-follow-type.mjs" xlink:title="compound&#45;donot&#45;follow&#45;type.mjs">
<polygon fill="white" stroke="none" points="676,-584 526,-584 526,-566 676,-566 676,-584"/>
<polyline fill="none" stroke="black" points="526,-566 676,-566"/>
<text text-anchor="middle" x="601" y="-572.8" font-family="Helvetica,sans-Serif" font-size="9.00">compound&#45;donot&#45;follow&#45;type.mjs</text>
</a>
</g>
</g>
<!-- re&#45;as&#45;strings&#45;type.mjs -->
<g id="node4" class="node">
<title>re&#45;as&#45;strings&#45;type.mjs</title>
<g id="a_node4"><a xlink:href="https://github.com/sverweij/dependency-cruiser/blob/develop/tools/schema/re-as-strings-type.mjs" xlink:title="re&#45;as&#45;strings&#45;type.mjs">
<polygon fill="white" stroke="none" points="958,-416 854,-416 854,-398 958,-398 958,-416"/>
<polyline fill="none" stroke="black" points="854,-398 958,-398"/>
<text text-anchor="middle" x="906" y="-404.8" font-family="Helvetica,sans-Serif" font-size="9.00">re&#45;as&#45;strings&#45;type.mjs</text>
</a>
</g>
</g>
<!-- compound&#45;donot&#45;follow&#45;type.mjs&#45;&gt;re&#45;as&#45;strings&#45;type.mjs -->
<g id="edge2" class="edge">
<title>compound&#45;donot&#45;follow&#45;type.mjs&#45;&gt;re&#45;as&#45;strings&#45;type.mjs</title>
<path fill="none" stroke="#000000" stroke-width="2" stroke-opacity="0.200000" d="M673,-565.58C673,-530.37 673,-408.58 673,-408.58 673,-408.58 847.71,-408.58 847.71,-408.58"/>
<polygon fill="#000000" fill-opacity="0.200000" stroke="#000000" stroke-width="2" stroke-opacity="0.200000" points="847.71,-410.68 853.71,-408.58 847.71,-406.48 847.71,-410.68"/>
</g>
<!-- compound&#45;exclude&#45;type.mjs -->
<g id="node5" class="node">
<title>compound&#45;exclude&#45;type.mjs</title>
<g id="a_node5"><a xlink:href="https://github.com/sverweij/dependency-cruiser/blob/develop/tools/schema/compound-exclude-type.mjs" xlink:title="compound&#45;exclude&#45;type.mjs">
<polygon fill="white" stroke="none" points="831,-495 699,-495 699,-477 831,-477 831,-495"/>
<polyline fill="none" stroke="black" points="699,-477 831,-477"/>
<text text-anchor="middle" x="765" y="-483.8" font-family="Helvetica,sans-Serif" font-size="9.00">compound&#45;exclude&#45;type.mjs</text>
</a>
</g>
</g>
<!-- compound&#45;exclude&#45;type.mjs&#45;&gt;re&#45;as&#45;strings&#45;type.mjs -->
<g id="edge3" class="edge">
<title>compound&#45;exclude&#45;type.mjs&#45;&gt;re&#45;as&#45;strings&#45;type.mjs</title>
<path fill="none" stroke="#000000" stroke-width="2" stroke-opacity="0.200000" d="M831.37,-486C867.94,-486 906,-486 906,-486 906,-486 906,-422.06 906,-422.06"/>
<polygon fill="#000000" fill-opacity="0.200000" stroke="#000000" stroke-width="2" stroke-opacity="0.200000" points="908.1,-422.06 906,-416.06 903.9,-422.06 908.1,-422.06"/>
</g>
<!-- compound&#45;focus&#45;type.mjs -->
<g id="node6" class="node">
<title>compound&#45;focus&#45;type.mjs</title>
<g id="a_node6"><a xlink:href="https://github.com/sverweij/dependency-cruiser/blob/develop/tools/schema/compound-focus-type.mjs" xlink:title="compound&#45;focus&#45;type.mjs">
<polygon fill="white" stroke="none" points="826,-401 704,-401 704,-383 826,-383 826,-401"/>
<polyline fill="none" stroke="black" points="704,-383 826,-383"/>
<text text-anchor="middle" x="765" y="-389.8" font-family="Helvetica,sans-Serif" font-size="9.00">compound&#45;focus&#45;type.mjs</text>
</a>
</g>
</g>
<!-- compound&#45;focus&#45;type.mjs&#45;&gt;re&#45;as&#45;strings&#45;type.mjs -->
<g id="edge4" class="edge">
<title>compound&#45;focus&#45;type.mjs&#45;&gt;re&#45;as&#45;strings&#45;type.mjs</title>
<path fill="none" stroke="#000000" stroke-width="2" stroke-opacity="0.200000" d="M826.07,-390.5C845,-390.5 861,-390.5 861,-390.5 861,-390.5 861,-391.98 861,-391.98"/>
<polygon fill="#000000" fill-opacity="0.200000" stroke="#000000" stroke-width="2" stroke-opacity="0.200000" points="858.9,-391.98 861,-397.98 863.1,-391.98 858.9,-391.98"/>
</g>
<!-- compound&#45;include&#45;only&#45;type.mjs -->
<g id="node7" class="node">
<title>compound&#45;include&#45;only&#45;type.mjs</title>
<g id="a_node7"><a xlink:href="https://github.com/sverweij/dependency-cruiser/blob/develop/tools/schema/compound-include-only-type.mjs" xlink:title="compound&#45;include&#45;only&#45;type.mjs">
<polygon fill="white" stroke="none" points="840,-463 690,-463 690,-445 840,-445 840,-463"/>
<polyline fill="none" stroke="black" points="690,-445 840,-445"/>
<text text-anchor="middle" x="765" y="-451.8" font-family="Helvetica,sans-Serif" font-size="9.00">compound&#45;include&#45;only&#45;type.mjs</text>
</a>
</g>
</g>
<!-- compound&#45;include&#45;only&#45;type.mjs&#45;&gt;re&#45;as&#45;strings&#45;type.mjs -->
<g id="edge5" class="edge">
<title>compound&#45;include&#45;only&#45;type.mjs&#45;&gt;re&#45;as&#45;strings&#45;type.mjs</title>
<path fill="none" stroke="#000000" stroke-width="2" stroke-opacity="0.200000" d="M836,-444.88C836,-432.78 836,-412.92 836,-412.92 836,-412.92 847.66,-412.92 847.66,-412.92"/>
<polygon fill="#000000" fill-opacity="0.200000" stroke="#000000" stroke-width="2" stroke-opacity="0.200000" points="847.66,-415.02 853.66,-412.92 847.66,-410.82 847.66,-415.02"/>
</g>
<!-- compound&#45;reaches&#45;type.mjs -->
<g id="node8" class="node">
<title>compound&#45;reaches&#45;type.mjs</title>
<g id="a_node8"><a xlink:href="https://github.com/sverweij/dependency-cruiser/blob/develop/tools/schema/compound-reaches-type.mjs" xlink:title="compound&#45;reaches&#45;type.mjs">
<polygon fill="white" stroke="none" points="831.5,-369 698.5,-369 698.5,-351 831.5,-351 831.5,-369"/>
<polyline fill="none" stroke="black" points="698.5,-351 831.5,-351"/>
<text text-anchor="middle" x="765" y="-357.8" font-family="Helvetica,sans-Serif" font-size="9.00">compound&#45;reaches&#45;type.mjs</text>
</a>
</g>
</g>
<!-- compound&#45;reaches&#45;type.mjs&#45;&gt;re&#45;as&#45;strings&#45;type.mjs -->
<g id="edge6" class="edge">
<title>compound&#45;reaches&#45;type.mjs&#45;&gt;re&#45;as&#45;strings&#45;type.mjs</title>
<path fill="none" stroke="#000000" stroke-width="2" stroke-opacity="0.200000" d="M831.6,-360C846.51,-360 858,-360 858,-360 858,-360 858,-391.94 858,-391.94"/>
<polygon fill="#000000" fill-opacity="0.200000" stroke="#000000" stroke-width="2" stroke-opacity="0.200000" points="855.9,-391.94 858,-397.94 860.1,-391.94 855.9,-391.94"/>
</g>
<!-- configuration.schema.mjs -->
<g id="node9" class="node">
<title>configuration.schema.mjs</title>
<g id="a_node9"><a xlink:href="https://github.com/sverweij/dependency-cruiser/blob/develop/tools/schema/configuration.schema.mjs" xlink:title="configuration.schema.mjs">
<path fill="darkgreen" stroke="darkgreen" d="M347,-295C347,-295 238,-295 238,-295 235,-295 232,-292 232,-289 232,-289 232,-283 232,-283 232,-280 235,-277 238,-277 238,-277 347,-277 347,-277 350,-277 353,-280 353,-283 353,-283 353,-289 353,-289 353,-292 350,-295 347,-295"/>
<text text-anchor="middle" x="292.5" y="-283.8" font-family="Helvetica,sans-Serif" font-size="9.00" fill="#ffffcc">configuration.schema.mjs</text>
</a>
</g>
</g>
<!-- options.mjs -->
<g id="node10" class="node">
<title>options.mjs</title>
<g id="a_node10"><a xlink:href="https://github.com/sverweij/dependency-cruiser/blob/develop/tools/schema/options.mjs" xlink:title="options.mjs">
<path fill="#ffffcc" stroke="black" d="M465,-370C465,-370 414,-370 414,-370 411,-370 408,-367 408,-364 408,-364 408,-358 408,-358 408,-355 411,-352 414,-352 414,-352 465,-352 465,-352 468,-352 471,-355 471,-358 471,-358 471,-364 471,-364 471,-367 468,-370 465,-370"/>
<text text-anchor="middle" x="439.5" y="-358.8" font-family="Helvetica,sans-Serif" font-size="9.00">options.mjs</text>
</a>
</g>
</g>
<!-- configuration.schema.mjs&#45;&gt;options.mjs -->
<g id="edge7" class="edge">
<title>configuration.schema.mjs&#45;&gt;options.mjs</title>
<path fill="none" stroke="#000000" stroke-width="2" stroke-opacity="0.200000" d="M345,-295.2C345,-315.22 345,-361 345,-361 345,-361 401.77,-361 401.77,-361"/>
<polygon fill="#000000" fill-opacity="0.200000" stroke="#000000" stroke-width="2" stroke-opacity="0.200000" points="401.77,-363.1 407.77,-361 401.77,-358.9 401.77,-363.1"/>
</g>
<!-- rule&#45;set.mjs -->
<g id="node11" class="node">
<title>rule&#45;set.mjs</title>
<g id="a_node11"><a xlink:href="https://github.com/sverweij/dependency-cruiser/blob/develop/tools/schema/rule-set.mjs" xlink:title="rule&#45;set.mjs">
<path fill="#ffffcc" stroke="black" d="M465.5,-172C465.5,-172 413.5,-172 413.5,-172 410.5,-172 407.5,-169 407.5,-166 407.5,-166 407.5,-160 407.5,-160 407.5,-157 410.5,-154 413.5,-154 413.5,-154 465.5,-154 465.5,-154 468.5,-154 471.5,-157 471.5,-160 471.5,-160 471.5,-166 471.5,-166 471.5,-169 468.5,-172 465.5,-172"/>
<text text-anchor="middle" x="439.5" y="-160.8" font-family="Helvetica,sans-Serif" font-size="9.00">rule&#45;set.mjs</text>
</a>
</g>
</g>
<!-- configuration.schema.mjs&#45;&gt;rule&#45;set.mjs -->
<g id="edge8" class="edge">
<title>configuration.schema.mjs&#45;&gt;rule&#45;set.mjs</title>
<path fill="none" stroke="#000000" stroke-width="2" stroke-opacity="0.200000" d="M338,-276.76C338,-248.15 338,-163 338,-163 338,-163 401.38,-163 401.38,-163"/>
<polygon fill="#000000" fill-opacity="0.200000" stroke="#000000" stroke-width="2" stroke-opacity="0.200000" points="401.38,-165.1 407.38,-163 401.38,-160.9 401.38,-165.1"/>
</g>
<!-- options.mjs&#45;&gt;violations.mjs -->
<g id="edge39" class="edge">
<title>options.mjs&#45;&gt;violations.mjs</title>
<path fill="none" stroke="#000000" stroke-width="2" stroke-opacity="0.200000" d="M471.38,-353.89C493.5,-353.89 519,-353.89 519,-353.89 519,-353.89 519,-25 519,-25 519,-25 558.79,-25 558.79,-25"/>
<polygon fill="#000000" fill-opacity="0.200000" stroke="#000000" stroke-width="2" stroke-opacity="0.200000" points="558.79,-27.1 564.79,-25 558.79,-22.9 558.79,-27.1"/>
</g>
<!-- options.mjs&#45;&gt;compound&#45;donot&#45;follow&#45;type.mjs -->
<g id="edge30" class="edge">
<title>options.mjs&#45;&gt;compound&#45;donot&#45;follow&#45;type.mjs</title>
<path fill="none" stroke="#000000" stroke-width="2" stroke-opacity="0.200000" d="M471.21,-363.33C500,-363.33 538,-363.33 538,-363.33 538,-363.33 538,-559.9 538,-559.9"/>
<polygon fill="#000000" fill-opacity="0.200000" stroke="#000000" stroke-width="2" stroke-opacity="0.200000" points="535.9,-559.9 538,-565.9 540.1,-559.9 535.9,-559.9"/>
</g>
<!-- options.mjs&#45;&gt;re&#45;as&#45;strings&#45;type.mjs -->
<g id="edge37" class="edge">
<title>options.mjs&#45;&gt;re&#45;as&#45;strings&#45;type.mjs</title>
<path fill="none" stroke="#000000" stroke-width="2" stroke-opacity="0.200000" d="M450,-370.36C450,-382.78 450,-403.17 450,-403.17 450,-403.17 847.69,-403.17 847.69,-403.17"/>
<polygon fill="#000000" fill-opacity="0.200000" stroke="#000000" stroke-width="2" stroke-opacity="0.200000" points="847.69,-405.27 853.69,-403.17 847.69,-401.07 847.69,-405.27"/>
</g>
<!-- options.mjs&#45;&gt;compound&#45;exclude&#45;type.mjs -->
<g id="edge31" class="edge">
<title>options.mjs&#45;&gt;compound&#45;exclude&#45;type.mjs</title>
<path fill="none" stroke="#000000" stroke-width="2" stroke-opacity="0.200000" d="M471.05,-365.22C484,-365.22 496,-365.22 496,-365.22 496,-365.22 496,-486 496,-486 496,-486 692.85,-486 692.85,-486"/>
<polygon fill="#000000" fill-opacity="0.200000" stroke="#000000" stroke-width="2" stroke-opacity="0.200000" points="692.85,-488.1 698.85,-486 692.85,-483.9 692.85,-488.1"/>
</g>
<!-- options.mjs&#45;&gt;compound&#45;focus&#45;type.mjs -->
<g id="edge32" class="edge">
<title>options.mjs&#45;&gt;compound&#45;focus&#45;type.mjs</title>
<path fill="none" stroke="#000000" stroke-width="2" stroke-opacity="0.200000" d="M461,-370.01C461,-377.43 461,-386.75 461,-386.75 461,-386.75 697.85,-386.75 697.85,-386.75"/>
<polygon fill="#000000" fill-opacity="0.200000" stroke="#000000" stroke-width="2" stroke-opacity="0.200000" points="697.85,-388.85 703.85,-386.75 697.85,-384.65 697.85,-388.85"/>
</g>
<!-- options.mjs&#45;&gt;compound&#45;include&#45;only&#45;type.mjs -->
<g id="edge33" class="edge">
<title>options.mjs&#45;&gt;compound&#45;include&#45;only&#45;type.mjs</title>
<path fill="none" stroke="#000000" stroke-width="2" stroke-opacity="0.200000" d="M471.21,-361.44C539.84,-361.44 696,-361.44 696,-361.44 696,-361.44 696,-438.79 696,-438.79"/>
<polygon fill="#000000" fill-opacity="0.200000" stroke="#000000" stroke-width="2" stroke-opacity="0.200000" points="693.9,-438.79 696,-444.79 698.1,-438.79 693.9,-438.79"/>
</g>
<!-- options.mjs&#45;&gt;compound&#45;reaches&#45;type.mjs -->
<g id="edge34" class="edge">
<title>options.mjs&#45;&gt;compound&#45;reaches&#45;type.mjs</title>
<path fill="none" stroke="#000000" stroke-width="2" stroke-opacity="0.200000" d="M471.01,-359.56C471.01,-359.56 692.34,-359.56 692.34,-359.56"/>
<polygon fill="#000000" fill-opacity="0.200000" stroke="#000000" stroke-width="2" stroke-opacity="0.200000" points="692.34,-361.66 698.34,-359.56 692.34,-357.46 692.34,-361.66"/>
</g>
<!-- dependency&#45;type.mjs -->
<g id="node18" class="node">
<title>dependency&#45;type.mjs</title>
<g id="a_node18"><a xlink:href="https://github.com/sverweij/dependency-cruiser/blob/develop/tools/schema/dependency-type.mjs" xlink:title="dependency&#45;type.mjs">
<polygon fill="white" stroke="none" points="817,-188 713,-188 713,-170 817,-170 817,-188"/>
<polyline fill="none" stroke="black" points="713,-170 817,-170"/>
<text text-anchor="middle" x="765" y="-176.8" font-family="Helvetica,sans-Serif" font-size="9.00">dependency&#45;type.mjs</text>
</a>
</g>
</g>
<!-- options.mjs&#45;&gt;dependency&#45;type.mjs -->
<g id="edge35" class="edge">
<title>options.mjs&#45;&gt;dependency&#45;type.mjs</title>
<path fill="none" stroke="#000000" stroke-width="2" stroke-opacity="0.200000" d="M471.13,-357.67C533.64,-357.67 667,-357.67 667,-357.67 667,-357.67 667,-182 667,-182 667,-182 706.84,-182 706.84,-182"/>
<polygon fill="#000000" fill-opacity="0.200000" stroke="#000000" stroke-width="2" stroke-opacity="0.200000" points="706.84,-184.1 712.84,-182 706.84,-179.9 706.84,-184.1"/>
</g>
<!-- module&#45;systems&#45;type.mjs -->
<g id="node21" class="node">
<title>module&#45;systems&#45;type.mjs</title>
<g id="a_node21"><a xlink:href="https://github.com/sverweij/dependency-cruiser/blob/develop/tools/schema/module-systems-type.mjs" xlink:title="module&#45;systems&#45;type.mjs">
<polygon fill="white" stroke="none" points="661,-220 541,-220 541,-202 661,-202 661,-220"/>
<polyline fill="none" stroke="black" points="541,-202 661,-202"/>
<text text-anchor="middle" x="601" y="-208.8" font-family="Helvetica,sans-Serif" font-size="9.00">module&#45;systems&#45;type.mjs</text>
</a>
</g>
</g>
<!-- options.mjs&#45;&gt;module&#45;systems&#45;type.mjs -->
<g id="edge36" class="edge">
<title>options.mjs&#45;&gt;module&#45;systems&#45;type.mjs</title>
<path fill="none" stroke="#000000" stroke-width="2" stroke-opacity="0.200000" d="M471.15,-355.78C502.23,-355.78 545,-355.78 545,-355.78 545,-355.78 545,-226.06 545,-226.06"/>
<polygon fill="#000000" fill-opacity="0.200000" stroke="#000000" stroke-width="2" stroke-opacity="0.200000" points="547.1,-226.06 545,-220.06 542.9,-226.06 547.1,-226.06"/>
</g>
<!-- reporter&#45;options.mjs -->
<g id="node24" class="node">
<title>reporter&#45;options.mjs</title>
<g id="a_node24"><a xlink:href="https://github.com/sverweij/dependency-cruiser/blob/develop/tools/schema/reporter-options.mjs" xlink:title="reporter&#45;options.mjs">
<path fill="#ffffcc" stroke="black" d="M644,-432C644,-432 558,-432 558,-432 555,-432 552,-429 552,-426 552,-426 552,-420 552,-420 552,-417 555,-414 558,-414 558,-414 644,-414 644,-414 647,-414 650,-417 650,-420 650,-420 650,-426 650,-426 650,-429 647,-432 644,-432"/>
<text text-anchor="middle" x="601" y="-420.8" font-family="Helvetica,sans-Serif" font-size="9.00">reporter&#45;options.mjs</text>
</a>
</g>
</g>
<!-- options.mjs&#45;&gt;reporter&#45;options.mjs -->
<g id="edge38" class="edge">
<title>options.mjs&#45;&gt;reporter&#45;options.mjs</title>
<path fill="none" stroke="#000000" stroke-width="2" stroke-opacity="0.200000" d="M440,-370.16C440,-387.04 440,-421.33 440,-421.33 440,-421.33 545.82,-421.33 545.82,-421.33"/>
<polygon fill="#000000" fill-opacity="0.200000" stroke="#000000" stroke-width="2" stroke-opacity="0.200000" points="545.82,-423.43 551.82,-421.33 545.82,-419.23 545.82,-423.43"/>
</g>
<!-- restrictions.mjs -->
<g id="node25" class="node">
<title>restrictions.mjs</title>
<g id="a_node25"><a xlink:href="https://github.com/sverweij/dependency-cruiser/blob/develop/tools/schema/restrictions.mjs" xlink:title="restrictions.mjs">
<path fill="#ffffcc" stroke="black" d="M633.5,-188C633.5,-188 568.5,-188 568.5,-188 565.5,-188 562.5,-185 562.5,-182 562.5,-182 562.5,-176 562.5,-176 562.5,-173 565.5,-170 568.5,-170 568.5,-170 633.5,-170 633.5,-170 636.5,-170 639.5,-173 639.5,-176 639.5,-176 639.5,-182 639.5,-182 639.5,-185 636.5,-188 633.5,-188"/>
<text text-anchor="middle" x="601" y="-176.8" font-family="Helvetica,sans-Serif" font-size="9.00">restrictions.mjs</text>
</a>
</g>
</g>
<!-- rule&#45;set.mjs&#45;&gt;restrictions.mjs -->
<g id="edge47" class="edge">
<title>rule&#45;set.mjs&#45;&gt;restrictions.mjs</title>
<path fill="none" stroke="#000000" stroke-width="2" stroke-opacity="0.200000" d="M440,-172.3C440,-176.26 440,-180 440,-180 440,-180 556.44,-180 556.44,-180"/>
<polygon fill="#000000" fill-opacity="0.200000" stroke="#000000" stroke-width="2" stroke-opacity="0.200000" points="556.44,-182.1 562.44,-180 556.44,-177.9 556.44,-182.1"/>
</g>
<!-- severity&#45;type.mjs -->
<g id="node26" class="node">
<title>severity&#45;type.mjs</title>
<g id="a_node26"><a xlink:href="https://github.com/sverweij/dependency-cruiser/blob/develop/tools/schema/severity-type.mjs" xlink:title="severity&#45;type.mjs">
<polygon fill="white" stroke="none" points="948.5,-111 863.5,-111 863.5,-93 948.5,-93 948.5,-111"/>
<polyline fill="none" stroke="black" points="863.5,-93 948.5,-93"/>
<text text-anchor="middle" x="906" y="-99.8" font-family="Helvetica,sans-Serif" font-size="9.00">severity&#45;type.mjs</text>
</a>
</g>
</g>
<!-- rule&#45;set.mjs&#45;&gt;severity&#45;type.mjs -->
<g id="edge48" class="edge">
<title>rule&#45;set.mjs&#45;&gt;severity&#45;type.mjs</title>
<path fill="none" stroke="#000000" stroke-width="2" stroke-opacity="0.200000" d="M471.56,-162C576.96,-162 906,-162 906,-162 906,-162 906,-117.11 906,-117.11"/>
<polygon fill="#000000" fill-opacity="0.200000" stroke="#000000" stroke-width="2" stroke-opacity="0.200000" points="908.1,-117.11 906,-111.11 903.9,-117.11 908.1,-117.11"/>
</g>
<!-- cruise&#45;result.schema.mjs -->
<g id="node12" class="node">
<title>cruise&#45;result.schema.mjs</title>
<g id="a_node12"><a xlink:href="https://github.com/sverweij/dependency-cruiser/blob/develop/tools/schema/cruise-result.schema.mjs" xlink:title="cruise&#45;result.schema.mjs">
<path fill="darkgreen" stroke="darkgreen" d="M112,-81C112,-81 6,-81 6,-81 3,-81 0,-78 0,-75 0,-75 0,-69 0,-69 0,-66 3,-63 6,-63 6,-63 112,-63 112,-63 115,-63 118,-66 118,-69 118,-69 118,-75 118,-75 118,-78 115,-81 112,-81"/>
<text text-anchor="middle" x="59" y="-69.8" font-family="Helvetica,sans-Serif" font-size="9.00" fill="#ffffcc">cruise&#45;result.schema.mjs</text>
</a>
</g>
</g>
<!-- folders.mjs -->
<g id="node13" class="node">
<title>folders.mjs</title>
<g id="a_node13"><a xlink:href="https://github.com/sverweij/dependency-cruiser/blob/develop/tools/schema/folders.mjs" xlink:title="folders.mjs">
<path fill="#ffffcc" stroke="black" d="M317,-18C317,-18 268,-18 268,-18 265,-18 262,-15 262,-12 262,-12 262,-6 262,-6 262,-3 265,0 268,0 268,0 317,0 317,0 320,0 323,-3 323,-6 323,-6 323,-12 323,-12 323,-15 320,-18 317,-18"/>
<text text-anchor="middle" x="292.5" y="-6.8" font-family="Helvetica,sans-Serif" font-size="9.00">folders.mjs</text>
</a>
</g>
</g>
<!-- cruise&#45;result.schema.mjs&#45;&gt;folders.mjs -->
<g id="edge9" class="edge">
<title>cruise&#45;result.schema.mjs&#45;&gt;folders.mjs</title>
<path fill="none" stroke="#000000" stroke-width="2" stroke-opacity="0.200000" d="M118.15,-70.8C184.51,-70.8 283,-70.8 283,-70.8 283,-70.8 283,-24.12 283,-24.12"/>
<polygon fill="#000000" fill-opacity="0.200000" stroke="#000000" stroke-width="2" stroke-opacity="0.200000" points="285.1,-24.12 283,-18.12 280.9,-24.12 285.1,-24.12"/>
</g>
<!-- modules.mjs -->
<g id="node14" class="node">
<title>modules.mjs</title>
<g id="a_node14"><a xlink:href="https://github.com/sverweij/dependency-cruiser/blob/develop/tools/schema/modules.mjs" xlink:title="modules.mjs">
<path fill="#ffffcc" stroke="black" d="M467.5,-96C467.5,-96 411.5,-96 411.5,-96 408.5,-96 405.5,-93 405.5,-90 405.5,-90 405.5,-84 405.5,-84 405.5,-81 408.5,-78 411.5,-78 411.5,-78 467.5,-78 467.5,-78 470.5,-78 473.5,-81 473.5,-84 473.5,-84 473.5,-90 473.5,-90 473.5,-93 470.5,-96 467.5,-96"/>
<text text-anchor="middle" x="439.5" y="-84.8" font-family="Helvetica,sans-Serif" font-size="9.00">modules.mjs</text>
</a>
</g>
</g>
<!-- cruise&#45;result.schema.mjs&#45;&gt;modules.mjs -->
<g id="edge10" class="edge">
<title>cruise&#45;result.schema.mjs&#45;&gt;modules.mjs</title>
<path fill="none" stroke="#000000" stroke-width="2" stroke-opacity="0.200000" d="M118.04,-73.2C222.5,-73.2 429,-73.2 429,-73.2 429,-73.2 429,-73.67 429,-73.67"/>
<polygon fill="#000000" fill-opacity="0.200000" stroke="#000000" stroke-width="2" stroke-opacity="0.200000" points="426.9,-71.87 429,-77.87 431.1,-71.87 426.9,-71.87"/>
</g>
<!-- revision&#45;data.mjs -->
<g id="node15" class="node">
<title>revision&#45;data.mjs</title>
<g id="a_node15"><a xlink:href="https://github.com/sverweij/dependency-cruiser/blob/develop/tools/schema/revision-data.mjs" xlink:title="revision&#45;data.mjs">
<path fill="#ffffcc" stroke="black" d="M212,-35C212,-35 138,-35 138,-35 135,-35 132,-32 132,-29 132,-29 132,-23 132,-23 132,-20 135,-17 138,-17 138,-17 212,-17 212,-17 215,-17 218,-20 218,-23 218,-23 218,-29 218,-29 218,-32 215,-35 212,-35"/>
<text text-anchor="middle" x="175" y="-23.8" font-family="Helvetica,sans-Serif" font-size="9.00">revision&#45;data.mjs</text>
</a>
</g>
</g>
<!-- cruise&#45;result.schema.mjs&#45;&gt;revision&#45;data.mjs -->
<g id="edge11" class="edge">
<title>cruise&#45;result.schema.mjs&#45;&gt;revision&#45;data.mjs</title>
<path fill="none" stroke="#000000" stroke-width="2" stroke-opacity="0.200000" d="M118.14,-68.4C128.48,-68.4 136,-68.4 136,-68.4 136,-68.4 136,-41.41 136,-41.41"/>
<polygon fill="#000000" fill-opacity="0.200000" stroke="#000000" stroke-width="2" stroke-opacity="0.200000" points="138.1,-41.41 136,-35.41 133.9,-41.41 138.1,-41.41"/>
</g>
<!-- summary.mjs -->
<g id="node16" class="node">
<title>summary.mjs</title>
<g id="a_node16"><a xlink:href="https://github.com/sverweij/dependency-cruiser/blob/develop/tools/schema/summary.mjs" xlink:title="summary.mjs">
<path fill="#ffffcc" stroke="black" d="M204.5,-149C204.5,-149 145.5,-149 145.5,-149 142.5,-149 139.5,-146 139.5,-143 139.5,-143 139.5,-137 139.5,-137 139.5,-134 142.5,-131 145.5,-131 145.5,-131 204.5,-131 204.5,-131 207.5,-131 210.5,-134 210.5,-137 210.5,-137 210.5,-143 210.5,-143 210.5,-146 207.5,-149 204.5,-149"/>
<text text-anchor="middle" x="175" y="-137.8" font-family="Helvetica,sans-Serif" font-size="9.00">summary.mjs</text>
</a>
</g>
</g>
<!-- cruise&#45;result.schema.mjs&#45;&gt;summary.mjs -->
<g id="edge12" class="edge">
<title>cruise&#45;result.schema.mjs&#45;&gt;summary.mjs</title>
<path fill="none" stroke="#000000" stroke-width="2" stroke-opacity="0.200000" d="M118.02,-75.6C146.68,-75.6 175,-75.6 175,-75.6 175,-75.6 175,-124.77 175,-124.77"/>
<polygon fill="#000000" fill-opacity="0.200000" stroke="#000000" stroke-width="2" stroke-opacity="0.200000" points="172.9,-124.77 175,-130.77 177.1,-124.77 172.9,-124.77"/>
</g>
<!-- folders.mjs&#45;&gt;rule&#45;summary.mjs -->
<g id="edge16" class="edge">
<title>folders.mjs&#45;&gt;rule&#45;summary.mjs</title>
<path fill="none" stroke="#000000" stroke-width="2" stroke-opacity="0.200000" d="M303,-18.11C303,-31.26 303,-54 303,-54 303,-54 714.28,-54 714.28,-54"/>
<polygon fill="#000000" fill-opacity="0.200000" stroke="#000000" stroke-width="2" stroke-opacity="0.200000" points="714.28,-56.1 720.28,-54 714.28,-51.9 714.28,-56.1"/>
</g>
<!-- dependencies.mjs -->
<g id="node17" class="node">
<title>dependencies.mjs</title>
<g id="a_node17"><a xlink:href="https://github.com/sverweij/dependency-cruiser/blob/develop/tools/schema/dependencies.mjs" xlink:title="dependencies.mjs">
<path fill="#ffffcc" stroke="black" d="M641,-96C641,-96 561,-96 561,-96 558,-96 555,-93 555,-90 555,-90 555,-84 555,-84 555,-81 558,-78 561,-78 561,-78 641,-78 641,-78 644,-78 647,-81 647,-84 647,-84 647,-90 647,-90 647,-93 644,-96 641,-96"/>
<text text-anchor="middle" x="601" y="-84.8" font-family="Helvetica,sans-Serif" font-size="9.00">dependencies.mjs</text>
</a>
</g>
</g>
<!-- modules.mjs&#45;&gt;dependencies.mjs -->
<g id="edge18" class="edge">
<title>modules.mjs&#45;&gt;dependencies.mjs</title>
<path fill="none" stroke="#000000" stroke-width="2" stroke-opacity="0.200000" d="M473.75,-87C473.75,-87 548.85,-87 548.85,-87"/>
<polygon fill="#000000" fill-opacity="0.200000" stroke="#000000" stroke-width="2" stroke-opacity="0.200000" points="548.85,-89.1 554.85,-87 548.85,-84.9 548.85,-89.1"/>
</g>
<!-- modules.mjs&#45;&gt;dependency&#45;type.mjs -->
<g id="edge19" class="edge">
<title>modules.mjs&#45;&gt;dependency&#45;type.mjs</title>
<path fill="none" stroke="#000000" stroke-width="2" stroke-opacity="0.200000" d="M429,-96.06C429,-106.29 429,-121.5 429,-121.5 429,-121.5 765,-121.5 765,-121.5 765,-121.5 765,-163.76 765,-163.76"/>
<polygon fill="#000000" fill-opacity="0.200000" stroke="#000000" stroke-width="2" stroke-opacity="0.200000" points="762.9,-163.76 765,-169.76 767.1,-163.76 762.9,-163.76"/>
</g>
<!-- modules.mjs&#45;&gt;rule&#45;summary.mjs -->
<g id="edge20" class="edge">
<title>modules.mjs&#45;&gt;rule&#45;summary.mjs</title>
<path fill="none" stroke="#000000" stroke-width="2" stroke-opacity="0.200000" d="M451,-77.84C451,-69.01 451,-57 451,-57 451,-57 714.34,-57 714.34,-57"/>
<polygon fill="#000000" fill-opacity="0.200000" stroke="#000000" stroke-width="2" stroke-opacity="0.200000" points="714.34,-59.1 720.34,-57 714.34,-54.9 714.34,-59.1"/>
</g>
<!-- summary.mjs&#45;&gt;violations.mjs -->
<g id="edge52" class="edge">
<title>summary.mjs&#45;&gt;violations.mjs</title>
<path fill="none" stroke="#000000" stroke-width="2" stroke-opacity="0.200000" d="M210.66,-137C300.69,-137 530,-137 530,-137 530,-137 530,-29.5 530,-29.5 530,-29.5 558.67,-29.5 558.67,-29.5"/>
<polygon fill="#000000" fill-opacity="0.200000" stroke="#000000" stroke-width="2" stroke-opacity="0.200000" points="558.67,-31.6 564.67,-29.5 558.67,-27.4 558.67,-31.6"/>
</g>
<!-- summary.mjs&#45;&gt;rule&#45;set.mjs -->
<g id="edge51" class="edge">
<title>summary.mjs&#45;&gt;rule&#45;set.mjs</title>
<path fill="none" stroke="#000000" stroke-width="2" stroke-opacity="0.200000" d="M210.52,-143C285.06,-143 451,-143 451,-143 451,-143 451,-147.94 451,-147.94"/>
<polygon fill="#000000" fill-opacity="0.200000" stroke="#000000" stroke-width="2" stroke-opacity="0.200000" points="448.9,-147.94 451,-153.94 453.1,-147.94 448.9,-147.94"/>
</g>
<!-- options&#45;used.mjs -->
<g id="node22" class="node">
<title>options&#45;used.mjs</title>
<g id="a_node22"><a xlink:href="https://github.com/sverweij/dependency-cruiser/blob/develop/tools/schema/options-used.mjs" xlink:title="options&#45;used.mjs">
<path fill="#ffffcc" stroke="black" d="M329.5,-416C329.5,-416 255.5,-416 255.5,-416 252.5,-416 249.5,-413 249.5,-410 249.5,-410 249.5,-404 249.5,-404 249.5,-401 252.5,-398 255.5,-398 255.5,-398 329.5,-398 329.5,-398 332.5,-398 335.5,-401 335.5,-404 335.5,-404 335.5,-410 335.5,-410 335.5,-413 332.5,-416 329.5,-416"/>
<text text-anchor="middle" x="292.5" y="-404.8" font-family="Helvetica,sans-Serif" font-size="9.00">options&#45;used.mjs</text>
</a>
</g>
</g>
<!-- summary.mjs&#45;&gt;options&#45;used.mjs -->
<g id="edge50" class="edge">
<title>summary.mjs&#45;&gt;options&#45;used.mjs</title>
<path fill="none" stroke="#000000" stroke-width="2" stroke-opacity="0.200000" d="M175,-149.19C175,-196.14 175,-407 175,-407 175,-407 243.41,-407 243.41,-407"/>
<polygon fill="#000000" fill-opacity="0.200000" stroke="#000000" stroke-width="2" stroke-opacity="0.200000" points="243.41,-409.1 249.41,-407 243.41,-404.9 243.41,-409.1"/>
</g>
<!-- dependencies.mjs&#45;&gt;dependency&#45;type.mjs -->
<g id="edge13" class="edge">
<title>dependencies.mjs&#45;&gt;dependency&#45;type.mjs</title>
<path fill="none" stroke="#000000" stroke-width="2" stroke-opacity="0.200000" d="M642,-96.2C642,-118.39 642,-173 642,-173 642,-173 706.84,-173 706.84,-173"/>
<polygon fill="#000000" fill-opacity="0.200000" stroke="#000000" stroke-width="2" stroke-opacity="0.200000" points="706.84,-175.1 712.84,-173 706.84,-170.9 706.84,-175.1"/>
</g>
<!-- module&#45;system&#45;type.mjs -->
<g id="node19" class="node">
<title>module&#45;system&#45;type.mjs</title>
<g id="a_node19"><a xlink:href="https://github.com/sverweij/dependency-cruiser/blob/develop/tools/schema/module-system-type.mjs" xlink:title="module&#45;system&#45;type.mjs">
<polygon fill="white" stroke="none" points="823,-112 707,-112 707,-94 823,-94 823,-112"/>
<polyline fill="none" stroke="black" points="707,-94 823,-94"/>
<text text-anchor="middle" x="765" y="-100.8" font-family="Helvetica,sans-Serif" font-size="9.00">module&#45;system&#45;type.mjs</text>
</a>
</g>
</g>
<!-- dependencies.mjs&#45;&gt;module&#45;system&#45;type.mjs -->
<g id="edge14" class="edge">
<title>dependencies.mjs&#45;&gt;module&#45;system&#45;type.mjs</title>
<path fill="none" stroke="#000000" stroke-width="2" stroke-opacity="0.200000" d="M645,-96.16C645,-98.97 645,-101.33 645,-101.33 645,-101.33 700.76,-101.33 700.76,-101.33"/>
<polygon fill="#000000" fill-opacity="0.200000" stroke="#000000" stroke-width="2" stroke-opacity="0.200000" points="700.76,-103.43 706.76,-101.33 700.76,-99.23 700.76,-103.43"/>
</g>
<!-- dependencies.mjs&#45;&gt;rule&#45;summary.mjs -->
<g id="edge15" class="edge">
<title>dependencies.mjs&#45;&gt;rule&#45;summary.mjs</title>
<path fill="none" stroke="#000000" stroke-width="2" stroke-opacity="0.200000" d="M642,-77.86C642,-70.03 642,-60 642,-60 642,-60 714.25,-60 714.25,-60"/>
<polygon fill="#000000" fill-opacity="0.200000" stroke="#000000" stroke-width="2" stroke-opacity="0.200000" points="714.25,-62.1 720.25,-60 714.25,-57.9 714.25,-62.1"/>
</g>
<!-- rule&#45;summary.mjs&#45;&gt;severity&#45;type.mjs -->
<g id="edge49" class="edge">
<title>rule&#45;summary.mjs&#45;&gt;severity&#45;type.mjs</title>
<path fill="none" stroke="#000000" stroke-width="2" stroke-opacity="0.200000" d="M809.61,-57C850.92,-57 906,-57 906,-57 906,-57 906,-86.89 906,-86.89"/>
<polygon fill="#000000" fill-opacity="0.200000" stroke="#000000" stroke-width="2" stroke-opacity="0.200000" points="903.9,-86.89 906,-92.89 908.1,-86.89 903.9,-86.89"/>
</g>
<!-- module&#45;systems&#45;type.mjs&#45;&gt;module&#45;system&#45;type.mjs -->
<g id="edge17" class="edge">
<title>module&#45;systems&#45;type.mjs&#45;&gt;module&#45;system&#45;type.mjs</title>
<path fill="none" stroke="#000000" stroke-width="2" stroke-opacity="0.200000" d="M654,-201.74C654,-176.21 654,-106.67 654,-106.67 654,-106.67 700.9,-106.67 700.9,-106.67"/>
<polygon fill="#000000" fill-opacity="0.200000" stroke="#000000" stroke-width="2" stroke-opacity="0.200000" points="700.9,-108.77 706.9,-106.67 700.9,-104.57 700.9,-108.77"/>
</g>
<!-- options&#45;used.mjs&#45;&gt;compound&#45;donot&#45;follow&#45;type.mjs -->
<g id="edge21" class="edge">
<title>options&#45;used.mjs&#45;&gt;compound&#45;donot&#45;follow&#45;type.mjs</title>
<path fill="none" stroke="#000000" stroke-width="2" stroke-opacity="0.200000" d="M335.68,-410.75C405.14,-410.75 534,-410.75 534,-410.75 534,-410.75 534,-559.7 534,-559.7"/>
<polygon fill="#000000" fill-opacity="0.200000" stroke="#000000" stroke-width="2" stroke-opacity="0.200000" points="531.9,-559.7 534,-565.7 536.1,-559.7 531.9,-559.7"/>
</g>
<!-- options&#45;used.mjs&#45;&gt;compound&#45;exclude&#45;type.mjs -->
<g id="edge22" class="edge">
<title>options&#45;used.mjs&#45;&gt;compound&#45;exclude&#45;type.mjs</title>
<path fill="none" stroke="#000000" stroke-width="2" stroke-opacity="0.200000" d="M279,-416.25C279,-438 279,-490.5 279,-490.5 279,-490.5 692.95,-490.5 692.95,-490.5"/>
<polygon fill="#000000" fill-opacity="0.200000" stroke="#000000" stroke-width="2" stroke-opacity="0.200000" points="692.95,-492.6 698.95,-490.5 692.95,-488.4 692.95,-492.6"/>
</g>
<!-- options&#45;used.mjs&#45;&gt;compound&#45;focus&#45;type.mjs -->
<g id="edge23" class="edge">
<title>options&#45;used.mjs&#45;&gt;compound&#45;focus&#45;type.mjs</title>
<path fill="none" stroke="#000000" stroke-width="2" stroke-opacity="0.200000" d="M293,-397.98C293,-394.13 293,-390.5 293,-390.5 293,-390.5 697.78,-390.5 697.78,-390.5"/>
<polygon fill="#000000" fill-opacity="0.200000" stroke="#000000" stroke-width="2" stroke-opacity="0.200000" points="697.78,-392.6 703.78,-390.5 697.78,-388.4 697.78,-392.6"/>
</g>
<!-- options&#45;used.mjs&#45;&gt;compound&#45;include&#45;only&#45;type.mjs -->
<g id="edge24" class="edge">
<title>options&#45;used.mjs&#45;&gt;compound&#45;include&#45;only&#45;type.mjs</title>
<path fill="none" stroke="#000000" stroke-width="2" stroke-opacity="0.200000" d="M335.68,-409.67C452.33,-409.67 765,-409.67 765,-409.67 765,-409.67 765,-438.6 765,-438.6"/>
<polygon fill="#000000" fill-opacity="0.200000" stroke="#000000" stroke-width="2" stroke-opacity="0.200000" points="762.9,-438.6 765,-444.6 767.1,-438.6 762.9,-438.6"/>
</g>
<!-- options&#45;used.mjs&#45;&gt;options.mjs -->
<g id="edge27" class="edge">
<title>options&#45;used.mjs&#45;&gt;options.mjs</title>
<path fill="none" stroke="#000000" stroke-width="2" stroke-opacity="0.200000" d="M335.68,-404.25C372.33,-404.25 419,-404.25 419,-404.25 419,-404.25 419,-376.17 419,-376.17"/>
<polygon fill="#000000" fill-opacity="0.200000" stroke="#000000" stroke-width="2" stroke-opacity="0.200000" points="421.1,-376.17 419,-370.17 416.9,-376.17 421.1,-376.17"/>
</g>
<!-- options&#45;used.mjs&#45;&gt;dependency&#45;type.mjs -->
<g id="edge25" class="edge">
<title>options&#45;used.mjs&#45;&gt;dependency&#45;type.mjs</title>
<path fill="none" stroke="#000000" stroke-width="2" stroke-opacity="0.200000" d="M335.8,-406.42C434.96,-406.42 670,-406.42 670,-406.42 670,-406.42 670,-185 670,-185 670,-185 706.78,-185 706.78,-185"/>
<polygon fill="#000000" fill-opacity="0.200000" stroke="#000000" stroke-width="2" stroke-opacity="0.200000" points="706.78,-187.1 712.78,-185 706.78,-182.9 706.78,-187.1"/>
</g>
<!-- options&#45;used.mjs&#45;&gt;module&#45;systems&#45;type.mjs -->
<g id="edge26" class="edge">
<title>options&#45;used.mjs&#45;&gt;module&#45;systems&#45;type.mjs</title>
<path fill="none" stroke="#000000" stroke-width="2" stroke-opacity="0.200000" d="M335.72,-405.33C408.82,-405.33 549,-405.33 549,-405.33 549,-405.33 549,-226.11 549,-226.11"/>
<polygon fill="#000000" fill-opacity="0.200000" stroke="#000000" stroke-width="2" stroke-opacity="0.200000" points="551.1,-226.11 549,-220.11 546.9,-226.11 551.1,-226.11"/>
</g>
<!-- output&#45;type.mjs -->
<g id="node23" class="node">
<title>output&#45;type.mjs</title>
<g id="a_node23"><a xlink:href="https://github.com/sverweij/dependency-cruiser/blob/develop/tools/schema/output-type.mjs" xlink:title="output&#45;type.mjs">
<polygon fill="white" stroke="none" points="479,-462 400,-462 400,-444 479,-444 479,-462"/>
<polyline fill="none" stroke="black" points="400,-444 479,-444"/>
<text text-anchor="middle" x="439.5" y="-450.8" font-family="Helvetica,sans-Serif" font-size="9.00">output&#45;type.mjs</text>
</a>
</g>
</g>
<!-- options&#45;used.mjs&#45;&gt;output&#45;type.mjs -->
<g id="edge28" class="edge">
<title>options&#45;used.mjs&#45;&gt;output&#45;type.mjs</title>
<path fill="none" stroke="#000000" stroke-width="2" stroke-opacity="0.200000" d="M335.69,-411.83C375.68,-411.83 429,-411.83 429,-411.83 429,-411.83 429,-437.86 429,-437.86"/>
<polygon fill="#000000" fill-opacity="0.200000" stroke="#000000" stroke-width="2" stroke-opacity="0.200000" points="426.9,-437.86 429,-443.86 431.1,-437.86 426.9,-437.86"/>
</g>
<!-- options&#45;used.mjs&#45;&gt;reporter&#45;options.mjs -->
<g id="edge29" class="edge">
<title>options&#45;used.mjs&#45;&gt;reporter&#45;options.mjs</title>
<path fill="none" stroke="#000000" stroke-width="2" stroke-opacity="0.200000" d="M307,-416.37C307,-421.44 307,-426.67 307,-426.67 307,-426.67 545.79,-426.67 545.79,-426.67"/>
<polygon fill="#000000" fill-opacity="0.200000" stroke="#000000" stroke-width="2" stroke-opacity="0.200000" points="545.79,-428.77 551.79,-426.67 545.79,-424.57 545.79,-428.77"/>
</g>
<!-- reporter&#45;options.mjs&#45;&gt;re&#45;as&#45;strings&#45;type.mjs -->
<g id="edge44" class="edge">
<title>reporter&#45;options.mjs&#45;&gt;re&#45;as&#45;strings&#45;type.mjs</title>
<path fill="none" stroke="#000000" stroke-width="2" stroke-opacity="0.200000" d="M577,-413.8C577,-410.47 577,-407.5 577,-407.5 577,-407.5 847.87,-407.5 847.87,-407.5"/>
<polygon fill="#000000" fill-opacity="0.200000" stroke="#000000" stroke-width="2" stroke-opacity="0.200000" points="847.87,-409.6 853.87,-407.5 847.87,-405.4 847.87,-409.6"/>
</g>
<!-- reporter&#45;options.mjs&#45;&gt;compound&#45;exclude&#45;type.mjs -->
<g id="edge40" class="edge">
<title>reporter&#45;options.mjs&#45;&gt;compound&#45;exclude&#45;type.mjs</title>
<path fill="none" stroke="#000000" stroke-width="2" stroke-opacity="0.200000" d="M601,-432.14C601,-448.59 601,-481.5 601,-481.5 601,-481.5 692.77,-481.5 692.77,-481.5"/>
<polygon fill="#000000" fill-opacity="0.200000" stroke="#000000" stroke-width="2" stroke-opacity="0.200000" points="692.77,-483.6 698.77,-481.5 692.77,-479.4 692.77,-483.6"/>
</g>
<!-- reporter&#45;options.mjs&#45;&gt;compound&#45;focus&#45;type.mjs -->
<g id="edge41" class="edge">
<title>reporter&#45;options.mjs&#45;&gt;compound&#45;focus&#45;type.mjs</title>
<path fill="none" stroke="#000000" stroke-width="2" stroke-opacity="0.200000" d="M626,-413.9C626,-405.48 626,-394.25 626,-394.25 626,-394.25 697.63,-394.25 697.63,-394.25"/>
<polygon fill="#000000" fill-opacity="0.200000" stroke="#000000" stroke-width="2" stroke-opacity="0.200000" points="697.63,-396.35 703.63,-394.25 697.63,-392.15 697.63,-396.35"/>
</g>
<!-- reporter&#45;options.mjs&#45;&gt;compound&#45;include&#45;only&#45;type.mjs -->
<g id="edge42" class="edge">
<title>reporter&#45;options.mjs&#45;&gt;compound&#45;include&#45;only&#45;type.mjs</title>
<path fill="none" stroke="#000000" stroke-width="2" stroke-opacity="0.200000" d="M650.23,-424C672.11,-424 693,-424 693,-424 693,-424 693,-438.84 693,-438.84"/>
<polygon fill="#000000" fill-opacity="0.200000" stroke="#000000" stroke-width="2" stroke-opacity="0.200000" points="690.9,-438.84 693,-444.84 695.1,-438.84 690.9,-438.84"/>
</g>
<!-- reporter&#45;options.mjs&#45;&gt;compound&#45;reaches&#45;type.mjs -->
<g id="edge43" class="edge">
<title>reporter&#45;options.mjs&#45;&gt;compound&#45;reaches&#45;type.mjs</title>
<path fill="none" stroke="#000000" stroke-width="2" stroke-opacity="0.200000" d="M601,-413.77C601,-397.9 601,-367.11 601,-367.11 601,-367.11 692.29,-367.11 692.29,-367.11"/>
<polygon fill="#000000" fill-opacity="0.200000" stroke="#000000" stroke-width="2" stroke-opacity="0.200000" points="692.29,-369.21 698.29,-367.11 692.29,-365.01 692.29,-369.21"/>
</g>
<!-- restrictions.mjs&#45;&gt;re&#45;as&#45;strings&#45;type.mjs -->
<g id="edge46" class="edge">
<title>restrictions.mjs&#45;&gt;re&#45;as&#45;strings&#45;type.mjs</title>
<path fill="none" stroke="#000000" stroke-width="2" stroke-opacity="0.200000" d="M639.82,-179C652.79,-179 664,-179 664,-179 664,-179 664,-402.08 664,-402.08 664,-402.08 847.79,-402.08 847.79,-402.08"/>
<polygon fill="#000000" fill-opacity="0.200000" stroke="#000000" stroke-width="2" stroke-opacity="0.200000" points="847.79,-404.18 853.79,-402.08 847.79,-399.98 847.79,-404.18"/>
</g>
<!-- restrictions.mjs&#45;&gt;dependency&#45;type.mjs -->
<g id="edge45" class="edge">
<title>restrictions.mjs&#45;&gt;dependency&#45;type.mjs</title>
<path fill="none" stroke="#000000" stroke-width="2" stroke-opacity="0.200000" d="M639.87,-176C639.87,-176 706.76,-176 706.76,-176"/>
<polygon fill="#000000" fill-opacity="0.200000" stroke="#000000" stroke-width="2" stroke-opacity="0.200000" points="706.76,-178.1 712.76,-176 706.76,-173.9 706.76,-178.1"/>
</g>
</g>
</svg>
