<?xml version="1.0" encoding="UTF-8" standalone="no"?>
<!DOCTYPE svg PUBLIC "-//W3C//DTD SVG 1.1//EN"
 "http://www.w3.org/Graphics/SVG/1.1/DTD/svg11.dtd">
<!-- Generated by graphviz version 2.47.1 (20210417.1919)
 -->
<!-- Title: dependency&#45;cruiser output Pages: 1 -->
<svg width="913pt" height="421pt"
 viewBox="0.00 0.00 913.00 421.00" xmlns="http://www.w3.org/2000/svg" xmlns:xlink="http://www.w3.org/1999/xlink">
<g id="graph0" class="graph" transform="scale(1 1) rotate(0) translate(4 417)">
<title>dependency&#45;cruiser output</title>
<polygon fill="white" stroke="transparent" points="-4,4 -4,-417 909,-417 909,4 -4,4"/>
<!-- compound&#45;donot&#45;follow&#45;type.mjs -->
<g id="node1" class="node">
<title>compound&#45;donot&#45;follow&#45;type.mjs</title>
<g id="a_node1"><a xlink:href="https://github.com/sverweij/dependency-cruiser/blob/develop/tools/schema/compound-donot-follow-type.mjs" xlink:title="compound&#45;donot&#45;follow&#45;type.mjs">
<polygon fill="white" stroke="transparent" points="623,-292 473,-292 473,-274 623,-274 623,-292"/>
<polyline fill="none" stroke="black" points="473,-274 623,-274 "/>
<text text-anchor="middle" x="548" y="-280.8" font-family="Helvetica,sans-Serif" font-size="9.00">compound&#45;donot&#45;follow&#45;type.mjs</text>
</a>
</g>
</g>
<!-- re&#45;as&#45;strings&#45;type.mjs -->
<g id="node2" class="node">
<title>re&#45;as&#45;strings&#45;type.mjs</title>
<g id="a_node2"><a xlink:href="https://github.com/sverweij/dependency-cruiser/blob/develop/tools/schema/re-as-strings-type.mjs" xlink:title="re&#45;as&#45;strings&#45;type.mjs">
<polygon fill="white" stroke="transparent" points="905,-108 801,-108 801,-90 905,-90 905,-108"/>
<polyline fill="none" stroke="black" points="801,-90 905,-90 "/>
<text text-anchor="middle" x="853" y="-96.8" font-family="Helvetica,sans-Serif" font-size="9.00">re&#45;as&#45;strings&#45;type.mjs</text>
</a>
</g>
</g>
<!-- compound&#45;donot&#45;follow&#45;type.mjs&#45;&gt;re&#45;as&#45;strings&#45;type.mjs -->
<g id="edge1" class="edge">
<title>compound&#45;donot&#45;follow&#45;type.mjs&#45;&gt;re&#45;as&#45;strings&#45;type.mjs</title>
<path fill="none" stroke="#000000" stroke-width="2" stroke-opacity="0.200000" d="M623.32,-283C718.77,-283 871,-283 871,-283 871,-283 871,-114.12 871,-114.12"/>
<polygon fill="#000000" fill-opacity="0.200000" stroke="#000000" stroke-width="2" stroke-opacity="0.200000" points="873.1,-114.12 871,-108.12 868.9,-114.12 873.1,-114.12"/>
</g>
<!-- compound&#45;exclude&#45;type.mjs -->
<g id="node3" class="node">
<title>compound&#45;exclude&#45;type.mjs</title>
<g id="a_node3"><a xlink:href="https://github.com/sverweij/dependency-cruiser/blob/develop/tools/schema/compound-exclude-type.mjs" xlink:title="compound&#45;exclude&#45;type.mjs">
<polygon fill="white" stroke="transparent" points="778,-202 646,-202 646,-184 778,-184 778,-202"/>
<polyline fill="none" stroke="black" points="646,-184 778,-184 "/>
<text text-anchor="middle" x="712" y="-190.8" font-family="Helvetica,sans-Serif" font-size="9.00">compound&#45;exclude&#45;type.mjs</text>
</a>
</g>
</g>
<!-- compound&#45;exclude&#45;type.mjs&#45;&gt;re&#45;as&#45;strings&#45;type.mjs -->
<g id="edge2" class="edge">
<title>compound&#45;exclude&#45;type.mjs&#45;&gt;re&#45;as&#45;strings&#45;type.mjs</title>
<path fill="none" stroke="#000000" stroke-width="2" stroke-opacity="0.200000" d="M778.36,-193C807.84,-193 836,-193 836,-193 836,-193 836,-114.01 836,-114.01"/>
<polygon fill="#000000" fill-opacity="0.200000" stroke="#000000" stroke-width="2" stroke-opacity="0.200000" points="838.1,-114.01 836,-108.01 833.9,-114.01 838.1,-114.01"/>
</g>
<!-- compound&#45;focus&#45;type.mjs -->
<g id="node4" class="node">
<title>compound&#45;focus&#45;type.mjs</title>
<g id="a_node4"><a xlink:href="https://github.com/sverweij/dependency-cruiser/blob/develop/tools/schema/compound-focus-type.mjs" xlink:title="compound&#45;focus&#45;type.mjs">
<polygon fill="white" stroke="transparent" points="773,-108 651,-108 651,-90 773,-90 773,-108"/>
<polyline fill="none" stroke="black" points="651,-90 773,-90 "/>
<text text-anchor="middle" x="712" y="-96.8" font-family="Helvetica,sans-Serif" font-size="9.00">compound&#45;focus&#45;type.mjs</text>
</a>
</g>
</g>
<!-- compound&#45;focus&#45;type.mjs&#45;&gt;re&#45;as&#45;strings&#45;type.mjs -->
<g id="edge3" class="edge">
<title>compound&#45;focus&#45;type.mjs&#45;&gt;re&#45;as&#45;strings&#45;type.mjs</title>
<path fill="none" stroke="#000000" stroke-width="2" stroke-opacity="0.200000" d="M773.02,-102C773.02,-102 794.73,-102 794.73,-102"/>
<polygon fill="#000000" fill-opacity="0.200000" stroke="#000000" stroke-width="2" stroke-opacity="0.200000" points="794.73,-104.1 800.73,-102 794.73,-99.9 794.73,-104.1"/>
</g>
<!-- compound&#45;include&#45;only&#45;type.mjs -->
<g id="node5" class="node">
<title>compound&#45;include&#45;only&#45;type.mjs</title>
<g id="a_node5"><a xlink:href="https://github.com/sverweij/dependency-cruiser/blob/develop/tools/schema/compound-include-only-type.mjs" xlink:title="compound&#45;include&#45;only&#45;type.mjs">
<polygon fill="white" stroke="transparent" points="787,-69 637,-69 637,-51 787,-51 787,-69"/>
<polyline fill="none" stroke="black" points="637,-51 787,-51 "/>
<text text-anchor="middle" x="712" y="-57.8" font-family="Helvetica,sans-Serif" font-size="9.00">compound&#45;include&#45;only&#45;type.mjs</text>
</a>
</g>
</g>
<!-- compound&#45;include&#45;only&#45;type.mjs&#45;&gt;re&#45;as&#45;strings&#45;type.mjs -->
<g id="edge4" class="edge">
<title>compound&#45;include&#45;only&#45;type.mjs&#45;&gt;re&#45;as&#45;strings&#45;type.mjs</title>
<path fill="none" stroke="#000000" stroke-width="2" stroke-opacity="0.200000" d="M783,-69.08C783,-79.75 783,-96 783,-96 783,-96 794.66,-96 794.66,-96"/>
<polygon fill="#000000" fill-opacity="0.200000" stroke="#000000" stroke-width="2" stroke-opacity="0.200000" points="794.66,-98.1 800.66,-96 794.66,-93.9 794.66,-98.1"/>
</g>
<!-- configuration.schema.mjs -->
<g id="node6" class="node">
<title>configuration.schema.mjs</title>
<g id="a_node6"><a xlink:href="https://github.com/sverweij/dependency-cruiser/blob/develop/tools/schema/configuration.schema.mjs" xlink:title="configuration.schema.mjs">
<path fill="darkgreen" stroke="darkgreen" d="M247,-86C247,-86 138,-86 138,-86 135,-86 132,-83 132,-80 132,-80 132,-74 132,-74 132,-71 135,-68 138,-68 138,-68 247,-68 247,-68 250,-68 253,-71 253,-74 253,-74 253,-80 253,-80 253,-83 250,-86 247,-86"/>
<text text-anchor="middle" x="192.5" y="-74.8" font-family="Helvetica,sans-Serif" font-size="9.00" fill="#ffffcc">configuration.schema.mjs</text>
</a>
</g>
</g>
<!-- options.mjs -->
<g id="node7" class="node">
<title>options.mjs</title>
<g id="a_node7"><a xlink:href="https://github.com/sverweij/dependency-cruiser/blob/develop/tools/schema/options.mjs" xlink:title="options.mjs">
<path fill="#ffffcc" stroke="black" d="M438.5,-109C438.5,-109 387.5,-109 387.5,-109 384.5,-109 381.5,-106 381.5,-103 381.5,-103 381.5,-97 381.5,-97 381.5,-94 384.5,-91 387.5,-91 387.5,-91 438.5,-91 438.5,-91 441.5,-91 444.5,-94 444.5,-97 444.5,-97 444.5,-103 444.5,-103 444.5,-106 441.5,-109 438.5,-109"/>
<text text-anchor="middle" x="413" y="-97.8" font-family="Helvetica,sans-Serif" font-size="9.00">options.mjs</text>
</a>
</g>
</g>
<!-- configuration.schema.mjs&#45;&gt;options.mjs -->
<g id="edge5" class="edge">
<title>configuration.schema.mjs&#45;&gt;options.mjs</title>
<path fill="none" stroke="#000000" stroke-width="2" stroke-opacity="0.200000" d="M241,-86.06C241,-91.36 241,-97 241,-97 241,-97 375.45,-97 375.45,-97"/>
<polygon fill="#000000" fill-opacity="0.200000" stroke="#000000" stroke-width="2" stroke-opacity="0.200000" points="375.45,-99.1 381.45,-97 375.45,-94.9 375.45,-99.1"/>
</g>
<!-- rule&#45;set.mjs -->
<g id="node8" class="node">
<title>rule&#45;set.mjs</title>
<g id="a_node8"><a xlink:href="https://github.com/sverweij/dependency-cruiser/blob/develop/tools/schema/rule-set.mjs" xlink:title="rule&#45;set.mjs">
<path fill="#ffffcc" stroke="black" d="M336,-55C336,-55 284,-55 284,-55 281,-55 278,-52 278,-49 278,-49 278,-43 278,-43 278,-40 281,-37 284,-37 284,-37 336,-37 336,-37 339,-37 342,-40 342,-43 342,-43 342,-49 342,-49 342,-52 339,-55 336,-55"/>
<text text-anchor="middle" x="310" y="-43.8" font-family="Helvetica,sans-Serif" font-size="9.00">rule&#45;set.mjs</text>
</a>
</g>
</g>
<!-- configuration.schema.mjs&#45;&gt;rule&#45;set.mjs -->
<g id="edge6" class="edge">
<title>configuration.schema.mjs&#45;&gt;rule&#45;set.mjs</title>
<path fill="none" stroke="#000000" stroke-width="2" stroke-opacity="0.200000" d="M253.01,-80.33C274.75,-80.33 294,-80.33 294,-80.33 294,-80.33 294,-61.02 294,-61.02"/>
<polygon fill="#000000" fill-opacity="0.200000" stroke="#000000" stroke-width="2" stroke-opacity="0.200000" points="296.1,-61.02 294,-55.02 291.9,-61.02 296.1,-61.02"/>
</g>
<!-- options.mjs&#45;&gt;compound&#45;donot&#45;follow&#45;type.mjs -->
<g id="edge25" class="edge">
<title>options.mjs&#45;&gt;compound&#45;donot&#45;follow&#45;type.mjs</title>
<path fill="none" stroke="#000000" stroke-width="2" stroke-opacity="0.200000" d="M444.61,-104.22C462.37,-104.22 481,-104.22 481,-104.22 481,-104.22 481,-267.89 481,-267.89"/>
<polygon fill="#000000" fill-opacity="0.200000" stroke="#000000" stroke-width="2" stroke-opacity="0.200000" points="478.9,-267.89 481,-273.89 483.1,-267.89 478.9,-267.89"/>
</g>
<!-- options.mjs&#45;&gt;re&#45;as&#45;strings&#45;type.mjs -->
<g id="edge31" class="edge">
<title>options.mjs&#45;&gt;re&#45;as&#45;strings&#45;type.mjs</title>
<path fill="none" stroke="#000000" stroke-width="2" stroke-opacity="0.200000" d="M413,-90.85C413,-83.6 413,-74.67 413,-74.67 413,-74.67 827,-74.67 827,-74.67 827,-74.67 827,-83.94 827,-83.94"/>
<polygon fill="#000000" fill-opacity="0.200000" stroke="#000000" stroke-width="2" stroke-opacity="0.200000" points="824.9,-83.94 827,-89.94 829.1,-83.94 824.9,-83.94"/>
</g>
<!-- options.mjs&#45;&gt;compound&#45;exclude&#45;type.mjs -->
<g id="edge26" class="edge">
<title>options.mjs&#45;&gt;compound&#45;exclude&#45;type.mjs</title>
<path fill="none" stroke="#000000" stroke-width="2" stroke-opacity="0.200000" d="M444.69,-100.44C501.09,-100.44 613,-100.44 613,-100.44 613,-100.44 613,-192 613,-192 613,-192 639.97,-192 639.97,-192"/>
<polygon fill="#000000" fill-opacity="0.200000" stroke="#000000" stroke-width="2" stroke-opacity="0.200000" points="639.97,-194.1 645.97,-192 639.97,-189.9 639.97,-194.1"/>
</g>
<!-- options.mjs&#45;&gt;compound&#45;focus&#45;type.mjs -->
<g id="edge27" class="edge">
<title>options.mjs&#45;&gt;compound&#45;focus&#45;type.mjs</title>
<path fill="none" stroke="#000000" stroke-width="2" stroke-opacity="0.200000" d="M444.72,-98.56C444.72,-98.56 644.92,-98.56 644.92,-98.56"/>
<polygon fill="#000000" fill-opacity="0.200000" stroke="#000000" stroke-width="2" stroke-opacity="0.200000" points="644.92,-100.66 650.92,-98.56 644.92,-96.46 644.92,-100.66"/>
</g>
<!-- options.mjs&#45;&gt;compound&#45;include&#45;only&#45;type.mjs -->
<g id="edge28" class="edge">
<title>options.mjs&#45;&gt;compound&#45;include&#45;only&#45;type.mjs</title>
<path fill="none" stroke="#000000" stroke-width="2" stroke-opacity="0.200000" d="M444.56,-96.67C506.94,-96.67 640,-96.67 640,-96.67 640,-96.67 640,-75.25 640,-75.25"/>
<polygon fill="#000000" fill-opacity="0.200000" stroke="#000000" stroke-width="2" stroke-opacity="0.200000" points="642.1,-75.25 640,-69.25 637.9,-75.25 642.1,-75.25"/>
</g>
<!-- dependency&#45;type.mjs -->
<g id="node13" class="node">
<title>dependency&#45;type.mjs</title>
<g id="a_node13"><a xlink:href="https://github.com/sverweij/dependency-cruiser/blob/develop/tools/schema/dependency-type.mjs" xlink:title="dependency&#45;type.mjs">
<polygon fill="white" stroke="transparent" points="600,-386 496,-386 496,-368 600,-368 600,-386"/>
<polyline fill="none" stroke="black" points="496,-368 600,-368 "/>
<text text-anchor="middle" x="548" y="-374.8" font-family="Helvetica,sans-Serif" font-size="9.00">dependency&#45;type.mjs</text>
</a>
</g>
</g>
<!-- options.mjs&#45;&gt;dependency&#45;type.mjs -->
<g id="edge29" class="edge">
<title>options.mjs&#45;&gt;dependency&#45;type.mjs</title>
<path fill="none" stroke="#000000" stroke-width="2" stroke-opacity="0.200000" d="M444.72,-106.11C455.09,-106.11 464,-106.11 464,-106.11 464,-106.11 464,-375.2 464,-375.2 464,-375.2 489.76,-375.2 489.76,-375.2"/>
<polygon fill="#000000" fill-opacity="0.200000" stroke="#000000" stroke-width="2" stroke-opacity="0.200000" points="489.76,-377.3 495.76,-375.2 489.76,-373.1 489.76,-377.3"/>
</g>
<!-- module&#45;systems&#45;type.mjs -->
<g id="node16" class="node">
<title>module&#45;systems&#45;type.mjs</title>
<g id="a_node16"><a xlink:href="https://github.com/sverweij/dependency-cruiser/blob/develop/tools/schema/module-systems-type.mjs" xlink:title="module&#45;systems&#45;type.mjs">
<polygon fill="white" stroke="transparent" points="608,-200 488,-200 488,-182 608,-182 608,-200"/>
<polyline fill="none" stroke="black" points="488,-182 608,-182 "/>
<text text-anchor="middle" x="548" y="-188.8" font-family="Helvetica,sans-Serif" font-size="9.00">module&#45;systems&#45;type.mjs</text>
</a>
</g>
</g>
<!-- options.mjs&#45;&gt;module&#45;systems&#45;type.mjs -->
<g id="edge30" class="edge">
<title>options.mjs&#45;&gt;module&#45;systems&#45;type.mjs</title>
<path fill="none" stroke="#000000" stroke-width="2" stroke-opacity="0.200000" d="M444.85,-102.33C468.26,-102.33 496,-102.33 496,-102.33 496,-102.33 496,-175.85 496,-175.85"/>
<polygon fill="#000000" fill-opacity="0.200000" stroke="#000000" stroke-width="2" stroke-opacity="0.200000" points="493.9,-175.85 496,-181.85 498.1,-175.85 493.9,-175.85"/>
</g>
<!-- reporter&#45;options.mjs -->
<g id="node19" class="node">
<title>reporter&#45;options.mjs</title>
<g id="a_node19"><a xlink:href="https://github.com/sverweij/dependency-cruiser/blob/develop/tools/schema/reporter-options.mjs" xlink:title="reporter&#45;options.mjs">
<path fill="#ffffcc" stroke="black" d="M591,-18C591,-18 505,-18 505,-18 502,-18 499,-15 499,-12 499,-12 499,-6 499,-6 499,-3 502,0 505,0 505,0 591,0 591,0 594,0 597,-3 597,-6 597,-6 597,-12 597,-12 597,-15 594,-18 591,-18"/>
<text text-anchor="middle" x="548" y="-6.8" font-family="Helvetica,sans-Serif" font-size="9.00">reporter&#45;options.mjs</text>
</a>
</g>
</g>
<!-- options.mjs&#45;&gt;reporter&#45;options.mjs -->
<g id="edge32" class="edge">
<title>options.mjs&#45;&gt;reporter&#45;options.mjs</title>
<path fill="none" stroke="#000000" stroke-width="2" stroke-opacity="0.200000" d="M444.51,-94.78C477.33,-94.78 524,-94.78 524,-94.78 524,-94.78 524,-24.18 524,-24.18"/>
<polygon fill="#000000" fill-opacity="0.200000" stroke="#000000" stroke-width="2" stroke-opacity="0.200000" points="526.1,-24.18 524,-18.18 521.9,-24.18 526.1,-24.18"/>
</g>
<!-- restrictions.mjs -->
<g id="node20" class="node">
<title>restrictions.mjs</title>
<g id="a_node20"><a xlink:href="https://github.com/sverweij/dependency-cruiser/blob/develop/tools/schema/restrictions.mjs" xlink:title="restrictions.mjs">
<path fill="#ffffcc" stroke="black" d="M445.5,-47C445.5,-47 380.5,-47 380.5,-47 377.5,-47 374.5,-44 374.5,-41 374.5,-41 374.5,-35 374.5,-35 374.5,-32 377.5,-29 380.5,-29 380.5,-29 445.5,-29 445.5,-29 448.5,-29 451.5,-32 451.5,-35 451.5,-35 451.5,-41 451.5,-41 451.5,-44 448.5,-47 445.5,-47"/>
<text text-anchor="middle" x="413" y="-35.8" font-family="Helvetica,sans-Serif" font-size="9.00">restrictions.mjs</text>
</a>
</g>
</g>
<!-- rule&#45;set.mjs&#45;&gt;restrictions.mjs -->
<g id="edge39" class="edge">
<title>rule&#45;set.mjs&#45;&gt;restrictions.mjs</title>
<path fill="none" stroke="#000000" stroke-width="2" stroke-opacity="0.200000" d="M342.03,-42C342.03,-42 368.48,-42 368.48,-42"/>
<polygon fill="#000000" fill-opacity="0.200000" stroke="#000000" stroke-width="2" stroke-opacity="0.200000" points="368.48,-44.1 374.48,-42 368.48,-39.9 368.48,-44.1"/>
</g>
<!-- severity&#45;type.mjs -->
<g id="node21" class="node">
<title>severity&#45;type.mjs</title>
<g id="a_node21"><a xlink:href="https://github.com/sverweij/dependency-cruiser/blob/develop/tools/schema/severity-type.mjs" xlink:title="severity&#45;type.mjs">
<polygon fill="white" stroke="transparent" points="754.5,-170 669.5,-170 669.5,-152 754.5,-152 754.5,-170"/>
<polyline fill="none" stroke="black" points="669.5,-152 754.5,-152 "/>
<text text-anchor="middle" x="712" y="-158.8" font-family="Helvetica,sans-Serif" font-size="9.00">severity&#45;type.mjs</text>
</a>
</g>
</g>
<!-- rule&#45;set.mjs&#45;&gt;severity&#45;type.mjs -->
<g id="edge40" class="edge">
<title>rule&#45;set.mjs&#45;&gt;severity&#45;type.mjs</title>
<path fill="none" stroke="#000000" stroke-width="2" stroke-opacity="0.200000" d="M326,-55.17C326,-81.91 326,-158 326,-158 326,-158 663.22,-158 663.22,-158"/>
<polygon fill="#000000" fill-opacity="0.200000" stroke="#000000" stroke-width="2" stroke-opacity="0.200000" points="663.22,-160.1 669.22,-158 663.22,-155.9 663.22,-160.1"/>
</g>
<!-- cruise&#45;result.schema.mjs -->
<g id="node9" class="node">
<title>cruise&#45;result.schema.mjs</title>
<g id="a_node9"><a xlink:href="https://github.com/sverweij/dependency-cruiser/blob/develop/tools/schema/cruise-result.schema.mjs" xlink:title="cruise&#45;result.schema.mjs">
<path fill="darkgreen" stroke="darkgreen" d="M112,-246C112,-246 6,-246 6,-246 3,-246 0,-243 0,-240 0,-240 0,-234 0,-234 0,-231 3,-228 6,-228 6,-228 112,-228 112,-228 115,-228 118,-231 118,-234 118,-234 118,-240 118,-240 118,-243 115,-246 112,-246"/>
<text text-anchor="middle" x="59" y="-234.8" font-family="Helvetica,sans-Serif" font-size="9.00" fill="#ffffcc">cruise&#45;result.schema.mjs</text>
</a>
</g>
</g>
<!-- modules.mjs -->
<g id="node10" class="node">
<title>modules.mjs</title>
<g id="a_node10"><a xlink:href="https://github.com/sverweij/dependency-cruiser/blob/develop/tools/schema/modules.mjs" xlink:title="modules.mjs">
<path fill="#ffffcc" stroke="black" d="M338,-367C338,-367 282,-367 282,-367 279,-367 276,-364 276,-361 276,-361 276,-355 276,-355 276,-352 279,-349 282,-349 282,-349 338,-349 338,-349 341,-349 344,-352 344,-355 344,-355 344,-361 344,-361 344,-364 341,-367 338,-367"/>
<text text-anchor="middle" x="310" y="-355.8" font-family="Helvetica,sans-Serif" font-size="9.00">modules.mjs</text>
</a>
</g>
</g>
<!-- cruise&#45;result.schema.mjs&#45;&gt;modules.mjs -->
<g id="edge7" class="edge">
<title>cruise&#45;result.schema.mjs&#45;&gt;modules.mjs</title>
<path fill="none" stroke="#000000" stroke-width="2" stroke-opacity="0.200000" d="M118.02,-240C189.08,-240 299,-240 299,-240 299,-240 299,-342.74 299,-342.74"/>
<polygon fill="#000000" fill-opacity="0.200000" stroke="#000000" stroke-width="2" stroke-opacity="0.200000" points="296.9,-342.74 299,-348.74 301.1,-342.74 296.9,-342.74"/>
</g>
<!-- summary.mjs -->
<g id="node11" class="node">
<title>summary.mjs</title>
<g id="a_node11"><a xlink:href="https://github.com/sverweij/dependency-cruiser/blob/develop/tools/schema/summary.mjs" xlink:title="summary.mjs">
<path fill="#ffffcc" stroke="black" d="M222,-201C222,-201 163,-201 163,-201 160,-201 157,-198 157,-195 157,-195 157,-189 157,-189 157,-186 160,-183 163,-183 163,-183 222,-183 222,-183 225,-183 228,-186 228,-189 228,-189 228,-195 228,-195 228,-198 225,-201 222,-201"/>
<text text-anchor="middle" x="192.5" y="-189.8" font-family="Helvetica,sans-Serif" font-size="9.00">summary.mjs</text>
</a>
</g>
</g>
<!-- cruise&#45;result.schema.mjs&#45;&gt;summary.mjs -->
<g id="edge8" class="edge">
<title>cruise&#45;result.schema.mjs&#45;&gt;summary.mjs</title>
<path fill="none" stroke="#000000" stroke-width="2" stroke-opacity="0.200000" d="M118.16,-234C154.06,-234 193,-234 193,-234 193,-234 193,-207.32 193,-207.32"/>
<polygon fill="#000000" fill-opacity="0.200000" stroke="#000000" stroke-width="2" stroke-opacity="0.200000" points="195.1,-207.32 193,-201.32 190.9,-207.32 195.1,-207.32"/>
</g>
<!-- dependencies.mjs -->
<g id="node12" class="node">
<title>dependencies.mjs</title>
<g id="a_node12"><a xlink:href="https://github.com/sverweij/dependency-cruiser/blob/develop/tools/schema/dependencies.mjs" xlink:title="dependencies.mjs">
<path fill="#ffffcc" stroke="black" d="M453,-413C453,-413 373,-413 373,-413 370,-413 367,-410 367,-407 367,-407 367,-401 367,-401 367,-398 370,-395 373,-395 373,-395 453,-395 453,-395 456,-395 459,-398 459,-401 459,-401 459,-407 459,-407 459,-410 456,-413 453,-413"/>
<text text-anchor="middle" x="413" y="-401.8" font-family="Helvetica,sans-Serif" font-size="9.00">dependencies.mjs</text>
</a>
</g>
</g>
<!-- modules.mjs&#45;&gt;dependencies.mjs -->
<g id="edge13" class="edge">
<title>modules.mjs&#45;&gt;dependencies.mjs</title>
<path fill="none" stroke="#000000" stroke-width="2" stroke-opacity="0.200000" d="M310,-367.31C310,-380.75 310,-404 310,-404 310,-404 360.92,-404 360.92,-404"/>
<polygon fill="#000000" fill-opacity="0.200000" stroke="#000000" stroke-width="2" stroke-opacity="0.200000" points="360.92,-406.1 366.92,-404 360.92,-401.9 360.92,-406.1"/>
</g>
<!-- modules.mjs&#45;&gt;dependency&#45;type.mjs -->
<g id="edge14" class="edge">
<title>modules.mjs&#45;&gt;dependency&#45;type.mjs</title>
<path fill="none" stroke="#000000" stroke-width="2" stroke-opacity="0.200000" d="M344.41,-358C399.16,-358 500,-358 500,-358 500,-358 500,-361.95 500,-361.95"/>
<polygon fill="#000000" fill-opacity="0.200000" stroke="#000000" stroke-width="2" stroke-opacity="0.200000" points="497.9,-361.95 500,-367.95 502.1,-361.95 497.9,-361.95"/>
</g>
<!-- rule&#45;summary.mjs -->
<g id="node15" class="node">
<title>rule&#45;summary.mjs</title>
<g id="a_node15"><a xlink:href="https://github.com/sverweij/dependency-cruiser/blob/develop/tools/schema/rule-summary.mjs" xlink:title="rule&#45;summary.mjs">
<path fill="#ffffcc" stroke="black" d="M586.5,-324C586.5,-324 509.5,-324 509.5,-324 506.5,-324 503.5,-321 503.5,-318 503.5,-318 503.5,-312 503.5,-312 503.5,-309 506.5,-306 509.5,-306 509.5,-306 586.5,-306 586.5,-306 589.5,-306 592.5,-309 592.5,-312 592.5,-312 592.5,-318 592.5,-318 592.5,-321 589.5,-324 586.5,-324"/>
<text text-anchor="middle" x="548" y="-312.8" font-family="Helvetica,sans-Serif" font-size="9.00">rule&#45;summary.mjs</text>
</a>
</g>
</g>
<!-- modules.mjs&#45;&gt;rule&#45;summary.mjs -->
<g id="edge15" class="edge">
<title>modules.mjs&#45;&gt;rule&#45;summary.mjs</title>
<path fill="none" stroke="#000000" stroke-width="2" stroke-opacity="0.200000" d="M322,-348.69C322,-335.25 322,-312 322,-312 322,-312 497.35,-312 497.35,-312"/>
<polygon fill="#000000" fill-opacity="0.200000" stroke="#000000" stroke-width="2" stroke-opacity="0.200000" points="497.35,-314.1 503.35,-312 497.35,-309.9 497.35,-314.1"/>
</g>
<!-- summary.mjs&#45;&gt;rule&#45;set.mjs -->
<g id="edge43" class="edge">
<title>summary.mjs&#45;&gt;rule&#45;set.mjs</title>
<path fill="none" stroke="#000000" stroke-width="2" stroke-opacity="0.200000" d="M228.23,-189C244.42,-189 260,-189 260,-189 260,-189 260,-46 260,-46 260,-46 271.77,-46 271.77,-46"/>
<polygon fill="#000000" fill-opacity="0.200000" stroke="#000000" stroke-width="2" stroke-opacity="0.200000" points="271.77,-48.1 277.77,-46 271.77,-43.9 271.77,-48.1"/>
</g>
<!-- options&#45;used.mjs -->
<g id="node17" class="node">
<title>options&#45;used.mjs</title>
<g id="a_node17"><a xlink:href="https://github.com/sverweij/dependency-cruiser/blob/develop/tools/schema/options-used.mjs" xlink:title="options&#45;used.mjs">
<path fill="#ffffcc" stroke="black" d="M347,-201C347,-201 273,-201 273,-201 270,-201 267,-198 267,-195 267,-195 267,-189 267,-189 267,-186 270,-183 273,-183 273,-183 347,-183 347,-183 350,-183 353,-186 353,-189 353,-189 353,-195 353,-195 353,-198 350,-201 347,-201"/>
<text text-anchor="middle" x="310" y="-189.8" font-family="Helvetica,sans-Serif" font-size="9.00">options&#45;used.mjs</text>
</a>
</g>
</g>
<!-- summary.mjs&#45;&gt;options&#45;used.mjs -->
<g id="edge42" class="edge">
<title>summary.mjs&#45;&gt;options&#45;used.mjs</title>
<path fill="none" stroke="#000000" stroke-width="2" stroke-opacity="0.200000" d="M228.07,-195C228.07,-195 260.67,-195 260.67,-195"/>
<polygon fill="#000000" fill-opacity="0.200000" stroke="#000000" stroke-width="2" stroke-opacity="0.200000" points="260.67,-197.1 266.67,-195 260.67,-192.9 260.67,-197.1"/>
</g>
<!-- dependencies.mjs&#45;&gt;dependency&#45;type.mjs -->
<g id="edge9" class="edge">
<title>dependencies.mjs&#45;&gt;dependency&#45;type.mjs</title>
<path fill="none" stroke="#000000" stroke-width="2" stroke-opacity="0.200000" d="M427,-394.96C427,-389.05 427,-382.4 427,-382.4 427,-382.4 489.98,-382.4 489.98,-382.4"/>
<polygon fill="#000000" fill-opacity="0.200000" stroke="#000000" stroke-width="2" stroke-opacity="0.200000" points="489.98,-384.5 495.98,-382.4 489.98,-380.3 489.98,-384.5"/>
</g>
<!-- module&#45;system&#45;type.mjs -->
<g id="node14" class="node">
<title>module&#45;system&#45;type.mjs</title>
<g id="a_node14"><a xlink:href="https://github.com/sverweij/dependency-cruiser/blob/develop/tools/schema/module-system-type.mjs" xlink:title="module&#45;system&#45;type.mjs">
<polygon fill="white" stroke="transparent" points="770,-324 654,-324 654,-306 770,-306 770,-324"/>
<polyline fill="none" stroke="black" points="654,-306 770,-306 "/>
<text text-anchor="middle" x="712" y="-312.8" font-family="Helvetica,sans-Serif" font-size="9.00">module&#45;system&#45;type.mjs</text>
</a>
</g>
</g>
<!-- dependencies.mjs&#45;&gt;module&#45;system&#45;type.mjs -->
<g id="edge10" class="edge">
<title>dependencies.mjs&#45;&gt;module&#45;system&#45;type.mjs</title>
<path fill="none" stroke="#000000" stroke-width="2" stroke-opacity="0.200000" d="M459.06,-404C542.94,-404 712,-404 712,-404 712,-404 712,-330.19 712,-330.19"/>
<polygon fill="#000000" fill-opacity="0.200000" stroke="#000000" stroke-width="2" stroke-opacity="0.200000" points="714.1,-330.19 712,-324.19 709.9,-330.19 714.1,-330.19"/>
</g>
<!-- dependencies.mjs&#45;&gt;rule&#45;summary.mjs -->
<g id="edge11" class="edge">
<title>dependencies.mjs&#45;&gt;rule&#45;summary.mjs</title>
<path fill="none" stroke="#000000" stroke-width="2" stroke-opacity="0.200000" d="M400,-394.8C400,-372.61 400,-318 400,-318 400,-318 497.19,-318 497.19,-318"/>
<polygon fill="#000000" fill-opacity="0.200000" stroke="#000000" stroke-width="2" stroke-opacity="0.200000" points="497.19,-320.1 503.19,-318 497.19,-315.9 497.19,-320.1"/>
</g>
<!-- rule&#45;summary.mjs&#45;&gt;severity&#45;type.mjs -->
<g id="edge41" class="edge">
<title>rule&#45;summary.mjs&#45;&gt;severity&#45;type.mjs</title>
<path fill="none" stroke="#000000" stroke-width="2" stroke-opacity="0.200000" d="M592.63,-312C617.7,-312 644,-312 644,-312 644,-312 644,-164 644,-164 644,-164 663.32,-164 663.32,-164"/>
<polygon fill="#000000" fill-opacity="0.200000" stroke="#000000" stroke-width="2" stroke-opacity="0.200000" points="663.32,-166.1 669.32,-164 663.32,-161.9 663.32,-166.1"/>
</g>
<!-- module&#45;systems&#45;type.mjs&#45;&gt;module&#45;system&#45;type.mjs -->
<g id="edge12" class="edge">
<title>module&#45;systems&#45;type.mjs&#45;&gt;module&#45;system&#45;type.mjs</title>
<path fill="none" stroke="#000000" stroke-width="2" stroke-opacity="0.200000" d="M608.06,-196C626.49,-196 642,-196 642,-196 642,-196 642,-318 642,-318 642,-318 647.87,-318 647.87,-318"/>
<polygon fill="#000000" fill-opacity="0.200000" stroke="#000000" stroke-width="2" stroke-opacity="0.200000" points="647.87,-320.1 653.87,-318 647.87,-315.9 647.87,-320.1"/>
</g>
<!-- options&#45;used.mjs&#45;&gt;compound&#45;donot&#45;follow&#45;type.mjs -->
<g id="edge16" class="edge">
<title>options&#45;used.mjs&#45;&gt;compound&#45;donot&#45;follow&#45;type.mjs</title>
<path fill="none" stroke="#000000" stroke-width="2" stroke-opacity="0.200000" d="M350,-201.06C350,-224.08 350,-283 350,-283 350,-283 466.86,-283 466.86,-283"/>
<polygon fill="#000000" fill-opacity="0.200000" stroke="#000000" stroke-width="2" stroke-opacity="0.200000" points="466.86,-285.1 472.86,-283 466.86,-280.9 466.86,-285.1"/>
</g>
<!-- options&#45;used.mjs&#45;&gt;compound&#45;exclude&#45;type.mjs -->
<g id="edge17" class="edge">
<title>options&#45;used.mjs&#45;&gt;compound&#45;exclude&#45;type.mjs</title>
<path fill="none" stroke="#000000" stroke-width="2" stroke-opacity="0.200000" d="M350,-182.88C350,-179.29 350,-176 350,-176 350,-176 664,-176 664,-176 664,-176 664,-177.7 664,-177.7"/>
<polygon fill="#000000" fill-opacity="0.200000" stroke="#000000" stroke-width="2" stroke-opacity="0.200000" points="661.9,-177.7 664,-183.7 666.1,-177.7 661.9,-177.7"/>
</g>
<!-- options&#45;used.mjs&#45;&gt;compound&#45;focus&#45;type.mjs -->
<g id="edge18" class="edge">
<title>options&#45;used.mjs&#45;&gt;compound&#45;focus&#45;type.mjs</title>
<path fill="none" stroke="#000000" stroke-width="2" stroke-opacity="0.200000" d="M348,-182.95C348,-178.05 348,-173 348,-173 348,-173 658,-173 658,-173 658,-173 658,-114.07 658,-114.07"/>
<polygon fill="#000000" fill-opacity="0.200000" stroke="#000000" stroke-width="2" stroke-opacity="0.200000" points="660.1,-114.07 658,-108.07 655.9,-114.07 660.1,-114.07"/>
</g>
<!-- options&#45;used.mjs&#45;&gt;compound&#45;include&#45;only&#45;type.mjs -->
<g id="edge19" class="edge">
<title>options&#45;used.mjs&#45;&gt;compound&#45;include&#45;only&#45;type.mjs</title>
<path fill="none" stroke="#000000" stroke-width="2" stroke-opacity="0.200000" d="M310,-182.77C310,-153.34 310,-63.67 310,-63.67 310,-63.67 630.86,-63.67 630.86,-63.67"/>
<polygon fill="#000000" fill-opacity="0.200000" stroke="#000000" stroke-width="2" stroke-opacity="0.200000" points="630.86,-65.77 636.86,-63.67 630.86,-61.57 630.86,-65.77"/>
</g>
<!-- options&#45;used.mjs&#45;&gt;options.mjs -->
<g id="edge22" class="edge">
<title>options&#45;used.mjs&#45;&gt;options.mjs</title>
<path fill="none" stroke="#000000" stroke-width="2" stroke-opacity="0.200000" d="M346,-182.81C346,-160.07 346,-103 346,-103 346,-103 375.46,-103 375.46,-103"/>
<polygon fill="#000000" fill-opacity="0.200000" stroke="#000000" stroke-width="2" stroke-opacity="0.200000" points="375.46,-105.1 381.46,-103 375.46,-100.9 375.46,-105.1"/>
</g>
<!-- options&#45;used.mjs&#45;&gt;dependency&#45;type.mjs -->
<g id="edge20" class="edge">
<title>options&#45;used.mjs&#45;&gt;dependency&#45;type.mjs</title>
<path fill="none" stroke="#000000" stroke-width="2" stroke-opacity="0.200000" d="M347,-201.01C347,-238.32 347,-378.8 347,-378.8 347,-378.8 489.98,-378.8 489.98,-378.8"/>
<polygon fill="#000000" fill-opacity="0.200000" stroke="#000000" stroke-width="2" stroke-opacity="0.200000" points="489.98,-380.9 495.98,-378.8 489.98,-376.7 489.98,-380.9"/>
</g>
<!-- options&#45;used.mjs&#45;&gt;module&#45;systems&#45;type.mjs -->
<g id="edge21" class="edge">
<title>options&#45;used.mjs&#45;&gt;module&#45;systems&#45;type.mjs</title>
<path fill="none" stroke="#000000" stroke-width="2" stroke-opacity="0.200000" d="M352,-182.83C352,-180.68 352,-179 352,-179 352,-179 492,-179 492,-179 492,-179 492,-179.28 492,-179.28"/>
<polygon fill="#000000" fill-opacity="0.200000" stroke="#000000" stroke-width="2" stroke-opacity="0.200000" points="489.9,-175.78 492,-181.78 494.1,-175.78 489.9,-175.78"/>
</g>
<!-- output&#45;type.mjs -->
<g id="node18" class="node">
<title>output&#45;type.mjs</title>
<g id="a_node18"><a xlink:href="https://github.com/sverweij/dependency-cruiser/blob/develop/tools/schema/output-type.mjs" xlink:title="output&#45;type.mjs">
<polygon fill="white" stroke="transparent" points="452.5,-201 373.5,-201 373.5,-183 452.5,-183 452.5,-201"/>
<polyline fill="none" stroke="black" points="373.5,-183 452.5,-183 "/>
<text text-anchor="middle" x="413" y="-189.8" font-family="Helvetica,sans-Serif" font-size="9.00">output&#45;type.mjs</text>
</a>
</g>
</g>
<!-- options&#45;used.mjs&#45;&gt;output&#45;type.mjs -->
<g id="edge23" class="edge">
<title>options&#45;used.mjs&#45;&gt;output&#45;type.mjs</title>
<path fill="none" stroke="#000000" stroke-width="2" stroke-opacity="0.200000" d="M353.08,-192C353.08,-192 367.38,-192 367.38,-192"/>
<polygon fill="#000000" fill-opacity="0.200000" stroke="#000000" stroke-width="2" stroke-opacity="0.200000" points="367.38,-194.1 373.38,-192 367.38,-189.9 367.38,-194.1"/>
</g>
<!-- options&#45;used.mjs&#45;&gt;reporter&#45;options.mjs -->
<g id="edge24" class="edge">
<title>options&#45;used.mjs&#45;&gt;reporter&#45;options.mjs</title>
<path fill="none" stroke="#000000" stroke-width="2" stroke-opacity="0.200000" d="M344,-182.93C344,-146 344,-9 344,-9 344,-9 492.88,-9 492.88,-9"/>
<polygon fill="#000000" fill-opacity="0.200000" stroke="#000000" stroke-width="2" stroke-opacity="0.200000" points="492.88,-11.1 498.88,-9 492.88,-6.9 492.88,-11.1"/>
</g>
<!-- reporter&#45;options.mjs&#45;&gt;re&#45;as&#45;strings&#45;type.mjs -->
<g id="edge36" class="edge">
<title>reporter&#45;options.mjs&#45;&gt;re&#45;as&#45;strings&#45;type.mjs</title>
<path fill="none" stroke="#000000" stroke-width="2" stroke-opacity="0.200000" d="M597.2,-6C689.4,-6 879,-6 879,-6 879,-6 879,-83.74 879,-83.74"/>
<polygon fill="#000000" fill-opacity="0.200000" stroke="#000000" stroke-width="2" stroke-opacity="0.200000" points="876.9,-83.74 879,-89.74 881.1,-83.74 876.9,-83.74"/>
</g>
<!-- reporter&#45;options.mjs&#45;&gt;compound&#45;exclude&#45;type.mjs -->
<g id="edge33" class="edge">
<title>reporter&#45;options.mjs&#45;&gt;compound&#45;exclude&#45;type.mjs</title>
<path fill="none" stroke="#000000" stroke-width="2" stroke-opacity="0.200000" d="M597.38,-12C608.96,-12 618,-12 618,-12 618,-12 618,-188 618,-188 618,-188 639.95,-188 639.95,-188"/>
<polygon fill="#000000" fill-opacity="0.200000" stroke="#000000" stroke-width="2" stroke-opacity="0.200000" points="639.95,-190.1 645.95,-188 639.95,-185.9 639.95,-190.1"/>
</g>
<!-- reporter&#45;options.mjs&#45;&gt;compound&#45;focus&#45;type.mjs -->
<g id="edge34" class="edge">
<title>reporter&#45;options.mjs&#45;&gt;compound&#45;focus&#45;type.mjs</title>
<path fill="none" stroke="#000000" stroke-width="2" stroke-opacity="0.200000" d="M548,-18.3C548,-40.14 548,-92.89 548,-92.89 548,-92.89 644.93,-92.89 644.93,-92.89"/>
<polygon fill="#000000" fill-opacity="0.200000" stroke="#000000" stroke-width="2" stroke-opacity="0.200000" points="644.93,-94.99 650.93,-92.89 644.93,-90.79 644.93,-94.99"/>
</g>
<!-- reporter&#45;options.mjs&#45;&gt;compound&#45;include&#45;only&#45;type.mjs -->
<g id="edge35" class="edge">
<title>reporter&#45;options.mjs&#45;&gt;compound&#45;include&#45;only&#45;type.mjs</title>
<path fill="none" stroke="#000000" stroke-width="2" stroke-opacity="0.200000" d="M573,-18.23C573,-32.76 573,-59.33 573,-59.33 573,-59.33 630.8,-59.33 630.8,-59.33"/>
<polygon fill="#000000" fill-opacity="0.200000" stroke="#000000" stroke-width="2" stroke-opacity="0.200000" points="630.8,-61.43 636.8,-59.33 630.8,-57.23 630.8,-61.43"/>
</g>
<!-- restrictions.mjs&#45;&gt;re&#45;as&#45;strings&#45;type.mjs -->
<g id="edge38" class="edge">
<title>restrictions.mjs&#45;&gt;re&#45;as&#45;strings&#45;type.mjs</title>
<path fill="none" stroke="#000000" stroke-width="2" stroke-opacity="0.200000" d="M451.66,-35C559.03,-35 853,-35 853,-35 853,-35 853,-83.83 853,-83.83"/>
<polygon fill="#000000" fill-opacity="0.200000" stroke="#000000" stroke-width="2" stroke-opacity="0.200000" points="850.9,-83.83 853,-89.83 855.1,-83.83 850.9,-83.83"/>
</g>
<!-- restrictions.mjs&#45;&gt;dependency&#45;type.mjs -->
<g id="edge37" class="edge">
<title>restrictions.mjs&#45;&gt;dependency&#45;type.mjs</title>
<path fill="none" stroke="#000000" stroke-width="2" stroke-opacity="0.200000" d="M451.59,-41C461.29,-41 469,-41 469,-41 469,-41 469,-371.6 469,-371.6 469,-371.6 489.75,-371.6 489.75,-371.6"/>
<polygon fill="#000000" fill-opacity="0.200000" stroke="#000000" stroke-width="2" stroke-opacity="0.200000" points="489.75,-373.7 495.75,-371.6 489.75,-369.5 489.75,-373.7"/>
</g>
</g>
</svg>
