<?xml version="1.0" encoding="UTF-8" standalone="no"?>
<!DOCTYPE svg PUBLIC "-//W3C//DTD SVG 1.1//EN"
 "http://www.w3.org/Graphics/SVG/1.1/DTD/svg11.dtd">
<!-- Generated by graphviz version 3.0.0 (20220226.1711)
 -->
<!-- Title: dependency&#45;cruiser output Pages: 1 -->
<svg width="951pt" height="576pt"
 viewBox="0.00 0.00 951.00 576.00" xmlns="http://www.w3.org/2000/svg" xmlns:xlink="http://www.w3.org/1999/xlink">
<g id="graph0" class="graph" transform="scale(1 1) rotate(0) translate(4 572)">
<title>dependency&#45;cruiser output</title>
<polygon fill="white" stroke="transparent" points="-4,4 -4,-572 947,-572 947,4 -4,4"/>
<!-- baseline&#45;violations.schema.mjs -->
<g id="node1" class="node">
<title>baseline&#45;violations.schema.mjs</title>
<g id="a_node1"><a xlink:href="https://github.com/sverweij/dependency-cruiser/blob/develop/tools/schema/baseline-violations.schema.mjs" xlink:title="baseline&#45;violations.schema.mjs">
<path fill="darkgreen" stroke="darkgreen" d="M491,-197C491,-197 358,-197 358,-197 355,-197 352,-194 352,-191 352,-191 352,-185 352,-185 352,-182 355,-179 358,-179 358,-179 491,-179 491,-179 494,-179 497,-182 497,-185 497,-185 497,-191 497,-191 497,-194 494,-197 491,-197"/>
<text text-anchor="middle" x="424.5" y="-185.8" font-family="Helvetica,sans-Serif" font-size="9.00" fill="#ffffcc">baseline&#45;violations.schema.mjs</text>
</a>
</g>
</g>
<!-- violations.mjs -->
<g id="node2" class="node">
<title>violations.mjs</title>
<g id="a_node2"><a xlink:href="https://github.com/sverweij/dependency-cruiser/blob/develop/tools/schema/violations.mjs" xlink:title="violations.mjs">
<path fill="#ffffcc" stroke="black" d="M616,-18C616,-18 556,-18 556,-18 553,-18 550,-15 550,-12 550,-12 550,-6 550,-6 550,-3 553,0 556,0 556,0 616,0 616,0 619,0 622,-3 622,-6 622,-6 622,-12 622,-12 622,-15 619,-18 616,-18"/>
<text text-anchor="middle" x="586" y="-6.8" font-family="Helvetica,sans-Serif" font-size="9.00">violations.mjs</text>
</a>
</g>
</g>
<!-- baseline&#45;violations.schema.mjs&#45;&gt;violations.mjs -->
<g id="edge1" class="edge">
<title>baseline&#45;violations.schema.mjs&#45;&gt;violations.mjs</title>
<path fill="none" stroke="#000000" stroke-width="2" stroke-opacity="0.200000" d="M481,-178.88C481,-142.4 481,-9 481,-9 481,-9 543.86,-9 543.86,-9"/>
<polygon fill="#000000" fill-opacity="0.200000" stroke="#000000" stroke-width="2" stroke-opacity="0.200000" points="543.86,-11.1 549.86,-9 543.86,-6.9 543.86,-11.1"/>
</g>
<!-- rule&#45;summary.mjs -->
<g id="node19" class="node">
<title>rule&#45;summary.mjs</title>
<g id="a_node19"><a xlink:href="https://github.com/sverweij/dependency-cruiser/blob/develop/tools/schema/rule-summary.mjs" xlink:title="rule&#45;summary.mjs">
<path fill="#ffffcc" stroke="black" d="M788.5,-50C788.5,-50 711.5,-50 711.5,-50 708.5,-50 705.5,-47 705.5,-44 705.5,-44 705.5,-38 705.5,-38 705.5,-35 708.5,-32 711.5,-32 711.5,-32 788.5,-32 788.5,-32 791.5,-32 794.5,-35 794.5,-38 794.5,-38 794.5,-44 794.5,-44 794.5,-47 791.5,-50 788.5,-50"/>
<text text-anchor="middle" x="750" y="-38.8" font-family="Helvetica,sans-Serif" font-size="9.00">rule&#45;summary.mjs</text>
</a>
</g>
</g>
<!-- violations.mjs&#45;&gt;rule&#45;summary.mjs -->
<g id="edge52" class="edge">
<title>violations.mjs&#45;&gt;rule&#45;summary.mjs</title>
<path fill="none" stroke="#000000" stroke-width="2" stroke-opacity="0.200000" d="M574,-18.18C574,-26.67 574,-38 574,-38 574,-38 699.13,-38 699.13,-38"/>
<polygon fill="#000000" fill-opacity="0.200000" stroke="#000000" stroke-width="2" stroke-opacity="0.200000" points="699.13,-40.1 705.13,-38 699.13,-35.9 699.13,-40.1"/>
</g>
<!-- violation&#45;type.mjs -->
<g id="node26" class="node">
<title>violation&#45;type.mjs</title>
<g id="a_node26"><a xlink:href="https://github.com/sverweij/dependency-cruiser/blob/develop/tools/schema/violation-type.mjs" xlink:title="violation&#45;type.mjs">
<polygon fill="white" stroke="transparent" points="794,-18 706,-18 706,0 794,0 794,-18"/>
<polyline fill="none" stroke="black" points="706,0 794,0 "/>
<text text-anchor="middle" x="750" y="-6.8" font-family="Helvetica,sans-Serif" font-size="9.00">violation&#45;type.mjs</text>
</a>
</g>
</g>
<!-- violations.mjs&#45;&gt;violation&#45;type.mjs -->
<g id="edge53" class="edge">
<title>violations.mjs&#45;&gt;violation&#45;type.mjs</title>
<path fill="none" stroke="#000000" stroke-width="2" stroke-opacity="0.200000" d="M622.4,-9C622.4,-9 699.83,-9 699.83,-9"/>
<polygon fill="#000000" fill-opacity="0.200000" stroke="#000000" stroke-width="2" stroke-opacity="0.200000" points="699.83,-11.1 705.83,-9 699.83,-6.9 699.83,-11.1"/>
</g>
<!-- compound&#45;donot&#45;follow&#45;type.mjs -->
<g id="node3" class="node">
<title>compound&#45;donot&#45;follow&#45;type.mjs</title>
<g id="a_node3"><a xlink:href="https://github.com/sverweij/dependency-cruiser/blob/develop/tools/schema/compound-donot-follow-type.mjs" xlink:title="compound&#45;donot&#45;follow&#45;type.mjs">
<polygon fill="white" stroke="transparent" points="661,-568 511,-568 511,-550 661,-550 661,-568"/>
<polyline fill="none" stroke="black" points="511,-550 661,-550 "/>
<text text-anchor="middle" x="586" y="-556.8" font-family="Helvetica,sans-Serif" font-size="9.00">compound&#45;donot&#45;follow&#45;type.mjs</text>
</a>
</g>
</g>
<!-- re&#45;as&#45;strings&#45;type.mjs -->
<g id="node4" class="node">
<title>re&#45;as&#45;strings&#45;type.mjs</title>
<g id="a_node4"><a xlink:href="https://github.com/sverweij/dependency-cruiser/blob/develop/tools/schema/re-as-strings-type.mjs" xlink:title="re&#45;as&#45;strings&#45;type.mjs">
<polygon fill="white" stroke="transparent" points="943,-371 839,-371 839,-353 943,-353 943,-371"/>
<polyline fill="none" stroke="black" points="839,-353 943,-353 "/>
<text text-anchor="middle" x="891" y="-359.8" font-family="Helvetica,sans-Serif" font-size="9.00">re&#45;as&#45;strings&#45;type.mjs</text>
</a>
</g>
</g>
<!-- compound&#45;donot&#45;follow&#45;type.mjs&#45;&gt;re&#45;as&#45;strings&#45;type.mjs -->
<g id="edge2" class="edge">
<title>compound&#45;donot&#45;follow&#45;type.mjs&#45;&gt;re&#45;as&#45;strings&#45;type.mjs</title>
<path fill="none" stroke="#000000" stroke-width="2" stroke-opacity="0.200000" d="M650,-549.76C650,-510.81 650,-362 650,-362 650,-362 832.71,-362 832.71,-362"/>
<polygon fill="#000000" fill-opacity="0.200000" stroke="#000000" stroke-width="2" stroke-opacity="0.200000" points="832.71,-364.1 838.71,-362 832.71,-359.9 832.71,-364.1"/>
</g>
<!-- compound&#45;exclude&#45;type.mjs -->
<g id="node5" class="node">
<title>compound&#45;exclude&#45;type.mjs</title>
<g id="a_node5"><a xlink:href="https://github.com/sverweij/dependency-cruiser/blob/develop/tools/schema/compound-exclude-type.mjs" xlink:title="compound&#45;exclude&#45;type.mjs">
<polygon fill="white" stroke="transparent" points="816,-486 684,-486 684,-468 816,-468 816,-486"/>
<polyline fill="none" stroke="black" points="684,-468 816,-468 "/>
<text text-anchor="middle" x="750" y="-474.8" font-family="Helvetica,sans-Serif" font-size="9.00">compound&#45;exclude&#45;type.mjs</text>
</a>
</g>
</g>
<!-- compound&#45;exclude&#45;type.mjs&#45;&gt;re&#45;as&#45;strings&#45;type.mjs -->
<g id="edge3" class="edge">
<title>compound&#45;exclude&#45;type.mjs&#45;&gt;re&#45;as&#45;strings&#45;type.mjs</title>
<path fill="none" stroke="#000000" stroke-width="2" stroke-opacity="0.200000" d="M816.05,-477C859.73,-477 909,-477 909,-477 909,-477 909,-377.02 909,-377.02"/>
<polygon fill="#000000" fill-opacity="0.200000" stroke="#000000" stroke-width="2" stroke-opacity="0.200000" points="911.1,-377.02 909,-371.02 906.9,-377.02 911.1,-377.02"/>
</g>
<!-- compound&#45;focus&#45;type.mjs -->
<g id="node6" class="node">
<title>compound&#45;focus&#45;type.mjs</title>
<g id="a_node6"><a xlink:href="https://github.com/sverweij/dependency-cruiser/blob/develop/tools/schema/compound-focus-type.mjs" xlink:title="compound&#45;focus&#45;type.mjs">
<polygon fill="white" stroke="transparent" points="811,-433 689,-433 689,-415 811,-415 811,-433"/>
<polyline fill="none" stroke="black" points="689,-415 811,-415 "/>
<text text-anchor="middle" x="750" y="-421.8" font-family="Helvetica,sans-Serif" font-size="9.00">compound&#45;focus&#45;type.mjs</text>
</a>
</g>
</g>
<!-- compound&#45;focus&#45;type.mjs&#45;&gt;re&#45;as&#45;strings&#45;type.mjs -->
<g id="edge4" class="edge">
<title>compound&#45;focus&#45;type.mjs&#45;&gt;re&#45;as&#45;strings&#45;type.mjs</title>
<path fill="none" stroke="#000000" stroke-width="2" stroke-opacity="0.200000" d="M811.27,-424C842.51,-424 874,-424 874,-424 874,-424 874,-377.15 874,-377.15"/>
<polygon fill="#000000" fill-opacity="0.200000" stroke="#000000" stroke-width="2" stroke-opacity="0.200000" points="876.1,-377.15 874,-371.15 871.9,-377.15 876.1,-377.15"/>
</g>
<!-- compound&#45;include&#45;only&#45;type.mjs -->
<g id="node7" class="node">
<title>compound&#45;include&#45;only&#45;type.mjs</title>
<g id="a_node7"><a xlink:href="https://github.com/sverweij/dependency-cruiser/blob/develop/tools/schema/compound-include-only-type.mjs" xlink:title="compound&#45;include&#45;only&#45;type.mjs">
<polygon fill="white" stroke="transparent" points="825,-387 675,-387 675,-369 825,-369 825,-387"/>
<polyline fill="none" stroke="black" points="675,-369 825,-369 "/>
<text text-anchor="middle" x="750" y="-375.8" font-family="Helvetica,sans-Serif" font-size="9.00">compound&#45;include&#45;only&#45;type.mjs</text>
</a>
</g>
</g>
<!-- compound&#45;include&#45;only&#45;type.mjs&#45;&gt;re&#45;as&#45;strings&#45;type.mjs -->
<g id="edge5" class="edge">
<title>compound&#45;include&#45;only&#45;type.mjs&#45;&gt;re&#45;as&#45;strings&#45;type.mjs</title>
<path fill="none" stroke="#000000" stroke-width="2" stroke-opacity="0.200000" d="M821,-368.92C821,-366.98 821,-365.5 821,-365.5 821,-365.5 832.66,-365.5 832.66,-365.5"/>
<polygon fill="#000000" fill-opacity="0.200000" stroke="#000000" stroke-width="2" stroke-opacity="0.200000" points="832.66,-367.6 838.66,-365.5 832.66,-363.4 832.66,-367.6"/>
</g>
<!-- compound&#45;reaches&#45;type.mjs -->
<g id="node8" class="node">
<title>compound&#45;reaches&#45;type.mjs</title>
<g id="a_node8"><a xlink:href="https://github.com/sverweij/dependency-cruiser/blob/develop/tools/schema/compound-reaches-type.mjs" xlink:title="compound&#45;reaches&#45;type.mjs">
<polygon fill="white" stroke="transparent" points="816.5,-355 683.5,-355 683.5,-337 816.5,-337 816.5,-355"/>
<polyline fill="none" stroke="black" points="683.5,-337 816.5,-337 "/>
<text text-anchor="middle" x="750" y="-343.8" font-family="Helvetica,sans-Serif" font-size="9.00">compound&#45;reaches&#45;type.mjs</text>
</a>
</g>
</g>
<!-- compound&#45;reaches&#45;type.mjs&#45;&gt;re&#45;as&#45;strings&#45;type.mjs -->
<g id="edge6" class="edge">
<title>compound&#45;reaches&#45;type.mjs&#45;&gt;re&#45;as&#45;strings&#45;type.mjs</title>
<path fill="none" stroke="#000000" stroke-width="2" stroke-opacity="0.200000" d="M816.57,-345C833.5,-345 847,-345 847,-345 847,-345 847,-346.7 847,-346.7"/>
<polygon fill="#000000" fill-opacity="0.200000" stroke="#000000" stroke-width="2" stroke-opacity="0.200000" points="844.9,-346.7 847,-352.7 849.1,-346.7 844.9,-346.7"/>
</g>
<!-- configuration.schema.mjs -->
<g id="node9" class="node">
<title>configuration.schema.mjs</title>
<g id="a_node9"><a xlink:href="https://github.com/sverweij/dependency-cruiser/blob/develop/tools/schema/configuration.schema.mjs" xlink:title="configuration.schema.mjs">
<path fill="darkgreen" stroke="darkgreen" d="M332,-166C332,-166 223,-166 223,-166 220,-166 217,-163 217,-160 217,-160 217,-154 217,-154 217,-151 220,-148 223,-148 223,-148 332,-148 332,-148 335,-148 338,-151 338,-154 338,-154 338,-160 338,-160 338,-163 335,-166 332,-166"/>
<text text-anchor="middle" x="277.5" y="-154.8" font-family="Helvetica,sans-Serif" font-size="9.00" fill="#ffffcc">configuration.schema.mjs</text>
</a>
</g>
</g>
<!-- options.mjs -->
<g id="node10" class="node">
<title>options.mjs</title>
<g id="a_node10"><a xlink:href="https://github.com/sverweij/dependency-cruiser/blob/develop/tools/schema/options.mjs" xlink:title="options.mjs">
<path fill="#ffffcc" stroke="black" d="M450,-266C450,-266 399,-266 399,-266 396,-266 393,-263 393,-260 393,-260 393,-254 393,-254 393,-251 396,-248 399,-248 399,-248 450,-248 450,-248 453,-248 456,-251 456,-254 456,-254 456,-260 456,-260 456,-263 453,-266 450,-266"/>
<text text-anchor="middle" x="424.5" y="-254.8" font-family="Helvetica,sans-Serif" font-size="9.00">options.mjs</text>
</a>
</g>
</g>
<!-- configuration.schema.mjs&#45;&gt;options.mjs -->
<g id="edge7" class="edge">
<title>configuration.schema.mjs&#45;&gt;options.mjs</title>
<path fill="none" stroke="#000000" stroke-width="2" stroke-opacity="0.200000" d="M330,-166.23C330,-190.98 330,-257 330,-257 330,-257 386.77,-257 386.77,-257"/>
<polygon fill="#000000" fill-opacity="0.200000" stroke="#000000" stroke-width="2" stroke-opacity="0.200000" points="386.77,-259.1 392.77,-257 386.77,-254.9 386.77,-259.1"/>
</g>
<!-- rule&#45;set.mjs -->
<g id="node11" class="node">
<title>rule&#45;set.mjs</title>
<g id="a_node11"><a xlink:href="https://github.com/sverweij/dependency-cruiser/blob/develop/tools/schema/rule-set.mjs" xlink:title="rule&#45;set.mjs">
<path fill="#ffffcc" stroke="black" d="M450.5,-71C450.5,-71 398.5,-71 398.5,-71 395.5,-71 392.5,-68 392.5,-65 392.5,-65 392.5,-59 392.5,-59 392.5,-56 395.5,-53 398.5,-53 398.5,-53 450.5,-53 450.5,-53 453.5,-53 456.5,-56 456.5,-59 456.5,-59 456.5,-65 456.5,-65 456.5,-68 453.5,-71 450.5,-71"/>
<text text-anchor="middle" x="424.5" y="-59.8" font-family="Helvetica,sans-Serif" font-size="9.00">rule&#45;set.mjs</text>
</a>
</g>
</g>
<!-- configuration.schema.mjs&#45;&gt;rule&#45;set.mjs -->
<g id="edge8" class="edge">
<title>configuration.schema.mjs&#45;&gt;rule&#45;set.mjs</title>
<path fill="none" stroke="#000000" stroke-width="2" stroke-opacity="0.200000" d="M278,-147.68C278,-124.62 278,-66.75 278,-66.75 278,-66.75 386.35,-66.75 386.35,-66.75"/>
<polygon fill="#000000" fill-opacity="0.200000" stroke="#000000" stroke-width="2" stroke-opacity="0.200000" points="386.35,-68.85 392.35,-66.75 386.35,-64.65 386.35,-68.85"/>
</g>
<!-- options.mjs&#45;&gt;violations.mjs -->
<g id="edge38" class="edge">
<title>options.mjs&#45;&gt;violations.mjs</title>
<path fill="none" stroke="#000000" stroke-width="2" stroke-opacity="0.200000" d="M456.21,-252.5C485,-252.5 523,-252.5 523,-252.5 523,-252.5 523,-13.5 523,-13.5 523,-13.5 543.72,-13.5 543.72,-13.5"/>
<polygon fill="#000000" fill-opacity="0.200000" stroke="#000000" stroke-width="2" stroke-opacity="0.200000" points="543.72,-15.6 549.72,-13.5 543.72,-11.4 543.72,-15.6"/>
</g>
<!-- options.mjs&#45;&gt;compound&#45;donot&#45;follow&#45;type.mjs -->
<g id="edge29" class="edge">
<title>options.mjs&#45;&gt;compound&#45;donot&#45;follow&#45;type.mjs</title>
<path fill="none" stroke="#000000" stroke-width="2" stroke-opacity="0.200000" d="M456.23,-261.5C483.68,-261.5 519,-261.5 519,-261.5 519,-261.5 519,-543.77 519,-543.77"/>
<polygon fill="#000000" fill-opacity="0.200000" stroke="#000000" stroke-width="2" stroke-opacity="0.200000" points="516.9,-543.77 519,-549.77 521.1,-543.77 516.9,-543.77"/>
</g>
<!-- options.mjs&#45;&gt;re&#45;as&#45;strings&#45;type.mjs -->
<g id="edge36" class="edge">
<title>options.mjs&#45;&gt;re&#45;as&#45;strings&#45;type.mjs</title>
<path fill="none" stroke="#000000" stroke-width="2" stroke-opacity="0.200000" d="M438,-266.01C438,-290.85 438,-358.5 438,-358.5 438,-358.5 832.59,-358.5 832.59,-358.5"/>
<polygon fill="#000000" fill-opacity="0.200000" stroke="#000000" stroke-width="2" stroke-opacity="0.200000" points="832.59,-360.6 838.59,-358.5 832.59,-356.4 832.59,-360.6"/>
</g>
<!-- options.mjs&#45;&gt;compound&#45;exclude&#45;type.mjs -->
<g id="edge30" class="edge">
<title>options.mjs&#45;&gt;compound&#45;exclude&#45;type.mjs</title>
<path fill="none" stroke="#000000" stroke-width="2" stroke-opacity="0.200000" d="M411,-266.17C411,-307.81 411,-477 411,-477 411,-477 677.83,-477 677.83,-477"/>
<polygon fill="#000000" fill-opacity="0.200000" stroke="#000000" stroke-width="2" stroke-opacity="0.200000" points="677.83,-479.1 683.83,-477 677.83,-474.9 677.83,-479.1"/>
</g>
<!-- options.mjs&#45;&gt;compound&#45;focus&#45;type.mjs -->
<g id="edge31" class="edge">
<title>options.mjs&#45;&gt;compound&#45;focus&#45;type.mjs</title>
<path fill="none" stroke="#000000" stroke-width="2" stroke-opacity="0.200000" d="M420,-266.46C420,-301.78 420,-424 420,-424 420,-424 682.7,-424 682.7,-424"/>
<polygon fill="#000000" fill-opacity="0.200000" stroke="#000000" stroke-width="2" stroke-opacity="0.200000" points="682.7,-426.1 688.7,-424 682.7,-421.9 682.7,-426.1"/>
</g>
<!-- options.mjs&#45;&gt;compound&#45;include&#45;only&#45;type.mjs -->
<g id="edge32" class="edge">
<title>options.mjs&#45;&gt;compound&#45;include&#45;only&#45;type.mjs</title>
<path fill="none" stroke="#000000" stroke-width="2" stroke-opacity="0.200000" d="M429,-266.09C429,-294.23 429,-378 429,-378 429,-378 668.74,-378 668.74,-378"/>
<polygon fill="#000000" fill-opacity="0.200000" stroke="#000000" stroke-width="2" stroke-opacity="0.200000" points="668.74,-380.1 674.74,-378 668.74,-375.9 668.74,-380.1"/>
</g>
<!-- options.mjs&#45;&gt;compound&#45;reaches&#45;type.mjs -->
<g id="edge33" class="edge">
<title>options.mjs&#45;&gt;compound&#45;reaches&#45;type.mjs</title>
<path fill="none" stroke="#000000" stroke-width="2" stroke-opacity="0.200000" d="M447,-266.19C447,-288.93 447,-346 447,-346 447,-346 677.13,-346 677.13,-346"/>
<polygon fill="#000000" fill-opacity="0.200000" stroke="#000000" stroke-width="2" stroke-opacity="0.200000" points="677.13,-348.1 683.13,-346 677.13,-343.9 677.13,-348.1"/>
</g>
<!-- dependency&#45;type.mjs -->
<g id="node17" class="node">
<title>dependency&#45;type.mjs</title>
<g id="a_node17"><a xlink:href="https://github.com/sverweij/dependency-cruiser/blob/develop/tools/schema/dependency-type.mjs" xlink:title="dependency&#45;type.mjs">
<polygon fill="white" stroke="transparent" points="802,-174 698,-174 698,-156 802,-156 802,-174"/>
<polyline fill="none" stroke="black" points="698,-156 802,-156 "/>
<text text-anchor="middle" x="750" y="-162.8" font-family="Helvetica,sans-Serif" font-size="9.00">dependency&#45;type.mjs</text>
</a>
</g>
</g>
<!-- options.mjs&#45;&gt;dependency&#45;type.mjs -->
<g id="edge34" class="edge">
<title>options.mjs&#45;&gt;dependency&#45;type.mjs</title>
<path fill="none" stroke="#000000" stroke-width="2" stroke-opacity="0.200000" d="M414,-247.87C414,-238.72 414,-226 414,-226 414,-226 733,-226 733,-226 733,-226 733,-180 733,-180"/>
<polygon fill="#000000" fill-opacity="0.200000" stroke="#000000" stroke-width="2" stroke-opacity="0.200000" points="735.1,-180 733,-174 730.9,-180 735.1,-180"/>
</g>
<!-- module&#45;systems&#45;type.mjs -->
<g id="node20" class="node">
<title>module&#45;systems&#45;type.mjs</title>
<g id="a_node20"><a xlink:href="https://github.com/sverweij/dependency-cruiser/blob/develop/tools/schema/module-systems-type.mjs" xlink:title="module&#45;systems&#45;type.mjs">
<polygon fill="white" stroke="transparent" points="646,-266 526,-266 526,-248 646,-248 646,-266"/>
<polyline fill="none" stroke="black" points="526,-248 646,-248 "/>
<text text-anchor="middle" x="586" y="-254.8" font-family="Helvetica,sans-Serif" font-size="9.00">module&#45;systems&#45;type.mjs</text>
</a>
</g>
</g>
<!-- options.mjs&#45;&gt;module&#45;systems&#45;type.mjs -->
<g id="edge35" class="edge">
<title>options.mjs&#45;&gt;module&#45;systems&#45;type.mjs</title>
<path fill="none" stroke="#000000" stroke-width="2" stroke-opacity="0.200000" d="M456.02,-257C456.02,-257 519.78,-257 519.78,-257"/>
<polygon fill="#000000" fill-opacity="0.200000" stroke="#000000" stroke-width="2" stroke-opacity="0.200000" points="519.78,-259.1 525.78,-257 519.78,-254.9 519.78,-259.1"/>
</g>
<!-- reporter&#45;options.mjs -->
<g id="node23" class="node">
<title>reporter&#45;options.mjs</title>
<g id="a_node23"><a xlink:href="https://github.com/sverweij/dependency-cruiser/blob/develop/tools/schema/reporter-options.mjs" xlink:title="reporter&#45;options.mjs">
<path fill="#ffffcc" stroke="black" d="M629,-204C629,-204 543,-204 543,-204 540,-204 537,-201 537,-198 537,-198 537,-192 537,-192 537,-189 540,-186 543,-186 543,-186 629,-186 629,-186 632,-186 635,-189 635,-192 635,-192 635,-198 635,-198 635,-201 632,-204 629,-204"/>
<text text-anchor="middle" x="586" y="-192.8" font-family="Helvetica,sans-Serif" font-size="9.00">reporter&#45;options.mjs</text>
</a>
</g>
</g>
<!-- options.mjs&#45;&gt;reporter&#45;options.mjs -->
<g id="edge37" class="edge">
<title>options.mjs&#45;&gt;reporter&#45;options.mjs</title>
<path fill="none" stroke="#000000" stroke-width="2" stroke-opacity="0.200000" d="M435,-247.86C435,-232.15 435,-201.67 435,-201.67 435,-201.67 530.97,-201.67 530.97,-201.67"/>
<polygon fill="#000000" fill-opacity="0.200000" stroke="#000000" stroke-width="2" stroke-opacity="0.200000" points="530.97,-203.77 536.97,-201.67 530.97,-199.57 530.97,-203.77"/>
</g>
<!-- restrictions.mjs -->
<g id="node24" class="node">
<title>restrictions.mjs</title>
<g id="a_node24"><a xlink:href="https://github.com/sverweij/dependency-cruiser/blob/develop/tools/schema/restrictions.mjs" xlink:title="restrictions.mjs">
<path fill="#ffffcc" stroke="black" d="M618.5,-110C618.5,-110 553.5,-110 553.5,-110 550.5,-110 547.5,-107 547.5,-104 547.5,-104 547.5,-98 547.5,-98 547.5,-95 550.5,-92 553.5,-92 553.5,-92 618.5,-92 618.5,-92 621.5,-92 624.5,-95 624.5,-98 624.5,-98 624.5,-104 624.5,-104 624.5,-107 621.5,-110 618.5,-110"/>
<text text-anchor="middle" x="586" y="-98.8" font-family="Helvetica,sans-Serif" font-size="9.00">restrictions.mjs</text>
</a>
</g>
</g>
<!-- rule&#45;set.mjs&#45;&gt;restrictions.mjs -->
<g id="edge46" class="edge">
<title>rule&#45;set.mjs&#45;&gt;restrictions.mjs</title>
<path fill="none" stroke="#000000" stroke-width="2" stroke-opacity="0.200000" d="M456.73,-65C506.9,-65 598,-65 598,-65 598,-65 598,-85.92 598,-85.92"/>
<polygon fill="#000000" fill-opacity="0.200000" stroke="#000000" stroke-width="2" stroke-opacity="0.200000" points="595.9,-85.92 598,-91.92 600.1,-85.92 595.9,-85.92"/>
</g>
<!-- severity&#45;type.mjs -->
<g id="node25" class="node">
<title>severity&#45;type.mjs</title>
<g id="a_node25"><a xlink:href="https://github.com/sverweij/dependency-cruiser/blob/develop/tools/schema/severity-type.mjs" xlink:title="severity&#45;type.mjs">
<polygon fill="white" stroke="transparent" points="933.5,-19 848.5,-19 848.5,-1 933.5,-1 933.5,-19"/>
<polyline fill="none" stroke="black" points="848.5,-1 933.5,-1 "/>
<text text-anchor="middle" x="891" y="-7.8" font-family="Helvetica,sans-Serif" font-size="9.00">severity&#45;type.mjs</text>
</a>
</g>
</g>
<!-- rule&#45;set.mjs&#45;&gt;severity&#45;type.mjs -->
<g id="edge47" class="edge">
<title>rule&#45;set.mjs&#45;&gt;severity&#45;type.mjs</title>
<path fill="none" stroke="#000000" stroke-width="2" stroke-opacity="0.200000" d="M456.84,-59C564.8,-59 906,-59 906,-59 906,-59 906,-25.45 906,-25.45"/>
<polygon fill="#000000" fill-opacity="0.200000" stroke="#000000" stroke-width="2" stroke-opacity="0.200000" points="908.1,-25.45 906,-19.45 903.9,-25.45 908.1,-25.45"/>
</g>
<!-- cruise&#45;result.schema.mjs -->
<g id="node12" class="node">
<title>cruise&#45;result.schema.mjs</title>
<g id="a_node12"><a xlink:href="https://github.com/sverweij/dependency-cruiser/blob/develop/tools/schema/cruise-result.schema.mjs" xlink:title="cruise&#45;result.schema.mjs">
<path fill="darkgreen" stroke="darkgreen" d="M112,-103C112,-103 6,-103 6,-103 3,-103 0,-100 0,-97 0,-97 0,-91 0,-91 0,-88 3,-85 6,-85 6,-85 112,-85 112,-85 115,-85 118,-88 118,-91 118,-91 118,-97 118,-97 118,-100 115,-103 112,-103"/>
<text text-anchor="middle" x="59" y="-91.8" font-family="Helvetica,sans-Serif" font-size="9.00" fill="#ffffcc">cruise&#45;result.schema.mjs</text>
</a>
</g>
</g>
<!-- folders.mjs -->
<g id="node13" class="node">
<title>folders.mjs</title>
<g id="a_node13"><a xlink:href="https://github.com/sverweij/dependency-cruiser/blob/develop/tools/schema/folders.mjs" xlink:title="folders.mjs">
<path fill="#ffffcc" stroke="black" d="M192,-181C192,-181 143,-181 143,-181 140,-181 137,-178 137,-175 137,-175 137,-169 137,-169 137,-166 140,-163 143,-163 143,-163 192,-163 192,-163 195,-163 198,-166 198,-169 198,-169 198,-175 198,-175 198,-178 195,-181 192,-181"/>
<text text-anchor="middle" x="167.5" y="-169.8" font-family="Helvetica,sans-Serif" font-size="9.00">folders.mjs</text>
</a>
</g>
</g>
<!-- cruise&#45;result.schema.mjs&#45;&gt;folders.mjs -->
<g id="edge9" class="edge">
<title>cruise&#45;result.schema.mjs&#45;&gt;folders.mjs</title>
<path fill="none" stroke="#000000" stroke-width="2" stroke-opacity="0.200000" d="M118.26,-98.5C137.04,-98.5 153,-98.5 153,-98.5 153,-98.5 153,-156.99 153,-156.99"/>
<polygon fill="#000000" fill-opacity="0.200000" stroke="#000000" stroke-width="2" stroke-opacity="0.200000" points="150.9,-156.99 153,-162.99 155.1,-156.99 150.9,-156.99"/>
</g>
<!-- modules.mjs -->
<g id="node14" class="node">
<title>modules.mjs</title>
<g id="a_node14"><a xlink:href="https://github.com/sverweij/dependency-cruiser/blob/develop/tools/schema/modules.mjs" xlink:title="modules.mjs">
<path fill="#ffffcc" stroke="black" d="M452.5,-103C452.5,-103 396.5,-103 396.5,-103 393.5,-103 390.5,-100 390.5,-97 390.5,-97 390.5,-91 390.5,-91 390.5,-88 393.5,-85 396.5,-85 396.5,-85 452.5,-85 452.5,-85 455.5,-85 458.5,-88 458.5,-91 458.5,-91 458.5,-97 458.5,-97 458.5,-100 455.5,-103 452.5,-103"/>
<text text-anchor="middle" x="424.5" y="-91.8" font-family="Helvetica,sans-Serif" font-size="9.00">modules.mjs</text>
</a>
</g>
</g>
<!-- cruise&#45;result.schema.mjs&#45;&gt;modules.mjs -->
<g id="edge10" class="edge">
<title>cruise&#45;result.schema.mjs&#45;&gt;modules.mjs</title>
<path fill="none" stroke="#000000" stroke-width="2" stroke-opacity="0.200000" d="M118.13,-94C118.13,-94 384.2,-94 384.2,-94"/>
<polygon fill="#000000" fill-opacity="0.200000" stroke="#000000" stroke-width="2" stroke-opacity="0.200000" points="384.2,-96.1 390.2,-94 384.2,-91.9 384.2,-96.1"/>
</g>
<!-- summary.mjs -->
<g id="node15" class="node">
<title>summary.mjs</title>
<g id="a_node15"><a xlink:href="https://github.com/sverweij/dependency-cruiser/blob/develop/tools/schema/summary.mjs" xlink:title="summary.mjs">
<path fill="#ffffcc" stroke="black" d="M197,-72C197,-72 138,-72 138,-72 135,-72 132,-69 132,-66 132,-66 132,-60 132,-60 132,-57 135,-54 138,-54 138,-54 197,-54 197,-54 200,-54 203,-57 203,-60 203,-60 203,-66 203,-66 203,-69 200,-72 197,-72"/>
<text text-anchor="middle" x="167.5" y="-60.8" font-family="Helvetica,sans-Serif" font-size="9.00">summary.mjs</text>
</a>
</g>
</g>
<!-- cruise&#45;result.schema.mjs&#45;&gt;summary.mjs -->
<g id="edge11" class="edge">
<title>cruise&#45;result.schema.mjs&#45;&gt;summary.mjs</title>
<path fill="none" stroke="#000000" stroke-width="2" stroke-opacity="0.200000" d="M118.09,-89.5C150.03,-89.5 183,-89.5 183,-89.5 183,-89.5 183,-78.27 183,-78.27"/>
<polygon fill="#000000" fill-opacity="0.200000" stroke="#000000" stroke-width="2" stroke-opacity="0.200000" points="185.1,-78.27 183,-72.27 180.9,-78.27 185.1,-78.27"/>
</g>
<!-- folders.mjs&#45;&gt;rule&#45;summary.mjs -->
<g id="edge15" class="edge">
<title>folders.mjs&#45;&gt;rule&#45;summary.mjs</title>
<path fill="none" stroke="#000000" stroke-width="2" stroke-opacity="0.200000" d="M168,-162.92C168,-147.3 168,-117 168,-117 168,-117 765,-117 765,-117 765,-117 765,-56.02 765,-56.02"/>
<polygon fill="#000000" fill-opacity="0.200000" stroke="#000000" stroke-width="2" stroke-opacity="0.200000" points="767.1,-56.02 765,-50.02 762.9,-56.02 767.1,-56.02"/>
</g>
<!-- dependencies.mjs -->
<g id="node16" class="node">
<title>dependencies.mjs</title>
<g id="a_node16"><a xlink:href="https://github.com/sverweij/dependency-cruiser/blob/develop/tools/schema/dependencies.mjs" xlink:title="dependencies.mjs">
<path fill="#ffffcc" stroke="black" d="M626,-172C626,-172 546,-172 546,-172 543,-172 540,-169 540,-166 540,-166 540,-160 540,-160 540,-157 543,-154 546,-154 546,-154 626,-154 626,-154 629,-154 632,-157 632,-160 632,-160 632,-166 632,-166 632,-169 629,-172 626,-172"/>
<text text-anchor="middle" x="586" y="-160.8" font-family="Helvetica,sans-Serif" font-size="9.00">dependencies.mjs</text>
</a>
</g>
</g>
<!-- modules.mjs&#45;&gt;dependencies.mjs -->
<g id="edge17" class="edge">
<title>modules.mjs&#45;&gt;dependencies.mjs</title>
<path fill="none" stroke="#000000" stroke-width="2" stroke-opacity="0.200000" d="M458.74,-97.5C494.06,-97.5 544,-97.5 544,-97.5 544,-97.5 544,-147.89 544,-147.89"/>
<polygon fill="#000000" fill-opacity="0.200000" stroke="#000000" stroke-width="2" stroke-opacity="0.200000" points="541.9,-147.89 544,-153.89 546.1,-147.89 541.9,-147.89"/>
</g>
<!-- modules.mjs&#45;&gt;dependency&#45;type.mjs -->
<g id="edge18" class="edge">
<title>modules.mjs&#45;&gt;dependency&#45;type.mjs</title>
<path fill="none" stroke="#000000" stroke-width="2" stroke-opacity="0.200000" d="M458.8,-89.67C520.53,-89.67 644,-89.67 644,-89.67 644,-89.67 644,-160 644,-160 644,-160 691.93,-160 691.93,-160"/>
<polygon fill="#000000" fill-opacity="0.200000" stroke="#000000" stroke-width="2" stroke-opacity="0.200000" points="691.93,-162.1 697.93,-160 691.93,-157.9 691.93,-162.1"/>
</g>
<!-- modules.mjs&#45;&gt;rule&#45;summary.mjs -->
<g id="edge19" class="edge">
<title>modules.mjs&#45;&gt;rule&#45;summary.mjs</title>
<path fill="none" stroke="#000000" stroke-width="2" stroke-opacity="0.200000" d="M458.73,-87.33C539.65,-87.33 736,-87.33 736,-87.33 736,-87.33 736,-56.38 736,-56.38"/>
<polygon fill="#000000" fill-opacity="0.200000" stroke="#000000" stroke-width="2" stroke-opacity="0.200000" points="738.1,-56.38 736,-50.38 733.9,-56.38 738.1,-56.38"/>
</g>
<!-- summary.mjs&#45;&gt;violations.mjs -->
<g id="edge51" class="edge">
<title>summary.mjs&#45;&gt;violations.mjs</title>
<path fill="none" stroke="#000000" stroke-width="2" stroke-opacity="0.200000" d="M168,-53.86C168,-37.41 168,-4.5 168,-4.5 168,-4.5 544,-4.5 544,-4.5"/>
<polygon fill="#000000" fill-opacity="0.200000" stroke="#000000" stroke-width="2" stroke-opacity="0.200000" points="544,-6.6 550,-4.5 544,-2.4 544,-6.6"/>
</g>
<!-- summary.mjs&#45;&gt;rule&#45;set.mjs -->
<g id="edge50" class="edge">
<title>summary.mjs&#45;&gt;rule&#45;set.mjs</title>
<path fill="none" stroke="#000000" stroke-width="2" stroke-opacity="0.200000" d="M203.23,-62.5C203.23,-62.5 386.31,-62.5 386.31,-62.5"/>
<polygon fill="#000000" fill-opacity="0.200000" stroke="#000000" stroke-width="2" stroke-opacity="0.200000" points="386.31,-64.6 392.31,-62.5 386.31,-60.4 386.31,-64.6"/>
</g>
<!-- options&#45;used.mjs -->
<g id="node21" class="node">
<title>options&#45;used.mjs</title>
<g id="a_node21"><a xlink:href="https://github.com/sverweij/dependency-cruiser/blob/develop/tools/schema/options-used.mjs" xlink:title="options&#45;used.mjs">
<path fill="#ffffcc" stroke="black" d="M314.5,-312C314.5,-312 240.5,-312 240.5,-312 237.5,-312 234.5,-309 234.5,-306 234.5,-306 234.5,-300 234.5,-300 234.5,-297 237.5,-294 240.5,-294 240.5,-294 314.5,-294 314.5,-294 317.5,-294 320.5,-297 320.5,-300 320.5,-300 320.5,-306 320.5,-306 320.5,-309 317.5,-312 314.5,-312"/>
<text text-anchor="middle" x="277.5" y="-300.8" font-family="Helvetica,sans-Serif" font-size="9.00">options&#45;used.mjs</text>
</a>
</g>
</g>
<!-- summary.mjs&#45;&gt;options&#45;used.mjs -->
<g id="edge49" class="edge">
<title>summary.mjs&#45;&gt;options&#45;used.mjs</title>
<path fill="none" stroke="#000000" stroke-width="2" stroke-opacity="0.200000" d="M203.36,-58.25C207.34,-58.25 210,-58.25 210,-58.25 210,-58.25 210,-303 210,-303 210,-303 228.37,-303 228.37,-303"/>
<polygon fill="#000000" fill-opacity="0.200000" stroke="#000000" stroke-width="2" stroke-opacity="0.200000" points="228.37,-305.1 234.37,-303 228.37,-300.9 228.37,-305.1"/>
</g>
<!-- dependencies.mjs&#45;&gt;dependency&#45;type.mjs -->
<g id="edge12" class="edge">
<title>dependencies.mjs&#45;&gt;dependency&#45;type.mjs</title>
<path fill="none" stroke="#000000" stroke-width="2" stroke-opacity="0.200000" d="M632.12,-168C632.12,-168 691.88,-168 691.88,-168"/>
<polygon fill="#000000" fill-opacity="0.200000" stroke="#000000" stroke-width="2" stroke-opacity="0.200000" points="691.88,-170.1 697.88,-168 691.88,-165.9 691.88,-170.1"/>
</g>
<!-- module&#45;system&#45;type.mjs -->
<g id="node18" class="node">
<title>module&#45;system&#45;type.mjs</title>
<g id="a_node18"><a xlink:href="https://github.com/sverweij/dependency-cruiser/blob/develop/tools/schema/module-system-type.mjs" xlink:title="module&#45;system&#45;type.mjs">
<polygon fill="white" stroke="transparent" points="808,-142 692,-142 692,-124 808,-124 808,-142"/>
<polyline fill="none" stroke="black" points="692,-124 808,-124 "/>
<text text-anchor="middle" x="750" y="-130.8" font-family="Helvetica,sans-Serif" font-size="9.00">module&#45;system&#45;type.mjs</text>
</a>
</g>
</g>
<!-- dependencies.mjs&#45;&gt;module&#45;system&#45;type.mjs -->
<g id="edge13" class="edge">
<title>dependencies.mjs&#45;&gt;module&#45;system&#45;type.mjs</title>
<path fill="none" stroke="#000000" stroke-width="2" stroke-opacity="0.200000" d="M630,-153.98C630,-144.21 630,-130 630,-130 630,-130 685.76,-130 685.76,-130"/>
<polygon fill="#000000" fill-opacity="0.200000" stroke="#000000" stroke-width="2" stroke-opacity="0.200000" points="685.76,-132.1 691.76,-130 685.76,-127.9 685.76,-132.1"/>
</g>
<!-- dependencies.mjs&#45;&gt;rule&#45;summary.mjs -->
<g id="edge14" class="edge">
<title>dependencies.mjs&#45;&gt;rule&#45;summary.mjs</title>
<path fill="none" stroke="#000000" stroke-width="2" stroke-opacity="0.200000" d="M627,-153.66C627,-125.61 627,-44 627,-44 627,-44 699.25,-44 699.25,-44"/>
<polygon fill="#000000" fill-opacity="0.200000" stroke="#000000" stroke-width="2" stroke-opacity="0.200000" points="699.25,-46.1 705.25,-44 699.25,-41.9 699.25,-46.1"/>
</g>
<!-- rule&#45;summary.mjs&#45;&gt;severity&#45;type.mjs -->
<g id="edge48" class="edge">
<title>rule&#45;summary.mjs&#45;&gt;severity&#45;type.mjs</title>
<path fill="none" stroke="#000000" stroke-width="2" stroke-opacity="0.200000" d="M794.78,-41C831.34,-41 877,-41 877,-41 877,-41 877,-25.13 877,-25.13"/>
<polygon fill="#000000" fill-opacity="0.200000" stroke="#000000" stroke-width="2" stroke-opacity="0.200000" points="879.1,-25.13 877,-19.13 874.9,-25.13 879.1,-25.13"/>
</g>
<!-- module&#45;systems&#45;type.mjs&#45;&gt;module&#45;system&#45;type.mjs -->
<g id="edge16" class="edge">
<title>module&#45;systems&#45;type.mjs&#45;&gt;module&#45;system&#45;type.mjs</title>
<path fill="none" stroke="#000000" stroke-width="2" stroke-opacity="0.200000" d="M638,-247.91C638,-219.77 638,-136 638,-136 638,-136 685.7,-136 685.7,-136"/>
<polygon fill="#000000" fill-opacity="0.200000" stroke="#000000" stroke-width="2" stroke-opacity="0.200000" points="685.7,-138.1 691.7,-136 685.7,-133.9 685.7,-138.1"/>
</g>
<!-- options&#45;used.mjs&#45;&gt;compound&#45;donot&#45;follow&#45;type.mjs -->
<g id="edge20" class="edge">
<title>options&#45;used.mjs&#45;&gt;compound&#45;donot&#45;follow&#45;type.mjs</title>
<path fill="none" stroke="#000000" stroke-width="2" stroke-opacity="0.200000" d="M320.51,-309.43C388.95,-309.43 515,-309.43 515,-309.43 515,-309.43 515,-543.82 515,-543.82"/>
<polygon fill="#000000" fill-opacity="0.200000" stroke="#000000" stroke-width="2" stroke-opacity="0.200000" points="512.9,-543.82 515,-549.82 517.1,-543.82 512.9,-543.82"/>
</g>
<!-- options&#45;used.mjs&#45;&gt;compound&#45;exclude&#45;type.mjs -->
<g id="edge21" class="edge">
<title>options&#45;used.mjs&#45;&gt;compound&#45;exclude&#45;type.mjs</title>
<path fill="none" stroke="#000000" stroke-width="2" stroke-opacity="0.200000" d="M264,-312.1C264,-348.47 264,-481.5 264,-481.5 264,-481.5 677.95,-481.5 677.95,-481.5"/>
<polygon fill="#000000" fill-opacity="0.200000" stroke="#000000" stroke-width="2" stroke-opacity="0.200000" points="677.95,-483.6 683.95,-481.5 677.95,-479.4 677.95,-483.6"/>
</g>
<!-- options&#45;used.mjs&#45;&gt;compound&#45;focus&#45;type.mjs -->
<g id="edge22" class="edge">
<title>options&#45;used.mjs&#45;&gt;compound&#45;focus&#45;type.mjs</title>
<path fill="none" stroke="#000000" stroke-width="2" stroke-opacity="0.200000" d="M292,-312.03C292,-340.8 292,-428.5 292,-428.5 292,-428.5 682.71,-428.5 682.71,-428.5"/>
<polygon fill="#000000" fill-opacity="0.200000" stroke="#000000" stroke-width="2" stroke-opacity="0.200000" points="682.71,-430.6 688.71,-428.5 682.71,-426.4 682.71,-430.6"/>
</g>
<!-- options&#45;used.mjs&#45;&gt;compound&#45;include&#45;only&#45;type.mjs -->
<g id="edge23" class="edge">
<title>options&#45;used.mjs&#45;&gt;compound&#45;include&#45;only&#45;type.mjs</title>
<path fill="none" stroke="#000000" stroke-width="2" stroke-opacity="0.200000" d="M320.74,-306.86C424.3,-306.86 678,-306.86 678,-306.86 678,-306.86 678,-362.99 678,-362.99"/>
<polygon fill="#000000" fill-opacity="0.200000" stroke="#000000" stroke-width="2" stroke-opacity="0.200000" points="675.9,-362.99 678,-368.99 680.1,-362.99 675.9,-362.99"/>
</g>
<!-- options&#45;used.mjs&#45;&gt;options.mjs -->
<g id="edge26" class="edge">
<title>options&#45;used.mjs&#45;&gt;options.mjs</title>
<path fill="none" stroke="#000000" stroke-width="2" stroke-opacity="0.200000" d="M320.69,-299.14C356.65,-299.14 402,-299.14 402,-299.14 402,-299.14 402,-272.35 402,-272.35"/>
<polygon fill="#000000" fill-opacity="0.200000" stroke="#000000" stroke-width="2" stroke-opacity="0.200000" points="404.1,-272.35 402,-266.35 399.9,-272.35 404.1,-272.35"/>
</g>
<!-- options&#45;used.mjs&#45;&gt;dependency&#45;type.mjs -->
<g id="edge24" class="edge">
<title>options&#45;used.mjs&#45;&gt;dependency&#45;type.mjs</title>
<path fill="none" stroke="#000000" stroke-width="2" stroke-opacity="0.200000" d="M320.6,-304.29C440.29,-304.29 768,-304.29 768,-304.29 768,-304.29 768,-180.14 768,-180.14"/>
<polygon fill="#000000" fill-opacity="0.200000" stroke="#000000" stroke-width="2" stroke-opacity="0.200000" points="770.1,-180.14 768,-174.14 765.9,-180.14 770.1,-180.14"/>
</g>
<!-- options&#45;used.mjs&#45;&gt;module&#45;systems&#45;type.mjs -->
<g id="edge25" class="edge">
<title>options&#45;used.mjs&#45;&gt;module&#45;systems&#45;type.mjs</title>
<path fill="none" stroke="#000000" stroke-width="2" stroke-opacity="0.200000" d="M320.72,-301.71C405.62,-301.71 586,-301.71 586,-301.71 586,-301.71 586,-272.05 586,-272.05"/>
<polygon fill="#000000" fill-opacity="0.200000" stroke="#000000" stroke-width="2" stroke-opacity="0.200000" points="588.1,-272.05 586,-266.05 583.9,-272.05 588.1,-272.05"/>
</g>
<!-- output&#45;type.mjs -->
<g id="node22" class="node">
<title>output&#45;type.mjs</title>
<g id="a_node22"><a xlink:href="https://github.com/sverweij/dependency-cruiser/blob/develop/tools/schema/output-type.mjs" xlink:title="output&#45;type.mjs">
<polygon fill="white" stroke="transparent" points="464,-165 385,-165 385,-147 464,-147 464,-165"/>
<polyline fill="none" stroke="black" points="385,-147 464,-147 "/>
<text text-anchor="middle" x="424.5" y="-153.8" font-family="Helvetica,sans-Serif" font-size="9.00">output&#45;type.mjs</text>
</a>
</g>
</g>
<!-- options&#45;used.mjs&#45;&gt;output&#45;type.mjs -->
<g id="edge27" class="edge">
<title>options&#45;used.mjs&#45;&gt;output&#45;type.mjs</title>
<path fill="none" stroke="#000000" stroke-width="2" stroke-opacity="0.200000" d="M320.63,-296.57C333.86,-296.57 345,-296.57 345,-296.57 345,-296.57 345,-156.5 345,-156.5 345,-156.5 378.75,-156.5 378.75,-156.5"/>
<polygon fill="#000000" fill-opacity="0.200000" stroke="#000000" stroke-width="2" stroke-opacity="0.200000" points="378.75,-158.6 384.75,-156.5 378.75,-154.4 378.75,-158.6"/>
</g>
<!-- options&#45;used.mjs&#45;&gt;reporter&#45;options.mjs -->
<g id="edge28" class="edge">
<title>options&#45;used.mjs&#45;&gt;reporter&#45;options.mjs</title>
<path fill="none" stroke="#000000" stroke-width="2" stroke-opacity="0.200000" d="M278,-293.8C278,-268.43 278,-199.33 278,-199.33 278,-199.33 530.86,-199.33 530.86,-199.33"/>
<polygon fill="#000000" fill-opacity="0.200000" stroke="#000000" stroke-width="2" stroke-opacity="0.200000" points="530.86,-201.43 536.86,-199.33 530.86,-197.23 530.86,-201.43"/>
</g>
<!-- reporter&#45;options.mjs&#45;&gt;re&#45;as&#45;strings&#45;type.mjs -->
<g id="edge43" class="edge">
<title>reporter&#45;options.mjs&#45;&gt;re&#45;as&#45;strings&#45;type.mjs</title>
<path fill="none" stroke="#000000" stroke-width="2" stroke-opacity="0.200000" d="M635.06,-189C709.39,-189 842,-189 842,-189 842,-189 842,-346.7 842,-346.7"/>
<polygon fill="#000000" fill-opacity="0.200000" stroke="#000000" stroke-width="2" stroke-opacity="0.200000" points="839.9,-346.7 842,-352.7 844.1,-346.7 839.9,-346.7"/>
</g>
<!-- reporter&#45;options.mjs&#45;&gt;compound&#45;exclude&#45;type.mjs -->
<g id="edge39" class="edge">
<title>reporter&#45;options.mjs&#45;&gt;compound&#45;exclude&#45;type.mjs</title>
<path fill="none" stroke="#000000" stroke-width="2" stroke-opacity="0.200000" d="M635.06,-201C645.78,-201 654,-201 654,-201 654,-201 654,-472.5 654,-472.5 654,-472.5 677.85,-472.5 677.85,-472.5"/>
<polygon fill="#000000" fill-opacity="0.200000" stroke="#000000" stroke-width="2" stroke-opacity="0.200000" points="677.85,-474.6 683.85,-472.5 677.85,-470.4 677.85,-474.6"/>
</g>
<!-- reporter&#45;options.mjs&#45;&gt;compound&#45;focus&#45;type.mjs -->
<g id="edge40" class="edge">
<title>reporter&#45;options.mjs&#45;&gt;compound&#45;focus&#45;type.mjs</title>
<path fill="none" stroke="#000000" stroke-width="2" stroke-opacity="0.200000" d="M635.22,-198C647.88,-198 658,-198 658,-198 658,-198 658,-419.5 658,-419.5 658,-419.5 682.89,-419.5 682.89,-419.5"/>
<polygon fill="#000000" fill-opacity="0.200000" stroke="#000000" stroke-width="2" stroke-opacity="0.200000" points="682.89,-421.6 688.89,-419.5 682.89,-417.4 682.89,-421.6"/>
</g>
<!-- reporter&#45;options.mjs&#45;&gt;compound&#45;include&#45;only&#45;type.mjs -->
<g id="edge41" class="edge">
<title>reporter&#45;options.mjs&#45;&gt;compound&#45;include&#45;only&#45;type.mjs</title>
<path fill="none" stroke="#000000" stroke-width="2" stroke-opacity="0.200000" d="M635.17,-195C658.35,-195 681,-195 681,-195 681,-195 681,-362.93 681,-362.93"/>
<polygon fill="#000000" fill-opacity="0.200000" stroke="#000000" stroke-width="2" stroke-opacity="0.200000" points="678.9,-362.92 681,-368.93 683.1,-362.93 678.9,-362.92"/>
</g>
<!-- reporter&#45;options.mjs&#45;&gt;compound&#45;reaches&#45;type.mjs -->
<g id="edge42" class="edge">
<title>reporter&#45;options.mjs&#45;&gt;compound&#45;reaches&#45;type.mjs</title>
<path fill="none" stroke="#000000" stroke-width="2" stroke-opacity="0.200000" d="M635.21,-192C661.29,-192 688,-192 688,-192 688,-192 688,-330.83 688,-330.83"/>
<polygon fill="#000000" fill-opacity="0.200000" stroke="#000000" stroke-width="2" stroke-opacity="0.200000" points="685.9,-330.83 688,-336.83 690.1,-330.83 685.9,-330.83"/>
</g>
<!-- restrictions.mjs&#45;&gt;re&#45;as&#45;strings&#45;type.mjs -->
<g id="edge45" class="edge">
<title>restrictions.mjs&#45;&gt;re&#45;as&#45;strings&#45;type.mjs</title>
<path fill="none" stroke="#000000" stroke-width="2" stroke-opacity="0.200000" d="M624.63,-98C696.6,-98 844,-98 844,-98 844,-98 844,-346.91 844,-346.91"/>
<polygon fill="#000000" fill-opacity="0.200000" stroke="#000000" stroke-width="2" stroke-opacity="0.200000" points="841.9,-346.91 844,-352.91 846.1,-346.91 841.9,-346.91"/>
</g>
<!-- restrictions.mjs&#45;&gt;dependency&#45;type.mjs -->
<g id="edge44" class="edge">
<title>restrictions.mjs&#45;&gt;dependency&#45;type.mjs</title>
<path fill="none" stroke="#000000" stroke-width="2" stroke-opacity="0.200000" d="M624.8,-104C633.9,-104 641,-104 641,-104 641,-104 641,-164 641,-164 641,-164 691.73,-164 691.73,-164"/>
<polygon fill="#000000" fill-opacity="0.200000" stroke="#000000" stroke-width="2" stroke-opacity="0.200000" points="691.73,-166.1 697.73,-164 691.73,-161.9 691.73,-166.1"/>
</g>
</g>
</svg>
