<?xml version="1.0" encoding="UTF-8" standalone="no"?>
<!DOCTYPE svg PUBLIC "-//W3C//DTD SVG 1.1//EN"
 "http://www.w3.org/Graphics/SVG/1.1/DTD/svg11.dtd">
<!-- Generated by graphviz version 2.50.0 (20211204.2007)
 -->
<!-- Title: dependency&#45;cruiser output Pages: 1 -->
<svg width="951pt" height="561pt"
 viewBox="0.00 0.00 951.00 561.00" xmlns="http://www.w3.org/2000/svg" xmlns:xlink="http://www.w3.org/1999/xlink">
<g id="graph0" class="graph" transform="scale(1 1) rotate(0) translate(4 557)">
<title>dependency&#45;cruiser output</title>
<polygon fill="white" stroke="transparent" points="-4,4 -4,-557 947,-557 947,4 -4,4"/>
<!-- baseline&#45;violations.schema.mjs -->
<g id="node1" class="node">
<title>baseline&#45;violations.schema.mjs</title>
<g id="a_node1"><a xlink:href="https://github.com/sverweij/dependency-cruiser/blob/develop/tools/schema/baseline-violations.schema.mjs" xlink:title="baseline&#45;violations.schema.mjs">
<path fill="darkgreen" stroke="darkgreen" d="M491,-33C491,-33 358,-33 358,-33 355,-33 352,-30 352,-27 352,-27 352,-21 352,-21 352,-18 355,-15 358,-15 358,-15 491,-15 491,-15 494,-15 497,-18 497,-21 497,-21 497,-27 497,-27 497,-30 494,-33 491,-33"/>
<text text-anchor="middle" x="424.5" y="-21.8" font-family="Helvetica,sans-Serif" font-size="9.00" fill="#ffffcc">baseline&#45;violations.schema.mjs</text>
</a>
</g>
</g>
<!-- violations.mjs -->
<g id="node2" class="node">
<title>violations.mjs</title>
<g id="a_node2"><a xlink:href="https://github.com/sverweij/dependency-cruiser/blob/develop/tools/schema/violations.mjs" xlink:title="violations.mjs">
<path fill="#ffffcc" stroke="black" d="M616,-33C616,-33 556,-33 556,-33 553,-33 550,-30 550,-27 550,-27 550,-21 550,-21 550,-18 553,-15 556,-15 556,-15 616,-15 616,-15 619,-15 622,-18 622,-21 622,-21 622,-27 622,-27 622,-30 619,-33 616,-33"/>
<text text-anchor="middle" x="586" y="-21.8" font-family="Helvetica,sans-Serif" font-size="9.00">violations.mjs</text>
</a>
</g>
</g>
<!-- baseline&#45;violations.schema.mjs&#45;&gt;violations.mjs -->
<g id="edge1" class="edge">
<title>baseline&#45;violations.schema.mjs&#45;&gt;violations.mjs</title>
<path fill="none" stroke="#000000" stroke-width="2" stroke-opacity="0.200000" d="M497.22,-19.5C497.22,-19.5 543.85,-19.5 543.85,-19.5"/>
<polygon fill="#000000" fill-opacity="0.200000" stroke="#000000" stroke-width="2" stroke-opacity="0.200000" points="543.85,-21.6 549.85,-19.5 543.85,-17.4 543.85,-21.6"/>
</g>
<!-- rule&#45;summary.mjs -->
<g id="node18" class="node">
<title>rule&#45;summary.mjs</title>
<g id="a_node18"><a xlink:href="https://github.com/sverweij/dependency-cruiser/blob/develop/tools/schema/rule-summary.mjs" xlink:title="rule&#45;summary.mjs">
<path fill="#ffffcc" stroke="black" d="M788.5,-421C788.5,-421 711.5,-421 711.5,-421 708.5,-421 705.5,-418 705.5,-415 705.5,-415 705.5,-409 705.5,-409 705.5,-406 708.5,-403 711.5,-403 711.5,-403 788.5,-403 788.5,-403 791.5,-403 794.5,-406 794.5,-409 794.5,-409 794.5,-415 794.5,-415 794.5,-418 791.5,-421 788.5,-421"/>
<text text-anchor="middle" x="750" y="-409.8" font-family="Helvetica,sans-Serif" font-size="9.00">rule&#45;summary.mjs</text>
</a>
</g>
</g>
<!-- violations.mjs&#45;&gt;rule&#45;summary.mjs -->
<g id="edge48" class="edge">
<title>violations.mjs&#45;&gt;rule&#45;summary.mjs</title>
<path fill="none" stroke="#000000" stroke-width="2" stroke-opacity="0.200000" d="M622.09,-25.5C637.5,-25.5 652,-25.5 652,-25.5 652,-25.5 652,-406.33 652,-406.33 652,-406.33 699.3,-406.33 699.3,-406.33"/>
<polygon fill="#000000" fill-opacity="0.200000" stroke="#000000" stroke-width="2" stroke-opacity="0.200000" points="699.3,-408.43 705.3,-406.33 699.3,-404.23 699.3,-408.43"/>
</g>
<!-- violation&#45;type.mjs -->
<g id="node25" class="node">
<title>violation&#45;type.mjs</title>
<g id="a_node25"><a xlink:href="https://github.com/sverweij/dependency-cruiser/blob/develop/tools/schema/violation-type.mjs" xlink:title="violation&#45;type.mjs">
<polygon fill="white" stroke="transparent" points="794,-18 706,-18 706,0 794,0 794,-18"/>
<polyline fill="none" stroke="black" points="706,0 794,0 "/>
<text text-anchor="middle" x="750" y="-6.8" font-family="Helvetica,sans-Serif" font-size="9.00">violation&#45;type.mjs</text>
</a>
</g>
</g>
<!-- violations.mjs&#45;&gt;violation&#45;type.mjs -->
<g id="edge49" class="edge">
<title>violations.mjs&#45;&gt;violation&#45;type.mjs</title>
<path fill="none" stroke="#000000" stroke-width="2" stroke-opacity="0.200000" d="M586,-14.98C586,-11.13 586,-7.5 586,-7.5 586,-7.5 699.62,-7.5 699.62,-7.5"/>
<polygon fill="#000000" fill-opacity="0.200000" stroke="#000000" stroke-width="2" stroke-opacity="0.200000" points="699.62,-9.6 705.62,-7.5 699.62,-5.4 699.62,-9.6"/>
</g>
<!-- compound&#45;donot&#45;follow&#45;type.mjs -->
<g id="node3" class="node">
<title>compound&#45;donot&#45;follow&#45;type.mjs</title>
<g id="a_node3"><a xlink:href="https://github.com/sverweij/dependency-cruiser/blob/develop/tools/schema/compound-donot-follow-type.mjs" xlink:title="compound&#45;donot&#45;follow&#45;type.mjs">
<polygon fill="white" stroke="transparent" points="661,-431 511,-431 511,-413 661,-413 661,-431"/>
<polyline fill="none" stroke="black" points="511,-413 661,-413 "/>
<text text-anchor="middle" x="586" y="-419.8" font-family="Helvetica,sans-Serif" font-size="9.00">compound&#45;donot&#45;follow&#45;type.mjs</text>
</a>
</g>
</g>
<!-- re&#45;as&#45;strings&#45;type.mjs -->
<g id="node4" class="node">
<title>re&#45;as&#45;strings&#45;type.mjs</title>
<g id="a_node4"><a xlink:href="https://github.com/sverweij/dependency-cruiser/blob/develop/tools/schema/re-as-strings-type.mjs" xlink:title="re&#45;as&#45;strings&#45;type.mjs">
<polygon fill="white" stroke="transparent" points="943,-250 839,-250 839,-232 943,-232 943,-250"/>
<polyline fill="none" stroke="black" points="839,-232 943,-232 "/>
<text text-anchor="middle" x="891" y="-238.8" font-family="Helvetica,sans-Serif" font-size="9.00">re&#45;as&#45;strings&#45;type.mjs</text>
</a>
</g>
</g>
<!-- compound&#45;donot&#45;follow&#45;type.mjs&#45;&gt;re&#45;as&#45;strings&#45;type.mjs -->
<g id="edge2" class="edge">
<title>compound&#45;donot&#45;follow&#45;type.mjs&#45;&gt;re&#45;as&#45;strings&#45;type.mjs</title>
<path fill="none" stroke="#000000" stroke-width="2" stroke-opacity="0.200000" d="M661.14,-426C738.25,-426 847,-426 847,-426 847,-426 847,-256.17 847,-256.17"/>
<polygon fill="#000000" fill-opacity="0.200000" stroke="#000000" stroke-width="2" stroke-opacity="0.200000" points="849.1,-256.17 847,-250.17 844.9,-256.17 849.1,-256.17"/>
</g>
<!-- compound&#45;exclude&#45;type.mjs -->
<g id="node5" class="node">
<title>compound&#45;exclude&#45;type.mjs</title>
<g id="a_node5"><a xlink:href="https://github.com/sverweij/dependency-cruiser/blob/develop/tools/schema/compound-exclude-type.mjs" xlink:title="compound&#45;exclude&#45;type.mjs">
<polygon fill="white" stroke="transparent" points="816,-331 684,-331 684,-313 816,-313 816,-331"/>
<polyline fill="none" stroke="black" points="684,-313 816,-313 "/>
<text text-anchor="middle" x="750" y="-319.8" font-family="Helvetica,sans-Serif" font-size="9.00">compound&#45;exclude&#45;type.mjs</text>
</a>
</g>
</g>
<!-- compound&#45;exclude&#45;type.mjs&#45;&gt;re&#45;as&#45;strings&#45;type.mjs -->
<g id="edge3" class="edge">
<title>compound&#45;exclude&#45;type.mjs&#45;&gt;re&#45;as&#45;strings&#45;type.mjs</title>
<path fill="none" stroke="#000000" stroke-width="2" stroke-opacity="0.200000" d="M816.05,-322C831.73,-322 844,-322 844,-322 844,-322 844,-256.29 844,-256.29"/>
<polygon fill="#000000" fill-opacity="0.200000" stroke="#000000" stroke-width="2" stroke-opacity="0.200000" points="846.1,-256.29 844,-250.29 841.9,-256.29 846.1,-256.29"/>
</g>
<!-- compound&#45;focus&#45;type.mjs -->
<g id="node6" class="node">
<title>compound&#45;focus&#45;type.mjs</title>
<g id="a_node6"><a xlink:href="https://github.com/sverweij/dependency-cruiser/blob/develop/tools/schema/compound-focus-type.mjs" xlink:title="compound&#45;focus&#45;type.mjs">
<polygon fill="white" stroke="transparent" points="811,-296 689,-296 689,-278 811,-278 811,-296"/>
<polyline fill="none" stroke="black" points="689,-278 811,-278 "/>
<text text-anchor="middle" x="750" y="-284.8" font-family="Helvetica,sans-Serif" font-size="9.00">compound&#45;focus&#45;type.mjs</text>
</a>
</g>
</g>
<!-- compound&#45;focus&#45;type.mjs&#45;&gt;re&#45;as&#45;strings&#45;type.mjs -->
<g id="edge4" class="edge">
<title>compound&#45;focus&#45;type.mjs&#45;&gt;re&#45;as&#45;strings&#45;type.mjs</title>
<path fill="none" stroke="#000000" stroke-width="2" stroke-opacity="0.200000" d="M811.11,-287C828.1,-287 842,-287 842,-287 842,-287 842,-256.31 842,-256.31"/>
<polygon fill="#000000" fill-opacity="0.200000" stroke="#000000" stroke-width="2" stroke-opacity="0.200000" points="844.1,-256.31 842,-250.31 839.9,-256.31 844.1,-256.31"/>
</g>
<!-- compound&#45;include&#45;only&#45;type.mjs -->
<g id="node7" class="node">
<title>compound&#45;include&#45;only&#45;type.mjs</title>
<g id="a_node7"><a xlink:href="https://github.com/sverweij/dependency-cruiser/blob/develop/tools/schema/compound-include-only-type.mjs" xlink:title="compound&#45;include&#45;only&#45;type.mjs">
<polygon fill="white" stroke="transparent" points="825,-250 675,-250 675,-232 825,-232 825,-250"/>
<polyline fill="none" stroke="black" points="675,-232 825,-232 "/>
<text text-anchor="middle" x="750" y="-238.8" font-family="Helvetica,sans-Serif" font-size="9.00">compound&#45;include&#45;only&#45;type.mjs</text>
</a>
</g>
</g>
<!-- compound&#45;include&#45;only&#45;type.mjs&#45;&gt;re&#45;as&#45;strings&#45;type.mjs -->
<g id="edge5" class="edge">
<title>compound&#45;include&#45;only&#45;type.mjs&#45;&gt;re&#45;as&#45;strings&#45;type.mjs</title>
<path fill="none" stroke="#000000" stroke-width="2" stroke-opacity="0.200000" d="M825.04,-241C825.04,-241 832.7,-241 832.7,-241"/>
<polygon fill="#000000" fill-opacity="0.200000" stroke="#000000" stroke-width="2" stroke-opacity="0.200000" points="832.7,-243.1 838.7,-241 832.7,-238.9 832.7,-243.1"/>
</g>
<!-- configuration.schema.mjs -->
<g id="node8" class="node">
<title>configuration.schema.mjs</title>
<g id="a_node8"><a xlink:href="https://github.com/sverweij/dependency-cruiser/blob/develop/tools/schema/configuration.schema.mjs" xlink:title="configuration.schema.mjs">
<path fill="darkgreen" stroke="darkgreen" d="M332,-209C332,-209 223,-209 223,-209 220,-209 217,-206 217,-203 217,-203 217,-197 217,-197 217,-194 220,-191 223,-191 223,-191 332,-191 332,-191 335,-191 338,-194 338,-197 338,-197 338,-203 338,-203 338,-206 335,-209 332,-209"/>
<text text-anchor="middle" x="277.5" y="-197.8" font-family="Helvetica,sans-Serif" font-size="9.00" fill="#ffffcc">configuration.schema.mjs</text>
</a>
</g>
</g>
<!-- options.mjs -->
<g id="node9" class="node">
<title>options.mjs</title>
<g id="a_node9"><a xlink:href="https://github.com/sverweij/dependency-cruiser/blob/develop/tools/schema/options.mjs" xlink:title="options.mjs">
<path fill="#ffffcc" stroke="black" d="M450,-217C450,-217 399,-217 399,-217 396,-217 393,-214 393,-211 393,-211 393,-205 393,-205 393,-202 396,-199 399,-199 399,-199 450,-199 450,-199 453,-199 456,-202 456,-205 456,-205 456,-211 456,-211 456,-214 453,-217 450,-217"/>
<text text-anchor="middle" x="424.5" y="-205.8" font-family="Helvetica,sans-Serif" font-size="9.00">options.mjs</text>
</a>
</g>
</g>
<!-- configuration.schema.mjs&#45;&gt;options.mjs -->
<g id="edge6" class="edge">
<title>configuration.schema.mjs&#45;&gt;options.mjs</title>
<path fill="none" stroke="#000000" stroke-width="2" stroke-opacity="0.200000" d="M338.14,-204C338.14,-204 386.95,-204 386.95,-204"/>
<polygon fill="#000000" fill-opacity="0.200000" stroke="#000000" stroke-width="2" stroke-opacity="0.200000" points="386.95,-206.1 392.95,-204 386.95,-201.9 386.95,-206.1"/>
</g>
<!-- rule&#45;set.mjs -->
<g id="node10" class="node">
<title>rule&#45;set.mjs</title>
<g id="a_node10"><a xlink:href="https://github.com/sverweij/dependency-cruiser/blob/develop/tools/schema/rule-set.mjs" xlink:title="rule&#45;set.mjs">
<path fill="#ffffcc" stroke="black" d="M450.5,-105C450.5,-105 398.5,-105 398.5,-105 395.5,-105 392.5,-102 392.5,-99 392.5,-99 392.5,-93 392.5,-93 392.5,-90 395.5,-87 398.5,-87 398.5,-87 450.5,-87 450.5,-87 453.5,-87 456.5,-90 456.5,-93 456.5,-93 456.5,-99 456.5,-99 456.5,-102 453.5,-105 450.5,-105"/>
<text text-anchor="middle" x="424.5" y="-93.8" font-family="Helvetica,sans-Serif" font-size="9.00">rule&#45;set.mjs</text>
</a>
</g>
</g>
<!-- configuration.schema.mjs&#45;&gt;rule&#45;set.mjs -->
<g id="edge7" class="edge">
<title>configuration.schema.mjs&#45;&gt;rule&#45;set.mjs</title>
<path fill="none" stroke="#000000" stroke-width="2" stroke-opacity="0.200000" d="M278,-190.68C278,-165.68 278,-99 278,-99 278,-99 386.35,-99 386.35,-99"/>
<polygon fill="#000000" fill-opacity="0.200000" stroke="#000000" stroke-width="2" stroke-opacity="0.200000" points="386.35,-101.1 392.35,-99 386.35,-96.9 386.35,-101.1"/>
</g>
<!-- options.mjs&#45;&gt;violations.mjs -->
<g id="edge35" class="edge">
<title>options.mjs&#45;&gt;violations.mjs</title>
<path fill="none" stroke="#000000" stroke-width="2" stroke-opacity="0.200000" d="M456.21,-203.5C485,-203.5 523,-203.5 523,-203.5 523,-203.5 523,-28.5 523,-28.5 523,-28.5 543.72,-28.5 543.72,-28.5"/>
<polygon fill="#000000" fill-opacity="0.200000" stroke="#000000" stroke-width="2" stroke-opacity="0.200000" points="543.72,-30.6 549.72,-28.5 543.72,-26.4 543.72,-30.6"/>
</g>
<!-- options.mjs&#45;&gt;compound&#45;donot&#45;follow&#45;type.mjs -->
<g id="edge27" class="edge">
<title>options.mjs&#45;&gt;compound&#45;donot&#45;follow&#45;type.mjs</title>
<path fill="none" stroke="#000000" stroke-width="2" stroke-opacity="0.200000" d="M456.23,-212.5C483.68,-212.5 519,-212.5 519,-212.5 519,-212.5 519,-407 519,-407"/>
<polygon fill="#000000" fill-opacity="0.200000" stroke="#000000" stroke-width="2" stroke-opacity="0.200000" points="516.9,-407 519,-413 521.1,-407 516.9,-407"/>
</g>
<!-- options.mjs&#45;&gt;re&#45;as&#45;strings&#45;type.mjs -->
<g id="edge33" class="edge">
<title>options.mjs&#45;&gt;re&#45;as&#45;strings&#45;type.mjs</title>
<path fill="none" stroke="#000000" stroke-width="2" stroke-opacity="0.200000" d="M456.18,-208C557.18,-208 865,-208 865,-208 865,-208 865,-225.98 865,-225.98"/>
<polygon fill="#000000" fill-opacity="0.200000" stroke="#000000" stroke-width="2" stroke-opacity="0.200000" points="862.9,-225.98 865,-231.98 867.1,-225.98 862.9,-225.98"/>
</g>
<!-- options.mjs&#45;&gt;compound&#45;exclude&#45;type.mjs -->
<g id="edge28" class="edge">
<title>options.mjs&#45;&gt;compound&#45;exclude&#45;type.mjs</title>
<path fill="none" stroke="#000000" stroke-width="2" stroke-opacity="0.200000" d="M435,-217C435,-243.27 435,-318 435,-318 435,-318 677.97,-318 677.97,-318"/>
<polygon fill="#000000" fill-opacity="0.200000" stroke="#000000" stroke-width="2" stroke-opacity="0.200000" points="677.97,-320.1 683.97,-318 677.97,-315.9 677.97,-320.1"/>
</g>
<!-- options.mjs&#45;&gt;compound&#45;focus&#45;type.mjs -->
<g id="edge29" class="edge">
<title>options.mjs&#45;&gt;compound&#45;focus&#45;type.mjs</title>
<path fill="none" stroke="#000000" stroke-width="2" stroke-opacity="0.200000" d="M446,-217.14C446,-237.53 446,-285 446,-285 446,-285 682.85,-285 682.85,-285"/>
<polygon fill="#000000" fill-opacity="0.200000" stroke="#000000" stroke-width="2" stroke-opacity="0.200000" points="682.85,-287.1 688.85,-285 682.85,-282.9 682.85,-287.1"/>
</g>
<!-- options.mjs&#45;&gt;compound&#45;include&#45;only&#45;type.mjs -->
<g id="edge30" class="edge">
<title>options.mjs&#45;&gt;compound&#45;include&#45;only&#45;type.mjs</title>
<path fill="none" stroke="#000000" stroke-width="2" stroke-opacity="0.200000" d="M456.04,-210.25C525.59,-210.25 686,-210.25 686,-210.25 686,-210.25 686,-225.94 686,-225.94"/>
<polygon fill="#000000" fill-opacity="0.200000" stroke="#000000" stroke-width="2" stroke-opacity="0.200000" points="683.9,-225.94 686,-231.94 688.1,-225.94 683.9,-225.94"/>
</g>
<!-- dependency&#45;type.mjs -->
<g id="node16" class="node">
<title>dependency&#45;type.mjs</title>
<g id="a_node16"><a xlink:href="https://github.com/sverweij/dependency-cruiser/blob/develop/tools/schema/dependency-type.mjs" xlink:title="dependency&#45;type.mjs">
<polygon fill="white" stroke="transparent" points="802,-492 698,-492 698,-474 802,-474 802,-492"/>
<polyline fill="none" stroke="black" points="698,-474 802,-474 "/>
<text text-anchor="middle" x="750" y="-480.8" font-family="Helvetica,sans-Serif" font-size="9.00">dependency&#45;type.mjs</text>
</a>
</g>
</g>
<!-- options.mjs&#45;&gt;dependency&#45;type.mjs -->
<g id="edge31" class="edge">
<title>options.mjs&#45;&gt;dependency&#45;type.mjs</title>
<path fill="none" stroke="#000000" stroke-width="2" stroke-opacity="0.200000" d="M456.04,-214.75C465.3,-214.75 473,-214.75 473,-214.75 473,-214.75 473,-480 473,-480 473,-480 691.9,-480 691.9,-480"/>
<polygon fill="#000000" fill-opacity="0.200000" stroke="#000000" stroke-width="2" stroke-opacity="0.200000" points="691.9,-482.1 697.9,-480 691.9,-477.9 691.9,-482.1"/>
</g>
<!-- module&#45;systems&#45;type.mjs -->
<g id="node19" class="node">
<title>module&#45;systems&#45;type.mjs</title>
<g id="a_node19"><a xlink:href="https://github.com/sverweij/dependency-cruiser/blob/develop/tools/schema/module-systems-type.mjs" xlink:title="module&#45;systems&#45;type.mjs">
<polygon fill="white" stroke="transparent" points="646,-189 526,-189 526,-171 646,-171 646,-189"/>
<polyline fill="none" stroke="black" points="526,-171 646,-171 "/>
<text text-anchor="middle" x="586" y="-177.8" font-family="Helvetica,sans-Serif" font-size="9.00">module&#45;systems&#45;type.mjs</text>
</a>
</g>
</g>
<!-- options.mjs&#45;&gt;module&#45;systems&#45;type.mjs -->
<g id="edge32" class="edge">
<title>options.mjs&#45;&gt;module&#45;systems&#45;type.mjs</title>
<path fill="none" stroke="#000000" stroke-width="2" stroke-opacity="0.200000" d="M456.26,-205.75C497.97,-205.75 566,-205.75 566,-205.75 566,-205.75 566,-195.01 566,-195.01"/>
<polygon fill="#000000" fill-opacity="0.200000" stroke="#000000" stroke-width="2" stroke-opacity="0.200000" points="568.1,-195.01 566,-189.01 563.9,-195.01 568.1,-195.01"/>
</g>
<!-- reporter&#45;options.mjs -->
<g id="node22" class="node">
<title>reporter&#45;options.mjs</title>
<g id="a_node22"><a xlink:href="https://github.com/sverweij/dependency-cruiser/blob/develop/tools/schema/reporter-options.mjs" xlink:title="reporter&#45;options.mjs">
<path fill="#ffffcc" stroke="black" d="M629,-127C629,-127 543,-127 543,-127 540,-127 537,-124 537,-121 537,-121 537,-115 537,-115 537,-112 540,-109 543,-109 543,-109 629,-109 629,-109 632,-109 635,-112 635,-115 635,-115 635,-121 635,-121 635,-124 632,-127 629,-127"/>
<text text-anchor="middle" x="586" y="-115.8" font-family="Helvetica,sans-Serif" font-size="9.00">reporter&#45;options.mjs</text>
</a>
</g>
</g>
<!-- options.mjs&#45;&gt;reporter&#45;options.mjs -->
<g id="edge34" class="edge">
<title>options.mjs&#45;&gt;reporter&#45;options.mjs</title>
<path fill="none" stroke="#000000" stroke-width="2" stroke-opacity="0.200000" d="M456.05,-201.25C469,-201.25 481,-201.25 481,-201.25 481,-201.25 481,-115 481,-115 481,-115 530.88,-115 530.88,-115"/>
<polygon fill="#000000" fill-opacity="0.200000" stroke="#000000" stroke-width="2" stroke-opacity="0.200000" points="530.88,-117.1 536.88,-115 530.88,-112.9 530.88,-117.1"/>
</g>
<!-- restrictions.mjs -->
<g id="node23" class="node">
<title>restrictions.mjs</title>
<g id="a_node23"><a xlink:href="https://github.com/sverweij/dependency-cruiser/blob/develop/tools/schema/restrictions.mjs" xlink:title="restrictions.mjs">
<path fill="#ffffcc" stroke="black" d="M618.5,-95C618.5,-95 553.5,-95 553.5,-95 550.5,-95 547.5,-92 547.5,-89 547.5,-89 547.5,-83 547.5,-83 547.5,-80 550.5,-77 553.5,-77 553.5,-77 618.5,-77 618.5,-77 621.5,-77 624.5,-80 624.5,-83 624.5,-83 624.5,-89 624.5,-89 624.5,-92 621.5,-95 618.5,-95"/>
<text text-anchor="middle" x="586" y="-83.8" font-family="Helvetica,sans-Serif" font-size="9.00">restrictions.mjs</text>
</a>
</g>
</g>
<!-- rule&#45;set.mjs&#45;&gt;restrictions.mjs -->
<g id="edge42" class="edge">
<title>rule&#45;set.mjs&#45;&gt;restrictions.mjs</title>
<path fill="none" stroke="#000000" stroke-width="2" stroke-opacity="0.200000" d="M456.79,-91C456.79,-91 541.21,-91 541.21,-91"/>
<polygon fill="#000000" fill-opacity="0.200000" stroke="#000000" stroke-width="2" stroke-opacity="0.200000" points="541.21,-93.1 547.21,-91 541.21,-88.9 541.21,-93.1"/>
</g>
<!-- severity&#45;type.mjs -->
<g id="node24" class="node">
<title>severity&#45;type.mjs</title>
<g id="a_node24"><a xlink:href="https://github.com/sverweij/dependency-cruiser/blob/develop/tools/schema/severity-type.mjs" xlink:title="severity&#45;type.mjs">
<polygon fill="white" stroke="transparent" points="933.5,-351 848.5,-351 848.5,-333 933.5,-333 933.5,-351"/>
<polyline fill="none" stroke="black" points="848.5,-333 933.5,-333 "/>
<text text-anchor="middle" x="891" y="-339.8" font-family="Helvetica,sans-Serif" font-size="9.00">severity&#45;type.mjs</text>
</a>
</g>
</g>
<!-- rule&#45;set.mjs&#45;&gt;severity&#45;type.mjs -->
<g id="edge43" class="edge">
<title>rule&#45;set.mjs&#45;&gt;severity&#45;type.mjs</title>
<path fill="none" stroke="#000000" stroke-width="2" stroke-opacity="0.200000" d="M456.67,-100C518.74,-100 649,-100 649,-100 649,-100 649,-337 649,-337 649,-337 842.29,-337 842.29,-337"/>
<polygon fill="#000000" fill-opacity="0.200000" stroke="#000000" stroke-width="2" stroke-opacity="0.200000" points="842.29,-339.1 848.29,-337 842.29,-334.9 842.29,-339.1"/>
</g>
<!-- cruise&#45;result.schema.mjs -->
<g id="node11" class="node">
<title>cruise&#45;result.schema.mjs</title>
<g id="a_node11"><a xlink:href="https://github.com/sverweij/dependency-cruiser/blob/develop/tools/schema/cruise-result.schema.mjs" xlink:title="cruise&#45;result.schema.mjs">
<path fill="darkgreen" stroke="darkgreen" d="M112,-310C112,-310 6,-310 6,-310 3,-310 0,-307 0,-304 0,-304 0,-298 0,-298 0,-295 3,-292 6,-292 6,-292 112,-292 112,-292 115,-292 118,-295 118,-298 118,-298 118,-304 118,-304 118,-307 115,-310 112,-310"/>
<text text-anchor="middle" x="59" y="-298.8" font-family="Helvetica,sans-Serif" font-size="9.00" fill="#ffffcc">cruise&#45;result.schema.mjs</text>
</a>
</g>
</g>
<!-- folders.mjs -->
<g id="node12" class="node">
<title>folders.mjs</title>
<g id="a_node12"><a xlink:href="https://github.com/sverweij/dependency-cruiser/blob/develop/tools/schema/folders.mjs" xlink:title="folders.mjs">
<path fill="#ffffcc" stroke="black" d="M192,-341C192,-341 143,-341 143,-341 140,-341 137,-338 137,-335 137,-335 137,-329 137,-329 137,-326 140,-323 143,-323 143,-323 192,-323 192,-323 195,-323 198,-326 198,-329 198,-329 198,-335 198,-335 198,-338 195,-341 192,-341"/>
<text text-anchor="middle" x="167.5" y="-329.8" font-family="Helvetica,sans-Serif" font-size="9.00">folders.mjs</text>
</a>
</g>
</g>
<!-- cruise&#45;result.schema.mjs&#45;&gt;folders.mjs -->
<g id="edge8" class="edge">
<title>cruise&#45;result.schema.mjs&#45;&gt;folders.mjs</title>
<path fill="none" stroke="#000000" stroke-width="2" stroke-opacity="0.200000" d="M118.28,-306.5C143.85,-306.5 168,-306.5 168,-306.5 168,-306.5 168,-316.79 168,-316.79"/>
<polygon fill="#000000" fill-opacity="0.200000" stroke="#000000" stroke-width="2" stroke-opacity="0.200000" points="165.9,-316.79 168,-322.79 170.1,-316.79 165.9,-316.79"/>
</g>
<!-- modules.mjs -->
<g id="node13" class="node">
<title>modules.mjs</title>
<g id="a_node13"><a xlink:href="https://github.com/sverweij/dependency-cruiser/blob/develop/tools/schema/modules.mjs" xlink:title="modules.mjs">
<path fill="#ffffcc" stroke="black" d="M452.5,-462C452.5,-462 396.5,-462 396.5,-462 393.5,-462 390.5,-459 390.5,-456 390.5,-456 390.5,-450 390.5,-450 390.5,-447 393.5,-444 396.5,-444 396.5,-444 452.5,-444 452.5,-444 455.5,-444 458.5,-447 458.5,-450 458.5,-450 458.5,-456 458.5,-456 458.5,-459 455.5,-462 452.5,-462"/>
<text text-anchor="middle" x="424.5" y="-450.8" font-family="Helvetica,sans-Serif" font-size="9.00">modules.mjs</text>
</a>
</g>
</g>
<!-- cruise&#45;result.schema.mjs&#45;&gt;modules.mjs -->
<g id="edge9" class="edge">
<title>cruise&#45;result.schema.mjs&#45;&gt;modules.mjs</title>
<path fill="none" stroke="#000000" stroke-width="2" stroke-opacity="0.200000" d="M118.31,-303C216.95,-303 404,-303 404,-303 404,-303 404,-437.62 404,-437.62"/>
<polygon fill="#000000" fill-opacity="0.200000" stroke="#000000" stroke-width="2" stroke-opacity="0.200000" points="401.9,-437.62 404,-443.62 406.1,-437.62 401.9,-437.62"/>
</g>
<!-- summary.mjs -->
<g id="node14" class="node">
<title>summary.mjs</title>
<g id="a_node14"><a xlink:href="https://github.com/sverweij/dependency-cruiser/blob/develop/tools/schema/summary.mjs" xlink:title="summary.mjs">
<path fill="#ffffcc" stroke="black" d="M197,-232C197,-232 138,-232 138,-232 135,-232 132,-229 132,-226 132,-226 132,-220 132,-220 132,-217 135,-214 138,-214 138,-214 197,-214 197,-214 200,-214 203,-217 203,-220 203,-220 203,-226 203,-226 203,-229 200,-232 197,-232"/>
<text text-anchor="middle" x="167.5" y="-220.8" font-family="Helvetica,sans-Serif" font-size="9.00">summary.mjs</text>
</a>
</g>
</g>
<!-- cruise&#45;result.schema.mjs&#45;&gt;summary.mjs -->
<g id="edge10" class="edge">
<title>cruise&#45;result.schema.mjs&#45;&gt;summary.mjs</title>
<path fill="none" stroke="#000000" stroke-width="2" stroke-opacity="0.200000" d="M118.26,-299.5C137.04,-299.5 153,-299.5 153,-299.5 153,-299.5 153,-238.08 153,-238.08"/>
<polygon fill="#000000" fill-opacity="0.200000" stroke="#000000" stroke-width="2" stroke-opacity="0.200000" points="155.1,-238.08 153,-232.08 150.9,-238.08 155.1,-238.08"/>
</g>
<!-- dependencies.mjs -->
<g id="node15" class="node">
<title>dependencies.mjs</title>
<g id="a_node15"><a xlink:href="https://github.com/sverweij/dependency-cruiser/blob/develop/tools/schema/dependencies.mjs" xlink:title="dependencies.mjs">
<path fill="#ffffcc" stroke="black" d="M626,-553C626,-553 546,-553 546,-553 543,-553 540,-550 540,-547 540,-547 540,-541 540,-541 540,-538 543,-535 546,-535 546,-535 626,-535 626,-535 629,-535 632,-538 632,-541 632,-541 632,-547 632,-547 632,-550 629,-553 626,-553"/>
<text text-anchor="middle" x="586" y="-541.8" font-family="Helvetica,sans-Serif" font-size="9.00">dependencies.mjs</text>
</a>
</g>
</g>
<!-- modules.mjs&#45;&gt;dependencies.mjs -->
<g id="edge15" class="edge">
<title>modules.mjs&#45;&gt;dependencies.mjs</title>
<path fill="none" stroke="#000000" stroke-width="2" stroke-opacity="0.200000" d="M414,-462.06C414,-485.08 414,-544 414,-544 414,-544 533.91,-544 533.91,-544"/>
<polygon fill="#000000" fill-opacity="0.200000" stroke="#000000" stroke-width="2" stroke-opacity="0.200000" points="533.91,-546.1 539.91,-544 533.91,-541.9 533.91,-546.1"/>
</g>
<!-- modules.mjs&#45;&gt;dependency&#45;type.mjs -->
<g id="edge16" class="edge">
<title>modules.mjs&#45;&gt;dependency&#45;type.mjs</title>
<path fill="none" stroke="#000000" stroke-width="2" stroke-opacity="0.200000" d="M436,-462.16C436,-470.99 436,-483 436,-483 436,-483 691.8,-483 691.8,-483"/>
<polygon fill="#000000" fill-opacity="0.200000" stroke="#000000" stroke-width="2" stroke-opacity="0.200000" points="691.8,-485.1 697.8,-483 691.8,-480.9 691.8,-485.1"/>
</g>
<!-- modules.mjs&#45;&gt;rule&#45;summary.mjs -->
<g id="edge17" class="edge">
<title>modules.mjs&#45;&gt;rule&#45;summary.mjs</title>
<path fill="none" stroke="#000000" stroke-width="2" stroke-opacity="0.200000" d="M414,-443.81C414,-431.09 414,-409.67 414,-409.67 414,-409.67 699.38,-409.67 699.38,-409.67"/>
<polygon fill="#000000" fill-opacity="0.200000" stroke="#000000" stroke-width="2" stroke-opacity="0.200000" points="699.38,-411.77 705.38,-409.67 699.38,-407.57 699.38,-411.77"/>
</g>
<!-- summary.mjs&#45;&gt;violations.mjs -->
<g id="edge47" class="edge">
<title>summary.mjs&#45;&gt;violations.mjs</title>
<path fill="none" stroke="#000000" stroke-width="2" stroke-opacity="0.200000" d="M203.19,-224.5C289.8,-224.5 504,-224.5 504,-224.5 504,-224.5 504,-24 504,-24 504,-24 543.79,-24 543.79,-24"/>
<polygon fill="#000000" fill-opacity="0.200000" stroke="#000000" stroke-width="2" stroke-opacity="0.200000" points="543.79,-26.1 549.79,-24 543.79,-21.9 543.79,-26.1"/>
</g>
<!-- summary.mjs&#45;&gt;rule&#45;set.mjs -->
<g id="edge46" class="edge">
<title>summary.mjs&#45;&gt;rule&#45;set.mjs</title>
<path fill="none" stroke="#000000" stroke-width="2" stroke-opacity="0.200000" d="M168,-213.65C168,-183.84 168,-93 168,-93 168,-93 386.27,-93 386.27,-93"/>
<polygon fill="#000000" fill-opacity="0.200000" stroke="#000000" stroke-width="2" stroke-opacity="0.200000" points="386.27,-95.1 392.27,-93 386.27,-90.9 386.27,-95.1"/>
</g>
<!-- options&#45;used.mjs -->
<g id="node20" class="node">
<title>options&#45;used.mjs</title>
<g id="a_node20"><a xlink:href="https://github.com/sverweij/dependency-cruiser/blob/develop/tools/schema/options-used.mjs" xlink:title="options&#45;used.mjs">
<path fill="#ffffcc" stroke="black" d="M314.5,-256C314.5,-256 240.5,-256 240.5,-256 237.5,-256 234.5,-253 234.5,-250 234.5,-250 234.5,-244 234.5,-244 234.5,-241 237.5,-238 240.5,-238 240.5,-238 314.5,-238 314.5,-238 317.5,-238 320.5,-241 320.5,-244 320.5,-244 320.5,-250 320.5,-250 320.5,-253 317.5,-256 314.5,-256"/>
<text text-anchor="middle" x="277.5" y="-244.8" font-family="Helvetica,sans-Serif" font-size="9.00">options&#45;used.mjs</text>
</a>
</g>
</g>
<!-- summary.mjs&#45;&gt;options&#45;used.mjs -->
<g id="edge45" class="edge">
<title>summary.mjs&#45;&gt;options&#45;used.mjs</title>
<path fill="none" stroke="#000000" stroke-width="2" stroke-opacity="0.200000" d="M183,-232.21C183,-238.98 183,-247 183,-247 183,-247 228.4,-247 228.4,-247"/>
<polygon fill="#000000" fill-opacity="0.200000" stroke="#000000" stroke-width="2" stroke-opacity="0.200000" points="228.4,-249.1 234.4,-247 228.4,-244.9 228.4,-249.1"/>
</g>
<!-- dependencies.mjs&#45;&gt;dependency&#45;type.mjs -->
<g id="edge11" class="edge">
<title>dependencies.mjs&#45;&gt;dependency&#45;type.mjs</title>
<path fill="none" stroke="#000000" stroke-width="2" stroke-opacity="0.200000" d="M602,-534.92C602,-519.3 602,-489 602,-489 602,-489 691.82,-489 691.82,-489"/>
<polygon fill="#000000" fill-opacity="0.200000" stroke="#000000" stroke-width="2" stroke-opacity="0.200000" points="691.82,-491.1 697.82,-489 691.82,-486.9 691.82,-491.1"/>
</g>
<!-- module&#45;system&#45;type.mjs -->
<g id="node17" class="node">
<title>module&#45;system&#45;type.mjs</title>
<g id="a_node17"><a xlink:href="https://github.com/sverweij/dependency-cruiser/blob/develop/tools/schema/module-system-type.mjs" xlink:title="module&#45;system&#45;type.mjs">
<polygon fill="white" stroke="transparent" points="808,-458 692,-458 692,-440 808,-440 808,-458"/>
<polyline fill="none" stroke="black" points="692,-440 808,-440 "/>
<text text-anchor="middle" x="750" y="-446.8" font-family="Helvetica,sans-Serif" font-size="9.00">module&#45;system&#45;type.mjs</text>
</a>
</g>
</g>
<!-- dependencies.mjs&#45;&gt;module&#45;system&#45;type.mjs -->
<g id="edge12" class="edge">
<title>dependencies.mjs&#45;&gt;module&#45;system&#45;type.mjs</title>
<path fill="none" stroke="#000000" stroke-width="2" stroke-opacity="0.200000" d="M571,-534.98C571,-512.04 571,-453.33 571,-453.33 571,-453.33 685.88,-453.33 685.88,-453.33"/>
<polygon fill="#000000" fill-opacity="0.200000" stroke="#000000" stroke-width="2" stroke-opacity="0.200000" points="685.88,-455.43 691.88,-453.33 685.88,-451.23 685.88,-455.43"/>
</g>
<!-- dependencies.mjs&#45;&gt;rule&#45;summary.mjs -->
<g id="edge13" class="edge">
<title>dependencies.mjs&#45;&gt;rule&#45;summary.mjs</title>
<path fill="none" stroke="#000000" stroke-width="2" stroke-opacity="0.200000" d="M632.11,-544C656.31,-544 681,-544 681,-544 681,-544 681,-417 681,-417 681,-417 699.13,-417 699.13,-417"/>
<polygon fill="#000000" fill-opacity="0.200000" stroke="#000000" stroke-width="2" stroke-opacity="0.200000" points="699.13,-419.1 705.13,-417 699.13,-414.9 699.13,-419.1"/>
</g>
<!-- rule&#45;summary.mjs&#45;&gt;severity&#45;type.mjs -->
<g id="edge44" class="edge">
<title>rule&#45;summary.mjs&#45;&gt;severity&#45;type.mjs</title>
<path fill="none" stroke="#000000" stroke-width="2" stroke-opacity="0.200000" d="M750,-402.82C750,-384.69 750,-346 750,-346 750,-346 842.31,-346 842.31,-346"/>
<polygon fill="#000000" fill-opacity="0.200000" stroke="#000000" stroke-width="2" stroke-opacity="0.200000" points="842.31,-348.1 848.31,-346 842.31,-343.9 842.31,-348.1"/>
</g>
<!-- module&#45;systems&#45;type.mjs&#45;&gt;module&#45;system&#45;type.mjs -->
<g id="edge14" class="edge">
<title>module&#45;systems&#45;type.mjs&#45;&gt;module&#45;system&#45;type.mjs</title>
<path fill="none" stroke="#000000" stroke-width="2" stroke-opacity="0.200000" d="M646.41,-180C660.26,-180 671,-180 671,-180 671,-180 671,-448.67 671,-448.67 671,-448.67 685.76,-448.67 685.76,-448.67"/>
<polygon fill="#000000" fill-opacity="0.200000" stroke="#000000" stroke-width="2" stroke-opacity="0.200000" points="685.76,-450.77 691.76,-448.67 685.76,-446.57 685.76,-450.77"/>
</g>
<!-- options&#45;used.mjs&#45;&gt;compound&#45;donot&#45;follow&#45;type.mjs -->
<g id="edge18" class="edge">
<title>options&#45;used.mjs&#45;&gt;compound&#45;donot&#45;follow&#45;type.mjs</title>
<path fill="none" stroke="#000000" stroke-width="2" stroke-opacity="0.200000" d="M320.51,-248C388.95,-248 515,-248 515,-248 515,-248 515,-406.65 515,-406.65"/>
<polygon fill="#000000" fill-opacity="0.200000" stroke="#000000" stroke-width="2" stroke-opacity="0.200000" points="512.9,-406.64 515,-412.65 517.1,-406.65 512.9,-406.64"/>
</g>
<!-- options&#45;used.mjs&#45;&gt;compound&#45;exclude&#45;type.mjs -->
<g id="edge19" class="edge">
<title>options&#45;used.mjs&#45;&gt;compound&#45;exclude&#45;type.mjs</title>
<path fill="none" stroke="#000000" stroke-width="2" stroke-opacity="0.200000" d="M269,-256.01C269,-275.64 269,-320.5 269,-320.5 269,-320.5 677.88,-320.5 677.88,-320.5"/>
<polygon fill="#000000" fill-opacity="0.200000" stroke="#000000" stroke-width="2" stroke-opacity="0.200000" points="677.88,-322.6 683.88,-320.5 677.88,-318.4 677.88,-322.6"/>
</g>
<!-- options&#45;used.mjs&#45;&gt;compound&#45;focus&#45;type.mjs -->
<g id="edge20" class="edge">
<title>options&#45;used.mjs&#45;&gt;compound&#45;focus&#45;type.mjs</title>
<path fill="none" stroke="#000000" stroke-width="2" stroke-opacity="0.200000" d="M287,-256.21C287,-268.44 287,-288.5 287,-288.5 287,-288.5 682.99,-288.5 682.99,-288.5"/>
<polygon fill="#000000" fill-opacity="0.200000" stroke="#000000" stroke-width="2" stroke-opacity="0.200000" points="682.99,-290.6 688.99,-288.5 682.99,-286.4 682.99,-290.6"/>
</g>
<!-- options&#45;used.mjs&#45;&gt;compound&#45;include&#45;only&#45;type.mjs -->
<g id="edge21" class="edge">
<title>options&#45;used.mjs&#45;&gt;compound&#45;include&#45;only&#45;type.mjs</title>
<path fill="none" stroke="#000000" stroke-width="2" stroke-opacity="0.200000" d="M304,-256.06C304,-261.36 304,-267 304,-267 304,-267 678,-267 678,-267 678,-267 678,-256.09 678,-256.09"/>
<polygon fill="#000000" fill-opacity="0.200000" stroke="#000000" stroke-width="2" stroke-opacity="0.200000" points="680.1,-256.09 678,-250.09 675.9,-256.09 680.1,-256.09"/>
</g>
<!-- options&#45;used.mjs&#45;&gt;options.mjs -->
<g id="edge24" class="edge">
<title>options&#45;used.mjs&#45;&gt;options.mjs</title>
<path fill="none" stroke="#000000" stroke-width="2" stroke-opacity="0.200000" d="M320.56,-242C364.1,-242 425,-242 425,-242 425,-242 425,-223.29 425,-223.29"/>
<polygon fill="#000000" fill-opacity="0.200000" stroke="#000000" stroke-width="2" stroke-opacity="0.200000" points="427.1,-223.29 425,-217.29 422.9,-223.29 427.1,-223.29"/>
</g>
<!-- options&#45;used.mjs&#45;&gt;dependency&#45;type.mjs -->
<g id="edge22" class="edge">
<title>options&#45;used.mjs&#45;&gt;dependency&#45;type.mjs</title>
<path fill="none" stroke="#000000" stroke-width="2" stroke-opacity="0.200000" d="M252,-256.08C252,-299.73 252,-486 252,-486 252,-486 691.65,-486 691.65,-486"/>
<polygon fill="#000000" fill-opacity="0.200000" stroke="#000000" stroke-width="2" stroke-opacity="0.200000" points="691.65,-488.1 697.65,-486 691.65,-483.9 691.65,-488.1"/>
</g>
<!-- options&#45;used.mjs&#45;&gt;module&#45;systems&#45;type.mjs -->
<g id="edge23" class="edge">
<title>options&#45;used.mjs&#45;&gt;module&#45;systems&#45;type.mjs</title>
<path fill="none" stroke="#000000" stroke-width="2" stroke-opacity="0.200000" d="M320.78,-246C409.99,-246 606,-246 606,-246 606,-246 606,-195.18 606,-195.18"/>
<polygon fill="#000000" fill-opacity="0.200000" stroke="#000000" stroke-width="2" stroke-opacity="0.200000" points="608.1,-195.18 606,-189.18 603.9,-195.18 608.1,-195.18"/>
</g>
<!-- output&#45;type.mjs -->
<g id="node21" class="node">
<title>output&#45;type.mjs</title>
<g id="a_node21"><a xlink:href="https://github.com/sverweij/dependency-cruiser/blob/develop/tools/schema/output-type.mjs" xlink:title="output&#45;type.mjs">
<polygon fill="white" stroke="transparent" points="464,-185 385,-185 385,-167 464,-167 464,-185"/>
<polyline fill="none" stroke="black" points="385,-167 464,-167 "/>
<text text-anchor="middle" x="424.5" y="-173.8" font-family="Helvetica,sans-Serif" font-size="9.00">output&#45;type.mjs</text>
</a>
</g>
</g>
<!-- options&#45;used.mjs&#45;&gt;output&#45;type.mjs -->
<g id="edge25" class="edge">
<title>options&#45;used.mjs&#45;&gt;output&#45;type.mjs</title>
<path fill="none" stroke="#000000" stroke-width="2" stroke-opacity="0.200000" d="M320.57,-240C344.3,-240 369,-240 369,-240 369,-240 369,-176 369,-176 369,-176 378.76,-176 378.76,-176"/>
<polygon fill="#000000" fill-opacity="0.200000" stroke="#000000" stroke-width="2" stroke-opacity="0.200000" points="378.76,-178.1 384.76,-176 378.76,-173.9 378.76,-178.1"/>
</g>
<!-- options&#45;used.mjs&#45;&gt;reporter&#45;options.mjs -->
<g id="edge26" class="edge">
<title>options&#45;used.mjs&#45;&gt;reporter&#45;options.mjs</title>
<path fill="none" stroke="#000000" stroke-width="2" stroke-opacity="0.200000" d="M320.56,-244C382.39,-244 489,-244 489,-244 489,-244 489,-121 489,-121 489,-121 530.93,-121 530.93,-121"/>
<polygon fill="#000000" fill-opacity="0.200000" stroke="#000000" stroke-width="2" stroke-opacity="0.200000" points="530.93,-123.1 536.93,-121 530.93,-118.9 530.93,-123.1"/>
</g>
<!-- reporter&#45;options.mjs&#45;&gt;re&#45;as&#45;strings&#45;type.mjs -->
<g id="edge39" class="edge">
<title>reporter&#45;options.mjs&#45;&gt;re&#45;as&#45;strings&#45;type.mjs</title>
<path fill="none" stroke="#000000" stroke-width="2" stroke-opacity="0.200000" d="M635,-112.6C721.22,-112.6 891,-112.6 891,-112.6 891,-112.6 891,-225.77 891,-225.77"/>
<polygon fill="#000000" fill-opacity="0.200000" stroke="#000000" stroke-width="2" stroke-opacity="0.200000" points="888.9,-225.77 891,-231.77 893.1,-225.77 888.9,-225.77"/>
</g>
<!-- reporter&#45;options.mjs&#45;&gt;compound&#45;exclude&#45;type.mjs -->
<g id="edge36" class="edge">
<title>reporter&#45;options.mjs&#45;&gt;compound&#45;exclude&#45;type.mjs</title>
<path fill="none" stroke="#000000" stroke-width="2" stroke-opacity="0.200000" d="M635.04,-123.4C646.28,-123.4 655,-123.4 655,-123.4 655,-123.4 655,-315.5 655,-315.5 655,-315.5 677.76,-315.5 677.76,-315.5"/>
<polygon fill="#000000" fill-opacity="0.200000" stroke="#000000" stroke-width="2" stroke-opacity="0.200000" points="677.76,-317.6 683.76,-315.5 677.76,-313.4 677.76,-317.6"/>
</g>
<!-- reporter&#45;options.mjs&#45;&gt;compound&#45;focus&#45;type.mjs -->
<g id="edge37" class="edge">
<title>reporter&#45;options.mjs&#45;&gt;compound&#45;focus&#45;type.mjs</title>
<path fill="none" stroke="#000000" stroke-width="2" stroke-opacity="0.200000" d="M635.22,-119.8C647.88,-119.8 658,-119.8 658,-119.8 658,-119.8 658,-281.5 658,-281.5 658,-281.5 682.89,-281.5 682.89,-281.5"/>
<polygon fill="#000000" fill-opacity="0.200000" stroke="#000000" stroke-width="2" stroke-opacity="0.200000" points="682.89,-283.6 688.89,-281.5 682.89,-279.4 682.89,-283.6"/>
</g>
<!-- reporter&#45;options.mjs&#45;&gt;compound&#45;include&#45;only&#45;type.mjs -->
<g id="edge38" class="edge">
<title>reporter&#45;options.mjs&#45;&gt;compound&#45;include&#45;only&#45;type.mjs</title>
<path fill="none" stroke="#000000" stroke-width="2" stroke-opacity="0.200000" d="M635.21,-116.2C664.5,-116.2 696,-116.2 696,-116.2 696,-116.2 696,-225.62 696,-225.62"/>
<polygon fill="#000000" fill-opacity="0.200000" stroke="#000000" stroke-width="2" stroke-opacity="0.200000" points="693.9,-225.62 696,-231.62 698.1,-225.62 693.9,-225.62"/>
</g>
<!-- restrictions.mjs&#45;&gt;re&#45;as&#45;strings&#45;type.mjs -->
<g id="edge41" class="edge">
<title>restrictions.mjs&#45;&gt;re&#45;as&#45;strings&#45;type.mjs</title>
<path fill="none" stroke="#000000" stroke-width="2" stroke-opacity="0.200000" d="M624.62,-83C711.93,-83 917,-83 917,-83 917,-83 917,-225.59 917,-225.59"/>
<polygon fill="#000000" fill-opacity="0.200000" stroke="#000000" stroke-width="2" stroke-opacity="0.200000" points="914.9,-225.59 917,-231.59 919.1,-225.59 914.9,-225.59"/>
</g>
<!-- restrictions.mjs&#45;&gt;dependency&#45;type.mjs -->
<g id="edge40" class="edge">
<title>restrictions.mjs&#45;&gt;dependency&#45;type.mjs</title>
<path fill="none" stroke="#000000" stroke-width="2" stroke-opacity="0.200000" d="M624.59,-89C645.05,-89 666,-89 666,-89 666,-89 666,-477 666,-477 666,-477 691.76,-477 691.76,-477"/>
<polygon fill="#000000" fill-opacity="0.200000" stroke="#000000" stroke-width="2" stroke-opacity="0.200000" points="691.76,-479.1 697.76,-477 691.76,-474.9 691.76,-479.1"/>
</g>
</g>
</svg>
