<?xml version="1.0" encoding="UTF-8" standalone="no"?>
<!DOCTYPE svg PUBLIC "-//W3C//DTD SVG 1.1//EN"
 "http://www.w3.org/Graphics/SVG/1.1/DTD/svg11.dtd">
<!-- Generated by graphviz version 3.0.0 (20220226.1711)
 -->
<!-- Title: dependency&#45;cruiser output Pages: 1 -->
<svg width="966pt" height="576pt"
 viewBox="0.00 0.00 966.00 576.00" xmlns="http://www.w3.org/2000/svg" xmlns:xlink="http://www.w3.org/1999/xlink">
<g id="graph0" class="graph" transform="scale(1 1) rotate(0) translate(4 572)">
<title>dependency&#45;cruiser output</title>
<polygon fill="white" stroke="transparent" points="-4,4 -4,-572 962,-572 962,4 -4,4"/>
<!-- baseline&#45;violations.schema.mjs -->
<g id="node1" class="node">
<title>baseline&#45;violations.schema.mjs</title>
<g id="a_node1"><a xlink:href="https://github.com/sverweij/dependency-cruiser/blob/develop/tools/schema/baseline-violations.schema.mjs" xlink:title="baseline&#45;violations.schema.mjs">
<path fill="darkgreen" stroke="darkgreen" d="M506,-234C506,-234 373,-234 373,-234 370,-234 367,-231 367,-228 367,-228 367,-222 367,-222 367,-219 370,-216 373,-216 373,-216 506,-216 506,-216 509,-216 512,-219 512,-222 512,-222 512,-228 512,-228 512,-231 509,-234 506,-234"/>
<text text-anchor="middle" x="439.5" y="-222.8" font-family="Helvetica,sans-Serif" font-size="9.00" fill="#ffffcc">baseline&#45;violations.schema.mjs</text>
</a>
</g>
</g>
<!-- violations.mjs -->
<g id="node2" class="node">
<title>violations.mjs</title>
<g id="a_node2"><a xlink:href="https://github.com/sverweij/dependency-cruiser/blob/develop/tools/schema/violations.mjs" xlink:title="violations.mjs">
<path fill="#ffffcc" stroke="black" d="M631,-18C631,-18 571,-18 571,-18 568,-18 565,-15 565,-12 565,-12 565,-6 565,-6 565,-3 568,0 571,0 571,0 631,0 631,0 634,0 637,-3 637,-6 637,-6 637,-12 637,-12 637,-15 634,-18 631,-18"/>
<text text-anchor="middle" x="601" y="-6.8" font-family="Helvetica,sans-Serif" font-size="9.00">violations.mjs</text>
</a>
</g>
</g>
<!-- baseline&#45;violations.schema.mjs&#45;&gt;violations.mjs -->
<g id="edge1" class="edge">
<title>baseline&#45;violations.schema.mjs&#45;&gt;violations.mjs</title>
<path fill="none" stroke="#000000" stroke-width="2" stroke-opacity="0.200000" d="M501,-215.99C501,-175.11 501,-9 501,-9 501,-9 558.9,-9 558.9,-9"/>
<polygon fill="#000000" fill-opacity="0.200000" stroke="#000000" stroke-width="2" stroke-opacity="0.200000" points="558.9,-11.1 564.9,-9 558.9,-6.9 558.9,-11.1"/>
</g>
<!-- rule&#45;summary.mjs -->
<g id="node19" class="node">
<title>rule&#45;summary.mjs</title>
<g id="a_node19"><a xlink:href="https://github.com/sverweij/dependency-cruiser/blob/develop/tools/schema/rule-summary.mjs" xlink:title="rule&#45;summary.mjs">
<path fill="#ffffcc" stroke="black" d="M803.5,-78C803.5,-78 726.5,-78 726.5,-78 723.5,-78 720.5,-75 720.5,-72 720.5,-72 720.5,-66 720.5,-66 720.5,-63 723.5,-60 726.5,-60 726.5,-60 803.5,-60 803.5,-60 806.5,-60 809.5,-63 809.5,-66 809.5,-66 809.5,-72 809.5,-72 809.5,-75 806.5,-78 803.5,-78"/>
<text text-anchor="middle" x="765" y="-66.8" font-family="Helvetica,sans-Serif" font-size="9.00">rule&#45;summary.mjs</text>
</a>
</g>
</g>
<!-- violations.mjs&#45;&gt;rule&#45;summary.mjs -->
<g id="edge50" class="edge">
<title>violations.mjs&#45;&gt;rule&#45;summary.mjs</title>
<path fill="none" stroke="#000000" stroke-width="2" stroke-opacity="0.200000" d="M589,-18.02C589,-33.52 589,-63.6 589,-63.6 589,-63.6 714.13,-63.6 714.13,-63.6"/>
<polygon fill="#000000" fill-opacity="0.200000" stroke="#000000" stroke-width="2" stroke-opacity="0.200000" points="714.13,-65.7 720.13,-63.6 714.13,-61.5 714.13,-65.7"/>
</g>
<!-- violation&#45;type.mjs -->
<g id="node26" class="node">
<title>violation&#45;type.mjs</title>
<g id="a_node26"><a xlink:href="https://github.com/sverweij/dependency-cruiser/blob/develop/tools/schema/violation-type.mjs" xlink:title="violation&#45;type.mjs">
<polygon fill="white" stroke="transparent" points="809,-18 721,-18 721,0 809,0 809,-18"/>
<polyline fill="none" stroke="black" points="721,0 809,0 "/>
<text text-anchor="middle" x="765" y="-6.8" font-family="Helvetica,sans-Serif" font-size="9.00">violation&#45;type.mjs</text>
</a>
</g>
</g>
<!-- violations.mjs&#45;&gt;violation&#45;type.mjs -->
<g id="edge51" class="edge">
<title>violations.mjs&#45;&gt;violation&#45;type.mjs</title>
<path fill="none" stroke="#000000" stroke-width="2" stroke-opacity="0.200000" d="M637.4,-9C637.4,-9 714.83,-9 714.83,-9"/>
<polygon fill="#000000" fill-opacity="0.200000" stroke="#000000" stroke-width="2" stroke-opacity="0.200000" points="714.83,-11.1 720.83,-9 714.83,-6.9 714.83,-11.1"/>
</g>
<!-- compound&#45;donot&#45;follow&#45;type.mjs -->
<g id="node3" class="node">
<title>compound&#45;donot&#45;follow&#45;type.mjs</title>
<g id="a_node3"><a xlink:href="https://github.com/sverweij/dependency-cruiser/blob/develop/tools/schema/compound-donot-follow-type.mjs" xlink:title="compound&#45;donot&#45;follow&#45;type.mjs">
<polygon fill="white" stroke="transparent" points="676,-568 526,-568 526,-550 676,-550 676,-568"/>
<polyline fill="none" stroke="black" points="526,-550 676,-550 "/>
<text text-anchor="middle" x="601" y="-556.8" font-family="Helvetica,sans-Serif" font-size="9.00">compound&#45;donot&#45;follow&#45;type.mjs</text>
</a>
</g>
</g>
<!-- re&#45;as&#45;strings&#45;type.mjs -->
<g id="node4" class="node">
<title>re&#45;as&#45;strings&#45;type.mjs</title>
<g id="a_node4"><a xlink:href="https://github.com/sverweij/dependency-cruiser/blob/develop/tools/schema/re-as-strings-type.mjs" xlink:title="re&#45;as&#45;strings&#45;type.mjs">
<polygon fill="white" stroke="transparent" points="958,-387 854,-387 854,-369 958,-369 958,-387"/>
<polyline fill="none" stroke="black" points="854,-369 958,-369 "/>
<text text-anchor="middle" x="906" y="-375.8" font-family="Helvetica,sans-Serif" font-size="9.00">re&#45;as&#45;strings&#45;type.mjs</text>
</a>
</g>
</g>
<!-- compound&#45;donot&#45;follow&#45;type.mjs&#45;&gt;re&#45;as&#45;strings&#45;type.mjs -->
<g id="edge2" class="edge">
<title>compound&#45;donot&#45;follow&#45;type.mjs&#45;&gt;re&#45;as&#45;strings&#45;type.mjs</title>
<path fill="none" stroke="#000000" stroke-width="2" stroke-opacity="0.200000" d="M676.11,-559C773.77,-559 932,-559 932,-559 932,-559 932,-393.22 932,-393.22"/>
<polygon fill="#000000" fill-opacity="0.200000" stroke="#000000" stroke-width="2" stroke-opacity="0.200000" points="934.1,-393.22 932,-387.22 929.9,-393.22 934.1,-393.22"/>
</g>
<!-- compound&#45;exclude&#45;type.mjs -->
<g id="node5" class="node">
<title>compound&#45;exclude&#45;type.mjs</title>
<g id="a_node5"><a xlink:href="https://github.com/sverweij/dependency-cruiser/blob/develop/tools/schema/compound-exclude-type.mjs" xlink:title="compound&#45;exclude&#45;type.mjs">
<polygon fill="white" stroke="transparent" points="831,-486 699,-486 699,-468 831,-468 831,-486"/>
<polyline fill="none" stroke="black" points="699,-468 831,-468 "/>
<text text-anchor="middle" x="765" y="-474.8" font-family="Helvetica,sans-Serif" font-size="9.00">compound&#45;exclude&#45;type.mjs</text>
</a>
</g>
</g>
<!-- compound&#45;exclude&#45;type.mjs&#45;&gt;re&#45;as&#45;strings&#45;type.mjs -->
<g id="edge3" class="edge">
<title>compound&#45;exclude&#45;type.mjs&#45;&gt;re&#45;as&#45;strings&#45;type.mjs</title>
<path fill="none" stroke="#000000" stroke-width="2" stroke-opacity="0.200000" d="M831.37,-477C867.94,-477 906,-477 906,-477 906,-477 906,-393.14 906,-393.14"/>
<polygon fill="#000000" fill-opacity="0.200000" stroke="#000000" stroke-width="2" stroke-opacity="0.200000" points="908.1,-393.14 906,-387.14 903.9,-393.14 908.1,-393.14"/>
</g>
<!-- compound&#45;focus&#45;type.mjs -->
<g id="node6" class="node">
<title>compound&#45;focus&#45;type.mjs</title>
<g id="a_node6"><a xlink:href="https://github.com/sverweij/dependency-cruiser/blob/develop/tools/schema/compound-focus-type.mjs" xlink:title="compound&#45;focus&#45;type.mjs">
<polygon fill="white" stroke="transparent" points="826,-433 704,-433 704,-415 826,-415 826,-433"/>
<polyline fill="none" stroke="black" points="704,-415 826,-415 "/>
<text text-anchor="middle" x="765" y="-421.8" font-family="Helvetica,sans-Serif" font-size="9.00">compound&#45;focus&#45;type.mjs</text>
</a>
</g>
</g>
<!-- compound&#45;focus&#45;type.mjs&#45;&gt;re&#45;as&#45;strings&#45;type.mjs -->
<g id="edge4" class="edge">
<title>compound&#45;focus&#45;type.mjs&#45;&gt;re&#45;as&#45;strings&#45;type.mjs</title>
<path fill="none" stroke="#000000" stroke-width="2" stroke-opacity="0.200000" d="M826.2,-424C853.67,-424 880,-424 880,-424 880,-424 880,-393.31 880,-393.31"/>
<polygon fill="#000000" fill-opacity="0.200000" stroke="#000000" stroke-width="2" stroke-opacity="0.200000" points="882.1,-393.31 880,-387.31 877.9,-393.31 882.1,-393.31"/>
</g>
<!-- compound&#45;include&#45;only&#45;type.mjs -->
<g id="node7" class="node">
<title>compound&#45;include&#45;only&#45;type.mjs</title>
<g id="a_node7"><a xlink:href="https://github.com/sverweij/dependency-cruiser/blob/develop/tools/schema/compound-include-only-type.mjs" xlink:title="compound&#45;include&#45;only&#45;type.mjs">
<polygon fill="white" stroke="transparent" points="840,-387 690,-387 690,-369 840,-369 840,-387"/>
<polyline fill="none" stroke="black" points="690,-369 840,-369 "/>
<text text-anchor="middle" x="765" y="-375.8" font-family="Helvetica,sans-Serif" font-size="9.00">compound&#45;include&#45;only&#45;type.mjs</text>
</a>
</g>
</g>
<!-- compound&#45;include&#45;only&#45;type.mjs&#45;&gt;re&#45;as&#45;strings&#45;type.mjs -->
<g id="edge5" class="edge">
<title>compound&#45;include&#45;only&#45;type.mjs&#45;&gt;re&#45;as&#45;strings&#45;type.mjs</title>
<path fill="none" stroke="#000000" stroke-width="2" stroke-opacity="0.200000" d="M840.04,-378C840.04,-378 847.7,-378 847.7,-378"/>
<polygon fill="#000000" fill-opacity="0.200000" stroke="#000000" stroke-width="2" stroke-opacity="0.200000" points="847.7,-380.1 853.7,-378 847.7,-375.9 847.7,-380.1"/>
</g>
<!-- configuration.schema.mjs -->
<g id="node8" class="node">
<title>configuration.schema.mjs</title>
<g id="a_node8"><a xlink:href="https://github.com/sverweij/dependency-cruiser/blob/develop/tools/schema/configuration.schema.mjs" xlink:title="configuration.schema.mjs">
<path fill="darkgreen" stroke="darkgreen" d="M347,-210C347,-210 238,-210 238,-210 235,-210 232,-207 232,-204 232,-204 232,-198 232,-198 232,-195 235,-192 238,-192 238,-192 347,-192 347,-192 350,-192 353,-195 353,-198 353,-198 353,-204 353,-204 353,-207 350,-210 347,-210"/>
<text text-anchor="middle" x="292.5" y="-198.8" font-family="Helvetica,sans-Serif" font-size="9.00" fill="#ffffcc">configuration.schema.mjs</text>
</a>
</g>
</g>
<!-- options.mjs -->
<g id="node9" class="node">
<title>options.mjs</title>
<g id="a_node9"><a xlink:href="https://github.com/sverweij/dependency-cruiser/blob/develop/tools/schema/options.mjs" xlink:title="options.mjs">
<path fill="#ffffcc" stroke="black" d="M465,-296C465,-296 414,-296 414,-296 411,-296 408,-293 408,-290 408,-290 408,-284 408,-284 408,-281 411,-278 414,-278 414,-278 465,-278 465,-278 468,-278 471,-281 471,-284 471,-284 471,-290 471,-290 471,-293 468,-296 465,-296"/>
<text text-anchor="middle" x="439.5" y="-284.8" font-family="Helvetica,sans-Serif" font-size="9.00">options.mjs</text>
</a>
</g>
</g>
<!-- configuration.schema.mjs&#45;&gt;options.mjs -->
<g id="edge6" class="edge">
<title>configuration.schema.mjs&#45;&gt;options.mjs</title>
<path fill="none" stroke="#000000" stroke-width="2" stroke-opacity="0.200000" d="M345,-210.2C345,-231.81 345,-284 345,-284 345,-284 401.77,-284 401.77,-284"/>
<polygon fill="#000000" fill-opacity="0.200000" stroke="#000000" stroke-width="2" stroke-opacity="0.200000" points="401.77,-286.1 407.77,-284 401.77,-281.9 401.77,-286.1"/>
</g>
<!-- rule&#45;set.mjs -->
<g id="node10" class="node">
<title>rule&#45;set.mjs</title>
<g id="a_node10"><a xlink:href="https://github.com/sverweij/dependency-cruiser/blob/develop/tools/schema/rule-set.mjs" xlink:title="rule&#45;set.mjs">
<path fill="#ffffcc" stroke="black" d="M465.5,-108C465.5,-108 413.5,-108 413.5,-108 410.5,-108 407.5,-105 407.5,-102 407.5,-102 407.5,-96 407.5,-96 407.5,-93 410.5,-90 413.5,-90 413.5,-90 465.5,-90 465.5,-90 468.5,-90 471.5,-93 471.5,-96 471.5,-96 471.5,-102 471.5,-102 471.5,-105 468.5,-108 465.5,-108"/>
<text text-anchor="middle" x="439.5" y="-96.8" font-family="Helvetica,sans-Serif" font-size="9.00">rule&#45;set.mjs</text>
</a>
</g>
</g>
<!-- configuration.schema.mjs&#45;&gt;rule&#45;set.mjs -->
<g id="edge7" class="edge">
<title>configuration.schema.mjs&#45;&gt;rule&#45;set.mjs</title>
<path fill="none" stroke="#000000" stroke-width="2" stroke-opacity="0.200000" d="M293,-191.65C293,-167.25 293,-103.5 293,-103.5 293,-103.5 401.35,-103.5 401.35,-103.5"/>
<polygon fill="#000000" fill-opacity="0.200000" stroke="#000000" stroke-width="2" stroke-opacity="0.200000" points="401.35,-105.6 407.35,-103.5 401.35,-101.4 401.35,-105.6"/>
</g>
<!-- options.mjs&#45;&gt;violations.mjs -->
<g id="edge37" class="edge">
<title>options.mjs&#45;&gt;violations.mjs</title>
<path fill="none" stroke="#000000" stroke-width="2" stroke-opacity="0.200000" d="M471.25,-281.6C497.67,-281.6 531,-281.6 531,-281.6 531,-281.6 531,-13.5 531,-13.5 531,-13.5 558.77,-13.5 558.77,-13.5"/>
<polygon fill="#000000" fill-opacity="0.200000" stroke="#000000" stroke-width="2" stroke-opacity="0.200000" points="558.77,-15.6 564.77,-13.5 558.77,-11.4 558.77,-15.6"/>
</g>
<!-- options.mjs&#45;&gt;compound&#45;donot&#45;follow&#45;type.mjs -->
<g id="edge29" class="edge">
<title>options.mjs&#45;&gt;compound&#45;donot&#45;follow&#45;type.mjs</title>
<path fill="none" stroke="#000000" stroke-width="2" stroke-opacity="0.200000" d="M471.23,-292.4C498.68,-292.4 534,-292.4 534,-292.4 534,-292.4 534,-543.82 534,-543.82"/>
<polygon fill="#000000" fill-opacity="0.200000" stroke="#000000" stroke-width="2" stroke-opacity="0.200000" points="531.9,-543.82 534,-549.82 536.1,-543.82 531.9,-543.82"/>
</g>
<!-- options.mjs&#45;&gt;re&#45;as&#45;strings&#45;type.mjs -->
<g id="edge35" class="edge">
<title>options.mjs&#45;&gt;re&#45;as&#45;strings&#45;type.mjs</title>
<path fill="none" stroke="#000000" stroke-width="2" stroke-opacity="0.200000" d="M421,-296.09C421,-302.52 421,-310 421,-310 421,-310 857,-310 857,-310 857,-310 857,-362.83 857,-362.83"/>
<polygon fill="#000000" fill-opacity="0.200000" stroke="#000000" stroke-width="2" stroke-opacity="0.200000" points="854.9,-362.83 857,-368.83 859.1,-362.83 854.9,-362.83"/>
</g>
<!-- options.mjs&#45;&gt;compound&#45;exclude&#45;type.mjs -->
<g id="edge30" class="edge">
<title>options.mjs&#45;&gt;compound&#45;exclude&#45;type.mjs</title>
<path fill="none" stroke="#000000" stroke-width="2" stroke-opacity="0.200000" d="M434,-296.16C434,-334.12 434,-477 434,-477 434,-477 692.81,-477 692.81,-477"/>
<polygon fill="#000000" fill-opacity="0.200000" stroke="#000000" stroke-width="2" stroke-opacity="0.200000" points="692.81,-479.1 698.81,-477 692.81,-474.9 692.81,-479.1"/>
</g>
<!-- options.mjs&#45;&gt;compound&#45;focus&#45;type.mjs -->
<g id="edge31" class="edge">
<title>options.mjs&#45;&gt;compound&#45;focus&#45;type.mjs</title>
<path fill="none" stroke="#000000" stroke-width="2" stroke-opacity="0.200000" d="M446,-296.42C446,-327.37 446,-424 446,-424 446,-424 697.87,-424 697.87,-424"/>
<polygon fill="#000000" fill-opacity="0.200000" stroke="#000000" stroke-width="2" stroke-opacity="0.200000" points="697.87,-426.1 703.87,-424 697.87,-421.9 697.87,-426.1"/>
</g>
<!-- options.mjs&#45;&gt;compound&#45;include&#45;only&#45;type.mjs -->
<g id="edge32" class="edge">
<title>options.mjs&#45;&gt;compound&#45;include&#45;only&#45;type.mjs</title>
<path fill="none" stroke="#000000" stroke-width="2" stroke-opacity="0.200000" d="M459,-296.06C459,-319.08 459,-378 459,-378 459,-378 683.75,-378 683.75,-378"/>
<polygon fill="#000000" fill-opacity="0.200000" stroke="#000000" stroke-width="2" stroke-opacity="0.200000" points="683.75,-380.1 689.75,-378 683.75,-375.9 683.75,-380.1"/>
</g>
<!-- dependency&#45;type.mjs -->
<g id="node17" class="node">
<title>dependency&#45;type.mjs</title>
<g id="a_node17"><a xlink:href="https://github.com/sverweij/dependency-cruiser/blob/develop/tools/schema/dependency-type.mjs" xlink:title="dependency&#45;type.mjs">
<polygon fill="white" stroke="transparent" points="817,-204 713,-204 713,-186 817,-186 817,-204"/>
<polyline fill="none" stroke="black" points="713,-186 817,-186 "/>
<text text-anchor="middle" x="765" y="-192.8" font-family="Helvetica,sans-Serif" font-size="9.00">dependency&#45;type.mjs</text>
</a>
</g>
</g>
<!-- options.mjs&#45;&gt;dependency&#45;type.mjs -->
<g id="edge33" class="edge">
<title>options.mjs&#45;&gt;dependency&#45;type.mjs</title>
<path fill="none" stroke="#000000" stroke-width="2" stroke-opacity="0.200000" d="M440,-277.71C440,-272.68 440,-267.5 440,-267.5 440,-267.5 748,-267.5 748,-267.5 748,-267.5 748,-210.18 748,-210.18"/>
<polygon fill="#000000" fill-opacity="0.200000" stroke="#000000" stroke-width="2" stroke-opacity="0.200000" points="750.1,-210.18 748,-204.18 745.9,-210.18 750.1,-210.18"/>
</g>
<!-- module&#45;systems&#45;type.mjs -->
<g id="node20" class="node">
<title>module&#45;systems&#45;type.mjs</title>
<g id="a_node20"><a xlink:href="https://github.com/sverweij/dependency-cruiser/blob/develop/tools/schema/module-systems-type.mjs" xlink:title="module&#45;systems&#45;type.mjs">
<polygon fill="white" stroke="transparent" points="661,-296 541,-296 541,-278 661,-278 661,-296"/>
<polyline fill="none" stroke="black" points="541,-278 661,-278 "/>
<text text-anchor="middle" x="601" y="-284.8" font-family="Helvetica,sans-Serif" font-size="9.00">module&#45;systems&#45;type.mjs</text>
</a>
</g>
</g>
<!-- options.mjs&#45;&gt;module&#45;systems&#45;type.mjs -->
<g id="edge34" class="edge">
<title>options.mjs&#45;&gt;module&#45;systems&#45;type.mjs</title>
<path fill="none" stroke="#000000" stroke-width="2" stroke-opacity="0.200000" d="M471.02,-288.8C471.02,-288.8 534.78,-288.8 534.78,-288.8"/>
<polygon fill="#000000" fill-opacity="0.200000" stroke="#000000" stroke-width="2" stroke-opacity="0.200000" points="534.78,-290.9 540.78,-288.8 534.78,-286.7 534.78,-290.9"/>
</g>
<!-- reporter&#45;options.mjs -->
<g id="node23" class="node">
<title>reporter&#45;options.mjs</title>
<g id="a_node23"><a xlink:href="https://github.com/sverweij/dependency-cruiser/blob/develop/tools/schema/reporter-options.mjs" xlink:title="reporter&#45;options.mjs">
<path fill="#ffffcc" stroke="black" d="M644,-234C644,-234 558,-234 558,-234 555,-234 552,-231 552,-228 552,-228 552,-222 552,-222 552,-219 555,-216 558,-216 558,-216 644,-216 644,-216 647,-216 650,-219 650,-222 650,-222 650,-228 650,-228 650,-231 647,-234 644,-234"/>
<text text-anchor="middle" x="601" y="-222.8" font-family="Helvetica,sans-Serif" font-size="9.00">reporter&#45;options.mjs</text>
</a>
</g>
</g>
<!-- options.mjs&#45;&gt;reporter&#45;options.mjs -->
<g id="edge36" class="edge">
<title>options.mjs&#45;&gt;reporter&#45;options.mjs</title>
<path fill="none" stroke="#000000" stroke-width="2" stroke-opacity="0.200000" d="M471.1,-285.2C499.24,-285.2 536,-285.2 536,-285.2 536,-285.2 536,-222 536,-222 536,-222 545.73,-222 545.73,-222"/>
<polygon fill="#000000" fill-opacity="0.200000" stroke="#000000" stroke-width="2" stroke-opacity="0.200000" points="545.73,-224.1 551.73,-222 545.73,-219.9 545.73,-224.1"/>
</g>
<!-- restrictions.mjs -->
<g id="node24" class="node">
<title>restrictions.mjs</title>
<g id="a_node24"><a xlink:href="https://github.com/sverweij/dependency-cruiser/blob/develop/tools/schema/restrictions.mjs" xlink:title="restrictions.mjs">
<path fill="#ffffcc" stroke="black" d="M633.5,-140C633.5,-140 568.5,-140 568.5,-140 565.5,-140 562.5,-137 562.5,-134 562.5,-134 562.5,-128 562.5,-128 562.5,-125 565.5,-122 568.5,-122 568.5,-122 633.5,-122 633.5,-122 636.5,-122 639.5,-125 639.5,-128 639.5,-128 639.5,-134 639.5,-134 639.5,-137 636.5,-140 633.5,-140"/>
<text text-anchor="middle" x="601" y="-128.8" font-family="Helvetica,sans-Serif" font-size="9.00">restrictions.mjs</text>
</a>
</g>
</g>
<!-- rule&#45;set.mjs&#45;&gt;restrictions.mjs -->
<g id="edge44" class="edge">
<title>rule&#45;set.mjs&#45;&gt;restrictions.mjs</title>
<path fill="none" stroke="#000000" stroke-width="2" stroke-opacity="0.200000" d="M471.73,-101C521.9,-101 613,-101 613,-101 613,-101 613,-115.84 613,-115.84"/>
<polygon fill="#000000" fill-opacity="0.200000" stroke="#000000" stroke-width="2" stroke-opacity="0.200000" points="610.9,-115.84 613,-121.84 615.1,-115.84 610.9,-115.84"/>
</g>
<!-- severity&#45;type.mjs -->
<g id="node25" class="node">
<title>severity&#45;type.mjs</title>
<g id="a_node25"><a xlink:href="https://github.com/sverweij/dependency-cruiser/blob/develop/tools/schema/severity-type.mjs" xlink:title="severity&#45;type.mjs">
<polygon fill="white" stroke="transparent" points="948.5,-94 863.5,-94 863.5,-76 948.5,-76 948.5,-94"/>
<polyline fill="none" stroke="black" points="863.5,-76 948.5,-76 "/>
<text text-anchor="middle" x="906" y="-82.8" font-family="Helvetica,sans-Serif" font-size="9.00">severity&#45;type.mjs</text>
</a>
</g>
</g>
<!-- rule&#45;set.mjs&#45;&gt;severity&#45;type.mjs -->
<g id="edge45" class="edge">
<title>rule&#45;set.mjs&#45;&gt;severity&#45;type.mjs</title>
<path fill="none" stroke="#000000" stroke-width="2" stroke-opacity="0.200000" d="M440,-89.83C440,-87.68 440,-86 440,-86 440,-86 857.41,-86 857.41,-86"/>
<polygon fill="#000000" fill-opacity="0.200000" stroke="#000000" stroke-width="2" stroke-opacity="0.200000" points="857.41,-88.1 863.41,-86 857.41,-83.9 857.41,-88.1"/>
</g>
<!-- cruise&#45;result.schema.mjs -->
<g id="node11" class="node">
<title>cruise&#45;result.schema.mjs</title>
<g id="a_node11"><a xlink:href="https://github.com/sverweij/dependency-cruiser/blob/develop/tools/schema/cruise-result.schema.mjs" xlink:title="cruise&#45;result.schema.mjs">
<path fill="darkgreen" stroke="darkgreen" d="M112,-155C112,-155 6,-155 6,-155 3,-155 0,-152 0,-149 0,-149 0,-143 0,-143 0,-140 3,-137 6,-137 6,-137 112,-137 112,-137 115,-137 118,-140 118,-143 118,-143 118,-149 118,-149 118,-152 115,-155 112,-155"/>
<text text-anchor="middle" x="59" y="-143.8" font-family="Helvetica,sans-Serif" font-size="9.00" fill="#ffffcc">cruise&#45;result.schema.mjs</text>
</a>
</g>
</g>
<!-- folders.mjs -->
<g id="node12" class="node">
<title>folders.mjs</title>
<g id="a_node12"><a xlink:href="https://github.com/sverweij/dependency-cruiser/blob/develop/tools/schema/folders.mjs" xlink:title="folders.mjs">
<path fill="#ffffcc" stroke="black" d="M317,-257C317,-257 268,-257 268,-257 265,-257 262,-254 262,-251 262,-251 262,-245 262,-245 262,-242 265,-239 268,-239 268,-239 317,-239 317,-239 320,-239 323,-242 323,-245 323,-245 323,-251 323,-251 323,-254 320,-257 317,-257"/>
<text text-anchor="middle" x="292.5" y="-245.8" font-family="Helvetica,sans-Serif" font-size="9.00">folders.mjs</text>
</a>
</g>
</g>
<!-- cruise&#45;result.schema.mjs&#45;&gt;folders.mjs -->
<g id="edge8" class="edge">
<title>cruise&#45;result.schema.mjs&#45;&gt;folders.mjs</title>
<path fill="none" stroke="#000000" stroke-width="2" stroke-opacity="0.200000" d="M59,-155.05C59,-180.02 59,-248 59,-248 59,-248 255.97,-248 255.97,-248"/>
<polygon fill="#000000" fill-opacity="0.200000" stroke="#000000" stroke-width="2" stroke-opacity="0.200000" points="255.97,-250.1 261.97,-248 255.97,-245.9 255.97,-250.1"/>
</g>
<!-- modules.mjs -->
<g id="node13" class="node">
<title>modules.mjs</title>
<g id="a_node13"><a xlink:href="https://github.com/sverweij/dependency-cruiser/blob/develop/tools/schema/modules.mjs" xlink:title="modules.mjs">
<path fill="#ffffcc" stroke="black" d="M467.5,-140C467.5,-140 411.5,-140 411.5,-140 408.5,-140 405.5,-137 405.5,-134 405.5,-134 405.5,-128 405.5,-128 405.5,-125 408.5,-122 411.5,-122 411.5,-122 467.5,-122 467.5,-122 470.5,-122 473.5,-125 473.5,-128 473.5,-128 473.5,-134 473.5,-134 473.5,-137 470.5,-140 467.5,-140"/>
<text text-anchor="middle" x="439.5" y="-128.8" font-family="Helvetica,sans-Serif" font-size="9.00">modules.mjs</text>
</a>
</g>
</g>
<!-- cruise&#45;result.schema.mjs&#45;&gt;modules.mjs -->
<g id="edge9" class="edge">
<title>cruise&#45;result.schema.mjs&#45;&gt;modules.mjs</title>
<path fill="none" stroke="#000000" stroke-width="2" stroke-opacity="0.200000" d="M118.04,-149.33C222.5,-149.33 429,-149.33 429,-149.33 429,-149.33 429,-146.17 429,-146.17"/>
<polygon fill="#000000" fill-opacity="0.200000" stroke="#000000" stroke-width="2" stroke-opacity="0.200000" points="431.1,-146.17 429,-140.17 426.9,-146.17 431.1,-146.17"/>
</g>
<!-- revision&#45;data.mjs -->
<g id="node14" class="node">
<title>revision&#45;data.mjs</title>
<g id="a_node14"><a xlink:href="https://github.com/sverweij/dependency-cruiser/blob/develop/tools/schema/revision-data.mjs" xlink:title="revision&#45;data.mjs">
<path fill="#ffffcc" stroke="black" d="M212,-140C212,-140 138,-140 138,-140 135,-140 132,-137 132,-134 132,-134 132,-128 132,-128 132,-125 135,-122 138,-122 138,-122 212,-122 212,-122 215,-122 218,-125 218,-128 218,-128 218,-134 218,-134 218,-137 215,-140 212,-140"/>
<text text-anchor="middle" x="175" y="-128.8" font-family="Helvetica,sans-Serif" font-size="9.00">revision&#45;data.mjs</text>
</a>
</g>
</g>
<!-- cruise&#45;result.schema.mjs&#45;&gt;revision&#45;data.mjs -->
<g id="edge10" class="edge">
<title>cruise&#45;result.schema.mjs&#45;&gt;revision&#45;data.mjs</title>
<path fill="none" stroke="#000000" stroke-width="2" stroke-opacity="0.200000" d="M118.02,-144.67C146.68,-144.67 175,-144.67 175,-144.67 175,-144.67 175,-144.2 175,-144.2"/>
<polygon fill="#000000" fill-opacity="0.200000" stroke="#000000" stroke-width="2" stroke-opacity="0.200000" points="177.1,-146.04 175,-140.04 172.9,-146.04 177.1,-146.04"/>
</g>
<!-- summary.mjs -->
<g id="node15" class="node">
<title>summary.mjs</title>
<g id="a_node15"><a xlink:href="https://github.com/sverweij/dependency-cruiser/blob/develop/tools/schema/summary.mjs" xlink:title="summary.mjs">
<path fill="#ffffcc" stroke="black" d="M204.5,-108C204.5,-108 145.5,-108 145.5,-108 142.5,-108 139.5,-105 139.5,-102 139.5,-102 139.5,-96 139.5,-96 139.5,-93 142.5,-90 145.5,-90 145.5,-90 204.5,-90 204.5,-90 207.5,-90 210.5,-93 210.5,-96 210.5,-96 210.5,-102 210.5,-102 210.5,-105 207.5,-108 204.5,-108"/>
<text text-anchor="middle" x="175" y="-96.8" font-family="Helvetica,sans-Serif" font-size="9.00">summary.mjs</text>
</a>
</g>
</g>
<!-- cruise&#45;result.schema.mjs&#45;&gt;summary.mjs -->
<g id="edge11" class="edge">
<title>cruise&#45;result.schema.mjs&#45;&gt;summary.mjs</title>
<path fill="none" stroke="#000000" stroke-width="2" stroke-opacity="0.200000" d="M59,-136.94C59,-123.28 59,-99 59,-99 59,-99 133.25,-99 133.25,-99"/>
<polygon fill="#000000" fill-opacity="0.200000" stroke="#000000" stroke-width="2" stroke-opacity="0.200000" points="133.25,-101.1 139.25,-99 133.25,-96.9 133.25,-101.1"/>
</g>
<!-- folders.mjs&#45;&gt;rule&#45;summary.mjs -->
<g id="edge15" class="edge">
<title>folders.mjs&#45;&gt;rule&#45;summary.mjs</title>
<path fill="none" stroke="#000000" stroke-width="2" stroke-opacity="0.200000" d="M323.33,-248C340.32,-248 358,-248 358,-248 358,-248 358,-67.2 358,-67.2 358,-67.2 714.28,-67.2 714.28,-67.2"/>
<polygon fill="#000000" fill-opacity="0.200000" stroke="#000000" stroke-width="2" stroke-opacity="0.200000" points="714.28,-69.3 720.28,-67.2 714.28,-65.1 714.28,-69.3"/>
</g>
<!-- dependencies.mjs -->
<g id="node16" class="node">
<title>dependencies.mjs</title>
<g id="a_node16"><a xlink:href="https://github.com/sverweij/dependency-cruiser/blob/develop/tools/schema/dependencies.mjs" xlink:title="dependencies.mjs">
<path fill="#ffffcc" stroke="black" d="M641,-202C641,-202 561,-202 561,-202 558,-202 555,-199 555,-196 555,-196 555,-190 555,-190 555,-187 558,-184 561,-184 561,-184 641,-184 641,-184 644,-184 647,-187 647,-190 647,-190 647,-196 647,-196 647,-199 644,-202 641,-202"/>
<text text-anchor="middle" x="601" y="-190.8" font-family="Helvetica,sans-Serif" font-size="9.00">dependencies.mjs</text>
</a>
</g>
</g>
<!-- modules.mjs&#45;&gt;dependencies.mjs -->
<g id="edge17" class="edge">
<title>modules.mjs&#45;&gt;dependencies.mjs</title>
<path fill="none" stroke="#000000" stroke-width="2" stroke-opacity="0.200000" d="M473.74,-134C509.06,-134 559,-134 559,-134 559,-134 559,-177.78 559,-177.78"/>
<polygon fill="#000000" fill-opacity="0.200000" stroke="#000000" stroke-width="2" stroke-opacity="0.200000" points="556.9,-177.78 559,-183.78 561.1,-177.78 556.9,-177.78"/>
</g>
<!-- modules.mjs&#45;&gt;dependency&#45;type.mjs -->
<g id="edge18" class="edge">
<title>modules.mjs&#45;&gt;dependency&#45;type.mjs</title>
<path fill="none" stroke="#000000" stroke-width="2" stroke-opacity="0.200000" d="M451,-140.06C451,-153.72 451,-178 451,-178 451,-178 765,-178 765,-178 765,-178 765,-179.7 765,-179.7"/>
<polygon fill="#000000" fill-opacity="0.200000" stroke="#000000" stroke-width="2" stroke-opacity="0.200000" points="762.9,-179.7 765,-185.7 767.1,-179.7 762.9,-179.7"/>
</g>
<!-- modules.mjs&#45;&gt;rule&#45;summary.mjs -->
<g id="edge19" class="edge">
<title>modules.mjs&#45;&gt;rule&#45;summary.mjs</title>
<path fill="none" stroke="#000000" stroke-width="2" stroke-opacity="0.200000" d="M473.74,-128C482.75,-128 490,-128 490,-128 490,-128 490,-70.8 490,-70.8 490,-70.8 714.2,-70.8 714.2,-70.8"/>
<polygon fill="#000000" fill-opacity="0.200000" stroke="#000000" stroke-width="2" stroke-opacity="0.200000" points="714.2,-72.9 720.2,-70.8 714.2,-68.7 714.2,-72.9"/>
</g>
<!-- summary.mjs&#45;&gt;violations.mjs -->
<g id="edge49" class="edge">
<title>summary.mjs&#45;&gt;violations.mjs</title>
<path fill="none" stroke="#000000" stroke-width="2" stroke-opacity="0.200000" d="M175,-89.94C175,-66.29 175,-4.5 175,-4.5 175,-4.5 558.68,-4.5 558.68,-4.5"/>
<polygon fill="#000000" fill-opacity="0.200000" stroke="#000000" stroke-width="2" stroke-opacity="0.200000" points="558.68,-6.6 564.68,-4.5 558.68,-2.4 558.68,-6.6"/>
</g>
<!-- summary.mjs&#45;&gt;rule&#45;set.mjs -->
<g id="edge48" class="edge">
<title>summary.mjs&#45;&gt;rule&#45;set.mjs</title>
<path fill="none" stroke="#000000" stroke-width="2" stroke-opacity="0.200000" d="M210.67,-94.5C210.67,-94.5 401.29,-94.5 401.29,-94.5"/>
<polygon fill="#000000" fill-opacity="0.200000" stroke="#000000" stroke-width="2" stroke-opacity="0.200000" points="401.29,-96.6 407.29,-94.5 401.29,-92.4 401.29,-96.6"/>
</g>
<!-- options&#45;used.mjs -->
<g id="node21" class="node">
<title>options&#45;used.mjs</title>
<g id="a_node21"><a xlink:href="https://github.com/sverweij/dependency-cruiser/blob/develop/tools/schema/options-used.mjs" xlink:title="options&#45;used.mjs">
<path fill="#ffffcc" stroke="black" d="M329.5,-342C329.5,-342 255.5,-342 255.5,-342 252.5,-342 249.5,-339 249.5,-336 249.5,-336 249.5,-330 249.5,-330 249.5,-327 252.5,-324 255.5,-324 255.5,-324 329.5,-324 329.5,-324 332.5,-324 335.5,-327 335.5,-330 335.5,-330 335.5,-336 335.5,-336 335.5,-339 332.5,-342 329.5,-342"/>
<text text-anchor="middle" x="292.5" y="-330.8" font-family="Helvetica,sans-Serif" font-size="9.00">options&#45;used.mjs</text>
</a>
</g>
</g>
<!-- summary.mjs&#45;&gt;options&#45;used.mjs -->
<g id="edge47" class="edge">
<title>summary.mjs&#45;&gt;options&#45;used.mjs</title>
<path fill="none" stroke="#000000" stroke-width="2" stroke-opacity="0.200000" d="M210.54,-99C218.68,-99 225,-99 225,-99 225,-99 225,-333 225,-333 225,-333 243.37,-333 243.37,-333"/>
<polygon fill="#000000" fill-opacity="0.200000" stroke="#000000" stroke-width="2" stroke-opacity="0.200000" points="243.37,-335.1 249.37,-333 243.37,-330.9 243.37,-335.1"/>
</g>
<!-- dependencies.mjs&#45;&gt;dependency&#45;type.mjs -->
<g id="edge12" class="edge">
<title>dependencies.mjs&#45;&gt;dependency&#45;type.mjs</title>
<path fill="none" stroke="#000000" stroke-width="2" stroke-opacity="0.200000" d="M647.12,-196.67C647.12,-196.67 706.88,-196.67 706.88,-196.67"/>
<polygon fill="#000000" fill-opacity="0.200000" stroke="#000000" stroke-width="2" stroke-opacity="0.200000" points="706.88,-198.77 712.88,-196.67 706.88,-194.57 706.88,-198.77"/>
</g>
<!-- module&#45;system&#45;type.mjs -->
<g id="node18" class="node">
<title>module&#45;system&#45;type.mjs</title>
<g id="a_node18"><a xlink:href="https://github.com/sverweij/dependency-cruiser/blob/develop/tools/schema/module-system-type.mjs" xlink:title="module&#45;system&#45;type.mjs">
<polygon fill="white" stroke="transparent" points="823,-172 707,-172 707,-154 823,-154 823,-172"/>
<polyline fill="none" stroke="black" points="707,-154 823,-154 "/>
<text text-anchor="middle" x="765" y="-160.8" font-family="Helvetica,sans-Serif" font-size="9.00">module&#45;system&#45;type.mjs</text>
</a>
</g>
</g>
<!-- dependencies.mjs&#45;&gt;module&#45;system&#45;type.mjs -->
<g id="edge13" class="edge">
<title>dependencies.mjs&#45;&gt;module&#45;system&#45;type.mjs</title>
<path fill="none" stroke="#000000" stroke-width="2" stroke-opacity="0.200000" d="M645,-183.82C645,-174.26 645,-160.67 645,-160.67 645,-160.67 700.76,-160.67 700.76,-160.67"/>
<polygon fill="#000000" fill-opacity="0.200000" stroke="#000000" stroke-width="2" stroke-opacity="0.200000" points="700.76,-162.77 706.76,-160.67 700.76,-158.57 700.76,-162.77"/>
</g>
<!-- dependencies.mjs&#45;&gt;rule&#45;summary.mjs -->
<g id="edge14" class="edge">
<title>dependencies.mjs&#45;&gt;rule&#45;summary.mjs</title>
<path fill="none" stroke="#000000" stroke-width="2" stroke-opacity="0.200000" d="M642,-183.69C642,-155.73 642,-74.4 642,-74.4 642,-74.4 714.25,-74.4 714.25,-74.4"/>
<polygon fill="#000000" fill-opacity="0.200000" stroke="#000000" stroke-width="2" stroke-opacity="0.200000" points="714.25,-76.5 720.25,-74.4 714.25,-72.3 714.25,-76.5"/>
</g>
<!-- rule&#45;summary.mjs&#45;&gt;severity&#45;type.mjs -->
<g id="edge46" class="edge">
<title>rule&#45;summary.mjs&#45;&gt;severity&#45;type.mjs</title>
<path fill="none" stroke="#000000" stroke-width="2" stroke-opacity="0.200000" d="M765,-78.17C765,-80.32 765,-82 765,-82 765,-82 857.31,-82 857.31,-82"/>
<polygon fill="#000000" fill-opacity="0.200000" stroke="#000000" stroke-width="2" stroke-opacity="0.200000" points="857.31,-84.1 863.31,-82 857.31,-79.9 857.31,-84.1"/>
</g>
<!-- module&#45;systems&#45;type.mjs&#45;&gt;module&#45;system&#45;type.mjs -->
<g id="edge16" class="edge">
<title>module&#45;systems&#45;type.mjs&#45;&gt;module&#45;system&#45;type.mjs</title>
<path fill="none" stroke="#000000" stroke-width="2" stroke-opacity="0.200000" d="M654,-277.93C654,-249.87 654,-166.33 654,-166.33 654,-166.33 700.9,-166.33 700.9,-166.33"/>
<polygon fill="#000000" fill-opacity="0.200000" stroke="#000000" stroke-width="2" stroke-opacity="0.200000" points="700.9,-168.43 706.9,-166.33 700.9,-164.23 700.9,-168.43"/>
</g>
<!-- options&#45;used.mjs&#45;&gt;compound&#45;donot&#45;follow&#45;type.mjs -->
<g id="edge20" class="edge">
<title>options&#45;used.mjs&#45;&gt;compound&#45;donot&#45;follow&#45;type.mjs</title>
<path fill="none" stroke="#000000" stroke-width="2" stroke-opacity="0.200000" d="M335.6,-339.43C403.82,-339.43 529,-339.43 529,-339.43 529,-339.43 529,-543.84 529,-543.84"/>
<polygon fill="#000000" fill-opacity="0.200000" stroke="#000000" stroke-width="2" stroke-opacity="0.200000" points="526.9,-543.84 529,-549.84 531.1,-543.84 526.9,-543.84"/>
</g>
<!-- options&#45;used.mjs&#45;&gt;compound&#45;exclude&#45;type.mjs -->
<g id="edge21" class="edge">
<title>options&#45;used.mjs&#45;&gt;compound&#45;exclude&#45;type.mjs</title>
<path fill="none" stroke="#000000" stroke-width="2" stroke-opacity="0.200000" d="M279,-342.29C279,-374.8 279,-481.5 279,-481.5 279,-481.5 692.95,-481.5 692.95,-481.5"/>
<polygon fill="#000000" fill-opacity="0.200000" stroke="#000000" stroke-width="2" stroke-opacity="0.200000" points="692.95,-483.6 698.95,-481.5 692.95,-479.4 692.95,-483.6"/>
</g>
<!-- options&#45;used.mjs&#45;&gt;compound&#45;focus&#45;type.mjs -->
<g id="edge22" class="edge">
<title>options&#45;used.mjs&#45;&gt;compound&#45;focus&#45;type.mjs</title>
<path fill="none" stroke="#000000" stroke-width="2" stroke-opacity="0.200000" d="M307,-342.16C307,-366.06 307,-428.5 307,-428.5 307,-428.5 697.71,-428.5 697.71,-428.5"/>
<polygon fill="#000000" fill-opacity="0.200000" stroke="#000000" stroke-width="2" stroke-opacity="0.200000" points="697.71,-430.6 703.71,-428.5 697.71,-426.4 697.71,-430.6"/>
</g>
<!-- options&#45;used.mjs&#45;&gt;compound&#45;include&#45;only&#45;type.mjs -->
<g id="edge23" class="edge">
<title>options&#45;used.mjs&#45;&gt;compound&#45;include&#45;only&#45;type.mjs</title>
<path fill="none" stroke="#000000" stroke-width="2" stroke-opacity="0.200000" d="M335.68,-336.86C439.77,-336.86 696,-336.86 696,-336.86 696,-336.86 696,-362.87 696,-362.87"/>
<polygon fill="#000000" fill-opacity="0.200000" stroke="#000000" stroke-width="2" stroke-opacity="0.200000" points="693.9,-362.87 696,-368.87 698.1,-362.87 693.9,-362.87"/>
</g>
<!-- options&#45;used.mjs&#45;&gt;options.mjs -->
<g id="edge26" class="edge">
<title>options&#45;used.mjs&#45;&gt;options.mjs</title>
<path fill="none" stroke="#000000" stroke-width="2" stroke-opacity="0.200000" d="M330,-323.88C330,-311.26 330,-290 330,-290 330,-290 401.83,-290 401.83,-290"/>
<polygon fill="#000000" fill-opacity="0.200000" stroke="#000000" stroke-width="2" stroke-opacity="0.200000" points="401.83,-292.1 407.83,-290 401.83,-287.9 401.83,-292.1"/>
</g>
<!-- options&#45;used.mjs&#45;&gt;dependency&#45;type.mjs -->
<g id="edge24" class="edge">
<title>options&#45;used.mjs&#45;&gt;dependency&#45;type.mjs</title>
<path fill="none" stroke="#000000" stroke-width="2" stroke-opacity="0.200000" d="M335.6,-334.29C455.29,-334.29 783,-334.29 783,-334.29 783,-334.29 783,-210.14 783,-210.14"/>
<polygon fill="#000000" fill-opacity="0.200000" stroke="#000000" stroke-width="2" stroke-opacity="0.200000" points="785.1,-210.14 783,-204.14 780.9,-210.14 785.1,-210.14"/>
</g>
<!-- options&#45;used.mjs&#45;&gt;module&#45;systems&#45;type.mjs -->
<g id="edge25" class="edge">
<title>options&#45;used.mjs&#45;&gt;module&#45;systems&#45;type.mjs</title>
<path fill="none" stroke="#000000" stroke-width="2" stroke-opacity="0.200000" d="M335.72,-331.71C420.62,-331.71 601,-331.71 601,-331.71 601,-331.71 601,-302.05 601,-302.05"/>
<polygon fill="#000000" fill-opacity="0.200000" stroke="#000000" stroke-width="2" stroke-opacity="0.200000" points="603.1,-302.05 601,-296.05 598.9,-302.05 603.1,-302.05"/>
</g>
<!-- output&#45;type.mjs -->
<g id="node22" class="node">
<title>output&#45;type.mjs</title>
<g id="a_node22"><a xlink:href="https://github.com/sverweij/dependency-cruiser/blob/develop/tools/schema/output-type.mjs" xlink:title="output&#45;type.mjs">
<polygon fill="white" stroke="transparent" points="479,-202 400,-202 400,-184 479,-184 479,-202"/>
<polyline fill="none" stroke="black" points="400,-184 479,-184 "/>
<text text-anchor="middle" x="439.5" y="-190.8" font-family="Helvetica,sans-Serif" font-size="9.00">output&#45;type.mjs</text>
</a>
</g>
</g>
<!-- options&#45;used.mjs&#45;&gt;output&#45;type.mjs -->
<g id="edge27" class="edge">
<title>options&#45;used.mjs&#45;&gt;output&#45;type.mjs</title>
<path fill="none" stroke="#000000" stroke-width="2" stroke-opacity="0.200000" d="M335.54,-326.57C350.22,-326.57 363,-326.57 363,-326.57 363,-326.57 363,-197 363,-197 363,-197 393.91,-197 393.91,-197"/>
<polygon fill="#000000" fill-opacity="0.200000" stroke="#000000" stroke-width="2" stroke-opacity="0.200000" points="393.91,-199.1 399.91,-197 393.91,-194.9 393.91,-199.1"/>
</g>
<!-- options&#45;used.mjs&#45;&gt;reporter&#45;options.mjs -->
<g id="edge28" class="edge">
<title>options&#45;used.mjs&#45;&gt;reporter&#45;options.mjs</title>
<path fill="none" stroke="#000000" stroke-width="2" stroke-opacity="0.200000" d="M335.72,-329.14C406.41,-329.14 539,-329.14 539,-329.14 539,-329.14 539,-228 539,-228 539,-228 545.85,-228 545.85,-228"/>
<polygon fill="#000000" fill-opacity="0.200000" stroke="#000000" stroke-width="2" stroke-opacity="0.200000" points="545.85,-230.1 551.85,-228 545.85,-225.9 545.85,-230.1"/>
</g>
<!-- reporter&#45;options.mjs&#45;&gt;re&#45;as&#45;strings&#45;type.mjs -->
<g id="edge41" class="edge">
<title>reporter&#45;options.mjs&#45;&gt;re&#45;as&#45;strings&#45;type.mjs</title>
<path fill="none" stroke="#000000" stroke-width="2" stroke-opacity="0.200000" d="M650.14,-219.6C724.99,-219.6 859,-219.6 859,-219.6 859,-219.6 859,-362.57 859,-362.57"/>
<polygon fill="#000000" fill-opacity="0.200000" stroke="#000000" stroke-width="2" stroke-opacity="0.200000" points="856.9,-362.57 859,-368.57 861.1,-362.57 856.9,-362.57"/>
</g>
<!-- reporter&#45;options.mjs&#45;&gt;compound&#45;exclude&#45;type.mjs -->
<g id="edge38" class="edge">
<title>reporter&#45;options.mjs&#45;&gt;compound&#45;exclude&#45;type.mjs</title>
<path fill="none" stroke="#000000" stroke-width="2" stroke-opacity="0.200000" d="M650.27,-230.4C659.33,-230.4 666,-230.4 666,-230.4 666,-230.4 666,-472.5 666,-472.5 666,-472.5 692.97,-472.5 692.97,-472.5"/>
<polygon fill="#000000" fill-opacity="0.200000" stroke="#000000" stroke-width="2" stroke-opacity="0.200000" points="692.97,-474.6 698.97,-472.5 692.97,-470.4 692.97,-474.6"/>
</g>
<!-- reporter&#45;options.mjs&#45;&gt;compound&#45;focus&#45;type.mjs -->
<g id="edge39" class="edge">
<title>reporter&#45;options.mjs&#45;&gt;compound&#45;focus&#45;type.mjs</title>
<path fill="none" stroke="#000000" stroke-width="2" stroke-opacity="0.200000" d="M650.38,-226.8C661.96,-226.8 671,-226.8 671,-226.8 671,-226.8 671,-419.5 671,-419.5 671,-419.5 697.88,-419.5 697.88,-419.5"/>
<polygon fill="#000000" fill-opacity="0.200000" stroke="#000000" stroke-width="2" stroke-opacity="0.200000" points="697.88,-421.6 703.88,-419.5 697.88,-417.4 697.88,-421.6"/>
</g>
<!-- reporter&#45;options.mjs&#45;&gt;compound&#45;include&#45;only&#45;type.mjs -->
<g id="edge40" class="edge">
<title>reporter&#45;options.mjs&#45;&gt;compound&#45;include&#45;only&#45;type.mjs</title>
<path fill="none" stroke="#000000" stroke-width="2" stroke-opacity="0.200000" d="M650.02,-223.2C675.75,-223.2 702,-223.2 702,-223.2 702,-223.2 702,-362.78 702,-362.78"/>
<polygon fill="#000000" fill-opacity="0.200000" stroke="#000000" stroke-width="2" stroke-opacity="0.200000" points="699.9,-362.78 702,-368.78 704.1,-362.78 699.9,-362.78"/>
</g>
<!-- restrictions.mjs&#45;&gt;re&#45;as&#45;strings&#45;type.mjs -->
<g id="edge43" class="edge">
<title>restrictions.mjs&#45;&gt;re&#45;as&#45;strings&#45;type.mjs</title>
<path fill="none" stroke="#000000" stroke-width="2" stroke-opacity="0.200000" d="M639.51,-128C712.11,-128 862,-128 862,-128 862,-128 862,-362.81 862,-362.81"/>
<polygon fill="#000000" fill-opacity="0.200000" stroke="#000000" stroke-width="2" stroke-opacity="0.200000" points="859.9,-362.81 862,-368.81 864.1,-362.81 859.9,-362.81"/>
</g>
<!-- restrictions.mjs&#45;&gt;dependency&#45;type.mjs -->
<g id="edge42" class="edge">
<title>restrictions.mjs&#45;&gt;dependency&#45;type.mjs</title>
<path fill="none" stroke="#000000" stroke-width="2" stroke-opacity="0.200000" d="M639.65,-134C649.82,-134 658,-134 658,-134 658,-134 658,-191.33 658,-191.33 658,-191.33 706.75,-191.33 706.75,-191.33"/>
<polygon fill="#000000" fill-opacity="0.200000" stroke="#000000" stroke-width="2" stroke-opacity="0.200000" points="706.75,-193.43 712.75,-191.33 706.75,-189.23 706.75,-193.43"/>
</g>
</g>
</svg>
